0, 0, Header, 1, 2, 480
1, 0, Start_track, , , 
1, 0, Title_t, Fingered Bass, , 
1, 0, Control_c, 1, 0, 0
1, 0, Control_c, 1, 32, 0
1, 0, Program_c, 1, 33
1, 5760, Note_on_c, 1, 36, 40
1, 6000, Note_off_c, 1, 36, 0
1, 6000, Note_on_c, 1, 36, 40
1, 6240, Note_off_c, 1, 36, 0
1, 6240, Note_on_c, 1, 36, 40
1, 6720, Note_off_c, 1, 36, 0
1, 6720, Note_on_c, 1, 36, 40
1, 6960, Note_off_c, 1, 36, 0
1, 6960, Note_on_c, 1, 36, 40
1, 7680, Note_off_c, 1, 36, 0
1, 7680, Note_on_c, 1, 36, 40
1, 7920, Note_off_c, 1, 36, 0
1, 7920, Note_on_c, 1, 36, 40
1, 8160, Note_off_c, 1, 36, 0
1, 8160, Note_on_c, 1, 36, 40
1, 8640, Note_off_c, 1, 36, 0
1, 8640, Note_on_c, 1, 36, 40
1, 8880, Note_off_c, 1, 36, 0
1, 8880, Note_on_c, 1, 36, 40
1, 9000, Note_off_c, 1, 36, 0
1, 9000, Note_on_c, 1, 43, 40
1, 9120, Note_off_c, 1, 43, 0
1, 9120, Note_on_c, 1, 43, 40
1, 9240, Note_off_c, 1, 43, 0
1, 9240, Note_on_c, 1, 40, 40
1, 9360, Note_off_c, 1, 40, 0
1, 9360, Note_on_c, 1, 43, 40
1, 9600, Note_off_c, 1, 43, 0
1, 9600, Note_on_c, 1, 43, 40
1, 9840, Note_off_c, 1, 43, 0
1, 9840, Note_on_c, 1, 43, 40
1, 10080, Note_off_c, 1, 43, 0
1, 10080, Note_on_c, 1, 43, 40
1, 10200, Note_off_c, 1, 43, 0
1, 10200, Note_on_c, 1, 40, 40
1, 10320, Note_off_c, 1, 40, 0
1, 10320, Note_on_c, 1, 42, 40
1, 10560, Note_off_c, 1, 42, 0
1, 10560, Note_on_c, 1, 42, 40
1, 10800, Note_off_c, 1, 42, 0
1, 10800, Note_on_c, 1, 42, 40
1, 11040, Note_off_c, 1, 42, 0
1, 11040, Note_on_c, 1, 42, 40
1, 11160, Note_off_c, 1, 42, 0
1, 11160, Note_on_c, 1, 38, 40
1, 11280, Note_off_c, 1, 38, 0
1, 11280, Note_on_c, 1, 40, 40
1, 11520, Note_off_c, 1, 40, 0
1, 11520, Note_on_c, 1, 40, 40
1, 11760, Note_off_c, 1, 40, 0
1, 11760, Note_on_c, 1, 40, 40
1, 12000, Note_off_c, 1, 40, 0
1, 12000, Note_on_c, 1, 40, 40
1, 12120, Note_off_c, 1, 40, 0
1, 12120, Note_on_c, 1, 38, 40
1, 12240, Note_off_c, 1, 38, 0
1, 12240, Note_on_c, 1, 40, 40
1, 12480, Note_off_c, 1, 40, 0
1, 12480, Note_on_c, 1, 38, 40
1, 12600, Note_off_c, 1, 38, 0
1, 12600, Note_on_c, 1, 33, 40
1, 12960, Note_off_c, 1, 33, 0
1, 12960, Note_on_c, 1, 35, 40
1, 13200, Note_off_c, 1, 35, 0
1, 13200, Note_on_c, 1, 36, 40
1, 13680, Note_off_c, 1, 36, 0
1, 13680, Note_on_c, 1, 36, 40
1, 14160, Note_off_c, 1, 36, 0
1, 14160, Note_on_c, 1, 35, 40
1, 14640, Note_off_c, 1, 35, 0
1, 14640, Note_on_c, 1, 35, 40
1, 15120, Note_off_c, 1, 35, 0
1, 15120, Note_on_c, 1, 33, 40
1, 15360, Note_off_c, 1, 33, 0
1, 15360, Note_on_c, 1, 33, 40
1, 15600, Note_off_c, 1, 33, 0
1, 15600, Note_on_c, 1, 33, 40
1, 16320, Note_off_c, 1, 33, 0
1, 16320, Note_on_c, 1, 28, 40
1, 16800, Note_off_c, 1, 28, 0
1, 16800, Note_on_c, 1, 30, 40
1, 17040, Note_off_c, 1, 30, 0
1, 17040, Note_on_c, 1, 31, 40
1, 17520, Note_off_c, 1, 31, 0
1, 17520, Note_on_c, 1, 31, 40
1, 17760, Note_off_c, 1, 31, 0
1, 17760, Note_on_c, 1, 33, 40
1, 18000, Note_off_c, 1, 33, 0
1, 18000, Note_on_c, 1, 35, 40
1, 18720, Note_off_c, 1, 35, 0
1, 18720, Note_on_c, 1, 38, 40
1, 18960, Note_off_c, 1, 38, 0
1, 18960, Note_on_c, 1, 40, 40
1, 19680, Note_off_c, 1, 40, 0
1, 19680, Note_on_c, 1, 38, 40
1, 20160, Note_off_c, 1, 38, 0
1, 20160, Note_on_c, 1, 33, 40
1, 20640, Note_off_c, 1, 33, 0
1, 20640, Note_on_c, 1, 35, 40
1, 20880, Note_off_c, 1, 35, 0
1, 20880, Note_on_c, 1, 36, 40
1, 21600, Note_off_c, 1, 36, 0
1, 21600, Note_on_c, 1, 40, 40
1, 21840, Note_off_c, 1, 40, 0
1, 21840, Note_on_c, 1, 41, 40
1, 22320, Note_off_c, 1, 41, 0
1, 22320, Note_on_c, 1, 41, 40
1, 22800, Note_off_c, 1, 41, 0
1, 22800, Note_on_c, 1, 40, 40
1, 23280, Note_off_c, 1, 40, 0
1, 23280, Note_on_c, 1, 40, 40
1, 23760, Note_off_c, 1, 40, 0
1, 23760, Note_on_c, 1, 38, 40
1, 24240, Note_off_c, 1, 38, 0
1, 24240, Note_on_c, 1, 38, 40
1, 24720, Note_off_c, 1, 38, 0
1, 24720, Note_on_c, 1, 36, 40
1, 25200, Note_off_c, 1, 36, 0
1, 25200, Note_on_c, 1, 36, 40
1, 25440, Note_off_c, 1, 36, 0
1, 25440, Note_on_c, 1, 40, 40
1, 25680, Note_off_c, 1, 40, 0
1, 25680, Note_on_c, 1, 41, 40
1, 26160, Note_off_c, 1, 41, 0
1, 26160, Note_on_c, 1, 41, 40
1, 26520, Note_off_c, 1, 41, 0
1, 26520, Note_on_c, 1, 36, 40
1, 26640, Note_off_c, 1, 36, 0
1, 26640, Note_on_c, 1, 40, 40
1, 26880, Note_off_c, 1, 40, 0
1, 26880, Note_on_c, 1, 40, 40
1, 27120, Note_off_c, 1, 40, 0
1, 27120, Note_on_c, 1, 40, 40
1, 27480, Note_off_c, 1, 40, 0
1, 27480, Note_on_c, 1, 38, 40
1, 27600, Note_off_c, 1, 38, 0
1, 27600, Note_on_c, 1, 36, 40
1, 27840, Note_off_c, 1, 36, 0
1, 27840, Note_on_c, 1, 36, 40
1, 28080, Note_off_c, 1, 36, 0
1, 28080, Note_on_c, 1, 36, 40
1, 28320, Note_off_c, 1, 36, 0
1, 28320, Note_on_c, 1, 38, 40
1, 28560, Note_off_c, 1, 38, 0
1, 28560, Note_on_c, 1, 31, 40
1, 28800, Note_off_c, 1, 31, 0
1, 28800, Note_on_c, 1, 43, 40
1, 29040, Note_off_c, 1, 43, 0
1, 29040, Note_on_c, 1, 43, 40
1, 29280, Note_off_c, 1, 43, 0
1, 29280, Note_on_c, 1, 43, 40
1, 29400, Note_off_c, 1, 43, 0
1, 29400, Note_on_c, 1, 40, 40
1, 29520, Note_off_c, 1, 40, 0
1, 29520, Note_on_c, 1, 42, 40
1, 29760, Note_off_c, 1, 42, 0
1, 29760, Note_on_c, 1, 42, 40
1, 30000, Note_off_c, 1, 42, 0
1, 30000, Note_on_c, 1, 42, 40
1, 30240, Note_off_c, 1, 42, 0
1, 30240, Note_on_c, 1, 42, 40
1, 30480, Note_off_c, 1, 42, 0
1, 30480, Note_on_c, 1, 40, 40
1, 30720, Note_off_c, 1, 40, 0
1, 30720, Note_on_c, 1, 40, 40
1, 30960, Note_off_c, 1, 40, 0
1, 30960, Note_on_c, 1, 40, 40
1, 31200, Note_off_c, 1, 40, 0
1, 31200, Note_on_c, 1, 40, 40
1, 31440, Note_off_c, 1, 40, 0
1, 31440, Note_on_c, 1, 40, 40
1, 31680, Note_off_c, 1, 40, 0
1, 31680, Note_on_c, 1, 40, 40
1, 31920, Note_off_c, 1, 40, 0
1, 31920, Note_on_c, 1, 38, 40
1, 32160, Note_off_c, 1, 38, 0
1, 32160, Note_on_c, 1, 38, 40
1, 32400, Note_off_c, 1, 38, 0
1, 32400, Note_on_c, 1, 36, 40
1, 32640, Note_off_c, 1, 36, 0
1, 32640, Note_on_c, 1, 36, 40
1, 32880, Note_off_c, 1, 36, 0
1, 32880, Note_on_c, 1, 36, 40
1, 33120, Note_off_c, 1, 36, 0
1, 33120, Note_on_c, 1, 36, 40
1, 33360, Note_off_c, 1, 36, 0
1, 33360, Note_on_c, 1, 35, 40
1, 33600, Note_off_c, 1, 35, 0
1, 33600, Note_on_c, 1, 35, 40
1, 33840, Note_off_c, 1, 35, 0
1, 33840, Note_on_c, 1, 35, 40
1, 34080, Note_off_c, 1, 35, 0
1, 34080, Note_on_c, 1, 35, 40
1, 34320, Note_off_c, 1, 35, 0
1, 34320, Note_on_c, 1, 33, 40
1, 34560, Note_off_c, 1, 33, 0
1, 34560, Note_on_c, 1, 33, 40
1, 34800, Note_off_c, 1, 33, 0
1, 34800, Note_on_c, 1, 33, 40
1, 35520, Note_off_c, 1, 33, 0
1, 35520, Note_on_c, 1, 28, 40
1, 36000, Note_off_c, 1, 28, 0
1, 36000, Note_on_c, 1, 30, 40
1, 36240, Note_off_c, 1, 30, 0
1, 36240, Note_on_c, 1, 31, 40
1, 36720, Note_off_c, 1, 31, 0
1, 36720, Note_on_c, 1, 31, 40
1, 36960, Note_off_c, 1, 31, 0
1, 36960, Note_on_c, 1, 33, 40
1, 37200, Note_off_c, 1, 33, 0
1, 37200, Note_on_c, 1, 35, 40
1, 37680, Note_off_c, 1, 35, 0
1, 37680, Note_on_c, 1, 35, 40
1, 37920, Note_off_c, 1, 35, 0
1, 37920, Note_on_c, 1, 38, 40
1, 38160, Note_off_c, 1, 38, 0
1, 38160, Note_on_c, 1, 40, 40
1, 38880, Note_off_c, 1, 40, 0
1, 38880, Note_on_c, 1, 40, 40
1, 39120, Note_off_c, 1, 40, 0
1, 39120, Note_on_c, 1, 38, 40
1, 39840, Note_off_c, 1, 38, 0
1, 39840, Note_on_c, 1, 38, 40
1, 40080, Note_off_c, 1, 38, 0
1, 40080, Note_on_c, 1, 36, 40
1, 40560, Note_off_c, 1, 36, 0
1, 40560, Note_on_c, 1, 36, 40
1, 40800, Note_off_c, 1, 36, 0
1, 40800, Note_on_c, 1, 40, 40
1, 41040, Note_off_c, 1, 40, 0
1, 41040, Note_on_c, 1, 41, 40
1, 41520, Note_off_c, 1, 41, 0
1, 41520, Note_on_c, 1, 41, 40
1, 42000, Note_off_c, 1, 41, 0
1, 42000, Note_on_c, 1, 40, 40
1, 42480, Note_off_c, 1, 40, 0
1, 42480, Note_on_c, 1, 40, 40
1, 42720, Note_off_c, 1, 40, 0
1, 42720, Note_on_c, 1, 40, 40
1, 42960, Note_off_c, 1, 40, 0
1, 42960, Note_on_c, 1, 38, 40
1, 43440, Note_off_c, 1, 38, 0
1, 43440, Note_on_c, 1, 38, 40
1, 43920, Note_off_c, 1, 38, 0
1, 43920, Note_on_c, 1, 36, 40
1, 44160, Note_off_c, 1, 36, 0
1, 44160, Note_on_c, 1, 36, 40
1, 44400, Note_off_c, 1, 36, 0
1, 44400, Note_on_c, 1, 36, 40
1, 44640, Note_off_c, 1, 36, 0
1, 44640, Note_on_c, 1, 36, 40
1, 44880, Note_off_c, 1, 36, 0
1, 44880, Note_on_c, 1, 36, 40
1, 45120, Note_off_c, 1, 36, 0
1, 45120, Note_on_c, 1, 36, 40
1, 45360, Note_off_c, 1, 36, 0
1, 45360, Note_on_c, 1, 36, 40
1, 45600, Note_off_c, 1, 36, 0
1, 45600, Note_on_c, 1, 36, 40
1, 45840, Note_off_c, 1, 36, 0
1, 45840, Note_on_c, 1, 31, 40
1, 46080, Note_off_c, 1, 31, 0
1, 46080, Note_on_c, 1, 31, 40
1, 46320, Note_off_c, 1, 31, 0
1, 46320, Note_on_c, 1, 31, 40
1, 46800, Note_off_c, 1, 31, 0
1, 46800, Note_on_c, 1, 30, 40
1, 47040, Note_off_c, 1, 30, 0
1, 47040, Note_on_c, 1, 30, 40
1, 47280, Note_off_c, 1, 30, 0
1, 47280, Note_on_c, 1, 30, 40
1, 47760, Note_off_c, 1, 30, 0
1, 47760, Note_on_c, 1, 28, 40
1, 48000, Note_off_c, 1, 28, 0
1, 48000, Note_on_c, 1, 28, 40
1, 48240, Note_off_c, 1, 28, 0
1, 48240, Note_on_c, 1, 28, 40
1, 48720, Note_off_c, 1, 28, 0
1, 48720, Note_on_c, 1, 38, 40
1, 48960, Note_off_c, 1, 38, 0
1, 48960, Note_on_c, 1, 38, 40
1, 49200, Note_off_c, 1, 38, 0
1, 49200, Note_on_c, 1, 38, 40
1, 49680, Note_off_c, 1, 38, 0
1, 49680, Note_on_c, 1, 36, 40
1, 50160, Note_off_c, 1, 36, 0
1, 50160, Note_on_c, 1, 36, 40
1, 50640, Note_off_c, 1, 36, 0
1, 50640, Note_on_c, 1, 35, 40
1, 51120, Note_off_c, 1, 35, 0
1, 51120, Note_on_c, 1, 35, 40
1, 51600, Note_off_c, 1, 35, 0
1, 51600, Note_on_c, 1, 33, 40
1, 51840, Note_off_c, 1, 33, 0
1, 51840, Note_on_c, 1, 33, 40
1, 52080, Note_off_c, 1, 33, 0
1, 52080, Note_on_c, 1, 33, 40
1, 52800, Note_off_c, 1, 33, 0
1, 52800, Note_on_c, 1, 28, 40
1, 53280, Note_off_c, 1, 28, 0
1, 53280, Note_on_c, 1, 30, 40
1, 53520, Note_off_c, 1, 30, 0
1, 53520, Note_on_c, 1, 31, 40
1, 54000, Note_off_c, 1, 31, 0
1, 54000, Note_on_c, 1, 31, 40
1, 54240, Note_off_c, 1, 31, 0
1, 54240, Note_on_c, 1, 31, 40
1, 54480, Note_off_c, 1, 31, 0
1, 54480, Note_on_c, 1, 30, 40
1, 54720, Note_off_c, 1, 30, 0
1, 54720, Note_on_c, 1, 30, 40
1, 54960, Note_off_c, 1, 30, 0
1, 54960, Note_on_c, 1, 30, 40
1, 55200, Note_off_c, 1, 30, 0
1, 55200, Note_on_c, 1, 30, 40
1, 55440, Note_off_c, 1, 30, 0
1, 55440, Note_on_c, 1, 28, 40
1, 55680, Note_off_c, 1, 28, 0
1, 55800, Note_on_c, 1, 28, 40
1, 55920, Note_off_c, 1, 28, 0
1, 55920, Note_on_c, 1, 28, 40
1, 56160, Note_off_c, 1, 28, 0
1, 56160, Note_on_c, 1, 28, 40
1, 56400, Note_off_c, 1, 28, 0
1, 56400, Note_on_c, 1, 38, 40
1, 56640, Note_off_c, 1, 38, 0
1, 56640, Note_on_c, 1, 38, 40
1, 56880, Note_off_c, 1, 38, 0
1, 56880, Note_on_c, 1, 38, 40
1, 57120, Note_off_c, 1, 38, 0
1, 57120, Note_on_c, 1, 38, 40
1, 57360, Note_off_c, 1, 38, 0
1, 57360, Note_on_c, 1, 36, 40
1, 57840, Note_off_c, 1, 36, 0
1, 57840, Note_on_c, 1, 36, 40
1, 58080, Note_off_c, 1, 36, 0
1, 58080, Note_on_c, 1, 28, 40
1, 58320, Note_off_c, 1, 28, 0
1, 58320, Note_on_c, 1, 29, 40
1, 58800, Note_off_c, 1, 29, 0
1, 58800, Note_on_c, 1, 29, 40
1, 59040, Note_off_c, 1, 29, 0
1, 59040, Note_on_c, 1, 29, 40
1, 59280, Note_off_c, 1, 29, 0
1, 59280, Note_on_c, 1, 28, 40
1, 59760, Note_off_c, 1, 28, 0
1, 59760, Note_on_c, 1, 28, 40
1, 60240, Note_off_c, 1, 28, 0
1, 60240, Note_on_c, 1, 38, 40
1, 60720, Note_off_c, 1, 38, 0
1, 60720, Note_on_c, 1, 38, 40
1, 61200, Note_off_c, 1, 38, 0
1, 61200, Note_on_c, 1, 36, 40
1, 61440, Note_off_c, 1, 36, 0
1, 61440, Note_on_c, 1, 36, 40
1, 61680, Note_off_c, 1, 36, 0
1, 61680, Note_on_c, 1, 36, 40
1, 61920, Note_off_c, 1, 36, 0
1, 61920, Note_on_c, 1, 36, 40
1, 62160, Note_off_c, 1, 36, 0
1, 62160, Note_on_c, 1, 36, 40
1, 62400, Note_off_c, 1, 36, 0
1, 62400, Note_on_c, 1, 36, 40
1, 62640, Note_off_c, 1, 36, 0
1, 62640, Note_on_c, 1, 36, 40
1, 62880, Note_off_c, 1, 36, 0
1, 62880, Note_on_c, 1, 36, 40
1, 63120, Note_off_c, 1, 36, 0
1, 63120, Note_on_c, 1, 36, 40
1, 63360, Note_off_c, 1, 36, 0
1, 63360, Note_on_c, 1, 36, 40
1, 63600, Note_off_c, 1, 36, 0
1, 63600, Note_on_c, 1, 36, 40
1, 63840, Note_off_c, 1, 36, 0
1, 63840, Note_on_c, 1, 36, 40
1, 64080, Note_off_c, 1, 36, 0
1, 64080, Note_on_c, 1, 30, 40
1, 64320, Note_off_c, 1, 30, 0
1, 64320, Note_on_c, 1, 30, 40
1, 64560, Note_off_c, 1, 30, 0
1, 64560, Note_on_c, 1, 30, 40
1, 64800, Note_off_c, 1, 30, 0
1, 64800, Note_on_c, 1, 30, 40
1, 65040, Note_off_c, 1, 30, 0
1, 65040, Note_on_c, 1, 31, 40
1, 65280, Note_off_c, 1, 31, 0
1, 65280, Note_on_c, 1, 31, 40
1, 65520, Note_off_c, 1, 31, 0
1, 65520, Note_on_c, 1, 31, 40
1, 65760, Note_off_c, 1, 31, 0
1, 65760, Note_on_c, 1, 31, 40
1, 66000, Note_off_c, 1, 31, 0
1, 66000, Note_on_c, 1, 33, 40
1, 66240, Note_off_c, 1, 33, 0
1, 66240, Note_on_c, 1, 33, 40
1, 66480, Note_off_c, 1, 33, 0
1, 66480, Note_on_c, 1, 33, 40
1, 66720, Note_off_c, 1, 33, 0
1, 66720, Note_on_c, 1, 33, 40
1, 66960, Note_off_c, 1, 33, 0
1, 66960, Note_on_c, 1, 35, 40
1, 67200, Note_off_c, 1, 35, 0
1, 67200, Note_on_c, 1, 35, 40
1, 67440, Note_off_c, 1, 35, 0
1, 67440, Note_on_c, 1, 35, 40
1, 67680, Note_off_c, 1, 35, 0
1, 67680, Note_on_c, 1, 35, 40
1, 67920, Note_off_c, 1, 35, 0
1, 67920, Note_on_c, 1, 36, 40
1, 68160, Note_off_c, 1, 36, 0
1, 68160, Note_on_c, 1, 36, 40
1, 68400, Note_off_c, 1, 36, 0
1, 68400, Note_on_c, 1, 36, 40
1, 68640, Note_off_c, 1, 36, 0
1, 68640, Note_on_c, 1, 36, 40
1, 68880, Note_off_c, 1, 36, 0
1, 68880, Note_on_c, 1, 38, 40
1, 69120, Note_off_c, 1, 38, 0
1, 69120, Note_on_c, 1, 38, 40
1, 69360, Note_off_c, 1, 38, 0
1, 69360, Note_on_c, 1, 38, 40
1, 69600, Note_off_c, 1, 38, 0
1, 69600, Note_on_c, 1, 38, 40
1, 69840, Note_off_c, 1, 38, 0
1, 69840, Note_on_c, 1, 40, 40
1, 70080, Note_off_c, 1, 40, 0
1, 70080, Note_on_c, 1, 40, 40
1, 70320, Note_off_c, 1, 40, 0
1, 70320, Note_on_c, 1, 40, 40
1, 70560, Note_off_c, 1, 40, 0
1, 70560, Note_on_c, 1, 40, 40
1, 70800, Note_off_c, 1, 40, 0
1, 70800, Note_on_c, 1, 40, 40
1, 71040, Note_off_c, 1, 40, 0
1, 71040, Note_on_c, 1, 40, 40
1, 71280, Note_off_c, 1, 40, 0
1, 71280, Note_on_c, 1, 40, 40
1, 71520, Note_off_c, 1, 40, 0
1, 71520, Note_on_c, 1, 40, 40
1, 71760, Note_off_c, 1, 40, 0
1, 71760, Note_on_c, 1, 28, 40
1, 72000, Note_off_c, 1, 28, 0
1, 72000, Note_on_c, 1, 28, 40
1, 72240, Note_off_c, 1, 28, 0
1, 72240, Note_on_c, 1, 28, 40
1, 72480, Note_off_c, 1, 28, 0
1, 72480, Note_on_c, 1, 28, 40
1, 72720, Note_off_c, 1, 28, 0
1, 72720, Note_on_c, 1, 28, 40
1, 72960, Note_off_c, 1, 28, 0
1, 72960, Note_on_c, 1, 28, 40
1, 73200, Note_off_c, 1, 28, 0
1, 73200, Note_on_c, 1, 28, 40
1, 73440, Note_off_c, 1, 28, 0
1, 73440, Note_on_c, 1, 28, 40
1, 73680, Note_off_c, 1, 28, 0
1, 73680, Note_on_c, 1, 28, 40
1, 73920, Note_off_c, 1, 28, 0
1, 73920, Note_on_c, 1, 28, 40
1, 74160, Note_off_c, 1, 28, 0
1, 74160, Note_on_c, 1, 28, 40
1, 74400, Note_off_c, 1, 28, 0
1, 74400, Note_on_c, 1, 28, 40
1, 74640, Note_off_c, 1, 28, 0
1, 74640, Note_on_c, 1, 28, 40
1, 74880, Note_off_c, 1, 28, 0
1, 74880, Note_on_c, 1, 28, 40
1, 75120, Note_off_c, 1, 28, 0
1, 75120, Note_on_c, 1, 28, 40
1, 75360, Note_off_c, 1, 28, 0
1, 75360, Note_on_c, 1, 28, 40
1, 75600, Note_off_c, 1, 28, 0
1, 75600, Note_on_c, 1, 28, 40
1, 75840, Note_off_c, 1, 28, 0
1, 75840, Note_on_c, 1, 28, 40
1, 76080, Note_off_c, 1, 28, 0
1, 76080, Note_on_c, 1, 28, 40
1, 76320, Note_off_c, 1, 28, 0
1, 76320, Note_on_c, 1, 28, 40
1, 76560, Note_off_c, 1, 28, 0
1, 76560, Note_on_c, 1, 28, 40
1, 76800, Note_off_c, 1, 28, 0
1, 76800, Note_on_c, 1, 28, 40
1, 77040, Note_off_c, 1, 28, 0
1, 77040, Note_on_c, 1, 28, 40
1, 77280, Note_off_c, 1, 28, 0
1, 77280, Note_on_c, 1, 28, 40
1, 77520, Note_off_c, 1, 28, 0
1, 77520, Note_on_c, 1, 28, 40
1, 77760, Note_off_c, 1, 28, 0
1, 77760, Note_on_c, 1, 28, 40
1, 78000, Note_off_c, 1, 28, 0
1, 78000, Note_on_c, 1, 28, 40
1, 78240, Note_off_c, 1, 28, 0
1, 78240, Note_on_c, 1, 28, 40
1, 78480, Note_off_c, 1, 28, 0
1, 78480, Note_on_c, 1, 28, 40
1, 78720, Note_off_c, 1, 28, 0
1, 78720, Note_on_c, 1, 28, 40
1, 78960, Note_off_c, 1, 28, 0
1, 78960, Note_on_c, 1, 28, 40
1, 79200, Note_off_c, 1, 28, 0
1, 79200, Note_on_c, 1, 28, 40
1, 79440, Note_off_c, 1, 28, 0
1, 79440, Note_on_c, 1, 28, 40
1, 79680, Note_off_c, 1, 28, 0
1, 79680, Note_on_c, 1, 28, 40
1, 79920, Note_off_c, 1, 28, 0
1, 79920, Note_on_c, 1, 28, 40
1, 80160, Note_off_c, 1, 28, 0
1, 80160, Note_on_c, 1, 28, 40
1, 80400, Note_off_c, 1, 28, 0
1, 80400, Note_on_c, 1, 28, 40
1, 80640, Note_off_c, 1, 28, 0
1, 80640, Note_on_c, 1, 28, 40
1, 80880, Note_off_c, 1, 28, 0
1, 80880, Note_on_c, 1, 28, 40
1, 81120, Note_off_c, 1, 28, 0
1, 81120, Note_on_c, 1, 28, 40
1, 81360, Note_off_c, 1, 28, 0
1, 81360, Note_on_c, 1, 28, 40
1, 81600, Note_off_c, 1, 28, 0
1, 81600, Note_on_c, 1, 28, 40
1, 81840, Note_off_c, 1, 28, 0
1, 81840, Note_on_c, 1, 28, 40
1, 82080, Note_off_c, 1, 28, 0
1, 82080, Note_on_c, 1, 28, 40
1, 82320, Note_off_c, 1, 28, 0
1, 82320, Note_on_c, 1, 28, 40
1, 82560, Note_off_c, 1, 28, 0
1, 82560, Note_on_c, 1, 28, 40
1, 82800, Note_off_c, 1, 28, 0
1, 82800, Note_on_c, 1, 28, 40
1, 83040, Note_off_c, 1, 28, 0
1, 83040, Note_on_c, 1, 28, 40
1, 83280, Note_off_c, 1, 28, 0
1, 83280, Note_on_c, 1, 28, 40
1, 83520, Note_off_c, 1, 28, 0
1, 83520, Note_on_c, 1, 28, 40
1, 83760, Note_off_c, 1, 28, 0
1, 83760, Note_on_c, 1, 28, 40
1, 84000, Note_off_c, 1, 28, 0
1, 84000, Note_on_c, 1, 28, 40
1, 84240, Note_off_c, 1, 28, 0
1, 84240, Note_on_c, 1, 28, 40
1, 84480, Note_off_c, 1, 28, 0
1, 84480, Note_on_c, 1, 28, 40
1, 84720, Note_off_c, 1, 28, 0
1, 84720, Note_on_c, 1, 28, 40
1, 84960, Note_off_c, 1, 28, 0
1, 84960, Note_on_c, 1, 28, 40
1, 85200, Note_off_c, 1, 28, 0
1, 85200, Note_on_c, 1, 28, 40
1, 85440, Note_off_c, 1, 28, 0
1, 85440, Note_on_c, 1, 28, 40
1, 85680, Note_off_c, 1, 28, 0
1, 85680, Note_on_c, 1, 28, 40
1, 85920, Note_off_c, 1, 28, 0
1, 85920, Note_on_c, 1, 28, 40
1, 86160, Note_off_c, 1, 28, 0
1, 86400, Note_on_c, 1, 40, 40
1, 86520, Note_off_c, 1, 40, 0
1, 86640, Note_on_c, 1, 28, 40
1, 86760, Note_off_c, 1, 28, 0
1, 86880, Note_on_c, 1, 28, 40
1, 87000, Note_off_c, 1, 28, 0
1, 87120, Note_on_c, 1, 28, 40
1, 87240, Note_off_c, 1, 28, 0
1, 87360, Note_on_c, 1, 28, 40
1, 87480, Note_off_c, 1, 28, 0
1, 87600, Note_on_c, 1, 40, 40
1, 87720, Note_off_c, 1, 40, 0
1, 87840, Note_on_c, 1, 40, 40
1, 87960, Note_off_c, 1, 40, 0
1, 88080, Note_on_c, 1, 40, 40
1, 88200, Note_off_c, 1, 40, 0
1, 88320, Note_on_c, 1, 40, 40
1, 88440, Note_off_c, 1, 40, 0
1, 88560, Note_on_c, 1, 40, 40
1, 88680, Note_off_c, 1, 40, 0
1, 88800, Note_on_c, 1, 40, 40
1, 88920, Note_off_c, 1, 40, 0
1, 89040, Note_on_c, 1, 40, 40
1, 89160, Note_off_c, 1, 40, 0
1, 89280, Note_on_c, 1, 40, 40
1, 89400, Note_off_c, 1, 40, 0
1, 89520, Note_on_c, 1, 40, 40
1, 89640, Note_off_c, 1, 40, 0
1, 89760, Note_on_c, 1, 40, 40
1, 89880, Note_off_c, 1, 40, 0
1, 90000, Note_on_c, 1, 40, 40
1, 90120, Note_off_c, 1, 40, 0
1, 90240, Note_on_c, 1, 40, 40
1, 90360, Note_off_c, 1, 40, 0
1, 90480, Note_on_c, 1, 40, 40
1, 90600, Note_off_c, 1, 40, 0
1, 90720, Note_on_c, 1, 40, 40
1, 90840, Note_off_c, 1, 40, 0
1, 90960, Note_on_c, 1, 40, 40
1, 91080, Note_off_c, 1, 40, 0
1, 91200, Note_on_c, 1, 40, 40
1, 91320, Note_off_c, 1, 40, 0
1, 91440, Note_on_c, 1, 40, 40
1, 91560, Note_off_c, 1, 40, 0
1, 91680, Note_on_c, 1, 40, 40
1, 91800, Note_off_c, 1, 40, 0
1, 91920, Note_on_c, 1, 40, 40
1, 92040, Note_off_c, 1, 40, 0
1, 92160, Note_on_c, 1, 40, 40
1, 92280, Note_off_c, 1, 40, 0
1, 92400, Note_on_c, 1, 38, 40
1, 92640, Note_off_c, 1, 38, 0
1, 92760, Note_on_c, 1, 45, 40
1, 93000, Note_off_c, 1, 45, 0
1, 93120, Note_on_c, 1, 50, 40
1, 93360, Note_off_c, 1, 50, 0
1, 93480, Note_on_c, 1, 45, 40
1, 93720, Note_off_c, 1, 45, 0
1, 93840, Note_on_c, 1, 38, 40
1, 93960, Note_off_c, 1, 38, 0
1, 94080, Note_on_c, 1, 45, 40
1, 94200, Note_off_c, 1, 45, 0
1, 94320, Note_on_c, 1, 40, 40
1, 94440, Note_off_c, 1, 40, 0
1, 94560, Note_on_c, 1, 39, 40
1, 94680, Note_off_c, 1, 39, 0
1, 94800, Note_on_c, 1, 37, 40
1, 94920, Note_off_c, 1, 37, 0
1, 95040, Note_on_c, 1, 36, 40
1, 95160, Note_off_c, 1, 36, 0
1, 95280, Note_on_c, 1, 35, 40
1, 95400, Note_off_c, 1, 35, 0
1, 95520, Note_on_c, 1, 35, 40
1, 95640, Note_off_c, 1, 35, 0
1, 95760, Note_on_c, 1, 35, 40
1, 95880, Note_off_c, 1, 35, 0
1, 96000, Note_on_c, 1, 35, 40
1, 96120, Note_off_c, 1, 35, 0
1, 96240, Note_on_c, 1, 40, 40
1, 96360, Note_off_c, 1, 40, 0
1, 96480, Note_on_c, 1, 39, 40
1, 96600, Note_off_c, 1, 39, 0
1, 96720, Note_on_c, 1, 37, 40
1, 96840, Note_off_c, 1, 37, 0
1, 96960, Note_on_c, 1, 36, 40
1, 97080, Note_off_c, 1, 36, 0
1, 97200, Note_on_c, 1, 35, 40
1, 97320, Note_off_c, 1, 35, 0
1, 97440, Note_on_c, 1, 35, 40
1, 97560, Note_off_c, 1, 35, 0
1, 97680, Note_on_c, 1, 35, 40
1, 97800, Note_off_c, 1, 35, 0
1, 97920, Note_on_c, 1, 35, 40
1, 98040, Note_off_c, 1, 35, 0
1, 98160, Note_on_c, 1, 35, 40
1, 98280, Note_off_c, 1, 35, 0
1, 98400, Note_on_c, 1, 35, 40
1, 98520, Note_off_c, 1, 35, 0
1, 98640, Note_on_c, 1, 35, 40
1, 98760, Note_off_c, 1, 35, 0
1, 98880, Note_on_c, 1, 35, 40
1, 99000, Note_off_c, 1, 35, 0
1, 99120, Note_on_c, 1, 40, 40
1, 99240, Note_off_c, 1, 40, 0
1, 99360, Note_on_c, 1, 39, 40
1, 99480, Note_off_c, 1, 39, 0
1, 99600, Note_on_c, 1, 37, 40
1, 99720, Note_off_c, 1, 37, 0
1, 99840, Note_on_c, 1, 35, 40
1, 99960, Note_off_c, 1, 35, 0
1, 100080, Note_on_c, 1, 40, 40
1, 100200, Note_off_c, 1, 40, 0
1, 100320, Note_on_c, 1, 39, 40
1, 100440, Note_off_c, 1, 39, 0
1, 100560, Note_on_c, 1, 37, 40
1, 100680, Note_off_c, 1, 37, 0
1, 100800, Note_on_c, 1, 35, 40
1, 100920, Note_off_c, 1, 35, 0
1, 101040, Note_on_c, 1, 40, 40
1, 101160, Note_off_c, 1, 40, 0
1, 101280, Note_on_c, 1, 39, 40
1, 101400, Note_off_c, 1, 39, 0
1, 101520, Note_on_c, 1, 37, 40
1, 101640, Note_off_c, 1, 37, 0
1, 101760, Note_on_c, 1, 35, 40
1, 101880, Note_off_c, 1, 35, 0
1, 102000, Note_on_c, 1, 38, 40
1, 102120, Note_off_c, 1, 38, 0
1, 102240, Note_on_c, 1, 38, 40
1, 102360, Note_off_c, 1, 38, 0
1, 102480, Note_on_c, 1, 45, 40
1, 102600, Note_off_c, 1, 45, 0
1, 102720, Note_on_c, 1, 45, 40
1, 102840, Note_off_c, 1, 45, 0
1, 102960, Note_on_c, 1, 45, 40
1, 103080, Note_off_c, 1, 45, 0
1, 103200, Note_on_c, 1, 45, 40
1, 103320, Note_off_c, 1, 45, 0
1, 103440, Note_on_c, 1, 45, 40
1, 103560, Note_off_c, 1, 45, 0
1, 103680, Note_on_c, 1, 45, 40
1, 103800, Note_off_c, 1, 45, 0
1, 103920, Note_on_c, 1, 40, 40
1, 104040, Note_off_c, 1, 40, 0
1, 104160, Note_on_c, 1, 39, 40
1, 104280, Note_off_c, 1, 39, 0
1, 104400, Note_on_c, 1, 37, 40
1, 104520, Note_off_c, 1, 37, 0
1, 104640, Note_on_c, 1, 36, 40
1, 104760, Note_off_c, 1, 36, 0
1, 104880, Note_on_c, 1, 35, 40
1, 105000, Note_off_c, 1, 35, 0
1, 105120, Note_on_c, 1, 35, 40
1, 105240, Note_off_c, 1, 35, 0
1, 105360, Note_on_c, 1, 39, 40
1, 105480, Note_off_c, 1, 39, 0
1, 105600, Note_on_c, 1, 42, 40
1, 105720, Note_off_c, 1, 42, 0
1, 105840, Note_on_c, 1, 40, 40
1, 105960, Note_off_c, 1, 40, 0
1, 106080, Note_on_c, 1, 39, 40
1, 106200, Note_off_c, 1, 39, 0
1, 106320, Note_on_c, 1, 37, 40
1, 106440, Note_off_c, 1, 37, 0
1, 106560, Note_on_c, 1, 36, 40
1, 106680, Note_off_c, 1, 36, 0
1, 106800, Note_on_c, 1, 35, 40
1, 106920, Note_off_c, 1, 35, 0
1, 107040, Note_on_c, 1, 35, 40
1, 107160, Note_off_c, 1, 35, 0
1, 107280, Note_on_c, 1, 35, 40
1, 107400, Note_off_c, 1, 35, 0
1, 107520, Note_on_c, 1, 35, 40
1, 107640, Note_off_c, 1, 35, 0
1, 107760, Note_on_c, 1, 36, 40
1, 108000, Note_off_c, 1, 36, 0
1, 108000, Note_on_c, 1, 36, 40
1, 108240, Note_off_c, 1, 36, 0
1, 108240, Note_on_c, 1, 40, 40
1, 108480, Note_off_c, 1, 40, 0
1, 108480, Note_on_c, 1, 43, 40
1, 108720, Note_off_c, 1, 43, 0
1, 108720, Note_on_c, 1, 48, 40
1, 108960, Note_off_c, 1, 48, 0
1, 108960, Note_on_c, 1, 48, 40
1, 109200, Note_off_c, 1, 48, 0
1, 109200, Note_on_c, 1, 43, 40
1, 109440, Note_off_c, 1, 43, 0
1, 109440, Note_on_c, 1, 40, 40
1, 109680, Note_off_c, 1, 40, 0
1, 109680, Note_on_c, 1, 43, 40
1, 109920, Note_off_c, 1, 43, 0
1, 109920, Note_on_c, 1, 43, 40
1, 110160, Note_off_c, 1, 43, 0
1, 110160, Note_on_c, 1, 40, 40
1, 110400, Note_off_c, 1, 40, 0
1, 110400, Note_on_c, 1, 38, 40
1, 110640, Note_off_c, 1, 38, 0
1, 110640, Note_on_c, 1, 43, 40
1, 110880, Note_off_c, 1, 43, 0
1, 110880, Note_on_c, 1, 43, 40
1, 111120, Note_off_c, 1, 43, 0
1, 111120, Note_on_c, 1, 40, 40
1, 111360, Note_off_c, 1, 40, 0
1, 111360, Note_on_c, 1, 38, 40
1, 111600, Note_off_c, 1, 38, 0
1, 111600, Note_on_c, 1, 38, 40
1, 111840, Note_off_c, 1, 38, 0
1, 111840, Note_on_c, 1, 38, 40
1, 112080, Note_off_c, 1, 38, 0
1, 112080, Note_on_c, 1, 42, 40
1, 112320, Note_off_c, 1, 42, 0
1, 112320, Note_on_c, 1, 45, 40
1, 112560, Note_off_c, 1, 45, 0
1, 112560, Note_on_c, 1, 50, 40
1, 112800, Note_off_c, 1, 50, 0
1, 112800, Note_on_c, 1, 50, 40
1, 113040, Note_off_c, 1, 50, 0
1, 113040, Note_on_c, 1, 45, 40
1, 113280, Note_off_c, 1, 45, 0
1, 113280, Note_on_c, 1, 42, 40
1, 113520, Note_off_c, 1, 42, 0
1, 113520, Note_on_c, 1, 45, 40
1, 113760, Note_off_c, 1, 45, 0
1, 113760, Note_on_c, 1, 45, 40
1, 114000, Note_off_c, 1, 45, 0
1, 114000, Note_on_c, 1, 42, 40
1, 114240, Note_off_c, 1, 42, 0
1, 114240, Note_on_c, 1, 40, 40
1, 114480, Note_off_c, 1, 40, 0
1, 114480, Note_on_c, 1, 45, 40
1, 114720, Note_off_c, 1, 45, 0
1, 114720, Note_on_c, 1, 45, 40
1, 114960, Note_off_c, 1, 45, 0
1, 114960, Note_on_c, 1, 42, 40
1, 115200, Note_off_c, 1, 42, 0
1, 115200, Note_on_c, 1, 40, 40
1, 115440, Note_off_c, 1, 40, 0
1, 115440, Note_on_c, 1, 40, 40
1, 115680, Note_off_c, 1, 40, 0
1, 115680, Note_on_c, 1, 40, 40
1, 115920, Note_off_c, 1, 40, 0
1, 115920, Note_on_c, 1, 40, 40
1, 116160, Note_off_c, 1, 40, 0
1, 116160, Note_on_c, 1, 40, 40
1, 116400, Note_off_c, 1, 40, 0
1, 116400, Note_on_c, 1, 40, 40
1, 116640, Note_off_c, 1, 40, 0
1, 116640, Note_on_c, 1, 40, 40
1, 116880, Note_off_c, 1, 40, 0
1, 116880, Note_on_c, 1, 38, 40
1, 117120, Note_off_c, 1, 38, 0
1, 117120, Note_on_c, 1, 38, 40
1, 117360, Note_off_c, 1, 38, 0
1, 117360, Note_on_c, 1, 36, 40
1, 117600, Note_off_c, 1, 36, 0
1, 117600, Note_on_c, 1, 36, 40
1, 117840, Note_off_c, 1, 36, 0
1, 117840, Note_on_c, 1, 40, 40
1, 118080, Note_off_c, 1, 40, 0
1, 118080, Note_on_c, 1, 43, 40
1, 118320, Note_off_c, 1, 43, 0
1, 118320, Note_on_c, 1, 48, 40
1, 118560, Note_off_c, 1, 48, 0
1, 118560, Note_on_c, 1, 48, 40
1, 118800, Note_off_c, 1, 48, 0
1, 118800, Note_on_c, 1, 48, 40
1, 119040, Note_off_c, 1, 48, 0
1, 119040, Note_on_c, 1, 48, 40
1, 119280, Note_off_c, 1, 48, 0
1, 119280, Note_on_c, 1, 43, 40
1, 119520, Note_off_c, 1, 43, 0
1, 119520, Note_on_c, 1, 43, 40
1, 119760, Note_off_c, 1, 43, 0
1, 119760, Note_on_c, 1, 43, 40
1, 120000, Note_off_c, 1, 43, 0
1, 120000, Note_on_c, 1, 40, 40
1, 120240, Note_off_c, 1, 40, 0
1, 120240, Note_on_c, 1, 38, 40
1, 120480, Note_off_c, 1, 38, 0
1, 120480, Note_on_c, 1, 38, 40
1, 120720, Note_off_c, 1, 38, 0
1, 120720, Note_on_c, 1, 38, 40
1, 120960, Note_off_c, 1, 38, 0
1, 120960, Note_on_c, 1, 40, 40
1, 121200, Note_off_c, 1, 40, 0
1, 121200, Note_on_c, 1, 38, 40
1, 121920, Note_off_c, 1, 38, 0
1, 121920, Note_on_c, 1, 42, 40
1, 122040, Note_off_c, 1, 42, 0
1, 122040, Note_on_c, 1, 45, 40
1, 122160, Note_off_c, 1, 45, 0
1, 122160, Note_on_c, 1, 50, 40
1, 122640, Note_off_c, 1, 50, 0
1, 122640, Note_on_c, 1, 50, 40
1, 122880, Note_off_c, 1, 50, 0
1, 122880, Note_on_c, 1, 45, 40
1, 123120, Note_off_c, 1, 45, 0
1, 123120, Note_on_c, 1, 45, 40
1, 123360, Note_off_c, 1, 45, 0
1, 123360, Note_on_c, 1, 45, 40
1, 123600, Note_off_c, 1, 45, 0
1, 123600, Note_on_c, 1, 42, 40
1, 123840, Note_off_c, 1, 42, 0
1, 123840, Note_on_c, 1, 40, 40
1, 124080, Note_off_c, 1, 40, 0
1, 124080, Note_on_c, 1, 45, 40
1, 124320, Note_off_c, 1, 45, 0
1, 124320, Note_on_c, 1, 45, 40
1, 124560, Note_off_c, 1, 45, 0
1, 124560, Note_on_c, 1, 42, 40
1, 124800, Note_off_c, 1, 42, 0
1, 124800, Note_on_c, 1, 40, 40
1, 125040, Note_off_c, 1, 40, 0
1, 125040, Note_on_c, 1, 40, 40
1, 125760, Note_off_c, 1, 40, 0
1, 125760, Note_on_c, 1, 38, 40
1, 126000, Note_off_c, 1, 38, 0
1, 126000, Note_on_c, 1, 36, 40
1, 126720, Note_off_c, 1, 36, 0
1, 126720, Note_on_c, 1, 38, 40
1, 126960, Note_off_c, 1, 38, 0
1, 126960, Note_on_c, 1, 43, 40
1, 127200, Note_off_c, 1, 43, 0
1, 127200, Note_on_c, 1, 43, 40
1, 127440, Note_off_c, 1, 43, 0
1, 127440, Note_on_c, 1, 43, 40
1, 127680, Note_off_c, 1, 43, 0
1, 127680, Note_on_c, 1, 43, 40
1, 127920, Note_off_c, 1, 43, 0
1, 127920, Note_on_c, 1, 42, 40
1, 128160, Note_off_c, 1, 42, 0
1, 128160, Note_on_c, 1, 42, 40
1, 128400, Note_off_c, 1, 42, 0
1, 128400, Note_on_c, 1, 42, 40
1, 128640, Note_off_c, 1, 42, 0
1, 128640, Note_on_c, 1, 42, 40
1, 128880, Note_off_c, 1, 42, 0
1, 128880, Note_on_c, 1, 40, 40
1, 129120, Note_off_c, 1, 40, 0
1, 129120, Note_on_c, 1, 40, 40
1, 129360, Note_off_c, 1, 40, 0
1, 129360, Note_on_c, 1, 40, 40
1, 129600, Note_off_c, 1, 40, 0
1, 129600, Note_on_c, 1, 40, 40
1, 129840, Note_off_c, 1, 40, 0
1, 129840, Note_on_c, 1, 38, 40
1, 130080, Note_off_c, 1, 38, 0
1, 130080, Note_on_c, 1, 38, 40
1, 130320, Note_off_c, 1, 38, 0
1, 130320, Note_on_c, 1, 38, 40
1, 130560, Note_off_c, 1, 38, 0
1, 130560, Note_on_c, 1, 38, 40
1, 130800, Note_off_c, 1, 38, 0
1, 130800, Note_on_c, 1, 36, 40
1, 131280, Note_off_c, 1, 36, 0
1, 131280, Note_on_c, 1, 36, 40
1, 131760, Note_off_c, 1, 36, 0
1, 131760, Note_on_c, 1, 35, 40
1, 132240, Note_off_c, 1, 35, 0
1, 132240, Note_on_c, 1, 35, 40
1, 132720, Note_off_c, 1, 35, 0
1, 132720, Note_on_c, 1, 33, 40
1, 133440, Note_off_c, 1, 33, 0
1, 133440, Note_on_c, 1, 33, 40
1, 133920, Note_off_c, 1, 33, 0
1, 133920, Note_on_c, 1, 28, 40
1, 134400, Note_off_c, 1, 28, 0
1, 134400, Note_on_c, 1, 30, 40
1, 134640, Note_off_c, 1, 30, 0
1, 134640, Note_on_c, 1, 31, 40
1, 135120, Note_off_c, 1, 31, 0
1, 135120, Note_on_c, 1, 31, 40
1, 135600, Note_off_c, 1, 31, 0
1, 135600, Note_on_c, 1, 30, 40
1, 136080, Note_off_c, 1, 30, 0
1, 136080, Note_on_c, 1, 30, 40
1, 136560, Note_off_c, 1, 30, 0
1, 136560, Note_on_c, 1, 28, 40
1, 136800, Note_off_c, 1, 28, 0
1, 136800, Note_on_c, 1, 28, 40
1, 137040, Note_off_c, 1, 28, 0
1, 137040, Note_on_c, 1, 28, 40
1, 137520, Note_off_c, 1, 28, 0
1, 137520, Note_on_c, 1, 38, 40
1, 137760, Note_off_c, 1, 38, 0
1, 137760, Note_on_c, 1, 38, 40
1, 138000, Note_off_c, 1, 38, 0
1, 138000, Note_on_c, 1, 38, 40
1, 138240, Note_off_c, 1, 38, 0
1, 138240, Note_on_c, 1, 38, 40
1, 138480, Note_off_c, 1, 38, 0
1, 138480, Note_on_c, 1, 36, 40
1, 138960, Note_off_c, 1, 36, 0
1, 138960, Note_on_c, 1, 36, 40
1, 139200, Note_off_c, 1, 36, 0
1, 139200, Note_on_c, 1, 28, 40
1, 139440, Note_off_c, 1, 28, 0
1, 139440, Note_on_c, 1, 29, 40
1, 139920, Note_off_c, 1, 29, 0
1, 139920, Note_on_c, 1, 29, 40
1, 140160, Note_off_c, 1, 29, 0
1, 140160, Note_on_c, 1, 29, 40
1, 140400, Note_off_c, 1, 29, 0
1, 140400, Note_on_c, 1, 28, 40
1, 140880, Note_off_c, 1, 28, 0
1, 140880, Note_on_c, 1, 28, 40
1, 141360, Note_off_c, 1, 28, 0
1, 141360, Note_on_c, 1, 38, 40
1, 141840, Note_off_c, 1, 38, 0
1, 141840, Note_on_c, 1, 38, 40
1, 142320, Note_off_c, 1, 38, 0
1, 142320, Note_on_c, 1, 36, 40
1, 142560, Note_off_c, 1, 36, 0
1, 142560, Note_on_c, 1, 36, 40
1, 142800, Note_off_c, 1, 36, 0
1, 142800, Note_on_c, 1, 36, 40
1, 143040, Note_off_c, 1, 36, 0
1, 143040, Note_on_c, 1, 36, 40
1, 143280, Note_off_c, 1, 36, 0
1, 143280, Note_on_c, 1, 36, 40
1, 143520, Note_off_c, 1, 36, 0
1, 143520, Note_on_c, 1, 36, 40
1, 143760, Note_off_c, 1, 36, 0
1, 143760, Note_on_c, 1, 36, 40
1, 144000, Note_off_c, 1, 36, 0
1, 144000, Note_on_c, 1, 36, 40
1, 144240, Note_off_c, 1, 36, 0
1, 144240, Note_on_c, 1, 36, 40
1, 144480, Note_off_c, 1, 36, 0
1, 144480, Note_on_c, 1, 36, 40
1, 144720, Note_off_c, 1, 36, 0
1, 144720, Note_on_c, 1, 36, 40
1, 144960, Note_off_c, 1, 36, 0
1, 144960, Note_on_c, 1, 36, 40
1, 145200, Note_off_c, 1, 36, 0
1, 145200, Note_on_c, 1, 30, 40
1, 145440, Note_off_c, 1, 30, 0
1, 145440, Note_on_c, 1, 30, 40
1, 145680, Note_off_c, 1, 30, 0
1, 145680, Note_on_c, 1, 30, 40
1, 145920, Note_off_c, 1, 30, 0
1, 145920, Note_on_c, 1, 30, 40
1, 146160, Note_off_c, 1, 30, 0
1, 146160, Note_on_c, 1, 31, 40
1, 146400, Note_off_c, 1, 31, 0
1, 146400, Note_on_c, 1, 31, 40
1, 146640, Note_off_c, 1, 31, 0
1, 146640, Note_on_c, 1, 31, 40
1, 146880, Note_off_c, 1, 31, 0
1, 146880, Note_on_c, 1, 31, 40
1, 147120, Note_off_c, 1, 31, 0
1, 147120, Note_on_c, 1, 33, 40
1, 147360, Note_off_c, 1, 33, 0
1, 147360, Note_on_c, 1, 33, 40
1, 147600, Note_off_c, 1, 33, 0
1, 147600, Note_on_c, 1, 33, 40
1, 147840, Note_off_c, 1, 33, 0
1, 147840, Note_on_c, 1, 33, 40
1, 148080, Note_off_c, 1, 33, 0
1, 148080, Note_on_c, 1, 35, 40
1, 148320, Note_off_c, 1, 35, 0
1, 148320, Note_on_c, 1, 35, 40
1, 148560, Note_off_c, 1, 35, 0
1, 148560, Note_on_c, 1, 35, 40
1, 148800, Note_off_c, 1, 35, 0
1, 148800, Note_on_c, 1, 35, 40
1, 149040, Note_off_c, 1, 35, 0
1, 149040, Note_on_c, 1, 36, 40
1, 149280, Note_off_c, 1, 36, 0
1, 149280, Note_on_c, 1, 36, 40
1, 149520, Note_off_c, 1, 36, 0
1, 149520, Note_on_c, 1, 36, 40
1, 149760, Note_off_c, 1, 36, 0
1, 149760, Note_on_c, 1, 36, 40
1, 150000, Note_off_c, 1, 36, 0
1, 150000, Note_on_c, 1, 38, 40
1, 150240, Note_off_c, 1, 38, 0
1, 150240, Note_on_c, 1, 38, 40
1, 150480, Note_off_c, 1, 38, 0
1, 150480, Note_on_c, 1, 38, 40
1, 150720, Note_off_c, 1, 38, 0
1, 150720, Note_on_c, 1, 38, 40
1, 150960, Note_off_c, 1, 38, 0
1, 150960, Note_on_c, 1, 40, 40
1, 151200, Note_off_c, 1, 40, 0
1, 151200, Note_on_c, 1, 40, 40
1, 151440, Note_off_c, 1, 40, 0
1, 151440, Note_on_c, 1, 40, 40
1, 151680, Note_off_c, 1, 40, 0
1, 151680, Note_on_c, 1, 40, 40
1, 151920, Note_off_c, 1, 40, 0
1, 151920, Note_on_c, 1, 40, 40
1, 152160, Note_off_c, 1, 40, 0
1, 152160, Note_on_c, 1, 40, 40
1, 152400, Note_off_c, 1, 40, 0
1, 152400, Note_on_c, 1, 40, 40
1, 152640, Note_off_c, 1, 40, 0
1, 152640, Note_on_c, 1, 40, 40
1, 152880, Note_off_c, 1, 40, 0
1, 152880, Note_on_c, 1, 28, 40
1, 153120, Note_off_c, 1, 28, 0
1, 153120, Note_on_c, 1, 28, 40
1, 153360, Note_off_c, 1, 28, 0
1, 153360, Note_on_c, 1, 28, 40
1, 153600, Note_off_c, 1, 28, 0
1, 153600, Note_on_c, 1, 28, 40
1, 153840, Note_off_c, 1, 28, 0
1, 153840, Note_on_c, 1, 28, 40
1, 154080, Note_off_c, 1, 28, 0
1, 154080, Note_on_c, 1, 28, 40
1, 154320, Note_off_c, 1, 28, 0
1, 154320, Note_on_c, 1, 28, 40
1, 154560, Note_off_c, 1, 28, 0
1, 154560, Note_on_c, 1, 28, 40
1, 154800, Note_off_c, 1, 28, 0
1, 154800, Note_on_c, 1, 28, 40
1, 155040, Note_off_c, 1, 28, 0
1, 155040, Note_on_c, 1, 28, 40
1, 155280, Note_off_c, 1, 28, 0
1, 155280, Note_on_c, 1, 28, 40
1, 155520, Note_off_c, 1, 28, 0
1, 155520, Note_on_c, 1, 28, 40
1, 155760, Note_off_c, 1, 28, 0
1, 155760, Note_on_c, 1, 28, 40
1, 156000, Note_off_c, 1, 28, 0
1, 156000, Note_on_c, 1, 28, 40
1, 156240, Note_off_c, 1, 28, 0
1, 156240, Note_on_c, 1, 28, 40
1, 156480, Note_off_c, 1, 28, 0
1, 156480, Note_on_c, 1, 28, 40
1, 156720, Note_off_c, 1, 28, 0
1, 156720, Note_on_c, 1, 28, 40
1, 156960, Note_off_c, 1, 28, 0
1, 156960, Note_on_c, 1, 28, 40
1, 157200, Note_off_c, 1, 28, 0
1, 157200, Note_on_c, 1, 28, 40
1, 157440, Note_off_c, 1, 28, 0
1, 157440, Note_on_c, 1, 28, 40
1, 157680, Note_off_c, 1, 28, 0
1, 157680, Note_on_c, 1, 28, 40
1, 157920, Note_off_c, 1, 28, 0
1, 157920, Note_on_c, 1, 28, 40
1, 158160, Note_off_c, 1, 28, 0
1, 158160, Note_on_c, 1, 28, 40
1, 158400, Note_off_c, 1, 28, 0
1, 158400, Note_on_c, 1, 28, 40
1, 158640, Note_off_c, 1, 28, 0
1, 158640, Note_on_c, 1, 28, 40
1, 158880, Note_off_c, 1, 28, 0
1, 158880, Note_on_c, 1, 28, 40
1, 159120, Note_off_c, 1, 28, 0
1, 159120, Note_on_c, 1, 28, 40
1, 159360, Note_off_c, 1, 28, 0
1, 159360, Note_on_c, 1, 28, 40
1, 159600, Note_off_c, 1, 28, 0
1, 159600, Note_on_c, 1, 28, 40
1, 159840, Note_off_c, 1, 28, 0
1, 159840, Note_on_c, 1, 28, 40
1, 160080, Note_off_c, 1, 28, 0
1, 160080, Note_on_c, 1, 28, 40
1, 160320, Note_off_c, 1, 28, 0
1, 160320, Note_on_c, 1, 28, 40
1, 160560, Note_off_c, 1, 28, 0
1, 160560, Note_on_c, 1, 28, 40
1, 160800, Note_off_c, 1, 28, 0
1, 160800, Note_on_c, 1, 28, 40
1, 161040, Note_off_c, 1, 28, 0
1, 161040, Note_on_c, 1, 28, 40
1, 161280, Note_off_c, 1, 28, 0
1, 161280, Note_on_c, 1, 28, 40
1, 161520, Note_off_c, 1, 28, 0
1, 161520, Note_on_c, 1, 28, 40
1, 161760, Note_off_c, 1, 28, 0
1, 161760, Note_on_c, 1, 28, 40
1, 162000, Note_off_c, 1, 28, 0
1, 162000, Note_on_c, 1, 28, 40
1, 162240, Note_off_c, 1, 28, 0
1, 162240, Note_on_c, 1, 28, 40
1, 162480, Note_off_c, 1, 28, 0
1, 162480, Note_on_c, 1, 28, 40
1, 162720, Note_off_c, 1, 28, 0
1, 162720, Note_on_c, 1, 28, 40
1, 162960, Note_off_c, 1, 28, 0
1, 162960, Note_on_c, 1, 28, 40
1, 163200, Note_off_c, 1, 28, 0
1, 163200, Note_on_c, 1, 28, 40
1, 163440, Note_off_c, 1, 28, 0
1, 163440, Note_on_c, 1, 28, 40
1, 163680, Note_off_c, 1, 28, 0
1, 163680, Note_on_c, 1, 28, 40
1, 163920, Note_off_c, 1, 28, 0
1, 163920, Note_on_c, 1, 28, 40
1, 164160, Note_off_c, 1, 28, 0
1, 164160, Note_on_c, 1, 28, 40
1, 164400, Note_off_c, 1, 28, 0
1, 164400, Note_on_c, 1, 28, 40
1, 164640, Note_off_c, 1, 28, 0
1, 164640, Note_on_c, 1, 28, 40
1, 164880, Note_off_c, 1, 28, 0
1, 164880, Note_on_c, 1, 28, 40
1, 165120, Note_off_c, 1, 28, 0
1, 165120, Note_on_c, 1, 28, 40
1, 165360, Note_off_c, 1, 28, 0
1, 165360, Note_on_c, 1, 28, 40
1, 165600, Note_off_c, 1, 28, 0
1, 165600, Note_on_c, 1, 28, 40
1, 165840, Note_off_c, 1, 28, 0
1, 165840, Note_on_c, 1, 28, 40
1, 166080, Note_off_c, 1, 28, 0
1, 166080, Note_on_c, 1, 28, 40
1, 166320, Note_off_c, 1, 28, 0
1, 166320, Note_on_c, 1, 28, 40
1, 166560, Note_off_c, 1, 28, 0
1, 166560, Note_on_c, 1, 28, 40
1, 166800, Note_off_c, 1, 28, 0
1, 166800, Note_on_c, 1, 28, 40
1, 167040, Note_off_c, 1, 28, 0
1, 167040, Note_on_c, 1, 28, 40
1, 167280, Note_off_c, 1, 28, 0
1, 184560, Note_on_c, 1, 40, 40
1, 186000, Note_off_c, 1, 40, 0
1, 186480, Note_on_c, 1, 33, 40
1, 186960, Note_off_c, 1, 33, 0
1, 186960, Note_on_c, 1, 33, 40
1, 187440, Note_off_c, 1, 33, 0
1, 187440, Note_on_c, 1, 38, 40
1, 187920, Note_off_c, 1, 38, 0
1, 187920, Note_on_c, 1, 38, 40
1, 188400, Note_off_c, 1, 38, 0
1, 188400, Note_on_c, 1, 33, 40
1, 188880, Note_off_c, 1, 33, 0
1, 188880, Note_on_c, 1, 33, 40
1, 189360, Note_off_c, 1, 33, 0
1, 189360, Note_on_c, 1, 33, 40
1, 189840, Note_off_c, 1, 33, 0
1, 189840, Note_on_c, 1, 33, 40
1, 190320, Note_off_c, 1, 33, 0
1, 190320, Note_on_c, 1, 31, 40
1, 190800, Note_off_c, 1, 31, 0
1, 190800, Note_on_c, 1, 31, 40
1, 191280, Note_off_c, 1, 31, 0
1, 191280, Note_on_c, 1, 31, 40
1, 191520, Note_off_c, 1, 31, 0
1, 191520, Note_on_c, 1, 31, 40
1, 191760, Note_off_c, 1, 31, 0
1, 191760, Note_on_c, 1, 31, 40
1, 192240, Note_off_c, 1, 31, 0
1, 192240, Note_on_c, 1, 33, 40
1, 192720, Note_off_c, 1, 33, 0
1, 192720, Note_on_c, 1, 33, 40
1, 193200, Note_off_c, 1, 33, 0
1, 193200, Note_on_c, 1, 33, 40
1, 193680, Note_off_c, 1, 33, 0
1, 193680, Note_on_c, 1, 33, 40
1, 194160, Note_off_c, 1, 33, 0
1, 194160, Note_on_c, 1, 33, 40
1, 194640, Note_off_c, 1, 33, 0
1, 194640, Note_on_c, 1, 33, 40
1, 195120, Note_off_c, 1, 33, 0
1, 195120, Note_on_c, 1, 38, 40
1, 195600, Note_off_c, 1, 38, 0
1, 195600, Note_on_c, 1, 38, 40
1, 196080, Note_off_c, 1, 38, 0
1, 196080, Note_on_c, 1, 33, 40
1, 196560, Note_off_c, 1, 33, 0
1, 196560, Note_on_c, 1, 33, 40
1, 197040, Note_off_c, 1, 33, 0
1, 197040, Note_on_c, 1, 33, 40
1, 197520, Note_off_c, 1, 33, 0
1, 197520, Note_on_c, 1, 33, 40
1, 198000, Note_off_c, 1, 33, 0
1, 198000, Note_on_c, 1, 31, 40
1, 198480, Note_off_c, 1, 31, 0
1, 198480, Note_on_c, 1, 31, 40
1, 198960, Note_off_c, 1, 31, 0
1, 198960, Note_on_c, 1, 31, 40
1, 199200, Note_off_c, 1, 31, 0
1, 199200, Note_on_c, 1, 31, 40
1, 199440, Note_off_c, 1, 31, 0
1, 199440, Note_on_c, 1, 31, 40
1, 199920, Note_off_c, 1, 31, 0
1, 199920, Note_on_c, 1, 33, 40
1, 200400, Note_off_c, 1, 33, 0
1, 200400, Note_on_c, 1, 33, 40
1, 200880, Note_off_c, 1, 33, 0
1, 200880, Note_on_c, 1, 33, 40
1, 201360, Note_off_c, 1, 33, 0
1, 201360, Note_on_c, 1, 33, 40
1, 201840, Note_off_c, 1, 33, 0
1, 201840, Note_on_c, 1, 38, 40
1, 202320, Note_off_c, 1, 38, 0
1, 202320, Note_on_c, 1, 38, 40
1, 202800, Note_off_c, 1, 38, 0
1, 202800, Note_on_c, 1, 38, 40
1, 203040, Note_off_c, 1, 38, 0
1, 203280, Note_on_c, 1, 38, 40
1, 203520, Note_off_c, 1, 38, 0
1, 203520, Note_on_c, 1, 38, 40
1, 203760, Note_off_c, 1, 38, 0
1, 203760, Note_on_c, 1, 40, 40
1, 204240, Note_off_c, 1, 40, 0
1, 204240, Note_on_c, 1, 40, 40
1, 204720, Note_off_c, 1, 40, 0
1, 204720, Note_on_c, 1, 40, 40
1, 205200, Note_off_c, 1, 40, 0
1, 205200, Note_on_c, 1, 40, 40
1, 205680, Note_off_c, 1, 40, 0
1, 205680, Note_on_c, 1, 33, 40
1, 206160, Note_off_c, 1, 33, 0
1, 206160, Note_on_c, 1, 33, 40
1, 206640, Note_off_c, 1, 33, 0
1, 206640, Note_on_c, 1, 38, 40
1, 207120, Note_off_c, 1, 38, 0
1, 207120, Note_on_c, 1, 38, 40
1, 207600, Note_off_c, 1, 38, 0
1, 207600, Note_on_c, 1, 33, 40
1, 208080, Note_off_c, 1, 33, 0
1, 208080, Note_on_c, 1, 40, 40
1, 208320, Note_off_c, 1, 40, 0
1, 208320, Note_on_c, 1, 40, 40
1, 208560, Note_off_c, 1, 40, 0
1, 208560, Note_on_c, 1, 40, 40
1, 208800, Note_off_c, 1, 40, 0
1, 208800, Note_on_c, 1, 40, 40
1, 209040, Note_off_c, 1, 40, 0
1, 209040, Note_on_c, 1, 40, 40
1, 209280, Note_off_c, 1, 40, 0
1, 209280, Note_on_c, 1, 40, 40
1, 209520, Note_off_c, 1, 40, 0
1, 209520, Note_on_c, 1, 33, 40
1, 210000, Note_off_c, 1, 33, 0
1, 210000, Note_on_c, 1, 33, 40
1, 210480, Note_off_c, 1, 33, 0
1, 210480, Note_on_c, 1, 38, 40
1, 210960, Note_off_c, 1, 38, 0
1, 210960, Note_on_c, 1, 38, 40
1, 211440, Note_off_c, 1, 38, 0
1, 211440, Note_on_c, 1, 33, 40
1, 211920, Note_off_c, 1, 33, 0
1, 211920, Note_on_c, 1, 33, 40
1, 212400, Note_off_c, 1, 33, 0
1, 212400, Note_on_c, 1, 33, 40
1, 212880, Note_off_c, 1, 33, 0
1, 212880, Note_on_c, 1, 33, 40
1, 213360, Note_off_c, 1, 33, 0
1, 213360, Note_on_c, 1, 31, 40
1, 213840, Note_off_c, 1, 31, 0
1, 213840, Note_on_c, 1, 31, 40
1, 214320, Note_off_c, 1, 31, 0
1, 214320, Note_on_c, 1, 31, 40
1, 214560, Note_off_c, 1, 31, 0
1, 214560, Note_on_c, 1, 31, 40
1, 214800, Note_off_c, 1, 31, 0
1, 214800, Note_on_c, 1, 31, 40
1, 215280, Note_off_c, 1, 31, 0
1, 215280, Note_on_c, 1, 33, 40
1, 215760, Note_off_c, 1, 33, 0
1, 215760, Note_on_c, 1, 33, 40
1, 216240, Note_off_c, 1, 33, 0
1, 216240, Note_on_c, 1, 33, 40
1, 216720, Note_off_c, 1, 33, 0
1, 216720, Note_on_c, 1, 33, 40
1, 217200, Note_off_c, 1, 33, 0
1, 217200, Note_on_c, 1, 33, 40
1, 217680, Note_off_c, 1, 33, 0
1, 217680, Note_on_c, 1, 33, 40
1, 218160, Note_off_c, 1, 33, 0
1, 218160, Note_on_c, 1, 38, 40
1, 218640, Note_off_c, 1, 38, 0
1, 218640, Note_on_c, 1, 38, 40
1, 219120, Note_off_c, 1, 38, 0
1, 219120, Note_on_c, 1, 33, 40
1, 219600, Note_off_c, 1, 33, 0
1, 219600, Note_on_c, 1, 33, 40
1, 220080, Note_off_c, 1, 33, 0
1, 220080, Note_on_c, 1, 33, 40
1, 220560, Note_off_c, 1, 33, 0
1, 220560, Note_on_c, 1, 33, 40
1, 221040, Note_off_c, 1, 33, 0
1, 221040, Note_on_c, 1, 31, 40
1, 221520, Note_off_c, 1, 31, 0
1, 221520, Note_on_c, 1, 31, 40
1, 222000, Note_off_c, 1, 31, 0
1, 222000, Note_on_c, 1, 31, 40
1, 222240, Note_off_c, 1, 31, 0
1, 222240, Note_on_c, 1, 31, 40
1, 222480, Note_off_c, 1, 31, 0
1, 222480, Note_on_c, 1, 31, 40
1, 222960, Note_off_c, 1, 31, 0
1, 222960, Note_on_c, 1, 33, 40
1, 223440, Note_off_c, 1, 33, 0
1, 223440, Note_on_c, 1, 33, 40
1, 223920, Note_off_c, 1, 33, 0
1, 223920, Note_on_c, 1, 33, 40
1, 224400, Note_off_c, 1, 33, 0
1, 224400, Note_on_c, 1, 33, 40
1, 224880, Note_off_c, 1, 33, 0
1, 224880, Note_on_c, 1, 38, 40
1, 225360, Note_off_c, 1, 38, 0
1, 225360, Note_on_c, 1, 38, 40
1, 225840, Note_off_c, 1, 38, 0
1, 225840, Note_on_c, 1, 38, 40
1, 226080, Note_off_c, 1, 38, 0
1, 226320, Note_on_c, 1, 38, 40
1, 226560, Note_off_c, 1, 38, 0
1, 226560, Note_on_c, 1, 38, 40
1, 226800, Note_off_c, 1, 38, 0
1, 226800, Note_on_c, 1, 40, 40
1, 227280, Note_off_c, 1, 40, 0
1, 227280, Note_on_c, 1, 40, 40
1, 227760, Note_off_c, 1, 40, 0
1, 227760, Note_on_c, 1, 40, 40
1, 228240, Note_off_c, 1, 40, 0
1, 228240, Note_on_c, 1, 40, 40
1, 228720, Note_off_c, 1, 40, 0
1, 228720, Note_on_c, 1, 33, 40
1, 229200, Note_off_c, 1, 33, 0
1, 229200, Note_on_c, 1, 33, 40
1, 229680, Note_off_c, 1, 33, 0
1, 229680, Note_on_c, 1, 38, 40
1, 230160, Note_off_c, 1, 38, 0
1, 230160, Note_on_c, 1, 38, 40
1, 230640, Note_off_c, 1, 38, 0
1, 230640, Note_on_c, 1, 33, 40
1, 231120, Note_off_c, 1, 33, 0
1, 231120, Note_on_c, 1, 33, 40
1, 231600, Note_off_c, 1, 33, 0
1, 231600, Note_on_c, 1, 33, 40
1, 232080, Note_off_c, 1, 33, 0
1, 232080, Note_on_c, 1, 33, 40
1, 232560, Note_off_c, 1, 33, 0
1, 232560, Note_on_c, 1, 37, 40
1, 233040, Note_off_c, 1, 37, 0
1, 233040, Note_on_c, 1, 37, 40
1, 233520, Note_off_c, 1, 37, 0
1, 233520, Note_on_c, 1, 37, 40
1, 234000, Note_off_c, 1, 37, 0
1, 234000, Note_on_c, 1, 37, 40
1, 234480, Note_off_c, 1, 37, 0
1, 234480, Note_on_c, 1, 30, 40
1, 234960, Note_off_c, 1, 30, 0
1, 234960, Note_on_c, 1, 30, 40
1, 235440, Note_off_c, 1, 30, 0
1, 235440, Note_on_c, 1, 30, 40
1, 235920, Note_off_c, 1, 30, 0
1, 235920, Note_on_c, 1, 30, 40
1, 236400, Note_off_c, 1, 30, 0
1, 236400, Note_on_c, 1, 37, 40
1, 236880, Note_off_c, 1, 37, 0
1, 236880, Note_on_c, 1, 37, 40
1, 237360, Note_off_c, 1, 37, 0
1, 237360, Note_on_c, 1, 37, 40
1, 237840, Note_off_c, 1, 37, 0
1, 237840, Note_on_c, 1, 37, 40
1, 238320, Note_off_c, 1, 37, 0
1, 238320, Note_on_c, 1, 37, 40
1, 238800, Note_off_c, 1, 37, 0
1, 238800, Note_on_c, 1, 37, 40
1, 239280, Note_off_c, 1, 37, 0
1, 239280, Note_on_c, 1, 37, 40
1, 239760, Note_off_c, 1, 37, 0
1, 239760, Note_on_c, 1, 37, 40
1, 240240, Note_off_c, 1, 37, 0
1, 240240, Note_on_c, 1, 33, 40
1, 240720, Note_off_c, 1, 33, 0
1, 240720, Note_on_c, 1, 33, 40
1, 241200, Note_off_c, 1, 33, 0
1, 241200, Note_on_c, 1, 33, 40
1, 241680, Note_off_c, 1, 33, 0
1, 241680, Note_on_c, 1, 33, 40
1, 242160, Note_off_c, 1, 33, 0
1, 242160, Note_on_c, 1, 30, 40
1, 242640, Note_off_c, 1, 30, 0
1, 242640, Note_on_c, 1, 30, 40
1, 243120, Note_off_c, 1, 30, 0
1, 243120, Note_on_c, 1, 30, 40
1, 243600, Note_off_c, 1, 30, 0
1, 243600, Note_on_c, 1, 30, 40
1, 244080, Note_off_c, 1, 30, 0
1, 244080, Note_on_c, 1, 38, 40
1, 244560, Note_off_c, 1, 38, 0
1, 244560, Note_on_c, 1, 38, 40
1, 245040, Note_off_c, 1, 38, 0
1, 245040, Note_on_c, 1, 38, 40
1, 245520, Note_off_c, 1, 38, 0
1, 245520, Note_on_c, 1, 38, 40
1, 246000, Note_off_c, 1, 38, 0
1, 246000, Note_on_c, 1, 40, 40
1, 246480, Note_off_c, 1, 40, 0
1, 246480, Note_on_c, 1, 40, 40
1, 246960, Note_off_c, 1, 40, 0
1, 246960, Note_on_c, 1, 40, 40
1, 247440, Note_off_c, 1, 40, 0
1, 247440, Note_on_c, 1, 40, 40
1, 247920, Note_off_c, 1, 40, 0
1, 247920, Note_on_c, 1, 33, 40
1, 248400, Note_off_c, 1, 33, 0
1, 248400, Note_on_c, 1, 33, 40
1, 248880, Note_off_c, 1, 33, 0
1, 248880, Note_on_c, 1, 38, 40
1, 249360, Note_off_c, 1, 38, 0
1, 249360, Note_on_c, 1, 38, 40
1, 249840, Note_off_c, 1, 38, 0
1, 249840, Note_on_c, 1, 33, 40
1, 250320, Note_off_c, 1, 33, 0
1, 250320, Note_on_c, 1, 33, 40
1, 250800, Note_off_c, 1, 33, 0
1, 250800, Note_on_c, 1, 33, 40
1, 251280, Note_off_c, 1, 33, 0
1, 251280, Note_on_c, 1, 33, 40
1, 251760, Note_off_c, 1, 33, 0
1, 251760, Note_on_c, 1, 31, 40
1, 252240, Note_off_c, 1, 31, 0
1, 252240, Note_on_c, 1, 31, 40
1, 252720, Note_off_c, 1, 31, 0
1, 252720, Note_on_c, 1, 31, 40
1, 252960, Note_off_c, 1, 31, 0
1, 252960, Note_on_c, 1, 31, 40
1, 253200, Note_off_c, 1, 31, 0
1, 253200, Note_on_c, 1, 31, 40
1, 253680, Note_off_c, 1, 31, 0
1, 253680, Note_on_c, 1, 33, 40
1, 254160, Note_off_c, 1, 33, 0
1, 254160, Note_on_c, 1, 33, 40
1, 254640, Note_off_c, 1, 33, 0
1, 254640, Note_on_c, 1, 33, 40
1, 255120, Note_off_c, 1, 33, 0
1, 255120, Note_on_c, 1, 33, 40
1, 255600, Note_off_c, 1, 33, 0
1, 255600, Note_on_c, 1, 33, 40
1, 256080, Note_off_c, 1, 33, 0
1, 256080, Note_on_c, 1, 33, 40
1, 256560, Note_off_c, 1, 33, 0
1, 256560, Note_on_c, 1, 38, 40
1, 257040, Note_off_c, 1, 38, 0
1, 257040, Note_on_c, 1, 38, 40
1, 257520, Note_off_c, 1, 38, 0
1, 257520, Note_on_c, 1, 33, 40
1, 258000, Note_off_c, 1, 33, 0
1, 258000, Note_on_c, 1, 33, 40
1, 258480, Note_off_c, 1, 33, 0
1, 258480, Note_on_c, 1, 33, 40
1, 258960, Note_off_c, 1, 33, 0
1, 258960, Note_on_c, 1, 33, 40
1, 259440, Note_off_c, 1, 33, 0
1, 259440, Note_on_c, 1, 31, 40
1, 259920, Note_off_c, 1, 31, 0
1, 259920, Note_on_c, 1, 31, 40
1, 260400, Note_off_c, 1, 31, 0
1, 260400, Note_on_c, 1, 31, 40
1, 260640, Note_off_c, 1, 31, 0
1, 260640, Note_on_c, 1, 31, 40
1, 260880, Note_off_c, 1, 31, 0
1, 260880, Note_on_c, 1, 31, 40
1, 261360, Note_off_c, 1, 31, 0
1, 261360, Note_on_c, 1, 33, 40
1, 261840, Note_off_c, 1, 33, 0
1, 261840, Note_on_c, 1, 33, 40
1, 262320, Note_off_c, 1, 33, 0
1, 262320, Note_on_c, 1, 33, 40
1, 262800, Note_off_c, 1, 33, 0
1, 262800, Note_on_c, 1, 33, 40
1, 263280, Note_off_c, 1, 33, 0
1, 263280, Note_on_c, 1, 38, 40
1, 263760, Note_off_c, 1, 38, 0
1, 263760, Note_on_c, 1, 38, 40
1, 264240, Note_off_c, 1, 38, 0
1, 264240, Note_on_c, 1, 38, 40
1, 264480, Note_off_c, 1, 38, 0
1, 264720, Note_on_c, 1, 38, 40
1, 264960, Note_off_c, 1, 38, 0
1, 264960, Note_on_c, 1, 38, 40
1, 265200, Note_off_c, 1, 38, 0
1, 265200, Note_on_c, 1, 40, 40
1, 265680, Note_off_c, 1, 40, 0
1, 265680, Note_on_c, 1, 40, 40
1, 266160, Note_off_c, 1, 40, 0
1, 266160, Note_on_c, 1, 40, 40
1, 266640, Note_off_c, 1, 40, 0
1, 266640, Note_on_c, 1, 40, 40
1, 267120, Note_off_c, 1, 40, 0
1, 267120, Note_on_c, 1, 33, 40
1, 267600, Note_off_c, 1, 33, 0
1, 267600, Note_on_c, 1, 33, 40
1, 268080, Note_off_c, 1, 33, 0
1, 268080, Note_on_c, 1, 38, 40
1, 268560, Note_off_c, 1, 38, 0
1, 268560, Note_on_c, 1, 38, 40
1, 269040, Note_off_c, 1, 38, 0
1, 269040, Note_on_c, 1, 33, 40
1, 269520, Note_off_c, 1, 33, 0
1, 269520, Note_on_c, 1, 40, 40
1, 269760, Note_off_c, 1, 40, 0
1, 269760, Note_on_c, 1, 40, 40
1, 270000, Note_off_c, 1, 40, 0
1, 270000, Note_on_c, 1, 40, 40
1, 270240, Note_off_c, 1, 40, 0
1, 270240, Note_on_c, 1, 40, 40
1, 270480, Note_off_c, 1, 40, 0
1, 270480, Note_on_c, 1, 40, 40
1, 270720, Note_off_c, 1, 40, 0
1, 270720, Note_on_c, 1, 40, 40
1, 270960, Note_off_c, 1, 40, 0
1, 270960, Note_on_c, 1, 33, 40
1, 271440, Note_off_c, 1, 33, 0
1, 271440, Note_on_c, 1, 33, 40
1, 271920, Note_off_c, 1, 33, 0
1, 271920, Note_on_c, 1, 38, 40
1, 272400, Note_off_c, 1, 38, 0
1, 272400, Note_on_c, 1, 38, 40
1, 272880, Note_off_c, 1, 38, 0
1, 272880, Note_on_c, 1, 33, 40
1, 273360, Note_off_c, 1, 33, 0
1, 273360, Note_on_c, 1, 33, 40
1, 273840, Note_off_c, 1, 33, 0
1, 273840, Note_on_c, 1, 33, 40
1, 274320, Note_off_c, 1, 33, 0
1, 274320, Note_on_c, 1, 33, 40
1, 274800, Note_off_c, 1, 33, 0
1, 274800, Note_on_c, 1, 31, 40
1, 275280, Note_off_c, 1, 31, 0
1, 275280, Note_on_c, 1, 31, 40
1, 275760, Note_off_c, 1, 31, 0
1, 275760, Note_on_c, 1, 31, 40
1, 276000, Note_off_c, 1, 31, 0
1, 276000, Note_on_c, 1, 31, 40
1, 276240, Note_off_c, 1, 31, 0
1, 276240, Note_on_c, 1, 31, 40
1, 276720, Note_off_c, 1, 31, 0
1, 276720, Note_on_c, 1, 33, 40
1, 277200, Note_off_c, 1, 33, 0
1, 277200, Note_on_c, 1, 33, 40
1, 277680, Note_off_c, 1, 33, 0
1, 277680, Note_on_c, 1, 40, 40
1, 277920, Note_off_c, 1, 40, 0
1, 278040, Note_on_c, 1, 40, 40
1, 278280, Note_off_c, 1, 40, 0
1, 278280, Note_on_c, 1, 40, 40
1, 278520, Note_off_c, 1, 40, 0
1, 278640, Note_on_c, 1, 33, 40
1, 279120, Note_off_c, 1, 33, 0
1, 279120, Note_on_c, 1, 33, 40
1, 279600, Note_off_c, 1, 33, 0
1, 279600, Note_on_c, 1, 38, 40
1, 280080, Note_off_c, 1, 38, 0
1, 280080, Note_on_c, 1, 38, 40
1, 280560, Note_off_c, 1, 38, 0
1, 280560, Note_on_c, 1, 33, 40
1, 281040, Note_off_c, 1, 33, 0
1, 281040, Note_on_c, 1, 33, 40
1, 281520, Note_off_c, 1, 33, 0
1, 281520, Note_on_c, 1, 33, 40
1, 281760, Note_off_c, 1, 33, 0
1, 281760, Note_on_c, 1, 33, 40
1, 282000, Note_off_c, 1, 33, 0
1, 282000, Note_on_c, 1, 33, 40
1, 282480, Note_off_c, 1, 33, 0
1, 282480, Note_on_c, 1, 31, 40
1, 282960, Note_off_c, 1, 31, 0
1, 282960, Note_on_c, 1, 31, 40
1, 283440, Note_off_c, 1, 31, 0
1, 283440, Note_on_c, 1, 31, 40
1, 283920, Note_off_c, 1, 31, 0
1, 283920, Note_on_c, 1, 31, 40
1, 284160, Note_off_c, 1, 31, 0
1, 284160, Note_on_c, 1, 31, 40
1, 284400, Note_off_c, 1, 31, 0
1, 284400, Note_on_c, 1, 33, 40
1, 284880, Note_off_c, 1, 33, 0
1, 284880, Note_on_c, 1, 33, 40
1, 285360, Note_off_c, 1, 33, 0
1, 285360, Note_on_c, 1, 33, 40
1, 285600, Note_off_c, 1, 33, 0
1, 285600, Note_on_c, 1, 33, 40
1, 285840, Note_off_c, 1, 33, 0
1, 285840, Note_on_c, 1, 35, 40
1, 286080, Note_off_c, 1, 35, 0
1, 286080, Note_on_c, 1, 37, 40
1, 286320, Note_off_c, 1, 37, 0
1, 286320, Note_on_c, 1, 38, 40
1, 286800, Note_off_c, 1, 38, 0
1, 286800, Note_on_c, 1, 38, 40
1, 287280, Note_off_c, 1, 38, 0
1, 287280, Note_on_c, 1, 38, 40
1, 287520, Note_off_c, 1, 38, 0
1, 287760, Note_on_c, 1, 38, 40
1, 288000, Note_off_c, 1, 38, 0
1, 288000, Note_on_c, 1, 38, 40
1, 288240, Note_off_c, 1, 38, 0
1, 288240, Note_on_c, 1, 40, 40
1, 288720, Note_off_c, 1, 40, 0
1, 288720, Note_on_c, 1, 40, 40
1, 289200, Note_off_c, 1, 40, 0
1, 289200, Note_on_c, 1, 40, 40
1, 289680, Note_off_c, 1, 40, 0
1, 289680, Note_on_c, 1, 40, 40
1, 290160, Note_off_c, 1, 40, 0
1, 290160, Note_on_c, 1, 33, 40
1, 290640, Note_off_c, 1, 33, 0
1, 290640, Note_on_c, 1, 33, 40
1, 291120, Note_off_c, 1, 33, 0
1, 291120, Note_on_c, 1, 38, 40
1, 291600, Note_off_c, 1, 38, 0
1, 291600, Note_on_c, 1, 38, 40
1, 292080, Note_off_c, 1, 38, 0
1, 292080, Note_on_c, 1, 33, 40
1, 292560, Note_off_c, 1, 33, 0
1, 292560, Note_on_c, 1, 33, 40
1, 293040, Note_off_c, 1, 33, 0
1, 293040, Note_on_c, 1, 33, 40
1, 293520, Note_off_c, 1, 33, 0
1, 293520, Note_on_c, 1, 33, 40
1, 294000, Note_off_c, 1, 33, 0
1, 294000, Note_on_c, 1, 37, 40
1, 294480, Note_off_c, 1, 37, 0
1, 294480, Note_on_c, 1, 37, 40
1, 294960, Note_off_c, 1, 37, 0
1, 294960, Note_on_c, 1, 37, 40
1, 295440, Note_off_c, 1, 37, 0
1, 295440, Note_on_c, 1, 37, 40
1, 295920, Note_off_c, 1, 37, 0
1, 295920, Note_on_c, 1, 30, 40
1, 296400, Note_off_c, 1, 30, 0
1, 296400, Note_on_c, 1, 30, 40
1, 296880, Note_off_c, 1, 30, 0
1, 296880, Note_on_c, 1, 30, 40
1, 297360, Note_off_c, 1, 30, 0
1, 297360, Note_on_c, 1, 30, 40
1, 297840, Note_off_c, 1, 30, 0
1, 297840, Note_on_c, 1, 37, 40
1, 298320, Note_off_c, 1, 37, 0
1, 298320, Note_on_c, 1, 37, 40
1, 298800, Note_off_c, 1, 37, 0
1, 298800, Note_on_c, 1, 37, 40
1, 299280, Note_off_c, 1, 37, 0
1, 299280, Note_on_c, 1, 37, 40
1, 299760, Note_off_c, 1, 37, 0
1, 299760, Note_on_c, 1, 37, 40
1, 300240, Note_off_c, 1, 37, 0
1, 300240, Note_on_c, 1, 37, 40
1, 300720, Note_off_c, 1, 37, 0
1, 300720, Note_on_c, 1, 37, 40
1, 301200, Note_off_c, 1, 37, 0
1, 301200, Note_on_c, 1, 37, 40
1, 301680, Note_off_c, 1, 37, 0
1, 301680, Note_on_c, 1, 33, 40
1, 302160, Note_off_c, 1, 33, 0
1, 302160, Note_on_c, 1, 33, 40
1, 302640, Note_off_c, 1, 33, 0
1, 302640, Note_on_c, 1, 33, 40
1, 303120, Note_off_c, 1, 33, 0
1, 303120, Note_on_c, 1, 33, 40
1, 303360, Note_off_c, 1, 33, 0
1, 303360, Note_on_c, 1, 33, 40
1, 303600, Note_off_c, 1, 33, 0
1, 303600, Note_on_c, 1, 30, 40
1, 304080, Note_off_c, 1, 30, 0
1, 304080, Note_on_c, 1, 30, 40
1, 304560, Note_off_c, 1, 30, 0
1, 304560, Note_on_c, 1, 30, 40
1, 305040, Note_off_c, 1, 30, 0
1, 305040, Note_on_c, 1, 30, 40
1, 305520, Note_off_c, 1, 30, 0
1, 305520, Note_on_c, 1, 38, 40
1, 306000, Note_off_c, 1, 38, 0
1, 306000, Note_on_c, 1, 38, 40
1, 306240, Note_off_c, 1, 38, 0
1, 306240, Note_on_c, 1, 38, 40
1, 306480, Note_off_c, 1, 38, 0
1, 306480, Note_on_c, 1, 38, 40
1, 306720, Note_off_c, 1, 38, 0
1, 306720, Note_on_c, 1, 38, 40
1, 306960, Note_off_c, 1, 38, 0
1, 306960, Note_on_c, 1, 38, 40
1, 307200, Note_off_c, 1, 38, 0
1, 307200, Note_on_c, 1, 38, 40
1, 307440, Note_off_c, 1, 38, 0
1, 307440, Note_on_c, 1, 40, 40
1, 307680, Note_off_c, 1, 40, 0
1, 307680, Note_on_c, 1, 40, 40
1, 307920, Note_off_c, 1, 40, 0
1, 307920, Note_on_c, 1, 40, 40
1, 308160, Note_off_c, 1, 40, 0
1, 308160, Note_on_c, 1, 40, 40
1, 308400, Note_off_c, 1, 40, 0
1, 308400, Note_on_c, 1, 40, 40
1, 308640, Note_off_c, 1, 40, 0
1, 308640, Note_on_c, 1, 40, 40
1, 308880, Note_off_c, 1, 40, 0
1, 308880, Note_on_c, 1, 40, 40
1, 309120, Note_off_c, 1, 40, 0
1, 309120, Note_on_c, 1, 40, 40
1, 309360, Note_off_c, 1, 40, 0
1, 309360, Note_on_c, 1, 33, 40
1, 309840, Note_off_c, 1, 33, 0
1, 309840, Note_on_c, 1, 33, 40
1, 310320, Note_off_c, 1, 33, 0
1, 310320, Note_on_c, 1, 38, 40
1, 310800, Note_off_c, 1, 38, 0
1, 310800, Note_on_c, 1, 38, 40
1, 311280, Note_off_c, 1, 38, 0
1, 311280, Note_on_c, 1, 33, 40
1, 311760, Note_off_c, 1, 33, 0
1, 311760, Note_on_c, 1, 33, 40
1, 312240, Note_off_c, 1, 33, 0
1, 312240, Note_on_c, 1, 33, 40
1, 312720, Note_off_c, 1, 33, 0
1, 312720, Note_on_c, 1, 33, 40
1, 313200, Note_off_c, 1, 33, 0
1, 313200, Note_on_c, 1, 31, 40
1, 313680, Note_off_c, 1, 31, 0
1, 313680, Note_on_c, 1, 31, 40
1, 314160, Note_off_c, 1, 31, 0
1, 314160, Note_on_c, 1, 31, 40
1, 314400, Note_off_c, 1, 31, 0
1, 314400, Note_on_c, 1, 31, 40
1, 314640, Note_off_c, 1, 31, 0
1, 314640, Note_on_c, 1, 31, 40
1, 315120, Note_off_c, 1, 31, 0
1, 315120, Note_on_c, 1, 33, 40
1, 315600, Note_off_c, 1, 33, 0
1, 315600, Note_on_c, 1, 33, 40
1, 316080, Note_off_c, 1, 33, 0
1, 316080, Note_on_c, 1, 33, 40
1, 316560, Note_off_c, 1, 33, 0
1, 316560, Note_on_c, 1, 33, 40
1, 317040, Note_off_c, 1, 33, 0
1, 317040, Note_on_c, 1, 33, 40
1, 317520, Note_off_c, 1, 33, 0
1, 317520, Note_on_c, 1, 33, 40
1, 318000, Note_off_c, 1, 33, 0
1, 318000, Note_on_c, 1, 38, 40
1, 318480, Note_off_c, 1, 38, 0
1, 318480, Note_on_c, 1, 38, 40
1, 318960, Note_off_c, 1, 38, 0
1, 318960, Note_on_c, 1, 33, 40
1, 319440, Note_off_c, 1, 33, 0
1, 319440, Note_on_c, 1, 33, 40
1, 319920, Note_off_c, 1, 33, 0
1, 319920, Note_on_c, 1, 33, 40
1, 320400, Note_off_c, 1, 33, 0
1, 320400, Note_on_c, 1, 33, 40
1, 320880, Note_off_c, 1, 33, 0
1, 320880, Note_on_c, 1, 31, 40
1, 321360, Note_off_c, 1, 31, 0
1, 321360, Note_on_c, 1, 31, 40
1, 321840, Note_off_c, 1, 31, 0
1, 321840, Note_on_c, 1, 31, 40
1, 322080, Note_off_c, 1, 31, 0
1, 322080, Note_on_c, 1, 31, 40
1, 322320, Note_off_c, 1, 31, 0
1, 322320, Note_on_c, 1, 31, 40
1, 322800, Note_off_c, 1, 31, 0
1, 322800, Note_on_c, 1, 33, 40
1, 323280, Note_off_c, 1, 33, 0
1, 323280, Note_on_c, 1, 33, 40
1, 323760, Note_off_c, 1, 33, 0
1, 323760, Note_on_c, 1, 33, 40
1, 324240, Note_off_c, 1, 33, 0
1, 324240, Note_on_c, 1, 33, 40
1, 324720, Note_off_c, 1, 33, 0
1, 324720, Note_on_c, 1, 38, 40
1, 325200, Note_off_c, 1, 38, 0
1, 325200, Note_on_c, 1, 38, 40
1, 325680, Note_off_c, 1, 38, 0
1, 325680, Note_on_c, 1, 38, 40
1, 325920, Note_off_c, 1, 38, 0
1, 326160, Note_on_c, 1, 38, 40
1, 326400, Note_off_c, 1, 38, 0
1, 326400, Note_on_c, 1, 38, 40
1, 326640, Note_off_c, 1, 38, 0
1, 326640, Note_on_c, 1, 40, 40
1, 327120, Note_off_c, 1, 40, 0
1, 327120, Note_on_c, 1, 40, 40
1, 327600, Note_off_c, 1, 40, 0
1, 327600, Note_on_c, 1, 40, 40
1, 328080, Note_off_c, 1, 40, 0
1, 328080, Note_on_c, 1, 40, 40
1, 328560, Note_off_c, 1, 40, 0
1, 328560, Note_on_c, 1, 33, 40
1, 329040, Note_off_c, 1, 33, 0
1, 329040, Note_on_c, 1, 33, 40
1, 329520, Note_off_c, 1, 33, 0
1, 329520, Note_on_c, 1, 38, 40
1, 330000, Note_off_c, 1, 38, 0
1, 330000, Note_on_c, 1, 38, 40
1, 330480, Note_off_c, 1, 38, 0
1, 330480, Note_on_c, 1, 33, 40
1, 330960, Note_off_c, 1, 33, 0
1, 330960, Note_on_c, 1, 33, 40
1, 331440, Note_off_c, 1, 33, 0
1, 331440, Note_on_c, 1, 40, 40
1, 331680, Note_off_c, 1, 40, 0
1, 331800, Note_on_c, 1, 40, 40
1, 332040, Note_off_c, 1, 40, 0
1, 332040, Note_on_c, 1, 40, 40
1, 332280, Note_off_c, 1, 40, 0
1, 332400, Note_on_c, 1, 33, 40
1, 332880, Note_off_c, 1, 33, 0
1, 332880, Note_on_c, 1, 33, 40
1, 333360, Note_off_c, 1, 33, 0
1, 333360, Note_on_c, 1, 38, 40
1, 333840, Note_off_c, 1, 38, 0
1, 333840, Note_on_c, 1, 38, 40
1, 334320, Note_off_c, 1, 38, 0
1, 334320, Note_on_c, 1, 33, 40
1, 334800, Note_off_c, 1, 33, 0
1, 334800, Note_on_c, 1, 33, 40
1, 335280, Note_off_c, 1, 33, 0
1, 335280, Note_on_c, 1, 38, 40
1, 335760, Note_off_c, 1, 38, 0
1, 335760, Note_on_c, 1, 38, 40
1, 336240, Note_off_c, 1, 38, 0
1, 336240, Note_on_c, 1, 33, 40
1, 336720, Note_off_c, 1, 33, 0
1, 336720, Note_on_c, 1, 33, 40
1, 337200, Note_off_c, 1, 33, 0
1, 337200, Note_on_c, 1, 38, 40
1, 337680, Note_off_c, 1, 38, 0
1, 337680, Note_on_c, 1, 38, 40
1, 338160, Note_off_c, 1, 38, 0
1, 338160, Note_on_c, 1, 40, 40
1, 340080, Note_off_c, 1, 40, 0
1, 340080, Note_on_c, 1, 40, 40
1, 342000, Note_off_c, 1, 40, 0
1, 342000, Note_on_c, 1, 40, 40
1, 343920, Note_off_c, 1, 40, 0
1, 343920, Note_on_c, 1, 40, 40
1, 345840, Note_off_c, 1, 40, 0
1, 345840, Note_on_c, 1, 40, 40
1, 347760, Note_off_c, 1, 40, 0
1, 347760, Note_on_c, 1, 40, 40
1, 349680, Note_off_c, 1, 40, 0
1, 349680, Note_on_c, 1, 40, 40
1, 351600, Note_off_c, 1, 40, 0
1, 351600, Note_on_c, 1, 40, 40
1, 353520, Note_off_c, 1, 40, 0
1, 393360, Note_on_c, 1, 38, 40
1, 393600, Note_off_c, 1, 38, 0
1, 393600, Note_on_c, 1, 38, 40
1, 393840, Note_off_c, 1, 38, 0
1, 393840, Note_on_c, 1, 38, 40
1, 394080, Note_off_c, 1, 38, 0
1, 394080, Note_on_c, 1, 38, 40
1, 394320, Note_off_c, 1, 38, 0
1, 394320, Note_on_c, 1, 38, 40
1, 394560, Note_off_c, 1, 38, 0
1, 394560, Note_on_c, 1, 38, 40
1, 394800, Note_off_c, 1, 38, 0
1, 394800, Note_on_c, 1, 38, 40
1, 395040, Note_off_c, 1, 38, 0
1, 395040, Note_on_c, 1, 38, 40
1, 395280, Note_off_c, 1, 38, 0
1, 395280, Note_on_c, 1, 42, 40
1, 395520, Note_off_c, 1, 42, 0
1, 395520, Note_on_c, 1, 42, 40
1, 395760, Note_off_c, 1, 42, 0
1, 395760, Note_on_c, 1, 42, 40
1, 396000, Note_off_c, 1, 42, 0
1, 396000, Note_on_c, 1, 42, 40
1, 396240, Note_off_c, 1, 42, 0
1, 396240, Note_on_c, 1, 42, 40
1, 396480, Note_off_c, 1, 42, 0
1, 396480, Note_on_c, 1, 42, 40
1, 396720, Note_off_c, 1, 42, 0
1, 396720, Note_on_c, 1, 42, 40
1, 396960, Note_off_c, 1, 42, 0
1, 396960, Note_on_c, 1, 42, 40
1, 397200, Note_off_c, 1, 42, 0
1, 397200, Note_on_c, 1, 40, 40
1, 397440, Note_off_c, 1, 40, 0
1, 397440, Note_on_c, 1, 40, 40
1, 397680, Note_off_c, 1, 40, 0
1, 397680, Note_on_c, 1, 40, 40
1, 397920, Note_off_c, 1, 40, 0
1, 397920, Note_on_c, 1, 40, 40
1, 398160, Note_off_c, 1, 40, 0
1, 398160, Note_on_c, 1, 40, 40
1, 398400, Note_off_c, 1, 40, 0
1, 398400, Note_on_c, 1, 40, 40
1, 398640, Note_off_c, 1, 40, 0
1, 398640, Note_on_c, 1, 40, 40
1, 398880, Note_off_c, 1, 40, 0
1, 398880, Note_on_c, 1, 40, 40
1, 399120, Note_off_c, 1, 40, 0
1, 399120, Note_on_c, 1, 33, 40
1, 399360, Note_off_c, 1, 33, 0
1, 399360, Note_on_c, 1, 33, 40
1, 399600, Note_off_c, 1, 33, 0
1, 399600, Note_on_c, 1, 33, 40
1, 399840, Note_off_c, 1, 33, 0
1, 399840, Note_on_c, 1, 33, 40
1, 400080, Note_off_c, 1, 33, 0
1, 400080, Note_on_c, 1, 33, 40
1, 400320, Note_off_c, 1, 33, 0
1, 400320, Note_on_c, 1, 33, 40
1, 400560, Note_off_c, 1, 33, 0
1, 400560, Note_on_c, 1, 33, 40
1, 400800, Note_off_c, 1, 33, 0
1, 400800, Note_on_c, 1, 33, 40
1, 401040, Note_off_c, 1, 33, 0
1, 401040, Note_on_c, 1, 38, 40
1, 401280, Note_off_c, 1, 38, 0
1, 401280, Note_on_c, 1, 38, 40
1, 401520, Note_off_c, 1, 38, 0
1, 401520, Note_on_c, 1, 38, 40
1, 401760, Note_off_c, 1, 38, 0
1, 401760, Note_on_c, 1, 38, 40
1, 402000, Note_off_c, 1, 38, 0
1, 402000, Note_on_c, 1, 38, 40
1, 402240, Note_off_c, 1, 38, 0
1, 402240, Note_on_c, 1, 38, 40
1, 402480, Note_off_c, 1, 38, 0
1, 402480, Note_on_c, 1, 38, 40
1, 402720, Note_off_c, 1, 38, 0
1, 402720, Note_on_c, 1, 38, 40
1, 402960, Note_off_c, 1, 38, 0
1, 402960, Note_on_c, 1, 42, 40
1, 403200, Note_off_c, 1, 42, 0
1, 403200, Note_on_c, 1, 42, 40
1, 403440, Note_off_c, 1, 42, 0
1, 403440, Note_on_c, 1, 42, 40
1, 403680, Note_off_c, 1, 42, 0
1, 403680, Note_on_c, 1, 42, 40
1, 403920, Note_off_c, 1, 42, 0
1, 403920, Note_on_c, 1, 42, 40
1, 404160, Note_off_c, 1, 42, 0
1, 404160, Note_on_c, 1, 42, 40
1, 404400, Note_off_c, 1, 42, 0
1, 404400, Note_on_c, 1, 42, 40
1, 404640, Note_off_c, 1, 42, 0
1, 404640, Note_on_c, 1, 42, 40
1, 404880, Note_off_c, 1, 42, 0
1, 404880, Note_on_c, 1, 40, 40
1, 405120, Note_off_c, 1, 40, 0
1, 405120, Note_on_c, 1, 40, 40
1, 405360, Note_off_c, 1, 40, 0
1, 405360, Note_on_c, 1, 40, 40
1, 405600, Note_off_c, 1, 40, 0
1, 405600, Note_on_c, 1, 40, 40
1, 405840, Note_off_c, 1, 40, 0
1, 405840, Note_on_c, 1, 40, 40
1, 406080, Note_off_c, 1, 40, 0
1, 406080, Note_on_c, 1, 40, 40
1, 406320, Note_off_c, 1, 40, 0
1, 406320, Note_on_c, 1, 40, 40
1, 406560, Note_off_c, 1, 40, 0
1, 406560, Note_on_c, 1, 40, 40
1, 406800, Note_off_c, 1, 40, 0
1, 406800, Note_on_c, 1, 33, 40
1, 407040, Note_off_c, 1, 33, 0
1, 407040, Note_on_c, 1, 33, 40
1, 407280, Note_off_c, 1, 33, 0
1, 407280, Note_on_c, 1, 33, 40
1, 407520, Note_off_c, 1, 33, 0
1, 407520, Note_on_c, 1, 33, 40
1, 407760, Note_off_c, 1, 33, 0
1, 407760, Note_on_c, 1, 33, 40
1, 408000, Note_off_c, 1, 33, 0
1, 408000, Note_on_c, 1, 33, 40
1, 408240, Note_off_c, 1, 33, 0
1, 408240, Note_on_c, 1, 33, 40
1, 408480, Note_off_c, 1, 33, 0
1, 408480, Note_on_c, 1, 33, 40
1, 408720, Note_off_c, 1, 33, 0
1, 408720, Note_on_c, 1, 33, 40
1, 408960, Note_off_c, 1, 33, 0
1, 408960, Note_on_c, 1, 33, 40
1, 409200, Note_off_c, 1, 33, 0
1, 409200, Note_on_c, 1, 38, 40
1, 409440, Note_off_c, 1, 38, 0
1, 409440, Note_on_c, 1, 38, 40
1, 409680, Note_off_c, 1, 38, 0
1, 409680, Note_on_c, 1, 38, 40
1, 409920, Note_off_c, 1, 38, 0
1, 409920, Note_on_c, 1, 38, 40
1, 410160, Note_off_c, 1, 38, 0
1, 410160, Note_on_c, 1, 38, 40
1, 410400, Note_off_c, 1, 38, 0
1, 410400, Note_on_c, 1, 38, 40
1, 410640, Note_off_c, 1, 38, 0
1, 410640, Note_on_c, 1, 38, 40
1, 410880, Note_off_c, 1, 38, 0
1, 410880, Note_on_c, 1, 38, 40
1, 411120, Note_off_c, 1, 38, 0
1, 411120, Note_on_c, 1, 38, 40
1, 411360, Note_off_c, 1, 38, 0
1, 411360, Note_on_c, 1, 38, 40
1, 411600, Note_off_c, 1, 38, 0
1, 411600, Note_on_c, 1, 38, 40
1, 411840, Note_off_c, 1, 38, 0
1, 411840, Note_on_c, 1, 38, 40
1, 412080, Note_off_c, 1, 38, 0
1, 412080, Note_on_c, 1, 38, 40
1, 412320, Note_off_c, 1, 38, 0
1, 412320, Note_on_c, 1, 38, 40
1, 412560, Note_off_c, 1, 38, 0
1, 412560, Note_on_c, 1, 38, 40
1, 412800, Note_off_c, 1, 38, 0
1, 412800, Note_on_c, 1, 38, 40
1, 413040, Note_off_c, 1, 38, 0
1, 413040, Note_on_c, 1, 33, 40
1, 413280, Note_off_c, 1, 33, 0
1, 413280, Note_on_c, 1, 33, 40
1, 413520, Note_off_c, 1, 33, 0
1, 413520, Note_on_c, 1, 33, 40
1, 413760, Note_off_c, 1, 33, 0
1, 413760, Note_on_c, 1, 33, 40
1, 414000, Note_off_c, 1, 33, 0
1, 414000, Note_on_c, 1, 33, 40
1, 414240, Note_off_c, 1, 33, 0
1, 414240, Note_on_c, 1, 33, 40
1, 414480, Note_off_c, 1, 33, 0
1, 414480, Note_on_c, 1, 33, 40
1, 414720, Note_off_c, 1, 33, 0
1, 414720, Note_on_c, 1, 33, 40
1, 414960, Note_off_c, 1, 33, 0
1, 414960, Note_on_c, 1, 33, 40
1, 415200, Note_off_c, 1, 33, 0
1, 415200, Note_on_c, 1, 33, 40
1, 415440, Note_off_c, 1, 33, 0
1, 415440, Note_on_c, 1, 33, 40
1, 415680, Note_off_c, 1, 33, 0
1, 415680, Note_on_c, 1, 33, 40
1, 415920, Note_off_c, 1, 33, 0
1, 415920, Note_on_c, 1, 33, 40
1, 416160, Note_off_c, 1, 33, 0
1, 416160, Note_on_c, 1, 33, 40
1, 416400, Note_off_c, 1, 33, 0
1, 416400, Note_on_c, 1, 33, 40
1, 416640, Note_off_c, 1, 33, 0
1, 416640, Note_on_c, 1, 33, 40
1, 416880, Note_off_c, 1, 33, 0
1, 416880, Note_on_c, 1, 33, 40
1, 417120, Note_off_c, 1, 33, 0
1, 417120, Note_on_c, 1, 33, 40
1, 417360, Note_off_c, 1, 33, 0
1, 417360, Note_on_c, 1, 33, 40
1, 417600, Note_off_c, 1, 33, 0
1, 417600, Note_on_c, 1, 33, 40
1, 417840, Note_off_c, 1, 33, 0
1, 417840, Note_on_c, 1, 33, 40
1, 418080, Note_off_c, 1, 33, 0
1, 418080, Note_on_c, 1, 33, 40
1, 418320, Note_off_c, 1, 33, 0
1, 418320, Note_on_c, 1, 33, 40
1, 418560, Note_off_c, 1, 33, 0
1, 418560, Note_on_c, 1, 33, 40
1, 418800, Note_off_c, 1, 33, 0
1, 418800, Note_on_c, 1, 31, 40
1, 419040, Note_off_c, 1, 31, 0
1, 419040, Note_on_c, 1, 31, 40
1, 419280, Note_off_c, 1, 31, 0
1, 419280, Note_on_c, 1, 31, 40
1, 419520, Note_off_c, 1, 31, 0
1, 419520, Note_on_c, 1, 31, 40
1, 419760, Note_off_c, 1, 31, 0
1, 419760, Note_on_c, 1, 31, 40
1, 420000, Note_off_c, 1, 31, 0
1, 420000, Note_on_c, 1, 31, 40
1, 420240, Note_off_c, 1, 31, 0
1, 420240, Note_on_c, 1, 31, 40
1, 420480, Note_off_c, 1, 31, 0
1, 420480, Note_on_c, 1, 31, 40
1, 420720, Note_off_c, 1, 31, 0
1, 420720, Note_on_c, 1, 38, 40
1, 420960, Note_off_c, 1, 38, 0
1, 420960, Note_on_c, 1, 38, 40
1, 421200, Note_off_c, 1, 38, 0
1, 421200, Note_on_c, 1, 38, 40
1, 421440, Note_off_c, 1, 38, 0
1, 421440, Note_on_c, 1, 38, 40
1, 421680, Note_off_c, 1, 38, 0
1, 421680, Note_on_c, 1, 38, 40
1, 421920, Note_off_c, 1, 38, 0
1, 421920, Note_on_c, 1, 38, 40
1, 422160, Note_off_c, 1, 38, 0
1, 422160, Note_on_c, 1, 38, 40
1, 422400, Note_off_c, 1, 38, 0
1, 422400, Note_on_c, 1, 38, 40
1, 422640, Note_off_c, 1, 38, 0
1, 422640, Note_on_c, 1, 33, 40
1, 422880, Note_off_c, 1, 33, 0
1, 422880, Note_on_c, 1, 33, 40
1, 423120, Note_off_c, 1, 33, 0
1, 423120, Note_on_c, 1, 33, 40
1, 423360, Note_off_c, 1, 33, 0
1, 423360, Note_on_c, 1, 33, 40
1, 423600, Note_off_c, 1, 33, 0
1, 423600, Note_on_c, 1, 33, 40
1, 423840, Note_off_c, 1, 33, 0
1, 423840, Note_on_c, 1, 33, 40
1, 424080, Note_off_c, 1, 33, 0
1, 424080, Note_on_c, 1, 33, 40
1, 424320, Note_off_c, 1, 33, 0
1, 424320, Note_on_c, 1, 33, 40
1, 424560, Note_off_c, 1, 33, 0
1, 424560, Note_on_c, 1, 33, 40
1, 424800, Note_off_c, 1, 33, 0
1, 424800, Note_on_c, 1, 33, 40
1, 425040, Note_off_c, 1, 33, 0
1, 425040, Note_on_c, 1, 33, 40
1, 425280, Note_off_c, 1, 33, 0
1, 425280, Note_on_c, 1, 33, 40
1, 425520, Note_off_c, 1, 33, 0
1, 425520, Note_on_c, 1, 33, 40
1, 425760, Note_off_c, 1, 33, 0
1, 425760, Note_on_c, 1, 33, 40
1, 426000, Note_off_c, 1, 33, 0
1, 426000, Note_on_c, 1, 33, 40
1, 426240, Note_off_c, 1, 33, 0
1, 426240, Note_on_c, 1, 33, 40
1, 426480, Note_off_c, 1, 33, 0
1, 426480, Note_on_c, 1, 31, 40
1, 426720, Note_off_c, 1, 31, 0
1, 426720, Note_on_c, 1, 31, 40
1, 426960, Note_off_c, 1, 31, 0
1, 426960, Note_on_c, 1, 31, 40
1, 427200, Note_off_c, 1, 31, 0
1, 427200, Note_on_c, 1, 31, 40
1, 427440, Note_off_c, 1, 31, 0
1, 427440, Note_on_c, 1, 31, 40
1, 427680, Note_off_c, 1, 31, 0
1, 427680, Note_on_c, 1, 31, 40
1, 427920, Note_off_c, 1, 31, 0
1, 427920, Note_on_c, 1, 31, 40
1, 428160, Note_off_c, 1, 31, 0
1, 428160, Note_on_c, 1, 31, 40
1, 428400, Note_off_c, 1, 31, 0
1, 428400, Note_on_c, 1, 38, 40
1, 428640, Note_off_c, 1, 38, 0
1, 428640, Note_on_c, 1, 38, 40
1, 428880, Note_off_c, 1, 38, 0
1, 428880, Note_on_c, 1, 38, 40
1, 429120, Note_off_c, 1, 38, 0
1, 429120, Note_on_c, 1, 38, 40
1, 429360, Note_off_c, 1, 38, 0
1, 429360, Note_on_c, 1, 38, 40
1, 429600, Note_off_c, 1, 38, 0
1, 429600, Note_on_c, 1, 38, 40
1, 429840, Note_off_c, 1, 38, 0
1, 429840, Note_on_c, 1, 38, 40
1, 430080, Note_off_c, 1, 38, 0
1, 430080, Note_on_c, 1, 38, 40
1, 430320, Note_off_c, 1, 38, 0
1, 430320, Note_on_c, 1, 38, 40
1, 430560, Note_off_c, 1, 38, 0
1, 430560, Note_on_c, 1, 38, 40
1, 430800, Note_off_c, 1, 38, 0
1, 430800, Note_on_c, 1, 38, 40
1, 431040, Note_off_c, 1, 38, 0
1, 431040, Note_on_c, 1, 38, 40
1, 431280, Note_off_c, 1, 38, 0
1, 431280, Note_on_c, 1, 38, 40
1, 431520, Note_off_c, 1, 38, 0
1, 431520, Note_on_c, 1, 38, 40
1, 431760, Note_off_c, 1, 38, 0
1, 431760, Note_on_c, 1, 38, 40
1, 432000, Note_off_c, 1, 38, 0
1, 432000, Note_on_c, 1, 38, 40
1, 432240, Note_off_c, 1, 38, 0
1, 432240, Note_on_c, 1, 42, 40
1, 432480, Note_off_c, 1, 42, 0
1, 432480, Note_on_c, 1, 42, 40
1, 432720, Note_off_c, 1, 42, 0
1, 432720, Note_on_c, 1, 42, 40
1, 432960, Note_off_c, 1, 42, 0
1, 432960, Note_on_c, 1, 42, 40
1, 433200, Note_off_c, 1, 42, 0
1, 433200, Note_on_c, 1, 42, 40
1, 433440, Note_off_c, 1, 42, 0
1, 433440, Note_on_c, 1, 42, 40
1, 433680, Note_off_c, 1, 42, 0
1, 433680, Note_on_c, 1, 42, 40
1, 433920, Note_off_c, 1, 42, 0
1, 433920, Note_on_c, 1, 42, 40
1, 434160, Note_off_c, 1, 42, 0
1, 434160, Note_on_c, 1, 40, 40
1, 434400, Note_off_c, 1, 40, 0
1, 434400, Note_on_c, 1, 40, 40
1, 434640, Note_off_c, 1, 40, 0
1, 434640, Note_on_c, 1, 40, 40
1, 434880, Note_off_c, 1, 40, 0
1, 434880, Note_on_c, 1, 40, 40
1, 435120, Note_off_c, 1, 40, 0
1, 435120, Note_on_c, 1, 31, 40
1, 435360, Note_off_c, 1, 31, 0
1, 435360, Note_on_c, 1, 31, 40
1, 435600, Note_off_c, 1, 31, 0
1, 435600, Note_on_c, 1, 31, 40
1, 435840, Note_off_c, 1, 31, 0
1, 435840, Note_on_c, 1, 31, 40
1, 436080, Note_off_c, 1, 31, 0
1, 436080, Note_on_c, 1, 31, 40
1, 436320, Note_off_c, 1, 31, 0
1, 436320, Note_on_c, 1, 31, 40
1, 436560, Note_off_c, 1, 31, 0
1, 436560, Note_on_c, 1, 31, 40
1, 436800, Note_off_c, 1, 31, 0
1, 436800, Note_on_c, 1, 31, 40
1, 437040, Note_off_c, 1, 31, 0
1, 437040, Note_on_c, 1, 38, 40
1, 437280, Note_off_c, 1, 38, 0
1, 437280, Note_on_c, 1, 38, 40
1, 437520, Note_off_c, 1, 38, 0
1, 437520, Note_on_c, 1, 38, 40
1, 437760, Note_off_c, 1, 38, 0
1, 437760, Note_on_c, 1, 38, 40
1, 438000, Note_off_c, 1, 38, 0
1, 438000, Note_on_c, 1, 38, 40
1, 438240, Note_off_c, 1, 38, 0
1, 438240, Note_on_c, 1, 38, 40
1, 438480, Note_off_c, 1, 38, 0
1, 438480, Note_on_c, 1, 38, 40
1, 438720, Note_off_c, 1, 38, 0
1, 438720, Note_on_c, 1, 38, 40
1, 438960, Note_off_c, 1, 38, 0
1, 438960, Note_on_c, 1, 42, 40
1, 439200, Note_off_c, 1, 42, 0
1, 439200, Note_on_c, 1, 42, 40
1, 439440, Note_off_c, 1, 42, 0
1, 439440, Note_on_c, 1, 42, 40
1, 439680, Note_off_c, 1, 42, 0
1, 439680, Note_on_c, 1, 42, 40
1, 439920, Note_off_c, 1, 42, 0
1, 439920, Note_on_c, 1, 42, 40
1, 440160, Note_off_c, 1, 42, 0
1, 440160, Note_on_c, 1, 42, 40
1, 440400, Note_off_c, 1, 42, 0
1, 440400, Note_on_c, 1, 42, 40
1, 440640, Note_off_c, 1, 42, 0
1, 440640, Note_on_c, 1, 42, 40
1, 440880, Note_off_c, 1, 42, 0
1, 440880, Note_on_c, 1, 40, 40
1, 441120, Note_off_c, 1, 40, 0
1, 441120, Note_on_c, 1, 40, 40
1, 441360, Note_off_c, 1, 40, 0
1, 441360, Note_on_c, 1, 40, 40
1, 441600, Note_off_c, 1, 40, 0
1, 441600, Note_on_c, 1, 40, 40
1, 441840, Note_off_c, 1, 40, 0
1, 441840, Note_on_c, 1, 40, 40
1, 442080, Note_off_c, 1, 40, 0
1, 442080, Note_on_c, 1, 40, 40
1, 442320, Note_off_c, 1, 40, 0
1, 442320, Note_on_c, 1, 40, 40
1, 442560, Note_off_c, 1, 40, 0
1, 442560, Note_on_c, 1, 40, 40
1, 442800, Note_off_c, 1, 40, 0
1, 442800, Note_on_c, 1, 33, 40
1, 443040, Note_off_c, 1, 33, 0
1, 443040, Note_on_c, 1, 33, 40
1, 443280, Note_off_c, 1, 33, 0
1, 443280, Note_on_c, 1, 33, 40
1, 443520, Note_off_c, 1, 33, 0
1, 443520, Note_on_c, 1, 33, 40
1, 443760, Note_off_c, 1, 33, 0
1, 443760, Note_on_c, 1, 33, 40
1, 444000, Note_off_c, 1, 33, 0
1, 444000, Note_on_c, 1, 33, 40
1, 444240, Note_off_c, 1, 33, 0
1, 444240, Note_on_c, 1, 33, 40
1, 444480, Note_off_c, 1, 33, 0
1, 444480, Note_on_c, 1, 33, 40
1, 444720, Note_off_c, 1, 33, 0
1, 444720, Note_on_c, 1, 38, 40
1, 444960, Note_off_c, 1, 38, 0
1, 444960, Note_on_c, 1, 38, 40
1, 445200, Note_off_c, 1, 38, 0
1, 445200, Note_on_c, 1, 38, 40
1, 445440, Note_off_c, 1, 38, 0
1, 445440, Note_on_c, 1, 38, 40
1, 445680, Note_off_c, 1, 38, 0
1, 445680, Note_on_c, 1, 38, 40
1, 445920, Note_off_c, 1, 38, 0
1, 445920, Note_on_c, 1, 38, 40
1, 446160, Note_off_c, 1, 38, 0
1, 446160, Note_on_c, 1, 38, 40
1, 446400, Note_off_c, 1, 38, 0
1, 446400, Note_on_c, 1, 38, 40
1, 446640, Note_off_c, 1, 38, 0
1, 446640, Note_on_c, 1, 38, 40
1, 446880, Note_off_c, 1, 38, 0
1, 446880, Note_on_c, 1, 38, 40
1, 447120, Note_off_c, 1, 38, 0
1, 447120, Note_on_c, 1, 38, 40
1, 447360, Note_off_c, 1, 38, 0
1, 447360, Note_on_c, 1, 38, 40
1, 447600, Note_off_c, 1, 38, 0
1, 447600, Note_on_c, 1, 38, 40
1, 447840, Note_off_c, 1, 38, 0
1, 447840, Note_on_c, 1, 38, 40
1, 448080, Note_off_c, 1, 38, 0
1, 448080, Note_on_c, 1, 38, 40
1, 448320, Note_off_c, 1, 38, 0
1, 448320, Note_on_c, 1, 38, 40
1, 448560, Note_off_c, 1, 38, 0
1, 448560, Note_on_c, 1, 33, 40
1, 448800, Note_off_c, 1, 33, 0
1, 448800, Note_on_c, 1, 33, 40
1, 449040, Note_off_c, 1, 33, 0
1, 449040, Note_on_c, 1, 33, 40
1, 449280, Note_off_c, 1, 33, 0
1, 449280, Note_on_c, 1, 33, 40
1, 449520, Note_off_c, 1, 33, 0
1, 449520, Note_on_c, 1, 33, 40
1, 449760, Note_off_c, 1, 33, 0
1, 449760, Note_on_c, 1, 33, 40
1, 450000, Note_off_c, 1, 33, 0
1, 450000, Note_on_c, 1, 33, 40
1, 450240, Note_off_c, 1, 33, 0
1, 450240, Note_on_c, 1, 33, 40
1, 450480, Note_off_c, 1, 33, 0
1, 450480, Note_on_c, 1, 33, 40
1, 450720, Note_off_c, 1, 33, 0
1, 450720, Note_on_c, 1, 33, 40
1, 450960, Note_off_c, 1, 33, 0
1, 450960, Note_on_c, 1, 33, 40
1, 451200, Note_off_c, 1, 33, 0
1, 451200, Note_on_c, 1, 33, 40
1, 451440, Note_off_c, 1, 33, 0
1, 451440, Note_on_c, 1, 33, 40
1, 451680, Note_off_c, 1, 33, 0
1, 451680, Note_on_c, 1, 33, 40
1, 451920, Note_off_c, 1, 33, 0
1, 451920, Note_on_c, 1, 33, 40
1, 452160, Note_off_c, 1, 33, 0
1, 452160, Note_on_c, 1, 33, 40
1, 452400, Note_off_c, 1, 33, 0
1, 452400, Note_on_c, 1, 33, 40
1, 452640, Note_off_c, 1, 33, 0
1, 452640, Note_on_c, 1, 33, 40
1, 452880, Note_off_c, 1, 33, 0
1, 452880, Note_on_c, 1, 33, 40
1, 453120, Note_off_c, 1, 33, 0
1, 453120, Note_on_c, 1, 33, 40
1, 453360, Note_off_c, 1, 33, 0
1, 453360, Note_on_c, 1, 33, 40
1, 453600, Note_off_c, 1, 33, 0
1, 453600, Note_on_c, 1, 33, 40
1, 453840, Note_off_c, 1, 33, 0
1, 453840, Note_on_c, 1, 33, 40
1, 454080, Note_off_c, 1, 33, 0
1, 454080, Note_on_c, 1, 33, 40
1, 454320, Note_off_c, 1, 33, 0
1, 454320, Note_on_c, 1, 31, 40
1, 454560, Note_off_c, 1, 31, 0
1, 454560, Note_on_c, 1, 31, 40
1, 454800, Note_off_c, 1, 31, 0
1, 454800, Note_on_c, 1, 31, 40
1, 455040, Note_off_c, 1, 31, 0
1, 455040, Note_on_c, 1, 31, 40
1, 455280, Note_off_c, 1, 31, 0
1, 455280, Note_on_c, 1, 31, 40
1, 455520, Note_off_c, 1, 31, 0
1, 455520, Note_on_c, 1, 31, 40
1, 455760, Note_off_c, 1, 31, 0
1, 455760, Note_on_c, 1, 31, 40
1, 456000, Note_off_c, 1, 31, 0
1, 456000, Note_on_c, 1, 31, 40
1, 456240, Note_off_c, 1, 31, 0
1, 456240, Note_on_c, 1, 38, 40
1, 456480, Note_off_c, 1, 38, 0
1, 456480, Note_on_c, 1, 38, 40
1, 456720, Note_off_c, 1, 38, 0
1, 456720, Note_on_c, 1, 38, 40
1, 456960, Note_off_c, 1, 38, 0
1, 456960, Note_on_c, 1, 38, 40
1, 457200, Note_off_c, 1, 38, 0
1, 457200, Note_on_c, 1, 38, 40
1, 457440, Note_off_c, 1, 38, 0
1, 457440, Note_on_c, 1, 38, 40
1, 457680, Note_off_c, 1, 38, 0
1, 457680, Note_on_c, 1, 38, 40
1, 457920, Note_off_c, 1, 38, 0
1, 457920, Note_on_c, 1, 38, 40
1, 458160, Note_off_c, 1, 38, 0
1, 458160, Note_on_c, 1, 33, 40
1, 458400, Note_off_c, 1, 33, 0
1, 458400, Note_on_c, 1, 33, 40
1, 458640, Note_off_c, 1, 33, 0
1, 458640, Note_on_c, 1, 33, 40
1, 458880, Note_off_c, 1, 33, 0
1, 458880, Note_on_c, 1, 33, 40
1, 459120, Note_off_c, 1, 33, 0
1, 459120, Note_on_c, 1, 33, 40
1, 459360, Note_off_c, 1, 33, 0
1, 459360, Note_on_c, 1, 33, 40
1, 459600, Note_off_c, 1, 33, 0
1, 459600, Note_on_c, 1, 33, 40
1, 459840, Note_off_c, 1, 33, 0
1, 459840, Note_on_c, 1, 33, 40
1, 460080, Note_off_c, 1, 33, 0
1, 460080, Note_on_c, 1, 33, 40
1, 460320, Note_off_c, 1, 33, 0
1, 460320, Note_on_c, 1, 33, 40
1, 460560, Note_off_c, 1, 33, 0
1, 460560, Note_on_c, 1, 33, 40
1, 460800, Note_off_c, 1, 33, 0
1, 460800, Note_on_c, 1, 33, 40
1, 461040, Note_off_c, 1, 33, 0
1, 461040, Note_on_c, 1, 33, 40
1, 461280, Note_off_c, 1, 33, 0
1, 461280, Note_on_c, 1, 33, 40
1, 461520, Note_off_c, 1, 33, 0
1, 461520, Note_on_c, 1, 33, 40
1, 461760, Note_off_c, 1, 33, 0
1, 461760, Note_on_c, 1, 33, 40
1, 462000, Note_off_c, 1, 33, 0
1, 462000, Note_on_c, 1, 31, 40
1, 462240, Note_off_c, 1, 31, 0
1, 462240, Note_on_c, 1, 31, 40
1, 462480, Note_off_c, 1, 31, 0
1, 462480, Note_on_c, 1, 31, 40
1, 462720, Note_off_c, 1, 31, 0
1, 462720, Note_on_c, 1, 31, 40
1, 462960, Note_off_c, 1, 31, 0
1, 462960, Note_on_c, 1, 31, 40
1, 463200, Note_off_c, 1, 31, 0
1, 463200, Note_on_c, 1, 31, 40
1, 463440, Note_off_c, 1, 31, 0
1, 463440, Note_on_c, 1, 31, 40
1, 463680, Note_off_c, 1, 31, 0
1, 463680, Note_on_c, 1, 31, 40
1, 463920, Note_off_c, 1, 31, 0
1, 463920, Note_on_c, 1, 38, 40
1, 464160, Note_off_c, 1, 38, 0
1, 464160, Note_on_c, 1, 38, 40
1, 464400, Note_off_c, 1, 38, 0
1, 464400, Note_on_c, 1, 38, 40
1, 464640, Note_off_c, 1, 38, 0
1, 464640, Note_on_c, 1, 38, 40
1, 464880, Note_off_c, 1, 38, 0
1, 464880, Note_on_c, 1, 38, 40
1, 465120, Note_off_c, 1, 38, 0
1, 465120, Note_on_c, 1, 38, 40
1, 465360, Note_off_c, 1, 38, 0
1, 465360, Note_on_c, 1, 38, 40
1, 465600, Note_off_c, 1, 38, 0
1, 465600, Note_on_c, 1, 38, 40
1, 465840, Note_off_c, 1, 38, 0
1, 465840, Note_on_c, 1, 38, 40
1, 466080, Note_off_c, 1, 38, 0
1, 466080, Note_on_c, 1, 38, 40
1, 466320, Note_off_c, 1, 38, 0
1, 466320, Note_on_c, 1, 38, 40
1, 466560, Note_off_c, 1, 38, 0
1, 466560, Note_on_c, 1, 38, 40
1, 466800, Note_off_c, 1, 38, 0
1, 466800, Note_on_c, 1, 38, 40
1, 467040, Note_off_c, 1, 38, 0
1, 467040, Note_on_c, 1, 38, 40
1, 467280, Note_off_c, 1, 38, 0
1, 467280, Note_on_c, 1, 38, 40
1, 467520, Note_off_c, 1, 38, 0
1, 467520, Note_on_c, 1, 38, 40
1, 467760, Note_off_c, 1, 38, 0
1, 467760, Note_on_c, 1, 38, 40
1, 468000, Note_off_c, 1, 38, 0
1, 468000, Note_on_c, 1, 38, 40
1, 468240, Note_off_c, 1, 38, 0
1, 468240, Note_on_c, 1, 38, 40
1, 468480, Note_off_c, 1, 38, 0
1, 468480, Note_on_c, 1, 38, 40
1, 468720, Note_off_c, 1, 38, 0
1, 468720, Note_on_c, 1, 38, 40
1, 468960, Note_off_c, 1, 38, 0
1, 468960, Note_on_c, 1, 38, 40
1, 469200, Note_off_c, 1, 38, 0
1, 469200, Note_on_c, 1, 38, 40
1, 469440, Note_off_c, 1, 38, 0
1, 469440, Note_on_c, 1, 38, 40
1, 469680, Note_off_c, 1, 38, 0
1, 469680, Note_on_c, 1, 38, 40
1, 469920, Note_off_c, 1, 38, 0
1, 469920, Note_on_c, 1, 38, 40
1, 470160, Note_off_c, 1, 38, 0
1, 470160, Note_on_c, 1, 42, 40
1, 470400, Note_off_c, 1, 42, 0
1, 470400, Note_on_c, 1, 43, 40
1, 470640, Note_off_c, 1, 43, 0
1, 470640, Note_on_c, 1, 45, 40
1, 470880, Note_off_c, 1, 45, 0
1, 470880, Note_on_c, 1, 47, 40
1, 471120, Note_off_c, 1, 47, 0
1, 471120, Note_on_c, 1, 49, 40
1, 471360, Note_off_c, 1, 49, 0
1, 471360, Note_on_c, 1, 50, 40
1, 471600, Note_off_c, 1, 50, 0
1, 471600, Note_on_c, 1, 38, 40
1, 471840, Note_off_c, 1, 38, 0
1, 471840, Note_on_c, 1, 38, 40
1, 472080, Note_off_c, 1, 38, 0
1, 472080, Note_on_c, 1, 42, 40
1, 472320, Note_off_c, 1, 42, 0
1, 472320, Note_on_c, 1, 43, 40
1, 472560, Note_off_c, 1, 43, 0
1, 472560, Note_on_c, 1, 45, 40
1, 472800, Note_off_c, 1, 45, 0
1, 472800, Note_on_c, 1, 47, 40
1, 473040, Note_off_c, 1, 47, 0
1, 473040, Note_on_c, 1, 49, 40
1, 473280, Note_off_c, 1, 49, 0
1, 473280, Note_on_c, 1, 50, 40
1, 473520, Note_off_c, 1, 50, 0
1, 473520, Note_on_c, 1, 38, 40
1, 473760, Note_off_c, 1, 38, 0
1, 473760, Note_on_c, 1, 38, 40
1, 474000, Note_off_c, 1, 38, 0
1, 474000, Note_on_c, 1, 42, 40
1, 474240, Note_off_c, 1, 42, 0
1, 474240, Note_on_c, 1, 43, 40
1, 474480, Note_off_c, 1, 43, 0
1, 474480, Note_on_c, 1, 45, 40
1, 474720, Note_off_c, 1, 45, 0
1, 474720, Note_on_c, 1, 47, 40
1, 474960, Note_off_c, 1, 47, 0
1, 474960, Note_on_c, 1, 49, 40
1, 475200, Note_off_c, 1, 49, 0
1, 475200, Note_on_c, 1, 50, 40
1, 475440, Note_off_c, 1, 50, 0
1, 475440, Note_on_c, 1, 38, 40
1, 475680, Note_off_c, 1, 38, 0
1, 475680, Note_on_c, 1, 38, 40
1, 475920, Note_off_c, 1, 38, 0
1, 475920, Note_on_c, 1, 42, 40
1, 476160, Note_off_c, 1, 42, 0
1, 476160, Note_on_c, 1, 43, 40
1, 476400, Note_off_c, 1, 43, 0
1, 476400, Note_on_c, 1, 45, 40
1, 476640, Note_off_c, 1, 45, 0
1, 476640, Note_on_c, 1, 47, 40
1, 476880, Note_off_c, 1, 47, 0
1, 476880, Note_on_c, 1, 49, 40
1, 477120, Note_off_c, 1, 49, 0
1, 477120, Note_on_c, 1, 50, 40
1, 477360, Note_off_c, 1, 50, 0
1, 477360, Note_on_c, 1, 38, 40
1, 477600, Note_off_c, 1, 38, 0
1, 477600, Note_on_c, 1, 38, 40
1, 477840, Note_off_c, 1, 38, 0
1, 477840, Note_on_c, 1, 42, 40
1, 478080, Note_off_c, 1, 42, 0
1, 478080, Note_on_c, 1, 43, 40
1, 478320, Note_off_c, 1, 43, 0
1, 478320, Note_on_c, 1, 45, 40
1, 478560, Note_off_c, 1, 45, 0
1, 478560, Note_on_c, 1, 47, 40
1, 478800, Note_off_c, 1, 47, 0
1, 478800, Note_on_c, 1, 49, 40
1, 479040, Note_off_c, 1, 49, 0
1, 479040, Note_on_c, 1, 50, 40
1, 479280, Note_off_c, 1, 50, 0
1, 479280, Note_on_c, 1, 38, 40
1, 479520, Note_off_c, 1, 38, 0
1, 479520, Note_on_c, 1, 38, 40
1, 479760, Note_off_c, 1, 38, 0
1, 479760, Note_on_c, 1, 42, 40
1, 480000, Note_off_c, 1, 42, 0
1, 480000, Note_on_c, 1, 43, 40
1, 480240, Note_off_c, 1, 43, 0
1, 480240, Note_on_c, 1, 45, 40
1, 480480, Note_off_c, 1, 45, 0
1, 480480, Note_on_c, 1, 47, 40
1, 480720, Note_off_c, 1, 47, 0
1, 480720, Note_on_c, 1, 49, 40
1, 480960, Note_off_c, 1, 49, 0
1, 480960, Note_on_c, 1, 50, 40
1, 481200, Note_off_c, 1, 50, 0
1, 481200, Note_on_c, 1, 38, 40
1, 481440, Note_off_c, 1, 38, 0
1, 481440, Note_on_c, 1, 38, 40
1, 481680, Note_off_c, 1, 38, 0
1, 481680, Note_on_c, 1, 42, 40
1, 481920, Note_off_c, 1, 42, 0
1, 481920, Note_on_c, 1, 43, 40
1, 482160, Note_off_c, 1, 43, 0
1, 482160, Note_on_c, 1, 45, 40
1, 482400, Note_off_c, 1, 45, 0
1, 482400, Note_on_c, 1, 47, 40
1, 482640, Note_off_c, 1, 47, 0
1, 482640, Note_on_c, 1, 49, 40
1, 482880, Note_off_c, 1, 49, 0
1, 482880, Note_on_c, 1, 50, 40
1, 483120, Note_off_c, 1, 50, 0
1, 483120, Note_on_c, 1, 38, 40
1, 483360, Note_off_c, 1, 38, 0
1, 483360, Note_on_c, 1, 38, 40
1, 483600, Note_off_c, 1, 38, 0
1, 483600, Note_on_c, 1, 42, 40
1, 483840, Note_off_c, 1, 42, 0
1, 483840, Note_on_c, 1, 43, 40
1, 484080, Note_off_c, 1, 43, 0
1, 484080, Note_on_c, 1, 45, 40
1, 484320, Note_off_c, 1, 45, 0
1, 484320, Note_on_c, 1, 47, 40
1, 484560, Note_off_c, 1, 47, 0
1, 484560, Note_on_c, 1, 49, 40
1, 484800, Note_off_c, 1, 49, 0
1, 484800, Note_on_c, 1, 50, 40
1, 485040, Note_off_c, 1, 50, 0
1, 485040, Note_on_c, 1, 38, 40
1, 485280, Note_off_c, 1, 38, 0
1, 485280, Note_on_c, 1, 38, 40
1, 485520, Note_off_c, 1, 38, 0
1, 485520, Note_on_c, 1, 42, 40
1, 485760, Note_off_c, 1, 42, 0
1, 485760, Note_on_c, 1, 43, 40
1, 486000, Note_off_c, 1, 43, 0
1, 486000, Note_on_c, 1, 45, 40
1, 486240, Note_off_c, 1, 45, 0
1, 486240, Note_on_c, 1, 47, 40
1, 486480, Note_off_c, 1, 47, 0
1, 486480, Note_on_c, 1, 49, 40
1, 486720, Note_off_c, 1, 49, 0
1, 486720, Note_on_c, 1, 50, 40
1, 486960, Note_off_c, 1, 50, 0
1, 486960, Note_on_c, 1, 38, 40
1, 487200, Note_off_c, 1, 38, 0
1, 487200, Note_on_c, 1, 38, 40
1, 487440, Note_off_c, 1, 38, 0
1, 487440, Note_on_c, 1, 42, 40
1, 487680, Note_off_c, 1, 42, 0
1, 487680, Note_on_c, 1, 43, 40
1, 487920, Note_off_c, 1, 43, 0
1, 487920, Note_on_c, 1, 45, 40
1, 488160, Note_off_c, 1, 45, 0
1, 488160, Note_on_c, 1, 47, 40
1, 488400, Note_off_c, 1, 47, 0
1, 488400, Note_on_c, 1, 49, 40
1, 488640, Note_off_c, 1, 49, 0
1, 488640, Note_on_c, 1, 50, 40
1, 488880, Note_off_c, 1, 50, 0
1, 488880, Note_on_c, 1, 38, 40
1, 489120, Note_off_c, 1, 38, 0
1, 489120, Note_on_c, 1, 38, 40
1, 489360, Note_off_c, 1, 38, 0
1, 489360, Note_on_c, 1, 42, 40
1, 489600, Note_off_c, 1, 42, 0
1, 489600, Note_on_c, 1, 43, 40
1, 489840, Note_off_c, 1, 43, 0
1, 489840, Note_on_c, 1, 45, 40
1, 490080, Note_off_c, 1, 45, 0
1, 490080, Note_on_c, 1, 47, 40
1, 490320, Note_off_c, 1, 47, 0
1, 490320, Note_on_c, 1, 49, 40
1, 490560, Note_off_c, 1, 49, 0
1, 490560, Note_on_c, 1, 50, 40
1, 490800, Note_off_c, 1, 50, 0
1, 490800, Note_on_c, 1, 38, 40
1, 491040, Note_off_c, 1, 38, 0
1, 491040, Note_on_c, 1, 38, 40
1, 491280, Note_off_c, 1, 38, 0
1, 491280, Note_on_c, 1, 42, 40
1, 491520, Note_off_c, 1, 42, 0
1, 491520, Note_on_c, 1, 43, 40
1, 491760, Note_off_c, 1, 43, 0
1, 491760, Note_on_c, 1, 45, 40
1, 492000, Note_off_c, 1, 45, 0
1, 492000, Note_on_c, 1, 47, 40
1, 492240, Note_off_c, 1, 47, 0
1, 492240, Note_on_c, 1, 49, 40
1, 492480, Note_off_c, 1, 49, 0
1, 492480, Note_on_c, 1, 50, 40
1, 492720, Note_off_c, 1, 50, 0
1, 496800, Note_on_c, 1, 35, 40
1, 497040, Note_off_c, 1, 35, 0
1, 497040, Note_on_c, 1, 44, 40
1, 497760, Note_off_c, 1, 44, 0
1, 497760, Note_on_c, 1, 44, 40
1, 498000, Note_off_c, 1, 44, 0
1, 498480, Note_on_c, 1, 35, 40
1, 498960, Note_off_c, 1, 35, 0
1, 498960, Note_on_c, 1, 44, 40
1, 499680, Note_off_c, 1, 44, 0
1, 499680, Note_on_c, 1, 44, 40
1, 499920, Note_off_c, 1, 44, 0
1, 500400, Note_on_c, 1, 35, 40
1, 500880, Note_off_c, 1, 35, 0
1, 500880, Note_on_c, 1, 47, 40
1, 501600, Note_off_c, 1, 47, 0
1, 501600, Note_on_c, 1, 47, 40
1, 501840, Note_off_c, 1, 47, 0
1, 502560, Note_on_c, 1, 35, 40
1, 502800, Note_off_c, 1, 35, 0
1, 502800, Note_on_c, 1, 47, 40
1, 503520, Note_off_c, 1, 47, 0
1, 503520, Note_on_c, 1, 47, 40
1, 503760, Note_off_c, 1, 47, 0
1, 504480, Note_on_c, 1, 35, 40
1, 504720, Note_off_c, 1, 35, 0
1, 504720, Note_on_c, 1, 44, 40
1, 505440, Note_off_c, 1, 44, 0
1, 505440, Note_on_c, 1, 44, 40
1, 505680, Note_off_c, 1, 44, 0
1, 506400, Note_on_c, 1, 35, 40
1, 506640, Note_off_c, 1, 35, 0
1, 506640, Note_on_c, 1, 44, 40
1, 507360, Note_off_c, 1, 44, 0
1, 507360, Note_on_c, 1, 44, 40
1, 507600, Note_off_c, 1, 44, 0
1, 508560, Note_on_c, 1, 42, 40
1, 509040, Note_off_c, 1, 42, 0
1, 509040, Note_on_c, 1, 42, 40
1, 509520, Note_off_c, 1, 42, 0
1, 509520, Note_on_c, 1, 37, 40
1, 510000, Note_off_c, 1, 37, 0
1, 510000, Note_on_c, 1, 37, 40
1, 510480, Note_off_c, 1, 37, 0
1, 510480, Note_on_c, 1, 42, 40
1, 511440, Note_off_c, 1, 42, 0
1, 511440, Note_on_c, 1, 37, 40
1, 511920, Note_off_c, 1, 37, 0
1, 511920, Note_on_c, 1, 42, 40
1, 512400, Note_off_c, 1, 42, 0
1, 512400, Note_on_c, 1, 33, 40
1, 513360, Note_off_c, 1, 33, 0
1, 513360, Note_on_c, 1, 33, 40
1, 513840, Note_off_c, 1, 33, 0
1, 513840, Note_on_c, 1, 36, 40
1, 514320, Note_off_c, 1, 36, 0
1, 514320, Note_on_c, 1, 40, 40
1, 515040, Note_off_c, 1, 40, 0
1, 515040, Note_on_c, 1, 35, 40
1, 515760, Note_off_c, 1, 35, 0
1, 515760, Note_on_c, 1, 35, 40
1, 516240, Note_off_c, 1, 35, 0
1, 516240, Note_on_c, 1, 40, 40
1, 516720, Note_off_c, 1, 40, 0
1, 517920, Note_on_c, 1, 35, 40
1, 518160, Note_off_c, 1, 35, 0
1, 518160, Note_on_c, 1, 44, 40
1, 518880, Note_off_c, 1, 44, 0
1, 518880, Note_on_c, 1, 44, 40
1, 519120, Note_off_c, 1, 44, 0
1, 519600, Note_on_c, 1, 35, 40
1, 520080, Note_off_c, 1, 35, 0
1, 520080, Note_on_c, 1, 44, 40
1, 520800, Note_off_c, 1, 44, 0
1, 520800, Note_on_c, 1, 44, 40
1, 521040, Note_off_c, 1, 44, 0
1, 521520, Note_on_c, 1, 35, 40
1, 522000, Note_off_c, 1, 35, 0
1, 522000, Note_on_c, 1, 47, 40
1, 522720, Note_off_c, 1, 47, 0
1, 522720, Note_on_c, 1, 47, 40
1, 522960, Note_off_c, 1, 47, 0
1, 523680, Note_on_c, 1, 35, 40
1, 523920, Note_off_c, 1, 35, 0
1, 523920, Note_on_c, 1, 47, 40
1, 524640, Note_off_c, 1, 47, 0
1, 524640, Note_on_c, 1, 47, 40
1, 524880, Note_off_c, 1, 47, 0
1, 525600, Note_on_c, 1, 35, 40
1, 525840, Note_off_c, 1, 35, 0
1, 525840, Note_on_c, 1, 44, 40
1, 526560, Note_off_c, 1, 44, 0
1, 526560, Note_on_c, 1, 44, 40
1, 526800, Note_off_c, 1, 44, 0
1, 527520, Note_on_c, 1, 35, 40
1, 527760, Note_off_c, 1, 35, 0
1, 527760, Note_on_c, 1, 44, 40
1, 528480, Note_off_c, 1, 44, 0
1, 528480, Note_on_c, 1, 44, 40
1, 528720, Note_off_c, 1, 44, 0
1, 529200, Note_on_c, 1, 40, 40
1, 529440, Note_off_c, 1, 40, 0
1, 529440, Note_on_c, 1, 37, 40
1, 529680, Note_off_c, 1, 37, 0
1, 529680, Note_on_c, 1, 42, 40
1, 530400, Note_off_c, 1, 42, 0
1, 530400, Note_on_c, 1, 37, 40
1, 530640, Note_off_c, 1, 37, 0
1, 530640, Note_on_c, 1, 37, 40
1, 531360, Note_off_c, 1, 37, 0
1, 531360, Note_on_c, 1, 42, 40
1, 531600, Note_off_c, 1, 42, 0
1, 531600, Note_on_c, 1, 42, 40
1, 532320, Note_off_c, 1, 42, 0
1, 532320, Note_on_c, 1, 37, 40
1, 532560, Note_off_c, 1, 37, 0
1, 532560, Note_on_c, 1, 37, 40
1, 532800, Note_off_c, 1, 37, 0
1, 532800, Note_on_c, 1, 37, 40
1, 533040, Note_off_c, 1, 37, 0
1, 533040, Note_on_c, 1, 42, 40
1, 533280, Note_off_c, 1, 42, 0
1, 533280, Note_on_c, 1, 37, 40
1, 533520, Note_off_c, 1, 37, 0
1, 533520, Note_on_c, 1, 33, 40
1, 534240, Note_off_c, 1, 33, 0
1, 534240, Note_on_c, 1, 36, 40
1, 534960, Note_off_c, 1, 36, 0
1, 534960, Note_on_c, 1, 40, 40
1, 535200, Note_off_c, 1, 40, 0
1, 535200, Note_on_c, 1, 36, 40
1, 535440, Note_off_c, 1, 36, 0
1, 535440, Note_on_c, 1, 40, 40
1, 536160, Note_off_c, 1, 40, 0
1, 536160, Note_on_c, 1, 35, 40
1, 536880, Note_off_c, 1, 35, 0
1, 536880, Note_on_c, 1, 35, 40
1, 537360, Note_off_c, 1, 35, 0
1, 537360, Note_on_c, 1, 40, 40
1, 538800, Note_off_c, 1, 40, 0
1, 538800, Note_on_c, 1, 40, 40
1, 539040, Note_off_c, 1, 40, 0
1, 539040, Note_on_c, 1, 35, 40
1, 539280, Note_off_c, 1, 35, 0
1, 539280, Note_on_c, 1, 33, 40
1, 540240, Note_off_c, 1, 33, 0
1, 540240, Note_on_c, 1, 37, 40
1, 540720, Note_off_c, 1, 37, 0
1, 540720, Note_on_c, 1, 40, 40
1, 541200, Note_off_c, 1, 40, 0
1, 541200, Note_on_c, 1, 33, 40
1, 542160, Note_off_c, 1, 33, 0
1, 542160, Note_on_c, 1, 37, 40
1, 542640, Note_off_c, 1, 37, 0
1, 542640, Note_on_c, 1, 40, 40
1, 543120, Note_off_c, 1, 40, 0
1, 543120, Note_on_c, 1, 37, 40
1, 544080, Note_off_c, 1, 37, 0
1, 544080, Note_on_c, 1, 32, 40
1, 544800, Note_off_c, 1, 32, 0
1, 544800, Note_on_c, 1, 32, 40
1, 545040, Note_off_c, 1, 32, 0
1, 545040, Note_on_c, 1, 37, 40
1, 545760, Note_off_c, 1, 37, 0
1, 545760, Note_on_c, 1, 32, 40
1, 546000, Note_off_c, 1, 32, 0
1, 546000, Note_on_c, 1, 32, 40
1, 546480, Note_off_c, 1, 32, 0
1, 546480, Note_on_c, 1, 37, 40
1, 546720, Note_off_c, 1, 37, 0
1, 546720, Note_on_c, 1, 32, 40
1, 546960, Note_off_c, 1, 32, 0
1, 546960, Note_on_c, 1, 33, 40
1, 547680, Note_off_c, 1, 33, 0
1, 547680, Note_on_c, 1, 33, 40
1, 547920, Note_off_c, 1, 33, 0
1, 547920, Note_on_c, 1, 33, 40
1, 548400, Note_off_c, 1, 33, 0
1, 548400, Note_on_c, 1, 37, 40
1, 548880, Note_off_c, 1, 37, 0
1, 548880, Note_on_c, 1, 40, 40
1, 549600, Note_off_c, 1, 40, 0
1, 549600, Note_on_c, 1, 37, 40
1, 550320, Note_off_c, 1, 37, 0
1, 550320, Note_on_c, 1, 40, 40
1, 550800, Note_off_c, 1, 40, 0
1, 550800, Note_on_c, 1, 33, 40
1, 551520, Note_off_c, 1, 33, 0
1, 551520, Note_on_c, 1, 37, 40
1, 552240, Note_off_c, 1, 37, 0
1, 552240, Note_on_c, 1, 40, 40
1, 552480, Note_off_c, 1, 40, 0
1, 552480, Note_on_c, 1, 37, 40
1, 552720, Note_off_c, 1, 37, 0
1, 552720, Note_on_c, 1, 40, 40
1, 553440, Note_off_c, 1, 40, 0
1, 553440, Note_on_c, 1, 35, 40
1, 553680, Note_off_c, 1, 35, 0
1, 553680, Note_on_c, 1, 35, 40
1, 554160, Note_off_c, 1, 35, 0
1, 554160, Note_on_c, 1, 35, 40
1, 554400, Note_off_c, 1, 35, 0
1, 554400, Note_on_c, 1, 39, 40
1, 554640, Note_off_c, 1, 39, 0
1, 554640, Note_on_c, 1, 40, 40
1, 554880, Note_off_c, 1, 40, 0
1, 556320, Note_on_c, 1, 35, 40
1, 556560, Note_off_c, 1, 35, 0
1, 556560, Note_on_c, 1, 44, 40
1, 557280, Note_off_c, 1, 44, 0
1, 557280, Note_on_c, 1, 44, 40
1, 558000, Note_off_c, 1, 44, 0
1, 558240, Note_on_c, 1, 35, 40
1, 558480, Note_off_c, 1, 35, 0
1, 558480, Note_on_c, 1, 44, 40
1, 559200, Note_off_c, 1, 44, 0
1, 559200, Note_on_c, 1, 44, 40
1, 559920, Note_off_c, 1, 44, 0
1, 560160, Note_on_c, 1, 35, 40
1, 560400, Note_off_c, 1, 35, 0
1, 560400, Note_on_c, 1, 47, 40
1, 561120, Note_off_c, 1, 47, 0
1, 561120, Note_on_c, 1, 47, 40
1, 562320, Note_off_c, 1, 47, 0
1, 562320, Note_on_c, 1, 47, 40
1, 563040, Note_off_c, 1, 47, 0
1, 563040, Note_on_c, 1, 47, 40
1, 564240, Note_off_c, 1, 47, 0
1, 564240, Note_on_c, 1, 44, 40
1, 564960, Note_off_c, 1, 44, 0
1, 564960, Note_on_c, 1, 44, 40
1, 566160, Note_off_c, 1, 44, 0
1, 566160, Note_on_c, 1, 44, 40
1, 566880, Note_off_c, 1, 44, 0
1, 566880, Note_on_c, 1, 44, 40
1, 567120, Note_off_c, 1, 44, 0
1, 568080, Note_on_c, 1, 42, 40
1, 568560, Note_off_c, 1, 42, 0
1, 568560, Note_on_c, 1, 42, 40
1, 569040, Note_off_c, 1, 42, 0
1, 569040, Note_on_c, 1, 37, 40
1, 569520, Note_off_c, 1, 37, 0
1, 569520, Note_on_c, 1, 37, 40
1, 570000, Note_off_c, 1, 37, 0
1, 570000, Note_on_c, 1, 42, 40
1, 570960, Note_off_c, 1, 42, 0
1, 570960, Note_on_c, 1, 37, 40
1, 571440, Note_off_c, 1, 37, 0
1, 571440, Note_on_c, 1, 42, 40
1, 571920, Note_off_c, 1, 42, 0
1, 571920, Note_on_c, 1, 33, 40
1, 572880, Note_off_c, 1, 33, 0
1, 572880, Note_on_c, 1, 33, 40
1, 573360, Note_off_c, 1, 33, 0
1, 573360, Note_on_c, 1, 36, 40
1, 573840, Note_off_c, 1, 36, 0
1, 573840, Note_on_c, 1, 40, 40
1, 574560, Note_off_c, 1, 40, 0
1, 574560, Note_on_c, 1, 35, 40
1, 575280, Note_off_c, 1, 35, 0
1, 575280, Note_on_c, 1, 35, 40
1, 575760, Note_off_c, 1, 35, 0
1, 575760, Note_on_c, 1, 40, 40
1, 577200, Note_off_c, 1, 40, 0
1, 577200, Note_on_c, 1, 40, 40
1, 577440, Note_off_c, 1, 40, 0
1, 577440, Note_on_c, 1, 35, 40
1, 577680, Note_off_c, 1, 35, 0
1, 577680, Note_on_c, 1, 33, 40
1, 578400, Note_off_c, 1, 33, 0
1, 578400, Note_on_c, 1, 37, 40
1, 579120, Note_off_c, 1, 37, 0
1, 579120, Note_on_c, 1, 40, 40
1, 579600, Note_off_c, 1, 40, 0
1, 579600, Note_on_c, 1, 33, 40
1, 580320, Note_off_c, 1, 33, 0
1, 580320, Note_on_c, 1, 37, 40
1, 581040, Note_off_c, 1, 37, 0
1, 581040, Note_on_c, 1, 40, 40
1, 581520, Note_off_c, 1, 40, 0
1, 581520, Note_on_c, 1, 37, 40
1, 582240, Note_off_c, 1, 37, 0
1, 582240, Note_on_c, 1, 44, 40
1, 582480, Note_off_c, 1, 44, 0
1, 582720, Note_on_c, 1, 44, 40
1, 582960, Note_off_c, 1, 44, 0
1, 582960, Note_on_c, 1, 37, 40
1, 583440, Note_off_c, 1, 37, 0
1, 583440, Note_on_c, 1, 37, 40
1, 584160, Note_off_c, 1, 37, 0
1, 584160, Note_on_c, 1, 44, 40
1, 584400, Note_off_c, 1, 44, 0
1, 584640, Note_on_c, 1, 44, 40
1, 584880, Note_off_c, 1, 44, 0
1, 584880, Note_on_c, 1, 37, 40
1, 585360, Note_off_c, 1, 37, 0
1, 585360, Note_on_c, 1, 33, 40
1, 586080, Note_off_c, 1, 33, 0
1, 586080, Note_on_c, 1, 37, 40
1, 586320, Note_off_c, 1, 37, 0
1, 586560, Note_on_c, 1, 37, 40
1, 586800, Note_off_c, 1, 37, 0
1, 586800, Note_on_c, 1, 40, 40
1, 587280, Note_off_c, 1, 40, 0
1, 587280, Note_on_c, 1, 40, 40
1, 588000, Note_off_c, 1, 40, 0
1, 588000, Note_on_c, 1, 37, 40
1, 588720, Note_off_c, 1, 37, 0
1, 588720, Note_on_c, 1, 40, 40
1, 589200, Note_off_c, 1, 40, 0
1, 589200, Note_on_c, 1, 33, 40
1, 589920, Note_off_c, 1, 33, 0
1, 589920, Note_on_c, 1, 37, 40
1, 590640, Note_off_c, 1, 37, 0
1, 590640, Note_on_c, 1, 40, 40
1, 590880, Note_off_c, 1, 40, 0
1, 590880, Note_on_c, 1, 37, 40
1, 591120, Note_off_c, 1, 37, 0
1, 591120, Note_on_c, 1, 40, 40
1, 591840, Note_off_c, 1, 40, 0
1, 591840, Note_on_c, 1, 35, 40
1, 592080, Note_off_c, 1, 35, 0
1, 592080, Note_on_c, 1, 35, 40
1, 592560, Note_off_c, 1, 35, 0
1, 592560, Note_on_c, 1, 35, 40
1, 592800, Note_off_c, 1, 35, 0
1, 592800, Note_on_c, 1, 39, 40
1, 593040, Note_off_c, 1, 39, 0
1, 593040, Note_on_c, 1, 40, 40
1, 593760, Note_off_c, 1, 40, 0
1, 593760, Note_on_c, 1, 35, 40
1, 594480, Note_off_c, 1, 35, 0
1, 594480, Note_on_c, 1, 40, 40
1, 594960, Note_off_c, 1, 40, 0
1, 594960, Note_on_c, 1, 33, 40
1, 595680, Note_off_c, 1, 33, 0
1, 595680, Note_on_c, 1, 37, 40
1, 596400, Note_off_c, 1, 37, 0
1, 596400, Note_on_c, 1, 40, 40
1, 596880, Note_off_c, 1, 40, 0
1, 596880, Note_on_c, 1, 40, 40
1, 597600, Note_off_c, 1, 40, 0
1, 597600, Note_on_c, 1, 35, 40
1, 598320, Note_off_c, 1, 35, 0
1, 598320, Note_on_c, 1, 35, 40
1, 598800, Note_off_c, 1, 35, 0
1, 598800, Note_on_c, 1, 40, 40
1, 599040, Note_off_c, 1, 40, 0
1, 600480, Note_on_c, 1, 40, 40
1, 600720, Note_off_c, 1, 40, 0
1, 600720, Note_on_c, 1, 44, 40
1, 601440, Note_off_c, 1, 44, 0
1, 601440, Note_on_c, 1, 44, 40
1, 602160, Note_off_c, 1, 44, 0
1, 602400, Note_on_c, 1, 35, 40
1, 602640, Note_off_c, 1, 35, 0
1, 602640, Note_on_c, 1, 44, 40
1, 603360, Note_off_c, 1, 44, 0
1, 603360, Note_on_c, 1, 44, 40
1, 604080, Note_off_c, 1, 44, 0
1, 604320, Note_on_c, 1, 35, 40
1, 604560, Note_off_c, 1, 35, 0
1, 604560, Note_on_c, 1, 47, 40
1, 605280, Note_off_c, 1, 47, 0
1, 605280, Note_on_c, 1, 47, 40
1, 606480, Note_off_c, 1, 47, 0
1, 606480, Note_on_c, 1, 47, 40
1, 607200, Note_off_c, 1, 47, 0
1, 607200, Note_on_c, 1, 47, 40
1, 608400, Note_off_c, 1, 47, 0
1, 613680, Note_on_c, 1, 30, 40
1, 614400, Note_off_c, 1, 30, 0
1, 614400, Note_on_c, 1, 30, 40
1, 614640, Note_off_c, 1, 30, 0
1, 614640, Note_on_c, 1, 30, 40
1, 614880, Note_off_c, 1, 30, 0
1, 614880, Note_on_c, 1, 30, 40
1, 615600, Note_off_c, 1, 30, 0
1, 615600, Note_on_c, 1, 30, 40
1, 616320, Note_off_c, 1, 30, 0
1, 616320, Note_on_c, 1, 30, 40
1, 616560, Note_off_c, 1, 30, 0
1, 616560, Note_on_c, 1, 30, 40
1, 616800, Note_off_c, 1, 30, 0
1, 616800, Note_on_c, 1, 30, 40
1, 617520, Note_off_c, 1, 30, 0
1, 617520, Note_on_c, 1, 28, 40
1, 618240, Note_off_c, 1, 28, 0
1, 618240, Note_on_c, 1, 28, 40
1, 618480, Note_off_c, 1, 28, 0
1, 618480, Note_on_c, 1, 28, 40
1, 618720, Note_off_c, 1, 28, 0
1, 618720, Note_on_c, 1, 28, 40
1, 619440, Note_off_c, 1, 28, 0
1, 619440, Note_on_c, 1, 28, 40
1, 620160, Note_off_c, 1, 28, 0
1, 620160, Note_on_c, 1, 28, 40
1, 620400, Note_off_c, 1, 28, 0
1, 620400, Note_on_c, 1, 28, 40
1, 620640, Note_off_c, 1, 28, 0
1, 620640, Note_on_c, 1, 28, 40
1, 621360, Note_off_c, 1, 28, 0
1, 621360, Note_on_c, 1, 30, 40
1, 622080, Note_off_c, 1, 30, 0
1, 622080, Note_on_c, 1, 30, 40
1, 622320, Note_off_c, 1, 30, 0
1, 622320, Note_on_c, 1, 30, 40
1, 622560, Note_off_c, 1, 30, 0
1, 622560, Note_on_c, 1, 30, 40
1, 623280, Note_off_c, 1, 30, 0
1, 623280, Note_on_c, 1, 37, 40
1, 624000, Note_off_c, 1, 37, 0
1, 624000, Note_on_c, 1, 37, 40
1, 624240, Note_off_c, 1, 37, 0
1, 624240, Note_on_c, 1, 37, 40
1, 624480, Note_off_c, 1, 37, 0
1, 624480, Note_on_c, 1, 37, 40
1, 625200, Note_off_c, 1, 37, 0
1, 625200, Note_on_c, 1, 30, 40
1, 625920, Note_off_c, 1, 30, 0
1, 625920, Note_on_c, 1, 30, 40
1, 626160, Note_off_c, 1, 30, 0
1, 626160, Note_on_c, 1, 30, 40
1, 626400, Note_off_c, 1, 30, 0
1, 626400, Note_on_c, 1, 30, 40
1, 627120, Note_off_c, 1, 30, 0
1, 627120, Note_on_c, 1, 37, 40
1, 627840, Note_off_c, 1, 37, 0
1, 627840, Note_on_c, 1, 37, 40
1, 628080, Note_off_c, 1, 37, 0
1, 628080, Note_on_c, 1, 37, 40
1, 628320, Note_off_c, 1, 37, 0
1, 628320, Note_on_c, 1, 37, 40
1, 629040, Note_off_c, 1, 37, 0
1, 629040, Note_on_c, 1, 30, 40
1, 629760, Note_off_c, 1, 30, 0
1, 629760, Note_on_c, 1, 30, 40
1, 630000, Note_off_c, 1, 30, 0
1, 630000, Note_on_c, 1, 30, 40
1, 630240, Note_off_c, 1, 30, 0
1, 630240, Note_on_c, 1, 30, 40
1, 630960, Note_off_c, 1, 30, 0
1, 630960, Note_on_c, 1, 37, 40
1, 631680, Note_off_c, 1, 37, 0
1, 631680, Note_on_c, 1, 37, 40
1, 631920, Note_off_c, 1, 37, 0
1, 631920, Note_on_c, 1, 37, 40
1, 632160, Note_off_c, 1, 37, 0
1, 632160, Note_on_c, 1, 37, 40
1, 632880, Note_off_c, 1, 37, 0
1, 632880, Note_on_c, 1, 33, 40
1, 633600, Note_off_c, 1, 33, 0
1, 633600, Note_on_c, 1, 37, 40
1, 634320, Note_off_c, 1, 37, 0
1, 634320, Note_on_c, 1, 40, 40
1, 634800, Note_off_c, 1, 40, 0
1, 634800, Note_on_c, 1, 35, 40
1, 635520, Note_off_c, 1, 35, 0
1, 635520, Note_on_c, 1, 39, 40
1, 636240, Note_off_c, 1, 39, 0
1, 636240, Note_on_c, 1, 42, 40
1, 636720, Note_off_c, 1, 42, 0
1, 636720, Note_on_c, 1, 40, 40
1, 637440, Note_off_c, 1, 40, 0
1, 637440, Note_on_c, 1, 47, 40
1, 638160, Note_off_c, 1, 47, 0
1, 638160, Note_on_c, 1, 35, 40
1, 638640, Note_off_c, 1, 35, 0
1, 638640, Note_on_c, 1, 40, 40
1, 639360, Note_off_c, 1, 40, 0
1, 639360, Note_on_c, 1, 47, 40
1, 640080, Note_off_c, 1, 47, 0
1, 640080, Note_on_c, 1, 35, 40
1, 640560, Note_off_c, 1, 35, 0
1, 640560, Note_on_c, 1, 30, 40
1, 641280, Note_off_c, 1, 30, 0
1, 641280, Note_on_c, 1, 30, 40
1, 641520, Note_off_c, 1, 30, 0
1, 641520, Note_on_c, 1, 30, 40
1, 641760, Note_off_c, 1, 30, 0
1, 641760, Note_on_c, 1, 30, 40
1, 642480, Note_off_c, 1, 30, 0
1, 642480, Note_on_c, 1, 37, 40
1, 643200, Note_off_c, 1, 37, 0
1, 643200, Note_on_c, 1, 37, 40
1, 643440, Note_off_c, 1, 37, 0
1, 643440, Note_on_c, 1, 37, 40
1, 643680, Note_off_c, 1, 37, 0
1, 643680, Note_on_c, 1, 37, 40
1, 644400, Note_off_c, 1, 37, 0
1, 644400, Note_on_c, 1, 30, 40
1, 645120, Note_off_c, 1, 30, 0
1, 645120, Note_on_c, 1, 30, 40
1, 645360, Note_off_c, 1, 30, 0
1, 645360, Note_on_c, 1, 30, 40
1, 645600, Note_off_c, 1, 30, 0
1, 645600, Note_on_c, 1, 30, 40
1, 646320, Note_off_c, 1, 30, 0
1, 646320, Note_on_c, 1, 37, 40
1, 647040, Note_off_c, 1, 37, 0
1, 647040, Note_on_c, 1, 37, 40
1, 647280, Note_off_c, 1, 37, 0
1, 647280, Note_on_c, 1, 37, 40
1, 647520, Note_off_c, 1, 37, 0
1, 647520, Note_on_c, 1, 37, 40
1, 648240, Note_off_c, 1, 37, 0
1, 648240, Note_on_c, 1, 30, 40
1, 648960, Note_off_c, 1, 30, 0
1, 648960, Note_on_c, 1, 30, 40
1, 649200, Note_off_c, 1, 30, 0
1, 649200, Note_on_c, 1, 30, 40
1, 649440, Note_off_c, 1, 30, 0
1, 649440, Note_on_c, 1, 30, 40
1, 650160, Note_off_c, 1, 30, 0
1, 650160, Note_on_c, 1, 37, 40
1, 650880, Note_off_c, 1, 37, 0
1, 650880, Note_on_c, 1, 37, 40
1, 651120, Note_off_c, 1, 37, 0
1, 651120, Note_on_c, 1, 37, 40
1, 651360, Note_off_c, 1, 37, 0
1, 651360, Note_on_c, 1, 37, 40
1, 652080, Note_off_c, 1, 37, 0
1, 652080, Note_on_c, 1, 33, 40
1, 652800, Note_off_c, 1, 33, 0
1, 652800, Note_on_c, 1, 37, 40
1, 653520, Note_off_c, 1, 37, 0
1, 653520, Note_on_c, 1, 40, 40
1, 654000, Note_off_c, 1, 40, 0
1, 654000, Note_on_c, 1, 35, 40
1, 654720, Note_off_c, 1, 35, 0
1, 654720, Note_on_c, 1, 39, 40
1, 655440, Note_off_c, 1, 39, 0
1, 655440, Note_on_c, 1, 42, 40
1, 655920, Note_off_c, 1, 42, 0
1, 655920, Note_on_c, 1, 40, 40
1, 656640, Note_off_c, 1, 40, 0
1, 656640, Note_on_c, 1, 47, 40
1, 657360, Note_off_c, 1, 47, 0
1, 657360, Note_on_c, 1, 35, 40
1, 657840, Note_off_c, 1, 35, 0
1, 657840, Note_on_c, 1, 40, 40
1, 658560, Note_off_c, 1, 40, 0
1, 658560, Note_on_c, 1, 47, 40
1, 659280, Note_off_c, 1, 47, 0
1, 659280, Note_on_c, 1, 35, 40
1, 659760, Note_off_c, 1, 35, 0
1, 659760, Note_on_c, 1, 37, 40
1, 660480, Note_off_c, 1, 37, 0
1, 660480, Note_on_c, 1, 37, 40
1, 661200, Note_off_c, 1, 37, 0
1, 661200, Note_on_c, 1, 37, 40
1, 661680, Note_off_c, 1, 37, 0
1, 661680, Note_on_c, 1, 35, 40
1, 662400, Note_off_c, 1, 35, 0
1, 662400, Note_on_c, 1, 35, 40
1, 663120, Note_off_c, 1, 35, 0
1, 663120, Note_on_c, 1, 35, 40
1, 663600, Note_off_c, 1, 35, 0
1, 663600, Note_on_c, 1, 37, 40
1, 664320, Note_off_c, 1, 37, 0
1, 664320, Note_on_c, 1, 37, 40
1, 665040, Note_off_c, 1, 37, 0
1, 665040, Note_on_c, 1, 37, 40
1, 665520, Note_off_c, 1, 37, 0
1, 665520, Note_on_c, 1, 32, 40
1, 666240, Note_off_c, 1, 32, 0
1, 666240, Note_on_c, 1, 32, 40
1, 666960, Note_off_c, 1, 32, 0
1, 666960, Note_on_c, 1, 32, 40
1, 667440, Note_off_c, 1, 32, 0
1, 667440, Note_on_c, 1, 37, 40
1, 668160, Note_off_c, 1, 37, 0
1, 668160, Note_on_c, 1, 37, 40
1, 668880, Note_off_c, 1, 37, 0
1, 668880, Note_on_c, 1, 37, 40
1, 669360, Note_off_c, 1, 37, 0
1, 669360, Note_on_c, 1, 32, 40
1, 670080, Note_off_c, 1, 32, 0
1, 670080, Note_on_c, 1, 32, 40
1, 670800, Note_off_c, 1, 32, 0
1, 670800, Note_on_c, 1, 32, 40
1, 671280, Note_off_c, 1, 32, 0
1, 671280, Note_on_c, 1, 35, 40
1, 672000, Note_off_c, 1, 35, 0
1, 672000, Note_on_c, 1, 35, 40
1, 672720, Note_off_c, 1, 35, 0
1, 672720, Note_on_c, 1, 35, 40
1, 673200, Note_off_c, 1, 35, 0
1, 673200, Note_on_c, 1, 35, 40
1, 673920, Note_off_c, 1, 35, 0
1, 673920, Note_on_c, 1, 35, 40
1, 674640, Note_off_c, 1, 35, 0
1, 674640, Note_on_c, 1, 35, 40
1, 675120, Note_off_c, 1, 35, 0
1, 675120, Note_on_c, 1, 30, 40
1, 675840, Note_off_c, 1, 30, 0
1, 675840, Note_on_c, 1, 30, 40
1, 676080, Note_off_c, 1, 30, 0
1, 676080, Note_on_c, 1, 30, 40
1, 676320, Note_off_c, 1, 30, 0
1, 676320, Note_on_c, 1, 30, 40
1, 677040, Note_off_c, 1, 30, 0
1, 677040, Note_on_c, 1, 37, 40
1, 677760, Note_off_c, 1, 37, 0
1, 677760, Note_on_c, 1, 37, 40
1, 678000, Note_off_c, 1, 37, 0
1, 678000, Note_on_c, 1, 37, 40
1, 678240, Note_off_c, 1, 37, 0
1, 678240, Note_on_c, 1, 37, 40
1, 678960, Note_off_c, 1, 37, 0
1, 678960, Note_on_c, 1, 30, 40
1, 679680, Note_off_c, 1, 30, 0
1, 679680, Note_on_c, 1, 30, 40
1, 679920, Note_off_c, 1, 30, 0
1, 679920, Note_on_c, 1, 30, 40
1, 680160, Note_off_c, 1, 30, 0
1, 680160, Note_on_c, 1, 30, 40
1, 680880, Note_off_c, 1, 30, 0
1, 680880, Note_on_c, 1, 37, 40
1, 681600, Note_off_c, 1, 37, 0
1, 681600, Note_on_c, 1, 37, 40
1, 681840, Note_off_c, 1, 37, 0
1, 681840, Note_on_c, 1, 37, 40
1, 682080, Note_off_c, 1, 37, 0
1, 682080, Note_on_c, 1, 37, 40
1, 682800, Note_off_c, 1, 37, 0
1, 682800, Note_on_c, 1, 30, 40
1, 683520, Note_off_c, 1, 30, 0
1, 683520, Note_on_c, 1, 30, 40
1, 683760, Note_off_c, 1, 30, 0
1, 683760, Note_on_c, 1, 30, 40
1, 684000, Note_off_c, 1, 30, 0
1, 684000, Note_on_c, 1, 30, 40
1, 684720, Note_off_c, 1, 30, 0
1, 684720, Note_on_c, 1, 37, 40
1, 685440, Note_off_c, 1, 37, 0
1, 685440, Note_on_c, 1, 37, 40
1, 685680, Note_off_c, 1, 37, 0
1, 685680, Note_on_c, 1, 37, 40
1, 685920, Note_off_c, 1, 37, 0
1, 685920, Note_on_c, 1, 37, 40
1, 686640, Note_off_c, 1, 37, 0
1, 686640, Note_on_c, 1, 33, 40
1, 687360, Note_off_c, 1, 33, 0
1, 687360, Note_on_c, 1, 37, 40
1, 688080, Note_off_c, 1, 37, 0
1, 688080, Note_on_c, 1, 40, 40
1, 688560, Note_off_c, 1, 40, 0
1, 688560, Note_on_c, 1, 35, 40
1, 689280, Note_off_c, 1, 35, 0
1, 689280, Note_on_c, 1, 39, 40
1, 690000, Note_off_c, 1, 39, 0
1, 690000, Note_on_c, 1, 42, 40
1, 690480, Note_off_c, 1, 42, 0
1, 690480, Note_on_c, 1, 40, 40
1, 691200, Note_off_c, 1, 40, 0
1, 691200, Note_on_c, 1, 47, 40
1, 691920, Note_off_c, 1, 47, 0
1, 691920, Note_on_c, 1, 35, 40
1, 692400, Note_off_c, 1, 35, 0
1, 692400, Note_on_c, 1, 40, 40
1, 693120, Note_off_c, 1, 40, 0
1, 693120, Note_on_c, 1, 47, 40
1, 693840, Note_off_c, 1, 47, 0
1, 693840, Note_on_c, 1, 35, 40
1, 694320, Note_off_c, 1, 35, 0
1, 694320, Note_on_c, 1, 31, 40
1, 695040, Note_off_c, 1, 31, 0
1, 695040, Note_on_c, 1, 31, 40
1, 695280, Note_off_c, 1, 31, 0
1, 695280, Note_on_c, 1, 31, 40
1, 695520, Note_off_c, 1, 31, 0
1, 695520, Note_on_c, 1, 31, 40
1, 696240, Note_off_c, 1, 31, 0
1, 696240, Note_on_c, 1, 38, 40
1, 696960, Note_off_c, 1, 38, 0
1, 696960, Note_on_c, 1, 38, 40
1, 697200, Note_off_c, 1, 38, 0
1, 697200, Note_on_c, 1, 38, 40
1, 697440, Note_off_c, 1, 38, 0
1, 697440, Note_on_c, 1, 38, 40
1, 698160, Note_off_c, 1, 38, 0
1, 698160, Note_on_c, 1, 31, 40
1, 698880, Note_off_c, 1, 31, 0
1, 698880, Note_on_c, 1, 31, 40
1, 699120, Note_off_c, 1, 31, 0
1, 699120, Note_on_c, 1, 31, 40
1, 699360, Note_off_c, 1, 31, 0
1, 699360, Note_on_c, 1, 31, 40
1, 700080, Note_off_c, 1, 31, 0
1, 700080, Note_on_c, 1, 38, 40
1, 700800, Note_off_c, 1, 38, 0
1, 700800, Note_on_c, 1, 38, 40
1, 701040, Note_off_c, 1, 38, 0
1, 701040, Note_on_c, 1, 38, 40
1, 701280, Note_off_c, 1, 38, 0
1, 701280, Note_on_c, 1, 38, 40
1, 702000, Note_off_c, 1, 38, 0
1, 702000, Note_on_c, 1, 31, 40
1, 702720, Note_off_c, 1, 31, 0
1, 702720, Note_on_c, 1, 31, 40
1, 702960, Note_off_c, 1, 31, 0
1, 702960, Note_on_c, 1, 31, 40
1, 703200, Note_off_c, 1, 31, 0
1, 703200, Note_on_c, 1, 31, 40
1, 703920, Note_off_c, 1, 31, 0
1, 703920, Note_on_c, 1, 38, 40
1, 704640, Note_off_c, 1, 38, 0
1, 704640, Note_on_c, 1, 38, 40
1, 704880, Note_off_c, 1, 38, 0
1, 704880, Note_on_c, 1, 38, 40
1, 705120, Note_off_c, 1, 38, 0
1, 705120, Note_on_c, 1, 38, 40
1, 705840, Note_off_c, 1, 38, 0
1, 705840, Note_on_c, 1, 34, 40
1, 706560, Note_off_c, 1, 34, 0
1, 706560, Note_on_c, 1, 38, 40
1, 707280, Note_off_c, 1, 38, 0
1, 707280, Note_on_c, 1, 41, 40
1, 707760, Note_off_c, 1, 41, 0
1, 707760, Note_on_c, 1, 36, 40
1, 708480, Note_off_c, 1, 36, 0
1, 708480, Note_on_c, 1, 40, 40
1, 709200, Note_off_c, 1, 40, 0
1, 709200, Note_on_c, 1, 43, 40
1, 709680, Note_off_c, 1, 43, 0
1, 709680, Note_on_c, 1, 41, 40
1, 710400, Note_off_c, 1, 41, 0
1, 710400, Note_on_c, 1, 48, 40
1, 711120, Note_off_c, 1, 48, 0
1, 711120, Note_on_c, 1, 36, 40
1, 711600, Note_off_c, 1, 36, 0
1, 711600, Note_on_c, 1, 41, 40
1, 712320, Note_off_c, 1, 41, 0
1, 712320, Note_on_c, 1, 48, 40
1, 713040, Note_off_c, 1, 48, 0
1, 713040, Note_on_c, 1, 36, 40
1, 713520, Note_off_c, 1, 36, 0
1, 713520, Note_on_c, 1, 31, 40
1, 714240, Note_off_c, 1, 31, 0
1, 714240, Note_on_c, 1, 31, 40
1, 714480, Note_off_c, 1, 31, 0
1, 714480, Note_on_c, 1, 31, 40
1, 714720, Note_off_c, 1, 31, 0
1, 714720, Note_on_c, 1, 31, 40
1, 715440, Note_off_c, 1, 31, 0
1, 715440, Note_on_c, 1, 38, 40
1, 716160, Note_off_c, 1, 38, 0
1, 716160, Note_on_c, 1, 38, 40
1, 716400, Note_off_c, 1, 38, 0
1, 716400, Note_on_c, 1, 38, 40
1, 716640, Note_off_c, 1, 38, 0
1, 716640, Note_on_c, 1, 38, 40
1, 717360, Note_off_c, 1, 38, 0
1, 717360, Note_on_c, 1, 31, 40
1, 718080, Note_off_c, 1, 31, 0
1, 718080, Note_on_c, 1, 31, 40
1, 718320, Note_off_c, 1, 31, 0
1, 718320, Note_on_c, 1, 31, 40
1, 718560, Note_off_c, 1, 31, 0
1, 718560, Note_on_c, 1, 31, 40
1, 719280, Note_off_c, 1, 31, 0
1, 719280, Note_on_c, 1, 38, 40
1, 720000, Note_off_c, 1, 38, 0
1, 720000, Note_on_c, 1, 38, 40
1, 720240, Note_off_c, 1, 38, 0
1, 720240, Note_on_c, 1, 38, 40
1, 720480, Note_off_c, 1, 38, 0
1, 720480, Note_on_c, 1, 38, 40
1, 721200, Note_off_c, 1, 38, 0
1, 721200, Note_on_c, 1, 31, 40
1, 721920, Note_off_c, 1, 31, 0
1, 721920, Note_on_c, 1, 31, 40
1, 722160, Note_off_c, 1, 31, 0
1, 722160, Note_on_c, 1, 31, 40
1, 722400, Note_off_c, 1, 31, 0
1, 722400, Note_on_c, 1, 31, 40
1, 723120, Note_off_c, 1, 31, 0
1, 723120, Note_on_c, 1, 38, 40
1, 723840, Note_off_c, 1, 38, 0
1, 723840, Note_on_c, 1, 38, 40
1, 724080, Note_off_c, 1, 38, 0
1, 724080, Note_on_c, 1, 38, 40
1, 724320, Note_off_c, 1, 38, 0
1, 724320, Note_on_c, 1, 38, 40
1, 725040, Note_off_c, 1, 38, 0
1, 725040, Note_on_c, 1, 34, 40
1, 725760, Note_off_c, 1, 34, 0
1, 725760, Note_on_c, 1, 38, 40
1, 726480, Note_off_c, 1, 38, 0
1, 726480, Note_on_c, 1, 41, 40
1, 726960, Note_off_c, 1, 41, 0
1, 726960, Note_on_c, 1, 36, 40
1, 727680, Note_off_c, 1, 36, 0
1, 727680, Note_on_c, 1, 40, 40
1, 728400, Note_off_c, 1, 40, 0
1, 728400, Note_on_c, 1, 43, 40
1, 728880, Note_off_c, 1, 43, 0
1, 728880, Note_on_c, 1, 41, 40
1, 729600, Note_off_c, 1, 41, 0
1, 729600, Note_on_c, 1, 48, 40
1, 730320, Note_off_c, 1, 48, 0
1, 730320, Note_on_c, 1, 36, 40
1, 730800, Note_off_c, 1, 36, 0
1, 730800, Note_on_c, 1, 41, 40
1, 731520, Note_off_c, 1, 41, 0
1, 731520, Note_on_c, 1, 48, 40
1, 732240, Note_off_c, 1, 48, 0
1, 732240, Note_on_c, 1, 36, 40
1, 732720, Note_off_c, 1, 36, 0
1, 732720, Note_on_c, 1, 31, 40
1, 733440, Note_off_c, 1, 31, 0
1, 733440, Note_on_c, 1, 31, 40
1, 733680, Note_off_c, 1, 31, 0
1, 733680, Note_on_c, 1, 31, 40
1, 733920, Note_off_c, 1, 31, 0
1, 733920, Note_on_c, 1, 31, 40
1, 734640, Note_off_c, 1, 31, 0
1, 734640, Note_on_c, 1, 31, 40
1, 735360, Note_off_c, 1, 31, 0
1, 735360, Note_on_c, 1, 31, 40
1, 735600, Note_off_c, 1, 31, 0
1, 735600, Note_on_c, 1, 31, 40
1, 735840, Note_off_c, 1, 31, 0
1, 735840, Note_on_c, 1, 31, 40
1, 736560, Note_off_c, 1, 31, 0
1, 736560, Note_on_c, 1, 29, 40
1, 737280, Note_off_c, 1, 29, 0
1, 737280, Note_on_c, 1, 29, 40
1, 737520, Note_off_c, 1, 29, 0
1, 737520, Note_on_c, 1, 29, 40
1, 737760, Note_off_c, 1, 29, 0
1, 737760, Note_on_c, 1, 29, 40
1, 738480, Note_off_c, 1, 29, 0
1, 738480, Note_on_c, 1, 29, 40
1, 739200, Note_off_c, 1, 29, 0
1, 739200, Note_on_c, 1, 29, 40
1, 739440, Note_off_c, 1, 29, 0
1, 739440, Note_on_c, 1, 29, 40
1, 739680, Note_off_c, 1, 29, 0
1, 739680, Note_on_c, 1, 29, 40
1, 740400, Note_off_c, 1, 29, 0
1, 740400, Note_on_c, 1, 31, 40
1, 741120, Note_off_c, 1, 31, 0
1, 741120, Note_on_c, 1, 31, 40
1, 741360, Note_off_c, 1, 31, 0
1, 741360, Note_on_c, 1, 31, 40
1, 741600, Note_off_c, 1, 31, 0
1, 741600, Note_on_c, 1, 31, 40
1, 742320, Note_off_c, 1, 31, 0
1, 742320, Note_on_c, 1, 31, 40
1, 743040, Note_off_c, 1, 31, 0
1, 743040, Note_on_c, 1, 31, 40
1, 743280, Note_off_c, 1, 31, 0
1, 743280, Note_on_c, 1, 31, 40
1, 743520, Note_off_c, 1, 31, 0
1, 743520, Note_on_c, 1, 31, 40
1, 744240, Note_off_c, 1, 31, 0
1, 744240, Note_on_c, 1, 38, 40
1, 746160, Note_off_c, 1, 38, 0
1, 746160, Note_on_c, 1, 38, 40
1, 747120, Note_off_c, 1, 38, 0
1, 751920, Note_on_c, 1, 40, 40
1, 752160, Note_off_c, 1, 40, 0
1, 752400, Note_on_c, 1, 40, 40
1, 752880, Note_off_c, 1, 40, 0
1, 752880, Note_on_c, 1, 35, 40
1, 753120, Note_off_c, 1, 35, 0
1, 753120, Note_on_c, 1, 35, 40
1, 753360, Note_off_c, 1, 35, 0
1, 753360, Note_on_c, 1, 37, 40
1, 753600, Note_off_c, 1, 37, 0
1, 753600, Note_on_c, 1, 40, 40
1, 753840, Note_off_c, 1, 40, 0
1, 753840, Note_on_c, 1, 40, 40
1, 754080, Note_off_c, 1, 40, 0
1, 754320, Note_on_c, 1, 40, 40
1, 754800, Note_off_c, 1, 40, 0
1, 754800, Note_on_c, 1, 35, 40
1, 755040, Note_off_c, 1, 35, 0
1, 755040, Note_on_c, 1, 34, 40
1, 755280, Note_off_c, 1, 34, 0
1, 755280, Note_on_c, 1, 37, 40
1, 755520, Note_off_c, 1, 37, 0
1, 755520, Note_on_c, 1, 39, 40
1, 755760, Note_off_c, 1, 39, 0
1, 755760, Note_on_c, 1, 40, 40
1, 756000, Note_off_c, 1, 40, 0
1, 756240, Note_on_c, 1, 40, 40
1, 756720, Note_off_c, 1, 40, 0
1, 756720, Note_on_c, 1, 35, 40
1, 756960, Note_off_c, 1, 35, 0
1, 756960, Note_on_c, 1, 34, 40
1, 757200, Note_off_c, 1, 34, 0
1, 757200, Note_on_c, 1, 37, 40
1, 757440, Note_off_c, 1, 37, 0
1, 757440, Note_on_c, 1, 39, 40
1, 757680, Note_off_c, 1, 39, 0
1, 757680, Note_on_c, 1, 40, 40
1, 757920, Note_off_c, 1, 40, 0
1, 758160, Note_on_c, 1, 40, 40
1, 758640, Note_off_c, 1, 40, 0
1, 758640, Note_on_c, 1, 35, 40
1, 758880, Note_off_c, 1, 35, 0
1, 758880, Note_on_c, 1, 35, 40
1, 759120, Note_off_c, 1, 35, 0
1, 759120, Note_on_c, 1, 37, 40
1, 759360, Note_off_c, 1, 37, 0
1, 759360, Note_on_c, 1, 39, 40
1, 759600, Note_off_c, 1, 39, 0
1, 759600, Note_on_c, 1, 40, 40
1, 759840, Note_off_c, 1, 40, 0
1, 760080, Note_on_c, 1, 40, 40
1, 760560, Note_off_c, 1, 40, 0
1, 760560, Note_on_c, 1, 35, 40
1, 760800, Note_off_c, 1, 35, 0
1, 760800, Note_on_c, 1, 35, 40
1, 761040, Note_off_c, 1, 35, 0
1, 761040, Note_on_c, 1, 37, 40
1, 761280, Note_off_c, 1, 37, 0
1, 761280, Note_on_c, 1, 39, 40
1, 761520, Note_off_c, 1, 39, 0
1, 761520, Note_on_c, 1, 40, 40
1, 761760, Note_off_c, 1, 40, 0
1, 762000, Note_on_c, 1, 40, 40
1, 762480, Note_off_c, 1, 40, 0
1, 762480, Note_on_c, 1, 35, 40
1, 762720, Note_off_c, 1, 35, 0
1, 762720, Note_on_c, 1, 35, 40
1, 762960, Note_off_c, 1, 35, 0
1, 762960, Note_on_c, 1, 37, 40
1, 763200, Note_off_c, 1, 37, 0
1, 763200, Note_on_c, 1, 39, 40
1, 763440, Note_off_c, 1, 39, 0
1, 763440, Note_on_c, 1, 40, 40
1, 763680, Note_off_c, 1, 40, 0
1, 763920, Note_on_c, 1, 40, 40
1, 764400, Note_off_c, 1, 40, 0
1, 764400, Note_on_c, 1, 35, 40
1, 764640, Note_off_c, 1, 35, 0
1, 764640, Note_on_c, 1, 35, 40
1, 764880, Note_off_c, 1, 35, 0
1, 764880, Note_on_c, 1, 37, 40
1, 765120, Note_off_c, 1, 37, 0
1, 765120, Note_on_c, 1, 40, 40
1, 765600, Note_off_c, 1, 40, 0
1, 765840, Note_on_c, 1, 40, 40
1, 766320, Note_off_c, 1, 40, 0
1, 766320, Note_on_c, 1, 35, 40
1, 766560, Note_off_c, 1, 35, 0
1, 766560, Note_on_c, 1, 39, 40
1, 766800, Note_off_c, 1, 39, 0
1, 766800, Note_on_c, 1, 40, 40
1, 767040, Note_off_c, 1, 40, 0
1, 767040, Note_on_c, 1, 35, 40
1, 767280, Note_off_c, 1, 35, 0
1, 767280, Note_on_c, 1, 42, 40
1, 767520, Note_off_c, 1, 42, 0
1, 767760, Note_on_c, 1, 42, 40
1, 768240, Note_off_c, 1, 42, 0
1, 768240, Note_on_c, 1, 37, 40
1, 768480, Note_off_c, 1, 37, 0
1, 768480, Note_on_c, 1, 37, 40
1, 768720, Note_off_c, 1, 37, 0
1, 768720, Note_on_c, 1, 40, 40
1, 768960, Note_off_c, 1, 40, 0
1, 768960, Note_on_c, 1, 42, 40
1, 769200, Note_off_c, 1, 42, 0
1, 769200, Note_on_c, 1, 45, 40
1, 769680, Note_off_c, 1, 45, 0
1, 769680, Note_on_c, 1, 44, 40
1, 770160, Note_off_c, 1, 44, 0
1, 770160, Note_on_c, 1, 42, 40
1, 770640, Note_off_c, 1, 42, 0
1, 770640, Note_on_c, 1, 42, 40
1, 771120, Note_off_c, 1, 42, 0
1, 771120, Note_on_c, 1, 40, 40
1, 771360, Note_off_c, 1, 40, 0
1, 771600, Note_on_c, 1, 40, 40
1, 772080, Note_off_c, 1, 40, 0
1, 772080, Note_on_c, 1, 44, 40
1, 772320, Note_off_c, 1, 44, 0
1, 772320, Note_on_c, 1, 45, 40
1, 772560, Note_off_c, 1, 45, 0
1, 772560, Note_on_c, 1, 46, 40
1, 772800, Note_off_c, 1, 46, 0
1, 772800, Note_on_c, 1, 47, 40
1, 773040, Note_off_c, 1, 47, 0
1, 773040, Note_on_c, 1, 40, 40
1, 773280, Note_off_c, 1, 40, 0
1, 773520, Note_on_c, 1, 52, 40
1, 773880, Note_off_c, 1, 52, 0
1, 773880, Note_on_c, 1, 44, 40
1, 774000, Note_off_c, 1, 44, 0
1, 774000, Note_on_c, 1, 44, 40
1, 774240, Note_off_c, 1, 44, 0
1, 774240, Note_on_c, 1, 45, 40
1, 774480, Note_off_c, 1, 45, 0
1, 774480, Note_on_c, 1, 46, 40
1, 774720, Note_off_c, 1, 46, 0
1, 774720, Note_on_c, 1, 47, 40
1, 774960, Note_off_c, 1, 47, 0
1, 774960, Note_on_c, 1, 40, 40
1, 775200, Note_off_c, 1, 40, 0
1, 775440, Note_on_c, 1, 40, 40
1, 775920, Note_off_c, 1, 40, 0
1, 775920, Note_on_c, 1, 35, 40
1, 776160, Note_off_c, 1, 35, 0
1, 776160, Note_on_c, 1, 35, 40
1, 776400, Note_off_c, 1, 35, 0
1, 776400, Note_on_c, 1, 37, 40
1, 776640, Note_off_c, 1, 37, 0
1, 776640, Note_on_c, 1, 39, 40
1, 776880, Note_off_c, 1, 39, 0
1, 776880, Note_on_c, 1, 40, 40
1, 777120, Note_off_c, 1, 40, 0
1, 777360, Note_on_c, 1, 40, 40
1, 777840, Note_off_c, 1, 40, 0
1, 777840, Note_on_c, 1, 35, 40
1, 778080, Note_off_c, 1, 35, 0
1, 778080, Note_on_c, 1, 35, 40
1, 778320, Note_off_c, 1, 35, 0
1, 778320, Note_on_c, 1, 37, 40
1, 778560, Note_off_c, 1, 37, 0
1, 778560, Note_on_c, 1, 39, 40
1, 778800, Note_off_c, 1, 39, 0
1, 778800, Note_on_c, 1, 40, 40
1, 779040, Note_off_c, 1, 40, 0
1, 779280, Note_on_c, 1, 40, 40
1, 779760, Note_off_c, 1, 40, 0
1, 779760, Note_on_c, 1, 35, 40
1, 780000, Note_off_c, 1, 35, 0
1, 780000, Note_on_c, 1, 35, 40
1, 780240, Note_off_c, 1, 35, 0
1, 780240, Note_on_c, 1, 37, 40
1, 780480, Note_off_c, 1, 37, 0
1, 780480, Note_on_c, 1, 40, 40
1, 780960, Note_off_c, 1, 40, 0
1, 781200, Note_on_c, 1, 40, 40
1, 781680, Note_off_c, 1, 40, 0
1, 781680, Note_on_c, 1, 35, 40
1, 781920, Note_off_c, 1, 35, 0
1, 781920, Note_on_c, 1, 39, 40
1, 782160, Note_off_c, 1, 39, 0
1, 782160, Note_on_c, 1, 40, 40
1, 782400, Note_off_c, 1, 40, 0
1, 782400, Note_on_c, 1, 35, 40
1, 782640, Note_off_c, 1, 35, 0
1, 782640, Note_on_c, 1, 42, 40
1, 782880, Note_off_c, 1, 42, 0
1, 783120, Note_on_c, 1, 42, 40
1, 783600, Note_off_c, 1, 42, 0
1, 783600, Note_on_c, 1, 37, 40
1, 783840, Note_off_c, 1, 37, 0
1, 783840, Note_on_c, 1, 37, 40
1, 784080, Note_off_c, 1, 37, 0
1, 784080, Note_on_c, 1, 40, 40
1, 784320, Note_off_c, 1, 40, 0
1, 784320, Note_on_c, 1, 42, 40
1, 784560, Note_off_c, 1, 42, 0
1, 784560, Note_on_c, 1, 45, 40
1, 785040, Note_off_c, 1, 45, 0
1, 785040, Note_on_c, 1, 44, 40
1, 785520, Note_off_c, 1, 44, 0
1, 785520, Note_on_c, 1, 42, 40
1, 786000, Note_off_c, 1, 42, 0
1, 786000, Note_on_c, 1, 42, 40
1, 786480, Note_off_c, 1, 42, 0
1, 786480, Note_on_c, 1, 40, 40
1, 786720, Note_off_c, 1, 40, 0
1, 786960, Note_on_c, 1, 40, 40
1, 787440, Note_off_c, 1, 40, 0
1, 787440, Note_on_c, 1, 44, 40
1, 787680, Note_off_c, 1, 44, 0
1, 787680, Note_on_c, 1, 45, 40
1, 787920, Note_off_c, 1, 45, 0
1, 787920, Note_on_c, 1, 46, 40
1, 788160, Note_off_c, 1, 46, 0
1, 788160, Note_on_c, 1, 47, 40
1, 788400, Note_off_c, 1, 47, 0
1, 788400, Note_on_c, 1, 40, 40
1, 788640, Note_off_c, 1, 40, 0
1, 788880, Note_on_c, 1, 52, 40
1, 789240, Note_off_c, 1, 52, 0
1, 789240, Note_on_c, 1, 44, 40
1, 789360, Note_off_c, 1, 44, 0
1, 789360, Note_on_c, 1, 44, 40
1, 789600, Note_off_c, 1, 44, 0
1, 789600, Note_on_c, 1, 45, 40
1, 789840, Note_off_c, 1, 45, 0
1, 789840, Note_on_c, 1, 46, 40
1, 790080, Note_off_c, 1, 46, 0
1, 790080, Note_on_c, 1, 47, 40
1, 790320, Note_off_c, 1, 47, 0
1, 790320, Note_on_c, 1, 44, 40
1, 790800, Note_off_c, 1, 44, 0
1, 790800, Note_on_c, 1, 44, 40
1, 791280, Note_off_c, 1, 44, 0
1, 791280, Note_on_c, 1, 32, 40
1, 791520, Note_off_c, 1, 32, 0
1, 791520, Note_on_c, 1, 37, 40
1, 791760, Note_off_c, 1, 37, 0
1, 791760, Note_on_c, 1, 39, 40
1, 792000, Note_off_c, 1, 39, 0
1, 792000, Note_on_c, 1, 43, 40
1, 792720, Note_off_c, 1, 43, 0
1, 792720, Note_on_c, 1, 43, 40
1, 793200, Note_off_c, 1, 43, 0
1, 793200, Note_on_c, 1, 32, 40
1, 793440, Note_off_c, 1, 32, 0
1, 793440, Note_on_c, 1, 37, 40
1, 793680, Note_off_c, 1, 37, 0
1, 793680, Note_on_c, 1, 39, 40
1, 793920, Note_off_c, 1, 39, 0
1, 793920, Note_on_c, 1, 42, 40
1, 794640, Note_off_c, 1, 42, 0
1, 794640, Note_on_c, 1, 42, 40
1, 795120, Note_off_c, 1, 42, 0
1, 795120, Note_on_c, 1, 32, 40
1, 795360, Note_off_c, 1, 32, 0
1, 795360, Note_on_c, 1, 37, 40
1, 795600, Note_off_c, 1, 37, 0
1, 795600, Note_on_c, 1, 39, 40
1, 795840, Note_off_c, 1, 39, 0
1, 795840, Note_on_c, 1, 41, 40
1, 796560, Note_off_c, 1, 41, 0
1, 796560, Note_on_c, 1, 41, 40
1, 797040, Note_off_c, 1, 41, 0
1, 797040, Note_on_c, 1, 32, 40
1, 797280, Note_off_c, 1, 32, 0
1, 797280, Note_on_c, 1, 37, 40
1, 797520, Note_off_c, 1, 37, 0
1, 797520, Note_on_c, 1, 39, 40
1, 797760, Note_off_c, 1, 39, 0
1, 797760, Note_on_c, 1, 40, 40
1, 798000, Note_off_c, 1, 40, 0
1, 798000, Note_on_c, 1, 40, 40
1, 798480, Note_off_c, 1, 40, 0
1, 798480, Note_on_c, 1, 40, 40
1, 798960, Note_off_c, 1, 40, 0
1, 798960, Note_on_c, 1, 37, 40
1, 799200, Note_off_c, 1, 37, 0
1, 799200, Note_on_c, 1, 32, 40
1, 799440, Note_off_c, 1, 32, 0
1, 799440, Note_on_c, 1, 30, 40
1, 799680, Note_off_c, 1, 30, 0
1, 799680, Note_on_c, 1, 28, 40
1, 799920, Note_off_c, 1, 28, 0
1, 799920, Note_on_c, 1, 42, 40
1, 800400, Note_off_c, 1, 42, 0
1, 800400, Note_on_c, 1, 42, 40
1, 800880, Note_off_c, 1, 42, 0
1, 800880, Note_on_c, 1, 37, 40
1, 801120, Note_off_c, 1, 37, 0
1, 801120, Note_on_c, 1, 37, 40
1, 801360, Note_off_c, 1, 37, 0
1, 801360, Note_on_c, 1, 40, 40
1, 801600, Note_off_c, 1, 40, 0
1, 801600, Note_on_c, 1, 42, 40
1, 801840, Note_off_c, 1, 42, 0
1, 801840, Note_on_c, 1, 42, 40
1, 802320, Note_off_c, 1, 42, 0
1, 802320, Note_on_c, 1, 37, 40
1, 802560, Note_off_c, 1, 37, 0
1, 802560, Note_on_c, 1, 40, 40
1, 803040, Note_off_c, 1, 40, 0
1, 803040, Note_on_c, 1, 42, 40
1, 803520, Note_off_c, 1, 42, 0
1, 803520, Note_on_c, 1, 37, 40
1, 803760, Note_off_c, 1, 37, 0
1, 803760, Note_on_c, 1, 35, 40
1, 804000, Note_off_c, 1, 35, 0
1, 804240, Note_on_c, 1, 47, 40
1, 804600, Note_off_c, 1, 47, 0
1, 804600, Note_on_c, 1, 42, 40
1, 804720, Note_off_c, 1, 42, 0
1, 804720, Note_on_c, 1, 35, 40
1, 804960, Note_off_c, 1, 35, 0
1, 804960, Note_on_c, 1, 35, 40
1, 805200, Note_off_c, 1, 35, 0
1, 805200, Note_on_c, 1, 35, 40
1, 805680, Note_off_c, 1, 35, 0
1, 805680, Note_on_c, 1, 40, 40
1, 806160, Note_off_c, 1, 40, 0
1, 806160, Note_on_c, 1, 40, 40
1, 806640, Note_off_c, 1, 40, 0
1, 806640, Note_on_c, 1, 47, 40
1, 807000, Note_off_c, 1, 47, 0
1, 807120, Note_on_c, 1, 52, 40
1, 807600, Note_off_c, 1, 52, 0
1, 807600, Note_on_c, 1, 40, 40
1, 808080, Note_off_c, 1, 40, 0
1, 808080, Note_on_c, 1, 40, 40
1, 808560, Note_off_c, 1, 40, 0
1, 808560, Note_on_c, 1, 47, 40
1, 808920, Note_off_c, 1, 47, 0
1, 809040, Note_on_c, 1, 52, 40
1, 809520, Note_off_c, 1, 52, 0
1, 809520, Note_on_c, 1, 40, 40
1, 810000, Note_off_c, 1, 40, 0
1, 810000, Note_on_c, 1, 40, 40
1, 810480, Note_off_c, 1, 40, 0
1, 810480, Note_on_c, 1, 47, 40
1, 810840, Note_off_c, 1, 47, 0
1, 810960, Note_on_c, 1, 52, 40
1, 811440, Note_off_c, 1, 52, 0
1, 811440, Note_on_c, 1, 40, 40
1, 811920, Note_off_c, 1, 40, 0
1, 811920, Note_on_c, 1, 40, 40
1, 812400, Note_off_c, 1, 40, 0
1, 812400, Note_on_c, 1, 47, 40
1, 812760, Note_off_c, 1, 47, 0
1, 812880, Note_on_c, 1, 52, 40
1, 813360, Note_off_c, 1, 52, 0
1, 813360, Note_on_c, 1, 42, 40
1, 813840, Note_off_c, 1, 42, 0
1, 813840, Note_on_c, 1, 42, 40
1, 814320, Note_off_c, 1, 42, 0
1, 814320, Note_on_c, 1, 49, 40
1, 814680, Note_off_c, 1, 49, 0
1, 814800, Note_on_c, 1, 54, 40
1, 815280, Note_off_c, 1, 54, 0
1, 815280, Note_on_c, 1, 47, 40
1, 815400, Note_off_c, 1, 47, 0
1, 815400, Note_on_c, 1, 45, 40
1, 815760, Note_off_c, 1, 45, 0
1, 815760, Note_on_c, 1, 44, 40
1, 816240, Note_off_c, 1, 44, 0
1, 816240, Note_on_c, 1, 42, 40
1, 816480, Note_off_c, 1, 42, 0
1, 816480, Note_on_c, 1, 40, 40
1, 816720, Note_off_c, 1, 40, 0
1, 816720, Note_on_c, 1, 39, 40
1, 817200, Note_off_c, 1, 39, 0
1, 817200, Note_on_c, 1, 40, 40
1, 817440, Note_off_c, 1, 40, 0
1, 817680, Note_on_c, 1, 52, 40
1, 818040, Note_off_c, 1, 52, 0
1, 818040, Note_on_c, 1, 44, 40
1, 818160, Note_off_c, 1, 44, 0
1, 818160, Note_on_c, 1, 44, 40
1, 818400, Note_off_c, 1, 44, 0
1, 818400, Note_on_c, 1, 45, 40
1, 818640, Note_off_c, 1, 45, 0
1, 818640, Note_on_c, 1, 46, 40
1, 818880, Note_off_c, 1, 46, 0
1, 818880, Note_on_c, 1, 47, 40
1, 819120, Note_off_c, 1, 47, 0
1, 819120, Note_on_c, 1, 40, 40
1, 819360, Note_off_c, 1, 40, 0
1, 819600, Note_on_c, 1, 52, 40
1, 819960, Note_off_c, 1, 52, 0
1, 819960, Note_on_c, 1, 44, 40
1, 820080, Note_off_c, 1, 44, 0
1, 820080, Note_on_c, 1, 44, 40
1, 820320, Note_off_c, 1, 44, 0
1, 820320, Note_on_c, 1, 45, 40
1, 820560, Note_off_c, 1, 45, 0
1, 820560, Note_on_c, 1, 46, 40
1, 820800, Note_off_c, 1, 46, 0
1, 820800, Note_on_c, 1, 47, 40
1, 821040, Note_off_c, 1, 47, 0
1, 821040, Note_on_c, 1, 44, 40
1, 821520, Note_off_c, 1, 44, 0
1, 821520, Note_on_c, 1, 44, 40
1, 822000, Note_off_c, 1, 44, 0
1, 822000, Note_on_c, 1, 32, 40
1, 822240, Note_off_c, 1, 32, 0
1, 822240, Note_on_c, 1, 37, 40
1, 822480, Note_off_c, 1, 37, 0
1, 822480, Note_on_c, 1, 39, 40
1, 822720, Note_off_c, 1, 39, 0
1, 822720, Note_on_c, 1, 43, 40
1, 823440, Note_off_c, 1, 43, 0
1, 823440, Note_on_c, 1, 43, 40
1, 823920, Note_off_c, 1, 43, 0
1, 823920, Note_on_c, 1, 32, 40
1, 824160, Note_off_c, 1, 32, 0
1, 824160, Note_on_c, 1, 37, 40
1, 824400, Note_off_c, 1, 37, 0
1, 824400, Note_on_c, 1, 39, 40
1, 824640, Note_off_c, 1, 39, 0
1, 824640, Note_on_c, 1, 42, 40
1, 825360, Note_off_c, 1, 42, 0
1, 825360, Note_on_c, 1, 42, 40
1, 825840, Note_off_c, 1, 42, 0
1, 825840, Note_on_c, 1, 32, 40
1, 826080, Note_off_c, 1, 32, 0
1, 826080, Note_on_c, 1, 37, 40
1, 826320, Note_off_c, 1, 37, 0
1, 826320, Note_on_c, 1, 39, 40
1, 826560, Note_off_c, 1, 39, 0
1, 826560, Note_on_c, 1, 41, 40
1, 827280, Note_off_c, 1, 41, 0
1, 827280, Note_on_c, 1, 41, 40
1, 827760, Note_off_c, 1, 41, 0
1, 827760, Note_on_c, 1, 32, 40
1, 828000, Note_off_c, 1, 32, 0
1, 828000, Note_on_c, 1, 37, 40
1, 828240, Note_off_c, 1, 37, 0
1, 828240, Note_on_c, 1, 39, 40
1, 828480, Note_off_c, 1, 39, 0
1, 828480, Note_on_c, 1, 40, 40
1, 828720, Note_off_c, 1, 40, 0
1, 828720, Note_on_c, 1, 40, 40
1, 829200, Note_off_c, 1, 40, 0
1, 829200, Note_on_c, 1, 40, 40
1, 829680, Note_off_c, 1, 40, 0
1, 829680, Note_on_c, 1, 37, 40
1, 829920, Note_off_c, 1, 37, 0
1, 829920, Note_on_c, 1, 32, 40
1, 830160, Note_off_c, 1, 32, 0
1, 830160, Note_on_c, 1, 30, 40
1, 830400, Note_off_c, 1, 30, 0
1, 830400, Note_on_c, 1, 28, 40
1, 830640, Note_off_c, 1, 28, 0
1, 830640, Note_on_c, 1, 42, 40
1, 831120, Note_off_c, 1, 42, 0
1, 831120, Note_on_c, 1, 42, 40
1, 831600, Note_off_c, 1, 42, 0
1, 831600, Note_on_c, 1, 37, 40
1, 831840, Note_off_c, 1, 37, 0
1, 831840, Note_on_c, 1, 37, 40
1, 832080, Note_off_c, 1, 37, 0
1, 832080, Note_on_c, 1, 40, 40
1, 832320, Note_off_c, 1, 40, 0
1, 832320, Note_on_c, 1, 42, 40
1, 832560, Note_off_c, 1, 42, 0
1, 832560, Note_on_c, 1, 42, 40
1, 833040, Note_off_c, 1, 42, 0
1, 833040, Note_on_c, 1, 37, 40
1, 833280, Note_off_c, 1, 37, 0
1, 833280, Note_on_c, 1, 40, 40
1, 833760, Note_off_c, 1, 40, 0
1, 833760, Note_on_c, 1, 42, 40
1, 834240, Note_off_c, 1, 42, 0
1, 834240, Note_on_c, 1, 37, 40
1, 834480, Note_off_c, 1, 37, 0
1, 834480, Note_on_c, 1, 35, 40
1, 834720, Note_off_c, 1, 35, 0
1, 834960, Note_on_c, 1, 47, 40
1, 835320, Note_off_c, 1, 47, 0
1, 835320, Note_on_c, 1, 47, 40
1, 835440, Note_off_c, 1, 47, 0
1, 835440, Note_on_c, 1, 35, 40
1, 835680, Note_off_c, 1, 35, 0
1, 835680, Note_on_c, 1, 35, 40
1, 835920, Note_off_c, 1, 35, 0
1, 835920, Note_on_c, 1, 35, 40
1, 836400, Note_off_c, 1, 35, 0
1, 836400, Note_on_c, 1, 40, 40
1, 836880, Note_off_c, 1, 40, 0
1, 836880, Note_on_c, 1, 40, 40
1, 837360, Note_off_c, 1, 40, 0
1, 837360, Note_on_c, 1, 39, 40
1, 837840, Note_off_c, 1, 39, 0
1, 837840, Note_on_c, 1, 39, 40
1, 838320, Note_off_c, 1, 39, 0
1, 838320, Note_on_c, 1, 37, 40
1, 838800, Note_off_c, 1, 37, 0
1, 838800, Note_on_c, 1, 37, 40
1, 839280, Note_off_c, 1, 37, 0
1, 839280, Note_on_c, 1, 35, 40
1, 839760, Note_off_c, 1, 35, 0
1, 839760, Note_on_c, 1, 35, 40
1, 840120, Note_off_c, 1, 35, 0
1, 840120, Note_on_c, 1, 37, 40
1, 840240, Note_off_c, 1, 37, 0
1, 840240, Note_on_c, 1, 40, 40
1, 840480, Note_off_c, 1, 40, 0
1, 840720, Note_on_c, 1, 40, 40
1, 841200, Note_off_c, 1, 40, 0
1, 841200, Note_on_c, 1, 45, 40
1, 841320, Note_off_c, 1, 45, 0
1, 841320, Note_on_c, 1, 47, 40
1, 841440, Note_off_c, 1, 47, 0
1, 841440, Note_on_c, 1, 50, 40
1, 841560, Note_off_c, 1, 50, 0
1, 841560, Note_on_c, 1, 52, 40
1, 841680, Note_off_c, 1, 52, 0
1, 841680, Note_on_c, 1, 52, 40
1, 841920, Note_off_c, 1, 52, 0
1, 841920, Note_on_c, 1, 40, 40
1, 842640, Note_off_c, 1, 40, 0
1, 842640, Note_on_c, 1, 40, 40
1, 843120, Note_off_c, 1, 40, 0
1, 843120, Note_on_c, 1, 35, 40
1, 843360, Note_off_c, 1, 35, 0
1, 843360, Note_on_c, 1, 37, 40
1, 843600, Note_off_c, 1, 37, 0
1, 843600, Note_on_c, 1, 40, 40
1, 843840, Note_off_c, 1, 40, 0
1, 843840, Note_on_c, 1, 37, 40
1, 844080, Note_off_c, 1, 37, 0
1, 844080, Note_on_c, 1, 42, 40
1, 844320, Note_off_c, 1, 42, 0
1, 844560, Note_on_c, 1, 42, 40
1, 845040, Note_off_c, 1, 42, 0
1, 845040, Note_on_c, 1, 37, 40
1, 845280, Note_off_c, 1, 37, 0
1, 845280, Note_on_c, 1, 40, 40
1, 845520, Note_off_c, 1, 40, 0
1, 845520, Note_on_c, 1, 42, 40
1, 845760, Note_off_c, 1, 42, 0
1, 845760, Note_on_c, 1, 40, 40
1, 846000, Note_off_c, 1, 40, 0
1, 846000, Note_on_c, 1, 45, 40
1, 846480, Note_off_c, 1, 45, 0
1, 846480, Note_on_c, 1, 44, 40
1, 846960, Note_off_c, 1, 44, 0
1, 846960, Note_on_c, 1, 42, 40
1, 847200, Note_off_c, 1, 42, 0
1, 847200, Note_on_c, 1, 40, 40
1, 847680, Note_off_c, 1, 40, 0
1, 847680, Note_on_c, 1, 37, 40
1, 847920, Note_off_c, 1, 37, 0
1, 847920, Note_on_c, 1, 40, 40
1, 848160, Note_off_c, 1, 40, 0
1, 848400, Note_on_c, 1, 40, 40
1, 848880, Note_off_c, 1, 40, 0
1, 848880, Note_on_c, 1, 44, 40
1, 849120, Note_off_c, 1, 44, 0
1, 849120, Note_on_c, 1, 45, 40
1, 849360, Note_off_c, 1, 45, 0
1, 849360, Note_on_c, 1, 46, 40
1, 849600, Note_off_c, 1, 46, 0
1, 849600, Note_on_c, 1, 47, 40
1, 849840, Note_off_c, 1, 47, 0
1, 849840, Note_on_c, 1, 40, 40
1, 850080, Note_off_c, 1, 40, 0
1, 850320, Note_on_c, 1, 52, 40
1, 850680, Note_off_c, 1, 52, 0
1, 850680, Note_on_c, 1, 44, 40
1, 850800, Note_off_c, 1, 44, 0
1, 850800, Note_on_c, 1, 44, 40
1, 851040, Note_off_c, 1, 44, 0
1, 851040, Note_on_c, 1, 45, 40
1, 851280, Note_off_c, 1, 45, 0
1, 851280, Note_on_c, 1, 46, 40
1, 851520, Note_off_c, 1, 46, 0
1, 851520, Note_on_c, 1, 47, 40
1, 851760, Note_off_c, 1, 47, 0
1, 851760, Note_on_c, 1, 40, 40
1, 852000, Note_off_c, 1, 40, 0
1, 852240, Note_on_c, 1, 52, 40
1, 852600, Note_off_c, 1, 52, 0
1, 852600, Note_on_c, 1, 44, 40
1, 852720, Note_off_c, 1, 44, 0
1, 852720, Note_on_c, 1, 44, 40
1, 852960, Note_off_c, 1, 44, 0
1, 852960, Note_on_c, 1, 45, 40
1, 853200, Note_off_c, 1, 45, 0
1, 853200, Note_on_c, 1, 46, 40
1, 853440, Note_off_c, 1, 46, 0
1, 853440, Note_on_c, 1, 47, 40
1, 853680, Note_off_c, 1, 47, 0
1, 853680, Note_on_c, 1, 40, 40
1, 853920, Note_off_c, 1, 40, 0
1, 854160, Note_on_c, 1, 52, 40
1, 854520, Note_off_c, 1, 52, 0
1, 854520, Note_on_c, 1, 44, 40
1, 854640, Note_off_c, 1, 44, 0
1, 854640, Note_on_c, 1, 44, 40
1, 854880, Note_off_c, 1, 44, 0
1, 854880, Note_on_c, 1, 45, 40
1, 855120, Note_off_c, 1, 45, 0
1, 855120, Note_on_c, 1, 46, 40
1, 855360, Note_off_c, 1, 46, 0
1, 855360, Note_on_c, 1, 47, 40
1, 855600, Note_off_c, 1, 47, 0
1, 855600, Note_on_c, 1, 40, 40
1, 855840, Note_off_c, 1, 40, 0
1, 856080, Note_on_c, 1, 52, 40
1, 856440, Note_off_c, 1, 52, 0
1, 856440, Note_on_c, 1, 44, 40
1, 856560, Note_off_c, 1, 44, 0
1, 856560, Note_on_c, 1, 44, 40
1, 856800, Note_off_c, 1, 44, 0
1, 856800, Note_on_c, 1, 45, 40
1, 857040, Note_off_c, 1, 45, 0
1, 857040, Note_on_c, 1, 46, 40
1, 857280, Note_off_c, 1, 46, 0
1, 857280, Note_on_c, 1, 47, 40
1, 857520, Note_off_c, 1, 47, 0
1, 857520, Note_on_c, 1, 40, 40
1, 857760, Note_off_c, 1, 40, 0
1, 858000, Note_on_c, 1, 52, 40
1, 858360, Note_off_c, 1, 52, 0
1, 858360, Note_on_c, 1, 44, 40
1, 858480, Note_off_c, 1, 44, 0
1, 858480, Note_on_c, 1, 44, 40
1, 858720, Note_off_c, 1, 44, 0
1, 858720, Note_on_c, 1, 45, 40
1, 858960, Note_off_c, 1, 45, 0
1, 858960, Note_on_c, 1, 46, 40
1, 859200, Note_off_c, 1, 46, 0
1, 859200, Note_on_c, 1, 47, 40
1, 859440, Note_off_c, 1, 47, 0
1, 859440, Note_on_c, 1, 42, 40
1, 859680, Note_off_c, 1, 42, 0
1, 859920, Note_on_c, 1, 42, 40
1, 860400, Note_off_c, 1, 42, 0
1, 860400, Note_on_c, 1, 37, 40
1, 860640, Note_off_c, 1, 37, 0
1, 860640, Note_on_c, 1, 40, 40
1, 860880, Note_off_c, 1, 40, 0
1, 860880, Note_on_c, 1, 42, 40
1, 861360, Note_off_c, 1, 42, 0
1, 861360, Note_on_c, 1, 45, 40
1, 861840, Note_off_c, 1, 45, 0
1, 861840, Note_on_c, 1, 44, 40
1, 862320, Note_off_c, 1, 44, 0
1, 862320, Note_on_c, 1, 42, 40
1, 862560, Note_off_c, 1, 42, 0
1, 862560, Note_on_c, 1, 42, 40
1, 863040, Note_off_c, 1, 42, 0
1, 863040, Note_on_c, 1, 39, 40
1, 863280, Note_off_c, 1, 39, 0
1, 863280, Note_on_c, 1, 40, 40
1, 863520, Note_off_c, 1, 40, 0
1, 863760, Note_on_c, 1, 52, 40
1, 864120, Note_off_c, 1, 52, 0
1, 864120, Note_on_c, 1, 44, 40
1, 864240, Note_off_c, 1, 44, 0
1, 864240, Note_on_c, 1, 44, 40
1, 864480, Note_off_c, 1, 44, 0
1, 864480, Note_on_c, 1, 45, 40
1, 864720, Note_off_c, 1, 45, 0
1, 864720, Note_on_c, 1, 46, 40
1, 864960, Note_off_c, 1, 46, 0
1, 864960, Note_on_c, 1, 47, 40
1, 865200, Note_off_c, 1, 47, 0
1, 865200, Note_on_c, 1, 40, 40
1, 865440, Note_off_c, 1, 40, 0
1, 865680, Note_on_c, 1, 52, 40
1, 866040, Note_off_c, 1, 52, 0
1, 866040, Note_on_c, 1, 44, 40
1, 866160, Note_off_c, 1, 44, 0
1, 866160, Note_on_c, 1, 44, 40
1, 866400, Note_off_c, 1, 44, 0
1, 866400, Note_on_c, 1, 45, 40
1, 866640, Note_off_c, 1, 45, 0
1, 866640, Note_on_c, 1, 46, 40
1, 866880, Note_off_c, 1, 46, 0
1, 866880, Note_on_c, 1, 47, 40
1, 867120, Note_off_c, 1, 47, 0
1, 867120, Note_on_c, 1, 40, 40
1, 867360, Note_off_c, 1, 40, 0
1, 867600, Note_on_c, 1, 40, 40
1, 868080, Note_off_c, 1, 40, 0
1, 868080, Note_on_c, 1, 35, 40
1, 868320, Note_off_c, 1, 35, 0
1, 868320, Note_on_c, 1, 35, 40
1, 868560, Note_off_c, 1, 35, 0
1, 868560, Note_on_c, 1, 37, 40
1, 868800, Note_off_c, 1, 37, 0
1, 868800, Note_on_c, 1, 40, 40
1, 869040, Note_off_c, 1, 40, 0
1, 869040, Note_on_c, 1, 40, 40
1, 869280, Note_off_c, 1, 40, 0
1, 869520, Note_on_c, 1, 40, 40
1, 870000, Note_off_c, 1, 40, 0
1, 870000, Note_on_c, 1, 35, 40
1, 870240, Note_off_c, 1, 35, 0
1, 870240, Note_on_c, 1, 35, 40
1, 870480, Note_off_c, 1, 35, 0
1, 870480, Note_on_c, 1, 37, 40
1, 870720, Note_off_c, 1, 37, 0
1, 870720, Note_on_c, 1, 40, 40
1, 870960, Note_off_c, 1, 40, 0
1, 870960, Note_on_c, 1, 40, 40
1, 871200, Note_off_c, 1, 40, 0
1, 871440, Note_on_c, 1, 40, 40
1, 871920, Note_off_c, 1, 40, 0
1, 871920, Note_on_c, 1, 35, 40
1, 872160, Note_off_c, 1, 35, 0
1, 872160, Note_on_c, 1, 35, 40
1, 872400, Note_off_c, 1, 35, 0
1, 872400, Note_on_c, 1, 37, 40
1, 872640, Note_off_c, 1, 37, 0
1, 872640, Note_on_c, 1, 40, 40
1, 872880, Note_off_c, 1, 40, 0
1, 872880, Note_on_c, 1, 40, 40
1, 873360, Note_off_c, 1, 40, 0
1, 873360, Note_on_c, 1, 52, 40
1, 873480, Note_off_c, 1, 52, 0
1, 873480, Note_on_c, 1, 52, 40
1, 873600, Note_off_c, 1, 52, 0
1, 873600, Note_on_c, 1, 52, 40
1, 873840, Note_off_c, 1, 52, 0
1, 873840, Note_on_c, 1, 52, 40
1, 873960, Note_off_c, 1, 52, 0
1, 873960, Note_on_c, 1, 52, 40
1, 874200, Note_off_c, 1, 52, 0
1, 874200, Note_on_c, 1, 52, 40
1, 874320, Note_off_c, 1, 52, 0
1, 874320, Note_on_c, 1, 52, 40
1, 874560, Note_off_c, 1, 52, 0
1, 874560, Note_on_c, 1, 52, 40
1, 874680, Note_off_c, 1, 52, 0
1, 874680, Note_on_c, 1, 52, 40
1, 874920, Note_off_c, 1, 52, 0
1, 874920, Note_on_c, 1, 52, 40
1, 875040, Note_off_c, 1, 52, 0
1, 875040, Note_on_c, 1, 52, 40
1, 875280, Note_off_c, 1, 52, 0
1, 875280, Note_on_c, 1, 52, 40
1, 877200, Note_off_c, 1, 52, 0
1, 877200, Note_on_c, 1, 52, 40
1, 879120, Note_off_c, 1, 52, 0
1, 879120, Note_on_c, 1, 52, 40
1, 881040, Note_off_c, 1, 52, 0
1, 881040, Note_on_c, 1, 52, 40
1, 882480, Note_off_c, 1, 52, 0
1, 890160, Note_on_c, 1, 30, 40
1, 890640, Note_off_c, 1, 30, 0
1, 890640, Note_on_c, 1, 30, 40
1, 891120, Note_off_c, 1, 30, 0
1, 891120, Note_on_c, 1, 30, 40
1, 891360, Note_off_c, 1, 30, 0
1, 891360, Note_on_c, 1, 28, 40
1, 891600, Note_off_c, 1, 28, 0
1, 891600, Note_on_c, 1, 30, 40
1, 891840, Note_off_c, 1, 30, 0
1, 891840, Note_on_c, 1, 33, 40
1, 892560, Note_off_c, 1, 33, 0
1, 892560, Note_on_c, 1, 33, 40
1, 893040, Note_off_c, 1, 33, 0
1, 893040, Note_on_c, 1, 33, 40
1, 893280, Note_off_c, 1, 33, 0
1, 893280, Note_on_c, 1, 33, 40
1, 893760, Note_off_c, 1, 33, 0
1, 893760, Note_on_c, 1, 33, 40
1, 894000, Note_off_c, 1, 33, 0
1, 894000, Note_on_c, 1, 28, 40
1, 894720, Note_off_c, 1, 28, 0
1, 894720, Note_on_c, 1, 28, 40
1, 894960, Note_off_c, 1, 28, 0
1, 894960, Note_on_c, 1, 28, 40
1, 895920, Note_off_c, 1, 28, 0
1, 895920, Note_on_c, 1, 28, 40
1, 896640, Note_off_c, 1, 28, 0
1, 896640, Note_on_c, 1, 28, 40
1, 896880, Note_off_c, 1, 28, 0
1, 896880, Note_on_c, 1, 28, 40
1, 897600, Note_off_c, 1, 28, 0
1, 897600, Note_on_c, 1, 29, 40
1, 897840, Note_off_c, 1, 29, 0
1, 897840, Note_on_c, 1, 30, 40
1, 898560, Note_off_c, 1, 30, 0
1, 898560, Note_on_c, 1, 30, 40
1, 898800, Note_off_c, 1, 30, 0
1, 898800, Note_on_c, 1, 30, 40
1, 899280, Note_off_c, 1, 30, 0
1, 899280, Note_on_c, 1, 30, 40
1, 899520, Note_off_c, 1, 30, 0
1, 899520, Note_on_c, 1, 28, 40
1, 899760, Note_off_c, 1, 28, 0
1, 899760, Note_on_c, 1, 26, 40
1, 900480, Note_off_c, 1, 26, 0
1, 900480, Note_on_c, 1, 26, 40
1, 900720, Note_off_c, 1, 26, 0
1, 900720, Note_on_c, 1, 28, 40
1, 901440, Note_off_c, 1, 28, 0
1, 901440, Note_on_c, 1, 28, 40
1, 901680, Note_off_c, 1, 28, 0
1, 901680, Note_on_c, 1, 33, 40
1, 902400, Note_off_c, 1, 33, 0
1, 902400, Note_on_c, 1, 33, 40
1, 902640, Note_off_c, 1, 33, 0
1, 902640, Note_on_c, 1, 33, 40
1, 903600, Note_off_c, 1, 33, 0
1, 903600, Note_on_c, 1, 33, 40
1, 904320, Note_off_c, 1, 33, 0
1, 904320, Note_on_c, 1, 33, 40
1, 904560, Note_off_c, 1, 33, 0
1, 904560, Note_on_c, 1, 33, 40
1, 905040, Note_off_c, 1, 33, 0
1, 905040, Note_on_c, 1, 40, 40
1, 905520, Note_off_c, 1, 40, 0
1, 905520, Note_on_c, 1, 33, 40
1, 906240, Note_off_c, 1, 33, 0
1, 906240, Note_on_c, 1, 33, 40
1, 906480, Note_off_c, 1, 33, 0
1, 906480, Note_on_c, 1, 33, 40
1, 907440, Note_off_c, 1, 33, 0
1, 907440, Note_on_c, 1, 32, 40
1, 908160, Note_off_c, 1, 32, 0
1, 908160, Note_on_c, 1, 32, 40
1, 908400, Note_off_c, 1, 32, 0
1, 908400, Note_on_c, 1, 28, 40
1, 908880, Note_off_c, 1, 28, 0
1, 908880, Note_on_c, 1, 32, 40
1, 909360, Note_off_c, 1, 32, 0
1, 909360, Note_on_c, 1, 30, 40
1, 910080, Note_off_c, 1, 30, 0
1, 910080, Note_on_c, 1, 30, 40
1, 910320, Note_off_c, 1, 30, 0
1, 910320, Note_on_c, 1, 25, 40
1, 910800, Note_off_c, 1, 25, 0
1, 910800, Note_on_c, 1, 30, 40
1, 911280, Note_off_c, 1, 30, 0
1, 911280, Note_on_c, 1, 29, 40
1, 912000, Note_off_c, 1, 29, 0
1, 912000, Note_on_c, 1, 29, 40
1, 912240, Note_off_c, 1, 29, 0
1, 912240, Note_on_c, 1, 26, 40
1, 912720, Note_off_c, 1, 26, 0
1, 912720, Note_on_c, 1, 29, 40
1, 912960, Note_off_c, 1, 29, 0
1, 912960, Note_on_c, 1, 26, 40
1, 913200, Note_off_c, 1, 26, 0
1, 913200, Note_on_c, 1, 28, 40
1, 913920, Note_off_c, 1, 28, 0
1, 913920, Note_on_c, 1, 28, 40
1, 914160, Note_off_c, 1, 28, 0
1, 914160, Note_on_c, 1, 28, 40
1, 915120, Note_off_c, 1, 28, 0
1, 915120, Note_on_c, 1, 28, 40
1, 915840, Note_off_c, 1, 28, 0
1, 915840, Note_on_c, 1, 28, 40
1, 916080, Note_off_c, 1, 28, 0
1, 916080, Note_on_c, 1, 28, 40
1, 917040, Note_off_c, 1, 28, 0
1, 917040, Note_on_c, 1, 33, 40
1, 917760, Note_off_c, 1, 33, 0
1, 917760, Note_on_c, 1, 33, 40
1, 918000, Note_off_c, 1, 33, 0
1, 918000, Note_on_c, 1, 33, 40
1, 918960, Note_off_c, 1, 33, 0
1, 918960, Note_on_c, 1, 32, 40
1, 919680, Note_off_c, 1, 32, 0
1, 919680, Note_on_c, 1, 32, 40
1, 919920, Note_off_c, 1, 32, 0
1, 919920, Note_on_c, 1, 28, 40
1, 920400, Note_off_c, 1, 28, 0
1, 920400, Note_on_c, 1, 32, 40
1, 920880, Note_off_c, 1, 32, 0
1, 920880, Note_on_c, 1, 30, 40
1, 921600, Note_off_c, 1, 30, 0
1, 921600, Note_on_c, 1, 30, 40
1, 921840, Note_off_c, 1, 30, 0
1, 921840, Note_on_c, 1, 25, 40
1, 922320, Note_off_c, 1, 25, 0
1, 922320, Note_on_c, 1, 30, 40
1, 922800, Note_off_c, 1, 30, 0
1, 922800, Note_on_c, 1, 29, 40
1, 923520, Note_off_c, 1, 29, 0
1, 923520, Note_on_c, 1, 29, 40
1, 923760, Note_off_c, 1, 29, 0
1, 923760, Note_on_c, 1, 26, 40
1, 924240, Note_off_c, 1, 26, 0
1, 924240, Note_on_c, 1, 29, 40
1, 924720, Note_off_c, 1, 29, 0
1, 924720, Note_on_c, 1, 28, 40
1, 925440, Note_off_c, 1, 28, 0
1, 925440, Note_on_c, 1, 28, 40
1, 925680, Note_off_c, 1, 28, 0
1, 925680, Note_on_c, 1, 25, 40
1, 926160, Note_off_c, 1, 25, 0
1, 926160, Note_on_c, 1, 28, 40
1, 926640, Note_off_c, 1, 28, 0
1, 926640, Note_on_c, 1, 28, 40
1, 927360, Note_off_c, 1, 28, 0
1, 927360, Note_on_c, 1, 28, 40
1, 927600, Note_off_c, 1, 28, 0
1, 927600, Note_on_c, 1, 35, 40
1, 928080, Note_off_c, 1, 35, 0
1, 928080, Note_on_c, 1, 40, 40
1, 928560, Note_off_c, 1, 40, 0
1, 928560, Note_on_c, 1, 33, 40
1, 929280, Note_off_c, 1, 33, 0
1, 929280, Note_on_c, 1, 33, 40
1, 929520, Note_off_c, 1, 33, 0
1, 929520, Note_on_c, 1, 28, 40
1, 930000, Note_off_c, 1, 28, 0
1, 930000, Note_on_c, 1, 28, 40
1, 930480, Note_off_c, 1, 28, 0
1, 930480, Note_on_c, 1, 33, 40
1, 930960, Note_off_c, 1, 33, 0
1, 932400, Note_on_c, 1, 30, 40
1, 932880, Note_off_c, 1, 30, 0
1, 932880, Note_on_c, 1, 30, 40
1, 933360, Note_off_c, 1, 30, 0
1, 933360, Note_on_c, 1, 30, 40
1, 933600, Note_off_c, 1, 30, 0
1, 933600, Note_on_c, 1, 28, 40
1, 933840, Note_off_c, 1, 28, 0
1, 933840, Note_on_c, 1, 30, 40
1, 934080, Note_off_c, 1, 30, 0
1, 934080, Note_on_c, 1, 33, 40
1, 934800, Note_off_c, 1, 33, 0
1, 934800, Note_on_c, 1, 33, 40
1, 935280, Note_off_c, 1, 33, 0
1, 935280, Note_on_c, 1, 33, 40
1, 935520, Note_off_c, 1, 33, 0
1, 935520, Note_on_c, 1, 33, 40
1, 936000, Note_off_c, 1, 33, 0
1, 936000, Note_on_c, 1, 33, 40
1, 936240, Note_off_c, 1, 33, 0
1, 936240, Note_on_c, 1, 28, 40
1, 936960, Note_off_c, 1, 28, 0
1, 936960, Note_on_c, 1, 28, 40
1, 937200, Note_off_c, 1, 28, 0
1, 937200, Note_on_c, 1, 28, 40
1, 938160, Note_off_c, 1, 28, 0
1, 938160, Note_on_c, 1, 28, 40
1, 938880, Note_off_c, 1, 28, 0
1, 938880, Note_on_c, 1, 28, 40
1, 939120, Note_off_c, 1, 28, 0
1, 939120, Note_on_c, 1, 28, 40
1, 939840, Note_off_c, 1, 28, 0
1, 939840, Note_on_c, 1, 29, 40
1, 940080, Note_off_c, 1, 29, 0
1, 940080, Note_on_c, 1, 30, 40
1, 940800, Note_off_c, 1, 30, 0
1, 940800, Note_on_c, 1, 30, 40
1, 941040, Note_off_c, 1, 30, 0
1, 941040, Note_on_c, 1, 30, 40
1, 941520, Note_off_c, 1, 30, 0
1, 941520, Note_on_c, 1, 30, 40
1, 941760, Note_off_c, 1, 30, 0
1, 941760, Note_on_c, 1, 28, 40
1, 942000, Note_off_c, 1, 28, 0
1, 942000, Note_on_c, 1, 26, 40
1, 942720, Note_off_c, 1, 26, 0
1, 942720, Note_on_c, 1, 26, 40
1, 942960, Note_off_c, 1, 26, 0
1, 942960, Note_on_c, 1, 28, 40
1, 943680, Note_off_c, 1, 28, 0
1, 943680, Note_on_c, 1, 28, 40
1, 943920, Note_off_c, 1, 28, 0
1, 943920, Note_on_c, 1, 33, 40
1, 944640, Note_off_c, 1, 33, 0
1, 944640, Note_on_c, 1, 33, 40
1, 944880, Note_off_c, 1, 33, 0
1, 944880, Note_on_c, 1, 33, 40
1, 945840, Note_off_c, 1, 33, 0
1, 945840, Note_on_c, 1, 33, 40
1, 946560, Note_off_c, 1, 33, 0
1, 946560, Note_on_c, 1, 33, 40
1, 946800, Note_off_c, 1, 33, 0
1, 946800, Note_on_c, 1, 33, 40
1, 947280, Note_off_c, 1, 33, 0
1, 947280, Note_on_c, 1, 40, 40
1, 947760, Note_off_c, 1, 40, 0
1, 947760, Note_on_c, 1, 33, 40
1, 948480, Note_off_c, 1, 33, 0
1, 948480, Note_on_c, 1, 33, 40
1, 948720, Note_off_c, 1, 33, 0
1, 948720, Note_on_c, 1, 33, 40
1, 949680, Note_off_c, 1, 33, 0
1, 949680, Note_on_c, 1, 32, 40
1, 950400, Note_off_c, 1, 32, 0
1, 950400, Note_on_c, 1, 32, 40
1, 950640, Note_off_c, 1, 32, 0
1, 950640, Note_on_c, 1, 28, 40
1, 951120, Note_off_c, 1, 28, 0
1, 951120, Note_on_c, 1, 32, 40
1, 951600, Note_off_c, 1, 32, 0
1, 951600, Note_on_c, 1, 30, 40
1, 952320, Note_off_c, 1, 30, 0
1, 952320, Note_on_c, 1, 30, 40
1, 952560, Note_off_c, 1, 30, 0
1, 952560, Note_on_c, 1, 25, 40
1, 953040, Note_off_c, 1, 25, 0
1, 953040, Note_on_c, 1, 30, 40
1, 953520, Note_off_c, 1, 30, 0
1, 953520, Note_on_c, 1, 29, 40
1, 954240, Note_off_c, 1, 29, 0
1, 954240, Note_on_c, 1, 29, 40
1, 954480, Note_off_c, 1, 29, 0
1, 954480, Note_on_c, 1, 26, 40
1, 954960, Note_off_c, 1, 26, 0
1, 954960, Note_on_c, 1, 29, 40
1, 955200, Note_off_c, 1, 29, 0
1, 955200, Note_on_c, 1, 26, 40
1, 955440, Note_off_c, 1, 26, 0
1, 955440, Note_on_c, 1, 28, 40
1, 956160, Note_off_c, 1, 28, 0
1, 956160, Note_on_c, 1, 28, 40
1, 956400, Note_off_c, 1, 28, 0
1, 956400, Note_on_c, 1, 28, 40
1, 957360, Note_off_c, 1, 28, 0
1, 957360, Note_on_c, 1, 28, 40
1, 958080, Note_off_c, 1, 28, 0
1, 958080, Note_on_c, 1, 28, 40
1, 958320, Note_off_c, 1, 28, 0
1, 958320, Note_on_c, 1, 28, 40
1, 959280, Note_off_c, 1, 28, 0
1, 959280, Note_on_c, 1, 33, 40
1, 960000, Note_off_c, 1, 33, 0
1, 960000, Note_on_c, 1, 33, 40
1, 960240, Note_off_c, 1, 33, 0
1, 960240, Note_on_c, 1, 33, 40
1, 961200, Note_off_c, 1, 33, 0
1, 961200, Note_on_c, 1, 32, 40
1, 961920, Note_off_c, 1, 32, 0
1, 961920, Note_on_c, 1, 32, 40
1, 962160, Note_off_c, 1, 32, 0
1, 962160, Note_on_c, 1, 28, 40
1, 962640, Note_off_c, 1, 28, 0
1, 962640, Note_on_c, 1, 32, 40
1, 963120, Note_off_c, 1, 32, 0
1, 963120, Note_on_c, 1, 30, 40
1, 963840, Note_off_c, 1, 30, 0
1, 963840, Note_on_c, 1, 30, 40
1, 964080, Note_off_c, 1, 30, 0
1, 964080, Note_on_c, 1, 25, 40
1, 964560, Note_off_c, 1, 25, 0
1, 964560, Note_on_c, 1, 30, 40
1, 965040, Note_off_c, 1, 30, 0
1, 965040, Note_on_c, 1, 29, 40
1, 965760, Note_off_c, 1, 29, 0
1, 965760, Note_on_c, 1, 29, 40
1, 966000, Note_off_c, 1, 29, 0
1, 966000, Note_on_c, 1, 26, 40
1, 966480, Note_off_c, 1, 26, 0
1, 966480, Note_on_c, 1, 29, 40
1, 966960, Note_off_c, 1, 29, 0
1, 966960, Note_on_c, 1, 28, 40
1, 967680, Note_off_c, 1, 28, 0
1, 967680, Note_on_c, 1, 28, 40
1, 967920, Note_off_c, 1, 28, 0
1, 967920, Note_on_c, 1, 25, 40
1, 968400, Note_off_c, 1, 25, 0
1, 968400, Note_on_c, 1, 28, 40
1, 968880, Note_off_c, 1, 28, 0
1, 968880, Note_on_c, 1, 28, 40
1, 969600, Note_off_c, 1, 28, 0
1, 969600, Note_on_c, 1, 28, 40
1, 969840, Note_off_c, 1, 28, 0
1, 969840, Note_on_c, 1, 35, 40
1, 970320, Note_off_c, 1, 35, 0
1, 970320, Note_on_c, 1, 40, 40
1, 970800, Note_off_c, 1, 40, 0
1, 970800, Note_on_c, 1, 33, 40
1, 971520, Note_off_c, 1, 33, 0
1, 971520, Note_on_c, 1, 33, 40
1, 971760, Note_off_c, 1, 33, 0
1, 971760, Note_on_c, 1, 28, 40
1, 972240, Note_off_c, 1, 28, 0
1, 972240, Note_on_c, 1, 28, 40
1, 972720, Note_off_c, 1, 28, 0
1, 972720, Note_on_c, 1, 33, 40
1, 973200, Note_off_c, 1, 33, 0
1, 974640, Note_on_c, 1, 30, 40
1, 975120, Note_off_c, 1, 30, 0
1, 975120, Note_on_c, 1, 30, 40
1, 975600, Note_off_c, 1, 30, 0
1, 975600, Note_on_c, 1, 30, 40
1, 975840, Note_off_c, 1, 30, 0
1, 975840, Note_on_c, 1, 28, 40
1, 976080, Note_off_c, 1, 28, 0
1, 976080, Note_on_c, 1, 30, 40
1, 976320, Note_off_c, 1, 30, 0
1, 976320, Note_on_c, 1, 33, 40
1, 977040, Note_off_c, 1, 33, 0
1, 977040, Note_on_c, 1, 33, 40
1, 977520, Note_off_c, 1, 33, 0
1, 977520, Note_on_c, 1, 33, 40
1, 977760, Note_off_c, 1, 33, 0
1, 977760, Note_on_c, 1, 33, 40
1, 978240, Note_off_c, 1, 33, 0
1, 978240, Note_on_c, 1, 33, 40
1, 978480, Note_off_c, 1, 33, 0
1, 978480, Note_on_c, 1, 28, 40
1, 979200, Note_off_c, 1, 28, 0
1, 979200, Note_on_c, 1, 28, 40
1, 979440, Note_off_c, 1, 28, 0
1, 979440, Note_on_c, 1, 28, 40
1, 980400, Note_off_c, 1, 28, 0
1, 980400, Note_on_c, 1, 28, 40
1, 981120, Note_off_c, 1, 28, 0
1, 981120, Note_on_c, 1, 28, 40
1, 981360, Note_off_c, 1, 28, 0
1, 981360, Note_on_c, 1, 28, 40
1, 982080, Note_off_c, 1, 28, 0
1, 982080, Note_on_c, 1, 29, 40
1, 982320, Note_off_c, 1, 29, 0
1, 982320, Note_on_c, 1, 30, 40
1, 983040, Note_off_c, 1, 30, 0
1, 983040, Note_on_c, 1, 30, 40
1, 983280, Note_off_c, 1, 30, 0
1, 983280, Note_on_c, 1, 30, 40
1, 983760, Note_off_c, 1, 30, 0
1, 983760, Note_on_c, 1, 30, 40
1, 984000, Note_off_c, 1, 30, 0
1, 984000, Note_on_c, 1, 28, 40
1, 984240, Note_off_c, 1, 28, 0
1, 984240, Note_on_c, 1, 26, 40
1, 984960, Note_off_c, 1, 26, 0
1, 984960, Note_on_c, 1, 26, 40
1, 985200, Note_off_c, 1, 26, 0
1, 985200, Note_on_c, 1, 28, 40
1, 985920, Note_off_c, 1, 28, 0
1, 985920, Note_on_c, 1, 28, 40
1, 986160, Note_off_c, 1, 28, 0
1, 986160, Note_on_c, 1, 33, 40
1, 986880, Note_off_c, 1, 33, 0
1, 986880, Note_on_c, 1, 33, 40
1, 987120, Note_off_c, 1, 33, 0
1, 987120, Note_on_c, 1, 33, 40
1, 988080, Note_off_c, 1, 33, 0
1, 988080, Note_on_c, 1, 33, 40
1, 988800, Note_off_c, 1, 33, 0
1, 988800, Note_on_c, 1, 33, 40
1, 989040, Note_off_c, 1, 33, 0
1, 989040, Note_on_c, 1, 33, 40
1, 989520, Note_off_c, 1, 33, 0
1, 989520, Note_on_c, 1, 33, 40
1, 990000, Note_off_c, 1, 33, 0
1, 990000, Note_on_c, 1, 28, 40
1, 990720, Note_off_c, 1, 28, 0
1, 990720, Note_on_c, 1, 28, 40
1, 990960, Note_off_c, 1, 28, 0
1, 990960, Note_on_c, 1, 28, 40
1, 991920, Note_off_c, 1, 28, 0
1, 991920, Note_on_c, 1, 28, 40
1, 992640, Note_off_c, 1, 28, 0
1, 992640, Note_on_c, 1, 28, 40
1, 992880, Note_off_c, 1, 28, 0
1, 992880, Note_on_c, 1, 28, 40
1, 993840, Note_off_c, 1, 28, 0
1, 993840, Note_on_c, 1, 28, 40
1, 994560, Note_off_c, 1, 28, 0
1, 994560, Note_on_c, 1, 28, 40
1, 994800, Note_off_c, 1, 28, 0
1, 994800, Note_on_c, 1, 28, 40
1, 995760, Note_off_c, 1, 28, 0
1, 995760, Note_on_c, 1, 28, 40
1, 996480, Note_off_c, 1, 28, 0
1, 996480, Note_on_c, 1, 28, 40
1, 996720, Note_off_c, 1, 28, 0
1, 996720, Note_on_c, 1, 28, 40
1, 997680, Note_off_c, 1, 28, 0
1, 997680, Note_on_c, 1, 26, 40
1, 998400, Note_off_c, 1, 26, 0
1, 998400, Note_on_c, 1, 26, 40
1, 998640, Note_off_c, 1, 26, 0
1, 998640, Note_on_c, 1, 26, 40
1, 999600, Note_off_c, 1, 26, 0
1, 999600, Note_on_c, 1, 28, 40
1, 1000320, Note_off_c, 1, 28, 0
1, 1000320, Note_on_c, 1, 28, 40
1, 1000560, Note_off_c, 1, 28, 0
1, 1000560, Note_on_c, 1, 28, 40
1, 1001520, Note_off_c, 1, 28, 0
1, 1001520, Note_on_c, 1, 26, 40
1, 1002240, Note_off_c, 1, 26, 0
1, 1002240, Note_on_c, 1, 26, 40
1, 1002480, Note_off_c, 1, 26, 0
1, 1002480, Note_on_c, 1, 26, 40
1, 1003440, Note_off_c, 1, 26, 0
1, 1003440, Note_on_c, 1, 28, 40
1, 1004160, Note_off_c, 1, 28, 0
1, 1004160, Note_on_c, 1, 28, 40
1, 1004400, Note_off_c, 1, 28, 0
1, 1004400, Note_on_c, 1, 28, 40
1, 1005360, Note_off_c, 1, 28, 0
1, 1005360, Note_on_c, 1, 33, 40
1, 1006080, Note_off_c, 1, 33, 0
1, 1006080, Note_on_c, 1, 33, 40
1, 1006320, Note_off_c, 1, 33, 0
1, 1006320, Note_on_c, 1, 33, 40
1, 1007280, Note_off_c, 1, 33, 0
1, 1007280, Note_on_c, 1, 33, 40
1, 1007760, Note_off_c, 1, 33, 0
1, 1009200, Note_on_c, 1, 30, 40
1, 1009680, Note_off_c, 1, 30, 0
1, 1009680, Note_on_c, 1, 30, 40
1, 1010160, Note_off_c, 1, 30, 0
1, 1010160, Note_on_c, 1, 30, 40
1, 1010400, Note_off_c, 1, 30, 0
1, 1010400, Note_on_c, 1, 28, 40
1, 1010640, Note_off_c, 1, 28, 0
1, 1010640, Note_on_c, 1, 30, 40
1, 1010880, Note_off_c, 1, 30, 0
1, 1010880, Note_on_c, 1, 33, 40
1, 1011600, Note_off_c, 1, 33, 0
1, 1011600, Note_on_c, 1, 33, 40
1, 1012080, Note_off_c, 1, 33, 0
1, 1012080, Note_on_c, 1, 33, 40
1, 1012320, Note_off_c, 1, 33, 0
1, 1012320, Note_on_c, 1, 33, 40
1, 1012800, Note_off_c, 1, 33, 0
1, 1012800, Note_on_c, 1, 33, 40
1, 1013040, Note_off_c, 1, 33, 0
1, 1013040, Note_on_c, 1, 28, 40
1, 1013760, Note_off_c, 1, 28, 0
1, 1013760, Note_on_c, 1, 28, 40
1, 1014000, Note_off_c, 1, 28, 0
1, 1014000, Note_on_c, 1, 28, 40
1, 1014960, Note_off_c, 1, 28, 0
1, 1014960, Note_on_c, 1, 28, 40
1, 1015680, Note_off_c, 1, 28, 0
1, 1015680, Note_on_c, 1, 28, 40
1, 1015920, Note_off_c, 1, 28, 0
1, 1015920, Note_on_c, 1, 28, 40
1, 1016640, Note_off_c, 1, 28, 0
1, 1016640, Note_on_c, 1, 29, 40
1, 1016880, Note_off_c, 1, 29, 0
1, 1016880, Note_on_c, 1, 30, 40
1, 1017600, Note_off_c, 1, 30, 0
1, 1017600, Note_on_c, 1, 30, 40
1, 1017840, Note_off_c, 1, 30, 0
1, 1017840, Note_on_c, 1, 30, 40
1, 1018320, Note_off_c, 1, 30, 0
1, 1018320, Note_on_c, 1, 30, 40
1, 1018560, Note_off_c, 1, 30, 0
1, 1018560, Note_on_c, 1, 28, 40
1, 1018800, Note_off_c, 1, 28, 0
1, 1018800, Note_on_c, 1, 26, 40
1, 1019520, Note_off_c, 1, 26, 0
1, 1019520, Note_on_c, 1, 26, 40
1, 1019760, Note_off_c, 1, 26, 0
1, 1019760, Note_on_c, 1, 28, 40
1, 1020480, Note_off_c, 1, 28, 0
1, 1020480, Note_on_c, 1, 28, 40
1, 1020720, Note_off_c, 1, 28, 0
1, 1020720, Note_on_c, 1, 33, 40
1, 1021440, Note_off_c, 1, 33, 0
1, 1021440, Note_on_c, 1, 33, 40
1, 1021680, Note_off_c, 1, 33, 0
1, 1021680, Note_on_c, 1, 33, 40
1, 1022640, Note_off_c, 1, 33, 0
1, 1022640, Note_on_c, 1, 33, 40
1, 1023360, Note_off_c, 1, 33, 0
1, 1023360, Note_on_c, 1, 33, 40
1, 1023600, Note_off_c, 1, 33, 0
1, 1023600, Note_on_c, 1, 33, 40
1, 1024080, Note_off_c, 1, 33, 0
1, 1024080, Note_on_c, 1, 33, 40
1, 1024560, Note_off_c, 1, 33, 0
1, 1024560, Note_on_c, 1, 30, 40
1, 1025040, Note_off_c, 1, 30, 0
1, 1025040, Note_on_c, 1, 30, 40
1, 1025520, Note_off_c, 1, 30, 0
1, 1025520, Note_on_c, 1, 30, 40
1, 1025760, Note_off_c, 1, 30, 0
1, 1025760, Note_on_c, 1, 28, 40
1, 1026000, Note_off_c, 1, 28, 0
1, 1026000, Note_on_c, 1, 30, 40
1, 1026240, Note_off_c, 1, 30, 0
1, 1026240, Note_on_c, 1, 33, 40
1, 1026960, Note_off_c, 1, 33, 0
1, 1026960, Note_on_c, 1, 33, 40
1, 1027440, Note_off_c, 1, 33, 0
1, 1027440, Note_on_c, 1, 33, 40
1, 1027680, Note_off_c, 1, 33, 0
1, 1027680, Note_on_c, 1, 33, 40
1, 1028160, Note_off_c, 1, 33, 0
1, 1028160, Note_on_c, 1, 33, 40
1, 1028400, Note_off_c, 1, 33, 0
1, 1028400, Note_on_c, 1, 28, 40
1, 1029120, Note_off_c, 1, 28, 0
1, 1029120, Note_on_c, 1, 28, 40
1, 1029360, Note_off_c, 1, 28, 0
1, 1029360, Note_on_c, 1, 28, 40
1, 1030320, Note_off_c, 1, 28, 0
1, 1030320, Note_on_c, 1, 28, 40
1, 1031040, Note_off_c, 1, 28, 0
1, 1031040, Note_on_c, 1, 28, 40
1, 1031280, Note_off_c, 1, 28, 0
1, 1031280, Note_on_c, 1, 28, 40
1, 1032000, Note_off_c, 1, 28, 0
1, 1032000, Note_on_c, 1, 29, 40
1, 1032240, Note_off_c, 1, 29, 0
1, 1032240, Note_on_c, 1, 30, 40
1, 1032960, Note_off_c, 1, 30, 0
1, 1032960, Note_on_c, 1, 30, 40
1, 1033200, Note_off_c, 1, 30, 0
1, 1033200, Note_on_c, 1, 30, 40
1, 1033680, Note_off_c, 1, 30, 0
1, 1033680, Note_on_c, 1, 30, 40
1, 1033920, Note_off_c, 1, 30, 0
1, 1033920, Note_on_c, 1, 28, 40
1, 1034160, Note_off_c, 1, 28, 0
1, 1034160, Note_on_c, 1, 26, 40
1, 1034880, Note_off_c, 1, 26, 0
1, 1034880, Note_on_c, 1, 26, 40
1, 1035120, Note_off_c, 1, 26, 0
1, 1035120, Note_on_c, 1, 28, 40
1, 1035840, Note_off_c, 1, 28, 0
1, 1035840, Note_on_c, 1, 28, 40
1, 1036080, Note_off_c, 1, 28, 0
1, 1036080, Note_on_c, 1, 33, 40
1, 1036800, Note_off_c, 1, 33, 0
1, 1036800, Note_on_c, 1, 33, 40
1, 1037040, Note_off_c, 1, 33, 0
1, 1037040, Note_on_c, 1, 33, 40
1, 1038000, Note_off_c, 1, 33, 0
1, 1038000, Note_on_c, 1, 33, 40
1, 1038720, Note_off_c, 1, 33, 0
1, 1038720, Note_on_c, 1, 33, 40
1, 1038960, Note_off_c, 1, 33, 0
1, 1038960, Note_on_c, 1, 33, 40
1, 1039440, Note_off_c, 1, 33, 0
1, 1039440, Note_on_c, 1, 33, 40
1, 1039920, Note_off_c, 1, 33, 0
1, 1039920, Note_on_c, 1, 30, 40
1, 1040400, Note_off_c, 1, 30, 0
1, 1040400, Note_on_c, 1, 30, 40
1, 1040880, Note_off_c, 1, 30, 0
1, 1040880, Note_on_c, 1, 30, 40
1, 1041120, Note_off_c, 1, 30, 0
1, 1041120, Note_on_c, 1, 28, 40
1, 1041360, Note_off_c, 1, 28, 0
1, 1041360, Note_on_c, 1, 30, 40
1, 1041600, Note_off_c, 1, 30, 0
1, 1041600, Note_on_c, 1, 33, 40
1, 1042320, Note_off_c, 1, 33, 0
1, 1042320, Note_on_c, 1, 33, 40
1, 1042800, Note_off_c, 1, 33, 0
1, 1042800, Note_on_c, 1, 33, 40
1, 1043040, Note_off_c, 1, 33, 0
1, 1043040, Note_on_c, 1, 33, 40
1, 1043520, Note_off_c, 1, 33, 0
1, 1043520, Note_on_c, 1, 33, 40
1, 1043760, Note_off_c, 1, 33, 0
1, 1043760, Note_on_c, 1, 28, 40
1, 1044480, Note_off_c, 1, 28, 0
1, 1044480, Note_on_c, 1, 28, 40
1, 1044720, Note_off_c, 1, 28, 0
1, 1044720, Note_on_c, 1, 28, 40
1, 1045680, Note_off_c, 1, 28, 0
1, 1045680, Note_on_c, 1, 28, 40
1, 1046400, Note_off_c, 1, 28, 0
1, 1046400, Note_on_c, 1, 28, 40
1, 1046640, Note_off_c, 1, 28, 0
1, 1046640, Note_on_c, 1, 28, 40
1, 1047360, Note_off_c, 1, 28, 0
1, 1047360, Note_on_c, 1, 29, 40
1, 1047600, Note_off_c, 1, 29, 0
1, 1047600, Note_on_c, 1, 30, 40
1, 1048320, Note_off_c, 1, 30, 0
1, 1048320, Note_on_c, 1, 30, 40
1, 1048560, Note_off_c, 1, 30, 0
1, 1048560, Note_on_c, 1, 30, 40
1, 1049040, Note_off_c, 1, 30, 0
1, 1049040, Note_on_c, 1, 30, 40
1, 1049280, Note_off_c, 1, 30, 0
1, 1049280, Note_on_c, 1, 28, 40
1, 1049520, Note_off_c, 1, 28, 0
1, 1049520, Note_on_c, 1, 26, 40
1, 1050240, Note_off_c, 1, 26, 0
1, 1050240, Note_on_c, 1, 26, 40
1, 1050480, Note_off_c, 1, 26, 0
1, 1050480, Note_on_c, 1, 28, 40
1, 1051200, Note_off_c, 1, 28, 0
1, 1051200, Note_on_c, 1, 28, 40
1, 1051440, Note_off_c, 1, 28, 0
1, 1051440, Note_on_c, 1, 33, 40
1, 1052160, Note_off_c, 1, 33, 0
1, 1052160, Note_on_c, 1, 33, 40
1, 1052400, Note_off_c, 1, 33, 0
1, 1052400, Note_on_c, 1, 33, 40
1, 1053360, Note_off_c, 1, 33, 0
1, 1053360, Note_on_c, 1, 33, 40
1, 1054080, Note_off_c, 1, 33, 0
1, 1054080, Note_on_c, 1, 33, 40
1, 1054320, Note_off_c, 1, 33, 0
1, 1054320, Note_on_c, 1, 33, 40
1, 1054800, Note_off_c, 1, 33, 0
1, 1054800, Note_on_c, 1, 33, 40
1, 1055280, Note_off_c, 1, 33, 0
1, 1055280, Note_on_c, 1, 26, 40
1, 1056000, Note_off_c, 1, 26, 0
1, 1056000, Note_on_c, 1, 26, 40
1, 1056240, Note_off_c, 1, 26, 0
1, 1056240, Note_on_c, 1, 26, 40
1, 1056720, Note_off_c, 1, 26, 0
1, 1056720, Note_on_c, 1, 26, 40
1, 1057200, Note_off_c, 1, 26, 0
1, 1057200, Note_on_c, 1, 28, 40
1, 1057920, Note_off_c, 1, 28, 0
1, 1057920, Note_on_c, 1, 28, 40
1, 1058160, Note_off_c, 1, 28, 0
1, 1058160, Note_on_c, 1, 28, 40
1, 1059120, Note_off_c, 1, 28, 0
1, 1059120, Note_on_c, 1, 33, 40
1, 1059840, Note_off_c, 1, 33, 0
1, 1059840, Note_on_c, 1, 33, 40
1, 1060080, Note_off_c, 1, 33, 0
1, 1060080, Note_on_c, 1, 33, 40
1, 1060320, Note_off_c, 1, 33, 0
1, 1060320, Note_on_c, 1, 33, 40
1, 1060800, Note_off_c, 1, 33, 0
1, 1060800, Note_on_c, 1, 33, 40
1, 1061040, Note_off_c, 1, 33, 0
1, 1061040, Note_on_c, 1, 33, 40
1, 1061520, Note_off_c, 1, 33, 0
1, 1062000, Note_on_c, 1, 33, 40
1, 1063920, Note_off_c, 1, 33, 0
1, 1063920, Note_on_c, 1, 33, 40
1, 1065840, Note_off_c, 1, 33, 0
1, 1065840, Note_on_c, 1, 33, 40
1, 1067760, Note_off_c, 1, 33, 0
1, 1067760, Note_on_c, 1, 33, 40
1, 1069680, Note_off_c, 1, 33, 0
1, 1069680, Note_on_c, 1, 33, 40
1, 1070640, Note_off_c, 1, 33, 0
1, 1076400, Note_on_c, 1, 43, 40
1, 1077120, Note_off_c, 1, 43, 0
1, 1077120, Note_on_c, 1, 38, 40
1, 1077840, Note_off_c, 1, 38, 0
1, 1077840, Note_on_c, 1, 43, 40
1, 1078320, Note_off_c, 1, 43, 0
1, 1078320, Note_on_c, 1, 40, 40
1, 1079040, Note_off_c, 1, 40, 0
1, 1079040, Note_on_c, 1, 47, 40
1, 1079760, Note_off_c, 1, 47, 0
1, 1079760, Note_on_c, 1, 40, 40
1, 1080240, Note_off_c, 1, 40, 0
1, 1080240, Note_on_c, 1, 43, 40
1, 1080960, Note_off_c, 1, 43, 0
1, 1080960, Note_on_c, 1, 38, 40
1, 1081680, Note_off_c, 1, 38, 0
1, 1081680, Note_on_c, 1, 43, 40
1, 1082160, Note_off_c, 1, 43, 0
1, 1082160, Note_on_c, 1, 40, 40
1, 1082880, Note_off_c, 1, 40, 0
1, 1082880, Note_on_c, 1, 47, 40
1, 1083600, Note_off_c, 1, 47, 0
1, 1083600, Note_on_c, 1, 40, 40
1, 1084080, Note_off_c, 1, 40, 0
1, 1084080, Note_on_c, 1, 43, 40
1, 1084800, Note_off_c, 1, 43, 0
1, 1084800, Note_on_c, 1, 38, 40
1, 1085520, Note_off_c, 1, 38, 0
1, 1085520, Note_on_c, 1, 43, 40
1, 1086000, Note_off_c, 1, 43, 0
1, 1086000, Note_on_c, 1, 40, 40
1, 1086240, Note_off_c, 1, 40, 0
1, 1087920, Note_on_c, 1, 36, 40
1, 1088640, Note_off_c, 1, 36, 0
1, 1088640, Note_on_c, 1, 43, 40
1, 1089360, Note_off_c, 1, 43, 0
1, 1089360, Note_on_c, 1, 43, 40
1, 1089600, Note_off_c, 1, 43, 0
1, 1089600, Note_on_c, 1, 35, 40
1, 1089840, Note_off_c, 1, 35, 0
1, 1089840, Note_on_c, 1, 36, 40
1, 1090560, Note_off_c, 1, 36, 0
1, 1090560, Note_on_c, 1, 43, 40
1, 1091280, Note_off_c, 1, 43, 0
1, 1091280, Note_on_c, 1, 43, 40
1, 1091520, Note_off_c, 1, 43, 0
1, 1091520, Note_on_c, 1, 38, 40
1, 1091760, Note_off_c, 1, 38, 0
1, 1091760, Note_on_c, 1, 43, 40
1, 1092480, Note_off_c, 1, 43, 0
1, 1092480, Note_on_c, 1, 43, 40
1, 1093200, Note_off_c, 1, 43, 0
1, 1093200, Note_on_c, 1, 38, 40
1, 1093440, Note_off_c, 1, 38, 0
1, 1093440, Note_on_c, 1, 42, 40
1, 1093680, Note_off_c, 1, 42, 0
1, 1093680, Note_on_c, 1, 43, 40
1, 1094400, Note_off_c, 1, 43, 0
1, 1094400, Note_on_c, 1, 43, 40
1, 1095120, Note_off_c, 1, 43, 0
1, 1095120, Note_on_c, 1, 43, 40
1, 1095600, Note_off_c, 1, 43, 0
1, 1095600, Note_on_c, 1, 36, 40
1, 1096320, Note_off_c, 1, 36, 0
1, 1096320, Note_on_c, 1, 43, 40
1, 1097040, Note_off_c, 1, 43, 0
1, 1097040, Note_on_c, 1, 43, 40
1, 1097520, Note_off_c, 1, 43, 0
1, 1097520, Note_on_c, 1, 36, 40
1, 1098240, Note_off_c, 1, 36, 0
1, 1098240, Note_on_c, 1, 43, 40
1, 1098960, Note_off_c, 1, 43, 0
1, 1098960, Note_on_c, 1, 43, 40
1, 1099200, Note_off_c, 1, 43, 0
1, 1099200, Note_on_c, 1, 38, 40
1, 1099440, Note_off_c, 1, 38, 0
1, 1099440, Note_on_c, 1, 43, 40
1, 1100160, Note_off_c, 1, 43, 0
1, 1100160, Note_on_c, 1, 38, 40
1, 1100880, Note_off_c, 1, 38, 0
1, 1100880, Note_on_c, 1, 38, 40
1, 1101120, Note_off_c, 1, 38, 0
1, 1101120, Note_on_c, 1, 42, 40
1, 1101360, Note_off_c, 1, 42, 0
1, 1101360, Note_on_c, 1, 43, 40
1, 1102080, Note_off_c, 1, 43, 0
1, 1102080, Note_on_c, 1, 43, 40
1, 1102560, Note_off_c, 1, 43, 0
1, 1102560, Note_on_c, 1, 38, 40
1, 1102800, Note_off_c, 1, 38, 0
1, 1102800, Note_on_c, 1, 43, 40
1, 1103040, Note_off_c, 1, 43, 0
1, 1103040, Note_on_c, 1, 42, 40
1, 1103280, Note_off_c, 1, 42, 0
1, 1103280, Note_on_c, 1, 40, 40
1, 1104000, Note_off_c, 1, 40, 0
1, 1104000, Note_on_c, 1, 40, 40
1, 1104720, Note_off_c, 1, 40, 0
1, 1104720, Note_on_c, 1, 47, 40
1, 1105200, Note_off_c, 1, 47, 0
1, 1105200, Note_on_c, 1, 40, 40
1, 1105920, Note_off_c, 1, 40, 0
1, 1105920, Note_on_c, 1, 40, 40
1, 1106640, Note_off_c, 1, 40, 0
1, 1106640, Note_on_c, 1, 40, 40
1, 1107120, Note_off_c, 1, 40, 0
1, 1107120, Note_on_c, 1, 45, 40
1, 1107840, Note_off_c, 1, 45, 0
1, 1107840, Note_on_c, 1, 45, 40
1, 1108560, Note_off_c, 1, 45, 0
1, 1108560, Note_on_c, 1, 40, 40
1, 1108800, Note_off_c, 1, 40, 0
1, 1108800, Note_on_c, 1, 43, 40
1, 1109040, Note_off_c, 1, 43, 0
1, 1109040, Note_on_c, 1, 45, 40
1, 1109760, Note_off_c, 1, 45, 0
1, 1109760, Note_on_c, 1, 45, 40
1, 1110480, Note_off_c, 1, 45, 0
1, 1110480, Note_on_c, 1, 45, 40
1, 1110720, Note_off_c, 1, 45, 0
1, 1110720, Note_on_c, 1, 38, 40
1, 1110960, Note_off_c, 1, 38, 0
1, 1110960, Note_on_c, 1, 43, 40
1, 1111680, Note_off_c, 1, 43, 0
1, 1111680, Note_on_c, 1, 43, 40
1, 1112160, Note_off_c, 1, 43, 0
1, 1112160, Note_on_c, 1, 38, 40
1, 1112400, Note_off_c, 1, 38, 0
1, 1112400, Note_on_c, 1, 43, 40
1, 1112640, Note_off_c, 1, 43, 0
1, 1112640, Note_on_c, 1, 42, 40
1, 1112880, Note_off_c, 1, 42, 0
1, 1112880, Note_on_c, 1, 40, 40
1, 1113600, Note_off_c, 1, 40, 0
1, 1113600, Note_on_c, 1, 40, 40
1, 1114320, Note_off_c, 1, 40, 0
1, 1114320, Note_on_c, 1, 40, 40
1, 1114800, Note_off_c, 1, 40, 0
1, 1114800, Note_on_c, 1, 36, 40
1, 1115520, Note_off_c, 1, 36, 0
1, 1115520, Note_on_c, 1, 43, 40
1, 1116240, Note_off_c, 1, 43, 0
1, 1116240, Note_on_c, 1, 36, 40
1, 1116720, Note_off_c, 1, 36, 0
1, 1116720, Note_on_c, 1, 38, 40
1, 1117440, Note_off_c, 1, 38, 0
1, 1117440, Note_on_c, 1, 45, 40
1, 1118160, Note_off_c, 1, 45, 0
1, 1118160, Note_on_c, 1, 45, 40
1, 1118640, Note_off_c, 1, 45, 0
1, 1118640, Note_on_c, 1, 38, 40
1, 1118880, Note_off_c, 1, 38, 0
1, 1120560, Note_on_c, 1, 43, 40
1, 1121280, Note_off_c, 1, 43, 0
1, 1121280, Note_on_c, 1, 38, 40
1, 1122000, Note_off_c, 1, 38, 0
1, 1122000, Note_on_c, 1, 43, 40
1, 1122240, Note_off_c, 1, 43, 0
1, 1122240, Note_on_c, 1, 42, 40
1, 1122480, Note_off_c, 1, 42, 0
1, 1122480, Note_on_c, 1, 40, 40
1, 1123200, Note_off_c, 1, 40, 0
1, 1123200, Note_on_c, 1, 35, 40
1, 1123920, Note_off_c, 1, 35, 0
1, 1123920, Note_on_c, 1, 40, 40
1, 1124400, Note_off_c, 1, 40, 0
1, 1124400, Note_on_c, 1, 43, 40
1, 1125120, Note_off_c, 1, 43, 0
1, 1125120, Note_on_c, 1, 38, 40
1, 1125840, Note_off_c, 1, 38, 0
1, 1125840, Note_on_c, 1, 43, 40
1, 1126320, Note_off_c, 1, 43, 0
1, 1126320, Note_on_c, 1, 40, 40
1, 1127040, Note_off_c, 1, 40, 0
1, 1127040, Note_on_c, 1, 35, 40
1, 1127760, Note_off_c, 1, 35, 0
1, 1127760, Note_on_c, 1, 40, 40
1, 1128240, Note_off_c, 1, 40, 0
1, 1128240, Note_on_c, 1, 36, 40
1, 1128960, Note_off_c, 1, 36, 0
1, 1128960, Note_on_c, 1, 43, 40
1, 1129680, Note_off_c, 1, 43, 0
1, 1129680, Note_on_c, 1, 43, 40
1, 1129920, Note_off_c, 1, 43, 0
1, 1129920, Note_on_c, 1, 35, 40
1, 1130160, Note_off_c, 1, 35, 0
1, 1130160, Note_on_c, 1, 36, 40
1, 1130880, Note_off_c, 1, 36, 0
1, 1130880, Note_on_c, 1, 43, 40
1, 1131600, Note_off_c, 1, 43, 0
1, 1131600, Note_on_c, 1, 43, 40
1, 1131840, Note_off_c, 1, 43, 0
1, 1131840, Note_on_c, 1, 38, 40
1, 1132080, Note_off_c, 1, 38, 0
1, 1132080, Note_on_c, 1, 43, 40
1, 1132800, Note_off_c, 1, 43, 0
1, 1132800, Note_on_c, 1, 43, 40
1, 1133520, Note_off_c, 1, 43, 0
1, 1133520, Note_on_c, 1, 38, 40
1, 1133760, Note_off_c, 1, 38, 0
1, 1133760, Note_on_c, 1, 42, 40
1, 1134000, Note_off_c, 1, 42, 0
1, 1134000, Note_on_c, 1, 43, 40
1, 1134720, Note_off_c, 1, 43, 0
1, 1134720, Note_on_c, 1, 43, 40
1, 1135440, Note_off_c, 1, 43, 0
1, 1135440, Note_on_c, 1, 43, 40
1, 1135920, Note_off_c, 1, 43, 0
1, 1135920, Note_on_c, 1, 36, 40
1, 1136640, Note_off_c, 1, 36, 0
1, 1136640, Note_on_c, 1, 43, 40
1, 1137360, Note_off_c, 1, 43, 0
1, 1137360, Note_on_c, 1, 43, 40
1, 1137840, Note_off_c, 1, 43, 0
1, 1137840, Note_on_c, 1, 36, 40
1, 1138560, Note_off_c, 1, 36, 0
1, 1138560, Note_on_c, 1, 43, 40
1, 1139280, Note_off_c, 1, 43, 0
1, 1139280, Note_on_c, 1, 43, 40
1, 1139520, Note_off_c, 1, 43, 0
1, 1139520, Note_on_c, 1, 38, 40
1, 1139760, Note_off_c, 1, 38, 0
1, 1139760, Note_on_c, 1, 43, 40
1, 1140480, Note_off_c, 1, 43, 0
1, 1140480, Note_on_c, 1, 38, 40
1, 1141200, Note_off_c, 1, 38, 0
1, 1141200, Note_on_c, 1, 38, 40
1, 1141440, Note_off_c, 1, 38, 0
1, 1141440, Note_on_c, 1, 42, 40
1, 1141680, Note_off_c, 1, 42, 0
1, 1141680, Note_on_c, 1, 43, 40
1, 1142400, Note_off_c, 1, 43, 0
1, 1142400, Note_on_c, 1, 43, 40
1, 1142880, Note_off_c, 1, 43, 0
1, 1142880, Note_on_c, 1, 38, 40
1, 1143120, Note_off_c, 1, 38, 0
1, 1143120, Note_on_c, 1, 43, 40
1, 1143360, Note_off_c, 1, 43, 0
1, 1143360, Note_on_c, 1, 42, 40
1, 1143600, Note_off_c, 1, 42, 0
1, 1143600, Note_on_c, 1, 40, 40
1, 1144320, Note_off_c, 1, 40, 0
1, 1144320, Note_on_c, 1, 40, 40
1, 1145040, Note_off_c, 1, 40, 0
1, 1145040, Note_on_c, 1, 47, 40
1, 1145520, Note_off_c, 1, 47, 0
1, 1145520, Note_on_c, 1, 40, 40
1, 1146240, Note_off_c, 1, 40, 0
1, 1146240, Note_on_c, 1, 40, 40
1, 1146960, Note_off_c, 1, 40, 0
1, 1146960, Note_on_c, 1, 40, 40
1, 1147440, Note_off_c, 1, 40, 0
1, 1147440, Note_on_c, 1, 45, 40
1, 1148160, Note_off_c, 1, 45, 0
1, 1148160, Note_on_c, 1, 45, 40
1, 1148880, Note_off_c, 1, 45, 0
1, 1148880, Note_on_c, 1, 40, 40
1, 1149120, Note_off_c, 1, 40, 0
1, 1149120, Note_on_c, 1, 43, 40
1, 1149360, Note_off_c, 1, 43, 0
1, 1149360, Note_on_c, 1, 45, 40
1, 1150080, Note_off_c, 1, 45, 0
1, 1150080, Note_on_c, 1, 45, 40
1, 1150800, Note_off_c, 1, 45, 0
1, 1150800, Note_on_c, 1, 45, 40
1, 1151040, Note_off_c, 1, 45, 0
1, 1151040, Note_on_c, 1, 38, 40
1, 1151280, Note_off_c, 1, 38, 0
1, 1151280, Note_on_c, 1, 43, 40
1, 1152000, Note_off_c, 1, 43, 0
1, 1152000, Note_on_c, 1, 43, 40
1, 1152480, Note_off_c, 1, 43, 0
1, 1152480, Note_on_c, 1, 38, 40
1, 1152720, Note_off_c, 1, 38, 0
1, 1152720, Note_on_c, 1, 43, 40
1, 1152960, Note_off_c, 1, 43, 0
1, 1152960, Note_on_c, 1, 42, 40
1, 1153200, Note_off_c, 1, 42, 0
1, 1153200, Note_on_c, 1, 40, 40
1, 1153920, Note_off_c, 1, 40, 0
1, 1153920, Note_on_c, 1, 40, 40
1, 1154640, Note_off_c, 1, 40, 0
1, 1154640, Note_on_c, 1, 40, 40
1, 1155120, Note_off_c, 1, 40, 0
1, 1155120, Note_on_c, 1, 36, 40
1, 1155840, Note_off_c, 1, 36, 0
1, 1155840, Note_on_c, 1, 43, 40
1, 1156560, Note_off_c, 1, 43, 0
1, 1156560, Note_on_c, 1, 36, 40
1, 1157040, Note_off_c, 1, 36, 0
1, 1157040, Note_on_c, 1, 38, 40
1, 1157760, Note_off_c, 1, 38, 0
1, 1157760, Note_on_c, 1, 45, 40
1, 1158480, Note_off_c, 1, 45, 0
1, 1158480, Note_on_c, 1, 45, 40
1, 1158960, Note_off_c, 1, 45, 0
1, 1158960, Note_on_c, 1, 38, 40
1, 1159200, Note_off_c, 1, 38, 0
1, 1160880, Note_on_c, 1, 43, 40
1, 1161600, Note_off_c, 1, 43, 0
1, 1161600, Note_on_c, 1, 38, 40
1, 1162320, Note_off_c, 1, 38, 0
1, 1162320, Note_on_c, 1, 43, 40
1, 1162560, Note_off_c, 1, 43, 0
1, 1162560, Note_on_c, 1, 42, 40
1, 1162800, Note_off_c, 1, 42, 0
1, 1162800, Note_on_c, 1, 40, 40
1, 1163520, Note_off_c, 1, 40, 0
1, 1163520, Note_on_c, 1, 35, 40
1, 1164240, Note_off_c, 1, 35, 0
1, 1164240, Note_on_c, 1, 40, 40
1, 1164720, Note_off_c, 1, 40, 0
1, 1164720, Note_on_c, 1, 43, 40
1, 1165440, Note_off_c, 1, 43, 0
1, 1165440, Note_on_c, 1, 38, 40
1, 1166160, Note_off_c, 1, 38, 0
1, 1166160, Note_on_c, 1, 43, 40
1, 1166640, Note_off_c, 1, 43, 0
1, 1166640, Note_on_c, 1, 40, 40
1, 1167360, Note_off_c, 1, 40, 0
1, 1167360, Note_on_c, 1, 35, 40
1, 1168080, Note_off_c, 1, 35, 0
1, 1168080, Note_on_c, 1, 40, 40
1, 1168560, Note_off_c, 1, 40, 0
1, 1168560, Note_on_c, 1, 36, 40
1, 1169280, Note_off_c, 1, 36, 0
1, 1169280, Note_on_c, 1, 43, 40
1, 1170000, Note_off_c, 1, 43, 0
1, 1170000, Note_on_c, 1, 36, 40
1, 1170480, Note_off_c, 1, 36, 0
1, 1170480, Note_on_c, 1, 38, 40
1, 1171200, Note_off_c, 1, 38, 0
1, 1171200, Note_on_c, 1, 45, 40
1, 1171680, Note_off_c, 1, 45, 0
1, 1171680, Note_on_c, 1, 38, 40
1, 1171920, Note_off_c, 1, 38, 0
1, 1171920, Note_on_c, 1, 40, 40
1, 1172160, Note_off_c, 1, 40, 0
1, 1172160, Note_on_c, 1, 42, 40
1, 1172400, Note_off_c, 1, 42, 0
1, 1172400, Note_on_c, 1, 43, 40
1, 1173120, Note_off_c, 1, 43, 0
1, 1173120, Note_on_c, 1, 38, 40
1, 1173840, Note_off_c, 1, 38, 0
1, 1173840, Note_on_c, 1, 38, 40
1, 1174080, Note_off_c, 1, 38, 0
1, 1174080, Note_on_c, 1, 42, 40
1, 1174320, Note_off_c, 1, 42, 0
1, 1174320, Note_on_c, 1, 43, 40
1, 1175040, Note_off_c, 1, 43, 0
1, 1175040, Note_on_c, 1, 43, 40
1, 1175760, Note_off_c, 1, 43, 0
1, 1175760, Note_on_c, 1, 43, 40
1, 1176240, Note_off_c, 1, 43, 0
1, 1176240, Note_on_c, 1, 36, 40
1, 1176960, Note_off_c, 1, 36, 0
1, 1176960, Note_on_c, 1, 43, 40
1, 1177680, Note_off_c, 1, 43, 0
1, 1177680, Note_on_c, 1, 36, 40
1, 1178160, Note_off_c, 1, 36, 0
1, 1178160, Note_on_c, 1, 38, 40
1, 1178880, Note_off_c, 1, 38, 0
1, 1178880, Note_on_c, 1, 45, 40
1, 1179600, Note_off_c, 1, 45, 0
1, 1179600, Note_on_c, 1, 38, 40
1, 1179840, Note_off_c, 1, 38, 0
1, 1179840, Note_on_c, 1, 42, 40
1, 1180080, Note_off_c, 1, 42, 0
1, 1180080, Note_on_c, 1, 43, 40
1, 1180800, Note_off_c, 1, 43, 0
1, 1180800, Note_on_c, 1, 43, 40
1, 1181520, Note_off_c, 1, 43, 0
1, 1181520, Note_on_c, 1, 38, 40
1, 1181760, Note_off_c, 1, 38, 0
1, 1181760, Note_on_c, 1, 42, 40
1, 1182000, Note_off_c, 1, 42, 0
1, 1182000, Note_on_c, 1, 43, 40
1, 1182720, Note_off_c, 1, 43, 0
1, 1182720, Note_on_c, 1, 43, 40
1, 1182960, Note_off_c, 1, 43, 0
1, 1182960, Note_on_c, 1, 35, 40
1, 1183200, Note_off_c, 1, 35, 0
1, 1183200, Note_on_c, 1, 38, 40
1, 1183440, Note_off_c, 1, 38, 0
1, 1183440, Note_on_c, 1, 43, 40
1, 1183680, Note_off_c, 1, 43, 0
1, 1183680, Note_on_c, 1, 42, 40
1, 1183920, Note_off_c, 1, 42, 0
1, 1183920, Note_on_c, 1, 40, 40
1, 1184640, Note_off_c, 1, 40, 0
1, 1184640, Note_on_c, 1, 40, 40
1, 1185360, Note_off_c, 1, 40, 0
1, 1185360, Note_on_c, 1, 47, 40
1, 1185840, Note_off_c, 1, 47, 0
1, 1185840, Note_on_c, 1, 40, 40
1, 1186560, Note_off_c, 1, 40, 0
1, 1186560, Note_on_c, 1, 40, 40
1, 1187280, Note_off_c, 1, 40, 0
1, 1187280, Note_on_c, 1, 40, 40
1, 1187760, Note_off_c, 1, 40, 0
1, 1187760, Note_on_c, 1, 45, 40
1, 1188480, Note_off_c, 1, 45, 0
1, 1188480, Note_on_c, 1, 45, 40
1, 1189200, Note_off_c, 1, 45, 0
1, 1189200, Note_on_c, 1, 40, 40
1, 1189440, Note_off_c, 1, 40, 0
1, 1189440, Note_on_c, 1, 43, 40
1, 1189680, Note_off_c, 1, 43, 0
1, 1189680, Note_on_c, 1, 45, 40
1, 1190400, Note_off_c, 1, 45, 0
1, 1190400, Note_on_c, 1, 45, 40
1, 1191120, Note_off_c, 1, 45, 0
1, 1191120, Note_on_c, 1, 45, 40
1, 1191360, Note_off_c, 1, 45, 0
1, 1191360, Note_on_c, 1, 38, 40
1, 1191600, Note_off_c, 1, 38, 0
1, 1191600, Note_on_c, 1, 43, 40
1, 1192320, Note_off_c, 1, 43, 0
1, 1192320, Note_on_c, 1, 43, 40
1, 1192800, Note_off_c, 1, 43, 0
1, 1192800, Note_on_c, 1, 38, 40
1, 1193040, Note_off_c, 1, 38, 0
1, 1193040, Note_on_c, 1, 43, 40
1, 1193280, Note_off_c, 1, 43, 0
1, 1193280, Note_on_c, 1, 42, 40
1, 1193520, Note_off_c, 1, 42, 0
1, 1193520, Note_on_c, 1, 40, 40
1, 1194240, Note_off_c, 1, 40, 0
1, 1194240, Note_on_c, 1, 40, 40
1, 1194960, Note_off_c, 1, 40, 0
1, 1194960, Note_on_c, 1, 40, 40
1, 1195440, Note_off_c, 1, 40, 0
1, 1195440, Note_on_c, 1, 36, 40
1, 1196160, Note_off_c, 1, 36, 0
1, 1196160, Note_on_c, 1, 43, 40
1, 1196880, Note_off_c, 1, 43, 0
1, 1196880, Note_on_c, 1, 36, 40
1, 1197360, Note_off_c, 1, 36, 0
1, 1197360, Note_on_c, 1, 38, 40
1, 1198080, Note_off_c, 1, 38, 0
1, 1198080, Note_on_c, 1, 45, 40
1, 1198800, Note_off_c, 1, 45, 0
1, 1198800, Note_on_c, 1, 45, 40
1, 1199280, Note_off_c, 1, 45, 0
1, 1199280, Note_on_c, 1, 38, 40
1, 1199520, Note_off_c, 1, 38, 0
1, 1201200, Note_on_c, 1, 43, 40
1, 1201920, Note_off_c, 1, 43, 0
1, 1201920, Note_on_c, 1, 38, 40
1, 1202640, Note_off_c, 1, 38, 0
1, 1202640, Note_on_c, 1, 43, 40
1, 1202880, Note_off_c, 1, 43, 0
1, 1202880, Note_on_c, 1, 42, 40
1, 1203120, Note_off_c, 1, 42, 0
1, 1203120, Note_on_c, 1, 40, 40
1, 1203840, Note_off_c, 1, 40, 0
1, 1203840, Note_on_c, 1, 35, 40
1, 1204560, Note_off_c, 1, 35, 0
1, 1204560, Note_on_c, 1, 40, 40
1, 1205040, Note_off_c, 1, 40, 0
1, 1205040, Note_on_c, 1, 43, 40
1, 1205760, Note_off_c, 1, 43, 0
1, 1205760, Note_on_c, 1, 38, 40
1, 1206480, Note_off_c, 1, 38, 0
1, 1206480, Note_on_c, 1, 43, 40
1, 1206960, Note_off_c, 1, 43, 0
1, 1206960, Note_on_c, 1, 40, 40
1, 1207680, Note_off_c, 1, 40, 0
1, 1207680, Note_on_c, 1, 47, 40
1, 1208400, Note_off_c, 1, 47, 0
1, 1208400, Note_on_c, 1, 40, 40
1, 1208880, Note_off_c, 1, 40, 0
1, 1208880, Note_on_c, 1, 43, 40
1, 1209600, Note_off_c, 1, 43, 0
1, 1209600, Note_on_c, 1, 38, 40
1, 1210320, Note_off_c, 1, 38, 0
1, 1210320, Note_on_c, 1, 43, 40
1, 1210800, Note_off_c, 1, 43, 0
1, 1210800, Note_on_c, 1, 40, 40
1, 1211520, Note_off_c, 1, 40, 0
1, 1211520, Note_on_c, 1, 47, 40
1, 1212240, Note_off_c, 1, 47, 0
1, 1212240, Note_on_c, 1, 40, 40
1, 1212720, Note_off_c, 1, 40, 0
1, 1212720, Note_on_c, 1, 43, 40
1, 1213440, Note_off_c, 1, 43, 0
1, 1213440, Note_on_c, 1, 38, 40
1, 1214160, Note_off_c, 1, 38, 0
1, 1214160, Note_on_c, 1, 43, 40
1, 1214640, Note_off_c, 1, 43, 0
1, 1214640, Note_on_c, 1, 40, 40
1, 1215360, Note_off_c, 1, 40, 0
1, 1215360, Note_on_c, 1, 47, 40
1, 1216080, Note_off_c, 1, 47, 0
1, 1216080, Note_on_c, 1, 40, 40
1, 1216560, Note_off_c, 1, 40, 0
1, 1216560, Note_on_c, 1, 43, 40
1, 1217280, Note_off_c, 1, 43, 0
1, 1217280, Note_on_c, 1, 38, 40
1, 1218000, Note_off_c, 1, 38, 0
1, 1218000, Note_on_c, 1, 43, 40
1, 1218480, Note_off_c, 1, 43, 0
1, 1218480, Note_on_c, 1, 40, 40
1, 1219200, Note_off_c, 1, 40, 0
1, 1219200, Note_on_c, 1, 47, 40
1, 1219920, Note_off_c, 1, 47, 0
1, 1219920, Note_on_c, 1, 40, 40
1, 1220400, Note_off_c, 1, 40, 0
1, 1220400, Note_on_c, 1, 43, 40
1, 1221120, Note_off_c, 1, 43, 0
1, 1221120, Note_on_c, 1, 38, 40
1, 1221840, Note_off_c, 1, 38, 0
1, 1221840, Note_on_c, 1, 43, 40
1, 1222320, Note_off_c, 1, 43, 0
1, 1222320, Note_on_c, 1, 40, 40
1, 1223040, Note_off_c, 1, 40, 0
1, 1223040, Note_on_c, 1, 47, 40
1, 1223760, Note_off_c, 1, 47, 0
1, 1223760, Note_on_c, 1, 40, 40
1, 1224240, Note_off_c, 1, 40, 0
1, 1224240, Note_on_c, 1, 43, 40
1, 1224960, Note_off_c, 1, 43, 0
1, 1224960, Note_on_c, 1, 38, 40
1, 1225680, Note_off_c, 1, 38, 0
1, 1225680, Note_on_c, 1, 43, 40
1, 1226160, Note_off_c, 1, 43, 0
1, 1226160, Note_on_c, 1, 40, 40
1, 1226880, Note_off_c, 1, 40, 0
1, 1226880, Note_on_c, 1, 47, 40
1, 1227600, Note_off_c, 1, 47, 0
1, 1227600, Note_on_c, 1, 40, 40
1, 1228080, Note_off_c, 1, 40, 0
1, 1228080, Note_on_c, 1, 43, 40
1, 1228800, Note_off_c, 1, 43, 0
1, 1228800, Note_on_c, 1, 38, 40
1, 1229520, Note_off_c, 1, 38, 0
1, 1229520, Note_on_c, 1, 43, 40
1, 1230000, Note_off_c, 1, 43, 0
1, 1230000, Note_on_c, 1, 40, 40
1, 1230720, Note_off_c, 1, 40, 0
1, 1230720, Note_on_c, 1, 47, 40
1, 1231440, Note_off_c, 1, 47, 0
1, 1231440, Note_on_c, 1, 40, 40
1, 1231920, Note_off_c, 1, 40, 0
1, 1231920, Note_on_c, 1, 43, 40
1, 1232640, Note_off_c, 1, 43, 0
1, 1232640, Note_on_c, 1, 38, 40
1, 1233360, Note_off_c, 1, 38, 0
1, 1233360, Note_on_c, 1, 43, 40
1, 1233840, Note_off_c, 1, 43, 0
1, 1238760, Note_on_c, 1, 42, 40
1, 1239000, Note_off_c, 1, 42, 0
1, 1239000, Note_on_c, 1, 44, 40
1, 1239240, Note_off_c, 1, 44, 0
1, 1239240, Note_on_c, 1, 46, 40
1, 1239600, Note_off_c, 1, 46, 0
1, 1239600, Note_on_c, 1, 47, 40
1, 1240200, Note_off_c, 1, 47, 0
1, 1240200, Note_on_c, 1, 47, 40
1, 1240680, Note_off_c, 1, 47, 0
1, 1241040, Note_on_c, 1, 42, 40
1, 1241760, Note_off_c, 1, 42, 0
1, 1241760, Note_on_c, 1, 49, 40
1, 1242360, Note_off_c, 1, 49, 0
1, 1242360, Note_on_c, 1, 40, 40
1, 1243080, Note_off_c, 1, 40, 0
1, 1243080, Note_on_c, 1, 47, 40
1, 1243680, Note_off_c, 1, 47, 0
1, 1243680, Note_on_c, 1, 42, 40
1, 1244160, Note_off_c, 1, 42, 0
1, 1244640, Note_on_c, 1, 44, 40
1, 1244880, Note_off_c, 1, 44, 0
1, 1244880, Note_on_c, 1, 46, 40
1, 1245120, Note_off_c, 1, 46, 0
1, 1245120, Note_on_c, 1, 47, 40
1, 1245840, Note_off_c, 1, 47, 0
1, 1245840, Note_on_c, 1, 40, 40
1, 1246560, Note_off_c, 1, 40, 0
1, 1246560, Note_on_c, 1, 47, 40
1, 1247280, Note_off_c, 1, 47, 0
1, 1247280, Note_on_c, 1, 42, 40
1, 1247520, Note_off_c, 1, 42, 0
1, 1247520, Note_on_c, 1, 44, 40
1, 1247640, Note_off_c, 1, 44, 0
1, 1247760, Note_on_c, 1, 46, 40
1, 1247880, Note_off_c, 1, 46, 0
1, 1248000, Note_on_c, 1, 47, 40
1, 1248720, Note_off_c, 1, 47, 0
1, 1248720, Note_on_c, 1, 42, 40
1, 1249440, Note_off_c, 1, 42, 0
1, 1249440, Note_on_c, 1, 47, 40
1, 1250160, Note_off_c, 1, 47, 0
1, 1250160, Note_on_c, 1, 42, 40
1, 1250640, Note_off_c, 1, 42, 0
1, 1251000, Note_on_c, 1, 47, 40
1, 1251720, Note_off_c, 1, 47, 0
1, 1252080, Note_on_c, 1, 51, 40
1, 1252320, Note_off_c, 1, 51, 0
1, 1252320, Note_on_c, 1, 52, 40
1, 1253040, Note_off_c, 1, 52, 0
1, 1253040, Note_on_c, 1, 47, 40
1, 1253760, Note_off_c, 1, 47, 0
1, 1253760, Note_on_c, 1, 52, 40
1, 1254480, Note_off_c, 1, 52, 0
1, 1254480, Note_on_c, 1, 47, 40
1, 1254960, Note_off_c, 1, 47, 0
1, 1254960, Note_on_c, 1, 52, 40
1, 1255080, Note_off_c, 1, 52, 0
1, 1255200, Note_on_c, 1, 47, 40
1, 1255680, Note_off_c, 1, 47, 0
1, 1255920, Note_on_c, 1, 42, 40
1, 1256160, Note_off_c, 1, 42, 0
1, 1256160, Note_on_c, 1, 44, 40
1, 1256400, Note_off_c, 1, 44, 0
1, 1256400, Note_on_c, 1, 46, 40
1, 1256520, Note_off_c, 1, 46, 0
1, 1256640, Note_on_c, 1, 47, 40
1, 1257240, Note_off_c, 1, 47, 0
1, 1257360, Note_on_c, 1, 42, 40
1, 1257480, Note_off_c, 1, 42, 0
1, 1257600, Note_on_c, 1, 44, 40
1, 1257720, Note_off_c, 1, 44, 0
1, 1257840, Note_on_c, 1, 46, 40
1, 1257960, Note_off_c, 1, 46, 0
1, 1258080, Note_on_c, 1, 47, 40
1, 1258800, Note_off_c, 1, 47, 0
1, 1258920, Note_on_c, 1, 47, 40
1, 1259400, Note_off_c, 1, 47, 0
1, 1259520, Note_on_c, 1, 42, 40
1, 1260120, Note_off_c, 1, 42, 0
1, 1260240, Note_on_c, 1, 49, 40
1, 1260840, Note_off_c, 1, 49, 0
1, 1260960, Note_on_c, 1, 40, 40
1, 1261680, Note_off_c, 1, 40, 0
1, 1261680, Note_on_c, 1, 47, 40
1, 1262280, Note_off_c, 1, 47, 0
1, 1262400, Note_on_c, 1, 42, 40
1, 1262880, Note_off_c, 1, 42, 0
1, 1263120, Note_on_c, 1, 42, 40
1, 1263360, Note_off_c, 1, 42, 0
1, 1263360, Note_on_c, 1, 44, 40
1, 1263600, Note_off_c, 1, 44, 0
1, 1263600, Note_on_c, 1, 46, 40
1, 1263840, Note_off_c, 1, 46, 0
1, 1263840, Note_on_c, 1, 47, 40
1, 1264560, Note_off_c, 1, 47, 0
1, 1264560, Note_on_c, 1, 40, 40
1, 1265280, Note_off_c, 1, 40, 0
1, 1265280, Note_on_c, 1, 47, 40
1, 1266120, Note_off_c, 1, 47, 0
1, 1266120, Note_on_c, 1, 42, 40
1, 1266720, Note_off_c, 1, 42, 0
1, 1266720, Note_on_c, 1, 47, 40
1, 1267440, Note_off_c, 1, 47, 0
1, 1267440, Note_on_c, 1, 42, 40
1, 1268040, Note_off_c, 1, 42, 0
1, 1268160, Note_on_c, 1, 47, 40
1, 1268880, Note_off_c, 1, 47, 0
1, 1268880, Note_on_c, 1, 42, 40
1, 1269600, Note_off_c, 1, 42, 0
1, 1269600, Note_on_c, 1, 47, 40
1, 1270320, Note_off_c, 1, 47, 0
1, 1270440, Note_on_c, 1, 51, 40
1, 1271040, Note_off_c, 1, 51, 0
1, 1271040, Note_on_c, 1, 52, 40
1, 1271760, Note_off_c, 1, 52, 0
1, 1271760, Note_on_c, 1, 47, 40
1, 1272480, Note_off_c, 1, 47, 0
1, 1272480, Note_on_c, 1, 52, 40
1, 1273080, Note_off_c, 1, 52, 0
1, 1273200, Note_on_c, 1, 52, 40
1, 1273680, Note_off_c, 1, 52, 0
1, 1274040, Note_on_c, 1, 47, 40
1, 1274400, Note_off_c, 1, 47, 0
1, 1274640, Note_on_c, 1, 42, 40
1, 1274880, Note_off_c, 1, 42, 0
1, 1274880, Note_on_c, 1, 44, 40
1, 1275000, Note_off_c, 1, 44, 0
1, 1275120, Note_on_c, 1, 46, 40
1, 1275240, Note_off_c, 1, 46, 0
1, 1275360, Note_on_c, 1, 47, 40
1, 1275960, Note_off_c, 1, 47, 0
1, 1276200, Note_on_c, 1, 42, 40
1, 1276440, Note_off_c, 1, 42, 0
1, 1276440, Note_on_c, 1, 47, 40
1, 1276680, Note_off_c, 1, 47, 0
1, 1276800, Note_on_c, 1, 44, 40
1, 1277400, Note_off_c, 1, 44, 0
1, 1277520, Note_on_c, 1, 44, 40
1, 1278000, Note_off_c, 1, 44, 0
1, 1278240, Note_on_c, 1, 49, 40
1, 1278840, Note_off_c, 1, 49, 0
1, 1278960, Note_on_c, 1, 49, 40
1, 1279440, Note_off_c, 1, 49, 0
1, 1279680, Note_on_c, 1, 40, 40
1, 1280280, Note_off_c, 1, 40, 0
1, 1280400, Note_on_c, 1, 40, 40
1, 1281000, Note_off_c, 1, 40, 0
1, 1281120, Note_on_c, 1, 42, 40
1, 1281840, Note_off_c, 1, 42, 0
1, 1281840, Note_on_c, 1, 49, 40
1, 1282320, Note_off_c, 1, 49, 0
1, 1282320, Note_on_c, 1, 42, 40
1, 1282560, Note_off_c, 1, 42, 0
1, 1282560, Note_on_c, 1, 47, 40
1, 1283160, Note_off_c, 1, 47, 0
1, 1283280, Note_on_c, 1, 47, 40
1, 1284000, Note_off_c, 1, 47, 0
1, 1284000, Note_on_c, 1, 42, 40
1, 1284600, Note_off_c, 1, 42, 0
1, 1284720, Note_on_c, 1, 42, 40
1, 1285320, Note_off_c, 1, 42, 0
1, 1285440, Note_on_c, 1, 40, 40
1, 1286160, Note_off_c, 1, 40, 0
1, 1286160, Note_on_c, 1, 47, 40
1, 1286640, Note_off_c, 1, 47, 0
1, 1286640, Note_on_c, 1, 40, 40
1, 1286880, Note_off_c, 1, 40, 0
1, 1286880, Note_on_c, 1, 42, 40
1, 1287480, Note_off_c, 1, 42, 0
1, 1287600, Note_on_c, 1, 42, 40
1, 1287720, Note_off_c, 1, 42, 0
1, 1287840, Note_on_c, 1, 44, 40
1, 1288080, Note_off_c, 1, 44, 0
1, 1288080, Note_on_c, 1, 46, 40
1, 1288200, Note_off_c, 1, 46, 0
1, 1288320, Note_on_c, 1, 47, 40
1, 1289160, Note_off_c, 1, 47, 0
1, 1289160, Note_on_c, 1, 40, 40
1, 1289760, Note_off_c, 1, 40, 0
1, 1289760, Note_on_c, 1, 47, 40
1, 1290360, Note_off_c, 1, 47, 0
1, 1290480, Note_on_c, 1, 42, 40
1, 1290720, Note_off_c, 1, 42, 0
1, 1290720, Note_on_c, 1, 44, 40
1, 1290960, Note_off_c, 1, 44, 0
1, 1290960, Note_on_c, 1, 46, 40
1, 1291080, Note_off_c, 1, 46, 0
1, 1291200, Note_on_c, 1, 47, 40
1, 1291920, Note_off_c, 1, 47, 0
1, 1291920, Note_on_c, 1, 42, 40
1, 1292400, Note_off_c, 1, 42, 0
1, 1292400, Note_on_c, 1, 47, 40
1, 1292640, Note_off_c, 1, 47, 0
1, 1292640, Note_on_c, 1, 42, 40
1, 1293240, Note_off_c, 1, 42, 0
1, 1293360, Note_on_c, 1, 49, 40
1, 1293840, Note_off_c, 1, 49, 0
1, 1293840, Note_on_c, 1, 42, 40
1, 1294080, Note_off_c, 1, 42, 0
1, 1294080, Note_on_c, 1, 40, 40
1, 1294800, Note_off_c, 1, 40, 0
1, 1294800, Note_on_c, 1, 47, 40
1, 1295280, Note_off_c, 1, 47, 0
1, 1295280, Note_on_c, 1, 40, 40
1, 1295400, Note_off_c, 1, 40, 0
1, 1295520, Note_on_c, 1, 42, 40
1, 1296120, Note_off_c, 1, 42, 0
1, 1296240, Note_on_c, 1, 42, 40
1, 1296480, Note_off_c, 1, 42, 0
1, 1296480, Note_on_c, 1, 44, 40
1, 1296720, Note_off_c, 1, 44, 0
1, 1296720, Note_on_c, 1, 46, 40
1, 1296840, Note_off_c, 1, 46, 0
1, 1296960, Note_on_c, 1, 47, 40
1, 1297560, Note_off_c, 1, 47, 0
1, 1297800, Note_on_c, 1, 40, 40
1, 1298280, Note_off_c, 1, 40, 0
1, 1298400, Note_on_c, 1, 47, 40
1, 1299120, Note_off_c, 1, 47, 0
1, 1299360, Note_on_c, 1, 47, 40
1, 1299480, Note_off_c, 1, 47, 0
1, 1299600, Note_on_c, 1, 46, 40
1, 1299720, Note_off_c, 1, 46, 0
1, 1299840, Note_on_c, 1, 44, 40
1, 1300440, Note_off_c, 1, 44, 0
1, 1300560, Note_on_c, 1, 44, 40
1, 1301040, Note_off_c, 1, 44, 0
1, 1301400, Note_on_c, 1, 49, 40
1, 1302000, Note_off_c, 1, 49, 0
1, 1302000, Note_on_c, 1, 49, 40
1, 1302480, Note_off_c, 1, 49, 0
1, 1302720, Note_on_c, 1, 40, 40
1, 1303320, Note_off_c, 1, 40, 0
1, 1303440, Note_on_c, 1, 40, 40
1, 1304040, Note_off_c, 1, 40, 0
1, 1304160, Note_on_c, 1, 42, 40
1, 1304760, Note_off_c, 1, 42, 0
1, 1304880, Note_on_c, 1, 42, 40
1, 1305240, Note_off_c, 1, 42, 0
1, 1305720, Note_on_c, 1, 47, 40
1, 1306320, Note_off_c, 1, 47, 0
1, 1306320, Note_on_c, 1, 54, 40
1, 1306800, Note_off_c, 1, 54, 0
1, 1306800, Note_on_c, 1, 47, 40
1, 1306920, Note_off_c, 1, 47, 0
1, 1307040, Note_on_c, 1, 42, 40
1, 1307760, Note_off_c, 1, 42, 0
1, 1307760, Note_on_c, 1, 49, 40
1, 1308240, Note_off_c, 1, 49, 0
1, 1308240, Note_on_c, 1, 42, 40
1, 1308360, Note_off_c, 1, 42, 0
1, 1308480, Note_on_c, 1, 40, 40
1, 1309200, Note_off_c, 1, 40, 0
1, 1309200, Note_on_c, 1, 47, 40
1, 1309680, Note_off_c, 1, 47, 0
1, 1309680, Note_on_c, 1, 40, 40
1, 1309800, Note_off_c, 1, 40, 0
1, 1309920, Note_on_c, 1, 42, 40
1, 1310520, Note_off_c, 1, 42, 0
1, 1310640, Note_on_c, 1, 42, 40
1, 1310760, Note_off_c, 1, 42, 0
1, 1310880, Note_on_c, 1, 44, 40
1, 1311120, Note_off_c, 1, 44, 0
1, 1311120, Note_on_c, 1, 46, 40
1, 1311240, Note_off_c, 1, 46, 0
1, 1311360, Note_on_c, 1, 47, 40
1, 1311960, Note_off_c, 1, 47, 0
1, 1312080, Note_on_c, 1, 40, 40
1, 1312680, Note_off_c, 1, 40, 0
1, 1312800, Note_on_c, 1, 47, 40
1, 1313280, Note_off_c, 1, 47, 0
1, 1313520, Note_on_c, 1, 42, 40
1, 1313760, Note_off_c, 1, 42, 0
1, 1313760, Note_on_c, 1, 44, 40
1, 1314000, Note_off_c, 1, 44, 0
1, 1314000, Note_on_c, 1, 46, 40
1, 1314120, Note_off_c, 1, 46, 0
1, 1314240, Note_on_c, 1, 47, 40
1, 1314960, Note_off_c, 1, 47, 0
1, 1314960, Note_on_c, 1, 42, 40
1, 1315560, Note_off_c, 1, 42, 0
1, 1315680, Note_on_c, 1, 47, 40
1, 1316400, Note_off_c, 1, 47, 0
1, 1316400, Note_on_c, 1, 42, 40
1, 1317000, Note_off_c, 1, 42, 0
1, 1317240, Note_on_c, 1, 47, 40
1, 1317840, Note_off_c, 1, 47, 0
1, 1317840, Note_on_c, 1, 47, 40
1, 1318080, Note_off_c, 1, 47, 0
1, 1318200, Note_on_c, 1, 51, 40
1, 1318680, Note_off_c, 1, 51, 0
1, 1318680, Note_on_c, 1, 52, 40
1, 1319400, Note_off_c, 1, 52, 0
1, 1319400, Note_on_c, 1, 47, 40
1, 1320120, Note_off_c, 1, 47, 0
1, 1320120, Note_on_c, 1, 52, 40
1, 1320720, Note_off_c, 1, 52, 0
1, 1320720, Note_on_c, 1, 52, 40
1, 1320840, Note_off_c, 1, 52, 0
1, 1320960, Note_on_c, 1, 51, 40
1, 1321080, Note_off_c, 1, 51, 0
1, 1321200, Note_on_c, 1, 49, 40
1, 1321320, Note_off_c, 1, 49, 0
1, 1321440, Note_on_c, 1, 47, 40
1, 1321920, Note_off_c, 1, 47, 0
1, 1322160, Note_on_c, 1, 42, 40
1, 1322760, Note_off_c, 1, 42, 0
1, 1322880, Note_on_c, 1, 47, 40
1, 1323600, Note_off_c, 1, 47, 0
1, 1323600, Note_on_c, 1, 42, 40
1, 1324080, Note_off_c, 1, 42, 0
1, 1324080, Note_on_c, 1, 46, 40
1, 1324200, Note_off_c, 1, 46, 0
1, 1324320, Note_on_c, 1, 47, 40
1, 1325040, Note_off_c, 1, 47, 0
1, 1325040, Note_on_c, 1, 42, 40
1, 1325520, Note_off_c, 1, 42, 0
1, 1325520, Note_on_c, 1, 47, 40
1, 1325640, Note_off_c, 1, 47, 0
1, 1325760, Note_on_c, 1, 42, 40
1, 1326480, Note_off_c, 1, 42, 0
1, 1326480, Note_on_c, 1, 49, 40
1, 1326960, Note_off_c, 1, 49, 0
1, 1326960, Note_on_c, 1, 42, 40
1, 1327080, Note_off_c, 1, 42, 0
1, 1327200, Note_on_c, 1, 40, 40
1, 1327920, Note_off_c, 1, 40, 0
1, 1327920, Note_on_c, 1, 47, 40
1, 1328400, Note_off_c, 1, 47, 0
1, 1328400, Note_on_c, 1, 40, 40
1, 1328520, Note_off_c, 1, 40, 0
1, 1328640, Note_on_c, 1, 42, 40
1, 1329240, Note_off_c, 1, 42, 0
1, 1329360, Note_on_c, 1, 42, 40
1, 1329600, Note_off_c, 1, 42, 0
1, 1329600, Note_on_c, 1, 44, 40
1, 1329720, Note_off_c, 1, 44, 0
1, 1329840, Note_on_c, 1, 46, 40
1, 1329960, Note_off_c, 1, 46, 0
1, 1330080, Note_on_c, 1, 47, 40
1, 1330800, Note_off_c, 1, 47, 0
1, 1330800, Note_on_c, 1, 40, 40
1, 1331520, Note_off_c, 1, 40, 0
1, 1331520, Note_on_c, 1, 47, 40
1, 1332240, Note_off_c, 1, 47, 0
1, 1332240, Note_on_c, 1, 42, 40
1, 1332480, Note_off_c, 1, 42, 0
1, 1332480, Note_on_c, 1, 44, 40
1, 1332720, Note_off_c, 1, 44, 0
1, 1332720, Note_on_c, 1, 46, 40
1, 1332840, Note_off_c, 1, 46, 0
1, 1332960, Note_on_c, 1, 47, 40
1, 1334040, Note_off_c, 1, 47, 0
1, 1340400, Note_on_c, 1, 33, 40
1, 1340880, Note_off_c, 1, 33, 0
1, 1341120, Note_on_c, 1, 33, 40
1, 1341240, Note_off_c, 1, 33, 0
1, 1341360, Note_on_c, 1, 33, 40
1, 1341960, Note_off_c, 1, 33, 0
1, 1342080, Note_on_c, 1, 33, 40
1, 1342200, Note_off_c, 1, 33, 0
1, 1342320, Note_on_c, 1, 33, 40
1, 1342800, Note_off_c, 1, 33, 0
1, 1343040, Note_on_c, 1, 33, 40
1, 1343160, Note_off_c, 1, 33, 0
1, 1343280, Note_on_c, 1, 33, 40
1, 1343880, Note_off_c, 1, 33, 0
1, 1344000, Note_on_c, 1, 33, 40
1, 1344120, Note_off_c, 1, 33, 0
1, 1344240, Note_on_c, 1, 35, 40
1, 1344720, Note_off_c, 1, 35, 0
1, 1344960, Note_on_c, 1, 35, 40
1, 1345080, Note_off_c, 1, 35, 0
1, 1345200, Note_on_c, 1, 35, 40
1, 1345800, Note_off_c, 1, 35, 0
1, 1345920, Note_on_c, 1, 35, 40
1, 1346040, Note_off_c, 1, 35, 0
1, 1346160, Note_on_c, 1, 40, 40
1, 1346640, Note_off_c, 1, 40, 0
1, 1346880, Note_on_c, 1, 40, 40
1, 1347000, Note_off_c, 1, 40, 0
1, 1347120, Note_on_c, 1, 40, 40
1, 1347720, Note_off_c, 1, 40, 0
1, 1347840, Note_on_c, 1, 40, 40
1, 1347960, Note_off_c, 1, 40, 0
1, 1348080, Note_on_c, 1, 29, 40
1, 1348560, Note_off_c, 1, 29, 0
1, 1348800, Note_on_c, 1, 29, 40
1, 1348920, Note_off_c, 1, 29, 0
1, 1349040, Note_on_c, 1, 29, 40
1, 1349640, Note_off_c, 1, 29, 0
1, 1349760, Note_on_c, 1, 29, 40
1, 1349880, Note_off_c, 1, 29, 0
1, 1350000, Note_on_c, 1, 33, 40
1, 1350720, Note_off_c, 1, 33, 0
1, 1350720, Note_on_c, 1, 28, 40
1, 1350960, Note_off_c, 1, 28, 0
1, 1350960, Note_on_c, 1, 33, 40
1, 1351080, Note_off_c, 1, 33, 0
1, 1351200, Note_on_c, 1, 33, 40
1, 1351440, Note_off_c, 1, 33, 0
1, 1351680, Note_on_c, 1, 33, 40
1, 1351800, Note_off_c, 1, 33, 0
1, 1351920, Note_on_c, 1, 29, 40
1, 1352400, Note_off_c, 1, 29, 0
1, 1352640, Note_on_c, 1, 29, 40
1, 1352760, Note_off_c, 1, 29, 0
1, 1352880, Note_on_c, 1, 29, 40
1, 1353480, Note_off_c, 1, 29, 0
1, 1353600, Note_on_c, 1, 29, 40
1, 1353720, Note_off_c, 1, 29, 0
1, 1353840, Note_on_c, 1, 29, 40
1, 1354320, Note_off_c, 1, 29, 0
1, 1354560, Note_on_c, 1, 29, 40
1, 1354680, Note_off_c, 1, 29, 0
1, 1354800, Note_on_c, 1, 29, 40
1, 1355400, Note_off_c, 1, 29, 0
1, 1355520, Note_on_c, 1, 29, 40
1, 1355640, Note_off_c, 1, 29, 0
1, 1355760, Note_on_c, 1, 34, 40
1, 1356240, Note_off_c, 1, 34, 0
1, 1356480, Note_on_c, 1, 34, 40
1, 1356600, Note_off_c, 1, 34, 0
1, 1356720, Note_on_c, 1, 34, 40
1, 1357320, Note_off_c, 1, 34, 0
1, 1357440, Note_on_c, 1, 34, 40
1, 1357560, Note_off_c, 1, 34, 0
1, 1357680, Note_on_c, 1, 34, 40
1, 1358160, Note_off_c, 1, 34, 0
1, 1358400, Note_on_c, 1, 34, 40
1, 1358520, Note_off_c, 1, 34, 0
1, 1358640, Note_on_c, 1, 34, 40
1, 1359240, Note_off_c, 1, 34, 0
1, 1359360, Note_on_c, 1, 34, 40
1, 1359480, Note_off_c, 1, 34, 0
1, 1359600, Note_on_c, 1, 33, 40
1, 1360080, Note_off_c, 1, 33, 0
1, 1360320, Note_on_c, 1, 33, 40
1, 1360440, Note_off_c, 1, 33, 0
1, 1360560, Note_on_c, 1, 33, 40
1, 1361280, Note_off_c, 1, 33, 0
1, 1361280, Note_on_c, 1, 28, 40
1, 1361520, Note_off_c, 1, 28, 0
1, 1361520, Note_on_c, 1, 33, 40
1, 1362240, Note_off_c, 1, 33, 0
1, 1362360, Note_on_c, 1, 33, 40
1, 1362480, Note_off_c, 1, 33, 0
1, 1362480, Note_on_c, 1, 33, 40
1, 1362600, Note_off_c, 1, 33, 0
1, 1362720, Note_on_c, 1, 33, 40
1, 1363080, Note_off_c, 1, 33, 0
1, 1363200, Note_on_c, 1, 33, 40
1, 1363440, Note_off_c, 1, 33, 0
1, 1363440, Note_on_c, 1, 35, 40
1, 1364160, Note_off_c, 1, 35, 0
1, 1364160, Note_on_c, 1, 29, 40
1, 1364400, Note_off_c, 1, 29, 0
1, 1364400, Note_on_c, 1, 35, 40
1, 1364520, Note_off_c, 1, 35, 0
1, 1364640, Note_on_c, 1, 35, 40
1, 1364880, Note_off_c, 1, 35, 0
1, 1365120, Note_on_c, 1, 35, 40
1, 1365240, Note_off_c, 1, 35, 0
1, 1365360, Note_on_c, 1, 40, 40
1, 1365840, Note_off_c, 1, 40, 0
1, 1366080, Note_on_c, 1, 40, 40
1, 1366200, Note_off_c, 1, 40, 0
1, 1366320, Note_on_c, 1, 40, 40
1, 1366920, Note_off_c, 1, 40, 0
1, 1367040, Note_on_c, 1, 40, 40
1, 1367160, Note_off_c, 1, 40, 0
1, 1367280, Note_on_c, 1, 29, 40
1, 1367760, Note_off_c, 1, 29, 0
1, 1368000, Note_on_c, 1, 29, 40
1, 1368120, Note_off_c, 1, 29, 0
1, 1368240, Note_on_c, 1, 29, 40
1, 1368840, Note_off_c, 1, 29, 0
1, 1368960, Note_on_c, 1, 29, 40
1, 1369080, Note_off_c, 1, 29, 0
1, 1369200, Note_on_c, 1, 33, 40
1, 1369680, Note_off_c, 1, 33, 0
1, 1369920, Note_on_c, 1, 33, 40
1, 1370040, Note_off_c, 1, 33, 0
1, 1370160, Note_on_c, 1, 33, 40
1, 1370760, Note_off_c, 1, 33, 0
1, 1370880, Note_on_c, 1, 33, 40
1, 1371000, Note_off_c, 1, 33, 0
1, 1371120, Note_on_c, 1, 29, 40
1, 1371600, Note_off_c, 1, 29, 0
1, 1371840, Note_on_c, 1, 29, 40
1, 1371960, Note_off_c, 1, 29, 0
1, 1372080, Note_on_c, 1, 29, 40
1, 1372680, Note_off_c, 1, 29, 0
1, 1372800, Note_on_c, 1, 29, 40
1, 1372920, Note_off_c, 1, 29, 0
1, 1373040, Note_on_c, 1, 29, 40
1, 1373520, Note_off_c, 1, 29, 0
1, 1373760, Note_on_c, 1, 29, 40
1, 1373880, Note_off_c, 1, 29, 0
1, 1374000, Note_on_c, 1, 29, 40
1, 1374600, Note_off_c, 1, 29, 0
1, 1374720, Note_on_c, 1, 29, 40
1, 1374840, Note_off_c, 1, 29, 0
1, 1374960, Note_on_c, 1, 34, 40
1, 1375440, Note_off_c, 1, 34, 0
1, 1375680, Note_on_c, 1, 34, 40
1, 1375800, Note_off_c, 1, 34, 0
1, 1375920, Note_on_c, 1, 34, 40
1, 1376520, Note_off_c, 1, 34, 0
1, 1376640, Note_on_c, 1, 34, 40
1, 1376760, Note_off_c, 1, 34, 0
1, 1376880, Note_on_c, 1, 34, 40
1, 1377360, Note_off_c, 1, 34, 0
1, 1377600, Note_on_c, 1, 34, 40
1, 1377720, Note_off_c, 1, 34, 0
1, 1377840, Note_on_c, 1, 34, 40
1, 1378440, Note_off_c, 1, 34, 0
1, 1378560, Note_on_c, 1, 34, 40
1, 1378680, Note_off_c, 1, 34, 0
1, 1378800, Note_on_c, 1, 33, 40
1, 1379280, Note_off_c, 1, 33, 0
1, 1379520, Note_on_c, 1, 33, 40
1, 1379640, Note_off_c, 1, 33, 0
1, 1379760, Note_on_c, 1, 33, 40
1, 1380480, Note_off_c, 1, 33, 0
1, 1380480, Note_on_c, 1, 28, 40
1, 1380720, Note_off_c, 1, 28, 0
1, 1380720, Note_on_c, 1, 33, 40
1, 1381440, Note_off_c, 1, 33, 0
1, 1381560, Note_on_c, 1, 33, 40
1, 1381680, Note_off_c, 1, 33, 0
1, 1381680, Note_on_c, 1, 33, 40
1, 1381800, Note_off_c, 1, 33, 0
1, 1381920, Note_on_c, 1, 33, 40
1, 1382280, Note_off_c, 1, 33, 0
1, 1382400, Note_on_c, 1, 33, 40
1, 1382640, Note_off_c, 1, 33, 0
1, 1382640, Note_on_c, 1, 35, 40
1, 1383120, Note_off_c, 1, 35, 0
1, 1383360, Note_on_c, 1, 35, 40
1, 1383480, Note_off_c, 1, 35, 0
1, 1383600, Note_on_c, 1, 35, 40
1, 1384200, Note_off_c, 1, 35, 0
1, 1384320, Note_on_c, 1, 35, 40
1, 1384440, Note_off_c, 1, 35, 0
1, 1384560, Note_on_c, 1, 40, 40
1, 1385040, Note_off_c, 1, 40, 0
1, 1385280, Note_on_c, 1, 40, 40
1, 1385400, Note_off_c, 1, 40, 0
1, 1385520, Note_on_c, 1, 40, 40
1, 1386120, Note_off_c, 1, 40, 0
1, 1386240, Note_on_c, 1, 40, 40
1, 1386360, Note_off_c, 1, 40, 0
1, 1386480, Note_on_c, 1, 29, 40
1, 1387200, Note_off_c, 1, 29, 0
1, 1387200, Note_on_c, 1, 29, 40
1, 1387320, Note_off_c, 1, 29, 0
1, 1387440, Note_on_c, 1, 29, 40
1, 1387560, Note_off_c, 1, 29, 0
1, 1387680, Note_on_c, 1, 29, 40
1, 1388040, Note_off_c, 1, 29, 0
1, 1388160, Note_on_c, 1, 29, 40
1, 1388280, Note_off_c, 1, 29, 0
1, 1388400, Note_on_c, 1, 33, 40
1, 1388880, Note_off_c, 1, 33, 0
1, 1389120, Note_on_c, 1, 33, 40
1, 1389240, Note_off_c, 1, 33, 0
1, 1389360, Note_on_c, 1, 33, 40
1, 1389960, Note_off_c, 1, 33, 0
1, 1390080, Note_on_c, 1, 33, 40
1, 1390200, Note_off_c, 1, 33, 0
1, 1390320, Note_on_c, 1, 29, 40
1, 1391040, Note_off_c, 1, 29, 0
1, 1391040, Note_on_c, 1, 29, 40
1, 1391160, Note_off_c, 1, 29, 0
1, 1391280, Note_on_c, 1, 29, 40
1, 1391400, Note_off_c, 1, 29, 0
1, 1391520, Note_on_c, 1, 29, 40
1, 1391880, Note_off_c, 1, 29, 0
1, 1392000, Note_on_c, 1, 29, 40
1, 1392120, Note_off_c, 1, 29, 0
1, 1392240, Note_on_c, 1, 29, 40
1, 1392960, Note_off_c, 1, 29, 0
1, 1392960, Note_on_c, 1, 29, 40
1, 1393080, Note_off_c, 1, 29, 0
1, 1393200, Note_on_c, 1, 29, 40
1, 1393320, Note_off_c, 1, 29, 0
1, 1393440, Note_on_c, 1, 29, 40
1, 1393800, Note_off_c, 1, 29, 0
1, 1393920, Note_on_c, 1, 29, 40
1, 1394040, Note_off_c, 1, 29, 0
1, 1394160, Note_on_c, 1, 34, 40
1, 1394640, Note_off_c, 1, 34, 0
1, 1394880, Note_on_c, 1, 34, 40
1, 1395000, Note_off_c, 1, 34, 0
1, 1395120, Note_on_c, 1, 34, 40
1, 1395720, Note_off_c, 1, 34, 0
1, 1395840, Note_on_c, 1, 34, 40
1, 1395960, Note_off_c, 1, 34, 0
1, 1396080, Note_on_c, 1, 34, 40
1, 1396800, Note_off_c, 1, 34, 0
1, 1396800, Note_on_c, 1, 34, 40
1, 1396920, Note_off_c, 1, 34, 0
1, 1397040, Note_on_c, 1, 34, 40
1, 1397160, Note_off_c, 1, 34, 0
1, 1397280, Note_on_c, 1, 34, 40
1, 1397640, Note_off_c, 1, 34, 0
1, 1397760, Note_on_c, 1, 34, 40
1, 1397880, Note_off_c, 1, 34, 0
1, 1398000, Note_on_c, 1, 38, 40
1, 1398600, Note_off_c, 1, 38, 0
1, 1398720, Note_on_c, 1, 38, 40
1, 1398840, Note_off_c, 1, 38, 0
1, 1398960, Note_on_c, 1, 38, 40
1, 1399800, Note_off_c, 1, 38, 0
1, 1399920, Note_on_c, 1, 38, 40
1, 1400520, Note_off_c, 1, 38, 0
1, 1400640, Note_on_c, 1, 38, 40
1, 1400760, Note_off_c, 1, 38, 0
1, 1400880, Note_on_c, 1, 38, 40
1, 1401480, Note_off_c, 1, 38, 0
1, 1401600, Note_on_c, 1, 38, 40
1, 1401720, Note_off_c, 1, 38, 0
1, 1401840, Note_on_c, 1, 40, 40
1, 1402320, Note_off_c, 1, 40, 0
1, 1402560, Note_on_c, 1, 40, 40
1, 1402680, Note_off_c, 1, 40, 0
1, 1402800, Note_on_c, 1, 40, 40
1, 1403400, Note_off_c, 1, 40, 0
1, 1403520, Note_on_c, 1, 40, 40
1, 1403640, Note_off_c, 1, 40, 0
1, 1403760, Note_on_c, 1, 40, 40
1, 1404240, Note_off_c, 1, 40, 0
1, 1404480, Note_on_c, 1, 40, 40
1, 1404600, Note_off_c, 1, 40, 0
1, 1404720, Note_on_c, 1, 40, 40
1, 1405320, Note_off_c, 1, 40, 0
1, 1405440, Note_on_c, 1, 40, 40
1, 1405560, Note_off_c, 1, 40, 0
1, 1405680, Note_on_c, 1, 33, 40
1, 1406160, Note_off_c, 1, 33, 0
1, 1406400, Note_on_c, 1, 33, 40
1, 1406520, Note_off_c, 1, 33, 0
1, 1406640, Note_on_c, 1, 33, 40
1, 1407240, Note_off_c, 1, 33, 0
1, 1407360, Note_on_c, 1, 33, 40
1, 1407480, Note_off_c, 1, 33, 0
1, 1407600, Note_on_c, 1, 33, 40
1, 1408320, Note_off_c, 1, 33, 0
1, 1408320, Note_on_c, 1, 33, 40
1, 1408440, Note_off_c, 1, 33, 0
1, 1408560, Note_on_c, 1, 33, 40
1, 1408680, Note_off_c, 1, 33, 0
1, 1408800, Note_on_c, 1, 33, 40
1, 1409160, Note_off_c, 1, 33, 0
1, 1409280, Note_on_c, 1, 33, 40
1, 1409400, Note_off_c, 1, 33, 0
1, 1409520, Note_on_c, 1, 35, 40
1, 1410240, Note_off_c, 1, 35, 0
1, 1410240, Note_on_c, 1, 35, 40
1, 1410360, Note_off_c, 1, 35, 0
1, 1410480, Note_on_c, 1, 35, 40
1, 1410600, Note_off_c, 1, 35, 0
1, 1410720, Note_on_c, 1, 35, 40
1, 1411080, Note_off_c, 1, 35, 0
1, 1411200, Note_on_c, 1, 35, 40
1, 1411320, Note_off_c, 1, 35, 0
1, 1411440, Note_on_c, 1, 40, 40
1, 1412160, Note_off_c, 1, 40, 0
1, 1412160, Note_on_c, 1, 40, 40
1, 1412280, Note_off_c, 1, 40, 0
1, 1412400, Note_on_c, 1, 40, 40
1, 1412520, Note_off_c, 1, 40, 0
1, 1412640, Note_on_c, 1, 40, 40
1, 1413000, Note_off_c, 1, 40, 0
1, 1413120, Note_on_c, 1, 40, 40
1, 1413240, Note_off_c, 1, 40, 0
1, 1413360, Note_on_c, 1, 29, 40
1, 1414080, Note_off_c, 1, 29, 0
1, 1414080, Note_on_c, 1, 24, 40
1, 1414320, Note_off_c, 1, 24, 0
1, 1414320, Note_on_c, 1, 29, 40
1, 1414440, Note_off_c, 1, 29, 0
1, 1414560, Note_on_c, 1, 29, 40
1, 1414800, Note_off_c, 1, 29, 0
1, 1415040, Note_on_c, 1, 29, 40
1, 1415160, Note_off_c, 1, 29, 0
1, 1415280, Note_on_c, 1, 33, 40
1, 1415760, Note_off_c, 1, 33, 0
1, 1416000, Note_on_c, 1, 33, 40
1, 1416120, Note_off_c, 1, 33, 0
1, 1416240, Note_on_c, 1, 33, 40
1, 1416840, Note_off_c, 1, 33, 0
1, 1416960, Note_on_c, 1, 33, 40
1, 1417080, Note_off_c, 1, 33, 0
1, 1417200, Note_on_c, 1, 29, 40
1, 1417920, Note_off_c, 1, 29, 0
1, 1417920, Note_on_c, 1, 29, 40
1, 1418040, Note_off_c, 1, 29, 0
1, 1418160, Note_on_c, 1, 29, 40
1, 1418280, Note_off_c, 1, 29, 0
1, 1418400, Note_on_c, 1, 29, 40
1, 1418760, Note_off_c, 1, 29, 0
1, 1418880, Note_on_c, 1, 29, 40
1, 1419000, Note_off_c, 1, 29, 0
1, 1419120, Note_on_c, 1, 29, 40
1, 1419600, Note_off_c, 1, 29, 0
1, 1419840, Note_on_c, 1, 29, 40
1, 1419960, Note_off_c, 1, 29, 0
1, 1420080, Note_on_c, 1, 29, 40
1, 1420680, Note_off_c, 1, 29, 0
1, 1420800, Note_on_c, 1, 29, 40
1, 1420920, Note_off_c, 1, 29, 0
1, 1421040, Note_on_c, 1, 34, 40
1, 1421760, Note_off_c, 1, 34, 0
1, 1421760, Note_on_c, 1, 29, 40
1, 1422000, Note_off_c, 1, 29, 0
1, 1422000, Note_on_c, 1, 34, 40
1, 1422120, Note_off_c, 1, 34, 0
1, 1422240, Note_on_c, 1, 34, 40
1, 1422480, Note_off_c, 1, 34, 0
1, 1422720, Note_on_c, 1, 34, 40
1, 1422840, Note_off_c, 1, 34, 0
1, 1422960, Note_on_c, 1, 34, 40
1, 1423440, Note_off_c, 1, 34, 0
1, 1423680, Note_on_c, 1, 34, 40
1, 1423800, Note_off_c, 1, 34, 0
1, 1423920, Note_on_c, 1, 34, 40
1, 1424520, Note_off_c, 1, 34, 0
1, 1424640, Note_on_c, 1, 34, 40
1, 1424760, Note_off_c, 1, 34, 0
1, 1424880, Note_on_c, 1, 33, 40
1, 1425360, Note_off_c, 1, 33, 0
1, 1425600, Note_on_c, 1, 33, 40
1, 1425720, Note_off_c, 1, 33, 0
1, 1425840, Note_on_c, 1, 33, 40
1, 1426440, Note_off_c, 1, 33, 0
1, 1426560, Note_on_c, 1, 33, 40
1, 1426680, Note_off_c, 1, 33, 0
1, 1426800, Note_on_c, 1, 33, 40
1, 1427280, Note_off_c, 1, 33, 0
1, 1427520, Note_on_c, 1, 33, 40
1, 1427640, Note_off_c, 1, 33, 0
1, 1427760, Note_on_c, 1, 33, 40
1, 1428360, Note_off_c, 1, 33, 0
1, 1428480, Note_on_c, 1, 33, 40
1, 1428600, Note_off_c, 1, 33, 0
1, 1428720, Note_on_c, 1, 35, 40
1, 1429200, Note_off_c, 1, 35, 0
1, 1429440, Note_on_c, 1, 35, 40
1, 1429560, Note_off_c, 1, 35, 0
1, 1429680, Note_on_c, 1, 35, 40
1, 1430280, Note_off_c, 1, 35, 0
1, 1430400, Note_on_c, 1, 35, 40
1, 1430520, Note_off_c, 1, 35, 0
1, 1430640, Note_on_c, 1, 40, 40
1, 1431120, Note_off_c, 1, 40, 0
1, 1431360, Note_on_c, 1, 40, 40
1, 1431480, Note_off_c, 1, 40, 0
1, 1431600, Note_on_c, 1, 40, 40
1, 1432200, Note_off_c, 1, 40, 0
1, 1432320, Note_on_c, 1, 40, 40
1, 1432440, Note_off_c, 1, 40, 0
1, 1432560, Note_on_c, 1, 29, 40
1, 1433040, Note_off_c, 1, 29, 0
1, 1433280, Note_on_c, 1, 29, 40
1, 1433400, Note_off_c, 1, 29, 0
1, 1433520, Note_on_c, 1, 29, 40
1, 1434120, Note_off_c, 1, 29, 0
1, 1434240, Note_on_c, 1, 29, 40
1, 1434360, Note_off_c, 1, 29, 0
1, 1434480, Note_on_c, 1, 33, 40
1, 1434960, Note_off_c, 1, 33, 0
1, 1435200, Note_on_c, 1, 33, 40
1, 1435320, Note_off_c, 1, 33, 0
1, 1435440, Note_on_c, 1, 33, 40
1, 1436040, Note_off_c, 1, 33, 0
1, 1436160, Note_on_c, 1, 33, 40
1, 1436280, Note_off_c, 1, 33, 0
1, 1436400, Note_on_c, 1, 29, 40
1, 1436880, Note_off_c, 1, 29, 0
1, 1437120, Note_on_c, 1, 29, 40
1, 1437240, Note_off_c, 1, 29, 0
1, 1437360, Note_on_c, 1, 29, 40
1, 1437960, Note_off_c, 1, 29, 0
1, 1438080, Note_on_c, 1, 29, 40
1, 1438200, Note_off_c, 1, 29, 0
1, 1438320, Note_on_c, 1, 29, 40
1, 1438800, Note_off_c, 1, 29, 0
1, 1439040, Note_on_c, 1, 29, 40
1, 1439160, Note_off_c, 1, 29, 0
1, 1439280, Note_on_c, 1, 29, 40
1, 1439880, Note_off_c, 1, 29, 0
1, 1440000, Note_on_c, 1, 29, 40
1, 1440120, Note_off_c, 1, 29, 0
1, 1440240, Note_on_c, 1, 34, 40
1, 1440720, Note_off_c, 1, 34, 0
1, 1440960, Note_on_c, 1, 34, 40
1, 1441080, Note_off_c, 1, 34, 0
1, 1441200, Note_on_c, 1, 34, 40
1, 1441800, Note_off_c, 1, 34, 0
1, 1441920, Note_on_c, 1, 34, 40
1, 1442040, Note_off_c, 1, 34, 0
1, 1442160, Note_on_c, 1, 34, 40
1, 1442640, Note_off_c, 1, 34, 0
1, 1442880, Note_on_c, 1, 34, 40
1, 1443000, Note_off_c, 1, 34, 0
1, 1443120, Note_on_c, 1, 34, 40
1, 1443720, Note_off_c, 1, 34, 0
1, 1443840, Note_on_c, 1, 34, 40
1, 1443960, Note_off_c, 1, 34, 0
1, 1444080, Note_on_c, 1, 34, 40
1, 1444680, Note_off_c, 1, 34, 0
1, 1444800, Note_on_c, 1, 34, 40
1, 1444920, Note_off_c, 1, 34, 0
1, 1445040, Note_on_c, 1, 34, 40
1, 1445640, Note_off_c, 1, 34, 0
1, 1445760, Note_on_c, 1, 28, 40
1, 1445880, Note_off_c, 1, 28, 0
1, 1445880, Note_on_c, 1, 30, 40
1, 1446000, Note_off_c, 1, 30, 0
1, 1446000, Note_on_c, 1, 34, 40
1, 1446600, Note_off_c, 1, 34, 0
1, 1446720, Note_on_c, 1, 34, 40
1, 1446840, Note_off_c, 1, 34, 0
1, 1446960, Note_on_c, 1, 34, 40
1, 1447920, Note_off_c, 1, 34, 0
1, 1453200, Note_on_c, 1, 43, 40
1, 1453560, Note_off_c, 1, 43, 0
1, 1453680, Note_on_c, 1, 43, 40
1, 1453800, Note_off_c, 1, 43, 0
1, 1454040, Note_on_c, 1, 43, 40
1, 1454160, Note_off_c, 1, 43, 0
1, 1454160, Note_on_c, 1, 43, 40
1, 1454520, Note_off_c, 1, 43, 0
1, 1454640, Note_on_c, 1, 43, 40
1, 1454760, Note_off_c, 1, 43, 0
1, 1455000, Note_on_c, 1, 43, 40
1, 1455120, Note_off_c, 1, 43, 0
1, 1455120, Note_on_c, 1, 42, 40
1, 1455480, Note_off_c, 1, 42, 0
1, 1455600, Note_on_c, 1, 42, 40
1, 1455720, Note_off_c, 1, 42, 0
1, 1455960, Note_on_c, 1, 42, 40
1, 1456080, Note_off_c, 1, 42, 0
1, 1456080, Note_on_c, 1, 42, 40
1, 1456440, Note_off_c, 1, 42, 0
1, 1456560, Note_on_c, 1, 42, 40
1, 1456680, Note_off_c, 1, 42, 0
1, 1456920, Note_on_c, 1, 42, 40
1, 1457040, Note_off_c, 1, 42, 0
1, 1457040, Note_on_c, 1, 35, 40
1, 1457640, Note_off_c, 1, 35, 0
1, 1458000, Note_on_c, 1, 40, 40
1, 1458840, Note_off_c, 1, 40, 0
1, 1458960, Note_on_c, 1, 45, 40
1, 1459320, Note_off_c, 1, 45, 0
1, 1459440, Note_on_c, 1, 45, 40
1, 1459680, Note_off_c, 1, 45, 0
1, 1459800, Note_on_c, 1, 45, 40
1, 1459920, Note_off_c, 1, 45, 0
1, 1459920, Note_on_c, 1, 44, 40
1, 1460280, Note_off_c, 1, 44, 0
1, 1460400, Note_on_c, 1, 44, 40
1, 1460640, Note_off_c, 1, 44, 0
1, 1460760, Note_on_c, 1, 44, 40
1, 1460880, Note_off_c, 1, 44, 0
1, 1460880, Note_on_c, 1, 43, 40
1, 1461240, Note_off_c, 1, 43, 0
1, 1461360, Note_on_c, 1, 43, 40
1, 1461600, Note_off_c, 1, 43, 0
1, 1461720, Note_on_c, 1, 43, 40
1, 1461840, Note_off_c, 1, 43, 0
1, 1461840, Note_on_c, 1, 42, 40
1, 1462200, Note_off_c, 1, 42, 0
1, 1462320, Note_on_c, 1, 42, 40
1, 1462560, Note_off_c, 1, 42, 0
1, 1462680, Note_on_c, 1, 42, 40
1, 1462800, Note_off_c, 1, 42, 0
1, 1462800, Note_on_c, 1, 40, 40
1, 1463160, Note_off_c, 1, 40, 0
1, 1463280, Note_on_c, 1, 40, 40
1, 1463520, Note_off_c, 1, 40, 0
1, 1463640, Note_on_c, 1, 40, 40
1, 1463760, Note_off_c, 1, 40, 0
1, 1463760, Note_on_c, 1, 28, 40
1, 1464120, Note_off_c, 1, 28, 0
1, 1464120, Note_on_c, 1, 35, 40
1, 1464240, Note_off_c, 1, 35, 0
1, 1464240, Note_on_c, 1, 40, 40
1, 1464720, Note_off_c, 1, 40, 0
1, 1464720, Note_on_c, 1, 28, 40
1, 1465080, Note_off_c, 1, 28, 0
1, 1465080, Note_on_c, 1, 35, 40
1, 1465200, Note_off_c, 1, 35, 0
1, 1465200, Note_on_c, 1, 40, 40
1, 1465440, Note_off_c, 1, 40, 0
1, 1465560, Note_on_c, 1, 35, 40
1, 1465800, Note_off_c, 1, 35, 0
1, 1466160, Note_on_c, 1, 28, 40
1, 1466400, Note_off_c, 1, 28, 0
1, 1466520, Note_on_c, 1, 28, 40
1, 1466640, Note_off_c, 1, 28, 0
1, 1466640, Note_on_c, 1, 45, 40
1, 1466880, Note_off_c, 1, 45, 0
1, 1467120, Note_on_c, 1, 45, 40
1, 1467360, Note_off_c, 1, 45, 0
1, 1467480, Note_on_c, 1, 45, 40
1, 1467600, Note_off_c, 1, 45, 0
1, 1467600, Note_on_c, 1, 44, 40
1, 1467960, Note_off_c, 1, 44, 0
1, 1468080, Note_on_c, 1, 44, 40
1, 1468320, Note_off_c, 1, 44, 0
1, 1468440, Note_on_c, 1, 44, 40
1, 1468560, Note_off_c, 1, 44, 0
1, 1468560, Note_on_c, 1, 43, 40
1, 1468920, Note_off_c, 1, 43, 0
1, 1469040, Note_on_c, 1, 43, 40
1, 1469280, Note_off_c, 1, 43, 0
1, 1469400, Note_on_c, 1, 43, 40
1, 1469520, Note_off_c, 1, 43, 0
1, 1469520, Note_on_c, 1, 42, 40
1, 1469880, Note_off_c, 1, 42, 0
1, 1470000, Note_on_c, 1, 42, 40
1, 1470120, Note_off_c, 1, 42, 0
1, 1470360, Note_on_c, 1, 42, 40
1, 1470480, Note_off_c, 1, 42, 0
1, 1470480, Note_on_c, 1, 42, 40
1, 1470840, Note_off_c, 1, 42, 0
1, 1470960, Note_on_c, 1, 42, 40
1, 1471200, Note_off_c, 1, 42, 0
1, 1471320, Note_on_c, 1, 42, 40
1, 1471440, Note_off_c, 1, 42, 0
1, 1471440, Note_on_c, 1, 42, 40
1, 1471800, Note_off_c, 1, 42, 0
1, 1471800, Note_on_c, 1, 37, 40
1, 1472040, Note_off_c, 1, 37, 0
1, 1472040, Note_on_c, 1, 42, 40
1, 1472280, Note_off_c, 1, 42, 0
1, 1472280, Note_on_c, 1, 37, 40
1, 1472400, Note_off_c, 1, 37, 0
1, 1472400, Note_on_c, 1, 35, 40
1, 1472760, Note_off_c, 1, 35, 0
1, 1472880, Note_on_c, 1, 35, 40
1, 1473240, Note_off_c, 1, 35, 0
1, 1473360, Note_on_c, 1, 35, 40
1, 1473720, Note_off_c, 1, 35, 0
1, 1473840, Note_on_c, 1, 35, 40
1, 1474080, Note_off_c, 1, 35, 0
1, 1474200, Note_on_c, 1, 35, 40
1, 1474320, Note_off_c, 1, 35, 0
1, 1474320, Note_on_c, 1, 31, 40
1, 1474680, Note_off_c, 1, 31, 0
1, 1474800, Note_on_c, 1, 31, 40
1, 1474920, Note_off_c, 1, 31, 0
1, 1475160, Note_on_c, 1, 31, 40
1, 1475400, Note_off_c, 1, 31, 0
1, 1475760, Note_on_c, 1, 30, 40
1, 1476000, Note_off_c, 1, 30, 0
1, 1476120, Note_on_c, 1, 30, 40
1, 1476240, Note_off_c, 1, 30, 0
1, 1476240, Note_on_c, 1, 35, 40
1, 1476720, Note_off_c, 1, 35, 0
1, 1476720, Note_on_c, 1, 33, 40
1, 1477200, Note_off_c, 1, 33, 0
1, 1477200, Note_on_c, 1, 31, 40
1, 1477680, Note_off_c, 1, 31, 0
1, 1477680, Note_on_c, 1, 30, 40
1, 1478160, Note_off_c, 1, 30, 0
1, 1478160, Note_on_c, 1, 28, 40
1, 1478520, Note_off_c, 1, 28, 0
1, 1478640, Note_on_c, 1, 28, 40
1, 1478760, Note_off_c, 1, 28, 0
1, 1479000, Note_on_c, 1, 28, 40
1, 1479120, Note_off_c, 1, 28, 0
1, 1479120, Note_on_c, 1, 30, 40
1, 1479480, Note_off_c, 1, 30, 0
1, 1479600, Note_on_c, 1, 30, 40
1, 1479840, Note_off_c, 1, 30, 0
1, 1479960, Note_on_c, 1, 30, 40
1, 1480080, Note_off_c, 1, 30, 0
1, 1480080, Note_on_c, 1, 35, 40
1, 1480560, Note_off_c, 1, 35, 0
1, 1480560, Note_on_c, 1, 33, 40
1, 1481040, Note_off_c, 1, 33, 0
1, 1481040, Note_on_c, 1, 31, 40
1, 1481520, Note_off_c, 1, 31, 0
1, 1481520, Note_on_c, 1, 30, 40
1, 1481880, Note_off_c, 1, 30, 0
1, 1482000, Note_on_c, 1, 28, 40
1, 1482360, Note_off_c, 1, 28, 0
1, 1482480, Note_on_c, 1, 28, 40
1, 1482720, Note_off_c, 1, 28, 0
1, 1482840, Note_on_c, 1, 28, 40
1, 1483080, Note_off_c, 1, 28, 0
1, 1483080, Note_on_c, 1, 30, 40
1, 1483320, Note_off_c, 1, 30, 0
1, 1483800, Note_on_c, 1, 30, 40
1, 1483920, Note_off_c, 1, 30, 0
1, 1483920, Note_on_c, 1, 35, 40
1, 1484520, Note_off_c, 1, 35, 0
1, 1484880, Note_on_c, 1, 28, 40
1, 1485600, Note_off_c, 1, 28, 0
1, 1485840, Note_on_c, 1, 45, 40
1, 1486200, Note_off_c, 1, 45, 0
1, 1486320, Note_on_c, 1, 45, 40
1, 1486560, Note_off_c, 1, 45, 0
1, 1486680, Note_on_c, 1, 45, 40
1, 1486800, Note_off_c, 1, 45, 0
1, 1486800, Note_on_c, 1, 44, 40
1, 1487160, Note_off_c, 1, 44, 0
1, 1487280, Note_on_c, 1, 44, 40
1, 1487520, Note_off_c, 1, 44, 0
1, 1487640, Note_on_c, 1, 44, 40
1, 1487760, Note_off_c, 1, 44, 0
1, 1487760, Note_on_c, 1, 43, 40
1, 1488120, Note_off_c, 1, 43, 0
1, 1488240, Note_on_c, 1, 43, 40
1, 1488480, Note_off_c, 1, 43, 0
1, 1488600, Note_on_c, 1, 43, 40
1, 1488720, Note_off_c, 1, 43, 0
1, 1488720, Note_on_c, 1, 42, 40
1, 1489080, Note_off_c, 1, 42, 0
1, 1489200, Note_on_c, 1, 42, 40
1, 1489440, Note_off_c, 1, 42, 0
1, 1489560, Note_on_c, 1, 42, 40
1, 1489680, Note_off_c, 1, 42, 0
1, 1489680, Note_on_c, 1, 40, 40
1, 1490040, Note_off_c, 1, 40, 0
1, 1490160, Note_on_c, 1, 40, 40
1, 1490400, Note_off_c, 1, 40, 0
1, 1490520, Note_on_c, 1, 40, 40
1, 1490640, Note_off_c, 1, 40, 0
1, 1490640, Note_on_c, 1, 28, 40
1, 1491000, Note_off_c, 1, 28, 0
1, 1491000, Note_on_c, 1, 35, 40
1, 1491120, Note_off_c, 1, 35, 0
1, 1491120, Note_on_c, 1, 40, 40
1, 1491600, Note_off_c, 1, 40, 0
1, 1491600, Note_on_c, 1, 28, 40
1, 1491960, Note_off_c, 1, 28, 0
1, 1491960, Note_on_c, 1, 35, 40
1, 1492080, Note_off_c, 1, 35, 0
1, 1492080, Note_on_c, 1, 40, 40
1, 1492320, Note_off_c, 1, 40, 0
1, 1492440, Note_on_c, 1, 35, 40
1, 1492680, Note_off_c, 1, 35, 0
1, 1493040, Note_on_c, 1, 28, 40
1, 1493280, Note_off_c, 1, 28, 0
1, 1493400, Note_on_c, 1, 28, 40
1, 1493520, Note_off_c, 1, 28, 0
1, 1493520, Note_on_c, 1, 45, 40
1, 1493760, Note_off_c, 1, 45, 0
1, 1494000, Note_on_c, 1, 45, 40
1, 1494240, Note_off_c, 1, 45, 0
1, 1494360, Note_on_c, 1, 45, 40
1, 1494480, Note_off_c, 1, 45, 0
1, 1494480, Note_on_c, 1, 44, 40
1, 1494840, Note_off_c, 1, 44, 0
1, 1494960, Note_on_c, 1, 44, 40
1, 1495200, Note_off_c, 1, 44, 0
1, 1495320, Note_on_c, 1, 44, 40
1, 1495440, Note_off_c, 1, 44, 0
1, 1495440, Note_on_c, 1, 43, 40
1, 1495800, Note_off_c, 1, 43, 0
1, 1495920, Note_on_c, 1, 43, 40
1, 1496160, Note_off_c, 1, 43, 0
1, 1496280, Note_on_c, 1, 43, 40
1, 1496400, Note_off_c, 1, 43, 0
1, 1496400, Note_on_c, 1, 42, 40
1, 1496760, Note_off_c, 1, 42, 0
1, 1496880, Note_on_c, 1, 42, 40
1, 1497000, Note_off_c, 1, 42, 0
1, 1497240, Note_on_c, 1, 42, 40
1, 1497360, Note_off_c, 1, 42, 0
1, 1497360, Note_on_c, 1, 42, 40
1, 1497720, Note_off_c, 1, 42, 0
1, 1497840, Note_on_c, 1, 42, 40
1, 1498080, Note_off_c, 1, 42, 0
1, 1498200, Note_on_c, 1, 42, 40
1, 1498320, Note_off_c, 1, 42, 0
1, 1498320, Note_on_c, 1, 42, 40
1, 1498680, Note_off_c, 1, 42, 0
1, 1498680, Note_on_c, 1, 37, 40
1, 1498920, Note_off_c, 1, 37, 0
1, 1498920, Note_on_c, 1, 42, 40
1, 1499160, Note_off_c, 1, 42, 0
1, 1499160, Note_on_c, 1, 37, 40
1, 1499280, Note_off_c, 1, 37, 0
1, 1499280, Note_on_c, 1, 35, 40
1, 1499640, Note_off_c, 1, 35, 0
1, 1499760, Note_on_c, 1, 35, 40
1, 1500120, Note_off_c, 1, 35, 0
1, 1500240, Note_on_c, 1, 35, 40
1, 1500600, Note_off_c, 1, 35, 0
1, 1500720, Note_on_c, 1, 35, 40
1, 1500960, Note_off_c, 1, 35, 0
1, 1501080, Note_on_c, 1, 35, 40
1, 1501200, Note_off_c, 1, 35, 0
1, 1501200, Note_on_c, 1, 31, 40
1, 1501560, Note_off_c, 1, 31, 0
1, 1501680, Note_on_c, 1, 31, 40
1, 1501800, Note_off_c, 1, 31, 0
1, 1502040, Note_on_c, 1, 31, 40
1, 1502280, Note_off_c, 1, 31, 0
1, 1502640, Note_on_c, 1, 30, 40
1, 1502880, Note_off_c, 1, 30, 0
1, 1503000, Note_on_c, 1, 30, 40
1, 1503120, Note_off_c, 1, 30, 0
1, 1503120, Note_on_c, 1, 35, 40
1, 1503600, Note_off_c, 1, 35, 0
1, 1503600, Note_on_c, 1, 33, 40
1, 1504080, Note_off_c, 1, 33, 0
1, 1504080, Note_on_c, 1, 31, 40
1, 1504560, Note_off_c, 1, 31, 0
1, 1504560, Note_on_c, 1, 30, 40
1, 1505040, Note_off_c, 1, 30, 0
1, 1505040, Note_on_c, 1, 28, 40
1, 1505400, Note_off_c, 1, 28, 0
1, 1505520, Note_on_c, 1, 28, 40
1, 1505640, Note_off_c, 1, 28, 0
1, 1505880, Note_on_c, 1, 28, 40
1, 1506000, Note_off_c, 1, 28, 0
1, 1506000, Note_on_c, 1, 30, 40
1, 1506360, Note_off_c, 1, 30, 0
1, 1506480, Note_on_c, 1, 30, 40
1, 1506720, Note_off_c, 1, 30, 0
1, 1506840, Note_on_c, 1, 30, 40
1, 1506960, Note_off_c, 1, 30, 0
1, 1506960, Note_on_c, 1, 35, 40
1, 1507920, Note_off_c, 1, 35, 0
1, 1507920, Note_on_c, 1, 37, 40
1, 1508400, Note_off_c, 1, 37, 0
1, 1508400, Note_on_c, 1, 38, 40
1, 1509360, Note_off_c, 1, 38, 0
1, 1509360, Note_on_c, 1, 42, 40
1, 1509840, Note_off_c, 1, 42, 0
1, 1509840, Note_on_c, 1, 33, 40
1, 1510800, Note_off_c, 1, 33, 0
1, 1510800, Note_on_c, 1, 35, 40
1, 1511280, Note_off_c, 1, 35, 0
1, 1511280, Note_on_c, 1, 37, 40
1, 1512240, Note_off_c, 1, 37, 0
1, 1512240, Note_on_c, 1, 40, 40
1, 1512720, Note_off_c, 1, 40, 0
1, 1512720, Note_on_c, 1, 30, 40
1, 1513680, Note_off_c, 1, 30, 0
1, 1513680, Note_on_c, 1, 37, 40
1, 1514160, Note_off_c, 1, 37, 0
1, 1514280, Note_on_c, 1, 30, 40
1, 1514760, Note_off_c, 1, 30, 0
1, 1515120, Note_on_c, 1, 37, 40
1, 1515600, Note_off_c, 1, 37, 0
1, 1515600, Note_on_c, 1, 30, 40
1, 1516320, Note_off_c, 1, 30, 0
1, 1516440, Note_on_c, 1, 30, 40
1, 1516560, Note_off_c, 1, 30, 0
1, 1516560, Note_on_c, 1, 37, 40
1, 1516800, Note_off_c, 1, 37, 0
1, 1516800, Note_on_c, 1, 30, 40
1, 1516920, Note_off_c, 1, 30, 0
1, 1517040, Note_on_c, 1, 37, 40
1, 1517520, Note_off_c, 1, 37, 0
1, 1517520, Note_on_c, 1, 30, 40
1, 1518000, Note_off_c, 1, 30, 0
1, 1518000, Note_on_c, 1, 37, 40
1, 1518480, Note_off_c, 1, 37, 0
1, 1518480, Note_on_c, 1, 35, 40
1, 1519440, Note_off_c, 1, 35, 0
1, 1519440, Note_on_c, 1, 37, 40
1, 1519800, Note_off_c, 1, 37, 0
1, 1519920, Note_on_c, 1, 38, 40
1, 1520880, Note_off_c, 1, 38, 0
1, 1520880, Note_on_c, 1, 42, 40
1, 1521360, Note_off_c, 1, 42, 0
1, 1521360, Note_on_c, 1, 33, 40
1, 1522320, Note_off_c, 1, 33, 0
1, 1522320, Note_on_c, 1, 35, 40
1, 1522800, Note_off_c, 1, 35, 0
1, 1522800, Note_on_c, 1, 37, 40
1, 1523760, Note_off_c, 1, 37, 0
1, 1523760, Note_on_c, 1, 40, 40
1, 1524240, Note_off_c, 1, 40, 0
1, 1524240, Note_on_c, 1, 32, 40
1, 1525080, Note_off_c, 1, 32, 0
1, 1525200, Note_on_c, 1, 32, 40
1, 1525440, Note_off_c, 1, 32, 0
1, 1525560, Note_on_c, 1, 32, 40
1, 1526400, Note_off_c, 1, 32, 0
1, 1526640, Note_on_c, 1, 32, 40
1, 1527000, Note_off_c, 1, 32, 0
1, 1527120, Note_on_c, 1, 37, 40
1, 1527840, Note_off_c, 1, 37, 0
1, 1528080, Note_on_c, 1, 37, 40
1, 1528560, Note_off_c, 1, 37, 0
1, 1528560, Note_on_c, 1, 35, 40
1, 1529280, Note_off_c, 1, 35, 0
1, 1529520, Note_on_c, 1, 35, 40
1, 1530000, Note_off_c, 1, 35, 0
1, 1530000, Note_on_c, 1, 33, 40
1, 1530720, Note_off_c, 1, 33, 0
1, 1530960, Note_on_c, 1, 33, 40
1, 1531440, Note_off_c, 1, 33, 0
1, 1531440, Note_on_c, 1, 32, 40
1, 1532040, Note_off_c, 1, 32, 0
1, 1532400, Note_on_c, 1, 32, 40
1, 1532760, Note_off_c, 1, 32, 0
1, 1532880, Note_on_c, 1, 37, 40
1, 1533720, Note_off_c, 1, 37, 0
1, 1533960, Note_on_c, 1, 37, 40
1, 1534320, Note_off_c, 1, 37, 0
1, 1534320, Note_on_c, 1, 35, 40
1, 1535040, Note_off_c, 1, 35, 0
1, 1535280, Note_on_c, 1, 35, 40
1, 1535760, Note_off_c, 1, 35, 0
1, 1535760, Note_on_c, 1, 33, 40
1, 1536480, Note_off_c, 1, 33, 0
1, 1536720, Note_on_c, 1, 33, 40
1, 1537200, Note_off_c, 1, 33, 0
1, 1537200, Note_on_c, 1, 32, 40
1, 1537800, Note_off_c, 1, 32, 0
1, 1538160, Note_on_c, 1, 32, 40
1, 1538640, Note_off_c, 1, 32, 0
1, 1538640, Note_on_c, 1, 37, 40
1, 1539360, Note_off_c, 1, 37, 0
1, 1539600, Note_on_c, 1, 37, 40
1, 1539720, Note_off_c, 1, 37, 0
1, 1540080, Note_on_c, 1, 37, 40
1, 1541640, Note_off_c, 1, 37, 0
1, 1541640, Note_on_c, 1, 40, 40
1, 1541760, Note_off_c, 1, 40, 0
1, 1541880, Note_on_c, 1, 40, 40
1, 1542000, Note_off_c, 1, 40, 0
1, 1542000, Note_on_c, 1, 40, 40
1, 1542240, Note_off_c, 1, 40, 0
1, 1542360, Note_on_c, 1, 40, 40
1, 1542480, Note_off_c, 1, 40, 0
1, 1542480, Note_on_c, 1, 40, 40
1, 1543080, Note_off_c, 1, 40, 0
1, 1543440, Note_on_c, 1, 45, 40
1, 1543800, Note_off_c, 1, 45, 0
1, 1543920, Note_on_c, 1, 45, 40
1, 1544040, Note_off_c, 1, 45, 0
1, 1544280, Note_on_c, 1, 45, 40
1, 1544400, Note_off_c, 1, 45, 0
1, 1544400, Note_on_c, 1, 44, 40
1, 1544760, Note_off_c, 1, 44, 0
1, 1544880, Note_on_c, 1, 44, 40
1, 1545000, Note_off_c, 1, 44, 0
1, 1545240, Note_on_c, 1, 44, 40
1, 1545360, Note_off_c, 1, 44, 0
1, 1545360, Note_on_c, 1, 43, 40
1, 1545720, Note_off_c, 1, 43, 0
1, 1545840, Note_on_c, 1, 43, 40
1, 1545960, Note_off_c, 1, 43, 0
1, 1546200, Note_on_c, 1, 43, 40
1, 1546320, Note_off_c, 1, 43, 0
1, 1546320, Note_on_c, 1, 42, 40
1, 1546680, Note_off_c, 1, 42, 0
1, 1546800, Note_on_c, 1, 42, 40
1, 1546920, Note_off_c, 1, 42, 0
1, 1547160, Note_on_c, 1, 42, 40
1, 1547280, Note_off_c, 1, 42, 0
1, 1547280, Note_on_c, 1, 40, 40
1, 1547640, Note_off_c, 1, 40, 0
1, 1547760, Note_on_c, 1, 40, 40
1, 1547880, Note_off_c, 1, 40, 0
1, 1548120, Note_on_c, 1, 40, 40
1, 1548240, Note_off_c, 1, 40, 0
1, 1548240, Note_on_c, 1, 28, 40
1, 1548600, Note_off_c, 1, 28, 0
1, 1548600, Note_on_c, 1, 35, 40
1, 1548720, Note_off_c, 1, 35, 0
1, 1548720, Note_on_c, 1, 40, 40
1, 1549200, Note_off_c, 1, 40, 0
1, 1549200, Note_on_c, 1, 28, 40
1, 1549560, Note_off_c, 1, 28, 0
1, 1549560, Note_on_c, 1, 35, 40
1, 1549680, Note_off_c, 1, 35, 0
1, 1549680, Note_on_c, 1, 40, 40
1, 1550040, Note_off_c, 1, 40, 0
1, 1550040, Note_on_c, 1, 35, 40
1, 1550160, Note_off_c, 1, 35, 0
1, 1550160, Note_on_c, 1, 28, 40
1, 1550520, Note_off_c, 1, 28, 0
1, 1550640, Note_on_c, 1, 28, 40
1, 1550760, Note_off_c, 1, 28, 0
1, 1551000, Note_on_c, 1, 28, 40
1, 1551120, Note_off_c, 1, 28, 0
1, 1551120, Note_on_c, 1, 45, 40
1, 1551480, Note_off_c, 1, 45, 0
1, 1551600, Note_on_c, 1, 45, 40
1, 1551720, Note_off_c, 1, 45, 0
1, 1551960, Note_on_c, 1, 45, 40
1, 1552080, Note_off_c, 1, 45, 0
1, 1552080, Note_on_c, 1, 44, 40
1, 1552440, Note_off_c, 1, 44, 0
1, 1552560, Note_on_c, 1, 44, 40
1, 1552680, Note_off_c, 1, 44, 0
1, 1552920, Note_on_c, 1, 44, 40
1, 1553040, Note_off_c, 1, 44, 0
1, 1553040, Note_on_c, 1, 43, 40
1, 1553400, Note_off_c, 1, 43, 0
1, 1553520, Note_on_c, 1, 43, 40
1, 1553640, Note_off_c, 1, 43, 0
1, 1553880, Note_on_c, 1, 43, 40
1, 1554000, Note_off_c, 1, 43, 0
1, 1554000, Note_on_c, 1, 42, 40
1, 1554360, Note_off_c, 1, 42, 0
1, 1554480, Note_on_c, 1, 42, 40
1, 1554600, Note_off_c, 1, 42, 0
1, 1554840, Note_on_c, 1, 42, 40
1, 1554960, Note_off_c, 1, 42, 0
1, 1554960, Note_on_c, 1, 42, 40
1, 1555320, Note_off_c, 1, 42, 0
1, 1555440, Note_on_c, 1, 42, 40
1, 1555560, Note_off_c, 1, 42, 0
1, 1555800, Note_on_c, 1, 42, 40
1, 1555920, Note_off_c, 1, 42, 0
1, 1555920, Note_on_c, 1, 42, 40
1, 1556280, Note_off_c, 1, 42, 0
1, 1556280, Note_on_c, 1, 37, 40
1, 1556400, Note_off_c, 1, 37, 0
1, 1556400, Note_on_c, 1, 42, 40
1, 1556760, Note_off_c, 1, 42, 0
1, 1556760, Note_on_c, 1, 37, 40
1, 1556880, Note_off_c, 1, 37, 0
1, 1556880, Note_on_c, 1, 35, 40
1, 1557240, Note_off_c, 1, 35, 0
1, 1557360, Note_on_c, 1, 35, 40
1, 1557720, Note_off_c, 1, 35, 0
1, 1557840, Note_on_c, 1, 35, 40
1, 1558200, Note_off_c, 1, 35, 0
1, 1558320, Note_on_c, 1, 35, 40
1, 1558440, Note_off_c, 1, 35, 0
1, 1558680, Note_on_c, 1, 35, 40
1, 1558800, Note_off_c, 1, 35, 0
1, 1558800, Note_on_c, 1, 31, 40
1, 1559160, Note_off_c, 1, 31, 0
1, 1559280, Note_on_c, 1, 31, 40
1, 1559400, Note_off_c, 1, 31, 0
1, 1559640, Note_on_c, 1, 31, 40
1, 1559760, Note_off_c, 1, 31, 0
1, 1559760, Note_on_c, 1, 30, 40
1, 1560120, Note_off_c, 1, 30, 0
1, 1560240, Note_on_c, 1, 30, 40
1, 1560360, Note_off_c, 1, 30, 0
1, 1560600, Note_on_c, 1, 30, 40
1, 1560720, Note_off_c, 1, 30, 0
1, 1560720, Note_on_c, 1, 35, 40
1, 1561200, Note_off_c, 1, 35, 0
1, 1561200, Note_on_c, 1, 33, 40
1, 1561680, Note_off_c, 1, 33, 0
1, 1561680, Note_on_c, 1, 31, 40
1, 1562160, Note_off_c, 1, 31, 0
1, 1562160, Note_on_c, 1, 30, 40
1, 1562640, Note_off_c, 1, 30, 0
1, 1562640, Note_on_c, 1, 28, 40
1, 1563000, Note_off_c, 1, 28, 0
1, 1563120, Note_on_c, 1, 28, 40
1, 1563240, Note_off_c, 1, 28, 0
1, 1563480, Note_on_c, 1, 28, 40
1, 1563600, Note_off_c, 1, 28, 0
1, 1563600, Note_on_c, 1, 30, 40
1, 1563960, Note_off_c, 1, 30, 0
1, 1564080, Note_on_c, 1, 30, 40
1, 1564200, Note_off_c, 1, 30, 0
1, 1564440, Note_on_c, 1, 30, 40
1, 1564560, Note_off_c, 1, 30, 0
1, 1564560, Note_on_c, 1, 35, 40
1, 1565040, Note_off_c, 1, 35, 0
1, 1565040, Note_on_c, 1, 33, 40
1, 1565520, Note_off_c, 1, 33, 0
1, 1565520, Note_on_c, 1, 31, 40
1, 1566000, Note_off_c, 1, 31, 0
1, 1566000, Note_on_c, 1, 30, 40
1, 1566360, Note_off_c, 1, 30, 0
1, 1566480, Note_on_c, 1, 28, 40
1, 1566840, Note_off_c, 1, 28, 0
1, 1566960, Note_on_c, 1, 28, 40
1, 1567080, Note_off_c, 1, 28, 0
1, 1567320, Note_on_c, 1, 28, 40
1, 1567440, Note_off_c, 1, 28, 0
1, 1567440, Note_on_c, 1, 30, 40
1, 1567800, Note_off_c, 1, 30, 0
1, 1567920, Note_on_c, 1, 30, 40
1, 1568040, Note_off_c, 1, 30, 0
1, 1568280, Note_on_c, 1, 30, 40
1, 1568400, Note_off_c, 1, 30, 0
1, 1568400, Note_on_c, 1, 35, 40
1, 1568880, Note_off_c, 1, 35, 0
1, 1568880, Note_on_c, 1, 33, 40
1, 1569480, Note_off_c, 1, 33, 0
1, 1569840, Note_on_c, 1, 30, 40
1, 1570200, Note_off_c, 1, 30, 0
1, 1570320, Note_on_c, 1, 28, 40
1, 1570680, Note_off_c, 1, 28, 0
1, 1570800, Note_on_c, 1, 28, 40
1, 1570920, Note_off_c, 1, 28, 0
1, 1571160, Note_on_c, 1, 28, 40
1, 1571280, Note_off_c, 1, 28, 0
1, 1571280, Note_on_c, 1, 30, 40
1, 1571640, Note_off_c, 1, 30, 0
1, 1571760, Note_on_c, 1, 30, 40
1, 1571880, Note_off_c, 1, 30, 0
1, 1572120, Note_on_c, 1, 30, 40
1, 1572240, Note_off_c, 1, 30, 0
1, 1572240, Note_on_c, 1, 35, 40
1, 1572720, Note_off_c, 1, 35, 0
1, 1572720, Note_on_c, 1, 33, 40
1, 1573320, Note_off_c, 1, 33, 0
1, 1573680, Note_on_c, 1, 30, 40
1, 1574040, Note_off_c, 1, 30, 0
1, 1574160, Note_on_c, 1, 28, 40
1, 1574520, Note_off_c, 1, 28, 0
1, 1574640, Note_on_c, 1, 28, 40
1, 1574760, Note_off_c, 1, 28, 0
1, 1575000, Note_on_c, 1, 28, 40
1, 1575120, Note_off_c, 1, 28, 0
1, 1575120, Note_on_c, 1, 30, 40
1, 1575480, Note_off_c, 1, 30, 0
1, 1575600, Note_on_c, 1, 30, 40
1, 1575720, Note_off_c, 1, 30, 0
1, 1575960, Note_on_c, 1, 30, 40
1, 1576080, Note_off_c, 1, 30, 0
1, 1576080, Note_on_c, 1, 35, 40
1, 1578000, Note_off_c, 1, 35, 0
1, 1578000, Note_on_c, 1, 35, 40
1, 1578360, Note_off_c, 1, 35, 0
1, 1584720, Note_on_c, 1, 33, 40
1, 1584960, Note_off_c, 1, 33, 0
1, 1584960, Note_on_c, 1, 33, 40
1, 1585200, Note_off_c, 1, 33, 0
1, 1585200, Note_on_c, 1, 37, 40
1, 1585440, Note_off_c, 1, 37, 0
1, 1585440, Note_on_c, 1, 40, 40
1, 1585680, Note_off_c, 1, 40, 0
1, 1585680, Note_on_c, 1, 43, 40
1, 1585920, Note_off_c, 1, 43, 0
1, 1585920, Note_on_c, 1, 42, 40
1, 1586400, Note_off_c, 1, 42, 0
1, 1586400, Note_on_c, 1, 40, 40
1, 1586640, Note_off_c, 1, 40, 0
1, 1586640, Note_on_c, 1, 33, 40
1, 1586880, Note_off_c, 1, 33, 0
1, 1586880, Note_on_c, 1, 33, 40
1, 1587120, Note_off_c, 1, 33, 0
1, 1587120, Note_on_c, 1, 37, 40
1, 1587360, Note_off_c, 1, 37, 0
1, 1587360, Note_on_c, 1, 40, 40
1, 1587600, Note_off_c, 1, 40, 0
1, 1587600, Note_on_c, 1, 43, 40
1, 1587840, Note_off_c, 1, 43, 0
1, 1587840, Note_on_c, 1, 42, 40
1, 1588320, Note_off_c, 1, 42, 0
1, 1588320, Note_on_c, 1, 40, 40
1, 1588560, Note_off_c, 1, 40, 0
1, 1588560, Note_on_c, 1, 33, 40
1, 1588800, Note_off_c, 1, 33, 0
1, 1588800, Note_on_c, 1, 33, 40
1, 1589040, Note_off_c, 1, 33, 0
1, 1589040, Note_on_c, 1, 37, 40
1, 1589280, Note_off_c, 1, 37, 0
1, 1589280, Note_on_c, 1, 40, 40
1, 1589520, Note_off_c, 1, 40, 0
1, 1589520, Note_on_c, 1, 43, 40
1, 1589760, Note_off_c, 1, 43, 0
1, 1589760, Note_on_c, 1, 42, 40
1, 1590240, Note_off_c, 1, 42, 0
1, 1590240, Note_on_c, 1, 40, 40
1, 1590480, Note_off_c, 1, 40, 0
1, 1590480, Note_on_c, 1, 33, 40
1, 1590720, Note_off_c, 1, 33, 0
1, 1590720, Note_on_c, 1, 33, 40
1, 1590960, Note_off_c, 1, 33, 0
1, 1590960, Note_on_c, 1, 37, 40
1, 1591200, Note_off_c, 1, 37, 0
1, 1591200, Note_on_c, 1, 40, 40
1, 1591440, Note_off_c, 1, 40, 0
1, 1591440, Note_on_c, 1, 43, 40
1, 1591680, Note_off_c, 1, 43, 0
1, 1591680, Note_on_c, 1, 42, 40
1, 1592160, Note_off_c, 1, 42, 0
1, 1592160, Note_on_c, 1, 40, 40
1, 1592400, Note_off_c, 1, 40, 0
1, 1592400, Note_on_c, 1, 38, 40
1, 1592640, Note_off_c, 1, 38, 0
1, 1592640, Note_on_c, 1, 38, 40
1, 1592880, Note_off_c, 1, 38, 0
1, 1592880, Note_on_c, 1, 42, 40
1, 1593120, Note_off_c, 1, 42, 0
1, 1593120, Note_on_c, 1, 45, 40
1, 1593360, Note_off_c, 1, 45, 0
1, 1593360, Note_on_c, 1, 48, 40
1, 1593600, Note_off_c, 1, 48, 0
1, 1593600, Note_on_c, 1, 47, 40
1, 1594080, Note_off_c, 1, 47, 0
1, 1594080, Note_on_c, 1, 45, 40
1, 1594320, Note_off_c, 1, 45, 0
1, 1594320, Note_on_c, 1, 38, 40
1, 1594560, Note_off_c, 1, 38, 0
1, 1594560, Note_on_c, 1, 38, 40
1, 1594800, Note_off_c, 1, 38, 0
1, 1594800, Note_on_c, 1, 42, 40
1, 1595040, Note_off_c, 1, 42, 0
1, 1595040, Note_on_c, 1, 45, 40
1, 1595280, Note_off_c, 1, 45, 0
1, 1595280, Note_on_c, 1, 48, 40
1, 1595520, Note_off_c, 1, 48, 0
1, 1595520, Note_on_c, 1, 47, 40
1, 1596000, Note_off_c, 1, 47, 0
1, 1596000, Note_on_c, 1, 45, 40
1, 1596240, Note_off_c, 1, 45, 0
1, 1596240, Note_on_c, 1, 33, 40
1, 1596480, Note_off_c, 1, 33, 0
1, 1596480, Note_on_c, 1, 33, 40
1, 1596720, Note_off_c, 1, 33, 0
1, 1596720, Note_on_c, 1, 37, 40
1, 1596960, Note_off_c, 1, 37, 0
1, 1596960, Note_on_c, 1, 40, 40
1, 1597200, Note_off_c, 1, 40, 0
1, 1597200, Note_on_c, 1, 43, 40
1, 1597440, Note_off_c, 1, 43, 0
1, 1597440, Note_on_c, 1, 42, 40
1, 1597920, Note_off_c, 1, 42, 0
1, 1597920, Note_on_c, 1, 40, 40
1, 1598160, Note_off_c, 1, 40, 0
1, 1598160, Note_on_c, 1, 33, 40
1, 1598400, Note_off_c, 1, 33, 0
1, 1598400, Note_on_c, 1, 33, 40
1, 1598640, Note_off_c, 1, 33, 0
1, 1598640, Note_on_c, 1, 37, 40
1, 1598880, Note_off_c, 1, 37, 0
1, 1598880, Note_on_c, 1, 40, 40
1, 1599120, Note_off_c, 1, 40, 0
1, 1599120, Note_on_c, 1, 43, 40
1, 1599360, Note_off_c, 1, 43, 0
1, 1599360, Note_on_c, 1, 42, 40
1, 1599840, Note_off_c, 1, 42, 0
1, 1599840, Note_on_c, 1, 40, 40
1, 1600080, Note_off_c, 1, 40, 0
1, 1600080, Note_on_c, 1, 40, 40
1, 1600320, Note_off_c, 1, 40, 0
1, 1600320, Note_on_c, 1, 40, 40
1, 1600560, Note_off_c, 1, 40, 0
1, 1600560, Note_on_c, 1, 44, 40
1, 1600800, Note_off_c, 1, 44, 0
1, 1600800, Note_on_c, 1, 47, 40
1, 1601040, Note_off_c, 1, 47, 0
1, 1601040, Note_on_c, 1, 50, 40
1, 1601280, Note_off_c, 1, 50, 0
1, 1601280, Note_on_c, 1, 49, 40
1, 1601760, Note_off_c, 1, 49, 0
1, 1601760, Note_on_c, 1, 47, 40
1, 1602000, Note_off_c, 1, 47, 0
1, 1602000, Note_on_c, 1, 40, 40
1, 1602240, Note_off_c, 1, 40, 0
1, 1602240, Note_on_c, 1, 40, 40
1, 1602480, Note_off_c, 1, 40, 0
1, 1602480, Note_on_c, 1, 44, 40
1, 1602720, Note_off_c, 1, 44, 0
1, 1602720, Note_on_c, 1, 47, 40
1, 1602960, Note_off_c, 1, 47, 0
1, 1602960, Note_on_c, 1, 50, 40
1, 1603200, Note_off_c, 1, 50, 0
1, 1603200, Note_on_c, 1, 49, 40
1, 1603680, Note_off_c, 1, 49, 0
1, 1603680, Note_on_c, 1, 47, 40
1, 1603920, Note_off_c, 1, 47, 0
1, 1603920, Note_on_c, 1, 33, 40
1, 1604160, Note_off_c, 1, 33, 0
1, 1604160, Note_on_c, 1, 33, 40
1, 1604400, Note_off_c, 1, 33, 0
1, 1604400, Note_on_c, 1, 37, 40
1, 1604640, Note_off_c, 1, 37, 0
1, 1604640, Note_on_c, 1, 40, 40
1, 1604880, Note_off_c, 1, 40, 0
1, 1604880, Note_on_c, 1, 43, 40
1, 1605120, Note_off_c, 1, 43, 0
1, 1605120, Note_on_c, 1, 42, 40
1, 1605600, Note_off_c, 1, 42, 0
1, 1605600, Note_on_c, 1, 40, 40
1, 1605840, Note_off_c, 1, 40, 0
1, 1605840, Note_on_c, 1, 33, 40
1, 1606080, Note_off_c, 1, 33, 0
1, 1606080, Note_on_c, 1, 33, 40
1, 1606320, Note_off_c, 1, 33, 0
1, 1606320, Note_on_c, 1, 37, 40
1, 1606560, Note_off_c, 1, 37, 0
1, 1606560, Note_on_c, 1, 40, 40
1, 1606800, Note_off_c, 1, 40, 0
1, 1606800, Note_on_c, 1, 43, 40
1, 1607040, Note_off_c, 1, 43, 0
1, 1607040, Note_on_c, 1, 42, 40
1, 1607520, Note_off_c, 1, 42, 0
1, 1607520, Note_on_c, 1, 40, 40
1, 1607760, Note_off_c, 1, 40, 0
1, 1607760, Note_on_c, 1, 33, 40
1, 1608000, Note_off_c, 1, 33, 0
1, 1608000, Note_on_c, 1, 33, 40
1, 1608240, Note_off_c, 1, 33, 0
1, 1608240, Note_on_c, 1, 37, 40
1, 1608480, Note_off_c, 1, 37, 0
1, 1608480, Note_on_c, 1, 40, 40
1, 1608720, Note_off_c, 1, 40, 0
1, 1608720, Note_on_c, 1, 43, 40
1, 1608960, Note_off_c, 1, 43, 0
1, 1608960, Note_on_c, 1, 42, 40
1, 1609440, Note_off_c, 1, 42, 0
1, 1609440, Note_on_c, 1, 40, 40
1, 1609680, Note_off_c, 1, 40, 0
1, 1609680, Note_on_c, 1, 33, 40
1, 1609920, Note_off_c, 1, 33, 0
1, 1609920, Note_on_c, 1, 33, 40
1, 1610160, Note_off_c, 1, 33, 0
1, 1610160, Note_on_c, 1, 37, 40
1, 1610400, Note_off_c, 1, 37, 0
1, 1610400, Note_on_c, 1, 40, 40
1, 1610640, Note_off_c, 1, 40, 0
1, 1610640, Note_on_c, 1, 43, 40
1, 1610880, Note_off_c, 1, 43, 0
1, 1610880, Note_on_c, 1, 42, 40
1, 1611360, Note_off_c, 1, 42, 0
1, 1611360, Note_on_c, 1, 40, 40
1, 1611600, Note_off_c, 1, 40, 0
1, 1611600, Note_on_c, 1, 33, 40
1, 1611840, Note_off_c, 1, 33, 0
1, 1611840, Note_on_c, 1, 33, 40
1, 1612080, Note_off_c, 1, 33, 0
1, 1612080, Note_on_c, 1, 37, 40
1, 1612320, Note_off_c, 1, 37, 0
1, 1612320, Note_on_c, 1, 40, 40
1, 1612560, Note_off_c, 1, 40, 0
1, 1612560, Note_on_c, 1, 43, 40
1, 1612800, Note_off_c, 1, 43, 0
1, 1612800, Note_on_c, 1, 42, 40
1, 1613280, Note_off_c, 1, 42, 0
1, 1613280, Note_on_c, 1, 40, 40
1, 1613520, Note_off_c, 1, 40, 0
1, 1613520, Note_on_c, 1, 33, 40
1, 1613760, Note_off_c, 1, 33, 0
1, 1613760, Note_on_c, 1, 33, 40
1, 1614000, Note_off_c, 1, 33, 0
1, 1614000, Note_on_c, 1, 37, 40
1, 1614240, Note_off_c, 1, 37, 0
1, 1614240, Note_on_c, 1, 40, 40
1, 1614480, Note_off_c, 1, 40, 0
1, 1614480, Note_on_c, 1, 43, 40
1, 1614720, Note_off_c, 1, 43, 0
1, 1614720, Note_on_c, 1, 42, 40
1, 1615200, Note_off_c, 1, 42, 0
1, 1615200, Note_on_c, 1, 40, 40
1, 1615440, Note_off_c, 1, 40, 0
1, 1615440, Note_on_c, 1, 38, 40
1, 1615680, Note_off_c, 1, 38, 0
1, 1615680, Note_on_c, 1, 38, 40
1, 1615920, Note_off_c, 1, 38, 0
1, 1615920, Note_on_c, 1, 42, 40
1, 1616160, Note_off_c, 1, 42, 0
1, 1616160, Note_on_c, 1, 45, 40
1, 1616400, Note_off_c, 1, 45, 0
1, 1616400, Note_on_c, 1, 48, 40
1, 1616640, Note_off_c, 1, 48, 0
1, 1616640, Note_on_c, 1, 47, 40
1, 1617120, Note_off_c, 1, 47, 0
1, 1617120, Note_on_c, 1, 45, 40
1, 1617360, Note_off_c, 1, 45, 0
1, 1617360, Note_on_c, 1, 38, 40
1, 1617600, Note_off_c, 1, 38, 0
1, 1617600, Note_on_c, 1, 38, 40
1, 1617840, Note_off_c, 1, 38, 0
1, 1617840, Note_on_c, 1, 42, 40
1, 1618080, Note_off_c, 1, 42, 0
1, 1618080, Note_on_c, 1, 45, 40
1, 1618320, Note_off_c, 1, 45, 0
1, 1618320, Note_on_c, 1, 48, 40
1, 1618560, Note_off_c, 1, 48, 0
1, 1618560, Note_on_c, 1, 47, 40
1, 1619040, Note_off_c, 1, 47, 0
1, 1619040, Note_on_c, 1, 45, 40
1, 1619280, Note_off_c, 1, 45, 0
1, 1619280, Note_on_c, 1, 33, 40
1, 1619520, Note_off_c, 1, 33, 0
1, 1619520, Note_on_c, 1, 33, 40
1, 1619760, Note_off_c, 1, 33, 0
1, 1619760, Note_on_c, 1, 37, 40
1, 1620000, Note_off_c, 1, 37, 0
1, 1620000, Note_on_c, 1, 40, 40
1, 1620240, Note_off_c, 1, 40, 0
1, 1620240, Note_on_c, 1, 43, 40
1, 1620480, Note_off_c, 1, 43, 0
1, 1620480, Note_on_c, 1, 42, 40
1, 1620960, Note_off_c, 1, 42, 0
1, 1620960, Note_on_c, 1, 40, 40
1, 1621200, Note_off_c, 1, 40, 0
1, 1621200, Note_on_c, 1, 33, 40
1, 1621440, Note_off_c, 1, 33, 0
1, 1621440, Note_on_c, 1, 33, 40
1, 1621680, Note_off_c, 1, 33, 0
1, 1621680, Note_on_c, 1, 37, 40
1, 1621920, Note_off_c, 1, 37, 0
1, 1621920, Note_on_c, 1, 40, 40
1, 1622160, Note_off_c, 1, 40, 0
1, 1622160, Note_on_c, 1, 43, 40
1, 1622400, Note_off_c, 1, 43, 0
1, 1622400, Note_on_c, 1, 42, 40
1, 1622880, Note_off_c, 1, 42, 0
1, 1622880, Note_on_c, 1, 40, 40
1, 1623120, Note_off_c, 1, 40, 0
1, 1623120, Note_on_c, 1, 40, 40
1, 1623360, Note_off_c, 1, 40, 0
1, 1623360, Note_on_c, 1, 40, 40
1, 1623600, Note_off_c, 1, 40, 0
1, 1623600, Note_on_c, 1, 44, 40
1, 1623840, Note_off_c, 1, 44, 0
1, 1623840, Note_on_c, 1, 47, 40
1, 1624080, Note_off_c, 1, 47, 0
1, 1624080, Note_on_c, 1, 50, 40
1, 1624320, Note_off_c, 1, 50, 0
1, 1624320, Note_on_c, 1, 49, 40
1, 1624800, Note_off_c, 1, 49, 0
1, 1624800, Note_on_c, 1, 47, 40
1, 1625040, Note_off_c, 1, 47, 0
1, 1625040, Note_on_c, 1, 40, 40
1, 1625280, Note_off_c, 1, 40, 0
1, 1625280, Note_on_c, 1, 40, 40
1, 1625520, Note_off_c, 1, 40, 0
1, 1625520, Note_on_c, 1, 44, 40
1, 1625760, Note_off_c, 1, 44, 0
1, 1625760, Note_on_c, 1, 47, 40
1, 1626000, Note_off_c, 1, 47, 0
1, 1626000, Note_on_c, 1, 50, 40
1, 1626240, Note_off_c, 1, 50, 0
1, 1626240, Note_on_c, 1, 49, 40
1, 1626720, Note_off_c, 1, 49, 0
1, 1626720, Note_on_c, 1, 47, 40
1, 1626960, Note_off_c, 1, 47, 0
1, 1626960, Note_on_c, 1, 33, 40
1, 1627200, Note_off_c, 1, 33, 0
1, 1627200, Note_on_c, 1, 33, 40
1, 1627440, Note_off_c, 1, 33, 0
1, 1627440, Note_on_c, 1, 37, 40
1, 1627680, Note_off_c, 1, 37, 0
1, 1627680, Note_on_c, 1, 40, 40
1, 1627920, Note_off_c, 1, 40, 0
1, 1627920, Note_on_c, 1, 43, 40
1, 1628160, Note_off_c, 1, 43, 0
1, 1628160, Note_on_c, 1, 42, 40
1, 1628640, Note_off_c, 1, 42, 0
1, 1628640, Note_on_c, 1, 40, 40
1, 1628880, Note_off_c, 1, 40, 0
1, 1628880, Note_on_c, 1, 33, 40
1, 1629120, Note_off_c, 1, 33, 0
1, 1629120, Note_on_c, 1, 33, 40
1, 1629360, Note_off_c, 1, 33, 0
1, 1629360, Note_on_c, 1, 37, 40
1, 1629600, Note_off_c, 1, 37, 0
1, 1629600, Note_on_c, 1, 40, 40
1, 1629840, Note_off_c, 1, 40, 0
1, 1629840, Note_on_c, 1, 43, 40
1, 1630080, Note_off_c, 1, 43, 0
1, 1630080, Note_on_c, 1, 42, 40
1, 1630560, Note_off_c, 1, 42, 0
1, 1630560, Note_on_c, 1, 40, 40
1, 1630800, Note_off_c, 1, 40, 0
1, 1646160, Note_on_c, 1, 40, 40
1, 1646400, Note_off_c, 1, 40, 0
1, 1646400, Note_on_c, 1, 40, 40
1, 1646640, Note_off_c, 1, 40, 0
1, 1646640, Note_on_c, 1, 40, 40
1, 1646880, Note_off_c, 1, 40, 0
1, 1646880, Note_on_c, 1, 40, 40
1, 1647120, Note_off_c, 1, 40, 0
1, 1647120, Note_on_c, 1, 40, 40
1, 1647360, Note_off_c, 1, 40, 0
1, 1647360, Note_on_c, 1, 40, 40
1, 1647600, Note_off_c, 1, 40, 0
1, 1647600, Note_on_c, 1, 40, 40
1, 1647840, Note_off_c, 1, 40, 0
1, 1647840, Note_on_c, 1, 40, 40
1, 1648080, Note_off_c, 1, 40, 0
1, 1648080, Note_on_c, 1, 40, 40
1, 1648320, Note_off_c, 1, 40, 0
1, 1648320, Note_on_c, 1, 40, 40
1, 1648560, Note_off_c, 1, 40, 0
1, 1648560, Note_on_c, 1, 40, 40
1, 1648800, Note_off_c, 1, 40, 0
1, 1648800, Note_on_c, 1, 40, 40
1, 1649040, Note_off_c, 1, 40, 0
1, 1649040, Note_on_c, 1, 40, 40
1, 1649280, Note_off_c, 1, 40, 0
1, 1649280, Note_on_c, 1, 40, 40
1, 1649520, Note_off_c, 1, 40, 0
1, 1649520, Note_on_c, 1, 40, 40
1, 1649760, Note_off_c, 1, 40, 0
1, 1649760, Note_on_c, 1, 40, 40
1, 1650000, Note_off_c, 1, 40, 0
1, 1650000, Note_on_c, 1, 40, 40
1, 1650240, Note_off_c, 1, 40, 0
1, 1650240, Note_on_c, 1, 40, 40
1, 1650480, Note_off_c, 1, 40, 0
1, 1650480, Note_on_c, 1, 40, 40
1, 1650720, Note_off_c, 1, 40, 0
1, 1650720, Note_on_c, 1, 40, 40
1, 1650960, Note_off_c, 1, 40, 0
1, 1650960, Note_on_c, 1, 40, 40
1, 1651200, Note_off_c, 1, 40, 0
1, 1651200, Note_on_c, 1, 40, 40
1, 1651440, Note_off_c, 1, 40, 0
1, 1651440, Note_on_c, 1, 40, 40
1, 1651680, Note_off_c, 1, 40, 0
1, 1651680, Note_on_c, 1, 40, 40
1, 1651920, Note_off_c, 1, 40, 0
1, 1651920, Note_on_c, 1, 40, 40
1, 1652160, Note_off_c, 1, 40, 0
1, 1652160, Note_on_c, 1, 40, 40
1, 1652400, Note_off_c, 1, 40, 0
1, 1652400, Note_on_c, 1, 40, 40
1, 1652640, Note_off_c, 1, 40, 0
1, 1652640, Note_on_c, 1, 40, 40
1, 1652880, Note_off_c, 1, 40, 0
1, 1652880, Note_on_c, 1, 40, 40
1, 1653120, Note_off_c, 1, 40, 0
1, 1653120, Note_on_c, 1, 40, 40
1, 1653360, Note_off_c, 1, 40, 0
1, 1653360, Note_on_c, 1, 40, 40
1, 1653600, Note_off_c, 1, 40, 0
1, 1653600, Note_on_c, 1, 40, 40
1, 1653840, Note_off_c, 1, 40, 0
1, 1653840, Note_on_c, 1, 40, 40
1, 1654080, Note_off_c, 1, 40, 0
1, 1654080, Note_on_c, 1, 40, 40
1, 1654320, Note_off_c, 1, 40, 0
1, 1654320, Note_on_c, 1, 40, 40
1, 1654560, Note_off_c, 1, 40, 0
1, 1654560, Note_on_c, 1, 40, 40
1, 1654800, Note_off_c, 1, 40, 0
1, 1654800, Note_on_c, 1, 40, 40
1, 1655040, Note_off_c, 1, 40, 0
1, 1655040, Note_on_c, 1, 40, 40
1, 1655280, Note_off_c, 1, 40, 0
1, 1655280, Note_on_c, 1, 40, 40
1, 1655520, Note_off_c, 1, 40, 0
1, 1655520, Note_on_c, 1, 40, 40
1, 1655760, Note_off_c, 1, 40, 0
1, 1655760, Note_on_c, 1, 40, 40
1, 1656000, Note_off_c, 1, 40, 0
1, 1656000, Note_on_c, 1, 40, 40
1, 1656240, Note_off_c, 1, 40, 0
1, 1656240, Note_on_c, 1, 40, 40
1, 1656480, Note_off_c, 1, 40, 0
1, 1656480, Note_on_c, 1, 40, 40
1, 1656720, Note_off_c, 1, 40, 0
1, 1656720, Note_on_c, 1, 40, 40
1, 1656960, Note_off_c, 1, 40, 0
1, 1656960, Note_on_c, 1, 40, 40
1, 1657200, Note_off_c, 1, 40, 0
1, 1657200, Note_on_c, 1, 40, 40
1, 1657440, Note_off_c, 1, 40, 0
1, 1657440, Note_on_c, 1, 40, 40
1, 1657680, Note_off_c, 1, 40, 0
1, 1657680, Note_on_c, 1, 40, 40
1, 1657920, Note_off_c, 1, 40, 0
1, 1657920, Note_on_c, 1, 40, 40
1, 1658160, Note_off_c, 1, 40, 0
1, 1658160, Note_on_c, 1, 40, 40
1, 1658400, Note_off_c, 1, 40, 0
1, 1658400, Note_on_c, 1, 40, 40
1, 1658640, Note_off_c, 1, 40, 0
1, 1658640, Note_on_c, 1, 40, 40
1, 1658880, Note_off_c, 1, 40, 0
1, 1658880, Note_on_c, 1, 40, 40
1, 1659120, Note_off_c, 1, 40, 0
1, 1659120, Note_on_c, 1, 40, 40
1, 1659360, Note_off_c, 1, 40, 0
1, 1659360, Note_on_c, 1, 40, 40
1, 1659600, Note_off_c, 1, 40, 0
1, 1659600, Note_on_c, 1, 40, 40
1, 1659840, Note_off_c, 1, 40, 0
1, 1659840, Note_on_c, 1, 40, 40
1, 1660080, Note_off_c, 1, 40, 0
1, 1660080, Note_on_c, 1, 40, 40
1, 1660320, Note_off_c, 1, 40, 0
1, 1660320, Note_on_c, 1, 40, 40
1, 1660560, Note_off_c, 1, 40, 0
1, 1660560, Note_on_c, 1, 40, 40
1, 1660800, Note_off_c, 1, 40, 0
1, 1660800, Note_on_c, 1, 38, 40
1, 1661040, Note_off_c, 1, 38, 0
1, 1661040, Note_on_c, 1, 38, 40
1, 1661280, Note_off_c, 1, 38, 0
1, 1661280, Note_on_c, 1, 38, 40
1, 1661520, Note_off_c, 1, 38, 0
1, 1661520, Note_on_c, 1, 36, 40
1, 1661760, Note_off_c, 1, 36, 0
1, 1661760, Note_on_c, 1, 36, 40
1, 1662000, Note_off_c, 1, 36, 0
1, 1662000, Note_on_c, 1, 40, 40
1, 1662240, Note_off_c, 1, 40, 0
1, 1662240, Note_on_c, 1, 40, 40
1, 1662480, Note_off_c, 1, 40, 0
1, 1662480, Note_on_c, 1, 41, 40
1, 1662720, Note_off_c, 1, 41, 0
1, 1662720, Note_on_c, 1, 41, 40
1, 1662960, Note_off_c, 1, 41, 0
1, 1662960, Note_on_c, 1, 42, 40
1, 1663200, Note_off_c, 1, 42, 0
1, 1663200, Note_on_c, 1, 42, 40
1, 1663440, Note_off_c, 1, 42, 0
1, 1663440, Note_on_c, 1, 43, 40
1, 1663680, Note_off_c, 1, 43, 0
1, 1663680, Note_on_c, 1, 43, 40
1, 1663920, Note_off_c, 1, 43, 0
1, 1663920, Note_on_c, 1, 41, 40
1, 1664160, Note_off_c, 1, 41, 0
1, 1664160, Note_on_c, 1, 41, 40
1, 1664400, Note_off_c, 1, 41, 0
1, 1664400, Note_on_c, 1, 40, 40
1, 1664640, Note_off_c, 1, 40, 0
1, 1664640, Note_on_c, 1, 40, 40
1, 1664880, Note_off_c, 1, 40, 0
1, 1664880, Note_on_c, 1, 38, 40
1, 1665120, Note_off_c, 1, 38, 0
1, 1665120, Note_on_c, 1, 38, 40
1, 1665360, Note_off_c, 1, 38, 0
1, 1665360, Note_on_c, 1, 36, 40
1, 1665600, Note_off_c, 1, 36, 0
1, 1665600, Note_on_c, 1, 36, 40
1, 1665840, Note_off_c, 1, 36, 0
1, 1665840, Note_on_c, 1, 40, 40
1, 1666080, Note_off_c, 1, 40, 0
1, 1666080, Note_on_c, 1, 40, 40
1, 1666320, Note_off_c, 1, 40, 0
1, 1666320, Note_on_c, 1, 41, 40
1, 1666560, Note_off_c, 1, 41, 0
1, 1666560, Note_on_c, 1, 41, 40
1, 1666800, Note_off_c, 1, 41, 0
1, 1666800, Note_on_c, 1, 42, 40
1, 1667040, Note_off_c, 1, 42, 0
1, 1667040, Note_on_c, 1, 42, 40
1, 1667280, Note_off_c, 1, 42, 0
1, 1667280, Note_on_c, 1, 43, 40
1, 1667520, Note_off_c, 1, 43, 0
1, 1667520, Note_on_c, 1, 43, 40
1, 1667760, Note_off_c, 1, 43, 0
1, 1667760, Note_on_c, 1, 41, 40
1, 1668000, Note_off_c, 1, 41, 0
1, 1668000, Note_on_c, 1, 41, 40
1, 1668240, Note_off_c, 1, 41, 0
1, 1668240, Note_on_c, 1, 40, 40
1, 1668480, Note_off_c, 1, 40, 0
1, 1668480, Note_on_c, 1, 40, 40
1, 1668720, Note_off_c, 1, 40, 0
1, 1668720, Note_on_c, 1, 38, 40
1, 1668960, Note_off_c, 1, 38, 0
1, 1668960, Note_on_c, 1, 38, 40
1, 1669200, Note_off_c, 1, 38, 0
1, 1669200, Note_on_c, 1, 36, 40
1, 1669440, Note_off_c, 1, 36, 0
1, 1669440, Note_on_c, 1, 36, 40
1, 1669680, Note_off_c, 1, 36, 0
1, 1669680, Note_on_c, 1, 40, 40
1, 1669920, Note_off_c, 1, 40, 0
1, 1669920, Note_on_c, 1, 40, 40
1, 1670160, Note_off_c, 1, 40, 0
1, 1670160, Note_on_c, 1, 41, 40
1, 1670400, Note_off_c, 1, 41, 0
1, 1670400, Note_on_c, 1, 41, 40
1, 1670640, Note_off_c, 1, 41, 0
1, 1670640, Note_on_c, 1, 42, 40
1, 1670880, Note_off_c, 1, 42, 0
1, 1670880, Note_on_c, 1, 42, 40
1, 1671120, Note_off_c, 1, 42, 0
1, 1671120, Note_on_c, 1, 43, 40
1, 1671360, Note_off_c, 1, 43, 0
1, 1671360, Note_on_c, 1, 43, 40
1, 1671600, Note_off_c, 1, 43, 0
1, 1671600, Note_on_c, 1, 41, 40
1, 1671840, Note_off_c, 1, 41, 0
1, 1671840, Note_on_c, 1, 41, 40
1, 1672080, Note_off_c, 1, 41, 0
1, 1672080, Note_on_c, 1, 40, 40
1, 1672320, Note_off_c, 1, 40, 0
1, 1672320, Note_on_c, 1, 40, 40
1, 1672560, Note_off_c, 1, 40, 0
1, 1672560, Note_on_c, 1, 38, 40
1, 1672800, Note_off_c, 1, 38, 0
1, 1672800, Note_on_c, 1, 38, 40
1, 1673040, Note_off_c, 1, 38, 0
1, 1673040, Note_on_c, 1, 36, 40
1, 1673280, Note_off_c, 1, 36, 0
1, 1673280, Note_on_c, 1, 36, 40
1, 1673520, Note_off_c, 1, 36, 0
1, 1673520, Note_on_c, 1, 40, 40
1, 1673760, Note_off_c, 1, 40, 0
1, 1673760, Note_on_c, 1, 40, 40
1, 1674000, Note_off_c, 1, 40, 0
1, 1674000, Note_on_c, 1, 41, 40
1, 1674240, Note_off_c, 1, 41, 0
1, 1674240, Note_on_c, 1, 41, 40
1, 1674480, Note_off_c, 1, 41, 0
1, 1674480, Note_on_c, 1, 42, 40
1, 1674720, Note_off_c, 1, 42, 0
1, 1674720, Note_on_c, 1, 42, 40
1, 1674960, Note_off_c, 1, 42, 0
1, 1674960, Note_on_c, 1, 43, 40
1, 1675200, Note_off_c, 1, 43, 0
1, 1675200, Note_on_c, 1, 43, 40
1, 1675440, Note_off_c, 1, 43, 0
1, 1675440, Note_on_c, 1, 44, 40
1, 1675680, Note_off_c, 1, 44, 0
1, 1675680, Note_on_c, 1, 44, 40
1, 1675920, Note_off_c, 1, 44, 0
1, 1675920, Note_on_c, 1, 45, 40
1, 1676160, Note_off_c, 1, 45, 0
1, 1676160, Note_on_c, 1, 45, 40
1, 1676400, Note_off_c, 1, 45, 0
1, 1676400, Note_on_c, 1, 46, 40
1, 1676640, Note_off_c, 1, 46, 0
1, 1676640, Note_on_c, 1, 46, 40
1, 1676880, Note_off_c, 1, 46, 0
1, 1676880, Note_on_c, 1, 47, 40
1, 1677120, Note_off_c, 1, 47, 0
1, 1677120, Note_on_c, 1, 47, 40
1, 1677360, Note_off_c, 1, 47, 0
1, 1677360, Note_on_c, 1, 47, 40
1, 1677600, Note_off_c, 1, 47, 0
1, 1677600, Note_on_c, 1, 47, 40
1, 1677840, Note_off_c, 1, 47, 0
1, 1677840, Note_on_c, 1, 47, 40
1, 1678080, Note_off_c, 1, 47, 0
1, 1678080, Note_on_c, 1, 47, 40
1, 1678320, Note_off_c, 1, 47, 0
1, 1678320, Note_on_c, 1, 47, 40
1, 1678560, Note_off_c, 1, 47, 0
1, 1678560, Note_on_c, 1, 47, 40
1, 1678800, Note_off_c, 1, 47, 0
1, 1678800, Note_on_c, 1, 40, 40
1, 1679040, Note_off_c, 1, 40, 0
1, 1679040, Note_on_c, 1, 40, 40
1, 1679280, Note_off_c, 1, 40, 0
1, 1679280, Note_on_c, 1, 40, 40
1, 1679520, Note_off_c, 1, 40, 0
1, 1679520, Note_on_c, 1, 40, 40
1, 1679760, Note_off_c, 1, 40, 0
1, 1679760, Note_on_c, 1, 40, 40
1, 1680000, Note_off_c, 1, 40, 0
1, 1680000, Note_on_c, 1, 40, 40
1, 1680240, Note_off_c, 1, 40, 0
1, 1680240, Note_on_c, 1, 40, 40
1, 1680480, Note_off_c, 1, 40, 0
1, 1680480, Note_on_c, 1, 40, 40
1, 1680720, Note_off_c, 1, 40, 0
1, 1680720, Note_on_c, 1, 33, 40
1, 1680960, Note_off_c, 1, 33, 0
1, 1680960, Note_on_c, 1, 33, 40
1, 1681200, Note_off_c, 1, 33, 0
1, 1681200, Note_on_c, 1, 37, 40
1, 1681440, Note_off_c, 1, 37, 0
1, 1681440, Note_on_c, 1, 40, 40
1, 1681680, Note_off_c, 1, 40, 0
1, 1681680, Note_on_c, 1, 43, 40
1, 1681920, Note_off_c, 1, 43, 0
1, 1681920, Note_on_c, 1, 42, 40
1, 1682400, Note_off_c, 1, 42, 0
1, 1682400, Note_on_c, 1, 40, 40
1, 1682640, Note_off_c, 1, 40, 0
1, 1682640, Note_on_c, 1, 33, 40
1, 1682880, Note_off_c, 1, 33, 0
1, 1682880, Note_on_c, 1, 33, 40
1, 1683120, Note_off_c, 1, 33, 0
1, 1683120, Note_on_c, 1, 37, 40
1, 1683360, Note_off_c, 1, 37, 0
1, 1683360, Note_on_c, 1, 40, 40
1, 1683600, Note_off_c, 1, 40, 0
1, 1683600, Note_on_c, 1, 43, 40
1, 1683840, Note_off_c, 1, 43, 0
1, 1683840, Note_on_c, 1, 42, 40
1, 1684320, Note_off_c, 1, 42, 0
1, 1684320, Note_on_c, 1, 40, 40
1, 1684560, Note_off_c, 1, 40, 0
1, 1684560, Note_on_c, 1, 33, 40
1, 1684800, Note_off_c, 1, 33, 0
1, 1684800, Note_on_c, 1, 33, 40
1, 1685040, Note_off_c, 1, 33, 0
1, 1685040, Note_on_c, 1, 37, 40
1, 1685280, Note_off_c, 1, 37, 0
1, 1685280, Note_on_c, 1, 40, 40
1, 1685520, Note_off_c, 1, 40, 0
1, 1685520, Note_on_c, 1, 43, 40
1, 1685760, Note_off_c, 1, 43, 0
1, 1685760, Note_on_c, 1, 42, 40
1, 1686240, Note_off_c, 1, 42, 0
1, 1686240, Note_on_c, 1, 40, 40
1, 1686480, Note_off_c, 1, 40, 0
1, 1686480, Note_on_c, 1, 33, 40
1, 1686720, Note_off_c, 1, 33, 0
1, 1686720, Note_on_c, 1, 33, 40
1, 1686960, Note_off_c, 1, 33, 0
1, 1686960, Note_on_c, 1, 37, 40
1, 1687200, Note_off_c, 1, 37, 0
1, 1687200, Note_on_c, 1, 40, 40
1, 1687440, Note_off_c, 1, 40, 0
1, 1687440, Note_on_c, 1, 43, 40
1, 1687680, Note_off_c, 1, 43, 0
1, 1687680, Note_on_c, 1, 42, 40
1, 1688160, Note_off_c, 1, 42, 0
1, 1688160, Note_on_c, 1, 40, 40
1, 1688400, Note_off_c, 1, 40, 0
1, 1688400, Note_on_c, 1, 38, 40
1, 1688640, Note_off_c, 1, 38, 0
1, 1688640, Note_on_c, 1, 38, 40
1, 1688880, Note_off_c, 1, 38, 0
1, 1688880, Note_on_c, 1, 42, 40
1, 1689120, Note_off_c, 1, 42, 0
1, 1689120, Note_on_c, 1, 45, 40
1, 1689360, Note_off_c, 1, 45, 0
1, 1689360, Note_on_c, 1, 48, 40
1, 1689600, Note_off_c, 1, 48, 0
1, 1689600, Note_on_c, 1, 47, 40
1, 1690080, Note_off_c, 1, 47, 0
1, 1690080, Note_on_c, 1, 45, 40
1, 1690320, Note_off_c, 1, 45, 0
1, 1690320, Note_on_c, 1, 38, 40
1, 1690560, Note_off_c, 1, 38, 0
1, 1690560, Note_on_c, 1, 38, 40
1, 1690800, Note_off_c, 1, 38, 0
1, 1690800, Note_on_c, 1, 42, 40
1, 1691040, Note_off_c, 1, 42, 0
1, 1691040, Note_on_c, 1, 45, 40
1, 1691280, Note_off_c, 1, 45, 0
1, 1691280, Note_on_c, 1, 48, 40
1, 1691520, Note_off_c, 1, 48, 0
1, 1691520, Note_on_c, 1, 47, 40
1, 1692000, Note_off_c, 1, 47, 0
1, 1692000, Note_on_c, 1, 45, 40
1, 1692240, Note_off_c, 1, 45, 0
1, 1692240, Note_on_c, 1, 33, 40
1, 1692480, Note_off_c, 1, 33, 0
1, 1692480, Note_on_c, 1, 33, 40
1, 1692720, Note_off_c, 1, 33, 0
1, 1692720, Note_on_c, 1, 37, 40
1, 1692960, Note_off_c, 1, 37, 0
1, 1692960, Note_on_c, 1, 40, 40
1, 1693200, Note_off_c, 1, 40, 0
1, 1693200, Note_on_c, 1, 43, 40
1, 1693440, Note_off_c, 1, 43, 0
1, 1693440, Note_on_c, 1, 42, 40
1, 1693920, Note_off_c, 1, 42, 0
1, 1693920, Note_on_c, 1, 40, 40
1, 1694160, Note_off_c, 1, 40, 0
1, 1694160, Note_on_c, 1, 33, 40
1, 1694400, Note_off_c, 1, 33, 0
1, 1694400, Note_on_c, 1, 33, 40
1, 1694640, Note_off_c, 1, 33, 0
1, 1694640, Note_on_c, 1, 37, 40
1, 1694880, Note_off_c, 1, 37, 0
1, 1694880, Note_on_c, 1, 40, 40
1, 1695120, Note_off_c, 1, 40, 0
1, 1695120, Note_on_c, 1, 43, 40
1, 1695360, Note_off_c, 1, 43, 0
1, 1695360, Note_on_c, 1, 42, 40
1, 1695840, Note_off_c, 1, 42, 0
1, 1695840, Note_on_c, 1, 40, 40
1, 1696080, Note_off_c, 1, 40, 0
1, 1696080, Note_on_c, 1, 40, 40
1, 1696320, Note_off_c, 1, 40, 0
1, 1696320, Note_on_c, 1, 40, 40
1, 1696560, Note_off_c, 1, 40, 0
1, 1696560, Note_on_c, 1, 44, 40
1, 1696800, Note_off_c, 1, 44, 0
1, 1696800, Note_on_c, 1, 47, 40
1, 1697040, Note_off_c, 1, 47, 0
1, 1697040, Note_on_c, 1, 50, 40
1, 1697280, Note_off_c, 1, 50, 0
1, 1697280, Note_on_c, 1, 49, 40
1, 1697760, Note_off_c, 1, 49, 0
1, 1697760, Note_on_c, 1, 47, 40
1, 1698000, Note_off_c, 1, 47, 0
1, 1698000, Note_on_c, 1, 40, 40
1, 1698240, Note_off_c, 1, 40, 0
1, 1698240, Note_on_c, 1, 40, 40
1, 1698480, Note_off_c, 1, 40, 0
1, 1698480, Note_on_c, 1, 44, 40
1, 1698720, Note_off_c, 1, 44, 0
1, 1698720, Note_on_c, 1, 47, 40
1, 1698960, Note_off_c, 1, 47, 0
1, 1698960, Note_on_c, 1, 50, 40
1, 1699200, Note_off_c, 1, 50, 0
1, 1699200, Note_on_c, 1, 49, 40
1, 1699680, Note_off_c, 1, 49, 0
1, 1699680, Note_on_c, 1, 47, 40
1, 1699920, Note_off_c, 1, 47, 0
1, 1699920, Note_on_c, 1, 33, 40
1, 1700160, Note_off_c, 1, 33, 0
1, 1700160, Note_on_c, 1, 33, 40
1, 1700400, Note_off_c, 1, 33, 0
1, 1700400, Note_on_c, 1, 37, 40
1, 1700640, Note_off_c, 1, 37, 0
1, 1700640, Note_on_c, 1, 40, 40
1, 1700880, Note_off_c, 1, 40, 0
1, 1700880, Note_on_c, 1, 43, 40
1, 1701120, Note_off_c, 1, 43, 0
1, 1701120, Note_on_c, 1, 42, 40
1, 1701600, Note_off_c, 1, 42, 0
1, 1701600, Note_on_c, 1, 40, 40
1, 1701840, Note_off_c, 1, 40, 0
1, 1701840, Note_on_c, 1, 33, 40
1, 1702080, Note_off_c, 1, 33, 0
1, 1702080, Note_on_c, 1, 33, 40
1, 1702320, Note_off_c, 1, 33, 0
1, 1702320, Note_on_c, 1, 37, 40
1, 1702560, Note_off_c, 1, 37, 0
1, 1702560, Note_on_c, 1, 40, 40
1, 1702800, Note_off_c, 1, 40, 0
1, 1702800, Note_on_c, 1, 43, 40
1, 1703040, Note_off_c, 1, 43, 0
1, 1703040, Note_on_c, 1, 42, 40
1, 1703520, Note_off_c, 1, 42, 0
1, 1703520, Note_on_c, 1, 40, 40
1, 1703760, Note_off_c, 1, 40, 0
1, 1703760, Note_on_c, 1, 33, 40
1, 1704000, Note_off_c, 1, 33, 0
1, 1704000, Note_on_c, 1, 40, 40
1, 1704240, Note_off_c, 1, 40, 0
1, 1704480, Note_on_c, 1, 43, 40
1, 1704720, Note_off_c, 1, 43, 0
1, 1704960, Note_on_c, 1, 45, 40
1, 1705200, Note_off_c, 1, 45, 0
1, 1705440, Note_on_c, 1, 43, 40
1, 1705680, Note_off_c, 1, 43, 0
1, 1705680, Note_on_c, 1, 40, 40
1, 1705920, Note_off_c, 1, 40, 0
1, 1705920, Note_on_c, 1, 38, 40
1, 1706160, Note_off_c, 1, 38, 0
1, 1706160, Note_on_c, 1, 36, 40
1, 1706400, Note_off_c, 1, 36, 0
1, 1706400, Note_on_c, 1, 33, 40
1, 1706640, Note_off_c, 1, 33, 0
1, 1706640, Note_on_c, 1, 31, 40
1, 1707600, Note_off_c, 1, 31, 0
1, 1707600, Note_on_c, 1, 33, 40
1, 1707840, Note_off_c, 1, 33, 0
1, 1707840, Note_on_c, 1, 40, 40
1, 1708080, Note_off_c, 1, 40, 0
1, 1708320, Note_on_c, 1, 43, 40
1, 1708560, Note_off_c, 1, 43, 0
1, 1708800, Note_on_c, 1, 45, 40
1, 1709040, Note_off_c, 1, 45, 0
1, 1709280, Note_on_c, 1, 48, 40
1, 1709520, Note_off_c, 1, 48, 0
1, 1709520, Note_on_c, 1, 52, 40
1, 1709760, Note_off_c, 1, 52, 0
1, 1709760, Note_on_c, 1, 50, 40
1, 1710000, Note_off_c, 1, 50, 0
1, 1710000, Note_on_c, 1, 48, 40
1, 1710240, Note_off_c, 1, 48, 0
1, 1710240, Note_on_c, 1, 45, 40
1, 1710480, Note_off_c, 1, 45, 0
1, 1710480, Note_on_c, 1, 43, 40
1, 1710720, Note_off_c, 1, 43, 0
1, 1710720, Note_on_c, 1, 43, 40
1, 1710960, Note_off_c, 1, 43, 0
1, 1710960, Note_on_c, 1, 43, 40
1, 1711200, Note_off_c, 1, 43, 0
1, 1711200, Note_on_c, 1, 43, 40
1, 1711440, Note_off_c, 1, 43, 0
1, 1711440, Note_on_c, 1, 36, 40
1, 1711680, Note_off_c, 1, 36, 0
1, 1711680, Note_on_c, 1, 36, 40
1, 1711920, Note_off_c, 1, 36, 0
1, 1711920, Note_on_c, 1, 40, 40
1, 1712160, Note_off_c, 1, 40, 0
1, 1712160, Note_on_c, 1, 40, 40
1, 1712400, Note_off_c, 1, 40, 0
1, 1712400, Note_on_c, 1, 41, 40
1, 1712640, Note_off_c, 1, 41, 0
1, 1712640, Note_on_c, 1, 41, 40
1, 1712880, Note_off_c, 1, 41, 0
1, 1712880, Note_on_c, 1, 42, 40
1, 1713120, Note_off_c, 1, 42, 0
1, 1713120, Note_on_c, 1, 42, 40
1, 1713360, Note_off_c, 1, 42, 0
1, 1713360, Note_on_c, 1, 43, 40
1, 1713600, Note_off_c, 1, 43, 0
1, 1713600, Note_on_c, 1, 43, 40
1, 1713840, Note_off_c, 1, 43, 0
1, 1713840, Note_on_c, 1, 41, 40
1, 1714080, Note_off_c, 1, 41, 0
1, 1714080, Note_on_c, 1, 41, 40
1, 1714320, Note_off_c, 1, 41, 0
1, 1714320, Note_on_c, 1, 40, 40
1, 1714560, Note_off_c, 1, 40, 0
1, 1714560, Note_on_c, 1, 40, 40
1, 1714800, Note_off_c, 1, 40, 0
1, 1714800, Note_on_c, 1, 38, 40
1, 1715040, Note_off_c, 1, 38, 0
1, 1715040, Note_on_c, 1, 38, 40
1, 1715280, Note_off_c, 1, 38, 0
1, 1715280, Note_on_c, 1, 36, 40
1, 1715520, Note_off_c, 1, 36, 0
1, 1715520, Note_on_c, 1, 36, 40
1, 1715760, Note_off_c, 1, 36, 0
1, 1715760, Note_on_c, 1, 40, 40
1, 1716000, Note_off_c, 1, 40, 0
1, 1716000, Note_on_c, 1, 40, 40
1, 1716240, Note_off_c, 1, 40, 0
1, 1716240, Note_on_c, 1, 41, 40
1, 1716480, Note_off_c, 1, 41, 0
1, 1716480, Note_on_c, 1, 41, 40
1, 1716720, Note_off_c, 1, 41, 0
1, 1716720, Note_on_c, 1, 42, 40
1, 1716960, Note_off_c, 1, 42, 0
1, 1716960, Note_on_c, 1, 42, 40
1, 1717200, Note_off_c, 1, 42, 0
1, 1717200, Note_on_c, 1, 43, 40
1, 1717440, Note_off_c, 1, 43, 0
1, 1717440, Note_on_c, 1, 43, 40
1, 1717680, Note_off_c, 1, 43, 0
1, 1717680, Note_on_c, 1, 41, 40
1, 1717920, Note_off_c, 1, 41, 0
1, 1717920, Note_on_c, 1, 41, 40
1, 1718160, Note_off_c, 1, 41, 0
1, 1718160, Note_on_c, 1, 40, 40
1, 1718400, Note_off_c, 1, 40, 0
1, 1718400, Note_on_c, 1, 40, 40
1, 1718640, Note_off_c, 1, 40, 0
1, 1718640, Note_on_c, 1, 38, 40
1, 1718880, Note_off_c, 1, 38, 0
1, 1718880, Note_on_c, 1, 38, 40
1, 1719120, Note_off_c, 1, 38, 0
1, 1719120, Note_on_c, 1, 36, 40
1, 1719360, Note_off_c, 1, 36, 0
1, 1719360, Note_on_c, 1, 36, 40
1, 1719600, Note_off_c, 1, 36, 0
1, 1719600, Note_on_c, 1, 40, 40
1, 1719840, Note_off_c, 1, 40, 0
1, 1719840, Note_on_c, 1, 40, 40
1, 1720080, Note_off_c, 1, 40, 0
1, 1720080, Note_on_c, 1, 41, 40
1, 1720320, Note_off_c, 1, 41, 0
1, 1720320, Note_on_c, 1, 41, 40
1, 1720560, Note_off_c, 1, 41, 0
1, 1720560, Note_on_c, 1, 42, 40
1, 1720800, Note_off_c, 1, 42, 0
1, 1720800, Note_on_c, 1, 42, 40
1, 1721040, Note_off_c, 1, 42, 0
1, 1721040, Note_on_c, 1, 43, 40
1, 1721280, Note_off_c, 1, 43, 0
1, 1721280, Note_on_c, 1, 43, 40
1, 1721520, Note_off_c, 1, 43, 0
1, 1721520, Note_on_c, 1, 41, 40
1, 1721760, Note_off_c, 1, 41, 0
1, 1721760, Note_on_c, 1, 41, 40
1, 1722000, Note_off_c, 1, 41, 0
1, 1722000, Note_on_c, 1, 40, 40
1, 1722240, Note_off_c, 1, 40, 0
1, 1722240, Note_on_c, 1, 40, 40
1, 1722480, Note_off_c, 1, 40, 0
1, 1722480, Note_on_c, 1, 38, 40
1, 1722720, Note_off_c, 1, 38, 0
1, 1722720, Note_on_c, 1, 38, 40
1, 1722960, Note_off_c, 1, 38, 0
1, 1722960, Note_on_c, 1, 36, 40
1, 1723200, Note_off_c, 1, 36, 0
1, 1723200, Note_on_c, 1, 36, 40
1, 1723440, Note_off_c, 1, 36, 0
1, 1723440, Note_on_c, 1, 40, 40
1, 1723680, Note_off_c, 1, 40, 0
1, 1723680, Note_on_c, 1, 40, 40
1, 1723920, Note_off_c, 1, 40, 0
1, 1723920, Note_on_c, 1, 41, 40
1, 1724160, Note_off_c, 1, 41, 0
1, 1724160, Note_on_c, 1, 41, 40
1, 1724400, Note_off_c, 1, 41, 0
1, 1724400, Note_on_c, 1, 42, 40
1, 1724640, Note_off_c, 1, 42, 0
1, 1724640, Note_on_c, 1, 42, 40
1, 1724880, Note_off_c, 1, 42, 0
1, 1724880, Note_on_c, 1, 43, 40
1, 1725120, Note_off_c, 1, 43, 0
1, 1725120, Note_on_c, 1, 43, 40
1, 1725360, Note_off_c, 1, 43, 0
1, 1725360, Note_on_c, 1, 44, 40
1, 1725600, Note_off_c, 1, 44, 0
1, 1725600, Note_on_c, 1, 44, 40
1, 1725840, Note_off_c, 1, 44, 0
1, 1725840, Note_on_c, 1, 45, 40
1, 1726080, Note_off_c, 1, 45, 0
1, 1726080, Note_on_c, 1, 45, 40
1, 1726320, Note_off_c, 1, 45, 0
1, 1726320, Note_on_c, 1, 46, 40
1, 1726560, Note_off_c, 1, 46, 0
1, 1726560, Note_on_c, 1, 46, 40
1, 1726800, Note_off_c, 1, 46, 0
1, 1726800, Note_on_c, 1, 47, 40
1, 1727040, Note_off_c, 1, 47, 0
1, 1727040, Note_on_c, 1, 47, 40
1, 1727280, Note_off_c, 1, 47, 0
1, 1727280, Note_on_c, 1, 47, 40
1, 1727520, Note_off_c, 1, 47, 0
1, 1727520, Note_on_c, 1, 47, 40
1, 1727760, Note_off_c, 1, 47, 0
1, 1727760, Note_on_c, 1, 47, 40
1, 1728000, Note_off_c, 1, 47, 0
1, 1728000, Note_on_c, 1, 47, 40
1, 1728240, Note_off_c, 1, 47, 0
1, 1728240, Note_on_c, 1, 47, 40
1, 1728480, Note_off_c, 1, 47, 0
1, 1728480, Note_on_c, 1, 47, 40
1, 1728720, Note_off_c, 1, 47, 0
1, 1728720, Note_on_c, 1, 40, 40
1, 1728960, Note_off_c, 1, 40, 0
1, 1728960, Note_on_c, 1, 40, 40
1, 1729200, Note_off_c, 1, 40, 0
1, 1729200, Note_on_c, 1, 40, 40
1, 1729440, Note_off_c, 1, 40, 0
1, 1729440, Note_on_c, 1, 40, 40
1, 1729680, Note_off_c, 1, 40, 0
1, 1729680, Note_on_c, 1, 40, 40
1, 1729920, Note_off_c, 1, 40, 0
1, 1729920, Note_on_c, 1, 40, 40
1, 1730160, Note_off_c, 1, 40, 0
1, 1730160, Note_on_c, 1, 40, 40
1, 1730400, Note_off_c, 1, 40, 0
1, 1730400, Note_on_c, 1, 40, 40
1, 1730640, Note_off_c, 1, 40, 0
1, 1730640, Note_on_c, 1, 33, 40
1, 1730880, Note_off_c, 1, 33, 0
1, 1730880, Note_on_c, 1, 33, 40
1, 1731120, Note_off_c, 1, 33, 0
1, 1731120, Note_on_c, 1, 37, 40
1, 1731360, Note_off_c, 1, 37, 0
1, 1731360, Note_on_c, 1, 40, 40
1, 1731600, Note_off_c, 1, 40, 0
1, 1731600, Note_on_c, 1, 43, 40
1, 1731840, Note_off_c, 1, 43, 0
1, 1731840, Note_on_c, 1, 42, 40
1, 1732320, Note_off_c, 1, 42, 0
1, 1732320, Note_on_c, 1, 40, 40
1, 1732560, Note_off_c, 1, 40, 0
1, 1732560, Note_on_c, 1, 33, 40
1, 1732800, Note_off_c, 1, 33, 0
1, 1732800, Note_on_c, 1, 33, 40
1, 1733040, Note_off_c, 1, 33, 0
1, 1733040, Note_on_c, 1, 37, 40
1, 1733280, Note_off_c, 1, 37, 0
1, 1733280, Note_on_c, 1, 40, 40
1, 1733520, Note_off_c, 1, 40, 0
1, 1733520, Note_on_c, 1, 43, 40
1, 1733760, Note_off_c, 1, 43, 0
1, 1733760, Note_on_c, 1, 42, 40
1, 1734240, Note_off_c, 1, 42, 0
1, 1734240, Note_on_c, 1, 40, 40
1, 1734480, Note_off_c, 1, 40, 0
1, 1734480, Note_on_c, 1, 33, 40
1, 1734720, Note_off_c, 1, 33, 0
1, 1734720, Note_on_c, 1, 33, 40
1, 1734960, Note_off_c, 1, 33, 0
1, 1734960, Note_on_c, 1, 37, 40
1, 1735200, Note_off_c, 1, 37, 0
1, 1735200, Note_on_c, 1, 40, 40
1, 1735440, Note_off_c, 1, 40, 0
1, 1735440, Note_on_c, 1, 43, 40
1, 1735680, Note_off_c, 1, 43, 0
1, 1735680, Note_on_c, 1, 42, 40
1, 1736160, Note_off_c, 1, 42, 0
1, 1736160, Note_on_c, 1, 40, 40
1, 1736400, Note_off_c, 1, 40, 0
1, 1736400, Note_on_c, 1, 33, 40
1, 1736640, Note_off_c, 1, 33, 0
1, 1736640, Note_on_c, 1, 33, 40
1, 1736880, Note_off_c, 1, 33, 0
1, 1736880, Note_on_c, 1, 37, 40
1, 1737120, Note_off_c, 1, 37, 0
1, 1737120, Note_on_c, 1, 40, 40
1, 1737360, Note_off_c, 1, 40, 0
1, 1737360, Note_on_c, 1, 43, 40
1, 1737600, Note_off_c, 1, 43, 0
1, 1737600, Note_on_c, 1, 42, 40
1, 1738080, Note_off_c, 1, 42, 0
1, 1738080, Note_on_c, 1, 40, 40
1, 1738320, Note_off_c, 1, 40, 0
1, 1738320, Note_on_c, 1, 38, 40
1, 1738560, Note_off_c, 1, 38, 0
1, 1738560, Note_on_c, 1, 38, 40
1, 1738800, Note_off_c, 1, 38, 0
1, 1738800, Note_on_c, 1, 42, 40
1, 1739040, Note_off_c, 1, 42, 0
1, 1739040, Note_on_c, 1, 45, 40
1, 1739280, Note_off_c, 1, 45, 0
1, 1739280, Note_on_c, 1, 48, 40
1, 1739520, Note_off_c, 1, 48, 0
1, 1739520, Note_on_c, 1, 47, 40
1, 1740000, Note_off_c, 1, 47, 0
1, 1740000, Note_on_c, 1, 45, 40
1, 1740240, Note_off_c, 1, 45, 0
1, 1740240, Note_on_c, 1, 38, 40
1, 1740480, Note_off_c, 1, 38, 0
1, 1740480, Note_on_c, 1, 38, 40
1, 1740720, Note_off_c, 1, 38, 0
1, 1740720, Note_on_c, 1, 42, 40
1, 1740960, Note_off_c, 1, 42, 0
1, 1740960, Note_on_c, 1, 45, 40
1, 1741200, Note_off_c, 1, 45, 0
1, 1741200, Note_on_c, 1, 48, 40
1, 1741440, Note_off_c, 1, 48, 0
1, 1741440, Note_on_c, 1, 47, 40
1, 1741920, Note_off_c, 1, 47, 0
1, 1741920, Note_on_c, 1, 45, 40
1, 1742160, Note_off_c, 1, 45, 0
1, 1742160, Note_on_c, 1, 33, 40
1, 1742400, Note_off_c, 1, 33, 0
1, 1742400, Note_on_c, 1, 33, 40
1, 1742640, Note_off_c, 1, 33, 0
1, 1742640, Note_on_c, 1, 37, 40
1, 1742880, Note_off_c, 1, 37, 0
1, 1742880, Note_on_c, 1, 40, 40
1, 1743120, Note_off_c, 1, 40, 0
1, 1743120, Note_on_c, 1, 43, 40
1, 1743360, Note_off_c, 1, 43, 0
1, 1743360, Note_on_c, 1, 42, 40
1, 1743840, Note_off_c, 1, 42, 0
1, 1743840, Note_on_c, 1, 40, 40
1, 1744080, Note_off_c, 1, 40, 0
1, 1744080, Note_on_c, 1, 33, 40
1, 1744320, Note_off_c, 1, 33, 0
1, 1744320, Note_on_c, 1, 33, 40
1, 1744560, Note_off_c, 1, 33, 0
1, 1744560, Note_on_c, 1, 37, 40
1, 1744800, Note_off_c, 1, 37, 0
1, 1744800, Note_on_c, 1, 40, 40
1, 1745040, Note_off_c, 1, 40, 0
1, 1745040, Note_on_c, 1, 43, 40
1, 1745280, Note_off_c, 1, 43, 0
1, 1745280, Note_on_c, 1, 42, 40
1, 1745760, Note_off_c, 1, 42, 0
1, 1745760, Note_on_c, 1, 40, 40
1, 1746000, Note_off_c, 1, 40, 0
1, 1746000, Note_on_c, 1, 40, 40
1, 1746240, Note_off_c, 1, 40, 0
1, 1746240, Note_on_c, 1, 40, 40
1, 1746480, Note_off_c, 1, 40, 0
1, 1746480, Note_on_c, 1, 44, 40
1, 1746720, Note_off_c, 1, 44, 0
1, 1746720, Note_on_c, 1, 47, 40
1, 1746960, Note_off_c, 1, 47, 0
1, 1746960, Note_on_c, 1, 50, 40
1, 1747200, Note_off_c, 1, 50, 0
1, 1747200, Note_on_c, 1, 49, 40
1, 1747680, Note_off_c, 1, 49, 0
1, 1747680, Note_on_c, 1, 47, 40
1, 1747920, Note_off_c, 1, 47, 0
1, 1747920, Note_on_c, 1, 40, 40
1, 1748160, Note_off_c, 1, 40, 0
1, 1748160, Note_on_c, 1, 40, 40
1, 1748400, Note_off_c, 1, 40, 0
1, 1748400, Note_on_c, 1, 44, 40
1, 1748640, Note_off_c, 1, 44, 0
1, 1748640, Note_on_c, 1, 47, 40
1, 1748880, Note_off_c, 1, 47, 0
1, 1748880, Note_on_c, 1, 50, 40
1, 1749120, Note_off_c, 1, 50, 0
1, 1749120, Note_on_c, 1, 49, 40
1, 1749600, Note_off_c, 1, 49, 0
1, 1749600, Note_on_c, 1, 47, 40
1, 1749840, Note_off_c, 1, 47, 0
1, 1749840, Note_on_c, 1, 33, 40
1, 1750080, Note_off_c, 1, 33, 0
1, 1750080, Note_on_c, 1, 33, 40
1, 1750320, Note_off_c, 1, 33, 0
1, 1750320, Note_on_c, 1, 37, 40
1, 1750560, Note_off_c, 1, 37, 0
1, 1750560, Note_on_c, 1, 40, 40
1, 1750800, Note_off_c, 1, 40, 0
1, 1750800, Note_on_c, 1, 43, 40
1, 1751040, Note_off_c, 1, 43, 0
1, 1751040, Note_on_c, 1, 42, 40
1, 1751520, Note_off_c, 1, 42, 0
1, 1751520, Note_on_c, 1, 33, 40
1, 1752000, Note_off_c, 1, 33, 0
1, 1752000, Note_on_c, 1, 33, 40
1, 1752240, Note_off_c, 1, 33, 0
1, 1752240, Note_on_c, 1, 37, 40
1, 1752480, Note_off_c, 1, 37, 0
1, 1752480, Note_on_c, 1, 40, 40
1, 1752720, Note_off_c, 1, 40, 0
1, 1752720, Note_on_c, 1, 43, 40
1, 1752960, Note_off_c, 1, 43, 0
1, 1752960, Note_on_c, 1, 42, 40
1, 1753440, Note_off_c, 1, 42, 0
1, 1753440, Note_on_c, 1, 33, 40
1, 1753920, Note_off_c, 1, 33, 0
1, 1753920, Note_on_c, 1, 33, 40
1, 1754160, Note_off_c, 1, 33, 0
1, 1754160, Note_on_c, 1, 37, 40
1, 1754400, Note_off_c, 1, 37, 0
1, 1754400, Note_on_c, 1, 40, 40
1, 1754640, Note_off_c, 1, 40, 0
1, 1754640, Note_on_c, 1, 43, 40
1, 1754880, Note_off_c, 1, 43, 0
1, 1754880, Note_on_c, 1, 42, 40
1, 1755120, Note_off_c, 1, 42, 0
1, 1755120, Note_on_c, 1, 40, 40
1, 1755360, Note_off_c, 1, 40, 0
1, 1755360, Note_on_c, 1, 33, 40
1, 1757280, Note_off_c, 1, 33, 0
1, 1757280, Note_on_c, 1, 33, 40
1, 1759200, Note_off_c, 1, 33, 0
1, 1759200, Note_on_c, 1, 33, 40
1, 1759440, Note_off_c, 1, 33, 0
1, 1767120, Note_on_c, 1, 40, 40
1, 1767360, Note_off_c, 1, 40, 0
1, 1767600, Note_on_c, 1, 40, 40
1, 1767840, Note_off_c, 1, 40, 0
1, 1768080, Note_on_c, 1, 40, 40
1, 1768320, Note_off_c, 1, 40, 0
1, 1768560, Note_on_c, 1, 40, 40
1, 1768800, Note_off_c, 1, 40, 0
1, 1769040, Note_on_c, 1, 45, 40
1, 1769280, Note_off_c, 1, 45, 0
1, 1769520, Note_on_c, 1, 45, 40
1, 1769760, Note_off_c, 1, 45, 0
1, 1770000, Note_on_c, 1, 45, 40
1, 1770240, Note_off_c, 1, 45, 0
1, 1770480, Note_on_c, 1, 45, 40
1, 1770720, Note_off_c, 1, 45, 0
1, 1770960, Note_on_c, 1, 40, 40
1, 1771200, Note_off_c, 1, 40, 0
1, 1771440, Note_on_c, 1, 40, 40
1, 1771680, Note_off_c, 1, 40, 0
1, 1771920, Note_on_c, 1, 40, 40
1, 1772160, Note_off_c, 1, 40, 0
1, 1772400, Note_on_c, 1, 40, 40
1, 1772640, Note_off_c, 1, 40, 0
1, 1772880, Note_on_c, 1, 45, 40
1, 1773120, Note_off_c, 1, 45, 0
1, 1773360, Note_on_c, 1, 45, 40
1, 1773600, Note_off_c, 1, 45, 0
1, 1773840, Note_on_c, 1, 45, 40
1, 1774080, Note_off_c, 1, 45, 0
1, 1774320, Note_on_c, 1, 45, 40
1, 1774560, Note_off_c, 1, 45, 0
1, 1774800, Note_on_c, 1, 38, 40
1, 1775040, Note_off_c, 1, 38, 0
1, 1775280, Note_on_c, 1, 38, 40
1, 1775520, Note_off_c, 1, 38, 0
1, 1775760, Note_on_c, 1, 38, 40
1, 1776000, Note_off_c, 1, 38, 0
1, 1776240, Note_on_c, 1, 38, 40
1, 1776480, Note_off_c, 1, 38, 0
1, 1776720, Note_on_c, 1, 43, 40
1, 1776960, Note_off_c, 1, 43, 0
1, 1777200, Note_on_c, 1, 43, 40
1, 1777440, Note_off_c, 1, 43, 0
1, 1777680, Note_on_c, 1, 43, 40
1, 1777920, Note_off_c, 1, 43, 0
1, 1778160, Note_on_c, 1, 43, 40
1, 1778400, Note_off_c, 1, 43, 0
1, 1778640, Note_on_c, 1, 36, 40
1, 1778880, Note_off_c, 1, 36, 0
1, 1779120, Note_on_c, 1, 36, 40
1, 1779360, Note_off_c, 1, 36, 0
1, 1779600, Note_on_c, 1, 31, 40
1, 1779840, Note_off_c, 1, 31, 0
1, 1780080, Note_on_c, 1, 31, 40
1, 1780320, Note_off_c, 1, 31, 0
1, 1780560, Note_on_c, 1, 36, 40
1, 1780800, Note_off_c, 1, 36, 0
1, 1781040, Note_on_c, 1, 36, 40
1, 1781280, Note_off_c, 1, 36, 0
1, 1781520, Note_on_c, 1, 31, 40
1, 1781760, Note_off_c, 1, 31, 0
1, 1782000, Note_on_c, 1, 31, 40
1, 1782240, Note_off_c, 1, 31, 0
1, 1782480, Note_on_c, 1, 36, 40
1, 1782720, Note_off_c, 1, 36, 0
1, 1782960, Note_on_c, 1, 36, 40
1, 1783200, Note_off_c, 1, 36, 0
1, 1783440, Note_on_c, 1, 31, 40
1, 1783680, Note_off_c, 1, 31, 0
1, 1783920, Note_on_c, 1, 31, 40
1, 1784160, Note_off_c, 1, 31, 0
1, 1784400, Note_on_c, 1, 36, 40
1, 1784640, Note_off_c, 1, 36, 0
1, 1784880, Note_on_c, 1, 36, 40
1, 1785120, Note_off_c, 1, 36, 0
1, 1785360, Note_on_c, 1, 31, 40
1, 1785600, Note_off_c, 1, 31, 0
1, 1785840, Note_on_c, 1, 31, 40
1, 1786080, Note_off_c, 1, 31, 0
1, 1786320, Note_on_c, 1, 41, 40
1, 1786560, Note_off_c, 1, 41, 0
1, 1786800, Note_on_c, 1, 41, 40
1, 1787040, Note_off_c, 1, 41, 0
1, 1787280, Note_on_c, 1, 36, 40
1, 1787520, Note_off_c, 1, 36, 0
1, 1787760, Note_on_c, 1, 36, 40
1, 1788000, Note_off_c, 1, 36, 0
1, 1788240, Note_on_c, 1, 41, 40
1, 1788480, Note_off_c, 1, 41, 0
1, 1788720, Note_on_c, 1, 41, 40
1, 1788960, Note_off_c, 1, 41, 0
1, 1789200, Note_on_c, 1, 36, 40
1, 1789440, Note_off_c, 1, 36, 0
1, 1789680, Note_on_c, 1, 36, 40
1, 1789920, Note_off_c, 1, 36, 0
1, 1790160, Note_on_c, 1, 36, 40
1, 1790400, Note_off_c, 1, 36, 0
1, 1790640, Note_on_c, 1, 36, 40
1, 1790880, Note_off_c, 1, 36, 0
1, 1791120, Note_on_c, 1, 31, 40
1, 1791360, Note_off_c, 1, 31, 0
1, 1791600, Note_on_c, 1, 31, 40
1, 1791840, Note_off_c, 1, 31, 0
1, 1792080, Note_on_c, 1, 36, 40
1, 1792320, Note_off_c, 1, 36, 0
1, 1792560, Note_on_c, 1, 36, 40
1, 1792800, Note_off_c, 1, 36, 0
1, 1793040, Note_on_c, 1, 31, 40
1, 1793280, Note_off_c, 1, 31, 0
1, 1793520, Note_on_c, 1, 31, 40
1, 1793760, Note_off_c, 1, 31, 0
1, 1794000, Note_on_c, 1, 31, 40
1, 1794240, Note_off_c, 1, 31, 0
1, 1794480, Note_on_c, 1, 31, 40
1, 1794720, Note_off_c, 1, 31, 0
1, 1794960, Note_on_c, 1, 38, 40
1, 1795200, Note_off_c, 1, 38, 0
1, 1795440, Note_on_c, 1, 31, 40
1, 1795680, Note_off_c, 1, 31, 0
1, 1795920, Note_on_c, 1, 29, 40
1, 1796160, Note_off_c, 1, 29, 0
1, 1797840, Note_on_c, 1, 29, 40
1, 1798080, Note_off_c, 1, 29, 0
1, 1798320, Note_on_c, 1, 29, 40
1, 1798560, Note_off_c, 1, 29, 0
1, 1798800, Note_on_c, 1, 29, 40
1, 1799040, Note_off_c, 1, 29, 0
1, 1799280, Note_on_c, 1, 29, 40
1, 1799520, Note_off_c, 1, 29, 0
1, 1799760, Note_on_c, 1, 36, 40
1, 1800000, Note_off_c, 1, 36, 0
1, 1800240, Note_on_c, 1, 36, 40
1, 1800480, Note_off_c, 1, 36, 0
1, 1800720, Note_on_c, 1, 31, 40
1, 1800960, Note_off_c, 1, 31, 0
1, 1801200, Note_on_c, 1, 31, 40
1, 1801440, Note_off_c, 1, 31, 0
1, 1801680, Note_on_c, 1, 36, 40
1, 1801920, Note_off_c, 1, 36, 0
1, 1802160, Note_on_c, 1, 36, 40
1, 1802400, Note_off_c, 1, 36, 0
1, 1802640, Note_on_c, 1, 31, 40
1, 1802880, Note_off_c, 1, 31, 0
1, 1803120, Note_on_c, 1, 31, 40
1, 1803360, Note_off_c, 1, 31, 0
1, 1803600, Note_on_c, 1, 36, 40
1, 1803840, Note_off_c, 1, 36, 0
1, 1804080, Note_on_c, 1, 36, 40
1, 1804320, Note_off_c, 1, 36, 0
1, 1804560, Note_on_c, 1, 31, 40
1, 1804800, Note_off_c, 1, 31, 0
1, 1805040, Note_on_c, 1, 31, 40
1, 1805280, Note_off_c, 1, 31, 0
1, 1805520, Note_on_c, 1, 36, 40
1, 1805760, Note_off_c, 1, 36, 0
1, 1806000, Note_on_c, 1, 36, 40
1, 1806240, Note_off_c, 1, 36, 0
1, 1806480, Note_on_c, 1, 31, 40
1, 1806720, Note_off_c, 1, 31, 0
1, 1806960, Note_on_c, 1, 31, 40
1, 1807200, Note_off_c, 1, 31, 0
1, 1807440, Note_on_c, 1, 36, 40
1, 1807680, Note_off_c, 1, 36, 0
1, 1807920, Note_on_c, 1, 36, 40
1, 1808160, Note_off_c, 1, 36, 0
1, 1808400, Note_on_c, 1, 31, 40
1, 1808640, Note_off_c, 1, 31, 0
1, 1808880, Note_on_c, 1, 31, 40
1, 1809120, Note_off_c, 1, 31, 0
1, 1809360, Note_on_c, 1, 41, 40
1, 1809600, Note_off_c, 1, 41, 0
1, 1809840, Note_on_c, 1, 41, 40
1, 1810080, Note_off_c, 1, 41, 0
1, 1810320, Note_on_c, 1, 36, 40
1, 1810560, Note_off_c, 1, 36, 0
1, 1810800, Note_on_c, 1, 36, 40
1, 1811040, Note_off_c, 1, 36, 0
1, 1811280, Note_on_c, 1, 41, 40
1, 1811520, Note_off_c, 1, 41, 0
1, 1811760, Note_on_c, 1, 41, 40
1, 1812000, Note_off_c, 1, 41, 0
1, 1812240, Note_on_c, 1, 36, 40
1, 1812480, Note_off_c, 1, 36, 0
1, 1812720, Note_on_c, 1, 36, 40
1, 1812960, Note_off_c, 1, 36, 0
1, 1813200, Note_on_c, 1, 36, 40
1, 1813440, Note_off_c, 1, 36, 0
1, 1813680, Note_on_c, 1, 36, 40
1, 1813920, Note_off_c, 1, 36, 0
1, 1814160, Note_on_c, 1, 31, 40
1, 1814400, Note_off_c, 1, 31, 0
1, 1814640, Note_on_c, 1, 31, 40
1, 1814880, Note_off_c, 1, 31, 0
1, 1815120, Note_on_c, 1, 36, 40
1, 1815360, Note_off_c, 1, 36, 0
1, 1815600, Note_on_c, 1, 36, 40
1, 1815840, Note_off_c, 1, 36, 0
1, 1816080, Note_on_c, 1, 31, 40
1, 1816320, Note_off_c, 1, 31, 0
1, 1816560, Note_on_c, 1, 31, 40
1, 1816800, Note_off_c, 1, 31, 0
1, 1817040, Note_on_c, 1, 31, 40
1, 1817280, Note_off_c, 1, 31, 0
1, 1817520, Note_on_c, 1, 31, 40
1, 1817760, Note_off_c, 1, 31, 0
1, 1818000, Note_on_c, 1, 38, 40
1, 1818240, Note_off_c, 1, 38, 0
1, 1818480, Note_on_c, 1, 31, 40
1, 1818720, Note_off_c, 1, 31, 0
1, 1818960, Note_on_c, 1, 29, 40
1, 1819200, Note_off_c, 1, 29, 0
1, 1820880, Note_on_c, 1, 29, 40
1, 1821120, Note_off_c, 1, 29, 0
1, 1821360, Note_on_c, 1, 29, 40
1, 1821600, Note_off_c, 1, 29, 0
1, 1821840, Note_on_c, 1, 29, 40
1, 1822080, Note_off_c, 1, 29, 0
1, 1822320, Note_on_c, 1, 29, 40
1, 1822560, Note_off_c, 1, 29, 0
1, 1822800, Note_on_c, 1, 36, 40
1, 1823040, Note_off_c, 1, 36, 0
1, 1823280, Note_on_c, 1, 36, 40
1, 1823520, Note_off_c, 1, 36, 0
1, 1823760, Note_on_c, 1, 36, 40
1, 1824000, Note_off_c, 1, 36, 0
1, 1824240, Note_on_c, 1, 36, 40
1, 1824480, Note_off_c, 1, 36, 0
1, 1824720, Note_on_c, 1, 40, 40
1, 1824960, Note_off_c, 1, 40, 0
1, 1825200, Note_on_c, 1, 40, 40
1, 1825440, Note_off_c, 1, 40, 0
1, 1825680, Note_on_c, 1, 40, 40
1, 1825920, Note_off_c, 1, 40, 0
1, 1826160, Note_on_c, 1, 40, 40
1, 1826400, Note_off_c, 1, 40, 0
1, 1826640, Note_on_c, 1, 45, 40
1, 1826880, Note_off_c, 1, 45, 0
1, 1827120, Note_on_c, 1, 45, 40
1, 1827360, Note_off_c, 1, 45, 0
1, 1827600, Note_on_c, 1, 45, 40
1, 1827840, Note_off_c, 1, 45, 0
1, 1828080, Note_on_c, 1, 45, 40
1, 1828320, Note_off_c, 1, 45, 0
1, 1828560, Note_on_c, 1, 36, 40
1, 1828800, Note_off_c, 1, 36, 0
1, 1829040, Note_on_c, 1, 36, 40
1, 1829280, Note_off_c, 1, 36, 0
1, 1829520, Note_on_c, 1, 31, 40
1, 1829760, Note_off_c, 1, 31, 0
1, 1830000, Note_on_c, 1, 31, 40
1, 1830240, Note_off_c, 1, 31, 0
1, 1830480, Note_on_c, 1, 36, 40
1, 1830720, Note_off_c, 1, 36, 0
1, 1830960, Note_on_c, 1, 36, 40
1, 1831200, Note_off_c, 1, 36, 0
1, 1831440, Note_on_c, 1, 31, 40
1, 1831680, Note_off_c, 1, 31, 0
1, 1831920, Note_on_c, 1, 31, 40
1, 1832160, Note_off_c, 1, 31, 0
1, 1832400, Note_on_c, 1, 40, 40
1, 1832640, Note_off_c, 1, 40, 0
1, 1832880, Note_on_c, 1, 40, 40
1, 1833120, Note_off_c, 1, 40, 0
1, 1833360, Note_on_c, 1, 40, 40
1, 1833600, Note_off_c, 1, 40, 0
1, 1833840, Note_on_c, 1, 40, 40
1, 1834080, Note_off_c, 1, 40, 0
1, 1834320, Note_on_c, 1, 45, 40
1, 1834560, Note_off_c, 1, 45, 0
1, 1834800, Note_on_c, 1, 45, 40
1, 1835040, Note_off_c, 1, 45, 0
1, 1835280, Note_on_c, 1, 45, 40
1, 1835520, Note_off_c, 1, 45, 0
1, 1835760, Note_on_c, 1, 45, 40
1, 1836000, Note_off_c, 1, 45, 0
1, 1836240, Note_on_c, 1, 38, 40
1, 1836480, Note_off_c, 1, 38, 0
1, 1836720, Note_on_c, 1, 38, 40
1, 1836960, Note_off_c, 1, 38, 0
1, 1837200, Note_on_c, 1, 38, 40
1, 1837440, Note_off_c, 1, 38, 0
1, 1837680, Note_on_c, 1, 38, 40
1, 1837920, Note_off_c, 1, 38, 0
1, 1838160, Note_on_c, 1, 31, 40
1, 1838400, Note_off_c, 1, 31, 0
1, 1838640, Note_on_c, 1, 31, 40
1, 1838880, Note_off_c, 1, 31, 0
1, 1839120, Note_on_c, 1, 31, 40
1, 1839360, Note_off_c, 1, 31, 0
1, 1839600, Note_on_c, 1, 31, 40
1, 1839840, Note_off_c, 1, 31, 0
1, 1840080, Note_on_c, 1, 36, 40
1, 1840320, Note_off_c, 1, 36, 0
1, 1840560, Note_on_c, 1, 36, 40
1, 1840800, Note_off_c, 1, 36, 0
1, 1841040, Note_on_c, 1, 31, 40
1, 1841280, Note_off_c, 1, 31, 0
1, 1841520, Note_on_c, 1, 34, 40
1, 1841760, Note_off_c, 1, 34, 0
1, 1842000, Note_on_c, 1, 36, 40
1, 1842240, Note_off_c, 1, 36, 0
1, 1842480, Note_on_c, 1, 36, 40
1, 1842720, Note_off_c, 1, 36, 0
1, 1842960, Note_on_c, 1, 31, 40
1, 1843200, Note_off_c, 1, 31, 0
1, 1843440, Note_on_c, 1, 34, 40
1, 1843680, Note_off_c, 1, 34, 0
1, 1843920, Note_on_c, 1, 36, 40
1, 1844160, Note_off_c, 1, 36, 0
1, 1844400, Note_on_c, 1, 36, 40
1, 1844640, Note_off_c, 1, 36, 0
1, 1844880, Note_on_c, 1, 31, 40
1, 1845120, Note_off_c, 1, 31, 0
1, 1845360, Note_on_c, 1, 34, 40
1, 1845600, Note_off_c, 1, 34, 0
1, 1845840, Note_on_c, 1, 36, 40
1, 1846080, Note_off_c, 1, 36, 0
1, 1846320, Note_on_c, 1, 36, 40
1, 1846560, Note_off_c, 1, 36, 0
1, 1846800, Note_on_c, 1, 31, 40
1, 1847040, Note_off_c, 1, 31, 0
1, 1847280, Note_on_c, 1, 34, 40
1, 1847520, Note_off_c, 1, 34, 0
1, 1847760, Note_on_c, 1, 29, 40
1, 1848000, Note_off_c, 1, 29, 0
1, 1848240, Note_on_c, 1, 29, 40
1, 1848480, Note_off_c, 1, 29, 0
1, 1848720, Note_on_c, 1, 36, 40
1, 1848960, Note_off_c, 1, 36, 0
1, 1849200, Note_on_c, 1, 36, 40
1, 1849440, Note_off_c, 1, 36, 0
1, 1849680, Note_on_c, 1, 29, 40
1, 1849920, Note_off_c, 1, 29, 0
1, 1850160, Note_on_c, 1, 29, 40
1, 1850400, Note_off_c, 1, 29, 0
1, 1850640, Note_on_c, 1, 36, 40
1, 1850880, Note_off_c, 1, 36, 0
1, 1851120, Note_on_c, 1, 29, 40
1, 1851360, Note_off_c, 1, 29, 0
1, 1851600, Note_on_c, 1, 36, 40
1, 1851840, Note_off_c, 1, 36, 0
1, 1852080, Note_on_c, 1, 36, 40
1, 1852320, Note_off_c, 1, 36, 0
1, 1852560, Note_on_c, 1, 31, 40
1, 1852800, Note_off_c, 1, 31, 0
1, 1853040, Note_on_c, 1, 31, 40
1, 1853280, Note_off_c, 1, 31, 0
1, 1853520, Note_on_c, 1, 36, 40
1, 1853760, Note_off_c, 1, 36, 0
1, 1854000, Note_on_c, 1, 36, 40
1, 1854240, Note_off_c, 1, 36, 0
1, 1854480, Note_on_c, 1, 31, 40
1, 1854720, Note_off_c, 1, 31, 0
1, 1854960, Note_on_c, 1, 33, 40
1, 1855200, Note_off_c, 1, 33, 0
1, 1855440, Note_on_c, 1, 31, 40
1, 1855680, Note_off_c, 1, 31, 0
1, 1855920, Note_on_c, 1, 31, 40
1, 1856160, Note_off_c, 1, 31, 0
1, 1856400, Note_on_c, 1, 38, 40
1, 1856640, Note_off_c, 1, 38, 0
1, 1856880, Note_on_c, 1, 31, 40
1, 1857120, Note_off_c, 1, 31, 0
1, 1857360, Note_on_c, 1, 29, 40
1, 1857600, Note_off_c, 1, 29, 0
1, 1859280, Note_on_c, 1, 29, 40
1, 1859520, Note_off_c, 1, 29, 0
1, 1859760, Note_on_c, 1, 29, 40
1, 1860000, Note_off_c, 1, 29, 0
1, 1860240, Note_on_c, 1, 29, 40
1, 1860480, Note_off_c, 1, 29, 0
1, 1860720, Note_on_c, 1, 29, 40
1, 1860960, Note_off_c, 1, 29, 0
1, 1861200, Note_on_c, 1, 36, 40
1, 1861440, Note_off_c, 1, 36, 0
1, 1861680, Note_on_c, 1, 36, 40
1, 1861920, Note_off_c, 1, 36, 0
1, 1862160, Note_on_c, 1, 31, 40
1, 1862400, Note_off_c, 1, 31, 0
1, 1862640, Note_on_c, 1, 31, 40
1, 1862880, Note_off_c, 1, 31, 0
1, 1863120, Note_on_c, 1, 36, 40
1, 1863360, Note_off_c, 1, 36, 0
1, 1863600, Note_on_c, 1, 31, 40
1, 1863840, Note_off_c, 1, 31, 0
1, 1864080, Note_on_c, 1, 31, 40
1, 1864320, Note_off_c, 1, 31, 0
1, 1864560, Note_on_c, 1, 34, 40
1, 1864800, Note_off_c, 1, 34, 0
1, 1865040, Note_on_c, 1, 36, 40
1, 1865280, Note_off_c, 1, 36, 0
1, 1865520, Note_on_c, 1, 36, 40
1, 1865760, Note_off_c, 1, 36, 0
1, 1866000, Note_on_c, 1, 31, 40
1, 1866240, Note_off_c, 1, 31, 0
1, 1866480, Note_on_c, 1, 31, 40
1, 1866720, Note_off_c, 1, 31, 0
1, 1866960, Note_on_c, 1, 36, 40
1, 1867200, Note_off_c, 1, 36, 0
1, 1867440, Note_on_c, 1, 36, 40
1, 1867680, Note_off_c, 1, 36, 0
1, 1867920, Note_on_c, 1, 31, 40
1, 1868160, Note_off_c, 1, 31, 0
1, 1868400, Note_on_c, 1, 31, 40
1, 1868640, Note_off_c, 1, 31, 0
1, 1868880, Note_on_c, 1, 36, 40
1, 1869120, Note_off_c, 1, 36, 0
1, 1869360, Note_on_c, 1, 36, 40
1, 1869600, Note_off_c, 1, 36, 0
1, 1869840, Note_on_c, 1, 31, 40
1, 1870080, Note_off_c, 1, 31, 0
1, 1870320, Note_on_c, 1, 31, 40
1, 1870560, Note_off_c, 1, 31, 0
1, 1870800, Note_on_c, 1, 36, 40
1, 1871040, Note_off_c, 1, 36, 0
1, 1871280, Note_on_c, 1, 36, 40
1, 1871520, Note_off_c, 1, 36, 0
1, 1871760, Note_on_c, 1, 31, 40
1, 1872000, Note_off_c, 1, 31, 0
1, 1872240, Note_on_c, 1, 31, 40
1, 1872480, Note_off_c, 1, 31, 0
1, 1872720, Note_on_c, 1, 41, 40
1, 1872960, Note_off_c, 1, 41, 0
1, 1873200, Note_on_c, 1, 41, 40
1, 1873440, Note_off_c, 1, 41, 0
1, 1873680, Note_on_c, 1, 36, 40
1, 1873920, Note_off_c, 1, 36, 0
1, 1874160, Note_on_c, 1, 36, 40
1, 1874400, Note_off_c, 1, 36, 0
1, 1874640, Note_on_c, 1, 41, 40
1, 1874880, Note_off_c, 1, 41, 0
1, 1875120, Note_on_c, 1, 41, 40
1, 1875360, Note_off_c, 1, 41, 0
1, 1875600, Note_on_c, 1, 36, 40
1, 1875840, Note_off_c, 1, 36, 0
1, 1876080, Note_on_c, 1, 36, 40
1, 1876320, Note_off_c, 1, 36, 0
1, 1876560, Note_on_c, 1, 36, 40
1, 1876800, Note_off_c, 1, 36, 0
1, 1877040, Note_on_c, 1, 36, 40
1, 1877280, Note_off_c, 1, 36, 0
1, 1877520, Note_on_c, 1, 31, 40
1, 1877760, Note_off_c, 1, 31, 0
1, 1878000, Note_on_c, 1, 31, 40
1, 1878240, Note_off_c, 1, 31, 0
1, 1878480, Note_on_c, 1, 36, 40
1, 1878720, Note_off_c, 1, 36, 0
1, 1878960, Note_on_c, 1, 36, 40
1, 1879200, Note_off_c, 1, 36, 0
1, 1879440, Note_on_c, 1, 31, 40
1, 1879680, Note_off_c, 1, 31, 0
1, 1879920, Note_on_c, 1, 31, 40
1, 1880160, Note_off_c, 1, 31, 0
1, 1880400, Note_on_c, 1, 31, 40
1, 1880640, Note_off_c, 1, 31, 0
1, 1880880, Note_on_c, 1, 31, 40
1, 1881120, Note_off_c, 1, 31, 0
1, 1881360, Note_on_c, 1, 38, 40
1, 1881600, Note_off_c, 1, 38, 0
1, 1881840, Note_on_c, 1, 31, 40
1, 1882080, Note_off_c, 1, 31, 0
1, 1882320, Note_on_c, 1, 29, 40
1, 1882560, Note_off_c, 1, 29, 0
1, 1884240, Note_on_c, 1, 29, 40
1, 1884480, Note_off_c, 1, 29, 0
1, 1884720, Note_on_c, 1, 29, 40
1, 1884960, Note_off_c, 1, 29, 0
1, 1885200, Note_on_c, 1, 29, 40
1, 1885440, Note_off_c, 1, 29, 0
1, 1885680, Note_on_c, 1, 29, 40
1, 1885920, Note_off_c, 1, 29, 0
1, 1886160, Note_on_c, 1, 36, 40
1, 1886400, Note_off_c, 1, 36, 0
1, 1886640, Note_on_c, 1, 36, 40
1, 1886880, Note_off_c, 1, 36, 0
1, 1887120, Note_on_c, 1, 36, 40
1, 1887360, Note_off_c, 1, 36, 0
1, 1887600, Note_on_c, 1, 36, 40
1, 1887840, Note_off_c, 1, 36, 0
1, 1888080, Note_on_c, 1, 40, 40
1, 1888320, Note_off_c, 1, 40, 0
1, 1888560, Note_on_c, 1, 40, 40
1, 1888800, Note_off_c, 1, 40, 0
1, 1889040, Note_on_c, 1, 40, 40
1, 1889280, Note_off_c, 1, 40, 0
1, 1889520, Note_on_c, 1, 40, 40
1, 1889760, Note_off_c, 1, 40, 0
1, 1890000, Note_on_c, 1, 45, 40
1, 1890240, Note_off_c, 1, 45, 0
1, 1890480, Note_on_c, 1, 45, 40
1, 1890720, Note_off_c, 1, 45, 0
1, 1890960, Note_on_c, 1, 45, 40
1, 1891200, Note_off_c, 1, 45, 0
1, 1891440, Note_on_c, 1, 45, 40
1, 1891680, Note_off_c, 1, 45, 0
1, 1891920, Note_on_c, 1, 36, 40
1, 1892160, Note_off_c, 1, 36, 0
1, 1892400, Note_on_c, 1, 36, 40
1, 1892640, Note_off_c, 1, 36, 0
1, 1892880, Note_on_c, 1, 31, 40
1, 1893120, Note_off_c, 1, 31, 0
1, 1893360, Note_on_c, 1, 31, 40
1, 1893600, Note_off_c, 1, 31, 0
1, 1893840, Note_on_c, 1, 36, 40
1, 1894080, Note_off_c, 1, 36, 0
1, 1894320, Note_on_c, 1, 36, 40
1, 1894560, Note_off_c, 1, 36, 0
1, 1894800, Note_on_c, 1, 31, 40
1, 1895040, Note_off_c, 1, 31, 0
1, 1895280, Note_on_c, 1, 31, 40
1, 1895520, Note_off_c, 1, 31, 0
1, 1895760, Note_on_c, 1, 40, 40
1, 1896000, Note_off_c, 1, 40, 0
1, 1896240, Note_on_c, 1, 40, 40
1, 1896480, Note_off_c, 1, 40, 0
1, 1896720, Note_on_c, 1, 40, 40
1, 1896960, Note_off_c, 1, 40, 0
1, 1897200, Note_on_c, 1, 40, 40
1, 1897440, Note_off_c, 1, 40, 0
1, 1897680, Note_on_c, 1, 45, 40
1, 1897920, Note_off_c, 1, 45, 0
1, 1898160, Note_on_c, 1, 45, 40
1, 1898400, Note_off_c, 1, 45, 0
1, 1898640, Note_on_c, 1, 45, 40
1, 1898880, Note_off_c, 1, 45, 0
1, 1899120, Note_on_c, 1, 45, 40
1, 1899360, Note_off_c, 1, 45, 0
1, 1899600, Note_on_c, 1, 38, 40
1, 1899840, Note_off_c, 1, 38, 0
1, 1900080, Note_on_c, 1, 38, 40
1, 1900320, Note_off_c, 1, 38, 0
1, 1900560, Note_on_c, 1, 38, 40
1, 1900800, Note_off_c, 1, 38, 0
1, 1901040, Note_on_c, 1, 38, 40
1, 1901280, Note_off_c, 1, 38, 0
1, 1901520, Note_on_c, 1, 31, 40
1, 1901760, Note_off_c, 1, 31, 0
1, 1902000, Note_on_c, 1, 31, 40
1, 1902240, Note_off_c, 1, 31, 0
1, 1902480, Note_on_c, 1, 31, 40
1, 1902720, Note_off_c, 1, 31, 0
1, 1902960, Note_on_c, 1, 31, 40
1, 1903200, Note_off_c, 1, 31, 0
1, 1903440, Note_on_c, 1, 36, 40
1, 1903680, Note_off_c, 1, 36, 0
1, 1903920, Note_on_c, 1, 36, 40
1, 1904160, Note_off_c, 1, 36, 0
1, 1904400, Note_on_c, 1, 31, 40
1, 1904640, Note_off_c, 1, 31, 0
1, 1904880, Note_on_c, 1, 34, 40
1, 1905120, Note_off_c, 1, 34, 0
1, 1905360, Note_on_c, 1, 36, 40
1, 1905600, Note_off_c, 1, 36, 0
1, 1905840, Note_on_c, 1, 36, 40
1, 1906080, Note_off_c, 1, 36, 0
1, 1906320, Note_on_c, 1, 31, 40
1, 1906560, Note_off_c, 1, 31, 0
1, 1906800, Note_on_c, 1, 34, 40
1, 1907040, Note_off_c, 1, 34, 0
1, 1907280, Note_on_c, 1, 36, 40
1, 1907520, Note_off_c, 1, 36, 0
1, 1907760, Note_on_c, 1, 36, 40
1, 1908000, Note_off_c, 1, 36, 0
1, 1908240, Note_on_c, 1, 31, 40
1, 1908480, Note_off_c, 1, 31, 0
1, 1908720, Note_on_c, 1, 34, 40
1, 1908960, Note_off_c, 1, 34, 0
1, 1909200, Note_on_c, 1, 36, 40
1, 1909440, Note_off_c, 1, 36, 0
1, 1909680, Note_on_c, 1, 36, 40
1, 1909920, Note_off_c, 1, 36, 0
1, 1910160, Note_on_c, 1, 31, 40
1, 1910400, Note_off_c, 1, 31, 0
1, 1910640, Note_on_c, 1, 34, 40
1, 1910880, Note_off_c, 1, 34, 0
1, 1911120, Note_on_c, 1, 29, 40
1, 1911360, Note_off_c, 1, 29, 0
1, 1911600, Note_on_c, 1, 29, 40
1, 1911840, Note_off_c, 1, 29, 0
1, 1912080, Note_on_c, 1, 36, 40
1, 1912320, Note_off_c, 1, 36, 0
1, 1912560, Note_on_c, 1, 36, 40
1, 1912800, Note_off_c, 1, 36, 0
1, 1913040, Note_on_c, 1, 29, 40
1, 1913280, Note_off_c, 1, 29, 0
1, 1913520, Note_on_c, 1, 29, 40
1, 1913760, Note_off_c, 1, 29, 0
1, 1914000, Note_on_c, 1, 36, 40
1, 1914240, Note_off_c, 1, 36, 0
1, 1914480, Note_on_c, 1, 29, 40
1, 1914720, Note_off_c, 1, 29, 0
1, 1914960, Note_on_c, 1, 36, 40
1, 1915200, Note_off_c, 1, 36, 0
1, 1915440, Note_on_c, 1, 36, 40
1, 1915680, Note_off_c, 1, 36, 0
1, 1915920, Note_on_c, 1, 31, 40
1, 1916160, Note_off_c, 1, 31, 0
1, 1916400, Note_on_c, 1, 31, 40
1, 1916640, Note_off_c, 1, 31, 0
1, 1916880, Note_on_c, 1, 36, 40
1, 1917120, Note_off_c, 1, 36, 0
1, 1917360, Note_on_c, 1, 36, 40
1, 1917600, Note_off_c, 1, 36, 0
1, 1917840, Note_on_c, 1, 31, 40
1, 1918080, Note_off_c, 1, 31, 0
1, 1918320, Note_on_c, 1, 33, 40
1, 1918560, Note_off_c, 1, 33, 0
1, 1918800, Note_on_c, 1, 31, 40
1, 1919040, Note_off_c, 1, 31, 0
1, 1919280, Note_on_c, 1, 31, 40
1, 1919520, Note_off_c, 1, 31, 0
1, 1919760, Note_on_c, 1, 38, 40
1, 1920000, Note_off_c, 1, 38, 0
1, 1920240, Note_on_c, 1, 31, 40
1, 1920480, Note_off_c, 1, 31, 0
1, 1920720, Note_on_c, 1, 29, 40
1, 1920960, Note_off_c, 1, 29, 0
1, 1922640, Note_on_c, 1, 41, 40
1, 1922880, Note_off_c, 1, 41, 0
1, 1923120, Note_on_c, 1, 41, 40
1, 1923360, Note_off_c, 1, 41, 0
1, 1923600, Note_on_c, 1, 36, 40
1, 1923840, Note_off_c, 1, 36, 0
1, 1924080, Note_on_c, 1, 41, 40
1, 1924320, Note_off_c, 1, 41, 0
1, 1924560, Note_on_c, 1, 36, 40
1, 1924800, Note_off_c, 1, 36, 0
1, 1925040, Note_on_c, 1, 36, 40
1, 1925280, Note_off_c, 1, 36, 0
1, 1925520, Note_on_c, 1, 31, 40
1, 1925760, Note_off_c, 1, 31, 0
1, 1926000, Note_on_c, 1, 36, 40
1, 1926240, Note_off_c, 1, 36, 0
1, 1926480, Note_on_c, 1, 40, 40
1, 1926720, Note_off_c, 1, 40, 0
1, 1926960, Note_on_c, 1, 40, 40
1, 1927200, Note_off_c, 1, 40, 0
1, 1927440, Note_on_c, 1, 40, 40
1, 1927680, Note_off_c, 1, 40, 0
1, 1927920, Note_on_c, 1, 40, 40
1, 1928160, Note_off_c, 1, 40, 0
1, 1928400, Note_on_c, 1, 45, 40
1, 1928640, Note_off_c, 1, 45, 0
1, 1928880, Note_on_c, 1, 45, 40
1, 1929120, Note_off_c, 1, 45, 0
1, 1929360, Note_on_c, 1, 45, 40
1, 1929600, Note_off_c, 1, 45, 0
1, 1929840, Note_on_c, 1, 45, 40
1, 1930080, Note_off_c, 1, 45, 0
1, 1930320, Note_on_c, 1, 40, 40
1, 1930560, Note_off_c, 1, 40, 0
1, 1930800, Note_on_c, 1, 40, 40
1, 1931040, Note_off_c, 1, 40, 0
1, 1931280, Note_on_c, 1, 40, 40
1, 1931520, Note_off_c, 1, 40, 0
1, 1931760, Note_on_c, 1, 40, 40
1, 1932000, Note_off_c, 1, 40, 0
1, 1932240, Note_on_c, 1, 45, 40
1, 1932480, Note_off_c, 1, 45, 0
1, 1932720, Note_on_c, 1, 45, 40
1, 1932960, Note_off_c, 1, 45, 0
1, 1933200, Note_on_c, 1, 45, 40
1, 1933440, Note_off_c, 1, 45, 0
1, 1933680, Note_on_c, 1, 45, 40
1, 1933920, Note_off_c, 1, 45, 0
1, 1934160, Note_on_c, 1, 38, 40
1, 1934400, Note_off_c, 1, 38, 0
1, 1934640, Note_on_c, 1, 38, 40
1, 1934880, Note_off_c, 1, 38, 0
1, 1935120, Note_on_c, 1, 38, 40
1, 1935360, Note_off_c, 1, 38, 0
1, 1935600, Note_on_c, 1, 38, 40
1, 1935840, Note_off_c, 1, 38, 0
1, 1936080, Note_on_c, 1, 31, 40
1, 1936320, Note_off_c, 1, 31, 0
1, 1936560, Note_on_c, 1, 31, 40
1, 1936800, Note_off_c, 1, 31, 0
1, 1937040, Note_on_c, 1, 31, 40
1, 1937280, Note_off_c, 1, 31, 0
1, 1937520, Note_on_c, 1, 31, 40
1, 1937760, Note_off_c, 1, 31, 0
1, 1938000, Note_on_c, 1, 36, 40
1, 1938240, Note_off_c, 1, 36, 0
1, 1938480, Note_on_c, 1, 36, 40
1, 1938720, Note_off_c, 1, 36, 0
1, 1938960, Note_on_c, 1, 31, 40
1, 1939200, Note_off_c, 1, 31, 0
1, 1939440, Note_on_c, 1, 31, 40
1, 1939680, Note_off_c, 1, 31, 0
1, 1939920, Note_on_c, 1, 36, 40
1, 1941120, Note_off_c, 1, 36, 0
1, 1947600, Note_on_c, 1, 33, 40
1, 1947840, Note_off_c, 1, 33, 0
1, 1947840, Note_on_c, 1, 33, 40
1, 1948080, Note_off_c, 1, 33, 0
1, 1948080, Note_on_c, 1, 38, 40
1, 1948200, Note_off_c, 1, 38, 0
1, 1948200, Note_on_c, 1, 40, 40
1, 1948320, Note_off_c, 1, 40, 0
1, 1948320, Note_on_c, 1, 48, 40
1, 1949040, Note_off_c, 1, 48, 0
1, 1949040, Note_on_c, 1, 45, 40
1, 1949520, Note_off_c, 1, 45, 0
1, 1949520, Note_on_c, 1, 33, 40
1, 1949760, Note_off_c, 1, 33, 0
1, 1949760, Note_on_c, 1, 33, 40
1, 1950000, Note_off_c, 1, 33, 0
1, 1950000, Note_on_c, 1, 38, 40
1, 1950120, Note_off_c, 1, 38, 0
1, 1950120, Note_on_c, 1, 40, 40
1, 1950240, Note_off_c, 1, 40, 0
1, 1950240, Note_on_c, 1, 48, 40
1, 1950960, Note_off_c, 1, 48, 0
1, 1950960, Note_on_c, 1, 45, 40
1, 1951440, Note_off_c, 1, 45, 0
1, 1951440, Note_on_c, 1, 33, 40
1, 1951680, Note_off_c, 1, 33, 0
1, 1951680, Note_on_c, 1, 33, 40
1, 1951920, Note_off_c, 1, 33, 0
1, 1951920, Note_on_c, 1, 38, 40
1, 1952040, Note_off_c, 1, 38, 0
1, 1952040, Note_on_c, 1, 40, 40
1, 1952160, Note_off_c, 1, 40, 0
1, 1952160, Note_on_c, 1, 48, 40
1, 1952880, Note_off_c, 1, 48, 0
1, 1952880, Note_on_c, 1, 45, 40
1, 1953360, Note_off_c, 1, 45, 0
1, 1953360, Note_on_c, 1, 33, 40
1, 1953600, Note_off_c, 1, 33, 0
1, 1953600, Note_on_c, 1, 33, 40
1, 1953840, Note_off_c, 1, 33, 0
1, 1953840, Note_on_c, 1, 38, 40
1, 1953960, Note_off_c, 1, 38, 0
1, 1953960, Note_on_c, 1, 40, 40
1, 1954080, Note_off_c, 1, 40, 0
1, 1954080, Note_on_c, 1, 48, 40
1, 1954800, Note_off_c, 1, 48, 0
1, 1954800, Note_on_c, 1, 45, 40
1, 1955280, Note_off_c, 1, 45, 0
1, 1955280, Note_on_c, 1, 33, 40
1, 1955520, Note_off_c, 1, 33, 0
1, 1955520, Note_on_c, 1, 33, 40
1, 1955760, Note_off_c, 1, 33, 0
1, 1955760, Note_on_c, 1, 38, 40
1, 1955880, Note_off_c, 1, 38, 0
1, 1955880, Note_on_c, 1, 40, 40
1, 1956000, Note_off_c, 1, 40, 0
1, 1956000, Note_on_c, 1, 48, 40
1, 1956720, Note_off_c, 1, 48, 0
1, 1956720, Note_on_c, 1, 45, 40
1, 1957200, Note_off_c, 1, 45, 0
1, 1957200, Note_on_c, 1, 33, 40
1, 1957440, Note_off_c, 1, 33, 0
1, 1957440, Note_on_c, 1, 33, 40
1, 1957680, Note_off_c, 1, 33, 0
1, 1957680, Note_on_c, 1, 38, 40
1, 1957800, Note_off_c, 1, 38, 0
1, 1957800, Note_on_c, 1, 40, 40
1, 1957920, Note_off_c, 1, 40, 0
1, 1957920, Note_on_c, 1, 48, 40
1, 1958640, Note_off_c, 1, 48, 0
1, 1958640, Note_on_c, 1, 45, 40
1, 1959120, Note_off_c, 1, 45, 0
1, 1959120, Note_on_c, 1, 33, 40
1, 1959360, Note_off_c, 1, 33, 0
1, 1959360, Note_on_c, 1, 33, 40
1, 1959600, Note_off_c, 1, 33, 0
1, 1959600, Note_on_c, 1, 38, 40
1, 1959720, Note_off_c, 1, 38, 0
1, 1959720, Note_on_c, 1, 40, 40
1, 1959840, Note_off_c, 1, 40, 0
1, 1959840, Note_on_c, 1, 48, 40
1, 1960560, Note_off_c, 1, 48, 0
1, 1960560, Note_on_c, 1, 45, 40
1, 1961040, Note_off_c, 1, 45, 0
1, 1961040, Note_on_c, 1, 33, 40
1, 1961280, Note_off_c, 1, 33, 0
1, 1961280, Note_on_c, 1, 33, 40
1, 1961520, Note_off_c, 1, 33, 0
1, 1961520, Note_on_c, 1, 38, 40
1, 1961640, Note_off_c, 1, 38, 0
1, 1961640, Note_on_c, 1, 40, 40
1, 1961760, Note_off_c, 1, 40, 0
1, 1961760, Note_on_c, 1, 48, 40
1, 1962480, Note_off_c, 1, 48, 0
1, 1962480, Note_on_c, 1, 45, 40
1, 1962960, Note_off_c, 1, 45, 0
1, 1962960, Note_on_c, 1, 28, 40
1, 1963200, Note_off_c, 1, 28, 0
1, 1963200, Note_on_c, 1, 28, 40
1, 1963440, Note_off_c, 1, 28, 0
1, 1963680, Note_on_c, 1, 43, 40
1, 1964400, Note_off_c, 1, 43, 0
1, 1964400, Note_on_c, 1, 40, 40
1, 1964880, Note_off_c, 1, 40, 0
1, 1964880, Note_on_c, 1, 28, 40
1, 1965120, Note_off_c, 1, 28, 0
1, 1965120, Note_on_c, 1, 28, 40
1, 1965360, Note_off_c, 1, 28, 0
1, 1965600, Note_on_c, 1, 43, 40
1, 1966320, Note_off_c, 1, 43, 0
1, 1966320, Note_on_c, 1, 40, 40
1, 1966800, Note_off_c, 1, 40, 0
1, 1966800, Note_on_c, 1, 26, 40
1, 1968720, Note_off_c, 1, 26, 0
1, 1968720, Note_on_c, 1, 26, 40
1, 1969680, Note_off_c, 1, 26, 0
1, 1970640, Note_on_c, 1, 33, 40
1, 1970880, Note_off_c, 1, 33, 0
1, 1970880, Note_on_c, 1, 33, 40
1, 1971120, Note_off_c, 1, 33, 0
1, 1971120, Note_on_c, 1, 38, 40
1, 1971240, Note_off_c, 1, 38, 0
1, 1971240, Note_on_c, 1, 40, 40
1, 1971360, Note_off_c, 1, 40, 0
1, 1971360, Note_on_c, 1, 48, 40
1, 1972080, Note_off_c, 1, 48, 0
1, 1972080, Note_on_c, 1, 45, 40
1, 1972560, Note_off_c, 1, 45, 0
1, 1972560, Note_on_c, 1, 33, 40
1, 1972800, Note_off_c, 1, 33, 0
1, 1972800, Note_on_c, 1, 33, 40
1, 1973040, Note_off_c, 1, 33, 0
1, 1973040, Note_on_c, 1, 38, 40
1, 1973160, Note_off_c, 1, 38, 0
1, 1973160, Note_on_c, 1, 40, 40
1, 1973280, Note_off_c, 1, 40, 0
1, 1973280, Note_on_c, 1, 48, 40
1, 1974000, Note_off_c, 1, 48, 0
1, 1974000, Note_on_c, 1, 45, 40
1, 1974480, Note_off_c, 1, 45, 0
1, 1974480, Note_on_c, 1, 33, 40
1, 1974720, Note_off_c, 1, 33, 0
1, 1974720, Note_on_c, 1, 33, 40
1, 1974960, Note_off_c, 1, 33, 0
1, 1974960, Note_on_c, 1, 38, 40
1, 1975080, Note_off_c, 1, 38, 0
1, 1975080, Note_on_c, 1, 40, 40
1, 1975200, Note_off_c, 1, 40, 0
1, 1975200, Note_on_c, 1, 48, 40
1, 1975920, Note_off_c, 1, 48, 0
1, 1975920, Note_on_c, 1, 45, 40
1, 1976400, Note_off_c, 1, 45, 0
1, 1976400, Note_on_c, 1, 33, 40
1, 1976640, Note_off_c, 1, 33, 0
1, 1976640, Note_on_c, 1, 33, 40
1, 1976880, Note_off_c, 1, 33, 0
1, 1976880, Note_on_c, 1, 38, 40
1, 1977000, Note_off_c, 1, 38, 0
1, 1977000, Note_on_c, 1, 40, 40
1, 1977120, Note_off_c, 1, 40, 0
1, 1977120, Note_on_c, 1, 48, 40
1, 1977840, Note_off_c, 1, 48, 0
1, 1977840, Note_on_c, 1, 45, 40
1, 1978320, Note_off_c, 1, 45, 0
1, 1978320, Note_on_c, 1, 33, 40
1, 1978560, Note_off_c, 1, 33, 0
1, 1978560, Note_on_c, 1, 33, 40
1, 1978800, Note_off_c, 1, 33, 0
1, 1978800, Note_on_c, 1, 38, 40
1, 1978920, Note_off_c, 1, 38, 0
1, 1978920, Note_on_c, 1, 40, 40
1, 1979040, Note_off_c, 1, 40, 0
1, 1979040, Note_on_c, 1, 48, 40
1, 1979760, Note_off_c, 1, 48, 0
1, 1979760, Note_on_c, 1, 45, 40
1, 1980240, Note_off_c, 1, 45, 0
1, 1980240, Note_on_c, 1, 33, 40
1, 1980480, Note_off_c, 1, 33, 0
1, 1980480, Note_on_c, 1, 33, 40
1, 1980720, Note_off_c, 1, 33, 0
1, 1980720, Note_on_c, 1, 38, 40
1, 1980840, Note_off_c, 1, 38, 0
1, 1980840, Note_on_c, 1, 40, 40
1, 1980960, Note_off_c, 1, 40, 0
1, 1980960, Note_on_c, 1, 48, 40
1, 1981680, Note_off_c, 1, 48, 0
1, 1981680, Note_on_c, 1, 45, 40
1, 1982160, Note_off_c, 1, 45, 0
1, 1982160, Note_on_c, 1, 33, 40
1, 1982400, Note_off_c, 1, 33, 0
1, 1982400, Note_on_c, 1, 33, 40
1, 1982640, Note_off_c, 1, 33, 0
1, 1982640, Note_on_c, 1, 38, 40
1, 1982760, Note_off_c, 1, 38, 0
1, 1982760, Note_on_c, 1, 40, 40
1, 1982880, Note_off_c, 1, 40, 0
1, 1982880, Note_on_c, 1, 48, 40
1, 1983600, Note_off_c, 1, 48, 0
1, 1983600, Note_on_c, 1, 45, 40
1, 1984080, Note_off_c, 1, 45, 0
1, 1984080, Note_on_c, 1, 33, 40
1, 1984320, Note_off_c, 1, 33, 0
1, 1984320, Note_on_c, 1, 33, 40
1, 1984560, Note_off_c, 1, 33, 0
1, 1984560, Note_on_c, 1, 38, 40
1, 1984680, Note_off_c, 1, 38, 0
1, 1984680, Note_on_c, 1, 40, 40
1, 1984800, Note_off_c, 1, 40, 0
1, 1984800, Note_on_c, 1, 48, 40
1, 1985520, Note_off_c, 1, 48, 0
1, 1985520, Note_on_c, 1, 45, 40
1, 1986000, Note_off_c, 1, 45, 0
1, 1986000, Note_on_c, 1, 28, 40
1, 1986240, Note_off_c, 1, 28, 0
1, 1986240, Note_on_c, 1, 28, 40
1, 1986480, Note_off_c, 1, 28, 0
1, 1986720, Note_on_c, 1, 43, 40
1, 1987440, Note_off_c, 1, 43, 0
1, 1987440, Note_on_c, 1, 40, 40
1, 1987920, Note_off_c, 1, 40, 0
1, 1987920, Note_on_c, 1, 28, 40
1, 1988160, Note_off_c, 1, 28, 0
1, 1988160, Note_on_c, 1, 28, 40
1, 1988400, Note_off_c, 1, 28, 0
1, 1988640, Note_on_c, 1, 43, 40
1, 1989360, Note_off_c, 1, 43, 0
1, 1989360, Note_on_c, 1, 40, 40
1, 1989840, Note_off_c, 1, 40, 0
1, 1989840, Note_on_c, 1, 26, 40
1, 1991760, Note_off_c, 1, 26, 0
1, 1993680, Note_on_c, 1, 30, 40
1, 1993920, Note_off_c, 1, 30, 0
1, 1993920, Note_on_c, 1, 30, 40
1, 1994160, Note_off_c, 1, 30, 0
1, 1994160, Note_on_c, 1, 30, 40
1, 1994400, Note_off_c, 1, 30, 0
1, 1994400, Note_on_c, 1, 30, 40
1, 1994640, Note_off_c, 1, 30, 0
1, 1994640, Note_on_c, 1, 30, 40
1, 1994880, Note_off_c, 1, 30, 0
1, 1994880, Note_on_c, 1, 30, 40
1, 1995120, Note_off_c, 1, 30, 0
1, 1995120, Note_on_c, 1, 28, 40
1, 1995360, Note_off_c, 1, 28, 0
1, 1995360, Note_on_c, 1, 28, 40
1, 1995600, Note_off_c, 1, 28, 0
1, 1995600, Note_on_c, 1, 26, 40
1, 1995840, Note_off_c, 1, 26, 0
1, 1995840, Note_on_c, 1, 26, 40
1, 1996080, Note_off_c, 1, 26, 0
1, 1996080, Note_on_c, 1, 26, 40
1, 1996320, Note_off_c, 1, 26, 0
1, 1996320, Note_on_c, 1, 26, 40
1, 1996560, Note_off_c, 1, 26, 0
1, 1996560, Note_on_c, 1, 28, 40
1, 1996800, Note_off_c, 1, 28, 0
1, 1997520, Note_on_c, 1, 33, 40
1, 1997760, Note_off_c, 1, 33, 0
1, 1997760, Note_on_c, 1, 33, 40
1, 1998000, Note_off_c, 1, 33, 0
1, 1998000, Note_on_c, 1, 38, 40
1, 1998120, Note_off_c, 1, 38, 0
1, 1998120, Note_on_c, 1, 40, 40
1, 1998240, Note_off_c, 1, 40, 0
1, 1998240, Note_on_c, 1, 48, 40
1, 1998960, Note_off_c, 1, 48, 0
1, 1998960, Note_on_c, 1, 45, 40
1, 1999440, Note_off_c, 1, 45, 0
1, 1999440, Note_on_c, 1, 33, 40
1, 1999680, Note_off_c, 1, 33, 0
1, 1999680, Note_on_c, 1, 33, 40
1, 1999920, Note_off_c, 1, 33, 0
1, 1999920, Note_on_c, 1, 38, 40
1, 2000040, Note_off_c, 1, 38, 0
1, 2000040, Note_on_c, 1, 40, 40
1, 2000160, Note_off_c, 1, 40, 0
1, 2000160, Note_on_c, 1, 48, 40
1, 2000880, Note_off_c, 1, 48, 0
1, 2000880, Note_on_c, 1, 45, 40
1, 2001360, Note_off_c, 1, 45, 0
1, 2001360, Note_on_c, 1, 33, 40
1, 2001600, Note_off_c, 1, 33, 0
1, 2001600, Note_on_c, 1, 33, 40
1, 2001840, Note_off_c, 1, 33, 0
1, 2001840, Note_on_c, 1, 38, 40
1, 2001960, Note_off_c, 1, 38, 0
1, 2001960, Note_on_c, 1, 40, 40
1, 2002080, Note_off_c, 1, 40, 0
1, 2002080, Note_on_c, 1, 48, 40
1, 2002800, Note_off_c, 1, 48, 0
1, 2002800, Note_on_c, 1, 45, 40
1, 2003280, Note_off_c, 1, 45, 0
1, 2003280, Note_on_c, 1, 33, 40
1, 2003520, Note_off_c, 1, 33, 0
1, 2003520, Note_on_c, 1, 33, 40
1, 2003760, Note_off_c, 1, 33, 0
1, 2003760, Note_on_c, 1, 38, 40
1, 2003880, Note_off_c, 1, 38, 0
1, 2003880, Note_on_c, 1, 40, 40
1, 2004000, Note_off_c, 1, 40, 0
1, 2004000, Note_on_c, 1, 48, 40
1, 2004720, Note_off_c, 1, 48, 0
1, 2004720, Note_on_c, 1, 45, 40
1, 2005200, Note_off_c, 1, 45, 0
1, 2005200, Note_on_c, 1, 33, 40
1, 2005440, Note_off_c, 1, 33, 0
1, 2005440, Note_on_c, 1, 33, 40
1, 2005680, Note_off_c, 1, 33, 0
1, 2005680, Note_on_c, 1, 38, 40
1, 2005800, Note_off_c, 1, 38, 0
1, 2005800, Note_on_c, 1, 40, 40
1, 2005920, Note_off_c, 1, 40, 0
1, 2005920, Note_on_c, 1, 48, 40
1, 2006640, Note_off_c, 1, 48, 0
1, 2006640, Note_on_c, 1, 45, 40
1, 2007120, Note_off_c, 1, 45, 0
1, 2007120, Note_on_c, 1, 33, 40
1, 2007360, Note_off_c, 1, 33, 0
1, 2007360, Note_on_c, 1, 33, 40
1, 2007600, Note_off_c, 1, 33, 0
1, 2007600, Note_on_c, 1, 38, 40
1, 2007720, Note_off_c, 1, 38, 0
1, 2007720, Note_on_c, 1, 40, 40
1, 2007840, Note_off_c, 1, 40, 0
1, 2007840, Note_on_c, 1, 48, 40
1, 2008560, Note_off_c, 1, 48, 0
1, 2008560, Note_on_c, 1, 45, 40
1, 2009040, Note_off_c, 1, 45, 0
1, 2009040, Note_on_c, 1, 33, 40
1, 2009280, Note_off_c, 1, 33, 0
1, 2009280, Note_on_c, 1, 33, 40
1, 2009520, Note_off_c, 1, 33, 0
1, 2009520, Note_on_c, 1, 38, 40
1, 2009640, Note_off_c, 1, 38, 0
1, 2009640, Note_on_c, 1, 40, 40
1, 2009760, Note_off_c, 1, 40, 0
1, 2009760, Note_on_c, 1, 48, 40
1, 2010480, Note_off_c, 1, 48, 0
1, 2010480, Note_on_c, 1, 45, 40
1, 2010960, Note_off_c, 1, 45, 0
1, 2010960, Note_on_c, 1, 33, 40
1, 2011200, Note_off_c, 1, 33, 0
1, 2011200, Note_on_c, 1, 33, 40
1, 2011440, Note_off_c, 1, 33, 0
1, 2011440, Note_on_c, 1, 38, 40
1, 2011560, Note_off_c, 1, 38, 0
1, 2011560, Note_on_c, 1, 40, 40
1, 2011680, Note_off_c, 1, 40, 0
1, 2011680, Note_on_c, 1, 48, 40
1, 2012400, Note_off_c, 1, 48, 0
1, 2012400, Note_on_c, 1, 45, 40
1, 2012880, Note_off_c, 1, 45, 0
1, 2012880, Note_on_c, 1, 28, 40
1, 2013120, Note_off_c, 1, 28, 0
1, 2013120, Note_on_c, 1, 28, 40
1, 2013360, Note_off_c, 1, 28, 0
1, 2013600, Note_on_c, 1, 43, 40
1, 2014320, Note_off_c, 1, 43, 0
1, 2014320, Note_on_c, 1, 40, 40
1, 2014800, Note_off_c, 1, 40, 0
1, 2014800, Note_on_c, 1, 28, 40
1, 2015040, Note_off_c, 1, 28, 0
1, 2015040, Note_on_c, 1, 28, 40
1, 2015280, Note_off_c, 1, 28, 0
1, 2015520, Note_on_c, 1, 43, 40
1, 2016240, Note_off_c, 1, 43, 0
1, 2016240, Note_on_c, 1, 40, 40
1, 2016720, Note_off_c, 1, 40, 0
1, 2016720, Note_on_c, 1, 26, 40
1, 2018640, Note_off_c, 1, 26, 0
1, 2020560, Note_on_c, 1, 30, 40
1, 2020800, Note_off_c, 1, 30, 0
1, 2020800, Note_on_c, 1, 30, 40
1, 2021040, Note_off_c, 1, 30, 0
1, 2021040, Note_on_c, 1, 30, 40
1, 2021280, Note_off_c, 1, 30, 0
1, 2021280, Note_on_c, 1, 30, 40
1, 2021520, Note_off_c, 1, 30, 0
1, 2021520, Note_on_c, 1, 30, 40
1, 2021760, Note_off_c, 1, 30, 0
1, 2021760, Note_on_c, 1, 30, 40
1, 2022000, Note_off_c, 1, 30, 0
1, 2022000, Note_on_c, 1, 28, 40
1, 2022240, Note_off_c, 1, 28, 0
1, 2022240, Note_on_c, 1, 28, 40
1, 2022480, Note_off_c, 1, 28, 0
1, 2022480, Note_on_c, 1, 26, 40
1, 2022720, Note_off_c, 1, 26, 0
1, 2022720, Note_on_c, 1, 26, 40
1, 2022960, Note_off_c, 1, 26, 0
1, 2022960, Note_on_c, 1, 26, 40
1, 2023200, Note_off_c, 1, 26, 0
1, 2023200, Note_on_c, 1, 26, 40
1, 2023440, Note_off_c, 1, 26, 0
1, 2023440, Note_on_c, 1, 28, 40
1, 2023680, Note_off_c, 1, 28, 0
1, 2024400, Note_on_c, 1, 33, 40
1, 2024640, Note_off_c, 1, 33, 0
1, 2024640, Note_on_c, 1, 33, 40
1, 2024880, Note_off_c, 1, 33, 0
1, 2024880, Note_on_c, 1, 38, 40
1, 2025000, Note_off_c, 1, 38, 0
1, 2025000, Note_on_c, 1, 40, 40
1, 2025120, Note_off_c, 1, 40, 0
1, 2025120, Note_on_c, 1, 48, 40
1, 2025840, Note_off_c, 1, 48, 0
1, 2025840, Note_on_c, 1, 45, 40
1, 2026320, Note_off_c, 1, 45, 0
1, 2026320, Note_on_c, 1, 33, 40
1, 2026560, Note_off_c, 1, 33, 0
1, 2026560, Note_on_c, 1, 33, 40
1, 2026800, Note_off_c, 1, 33, 0
1, 2026800, Note_on_c, 1, 38, 40
1, 2026920, Note_off_c, 1, 38, 0
1, 2026920, Note_on_c, 1, 40, 40
1, 2027040, Note_off_c, 1, 40, 0
1, 2027040, Note_on_c, 1, 48, 40
1, 2027760, Note_off_c, 1, 48, 0
1, 2027760, Note_on_c, 1, 48, 40
1, 2027880, Note_off_c, 1, 48, 0
1, 2027880, Note_on_c, 1, 50, 40
1, 2028240, Note_off_c, 1, 50, 0
1, 2028240, Note_on_c, 1, 33, 40
1, 2028480, Note_off_c, 1, 33, 0
1, 2028480, Note_on_c, 1, 33, 40
1, 2028720, Note_off_c, 1, 33, 0
1, 2028720, Note_on_c, 1, 33, 40
1, 2028960, Note_off_c, 1, 33, 0
1, 2028960, Note_on_c, 1, 33, 40
1, 2029200, Note_off_c, 1, 33, 0
1, 2029200, Note_on_c, 1, 33, 40
1, 2029440, Note_off_c, 1, 33, 0
1, 2029440, Note_on_c, 1, 33, 40
1, 2029680, Note_off_c, 1, 33, 0
1, 2029680, Note_on_c, 1, 33, 40
1, 2029920, Note_off_c, 1, 33, 0
1, 2029920, Note_on_c, 1, 33, 40
1, 2030160, Note_off_c, 1, 33, 0
1, 2030160, Note_on_c, 1, 33, 40
1, 2030400, Note_off_c, 1, 33, 0
1, 2030400, Note_on_c, 1, 33, 40
1, 2030640, Note_off_c, 1, 33, 0
1, 2030640, Note_on_c, 1, 33, 40
1, 2030880, Note_off_c, 1, 33, 0
1, 2030880, Note_on_c, 1, 33, 40
1, 2031120, Note_off_c, 1, 33, 0
1, 2031120, Note_on_c, 1, 33, 40
1, 2031360, Note_off_c, 1, 33, 0
1, 2031360, Note_on_c, 1, 33, 40
1, 2031600, Note_off_c, 1, 33, 0
1, 2031600, Note_on_c, 1, 33, 40
1, 2031840, Note_off_c, 1, 33, 0
1, 2031840, Note_on_c, 1, 33, 40
1, 2032080, Note_off_c, 1, 33, 0
1, 2032080, Note_on_c, 1, 33, 40
1, 2032320, Note_off_c, 1, 33, 0
1, 2032320, Note_on_c, 1, 33, 40
1, 2032560, Note_off_c, 1, 33, 0
1, 2032560, Note_on_c, 1, 33, 40
1, 2032800, Note_off_c, 1, 33, 0
1, 2032800, Note_on_c, 1, 33, 40
1, 2033040, Note_off_c, 1, 33, 0
1, 2033040, Note_on_c, 1, 33, 40
1, 2033280, Note_off_c, 1, 33, 0
1, 2033280, Note_on_c, 1, 33, 40
1, 2033520, Note_off_c, 1, 33, 0
1, 2033520, Note_on_c, 1, 33, 40
1, 2033760, Note_off_c, 1, 33, 0
1, 2033760, Note_on_c, 1, 33, 40
1, 2034000, Note_off_c, 1, 33, 0
1, 2034000, Note_on_c, 1, 33, 40
1, 2034240, Note_off_c, 1, 33, 0
1, 2034240, Note_on_c, 1, 33, 40
1, 2034480, Note_off_c, 1, 33, 0
1, 2034480, Note_on_c, 1, 33, 40
1, 2034720, Note_off_c, 1, 33, 0
1, 2034720, Note_on_c, 1, 33, 40
1, 2034960, Note_off_c, 1, 33, 0
1, 2034960, Note_on_c, 1, 33, 40
1, 2035200, Note_off_c, 1, 33, 0
1, 2035200, Note_on_c, 1, 33, 40
1, 2035440, Note_off_c, 1, 33, 0
1, 2035440, Note_on_c, 1, 33, 40
1, 2035680, Note_off_c, 1, 33, 0
1, 2035680, Note_on_c, 1, 33, 40
1, 2035920, Note_off_c, 1, 33, 0
1, 2035920, Note_on_c, 1, 28, 40
1, 2036160, Note_off_c, 1, 28, 0
1, 2036160, Note_on_c, 1, 28, 40
1, 2036400, Note_off_c, 1, 28, 0
1, 2036400, Note_on_c, 1, 28, 40
1, 2036640, Note_off_c, 1, 28, 0
1, 2036640, Note_on_c, 1, 28, 40
1, 2036880, Note_off_c, 1, 28, 0
1, 2036880, Note_on_c, 1, 28, 40
1, 2037120, Note_off_c, 1, 28, 0
1, 2037120, Note_on_c, 1, 28, 40
1, 2037360, Note_off_c, 1, 28, 0
1, 2037360, Note_on_c, 1, 28, 40
1, 2037600, Note_off_c, 1, 28, 0
1, 2037600, Note_on_c, 1, 28, 40
1, 2037840, Note_off_c, 1, 28, 0
1, 2037840, Note_on_c, 1, 28, 40
1, 2038080, Note_off_c, 1, 28, 0
1, 2038080, Note_on_c, 1, 28, 40
1, 2038320, Note_off_c, 1, 28, 0
1, 2038320, Note_on_c, 1, 28, 40
1, 2038560, Note_off_c, 1, 28, 0
1, 2038560, Note_on_c, 1, 28, 40
1, 2038800, Note_off_c, 1, 28, 0
1, 2038800, Note_on_c, 1, 28, 40
1, 2039040, Note_off_c, 1, 28, 0
1, 2039040, Note_on_c, 1, 28, 40
1, 2039280, Note_off_c, 1, 28, 0
1, 2039280, Note_on_c, 1, 28, 40
1, 2039520, Note_off_c, 1, 28, 0
1, 2039520, Note_on_c, 1, 28, 40
1, 2039760, Note_off_c, 1, 28, 0
1, 2039760, Note_on_c, 1, 28, 40
1, 2040000, Note_off_c, 1, 28, 0
1, 2040000, Note_on_c, 1, 28, 40
1, 2040240, Note_off_c, 1, 28, 0
1, 2040240, Note_on_c, 1, 28, 40
1, 2040480, Note_off_c, 1, 28, 0
1, 2040480, Note_on_c, 1, 28, 40
1, 2040720, Note_off_c, 1, 28, 0
1, 2040720, Note_on_c, 1, 28, 40
1, 2040960, Note_off_c, 1, 28, 0
1, 2040960, Note_on_c, 1, 28, 40
1, 2041200, Note_off_c, 1, 28, 0
1, 2041200, Note_on_c, 1, 28, 40
1, 2041440, Note_off_c, 1, 28, 0
1, 2041440, Note_on_c, 1, 28, 40
1, 2041680, Note_off_c, 1, 28, 0
1, 2041680, Note_on_c, 1, 28, 40
1, 2041920, Note_off_c, 1, 28, 0
1, 2041920, Note_on_c, 1, 28, 40
1, 2042160, Note_off_c, 1, 28, 0
1, 2042160, Note_on_c, 1, 28, 40
1, 2042400, Note_off_c, 1, 28, 0
1, 2042400, Note_on_c, 1, 28, 40
1, 2042640, Note_off_c, 1, 28, 0
1, 2042640, Note_on_c, 1, 28, 40
1, 2042880, Note_off_c, 1, 28, 0
1, 2042880, Note_on_c, 1, 28, 40
1, 2043120, Note_off_c, 1, 28, 0
1, 2043120, Note_on_c, 1, 28, 40
1, 2043360, Note_off_c, 1, 28, 0
1, 2043360, Note_on_c, 1, 28, 40
1, 2043600, Note_off_c, 1, 28, 0
1, 2043600, Note_on_c, 1, 33, 40
1, 2043840, Note_off_c, 1, 33, 0
1, 2043840, Note_on_c, 1, 33, 40
1, 2044080, Note_off_c, 1, 33, 0
1, 2044080, Note_on_c, 1, 38, 40
1, 2044200, Note_off_c, 1, 38, 0
1, 2044200, Note_on_c, 1, 40, 40
1, 2044320, Note_off_c, 1, 40, 0
1, 2044320, Note_on_c, 1, 48, 40
1, 2045040, Note_off_c, 1, 48, 0
1, 2045040, Note_on_c, 1, 45, 40
1, 2045520, Note_off_c, 1, 45, 0
1, 2045520, Note_on_c, 1, 33, 40
1, 2045760, Note_off_c, 1, 33, 0
1, 2045760, Note_on_c, 1, 33, 40
1, 2046000, Note_off_c, 1, 33, 0
1, 2046000, Note_on_c, 1, 38, 40
1, 2046120, Note_off_c, 1, 38, 0
1, 2046120, Note_on_c, 1, 40, 40
1, 2046240, Note_off_c, 1, 40, 0
1, 2046240, Note_on_c, 1, 48, 40
1, 2046360, Note_off_c, 1, 48, 0
1, 2046360, Note_on_c, 1, 50, 40
1, 2046480, Note_off_c, 1, 50, 0
1, 2046480, Note_on_c, 1, 48, 40
1, 2046600, Note_off_c, 1, 48, 0
1, 2046600, Note_on_c, 1, 50, 40
1, 2046720, Note_off_c, 1, 50, 0
1, 2046720, Note_on_c, 1, 48, 40
1, 2046840, Note_off_c, 1, 48, 0
1, 2046840, Note_on_c, 1, 50, 40
1, 2046960, Note_off_c, 1, 50, 0
1, 2046960, Note_on_c, 1, 48, 40
1, 2047080, Note_off_c, 1, 48, 0
1, 2047080, Note_on_c, 1, 50, 40
1, 2047200, Note_off_c, 1, 50, 0
1, 2047200, Note_on_c, 1, 48, 40
1, 2047440, Note_off_c, 1, 48, 0
1, 2047440, Note_on_c, 1, 33, 40
1, 2047680, Note_off_c, 1, 33, 0
1, 2047680, Note_on_c, 1, 33, 40
1, 2047920, Note_off_c, 1, 33, 0
1, 2047920, Note_on_c, 1, 38, 40
1, 2048040, Note_off_c, 1, 38, 0
1, 2048040, Note_on_c, 1, 40, 40
1, 2048160, Note_off_c, 1, 40, 0
1, 2048160, Note_on_c, 1, 48, 40
1, 2048880, Note_off_c, 1, 48, 0
1, 2048880, Note_on_c, 1, 45, 40
1, 2049360, Note_off_c, 1, 45, 0
1, 2049360, Note_on_c, 1, 33, 40
1, 2049600, Note_off_c, 1, 33, 0
1, 2049600, Note_on_c, 1, 33, 40
1, 2049840, Note_off_c, 1, 33, 0
1, 2049840, Note_on_c, 1, 38, 40
1, 2049960, Note_off_c, 1, 38, 0
1, 2049960, Note_on_c, 1, 40, 40
1, 2050080, Note_off_c, 1, 40, 0
1, 2050080, Note_on_c, 1, 48, 40
1, 2050800, Note_off_c, 1, 48, 0
1, 2050800, Note_on_c, 1, 45, 40
1, 2051280, Note_off_c, 1, 45, 0
1, 2051280, Note_on_c, 1, 33, 40
1, 2051520, Note_off_c, 1, 33, 0
1, 2051520, Note_on_c, 1, 33, 40
1, 2051760, Note_off_c, 1, 33, 0
1, 2051760, Note_on_c, 1, 38, 40
1, 2051880, Note_off_c, 1, 38, 0
1, 2051880, Note_on_c, 1, 40, 40
1, 2052000, Note_off_c, 1, 40, 0
1, 2052000, Note_on_c, 1, 48, 40
1, 2052720, Note_off_c, 1, 48, 0
1, 2052720, Note_on_c, 1, 45, 40
1, 2053200, Note_off_c, 1, 45, 0
1, 2053200, Note_on_c, 1, 33, 40
1, 2053440, Note_off_c, 1, 33, 0
1, 2053440, Note_on_c, 1, 33, 40
1, 2053680, Note_off_c, 1, 33, 0
1, 2053680, Note_on_c, 1, 38, 40
1, 2053800, Note_off_c, 1, 38, 0
1, 2053800, Note_on_c, 1, 40, 40
1, 2053920, Note_off_c, 1, 40, 0
1, 2053920, Note_on_c, 1, 48, 40
1, 2054640, Note_off_c, 1, 48, 0
1, 2054640, Note_on_c, 1, 45, 40
1, 2055120, Note_off_c, 1, 45, 0
1, 2055120, Note_on_c, 1, 28, 40
1, 2055360, Note_off_c, 1, 28, 0
1, 2055360, Note_on_c, 1, 28, 40
1, 2055600, Note_off_c, 1, 28, 0
1, 2055840, Note_on_c, 1, 43, 40
1, 2056560, Note_off_c, 1, 43, 0
1, 2056560, Note_on_c, 1, 40, 40
1, 2057040, Note_off_c, 1, 40, 0
1, 2057040, Note_on_c, 1, 28, 40
1, 2057280, Note_off_c, 1, 28, 0
1, 2057280, Note_on_c, 1, 28, 40
1, 2057520, Note_off_c, 1, 28, 0
1, 2057760, Note_on_c, 1, 43, 40
1, 2058480, Note_off_c, 1, 43, 0
1, 2058480, Note_on_c, 1, 40, 40
1, 2058960, Note_off_c, 1, 40, 0
1, 2058960, Note_on_c, 1, 26, 40
1, 2060880, Note_off_c, 1, 26, 0
1, 2062800, Note_on_c, 1, 30, 40
1, 2063040, Note_off_c, 1, 30, 0
1, 2063040, Note_on_c, 1, 30, 40
1, 2063280, Note_off_c, 1, 30, 0
1, 2063280, Note_on_c, 1, 30, 40
1, 2063520, Note_off_c, 1, 30, 0
1, 2063520, Note_on_c, 1, 30, 40
1, 2063760, Note_off_c, 1, 30, 0
1, 2063760, Note_on_c, 1, 30, 40
1, 2064000, Note_off_c, 1, 30, 0
1, 2064000, Note_on_c, 1, 30, 40
1, 2064240, Note_off_c, 1, 30, 0
1, 2064240, Note_on_c, 1, 28, 40
1, 2064480, Note_off_c, 1, 28, 0
1, 2064480, Note_on_c, 1, 28, 40
1, 2064720, Note_off_c, 1, 28, 0
1, 2064720, Note_on_c, 1, 26, 40
1, 2064960, Note_off_c, 1, 26, 0
1, 2064960, Note_on_c, 1, 26, 40
1, 2065200, Note_off_c, 1, 26, 0
1, 2065200, Note_on_c, 1, 26, 40
1, 2065440, Note_off_c, 1, 26, 0
1, 2065440, Note_on_c, 1, 26, 40
1, 2065680, Note_off_c, 1, 26, 0
1, 2065680, Note_on_c, 1, 28, 40
1, 2065920, Note_off_c, 1, 28, 0
1, 2066640, Note_on_c, 1, 33, 40
1, 2066880, Note_off_c, 1, 33, 0
1, 2066880, Note_on_c, 1, 33, 40
1, 2067120, Note_off_c, 1, 33, 0
1, 2067120, Note_on_c, 1, 38, 40
1, 2067240, Note_off_c, 1, 38, 0
1, 2067240, Note_on_c, 1, 40, 40
1, 2067360, Note_off_c, 1, 40, 0
1, 2067360, Note_on_c, 1, 48, 40
1, 2068080, Note_off_c, 1, 48, 0
1, 2068080, Note_on_c, 1, 45, 40
1, 2068560, Note_off_c, 1, 45, 0
1, 2068560, Note_on_c, 1, 33, 40
1, 2068800, Note_off_c, 1, 33, 0
1, 2068800, Note_on_c, 1, 33, 40
1, 2069040, Note_off_c, 1, 33, 0
1, 2069040, Note_on_c, 1, 38, 40
1, 2069160, Note_off_c, 1, 38, 0
1, 2069160, Note_on_c, 1, 40, 40
1, 2069280, Note_off_c, 1, 40, 0
1, 2069280, Note_on_c, 1, 48, 40
1, 2070000, Note_off_c, 1, 48, 0
1, 2070000, Note_on_c, 1, 45, 40
1, 2070480, Note_off_c, 1, 45, 0
1, 2070480, Note_on_c, 1, 33, 40
1, 2070720, Note_off_c, 1, 33, 0
1, 2070720, Note_on_c, 1, 33, 40
1, 2070960, Note_off_c, 1, 33, 0
1, 2070960, Note_on_c, 1, 38, 40
1, 2071080, Note_off_c, 1, 38, 0
1, 2071080, Note_on_c, 1, 40, 40
1, 2071200, Note_off_c, 1, 40, 0
1, 2071200, Note_on_c, 1, 48, 40
1, 2071920, Note_off_c, 1, 48, 0
1, 2071920, Note_on_c, 1, 45, 40
1, 2072400, Note_off_c, 1, 45, 0
1, 2072400, Note_on_c, 1, 33, 40
1, 2072640, Note_off_c, 1, 33, 0
1, 2072640, Note_on_c, 1, 33, 40
1, 2072880, Note_off_c, 1, 33, 0
1, 2072880, Note_on_c, 1, 38, 40
1, 2073000, Note_off_c, 1, 38, 0
1, 2073000, Note_on_c, 1, 40, 40
1, 2073120, Note_off_c, 1, 40, 0
1, 2073120, Note_on_c, 1, 48, 40
1, 2073840, Note_off_c, 1, 48, 0
1, 2073840, Note_on_c, 1, 45, 40
1, 2074320, Note_off_c, 1, 45, 0
1, 2074320, Note_on_c, 1, 33, 40
1, 2074560, Note_off_c, 1, 33, 0
1, 2074560, Note_on_c, 1, 33, 40
1, 2074800, Note_off_c, 1, 33, 0
1, 2074800, Note_on_c, 1, 33, 40
1, 2075040, Note_off_c, 1, 33, 0
1, 2075040, Note_on_c, 1, 33, 40
1, 2075280, Note_off_c, 1, 33, 0
1, 2075280, Note_on_c, 1, 33, 40
1, 2075520, Note_off_c, 1, 33, 0
1, 2075520, Note_on_c, 1, 33, 40
1, 2075760, Note_off_c, 1, 33, 0
1, 2075760, Note_on_c, 1, 33, 40
1, 2076000, Note_off_c, 1, 33, 0
1, 2076000, Note_on_c, 1, 33, 40
1, 2076240, Note_off_c, 1, 33, 0
1, 2076240, Note_on_c, 1, 33, 40
1, 2076480, Note_off_c, 1, 33, 0
1, 2076480, Note_on_c, 1, 33, 40
1, 2076720, Note_off_c, 1, 33, 0
1, 2076720, Note_on_c, 1, 33, 40
1, 2076960, Note_off_c, 1, 33, 0
1, 2076960, Note_on_c, 1, 33, 40
1, 2077200, Note_off_c, 1, 33, 0
1, 2077200, Note_on_c, 1, 33, 40
1, 2077440, Note_off_c, 1, 33, 0
1, 2077440, Note_on_c, 1, 33, 40
1, 2077680, Note_off_c, 1, 33, 0
1, 2077680, Note_on_c, 1, 31, 40
1, 2077800, Note_off_c, 1, 31, 0
1, 2077800, Note_on_c, 1, 32, 40
1, 2078160, Note_off_c, 1, 32, 0
1, 2078160, Note_on_c, 1, 33, 40
1, 2078400, Note_off_c, 1, 33, 0
1, 2078400, Note_on_c, 1, 33, 40
1, 2078640, Note_off_c, 1, 33, 0
1, 2078640, Note_on_c, 1, 33, 40
1, 2078880, Note_off_c, 1, 33, 0
1, 2078880, Note_on_c, 1, 33, 40
1, 2079120, Note_off_c, 1, 33, 0
1, 2079120, Note_on_c, 1, 33, 40
1, 2079360, Note_off_c, 1, 33, 0
1, 2079360, Note_on_c, 1, 33, 40
1, 2079600, Note_off_c, 1, 33, 0
1, 2079600, Note_on_c, 1, 33, 40
1, 2079840, Note_off_c, 1, 33, 0
1, 2079840, Note_on_c, 1, 33, 40
1, 2080080, Note_off_c, 1, 33, 0
1, 2080080, Note_on_c, 1, 33, 40
1, 2080320, Note_off_c, 1, 33, 0
1, 2080320, Note_on_c, 1, 33, 40
1, 2080560, Note_off_c, 1, 33, 0
1, 2080560, Note_on_c, 1, 33, 40
1, 2080800, Note_off_c, 1, 33, 0
1, 2080800, Note_on_c, 1, 33, 40
1, 2081040, Note_off_c, 1, 33, 0
1, 2081040, Note_on_c, 1, 33, 40
1, 2081280, Note_off_c, 1, 33, 0
1, 2081280, Note_on_c, 1, 33, 40
1, 2081520, Note_off_c, 1, 33, 0
1, 2081520, Note_on_c, 1, 31, 40
1, 2081640, Note_off_c, 1, 31, 0
1, 2081640, Note_on_c, 1, 32, 40
1, 2082000, Note_off_c, 1, 32, 0
1, 2082000, Note_on_c, 1, 33, 40
1, 2082240, Note_off_c, 1, 33, 0
1, 2082240, Note_on_c, 1, 33, 40
1, 2082480, Note_off_c, 1, 33, 0
1, 2082480, Note_on_c, 1, 33, 40
1, 2082720, Note_off_c, 1, 33, 0
1, 2082720, Note_on_c, 1, 33, 40
1, 2082960, Note_off_c, 1, 33, 0
1, 2082960, Note_on_c, 1, 33, 40
1, 2083200, Note_off_c, 1, 33, 0
1, 2083200, Note_on_c, 1, 33, 40
1, 2083440, Note_off_c, 1, 33, 0
1, 2083440, Note_on_c, 1, 33, 40
1, 2083680, Note_off_c, 1, 33, 0
1, 2083680, Note_on_c, 1, 33, 40
1, 2083920, Note_off_c, 1, 33, 0
1, 2083920, Note_on_c, 1, 33, 40
1, 2084160, Note_off_c, 1, 33, 0
1, 2084160, Note_on_c, 1, 33, 40
1, 2084400, Note_off_c, 1, 33, 0
1, 2084400, Note_on_c, 1, 33, 40
1, 2084640, Note_off_c, 1, 33, 0
1, 2084640, Note_on_c, 1, 33, 40
1, 2084880, Note_off_c, 1, 33, 0
1, 2084880, Note_on_c, 1, 33, 40
1, 2085120, Note_off_c, 1, 33, 0
1, 2085120, Note_on_c, 1, 33, 40
1, 2085360, Note_off_c, 1, 33, 0
1, 2085360, Note_on_c, 1, 31, 40
1, 2085480, Note_off_c, 1, 31, 0
1, 2085480, Note_on_c, 1, 32, 40
1, 2085840, Note_off_c, 1, 32, 0
1, 2085840, Note_on_c, 1, 33, 40
1, 2086080, Note_off_c, 1, 33, 0
1, 2086080, Note_on_c, 1, 33, 40
1, 2086320, Note_off_c, 1, 33, 0
1, 2086320, Note_on_c, 1, 33, 40
1, 2086560, Note_off_c, 1, 33, 0
1, 2086560, Note_on_c, 1, 33, 40
1, 2086800, Note_off_c, 1, 33, 0
1, 2086800, Note_on_c, 1, 33, 40
1, 2087040, Note_off_c, 1, 33, 0
1, 2087040, Note_on_c, 1, 33, 40
1, 2087280, Note_off_c, 1, 33, 0
1, 2087280, Note_on_c, 1, 33, 40
1, 2087520, Note_off_c, 1, 33, 0
1, 2087520, Note_on_c, 1, 33, 40
1, 2087760, Note_off_c, 1, 33, 0
1, 2087760, Note_on_c, 1, 33, 40
1, 2088000, Note_off_c, 1, 33, 0
1, 2088000, Note_on_c, 1, 33, 40
1, 2088240, Note_off_c, 1, 33, 0
1, 2088240, Note_on_c, 1, 33, 40
1, 2088480, Note_off_c, 1, 33, 0
1, 2088480, Note_on_c, 1, 33, 40
1, 2088720, Note_off_c, 1, 33, 0
1, 2088720, Note_on_c, 1, 33, 40
1, 2088960, Note_off_c, 1, 33, 0
1, 2088960, Note_on_c, 1, 33, 40
1, 2089200, Note_off_c, 1, 33, 0
1, 2089200, Note_on_c, 1, 31, 40
1, 2089320, Note_off_c, 1, 31, 0
1, 2089320, Note_on_c, 1, 32, 40
1, 2089680, Note_off_c, 1, 32, 0
1, 2089680, Note_on_c, 1, 33, 40
1, 2089920, Note_off_c, 1, 33, 0
1, 2089920, Note_on_c, 1, 33, 40
1, 2090160, Note_off_c, 1, 33, 0
1, 2090160, Note_on_c, 1, 33, 40
1, 2090400, Note_off_c, 1, 33, 0
1, 2090400, Note_on_c, 1, 33, 40
1, 2090640, Note_off_c, 1, 33, 0
1, 2090640, Note_on_c, 1, 33, 40
1, 2090880, Note_off_c, 1, 33, 0
1, 2090880, Note_on_c, 1, 33, 40
1, 2091120, Note_off_c, 1, 33, 0
1, 2091120, Note_on_c, 1, 33, 40
1, 2091360, Note_off_c, 1, 33, 0
1, 2091360, Note_on_c, 1, 33, 40
1, 2091600, Note_off_c, 1, 33, 0
1, 2091600, Note_on_c, 1, 33, 40
1, 2091840, Note_off_c, 1, 33, 0
1, 2091840, Note_on_c, 1, 33, 40
1, 2092080, Note_off_c, 1, 33, 0
1, 2092080, Note_on_c, 1, 33, 40
1, 2092320, Note_off_c, 1, 33, 0
1, 2092320, Note_on_c, 1, 33, 40
1, 2092560, Note_off_c, 1, 33, 0
1, 2092560, Note_on_c, 1, 33, 40
1, 2092800, Note_off_c, 1, 33, 0
1, 2092800, Note_on_c, 1, 33, 40
1, 2093040, Note_off_c, 1, 33, 0
1, 2093040, Note_on_c, 1, 31, 40
1, 2093160, Note_off_c, 1, 31, 0
1, 2093160, Note_on_c, 1, 32, 40
1, 2093520, Note_off_c, 1, 32, 0
1, 2093520, Note_on_c, 1, 33, 40
1, 2093760, Note_off_c, 1, 33, 0
1, 2093760, Note_on_c, 1, 33, 40
1, 2094000, Note_off_c, 1, 33, 0
1, 2094000, Note_on_c, 1, 33, 40
1, 2094240, Note_off_c, 1, 33, 0
1, 2094240, Note_on_c, 1, 33, 40
1, 2094480, Note_off_c, 1, 33, 0
1, 2094480, Note_on_c, 1, 33, 40
1, 2094720, Note_off_c, 1, 33, 0
1, 2094720, Note_on_c, 1, 33, 40
1, 2094960, Note_off_c, 1, 33, 0
1, 2094960, Note_on_c, 1, 33, 40
1, 2095200, Note_off_c, 1, 33, 0
1, 2095200, Note_on_c, 1, 33, 40
1, 2095440, Note_off_c, 1, 33, 0
1, 2095440, Note_on_c, 1, 33, 40
1, 2095680, Note_off_c, 1, 33, 0
1, 2095680, Note_on_c, 1, 33, 40
1, 2095920, Note_off_c, 1, 33, 0
1, 2095920, Note_on_c, 1, 33, 40
1, 2096160, Note_off_c, 1, 33, 0
1, 2096160, Note_on_c, 1, 33, 40
1, 2096400, Note_off_c, 1, 33, 0
1, 2096400, Note_on_c, 1, 33, 40
1, 2096640, Note_off_c, 1, 33, 0
1, 2096640, Note_on_c, 1, 33, 40
1, 2096880, Note_off_c, 1, 33, 0
1, 2096880, Note_on_c, 1, 31, 40
1, 2097000, Note_off_c, 1, 31, 0
1, 2097000, Note_on_c, 1, 32, 40
1, 2097360, Note_off_c, 1, 32, 0
1, 2097360, Note_on_c, 1, 33, 40
1, 2097600, Note_off_c, 1, 33, 0
1, 2097600, Note_on_c, 1, 33, 40
1, 2097840, Note_off_c, 1, 33, 0
1, 2097840, Note_on_c, 1, 33, 40
1, 2098080, Note_off_c, 1, 33, 0
1, 2098080, Note_on_c, 1, 33, 40
1, 2098320, Note_off_c, 1, 33, 0
1, 2098320, Note_on_c, 1, 33, 40
1, 2098560, Note_off_c, 1, 33, 0
1, 2098560, Note_on_c, 1, 33, 40
1, 2098800, Note_off_c, 1, 33, 0
1, 2098800, Note_on_c, 1, 33, 40
1, 2099040, Note_off_c, 1, 33, 0
1, 2099040, Note_on_c, 1, 33, 40
1, 2099280, Note_off_c, 1, 33, 0
1, 2099280, Note_on_c, 1, 33, 40
1, 2099520, Note_off_c, 1, 33, 0
1, 2099520, Note_on_c, 1, 33, 40
1, 2099760, Note_off_c, 1, 33, 0
1, 2099760, Note_on_c, 1, 33, 40
1, 2100000, Note_off_c, 1, 33, 0
1, 2100000, Note_on_c, 1, 33, 40
1, 2100240, Note_off_c, 1, 33, 0
1, 2100240, Note_on_c, 1, 33, 40
1, 2100480, Note_off_c, 1, 33, 0
1, 2100480, Note_on_c, 1, 33, 40
1, 2100720, Note_off_c, 1, 33, 0
1, 2100720, Note_on_c, 1, 31, 40
1, 2100840, Note_off_c, 1, 31, 0
1, 2100840, Note_on_c, 1, 32, 40
1, 2101200, Note_off_c, 1, 32, 0
1, 2101200, Note_on_c, 1, 33, 40
1, 2101440, Note_off_c, 1, 33, 0
1, 2101440, Note_on_c, 1, 33, 40
1, 2101680, Note_off_c, 1, 33, 0
1, 2101680, Note_on_c, 1, 33, 40
1, 2101920, Note_off_c, 1, 33, 0
1, 2101920, Note_on_c, 1, 33, 40
1, 2102160, Note_off_c, 1, 33, 0
1, 2102160, Note_on_c, 1, 33, 40
1, 2102400, Note_off_c, 1, 33, 0
1, 2102400, Note_on_c, 1, 33, 40
1, 2102640, Note_off_c, 1, 33, 0
1, 2102640, Note_on_c, 1, 33, 40
1, 2102880, Note_off_c, 1, 33, 0
1, 2102880, Note_on_c, 1, 33, 40
1, 2103120, Note_off_c, 1, 33, 0
1, 2103120, Note_on_c, 1, 33, 40
1, 2103360, Note_off_c, 1, 33, 0
1, 2103360, Note_on_c, 1, 33, 40
1, 2103600, Note_off_c, 1, 33, 0
1, 2103600, Note_on_c, 1, 33, 40
1, 2103840, Note_off_c, 1, 33, 0
1, 2103840, Note_on_c, 1, 33, 40
1, 2104080, Note_off_c, 1, 33, 0
1, 2104080, Note_on_c, 1, 33, 40
1, 2104320, Note_off_c, 1, 33, 0
1, 2104320, Note_on_c, 1, 33, 40
1, 2104560, Note_off_c, 1, 33, 0
1, 2104560, Note_on_c, 1, 31, 40
1, 2104680, Note_off_c, 1, 31, 0
1, 2104680, Note_on_c, 1, 32, 40
1, 2105040, Note_off_c, 1, 32, 0
1, 2105040, Note_on_c, 1, 33, 40
1, 2105280, Note_off_c, 1, 33, 0
1, 2105280, Note_on_c, 1, 33, 40
1, 2105520, Note_off_c, 1, 33, 0
1, 2105520, Note_on_c, 1, 33, 40
1, 2105760, Note_off_c, 1, 33, 0
1, 2105760, Note_on_c, 1, 33, 40
1, 2106000, Note_off_c, 1, 33, 0
1, 2106000, Note_on_c, 1, 33, 40
1, 2106240, Note_off_c, 1, 33, 0
1, 2106240, Note_on_c, 1, 33, 40
1, 2106480, Note_off_c, 1, 33, 0
1, 2106480, Note_on_c, 1, 33, 40
1, 2106720, Note_off_c, 1, 33, 0
1, 2106720, Note_on_c, 1, 33, 40
1, 2106960, Note_off_c, 1, 33, 0
1, 2106960, Note_on_c, 1, 33, 40
1, 2107200, Note_off_c, 1, 33, 0
1, 2107200, Note_on_c, 1, 33, 40
1, 2107440, Note_off_c, 1, 33, 0
1, 2107440, Note_on_c, 1, 33, 40
1, 2107680, Note_off_c, 1, 33, 0
1, 2107680, Note_on_c, 1, 33, 40
1, 2107920, Note_off_c, 1, 33, 0
1, 2107920, Note_on_c, 1, 33, 40
1, 2108160, Note_off_c, 1, 33, 0
1, 2108160, Note_on_c, 1, 33, 40
1, 2108400, Note_off_c, 1, 33, 0
1, 2108400, Note_on_c, 1, 31, 40
1, 2108520, Note_off_c, 1, 31, 0
1, 2108520, Note_on_c, 1, 32, 40
1, 2108880, Note_off_c, 1, 32, 0
1, 2108880, Note_on_c, 1, 33, 40
1, 2109120, Note_off_c, 1, 33, 0
1, 2109120, Note_on_c, 1, 33, 40
1, 2109360, Note_off_c, 1, 33, 0
1, 2109360, Note_on_c, 1, 33, 40
1, 2109600, Note_off_c, 1, 33, 0
1, 2109600, Note_on_c, 1, 33, 40
1, 2109840, Note_off_c, 1, 33, 0
1, 2109840, Note_on_c, 1, 33, 40
1, 2110080, Note_off_c, 1, 33, 0
1, 2110080, Note_on_c, 1, 33, 40
1, 2110320, Note_off_c, 1, 33, 0
1, 2110320, Note_on_c, 1, 33, 40
1, 2110560, Note_off_c, 1, 33, 0
1, 2110560, Note_on_c, 1, 33, 40
1, 2110800, Note_off_c, 1, 33, 0
1, 2110800, Note_on_c, 1, 40, 40
1, 2111040, Note_off_c, 1, 40, 0
1, 2111040, Note_on_c, 1, 48, 40
1, 2111280, Note_off_c, 1, 48, 0
1, 2111280, Note_on_c, 1, 45, 40
1, 2111520, Note_off_c, 1, 45, 0
1, 2111520, Note_on_c, 1, 40, 40
1, 2111760, Note_off_c, 1, 40, 0
1, 2111760, Note_on_c, 1, 33, 40
1, 2112000, Note_off_c, 1, 33, 0
1, 2112000, Note_on_c, 1, 33, 40
1, 2112120, Note_off_c, 1, 33, 0
1, 2112120, Note_on_c, 1, 32, 40
1, 2112240, Note_off_c, 1, 32, 0
1, 2112240, Note_on_c, 1, 33, 40
1, 2112360, Note_off_c, 1, 33, 0
1, 2112360, Note_on_c, 1, 33, 40
1, 2112480, Note_off_c, 1, 33, 0
1, 2112480, Note_on_c, 1, 48, 40
1, 2112720, Note_off_c, 1, 48, 0
1, 2112720, Note_on_c, 1, 45, 40
1, 2112960, Note_off_c, 1, 45, 0
1, 2112960, Note_on_c, 1, 33, 40
1, 2113200, Note_off_c, 1, 33, 0
1, 2113200, Note_on_c, 1, 33, 40
1, 2113440, Note_off_c, 1, 33, 0
1, 2113440, Note_on_c, 1, 33, 40
1, 2113560, Note_off_c, 1, 33, 0
1, 2113560, Note_on_c, 1, 33, 40
1, 2113680, Note_off_c, 1, 33, 0
1, 2113680, Note_on_c, 1, 33, 40
1, 2113800, Note_off_c, 1, 33, 0
1, 2113800, Note_on_c, 1, 33, 40
1, 2113920, Note_off_c, 1, 33, 0
1, 2113920, Note_on_c, 1, 33, 40
1, 2114160, Note_off_c, 1, 33, 0
1, 2114160, Note_on_c, 1, 33, 40
1, 2114400, Note_off_c, 1, 33, 0
1, 2114400, Note_on_c, 1, 33, 40
1, 2114640, Note_off_c, 1, 33, 0
1, 2114640, Note_on_c, 1, 40, 40
1, 2114880, Note_off_c, 1, 40, 0
1, 2114880, Note_on_c, 1, 48, 40
1, 2115120, Note_off_c, 1, 48, 0
1, 2115120, Note_on_c, 1, 45, 40
1, 2115360, Note_off_c, 1, 45, 0
1, 2115360, Note_on_c, 1, 40, 40
1, 2115600, Note_off_c, 1, 40, 0
1, 2115600, Note_on_c, 1, 33, 40
1, 2115840, Note_off_c, 1, 33, 0
1, 2115840, Note_on_c, 1, 33, 40
1, 2115960, Note_off_c, 1, 33, 0
1, 2115960, Note_on_c, 1, 33, 40
1, 2116080, Note_off_c, 1, 33, 0
1, 2116080, Note_on_c, 1, 33, 40
1, 2116200, Note_off_c, 1, 33, 0
1, 2116200, Note_on_c, 1, 38, 40
1, 2116320, Note_off_c, 1, 38, 0
1, 2116320, Note_on_c, 1, 40, 40
1, 2116440, Note_off_c, 1, 40, 0
1, 2116440, Note_on_c, 1, 48, 40
1, 2116560, Note_off_c, 1, 48, 0
1, 2116560, Note_on_c, 1, 45, 40
1, 2116800, Note_off_c, 1, 45, 0
1, 2116800, Note_on_c, 1, 33, 40
1, 2117040, Note_off_c, 1, 33, 0
1, 2117040, Note_on_c, 1, 33, 40
1, 2117280, Note_off_c, 1, 33, 0
1, 2117280, Note_on_c, 1, 33, 40
1, 2117400, Note_off_c, 1, 33, 0
1, 2117400, Note_on_c, 1, 33, 40
1, 2117520, Note_off_c, 1, 33, 0
1, 2117520, Note_on_c, 1, 33, 40
1, 2117640, Note_off_c, 1, 33, 0
1, 2117640, Note_on_c, 1, 33, 40
1, 2117760, Note_off_c, 1, 33, 0
1, 2117760, Note_on_c, 1, 33, 40
1, 2118000, Note_off_c, 1, 33, 0
1, 2118000, Note_on_c, 1, 33, 40
1, 2118240, Note_off_c, 1, 33, 0
1, 2118240, Note_on_c, 1, 33, 40
1, 2118480, Note_off_c, 1, 33, 0
1, 2118480, Note_on_c, 1, 40, 40
1, 2118720, Note_off_c, 1, 40, 0
1, 2118720, Note_on_c, 1, 48, 40
1, 2118960, Note_off_c, 1, 48, 0
1, 2118960, Note_on_c, 1, 45, 40
1, 2119200, Note_off_c, 1, 45, 0
1, 2119200, Note_on_c, 1, 40, 40
1, 2119440, Note_off_c, 1, 40, 0
1, 2119440, Note_on_c, 1, 33, 40
1, 2119680, Note_off_c, 1, 33, 0
1, 2119680, Note_on_c, 1, 33, 40
1, 2119800, Note_off_c, 1, 33, 0
1, 2119800, Note_on_c, 1, 32, 40
1, 2119920, Note_off_c, 1, 32, 0
1, 2119920, Note_on_c, 1, 33, 40
1, 2120040, Note_off_c, 1, 33, 0
1, 2120040, Note_on_c, 1, 33, 40
1, 2120160, Note_off_c, 1, 33, 0
1, 2120160, Note_on_c, 1, 48, 40
1, 2120400, Note_off_c, 1, 48, 0
1, 2120400, Note_on_c, 1, 45, 40
1, 2120640, Note_off_c, 1, 45, 0
1, 2120640, Note_on_c, 1, 33, 40
1, 2120880, Note_off_c, 1, 33, 0
1, 2120880, Note_on_c, 1, 33, 40
1, 2121120, Note_off_c, 1, 33, 0
1, 2121120, Note_on_c, 1, 33, 40
1, 2121240, Note_off_c, 1, 33, 0
1, 2121240, Note_on_c, 1, 33, 40
1, 2121360, Note_off_c, 1, 33, 0
1, 2121360, Note_on_c, 1, 33, 40
1, 2121480, Note_off_c, 1, 33, 0
1, 2121480, Note_on_c, 1, 33, 40
1, 2121600, Note_off_c, 1, 33, 0
1, 2121600, Note_on_c, 1, 33, 40
1, 2121840, Note_off_c, 1, 33, 0
1, 2121840, Note_on_c, 1, 33, 40
1, 2122080, Note_off_c, 1, 33, 0
1, 2122080, Note_on_c, 1, 33, 40
1, 2122320, Note_off_c, 1, 33, 0
1, 2122320, Note_on_c, 1, 40, 40
1, 2122560, Note_off_c, 1, 40, 0
1, 2122560, Note_on_c, 1, 48, 40
1, 2122800, Note_off_c, 1, 48, 0
1, 2122800, Note_on_c, 1, 45, 40
1, 2123040, Note_off_c, 1, 45, 0
1, 2123040, Note_on_c, 1, 40, 40
1, 2123280, Note_off_c, 1, 40, 0
1, 2123280, Note_on_c, 1, 33, 40
1, 2123520, Note_off_c, 1, 33, 0
1, 2123520, Note_on_c, 1, 33, 40
1, 2123640, Note_off_c, 1, 33, 0
1, 2123640, Note_on_c, 1, 33, 40
1, 2123760, Note_off_c, 1, 33, 0
1, 2123760, Note_on_c, 1, 33, 40
1, 2123880, Note_off_c, 1, 33, 0
1, 2123880, Note_on_c, 1, 38, 40
1, 2124000, Note_off_c, 1, 38, 0
1, 2124000, Note_on_c, 1, 40, 40
1, 2124120, Note_off_c, 1, 40, 0
1, 2124120, Note_on_c, 1, 48, 40
1, 2124240, Note_off_c, 1, 48, 0
1, 2124240, Note_on_c, 1, 45, 40
1, 2124480, Note_off_c, 1, 45, 0
1, 2124480, Note_on_c, 1, 33, 40
1, 2124720, Note_off_c, 1, 33, 0
1, 2124720, Note_on_c, 1, 33, 40
1, 2124960, Note_off_c, 1, 33, 0
1, 2124960, Note_on_c, 1, 33, 40
1, 2125080, Note_off_c, 1, 33, 0
1, 2125080, Note_on_c, 1, 33, 40
1, 2125200, Note_off_c, 1, 33, 0
1, 2125200, Note_on_c, 1, 33, 40
1, 2125320, Note_off_c, 1, 33, 0
1, 2125320, Note_on_c, 1, 33, 40
1, 2125440, Note_off_c, 1, 33, 0
1, 2125440, Note_on_c, 1, 33, 40
1, 2125680, Note_off_c, 1, 33, 0
1, 2125680, Note_on_c, 1, 33, 40
1, 2125920, Note_off_c, 1, 33, 0
1, 2125920, Note_on_c, 1, 33, 40
1, 2126160, Note_off_c, 1, 33, 0
1, 2126160, Note_on_c, 1, 40, 40
1, 2126400, Note_off_c, 1, 40, 0
1, 2126400, Note_on_c, 1, 48, 40
1, 2126640, Note_off_c, 1, 48, 0
1, 2126640, Note_on_c, 1, 45, 40
1, 2126880, Note_off_c, 1, 45, 0
1, 2126880, Note_on_c, 1, 40, 40
1, 2127120, Note_off_c, 1, 40, 0
1, 2127120, Note_on_c, 1, 33, 40
1, 2127360, Note_off_c, 1, 33, 0
1, 2127360, Note_on_c, 1, 33, 40
1, 2127480, Note_off_c, 1, 33, 0
1, 2127480, Note_on_c, 1, 32, 40
1, 2127600, Note_off_c, 1, 32, 0
1, 2127600, Note_on_c, 1, 33, 40
1, 2127720, Note_off_c, 1, 33, 0
1, 2127720, Note_on_c, 1, 33, 40
1, 2127840, Note_off_c, 1, 33, 0
1, 2127840, Note_on_c, 1, 48, 40
1, 2128080, Note_off_c, 1, 48, 0
1, 2128080, Note_on_c, 1, 45, 40
1, 2128320, Note_off_c, 1, 45, 0
1, 2128320, Note_on_c, 1, 33, 40
1, 2128560, Note_off_c, 1, 33, 0
1, 2128560, Note_on_c, 1, 33, 40
1, 2128800, Note_off_c, 1, 33, 0
1, 2128800, Note_on_c, 1, 33, 40
1, 2128920, Note_off_c, 1, 33, 0
1, 2128920, Note_on_c, 1, 33, 40
1, 2129040, Note_off_c, 1, 33, 0
1, 2129040, Note_on_c, 1, 33, 40
1, 2129160, Note_off_c, 1, 33, 0
1, 2129160, Note_on_c, 1, 33, 40
1, 2129280, Note_off_c, 1, 33, 0
1, 2129280, Note_on_c, 1, 33, 40
1, 2129520, Note_off_c, 1, 33, 0
1, 2129520, Note_on_c, 1, 33, 40
1, 2129760, Note_off_c, 1, 33, 0
1, 2129760, Note_on_c, 1, 33, 40
1, 2130000, Note_off_c, 1, 33, 0
1, 2130000, Note_on_c, 1, 40, 40
1, 2130240, Note_off_c, 1, 40, 0
1, 2130240, Note_on_c, 1, 48, 40
1, 2130480, Note_off_c, 1, 48, 0
1, 2130480, Note_on_c, 1, 45, 40
1, 2130720, Note_off_c, 1, 45, 0
1, 2130720, Note_on_c, 1, 40, 40
1, 2130960, Note_off_c, 1, 40, 0
1, 2130960, Note_on_c, 1, 33, 40
1, 2131200, Note_off_c, 1, 33, 0
1, 2131200, Note_on_c, 1, 33, 40
1, 2131320, Note_off_c, 1, 33, 0
1, 2131320, Note_on_c, 1, 33, 40
1, 2131440, Note_off_c, 1, 33, 0
1, 2131440, Note_on_c, 1, 33, 40
1, 2131560, Note_off_c, 1, 33, 0
1, 2131560, Note_on_c, 1, 38, 40
1, 2131680, Note_off_c, 1, 38, 0
1, 2131680, Note_on_c, 1, 40, 40
1, 2131800, Note_off_c, 1, 40, 0
1, 2131800, Note_on_c, 1, 48, 40
1, 2131920, Note_off_c, 1, 48, 0
1, 2131920, Note_on_c, 1, 45, 40
1, 2132160, Note_off_c, 1, 45, 0
1, 2132160, Note_on_c, 1, 33, 40
1, 2132400, Note_off_c, 1, 33, 0
1, 2132400, Note_on_c, 1, 33, 40
1, 2132640, Note_off_c, 1, 33, 0
1, 2132640, Note_on_c, 1, 33, 40
1, 2132760, Note_off_c, 1, 33, 0
1, 2132760, Note_on_c, 1, 33, 40
1, 2132880, Note_off_c, 1, 33, 0
1, 2132880, Note_on_c, 1, 33, 40
1, 2133000, Note_off_c, 1, 33, 0
1, 2133000, Note_on_c, 1, 33, 40
1, 2133120, Note_off_c, 1, 33, 0
1, 2133120, Note_on_c, 1, 33, 40
1, 2133360, Note_off_c, 1, 33, 0
1, 2133360, Note_on_c, 1, 33, 40
1, 2133600, Note_off_c, 1, 33, 0
1, 2133600, Note_on_c, 1, 33, 40
1, 2133840, Note_off_c, 1, 33, 0
1, 2143440, Note_on_c, 1, 45, 40
1, 2144160, Note_off_c, 1, 45, 0
1, 2144160, Note_on_c, 1, 48, 40
1, 2144400, Note_off_c, 1, 48, 0
1, 2144400, Note_on_c, 1, 49, 40
1, 2144640, Note_off_c, 1, 49, 0
1, 2144640, Note_on_c, 1, 52, 40
1, 2144880, Note_off_c, 1, 52, 0
1, 2144880, Note_on_c, 1, 57, 40
1, 2145120, Note_off_c, 1, 57, 0
1, 2145120, Note_on_c, 1, 55, 40
1, 2145840, Note_off_c, 1, 55, 0
1, 2145840, Note_on_c, 1, 52, 40
1, 2146080, Note_off_c, 1, 52, 0
1, 2146080, Note_on_c, 1, 59, 40
1, 2146560, Note_off_c, 1, 59, 0
1, 2146560, Note_on_c, 1, 52, 40
1, 2146800, Note_off_c, 1, 52, 0
1, 2146800, Note_on_c, 1, 55, 40
1, 2147040, Note_off_c, 1, 55, 0
1, 2147040, Note_on_c, 1, 57, 40
1, 2147280, Note_off_c, 1, 57, 0
1, 2147280, Note_on_c, 1, 45, 40
1, 2148000, Note_off_c, 1, 45, 0
1, 2148000, Note_on_c, 1, 48, 40
1, 2148240, Note_off_c, 1, 48, 0
1, 2148240, Note_on_c, 1, 49, 40
1, 2148480, Note_off_c, 1, 49, 0
1, 2148480, Note_on_c, 1, 52, 40
1, 2148720, Note_off_c, 1, 52, 0
1, 2148720, Note_on_c, 1, 57, 40
1, 2148960, Note_off_c, 1, 57, 0
1, 2148960, Note_on_c, 1, 55, 40
1, 2149680, Note_off_c, 1, 55, 0
1, 2149680, Note_on_c, 1, 52, 40
1, 2149920, Note_off_c, 1, 52, 0
1, 2149920, Note_on_c, 1, 59, 40
1, 2150400, Note_off_c, 1, 59, 0
1, 2150400, Note_on_c, 1, 52, 40
1, 2150640, Note_off_c, 1, 52, 0
1, 2150640, Note_on_c, 1, 55, 40
1, 2150880, Note_off_c, 1, 55, 0
1, 2150880, Note_on_c, 1, 57, 40
1, 2151120, Note_off_c, 1, 57, 0
1, 2151120, Note_on_c, 1, 45, 40
1, 2151840, Note_off_c, 1, 45, 0
1, 2151840, Note_on_c, 1, 48, 40
1, 2152080, Note_off_c, 1, 48, 0
1, 2152080, Note_on_c, 1, 49, 40
1, 2152320, Note_off_c, 1, 49, 0
1, 2152320, Note_on_c, 1, 52, 40
1, 2152560, Note_off_c, 1, 52, 0
1, 2152560, Note_on_c, 1, 57, 40
1, 2152800, Note_off_c, 1, 57, 0
1, 2152800, Note_on_c, 1, 55, 40
1, 2153520, Note_off_c, 1, 55, 0
1, 2153520, Note_on_c, 1, 52, 40
1, 2153760, Note_off_c, 1, 52, 0
1, 2153760, Note_on_c, 1, 59, 40
1, 2154240, Note_off_c, 1, 59, 0
1, 2154240, Note_on_c, 1, 52, 40
1, 2154480, Note_off_c, 1, 52, 0
1, 2154480, Note_on_c, 1, 55, 40
1, 2154720, Note_off_c, 1, 55, 0
1, 2154720, Note_on_c, 1, 57, 40
1, 2154960, Note_off_c, 1, 57, 0
1, 2154960, Note_on_c, 1, 45, 40
1, 2155680, Note_off_c, 1, 45, 0
1, 2155680, Note_on_c, 1, 48, 40
1, 2155920, Note_off_c, 1, 48, 0
1, 2155920, Note_on_c, 1, 49, 40
1, 2156160, Note_off_c, 1, 49, 0
1, 2156160, Note_on_c, 1, 52, 40
1, 2156400, Note_off_c, 1, 52, 0
1, 2156400, Note_on_c, 1, 57, 40
1, 2156640, Note_off_c, 1, 57, 0
1, 2156640, Note_on_c, 1, 55, 40
1, 2157360, Note_off_c, 1, 55, 0
1, 2157360, Note_on_c, 1, 52, 40
1, 2157600, Note_off_c, 1, 52, 0
1, 2157600, Note_on_c, 1, 59, 40
1, 2158080, Note_off_c, 1, 59, 0
1, 2158080, Note_on_c, 1, 52, 40
1, 2158320, Note_off_c, 1, 52, 0
1, 2158320, Note_on_c, 1, 55, 40
1, 2158560, Note_off_c, 1, 55, 0
1, 2158560, Note_on_c, 1, 57, 40
1, 2158800, Note_off_c, 1, 57, 0
1, 2158800, Note_on_c, 1, 45, 40
1, 2159520, Note_off_c, 1, 45, 0
1, 2159520, Note_on_c, 1, 48, 40
1, 2159760, Note_off_c, 1, 48, 0
1, 2159760, Note_on_c, 1, 49, 40
1, 2160000, Note_off_c, 1, 49, 0
1, 2160000, Note_on_c, 1, 52, 40
1, 2160240, Note_off_c, 1, 52, 0
1, 2160240, Note_on_c, 1, 57, 40
1, 2160480, Note_off_c, 1, 57, 0
1, 2160480, Note_on_c, 1, 55, 40
1, 2161200, Note_off_c, 1, 55, 0
1, 2161200, Note_on_c, 1, 52, 40
1, 2161440, Note_off_c, 1, 52, 0
1, 2161440, Note_on_c, 1, 59, 40
1, 2161920, Note_off_c, 1, 59, 0
1, 2161920, Note_on_c, 1, 52, 40
1, 2162160, Note_off_c, 1, 52, 0
1, 2162160, Note_on_c, 1, 55, 40
1, 2162400, Note_off_c, 1, 55, 0
1, 2162400, Note_on_c, 1, 57, 40
1, 2162640, Note_off_c, 1, 57, 0
1, 2162640, Note_on_c, 1, 45, 40
1, 2163360, Note_off_c, 1, 45, 0
1, 2163360, Note_on_c, 1, 48, 40
1, 2163600, Note_off_c, 1, 48, 0
1, 2163600, Note_on_c, 1, 49, 40
1, 2163840, Note_off_c, 1, 49, 0
1, 2163840, Note_on_c, 1, 52, 40
1, 2164080, Note_off_c, 1, 52, 0
1, 2164080, Note_on_c, 1, 57, 40
1, 2164320, Note_off_c, 1, 57, 0
1, 2164320, Note_on_c, 1, 55, 40
1, 2165040, Note_off_c, 1, 55, 0
1, 2165040, Note_on_c, 1, 52, 40
1, 2165280, Note_off_c, 1, 52, 0
1, 2165280, Note_on_c, 1, 59, 40
1, 2165760, Note_off_c, 1, 59, 0
1, 2165760, Note_on_c, 1, 52, 40
1, 2166000, Note_off_c, 1, 52, 0
1, 2166000, Note_on_c, 1, 55, 40
1, 2166240, Note_off_c, 1, 55, 0
1, 2166240, Note_on_c, 1, 57, 40
1, 2166480, Note_off_c, 1, 57, 0
1, 2166480, Note_on_c, 1, 38, 40
1, 2167200, Note_off_c, 1, 38, 0
1, 2167200, Note_on_c, 1, 41, 40
1, 2167440, Note_off_c, 1, 41, 0
1, 2167440, Note_on_c, 1, 42, 40
1, 2167680, Note_off_c, 1, 42, 0
1, 2167680, Note_on_c, 1, 45, 40
1, 2167920, Note_off_c, 1, 45, 0
1, 2167920, Note_on_c, 1, 50, 40
1, 2168160, Note_off_c, 1, 50, 0
1, 2168160, Note_on_c, 1, 48, 40
1, 2168880, Note_off_c, 1, 48, 0
1, 2168880, Note_on_c, 1, 45, 40
1, 2169120, Note_off_c, 1, 45, 0
1, 2169120, Note_on_c, 1, 52, 40
1, 2169600, Note_off_c, 1, 52, 0
1, 2169600, Note_on_c, 1, 45, 40
1, 2169840, Note_off_c, 1, 45, 0
1, 2169840, Note_on_c, 1, 48, 40
1, 2170080, Note_off_c, 1, 48, 0
1, 2170080, Note_on_c, 1, 50, 40
1, 2170320, Note_off_c, 1, 50, 0
1, 2170320, Note_on_c, 1, 45, 40
1, 2171040, Note_off_c, 1, 45, 0
1, 2171040, Note_on_c, 1, 48, 40
1, 2171280, Note_off_c, 1, 48, 0
1, 2171280, Note_on_c, 1, 49, 40
1, 2171520, Note_off_c, 1, 49, 0
1, 2171520, Note_on_c, 1, 52, 40
1, 2171760, Note_off_c, 1, 52, 0
1, 2171760, Note_on_c, 1, 57, 40
1, 2172000, Note_off_c, 1, 57, 0
1, 2172000, Note_on_c, 1, 55, 40
1, 2172720, Note_off_c, 1, 55, 0
1, 2172720, Note_on_c, 1, 52, 40
1, 2172960, Note_off_c, 1, 52, 0
1, 2172960, Note_on_c, 1, 59, 40
1, 2173440, Note_off_c, 1, 59, 0
1, 2173440, Note_on_c, 1, 52, 40
1, 2173680, Note_off_c, 1, 52, 0
1, 2173680, Note_on_c, 1, 55, 40
1, 2173920, Note_off_c, 1, 55, 0
1, 2173920, Note_on_c, 1, 57, 40
1, 2174160, Note_off_c, 1, 57, 0
1, 2174160, Note_on_c, 1, 47, 40
1, 2174640, Note_off_c, 1, 47, 0
1, 2174640, Note_on_c, 1, 51, 40
1, 2174880, Note_off_c, 1, 51, 0
1, 2174880, Note_on_c, 1, 54, 40
1, 2175120, Note_off_c, 1, 54, 0
1, 2175120, Note_on_c, 1, 57, 40
1, 2175600, Note_off_c, 1, 57, 0
1, 2175600, Note_on_c, 1, 56, 40
1, 2175840, Note_off_c, 1, 56, 0
1, 2175840, Note_on_c, 1, 59, 40
1, 2176080, Note_off_c, 1, 59, 0
1, 2176080, Note_on_c, 1, 47, 40
1, 2176560, Note_off_c, 1, 47, 0
1, 2176560, Note_on_c, 1, 51, 40
1, 2176800, Note_off_c, 1, 51, 0
1, 2176800, Note_on_c, 1, 54, 40
1, 2177040, Note_off_c, 1, 54, 0
1, 2177040, Note_on_c, 1, 57, 40
1, 2177520, Note_off_c, 1, 57, 0
1, 2177520, Note_on_c, 1, 56, 40
1, 2177760, Note_off_c, 1, 56, 0
1, 2177760, Note_on_c, 1, 59, 40
1, 2178000, Note_off_c, 1, 59, 0
1, 2178000, Note_on_c, 1, 47, 40
1, 2178480, Note_off_c, 1, 47, 0
1, 2178480, Note_on_c, 1, 51, 40
1, 2178720, Note_off_c, 1, 51, 0
1, 2178720, Note_on_c, 1, 54, 40
1, 2178960, Note_off_c, 1, 54, 0
1, 2178960, Note_on_c, 1, 57, 40
1, 2179440, Note_off_c, 1, 57, 0
1, 2179440, Note_on_c, 1, 56, 40
1, 2179680, Note_off_c, 1, 56, 0
1, 2179680, Note_on_c, 1, 59, 40
1, 2179920, Note_off_c, 1, 59, 0
1, 2179920, Note_on_c, 1, 47, 40
1, 2180400, Note_off_c, 1, 47, 0
1, 2180400, Note_on_c, 1, 51, 40
1, 2180640, Note_off_c, 1, 51, 0
1, 2180640, Note_on_c, 1, 54, 40
1, 2180880, Note_off_c, 1, 54, 0
1, 2180880, Note_on_c, 1, 57, 40
1, 2181360, Note_off_c, 1, 57, 0
1, 2181360, Note_on_c, 1, 56, 40
1, 2181600, Note_off_c, 1, 56, 0
1, 2181600, Note_on_c, 1, 59, 40
1, 2181840, Note_off_c, 1, 59, 0
1, 2181840, Note_on_c, 1, 38, 40
1, 2182320, Note_off_c, 1, 38, 0
1, 2182320, Note_on_c, 1, 42, 40
1, 2182560, Note_off_c, 1, 42, 0
1, 2182560, Note_on_c, 1, 45, 40
1, 2182800, Note_off_c, 1, 45, 0
1, 2182800, Note_on_c, 1, 48, 40
1, 2183280, Note_off_c, 1, 48, 0
1, 2183280, Note_on_c, 1, 47, 40
1, 2183520, Note_off_c, 1, 47, 0
1, 2183520, Note_on_c, 1, 50, 40
1, 2183760, Note_off_c, 1, 50, 0
1, 2183760, Note_on_c, 1, 37, 40
1, 2184240, Note_off_c, 1, 37, 0
1, 2184240, Note_on_c, 1, 41, 40
1, 2184480, Note_off_c, 1, 41, 0
1, 2184480, Note_on_c, 1, 44, 40
1, 2184720, Note_off_c, 1, 44, 0
1, 2184720, Note_on_c, 1, 47, 40
1, 2185200, Note_off_c, 1, 47, 0
1, 2185200, Note_on_c, 1, 45, 40
1, 2185320, Note_off_c, 1, 45, 0
1, 2185320, Note_on_c, 1, 46, 40
1, 2185440, Note_off_c, 1, 46, 0
1, 2185440, Note_on_c, 1, 49, 40
1, 2185680, Note_off_c, 1, 49, 0
1, 2185680, Note_on_c, 1, 42, 40
1, 2186160, Note_off_c, 1, 42, 0
1, 2186160, Note_on_c, 1, 46, 40
1, 2186640, Note_off_c, 1, 46, 0
1, 2186640, Note_on_c, 1, 49, 40
1, 2186880, Note_off_c, 1, 49, 0
1, 2186880, Note_on_c, 1, 49, 40
1, 2187120, Note_off_c, 1, 49, 0
1, 2187120, Note_on_c, 1, 42, 40
1, 2187600, Note_off_c, 1, 42, 0
1, 2187600, Note_on_c, 1, 40, 40
1, 2188080, Note_off_c, 1, 40, 0
1, 2188080, Note_on_c, 1, 44, 40
1, 2188560, Note_off_c, 1, 44, 0
1, 2188560, Note_on_c, 1, 47, 40
1, 2188800, Note_off_c, 1, 47, 0
1, 2188800, Note_on_c, 1, 47, 40
1, 2189040, Note_off_c, 1, 47, 0
1, 2189040, Note_on_c, 1, 40, 40
1, 2189520, Note_off_c, 1, 40, 0
1, 2189520, Note_on_c, 1, 45, 40
1, 2190240, Note_off_c, 1, 45, 0
1, 2190240, Note_on_c, 1, 48, 40
1, 2190480, Note_off_c, 1, 48, 0
1, 2190480, Note_on_c, 1, 49, 40
1, 2190720, Note_off_c, 1, 49, 0
1, 2190720, Note_on_c, 1, 52, 40
1, 2190960, Note_off_c, 1, 52, 0
1, 2190960, Note_on_c, 1, 57, 40
1, 2191200, Note_off_c, 1, 57, 0
1, 2191200, Note_on_c, 1, 55, 40
1, 2191920, Note_off_c, 1, 55, 0
1, 2191920, Note_on_c, 1, 52, 40
1, 2192160, Note_off_c, 1, 52, 0
1, 2192160, Note_on_c, 1, 59, 40
1, 2192640, Note_off_c, 1, 59, 0
1, 2192640, Note_on_c, 1, 52, 40
1, 2192880, Note_off_c, 1, 52, 0
1, 2192880, Note_on_c, 1, 55, 40
1, 2193120, Note_off_c, 1, 55, 0
1, 2193120, Note_on_c, 1, 57, 40
1, 2193360, Note_off_c, 1, 57, 0
1, 2193360, Note_on_c, 1, 45, 40
1, 2194080, Note_off_c, 1, 45, 0
1, 2194080, Note_on_c, 1, 48, 40
1, 2194320, Note_off_c, 1, 48, 0
1, 2194320, Note_on_c, 1, 49, 40
1, 2194560, Note_off_c, 1, 49, 0
1, 2194560, Note_on_c, 1, 52, 40
1, 2194800, Note_off_c, 1, 52, 0
1, 2194800, Note_on_c, 1, 57, 40
1, 2195040, Note_off_c, 1, 57, 0
1, 2195040, Note_on_c, 1, 55, 40
1, 2195760, Note_off_c, 1, 55, 0
1, 2195760, Note_on_c, 1, 52, 40
1, 2196000, Note_off_c, 1, 52, 0
1, 2196000, Note_on_c, 1, 59, 40
1, 2196480, Note_off_c, 1, 59, 0
1, 2196480, Note_on_c, 1, 52, 40
1, 2196720, Note_off_c, 1, 52, 0
1, 2196720, Note_on_c, 1, 55, 40
1, 2196960, Note_off_c, 1, 55, 0
1, 2196960, Note_on_c, 1, 57, 40
1, 2197200, Note_off_c, 1, 57, 0
1, 2197200, Note_on_c, 1, 45, 40
1, 2197920, Note_off_c, 1, 45, 0
1, 2197920, Note_on_c, 1, 48, 40
1, 2198160, Note_off_c, 1, 48, 0
1, 2198160, Note_on_c, 1, 49, 40
1, 2198400, Note_off_c, 1, 49, 0
1, 2198400, Note_on_c, 1, 52, 40
1, 2198640, Note_off_c, 1, 52, 0
1, 2198640, Note_on_c, 1, 57, 40
1, 2198880, Note_off_c, 1, 57, 0
1, 2198880, Note_on_c, 1, 55, 40
1, 2199600, Note_off_c, 1, 55, 0
1, 2199600, Note_on_c, 1, 52, 40
1, 2199840, Note_off_c, 1, 52, 0
1, 2199840, Note_on_c, 1, 59, 40
1, 2200320, Note_off_c, 1, 59, 0
1, 2200320, Note_on_c, 1, 52, 40
1, 2200560, Note_off_c, 1, 52, 0
1, 2200560, Note_on_c, 1, 55, 40
1, 2200800, Note_off_c, 1, 55, 0
1, 2200800, Note_on_c, 1, 57, 40
1, 2201040, Note_off_c, 1, 57, 0
1, 2201040, Note_on_c, 1, 45, 40
1, 2201760, Note_off_c, 1, 45, 0
1, 2201760, Note_on_c, 1, 48, 40
1, 2202000, Note_off_c, 1, 48, 0
1, 2202000, Note_on_c, 1, 49, 40
1, 2202240, Note_off_c, 1, 49, 0
1, 2202240, Note_on_c, 1, 52, 40
1, 2202480, Note_off_c, 1, 52, 0
1, 2202480, Note_on_c, 1, 57, 40
1, 2202720, Note_off_c, 1, 57, 0
1, 2202720, Note_on_c, 1, 55, 40
1, 2203440, Note_off_c, 1, 55, 0
1, 2203440, Note_on_c, 1, 52, 40
1, 2203680, Note_off_c, 1, 52, 0
1, 2203680, Note_on_c, 1, 59, 40
1, 2204160, Note_off_c, 1, 59, 0
1, 2204160, Note_on_c, 1, 52, 40
1, 2204400, Note_off_c, 1, 52, 0
1, 2204400, Note_on_c, 1, 55, 40
1, 2204640, Note_off_c, 1, 55, 0
1, 2204640, Note_on_c, 1, 57, 40
1, 2204880, Note_off_c, 1, 57, 0
1, 2204880, Note_on_c, 1, 38, 40
1, 2205600, Note_off_c, 1, 38, 0
1, 2205600, Note_on_c, 1, 41, 40
1, 2205840, Note_off_c, 1, 41, 0
1, 2205840, Note_on_c, 1, 42, 40
1, 2206080, Note_off_c, 1, 42, 0
1, 2206080, Note_on_c, 1, 45, 40
1, 2206320, Note_off_c, 1, 45, 0
1, 2206320, Note_on_c, 1, 50, 40
1, 2206560, Note_off_c, 1, 50, 0
1, 2206560, Note_on_c, 1, 48, 40
1, 2207280, Note_off_c, 1, 48, 0
1, 2207280, Note_on_c, 1, 45, 40
1, 2207520, Note_off_c, 1, 45, 0
1, 2207520, Note_on_c, 1, 52, 40
1, 2208000, Note_off_c, 1, 52, 0
1, 2208000, Note_on_c, 1, 45, 40
1, 2208240, Note_off_c, 1, 45, 0
1, 2208240, Note_on_c, 1, 48, 40
1, 2208480, Note_off_c, 1, 48, 0
1, 2208480, Note_on_c, 1, 50, 40
1, 2208720, Note_off_c, 1, 50, 0
1, 2208720, Note_on_c, 1, 45, 40
1, 2209440, Note_off_c, 1, 45, 0
1, 2209440, Note_on_c, 1, 48, 40
1, 2209680, Note_off_c, 1, 48, 0
1, 2209680, Note_on_c, 1, 49, 40
1, 2209920, Note_off_c, 1, 49, 0
1, 2209920, Note_on_c, 1, 52, 40
1, 2210160, Note_off_c, 1, 52, 0
1, 2210160, Note_on_c, 1, 57, 40
1, 2210400, Note_off_c, 1, 57, 0
1, 2210400, Note_on_c, 1, 55, 40
1, 2211120, Note_off_c, 1, 55, 0
1, 2211120, Note_on_c, 1, 52, 40
1, 2211360, Note_off_c, 1, 52, 0
1, 2211360, Note_on_c, 1, 59, 40
1, 2211840, Note_off_c, 1, 59, 0
1, 2211840, Note_on_c, 1, 52, 40
1, 2212080, Note_off_c, 1, 52, 0
1, 2212080, Note_on_c, 1, 55, 40
1, 2212320, Note_off_c, 1, 55, 0
1, 2212320, Note_on_c, 1, 57, 40
1, 2212560, Note_off_c, 1, 57, 0
1, 2212560, Note_on_c, 1, 47, 40
1, 2213040, Note_off_c, 1, 47, 0
1, 2213040, Note_on_c, 1, 51, 40
1, 2213280, Note_off_c, 1, 51, 0
1, 2213280, Note_on_c, 1, 54, 40
1, 2213520, Note_off_c, 1, 54, 0
1, 2213520, Note_on_c, 1, 57, 40
1, 2214000, Note_off_c, 1, 57, 0
1, 2214000, Note_on_c, 1, 56, 40
1, 2214240, Note_off_c, 1, 56, 0
1, 2214240, Note_on_c, 1, 59, 40
1, 2214480, Note_off_c, 1, 59, 0
1, 2214480, Note_on_c, 1, 47, 40
1, 2214960, Note_off_c, 1, 47, 0
1, 2214960, Note_on_c, 1, 51, 40
1, 2215200, Note_off_c, 1, 51, 0
1, 2215200, Note_on_c, 1, 54, 40
1, 2215440, Note_off_c, 1, 54, 0
1, 2215440, Note_on_c, 1, 57, 40
1, 2215920, Note_off_c, 1, 57, 0
1, 2215920, Note_on_c, 1, 56, 40
1, 2216160, Note_off_c, 1, 56, 0
1, 2216160, Note_on_c, 1, 59, 40
1, 2216400, Note_off_c, 1, 59, 0
1, 2216400, Note_on_c, 1, 47, 40
1, 2216880, Note_off_c, 1, 47, 0
1, 2216880, Note_on_c, 1, 51, 40
1, 2217120, Note_off_c, 1, 51, 0
1, 2217120, Note_on_c, 1, 54, 40
1, 2217360, Note_off_c, 1, 54, 0
1, 2217360, Note_on_c, 1, 57, 40
1, 2217840, Note_off_c, 1, 57, 0
1, 2217840, Note_on_c, 1, 56, 40
1, 2218080, Note_off_c, 1, 56, 0
1, 2218080, Note_on_c, 1, 59, 40
1, 2218320, Note_off_c, 1, 59, 0
1, 2218320, Note_on_c, 1, 47, 40
1, 2218800, Note_off_c, 1, 47, 0
1, 2218800, Note_on_c, 1, 51, 40
1, 2219040, Note_off_c, 1, 51, 0
1, 2219040, Note_on_c, 1, 54, 40
1, 2219280, Note_off_c, 1, 54, 0
1, 2219280, Note_on_c, 1, 57, 40
1, 2219760, Note_off_c, 1, 57, 0
1, 2219760, Note_on_c, 1, 56, 40
1, 2220000, Note_off_c, 1, 56, 0
1, 2220000, Note_on_c, 1, 59, 40
1, 2220240, Note_off_c, 1, 59, 0
1, 2220240, Note_on_c, 1, 38, 40
1, 2220720, Note_off_c, 1, 38, 0
1, 2220720, Note_on_c, 1, 42, 40
1, 2220960, Note_off_c, 1, 42, 0
1, 2220960, Note_on_c, 1, 45, 40
1, 2221200, Note_off_c, 1, 45, 0
1, 2221200, Note_on_c, 1, 48, 40
1, 2221680, Note_off_c, 1, 48, 0
1, 2221680, Note_on_c, 1, 47, 40
1, 2221920, Note_off_c, 1, 47, 0
1, 2221920, Note_on_c, 1, 50, 40
1, 2222160, Note_off_c, 1, 50, 0
1, 2222160, Note_on_c, 1, 37, 40
1, 2222640, Note_off_c, 1, 37, 0
1, 2222640, Note_on_c, 1, 41, 40
1, 2222880, Note_off_c, 1, 41, 0
1, 2222880, Note_on_c, 1, 44, 40
1, 2223120, Note_off_c, 1, 44, 0
1, 2223120, Note_on_c, 1, 47, 40
1, 2223600, Note_off_c, 1, 47, 0
1, 2223600, Note_on_c, 1, 45, 40
1, 2223720, Note_off_c, 1, 45, 0
1, 2223720, Note_on_c, 1, 46, 40
1, 2223840, Note_off_c, 1, 46, 0
1, 2223840, Note_on_c, 1, 49, 40
1, 2224080, Note_off_c, 1, 49, 0
1, 2224080, Note_on_c, 1, 42, 40
1, 2224560, Note_off_c, 1, 42, 0
1, 2224560, Note_on_c, 1, 46, 40
1, 2225040, Note_off_c, 1, 46, 0
1, 2225040, Note_on_c, 1, 49, 40
1, 2225280, Note_off_c, 1, 49, 0
1, 2225280, Note_on_c, 1, 49, 40
1, 2225520, Note_off_c, 1, 49, 0
1, 2225520, Note_on_c, 1, 42, 40
1, 2226000, Note_off_c, 1, 42, 0
1, 2226000, Note_on_c, 1, 40, 40
1, 2226480, Note_off_c, 1, 40, 0
1, 2226480, Note_on_c, 1, 40, 40
1, 2226720, Note_off_c, 1, 40, 0
1, 2226720, Note_on_c, 1, 44, 40
1, 2226960, Note_off_c, 1, 44, 0
1, 2226960, Note_on_c, 1, 47, 40
1, 2227200, Note_off_c, 1, 47, 0
1, 2227200, Note_on_c, 1, 47, 40
1, 2227440, Note_off_c, 1, 47, 0
1, 2227440, Note_on_c, 1, 44, 40
1, 2227680, Note_off_c, 1, 44, 0
1, 2227680, Note_on_c, 1, 40, 40
1, 2227920, Note_off_c, 1, 40, 0
1, 2227920, Note_on_c, 1, 40, 40
1, 2228400, Note_off_c, 1, 40, 0
1, 2228400, Note_on_c, 1, 40, 40
1, 2228880, Note_off_c, 1, 40, 0
1, 2228880, Note_on_c, 1, 40, 40
1, 2229360, Note_off_c, 1, 40, 0
1, 2229360, Note_on_c, 1, 40, 40
1, 2229840, Note_off_c, 1, 40, 0
1, 2229840, Note_on_c, 1, 40, 40
1, 2230320, Note_off_c, 1, 40, 0
1, 2230320, Note_on_c, 1, 40, 40
1, 2230800, Note_off_c, 1, 40, 0
1, 2230800, Note_on_c, 1, 40, 40
1, 2231280, Note_off_c, 1, 40, 0
1, 2231280, Note_on_c, 1, 40, 40
1, 2231760, Note_off_c, 1, 40, 0
1, 2231760, Note_on_c, 1, 40, 40
1, 2232240, Note_off_c, 1, 40, 0
1, 2232240, Note_on_c, 1, 40, 40
1, 2232720, Note_off_c, 1, 40, 0
1, 2232720, Note_on_c, 1, 40, 40
1, 2233200, Note_off_c, 1, 40, 0
1, 2233200, Note_on_c, 1, 40, 40
1, 2233680, Note_off_c, 1, 40, 0
1, 2233680, Note_on_c, 1, 40, 40
1, 2234160, Note_off_c, 1, 40, 0
1, 2234160, Note_on_c, 1, 40, 40
1, 2234640, Note_off_c, 1, 40, 0
1, 2234640, Note_on_c, 1, 40, 40
1, 2235120, Note_off_c, 1, 40, 0
1, 2235120, Note_on_c, 1, 40, 40
1, 2235600, Note_off_c, 1, 40, 0
1, 2235600, Note_on_c, 1, 40, 40
1, 2235840, Note_off_c, 1, 40, 0
1, 2235840, Note_on_c, 1, 40, 40
1, 2236560, Note_off_c, 1, 40, 0
1, 2236560, Note_on_c, 1, 40, 40
1, 2236800, Note_off_c, 1, 40, 0
1, 2236800, Note_on_c, 1, 40, 40
1, 2237520, Note_off_c, 1, 40, 0
1, 2237520, Note_on_c, 1, 40, 40
1, 2237760, Note_off_c, 1, 40, 0
1, 2237760, Note_on_c, 1, 40, 40
1, 2238480, Note_off_c, 1, 40, 0
1, 2238480, Note_on_c, 1, 40, 40
1, 2238720, Note_off_c, 1, 40, 0
1, 2238720, Note_on_c, 1, 40, 40
1, 2239440, Note_off_c, 1, 40, 0
1, 2239440, Note_on_c, 1, 40, 40
1, 2239680, Note_off_c, 1, 40, 0
1, 2239680, Note_on_c, 1, 40, 40
1, 2239920, Note_off_c, 1, 40, 0
1, 2239920, Note_on_c, 1, 40, 40
1, 2240400, Note_off_c, 1, 40, 0
1, 2240400, Note_on_c, 1, 40, 40
1, 2240640, Note_off_c, 1, 40, 0
1, 2240640, Note_on_c, 1, 40, 40
1, 2240880, Note_off_c, 1, 40, 0
1, 2240880, Note_on_c, 1, 40, 40
1, 2241360, Note_off_c, 1, 40, 0
1, 2241360, Note_on_c, 1, 40, 40
1, 2241600, Note_off_c, 1, 40, 0
1, 2241600, Note_on_c, 1, 40, 40
1, 2241840, Note_off_c, 1, 40, 0
1, 2241840, Note_on_c, 1, 40, 40
1, 2242320, Note_off_c, 1, 40, 0
1, 2242320, Note_on_c, 1, 40, 40
1, 2242560, Note_off_c, 1, 40, 0
1, 2242560, Note_on_c, 1, 40, 40
1, 2242800, Note_off_c, 1, 40, 0
1, 2242800, Note_on_c, 1, 40, 40
1, 2243280, Note_off_c, 1, 40, 0
1, 2243280, Note_on_c, 1, 40, 40
1, 2243520, Note_off_c, 1, 40, 0
1, 2243520, Note_on_c, 1, 40, 40
1, 2243760, Note_off_c, 1, 40, 0
1, 2243760, Note_on_c, 1, 40, 40
1, 2244240, Note_off_c, 1, 40, 0
1, 2244240, Note_on_c, 1, 40, 40
1, 2244480, Note_off_c, 1, 40, 0
1, 2244480, Note_on_c, 1, 40, 40
1, 2244720, Note_off_c, 1, 40, 0
1, 2244720, Note_on_c, 1, 40, 40
1, 2245200, Note_off_c, 1, 40, 0
1, 2245200, Note_on_c, 1, 40, 40
1, 2245440, Note_off_c, 1, 40, 0
1, 2245440, Note_on_c, 1, 40, 40
1, 2245680, Note_off_c, 1, 40, 0
1, 2245680, Note_on_c, 1, 40, 40
1, 2246160, Note_off_c, 1, 40, 0
1, 2246160, Note_on_c, 1, 40, 40
1, 2246400, Note_off_c, 1, 40, 0
1, 2246400, Note_on_c, 1, 40, 40
1, 2246640, Note_off_c, 1, 40, 0
1, 2246640, Note_on_c, 1, 40, 40
1, 2247120, Note_off_c, 1, 40, 0
1, 2247120, Note_on_c, 1, 40, 40
1, 2247360, Note_off_c, 1, 40, 0
1, 2247360, Note_on_c, 1, 40, 40
1, 2247600, Note_off_c, 1, 40, 0
1, 2247600, Note_on_c, 1, 40, 40
1, 2247840, Note_off_c, 1, 40, 0
1, 2247840, Note_on_c, 1, 40, 40
1, 2248080, Note_off_c, 1, 40, 0
1, 2248080, Note_on_c, 1, 40, 40
1, 2248320, Note_off_c, 1, 40, 0
1, 2248320, Note_on_c, 1, 40, 40
1, 2248560, Note_off_c, 1, 40, 0
1, 2248560, Note_on_c, 1, 40, 40
1, 2248800, Note_off_c, 1, 40, 0
1, 2248800, Note_on_c, 1, 40, 40
1, 2249040, Note_off_c, 1, 40, 0
1, 2249040, Note_on_c, 1, 40, 40
1, 2249280, Note_off_c, 1, 40, 0
1, 2249280, Note_on_c, 1, 40, 40
1, 2249520, Note_off_c, 1, 40, 0
1, 2249520, Note_on_c, 1, 40, 40
1, 2249760, Note_off_c, 1, 40, 0
1, 2249760, Note_on_c, 1, 40, 40
1, 2250000, Note_off_c, 1, 40, 0
1, 2250000, Note_on_c, 1, 40, 40
1, 2250240, Note_off_c, 1, 40, 0
1, 2250240, Note_on_c, 1, 40, 40
1, 2250480, Note_off_c, 1, 40, 0
1, 2250480, Note_on_c, 1, 40, 40
1, 2250720, Note_off_c, 1, 40, 0
1, 2250720, Note_on_c, 1, 40, 40
1, 2250960, Note_off_c, 1, 40, 0
1, 2250960, Note_on_c, 1, 45, 40
1, 2251680, Note_off_c, 1, 45, 0
1, 2251680, Note_on_c, 1, 48, 40
1, 2251920, Note_off_c, 1, 48, 0
1, 2251920, Note_on_c, 1, 49, 40
1, 2252160, Note_off_c, 1, 49, 0
1, 2252160, Note_on_c, 1, 52, 40
1, 2252400, Note_off_c, 1, 52, 0
1, 2252400, Note_on_c, 1, 57, 40
1, 2252640, Note_off_c, 1, 57, 0
1, 2252640, Note_on_c, 1, 55, 40
1, 2253360, Note_off_c, 1, 55, 0
1, 2253360, Note_on_c, 1, 52, 40
1, 2253600, Note_off_c, 1, 52, 0
1, 2253600, Note_on_c, 1, 59, 40
1, 2254080, Note_off_c, 1, 59, 0
1, 2254080, Note_on_c, 1, 52, 40
1, 2254320, Note_off_c, 1, 52, 0
1, 2254320, Note_on_c, 1, 55, 40
1, 2254560, Note_off_c, 1, 55, 0
1, 2254560, Note_on_c, 1, 57, 40
1, 2254800, Note_off_c, 1, 57, 0
1, 2254800, Note_on_c, 1, 45, 40
1, 2255520, Note_off_c, 1, 45, 0
1, 2255520, Note_on_c, 1, 48, 40
1, 2255760, Note_off_c, 1, 48, 0
1, 2255760, Note_on_c, 1, 49, 40
1, 2256000, Note_off_c, 1, 49, 0
1, 2256000, Note_on_c, 1, 52, 40
1, 2256240, Note_off_c, 1, 52, 0
1, 2256240, Note_on_c, 1, 57, 40
1, 2256480, Note_off_c, 1, 57, 0
1, 2256480, Note_on_c, 1, 55, 40
1, 2257200, Note_off_c, 1, 55, 0
1, 2257200, Note_on_c, 1, 52, 40
1, 2257440, Note_off_c, 1, 52, 0
1, 2257440, Note_on_c, 1, 59, 40
1, 2257920, Note_off_c, 1, 59, 0
1, 2257920, Note_on_c, 1, 52, 40
1, 2258160, Note_off_c, 1, 52, 0
1, 2258160, Note_on_c, 1, 55, 40
1, 2258400, Note_off_c, 1, 55, 0
1, 2258400, Note_on_c, 1, 57, 40
1, 2258640, Note_off_c, 1, 57, 0
1, 2258640, Note_on_c, 1, 45, 40
1, 2259360, Note_off_c, 1, 45, 0
1, 2259360, Note_on_c, 1, 48, 40
1, 2259600, Note_off_c, 1, 48, 0
1, 2259600, Note_on_c, 1, 49, 40
1, 2259840, Note_off_c, 1, 49, 0
1, 2259840, Note_on_c, 1, 52, 40
1, 2260080, Note_off_c, 1, 52, 0
1, 2260080, Note_on_c, 1, 57, 40
1, 2260320, Note_off_c, 1, 57, 0
1, 2260320, Note_on_c, 1, 55, 40
1, 2261040, Note_off_c, 1, 55, 0
1, 2261040, Note_on_c, 1, 52, 40
1, 2261280, Note_off_c, 1, 52, 0
1, 2261280, Note_on_c, 1, 59, 40
1, 2261760, Note_off_c, 1, 59, 0
1, 2261760, Note_on_c, 1, 52, 40
1, 2262000, Note_off_c, 1, 52, 0
1, 2262000, Note_on_c, 1, 55, 40
1, 2262240, Note_off_c, 1, 55, 0
1, 2262240, Note_on_c, 1, 57, 40
1, 2262480, Note_off_c, 1, 57, 0
1, 2262480, Note_on_c, 1, 45, 40
1, 2263200, Note_off_c, 1, 45, 0
1, 2263200, Note_on_c, 1, 48, 40
1, 2263440, Note_off_c, 1, 48, 0
1, 2263440, Note_on_c, 1, 49, 40
1, 2263680, Note_off_c, 1, 49, 0
1, 2263680, Note_on_c, 1, 52, 40
1, 2263920, Note_off_c, 1, 52, 0
1, 2263920, Note_on_c, 1, 57, 40
1, 2264160, Note_off_c, 1, 57, 0
1, 2264160, Note_on_c, 1, 55, 40
1, 2264880, Note_off_c, 1, 55, 0
1, 2264880, Note_on_c, 1, 52, 40
1, 2265120, Note_off_c, 1, 52, 0
1, 2265120, Note_on_c, 1, 59, 40
1, 2265600, Note_off_c, 1, 59, 0
1, 2265600, Note_on_c, 1, 52, 40
1, 2265840, Note_off_c, 1, 52, 0
1, 2265840, Note_on_c, 1, 55, 40
1, 2266080, Note_off_c, 1, 55, 0
1, 2266080, Note_on_c, 1, 57, 40
1, 2266320, Note_off_c, 1, 57, 0
1, 2266320, Note_on_c, 1, 38, 40
1, 2267040, Note_off_c, 1, 38, 0
1, 2267040, Note_on_c, 1, 41, 40
1, 2267280, Note_off_c, 1, 41, 0
1, 2267280, Note_on_c, 1, 42, 40
1, 2267520, Note_off_c, 1, 42, 0
1, 2267520, Note_on_c, 1, 45, 40
1, 2267760, Note_off_c, 1, 45, 0
1, 2267760, Note_on_c, 1, 50, 40
1, 2268000, Note_off_c, 1, 50, 0
1, 2268000, Note_on_c, 1, 48, 40
1, 2268720, Note_off_c, 1, 48, 0
1, 2268720, Note_on_c, 1, 45, 40
1, 2268960, Note_off_c, 1, 45, 0
1, 2268960, Note_on_c, 1, 52, 40
1, 2269440, Note_off_c, 1, 52, 0
1, 2269440, Note_on_c, 1, 45, 40
1, 2269680, Note_off_c, 1, 45, 0
1, 2269680, Note_on_c, 1, 48, 40
1, 2269920, Note_off_c, 1, 48, 0
1, 2269920, Note_on_c, 1, 50, 40
1, 2270160, Note_off_c, 1, 50, 0
1, 2270160, Note_on_c, 1, 45, 40
1, 2270880, Note_off_c, 1, 45, 0
1, 2270880, Note_on_c, 1, 48, 40
1, 2271120, Note_off_c, 1, 48, 0
1, 2271120, Note_on_c, 1, 49, 40
1, 2271360, Note_off_c, 1, 49, 0
1, 2271360, Note_on_c, 1, 52, 40
1, 2271600, Note_off_c, 1, 52, 0
1, 2271600, Note_on_c, 1, 57, 40
1, 2271840, Note_off_c, 1, 57, 0
1, 2271840, Note_on_c, 1, 55, 40
1, 2272560, Note_off_c, 1, 55, 0
1, 2272560, Note_on_c, 1, 52, 40
1, 2272800, Note_off_c, 1, 52, 0
1, 2272800, Note_on_c, 1, 59, 40
1, 2273280, Note_off_c, 1, 59, 0
1, 2273280, Note_on_c, 1, 52, 40
1, 2273520, Note_off_c, 1, 52, 0
1, 2273520, Note_on_c, 1, 55, 40
1, 2273760, Note_off_c, 1, 55, 0
1, 2273760, Note_on_c, 1, 57, 40
1, 2274000, Note_off_c, 1, 57, 0
1, 2274000, Note_on_c, 1, 47, 40
1, 2274480, Note_off_c, 1, 47, 0
1, 2274480, Note_on_c, 1, 51, 40
1, 2274720, Note_off_c, 1, 51, 0
1, 2274720, Note_on_c, 1, 54, 40
1, 2274960, Note_off_c, 1, 54, 0
1, 2274960, Note_on_c, 1, 57, 40
1, 2275440, Note_off_c, 1, 57, 0
1, 2275440, Note_on_c, 1, 56, 40
1, 2275680, Note_off_c, 1, 56, 0
1, 2275680, Note_on_c, 1, 59, 40
1, 2275920, Note_off_c, 1, 59, 0
1, 2275920, Note_on_c, 1, 47, 40
1, 2276400, Note_off_c, 1, 47, 0
1, 2276400, Note_on_c, 1, 51, 40
1, 2276640, Note_off_c, 1, 51, 0
1, 2276640, Note_on_c, 1, 54, 40
1, 2276880, Note_off_c, 1, 54, 0
1, 2276880, Note_on_c, 1, 57, 40
1, 2277360, Note_off_c, 1, 57, 0
1, 2277360, Note_on_c, 1, 56, 40
1, 2277600, Note_off_c, 1, 56, 0
1, 2277600, Note_on_c, 1, 59, 40
1, 2277840, Note_off_c, 1, 59, 0
1, 2277840, Note_on_c, 1, 47, 40
1, 2278320, Note_off_c, 1, 47, 0
1, 2278320, Note_on_c, 1, 51, 40
1, 2278560, Note_off_c, 1, 51, 0
1, 2278560, Note_on_c, 1, 54, 40
1, 2278800, Note_off_c, 1, 54, 0
1, 2278800, Note_on_c, 1, 57, 40
1, 2279280, Note_off_c, 1, 57, 0
1, 2279280, Note_on_c, 1, 56, 40
1, 2279520, Note_off_c, 1, 56, 0
1, 2279520, Note_on_c, 1, 59, 40
1, 2279760, Note_off_c, 1, 59, 0
1, 2279760, Note_on_c, 1, 47, 40
1, 2280240, Note_off_c, 1, 47, 0
1, 2280240, Note_on_c, 1, 51, 40
1, 2280480, Note_off_c, 1, 51, 0
1, 2280480, Note_on_c, 1, 54, 40
1, 2280720, Note_off_c, 1, 54, 0
1, 2280720, Note_on_c, 1, 57, 40
1, 2281200, Note_off_c, 1, 57, 0
1, 2281200, Note_on_c, 1, 56, 40
1, 2281440, Note_off_c, 1, 56, 0
1, 2281440, Note_on_c, 1, 59, 40
1, 2281680, Note_off_c, 1, 59, 0
1, 2281680, Note_on_c, 1, 38, 40
1, 2282160, Note_off_c, 1, 38, 0
1, 2282160, Note_on_c, 1, 42, 40
1, 2282400, Note_off_c, 1, 42, 0
1, 2282400, Note_on_c, 1, 45, 40
1, 2282640, Note_off_c, 1, 45, 0
1, 2282640, Note_on_c, 1, 48, 40
1, 2283120, Note_off_c, 1, 48, 0
1, 2283120, Note_on_c, 1, 47, 40
1, 2283360, Note_off_c, 1, 47, 0
1, 2283360, Note_on_c, 1, 50, 40
1, 2283600, Note_off_c, 1, 50, 0
1, 2283600, Note_on_c, 1, 37, 40
1, 2284080, Note_off_c, 1, 37, 0
1, 2284080, Note_on_c, 1, 41, 40
1, 2284320, Note_off_c, 1, 41, 0
1, 2284320, Note_on_c, 1, 44, 40
1, 2284560, Note_off_c, 1, 44, 0
1, 2284560, Note_on_c, 1, 47, 40
1, 2285040, Note_off_c, 1, 47, 0
1, 2285040, Note_on_c, 1, 45, 40
1, 2285160, Note_off_c, 1, 45, 0
1, 2285160, Note_on_c, 1, 46, 40
1, 2285280, Note_off_c, 1, 46, 0
1, 2285280, Note_on_c, 1, 49, 40
1, 2285520, Note_off_c, 1, 49, 0
1, 2285520, Note_on_c, 1, 42, 40
1, 2286000, Note_off_c, 1, 42, 0
1, 2286000, Note_on_c, 1, 46, 40
1, 2286480, Note_off_c, 1, 46, 0
1, 2286480, Note_on_c, 1, 49, 40
1, 2286720, Note_off_c, 1, 49, 0
1, 2286720, Note_on_c, 1, 49, 40
1, 2286960, Note_off_c, 1, 49, 0
1, 2286960, Note_on_c, 1, 42, 40
1, 2287440, Note_off_c, 1, 42, 0
1, 2287440, Note_on_c, 1, 40, 40
1, 2287920, Note_off_c, 1, 40, 0
1, 2287920, Note_on_c, 1, 44, 40
1, 2288400, Note_off_c, 1, 44, 0
1, 2288400, Note_on_c, 1, 47, 40
1, 2288640, Note_off_c, 1, 47, 0
1, 2288640, Note_on_c, 1, 47, 40
1, 2288880, Note_off_c, 1, 47, 0
1, 2288880, Note_on_c, 1, 44, 40
1, 2289360, Note_off_c, 1, 44, 0
1, 2293200, Note_on_c, 1, 45, 40
1, 2293920, Note_off_c, 1, 45, 0
1, 2293920, Note_on_c, 1, 48, 40
1, 2294160, Note_off_c, 1, 48, 0
1, 2294160, Note_on_c, 1, 49, 40
1, 2294400, Note_off_c, 1, 49, 0
1, 2294400, Note_on_c, 1, 52, 40
1, 2294640, Note_off_c, 1, 52, 0
1, 2294640, Note_on_c, 1, 57, 40
1, 2294880, Note_off_c, 1, 57, 0
1, 2294880, Note_on_c, 1, 55, 40
1, 2295600, Note_off_c, 1, 55, 0
1, 2295600, Note_on_c, 1, 52, 40
1, 2295840, Note_off_c, 1, 52, 0
1, 2295840, Note_on_c, 1, 59, 40
1, 2296320, Note_off_c, 1, 59, 0
1, 2296320, Note_on_c, 1, 52, 40
1, 2296560, Note_off_c, 1, 52, 0
1, 2296560, Note_on_c, 1, 55, 40
1, 2296800, Note_off_c, 1, 55, 0
1, 2296800, Note_on_c, 1, 57, 40
1, 2297040, Note_off_c, 1, 57, 0
1, 2297040, Note_on_c, 1, 45, 40
1, 2297760, Note_off_c, 1, 45, 0
1, 2297760, Note_on_c, 1, 48, 40
1, 2298000, Note_off_c, 1, 48, 0
1, 2298000, Note_on_c, 1, 49, 40
1, 2298240, Note_off_c, 1, 49, 0
1, 2298240, Note_on_c, 1, 52, 40
1, 2298480, Note_off_c, 1, 52, 0
1, 2298480, Note_on_c, 1, 57, 40
1, 2298720, Note_off_c, 1, 57, 0
1, 2298720, Note_on_c, 1, 55, 40
1, 2299440, Note_off_c, 1, 55, 0
1, 2299440, Note_on_c, 1, 52, 40
1, 2299680, Note_off_c, 1, 52, 0
1, 2299680, Note_on_c, 1, 59, 40
1, 2300160, Note_off_c, 1, 59, 0
1, 2300160, Note_on_c, 1, 52, 40
1, 2300400, Note_off_c, 1, 52, 0
1, 2300400, Note_on_c, 1, 55, 40
1, 2300640, Note_off_c, 1, 55, 0
1, 2300640, Note_on_c, 1, 57, 40
1, 2300880, Note_off_c, 1, 57, 0
1, 2300880, Note_on_c, 1, 45, 40
1, 2301600, Note_off_c, 1, 45, 0
1, 2301600, Note_on_c, 1, 48, 40
1, 2301840, Note_off_c, 1, 48, 0
1, 2301840, Note_on_c, 1, 49, 40
1, 2302080, Note_off_c, 1, 49, 0
1, 2302080, Note_on_c, 1, 52, 40
1, 2302320, Note_off_c, 1, 52, 0
1, 2302320, Note_on_c, 1, 57, 40
1, 2302560, Note_off_c, 1, 57, 0
1, 2302560, Note_on_c, 1, 55, 40
1, 2303280, Note_off_c, 1, 55, 0
1, 2303280, Note_on_c, 1, 52, 40
1, 2303520, Note_off_c, 1, 52, 0
1, 2303520, Note_on_c, 1, 59, 40
1, 2304000, Note_off_c, 1, 59, 0
1, 2304000, Note_on_c, 1, 52, 40
1, 2304240, Note_off_c, 1, 52, 0
1, 2304240, Note_on_c, 1, 55, 40
1, 2304480, Note_off_c, 1, 55, 0
1, 2304480, Note_on_c, 1, 57, 40
1, 2304720, Note_off_c, 1, 57, 0
1, 2304720, Note_on_c, 1, 45, 40
1, 2305440, Note_off_c, 1, 45, 0
1, 2305440, Note_on_c, 1, 48, 40
1, 2305680, Note_off_c, 1, 48, 0
1, 2305680, Note_on_c, 1, 49, 40
1, 2305920, Note_off_c, 1, 49, 0
1, 2305920, Note_on_c, 1, 52, 40
1, 2306160, Note_off_c, 1, 52, 0
1, 2306160, Note_on_c, 1, 57, 40
1, 2306400, Note_off_c, 1, 57, 0
1, 2306400, Note_on_c, 1, 55, 40
1, 2307120, Note_off_c, 1, 55, 0
1, 2307120, Note_on_c, 1, 52, 40
1, 2307360, Note_off_c, 1, 52, 0
1, 2307360, Note_on_c, 1, 59, 40
1, 2307840, Note_off_c, 1, 59, 0
1, 2307840, Note_on_c, 1, 52, 40
1, 2308080, Note_off_c, 1, 52, 0
1, 2308080, Note_on_c, 1, 55, 40
1, 2308320, Note_off_c, 1, 55, 0
1, 2308320, Note_on_c, 1, 57, 40
1, 2308560, Note_off_c, 1, 57, 0
1, 2308560, Note_on_c, 1, 45, 40
1, 2309280, Note_off_c, 1, 45, 0
1, 2309280, Note_on_c, 1, 48, 40
1, 2309520, Note_off_c, 1, 48, 0
1, 2309520, Note_on_c, 1, 49, 40
1, 2309760, Note_off_c, 1, 49, 0
1, 2309760, Note_on_c, 1, 52, 40
1, 2310000, Note_off_c, 1, 52, 0
1, 2310000, Note_on_c, 1, 57, 40
1, 2310240, Note_off_c, 1, 57, 0
1, 2310240, Note_on_c, 1, 55, 40
1, 2310960, Note_off_c, 1, 55, 0
1, 2310960, Note_on_c, 1, 52, 40
1, 2311200, Note_off_c, 1, 52, 0
1, 2311200, Note_on_c, 1, 59, 40
1, 2311680, Note_off_c, 1, 59, 0
1, 2311680, Note_on_c, 1, 52, 40
1, 2311920, Note_off_c, 1, 52, 0
1, 2311920, Note_on_c, 1, 55, 40
1, 2312160, Note_off_c, 1, 55, 0
1, 2312160, Note_on_c, 1, 57, 40
1, 2312400, Note_off_c, 1, 57, 0
1, 2312400, Note_on_c, 1, 45, 40
1, 2313120, Note_off_c, 1, 45, 0
1, 2313120, Note_on_c, 1, 48, 40
1, 2313360, Note_off_c, 1, 48, 0
1, 2313360, Note_on_c, 1, 49, 40
1, 2313600, Note_off_c, 1, 49, 0
1, 2313600, Note_on_c, 1, 52, 40
1, 2313840, Note_off_c, 1, 52, 0
1, 2313840, Note_on_c, 1, 57, 40
1, 2314080, Note_off_c, 1, 57, 0
1, 2314080, Note_on_c, 1, 55, 40
1, 2314800, Note_off_c, 1, 55, 0
1, 2314800, Note_on_c, 1, 52, 40
1, 2315040, Note_off_c, 1, 52, 0
1, 2315040, Note_on_c, 1, 59, 40
1, 2315520, Note_off_c, 1, 59, 0
1, 2315520, Note_on_c, 1, 52, 40
1, 2315760, Note_off_c, 1, 52, 0
1, 2315760, Note_on_c, 1, 55, 40
1, 2316000, Note_off_c, 1, 55, 0
1, 2316000, Note_on_c, 1, 57, 40
1, 2316240, Note_off_c, 1, 57, 0
1, 2316240, Note_on_c, 1, 45, 40
1, 2316960, Note_off_c, 1, 45, 0
1, 2316960, Note_on_c, 1, 48, 40
1, 2317200, Note_off_c, 1, 48, 0
1, 2317200, Note_on_c, 1, 49, 40
1, 2317440, Note_off_c, 1, 49, 0
1, 2317440, Note_on_c, 1, 52, 40
1, 2317680, Note_off_c, 1, 52, 0
1, 2317680, Note_on_c, 1, 57, 40
1, 2317920, Note_off_c, 1, 57, 0
1, 2317920, Note_on_c, 1, 55, 40
1, 2318640, Note_off_c, 1, 55, 0
1, 2318640, Note_on_c, 1, 52, 40
1, 2318880, Note_off_c, 1, 52, 0
1, 2318880, Note_on_c, 1, 59, 40
1, 2319360, Note_off_c, 1, 59, 0
1, 2319360, Note_on_c, 1, 52, 40
1, 2319600, Note_off_c, 1, 52, 0
1, 2319600, Note_on_c, 1, 55, 40
1, 2319840, Note_off_c, 1, 55, 0
1, 2319840, Note_on_c, 1, 57, 40
1, 2320080, Note_off_c, 1, 57, 0
1, 2320080, Note_on_c, 1, 45, 40
1, 2320800, Note_off_c, 1, 45, 0
1, 2320800, Note_on_c, 1, 48, 40
1, 2321040, Note_off_c, 1, 48, 0
1, 2321040, Note_on_c, 1, 49, 40
1, 2321280, Note_off_c, 1, 49, 0
1, 2321280, Note_on_c, 1, 52, 40
1, 2321520, Note_off_c, 1, 52, 0
1, 2321520, Note_on_c, 1, 57, 40
1, 2321760, Note_off_c, 1, 57, 0
1, 2321760, Note_on_c, 1, 55, 40
1, 2322480, Note_off_c, 1, 55, 0
1, 2322480, Note_on_c, 1, 52, 40
1, 2322720, Note_off_c, 1, 52, 0
1, 2322720, Note_on_c, 1, 59, 40
1, 2323200, Note_off_c, 1, 59, 0
1, 2323200, Note_on_c, 1, 52, 40
1, 2323440, Note_off_c, 1, 52, 0
1, 2323440, Note_on_c, 1, 55, 40
1, 2323680, Note_off_c, 1, 55, 0
1, 2323680, Note_on_c, 1, 57, 40
1, 2323920, Note_off_c, 1, 57, 0
1, 2323920, Note_on_c, 1, 45, 40
1, 2324640, Note_off_c, 1, 45, 0
1, 2324640, Note_on_c, 1, 48, 40
1, 2324880, Note_off_c, 1, 48, 0
1, 2324880, Note_on_c, 1, 49, 40
1, 2325120, Note_off_c, 1, 49, 0
1, 2325120, Note_on_c, 1, 52, 40
1, 2325360, Note_off_c, 1, 52, 0
1, 2325360, Note_on_c, 1, 57, 40
1, 2325600, Note_off_c, 1, 57, 0
1, 2325600, Note_on_c, 1, 55, 40
1, 2326320, Note_off_c, 1, 55, 0
1, 2326320, Note_on_c, 1, 52, 40
1, 2326560, Note_off_c, 1, 52, 0
1, 2326560, Note_on_c, 1, 59, 40
1, 2327040, Note_off_c, 1, 59, 0
1, 2327040, Note_on_c, 1, 52, 40
1, 2327280, Note_off_c, 1, 52, 0
1, 2327280, Note_on_c, 1, 55, 40
1, 2327520, Note_off_c, 1, 55, 0
1, 2327520, Note_on_c, 1, 57, 40
1, 2327760, Note_off_c, 1, 57, 0
1, 2327760, Note_on_c, 1, 45, 40
1, 2328480, Note_off_c, 1, 45, 0
1, 2328480, Note_on_c, 1, 48, 40
1, 2328720, Note_off_c, 1, 48, 0
1, 2328720, Note_on_c, 1, 49, 40
1, 2328960, Note_off_c, 1, 49, 0
1, 2328960, Note_on_c, 1, 52, 40
1, 2329200, Note_off_c, 1, 52, 0
1, 2329200, Note_on_c, 1, 57, 40
1, 2329440, Note_off_c, 1, 57, 0
1, 2329440, Note_on_c, 1, 55, 40
1, 2330160, Note_off_c, 1, 55, 0
1, 2330160, Note_on_c, 1, 52, 40
1, 2330400, Note_off_c, 1, 52, 0
1, 2330400, Note_on_c, 1, 59, 40
1, 2330880, Note_off_c, 1, 59, 0
1, 2330880, Note_on_c, 1, 52, 40
1, 2331120, Note_off_c, 1, 52, 0
1, 2331120, Note_on_c, 1, 55, 40
1, 2331360, Note_off_c, 1, 55, 0
1, 2331360, Note_on_c, 1, 57, 40
1, 2331600, Note_off_c, 1, 57, 0
1, 2331600, Note_on_c, 1, 45, 40
1, 2332320, Note_off_c, 1, 45, 0
1, 2332320, Note_on_c, 1, 48, 40
1, 2332560, Note_off_c, 1, 48, 0
1, 2332560, Note_on_c, 1, 49, 40
1, 2332800, Note_off_c, 1, 49, 0
1, 2332800, Note_on_c, 1, 52, 40
1, 2333040, Note_off_c, 1, 52, 0
1, 2333040, Note_on_c, 1, 57, 40
1, 2333280, Note_off_c, 1, 57, 0
1, 2333280, Note_on_c, 1, 55, 40
1, 2334000, Note_off_c, 1, 55, 0
1, 2334000, Note_on_c, 1, 52, 40
1, 2334240, Note_off_c, 1, 52, 0
1, 2334240, Note_on_c, 1, 59, 40
1, 2334720, Note_off_c, 1, 59, 0
1, 2334720, Note_on_c, 1, 52, 40
1, 2334960, Note_off_c, 1, 52, 0
1, 2334960, Note_on_c, 1, 55, 40
1, 2335200, Note_off_c, 1, 55, 0
1, 2335200, Note_on_c, 1, 57, 40
1, 2335440, Note_off_c, 1, 57, 0
1, 2335440, Note_on_c, 1, 45, 40
1, 2336160, Note_off_c, 1, 45, 0
1, 2336160, Note_on_c, 1, 48, 40
1, 2336400, Note_off_c, 1, 48, 0
1, 2336400, Note_on_c, 1, 49, 40
1, 2336640, Note_off_c, 1, 49, 0
1, 2336640, Note_on_c, 1, 52, 40
1, 2336880, Note_off_c, 1, 52, 0
1, 2336880, Note_on_c, 1, 57, 40
1, 2337120, Note_off_c, 1, 57, 0
1, 2337120, Note_on_c, 1, 55, 40
1, 2337840, Note_off_c, 1, 55, 0
1, 2337840, Note_on_c, 1, 52, 40
1, 2338080, Note_off_c, 1, 52, 0
1, 2338080, Note_on_c, 1, 59, 40
1, 2338560, Note_off_c, 1, 59, 0
1, 2338560, Note_on_c, 1, 52, 40
1, 2338800, Note_off_c, 1, 52, 0
1, 2338800, Note_on_c, 1, 55, 40
1, 2339040, Note_off_c, 1, 55, 0
1, 2339040, Note_on_c, 1, 57, 40
1, 2339280, Note_off_c, 1, 57, 0
1, 2339280, Note_on_c, 1, 45, 40
1, 2340000, Note_off_c, 1, 45, 0
1, 2340000, Note_on_c, 1, 48, 40
1, 2340240, Note_off_c, 1, 48, 0
1, 2340240, Note_on_c, 1, 49, 40
1, 2340480, Note_off_c, 1, 49, 0
1, 2340480, Note_on_c, 1, 52, 40
1, 2340720, Note_off_c, 1, 52, 0
1, 2340720, Note_on_c, 1, 57, 40
1, 2340960, Note_off_c, 1, 57, 0
1, 2340960, Note_on_c, 1, 55, 40
1, 2341680, Note_off_c, 1, 55, 0
1, 2341680, Note_on_c, 1, 52, 40
1, 2341920, Note_off_c, 1, 52, 0
1, 2341920, Note_on_c, 1, 59, 40
1, 2342400, Note_off_c, 1, 59, 0
1, 2342400, Note_on_c, 1, 52, 40
1, 2342640, Note_off_c, 1, 52, 0
1, 2342640, Note_on_c, 1, 55, 40
1, 2342880, Note_off_c, 1, 55, 0
1, 2342880, Note_on_c, 1, 57, 40
1, 2343120, Note_off_c, 1, 57, 0
1, 2343120, Note_on_c, 1, 45, 40
1, 2343840, Note_off_c, 1, 45, 0
1, 2343840, Note_on_c, 1, 48, 40
1, 2344080, Note_off_c, 1, 48, 0
1, 2344080, Note_on_c, 1, 49, 40
1, 2344320, Note_off_c, 1, 49, 0
1, 2344320, Note_on_c, 1, 52, 40
1, 2344560, Note_off_c, 1, 52, 0
1, 2344560, Note_on_c, 1, 57, 40
1, 2344800, Note_off_c, 1, 57, 0
1, 2344800, Note_on_c, 1, 55, 40
1, 2345520, Note_off_c, 1, 55, 0
1, 2345520, Note_on_c, 1, 52, 40
1, 2345760, Note_off_c, 1, 52, 0
1, 2345760, Note_on_c, 1, 59, 40
1, 2346240, Note_off_c, 1, 59, 0
1, 2346240, Note_on_c, 1, 52, 40
1, 2346480, Note_off_c, 1, 52, 0
1, 2346480, Note_on_c, 1, 55, 40
1, 2346720, Note_off_c, 1, 55, 0
1, 2346720, Note_on_c, 1, 57, 40
1, 2346960, Note_off_c, 1, 57, 0
1, 2346960, Note_on_c, 1, 45, 40
1, 2347680, Note_off_c, 1, 45, 0
1, 2347680, Note_on_c, 1, 48, 40
1, 2347920, Note_off_c, 1, 48, 0
1, 2347920, Note_on_c, 1, 49, 40
1, 2348160, Note_off_c, 1, 49, 0
1, 2348160, Note_on_c, 1, 52, 40
1, 2348400, Note_off_c, 1, 52, 0
1, 2348400, Note_on_c, 1, 57, 40
1, 2348640, Note_off_c, 1, 57, 0
1, 2348640, Note_on_c, 1, 55, 40
1, 2349360, Note_off_c, 1, 55, 0
1, 2349360, Note_on_c, 1, 52, 40
1, 2349600, Note_off_c, 1, 52, 0
1, 2349600, Note_on_c, 1, 59, 40
1, 2350080, Note_off_c, 1, 59, 0
1, 2350080, Note_on_c, 1, 52, 40
1, 2350320, Note_off_c, 1, 52, 0
1, 2350320, Note_on_c, 1, 55, 40
1, 2350560, Note_off_c, 1, 55, 0
1, 2350560, Note_on_c, 1, 57, 40
1, 2350800, Note_off_c, 1, 57, 0
1, 2363280, Note_on_c, 1, 44, 40
1, 2365200, Note_off_c, 1, 44, 0
1, 2365200, Note_on_c, 1, 44, 40
1, 2366160, Note_off_c, 1, 44, 0
1, 2366160, Note_on_c, 1, 37, 40
1, 2366880, Note_off_c, 1, 37, 0
1, 2366880, Note_on_c, 1, 37, 40
1, 2367120, Note_off_c, 1, 37, 0
1, 2367120, Note_on_c, 1, 41, 40
1, 2367600, Note_off_c, 1, 41, 0
1, 2367600, Note_on_c, 1, 40, 40
1, 2368080, Note_off_c, 1, 40, 0
1, 2368080, Note_on_c, 1, 39, 40
1, 2368800, Note_off_c, 1, 39, 0
1, 2368800, Note_on_c, 1, 39, 40
1, 2369040, Note_off_c, 1, 39, 0
1, 2369040, Note_on_c, 1, 44, 40
1, 2369280, Note_off_c, 1, 44, 0
1, 2369280, Note_on_c, 1, 42, 40
1, 2369520, Note_off_c, 1, 42, 0
1, 2369520, Note_on_c, 1, 41, 40
1, 2369760, Note_off_c, 1, 41, 0
1, 2369760, Note_on_c, 1, 39, 40
1, 2370000, Note_off_c, 1, 39, 0
1, 2370000, Note_on_c, 1, 37, 40
1, 2370720, Note_off_c, 1, 37, 0
1, 2370720, Note_on_c, 1, 37, 40
1, 2370960, Note_off_c, 1, 37, 0
1, 2370960, Note_on_c, 1, 41, 40
1, 2371440, Note_off_c, 1, 41, 0
1, 2371440, Note_on_c, 1, 40, 40
1, 2371920, Note_off_c, 1, 40, 0
1, 2371920, Note_on_c, 1, 39, 40
1, 2372640, Note_off_c, 1, 39, 0
1, 2372640, Note_on_c, 1, 39, 40
1, 2372880, Note_off_c, 1, 39, 0
1, 2372880, Note_on_c, 1, 44, 40
1, 2373120, Note_off_c, 1, 44, 0
1, 2373120, Note_on_c, 1, 42, 40
1, 2373360, Note_off_c, 1, 42, 0
1, 2373360, Note_on_c, 1, 41, 40
1, 2373600, Note_off_c, 1, 41, 0
1, 2373600, Note_on_c, 1, 39, 40
1, 2373840, Note_off_c, 1, 39, 0
1, 2373840, Note_on_c, 1, 37, 40
1, 2374560, Note_off_c, 1, 37, 0
1, 2374560, Note_on_c, 1, 37, 40
1, 2374800, Note_off_c, 1, 37, 0
1, 2374800, Note_on_c, 1, 41, 40
1, 2375280, Note_off_c, 1, 41, 0
1, 2375280, Note_on_c, 1, 40, 40
1, 2375760, Note_off_c, 1, 40, 0
1, 2375760, Note_on_c, 1, 39, 40
1, 2376480, Note_off_c, 1, 39, 0
1, 2376480, Note_on_c, 1, 39, 40
1, 2376720, Note_off_c, 1, 39, 0
1, 2376720, Note_on_c, 1, 45, 40
1, 2377680, Note_off_c, 1, 45, 0
1, 2377680, Note_on_c, 1, 37, 40
1, 2378160, Note_off_c, 1, 37, 0
1, 2378160, Note_on_c, 1, 41, 40
1, 2378400, Note_off_c, 1, 41, 0
1, 2378400, Note_on_c, 1, 42, 40
1, 2378640, Note_off_c, 1, 42, 0
1, 2378640, Note_on_c, 1, 41, 40
1, 2379120, Note_off_c, 1, 41, 0
1, 2379120, Note_on_c, 1, 40, 40
1, 2379600, Note_off_c, 1, 40, 0
1, 2379600, Note_on_c, 1, 39, 40
1, 2380080, Note_off_c, 1, 39, 0
1, 2380080, Note_on_c, 1, 39, 40
1, 2380560, Note_off_c, 1, 39, 0
1, 2380560, Note_on_c, 1, 44, 40
1, 2380800, Note_off_c, 1, 44, 0
1, 2380800, Note_on_c, 1, 42, 40
1, 2381040, Note_off_c, 1, 42, 0
1, 2381040, Note_on_c, 1, 41, 40
1, 2381280, Note_off_c, 1, 41, 0
1, 2381280, Note_on_c, 1, 39, 40
1, 2381520, Note_off_c, 1, 39, 0
1, 2381520, Note_on_c, 1, 37, 40
1, 2382000, Note_off_c, 1, 37, 0
1, 2382000, Note_on_c, 1, 37, 40
1, 2382480, Note_off_c, 1, 37, 0
1, 2382480, Note_on_c, 1, 41, 40
1, 2382960, Note_off_c, 1, 41, 0
1, 2382960, Note_on_c, 1, 40, 40
1, 2383440, Note_off_c, 1, 40, 0
1, 2383440, Note_on_c, 1, 39, 40
1, 2383920, Note_off_c, 1, 39, 0
1, 2383920, Note_on_c, 1, 39, 40
1, 2384400, Note_off_c, 1, 39, 0
1, 2384400, Note_on_c, 1, 44, 40
1, 2384640, Note_off_c, 1, 44, 0
1, 2384640, Note_on_c, 1, 42, 40
1, 2384880, Note_off_c, 1, 42, 0
1, 2384880, Note_on_c, 1, 41, 40
1, 2385120, Note_off_c, 1, 41, 0
1, 2385120, Note_on_c, 1, 39, 40
1, 2385360, Note_off_c, 1, 39, 0
1, 2385360, Note_on_c, 1, 42, 40
1, 2386080, Note_off_c, 1, 42, 0
1, 2386080, Note_on_c, 1, 42, 40
1, 2386800, Note_off_c, 1, 42, 0
1, 2386800, Note_on_c, 1, 42, 40
1, 2387280, Note_off_c, 1, 42, 0
1, 2387280, Note_on_c, 1, 44, 40
1, 2388000, Note_off_c, 1, 44, 0
1, 2388000, Note_on_c, 1, 44, 40
1, 2388720, Note_off_c, 1, 44, 0
1, 2388720, Note_on_c, 1, 44, 40
1, 2389200, Note_off_c, 1, 44, 0
1, 2389200, Note_on_c, 1, 46, 40
1, 2389440, Note_off_c, 1, 46, 0
1, 2389440, Note_on_c, 1, 34, 40
1, 2389680, Note_off_c, 1, 34, 0
1, 2389680, Note_on_c, 1, 34, 40
1, 2389920, Note_off_c, 1, 34, 0
1, 2389920, Note_on_c, 1, 34, 40
1, 2390160, Note_off_c, 1, 34, 0
1, 2390160, Note_on_c, 1, 34, 40
1, 2390400, Note_off_c, 1, 34, 0
1, 2390400, Note_on_c, 1, 34, 40
1, 2390640, Note_off_c, 1, 34, 0
1, 2390640, Note_on_c, 1, 34, 40
1, 2390880, Note_off_c, 1, 34, 0
1, 2390880, Note_on_c, 1, 34, 40
1, 2391120, Note_off_c, 1, 34, 0
1, 2391120, Note_on_c, 1, 39, 40
1, 2391600, Note_off_c, 1, 39, 0
1, 2391600, Note_on_c, 1, 46, 40
1, 2391840, Note_off_c, 1, 46, 0
1, 2391840, Note_on_c, 1, 45, 40
1, 2392080, Note_off_c, 1, 45, 0
1, 2392080, Note_on_c, 1, 44, 40
1, 2392320, Note_off_c, 1, 44, 0
1, 2392320, Note_on_c, 1, 42, 40
1, 2392560, Note_off_c, 1, 42, 0
1, 2392560, Note_on_c, 1, 41, 40
1, 2392800, Note_off_c, 1, 41, 0
1, 2392800, Note_on_c, 1, 39, 40
1, 2393040, Note_off_c, 1, 39, 0
1, 2393040, Note_on_c, 1, 37, 40
1, 2393760, Note_off_c, 1, 37, 0
1, 2393760, Note_on_c, 1, 37, 40
1, 2394000, Note_off_c, 1, 37, 0
1, 2394000, Note_on_c, 1, 41, 40
1, 2394480, Note_off_c, 1, 41, 0
1, 2394480, Note_on_c, 1, 40, 40
1, 2394960, Note_off_c, 1, 40, 0
1, 2394960, Note_on_c, 1, 39, 40
1, 2395680, Note_off_c, 1, 39, 0
1, 2395680, Note_on_c, 1, 39, 40
1, 2395920, Note_off_c, 1, 39, 0
1, 2395920, Note_on_c, 1, 44, 40
1, 2396160, Note_off_c, 1, 44, 0
1, 2396160, Note_on_c, 1, 42, 40
1, 2396400, Note_off_c, 1, 42, 0
1, 2396400, Note_on_c, 1, 41, 40
1, 2396640, Note_off_c, 1, 41, 0
1, 2396640, Note_on_c, 1, 39, 40
1, 2396880, Note_off_c, 1, 39, 0
1, 2396880, Note_on_c, 1, 37, 40
1, 2397600, Note_off_c, 1, 37, 0
1, 2397600, Note_on_c, 1, 37, 40
1, 2397840, Note_off_c, 1, 37, 0
1, 2397840, Note_on_c, 1, 41, 40
1, 2398320, Note_off_c, 1, 41, 0
1, 2398320, Note_on_c, 1, 40, 40
1, 2398800, Note_off_c, 1, 40, 0
1, 2398800, Note_on_c, 1, 39, 40
1, 2399520, Note_off_c, 1, 39, 0
1, 2399520, Note_on_c, 1, 39, 40
1, 2399760, Note_off_c, 1, 39, 0
1, 2399760, Note_on_c, 1, 44, 40
1, 2400000, Note_off_c, 1, 44, 0
1, 2400000, Note_on_c, 1, 42, 40
1, 2400240, Note_off_c, 1, 42, 0
1, 2400240, Note_on_c, 1, 41, 40
1, 2400480, Note_off_c, 1, 41, 0
1, 2400480, Note_on_c, 1, 39, 40
1, 2400720, Note_off_c, 1, 39, 0
1, 2400720, Note_on_c, 1, 37, 40
1, 2401440, Note_off_c, 1, 37, 0
1, 2401440, Note_on_c, 1, 37, 40
1, 2401680, Note_off_c, 1, 37, 0
1, 2401680, Note_on_c, 1, 41, 40
1, 2402160, Note_off_c, 1, 41, 0
1, 2402160, Note_on_c, 1, 40, 40
1, 2402640, Note_off_c, 1, 40, 0
1, 2402640, Note_on_c, 1, 39, 40
1, 2403360, Note_off_c, 1, 39, 0
1, 2403360, Note_on_c, 1, 39, 40
1, 2403600, Note_off_c, 1, 39, 0
1, 2403600, Note_on_c, 1, 45, 40
1, 2404560, Note_off_c, 1, 45, 0
1, 2404560, Note_on_c, 1, 37, 40
1, 2405040, Note_off_c, 1, 37, 0
1, 2405040, Note_on_c, 1, 41, 40
1, 2405280, Note_off_c, 1, 41, 0
1, 2405280, Note_on_c, 1, 42, 40
1, 2405520, Note_off_c, 1, 42, 0
1, 2405520, Note_on_c, 1, 41, 40
1, 2406000, Note_off_c, 1, 41, 0
1, 2406000, Note_on_c, 1, 40, 40
1, 2406480, Note_off_c, 1, 40, 0
1, 2406480, Note_on_c, 1, 39, 40
1, 2406960, Note_off_c, 1, 39, 0
1, 2406960, Note_on_c, 1, 39, 40
1, 2407440, Note_off_c, 1, 39, 0
1, 2407440, Note_on_c, 1, 44, 40
1, 2407680, Note_off_c, 1, 44, 0
1, 2407680, Note_on_c, 1, 42, 40
1, 2407920, Note_off_c, 1, 42, 0
1, 2407920, Note_on_c, 1, 41, 40
1, 2408160, Note_off_c, 1, 41, 0
1, 2408160, Note_on_c, 1, 39, 40
1, 2408400, Note_off_c, 1, 39, 0
1, 2408400, Note_on_c, 1, 37, 40
1, 2408880, Note_off_c, 1, 37, 0
1, 2408880, Note_on_c, 1, 37, 40
1, 2409360, Note_off_c, 1, 37, 0
1, 2409360, Note_on_c, 1, 41, 40
1, 2409840, Note_off_c, 1, 41, 0
1, 2409840, Note_on_c, 1, 40, 40
1, 2410320, Note_off_c, 1, 40, 0
1, 2410320, Note_on_c, 1, 39, 40
1, 2410800, Note_off_c, 1, 39, 0
1, 2410800, Note_on_c, 1, 39, 40
1, 2411280, Note_off_c, 1, 39, 0
1, 2411280, Note_on_c, 1, 44, 40
1, 2411520, Note_off_c, 1, 44, 0
1, 2411520, Note_on_c, 1, 42, 40
1, 2411760, Note_off_c, 1, 42, 0
1, 2411760, Note_on_c, 1, 41, 40
1, 2412000, Note_off_c, 1, 41, 0
1, 2412000, Note_on_c, 1, 39, 40
1, 2412240, Note_off_c, 1, 39, 0
1, 2412240, Note_on_c, 1, 42, 40
1, 2412960, Note_off_c, 1, 42, 0
1, 2412960, Note_on_c, 1, 42, 40
1, 2413680, Note_off_c, 1, 42, 0
1, 2413680, Note_on_c, 1, 42, 40
1, 2414160, Note_off_c, 1, 42, 0
1, 2414160, Note_on_c, 1, 44, 40
1, 2414880, Note_off_c, 1, 44, 0
1, 2414880, Note_on_c, 1, 44, 40
1, 2415600, Note_off_c, 1, 44, 0
1, 2415600, Note_on_c, 1, 44, 40
1, 2416080, Note_off_c, 1, 44, 0
1, 2416080, Note_on_c, 1, 46, 40
1, 2416320, Note_off_c, 1, 46, 0
1, 2416320, Note_on_c, 1, 34, 40
1, 2416560, Note_off_c, 1, 34, 0
1, 2416560, Note_on_c, 1, 34, 40
1, 2416800, Note_off_c, 1, 34, 0
1, 2416800, Note_on_c, 1, 34, 40
1, 2417040, Note_off_c, 1, 34, 0
1, 2417040, Note_on_c, 1, 34, 40
1, 2417280, Note_off_c, 1, 34, 0
1, 2417280, Note_on_c, 1, 34, 40
1, 2417520, Note_off_c, 1, 34, 0
1, 2417520, Note_on_c, 1, 34, 40
1, 2417760, Note_off_c, 1, 34, 0
1, 2417760, Note_on_c, 1, 34, 40
1, 2418000, Note_off_c, 1, 34, 0
1, 2418000, Note_on_c, 1, 39, 40
1, 2418480, Note_off_c, 1, 39, 0
1, 2418480, Note_on_c, 1, 46, 40
1, 2418720, Note_off_c, 1, 46, 0
1, 2418720, Note_on_c, 1, 45, 40
1, 2418960, Note_off_c, 1, 45, 0
1, 2418960, Note_on_c, 1, 44, 40
1, 2419200, Note_off_c, 1, 44, 0
1, 2419200, Note_on_c, 1, 42, 40
1, 2419440, Note_off_c, 1, 42, 0
1, 2419440, Note_on_c, 1, 41, 40
1, 2419680, Note_off_c, 1, 41, 0
1, 2419680, Note_on_c, 1, 39, 40
1, 2419920, Note_off_c, 1, 39, 0
1, 2419920, Note_on_c, 1, 42, 40
1, 2420640, Note_off_c, 1, 42, 0
1, 2420640, Note_on_c, 1, 42, 40
1, 2420880, Note_off_c, 1, 42, 0
1, 2420880, Note_on_c, 1, 39, 40
1, 2421360, Note_off_c, 1, 39, 0
1, 2421360, Note_on_c, 1, 39, 40
1, 2421840, Note_off_c, 1, 39, 0
1, 2421840, Note_on_c, 1, 46, 40
1, 2422560, Note_off_c, 1, 46, 0
1, 2422560, Note_on_c, 1, 47, 40
1, 2422800, Note_off_c, 1, 47, 0
1, 2422800, Note_on_c, 1, 44, 40
1, 2423760, Note_off_c, 1, 44, 0
1, 2423760, Note_on_c, 1, 42, 40
1, 2424240, Note_off_c, 1, 42, 0
1, 2424240, Note_on_c, 1, 42, 40
1, 2424720, Note_off_c, 1, 42, 0
1, 2424720, Note_on_c, 1, 39, 40
1, 2425200, Note_off_c, 1, 39, 0
1, 2425200, Note_on_c, 1, 39, 40
1, 2425680, Note_off_c, 1, 39, 0
1, 2425680, Note_on_c, 1, 46, 40
1, 2426400, Note_off_c, 1, 46, 0
1, 2426400, Note_on_c, 1, 47, 40
1, 2426640, Note_off_c, 1, 47, 0
1, 2426640, Note_on_c, 1, 44, 40
1, 2427360, Note_off_c, 1, 44, 0
1, 2427360, Note_on_c, 1, 44, 40
1, 2427600, Note_off_c, 1, 44, 0
1, 2427600, Note_on_c, 1, 39, 40
1, 2428320, Note_off_c, 1, 39, 0
1, 2428320, Note_on_c, 1, 39, 40
1, 2428560, Note_off_c, 1, 39, 0
1, 2428560, Note_on_c, 1, 39, 40
1, 2429280, Note_off_c, 1, 39, 0
1, 2429280, Note_on_c, 1, 39, 40
1, 2429520, Note_off_c, 1, 39, 0
1, 2429520, Note_on_c, 1, 44, 40
1, 2429760, Note_off_c, 1, 44, 0
1, 2429760, Note_on_c, 1, 44, 40
1, 2430000, Note_off_c, 1, 44, 0
1, 2430000, Note_on_c, 1, 42, 40
1, 2430240, Note_off_c, 1, 42, 0
1, 2430240, Note_on_c, 1, 42, 40
1, 2430480, Note_off_c, 1, 42, 0
1, 2430480, Note_on_c, 1, 41, 40
1, 2430720, Note_off_c, 1, 41, 0
1, 2430720, Note_on_c, 1, 41, 40
1, 2430960, Note_off_c, 1, 41, 0
1, 2430960, Note_on_c, 1, 39, 40
1, 2431200, Note_off_c, 1, 39, 0
1, 2431200, Note_on_c, 1, 32, 40
1, 2431440, Note_off_c, 1, 32, 0
1, 2431440, Note_on_c, 1, 37, 40
1, 2432160, Note_off_c, 1, 37, 0
1, 2432160, Note_on_c, 1, 37, 40
1, 2432400, Note_off_c, 1, 37, 0
1, 2432400, Note_on_c, 1, 41, 40
1, 2432880, Note_off_c, 1, 41, 0
1, 2432880, Note_on_c, 1, 40, 40
1, 2433360, Note_off_c, 1, 40, 0
1, 2433360, Note_on_c, 1, 39, 40
1, 2434080, Note_off_c, 1, 39, 0
1, 2434080, Note_on_c, 1, 39, 40
1, 2434320, Note_off_c, 1, 39, 0
1, 2434320, Note_on_c, 1, 44, 40
1, 2434560, Note_off_c, 1, 44, 0
1, 2434560, Note_on_c, 1, 42, 40
1, 2434800, Note_off_c, 1, 42, 0
1, 2434800, Note_on_c, 1, 41, 40
1, 2435040, Note_off_c, 1, 41, 0
1, 2435040, Note_on_c, 1, 39, 40
1, 2435280, Note_off_c, 1, 39, 0
1, 2435280, Note_on_c, 1, 37, 40
1, 2436000, Note_off_c, 1, 37, 0
1, 2436000, Note_on_c, 1, 37, 40
1, 2436240, Note_off_c, 1, 37, 0
1, 2436240, Note_on_c, 1, 41, 40
1, 2436720, Note_off_c, 1, 41, 0
1, 2436720, Note_on_c, 1, 40, 40
1, 2437200, Note_off_c, 1, 40, 0
1, 2437200, Note_on_c, 1, 39, 40
1, 2437920, Note_off_c, 1, 39, 0
1, 2437920, Note_on_c, 1, 39, 40
1, 2438160, Note_off_c, 1, 39, 0
1, 2438160, Note_on_c, 1, 44, 40
1, 2438400, Note_off_c, 1, 44, 0
1, 2438400, Note_on_c, 1, 42, 40
1, 2438640, Note_off_c, 1, 42, 0
1, 2438640, Note_on_c, 1, 41, 40
1, 2438880, Note_off_c, 1, 41, 0
1, 2438880, Note_on_c, 1, 39, 40
1, 2439120, Note_off_c, 1, 39, 0
1, 2439120, Note_on_c, 1, 37, 40
1, 2439840, Note_off_c, 1, 37, 0
1, 2439840, Note_on_c, 1, 37, 40
1, 2440080, Note_off_c, 1, 37, 0
1, 2440080, Note_on_c, 1, 41, 40
1, 2440560, Note_off_c, 1, 41, 0
1, 2440560, Note_on_c, 1, 40, 40
1, 2441040, Note_off_c, 1, 40, 0
1, 2441040, Note_on_c, 1, 39, 40
1, 2441760, Note_off_c, 1, 39, 0
1, 2441760, Note_on_c, 1, 39, 40
1, 2442000, Note_off_c, 1, 39, 0
1, 2442000, Note_on_c, 1, 45, 40
1, 2442960, Note_off_c, 1, 45, 0
1, 2442960, Note_on_c, 1, 37, 40
1, 2443440, Note_off_c, 1, 37, 0
1, 2443440, Note_on_c, 1, 41, 40
1, 2443680, Note_off_c, 1, 41, 0
1, 2443680, Note_on_c, 1, 42, 40
1, 2443920, Note_off_c, 1, 42, 0
1, 2443920, Note_on_c, 1, 41, 40
1, 2444400, Note_off_c, 1, 41, 0
1, 2444400, Note_on_c, 1, 40, 40
1, 2444880, Note_off_c, 1, 40, 0
1, 2444880, Note_on_c, 1, 39, 40
1, 2445360, Note_off_c, 1, 39, 0
1, 2445360, Note_on_c, 1, 39, 40
1, 2445840, Note_off_c, 1, 39, 0
1, 2445840, Note_on_c, 1, 44, 40
1, 2446080, Note_off_c, 1, 44, 0
1, 2446080, Note_on_c, 1, 42, 40
1, 2446320, Note_off_c, 1, 42, 0
1, 2446320, Note_on_c, 1, 41, 40
1, 2446560, Note_off_c, 1, 41, 0
1, 2446560, Note_on_c, 1, 39, 40
1, 2446800, Note_off_c, 1, 39, 0
1, 2446800, Note_on_c, 1, 37, 40
1, 2447280, Note_off_c, 1, 37, 0
1, 2447280, Note_on_c, 1, 37, 40
1, 2447760, Note_off_c, 1, 37, 0
1, 2447760, Note_on_c, 1, 41, 40
1, 2448240, Note_off_c, 1, 41, 0
1, 2448240, Note_on_c, 1, 40, 40
1, 2448720, Note_off_c, 1, 40, 0
1, 2448720, Note_on_c, 1, 39, 40
1, 2449200, Note_off_c, 1, 39, 0
1, 2449200, Note_on_c, 1, 39, 40
1, 2449680, Note_off_c, 1, 39, 0
1, 2449680, Note_on_c, 1, 44, 40
1, 2449920, Note_off_c, 1, 44, 0
1, 2449920, Note_on_c, 1, 42, 40
1, 2450160, Note_off_c, 1, 42, 0
1, 2450160, Note_on_c, 1, 41, 40
1, 2450400, Note_off_c, 1, 41, 0
1, 2450400, Note_on_c, 1, 39, 40
1, 2450640, Note_off_c, 1, 39, 0
1, 2450640, Note_on_c, 1, 42, 40
1, 2451360, Note_off_c, 1, 42, 0
1, 2451360, Note_on_c, 1, 42, 40
1, 2452080, Note_off_c, 1, 42, 0
1, 2452080, Note_on_c, 1, 42, 40
1, 2452560, Note_off_c, 1, 42, 0
1, 2452560, Note_on_c, 1, 44, 40
1, 2453280, Note_off_c, 1, 44, 0
1, 2453280, Note_on_c, 1, 44, 40
1, 2454000, Note_off_c, 1, 44, 0
1, 2454000, Note_on_c, 1, 44, 40
1, 2454480, Note_off_c, 1, 44, 0
1, 2454480, Note_on_c, 1, 46, 40
1, 2454720, Note_off_c, 1, 46, 0
1, 2454720, Note_on_c, 1, 34, 40
1, 2454960, Note_off_c, 1, 34, 0
1, 2454960, Note_on_c, 1, 34, 40
1, 2455200, Note_off_c, 1, 34, 0
1, 2455200, Note_on_c, 1, 34, 40
1, 2455440, Note_off_c, 1, 34, 0
1, 2455440, Note_on_c, 1, 34, 40
1, 2455680, Note_off_c, 1, 34, 0
1, 2455680, Note_on_c, 1, 34, 40
1, 2455920, Note_off_c, 1, 34, 0
1, 2455920, Note_on_c, 1, 34, 40
1, 2456160, Note_off_c, 1, 34, 0
1, 2456160, Note_on_c, 1, 34, 40
1, 2456400, Note_off_c, 1, 34, 0
1, 2456400, Note_on_c, 1, 39, 40
1, 2456880, Note_off_c, 1, 39, 0
1, 2456880, Note_on_c, 1, 46, 40
1, 2457120, Note_off_c, 1, 46, 0
1, 2457120, Note_on_c, 1, 45, 40
1, 2457360, Note_off_c, 1, 45, 0
1, 2457360, Note_on_c, 1, 44, 40
1, 2457600, Note_off_c, 1, 44, 0
1, 2457600, Note_on_c, 1, 42, 40
1, 2457840, Note_off_c, 1, 42, 0
1, 2457840, Note_on_c, 1, 41, 40
1, 2458080, Note_off_c, 1, 41, 0
1, 2458080, Note_on_c, 1, 39, 40
1, 2458320, Note_off_c, 1, 39, 0
1, 2460240, Note_on_c, 1, 44, 40
1, 2460720, Note_off_c, 1, 44, 0
1, 2460720, Note_on_c, 1, 42, 40
1, 2461200, Note_off_c, 1, 42, 0
1, 2461200, Note_on_c, 1, 39, 40
1, 2461680, Note_off_c, 1, 39, 0
1, 2461680, Note_on_c, 1, 44, 40
1, 2462160, Note_off_c, 1, 44, 0
1, 2464080, Note_on_c, 1, 44, 40
1, 2464560, Note_off_c, 1, 44, 0
1, 2464560, Note_on_c, 1, 42, 40
1, 2465040, Note_off_c, 1, 42, 0
1, 2465040, Note_on_c, 1, 39, 40
1, 2465520, Note_off_c, 1, 39, 0
1, 2465520, Note_on_c, 1, 44, 40
1, 2466000, Note_off_c, 1, 44, 0
1, 2467920, Note_on_c, 1, 44, 40
1, 2468400, Note_off_c, 1, 44, 0
1, 2468400, Note_on_c, 1, 42, 40
1, 2468880, Note_off_c, 1, 42, 0
1, 2468880, Note_on_c, 1, 39, 40
1, 2469360, Note_off_c, 1, 39, 0
1, 2469360, Note_on_c, 1, 44, 40
1, 2469840, Note_off_c, 1, 44, 0
1, 2471760, Note_on_c, 1, 44, 40
1, 2472240, Note_off_c, 1, 44, 0
1, 2472240, Note_on_c, 1, 42, 40
1, 2472720, Note_off_c, 1, 42, 0
1, 2472720, Note_on_c, 1, 39, 40
1, 2473200, Note_off_c, 1, 39, 0
1, 2473200, Note_on_c, 1, 44, 40
1, 2473680, Note_off_c, 1, 44, 0
1, 2475600, Note_on_c, 1, 44, 40
1, 2476080, Note_off_c, 1, 44, 0
1, 2476080, Note_on_c, 1, 42, 40
1, 2476560, Note_off_c, 1, 42, 0
1, 2476560, Note_on_c, 1, 39, 40
1, 2477040, Note_off_c, 1, 39, 0
1, 2477040, Note_on_c, 1, 44, 40
1, 2477520, Note_off_c, 1, 44, 0
1, 2479440, Note_on_c, 1, 44, 40
1, 2479920, Note_off_c, 1, 44, 0
1, 2479920, Note_on_c, 1, 42, 40
1, 2480400, Note_off_c, 1, 42, 0
1, 2480400, Note_on_c, 1, 39, 40
1, 2480880, Note_off_c, 1, 39, 0
1, 2480880, Note_on_c, 1, 44, 40
1, 2481360, Note_off_c, 1, 44, 0
1, 2483280, Note_on_c, 1, 44, 40
1, 2483760, Note_off_c, 1, 44, 0
1, 2483760, Note_on_c, 1, 42, 40
1, 2484240, Note_off_c, 1, 42, 0
1, 2484240, Note_on_c, 1, 39, 40
1, 2484720, Note_off_c, 1, 39, 0
1, 2484720, Note_on_c, 1, 44, 40
1, 2485200, Note_off_c, 1, 44, 0
1, 2487120, Note_on_c, 1, 44, 40
1, 2487600, Note_off_c, 1, 44, 0
1, 2487600, Note_on_c, 1, 42, 40
1, 2488080, Note_off_c, 1, 42, 0
1, 2488080, Note_on_c, 1, 39, 40
1, 2488560, Note_off_c, 1, 39, 0
1, 2488560, Note_on_c, 1, 44, 40
1, 2489040, Note_off_c, 1, 44, 0
1, 2492880, Note_on_c, 1, 45, 40
1, 2493600, Note_off_c, 1, 45, 0
1, 2493600, Note_on_c, 1, 45, 40
1, 2493840, Note_off_c, 1, 45, 0
1, 2493840, Note_on_c, 1, 40, 40
1, 2494320, Note_off_c, 1, 40, 0
1, 2494320, Note_on_c, 1, 43, 40
1, 2494800, Note_off_c, 1, 43, 0
1, 2494800, Note_on_c, 1, 45, 40
1, 2495520, Note_off_c, 1, 45, 0
1, 2495520, Note_on_c, 1, 45, 40
1, 2495760, Note_off_c, 1, 45, 0
1, 2495760, Note_on_c, 1, 40, 40
1, 2496240, Note_off_c, 1, 40, 0
1, 2496240, Note_on_c, 1, 43, 40
1, 2496720, Note_off_c, 1, 43, 0
1, 2496720, Note_on_c, 1, 45, 40
1, 2497440, Note_off_c, 1, 45, 0
1, 2497440, Note_on_c, 1, 45, 40
1, 2497680, Note_off_c, 1, 45, 0
1, 2497680, Note_on_c, 1, 40, 40
1, 2498400, Note_off_c, 1, 40, 0
1, 2498400, Note_on_c, 1, 40, 40
1, 2498640, Note_off_c, 1, 40, 0
1, 2498640, Note_on_c, 1, 45, 40
1, 2499360, Note_off_c, 1, 45, 0
1, 2499360, Note_on_c, 1, 45, 40
1, 2499600, Note_off_c, 1, 45, 0
1, 2499600, Note_on_c, 1, 40, 40
1, 2500080, Note_off_c, 1, 40, 0
1, 2500080, Note_on_c, 1, 43, 40
1, 2500560, Note_off_c, 1, 43, 0
1, 2500560, Note_on_c, 1, 45, 40
1, 2501280, Note_off_c, 1, 45, 0
1, 2501280, Note_on_c, 1, 45, 40
1, 2501520, Note_off_c, 1, 45, 0
1, 2501520, Note_on_c, 1, 40, 40
1, 2502240, Note_off_c, 1, 40, 0
1, 2502240, Note_on_c, 1, 40, 40
1, 2502480, Note_off_c, 1, 40, 0
1, 2502480, Note_on_c, 1, 45, 40
1, 2503200, Note_off_c, 1, 45, 0
1, 2503200, Note_on_c, 1, 45, 40
1, 2503440, Note_off_c, 1, 45, 0
1, 2503440, Note_on_c, 1, 40, 40
1, 2503920, Note_off_c, 1, 40, 0
1, 2503920, Note_on_c, 1, 40, 40
1, 2504400, Note_off_c, 1, 40, 0
1, 2504400, Note_on_c, 1, 45, 40
1, 2505120, Note_off_c, 1, 45, 0
1, 2505120, Note_on_c, 1, 45, 40
1, 2505360, Note_off_c, 1, 45, 0
1, 2505360, Note_on_c, 1, 40, 40
1, 2506080, Note_off_c, 1, 40, 0
1, 2506080, Note_on_c, 1, 40, 40
1, 2506320, Note_off_c, 1, 40, 0
1, 2506320, Note_on_c, 1, 45, 40
1, 2507040, Note_off_c, 1, 45, 0
1, 2507040, Note_on_c, 1, 45, 40
1, 2507280, Note_off_c, 1, 45, 0
1, 2507280, Note_on_c, 1, 40, 40
1, 2507760, Note_off_c, 1, 40, 0
1, 2507760, Note_on_c, 1, 40, 40
1, 2508240, Note_off_c, 1, 40, 0
1, 2508240, Note_on_c, 1, 45, 40
1, 2508960, Note_off_c, 1, 45, 0
1, 2508960, Note_on_c, 1, 45, 40
1, 2509200, Note_off_c, 1, 45, 0
1, 2509200, Note_on_c, 1, 40, 40
1, 2509920, Note_off_c, 1, 40, 0
1, 2509920, Note_on_c, 1, 40, 40
1, 2510160, Note_off_c, 1, 40, 0
1, 2510160, Note_on_c, 1, 45, 40
1, 2510880, Note_off_c, 1, 45, 0
1, 2510880, Note_on_c, 1, 45, 40
1, 2511120, Note_off_c, 1, 45, 0
1, 2511120, Note_on_c, 1, 40, 40
1, 2511600, Note_off_c, 1, 40, 0
1, 2511600, Note_on_c, 1, 40, 40
1, 2512080, Note_off_c, 1, 40, 0
1, 2512080, Note_on_c, 1, 45, 40
1, 2512800, Note_off_c, 1, 45, 0
1, 2512800, Note_on_c, 1, 45, 40
1, 2513040, Note_off_c, 1, 45, 0
1, 2513040, Note_on_c, 1, 40, 40
1, 2513760, Note_off_c, 1, 40, 0
1, 2513760, Note_on_c, 1, 40, 40
1, 2514000, Note_off_c, 1, 40, 0
1, 2514000, Note_on_c, 1, 45, 40
1, 2514720, Note_off_c, 1, 45, 0
1, 2514720, Note_on_c, 1, 45, 40
1, 2514960, Note_off_c, 1, 45, 0
1, 2514960, Note_on_c, 1, 40, 40
1, 2515440, Note_off_c, 1, 40, 0
1, 2515440, Note_on_c, 1, 43, 40
1, 2515920, Note_off_c, 1, 43, 0
1, 2515920, Note_on_c, 1, 42, 40
1, 2516640, Note_off_c, 1, 42, 0
1, 2516640, Note_on_c, 1, 42, 40
1, 2516880, Note_off_c, 1, 42, 0
1, 2516880, Note_on_c, 1, 37, 40
1, 2517600, Note_off_c, 1, 37, 0
1, 2517600, Note_on_c, 1, 37, 40
1, 2517840, Note_off_c, 1, 37, 0
1, 2517840, Note_on_c, 1, 42, 40
1, 2518560, Note_off_c, 1, 42, 0
1, 2518560, Note_on_c, 1, 42, 40
1, 2518800, Note_off_c, 1, 42, 0
1, 2518800, Note_on_c, 1, 33, 40
1, 2519040, Note_off_c, 1, 33, 0
1, 2519040, Note_on_c, 1, 35, 40
1, 2519280, Note_off_c, 1, 35, 0
1, 2519280, Note_on_c, 1, 37, 40
1, 2519760, Note_off_c, 1, 37, 0
1, 2519760, Note_on_c, 1, 42, 40
1, 2520480, Note_off_c, 1, 42, 0
1, 2520480, Note_on_c, 1, 42, 40
1, 2520720, Note_off_c, 1, 42, 0
1, 2520720, Note_on_c, 1, 37, 40
1, 2521440, Note_off_c, 1, 37, 0
1, 2521440, Note_on_c, 1, 37, 40
1, 2521680, Note_off_c, 1, 37, 0
1, 2521680, Note_on_c, 1, 42, 40
1, 2522400, Note_off_c, 1, 42, 0
1, 2522400, Note_on_c, 1, 42, 40
1, 2522640, Note_off_c, 1, 42, 0
1, 2522640, Note_on_c, 1, 33, 40
1, 2522880, Note_off_c, 1, 33, 0
1, 2522880, Note_on_c, 1, 35, 40
1, 2523120, Note_off_c, 1, 35, 0
1, 2523120, Note_on_c, 1, 37, 40
1, 2523600, Note_off_c, 1, 37, 0
1, 2523600, Note_on_c, 1, 42, 40
1, 2524320, Note_off_c, 1, 42, 0
1, 2524320, Note_on_c, 1, 42, 40
1, 2524560, Note_off_c, 1, 42, 0
1, 2524560, Note_on_c, 1, 37, 40
1, 2525280, Note_off_c, 1, 37, 0
1, 2525280, Note_on_c, 1, 37, 40
1, 2525520, Note_off_c, 1, 37, 0
1, 2525520, Note_on_c, 1, 42, 40
1, 2526240, Note_off_c, 1, 42, 0
1, 2526240, Note_on_c, 1, 42, 40
1, 2526480, Note_off_c, 1, 42, 0
1, 2526480, Note_on_c, 1, 37, 40
1, 2526960, Note_off_c, 1, 37, 0
1, 2526960, Note_on_c, 1, 42, 40
1, 2527440, Note_off_c, 1, 42, 0
1, 2527440, Note_on_c, 1, 40, 40
1, 2528160, Note_off_c, 1, 40, 0
1, 2528160, Note_on_c, 1, 38, 40
1, 2528400, Note_off_c, 1, 38, 0
1, 2528400, Note_on_c, 1, 33, 40
1, 2528880, Note_off_c, 1, 33, 0
1, 2528880, Note_on_c, 1, 28, 40
1, 2529360, Note_off_c, 1, 28, 0
1, 2529360, Note_on_c, 1, 42, 40
1, 2530080, Note_off_c, 1, 42, 0
1, 2530080, Note_on_c, 1, 42, 40
1, 2530320, Note_off_c, 1, 42, 0
1, 2530320, Note_on_c, 1, 37, 40
1, 2530800, Note_off_c, 1, 37, 0
1, 2530800, Note_on_c, 1, 42, 40
1, 2531280, Note_off_c, 1, 42, 0
1, 2531280, Note_on_c, 1, 35, 40
1, 2532000, Note_off_c, 1, 35, 0
1, 2532000, Note_on_c, 1, 35, 40
1, 2532240, Note_off_c, 1, 35, 0
1, 2532240, Note_on_c, 1, 30, 40
1, 2532720, Note_off_c, 1, 30, 0
1, 2532720, Note_on_c, 1, 33, 40
1, 2533200, Note_off_c, 1, 33, 0
1, 2533200, Note_on_c, 1, 35, 40
1, 2533920, Note_off_c, 1, 35, 0
1, 2533920, Note_on_c, 1, 35, 40
1, 2534160, Note_off_c, 1, 35, 0
1, 2534160, Note_on_c, 1, 42, 40
1, 2534640, Note_off_c, 1, 42, 0
1, 2534640, Note_on_c, 1, 47, 40
1, 2535120, Note_off_c, 1, 47, 0
1, 2535120, Note_on_c, 1, 45, 40
1, 2535840, Note_off_c, 1, 45, 0
1, 2535840, Note_on_c, 1, 45, 40
1, 2536080, Note_off_c, 1, 45, 0
1, 2536080, Note_on_c, 1, 40, 40
1, 2536800, Note_off_c, 1, 40, 0
1, 2536800, Note_on_c, 1, 40, 40
1, 2537040, Note_off_c, 1, 40, 0
1, 2537040, Note_on_c, 1, 45, 40
1, 2537760, Note_off_c, 1, 45, 0
1, 2537760, Note_on_c, 1, 45, 40
1, 2538000, Note_off_c, 1, 45, 0
1, 2538000, Note_on_c, 1, 40, 40
1, 2538480, Note_off_c, 1, 40, 0
1, 2538480, Note_on_c, 1, 40, 40
1, 2538960, Note_off_c, 1, 40, 0
1, 2538960, Note_on_c, 1, 45, 40
1, 2539680, Note_off_c, 1, 45, 0
1, 2539680, Note_on_c, 1, 45, 40
1, 2539920, Note_off_c, 1, 45, 0
1, 2539920, Note_on_c, 1, 40, 40
1, 2540640, Note_off_c, 1, 40, 0
1, 2540640, Note_on_c, 1, 40, 40
1, 2540880, Note_off_c, 1, 40, 0
1, 2540880, Note_on_c, 1, 45, 40
1, 2541600, Note_off_c, 1, 45, 0
1, 2541600, Note_on_c, 1, 45, 40
1, 2541840, Note_off_c, 1, 45, 0
1, 2541840, Note_on_c, 1, 40, 40
1, 2542320, Note_off_c, 1, 40, 0
1, 2542320, Note_on_c, 1, 40, 40
1, 2542800, Note_off_c, 1, 40, 0
1, 2542800, Note_on_c, 1, 45, 40
1, 2543520, Note_off_c, 1, 45, 0
1, 2543520, Note_on_c, 1, 45, 40
1, 2543760, Note_off_c, 1, 45, 0
1, 2543760, Note_on_c, 1, 40, 40
1, 2544480, Note_off_c, 1, 40, 0
1, 2544480, Note_on_c, 1, 40, 40
1, 2544720, Note_off_c, 1, 40, 0
1, 2544720, Note_on_c, 1, 45, 40
1, 2545440, Note_off_c, 1, 45, 0
1, 2545440, Note_on_c, 1, 45, 40
1, 2545680, Note_off_c, 1, 45, 0
1, 2545680, Note_on_c, 1, 40, 40
1, 2546160, Note_off_c, 1, 40, 0
1, 2546160, Note_on_c, 1, 40, 40
1, 2546640, Note_off_c, 1, 40, 0
1, 2546640, Note_on_c, 1, 45, 40
1, 2547360, Note_off_c, 1, 45, 0
1, 2547360, Note_on_c, 1, 45, 40
1, 2547600, Note_off_c, 1, 45, 0
1, 2547600, Note_on_c, 1, 40, 40
1, 2548320, Note_off_c, 1, 40, 0
1, 2548320, Note_on_c, 1, 40, 40
1, 2548560, Note_off_c, 1, 40, 0
1, 2548560, Note_on_c, 1, 45, 40
1, 2549280, Note_off_c, 1, 45, 0
1, 2549280, Note_on_c, 1, 45, 40
1, 2549520, Note_off_c, 1, 45, 0
1, 2549520, Note_on_c, 1, 40, 40
1, 2550000, Note_off_c, 1, 40, 0
1, 2550000, Note_on_c, 1, 43, 40
1, 2550480, Note_off_c, 1, 43, 0
1, 2550480, Note_on_c, 1, 42, 40
1, 2551200, Note_off_c, 1, 42, 0
1, 2551200, Note_on_c, 1, 42, 40
1, 2551440, Note_off_c, 1, 42, 0
1, 2551440, Note_on_c, 1, 37, 40
1, 2552160, Note_off_c, 1, 37, 0
1, 2552160, Note_on_c, 1, 37, 40
1, 2552400, Note_off_c, 1, 37, 0
1, 2552400, Note_on_c, 1, 42, 40
1, 2553120, Note_off_c, 1, 42, 0
1, 2553120, Note_on_c, 1, 42, 40
1, 2553360, Note_off_c, 1, 42, 0
1, 2553360, Note_on_c, 1, 33, 40
1, 2553600, Note_off_c, 1, 33, 0
1, 2553600, Note_on_c, 1, 35, 40
1, 2553840, Note_off_c, 1, 35, 0
1, 2553840, Note_on_c, 1, 37, 40
1, 2554320, Note_off_c, 1, 37, 0
1, 2554320, Note_on_c, 1, 42, 40
1, 2555040, Note_off_c, 1, 42, 0
1, 2555040, Note_on_c, 1, 42, 40
1, 2555280, Note_off_c, 1, 42, 0
1, 2555280, Note_on_c, 1, 37, 40
1, 2556000, Note_off_c, 1, 37, 0
1, 2556000, Note_on_c, 1, 37, 40
1, 2556240, Note_off_c, 1, 37, 0
1, 2556240, Note_on_c, 1, 42, 40
1, 2556960, Note_off_c, 1, 42, 0
1, 2556960, Note_on_c, 1, 42, 40
1, 2557200, Note_off_c, 1, 42, 0
1, 2557200, Note_on_c, 1, 33, 40
1, 2557440, Note_off_c, 1, 33, 0
1, 2557440, Note_on_c, 1, 35, 40
1, 2557680, Note_off_c, 1, 35, 0
1, 2557680, Note_on_c, 1, 37, 40
1, 2558160, Note_off_c, 1, 37, 0
1, 2558160, Note_on_c, 1, 42, 40
1, 2558880, Note_off_c, 1, 42, 0
1, 2558880, Note_on_c, 1, 42, 40
1, 2559120, Note_off_c, 1, 42, 0
1, 2559120, Note_on_c, 1, 37, 40
1, 2559840, Note_off_c, 1, 37, 0
1, 2559840, Note_on_c, 1, 37, 40
1, 2560080, Note_off_c, 1, 37, 0
1, 2560080, Note_on_c, 1, 42, 40
1, 2560800, Note_off_c, 1, 42, 0
1, 2560800, Note_on_c, 1, 42, 40
1, 2561040, Note_off_c, 1, 42, 0
1, 2561040, Note_on_c, 1, 37, 40
1, 2561520, Note_off_c, 1, 37, 0
1, 2561520, Note_on_c, 1, 42, 40
1, 2562000, Note_off_c, 1, 42, 0
1, 2562000, Note_on_c, 1, 40, 40
1, 2562720, Note_off_c, 1, 40, 0
1, 2562720, Note_on_c, 1, 38, 40
1, 2562960, Note_off_c, 1, 38, 0
1, 2562960, Note_on_c, 1, 33, 40
1, 2563440, Note_off_c, 1, 33, 0
1, 2563440, Note_on_c, 1, 28, 40
1, 2563920, Note_off_c, 1, 28, 0
1, 2563920, Note_on_c, 1, 42, 40
1, 2564640, Note_off_c, 1, 42, 0
1, 2564640, Note_on_c, 1, 42, 40
1, 2564880, Note_off_c, 1, 42, 0
1, 2564880, Note_on_c, 1, 37, 40
1, 2565360, Note_off_c, 1, 37, 0
1, 2565360, Note_on_c, 1, 42, 40
1, 2565840, Note_off_c, 1, 42, 0
1, 2565840, Note_on_c, 1, 35, 40
1, 2566560, Note_off_c, 1, 35, 0
1, 2566560, Note_on_c, 1, 35, 40
1, 2566800, Note_off_c, 1, 35, 0
1, 2566800, Note_on_c, 1, 42, 40
1, 2567760, Note_off_c, 1, 42, 0
1, 2567760, Note_on_c, 1, 35, 40
1, 2568480, Note_off_c, 1, 35, 0
1, 2568480, Note_on_c, 1, 35, 40
1, 2568720, Note_off_c, 1, 35, 0
1, 2568720, Note_on_c, 1, 35, 40
1, 2569680, Note_off_c, 1, 35, 0
1, 2569680, Note_on_c, 1, 47, 40
1, 2570640, Note_off_c, 1, 47, 0
1, 2570640, Note_on_c, 1, 47, 40
1, 2571120, Note_off_c, 1, 47, 0
1, 2571120, Note_on_c, 1, 47, 40
1, 2571600, Note_off_c, 1, 47, 0
1, 2571600, Note_on_c, 1, 47, 40
1, 2572560, Note_off_c, 1, 47, 0
1, 2572560, Note_on_c, 1, 47, 40
1, 2573520, Note_off_c, 1, 47, 0
1, 2573520, Note_on_c, 1, 47, 40
1, 2574000, Note_off_c, 1, 47, 0
1, 2574000, Note_on_c, 1, 47, 40
1, 2574480, Note_off_c, 1, 47, 0
1, 2574480, Note_on_c, 1, 47, 40
1, 2574960, Note_off_c, 1, 47, 0
1, 2574960, Note_on_c, 1, 47, 40
1, 2575440, Note_off_c, 1, 47, 0
1, 2575440, Note_on_c, 1, 47, 40
1, 2576400, Note_off_c, 1, 47, 0
1, 2576400, Note_on_c, 1, 47, 40
1, 2577240, Note_off_c, 1, 47, 0
1, 2577240, Note_on_c, 1, 47, 40
1, 2577360, Note_off_c, 1, 47, 0
1, 2577360, Note_on_c, 1, 47, 40
1, 2577840, Note_off_c, 1, 47, 0
1, 2577840, Note_on_c, 1, 47, 40
1, 2578320, Note_off_c, 1, 47, 0
1, 2578320, Note_on_c, 1, 47, 40
1, 2578800, Note_off_c, 1, 47, 0
1, 2578800, Note_on_c, 1, 47, 40
1, 2579280, Note_off_c, 1, 47, 0
1, 2579280, Note_on_c, 1, 47, 40
1, 2580240, Note_off_c, 1, 47, 0
1, 2580240, Note_on_c, 1, 47, 40
1, 2581200, Note_off_c, 1, 47, 0
1, 2581200, Note_on_c, 1, 47, 40
1, 2581680, Note_off_c, 1, 47, 0
1, 2581680, Note_on_c, 1, 47, 40
1, 2582160, Note_off_c, 1, 47, 0
1, 2582160, Note_on_c, 1, 47, 40
1, 2582640, Note_off_c, 1, 47, 0
1, 2582640, Note_on_c, 1, 47, 40
1, 2583120, Note_off_c, 1, 47, 0
1, 2583120, Note_on_c, 1, 47, 40
1, 2584080, Note_off_c, 1, 47, 0
1, 2584080, Note_on_c, 1, 47, 40
1, 2585040, Note_off_c, 1, 47, 0
1, 2585040, Note_on_c, 1, 45, 40
1, 2585520, Note_off_c, 1, 45, 0
1, 2585520, Note_on_c, 1, 45, 40
1, 2586000, Note_off_c, 1, 45, 0
1, 2586000, Note_on_c, 1, 40, 40
1, 2586480, Note_off_c, 1, 40, 0
1, 2586480, Note_on_c, 1, 43, 40
1, 2586960, Note_off_c, 1, 43, 0
1, 2586960, Note_on_c, 1, 45, 40
1, 2587680, Note_off_c, 1, 45, 0
1, 2587680, Note_on_c, 1, 45, 40
1, 2587920, Note_off_c, 1, 45, 0
1, 2587920, Note_on_c, 1, 33, 40
1, 2588160, Note_off_c, 1, 33, 0
1, 2588160, Note_on_c, 1, 38, 40
1, 2588400, Note_off_c, 1, 38, 0
1, 2588400, Note_on_c, 1, 40, 40
1, 2588880, Note_off_c, 1, 40, 0
1, 2588880, Note_on_c, 1, 45, 40
1, 2589600, Note_off_c, 1, 45, 0
1, 2589600, Note_on_c, 1, 45, 40
1, 2589840, Note_off_c, 1, 45, 0
1, 2589840, Note_on_c, 1, 40, 40
1, 2590560, Note_off_c, 1, 40, 0
1, 2590560, Note_on_c, 1, 40, 40
1, 2590800, Note_off_c, 1, 40, 0
1, 2590800, Note_on_c, 1, 45, 40
1, 2591520, Note_off_c, 1, 45, 0
1, 2591520, Note_on_c, 1, 45, 40
1, 2591760, Note_off_c, 1, 45, 0
1, 2591760, Note_on_c, 1, 40, 40
1, 2592240, Note_off_c, 1, 40, 0
1, 2592240, Note_on_c, 1, 40, 40
1, 2592720, Note_off_c, 1, 40, 0
1, 2592720, Note_on_c, 1, 45, 40
1, 2593440, Note_off_c, 1, 45, 0
1, 2593440, Note_on_c, 1, 45, 40
1, 2593680, Note_off_c, 1, 45, 0
1, 2593680, Note_on_c, 1, 40, 40
1, 2594400, Note_off_c, 1, 40, 0
1, 2594400, Note_on_c, 1, 40, 40
1, 2594640, Note_off_c, 1, 40, 0
1, 2594640, Note_on_c, 1, 45, 40
1, 2595360, Note_off_c, 1, 45, 0
1, 2595360, Note_on_c, 1, 45, 40
1, 2595600, Note_off_c, 1, 45, 0
1, 2595600, Note_on_c, 1, 40, 40
1, 2596080, Note_off_c, 1, 40, 0
1, 2596080, Note_on_c, 1, 40, 40
1, 2596560, Note_off_c, 1, 40, 0
1, 2596560, Note_on_c, 1, 45, 40
1, 2597280, Note_off_c, 1, 45, 0
1, 2597280, Note_on_c, 1, 45, 40
1, 2597520, Note_off_c, 1, 45, 0
1, 2597520, Note_on_c, 1, 40, 40
1, 2598240, Note_off_c, 1, 40, 0
1, 2598240, Note_on_c, 1, 40, 40
1, 2598480, Note_off_c, 1, 40, 0
1, 2598480, Note_on_c, 1, 45, 40
1, 2599200, Note_off_c, 1, 45, 0
1, 2599200, Note_on_c, 1, 45, 40
1, 2599440, Note_off_c, 1, 45, 0
1, 2599440, Note_on_c, 1, 40, 40
1, 2599920, Note_off_c, 1, 40, 0
1, 2599920, Note_on_c, 1, 40, 40
1, 2600400, Note_off_c, 1, 40, 0
1, 2600400, Note_on_c, 1, 45, 40
1, 2601120, Note_off_c, 1, 45, 0
1, 2601120, Note_on_c, 1, 45, 40
1, 2601360, Note_off_c, 1, 45, 0
1, 2601360, Note_on_c, 1, 40, 40
1, 2602080, Note_off_c, 1, 40, 0
1, 2602080, Note_on_c, 1, 40, 40
1, 2602320, Note_off_c, 1, 40, 0
1, 2602320, Note_on_c, 1, 45, 40
1, 2603040, Note_off_c, 1, 45, 0
1, 2603040, Note_on_c, 1, 45, 40
1, 2603280, Note_off_c, 1, 45, 0
1, 2603280, Note_on_c, 1, 40, 40
1, 2603760, Note_off_c, 1, 40, 0
1, 2603760, Note_on_c, 1, 43, 40
1, 2604240, Note_off_c, 1, 43, 0
1, 2604240, Note_on_c, 1, 42, 40
1, 2604960, Note_off_c, 1, 42, 0
1, 2604960, Note_on_c, 1, 42, 40
1, 2605200, Note_off_c, 1, 42, 0
1, 2605200, Note_on_c, 1, 37, 40
1, 2605920, Note_off_c, 1, 37, 0
1, 2605920, Note_on_c, 1, 37, 40
1, 2606160, Note_off_c, 1, 37, 0
1, 2606160, Note_on_c, 1, 42, 40
1, 2606880, Note_off_c, 1, 42, 0
1, 2606880, Note_on_c, 1, 42, 40
1, 2607120, Note_off_c, 1, 42, 0
1, 2607120, Note_on_c, 1, 33, 40
1, 2607360, Note_off_c, 1, 33, 0
1, 2607360, Note_on_c, 1, 35, 40
1, 2607600, Note_off_c, 1, 35, 0
1, 2607600, Note_on_c, 1, 37, 40
1, 2608080, Note_off_c, 1, 37, 0
1, 2608080, Note_on_c, 1, 42, 40
1, 2608800, Note_off_c, 1, 42, 0
1, 2608800, Note_on_c, 1, 42, 40
1, 2609040, Note_off_c, 1, 42, 0
1, 2609040, Note_on_c, 1, 37, 40
1, 2609760, Note_off_c, 1, 37, 0
1, 2609760, Note_on_c, 1, 37, 40
1, 2610000, Note_off_c, 1, 37, 0
1, 2610000, Note_on_c, 1, 42, 40
1, 2610720, Note_off_c, 1, 42, 0
1, 2610720, Note_on_c, 1, 42, 40
1, 2610960, Note_off_c, 1, 42, 0
1, 2610960, Note_on_c, 1, 33, 40
1, 2611200, Note_off_c, 1, 33, 0
1, 2611200, Note_on_c, 1, 35, 40
1, 2611440, Note_off_c, 1, 35, 0
1, 2611440, Note_on_c, 1, 37, 40
1, 2611920, Note_off_c, 1, 37, 0
1, 2611920, Note_on_c, 1, 42, 40
1, 2612640, Note_off_c, 1, 42, 0
1, 2612640, Note_on_c, 1, 42, 40
1, 2612880, Note_off_c, 1, 42, 0
1, 2612880, Note_on_c, 1, 37, 40
1, 2613600, Note_off_c, 1, 37, 0
1, 2613600, Note_on_c, 1, 37, 40
1, 2613840, Note_off_c, 1, 37, 0
1, 2613840, Note_on_c, 1, 42, 40
1, 2614560, Note_off_c, 1, 42, 0
1, 2614560, Note_on_c, 1, 42, 40
1, 2614800, Note_off_c, 1, 42, 0
1, 2614800, Note_on_c, 1, 37, 40
1, 2615280, Note_off_c, 1, 37, 0
1, 2615280, Note_on_c, 1, 42, 40
1, 2615760, Note_off_c, 1, 42, 0
1, 2615760, Note_on_c, 1, 40, 40
1, 2616480, Note_off_c, 1, 40, 0
1, 2616480, Note_on_c, 1, 38, 40
1, 2616720, Note_off_c, 1, 38, 0
1, 2616720, Note_on_c, 1, 33, 40
1, 2617200, Note_off_c, 1, 33, 0
1, 2617200, Note_on_c, 1, 28, 40
1, 2617680, Note_off_c, 1, 28, 0
1, 2617680, Note_on_c, 1, 42, 40
1, 2618400, Note_off_c, 1, 42, 0
1, 2618400, Note_on_c, 1, 42, 40
1, 2618640, Note_off_c, 1, 42, 0
1, 2618640, Note_on_c, 1, 37, 40
1, 2619120, Note_off_c, 1, 37, 0
1, 2619120, Note_on_c, 1, 42, 40
1, 2619600, Note_off_c, 1, 42, 0
1, 2619600, Note_on_c, 1, 35, 40
1, 2620320, Note_off_c, 1, 35, 0
1, 2620320, Note_on_c, 1, 35, 40
1, 2620560, Note_off_c, 1, 35, 0
1, 2620560, Note_on_c, 1, 42, 40
1, 2621520, Note_off_c, 1, 42, 0
1, 2621520, Note_on_c, 1, 35, 40
1, 2622240, Note_off_c, 1, 35, 0
1, 2622240, Note_on_c, 1, 35, 40
1, 2622480, Note_off_c, 1, 35, 0
1, 2622480, Note_on_c, 1, 35, 40
1, 2623440, Note_off_c, 1, 35, 0
1, 2623440, Note_on_c, 1, 47, 40
1, 2624400, Note_off_c, 1, 47, 0
1, 2624400, Note_on_c, 1, 47, 40
1, 2624880, Note_off_c, 1, 47, 0
1, 2624880, Note_on_c, 1, 47, 40
1, 2625360, Note_off_c, 1, 47, 0
1, 2625360, Note_on_c, 1, 47, 40
1, 2626320, Note_off_c, 1, 47, 0
1, 2626320, Note_on_c, 1, 47, 40
1, 2627280, Note_off_c, 1, 47, 0
1, 2627280, Note_on_c, 1, 47, 40
1, 2627760, Note_off_c, 1, 47, 0
1, 2627760, Note_on_c, 1, 47, 40
1, 2628240, Note_off_c, 1, 47, 0
1, 2628240, Note_on_c, 1, 47, 40
1, 2628720, Note_off_c, 1, 47, 0
1, 2628720, Note_on_c, 1, 47, 40
1, 2629200, Note_off_c, 1, 47, 0
1, 2629200, Note_on_c, 1, 47, 40
1, 2630160, Note_off_c, 1, 47, 0
1, 2630160, Note_on_c, 1, 47, 40
1, 2631000, Note_off_c, 1, 47, 0
1, 2631000, Note_on_c, 1, 47, 40
1, 2631120, Note_off_c, 1, 47, 0
1, 2631120, Note_on_c, 1, 47, 40
1, 2631600, Note_off_c, 1, 47, 0
1, 2631600, Note_on_c, 1, 47, 40
1, 2632080, Note_off_c, 1, 47, 0
1, 2632080, Note_on_c, 1, 47, 40
1, 2632560, Note_off_c, 1, 47, 0
1, 2632560, Note_on_c, 1, 47, 40
1, 2633040, Note_off_c, 1, 47, 0
1, 2633040, Note_on_c, 1, 47, 40
1, 2634000, Note_off_c, 1, 47, 0
1, 2634000, Note_on_c, 1, 47, 40
1, 2634960, Note_off_c, 1, 47, 0
1, 2634960, Note_on_c, 1, 47, 40
1, 2635440, Note_off_c, 1, 47, 0
1, 2635440, Note_on_c, 1, 47, 40
1, 2635920, Note_off_c, 1, 47, 0
1, 2635920, Note_on_c, 1, 47, 40
1, 2636400, Note_off_c, 1, 47, 0
1, 2636400, Note_on_c, 1, 47, 40
1, 2636880, Note_off_c, 1, 47, 0
1, 2636880, Note_on_c, 1, 47, 40
1, 2637840, Note_off_c, 1, 47, 0
1, 2637840, Note_on_c, 1, 47, 40
1, 2638800, Note_off_c, 1, 47, 0
1, 2638800, Note_on_c, 1, 45, 40
1, 2639280, Note_off_c, 1, 45, 0
1, 2639280, Note_on_c, 1, 45, 40
1, 2639760, Note_off_c, 1, 45, 0
1, 2639760, Note_on_c, 1, 40, 40
1, 2640240, Note_off_c, 1, 40, 0
1, 2640240, Note_on_c, 1, 43, 40
1, 2640720, Note_off_c, 1, 43, 0
1, 2640720, Note_on_c, 1, 45, 40
1, 2641440, Note_off_c, 1, 45, 0
1, 2641440, Note_on_c, 1, 45, 40
1, 2641680, Note_off_c, 1, 45, 0
1, 2641680, Note_on_c, 1, 45, 40
1, 2641920, Note_off_c, 1, 45, 0
1, 2641920, Note_on_c, 1, 38, 40
1, 2642160, Note_off_c, 1, 38, 0
1, 2642160, Note_on_c, 1, 40, 40
1, 2642640, Note_off_c, 1, 40, 0
1, 2642640, Note_on_c, 1, 45, 40
1, 2643360, Note_off_c, 1, 45, 0
1, 2643360, Note_on_c, 1, 45, 40
1, 2643600, Note_off_c, 1, 45, 0
1, 2643600, Note_on_c, 1, 40, 40
1, 2644080, Note_off_c, 1, 40, 0
1, 2644080, Note_on_c, 1, 38, 40
1, 2644560, Note_off_c, 1, 38, 0
1, 2644560, Note_on_c, 1, 45, 40
1, 2645280, Note_off_c, 1, 45, 0
1, 2645280, Note_on_c, 1, 45, 40
1, 2645520, Note_off_c, 1, 45, 0
1, 2645520, Note_on_c, 1, 45, 40
1, 2645760, Note_off_c, 1, 45, 0
1, 2645760, Note_on_c, 1, 38, 40
1, 2646000, Note_off_c, 1, 38, 0
1, 2646000, Note_on_c, 1, 40, 40
1, 2646480, Note_off_c, 1, 40, 0
1, 2646480, Note_on_c, 1, 45, 40
1, 2647200, Note_off_c, 1, 45, 0
1, 2647200, Note_on_c, 1, 45, 40
1, 2647440, Note_off_c, 1, 45, 0
1, 2647440, Note_on_c, 1, 40, 40
1, 2648160, Note_off_c, 1, 40, 0
1, 2648160, Note_on_c, 1, 40, 40
1, 2648400, Note_off_c, 1, 40, 0
1, 2648400, Note_on_c, 1, 45, 40
1, 2649120, Note_off_c, 1, 45, 0
1, 2649120, Note_on_c, 1, 45, 40
1, 2649360, Note_off_c, 1, 45, 0
1, 2649360, Note_on_c, 1, 33, 40
1, 2649600, Note_off_c, 1, 33, 0
1, 2649600, Note_on_c, 1, 38, 40
1, 2649840, Note_off_c, 1, 38, 0
1, 2649840, Note_on_c, 1, 40, 40
1, 2650080, Note_off_c, 1, 40, 0
1, 2650080, Note_on_c, 1, 43, 40
1, 2650320, Note_off_c, 1, 43, 0
1, 2650320, Note_on_c, 1, 45, 40
1, 2651040, Note_off_c, 1, 45, 0
1, 2651040, Note_on_c, 1, 45, 40
1, 2651280, Note_off_c, 1, 45, 0
1, 2651280, Note_on_c, 1, 40, 40
1, 2652000, Note_off_c, 1, 40, 0
1, 2652000, Note_on_c, 1, 40, 40
1, 2652240, Note_off_c, 1, 40, 0
1, 2652240, Note_on_c, 1, 45, 40
1, 2652960, Note_off_c, 1, 45, 0
1, 2652960, Note_on_c, 1, 45, 40
1, 2653200, Note_off_c, 1, 45, 0
1, 2653200, Note_on_c, 1, 40, 40
1, 2653920, Note_off_c, 1, 40, 0
1, 2653920, Note_on_c, 1, 40, 40
1, 2654160, Note_off_c, 1, 40, 0
1, 2654160, Note_on_c, 1, 45, 40
1, 2654880, Note_off_c, 1, 45, 0
1, 2654880, Note_on_c, 1, 45, 40
1, 2655120, Note_off_c, 1, 45, 0
1, 2655120, Note_on_c, 1, 40, 40
1, 2655600, Note_off_c, 1, 40, 0
1, 2655600, Note_on_c, 1, 44, 40
1, 2656080, Note_off_c, 1, 44, 0
1, 2656080, Note_on_c, 1, 45, 40
1, 2656800, Note_off_c, 1, 45, 0
1, 2656800, Note_on_c, 1, 45, 40
1, 2657040, Note_off_c, 1, 45, 0
1, 2657040, Note_on_c, 1, 40, 40
1, 2658000, Note_off_c, 1, 40, 0
1, 2658000, Note_on_c, 1, 62, 40
1, 2658480, Note_off_c, 1, 62, 0
1, 2658480, Note_on_c, 1, 62, 40
1, 2658960, Note_off_c, 1, 62, 0
1, 2658960, Note_on_c, 1, 62, 40
1, 2659440, Note_off_c, 1, 62, 0
1, 2659440, Note_on_c, 1, 57, 40
1, 2659920, Note_off_c, 1, 57, 0
1, 2659920, Note_on_c, 1, 62, 40
1, 2660880, Note_off_c, 1, 62, 0
1, 2660880, Note_on_c, 1, 62, 40
1, 2661840, Note_off_c, 1, 62, 0
1, 2661840, Note_on_c, 1, 68, 40
1, 2662800, Note_off_c, 1, 68, 0
1, 2662800, Note_on_c, 1, 62, 40
1, 2663280, Note_off_c, 1, 62, 0
1, 2663280, Note_on_c, 1, 68, 40
1, 2665200, Note_off_c, 1, 68, 0
1, 2665200, Note_on_c, 1, 68, 40
1, 2665680, Note_off_c, 1, 68, 0
1, 2672400, Note_on_c, 1, 30, 40
1, 2672640, Note_off_c, 1, 30, 0
1, 2672640, Note_on_c, 1, 33, 40
1, 2672880, Note_off_c, 1, 33, 0
1, 2672880, Note_on_c, 1, 35, 40
1, 2673120, Note_off_c, 1, 35, 0
1, 2673120, Note_on_c, 1, 23, 40
1, 2675040, Note_off_c, 1, 23, 0
1, 2675280, Note_on_c, 1, 35, 40
1, 2676240, Note_off_c, 1, 35, 0
1, 2676240, Note_on_c, 1, 39, 40
1, 2676480, Note_off_c, 1, 39, 0
1, 2676480, Note_on_c, 1, 42, 40
1, 2676720, Note_off_c, 1, 42, 0
1, 2676720, Note_on_c, 1, 39, 40
1, 2676840, Note_off_c, 1, 39, 0
1, 2676840, Note_on_c, 1, 37, 40
1, 2676960, Note_off_c, 1, 37, 0
1, 2676960, Note_on_c, 1, 35, 40
1, 2677200, Note_off_c, 1, 35, 0
1, 2677200, Note_on_c, 1, 28, 40
1, 2678040, Note_off_c, 1, 28, 0
1, 2678040, Note_on_c, 1, 28, 40
1, 2678160, Note_off_c, 1, 28, 0
1, 2678160, Note_on_c, 1, 32, 40
1, 2678400, Note_off_c, 1, 32, 0
1, 2678400, Note_on_c, 1, 35, 40
1, 2678640, Note_off_c, 1, 35, 0
1, 2678640, Note_on_c, 1, 32, 40
1, 2678760, Note_off_c, 1, 32, 0
1, 2678760, Note_on_c, 1, 30, 40
1, 2678880, Note_off_c, 1, 30, 0
1, 2678880, Note_on_c, 1, 28, 40
1, 2679120, Note_off_c, 1, 28, 0
1, 2679120, Note_on_c, 1, 35, 40
1, 2680080, Note_off_c, 1, 35, 0
1, 2680080, Note_on_c, 1, 39, 40
1, 2680320, Note_off_c, 1, 39, 0
1, 2680320, Note_on_c, 1, 42, 40
1, 2680560, Note_off_c, 1, 42, 0
1, 2680560, Note_on_c, 1, 39, 40
1, 2680680, Note_off_c, 1, 39, 0
1, 2680680, Note_on_c, 1, 37, 40
1, 2680800, Note_off_c, 1, 37, 0
1, 2680800, Note_on_c, 1, 35, 40
1, 2681040, Note_off_c, 1, 35, 0
1, 2681040, Note_on_c, 1, 28, 40
1, 2681880, Note_off_c, 1, 28, 0
1, 2681880, Note_on_c, 1, 28, 40
1, 2682000, Note_off_c, 1, 28, 0
1, 2682000, Note_on_c, 1, 32, 40
1, 2682240, Note_off_c, 1, 32, 0
1, 2682240, Note_on_c, 1, 35, 40
1, 2682480, Note_off_c, 1, 35, 0
1, 2682480, Note_on_c, 1, 32, 40
1, 2682600, Note_off_c, 1, 32, 0
1, 2682600, Note_on_c, 1, 30, 40
1, 2682720, Note_off_c, 1, 30, 0
1, 2682720, Note_on_c, 1, 28, 40
1, 2682960, Note_off_c, 1, 28, 0
1, 2682960, Note_on_c, 1, 35, 40
1, 2683920, Note_off_c, 1, 35, 0
1, 2683920, Note_on_c, 1, 39, 40
1, 2684160, Note_off_c, 1, 39, 0
1, 2684160, Note_on_c, 1, 42, 40
1, 2684400, Note_off_c, 1, 42, 0
1, 2684400, Note_on_c, 1, 39, 40
1, 2684520, Note_off_c, 1, 39, 0
1, 2684520, Note_on_c, 1, 37, 40
1, 2684640, Note_off_c, 1, 37, 0
1, 2684640, Note_on_c, 1, 35, 40
1, 2684880, Note_off_c, 1, 35, 0
1, 2684880, Note_on_c, 1, 28, 40
1, 2685720, Note_off_c, 1, 28, 0
1, 2685720, Note_on_c, 1, 28, 40
1, 2685840, Note_off_c, 1, 28, 0
1, 2685840, Note_on_c, 1, 32, 40
1, 2686080, Note_off_c, 1, 32, 0
1, 2686080, Note_on_c, 1, 35, 40
1, 2686320, Note_off_c, 1, 35, 0
1, 2686320, Note_on_c, 1, 32, 40
1, 2686440, Note_off_c, 1, 32, 0
1, 2686440, Note_on_c, 1, 30, 40
1, 2686560, Note_off_c, 1, 30, 0
1, 2686560, Note_on_c, 1, 28, 40
1, 2686800, Note_off_c, 1, 28, 0
1, 2686800, Note_on_c, 1, 30, 40
1, 2687280, Note_off_c, 1, 30, 0
1, 2687280, Note_on_c, 1, 30, 40
1, 2687520, Note_off_c, 1, 30, 0
1, 2687520, Note_on_c, 1, 30, 40
1, 2687760, Note_off_c, 1, 30, 0
1, 2687760, Note_on_c, 1, 30, 40
1, 2688240, Note_off_c, 1, 30, 0
1, 2688240, Note_on_c, 1, 30, 40
1, 2688480, Note_off_c, 1, 30, 0
1, 2688480, Note_on_c, 1, 30, 40
1, 2688720, Note_off_c, 1, 30, 0
1, 2688720, Note_on_c, 1, 30, 40
1, 2689200, Note_off_c, 1, 30, 0
1, 2689200, Note_on_c, 1, 30, 40
1, 2689440, Note_off_c, 1, 30, 0
1, 2689440, Note_on_c, 1, 30, 40
1, 2689680, Note_off_c, 1, 30, 0
1, 2689680, Note_on_c, 1, 34, 40
1, 2689920, Note_off_c, 1, 34, 0
1, 2689920, Note_on_c, 1, 37, 40
1, 2690160, Note_off_c, 1, 37, 0
1, 2690160, Note_on_c, 1, 39, 40
1, 2690280, Note_off_c, 1, 39, 0
1, 2690280, Note_on_c, 1, 37, 40
1, 2690400, Note_off_c, 1, 37, 0
1, 2690400, Note_on_c, 1, 34, 40
1, 2690640, Note_off_c, 1, 34, 0
1, 2690640, Note_on_c, 1, 32, 40
1, 2691120, Note_off_c, 1, 32, 0
1, 2691120, Note_on_c, 1, 32, 40
1, 2691600, Note_off_c, 1, 32, 0
1, 2691600, Note_on_c, 1, 32, 40
1, 2692080, Note_off_c, 1, 32, 0
1, 2692080, Note_on_c, 1, 32, 40
1, 2692320, Note_off_c, 1, 32, 0
1, 2692320, Note_on_c, 1, 30, 40
1, 2692560, Note_off_c, 1, 30, 0
1, 2692560, Note_on_c, 1, 28, 40
1, 2693040, Note_off_c, 1, 28, 0
1, 2693040, Note_on_c, 1, 28, 40
1, 2693520, Note_off_c, 1, 28, 0
1, 2693520, Note_on_c, 1, 28, 40
1, 2694000, Note_off_c, 1, 28, 0
1, 2694000, Note_on_c, 1, 28, 40
1, 2694240, Note_off_c, 1, 28, 0
1, 2694240, Note_on_c, 1, 30, 40
1, 2694480, Note_off_c, 1, 30, 0
1, 2694480, Note_on_c, 1, 32, 40
1, 2694960, Note_off_c, 1, 32, 0
1, 2694960, Note_on_c, 1, 32, 40
1, 2695440, Note_off_c, 1, 32, 0
1, 2695440, Note_on_c, 1, 32, 40
1, 2695920, Note_off_c, 1, 32, 0
1, 2695920, Note_on_c, 1, 32, 40
1, 2696160, Note_off_c, 1, 32, 0
1, 2696160, Note_on_c, 1, 30, 40
1, 2696400, Note_off_c, 1, 30, 0
1, 2696400, Note_on_c, 1, 28, 40
1, 2696880, Note_off_c, 1, 28, 0
1, 2696880, Note_on_c, 1, 28, 40
1, 2697360, Note_off_c, 1, 28, 0
1, 2697360, Note_on_c, 1, 28, 40
1, 2697840, Note_off_c, 1, 28, 0
1, 2697840, Note_on_c, 1, 28, 40
1, 2698080, Note_off_c, 1, 28, 0
1, 2698080, Note_on_c, 1, 30, 40
1, 2698320, Note_off_c, 1, 30, 0
1, 2698320, Note_on_c, 1, 32, 40
1, 2698800, Note_off_c, 1, 32, 0
1, 2698800, Note_on_c, 1, 32, 40
1, 2699280, Note_off_c, 1, 32, 0
1, 2699280, Note_on_c, 1, 32, 40
1, 2699760, Note_off_c, 1, 32, 0
1, 2699760, Note_on_c, 1, 32, 40
1, 2700240, Note_off_c, 1, 32, 0
1, 2700240, Note_on_c, 1, 25, 40
1, 2700480, Note_off_c, 1, 25, 0
1, 2700480, Note_on_c, 1, 27, 40
1, 2700720, Note_off_c, 1, 27, 0
1, 2700720, Note_on_c, 1, 28, 40
1, 2700960, Note_off_c, 1, 28, 0
1, 2700960, Note_on_c, 1, 25, 40
1, 2701200, Note_off_c, 1, 25, 0
1, 2701200, Note_on_c, 1, 30, 40
1, 2701440, Note_off_c, 1, 30, 0
1, 2701440, Note_on_c, 1, 28, 40
1, 2701680, Note_off_c, 1, 28, 0
1, 2701680, Note_on_c, 1, 27, 40
1, 2701920, Note_off_c, 1, 27, 0
1, 2701920, Note_on_c, 1, 25, 40
1, 2702160, Note_off_c, 1, 25, 0
1, 2702160, Note_on_c, 1, 35, 40
1, 2702640, Note_off_c, 1, 35, 0
1, 2702640, Note_on_c, 1, 35, 40
1, 2703000, Note_off_c, 1, 35, 0
1, 2703000, Note_on_c, 1, 30, 40
1, 2703120, Note_off_c, 1, 30, 0
1, 2703120, Note_on_c, 1, 32, 40
1, 2703360, Note_off_c, 1, 32, 0
1, 2703360, Note_on_c, 1, 35, 40
1, 2703600, Note_off_c, 1, 35, 0
1, 2703600, Note_on_c, 1, 32, 40
1, 2703840, Note_off_c, 1, 32, 0
1, 2703840, Note_on_c, 1, 28, 40
1, 2704080, Note_off_c, 1, 28, 0
1, 2704080, Note_on_c, 1, 30, 40
1, 2704560, Note_off_c, 1, 30, 0
1, 2704560, Note_on_c, 1, 30, 40
1, 2704920, Note_off_c, 1, 30, 0
1, 2704920, Note_on_c, 1, 30, 40
1, 2705040, Note_off_c, 1, 30, 0
1, 2705040, Note_on_c, 1, 34, 40
1, 2705280, Note_off_c, 1, 34, 0
1, 2705280, Note_on_c, 1, 37, 40
1, 2705520, Note_off_c, 1, 37, 0
1, 2705520, Note_on_c, 1, 34, 40
1, 2705760, Note_off_c, 1, 34, 0
1, 2705760, Note_on_c, 1, 30, 40
1, 2706000, Note_off_c, 1, 30, 0
1, 2706000, Note_on_c, 1, 35, 40
1, 2706960, Note_off_c, 1, 35, 0
1, 2706960, Note_on_c, 1, 39, 40
1, 2707200, Note_off_c, 1, 39, 0
1, 2707200, Note_on_c, 1, 42, 40
1, 2707440, Note_off_c, 1, 42, 0
1, 2707440, Note_on_c, 1, 39, 40
1, 2707560, Note_off_c, 1, 39, 0
1, 2707560, Note_on_c, 1, 37, 40
1, 2707680, Note_off_c, 1, 37, 0
1, 2707680, Note_on_c, 1, 35, 40
1, 2707920, Note_off_c, 1, 35, 0
1, 2707920, Note_on_c, 1, 28, 40
1, 2708760, Note_off_c, 1, 28, 0
1, 2708760, Note_on_c, 1, 28, 40
1, 2708880, Note_off_c, 1, 28, 0
1, 2708880, Note_on_c, 1, 32, 40
1, 2709120, Note_off_c, 1, 32, 0
1, 2709120, Note_on_c, 1, 35, 40
1, 2709360, Note_off_c, 1, 35, 0
1, 2709360, Note_on_c, 1, 32, 40
1, 2709480, Note_off_c, 1, 32, 0
1, 2709480, Note_on_c, 1, 30, 40
1, 2709600, Note_off_c, 1, 30, 0
1, 2709600, Note_on_c, 1, 28, 40
1, 2709840, Note_off_c, 1, 28, 0
1, 2709840, Note_on_c, 1, 35, 40
1, 2710800, Note_off_c, 1, 35, 0
1, 2710800, Note_on_c, 1, 39, 40
1, 2711040, Note_off_c, 1, 39, 0
1, 2711040, Note_on_c, 1, 42, 40
1, 2711280, Note_off_c, 1, 42, 0
1, 2711280, Note_on_c, 1, 39, 40
1, 2711400, Note_off_c, 1, 39, 0
1, 2711400, Note_on_c, 1, 37, 40
1, 2711520, Note_off_c, 1, 37, 0
1, 2711520, Note_on_c, 1, 35, 40
1, 2711760, Note_off_c, 1, 35, 0
1, 2711760, Note_on_c, 1, 28, 40
1, 2712600, Note_off_c, 1, 28, 0
1, 2712600, Note_on_c, 1, 28, 40
1, 2712720, Note_off_c, 1, 28, 0
1, 2712720, Note_on_c, 1, 32, 40
1, 2712960, Note_off_c, 1, 32, 0
1, 2712960, Note_on_c, 1, 35, 40
1, 2713200, Note_off_c, 1, 35, 0
1, 2713200, Note_on_c, 1, 32, 40
1, 2713320, Note_off_c, 1, 32, 0
1, 2713320, Note_on_c, 1, 30, 40
1, 2713440, Note_off_c, 1, 30, 0
1, 2713440, Note_on_c, 1, 28, 40
1, 2713680, Note_off_c, 1, 28, 0
1, 2713680, Note_on_c, 1, 35, 40
1, 2714640, Note_off_c, 1, 35, 0
1, 2714640, Note_on_c, 1, 39, 40
1, 2714880, Note_off_c, 1, 39, 0
1, 2714880, Note_on_c, 1, 42, 40
1, 2715120, Note_off_c, 1, 42, 0
1, 2715120, Note_on_c, 1, 39, 40
1, 2715240, Note_off_c, 1, 39, 0
1, 2715240, Note_on_c, 1, 37, 40
1, 2715360, Note_off_c, 1, 37, 0
1, 2715360, Note_on_c, 1, 35, 40
1, 2715600, Note_off_c, 1, 35, 0
1, 2715600, Note_on_c, 1, 28, 40
1, 2716440, Note_off_c, 1, 28, 0
1, 2716440, Note_on_c, 1, 28, 40
1, 2716560, Note_off_c, 1, 28, 0
1, 2716560, Note_on_c, 1, 32, 40
1, 2716800, Note_off_c, 1, 32, 0
1, 2716800, Note_on_c, 1, 35, 40
1, 2717040, Note_off_c, 1, 35, 0
1, 2717040, Note_on_c, 1, 32, 40
1, 2717160, Note_off_c, 1, 32, 0
1, 2717160, Note_on_c, 1, 30, 40
1, 2717280, Note_off_c, 1, 30, 0
1, 2717280, Note_on_c, 1, 28, 40
1, 2717520, Note_off_c, 1, 28, 0
1, 2717520, Note_on_c, 1, 30, 40
1, 2718000, Note_off_c, 1, 30, 0
1, 2718000, Note_on_c, 1, 30, 40
1, 2718240, Note_off_c, 1, 30, 0
1, 2718240, Note_on_c, 1, 30, 40
1, 2718480, Note_off_c, 1, 30, 0
1, 2718480, Note_on_c, 1, 30, 40
1, 2718960, Note_off_c, 1, 30, 0
1, 2718960, Note_on_c, 1, 30, 40
1, 2719200, Note_off_c, 1, 30, 0
1, 2719200, Note_on_c, 1, 30, 40
1, 2719440, Note_off_c, 1, 30, 0
1, 2719440, Note_on_c, 1, 30, 40
1, 2719920, Note_off_c, 1, 30, 0
1, 2719920, Note_on_c, 1, 30, 40
1, 2720160, Note_off_c, 1, 30, 0
1, 2720160, Note_on_c, 1, 30, 40
1, 2720400, Note_off_c, 1, 30, 0
1, 2720400, Note_on_c, 1, 34, 40
1, 2720640, Note_off_c, 1, 34, 0
1, 2720640, Note_on_c, 1, 37, 40
1, 2720880, Note_off_c, 1, 37, 0
1, 2720880, Note_on_c, 1, 39, 40
1, 2721000, Note_off_c, 1, 39, 0
1, 2721000, Note_on_c, 1, 37, 40
1, 2721120, Note_off_c, 1, 37, 0
1, 2721120, Note_on_c, 1, 34, 40
1, 2721360, Note_off_c, 1, 34, 0
1, 2721360, Note_on_c, 1, 32, 40
1, 2721840, Note_off_c, 1, 32, 0
1, 2721840, Note_on_c, 1, 32, 40
1, 2722320, Note_off_c, 1, 32, 0
1, 2722320, Note_on_c, 1, 32, 40
1, 2722800, Note_off_c, 1, 32, 0
1, 2722800, Note_on_c, 1, 32, 40
1, 2723040, Note_off_c, 1, 32, 0
1, 2723040, Note_on_c, 1, 30, 40
1, 2723280, Note_off_c, 1, 30, 0
1, 2723280, Note_on_c, 1, 28, 40
1, 2723760, Note_off_c, 1, 28, 0
1, 2723760, Note_on_c, 1, 28, 40
1, 2724240, Note_off_c, 1, 28, 0
1, 2724240, Note_on_c, 1, 28, 40
1, 2724720, Note_off_c, 1, 28, 0
1, 2724720, Note_on_c, 1, 28, 40
1, 2724960, Note_off_c, 1, 28, 0
1, 2724960, Note_on_c, 1, 30, 40
1, 2725200, Note_off_c, 1, 30, 0
1, 2725200, Note_on_c, 1, 32, 40
1, 2725680, Note_off_c, 1, 32, 0
1, 2725680, Note_on_c, 1, 32, 40
1, 2726160, Note_off_c, 1, 32, 0
1, 2726160, Note_on_c, 1, 32, 40
1, 2726640, Note_off_c, 1, 32, 0
1, 2726640, Note_on_c, 1, 32, 40
1, 2726880, Note_off_c, 1, 32, 0
1, 2726880, Note_on_c, 1, 30, 40
1, 2727120, Note_off_c, 1, 30, 0
1, 2727120, Note_on_c, 1, 28, 40
1, 2727600, Note_off_c, 1, 28, 0
1, 2727600, Note_on_c, 1, 28, 40
1, 2728080, Note_off_c, 1, 28, 0
1, 2728080, Note_on_c, 1, 28, 40
1, 2728560, Note_off_c, 1, 28, 0
1, 2728560, Note_on_c, 1, 28, 40
1, 2728800, Note_off_c, 1, 28, 0
1, 2728800, Note_on_c, 1, 30, 40
1, 2729040, Note_off_c, 1, 30, 0
1, 2729040, Note_on_c, 1, 32, 40
1, 2729520, Note_off_c, 1, 32, 0
1, 2729520, Note_on_c, 1, 32, 40
1, 2730000, Note_off_c, 1, 32, 0
1, 2730000, Note_on_c, 1, 32, 40
1, 2730480, Note_off_c, 1, 32, 0
1, 2730480, Note_on_c, 1, 32, 40
1, 2730960, Note_off_c, 1, 32, 0
1, 2730960, Note_on_c, 1, 25, 40
1, 2731200, Note_off_c, 1, 25, 0
1, 2731200, Note_on_c, 1, 27, 40
1, 2731440, Note_off_c, 1, 27, 0
1, 2731440, Note_on_c, 1, 28, 40
1, 2731680, Note_off_c, 1, 28, 0
1, 2731680, Note_on_c, 1, 25, 40
1, 2731920, Note_off_c, 1, 25, 0
1, 2731920, Note_on_c, 1, 30, 40
1, 2732160, Note_off_c, 1, 30, 0
1, 2732160, Note_on_c, 1, 28, 40
1, 2732400, Note_off_c, 1, 28, 0
1, 2732400, Note_on_c, 1, 27, 40
1, 2732640, Note_off_c, 1, 27, 0
1, 2732640, Note_on_c, 1, 25, 40
1, 2732880, Note_off_c, 1, 25, 0
1, 2732880, Note_on_c, 1, 35, 40
1, 2733360, Note_off_c, 1, 35, 0
1, 2733360, Note_on_c, 1, 35, 40
1, 2733840, Note_off_c, 1, 35, 0
1, 2733840, Note_on_c, 1, 35, 40
1, 2734080, Note_off_c, 1, 35, 0
1, 2734080, Note_on_c, 1, 35, 40
1, 2734320, Note_off_c, 1, 35, 0
1, 2734320, Note_on_c, 1, 35, 40
1, 2734800, Note_off_c, 1, 35, 0
1, 2734800, Note_on_c, 1, 30, 40
1, 2735040, Note_off_c, 1, 30, 0
1, 2736720, Note_on_c, 1, 35, 40
1, 2737680, Note_off_c, 1, 35, 0
1, 2737680, Note_on_c, 1, 39, 40
1, 2737920, Note_off_c, 1, 39, 0
1, 2737920, Note_on_c, 1, 42, 40
1, 2738160, Note_off_c, 1, 42, 0
1, 2738160, Note_on_c, 1, 39, 40
1, 2738280, Note_off_c, 1, 39, 0
1, 2738280, Note_on_c, 1, 37, 40
1, 2738400, Note_off_c, 1, 37, 0
1, 2738400, Note_on_c, 1, 35, 40
1, 2738640, Note_off_c, 1, 35, 0
1, 2738640, Note_on_c, 1, 28, 40
1, 2739480, Note_off_c, 1, 28, 0
1, 2739480, Note_on_c, 1, 28, 40
1, 2739600, Note_off_c, 1, 28, 0
1, 2739600, Note_on_c, 1, 32, 40
1, 2739840, Note_off_c, 1, 32, 0
1, 2739840, Note_on_c, 1, 35, 40
1, 2740080, Note_off_c, 1, 35, 0
1, 2740080, Note_on_c, 1, 32, 40
1, 2740200, Note_off_c, 1, 32, 0
1, 2740200, Note_on_c, 1, 30, 40
1, 2740320, Note_off_c, 1, 30, 0
1, 2740320, Note_on_c, 1, 28, 40
1, 2740560, Note_off_c, 1, 28, 0
1, 2740560, Note_on_c, 1, 35, 40
1, 2741520, Note_off_c, 1, 35, 0
1, 2741520, Note_on_c, 1, 39, 40
1, 2741760, Note_off_c, 1, 39, 0
1, 2741760, Note_on_c, 1, 42, 40
1, 2742000, Note_off_c, 1, 42, 0
1, 2742000, Note_on_c, 1, 39, 40
1, 2742120, Note_off_c, 1, 39, 0
1, 2742120, Note_on_c, 1, 37, 40
1, 2742240, Note_off_c, 1, 37, 0
1, 2742240, Note_on_c, 1, 35, 40
1, 2742480, Note_off_c, 1, 35, 0
1, 2742480, Note_on_c, 1, 28, 40
1, 2743320, Note_off_c, 1, 28, 0
1, 2743320, Note_on_c, 1, 28, 40
1, 2743440, Note_off_c, 1, 28, 0
1, 2743440, Note_on_c, 1, 32, 40
1, 2743680, Note_off_c, 1, 32, 0
1, 2743680, Note_on_c, 1, 35, 40
1, 2743920, Note_off_c, 1, 35, 0
1, 2743920, Note_on_c, 1, 32, 40
1, 2744040, Note_off_c, 1, 32, 0
1, 2744040, Note_on_c, 1, 30, 40
1, 2744160, Note_off_c, 1, 30, 0
1, 2744160, Note_on_c, 1, 28, 40
1, 2744400, Note_off_c, 1, 28, 0
1, 2744400, Note_on_c, 1, 35, 40
1, 2745360, Note_off_c, 1, 35, 0
1, 2745360, Note_on_c, 1, 39, 40
1, 2745600, Note_off_c, 1, 39, 0
1, 2745600, Note_on_c, 1, 42, 40
1, 2745840, Note_off_c, 1, 42, 0
1, 2745840, Note_on_c, 1, 39, 40
1, 2745960, Note_off_c, 1, 39, 0
1, 2745960, Note_on_c, 1, 37, 40
1, 2746080, Note_off_c, 1, 37, 0
1, 2746080, Note_on_c, 1, 35, 40
1, 2746320, Note_off_c, 1, 35, 0
1, 2746320, Note_on_c, 1, 28, 40
1, 2747160, Note_off_c, 1, 28, 0
1, 2747160, Note_on_c, 1, 28, 40
1, 2747280, Note_off_c, 1, 28, 0
1, 2747280, Note_on_c, 1, 32, 40
1, 2747520, Note_off_c, 1, 32, 0
1, 2747520, Note_on_c, 1, 35, 40
1, 2747760, Note_off_c, 1, 35, 0
1, 2747760, Note_on_c, 1, 32, 40
1, 2747880, Note_off_c, 1, 32, 0
1, 2747880, Note_on_c, 1, 30, 40
1, 2748000, Note_off_c, 1, 30, 0
1, 2748000, Note_on_c, 1, 28, 40
1, 2748240, Note_off_c, 1, 28, 0
1, 2748240, Note_on_c, 1, 30, 40
1, 2748720, Note_off_c, 1, 30, 0
1, 2748720, Note_on_c, 1, 30, 40
1, 2748960, Note_off_c, 1, 30, 0
1, 2748960, Note_on_c, 1, 30, 40
1, 2749200, Note_off_c, 1, 30, 0
1, 2749200, Note_on_c, 1, 30, 40
1, 2749680, Note_off_c, 1, 30, 0
1, 2749680, Note_on_c, 1, 30, 40
1, 2749920, Note_off_c, 1, 30, 0
1, 2749920, Note_on_c, 1, 30, 40
1, 2750160, Note_off_c, 1, 30, 0
1, 2750160, Note_on_c, 1, 30, 40
1, 2750640, Note_off_c, 1, 30, 0
1, 2750640, Note_on_c, 1, 30, 40
1, 2750880, Note_off_c, 1, 30, 0
1, 2750880, Note_on_c, 1, 30, 40
1, 2751120, Note_off_c, 1, 30, 0
1, 2751120, Note_on_c, 1, 34, 40
1, 2751360, Note_off_c, 1, 34, 0
1, 2751360, Note_on_c, 1, 37, 40
1, 2751600, Note_off_c, 1, 37, 0
1, 2751600, Note_on_c, 1, 39, 40
1, 2751720, Note_off_c, 1, 39, 0
1, 2751720, Note_on_c, 1, 37, 40
1, 2751840, Note_off_c, 1, 37, 0
1, 2751840, Note_on_c, 1, 34, 40
1, 2752080, Note_off_c, 1, 34, 0
1, 2752080, Note_on_c, 1, 32, 40
1, 2752560, Note_off_c, 1, 32, 0
1, 2752560, Note_on_c, 1, 32, 40
1, 2753040, Note_off_c, 1, 32, 0
1, 2753040, Note_on_c, 1, 32, 40
1, 2753520, Note_off_c, 1, 32, 0
1, 2753520, Note_on_c, 1, 32, 40
1, 2753760, Note_off_c, 1, 32, 0
1, 2753760, Note_on_c, 1, 30, 40
1, 2754000, Note_off_c, 1, 30, 0
1, 2754000, Note_on_c, 1, 28, 40
1, 2754480, Note_off_c, 1, 28, 0
1, 2754480, Note_on_c, 1, 28, 40
1, 2754960, Note_off_c, 1, 28, 0
1, 2754960, Note_on_c, 1, 28, 40
1, 2755440, Note_off_c, 1, 28, 0
1, 2755440, Note_on_c, 1, 28, 40
1, 2755680, Note_off_c, 1, 28, 0
1, 2755680, Note_on_c, 1, 30, 40
1, 2755920, Note_off_c, 1, 30, 0
1, 2755920, Note_on_c, 1, 32, 40
1, 2756400, Note_off_c, 1, 32, 0
1, 2756400, Note_on_c, 1, 32, 40
1, 2756880, Note_off_c, 1, 32, 0
1, 2756880, Note_on_c, 1, 32, 40
1, 2757360, Note_off_c, 1, 32, 0
1, 2757360, Note_on_c, 1, 32, 40
1, 2757600, Note_off_c, 1, 32, 0
1, 2757600, Note_on_c, 1, 30, 40
1, 2757840, Note_off_c, 1, 30, 0
1, 2757840, Note_on_c, 1, 28, 40
1, 2758320, Note_off_c, 1, 28, 0
1, 2758320, Note_on_c, 1, 28, 40
1, 2758800, Note_off_c, 1, 28, 0
1, 2758800, Note_on_c, 1, 28, 40
1, 2759280, Note_off_c, 1, 28, 0
1, 2759280, Note_on_c, 1, 28, 40
1, 2759520, Note_off_c, 1, 28, 0
1, 2759520, Note_on_c, 1, 30, 40
1, 2759760, Note_off_c, 1, 30, 0
1, 2759760, Note_on_c, 1, 32, 40
1, 2760240, Note_off_c, 1, 32, 0
1, 2760240, Note_on_c, 1, 32, 40
1, 2760720, Note_off_c, 1, 32, 0
1, 2760720, Note_on_c, 1, 32, 40
1, 2761200, Note_off_c, 1, 32, 0
1, 2761200, Note_on_c, 1, 32, 40
1, 2761680, Note_off_c, 1, 32, 0
1, 2761680, Note_on_c, 1, 25, 40
1, 2761920, Note_off_c, 1, 25, 0
1, 2761920, Note_on_c, 1, 27, 40
1, 2762160, Note_off_c, 1, 27, 0
1, 2762160, Note_on_c, 1, 28, 40
1, 2762400, Note_off_c, 1, 28, 0
1, 2762400, Note_on_c, 1, 25, 40
1, 2762640, Note_off_c, 1, 25, 0
1, 2762640, Note_on_c, 1, 30, 40
1, 2762880, Note_off_c, 1, 30, 0
1, 2762880, Note_on_c, 1, 28, 40
1, 2763120, Note_off_c, 1, 28, 0
1, 2763120, Note_on_c, 1, 27, 40
1, 2763360, Note_off_c, 1, 27, 0
1, 2763360, Note_on_c, 1, 25, 40
1, 2763600, Note_off_c, 1, 25, 0
1, 2763600, Note_on_c, 1, 35, 40
1, 2764080, Note_off_c, 1, 35, 0
1, 2764080, Note_on_c, 1, 35, 40
1, 2764440, Note_off_c, 1, 35, 0
1, 2764440, Note_on_c, 1, 30, 40
1, 2764560, Note_off_c, 1, 30, 0
1, 2764560, Note_on_c, 1, 32, 40
1, 2764800, Note_off_c, 1, 32, 0
1, 2764800, Note_on_c, 1, 35, 40
1, 2765040, Note_off_c, 1, 35, 0
1, 2765040, Note_on_c, 1, 32, 40
1, 2765280, Note_off_c, 1, 32, 0
1, 2765280, Note_on_c, 1, 28, 40
1, 2765520, Note_off_c, 1, 28, 0
1, 2765520, Note_on_c, 1, 30, 40
1, 2766000, Note_off_c, 1, 30, 0
1, 2766000, Note_on_c, 1, 30, 40
1, 2766360, Note_off_c, 1, 30, 0
1, 2766360, Note_on_c, 1, 30, 40
1, 2766480, Note_off_c, 1, 30, 0
1, 2766480, Note_on_c, 1, 34, 40
1, 2766720, Note_off_c, 1, 34, 0
1, 2766720, Note_on_c, 1, 37, 40
1, 2766960, Note_off_c, 1, 37, 0
1, 2766960, Note_on_c, 1, 34, 40
1, 2767200, Note_off_c, 1, 34, 0
1, 2767200, Note_on_c, 1, 30, 40
1, 2767440, Note_off_c, 1, 30, 0
1, 2767440, Note_on_c, 1, 35, 40
1, 2768400, Note_off_c, 1, 35, 0
1, 2768400, Note_on_c, 1, 39, 40
1, 2768640, Note_off_c, 1, 39, 0
1, 2768640, Note_on_c, 1, 42, 40
1, 2768880, Note_off_c, 1, 42, 0
1, 2768880, Note_on_c, 1, 39, 40
1, 2769000, Note_off_c, 1, 39, 0
1, 2769000, Note_on_c, 1, 37, 40
1, 2769120, Note_off_c, 1, 37, 0
1, 2769120, Note_on_c, 1, 35, 40
1, 2769360, Note_off_c, 1, 35, 0
1, 2769360, Note_on_c, 1, 28, 40
1, 2770200, Note_off_c, 1, 28, 0
1, 2770200, Note_on_c, 1, 28, 40
1, 2770320, Note_off_c, 1, 28, 0
1, 2770320, Note_on_c, 1, 32, 40
1, 2770560, Note_off_c, 1, 32, 0
1, 2770560, Note_on_c, 1, 35, 40
1, 2770800, Note_off_c, 1, 35, 0
1, 2770800, Note_on_c, 1, 32, 40
1, 2770920, Note_off_c, 1, 32, 0
1, 2770920, Note_on_c, 1, 30, 40
1, 2771040, Note_off_c, 1, 30, 0
1, 2771040, Note_on_c, 1, 28, 40
1, 2771280, Note_off_c, 1, 28, 0
1, 2771280, Note_on_c, 1, 35, 40
1, 2772240, Note_off_c, 1, 35, 0
1, 2772240, Note_on_c, 1, 39, 40
1, 2772480, Note_off_c, 1, 39, 0
1, 2772480, Note_on_c, 1, 42, 40
1, 2772720, Note_off_c, 1, 42, 0
1, 2772720, Note_on_c, 1, 39, 40
1, 2772840, Note_off_c, 1, 39, 0
1, 2772840, Note_on_c, 1, 37, 40
1, 2772960, Note_off_c, 1, 37, 0
1, 2772960, Note_on_c, 1, 35, 40
1, 2773200, Note_off_c, 1, 35, 0
1, 2773200, Note_on_c, 1, 28, 40
1, 2774040, Note_off_c, 1, 28, 0
1, 2774040, Note_on_c, 1, 28, 40
1, 2774160, Note_off_c, 1, 28, 0
1, 2774160, Note_on_c, 1, 32, 40
1, 2774400, Note_off_c, 1, 32, 0
1, 2774400, Note_on_c, 1, 35, 40
1, 2774640, Note_off_c, 1, 35, 0
1, 2774640, Note_on_c, 1, 32, 40
1, 2774760, Note_off_c, 1, 32, 0
1, 2774760, Note_on_c, 1, 30, 40
1, 2774880, Note_off_c, 1, 30, 0
1, 2774880, Note_on_c, 1, 28, 40
1, 2775120, Note_off_c, 1, 28, 0
1, 2775120, Note_on_c, 1, 35, 40
1, 2776080, Note_off_c, 1, 35, 0
1, 2776080, Note_on_c, 1, 39, 40
1, 2776320, Note_off_c, 1, 39, 0
1, 2776320, Note_on_c, 1, 42, 40
1, 2776560, Note_off_c, 1, 42, 0
1, 2776560, Note_on_c, 1, 39, 40
1, 2776680, Note_off_c, 1, 39, 0
1, 2776680, Note_on_c, 1, 37, 40
1, 2776800, Note_off_c, 1, 37, 0
1, 2776800, Note_on_c, 1, 35, 40
1, 2777040, Note_off_c, 1, 35, 0
1, 2777040, Note_on_c, 1, 28, 40
1, 2777880, Note_off_c, 1, 28, 0
1, 2777880, Note_on_c, 1, 28, 40
1, 2778000, Note_off_c, 1, 28, 0
1, 2778000, Note_on_c, 1, 32, 40
1, 2778240, Note_off_c, 1, 32, 0
1, 2778240, Note_on_c, 1, 35, 40
1, 2778480, Note_off_c, 1, 35, 0
1, 2778480, Note_on_c, 1, 32, 40
1, 2778600, Note_off_c, 1, 32, 0
1, 2778600, Note_on_c, 1, 30, 40
1, 2778720, Note_off_c, 1, 30, 0
1, 2778720, Note_on_c, 1, 28, 40
1, 2778960, Note_off_c, 1, 28, 0
1, 2778960, Note_on_c, 1, 30, 40
1, 2779440, Note_off_c, 1, 30, 0
1, 2779440, Note_on_c, 1, 30, 40
1, 2779680, Note_off_c, 1, 30, 0
1, 2779680, Note_on_c, 1, 30, 40
1, 2779920, Note_off_c, 1, 30, 0
1, 2779920, Note_on_c, 1, 30, 40
1, 2780400, Note_off_c, 1, 30, 0
1, 2780400, Note_on_c, 1, 30, 40
1, 2780640, Note_off_c, 1, 30, 0
1, 2780640, Note_on_c, 1, 30, 40
1, 2780880, Note_off_c, 1, 30, 0
1, 2780880, Note_on_c, 1, 30, 40
1, 2781360, Note_off_c, 1, 30, 0
1, 2781360, Note_on_c, 1, 30, 40
1, 2781600, Note_off_c, 1, 30, 0
1, 2781600, Note_on_c, 1, 30, 40
1, 2781840, Note_off_c, 1, 30, 0
1, 2781840, Note_on_c, 1, 34, 40
1, 2782080, Note_off_c, 1, 34, 0
1, 2782080, Note_on_c, 1, 37, 40
1, 2782320, Note_off_c, 1, 37, 0
1, 2782320, Note_on_c, 1, 39, 40
1, 2782440, Note_off_c, 1, 39, 0
1, 2782440, Note_on_c, 1, 37, 40
1, 2782560, Note_off_c, 1, 37, 0
1, 2782560, Note_on_c, 1, 34, 40
1, 2782800, Note_off_c, 1, 34, 0
1, 2782800, Note_on_c, 1, 32, 40
1, 2783280, Note_off_c, 1, 32, 0
1, 2783280, Note_on_c, 1, 32, 40
1, 2783760, Note_off_c, 1, 32, 0
1, 2783760, Note_on_c, 1, 32, 40
1, 2784240, Note_off_c, 1, 32, 0
1, 2784240, Note_on_c, 1, 32, 40
1, 2784480, Note_off_c, 1, 32, 0
1, 2784480, Note_on_c, 1, 30, 40
1, 2784720, Note_off_c, 1, 30, 0
1, 2784720, Note_on_c, 1, 28, 40
1, 2785200, Note_off_c, 1, 28, 0
1, 2785200, Note_on_c, 1, 28, 40
1, 2785680, Note_off_c, 1, 28, 0
1, 2785680, Note_on_c, 1, 28, 40
1, 2786160, Note_off_c, 1, 28, 0
1, 2786160, Note_on_c, 1, 28, 40
1, 2786400, Note_off_c, 1, 28, 0
1, 2786400, Note_on_c, 1, 30, 40
1, 2786640, Note_off_c, 1, 30, 0
1, 2786640, Note_on_c, 1, 32, 40
1, 2787120, Note_off_c, 1, 32, 0
1, 2787120, Note_on_c, 1, 32, 40
1, 2787600, Note_off_c, 1, 32, 0
1, 2787600, Note_on_c, 1, 32, 40
1, 2788080, Note_off_c, 1, 32, 0
1, 2788080, Note_on_c, 1, 32, 40
1, 2788320, Note_off_c, 1, 32, 0
1, 2788320, Note_on_c, 1, 30, 40
1, 2788560, Note_off_c, 1, 30, 0
1, 2788560, Note_on_c, 1, 28, 40
1, 2789040, Note_off_c, 1, 28, 0
1, 2789040, Note_on_c, 1, 28, 40
1, 2789520, Note_off_c, 1, 28, 0
1, 2789520, Note_on_c, 1, 28, 40
1, 2790000, Note_off_c, 1, 28, 0
1, 2790000, Note_on_c, 1, 28, 40
1, 2790240, Note_off_c, 1, 28, 0
1, 2790240, Note_on_c, 1, 30, 40
1, 2790480, Note_off_c, 1, 30, 0
1, 2790480, Note_on_c, 1, 32, 40
1, 2790960, Note_off_c, 1, 32, 0
1, 2790960, Note_on_c, 1, 32, 40
1, 2791440, Note_off_c, 1, 32, 0
1, 2791440, Note_on_c, 1, 32, 40
1, 2791920, Note_off_c, 1, 32, 0
1, 2791920, Note_on_c, 1, 32, 40
1, 2792400, Note_off_c, 1, 32, 0
1, 2792400, Note_on_c, 1, 25, 40
1, 2792640, Note_off_c, 1, 25, 0
1, 2792640, Note_on_c, 1, 27, 40
1, 2792880, Note_off_c, 1, 27, 0
1, 2792880, Note_on_c, 1, 28, 40
1, 2793120, Note_off_c, 1, 28, 0
1, 2793120, Note_on_c, 1, 25, 40
1, 2793360, Note_off_c, 1, 25, 0
1, 2793360, Note_on_c, 1, 30, 40
1, 2793600, Note_off_c, 1, 30, 0
1, 2793600, Note_on_c, 1, 28, 40
1, 2793840, Note_off_c, 1, 28, 0
1, 2793840, Note_on_c, 1, 27, 40
1, 2794080, Note_off_c, 1, 27, 0
1, 2794080, Note_on_c, 1, 25, 40
1, 2794320, Note_off_c, 1, 25, 0
1, 2794320, Note_on_c, 1, 35, 40
1, 2794800, Note_off_c, 1, 35, 0
1, 2794800, Note_on_c, 1, 35, 40
1, 2795280, Note_off_c, 1, 35, 0
1, 2795280, Note_on_c, 1, 28, 40
1, 2795520, Note_off_c, 1, 28, 0
1, 2795520, Note_on_c, 1, 28, 40
1, 2796000, Note_off_c, 1, 28, 0
1, 2796000, Note_on_c, 1, 28, 40
1, 2796240, Note_off_c, 1, 28, 0
1, 2796240, Note_on_c, 1, 30, 40
1, 2796480, Note_off_c, 1, 30, 0
1, 2798160, Note_on_c, 1, 35, 40
1, 2798640, Note_off_c, 1, 35, 0
1, 2798640, Note_on_c, 1, 35, 40
1, 2799120, Note_off_c, 1, 35, 0
1, 2799120, Note_on_c, 1, 28, 40
1, 2799360, Note_off_c, 1, 28, 0
1, 2799360, Note_on_c, 1, 28, 40
1, 2799600, Note_off_c, 1, 28, 0
1, 2799600, Note_on_c, 1, 32, 40
1, 2799840, Note_off_c, 1, 32, 0
1, 2799840, Note_on_c, 1, 28, 40
1, 2800080, Note_off_c, 1, 28, 0
1, 2800080, Note_on_c, 1, 30, 40
1, 2800560, Note_off_c, 1, 30, 0
1, 2800560, Note_on_c, 1, 30, 40
1, 2801040, Note_off_c, 1, 30, 0
1, 2801040, Note_on_c, 1, 30, 40
1, 2801280, Note_off_c, 1, 30, 0
1, 2801280, Note_on_c, 1, 30, 40
1, 2801760, Note_off_c, 1, 30, 0
1, 2801760, Note_on_c, 1, 30, 40
1, 2802000, Note_off_c, 1, 30, 0
1, 2802000, Note_on_c, 1, 35, 40
1, 2802480, Note_off_c, 1, 35, 0
1, 2802480, Note_on_c, 1, 39, 40
1, 2802720, Note_off_c, 1, 39, 0
1, 2802720, Note_on_c, 1, 42, 40
1, 2802960, Note_off_c, 1, 42, 0
1, 2802960, Note_on_c, 1, 28, 40
1, 2803200, Note_off_c, 1, 28, 0
1, 2803200, Note_on_c, 1, 28, 40
1, 2803440, Note_off_c, 1, 28, 0
1, 2803440, Note_on_c, 1, 32, 40
1, 2803680, Note_off_c, 1, 32, 0
1, 2803680, Note_on_c, 1, 35, 40
1, 2803920, Note_off_c, 1, 35, 0
1, 2803920, Note_on_c, 1, 30, 40
1, 2804160, Note_off_c, 1, 30, 0
1, 2804160, Note_on_c, 1, 30, 40
1, 2804400, Note_off_c, 1, 30, 0
1, 2804400, Note_on_c, 1, 34, 40
1, 2804640, Note_off_c, 1, 34, 0
1, 2804640, Note_on_c, 1, 34, 40
1, 2804880, Note_off_c, 1, 34, 0
1, 2804880, Note_on_c, 1, 37, 40
1, 2805120, Note_off_c, 1, 37, 0
1, 2805120, Note_on_c, 1, 37, 40
1, 2805360, Note_off_c, 1, 37, 0
1, 2805360, Note_on_c, 1, 37, 40
1, 2805840, Note_off_c, 1, 37, 0
1, 2805840, Note_on_c, 1, 35, 40
1, 2806320, Note_off_c, 1, 35, 0
1, 2806320, Note_on_c, 1, 35, 40
1, 2806800, Note_off_c, 1, 35, 0
1, 2806800, Note_on_c, 1, 28, 40
1, 2807040, Note_off_c, 1, 28, 0
1, 2807040, Note_on_c, 1, 28, 40
1, 2807280, Note_off_c, 1, 28, 0
1, 2807280, Note_on_c, 1, 32, 40
1, 2807520, Note_off_c, 1, 32, 0
1, 2807520, Note_on_c, 1, 28, 40
1, 2807760, Note_off_c, 1, 28, 0
1, 2807760, Note_on_c, 1, 30, 40
1, 2808240, Note_off_c, 1, 30, 0
1, 2808240, Note_on_c, 1, 30, 40
1, 2808720, Note_off_c, 1, 30, 0
1, 2808720, Note_on_c, 1, 30, 40
1, 2808960, Note_off_c, 1, 30, 0
1, 2808960, Note_on_c, 1, 30, 40
1, 2809440, Note_off_c, 1, 30, 0
1, 2809440, Note_on_c, 1, 30, 40
1, 2809680, Note_off_c, 1, 30, 0
1, 2809680, Note_on_c, 1, 35, 40
1, 2810160, Note_off_c, 1, 35, 0
1, 2810160, Note_on_c, 1, 39, 40
1, 2810400, Note_off_c, 1, 39, 0
1, 2810400, Note_on_c, 1, 42, 40
1, 2810640, Note_off_c, 1, 42, 0
1, 2810640, Note_on_c, 1, 28, 40
1, 2810880, Note_off_c, 1, 28, 0
1, 2810880, Note_on_c, 1, 28, 40
1, 2811120, Note_off_c, 1, 28, 0
1, 2811120, Note_on_c, 1, 32, 40
1, 2811360, Note_off_c, 1, 32, 0
1, 2811360, Note_on_c, 1, 35, 40
1, 2811600, Note_off_c, 1, 35, 0
1, 2811600, Note_on_c, 1, 30, 40
1, 2811840, Note_off_c, 1, 30, 0
1, 2811840, Note_on_c, 1, 30, 40
1, 2812080, Note_off_c, 1, 30, 0
1, 2812080, Note_on_c, 1, 34, 40
1, 2812320, Note_off_c, 1, 34, 0
1, 2812320, Note_on_c, 1, 34, 40
1, 2812560, Note_off_c, 1, 34, 0
1, 2812560, Note_on_c, 1, 37, 40
1, 2812800, Note_off_c, 1, 37, 0
1, 2812800, Note_on_c, 1, 37, 40
1, 2813040, Note_off_c, 1, 37, 0
1, 2813040, Note_on_c, 1, 37, 40
1, 2813520, Note_off_c, 1, 37, 0
1, 2813520, Note_on_c, 1, 35, 40
1, 2814000, Note_off_c, 1, 35, 0
1, 2814000, Note_on_c, 1, 35, 40
1, 2814480, Note_off_c, 1, 35, 0
1, 2814480, Note_on_c, 1, 28, 40
1, 2814720, Note_off_c, 1, 28, 0
1, 2814720, Note_on_c, 1, 28, 40
1, 2814960, Note_off_c, 1, 28, 0
1, 2814960, Note_on_c, 1, 32, 40
1, 2815200, Note_off_c, 1, 32, 0
1, 2815200, Note_on_c, 1, 28, 40
1, 2815440, Note_off_c, 1, 28, 0
1, 2815440, Note_on_c, 1, 30, 40
1, 2815920, Note_off_c, 1, 30, 0
1, 2815920, Note_on_c, 1, 30, 40
1, 2816400, Note_off_c, 1, 30, 0
1, 2816400, Note_on_c, 1, 30, 40
1, 2816640, Note_off_c, 1, 30, 0
1, 2816640, Note_on_c, 1, 30, 40
1, 2817120, Note_off_c, 1, 30, 0
1, 2817120, Note_on_c, 1, 30, 40
1, 2817360, Note_off_c, 1, 30, 0
1, 2817360, Note_on_c, 1, 35, 40
1, 2817840, Note_off_c, 1, 35, 0
1, 2817840, Note_on_c, 1, 39, 40
1, 2818080, Note_off_c, 1, 39, 0
1, 2818080, Note_on_c, 1, 42, 40
1, 2818320, Note_off_c, 1, 42, 0
1, 2818320, Note_on_c, 1, 28, 40
1, 2818560, Note_off_c, 1, 28, 0
1, 2818560, Note_on_c, 1, 28, 40
1, 2818800, Note_off_c, 1, 28, 0
1, 2818800, Note_on_c, 1, 32, 40
1, 2819040, Note_off_c, 1, 32, 0
1, 2819040, Note_on_c, 1, 35, 40
1, 2819280, Note_off_c, 1, 35, 0
1, 2819280, Note_on_c, 1, 30, 40
1, 2819520, Note_off_c, 1, 30, 0
1, 2819520, Note_on_c, 1, 30, 40
1, 2819760, Note_off_c, 1, 30, 0
1, 2819760, Note_on_c, 1, 34, 40
1, 2820000, Note_off_c, 1, 34, 0
1, 2820000, Note_on_c, 1, 34, 40
1, 2820240, Note_off_c, 1, 34, 0
1, 2820240, Note_on_c, 1, 37, 40
1, 2820480, Note_off_c, 1, 37, 0
1, 2820480, Note_on_c, 1, 37, 40
1, 2820720, Note_off_c, 1, 37, 0
1, 2820720, Note_on_c, 1, 37, 40
1, 2821200, Note_off_c, 1, 37, 0
1, 2821200, Note_on_c, 1, 35, 40
1, 2821680, Note_off_c, 1, 35, 0
1, 2821680, Note_on_c, 1, 35, 40
1, 2822160, Note_off_c, 1, 35, 0
1, 2822160, Note_on_c, 1, 28, 40
1, 2822400, Note_off_c, 1, 28, 0
1, 2822400, Note_on_c, 1, 28, 40
1, 2822640, Note_off_c, 1, 28, 0
1, 2822640, Note_on_c, 1, 32, 40
1, 2822880, Note_off_c, 1, 32, 0
1, 2822880, Note_on_c, 1, 28, 40
1, 2823120, Note_off_c, 1, 28, 0
1, 2823120, Note_on_c, 1, 30, 40
1, 2823600, Note_off_c, 1, 30, 0
1, 2823600, Note_on_c, 1, 30, 40
1, 2824080, Note_off_c, 1, 30, 0
1, 2824080, Note_on_c, 1, 30, 40
1, 2824320, Note_off_c, 1, 30, 0
1, 2824320, Note_on_c, 1, 30, 40
1, 2824800, Note_off_c, 1, 30, 0
1, 2824800, Note_on_c, 1, 30, 40
1, 2825040, Note_off_c, 1, 30, 0
1, 2825040, Note_on_c, 1, 35, 40
1, 2825520, Note_off_c, 1, 35, 0
1, 2825520, Note_on_c, 1, 39, 40
1, 2825760, Note_off_c, 1, 39, 0
1, 2825760, Note_on_c, 1, 42, 40
1, 2826000, Note_off_c, 1, 42, 0
1, 2826000, Note_on_c, 1, 28, 40
1, 2826240, Note_off_c, 1, 28, 0
1, 2826240, Note_on_c, 1, 28, 40
1, 2826480, Note_off_c, 1, 28, 0
1, 2826480, Note_on_c, 1, 32, 40
1, 2826720, Note_off_c, 1, 32, 0
1, 2826720, Note_on_c, 1, 35, 40
1, 2826960, Note_off_c, 1, 35, 0
1, 2826960, Note_on_c, 1, 30, 40
1, 2827200, Note_off_c, 1, 30, 0
1, 2827200, Note_on_c, 1, 30, 40
1, 2827440, Note_off_c, 1, 30, 0
1, 2827440, Note_on_c, 1, 34, 40
1, 2827680, Note_off_c, 1, 34, 0
1, 2827680, Note_on_c, 1, 34, 40
1, 2827920, Note_off_c, 1, 34, 0
1, 2827920, Note_on_c, 1, 37, 40
1, 2828160, Note_off_c, 1, 37, 0
1, 2828160, Note_on_c, 1, 37, 40
1, 2828400, Note_off_c, 1, 37, 0
1, 2828400, Note_on_c, 1, 37, 40
1, 2828880, Note_off_c, 1, 37, 0
1, 2828880, Note_on_c, 1, 35, 40
1, 2829360, Note_off_c, 1, 35, 0
1, 2829360, Note_on_c, 1, 35, 40
1, 2829840, Note_off_c, 1, 35, 0
1, 2829840, Note_on_c, 1, 28, 40
1, 2830080, Note_off_c, 1, 28, 0
1, 2830080, Note_on_c, 1, 28, 40
1, 2830320, Note_off_c, 1, 28, 0
1, 2830320, Note_on_c, 1, 32, 40
1, 2830560, Note_off_c, 1, 32, 0
1, 2830560, Note_on_c, 1, 28, 40
1, 2830800, Note_off_c, 1, 28, 0
1, 2830800, Note_on_c, 1, 30, 40
1, 2831280, Note_off_c, 1, 30, 0
1, 2831280, Note_on_c, 1, 30, 40
1, 2831760, Note_off_c, 1, 30, 0
1, 2831760, Note_on_c, 1, 30, 40
1, 2832000, Note_off_c, 1, 30, 0
1, 2832000, Note_on_c, 1, 30, 40
1, 2832480, Note_off_c, 1, 30, 0
1, 2832480, Note_on_c, 1, 30, 40
1, 2832720, Note_off_c, 1, 30, 0
1, 2832720, Note_on_c, 1, 35, 40
1, 2833200, Note_off_c, 1, 35, 0
1, 2833200, Note_on_c, 1, 39, 40
1, 2833440, Note_off_c, 1, 39, 0
1, 2833440, Note_on_c, 1, 42, 40
1, 2833680, Note_off_c, 1, 42, 0
1, 2833680, Note_on_c, 1, 28, 40
1, 2833920, Note_off_c, 1, 28, 0
1, 2833920, Note_on_c, 1, 28, 40
1, 2834160, Note_off_c, 1, 28, 0
1, 2834160, Note_on_c, 1, 32, 40
1, 2834400, Note_off_c, 1, 32, 0
1, 2834400, Note_on_c, 1, 35, 40
1, 2834640, Note_off_c, 1, 35, 0
1, 2834640, Note_on_c, 1, 30, 40
1, 2834880, Note_off_c, 1, 30, 0
1, 2834880, Note_on_c, 1, 30, 40
1, 2835120, Note_off_c, 1, 30, 0
1, 2835120, Note_on_c, 1, 34, 40
1, 2835360, Note_off_c, 1, 34, 0
1, 2835360, Note_on_c, 1, 34, 40
1, 2835600, Note_off_c, 1, 34, 0
1, 2835600, Note_on_c, 1, 37, 40
1, 2835840, Note_off_c, 1, 37, 0
1, 2835840, Note_on_c, 1, 37, 40
1, 2836080, Note_off_c, 1, 37, 0
1, 2836080, Note_on_c, 1, 37, 40
1, 2836560, Note_off_c, 1, 37, 0
1, 2836560, Note_on_c, 1, 35, 40
1, 2837040, Note_off_c, 1, 35, 0
1, 2837040, Note_on_c, 1, 35, 40
1, 2837520, Note_off_c, 1, 35, 0
1, 2837520, Note_on_c, 1, 28, 40
1, 2837760, Note_off_c, 1, 28, 0
1, 2837760, Note_on_c, 1, 28, 40
1, 2838000, Note_off_c, 1, 28, 0
1, 2838000, Note_on_c, 1, 32, 40
1, 2838240, Note_off_c, 1, 32, 0
1, 2838240, Note_on_c, 1, 28, 40
1, 2838480, Note_off_c, 1, 28, 0
1, 2838480, Note_on_c, 1, 30, 40
1, 2838960, Note_off_c, 1, 30, 0
1, 2838960, Note_on_c, 1, 30, 40
1, 2839440, Note_off_c, 1, 30, 0
1, 2839440, Note_on_c, 1, 30, 40
1, 2839680, Note_off_c, 1, 30, 0
1, 2839680, Note_on_c, 1, 30, 40
1, 2840160, Note_off_c, 1, 30, 0
1, 2840160, Note_on_c, 1, 30, 40
1, 2840400, Note_off_c, 1, 30, 0
1, 2840400, Note_on_c, 1, 35, 40
1, 2840880, Note_off_c, 1, 35, 0
1, 2840880, Note_on_c, 1, 39, 40
1, 2841120, Note_off_c, 1, 39, 0
1, 2841120, Note_on_c, 1, 42, 40
1, 2841360, Note_off_c, 1, 42, 0
1, 2841360, Note_on_c, 1, 28, 40
1, 2841600, Note_off_c, 1, 28, 0
1, 2841600, Note_on_c, 1, 28, 40
1, 2841840, Note_off_c, 1, 28, 0
1, 2841840, Note_on_c, 1, 32, 40
1, 2842080, Note_off_c, 1, 32, 0
1, 2842080, Note_on_c, 1, 35, 40
1, 2842320, Note_off_c, 1, 35, 0
1, 2842320, Note_on_c, 1, 30, 40
1, 2842560, Note_off_c, 1, 30, 0
1, 2842560, Note_on_c, 1, 30, 40
1, 2842800, Note_off_c, 1, 30, 0
1, 2842800, Note_on_c, 1, 34, 40
1, 2843040, Note_off_c, 1, 34, 0
1, 2843040, Note_on_c, 1, 34, 40
1, 2843280, Note_off_c, 1, 34, 0
1, 2843280, Note_on_c, 1, 37, 40
1, 2843520, Note_off_c, 1, 37, 0
1, 2843520, Note_on_c, 1, 37, 40
1, 2843760, Note_off_c, 1, 37, 0
1, 2843760, Note_on_c, 1, 37, 40
1, 2844240, Note_off_c, 1, 37, 0
1, 2850000, Note_on_c, 1, 50, 40
1, 2850120, Note_off_c, 1, 50, 0
1, 2850120, Note_on_c, 1, 50, 40
1, 2850240, Note_off_c, 1, 50, 0
1, 2850360, Note_on_c, 1, 50, 40
1, 2850480, Note_off_c, 1, 50, 0
1, 2850480, Note_on_c, 1, 50, 40
1, 2850600, Note_off_c, 1, 50, 0
1, 2850600, Note_on_c, 1, 50, 40
1, 2850720, Note_off_c, 1, 50, 0
1, 2850840, Note_on_c, 1, 50, 40
1, 2850960, Note_off_c, 1, 50, 0
1, 2850960, Note_on_c, 1, 50, 40
1, 2851080, Note_off_c, 1, 50, 0
1, 2851080, Note_on_c, 1, 50, 40
1, 2851200, Note_off_c, 1, 50, 0
1, 2851320, Note_on_c, 1, 50, 40
1, 2851440, Note_off_c, 1, 50, 0
1, 2851440, Note_on_c, 1, 50, 40
1, 2851560, Note_off_c, 1, 50, 0
1, 2851560, Note_on_c, 1, 50, 40
1, 2851680, Note_off_c, 1, 50, 0
1, 2851800, Note_on_c, 1, 50, 40
1, 2851920, Note_off_c, 1, 50, 0
1, 2851920, Note_on_c, 1, 50, 40
1, 2852040, Note_off_c, 1, 50, 0
1, 2852040, Note_on_c, 1, 50, 40
1, 2852160, Note_off_c, 1, 50, 0
1, 2852280, Note_on_c, 1, 50, 40
1, 2852400, Note_off_c, 1, 50, 0
1, 2852400, Note_on_c, 1, 50, 40
1, 2852520, Note_off_c, 1, 50, 0
1, 2852520, Note_on_c, 1, 50, 40
1, 2852640, Note_off_c, 1, 50, 0
1, 2852760, Note_on_c, 1, 50, 40
1, 2852880, Note_off_c, 1, 50, 0
1, 2852880, Note_on_c, 1, 50, 40
1, 2853000, Note_off_c, 1, 50, 0
1, 2853000, Note_on_c, 1, 50, 40
1, 2853120, Note_off_c, 1, 50, 0
1, 2853240, Note_on_c, 1, 50, 40
1, 2853360, Note_off_c, 1, 50, 0
1, 2853360, Note_on_c, 1, 50, 40
1, 2853480, Note_off_c, 1, 50, 0
1, 2853480, Note_on_c, 1, 50, 40
1, 2853600, Note_off_c, 1, 50, 0
1, 2853720, Note_on_c, 1, 50, 40
1, 2853840, Note_off_c, 1, 50, 0
1, 2853840, Note_on_c, 1, 50, 40
1, 2853960, Note_off_c, 1, 50, 0
1, 2853960, Note_on_c, 1, 50, 40
1, 2854080, Note_off_c, 1, 50, 0
1, 2854200, Note_on_c, 1, 50, 40
1, 2854320, Note_off_c, 1, 50, 0
1, 2854320, Note_on_c, 1, 50, 40
1, 2854440, Note_off_c, 1, 50, 0
1, 2854440, Note_on_c, 1, 50, 40
1, 2854560, Note_off_c, 1, 50, 0
1, 2854680, Note_on_c, 1, 50, 40
1, 2854800, Note_off_c, 1, 50, 0
1, 2854800, Note_on_c, 1, 50, 40
1, 2854920, Note_off_c, 1, 50, 0
1, 2854920, Note_on_c, 1, 50, 40
1, 2855040, Note_off_c, 1, 50, 0
1, 2855160, Note_on_c, 1, 50, 40
1, 2855280, Note_off_c, 1, 50, 0
1, 2855280, Note_on_c, 1, 50, 40
1, 2855400, Note_off_c, 1, 50, 0
1, 2855400, Note_on_c, 1, 50, 40
1, 2855520, Note_off_c, 1, 50, 0
1, 2855640, Note_on_c, 1, 50, 40
1, 2855760, Note_off_c, 1, 50, 0
1, 2855760, Note_on_c, 1, 50, 40
1, 2855880, Note_off_c, 1, 50, 0
1, 2855880, Note_on_c, 1, 50, 40
1, 2856000, Note_off_c, 1, 50, 0
1, 2856120, Note_on_c, 1, 50, 40
1, 2856240, Note_off_c, 1, 50, 0
1, 2856240, Note_on_c, 1, 50, 40
1, 2856360, Note_off_c, 1, 50, 0
1, 2856360, Note_on_c, 1, 50, 40
1, 2856480, Note_off_c, 1, 50, 0
1, 2856600, Note_on_c, 1, 50, 40
1, 2856720, Note_off_c, 1, 50, 0
1, 2856720, Note_on_c, 1, 50, 40
1, 2856840, Note_off_c, 1, 50, 0
1, 2856840, Note_on_c, 1, 50, 40
1, 2856960, Note_off_c, 1, 50, 0
1, 2857080, Note_on_c, 1, 50, 40
1, 2857200, Note_off_c, 1, 50, 0
1, 2857200, Note_on_c, 1, 50, 40
1, 2857320, Note_off_c, 1, 50, 0
1, 2857320, Note_on_c, 1, 50, 40
1, 2857440, Note_off_c, 1, 50, 0
1, 2857560, Note_on_c, 1, 50, 40
1, 2857680, Note_off_c, 1, 50, 0
1, 2857680, Note_on_c, 1, 50, 40
1, 2858160, Note_off_c, 1, 50, 0
1, 2858160, Note_on_c, 1, 47, 40
1, 2858640, Note_off_c, 1, 47, 0
1, 2858640, Note_on_c, 1, 45, 40
1, 2859120, Note_off_c, 1, 45, 0
1, 2859120, Note_on_c, 1, 42, 40
1, 2859600, Note_off_c, 1, 42, 0
1, 2859600, Note_on_c, 1, 40, 40
1, 2860080, Note_off_c, 1, 40, 0
1, 2860080, Note_on_c, 1, 44, 40
1, 2860560, Note_off_c, 1, 44, 0
1, 2860560, Note_on_c, 1, 47, 40
1, 2861040, Note_off_c, 1, 47, 0
1, 2861040, Note_on_c, 1, 44, 40
1, 2861520, Note_off_c, 1, 44, 0
1, 2861520, Note_on_c, 1, 43, 40
1, 2862000, Note_off_c, 1, 43, 0
1, 2862000, Note_on_c, 1, 47, 40
1, 2862480, Note_off_c, 1, 47, 0
1, 2862480, Note_on_c, 1, 50, 40
1, 2862960, Note_off_c, 1, 50, 0
1, 2862960, Note_on_c, 1, 47, 40
1, 2863440, Note_off_c, 1, 47, 0
1, 2863440, Note_on_c, 1, 50, 40
1, 2863920, Note_off_c, 1, 50, 0
1, 2863920, Note_on_c, 1, 47, 40
1, 2864400, Note_off_c, 1, 47, 0
1, 2864400, Note_on_c, 1, 45, 40
1, 2864880, Note_off_c, 1, 45, 0
1, 2864880, Note_on_c, 1, 42, 40
1, 2865360, Note_off_c, 1, 42, 0
1, 2865360, Note_on_c, 1, 50, 40
1, 2865840, Note_off_c, 1, 50, 0
1, 2865840, Note_on_c, 1, 47, 40
1, 2866320, Note_off_c, 1, 47, 0
1, 2866320, Note_on_c, 1, 45, 40
1, 2866800, Note_off_c, 1, 45, 0
1, 2866800, Note_on_c, 1, 42, 40
1, 2867280, Note_off_c, 1, 42, 0
1, 2867280, Note_on_c, 1, 40, 40
1, 2867760, Note_off_c, 1, 40, 0
1, 2867760, Note_on_c, 1, 44, 40
1, 2868240, Note_off_c, 1, 44, 0
1, 2868240, Note_on_c, 1, 47, 40
1, 2868720, Note_off_c, 1, 47, 0
1, 2868720, Note_on_c, 1, 44, 40
1, 2869200, Note_off_c, 1, 44, 0
1, 2869200, Note_on_c, 1, 43, 40
1, 2869680, Note_off_c, 1, 43, 0
1, 2869680, Note_on_c, 1, 47, 40
1, 2870160, Note_off_c, 1, 47, 0
1, 2870160, Note_on_c, 1, 50, 40
1, 2870640, Note_off_c, 1, 50, 0
1, 2870640, Note_on_c, 1, 47, 40
1, 2871120, Note_off_c, 1, 47, 0
1, 2871120, Note_on_c, 1, 50, 40
1, 2871600, Note_off_c, 1, 50, 0
1, 2871600, Note_on_c, 1, 47, 40
1, 2872080, Note_off_c, 1, 47, 0
1, 2872080, Note_on_c, 1, 45, 40
1, 2872560, Note_off_c, 1, 45, 0
1, 2872560, Note_on_c, 1, 42, 40
1, 2873040, Note_off_c, 1, 42, 0
1, 2873040, Note_on_c, 1, 47, 40
1, 2873520, Note_off_c, 1, 47, 0
1, 2873520, Note_on_c, 1, 47, 40
1, 2873760, Note_off_c, 1, 47, 0
1, 2873880, Note_on_c, 1, 47, 40
1, 2874000, Note_off_c, 1, 47, 0
1, 2874000, Note_on_c, 1, 47, 40
1, 2874240, Note_off_c, 1, 47, 0
1, 2874360, Note_on_c, 1, 47, 40
1, 2874480, Note_off_c, 1, 47, 0
1, 2874480, Note_on_c, 1, 47, 40
1, 2874720, Note_off_c, 1, 47, 0
1, 2874840, Note_on_c, 1, 47, 40
1, 2874960, Note_off_c, 1, 47, 0
1, 2874960, Note_on_c, 1, 43, 40
1, 2875440, Note_off_c, 1, 43, 0
1, 2875440, Note_on_c, 1, 43, 40
1, 2875680, Note_off_c, 1, 43, 0
1, 2875800, Note_on_c, 1, 43, 40
1, 2875920, Note_off_c, 1, 43, 0
1, 2875920, Note_on_c, 1, 43, 40
1, 2876160, Note_off_c, 1, 43, 0
1, 2876280, Note_on_c, 1, 43, 40
1, 2876400, Note_off_c, 1, 43, 0
1, 2876400, Note_on_c, 1, 43, 40
1, 2876640, Note_off_c, 1, 43, 0
1, 2876760, Note_on_c, 1, 43, 40
1, 2876880, Note_off_c, 1, 43, 0
1, 2876880, Note_on_c, 1, 47, 40
1, 2877360, Note_off_c, 1, 47, 0
1, 2877360, Note_on_c, 1, 47, 40
1, 2877600, Note_off_c, 1, 47, 0
1, 2877720, Note_on_c, 1, 47, 40
1, 2877840, Note_off_c, 1, 47, 0
1, 2877840, Note_on_c, 1, 47, 40
1, 2878080, Note_off_c, 1, 47, 0
1, 2878200, Note_on_c, 1, 47, 40
1, 2878320, Note_off_c, 1, 47, 0
1, 2878320, Note_on_c, 1, 47, 40
1, 2878560, Note_off_c, 1, 47, 0
1, 2878680, Note_on_c, 1, 47, 40
1, 2878800, Note_off_c, 1, 47, 0
1, 2878800, Note_on_c, 1, 40, 40
1, 2879280, Note_off_c, 1, 40, 0
1, 2879280, Note_on_c, 1, 40, 40
1, 2879520, Note_off_c, 1, 40, 0
1, 2879640, Note_on_c, 1, 40, 40
1, 2879760, Note_off_c, 1, 40, 0
1, 2879760, Note_on_c, 1, 40, 40
1, 2880000, Note_off_c, 1, 40, 0
1, 2880120, Note_on_c, 1, 40, 40
1, 2880240, Note_off_c, 1, 40, 0
1, 2880240, Note_on_c, 1, 40, 40
1, 2880480, Note_off_c, 1, 40, 0
1, 2880600, Note_on_c, 1, 40, 40
1, 2880720, Note_off_c, 1, 40, 0
1, 2880720, Note_on_c, 1, 50, 40
1, 2881200, Note_off_c, 1, 50, 0
1, 2881200, Note_on_c, 1, 47, 40
1, 2881680, Note_off_c, 1, 47, 0
1, 2881680, Note_on_c, 1, 45, 40
1, 2882160, Note_off_c, 1, 45, 0
1, 2882160, Note_on_c, 1, 42, 40
1, 2882640, Note_off_c, 1, 42, 0
1, 2882640, Note_on_c, 1, 40, 40
1, 2883120, Note_off_c, 1, 40, 0
1, 2883120, Note_on_c, 1, 44, 40
1, 2883600, Note_off_c, 1, 44, 0
1, 2883600, Note_on_c, 1, 47, 40
1, 2884080, Note_off_c, 1, 47, 0
1, 2884080, Note_on_c, 1, 44, 40
1, 2884560, Note_off_c, 1, 44, 0
1, 2884560, Note_on_c, 1, 43, 40
1, 2885040, Note_off_c, 1, 43, 0
1, 2885040, Note_on_c, 1, 47, 40
1, 2885520, Note_off_c, 1, 47, 0
1, 2885520, Note_on_c, 1, 50, 40
1, 2886000, Note_off_c, 1, 50, 0
1, 2886000, Note_on_c, 1, 47, 40
1, 2886480, Note_off_c, 1, 47, 0
1, 2886480, Note_on_c, 1, 50, 40
1, 2886960, Note_off_c, 1, 50, 0
1, 2886960, Note_on_c, 1, 47, 40
1, 2887440, Note_off_c, 1, 47, 0
1, 2887440, Note_on_c, 1, 45, 40
1, 2887920, Note_off_c, 1, 45, 0
1, 2887920, Note_on_c, 1, 42, 40
1, 2888400, Note_off_c, 1, 42, 0
1, 2888400, Note_on_c, 1, 50, 40
1, 2888880, Note_off_c, 1, 50, 0
1, 2888880, Note_on_c, 1, 47, 40
1, 2889360, Note_off_c, 1, 47, 0
1, 2889360, Note_on_c, 1, 45, 40
1, 2889840, Note_off_c, 1, 45, 0
1, 2889840, Note_on_c, 1, 42, 40
1, 2890320, Note_off_c, 1, 42, 0
1, 2890320, Note_on_c, 1, 40, 40
1, 2890800, Note_off_c, 1, 40, 0
1, 2890800, Note_on_c, 1, 44, 40
1, 2891280, Note_off_c, 1, 44, 0
1, 2891280, Note_on_c, 1, 47, 40
1, 2891760, Note_off_c, 1, 47, 0
1, 2891760, Note_on_c, 1, 44, 40
1, 2892240, Note_off_c, 1, 44, 0
1, 2892240, Note_on_c, 1, 43, 40
1, 2892720, Note_off_c, 1, 43, 0
1, 2892720, Note_on_c, 1, 47, 40
1, 2893200, Note_off_c, 1, 47, 0
1, 2893200, Note_on_c, 1, 50, 40
1, 2893680, Note_off_c, 1, 50, 0
1, 2893680, Note_on_c, 1, 47, 40
1, 2894160, Note_off_c, 1, 47, 0
1, 2894160, Note_on_c, 1, 50, 40
1, 2894640, Note_off_c, 1, 50, 0
1, 2894640, Note_on_c, 1, 47, 40
1, 2895120, Note_off_c, 1, 47, 0
1, 2895120, Note_on_c, 1, 45, 40
1, 2895600, Note_off_c, 1, 45, 0
1, 2895600, Note_on_c, 1, 42, 40
1, 2896080, Note_off_c, 1, 42, 0
1, 2896080, Note_on_c, 1, 50, 40
1, 2896560, Note_off_c, 1, 50, 0
1, 2896560, Note_on_c, 1, 47, 40
1, 2897040, Note_off_c, 1, 47, 0
1, 2897040, Note_on_c, 1, 45, 40
1, 2897520, Note_off_c, 1, 45, 0
1, 2897520, Note_on_c, 1, 42, 40
1, 2898000, Note_off_c, 1, 42, 0
1, 2898000, Note_on_c, 1, 40, 40
1, 2898480, Note_off_c, 1, 40, 0
1, 2898480, Note_on_c, 1, 44, 40
1, 2898960, Note_off_c, 1, 44, 0
1, 2898960, Note_on_c, 1, 47, 40
1, 2899440, Note_off_c, 1, 47, 0
1, 2899440, Note_on_c, 1, 44, 40
1, 2899920, Note_off_c, 1, 44, 0
1, 2899920, Note_on_c, 1, 43, 40
1, 2900400, Note_off_c, 1, 43, 0
1, 2900400, Note_on_c, 1, 47, 40
1, 2900880, Note_off_c, 1, 47, 0
1, 2900880, Note_on_c, 1, 50, 40
1, 2901360, Note_off_c, 1, 50, 0
1, 2901360, Note_on_c, 1, 47, 40
1, 2901840, Note_off_c, 1, 47, 0
1, 2901840, Note_on_c, 1, 50, 40
1, 2902320, Note_off_c, 1, 50, 0
1, 2902320, Note_on_c, 1, 47, 40
1, 2902800, Note_off_c, 1, 47, 0
1, 2902800, Note_on_c, 1, 45, 40
1, 2903280, Note_off_c, 1, 45, 0
1, 2903280, Note_on_c, 1, 42, 40
1, 2903760, Note_off_c, 1, 42, 0
1, 2903760, Note_on_c, 1, 47, 40
1, 2904240, Note_off_c, 1, 47, 0
1, 2904240, Note_on_c, 1, 47, 40
1, 2904480, Note_off_c, 1, 47, 0
1, 2904600, Note_on_c, 1, 47, 40
1, 2904720, Note_off_c, 1, 47, 0
1, 2904720, Note_on_c, 1, 47, 40
1, 2904960, Note_off_c, 1, 47, 0
1, 2905080, Note_on_c, 1, 47, 40
1, 2905200, Note_off_c, 1, 47, 0
1, 2905200, Note_on_c, 1, 47, 40
1, 2905440, Note_off_c, 1, 47, 0
1, 2905560, Note_on_c, 1, 47, 40
1, 2905680, Note_off_c, 1, 47, 0
1, 2905680, Note_on_c, 1, 43, 40
1, 2906160, Note_off_c, 1, 43, 0
1, 2906160, Note_on_c, 1, 43, 40
1, 2906400, Note_off_c, 1, 43, 0
1, 2906520, Note_on_c, 1, 43, 40
1, 2906640, Note_off_c, 1, 43, 0
1, 2906640, Note_on_c, 1, 43, 40
1, 2906880, Note_off_c, 1, 43, 0
1, 2907000, Note_on_c, 1, 43, 40
1, 2907120, Note_off_c, 1, 43, 0
1, 2907120, Note_on_c, 1, 43, 40
1, 2907360, Note_off_c, 1, 43, 0
1, 2907480, Note_on_c, 1, 43, 40
1, 2907600, Note_off_c, 1, 43, 0
1, 2907600, Note_on_c, 1, 47, 40
1, 2908080, Note_off_c, 1, 47, 0
1, 2908080, Note_on_c, 1, 47, 40
1, 2908320, Note_off_c, 1, 47, 0
1, 2908440, Note_on_c, 1, 47, 40
1, 2908560, Note_off_c, 1, 47, 0
1, 2908560, Note_on_c, 1, 47, 40
1, 2908800, Note_off_c, 1, 47, 0
1, 2908920, Note_on_c, 1, 47, 40
1, 2909040, Note_off_c, 1, 47, 0
1, 2909040, Note_on_c, 1, 47, 40
1, 2909280, Note_off_c, 1, 47, 0
1, 2909400, Note_on_c, 1, 47, 40
1, 2909520, Note_off_c, 1, 47, 0
1, 2909520, Note_on_c, 1, 40, 40
1, 2910000, Note_off_c, 1, 40, 0
1, 2910000, Note_on_c, 1, 40, 40
1, 2910240, Note_off_c, 1, 40, 0
1, 2910360, Note_on_c, 1, 40, 40
1, 2910480, Note_off_c, 1, 40, 0
1, 2910480, Note_on_c, 1, 40, 40
1, 2910720, Note_off_c, 1, 40, 0
1, 2910840, Note_on_c, 1, 40, 40
1, 2910960, Note_off_c, 1, 40, 0
1, 2910960, Note_on_c, 1, 40, 40
1, 2911200, Note_off_c, 1, 40, 0
1, 2911320, Note_on_c, 1, 40, 40
1, 2911440, Note_off_c, 1, 40, 0
1, 2911440, Note_on_c, 1, 50, 40
1, 2911920, Note_off_c, 1, 50, 0
1, 2911920, Note_on_c, 1, 47, 40
1, 2912400, Note_off_c, 1, 47, 0
1, 2912400, Note_on_c, 1, 45, 40
1, 2912880, Note_off_c, 1, 45, 0
1, 2912880, Note_on_c, 1, 42, 40
1, 2913360, Note_off_c, 1, 42, 0
1, 2913360, Note_on_c, 1, 40, 40
1, 2913840, Note_off_c, 1, 40, 0
1, 2913840, Note_on_c, 1, 44, 40
1, 2914320, Note_off_c, 1, 44, 0
1, 2914320, Note_on_c, 1, 47, 40
1, 2914800, Note_off_c, 1, 47, 0
1, 2914800, Note_on_c, 1, 44, 40
1, 2915280, Note_off_c, 1, 44, 0
1, 2915280, Note_on_c, 1, 43, 40
1, 2915760, Note_off_c, 1, 43, 0
1, 2915760, Note_on_c, 1, 47, 40
1, 2916240, Note_off_c, 1, 47, 0
1, 2916240, Note_on_c, 1, 50, 40
1, 2916720, Note_off_c, 1, 50, 0
1, 2916720, Note_on_c, 1, 47, 40
1, 2917200, Note_off_c, 1, 47, 0
1, 2917200, Note_on_c, 1, 50, 40
1, 2917680, Note_off_c, 1, 50, 0
1, 2917680, Note_on_c, 1, 47, 40
1, 2918160, Note_off_c, 1, 47, 0
1, 2918160, Note_on_c, 1, 45, 40
1, 2918640, Note_off_c, 1, 45, 0
1, 2918640, Note_on_c, 1, 42, 40
1, 2919120, Note_off_c, 1, 42, 0
1, 2919120, Note_on_c, 1, 45, 40
1, 2919600, Note_off_c, 1, 45, 0
1, 2919600, Note_on_c, 1, 45, 40
1, 2920080, Note_off_c, 1, 45, 0
1, 2920080, Note_on_c, 1, 45, 40
1, 2920560, Note_off_c, 1, 45, 0
1, 2920560, Note_on_c, 1, 45, 40
1, 2921040, Note_off_c, 1, 45, 0
1, 2921040, Note_on_c, 1, 45, 40
1, 2921520, Note_off_c, 1, 45, 0
1, 2921520, Note_on_c, 1, 45, 40
1, 2922000, Note_off_c, 1, 45, 0
1, 2922000, Note_on_c, 1, 45, 40
1, 2922480, Note_off_c, 1, 45, 0
1, 2922480, Note_on_c, 1, 45, 40
1, 2922960, Note_off_c, 1, 45, 0
1, 2922960, Note_on_c, 1, 47, 40
1, 2923440, Note_off_c, 1, 47, 0
1, 2923440, Note_on_c, 1, 47, 40
1, 2923920, Note_off_c, 1, 47, 0
1, 2923920, Note_on_c, 1, 47, 40
1, 2924400, Note_off_c, 1, 47, 0
1, 2924400, Note_on_c, 1, 47, 40
1, 2924880, Note_off_c, 1, 47, 0
1, 2924880, Note_on_c, 1, 47, 40
1, 2925360, Note_off_c, 1, 47, 0
1, 2925360, Note_on_c, 1, 47, 40
1, 2925840, Note_off_c, 1, 47, 0
1, 2925840, Note_on_c, 1, 47, 40
1, 2926320, Note_off_c, 1, 47, 0
1, 2926320, Note_on_c, 1, 47, 40
1, 2926800, Note_off_c, 1, 47, 0
1, 2926800, Note_on_c, 1, 40, 40
1, 2927280, Note_off_c, 1, 40, 0
1, 2927280, Note_on_c, 1, 40, 40
1, 2927760, Note_off_c, 1, 40, 0
1, 2927760, Note_on_c, 1, 40, 40
1, 2928240, Note_off_c, 1, 40, 0
1, 2928240, Note_on_c, 1, 40, 40
1, 2928720, Note_off_c, 1, 40, 0
1, 2928720, Note_on_c, 1, 40, 40
1, 2929200, Note_off_c, 1, 40, 0
1, 2929200, Note_on_c, 1, 40, 40
1, 2929680, Note_off_c, 1, 40, 0
1, 2929680, Note_on_c, 1, 40, 40
1, 2930160, Note_off_c, 1, 40, 0
1, 2930160, Note_on_c, 1, 40, 40
1, 2930640, Note_off_c, 1, 40, 0
1, 2930640, Note_on_c, 1, 43, 40
1, 2931120, Note_off_c, 1, 43, 0
1, 2931120, Note_on_c, 1, 43, 40
1, 2931600, Note_off_c, 1, 43, 0
1, 2931600, Note_on_c, 1, 43, 40
1, 2932080, Note_off_c, 1, 43, 0
1, 2932080, Note_on_c, 1, 43, 40
1, 2932560, Note_off_c, 1, 43, 0
1, 2932560, Note_on_c, 1, 45, 40
1, 2933040, Note_off_c, 1, 45, 0
1, 2933040, Note_on_c, 1, 45, 40
1, 2933520, Note_off_c, 1, 45, 0
1, 2933520, Note_on_c, 1, 45, 40
1, 2934000, Note_off_c, 1, 45, 0
1, 2934000, Note_on_c, 1, 45, 40
1, 2934480, Note_off_c, 1, 45, 0
1, 2934480, Note_on_c, 1, 50, 40
1, 2934960, Note_off_c, 1, 50, 0
1, 2934960, Note_on_c, 1, 47, 40
1, 2935440, Note_off_c, 1, 47, 0
1, 2935440, Note_on_c, 1, 45, 40
1, 2935920, Note_off_c, 1, 45, 0
1, 2935920, Note_on_c, 1, 42, 40
1, 2936400, Note_off_c, 1, 42, 0
1, 2936400, Note_on_c, 1, 40, 40
1, 2936880, Note_off_c, 1, 40, 0
1, 2936880, Note_on_c, 1, 44, 40
1, 2937360, Note_off_c, 1, 44, 0
1, 2937360, Note_on_c, 1, 47, 40
1, 2937840, Note_off_c, 1, 47, 0
1, 2937840, Note_on_c, 1, 44, 40
1, 2938320, Note_off_c, 1, 44, 0
1, 2938320, Note_on_c, 1, 43, 40
1, 2938800, Note_off_c, 1, 43, 0
1, 2938800, Note_on_c, 1, 47, 40
1, 2939280, Note_off_c, 1, 47, 0
1, 2939280, Note_on_c, 1, 50, 40
1, 2939760, Note_off_c, 1, 50, 0
1, 2939760, Note_on_c, 1, 47, 40
1, 2940240, Note_off_c, 1, 47, 0
1, 2940240, Note_on_c, 1, 50, 40
1, 2940720, Note_off_c, 1, 50, 0
1, 2940720, Note_on_c, 1, 47, 40
1, 2941200, Note_off_c, 1, 47, 0
1, 2941200, Note_on_c, 1, 45, 40
1, 2941680, Note_off_c, 1, 45, 0
1, 2941680, Note_on_c, 1, 42, 40
1, 2942160, Note_off_c, 1, 42, 0
1, 2942160, Note_on_c, 1, 50, 40
1, 2942640, Note_off_c, 1, 50, 0
1, 2942640, Note_on_c, 1, 47, 40
1, 2943120, Note_off_c, 1, 47, 0
1, 2943120, Note_on_c, 1, 45, 40
1, 2943600, Note_off_c, 1, 45, 0
1, 2943600, Note_on_c, 1, 42, 40
1, 2944080, Note_off_c, 1, 42, 0
1, 2944080, Note_on_c, 1, 40, 40
1, 2944560, Note_off_c, 1, 40, 0
1, 2944560, Note_on_c, 1, 44, 40
1, 2945040, Note_off_c, 1, 44, 0
1, 2945040, Note_on_c, 1, 47, 40
1, 2945520, Note_off_c, 1, 47, 0
1, 2945520, Note_on_c, 1, 44, 40
1, 2946000, Note_off_c, 1, 44, 0
1, 2946000, Note_on_c, 1, 43, 40
1, 2946480, Note_off_c, 1, 43, 0
1, 2946480, Note_on_c, 1, 47, 40
1, 2946960, Note_off_c, 1, 47, 0
1, 2946960, Note_on_c, 1, 50, 40
1, 2947440, Note_off_c, 1, 50, 0
1, 2947440, Note_on_c, 1, 47, 40
1, 2947920, Note_off_c, 1, 47, 0
1, 2947920, Note_on_c, 1, 50, 40
1, 2948400, Note_off_c, 1, 50, 0
1, 2948400, Note_on_c, 1, 47, 40
1, 2948880, Note_off_c, 1, 47, 0
1, 2948880, Note_on_c, 1, 45, 40
1, 2949360, Note_off_c, 1, 45, 0
1, 2949360, Note_on_c, 1, 42, 40
1, 2949840, Note_off_c, 1, 42, 0
1, 2949840, Note_on_c, 1, 47, 40
1, 2950320, Note_off_c, 1, 47, 0
1, 2950320, Note_on_c, 1, 47, 40
1, 2950560, Note_off_c, 1, 47, 0
1, 2950680, Note_on_c, 1, 47, 40
1, 2950800, Note_off_c, 1, 47, 0
1, 2950800, Note_on_c, 1, 47, 40
1, 2951040, Note_off_c, 1, 47, 0
1, 2951160, Note_on_c, 1, 47, 40
1, 2951280, Note_off_c, 1, 47, 0
1, 2951280, Note_on_c, 1, 47, 40
1, 2951520, Note_off_c, 1, 47, 0
1, 2951640, Note_on_c, 1, 47, 40
1, 2951760, Note_off_c, 1, 47, 0
1, 2951760, Note_on_c, 1, 43, 40
1, 2952240, Note_off_c, 1, 43, 0
1, 2952240, Note_on_c, 1, 43, 40
1, 2952480, Note_off_c, 1, 43, 0
1, 2952600, Note_on_c, 1, 43, 40
1, 2952720, Note_off_c, 1, 43, 0
1, 2952720, Note_on_c, 1, 43, 40
1, 2952960, Note_off_c, 1, 43, 0
1, 2953080, Note_on_c, 1, 43, 40
1, 2953200, Note_off_c, 1, 43, 0
1, 2953200, Note_on_c, 1, 43, 40
1, 2953440, Note_off_c, 1, 43, 0
1, 2953560, Note_on_c, 1, 43, 40
1, 2953680, Note_off_c, 1, 43, 0
1, 2953680, Note_on_c, 1, 47, 40
1, 2954160, Note_off_c, 1, 47, 0
1, 2954160, Note_on_c, 1, 47, 40
1, 2954400, Note_off_c, 1, 47, 0
1, 2954520, Note_on_c, 1, 47, 40
1, 2954640, Note_off_c, 1, 47, 0
1, 2954640, Note_on_c, 1, 47, 40
1, 2954880, Note_off_c, 1, 47, 0
1, 2955000, Note_on_c, 1, 47, 40
1, 2955120, Note_off_c, 1, 47, 0
1, 2955120, Note_on_c, 1, 47, 40
1, 2955360, Note_off_c, 1, 47, 0
1, 2955480, Note_on_c, 1, 47, 40
1, 2955600, Note_off_c, 1, 47, 0
1, 2955600, Note_on_c, 1, 40, 40
1, 2956080, Note_off_c, 1, 40, 0
1, 2956080, Note_on_c, 1, 40, 40
1, 2956320, Note_off_c, 1, 40, 0
1, 2956440, Note_on_c, 1, 40, 40
1, 2956560, Note_off_c, 1, 40, 0
1, 2956560, Note_on_c, 1, 40, 40
1, 2956800, Note_off_c, 1, 40, 0
1, 2956920, Note_on_c, 1, 40, 40
1, 2957040, Note_off_c, 1, 40, 0
1, 2957040, Note_on_c, 1, 40, 40
1, 2957280, Note_off_c, 1, 40, 0
1, 2957400, Note_on_c, 1, 40, 40
1, 2957520, Note_off_c, 1, 40, 0
1, 2957520, Note_on_c, 1, 50, 40
1, 2958000, Note_off_c, 1, 50, 0
1, 2958000, Note_on_c, 1, 47, 40
1, 2958480, Note_off_c, 1, 47, 0
1, 2958480, Note_on_c, 1, 45, 40
1, 2958960, Note_off_c, 1, 45, 0
1, 2958960, Note_on_c, 1, 42, 40
1, 2959440, Note_off_c, 1, 42, 0
1, 2959440, Note_on_c, 1, 40, 40
1, 2959920, Note_off_c, 1, 40, 0
1, 2959920, Note_on_c, 1, 44, 40
1, 2960400, Note_off_c, 1, 44, 0
1, 2960400, Note_on_c, 1, 47, 40
1, 2960880, Note_off_c, 1, 47, 0
1, 2960880, Note_on_c, 1, 44, 40
1, 2961360, Note_off_c, 1, 44, 0
1, 2961360, Note_on_c, 1, 43, 40
1, 2961840, Note_off_c, 1, 43, 0
1, 2961840, Note_on_c, 1, 47, 40
1, 2962320, Note_off_c, 1, 47, 0
1, 2962320, Note_on_c, 1, 50, 40
1, 2962800, Note_off_c, 1, 50, 0
1, 2962800, Note_on_c, 1, 47, 40
1, 2963280, Note_off_c, 1, 47, 0
1, 2963280, Note_on_c, 1, 50, 40
1, 2963760, Note_off_c, 1, 50, 0
1, 2963760, Note_on_c, 1, 47, 40
1, 2964240, Note_off_c, 1, 47, 0
1, 2964240, Note_on_c, 1, 45, 40
1, 2964720, Note_off_c, 1, 45, 0
1, 2964720, Note_on_c, 1, 42, 40
1, 2965200, Note_off_c, 1, 42, 0
1, 2965200, Note_on_c, 1, 45, 40
1, 2965680, Note_off_c, 1, 45, 0
1, 2965680, Note_on_c, 1, 45, 40
1, 2966160, Note_off_c, 1, 45, 0
1, 2966160, Note_on_c, 1, 45, 40
1, 2966640, Note_off_c, 1, 45, 0
1, 2966640, Note_on_c, 1, 45, 40
1, 2967120, Note_off_c, 1, 45, 0
1, 2967120, Note_on_c, 1, 45, 40
1, 2967600, Note_off_c, 1, 45, 0
1, 2967600, Note_on_c, 1, 45, 40
1, 2968080, Note_off_c, 1, 45, 0
1, 2968080, Note_on_c, 1, 45, 40
1, 2968560, Note_off_c, 1, 45, 0
1, 2968560, Note_on_c, 1, 45, 40
1, 2969040, Note_off_c, 1, 45, 0
1, 2969040, Note_on_c, 1, 47, 40
1, 2969520, Note_off_c, 1, 47, 0
1, 2969520, Note_on_c, 1, 47, 40
1, 2970000, Note_off_c, 1, 47, 0
1, 2970000, Note_on_c, 1, 47, 40
1, 2970480, Note_off_c, 1, 47, 0
1, 2970480, Note_on_c, 1, 47, 40
1, 2970960, Note_off_c, 1, 47, 0
1, 2970960, Note_on_c, 1, 47, 40
1, 2971440, Note_off_c, 1, 47, 0
1, 2971440, Note_on_c, 1, 47, 40
1, 2971920, Note_off_c, 1, 47, 0
1, 2971920, Note_on_c, 1, 47, 40
1, 2972400, Note_off_c, 1, 47, 0
1, 2972400, Note_on_c, 1, 47, 40
1, 2972880, Note_off_c, 1, 47, 0
1, 2972880, Note_on_c, 1, 40, 40
1, 2973360, Note_off_c, 1, 40, 0
1, 2973360, Note_on_c, 1, 40, 40
1, 2973840, Note_off_c, 1, 40, 0
1, 2973840, Note_on_c, 1, 40, 40
1, 2974320, Note_off_c, 1, 40, 0
1, 2974320, Note_on_c, 1, 40, 40
1, 2974800, Note_off_c, 1, 40, 0
1, 2974800, Note_on_c, 1, 40, 40
1, 2975280, Note_off_c, 1, 40, 0
1, 2975280, Note_on_c, 1, 40, 40
1, 2975760, Note_off_c, 1, 40, 0
1, 2975760, Note_on_c, 1, 40, 40
1, 2976240, Note_off_c, 1, 40, 0
1, 2976240, Note_on_c, 1, 40, 40
1, 2976720, Note_off_c, 1, 40, 0
1, 2976720, Note_on_c, 1, 43, 40
1, 2977200, Note_off_c, 1, 43, 0
1, 2977200, Note_on_c, 1, 43, 40
1, 2977680, Note_off_c, 1, 43, 0
1, 2977680, Note_on_c, 1, 43, 40
1, 2978160, Note_off_c, 1, 43, 0
1, 2978160, Note_on_c, 1, 43, 40
1, 2978640, Note_off_c, 1, 43, 0
1, 2978640, Note_on_c, 1, 45, 40
1, 2979120, Note_off_c, 1, 45, 0
1, 2979120, Note_on_c, 1, 45, 40
1, 2979600, Note_off_c, 1, 45, 0
1, 2979600, Note_on_c, 1, 45, 40
1, 2980080, Note_off_c, 1, 45, 0
1, 2980080, Note_on_c, 1, 45, 40
1, 2980560, Note_off_c, 1, 45, 0
1, 2980560, Note_on_c, 1, 50, 40
1, 2981040, Note_off_c, 1, 50, 0
1, 2981040, Note_on_c, 1, 47, 40
1, 2981520, Note_off_c, 1, 47, 0
1, 2981520, Note_on_c, 1, 45, 40
1, 2982000, Note_off_c, 1, 45, 0
1, 2982000, Note_on_c, 1, 42, 40
1, 2982480, Note_off_c, 1, 42, 0
1, 2982480, Note_on_c, 1, 40, 40
1, 2982960, Note_off_c, 1, 40, 0
1, 2982960, Note_on_c, 1, 44, 40
1, 2983440, Note_off_c, 1, 44, 0
1, 2983440, Note_on_c, 1, 47, 40
1, 2983920, Note_off_c, 1, 47, 0
1, 2983920, Note_on_c, 1, 44, 40
1, 2984400, Note_off_c, 1, 44, 0
1, 2984400, Note_on_c, 1, 43, 40
1, 2984880, Note_off_c, 1, 43, 0
1, 2984880, Note_on_c, 1, 47, 40
1, 2985360, Note_off_c, 1, 47, 0
1, 2985360, Note_on_c, 1, 50, 40
1, 2985840, Note_off_c, 1, 50, 0
1, 2985840, Note_on_c, 1, 47, 40
1, 2986320, Note_off_c, 1, 47, 0
1, 2986320, Note_on_c, 1, 50, 40
1, 2986800, Note_off_c, 1, 50, 0
1, 2986800, Note_on_c, 1, 47, 40
1, 2987280, Note_off_c, 1, 47, 0
1, 2987280, Note_on_c, 1, 45, 40
1, 2987760, Note_off_c, 1, 45, 0
1, 2987760, Note_on_c, 1, 42, 40
1, 2988240, Note_off_c, 1, 42, 0
1, 2988240, Note_on_c, 1, 50, 40
1, 2988720, Note_off_c, 1, 50, 0
1, 2988720, Note_on_c, 1, 47, 40
1, 2989200, Note_off_c, 1, 47, 0
1, 2989200, Note_on_c, 1, 45, 40
1, 2989680, Note_off_c, 1, 45, 0
1, 2989680, Note_on_c, 1, 42, 40
1, 2990160, Note_off_c, 1, 42, 0
1, 2990160, Note_on_c, 1, 40, 40
1, 2990640, Note_off_c, 1, 40, 0
1, 2990640, Note_on_c, 1, 44, 40
1, 2991120, Note_off_c, 1, 44, 0
1, 2991120, Note_on_c, 1, 47, 40
1, 2991600, Note_off_c, 1, 47, 0
1, 2991600, Note_on_c, 1, 44, 40
1, 2992080, Note_off_c, 1, 44, 0
1, 2992080, Note_on_c, 1, 43, 40
1, 2992560, Note_off_c, 1, 43, 0
1, 2992560, Note_on_c, 1, 47, 40
1, 2993040, Note_off_c, 1, 47, 0
1, 2993040, Note_on_c, 1, 50, 40
1, 2993520, Note_off_c, 1, 50, 0
1, 2993520, Note_on_c, 1, 47, 40
1, 2994000, Note_off_c, 1, 47, 0
1, 2994000, Note_on_c, 1, 50, 40
1, 2994480, Note_off_c, 1, 50, 0
1, 2994480, Note_on_c, 1, 47, 40
1, 2994960, Note_off_c, 1, 47, 0
1, 2994960, Note_on_c, 1, 45, 40
1, 2995440, Note_off_c, 1, 45, 0
1, 2995440, Note_on_c, 1, 42, 40
1, 2995920, Note_off_c, 1, 42, 0
1, 2995920, Note_on_c, 1, 47, 40
1, 2996400, Note_off_c, 1, 47, 0
1, 2996400, Note_on_c, 1, 47, 40
1, 2996640, Note_off_c, 1, 47, 0
1, 2996760, Note_on_c, 1, 47, 40
1, 2996880, Note_off_c, 1, 47, 0
1, 2996880, Note_on_c, 1, 47, 40
1, 2997120, Note_off_c, 1, 47, 0
1, 2997240, Note_on_c, 1, 47, 40
1, 2997360, Note_off_c, 1, 47, 0
1, 2997360, Note_on_c, 1, 47, 40
1, 2997600, Note_off_c, 1, 47, 0
1, 2997720, Note_on_c, 1, 47, 40
1, 2997840, Note_off_c, 1, 47, 0
1, 2997840, Note_on_c, 1, 43, 40
1, 2998320, Note_off_c, 1, 43, 0
1, 2998320, Note_on_c, 1, 43, 40
1, 2998560, Note_off_c, 1, 43, 0
1, 2998680, Note_on_c, 1, 43, 40
1, 2998800, Note_off_c, 1, 43, 0
1, 2998800, Note_on_c, 1, 43, 40
1, 2999040, Note_off_c, 1, 43, 0
1, 2999160, Note_on_c, 1, 43, 40
1, 2999280, Note_off_c, 1, 43, 0
1, 2999280, Note_on_c, 1, 43, 40
1, 2999520, Note_off_c, 1, 43, 0
1, 2999640, Note_on_c, 1, 43, 40
1, 2999760, Note_off_c, 1, 43, 0
1, 2999760, Note_on_c, 1, 47, 40
1, 3000240, Note_off_c, 1, 47, 0
1, 3000240, Note_on_c, 1, 47, 40
1, 3000480, Note_off_c, 1, 47, 0
1, 3000600, Note_on_c, 1, 47, 40
1, 3000720, Note_off_c, 1, 47, 0
1, 3000720, Note_on_c, 1, 47, 40
1, 3000960, Note_off_c, 1, 47, 0
1, 3001080, Note_on_c, 1, 47, 40
1, 3001200, Note_off_c, 1, 47, 0
1, 3001200, Note_on_c, 1, 47, 40
1, 3001440, Note_off_c, 1, 47, 0
1, 3001560, Note_on_c, 1, 47, 40
1, 3001680, Note_off_c, 1, 47, 0
1, 3001680, Note_on_c, 1, 40, 40
1, 3002160, Note_off_c, 1, 40, 0
1, 3002160, Note_on_c, 1, 40, 40
1, 3002400, Note_off_c, 1, 40, 0
1, 3002520, Note_on_c, 1, 40, 40
1, 3002640, Note_off_c, 1, 40, 0
1, 3002640, Note_on_c, 1, 40, 40
1, 3002880, Note_off_c, 1, 40, 0
1, 3003000, Note_on_c, 1, 40, 40
1, 3003120, Note_off_c, 1, 40, 0
1, 3003120, Note_on_c, 1, 40, 40
1, 3003360, Note_off_c, 1, 40, 0
1, 3003480, Note_on_c, 1, 40, 40
1, 3003600, Note_off_c, 1, 40, 0
1, 3003600, Note_on_c, 1, 50, 40
1, 3004080, Note_off_c, 1, 50, 0
1, 3004080, Note_on_c, 1, 47, 40
1, 3004560, Note_off_c, 1, 47, 0
1, 3004560, Note_on_c, 1, 45, 40
1, 3005040, Note_off_c, 1, 45, 0
1, 3005040, Note_on_c, 1, 42, 40
1, 3005520, Note_off_c, 1, 42, 0
1, 3005520, Note_on_c, 1, 40, 40
1, 3006000, Note_off_c, 1, 40, 0
1, 3006000, Note_on_c, 1, 44, 40
1, 3006480, Note_off_c, 1, 44, 0
1, 3006480, Note_on_c, 1, 47, 40
1, 3006960, Note_off_c, 1, 47, 0
1, 3006960, Note_on_c, 1, 44, 40
1, 3007440, Note_off_c, 1, 44, 0
1, 3007440, Note_on_c, 1, 43, 40
1, 3007920, Note_off_c, 1, 43, 0
1, 3007920, Note_on_c, 1, 47, 40
1, 3008400, Note_off_c, 1, 47, 0
1, 3008400, Note_on_c, 1, 50, 40
1, 3008880, Note_off_c, 1, 50, 0
1, 3008880, Note_on_c, 1, 47, 40
1, 3009360, Note_off_c, 1, 47, 0
1, 3009360, Note_on_c, 1, 50, 40
1, 3009840, Note_off_c, 1, 50, 0
1, 3009840, Note_on_c, 1, 47, 40
1, 3010320, Note_off_c, 1, 47, 0
1, 3010320, Note_on_c, 1, 45, 40
1, 3010800, Note_off_c, 1, 45, 0
1, 3010800, Note_on_c, 1, 42, 40
1, 3011280, Note_off_c, 1, 42, 0
1, 3011280, Note_on_c, 1, 43, 40
1, 3011760, Note_off_c, 1, 43, 0
1, 3011760, Note_on_c, 1, 47, 40
1, 3012240, Note_off_c, 1, 47, 0
1, 3012240, Note_on_c, 1, 50, 40
1, 3012720, Note_off_c, 1, 50, 0
1, 3012720, Note_on_c, 1, 47, 40
1, 3013200, Note_off_c, 1, 47, 0
1, 3013200, Note_on_c, 1, 50, 40
1, 3013680, Note_off_c, 1, 50, 0
1, 3013680, Note_on_c, 1, 47, 40
1, 3014160, Note_off_c, 1, 47, 0
1, 3014160, Note_on_c, 1, 45, 40
1, 3014640, Note_off_c, 1, 45, 0
1, 3014640, Note_on_c, 1, 42, 40
1, 3015120, Note_off_c, 1, 42, 0
1, 3015120, Note_on_c, 1, 43, 40
1, 3015600, Note_off_c, 1, 43, 0
1, 3015600, Note_on_c, 1, 47, 40
1, 3016080, Note_off_c, 1, 47, 0
1, 3016080, Note_on_c, 1, 50, 40
1, 3016560, Note_off_c, 1, 50, 0
1, 3016560, Note_on_c, 1, 47, 40
1, 3017040, Note_off_c, 1, 47, 0
1, 3017040, Note_on_c, 1, 50, 40
1, 3017520, Note_off_c, 1, 50, 0
1, 3017520, Note_on_c, 1, 47, 40
1, 3018000, Note_off_c, 1, 47, 0
1, 3018000, Note_on_c, 1, 45, 40
1, 3018480, Note_off_c, 1, 45, 0
1, 3018480, Note_on_c, 1, 42, 40
1, 3018960, Note_off_c, 1, 42, 0
1, 3018960, Note_on_c, 1, 50, 40
1, 3019080, Note_off_c, 1, 50, 0
1, 3019080, Note_on_c, 1, 50, 40
1, 3019200, Note_off_c, 1, 50, 0
1, 3019320, Note_on_c, 1, 50, 40
1, 3019440, Note_off_c, 1, 50, 0
1, 3019440, Note_on_c, 1, 50, 40
1, 3019560, Note_off_c, 1, 50, 0
1, 3019560, Note_on_c, 1, 50, 40
1, 3019680, Note_off_c, 1, 50, 0
1, 3019800, Note_on_c, 1, 50, 40
1, 3019920, Note_off_c, 1, 50, 0
1, 3019920, Note_on_c, 1, 50, 40
1, 3020040, Note_off_c, 1, 50, 0
1, 3020040, Note_on_c, 1, 50, 40
1, 3020160, Note_off_c, 1, 50, 0
1, 3020280, Note_on_c, 1, 50, 40
1, 3020400, Note_off_c, 1, 50, 0
1, 3020400, Note_on_c, 1, 50, 40
1, 3020520, Note_off_c, 1, 50, 0
1, 3020520, Note_on_c, 1, 50, 40
1, 3020640, Note_off_c, 1, 50, 0
1, 3020760, Note_on_c, 1, 50, 40
1, 3020880, Note_off_c, 1, 50, 0
1, 3020880, Note_on_c, 1, 50, 40
1, 3021000, Note_off_c, 1, 50, 0
1, 3021000, Note_on_c, 1, 50, 40
1, 3021120, Note_off_c, 1, 50, 0
1, 3021240, Note_on_c, 1, 50, 40
1, 3021360, Note_off_c, 1, 50, 0
1, 3021360, Note_on_c, 1, 50, 40
1, 3021480, Note_off_c, 1, 50, 0
1, 3021480, Note_on_c, 1, 50, 40
1, 3021600, Note_off_c, 1, 50, 0
1, 3021720, Note_on_c, 1, 50, 40
1, 3021840, Note_off_c, 1, 50, 0
1, 3021840, Note_on_c, 1, 50, 40
1, 3021960, Note_off_c, 1, 50, 0
1, 3021960, Note_on_c, 1, 50, 40
1, 3022080, Note_off_c, 1, 50, 0
1, 3022200, Note_on_c, 1, 50, 40
1, 3022320, Note_off_c, 1, 50, 0
1, 3022320, Note_on_c, 1, 50, 40
1, 3022440, Note_off_c, 1, 50, 0
1, 3022440, Note_on_c, 1, 50, 40
1, 3022560, Note_off_c, 1, 50, 0
1, 3022680, Note_on_c, 1, 50, 40
1, 3022800, Note_off_c, 1, 50, 0
1, 3022800, Note_on_c, 1, 50, 40
1, 3022920, Note_off_c, 1, 50, 0
1, 3022920, Note_on_c, 1, 50, 40
1, 3023040, Note_off_c, 1, 50, 0
1, 3023160, Note_on_c, 1, 50, 40
1, 3023280, Note_off_c, 1, 50, 0
1, 3023280, Note_on_c, 1, 50, 40
1, 3023400, Note_off_c, 1, 50, 0
1, 3023400, Note_on_c, 1, 50, 40
1, 3023520, Note_off_c, 1, 50, 0
1, 3023640, Note_on_c, 1, 50, 40
1, 3023760, Note_off_c, 1, 50, 0
1, 3023760, Note_on_c, 1, 50, 40
1, 3023880, Note_off_c, 1, 50, 0
1, 3023880, Note_on_c, 1, 50, 40
1, 3024000, Note_off_c, 1, 50, 0
1, 3024120, Note_on_c, 1, 50, 40
1, 3024240, Note_off_c, 1, 50, 0
1, 3024240, Note_on_c, 1, 50, 40
1, 3024360, Note_off_c, 1, 50, 0
1, 3024360, Note_on_c, 1, 50, 40
1, 3024480, Note_off_c, 1, 50, 0
1, 3024600, Note_on_c, 1, 50, 40
1, 3024720, Note_off_c, 1, 50, 0
1, 3024720, Note_on_c, 1, 50, 40
1, 3026640, Note_off_c, 1, 50, 0
1, 3032400, Note_on_c, 1, 33, 40
1, 3033120, Note_off_c, 1, 33, 0
1, 3033120, Note_on_c, 1, 33, 40
1, 3033360, Note_off_c, 1, 33, 0
1, 3033360, Note_on_c, 1, 33, 40
1, 3034320, Note_off_c, 1, 33, 0
1, 3034320, Note_on_c, 1, 26, 40
1, 3034800, Note_off_c, 1, 26, 0
1, 3034800, Note_on_c, 1, 28, 40
1, 3035280, Note_off_c, 1, 28, 0
1, 3035280, Note_on_c, 1, 28, 40
1, 3036000, Note_off_c, 1, 28, 0
1, 3036000, Note_on_c, 1, 28, 40
1, 3036240, Note_off_c, 1, 28, 0
1, 3036240, Note_on_c, 1, 33, 40
1, 3036960, Note_off_c, 1, 33, 0
1, 3036960, Note_on_c, 1, 33, 40
1, 3037200, Note_off_c, 1, 33, 0
1, 3037200, Note_on_c, 1, 33, 40
1, 3038160, Note_off_c, 1, 33, 0
1, 3038160, Note_on_c, 1, 31, 40
1, 3038640, Note_off_c, 1, 31, 0
1, 3038640, Note_on_c, 1, 26, 40
1, 3039600, Note_off_c, 1, 26, 0
1, 3039600, Note_on_c, 1, 25, 40
1, 3040080, Note_off_c, 1, 25, 0
1, 3040080, Note_on_c, 1, 23, 40
1, 3040800, Note_off_c, 1, 23, 0
1, 3040800, Note_on_c, 1, 23, 40
1, 3041040, Note_off_c, 1, 23, 0
1, 3041040, Note_on_c, 1, 21, 40
1, 3041760, Note_off_c, 1, 21, 0
1, 3041760, Note_on_c, 1, 21, 40
1, 3042000, Note_off_c, 1, 21, 0
1, 3042000, Note_on_c, 1, 28, 40
1, 3042720, Note_off_c, 1, 28, 0
1, 3042720, Note_on_c, 1, 28, 40
1, 3042960, Note_off_c, 1, 28, 0
1, 3042960, Note_on_c, 1, 33, 40
1, 3043440, Note_off_c, 1, 33, 0
1, 3043440, Note_on_c, 1, 28, 40
1, 3043920, Note_off_c, 1, 28, 0
1, 3043920, Note_on_c, 1, 33, 40
1, 3044640, Note_off_c, 1, 33, 0
1, 3044640, Note_on_c, 1, 33, 40
1, 3044880, Note_off_c, 1, 33, 0
1, 3044880, Note_on_c, 1, 33, 40
1, 3045840, Note_off_c, 1, 33, 0
1, 3045840, Note_on_c, 1, 26, 40
1, 3046320, Note_off_c, 1, 26, 0
1, 3046320, Note_on_c, 1, 28, 40
1, 3046800, Note_off_c, 1, 28, 0
1, 3046800, Note_on_c, 1, 28, 40
1, 3047520, Note_off_c, 1, 28, 0
1, 3047520, Note_on_c, 1, 28, 40
1, 3047760, Note_off_c, 1, 28, 0
1, 3047760, Note_on_c, 1, 33, 40
1, 3048480, Note_off_c, 1, 33, 0
1, 3048480, Note_on_c, 1, 33, 40
1, 3048720, Note_off_c, 1, 33, 0
1, 3048720, Note_on_c, 1, 33, 40
1, 3049680, Note_off_c, 1, 33, 0
1, 3049680, Note_on_c, 1, 31, 40
1, 3050160, Note_off_c, 1, 31, 0
1, 3050160, Note_on_c, 1, 26, 40
1, 3051120, Note_off_c, 1, 26, 0
1, 3051120, Note_on_c, 1, 25, 40
1, 3051600, Note_off_c, 1, 25, 0
1, 3051600, Note_on_c, 1, 23, 40
1, 3052320, Note_off_c, 1, 23, 0
1, 3052320, Note_on_c, 1, 23, 40
1, 3052560, Note_off_c, 1, 23, 0
1, 3052560, Note_on_c, 1, 21, 40
1, 3053280, Note_off_c, 1, 21, 0
1, 3053280, Note_on_c, 1, 21, 40
1, 3053520, Note_off_c, 1, 21, 0
1, 3053520, Note_on_c, 1, 28, 40
1, 3054240, Note_off_c, 1, 28, 0
1, 3054240, Note_on_c, 1, 28, 40
1, 3054480, Note_off_c, 1, 28, 0
1, 3054480, Note_on_c, 1, 33, 40
1, 3054960, Note_off_c, 1, 33, 0
1, 3054960, Note_on_c, 1, 28, 40
1, 3055440, Note_off_c, 1, 28, 0
1, 3055440, Note_on_c, 1, 33, 40
1, 3055680, Note_off_c, 1, 33, 0
1, 3055680, Note_on_c, 1, 33, 40
1, 3055920, Note_off_c, 1, 33, 0
1, 3055920, Note_on_c, 1, 33, 40
1, 3056160, Note_off_c, 1, 33, 0
1, 3056160, Note_on_c, 1, 33, 40
1, 3056400, Note_off_c, 1, 33, 0
1, 3056400, Note_on_c, 1, 33, 40
1, 3056640, Note_off_c, 1, 33, 0
1, 3056640, Note_on_c, 1, 33, 40
1, 3056880, Note_off_c, 1, 33, 0
1, 3056880, Note_on_c, 1, 33, 40
1, 3057120, Note_off_c, 1, 33, 0
1, 3057120, Note_on_c, 1, 33, 40
1, 3057360, Note_off_c, 1, 33, 0
1, 3057360, Note_on_c, 1, 31, 40
1, 3057600, Note_off_c, 1, 31, 0
1, 3057600, Note_on_c, 1, 31, 40
1, 3057840, Note_off_c, 1, 31, 0
1, 3057840, Note_on_c, 1, 31, 40
1, 3058080, Note_off_c, 1, 31, 0
1, 3058080, Note_on_c, 1, 31, 40
1, 3058320, Note_off_c, 1, 31, 0
1, 3058320, Note_on_c, 1, 31, 40
1, 3058560, Note_off_c, 1, 31, 0
1, 3058560, Note_on_c, 1, 31, 40
1, 3058800, Note_off_c, 1, 31, 0
1, 3058800, Note_on_c, 1, 31, 40
1, 3059040, Note_off_c, 1, 31, 0
1, 3059040, Note_on_c, 1, 26, 40
1, 3059280, Note_off_c, 1, 26, 0
1, 3059280, Note_on_c, 1, 31, 40
1, 3059520, Note_off_c, 1, 31, 0
1, 3059520, Note_on_c, 1, 31, 40
1, 3059760, Note_off_c, 1, 31, 0
1, 3059760, Note_on_c, 1, 31, 40
1, 3060000, Note_off_c, 1, 31, 0
1, 3060000, Note_on_c, 1, 31, 40
1, 3060240, Note_off_c, 1, 31, 0
1, 3060240, Note_on_c, 1, 31, 40
1, 3060480, Note_off_c, 1, 31, 0
1, 3060480, Note_on_c, 1, 31, 40
1, 3060720, Note_off_c, 1, 31, 0
1, 3060720, Note_on_c, 1, 31, 40
1, 3060960, Note_off_c, 1, 31, 0
1, 3060960, Note_on_c, 1, 31, 40
1, 3061200, Note_off_c, 1, 31, 0
1, 3061200, Note_on_c, 1, 33, 40
1, 3061440, Note_off_c, 1, 33, 0
1, 3061440, Note_on_c, 1, 33, 40
1, 3061680, Note_off_c, 1, 33, 0
1, 3061680, Note_on_c, 1, 33, 40
1, 3061920, Note_off_c, 1, 33, 0
1, 3061920, Note_on_c, 1, 33, 40
1, 3062160, Note_off_c, 1, 33, 0
1, 3062160, Note_on_c, 1, 33, 40
1, 3062400, Note_off_c, 1, 33, 0
1, 3062400, Note_on_c, 1, 33, 40
1, 3062640, Note_off_c, 1, 33, 0
1, 3062640, Note_on_c, 1, 33, 40
1, 3062880, Note_off_c, 1, 33, 0
1, 3062880, Note_on_c, 1, 33, 40
1, 3063120, Note_off_c, 1, 33, 0
1, 3063120, Note_on_c, 1, 33, 40
1, 3063360, Note_off_c, 1, 33, 0
1, 3063360, Note_on_c, 1, 33, 40
1, 3063600, Note_off_c, 1, 33, 0
1, 3063600, Note_on_c, 1, 33, 40
1, 3063840, Note_off_c, 1, 33, 0
1, 3063840, Note_on_c, 1, 33, 40
1, 3064080, Note_off_c, 1, 33, 0
1, 3064080, Note_on_c, 1, 33, 40
1, 3064320, Note_off_c, 1, 33, 0
1, 3064320, Note_on_c, 1, 33, 40
1, 3064560, Note_off_c, 1, 33, 0
1, 3064560, Note_on_c, 1, 33, 40
1, 3064800, Note_off_c, 1, 33, 0
1, 3064800, Note_on_c, 1, 33, 40
1, 3065040, Note_off_c, 1, 33, 0
1, 3065040, Note_on_c, 1, 31, 40
1, 3065280, Note_off_c, 1, 31, 0
1, 3065280, Note_on_c, 1, 31, 40
1, 3065520, Note_off_c, 1, 31, 0
1, 3065520, Note_on_c, 1, 31, 40
1, 3065760, Note_off_c, 1, 31, 0
1, 3065760, Note_on_c, 1, 31, 40
1, 3066000, Note_off_c, 1, 31, 0
1, 3066000, Note_on_c, 1, 31, 40
1, 3066240, Note_off_c, 1, 31, 0
1, 3066240, Note_on_c, 1, 31, 40
1, 3066480, Note_off_c, 1, 31, 0
1, 3066480, Note_on_c, 1, 31, 40
1, 3066720, Note_off_c, 1, 31, 0
1, 3066720, Note_on_c, 1, 26, 40
1, 3066960, Note_off_c, 1, 26, 0
1, 3066960, Note_on_c, 1, 31, 40
1, 3067200, Note_off_c, 1, 31, 0
1, 3067200, Note_on_c, 1, 31, 40
1, 3067440, Note_off_c, 1, 31, 0
1, 3067440, Note_on_c, 1, 31, 40
1, 3067680, Note_off_c, 1, 31, 0
1, 3067680, Note_on_c, 1, 31, 40
1, 3067920, Note_off_c, 1, 31, 0
1, 3067920, Note_on_c, 1, 31, 40
1, 3068160, Note_off_c, 1, 31, 0
1, 3068160, Note_on_c, 1, 31, 40
1, 3068400, Note_off_c, 1, 31, 0
1, 3068400, Note_on_c, 1, 31, 40
1, 3068640, Note_off_c, 1, 31, 0
1, 3068640, Note_on_c, 1, 31, 40
1, 3068880, Note_off_c, 1, 31, 0
1, 3068880, Note_on_c, 1, 33, 40
1, 3069120, Note_off_c, 1, 33, 0
1, 3069120, Note_on_c, 1, 33, 40
1, 3069360, Note_off_c, 1, 33, 0
1, 3069360, Note_on_c, 1, 33, 40
1, 3069600, Note_off_c, 1, 33, 0
1, 3069600, Note_on_c, 1, 33, 40
1, 3069840, Note_off_c, 1, 33, 0
1, 3069840, Note_on_c, 1, 33, 40
1, 3070080, Note_off_c, 1, 33, 0
1, 3070080, Note_on_c, 1, 33, 40
1, 3070320, Note_off_c, 1, 33, 0
1, 3070320, Note_on_c, 1, 33, 40
1, 3070560, Note_off_c, 1, 33, 0
1, 3070560, Note_on_c, 1, 33, 40
1, 3070800, Note_off_c, 1, 33, 0
1, 3070800, Note_on_c, 1, 33, 40
1, 3071520, Note_off_c, 1, 33, 0
1, 3071520, Note_on_c, 1, 33, 40
1, 3071760, Note_off_c, 1, 33, 0
1, 3071760, Note_on_c, 1, 33, 40
1, 3072720, Note_off_c, 1, 33, 0
1, 3072720, Note_on_c, 1, 26, 40
1, 3073200, Note_off_c, 1, 26, 0
1, 3073200, Note_on_c, 1, 28, 40
1, 3073680, Note_off_c, 1, 28, 0
1, 3073680, Note_on_c, 1, 28, 40
1, 3074400, Note_off_c, 1, 28, 0
1, 3074400, Note_on_c, 1, 28, 40
1, 3074640, Note_off_c, 1, 28, 0
1, 3074640, Note_on_c, 1, 33, 40
1, 3075360, Note_off_c, 1, 33, 0
1, 3075360, Note_on_c, 1, 33, 40
1, 3075600, Note_off_c, 1, 33, 0
1, 3075600, Note_on_c, 1, 33, 40
1, 3076560, Note_off_c, 1, 33, 0
1, 3076560, Note_on_c, 1, 31, 40
1, 3077040, Note_off_c, 1, 31, 0
1, 3077040, Note_on_c, 1, 26, 40
1, 3078000, Note_off_c, 1, 26, 0
1, 3078000, Note_on_c, 1, 25, 40
1, 3078480, Note_off_c, 1, 25, 0
1, 3078480, Note_on_c, 1, 23, 40
1, 3079200, Note_off_c, 1, 23, 0
1, 3079200, Note_on_c, 1, 23, 40
1, 3079440, Note_off_c, 1, 23, 0
1, 3079440, Note_on_c, 1, 21, 40
1, 3080160, Note_off_c, 1, 21, 0
1, 3080160, Note_on_c, 1, 21, 40
1, 3080400, Note_off_c, 1, 21, 0
1, 3080400, Note_on_c, 1, 28, 40
1, 3081120, Note_off_c, 1, 28, 0
1, 3081120, Note_on_c, 1, 28, 40
1, 3081360, Note_off_c, 1, 28, 0
1, 3081360, Note_on_c, 1, 33, 40
1, 3081840, Note_off_c, 1, 33, 0
1, 3081840, Note_on_c, 1, 28, 40
1, 3082320, Note_off_c, 1, 28, 0
1, 3082320, Note_on_c, 1, 33, 40
1, 3083040, Note_off_c, 1, 33, 0
1, 3083040, Note_on_c, 1, 33, 40
1, 3083280, Note_off_c, 1, 33, 0
1, 3083280, Note_on_c, 1, 33, 40
1, 3084240, Note_off_c, 1, 33, 0
1, 3084240, Note_on_c, 1, 26, 40
1, 3084720, Note_off_c, 1, 26, 0
1, 3084720, Note_on_c, 1, 28, 40
1, 3085200, Note_off_c, 1, 28, 0
1, 3085200, Note_on_c, 1, 28, 40
1, 3085920, Note_off_c, 1, 28, 0
1, 3085920, Note_on_c, 1, 28, 40
1, 3086160, Note_off_c, 1, 28, 0
1, 3086160, Note_on_c, 1, 33, 40
1, 3086880, Note_off_c, 1, 33, 0
1, 3086880, Note_on_c, 1, 33, 40
1, 3087120, Note_off_c, 1, 33, 0
1, 3087120, Note_on_c, 1, 33, 40
1, 3088080, Note_off_c, 1, 33, 0
1, 3088080, Note_on_c, 1, 31, 40
1, 3088560, Note_off_c, 1, 31, 0
1, 3088560, Note_on_c, 1, 26, 40
1, 3089520, Note_off_c, 1, 26, 0
1, 3089520, Note_on_c, 1, 25, 40
1, 3090000, Note_off_c, 1, 25, 0
1, 3090000, Note_on_c, 1, 23, 40
1, 3090720, Note_off_c, 1, 23, 0
1, 3090720, Note_on_c, 1, 23, 40
1, 3090960, Note_off_c, 1, 23, 0
1, 3090960, Note_on_c, 1, 21, 40
1, 3091680, Note_off_c, 1, 21, 0
1, 3091680, Note_on_c, 1, 21, 40
1, 3091920, Note_off_c, 1, 21, 0
1, 3091920, Note_on_c, 1, 28, 40
1, 3092640, Note_off_c, 1, 28, 0
1, 3092640, Note_on_c, 1, 28, 40
1, 3092880, Note_off_c, 1, 28, 0
1, 3092880, Note_on_c, 1, 33, 40
1, 3093360, Note_off_c, 1, 33, 0
1, 3093360, Note_on_c, 1, 28, 40
1, 3093840, Note_off_c, 1, 28, 0
1, 3093840, Note_on_c, 1, 33, 40
1, 3094080, Note_off_c, 1, 33, 0
1, 3094080, Note_on_c, 1, 33, 40
1, 3094320, Note_off_c, 1, 33, 0
1, 3094320, Note_on_c, 1, 33, 40
1, 3094560, Note_off_c, 1, 33, 0
1, 3094560, Note_on_c, 1, 33, 40
1, 3094800, Note_off_c, 1, 33, 0
1, 3094800, Note_on_c, 1, 33, 40
1, 3095040, Note_off_c, 1, 33, 0
1, 3095040, Note_on_c, 1, 33, 40
1, 3095280, Note_off_c, 1, 33, 0
1, 3095280, Note_on_c, 1, 33, 40
1, 3095520, Note_off_c, 1, 33, 0
1, 3095520, Note_on_c, 1, 33, 40
1, 3095760, Note_off_c, 1, 33, 0
1, 3095760, Note_on_c, 1, 31, 40
1, 3096000, Note_off_c, 1, 31, 0
1, 3096000, Note_on_c, 1, 31, 40
1, 3096240, Note_off_c, 1, 31, 0
1, 3096240, Note_on_c, 1, 31, 40
1, 3096480, Note_off_c, 1, 31, 0
1, 3096480, Note_on_c, 1, 31, 40
1, 3096720, Note_off_c, 1, 31, 0
1, 3096720, Note_on_c, 1, 31, 40
1, 3096960, Note_off_c, 1, 31, 0
1, 3096960, Note_on_c, 1, 31, 40
1, 3097200, Note_off_c, 1, 31, 0
1, 3097200, Note_on_c, 1, 31, 40
1, 3097440, Note_off_c, 1, 31, 0
1, 3097440, Note_on_c, 1, 26, 40
1, 3097680, Note_off_c, 1, 26, 0
1, 3097680, Note_on_c, 1, 31, 40
1, 3097920, Note_off_c, 1, 31, 0
1, 3097920, Note_on_c, 1, 31, 40
1, 3098160, Note_off_c, 1, 31, 0
1, 3098160, Note_on_c, 1, 31, 40
1, 3098400, Note_off_c, 1, 31, 0
1, 3098400, Note_on_c, 1, 31, 40
1, 3098640, Note_off_c, 1, 31, 0
1, 3098640, Note_on_c, 1, 31, 40
1, 3098880, Note_off_c, 1, 31, 0
1, 3098880, Note_on_c, 1, 31, 40
1, 3099120, Note_off_c, 1, 31, 0
1, 3099120, Note_on_c, 1, 31, 40
1, 3099360, Note_off_c, 1, 31, 0
1, 3099360, Note_on_c, 1, 31, 40
1, 3099600, Note_off_c, 1, 31, 0
1, 3099600, Note_on_c, 1, 33, 40
1, 3099840, Note_off_c, 1, 33, 0
1, 3099840, Note_on_c, 1, 33, 40
1, 3100080, Note_off_c, 1, 33, 0
1, 3100080, Note_on_c, 1, 33, 40
1, 3100320, Note_off_c, 1, 33, 0
1, 3100320, Note_on_c, 1, 33, 40
1, 3100560, Note_off_c, 1, 33, 0
1, 3100560, Note_on_c, 1, 33, 40
1, 3100800, Note_off_c, 1, 33, 0
1, 3100800, Note_on_c, 1, 33, 40
1, 3101040, Note_off_c, 1, 33, 0
1, 3101040, Note_on_c, 1, 33, 40
1, 3101280, Note_off_c, 1, 33, 0
1, 3101280, Note_on_c, 1, 33, 40
1, 3101520, Note_off_c, 1, 33, 0
1, 3101520, Note_on_c, 1, 33, 40
1, 3101760, Note_off_c, 1, 33, 0
1, 3101760, Note_on_c, 1, 33, 40
1, 3102000, Note_off_c, 1, 33, 0
1, 3102000, Note_on_c, 1, 33, 40
1, 3102240, Note_off_c, 1, 33, 0
1, 3102240, Note_on_c, 1, 33, 40
1, 3102480, Note_off_c, 1, 33, 0
1, 3102480, Note_on_c, 1, 33, 40
1, 3102720, Note_off_c, 1, 33, 0
1, 3102720, Note_on_c, 1, 33, 40
1, 3102960, Note_off_c, 1, 33, 0
1, 3102960, Note_on_c, 1, 33, 40
1, 3103200, Note_off_c, 1, 33, 0
1, 3103200, Note_on_c, 1, 33, 40
1, 3103440, Note_off_c, 1, 33, 0
1, 3103440, Note_on_c, 1, 31, 40
1, 3103680, Note_off_c, 1, 31, 0
1, 3103680, Note_on_c, 1, 31, 40
1, 3103920, Note_off_c, 1, 31, 0
1, 3103920, Note_on_c, 1, 31, 40
1, 3104160, Note_off_c, 1, 31, 0
1, 3104160, Note_on_c, 1, 31, 40
1, 3104400, Note_off_c, 1, 31, 0
1, 3104400, Note_on_c, 1, 31, 40
1, 3104640, Note_off_c, 1, 31, 0
1, 3104640, Note_on_c, 1, 31, 40
1, 3104880, Note_off_c, 1, 31, 0
1, 3104880, Note_on_c, 1, 31, 40
1, 3105120, Note_off_c, 1, 31, 0
1, 3105120, Note_on_c, 1, 26, 40
1, 3105360, Note_off_c, 1, 26, 0
1, 3105360, Note_on_c, 1, 31, 40
1, 3105600, Note_off_c, 1, 31, 0
1, 3105600, Note_on_c, 1, 31, 40
1, 3105840, Note_off_c, 1, 31, 0
1, 3105840, Note_on_c, 1, 31, 40
1, 3106080, Note_off_c, 1, 31, 0
1, 3106080, Note_on_c, 1, 31, 40
1, 3106320, Note_off_c, 1, 31, 0
1, 3106320, Note_on_c, 1, 31, 40
1, 3106560, Note_off_c, 1, 31, 0
1, 3106560, Note_on_c, 1, 31, 40
1, 3106800, Note_off_c, 1, 31, 0
1, 3106800, Note_on_c, 1, 31, 40
1, 3107040, Note_off_c, 1, 31, 0
1, 3107040, Note_on_c, 1, 31, 40
1, 3107280, Note_off_c, 1, 31, 0
1, 3107280, Note_on_c, 1, 33, 40
1, 3107520, Note_off_c, 1, 33, 0
1, 3107520, Note_on_c, 1, 33, 40
1, 3107760, Note_off_c, 1, 33, 0
1, 3107760, Note_on_c, 1, 33, 40
1, 3108000, Note_off_c, 1, 33, 0
1, 3108000, Note_on_c, 1, 33, 40
1, 3108240, Note_off_c, 1, 33, 0
1, 3108240, Note_on_c, 1, 33, 40
1, 3108480, Note_off_c, 1, 33, 0
1, 3108480, Note_on_c, 1, 33, 40
1, 3108720, Note_off_c, 1, 33, 0
1, 3108720, Note_on_c, 1, 33, 40
1, 3108960, Note_off_c, 1, 33, 0
1, 3108960, Note_on_c, 1, 33, 40
1, 3109200, Note_off_c, 1, 33, 0
1, 3109200, Note_on_c, 1, 33, 40
1, 3109920, Note_off_c, 1, 33, 0
1, 3109920, Note_on_c, 1, 33, 40
1, 3110160, Note_off_c, 1, 33, 0
1, 3110160, Note_on_c, 1, 33, 40
1, 3111120, Note_off_c, 1, 33, 0
1, 3111120, Note_on_c, 1, 26, 40
1, 3111840, Note_off_c, 1, 26, 0
1, 3111840, Note_on_c, 1, 28, 40
1, 3112080, Note_off_c, 1, 28, 0
1, 3112080, Note_on_c, 1, 28, 40
1, 3112320, Note_off_c, 1, 28, 0
1, 3112320, Note_on_c, 1, 28, 40
1, 3112560, Note_off_c, 1, 28, 0
1, 3112560, Note_on_c, 1, 30, 40
1, 3112800, Note_off_c, 1, 30, 0
1, 3112800, Note_on_c, 1, 32, 40
1, 3113040, Note_off_c, 1, 32, 0
1, 3113040, Note_on_c, 1, 33, 40
1, 3113760, Note_off_c, 1, 33, 0
1, 3113760, Note_on_c, 1, 33, 40
1, 3114000, Note_off_c, 1, 33, 0
1, 3114000, Note_on_c, 1, 33, 40
1, 3114960, Note_off_c, 1, 33, 0
1, 3114960, Note_on_c, 1, 31, 40
1, 3115440, Note_off_c, 1, 31, 0
1, 3115440, Note_on_c, 1, 26, 40
1, 3115920, Note_off_c, 1, 26, 0
1, 3115920, Note_on_c, 1, 38, 40
1, 3116160, Note_off_c, 1, 38, 0
1, 3116160, Note_on_c, 1, 38, 40
1, 3116400, Note_off_c, 1, 38, 0
1, 3116400, Note_on_c, 1, 38, 40
1, 3116640, Note_off_c, 1, 38, 0
1, 3116640, Note_on_c, 1, 38, 40
1, 3116880, Note_off_c, 1, 38, 0
1, 3116880, Note_on_c, 1, 35, 40
1, 3117600, Note_off_c, 1, 35, 0
1, 3117600, Note_on_c, 1, 35, 40
1, 3117840, Note_off_c, 1, 35, 0
1, 3117840, Note_on_c, 1, 33, 40
1, 3118560, Note_off_c, 1, 33, 0
1, 3118560, Note_on_c, 1, 33, 40
1, 3118800, Note_off_c, 1, 33, 0
1, 3118800, Note_on_c, 1, 28, 40
1, 3119520, Note_off_c, 1, 28, 0
1, 3119520, Note_on_c, 1, 28, 40
1, 3119760, Note_off_c, 1, 28, 0
1, 3119760, Note_on_c, 1, 33, 40
1, 3120000, Note_off_c, 1, 33, 0
1, 3120000, Note_on_c, 1, 33, 40
1, 3120240, Note_off_c, 1, 33, 0
1, 3120240, Note_on_c, 1, 33, 40
1, 3120480, Note_off_c, 1, 33, 0
1, 3120480, Note_on_c, 1, 33, 40
1, 3120720, Note_off_c, 1, 33, 0
1, 3120720, Note_on_c, 1, 33, 40
1, 3120960, Note_off_c, 1, 33, 0
1, 3120960, Note_on_c, 1, 33, 40
1, 3121200, Note_off_c, 1, 33, 0
1, 3121200, Note_on_c, 1, 33, 40
1, 3121440, Note_off_c, 1, 33, 0
1, 3121440, Note_on_c, 1, 33, 40
1, 3121680, Note_off_c, 1, 33, 0
1, 3121680, Note_on_c, 1, 33, 40
1, 3121920, Note_off_c, 1, 33, 0
1, 3121920, Note_on_c, 1, 33, 40
1, 3122160, Note_off_c, 1, 33, 0
1, 3122160, Note_on_c, 1, 33, 40
1, 3122400, Note_off_c, 1, 33, 0
1, 3122400, Note_on_c, 1, 33, 40
1, 3122640, Note_off_c, 1, 33, 0
1, 3122640, Note_on_c, 1, 31, 40
1, 3122880, Note_off_c, 1, 31, 0
1, 3122880, Note_on_c, 1, 31, 40
1, 3123120, Note_off_c, 1, 31, 0
1, 3123120, Note_on_c, 1, 31, 40
1, 3123360, Note_off_c, 1, 31, 0
1, 3123360, Note_on_c, 1, 31, 40
1, 3123600, Note_off_c, 1, 31, 0
1, 3123600, Note_on_c, 1, 31, 40
1, 3123840, Note_off_c, 1, 31, 0
1, 3123840, Note_on_c, 1, 31, 40
1, 3124080, Note_off_c, 1, 31, 0
1, 3124080, Note_on_c, 1, 31, 40
1, 3124320, Note_off_c, 1, 31, 0
1, 3124320, Note_on_c, 1, 26, 40
1, 3124560, Note_off_c, 1, 26, 0
1, 3124560, Note_on_c, 1, 31, 40
1, 3124800, Note_off_c, 1, 31, 0
1, 3124800, Note_on_c, 1, 31, 40
1, 3125040, Note_off_c, 1, 31, 0
1, 3125040, Note_on_c, 1, 31, 40
1, 3125280, Note_off_c, 1, 31, 0
1, 3125280, Note_on_c, 1, 31, 40
1, 3125520, Note_off_c, 1, 31, 0
1, 3125520, Note_on_c, 1, 31, 40
1, 3125760, Note_off_c, 1, 31, 0
1, 3125760, Note_on_c, 1, 31, 40
1, 3126000, Note_off_c, 1, 31, 0
1, 3126000, Note_on_c, 1, 31, 40
1, 3126240, Note_off_c, 1, 31, 0
1, 3126240, Note_on_c, 1, 31, 40
1, 3126480, Note_off_c, 1, 31, 0
1, 3126480, Note_on_c, 1, 33, 40
1, 3126720, Note_off_c, 1, 33, 0
1, 3126720, Note_on_c, 1, 33, 40
1, 3126960, Note_off_c, 1, 33, 0
1, 3126960, Note_on_c, 1, 33, 40
1, 3127200, Note_off_c, 1, 33, 0
1, 3127200, Note_on_c, 1, 33, 40
1, 3127440, Note_off_c, 1, 33, 0
1, 3127440, Note_on_c, 1, 33, 40
1, 3127680, Note_off_c, 1, 33, 0
1, 3127680, Note_on_c, 1, 33, 40
1, 3127920, Note_off_c, 1, 33, 0
1, 3127920, Note_on_c, 1, 33, 40
1, 3128160, Note_off_c, 1, 33, 0
1, 3128160, Note_on_c, 1, 33, 40
1, 3128400, Note_off_c, 1, 33, 0
1, 3128400, Note_on_c, 1, 33, 40
1, 3128640, Note_off_c, 1, 33, 0
1, 3128640, Note_on_c, 1, 33, 40
1, 3128880, Note_off_c, 1, 33, 0
1, 3128880, Note_on_c, 1, 33, 40
1, 3129120, Note_off_c, 1, 33, 0
1, 3129120, Note_on_c, 1, 33, 40
1, 3129360, Note_off_c, 1, 33, 0
1, 3129360, Note_on_c, 1, 33, 40
1, 3129600, Note_off_c, 1, 33, 0
1, 3129600, Note_on_c, 1, 33, 40
1, 3129840, Note_off_c, 1, 33, 0
1, 3129840, Note_on_c, 1, 33, 40
1, 3130080, Note_off_c, 1, 33, 0
1, 3130080, Note_on_c, 1, 33, 40
1, 3130320, Note_off_c, 1, 33, 0
1, 3130320, Note_on_c, 1, 31, 40
1, 3130560, Note_off_c, 1, 31, 0
1, 3130560, Note_on_c, 1, 31, 40
1, 3130800, Note_off_c, 1, 31, 0
1, 3130800, Note_on_c, 1, 31, 40
1, 3131040, Note_off_c, 1, 31, 0
1, 3131040, Note_on_c, 1, 31, 40
1, 3131280, Note_off_c, 1, 31, 0
1, 3131280, Note_on_c, 1, 31, 40
1, 3131520, Note_off_c, 1, 31, 0
1, 3131520, Note_on_c, 1, 31, 40
1, 3131760, Note_off_c, 1, 31, 0
1, 3131760, Note_on_c, 1, 31, 40
1, 3132000, Note_off_c, 1, 31, 0
1, 3132000, Note_on_c, 1, 26, 40
1, 3132240, Note_off_c, 1, 26, 0
1, 3132240, Note_on_c, 1, 31, 40
1, 3132480, Note_off_c, 1, 31, 0
1, 3132480, Note_on_c, 1, 31, 40
1, 3132720, Note_off_c, 1, 31, 0
1, 3132720, Note_on_c, 1, 31, 40
1, 3132960, Note_off_c, 1, 31, 0
1, 3132960, Note_on_c, 1, 31, 40
1, 3133200, Note_off_c, 1, 31, 0
1, 3133200, Note_on_c, 1, 31, 40
1, 3133440, Note_off_c, 1, 31, 0
1, 3133440, Note_on_c, 1, 31, 40
1, 3133680, Note_off_c, 1, 31, 0
1, 3133680, Note_on_c, 1, 31, 40
1, 3133920, Note_off_c, 1, 31, 0
1, 3133920, Note_on_c, 1, 31, 40
1, 3134160, Note_off_c, 1, 31, 0
1, 3134160, Note_on_c, 1, 33, 40
1, 3134400, Note_off_c, 1, 33, 0
1, 3134400, Note_on_c, 1, 33, 40
1, 3134640, Note_off_c, 1, 33, 0
1, 3134640, Note_on_c, 1, 33, 40
1, 3134880, Note_off_c, 1, 33, 0
1, 3134880, Note_on_c, 1, 33, 40
1, 3135120, Note_off_c, 1, 33, 0
1, 3135120, Note_on_c, 1, 33, 40
1, 3135360, Note_off_c, 1, 33, 0
1, 3135360, Note_on_c, 1, 33, 40
1, 3135600, Note_off_c, 1, 33, 0
1, 3135600, Note_on_c, 1, 33, 40
1, 3135840, Note_off_c, 1, 33, 0
1, 3135840, Note_on_c, 1, 33, 40
1, 3136080, Note_off_c, 1, 33, 0
1, 3136080, Note_on_c, 1, 33, 40
1, 3136800, Note_off_c, 1, 33, 0
1, 3136800, Note_on_c, 1, 33, 40
1, 3137040, Note_off_c, 1, 33, 0
1, 3137040, Note_on_c, 1, 33, 40
1, 3138000, Note_off_c, 1, 33, 0
1, 3138000, Note_on_c, 1, 26, 40
1, 3138720, Note_off_c, 1, 26, 0
1, 3138720, Note_on_c, 1, 28, 40
1, 3138960, Note_off_c, 1, 28, 0
1, 3138960, Note_on_c, 1, 28, 40
1, 3139920, Note_off_c, 1, 28, 0
1, 3139920, Note_on_c, 1, 33, 40
1, 3140640, Note_off_c, 1, 33, 0
1, 3140640, Note_on_c, 1, 33, 40
1, 3140880, Note_off_c, 1, 33, 0
1, 3140880, Note_on_c, 1, 33, 40
1, 3141840, Note_off_c, 1, 33, 0
1, 3141840, Note_on_c, 1, 26, 40
1, 3142560, Note_off_c, 1, 26, 0
1, 3142560, Note_on_c, 1, 28, 40
1, 3142800, Note_off_c, 1, 28, 0
1, 3142800, Note_on_c, 1, 28, 40
1, 3143760, Note_off_c, 1, 28, 0
1, 3143760, Note_on_c, 1, 33, 40
1, 3144480, Note_off_c, 1, 33, 0
1, 3144480, Note_on_c, 1, 33, 40
1, 3144720, Note_off_c, 1, 33, 0
1, 3144720, Note_on_c, 1, 33, 40
1, 3145680, Note_off_c, 1, 33, 0
1, 3145680, Note_on_c, 1, 26, 40
1, 3146400, Note_off_c, 1, 26, 0
1, 3146400, Note_on_c, 1, 28, 40
1, 3146640, Note_off_c, 1, 28, 0
1, 3146640, Note_on_c, 1, 28, 40
1, 3147600, Note_off_c, 1, 28, 0
1, 3147600, Note_on_c, 1, 33, 40
1, 3148320, Note_off_c, 1, 33, 0
1, 3148320, Note_on_c, 1, 33, 40
1, 3148560, Note_off_c, 1, 33, 0
1, 3148560, Note_on_c, 1, 33, 40
1, 3149520, Note_off_c, 1, 33, 0
1, 3149520, Note_on_c, 1, 26, 40
1, 3150240, Note_off_c, 1, 26, 0
1, 3150240, Note_on_c, 1, 28, 40
1, 3150480, Note_off_c, 1, 28, 0
1, 3150480, Note_on_c, 1, 28, 40
1, 3151440, Note_off_c, 1, 28, 0
1, 3151440, Note_on_c, 1, 33, 40
1, 3152160, Note_off_c, 1, 33, 0
1, 3152160, Note_on_c, 1, 33, 40
1, 3152400, Note_off_c, 1, 33, 0
1, 3152400, Note_on_c, 1, 33, 40
1, 3153360, Note_off_c, 1, 33, 0
1, 3153360, Note_on_c, 1, 26, 40
1, 3154080, Note_off_c, 1, 26, 0
1, 3154080, Note_on_c, 1, 28, 40
1, 3154320, Note_off_c, 1, 28, 0
1, 3154320, Note_on_c, 1, 28, 40
1, 3155280, Note_off_c, 1, 28, 0
1, 3155280, Note_on_c, 1, 33, 40
1, 3156000, Note_off_c, 1, 33, 0
1, 3159120, Note_on_c, 1, 33, 40
1, 3159240, Note_off_c, 1, 33, 0
1, 3159360, Note_on_c, 1, 33, 40
1, 3159960, Note_off_c, 1, 33, 0
1, 3159960, Note_on_c, 1, 21, 40
1, 3160080, Note_off_c, 1, 21, 0
1, 3160080, Note_on_c, 1, 33, 40
1, 3160560, Note_off_c, 1, 33, 0
1, 3160560, Note_on_c, 1, 33, 40
1, 3160680, Note_off_c, 1, 33, 0
1, 3160800, Note_on_c, 1, 33, 40
1, 3160920, Note_off_c, 1, 33, 0
1, 3161040, Note_on_c, 1, 33, 40
1, 3161520, Note_off_c, 1, 33, 0
1, 3161520, Note_on_c, 1, 33, 40
1, 3161640, Note_off_c, 1, 33, 0
1, 3161760, Note_on_c, 1, 33, 40
1, 3162240, Note_off_c, 1, 33, 0
1, 3162240, Note_on_c, 1, 33, 40
1, 3162360, Note_off_c, 1, 33, 0
1, 3162360, Note_on_c, 1, 33, 40
1, 3162480, Note_off_c, 1, 33, 0
1, 3162480, Note_on_c, 1, 33, 40
1, 3162960, Note_off_c, 1, 33, 0
1, 3162960, Note_on_c, 1, 33, 40
1, 3163080, Note_off_c, 1, 33, 0
1, 3163200, Note_on_c, 1, 33, 40
1, 3163680, Note_off_c, 1, 33, 0
1, 3163680, Note_on_c, 1, 33, 40
1, 3163800, Note_off_c, 1, 33, 0
1, 3163920, Note_on_c, 1, 33, 40
1, 3164040, Note_off_c, 1, 33, 0
1, 3164160, Note_on_c, 1, 33, 40
1, 3164280, Note_off_c, 1, 33, 0
1, 3164400, Note_on_c, 1, 33, 40
1, 3164880, Note_off_c, 1, 33, 0
1, 3164880, Note_on_c, 1, 33, 40
1, 3165360, Note_off_c, 1, 33, 0
1, 3165360, Note_on_c, 1, 33, 40
1, 3165480, Note_off_c, 1, 33, 0
1, 3165600, Note_on_c, 1, 33, 40
1, 3166200, Note_off_c, 1, 33, 0
1, 3166200, Note_on_c, 1, 21, 40
1, 3166320, Note_off_c, 1, 21, 0
1, 3166320, Note_on_c, 1, 33, 40
1, 3166440, Note_off_c, 1, 33, 0
1, 3166560, Note_on_c, 1, 33, 40
1, 3166680, Note_off_c, 1, 33, 0
1, 3166800, Note_on_c, 1, 38, 40
1, 3166920, Note_off_c, 1, 38, 0
1, 3167040, Note_on_c, 1, 38, 40
1, 3167520, Note_off_c, 1, 38, 0
1, 3167520, Note_on_c, 1, 33, 40
1, 3167760, Note_off_c, 1, 33, 0
1, 3167760, Note_on_c, 1, 38, 40
1, 3167880, Note_off_c, 1, 38, 0
1, 3168000, Note_on_c, 1, 38, 40
1, 3168480, Note_off_c, 1, 38, 0
1, 3168480, Note_on_c, 1, 33, 40
1, 3168720, Note_off_c, 1, 33, 0
1, 3168720, Note_on_c, 1, 38, 40
1, 3168840, Note_off_c, 1, 38, 0
1, 3168960, Note_on_c, 1, 38, 40
1, 3169320, Note_off_c, 1, 38, 0
1, 3169440, Note_on_c, 1, 38, 40
1, 3169560, Note_off_c, 1, 38, 0
1, 3169680, Note_on_c, 1, 38, 40
1, 3169800, Note_off_c, 1, 38, 0
1, 3169920, Note_on_c, 1, 38, 40
1, 3170040, Note_off_c, 1, 38, 0
1, 3170160, Note_on_c, 1, 38, 40
1, 3170280, Note_off_c, 1, 38, 0
1, 3170400, Note_on_c, 1, 38, 40
1, 3170520, Note_off_c, 1, 38, 0
1, 3170640, Note_on_c, 1, 33, 40
1, 3170760, Note_off_c, 1, 33, 0
1, 3170880, Note_on_c, 1, 33, 40
1, 3171360, Note_off_c, 1, 33, 0
1, 3171360, Note_on_c, 1, 28, 40
1, 3171600, Note_off_c, 1, 28, 0
1, 3171600, Note_on_c, 1, 33, 40
1, 3171720, Note_off_c, 1, 33, 0
1, 3171840, Note_on_c, 1, 33, 40
1, 3172320, Note_off_c, 1, 33, 0
1, 3172320, Note_on_c, 1, 28, 40
1, 3172440, Note_off_c, 1, 28, 0
1, 3172560, Note_on_c, 1, 33, 40
1, 3172680, Note_off_c, 1, 33, 0
1, 3172800, Note_on_c, 1, 33, 40
1, 3172920, Note_off_c, 1, 33, 0
1, 3173040, Note_on_c, 1, 33, 40
1, 3173160, Note_off_c, 1, 33, 0
1, 3173280, Note_on_c, 1, 33, 40
1, 3173880, Note_off_c, 1, 33, 0
1, 3173880, Note_on_c, 1, 21, 40
1, 3174000, Note_off_c, 1, 21, 0
1, 3174000, Note_on_c, 1, 33, 40
1, 3174480, Note_off_c, 1, 33, 0
1, 3174480, Note_on_c, 1, 40, 40
1, 3174600, Note_off_c, 1, 40, 0
1, 3174720, Note_on_c, 1, 40, 40
1, 3175200, Note_off_c, 1, 40, 0
1, 3175200, Note_on_c, 1, 28, 40
1, 3175440, Note_off_c, 1, 28, 0
1, 3175440, Note_on_c, 1, 40, 40
1, 3175560, Note_off_c, 1, 40, 0
1, 3175680, Note_on_c, 1, 40, 40
1, 3176160, Note_off_c, 1, 40, 0
1, 3176160, Note_on_c, 1, 35, 40
1, 3176400, Note_off_c, 1, 35, 0
1, 3176400, Note_on_c, 1, 38, 40
1, 3176520, Note_off_c, 1, 38, 0
1, 3176640, Note_on_c, 1, 38, 40
1, 3177120, Note_off_c, 1, 38, 0
1, 3177120, Note_on_c, 1, 38, 40
1, 3177240, Note_off_c, 1, 38, 0
1, 3177360, Note_on_c, 1, 38, 40
1, 3177480, Note_off_c, 1, 38, 0
1, 3177600, Note_on_c, 1, 38, 40
1, 3177720, Note_off_c, 1, 38, 0
1, 3177840, Note_on_c, 1, 38, 40
1, 3178080, Note_off_c, 1, 38, 0
1, 3178080, Note_on_c, 1, 33, 40
1, 3178200, Note_off_c, 1, 33, 0
1, 3178320, Note_on_c, 1, 33, 40
1, 3178440, Note_off_c, 1, 33, 0
1, 3178560, Note_on_c, 1, 33, 40
1, 3179040, Note_off_c, 1, 33, 0
1, 3179040, Note_on_c, 1, 33, 40
1, 3179160, Note_off_c, 1, 33, 0
1, 3179280, Note_on_c, 1, 33, 40
1, 3179400, Note_off_c, 1, 33, 0
1, 3179520, Note_on_c, 1, 33, 40
1, 3180000, Note_off_c, 1, 33, 0
1, 3180000, Note_on_c, 1, 33, 40
1, 3180120, Note_off_c, 1, 33, 0
1, 3180240, Note_on_c, 1, 40, 40
1, 3180360, Note_off_c, 1, 40, 0
1, 3180480, Note_on_c, 1, 40, 40
1, 3180960, Note_off_c, 1, 40, 0
1, 3180960, Note_on_c, 1, 35, 40
1, 3181200, Note_off_c, 1, 35, 0
1, 3181200, Note_on_c, 1, 40, 40
1, 3181440, Note_off_c, 1, 40, 0
1, 3181440, Note_on_c, 1, 40, 40
1, 3181560, Note_off_c, 1, 40, 0
1, 3181680, Note_on_c, 1, 40, 40
1, 3181800, Note_off_c, 1, 40, 0
1, 3181920, Note_on_c, 1, 40, 40
1, 3182040, Note_off_c, 1, 40, 0
1, 3182160, Note_on_c, 1, 33, 40
1, 3182280, Note_off_c, 1, 33, 0
1, 3182400, Note_on_c, 1, 33, 40
1, 3182880, Note_off_c, 1, 33, 0
1, 3182880, Note_on_c, 1, 28, 40
1, 3183000, Note_off_c, 1, 28, 0
1, 3183120, Note_on_c, 1, 33, 40
1, 3183600, Note_off_c, 1, 33, 0
1, 3183600, Note_on_c, 1, 33, 40
1, 3184080, Note_off_c, 1, 33, 0
1, 3184080, Note_on_c, 1, 33, 40
1, 3184560, Note_off_c, 1, 33, 0
1, 3184560, Note_on_c, 1, 33, 40
1, 3184680, Note_off_c, 1, 33, 0
1, 3184800, Note_on_c, 1, 33, 40
1, 3185280, Note_off_c, 1, 33, 0
1, 3185280, Note_on_c, 1, 33, 40
1, 3185400, Note_off_c, 1, 33, 0
1, 3185520, Note_on_c, 1, 33, 40
1, 3185640, Note_off_c, 1, 33, 0
1, 3185760, Note_on_c, 1, 33, 40
1, 3185880, Note_off_c, 1, 33, 0
1, 3186000, Note_on_c, 1, 33, 40
1, 3186120, Note_off_c, 1, 33, 0
1, 3186240, Note_on_c, 1, 33, 40
1, 3186720, Note_off_c, 1, 33, 0
1, 3186720, Note_on_c, 1, 33, 40
1, 3186840, Note_off_c, 1, 33, 0
1, 3186960, Note_on_c, 1, 33, 40
1, 3187080, Note_off_c, 1, 33, 0
1, 3187200, Note_on_c, 1, 33, 40
1, 3187320, Note_off_c, 1, 33, 0
1, 3187440, Note_on_c, 1, 33, 40
1, 3187560, Note_off_c, 1, 33, 0
1, 3187680, Note_on_c, 1, 33, 40
1, 3187800, Note_off_c, 1, 33, 0
1, 3187920, Note_on_c, 1, 33, 40
1, 3188400, Note_off_c, 1, 33, 0
1, 3188400, Note_on_c, 1, 33, 40
1, 3188520, Note_off_c, 1, 33, 0
1, 3188640, Note_on_c, 1, 33, 40
1, 3189240, Note_off_c, 1, 33, 0
1, 3189240, Note_on_c, 1, 21, 40
1, 3189360, Note_off_c, 1, 21, 0
1, 3189360, Note_on_c, 1, 33, 40
1, 3189480, Note_off_c, 1, 33, 0
1, 3189600, Note_on_c, 1, 33, 40
1, 3189720, Note_off_c, 1, 33, 0
1, 3189840, Note_on_c, 1, 38, 40
1, 3189960, Note_off_c, 1, 38, 0
1, 3190080, Note_on_c, 1, 38, 40
1, 3190560, Note_off_c, 1, 38, 0
1, 3190560, Note_on_c, 1, 33, 40
1, 3190800, Note_off_c, 1, 33, 0
1, 3190800, Note_on_c, 1, 38, 40
1, 3190920, Note_off_c, 1, 38, 0
1, 3191040, Note_on_c, 1, 38, 40
1, 3191520, Note_off_c, 1, 38, 0
1, 3191520, Note_on_c, 1, 33, 40
1, 3191760, Note_off_c, 1, 33, 0
1, 3191760, Note_on_c, 1, 38, 40
1, 3191880, Note_off_c, 1, 38, 0
1, 3192000, Note_on_c, 1, 38, 40
1, 3192360, Note_off_c, 1, 38, 0
1, 3192480, Note_on_c, 1, 38, 40
1, 3192600, Note_off_c, 1, 38, 0
1, 3192720, Note_on_c, 1, 38, 40
1, 3192840, Note_off_c, 1, 38, 0
1, 3192960, Note_on_c, 1, 38, 40
1, 3193080, Note_off_c, 1, 38, 0
1, 3193200, Note_on_c, 1, 38, 40
1, 3193320, Note_off_c, 1, 38, 0
1, 3193440, Note_on_c, 1, 38, 40
1, 3193560, Note_off_c, 1, 38, 0
1, 3193680, Note_on_c, 1, 33, 40
1, 3193800, Note_off_c, 1, 33, 0
1, 3193920, Note_on_c, 1, 33, 40
1, 3194520, Note_off_c, 1, 33, 0
1, 3194520, Note_on_c, 1, 21, 40
1, 3194640, Note_off_c, 1, 21, 0
1, 3194640, Note_on_c, 1, 33, 40
1, 3194760, Note_off_c, 1, 33, 0
1, 3194880, Note_on_c, 1, 33, 40
1, 3195000, Note_off_c, 1, 33, 0
1, 3195120, Note_on_c, 1, 33, 40
1, 3195600, Note_off_c, 1, 33, 0
1, 3195600, Note_on_c, 1, 33, 40
1, 3196080, Note_off_c, 1, 33, 0
1, 3196080, Note_on_c, 1, 33, 40
1, 3196200, Note_off_c, 1, 33, 0
1, 3196320, Note_on_c, 1, 33, 40
1, 3196800, Note_off_c, 1, 33, 0
1, 3196800, Note_on_c, 1, 33, 40
1, 3196920, Note_off_c, 1, 33, 0
1, 3197040, Note_on_c, 1, 33, 40
1, 3197520, Note_off_c, 1, 33, 0
1, 3197520, Note_on_c, 1, 40, 40
1, 3197640, Note_off_c, 1, 40, 0
1, 3197760, Note_on_c, 1, 40, 40
1, 3198240, Note_off_c, 1, 40, 0
1, 3198240, Note_on_c, 1, 35, 40
1, 3198480, Note_off_c, 1, 35, 0
1, 3198480, Note_on_c, 1, 40, 40
1, 3198600, Note_off_c, 1, 40, 0
1, 3198720, Note_on_c, 1, 40, 40
1, 3199200, Note_off_c, 1, 40, 0
1, 3199200, Note_on_c, 1, 35, 40
1, 3199320, Note_off_c, 1, 35, 0
1, 3199440, Note_on_c, 1, 38, 40
1, 3199560, Note_off_c, 1, 38, 0
1, 3199680, Note_on_c, 1, 38, 40
1, 3200160, Note_off_c, 1, 38, 0
1, 3200160, Note_on_c, 1, 38, 40
1, 3200280, Note_off_c, 1, 38, 0
1, 3200400, Note_on_c, 1, 38, 40
1, 3200520, Note_off_c, 1, 38, 0
1, 3200640, Note_on_c, 1, 38, 40
1, 3200760, Note_off_c, 1, 38, 0
1, 3200880, Note_on_c, 1, 38, 40
1, 3201120, Note_off_c, 1, 38, 0
1, 3201120, Note_on_c, 1, 33, 40
1, 3201240, Note_off_c, 1, 33, 0
1, 3201360, Note_on_c, 1, 33, 40
1, 3201480, Note_off_c, 1, 33, 0
1, 3201600, Note_on_c, 1, 33, 40
1, 3202080, Note_off_c, 1, 33, 0
1, 3202080, Note_on_c, 1, 28, 40
1, 3202320, Note_off_c, 1, 28, 0
1, 3202320, Note_on_c, 1, 33, 40
1, 3202440, Note_off_c, 1, 33, 0
1, 3202560, Note_on_c, 1, 33, 40
1, 3203040, Note_off_c, 1, 33, 0
1, 3203040, Note_on_c, 1, 33, 40
1, 3203160, Note_off_c, 1, 33, 0
1, 3203280, Note_on_c, 1, 40, 40
1, 3203400, Note_off_c, 1, 40, 0
1, 3203520, Note_on_c, 1, 40, 40
1, 3203880, Note_off_c, 1, 40, 0
1, 3204000, Note_on_c, 1, 40, 40
1, 3204120, Note_off_c, 1, 40, 0
1, 3204240, Note_on_c, 1, 32, 40
1, 3204480, Note_off_c, 1, 32, 0
1, 3204480, Note_on_c, 1, 33, 40
1, 3204720, Note_off_c, 1, 33, 0
1, 3204720, Note_on_c, 1, 35, 40
1, 3204960, Note_off_c, 1, 35, 0
1, 3204960, Note_on_c, 1, 40, 40
1, 3205080, Note_off_c, 1, 40, 0
1, 3205200, Note_on_c, 1, 33, 40
1, 3205320, Note_off_c, 1, 33, 0
1, 3205440, Note_on_c, 1, 33, 40
1, 3205920, Note_off_c, 1, 33, 0
1, 3205920, Note_on_c, 1, 33, 40
1, 3206040, Note_off_c, 1, 33, 0
1, 3206160, Note_on_c, 1, 33, 40
1, 3206280, Note_off_c, 1, 33, 0
1, 3206400, Note_on_c, 1, 33, 40
1, 3206520, Note_off_c, 1, 33, 0
1, 3206640, Note_on_c, 1, 33, 40
1, 3207120, Note_off_c, 1, 33, 0
1, 3207120, Note_on_c, 1, 33, 40
1, 3207600, Note_off_c, 1, 33, 0
1, 3207600, Note_on_c, 1, 33, 40
1, 3207720, Note_off_c, 1, 33, 0
1, 3207840, Note_on_c, 1, 33, 40
1, 3208320, Note_off_c, 1, 33, 0
1, 3208320, Note_on_c, 1, 33, 40
1, 3208440, Note_off_c, 1, 33, 0
1, 3208440, Note_on_c, 1, 33, 40
1, 3208560, Note_off_c, 1, 33, 0
1, 3208560, Note_on_c, 1, 33, 40
1, 3209040, Note_off_c, 1, 33, 0
1, 3209040, Note_on_c, 1, 33, 40
1, 3209160, Note_off_c, 1, 33, 0
1, 3209280, Note_on_c, 1, 33, 40
1, 3209760, Note_off_c, 1, 33, 0
1, 3209760, Note_on_c, 1, 40, 40
1, 3209880, Note_off_c, 1, 40, 0
1, 3210000, Note_on_c, 1, 33, 40
1, 3210480, Note_off_c, 1, 33, 0
1, 3210480, Note_on_c, 1, 33, 40
1, 3210960, Note_off_c, 1, 33, 0
1, 3210960, Note_on_c, 1, 33, 40
1, 3211440, Note_off_c, 1, 33, 0
1, 3211440, Note_on_c, 1, 33, 40
1, 3211560, Note_off_c, 1, 33, 0
1, 3211680, Note_on_c, 1, 33, 40
1, 3212160, Note_off_c, 1, 33, 0
1, 3212160, Note_on_c, 1, 33, 40
1, 3212280, Note_off_c, 1, 33, 0
1, 3212400, Note_on_c, 1, 33, 40
1, 3212880, Note_off_c, 1, 33, 0
1, 3212880, Note_on_c, 1, 38, 40
1, 3213000, Note_off_c, 1, 38, 0
1, 3213120, Note_on_c, 1, 38, 40
1, 3213600, Note_off_c, 1, 38, 0
1, 3213600, Note_on_c, 1, 33, 40
1, 3213840, Note_off_c, 1, 33, 0
1, 3213840, Note_on_c, 1, 38, 40
1, 3213960, Note_off_c, 1, 38, 0
1, 3214080, Note_on_c, 1, 38, 40
1, 3214560, Note_off_c, 1, 38, 0
1, 3214560, Note_on_c, 1, 33, 40
1, 3214800, Note_off_c, 1, 33, 0
1, 3214800, Note_on_c, 1, 38, 40
1, 3214920, Note_off_c, 1, 38, 0
1, 3215040, Note_on_c, 1, 38, 40
1, 3215400, Note_off_c, 1, 38, 0
1, 3215520, Note_on_c, 1, 38, 40
1, 3215760, Note_off_c, 1, 38, 0
1, 3215760, Note_on_c, 1, 30, 40
1, 3216000, Note_off_c, 1, 30, 0
1, 3216000, Note_on_c, 1, 31, 40
1, 3216240, Note_off_c, 1, 31, 0
1, 3216240, Note_on_c, 1, 32, 40
1, 3216480, Note_off_c, 1, 32, 0
1, 3216480, Note_on_c, 1, 33, 40
1, 3216720, Note_off_c, 1, 33, 0
1, 3216720, Note_on_c, 1, 33, 40
1, 3216840, Note_off_c, 1, 33, 0
1, 3216960, Note_on_c, 1, 33, 40
1, 3217440, Note_off_c, 1, 33, 0
1, 3217440, Note_on_c, 1, 33, 40
1, 3217560, Note_off_c, 1, 33, 0
1, 3217680, Note_on_c, 1, 33, 40
1, 3218160, Note_off_c, 1, 33, 0
1, 3218160, Note_on_c, 1, 33, 40
1, 3218640, Note_off_c, 1, 33, 0
1, 3218640, Note_on_c, 1, 33, 40
1, 3219120, Note_off_c, 1, 33, 0
1, 3219120, Note_on_c, 1, 33, 40
1, 3219240, Note_off_c, 1, 33, 0
1, 3219360, Note_on_c, 1, 33, 40
1, 3219840, Note_off_c, 1, 33, 0
1, 3219840, Note_on_c, 1, 40, 40
1, 3219960, Note_off_c, 1, 40, 0
1, 3220080, Note_on_c, 1, 33, 40
1, 3220560, Note_off_c, 1, 33, 0
1, 3220560, Note_on_c, 1, 40, 40
1, 3220680, Note_off_c, 1, 40, 0
1, 3220800, Note_on_c, 1, 40, 40
1, 3221280, Note_off_c, 1, 40, 0
1, 3221280, Note_on_c, 1, 28, 40
1, 3221520, Note_off_c, 1, 28, 0
1, 3221520, Note_on_c, 1, 40, 40
1, 3221640, Note_off_c, 1, 40, 0
1, 3221760, Note_on_c, 1, 40, 40
1, 3222240, Note_off_c, 1, 40, 0
1, 3222240, Note_on_c, 1, 35, 40
1, 3222480, Note_off_c, 1, 35, 0
1, 3222480, Note_on_c, 1, 38, 40
1, 3222600, Note_off_c, 1, 38, 0
1, 3222720, Note_on_c, 1, 38, 40
1, 3223200, Note_off_c, 1, 38, 0
1, 3223200, Note_on_c, 1, 38, 40
1, 3223320, Note_off_c, 1, 38, 0
1, 3223440, Note_on_c, 1, 38, 40
1, 3223560, Note_off_c, 1, 38, 0
1, 3223680, Note_on_c, 1, 38, 40
1, 3223800, Note_off_c, 1, 38, 0
1, 3223920, Note_on_c, 1, 38, 40
1, 3224160, Note_off_c, 1, 38, 0
1, 3224160, Note_on_c, 1, 33, 40
1, 3224280, Note_off_c, 1, 33, 0
1, 3224400, Note_on_c, 1, 33, 40
1, 3224520, Note_off_c, 1, 33, 0
1, 3224640, Note_on_c, 1, 33, 40
1, 3225120, Note_off_c, 1, 33, 0
1, 3225120, Note_on_c, 1, 28, 40
1, 3225360, Note_off_c, 1, 28, 0
1, 3225360, Note_on_c, 1, 33, 40
1, 3225480, Note_off_c, 1, 33, 0
1, 3225600, Note_on_c, 1, 33, 40
1, 3226080, Note_off_c, 1, 33, 0
1, 3226080, Note_on_c, 1, 28, 40
1, 3226320, Note_off_c, 1, 28, 0
1, 3226320, Note_on_c, 1, 33, 40
1, 3226440, Note_off_c, 1, 33, 0
1, 3226560, Note_on_c, 1, 33, 40
1, 3226920, Note_off_c, 1, 33, 0
1, 3227040, Note_on_c, 1, 33, 40
1, 3227160, Note_off_c, 1, 33, 0
1, 3227280, Note_on_c, 1, 33, 40
1, 3227400, Note_off_c, 1, 33, 0
1, 3232560, Note_on_c, 1, 33, 40
1, 3233160, Note_off_c, 1, 33, 0
1, 3233280, Note_on_c, 1, 33, 40
1, 3233520, Note_off_c, 1, 33, 0
1, 3233520, Note_on_c, 1, 40, 40
1, 3234480, Note_off_c, 1, 40, 0
1, 3234480, Note_on_c, 1, 30, 40
1, 3234960, Note_off_c, 1, 30, 0
1, 3235200, Note_on_c, 1, 30, 40
1, 3235440, Note_off_c, 1, 30, 0
1, 3235440, Note_on_c, 1, 37, 40
1, 3236400, Note_off_c, 1, 37, 0
1, 3236400, Note_on_c, 1, 33, 40
1, 3237000, Note_off_c, 1, 33, 0
1, 3237120, Note_on_c, 1, 33, 40
1, 3237360, Note_off_c, 1, 33, 0
1, 3237360, Note_on_c, 1, 40, 40
1, 3238320, Note_off_c, 1, 40, 0
1, 3238320, Note_on_c, 1, 30, 40
1, 3238920, Note_off_c, 1, 30, 0
1, 3239040, Note_on_c, 1, 30, 40
1, 3239280, Note_off_c, 1, 30, 0
1, 3239280, Note_on_c, 1, 37, 40
1, 3240240, Note_off_c, 1, 37, 0
1, 3240240, Note_on_c, 1, 33, 40
1, 3240840, Note_off_c, 1, 33, 0
1, 3240960, Note_on_c, 1, 33, 40
1, 3241200, Note_off_c, 1, 33, 0
1, 3241200, Note_on_c, 1, 40, 40
1, 3242160, Note_off_c, 1, 40, 0
1, 3242160, Note_on_c, 1, 30, 40
1, 3242760, Note_off_c, 1, 30, 0
1, 3242880, Note_on_c, 1, 30, 40
1, 3243120, Note_off_c, 1, 30, 0
1, 3243120, Note_on_c, 1, 37, 40
1, 3244080, Note_off_c, 1, 37, 0
1, 3244080, Note_on_c, 1, 33, 40
1, 3244680, Note_off_c, 1, 33, 0
1, 3244800, Note_on_c, 1, 33, 40
1, 3245040, Note_off_c, 1, 33, 0
1, 3245040, Note_on_c, 1, 40, 40
1, 3245880, Note_off_c, 1, 40, 0
1, 3246000, Note_on_c, 1, 40, 40
1, 3246600, Note_off_c, 1, 40, 0
1, 3246720, Note_on_c, 1, 40, 40
1, 3246960, Note_off_c, 1, 40, 0
1, 3246960, Note_on_c, 1, 35, 40
1, 3247320, Note_off_c, 1, 35, 0
1, 3247920, Note_on_c, 1, 38, 40
1, 3248520, Note_off_c, 1, 38, 0
1, 3248640, Note_on_c, 1, 38, 40
1, 3248880, Note_off_c, 1, 38, 0
1, 3248880, Note_on_c, 1, 33, 40
1, 3249720, Note_off_c, 1, 33, 0
1, 3249840, Note_on_c, 1, 42, 40
1, 3250440, Note_off_c, 1, 42, 0
1, 3250560, Note_on_c, 1, 42, 40
1, 3250800, Note_off_c, 1, 42, 0
1, 3250800, Note_on_c, 1, 37, 40
1, 3251760, Note_off_c, 1, 37, 0
1, 3251760, Note_on_c, 1, 33, 40
1, 3252360, Note_off_c, 1, 33, 0
1, 3252480, Note_on_c, 1, 33, 40
1, 3252720, Note_off_c, 1, 33, 0
1, 3252720, Note_on_c, 1, 28, 40
1, 3253440, Note_off_c, 1, 28, 0
1, 3253680, Note_on_c, 1, 33, 40
1, 3254160, Note_off_c, 1, 33, 0
1, 3254400, Note_on_c, 1, 33, 40
1, 3254520, Note_off_c, 1, 33, 0
1, 3254640, Note_on_c, 1, 42, 40
1, 3255600, Note_off_c, 1, 42, 0
1, 3255600, Note_on_c, 1, 33, 40
1, 3256200, Note_off_c, 1, 33, 0
1, 3256320, Note_on_c, 1, 33, 40
1, 3256560, Note_off_c, 1, 33, 0
1, 3256560, Note_on_c, 1, 40, 40
1, 3257520, Note_off_c, 1, 40, 0
1, 3257520, Note_on_c, 1, 30, 40
1, 3258120, Note_off_c, 1, 30, 0
1, 3258240, Note_on_c, 1, 30, 40
1, 3258480, Note_off_c, 1, 30, 0
1, 3258480, Note_on_c, 1, 37, 40
1, 3259440, Note_off_c, 1, 37, 0
1, 3259440, Note_on_c, 1, 33, 40
1, 3260040, Note_off_c, 1, 33, 0
1, 3260160, Note_on_c, 1, 33, 40
1, 3260400, Note_off_c, 1, 33, 0
1, 3260400, Note_on_c, 1, 40, 40
1, 3261240, Note_off_c, 1, 40, 0
1, 3261360, Note_on_c, 1, 40, 40
1, 3261960, Note_off_c, 1, 40, 0
1, 3262080, Note_on_c, 1, 40, 40
1, 3262320, Note_off_c, 1, 40, 0
1, 3262320, Note_on_c, 1, 35, 40
1, 3262680, Note_off_c, 1, 35, 0
1, 3263280, Note_on_c, 1, 38, 40
1, 3263880, Note_off_c, 1, 38, 0
1, 3264000, Note_on_c, 1, 38, 40
1, 3264240, Note_off_c, 1, 38, 0
1, 3264240, Note_on_c, 1, 33, 40
1, 3265080, Note_off_c, 1, 33, 0
1, 3265200, Note_on_c, 1, 42, 40
1, 3265800, Note_off_c, 1, 42, 0
1, 3265920, Note_on_c, 1, 42, 40
1, 3266160, Note_off_c, 1, 42, 0
1, 3266160, Note_on_c, 1, 37, 40
1, 3267120, Note_off_c, 1, 37, 0
1, 3267120, Note_on_c, 1, 33, 40
1, 3267720, Note_off_c, 1, 33, 0
1, 3267840, Note_on_c, 1, 33, 40
1, 3268080, Note_off_c, 1, 33, 0
1, 3268080, Note_on_c, 1, 28, 40
1, 3268800, Note_off_c, 1, 28, 0
1, 3269040, Note_on_c, 1, 33, 40
1, 3269520, Note_off_c, 1, 33, 0
1, 3269760, Note_on_c, 1, 33, 40
1, 3269880, Note_off_c, 1, 33, 0
1, 3270000, Note_on_c, 1, 42, 40
1, 3270960, Note_off_c, 1, 42, 0
1, 3270960, Note_on_c, 1, 40, 40
1, 3271920, Note_off_c, 1, 40, 0
1, 3271920, Note_on_c, 1, 35, 40
1, 3272640, Note_off_c, 1, 35, 0
1, 3272880, Note_on_c, 1, 33, 40
1, 3273840, Note_off_c, 1, 33, 0
1, 3273840, Note_on_c, 1, 40, 40
1, 3274560, Note_off_c, 1, 40, 0
1, 3274800, Note_on_c, 1, 38, 40
1, 3275760, Note_off_c, 1, 38, 0
1, 3275760, Note_on_c, 1, 33, 40
1, 3276720, Note_off_c, 1, 33, 0
1, 3276720, Note_on_c, 1, 38, 40
1, 3277680, Note_off_c, 1, 38, 0
1, 3277680, Note_on_c, 1, 33, 40
1, 3278280, Note_off_c, 1, 33, 0
1, 3278400, Note_on_c, 1, 46, 40
1, 3278520, Note_off_c, 1, 46, 0
1, 3278640, Note_on_c, 1, 47, 40
1, 3279480, Note_off_c, 1, 47, 0
1, 3279600, Note_on_c, 1, 42, 40
1, 3280560, Note_off_c, 1, 42, 0
1, 3280560, Note_on_c, 1, 47, 40
1, 3281520, Note_off_c, 1, 47, 0
1, 3281520, Note_on_c, 1, 42, 40
1, 3282240, Note_off_c, 1, 42, 0
1, 3282480, Note_on_c, 1, 40, 40
1, 3282600, Note_off_c, 1, 40, 0
1, 3282720, Note_on_c, 1, 40, 40
1, 3282840, Note_off_c, 1, 40, 0
1, 3282960, Note_on_c, 1, 40, 40
1, 3283080, Note_off_c, 1, 40, 0
1, 3283200, Note_on_c, 1, 40, 40
1, 3283320, Note_off_c, 1, 40, 0
1, 3283440, Note_on_c, 1, 40, 40
1, 3283560, Note_off_c, 1, 40, 0
1, 3283680, Note_on_c, 1, 40, 40
1, 3283800, Note_off_c, 1, 40, 0
1, 3283920, Note_on_c, 1, 40, 40
1, 3284040, Note_off_c, 1, 40, 0
1, 3284160, Note_on_c, 1, 40, 40
1, 3284280, Note_off_c, 1, 40, 0
1, 3284400, Note_on_c, 1, 40, 40
1, 3284520, Note_off_c, 1, 40, 0
1, 3284640, Note_on_c, 1, 40, 40
1, 3284760, Note_off_c, 1, 40, 0
1, 3284880, Note_on_c, 1, 40, 40
1, 3285000, Note_off_c, 1, 40, 0
1, 3285120, Note_on_c, 1, 40, 40
1, 3285240, Note_off_c, 1, 40, 0
1, 3285360, Note_on_c, 1, 40, 40
1, 3285480, Note_off_c, 1, 40, 0
1, 3285600, Note_on_c, 1, 40, 40
1, 3285720, Note_off_c, 1, 40, 0
1, 3285840, Note_on_c, 1, 40, 40
1, 3285960, Note_off_c, 1, 40, 0
1, 3286080, Note_on_c, 1, 40, 40
1, 3286200, Note_off_c, 1, 40, 0
1, 3286320, Note_on_c, 1, 33, 40
1, 3286920, Note_off_c, 1, 33, 0
1, 3287040, Note_on_c, 1, 33, 40
1, 3287280, Note_off_c, 1, 33, 0
1, 3287280, Note_on_c, 1, 40, 40
1, 3288240, Note_off_c, 1, 40, 0
1, 3288240, Note_on_c, 1, 30, 40
1, 3288840, Note_off_c, 1, 30, 0
1, 3288960, Note_on_c, 1, 30, 40
1, 3289200, Note_off_c, 1, 30, 0
1, 3289200, Note_on_c, 1, 37, 40
1, 3290160, Note_off_c, 1, 37, 0
1, 3290160, Note_on_c, 1, 33, 40
1, 3290760, Note_off_c, 1, 33, 0
1, 3290880, Note_on_c, 1, 33, 40
1, 3291120, Note_off_c, 1, 33, 0
1, 3291120, Note_on_c, 1, 40, 40
1, 3291960, Note_off_c, 1, 40, 0
1, 3292080, Note_on_c, 1, 40, 40
1, 3292680, Note_off_c, 1, 40, 0
1, 3292800, Note_on_c, 1, 40, 40
1, 3293040, Note_off_c, 1, 40, 0
1, 3293040, Note_on_c, 1, 35, 40
1, 3293400, Note_off_c, 1, 35, 0
1, 3294000, Note_on_c, 1, 38, 40
1, 3294600, Note_off_c, 1, 38, 0
1, 3294720, Note_on_c, 1, 38, 40
1, 3294960, Note_off_c, 1, 38, 0
1, 3294960, Note_on_c, 1, 33, 40
1, 3295800, Note_off_c, 1, 33, 0
1, 3295920, Note_on_c, 1, 42, 40
1, 3296520, Note_off_c, 1, 42, 0
1, 3296640, Note_on_c, 1, 42, 40
1, 3296880, Note_off_c, 1, 42, 0
1, 3296880, Note_on_c, 1, 37, 40
1, 3297840, Note_off_c, 1, 37, 0
1, 3297840, Note_on_c, 1, 33, 40
1, 3298440, Note_off_c, 1, 33, 0
1, 3298560, Note_on_c, 1, 33, 40
1, 3298800, Note_off_c, 1, 33, 0
1, 3298800, Note_on_c, 1, 28, 40
1, 3299520, Note_off_c, 1, 28, 0
1, 3299760, Note_on_c, 1, 33, 40
1, 3300240, Note_off_c, 1, 33, 0
1, 3300480, Note_on_c, 1, 33, 40
1, 3300600, Note_off_c, 1, 33, 0
1, 3300720, Note_on_c, 1, 42, 40
1, 3301680, Note_off_c, 1, 42, 0
1, 3301680, Note_on_c, 1, 33, 40
1, 3302280, Note_off_c, 1, 33, 0
1, 3302400, Note_on_c, 1, 33, 40
1, 3302640, Note_off_c, 1, 33, 0
1, 3302640, Note_on_c, 1, 40, 40
1, 3303600, Note_off_c, 1, 40, 0
1, 3303600, Note_on_c, 1, 30, 40
1, 3304200, Note_off_c, 1, 30, 0
1, 3304320, Note_on_c, 1, 30, 40
1, 3304560, Note_off_c, 1, 30, 0
1, 3304560, Note_on_c, 1, 37, 40
1, 3305520, Note_off_c, 1, 37, 0
1, 3305520, Note_on_c, 1, 33, 40
1, 3306120, Note_off_c, 1, 33, 0
1, 3306240, Note_on_c, 1, 33, 40
1, 3306480, Note_off_c, 1, 33, 0
1, 3306480, Note_on_c, 1, 40, 40
1, 3307320, Note_off_c, 1, 40, 0
1, 3307440, Note_on_c, 1, 40, 40
1, 3308040, Note_off_c, 1, 40, 0
1, 3308160, Note_on_c, 1, 40, 40
1, 3308400, Note_off_c, 1, 40, 0
1, 3308400, Note_on_c, 1, 35, 40
1, 3308760, Note_off_c, 1, 35, 0
1, 3309360, Note_on_c, 1, 38, 40
1, 3309960, Note_off_c, 1, 38, 0
1, 3310080, Note_on_c, 1, 38, 40
1, 3310320, Note_off_c, 1, 38, 0
1, 3310320, Note_on_c, 1, 33, 40
1, 3311160, Note_off_c, 1, 33, 0
1, 3311280, Note_on_c, 1, 42, 40
1, 3311880, Note_off_c, 1, 42, 0
1, 3312000, Note_on_c, 1, 42, 40
1, 3312240, Note_off_c, 1, 42, 0
1, 3312240, Note_on_c, 1, 37, 40
1, 3313200, Note_off_c, 1, 37, 0
1, 3313200, Note_on_c, 1, 33, 40
1, 3313800, Note_off_c, 1, 33, 0
1, 3313920, Note_on_c, 1, 33, 40
1, 3314160, Note_off_c, 1, 33, 0
1, 3314160, Note_on_c, 1, 28, 40
1, 3314880, Note_off_c, 1, 28, 0
1, 3315120, Note_on_c, 1, 33, 40
1, 3315600, Note_off_c, 1, 33, 0
1, 3315840, Note_on_c, 1, 33, 40
1, 3315960, Note_off_c, 1, 33, 0
1, 3316080, Note_on_c, 1, 42, 40
1, 3317040, Note_off_c, 1, 42, 0
1, 3317040, Note_on_c, 1, 40, 40
1, 3318000, Note_off_c, 1, 40, 0
1, 3318000, Note_on_c, 1, 35, 40
1, 3318720, Note_off_c, 1, 35, 0
1, 3318960, Note_on_c, 1, 33, 40
1, 3319920, Note_off_c, 1, 33, 0
1, 3319920, Note_on_c, 1, 40, 40
1, 3320640, Note_off_c, 1, 40, 0
1, 3320880, Note_on_c, 1, 38, 40
1, 3321840, Note_off_c, 1, 38, 0
1, 3321840, Note_on_c, 1, 33, 40
1, 3322800, Note_off_c, 1, 33, 0
1, 3322800, Note_on_c, 1, 38, 40
1, 3323760, Note_off_c, 1, 38, 0
1, 3323760, Note_on_c, 1, 33, 40
1, 3324360, Note_off_c, 1, 33, 0
1, 3324480, Note_on_c, 1, 46, 40
1, 3324600, Note_off_c, 1, 46, 0
1, 3324720, Note_on_c, 1, 47, 40
1, 3325560, Note_off_c, 1, 47, 0
1, 3325680, Note_on_c, 1, 42, 40
1, 3326640, Note_off_c, 1, 42, 0
1, 3326640, Note_on_c, 1, 47, 40
1, 3327600, Note_off_c, 1, 47, 0
1, 3327600, Note_on_c, 1, 42, 40
1, 3328320, Note_off_c, 1, 42, 0
1, 3328560, Note_on_c, 1, 40, 40
1, 3328680, Note_off_c, 1, 40, 0
1, 3328800, Note_on_c, 1, 40, 40
1, 3328920, Note_off_c, 1, 40, 0
1, 3329040, Note_on_c, 1, 40, 40
1, 3329160, Note_off_c, 1, 40, 0
1, 3329280, Note_on_c, 1, 40, 40
1, 3329400, Note_off_c, 1, 40, 0
1, 3329520, Note_on_c, 1, 40, 40
1, 3329640, Note_off_c, 1, 40, 0
1, 3329760, Note_on_c, 1, 40, 40
1, 3329880, Note_off_c, 1, 40, 0
1, 3330000, Note_on_c, 1, 40, 40
1, 3330120, Note_off_c, 1, 40, 0
1, 3330240, Note_on_c, 1, 40, 40
1, 3330360, Note_off_c, 1, 40, 0
1, 3330480, Note_on_c, 1, 40, 40
1, 3330600, Note_off_c, 1, 40, 0
1, 3330720, Note_on_c, 1, 40, 40
1, 3330840, Note_off_c, 1, 40, 0
1, 3330960, Note_on_c, 1, 40, 40
1, 3331080, Note_off_c, 1, 40, 0
1, 3331200, Note_on_c, 1, 40, 40
1, 3331320, Note_off_c, 1, 40, 0
1, 3331440, Note_on_c, 1, 40, 40
1, 3331560, Note_off_c, 1, 40, 0
1, 3331680, Note_on_c, 1, 40, 40
1, 3331800, Note_off_c, 1, 40, 0
1, 3331920, Note_on_c, 1, 40, 40
1, 3332040, Note_off_c, 1, 40, 0
1, 3332160, Note_on_c, 1, 40, 40
1, 3332280, Note_off_c, 1, 40, 0
1, 3332400, Note_on_c, 1, 33, 40
1, 3333000, Note_off_c, 1, 33, 0
1, 3333120, Note_on_c, 1, 33, 40
1, 3333360, Note_off_c, 1, 33, 0
1, 3333360, Note_on_c, 1, 40, 40
1, 3334320, Note_off_c, 1, 40, 0
1, 3334320, Note_on_c, 1, 30, 40
1, 3334920, Note_off_c, 1, 30, 0
1, 3335040, Note_on_c, 1, 30, 40
1, 3335280, Note_off_c, 1, 30, 0
1, 3335280, Note_on_c, 1, 37, 40
1, 3336240, Note_off_c, 1, 37, 0
1, 3336240, Note_on_c, 1, 33, 40
1, 3336840, Note_off_c, 1, 33, 0
1, 3336960, Note_on_c, 1, 33, 40
1, 3337200, Note_off_c, 1, 33, 0
1, 3337200, Note_on_c, 1, 40, 40
1, 3338040, Note_off_c, 1, 40, 0
1, 3338160, Note_on_c, 1, 40, 40
1, 3338760, Note_off_c, 1, 40, 0
1, 3338880, Note_on_c, 1, 40, 40
1, 3339120, Note_off_c, 1, 40, 0
1, 3339120, Note_on_c, 1, 35, 40
1, 3339480, Note_off_c, 1, 35, 0
1, 3340080, Note_on_c, 1, 38, 40
1, 3340680, Note_off_c, 1, 38, 0
1, 3340800, Note_on_c, 1, 38, 40
1, 3341040, Note_off_c, 1, 38, 0
1, 3341040, Note_on_c, 1, 33, 40
1, 3341880, Note_off_c, 1, 33, 0
1, 3342000, Note_on_c, 1, 42, 40
1, 3342600, Note_off_c, 1, 42, 0
1, 3342720, Note_on_c, 1, 42, 40
1, 3342960, Note_off_c, 1, 42, 0
1, 3342960, Note_on_c, 1, 37, 40
1, 3343920, Note_off_c, 1, 37, 0
1, 3343920, Note_on_c, 1, 33, 40
1, 3344520, Note_off_c, 1, 33, 0
1, 3344640, Note_on_c, 1, 33, 40
1, 3344880, Note_off_c, 1, 33, 0
1, 3344880, Note_on_c, 1, 28, 40
1, 3345600, Note_off_c, 1, 28, 0
1, 3345840, Note_on_c, 1, 33, 40
1, 3346320, Note_off_c, 1, 33, 0
1, 3346560, Note_on_c, 1, 40, 40
1, 3347520, Note_off_c, 1, 40, 0
1, 3347760, Note_on_c, 1, 42, 40
1, 3348480, Note_off_c, 1, 42, 0
1, 3348480, Note_on_c, 1, 37, 40
1, 3349200, Note_off_c, 1, 37, 0
1, 3349200, Note_on_c, 1, 42, 40
1, 3349680, Note_off_c, 1, 42, 0
1, 3349680, Note_on_c, 1, 41, 40
1, 3350520, Note_off_c, 1, 41, 0
1, 3351120, Note_on_c, 1, 40, 40
1, 3351600, Note_off_c, 1, 40, 0
1, 3351600, Note_on_c, 1, 33, 40
1, 3352200, Note_off_c, 1, 33, 0
1, 3352320, Note_on_c, 1, 33, 40
1, 3352440, Note_off_c, 1, 33, 0
1, 3352560, Note_on_c, 1, 40, 40
1, 3352800, Note_off_c, 1, 40, 0
1, 3353040, Note_on_c, 1, 40, 40
1, 3353400, Note_off_c, 1, 40, 0
1, 3353520, Note_on_c, 1, 42, 40
1, 3355320, Note_off_c, 1, 42, 0
1, 3360720, Note_on_c, 1, 45, 40
1, 3360960, Note_off_c, 1, 45, 0
1, 3360960, Note_on_c, 1, 45, 40
1, 3361200, Note_off_c, 1, 45, 0
1, 3361200, Note_on_c, 1, 45, 40
1, 3361440, Note_off_c, 1, 45, 0
1, 3361440, Note_on_c, 1, 45, 40
1, 3361680, Note_off_c, 1, 45, 0
1, 3361680, Note_on_c, 1, 45, 40
1, 3361920, Note_off_c, 1, 45, 0
1, 3361920, Note_on_c, 1, 45, 40
1, 3362160, Note_off_c, 1, 45, 0
1, 3362160, Note_on_c, 1, 45, 40
1, 3362400, Note_off_c, 1, 45, 0
1, 3362400, Note_on_c, 1, 45, 40
1, 3362640, Note_off_c, 1, 45, 0
1, 3362640, Note_on_c, 1, 45, 40
1, 3362880, Note_off_c, 1, 45, 0
1, 3362880, Note_on_c, 1, 45, 40
1, 3363120, Note_off_c, 1, 45, 0
1, 3363120, Note_on_c, 1, 45, 40
1, 3363360, Note_off_c, 1, 45, 0
1, 3363360, Note_on_c, 1, 45, 40
1, 3363600, Note_off_c, 1, 45, 0
1, 3363600, Note_on_c, 1, 45, 40
1, 3363840, Note_off_c, 1, 45, 0
1, 3363840, Note_on_c, 1, 45, 40
1, 3364080, Note_off_c, 1, 45, 0
1, 3364080, Note_on_c, 1, 45, 40
1, 3364320, Note_off_c, 1, 45, 0
1, 3364320, Note_on_c, 1, 45, 40
1, 3364560, Note_off_c, 1, 45, 0
1, 3364560, Note_on_c, 1, 45, 40
1, 3364800, Note_off_c, 1, 45, 0
1, 3364800, Note_on_c, 1, 45, 40
1, 3365040, Note_off_c, 1, 45, 0
1, 3365040, Note_on_c, 1, 45, 40
1, 3365280, Note_off_c, 1, 45, 0
1, 3365280, Note_on_c, 1, 45, 40
1, 3365520, Note_off_c, 1, 45, 0
1, 3365520, Note_on_c, 1, 45, 40
1, 3365760, Note_off_c, 1, 45, 0
1, 3365760, Note_on_c, 1, 45, 40
1, 3366000, Note_off_c, 1, 45, 0
1, 3366000, Note_on_c, 1, 45, 40
1, 3366240, Note_off_c, 1, 45, 0
1, 3366240, Note_on_c, 1, 45, 40
1, 3366480, Note_off_c, 1, 45, 0
1, 3366480, Note_on_c, 1, 45, 40
1, 3366720, Note_off_c, 1, 45, 0
1, 3366720, Note_on_c, 1, 45, 40
1, 3366960, Note_off_c, 1, 45, 0
1, 3366960, Note_on_c, 1, 45, 40
1, 3367200, Note_off_c, 1, 45, 0
1, 3367200, Note_on_c, 1, 45, 40
1, 3367440, Note_off_c, 1, 45, 0
1, 3367440, Note_on_c, 1, 45, 40
1, 3367680, Note_off_c, 1, 45, 0
1, 3367680, Note_on_c, 1, 45, 40
1, 3367920, Note_off_c, 1, 45, 0
1, 3367920, Note_on_c, 1, 45, 40
1, 3368160, Note_off_c, 1, 45, 0
1, 3368160, Note_on_c, 1, 45, 40
1, 3368400, Note_off_c, 1, 45, 0
1, 3368400, Note_on_c, 1, 45, 40
1, 3368640, Note_off_c, 1, 45, 0
1, 3368640, Note_on_c, 1, 45, 40
1, 3368880, Note_off_c, 1, 45, 0
1, 3368880, Note_on_c, 1, 45, 40
1, 3369120, Note_off_c, 1, 45, 0
1, 3369120, Note_on_c, 1, 45, 40
1, 3369360, Note_off_c, 1, 45, 0
1, 3369360, Note_on_c, 1, 45, 40
1, 3369600, Note_off_c, 1, 45, 0
1, 3369600, Note_on_c, 1, 45, 40
1, 3369840, Note_off_c, 1, 45, 0
1, 3369840, Note_on_c, 1, 45, 40
1, 3370080, Note_off_c, 1, 45, 0
1, 3370080, Note_on_c, 1, 45, 40
1, 3370320, Note_off_c, 1, 45, 0
1, 3370320, Note_on_c, 1, 45, 40
1, 3370560, Note_off_c, 1, 45, 0
1, 3370560, Note_on_c, 1, 45, 40
1, 3370800, Note_off_c, 1, 45, 0
1, 3370800, Note_on_c, 1, 45, 40
1, 3371040, Note_off_c, 1, 45, 0
1, 3371040, Note_on_c, 1, 45, 40
1, 3371280, Note_off_c, 1, 45, 0
1, 3371280, Note_on_c, 1, 45, 40
1, 3371520, Note_off_c, 1, 45, 0
1, 3371520, Note_on_c, 1, 45, 40
1, 3371760, Note_off_c, 1, 45, 0
1, 3371760, Note_on_c, 1, 45, 40
1, 3372000, Note_off_c, 1, 45, 0
1, 3372000, Note_on_c, 1, 45, 40
1, 3372240, Note_off_c, 1, 45, 0
1, 3372240, Note_on_c, 1, 38, 40
1, 3372480, Note_off_c, 1, 38, 0
1, 3372480, Note_on_c, 1, 38, 40
1, 3372720, Note_off_c, 1, 38, 0
1, 3372720, Note_on_c, 1, 38, 40
1, 3372960, Note_off_c, 1, 38, 0
1, 3372960, Note_on_c, 1, 38, 40
1, 3373200, Note_off_c, 1, 38, 0
1, 3373200, Note_on_c, 1, 38, 40
1, 3373440, Note_off_c, 1, 38, 0
1, 3373440, Note_on_c, 1, 38, 40
1, 3373680, Note_off_c, 1, 38, 0
1, 3373680, Note_on_c, 1, 38, 40
1, 3373920, Note_off_c, 1, 38, 0
1, 3373920, Note_on_c, 1, 38, 40
1, 3374160, Note_off_c, 1, 38, 0
1, 3374160, Note_on_c, 1, 45, 40
1, 3374400, Note_off_c, 1, 45, 0
1, 3374400, Note_on_c, 1, 45, 40
1, 3374640, Note_off_c, 1, 45, 0
1, 3374640, Note_on_c, 1, 45, 40
1, 3374880, Note_off_c, 1, 45, 0
1, 3374880, Note_on_c, 1, 45, 40
1, 3375120, Note_off_c, 1, 45, 0
1, 3375120, Note_on_c, 1, 45, 40
1, 3375360, Note_off_c, 1, 45, 0
1, 3375360, Note_on_c, 1, 45, 40
1, 3375600, Note_off_c, 1, 45, 0
1, 3375600, Note_on_c, 1, 45, 40
1, 3375840, Note_off_c, 1, 45, 0
1, 3375840, Note_on_c, 1, 45, 40
1, 3376080, Note_off_c, 1, 45, 0
1, 3376080, Note_on_c, 1, 45, 40
1, 3376320, Note_off_c, 1, 45, 0
1, 3376320, Note_on_c, 1, 45, 40
1, 3376560, Note_off_c, 1, 45, 0
1, 3376560, Note_on_c, 1, 45, 40
1, 3376800, Note_off_c, 1, 45, 0
1, 3376800, Note_on_c, 1, 45, 40
1, 3377040, Note_off_c, 1, 45, 0
1, 3377040, Note_on_c, 1, 45, 40
1, 3377280, Note_off_c, 1, 45, 0
1, 3377280, Note_on_c, 1, 45, 40
1, 3377520, Note_off_c, 1, 45, 0
1, 3377520, Note_on_c, 1, 45, 40
1, 3377760, Note_off_c, 1, 45, 0
1, 3377760, Note_on_c, 1, 45, 40
1, 3378000, Note_off_c, 1, 45, 0
1, 3378000, Note_on_c, 1, 45, 40
1, 3378240, Note_off_c, 1, 45, 0
1, 3378240, Note_on_c, 1, 45, 40
1, 3378480, Note_off_c, 1, 45, 0
1, 3378480, Note_on_c, 1, 45, 40
1, 3378720, Note_off_c, 1, 45, 0
1, 3378720, Note_on_c, 1, 45, 40
1, 3378960, Note_off_c, 1, 45, 0
1, 3378960, Note_on_c, 1, 45, 40
1, 3379200, Note_off_c, 1, 45, 0
1, 3379200, Note_on_c, 1, 45, 40
1, 3379440, Note_off_c, 1, 45, 0
1, 3379440, Note_on_c, 1, 45, 40
1, 3379680, Note_off_c, 1, 45, 0
1, 3379680, Note_on_c, 1, 45, 40
1, 3379920, Note_off_c, 1, 45, 0
1, 3379920, Note_on_c, 1, 38, 40
1, 3380160, Note_off_c, 1, 38, 0
1, 3380160, Note_on_c, 1, 38, 40
1, 3380400, Note_off_c, 1, 38, 0
1, 3380400, Note_on_c, 1, 38, 40
1, 3380640, Note_off_c, 1, 38, 0
1, 3380640, Note_on_c, 1, 38, 40
1, 3380880, Note_off_c, 1, 38, 0
1, 3380880, Note_on_c, 1, 38, 40
1, 3381120, Note_off_c, 1, 38, 0
1, 3381120, Note_on_c, 1, 38, 40
1, 3381360, Note_off_c, 1, 38, 0
1, 3381360, Note_on_c, 1, 38, 40
1, 3381600, Note_off_c, 1, 38, 0
1, 3381600, Note_on_c, 1, 38, 40
1, 3381840, Note_off_c, 1, 38, 0
1, 3381840, Note_on_c, 1, 45, 40
1, 3382080, Note_off_c, 1, 45, 0
1, 3382080, Note_on_c, 1, 45, 40
1, 3382320, Note_off_c, 1, 45, 0
1, 3382320, Note_on_c, 1, 45, 40
1, 3382560, Note_off_c, 1, 45, 0
1, 3382560, Note_on_c, 1, 45, 40
1, 3382800, Note_off_c, 1, 45, 0
1, 3382800, Note_on_c, 1, 45, 40
1, 3383040, Note_off_c, 1, 45, 0
1, 3383040, Note_on_c, 1, 45, 40
1, 3383280, Note_off_c, 1, 45, 0
1, 3383280, Note_on_c, 1, 45, 40
1, 3383520, Note_off_c, 1, 45, 0
1, 3383520, Note_on_c, 1, 45, 40
1, 3383760, Note_off_c, 1, 45, 0
1, 3383760, Note_on_c, 1, 45, 40
1, 3384000, Note_off_c, 1, 45, 0
1, 3384000, Note_on_c, 1, 45, 40
1, 3384240, Note_off_c, 1, 45, 0
1, 3384240, Note_on_c, 1, 45, 40
1, 3384480, Note_off_c, 1, 45, 0
1, 3384480, Note_on_c, 1, 45, 40
1, 3384720, Note_off_c, 1, 45, 0
1, 3384720, Note_on_c, 1, 45, 40
1, 3384960, Note_off_c, 1, 45, 0
1, 3384960, Note_on_c, 1, 45, 40
1, 3385200, Note_off_c, 1, 45, 0
1, 3385200, Note_on_c, 1, 45, 40
1, 3385440, Note_off_c, 1, 45, 0
1, 3385440, Note_on_c, 1, 45, 40
1, 3385680, Note_off_c, 1, 45, 0
1, 3385680, Note_on_c, 1, 45, 40
1, 3385920, Note_off_c, 1, 45, 0
1, 3385920, Note_on_c, 1, 45, 40
1, 3386160, Note_off_c, 1, 45, 0
1, 3386160, Note_on_c, 1, 45, 40
1, 3386400, Note_off_c, 1, 45, 0
1, 3386400, Note_on_c, 1, 45, 40
1, 3386640, Note_off_c, 1, 45, 0
1, 3386640, Note_on_c, 1, 45, 40
1, 3386880, Note_off_c, 1, 45, 0
1, 3386880, Note_on_c, 1, 45, 40
1, 3387120, Note_off_c, 1, 45, 0
1, 3387120, Note_on_c, 1, 45, 40
1, 3387360, Note_off_c, 1, 45, 0
1, 3387360, Note_on_c, 1, 45, 40
1, 3387600, Note_off_c, 1, 45, 0
1, 3387600, Note_on_c, 1, 38, 40
1, 3387840, Note_off_c, 1, 38, 0
1, 3387840, Note_on_c, 1, 38, 40
1, 3388080, Note_off_c, 1, 38, 0
1, 3388080, Note_on_c, 1, 38, 40
1, 3388320, Note_off_c, 1, 38, 0
1, 3388320, Note_on_c, 1, 38, 40
1, 3388560, Note_off_c, 1, 38, 0
1, 3388560, Note_on_c, 1, 38, 40
1, 3388800, Note_off_c, 1, 38, 0
1, 3388800, Note_on_c, 1, 38, 40
1, 3389040, Note_off_c, 1, 38, 0
1, 3389040, Note_on_c, 1, 38, 40
1, 3389280, Note_off_c, 1, 38, 0
1, 3389280, Note_on_c, 1, 38, 40
1, 3389520, Note_off_c, 1, 38, 0
1, 3389520, Note_on_c, 1, 45, 40
1, 3389760, Note_off_c, 1, 45, 0
1, 3389760, Note_on_c, 1, 45, 40
1, 3390000, Note_off_c, 1, 45, 0
1, 3390000, Note_on_c, 1, 45, 40
1, 3390240, Note_off_c, 1, 45, 0
1, 3390240, Note_on_c, 1, 45, 40
1, 3390480, Note_off_c, 1, 45, 0
1, 3390480, Note_on_c, 1, 45, 40
1, 3390720, Note_off_c, 1, 45, 0
1, 3390720, Note_on_c, 1, 45, 40
1, 3390960, Note_off_c, 1, 45, 0
1, 3390960, Note_on_c, 1, 45, 40
1, 3391200, Note_off_c, 1, 45, 0
1, 3391200, Note_on_c, 1, 45, 40
1, 3391440, Note_off_c, 1, 45, 0
1, 3391440, Note_on_c, 1, 45, 40
1, 3391680, Note_off_c, 1, 45, 0
1, 3391680, Note_on_c, 1, 45, 40
1, 3391920, Note_off_c, 1, 45, 0
1, 3391920, Note_on_c, 1, 45, 40
1, 3392160, Note_off_c, 1, 45, 0
1, 3392160, Note_on_c, 1, 45, 40
1, 3392400, Note_off_c, 1, 45, 0
1, 3392400, Note_on_c, 1, 45, 40
1, 3392640, Note_off_c, 1, 45, 0
1, 3392640, Note_on_c, 1, 45, 40
1, 3392880, Note_off_c, 1, 45, 0
1, 3392880, Note_on_c, 1, 45, 40
1, 3393120, Note_off_c, 1, 45, 0
1, 3393120, Note_on_c, 1, 45, 40
1, 3393360, Note_off_c, 1, 45, 0
1, 3393360, Note_on_c, 1, 45, 40
1, 3393600, Note_off_c, 1, 45, 0
1, 3393600, Note_on_c, 1, 45, 40
1, 3393840, Note_off_c, 1, 45, 0
1, 3393840, Note_on_c, 1, 45, 40
1, 3394080, Note_off_c, 1, 45, 0
1, 3394080, Note_on_c, 1, 45, 40
1, 3394320, Note_off_c, 1, 45, 0
1, 3394320, Note_on_c, 1, 45, 40
1, 3394560, Note_off_c, 1, 45, 0
1, 3394560, Note_on_c, 1, 45, 40
1, 3394800, Note_off_c, 1, 45, 0
1, 3394800, Note_on_c, 1, 45, 40
1, 3395040, Note_off_c, 1, 45, 0
1, 3395040, Note_on_c, 1, 45, 40
1, 3395280, Note_off_c, 1, 45, 0
1, 3395280, Note_on_c, 1, 38, 40
1, 3395520, Note_off_c, 1, 38, 0
1, 3395520, Note_on_c, 1, 38, 40
1, 3395760, Note_off_c, 1, 38, 0
1, 3395760, Note_on_c, 1, 38, 40
1, 3396000, Note_off_c, 1, 38, 0
1, 3396000, Note_on_c, 1, 38, 40
1, 3396240, Note_off_c, 1, 38, 0
1, 3396240, Note_on_c, 1, 38, 40
1, 3396480, Note_off_c, 1, 38, 0
1, 3396480, Note_on_c, 1, 38, 40
1, 3396720, Note_off_c, 1, 38, 0
1, 3396720, Note_on_c, 1, 38, 40
1, 3396960, Note_off_c, 1, 38, 0
1, 3396960, Note_on_c, 1, 38, 40
1, 3397200, Note_off_c, 1, 38, 0
1, 3397200, Note_on_c, 1, 45, 40
1, 3397440, Note_off_c, 1, 45, 0
1, 3397440, Note_on_c, 1, 45, 40
1, 3397680, Note_off_c, 1, 45, 0
1, 3397680, Note_on_c, 1, 45, 40
1, 3397920, Note_off_c, 1, 45, 0
1, 3397920, Note_on_c, 1, 45, 40
1, 3398160, Note_off_c, 1, 45, 0
1, 3398160, Note_on_c, 1, 45, 40
1, 3398400, Note_off_c, 1, 45, 0
1, 3398400, Note_on_c, 1, 45, 40
1, 3398640, Note_off_c, 1, 45, 0
1, 3398640, Note_on_c, 1, 45, 40
1, 3398880, Note_off_c, 1, 45, 0
1, 3398880, Note_on_c, 1, 45, 40
1, 3399120, Note_off_c, 1, 45, 0
1, 3399120, Note_on_c, 1, 33, 40
1, 3399360, Note_off_c, 1, 33, 0
1, 3399360, Note_on_c, 1, 45, 40
1, 3399600, Note_off_c, 1, 45, 0
1, 3399600, Note_on_c, 1, 45, 40
1, 3399840, Note_off_c, 1, 45, 0
1, 3399840, Note_on_c, 1, 45, 40
1, 3400080, Note_off_c, 1, 45, 0
1, 3400080, Note_on_c, 1, 45, 40
1, 3400320, Note_off_c, 1, 45, 0
1, 3400320, Note_on_c, 1, 45, 40
1, 3400560, Note_off_c, 1, 45, 0
1, 3400560, Note_on_c, 1, 45, 40
1, 3400800, Note_off_c, 1, 45, 0
1, 3400800, Note_on_c, 1, 45, 40
1, 3401040, Note_off_c, 1, 45, 0
1, 3401040, Note_on_c, 1, 33, 40
1, 3401280, Note_off_c, 1, 33, 0
1, 3401280, Note_on_c, 1, 45, 40
1, 3401520, Note_off_c, 1, 45, 0
1, 3401520, Note_on_c, 1, 45, 40
1, 3401760, Note_off_c, 1, 45, 0
1, 3401760, Note_on_c, 1, 45, 40
1, 3402000, Note_off_c, 1, 45, 0
1, 3402000, Note_on_c, 1, 45, 40
1, 3402240, Note_off_c, 1, 45, 0
1, 3402240, Note_on_c, 1, 45, 40
1, 3402480, Note_off_c, 1, 45, 0
1, 3402480, Note_on_c, 1, 45, 40
1, 3402720, Note_off_c, 1, 45, 0
1, 3402720, Note_on_c, 1, 45, 40
1, 3402960, Note_off_c, 1, 45, 0
1, 3402960, Note_on_c, 1, 38, 40
1, 3403200, Note_off_c, 1, 38, 0
1, 3403200, Note_on_c, 1, 38, 40
1, 3403440, Note_off_c, 1, 38, 0
1, 3403440, Note_on_c, 1, 38, 40
1, 3403680, Note_off_c, 1, 38, 0
1, 3403680, Note_on_c, 1, 38, 40
1, 3403920, Note_off_c, 1, 38, 0
1, 3403920, Note_on_c, 1, 38, 40
1, 3404160, Note_off_c, 1, 38, 0
1, 3404160, Note_on_c, 1, 38, 40
1, 3404400, Note_off_c, 1, 38, 0
1, 3404400, Note_on_c, 1, 38, 40
1, 3404640, Note_off_c, 1, 38, 0
1, 3404640, Note_on_c, 1, 38, 40
1, 3404880, Note_off_c, 1, 38, 0
1, 3404880, Note_on_c, 1, 45, 40
1, 3405120, Note_off_c, 1, 45, 0
1, 3405120, Note_on_c, 1, 45, 40
1, 3405360, Note_off_c, 1, 45, 0
1, 3405360, Note_on_c, 1, 45, 40
1, 3405600, Note_off_c, 1, 45, 0
1, 3405600, Note_on_c, 1, 45, 40
1, 3405840, Note_off_c, 1, 45, 0
1, 3405840, Note_on_c, 1, 43, 40
1, 3406320, Note_off_c, 1, 43, 0
1, 3406320, Note_on_c, 1, 38, 40
1, 3406800, Note_off_c, 1, 38, 0
1, 3406800, Note_on_c, 1, 45, 40
1, 3407040, Note_off_c, 1, 45, 0
1, 3407040, Note_on_c, 1, 45, 40
1, 3407280, Note_off_c, 1, 45, 0
1, 3407280, Note_on_c, 1, 45, 40
1, 3407520, Note_off_c, 1, 45, 0
1, 3407520, Note_on_c, 1, 45, 40
1, 3407760, Note_off_c, 1, 45, 0
1, 3407760, Note_on_c, 1, 45, 40
1, 3408000, Note_off_c, 1, 45, 0
1, 3408000, Note_on_c, 1, 45, 40
1, 3408240, Note_off_c, 1, 45, 0
1, 3408240, Note_on_c, 1, 45, 40
1, 3408480, Note_off_c, 1, 45, 0
1, 3408480, Note_on_c, 1, 45, 40
1, 3408720, Note_off_c, 1, 45, 0
1, 3408720, Note_on_c, 1, 45, 40
1, 3408960, Note_off_c, 1, 45, 0
1, 3408960, Note_on_c, 1, 45, 40
1, 3409200, Note_off_c, 1, 45, 0
1, 3409200, Note_on_c, 1, 45, 40
1, 3409440, Note_off_c, 1, 45, 0
1, 3409440, Note_on_c, 1, 45, 40
1, 3409680, Note_off_c, 1, 45, 0
1, 3409680, Note_on_c, 1, 45, 40
1, 3409920, Note_off_c, 1, 45, 0
1, 3409920, Note_on_c, 1, 45, 40
1, 3410160, Note_off_c, 1, 45, 0
1, 3410160, Note_on_c, 1, 45, 40
1, 3410400, Note_off_c, 1, 45, 0
1, 3410400, Note_on_c, 1, 45, 40
1, 3410640, Note_off_c, 1, 45, 0
1, 3410640, Note_on_c, 1, 38, 40
1, 3410880, Note_off_c, 1, 38, 0
1, 3410880, Note_on_c, 1, 38, 40
1, 3411120, Note_off_c, 1, 38, 0
1, 3411120, Note_on_c, 1, 38, 40
1, 3411360, Note_off_c, 1, 38, 0
1, 3411360, Note_on_c, 1, 38, 40
1, 3411600, Note_off_c, 1, 38, 0
1, 3411600, Note_on_c, 1, 38, 40
1, 3411840, Note_off_c, 1, 38, 0
1, 3411840, Note_on_c, 1, 38, 40
1, 3412080, Note_off_c, 1, 38, 0
1, 3412080, Note_on_c, 1, 38, 40
1, 3412320, Note_off_c, 1, 38, 0
1, 3412320, Note_on_c, 1, 38, 40
1, 3412560, Note_off_c, 1, 38, 0
1, 3412560, Note_on_c, 1, 45, 40
1, 3412800, Note_off_c, 1, 45, 0
1, 3412800, Note_on_c, 1, 45, 40
1, 3413040, Note_off_c, 1, 45, 0
1, 3413040, Note_on_c, 1, 45, 40
1, 3413280, Note_off_c, 1, 45, 0
1, 3413280, Note_on_c, 1, 45, 40
1, 3413520, Note_off_c, 1, 45, 0
1, 3413520, Note_on_c, 1, 45, 40
1, 3413760, Note_off_c, 1, 45, 0
1, 3413760, Note_on_c, 1, 48, 40
1, 3414000, Note_off_c, 1, 48, 0
1, 3414000, Note_on_c, 1, 45, 40
1, 3414240, Note_off_c, 1, 45, 0
1, 3414240, Note_on_c, 1, 40, 40
1, 3414480, Note_off_c, 1, 40, 0
1, 3414480, Note_on_c, 1, 33, 40
1, 3414720, Note_off_c, 1, 33, 0
1, 3414720, Note_on_c, 1, 45, 40
1, 3414960, Note_off_c, 1, 45, 0
1, 3414960, Note_on_c, 1, 45, 40
1, 3415200, Note_off_c, 1, 45, 0
1, 3415200, Note_on_c, 1, 45, 40
1, 3415440, Note_off_c, 1, 45, 0
1, 3415440, Note_on_c, 1, 33, 40
1, 3415680, Note_off_c, 1, 33, 0
1, 3415680, Note_on_c, 1, 45, 40
1, 3415920, Note_off_c, 1, 45, 0
1, 3415920, Note_on_c, 1, 45, 40
1, 3416160, Note_off_c, 1, 45, 0
1, 3416160, Note_on_c, 1, 45, 40
1, 3416400, Note_off_c, 1, 45, 0
1, 3416400, Note_on_c, 1, 33, 40
1, 3416640, Note_off_c, 1, 33, 0
1, 3416640, Note_on_c, 1, 45, 40
1, 3416880, Note_off_c, 1, 45, 0
1, 3416880, Note_on_c, 1, 45, 40
1, 3417120, Note_off_c, 1, 45, 0
1, 3417120, Note_on_c, 1, 45, 40
1, 3417360, Note_off_c, 1, 45, 0
1, 3417360, Note_on_c, 1, 33, 40
1, 3417600, Note_off_c, 1, 33, 0
1, 3417600, Note_on_c, 1, 45, 40
1, 3417840, Note_off_c, 1, 45, 0
1, 3417840, Note_on_c, 1, 45, 40
1, 3418080, Note_off_c, 1, 45, 0
1, 3418080, Note_on_c, 1, 45, 40
1, 3418320, Note_off_c, 1, 45, 0
1, 3418320, Note_on_c, 1, 38, 40
1, 3418560, Note_off_c, 1, 38, 0
1, 3418560, Note_on_c, 1, 38, 40
1, 3418800, Note_off_c, 1, 38, 0
1, 3418800, Note_on_c, 1, 38, 40
1, 3419040, Note_off_c, 1, 38, 0
1, 3419040, Note_on_c, 1, 38, 40
1, 3419280, Note_off_c, 1, 38, 0
1, 3419280, Note_on_c, 1, 38, 40
1, 3419520, Note_off_c, 1, 38, 0
1, 3419520, Note_on_c, 1, 38, 40
1, 3419760, Note_off_c, 1, 38, 0
1, 3419760, Note_on_c, 1, 38, 40
1, 3420000, Note_off_c, 1, 38, 0
1, 3420000, Note_on_c, 1, 38, 40
1, 3420240, Note_off_c, 1, 38, 0
1, 3420240, Note_on_c, 1, 45, 40
1, 3420480, Note_off_c, 1, 45, 0
1, 3420480, Note_on_c, 1, 45, 40
1, 3420720, Note_off_c, 1, 45, 0
1, 3420720, Note_on_c, 1, 45, 40
1, 3420960, Note_off_c, 1, 45, 0
1, 3420960, Note_on_c, 1, 43, 40
1, 3421080, Note_off_c, 1, 43, 0
1, 3421080, Note_on_c, 1, 45, 40
1, 3421200, Note_off_c, 1, 45, 0
1, 3421200, Note_on_c, 1, 33, 40
1, 3421440, Note_off_c, 1, 33, 0
1, 3421440, Note_on_c, 1, 45, 40
1, 3421680, Note_off_c, 1, 45, 0
1, 3421680, Note_on_c, 1, 45, 40
1, 3421920, Note_off_c, 1, 45, 0
1, 3421920, Note_on_c, 1, 45, 40
1, 3422160, Note_off_c, 1, 45, 0
1, 3422160, Note_on_c, 1, 33, 40
1, 3422400, Note_off_c, 1, 33, 0
1, 3422400, Note_on_c, 1, 45, 40
1, 3422640, Note_off_c, 1, 45, 0
1, 3422640, Note_on_c, 1, 45, 40
1, 3422880, Note_off_c, 1, 45, 0
1, 3422880, Note_on_c, 1, 45, 40
1, 3423120, Note_off_c, 1, 45, 0
1, 3423120, Note_on_c, 1, 45, 40
1, 3423360, Note_off_c, 1, 45, 0
1, 3423360, Note_on_c, 1, 45, 40
1, 3423600, Note_off_c, 1, 45, 0
1, 3423600, Note_on_c, 1, 45, 40
1, 3423840, Note_off_c, 1, 45, 0
1, 3423840, Note_on_c, 1, 45, 40
1, 3424080, Note_off_c, 1, 45, 0
1, 3424080, Note_on_c, 1, 33, 40
1, 3424320, Note_off_c, 1, 33, 0
1, 3424320, Note_on_c, 1, 45, 40
1, 3424560, Note_off_c, 1, 45, 0
1, 3424560, Note_on_c, 1, 45, 40
1, 3424800, Note_off_c, 1, 45, 0
1, 3424800, Note_on_c, 1, 45, 40
1, 3425040, Note_off_c, 1, 45, 0
1, 3425040, Note_on_c, 1, 45, 40
1, 3425280, Note_off_c, 1, 45, 0
1, 3425280, Note_on_c, 1, 45, 40
1, 3425520, Note_off_c, 1, 45, 0
1, 3425520, Note_on_c, 1, 45, 40
1, 3425760, Note_off_c, 1, 45, 0
1, 3425760, Note_on_c, 1, 45, 40
1, 3426000, Note_off_c, 1, 45, 0
1, 3426000, Note_on_c, 1, 45, 40
1, 3426240, Note_off_c, 1, 45, 0
1, 3426240, Note_on_c, 1, 45, 40
1, 3426480, Note_off_c, 1, 45, 0
1, 3426480, Note_on_c, 1, 45, 40
1, 3426720, Note_off_c, 1, 45, 0
1, 3426720, Note_on_c, 1, 45, 40
1, 3426960, Note_off_c, 1, 45, 0
1, 3426960, Note_on_c, 1, 45, 40
1, 3427200, Note_off_c, 1, 45, 0
1, 3427200, Note_on_c, 1, 45, 40
1, 3427440, Note_off_c, 1, 45, 0
1, 3427440, Note_on_c, 1, 36, 40
1, 3427680, Note_off_c, 1, 36, 0
1, 3427680, Note_on_c, 1, 38, 40
1, 3429600, Note_off_c, 1, 38, 0
1, 3429600, Note_on_c, 1, 38, 40
1, 3431520, Note_off_c, 1, 38, 0
1, 3431520, Note_on_c, 1, 38, 40
1, 3431760, Note_off_c, 1, 38, 0
1, 3431760, Note_on_c, 1, 45, 40
1, 3432000, Note_off_c, 1, 45, 0
1, 3432000, Note_on_c, 1, 45, 40
1, 3432240, Note_off_c, 1, 45, 0
1, 3432240, Note_on_c, 1, 45, 40
1, 3432480, Note_off_c, 1, 45, 0
1, 3432480, Note_on_c, 1, 45, 40
1, 3432720, Note_off_c, 1, 45, 0
1, 3432720, Note_on_c, 1, 45, 40
1, 3432960, Note_off_c, 1, 45, 0
1, 3432960, Note_on_c, 1, 45, 40
1, 3433200, Note_off_c, 1, 45, 0
1, 3433200, Note_on_c, 1, 45, 40
1, 3433440, Note_off_c, 1, 45, 0
1, 3433440, Note_on_c, 1, 45, 40
1, 3433680, Note_off_c, 1, 45, 0
1, 3433680, Note_on_c, 1, 45, 40
1, 3433920, Note_off_c, 1, 45, 0
1, 3433920, Note_on_c, 1, 45, 40
1, 3434160, Note_off_c, 1, 45, 0
1, 3434160, Note_on_c, 1, 45, 40
1, 3434400, Note_off_c, 1, 45, 0
1, 3434400, Note_on_c, 1, 45, 40
1, 3434640, Note_off_c, 1, 45, 0
1, 3434640, Note_on_c, 1, 45, 40
1, 3434880, Note_off_c, 1, 45, 0
1, 3434880, Note_on_c, 1, 45, 40
1, 3435120, Note_off_c, 1, 45, 0
1, 3435120, Note_on_c, 1, 45, 40
1, 3435360, Note_off_c, 1, 45, 0
1, 3435360, Note_on_c, 1, 45, 40
1, 3435600, Note_off_c, 1, 45, 0
1, 3435600, Note_on_c, 1, 38, 40
1, 3435840, Note_off_c, 1, 38, 0
1, 3435840, Note_on_c, 1, 38, 40
1, 3436080, Note_off_c, 1, 38, 0
1, 3436080, Note_on_c, 1, 38, 40
1, 3436320, Note_off_c, 1, 38, 0
1, 3436320, Note_on_c, 1, 38, 40
1, 3436560, Note_off_c, 1, 38, 0
1, 3436560, Note_on_c, 1, 38, 40
1, 3436800, Note_off_c, 1, 38, 0
1, 3436800, Note_on_c, 1, 38, 40
1, 3437040, Note_off_c, 1, 38, 0
1, 3437040, Note_on_c, 1, 38, 40
1, 3437280, Note_off_c, 1, 38, 0
1, 3437280, Note_on_c, 1, 38, 40
1, 3437520, Note_off_c, 1, 38, 0
1, 3437520, Note_on_c, 1, 45, 40
1, 3437760, Note_off_c, 1, 45, 0
1, 3437760, Note_on_c, 1, 45, 40
1, 3438000, Note_off_c, 1, 45, 0
1, 3438000, Note_on_c, 1, 45, 40
1, 3438240, Note_off_c, 1, 45, 0
1, 3438240, Note_on_c, 1, 45, 40
1, 3438480, Note_off_c, 1, 45, 0
1, 3438480, Note_on_c, 1, 45, 40
1, 3438720, Note_off_c, 1, 45, 0
1, 3438720, Note_on_c, 1, 43, 40
1, 3438960, Note_off_c, 1, 43, 0
1, 3438960, Note_on_c, 1, 45, 40
1, 3439200, Note_off_c, 1, 45, 0
1, 3439200, Note_on_c, 1, 48, 40
1, 3439440, Note_off_c, 1, 48, 0
1, 3439440, Note_on_c, 1, 33, 40
1, 3439680, Note_off_c, 1, 33, 0
1, 3439680, Note_on_c, 1, 45, 40
1, 3439920, Note_off_c, 1, 45, 0
1, 3439920, Note_on_c, 1, 45, 40
1, 3440160, Note_off_c, 1, 45, 0
1, 3440160, Note_on_c, 1, 45, 40
1, 3440400, Note_off_c, 1, 45, 0
1, 3440400, Note_on_c, 1, 33, 40
1, 3440640, Note_off_c, 1, 33, 0
1, 3440640, Note_on_c, 1, 45, 40
1, 3440880, Note_off_c, 1, 45, 0
1, 3440880, Note_on_c, 1, 45, 40
1, 3441120, Note_off_c, 1, 45, 0
1, 3441120, Note_on_c, 1, 45, 40
1, 3441360, Note_off_c, 1, 45, 0
1, 3441360, Note_on_c, 1, 33, 40
1, 3441600, Note_off_c, 1, 33, 0
1, 3441600, Note_on_c, 1, 45, 40
1, 3441840, Note_off_c, 1, 45, 0
1, 3441840, Note_on_c, 1, 45, 40
1, 3442080, Note_off_c, 1, 45, 0
1, 3442080, Note_on_c, 1, 45, 40
1, 3442320, Note_off_c, 1, 45, 0
1, 3442320, Note_on_c, 1, 33, 40
1, 3442560, Note_off_c, 1, 33, 0
1, 3442560, Note_on_c, 1, 45, 40
1, 3442800, Note_off_c, 1, 45, 0
1, 3442800, Note_on_c, 1, 45, 40
1, 3443040, Note_off_c, 1, 45, 0
1, 3443040, Note_on_c, 1, 45, 40
1, 3443280, Note_off_c, 1, 45, 0
1, 3443280, Note_on_c, 1, 38, 40
1, 3443520, Note_off_c, 1, 38, 0
1, 3443520, Note_on_c, 1, 38, 40
1, 3443760, Note_off_c, 1, 38, 0
1, 3443760, Note_on_c, 1, 38, 40
1, 3444000, Note_off_c, 1, 38, 0
1, 3444000, Note_on_c, 1, 38, 40
1, 3444240, Note_off_c, 1, 38, 0
1, 3444240, Note_on_c, 1, 38, 40
1, 3444480, Note_off_c, 1, 38, 0
1, 3444480, Note_on_c, 1, 38, 40
1, 3444720, Note_off_c, 1, 38, 0
1, 3444720, Note_on_c, 1, 38, 40
1, 3444960, Note_off_c, 1, 38, 0
1, 3444960, Note_on_c, 1, 38, 40
1, 3445200, Note_off_c, 1, 38, 0
1, 3445200, Note_on_c, 1, 45, 40
1, 3445440, Note_off_c, 1, 45, 0
1, 3445440, Note_on_c, 1, 45, 40
1, 3445680, Note_off_c, 1, 45, 0
1, 3445680, Note_on_c, 1, 45, 40
1, 3445920, Note_off_c, 1, 45, 0
1, 3445920, Note_on_c, 1, 45, 40
1, 3446160, Note_off_c, 1, 45, 0
1, 3446160, Note_on_c, 1, 45, 40
1, 3446400, Note_off_c, 1, 45, 0
1, 3446400, Note_on_c, 1, 45, 40
1, 3446640, Note_off_c, 1, 45, 0
1, 3446640, Note_on_c, 1, 45, 40
1, 3446880, Note_off_c, 1, 45, 0
1, 3446880, Note_on_c, 1, 45, 40
1, 3447120, Note_off_c, 1, 45, 0
1, 3447120, Note_on_c, 1, 45, 40
1, 3447360, Note_off_c, 1, 45, 0
1, 3447360, Note_on_c, 1, 45, 40
1, 3447600, Note_off_c, 1, 45, 0
1, 3447600, Note_on_c, 1, 45, 40
1, 3447840, Note_off_c, 1, 45, 0
1, 3447840, Note_on_c, 1, 45, 40
1, 3448080, Note_off_c, 1, 45, 0
1, 3448080, Note_on_c, 1, 45, 40
1, 3448320, Note_off_c, 1, 45, 0
1, 3448320, Note_on_c, 1, 45, 40
1, 3448560, Note_off_c, 1, 45, 0
1, 3448560, Note_on_c, 1, 45, 40
1, 3448800, Note_off_c, 1, 45, 0
1, 3448800, Note_on_c, 1, 45, 40
1, 3449040, Note_off_c, 1, 45, 0
1, 3449040, Note_on_c, 1, 45, 40
1, 3449280, Note_off_c, 1, 45, 0
1, 3449280, Note_on_c, 1, 45, 40
1, 3449520, Note_off_c, 1, 45, 0
1, 3449520, Note_on_c, 1, 45, 40
1, 3449760, Note_off_c, 1, 45, 0
1, 3449760, Note_on_c, 1, 45, 40
1, 3450000, Note_off_c, 1, 45, 0
1, 3450000, Note_on_c, 1, 45, 40
1, 3450240, Note_off_c, 1, 45, 0
1, 3450240, Note_on_c, 1, 45, 40
1, 3450480, Note_off_c, 1, 45, 0
1, 3450480, Note_on_c, 1, 45, 40
1, 3450720, Note_off_c, 1, 45, 0
1, 3450720, Note_on_c, 1, 45, 40
1, 3450960, Note_off_c, 1, 45, 0
1, 3450960, Note_on_c, 1, 38, 40
1, 3451200, Note_off_c, 1, 38, 0
1, 3451200, Note_on_c, 1, 38, 40
1, 3451440, Note_off_c, 1, 38, 0
1, 3451440, Note_on_c, 1, 38, 40
1, 3451680, Note_off_c, 1, 38, 0
1, 3451680, Note_on_c, 1, 38, 40
1, 3451920, Note_off_c, 1, 38, 0
1, 3451920, Note_on_c, 1, 38, 40
1, 3452160, Note_off_c, 1, 38, 0
1, 3452160, Note_on_c, 1, 38, 40
1, 3452400, Note_off_c, 1, 38, 0
1, 3452400, Note_on_c, 1, 38, 40
1, 3452640, Note_off_c, 1, 38, 0
1, 3452640, Note_on_c, 1, 38, 40
1, 3452880, Note_off_c, 1, 38, 0
1, 3452880, Note_on_c, 1, 45, 40
1, 3453120, Note_off_c, 1, 45, 0
1, 3453120, Note_on_c, 1, 45, 40
1, 3453360, Note_off_c, 1, 45, 0
1, 3453360, Note_on_c, 1, 45, 40
1, 3453600, Note_off_c, 1, 45, 0
1, 3453600, Note_on_c, 1, 45, 40
1, 3453840, Note_off_c, 1, 45, 0
1, 3453840, Note_on_c, 1, 45, 40
1, 3454080, Note_off_c, 1, 45, 0
1, 3454080, Note_on_c, 1, 45, 40
1, 3454320, Note_off_c, 1, 45, 0
1, 3454320, Note_on_c, 1, 45, 40
1, 3454560, Note_off_c, 1, 45, 0
1, 3454560, Note_on_c, 1, 45, 40
1, 3454800, Note_off_c, 1, 45, 0
1, 3454800, Note_on_c, 1, 45, 40
1, 3455040, Note_off_c, 1, 45, 0
1, 3455040, Note_on_c, 1, 45, 40
1, 3455280, Note_off_c, 1, 45, 0
1, 3455280, Note_on_c, 1, 45, 40
1, 3455520, Note_off_c, 1, 45, 0
1, 3455520, Note_on_c, 1, 45, 40
1, 3455760, Note_off_c, 1, 45, 0
1, 3455760, Note_on_c, 1, 45, 40
1, 3456000, Note_off_c, 1, 45, 0
1, 3456000, Note_on_c, 1, 45, 40
1, 3456240, Note_off_c, 1, 45, 0
1, 3456240, Note_on_c, 1, 45, 40
1, 3456480, Note_off_c, 1, 45, 0
1, 3456480, Note_on_c, 1, 45, 40
1, 3456720, Note_off_c, 1, 45, 0
1, 3456720, Note_on_c, 1, 45, 40
1, 3456960, Note_off_c, 1, 45, 0
1, 3456960, Note_on_c, 1, 45, 40
1, 3457200, Note_off_c, 1, 45, 0
1, 3457200, Note_on_c, 1, 45, 40
1, 3457440, Note_off_c, 1, 45, 0
1, 3457440, Note_on_c, 1, 45, 40
1, 3457680, Note_off_c, 1, 45, 0
1, 3457680, Note_on_c, 1, 45, 40
1, 3457920, Note_off_c, 1, 45, 0
1, 3457920, Note_on_c, 1, 45, 40
1, 3458160, Note_off_c, 1, 45, 0
1, 3458160, Note_on_c, 1, 45, 40
1, 3458400, Note_off_c, 1, 45, 0
1, 3458400, Note_on_c, 1, 45, 40
1, 3458640, Note_off_c, 1, 45, 0
1, 3458640, Note_on_c, 1, 38, 40
1, 3458880, Note_off_c, 1, 38, 0
1, 3458880, Note_on_c, 1, 38, 40
1, 3459120, Note_off_c, 1, 38, 0
1, 3459120, Note_on_c, 1, 38, 40
1, 3459360, Note_off_c, 1, 38, 0
1, 3459360, Note_on_c, 1, 38, 40
1, 3459600, Note_off_c, 1, 38, 0
1, 3459600, Note_on_c, 1, 38, 40
1, 3459840, Note_off_c, 1, 38, 0
1, 3459840, Note_on_c, 1, 38, 40
1, 3460080, Note_off_c, 1, 38, 0
1, 3460080, Note_on_c, 1, 38, 40
1, 3460320, Note_off_c, 1, 38, 0
1, 3460320, Note_on_c, 1, 38, 40
1, 3460560, Note_off_c, 1, 38, 0
1, 3460560, Note_on_c, 1, 45, 40
1, 3460800, Note_off_c, 1, 45, 0
1, 3460800, Note_on_c, 1, 45, 40
1, 3461040, Note_off_c, 1, 45, 0
1, 3461040, Note_on_c, 1, 45, 40
1, 3461280, Note_off_c, 1, 45, 0
1, 3461280, Note_on_c, 1, 45, 40
1, 3461520, Note_off_c, 1, 45, 0
1, 3461520, Note_on_c, 1, 45, 40
1, 3461760, Note_off_c, 1, 45, 0
1, 3461760, Note_on_c, 1, 45, 40
1, 3462000, Note_off_c, 1, 45, 0
1, 3462000, Note_on_c, 1, 45, 40
1, 3462240, Note_off_c, 1, 45, 0
1, 3462240, Note_on_c, 1, 45, 40
1, 3462480, Note_off_c, 1, 45, 0
1, 3462480, Note_on_c, 1, 45, 40
1, 3462720, Note_off_c, 1, 45, 0
1, 3462720, Note_on_c, 1, 45, 40
1, 3462960, Note_off_c, 1, 45, 0
1, 3462960, Note_on_c, 1, 45, 40
1, 3463200, Note_off_c, 1, 45, 0
1, 3463200, Note_on_c, 1, 45, 40
1, 3463440, Note_off_c, 1, 45, 0
1, 3463440, Note_on_c, 1, 45, 40
1, 3463680, Note_off_c, 1, 45, 0
1, 3463680, Note_on_c, 1, 45, 40
1, 3463920, Note_off_c, 1, 45, 0
1, 3463920, Note_on_c, 1, 45, 40
1, 3464160, Note_off_c, 1, 45, 0
1, 3464160, Note_on_c, 1, 45, 40
1, 3464400, Note_off_c, 1, 45, 0
1, 3464400, Note_on_c, 1, 45, 40
1, 3464640, Note_off_c, 1, 45, 0
1, 3464640, Note_on_c, 1, 45, 40
1, 3464880, Note_off_c, 1, 45, 0
1, 3464880, Note_on_c, 1, 45, 40
1, 3465120, Note_off_c, 1, 45, 0
1, 3465120, Note_on_c, 1, 45, 40
1, 3465360, Note_off_c, 1, 45, 0
1, 3465360, Note_on_c, 1, 45, 40
1, 3465600, Note_off_c, 1, 45, 0
1, 3465600, Note_on_c, 1, 45, 40
1, 3465840, Note_off_c, 1, 45, 0
1, 3465840, Note_on_c, 1, 45, 40
1, 3466080, Note_off_c, 1, 45, 0
1, 3466080, Note_on_c, 1, 45, 40
1, 3466320, Note_off_c, 1, 45, 0
1, 3466320, Note_on_c, 1, 38, 40
1, 3466560, Note_off_c, 1, 38, 0
1, 3466560, Note_on_c, 1, 38, 40
1, 3466800, Note_off_c, 1, 38, 0
1, 3466800, Note_on_c, 1, 38, 40
1, 3467040, Note_off_c, 1, 38, 0
1, 3467040, Note_on_c, 1, 38, 40
1, 3467280, Note_off_c, 1, 38, 0
1, 3467280, Note_on_c, 1, 38, 40
1, 3467520, Note_off_c, 1, 38, 0
1, 3467520, Note_on_c, 1, 38, 40
1, 3467760, Note_off_c, 1, 38, 0
1, 3467760, Note_on_c, 1, 38, 40
1, 3468000, Note_off_c, 1, 38, 0
1, 3468000, Note_on_c, 1, 38, 40
1, 3468240, Note_off_c, 1, 38, 0
1, 3468240, Note_on_c, 1, 45, 40
1, 3468480, Note_off_c, 1, 45, 0
1, 3468480, Note_on_c, 1, 45, 40
1, 3468720, Note_off_c, 1, 45, 0
1, 3468720, Note_on_c, 1, 45, 40
1, 3468960, Note_off_c, 1, 45, 0
1, 3468960, Note_on_c, 1, 45, 40
1, 3469200, Note_off_c, 1, 45, 0
1, 3469200, Note_on_c, 1, 45, 40
1, 3469440, Note_off_c, 1, 45, 0
1, 3469440, Note_on_c, 1, 45, 40
1, 3469680, Note_off_c, 1, 45, 0
1, 3469680, Note_on_c, 1, 45, 40
1, 3469920, Note_off_c, 1, 45, 0
1, 3469920, Note_on_c, 1, 45, 40
1, 3470160, Note_off_c, 1, 45, 0
1, 3470160, Note_on_c, 1, 45, 40
1, 3470400, Note_off_c, 1, 45, 0
1, 3470400, Note_on_c, 1, 45, 40
1, 3470640, Note_off_c, 1, 45, 0
1, 3470640, Note_on_c, 1, 45, 40
1, 3470880, Note_off_c, 1, 45, 0
1, 3470880, Note_on_c, 1, 45, 40
1, 3471120, Note_off_c, 1, 45, 0
1, 3471120, Note_on_c, 1, 45, 40
1, 3471360, Note_off_c, 1, 45, 0
1, 3471360, Note_on_c, 1, 45, 40
1, 3471600, Note_off_c, 1, 45, 0
1, 3471600, Note_on_c, 1, 45, 40
1, 3471840, Note_off_c, 1, 45, 0
1, 3471840, Note_on_c, 1, 45, 40
1, 3472080, Note_off_c, 1, 45, 0
1, 3472080, Note_on_c, 1, 45, 40
1, 3472320, Note_off_c, 1, 45, 0
1, 3472320, Note_on_c, 1, 45, 40
1, 3472560, Note_off_c, 1, 45, 0
1, 3472560, Note_on_c, 1, 45, 40
1, 3472800, Note_off_c, 1, 45, 0
1, 3472800, Note_on_c, 1, 45, 40
1, 3473040, Note_off_c, 1, 45, 0
1, 3473040, Note_on_c, 1, 45, 40
1, 3473280, Note_off_c, 1, 45, 0
1, 3473280, Note_on_c, 1, 45, 40
1, 3473520, Note_off_c, 1, 45, 0
1, 3473520, Note_on_c, 1, 45, 40
1, 3473760, Note_off_c, 1, 45, 0
1, 3473760, Note_on_c, 1, 45, 40
1, 3474000, Note_off_c, 1, 45, 0
1, 3474000, Note_on_c, 1, 38, 40
1, 3474240, Note_off_c, 1, 38, 0
1, 3474240, Note_on_c, 1, 38, 40
1, 3474480, Note_off_c, 1, 38, 0
1, 3474480, Note_on_c, 1, 38, 40
1, 3474720, Note_off_c, 1, 38, 0
1, 3474720, Note_on_c, 1, 38, 40
1, 3474960, Note_off_c, 1, 38, 0
1, 3474960, Note_on_c, 1, 38, 40
1, 3475200, Note_off_c, 1, 38, 0
1, 3475200, Note_on_c, 1, 38, 40
1, 3475440, Note_off_c, 1, 38, 0
1, 3475440, Note_on_c, 1, 38, 40
1, 3475680, Note_off_c, 1, 38, 0
1, 3475680, Note_on_c, 1, 38, 40
1, 3475920, Note_off_c, 1, 38, 0
1, 3475920, Note_on_c, 1, 45, 40
1, 3476160, Note_off_c, 1, 45, 0
1, 3476160, Note_on_c, 1, 45, 40
1, 3476400, Note_off_c, 1, 45, 0
1, 3476400, Note_on_c, 1, 45, 40
1, 3476640, Note_off_c, 1, 45, 0
1, 3476640, Note_on_c, 1, 45, 40
1, 3476880, Note_off_c, 1, 45, 0
1, 3476880, Note_on_c, 1, 45, 40
1, 3477120, Note_off_c, 1, 45, 0
1, 3477120, Note_on_c, 1, 45, 40
1, 3477360, Note_off_c, 1, 45, 0
1, 3477360, Note_on_c, 1, 45, 40
1, 3477600, Note_off_c, 1, 45, 0
1, 3477600, Note_on_c, 1, 45, 40
1, 3477840, Note_off_c, 1, 45, 0
1, 3477840, Note_on_c, 1, 33, 40
1, 3478080, Note_off_c, 1, 33, 0
1, 3478080, Note_on_c, 1, 45, 40
1, 3478320, Note_off_c, 1, 45, 0
1, 3478320, Note_on_c, 1, 45, 40
1, 3478560, Note_off_c, 1, 45, 0
1, 3478560, Note_on_c, 1, 45, 40
1, 3478800, Note_off_c, 1, 45, 0
1, 3478800, Note_on_c, 1, 33, 40
1, 3479040, Note_off_c, 1, 33, 0
1, 3479040, Note_on_c, 1, 45, 40
1, 3479280, Note_off_c, 1, 45, 0
1, 3479280, Note_on_c, 1, 45, 40
1, 3479520, Note_off_c, 1, 45, 0
1, 3479520, Note_on_c, 1, 45, 40
1, 3479760, Note_off_c, 1, 45, 0
1, 3479760, Note_on_c, 1, 33, 40
1, 3480000, Note_off_c, 1, 33, 0
1, 3480000, Note_on_c, 1, 45, 40
1, 3480240, Note_off_c, 1, 45, 0
1, 3480240, Note_on_c, 1, 45, 40
1, 3480480, Note_off_c, 1, 45, 0
1, 3480480, Note_on_c, 1, 45, 40
1, 3480720, Note_off_c, 1, 45, 0
1, 3480720, Note_on_c, 1, 33, 40
1, 3480960, Note_off_c, 1, 33, 0
1, 3480960, Note_on_c, 1, 45, 40
1, 3481200, Note_off_c, 1, 45, 0
1, 3481200, Note_on_c, 1, 45, 40
1, 3481440, Note_off_c, 1, 45, 0
1, 3481440, Note_on_c, 1, 45, 40
1, 3481680, Note_off_c, 1, 45, 0
1, 3481680, Note_on_c, 1, 38, 40
1, 3481920, Note_off_c, 1, 38, 0
1, 3481920, Note_on_c, 1, 38, 40
1, 3482160, Note_off_c, 1, 38, 0
1, 3482160, Note_on_c, 1, 38, 40
1, 3482400, Note_off_c, 1, 38, 0
1, 3482400, Note_on_c, 1, 38, 40
1, 3482640, Note_off_c, 1, 38, 0
1, 3482640, Note_on_c, 1, 38, 40
1, 3482880, Note_off_c, 1, 38, 0
1, 3482880, Note_on_c, 1, 38, 40
1, 3483120, Note_off_c, 1, 38, 0
1, 3483120, Note_on_c, 1, 38, 40
1, 3483360, Note_off_c, 1, 38, 0
1, 3483360, Note_on_c, 1, 38, 40
1, 3483600, Note_off_c, 1, 38, 0
1, 3483600, Note_on_c, 1, 43, 40
1, 3483720, Note_off_c, 1, 43, 0
1, 3483720, Note_on_c, 1, 45, 40
1, 3483840, Note_off_c, 1, 45, 0
1, 3483840, Note_on_c, 1, 45, 40
1, 3484080, Note_off_c, 1, 45, 0
1, 3484080, Note_on_c, 1, 45, 40
1, 3484320, Note_off_c, 1, 45, 0
1, 3484320, Note_on_c, 1, 45, 40
1, 3484560, Note_off_c, 1, 45, 0
1, 3484560, Note_on_c, 1, 45, 40
1, 3484800, Note_off_c, 1, 45, 0
1, 3484800, Note_on_c, 1, 45, 40
1, 3485040, Note_off_c, 1, 45, 0
1, 3485040, Note_on_c, 1, 45, 40
1, 3485280, Note_off_c, 1, 45, 0
1, 3485280, Note_on_c, 1, 45, 40
1, 3485520, Note_off_c, 1, 45, 0
1, 3485520, Note_on_c, 1, 45, 40
1, 3485760, Note_off_c, 1, 45, 0
1, 3485760, Note_on_c, 1, 45, 40
1, 3486000, Note_off_c, 1, 45, 0
1, 3486000, Note_on_c, 1, 33, 40
1, 3486240, Note_off_c, 1, 33, 0
1, 3486240, Note_on_c, 1, 45, 40
1, 3486480, Note_off_c, 1, 45, 0
1, 3486480, Note_on_c, 1, 45, 40
1, 3486720, Note_off_c, 1, 45, 0
1, 3486720, Note_on_c, 1, 45, 40
1, 3486960, Note_off_c, 1, 45, 0
1, 3486960, Note_on_c, 1, 45, 40
1, 3487200, Note_off_c, 1, 45, 0
1, 3487200, Note_on_c, 1, 45, 40
1, 3487440, Note_off_c, 1, 45, 0
1, 3487440, Note_on_c, 1, 33, 40
1, 3487680, Note_off_c, 1, 33, 0
1, 3487680, Note_on_c, 1, 45, 40
1, 3487920, Note_off_c, 1, 45, 0
1, 3487920, Note_on_c, 1, 45, 40
1, 3488160, Note_off_c, 1, 45, 0
1, 3488160, Note_on_c, 1, 45, 40
1, 3488400, Note_off_c, 1, 45, 0
1, 3488400, Note_on_c, 1, 33, 40
1, 3488640, Note_off_c, 1, 33, 0
1, 3488640, Note_on_c, 1, 45, 40
1, 3488880, Note_off_c, 1, 45, 0
1, 3488880, Note_on_c, 1, 45, 40
1, 3489120, Note_off_c, 1, 45, 0
1, 3489120, Note_on_c, 1, 45, 40
1, 3489360, Note_off_c, 1, 45, 0
1, 3489360, Note_on_c, 1, 38, 40
1, 3489600, Note_off_c, 1, 38, 0
1, 3489600, Note_on_c, 1, 38, 40
1, 3489840, Note_off_c, 1, 38, 0
1, 3489840, Note_on_c, 1, 38, 40
1, 3490080, Note_off_c, 1, 38, 0
1, 3490080, Note_on_c, 1, 38, 40
1, 3490320, Note_off_c, 1, 38, 0
1, 3490320, Note_on_c, 1, 38, 40
1, 3490560, Note_off_c, 1, 38, 0
1, 3490560, Note_on_c, 1, 38, 40
1, 3490800, Note_off_c, 1, 38, 0
1, 3490800, Note_on_c, 1, 38, 40
1, 3491040, Note_off_c, 1, 38, 0
1, 3491040, Note_on_c, 1, 33, 40
1, 3491280, Note_off_c, 1, 33, 0
1, 3491280, Note_on_c, 1, 45, 40
1, 3491520, Note_off_c, 1, 45, 0
1, 3491520, Note_on_c, 1, 45, 40
1, 3491760, Note_off_c, 1, 45, 0
1, 3491760, Note_on_c, 1, 45, 40
1, 3492000, Note_off_c, 1, 45, 0
1, 3492000, Note_on_c, 1, 45, 40
1, 3492240, Note_off_c, 1, 45, 0
1, 3492240, Note_on_c, 1, 33, 40
1, 3492480, Note_off_c, 1, 33, 0
1, 3492480, Note_on_c, 1, 45, 40
1, 3492720, Note_off_c, 1, 45, 0
1, 3492720, Note_on_c, 1, 45, 40
1, 3492960, Note_off_c, 1, 45, 0
1, 3492960, Note_on_c, 1, 45, 40
1, 3493200, Note_off_c, 1, 45, 0
1, 3493200, Note_on_c, 1, 45, 40
1, 3493440, Note_off_c, 1, 45, 0
1, 3493440, Note_on_c, 1, 45, 40
1, 3493680, Note_off_c, 1, 45, 0
1, 3493680, Note_on_c, 1, 45, 40
1, 3493920, Note_off_c, 1, 45, 0
1, 3493920, Note_on_c, 1, 45, 40
1, 3494160, Note_off_c, 1, 45, 0
1, 3494160, Note_on_c, 1, 45, 40
1, 3494400, Note_off_c, 1, 45, 0
1, 3494400, Note_on_c, 1, 45, 40
1, 3494640, Note_off_c, 1, 45, 0
1, 3494640, Note_on_c, 1, 45, 40
1, 3494880, Note_off_c, 1, 45, 0
1, 3494880, Note_on_c, 1, 45, 40
1, 3495120, Note_off_c, 1, 45, 0
1, 3495120, Note_on_c, 1, 45, 40
1, 3495360, Note_off_c, 1, 45, 0
1, 3495360, Note_on_c, 1, 45, 40
1, 3495600, Note_off_c, 1, 45, 0
1, 3495600, Note_on_c, 1, 45, 40
1, 3495840, Note_off_c, 1, 45, 0
1, 3495840, Note_on_c, 1, 45, 40
1, 3496080, Note_off_c, 1, 45, 0
1, 3496080, Note_on_c, 1, 45, 40
1, 3496320, Note_off_c, 1, 45, 0
1, 3496320, Note_on_c, 1, 45, 40
1, 3496560, Note_off_c, 1, 45, 0
1, 3496560, Note_on_c, 1, 45, 40
1, 3496800, Note_off_c, 1, 45, 0
1, 3496800, Note_on_c, 1, 45, 40
1, 3497040, Note_off_c, 1, 45, 0
1, 3497040, Note_on_c, 1, 38, 40
1, 3497280, Note_off_c, 1, 38, 0
1, 3497280, Note_on_c, 1, 38, 40
1, 3497520, Note_off_c, 1, 38, 0
1, 3497520, Note_on_c, 1, 38, 40
1, 3497760, Note_off_c, 1, 38, 0
1, 3497760, Note_on_c, 1, 38, 40
1, 3498000, Note_off_c, 1, 38, 0
1, 3498000, Note_on_c, 1, 38, 40
1, 3498240, Note_off_c, 1, 38, 0
1, 3498240, Note_on_c, 1, 38, 40
1, 3498480, Note_off_c, 1, 38, 0
1, 3498480, Note_on_c, 1, 38, 40
1, 3498720, Note_off_c, 1, 38, 0
1, 3498720, Note_on_c, 1, 38, 40
1, 3498960, Note_off_c, 1, 38, 0
1, 3498960, Note_on_c, 1, 45, 40
1, 3499200, Note_off_c, 1, 45, 0
1, 3499200, Note_on_c, 1, 45, 40
1, 3499440, Note_off_c, 1, 45, 0
1, 3499440, Note_on_c, 1, 45, 40
1, 3499680, Note_off_c, 1, 45, 0
1, 3499680, Note_on_c, 1, 45, 40
1, 3499920, Note_off_c, 1, 45, 0
1, 3499920, Note_on_c, 1, 45, 40
1, 3500160, Note_off_c, 1, 45, 0
1, 3500160, Note_on_c, 1, 45, 40
1, 3500400, Note_off_c, 1, 45, 0
1, 3500400, Note_on_c, 1, 45, 40
1, 3500640, Note_off_c, 1, 45, 0
1, 3500640, Note_on_c, 1, 45, 40
1, 3500880, Note_off_c, 1, 45, 0
1, 3500880, Note_on_c, 1, 45, 40
1, 3501120, Note_off_c, 1, 45, 0
1, 3501120, Note_on_c, 1, 45, 40
1, 3501360, Note_off_c, 1, 45, 0
1, 3501360, Note_on_c, 1, 45, 40
1, 3501600, Note_off_c, 1, 45, 0
1, 3501600, Note_on_c, 1, 45, 40
1, 3501840, Note_off_c, 1, 45, 0
1, 3501840, Note_on_c, 1, 45, 40
1, 3502080, Note_off_c, 1, 45, 0
1, 3502080, Note_on_c, 1, 45, 40
1, 3502320, Note_off_c, 1, 45, 0
1, 3502320, Note_on_c, 1, 45, 40
1, 3502560, Note_off_c, 1, 45, 0
1, 3502560, Note_on_c, 1, 45, 40
1, 3502800, Note_off_c, 1, 45, 0
1, 3502800, Note_on_c, 1, 45, 40
1, 3503040, Note_off_c, 1, 45, 0
1, 3503040, Note_on_c, 1, 45, 40
1, 3503280, Note_off_c, 1, 45, 0
1, 3503280, Note_on_c, 1, 45, 40
1, 3503520, Note_off_c, 1, 45, 0
1, 3503520, Note_on_c, 1, 45, 40
1, 3503760, Note_off_c, 1, 45, 0
1, 3503760, Note_on_c, 1, 45, 40
1, 3504000, Note_off_c, 1, 45, 0
1, 3504000, Note_on_c, 1, 45, 40
1, 3504240, Note_off_c, 1, 45, 0
1, 3504240, Note_on_c, 1, 45, 40
1, 3504480, Note_off_c, 1, 45, 0
1, 3504480, Note_on_c, 1, 45, 40
1, 3504720, Note_off_c, 1, 45, 0
1, 3504720, Note_on_c, 1, 38, 40
1, 3504960, Note_off_c, 1, 38, 0
1, 3504960, Note_on_c, 1, 38, 40
1, 3505200, Note_off_c, 1, 38, 0
1, 3505200, Note_on_c, 1, 38, 40
1, 3505440, Note_off_c, 1, 38, 0
1, 3505440, Note_on_c, 1, 38, 40
1, 3505680, Note_off_c, 1, 38, 0
1, 3505680, Note_on_c, 1, 38, 40
1, 3505920, Note_off_c, 1, 38, 0
1, 3505920, Note_on_c, 1, 38, 40
1, 3506160, Note_off_c, 1, 38, 0
1, 3506160, Note_on_c, 1, 38, 40
1, 3506400, Note_off_c, 1, 38, 0
1, 3506400, Note_on_c, 1, 38, 40
1, 3508320, Note_off_c, 1, 38, 0
1, 3508320, Note_on_c, 1, 38, 40
1, 3510240, Note_off_c, 1, 38, 0
1, 3510240, Note_on_c, 1, 38, 40
1, 3512160, Note_off_c, 1, 38, 0
1, 3512160, Note_on_c, 1, 38, 40
1, 3514080, Note_off_c, 1, 38, 0
1, 3514080, Note_on_c, 1, 38, 40
1, 3516000, Note_off_c, 1, 38, 0
1, 3516000, Note_on_c, 1, 45, 40
1, 3516240, Note_off_c, 1, 45, 0
1, 3516240, Note_on_c, 1, 45, 40
1, 3516480, Note_off_c, 1, 45, 0
1, 3516480, Note_on_c, 1, 45, 40
1, 3516720, Note_off_c, 1, 45, 0
1, 3516720, Note_on_c, 1, 45, 40
1, 3516960, Note_off_c, 1, 45, 0
1, 3516960, Note_on_c, 1, 45, 40
1, 3517200, Note_off_c, 1, 45, 0
1, 3517200, Note_on_c, 1, 45, 40
1, 3517440, Note_off_c, 1, 45, 0
1, 3517440, Note_on_c, 1, 45, 40
1, 3517680, Note_off_c, 1, 45, 0
1, 3517680, Note_on_c, 1, 45, 40
1, 3517920, Note_off_c, 1, 45, 0
1, 3517920, Note_on_c, 1, 45, 40
1, 3518160, Note_off_c, 1, 45, 0
1, 3518160, Note_on_c, 1, 38, 40
1, 3518400, Note_off_c, 1, 38, 0
1, 3518400, Note_on_c, 1, 38, 40
1, 3518640, Note_off_c, 1, 38, 0
1, 3518640, Note_on_c, 1, 38, 40
1, 3518880, Note_off_c, 1, 38, 0
1, 3518880, Note_on_c, 1, 38, 40
1, 3519120, Note_off_c, 1, 38, 0
1, 3519120, Note_on_c, 1, 38, 40
1, 3519360, Note_off_c, 1, 38, 0
1, 3519360, Note_on_c, 1, 38, 40
1, 3519600, Note_off_c, 1, 38, 0
1, 3519600, Note_on_c, 1, 38, 40
1, 3519840, Note_off_c, 1, 38, 0
1, 3519840, Note_on_c, 1, 38, 40
1, 3520080, Note_off_c, 1, 38, 0
1, 3520080, Note_on_c, 1, 45, 40
1, 3520320, Note_off_c, 1, 45, 0
1, 3520320, Note_on_c, 1, 45, 40
1, 3520560, Note_off_c, 1, 45, 0
1, 3520560, Note_on_c, 1, 45, 40
1, 3520800, Note_off_c, 1, 45, 0
1, 3520800, Note_on_c, 1, 45, 40
1, 3521040, Note_off_c, 1, 45, 0
1, 3521040, Note_on_c, 1, 45, 40
1, 3521280, Note_off_c, 1, 45, 0
1, 3521280, Note_on_c, 1, 43, 40
1, 3521520, Note_off_c, 1, 43, 0
1, 3521520, Note_on_c, 1, 45, 40
1, 3521760, Note_off_c, 1, 45, 0
1, 3521760, Note_on_c, 1, 48, 40
1, 3522000, Note_off_c, 1, 48, 0
1, 3522000, Note_on_c, 1, 33, 40
1, 3522240, Note_off_c, 1, 33, 0
1, 3522240, Note_on_c, 1, 45, 40
1, 3522480, Note_off_c, 1, 45, 0
1, 3522480, Note_on_c, 1, 45, 40
1, 3522720, Note_off_c, 1, 45, 0
1, 3522720, Note_on_c, 1, 45, 40
1, 3522960, Note_off_c, 1, 45, 0
1, 3522960, Note_on_c, 1, 33, 40
1, 3523200, Note_off_c, 1, 33, 0
1, 3523200, Note_on_c, 1, 45, 40
1, 3523440, Note_off_c, 1, 45, 0
1, 3523440, Note_on_c, 1, 45, 40
1, 3523680, Note_off_c, 1, 45, 0
1, 3523680, Note_on_c, 1, 45, 40
1, 3523920, Note_off_c, 1, 45, 0
1, 3523920, Note_on_c, 1, 33, 40
1, 3524160, Note_off_c, 1, 33, 0
1, 3524160, Note_on_c, 1, 45, 40
1, 3524400, Note_off_c, 1, 45, 0
1, 3524400, Note_on_c, 1, 45, 40
1, 3524640, Note_off_c, 1, 45, 0
1, 3524640, Note_on_c, 1, 45, 40
1, 3524880, Note_off_c, 1, 45, 0
1, 3524880, Note_on_c, 1, 33, 40
1, 3525120, Note_off_c, 1, 33, 0
1, 3525120, Note_on_c, 1, 45, 40
1, 3525360, Note_off_c, 1, 45, 0
1, 3525360, Note_on_c, 1, 45, 40
1, 3525600, Note_off_c, 1, 45, 0
1, 3525600, Note_on_c, 1, 45, 40
1, 3525840, Note_off_c, 1, 45, 0
1, 3525840, Note_on_c, 1, 38, 40
1, 3526080, Note_off_c, 1, 38, 0
1, 3526080, Note_on_c, 1, 38, 40
1, 3526320, Note_off_c, 1, 38, 0
1, 3526320, Note_on_c, 1, 38, 40
1, 3526560, Note_off_c, 1, 38, 0
1, 3526560, Note_on_c, 1, 38, 40
1, 3526800, Note_off_c, 1, 38, 0
1, 3526800, Note_on_c, 1, 38, 40
1, 3527040, Note_off_c, 1, 38, 0
1, 3527040, Note_on_c, 1, 38, 40
1, 3527280, Note_off_c, 1, 38, 0
1, 3527280, Note_on_c, 1, 38, 40
1, 3527520, Note_off_c, 1, 38, 0
1, 3527520, Note_on_c, 1, 38, 40
1, 3527760, Note_off_c, 1, 38, 0
1, 3527760, Note_on_c, 1, 45, 40
1, 3528000, Note_off_c, 1, 45, 0
1, 3528000, Note_on_c, 1, 45, 40
1, 3528240, Note_off_c, 1, 45, 0
1, 3528240, Note_on_c, 1, 45, 40
1, 3528480, Note_off_c, 1, 45, 0
1, 3528480, Note_on_c, 1, 45, 40
1, 3528720, Note_off_c, 1, 45, 0
1, 3528720, Note_on_c, 1, 45, 40
1, 3528960, Note_off_c, 1, 45, 0
1, 3528960, Note_on_c, 1, 45, 40
1, 3529200, Note_off_c, 1, 45, 0
1, 3529200, Note_on_c, 1, 45, 40
1, 3529440, Note_off_c, 1, 45, 0
1, 3529440, Note_on_c, 1, 45, 40
1, 3529680, Note_off_c, 1, 45, 0
1, 3529680, Note_on_c, 1, 45, 40
1, 3529920, Note_off_c, 1, 45, 0
1, 3529920, Note_on_c, 1, 45, 40
1, 3530160, Note_off_c, 1, 45, 0
1, 3530160, Note_on_c, 1, 45, 40
1, 3530400, Note_off_c, 1, 45, 0
1, 3530400, Note_on_c, 1, 45, 40
1, 3530640, Note_off_c, 1, 45, 0
1, 3530640, Note_on_c, 1, 45, 40
1, 3530880, Note_off_c, 1, 45, 0
1, 3530880, Note_on_c, 1, 45, 40
1, 3531120, Note_off_c, 1, 45, 0
1, 3531120, Note_on_c, 1, 45, 40
1, 3531360, Note_off_c, 1, 45, 0
1, 3531360, Note_on_c, 1, 45, 40
1, 3531600, Note_off_c, 1, 45, 0
1, 3531600, Note_on_c, 1, 45, 40
1, 3531840, Note_off_c, 1, 45, 0
1, 3531840, Note_on_c, 1, 45, 40
1, 3532080, Note_off_c, 1, 45, 0
1, 3532080, Note_on_c, 1, 45, 40
1, 3532320, Note_off_c, 1, 45, 0
1, 3532320, Note_on_c, 1, 45, 40
1, 3532560, Note_off_c, 1, 45, 0
1, 3532560, Note_on_c, 1, 45, 40
1, 3532800, Note_off_c, 1, 45, 0
1, 3532800, Note_on_c, 1, 45, 40
1, 3533040, Note_off_c, 1, 45, 0
1, 3533040, Note_on_c, 1, 45, 40
1, 3533280, Note_off_c, 1, 45, 0
1, 3533280, Note_on_c, 1, 45, 40
1, 3533520, Note_off_c, 1, 45, 0
1, 3533520, Note_on_c, 1, 38, 40
1, 3533760, Note_off_c, 1, 38, 0
1, 3533760, Note_on_c, 1, 38, 40
1, 3534000, Note_off_c, 1, 38, 0
1, 3534000, Note_on_c, 1, 38, 40
1, 3534240, Note_off_c, 1, 38, 0
1, 3534240, Note_on_c, 1, 38, 40
1, 3534480, Note_off_c, 1, 38, 0
1, 3534480, Note_on_c, 1, 38, 40
1, 3534720, Note_off_c, 1, 38, 0
1, 3534720, Note_on_c, 1, 38, 40
1, 3534960, Note_off_c, 1, 38, 0
1, 3534960, Note_on_c, 1, 38, 40
1, 3535200, Note_off_c, 1, 38, 0
1, 3535200, Note_on_c, 1, 38, 40
1, 3535440, Note_off_c, 1, 38, 0
1, 3535440, Note_on_c, 1, 45, 40
1, 3535680, Note_off_c, 1, 45, 0
1, 3535680, Note_on_c, 1, 45, 40
1, 3535920, Note_off_c, 1, 45, 0
1, 3535920, Note_on_c, 1, 45, 40
1, 3536160, Note_off_c, 1, 45, 0
1, 3536160, Note_on_c, 1, 45, 40
1, 3536400, Note_off_c, 1, 45, 0
1, 3536400, Note_on_c, 1, 45, 40
1, 3536640, Note_off_c, 1, 45, 0
1, 3536640, Note_on_c, 1, 45, 40
1, 3536880, Note_off_c, 1, 45, 0
1, 3536880, Note_on_c, 1, 45, 40
1, 3537120, Note_off_c, 1, 45, 0
1, 3537120, Note_on_c, 1, 45, 40
1, 3537360, Note_off_c, 1, 45, 0
1, 3537360, Note_on_c, 1, 45, 40
1, 3537600, Note_off_c, 1, 45, 0
1, 3537600, Note_on_c, 1, 45, 40
1, 3537840, Note_off_c, 1, 45, 0
1, 3537840, Note_on_c, 1, 45, 40
1, 3538080, Note_off_c, 1, 45, 0
1, 3538080, Note_on_c, 1, 45, 40
1, 3538320, Note_off_c, 1, 45, 0
1, 3538320, Note_on_c, 1, 45, 40
1, 3538560, Note_off_c, 1, 45, 0
1, 3538560, Note_on_c, 1, 45, 40
1, 3538800, Note_off_c, 1, 45, 0
1, 3538800, Note_on_c, 1, 45, 40
1, 3539040, Note_off_c, 1, 45, 0
1, 3539040, Note_on_c, 1, 45, 40
1, 3539280, Note_off_c, 1, 45, 0
1, 3539280, Note_on_c, 1, 45, 40
1, 3539520, Note_off_c, 1, 45, 0
1, 3539520, Note_on_c, 1, 45, 40
1, 3539760, Note_off_c, 1, 45, 0
1, 3539760, Note_on_c, 1, 45, 40
1, 3540000, Note_off_c, 1, 45, 0
1, 3540000, Note_on_c, 1, 45, 40
1, 3540240, Note_off_c, 1, 45, 0
1, 3540240, Note_on_c, 1, 45, 40
1, 3540480, Note_off_c, 1, 45, 0
1, 3540480, Note_on_c, 1, 45, 40
1, 3540720, Note_off_c, 1, 45, 0
1, 3540720, Note_on_c, 1, 45, 40
1, 3540960, Note_off_c, 1, 45, 0
1, 3540960, Note_on_c, 1, 45, 40
1, 3541200, Note_off_c, 1, 45, 0
1, 3541200, Note_on_c, 1, 38, 40
1, 3541440, Note_off_c, 1, 38, 0
1, 3541440, Note_on_c, 1, 38, 40
1, 3541680, Note_off_c, 1, 38, 0
1, 3541680, Note_on_c, 1, 38, 40
1, 3541920, Note_off_c, 1, 38, 0
1, 3541920, Note_on_c, 1, 38, 40
1, 3542160, Note_off_c, 1, 38, 0
1, 3542160, Note_on_c, 1, 38, 40
1, 3542400, Note_off_c, 1, 38, 0
1, 3542400, Note_on_c, 1, 38, 40
1, 3542640, Note_off_c, 1, 38, 0
1, 3542640, Note_on_c, 1, 38, 40
1, 3542880, Note_off_c, 1, 38, 0
1, 3542880, Note_on_c, 1, 38, 40
1, 3543120, Note_off_c, 1, 38, 0
1, 3543120, Note_on_c, 1, 45, 40
1, 3543360, Note_off_c, 1, 45, 0
1, 3543360, Note_on_c, 1, 45, 40
1, 3543600, Note_off_c, 1, 45, 0
1, 3543600, Note_on_c, 1, 45, 40
1, 3543840, Note_off_c, 1, 45, 0
1, 3543840, Note_on_c, 1, 45, 40
1, 3544080, Note_off_c, 1, 45, 0
1, 3544080, Note_on_c, 1, 45, 40
1, 3544320, Note_off_c, 1, 45, 0
1, 3544320, Note_on_c, 1, 45, 40
1, 3544560, Note_off_c, 1, 45, 0
1, 3544560, Note_on_c, 1, 45, 40
1, 3544800, Note_off_c, 1, 45, 0
1, 3544800, Note_on_c, 1, 45, 40
1, 3545040, Note_off_c, 1, 45, 0
1, 3545040, Note_on_c, 1, 33, 40
1, 3545280, Note_off_c, 1, 33, 0
1, 3545280, Note_on_c, 1, 45, 40
1, 3545520, Note_off_c, 1, 45, 0
1, 3545520, Note_on_c, 1, 45, 40
1, 3545760, Note_off_c, 1, 45, 0
1, 3545760, Note_on_c, 1, 45, 40
1, 3546000, Note_off_c, 1, 45, 0
1, 3546000, Note_on_c, 1, 33, 40
1, 3546240, Note_off_c, 1, 33, 0
1, 3546240, Note_on_c, 1, 45, 40
1, 3546480, Note_off_c, 1, 45, 0
1, 3546480, Note_on_c, 1, 45, 40
1, 3546720, Note_off_c, 1, 45, 0
1, 3546720, Note_on_c, 1, 45, 40
1, 3546960, Note_off_c, 1, 45, 0
1, 3546960, Note_on_c, 1, 33, 40
1, 3547200, Note_off_c, 1, 33, 0
1, 3547200, Note_on_c, 1, 45, 40
1, 3547440, Note_off_c, 1, 45, 0
1, 3547440, Note_on_c, 1, 45, 40
1, 3547680, Note_off_c, 1, 45, 0
1, 3547680, Note_on_c, 1, 45, 40
1, 3547920, Note_off_c, 1, 45, 0
1, 3547920, Note_on_c, 1, 33, 40
1, 3548160, Note_off_c, 1, 33, 0
1, 3548160, Note_on_c, 1, 45, 40
1, 3548400, Note_off_c, 1, 45, 0
1, 3548400, Note_on_c, 1, 45, 40
1, 3548640, Note_off_c, 1, 45, 0
1, 3548640, Note_on_c, 1, 45, 40
1, 3548880, Note_off_c, 1, 45, 0
1, 3548880, Note_on_c, 1, 38, 40
1, 3549120, Note_off_c, 1, 38, 0
1, 3549120, Note_on_c, 1, 38, 40
1, 3549360, Note_off_c, 1, 38, 0
1, 3549360, Note_on_c, 1, 38, 40
1, 3549600, Note_off_c, 1, 38, 0
1, 3549600, Note_on_c, 1, 38, 40
1, 3549840, Note_off_c, 1, 38, 0
1, 3549840, Note_on_c, 1, 38, 40
1, 3550080, Note_off_c, 1, 38, 0
1, 3550080, Note_on_c, 1, 38, 40
1, 3550320, Note_off_c, 1, 38, 0
1, 3550320, Note_on_c, 1, 38, 40
1, 3550560, Note_off_c, 1, 38, 0
1, 3550560, Note_on_c, 1, 38, 40
1, 3550800, Note_off_c, 1, 38, 0
1, 3550800, Note_on_c, 1, 43, 40
1, 3550920, Note_off_c, 1, 43, 0
1, 3550920, Note_on_c, 1, 45, 40
1, 3551040, Note_off_c, 1, 45, 0
1, 3551040, Note_on_c, 1, 45, 40
1, 3551280, Note_off_c, 1, 45, 0
1, 3551280, Note_on_c, 1, 45, 40
1, 3551520, Note_off_c, 1, 45, 0
1, 3551520, Note_on_c, 1, 45, 40
1, 3551760, Note_off_c, 1, 45, 0
1, 3551760, Note_on_c, 1, 45, 40
1, 3552000, Note_off_c, 1, 45, 0
1, 3552000, Note_on_c, 1, 45, 40
1, 3552240, Note_off_c, 1, 45, 0
1, 3552240, Note_on_c, 1, 45, 40
1, 3552480, Note_off_c, 1, 45, 0
1, 3552480, Note_on_c, 1, 45, 40
1, 3552720, Note_off_c, 1, 45, 0
1, 3552720, Note_on_c, 1, 45, 40
1, 3552960, Note_off_c, 1, 45, 0
1, 3552960, Note_on_c, 1, 45, 40
1, 3553200, Note_off_c, 1, 45, 0
1, 3553200, Note_on_c, 1, 33, 40
1, 3553440, Note_off_c, 1, 33, 0
1, 3553440, Note_on_c, 1, 45, 40
1, 3553680, Note_off_c, 1, 45, 0
1, 3553680, Note_on_c, 1, 45, 40
1, 3553920, Note_off_c, 1, 45, 0
1, 3553920, Note_on_c, 1, 45, 40
1, 3554160, Note_off_c, 1, 45, 0
1, 3554160, Note_on_c, 1, 45, 40
1, 3554400, Note_off_c, 1, 45, 0
1, 3554400, Note_on_c, 1, 45, 40
1, 3554640, Note_off_c, 1, 45, 0
1, 3554640, Note_on_c, 1, 33, 40
1, 3554880, Note_off_c, 1, 33, 0
1, 3554880, Note_on_c, 1, 45, 40
1, 3555120, Note_off_c, 1, 45, 0
1, 3555120, Note_on_c, 1, 45, 40
1, 3555360, Note_off_c, 1, 45, 0
1, 3555360, Note_on_c, 1, 45, 40
1, 3555600, Note_off_c, 1, 45, 0
1, 3555600, Note_on_c, 1, 33, 40
1, 3555840, Note_off_c, 1, 33, 0
1, 3555840, Note_on_c, 1, 45, 40
1, 3556080, Note_off_c, 1, 45, 0
1, 3556080, Note_on_c, 1, 45, 40
1, 3556320, Note_off_c, 1, 45, 0
1, 3556320, Note_on_c, 1, 45, 40
1, 3556560, Note_off_c, 1, 45, 0
1, 3556560, Note_on_c, 1, 38, 40
1, 3556800, Note_off_c, 1, 38, 0
1, 3556800, Note_on_c, 1, 38, 40
1, 3557040, Note_off_c, 1, 38, 0
1, 3557040, Note_on_c, 1, 38, 40
1, 3557280, Note_off_c, 1, 38, 0
1, 3557280, Note_on_c, 1, 38, 40
1, 3557520, Note_off_c, 1, 38, 0
1, 3557520, Note_on_c, 1, 38, 40
1, 3557760, Note_off_c, 1, 38, 0
1, 3557760, Note_on_c, 1, 38, 40
1, 3558000, Note_off_c, 1, 38, 0
1, 3558000, Note_on_c, 1, 38, 40
1, 3558240, Note_off_c, 1, 38, 0
1, 3558240, Note_on_c, 1, 33, 40
1, 3558480, Note_off_c, 1, 33, 0
1, 3558480, Note_on_c, 1, 45, 40
1, 3558720, Note_off_c, 1, 45, 0
1, 3558720, Note_on_c, 1, 45, 40
1, 3558960, Note_off_c, 1, 45, 0
1, 3558960, Note_on_c, 1, 45, 40
1, 3559200, Note_off_c, 1, 45, 0
1, 3559200, Note_on_c, 1, 45, 40
1, 3559440, Note_off_c, 1, 45, 0
1, 3559440, Note_on_c, 1, 33, 40
1, 3559680, Note_off_c, 1, 33, 0
1, 3559680, Note_on_c, 1, 45, 40
1, 3559920, Note_off_c, 1, 45, 0
1, 3559920, Note_on_c, 1, 45, 40
1, 3560160, Note_off_c, 1, 45, 0
1, 3560160, Note_on_c, 1, 45, 40
1, 3560400, Note_off_c, 1, 45, 0
1, 3560400, Note_on_c, 1, 45, 40
1, 3560640, Note_off_c, 1, 45, 0
1, 3560640, Note_on_c, 1, 45, 40
1, 3560880, Note_off_c, 1, 45, 0
1, 3560880, Note_on_c, 1, 45, 40
1, 3561120, Note_off_c, 1, 45, 0
1, 3561120, Note_on_c, 1, 45, 40
1, 3561360, Note_off_c, 1, 45, 0
1, 3561360, Note_on_c, 1, 45, 40
1, 3561600, Note_off_c, 1, 45, 0
1, 3561600, Note_on_c, 1, 45, 40
1, 3561840, Note_off_c, 1, 45, 0
1, 3561840, Note_on_c, 1, 45, 40
1, 3562080, Note_off_c, 1, 45, 0
1, 3562080, Note_on_c, 1, 45, 40
1, 3562320, Note_off_c, 1, 45, 0
1, 3562320, Note_on_c, 1, 45, 40
1, 3562560, Note_off_c, 1, 45, 0
1, 3562560, Note_on_c, 1, 45, 40
1, 3562800, Note_off_c, 1, 45, 0
1, 3562800, Note_on_c, 1, 45, 40
1, 3563040, Note_off_c, 1, 45, 0
1, 3563040, Note_on_c, 1, 45, 40
1, 3563280, Note_off_c, 1, 45, 0
1, 3563280, Note_on_c, 1, 45, 40
1, 3563520, Note_off_c, 1, 45, 0
1, 3563520, Note_on_c, 1, 45, 40
1, 3563760, Note_off_c, 1, 45, 0
1, 3563760, Note_on_c, 1, 45, 40
1, 3564000, Note_off_c, 1, 45, 0
1, 3564000, Note_on_c, 1, 45, 40
1, 3564240, Note_off_c, 1, 45, 0
1, 3564240, Note_on_c, 1, 38, 40
1, 3564480, Note_off_c, 1, 38, 0
1, 3564480, Note_on_c, 1, 38, 40
1, 3564720, Note_off_c, 1, 38, 0
1, 3564720, Note_on_c, 1, 38, 40
1, 3564960, Note_off_c, 1, 38, 0
1, 3564960, Note_on_c, 1, 38, 40
1, 3565200, Note_off_c, 1, 38, 0
1, 3565200, Note_on_c, 1, 38, 40
1, 3565440, Note_off_c, 1, 38, 0
1, 3565440, Note_on_c, 1, 38, 40
1, 3565680, Note_off_c, 1, 38, 0
1, 3565680, Note_on_c, 1, 38, 40
1, 3565920, Note_off_c, 1, 38, 0
1, 3565920, Note_on_c, 1, 38, 40
1, 3566160, Note_off_c, 1, 38, 0
1, 3566160, Note_on_c, 1, 45, 40
1, 3566400, Note_off_c, 1, 45, 0
1, 3566400, Note_on_c, 1, 45, 40
1, 3566640, Note_off_c, 1, 45, 0
1, 3566640, Note_on_c, 1, 45, 40
1, 3566880, Note_off_c, 1, 45, 0
1, 3566880, Note_on_c, 1, 45, 40
1, 3567120, Note_off_c, 1, 45, 0
1, 3567120, Note_on_c, 1, 45, 40
1, 3567360, Note_off_c, 1, 45, 0
1, 3567360, Note_on_c, 1, 45, 40
1, 3567600, Note_off_c, 1, 45, 0
1, 3567600, Note_on_c, 1, 45, 40
1, 3567840, Note_off_c, 1, 45, 0
1, 3567840, Note_on_c, 1, 45, 40
1, 3568080, Note_off_c, 1, 45, 0
1, 3568080, Note_on_c, 1, 45, 40
1, 3568320, Note_off_c, 1, 45, 0
1, 3568320, Note_on_c, 1, 45, 40
1, 3568560, Note_off_c, 1, 45, 0
1, 3568560, Note_on_c, 1, 45, 40
1, 3568800, Note_off_c, 1, 45, 0
1, 3568800, Note_on_c, 1, 45, 40
1, 3569040, Note_off_c, 1, 45, 0
1, 3569040, Note_on_c, 1, 45, 40
1, 3569280, Note_off_c, 1, 45, 0
1, 3569280, Note_on_c, 1, 45, 40
1, 3569520, Note_off_c, 1, 45, 0
1, 3569520, Note_on_c, 1, 45, 40
1, 3569760, Note_off_c, 1, 45, 0
1, 3569760, Note_on_c, 1, 45, 40
1, 3570000, Note_off_c, 1, 45, 0
1, 3570000, Note_on_c, 1, 45, 40
1, 3570240, Note_off_c, 1, 45, 0
1, 3570240, Note_on_c, 1, 45, 40
1, 3570480, Note_off_c, 1, 45, 0
1, 3570480, Note_on_c, 1, 45, 40
1, 3570720, Note_off_c, 1, 45, 0
1, 3570720, Note_on_c, 1, 45, 40
1, 3570960, Note_off_c, 1, 45, 0
1, 3570960, Note_on_c, 1, 45, 40
1, 3571200, Note_off_c, 1, 45, 0
1, 3571200, Note_on_c, 1, 45, 40
1, 3571440, Note_off_c, 1, 45, 0
1, 3571440, Note_on_c, 1, 45, 40
1, 3571680, Note_off_c, 1, 45, 0
1, 3571680, Note_on_c, 1, 45, 40
1, 3571920, Note_off_c, 1, 45, 0
1, 3571920, Note_on_c, 1, 38, 40
1, 3572160, Note_off_c, 1, 38, 0
1, 3572160, Note_on_c, 1, 38, 40
1, 3572400, Note_off_c, 1, 38, 0
1, 3572400, Note_on_c, 1, 38, 40
1, 3572640, Note_off_c, 1, 38, 0
1, 3572640, Note_on_c, 1, 38, 40
1, 3572880, Note_off_c, 1, 38, 0
1, 3572880, Note_on_c, 1, 38, 40
1, 3573120, Note_off_c, 1, 38, 0
1, 3573120, Note_on_c, 1, 38, 40
1, 3573360, Note_off_c, 1, 38, 0
1, 3573360, Note_on_c, 1, 38, 40
1, 3573600, Note_off_c, 1, 38, 0
1, 3573600, Note_on_c, 1, 38, 40
1, 3575520, Note_off_c, 1, 38, 0
1, 3575520, Note_on_c, 1, 38, 40
1, 3575760, Note_off_c, 1, 38, 0
1, 3579600, Note_on_c, 1, 25, 40
1, 3580080, Note_off_c, 1, 25, 0
1, 3580080, Note_on_c, 1, 25, 40
1, 3580560, Note_off_c, 1, 25, 0
1, 3580560, Note_on_c, 1, 25, 40
1, 3581040, Note_off_c, 1, 25, 0
1, 3581040, Note_on_c, 1, 25, 40
1, 3581520, Note_off_c, 1, 25, 0
1, 3581520, Note_on_c, 1, 25, 40
1, 3582000, Note_off_c, 1, 25, 0
1, 3582000, Note_on_c, 1, 25, 40
1, 3582480, Note_off_c, 1, 25, 0
1, 3582480, Note_on_c, 1, 25, 40
1, 3582960, Note_off_c, 1, 25, 0
1, 3582960, Note_on_c, 1, 25, 40
1, 3583440, Note_off_c, 1, 25, 0
1, 3583440, Note_on_c, 1, 25, 40
1, 3583920, Note_off_c, 1, 25, 0
1, 3583920, Note_on_c, 1, 25, 40
1, 3584400, Note_off_c, 1, 25, 0
1, 3584400, Note_on_c, 1, 25, 40
1, 3584880, Note_off_c, 1, 25, 0
1, 3584880, Note_on_c, 1, 25, 40
1, 3585360, Note_off_c, 1, 25, 0
1, 3585360, Note_on_c, 1, 25, 40
1, 3585840, Note_off_c, 1, 25, 0
1, 3585840, Note_on_c, 1, 25, 40
1, 3586320, Note_off_c, 1, 25, 0
1, 3586320, Note_on_c, 1, 25, 40
1, 3586800, Note_off_c, 1, 25, 0
1, 3586800, Note_on_c, 1, 25, 40
1, 3587280, Note_off_c, 1, 25, 0
1, 3587280, Note_on_c, 1, 32, 40
1, 3587760, Note_off_c, 1, 32, 0
1, 3587760, Note_on_c, 1, 32, 40
1, 3588240, Note_off_c, 1, 32, 0
1, 3588240, Note_on_c, 1, 32, 40
1, 3588720, Note_off_c, 1, 32, 0
1, 3588720, Note_on_c, 1, 27, 40
1, 3589200, Note_off_c, 1, 27, 0
1, 3589200, Note_on_c, 1, 27, 40
1, 3589680, Note_off_c, 1, 27, 0
1, 3589680, Note_on_c, 1, 27, 40
1, 3590160, Note_off_c, 1, 27, 0
1, 3590160, Note_on_c, 1, 27, 40
1, 3590640, Note_off_c, 1, 27, 0
1, 3590640, Note_on_c, 1, 27, 40
1, 3591120, Note_off_c, 1, 27, 0
1, 3591120, Note_on_c, 1, 32, 40
1, 3591600, Note_off_c, 1, 32, 0
1, 3591600, Note_on_c, 1, 32, 40
1, 3592080, Note_off_c, 1, 32, 0
1, 3592080, Note_on_c, 1, 32, 40
1, 3592560, Note_off_c, 1, 32, 0
1, 3592560, Note_on_c, 1, 27, 40
1, 3593040, Note_off_c, 1, 27, 0
1, 3593040, Note_on_c, 1, 27, 40
1, 3593520, Note_off_c, 1, 27, 0
1, 3593520, Note_on_c, 1, 27, 40
1, 3594000, Note_off_c, 1, 27, 0
1, 3594000, Note_on_c, 1, 27, 40
1, 3594480, Note_off_c, 1, 27, 0
1, 3594480, Note_on_c, 1, 27, 40
1, 3594960, Note_off_c, 1, 27, 0
1, 3594960, Note_on_c, 1, 37, 40
1, 3595440, Note_off_c, 1, 37, 0
1, 3595440, Note_on_c, 1, 37, 40
1, 3595920, Note_off_c, 1, 37, 0
1, 3595920, Note_on_c, 1, 37, 40
1, 3596400, Note_off_c, 1, 37, 0
1, 3596400, Note_on_c, 1, 37, 40
1, 3596880, Note_off_c, 1, 37, 0
1, 3596880, Note_on_c, 1, 37, 40
1, 3597360, Note_off_c, 1, 37, 0
1, 3597360, Note_on_c, 1, 37, 40
1, 3597840, Note_off_c, 1, 37, 0
1, 3597840, Note_on_c, 1, 37, 40
1, 3598320, Note_off_c, 1, 37, 0
1, 3598800, Note_on_c, 1, 30, 40
1, 3599280, Note_off_c, 1, 30, 0
1, 3599280, Note_on_c, 1, 30, 40
1, 3599400, Note_off_c, 1, 30, 0
1, 3599400, Note_on_c, 1, 29, 40
1, 3599520, Note_off_c, 1, 29, 0
1, 3599640, Note_on_c, 1, 28, 40
1, 3599760, Note_off_c, 1, 28, 0
1, 3599760, Note_on_c, 1, 27, 40
1, 3600240, Note_off_c, 1, 27, 0
1, 3600240, Note_on_c, 1, 27, 40
1, 3600720, Note_off_c, 1, 27, 0
1, 3600720, Note_on_c, 1, 32, 40
1, 3601200, Note_off_c, 1, 32, 0
1, 3601200, Note_on_c, 1, 32, 40
1, 3601680, Note_off_c, 1, 32, 0
1, 3601680, Note_on_c, 1, 32, 40
1, 3601920, Note_off_c, 1, 32, 0
1, 3601920, Note_on_c, 1, 32, 40
1, 3602160, Note_off_c, 1, 32, 0
1, 3602160, Note_on_c, 1, 32, 40
1, 3602400, Note_off_c, 1, 32, 0
1, 3602640, Note_on_c, 1, 37, 40
1, 3602880, Note_off_c, 1, 37, 0
1, 3603120, Note_on_c, 1, 37, 40
1, 3603360, Note_off_c, 1, 37, 0
1, 3603360, Note_on_c, 1, 41, 40
1, 3603600, Note_off_c, 1, 41, 0
1, 3603600, Note_on_c, 1, 44, 40
1, 3603840, Note_off_c, 1, 44, 0
1, 3603840, Note_on_c, 1, 44, 40
1, 3604080, Note_off_c, 1, 44, 0
1, 3604080, Note_on_c, 1, 44, 40
1, 3604560, Note_off_c, 1, 44, 0
1, 3604560, Note_on_c, 1, 42, 40
1, 3605040, Note_off_c, 1, 42, 0
1, 3605040, Note_on_c, 1, 42, 40
1, 3605520, Note_off_c, 1, 42, 0
1, 3605520, Note_on_c, 1, 42, 40
1, 3605760, Note_off_c, 1, 42, 0
1, 3605760, Note_on_c, 1, 42, 40
1, 3606000, Note_off_c, 1, 42, 0
1, 3606000, Note_on_c, 1, 42, 40
1, 3606480, Note_off_c, 1, 42, 0
1, 3606480, Note_on_c, 1, 30, 40
1, 3606960, Note_off_c, 1, 30, 0
1, 3606960, Note_on_c, 1, 30, 40
1, 3607080, Note_off_c, 1, 30, 0
1, 3607080, Note_on_c, 1, 29, 40
1, 3607200, Note_off_c, 1, 29, 0
1, 3607320, Note_on_c, 1, 28, 40
1, 3607440, Note_off_c, 1, 28, 0
1, 3607440, Note_on_c, 1, 27, 40
1, 3607920, Note_off_c, 1, 27, 0
1, 3607920, Note_on_c, 1, 27, 40
1, 3608400, Note_off_c, 1, 27, 0
1, 3608400, Note_on_c, 1, 32, 40
1, 3608880, Note_off_c, 1, 32, 0
1, 3608880, Note_on_c, 1, 32, 40
1, 3609360, Note_off_c, 1, 32, 0
1, 3609360, Note_on_c, 1, 32, 40
1, 3609840, Note_off_c, 1, 32, 0
1, 3609840, Note_on_c, 1, 32, 40
1, 3610320, Note_off_c, 1, 32, 0
1, 3610320, Note_on_c, 1, 37, 40
1, 3610800, Note_off_c, 1, 37, 0
1, 3610800, Note_on_c, 1, 37, 40
1, 3611280, Note_off_c, 1, 37, 0
1, 3611280, Note_on_c, 1, 37, 40
1, 3611520, Note_off_c, 1, 37, 0
1, 3611520, Note_on_c, 1, 37, 40
1, 3611760, Note_off_c, 1, 37, 0
1, 3611760, Note_on_c, 1, 37, 40
1, 3612240, Note_off_c, 1, 37, 0
1, 3612240, Note_on_c, 1, 30, 40
1, 3612720, Note_off_c, 1, 30, 0
1, 3612720, Note_on_c, 1, 30, 40
1, 3613200, Note_off_c, 1, 30, 0
1, 3613200, Note_on_c, 1, 30, 40
1, 3613440, Note_off_c, 1, 30, 0
1, 3613440, Note_on_c, 1, 30, 40
1, 3613680, Note_off_c, 1, 30, 0
1, 3613680, Note_on_c, 1, 30, 40
1, 3614160, Note_off_c, 1, 30, 0
1, 3614160, Note_on_c, 1, 32, 40
1, 3614640, Note_off_c, 1, 32, 0
1, 3614640, Note_on_c, 1, 32, 40
1, 3615120, Note_off_c, 1, 32, 0
1, 3615120, Note_on_c, 1, 32, 40
1, 3615600, Note_off_c, 1, 32, 0
1, 3615600, Note_on_c, 1, 27, 40
1, 3616080, Note_off_c, 1, 27, 0
1, 3616080, Note_on_c, 1, 27, 40
1, 3616560, Note_off_c, 1, 27, 0
1, 3616560, Note_on_c, 1, 27, 40
1, 3617040, Note_off_c, 1, 27, 0
1, 3617040, Note_on_c, 1, 27, 40
1, 3617520, Note_off_c, 1, 27, 0
1, 3617520, Note_on_c, 1, 27, 40
1, 3618000, Note_off_c, 1, 27, 0
1, 3618000, Note_on_c, 1, 32, 40
1, 3618480, Note_off_c, 1, 32, 0
1, 3618480, Note_on_c, 1, 32, 40
1, 3618960, Note_off_c, 1, 32, 0
1, 3618960, Note_on_c, 1, 32, 40
1, 3619440, Note_off_c, 1, 32, 0
1, 3619440, Note_on_c, 1, 27, 40
1, 3619920, Note_off_c, 1, 27, 0
1, 3619920, Note_on_c, 1, 27, 40
1, 3620400, Note_off_c, 1, 27, 0
1, 3620400, Note_on_c, 1, 27, 40
1, 3620880, Note_off_c, 1, 27, 0
1, 3620880, Note_on_c, 1, 27, 40
1, 3621360, Note_off_c, 1, 27, 0
1, 3621360, Note_on_c, 1, 27, 40
1, 3621840, Note_off_c, 1, 27, 0
1, 3621840, Note_on_c, 1, 37, 40
1, 3622320, Note_off_c, 1, 37, 0
1, 3622320, Note_on_c, 1, 37, 40
1, 3622800, Note_off_c, 1, 37, 0
1, 3622800, Note_on_c, 1, 37, 40
1, 3623280, Note_off_c, 1, 37, 0
1, 3623280, Note_on_c, 1, 37, 40
1, 3623760, Note_off_c, 1, 37, 0
1, 3623760, Note_on_c, 1, 37, 40
1, 3624240, Note_off_c, 1, 37, 0
1, 3624240, Note_on_c, 1, 37, 40
1, 3624720, Note_off_c, 1, 37, 0
1, 3624720, Note_on_c, 1, 37, 40
1, 3625200, Note_off_c, 1, 37, 0
1, 3625680, Note_on_c, 1, 30, 40
1, 3626160, Note_off_c, 1, 30, 0
1, 3626160, Note_on_c, 1, 30, 40
1, 3626280, Note_off_c, 1, 30, 0
1, 3626280, Note_on_c, 1, 29, 40
1, 3626400, Note_off_c, 1, 29, 0
1, 3626520, Note_on_c, 1, 28, 40
1, 3626640, Note_off_c, 1, 28, 0
1, 3626640, Note_on_c, 1, 27, 40
1, 3627120, Note_off_c, 1, 27, 0
1, 3627120, Note_on_c, 1, 27, 40
1, 3627600, Note_off_c, 1, 27, 0
1, 3627600, Note_on_c, 1, 32, 40
1, 3628080, Note_off_c, 1, 32, 0
1, 3628080, Note_on_c, 1, 32, 40
1, 3628320, Note_off_c, 1, 32, 0
1, 3628320, Note_on_c, 1, 32, 40
1, 3628560, Note_off_c, 1, 32, 0
1, 3628560, Note_on_c, 1, 32, 40
1, 3629040, Note_off_c, 1, 32, 0
1, 3629040, Note_on_c, 1, 32, 40
1, 3629520, Note_off_c, 1, 32, 0
1, 3629520, Note_on_c, 1, 37, 40
1, 3630000, Note_off_c, 1, 37, 0
1, 3630000, Note_on_c, 1, 37, 40
1, 3630480, Note_off_c, 1, 37, 0
1, 3630480, Note_on_c, 1, 44, 40
1, 3630720, Note_off_c, 1, 44, 0
1, 3630720, Note_on_c, 1, 44, 40
1, 3630960, Note_off_c, 1, 44, 0
1, 3630960, Note_on_c, 1, 44, 40
1, 3631440, Note_off_c, 1, 44, 0
1, 3631440, Note_on_c, 1, 30, 40
1, 3631920, Note_off_c, 1, 30, 0
1, 3631920, Note_on_c, 1, 30, 40
1, 3632400, Note_off_c, 1, 30, 0
1, 3632400, Note_on_c, 1, 30, 40
1, 3632640, Note_off_c, 1, 30, 0
1, 3632640, Note_on_c, 1, 30, 40
1, 3632880, Note_off_c, 1, 30, 0
1, 3632880, Note_on_c, 1, 30, 40
1, 3633360, Note_off_c, 1, 30, 0
1, 3633360, Note_on_c, 1, 35, 40
1, 3633840, Note_off_c, 1, 35, 0
1, 3633840, Note_on_c, 1, 35, 40
1, 3634320, Note_off_c, 1, 35, 0
1, 3634320, Note_on_c, 1, 32, 40
1, 3634560, Note_off_c, 1, 32, 0
1, 3634560, Note_on_c, 1, 32, 40
1, 3634800, Note_off_c, 1, 32, 0
1, 3634800, Note_on_c, 1, 32, 40
1, 3635280, Note_off_c, 1, 32, 0
1, 3635280, Note_on_c, 1, 37, 40
1, 3635760, Note_off_c, 1, 37, 0
1, 3635760, Note_on_c, 1, 37, 40
1, 3636240, Note_off_c, 1, 37, 0
1, 3636240, Note_on_c, 1, 37, 40
1, 3636480, Note_off_c, 1, 37, 0
1, 3636480, Note_on_c, 1, 37, 40
1, 3636720, Note_off_c, 1, 37, 0
1, 3636720, Note_on_c, 1, 37, 40
1, 3637200, Note_off_c, 1, 37, 0
1, 3637200, Note_on_c, 1, 18, 40
1, 3637680, Note_off_c, 1, 18, 0
1, 3637680, Note_on_c, 1, 18, 40
1, 3638160, Note_off_c, 1, 18, 0
1, 3638160, Note_on_c, 1, 18, 40
1, 3638640, Note_off_c, 1, 18, 0
1, 3638640, Note_on_c, 1, 18, 40
1, 3639120, Note_off_c, 1, 18, 0
1, 3639120, Note_on_c, 1, 23, 40
1, 3639600, Note_off_c, 1, 23, 0
1, 3639600, Note_on_c, 1, 23, 40
1, 3640080, Note_off_c, 1, 23, 0
1, 3640080, Note_on_c, 1, 23, 40
1, 3640560, Note_off_c, 1, 23, 0
1, 3640560, Note_on_c, 1, 23, 40
1, 3641040, Note_off_c, 1, 23, 0
1, 3641040, Note_on_c, 1, 37, 40
1, 3641520, Note_off_c, 1, 37, 0
1, 3641520, Note_on_c, 1, 37, 40
1, 3642000, Note_off_c, 1, 37, 0
1, 3642000, Note_on_c, 1, 37, 40
1, 3642480, Note_off_c, 1, 37, 0
1, 3642480, Note_on_c, 1, 37, 40
1, 3642960, Note_off_c, 1, 37, 0
1, 3642960, Note_on_c, 1, 37, 40
1, 3643440, Note_off_c, 1, 37, 0
1, 3643440, Note_on_c, 1, 37, 40
1, 3643920, Note_off_c, 1, 37, 0
1, 3643920, Note_on_c, 1, 37, 40
1, 3644400, Note_off_c, 1, 37, 0
1, 3644400, Note_on_c, 1, 32, 40
1, 3644880, Note_off_c, 1, 32, 0
1, 3644880, Note_on_c, 1, 32, 40
1, 3645360, Note_off_c, 1, 32, 0
1, 3645360, Note_on_c, 1, 32, 40
1, 3645840, Note_off_c, 1, 32, 0
1, 3645840, Note_on_c, 1, 27, 40
1, 3646320, Note_off_c, 1, 27, 0
1, 3646320, Note_on_c, 1, 27, 40
1, 3646800, Note_off_c, 1, 27, 0
1, 3646800, Note_on_c, 1, 27, 40
1, 3647280, Note_off_c, 1, 27, 0
1, 3647280, Note_on_c, 1, 27, 40
1, 3647760, Note_off_c, 1, 27, 0
1, 3647760, Note_on_c, 1, 32, 40
1, 3648240, Note_off_c, 1, 32, 0
1, 3648240, Note_on_c, 1, 32, 40
1, 3648720, Note_off_c, 1, 32, 0
1, 3648720, Note_on_c, 1, 32, 40
1, 3649200, Note_off_c, 1, 32, 0
1, 3649200, Note_on_c, 1, 32, 40
1, 3649680, Note_off_c, 1, 32, 0
1, 3649680, Note_on_c, 1, 27, 40
1, 3650160, Note_off_c, 1, 27, 0
1, 3650160, Note_on_c, 1, 27, 40
1, 3650640, Note_off_c, 1, 27, 0
1, 3650640, Note_on_c, 1, 27, 40
1, 3651120, Note_off_c, 1, 27, 0
1, 3651120, Note_on_c, 1, 27, 40
1, 3651600, Note_off_c, 1, 27, 0
1, 3651600, Note_on_c, 1, 32, 40
1, 3652080, Note_off_c, 1, 32, 0
1, 3652080, Note_on_c, 1, 30, 40
1, 3652560, Note_off_c, 1, 30, 0
1, 3652560, Note_on_c, 1, 30, 40
1, 3652680, Note_off_c, 1, 30, 0
1, 3652680, Note_on_c, 1, 29, 40
1, 3652800, Note_off_c, 1, 29, 0
1, 3652920, Note_on_c, 1, 28, 40
1, 3653040, Note_off_c, 1, 28, 0
1, 3653040, Note_on_c, 1, 27, 40
1, 3653520, Note_off_c, 1, 27, 0
1, 3653520, Note_on_c, 1, 27, 40
1, 3654000, Note_off_c, 1, 27, 0
1, 3654000, Note_on_c, 1, 32, 40
1, 3654480, Note_off_c, 1, 32, 0
1, 3654480, Note_on_c, 1, 32, 40
1, 3654960, Note_off_c, 1, 32, 0
1, 3654960, Note_on_c, 1, 32, 40
1, 3655200, Note_off_c, 1, 32, 0
1, 3655200, Note_on_c, 1, 32, 40
1, 3655440, Note_off_c, 1, 32, 0
1, 3655440, Note_on_c, 1, 32, 40
1, 3655680, Note_off_c, 1, 32, 0
1, 3655920, Note_on_c, 1, 37, 40
1, 3656160, Note_off_c, 1, 37, 0
1, 3656400, Note_on_c, 1, 37, 40
1, 3656640, Note_off_c, 1, 37, 0
1, 3656640, Note_on_c, 1, 41, 40
1, 3656880, Note_off_c, 1, 41, 0
1, 3656880, Note_on_c, 1, 44, 40
1, 3657120, Note_off_c, 1, 44, 0
1, 3657120, Note_on_c, 1, 44, 40
1, 3657360, Note_off_c, 1, 44, 0
1, 3657360, Note_on_c, 1, 44, 40
1, 3657840, Note_off_c, 1, 44, 0
1, 3657840, Note_on_c, 1, 42, 40
1, 3658320, Note_off_c, 1, 42, 0
1, 3658320, Note_on_c, 1, 42, 40
1, 3658800, Note_off_c, 1, 42, 0
1, 3658800, Note_on_c, 1, 42, 40
1, 3659040, Note_off_c, 1, 42, 0
1, 3659040, Note_on_c, 1, 42, 40
1, 3659280, Note_off_c, 1, 42, 0
1, 3659280, Note_on_c, 1, 42, 40
1, 3659760, Note_off_c, 1, 42, 0
1, 3659760, Note_on_c, 1, 30, 40
1, 3660240, Note_off_c, 1, 30, 0
1, 3660240, Note_on_c, 1, 30, 40
1, 3660360, Note_off_c, 1, 30, 0
1, 3660360, Note_on_c, 1, 29, 40
1, 3660480, Note_off_c, 1, 29, 0
1, 3660600, Note_on_c, 1, 28, 40
1, 3660720, Note_off_c, 1, 28, 0
1, 3660720, Note_on_c, 1, 27, 40
1, 3661200, Note_off_c, 1, 27, 0
1, 3661200, Note_on_c, 1, 27, 40
1, 3661680, Note_off_c, 1, 27, 0
1, 3661680, Note_on_c, 1, 32, 40
1, 3662160, Note_off_c, 1, 32, 0
1, 3662160, Note_on_c, 1, 32, 40
1, 3662640, Note_off_c, 1, 32, 0
1, 3662640, Note_on_c, 1, 32, 40
1, 3663120, Note_off_c, 1, 32, 0
1, 3663120, Note_on_c, 1, 32, 40
1, 3663600, Note_off_c, 1, 32, 0
1, 3663600, Note_on_c, 1, 37, 40
1, 3664080, Note_off_c, 1, 37, 0
1, 3664080, Note_on_c, 1, 37, 40
1, 3664560, Note_off_c, 1, 37, 0
1, 3664560, Note_on_c, 1, 37, 40
1, 3664800, Note_off_c, 1, 37, 0
1, 3664800, Note_on_c, 1, 37, 40
1, 3665040, Note_off_c, 1, 37, 0
1, 3665040, Note_on_c, 1, 37, 40
1, 3665520, Note_off_c, 1, 37, 0
1, 3665520, Note_on_c, 1, 30, 40
1, 3666000, Note_off_c, 1, 30, 0
1, 3666000, Note_on_c, 1, 30, 40
1, 3666480, Note_off_c, 1, 30, 0
1, 3666480, Note_on_c, 1, 30, 40
1, 3666720, Note_off_c, 1, 30, 0
1, 3666720, Note_on_c, 1, 30, 40
1, 3666960, Note_off_c, 1, 30, 0
1, 3666960, Note_on_c, 1, 30, 40
1, 3667440, Note_off_c, 1, 30, 0
1, 3667440, Note_on_c, 1, 32, 40
1, 3667920, Note_off_c, 1, 32, 0
1, 3667920, Note_on_c, 1, 32, 40
1, 3668400, Note_off_c, 1, 32, 0
1, 3668400, Note_on_c, 1, 32, 40
1, 3668880, Note_off_c, 1, 32, 0
1, 3668880, Note_on_c, 1, 27, 40
1, 3669360, Note_off_c, 1, 27, 0
1, 3669360, Note_on_c, 1, 27, 40
1, 3669840, Note_off_c, 1, 27, 0
1, 3669840, Note_on_c, 1, 27, 40
1, 3670320, Note_off_c, 1, 27, 0
1, 3670320, Note_on_c, 1, 27, 40
1, 3670800, Note_off_c, 1, 27, 0
1, 3670800, Note_on_c, 1, 27, 40
1, 3671280, Note_off_c, 1, 27, 0
1, 3671280, Note_on_c, 1, 32, 40
1, 3671760, Note_off_c, 1, 32, 0
1, 3671760, Note_on_c, 1, 32, 40
1, 3672240, Note_off_c, 1, 32, 0
1, 3672240, Note_on_c, 1, 32, 40
1, 3672720, Note_off_c, 1, 32, 0
1, 3672720, Note_on_c, 1, 27, 40
1, 3673200, Note_off_c, 1, 27, 0
1, 3673200, Note_on_c, 1, 27, 40
1, 3673680, Note_off_c, 1, 27, 0
1, 3673680, Note_on_c, 1, 27, 40
1, 3674160, Note_off_c, 1, 27, 0
1, 3674160, Note_on_c, 1, 27, 40
1, 3674640, Note_off_c, 1, 27, 0
1, 3674640, Note_on_c, 1, 27, 40
1, 3675120, Note_off_c, 1, 27, 0
1, 3675120, Note_on_c, 1, 37, 40
1, 3675600, Note_off_c, 1, 37, 0
1, 3675600, Note_on_c, 1, 37, 40
1, 3676080, Note_off_c, 1, 37, 0
1, 3676080, Note_on_c, 1, 37, 40
1, 3676560, Note_off_c, 1, 37, 0
1, 3676560, Note_on_c, 1, 37, 40
1, 3677040, Note_off_c, 1, 37, 0
1, 3677040, Note_on_c, 1, 37, 40
1, 3677520, Note_off_c, 1, 37, 0
1, 3677520, Note_on_c, 1, 37, 40
1, 3678000, Note_off_c, 1, 37, 0
1, 3678000, Note_on_c, 1, 37, 40
1, 3678480, Note_off_c, 1, 37, 0
1, 3678480, Note_on_c, 1, 32, 40
1, 3678960, Note_off_c, 1, 32, 0
1, 3678960, Note_on_c, 1, 32, 40
1, 3679440, Note_off_c, 1, 32, 0
1, 3679440, Note_on_c, 1, 32, 40
1, 3679920, Note_off_c, 1, 32, 0
1, 3679920, Note_on_c, 1, 27, 40
1, 3680400, Note_off_c, 1, 27, 0
1, 3680400, Note_on_c, 1, 27, 40
1, 3680880, Note_off_c, 1, 27, 0
1, 3680880, Note_on_c, 1, 27, 40
1, 3681360, Note_off_c, 1, 27, 0
1, 3681360, Note_on_c, 1, 27, 40
1, 3681840, Note_off_c, 1, 27, 0
1, 3681840, Note_on_c, 1, 32, 40
1, 3682320, Note_off_c, 1, 32, 0
1, 3682320, Note_on_c, 1, 32, 40
1, 3682800, Note_off_c, 1, 32, 0
1, 3682800, Note_on_c, 1, 32, 40
1, 3683280, Note_off_c, 1, 32, 0
1, 3683280, Note_on_c, 1, 32, 40
1, 3683760, Note_off_c, 1, 32, 0
1, 3683760, Note_on_c, 1, 27, 40
1, 3684240, Note_off_c, 1, 27, 0
1, 3684240, Note_on_c, 1, 27, 40
1, 3684720, Note_off_c, 1, 27, 0
1, 3684720, Note_on_c, 1, 27, 40
1, 3685200, Note_off_c, 1, 27, 0
1, 3685200, Note_on_c, 1, 27, 40
1, 3685680, Note_off_c, 1, 27, 0
1, 3685680, Note_on_c, 1, 32, 40
1, 3686160, Note_off_c, 1, 32, 0
1, 3686160, Note_on_c, 1, 37, 40
1, 3686640, Note_off_c, 1, 37, 0
1, 3686640, Note_on_c, 1, 37, 40
1, 3687120, Note_off_c, 1, 37, 0
1, 3687120, Note_on_c, 1, 37, 40
1, 3687600, Note_off_c, 1, 37, 0
1, 3687600, Note_on_c, 1, 37, 40
1, 3688080, Note_off_c, 1, 37, 0
1, 3688080, Note_on_c, 1, 37, 40
1, 3688560, Note_off_c, 1, 37, 0
1, 3688560, Note_on_c, 1, 37, 40
1, 3689040, Note_off_c, 1, 37, 0
1, 3689040, Note_on_c, 1, 37, 40
1, 3689520, Note_off_c, 1, 37, 0
1, 3695760, Note_on_c, 1, 50, 40
1, 3697080, Note_off_c, 1, 50, 0
1, 3697680, Note_on_c, 1, 45, 40
1, 3699000, Note_off_c, 1, 45, 0
1, 3699600, Note_on_c, 1, 40, 40
1, 3700920, Note_off_c, 1, 40, 0
1, 3701520, Note_on_c, 1, 54, 40
1, 3701640, Note_off_c, 1, 54, 0
1, 3701760, Note_on_c, 1, 52, 40
1, 3701880, Note_off_c, 1, 52, 0
1, 3702000, Note_on_c, 1, 50, 40
1, 3702120, Note_off_c, 1, 50, 0
1, 3702240, Note_on_c, 1, 49, 40
1, 3702360, Note_off_c, 1, 49, 0
1, 3702480, Note_on_c, 1, 47, 40
1, 3702600, Note_off_c, 1, 47, 0
1, 3702720, Note_on_c, 1, 45, 40
1, 3702840, Note_off_c, 1, 45, 0
1, 3702960, Note_on_c, 1, 44, 40
1, 3703080, Note_off_c, 1, 44, 0
1, 3703200, Note_on_c, 1, 42, 40
1, 3703320, Note_off_c, 1, 42, 0
1, 3703440, Note_on_c, 1, 40, 40
1, 3703560, Note_off_c, 1, 40, 0
1, 3703680, Note_on_c, 1, 47, 40
1, 3703800, Note_off_c, 1, 47, 0
1, 3703920, Note_on_c, 1, 44, 40
1, 3704040, Note_off_c, 1, 44, 0
1, 3704160, Note_on_c, 1, 47, 40
1, 3704280, Note_off_c, 1, 47, 0
1, 3704400, Note_on_c, 1, 40, 40
1, 3704520, Note_off_c, 1, 40, 0
1, 3704640, Note_on_c, 1, 47, 40
1, 3704760, Note_off_c, 1, 47, 0
1, 3704880, Note_on_c, 1, 44, 40
1, 3705000, Note_off_c, 1, 44, 0
1, 3705120, Note_on_c, 1, 47, 40
1, 3705240, Note_off_c, 1, 47, 0
1, 3705360, Note_on_c, 1, 42, 40
1, 3705480, Note_off_c, 1, 42, 0
1, 3705600, Note_on_c, 1, 42, 40
1, 3705720, Note_off_c, 1, 42, 0
1, 3705840, Note_on_c, 1, 45, 40
1, 3705960, Note_off_c, 1, 45, 0
1, 3706080, Note_on_c, 1, 47, 40
1, 3706200, Note_off_c, 1, 47, 0
1, 3706320, Note_on_c, 1, 49, 40
1, 3706440, Note_off_c, 1, 49, 0
1, 3706560, Note_on_c, 1, 47, 40
1, 3706680, Note_off_c, 1, 47, 0
1, 3706800, Note_on_c, 1, 45, 40
1, 3706920, Note_off_c, 1, 45, 0
1, 3706920, Note_on_c, 1, 44, 40
1, 3707040, Note_off_c, 1, 44, 0
1, 3707040, Note_on_c, 1, 42, 40
1, 3707160, Note_off_c, 1, 42, 0
1, 3707280, Note_on_c, 1, 40, 40
1, 3707400, Note_off_c, 1, 40, 0
1, 3707520, Note_on_c, 1, 47, 40
1, 3707640, Note_off_c, 1, 47, 0
1, 3707760, Note_on_c, 1, 44, 40
1, 3707880, Note_off_c, 1, 44, 0
1, 3708000, Note_on_c, 1, 47, 40
1, 3708120, Note_off_c, 1, 47, 0
1, 3708240, Note_on_c, 1, 40, 40
1, 3708360, Note_off_c, 1, 40, 0
1, 3708480, Note_on_c, 1, 42, 40
1, 3708600, Note_off_c, 1, 42, 0
1, 3708720, Note_on_c, 1, 44, 40
1, 3708840, Note_off_c, 1, 44, 0
1, 3708960, Note_on_c, 1, 47, 40
1, 3709080, Note_off_c, 1, 47, 0
1, 3709200, Note_on_c, 1, 52, 40
1, 3710520, Note_off_c, 1, 52, 0
1, 3712080, Note_on_c, 1, 45, 40
1, 3712440, Note_off_c, 1, 45, 0
1, 3712560, Note_on_c, 1, 45, 40
1, 3712920, Note_off_c, 1, 45, 0
1, 3713040, Note_on_c, 1, 44, 40
1, 3713400, Note_off_c, 1, 44, 0
1, 3713520, Note_on_c, 1, 44, 40
1, 3713880, Note_off_c, 1, 44, 0
1, 3714000, Note_on_c, 1, 42, 40
1, 3714360, Note_off_c, 1, 42, 0
1, 3714480, Note_on_c, 1, 42, 40
1, 3714840, Note_off_c, 1, 42, 0
1, 3714960, Note_on_c, 1, 40, 40
1, 3715320, Note_off_c, 1, 40, 0
1, 3715440, Note_on_c, 1, 40, 40
1, 3715800, Note_off_c, 1, 40, 0
1, 3715920, Note_on_c, 1, 38, 40
1, 3716280, Note_off_c, 1, 38, 0
1, 3716400, Note_on_c, 1, 38, 40
1, 3716760, Note_off_c, 1, 38, 0
1, 3716880, Note_on_c, 1, 41, 40
1, 3717240, Note_off_c, 1, 41, 0
1, 3717360, Note_on_c, 1, 41, 40
1, 3717720, Note_off_c, 1, 41, 0
1, 3717840, Note_on_c, 1, 45, 40
1, 3718200, Note_off_c, 1, 45, 0
1, 3718320, Note_on_c, 1, 45, 40
1, 3718680, Note_off_c, 1, 45, 0
1, 3718800, Note_on_c, 1, 44, 40
1, 3719160, Note_off_c, 1, 44, 0
1, 3719280, Note_on_c, 1, 44, 40
1, 3719640, Note_off_c, 1, 44, 0
1, 3719760, Note_on_c, 1, 42, 40
1, 3720120, Note_off_c, 1, 42, 0
1, 3720240, Note_on_c, 1, 42, 40
1, 3720600, Note_off_c, 1, 42, 0
1, 3720720, Note_on_c, 1, 40, 40
1, 3721080, Note_off_c, 1, 40, 0
1, 3721200, Note_on_c, 1, 40, 40
1, 3721560, Note_off_c, 1, 40, 0
1, 3721680, Note_on_c, 1, 38, 40
1, 3722040, Note_off_c, 1, 38, 0
1, 3722160, Note_on_c, 1, 38, 40
1, 3722520, Note_off_c, 1, 38, 0
1, 3722640, Note_on_c, 1, 43, 40
1, 3723000, Note_off_c, 1, 43, 0
1, 3723120, Note_on_c, 1, 43, 40
1, 3723480, Note_off_c, 1, 43, 0
1, 3723600, Note_on_c, 1, 45, 40
1, 3723720, Note_off_c, 1, 45, 0
1, 3723840, Note_on_c, 1, 45, 40
1, 3723960, Note_off_c, 1, 45, 0
1, 3724080, Note_on_c, 1, 45, 40
1, 3724200, Note_off_c, 1, 45, 0
1, 3724320, Note_on_c, 1, 47, 40
1, 3724440, Note_off_c, 1, 47, 0
1, 3724560, Note_on_c, 1, 49, 40
1, 3724680, Note_off_c, 1, 49, 0
1, 3724800, Note_on_c, 1, 52, 40
1, 3724920, Note_off_c, 1, 52, 0
1, 3725040, Note_on_c, 1, 54, 40
1, 3725160, Note_off_c, 1, 54, 0
1, 3725280, Note_on_c, 1, 57, 40
1, 3725400, Note_off_c, 1, 57, 0
1, 3725520, Note_on_c, 1, 50, 40
1, 3726840, Note_off_c, 1, 50, 0
1, 3727440, Note_on_c, 1, 45, 40
1, 3728760, Note_off_c, 1, 45, 0
1, 3729360, Note_on_c, 1, 40, 40
1, 3730680, Note_off_c, 1, 40, 0
1, 3731280, Note_on_c, 1, 54, 40
1, 3731400, Note_off_c, 1, 54, 0
1, 3731520, Note_on_c, 1, 52, 40
1, 3731640, Note_off_c, 1, 52, 0
1, 3731760, Note_on_c, 1, 50, 40
1, 3731880, Note_off_c, 1, 50, 0
1, 3732000, Note_on_c, 1, 49, 40
1, 3732120, Note_off_c, 1, 49, 0
1, 3732240, Note_on_c, 1, 47, 40
1, 3732360, Note_off_c, 1, 47, 0
1, 3732480, Note_on_c, 1, 45, 40
1, 3732600, Note_off_c, 1, 45, 0
1, 3732720, Note_on_c, 1, 44, 40
1, 3732840, Note_off_c, 1, 44, 0
1, 3732960, Note_on_c, 1, 42, 40
1, 3733080, Note_off_c, 1, 42, 0
1, 3733200, Note_on_c, 1, 40, 40
1, 3733320, Note_off_c, 1, 40, 0
1, 3733440, Note_on_c, 1, 47, 40
1, 3733560, Note_off_c, 1, 47, 0
1, 3733680, Note_on_c, 1, 44, 40
1, 3733800, Note_off_c, 1, 44, 0
1, 3733920, Note_on_c, 1, 47, 40
1, 3734040, Note_off_c, 1, 47, 0
1, 3734160, Note_on_c, 1, 40, 40
1, 3734280, Note_off_c, 1, 40, 0
1, 3734400, Note_on_c, 1, 42, 40
1, 3734520, Note_off_c, 1, 42, 0
1, 3734640, Note_on_c, 1, 44, 40
1, 3734760, Note_off_c, 1, 44, 0
1, 3734880, Note_on_c, 1, 47, 40
1, 3735000, Note_off_c, 1, 47, 0
1, 3735120, Note_on_c, 1, 42, 40
1, 3735240, Note_off_c, 1, 42, 0
1, 3735360, Note_on_c, 1, 45, 40
1, 3735480, Note_off_c, 1, 45, 0
1, 3735600, Note_on_c, 1, 47, 40
1, 3735720, Note_off_c, 1, 47, 0
1, 3735840, Note_on_c, 1, 49, 40
1, 3735960, Note_off_c, 1, 49, 0
1, 3736080, Note_on_c, 1, 47, 40
1, 3736200, Note_off_c, 1, 47, 0
1, 3736320, Note_on_c, 1, 45, 40
1, 3736440, Note_off_c, 1, 45, 0
1, 3736560, Note_on_c, 1, 44, 40
1, 3736680, Note_off_c, 1, 44, 0
1, 3736800, Note_on_c, 1, 42, 40
1, 3736920, Note_off_c, 1, 42, 0
1, 3737040, Note_on_c, 1, 40, 40
1, 3737160, Note_off_c, 1, 40, 0
1, 3737280, Note_on_c, 1, 47, 40
1, 3737400, Note_off_c, 1, 47, 0
1, 3737520, Note_on_c, 1, 44, 40
1, 3737640, Note_off_c, 1, 44, 0
1, 3737760, Note_on_c, 1, 47, 40
1, 3737880, Note_off_c, 1, 47, 0
1, 3738000, Note_on_c, 1, 40, 40
1, 3738120, Note_off_c, 1, 40, 0
1, 3738240, Note_on_c, 1, 42, 40
1, 3738360, Note_off_c, 1, 42, 0
1, 3738480, Note_on_c, 1, 44, 40
1, 3738600, Note_off_c, 1, 44, 0
1, 3738720, Note_on_c, 1, 47, 40
1, 3738840, Note_off_c, 1, 47, 0
1, 3738960, Note_on_c, 1, 52, 40
1, 3740280, Note_off_c, 1, 52, 0
1, 3741840, Note_on_c, 1, 45, 40
1, 3742200, Note_off_c, 1, 45, 0
1, 3742320, Note_on_c, 1, 45, 40
1, 3742680, Note_off_c, 1, 45, 0
1, 3742800, Note_on_c, 1, 44, 40
1, 3743160, Note_off_c, 1, 44, 0
1, 3743280, Note_on_c, 1, 44, 40
1, 3743640, Note_off_c, 1, 44, 0
1, 3743760, Note_on_c, 1, 42, 40
1, 3744120, Note_off_c, 1, 42, 0
1, 3744240, Note_on_c, 1, 42, 40
1, 3744600, Note_off_c, 1, 42, 0
1, 3744720, Note_on_c, 1, 40, 40
1, 3745080, Note_off_c, 1, 40, 0
1, 3745200, Note_on_c, 1, 40, 40
1, 3745560, Note_off_c, 1, 40, 0
1, 3745680, Note_on_c, 1, 38, 40
1, 3746040, Note_off_c, 1, 38, 0
1, 3746160, Note_on_c, 1, 38, 40
1, 3746520, Note_off_c, 1, 38, 0
1, 3746640, Note_on_c, 1, 41, 40
1, 3747000, Note_off_c, 1, 41, 0
1, 3747120, Note_on_c, 1, 41, 40
1, 3747480, Note_off_c, 1, 41, 0
1, 3747600, Note_on_c, 1, 45, 40
1, 3747960, Note_off_c, 1, 45, 0
1, 3748080, Note_on_c, 1, 45, 40
1, 3748440, Note_off_c, 1, 45, 0
1, 3748560, Note_on_c, 1, 44, 40
1, 3748920, Note_off_c, 1, 44, 0
1, 3749040, Note_on_c, 1, 44, 40
1, 3749400, Note_off_c, 1, 44, 0
1, 3749520, Note_on_c, 1, 42, 40
1, 3749880, Note_off_c, 1, 42, 0
1, 3750000, Note_on_c, 1, 42, 40
1, 3750360, Note_off_c, 1, 42, 0
1, 3750480, Note_on_c, 1, 40, 40
1, 3750840, Note_off_c, 1, 40, 0
1, 3750960, Note_on_c, 1, 40, 40
1, 3751320, Note_off_c, 1, 40, 0
1, 3751440, Note_on_c, 1, 38, 40
1, 3751800, Note_off_c, 1, 38, 0
1, 3751920, Note_on_c, 1, 38, 40
1, 3752280, Note_off_c, 1, 38, 0
1, 3752400, Note_on_c, 1, 43, 40
1, 3752760, Note_off_c, 1, 43, 0
1, 3752880, Note_on_c, 1, 43, 40
1, 3753240, Note_off_c, 1, 43, 0
1, 3753360, Note_on_c, 1, 45, 40
1, 3753720, Note_off_c, 1, 45, 0
1, 3753840, Note_on_c, 1, 45, 40
1, 3753960, Note_off_c, 1, 45, 0
1, 3754080, Note_on_c, 1, 47, 40
1, 3754200, Note_off_c, 1, 47, 0
1, 3754320, Note_on_c, 1, 49, 40
1, 3754440, Note_off_c, 1, 49, 0
1, 3754560, Note_on_c, 1, 45, 40
1, 3754680, Note_off_c, 1, 45, 0
1, 3754800, Note_on_c, 1, 47, 40
1, 3754920, Note_off_c, 1, 47, 0
1, 3755040, Note_on_c, 1, 49, 40
1, 3755160, Note_off_c, 1, 49, 0
1, 3755280, Note_on_c, 1, 50, 40
1, 3756600, Note_off_c, 1, 50, 0
1, 3757200, Note_on_c, 1, 45, 40
1, 3758520, Note_off_c, 1, 45, 0
1, 3759120, Note_on_c, 1, 40, 40
1, 3760440, Note_off_c, 1, 40, 0
1, 3761040, Note_on_c, 1, 54, 40
1, 3761160, Note_off_c, 1, 54, 0
1, 3761280, Note_on_c, 1, 52, 40
1, 3761400, Note_off_c, 1, 52, 0
1, 3761520, Note_on_c, 1, 50, 40
1, 3761640, Note_off_c, 1, 50, 0
1, 3761760, Note_on_c, 1, 49, 40
1, 3761880, Note_off_c, 1, 49, 0
1, 3762000, Note_on_c, 1, 47, 40
1, 3762120, Note_off_c, 1, 47, 0
1, 3762240, Note_on_c, 1, 45, 40
1, 3762360, Note_off_c, 1, 45, 0
1, 3762480, Note_on_c, 1, 44, 40
1, 3762600, Note_off_c, 1, 44, 0
1, 3762720, Note_on_c, 1, 42, 40
1, 3762840, Note_off_c, 1, 42, 0
1, 3762960, Note_on_c, 1, 40, 40
1, 3763080, Note_off_c, 1, 40, 0
1, 3763200, Note_on_c, 1, 47, 40
1, 3763320, Note_off_c, 1, 47, 0
1, 3763440, Note_on_c, 1, 44, 40
1, 3763560, Note_off_c, 1, 44, 0
1, 3763680, Note_on_c, 1, 47, 40
1, 3763800, Note_off_c, 1, 47, 0
1, 3763920, Note_on_c, 1, 42, 40
1, 3764040, Note_off_c, 1, 42, 0
1, 3764160, Note_on_c, 1, 42, 40
1, 3764280, Note_off_c, 1, 42, 0
1, 3764400, Note_on_c, 1, 44, 40
1, 3764520, Note_off_c, 1, 44, 0
1, 3764640, Note_on_c, 1, 47, 40
1, 3764760, Note_off_c, 1, 47, 0
1, 3764880, Note_on_c, 1, 42, 40
1, 3765000, Note_off_c, 1, 42, 0
1, 3765120, Note_on_c, 1, 42, 40
1, 3765240, Note_off_c, 1, 42, 0
1, 3765360, Note_on_c, 1, 45, 40
1, 3765480, Note_off_c, 1, 45, 0
1, 3765600, Note_on_c, 1, 47, 40
1, 3765720, Note_off_c, 1, 47, 0
1, 3765840, Note_on_c, 1, 49, 40
1, 3765960, Note_off_c, 1, 49, 0
1, 3766080, Note_on_c, 1, 47, 40
1, 3766200, Note_off_c, 1, 47, 0
1, 3766320, Note_on_c, 1, 45, 40
1, 3766440, Note_off_c, 1, 45, 0
1, 3766440, Note_on_c, 1, 44, 40
1, 3766560, Note_off_c, 1, 44, 0
1, 3766560, Note_on_c, 1, 42, 40
1, 3766680, Note_off_c, 1, 42, 0
1, 3766800, Note_on_c, 1, 40, 40
1, 3766920, Note_off_c, 1, 40, 0
1, 3767040, Note_on_c, 1, 47, 40
1, 3767160, Note_off_c, 1, 47, 0
1, 3767280, Note_on_c, 1, 44, 40
1, 3767400, Note_off_c, 1, 44, 0
1, 3767520, Note_on_c, 1, 47, 40
1, 3767640, Note_off_c, 1, 47, 0
1, 3767760, Note_on_c, 1, 40, 40
1, 3767880, Note_off_c, 1, 40, 0
1, 3768000, Note_on_c, 1, 42, 40
1, 3768120, Note_off_c, 1, 42, 0
1, 3768240, Note_on_c, 1, 44, 40
1, 3768360, Note_off_c, 1, 44, 0
1, 3768480, Note_on_c, 1, 47, 40
1, 3768600, Note_off_c, 1, 47, 0
1, 3768720, Note_on_c, 1, 52, 40
1, 3770040, Note_off_c, 1, 52, 0
1, 3771600, Note_on_c, 1, 45, 40
1, 3771960, Note_off_c, 1, 45, 0
1, 3772080, Note_on_c, 1, 45, 40
1, 3772440, Note_off_c, 1, 45, 0
1, 3772560, Note_on_c, 1, 44, 40
1, 3772920, Note_off_c, 1, 44, 0
1, 3773040, Note_on_c, 1, 44, 40
1, 3773400, Note_off_c, 1, 44, 0
1, 3773520, Note_on_c, 1, 42, 40
1, 3773880, Note_off_c, 1, 42, 0
1, 3774000, Note_on_c, 1, 42, 40
1, 3774360, Note_off_c, 1, 42, 0
1, 3774480, Note_on_c, 1, 40, 40
1, 3774840, Note_off_c, 1, 40, 0
1, 3774960, Note_on_c, 1, 40, 40
1, 3775320, Note_off_c, 1, 40, 0
1, 3775440, Note_on_c, 1, 38, 40
1, 3775800, Note_off_c, 1, 38, 0
1, 3775920, Note_on_c, 1, 38, 40
1, 3776280, Note_off_c, 1, 38, 0
1, 3776400, Note_on_c, 1, 41, 40
1, 3776760, Note_off_c, 1, 41, 0
1, 3776880, Note_on_c, 1, 41, 40
1, 3777240, Note_off_c, 1, 41, 0
1, 3777360, Note_on_c, 1, 45, 40
1, 3777720, Note_off_c, 1, 45, 0
1, 3777840, Note_on_c, 1, 45, 40
1, 3778200, Note_off_c, 1, 45, 0
1, 3778320, Note_on_c, 1, 44, 40
1, 3778680, Note_off_c, 1, 44, 0
1, 3778800, Note_on_c, 1, 44, 40
1, 3779160, Note_off_c, 1, 44, 0
1, 3779280, Note_on_c, 1, 42, 40
1, 3779640, Note_off_c, 1, 42, 0
1, 3779760, Note_on_c, 1, 42, 40
1, 3780120, Note_off_c, 1, 42, 0
1, 3780240, Note_on_c, 1, 40, 40
1, 3780600, Note_off_c, 1, 40, 0
1, 3780720, Note_on_c, 1, 40, 40
1, 3781080, Note_off_c, 1, 40, 0
1, 3781200, Note_on_c, 1, 38, 40
1, 3781560, Note_off_c, 1, 38, 0
1, 3781680, Note_on_c, 1, 38, 40
1, 3782040, Note_off_c, 1, 38, 0
1, 3782160, Note_on_c, 1, 43, 40
1, 3782520, Note_off_c, 1, 43, 0
1, 3782640, Note_on_c, 1, 43, 40
1, 3783000, Note_off_c, 1, 43, 0
1, 3783120, Note_on_c, 1, 45, 40
1, 3783240, Note_off_c, 1, 45, 0
1, 3783360, Note_on_c, 1, 45, 40
1, 3783480, Note_off_c, 1, 45, 0
1, 3783600, Note_on_c, 1, 45, 40
1, 3783720, Note_off_c, 1, 45, 0
1, 3783840, Note_on_c, 1, 47, 40
1, 3783960, Note_off_c, 1, 47, 0
1, 3784080, Note_on_c, 1, 49, 40
1, 3784200, Note_off_c, 1, 49, 0
1, 3784320, Note_on_c, 1, 52, 40
1, 3784440, Note_off_c, 1, 52, 0
1, 3784560, Note_on_c, 1, 54, 40
1, 3784680, Note_off_c, 1, 54, 0
1, 3784800, Note_on_c, 1, 57, 40
1, 3784920, Note_off_c, 1, 57, 0
1, 3785040, Note_on_c, 1, 50, 40
1, 3786360, Note_off_c, 1, 50, 0
1, 3786960, Note_on_c, 1, 45, 40
1, 3788280, Note_off_c, 1, 45, 0
1, 3788880, Note_on_c, 1, 40, 40
1, 3790200, Note_off_c, 1, 40, 0
1, 3790800, Note_on_c, 1, 54, 40
1, 3790920, Note_off_c, 1, 54, 0
1, 3791040, Note_on_c, 1, 52, 40
1, 3791160, Note_off_c, 1, 52, 0
1, 3791280, Note_on_c, 1, 50, 40
1, 3791400, Note_off_c, 1, 50, 0
1, 3791520, Note_on_c, 1, 49, 40
1, 3791640, Note_off_c, 1, 49, 0
1, 3791760, Note_on_c, 1, 47, 40
1, 3791880, Note_off_c, 1, 47, 0
1, 3792000, Note_on_c, 1, 45, 40
1, 3792120, Note_off_c, 1, 45, 0
1, 3792240, Note_on_c, 1, 44, 40
1, 3792360, Note_off_c, 1, 44, 0
1, 3792480, Note_on_c, 1, 42, 40
1, 3792600, Note_off_c, 1, 42, 0
1, 3792720, Note_on_c, 1, 40, 40
1, 3792840, Note_off_c, 1, 40, 0
1, 3792960, Note_on_c, 1, 47, 40
1, 3793080, Note_off_c, 1, 47, 0
1, 3793200, Note_on_c, 1, 44, 40
1, 3793320, Note_off_c, 1, 44, 0
1, 3793440, Note_on_c, 1, 47, 40
1, 3793560, Note_off_c, 1, 47, 0
1, 3793680, Note_on_c, 1, 40, 40
1, 3793800, Note_off_c, 1, 40, 0
1, 3793920, Note_on_c, 1, 42, 40
1, 3794040, Note_off_c, 1, 42, 0
1, 3794160, Note_on_c, 1, 44, 40
1, 3794280, Note_off_c, 1, 44, 0
1, 3794400, Note_on_c, 1, 47, 40
1, 3794520, Note_off_c, 1, 47, 0
1, 3794640, Note_on_c, 1, 42, 40
1, 3794760, Note_off_c, 1, 42, 0
1, 3794880, Note_on_c, 1, 45, 40
1, 3795000, Note_off_c, 1, 45, 0
1, 3795120, Note_on_c, 1, 47, 40
1, 3795240, Note_off_c, 1, 47, 0
1, 3795360, Note_on_c, 1, 49, 40
1, 3795480, Note_off_c, 1, 49, 0
1, 3795600, Note_on_c, 1, 47, 40
1, 3795720, Note_off_c, 1, 47, 0
1, 3795840, Note_on_c, 1, 45, 40
1, 3795960, Note_off_c, 1, 45, 0
1, 3796080, Note_on_c, 1, 44, 40
1, 3796200, Note_off_c, 1, 44, 0
1, 3796320, Note_on_c, 1, 42, 40
1, 3796440, Note_off_c, 1, 42, 0
1, 3796560, Note_on_c, 1, 40, 40
1, 3796680, Note_off_c, 1, 40, 0
1, 3796800, Note_on_c, 1, 47, 40
1, 3796920, Note_off_c, 1, 47, 0
1, 3797040, Note_on_c, 1, 44, 40
1, 3797160, Note_off_c, 1, 44, 0
1, 3797280, Note_on_c, 1, 47, 40
1, 3797400, Note_off_c, 1, 47, 0
1, 3797520, Note_on_c, 1, 40, 40
1, 3797640, Note_off_c, 1, 40, 0
1, 3797760, Note_on_c, 1, 42, 40
1, 3797880, Note_off_c, 1, 42, 0
1, 3798000, Note_on_c, 1, 44, 40
1, 3798120, Note_off_c, 1, 44, 0
1, 3798240, Note_on_c, 1, 47, 40
1, 3798360, Note_off_c, 1, 47, 0
1, 3798480, Note_on_c, 1, 52, 40
1, 3799800, Note_off_c, 1, 52, 0
1, 3801360, Note_on_c, 1, 45, 40
1, 3801720, Note_off_c, 1, 45, 0
1, 3801840, Note_on_c, 1, 45, 40
1, 3802200, Note_off_c, 1, 45, 0
1, 3802320, Note_on_c, 1, 44, 40
1, 3802680, Note_off_c, 1, 44, 0
1, 3802800, Note_on_c, 1, 44, 40
1, 3803160, Note_off_c, 1, 44, 0
1, 3803280, Note_on_c, 1, 42, 40
1, 3803640, Note_off_c, 1, 42, 0
1, 3803760, Note_on_c, 1, 42, 40
1, 3804120, Note_off_c, 1, 42, 0
1, 3804240, Note_on_c, 1, 40, 40
1, 3804600, Note_off_c, 1, 40, 0
1, 3804720, Note_on_c, 1, 40, 40
1, 3805080, Note_off_c, 1, 40, 0
1, 3805200, Note_on_c, 1, 38, 40
1, 3805560, Note_off_c, 1, 38, 0
1, 3805680, Note_on_c, 1, 38, 40
1, 3806040, Note_off_c, 1, 38, 0
1, 3806160, Note_on_c, 1, 41, 40
1, 3806520, Note_off_c, 1, 41, 0
1, 3806640, Note_on_c, 1, 41, 40
1, 3807000, Note_off_c, 1, 41, 0
1, 3807120, Note_on_c, 1, 45, 40
1, 3807480, Note_off_c, 1, 45, 0
1, 3807600, Note_on_c, 1, 45, 40
1, 3807960, Note_off_c, 1, 45, 0
1, 3808080, Note_on_c, 1, 44, 40
1, 3808440, Note_off_c, 1, 44, 0
1, 3808560, Note_on_c, 1, 44, 40
1, 3808920, Note_off_c, 1, 44, 0
1, 3809040, Note_on_c, 1, 42, 40
1, 3809400, Note_off_c, 1, 42, 0
1, 3809520, Note_on_c, 1, 42, 40
1, 3809880, Note_off_c, 1, 42, 0
1, 3810000, Note_on_c, 1, 40, 40
1, 3810360, Note_off_c, 1, 40, 0
1, 3810480, Note_on_c, 1, 40, 40
1, 3810840, Note_off_c, 1, 40, 0
1, 3810960, Note_on_c, 1, 38, 40
1, 3811320, Note_off_c, 1, 38, 0
1, 3811440, Note_on_c, 1, 38, 40
1, 3811800, Note_off_c, 1, 38, 0
1, 3811920, Note_on_c, 1, 43, 40
1, 3812280, Note_off_c, 1, 43, 0
1, 3812400, Note_on_c, 1, 43, 40
1, 3812760, Note_off_c, 1, 43, 0
1, 3812880, Note_on_c, 1, 45, 40
1, 3813240, Note_off_c, 1, 45, 0
1, 3813360, Note_on_c, 1, 45, 40
1, 3813720, Note_off_c, 1, 45, 0
1, 3813840, Note_on_c, 1, 44, 40
1, 3814200, Note_off_c, 1, 44, 0
1, 3814320, Note_on_c, 1, 44, 40
1, 3814680, Note_off_c, 1, 44, 0
1, 3814800, Note_on_c, 1, 42, 40
1, 3815160, Note_off_c, 1, 42, 0
1, 3815280, Note_on_c, 1, 42, 40
1, 3815640, Note_off_c, 1, 42, 0
1, 3815760, Note_on_c, 1, 40, 40
1, 3816120, Note_off_c, 1, 40, 0
1, 3816240, Note_on_c, 1, 40, 40
1, 3816600, Note_off_c, 1, 40, 0
1, 3816720, Note_on_c, 1, 38, 40
1, 3817080, Note_off_c, 1, 38, 0
1, 3817200, Note_on_c, 1, 38, 40
1, 3817560, Note_off_c, 1, 38, 0
1, 3817680, Note_on_c, 1, 41, 40
1, 3818040, Note_off_c, 1, 41, 0
1, 3818160, Note_on_c, 1, 41, 40
1, 3818520, Note_off_c, 1, 41, 0
1, 3818640, Note_on_c, 1, 41, 40
1, 3818760, Note_off_c, 1, 41, 0
1, 3818880, Note_on_c, 1, 41, 40
1, 3819000, Note_off_c, 1, 41, 0
1, 3819120, Note_on_c, 1, 41, 40
1, 3819240, Note_off_c, 1, 41, 0
1, 3819360, Note_on_c, 1, 41, 40
1, 3819480, Note_off_c, 1, 41, 0
1, 3819600, Note_on_c, 1, 40, 40
1, 3819720, Note_off_c, 1, 40, 0
1, 3819840, Note_on_c, 1, 40, 40
1, 3819960, Note_off_c, 1, 40, 0
1, 3820080, Note_on_c, 1, 40, 40
1, 3820200, Note_off_c, 1, 40, 0
1, 3820320, Note_on_c, 1, 40, 40
1, 3820440, Note_off_c, 1, 40, 0
1, 3820560, Note_on_c, 1, 39, 40
1, 3820680, Note_off_c, 1, 39, 0
1, 3820800, Note_on_c, 1, 39, 40
1, 3820920, Note_off_c, 1, 39, 0
1, 3821040, Note_on_c, 1, 39, 40
1, 3821160, Note_off_c, 1, 39, 0
1, 3821280, Note_on_c, 1, 39, 40
1, 3821400, Note_off_c, 1, 39, 0
1, 3821520, Note_on_c, 1, 38, 40
1, 3821640, Note_off_c, 1, 38, 0
1, 3821760, Note_on_c, 1, 38, 40
1, 3821880, Note_off_c, 1, 38, 0
1, 3822000, Note_on_c, 1, 38, 40
1, 3822120, Note_off_c, 1, 38, 0
1, 3822240, Note_on_c, 1, 38, 40
1, 3822360, Note_off_c, 1, 38, 0
1, 3822480, Note_on_c, 1, 45, 40
1, 3824400, Note_off_c, 1, 45, 0
1, 3824400, Note_on_c, 1, 45, 40
1, 3825720, Note_off_c, 1, 45, 0
1, 3826320, Note_on_c, 1, 45, 40
1, 3826680, Note_off_c, 1, 45, 0
1, 3826800, Note_on_c, 1, 45, 40
1, 3827160, Note_off_c, 1, 45, 0
1, 3827280, Note_on_c, 1, 45, 40
1, 3827640, Note_off_c, 1, 45, 0
1, 3827760, Note_on_c, 1, 45, 40
1, 3828120, Note_off_c, 1, 45, 0
1, 3828240, Note_on_c, 1, 45, 40
1, 3828600, Note_off_c, 1, 45, 0
1, 3828720, Note_on_c, 1, 45, 40
1, 3829080, Note_off_c, 1, 45, 0
1, 3829200, Note_on_c, 1, 45, 40
1, 3829560, Note_off_c, 1, 45, 0
1, 3829680, Note_on_c, 1, 45, 40
1, 3830040, Note_off_c, 1, 45, 0
1, 3830160, Note_on_c, 1, 45, 40
1, 3830520, Note_off_c, 1, 45, 0
1, 3830640, Note_on_c, 1, 45, 40
1, 3831000, Note_off_c, 1, 45, 0
1, 3831120, Note_on_c, 1, 45, 40
1, 3831480, Note_off_c, 1, 45, 0
1, 3831600, Note_on_c, 1, 45, 40
1, 3831960, Note_off_c, 1, 45, 0
1, 3832080, Note_on_c, 1, 45, 40
1, 3832440, Note_off_c, 1, 45, 0
1, 3832560, Note_on_c, 1, 45, 40
1, 3832920, Note_off_c, 1, 45, 0
1, 3833040, Note_on_c, 1, 45, 40
1, 3833400, Note_off_c, 1, 45, 0
1, 3833520, Note_on_c, 1, 45, 40
1, 3833880, Note_off_c, 1, 45, 0
1, 3834000, Note_on_c, 1, 45, 40
1, 3834360, Note_off_c, 1, 45, 0
1, 3834480, Note_on_c, 1, 45, 40
1, 3834840, Note_off_c, 1, 45, 0
1, 3834960, Note_on_c, 1, 45, 40
1, 3835320, Note_off_c, 1, 45, 0
1, 3835440, Note_on_c, 1, 45, 40
1, 3835800, Note_off_c, 1, 45, 0
1, 3835920, Note_on_c, 1, 45, 40
1, 3836280, Note_off_c, 1, 45, 0
1, 3836400, Note_on_c, 1, 45, 40
1, 3836760, Note_off_c, 1, 45, 0
1, 3836880, Note_on_c, 1, 45, 40
1, 3837240, Note_off_c, 1, 45, 0
1, 3837360, Note_on_c, 1, 45, 40
1, 3837720, Note_off_c, 1, 45, 0
1, 3837840, Note_on_c, 1, 45, 40
1, 3838200, Note_off_c, 1, 45, 0
1, 3838320, Note_on_c, 1, 45, 40
1, 3838680, Note_off_c, 1, 45, 0
1, 3838800, Note_on_c, 1, 45, 40
1, 3839160, Note_off_c, 1, 45, 0
1, 3839280, Note_on_c, 1, 45, 40
1, 3839640, Note_off_c, 1, 45, 0
1, 3839760, Note_on_c, 1, 45, 40
1, 3840120, Note_off_c, 1, 45, 0
1, 3840240, Note_on_c, 1, 45, 40
1, 3840600, Note_off_c, 1, 45, 0
1, 3840720, Note_on_c, 1, 45, 40
1, 3841080, Note_off_c, 1, 45, 0
1, 3841200, Note_on_c, 1, 45, 40
1, 3841560, Note_off_c, 1, 45, 0
1, 3841680, Note_on_c, 1, 45, 40
1, 3842040, Note_off_c, 1, 45, 0
1, 3842160, Note_on_c, 1, 45, 40
1, 3842520, Note_off_c, 1, 45, 0
1, 3842640, Note_on_c, 1, 45, 40
1, 3843000, Note_off_c, 1, 45, 0
1, 3843120, Note_on_c, 1, 45, 40
1, 3843480, Note_off_c, 1, 45, 0
1, 3843600, Note_on_c, 1, 45, 40
1, 3843960, Note_off_c, 1, 45, 0
1, 3844080, Note_on_c, 1, 45, 40
1, 3844440, Note_off_c, 1, 45, 0
1, 3844560, Note_on_c, 1, 45, 40
1, 3844920, Note_off_c, 1, 45, 0
1, 3845040, Note_on_c, 1, 45, 40
1, 3845400, Note_off_c, 1, 45, 0
1, 3845520, Note_on_c, 1, 45, 40
1, 3845880, Note_off_c, 1, 45, 0
1, 3846000, Note_on_c, 1, 45, 40
1, 3846360, Note_off_c, 1, 45, 0
1, 3846480, Note_on_c, 1, 45, 40
1, 3846840, Note_off_c, 1, 45, 0
1, 3846960, Note_on_c, 1, 45, 40
1, 3847320, Note_off_c, 1, 45, 0
1, 3847440, Note_on_c, 1, 45, 40
1, 3847800, Note_off_c, 1, 45, 0
1, 3847920, Note_on_c, 1, 45, 40
1, 3848280, Note_off_c, 1, 45, 0
1, 3848400, Note_on_c, 1, 45, 40
1, 3848760, Note_off_c, 1, 45, 0
1, 3848880, Note_on_c, 1, 45, 40
1, 3849240, Note_off_c, 1, 45, 0
1, 3879600, Note_on_c, 1, 35, 40
1, 3880320, Note_off_c, 1, 35, 0
1, 3880320, Note_on_c, 1, 34, 40
1, 3881040, Note_off_c, 1, 34, 0
1, 3881040, Note_on_c, 1, 32, 40
1, 3881760, Note_off_c, 1, 32, 0
1, 3881760, Note_on_c, 1, 30, 40
1, 3882480, Note_off_c, 1, 30, 0
1, 3882480, Note_on_c, 1, 25, 40
1, 3882720, Note_off_c, 1, 25, 0
1, 3882720, Note_on_c, 1, 29, 40
1, 3882960, Note_off_c, 1, 29, 0
1, 3882960, Note_on_c, 1, 32, 40
1, 3883200, Note_off_c, 1, 32, 0
1, 3883200, Note_on_c, 1, 25, 40
1, 3883440, Note_off_c, 1, 25, 0
1, 3883440, Note_on_c, 1, 30, 40
1, 3884160, Note_off_c, 1, 30, 0
1, 3884160, Note_on_c, 1, 42, 40
1, 3884400, Note_off_c, 1, 42, 0
1, 3884400, Note_on_c, 1, 42, 40
1, 3884640, Note_off_c, 1, 42, 0
1, 3884640, Note_on_c, 1, 42, 40
1, 3885120, Note_off_c, 1, 42, 0
1, 3885120, Note_on_c, 1, 42, 40
1, 3885360, Note_off_c, 1, 42, 0
1, 3885360, Note_on_c, 1, 42, 40
1, 3885840, Note_off_c, 1, 42, 0
1, 3885840, Note_on_c, 1, 42, 40
1, 3886080, Note_off_c, 1, 42, 0
1, 3886080, Note_on_c, 1, 42, 40
1, 3886320, Note_off_c, 1, 42, 0
1, 3886560, Note_on_c, 1, 42, 40
1, 3886800, Note_off_c, 1, 42, 0
1, 3886800, Note_on_c, 1, 42, 40
1, 3887280, Note_off_c, 1, 42, 0
1, 3887280, Note_on_c, 1, 35, 40
1, 3887760, Note_off_c, 1, 35, 0
1, 3887760, Note_on_c, 1, 35, 40
1, 3888000, Note_off_c, 1, 35, 0
1, 3888000, Note_on_c, 1, 35, 40
1, 3888240, Note_off_c, 1, 35, 0
1, 3888480, Note_on_c, 1, 35, 40
1, 3888720, Note_off_c, 1, 35, 0
1, 3888720, Note_on_c, 1, 35, 40
1, 3888960, Note_off_c, 1, 35, 0
1, 3889200, Note_on_c, 1, 37, 40
1, 3889680, Note_off_c, 1, 37, 0
1, 3889680, Note_on_c, 1, 37, 40
1, 3889920, Note_off_c, 1, 37, 0
1, 3889920, Note_on_c, 1, 37, 40
1, 3890160, Note_off_c, 1, 37, 0
1, 3890400, Note_on_c, 1, 37, 40
1, 3890640, Note_off_c, 1, 37, 0
1, 3890640, Note_on_c, 1, 39, 40
1, 3890880, Note_off_c, 1, 39, 0
1, 3890880, Note_on_c, 1, 41, 40
1, 3891120, Note_off_c, 1, 41, 0
1, 3891120, Note_on_c, 1, 42, 40
1, 3891600, Note_off_c, 1, 42, 0
1, 3891600, Note_on_c, 1, 42, 40
1, 3891840, Note_off_c, 1, 42, 0
1, 3891840, Note_on_c, 1, 42, 40
1, 3892080, Note_off_c, 1, 42, 0
1, 3892320, Note_on_c, 1, 42, 40
1, 3892560, Note_off_c, 1, 42, 0
1, 3892800, Note_on_c, 1, 42, 40
1, 3893040, Note_off_c, 1, 42, 0
1, 3893040, Note_on_c, 1, 42, 40
1, 3893520, Note_off_c, 1, 42, 0
1, 3893520, Note_on_c, 1, 42, 40
1, 3893760, Note_off_c, 1, 42, 0
1, 3893760, Note_on_c, 1, 42, 40
1, 3894000, Note_off_c, 1, 42, 0
1, 3894240, Note_on_c, 1, 39, 40
1, 3894480, Note_off_c, 1, 39, 0
1, 3894480, Note_on_c, 1, 37, 40
1, 3894720, Note_off_c, 1, 37, 0
1, 3894720, Note_on_c, 1, 34, 40
1, 3894960, Note_off_c, 1, 34, 0
1, 3894960, Note_on_c, 1, 35, 40
1, 3895440, Note_off_c, 1, 35, 0
1, 3895440, Note_on_c, 1, 35, 40
1, 3895680, Note_off_c, 1, 35, 0
1, 3895680, Note_on_c, 1, 35, 40
1, 3895920, Note_off_c, 1, 35, 0
1, 3896160, Note_on_c, 1, 34, 40
1, 3896400, Note_off_c, 1, 34, 0
1, 3896400, Note_on_c, 1, 35, 40
1, 3896880, Note_off_c, 1, 35, 0
1, 3896880, Note_on_c, 1, 37, 40
1, 3897360, Note_off_c, 1, 37, 0
1, 3897360, Note_on_c, 1, 37, 40
1, 3897600, Note_off_c, 1, 37, 0
1, 3897600, Note_on_c, 1, 37, 40
1, 3897840, Note_off_c, 1, 37, 0
1, 3898080, Note_on_c, 1, 37, 40
1, 3898320, Note_off_c, 1, 37, 0
1, 3898320, Note_on_c, 1, 39, 40
1, 3898560, Note_off_c, 1, 39, 0
1, 3898560, Note_on_c, 1, 41, 40
1, 3898800, Note_off_c, 1, 41, 0
1, 3898800, Note_on_c, 1, 42, 40
1, 3899280, Note_off_c, 1, 42, 0
1, 3899280, Note_on_c, 1, 42, 40
1, 3899520, Note_off_c, 1, 42, 0
1, 3899520, Note_on_c, 1, 42, 40
1, 3899760, Note_off_c, 1, 42, 0
1, 3900000, Note_on_c, 1, 42, 40
1, 3900240, Note_off_c, 1, 42, 0
1, 3900480, Note_on_c, 1, 37, 40
1, 3900720, Note_off_c, 1, 37, 0
1, 3900720, Note_on_c, 1, 42, 40
1, 3901440, Note_off_c, 1, 42, 0
1, 3901440, Note_on_c, 1, 42, 40
1, 3901680, Note_off_c, 1, 42, 0
1, 3901680, Note_on_c, 1, 42, 40
1, 3901920, Note_off_c, 1, 42, 0
1, 3901920, Note_on_c, 1, 39, 40
1, 3902160, Note_off_c, 1, 39, 0
1, 3902160, Note_on_c, 1, 37, 40
1, 3902400, Note_off_c, 1, 37, 0
1, 3902400, Note_on_c, 1, 34, 40
1, 3902640, Note_off_c, 1, 34, 0
1, 3902640, Note_on_c, 1, 35, 40
1, 3903360, Note_off_c, 1, 35, 0
1, 3903360, Note_on_c, 1, 35, 40
1, 3903600, Note_off_c, 1, 35, 0
1, 3903840, Note_on_c, 1, 35, 40
1, 3904560, Note_off_c, 1, 35, 0
1, 3904560, Note_on_c, 1, 32, 40
1, 3905040, Note_off_c, 1, 32, 0
1, 3905040, Note_on_c, 1, 32, 40
1, 3905280, Note_off_c, 1, 32, 0
1, 3905280, Note_on_c, 1, 32, 40
1, 3905520, Note_off_c, 1, 32, 0
1, 3905520, Note_on_c, 1, 32, 40
1, 3905760, Note_off_c, 1, 32, 0
1, 3905760, Note_on_c, 1, 32, 40
1, 3906000, Note_off_c, 1, 32, 0
1, 3906000, Note_on_c, 1, 34, 40
1, 3906240, Note_off_c, 1, 34, 0
1, 3906240, Note_on_c, 1, 36, 40
1, 3906480, Note_off_c, 1, 36, 0
1, 3906480, Note_on_c, 1, 30, 40
1, 3906720, Note_off_c, 1, 30, 0
1, 3906720, Note_on_c, 1, 30, 40
1, 3906960, Note_off_c, 1, 30, 0
1, 3906960, Note_on_c, 1, 30, 40
1, 3907200, Note_off_c, 1, 30, 0
1, 3907200, Note_on_c, 1, 32, 40
1, 3907440, Note_off_c, 1, 32, 0
1, 3907440, Note_on_c, 1, 34, 40
1, 3907680, Note_off_c, 1, 34, 0
1, 3907680, Note_on_c, 1, 37, 40
1, 3907920, Note_off_c, 1, 37, 0
1, 3907920, Note_on_c, 1, 39, 40
1, 3908160, Note_off_c, 1, 39, 0
1, 3908160, Note_on_c, 1, 42, 40
1, 3908400, Note_off_c, 1, 42, 0
1, 3908400, Note_on_c, 1, 35, 40
1, 3909120, Note_off_c, 1, 35, 0
1, 3909120, Note_on_c, 1, 34, 40
1, 3909840, Note_off_c, 1, 34, 0
1, 3909840, Note_on_c, 1, 32, 40
1, 3910560, Note_off_c, 1, 32, 0
1, 3910560, Note_on_c, 1, 30, 40
1, 3911280, Note_off_c, 1, 30, 0
1, 3911280, Note_on_c, 1, 25, 40
1, 3911520, Note_off_c, 1, 25, 0
1, 3911520, Note_on_c, 1, 29, 40
1, 3911760, Note_off_c, 1, 29, 0
1, 3911760, Note_on_c, 1, 32, 40
1, 3912000, Note_off_c, 1, 32, 0
1, 3912000, Note_on_c, 1, 25, 40
1, 3912240, Note_off_c, 1, 25, 0
1, 3912240, Note_on_c, 1, 42, 40
1, 3912720, Note_off_c, 1, 42, 0
1, 3912720, Note_on_c, 1, 42, 40
1, 3912960, Note_off_c, 1, 42, 0
1, 3912960, Note_on_c, 1, 42, 40
1, 3913200, Note_off_c, 1, 42, 0
1, 3913200, Note_on_c, 1, 42, 40
1, 3913440, Note_off_c, 1, 42, 0
1, 3913440, Note_on_c, 1, 42, 40
1, 3913920, Note_off_c, 1, 42, 0
1, 3913920, Note_on_c, 1, 35, 40
1, 3914160, Note_off_c, 1, 35, 0
1, 3914160, Note_on_c, 1, 37, 40
1, 3914640, Note_off_c, 1, 37, 0
1, 3914640, Note_on_c, 1, 37, 40
1, 3915120, Note_off_c, 1, 37, 0
1, 3915120, Note_on_c, 1, 37, 40
1, 3915360, Note_off_c, 1, 37, 0
1, 3915360, Note_on_c, 1, 37, 40
1, 3916080, Note_off_c, 1, 37, 0
1, 3916080, Note_on_c, 1, 30, 40
1, 3916800, Note_off_c, 1, 30, 0
1, 3916800, Note_on_c, 1, 42, 40
1, 3917040, Note_off_c, 1, 42, 0
1, 3917040, Note_on_c, 1, 42, 40
1, 3917280, Note_off_c, 1, 42, 0
1, 3917280, Note_on_c, 1, 42, 40
1, 3917760, Note_off_c, 1, 42, 0
1, 3917760, Note_on_c, 1, 42, 40
1, 3918000, Note_off_c, 1, 42, 0
1, 3918000, Note_on_c, 1, 42, 40
1, 3918480, Note_off_c, 1, 42, 0
1, 3918480, Note_on_c, 1, 42, 40
1, 3918720, Note_off_c, 1, 42, 0
1, 3918720, Note_on_c, 1, 42, 40
1, 3918960, Note_off_c, 1, 42, 0
1, 3919200, Note_on_c, 1, 42, 40
1, 3919440, Note_off_c, 1, 42, 0
1, 3919440, Note_on_c, 1, 42, 40
1, 3919920, Note_off_c, 1, 42, 0
1, 3919920, Note_on_c, 1, 35, 40
1, 3920400, Note_off_c, 1, 35, 0
1, 3920400, Note_on_c, 1, 35, 40
1, 3920640, Note_off_c, 1, 35, 0
1, 3920640, Note_on_c, 1, 35, 40
1, 3920880, Note_off_c, 1, 35, 0
1, 3921120, Note_on_c, 1, 35, 40
1, 3921360, Note_off_c, 1, 35, 0
1, 3921360, Note_on_c, 1, 35, 40
1, 3921600, Note_off_c, 1, 35, 0
1, 3921840, Note_on_c, 1, 37, 40
1, 3922320, Note_off_c, 1, 37, 0
1, 3922320, Note_on_c, 1, 37, 40
1, 3922560, Note_off_c, 1, 37, 0
1, 3922560, Note_on_c, 1, 37, 40
1, 3922800, Note_off_c, 1, 37, 0
1, 3923040, Note_on_c, 1, 37, 40
1, 3923280, Note_off_c, 1, 37, 0
1, 3923280, Note_on_c, 1, 39, 40
1, 3923520, Note_off_c, 1, 39, 0
1, 3923520, Note_on_c, 1, 41, 40
1, 3923760, Note_off_c, 1, 41, 0
1, 3923760, Note_on_c, 1, 42, 40
1, 3924240, Note_off_c, 1, 42, 0
1, 3924240, Note_on_c, 1, 42, 40
1, 3924480, Note_off_c, 1, 42, 0
1, 3924480, Note_on_c, 1, 42, 40
1, 3924720, Note_off_c, 1, 42, 0
1, 3924960, Note_on_c, 1, 42, 40
1, 3925200, Note_off_c, 1, 42, 0
1, 3925440, Note_on_c, 1, 42, 40
1, 3925680, Note_off_c, 1, 42, 0
1, 3925680, Note_on_c, 1, 42, 40
1, 3926160, Note_off_c, 1, 42, 0
1, 3926160, Note_on_c, 1, 42, 40
1, 3926400, Note_off_c, 1, 42, 0
1, 3926400, Note_on_c, 1, 42, 40
1, 3926640, Note_off_c, 1, 42, 0
1, 3926880, Note_on_c, 1, 39, 40
1, 3927120, Note_off_c, 1, 39, 0
1, 3927120, Note_on_c, 1, 37, 40
1, 3927360, Note_off_c, 1, 37, 0
1, 3927360, Note_on_c, 1, 34, 40
1, 3927600, Note_off_c, 1, 34, 0
1, 3927600, Note_on_c, 1, 35, 40
1, 3928080, Note_off_c, 1, 35, 0
1, 3928080, Note_on_c, 1, 35, 40
1, 3928320, Note_off_c, 1, 35, 0
1, 3928320, Note_on_c, 1, 35, 40
1, 3928560, Note_off_c, 1, 35, 0
1, 3928800, Note_on_c, 1, 34, 40
1, 3929040, Note_off_c, 1, 34, 0
1, 3929040, Note_on_c, 1, 35, 40
1, 3929520, Note_off_c, 1, 35, 0
1, 3929520, Note_on_c, 1, 37, 40
1, 3930000, Note_off_c, 1, 37, 0
1, 3930000, Note_on_c, 1, 37, 40
1, 3930240, Note_off_c, 1, 37, 0
1, 3930240, Note_on_c, 1, 37, 40
1, 3930480, Note_off_c, 1, 37, 0
1, 3930720, Note_on_c, 1, 37, 40
1, 3930960, Note_off_c, 1, 37, 0
1, 3930960, Note_on_c, 1, 39, 40
1, 3931200, Note_off_c, 1, 39, 0
1, 3931200, Note_on_c, 1, 41, 40
1, 3931440, Note_off_c, 1, 41, 0
1, 3931440, Note_on_c, 1, 42, 40
1, 3931920, Note_off_c, 1, 42, 0
1, 3931920, Note_on_c, 1, 42, 40
1, 3932160, Note_off_c, 1, 42, 0
1, 3932160, Note_on_c, 1, 42, 40
1, 3932400, Note_off_c, 1, 42, 0
1, 3932640, Note_on_c, 1, 42, 40
1, 3932880, Note_off_c, 1, 42, 0
1, 3933120, Note_on_c, 1, 37, 40
1, 3933360, Note_off_c, 1, 37, 0
1, 3933360, Note_on_c, 1, 42, 40
1, 3934080, Note_off_c, 1, 42, 0
1, 3934080, Note_on_c, 1, 42, 40
1, 3934320, Note_off_c, 1, 42, 0
1, 3934320, Note_on_c, 1, 42, 40
1, 3934560, Note_off_c, 1, 42, 0
1, 3934560, Note_on_c, 1, 39, 40
1, 3934800, Note_off_c, 1, 39, 0
1, 3934800, Note_on_c, 1, 37, 40
1, 3935040, Note_off_c, 1, 37, 0
1, 3935040, Note_on_c, 1, 34, 40
1, 3935280, Note_off_c, 1, 34, 0
1, 3935280, Note_on_c, 1, 35, 40
1, 3936000, Note_off_c, 1, 35, 0
1, 3936000, Note_on_c, 1, 35, 40
1, 3936240, Note_off_c, 1, 35, 0
1, 3936480, Note_on_c, 1, 35, 40
1, 3937200, Note_off_c, 1, 35, 0
1, 3937200, Note_on_c, 1, 32, 40
1, 3937680, Note_off_c, 1, 32, 0
1, 3937680, Note_on_c, 1, 32, 40
1, 3937920, Note_off_c, 1, 32, 0
1, 3937920, Note_on_c, 1, 32, 40
1, 3938160, Note_off_c, 1, 32, 0
1, 3938160, Note_on_c, 1, 32, 40
1, 3938400, Note_off_c, 1, 32, 0
1, 3938400, Note_on_c, 1, 32, 40
1, 3938640, Note_off_c, 1, 32, 0
1, 3938640, Note_on_c, 1, 34, 40
1, 3938880, Note_off_c, 1, 34, 0
1, 3938880, Note_on_c, 1, 36, 40
1, 3939120, Note_off_c, 1, 36, 0
1, 3939120, Note_on_c, 1, 30, 40
1, 3939360, Note_off_c, 1, 30, 0
1, 3939360, Note_on_c, 1, 30, 40
1, 3939600, Note_off_c, 1, 30, 0
1, 3939600, Note_on_c, 1, 30, 40
1, 3939840, Note_off_c, 1, 30, 0
1, 3939840, Note_on_c, 1, 32, 40
1, 3940080, Note_off_c, 1, 32, 0
1, 3940080, Note_on_c, 1, 34, 40
1, 3940320, Note_off_c, 1, 34, 0
1, 3940320, Note_on_c, 1, 37, 40
1, 3940560, Note_off_c, 1, 37, 0
1, 3940560, Note_on_c, 1, 39, 40
1, 3940800, Note_off_c, 1, 39, 0
1, 3940800, Note_on_c, 1, 42, 40
1, 3941040, Note_off_c, 1, 42, 0
1, 3941040, Note_on_c, 1, 35, 40
1, 3941760, Note_off_c, 1, 35, 0
1, 3941760, Note_on_c, 1, 34, 40
1, 3942480, Note_off_c, 1, 34, 0
1, 3942480, Note_on_c, 1, 32, 40
1, 3943200, Note_off_c, 1, 32, 0
1, 3943200, Note_on_c, 1, 30, 40
1, 3943920, Note_off_c, 1, 30, 0
1, 3943920, Note_on_c, 1, 25, 40
1, 3944160, Note_off_c, 1, 25, 0
1, 3944160, Note_on_c, 1, 29, 40
1, 3944400, Note_off_c, 1, 29, 0
1, 3944400, Note_on_c, 1, 32, 40
1, 3944640, Note_off_c, 1, 32, 0
1, 3944640, Note_on_c, 1, 25, 40
1, 3944880, Note_off_c, 1, 25, 0
1, 3944880, Note_on_c, 1, 42, 40
1, 3945360, Note_off_c, 1, 42, 0
1, 3945360, Note_on_c, 1, 42, 40
1, 3945600, Note_off_c, 1, 42, 0
1, 3945600, Note_on_c, 1, 42, 40
1, 3945840, Note_off_c, 1, 42, 0
1, 3945840, Note_on_c, 1, 42, 40
1, 3946080, Note_off_c, 1, 42, 0
1, 3946080, Note_on_c, 1, 42, 40
1, 3946560, Note_off_c, 1, 42, 0
1, 3946560, Note_on_c, 1, 35, 40
1, 3946800, Note_off_c, 1, 35, 0
1, 3946800, Note_on_c, 1, 37, 40
1, 3947280, Note_off_c, 1, 37, 0
1, 3947280, Note_on_c, 1, 37, 40
1, 3947760, Note_off_c, 1, 37, 0
1, 3948480, Note_on_c, 1, 45, 40
1, 3949200, Note_off_c, 1, 45, 0
1, 3949200, Note_on_c, 1, 40, 40
1, 3949920, Note_off_c, 1, 40, 0
1, 3949920, Note_on_c, 1, 39, 40
1, 3950640, Note_off_c, 1, 39, 0
1, 3950640, Note_on_c, 1, 35, 40
1, 3951120, Note_off_c, 1, 35, 0
1, 3951120, Note_on_c, 1, 42, 40
1, 3951600, Note_off_c, 1, 42, 0
1, 3951600, Note_on_c, 1, 42, 40
1, 3952080, Note_off_c, 1, 42, 0
1, 3952080, Note_on_c, 1, 42, 40
1, 3952560, Note_off_c, 1, 42, 0
1, 3952560, Note_on_c, 1, 42, 40
1, 3953040, Note_off_c, 1, 42, 0
1, 3953040, Note_on_c, 1, 37, 40
1, 3953520, Note_off_c, 1, 37, 0
1, 3953520, Note_on_c, 1, 37, 40
1, 3954000, Note_off_c, 1, 37, 0
1, 3954000, Note_on_c, 1, 37, 40
1, 3954240, Note_off_c, 1, 37, 0
1, 3954240, Note_on_c, 1, 41, 40
1, 3954480, Note_off_c, 1, 41, 0
1, 3954480, Note_on_c, 1, 44, 40
1, 3954720, Note_off_c, 1, 44, 0
1, 3954720, Note_on_c, 1, 45, 40
1, 3955440, Note_off_c, 1, 45, 0
1, 3955440, Note_on_c, 1, 40, 40
1, 3956160, Note_off_c, 1, 40, 0
1, 3956160, Note_on_c, 1, 39, 40
1, 3956880, Note_off_c, 1, 39, 0
1, 3956880, Note_on_c, 1, 35, 40
1, 3957360, Note_off_c, 1, 35, 0
1, 3957360, Note_on_c, 1, 42, 40
1, 3957840, Note_off_c, 1, 42, 0
1, 3957840, Note_on_c, 1, 42, 40
1, 3958320, Note_off_c, 1, 42, 0
1, 3958320, Note_on_c, 1, 42, 40
1, 3958800, Note_off_c, 1, 42, 0
1, 3958800, Note_on_c, 1, 42, 40
1, 3959280, Note_off_c, 1, 42, 0
1, 3959280, Note_on_c, 1, 37, 40
1, 3959760, Note_off_c, 1, 37, 0
1, 3959760, Note_on_c, 1, 37, 40
1, 3960240, Note_off_c, 1, 37, 0
1, 3960240, Note_on_c, 1, 37, 40
1, 3960480, Note_off_c, 1, 37, 0
1, 3960480, Note_on_c, 1, 41, 40
1, 3960720, Note_off_c, 1, 41, 0
1, 3960720, Note_on_c, 1, 44, 40
1, 3960960, Note_off_c, 1, 44, 0
1, 3960960, Note_on_c, 1, 45, 40
1, 3961680, Note_off_c, 1, 45, 0
1, 3961680, Note_on_c, 1, 40, 40
1, 3962400, Note_off_c, 1, 40, 0
1, 3962400, Note_on_c, 1, 39, 40
1, 3963120, Note_off_c, 1, 39, 0
1, 3963120, Note_on_c, 1, 35, 40
1, 3963600, Note_off_c, 1, 35, 0
1, 3963600, Note_on_c, 1, 42, 40
1, 3964080, Note_off_c, 1, 42, 0
1, 3964080, Note_on_c, 1, 42, 40
1, 3964560, Note_off_c, 1, 42, 0
1, 3964560, Note_on_c, 1, 42, 40
1, 3965040, Note_off_c, 1, 42, 0
1, 3965040, Note_on_c, 1, 42, 40
1, 3965520, Note_off_c, 1, 42, 0
1, 3965520, Note_on_c, 1, 37, 40
1, 3966000, Note_off_c, 1, 37, 0
1, 3966000, Note_on_c, 1, 37, 40
1, 3966480, Note_off_c, 1, 37, 0
1, 3966480, Note_on_c, 1, 37, 40
1, 3966720, Note_off_c, 1, 37, 0
1, 3966720, Note_on_c, 1, 41, 40
1, 3966960, Note_off_c, 1, 41, 0
1, 3966960, Note_on_c, 1, 44, 40
1, 3967200, Note_off_c, 1, 44, 0
1, 3967200, Note_on_c, 1, 45, 40
1, 3967920, Note_off_c, 1, 45, 0
1, 3967920, Note_on_c, 1, 40, 40
1, 3968640, Note_off_c, 1, 40, 0
1, 3968640, Note_on_c, 1, 39, 40
1, 3969360, Note_off_c, 1, 39, 0
1, 3969360, Note_on_c, 1, 35, 40
1, 3969840, Note_off_c, 1, 35, 0
1, 3969840, Note_on_c, 1, 42, 40
1, 3970320, Note_off_c, 1, 42, 0
1, 3970320, Note_on_c, 1, 42, 40
1, 3970800, Note_off_c, 1, 42, 0
1, 3970800, Note_on_c, 1, 42, 40
1, 3971280, Note_off_c, 1, 42, 0
1, 3971280, Note_on_c, 1, 42, 40
1, 3971760, Note_off_c, 1, 42, 0
1, 3971760, Note_on_c, 1, 37, 40
1, 3972240, Note_off_c, 1, 37, 0
1, 3972240, Note_on_c, 1, 37, 40
1, 3972720, Note_off_c, 1, 37, 0
1, 3972720, Note_on_c, 1, 37, 40
1, 3972960, Note_off_c, 1, 37, 0
1, 3972960, Note_on_c, 1, 41, 40
1, 3973200, Note_off_c, 1, 41, 0
1, 3973200, Note_on_c, 1, 44, 40
1, 3973440, Note_off_c, 1, 44, 0
1, 3973440, Note_on_c, 1, 45, 40
1, 3974160, Note_off_c, 1, 45, 0
1, 3974160, Note_on_c, 1, 40, 40
1, 3974880, Note_off_c, 1, 40, 0
1, 3974880, Note_on_c, 1, 39, 40
1, 3975600, Note_off_c, 1, 39, 0
1, 3975600, Note_on_c, 1, 35, 40
1, 3976080, Note_off_c, 1, 35, 0
1, 3976080, Note_on_c, 1, 42, 40
1, 3976560, Note_off_c, 1, 42, 0
1, 3976560, Note_on_c, 1, 42, 40
1, 3977040, Note_off_c, 1, 42, 0
1, 3977040, Note_on_c, 1, 42, 40
1, 3977520, Note_off_c, 1, 42, 0
1, 3977520, Note_on_c, 1, 42, 40
1, 3978000, Note_off_c, 1, 42, 0
1, 3978000, Note_on_c, 1, 37, 40
1, 3978480, Note_off_c, 1, 37, 0
1, 3978480, Note_on_c, 1, 37, 40
1, 3978960, Note_off_c, 1, 37, 0
1, 3978960, Note_on_c, 1, 37, 40
1, 3979200, Note_off_c, 1, 37, 0
1, 3979200, Note_on_c, 1, 41, 40
1, 3979440, Note_off_c, 1, 41, 0
1, 3979440, Note_on_c, 1, 44, 40
1, 3979680, Note_off_c, 1, 44, 0
1, 3979680, Note_on_c, 1, 45, 40
1, 3980400, Note_off_c, 1, 45, 0
1, 3980400, Note_on_c, 1, 40, 40
1, 3981120, Note_off_c, 1, 40, 0
1, 3981120, Note_on_c, 1, 39, 40
1, 3981840, Note_off_c, 1, 39, 0
1, 3981840, Note_on_c, 1, 35, 40
1, 3982320, Note_off_c, 1, 35, 0
1, 3982320, Note_on_c, 1, 42, 40
1, 3982800, Note_off_c, 1, 42, 0
1, 3982800, Note_on_c, 1, 42, 40
1, 3983280, Note_off_c, 1, 42, 0
1, 3983280, Note_on_c, 1, 42, 40
1, 3983520, Note_off_c, 1, 42, 0
1, 3983520, Note_on_c, 1, 42, 40
1, 3984000, Note_off_c, 1, 42, 0
1, 3984000, Note_on_c, 1, 37, 40
1, 3984240, Note_off_c, 1, 37, 0
1, 3984240, Note_on_c, 1, 37, 40
1, 3984480, Note_off_c, 1, 37, 0
1, 3984480, Note_on_c, 1, 37, 40
1, 3984720, Note_off_c, 1, 37, 0
1, 3984720, Note_on_c, 1, 37, 40
1, 3984960, Note_off_c, 1, 37, 0
1, 3984960, Note_on_c, 1, 37, 40
1, 3985200, Note_off_c, 1, 37, 0
1, 3985200, Note_on_c, 1, 37, 40
1, 3985440, Note_off_c, 1, 37, 0
1, 3985440, Note_on_c, 1, 37, 40
1, 3985680, Note_off_c, 1, 37, 0
1, 3985680, Note_on_c, 1, 37, 40
1, 3985920, Note_off_c, 1, 37, 0
1, 3985920, Note_on_c, 1, 37, 40
1, 3986160, Note_off_c, 1, 37, 0
1, 3986160, Note_on_c, 1, 37, 40
1, 3986400, Note_off_c, 1, 37, 0
1, 3986400, Note_on_c, 1, 37, 40
1, 3986640, Note_off_c, 1, 37, 0
1, 3986640, Note_on_c, 1, 37, 40
1, 3986880, Note_off_c, 1, 37, 0
1, 3986880, Note_on_c, 1, 37, 40
1, 3987120, Note_off_c, 1, 37, 0
1, 3987120, Note_on_c, 1, 37, 40
1, 3987360, Note_off_c, 1, 37, 0
1, 3987360, Note_on_c, 1, 37, 40
1, 3987600, Note_off_c, 1, 37, 0
1, 3987600, Note_on_c, 1, 37, 40
1, 3987840, Note_off_c, 1, 37, 0
1, 3987840, Note_on_c, 1, 37, 40
1, 3988080, Note_off_c, 1, 37, 0
1, 3988080, Note_on_c, 1, 37, 40
1, 3988320, Note_off_c, 1, 37, 0
1, 3988320, Note_on_c, 1, 37, 40
1, 3988560, Note_off_c, 1, 37, 0
1, 3988560, Note_on_c, 1, 37, 40
1, 3988800, Note_off_c, 1, 37, 0
1, 3988800, Note_on_c, 1, 37, 40
1, 3989040, Note_off_c, 1, 37, 0
1, 3989040, Note_on_c, 1, 37, 40
1, 3989280, Note_off_c, 1, 37, 0
1, 3989280, Note_on_c, 1, 37, 40
1, 3989520, Note_off_c, 1, 37, 0
1, 3989520, Note_on_c, 1, 37, 40
1, 3989760, Note_off_c, 1, 37, 0
1, 3989760, Note_on_c, 1, 37, 40
1, 3990000, Note_off_c, 1, 37, 0
1, 3990000, Note_on_c, 1, 37, 40
1, 3990240, Note_off_c, 1, 37, 0
1, 3990240, Note_on_c, 1, 37, 40
1, 3990480, Note_off_c, 1, 37, 0
1, 3990480, Note_on_c, 1, 37, 40
1, 3990720, Note_off_c, 1, 37, 0
1, 3990720, Note_on_c, 1, 37, 40
1, 3990960, Note_off_c, 1, 37, 0
1, 3990960, Note_on_c, 1, 37, 40
1, 3991200, Note_off_c, 1, 37, 0
1, 3991200, Note_on_c, 1, 37, 40
1, 3991440, Note_off_c, 1, 37, 0
1, 3991440, Note_on_c, 1, 37, 40
1, 3991680, Note_off_c, 1, 37, 0
1, 3991920, Note_on_c, 1, 30, 40
1, 3992640, Note_off_c, 1, 30, 0
1, 3992640, Note_on_c, 1, 42, 40
1, 3992880, Note_off_c, 1, 42, 0
1, 3992880, Note_on_c, 1, 42, 40
1, 3993120, Note_off_c, 1, 42, 0
1, 3993120, Note_on_c, 1, 42, 40
1, 3993600, Note_off_c, 1, 42, 0
1, 3993600, Note_on_c, 1, 42, 40
1, 3993840, Note_off_c, 1, 42, 0
1, 3993840, Note_on_c, 1, 42, 40
1, 3994320, Note_off_c, 1, 42, 0
1, 3994320, Note_on_c, 1, 42, 40
1, 3994560, Note_off_c, 1, 42, 0
1, 3994560, Note_on_c, 1, 42, 40
1, 3994800, Note_off_c, 1, 42, 0
1, 3995040, Note_on_c, 1, 42, 40
1, 3995280, Note_off_c, 1, 42, 0
1, 3995280, Note_on_c, 1, 42, 40
1, 3995760, Note_off_c, 1, 42, 0
1, 3995760, Note_on_c, 1, 35, 40
1, 3996240, Note_off_c, 1, 35, 0
1, 3996240, Note_on_c, 1, 35, 40
1, 3996480, Note_off_c, 1, 35, 0
1, 3996480, Note_on_c, 1, 35, 40
1, 3996720, Note_off_c, 1, 35, 0
1, 3996960, Note_on_c, 1, 35, 40
1, 3997200, Note_off_c, 1, 35, 0
1, 3997200, Note_on_c, 1, 35, 40
1, 3997440, Note_off_c, 1, 35, 0
1, 3997680, Note_on_c, 1, 37, 40
1, 3998160, Note_off_c, 1, 37, 0
1, 3998160, Note_on_c, 1, 37, 40
1, 3998400, Note_off_c, 1, 37, 0
1, 3998400, Note_on_c, 1, 37, 40
1, 3998640, Note_off_c, 1, 37, 0
1, 3998880, Note_on_c, 1, 37, 40
1, 3999120, Note_off_c, 1, 37, 0
1, 3999120, Note_on_c, 1, 39, 40
1, 3999360, Note_off_c, 1, 39, 0
1, 3999360, Note_on_c, 1, 41, 40
1, 3999600, Note_off_c, 1, 41, 0
1, 3999600, Note_on_c, 1, 42, 40
1, 4000080, Note_off_c, 1, 42, 0
1, 4000080, Note_on_c, 1, 42, 40
1, 4000320, Note_off_c, 1, 42, 0
1, 4000320, Note_on_c, 1, 42, 40
1, 4000560, Note_off_c, 1, 42, 0
1, 4000800, Note_on_c, 1, 42, 40
1, 4001040, Note_off_c, 1, 42, 0
1, 4001280, Note_on_c, 1, 42, 40
1, 4001520, Note_off_c, 1, 42, 0
1, 4001520, Note_on_c, 1, 42, 40
1, 4002000, Note_off_c, 1, 42, 0
1, 4002000, Note_on_c, 1, 42, 40
1, 4002240, Note_off_c, 1, 42, 0
1, 4002240, Note_on_c, 1, 42, 40
1, 4002480, Note_off_c, 1, 42, 0
1, 4002720, Note_on_c, 1, 39, 40
1, 4002960, Note_off_c, 1, 39, 0
1, 4002960, Note_on_c, 1, 37, 40
1, 4003200, Note_off_c, 1, 37, 0
1, 4003200, Note_on_c, 1, 34, 40
1, 4003440, Note_off_c, 1, 34, 0
1, 4003440, Note_on_c, 1, 35, 40
1, 4003920, Note_off_c, 1, 35, 0
1, 4003920, Note_on_c, 1, 35, 40
1, 4004160, Note_off_c, 1, 35, 0
1, 4004160, Note_on_c, 1, 35, 40
1, 4004400, Note_off_c, 1, 35, 0
1, 4004640, Note_on_c, 1, 34, 40
1, 4004880, Note_off_c, 1, 34, 0
1, 4004880, Note_on_c, 1, 35, 40
1, 4005360, Note_off_c, 1, 35, 0
1, 4005360, Note_on_c, 1, 37, 40
1, 4005840, Note_off_c, 1, 37, 0
1, 4005840, Note_on_c, 1, 37, 40
1, 4006080, Note_off_c, 1, 37, 0
1, 4006080, Note_on_c, 1, 37, 40
1, 4006320, Note_off_c, 1, 37, 0
1, 4006560, Note_on_c, 1, 37, 40
1, 4006800, Note_off_c, 1, 37, 0
1, 4006800, Note_on_c, 1, 39, 40
1, 4007040, Note_off_c, 1, 39, 0
1, 4007040, Note_on_c, 1, 41, 40
1, 4007280, Note_off_c, 1, 41, 0
1, 4007280, Note_on_c, 1, 42, 40
1, 4007760, Note_off_c, 1, 42, 0
1, 4007760, Note_on_c, 1, 42, 40
1, 4008000, Note_off_c, 1, 42, 0
1, 4008000, Note_on_c, 1, 42, 40
1, 4008240, Note_off_c, 1, 42, 0
1, 4008480, Note_on_c, 1, 42, 40
1, 4008720, Note_off_c, 1, 42, 0
1, 4008960, Note_on_c, 1, 37, 40
1, 4009200, Note_off_c, 1, 37, 0
1, 4009200, Note_on_c, 1, 42, 40
1, 4009920, Note_off_c, 1, 42, 0
1, 4009920, Note_on_c, 1, 42, 40
1, 4010160, Note_off_c, 1, 42, 0
1, 4010160, Note_on_c, 1, 42, 40
1, 4010400, Note_off_c, 1, 42, 0
1, 4010400, Note_on_c, 1, 39, 40
1, 4010640, Note_off_c, 1, 39, 0
1, 4010640, Note_on_c, 1, 37, 40
1, 4010880, Note_off_c, 1, 37, 0
1, 4010880, Note_on_c, 1, 34, 40
1, 4011120, Note_off_c, 1, 34, 0
1, 4011120, Note_on_c, 1, 35, 40
1, 4011840, Note_off_c, 1, 35, 0
1, 4011840, Note_on_c, 1, 35, 40
1, 4012080, Note_off_c, 1, 35, 0
1, 4012320, Note_on_c, 1, 35, 40
1, 4013040, Note_off_c, 1, 35, 0
1, 4013040, Note_on_c, 1, 32, 40
1, 4013520, Note_off_c, 1, 32, 0
1, 4013520, Note_on_c, 1, 32, 40
1, 4013760, Note_off_c, 1, 32, 0
1, 4013760, Note_on_c, 1, 32, 40
1, 4014000, Note_off_c, 1, 32, 0
1, 4014000, Note_on_c, 1, 32, 40
1, 4014240, Note_off_c, 1, 32, 0
1, 4014240, Note_on_c, 1, 32, 40
1, 4014480, Note_off_c, 1, 32, 0
1, 4014480, Note_on_c, 1, 34, 40
1, 4014720, Note_off_c, 1, 34, 0
1, 4014720, Note_on_c, 1, 36, 40
1, 4014960, Note_off_c, 1, 36, 0
1, 4014960, Note_on_c, 1, 30, 40
1, 4015200, Note_off_c, 1, 30, 0
1, 4015200, Note_on_c, 1, 30, 40
1, 4015440, Note_off_c, 1, 30, 0
1, 4015440, Note_on_c, 1, 30, 40
1, 4015680, Note_off_c, 1, 30, 0
1, 4015680, Note_on_c, 1, 32, 40
1, 4015920, Note_off_c, 1, 32, 0
1, 4015920, Note_on_c, 1, 34, 40
1, 4016160, Note_off_c, 1, 34, 0
1, 4016160, Note_on_c, 1, 37, 40
1, 4016400, Note_off_c, 1, 37, 0
1, 4016400, Note_on_c, 1, 39, 40
1, 4016640, Note_off_c, 1, 39, 0
1, 4016640, Note_on_c, 1, 42, 40
1, 4016880, Note_off_c, 1, 42, 0
1, 4016880, Note_on_c, 1, 35, 40
1, 4017600, Note_off_c, 1, 35, 0
1, 4017600, Note_on_c, 1, 34, 40
1, 4018320, Note_off_c, 1, 34, 0
1, 4018320, Note_on_c, 1, 32, 40
1, 4019040, Note_off_c, 1, 32, 0
1, 4019040, Note_on_c, 1, 30, 40
1, 4019760, Note_off_c, 1, 30, 0
1, 4019760, Note_on_c, 1, 25, 40
1, 4020000, Note_off_c, 1, 25, 0
1, 4020000, Note_on_c, 1, 29, 40
1, 4020240, Note_off_c, 1, 29, 0
1, 4020240, Note_on_c, 1, 32, 40
1, 4020480, Note_off_c, 1, 32, 0
1, 4020480, Note_on_c, 1, 25, 40
1, 4020720, Note_off_c, 1, 25, 0
1, 4020720, Note_on_c, 1, 42, 40
1, 4021200, Note_off_c, 1, 42, 0
1, 4021200, Note_on_c, 1, 42, 40
1, 4021680, Note_off_c, 1, 42, 0
1, 4021680, Note_on_c, 1, 42, 40
1, 4021920, Note_off_c, 1, 42, 0
1, 4021920, Note_on_c, 1, 42, 40
1, 4022640, Note_off_c, 1, 42, 0
1, 4022640, Note_on_c, 1, 42, 40
1, 4023120, Note_off_c, 1, 42, 0
1, 4023120, Note_on_c, 1, 42, 40
1, 4023600, Note_off_c, 1, 42, 0
1, 4023840, Note_on_c, 1, 42, 40
1, 4024080, Note_off_c, 1, 42, 0
1, 4024080, Note_on_c, 1, 42, 40
1, 4024320, Note_off_c, 1, 42, 0
1, 4024320, Note_on_c, 1, 34, 40
1, 4024560, Note_off_c, 1, 34, 0
1, 4024560, Note_on_c, 1, 35, 40
1, 4025040, Note_off_c, 1, 35, 0
1, 4025040, Note_on_c, 1, 35, 40
1, 4025520, Note_off_c, 1, 35, 0
1, 4025760, Note_on_c, 1, 37, 40
1, 4026000, Note_off_c, 1, 37, 0
1, 4026000, Note_on_c, 1, 35, 40
1, 4026240, Note_off_c, 1, 35, 0
1, 4026240, Note_on_c, 1, 32, 40
1, 4026720, Note_off_c, 1, 32, 0
1, 4026720, Note_on_c, 1, 32, 40
1, 4026960, Note_off_c, 1, 32, 0
1, 4026960, Note_on_c, 1, 32, 40
1, 4027200, Note_off_c, 1, 32, 0
1, 4027200, Note_on_c, 1, 32, 40
1, 4027440, Note_off_c, 1, 32, 0
1, 4027440, Note_on_c, 1, 32, 40
1, 4027680, Note_off_c, 1, 32, 0
1, 4027680, Note_on_c, 1, 32, 40
1, 4027920, Note_off_c, 1, 32, 0
1, 4027920, Note_on_c, 1, 34, 40
1, 4028160, Note_off_c, 1, 34, 0
1, 4028160, Note_on_c, 1, 36, 40
1, 4028400, Note_off_c, 1, 36, 0
1, 4028400, Note_on_c, 1, 30, 40
1, 4028640, Note_off_c, 1, 30, 0
1, 4028640, Note_on_c, 1, 30, 40
1, 4028880, Note_off_c, 1, 30, 0
1, 4028880, Note_on_c, 1, 30, 40
1, 4029120, Note_off_c, 1, 30, 0
1, 4029120, Note_on_c, 1, 32, 40
1, 4029360, Note_off_c, 1, 32, 0
1, 4029360, Note_on_c, 1, 34, 40
1, 4029600, Note_off_c, 1, 34, 0
1, 4029600, Note_on_c, 1, 37, 40
1, 4029840, Note_off_c, 1, 37, 0
1, 4029840, Note_on_c, 1, 39, 40
1, 4030080, Note_off_c, 1, 39, 0
1, 4030080, Note_on_c, 1, 42, 40
1, 4030320, Note_off_c, 1, 42, 0
1, 4030320, Note_on_c, 1, 35, 40
1, 4031040, Note_off_c, 1, 35, 0
1, 4031040, Note_on_c, 1, 34, 40
1, 4031760, Note_off_c, 1, 34, 0
1, 4031760, Note_on_c, 1, 32, 40
1, 4032480, Note_off_c, 1, 32, 0
1, 4032480, Note_on_c, 1, 30, 40
1, 4033200, Note_off_c, 1, 30, 0
1, 4033200, Note_on_c, 1, 25, 40
1, 4033440, Note_off_c, 1, 25, 0
1, 4033440, Note_on_c, 1, 29, 40
1, 4033680, Note_off_c, 1, 29, 0
1, 4033680, Note_on_c, 1, 32, 40
1, 4033920, Note_off_c, 1, 32, 0
1, 4033920, Note_on_c, 1, 25, 40
1, 4034160, Note_off_c, 1, 25, 0
1, 4034160, Note_on_c, 1, 42, 40
1, 4034640, Note_off_c, 1, 42, 0
1, 4034640, Note_on_c, 1, 42, 40
1, 4034880, Note_off_c, 1, 42, 0
1, 4034880, Note_on_c, 1, 39, 40
1, 4035360, Note_off_c, 1, 39, 0
1, 4035360, Note_on_c, 1, 37, 40
1, 4035600, Note_off_c, 1, 37, 0
1, 4035600, Note_on_c, 1, 34, 40
1, 4036080, Note_off_c, 1, 34, 0
1, 4036080, Note_on_c, 1, 35, 40
1, 4036800, Note_off_c, 1, 35, 0
1, 4036800, Note_on_c, 1, 34, 40
1, 4037520, Note_off_c, 1, 34, 0
1, 4037520, Note_on_c, 1, 32, 40
1, 4038240, Note_off_c, 1, 32, 0
1, 4038240, Note_on_c, 1, 30, 40
1, 4038960, Note_off_c, 1, 30, 0
1, 4038960, Note_on_c, 1, 25, 40
1, 4039200, Note_off_c, 1, 25, 0
1, 4039200, Note_on_c, 1, 29, 40
1, 4039440, Note_off_c, 1, 29, 0
1, 4039440, Note_on_c, 1, 32, 40
1, 4039680, Note_off_c, 1, 32, 0
1, 4039680, Note_on_c, 1, 25, 40
1, 4039920, Note_off_c, 1, 25, 0
1, 4047600, Note_on_c, 1, 35, 40
1, 4047720, Note_off_c, 1, 35, 0
1, 4047840, Note_on_c, 1, 35, 40
1, 4048080, Note_off_c, 1, 35, 0
1, 4048080, Note_on_c, 1, 38, 40
1, 4048320, Note_off_c, 1, 38, 0
1, 4048320, Note_on_c, 1, 35, 40
1, 4048440, Note_off_c, 1, 35, 0
1, 4048440, Note_on_c, 1, 40, 40
1, 4048680, Note_off_c, 1, 40, 0
1, 4048680, Note_on_c, 1, 35, 40
1, 4048800, Note_off_c, 1, 35, 0
1, 4048800, Note_on_c, 1, 41, 40
1, 4049280, Note_off_c, 1, 41, 0
1, 4049280, Note_on_c, 1, 42, 40
1, 4049520, Note_off_c, 1, 42, 0
1, 4049520, Note_on_c, 1, 35, 40
1, 4049640, Note_off_c, 1, 35, 0
1, 4049760, Note_on_c, 1, 35, 40
1, 4050000, Note_off_c, 1, 35, 0
1, 4050000, Note_on_c, 1, 38, 40
1, 4050240, Note_off_c, 1, 38, 0
1, 4050240, Note_on_c, 1, 35, 40
1, 4050360, Note_off_c, 1, 35, 0
1, 4050360, Note_on_c, 1, 42, 40
1, 4050600, Note_off_c, 1, 42, 0
1, 4050600, Note_on_c, 1, 35, 40
1, 4050720, Note_off_c, 1, 35, 0
1, 4050720, Note_on_c, 1, 41, 40
1, 4051200, Note_off_c, 1, 41, 0
1, 4051200, Note_on_c, 1, 40, 40
1, 4051440, Note_off_c, 1, 40, 0
1, 4051440, Note_on_c, 1, 35, 40
1, 4051560, Note_off_c, 1, 35, 0
1, 4051680, Note_on_c, 1, 35, 40
1, 4051800, Note_off_c, 1, 35, 0
1, 4051920, Note_on_c, 1, 35, 40
1, 4052040, Note_off_c, 1, 35, 0
1, 4052160, Note_on_c, 1, 35, 40
1, 4052280, Note_off_c, 1, 35, 0
1, 4052280, Note_on_c, 1, 35, 40
1, 4052400, Note_off_c, 1, 35, 0
1, 4052520, Note_on_c, 1, 35, 40
1, 4052640, Note_off_c, 1, 35, 0
1, 4052640, Note_on_c, 1, 33, 40
1, 4052760, Note_off_c, 1, 33, 0
1, 4052880, Note_on_c, 1, 32, 40
1, 4053000, Note_off_c, 1, 32, 0
1, 4053120, Note_on_c, 1, 31, 40
1, 4053240, Note_off_c, 1, 31, 0
1, 4053360, Note_on_c, 1, 30, 40
1, 4053480, Note_off_c, 1, 30, 0
1, 4053600, Note_on_c, 1, 30, 40
1, 4053720, Note_off_c, 1, 30, 0
1, 4053840, Note_on_c, 1, 30, 40
1, 4054080, Note_off_c, 1, 30, 0
1, 4054080, Note_on_c, 1, 32, 40
1, 4054200, Note_off_c, 1, 32, 0
1, 4054200, Note_on_c, 1, 33, 40
1, 4054440, Note_off_c, 1, 33, 0
1, 4054440, Note_on_c, 1, 32, 40
1, 4054560, Note_off_c, 1, 32, 0
1, 4054560, Note_on_c, 1, 33, 40
1, 4054680, Note_off_c, 1, 33, 0
1, 4054800, Note_on_c, 1, 37, 40
1, 4055040, Note_off_c, 1, 37, 0
1, 4055040, Note_on_c, 1, 40, 40
1, 4055280, Note_off_c, 1, 40, 0
1, 4055280, Note_on_c, 1, 35, 40
1, 4055400, Note_off_c, 1, 35, 0
1, 4055520, Note_on_c, 1, 35, 40
1, 4055640, Note_off_c, 1, 35, 0
1, 4055760, Note_on_c, 1, 35, 40
1, 4055880, Note_off_c, 1, 35, 0
1, 4056000, Note_on_c, 1, 35, 40
1, 4056120, Note_off_c, 1, 35, 0
1, 4056120, Note_on_c, 1, 35, 40
1, 4056240, Note_off_c, 1, 35, 0
1, 4056360, Note_on_c, 1, 35, 40
1, 4056480, Note_off_c, 1, 35, 0
1, 4056480, Note_on_c, 1, 33, 40
1, 4056600, Note_off_c, 1, 33, 0
1, 4056720, Note_on_c, 1, 32, 40
1, 4056840, Note_off_c, 1, 32, 0
1, 4056960, Note_on_c, 1, 31, 40
1, 4057080, Note_off_c, 1, 31, 0
1, 4057200, Note_on_c, 1, 30, 40
1, 4057320, Note_off_c, 1, 30, 0
1, 4057440, Note_on_c, 1, 30, 40
1, 4057680, Note_off_c, 1, 30, 0
1, 4057680, Note_on_c, 1, 32, 40
1, 4057800, Note_off_c, 1, 32, 0
1, 4057920, Note_on_c, 1, 33, 40
1, 4058040, Note_off_c, 1, 33, 0
1, 4058040, Note_on_c, 1, 37, 40
1, 4058280, Note_off_c, 1, 37, 0
1, 4058280, Note_on_c, 1, 35, 40
1, 4058400, Note_off_c, 1, 35, 0
1, 4058400, Note_on_c, 1, 33, 40
1, 4058640, Note_off_c, 1, 33, 0
1, 4058640, Note_on_c, 1, 37, 40
1, 4058880, Note_off_c, 1, 37, 0
1, 4058880, Note_on_c, 1, 40, 40
1, 4059000, Note_off_c, 1, 40, 0
1, 4059120, Note_on_c, 1, 45, 40
1, 4059240, Note_off_c, 1, 45, 0
1, 4059360, Note_on_c, 1, 45, 40
1, 4059600, Note_off_c, 1, 45, 0
1, 4059600, Note_on_c, 1, 40, 40
1, 4059840, Note_off_c, 1, 40, 0
1, 4059840, Note_on_c, 1, 45, 40
1, 4059960, Note_off_c, 1, 45, 0
1, 4060080, Note_on_c, 1, 42, 40
1, 4060200, Note_off_c, 1, 42, 0
1, 4060320, Note_on_c, 1, 42, 40
1, 4060560, Note_off_c, 1, 42, 0
1, 4060560, Note_on_c, 1, 37, 40
1, 4060800, Note_off_c, 1, 37, 0
1, 4060800, Note_on_c, 1, 42, 40
1, 4060920, Note_off_c, 1, 42, 0
1, 4061040, Note_on_c, 1, 40, 40
1, 4061160, Note_off_c, 1, 40, 0
1, 4061280, Note_on_c, 1, 40, 40
1, 4061400, Note_off_c, 1, 40, 0
1, 4061520, Note_on_c, 1, 40, 40
1, 4061760, Note_off_c, 1, 40, 0
1, 4061760, Note_on_c, 1, 42, 40
1, 4061880, Note_off_c, 1, 42, 0
1, 4061880, Note_on_c, 1, 44, 40
1, 4062000, Note_off_c, 1, 44, 0
1, 4062120, Note_on_c, 1, 42, 40
1, 4062240, Note_off_c, 1, 42, 0
1, 4062240, Note_on_c, 1, 40, 40
1, 4062480, Note_off_c, 1, 40, 0
1, 4062480, Note_on_c, 1, 42, 40
1, 4062600, Note_off_c, 1, 42, 0
1, 4062600, Note_on_c, 1, 40, 40
1, 4062720, Note_off_c, 1, 40, 0
1, 4062720, Note_on_c, 1, 44, 40
1, 4062960, Note_off_c, 1, 44, 0
1, 4062960, Note_on_c, 1, 45, 40
1, 4063080, Note_off_c, 1, 45, 0
1, 4063200, Note_on_c, 1, 45, 40
1, 4063440, Note_off_c, 1, 45, 0
1, 4063440, Note_on_c, 1, 40, 40
1, 4063680, Note_off_c, 1, 40, 0
1, 4063680, Note_on_c, 1, 45, 40
1, 4063800, Note_off_c, 1, 45, 0
1, 4063920, Note_on_c, 1, 42, 40
1, 4064040, Note_off_c, 1, 42, 0
1, 4064160, Note_on_c, 1, 42, 40
1, 4064400, Note_off_c, 1, 42, 0
1, 4064400, Note_on_c, 1, 37, 40
1, 4064640, Note_off_c, 1, 37, 0
1, 4064640, Note_on_c, 1, 42, 40
1, 4064760, Note_off_c, 1, 42, 0
1, 4064880, Note_on_c, 1, 35, 40
1, 4065000, Note_off_c, 1, 35, 0
1, 4065120, Note_on_c, 1, 35, 40
1, 4065360, Note_off_c, 1, 35, 0
1, 4065360, Note_on_c, 1, 42, 40
1, 4065480, Note_off_c, 1, 42, 0
1, 4065600, Note_on_c, 1, 42, 40
1, 4065840, Note_off_c, 1, 42, 0
1, 4065840, Note_on_c, 1, 35, 40
1, 4065960, Note_off_c, 1, 35, 0
1, 4066080, Note_on_c, 1, 35, 40
1, 4066320, Note_off_c, 1, 35, 0
1, 4066320, Note_on_c, 1, 42, 40
1, 4066440, Note_off_c, 1, 42, 0
1, 4066560, Note_on_c, 1, 42, 40
1, 4066800, Note_off_c, 1, 42, 0
1, 4066800, Note_on_c, 1, 35, 40
1, 4066920, Note_off_c, 1, 35, 0
1, 4067040, Note_on_c, 1, 35, 40
1, 4067160, Note_off_c, 1, 35, 0
1, 4067280, Note_on_c, 1, 35, 40
1, 4067400, Note_off_c, 1, 35, 0
1, 4067520, Note_on_c, 1, 35, 40
1, 4067640, Note_off_c, 1, 35, 0
1, 4067640, Note_on_c, 1, 35, 40
1, 4067760, Note_off_c, 1, 35, 0
1, 4067880, Note_on_c, 1, 35, 40
1, 4068000, Note_off_c, 1, 35, 0
1, 4068000, Note_on_c, 1, 33, 40
1, 4068120, Note_off_c, 1, 33, 0
1, 4068240, Note_on_c, 1, 32, 40
1, 4068360, Note_off_c, 1, 32, 0
1, 4068480, Note_on_c, 1, 31, 40
1, 4068600, Note_off_c, 1, 31, 0
1, 4068720, Note_on_c, 1, 30, 40
1, 4068840, Note_off_c, 1, 30, 0
1, 4068960, Note_on_c, 1, 30, 40
1, 4069080, Note_off_c, 1, 30, 0
1, 4069200, Note_on_c, 1, 30, 40
1, 4069440, Note_off_c, 1, 30, 0
1, 4069440, Note_on_c, 1, 32, 40
1, 4069560, Note_off_c, 1, 32, 0
1, 4069560, Note_on_c, 1, 33, 40
1, 4069800, Note_off_c, 1, 33, 0
1, 4069800, Note_on_c, 1, 32, 40
1, 4069920, Note_off_c, 1, 32, 0
1, 4069920, Note_on_c, 1, 33, 40
1, 4070040, Note_off_c, 1, 33, 0
1, 4070160, Note_on_c, 1, 37, 40
1, 4070400, Note_off_c, 1, 37, 0
1, 4070400, Note_on_c, 1, 40, 40
1, 4070640, Note_off_c, 1, 40, 0
1, 4070640, Note_on_c, 1, 35, 40
1, 4070760, Note_off_c, 1, 35, 0
1, 4070880, Note_on_c, 1, 35, 40
1, 4071000, Note_off_c, 1, 35, 0
1, 4071120, Note_on_c, 1, 35, 40
1, 4071240, Note_off_c, 1, 35, 0
1, 4071360, Note_on_c, 1, 35, 40
1, 4071480, Note_off_c, 1, 35, 0
1, 4071480, Note_on_c, 1, 35, 40
1, 4071600, Note_off_c, 1, 35, 0
1, 4071720, Note_on_c, 1, 35, 40
1, 4071840, Note_off_c, 1, 35, 0
1, 4071840, Note_on_c, 1, 33, 40
1, 4071960, Note_off_c, 1, 33, 0
1, 4072080, Note_on_c, 1, 32, 40
1, 4072200, Note_off_c, 1, 32, 0
1, 4072320, Note_on_c, 1, 31, 40
1, 4072440, Note_off_c, 1, 31, 0
1, 4072560, Note_on_c, 1, 30, 40
1, 4072680, Note_off_c, 1, 30, 0
1, 4072800, Note_on_c, 1, 30, 40
1, 4073040, Note_off_c, 1, 30, 0
1, 4073040, Note_on_c, 1, 32, 40
1, 4073160, Note_off_c, 1, 32, 0
1, 4073280, Note_on_c, 1, 33, 40
1, 4073400, Note_off_c, 1, 33, 0
1, 4073400, Note_on_c, 1, 37, 40
1, 4073640, Note_off_c, 1, 37, 0
1, 4073640, Note_on_c, 1, 35, 40
1, 4073760, Note_off_c, 1, 35, 0
1, 4073760, Note_on_c, 1, 33, 40
1, 4074000, Note_off_c, 1, 33, 0
1, 4074000, Note_on_c, 1, 37, 40
1, 4074240, Note_off_c, 1, 37, 0
1, 4074240, Note_on_c, 1, 40, 40
1, 4074360, Note_off_c, 1, 40, 0
1, 4074480, Note_on_c, 1, 45, 40
1, 4074600, Note_off_c, 1, 45, 0
1, 4074720, Note_on_c, 1, 45, 40
1, 4074960, Note_off_c, 1, 45, 0
1, 4074960, Note_on_c, 1, 40, 40
1, 4075200, Note_off_c, 1, 40, 0
1, 4075200, Note_on_c, 1, 45, 40
1, 4075320, Note_off_c, 1, 45, 0
1, 4075440, Note_on_c, 1, 42, 40
1, 4075560, Note_off_c, 1, 42, 0
1, 4075680, Note_on_c, 1, 42, 40
1, 4075920, Note_off_c, 1, 42, 0
1, 4075920, Note_on_c, 1, 37, 40
1, 4076160, Note_off_c, 1, 37, 0
1, 4076160, Note_on_c, 1, 42, 40
1, 4076280, Note_off_c, 1, 42, 0
1, 4076400, Note_on_c, 1, 40, 40
1, 4076520, Note_off_c, 1, 40, 0
1, 4076640, Note_on_c, 1, 40, 40
1, 4076760, Note_off_c, 1, 40, 0
1, 4076880, Note_on_c, 1, 40, 40
1, 4077120, Note_off_c, 1, 40, 0
1, 4077120, Note_on_c, 1, 42, 40
1, 4077240, Note_off_c, 1, 42, 0
1, 4077240, Note_on_c, 1, 44, 40
1, 4077360, Note_off_c, 1, 44, 0
1, 4077480, Note_on_c, 1, 42, 40
1, 4077600, Note_off_c, 1, 42, 0
1, 4077600, Note_on_c, 1, 40, 40
1, 4077840, Note_off_c, 1, 40, 0
1, 4077840, Note_on_c, 1, 42, 40
1, 4077960, Note_off_c, 1, 42, 0
1, 4077960, Note_on_c, 1, 40, 40
1, 4078080, Note_off_c, 1, 40, 0
1, 4078080, Note_on_c, 1, 44, 40
1, 4078320, Note_off_c, 1, 44, 0
1, 4078320, Note_on_c, 1, 45, 40
1, 4078440, Note_off_c, 1, 45, 0
1, 4078560, Note_on_c, 1, 45, 40
1, 4078800, Note_off_c, 1, 45, 0
1, 4078800, Note_on_c, 1, 40, 40
1, 4079040, Note_off_c, 1, 40, 0
1, 4079040, Note_on_c, 1, 45, 40
1, 4079160, Note_off_c, 1, 45, 0
1, 4079280, Note_on_c, 1, 42, 40
1, 4079400, Note_off_c, 1, 42, 0
1, 4079520, Note_on_c, 1, 42, 40
1, 4079760, Note_off_c, 1, 42, 0
1, 4079760, Note_on_c, 1, 37, 40
1, 4080000, Note_off_c, 1, 37, 0
1, 4080000, Note_on_c, 1, 42, 40
1, 4080120, Note_off_c, 1, 42, 0
1, 4080240, Note_on_c, 1, 35, 40
1, 4080360, Note_off_c, 1, 35, 0
1, 4080480, Note_on_c, 1, 35, 40
1, 4080720, Note_off_c, 1, 35, 0
1, 4080720, Note_on_c, 1, 42, 40
1, 4080840, Note_off_c, 1, 42, 0
1, 4080960, Note_on_c, 1, 42, 40
1, 4081200, Note_off_c, 1, 42, 0
1, 4081200, Note_on_c, 1, 35, 40
1, 4081320, Note_off_c, 1, 35, 0
1, 4081440, Note_on_c, 1, 35, 40
1, 4081680, Note_off_c, 1, 35, 0
1, 4081680, Note_on_c, 1, 42, 40
1, 4081800, Note_off_c, 1, 42, 0
1, 4081920, Note_on_c, 1, 42, 40
1, 4082160, Note_off_c, 1, 42, 0
1, 4082160, Note_on_c, 1, 35, 40
1, 4082280, Note_off_c, 1, 35, 0
1, 4082400, Note_on_c, 1, 35, 40
1, 4082880, Note_off_c, 1, 35, 0
1, 4082880, Note_on_c, 1, 30, 40
1, 4083120, Note_off_c, 1, 30, 0
1, 4083120, Note_on_c, 1, 35, 40
1, 4083240, Note_off_c, 1, 35, 0
1, 4083360, Note_on_c, 1, 35, 40
1, 4083840, Note_off_c, 1, 35, 0
1, 4083840, Note_on_c, 1, 30, 40
1, 4084080, Note_off_c, 1, 30, 0
1, 4084080, Note_on_c, 1, 35, 40
1, 4084200, Note_off_c, 1, 35, 0
1, 4084320, Note_on_c, 1, 35, 40
1, 4084800, Note_off_c, 1, 35, 0
1, 4084800, Note_on_c, 1, 30, 40
1, 4085040, Note_off_c, 1, 30, 0
1, 4085040, Note_on_c, 1, 35, 40
1, 4085280, Note_off_c, 1, 35, 0
1, 4085280, Note_on_c, 1, 30, 40
1, 4085520, Note_off_c, 1, 30, 0
1, 4085520, Note_on_c, 1, 35, 40
1, 4085880, Note_off_c, 1, 35, 0
1, 4086000, Note_on_c, 1, 40, 40
1, 4086120, Note_off_c, 1, 40, 0
1, 4086240, Note_on_c, 1, 40, 40
1, 4086720, Note_off_c, 1, 40, 0
1, 4086720, Note_on_c, 1, 35, 40
1, 4086960, Note_off_c, 1, 35, 0
1, 4086960, Note_on_c, 1, 40, 40
1, 4087080, Note_off_c, 1, 40, 0
1, 4087200, Note_on_c, 1, 40, 40
1, 4087800, Note_off_c, 1, 40, 0
1, 4087920, Note_on_c, 1, 40, 40
1, 4088040, Note_off_c, 1, 40, 0
1, 4088160, Note_on_c, 1, 40, 40
1, 4088640, Note_off_c, 1, 40, 0
1, 4088640, Note_on_c, 1, 35, 40
1, 4088880, Note_off_c, 1, 35, 0
1, 4088880, Note_on_c, 1, 40, 40
1, 4089120, Note_off_c, 1, 40, 0
1, 4089120, Note_on_c, 1, 35, 40
1, 4089360, Note_off_c, 1, 35, 0
1, 4089360, Note_on_c, 1, 40, 40
1, 4089720, Note_off_c, 1, 40, 0
1, 4089840, Note_on_c, 1, 35, 40
1, 4089960, Note_off_c, 1, 35, 0
1, 4090080, Note_on_c, 1, 35, 40
1, 4090440, Note_off_c, 1, 35, 0
1, 4090560, Note_on_c, 1, 35, 40
1, 4090680, Note_off_c, 1, 35, 0
1, 4090680, Note_on_c, 1, 38, 40
1, 4090800, Note_off_c, 1, 38, 0
1, 4090800, Note_on_c, 1, 40, 40
1, 4090920, Note_off_c, 1, 40, 0
1, 4091040, Note_on_c, 1, 40, 40
1, 4091160, Note_off_c, 1, 40, 0
1, 4091280, Note_on_c, 1, 40, 40
1, 4091520, Note_off_c, 1, 40, 0
1, 4091520, Note_on_c, 1, 38, 40
1, 4091640, Note_off_c, 1, 38, 0
1, 4091760, Note_on_c, 1, 35, 40
1, 4091880, Note_off_c, 1, 35, 0
1, 4092000, Note_on_c, 1, 35, 40
1, 4092240, Note_off_c, 1, 35, 0
1, 4092240, Note_on_c, 1, 38, 40
1, 4092480, Note_off_c, 1, 38, 0
1, 4092480, Note_on_c, 1, 35, 40
1, 4092600, Note_off_c, 1, 35, 0
1, 4092600, Note_on_c, 1, 40, 40
1, 4092840, Note_off_c, 1, 40, 0
1, 4092840, Note_on_c, 1, 35, 40
1, 4092960, Note_off_c, 1, 35, 0
1, 4092960, Note_on_c, 1, 41, 40
1, 4093440, Note_off_c, 1, 41, 0
1, 4093440, Note_on_c, 1, 42, 40
1, 4093680, Note_off_c, 1, 42, 0
1, 4093680, Note_on_c, 1, 35, 40
1, 4093800, Note_off_c, 1, 35, 0
1, 4093920, Note_on_c, 1, 35, 40
1, 4094160, Note_off_c, 1, 35, 0
1, 4094160, Note_on_c, 1, 38, 40
1, 4094400, Note_off_c, 1, 38, 0
1, 4094400, Note_on_c, 1, 35, 40
1, 4094520, Note_off_c, 1, 35, 0
1, 4094520, Note_on_c, 1, 42, 40
1, 4094760, Note_off_c, 1, 42, 0
1, 4094760, Note_on_c, 1, 35, 40
1, 4094880, Note_off_c, 1, 35, 0
1, 4094880, Note_on_c, 1, 41, 40
1, 4095360, Note_off_c, 1, 41, 0
1, 4095360, Note_on_c, 1, 40, 40
1, 4095600, Note_off_c, 1, 40, 0
1, 4095600, Note_on_c, 1, 35, 40
1, 4095720, Note_off_c, 1, 35, 0
1, 4095840, Note_on_c, 1, 35, 40
1, 4096080, Note_off_c, 1, 35, 0
1, 4096080, Note_on_c, 1, 38, 40
1, 4096320, Note_off_c, 1, 38, 0
1, 4096320, Note_on_c, 1, 35, 40
1, 4096440, Note_off_c, 1, 35, 0
1, 4096440, Note_on_c, 1, 40, 40
1, 4096680, Note_off_c, 1, 40, 0
1, 4096680, Note_on_c, 1, 35, 40
1, 4096800, Note_off_c, 1, 35, 0
1, 4096800, Note_on_c, 1, 41, 40
1, 4097280, Note_off_c, 1, 41, 0
1, 4097280, Note_on_c, 1, 42, 40
1, 4097520, Note_off_c, 1, 42, 0
1, 4097520, Note_on_c, 1, 35, 40
1, 4097640, Note_off_c, 1, 35, 0
1, 4097760, Note_on_c, 1, 35, 40
1, 4098000, Note_off_c, 1, 35, 0
1, 4098000, Note_on_c, 1, 38, 40
1, 4098240, Note_off_c, 1, 38, 0
1, 4098240, Note_on_c, 1, 35, 40
1, 4098360, Note_off_c, 1, 35, 0
1, 4098360, Note_on_c, 1, 42, 40
1, 4098600, Note_off_c, 1, 42, 0
1, 4098600, Note_on_c, 1, 35, 40
1, 4098720, Note_off_c, 1, 35, 0
1, 4098720, Note_on_c, 1, 41, 40
1, 4099200, Note_off_c, 1, 41, 0
1, 4099200, Note_on_c, 1, 40, 40
1, 4099440, Note_off_c, 1, 40, 0
1, 4099440, Note_on_c, 1, 35, 40
1, 4099560, Note_off_c, 1, 35, 0
1, 4099680, Note_on_c, 1, 35, 40
1, 4099800, Note_off_c, 1, 35, 0
1, 4099920, Note_on_c, 1, 35, 40
1, 4100040, Note_off_c, 1, 35, 0
1, 4100160, Note_on_c, 1, 35, 40
1, 4100280, Note_off_c, 1, 35, 0
1, 4100280, Note_on_c, 1, 35, 40
1, 4100400, Note_off_c, 1, 35, 0
1, 4100520, Note_on_c, 1, 35, 40
1, 4100640, Note_off_c, 1, 35, 0
1, 4100640, Note_on_c, 1, 33, 40
1, 4100760, Note_off_c, 1, 33, 0
1, 4100880, Note_on_c, 1, 32, 40
1, 4101000, Note_off_c, 1, 32, 0
1, 4101120, Note_on_c, 1, 31, 40
1, 4101240, Note_off_c, 1, 31, 0
1, 4101360, Note_on_c, 1, 30, 40
1, 4101480, Note_off_c, 1, 30, 0
1, 4101600, Note_on_c, 1, 30, 40
1, 4101720, Note_off_c, 1, 30, 0
1, 4101840, Note_on_c, 1, 30, 40
1, 4102080, Note_off_c, 1, 30, 0
1, 4102080, Note_on_c, 1, 32, 40
1, 4102200, Note_off_c, 1, 32, 0
1, 4102200, Note_on_c, 1, 33, 40
1, 4102440, Note_off_c, 1, 33, 0
1, 4102440, Note_on_c, 1, 32, 40
1, 4102560, Note_off_c, 1, 32, 0
1, 4102560, Note_on_c, 1, 33, 40
1, 4102680, Note_off_c, 1, 33, 0
1, 4102800, Note_on_c, 1, 37, 40
1, 4103040, Note_off_c, 1, 37, 0
1, 4103040, Note_on_c, 1, 40, 40
1, 4103280, Note_off_c, 1, 40, 0
1, 4103280, Note_on_c, 1, 35, 40
1, 4103400, Note_off_c, 1, 35, 0
1, 4103520, Note_on_c, 1, 35, 40
1, 4103640, Note_off_c, 1, 35, 0
1, 4103760, Note_on_c, 1, 35, 40
1, 4103880, Note_off_c, 1, 35, 0
1, 4104000, Note_on_c, 1, 35, 40
1, 4104120, Note_off_c, 1, 35, 0
1, 4104120, Note_on_c, 1, 35, 40
1, 4104240, Note_off_c, 1, 35, 0
1, 4104360, Note_on_c, 1, 35, 40
1, 4104480, Note_off_c, 1, 35, 0
1, 4104480, Note_on_c, 1, 33, 40
1, 4104600, Note_off_c, 1, 33, 0
1, 4104720, Note_on_c, 1, 32, 40
1, 4104840, Note_off_c, 1, 32, 0
1, 4104960, Note_on_c, 1, 31, 40
1, 4105080, Note_off_c, 1, 31, 0
1, 4105200, Note_on_c, 1, 30, 40
1, 4105320, Note_off_c, 1, 30, 0
1, 4105440, Note_on_c, 1, 30, 40
1, 4105680, Note_off_c, 1, 30, 0
1, 4105680, Note_on_c, 1, 32, 40
1, 4105800, Note_off_c, 1, 32, 0
1, 4105920, Note_on_c, 1, 33, 40
1, 4106040, Note_off_c, 1, 33, 0
1, 4106040, Note_on_c, 1, 37, 40
1, 4106280, Note_off_c, 1, 37, 0
1, 4106280, Note_on_c, 1, 35, 40
1, 4106400, Note_off_c, 1, 35, 0
1, 4106400, Note_on_c, 1, 33, 40
1, 4106640, Note_off_c, 1, 33, 0
1, 4106640, Note_on_c, 1, 37, 40
1, 4106880, Note_off_c, 1, 37, 0
1, 4106880, Note_on_c, 1, 40, 40
1, 4107000, Note_off_c, 1, 40, 0
1, 4107120, Note_on_c, 1, 45, 40
1, 4107240, Note_off_c, 1, 45, 0
1, 4107360, Note_on_c, 1, 45, 40
1, 4107600, Note_off_c, 1, 45, 0
1, 4107600, Note_on_c, 1, 40, 40
1, 4107840, Note_off_c, 1, 40, 0
1, 4107840, Note_on_c, 1, 45, 40
1, 4107960, Note_off_c, 1, 45, 0
1, 4108080, Note_on_c, 1, 42, 40
1, 4108200, Note_off_c, 1, 42, 0
1, 4108320, Note_on_c, 1, 42, 40
1, 4108560, Note_off_c, 1, 42, 0
1, 4108560, Note_on_c, 1, 37, 40
1, 4108800, Note_off_c, 1, 37, 0
1, 4108800, Note_on_c, 1, 42, 40
1, 4108920, Note_off_c, 1, 42, 0
1, 4109040, Note_on_c, 1, 40, 40
1, 4109160, Note_off_c, 1, 40, 0
1, 4109280, Note_on_c, 1, 40, 40
1, 4109400, Note_off_c, 1, 40, 0
1, 4109520, Note_on_c, 1, 40, 40
1, 4109760, Note_off_c, 1, 40, 0
1, 4109760, Note_on_c, 1, 42, 40
1, 4109880, Note_off_c, 1, 42, 0
1, 4109880, Note_on_c, 1, 44, 40
1, 4110000, Note_off_c, 1, 44, 0
1, 4110120, Note_on_c, 1, 42, 40
1, 4110240, Note_off_c, 1, 42, 0
1, 4110240, Note_on_c, 1, 40, 40
1, 4110480, Note_off_c, 1, 40, 0
1, 4110480, Note_on_c, 1, 42, 40
1, 4110600, Note_off_c, 1, 42, 0
1, 4110600, Note_on_c, 1, 40, 40
1, 4110720, Note_off_c, 1, 40, 0
1, 4110720, Note_on_c, 1, 44, 40
1, 4110960, Note_off_c, 1, 44, 0
1, 4110960, Note_on_c, 1, 45, 40
1, 4111080, Note_off_c, 1, 45, 0
1, 4111200, Note_on_c, 1, 45, 40
1, 4111440, Note_off_c, 1, 45, 0
1, 4111440, Note_on_c, 1, 40, 40
1, 4111680, Note_off_c, 1, 40, 0
1, 4111680, Note_on_c, 1, 45, 40
1, 4111800, Note_off_c, 1, 45, 0
1, 4111920, Note_on_c, 1, 42, 40
1, 4112040, Note_off_c, 1, 42, 0
1, 4112160, Note_on_c, 1, 42, 40
1, 4112400, Note_off_c, 1, 42, 0
1, 4112400, Note_on_c, 1, 37, 40
1, 4112640, Note_off_c, 1, 37, 0
1, 4112640, Note_on_c, 1, 42, 40
1, 4112760, Note_off_c, 1, 42, 0
1, 4112880, Note_on_c, 1, 35, 40
1, 4113000, Note_off_c, 1, 35, 0
1, 4113120, Note_on_c, 1, 35, 40
1, 4113360, Note_off_c, 1, 35, 0
1, 4113360, Note_on_c, 1, 42, 40
1, 4113480, Note_off_c, 1, 42, 0
1, 4113600, Note_on_c, 1, 42, 40
1, 4113840, Note_off_c, 1, 42, 0
1, 4113840, Note_on_c, 1, 35, 40
1, 4113960, Note_off_c, 1, 35, 0
1, 4114080, Note_on_c, 1, 35, 40
1, 4114320, Note_off_c, 1, 35, 0
1, 4114320, Note_on_c, 1, 42, 40
1, 4114440, Note_off_c, 1, 42, 0
1, 4114560, Note_on_c, 1, 42, 40
1, 4114800, Note_off_c, 1, 42, 0
1, 4114800, Note_on_c, 1, 35, 40
1, 4114920, Note_off_c, 1, 35, 0
1, 4115040, Note_on_c, 1, 35, 40
1, 4115160, Note_off_c, 1, 35, 0
1, 4115280, Note_on_c, 1, 35, 40
1, 4115400, Note_off_c, 1, 35, 0
1, 4115520, Note_on_c, 1, 35, 40
1, 4115640, Note_off_c, 1, 35, 0
1, 4115640, Note_on_c, 1, 35, 40
1, 4115760, Note_off_c, 1, 35, 0
1, 4115880, Note_on_c, 1, 35, 40
1, 4116000, Note_off_c, 1, 35, 0
1, 4116000, Note_on_c, 1, 33, 40
1, 4116120, Note_off_c, 1, 33, 0
1, 4116240, Note_on_c, 1, 32, 40
1, 4116360, Note_off_c, 1, 32, 0
1, 4116480, Note_on_c, 1, 31, 40
1, 4116600, Note_off_c, 1, 31, 0
1, 4116720, Note_on_c, 1, 30, 40
1, 4116840, Note_off_c, 1, 30, 0
1, 4116960, Note_on_c, 1, 30, 40
1, 4117080, Note_off_c, 1, 30, 0
1, 4117200, Note_on_c, 1, 30, 40
1, 4117440, Note_off_c, 1, 30, 0
1, 4117440, Note_on_c, 1, 32, 40
1, 4117560, Note_off_c, 1, 32, 0
1, 4117560, Note_on_c, 1, 33, 40
1, 4117800, Note_off_c, 1, 33, 0
1, 4117800, Note_on_c, 1, 32, 40
1, 4117920, Note_off_c, 1, 32, 0
1, 4117920, Note_on_c, 1, 33, 40
1, 4118040, Note_off_c, 1, 33, 0
1, 4118160, Note_on_c, 1, 37, 40
1, 4118400, Note_off_c, 1, 37, 0
1, 4118400, Note_on_c, 1, 40, 40
1, 4118640, Note_off_c, 1, 40, 0
1, 4118640, Note_on_c, 1, 35, 40
1, 4118760, Note_off_c, 1, 35, 0
1, 4118880, Note_on_c, 1, 35, 40
1, 4119000, Note_off_c, 1, 35, 0
1, 4119120, Note_on_c, 1, 35, 40
1, 4119240, Note_off_c, 1, 35, 0
1, 4119360, Note_on_c, 1, 35, 40
1, 4119480, Note_off_c, 1, 35, 0
1, 4119480, Note_on_c, 1, 35, 40
1, 4119600, Note_off_c, 1, 35, 0
1, 4119720, Note_on_c, 1, 35, 40
1, 4119840, Note_off_c, 1, 35, 0
1, 4119840, Note_on_c, 1, 33, 40
1, 4119960, Note_off_c, 1, 33, 0
1, 4120080, Note_on_c, 1, 32, 40
1, 4120200, Note_off_c, 1, 32, 0
1, 4120320, Note_on_c, 1, 31, 40
1, 4120440, Note_off_c, 1, 31, 0
1, 4120560, Note_on_c, 1, 30, 40
1, 4120680, Note_off_c, 1, 30, 0
1, 4120800, Note_on_c, 1, 30, 40
1, 4121040, Note_off_c, 1, 30, 0
1, 4121040, Note_on_c, 1, 32, 40
1, 4121160, Note_off_c, 1, 32, 0
1, 4121280, Note_on_c, 1, 33, 40
1, 4121400, Note_off_c, 1, 33, 0
1, 4121400, Note_on_c, 1, 37, 40
1, 4121640, Note_off_c, 1, 37, 0
1, 4121640, Note_on_c, 1, 35, 40
1, 4121760, Note_off_c, 1, 35, 0
1, 4121760, Note_on_c, 1, 33, 40
1, 4122000, Note_off_c, 1, 33, 0
1, 4122000, Note_on_c, 1, 37, 40
1, 4122240, Note_off_c, 1, 37, 0
1, 4122240, Note_on_c, 1, 40, 40
1, 4122360, Note_off_c, 1, 40, 0
1, 4122480, Note_on_c, 1, 45, 40
1, 4122600, Note_off_c, 1, 45, 0
1, 4122720, Note_on_c, 1, 45, 40
1, 4122960, Note_off_c, 1, 45, 0
1, 4122960, Note_on_c, 1, 40, 40
1, 4123200, Note_off_c, 1, 40, 0
1, 4123200, Note_on_c, 1, 45, 40
1, 4123320, Note_off_c, 1, 45, 0
1, 4123440, Note_on_c, 1, 42, 40
1, 4123560, Note_off_c, 1, 42, 0
1, 4123680, Note_on_c, 1, 42, 40
1, 4123920, Note_off_c, 1, 42, 0
1, 4123920, Note_on_c, 1, 37, 40
1, 4124160, Note_off_c, 1, 37, 0
1, 4124160, Note_on_c, 1, 42, 40
1, 4124280, Note_off_c, 1, 42, 0
1, 4124400, Note_on_c, 1, 40, 40
1, 4124520, Note_off_c, 1, 40, 0
1, 4124640, Note_on_c, 1, 40, 40
1, 4124760, Note_off_c, 1, 40, 0
1, 4124880, Note_on_c, 1, 40, 40
1, 4125120, Note_off_c, 1, 40, 0
1, 4125120, Note_on_c, 1, 42, 40
1, 4125240, Note_off_c, 1, 42, 0
1, 4125240, Note_on_c, 1, 44, 40
1, 4125360, Note_off_c, 1, 44, 0
1, 4125480, Note_on_c, 1, 42, 40
1, 4125600, Note_off_c, 1, 42, 0
1, 4125600, Note_on_c, 1, 40, 40
1, 4125840, Note_off_c, 1, 40, 0
1, 4125840, Note_on_c, 1, 42, 40
1, 4125960, Note_off_c, 1, 42, 0
1, 4125960, Note_on_c, 1, 40, 40
1, 4126080, Note_off_c, 1, 40, 0
1, 4126080, Note_on_c, 1, 44, 40
1, 4126320, Note_off_c, 1, 44, 0
1, 4126320, Note_on_c, 1, 45, 40
1, 4126440, Note_off_c, 1, 45, 0
1, 4126560, Note_on_c, 1, 45, 40
1, 4126800, Note_off_c, 1, 45, 0
1, 4126800, Note_on_c, 1, 40, 40
1, 4127040, Note_off_c, 1, 40, 0
1, 4127040, Note_on_c, 1, 45, 40
1, 4127160, Note_off_c, 1, 45, 0
1, 4127280, Note_on_c, 1, 42, 40
1, 4127400, Note_off_c, 1, 42, 0
1, 4127520, Note_on_c, 1, 42, 40
1, 4127760, Note_off_c, 1, 42, 0
1, 4127760, Note_on_c, 1, 37, 40
1, 4128000, Note_off_c, 1, 37, 0
1, 4128000, Note_on_c, 1, 42, 40
1, 4128120, Note_off_c, 1, 42, 0
1, 4128240, Note_on_c, 1, 35, 40
1, 4128360, Note_off_c, 1, 35, 0
1, 4128480, Note_on_c, 1, 35, 40
1, 4128720, Note_off_c, 1, 35, 0
1, 4128720, Note_on_c, 1, 42, 40
1, 4128840, Note_off_c, 1, 42, 0
1, 4128960, Note_on_c, 1, 42, 40
1, 4129200, Note_off_c, 1, 42, 0
1, 4129200, Note_on_c, 1, 35, 40
1, 4129320, Note_off_c, 1, 35, 0
1, 4129440, Note_on_c, 1, 35, 40
1, 4129680, Note_off_c, 1, 35, 0
1, 4129680, Note_on_c, 1, 42, 40
1, 4129800, Note_off_c, 1, 42, 0
1, 4129920, Note_on_c, 1, 42, 40
1, 4130160, Note_off_c, 1, 42, 0
1, 4130160, Note_on_c, 1, 35, 40
1, 4130280, Note_off_c, 1, 35, 0
1, 4130400, Note_on_c, 1, 35, 40
1, 4130880, Note_off_c, 1, 35, 0
1, 4130880, Note_on_c, 1, 30, 40
1, 4131120, Note_off_c, 1, 30, 0
1, 4131120, Note_on_c, 1, 35, 40
1, 4131240, Note_off_c, 1, 35, 0
1, 4131360, Note_on_c, 1, 35, 40
1, 4131840, Note_off_c, 1, 35, 0
1, 4131840, Note_on_c, 1, 30, 40
1, 4132080, Note_off_c, 1, 30, 0
1, 4132080, Note_on_c, 1, 35, 40
1, 4132200, Note_off_c, 1, 35, 0
1, 4132320, Note_on_c, 1, 35, 40
1, 4132800, Note_off_c, 1, 35, 0
1, 4132800, Note_on_c, 1, 30, 40
1, 4133040, Note_off_c, 1, 30, 0
1, 4133040, Note_on_c, 1, 35, 40
1, 4133280, Note_off_c, 1, 35, 0
1, 4133280, Note_on_c, 1, 30, 40
1, 4133520, Note_off_c, 1, 30, 0
1, 4133520, Note_on_c, 1, 35, 40
1, 4133880, Note_off_c, 1, 35, 0
1, 4134000, Note_on_c, 1, 40, 40
1, 4134120, Note_off_c, 1, 40, 0
1, 4134240, Note_on_c, 1, 40, 40
1, 4134720, Note_off_c, 1, 40, 0
1, 4134720, Note_on_c, 1, 35, 40
1, 4134960, Note_off_c, 1, 35, 0
1, 4134960, Note_on_c, 1, 40, 40
1, 4135080, Note_off_c, 1, 40, 0
1, 4135200, Note_on_c, 1, 40, 40
1, 4135800, Note_off_c, 1, 40, 0
1, 4135920, Note_on_c, 1, 40, 40
1, 4136040, Note_off_c, 1, 40, 0
1, 4136160, Note_on_c, 1, 40, 40
1, 4136640, Note_off_c, 1, 40, 0
1, 4136640, Note_on_c, 1, 35, 40
1, 4136880, Note_off_c, 1, 35, 0
1, 4136880, Note_on_c, 1, 40, 40
1, 4137120, Note_off_c, 1, 40, 0
1, 4137120, Note_on_c, 1, 35, 40
1, 4137360, Note_off_c, 1, 35, 0
1, 4137360, Note_on_c, 1, 40, 40
1, 4137720, Note_off_c, 1, 40, 0
1, 4137840, Note_on_c, 1, 35, 40
1, 4137960, Note_off_c, 1, 35, 0
1, 4138080, Note_on_c, 1, 35, 40
1, 4138440, Note_off_c, 1, 35, 0
1, 4138560, Note_on_c, 1, 35, 40
1, 4138680, Note_off_c, 1, 35, 0
1, 4138680, Note_on_c, 1, 38, 40
1, 4138800, Note_off_c, 1, 38, 0
1, 4138800, Note_on_c, 1, 40, 40
1, 4138920, Note_off_c, 1, 40, 0
1, 4139040, Note_on_c, 1, 40, 40
1, 4139160, Note_off_c, 1, 40, 0
1, 4139280, Note_on_c, 1, 40, 40
1, 4139520, Note_off_c, 1, 40, 0
1, 4139520, Note_on_c, 1, 38, 40
1, 4139640, Note_off_c, 1, 38, 0
1, 4139760, Note_on_c, 1, 35, 40
1, 4139880, Note_off_c, 1, 35, 0
1, 4140000, Note_on_c, 1, 35, 40
1, 4140240, Note_off_c, 1, 35, 0
1, 4140240, Note_on_c, 1, 38, 40
1, 4140480, Note_off_c, 1, 38, 0
1, 4140480, Note_on_c, 1, 35, 40
1, 4140600, Note_off_c, 1, 35, 0
1, 4140600, Note_on_c, 1, 40, 40
1, 4140840, Note_off_c, 1, 40, 0
1, 4140840, Note_on_c, 1, 35, 40
1, 4140960, Note_off_c, 1, 35, 0
1, 4140960, Note_on_c, 1, 41, 40
1, 4141440, Note_off_c, 1, 41, 0
1, 4141440, Note_on_c, 1, 42, 40
1, 4141680, Note_off_c, 1, 42, 0
1, 4141680, Note_on_c, 1, 35, 40
1, 4141800, Note_off_c, 1, 35, 0
1, 4141920, Note_on_c, 1, 35, 40
1, 4142160, Note_off_c, 1, 35, 0
1, 4142160, Note_on_c, 1, 38, 40
1, 4142400, Note_off_c, 1, 38, 0
1, 4142400, Note_on_c, 1, 35, 40
1, 4142520, Note_off_c, 1, 35, 0
1, 4142520, Note_on_c, 1, 42, 40
1, 4142760, Note_off_c, 1, 42, 0
1, 4142760, Note_on_c, 1, 35, 40
1, 4142880, Note_off_c, 1, 35, 0
1, 4142880, Note_on_c, 1, 41, 40
1, 4143360, Note_off_c, 1, 41, 0
1, 4143360, Note_on_c, 1, 40, 40
1, 4143600, Note_off_c, 1, 40, 0
1, 4143600, Note_on_c, 1, 35, 40
1, 4143720, Note_off_c, 1, 35, 0
1, 4143840, Note_on_c, 1, 35, 40
1, 4144080, Note_off_c, 1, 35, 0
1, 4144080, Note_on_c, 1, 38, 40
1, 4144320, Note_off_c, 1, 38, 0
1, 4144320, Note_on_c, 1, 35, 40
1, 4144440, Note_off_c, 1, 35, 0
1, 4144440, Note_on_c, 1, 40, 40
1, 4144680, Note_off_c, 1, 40, 0
1, 4144680, Note_on_c, 1, 35, 40
1, 4144800, Note_off_c, 1, 35, 0
1, 4144800, Note_on_c, 1, 41, 40
1, 4145280, Note_off_c, 1, 41, 0
1, 4145280, Note_on_c, 1, 42, 40
1, 4145520, Note_off_c, 1, 42, 0
1, 4145520, Note_on_c, 1, 35, 40
1, 4145640, Note_off_c, 1, 35, 0
1, 4145760, Note_on_c, 1, 35, 40
1, 4146000, Note_off_c, 1, 35, 0
1, 4146000, Note_on_c, 1, 38, 40
1, 4146240, Note_off_c, 1, 38, 0
1, 4146240, Note_on_c, 1, 35, 40
1, 4146360, Note_off_c, 1, 35, 0
1, 4146360, Note_on_c, 1, 42, 40
1, 4146600, Note_off_c, 1, 42, 0
1, 4146600, Note_on_c, 1, 35, 40
1, 4146720, Note_off_c, 1, 35, 0
1, 4146720, Note_on_c, 1, 41, 40
1, 4147200, Note_off_c, 1, 41, 0
1, 4147200, Note_on_c, 1, 40, 40
1, 4147440, Note_off_c, 1, 40, 0
1, 4147440, Note_on_c, 1, 47, 40
1, 4147560, Note_off_c, 1, 47, 0
1, 4147680, Note_on_c, 1, 47, 40
1, 4147920, Note_off_c, 1, 47, 0
1, 4147920, Note_on_c, 1, 42, 40
1, 4148040, Note_off_c, 1, 42, 0
1, 4148160, Note_on_c, 1, 42, 40
1, 4148400, Note_off_c, 1, 42, 0
1, 4148400, Note_on_c, 1, 47, 40
1, 4148520, Note_off_c, 1, 47, 0
1, 4148640, Note_on_c, 1, 47, 40
1, 4148880, Note_off_c, 1, 47, 0
1, 4148880, Note_on_c, 1, 42, 40
1, 4149000, Note_off_c, 1, 42, 0
1, 4149120, Note_on_c, 1, 42, 40
1, 4149240, Note_off_c, 1, 42, 0
1, 4149360, Note_on_c, 1, 42, 40
1, 4149480, Note_off_c, 1, 42, 0
1, 4149600, Note_on_c, 1, 42, 40
1, 4149840, Note_off_c, 1, 42, 0
1, 4149840, Note_on_c, 1, 37, 40
1, 4149960, Note_off_c, 1, 37, 0
1, 4150080, Note_on_c, 1, 37, 40
1, 4150320, Note_off_c, 1, 37, 0
1, 4150320, Note_on_c, 1, 42, 40
1, 4150440, Note_off_c, 1, 42, 0
1, 4150560, Note_on_c, 1, 42, 40
1, 4150800, Note_off_c, 1, 42, 0
1, 4150800, Note_on_c, 1, 37, 40
1, 4150920, Note_off_c, 1, 37, 0
1, 4151040, Note_on_c, 1, 37, 40
1, 4151280, Note_off_c, 1, 37, 0
1, 4151280, Note_on_c, 1, 47, 40
1, 4151400, Note_off_c, 1, 47, 0
1, 4151520, Note_on_c, 1, 47, 40
1, 4151760, Note_off_c, 1, 47, 0
1, 4151760, Note_on_c, 1, 42, 40
1, 4151880, Note_off_c, 1, 42, 0
1, 4152000, Note_on_c, 1, 42, 40
1, 4152240, Note_off_c, 1, 42, 0
1, 4152240, Note_on_c, 1, 47, 40
1, 4152360, Note_off_c, 1, 47, 0
1, 4152480, Note_on_c, 1, 47, 40
1, 4152720, Note_off_c, 1, 47, 0
1, 4152720, Note_on_c, 1, 42, 40
1, 4152840, Note_off_c, 1, 42, 0
1, 4152960, Note_on_c, 1, 42, 40
1, 4153080, Note_off_c, 1, 42, 0
1, 4153200, Note_on_c, 1, 42, 40
1, 4153320, Note_off_c, 1, 42, 0
1, 4153440, Note_on_c, 1, 42, 40
1, 4153680, Note_off_c, 1, 42, 0
1, 4153680, Note_on_c, 1, 37, 40
1, 4153800, Note_off_c, 1, 37, 0
1, 4153920, Note_on_c, 1, 37, 40
1, 4154160, Note_off_c, 1, 37, 0
1, 4154160, Note_on_c, 1, 42, 40
1, 4154280, Note_off_c, 1, 42, 0
1, 4154400, Note_on_c, 1, 42, 40
1, 4154640, Note_off_c, 1, 42, 0
1, 4154640, Note_on_c, 1, 37, 40
1, 4154760, Note_off_c, 1, 37, 0
1, 4154880, Note_on_c, 1, 37, 40
1, 4155000, Note_off_c, 1, 37, 0
1, 4155120, Note_on_c, 1, 47, 40
1, 4155240, Note_off_c, 1, 47, 0
1, 4155360, Note_on_c, 1, 47, 40
1, 4155600, Note_off_c, 1, 47, 0
1, 4155600, Note_on_c, 1, 42, 40
1, 4155720, Note_off_c, 1, 42, 0
1, 4155840, Note_on_c, 1, 42, 40
1, 4156080, Note_off_c, 1, 42, 0
1, 4156080, Note_on_c, 1, 47, 40
1, 4156200, Note_off_c, 1, 47, 0
1, 4156320, Note_on_c, 1, 47, 40
1, 4156560, Note_off_c, 1, 47, 0
1, 4156560, Note_on_c, 1, 42, 40
1, 4156680, Note_off_c, 1, 42, 0
1, 4156800, Note_on_c, 1, 42, 40
1, 4156920, Note_off_c, 1, 42, 0
1, 4157040, Note_on_c, 1, 42, 40
1, 4157160, Note_off_c, 1, 42, 0
1, 4157280, Note_on_c, 1, 42, 40
1, 4157520, Note_off_c, 1, 42, 0
1, 4157520, Note_on_c, 1, 37, 40
1, 4157640, Note_off_c, 1, 37, 0
1, 4157760, Note_on_c, 1, 37, 40
1, 4158000, Note_off_c, 1, 37, 0
1, 4158000, Note_on_c, 1, 42, 40
1, 4158120, Note_off_c, 1, 42, 0
1, 4158240, Note_on_c, 1, 42, 40
1, 4158480, Note_off_c, 1, 42, 0
1, 4158480, Note_on_c, 1, 37, 40
1, 4158600, Note_off_c, 1, 37, 0
1, 4158720, Note_on_c, 1, 37, 40
1, 4158960, Note_off_c, 1, 37, 0
1, 4158960, Note_on_c, 1, 47, 40
1, 4159080, Note_off_c, 1, 47, 0
1, 4159200, Note_on_c, 1, 47, 40
1, 4159440, Note_off_c, 1, 47, 0
1, 4159440, Note_on_c, 1, 42, 40
1, 4159560, Note_off_c, 1, 42, 0
1, 4159680, Note_on_c, 1, 42, 40
1, 4159920, Note_off_c, 1, 42, 0
1, 4159920, Note_on_c, 1, 47, 40
1, 4160040, Note_off_c, 1, 47, 0
1, 4160160, Note_on_c, 1, 47, 40
1, 4160400, Note_off_c, 1, 47, 0
1, 4160400, Note_on_c, 1, 42, 40
1, 4160520, Note_off_c, 1, 42, 0
1, 4160640, Note_on_c, 1, 42, 40
1, 4160760, Note_off_c, 1, 42, 0
1, 4160880, Note_on_c, 1, 42, 40
1, 4161000, Note_off_c, 1, 42, 0
1, 4161120, Note_on_c, 1, 42, 40
1, 4161360, Note_off_c, 1, 42, 0
1, 4161360, Note_on_c, 1, 37, 40
1, 4161480, Note_off_c, 1, 37, 0
1, 4161600, Note_on_c, 1, 37, 40
1, 4161840, Note_off_c, 1, 37, 0
1, 4161840, Note_on_c, 1, 42, 40
1, 4161960, Note_off_c, 1, 42, 0
1, 4162080, Note_on_c, 1, 42, 40
1, 4162320, Note_off_c, 1, 42, 0
1, 4162320, Note_on_c, 1, 37, 40
1, 4162440, Note_off_c, 1, 37, 0
1, 4162560, Note_on_c, 1, 37, 40
1, 4162680, Note_off_c, 1, 37, 0
1, 4162800, Note_on_c, 1, 47, 40
1, 4162920, Note_off_c, 1, 47, 0
1, 4163040, Note_on_c, 1, 47, 40
1, 4163280, Note_off_c, 1, 47, 0
1, 4163280, Note_on_c, 1, 42, 40
1, 4163400, Note_off_c, 1, 42, 0
1, 4163520, Note_on_c, 1, 42, 40
1, 4163760, Note_off_c, 1, 42, 0
1, 4163760, Note_on_c, 1, 47, 40
1, 4163880, Note_off_c, 1, 47, 0
1, 4164000, Note_on_c, 1, 47, 40
1, 4164240, Note_off_c, 1, 47, 0
1, 4164240, Note_on_c, 1, 42, 40
1, 4164360, Note_off_c, 1, 42, 0
1, 4164480, Note_on_c, 1, 42, 40
1, 4164600, Note_off_c, 1, 42, 0
1, 4164720, Note_on_c, 1, 42, 40
1, 4164840, Note_off_c, 1, 42, 0
1, 4164960, Note_on_c, 1, 42, 40
1, 4165200, Note_off_c, 1, 42, 0
1, 4165200, Note_on_c, 1, 37, 40
1, 4165320, Note_off_c, 1, 37, 0
1, 4165440, Note_on_c, 1, 37, 40
1, 4165680, Note_off_c, 1, 37, 0
1, 4165680, Note_on_c, 1, 42, 40
1, 4165800, Note_off_c, 1, 42, 0
1, 4165920, Note_on_c, 1, 42, 40
1, 4166160, Note_off_c, 1, 42, 0
1, 4166160, Note_on_c, 1, 37, 40
1, 4166280, Note_off_c, 1, 37, 0
1, 4166400, Note_on_c, 1, 37, 40
1, 4166640, Note_off_c, 1, 37, 0
1, 4166640, Note_on_c, 1, 47, 40
1, 4166760, Note_off_c, 1, 47, 0
1, 4166880, Note_on_c, 1, 47, 40
1, 4167120, Note_off_c, 1, 47, 0
1, 4167120, Note_on_c, 1, 42, 40
1, 4167240, Note_off_c, 1, 42, 0
1, 4167360, Note_on_c, 1, 42, 40
1, 4167600, Note_off_c, 1, 42, 0
1, 4167600, Note_on_c, 1, 47, 40
1, 4167720, Note_off_c, 1, 47, 0
1, 4167840, Note_on_c, 1, 47, 40
1, 4168080, Note_off_c, 1, 47, 0
1, 4168080, Note_on_c, 1, 42, 40
1, 4168200, Note_off_c, 1, 42, 0
1, 4168320, Note_on_c, 1, 42, 40
1, 4168440, Note_off_c, 1, 42, 0
1, 4168560, Note_on_c, 1, 42, 40
1, 4168680, Note_off_c, 1, 42, 0
1, 4168800, Note_on_c, 1, 42, 40
1, 4169040, Note_off_c, 1, 42, 0
1, 4169040, Note_on_c, 1, 37, 40
1, 4169160, Note_off_c, 1, 37, 0
1, 4169280, Note_on_c, 1, 37, 40
1, 4169520, Note_off_c, 1, 37, 0
1, 4169520, Note_on_c, 1, 42, 40
1, 4169640, Note_off_c, 1, 42, 0
1, 4169760, Note_on_c, 1, 42, 40
1, 4170000, Note_off_c, 1, 42, 0
1, 4170000, Note_on_c, 1, 37, 40
1, 4170120, Note_off_c, 1, 37, 0
1, 4170240, Note_on_c, 1, 37, 40
1, 4170360, Note_off_c, 1, 37, 0
1, 4170480, Note_on_c, 1, 47, 40
1, 4170600, Note_off_c, 1, 47, 0
1, 4170720, Note_on_c, 1, 47, 40
1, 4170960, Note_off_c, 1, 47, 0
1, 4170960, Note_on_c, 1, 42, 40
1, 4171080, Note_off_c, 1, 42, 0
1, 4171200, Note_on_c, 1, 42, 40
1, 4171440, Note_off_c, 1, 42, 0
1, 4171440, Note_on_c, 1, 47, 40
1, 4171560, Note_off_c, 1, 47, 0
1, 4171680, Note_on_c, 1, 47, 40
1, 4171920, Note_off_c, 1, 47, 0
1, 4171920, Note_on_c, 1, 42, 40
1, 4172040, Note_off_c, 1, 42, 0
1, 4172160, Note_on_c, 1, 42, 40
1, 4172280, Note_off_c, 1, 42, 0
1, 4172400, Note_on_c, 1, 42, 40
1, 4172520, Note_off_c, 1, 42, 0
1, 4172640, Note_on_c, 1, 42, 40
1, 4172880, Note_off_c, 1, 42, 0
1, 4172880, Note_on_c, 1, 37, 40
1, 4173000, Note_off_c, 1, 37, 0
1, 4173120, Note_on_c, 1, 37, 40
1, 4173360, Note_off_c, 1, 37, 0
1, 4173360, Note_on_c, 1, 42, 40
1, 4173480, Note_off_c, 1, 42, 0
1, 4173600, Note_on_c, 1, 42, 40
1, 4173840, Note_off_c, 1, 42, 0
1, 4173840, Note_on_c, 1, 37, 40
1, 4173960, Note_off_c, 1, 37, 0
1, 4174080, Note_on_c, 1, 37, 40
1, 4174320, Note_off_c, 1, 37, 0
1, 4174320, Note_on_c, 1, 47, 40
1, 4174440, Note_off_c, 1, 47, 0
1, 4174560, Note_on_c, 1, 47, 40
1, 4174800, Note_off_c, 1, 47, 0
1, 4174800, Note_on_c, 1, 42, 40
1, 4174920, Note_off_c, 1, 42, 0
1, 4175040, Note_on_c, 1, 42, 40
1, 4175280, Note_off_c, 1, 42, 0
1, 4175280, Note_on_c, 1, 47, 40
1, 4175400, Note_off_c, 1, 47, 0
1, 4175520, Note_on_c, 1, 47, 40
1, 4175760, Note_off_c, 1, 47, 0
1, 4175760, Note_on_c, 1, 42, 40
1, 4175880, Note_off_c, 1, 42, 0
1, 4176000, Note_on_c, 1, 42, 40
1, 4176120, Note_off_c, 1, 42, 0
1, 4176240, Note_on_c, 1, 42, 40
1, 4176360, Note_off_c, 1, 42, 0
1, 4176480, Note_on_c, 1, 42, 40
1, 4176720, Note_off_c, 1, 42, 0
1, 4176720, Note_on_c, 1, 37, 40
1, 4176840, Note_off_c, 1, 37, 0
1, 4176960, Note_on_c, 1, 37, 40
1, 4177200, Note_off_c, 1, 37, 0
1, 4177200, Note_on_c, 1, 42, 40
1, 4177320, Note_off_c, 1, 42, 0
1, 4177440, Note_on_c, 1, 42, 40
1, 4177680, Note_off_c, 1, 42, 0
1, 4177680, Note_on_c, 1, 37, 40
1, 4177800, Note_off_c, 1, 37, 0
1, 4177920, Note_on_c, 1, 37, 40
1, 4178040, Note_off_c, 1, 37, 0
1, 4178160, Note_on_c, 1, 47, 40
1, 4178280, Note_off_c, 1, 47, 0
1, 4178400, Note_on_c, 1, 47, 40
1, 4178640, Note_off_c, 1, 47, 0
1, 4178640, Note_on_c, 1, 42, 40
1, 4178760, Note_off_c, 1, 42, 0
1, 4178880, Note_on_c, 1, 42, 40
1, 4179120, Note_off_c, 1, 42, 0
1, 4179120, Note_on_c, 1, 47, 40
1, 4179240, Note_off_c, 1, 47, 0
1, 4179360, Note_on_c, 1, 47, 40
1, 4179600, Note_off_c, 1, 47, 0
1, 4179600, Note_on_c, 1, 42, 40
1, 4179720, Note_off_c, 1, 42, 0
1, 4179840, Note_on_c, 1, 42, 40
1, 4179960, Note_off_c, 1, 42, 0
1, 4180080, Note_on_c, 1, 42, 40
1, 4180200, Note_off_c, 1, 42, 0
1, 4180320, Note_on_c, 1, 42, 40
1, 4180560, Note_off_c, 1, 42, 0
1, 4180560, Note_on_c, 1, 37, 40
1, 4180680, Note_off_c, 1, 37, 0
1, 4180800, Note_on_c, 1, 37, 40
1, 4181040, Note_off_c, 1, 37, 0
1, 4181040, Note_on_c, 1, 42, 40
1, 4181160, Note_off_c, 1, 42, 0
1, 4181280, Note_on_c, 1, 42, 40
1, 4181520, Note_off_c, 1, 42, 0
1, 4181520, Note_on_c, 1, 37, 40
1, 4181640, Note_off_c, 1, 37, 0
1, 4181760, Note_on_c, 1, 37, 40
1, 4182000, Note_off_c, 1, 37, 0
1, 4187760, Note_on_c, 1, 40, 40
1, 4187880, Note_off_c, 1, 40, 0
1, 4188000, Note_on_c, 1, 40, 40
1, 4188120, Note_off_c, 1, 40, 0
1, 4188240, Note_on_c, 1, 40, 40
1, 4188360, Note_off_c, 1, 40, 0
1, 4188480, Note_on_c, 1, 40, 40
1, 4188600, Note_off_c, 1, 40, 0
1, 4188720, Note_on_c, 1, 40, 40
1, 4188840, Note_off_c, 1, 40, 0
1, 4188960, Note_on_c, 1, 40, 40
1, 4189080, Note_off_c, 1, 40, 0
1, 4189200, Note_on_c, 1, 40, 40
1, 4189440, Note_off_c, 1, 40, 0
1, 4189440, Note_on_c, 1, 32, 40
1, 4189560, Note_off_c, 1, 32, 0
1, 4189680, Note_on_c, 1, 33, 40
1, 4189800, Note_off_c, 1, 33, 0
1, 4189920, Note_on_c, 1, 33, 40
1, 4190040, Note_off_c, 1, 33, 0
1, 4190160, Note_on_c, 1, 33, 40
1, 4190280, Note_off_c, 1, 33, 0
1, 4190400, Note_on_c, 1, 33, 40
1, 4190640, Note_off_c, 1, 33, 0
1, 4190640, Note_on_c, 1, 33, 40
1, 4190760, Note_off_c, 1, 33, 0
1, 4190880, Note_on_c, 1, 33, 40
1, 4191000, Note_off_c, 1, 33, 0
1, 4191120, Note_on_c, 1, 33, 40
1, 4191240, Note_off_c, 1, 33, 0
1, 4191360, Note_on_c, 1, 33, 40
1, 4191480, Note_off_c, 1, 33, 0
1, 4191600, Note_on_c, 1, 38, 40
1, 4191720, Note_off_c, 1, 38, 0
1, 4191840, Note_on_c, 1, 38, 40
1, 4191960, Note_off_c, 1, 38, 0
1, 4192080, Note_on_c, 1, 38, 40
1, 4192200, Note_off_c, 1, 38, 0
1, 4192320, Note_on_c, 1, 38, 40
1, 4192440, Note_off_c, 1, 38, 0
1, 4192440, Note_on_c, 1, 26, 40
1, 4192560, Note_off_c, 1, 26, 0
1, 4192560, Note_on_c, 1, 38, 40
1, 4192680, Note_off_c, 1, 38, 0
1, 4192800, Note_on_c, 1, 38, 40
1, 4192920, Note_off_c, 1, 38, 0
1, 4193040, Note_on_c, 1, 38, 40
1, 4193280, Note_off_c, 1, 38, 0
1, 4193280, Note_on_c, 1, 34, 40
1, 4193400, Note_off_c, 1, 34, 0
1, 4193520, Note_on_c, 1, 35, 40
1, 4193640, Note_off_c, 1, 35, 0
1, 4193760, Note_on_c, 1, 35, 40
1, 4193880, Note_off_c, 1, 35, 0
1, 4194000, Note_on_c, 1, 35, 40
1, 4194120, Note_off_c, 1, 35, 0
1, 4194240, Note_on_c, 1, 35, 40
1, 4194480, Note_off_c, 1, 35, 0
1, 4194480, Note_on_c, 1, 35, 40
1, 4194600, Note_off_c, 1, 35, 0
1, 4194720, Note_on_c, 1, 35, 40
1, 4194840, Note_off_c, 1, 35, 0
1, 4194960, Note_on_c, 1, 35, 40
1, 4195080, Note_off_c, 1, 35, 0
1, 4195200, Note_on_c, 1, 35, 40
1, 4195320, Note_off_c, 1, 35, 0
1, 4195320, Note_on_c, 1, 23, 40
1, 4195440, Note_off_c, 1, 23, 0
1, 4195440, Note_on_c, 1, 40, 40
1, 4195560, Note_off_c, 1, 40, 0
1, 4195680, Note_on_c, 1, 40, 40
1, 4195800, Note_off_c, 1, 40, 0
1, 4195920, Note_on_c, 1, 40, 40
1, 4196040, Note_off_c, 1, 40, 0
1, 4196160, Note_on_c, 1, 40, 40
1, 4196280, Note_off_c, 1, 40, 0
1, 4196400, Note_on_c, 1, 40, 40
1, 4196520, Note_off_c, 1, 40, 0
1, 4196640, Note_on_c, 1, 40, 40
1, 4196760, Note_off_c, 1, 40, 0
1, 4196880, Note_on_c, 1, 40, 40
1, 4197120, Note_off_c, 1, 40, 0
1, 4197120, Note_on_c, 1, 32, 40
1, 4197240, Note_off_c, 1, 32, 0
1, 4197360, Note_on_c, 1, 33, 40
1, 4197480, Note_off_c, 1, 33, 0
1, 4197600, Note_on_c, 1, 33, 40
1, 4197720, Note_off_c, 1, 33, 0
1, 4197840, Note_on_c, 1, 33, 40
1, 4197960, Note_off_c, 1, 33, 0
1, 4198080, Note_on_c, 1, 33, 40
1, 4198200, Note_off_c, 1, 33, 0
1, 4198320, Note_on_c, 1, 33, 40
1, 4198440, Note_off_c, 1, 33, 0
1, 4198560, Note_on_c, 1, 33, 40
1, 4198680, Note_off_c, 1, 33, 0
1, 4198800, Note_on_c, 1, 33, 40
1, 4198920, Note_off_c, 1, 33, 0
1, 4199040, Note_on_c, 1, 33, 40
1, 4199280, Note_off_c, 1, 33, 0
1, 4199280, Note_on_c, 1, 38, 40
1, 4199400, Note_off_c, 1, 38, 0
1, 4199520, Note_on_c, 1, 38, 40
1, 4199640, Note_off_c, 1, 38, 0
1, 4199760, Note_on_c, 1, 38, 40
1, 4199880, Note_off_c, 1, 38, 0
1, 4200000, Note_on_c, 1, 38, 40
1, 4200240, Note_off_c, 1, 38, 0
1, 4200240, Note_on_c, 1, 38, 40
1, 4200360, Note_off_c, 1, 38, 0
1, 4200480, Note_on_c, 1, 38, 40
1, 4200600, Note_off_c, 1, 38, 0
1, 4200720, Note_on_c, 1, 38, 40
1, 4200840, Note_off_c, 1, 38, 0
1, 4200960, Note_on_c, 1, 38, 40
1, 4201080, Note_off_c, 1, 38, 0
1, 4201080, Note_on_c, 1, 26, 40
1, 4201200, Note_off_c, 1, 26, 0
1, 4201200, Note_on_c, 1, 35, 40
1, 4201320, Note_off_c, 1, 35, 0
1, 4201440, Note_on_c, 1, 35, 40
1, 4201560, Note_off_c, 1, 35, 0
1, 4201680, Note_on_c, 1, 35, 40
1, 4201800, Note_off_c, 1, 35, 0
1, 4201920, Note_on_c, 1, 35, 40
1, 4202040, Note_off_c, 1, 35, 0
1, 4202160, Note_on_c, 1, 35, 40
1, 4202280, Note_off_c, 1, 35, 0
1, 4202400, Note_on_c, 1, 35, 40
1, 4202520, Note_off_c, 1, 35, 0
1, 4202520, Note_on_c, 1, 23, 40
1, 4202640, Note_off_c, 1, 23, 0
1, 4202640, Note_on_c, 1, 35, 40
1, 4202760, Note_off_c, 1, 35, 0
1, 4202760, Note_on_c, 1, 23, 40
1, 4202880, Note_off_c, 1, 23, 0
1, 4202880, Note_on_c, 1, 35, 40
1, 4203000, Note_off_c, 1, 35, 0
1, 4203000, Note_on_c, 1, 35, 40
1, 4203120, Note_off_c, 1, 35, 0
1, 4203120, Note_on_c, 1, 40, 40
1, 4203240, Note_off_c, 1, 40, 0
1, 4203360, Note_on_c, 1, 40, 40
1, 4203480, Note_off_c, 1, 40, 0
1, 4203600, Note_on_c, 1, 40, 40
1, 4203720, Note_off_c, 1, 40, 0
1, 4203840, Note_on_c, 1, 40, 40
1, 4203960, Note_off_c, 1, 40, 0
1, 4204080, Note_on_c, 1, 40, 40
1, 4204200, Note_off_c, 1, 40, 0
1, 4204320, Note_on_c, 1, 40, 40
1, 4204440, Note_off_c, 1, 40, 0
1, 4204560, Note_on_c, 1, 40, 40
1, 4204800, Note_off_c, 1, 40, 0
1, 4204800, Note_on_c, 1, 32, 40
1, 4204920, Note_off_c, 1, 32, 0
1, 4205040, Note_on_c, 1, 33, 40
1, 4205160, Note_off_c, 1, 33, 0
1, 4205280, Note_on_c, 1, 33, 40
1, 4205400, Note_off_c, 1, 33, 0
1, 4205520, Note_on_c, 1, 33, 40
1, 4205640, Note_off_c, 1, 33, 0
1, 4205760, Note_on_c, 1, 33, 40
1, 4206000, Note_off_c, 1, 33, 0
1, 4206000, Note_on_c, 1, 33, 40
1, 4206120, Note_off_c, 1, 33, 0
1, 4206240, Note_on_c, 1, 33, 40
1, 4206360, Note_off_c, 1, 33, 0
1, 4206480, Note_on_c, 1, 33, 40
1, 4206600, Note_off_c, 1, 33, 0
1, 4206720, Note_on_c, 1, 33, 40
1, 4206840, Note_off_c, 1, 33, 0
1, 4206960, Note_on_c, 1, 33, 40
1, 4207080, Note_off_c, 1, 33, 0
1, 4207200, Note_on_c, 1, 33, 40
1, 4207320, Note_off_c, 1, 33, 0
1, 4207440, Note_on_c, 1, 33, 40
1, 4207560, Note_off_c, 1, 33, 0
1, 4207680, Note_on_c, 1, 33, 40
1, 4207800, Note_off_c, 1, 33, 0
1, 4207800, Note_on_c, 1, 21, 40
1, 4207920, Note_off_c, 1, 21, 0
1, 4207920, Note_on_c, 1, 33, 40
1, 4208040, Note_off_c, 1, 33, 0
1, 4208160, Note_on_c, 1, 33, 40
1, 4208280, Note_off_c, 1, 33, 0
1, 4208400, Note_on_c, 1, 33, 40
1, 4208640, Note_off_c, 1, 33, 0
1, 4208640, Note_on_c, 1, 37, 40
1, 4208760, Note_off_c, 1, 37, 0
1, 4208880, Note_on_c, 1, 38, 40
1, 4209000, Note_off_c, 1, 38, 0
1, 4209120, Note_on_c, 1, 38, 40
1, 4209240, Note_off_c, 1, 38, 0
1, 4209360, Note_on_c, 1, 38, 40
1, 4209480, Note_off_c, 1, 38, 0
1, 4209600, Note_on_c, 1, 38, 40
1, 4209720, Note_off_c, 1, 38, 0
1, 4209840, Note_on_c, 1, 38, 40
1, 4209960, Note_off_c, 1, 38, 0
1, 4210080, Note_on_c, 1, 38, 40
1, 4210200, Note_off_c, 1, 38, 0
1, 4210200, Note_on_c, 1, 26, 40
1, 4210320, Note_off_c, 1, 26, 0
1, 4210320, Note_on_c, 1, 38, 40
1, 4210440, Note_off_c, 1, 38, 0
1, 4210440, Note_on_c, 1, 26, 40
1, 4210560, Note_off_c, 1, 26, 0
1, 4210560, Note_on_c, 1, 38, 40
1, 4210680, Note_off_c, 1, 38, 0
1, 4210680, Note_on_c, 1, 38, 40
1, 4210800, Note_off_c, 1, 38, 0
1, 4210800, Note_on_c, 1, 38, 40
1, 4210920, Note_off_c, 1, 38, 0
1, 4211040, Note_on_c, 1, 38, 40
1, 4211160, Note_off_c, 1, 38, 0
1, 4211280, Note_on_c, 1, 38, 40
1, 4211400, Note_off_c, 1, 38, 0
1, 4211520, Note_on_c, 1, 38, 40
1, 4211640, Note_off_c, 1, 38, 0
1, 4211640, Note_on_c, 1, 26, 40
1, 4211760, Note_off_c, 1, 26, 0
1, 4211760, Note_on_c, 1, 38, 40
1, 4211880, Note_off_c, 1, 38, 0
1, 4212000, Note_on_c, 1, 38, 40
1, 4212120, Note_off_c, 1, 38, 0
1, 4212240, Note_on_c, 1, 38, 40
1, 4212480, Note_off_c, 1, 38, 0
1, 4212480, Note_on_c, 1, 32, 40
1, 4212600, Note_off_c, 1, 32, 0
1, 4212720, Note_on_c, 1, 33, 40
1, 4212840, Note_off_c, 1, 33, 0
1, 4212960, Note_on_c, 1, 33, 40
1, 4213080, Note_off_c, 1, 33, 0
1, 4213200, Note_on_c, 1, 33, 40
1, 4213320, Note_off_c, 1, 33, 0
1, 4213440, Note_on_c, 1, 33, 40
1, 4213560, Note_off_c, 1, 33, 0
1, 4213680, Note_on_c, 1, 33, 40
1, 4213800, Note_off_c, 1, 33, 0
1, 4213920, Note_on_c, 1, 33, 40
1, 4214040, Note_off_c, 1, 33, 0
1, 4214160, Note_on_c, 1, 33, 40
1, 4214280, Note_off_c, 1, 33, 0
1, 4214400, Note_on_c, 1, 33, 40
1, 4214640, Note_off_c, 1, 33, 0
1, 4214640, Note_on_c, 1, 40, 40
1, 4214760, Note_off_c, 1, 40, 0
1, 4214880, Note_on_c, 1, 40, 40
1, 4215000, Note_off_c, 1, 40, 0
1, 4215120, Note_on_c, 1, 40, 40
1, 4215240, Note_off_c, 1, 40, 0
1, 4215360, Note_on_c, 1, 40, 40
1, 4215600, Note_off_c, 1, 40, 0
1, 4215600, Note_on_c, 1, 40, 40
1, 4215720, Note_off_c, 1, 40, 0
1, 4215840, Note_on_c, 1, 40, 40
1, 4215960, Note_off_c, 1, 40, 0
1, 4216080, Note_on_c, 1, 40, 40
1, 4216200, Note_off_c, 1, 40, 0
1, 4216320, Note_on_c, 1, 40, 40
1, 4216440, Note_off_c, 1, 40, 0
1, 4216560, Note_on_c, 1, 33, 40
1, 4216680, Note_off_c, 1, 33, 0
1, 4216800, Note_on_c, 1, 33, 40
1, 4216920, Note_off_c, 1, 33, 0
1, 4217040, Note_on_c, 1, 33, 40
1, 4217160, Note_off_c, 1, 33, 0
1, 4217280, Note_on_c, 1, 33, 40
1, 4217520, Note_off_c, 1, 33, 0
1, 4217520, Note_on_c, 1, 33, 40
1, 4217640, Note_off_c, 1, 33, 0
1, 4217760, Note_on_c, 1, 33, 40
1, 4217880, Note_off_c, 1, 33, 0
1, 4218000, Note_on_c, 1, 33, 40
1, 4218120, Note_off_c, 1, 33, 0
1, 4218240, Note_on_c, 1, 33, 40
1, 4218360, Note_off_c, 1, 33, 0
1, 4218360, Note_on_c, 1, 21, 40
1, 4218480, Note_off_c, 1, 21, 0
1, 4218480, Note_on_c, 1, 36, 40
1, 4218600, Note_off_c, 1, 36, 0
1, 4218720, Note_on_c, 1, 36, 40
1, 4218840, Note_off_c, 1, 36, 0
1, 4218960, Note_on_c, 1, 36, 40
1, 4219080, Note_off_c, 1, 36, 0
1, 4219200, Note_on_c, 1, 36, 40
1, 4219320, Note_off_c, 1, 36, 0
1, 4219440, Note_on_c, 1, 36, 40
1, 4219560, Note_off_c, 1, 36, 0
1, 4219680, Note_on_c, 1, 36, 40
1, 4219800, Note_off_c, 1, 36, 0
1, 4219920, Note_on_c, 1, 36, 40
1, 4220160, Note_off_c, 1, 36, 0
1, 4220160, Note_on_c, 1, 32, 40
1, 4220280, Note_off_c, 1, 32, 0
1, 4220400, Note_on_c, 1, 33, 40
1, 4220520, Note_off_c, 1, 33, 0
1, 4220640, Note_on_c, 1, 33, 40
1, 4220760, Note_off_c, 1, 33, 0
1, 4220880, Note_on_c, 1, 33, 40
1, 4221000, Note_off_c, 1, 33, 0
1, 4221120, Note_on_c, 1, 33, 40
1, 4221240, Note_off_c, 1, 33, 0
1, 4221360, Note_on_c, 1, 33, 40
1, 4221480, Note_off_c, 1, 33, 0
1, 4221600, Note_on_c, 1, 33, 40
1, 4221720, Note_off_c, 1, 33, 0
1, 4221840, Note_on_c, 1, 33, 40
1, 4222080, Note_off_c, 1, 33, 0
1, 4222080, Note_on_c, 1, 37, 40
1, 4222200, Note_off_c, 1, 37, 0
1, 4222320, Note_on_c, 1, 38, 40
1, 4222440, Note_off_c, 1, 38, 0
1, 4222560, Note_on_c, 1, 38, 40
1, 4222680, Note_off_c, 1, 38, 0
1, 4222800, Note_on_c, 1, 38, 40
1, 4222920, Note_off_c, 1, 38, 0
1, 4223040, Note_on_c, 1, 38, 40
1, 4223160, Note_off_c, 1, 38, 0
1, 4223280, Note_on_c, 1, 38, 40
1, 4223400, Note_off_c, 1, 38, 0
1, 4223520, Note_on_c, 1, 38, 40
1, 4223640, Note_off_c, 1, 38, 0
1, 4223760, Note_on_c, 1, 38, 40
1, 4224000, Note_off_c, 1, 38, 0
1, 4224000, Note_on_c, 1, 34, 40
1, 4224120, Note_off_c, 1, 34, 0
1, 4224240, Note_on_c, 1, 35, 40
1, 4224360, Note_off_c, 1, 35, 0
1, 4224480, Note_on_c, 1, 35, 40
1, 4224600, Note_off_c, 1, 35, 0
1, 4224720, Note_on_c, 1, 35, 40
1, 4224840, Note_off_c, 1, 35, 0
1, 4224960, Note_on_c, 1, 35, 40
1, 4225200, Note_off_c, 1, 35, 0
1, 4225200, Note_on_c, 1, 35, 40
1, 4225320, Note_off_c, 1, 35, 0
1, 4225440, Note_on_c, 1, 35, 40
1, 4225560, Note_off_c, 1, 35, 0
1, 4225680, Note_on_c, 1, 35, 40
1, 4225800, Note_off_c, 1, 35, 0
1, 4225920, Note_on_c, 1, 35, 40
1, 4226040, Note_off_c, 1, 35, 0
1, 4226160, Note_on_c, 1, 40, 40
1, 4226280, Note_off_c, 1, 40, 0
1, 4226400, Note_on_c, 1, 40, 40
1, 4226520, Note_off_c, 1, 40, 0
1, 4226640, Note_on_c, 1, 40, 40
1, 4226760, Note_off_c, 1, 40, 0
1, 4226880, Note_on_c, 1, 40, 40
1, 4227000, Note_off_c, 1, 40, 0
1, 4227120, Note_on_c, 1, 40, 40
1, 4227240, Note_off_c, 1, 40, 0
1, 4227360, Note_on_c, 1, 40, 40
1, 4227480, Note_off_c, 1, 40, 0
1, 4227600, Note_on_c, 1, 40, 40
1, 4227720, Note_off_c, 1, 40, 0
1, 4227840, Note_on_c, 1, 40, 40
1, 4228080, Note_off_c, 1, 40, 0
1, 4228080, Note_on_c, 1, 33, 40
1, 4228200, Note_off_c, 1, 33, 0
1, 4228320, Note_on_c, 1, 33, 40
1, 4228440, Note_off_c, 1, 33, 0
1, 4228560, Note_on_c, 1, 33, 40
1, 4228680, Note_off_c, 1, 33, 0
1, 4228800, Note_on_c, 1, 33, 40
1, 4229040, Note_off_c, 1, 33, 0
1, 4229040, Note_on_c, 1, 33, 40
1, 4229160, Note_off_c, 1, 33, 0
1, 4229280, Note_on_c, 1, 33, 40
1, 4229400, Note_off_c, 1, 33, 0
1, 4229520, Note_on_c, 1, 33, 40
1, 4229640, Note_off_c, 1, 33, 0
1, 4229760, Note_on_c, 1, 33, 40
1, 4229880, Note_off_c, 1, 33, 0
1, 4230000, Note_on_c, 1, 38, 40
1, 4230120, Note_off_c, 1, 38, 0
1, 4230240, Note_on_c, 1, 38, 40
1, 4230360, Note_off_c, 1, 38, 0
1, 4230480, Note_on_c, 1, 38, 40
1, 4230600, Note_off_c, 1, 38, 0
1, 4230720, Note_on_c, 1, 38, 40
1, 4230840, Note_off_c, 1, 38, 0
1, 4230960, Note_on_c, 1, 38, 40
1, 4231080, Note_off_c, 1, 38, 0
1, 4231200, Note_on_c, 1, 38, 40
1, 4231320, Note_off_c, 1, 38, 0
1, 4231440, Note_on_c, 1, 38, 40
1, 4231680, Note_off_c, 1, 38, 0
1, 4231680, Note_on_c, 1, 34, 40
1, 4231800, Note_off_c, 1, 34, 0
1, 4231920, Note_on_c, 1, 35, 40
1, 4232040, Note_off_c, 1, 35, 0
1, 4232160, Note_on_c, 1, 35, 40
1, 4232280, Note_off_c, 1, 35, 0
1, 4232400, Note_on_c, 1, 35, 40
1, 4232520, Note_off_c, 1, 35, 0
1, 4232640, Note_on_c, 1, 35, 40
1, 4232880, Note_off_c, 1, 35, 0
1, 4232880, Note_on_c, 1, 35, 40
1, 4233000, Note_off_c, 1, 35, 0
1, 4233120, Note_on_c, 1, 35, 40
1, 4233240, Note_off_c, 1, 35, 0
1, 4233360, Note_on_c, 1, 35, 40
1, 4233480, Note_off_c, 1, 35, 0
1, 4233600, Note_on_c, 1, 35, 40
1, 4233720, Note_off_c, 1, 35, 0
1, 4233840, Note_on_c, 1, 40, 40
1, 4233960, Note_off_c, 1, 40, 0
1, 4234080, Note_on_c, 1, 40, 40
1, 4234200, Note_off_c, 1, 40, 0
1, 4234320, Note_on_c, 1, 40, 40
1, 4234440, Note_off_c, 1, 40, 0
1, 4234560, Note_on_c, 1, 40, 40
1, 4234680, Note_off_c, 1, 40, 0
1, 4234680, Note_on_c, 1, 28, 40
1, 4234800, Note_off_c, 1, 28, 0
1, 4234800, Note_on_c, 1, 40, 40
1, 4234920, Note_off_c, 1, 40, 0
1, 4235040, Note_on_c, 1, 40, 40
1, 4235160, Note_off_c, 1, 40, 0
1, 4235280, Note_on_c, 1, 40, 40
1, 4235520, Note_off_c, 1, 40, 0
1, 4235520, Note_on_c, 1, 32, 40
1, 4235640, Note_off_c, 1, 32, 0
1, 4235760, Note_on_c, 1, 33, 40
1, 4235880, Note_off_c, 1, 33, 0
1, 4236000, Note_on_c, 1, 33, 40
1, 4236120, Note_off_c, 1, 33, 0
1, 4236240, Note_on_c, 1, 33, 40
1, 4236360, Note_off_c, 1, 33, 0
1, 4236480, Note_on_c, 1, 33, 40
1, 4236720, Note_off_c, 1, 33, 0
1, 4236720, Note_on_c, 1, 33, 40
1, 4236840, Note_off_c, 1, 33, 0
1, 4236960, Note_on_c, 1, 33, 40
1, 4237080, Note_off_c, 1, 33, 0
1, 4237200, Note_on_c, 1, 33, 40
1, 4237320, Note_off_c, 1, 33, 0
1, 4237440, Note_on_c, 1, 33, 40
1, 4237560, Note_off_c, 1, 33, 0
1, 4237560, Note_on_c, 1, 21, 40
1, 4237680, Note_off_c, 1, 21, 0
1, 4237680, Note_on_c, 1, 33, 40
1, 4237800, Note_off_c, 1, 33, 0
1, 4237920, Note_on_c, 1, 33, 40
1, 4238040, Note_off_c, 1, 33, 0
1, 4238160, Note_on_c, 1, 33, 40
1, 4238280, Note_off_c, 1, 33, 0
1, 4238400, Note_on_c, 1, 33, 40
1, 4238640, Note_off_c, 1, 33, 0
1, 4238640, Note_on_c, 1, 33, 40
1, 4238760, Note_off_c, 1, 33, 0
1, 4238880, Note_on_c, 1, 33, 40
1, 4239000, Note_off_c, 1, 33, 0
1, 4239120, Note_on_c, 1, 33, 40
1, 4239240, Note_off_c, 1, 33, 0
1, 4239360, Note_on_c, 1, 33, 40
1, 4239480, Note_off_c, 1, 33, 0
1, 4239600, Note_on_c, 1, 38, 40
1, 4239720, Note_off_c, 1, 38, 0
1, 4239840, Note_on_c, 1, 38, 40
1, 4239960, Note_off_c, 1, 38, 0
1, 4240080, Note_on_c, 1, 38, 40
1, 4240200, Note_off_c, 1, 38, 0
1, 4240320, Note_on_c, 1, 38, 40
1, 4240440, Note_off_c, 1, 38, 0
1, 4240560, Note_on_c, 1, 38, 40
1, 4240680, Note_off_c, 1, 38, 0
1, 4240800, Note_on_c, 1, 38, 40
1, 4240920, Note_off_c, 1, 38, 0
1, 4241040, Note_on_c, 1, 38, 40
1, 4241280, Note_off_c, 1, 38, 0
1, 4241280, Note_on_c, 1, 37, 40
1, 4241400, Note_off_c, 1, 37, 0
1, 4241520, Note_on_c, 1, 38, 40
1, 4241640, Note_off_c, 1, 38, 0
1, 4241760, Note_on_c, 1, 38, 40
1, 4241880, Note_off_c, 1, 38, 0
1, 4242000, Note_on_c, 1, 38, 40
1, 4242120, Note_off_c, 1, 38, 0
1, 4242240, Note_on_c, 1, 38, 40
1, 4242360, Note_off_c, 1, 38, 0
1, 4242360, Note_on_c, 1, 26, 40
1, 4242480, Note_off_c, 1, 26, 0
1, 4242480, Note_on_c, 1, 38, 40
1, 4242600, Note_off_c, 1, 38, 0
1, 4242720, Note_on_c, 1, 38, 40
1, 4242840, Note_off_c, 1, 38, 0
1, 4242960, Note_on_c, 1, 38, 40
1, 4243200, Note_off_c, 1, 38, 0
1, 4243200, Note_on_c, 1, 32, 40
1, 4243320, Note_off_c, 1, 32, 0
1, 4243440, Note_on_c, 1, 33, 40
1, 4243560, Note_off_c, 1, 33, 0
1, 4243680, Note_on_c, 1, 33, 40
1, 4243800, Note_off_c, 1, 33, 0
1, 4243920, Note_on_c, 1, 33, 40
1, 4244040, Note_off_c, 1, 33, 0
1, 4244160, Note_on_c, 1, 33, 40
1, 4244400, Note_off_c, 1, 33, 0
1, 4244400, Note_on_c, 1, 33, 40
1, 4244520, Note_off_c, 1, 33, 0
1, 4244640, Note_on_c, 1, 33, 40
1, 4244760, Note_off_c, 1, 33, 0
1, 4244880, Note_on_c, 1, 33, 40
1, 4245000, Note_off_c, 1, 33, 0
1, 4245120, Note_on_c, 1, 33, 40
1, 4245240, Note_off_c, 1, 33, 0
1, 4245360, Note_on_c, 1, 40, 40
1, 4245480, Note_off_c, 1, 40, 0
1, 4245600, Note_on_c, 1, 40, 40
1, 4245720, Note_off_c, 1, 40, 0
1, 4245840, Note_on_c, 1, 40, 40
1, 4245960, Note_off_c, 1, 40, 0
1, 4246080, Note_on_c, 1, 40, 40
1, 4246200, Note_off_c, 1, 40, 0
1, 4246200, Note_on_c, 1, 28, 40
1, 4246320, Note_off_c, 1, 28, 0
1, 4246320, Note_on_c, 1, 40, 40
1, 4246440, Note_off_c, 1, 40, 0
1, 4246560, Note_on_c, 1, 40, 40
1, 4246680, Note_off_c, 1, 40, 0
1, 4246800, Note_on_c, 1, 40, 40
1, 4247040, Note_off_c, 1, 40, 0
1, 4247040, Note_on_c, 1, 32, 40
1, 4247160, Note_off_c, 1, 32, 0
1, 4247280, Note_on_c, 1, 33, 40
1, 4247400, Note_off_c, 1, 33, 0
1, 4247520, Note_on_c, 1, 33, 40
1, 4247640, Note_off_c, 1, 33, 0
1, 4247760, Note_on_c, 1, 33, 40
1, 4247880, Note_off_c, 1, 33, 0
1, 4248000, Note_on_c, 1, 33, 40
1, 4248120, Note_off_c, 1, 33, 0
1, 4248120, Note_on_c, 1, 21, 40
1, 4248240, Note_off_c, 1, 21, 0
1, 4248240, Note_on_c, 1, 33, 40
1, 4248360, Note_off_c, 1, 33, 0
1, 4248480, Note_on_c, 1, 33, 40
1, 4248600, Note_off_c, 1, 33, 0
1, 4248720, Note_on_c, 1, 33, 40
1, 4248960, Note_off_c, 1, 33, 0
1, 4248960, Note_on_c, 1, 35, 40
1, 4249080, Note_off_c, 1, 35, 0
1, 4249200, Note_on_c, 1, 36, 40
1, 4249320, Note_off_c, 1, 36, 0
1, 4249440, Note_on_c, 1, 36, 40
1, 4249560, Note_off_c, 1, 36, 0
1, 4249680, Note_on_c, 1, 36, 40
1, 4249800, Note_off_c, 1, 36, 0
1, 4249920, Note_on_c, 1, 36, 40
1, 4250040, Note_off_c, 1, 36, 0
1, 4250160, Note_on_c, 1, 36, 40
1, 4250280, Note_off_c, 1, 36, 0
1, 4250400, Note_on_c, 1, 36, 40
1, 4250520, Note_off_c, 1, 36, 0
1, 4250640, Note_on_c, 1, 36, 40
1, 4250880, Note_off_c, 1, 36, 0
1, 4250880, Note_on_c, 1, 32, 40
1, 4251000, Note_off_c, 1, 32, 0
1, 4251120, Note_on_c, 1, 33, 40
1, 4251240, Note_off_c, 1, 33, 0
1, 4251360, Note_on_c, 1, 33, 40
1, 4251480, Note_off_c, 1, 33, 0
1, 4251600, Note_on_c, 1, 33, 40
1, 4251720, Note_off_c, 1, 33, 0
1, 4251840, Note_on_c, 1, 33, 40
1, 4252080, Note_off_c, 1, 33, 0
1, 4252080, Note_on_c, 1, 33, 40
1, 4252200, Note_off_c, 1, 33, 0
1, 4252320, Note_on_c, 1, 33, 40
1, 4252440, Note_off_c, 1, 33, 0
1, 4252560, Note_on_c, 1, 33, 40
1, 4252680, Note_off_c, 1, 33, 0
1, 4252800, Note_on_c, 1, 33, 40
1, 4252920, Note_off_c, 1, 33, 0
1, 4252920, Note_on_c, 1, 21, 40
1, 4253040, Note_off_c, 1, 21, 0
1, 4253040, Note_on_c, 1, 36, 40
1, 4253160, Note_off_c, 1, 36, 0
1, 4253280, Note_on_c, 1, 36, 40
1, 4253400, Note_off_c, 1, 36, 0
1, 4253520, Note_on_c, 1, 36, 40
1, 4253640, Note_off_c, 1, 36, 0
1, 4253760, Note_on_c, 1, 36, 40
1, 4254000, Note_off_c, 1, 36, 0
1, 4254000, Note_on_c, 1, 36, 40
1, 4254120, Note_off_c, 1, 36, 0
1, 4254240, Note_on_c, 1, 36, 40
1, 4254360, Note_off_c, 1, 36, 0
1, 4254480, Note_on_c, 1, 36, 40
1, 4254600, Note_off_c, 1, 36, 0
1, 4254720, Note_on_c, 1, 36, 40
1, 4254840, Note_off_c, 1, 36, 0
1, 4254960, Note_on_c, 1, 33, 40
1, 4255080, Note_off_c, 1, 33, 0
1, 4255200, Note_on_c, 1, 33, 40
1, 4255320, Note_off_c, 1, 33, 0
1, 4255440, Note_on_c, 1, 33, 40
1, 4255560, Note_off_c, 1, 33, 0
1, 4255680, Note_on_c, 1, 33, 40
1, 4255920, Note_off_c, 1, 33, 0
1, 4255920, Note_on_c, 1, 33, 40
1, 4256040, Note_off_c, 1, 33, 0
1, 4256160, Note_on_c, 1, 33, 40
1, 4256280, Note_off_c, 1, 33, 0
1, 4256400, Note_on_c, 1, 33, 40
1, 4256520, Note_off_c, 1, 33, 0
1, 4256640, Note_on_c, 1, 33, 40
1, 4256760, Note_off_c, 1, 33, 0
1, 4256880, Note_on_c, 1, 38, 40
1, 4257000, Note_off_c, 1, 38, 0
1, 4257120, Note_on_c, 1, 38, 40
1, 4257240, Note_off_c, 1, 38, 0
1, 4257360, Note_on_c, 1, 38, 40
1, 4257480, Note_off_c, 1, 38, 0
1, 4257600, Note_on_c, 1, 38, 40
1, 4257720, Note_off_c, 1, 38, 0
1, 4257840, Note_on_c, 1, 38, 40
1, 4257960, Note_off_c, 1, 38, 0
1, 4258080, Note_on_c, 1, 38, 40
1, 4258200, Note_off_c, 1, 38, 0
1, 4258200, Note_on_c, 1, 26, 40
1, 4258320, Note_off_c, 1, 26, 0
1, 4258320, Note_on_c, 1, 38, 40
1, 4258440, Note_off_c, 1, 38, 0
1, 4258440, Note_on_c, 1, 26, 40
1, 4258560, Note_off_c, 1, 26, 0
1, 4258560, Note_on_c, 1, 38, 40
1, 4258680, Note_off_c, 1, 38, 0
1, 4258680, Note_on_c, 1, 38, 40
1, 4258800, Note_off_c, 1, 38, 0
1, 4258800, Note_on_c, 1, 35, 40
1, 4258920, Note_off_c, 1, 35, 0
1, 4259040, Note_on_c, 1, 35, 40
1, 4259160, Note_off_c, 1, 35, 0
1, 4259280, Note_on_c, 1, 35, 40
1, 4259400, Note_off_c, 1, 35, 0
1, 4259520, Note_on_c, 1, 35, 40
1, 4259760, Note_off_c, 1, 35, 0
1, 4259760, Note_on_c, 1, 35, 40
1, 4259880, Note_off_c, 1, 35, 0
1, 4260000, Note_on_c, 1, 35, 40
1, 4260120, Note_off_c, 1, 35, 0
1, 4260240, Note_on_c, 1, 35, 40
1, 4260360, Note_off_c, 1, 35, 0
1, 4260480, Note_on_c, 1, 35, 40
1, 4260600, Note_off_c, 1, 35, 0
1, 4260600, Note_on_c, 1, 23, 40
1, 4260720, Note_off_c, 1, 23, 0
1, 4260720, Note_on_c, 1, 35, 40
1, 4260840, Note_off_c, 1, 35, 0
1, 4260960, Note_on_c, 1, 35, 40
1, 4261080, Note_off_c, 1, 35, 0
1, 4261200, Note_on_c, 1, 35, 40
1, 4261320, Note_off_c, 1, 35, 0
1, 4261440, Note_on_c, 1, 35, 40
1, 4261560, Note_off_c, 1, 35, 0
1, 4261560, Note_on_c, 1, 23, 40
1, 4261680, Note_off_c, 1, 23, 0
1, 4261680, Note_on_c, 1, 35, 40
1, 4261800, Note_off_c, 1, 35, 0
1, 4261920, Note_on_c, 1, 35, 40
1, 4262040, Note_off_c, 1, 35, 0
1, 4262160, Note_on_c, 1, 35, 40
1, 4262400, Note_off_c, 1, 35, 0
1, 4262400, Note_on_c, 1, 39, 40
1, 4262520, Note_off_c, 1, 39, 0
1, 4262640, Note_on_c, 1, 40, 40
1, 4262760, Note_off_c, 1, 40, 0
1, 4262880, Note_on_c, 1, 40, 40
1, 4263000, Note_off_c, 1, 40, 0
1, 4263120, Note_on_c, 1, 40, 40
1, 4263240, Note_off_c, 1, 40, 0
1, 4263360, Note_on_c, 1, 40, 40
1, 4263480, Note_off_c, 1, 40, 0
1, 4263600, Note_on_c, 1, 40, 40
1, 4263720, Note_off_c, 1, 40, 0
1, 4263840, Note_on_c, 1, 40, 40
1, 4263960, Note_off_c, 1, 40, 0
1, 4263960, Note_on_c, 1, 28, 40
1, 4264080, Note_off_c, 1, 28, 0
1, 4264080, Note_on_c, 1, 40, 40
1, 4264200, Note_off_c, 1, 40, 0
1, 4264200, Note_on_c, 1, 28, 40
1, 4264320, Note_off_c, 1, 28, 0
1, 4264320, Note_on_c, 1, 40, 40
1, 4264440, Note_off_c, 1, 40, 0
1, 4264440, Note_on_c, 1, 40, 40
1, 4264560, Note_off_c, 1, 40, 0
1, 4264560, Note_on_c, 1, 33, 40
1, 4264680, Note_off_c, 1, 33, 0
1, 4264800, Note_on_c, 1, 33, 40
1, 4264920, Note_off_c, 1, 33, 0
1, 4265040, Note_on_c, 1, 33, 40
1, 4265160, Note_off_c, 1, 33, 0
1, 4265280, Note_on_c, 1, 33, 40
1, 4265400, Note_off_c, 1, 33, 0
1, 4265520, Note_on_c, 1, 33, 40
1, 4265640, Note_off_c, 1, 33, 0
1, 4265760, Note_on_c, 1, 33, 40
1, 4265880, Note_off_c, 1, 33, 0
1, 4266000, Note_on_c, 1, 33, 40
1, 4266240, Note_off_c, 1, 33, 0
1, 4266240, Note_on_c, 1, 37, 40
1, 4266360, Note_off_c, 1, 37, 0
1, 4266480, Note_on_c, 1, 38, 40
1, 4266600, Note_off_c, 1, 38, 0
1, 4266720, Note_on_c, 1, 38, 40
1, 4266840, Note_off_c, 1, 38, 0
1, 4266960, Note_on_c, 1, 38, 40
1, 4267080, Note_off_c, 1, 38, 0
1, 4267200, Note_on_c, 1, 38, 40
1, 4267440, Note_off_c, 1, 38, 0
1, 4267440, Note_on_c, 1, 38, 40
1, 4267560, Note_off_c, 1, 38, 0
1, 4267680, Note_on_c, 1, 38, 40
1, 4267800, Note_off_c, 1, 38, 0
1, 4267920, Note_on_c, 1, 38, 40
1, 4268040, Note_off_c, 1, 38, 0
1, 4268160, Note_on_c, 1, 38, 40
1, 4268280, Note_off_c, 1, 38, 0
1, 4268400, Note_on_c, 1, 35, 40
1, 4268520, Note_off_c, 1, 35, 0
1, 4268640, Note_on_c, 1, 35, 40
1, 4268760, Note_off_c, 1, 35, 0
1, 4268880, Note_on_c, 1, 35, 40
1, 4269000, Note_off_c, 1, 35, 0
1, 4269120, Note_on_c, 1, 35, 40
1, 4269240, Note_off_c, 1, 35, 0
1, 4269360, Note_on_c, 1, 35, 40
1, 4269480, Note_off_c, 1, 35, 0
1, 4269600, Note_on_c, 1, 35, 40
1, 4269720, Note_off_c, 1, 35, 0
1, 4269720, Note_on_c, 1, 23, 40
1, 4269840, Note_off_c, 1, 23, 0
1, 4269840, Note_on_c, 1, 35, 40
1, 4269960, Note_off_c, 1, 35, 0
1, 4269960, Note_on_c, 1, 23, 40
1, 4270080, Note_off_c, 1, 23, 0
1, 4270080, Note_on_c, 1, 35, 40
1, 4270200, Note_off_c, 1, 35, 0
1, 4270200, Note_on_c, 1, 35, 40
1, 4270320, Note_off_c, 1, 35, 0
1, 4270320, Note_on_c, 1, 40, 40
1, 4270440, Note_off_c, 1, 40, 0
1, 4270560, Note_on_c, 1, 40, 40
1, 4270680, Note_off_c, 1, 40, 0
1, 4270800, Note_on_c, 1, 40, 40
1, 4270920, Note_off_c, 1, 40, 0
1, 4271040, Note_on_c, 1, 40, 40
1, 4271280, Note_off_c, 1, 40, 0
1, 4271280, Note_on_c, 1, 40, 40
1, 4271400, Note_off_c, 1, 40, 0
1, 4271520, Note_on_c, 1, 40, 40
1, 4271640, Note_off_c, 1, 40, 0
1, 4271760, Note_on_c, 1, 40, 40
1, 4271880, Note_off_c, 1, 40, 0
1, 4272000, Note_on_c, 1, 40, 40
1, 4272120, Note_off_c, 1, 40, 0
1, 4272120, Note_on_c, 1, 28, 40
1, 4272240, Note_off_c, 1, 28, 0
1, 4272240, Note_on_c, 1, 33, 40
1, 4272360, Note_off_c, 1, 33, 0
1, 4272480, Note_on_c, 1, 33, 40
1, 4272600, Note_off_c, 1, 33, 0
1, 4272720, Note_on_c, 1, 33, 40
1, 4272840, Note_off_c, 1, 33, 0
1, 4272960, Note_on_c, 1, 33, 40
1, 4273080, Note_off_c, 1, 33, 0
1, 4273080, Note_on_c, 1, 21, 40
1, 4273200, Note_off_c, 1, 21, 0
1, 4273200, Note_on_c, 1, 33, 40
1, 4273320, Note_off_c, 1, 33, 0
1, 4273440, Note_on_c, 1, 33, 40
1, 4273560, Note_off_c, 1, 33, 0
1, 4273680, Note_on_c, 1, 33, 40
1, 4273920, Note_off_c, 1, 33, 0
1, 4273920, Note_on_c, 1, 37, 40
1, 4274040, Note_off_c, 1, 37, 0
1, 4274160, Note_on_c, 1, 38, 40
1, 4274280, Note_off_c, 1, 38, 0
1, 4274400, Note_on_c, 1, 38, 40
1, 4274520, Note_off_c, 1, 38, 0
1, 4274640, Note_on_c, 1, 38, 40
1, 4274760, Note_off_c, 1, 38, 0
1, 4274880, Note_on_c, 1, 38, 40
1, 4275000, Note_off_c, 1, 38, 0
1, 4275120, Note_on_c, 1, 38, 40
1, 4275240, Note_off_c, 1, 38, 0
1, 4275360, Note_on_c, 1, 38, 40
1, 4275480, Note_off_c, 1, 38, 0
1, 4275600, Note_on_c, 1, 38, 40
1, 4275840, Note_off_c, 1, 38, 0
1, 4275840, Note_on_c, 1, 34, 40
1, 4275960, Note_off_c, 1, 34, 0
1, 4276080, Note_on_c, 1, 35, 40
1, 4276200, Note_off_c, 1, 35, 0
1, 4276320, Note_on_c, 1, 35, 40
1, 4276440, Note_off_c, 1, 35, 0
1, 4276560, Note_on_c, 1, 35, 40
1, 4276680, Note_off_c, 1, 35, 0
1, 4276800, Note_on_c, 1, 35, 40
1, 4277040, Note_off_c, 1, 35, 0
1, 4277040, Note_on_c, 1, 35, 40
1, 4277160, Note_off_c, 1, 35, 0
1, 4277280, Note_on_c, 1, 35, 40
1, 4277400, Note_off_c, 1, 35, 0
1, 4277520, Note_on_c, 1, 35, 40
1, 4277640, Note_off_c, 1, 35, 0
1, 4277760, Note_on_c, 1, 35, 40
1, 4277880, Note_off_c, 1, 35, 0
1, 4277880, Note_on_c, 1, 23, 40
1, 4278000, Note_off_c, 1, 23, 0
1, 4278000, Note_on_c, 1, 40, 40
1, 4278120, Note_off_c, 1, 40, 0
1, 4278240, Note_on_c, 1, 40, 40
1, 4278360, Note_off_c, 1, 40, 0
1, 4278480, Note_on_c, 1, 40, 40
1, 4278600, Note_off_c, 1, 40, 0
1, 4278720, Note_on_c, 1, 40, 40
1, 4278840, Note_off_c, 1, 40, 0
1, 4278960, Note_on_c, 1, 40, 40
1, 4279080, Note_off_c, 1, 40, 0
1, 4279200, Note_on_c, 1, 40, 40
1, 4279320, Note_off_c, 1, 40, 0
1, 4279440, Note_on_c, 1, 40, 40
1, 4279560, Note_off_c, 1, 40, 0
1, 4279680, Note_on_c, 1, 40, 40
1, 4279920, Note_off_c, 1, 40, 0
1, 4279920, Note_on_c, 1, 33, 40
1, 4280040, Note_off_c, 1, 33, 0
1, 4280160, Note_on_c, 1, 33, 40
1, 4280280, Note_off_c, 1, 33, 0
1, 4280400, Note_on_c, 1, 33, 40
1, 4280520, Note_off_c, 1, 33, 0
1, 4280640, Note_on_c, 1, 33, 40
1, 4280880, Note_off_c, 1, 33, 0
1, 4280880, Note_on_c, 1, 33, 40
1, 4281000, Note_off_c, 1, 33, 0
1, 4281120, Note_on_c, 1, 33, 40
1, 4281240, Note_off_c, 1, 33, 0
1, 4281360, Note_on_c, 1, 33, 40
1, 4281480, Note_off_c, 1, 33, 0
1, 4281600, Note_on_c, 1, 33, 40
1, 4281720, Note_off_c, 1, 33, 0
1, 4281720, Note_on_c, 1, 21, 40
1, 4281840, Note_off_c, 1, 21, 0
1, 4281840, Note_on_c, 1, 33, 40
1, 4281960, Note_off_c, 1, 33, 0
1, 4282080, Note_on_c, 1, 33, 40
1, 4282200, Note_off_c, 1, 33, 0
1, 4282320, Note_on_c, 1, 33, 40
1, 4282440, Note_off_c, 1, 33, 0
1, 4282560, Note_on_c, 1, 33, 40
1, 4282680, Note_off_c, 1, 33, 0
1, 4282800, Note_on_c, 1, 33, 40
1, 4282920, Note_off_c, 1, 33, 0
1, 4283040, Note_on_c, 1, 33, 40
1, 4283160, Note_off_c, 1, 33, 0
1, 4283280, Note_on_c, 1, 33, 40
1, 4283400, Note_off_c, 1, 33, 0
1, 4283520, Note_on_c, 1, 33, 40
1, 4283760, Note_off_c, 1, 33, 0
1, 4283760, Note_on_c, 1, 38, 40
1, 4283880, Note_off_c, 1, 38, 0
1, 4284000, Note_on_c, 1, 38, 40
1, 4284120, Note_off_c, 1, 38, 0
1, 4284240, Note_on_c, 1, 38, 40
1, 4284360, Note_off_c, 1, 38, 0
1, 4284480, Note_on_c, 1, 38, 40
1, 4284720, Note_off_c, 1, 38, 0
1, 4284720, Note_on_c, 1, 38, 40
1, 4284840, Note_off_c, 1, 38, 0
1, 4284960, Note_on_c, 1, 38, 40
1, 4285080, Note_off_c, 1, 38, 0
1, 4285200, Note_on_c, 1, 38, 40
1, 4285320, Note_off_c, 1, 38, 0
1, 4285440, Note_on_c, 1, 38, 40
1, 4285560, Note_off_c, 1, 38, 0
1, 4285560, Note_on_c, 1, 26, 40
1, 4285680, Note_off_c, 1, 26, 0
1, 4285680, Note_on_c, 1, 38, 40
1, 4285800, Note_off_c, 1, 38, 0
1, 4285920, Note_on_c, 1, 38, 40
1, 4286040, Note_off_c, 1, 38, 0
1, 4286160, Note_on_c, 1, 38, 40
1, 4286280, Note_off_c, 1, 38, 0
1, 4286400, Note_on_c, 1, 38, 40
1, 4286520, Note_off_c, 1, 38, 0
1, 4286640, Note_on_c, 1, 38, 40
1, 4286760, Note_off_c, 1, 38, 0
1, 4286880, Note_on_c, 1, 38, 40
1, 4287000, Note_off_c, 1, 38, 0
1, 4287000, Note_on_c, 1, 26, 40
1, 4287120, Note_off_c, 1, 26, 0
1, 4287120, Note_on_c, 1, 38, 40
1, 4287240, Note_off_c, 1, 38, 0
1, 4287240, Note_on_c, 1, 26, 40
1, 4287360, Note_off_c, 1, 26, 0
1, 4287360, Note_on_c, 1, 38, 40
1, 4287480, Note_off_c, 1, 38, 0
1, 4287480, Note_on_c, 1, 38, 40
1, 4287600, Note_off_c, 1, 38, 0
1, 4287600, Note_on_c, 1, 33, 40
1, 4287720, Note_off_c, 1, 33, 0
1, 4287840, Note_on_c, 1, 33, 40
1, 4287960, Note_off_c, 1, 33, 0
1, 4288080, Note_on_c, 1, 33, 40
1, 4288200, Note_off_c, 1, 33, 0
1, 4288320, Note_on_c, 1, 33, 40
1, 4288440, Note_off_c, 1, 33, 0
1, 4288560, Note_on_c, 1, 33, 40
1, 4288680, Note_off_c, 1, 33, 0
1, 4288800, Note_on_c, 1, 33, 40
1, 4288920, Note_off_c, 1, 33, 0
1, 4289040, Note_on_c, 1, 33, 40
1, 4289280, Note_off_c, 1, 33, 0
1, 4289280, Note_on_c, 1, 37, 40
1, 4289400, Note_off_c, 1, 37, 0
1, 4289520, Note_on_c, 1, 38, 40
1, 4289640, Note_off_c, 1, 38, 0
1, 4289760, Note_on_c, 1, 38, 40
1, 4289880, Note_off_c, 1, 38, 0
1, 4290000, Note_on_c, 1, 38, 40
1, 4290120, Note_off_c, 1, 38, 0
1, 4290240, Note_on_c, 1, 38, 40
1, 4290360, Note_off_c, 1, 38, 0
1, 4290360, Note_on_c, 1, 26, 40
1, 4290480, Note_off_c, 1, 26, 0
1, 4290480, Note_on_c, 1, 38, 40
1, 4290600, Note_off_c, 1, 38, 0
1, 4290720, Note_on_c, 1, 38, 40
1, 4290840, Note_off_c, 1, 38, 0
1, 4290960, Note_on_c, 1, 38, 40
1, 4291200, Note_off_c, 1, 38, 0
1, 4291200, Note_on_c, 1, 32, 40
1, 4291320, Note_off_c, 1, 32, 0
1, 4291440, Note_on_c, 1, 33, 40
1, 4291560, Note_off_c, 1, 33, 0
1, 4291680, Note_on_c, 1, 33, 40
1, 4291800, Note_off_c, 1, 33, 0
1, 4291920, Note_on_c, 1, 33, 40
1, 4292040, Note_off_c, 1, 33, 0
1, 4292160, Note_on_c, 1, 33, 40
1, 4292400, Note_off_c, 1, 33, 0
1, 4292400, Note_on_c, 1, 33, 40
1, 4292520, Note_off_c, 1, 33, 0
1, 4292640, Note_on_c, 1, 33, 40
1, 4292760, Note_off_c, 1, 33, 0
1, 4292880, Note_on_c, 1, 33, 40
1, 4293000, Note_off_c, 1, 33, 0
1, 4293120, Note_on_c, 1, 33, 40
1, 4293240, Note_off_c, 1, 33, 0
1, 4293240, Note_on_c, 1, 21, 40
1, 4293360, Note_off_c, 1, 21, 0
1, 4293360, Note_on_c, 1, 38, 40
1, 4293480, Note_off_c, 1, 38, 0
1, 4293600, Note_on_c, 1, 38, 40
1, 4293720, Note_off_c, 1, 38, 0
1, 4293840, Note_on_c, 1, 38, 40
1, 4293960, Note_off_c, 1, 38, 0
1, 4294080, Note_on_c, 1, 38, 40
1, 4294320, Note_off_c, 1, 38, 0
1, 4294320, Note_on_c, 1, 38, 40
1, 4294440, Note_off_c, 1, 38, 0
1, 4294560, Note_on_c, 1, 38, 40
1, 4294680, Note_off_c, 1, 38, 0
1, 4294800, Note_on_c, 1, 38, 40
1, 4294920, Note_off_c, 1, 38, 0
1, 4295040, Note_on_c, 1, 38, 40
1, 4295160, Note_off_c, 1, 38, 0
1, 4295160, Note_on_c, 1, 26, 40
1, 4295280, Note_off_c, 1, 26, 0
1, 4295280, Note_on_c, 1, 33, 40
1, 4295400, Note_off_c, 1, 33, 0
1, 4295520, Note_on_c, 1, 33, 40
1, 4295640, Note_off_c, 1, 33, 0
1, 4295760, Note_on_c, 1, 33, 40
1, 4295880, Note_off_c, 1, 33, 0
1, 4296000, Note_on_c, 1, 33, 40
1, 4296120, Note_off_c, 1, 33, 0
1, 4296120, Note_on_c, 1, 21, 40
1, 4296240, Note_off_c, 1, 21, 0
1, 4296240, Note_on_c, 1, 33, 40
1, 4296360, Note_off_c, 1, 33, 0
1, 4296480, Note_on_c, 1, 33, 40
1, 4296600, Note_off_c, 1, 33, 0
1, 4296720, Note_on_c, 1, 33, 40
1, 4296960, Note_off_c, 1, 33, 0
1, 4296960, Note_on_c, 1, 35, 40
1, 4297080, Note_off_c, 1, 35, 0
1, 4297200, Note_on_c, 1, 36, 40
1, 4297320, Note_off_c, 1, 36, 0
1, 4297440, Note_on_c, 1, 36, 40
1, 4297560, Note_off_c, 1, 36, 0
1, 4297680, Note_on_c, 1, 36, 40
1, 4297800, Note_off_c, 1, 36, 0
1, 4297920, Note_on_c, 1, 36, 40
1, 4298040, Note_off_c, 1, 36, 0
1, 4298160, Note_on_c, 1, 36, 40
1, 4298280, Note_off_c, 1, 36, 0
1, 4298400, Note_on_c, 1, 36, 40
1, 4298520, Note_off_c, 1, 36, 0
1, 4298640, Note_on_c, 1, 36, 40
1, 4298880, Note_off_c, 1, 36, 0
1, 4298880, Note_on_c, 1, 32, 40
1, 4299000, Note_off_c, 1, 32, 0
1, 4299120, Note_on_c, 1, 33, 40
1, 4299240, Note_off_c, 1, 33, 0
1, 4299360, Note_on_c, 1, 33, 40
1, 4299480, Note_off_c, 1, 33, 0
1, 4299600, Note_on_c, 1, 33, 40
1, 4299720, Note_off_c, 1, 33, 0
1, 4299840, Note_on_c, 1, 33, 40
1, 4299960, Note_off_c, 1, 33, 0
1, 4299960, Note_on_c, 1, 21, 40
1, 4300080, Note_off_c, 1, 21, 0
1, 4300080, Note_on_c, 1, 33, 40
1, 4300200, Note_off_c, 1, 33, 0
1, 4300320, Note_on_c, 1, 33, 40
1, 4300440, Note_off_c, 1, 33, 0
1, 4300560, Note_on_c, 1, 33, 40
1, 4300800, Note_off_c, 1, 33, 0
1, 4300800, Note_on_c, 1, 35, 40
1, 4300920, Note_off_c, 1, 35, 0
1, 4301040, Note_on_c, 1, 36, 40
1, 4301160, Note_off_c, 1, 36, 0
1, 4301280, Note_on_c, 1, 36, 40
1, 4301400, Note_off_c, 1, 36, 0
1, 4301520, Note_on_c, 1, 36, 40
1, 4301640, Note_off_c, 1, 36, 0
1, 4301760, Note_on_c, 1, 36, 40
1, 4301880, Note_off_c, 1, 36, 0
1, 4302000, Note_on_c, 1, 36, 40
1, 4302120, Note_off_c, 1, 36, 0
1, 4302240, Note_on_c, 1, 36, 40
1, 4302360, Note_off_c, 1, 36, 0
1, 4302480, Note_on_c, 1, 36, 40
1, 4302600, Note_off_c, 1, 36, 0
1, 4302720, Note_on_c, 1, 36, 40
1, 4302960, Note_off_c, 1, 36, 0
1, 4302960, Note_on_c, 1, 33, 40
1, 4303080, Note_off_c, 1, 33, 0
1, 4303200, Note_on_c, 1, 33, 40
1, 4303320, Note_off_c, 1, 33, 0
1, 4303440, Note_on_c, 1, 33, 40
1, 4303560, Note_off_c, 1, 33, 0
1, 4303680, Note_on_c, 1, 33, 40
1, 4303800, Note_off_c, 1, 33, 0
1, 4303800, Note_on_c, 1, 21, 40
1, 4303920, Note_off_c, 1, 21, 0
1, 4303920, Note_on_c, 1, 33, 40
1, 4304040, Note_off_c, 1, 33, 0
1, 4304160, Note_on_c, 1, 33, 40
1, 4304280, Note_off_c, 1, 33, 0
1, 4304400, Note_on_c, 1, 33, 40
1, 4304640, Note_off_c, 1, 33, 0
1, 4304640, Note_on_c, 1, 39, 40
1, 4304760, Note_off_c, 1, 39, 0
1, 4316400, Note_on_c, 1, 38, 40
1, 4316880, Note_off_c, 1, 38, 0
1, 4316880, Note_on_c, 1, 42, 40
1, 4317360, Note_off_c, 1, 42, 0
1, 4317360, Note_on_c, 1, 45, 40
1, 4317840, Note_off_c, 1, 45, 0
1, 4317840, Note_on_c, 1, 47, 40
1, 4318320, Note_off_c, 1, 47, 0
1, 4318320, Note_on_c, 1, 50, 40
1, 4318800, Note_off_c, 1, 50, 0
1, 4318800, Note_on_c, 1, 47, 40
1, 4319280, Note_off_c, 1, 47, 0
1, 4319280, Note_on_c, 1, 45, 40
1, 4319760, Note_off_c, 1, 45, 0
1, 4319760, Note_on_c, 1, 42, 40
1, 4320240, Note_off_c, 1, 42, 0
1, 4320240, Note_on_c, 1, 38, 40
1, 4322160, Note_off_c, 1, 38, 0
1, 4322160, Note_on_c, 1, 38, 40
1, 4323360, Note_off_c, 1, 38, 0
1, 4323480, Note_on_c, 1, 38, 40
1, 4323600, Note_off_c, 1, 38, 0
1, 4323600, Note_on_c, 1, 38, 40
1, 4324080, Note_off_c, 1, 38, 0
1, 4324080, Note_on_c, 1, 46, 40
1, 4326000, Note_off_c, 1, 46, 0
1, 4326000, Note_on_c, 1, 46, 40
1, 4327200, Note_off_c, 1, 46, 0
1, 4327320, Note_on_c, 1, 46, 40
1, 4327440, Note_off_c, 1, 46, 0
1, 4327440, Note_on_c, 1, 46, 40
1, 4327920, Note_off_c, 1, 46, 0
1, 4327920, Note_on_c, 1, 38, 40
1, 4329840, Note_off_c, 1, 38, 0
1, 4329840, Note_on_c, 1, 38, 40
1, 4331040, Note_off_c, 1, 38, 0
1, 4331160, Note_on_c, 1, 38, 40
1, 4331280, Note_off_c, 1, 38, 0
1, 4331280, Note_on_c, 1, 38, 40
1, 4331760, Note_off_c, 1, 38, 0
1, 4331760, Note_on_c, 1, 46, 40
1, 4333680, Note_off_c, 1, 46, 0
1, 4333680, Note_on_c, 1, 46, 40
1, 4335600, Note_off_c, 1, 46, 0
1, 4335600, Note_on_c, 1, 45, 40
1, 4336080, Note_off_c, 1, 45, 0
1, 4336080, Note_on_c, 1, 43, 40
1, 4336560, Note_off_c, 1, 43, 0
1, 4336560, Note_on_c, 1, 40, 40
1, 4337040, Note_off_c, 1, 40, 0
1, 4337040, Note_on_c, 1, 43, 40
1, 4337520, Note_off_c, 1, 43, 0
1, 4337520, Note_on_c, 1, 45, 40
1, 4338000, Note_off_c, 1, 45, 0
1, 4338000, Note_on_c, 1, 43, 40
1, 4338480, Note_off_c, 1, 43, 0
1, 4338480, Note_on_c, 1, 42, 40
1, 4338960, Note_off_c, 1, 42, 0
1, 4338960, Note_on_c, 1, 40, 40
1, 4339440, Note_off_c, 1, 40, 0
1, 4339440, Note_on_c, 1, 38, 40
1, 4339920, Note_off_c, 1, 38, 0
1, 4339920, Note_on_c, 1, 42, 40
1, 4340400, Note_off_c, 1, 42, 0
1, 4340400, Note_on_c, 1, 45, 40
1, 4340880, Note_off_c, 1, 45, 0
1, 4340880, Note_on_c, 1, 47, 40
1, 4341360, Note_off_c, 1, 47, 0
1, 4341360, Note_on_c, 1, 50, 40
1, 4341840, Note_off_c, 1, 50, 0
1, 4341840, Note_on_c, 1, 47, 40
1, 4342320, Note_off_c, 1, 47, 0
1, 4342320, Note_on_c, 1, 45, 40
1, 4342800, Note_off_c, 1, 45, 0
1, 4342800, Note_on_c, 1, 42, 40
1, 4343280, Note_off_c, 1, 42, 0
1, 4343280, Note_on_c, 1, 38, 40
1, 4343760, Note_off_c, 1, 38, 0
1, 4343760, Note_on_c, 1, 42, 40
1, 4344240, Note_off_c, 1, 42, 0
1, 4344240, Note_on_c, 1, 45, 40
1, 4344720, Note_off_c, 1, 45, 0
1, 4344720, Note_on_c, 1, 47, 40
1, 4345200, Note_off_c, 1, 47, 0
1, 4345200, Note_on_c, 1, 50, 40
1, 4345680, Note_off_c, 1, 50, 0
1, 4345680, Note_on_c, 1, 47, 40
1, 4346160, Note_off_c, 1, 47, 0
1, 4346160, Note_on_c, 1, 45, 40
1, 4346640, Note_off_c, 1, 45, 0
1, 4346640, Note_on_c, 1, 42, 40
1, 4347120, Note_off_c, 1, 42, 0
1, 4347120, Note_on_c, 1, 38, 40
1, 4347600, Note_off_c, 1, 38, 0
1, 4347600, Note_on_c, 1, 42, 40
1, 4348080, Note_off_c, 1, 42, 0
1, 4348080, Note_on_c, 1, 45, 40
1, 4348560, Note_off_c, 1, 45, 0
1, 4348560, Note_on_c, 1, 45, 40
1, 4349040, Note_off_c, 1, 45, 0
1, 4349040, Note_on_c, 1, 38, 40
1, 4349520, Note_off_c, 1, 38, 0
1, 4349520, Note_on_c, 1, 36, 40
1, 4350000, Note_off_c, 1, 36, 0
1, 4350000, Note_on_c, 1, 35, 40
1, 4350480, Note_off_c, 1, 35, 0
1, 4350480, Note_on_c, 1, 33, 40
1, 4350960, Note_off_c, 1, 33, 0
1, 4350960, Note_on_c, 1, 31, 40
1, 4351440, Note_off_c, 1, 31, 0
1, 4351440, Note_on_c, 1, 35, 40
1, 4351920, Note_off_c, 1, 35, 0
1, 4351920, Note_on_c, 1, 38, 40
1, 4352400, Note_off_c, 1, 38, 0
1, 4352400, Note_on_c, 1, 40, 40
1, 4352880, Note_off_c, 1, 40, 0
1, 4352880, Note_on_c, 1, 43, 40
1, 4353360, Note_off_c, 1, 43, 0
1, 4353360, Note_on_c, 1, 40, 40
1, 4353840, Note_off_c, 1, 40, 0
1, 4353840, Note_on_c, 1, 38, 40
1, 4354320, Note_off_c, 1, 38, 0
1, 4354320, Note_on_c, 1, 35, 40
1, 4354800, Note_off_c, 1, 35, 0
1, 4354800, Note_on_c, 1, 38, 40
1, 4355280, Note_off_c, 1, 38, 0
1, 4355280, Note_on_c, 1, 42, 40
1, 4355760, Note_off_c, 1, 42, 0
1, 4355760, Note_on_c, 1, 45, 40
1, 4356240, Note_off_c, 1, 45, 0
1, 4356240, Note_on_c, 1, 47, 40
1, 4356720, Note_off_c, 1, 47, 0
1, 4356720, Note_on_c, 1, 50, 40
1, 4357200, Note_off_c, 1, 50, 0
1, 4357200, Note_on_c, 1, 47, 40
1, 4357680, Note_off_c, 1, 47, 0
1, 4357680, Note_on_c, 1, 45, 40
1, 4358160, Note_off_c, 1, 45, 0
1, 4358160, Note_on_c, 1, 42, 40
1, 4358640, Note_off_c, 1, 42, 0
1, 4358640, Note_on_c, 1, 45, 40
1, 4359120, Note_off_c, 1, 45, 0
1, 4359120, Note_on_c, 1, 45, 40
1, 4359600, Note_off_c, 1, 45, 0
1, 4359600, Note_on_c, 1, 40, 40
1, 4360080, Note_off_c, 1, 40, 0
1, 4360080, Note_on_c, 1, 40, 40
1, 4360560, Note_off_c, 1, 40, 0
1, 4360560, Note_on_c, 1, 45, 40
1, 4361040, Note_off_c, 1, 45, 0
1, 4361040, Note_on_c, 1, 43, 40
1, 4361520, Note_off_c, 1, 43, 0
1, 4361520, Note_on_c, 1, 42, 40
1, 4362000, Note_off_c, 1, 42, 0
1, 4362000, Note_on_c, 1, 40, 40
1, 4362480, Note_off_c, 1, 40, 0
1, 4362480, Note_on_c, 1, 38, 40
1, 4362960, Note_off_c, 1, 38, 0
1, 4362960, Note_on_c, 1, 42, 40
1, 4363440, Note_off_c, 1, 42, 0
1, 4363440, Note_on_c, 1, 45, 40
1, 4363920, Note_off_c, 1, 45, 0
1, 4363920, Note_on_c, 1, 45, 40
1, 4364400, Note_off_c, 1, 45, 0
1, 4364400, Note_on_c, 1, 45, 40
1, 4364880, Note_off_c, 1, 45, 0
1, 4364880, Note_on_c, 1, 43, 40
1, 4365360, Note_off_c, 1, 43, 0
1, 4365360, Note_on_c, 1, 42, 40
1, 4365840, Note_off_c, 1, 42, 0
1, 4365840, Note_on_c, 1, 40, 40
1, 4366320, Note_off_c, 1, 40, 0
1, 4366320, Note_on_c, 1, 38, 40
1, 4368240, Note_off_c, 1, 38, 0
1, 4368240, Note_on_c, 1, 38, 40
1, 4369440, Note_off_c, 1, 38, 0
1, 4369560, Note_on_c, 1, 38, 40
1, 4369680, Note_off_c, 1, 38, 0
1, 4369680, Note_on_c, 1, 38, 40
1, 4370160, Note_off_c, 1, 38, 0
1, 4370160, Note_on_c, 1, 46, 40
1, 4372080, Note_off_c, 1, 46, 0
1, 4372080, Note_on_c, 1, 46, 40
1, 4373280, Note_off_c, 1, 46, 0
1, 4373400, Note_on_c, 1, 46, 40
1, 4373520, Note_off_c, 1, 46, 0
1, 4373520, Note_on_c, 1, 46, 40
1, 4374000, Note_off_c, 1, 46, 0
1, 4374000, Note_on_c, 1, 38, 40
1, 4375920, Note_off_c, 1, 38, 0
1, 4375920, Note_on_c, 1, 38, 40
1, 4377120, Note_off_c, 1, 38, 0
1, 4377240, Note_on_c, 1, 38, 40
1, 4377360, Note_off_c, 1, 38, 0
1, 4377360, Note_on_c, 1, 38, 40
1, 4377840, Note_off_c, 1, 38, 0
1, 4377840, Note_on_c, 1, 46, 40
1, 4379760, Note_off_c, 1, 46, 0
1, 4379760, Note_on_c, 1, 46, 40
1, 4381680, Note_off_c, 1, 46, 0
1, 4381680, Note_on_c, 1, 45, 40
1, 4382160, Note_off_c, 1, 45, 0
1, 4382160, Note_on_c, 1, 43, 40
1, 4382640, Note_off_c, 1, 43, 0
1, 4382640, Note_on_c, 1, 40, 40
1, 4383120, Note_off_c, 1, 40, 0
1, 4383120, Note_on_c, 1, 43, 40
1, 4383600, Note_off_c, 1, 43, 0
1, 4383600, Note_on_c, 1, 45, 40
1, 4384080, Note_off_c, 1, 45, 0
1, 4384080, Note_on_c, 1, 43, 40
1, 4384560, Note_off_c, 1, 43, 0
1, 4384560, Note_on_c, 1, 42, 40
1, 4385040, Note_off_c, 1, 42, 0
1, 4385040, Note_on_c, 1, 40, 40
1, 4385520, Note_off_c, 1, 40, 0
1, 4385520, Note_on_c, 1, 38, 40
1, 4386000, Note_off_c, 1, 38, 0
1, 4386000, Note_on_c, 1, 42, 40
1, 4386480, Note_off_c, 1, 42, 0
1, 4386480, Note_on_c, 1, 45, 40
1, 4386960, Note_off_c, 1, 45, 0
1, 4386960, Note_on_c, 1, 47, 40
1, 4387440, Note_off_c, 1, 47, 0
1, 4387440, Note_on_c, 1, 50, 40
1, 4387920, Note_off_c, 1, 50, 0
1, 4387920, Note_on_c, 1, 47, 40
1, 4388400, Note_off_c, 1, 47, 0
1, 4388400, Note_on_c, 1, 45, 40
1, 4388880, Note_off_c, 1, 45, 0
1, 4388880, Note_on_c, 1, 42, 40
1, 4389360, Note_off_c, 1, 42, 0
1, 4389360, Note_on_c, 1, 38, 40
1, 4389840, Note_off_c, 1, 38, 0
1, 4389840, Note_on_c, 1, 42, 40
1, 4390320, Note_off_c, 1, 42, 0
1, 4390320, Note_on_c, 1, 45, 40
1, 4390800, Note_off_c, 1, 45, 0
1, 4390800, Note_on_c, 1, 47, 40
1, 4391280, Note_off_c, 1, 47, 0
1, 4391280, Note_on_c, 1, 50, 40
1, 4391760, Note_off_c, 1, 50, 0
1, 4391760, Note_on_c, 1, 47, 40
1, 4392240, Note_off_c, 1, 47, 0
1, 4392240, Note_on_c, 1, 45, 40
1, 4392720, Note_off_c, 1, 45, 0
1, 4392720, Note_on_c, 1, 42, 40
1, 4393200, Note_off_c, 1, 42, 0
1, 4393200, Note_on_c, 1, 38, 40
1, 4393680, Note_off_c, 1, 38, 0
1, 4393680, Note_on_c, 1, 42, 40
1, 4394160, Note_off_c, 1, 42, 0
1, 4394160, Note_on_c, 1, 45, 40
1, 4394640, Note_off_c, 1, 45, 0
1, 4394640, Note_on_c, 1, 45, 40
1, 4395120, Note_off_c, 1, 45, 0
1, 4395120, Note_on_c, 1, 38, 40
1, 4395600, Note_off_c, 1, 38, 0
1, 4395600, Note_on_c, 1, 36, 40
1, 4396080, Note_off_c, 1, 36, 0
1, 4396080, Note_on_c, 1, 35, 40
1, 4396560, Note_off_c, 1, 35, 0
1, 4396560, Note_on_c, 1, 33, 40
1, 4397040, Note_off_c, 1, 33, 0
1, 4397040, Note_on_c, 1, 31, 40
1, 4397520, Note_off_c, 1, 31, 0
1, 4397520, Note_on_c, 1, 35, 40
1, 4398000, Note_off_c, 1, 35, 0
1, 4398000, Note_on_c, 1, 38, 40
1, 4398480, Note_off_c, 1, 38, 0
1, 4398480, Note_on_c, 1, 40, 40
1, 4398960, Note_off_c, 1, 40, 0
1, 4398960, Note_on_c, 1, 43, 40
1, 4399440, Note_off_c, 1, 43, 0
1, 4399440, Note_on_c, 1, 40, 40
1, 4399920, Note_off_c, 1, 40, 0
1, 4399920, Note_on_c, 1, 38, 40
1, 4400400, Note_off_c, 1, 38, 0
1, 4400400, Note_on_c, 1, 35, 40
1, 4400880, Note_off_c, 1, 35, 0
1, 4400880, Note_on_c, 1, 38, 40
1, 4401360, Note_off_c, 1, 38, 0
1, 4401360, Note_on_c, 1, 42, 40
1, 4401840, Note_off_c, 1, 42, 0
1, 4401840, Note_on_c, 1, 45, 40
1, 4402320, Note_off_c, 1, 45, 0
1, 4402320, Note_on_c, 1, 47, 40
1, 4402800, Note_off_c, 1, 47, 0
1, 4402800, Note_on_c, 1, 50, 40
1, 4403280, Note_off_c, 1, 50, 0
1, 4403280, Note_on_c, 1, 47, 40
1, 4403760, Note_off_c, 1, 47, 0
1, 4403760, Note_on_c, 1, 45, 40
1, 4404240, Note_off_c, 1, 45, 0
1, 4404240, Note_on_c, 1, 42, 40
1, 4404720, Note_off_c, 1, 42, 0
1, 4404720, Note_on_c, 1, 45, 40
1, 4405200, Note_off_c, 1, 45, 0
1, 4405200, Note_on_c, 1, 45, 40
1, 4405680, Note_off_c, 1, 45, 0
1, 4405680, Note_on_c, 1, 40, 40
1, 4406160, Note_off_c, 1, 40, 0
1, 4406160, Note_on_c, 1, 40, 40
1, 4406640, Note_off_c, 1, 40, 0
1, 4406640, Note_on_c, 1, 45, 40
1, 4407120, Note_off_c, 1, 45, 0
1, 4407120, Note_on_c, 1, 43, 40
1, 4407600, Note_off_c, 1, 43, 0
1, 4407600, Note_on_c, 1, 42, 40
1, 4408080, Note_off_c, 1, 42, 0
1, 4408080, Note_on_c, 1, 40, 40
1, 4408560, Note_off_c, 1, 40, 0
1, 4408560, Note_on_c, 1, 38, 40
1, 4409040, Note_off_c, 1, 38, 0
1, 4409040, Note_on_c, 1, 42, 40
1, 4409520, Note_off_c, 1, 42, 0
1, 4409520, Note_on_c, 1, 45, 40
1, 4410000, Note_off_c, 1, 45, 0
1, 4410000, Note_on_c, 1, 45, 40
1, 4410480, Note_off_c, 1, 45, 0
1, 4410480, Note_on_c, 1, 45, 40
1, 4410960, Note_off_c, 1, 45, 0
1, 4410960, Note_on_c, 1, 43, 40
1, 4411440, Note_off_c, 1, 43, 0
1, 4411440, Note_on_c, 1, 42, 40
1, 4411920, Note_off_c, 1, 42, 0
1, 4411920, Note_on_c, 1, 40, 40
1, 4412400, Note_off_c, 1, 40, 0
1, 4412400, Note_on_c, 1, 38, 40
1, 4412880, Note_off_c, 1, 38, 0
1, 4412880, Note_on_c, 1, 38, 40
1, 4413360, Note_off_c, 1, 38, 0
1, 4413360, Note_on_c, 1, 45, 40
1, 4413840, Note_off_c, 1, 45, 0
1, 4413840, Note_on_c, 1, 45, 40
1, 4414320, Note_off_c, 1, 45, 0
1, 4414320, Note_on_c, 1, 38, 40
1, 4414800, Note_off_c, 1, 38, 0
1, 4414800, Note_on_c, 1, 38, 40
1, 4415280, Note_off_c, 1, 38, 0
1, 4415280, Note_on_c, 1, 45, 40
1, 4415760, Note_off_c, 1, 45, 0
1, 4415760, Note_on_c, 1, 38, 40
1, 4416240, Note_off_c, 1, 38, 0
1, 4416240, Note_on_c, 1, 46, 40
1, 4416720, Note_off_c, 1, 46, 0
1, 4416720, Note_on_c, 1, 46, 40
1, 4417200, Note_off_c, 1, 46, 0
1, 4417200, Note_on_c, 1, 41, 40
1, 4417680, Note_off_c, 1, 41, 0
1, 4417680, Note_on_c, 1, 41, 40
1, 4418160, Note_off_c, 1, 41, 0
1, 4418160, Note_on_c, 1, 46, 40
1, 4418640, Note_off_c, 1, 46, 0
1, 4418640, Note_on_c, 1, 46, 40
1, 4419120, Note_off_c, 1, 46, 0
1, 4419120, Note_on_c, 1, 41, 40
1, 4419600, Note_off_c, 1, 41, 0
1, 4419600, Note_on_c, 1, 46, 40
1, 4420080, Note_off_c, 1, 46, 0
1, 4420080, Note_on_c, 1, 38, 40
1, 4420560, Note_off_c, 1, 38, 0
1, 4420560, Note_on_c, 1, 38, 40
1, 4421040, Note_off_c, 1, 38, 0
1, 4421040, Note_on_c, 1, 45, 40
1, 4421520, Note_off_c, 1, 45, 0
1, 4421520, Note_on_c, 1, 45, 40
1, 4422000, Note_off_c, 1, 45, 0
1, 4422000, Note_on_c, 1, 38, 40
1, 4422480, Note_off_c, 1, 38, 0
1, 4422480, Note_on_c, 1, 38, 40
1, 4422960, Note_off_c, 1, 38, 0
1, 4422960, Note_on_c, 1, 45, 40
1, 4423440, Note_off_c, 1, 45, 0
1, 4423440, Note_on_c, 1, 38, 40
1, 4423920, Note_off_c, 1, 38, 0
1, 4423920, Note_on_c, 1, 46, 40
1, 4424400, Note_off_c, 1, 46, 0
1, 4424400, Note_on_c, 1, 46, 40
1, 4424880, Note_off_c, 1, 46, 0
1, 4424880, Note_on_c, 1, 41, 40
1, 4425360, Note_off_c, 1, 41, 0
1, 4425360, Note_on_c, 1, 46, 40
1, 4425840, Note_off_c, 1, 46, 0
1, 4425840, Note_on_c, 1, 45, 40
1, 4426320, Note_off_c, 1, 45, 0
1, 4426320, Note_on_c, 1, 43, 40
1, 4426800, Note_off_c, 1, 43, 0
1, 4426800, Note_on_c, 1, 42, 40
1, 4427280, Note_off_c, 1, 42, 0
1, 4427280, Note_on_c, 1, 40, 40
1, 4427760, Note_off_c, 1, 40, 0
1, 4427760, Note_on_c, 1, 38, 40
1, 4428240, Note_off_c, 1, 38, 0
1, 4428240, Note_on_c, 1, 42, 40
1, 4428720, Note_off_c, 1, 42, 0
1, 4428720, Note_on_c, 1, 45, 40
1, 4429200, Note_off_c, 1, 45, 0
1, 4429200, Note_on_c, 1, 47, 40
1, 4429680, Note_off_c, 1, 47, 0
1, 4429680, Note_on_c, 1, 50, 40
1, 4430160, Note_off_c, 1, 50, 0
1, 4430160, Note_on_c, 1, 47, 40
1, 4430640, Note_off_c, 1, 47, 0
1, 4430640, Note_on_c, 1, 45, 40
1, 4431120, Note_off_c, 1, 45, 0
1, 4431120, Note_on_c, 1, 42, 40
1, 4431600, Note_off_c, 1, 42, 0
1, 4431600, Note_on_c, 1, 38, 40
1, 4432080, Note_off_c, 1, 38, 0
1, 4432080, Note_on_c, 1, 42, 40
1, 4432560, Note_off_c, 1, 42, 0
1, 4432560, Note_on_c, 1, 45, 40
1, 4433040, Note_off_c, 1, 45, 0
1, 4433040, Note_on_c, 1, 47, 40
1, 4433520, Note_off_c, 1, 47, 0
1, 4433520, Note_on_c, 1, 50, 40
1, 4434000, Note_off_c, 1, 50, 0
1, 4434000, Note_on_c, 1, 47, 40
1, 4434480, Note_off_c, 1, 47, 0
1, 4434480, Note_on_c, 1, 45, 40
1, 4434960, Note_off_c, 1, 45, 0
1, 4434960, Note_on_c, 1, 42, 40
1, 4435440, Note_off_c, 1, 42, 0
1, 4435440, Note_on_c, 1, 43, 40
1, 4435920, Note_off_c, 1, 43, 0
1, 4435920, Note_on_c, 1, 43, 40
1, 4436400, Note_off_c, 1, 43, 0
1, 4436400, Note_on_c, 1, 38, 40
1, 4436880, Note_off_c, 1, 38, 0
1, 4436880, Note_on_c, 1, 40, 40
1, 4437360, Note_off_c, 1, 40, 0
1, 4437360, Note_on_c, 1, 43, 40
1, 4437840, Note_off_c, 1, 43, 0
1, 4437840, Note_on_c, 1, 40, 40
1, 4438320, Note_off_c, 1, 40, 0
1, 4438320, Note_on_c, 1, 38, 40
1, 4438800, Note_off_c, 1, 38, 0
1, 4438800, Note_on_c, 1, 40, 40
1, 4439280, Note_off_c, 1, 40, 0
1, 4439280, Note_on_c, 1, 38, 40
1, 4439760, Note_off_c, 1, 38, 0
1, 4439760, Note_on_c, 1, 42, 40
1, 4440240, Note_off_c, 1, 42, 0
1, 4440240, Note_on_c, 1, 45, 40
1, 4440720, Note_off_c, 1, 45, 0
1, 4440720, Note_on_c, 1, 47, 40
1, 4441200, Note_off_c, 1, 47, 0
1, 4441200, Note_on_c, 1, 50, 40
1, 4441680, Note_off_c, 1, 50, 0
1, 4441680, Note_on_c, 1, 47, 40
1, 4442160, Note_off_c, 1, 47, 0
1, 4442160, Note_on_c, 1, 45, 40
1, 4442640, Note_off_c, 1, 45, 0
1, 4442640, Note_on_c, 1, 42, 40
1, 4443120, Note_off_c, 1, 42, 0
1, 4443120, Note_on_c, 1, 45, 40
1, 4443600, Note_off_c, 1, 45, 0
1, 4443600, Note_on_c, 1, 45, 40
1, 4444080, Note_off_c, 1, 45, 0
1, 4444080, Note_on_c, 1, 40, 40
1, 4444560, Note_off_c, 1, 40, 0
1, 4444560, Note_on_c, 1, 40, 40
1, 4445040, Note_off_c, 1, 40, 0
1, 4445040, Note_on_c, 1, 45, 40
1, 4445520, Note_off_c, 1, 45, 0
1, 4445520, Note_on_c, 1, 43, 40
1, 4446000, Note_off_c, 1, 43, 0
1, 4446000, Note_on_c, 1, 42, 40
1, 4446480, Note_off_c, 1, 42, 0
1, 4446480, Note_on_c, 1, 40, 40
1, 4446960, Note_off_c, 1, 40, 0
1, 4446960, Note_on_c, 1, 38, 40
1, 4447440, Note_off_c, 1, 38, 0
1, 4447440, Note_on_c, 1, 42, 40
1, 4447920, Note_off_c, 1, 42, 0
1, 4447920, Note_on_c, 1, 43, 40
1, 4448400, Note_off_c, 1, 43, 0
1, 4448400, Note_on_c, 1, 44, 40
1, 4448880, Note_off_c, 1, 44, 0
1, 4448880, Note_on_c, 1, 45, 40
1, 4449360, Note_off_c, 1, 45, 0
1, 4449360, Note_on_c, 1, 43, 40
1, 4449840, Note_off_c, 1, 43, 0
1, 4449840, Note_on_c, 1, 42, 40
1, 4450320, Note_off_c, 1, 42, 0
1, 4450320, Note_on_c, 1, 40, 40
1, 4450800, Note_off_c, 1, 40, 0
1, 4450800, Note_on_c, 1, 38, 40
1, 4452720, Note_off_c, 1, 38, 0
1, 4452720, Note_on_c, 1, 38, 40
1, 4453920, Note_off_c, 1, 38, 0
1, 4454040, Note_on_c, 1, 38, 40
1, 4454160, Note_off_c, 1, 38, 0
1, 4454160, Note_on_c, 1, 38, 40
1, 4454640, Note_off_c, 1, 38, 0
1, 4454640, Note_on_c, 1, 46, 40
1, 4456560, Note_off_c, 1, 46, 0
1, 4456560, Note_on_c, 1, 46, 40
1, 4457760, Note_off_c, 1, 46, 0
1, 4457880, Note_on_c, 1, 46, 40
1, 4458000, Note_off_c, 1, 46, 0
1, 4458000, Note_on_c, 1, 46, 40
1, 4458480, Note_off_c, 1, 46, 0
1, 4458480, Note_on_c, 1, 38, 40
1, 4460400, Note_off_c, 1, 38, 0
1, 4460400, Note_on_c, 1, 38, 40
1, 4461600, Note_off_c, 1, 38, 0
1, 4461720, Note_on_c, 1, 38, 40
1, 4461840, Note_off_c, 1, 38, 0
1, 4461840, Note_on_c, 1, 38, 40
1, 4462320, Note_off_c, 1, 38, 0
1, 4462320, Note_on_c, 1, 46, 40
1, 4464240, Note_off_c, 1, 46, 0
1, 4464240, Note_on_c, 1, 46, 40
1, 4466160, Note_off_c, 1, 46, 0
1, 4466160, Note_on_c, 1, 45, 40
1, 4466640, Note_off_c, 1, 45, 0
1, 4466640, Note_on_c, 1, 43, 40
1, 4467120, Note_off_c, 1, 43, 0
1, 4467120, Note_on_c, 1, 40, 40
1, 4467600, Note_off_c, 1, 40, 0
1, 4467600, Note_on_c, 1, 43, 40
1, 4468080, Note_off_c, 1, 43, 0
1, 4468080, Note_on_c, 1, 45, 40
1, 4468560, Note_off_c, 1, 45, 0
1, 4468560, Note_on_c, 1, 43, 40
1, 4469040, Note_off_c, 1, 43, 0
1, 4469040, Note_on_c, 1, 42, 40
1, 4469520, Note_off_c, 1, 42, 0
1, 4469520, Note_on_c, 1, 40, 40
1, 4470000, Note_off_c, 1, 40, 0
1, 4470000, Note_on_c, 1, 38, 40
1, 4470480, Note_off_c, 1, 38, 0
1, 4470480, Note_on_c, 1, 42, 40
1, 4470960, Note_off_c, 1, 42, 0
1, 4470960, Note_on_c, 1, 45, 40
1, 4471440, Note_off_c, 1, 45, 0
1, 4471440, Note_on_c, 1, 47, 40
1, 4471920, Note_off_c, 1, 47, 0
1, 4471920, Note_on_c, 1, 50, 40
1, 4472400, Note_off_c, 1, 50, 0
1, 4472400, Note_on_c, 1, 47, 40
1, 4472880, Note_off_c, 1, 47, 0
1, 4472880, Note_on_c, 1, 45, 40
1, 4473360, Note_off_c, 1, 45, 0
1, 4473360, Note_on_c, 1, 42, 40
1, 4473840, Note_off_c, 1, 42, 0
1, 4473840, Note_on_c, 1, 38, 40
1, 4474320, Note_off_c, 1, 38, 0
1, 4474320, Note_on_c, 1, 42, 40
1, 4474800, Note_off_c, 1, 42, 0
1, 4474800, Note_on_c, 1, 45, 40
1, 4475280, Note_off_c, 1, 45, 0
1, 4475280, Note_on_c, 1, 47, 40
1, 4475760, Note_off_c, 1, 47, 0
1, 4475760, Note_on_c, 1, 50, 40
1, 4476240, Note_off_c, 1, 50, 0
1, 4476240, Note_on_c, 1, 47, 40
1, 4476720, Note_off_c, 1, 47, 0
1, 4476720, Note_on_c, 1, 45, 40
1, 4477200, Note_off_c, 1, 45, 0
1, 4477200, Note_on_c, 1, 42, 40
1, 4477680, Note_off_c, 1, 42, 0
1, 4477680, Note_on_c, 1, 38, 40
1, 4478160, Note_off_c, 1, 38, 0
1, 4478160, Note_on_c, 1, 42, 40
1, 4478640, Note_off_c, 1, 42, 0
1, 4478640, Note_on_c, 1, 45, 40
1, 4479120, Note_off_c, 1, 45, 0
1, 4479120, Note_on_c, 1, 45, 40
1, 4479600, Note_off_c, 1, 45, 0
1, 4479600, Note_on_c, 1, 38, 40
1, 4480080, Note_off_c, 1, 38, 0
1, 4480080, Note_on_c, 1, 36, 40
1, 4480560, Note_off_c, 1, 36, 0
1, 4480560, Note_on_c, 1, 35, 40
1, 4481040, Note_off_c, 1, 35, 0
1, 4481040, Note_on_c, 1, 33, 40
1, 4481520, Note_off_c, 1, 33, 0
1, 4481520, Note_on_c, 1, 31, 40
1, 4482000, Note_off_c, 1, 31, 0
1, 4482000, Note_on_c, 1, 35, 40
1, 4482480, Note_off_c, 1, 35, 0
1, 4482480, Note_on_c, 1, 38, 40
1, 4482960, Note_off_c, 1, 38, 0
1, 4482960, Note_on_c, 1, 40, 40
1, 4483440, Note_off_c, 1, 40, 0
1, 4483440, Note_on_c, 1, 43, 40
1, 4483920, Note_off_c, 1, 43, 0
1, 4483920, Note_on_c, 1, 40, 40
1, 4484400, Note_off_c, 1, 40, 0
1, 4484400, Note_on_c, 1, 38, 40
1, 4484880, Note_off_c, 1, 38, 0
1, 4484880, Note_on_c, 1, 35, 40
1, 4485360, Note_off_c, 1, 35, 0
1, 4485360, Note_on_c, 1, 38, 40
1, 4485840, Note_off_c, 1, 38, 0
1, 4485840, Note_on_c, 1, 42, 40
1, 4486320, Note_off_c, 1, 42, 0
1, 4486320, Note_on_c, 1, 45, 40
1, 4486800, Note_off_c, 1, 45, 0
1, 4486800, Note_on_c, 1, 47, 40
1, 4487280, Note_off_c, 1, 47, 0
1, 4487280, Note_on_c, 1, 50, 40
1, 4487760, Note_off_c, 1, 50, 0
1, 4487760, Note_on_c, 1, 47, 40
1, 4488240, Note_off_c, 1, 47, 0
1, 4488240, Note_on_c, 1, 45, 40
1, 4488720, Note_off_c, 1, 45, 0
1, 4488720, Note_on_c, 1, 42, 40
1, 4489200, Note_off_c, 1, 42, 0
1, 4489200, Note_on_c, 1, 45, 40
1, 4489680, Note_off_c, 1, 45, 0
1, 4489680, Note_on_c, 1, 45, 40
1, 4490160, Note_off_c, 1, 45, 0
1, 4490160, Note_on_c, 1, 40, 40
1, 4490640, Note_off_c, 1, 40, 0
1, 4490640, Note_on_c, 1, 40, 40
1, 4491120, Note_off_c, 1, 40, 0
1, 4491120, Note_on_c, 1, 45, 40
1, 4491600, Note_off_c, 1, 45, 0
1, 4491600, Note_on_c, 1, 43, 40
1, 4492080, Note_off_c, 1, 43, 0
1, 4492080, Note_on_c, 1, 42, 40
1, 4492560, Note_off_c, 1, 42, 0
1, 4492560, Note_on_c, 1, 40, 40
1, 4493040, Note_off_c, 1, 40, 0
1, 4493040, Note_on_c, 1, 38, 40
1, 4493520, Note_off_c, 1, 38, 0
1, 4493520, Note_on_c, 1, 42, 40
1, 4494000, Note_off_c, 1, 42, 0
1, 4494000, Note_on_c, 1, 45, 40
1, 4494480, Note_off_c, 1, 45, 0
1, 4494480, Note_on_c, 1, 45, 40
1, 4494960, Note_off_c, 1, 45, 0
1, 4494960, Note_on_c, 1, 45, 40
1, 4495440, Note_off_c, 1, 45, 0
1, 4495440, Note_on_c, 1, 43, 40
1, 4495920, Note_off_c, 1, 43, 0
1, 4495920, Note_on_c, 1, 42, 40
1, 4496400, Note_off_c, 1, 42, 0
1, 4496400, Note_on_c, 1, 40, 40
1, 4496880, Note_off_c, 1, 40, 0
1, 4496880, Note_on_c, 1, 38, 40
1, 4497360, Note_off_c, 1, 38, 0
1, 4497360, Note_on_c, 1, 38, 40
1, 4497840, Note_off_c, 1, 38, 0
1, 4497840, Note_on_c, 1, 38, 40
1, 4498320, Note_off_c, 1, 38, 0
1, 4498320, Note_on_c, 1, 38, 40
1, 4498800, Note_off_c, 1, 38, 0
1, 4498800, Note_on_c, 1, 38, 40
1, 4499280, Note_off_c, 1, 38, 0
1, 4499280, Note_on_c, 1, 38, 40
1, 4499760, Note_off_c, 1, 38, 0
1, 4499760, Note_on_c, 1, 38, 40
1, 4500240, Note_off_c, 1, 38, 0
1, 4500240, Note_on_c, 1, 38, 40
1, 4500720, Note_off_c, 1, 38, 0
1, 4500720, Note_on_c, 1, 46, 40
1, 4501200, Note_off_c, 1, 46, 0
1, 4501200, Note_on_c, 1, 46, 40
1, 4501680, Note_off_c, 1, 46, 0
1, 4501680, Note_on_c, 1, 46, 40
1, 4502160, Note_off_c, 1, 46, 0
1, 4502160, Note_on_c, 1, 46, 40
1, 4502640, Note_off_c, 1, 46, 0
1, 4502640, Note_on_c, 1, 46, 40
1, 4503120, Note_off_c, 1, 46, 0
1, 4503120, Note_on_c, 1, 46, 40
1, 4503600, Note_off_c, 1, 46, 0
1, 4503600, Note_on_c, 1, 46, 40
1, 4504080, Note_off_c, 1, 46, 0
1, 4504080, Note_on_c, 1, 46, 40
1, 4504560, Note_off_c, 1, 46, 0
1, 4504560, Note_on_c, 1, 38, 40
1, 4505040, Note_off_c, 1, 38, 0
1, 4505040, Note_on_c, 1, 38, 40
1, 4505520, Note_off_c, 1, 38, 0
1, 4505520, Note_on_c, 1, 38, 40
1, 4506000, Note_off_c, 1, 38, 0
1, 4506000, Note_on_c, 1, 38, 40
1, 4506480, Note_off_c, 1, 38, 0
1, 4506480, Note_on_c, 1, 38, 40
1, 4506960, Note_off_c, 1, 38, 0
1, 4506960, Note_on_c, 1, 38, 40
1, 4507440, Note_off_c, 1, 38, 0
1, 4507440, Note_on_c, 1, 38, 40
1, 4507920, Note_off_c, 1, 38, 0
1, 4507920, Note_on_c, 1, 38, 40
1, 4508400, Note_off_c, 1, 38, 0
1, 4508400, Note_on_c, 1, 46, 40
1, 4508880, Note_off_c, 1, 46, 0
1, 4508880, Note_on_c, 1, 46, 40
1, 4509360, Note_off_c, 1, 46, 0
1, 4509360, Note_on_c, 1, 46, 40
1, 4509840, Note_off_c, 1, 46, 0
1, 4509840, Note_on_c, 1, 46, 40
1, 4510320, Note_off_c, 1, 46, 0
1, 4510320, Note_on_c, 1, 45, 40
1, 4510800, Note_off_c, 1, 45, 0
1, 4510800, Note_on_c, 1, 43, 40
1, 4511280, Note_off_c, 1, 43, 0
1, 4511280, Note_on_c, 1, 42, 40
1, 4511760, Note_off_c, 1, 42, 0
1, 4511760, Note_on_c, 1, 40, 40
1, 4512240, Note_off_c, 1, 40, 0
1, 4512240, Note_on_c, 1, 38, 40
1, 4512720, Note_off_c, 1, 38, 0
1, 4512720, Note_on_c, 1, 42, 40
1, 4513200, Note_off_c, 1, 42, 0
1, 4513200, Note_on_c, 1, 45, 40
1, 4513680, Note_off_c, 1, 45, 0
1, 4513680, Note_on_c, 1, 47, 40
1, 4514160, Note_off_c, 1, 47, 0
1, 4514160, Note_on_c, 1, 50, 40
1, 4514640, Note_off_c, 1, 50, 0
1, 4514640, Note_on_c, 1, 47, 40
1, 4515120, Note_off_c, 1, 47, 0
1, 4515120, Note_on_c, 1, 45, 40
1, 4515600, Note_off_c, 1, 45, 0
1, 4515600, Note_on_c, 1, 42, 40
1, 4516080, Note_off_c, 1, 42, 0
1, 4516080, Note_on_c, 1, 38, 40
1, 4516560, Note_off_c, 1, 38, 0
1, 4516560, Note_on_c, 1, 42, 40
1, 4517040, Note_off_c, 1, 42, 0
1, 4517040, Note_on_c, 1, 45, 40
1, 4517520, Note_off_c, 1, 45, 0
1, 4517520, Note_on_c, 1, 47, 40
1, 4518000, Note_off_c, 1, 47, 0
1, 4518000, Note_on_c, 1, 50, 40
1, 4518480, Note_off_c, 1, 50, 0
1, 4518480, Note_on_c, 1, 47, 40
1, 4518960, Note_off_c, 1, 47, 0
1, 4518960, Note_on_c, 1, 45, 40
1, 4519440, Note_off_c, 1, 45, 0
1, 4519440, Note_on_c, 1, 42, 40
1, 4519920, Note_off_c, 1, 42, 0
1, 4519920, Note_on_c, 1, 43, 40
1, 4520400, Note_off_c, 1, 43, 0
1, 4520400, Note_on_c, 1, 43, 40
1, 4520880, Note_off_c, 1, 43, 0
1, 4520880, Note_on_c, 1, 38, 40
1, 4521360, Note_off_c, 1, 38, 0
1, 4521360, Note_on_c, 1, 38, 40
1, 4521840, Note_off_c, 1, 38, 0
1, 4521840, Note_on_c, 1, 41, 40
1, 4522320, Note_off_c, 1, 41, 0
1, 4522320, Note_on_c, 1, 41, 40
1, 4522800, Note_off_c, 1, 41, 0
1, 4522800, Note_on_c, 1, 38, 40
1, 4523280, Note_off_c, 1, 38, 0
1, 4523280, Note_on_c, 1, 35, 40
1, 4523760, Note_off_c, 1, 35, 0
1, 4523760, Note_on_c, 1, 38, 40
1, 4524240, Note_off_c, 1, 38, 0
1, 4524240, Note_on_c, 1, 42, 40
1, 4524720, Note_off_c, 1, 42, 0
1, 4524720, Note_on_c, 1, 45, 40
1, 4525200, Note_off_c, 1, 45, 0
1, 4525200, Note_on_c, 1, 47, 40
1, 4525680, Note_off_c, 1, 47, 0
1, 4525680, Note_on_c, 1, 48, 40
1, 4526160, Note_off_c, 1, 48, 0
1, 4526160, Note_on_c, 1, 47, 40
1, 4526640, Note_off_c, 1, 47, 0
1, 4526640, Note_on_c, 1, 45, 40
1, 4527120, Note_off_c, 1, 45, 0
1, 4527120, Note_on_c, 1, 42, 40
1, 4527600, Note_off_c, 1, 42, 0
1, 4527600, Note_on_c, 1, 45, 40
1, 4528080, Note_off_c, 1, 45, 0
1, 4528080, Note_on_c, 1, 43, 40
1, 4528560, Note_off_c, 1, 43, 0
1, 4528560, Note_on_c, 1, 40, 40
1, 4529040, Note_off_c, 1, 40, 0
1, 4529040, Note_on_c, 1, 43, 40
1, 4529520, Note_off_c, 1, 43, 0
1, 4529520, Note_on_c, 1, 45, 40
1, 4530000, Note_off_c, 1, 45, 0
1, 4530000, Note_on_c, 1, 43, 40
1, 4530480, Note_off_c, 1, 43, 0
1, 4530480, Note_on_c, 1, 42, 40
1, 4530960, Note_off_c, 1, 42, 0
1, 4530960, Note_on_c, 1, 40, 40
1, 4531440, Note_off_c, 1, 40, 0
1, 4531440, Note_on_c, 1, 38, 40
1, 4531920, Note_off_c, 1, 38, 0
1, 4531920, Note_on_c, 1, 42, 40
1, 4532400, Note_off_c, 1, 42, 0
1, 4532400, Note_on_c, 1, 43, 40
1, 4532880, Note_off_c, 1, 43, 0
1, 4532880, Note_on_c, 1, 44, 40
1, 4533360, Note_off_c, 1, 44, 0
1, 4533360, Note_on_c, 1, 45, 40
1, 4533840, Note_off_c, 1, 45, 0
1, 4533840, Note_on_c, 1, 45, 40
1, 4534080, Note_off_c, 1, 45, 0
1, 4534200, Note_on_c, 1, 38, 40
1, 4534800, Note_off_c, 1, 38, 0
1, 4534800, Note_on_c, 1, 50, 40
1, 4536720, Note_off_c, 1, 50, 0
1, 4536720, Note_on_c, 1, 50, 40
1, 4538640, Note_off_c, 1, 50, 0
1, 4538640, Note_on_c, 1, 50, 40
1, 4540560, Note_off_c, 1, 50, 0
1, 4540560, Note_on_c, 1, 50, 40
1, 4541040, Note_off_c, 1, 50, 0
1, 4548720, Note_on_c, 1, 45, 40
1, 4548840, Note_off_c, 1, 45, 0
1, 4548840, Note_on_c, 1, 47, 40
1, 4549200, Note_off_c, 1, 47, 0
1, 4549200, Note_on_c, 1, 47, 40
1, 4549440, Note_off_c, 1, 47, 0
1, 4549440, Note_on_c, 1, 47, 40
1, 4549680, Note_off_c, 1, 47, 0
1, 4549680, Note_on_c, 1, 47, 40
1, 4549920, Note_off_c, 1, 47, 0
1, 4549920, Note_on_c, 1, 47, 40
1, 4550160, Note_off_c, 1, 47, 0
1, 4550160, Note_on_c, 1, 47, 40
1, 4550400, Note_off_c, 1, 47, 0
1, 4550400, Note_on_c, 1, 47, 40
1, 4550640, Note_off_c, 1, 47, 0
1, 4550640, Note_on_c, 1, 49, 40
1, 4550760, Note_off_c, 1, 49, 0
1, 4550760, Note_on_c, 1, 52, 40
1, 4551120, Note_off_c, 1, 52, 0
1, 4551120, Note_on_c, 1, 52, 40
1, 4551360, Note_off_c, 1, 52, 0
1, 4551360, Note_on_c, 1, 52, 40
1, 4551600, Note_off_c, 1, 52, 0
1, 4551600, Note_on_c, 1, 52, 40
1, 4551840, Note_off_c, 1, 52, 0
1, 4552080, Note_on_c, 1, 52, 40
1, 4552320, Note_off_c, 1, 52, 0
1, 4552320, Note_on_c, 1, 52, 40
1, 4552560, Note_off_c, 1, 52, 0
1, 4552560, Note_on_c, 1, 44, 40
1, 4552680, Note_off_c, 1, 44, 0
1, 4552680, Note_on_c, 1, 45, 40
1, 4553040, Note_off_c, 1, 45, 0
1, 4553040, Note_on_c, 1, 45, 40
1, 4553280, Note_off_c, 1, 45, 0
1, 4553280, Note_on_c, 1, 45, 40
1, 4553520, Note_off_c, 1, 45, 0
1, 4553520, Note_on_c, 1, 45, 40
1, 4554000, Note_off_c, 1, 45, 0
1, 4554000, Note_on_c, 1, 45, 40
1, 4554240, Note_off_c, 1, 45, 0
1, 4554240, Note_on_c, 1, 45, 40
1, 4554480, Note_off_c, 1, 45, 0
1, 4554480, Note_on_c, 1, 52, 40
1, 4554960, Note_off_c, 1, 52, 0
1, 4554960, Note_on_c, 1, 52, 40
1, 4555440, Note_off_c, 1, 52, 0
1, 4555440, Note_on_c, 1, 52, 40
1, 4555680, Note_off_c, 1, 52, 0
1, 4555680, Note_on_c, 1, 52, 40
1, 4556160, Note_off_c, 1, 52, 0
1, 4556160, Note_on_c, 1, 52, 40
1, 4556400, Note_off_c, 1, 52, 0
1, 4556400, Note_on_c, 1, 44, 40
1, 4556520, Note_off_c, 1, 44, 0
1, 4556520, Note_on_c, 1, 45, 40
1, 4556880, Note_off_c, 1, 45, 0
1, 4556880, Note_on_c, 1, 45, 40
1, 4557360, Note_off_c, 1, 45, 0
1, 4557360, Note_on_c, 1, 45, 40
1, 4557840, Note_off_c, 1, 45, 0
1, 4557840, Note_on_c, 1, 45, 40
1, 4558080, Note_off_c, 1, 45, 0
1, 4558320, Note_on_c, 1, 45, 40
1, 4558800, Note_off_c, 1, 45, 0
1, 4558800, Note_on_c, 1, 45, 40
1, 4559280, Note_off_c, 1, 45, 0
1, 4559280, Note_on_c, 1, 45, 40
1, 4559760, Note_off_c, 1, 45, 0
1, 4559760, Note_on_c, 1, 45, 40
1, 4560000, Note_off_c, 1, 45, 0
1, 4560000, Note_on_c, 1, 52, 40
1, 4560240, Note_off_c, 1, 52, 0
1, 4560240, Note_on_c, 1, 53, 40
1, 4560360, Note_off_c, 1, 53, 0
1, 4560360, Note_on_c, 1, 54, 40
1, 4560720, Note_off_c, 1, 54, 0
1, 4560720, Note_on_c, 1, 54, 40
1, 4561200, Note_off_c, 1, 54, 0
1, 4561200, Note_on_c, 1, 54, 40
1, 4561680, Note_off_c, 1, 54, 0
1, 4561680, Note_on_c, 1, 54, 40
1, 4561920, Note_off_c, 1, 54, 0
1, 4561920, Note_on_c, 1, 52, 40
1, 4562160, Note_off_c, 1, 52, 0
1, 4562160, Note_on_c, 1, 54, 40
1, 4562640, Note_off_c, 1, 54, 0
1, 4562640, Note_on_c, 1, 54, 40
1, 4563120, Note_off_c, 1, 54, 0
1, 4563120, Note_on_c, 1, 54, 40
1, 4563600, Note_off_c, 1, 54, 0
1, 4563600, Note_on_c, 1, 54, 40
1, 4563840, Note_off_c, 1, 54, 0
1, 4563840, Note_on_c, 1, 46, 40
1, 4564080, Note_off_c, 1, 46, 0
1, 4564080, Note_on_c, 1, 47, 40
1, 4564560, Note_off_c, 1, 47, 0
1, 4564560, Note_on_c, 1, 47, 40
1, 4565040, Note_off_c, 1, 47, 0
1, 4565040, Note_on_c, 1, 47, 40
1, 4565520, Note_off_c, 1, 47, 0
1, 4565520, Note_on_c, 1, 47, 40
1, 4565760, Note_off_c, 1, 47, 0
1, 4565760, Note_on_c, 1, 46, 40
1, 4566000, Note_off_c, 1, 46, 0
1, 4566000, Note_on_c, 1, 47, 40
1, 4566480, Note_off_c, 1, 47, 0
1, 4566480, Note_on_c, 1, 47, 40
1, 4566960, Note_off_c, 1, 47, 0
1, 4566960, Note_on_c, 1, 47, 40
1, 4567440, Note_off_c, 1, 47, 0
1, 4567440, Note_on_c, 1, 47, 40
1, 4567680, Note_off_c, 1, 47, 0
1, 4567680, Note_on_c, 1, 51, 40
1, 4567920, Note_off_c, 1, 51, 0
1, 4567920, Note_on_c, 1, 52, 40
1, 4568400, Note_off_c, 1, 52, 0
1, 4568400, Note_on_c, 1, 52, 40
1, 4568880, Note_off_c, 1, 52, 0
1, 4568880, Note_on_c, 1, 52, 40
1, 4569360, Note_off_c, 1, 52, 0
1, 4569360, Note_on_c, 1, 52, 40
1, 4569600, Note_off_c, 1, 52, 0
1, 4569600, Note_on_c, 1, 51, 40
1, 4569840, Note_off_c, 1, 51, 0
1, 4569840, Note_on_c, 1, 52, 40
1, 4570320, Note_off_c, 1, 52, 0
1, 4570320, Note_on_c, 1, 52, 40
1, 4570800, Note_off_c, 1, 52, 0
1, 4570800, Note_on_c, 1, 52, 40
1, 4571040, Note_off_c, 1, 52, 0
1, 4571040, Note_on_c, 1, 52, 40
1, 4571280, Note_off_c, 1, 52, 0
1, 4571280, Note_on_c, 1, 52, 40
1, 4571520, Note_off_c, 1, 52, 0
1, 4571520, Note_on_c, 1, 44, 40
1, 4571760, Note_off_c, 1, 44, 0
1, 4571760, Note_on_c, 1, 45, 40
1, 4572240, Note_off_c, 1, 45, 0
1, 4572240, Note_on_c, 1, 45, 40
1, 4572720, Note_off_c, 1, 45, 0
1, 4572720, Note_on_c, 1, 45, 40
1, 4573200, Note_off_c, 1, 45, 0
1, 4573200, Note_on_c, 1, 45, 40
1, 4573440, Note_off_c, 1, 45, 0
1, 4573440, Note_on_c, 1, 52, 40
1, 4573680, Note_off_c, 1, 52, 0
1, 4573680, Note_on_c, 1, 45, 40
1, 4574160, Note_off_c, 1, 45, 0
1, 4574160, Note_on_c, 1, 45, 40
1, 4574640, Note_off_c, 1, 45, 0
1, 4574640, Note_on_c, 1, 45, 40
1, 4575120, Note_off_c, 1, 45, 0
1, 4575120, Note_on_c, 1, 45, 40
1, 4575360, Note_off_c, 1, 45, 0
1, 4575360, Note_on_c, 1, 52, 40
1, 4575600, Note_off_c, 1, 52, 0
1, 4575600, Note_on_c, 1, 54, 40
1, 4576080, Note_off_c, 1, 54, 0
1, 4576080, Note_on_c, 1, 54, 40
1, 4576560, Note_off_c, 1, 54, 0
1, 4576560, Note_on_c, 1, 54, 40
1, 4576800, Note_off_c, 1, 54, 0
1, 4576800, Note_on_c, 1, 45, 40
1, 4576920, Note_off_c, 1, 45, 0
1, 4576920, Note_on_c, 1, 49, 40
1, 4577280, Note_off_c, 1, 49, 0
1, 4577280, Note_on_c, 1, 49, 40
1, 4577520, Note_off_c, 1, 49, 0
1, 4577520, Note_on_c, 1, 42, 40
1, 4578000, Note_off_c, 1, 42, 0
1, 4578000, Note_on_c, 1, 42, 40
1, 4578480, Note_off_c, 1, 42, 0
1, 4578480, Note_on_c, 1, 42, 40
1, 4578720, Note_off_c, 1, 42, 0
1, 4578720, Note_on_c, 1, 45, 40
1, 4578840, Note_off_c, 1, 45, 0
1, 4578840, Note_on_c, 1, 49, 40
1, 4579200, Note_off_c, 1, 49, 0
1, 4579200, Note_on_c, 1, 49, 40
1, 4579440, Note_off_c, 1, 49, 0
1, 4579440, Note_on_c, 1, 47, 40
1, 4579920, Note_off_c, 1, 47, 0
1, 4579920, Note_on_c, 1, 47, 40
1, 4580400, Note_off_c, 1, 47, 0
1, 4580400, Note_on_c, 1, 45, 40
1, 4580520, Note_off_c, 1, 45, 0
1, 4580520, Note_on_c, 1, 47, 40
1, 4580880, Note_off_c, 1, 47, 0
1, 4580880, Note_on_c, 1, 47, 40
1, 4581120, Note_off_c, 1, 47, 0
1, 4581120, Note_on_c, 1, 47, 40
1, 4581360, Note_off_c, 1, 47, 0
1, 4581360, Note_on_c, 1, 38, 40
1, 4581840, Note_off_c, 1, 38, 0
1, 4581840, Note_on_c, 1, 50, 40
1, 4582320, Note_off_c, 1, 50, 0
1, 4582320, Note_on_c, 1, 50, 40
1, 4582800, Note_off_c, 1, 50, 0
1, 4582800, Note_on_c, 1, 52, 40
1, 4583280, Note_off_c, 1, 52, 0
1, 4583280, Note_on_c, 1, 45, 40
1, 4583760, Note_off_c, 1, 45, 0
1, 4583760, Note_on_c, 1, 57, 40
1, 4584240, Note_off_c, 1, 57, 0
1, 4584240, Note_on_c, 1, 57, 40
1, 4584480, Note_off_c, 1, 57, 0
1, 4584480, Note_on_c, 1, 57, 40
1, 4584720, Note_off_c, 1, 57, 0
1, 4584720, Note_on_c, 1, 52, 40
1, 4584960, Note_off_c, 1, 52, 0
1, 4584960, Note_on_c, 1, 55, 40
1, 4585200, Note_off_c, 1, 55, 0
1, 4585200, Note_on_c, 1, 57, 40
1, 4585680, Note_off_c, 1, 57, 0
1, 4585680, Note_on_c, 1, 57, 40
1, 4586160, Note_off_c, 1, 57, 0
1, 4586160, Note_on_c, 1, 57, 40
1, 4586400, Note_off_c, 1, 57, 0
1, 4586400, Note_on_c, 1, 57, 40
1, 4586640, Note_off_c, 1, 57, 0
1, 4586640, Note_on_c, 1, 57, 40
1, 4586760, Note_off_c, 1, 57, 0
1, 4586760, Note_on_c, 1, 55, 40
1, 4586880, Note_off_c, 1, 55, 0
1, 4586880, Note_on_c, 1, 55, 40
1, 4587120, Note_off_c, 1, 55, 0
1, 4587120, Note_on_c, 1, 50, 40
1, 4587360, Note_off_c, 1, 50, 0
1, 4587360, Note_on_c, 1, 50, 40
1, 4587600, Note_off_c, 1, 50, 0
1, 4587600, Note_on_c, 1, 53, 40
1, 4587840, Note_off_c, 1, 53, 0
1, 4587840, Note_on_c, 1, 54, 40
1, 4588080, Note_off_c, 1, 54, 0
1, 4588080, Note_on_c, 1, 50, 40
1, 4588320, Note_off_c, 1, 50, 0
1, 4588320, Note_on_c, 1, 50, 40
1, 4588560, Note_off_c, 1, 50, 0
1, 4588560, Note_on_c, 1, 53, 40
1, 4588800, Note_off_c, 1, 53, 0
1, 4588800, Note_on_c, 1, 54, 40
1, 4589040, Note_off_c, 1, 54, 0
1, 4589040, Note_on_c, 1, 50, 40
1, 4589280, Note_off_c, 1, 50, 0
1, 4589280, Note_on_c, 1, 50, 40
1, 4589520, Note_off_c, 1, 50, 0
1, 4589520, Note_on_c, 1, 53, 40
1, 4589760, Note_off_c, 1, 53, 0
1, 4589760, Note_on_c, 1, 54, 40
1, 4590000, Note_off_c, 1, 54, 0
1, 4590000, Note_on_c, 1, 50, 40
1, 4590240, Note_off_c, 1, 50, 0
1, 4590240, Note_on_c, 1, 50, 40
1, 4590480, Note_off_c, 1, 50, 0
1, 4590480, Note_on_c, 1, 53, 40
1, 4590720, Note_off_c, 1, 53, 0
1, 4590720, Note_on_c, 1, 54, 40
1, 4590960, Note_off_c, 1, 54, 0
1, 4590960, Note_on_c, 1, 54, 40
1, 4591200, Note_off_c, 1, 54, 0
1, 4591440, Note_on_c, 1, 54, 40
1, 4591680, Note_off_c, 1, 54, 0
1, 4591680, Note_on_c, 1, 49, 40
1, 4591920, Note_off_c, 1, 49, 0
1, 4591920, Note_on_c, 1, 54, 40
1, 4592160, Note_off_c, 1, 54, 0
1, 4592160, Note_on_c, 1, 54, 40
1, 4592400, Note_off_c, 1, 54, 0
1, 4592400, Note_on_c, 1, 54, 40
1, 4592640, Note_off_c, 1, 54, 0
1, 4592640, Note_on_c, 1, 49, 40
1, 4592880, Note_off_c, 1, 49, 0
1, 4592880, Note_on_c, 1, 54, 40
1, 4593120, Note_off_c, 1, 54, 0
1, 4593360, Note_on_c, 1, 54, 40
1, 4593600, Note_off_c, 1, 54, 0
1, 4593600, Note_on_c, 1, 49, 40
1, 4593840, Note_off_c, 1, 49, 0
1, 4593840, Note_on_c, 1, 54, 40
1, 4594080, Note_off_c, 1, 54, 0
1, 4594080, Note_on_c, 1, 54, 40
1, 4594320, Note_off_c, 1, 54, 0
1, 4594320, Note_on_c, 1, 54, 40
1, 4594560, Note_off_c, 1, 54, 0
1, 4594560, Note_on_c, 1, 49, 40
1, 4594800, Note_off_c, 1, 49, 0
1, 4594800, Note_on_c, 1, 47, 40
1, 4595040, Note_off_c, 1, 47, 0
1, 4595280, Note_on_c, 1, 47, 40
1, 4595520, Note_off_c, 1, 47, 0
1, 4595760, Note_on_c, 1, 47, 40
1, 4596000, Note_off_c, 1, 47, 0
1, 4596240, Note_on_c, 1, 47, 40
1, 4596480, Note_off_c, 1, 47, 0
1, 4596480, Note_on_c, 1, 45, 40
1, 4596720, Note_off_c, 1, 45, 0
1, 4596720, Note_on_c, 1, 47, 40
1, 4596960, Note_off_c, 1, 47, 0
1, 4597200, Note_on_c, 1, 47, 40
1, 4597440, Note_off_c, 1, 47, 0
1, 4597680, Note_on_c, 1, 47, 40
1, 4597920, Note_off_c, 1, 47, 0
1, 4598160, Note_on_c, 1, 47, 40
1, 4598400, Note_off_c, 1, 47, 0
1, 4598640, Note_on_c, 1, 53, 40
1, 4599120, Note_off_c, 1, 53, 0
1, 4599120, Note_on_c, 1, 53, 40
1, 4599600, Note_off_c, 1, 53, 0
1, 4599600, Note_on_c, 1, 53, 40
1, 4600080, Note_off_c, 1, 53, 0
1, 4600080, Note_on_c, 1, 53, 40
1, 4600560, Note_off_c, 1, 53, 0
1, 4600560, Note_on_c, 1, 52, 40
1, 4601280, Note_off_c, 1, 52, 0
1, 4601280, Note_on_c, 1, 52, 40
1, 4601520, Note_off_c, 1, 52, 0
1, 4601520, Note_on_c, 1, 52, 40
1, 4602240, Note_off_c, 1, 52, 0
1, 4602240, Note_on_c, 1, 49, 40
1, 4602480, Note_off_c, 1, 49, 0
1, 4602480, Note_on_c, 1, 45, 40
1, 4602960, Note_off_c, 1, 45, 0
1, 4602960, Note_on_c, 1, 45, 40
1, 4603440, Note_off_c, 1, 45, 0
1, 4603440, Note_on_c, 1, 52, 40
1, 4603680, Note_off_c, 1, 52, 0
1, 4603680, Note_on_c, 1, 52, 40
1, 4603920, Note_off_c, 1, 52, 0
1, 4603920, Note_on_c, 1, 52, 40
1, 4604400, Note_off_c, 1, 52, 0
1, 4604400, Note_on_c, 1, 45, 40
1, 4604880, Note_off_c, 1, 45, 0
1, 4604880, Note_on_c, 1, 45, 40
1, 4605360, Note_off_c, 1, 45, 0
1, 4605360, Note_on_c, 1, 52, 40
1, 4605600, Note_off_c, 1, 52, 0
1, 4605600, Note_on_c, 1, 52, 40
1, 4605840, Note_off_c, 1, 52, 0
1, 4605840, Note_on_c, 1, 45, 40
1, 4606080, Note_off_c, 1, 45, 0
1, 4606080, Note_on_c, 1, 52, 40
1, 4606320, Note_off_c, 1, 52, 0
1, 4606320, Note_on_c, 1, 54, 40
1, 4606800, Note_off_c, 1, 54, 0
1, 4606800, Note_on_c, 1, 54, 40
1, 4607280, Note_off_c, 1, 54, 0
1, 4607280, Note_on_c, 1, 54, 40
1, 4607760, Note_off_c, 1, 54, 0
1, 4607760, Note_on_c, 1, 49, 40
1, 4608000, Note_off_c, 1, 49, 0
1, 4608000, Note_on_c, 1, 52, 40
1, 4608240, Note_off_c, 1, 52, 0
1, 4608240, Note_on_c, 1, 54, 40
1, 4608720, Note_off_c, 1, 54, 0
1, 4608720, Note_on_c, 1, 54, 40
1, 4609200, Note_off_c, 1, 54, 0
1, 4609200, Note_on_c, 1, 54, 40
1, 4609680, Note_off_c, 1, 54, 0
1, 4609680, Note_on_c, 1, 54, 40
1, 4610160, Note_off_c, 1, 54, 0
1, 4610160, Note_on_c, 1, 47, 40
1, 4610640, Note_off_c, 1, 47, 0
1, 4610640, Note_on_c, 1, 47, 40
1, 4611120, Note_off_c, 1, 47, 0
1, 4611120, Note_on_c, 1, 47, 40
1, 4611600, Note_off_c, 1, 47, 0
1, 4611600, Note_on_c, 1, 47, 40
1, 4611840, Note_off_c, 1, 47, 0
1, 4611840, Note_on_c, 1, 42, 40
1, 4612080, Note_off_c, 1, 42, 0
1, 4612080, Note_on_c, 1, 50, 40
1, 4612560, Note_off_c, 1, 50, 0
1, 4612560, Note_on_c, 1, 50, 40
1, 4613040, Note_off_c, 1, 50, 0
1, 4613040, Note_on_c, 1, 50, 40
1, 4613520, Note_off_c, 1, 50, 0
1, 4613520, Note_on_c, 1, 50, 40
1, 4613760, Note_off_c, 1, 50, 0
1, 4613760, Note_on_c, 1, 52, 40
1, 4614000, Note_off_c, 1, 52, 0
1, 4614000, Note_on_c, 1, 45, 40
1, 4614480, Note_off_c, 1, 45, 0
1, 4614480, Note_on_c, 1, 45, 40
1, 4614960, Note_off_c, 1, 45, 0
1, 4614960, Note_on_c, 1, 52, 40
1, 4615440, Note_off_c, 1, 52, 0
1, 4615440, Note_on_c, 1, 52, 40
1, 4615920, Note_off_c, 1, 52, 0
1, 4615920, Note_on_c, 1, 45, 40
1, 4616160, Note_off_c, 1, 45, 0
1, 4616160, Note_on_c, 1, 52, 40
1, 4616400, Note_off_c, 1, 52, 0
1, 4616400, Note_on_c, 1, 52, 40
1, 4616640, Note_off_c, 1, 52, 0
1, 4616640, Note_on_c, 1, 52, 40
1, 4616880, Note_off_c, 1, 52, 0
1, 4616880, Note_on_c, 1, 52, 40
1, 4617120, Note_off_c, 1, 52, 0
1, 4617120, Note_on_c, 1, 52, 40
1, 4617360, Note_off_c, 1, 52, 0
1, 4617360, Note_on_c, 1, 52, 40
1, 4617600, Note_off_c, 1, 52, 0
1, 4617600, Note_on_c, 1, 52, 40
1, 4617840, Note_off_c, 1, 52, 0
1, 4617840, Note_on_c, 1, 57, 40
1, 4618080, Note_off_c, 1, 57, 0
1, 4618200, Note_on_c, 1, 57, 40
1, 4618320, Note_off_c, 1, 57, 0
1, 4618320, Note_on_c, 1, 57, 40
1, 4618560, Note_off_c, 1, 57, 0
1, 4618680, Note_on_c, 1, 57, 40
1, 4618800, Note_off_c, 1, 57, 0
1, 4618800, Note_on_c, 1, 57, 40
1, 4619040, Note_off_c, 1, 57, 0
1, 4619160, Note_on_c, 1, 57, 40
1, 4619280, Note_off_c, 1, 57, 0
1, 4619280, Note_on_c, 1, 57, 40
1, 4619520, Note_off_c, 1, 57, 0
1, 4619640, Note_on_c, 1, 57, 40
1, 4619760, Note_off_c, 1, 57, 0
1, 4619760, Note_on_c, 1, 54, 40
1, 4619880, Note_off_c, 1, 54, 0
1, 4619880, Note_on_c, 1, 57, 40
1, 4620240, Note_off_c, 1, 57, 0
1, 4620240, Note_on_c, 1, 54, 40
1, 4620360, Note_off_c, 1, 54, 0
1, 4620360, Note_on_c, 1, 57, 40
1, 4620720, Note_off_c, 1, 57, 0
1, 4620720, Note_on_c, 1, 54, 40
1, 4620840, Note_off_c, 1, 54, 0
1, 4620840, Note_on_c, 1, 57, 40
1, 4621200, Note_off_c, 1, 57, 0
1, 4621200, Note_on_c, 1, 57, 40
1, 4621320, Note_off_c, 1, 57, 0
1, 4621320, Note_on_c, 1, 55, 40
1, 4621440, Note_off_c, 1, 55, 0
1, 4621560, Note_on_c, 1, 52, 40
1, 4621680, Note_off_c, 1, 52, 0
1, 4621680, Note_on_c, 1, 54, 40
1, 4621920, Note_off_c, 1, 54, 0
1, 4622160, Note_on_c, 1, 54, 40
1, 4622400, Note_off_c, 1, 54, 0
1, 4622640, Note_on_c, 1, 49, 40
1, 4622880, Note_off_c, 1, 49, 0
1, 4623120, Note_on_c, 1, 49, 40
1, 4623360, Note_off_c, 1, 49, 0
1, 4623600, Note_on_c, 1, 54, 40
1, 4624080, Note_off_c, 1, 54, 0
1, 4624080, Note_on_c, 1, 52, 40
1, 4624560, Note_off_c, 1, 52, 0
1, 4624560, Note_on_c, 1, 49, 40
1, 4625040, Note_off_c, 1, 49, 0
1, 4625040, Note_on_c, 1, 45, 40
1, 4625520, Note_off_c, 1, 45, 0
1, 4625520, Note_on_c, 1, 47, 40
1, 4625760, Note_off_c, 1, 47, 0
1, 4626000, Note_on_c, 1, 47, 40
1, 4626240, Note_off_c, 1, 47, 0
1, 4626480, Note_on_c, 1, 54, 40
1, 4626960, Note_off_c, 1, 54, 0
1, 4626960, Note_on_c, 1, 54, 40
1, 4627200, Note_off_c, 1, 54, 0
1, 4627320, Note_on_c, 1, 47, 40
1, 4627440, Note_off_c, 1, 47, 0
1, 4627440, Note_on_c, 1, 50, 40
1, 4627920, Note_off_c, 1, 50, 0
1, 4627920, Note_on_c, 1, 50, 40
1, 4628400, Note_off_c, 1, 50, 0
1, 4628400, Note_on_c, 1, 50, 40
1, 4628880, Note_off_c, 1, 50, 0
1, 4628880, Note_on_c, 1, 50, 40
1, 4629120, Note_off_c, 1, 50, 0
1, 4629120, Note_on_c, 1, 50, 40
1, 4629360, Note_off_c, 1, 50, 0
1, 4629360, Note_on_c, 1, 57, 40
1, 4629840, Note_off_c, 1, 57, 0
1, 4629840, Note_on_c, 1, 54, 40
1, 4630320, Note_off_c, 1, 54, 0
1, 4630320, Note_on_c, 1, 52, 40
1, 4630800, Note_off_c, 1, 52, 0
1, 4630800, Note_on_c, 1, 49, 40
1, 4631160, Note_off_c, 1, 49, 0
1, 4631280, Note_on_c, 1, 45, 40
1, 4631520, Note_off_c, 1, 45, 0
1, 4631520, Note_on_c, 1, 45, 40
1, 4631760, Note_off_c, 1, 45, 0
1, 4631760, Note_on_c, 1, 49, 40
1, 4632000, Note_off_c, 1, 49, 0
1, 4632000, Note_on_c, 1, 49, 40
1, 4632240, Note_off_c, 1, 49, 0
1, 4632240, Note_on_c, 1, 52, 40
1, 4632480, Note_off_c, 1, 52, 0
1, 4632480, Note_on_c, 1, 52, 40
1, 4632720, Note_off_c, 1, 52, 0
1, 4632720, Note_on_c, 1, 57, 40
1, 4632960, Note_off_c, 1, 57, 0
1, 4632960, Note_on_c, 1, 57, 40
1, 4633200, Note_off_c, 1, 57, 0
1, 4633200, Note_on_c, 1, 50, 40
1, 4633440, Note_off_c, 1, 50, 0
1, 4633440, Note_on_c, 1, 50, 40
1, 4633680, Note_off_c, 1, 50, 0
1, 4633680, Note_on_c, 1, 53, 40
1, 4633920, Note_off_c, 1, 53, 0
1, 4633920, Note_on_c, 1, 54, 40
1, 4634160, Note_off_c, 1, 54, 0
1, 4634160, Note_on_c, 1, 50, 40
1, 4634400, Note_off_c, 1, 50, 0
1, 4634400, Note_on_c, 1, 50, 40
1, 4634640, Note_off_c, 1, 50, 0
1, 4634640, Note_on_c, 1, 53, 40
1, 4634880, Note_off_c, 1, 53, 0
1, 4634880, Note_on_c, 1, 54, 40
1, 4635120, Note_off_c, 1, 54, 0
1, 4635120, Note_on_c, 1, 50, 40
1, 4635360, Note_off_c, 1, 50, 0
1, 4635360, Note_on_c, 1, 50, 40
1, 4635600, Note_off_c, 1, 50, 0
1, 4635600, Note_on_c, 1, 53, 40
1, 4635840, Note_off_c, 1, 53, 0
1, 4635840, Note_on_c, 1, 54, 40
1, 4636080, Note_off_c, 1, 54, 0
1, 4636080, Note_on_c, 1, 50, 40
1, 4636320, Note_off_c, 1, 50, 0
1, 4636320, Note_on_c, 1, 50, 40
1, 4636560, Note_off_c, 1, 50, 0
1, 4636560, Note_on_c, 1, 53, 40
1, 4636800, Note_off_c, 1, 53, 0
1, 4636800, Note_on_c, 1, 54, 40
1, 4637040, Note_off_c, 1, 54, 0
1, 4637040, Note_on_c, 1, 54, 40
1, 4637280, Note_off_c, 1, 54, 0
1, 4637520, Note_on_c, 1, 54, 40
1, 4637760, Note_off_c, 1, 54, 0
1, 4637760, Note_on_c, 1, 49, 40
1, 4638000, Note_off_c, 1, 49, 0
1, 4638000, Note_on_c, 1, 54, 40
1, 4638240, Note_off_c, 1, 54, 0
1, 4638240, Note_on_c, 1, 54, 40
1, 4638480, Note_off_c, 1, 54, 0
1, 4638480, Note_on_c, 1, 54, 40
1, 4638720, Note_off_c, 1, 54, 0
1, 4638720, Note_on_c, 1, 49, 40
1, 4638960, Note_off_c, 1, 49, 0
1, 4638960, Note_on_c, 1, 54, 40
1, 4639200, Note_off_c, 1, 54, 0
1, 4639440, Note_on_c, 1, 54, 40
1, 4639680, Note_off_c, 1, 54, 0
1, 4639680, Note_on_c, 1, 49, 40
1, 4639920, Note_off_c, 1, 49, 0
1, 4639920, Note_on_c, 1, 54, 40
1, 4640160, Note_off_c, 1, 54, 0
1, 4640160, Note_on_c, 1, 54, 40
1, 4640400, Note_off_c, 1, 54, 0
1, 4640400, Note_on_c, 1, 54, 40
1, 4640640, Note_off_c, 1, 54, 0
1, 4640640, Note_on_c, 1, 49, 40
1, 4640880, Note_off_c, 1, 49, 0
1, 4640880, Note_on_c, 1, 47, 40
1, 4641120, Note_off_c, 1, 47, 0
1, 4641360, Note_on_c, 1, 47, 40
1, 4641600, Note_off_c, 1, 47, 0
1, 4641840, Note_on_c, 1, 47, 40
1, 4642080, Note_off_c, 1, 47, 0
1, 4642320, Note_on_c, 1, 47, 40
1, 4642560, Note_off_c, 1, 47, 0
1, 4642560, Note_on_c, 1, 45, 40
1, 4642800, Note_off_c, 1, 45, 0
1, 4642800, Note_on_c, 1, 47, 40
1, 4643040, Note_off_c, 1, 47, 0
1, 4643280, Note_on_c, 1, 47, 40
1, 4643520, Note_off_c, 1, 47, 0
1, 4643760, Note_on_c, 1, 47, 40
1, 4644000, Note_off_c, 1, 47, 0
1, 4644240, Note_on_c, 1, 47, 40
1, 4644480, Note_off_c, 1, 47, 0
1, 4644720, Note_on_c, 1, 53, 40
1, 4645200, Note_off_c, 1, 53, 0
1, 4645200, Note_on_c, 1, 53, 40
1, 4645680, Note_off_c, 1, 53, 0
1, 4645680, Note_on_c, 1, 53, 40
1, 4646160, Note_off_c, 1, 53, 0
1, 4646160, Note_on_c, 1, 53, 40
1, 4646640, Note_off_c, 1, 53, 0
1, 4646640, Note_on_c, 1, 52, 40
1, 4647360, Note_off_c, 1, 52, 0
1, 4647360, Note_on_c, 1, 52, 40
1, 4647600, Note_off_c, 1, 52, 0
1, 4647600, Note_on_c, 1, 52, 40
1, 4648320, Note_off_c, 1, 52, 0
1, 4648320, Note_on_c, 1, 49, 40
1, 4648560, Note_off_c, 1, 49, 0
1, 4648560, Note_on_c, 1, 45, 40
1, 4649040, Note_off_c, 1, 45, 0
1, 4649040, Note_on_c, 1, 45, 40
1, 4649520, Note_off_c, 1, 45, 0
1, 4649520, Note_on_c, 1, 52, 40
1, 4649760, Note_off_c, 1, 52, 0
1, 4649760, Note_on_c, 1, 52, 40
1, 4650000, Note_off_c, 1, 52, 0
1, 4650000, Note_on_c, 1, 52, 40
1, 4650480, Note_off_c, 1, 52, 0
1, 4650480, Note_on_c, 1, 45, 40
1, 4650960, Note_off_c, 1, 45, 0
1, 4650960, Note_on_c, 1, 45, 40
1, 4651440, Note_off_c, 1, 45, 0
1, 4651440, Note_on_c, 1, 52, 40
1, 4651680, Note_off_c, 1, 52, 0
1, 4651680, Note_on_c, 1, 52, 40
1, 4651920, Note_off_c, 1, 52, 0
1, 4651920, Note_on_c, 1, 45, 40
1, 4652160, Note_off_c, 1, 45, 0
1, 4652160, Note_on_c, 1, 52, 40
1, 4652400, Note_off_c, 1, 52, 0
1, 4652400, Note_on_c, 1, 54, 40
1, 4652880, Note_off_c, 1, 54, 0
1, 4652880, Note_on_c, 1, 54, 40
1, 4653360, Note_off_c, 1, 54, 0
1, 4653360, Note_on_c, 1, 54, 40
1, 4653840, Note_off_c, 1, 54, 0
1, 4653840, Note_on_c, 1, 49, 40
1, 4654080, Note_off_c, 1, 49, 0
1, 4654080, Note_on_c, 1, 52, 40
1, 4654320, Note_off_c, 1, 52, 0
1, 4654320, Note_on_c, 1, 54, 40
1, 4654800, Note_off_c, 1, 54, 0
1, 4654800, Note_on_c, 1, 54, 40
1, 4655280, Note_off_c, 1, 54, 0
1, 4655280, Note_on_c, 1, 54, 40
1, 4655760, Note_off_c, 1, 54, 0
1, 4655760, Note_on_c, 1, 54, 40
1, 4656240, Note_off_c, 1, 54, 0
1, 4656240, Note_on_c, 1, 47, 40
1, 4656720, Note_off_c, 1, 47, 0
1, 4656720, Note_on_c, 1, 47, 40
1, 4657200, Note_off_c, 1, 47, 0
1, 4657200, Note_on_c, 1, 47, 40
1, 4657680, Note_off_c, 1, 47, 0
1, 4657680, Note_on_c, 1, 47, 40
1, 4657920, Note_off_c, 1, 47, 0
1, 4657920, Note_on_c, 1, 42, 40
1, 4658160, Note_off_c, 1, 42, 0
1, 4658160, Note_on_c, 1, 50, 40
1, 4658640, Note_off_c, 1, 50, 0
1, 4658640, Note_on_c, 1, 50, 40
1, 4659120, Note_off_c, 1, 50, 0
1, 4659120, Note_on_c, 1, 50, 40
1, 4659600, Note_off_c, 1, 50, 0
1, 4659600, Note_on_c, 1, 50, 40
1, 4659840, Note_off_c, 1, 50, 0
1, 4659840, Note_on_c, 1, 52, 40
1, 4660080, Note_off_c, 1, 52, 0
1, 4660080, Note_on_c, 1, 54, 40
1, 4660200, Note_off_c, 1, 54, 0
1, 4660200, Note_on_c, 1, 57, 40
1, 4660320, Note_off_c, 1, 57, 0
1, 4660560, Note_on_c, 1, 57, 40
1, 4660800, Note_off_c, 1, 57, 0
1, 4661040, Note_on_c, 1, 57, 40
1, 4661280, Note_off_c, 1, 57, 0
1, 4661280, Note_on_c, 1, 50, 40
1, 4661520, Note_off_c, 1, 50, 0
1, 4661520, Note_on_c, 1, 49, 40
1, 4661760, Note_off_c, 1, 49, 0
1, 4661760, Note_on_c, 1, 50, 40
1, 4662480, Note_off_c, 1, 50, 0
1, 4662480, Note_on_c, 1, 50, 40
1, 4662720, Note_off_c, 1, 50, 0
1, 4662960, Note_on_c, 1, 50, 40
1, 4663200, Note_off_c, 1, 50, 0
1, 4663440, Note_on_c, 1, 50, 40
1, 4663680, Note_off_c, 1, 50, 0
1, 4663680, Note_on_c, 1, 52, 40
1, 4663920, Note_off_c, 1, 52, 0
1, 4663920, Note_on_c, 1, 57, 40
1, 4664400, Note_off_c, 1, 57, 0
1, 4664400, Note_on_c, 1, 57, 40
1, 4664640, Note_off_c, 1, 57, 0
1, 4664880, Note_on_c, 1, 57, 40
1, 4665120, Note_off_c, 1, 57, 0
1, 4665120, Note_on_c, 1, 50, 40
1, 4665360, Note_off_c, 1, 50, 0
1, 4665360, Note_on_c, 1, 49, 40
1, 4665600, Note_off_c, 1, 49, 0
1, 4665600, Note_on_c, 1, 50, 40
1, 4666320, Note_off_c, 1, 50, 0
1, 4666320, Note_on_c, 1, 50, 40
1, 4666560, Note_off_c, 1, 50, 0
1, 4666800, Note_on_c, 1, 50, 40
1, 4667040, Note_off_c, 1, 50, 0
1, 4667040, Note_on_c, 1, 50, 40
1, 4667280, Note_off_c, 1, 50, 0
1, 4667280, Note_on_c, 1, 50, 40
1, 4667520, Note_off_c, 1, 50, 0
1, 4667520, Note_on_c, 1, 52, 40
1, 4667760, Note_off_c, 1, 52, 0
1, 4667760, Note_on_c, 1, 57, 40
1, 4668240, Note_off_c, 1, 57, 0
1, 4668240, Note_on_c, 1, 57, 40
1, 4668480, Note_off_c, 1, 57, 0
1, 4668720, Note_on_c, 1, 57, 40
1, 4668960, Note_off_c, 1, 57, 0
1, 4668960, Note_on_c, 1, 50, 40
1, 4669200, Note_off_c, 1, 50, 0
1, 4669200, Note_on_c, 1, 49, 40
1, 4669440, Note_off_c, 1, 49, 0
1, 4669440, Note_on_c, 1, 50, 40
1, 4670160, Note_off_c, 1, 50, 0
1, 4670160, Note_on_c, 1, 50, 40
1, 4670400, Note_off_c, 1, 50, 0
1, 4670640, Note_on_c, 1, 50, 40
1, 4670880, Note_off_c, 1, 50, 0
1, 4670880, Note_on_c, 1, 50, 40
1, 4671120, Note_off_c, 1, 50, 0
1, 4671120, Note_on_c, 1, 50, 40
1, 4671360, Note_off_c, 1, 50, 0
1, 4671360, Note_on_c, 1, 52, 40
1, 4671600, Note_off_c, 1, 52, 0
1, 4671600, Note_on_c, 1, 57, 40
1, 4672080, Note_off_c, 1, 57, 0
1, 4672080, Note_on_c, 1, 57, 40
1, 4672320, Note_off_c, 1, 57, 0
1, 4672560, Note_on_c, 1, 57, 40
1, 4672800, Note_off_c, 1, 57, 0
1, 4672800, Note_on_c, 1, 50, 40
1, 4673040, Note_off_c, 1, 50, 0
1, 4673040, Note_on_c, 1, 49, 40
1, 4673280, Note_off_c, 1, 49, 0
1, 4673280, Note_on_c, 1, 50, 40
1, 4674000, Note_off_c, 1, 50, 0
1, 4674000, Note_on_c, 1, 50, 40
1, 4674240, Note_off_c, 1, 50, 0
1, 4674480, Note_on_c, 1, 50, 40
1, 4674720, Note_off_c, 1, 50, 0
1, 4674720, Note_on_c, 1, 50, 40
1, 4674960, Note_off_c, 1, 50, 0
1, 4674960, Note_on_c, 1, 50, 40
1, 4675200, Note_off_c, 1, 50, 0
1, 4675200, Note_on_c, 1, 52, 40
1, 4675440, Note_off_c, 1, 52, 0
1, 4675440, Note_on_c, 1, 57, 40
1, 4675920, Note_off_c, 1, 57, 0
1, 4675920, Note_on_c, 1, 57, 40
1, 4676160, Note_off_c, 1, 57, 0
1, 4676400, Note_on_c, 1, 57, 40
1, 4676640, Note_off_c, 1, 57, 0
1, 4676640, Note_on_c, 1, 50, 40
1, 4676880, Note_off_c, 1, 50, 0
1, 4676880, Note_on_c, 1, 49, 40
1, 4677120, Note_off_c, 1, 49, 0
1, 4677120, Note_on_c, 1, 50, 40
1, 4677840, Note_off_c, 1, 50, 0
1, 4677840, Note_on_c, 1, 50, 40
1, 4678080, Note_off_c, 1, 50, 0
1, 4678320, Note_on_c, 1, 50, 40
1, 4678560, Note_off_c, 1, 50, 0
1, 4678560, Note_on_c, 1, 50, 40
1, 4678800, Note_off_c, 1, 50, 0
1, 4678800, Note_on_c, 1, 50, 40
1, 4679040, Note_off_c, 1, 50, 0
1, 4679040, Note_on_c, 1, 52, 40
1, 4679280, Note_off_c, 1, 52, 0
1, 4679280, Note_on_c, 1, 57, 40
1, 4679760, Note_off_c, 1, 57, 0
1, 4679760, Note_on_c, 1, 57, 40
1, 4680000, Note_off_c, 1, 57, 0
1, 4680240, Note_on_c, 1, 57, 40
1, 4680480, Note_off_c, 1, 57, 0
1, 4680480, Note_on_c, 1, 50, 40
1, 4680720, Note_off_c, 1, 50, 0
1, 4680720, Note_on_c, 1, 49, 40
1, 4680960, Note_off_c, 1, 49, 0
1, 4680960, Note_on_c, 1, 50, 40
1, 4681680, Note_off_c, 1, 50, 0
1, 4681680, Note_on_c, 1, 50, 40
1, 4681920, Note_off_c, 1, 50, 0
1, 4682160, Note_on_c, 1, 50, 40
1, 4682400, Note_off_c, 1, 50, 0
1, 4682400, Note_on_c, 1, 50, 40
1, 4682640, Note_off_c, 1, 50, 0
1, 4682640, Note_on_c, 1, 50, 40
1, 4682880, Note_off_c, 1, 50, 0
1, 4682880, Note_on_c, 1, 52, 40
1, 4683120, Note_off_c, 1, 52, 0
1, 4683120, Note_on_c, 1, 57, 40
1, 4683600, Note_off_c, 1, 57, 0
1, 4683600, Note_on_c, 1, 57, 40
1, 4683840, Note_off_c, 1, 57, 0
1, 4684080, Note_on_c, 1, 57, 40
1, 4684320, Note_off_c, 1, 57, 0
1, 4684320, Note_on_c, 1, 50, 40
1, 4684560, Note_off_c, 1, 50, 0
1, 4684560, Note_on_c, 1, 49, 40
1, 4684800, Note_off_c, 1, 49, 0
1, 4684800, Note_on_c, 1, 50, 40
1, 4685520, Note_off_c, 1, 50, 0
1, 4685520, Note_on_c, 1, 50, 40
1, 4685760, Note_off_c, 1, 50, 0
1, 4686000, Note_on_c, 1, 50, 40
1, 4686240, Note_off_c, 1, 50, 0
1, 4686240, Note_on_c, 1, 50, 40
1, 4686480, Note_off_c, 1, 50, 0
1, 4686480, Note_on_c, 1, 50, 40
1, 4686720, Note_off_c, 1, 50, 0
1, 4686720, Note_on_c, 1, 52, 40
1, 4686960, Note_off_c, 1, 52, 0
1, 4686960, Note_on_c, 1, 57, 40
1, 4687440, Note_off_c, 1, 57, 0
1, 4687440, Note_on_c, 1, 57, 40
1, 4687680, Note_off_c, 1, 57, 0
1, 4687920, Note_on_c, 1, 57, 40
1, 4688160, Note_off_c, 1, 57, 0
1, 4688160, Note_on_c, 1, 50, 40
1, 4688400, Note_off_c, 1, 50, 0
1, 4688400, Note_on_c, 1, 49, 40
1, 4688640, Note_off_c, 1, 49, 0
1, 4688640, Note_on_c, 1, 50, 40
1, 4689360, Note_off_c, 1, 50, 0
1, 4689360, Note_on_c, 1, 50, 40
1, 4689600, Note_off_c, 1, 50, 0
1, 4689840, Note_on_c, 1, 50, 40
1, 4690080, Note_off_c, 1, 50, 0
1, 4690080, Note_on_c, 1, 50, 40
1, 4690320, Note_off_c, 1, 50, 0
1, 4690320, Note_on_c, 1, 50, 40
1, 4690560, Note_off_c, 1, 50, 0
1, 4690560, Note_on_c, 1, 52, 40
1, 4690800, Note_off_c, 1, 52, 0
1, 4690800, Note_on_c, 1, 57, 40
1, 4691280, Note_off_c, 1, 57, 0
1, 4691280, Note_on_c, 1, 57, 40
1, 4691520, Note_off_c, 1, 57, 0
1, 4691760, Note_on_c, 1, 57, 40
1, 4692000, Note_off_c, 1, 57, 0
1, 4692000, Note_on_c, 1, 50, 40
1, 4692240, Note_off_c, 1, 50, 0
1, 4692240, Note_on_c, 1, 49, 40
1, 4692480, Note_off_c, 1, 49, 0
1, 4692480, Note_on_c, 1, 50, 40
1, 4693200, Note_off_c, 1, 50, 0
1, 4693200, Note_on_c, 1, 50, 40
1, 4693440, Note_off_c, 1, 50, 0
1, 4693680, Note_on_c, 1, 50, 40
1, 4693920, Note_off_c, 1, 50, 0
1, 4693920, Note_on_c, 1, 50, 40
1, 4694160, Note_off_c, 1, 50, 0
1, 4694160, Note_on_c, 1, 50, 40
1, 4694400, Note_off_c, 1, 50, 0
1, 4694400, Note_on_c, 1, 52, 40
1, 4694640, Note_off_c, 1, 52, 0
1, 4694640, Note_on_c, 1, 57, 40
1, 4695120, Note_off_c, 1, 57, 0
1, 4695120, Note_on_c, 1, 57, 40
1, 4695360, Note_off_c, 1, 57, 0
1, 4695600, Note_on_c, 1, 57, 40
1, 4695840, Note_off_c, 1, 57, 0
1, 4695840, Note_on_c, 1, 50, 40
1, 4696080, Note_off_c, 1, 50, 0
1, 4696080, Note_on_c, 1, 49, 40
1, 4696320, Note_off_c, 1, 49, 0
1, 4696320, Note_on_c, 1, 50, 40
1, 4697040, Note_off_c, 1, 50, 0
1, 4697040, Note_on_c, 1, 50, 40
1, 4697280, Note_off_c, 1, 50, 0
1, 4697520, Note_on_c, 1, 50, 40
1, 4697760, Note_off_c, 1, 50, 0
1, 4697760, Note_on_c, 1, 50, 40
1, 4698000, Note_off_c, 1, 50, 0
1, 4698000, Note_on_c, 1, 50, 40
1, 4698240, Note_off_c, 1, 50, 0
1, 4698240, Note_on_c, 1, 52, 40
1, 4698480, Note_off_c, 1, 52, 0
1, 4698480, Note_on_c, 1, 57, 40
1, 4698960, Note_off_c, 1, 57, 0
1, 4698960, Note_on_c, 1, 57, 40
1, 4699200, Note_off_c, 1, 57, 0
1, 4699440, Note_on_c, 1, 57, 40
1, 4699680, Note_off_c, 1, 57, 0
1, 4699680, Note_on_c, 1, 50, 40
1, 4699920, Note_off_c, 1, 50, 0
1, 4699920, Note_on_c, 1, 49, 40
1, 4700160, Note_off_c, 1, 49, 0
1, 4700160, Note_on_c, 1, 50, 40
1, 4700880, Note_off_c, 1, 50, 0
1, 4700880, Note_on_c, 1, 50, 40
1, 4701120, Note_off_c, 1, 50, 0
1, 4701360, Note_on_c, 1, 50, 40
1, 4701600, Note_off_c, 1, 50, 0
1, 4701600, Note_on_c, 1, 50, 40
1, 4701840, Note_off_c, 1, 50, 0
1, 4701840, Note_on_c, 1, 50, 40
1, 4702080, Note_off_c, 1, 50, 0
1, 4702080, Note_on_c, 1, 52, 40
1, 4702320, Note_off_c, 1, 52, 0
1, 4702320, Note_on_c, 1, 57, 40
1, 4702800, Note_off_c, 1, 57, 0
1, 4702800, Note_on_c, 1, 57, 40
1, 4703040, Note_off_c, 1, 57, 0
1, 4703280, Note_on_c, 1, 57, 40
1, 4703520, Note_off_c, 1, 57, 0
1, 4703520, Note_on_c, 1, 50, 40
1, 4703760, Note_off_c, 1, 50, 0
1, 4703760, Note_on_c, 1, 49, 40
1, 4704000, Note_off_c, 1, 49, 0
1, 4704000, Note_on_c, 1, 50, 40
1, 4704720, Note_off_c, 1, 50, 0
1, 4704720, Note_on_c, 1, 50, 40
1, 4704960, Note_off_c, 1, 50, 0
1, 4705200, Note_on_c, 1, 50, 40
1, 4705440, Note_off_c, 1, 50, 0
1, 4705440, Note_on_c, 1, 50, 40
1, 4705680, Note_off_c, 1, 50, 0
1, 4705680, Note_on_c, 1, 50, 40
1, 4705920, Note_off_c, 1, 50, 0
1, 4705920, Note_on_c, 1, 52, 40
1, 4706160, Note_off_c, 1, 52, 0
1, 4711920, Note_on_c, 1, 40, 40
1, 4712880, Note_off_c, 1, 40, 0
1, 4712880, Note_on_c, 1, 35, 40
1, 4713840, Note_off_c, 1, 35, 0
1, 4713840, Note_on_c, 1, 40, 40
1, 4714800, Note_off_c, 1, 40, 0
1, 4714800, Note_on_c, 1, 35, 40
1, 4715760, Note_off_c, 1, 35, 0
1, 4715760, Note_on_c, 1, 40, 40
1, 4716720, Note_off_c, 1, 40, 0
1, 4716720, Note_on_c, 1, 35, 40
1, 4717680, Note_off_c, 1, 35, 0
1, 4717680, Note_on_c, 1, 40, 40
1, 4718640, Note_off_c, 1, 40, 0
1, 4718640, Note_on_c, 1, 35, 40
1, 4719600, Note_off_c, 1, 35, 0
1, 4719600, Note_on_c, 1, 40, 40
1, 4720560, Note_off_c, 1, 40, 0
1, 4720560, Note_on_c, 1, 35, 40
1, 4721520, Note_off_c, 1, 35, 0
1, 4721520, Note_on_c, 1, 40, 40
1, 4722480, Note_off_c, 1, 40, 0
1, 4722480, Note_on_c, 1, 35, 40
1, 4723440, Note_off_c, 1, 35, 0
1, 4723440, Note_on_c, 1, 40, 40
1, 4724400, Note_off_c, 1, 40, 0
1, 4724400, Note_on_c, 1, 35, 40
1, 4725360, Note_off_c, 1, 35, 0
1, 4725360, Note_on_c, 1, 40, 40
1, 4726320, Note_off_c, 1, 40, 0
1, 4726320, Note_on_c, 1, 35, 40
1, 4727280, Note_off_c, 1, 35, 0
1, 4727280, Note_on_c, 1, 35, 40
1, 4728240, Note_off_c, 1, 35, 0
1, 4728240, Note_on_c, 1, 30, 40
1, 4729200, Note_off_c, 1, 30, 0
1, 4729200, Note_on_c, 1, 35, 40
1, 4730160, Note_off_c, 1, 35, 0
1, 4730160, Note_on_c, 1, 30, 40
1, 4731120, Note_off_c, 1, 30, 0
1, 4731120, Note_on_c, 1, 37, 40
1, 4732080, Note_off_c, 1, 37, 0
1, 4732080, Note_on_c, 1, 32, 40
1, 4732560, Note_off_c, 1, 32, 0
1, 4732560, Note_on_c, 1, 37, 40
1, 4733040, Note_off_c, 1, 37, 0
1, 4733040, Note_on_c, 1, 44, 40
1, 4734000, Note_off_c, 1, 44, 0
1, 4734000, Note_on_c, 1, 39, 40
1, 4734960, Note_off_c, 1, 39, 0
1, 4734960, Note_on_c, 1, 42, 40
1, 4735920, Note_off_c, 1, 42, 0
1, 4735920, Note_on_c, 1, 37, 40
1, 4736880, Note_off_c, 1, 37, 0
1, 4736880, Note_on_c, 1, 35, 40
1, 4737840, Note_off_c, 1, 35, 0
1, 4737840, Note_on_c, 1, 42, 40
1, 4738320, Note_off_c, 1, 42, 0
1, 4738320, Note_on_c, 1, 35, 40
1, 4738800, Note_off_c, 1, 35, 0
1, 4738800, Note_on_c, 1, 40, 40
1, 4739760, Note_off_c, 1, 40, 0
1, 4739760, Note_on_c, 1, 35, 40
1, 4740720, Note_off_c, 1, 35, 0
1, 4740720, Note_on_c, 1, 38, 40
1, 4741680, Note_off_c, 1, 38, 0
1, 4741680, Note_on_c, 1, 33, 40
1, 4742160, Note_off_c, 1, 33, 0
1, 4742160, Note_on_c, 1, 38, 40
1, 4742640, Note_off_c, 1, 38, 0
1, 4742640, Note_on_c, 1, 40, 40
1, 4743600, Note_off_c, 1, 40, 0
1, 4743600, Note_on_c, 1, 35, 40
1, 4744560, Note_off_c, 1, 35, 0
1, 4744560, Note_on_c, 1, 40, 40
1, 4745520, Note_off_c, 1, 40, 0
1, 4745520, Note_on_c, 1, 35, 40
1, 4746000, Note_off_c, 1, 35, 0
1, 4746000, Note_on_c, 1, 40, 40
1, 4746480, Note_off_c, 1, 40, 0
1, 4746480, Note_on_c, 1, 40, 40
1, 4747440, Note_off_c, 1, 40, 0
1, 4747440, Note_on_c, 1, 35, 40
1, 4748400, Note_off_c, 1, 35, 0
1, 4748400, Note_on_c, 1, 40, 40
1, 4749360, Note_off_c, 1, 40, 0
1, 4749360, Note_on_c, 1, 35, 40
1, 4750320, Note_off_c, 1, 35, 0
1, 4750320, Note_on_c, 1, 40, 40
1, 4751280, Note_off_c, 1, 40, 0
1, 4751280, Note_on_c, 1, 35, 40
1, 4752240, Note_off_c, 1, 35, 0
1, 4752240, Note_on_c, 1, 40, 40
1, 4753200, Note_off_c, 1, 40, 0
1, 4753200, Note_on_c, 1, 35, 40
1, 4754160, Note_off_c, 1, 35, 0
1, 4754160, Note_on_c, 1, 40, 40
1, 4755120, Note_off_c, 1, 40, 0
1, 4755120, Note_on_c, 1, 35, 40
1, 4756080, Note_off_c, 1, 35, 0
1, 4756080, Note_on_c, 1, 40, 40
1, 4757040, Note_off_c, 1, 40, 0
1, 4757040, Note_on_c, 1, 35, 40
1, 4758000, Note_off_c, 1, 35, 0
1, 4758000, Note_on_c, 1, 35, 40
1, 4758960, Note_off_c, 1, 35, 0
1, 4758960, Note_on_c, 1, 30, 40
1, 4759920, Note_off_c, 1, 30, 0
1, 4759920, Note_on_c, 1, 35, 40
1, 4760880, Note_off_c, 1, 35, 0
1, 4760880, Note_on_c, 1, 30, 40
1, 4761840, Note_off_c, 1, 30, 0
1, 4761840, Note_on_c, 1, 37, 40
1, 4762800, Note_off_c, 1, 37, 0
1, 4762800, Note_on_c, 1, 32, 40
1, 4763280, Note_off_c, 1, 32, 0
1, 4763280, Note_on_c, 1, 37, 40
1, 4763760, Note_off_c, 1, 37, 0
1, 4763760, Note_on_c, 1, 44, 40
1, 4764720, Note_off_c, 1, 44, 0
1, 4764720, Note_on_c, 1, 39, 40
1, 4765680, Note_off_c, 1, 39, 0
1, 4765680, Note_on_c, 1, 42, 40
1, 4766640, Note_off_c, 1, 42, 0
1, 4766640, Note_on_c, 1, 37, 40
1, 4767600, Note_off_c, 1, 37, 0
1, 4767600, Note_on_c, 1, 35, 40
1, 4768560, Note_off_c, 1, 35, 0
1, 4768560, Note_on_c, 1, 42, 40
1, 4769040, Note_off_c, 1, 42, 0
1, 4769040, Note_on_c, 1, 35, 40
1, 4769520, Note_off_c, 1, 35, 0
1, 4769520, Note_on_c, 1, 40, 40
1, 4770480, Note_off_c, 1, 40, 0
1, 4770480, Note_on_c, 1, 35, 40
1, 4771440, Note_off_c, 1, 35, 0
1, 4771440, Note_on_c, 1, 38, 40
1, 4772400, Note_off_c, 1, 38, 0
1, 4772400, Note_on_c, 1, 33, 40
1, 4772880, Note_off_c, 1, 33, 0
1, 4772880, Note_on_c, 1, 38, 40
1, 4773360, Note_off_c, 1, 38, 0
1, 4773360, Note_on_c, 1, 40, 40
1, 4774320, Note_off_c, 1, 40, 0
1, 4774320, Note_on_c, 1, 35, 40
1, 4775280, Note_off_c, 1, 35, 0
1, 4775280, Note_on_c, 1, 40, 40
1, 4776240, Note_off_c, 1, 40, 0
1, 4776240, Note_on_c, 1, 35, 40
1, 4776720, Note_off_c, 1, 35, 0
1, 4776720, Note_on_c, 1, 39, 40
1, 4777200, Note_off_c, 1, 39, 0
1, 4777200, Note_on_c, 1, 40, 40
1, 4778160, Note_off_c, 1, 40, 0
1, 4778160, Note_on_c, 1, 35, 40
1, 4779120, Note_off_c, 1, 35, 0
1, 4779120, Note_on_c, 1, 40, 40
1, 4780080, Note_off_c, 1, 40, 0
1, 4780080, Note_on_c, 1, 35, 40
1, 4780560, Note_off_c, 1, 35, 0
1, 4780560, Note_on_c, 1, 40, 40
1, 4781040, Note_off_c, 1, 40, 0
1, 4781040, Note_on_c, 1, 37, 40
1, 4782000, Note_off_c, 1, 37, 0
1, 4782000, Note_on_c, 1, 32, 40
1, 4782960, Note_off_c, 1, 32, 0
1, 4782960, Note_on_c, 1, 30, 40
1, 4783920, Note_off_c, 1, 30, 0
1, 4783920, Note_on_c, 1, 37, 40
1, 4784880, Note_off_c, 1, 37, 0
1, 4784880, Note_on_c, 1, 33, 40
1, 4785840, Note_off_c, 1, 33, 0
1, 4785840, Note_on_c, 1, 33, 40
1, 4786800, Note_off_c, 1, 33, 0
1, 4786800, Note_on_c, 1, 35, 40
1, 4787760, Note_off_c, 1, 35, 0
1, 4787760, Note_on_c, 1, 37, 40
1, 4788240, Note_off_c, 1, 37, 0
1, 4788240, Note_on_c, 1, 39, 40
1, 4788720, Note_off_c, 1, 39, 0
1, 4788720, Note_on_c, 1, 40, 40
1, 4789680, Note_off_c, 1, 40, 0
1, 4789680, Note_on_c, 1, 35, 40
1, 4790640, Note_off_c, 1, 35, 0
1, 4790640, Note_on_c, 1, 40, 40
1, 4791600, Note_off_c, 1, 40, 0
1, 4791600, Note_on_c, 1, 35, 40
1, 4792080, Note_off_c, 1, 35, 0
1, 4792080, Note_on_c, 1, 40, 40
1, 4792560, Note_off_c, 1, 40, 0
1, 4792560, Note_on_c, 1, 37, 40
1, 4793520, Note_off_c, 1, 37, 0
1, 4793520, Note_on_c, 1, 32, 40
1, 4794480, Note_off_c, 1, 32, 0
1, 4794480, Note_on_c, 1, 30, 40
1, 4795440, Note_off_c, 1, 30, 0
1, 4795440, Note_on_c, 1, 37, 40
1, 4796400, Note_off_c, 1, 37, 0
1, 4796400, Note_on_c, 1, 33, 40
1, 4797360, Note_off_c, 1, 33, 0
1, 4797360, Note_on_c, 1, 33, 40
1, 4798320, Note_off_c, 1, 33, 0
1, 4798320, Note_on_c, 1, 35, 40
1, 4799280, Note_off_c, 1, 35, 0
1, 4799280, Note_on_c, 1, 37, 40
1, 4799760, Note_off_c, 1, 37, 0
1, 4799760, Note_on_c, 1, 39, 40
1, 4800240, Note_off_c, 1, 39, 0
1, 4800240, Note_on_c, 1, 40, 40
1, 4801200, Note_off_c, 1, 40, 0
1, 4801200, Note_on_c, 1, 35, 40
1, 4802160, Note_off_c, 1, 35, 0
1, 4802160, Note_on_c, 1, 40, 40
1, 4803120, Note_off_c, 1, 40, 0
1, 4803120, Note_on_c, 1, 35, 40
1, 4804080, Note_off_c, 1, 35, 0
1, 4804080, Note_on_c, 1, 40, 40
1, 4805040, Note_off_c, 1, 40, 0
1, 4805040, Note_on_c, 1, 35, 40
1, 4806000, Note_off_c, 1, 35, 0
1, 4806000, Note_on_c, 1, 40, 40
1, 4806960, Note_off_c, 1, 40, 0
1, 4806960, Note_on_c, 1, 35, 40
1, 4807920, Note_off_c, 1, 35, 0
1, 4807920, Note_on_c, 1, 40, 40
1, 4808880, Note_off_c, 1, 40, 0
1, 4808880, Note_on_c, 1, 35, 40
1, 4809840, Note_off_c, 1, 35, 0
1, 4809840, Note_on_c, 1, 40, 40
1, 4810800, Note_off_c, 1, 40, 0
1, 4810800, Note_on_c, 1, 35, 40
1, 4811760, Note_off_c, 1, 35, 0
1, 4811760, Note_on_c, 1, 35, 40
1, 4812720, Note_off_c, 1, 35, 0
1, 4812720, Note_on_c, 1, 30, 40
1, 4813680, Note_off_c, 1, 30, 0
1, 4813680, Note_on_c, 1, 35, 40
1, 4814640, Note_off_c, 1, 35, 0
1, 4814640, Note_on_c, 1, 30, 40
1, 4815600, Note_off_c, 1, 30, 0
1, 4815600, Note_on_c, 1, 37, 40
1, 4816560, Note_off_c, 1, 37, 0
1, 4816560, Note_on_c, 1, 32, 40
1, 4817040, Note_off_c, 1, 32, 0
1, 4817040, Note_on_c, 1, 37, 40
1, 4817520, Note_off_c, 1, 37, 0
1, 4817520, Note_on_c, 1, 44, 40
1, 4818480, Note_off_c, 1, 44, 0
1, 4818480, Note_on_c, 1, 39, 40
1, 4819440, Note_off_c, 1, 39, 0
1, 4819440, Note_on_c, 1, 42, 40
1, 4820400, Note_off_c, 1, 42, 0
1, 4820400, Note_on_c, 1, 37, 40
1, 4821360, Note_off_c, 1, 37, 0
1, 4821360, Note_on_c, 1, 35, 40
1, 4822320, Note_off_c, 1, 35, 0
1, 4822320, Note_on_c, 1, 42, 40
1, 4822800, Note_off_c, 1, 42, 0
1, 4822800, Note_on_c, 1, 35, 40
1, 4823280, Note_off_c, 1, 35, 0
1, 4823280, Note_on_c, 1, 40, 40
1, 4824240, Note_off_c, 1, 40, 0
1, 4824240, Note_on_c, 1, 35, 40
1, 4825200, Note_off_c, 1, 35, 0
1, 4825200, Note_on_c, 1, 38, 40
1, 4826160, Note_off_c, 1, 38, 0
1, 4826160, Note_on_c, 1, 33, 40
1, 4826640, Note_off_c, 1, 33, 0
1, 4826640, Note_on_c, 1, 38, 40
1, 4827120, Note_off_c, 1, 38, 0
1, 4827120, Note_on_c, 1, 40, 40
1, 4828080, Note_off_c, 1, 40, 0
1, 4828080, Note_on_c, 1, 35, 40
1, 4829040, Note_off_c, 1, 35, 0
1, 4829040, Note_on_c, 1, 40, 40
1, 4829520, Note_off_c, 1, 40, 0
1, 4829520, Note_on_c, 1, 35, 40
1, 4830000, Note_off_c, 1, 35, 0
1, 4830000, Note_on_c, 1, 37, 40
1, 4830480, Note_off_c, 1, 37, 0
1, 4830480, Note_on_c, 1, 39, 40
1, 4830960, Note_off_c, 1, 39, 0
1, 4830960, Note_on_c, 1, 40, 40
1, 4831920, Note_off_c, 1, 40, 0
1, 4831920, Note_on_c, 1, 35, 40
1, 4832880, Note_off_c, 1, 35, 0
1, 4832880, Note_on_c, 1, 40, 40
1, 4833840, Note_off_c, 1, 40, 0
1, 4833840, Note_on_c, 1, 35, 40
1, 4834320, Note_off_c, 1, 35, 0
1, 4834320, Note_on_c, 1, 39, 40
1, 4834800, Note_off_c, 1, 39, 0
1, 4834800, Note_on_c, 1, 40, 40
1, 4835760, Note_off_c, 1, 40, 0
1, 4835760, Note_on_c, 1, 35, 40
1, 4836720, Note_off_c, 1, 35, 0
1, 4836720, Note_on_c, 1, 40, 40
1, 4837200, Note_off_c, 1, 40, 0
1, 4837200, Note_on_c, 1, 35, 40
1, 4837680, Note_off_c, 1, 35, 0
1, 4837680, Note_on_c, 1, 37, 40
1, 4838160, Note_off_c, 1, 37, 0
1, 4838160, Note_on_c, 1, 39, 40
1, 4838640, Note_off_c, 1, 39, 0
1, 4838640, Note_on_c, 1, 40, 40
1, 4839600, Note_off_c, 1, 40, 0
1, 4839600, Note_on_c, 1, 35, 40
1, 4840560, Note_off_c, 1, 35, 0
1, 4840560, Note_on_c, 1, 40, 40
1, 4841040, Note_off_c, 1, 40, 0
1, 4841040, Note_on_c, 1, 40, 40
1, 4841520, Note_off_c, 1, 40, 0
1, 4841520, Note_on_c, 1, 39, 40
1, 4842000, Note_off_c, 1, 39, 0
1, 4842000, Note_on_c, 1, 37, 40
1, 4842480, Note_off_c, 1, 37, 0
1, 4842480, Note_on_c, 1, 35, 40
1, 4843440, Note_off_c, 1, 35, 0
1, 4843440, Note_on_c, 1, 30, 40
1, 4844400, Note_off_c, 1, 30, 0
1, 4844400, Note_on_c, 1, 35, 40
1, 4845360, Note_off_c, 1, 35, 0
1, 4845360, Note_on_c, 1, 30, 40
1, 4845840, Note_off_c, 1, 30, 0
1, 4845840, Note_on_c, 1, 35, 40
1, 4846320, Note_off_c, 1, 35, 0
1, 4846320, Note_on_c, 1, 37, 40
1, 4847280, Note_off_c, 1, 37, 0
1, 4847280, Note_on_c, 1, 32, 40
1, 4847760, Note_off_c, 1, 32, 0
1, 4847760, Note_on_c, 1, 37, 40
1, 4848240, Note_off_c, 1, 37, 0
1, 4848240, Note_on_c, 1, 44, 40
1, 4849200, Note_off_c, 1, 44, 0
1, 4849200, Note_on_c, 1, 39, 40
1, 4849680, Note_off_c, 1, 39, 0
1, 4849680, Note_on_c, 1, 44, 40
1, 4850160, Note_off_c, 1, 44, 0
1, 4850160, Note_on_c, 1, 42, 40
1, 4851120, Note_off_c, 1, 42, 0
1, 4851120, Note_on_c, 1, 37, 40
1, 4851600, Note_off_c, 1, 37, 0
1, 4851600, Note_on_c, 1, 42, 40
1, 4852080, Note_off_c, 1, 42, 0
1, 4852080, Note_on_c, 1, 35, 40
1, 4852560, Note_off_c, 1, 35, 0
1, 4852560, Note_on_c, 1, 33, 40
1, 4853040, Note_off_c, 1, 33, 0
1, 4853040, Note_on_c, 1, 32, 40
1, 4853520, Note_off_c, 1, 32, 0
1, 4853520, Note_on_c, 1, 30, 40
1, 4854000, Note_off_c, 1, 30, 0
1, 4854000, Note_on_c, 1, 40, 40
1, 4854960, Note_off_c, 1, 40, 0
1, 4854960, Note_on_c, 1, 35, 40
1, 4855920, Note_off_c, 1, 35, 0
1, 4855920, Note_on_c, 1, 38, 40
1, 4856880, Note_off_c, 1, 38, 0
1, 4856880, Note_on_c, 1, 33, 40
1, 4857360, Note_off_c, 1, 33, 0
1, 4857360, Note_on_c, 1, 38, 40
1, 4857840, Note_off_c, 1, 38, 0
1, 4857840, Note_on_c, 1, 40, 40
1, 4858800, Note_off_c, 1, 40, 0
1, 4858800, Note_on_c, 1, 35, 40
1, 4859760, Note_off_c, 1, 35, 0
1, 4859760, Note_on_c, 1, 40, 40
1, 4860240, Note_off_c, 1, 40, 0
1, 4860240, Note_on_c, 1, 35, 40
1, 4860720, Note_off_c, 1, 35, 0
1, 4860720, Note_on_c, 1, 37, 40
1, 4861200, Note_off_c, 1, 37, 0
1, 4861200, Note_on_c, 1, 39, 40
1, 4861680, Note_off_c, 1, 39, 0
1, 4861680, Note_on_c, 1, 40, 40
1, 4862640, Note_off_c, 1, 40, 0
1, 4862640, Note_on_c, 1, 35, 40
1, 4863600, Note_off_c, 1, 35, 0
1, 4863600, Note_on_c, 1, 40, 40
1, 4864560, Note_off_c, 1, 40, 0
1, 4864560, Note_on_c, 1, 35, 40
1, 4865040, Note_off_c, 1, 35, 0
1, 4865040, Note_on_c, 1, 40, 40
1, 4865520, Note_off_c, 1, 40, 0
1, 4865520, Note_on_c, 1, 37, 40
1, 4866480, Note_off_c, 1, 37, 0
1, 4866480, Note_on_c, 1, 32, 40
1, 4867440, Note_off_c, 1, 32, 0
1, 4867440, Note_on_c, 1, 30, 40
1, 4868400, Note_off_c, 1, 30, 0
1, 4868400, Note_on_c, 1, 37, 40
1, 4869360, Note_off_c, 1, 37, 0
1, 4869360, Note_on_c, 1, 33, 40
1, 4870320, Note_off_c, 1, 33, 0
1, 4870320, Note_on_c, 1, 33, 40
1, 4871280, Note_off_c, 1, 33, 0
1, 4871280, Note_on_c, 1, 35, 40
1, 4872240, Note_off_c, 1, 35, 0
1, 4872240, Note_on_c, 1, 37, 40
1, 4872720, Note_off_c, 1, 37, 0
1, 4872720, Note_on_c, 1, 39, 40
1, 4873200, Note_off_c, 1, 39, 0
1, 4873200, Note_on_c, 1, 40, 40
1, 4874160, Note_off_c, 1, 40, 0
1, 4874160, Note_on_c, 1, 35, 40
1, 4875120, Note_off_c, 1, 35, 0
1, 4875120, Note_on_c, 1, 40, 40
1, 4876080, Note_off_c, 1, 40, 0
1, 4876080, Note_on_c, 1, 35, 40
1, 4876560, Note_off_c, 1, 35, 0
1, 4876560, Note_on_c, 1, 40, 40
1, 4877040, Note_off_c, 1, 40, 0
1, 4877040, Note_on_c, 1, 37, 40
1, 4878000, Note_off_c, 1, 37, 0
1, 4878000, Note_on_c, 1, 32, 40
1, 4878960, Note_off_c, 1, 32, 0
1, 4878960, Note_on_c, 1, 30, 40
1, 4879920, Note_off_c, 1, 30, 0
1, 4879920, Note_on_c, 1, 37, 40
1, 4880880, Note_off_c, 1, 37, 0
1, 4880880, Note_on_c, 1, 33, 40
1, 4881840, Note_off_c, 1, 33, 0
1, 4881840, Note_on_c, 1, 33, 40
1, 4882800, Note_off_c, 1, 33, 0
1, 4882800, Note_on_c, 1, 35, 40
1, 4883760, Note_off_c, 1, 35, 0
1, 4883760, Note_on_c, 1, 37, 40
1, 4884240, Note_off_c, 1, 37, 0
1, 4884240, Note_on_c, 1, 39, 40
1, 4884720, Note_off_c, 1, 39, 0
1, 4884720, Note_on_c, 1, 40, 40
1, 4885680, Note_off_c, 1, 40, 0
1, 4885680, Note_on_c, 1, 35, 40
1, 4886640, Note_off_c, 1, 35, 0
1, 4886640, Note_on_c, 1, 40, 40
1, 4887600, Note_off_c, 1, 40, 0
1, 4887600, Note_on_c, 1, 35, 40
1, 4888560, Note_off_c, 1, 35, 0
1, 4888560, Note_on_c, 1, 40, 40
1, 4889520, Note_off_c, 1, 40, 0
1, 4889520, Note_on_c, 1, 35, 40
1, 4890480, Note_off_c, 1, 35, 0
1, 4890480, Note_on_c, 1, 40, 40
1, 4891440, Note_off_c, 1, 40, 0
1, 4891440, Note_on_c, 1, 35, 40
1, 4892400, Note_off_c, 1, 35, 0
1, 4892400, Note_on_c, 1, 40, 40
1, 4893360, Note_off_c, 1, 40, 0
1, 4893360, Note_on_c, 1, 35, 40
1, 4894320, Note_off_c, 1, 35, 0
1, 4894320, Note_on_c, 1, 40, 40
1, 4895280, Note_off_c, 1, 40, 0
1, 4895280, Note_on_c, 1, 35, 40
1, 4896240, Note_off_c, 1, 35, 0
1, 4896240, Note_on_c, 1, 35, 40
1, 4897200, Note_off_c, 1, 35, 0
1, 4897200, Note_on_c, 1, 30, 40
1, 4898160, Note_off_c, 1, 30, 0
1, 4898160, Note_on_c, 1, 35, 40
1, 4899120, Note_off_c, 1, 35, 0
1, 4899120, Note_on_c, 1, 30, 40
1, 4900080, Note_off_c, 1, 30, 0
1, 4900080, Note_on_c, 1, 37, 40
1, 4901040, Note_off_c, 1, 37, 0
1, 4901040, Note_on_c, 1, 32, 40
1, 4901520, Note_off_c, 1, 32, 0
1, 4901520, Note_on_c, 1, 37, 40
1, 4902000, Note_off_c, 1, 37, 0
1, 4902000, Note_on_c, 1, 44, 40
1, 4902960, Note_off_c, 1, 44, 0
1, 4902960, Note_on_c, 1, 39, 40
1, 4903920, Note_off_c, 1, 39, 0
1, 4903920, Note_on_c, 1, 42, 40
1, 4904880, Note_off_c, 1, 42, 0
1, 4904880, Note_on_c, 1, 37, 40
1, 4905840, Note_off_c, 1, 37, 0
1, 4905840, Note_on_c, 1, 35, 40
1, 4906800, Note_off_c, 1, 35, 0
1, 4906800, Note_on_c, 1, 42, 40
1, 4907280, Note_off_c, 1, 42, 0
1, 4907280, Note_on_c, 1, 35, 40
1, 4907760, Note_off_c, 1, 35, 0
1, 4907760, Note_on_c, 1, 40, 40
1, 4908720, Note_off_c, 1, 40, 0
1, 4908720, Note_on_c, 1, 35, 40
1, 4909680, Note_off_c, 1, 35, 0
1, 4909680, Note_on_c, 1, 38, 40
1, 4910640, Note_off_c, 1, 38, 0
1, 4910640, Note_on_c, 1, 33, 40
1, 4911120, Note_off_c, 1, 33, 0
1, 4911120, Note_on_c, 1, 38, 40
1, 4911600, Note_off_c, 1, 38, 0
1, 4911600, Note_on_c, 1, 40, 40
1, 4912560, Note_off_c, 1, 40, 0
1, 4912560, Note_on_c, 1, 35, 40
1, 4913520, Note_off_c, 1, 35, 0
1, 4913520, Note_on_c, 1, 40, 40
1, 4914000, Note_off_c, 1, 40, 0
1, 4914000, Note_on_c, 1, 35, 40
1, 4914480, Note_off_c, 1, 35, 0
1, 4914480, Note_on_c, 1, 37, 40
1, 4914960, Note_off_c, 1, 37, 0
1, 4914960, Note_on_c, 1, 39, 40
1, 4915440, Note_off_c, 1, 39, 0
1, 4915440, Note_on_c, 1, 40, 40
1, 4916400, Note_off_c, 1, 40, 0
1, 4916400, Note_on_c, 1, 35, 40
1, 4917360, Note_off_c, 1, 35, 0
1, 4917360, Note_on_c, 1, 40, 40
1, 4918320, Note_off_c, 1, 40, 0
1, 4918320, Note_on_c, 1, 35, 40
1, 4918800, Note_off_c, 1, 35, 0
1, 4918800, Note_on_c, 1, 40, 40
1, 4919280, Note_off_c, 1, 40, 0
1, 4919280, Note_on_c, 1, 35, 40
1, 4920240, Note_off_c, 1, 35, 0
1, 4920240, Note_on_c, 1, 30, 40
1, 4921200, Note_off_c, 1, 30, 0
1, 4921200, Note_on_c, 1, 35, 40
1, 4922160, Note_off_c, 1, 35, 0
1, 4922160, Note_on_c, 1, 30, 40
1, 4922640, Note_off_c, 1, 30, 0
1, 4922640, Note_on_c, 1, 35, 40
1, 4923120, Note_off_c, 1, 35, 0
1, 4923120, Note_on_c, 1, 35, 40
1, 4924080, Note_off_c, 1, 35, 0
1, 4924080, Note_on_c, 1, 30, 40
1, 4925040, Note_off_c, 1, 30, 0
1, 4925040, Note_on_c, 1, 35, 40
1, 4926000, Note_off_c, 1, 35, 0
1, 4926000, Note_on_c, 1, 30, 40
1, 4926480, Note_off_c, 1, 30, 0
1, 4926480, Note_on_c, 1, 35, 40
1, 4926960, Note_off_c, 1, 35, 0
1, 4926960, Note_on_c, 1, 40, 40
1, 4928880, Note_off_c, 1, 40, 0
1, 4945560, Note_on_c, 1, 42, 40
1, 4945680, Note_off_c, 1, 42, 0
1, 4945680, Note_on_c, 1, 47, 40
1, 4946160, Note_off_c, 1, 47, 0
1, 4946160, Note_on_c, 1, 40, 40
1, 4946880, Note_off_c, 1, 40, 0
1, 4947000, Note_on_c, 1, 40, 40
1, 4947120, Note_off_c, 1, 40, 0
1, 4947120, Note_on_c, 1, 35, 40
1, 4947840, Note_off_c, 1, 35, 0
1, 4947960, Note_on_c, 1, 35, 40
1, 4948080, Note_off_c, 1, 35, 0
1, 4948080, Note_on_c, 1, 40, 40
1, 4948800, Note_off_c, 1, 40, 0
1, 4948920, Note_on_c, 1, 40, 40
1, 4949040, Note_off_c, 1, 40, 0
1, 4949040, Note_on_c, 1, 35, 40
1, 4949760, Note_off_c, 1, 35, 0
1, 4949880, Note_on_c, 1, 35, 40
1, 4950000, Note_off_c, 1, 35, 0
1, 4950000, Note_on_c, 1, 40, 40
1, 4950720, Note_off_c, 1, 40, 0
1, 4950840, Note_on_c, 1, 40, 40
1, 4950960, Note_off_c, 1, 40, 0
1, 4950960, Note_on_c, 1, 35, 40
1, 4951680, Note_off_c, 1, 35, 0
1, 4951800, Note_on_c, 1, 35, 40
1, 4951920, Note_off_c, 1, 35, 0
1, 4951920, Note_on_c, 1, 40, 40
1, 4952640, Note_off_c, 1, 40, 0
1, 4952760, Note_on_c, 1, 40, 40
1, 4952880, Note_off_c, 1, 40, 0
1, 4952880, Note_on_c, 1, 35, 40
1, 4953600, Note_off_c, 1, 35, 0
1, 4953720, Note_on_c, 1, 35, 40
1, 4953840, Note_off_c, 1, 35, 0
1, 4953840, Note_on_c, 1, 40, 40
1, 4954560, Note_off_c, 1, 40, 0
1, 4954680, Note_on_c, 1, 40, 40
1, 4954800, Note_off_c, 1, 40, 0
1, 4954800, Note_on_c, 1, 35, 40
1, 4955520, Note_off_c, 1, 35, 0
1, 4955640, Note_on_c, 1, 35, 40
1, 4955760, Note_off_c, 1, 35, 0
1, 4955760, Note_on_c, 1, 40, 40
1, 4956480, Note_off_c, 1, 40, 0
1, 4956600, Note_on_c, 1, 40, 40
1, 4956720, Note_off_c, 1, 40, 0
1, 4956720, Note_on_c, 1, 35, 40
1, 4957440, Note_off_c, 1, 35, 0
1, 4957560, Note_on_c, 1, 35, 40
1, 4957680, Note_off_c, 1, 35, 0
1, 4957680, Note_on_c, 1, 35, 40
1, 4958400, Note_off_c, 1, 35, 0
1, 4958520, Note_on_c, 1, 35, 40
1, 4958640, Note_off_c, 1, 35, 0
1, 4958640, Note_on_c, 1, 42, 40
1, 4959360, Note_off_c, 1, 42, 0
1, 4959480, Note_on_c, 1, 35, 40
1, 4959600, Note_off_c, 1, 35, 0
1, 4959600, Note_on_c, 1, 35, 40
1, 4960320, Note_off_c, 1, 35, 0
1, 4960440, Note_on_c, 1, 35, 40
1, 4960560, Note_off_c, 1, 35, 0
1, 4960560, Note_on_c, 1, 42, 40
1, 4961280, Note_off_c, 1, 42, 0
1, 4961400, Note_on_c, 1, 35, 40
1, 4961520, Note_off_c, 1, 35, 0
1, 4961520, Note_on_c, 1, 35, 40
1, 4962240, Note_off_c, 1, 35, 0
1, 4962360, Note_on_c, 1, 35, 40
1, 4962480, Note_off_c, 1, 35, 0
1, 4962480, Note_on_c, 1, 42, 40
1, 4963200, Note_off_c, 1, 42, 0
1, 4963320, Note_on_c, 1, 35, 40
1, 4963440, Note_off_c, 1, 35, 0
1, 4963440, Note_on_c, 1, 33, 40
1, 4964160, Note_off_c, 1, 33, 0
1, 4964280, Note_on_c, 1, 33, 40
1, 4964400, Note_off_c, 1, 33, 0
1, 4964400, Note_on_c, 1, 40, 40
1, 4965120, Note_off_c, 1, 40, 0
1, 4965240, Note_on_c, 1, 33, 40
1, 4965360, Note_off_c, 1, 33, 0
1, 4965360, Note_on_c, 1, 40, 40
1, 4966080, Note_off_c, 1, 40, 0
1, 4966200, Note_on_c, 1, 40, 40
1, 4966320, Note_off_c, 1, 40, 0
1, 4966320, Note_on_c, 1, 35, 40
1, 4967040, Note_off_c, 1, 35, 0
1, 4967160, Note_on_c, 1, 35, 40
1, 4967280, Note_off_c, 1, 35, 0
1, 4967280, Note_on_c, 1, 40, 40
1, 4968000, Note_off_c, 1, 40, 0
1, 4968120, Note_on_c, 1, 40, 40
1, 4968240, Note_off_c, 1, 40, 0
1, 4968240, Note_on_c, 1, 35, 40
1, 4968960, Note_off_c, 1, 35, 0
1, 4969080, Note_on_c, 1, 35, 40
1, 4969200, Note_off_c, 1, 35, 0
1, 4969200, Note_on_c, 1, 40, 40
1, 4969920, Note_off_c, 1, 40, 0
1, 4970040, Note_on_c, 1, 40, 40
1, 4970160, Note_off_c, 1, 40, 0
1, 4970160, Note_on_c, 1, 35, 40
1, 4970880, Note_off_c, 1, 35, 0
1, 4971000, Note_on_c, 1, 35, 40
1, 4971120, Note_off_c, 1, 35, 0
1, 4971120, Note_on_c, 1, 40, 40
1, 4971840, Note_off_c, 1, 40, 0
1, 4971960, Note_on_c, 1, 40, 40
1, 4972080, Note_off_c, 1, 40, 0
1, 4972080, Note_on_c, 1, 35, 40
1, 4972800, Note_off_c, 1, 35, 0
1, 4972920, Note_on_c, 1, 35, 40
1, 4973040, Note_off_c, 1, 35, 0
1, 4973040, Note_on_c, 1, 40, 40
1, 4973760, Note_off_c, 1, 40, 0
1, 4973880, Note_on_c, 1, 40, 40
1, 4974000, Note_off_c, 1, 40, 0
1, 4974000, Note_on_c, 1, 35, 40
1, 4974720, Note_off_c, 1, 35, 0
1, 4974840, Note_on_c, 1, 35, 40
1, 4974960, Note_off_c, 1, 35, 0
1, 4974960, Note_on_c, 1, 40, 40
1, 4975680, Note_off_c, 1, 40, 0
1, 4975800, Note_on_c, 1, 40, 40
1, 4975920, Note_off_c, 1, 40, 0
1, 4975920, Note_on_c, 1, 35, 40
1, 4976640, Note_off_c, 1, 35, 0
1, 4976760, Note_on_c, 1, 35, 40
1, 4976880, Note_off_c, 1, 35, 0
1, 4976880, Note_on_c, 1, 35, 40
1, 4977600, Note_off_c, 1, 35, 0
1, 4977720, Note_on_c, 1, 35, 40
1, 4977840, Note_off_c, 1, 35, 0
1, 4977840, Note_on_c, 1, 42, 40
1, 4978560, Note_off_c, 1, 42, 0
1, 4978680, Note_on_c, 1, 35, 40
1, 4978800, Note_off_c, 1, 35, 0
1, 4978800, Note_on_c, 1, 35, 40
1, 4979520, Note_off_c, 1, 35, 0
1, 4979640, Note_on_c, 1, 35, 40
1, 4979760, Note_off_c, 1, 35, 0
1, 4979760, Note_on_c, 1, 42, 40
1, 4980480, Note_off_c, 1, 42, 0
1, 4980600, Note_on_c, 1, 35, 40
1, 4980720, Note_off_c, 1, 35, 0
1, 4980720, Note_on_c, 1, 35, 40
1, 4981440, Note_off_c, 1, 35, 0
1, 4981560, Note_on_c, 1, 35, 40
1, 4981680, Note_off_c, 1, 35, 0
1, 4981680, Note_on_c, 1, 42, 40
1, 4982400, Note_off_c, 1, 42, 0
1, 4982520, Note_on_c, 1, 35, 40
1, 4982640, Note_off_c, 1, 35, 0
1, 4982640, Note_on_c, 1, 33, 40
1, 4983360, Note_off_c, 1, 33, 0
1, 4983480, Note_on_c, 1, 33, 40
1, 4983600, Note_off_c, 1, 33, 0
1, 4983600, Note_on_c, 1, 40, 40
1, 4984320, Note_off_c, 1, 40, 0
1, 4984440, Note_on_c, 1, 33, 40
1, 4984560, Note_off_c, 1, 33, 0
1, 4984560, Note_on_c, 1, 40, 40
1, 4985280, Note_off_c, 1, 40, 0
1, 4985400, Note_on_c, 1, 40, 40
1, 4985520, Note_off_c, 1, 40, 0
1, 4985520, Note_on_c, 1, 35, 40
1, 4986240, Note_off_c, 1, 35, 0
1, 4986360, Note_on_c, 1, 35, 40
1, 4986480, Note_off_c, 1, 35, 0
1, 4986480, Note_on_c, 1, 40, 40
1, 4987200, Note_off_c, 1, 40, 0
1, 4987320, Note_on_c, 1, 40, 40
1, 4987440, Note_off_c, 1, 40, 0
1, 4987440, Note_on_c, 1, 35, 40
1, 4988280, Note_off_c, 1, 35, 0
1, 4988400, Note_on_c, 1, 40, 40
1, 4989120, Note_off_c, 1, 40, 0
1, 4989240, Note_on_c, 1, 40, 40
1, 4989360, Note_off_c, 1, 40, 0
1, 4989360, Note_on_c, 1, 35, 40
1, 4990200, Note_off_c, 1, 35, 0
1, 4990320, Note_on_c, 1, 32, 40
1, 4991040, Note_off_c, 1, 32, 0
1, 4991160, Note_on_c, 1, 32, 40
1, 4991280, Note_off_c, 1, 32, 0
1, 4991280, Note_on_c, 1, 27, 40
1, 4992120, Note_off_c, 1, 27, 0
1, 4992240, Note_on_c, 1, 33, 40
1, 4992960, Note_off_c, 1, 33, 0
1, 4993080, Note_on_c, 1, 33, 40
1, 4993200, Note_off_c, 1, 33, 0
1, 4993200, Note_on_c, 1, 28, 40
1, 4993920, Note_off_c, 1, 28, 0
1, 4994040, Note_on_c, 1, 33, 40
1, 4994160, Note_off_c, 1, 33, 0
1, 4994160, Note_on_c, 1, 35, 40
1, 4994880, Note_off_c, 1, 35, 0
1, 4995000, Note_on_c, 1, 35, 40
1, 4995120, Note_off_c, 1, 35, 0
1, 4995120, Note_on_c, 1, 30, 40
1, 4995960, Note_off_c, 1, 30, 0
1, 4996080, Note_on_c, 1, 40, 40
1, 4996800, Note_off_c, 1, 40, 0
1, 4996920, Note_on_c, 1, 40, 40
1, 4997040, Note_off_c, 1, 40, 0
1, 4997040, Note_on_c, 1, 35, 40
1, 4997880, Note_off_c, 1, 35, 0
1, 4998000, Note_on_c, 1, 32, 40
1, 4998720, Note_off_c, 1, 32, 0
1, 4998840, Note_on_c, 1, 32, 40
1, 4998960, Note_off_c, 1, 32, 0
1, 4998960, Note_on_c, 1, 27, 40
1, 4999800, Note_off_c, 1, 27, 0
1, 4999920, Note_on_c, 1, 30, 40
1, 5000640, Note_off_c, 1, 30, 0
1, 5000760, Note_on_c, 1, 33, 40
1, 5000880, Note_off_c, 1, 33, 0
1, 5000880, Note_on_c, 1, 37, 40
1, 5001600, Note_off_c, 1, 37, 0
1, 5001720, Note_on_c, 1, 33, 40
1, 5001840, Note_off_c, 1, 33, 0
1, 5001840, Note_on_c, 1, 35, 40
1, 5002560, Note_off_c, 1, 35, 0
1, 5002680, Note_on_c, 1, 35, 40
1, 5002800, Note_off_c, 1, 35, 0
1, 5002800, Note_on_c, 1, 30, 40
1, 5003040, Note_off_c, 1, 30, 0
1, 5003280, Note_on_c, 1, 35, 40
1, 5003520, Note_off_c, 1, 35, 0
1, 5003760, Note_on_c, 1, 40, 40
1, 5004480, Note_off_c, 1, 40, 0
1, 5004600, Note_on_c, 1, 40, 40
1, 5004720, Note_off_c, 1, 40, 0
1, 5004720, Note_on_c, 1, 35, 40
1, 5005440, Note_off_c, 1, 35, 0
1, 5005560, Note_on_c, 1, 35, 40
1, 5005680, Note_off_c, 1, 35, 0
1, 5005680, Note_on_c, 1, 40, 40
1, 5006400, Note_off_c, 1, 40, 0
1, 5006520, Note_on_c, 1, 40, 40
1, 5006640, Note_off_c, 1, 40, 0
1, 5006640, Note_on_c, 1, 35, 40
1, 5007360, Note_off_c, 1, 35, 0
1, 5007480, Note_on_c, 1, 35, 40
1, 5007600, Note_off_c, 1, 35, 0
1, 5007600, Note_on_c, 1, 40, 40
1, 5008320, Note_off_c, 1, 40, 0
1, 5008440, Note_on_c, 1, 40, 40
1, 5008560, Note_off_c, 1, 40, 0
1, 5008560, Note_on_c, 1, 35, 40
1, 5009280, Note_off_c, 1, 35, 0
1, 5009400, Note_on_c, 1, 35, 40
1, 5009520, Note_off_c, 1, 35, 0
1, 5009520, Note_on_c, 1, 40, 40
1, 5010240, Note_off_c, 1, 40, 0
1, 5010360, Note_on_c, 1, 40, 40
1, 5010480, Note_off_c, 1, 40, 0
1, 5010480, Note_on_c, 1, 35, 40
1, 5011200, Note_off_c, 1, 35, 0
1, 5011320, Note_on_c, 1, 35, 40
1, 5011440, Note_off_c, 1, 35, 0
1, 5011440, Note_on_c, 1, 35, 40
1, 5012160, Note_off_c, 1, 35, 0
1, 5012280, Note_on_c, 1, 35, 40
1, 5012400, Note_off_c, 1, 35, 0
1, 5012400, Note_on_c, 1, 30, 40
1, 5013120, Note_off_c, 1, 30, 0
1, 5013240, Note_on_c, 1, 30, 40
1, 5013360, Note_off_c, 1, 30, 0
1, 5013360, Note_on_c, 1, 35, 40
1, 5014080, Note_off_c, 1, 35, 0
1, 5014200, Note_on_c, 1, 35, 40
1, 5014320, Note_off_c, 1, 35, 0
1, 5014320, Note_on_c, 1, 40, 40
1, 5014560, Note_off_c, 1, 40, 0
1, 5014680, Note_on_c, 1, 42, 40
1, 5014800, Note_off_c, 1, 42, 0
1, 5014800, Note_on_c, 1, 45, 40
1, 5015040, Note_off_c, 1, 45, 0
1, 5015160, Note_on_c, 1, 47, 40
1, 5015280, Note_off_c, 1, 47, 0
1, 5015280, Note_on_c, 1, 35, 40
1, 5016000, Note_off_c, 1, 35, 0
1, 5016120, Note_on_c, 1, 35, 40
1, 5016240, Note_off_c, 1, 35, 0
1, 5016240, Note_on_c, 1, 42, 40
1, 5016960, Note_off_c, 1, 42, 0
1, 5017080, Note_on_c, 1, 42, 40
1, 5017200, Note_off_c, 1, 42, 0
1, 5017200, Note_on_c, 1, 33, 40
1, 5017920, Note_off_c, 1, 33, 0
1, 5018040, Note_on_c, 1, 33, 40
1, 5018160, Note_off_c, 1, 33, 0
1, 5018160, Note_on_c, 1, 40, 40
1, 5018880, Note_off_c, 1, 40, 0
1, 5019000, Note_on_c, 1, 40, 40
1, 5019120, Note_off_c, 1, 40, 0
1, 5019120, Note_on_c, 1, 40, 40
1, 5019840, Note_off_c, 1, 40, 0
1, 5019960, Note_on_c, 1, 40, 40
1, 5020080, Note_off_c, 1, 40, 0
1, 5020080, Note_on_c, 1, 35, 40
1, 5020800, Note_off_c, 1, 35, 0
1, 5020920, Note_on_c, 1, 35, 40
1, 5021040, Note_off_c, 1, 35, 0
1, 5021040, Note_on_c, 1, 28, 40
1, 5021760, Note_off_c, 1, 28, 0
1, 5021880, Note_on_c, 1, 28, 40
1, 5022000, Note_off_c, 1, 28, 0
1, 5022000, Note_on_c, 1, 33, 40
1, 5022240, Note_off_c, 1, 33, 0
1, 5022360, Note_on_c, 1, 35, 40
1, 5022480, Note_off_c, 1, 35, 0
1, 5022480, Note_on_c, 1, 38, 40
1, 5022720, Note_off_c, 1, 38, 0
1, 5022840, Note_on_c, 1, 40, 40
1, 5022960, Note_off_c, 1, 40, 0
1, 5022960, Note_on_c, 1, 40, 40
1, 5023680, Note_off_c, 1, 40, 0
1, 5023800, Note_on_c, 1, 40, 40
1, 5023920, Note_off_c, 1, 40, 0
1, 5023920, Note_on_c, 1, 35, 40
1, 5024640, Note_off_c, 1, 35, 0
1, 5024760, Note_on_c, 1, 35, 40
1, 5024880, Note_off_c, 1, 35, 0
1, 5024880, Note_on_c, 1, 40, 40
1, 5025600, Note_off_c, 1, 40, 0
1, 5025720, Note_on_c, 1, 40, 40
1, 5025840, Note_off_c, 1, 40, 0
1, 5025840, Note_on_c, 1, 35, 40
1, 5026560, Note_off_c, 1, 35, 0
1, 5026680, Note_on_c, 1, 35, 40
1, 5026800, Note_off_c, 1, 35, 0
1, 5026800, Note_on_c, 1, 40, 40
1, 5027520, Note_off_c, 1, 40, 0
1, 5027640, Note_on_c, 1, 40, 40
1, 5027760, Note_off_c, 1, 40, 0
1, 5027760, Note_on_c, 1, 35, 40
1, 5028480, Note_off_c, 1, 35, 0
1, 5028600, Note_on_c, 1, 35, 40
1, 5028720, Note_off_c, 1, 35, 0
1, 5028720, Note_on_c, 1, 40, 40
1, 5029440, Note_off_c, 1, 40, 0
1, 5029560, Note_on_c, 1, 40, 40
1, 5029680, Note_off_c, 1, 40, 0
1, 5029680, Note_on_c, 1, 35, 40
1, 5030400, Note_off_c, 1, 35, 0
1, 5030520, Note_on_c, 1, 35, 40
1, 5030640, Note_off_c, 1, 35, 0
1, 5030640, Note_on_c, 1, 35, 40
1, 5031120, Note_off_c, 1, 35, 0
1, 5031600, Note_on_c, 1, 42, 40
1, 5032080, Note_off_c, 1, 42, 0
1, 5032560, Note_on_c, 1, 35, 40
1, 5033040, Note_off_c, 1, 35, 0
1, 5033520, Note_on_c, 1, 42, 40
1, 5034000, Note_off_c, 1, 42, 0
1, 5034480, Note_on_c, 1, 35, 40
1, 5036400, Note_off_c, 1, 35, 0
1, 5036400, Note_on_c, 1, 35, 40
1, 5038080, Note_off_c, 1, 35, 0
1, 5046000, Note_on_c, 1, 40, 40
1, 5046720, Note_off_c, 1, 40, 0
1, 5046840, Note_on_c, 1, 40, 40
1, 5046960, Note_off_c, 1, 40, 0
1, 5046960, Note_on_c, 1, 35, 40
1, 5047680, Note_off_c, 1, 35, 0
1, 5047800, Note_on_c, 1, 35, 40
1, 5047920, Note_off_c, 1, 35, 0
1, 5047920, Note_on_c, 1, 40, 40
1, 5048640, Note_off_c, 1, 40, 0
1, 5048760, Note_on_c, 1, 40, 40
1, 5048880, Note_off_c, 1, 40, 0
1, 5048880, Note_on_c, 1, 35, 40
1, 5049600, Note_off_c, 1, 35, 0
1, 5049720, Note_on_c, 1, 35, 40
1, 5049840, Note_off_c, 1, 35, 0
1, 5049840, Note_on_c, 1, 40, 40
1, 5050560, Note_off_c, 1, 40, 0
1, 5050680, Note_on_c, 1, 40, 40
1, 5050800, Note_off_c, 1, 40, 0
1, 5050800, Note_on_c, 1, 35, 40
1, 5051520, Note_off_c, 1, 35, 0
1, 5051640, Note_on_c, 1, 35, 40
1, 5051760, Note_off_c, 1, 35, 0
1, 5051760, Note_on_c, 1, 40, 40
1, 5052480, Note_off_c, 1, 40, 0
1, 5052600, Note_on_c, 1, 40, 40
1, 5052720, Note_off_c, 1, 40, 0
1, 5052720, Note_on_c, 1, 35, 40
1, 5053440, Note_off_c, 1, 35, 0
1, 5053560, Note_on_c, 1, 35, 40
1, 5053680, Note_off_c, 1, 35, 0
1, 5053680, Note_on_c, 1, 40, 40
1, 5054400, Note_off_c, 1, 40, 0
1, 5054520, Note_on_c, 1, 40, 40
1, 5054640, Note_off_c, 1, 40, 0
1, 5054640, Note_on_c, 1, 35, 40
1, 5055360, Note_off_c, 1, 35, 0
1, 5055480, Note_on_c, 1, 35, 40
1, 5055600, Note_off_c, 1, 35, 0
1, 5055600, Note_on_c, 1, 40, 40
1, 5056320, Note_off_c, 1, 40, 0
1, 5056440, Note_on_c, 1, 40, 40
1, 5056560, Note_off_c, 1, 40, 0
1, 5056560, Note_on_c, 1, 35, 40
1, 5057280, Note_off_c, 1, 35, 0
1, 5057400, Note_on_c, 1, 35, 40
1, 5057520, Note_off_c, 1, 35, 0
1, 5057520, Note_on_c, 1, 35, 40
1, 5058240, Note_off_c, 1, 35, 0
1, 5058360, Note_on_c, 1, 35, 40
1, 5058480, Note_off_c, 1, 35, 0
1, 5058480, Note_on_c, 1, 42, 40
1, 5059200, Note_off_c, 1, 42, 0
1, 5059320, Note_on_c, 1, 35, 40
1, 5059440, Note_off_c, 1, 35, 0
1, 5059440, Note_on_c, 1, 35, 40
1, 5060160, Note_off_c, 1, 35, 0
1, 5060280, Note_on_c, 1, 35, 40
1, 5060400, Note_off_c, 1, 35, 0
1, 5060400, Note_on_c, 1, 42, 40
1, 5061120, Note_off_c, 1, 42, 0
1, 5061240, Note_on_c, 1, 35, 40
1, 5061360, Note_off_c, 1, 35, 0
1, 5061360, Note_on_c, 1, 35, 40
1, 5062080, Note_off_c, 1, 35, 0
1, 5062200, Note_on_c, 1, 35, 40
1, 5062320, Note_off_c, 1, 35, 0
1, 5062320, Note_on_c, 1, 42, 40
1, 5063040, Note_off_c, 1, 42, 0
1, 5063160, Note_on_c, 1, 35, 40
1, 5063280, Note_off_c, 1, 35, 0
1, 5063280, Note_on_c, 1, 33, 40
1, 5064000, Note_off_c, 1, 33, 0
1, 5064120, Note_on_c, 1, 33, 40
1, 5064240, Note_off_c, 1, 33, 0
1, 5064240, Note_on_c, 1, 40, 40
1, 5064960, Note_off_c, 1, 40, 0
1, 5065080, Note_on_c, 1, 33, 40
1, 5065200, Note_off_c, 1, 33, 0
1, 5065200, Note_on_c, 1, 40, 40
1, 5065920, Note_off_c, 1, 40, 0
1, 5066040, Note_on_c, 1, 40, 40
1, 5066160, Note_off_c, 1, 40, 0
1, 5066160, Note_on_c, 1, 35, 40
1, 5066880, Note_off_c, 1, 35, 0
1, 5067000, Note_on_c, 1, 35, 40
1, 5067120, Note_off_c, 1, 35, 0
1, 5067120, Note_on_c, 1, 40, 40
1, 5067840, Note_off_c, 1, 40, 0
1, 5067960, Note_on_c, 1, 40, 40
1, 5068080, Note_off_c, 1, 40, 0
1, 5068080, Note_on_c, 1, 35, 40
1, 5068920, Note_off_c, 1, 35, 0
1, 5069040, Note_on_c, 1, 40, 40
1, 5069760, Note_off_c, 1, 40, 0
1, 5069880, Note_on_c, 1, 40, 40
1, 5070000, Note_off_c, 1, 40, 0
1, 5070000, Note_on_c, 1, 35, 40
1, 5070840, Note_off_c, 1, 35, 0
1, 5070960, Note_on_c, 1, 32, 40
1, 5071680, Note_off_c, 1, 32, 0
1, 5071800, Note_on_c, 1, 32, 40
1, 5071920, Note_off_c, 1, 32, 0
1, 5071920, Note_on_c, 1, 27, 40
1, 5072760, Note_off_c, 1, 27, 0
1, 5072880, Note_on_c, 1, 33, 40
1, 5073600, Note_off_c, 1, 33, 0
1, 5073720, Note_on_c, 1, 33, 40
1, 5073840, Note_off_c, 1, 33, 0
1, 5073840, Note_on_c, 1, 28, 40
1, 5074560, Note_off_c, 1, 28, 0
1, 5074680, Note_on_c, 1, 33, 40
1, 5074800, Note_off_c, 1, 33, 0
1, 5074800, Note_on_c, 1, 35, 40
1, 5075520, Note_off_c, 1, 35, 0
1, 5075640, Note_on_c, 1, 35, 40
1, 5075760, Note_off_c, 1, 35, 0
1, 5075760, Note_on_c, 1, 30, 40
1, 5076600, Note_off_c, 1, 30, 0
1, 5076720, Note_on_c, 1, 40, 40
1, 5077440, Note_off_c, 1, 40, 0
1, 5077560, Note_on_c, 1, 40, 40
1, 5077680, Note_off_c, 1, 40, 0
1, 5077680, Note_on_c, 1, 35, 40
1, 5078520, Note_off_c, 1, 35, 0
1, 5078640, Note_on_c, 1, 32, 40
1, 5079360, Note_off_c, 1, 32, 0
1, 5079480, Note_on_c, 1, 32, 40
1, 5079600, Note_off_c, 1, 32, 0
1, 5079600, Note_on_c, 1, 27, 40
1, 5080440, Note_off_c, 1, 27, 0
1, 5080560, Note_on_c, 1, 30, 40
1, 5081280, Note_off_c, 1, 30, 0
1, 5081400, Note_on_c, 1, 33, 40
1, 5081520, Note_off_c, 1, 33, 0
1, 5081520, Note_on_c, 1, 37, 40
1, 5082240, Note_off_c, 1, 37, 0
1, 5082360, Note_on_c, 1, 33, 40
1, 5082480, Note_off_c, 1, 33, 0
1, 5082480, Note_on_c, 1, 35, 40
1, 5083200, Note_off_c, 1, 35, 0
1, 5083320, Note_on_c, 1, 35, 40
1, 5083440, Note_off_c, 1, 35, 0
1, 5083440, Note_on_c, 1, 30, 40
1, 5083680, Note_off_c, 1, 30, 0
1, 5083920, Note_on_c, 1, 35, 40
1, 5084160, Note_off_c, 1, 35, 0
1, 5084400, Note_on_c, 1, 40, 40
1, 5085120, Note_off_c, 1, 40, 0
1, 5085240, Note_on_c, 1, 40, 40
1, 5085360, Note_off_c, 1, 40, 0
1, 5085360, Note_on_c, 1, 35, 40
1, 5086080, Note_off_c, 1, 35, 0
1, 5086200, Note_on_c, 1, 35, 40
1, 5086320, Note_off_c, 1, 35, 0
1, 5086320, Note_on_c, 1, 40, 40
1, 5087040, Note_off_c, 1, 40, 0
1, 5087160, Note_on_c, 1, 40, 40
1, 5087280, Note_off_c, 1, 40, 0
1, 5087280, Note_on_c, 1, 35, 40
1, 5088000, Note_off_c, 1, 35, 0
1, 5088120, Note_on_c, 1, 35, 40
1, 5088240, Note_off_c, 1, 35, 0
1, 5088240, Note_on_c, 1, 40, 40
1, 5088960, Note_off_c, 1, 40, 0
1, 5089080, Note_on_c, 1, 40, 40
1, 5089200, Note_off_c, 1, 40, 0
1, 5089200, Note_on_c, 1, 35, 40
1, 5089920, Note_off_c, 1, 35, 0
1, 5090040, Note_on_c, 1, 35, 40
1, 5090160, Note_off_c, 1, 35, 0
1, 5090160, Note_on_c, 1, 40, 40
1, 5090880, Note_off_c, 1, 40, 0
1, 5091000, Note_on_c, 1, 40, 40
1, 5091120, Note_off_c, 1, 40, 0
1, 5091120, Note_on_c, 1, 35, 40
1, 5091840, Note_off_c, 1, 35, 0
1, 5091960, Note_on_c, 1, 35, 40
1, 5092080, Note_off_c, 1, 35, 0
1, 5092080, Note_on_c, 1, 35, 40
1, 5092800, Note_off_c, 1, 35, 0
1, 5092920, Note_on_c, 1, 35, 40
1, 5093040, Note_off_c, 1, 35, 0
1, 5093040, Note_on_c, 1, 30, 40
1, 5093760, Note_off_c, 1, 30, 0
1, 5093880, Note_on_c, 1, 30, 40
1, 5094000, Note_off_c, 1, 30, 0
1, 5094000, Note_on_c, 1, 35, 40
1, 5094720, Note_off_c, 1, 35, 0
1, 5094840, Note_on_c, 1, 35, 40
1, 5094960, Note_off_c, 1, 35, 0
1, 5094960, Note_on_c, 1, 40, 40
1, 5095200, Note_off_c, 1, 40, 0
1, 5095320, Note_on_c, 1, 42, 40
1, 5095440, Note_off_c, 1, 42, 0
1, 5095440, Note_on_c, 1, 45, 40
1, 5095680, Note_off_c, 1, 45, 0
1, 5095800, Note_on_c, 1, 47, 40
1, 5095920, Note_off_c, 1, 47, 0
1, 5095920, Note_on_c, 1, 35, 40
1, 5096640, Note_off_c, 1, 35, 0
1, 5096760, Note_on_c, 1, 35, 40
1, 5096880, Note_off_c, 1, 35, 0
1, 5096880, Note_on_c, 1, 42, 40
1, 5097600, Note_off_c, 1, 42, 0
1, 5097720, Note_on_c, 1, 42, 40
1, 5097840, Note_off_c, 1, 42, 0
1, 5097840, Note_on_c, 1, 33, 40
1, 5098560, Note_off_c, 1, 33, 0
1, 5098680, Note_on_c, 1, 33, 40
1, 5098800, Note_off_c, 1, 33, 0
1, 5098800, Note_on_c, 1, 40, 40
1, 5099520, Note_off_c, 1, 40, 0
1, 5099640, Note_on_c, 1, 40, 40
1, 5099760, Note_off_c, 1, 40, 0
1, 5099760, Note_on_c, 1, 40, 40
1, 5100480, Note_off_c, 1, 40, 0
1, 5100600, Note_on_c, 1, 40, 40
1, 5100720, Note_off_c, 1, 40, 0
1, 5100720, Note_on_c, 1, 35, 40
1, 5101440, Note_off_c, 1, 35, 0
1, 5101560, Note_on_c, 1, 35, 40
1, 5101680, Note_off_c, 1, 35, 0
1, 5101680, Note_on_c, 1, 40, 40
1, 5102400, Note_off_c, 1, 40, 0
1, 5102520, Note_on_c, 1, 40, 40
1, 5102640, Note_off_c, 1, 40, 0
1, 5102640, Note_on_c, 1, 35, 40
1, 5103120, Note_off_c, 1, 35, 0
1, 5103120, Note_on_c, 1, 40, 40
1, 5103600, Note_off_c, 1, 40, 0
1, 5103600, Note_on_c, 1, 35, 40
1, 5104320, Note_off_c, 1, 35, 0
1, 5104440, Note_on_c, 1, 35, 40
1, 5104560, Note_off_c, 1, 35, 0
1, 5104560, Note_on_c, 1, 42, 40
1, 5105280, Note_off_c, 1, 42, 0
1, 5105400, Note_on_c, 1, 42, 40
1, 5105520, Note_off_c, 1, 42, 0
1, 5105520, Note_on_c, 1, 33, 40
1, 5106240, Note_off_c, 1, 33, 0
1, 5106360, Note_on_c, 1, 33, 40
1, 5106480, Note_off_c, 1, 33, 0
1, 5106480, Note_on_c, 1, 40, 40
1, 5107200, Note_off_c, 1, 40, 0
1, 5107320, Note_on_c, 1, 40, 40
1, 5107440, Note_off_c, 1, 40, 0
1, 5107440, Note_on_c, 1, 40, 40
1, 5109360, Note_off_c, 1, 40, 0
1, 5109360, Note_on_c, 1, 40, 40
1, 5111040, Note_off_c, 1, 40, 0
1, 5115360, Note_on_c, 1, 33, 40
1, 5115600, Note_off_c, 1, 33, 0
1, 5115600, Note_on_c, 1, 37, 40
1, 5115840, Note_off_c, 1, 37, 0
1, 5115840, Note_on_c, 1, 35, 40
1, 5116560, Note_off_c, 1, 35, 0
1, 5116560, Note_on_c, 1, 35, 40
1, 5116800, Note_off_c, 1, 35, 0
1, 5116800, Note_on_c, 1, 35, 40
1, 5117040, Note_off_c, 1, 35, 0
1, 5117040, Note_on_c, 1, 35, 40
1, 5117280, Note_off_c, 1, 35, 0
1, 5117280, Note_on_c, 1, 33, 40
1, 5117520, Note_off_c, 1, 33, 0
1, 5117520, Note_on_c, 1, 37, 40
1, 5117760, Note_off_c, 1, 37, 0
1, 5117760, Note_on_c, 1, 35, 40
1, 5118480, Note_off_c, 1, 35, 0
1, 5118480, Note_on_c, 1, 35, 40
1, 5118720, Note_off_c, 1, 35, 0
1, 5118720, Note_on_c, 1, 35, 40
1, 5118960, Note_off_c, 1, 35, 0
1, 5118960, Note_on_c, 1, 35, 40
1, 5119200, Note_off_c, 1, 35, 0
1, 5119200, Note_on_c, 1, 33, 40
1, 5119440, Note_off_c, 1, 33, 0
1, 5119440, Note_on_c, 1, 37, 40
1, 5119680, Note_off_c, 1, 37, 0
1, 5119680, Note_on_c, 1, 35, 40
1, 5120160, Note_off_c, 1, 35, 0
1, 5120160, Note_on_c, 1, 35, 40
1, 5120400, Note_off_c, 1, 35, 0
1, 5120400, Note_on_c, 1, 35, 40
1, 5120640, Note_off_c, 1, 35, 0
1, 5120640, Note_on_c, 1, 35, 40
1, 5120880, Note_off_c, 1, 35, 0
1, 5120880, Note_on_c, 1, 35, 40
1, 5121120, Note_off_c, 1, 35, 0
1, 5121120, Note_on_c, 1, 35, 40
1, 5121360, Note_off_c, 1, 35, 0
1, 5121360, Note_on_c, 1, 35, 40
1, 5121600, Note_off_c, 1, 35, 0
1, 5121600, Note_on_c, 1, 35, 40
1, 5121840, Note_off_c, 1, 35, 0
1, 5121840, Note_on_c, 1, 35, 40
1, 5122080, Note_off_c, 1, 35, 0
1, 5122080, Note_on_c, 1, 35, 40
1, 5122320, Note_off_c, 1, 35, 0
1, 5122320, Note_on_c, 1, 35, 40
1, 5122560, Note_off_c, 1, 35, 0
1, 5122560, Note_on_c, 1, 35, 40
1, 5122800, Note_off_c, 1, 35, 0
1, 5122800, Note_on_c, 1, 35, 40
1, 5123040, Note_off_c, 1, 35, 0
1, 5123040, Note_on_c, 1, 35, 40
1, 5123280, Note_off_c, 1, 35, 0
1, 5123280, Note_on_c, 1, 35, 40
1, 5123520, Note_off_c, 1, 35, 0
1, 5123760, Note_on_c, 1, 40, 40
1, 5124480, Note_off_c, 1, 40, 0
1, 5124480, Note_on_c, 1, 40, 40
1, 5124720, Note_off_c, 1, 40, 0
1, 5124720, Note_on_c, 1, 35, 40
1, 5125200, Note_off_c, 1, 35, 0
1, 5125200, Note_on_c, 1, 40, 40
1, 5125560, Note_off_c, 1, 40, 0
1, 5125680, Note_on_c, 1, 35, 40
1, 5126400, Note_off_c, 1, 35, 0
1, 5126400, Note_on_c, 1, 35, 40
1, 5126640, Note_off_c, 1, 35, 0
1, 5126640, Note_on_c, 1, 35, 40
1, 5127360, Note_off_c, 1, 35, 0
1, 5127360, Note_on_c, 1, 36, 40
1, 5127600, Note_off_c, 1, 36, 0
1, 5127600, Note_on_c, 1, 37, 40
1, 5128320, Note_off_c, 1, 37, 0
1, 5128320, Note_on_c, 1, 37, 40
1, 5128560, Note_off_c, 1, 37, 0
1, 5128560, Note_on_c, 1, 37, 40
1, 5129520, Note_off_c, 1, 37, 0
1, 5129520, Note_on_c, 1, 32, 40
1, 5130240, Note_off_c, 1, 32, 0
1, 5130240, Note_on_c, 1, 32, 40
1, 5130480, Note_off_c, 1, 32, 0
1, 5130480, Note_on_c, 1, 32, 40
1, 5130840, Note_off_c, 1, 32, 0
1, 5130960, Note_on_c, 1, 37, 40
1, 5131320, Note_off_c, 1, 37, 0
1, 5131440, Note_on_c, 1, 40, 40
1, 5132160, Note_off_c, 1, 40, 0
1, 5132160, Note_on_c, 1, 40, 40
1, 5132400, Note_off_c, 1, 40, 0
1, 5132400, Note_on_c, 1, 35, 40
1, 5132880, Note_off_c, 1, 35, 0
1, 5132880, Note_on_c, 1, 40, 40
1, 5133240, Note_off_c, 1, 40, 0
1, 5133360, Note_on_c, 1, 35, 40
1, 5134080, Note_off_c, 1, 35, 0
1, 5134080, Note_on_c, 1, 35, 40
1, 5134320, Note_off_c, 1, 35, 0
1, 5134320, Note_on_c, 1, 35, 40
1, 5135040, Note_off_c, 1, 35, 0
1, 5135040, Note_on_c, 1, 36, 40
1, 5135280, Note_off_c, 1, 36, 0
1, 5135280, Note_on_c, 1, 37, 40
1, 5136000, Note_off_c, 1, 37, 0
1, 5136000, Note_on_c, 1, 37, 40
1, 5136240, Note_off_c, 1, 37, 0
1, 5136240, Note_on_c, 1, 37, 40
1, 5137200, Note_off_c, 1, 37, 0
1, 5137200, Note_on_c, 1, 32, 40
1, 5137680, Note_off_c, 1, 32, 0
1, 5137680, Note_on_c, 1, 32, 40
1, 5138160, Note_off_c, 1, 32, 0
1, 5138160, Note_on_c, 1, 32, 40
1, 5138640, Note_off_c, 1, 32, 0
1, 5138640, Note_on_c, 1, 32, 40
1, 5139120, Note_off_c, 1, 32, 0
1, 5139120, Note_on_c, 1, 33, 40
1, 5139840, Note_off_c, 1, 33, 0
1, 5139840, Note_on_c, 1, 33, 40
1, 5140080, Note_off_c, 1, 33, 0
1, 5140080, Note_on_c, 1, 35, 40
1, 5140800, Note_off_c, 1, 35, 0
1, 5140800, Note_on_c, 1, 35, 40
1, 5141040, Note_off_c, 1, 35, 0
1, 5141040, Note_on_c, 1, 40, 40
1, 5141760, Note_off_c, 1, 40, 0
1, 5141760, Note_on_c, 1, 40, 40
1, 5142000, Note_off_c, 1, 40, 0
1, 5142000, Note_on_c, 1, 44, 40
1, 5142720, Note_off_c, 1, 44, 0
1, 5142720, Note_on_c, 1, 44, 40
1, 5142960, Note_off_c, 1, 44, 0
1, 5142960, Note_on_c, 1, 33, 40
1, 5143680, Note_off_c, 1, 33, 0
1, 5143680, Note_on_c, 1, 33, 40
1, 5143920, Note_off_c, 1, 33, 0
1, 5143920, Note_on_c, 1, 42, 40
1, 5144640, Note_off_c, 1, 42, 0
1, 5144640, Note_on_c, 1, 42, 40
1, 5144880, Note_off_c, 1, 42, 0
1, 5144880, Note_on_c, 1, 40, 40
1, 5145600, Note_off_c, 1, 40, 0
1, 5145600, Note_on_c, 1, 40, 40
1, 5145840, Note_off_c, 1, 40, 0
1, 5145840, Note_on_c, 1, 35, 40
1, 5146080, Note_off_c, 1, 35, 0
1, 5146080, Note_on_c, 1, 35, 40
1, 5146320, Note_off_c, 1, 35, 0
1, 5146320, Note_on_c, 1, 40, 40
1, 5146560, Note_off_c, 1, 40, 0
1, 5146800, Note_on_c, 1, 40, 40
1, 5147520, Note_off_c, 1, 40, 0
1, 5147520, Note_on_c, 1, 40, 40
1, 5147760, Note_off_c, 1, 40, 0
1, 5147760, Note_on_c, 1, 40, 40
1, 5148720, Note_off_c, 1, 40, 0
1, 5148720, Note_on_c, 1, 35, 40
1, 5149440, Note_off_c, 1, 35, 0
1, 5149440, Note_on_c, 1, 35, 40
1, 5149680, Note_off_c, 1, 35, 0
1, 5149680, Note_on_c, 1, 35, 40
1, 5150400, Note_off_c, 1, 35, 0
1, 5150400, Note_on_c, 1, 36, 40
1, 5150640, Note_off_c, 1, 36, 0
1, 5150640, Note_on_c, 1, 37, 40
1, 5151360, Note_off_c, 1, 37, 0
1, 5151360, Note_on_c, 1, 37, 40
1, 5151600, Note_off_c, 1, 37, 0
1, 5151600, Note_on_c, 1, 37, 40
1, 5152560, Note_off_c, 1, 37, 0
1, 5152560, Note_on_c, 1, 32, 40
1, 5153280, Note_off_c, 1, 32, 0
1, 5153280, Note_on_c, 1, 32, 40
1, 5153520, Note_off_c, 1, 32, 0
1, 5153520, Note_on_c, 1, 32, 40
1, 5153880, Note_off_c, 1, 32, 0
1, 5154000, Note_on_c, 1, 37, 40
1, 5154360, Note_off_c, 1, 37, 0
1, 5154480, Note_on_c, 1, 40, 40
1, 5155200, Note_off_c, 1, 40, 0
1, 5155200, Note_on_c, 1, 40, 40
1, 5155440, Note_off_c, 1, 40, 0
1, 5155440, Note_on_c, 1, 40, 40
1, 5156400, Note_off_c, 1, 40, 0
1, 5156400, Note_on_c, 1, 35, 40
1, 5157120, Note_off_c, 1, 35, 0
1, 5157120, Note_on_c, 1, 35, 40
1, 5157360, Note_off_c, 1, 35, 0
1, 5157360, Note_on_c, 1, 35, 40
1, 5158080, Note_off_c, 1, 35, 0
1, 5158080, Note_on_c, 1, 36, 40
1, 5158320, Note_off_c, 1, 36, 0
1, 5158320, Note_on_c, 1, 37, 40
1, 5159040, Note_off_c, 1, 37, 0
1, 5159040, Note_on_c, 1, 37, 40
1, 5159280, Note_off_c, 1, 37, 0
1, 5159280, Note_on_c, 1, 37, 40
1, 5160240, Note_off_c, 1, 37, 0
1, 5160240, Note_on_c, 1, 32, 40
1, 5160480, Note_off_c, 1, 32, 0
1, 5160480, Note_on_c, 1, 32, 40
1, 5160720, Note_off_c, 1, 32, 0
1, 5160720, Note_on_c, 1, 32, 40
1, 5160960, Note_off_c, 1, 32, 0
1, 5160960, Note_on_c, 1, 32, 40
1, 5161200, Note_off_c, 1, 32, 0
1, 5161200, Note_on_c, 1, 32, 40
1, 5161440, Note_off_c, 1, 32, 0
1, 5161440, Note_on_c, 1, 32, 40
1, 5161680, Note_off_c, 1, 32, 0
1, 5161680, Note_on_c, 1, 32, 40
1, 5161920, Note_off_c, 1, 32, 0
1, 5161920, Note_on_c, 1, 32, 40
1, 5162160, Note_off_c, 1, 32, 0
1, 5162160, Note_on_c, 1, 40, 40
1, 5163120, Note_off_c, 1, 40, 0
1, 5163120, Note_on_c, 1, 42, 40
1, 5164080, Note_off_c, 1, 42, 0
1, 5164080, Note_on_c, 1, 47, 40
1, 5165040, Note_off_c, 1, 47, 0
1, 5165040, Note_on_c, 1, 44, 40
1, 5166000, Note_off_c, 1, 44, 0
1, 5166000, Note_on_c, 1, 40, 40
1, 5166960, Note_off_c, 1, 40, 0
1, 5166960, Note_on_c, 1, 42, 40
1, 5167920, Note_off_c, 1, 42, 0
1, 5167920, Note_on_c, 1, 40, 40
1, 5168640, Note_off_c, 1, 40, 0
1, 5168640, Note_on_c, 1, 40, 40
1, 5168880, Note_off_c, 1, 40, 0
1, 5168880, Note_on_c, 1, 35, 40
1, 5169240, Note_off_c, 1, 35, 0
1, 5169360, Note_on_c, 1, 40, 40
1, 5169720, Note_off_c, 1, 40, 0
1, 5169840, Note_on_c, 1, 47, 40
1, 5170560, Note_off_c, 1, 47, 0
1, 5170560, Note_on_c, 1, 47, 40
1, 5170800, Note_off_c, 1, 47, 0
1, 5170800, Note_on_c, 1, 47, 40
1, 5171760, Note_off_c, 1, 47, 0
1, 5171760, Note_on_c, 1, 47, 40
1, 5172480, Note_off_c, 1, 47, 0
1, 5172480, Note_on_c, 1, 47, 40
1, 5172720, Note_off_c, 1, 47, 0
1, 5172720, Note_on_c, 1, 47, 40
1, 5173680, Note_off_c, 1, 47, 0
1, 5173680, Note_on_c, 1, 45, 40
1, 5174400, Note_off_c, 1, 45, 0
1, 5174400, Note_on_c, 1, 45, 40
1, 5174640, Note_off_c, 1, 45, 0
1, 5174640, Note_on_c, 1, 45, 40
1, 5175600, Note_off_c, 1, 45, 0
1, 5175600, Note_on_c, 1, 49, 40
1, 5176320, Note_off_c, 1, 49, 0
1, 5176320, Note_on_c, 1, 49, 40
1, 5176560, Note_off_c, 1, 49, 0
1, 5176560, Note_on_c, 1, 49, 40
1, 5177520, Note_off_c, 1, 49, 0
1, 5177520, Note_on_c, 1, 47, 40
1, 5178240, Note_off_c, 1, 47, 0
1, 5178240, Note_on_c, 1, 47, 40
1, 5178480, Note_off_c, 1, 47, 0
1, 5178480, Note_on_c, 1, 47, 40
1, 5179440, Note_off_c, 1, 47, 0
1, 5179440, Note_on_c, 1, 47, 40
1, 5180160, Note_off_c, 1, 47, 0
1, 5180160, Note_on_c, 1, 47, 40
1, 5180400, Note_off_c, 1, 47, 0
1, 5180400, Note_on_c, 1, 47, 40
1, 5181360, Note_off_c, 1, 47, 0
1, 5181360, Note_on_c, 1, 45, 40
1, 5182080, Note_off_c, 1, 45, 0
1, 5182080, Note_on_c, 1, 45, 40
1, 5182320, Note_off_c, 1, 45, 0
1, 5182320, Note_on_c, 1, 45, 40
1, 5182560, Note_off_c, 1, 45, 0
1, 5182560, Note_on_c, 1, 37, 40
1, 5182800, Note_off_c, 1, 37, 0
1, 5182800, Note_on_c, 1, 33, 40
1, 5183040, Note_off_c, 1, 33, 0
1, 5183040, Note_on_c, 1, 35, 40
1, 5184000, Note_off_c, 1, 35, 0
1, 5184000, Note_on_c, 1, 35, 40
1, 5184240, Note_off_c, 1, 35, 0
1, 5184240, Note_on_c, 1, 35, 40
1, 5184480, Note_off_c, 1, 35, 0
1, 5184480, Note_on_c, 1, 33, 40
1, 5184720, Note_off_c, 1, 33, 0
1, 5184720, Note_on_c, 1, 37, 40
1, 5184960, Note_off_c, 1, 37, 0
1, 5184960, Note_on_c, 1, 35, 40
1, 5185680, Note_off_c, 1, 35, 0
1, 5185680, Note_on_c, 1, 35, 40
1, 5186160, Note_off_c, 1, 35, 0
1, 5186160, Note_on_c, 1, 35, 40
1, 5186400, Note_off_c, 1, 35, 0
1, 5186400, Note_on_c, 1, 33, 40
1, 5186640, Note_off_c, 1, 33, 0
1, 5186640, Note_on_c, 1, 37, 40
1, 5186880, Note_off_c, 1, 37, 0
1, 5186880, Note_on_c, 1, 35, 40
1, 5187360, Note_off_c, 1, 35, 0
1, 5187360, Note_on_c, 1, 35, 40
1, 5187600, Note_off_c, 1, 35, 0
1, 5187600, Note_on_c, 1, 35, 40
1, 5187840, Note_off_c, 1, 35, 0
1, 5187840, Note_on_c, 1, 35, 40
1, 5188080, Note_off_c, 1, 35, 0
1, 5188080, Note_on_c, 1, 35, 40
1, 5188320, Note_off_c, 1, 35, 0
1, 5188320, Note_on_c, 1, 35, 40
1, 5188560, Note_off_c, 1, 35, 0
1, 5188560, Note_on_c, 1, 35, 40
1, 5188800, Note_off_c, 1, 35, 0
1, 5188800, Note_on_c, 1, 35, 40
1, 5189040, Note_off_c, 1, 35, 0
1, 5189040, Note_on_c, 1, 35, 40
1, 5189280, Note_off_c, 1, 35, 0
1, 5189280, Note_on_c, 1, 35, 40
1, 5189520, Note_off_c, 1, 35, 0
1, 5189520, Note_on_c, 1, 35, 40
1, 5189760, Note_off_c, 1, 35, 0
1, 5189760, Note_on_c, 1, 35, 40
1, 5190000, Note_off_c, 1, 35, 0
1, 5190000, Note_on_c, 1, 35, 40
1, 5190240, Note_off_c, 1, 35, 0
1, 5190240, Note_on_c, 1, 35, 40
1, 5190480, Note_off_c, 1, 35, 0
1, 5190480, Note_on_c, 1, 35, 40
1, 5190720, Note_off_c, 1, 35, 0
1, 5190960, Note_on_c, 1, 40, 40
1, 5191680, Note_off_c, 1, 40, 0
1, 5191680, Note_on_c, 1, 40, 40
1, 5191920, Note_off_c, 1, 40, 0
1, 5191920, Note_on_c, 1, 40, 40
1, 5192880, Note_off_c, 1, 40, 0
1, 5192880, Note_on_c, 1, 35, 40
1, 5193600, Note_off_c, 1, 35, 0
1, 5193600, Note_on_c, 1, 35, 40
1, 5193840, Note_off_c, 1, 35, 0
1, 5193840, Note_on_c, 1, 35, 40
1, 5194560, Note_off_c, 1, 35, 0
1, 5194560, Note_on_c, 1, 36, 40
1, 5194800, Note_off_c, 1, 36, 0
1, 5194800, Note_on_c, 1, 37, 40
1, 5195520, Note_off_c, 1, 37, 0
1, 5195520, Note_on_c, 1, 37, 40
1, 5195760, Note_off_c, 1, 37, 0
1, 5195760, Note_on_c, 1, 37, 40
1, 5196720, Note_off_c, 1, 37, 0
1, 5196720, Note_on_c, 1, 32, 40
1, 5197440, Note_off_c, 1, 32, 0
1, 5197440, Note_on_c, 1, 32, 40
1, 5197680, Note_off_c, 1, 32, 0
1, 5197680, Note_on_c, 1, 32, 40
1, 5198040, Note_off_c, 1, 32, 0
1, 5198160, Note_on_c, 1, 37, 40
1, 5198520, Note_off_c, 1, 37, 0
1, 5198640, Note_on_c, 1, 40, 40
1, 5199360, Note_off_c, 1, 40, 0
1, 5199360, Note_on_c, 1, 40, 40
1, 5199600, Note_off_c, 1, 40, 0
1, 5199600, Note_on_c, 1, 40, 40
1, 5200560, Note_off_c, 1, 40, 0
1, 5200560, Note_on_c, 1, 35, 40
1, 5201280, Note_off_c, 1, 35, 0
1, 5201280, Note_on_c, 1, 35, 40
1, 5201520, Note_off_c, 1, 35, 0
1, 5201520, Note_on_c, 1, 35, 40
1, 5202240, Note_off_c, 1, 35, 0
1, 5202240, Note_on_c, 1, 36, 40
1, 5202480, Note_off_c, 1, 36, 0
1, 5202480, Note_on_c, 1, 37, 40
1, 5203200, Note_off_c, 1, 37, 0
1, 5203200, Note_on_c, 1, 37, 40
1, 5203440, Note_off_c, 1, 37, 0
1, 5203440, Note_on_c, 1, 37, 40
1, 5204400, Note_off_c, 1, 37, 0
1, 5204400, Note_on_c, 1, 32, 40
1, 5204640, Note_off_c, 1, 32, 0
1, 5204640, Note_on_c, 1, 32, 40
1, 5204880, Note_off_c, 1, 32, 0
1, 5204880, Note_on_c, 1, 32, 40
1, 5205120, Note_off_c, 1, 32, 0
1, 5205120, Note_on_c, 1, 32, 40
1, 5205360, Note_off_c, 1, 32, 0
1, 5205360, Note_on_c, 1, 32, 40
1, 5205600, Note_off_c, 1, 32, 0
1, 5205600, Note_on_c, 1, 32, 40
1, 5205840, Note_off_c, 1, 32, 0
1, 5205840, Note_on_c, 1, 32, 40
1, 5206080, Note_off_c, 1, 32, 0
1, 5206080, Note_on_c, 1, 32, 40
1, 5206320, Note_off_c, 1, 32, 0
1, 5206320, Note_on_c, 1, 40, 40
1, 5207280, Note_off_c, 1, 40, 0
1, 5207280, Note_on_c, 1, 42, 40
1, 5208240, Note_off_c, 1, 42, 0
1, 5208240, Note_on_c, 1, 47, 40
1, 5209200, Note_off_c, 1, 47, 0
1, 5209200, Note_on_c, 1, 44, 40
1, 5210160, Note_off_c, 1, 44, 0
1, 5210160, Note_on_c, 1, 40, 40
1, 5211120, Note_off_c, 1, 40, 0
1, 5211120, Note_on_c, 1, 42, 40
1, 5212080, Note_off_c, 1, 42, 0
1, 5212080, Note_on_c, 1, 40, 40
1, 5212800, Note_off_c, 1, 40, 0
1, 5212800, Note_on_c, 1, 40, 40
1, 5213040, Note_off_c, 1, 40, 0
1, 5213040, Note_on_c, 1, 35, 40
1, 5213400, Note_off_c, 1, 35, 0
1, 5213520, Note_on_c, 1, 40, 40
1, 5213880, Note_off_c, 1, 40, 0
1, 5214000, Note_on_c, 1, 47, 40
1, 5214720, Note_off_c, 1, 47, 0
1, 5214720, Note_on_c, 1, 47, 40
1, 5214960, Note_off_c, 1, 47, 0
1, 5214960, Note_on_c, 1, 47, 40
1, 5215920, Note_off_c, 1, 47, 0
1, 5215920, Note_on_c, 1, 47, 40
1, 5216640, Note_off_c, 1, 47, 0
1, 5216640, Note_on_c, 1, 47, 40
1, 5216880, Note_off_c, 1, 47, 0
1, 5216880, Note_on_c, 1, 47, 40
1, 5217840, Note_off_c, 1, 47, 0
1, 5217840, Note_on_c, 1, 45, 40
1, 5218560, Note_off_c, 1, 45, 0
1, 5218560, Note_on_c, 1, 45, 40
1, 5218800, Note_off_c, 1, 45, 0
1, 5218800, Note_on_c, 1, 45, 40
1, 5219760, Note_off_c, 1, 45, 0
1, 5219760, Note_on_c, 1, 49, 40
1, 5220480, Note_off_c, 1, 49, 0
1, 5220480, Note_on_c, 1, 49, 40
1, 5220720, Note_off_c, 1, 49, 0
1, 5220720, Note_on_c, 1, 49, 40
1, 5221680, Note_off_c, 1, 49, 0
1, 5221680, Note_on_c, 1, 47, 40
1, 5222400, Note_off_c, 1, 47, 0
1, 5222400, Note_on_c, 1, 47, 40
1, 5222640, Note_off_c, 1, 47, 0
1, 5222640, Note_on_c, 1, 47, 40
1, 5223600, Note_off_c, 1, 47, 0
1, 5223600, Note_on_c, 1, 47, 40
1, 5224320, Note_off_c, 1, 47, 0
1, 5224320, Note_on_c, 1, 47, 40
1, 5224560, Note_off_c, 1, 47, 0
1, 5224560, Note_on_c, 1, 47, 40
1, 5225520, Note_off_c, 1, 47, 0
1, 5225520, Note_on_c, 1, 45, 40
1, 5226240, Note_off_c, 1, 45, 0
1, 5226240, Note_on_c, 1, 45, 40
1, 5226480, Note_off_c, 1, 45, 0
1, 5226480, Note_on_c, 1, 45, 40
1, 5226720, Note_off_c, 1, 45, 0
1, 5226720, Note_on_c, 1, 37, 40
1, 5226960, Note_off_c, 1, 37, 0
1, 5226960, Note_on_c, 1, 33, 40
1, 5227200, Note_off_c, 1, 33, 0
1, 5227200, Note_on_c, 1, 35, 40
1, 5228160, Note_off_c, 1, 35, 0
1, 5228160, Note_on_c, 1, 35, 40
1, 5228400, Note_off_c, 1, 35, 0
1, 5228400, Note_on_c, 1, 35, 40
1, 5228640, Note_off_c, 1, 35, 0
1, 5228640, Note_on_c, 1, 33, 40
1, 5228880, Note_off_c, 1, 33, 0
1, 5228880, Note_on_c, 1, 37, 40
1, 5229120, Note_off_c, 1, 37, 0
1, 5229120, Note_on_c, 1, 35, 40
1, 5229840, Note_off_c, 1, 35, 0
1, 5229840, Note_on_c, 1, 35, 40
1, 5230320, Note_off_c, 1, 35, 0
1, 5230320, Note_on_c, 1, 35, 40
1, 5230560, Note_off_c, 1, 35, 0
1, 5230560, Note_on_c, 1, 33, 40
1, 5230800, Note_off_c, 1, 33, 0
1, 5230800, Note_on_c, 1, 37, 40
1, 5231040, Note_off_c, 1, 37, 0
1, 5231040, Note_on_c, 1, 35, 40
1, 5231520, Note_off_c, 1, 35, 0
1, 5231520, Note_on_c, 1, 35, 40
1, 5231760, Note_off_c, 1, 35, 0
1, 5231760, Note_on_c, 1, 35, 40
1, 5232000, Note_off_c, 1, 35, 0
1, 5232000, Note_on_c, 1, 35, 40
1, 5232240, Note_off_c, 1, 35, 0
1, 5232240, Note_on_c, 1, 35, 40
1, 5232480, Note_off_c, 1, 35, 0
1, 5232480, Note_on_c, 1, 35, 40
1, 5232720, Note_off_c, 1, 35, 0
1, 5232720, Note_on_c, 1, 35, 40
1, 5232960, Note_off_c, 1, 35, 0
1, 5232960, Note_on_c, 1, 35, 40
1, 5233200, Note_off_c, 1, 35, 0
1, 5233200, Note_on_c, 1, 35, 40
1, 5233440, Note_off_c, 1, 35, 0
1, 5233440, Note_on_c, 1, 35, 40
1, 5233680, Note_off_c, 1, 35, 0
1, 5233680, Note_on_c, 1, 35, 40
1, 5233920, Note_off_c, 1, 35, 0
1, 5233920, Note_on_c, 1, 35, 40
1, 5234160, Note_off_c, 1, 35, 0
1, 5234160, Note_on_c, 1, 35, 40
1, 5234400, Note_off_c, 1, 35, 0
1, 5234400, Note_on_c, 1, 35, 40
1, 5234640, Note_off_c, 1, 35, 0
1, 5234640, Note_on_c, 1, 35, 40
1, 5234880, Note_off_c, 1, 35, 0
1, 5235120, Note_on_c, 1, 40, 40
1, 5235840, Note_off_c, 1, 40, 0
1, 5235840, Note_on_c, 1, 40, 40
1, 5236080, Note_off_c, 1, 40, 0
1, 5236080, Note_on_c, 1, 40, 40
1, 5237040, Note_off_c, 1, 40, 0
1, 5237040, Note_on_c, 1, 35, 40
1, 5237760, Note_off_c, 1, 35, 0
1, 5237760, Note_on_c, 1, 35, 40
1, 5238000, Note_off_c, 1, 35, 0
1, 5238000, Note_on_c, 1, 35, 40
1, 5238720, Note_off_c, 1, 35, 0
1, 5238720, Note_on_c, 1, 36, 40
1, 5238960, Note_off_c, 1, 36, 0
1, 5238960, Note_on_c, 1, 37, 40
1, 5239680, Note_off_c, 1, 37, 0
1, 5239680, Note_on_c, 1, 37, 40
1, 5239920, Note_off_c, 1, 37, 0
1, 5239920, Note_on_c, 1, 37, 40
1, 5240880, Note_off_c, 1, 37, 0
1, 5240880, Note_on_c, 1, 32, 40
1, 5241600, Note_off_c, 1, 32, 0
1, 5241600, Note_on_c, 1, 32, 40
1, 5241840, Note_off_c, 1, 32, 0
1, 5241840, Note_on_c, 1, 32, 40
1, 5242200, Note_off_c, 1, 32, 0
1, 5242320, Note_on_c, 1, 37, 40
1, 5242680, Note_off_c, 1, 37, 0
1, 5242800, Note_on_c, 1, 40, 40
1, 5243520, Note_off_c, 1, 40, 0
1, 5243520, Note_on_c, 1, 40, 40
1, 5243760, Note_off_c, 1, 40, 0
1, 5243760, Note_on_c, 1, 40, 40
1, 5244720, Note_off_c, 1, 40, 0
1, 5244720, Note_on_c, 1, 35, 40
1, 5245440, Note_off_c, 1, 35, 0
1, 5245440, Note_on_c, 1, 35, 40
1, 5245680, Note_off_c, 1, 35, 0
1, 5245680, Note_on_c, 1, 35, 40
1, 5246400, Note_off_c, 1, 35, 0
1, 5246400, Note_on_c, 1, 36, 40
1, 5246640, Note_off_c, 1, 36, 0
1, 5246640, Note_on_c, 1, 37, 40
1, 5247360, Note_off_c, 1, 37, 0
1, 5247360, Note_on_c, 1, 37, 40
1, 5247600, Note_off_c, 1, 37, 0
1, 5247600, Note_on_c, 1, 37, 40
1, 5248560, Note_off_c, 1, 37, 0
1, 5248560, Note_on_c, 1, 32, 40
1, 5248800, Note_off_c, 1, 32, 0
1, 5248800, Note_on_c, 1, 32, 40
1, 5249040, Note_off_c, 1, 32, 0
1, 5249040, Note_on_c, 1, 32, 40
1, 5249280, Note_off_c, 1, 32, 0
1, 5249280, Note_on_c, 1, 32, 40
1, 5249520, Note_off_c, 1, 32, 0
1, 5249520, Note_on_c, 1, 32, 40
1, 5249760, Note_off_c, 1, 32, 0
1, 5249760, Note_on_c, 1, 32, 40
1, 5250000, Note_off_c, 1, 32, 0
1, 5250000, Note_on_c, 1, 32, 40
1, 5250240, Note_off_c, 1, 32, 0
1, 5250240, Note_on_c, 1, 32, 40
1, 5250480, Note_off_c, 1, 32, 0
1, 5250480, Note_on_c, 1, 40, 40
1, 5251440, Note_off_c, 1, 40, 0
1, 5251440, Note_on_c, 1, 42, 40
1, 5252400, Note_off_c, 1, 42, 0
1, 5252400, Note_on_c, 1, 47, 40
1, 5253360, Note_off_c, 1, 47, 0
1, 5253360, Note_on_c, 1, 44, 40
1, 5254320, Note_off_c, 1, 44, 0
1, 5254320, Note_on_c, 1, 40, 40
1, 5255280, Note_off_c, 1, 40, 0
1, 5255280, Note_on_c, 1, 42, 40
1, 5256240, Note_off_c, 1, 42, 0
1, 5256240, Note_on_c, 1, 32, 40
1, 5256480, Note_off_c, 1, 32, 0
1, 5256480, Note_on_c, 1, 32, 40
1, 5256720, Note_off_c, 1, 32, 0
1, 5256720, Note_on_c, 1, 32, 40
1, 5256960, Note_off_c, 1, 32, 0
1, 5256960, Note_on_c, 1, 32, 40
1, 5257200, Note_off_c, 1, 32, 0
1, 5257200, Note_on_c, 1, 32, 40
1, 5257440, Note_off_c, 1, 32, 0
1, 5257440, Note_on_c, 1, 32, 40
1, 5257680, Note_off_c, 1, 32, 0
1, 5257680, Note_on_c, 1, 32, 40
1, 5257920, Note_off_c, 1, 32, 0
1, 5257920, Note_on_c, 1, 32, 40
1, 5258160, Note_off_c, 1, 32, 0
1, 5258160, Note_on_c, 1, 40, 40
1, 5258880, Note_off_c, 1, 40, 0
1, 5258880, Note_on_c, 1, 40, 40
1, 5259120, Note_off_c, 1, 40, 0
1, 5259120, Note_on_c, 1, 40, 40
1, 5260080, Note_off_c, 1, 40, 0
1, 5260080, Note_on_c, 1, 33, 40
1, 5260440, Note_off_c, 1, 33, 0
1, 5260440, Note_on_c, 1, 37, 40
1, 5260800, Note_off_c, 1, 37, 0
1, 5261040, Note_on_c, 1, 33, 40
1, 5261400, Note_off_c, 1, 33, 0
1, 5261400, Note_on_c, 1, 37, 40
1, 5261760, Note_off_c, 1, 37, 0
1, 5262000, Note_on_c, 1, 40, 40
1, 5263920, Note_off_c, 1, 40, 0
1, 5267760, Note_on_c, 1, 38, 40
1, 5268480, Note_off_c, 1, 38, 0
1, 5268720, Note_on_c, 1, 33, 40
1, 5269440, Note_off_c, 1, 33, 0
1, 5269680, Note_on_c, 1, 40, 40
1, 5270400, Note_off_c, 1, 40, 0
1, 5270640, Note_on_c, 1, 35, 40
1, 5271360, Note_off_c, 1, 35, 0
1, 5271600, Note_on_c, 1, 38, 40
1, 5272320, Note_off_c, 1, 38, 0
1, 5272560, Note_on_c, 1, 35, 40
1, 5273280, Note_off_c, 1, 35, 0
1, 5273520, Note_on_c, 1, 40, 40
1, 5274240, Note_off_c, 1, 40, 0
1, 5274480, Note_on_c, 1, 33, 40
1, 5275200, Note_off_c, 1, 33, 0
1, 5275440, Note_on_c, 1, 38, 40
1, 5276160, Note_off_c, 1, 38, 0
1, 5276400, Note_on_c, 1, 35, 40
1, 5277120, Note_off_c, 1, 35, 0
1, 5277360, Note_on_c, 1, 42, 40
1, 5278080, Note_off_c, 1, 42, 0
1, 5278320, Note_on_c, 1, 38, 40
1, 5279040, Note_off_c, 1, 38, 0
1, 5279280, Note_on_c, 1, 31, 40
1, 5280000, Note_off_c, 1, 31, 0
1, 5280240, Note_on_c, 1, 33, 40
1, 5280960, Note_off_c, 1, 33, 0
1, 5281200, Note_on_c, 1, 35, 40
1, 5281920, Note_off_c, 1, 35, 0
1, 5282160, Note_on_c, 1, 30, 40
1, 5282880, Note_off_c, 1, 30, 0
1, 5283120, Note_on_c, 1, 31, 40
1, 5283840, Note_off_c, 1, 31, 0
1, 5284080, Note_on_c, 1, 33, 40
1, 5284800, Note_off_c, 1, 33, 0
1, 5285040, Note_on_c, 1, 38, 40
1, 5285760, Note_off_c, 1, 38, 0
1, 5286000, Note_on_c, 1, 33, 40
1, 5286720, Note_off_c, 1, 33, 0
1, 5286960, Note_on_c, 1, 40, 40
1, 5287680, Note_off_c, 1, 40, 0
1, 5287920, Note_on_c, 1, 35, 40
1, 5288640, Note_off_c, 1, 35, 0
1, 5288880, Note_on_c, 1, 38, 40
1, 5289600, Note_off_c, 1, 38, 0
1, 5289840, Note_on_c, 1, 35, 40
1, 5290560, Note_off_c, 1, 35, 0
1, 5290800, Note_on_c, 1, 40, 40
1, 5291520, Note_off_c, 1, 40, 0
1, 5291760, Note_on_c, 1, 33, 40
1, 5292480, Note_off_c, 1, 33, 0
1, 5292720, Note_on_c, 1, 38, 40
1, 5293440, Note_off_c, 1, 38, 0
1, 5293680, Note_on_c, 1, 35, 40
1, 5294400, Note_off_c, 1, 35, 0
1, 5294640, Note_on_c, 1, 42, 40
1, 5295360, Note_off_c, 1, 42, 0
1, 5295600, Note_on_c, 1, 38, 40
1, 5296320, Note_off_c, 1, 38, 0
1, 5296560, Note_on_c, 1, 31, 40
1, 5297280, Note_off_c, 1, 31, 0
1, 5297520, Note_on_c, 1, 33, 40
1, 5298240, Note_off_c, 1, 33, 0
1, 5298480, Note_on_c, 1, 35, 40
1, 5299200, Note_off_c, 1, 35, 0
1, 5299440, Note_on_c, 1, 30, 40
1, 5300160, Note_off_c, 1, 30, 0
1, 5300400, Note_on_c, 1, 31, 40
1, 5301120, Note_off_c, 1, 31, 0
1, 5301360, Note_on_c, 1, 33, 40
1, 5302080, Note_off_c, 1, 33, 0
1, 5302320, Note_on_c, 1, 38, 40
1, 5303040, Note_off_c, 1, 38, 0
1, 5303280, Note_on_c, 1, 38, 40
1, 5304000, Note_off_c, 1, 38, 0
1, 5304240, Note_on_c, 1, 31, 40
1, 5304960, Note_off_c, 1, 31, 0
1, 5305200, Note_on_c, 1, 30, 40
1, 5305920, Note_off_c, 1, 30, 0
1, 5306160, Note_on_c, 1, 35, 40
1, 5306880, Note_off_c, 1, 35, 0
1, 5307120, Note_on_c, 1, 40, 40
1, 5307480, Note_off_c, 1, 40, 0
1, 5307600, Note_on_c, 1, 42, 40
1, 5307960, Note_off_c, 1, 42, 0
1, 5308080, Note_on_c, 1, 40, 40
1, 5308800, Note_off_c, 1, 40, 0
1, 5309040, Note_on_c, 1, 33, 40
1, 5309760, Note_off_c, 1, 33, 0
1, 5310000, Note_on_c, 1, 38, 40
1, 5310720, Note_off_c, 1, 38, 0
1, 5310960, Note_on_c, 1, 38, 40
1, 5311680, Note_off_c, 1, 38, 0
1, 5311920, Note_on_c, 1, 31, 40
1, 5312640, Note_off_c, 1, 31, 0
1, 5312880, Note_on_c, 1, 30, 40
1, 5313600, Note_off_c, 1, 30, 0
1, 5313840, Note_on_c, 1, 35, 40
1, 5314560, Note_off_c, 1, 35, 0
1, 5314800, Note_on_c, 1, 40, 40
1, 5315160, Note_off_c, 1, 40, 0
1, 5315280, Note_on_c, 1, 42, 40
1, 5315640, Note_off_c, 1, 42, 0
1, 5315760, Note_on_c, 1, 40, 40
1, 5316480, Note_off_c, 1, 40, 0
1, 5316720, Note_on_c, 1, 33, 40
1, 5317440, Note_off_c, 1, 33, 0
1, 5317680, Note_on_c, 1, 33, 40
1, 5318400, Note_off_c, 1, 33, 0
1, 5318640, Note_on_c, 1, 33, 40
1, 5319360, Note_off_c, 1, 33, 0
1, 5319600, Note_on_c, 1, 38, 40
1, 5320320, Note_off_c, 1, 38, 0
1, 5320560, Note_on_c, 1, 35, 40
1, 5321280, Note_off_c, 1, 35, 0
1, 5321520, Note_on_c, 1, 40, 40
1, 5322240, Note_off_c, 1, 40, 0
1, 5322480, Note_on_c, 1, 33, 40
1, 5323200, Note_off_c, 1, 33, 0
1, 5323440, Note_on_c, 1, 38, 40
1, 5324160, Note_off_c, 1, 38, 0
1, 5324400, Note_on_c, 1, 35, 40
1, 5325120, Note_off_c, 1, 35, 0
1, 5325360, Note_on_c, 1, 42, 40
1, 5326080, Note_off_c, 1, 42, 0
1, 5326320, Note_on_c, 1, 38, 40
1, 5327040, Note_off_c, 1, 38, 0
1, 5327280, Note_on_c, 1, 31, 40
1, 5328000, Note_off_c, 1, 31, 0
1, 5328240, Note_on_c, 1, 33, 40
1, 5328960, Note_off_c, 1, 33, 0
1, 5329200, Note_on_c, 1, 35, 40
1, 5329560, Note_off_c, 1, 35, 0
1, 5329680, Note_on_c, 1, 31, 40
1, 5330040, Note_off_c, 1, 31, 0
1, 5330160, Note_on_c, 1, 26, 40
1, 5330880, Note_off_c, 1, 26, 0
1, 5331120, Note_on_c, 1, 31, 40
1, 5331840, Note_off_c, 1, 31, 0
1, 5332080, Note_on_c, 1, 33, 40
1, 5332800, Note_off_c, 1, 33, 0
1, 5333040, Note_on_c, 1, 35, 40
1, 5333400, Note_off_c, 1, 35, 0
1, 5333520, Note_on_c, 1, 31, 40
1, 5333880, Note_off_c, 1, 31, 0
1, 5334000, Note_on_c, 1, 26, 40
1, 5334720, Note_off_c, 1, 26, 0
1, 5334960, Note_on_c, 1, 31, 40
1, 5335680, Note_off_c, 1, 31, 0
1, 5335920, Note_on_c, 1, 33, 40
1, 5336640, Note_off_c, 1, 33, 0
1, 5336880, Note_on_c, 1, 35, 40
1, 5337600, Note_off_c, 1, 35, 0
1, 5337840, Note_on_c, 1, 33, 40
1, 5338560, Note_off_c, 1, 33, 0
1, 5338800, Note_on_c, 1, 31, 40
1, 5339520, Note_off_c, 1, 31, 0
1, 5339760, Note_on_c, 1, 33, 40
1, 5340480, Note_off_c, 1, 33, 0
1, 5340720, Note_on_c, 1, 34, 40
1, 5341440, Note_off_c, 1, 34, 0
1, 5341680, Note_on_c, 1, 34, 40
1, 5342400, Note_off_c, 1, 34, 0
1, 5342640, Note_on_c, 1, 34, 40
1, 5343360, Note_off_c, 1, 34, 0
1, 5343600, Note_on_c, 1, 34, 40
1, 5344320, Note_off_c, 1, 34, 0
1, 5344560, Note_on_c, 1, 38, 40
1, 5345280, Note_off_c, 1, 38, 0
1, 5345520, Note_on_c, 1, 38, 40
1, 5346240, Note_off_c, 1, 38, 0
1, 5346480, Note_on_c, 1, 38, 40
1, 5347200, Note_off_c, 1, 38, 0
1, 5347440, Note_on_c, 1, 38, 40
1, 5348160, Note_off_c, 1, 38, 0
1, 5348400, Note_on_c, 1, 31, 40
1, 5349120, Note_off_c, 1, 31, 0
1, 5349360, Note_on_c, 1, 30, 40
1, 5350080, Note_off_c, 1, 30, 0
1, 5350320, Note_on_c, 1, 35, 40
1, 5351040, Note_off_c, 1, 35, 0
1, 5351280, Note_on_c, 1, 40, 40
1, 5351640, Note_off_c, 1, 40, 0
1, 5351760, Note_on_c, 1, 40, 40
1, 5352120, Note_off_c, 1, 40, 0
1, 5352240, Note_on_c, 1, 40, 40
1, 5352960, Note_off_c, 1, 40, 0
1, 5353200, Note_on_c, 1, 33, 40
1, 5353920, Note_off_c, 1, 33, 0
1, 5354160, Note_on_c, 1, 26, 40
1, 5355720, Note_off_c, 1, 26, 0
1, 5365560, Note_on_c, 1, 44, 40
1, 5365680, Note_off_c, 1, 44, 0
1, 5365680, Note_on_c, 1, 45, 40
1, 5366520, Note_off_c, 1, 45, 0
1, 5366640, Note_on_c, 1, 40, 40
1, 5367120, Note_off_c, 1, 40, 0
1, 5367120, Note_on_c, 1, 44, 40
1, 5367360, Note_off_c, 1, 44, 0
1, 5367480, Note_on_c, 1, 40, 40
1, 5367600, Note_off_c, 1, 40, 0
1, 5367600, Note_on_c, 1, 45, 40
1, 5368440, Note_off_c, 1, 45, 0
1, 5368560, Note_on_c, 1, 40, 40
1, 5369040, Note_off_c, 1, 40, 0
1, 5369040, Note_on_c, 1, 44, 40
1, 5369280, Note_off_c, 1, 44, 0
1, 5369400, Note_on_c, 1, 40, 40
1, 5369520, Note_off_c, 1, 40, 0
1, 5369520, Note_on_c, 1, 45, 40
1, 5370360, Note_off_c, 1, 45, 0
1, 5370480, Note_on_c, 1, 40, 40
1, 5370960, Note_off_c, 1, 40, 0
1, 5370960, Note_on_c, 1, 44, 40
1, 5371200, Note_off_c, 1, 44, 0
1, 5371320, Note_on_c, 1, 40, 40
1, 5371440, Note_off_c, 1, 40, 0
1, 5371440, Note_on_c, 1, 45, 40
1, 5372280, Note_off_c, 1, 45, 0
1, 5372400, Note_on_c, 1, 40, 40
1, 5372880, Note_off_c, 1, 40, 0
1, 5372880, Note_on_c, 1, 44, 40
1, 5373120, Note_off_c, 1, 44, 0
1, 5373240, Note_on_c, 1, 40, 40
1, 5373360, Note_off_c, 1, 40, 0
1, 5373360, Note_on_c, 1, 45, 40
1, 5374200, Note_off_c, 1, 45, 0
1, 5374320, Note_on_c, 1, 40, 40
1, 5374800, Note_off_c, 1, 40, 0
1, 5374800, Note_on_c, 1, 44, 40
1, 5375040, Note_off_c, 1, 44, 0
1, 5375160, Note_on_c, 1, 40, 40
1, 5375280, Note_off_c, 1, 40, 0
1, 5375280, Note_on_c, 1, 45, 40
1, 5376120, Note_off_c, 1, 45, 0
1, 5376240, Note_on_c, 1, 44, 40
1, 5376720, Note_off_c, 1, 44, 0
1, 5376720, Note_on_c, 1, 42, 40
1, 5377200, Note_off_c, 1, 42, 0
1, 5377200, Note_on_c, 1, 40, 40
1, 5378040, Note_off_c, 1, 40, 0
1, 5378160, Note_on_c, 1, 35, 40
1, 5378640, Note_off_c, 1, 35, 0
1, 5378640, Note_on_c, 1, 38, 40
1, 5378880, Note_off_c, 1, 38, 0
1, 5379000, Note_on_c, 1, 35, 40
1, 5379120, Note_off_c, 1, 35, 0
1, 5379120, Note_on_c, 1, 40, 40
1, 5379960, Note_off_c, 1, 40, 0
1, 5380080, Note_on_c, 1, 35, 40
1, 5380560, Note_off_c, 1, 35, 0
1, 5380560, Note_on_c, 1, 40, 40
1, 5381040, Note_off_c, 1, 40, 0
1, 5381040, Note_on_c, 1, 38, 40
1, 5381880, Note_off_c, 1, 38, 0
1, 5382000, Note_on_c, 1, 33, 40
1, 5382840, Note_off_c, 1, 33, 0
1, 5382960, Note_on_c, 1, 38, 40
1, 5383440, Note_off_c, 1, 38, 0
1, 5383440, Note_on_c, 1, 38, 40
1, 5383920, Note_off_c, 1, 38, 0
1, 5383920, Note_on_c, 1, 33, 40
1, 5384400, Note_off_c, 1, 33, 0
1, 5384400, Note_on_c, 1, 33, 40
1, 5384880, Note_off_c, 1, 33, 0
1, 5384880, Note_on_c, 1, 38, 40
1, 5385360, Note_off_c, 1, 38, 0
1, 5385360, Note_on_c, 1, 38, 40
1, 5385840, Note_off_c, 1, 38, 0
1, 5385840, Note_on_c, 1, 33, 40
1, 5386320, Note_off_c, 1, 33, 0
1, 5386320, Note_on_c, 1, 33, 40
1, 5386800, Note_off_c, 1, 33, 0
1, 5386800, Note_on_c, 1, 38, 40
1, 5387280, Note_off_c, 1, 38, 0
1, 5387280, Note_on_c, 1, 38, 40
1, 5387760, Note_off_c, 1, 38, 0
1, 5387760, Note_on_c, 1, 40, 40
1, 5388240, Note_off_c, 1, 40, 0
1, 5388240, Note_on_c, 1, 43, 40
1, 5388720, Note_off_c, 1, 43, 0
1, 5388720, Note_on_c, 1, 45, 40
1, 5389200, Note_off_c, 1, 45, 0
1, 5389200, Note_on_c, 1, 45, 40
1, 5389680, Note_off_c, 1, 45, 0
1, 5389680, Note_on_c, 1, 40, 40
1, 5390160, Note_off_c, 1, 40, 0
1, 5390160, Note_on_c, 1, 44, 40
1, 5390640, Note_off_c, 1, 44, 0
1, 5390640, Note_on_c, 1, 40, 40
1, 5391120, Note_off_c, 1, 40, 0
1, 5391120, Note_on_c, 1, 40, 40
1, 5391600, Note_off_c, 1, 40, 0
1, 5391600, Note_on_c, 1, 47, 40
1, 5392080, Note_off_c, 1, 47, 0
1, 5392080, Note_on_c, 1, 40, 40
1, 5392560, Note_off_c, 1, 40, 0
1, 5392560, Note_on_c, 1, 45, 40
1, 5393400, Note_off_c, 1, 45, 0
1, 5393520, Note_on_c, 1, 40, 40
1, 5394360, Note_off_c, 1, 40, 0
1, 5394480, Note_on_c, 1, 45, 40
1, 5394960, Note_off_c, 1, 45, 0
1, 5394960, Note_on_c, 1, 40, 40
1, 5395440, Note_off_c, 1, 40, 0
1, 5395440, Note_on_c, 1, 42, 40
1, 5395920, Note_off_c, 1, 42, 0
1, 5395920, Note_on_c, 1, 44, 40
1, 5396400, Note_off_c, 1, 44, 0
1, 5396400, Note_on_c, 1, 45, 40
1, 5397120, Note_off_c, 1, 45, 0
1, 5397240, Note_on_c, 1, 40, 40
1, 5397360, Note_off_c, 1, 40, 0
1, 5397360, Note_on_c, 1, 40, 40
1, 5398200, Note_off_c, 1, 40, 0
1, 5398320, Note_on_c, 1, 45, 40
1, 5399040, Note_off_c, 1, 45, 0
1, 5399160, Note_on_c, 1, 40, 40
1, 5399280, Note_off_c, 1, 40, 0
1, 5399280, Note_on_c, 1, 40, 40
1, 5400120, Note_off_c, 1, 40, 0
1, 5400240, Note_on_c, 1, 45, 40
1, 5400960, Note_off_c, 1, 45, 0
1, 5401080, Note_on_c, 1, 40, 40
1, 5401200, Note_off_c, 1, 40, 0
1, 5401200, Note_on_c, 1, 40, 40
1, 5402040, Note_off_c, 1, 40, 0
1, 5402160, Note_on_c, 1, 45, 40
1, 5402880, Note_off_c, 1, 45, 0
1, 5403000, Note_on_c, 1, 40, 40
1, 5403120, Note_off_c, 1, 40, 0
1, 5403120, Note_on_c, 1, 40, 40
1, 5403960, Note_off_c, 1, 40, 0
1, 5404080, Note_on_c, 1, 45, 40
1, 5404800, Note_off_c, 1, 45, 0
1, 5404920, Note_on_c, 1, 40, 40
1, 5405040, Note_off_c, 1, 40, 0
1, 5405040, Note_on_c, 1, 40, 40
1, 5405880, Note_off_c, 1, 40, 0
1, 5406000, Note_on_c, 1, 45, 40
1, 5406840, Note_off_c, 1, 45, 0
1, 5406960, Note_on_c, 1, 44, 40
1, 5407440, Note_off_c, 1, 44, 0
1, 5407440, Note_on_c, 1, 42, 40
1, 5407920, Note_off_c, 1, 42, 0
1, 5407920, Note_on_c, 1, 40, 40
1, 5408760, Note_off_c, 1, 40, 0
1, 5408880, Note_on_c, 1, 35, 40
1, 5409600, Note_off_c, 1, 35, 0
1, 5409720, Note_on_c, 1, 35, 40
1, 5409840, Note_off_c, 1, 35, 0
1, 5409840, Note_on_c, 1, 40, 40
1, 5410680, Note_off_c, 1, 40, 0
1, 5410800, Note_on_c, 1, 35, 40
1, 5411280, Note_off_c, 1, 35, 0
1, 5411280, Note_on_c, 1, 40, 40
1, 5411760, Note_off_c, 1, 40, 0
1, 5411760, Note_on_c, 1, 38, 40
1, 5412600, Note_off_c, 1, 38, 0
1, 5412720, Note_on_c, 1, 33, 40
1, 5413440, Note_off_c, 1, 33, 0
1, 5413560, Note_on_c, 1, 33, 40
1, 5413680, Note_off_c, 1, 33, 0
1, 5413680, Note_on_c, 1, 38, 40
1, 5414400, Note_off_c, 1, 38, 0
1, 5414520, Note_on_c, 1, 38, 40
1, 5414640, Note_off_c, 1, 38, 0
1, 5414640, Note_on_c, 1, 33, 40
1, 5415120, Note_off_c, 1, 33, 0
1, 5415120, Note_on_c, 1, 38, 40
1, 5415600, Note_off_c, 1, 38, 0
1, 5415600, Note_on_c, 1, 38, 40
1, 5416080, Note_off_c, 1, 38, 0
1, 5416080, Note_on_c, 1, 38, 40
1, 5416560, Note_off_c, 1, 38, 0
1, 5416560, Note_on_c, 1, 33, 40
1, 5417040, Note_off_c, 1, 33, 0
1, 5417040, Note_on_c, 1, 33, 40
1, 5417520, Note_off_c, 1, 33, 0
1, 5417520, Note_on_c, 1, 38, 40
1, 5418000, Note_off_c, 1, 38, 0
1, 5418000, Note_on_c, 1, 38, 40
1, 5418480, Note_off_c, 1, 38, 0
1, 5418480, Note_on_c, 1, 40, 40
1, 5418960, Note_off_c, 1, 40, 0
1, 5418960, Note_on_c, 1, 43, 40
1, 5419440, Note_off_c, 1, 43, 0
1, 5419440, Note_on_c, 1, 45, 40
1, 5419920, Note_off_c, 1, 45, 0
1, 5419920, Note_on_c, 1, 45, 40
1, 5420400, Note_off_c, 1, 45, 0
1, 5420400, Note_on_c, 1, 40, 40
1, 5420880, Note_off_c, 1, 40, 0
1, 5420880, Note_on_c, 1, 44, 40
1, 5421360, Note_off_c, 1, 44, 0
1, 5421360, Note_on_c, 1, 40, 40
1, 5421840, Note_off_c, 1, 40, 0
1, 5421840, Note_on_c, 1, 40, 40
1, 5422320, Note_off_c, 1, 40, 0
1, 5422320, Note_on_c, 1, 47, 40
1, 5422800, Note_off_c, 1, 47, 0
1, 5422800, Note_on_c, 1, 40, 40
1, 5423280, Note_off_c, 1, 40, 0
1, 5423280, Note_on_c, 1, 45, 40
1, 5424120, Note_off_c, 1, 45, 0
1, 5424240, Note_on_c, 1, 40, 40
1, 5425080, Note_off_c, 1, 40, 0
1, 5425200, Note_on_c, 1, 45, 40
1, 5426040, Note_off_c, 1, 45, 0
1, 5426160, Note_on_c, 1, 40, 40
1, 5426640, Note_off_c, 1, 40, 0
1, 5426640, Note_on_c, 1, 38, 40
1, 5427120, Note_off_c, 1, 38, 0
1, 5427120, Note_on_c, 1, 37, 40
1, 5427960, Note_off_c, 1, 37, 0
1, 5428080, Note_on_c, 1, 44, 40
1, 5428800, Note_off_c, 1, 44, 0
1, 5428920, Note_on_c, 1, 37, 40
1, 5429040, Note_off_c, 1, 37, 0
1, 5429040, Note_on_c, 1, 37, 40
1, 5429880, Note_off_c, 1, 37, 0
1, 5430000, Note_on_c, 1, 44, 40
1, 5430480, Note_off_c, 1, 44, 0
1, 5430480, Note_on_c, 1, 37, 40
1, 5430960, Note_off_c, 1, 37, 0
1, 5430960, Note_on_c, 1, 35, 40
1, 5431800, Note_off_c, 1, 35, 0
1, 5431920, Note_on_c, 1, 42, 40
1, 5432760, Note_off_c, 1, 42, 0
1, 5432880, Note_on_c, 1, 35, 40
1, 5433720, Note_off_c, 1, 35, 0
1, 5433840, Note_on_c, 1, 42, 40
1, 5434320, Note_off_c, 1, 42, 0
1, 5434320, Note_on_c, 1, 41, 40
1, 5434800, Note_off_c, 1, 41, 0
1, 5434800, Note_on_c, 1, 40, 40
1, 5435640, Note_off_c, 1, 40, 0
1, 5435760, Note_on_c, 1, 35, 40
1, 5436480, Note_off_c, 1, 35, 0
1, 5436600, Note_on_c, 1, 35, 40
1, 5436720, Note_off_c, 1, 35, 0
1, 5436720, Note_on_c, 1, 40, 40
1, 5437440, Note_off_c, 1, 40, 0
1, 5437560, Note_on_c, 1, 40, 40
1, 5437680, Note_off_c, 1, 40, 0
1, 5437680, Note_on_c, 1, 35, 40
1, 5438520, Note_off_c, 1, 35, 0
1, 5438640, Note_on_c, 1, 42, 40
1, 5439480, Note_off_c, 1, 42, 0
1, 5439600, Note_on_c, 1, 37, 40
1, 5440440, Note_off_c, 1, 37, 0
1, 5440560, Note_on_c, 1, 35, 40
1, 5441400, Note_off_c, 1, 35, 0
1, 5441520, Note_on_c, 1, 40, 40
1, 5442360, Note_off_c, 1, 40, 0
1, 5442480, Note_on_c, 1, 45, 40
1, 5443320, Note_off_c, 1, 45, 0
1, 5443440, Note_on_c, 1, 40, 40
1, 5443920, Note_off_c, 1, 40, 0
1, 5443920, Note_on_c, 1, 44, 40
1, 5444160, Note_off_c, 1, 44, 0
1, 5444280, Note_on_c, 1, 40, 40
1, 5444400, Note_off_c, 1, 40, 0
1, 5444400, Note_on_c, 1, 45, 40
1, 5445240, Note_off_c, 1, 45, 0
1, 5445360, Note_on_c, 1, 40, 40
1, 5445840, Note_off_c, 1, 40, 0
1, 5445840, Note_on_c, 1, 44, 40
1, 5446080, Note_off_c, 1, 44, 0
1, 5446200, Note_on_c, 1, 40, 40
1, 5446320, Note_off_c, 1, 40, 0
1, 5446320, Note_on_c, 1, 45, 40
1, 5447040, Note_off_c, 1, 45, 0
1, 5447160, Note_on_c, 1, 40, 40
1, 5447280, Note_off_c, 1, 40, 0
1, 5447280, Note_on_c, 1, 40, 40
1, 5448120, Note_off_c, 1, 40, 0
1, 5448240, Note_on_c, 1, 45, 40
1, 5449080, Note_off_c, 1, 45, 0
1, 5449200, Note_on_c, 1, 40, 40
1, 5449680, Note_off_c, 1, 40, 0
1, 5449680, Note_on_c, 1, 44, 40
1, 5449920, Note_off_c, 1, 44, 0
1, 5450040, Note_on_c, 1, 40, 40
1, 5450160, Note_off_c, 1, 40, 0
1, 5450160, Note_on_c, 1, 45, 40
1, 5451000, Note_off_c, 1, 45, 0
1, 5451120, Note_on_c, 1, 40, 40
1, 5451600, Note_off_c, 1, 40, 0
1, 5451600, Note_on_c, 1, 44, 40
1, 5451840, Note_off_c, 1, 44, 0
1, 5451960, Note_on_c, 1, 40, 40
1, 5452080, Note_off_c, 1, 40, 0
1, 5452080, Note_on_c, 1, 45, 40
1, 5452920, Note_off_c, 1, 45, 0
1, 5453040, Note_on_c, 1, 44, 40
1, 5453520, Note_off_c, 1, 44, 0
1, 5453520, Note_on_c, 1, 42, 40
1, 5454000, Note_off_c, 1, 42, 0
1, 5454000, Note_on_c, 1, 40, 40
1, 5454840, Note_off_c, 1, 40, 0
1, 5454960, Note_on_c, 1, 35, 40
1, 5455680, Note_off_c, 1, 35, 0
1, 5455800, Note_on_c, 1, 35, 40
1, 5455920, Note_off_c, 1, 35, 0
1, 5455920, Note_on_c, 1, 40, 40
1, 5456760, Note_off_c, 1, 40, 0
1, 5456880, Note_on_c, 1, 35, 40
1, 5457360, Note_off_c, 1, 35, 0
1, 5457360, Note_on_c, 1, 40, 40
1, 5457840, Note_off_c, 1, 40, 0
1, 5457840, Note_on_c, 1, 38, 40
1, 5458680, Note_off_c, 1, 38, 0
1, 5458800, Note_on_c, 1, 33, 40
1, 5459640, Note_off_c, 1, 33, 0
1, 5459760, Note_on_c, 1, 38, 40
1, 5460240, Note_off_c, 1, 38, 0
1, 5460240, Note_on_c, 1, 38, 40
1, 5460720, Note_off_c, 1, 38, 0
1, 5460720, Note_on_c, 1, 33, 40
1, 5461200, Note_off_c, 1, 33, 0
1, 5461200, Note_on_c, 1, 33, 40
1, 5461680, Note_off_c, 1, 33, 0
1, 5461680, Note_on_c, 1, 50, 40
1, 5462160, Note_off_c, 1, 50, 0
1, 5462160, Note_on_c, 1, 49, 40
1, 5462640, Note_off_c, 1, 49, 0
1, 5462640, Note_on_c, 1, 45, 40
1, 5463120, Note_off_c, 1, 45, 0
1, 5463120, Note_on_c, 1, 43, 40
1, 5463360, Note_off_c, 1, 43, 0
1, 5463480, Note_on_c, 1, 40, 40
1, 5463600, Note_off_c, 1, 40, 0
1, 5463600, Note_on_c, 1, 40, 40
1, 5463840, Note_off_c, 1, 40, 0
1, 5463960, Note_on_c, 1, 40, 40
1, 5464080, Note_off_c, 1, 40, 0
1, 5464080, Note_on_c, 1, 38, 40
1, 5464560, Note_off_c, 1, 38, 0
1, 5464560, Note_on_c, 1, 36, 40
1, 5465040, Note_off_c, 1, 36, 0
1, 5465040, Note_on_c, 1, 35, 40
1, 5465520, Note_off_c, 1, 35, 0
1, 5465520, Note_on_c, 1, 33, 40
1, 5466360, Note_off_c, 1, 33, 0
1, 5466480, Note_on_c, 1, 40, 40
1, 5466960, Note_off_c, 1, 40, 0
1, 5466960, Note_on_c, 1, 33, 40
1, 5467440, Note_off_c, 1, 33, 0
1, 5467440, Note_on_c, 1, 40, 40
1, 5467920, Note_off_c, 1, 40, 0
1, 5467920, Note_on_c, 1, 40, 40
1, 5468400, Note_off_c, 1, 40, 0
1, 5468400, Note_on_c, 1, 47, 40
1, 5468880, Note_off_c, 1, 47, 0
1, 5468880, Note_on_c, 1, 40, 40
1, 5469360, Note_off_c, 1, 40, 0
1, 5469360, Note_on_c, 1, 45, 40
1, 5470200, Note_off_c, 1, 45, 0
1, 5470320, Note_on_c, 1, 40, 40
1, 5471160, Note_off_c, 1, 40, 0
1, 5471280, Note_on_c, 1, 45, 40
1, 5471760, Note_off_c, 1, 45, 0
1, 5471760, Note_on_c, 1, 44, 40
1, 5472240, Note_off_c, 1, 44, 0
1, 5472240, Note_on_c, 1, 42, 40
1, 5472720, Note_off_c, 1, 42, 0
1, 5472720, Note_on_c, 1, 40, 40
1, 5473200, Note_off_c, 1, 40, 0
1, 5473200, Note_on_c, 1, 37, 40
1, 5474040, Note_off_c, 1, 37, 0
1, 5474160, Note_on_c, 1, 44, 40
1, 5474880, Note_off_c, 1, 44, 0
1, 5475000, Note_on_c, 1, 37, 40
1, 5475120, Note_off_c, 1, 37, 0
1, 5475120, Note_on_c, 1, 37, 40
1, 5475960, Note_off_c, 1, 37, 0
1, 5476080, Note_on_c, 1, 44, 40
1, 5476560, Note_off_c, 1, 44, 0
1, 5476560, Note_on_c, 1, 37, 40
1, 5477040, Note_off_c, 1, 37, 0
1, 5477040, Note_on_c, 1, 35, 40
1, 5477880, Note_off_c, 1, 35, 0
1, 5478000, Note_on_c, 1, 42, 40
1, 5478840, Note_off_c, 1, 42, 0
1, 5478960, Note_on_c, 1, 35, 40
1, 5479800, Note_off_c, 1, 35, 0
1, 5479920, Note_on_c, 1, 42, 40
1, 5480400, Note_off_c, 1, 42, 0
1, 5480400, Note_on_c, 1, 41, 40
1, 5480880, Note_off_c, 1, 41, 0
1, 5480880, Note_on_c, 1, 40, 40
1, 5481720, Note_off_c, 1, 40, 0
1, 5481840, Note_on_c, 1, 35, 40
1, 5482560, Note_off_c, 1, 35, 0
1, 5482680, Note_on_c, 1, 35, 40
1, 5482800, Note_off_c, 1, 35, 0
1, 5482800, Note_on_c, 1, 40, 40
1, 5483520, Note_off_c, 1, 40, 0
1, 5483640, Note_on_c, 1, 40, 40
1, 5483760, Note_off_c, 1, 40, 0
1, 5483760, Note_on_c, 1, 35, 40
1, 5484240, Note_off_c, 1, 35, 0
1, 5484240, Note_on_c, 1, 40, 40
1, 5484720, Note_off_c, 1, 40, 0
1, 5484720, Note_on_c, 1, 42, 40
1, 5485560, Note_off_c, 1, 42, 0
1, 5485680, Note_on_c, 1, 37, 40
1, 5486160, Note_off_c, 1, 37, 0
1, 5486160, Note_on_c, 1, 36, 40
1, 5486640, Note_off_c, 1, 36, 0
1, 5486640, Note_on_c, 1, 35, 40
1, 5487480, Note_off_c, 1, 35, 0
1, 5487600, Note_on_c, 1, 40, 40
1, 5488080, Note_off_c, 1, 40, 0
1, 5488080, Note_on_c, 1, 40, 40
1, 5488560, Note_off_c, 1, 40, 0
1, 5488560, Note_on_c, 1, 45, 40
1, 5489400, Note_off_c, 1, 45, 0
1, 5489520, Note_on_c, 1, 40, 40
1, 5490000, Note_off_c, 1, 40, 0
1, 5490000, Note_on_c, 1, 44, 40
1, 5490240, Note_off_c, 1, 44, 0
1, 5490360, Note_on_c, 1, 40, 40
1, 5490480, Note_off_c, 1, 40, 0
1, 5490480, Note_on_c, 1, 45, 40
1, 5491320, Note_off_c, 1, 45, 0
1, 5491440, Note_on_c, 1, 40, 40
1, 5491920, Note_off_c, 1, 40, 0
1, 5491920, Note_on_c, 1, 44, 40
1, 5492160, Note_off_c, 1, 44, 0
1, 5492280, Note_on_c, 1, 40, 40
1, 5492400, Note_off_c, 1, 40, 0
1, 5492400, Note_on_c, 1, 45, 40
1, 5493240, Note_off_c, 1, 45, 0
1, 5493360, Note_on_c, 1, 40, 40
1, 5493840, Note_off_c, 1, 40, 0
1, 5493840, Note_on_c, 1, 44, 40
1, 5494080, Note_off_c, 1, 44, 0
1, 5494200, Note_on_c, 1, 40, 40
1, 5494320, Note_off_c, 1, 40, 0
1, 5494320, Note_on_c, 1, 45, 40
1, 5495160, Note_off_c, 1, 45, 0
1, 5495280, Note_on_c, 1, 40, 40
1, 5495760, Note_off_c, 1, 40, 0
1, 5495760, Note_on_c, 1, 44, 40
1, 5496000, Note_off_c, 1, 44, 0
1, 5496120, Note_on_c, 1, 40, 40
1, 5496240, Note_off_c, 1, 40, 0
1, 5496240, Note_on_c, 1, 45, 40
1, 5497080, Note_off_c, 1, 45, 0
1, 5497200, Note_on_c, 1, 40, 40
1, 5497680, Note_off_c, 1, 40, 0
1, 5497680, Note_on_c, 1, 44, 40
1, 5497920, Note_off_c, 1, 44, 0
1, 5498040, Note_on_c, 1, 40, 40
1, 5498160, Note_off_c, 1, 40, 0
1, 5498160, Note_on_c, 1, 45, 40
1, 5499000, Note_off_c, 1, 45, 0
1, 5499120, Note_on_c, 1, 44, 40
1, 5499600, Note_off_c, 1, 44, 0
1, 5499600, Note_on_c, 1, 42, 40
1, 5500080, Note_off_c, 1, 42, 0
1, 5500080, Note_on_c, 1, 40, 40
1, 5500920, Note_off_c, 1, 40, 0
1, 5501040, Note_on_c, 1, 35, 40
1, 5501520, Note_off_c, 1, 35, 0
1, 5501520, Note_on_c, 1, 38, 40
1, 5501760, Note_off_c, 1, 38, 0
1, 5501880, Note_on_c, 1, 35, 40
1, 5502000, Note_off_c, 1, 35, 0
1, 5502000, Note_on_c, 1, 40, 40
1, 5502840, Note_off_c, 1, 40, 0
1, 5502960, Note_on_c, 1, 35, 40
1, 5503440, Note_off_c, 1, 35, 0
1, 5503440, Note_on_c, 1, 40, 40
1, 5503920, Note_off_c, 1, 40, 0
1, 5503920, Note_on_c, 1, 38, 40
1, 5504760, Note_off_c, 1, 38, 0
1, 5504880, Note_on_c, 1, 33, 40
1, 5505720, Note_off_c, 1, 33, 0
1, 5505840, Note_on_c, 1, 38, 40
1, 5506320, Note_off_c, 1, 38, 0
1, 5506320, Note_on_c, 1, 38, 40
1, 5506800, Note_off_c, 1, 38, 0
1, 5506800, Note_on_c, 1, 33, 40
1, 5507280, Note_off_c, 1, 33, 0
1, 5507280, Note_on_c, 1, 33, 40
1, 5507760, Note_off_c, 1, 33, 0
1, 5507760, Note_on_c, 1, 50, 40
1, 5508240, Note_off_c, 1, 50, 0
1, 5508240, Note_on_c, 1, 49, 40
1, 5508720, Note_off_c, 1, 49, 0
1, 5508720, Note_on_c, 1, 45, 40
1, 5509200, Note_off_c, 1, 45, 0
1, 5509200, Note_on_c, 1, 43, 40
1, 5509440, Note_off_c, 1, 43, 0
1, 5509560, Note_on_c, 1, 40, 40
1, 5509680, Note_off_c, 1, 40, 0
1, 5509680, Note_on_c, 1, 40, 40
1, 5509920, Note_off_c, 1, 40, 0
1, 5510040, Note_on_c, 1, 40, 40
1, 5510160, Note_off_c, 1, 40, 0
1, 5510160, Note_on_c, 1, 38, 40
1, 5510640, Note_off_c, 1, 38, 0
1, 5510640, Note_on_c, 1, 36, 40
1, 5511120, Note_off_c, 1, 36, 0
1, 5511120, Note_on_c, 1, 35, 40
1, 5511600, Note_off_c, 1, 35, 0
1, 5511600, Note_on_c, 1, 45, 40
1, 5512080, Note_off_c, 1, 45, 0
1, 5512080, Note_on_c, 1, 45, 40
1, 5512560, Note_off_c, 1, 45, 0
1, 5512560, Note_on_c, 1, 40, 40
1, 5513040, Note_off_c, 1, 40, 0
1, 5513040, Note_on_c, 1, 44, 40
1, 5513520, Note_off_c, 1, 44, 0
1, 5513520, Note_on_c, 1, 40, 40
1, 5514000, Note_off_c, 1, 40, 0
1, 5514000, Note_on_c, 1, 40, 40
1, 5514480, Note_off_c, 1, 40, 0
1, 5514480, Note_on_c, 1, 47, 40
1, 5514960, Note_off_c, 1, 47, 0
1, 5514960, Note_on_c, 1, 40, 40
1, 5515440, Note_off_c, 1, 40, 0
1, 5515440, Note_on_c, 1, 45, 40
1, 5516280, Note_off_c, 1, 45, 0
1, 5516400, Note_on_c, 1, 40, 40
1, 5517240, Note_off_c, 1, 40, 0
1, 5517360, Note_on_c, 1, 45, 40
1, 5519280, Note_off_c, 1, 45, 0
1, 5522640, Note_on_c, 1, 33, 40
1, 5523600, Note_off_c, 1, 33, 0
1, 5523600, Note_on_c, 1, 40, 40
1, 5524560, Note_off_c, 1, 40, 0
1, 5524560, Note_on_c, 1, 38, 40
1, 5525520, Note_off_c, 1, 38, 0
1, 5525520, Note_on_c, 1, 33, 40
1, 5526480, Note_off_c, 1, 33, 0
1, 5526480, Note_on_c, 1, 40, 40
1, 5527440, Note_off_c, 1, 40, 0
1, 5527440, Note_on_c, 1, 35, 40
1, 5528400, Note_off_c, 1, 35, 0
1, 5528400, Note_on_c, 1, 38, 40
1, 5529360, Note_off_c, 1, 38, 0
1, 5529360, Note_on_c, 1, 33, 40
1, 5530320, Note_off_c, 1, 33, 0
1, 5530320, Note_on_c, 1, 33, 40
1, 5531280, Note_off_c, 1, 33, 0
1, 5531280, Note_on_c, 1, 40, 40
1, 5532240, Note_off_c, 1, 40, 0
1, 5532240, Note_on_c, 1, 35, 40
1, 5533200, Note_off_c, 1, 35, 0
1, 5533200, Note_on_c, 1, 42, 40
1, 5534160, Note_off_c, 1, 42, 0
1, 5534160, Note_on_c, 1, 45, 40
1, 5535120, Note_off_c, 1, 45, 0
1, 5535120, Note_on_c, 1, 44, 40
1, 5536080, Note_off_c, 1, 44, 0
1, 5536080, Note_on_c, 1, 35, 40
1, 5537040, Note_off_c, 1, 35, 0
1, 5537040, Note_on_c, 1, 40, 40
1, 5538000, Note_off_c, 1, 40, 0
1, 5538000, Note_on_c, 1, 33, 40
1, 5538960, Note_off_c, 1, 33, 0
1, 5538960, Note_on_c, 1, 40, 40
1, 5539920, Note_off_c, 1, 40, 0
1, 5539920, Note_on_c, 1, 38, 40
1, 5540880, Note_off_c, 1, 38, 0
1, 5540880, Note_on_c, 1, 33, 40
1, 5541840, Note_off_c, 1, 33, 0
1, 5541840, Note_on_c, 1, 40, 40
1, 5542800, Note_off_c, 1, 40, 0
1, 5542800, Note_on_c, 1, 35, 40
1, 5543760, Note_off_c, 1, 35, 0
1, 5543760, Note_on_c, 1, 38, 40
1, 5544720, Note_off_c, 1, 38, 0
1, 5544720, Note_on_c, 1, 33, 40
1, 5545680, Note_off_c, 1, 33, 0
1, 5545680, Note_on_c, 1, 33, 40
1, 5546640, Note_off_c, 1, 33, 0
1, 5546640, Note_on_c, 1, 40, 40
1, 5547600, Note_off_c, 1, 40, 0
1, 5547600, Note_on_c, 1, 35, 40
1, 5548560, Note_off_c, 1, 35, 0
1, 5548560, Note_on_c, 1, 42, 40
1, 5549520, Note_off_c, 1, 42, 0
1, 5549520, Note_on_c, 1, 45, 40
1, 5550480, Note_off_c, 1, 45, 0
1, 5550480, Note_on_c, 1, 44, 40
1, 5551440, Note_off_c, 1, 44, 0
1, 5551440, Note_on_c, 1, 35, 40
1, 5552400, Note_off_c, 1, 35, 0
1, 5552400, Note_on_c, 1, 40, 40
1, 5553360, Note_off_c, 1, 40, 0
1, 5553360, Note_on_c, 1, 33, 40
1, 5554320, Note_off_c, 1, 33, 0
1, 5554320, Note_on_c, 1, 40, 40
1, 5555280, Note_off_c, 1, 40, 0
1, 5555280, Note_on_c, 1, 33, 40
1, 5556240, Note_off_c, 1, 33, 0
1, 5556240, Note_on_c, 1, 28, 40
1, 5557200, Note_off_c, 1, 28, 0
1, 5557200, Note_on_c, 1, 35, 40
1, 5558160, Note_off_c, 1, 35, 0
1, 5558160, Note_on_c, 1, 42, 40
1, 5559120, Note_off_c, 1, 42, 0
1, 5559120, Note_on_c, 1, 38, 40
1, 5560080, Note_off_c, 1, 38, 0
1, 5560080, Note_on_c, 1, 33, 40
1, 5561040, Note_off_c, 1, 33, 0
1, 5561040, Note_on_c, 1, 33, 40
1, 5562000, Note_off_c, 1, 33, 0
1, 5562000, Note_on_c, 1, 40, 40
1, 5562960, Note_off_c, 1, 40, 0
1, 5562960, Note_on_c, 1, 33, 40
1, 5563920, Note_off_c, 1, 33, 0
1, 5563920, Note_on_c, 1, 40, 40
1, 5564880, Note_off_c, 1, 40, 0
1, 5564880, Note_on_c, 1, 35, 40
1, 5565840, Note_off_c, 1, 35, 0
1, 5565840, Note_on_c, 1, 42, 40
1, 5566800, Note_off_c, 1, 42, 0
1, 5566800, Note_on_c, 1, 38, 40
1, 5567760, Note_off_c, 1, 38, 0
1, 5567760, Note_on_c, 1, 33, 40
1, 5568720, Note_off_c, 1, 33, 0
1, 5568720, Note_on_c, 1, 33, 40
1, 5569680, Note_off_c, 1, 33, 0
1, 5569680, Note_on_c, 1, 40, 40
1, 5570640, Note_off_c, 1, 40, 0
1, 5570640, Note_on_c, 1, 35, 40
1, 5571600, Note_off_c, 1, 35, 0
1, 5571600, Note_on_c, 1, 35, 40
1, 5572560, Note_off_c, 1, 35, 0
1, 5572560, Note_on_c, 1, 40, 40
1, 5573520, Note_off_c, 1, 40, 0
1, 5573520, Note_on_c, 1, 35, 40
1, 5574480, Note_off_c, 1, 35, 0
1, 5574480, Note_on_c, 1, 38, 40
1, 5575440, Note_off_c, 1, 38, 0
1, 5575440, Note_on_c, 1, 33, 40
1, 5576400, Note_off_c, 1, 33, 0
1, 5576400, Note_on_c, 1, 33, 40
1, 5577360, Note_off_c, 1, 33, 0
1, 5577360, Note_on_c, 1, 40, 40
1, 5578320, Note_off_c, 1, 40, 0
1, 5578320, Note_on_c, 1, 35, 40
1, 5579280, Note_off_c, 1, 35, 0
1, 5579280, Note_on_c, 1, 42, 40
1, 5580240, Note_off_c, 1, 42, 0
1, 5580240, Note_on_c, 1, 45, 40
1, 5581200, Note_off_c, 1, 45, 0
1, 5581200, Note_on_c, 1, 44, 40
1, 5582160, Note_off_c, 1, 44, 0
1, 5582160, Note_on_c, 1, 35, 40
1, 5583120, Note_off_c, 1, 35, 0
1, 5583120, Note_on_c, 1, 40, 40
1, 5584080, Note_off_c, 1, 40, 0
1, 5584080, Note_on_c, 1, 33, 40
1, 5585040, Note_off_c, 1, 33, 0
1, 5585040, Note_on_c, 1, 40, 40
1, 5586000, Note_off_c, 1, 40, 0
1, 5586000, Note_on_c, 1, 38, 40
1, 5586960, Note_off_c, 1, 38, 0
1, 5586960, Note_on_c, 1, 33, 40
1, 5587920, Note_off_c, 1, 33, 0
1, 5587920, Note_on_c, 1, 40, 40
1, 5588880, Note_off_c, 1, 40, 0
1, 5588880, Note_on_c, 1, 35, 40
1, 5589840, Note_off_c, 1, 35, 0
1, 5589840, Note_on_c, 1, 38, 40
1, 5590800, Note_off_c, 1, 38, 0
1, 5590800, Note_on_c, 1, 33, 40
1, 5591760, Note_off_c, 1, 33, 0
1, 5591760, Note_on_c, 1, 33, 40
1, 5592720, Note_off_c, 1, 33, 0
1, 5592720, Note_on_c, 1, 40, 40
1, 5593680, Note_off_c, 1, 40, 0
1, 5593680, Note_on_c, 1, 35, 40
1, 5594640, Note_off_c, 1, 35, 0
1, 5594640, Note_on_c, 1, 42, 40
1, 5595600, Note_off_c, 1, 42, 0
1, 5595600, Note_on_c, 1, 45, 40
1, 5596560, Note_off_c, 1, 45, 0
1, 5596560, Note_on_c, 1, 44, 40
1, 5597520, Note_off_c, 1, 44, 0
1, 5597520, Note_on_c, 1, 35, 40
1, 5598480, Note_off_c, 1, 35, 0
1, 5598480, Note_on_c, 1, 40, 40
1, 5599440, Note_off_c, 1, 40, 0
1, 5599440, Note_on_c, 1, 33, 40
1, 5600400, Note_off_c, 1, 33, 0
1, 5600400, Note_on_c, 1, 40, 40
1, 5601360, Note_off_c, 1, 40, 0
1, 5601360, Note_on_c, 1, 33, 40
1, 5602320, Note_off_c, 1, 33, 0
1, 5602320, Note_on_c, 1, 40, 40
1, 5603280, Note_off_c, 1, 40, 0
1, 5603280, Note_on_c, 1, 35, 40
1, 5604240, Note_off_c, 1, 35, 0
1, 5604240, Note_on_c, 1, 42, 40
1, 5605200, Note_off_c, 1, 42, 0
1, 5605200, Note_on_c, 1, 38, 40
1, 5606160, Note_off_c, 1, 38, 0
1, 5606160, Note_on_c, 1, 33, 40
1, 5607120, Note_off_c, 1, 33, 0
1, 5607120, Note_on_c, 1, 33, 40
1, 5608080, Note_off_c, 1, 33, 0
1, 5608080, Note_on_c, 1, 40, 40
1, 5609040, Note_off_c, 1, 40, 0
1, 5609040, Note_on_c, 1, 33, 40
1, 5610000, Note_off_c, 1, 33, 0
1, 5610000, Note_on_c, 1, 40, 40
1, 5610960, Note_off_c, 1, 40, 0
1, 5610960, Note_on_c, 1, 35, 40
1, 5611920, Note_off_c, 1, 35, 0
1, 5611920, Note_on_c, 1, 42, 40
1, 5612880, Note_off_c, 1, 42, 0
1, 5612880, Note_on_c, 1, 38, 40
1, 5613840, Note_off_c, 1, 38, 0
1, 5613840, Note_on_c, 1, 33, 40
1, 5614800, Note_off_c, 1, 33, 0
1, 5614800, Note_on_c, 1, 33, 40
1, 5615760, Note_off_c, 1, 33, 0
1, 5615760, Note_on_c, 1, 40, 40
1, 5616720, Note_off_c, 1, 40, 0
1, 5616720, Note_on_c, 1, 35, 40
1, 5617680, Note_off_c, 1, 35, 0
1, 5617680, Note_on_c, 1, 35, 40
1, 5618640, Note_off_c, 1, 35, 0
1, 5618640, Note_on_c, 1, 40, 40
1, 5619600, Note_off_c, 1, 40, 0
1, 5619600, Note_on_c, 1, 35, 40
1, 5620560, Note_off_c, 1, 35, 0
1, 5620560, Note_on_c, 1, 38, 40
1, 5621520, Note_off_c, 1, 38, 0
1, 5621520, Note_on_c, 1, 33, 40
1, 5622480, Note_off_c, 1, 33, 0
1, 5622480, Note_on_c, 1, 33, 40
1, 5623440, Note_off_c, 1, 33, 0
1, 5623440, Note_on_c, 1, 40, 40
1, 5624400, Note_off_c, 1, 40, 0
1, 5624400, Note_on_c, 1, 35, 40
1, 5625360, Note_off_c, 1, 35, 0
1, 5625360, Note_on_c, 1, 42, 40
1, 5626320, Note_off_c, 1, 42, 0
1, 5626320, Note_on_c, 1, 45, 40
1, 5627280, Note_off_c, 1, 45, 0
1, 5627280, Note_on_c, 1, 44, 40
1, 5628240, Note_off_c, 1, 44, 0
1, 5628240, Note_on_c, 1, 35, 40
1, 5629200, Note_off_c, 1, 35, 0
1, 5629200, Note_on_c, 1, 40, 40
1, 5630160, Note_off_c, 1, 40, 0
1, 5630160, Note_on_c, 1, 33, 40
1, 5631120, Note_off_c, 1, 33, 0
1, 5631120, Note_on_c, 1, 40, 40
1, 5632080, Note_off_c, 1, 40, 0
1, 5632080, Note_on_c, 1, 38, 40
1, 5633040, Note_off_c, 1, 38, 0
1, 5636640, Note_on_c, 1, 40, 40
1, 5636880, Note_off_c, 1, 40, 0
1, 5636880, Note_on_c, 1, 38, 40
1, 5637120, Note_off_c, 1, 38, 0
1, 5637120, Note_on_c, 1, 37, 40
1, 5637360, Note_off_c, 1, 37, 0
1, 5637360, Note_on_c, 1, 33, 40
1, 5638080, Note_off_c, 1, 33, 0
1, 5638080, Note_on_c, 1, 33, 40
1, 5638320, Note_off_c, 1, 33, 0
1, 5638320, Note_on_c, 1, 33, 40
1, 5638800, Note_off_c, 1, 33, 0
1, 5639280, Note_on_c, 1, 40, 40
1, 5640000, Note_off_c, 1, 40, 0
1, 5640000, Note_on_c, 1, 40, 40
1, 5640240, Note_off_c, 1, 40, 0
1, 5640240, Note_on_c, 1, 40, 40
1, 5640720, Note_off_c, 1, 40, 0
1, 5641200, Note_on_c, 1, 33, 40
1, 5641920, Note_off_c, 1, 33, 0
1, 5641920, Note_on_c, 1, 33, 40
1, 5642160, Note_off_c, 1, 33, 0
1, 5642160, Note_on_c, 1, 33, 40
1, 5642640, Note_off_c, 1, 33, 0
1, 5643120, Note_on_c, 1, 40, 40
1, 5643840, Note_off_c, 1, 40, 0
1, 5643840, Note_on_c, 1, 40, 40
1, 5644080, Note_off_c, 1, 40, 0
1, 5644080, Note_on_c, 1, 40, 40
1, 5644560, Note_off_c, 1, 40, 0
1, 5645040, Note_on_c, 1, 33, 40
1, 5645760, Note_off_c, 1, 33, 0
1, 5645760, Note_on_c, 1, 33, 40
1, 5646000, Note_off_c, 1, 33, 0
1, 5646000, Note_on_c, 1, 40, 40
1, 5646720, Note_off_c, 1, 40, 0
1, 5646720, Note_on_c, 1, 32, 40
1, 5646960, Note_off_c, 1, 32, 0
1, 5646960, Note_on_c, 1, 33, 40
1, 5647680, Note_off_c, 1, 33, 0
1, 5647680, Note_on_c, 1, 33, 40
1, 5647920, Note_off_c, 1, 33, 0
1, 5647920, Note_on_c, 1, 40, 40
1, 5648640, Note_off_c, 1, 40, 0
1, 5648640, Note_on_c, 1, 33, 40
1, 5648880, Note_off_c, 1, 33, 0
1, 5648880, Note_on_c, 1, 38, 40
1, 5649600, Note_off_c, 1, 38, 0
1, 5649600, Note_on_c, 1, 38, 40
1, 5649840, Note_off_c, 1, 38, 0
1, 5649840, Note_on_c, 1, 33, 40
1, 5650560, Note_off_c, 1, 33, 0
1, 5650560, Note_on_c, 1, 38, 40
1, 5650800, Note_off_c, 1, 38, 0
1, 5650800, Note_on_c, 1, 40, 40
1, 5651520, Note_off_c, 1, 40, 0
1, 5651520, Note_on_c, 1, 40, 40
1, 5651760, Note_off_c, 1, 40, 0
1, 5651760, Note_on_c, 1, 35, 40
1, 5652480, Note_off_c, 1, 35, 0
1, 5652480, Note_on_c, 1, 40, 40
1, 5652720, Note_off_c, 1, 40, 0
1, 5652720, Note_on_c, 1, 33, 40
1, 5653440, Note_off_c, 1, 33, 0
1, 5653440, Note_on_c, 1, 33, 40
1, 5653680, Note_off_c, 1, 33, 0
1, 5653680, Note_on_c, 1, 33, 40
1, 5654160, Note_off_c, 1, 33, 0
1, 5654640, Note_on_c, 1, 30, 40
1, 5655360, Note_off_c, 1, 30, 0
1, 5655360, Note_on_c, 1, 30, 40
1, 5655600, Note_off_c, 1, 30, 0
1, 5655600, Note_on_c, 1, 30, 40
1, 5656080, Note_off_c, 1, 30, 0
1, 5656560, Note_on_c, 1, 38, 40
1, 5657280, Note_off_c, 1, 38, 0
1, 5657280, Note_on_c, 1, 38, 40
1, 5657520, Note_off_c, 1, 38, 0
1, 5657520, Note_on_c, 1, 33, 40
1, 5657760, Note_off_c, 1, 33, 0
1, 5658000, Note_on_c, 1, 38, 40
1, 5658240, Note_off_c, 1, 38, 0
1, 5658480, Note_on_c, 1, 40, 40
1, 5659200, Note_off_c, 1, 40, 0
1, 5659200, Note_on_c, 1, 40, 40
1, 5659440, Note_off_c, 1, 40, 0
1, 5659440, Note_on_c, 1, 40, 40
1, 5659920, Note_off_c, 1, 40, 0
1, 5660400, Note_on_c, 1, 33, 40
1, 5661120, Note_off_c, 1, 33, 0
1, 5661120, Note_on_c, 1, 33, 40
1, 5661360, Note_off_c, 1, 33, 0
1, 5661360, Note_on_c, 1, 33, 40
1, 5661840, Note_off_c, 1, 33, 0
1, 5662320, Note_on_c, 1, 40, 40
1, 5663040, Note_off_c, 1, 40, 0
1, 5663040, Note_on_c, 1, 40, 40
1, 5663280, Note_off_c, 1, 40, 0
1, 5663280, Note_on_c, 1, 40, 40
1, 5663760, Note_off_c, 1, 40, 0
1, 5664240, Note_on_c, 1, 33, 40
1, 5664960, Note_off_c, 1, 33, 0
1, 5664960, Note_on_c, 1, 37, 40
1, 5665200, Note_off_c, 1, 37, 0
1, 5665200, Note_on_c, 1, 40, 40
1, 5665680, Note_off_c, 1, 40, 0
1, 5665680, Note_on_c, 1, 37, 40
1, 5665920, Note_off_c, 1, 37, 0
1, 5665920, Note_on_c, 1, 40, 40
1, 5666160, Note_off_c, 1, 40, 0
1, 5666160, Note_on_c, 1, 30, 40
1, 5666880, Note_off_c, 1, 30, 0
1, 5666880, Note_on_c, 1, 30, 40
1, 5667120, Note_off_c, 1, 30, 0
1, 5667120, Note_on_c, 1, 37, 40
1, 5667360, Note_off_c, 1, 37, 0
1, 5667600, Note_on_c, 1, 40, 40
1, 5667840, Note_off_c, 1, 40, 0
1, 5668080, Note_on_c, 1, 38, 40
1, 5668800, Note_off_c, 1, 38, 0
1, 5668800, Note_on_c, 1, 38, 40
1, 5669040, Note_off_c, 1, 38, 0
1, 5669040, Note_on_c, 1, 33, 40
1, 5669280, Note_off_c, 1, 33, 0
1, 5669520, Note_on_c, 1, 38, 40
1, 5669760, Note_off_c, 1, 38, 0
1, 5670000, Note_on_c, 1, 40, 40
1, 5670720, Note_off_c, 1, 40, 0
1, 5670720, Note_on_c, 1, 40, 40
1, 5670960, Note_off_c, 1, 40, 0
1, 5670960, Note_on_c, 1, 40, 40
1, 5671680, Note_off_c, 1, 40, 0
1, 5671680, Note_on_c, 1, 40, 40
1, 5671920, Note_off_c, 1, 40, 0
1, 5671920, Note_on_c, 1, 33, 40
1, 5672640, Note_off_c, 1, 33, 0
1, 5672640, Note_on_c, 1, 33, 40
1, 5672880, Note_off_c, 1, 33, 0
1, 5672880, Note_on_c, 1, 33, 40
1, 5673360, Note_off_c, 1, 33, 0
1, 5673360, Note_on_c, 1, 37, 40
1, 5673840, Note_off_c, 1, 37, 0
1, 5673840, Note_on_c, 1, 40, 40
1, 5674560, Note_off_c, 1, 40, 0
1, 5674560, Note_on_c, 1, 40, 40
1, 5674800, Note_off_c, 1, 40, 0
1, 5674800, Note_on_c, 1, 40, 40
1, 5675280, Note_off_c, 1, 40, 0
1, 5675760, Note_on_c, 1, 33, 40
1, 5676480, Note_off_c, 1, 33, 0
1, 5676480, Note_on_c, 1, 33, 40
1, 5676720, Note_off_c, 1, 33, 0
1, 5676720, Note_on_c, 1, 40, 40
1, 5677440, Note_off_c, 1, 40, 0
1, 5677440, Note_on_c, 1, 32, 40
1, 5677680, Note_off_c, 1, 32, 0
1, 5677680, Note_on_c, 1, 33, 40
1, 5678400, Note_off_c, 1, 33, 0
1, 5678400, Note_on_c, 1, 33, 40
1, 5678640, Note_off_c, 1, 33, 0
1, 5678640, Note_on_c, 1, 40, 40
1, 5679360, Note_off_c, 1, 40, 0
1, 5679360, Note_on_c, 1, 33, 40
1, 5679600, Note_off_c, 1, 33, 0
1, 5679600, Note_on_c, 1, 38, 40
1, 5680320, Note_off_c, 1, 38, 0
1, 5680320, Note_on_c, 1, 38, 40
1, 5680560, Note_off_c, 1, 38, 0
1, 5680560, Note_on_c, 1, 33, 40
1, 5681280, Note_off_c, 1, 33, 0
1, 5681280, Note_on_c, 1, 38, 40
1, 5681520, Note_off_c, 1, 38, 0
1, 5681520, Note_on_c, 1, 40, 40
1, 5682240, Note_off_c, 1, 40, 0
1, 5682240, Note_on_c, 1, 40, 40
1, 5682480, Note_off_c, 1, 40, 0
1, 5682480, Note_on_c, 1, 35, 40
1, 5683200, Note_off_c, 1, 35, 0
1, 5683200, Note_on_c, 1, 40, 40
1, 5683440, Note_off_c, 1, 40, 0
1, 5683440, Note_on_c, 1, 33, 40
1, 5684160, Note_off_c, 1, 33, 0
1, 5684160, Note_on_c, 1, 33, 40
1, 5684400, Note_off_c, 1, 33, 0
1, 5684400, Note_on_c, 1, 33, 40
1, 5684880, Note_off_c, 1, 33, 0
1, 5685360, Note_on_c, 1, 30, 40
1, 5686080, Note_off_c, 1, 30, 0
1, 5686080, Note_on_c, 1, 30, 40
1, 5686320, Note_off_c, 1, 30, 0
1, 5686320, Note_on_c, 1, 30, 40
1, 5686800, Note_off_c, 1, 30, 0
1, 5687280, Note_on_c, 1, 38, 40
1, 5688000, Note_off_c, 1, 38, 0
1, 5688000, Note_on_c, 1, 38, 40
1, 5688240, Note_off_c, 1, 38, 0
1, 5688240, Note_on_c, 1, 33, 40
1, 5688480, Note_off_c, 1, 33, 0
1, 5688720, Note_on_c, 1, 38, 40
1, 5688960, Note_off_c, 1, 38, 0
1, 5689200, Note_on_c, 1, 40, 40
1, 5689920, Note_off_c, 1, 40, 0
1, 5689920, Note_on_c, 1, 40, 40
1, 5690160, Note_off_c, 1, 40, 0
1, 5690160, Note_on_c, 1, 40, 40
1, 5690640, Note_off_c, 1, 40, 0
1, 5691120, Note_on_c, 1, 33, 40
1, 5691840, Note_off_c, 1, 33, 0
1, 5691840, Note_on_c, 1, 33, 40
1, 5692080, Note_off_c, 1, 33, 0
1, 5692080, Note_on_c, 1, 33, 40
1, 5692560, Note_off_c, 1, 33, 0
1, 5693040, Note_on_c, 1, 40, 40
1, 5693760, Note_off_c, 1, 40, 0
1, 5693760, Note_on_c, 1, 40, 40
1, 5694000, Note_off_c, 1, 40, 0
1, 5694000, Note_on_c, 1, 40, 40
1, 5694480, Note_off_c, 1, 40, 0
1, 5694960, Note_on_c, 1, 33, 40
1, 5695680, Note_off_c, 1, 33, 0
1, 5695680, Note_on_c, 1, 37, 40
1, 5695920, Note_off_c, 1, 37, 0
1, 5695920, Note_on_c, 1, 40, 40
1, 5696400, Note_off_c, 1, 40, 0
1, 5696400, Note_on_c, 1, 37, 40
1, 5696640, Note_off_c, 1, 37, 0
1, 5696640, Note_on_c, 1, 40, 40
1, 5696880, Note_off_c, 1, 40, 0
1, 5696880, Note_on_c, 1, 30, 40
1, 5697600, Note_off_c, 1, 30, 0
1, 5697600, Note_on_c, 1, 30, 40
1, 5697840, Note_off_c, 1, 30, 0
1, 5697840, Note_on_c, 1, 37, 40
1, 5698080, Note_off_c, 1, 37, 0
1, 5698320, Note_on_c, 1, 40, 40
1, 5698560, Note_off_c, 1, 40, 0
1, 5698800, Note_on_c, 1, 38, 40
1, 5699520, Note_off_c, 1, 38, 0
1, 5699520, Note_on_c, 1, 38, 40
1, 5699760, Note_off_c, 1, 38, 0
1, 5699760, Note_on_c, 1, 33, 40
1, 5700000, Note_off_c, 1, 33, 0
1, 5700240, Note_on_c, 1, 38, 40
1, 5700480, Note_off_c, 1, 38, 0
1, 5700720, Note_on_c, 1, 40, 40
1, 5701440, Note_off_c, 1, 40, 0
1, 5701440, Note_on_c, 1, 40, 40
1, 5701680, Note_off_c, 1, 40, 0
1, 5701680, Note_on_c, 1, 40, 40
1, 5702400, Note_off_c, 1, 40, 0
1, 5702400, Note_on_c, 1, 40, 40
1, 5702640, Note_off_c, 1, 40, 0
1, 5702640, Note_on_c, 1, 33, 40
1, 5703360, Note_off_c, 1, 33, 0
1, 5703360, Note_on_c, 1, 33, 40
1, 5703600, Note_off_c, 1, 33, 0
1, 5703600, Note_on_c, 1, 33, 40
1, 5704080, Note_off_c, 1, 33, 0
1, 5704080, Note_on_c, 1, 37, 40
1, 5704560, Note_off_c, 1, 37, 0
1, 5704560, Note_on_c, 1, 40, 40
1, 5705280, Note_off_c, 1, 40, 0
1, 5705280, Note_on_c, 1, 40, 40
1, 5705520, Note_off_c, 1, 40, 0
1, 5705520, Note_on_c, 1, 40, 40
1, 5706000, Note_off_c, 1, 40, 0
1, 5706480, Note_on_c, 1, 38, 40
1, 5707200, Note_off_c, 1, 38, 0
1, 5707200, Note_on_c, 1, 38, 40
1, 5707440, Note_off_c, 1, 38, 0
1, 5707440, Note_on_c, 1, 33, 40
1, 5708160, Note_off_c, 1, 33, 0
1, 5708160, Note_on_c, 1, 37, 40
1, 5708400, Note_off_c, 1, 37, 0
1, 5708400, Note_on_c, 1, 38, 40
1, 5709120, Note_off_c, 1, 38, 0
1, 5709120, Note_on_c, 1, 38, 40
1, 5709360, Note_off_c, 1, 38, 0
1, 5709360, Note_on_c, 1, 33, 40
1, 5710080, Note_off_c, 1, 33, 0
1, 5710080, Note_on_c, 1, 40, 40
1, 5710320, Note_off_c, 1, 40, 0
1, 5710320, Note_on_c, 1, 33, 40
1, 5711040, Note_off_c, 1, 33, 0
1, 5711040, Note_on_c, 1, 33, 40
1, 5711280, Note_off_c, 1, 33, 0
1, 5711280, Note_on_c, 1, 40, 40
1, 5712000, Note_off_c, 1, 40, 0
1, 5712000, Note_on_c, 1, 32, 40
1, 5712240, Note_off_c, 1, 32, 0
1, 5712240, Note_on_c, 1, 33, 40
1, 5712960, Note_off_c, 1, 33, 0
1, 5712960, Note_on_c, 1, 33, 40
1, 5713200, Note_off_c, 1, 33, 0
1, 5713200, Note_on_c, 1, 40, 40
1, 5713680, Note_off_c, 1, 40, 0
1, 5713680, Note_on_c, 1, 33, 40
1, 5713920, Note_off_c, 1, 33, 0
1, 5714160, Note_on_c, 1, 35, 40
1, 5714880, Note_off_c, 1, 35, 0
1, 5714880, Note_on_c, 1, 35, 40
1, 5715120, Note_off_c, 1, 35, 0
1, 5715120, Note_on_c, 1, 42, 40
1, 5715840, Note_off_c, 1, 42, 0
1, 5715840, Note_on_c, 1, 34, 40
1, 5716080, Note_off_c, 1, 34, 0
1, 5716080, Note_on_c, 1, 35, 40
1, 5716800, Note_off_c, 1, 35, 0
1, 5716800, Note_on_c, 1, 35, 40
1, 5717040, Note_off_c, 1, 35, 0
1, 5717040, Note_on_c, 1, 42, 40
1, 5717760, Note_off_c, 1, 42, 0
1, 5717760, Note_on_c, 1, 35, 40
1, 5718000, Note_off_c, 1, 35, 0
1, 5718000, Note_on_c, 1, 40, 40
1, 5718720, Note_off_c, 1, 40, 0
1, 5718720, Note_on_c, 1, 40, 40
1, 5718960, Note_off_c, 1, 40, 0
1, 5718960, Note_on_c, 1, 40, 40
1, 5719680, Note_off_c, 1, 40, 0
1, 5719680, Note_on_c, 1, 40, 40
1, 5719920, Note_off_c, 1, 40, 0
1, 5719920, Note_on_c, 1, 40, 40
1, 5720160, Note_off_c, 1, 40, 0
1, 5720160, Note_on_c, 1, 40, 40
1, 5720400, Note_off_c, 1, 40, 0
1, 5720400, Note_on_c, 1, 38, 40
1, 5720640, Note_off_c, 1, 38, 0
1, 5720640, Note_on_c, 1, 38, 40
1, 5720880, Note_off_c, 1, 38, 0
1, 5720880, Note_on_c, 1, 37, 40
1, 5721120, Note_off_c, 1, 37, 0
1, 5721120, Note_on_c, 1, 37, 40
1, 5721360, Note_off_c, 1, 37, 0
1, 5721360, Note_on_c, 1, 35, 40
1, 5721600, Note_off_c, 1, 35, 0
1, 5721600, Note_on_c, 1, 35, 40
1, 5721840, Note_off_c, 1, 35, 0
1, 5721840, Note_on_c, 1, 33, 40
1, 5722560, Note_off_c, 1, 33, 0
1, 5722560, Note_on_c, 1, 33, 40
1, 5722800, Note_off_c, 1, 33, 0
1, 5722800, Note_on_c, 1, 40, 40
1, 5723520, Note_off_c, 1, 40, 0
1, 5723520, Note_on_c, 1, 32, 40
1, 5723760, Note_off_c, 1, 32, 0
1, 5723760, Note_on_c, 1, 33, 40
1, 5724480, Note_off_c, 1, 33, 0
1, 5724480, Note_on_c, 1, 33, 40
1, 5724720, Note_off_c, 1, 33, 0
1, 5724720, Note_on_c, 1, 40, 40
1, 5725440, Note_off_c, 1, 40, 0
1, 5725440, Note_on_c, 1, 33, 40
1, 5725680, Note_off_c, 1, 33, 0
1, 5725680, Note_on_c, 1, 38, 40
1, 5726400, Note_off_c, 1, 38, 0
1, 5726400, Note_on_c, 1, 38, 40
1, 5726640, Note_off_c, 1, 38, 0
1, 5726640, Note_on_c, 1, 33, 40
1, 5727360, Note_off_c, 1, 33, 0
1, 5727360, Note_on_c, 1, 38, 40
1, 5727600, Note_off_c, 1, 38, 0
1, 5727600, Note_on_c, 1, 40, 40
1, 5728320, Note_off_c, 1, 40, 0
1, 5728320, Note_on_c, 1, 40, 40
1, 5728560, Note_off_c, 1, 40, 0
1, 5728560, Note_on_c, 1, 35, 40
1, 5729280, Note_off_c, 1, 35, 0
1, 5729280, Note_on_c, 1, 40, 40
1, 5729520, Note_off_c, 1, 40, 0
1, 5729520, Note_on_c, 1, 33, 40
1, 5730240, Note_off_c, 1, 33, 0
1, 5730240, Note_on_c, 1, 33, 40
1, 5730480, Note_off_c, 1, 33, 0
1, 5730480, Note_on_c, 1, 33, 40
1, 5730960, Note_off_c, 1, 33, 0
1, 5731440, Note_on_c, 1, 30, 40
1, 5732160, Note_off_c, 1, 30, 0
1, 5732160, Note_on_c, 1, 30, 40
1, 5732400, Note_off_c, 1, 30, 0
1, 5732400, Note_on_c, 1, 30, 40
1, 5732880, Note_off_c, 1, 30, 0
1, 5733360, Note_on_c, 1, 38, 40
1, 5734080, Note_off_c, 1, 38, 0
1, 5734080, Note_on_c, 1, 38, 40
1, 5734320, Note_off_c, 1, 38, 0
1, 5734320, Note_on_c, 1, 33, 40
1, 5734560, Note_off_c, 1, 33, 0
1, 5734800, Note_on_c, 1, 38, 40
1, 5735040, Note_off_c, 1, 38, 0
1, 5735280, Note_on_c, 1, 40, 40
1, 5736000, Note_off_c, 1, 40, 0
1, 5736000, Note_on_c, 1, 40, 40
1, 5736240, Note_off_c, 1, 40, 0
1, 5736240, Note_on_c, 1, 40, 40
1, 5736720, Note_off_c, 1, 40, 0
1, 5737200, Note_on_c, 1, 33, 40
1, 5737920, Note_off_c, 1, 33, 0
1, 5737920, Note_on_c, 1, 33, 40
1, 5738160, Note_off_c, 1, 33, 0
1, 5738160, Note_on_c, 1, 33, 40
1, 5738640, Note_off_c, 1, 33, 0
1, 5739120, Note_on_c, 1, 40, 40
1, 5739840, Note_off_c, 1, 40, 0
1, 5739840, Note_on_c, 1, 40, 40
1, 5740080, Note_off_c, 1, 40, 0
1, 5740080, Note_on_c, 1, 40, 40
1, 5740560, Note_off_c, 1, 40, 0
1, 5741040, Note_on_c, 1, 33, 40
1, 5741760, Note_off_c, 1, 33, 0
1, 5741760, Note_on_c, 1, 37, 40
1, 5742000, Note_off_c, 1, 37, 0
1, 5742000, Note_on_c, 1, 40, 40
1, 5742480, Note_off_c, 1, 40, 0
1, 5742480, Note_on_c, 1, 37, 40
1, 5742720, Note_off_c, 1, 37, 0
1, 5742720, Note_on_c, 1, 40, 40
1, 5742960, Note_off_c, 1, 40, 0
1, 5742960, Note_on_c, 1, 30, 40
1, 5743680, Note_off_c, 1, 30, 0
1, 5743680, Note_on_c, 1, 30, 40
1, 5743920, Note_off_c, 1, 30, 0
1, 5743920, Note_on_c, 1, 37, 40
1, 5744160, Note_off_c, 1, 37, 0
1, 5744400, Note_on_c, 1, 40, 40
1, 5744640, Note_off_c, 1, 40, 0
1, 5744880, Note_on_c, 1, 38, 40
1, 5745600, Note_off_c, 1, 38, 0
1, 5745600, Note_on_c, 1, 38, 40
1, 5745840, Note_off_c, 1, 38, 0
1, 5745840, Note_on_c, 1, 33, 40
1, 5746080, Note_off_c, 1, 33, 0
1, 5746320, Note_on_c, 1, 38, 40
1, 5746560, Note_off_c, 1, 38, 0
1, 5746800, Note_on_c, 1, 40, 40
1, 5747520, Note_off_c, 1, 40, 0
1, 5747520, Note_on_c, 1, 40, 40
1, 5747760, Note_off_c, 1, 40, 0
1, 5747760, Note_on_c, 1, 40, 40
1, 5748480, Note_off_c, 1, 40, 0
1, 5748480, Note_on_c, 1, 40, 40
1, 5748720, Note_off_c, 1, 40, 0
1, 5748720, Note_on_c, 1, 33, 40
1, 5749440, Note_off_c, 1, 33, 0
1, 5749440, Note_on_c, 1, 37, 40
1, 5749680, Note_off_c, 1, 37, 0
1, 5749680, Note_on_c, 1, 40, 40
1, 5750160, Note_off_c, 1, 40, 0
1, 5750160, Note_on_c, 1, 37, 40
1, 5750640, Note_off_c, 1, 37, 0
1, 5750640, Note_on_c, 1, 40, 40
1, 5751360, Note_off_c, 1, 40, 0
1, 5751360, Note_on_c, 1, 40, 40
1, 5751600, Note_off_c, 1, 40, 0
1, 5751600, Note_on_c, 1, 40, 40
1, 5752080, Note_off_c, 1, 40, 0
1, 5752560, Note_on_c, 1, 33, 40
1, 5753280, Note_off_c, 1, 33, 0
1, 5753280, Note_on_c, 1, 37, 40
1, 5753520, Note_off_c, 1, 37, 0
1, 5753520, Note_on_c, 1, 40, 40
1, 5754000, Note_off_c, 1, 40, 0
1, 5754000, Note_on_c, 1, 37, 40
1, 5754480, Note_off_c, 1, 37, 0
1, 5754480, Note_on_c, 1, 40, 40
1, 5755200, Note_off_c, 1, 40, 0
1, 5755200, Note_on_c, 1, 40, 40
1, 5755440, Note_off_c, 1, 40, 0
1, 5755440, Note_on_c, 1, 40, 40
1, 5755920, Note_off_c, 1, 40, 0
1, 5756400, Note_on_c, 1, 33, 40
1, 5758320, Note_off_c, 1, 33, 0
1, 5766000, Note_on_c, 1, 45, 40
1, 5766240, Note_off_c, 1, 45, 0
1, 5769840, Note_on_c, 1, 38, 40
1, 5770080, Note_off_c, 1, 38, 0
1, 5770080, Note_on_c, 1, 38, 40
1, 5770320, Note_off_c, 1, 38, 0
1, 5770320, Note_on_c, 1, 38, 40
1, 5770560, Note_off_c, 1, 38, 0
1, 5770560, Note_on_c, 1, 38, 40
1, 5770800, Note_off_c, 1, 38, 0
1, 5770800, Note_on_c, 1, 38, 40
1, 5771040, Note_off_c, 1, 38, 0
1, 5771040, Note_on_c, 1, 38, 40
1, 5771280, Note_off_c, 1, 38, 0
1, 5771280, Note_on_c, 1, 38, 40
1, 5771520, Note_off_c, 1, 38, 0
1, 5771520, Note_on_c, 1, 38, 40
1, 5771760, Note_off_c, 1, 38, 0
1, 5771760, Note_on_c, 1, 38, 40
1, 5772000, Note_off_c, 1, 38, 0
1, 5772000, Note_on_c, 1, 38, 40
1, 5772240, Note_off_c, 1, 38, 0
1, 5772240, Note_on_c, 1, 38, 40
1, 5772480, Note_off_c, 1, 38, 0
1, 5772480, Note_on_c, 1, 38, 40
1, 5772720, Note_off_c, 1, 38, 0
1, 5772720, Note_on_c, 1, 38, 40
1, 5772960, Note_off_c, 1, 38, 0
1, 5772960, Note_on_c, 1, 38, 40
1, 5773200, Note_off_c, 1, 38, 0
1, 5773200, Note_on_c, 1, 38, 40
1, 5773440, Note_off_c, 1, 38, 0
1, 5773440, Note_on_c, 1, 38, 40
1, 5773680, Note_off_c, 1, 38, 0
1, 5773680, Note_on_c, 1, 45, 40
1, 5773920, Note_off_c, 1, 45, 0
1, 5773920, Note_on_c, 1, 45, 40
1, 5774160, Note_off_c, 1, 45, 0
1, 5774160, Note_on_c, 1, 45, 40
1, 5774400, Note_off_c, 1, 45, 0
1, 5774400, Note_on_c, 1, 45, 40
1, 5774640, Note_off_c, 1, 45, 0
1, 5774640, Note_on_c, 1, 45, 40
1, 5774880, Note_off_c, 1, 45, 0
1, 5774880, Note_on_c, 1, 45, 40
1, 5775120, Note_off_c, 1, 45, 0
1, 5775120, Note_on_c, 1, 45, 40
1, 5775360, Note_off_c, 1, 45, 0
1, 5775360, Note_on_c, 1, 45, 40
1, 5775600, Note_off_c, 1, 45, 0
1, 5775600, Note_on_c, 1, 45, 40
1, 5775840, Note_off_c, 1, 45, 0
1, 5775840, Note_on_c, 1, 45, 40
1, 5776080, Note_off_c, 1, 45, 0
1, 5776080, Note_on_c, 1, 45, 40
1, 5776320, Note_off_c, 1, 45, 0
1, 5776320, Note_on_c, 1, 45, 40
1, 5776560, Note_off_c, 1, 45, 0
1, 5776560, Note_on_c, 1, 45, 40
1, 5776800, Note_off_c, 1, 45, 0
1, 5776800, Note_on_c, 1, 45, 40
1, 5777040, Note_off_c, 1, 45, 0
1, 5777040, Note_on_c, 1, 45, 40
1, 5777280, Note_off_c, 1, 45, 0
1, 5777280, Note_on_c, 1, 45, 40
1, 5777520, Note_off_c, 1, 45, 0
1, 5777520, Note_on_c, 1, 38, 40
1, 5777760, Note_off_c, 1, 38, 0
1, 5777760, Note_on_c, 1, 38, 40
1, 5778000, Note_off_c, 1, 38, 0
1, 5778000, Note_on_c, 1, 38, 40
1, 5778240, Note_off_c, 1, 38, 0
1, 5778240, Note_on_c, 1, 38, 40
1, 5778480, Note_off_c, 1, 38, 0
1, 5778480, Note_on_c, 1, 38, 40
1, 5778720, Note_off_c, 1, 38, 0
1, 5778720, Note_on_c, 1, 38, 40
1, 5778960, Note_off_c, 1, 38, 0
1, 5778960, Note_on_c, 1, 38, 40
1, 5779200, Note_off_c, 1, 38, 0
1, 5779200, Note_on_c, 1, 38, 40
1, 5779440, Note_off_c, 1, 38, 0
1, 5779440, Note_on_c, 1, 38, 40
1, 5779680, Note_off_c, 1, 38, 0
1, 5779680, Note_on_c, 1, 38, 40
1, 5779920, Note_off_c, 1, 38, 0
1, 5779920, Note_on_c, 1, 38, 40
1, 5780160, Note_off_c, 1, 38, 0
1, 5780160, Note_on_c, 1, 38, 40
1, 5780400, Note_off_c, 1, 38, 0
1, 5780400, Note_on_c, 1, 38, 40
1, 5780640, Note_off_c, 1, 38, 0
1, 5780640, Note_on_c, 1, 38, 40
1, 5780880, Note_off_c, 1, 38, 0
1, 5780880, Note_on_c, 1, 38, 40
1, 5781120, Note_off_c, 1, 38, 0
1, 5781120, Note_on_c, 1, 38, 40
1, 5781360, Note_off_c, 1, 38, 0
1, 5781360, Note_on_c, 1, 40, 40
1, 5782080, Note_off_c, 1, 40, 0
1, 5782080, Note_on_c, 1, 45, 40
1, 5782320, Note_off_c, 1, 45, 0
1, 5785200, Note_on_c, 1, 40, 40
1, 5785920, Note_off_c, 1, 40, 0
1, 5785920, Note_on_c, 1, 45, 40
1, 5786160, Note_off_c, 1, 45, 0
1, 5789040, Note_on_c, 1, 45, 40
1, 5789280, Note_off_c, 1, 45, 0
1, 5792880, Note_on_c, 1, 45, 40
1, 5793120, Note_off_c, 1, 45, 0
1, 5796720, Note_on_c, 1, 38, 40
1, 5796960, Note_off_c, 1, 38, 0
1, 5796960, Note_on_c, 1, 38, 40
1, 5797200, Note_off_c, 1, 38, 0
1, 5797200, Note_on_c, 1, 38, 40
1, 5797440, Note_off_c, 1, 38, 0
1, 5797440, Note_on_c, 1, 38, 40
1, 5797680, Note_off_c, 1, 38, 0
1, 5797680, Note_on_c, 1, 38, 40
1, 5797920, Note_off_c, 1, 38, 0
1, 5797920, Note_on_c, 1, 38, 40
1, 5798160, Note_off_c, 1, 38, 0
1, 5798160, Note_on_c, 1, 38, 40
1, 5798400, Note_off_c, 1, 38, 0
1, 5798400, Note_on_c, 1, 38, 40
1, 5798640, Note_off_c, 1, 38, 0
1, 5798640, Note_on_c, 1, 38, 40
1, 5798880, Note_off_c, 1, 38, 0
1, 5798880, Note_on_c, 1, 38, 40
1, 5799120, Note_off_c, 1, 38, 0
1, 5799120, Note_on_c, 1, 38, 40
1, 5799360, Note_off_c, 1, 38, 0
1, 5799360, Note_on_c, 1, 38, 40
1, 5799600, Note_off_c, 1, 38, 0
1, 5799600, Note_on_c, 1, 38, 40
1, 5799840, Note_off_c, 1, 38, 0
1, 5799840, Note_on_c, 1, 38, 40
1, 5800080, Note_off_c, 1, 38, 0
1, 5800080, Note_on_c, 1, 38, 40
1, 5800320, Note_off_c, 1, 38, 0
1, 5800320, Note_on_c, 1, 38, 40
1, 5800560, Note_off_c, 1, 38, 0
1, 5800560, Note_on_c, 1, 45, 40
1, 5800800, Note_off_c, 1, 45, 0
1, 5800800, Note_on_c, 1, 45, 40
1, 5801040, Note_off_c, 1, 45, 0
1, 5801040, Note_on_c, 1, 45, 40
1, 5801280, Note_off_c, 1, 45, 0
1, 5801280, Note_on_c, 1, 45, 40
1, 5801520, Note_off_c, 1, 45, 0
1, 5801520, Note_on_c, 1, 45, 40
1, 5801760, Note_off_c, 1, 45, 0
1, 5801760, Note_on_c, 1, 45, 40
1, 5802000, Note_off_c, 1, 45, 0
1, 5802000, Note_on_c, 1, 45, 40
1, 5802240, Note_off_c, 1, 45, 0
1, 5802240, Note_on_c, 1, 45, 40
1, 5802480, Note_off_c, 1, 45, 0
1, 5802480, Note_on_c, 1, 45, 40
1, 5802720, Note_off_c, 1, 45, 0
1, 5802720, Note_on_c, 1, 45, 40
1, 5802960, Note_off_c, 1, 45, 0
1, 5802960, Note_on_c, 1, 45, 40
1, 5803200, Note_off_c, 1, 45, 0
1, 5803200, Note_on_c, 1, 45, 40
1, 5803440, Note_off_c, 1, 45, 0
1, 5803440, Note_on_c, 1, 45, 40
1, 5803680, Note_off_c, 1, 45, 0
1, 5803680, Note_on_c, 1, 45, 40
1, 5803920, Note_off_c, 1, 45, 0
1, 5803920, Note_on_c, 1, 45, 40
1, 5804160, Note_off_c, 1, 45, 0
1, 5804160, Note_on_c, 1, 45, 40
1, 5804400, Note_off_c, 1, 45, 0
1, 5804400, Note_on_c, 1, 38, 40
1, 5804640, Note_off_c, 1, 38, 0
1, 5804640, Note_on_c, 1, 38, 40
1, 5804880, Note_off_c, 1, 38, 0
1, 5804880, Note_on_c, 1, 38, 40
1, 5805120, Note_off_c, 1, 38, 0
1, 5805120, Note_on_c, 1, 38, 40
1, 5805360, Note_off_c, 1, 38, 0
1, 5805360, Note_on_c, 1, 38, 40
1, 5805600, Note_off_c, 1, 38, 0
1, 5805600, Note_on_c, 1, 38, 40
1, 5805840, Note_off_c, 1, 38, 0
1, 5805840, Note_on_c, 1, 38, 40
1, 5806080, Note_off_c, 1, 38, 0
1, 5806080, Note_on_c, 1, 38, 40
1, 5806320, Note_off_c, 1, 38, 0
1, 5806320, Note_on_c, 1, 38, 40
1, 5806560, Note_off_c, 1, 38, 0
1, 5806560, Note_on_c, 1, 38, 40
1, 5806800, Note_off_c, 1, 38, 0
1, 5806800, Note_on_c, 1, 38, 40
1, 5807040, Note_off_c, 1, 38, 0
1, 5807040, Note_on_c, 1, 38, 40
1, 5807280, Note_off_c, 1, 38, 0
1, 5807280, Note_on_c, 1, 38, 40
1, 5807520, Note_off_c, 1, 38, 0
1, 5807520, Note_on_c, 1, 38, 40
1, 5807760, Note_off_c, 1, 38, 0
1, 5807760, Note_on_c, 1, 38, 40
1, 5808000, Note_off_c, 1, 38, 0
1, 5808000, Note_on_c, 1, 38, 40
1, 5808240, Note_off_c, 1, 38, 0
1, 5808240, Note_on_c, 1, 40, 40
1, 5808960, Note_off_c, 1, 40, 0
1, 5808960, Note_on_c, 1, 45, 40
1, 5809200, Note_off_c, 1, 45, 0
1, 5812080, Note_on_c, 1, 40, 40
1, 5812800, Note_off_c, 1, 40, 0
1, 5812800, Note_on_c, 1, 45, 40
1, 5813040, Note_off_c, 1, 45, 0
1, 5815920, Note_on_c, 1, 45, 40
1, 5816160, Note_off_c, 1, 45, 0
1, 5819760, Note_on_c, 1, 45, 40
1, 5820000, Note_off_c, 1, 45, 0
1, 5823600, Note_on_c, 1, 38, 40
1, 5824080, Note_off_c, 1, 38, 0
1, 5824080, Note_on_c, 1, 38, 40
1, 5824320, Note_off_c, 1, 38, 0
1, 5824320, Note_on_c, 1, 38, 40
1, 5824560, Note_off_c, 1, 38, 0
1, 5824560, Note_on_c, 1, 38, 40
1, 5824800, Note_off_c, 1, 38, 0
1, 5824800, Note_on_c, 1, 38, 40
1, 5825040, Note_off_c, 1, 38, 0
1, 5825040, Note_on_c, 1, 38, 40
1, 5825280, Note_off_c, 1, 38, 0
1, 5825280, Note_on_c, 1, 38, 40
1, 5825520, Note_off_c, 1, 38, 0
1, 5825520, Note_on_c, 1, 38, 40
1, 5826000, Note_off_c, 1, 38, 0
1, 5826000, Note_on_c, 1, 38, 40
1, 5826240, Note_off_c, 1, 38, 0
1, 5826240, Note_on_c, 1, 38, 40
1, 5826480, Note_off_c, 1, 38, 0
1, 5826480, Note_on_c, 1, 38, 40
1, 5826720, Note_off_c, 1, 38, 0
1, 5826720, Note_on_c, 1, 38, 40
1, 5826960, Note_off_c, 1, 38, 0
1, 5826960, Note_on_c, 1, 38, 40
1, 5827200, Note_off_c, 1, 38, 0
1, 5827200, Note_on_c, 1, 38, 40
1, 5827440, Note_off_c, 1, 38, 0
1, 5827440, Note_on_c, 1, 45, 40
1, 5827680, Note_off_c, 1, 45, 0
1, 5827680, Note_on_c, 1, 45, 40
1, 5827920, Note_off_c, 1, 45, 0
1, 5827920, Note_on_c, 1, 45, 40
1, 5828160, Note_off_c, 1, 45, 0
1, 5828160, Note_on_c, 1, 45, 40
1, 5828400, Note_off_c, 1, 45, 0
1, 5828400, Note_on_c, 1, 45, 40
1, 5828640, Note_off_c, 1, 45, 0
1, 5828640, Note_on_c, 1, 45, 40
1, 5828880, Note_off_c, 1, 45, 0
1, 5828880, Note_on_c, 1, 45, 40
1, 5829120, Note_off_c, 1, 45, 0
1, 5829120, Note_on_c, 1, 45, 40
1, 5829360, Note_off_c, 1, 45, 0
1, 5829360, Note_on_c, 1, 45, 40
1, 5829840, Note_off_c, 1, 45, 0
1, 5829840, Note_on_c, 1, 45, 40
1, 5830080, Note_off_c, 1, 45, 0
1, 5830080, Note_on_c, 1, 45, 40
1, 5830320, Note_off_c, 1, 45, 0
1, 5830320, Note_on_c, 1, 45, 40
1, 5830560, Note_off_c, 1, 45, 0
1, 5830560, Note_on_c, 1, 45, 40
1, 5830800, Note_off_c, 1, 45, 0
1, 5830800, Note_on_c, 1, 45, 40
1, 5831040, Note_off_c, 1, 45, 0
1, 5831040, Note_on_c, 1, 45, 40
1, 5831280, Note_off_c, 1, 45, 0
1, 5831280, Note_on_c, 1, 52, 40
1, 5831760, Note_off_c, 1, 52, 0
1, 5831760, Note_on_c, 1, 52, 40
1, 5832000, Note_off_c, 1, 52, 0
1, 5832000, Note_on_c, 1, 52, 40
1, 5832240, Note_off_c, 1, 52, 0
1, 5832240, Note_on_c, 1, 52, 40
1, 5832480, Note_off_c, 1, 52, 0
1, 5832480, Note_on_c, 1, 52, 40
1, 5832720, Note_off_c, 1, 52, 0
1, 5832720, Note_on_c, 1, 52, 40
1, 5832960, Note_off_c, 1, 52, 0
1, 5832960, Note_on_c, 1, 52, 40
1, 5833200, Note_off_c, 1, 52, 0
1, 5833200, Note_on_c, 1, 52, 40
1, 5833440, Note_off_c, 1, 52, 0
1, 5833440, Note_on_c, 1, 52, 40
1, 5833680, Note_off_c, 1, 52, 0
1, 5833680, Note_on_c, 1, 52, 40
1, 5833920, Note_off_c, 1, 52, 0
1, 5833920, Note_on_c, 1, 52, 40
1, 5834160, Note_off_c, 1, 52, 0
1, 5834160, Note_on_c, 1, 52, 40
1, 5834400, Note_off_c, 1, 52, 0
1, 5834400, Note_on_c, 1, 52, 40
1, 5834640, Note_off_c, 1, 52, 0
1, 5834640, Note_on_c, 1, 52, 40
1, 5834880, Note_off_c, 1, 52, 0
1, 5834880, Note_on_c, 1, 52, 40
1, 5835120, Note_off_c, 1, 52, 0
1, 5835120, Note_on_c, 1, 45, 40
1, 5835360, Note_off_c, 1, 45, 0
1, 5835360, Note_on_c, 1, 45, 40
1, 5835600, Note_off_c, 1, 45, 0
1, 5835600, Note_on_c, 1, 45, 40
1, 5835840, Note_off_c, 1, 45, 0
1, 5835840, Note_on_c, 1, 45, 40
1, 5836080, Note_off_c, 1, 45, 0
1, 5836080, Note_on_c, 1, 45, 40
1, 5836320, Note_off_c, 1, 45, 0
1, 5836320, Note_on_c, 1, 45, 40
1, 5836560, Note_off_c, 1, 45, 0
1, 5836560, Note_on_c, 1, 45, 40
1, 5836800, Note_off_c, 1, 45, 0
1, 5836800, Note_on_c, 1, 45, 40
1, 5837040, Note_off_c, 1, 45, 0
1, 5837040, Note_on_c, 1, 45, 40
1, 5837280, Note_off_c, 1, 45, 0
1, 5837280, Note_on_c, 1, 45, 40
1, 5837520, Note_off_c, 1, 45, 0
1, 5837520, Note_on_c, 1, 45, 40
1, 5837760, Note_off_c, 1, 45, 0
1, 5837760, Note_on_c, 1, 45, 40
1, 5838000, Note_off_c, 1, 45, 0
1, 5838000, Note_on_c, 1, 45, 40
1, 5838240, Note_off_c, 1, 45, 0
1, 5838240, Note_on_c, 1, 45, 40
1, 5838480, Note_off_c, 1, 45, 0
1, 5838480, Note_on_c, 1, 45, 40
1, 5838720, Note_off_c, 1, 45, 0
1, 5838720, Note_on_c, 1, 45, 40
1, 5838960, Note_off_c, 1, 45, 0
1, 5838960, Note_on_c, 1, 45, 40
1, 5839200, Note_off_c, 1, 45, 0
1, 5842800, Note_on_c, 1, 45, 40
1, 5843040, Note_off_c, 1, 45, 0
1, 5846640, Note_on_c, 1, 38, 40
1, 5846880, Note_off_c, 1, 38, 0
1, 5846880, Note_on_c, 1, 38, 40
1, 5847120, Note_off_c, 1, 38, 0
1, 5847120, Note_on_c, 1, 38, 40
1, 5847360, Note_off_c, 1, 38, 0
1, 5847360, Note_on_c, 1, 38, 40
1, 5847600, Note_off_c, 1, 38, 0
1, 5847600, Note_on_c, 1, 38, 40
1, 5847840, Note_off_c, 1, 38, 0
1, 5847840, Note_on_c, 1, 38, 40
1, 5848080, Note_off_c, 1, 38, 0
1, 5848080, Note_on_c, 1, 38, 40
1, 5848320, Note_off_c, 1, 38, 0
1, 5848320, Note_on_c, 1, 38, 40
1, 5848560, Note_off_c, 1, 38, 0
1, 5848560, Note_on_c, 1, 38, 40
1, 5848800, Note_off_c, 1, 38, 0
1, 5848800, Note_on_c, 1, 38, 40
1, 5849040, Note_off_c, 1, 38, 0
1, 5849040, Note_on_c, 1, 38, 40
1, 5849280, Note_off_c, 1, 38, 0
1, 5849280, Note_on_c, 1, 38, 40
1, 5849520, Note_off_c, 1, 38, 0
1, 5849520, Note_on_c, 1, 38, 40
1, 5849760, Note_off_c, 1, 38, 0
1, 5849760, Note_on_c, 1, 38, 40
1, 5850000, Note_off_c, 1, 38, 0
1, 5850000, Note_on_c, 1, 38, 40
1, 5850240, Note_off_c, 1, 38, 0
1, 5850240, Note_on_c, 1, 38, 40
1, 5850480, Note_off_c, 1, 38, 0
1, 5850480, Note_on_c, 1, 45, 40
1, 5850720, Note_off_c, 1, 45, 0
1, 5850720, Note_on_c, 1, 45, 40
1, 5850960, Note_off_c, 1, 45, 0
1, 5850960, Note_on_c, 1, 45, 40
1, 5851200, Note_off_c, 1, 45, 0
1, 5851200, Note_on_c, 1, 45, 40
1, 5851440, Note_off_c, 1, 45, 0
1, 5851440, Note_on_c, 1, 45, 40
1, 5851680, Note_off_c, 1, 45, 0
1, 5851680, Note_on_c, 1, 45, 40
1, 5851920, Note_off_c, 1, 45, 0
1, 5851920, Note_on_c, 1, 45, 40
1, 5852160, Note_off_c, 1, 45, 0
1, 5852160, Note_on_c, 1, 45, 40
1, 5852400, Note_off_c, 1, 45, 0
1, 5852400, Note_on_c, 1, 45, 40
1, 5852640, Note_off_c, 1, 45, 0
1, 5852640, Note_on_c, 1, 45, 40
1, 5852880, Note_off_c, 1, 45, 0
1, 5852880, Note_on_c, 1, 45, 40
1, 5853120, Note_off_c, 1, 45, 0
1, 5853120, Note_on_c, 1, 45, 40
1, 5853360, Note_off_c, 1, 45, 0
1, 5853360, Note_on_c, 1, 45, 40
1, 5853600, Note_off_c, 1, 45, 0
1, 5853600, Note_on_c, 1, 45, 40
1, 5853840, Note_off_c, 1, 45, 0
1, 5853840, Note_on_c, 1, 45, 40
1, 5854080, Note_off_c, 1, 45, 0
1, 5854080, Note_on_c, 1, 45, 40
1, 5854320, Note_off_c, 1, 45, 0
1, 5854320, Note_on_c, 1, 38, 40
1, 5854560, Note_off_c, 1, 38, 0
1, 5854560, Note_on_c, 1, 38, 40
1, 5854800, Note_off_c, 1, 38, 0
1, 5854800, Note_on_c, 1, 38, 40
1, 5855040, Note_off_c, 1, 38, 0
1, 5855040, Note_on_c, 1, 38, 40
1, 5855280, Note_off_c, 1, 38, 0
1, 5855280, Note_on_c, 1, 38, 40
1, 5855520, Note_off_c, 1, 38, 0
1, 5855520, Note_on_c, 1, 38, 40
1, 5855760, Note_off_c, 1, 38, 0
1, 5855760, Note_on_c, 1, 38, 40
1, 5856000, Note_off_c, 1, 38, 0
1, 5856000, Note_on_c, 1, 38, 40
1, 5856240, Note_off_c, 1, 38, 0
1, 5856240, Note_on_c, 1, 38, 40
1, 5856480, Note_off_c, 1, 38, 0
1, 5856480, Note_on_c, 1, 38, 40
1, 5856720, Note_off_c, 1, 38, 0
1, 5856720, Note_on_c, 1, 38, 40
1, 5856960, Note_off_c, 1, 38, 0
1, 5856960, Note_on_c, 1, 38, 40
1, 5857200, Note_off_c, 1, 38, 0
1, 5857200, Note_on_c, 1, 38, 40
1, 5857440, Note_off_c, 1, 38, 0
1, 5857440, Note_on_c, 1, 38, 40
1, 5857680, Note_off_c, 1, 38, 0
1, 5857680, Note_on_c, 1, 38, 40
1, 5857920, Note_off_c, 1, 38, 0
1, 5857920, Note_on_c, 1, 38, 40
1, 5858160, Note_off_c, 1, 38, 0
1, 5858160, Note_on_c, 1, 40, 40
1, 5858880, Note_off_c, 1, 40, 0
1, 5858880, Note_on_c, 1, 45, 40
1, 5859120, Note_off_c, 1, 45, 0
1, 5862000, Note_on_c, 1, 40, 40
1, 5862720, Note_off_c, 1, 40, 0
1, 5862720, Note_on_c, 1, 45, 40
1, 5862960, Note_off_c, 1, 45, 0
1, 5865840, Note_on_c, 1, 45, 40
1, 5866080, Note_off_c, 1, 45, 0
1, 5866080, Note_on_c, 1, 45, 40
1, 5866320, Note_off_c, 1, 45, 0
1, 5866320, Note_on_c, 1, 45, 40
1, 5866560, Note_off_c, 1, 45, 0
1, 5866560, Note_on_c, 1, 45, 40
1, 5866800, Note_off_c, 1, 45, 0
1, 5866800, Note_on_c, 1, 45, 40
1, 5867040, Note_off_c, 1, 45, 0
1, 5867040, Note_on_c, 1, 45, 40
1, 5867280, Note_off_c, 1, 45, 0
1, 5867280, Note_on_c, 1, 45, 40
1, 5867520, Note_off_c, 1, 45, 0
1, 5867520, Note_on_c, 1, 45, 40
1, 5867760, Note_off_c, 1, 45, 0
1, 5867760, Note_on_c, 1, 45, 40
1, 5868000, Note_off_c, 1, 45, 0
1, 5868000, Note_on_c, 1, 45, 40
1, 5868240, Note_off_c, 1, 45, 0
1, 5868240, Note_on_c, 1, 45, 40
1, 5868480, Note_off_c, 1, 45, 0
1, 5868480, Note_on_c, 1, 45, 40
1, 5868720, Note_off_c, 1, 45, 0
1, 5868720, Note_on_c, 1, 45, 40
1, 5868960, Note_off_c, 1, 45, 0
1, 5868960, Note_on_c, 1, 45, 40
1, 5869200, Note_off_c, 1, 45, 0
1, 5869200, Note_on_c, 1, 45, 40
1, 5869440, Note_off_c, 1, 45, 0
1, 5869440, Note_on_c, 1, 45, 40
1, 5869680, Note_off_c, 1, 45, 0
1, 5869680, Note_on_c, 1, 45, 40
1, 5869920, Note_off_c, 1, 45, 0
1, 5869920, Note_on_c, 1, 45, 40
1, 5870160, Note_off_c, 1, 45, 0
1, 5870160, Note_on_c, 1, 45, 40
1, 5870400, Note_off_c, 1, 45, 0
1, 5870400, Note_on_c, 1, 45, 40
1, 5870640, Note_off_c, 1, 45, 0
1, 5870640, Note_on_c, 1, 45, 40
1, 5870880, Note_off_c, 1, 45, 0
1, 5870880, Note_on_c, 1, 45, 40
1, 5871120, Note_off_c, 1, 45, 0
1, 5871120, Note_on_c, 1, 45, 40
1, 5871360, Note_off_c, 1, 45, 0
1, 5871360, Note_on_c, 1, 45, 40
1, 5871600, Note_off_c, 1, 45, 0
1, 5871600, Note_on_c, 1, 45, 40
1, 5871840, Note_off_c, 1, 45, 0
1, 5871840, Note_on_c, 1, 45, 40
1, 5872080, Note_off_c, 1, 45, 0
1, 5872080, Note_on_c, 1, 45, 40
1, 5872320, Note_off_c, 1, 45, 0
1, 5872320, Note_on_c, 1, 45, 40
1, 5872560, Note_off_c, 1, 45, 0
1, 5872560, Note_on_c, 1, 45, 40
1, 5872800, Note_off_c, 1, 45, 0
1, 5872800, Note_on_c, 1, 45, 40
1, 5873040, Note_off_c, 1, 45, 0
1, 5873040, Note_on_c, 1, 45, 40
1, 5873280, Note_off_c, 1, 45, 0
1, 5873280, Note_on_c, 1, 45, 40
1, 5873520, Note_off_c, 1, 45, 0
1, 5873520, Note_on_c, 1, 38, 40
1, 5873760, Note_off_c, 1, 38, 0
1, 5873760, Note_on_c, 1, 38, 40
1, 5874000, Note_off_c, 1, 38, 0
1, 5874000, Note_on_c, 1, 38, 40
1, 5874240, Note_off_c, 1, 38, 0
1, 5874240, Note_on_c, 1, 38, 40
1, 5874480, Note_off_c, 1, 38, 0
1, 5874480, Note_on_c, 1, 38, 40
1, 5874720, Note_off_c, 1, 38, 0
1, 5874720, Note_on_c, 1, 38, 40
1, 5874960, Note_off_c, 1, 38, 0
1, 5874960, Note_on_c, 1, 38, 40
1, 5875200, Note_off_c, 1, 38, 0
1, 5875200, Note_on_c, 1, 38, 40
1, 5875440, Note_off_c, 1, 38, 0
1, 5875440, Note_on_c, 1, 38, 40
1, 5875680, Note_off_c, 1, 38, 0
1, 5875680, Note_on_c, 1, 38, 40
1, 5875920, Note_off_c, 1, 38, 0
1, 5875920, Note_on_c, 1, 38, 40
1, 5876160, Note_off_c, 1, 38, 0
1, 5876160, Note_on_c, 1, 38, 40
1, 5876400, Note_off_c, 1, 38, 0
1, 5876400, Note_on_c, 1, 38, 40
1, 5876640, Note_off_c, 1, 38, 0
1, 5876640, Note_on_c, 1, 38, 40
1, 5876880, Note_off_c, 1, 38, 0
1, 5876880, Note_on_c, 1, 38, 40
1, 5877120, Note_off_c, 1, 38, 0
1, 5877120, Note_on_c, 1, 38, 40
1, 5877360, Note_off_c, 1, 38, 0
1, 5877360, Note_on_c, 1, 45, 40
1, 5877600, Note_off_c, 1, 45, 0
1, 5877600, Note_on_c, 1, 45, 40
1, 5877840, Note_off_c, 1, 45, 0
1, 5877840, Note_on_c, 1, 45, 40
1, 5878080, Note_off_c, 1, 45, 0
1, 5878080, Note_on_c, 1, 45, 40
1, 5878320, Note_off_c, 1, 45, 0
1, 5878320, Note_on_c, 1, 45, 40
1, 5878560, Note_off_c, 1, 45, 0
1, 5878560, Note_on_c, 1, 45, 40
1, 5878800, Note_off_c, 1, 45, 0
1, 5878800, Note_on_c, 1, 45, 40
1, 5879040, Note_off_c, 1, 45, 0
1, 5879040, Note_on_c, 1, 45, 40
1, 5879280, Note_off_c, 1, 45, 0
1, 5879280, Note_on_c, 1, 45, 40
1, 5879520, Note_off_c, 1, 45, 0
1, 5879520, Note_on_c, 1, 45, 40
1, 5879760, Note_off_c, 1, 45, 0
1, 5879760, Note_on_c, 1, 45, 40
1, 5880000, Note_off_c, 1, 45, 0
1, 5880000, Note_on_c, 1, 45, 40
1, 5880240, Note_off_c, 1, 45, 0
1, 5880240, Note_on_c, 1, 45, 40
1, 5880480, Note_off_c, 1, 45, 0
1, 5880480, Note_on_c, 1, 45, 40
1, 5880720, Note_off_c, 1, 45, 0
1, 5880720, Note_on_c, 1, 45, 40
1, 5880960, Note_off_c, 1, 45, 0
1, 5880960, Note_on_c, 1, 45, 40
1, 5881200, Note_off_c, 1, 45, 0
1, 5881200, Note_on_c, 1, 40, 40
1, 5881440, Note_off_c, 1, 40, 0
1, 5881440, Note_on_c, 1, 40, 40
1, 5881680, Note_off_c, 1, 40, 0
1, 5881680, Note_on_c, 1, 40, 40
1, 5881920, Note_off_c, 1, 40, 0
1, 5881920, Note_on_c, 1, 40, 40
1, 5882160, Note_off_c, 1, 40, 0
1, 5882160, Note_on_c, 1, 40, 40
1, 5882400, Note_off_c, 1, 40, 0
1, 5882400, Note_on_c, 1, 40, 40
1, 5882640, Note_off_c, 1, 40, 0
1, 5882640, Note_on_c, 1, 40, 40
1, 5882880, Note_off_c, 1, 40, 0
1, 5882880, Note_on_c, 1, 40, 40
1, 5883120, Note_off_c, 1, 40, 0
1, 5883120, Note_on_c, 1, 38, 40
1, 5883360, Note_off_c, 1, 38, 0
1, 5883360, Note_on_c, 1, 38, 40
1, 5883600, Note_off_c, 1, 38, 0
1, 5883600, Note_on_c, 1, 38, 40
1, 5883840, Note_off_c, 1, 38, 0
1, 5883840, Note_on_c, 1, 38, 40
1, 5884080, Note_off_c, 1, 38, 0
1, 5884080, Note_on_c, 1, 38, 40
1, 5884320, Note_off_c, 1, 38, 0
1, 5884320, Note_on_c, 1, 38, 40
1, 5884560, Note_off_c, 1, 38, 0
1, 5884560, Note_on_c, 1, 38, 40
1, 5884800, Note_off_c, 1, 38, 0
1, 5884800, Note_on_c, 1, 38, 40
1, 5885040, Note_off_c, 1, 38, 0
1, 5885040, Note_on_c, 1, 45, 40
1, 5885280, Note_off_c, 1, 45, 0
1, 5885280, Note_on_c, 1, 45, 40
1, 5885520, Note_off_c, 1, 45, 0
1, 5885520, Note_on_c, 1, 45, 40
1, 5885760, Note_off_c, 1, 45, 0
1, 5885760, Note_on_c, 1, 45, 40
1, 5886000, Note_off_c, 1, 45, 0
1, 5886000, Note_on_c, 1, 45, 40
1, 5886240, Note_off_c, 1, 45, 0
1, 5886240, Note_on_c, 1, 45, 40
1, 5886480, Note_off_c, 1, 45, 0
1, 5886480, Note_on_c, 1, 45, 40
1, 5886720, Note_off_c, 1, 45, 0
1, 5886720, Note_on_c, 1, 45, 40
1, 5886960, Note_off_c, 1, 45, 0
1, 5886960, Note_on_c, 1, 40, 40
1, 5887200, Note_off_c, 1, 40, 0
1, 5887200, Note_on_c, 1, 40, 40
1, 5887440, Note_off_c, 1, 40, 0
1, 5887440, Note_on_c, 1, 40, 40
1, 5887680, Note_off_c, 1, 40, 0
1, 5887680, Note_on_c, 1, 40, 40
1, 5887920, Note_off_c, 1, 40, 0
1, 5887920, Note_on_c, 1, 40, 40
1, 5888160, Note_off_c, 1, 40, 0
1, 5888160, Note_on_c, 1, 40, 40
1, 5888400, Note_off_c, 1, 40, 0
1, 5888400, Note_on_c, 1, 40, 40
1, 5888640, Note_off_c, 1, 40, 0
1, 5888640, Note_on_c, 1, 40, 40
1, 5888880, Note_off_c, 1, 40, 0
1, 5888880, Note_on_c, 1, 45, 40
1, 5889120, Note_off_c, 1, 45, 0
1, 5889120, Note_on_c, 1, 45, 40
1, 5889360, Note_off_c, 1, 45, 0
1, 5889360, Note_on_c, 1, 45, 40
1, 5889600, Note_off_c, 1, 45, 0
1, 5889600, Note_on_c, 1, 45, 40
1, 5889840, Note_off_c, 1, 45, 0
1, 5889840, Note_on_c, 1, 45, 40
1, 5890080, Note_off_c, 1, 45, 0
1, 5890080, Note_on_c, 1, 45, 40
1, 5890320, Note_off_c, 1, 45, 0
1, 5890320, Note_on_c, 1, 45, 40
1, 5890560, Note_off_c, 1, 45, 0
1, 5890560, Note_on_c, 1, 45, 40
1, 5890800, Note_off_c, 1, 45, 0
1, 5890800, Note_on_c, 1, 45, 40
1, 5891040, Note_off_c, 1, 45, 0
1, 5891040, Note_on_c, 1, 45, 40
1, 5891280, Note_off_c, 1, 45, 0
1, 5891280, Note_on_c, 1, 45, 40
1, 5891520, Note_off_c, 1, 45, 0
1, 5891520, Note_on_c, 1, 45, 40
1, 5891760, Note_off_c, 1, 45, 0
1, 5891760, Note_on_c, 1, 45, 40
1, 5892000, Note_off_c, 1, 45, 0
1, 5892000, Note_on_c, 1, 45, 40
1, 5892240, Note_off_c, 1, 45, 0
1, 5892240, Note_on_c, 1, 45, 40
1, 5892480, Note_off_c, 1, 45, 0
1, 5892480, Note_on_c, 1, 45, 40
1, 5892720, Note_off_c, 1, 45, 0
1, 5892720, Note_on_c, 1, 45, 40
1, 5892960, Note_off_c, 1, 45, 0
1, 5892960, Note_on_c, 1, 45, 40
1, 5893200, Note_off_c, 1, 45, 0
1, 5893200, Note_on_c, 1, 45, 40
1, 5893440, Note_off_c, 1, 45, 0
1, 5893440, Note_on_c, 1, 45, 40
1, 5893680, Note_off_c, 1, 45, 0
1, 5893680, Note_on_c, 1, 45, 40
1, 5893920, Note_off_c, 1, 45, 0
1, 5893920, Note_on_c, 1, 45, 40
1, 5894160, Note_off_c, 1, 45, 0
1, 5894160, Note_on_c, 1, 45, 40
1, 5894400, Note_off_c, 1, 45, 0
1, 5894400, Note_on_c, 1, 45, 40
1, 5894640, Note_off_c, 1, 45, 0
1, 5894640, Note_on_c, 1, 45, 40
1, 5894880, Note_off_c, 1, 45, 0
1, 5894880, Note_on_c, 1, 45, 40
1, 5895120, Note_off_c, 1, 45, 0
1, 5895120, Note_on_c, 1, 45, 40
1, 5895360, Note_off_c, 1, 45, 0
1, 5895360, Note_on_c, 1, 45, 40
1, 5895600, Note_off_c, 1, 45, 0
1, 5895600, Note_on_c, 1, 45, 40
1, 5895840, Note_off_c, 1, 45, 0
1, 5895840, Note_on_c, 1, 45, 40
1, 5896080, Note_off_c, 1, 45, 0
1, 5896080, Note_on_c, 1, 45, 40
1, 5896320, Note_off_c, 1, 45, 0
1, 5896320, Note_on_c, 1, 45, 40
1, 5896560, Note_off_c, 1, 45, 0
1, 5896560, Note_on_c, 1, 38, 40
1, 5896800, Note_off_c, 1, 38, 0
1, 5896800, Note_on_c, 1, 38, 40
1, 5897040, Note_off_c, 1, 38, 0
1, 5897040, Note_on_c, 1, 38, 40
1, 5897280, Note_off_c, 1, 38, 0
1, 5897280, Note_on_c, 1, 38, 40
1, 5897520, Note_off_c, 1, 38, 0
1, 5897520, Note_on_c, 1, 38, 40
1, 5897760, Note_off_c, 1, 38, 0
1, 5897760, Note_on_c, 1, 38, 40
1, 5898000, Note_off_c, 1, 38, 0
1, 5898000, Note_on_c, 1, 38, 40
1, 5898240, Note_off_c, 1, 38, 0
1, 5898240, Note_on_c, 1, 38, 40
1, 5898480, Note_off_c, 1, 38, 0
1, 5898480, Note_on_c, 1, 38, 40
1, 5898720, Note_off_c, 1, 38, 0
1, 5898720, Note_on_c, 1, 38, 40
1, 5898960, Note_off_c, 1, 38, 0
1, 5898960, Note_on_c, 1, 38, 40
1, 5899200, Note_off_c, 1, 38, 0
1, 5899200, Note_on_c, 1, 38, 40
1, 5899440, Note_off_c, 1, 38, 0
1, 5899440, Note_on_c, 1, 38, 40
1, 5899680, Note_off_c, 1, 38, 0
1, 5899680, Note_on_c, 1, 38, 40
1, 5899920, Note_off_c, 1, 38, 0
1, 5899920, Note_on_c, 1, 38, 40
1, 5900160, Note_off_c, 1, 38, 0
1, 5900160, Note_on_c, 1, 38, 40
1, 5900400, Note_off_c, 1, 38, 0
1, 5900400, Note_on_c, 1, 45, 40
1, 5900640, Note_off_c, 1, 45, 0
1, 5900640, Note_on_c, 1, 45, 40
1, 5900880, Note_off_c, 1, 45, 0
1, 5900880, Note_on_c, 1, 45, 40
1, 5901120, Note_off_c, 1, 45, 0
1, 5901120, Note_on_c, 1, 45, 40
1, 5901360, Note_off_c, 1, 45, 0
1, 5901360, Note_on_c, 1, 45, 40
1, 5901600, Note_off_c, 1, 45, 0
1, 5901600, Note_on_c, 1, 45, 40
1, 5901840, Note_off_c, 1, 45, 0
1, 5901840, Note_on_c, 1, 45, 40
1, 5902080, Note_off_c, 1, 45, 0
1, 5902080, Note_on_c, 1, 45, 40
1, 5902320, Note_off_c, 1, 45, 0
1, 5902320, Note_on_c, 1, 45, 40
1, 5902560, Note_off_c, 1, 45, 0
1, 5902560, Note_on_c, 1, 45, 40
1, 5902800, Note_off_c, 1, 45, 0
1, 5902800, Note_on_c, 1, 45, 40
1, 5903040, Note_off_c, 1, 45, 0
1, 5903040, Note_on_c, 1, 45, 40
1, 5903280, Note_off_c, 1, 45, 0
1, 5903280, Note_on_c, 1, 45, 40
1, 5903520, Note_off_c, 1, 45, 0
1, 5903520, Note_on_c, 1, 45, 40
1, 5903760, Note_off_c, 1, 45, 0
1, 5903760, Note_on_c, 1, 45, 40
1, 5904000, Note_off_c, 1, 45, 0
1, 5904000, Note_on_c, 1, 45, 40
1, 5904240, Note_off_c, 1, 45, 0
1, 5904240, Note_on_c, 1, 40, 40
1, 5904480, Note_off_c, 1, 40, 0
1, 5904480, Note_on_c, 1, 40, 40
1, 5904720, Note_off_c, 1, 40, 0
1, 5904720, Note_on_c, 1, 40, 40
1, 5904960, Note_off_c, 1, 40, 0
1, 5904960, Note_on_c, 1, 40, 40
1, 5905200, Note_off_c, 1, 40, 0
1, 5905200, Note_on_c, 1, 40, 40
1, 5905440, Note_off_c, 1, 40, 0
1, 5905440, Note_on_c, 1, 40, 40
1, 5905680, Note_off_c, 1, 40, 0
1, 5905680, Note_on_c, 1, 40, 40
1, 5905920, Note_off_c, 1, 40, 0
1, 5905920, Note_on_c, 1, 40, 40
1, 5906160, Note_off_c, 1, 40, 0
1, 5906160, Note_on_c, 1, 38, 40
1, 5906400, Note_off_c, 1, 38, 0
1, 5906400, Note_on_c, 1, 38, 40
1, 5906640, Note_off_c, 1, 38, 0
1, 5906640, Note_on_c, 1, 38, 40
1, 5906880, Note_off_c, 1, 38, 0
1, 5906880, Note_on_c, 1, 38, 40
1, 5907120, Note_off_c, 1, 38, 0
1, 5907120, Note_on_c, 1, 38, 40
1, 5907360, Note_off_c, 1, 38, 0
1, 5907360, Note_on_c, 1, 38, 40
1, 5907600, Note_off_c, 1, 38, 0
1, 5907600, Note_on_c, 1, 38, 40
1, 5907840, Note_off_c, 1, 38, 0
1, 5907840, Note_on_c, 1, 38, 40
1, 5908080, Note_off_c, 1, 38, 0
1, 5908080, Note_on_c, 1, 45, 40
1, 5908320, Note_off_c, 1, 45, 0
1, 5908320, Note_on_c, 1, 45, 40
1, 5908560, Note_off_c, 1, 45, 0
1, 5908560, Note_on_c, 1, 45, 40
1, 5908800, Note_off_c, 1, 45, 0
1, 5908800, Note_on_c, 1, 45, 40
1, 5909040, Note_off_c, 1, 45, 0
1, 5909040, Note_on_c, 1, 45, 40
1, 5909280, Note_off_c, 1, 45, 0
1, 5909280, Note_on_c, 1, 45, 40
1, 5909520, Note_off_c, 1, 45, 0
1, 5909520, Note_on_c, 1, 45, 40
1, 5909760, Note_off_c, 1, 45, 0
1, 5909760, Note_on_c, 1, 45, 40
1, 5910000, Note_off_c, 1, 45, 0
1, 5910000, Note_on_c, 1, 45, 40
1, 5910240, Note_off_c, 1, 45, 0
1, 5910240, Note_on_c, 1, 45, 40
1, 5910480, Note_off_c, 1, 45, 0
1, 5910480, Note_on_c, 1, 45, 40
1, 5910720, Note_off_c, 1, 45, 0
1, 5910720, Note_on_c, 1, 45, 40
1, 5910960, Note_off_c, 1, 45, 0
1, 5910960, Note_on_c, 1, 45, 40
1, 5911200, Note_off_c, 1, 45, 0
1, 5911200, Note_on_c, 1, 45, 40
1, 5911440, Note_off_c, 1, 45, 0
1, 5911440, Note_on_c, 1, 45, 40
1, 5911680, Note_off_c, 1, 45, 0
1, 5911680, Note_on_c, 1, 45, 40
1, 5911920, Note_off_c, 1, 45, 0
1, 5911920, Note_on_c, 1, 45, 40
1, 5912160, Note_off_c, 1, 45, 0
1, 5912160, Note_on_c, 1, 45, 40
1, 5912400, Note_off_c, 1, 45, 0
1, 5912400, Note_on_c, 1, 45, 40
1, 5912640, Note_off_c, 1, 45, 0
1, 5912640, Note_on_c, 1, 45, 40
1, 5912880, Note_off_c, 1, 45, 0
1, 5912880, Note_on_c, 1, 45, 40
1, 5913120, Note_off_c, 1, 45, 0
1, 5913120, Note_on_c, 1, 45, 40
1, 5913360, Note_off_c, 1, 45, 0
1, 5913360, Note_on_c, 1, 45, 40
1, 5913600, Note_off_c, 1, 45, 0
1, 5913600, Note_on_c, 1, 45, 40
1, 5913840, Note_off_c, 1, 45, 0
1, 5913840, Note_on_c, 1, 45, 40
1, 5914080, Note_off_c, 1, 45, 0
1, 5914080, Note_on_c, 1, 45, 40
1, 5914320, Note_off_c, 1, 45, 0
1, 5914320, Note_on_c, 1, 45, 40
1, 5914560, Note_off_c, 1, 45, 0
1, 5914560, Note_on_c, 1, 45, 40
1, 5914800, Note_off_c, 1, 45, 0
1, 5914800, Note_on_c, 1, 45, 40
1, 5915040, Note_off_c, 1, 45, 0
1, 5915040, Note_on_c, 1, 45, 40
1, 5915280, Note_off_c, 1, 45, 0
1, 5915280, Note_on_c, 1, 45, 40
1, 5915520, Note_off_c, 1, 45, 0
1, 5915520, Note_on_c, 1, 45, 40
1, 5915760, Note_off_c, 1, 45, 0
1, 5915760, Note_on_c, 1, 45, 40
1, 5916000, Note_off_c, 1, 45, 0
1, 5916000, Note_on_c, 1, 45, 40
1, 5916240, Note_off_c, 1, 45, 0
1, 5916240, Note_on_c, 1, 45, 40
1, 5916480, Note_off_c, 1, 45, 0
1, 5916480, Note_on_c, 1, 45, 40
1, 5916720, Note_off_c, 1, 45, 0
1, 5916720, Note_on_c, 1, 45, 40
1, 5916960, Note_off_c, 1, 45, 0
1, 5916960, Note_on_c, 1, 45, 40
1, 5917200, Note_off_c, 1, 45, 0
1, 5917200, Note_on_c, 1, 45, 40
1, 5917440, Note_off_c, 1, 45, 0
1, 5917440, Note_on_c, 1, 45, 40
1, 5917680, Note_off_c, 1, 45, 0
1, 5917680, Note_on_c, 1, 45, 40
1, 5917920, Note_off_c, 1, 45, 0
1, 5917920, Note_on_c, 1, 45, 40
1, 5918160, Note_off_c, 1, 45, 0
1, 5918160, Note_on_c, 1, 45, 40
1, 5918400, Note_off_c, 1, 45, 0
1, 5918400, Note_on_c, 1, 45, 40
1, 5918640, Note_off_c, 1, 45, 0
1, 5918640, Note_on_c, 1, 45, 40
1, 5918880, Note_off_c, 1, 45, 0
1, 5918880, Note_on_c, 1, 45, 40
1, 5919120, Note_off_c, 1, 45, 0
1, 5919120, Note_on_c, 1, 45, 40
1, 5919360, Note_off_c, 1, 45, 0
1, 5919360, Note_on_c, 1, 45, 40
1, 5919600, Note_off_c, 1, 45, 0
1, 5919600, Note_on_c, 1, 38, 40
1, 5919840, Note_off_c, 1, 38, 0
1, 5919840, Note_on_c, 1, 38, 40
1, 5920080, Note_off_c, 1, 38, 0
1, 5920080, Note_on_c, 1, 38, 40
1, 5920320, Note_off_c, 1, 38, 0
1, 5920320, Note_on_c, 1, 38, 40
1, 5920560, Note_off_c, 1, 38, 0
1, 5920560, Note_on_c, 1, 38, 40
1, 5920800, Note_off_c, 1, 38, 0
1, 5920800, Note_on_c, 1, 38, 40
1, 5921040, Note_off_c, 1, 38, 0
1, 5921040, Note_on_c, 1, 38, 40
1, 5921280, Note_off_c, 1, 38, 0
1, 5921280, Note_on_c, 1, 38, 40
1, 5921520, Note_off_c, 1, 38, 0
1, 5921520, Note_on_c, 1, 38, 40
1, 5921760, Note_off_c, 1, 38, 0
1, 5921760, Note_on_c, 1, 38, 40
1, 5922000, Note_off_c, 1, 38, 0
1, 5922000, Note_on_c, 1, 38, 40
1, 5922240, Note_off_c, 1, 38, 0
1, 5922240, Note_on_c, 1, 38, 40
1, 5922480, Note_off_c, 1, 38, 0
1, 5922480, Note_on_c, 1, 38, 40
1, 5922720, Note_off_c, 1, 38, 0
1, 5922720, Note_on_c, 1, 38, 40
1, 5922960, Note_off_c, 1, 38, 0
1, 5922960, Note_on_c, 1, 38, 40
1, 5923200, Note_off_c, 1, 38, 0
1, 5923200, Note_on_c, 1, 38, 40
1, 5923440, Note_off_c, 1, 38, 0
1, 5923440, Note_on_c, 1, 45, 40
1, 5923680, Note_off_c, 1, 45, 0
1, 5923680, Note_on_c, 1, 45, 40
1, 5923920, Note_off_c, 1, 45, 0
1, 5923920, Note_on_c, 1, 45, 40
1, 5924160, Note_off_c, 1, 45, 0
1, 5924160, Note_on_c, 1, 45, 40
1, 5924400, Note_off_c, 1, 45, 0
1, 5924400, Note_on_c, 1, 45, 40
1, 5924640, Note_off_c, 1, 45, 0
1, 5924640, Note_on_c, 1, 45, 40
1, 5924880, Note_off_c, 1, 45, 0
1, 5924880, Note_on_c, 1, 45, 40
1, 5925120, Note_off_c, 1, 45, 0
1, 5925120, Note_on_c, 1, 45, 40
1, 5925360, Note_off_c, 1, 45, 0
1, 5925360, Note_on_c, 1, 45, 40
1, 5925600, Note_off_c, 1, 45, 0
1, 5925600, Note_on_c, 1, 45, 40
1, 5925840, Note_off_c, 1, 45, 0
1, 5925840, Note_on_c, 1, 45, 40
1, 5926080, Note_off_c, 1, 45, 0
1, 5926080, Note_on_c, 1, 45, 40
1, 5926320, Note_off_c, 1, 45, 0
1, 5926320, Note_on_c, 1, 45, 40
1, 5926560, Note_off_c, 1, 45, 0
1, 5926560, Note_on_c, 1, 45, 40
1, 5926800, Note_off_c, 1, 45, 0
1, 5926800, Note_on_c, 1, 45, 40
1, 5927040, Note_off_c, 1, 45, 0
1, 5927040, Note_on_c, 1, 45, 40
1, 5927280, Note_off_c, 1, 45, 0
1, 5927280, Note_on_c, 1, 40, 40
1, 5927520, Note_off_c, 1, 40, 0
1, 5927520, Note_on_c, 1, 40, 40
1, 5927760, Note_off_c, 1, 40, 0
1, 5927760, Note_on_c, 1, 40, 40
1, 5928000, Note_off_c, 1, 40, 0
1, 5928000, Note_on_c, 1, 40, 40
1, 5928240, Note_off_c, 1, 40, 0
1, 5928240, Note_on_c, 1, 40, 40
1, 5928480, Note_off_c, 1, 40, 0
1, 5928480, Note_on_c, 1, 40, 40
1, 5928720, Note_off_c, 1, 40, 0
1, 5928720, Note_on_c, 1, 40, 40
1, 5928960, Note_off_c, 1, 40, 0
1, 5928960, Note_on_c, 1, 40, 40
1, 5929200, Note_off_c, 1, 40, 0
1, 5929200, Note_on_c, 1, 38, 40
1, 5929440, Note_off_c, 1, 38, 0
1, 5929440, Note_on_c, 1, 38, 40
1, 5929680, Note_off_c, 1, 38, 0
1, 5929680, Note_on_c, 1, 38, 40
1, 5929920, Note_off_c, 1, 38, 0
1, 5929920, Note_on_c, 1, 38, 40
1, 5930160, Note_off_c, 1, 38, 0
1, 5930160, Note_on_c, 1, 38, 40
1, 5930400, Note_off_c, 1, 38, 0
1, 5930400, Note_on_c, 1, 38, 40
1, 5930640, Note_off_c, 1, 38, 0
1, 5930640, Note_on_c, 1, 38, 40
1, 5930880, Note_off_c, 1, 38, 0
1, 5930880, Note_on_c, 1, 38, 40
1, 5931120, Note_off_c, 1, 38, 0
1, 5931120, Note_on_c, 1, 45, 40
1, 5931360, Note_off_c, 1, 45, 0
1, 5931360, Note_on_c, 1, 45, 40
1, 5931600, Note_off_c, 1, 45, 0
1, 5931600, Note_on_c, 1, 45, 40
1, 5931840, Note_off_c, 1, 45, 0
1, 5931840, Note_on_c, 1, 45, 40
1, 5932080, Note_off_c, 1, 45, 0
1, 5932080, Note_on_c, 1, 45, 40
1, 5932320, Note_off_c, 1, 45, 0
1, 5932320, Note_on_c, 1, 45, 40
1, 5932560, Note_off_c, 1, 45, 0
1, 5932560, Note_on_c, 1, 45, 40
1, 5932800, Note_off_c, 1, 45, 0
1, 5932800, Note_on_c, 1, 45, 40
1, 5933040, Note_off_c, 1, 45, 0
1, 5933040, Note_on_c, 1, 45, 40
1, 5933280, Note_off_c, 1, 45, 0
1, 5933280, Note_on_c, 1, 45, 40
1, 5933520, Note_off_c, 1, 45, 0
1, 5933520, Note_on_c, 1, 45, 40
1, 5933760, Note_off_c, 1, 45, 0
1, 5933760, Note_on_c, 1, 45, 40
1, 5934000, Note_off_c, 1, 45, 0
1, 5934000, Note_on_c, 1, 45, 40
1, 5934240, Note_off_c, 1, 45, 0
1, 5934240, Note_on_c, 1, 45, 40
1, 5934480, Note_off_c, 1, 45, 0
1, 5934480, Note_on_c, 1, 45, 40
1, 5934720, Note_off_c, 1, 45, 0
1, 5934720, Note_on_c, 1, 45, 40
1, 5934960, Note_off_c, 1, 45, 0
1, 5934960, Note_on_c, 1, 45, 40
1, 5935200, Note_off_c, 1, 45, 0
1, 5935200, Note_on_c, 1, 45, 40
1, 5935440, Note_off_c, 1, 45, 0
1, 5935440, Note_on_c, 1, 45, 40
1, 5935680, Note_off_c, 1, 45, 0
1, 5935680, Note_on_c, 1, 45, 40
1, 5935920, Note_off_c, 1, 45, 0
1, 5935920, Note_on_c, 1, 45, 40
1, 5936160, Note_off_c, 1, 45, 0
1, 5936160, Note_on_c, 1, 45, 40
1, 5936400, Note_off_c, 1, 45, 0
1, 5936400, Note_on_c, 1, 45, 40
1, 5936640, Note_off_c, 1, 45, 0
1, 5936640, Note_on_c, 1, 45, 40
1, 5936880, Note_off_c, 1, 45, 0
1, 5936880, Note_on_c, 1, 45, 40
1, 5937120, Note_off_c, 1, 45, 0
1, 5937120, Note_on_c, 1, 45, 40
1, 5937360, Note_off_c, 1, 45, 0
1, 5937360, Note_on_c, 1, 45, 40
1, 5937600, Note_off_c, 1, 45, 0
1, 5937600, Note_on_c, 1, 45, 40
1, 5937840, Note_off_c, 1, 45, 0
1, 5937840, Note_on_c, 1, 45, 40
1, 5938080, Note_off_c, 1, 45, 0
1, 5938080, Note_on_c, 1, 45, 40
1, 5938320, Note_off_c, 1, 45, 0
1, 5938320, Note_on_c, 1, 45, 40
1, 5938560, Note_off_c, 1, 45, 0
1, 5938560, Note_on_c, 1, 45, 40
1, 5938800, Note_off_c, 1, 45, 0
1, 5938800, Note_on_c, 1, 45, 40
1, 5939040, Note_off_c, 1, 45, 0
1, 5939040, Note_on_c, 1, 45, 40
1, 5939280, Note_off_c, 1, 45, 0
1, 5939280, Note_on_c, 1, 45, 40
1, 5939520, Note_off_c, 1, 45, 0
1, 5939520, Note_on_c, 1, 45, 40
1, 5939760, Note_off_c, 1, 45, 0
1, 5939760, Note_on_c, 1, 45, 40
1, 5940000, Note_off_c, 1, 45, 0
1, 5940000, Note_on_c, 1, 45, 40
1, 5940240, Note_off_c, 1, 45, 0
1, 5940240, Note_on_c, 1, 45, 40
1, 5940480, Note_off_c, 1, 45, 0
1, 5940480, Note_on_c, 1, 45, 40
1, 5940720, Note_off_c, 1, 45, 0
1, 5940720, Note_on_c, 1, 45, 40
1, 5940960, Note_off_c, 1, 45, 0
1, 5940960, Note_on_c, 1, 45, 40
1, 5941200, Note_off_c, 1, 45, 0
1, 5941200, Note_on_c, 1, 45, 40
1, 5941440, Note_off_c, 1, 45, 0
1, 5941440, Note_on_c, 1, 45, 40
1, 5941680, Note_off_c, 1, 45, 0
1, 5941680, Note_on_c, 1, 45, 40
1, 5941920, Note_off_c, 1, 45, 0
1, 5941920, Note_on_c, 1, 45, 40
1, 5942160, Note_off_c, 1, 45, 0
1, 5942160, Note_on_c, 1, 45, 40
1, 5942400, Note_off_c, 1, 45, 0
1, 5942400, Note_on_c, 1, 45, 40
1, 5942640, Note_off_c, 1, 45, 0
1, 5942640, Note_on_c, 1, 38, 40
1, 5942880, Note_off_c, 1, 38, 0
1, 5942880, Note_on_c, 1, 38, 40
1, 5943120, Note_off_c, 1, 38, 0
1, 5943120, Note_on_c, 1, 38, 40
1, 5943360, Note_off_c, 1, 38, 0
1, 5943360, Note_on_c, 1, 38, 40
1, 5943600, Note_off_c, 1, 38, 0
1, 5943600, Note_on_c, 1, 38, 40
1, 5943840, Note_off_c, 1, 38, 0
1, 5943840, Note_on_c, 1, 38, 40
1, 5944080, Note_off_c, 1, 38, 0
1, 5944080, Note_on_c, 1, 38, 40
1, 5944320, Note_off_c, 1, 38, 0
1, 5944320, Note_on_c, 1, 38, 40
1, 5944560, Note_off_c, 1, 38, 0
1, 5944560, Note_on_c, 1, 38, 40
1, 5944800, Note_off_c, 1, 38, 0
1, 5944800, Note_on_c, 1, 38, 40
1, 5945040, Note_off_c, 1, 38, 0
1, 5945040, Note_on_c, 1, 38, 40
1, 5945280, Note_off_c, 1, 38, 0
1, 5945280, Note_on_c, 1, 38, 40
1, 5945520, Note_off_c, 1, 38, 0
1, 5945520, Note_on_c, 1, 38, 40
1, 5945760, Note_off_c, 1, 38, 0
1, 5945760, Note_on_c, 1, 38, 40
1, 5946000, Note_off_c, 1, 38, 0
1, 5946000, Note_on_c, 1, 38, 40
1, 5946240, Note_off_c, 1, 38, 0
1, 5946240, Note_on_c, 1, 38, 40
1, 5946480, Note_off_c, 1, 38, 0
1, 5946480, Note_on_c, 1, 45, 40
1, 5946720, Note_off_c, 1, 45, 0
1, 5946720, Note_on_c, 1, 45, 40
1, 5946960, Note_off_c, 1, 45, 0
1, 5946960, Note_on_c, 1, 45, 40
1, 5947200, Note_off_c, 1, 45, 0
1, 5947200, Note_on_c, 1, 45, 40
1, 5947440, Note_off_c, 1, 45, 0
1, 5947440, Note_on_c, 1, 45, 40
1, 5947680, Note_off_c, 1, 45, 0
1, 5947680, Note_on_c, 1, 45, 40
1, 5947920, Note_off_c, 1, 45, 0
1, 5947920, Note_on_c, 1, 45, 40
1, 5948160, Note_off_c, 1, 45, 0
1, 5948160, Note_on_c, 1, 45, 40
1, 5948400, Note_off_c, 1, 45, 0
1, 5948400, Note_on_c, 1, 45, 40
1, 5948640, Note_off_c, 1, 45, 0
1, 5948640, Note_on_c, 1, 45, 40
1, 5948880, Note_off_c, 1, 45, 0
1, 5948880, Note_on_c, 1, 45, 40
1, 5949120, Note_off_c, 1, 45, 0
1, 5949120, Note_on_c, 1, 45, 40
1, 5949360, Note_off_c, 1, 45, 0
1, 5949360, Note_on_c, 1, 45, 40
1, 5949600, Note_off_c, 1, 45, 0
1, 5949600, Note_on_c, 1, 45, 40
1, 5949840, Note_off_c, 1, 45, 0
1, 5949840, Note_on_c, 1, 45, 40
1, 5950080, Note_off_c, 1, 45, 0
1, 5950080, Note_on_c, 1, 45, 40
1, 5950320, Note_off_c, 1, 45, 0
1, 5950320, Note_on_c, 1, 40, 40
1, 5950560, Note_off_c, 1, 40, 0
1, 5950560, Note_on_c, 1, 40, 40
1, 5950800, Note_off_c, 1, 40, 0
1, 5950800, Note_on_c, 1, 40, 40
1, 5951040, Note_off_c, 1, 40, 0
1, 5951040, Note_on_c, 1, 40, 40
1, 5951280, Note_off_c, 1, 40, 0
1, 5951280, Note_on_c, 1, 40, 40
1, 5951520, Note_off_c, 1, 40, 0
1, 5951520, Note_on_c, 1, 40, 40
1, 5951760, Note_off_c, 1, 40, 0
1, 5951760, Note_on_c, 1, 40, 40
1, 5952000, Note_off_c, 1, 40, 0
1, 5952000, Note_on_c, 1, 40, 40
1, 5952240, Note_off_c, 1, 40, 0
1, 5952240, Note_on_c, 1, 38, 40
1, 5952480, Note_off_c, 1, 38, 0
1, 5952480, Note_on_c, 1, 38, 40
1, 5952720, Note_off_c, 1, 38, 0
1, 5952720, Note_on_c, 1, 38, 40
1, 5952960, Note_off_c, 1, 38, 0
1, 5952960, Note_on_c, 1, 38, 40
1, 5953200, Note_off_c, 1, 38, 0
1, 5953200, Note_on_c, 1, 38, 40
1, 5953440, Note_off_c, 1, 38, 0
1, 5953440, Note_on_c, 1, 38, 40
1, 5953680, Note_off_c, 1, 38, 0
1, 5953680, Note_on_c, 1, 38, 40
1, 5953920, Note_off_c, 1, 38, 0
1, 5953920, Note_on_c, 1, 38, 40
1, 5954160, Note_off_c, 1, 38, 0
1, 5954160, Note_on_c, 1, 45, 40
1, 5954400, Note_off_c, 1, 45, 0
1, 5954400, Note_on_c, 1, 45, 40
1, 5954640, Note_off_c, 1, 45, 0
1, 5954640, Note_on_c, 1, 45, 40
1, 5954880, Note_off_c, 1, 45, 0
1, 5954880, Note_on_c, 1, 45, 40
1, 5955120, Note_off_c, 1, 45, 0
1, 5955120, Note_on_c, 1, 45, 40
1, 5955360, Note_off_c, 1, 45, 0
1, 5955360, Note_on_c, 1, 45, 40
1, 5955600, Note_off_c, 1, 45, 0
1, 5955600, Note_on_c, 1, 45, 40
1, 5955840, Note_off_c, 1, 45, 0
1, 5955840, Note_on_c, 1, 45, 40
1, 5956080, Note_off_c, 1, 45, 0
1, 5956080, Note_on_c, 1, 45, 40
1, 5956320, Note_off_c, 1, 45, 0
1, 5956320, Note_on_c, 1, 45, 40
1, 5956560, Note_off_c, 1, 45, 0
1, 5956560, Note_on_c, 1, 45, 40
1, 5956800, Note_off_c, 1, 45, 0
1, 5956800, Note_on_c, 1, 45, 40
1, 5957040, Note_off_c, 1, 45, 0
1, 5957040, Note_on_c, 1, 45, 40
1, 5957280, Note_off_c, 1, 45, 0
1, 5957280, Note_on_c, 1, 45, 40
1, 5957520, Note_off_c, 1, 45, 0
1, 5957520, Note_on_c, 1, 45, 40
1, 5957760, Note_off_c, 1, 45, 0
1, 5957760, Note_on_c, 1, 45, 40
1, 5958000, Note_off_c, 1, 45, 0
1, 5961840, Note_on_c, 1, 36, 40
1, 5961960, Note_off_c, 1, 36, 0
1, 5962080, Note_on_c, 1, 36, 40
1, 5962200, Note_off_c, 1, 36, 0
1, 5962320, Note_on_c, 1, 36, 40
1, 5962440, Note_off_c, 1, 36, 0
1, 5962560, Note_on_c, 1, 36, 40
1, 5962800, Note_off_c, 1, 36, 0
1, 5962800, Note_on_c, 1, 36, 40
1, 5962920, Note_off_c, 1, 36, 0
1, 5963040, Note_on_c, 1, 36, 40
1, 5963160, Note_off_c, 1, 36, 0
1, 5963280, Note_on_c, 1, 36, 40
1, 5963400, Note_off_c, 1, 36, 0
1, 5963520, Note_on_c, 1, 36, 40
1, 5963640, Note_off_c, 1, 36, 0
1, 5963640, Note_on_c, 1, 24, 40
1, 5963760, Note_off_c, 1, 24, 0
1, 5963760, Note_on_c, 1, 41, 40
1, 5963880, Note_off_c, 1, 41, 0
1, 5964000, Note_on_c, 1, 41, 40
1, 5964240, Note_off_c, 1, 41, 0
1, 5964240, Note_on_c, 1, 41, 40
1, 5964360, Note_off_c, 1, 41, 0
1, 5964480, Note_on_c, 1, 43, 40
1, 5964600, Note_off_c, 1, 43, 0
1, 5964720, Note_on_c, 1, 43, 40
1, 5964840, Note_off_c, 1, 43, 0
1, 5964960, Note_on_c, 1, 43, 40
1, 5965200, Note_off_c, 1, 43, 0
1, 5965200, Note_on_c, 1, 43, 40
1, 5965320, Note_off_c, 1, 43, 0
1, 5965440, Note_on_c, 1, 36, 40
1, 5965560, Note_off_c, 1, 36, 0
1, 5965680, Note_on_c, 1, 36, 40
1, 5965800, Note_off_c, 1, 36, 0
1, 5965920, Note_on_c, 1, 36, 40
1, 5966040, Note_off_c, 1, 36, 0
1, 5966160, Note_on_c, 1, 36, 40
1, 5966280, Note_off_c, 1, 36, 0
1, 5966400, Note_on_c, 1, 36, 40
1, 5966520, Note_off_c, 1, 36, 0
1, 5966640, Note_on_c, 1, 36, 40
1, 5966760, Note_off_c, 1, 36, 0
1, 5966880, Note_on_c, 1, 36, 40
1, 5967000, Note_off_c, 1, 36, 0
1, 5967000, Note_on_c, 1, 24, 40
1, 5967120, Note_off_c, 1, 24, 0
1, 5967120, Note_on_c, 1, 36, 40
1, 5967240, Note_off_c, 1, 36, 0
1, 5967240, Note_on_c, 1, 24, 40
1, 5967360, Note_off_c, 1, 24, 0
1, 5967360, Note_on_c, 1, 36, 40
1, 5967480, Note_off_c, 1, 36, 0
1, 5967480, Note_on_c, 1, 36, 40
1, 5967600, Note_off_c, 1, 36, 0
1, 5967600, Note_on_c, 1, 41, 40
1, 5967720, Note_off_c, 1, 41, 0
1, 5967840, Note_on_c, 1, 41, 40
1, 5968080, Note_off_c, 1, 41, 0
1, 5968080, Note_on_c, 1, 41, 40
1, 5968200, Note_off_c, 1, 41, 0
1, 5968320, Note_on_c, 1, 41, 40
1, 5968440, Note_off_c, 1, 41, 0
1, 5968440, Note_on_c, 1, 29, 40
1, 5968560, Note_off_c, 1, 29, 0
1, 5968560, Note_on_c, 1, 43, 40
1, 5968680, Note_off_c, 1, 43, 0
1, 5968680, Note_on_c, 1, 31, 40
1, 5968800, Note_off_c, 1, 31, 0
1, 5968800, Note_on_c, 1, 43, 40
1, 5968920, Note_off_c, 1, 43, 0
1, 5969040, Note_on_c, 1, 43, 40
1, 5969160, Note_off_c, 1, 43, 0
1, 5969280, Note_on_c, 1, 43, 40
1, 5969400, Note_off_c, 1, 43, 0
1, 5969520, Note_on_c, 1, 36, 40
1, 5969640, Note_off_c, 1, 36, 0
1, 5969760, Note_on_c, 1, 36, 40
1, 5969880, Note_off_c, 1, 36, 0
1, 5970000, Note_on_c, 1, 36, 40
1, 5970120, Note_off_c, 1, 36, 0
1, 5970240, Note_on_c, 1, 36, 40
1, 5970360, Note_off_c, 1, 36, 0
1, 5970360, Note_on_c, 1, 24, 40
1, 5970480, Note_off_c, 1, 24, 0
1, 5970480, Note_on_c, 1, 36, 40
1, 5970600, Note_off_c, 1, 36, 0
1, 5970720, Note_on_c, 1, 36, 40
1, 5970840, Note_off_c, 1, 36, 0
1, 5970960, Note_on_c, 1, 36, 40
1, 5971200, Note_off_c, 1, 36, 0
1, 5971200, Note_on_c, 1, 40, 40
1, 5971320, Note_off_c, 1, 40, 0
1, 5971440, Note_on_c, 1, 41, 40
1, 5971560, Note_off_c, 1, 41, 0
1, 5971680, Note_on_c, 1, 41, 40
1, 5971920, Note_off_c, 1, 41, 0
1, 5971920, Note_on_c, 1, 41, 40
1, 5972040, Note_off_c, 1, 41, 0
1, 5972160, Note_on_c, 1, 43, 40
1, 5972280, Note_off_c, 1, 43, 0
1, 5972400, Note_on_c, 1, 43, 40
1, 5972520, Note_off_c, 1, 43, 0
1, 5972640, Note_on_c, 1, 43, 40
1, 5972880, Note_off_c, 1, 43, 0
1, 5972880, Note_on_c, 1, 43, 40
1, 5973000, Note_off_c, 1, 43, 0
1, 5973120, Note_on_c, 1, 43, 40
1, 5973240, Note_off_c, 1, 43, 0
1, 5973240, Note_on_c, 1, 31, 40
1, 5973360, Note_off_c, 1, 31, 0
1, 5973360, Note_on_c, 1, 45, 40
1, 5973480, Note_off_c, 1, 45, 0
1, 5973600, Note_on_c, 1, 45, 40
1, 5973840, Note_off_c, 1, 45, 0
1, 5973840, Note_on_c, 1, 45, 40
1, 5973960, Note_off_c, 1, 45, 0
1, 5974080, Note_on_c, 1, 33, 40
1, 5974200, Note_off_c, 1, 33, 0
1, 5974320, Note_on_c, 1, 35, 40
1, 5974440, Note_off_c, 1, 35, 0
1, 5974440, Note_on_c, 1, 23, 40
1, 5974560, Note_off_c, 1, 23, 0
1, 5974560, Note_on_c, 1, 35, 40
1, 5974680, Note_off_c, 1, 35, 0
1, 5974800, Note_on_c, 1, 35, 40
1, 5974920, Note_off_c, 1, 35, 0
1, 5975040, Note_on_c, 1, 35, 40
1, 5975160, Note_off_c, 1, 35, 0
1, 5975280, Note_on_c, 1, 40, 40
1, 5975400, Note_off_c, 1, 40, 0
1, 5975520, Note_on_c, 1, 40, 40
1, 5975640, Note_off_c, 1, 40, 0
1, 5975760, Note_on_c, 1, 40, 40
1, 5975880, Note_off_c, 1, 40, 0
1, 5976000, Note_on_c, 1, 40, 40
1, 5976120, Note_off_c, 1, 40, 0
1, 5976120, Note_on_c, 1, 28, 40
1, 5976240, Note_off_c, 1, 28, 0
1, 5976240, Note_on_c, 1, 40, 40
1, 5976360, Note_off_c, 1, 40, 0
1, 5976480, Note_on_c, 1, 40, 40
1, 5976600, Note_off_c, 1, 40, 0
1, 5976720, Note_on_c, 1, 40, 40
1, 5976960, Note_off_c, 1, 40, 0
1, 5976960, Note_on_c, 1, 38, 40
1, 5977080, Note_off_c, 1, 38, 0
1, 5977200, Note_on_c, 1, 40, 40
1, 5977320, Note_off_c, 1, 40, 0
1, 5977320, Note_on_c, 1, 28, 40
1, 5977440, Note_off_c, 1, 28, 0
1, 5977440, Note_on_c, 1, 40, 40
1, 5977560, Note_off_c, 1, 40, 0
1, 5977680, Note_on_c, 1, 40, 40
1, 5977800, Note_off_c, 1, 40, 0
1, 5977920, Note_on_c, 1, 40, 40
1, 5978040, Note_off_c, 1, 40, 0
1, 5978160, Note_on_c, 1, 43, 40
1, 5978280, Note_off_c, 1, 43, 0
1, 5978400, Note_on_c, 1, 43, 40
1, 5978640, Note_off_c, 1, 43, 0
1, 5978640, Note_on_c, 1, 43, 40
1, 5978760, Note_off_c, 1, 43, 0
1, 5978880, Note_on_c, 1, 40, 40
1, 5979000, Note_off_c, 1, 40, 0
1, 5979120, Note_on_c, 1, 41, 40
1, 5979240, Note_off_c, 1, 41, 0
1, 5979240, Note_on_c, 1, 29, 40
1, 5979360, Note_off_c, 1, 29, 0
1, 5979360, Note_on_c, 1, 41, 40
1, 5979480, Note_off_c, 1, 41, 0
1, 5979600, Note_on_c, 1, 41, 40
1, 5979720, Note_off_c, 1, 41, 0
1, 5979840, Note_on_c, 1, 41, 40
1, 5979960, Note_off_c, 1, 41, 0
1, 5980080, Note_on_c, 1, 35, 40
1, 5980200, Note_off_c, 1, 35, 0
1, 5980200, Note_on_c, 1, 23, 40
1, 5980320, Note_off_c, 1, 23, 0
1, 5980320, Note_on_c, 1, 35, 40
1, 5980440, Note_off_c, 1, 35, 0
1, 5980560, Note_on_c, 1, 35, 40
1, 5980680, Note_off_c, 1, 35, 0
1, 5980800, Note_on_c, 1, 35, 40
1, 5980920, Note_off_c, 1, 35, 0
1, 5981040, Note_on_c, 1, 40, 40
1, 5981160, Note_off_c, 1, 40, 0
1, 5981160, Note_on_c, 1, 28, 40
1, 5981280, Note_off_c, 1, 28, 0
1, 5981280, Note_on_c, 1, 40, 40
1, 5981400, Note_off_c, 1, 40, 0
1, 5981520, Note_on_c, 1, 40, 40
1, 5981640, Note_off_c, 1, 40, 0
1, 5981760, Note_on_c, 1, 40, 40
1, 5981880, Note_off_c, 1, 40, 0
1, 5982000, Note_on_c, 1, 43, 40
1, 5982120, Note_off_c, 1, 43, 0
1, 5982120, Note_on_c, 1, 31, 40
1, 5982240, Note_off_c, 1, 31, 0
1, 5982240, Note_on_c, 1, 43, 40
1, 5982360, Note_off_c, 1, 43, 0
1, 5982480, Note_on_c, 1, 43, 40
1, 5982600, Note_off_c, 1, 43, 0
1, 5982720, Note_on_c, 1, 43, 40
1, 5982840, Note_off_c, 1, 43, 0
1, 5982960, Note_on_c, 1, 41, 40
1, 5983080, Note_off_c, 1, 41, 0
1, 5983200, Note_on_c, 1, 41, 40
1, 5983440, Note_off_c, 1, 41, 0
1, 5983440, Note_on_c, 1, 41, 40
1, 5983560, Note_off_c, 1, 41, 0
1, 5983680, Note_on_c, 1, 33, 40
1, 5983800, Note_off_c, 1, 33, 0
1, 5983920, Note_on_c, 1, 35, 40
1, 5984040, Note_off_c, 1, 35, 0
1, 5984040, Note_on_c, 1, 23, 40
1, 5984160, Note_off_c, 1, 23, 0
1, 5984160, Note_on_c, 1, 35, 40
1, 5984280, Note_off_c, 1, 35, 0
1, 5984400, Note_on_c, 1, 35, 40
1, 5984520, Note_off_c, 1, 35, 0
1, 5984640, Note_on_c, 1, 35, 40
1, 5984760, Note_off_c, 1, 35, 0
1, 5984880, Note_on_c, 1, 45, 40
1, 5985000, Note_off_c, 1, 45, 0
1, 5985120, Note_on_c, 1, 45, 40
1, 5985240, Note_off_c, 1, 45, 0
1, 5985360, Note_on_c, 1, 45, 40
1, 5985480, Note_off_c, 1, 45, 0
1, 5985600, Note_on_c, 1, 45, 40
1, 5985840, Note_off_c, 1, 45, 0
1, 5985840, Note_on_c, 1, 45, 40
1, 5985960, Note_off_c, 1, 45, 0
1, 5986080, Note_on_c, 1, 45, 40
1, 5986200, Note_off_c, 1, 45, 0
1, 5986320, Note_on_c, 1, 45, 40
1, 5986440, Note_off_c, 1, 45, 0
1, 5986560, Note_on_c, 1, 45, 40
1, 5986680, Note_off_c, 1, 45, 0
1, 5986680, Note_on_c, 1, 33, 40
1, 5986800, Note_off_c, 1, 33, 0
1, 5986800, Note_on_c, 1, 40, 40
1, 5986920, Note_off_c, 1, 40, 0
1, 5986920, Note_on_c, 1, 28, 40
1, 5987040, Note_off_c, 1, 28, 0
1, 5987040, Note_on_c, 1, 40, 40
1, 5987160, Note_off_c, 1, 40, 0
1, 5987280, Note_on_c, 1, 40, 40
1, 5987400, Note_off_c, 1, 40, 0
1, 5987520, Note_on_c, 1, 40, 40
1, 5987640, Note_off_c, 1, 40, 0
1, 5987760, Note_on_c, 1, 36, 40
1, 5987880, Note_off_c, 1, 36, 0
1, 5988000, Note_on_c, 1, 36, 40
1, 5988240, Note_off_c, 1, 36, 0
1, 5988240, Note_on_c, 1, 36, 40
1, 5988360, Note_off_c, 1, 36, 0
1, 5988480, Note_on_c, 1, 43, 40
1, 5988600, Note_off_c, 1, 43, 0
1, 5988720, Note_on_c, 1, 45, 40
1, 5988840, Note_off_c, 1, 45, 0
1, 5988960, Note_on_c, 1, 45, 40
1, 5989200, Note_off_c, 1, 45, 0
1, 5989200, Note_on_c, 1, 45, 40
1, 5989320, Note_off_c, 1, 45, 0
1, 5989440, Note_on_c, 1, 45, 40
1, 5989560, Note_off_c, 1, 45, 0
1, 5989560, Note_on_c, 1, 33, 40
1, 5989680, Note_off_c, 1, 33, 0
1, 5989680, Note_on_c, 1, 35, 40
1, 5989800, Note_off_c, 1, 35, 0
1, 5989800, Note_on_c, 1, 23, 40
1, 5989920, Note_off_c, 1, 23, 0
1, 5989920, Note_on_c, 1, 35, 40
1, 5990040, Note_off_c, 1, 35, 0
1, 5990160, Note_on_c, 1, 35, 40
1, 5990280, Note_off_c, 1, 35, 0
1, 5990400, Note_on_c, 1, 35, 40
1, 5990520, Note_off_c, 1, 35, 0
1, 5990640, Note_on_c, 1, 40, 40
1, 5990760, Note_off_c, 1, 40, 0
1, 5990880, Note_on_c, 1, 40, 40
1, 5991000, Note_off_c, 1, 40, 0
1, 5991120, Note_on_c, 1, 40, 40
1, 5991240, Note_off_c, 1, 40, 0
1, 5991360, Note_on_c, 1, 40, 40
1, 5991600, Note_off_c, 1, 40, 0
1, 5991600, Note_on_c, 1, 40, 40
1, 5991720, Note_off_c, 1, 40, 0
1, 5991840, Note_on_c, 1, 40, 40
1, 5991960, Note_off_c, 1, 40, 0
1, 5992080, Note_on_c, 1, 40, 40
1, 5992200, Note_off_c, 1, 40, 0
1, 5992320, Note_on_c, 1, 40, 40
1, 5992440, Note_off_c, 1, 40, 0
1, 5992440, Note_on_c, 1, 28, 40
1, 5992560, Note_off_c, 1, 28, 0
1, 5992560, Note_on_c, 1, 36, 40
1, 5992680, Note_off_c, 1, 36, 0
1, 5992800, Note_on_c, 1, 36, 40
1, 5992920, Note_off_c, 1, 36, 0
1, 5993040, Note_on_c, 1, 36, 40
1, 5993160, Note_off_c, 1, 36, 0
1, 5993280, Note_on_c, 1, 36, 40
1, 5993520, Note_off_c, 1, 36, 0
1, 5993520, Note_on_c, 1, 36, 40
1, 5993640, Note_off_c, 1, 36, 0
1, 5993760, Note_on_c, 1, 36, 40
1, 5993880, Note_off_c, 1, 36, 0
1, 5994000, Note_on_c, 1, 36, 40
1, 5994120, Note_off_c, 1, 36, 0
1, 5994240, Note_on_c, 1, 36, 40
1, 5994360, Note_off_c, 1, 36, 0
1, 5994360, Note_on_c, 1, 24, 40
1, 5994480, Note_off_c, 1, 24, 0
1, 5994480, Note_on_c, 1, 41, 40
1, 5994600, Note_off_c, 1, 41, 0
1, 5994720, Note_on_c, 1, 41, 40
1, 5994960, Note_off_c, 1, 41, 0
1, 5994960, Note_on_c, 1, 41, 40
1, 5995080, Note_off_c, 1, 41, 0
1, 5995200, Note_on_c, 1, 43, 40
1, 5995320, Note_off_c, 1, 43, 0
1, 5995440, Note_on_c, 1, 43, 40
1, 5995560, Note_off_c, 1, 43, 0
1, 5995680, Note_on_c, 1, 43, 40
1, 5995920, Note_off_c, 1, 43, 0
1, 5995920, Note_on_c, 1, 43, 40
1, 5996040, Note_off_c, 1, 43, 0
1, 5996160, Note_on_c, 1, 43, 40
1, 5996280, Note_off_c, 1, 43, 0
1, 5996280, Note_on_c, 1, 31, 40
1, 5996400, Note_off_c, 1, 31, 0
1, 5996400, Note_on_c, 1, 36, 40
1, 5996520, Note_off_c, 1, 36, 0
1, 5996640, Note_on_c, 1, 36, 40
1, 5996760, Note_off_c, 1, 36, 0
1, 5996880, Note_on_c, 1, 36, 40
1, 5997000, Note_off_c, 1, 36, 0
1, 5997120, Note_on_c, 1, 36, 40
1, 5997240, Note_off_c, 1, 36, 0
1, 5997360, Note_on_c, 1, 36, 40
1, 5997480, Note_off_c, 1, 36, 0
1, 5997600, Note_on_c, 1, 36, 40
1, 5997720, Note_off_c, 1, 36, 0
1, 5997840, Note_on_c, 1, 36, 40
1, 5998080, Note_off_c, 1, 36, 0
1, 5998080, Note_on_c, 1, 40, 40
1, 5998200, Note_off_c, 1, 40, 0
1, 5998320, Note_on_c, 1, 41, 40
1, 5998440, Note_off_c, 1, 41, 0
1, 5998560, Note_on_c, 1, 41, 40
1, 5998800, Note_off_c, 1, 41, 0
1, 5998800, Note_on_c, 1, 41, 40
1, 5998920, Note_off_c, 1, 41, 0
1, 5999040, Note_on_c, 1, 43, 40
1, 5999160, Note_off_c, 1, 43, 0
1, 5999280, Note_on_c, 1, 43, 40
1, 5999400, Note_off_c, 1, 43, 0
1, 5999400, Note_on_c, 1, 31, 40
1, 5999520, Note_off_c, 1, 31, 0
1, 5999520, Note_on_c, 1, 43, 40
1, 5999640, Note_off_c, 1, 43, 0
1, 5999760, Note_on_c, 1, 43, 40
1, 5999880, Note_off_c, 1, 43, 0
1, 6000000, Note_on_c, 1, 43, 40
1, 6000120, Note_off_c, 1, 43, 0
1, 6000240, Note_on_c, 1, 36, 40
1, 6000360, Note_off_c, 1, 36, 0
1, 6000480, Note_on_c, 1, 36, 40
1, 6000600, Note_off_c, 1, 36, 0
1, 6000720, Note_on_c, 1, 36, 40
1, 6000840, Note_off_c, 1, 36, 0
1, 6000960, Note_on_c, 1, 36, 40
1, 6001080, Note_off_c, 1, 36, 0
1, 6001200, Note_on_c, 1, 36, 40
1, 6001320, Note_off_c, 1, 36, 0
1, 6001440, Note_on_c, 1, 36, 40
1, 6001560, Note_off_c, 1, 36, 0
1, 6001680, Note_on_c, 1, 36, 40
1, 6001800, Note_off_c, 1, 36, 0
1, 6001920, Note_on_c, 1, 36, 40
1, 6002160, Note_off_c, 1, 36, 0
1, 6002160, Note_on_c, 1, 41, 40
1, 6002280, Note_off_c, 1, 41, 0
1, 6002400, Note_on_c, 1, 41, 40
1, 6002640, Note_off_c, 1, 41, 0
1, 6002640, Note_on_c, 1, 41, 40
1, 6002760, Note_off_c, 1, 41, 0
1, 6002880, Note_on_c, 1, 43, 40
1, 6003000, Note_off_c, 1, 43, 0
1, 6003120, Note_on_c, 1, 43, 40
1, 6003240, Note_off_c, 1, 43, 0
1, 6003360, Note_on_c, 1, 43, 40
1, 6003600, Note_off_c, 1, 43, 0
1, 6003600, Note_on_c, 1, 43, 40
1, 6003720, Note_off_c, 1, 43, 0
1, 6003840, Note_on_c, 1, 43, 40
1, 6003960, Note_off_c, 1, 43, 0
1, 6004080, Note_on_c, 1, 45, 40
1, 6004200, Note_off_c, 1, 45, 0
1, 6004200, Note_on_c, 1, 33, 40
1, 6004320, Note_off_c, 1, 33, 0
1, 6004320, Note_on_c, 1, 45, 40
1, 6004440, Note_off_c, 1, 45, 0
1, 6004560, Note_on_c, 1, 45, 40
1, 6004680, Note_off_c, 1, 45, 0
1, 6004800, Note_on_c, 1, 45, 40
1, 6004920, Note_off_c, 1, 45, 0
1, 6005040, Note_on_c, 1, 35, 40
1, 6005160, Note_off_c, 1, 35, 0
1, 6005280, Note_on_c, 1, 35, 40
1, 6005520, Note_off_c, 1, 35, 0
1, 6005520, Note_on_c, 1, 35, 40
1, 6005640, Note_off_c, 1, 35, 0
1, 6005760, Note_on_c, 1, 35, 40
1, 6005880, Note_off_c, 1, 35, 0
1, 6005880, Note_on_c, 1, 23, 40
1, 6006000, Note_off_c, 1, 23, 0
1, 6006000, Note_on_c, 1, 40, 40
1, 6006120, Note_off_c, 1, 40, 0
1, 6006240, Note_on_c, 1, 40, 40
1, 6006360, Note_off_c, 1, 40, 0
1, 6006480, Note_on_c, 1, 40, 40
1, 6006600, Note_off_c, 1, 40, 0
1, 6006720, Note_on_c, 1, 40, 40
1, 6006960, Note_off_c, 1, 40, 0
1, 6006960, Note_on_c, 1, 40, 40
1, 6007080, Note_off_c, 1, 40, 0
1, 6007200, Note_on_c, 1, 40, 40
1, 6007320, Note_off_c, 1, 40, 0
1, 6007440, Note_on_c, 1, 40, 40
1, 6007560, Note_off_c, 1, 40, 0
1, 6007680, Note_on_c, 1, 40, 40
1, 6007800, Note_off_c, 1, 40, 0
1, 6007800, Note_on_c, 1, 28, 40
1, 6007920, Note_off_c, 1, 28, 0
1, 6007920, Note_on_c, 1, 40, 40
1, 6008040, Note_off_c, 1, 40, 0
1, 6008160, Note_on_c, 1, 40, 40
1, 6008400, Note_off_c, 1, 40, 0
1, 6008400, Note_on_c, 1, 40, 40
1, 6008520, Note_off_c, 1, 40, 0
1, 6008640, Note_on_c, 1, 41, 40
1, 6008760, Note_off_c, 1, 41, 0
1, 6008880, Note_on_c, 1, 43, 40
1, 6009000, Note_off_c, 1, 43, 0
1, 6009120, Note_on_c, 1, 43, 40
1, 6009360, Note_off_c, 1, 43, 0
1, 6009360, Note_on_c, 1, 43, 40
1, 6009480, Note_off_c, 1, 43, 0
1, 6009600, Note_on_c, 1, 40, 40
1, 6009720, Note_off_c, 1, 40, 0
1, 6009840, Note_on_c, 1, 41, 40
1, 6009960, Note_off_c, 1, 41, 0
1, 6009960, Note_on_c, 1, 29, 40
1, 6010080, Note_off_c, 1, 29, 0
1, 6010080, Note_on_c, 1, 41, 40
1, 6010200, Note_off_c, 1, 41, 0
1, 6010320, Note_on_c, 1, 41, 40
1, 6010440, Note_off_c, 1, 41, 0
1, 6010560, Note_on_c, 1, 41, 40
1, 6010680, Note_off_c, 1, 41, 0
1, 6010800, Note_on_c, 1, 35, 40
1, 6010920, Note_off_c, 1, 35, 0
1, 6011040, Note_on_c, 1, 35, 40
1, 6011280, Note_off_c, 1, 35, 0
1, 6011280, Note_on_c, 1, 35, 40
1, 6011400, Note_off_c, 1, 35, 0
1, 6011520, Note_on_c, 1, 35, 40
1, 6011640, Note_off_c, 1, 35, 0
1, 6011640, Note_on_c, 1, 23, 40
1, 6011760, Note_off_c, 1, 23, 0
1, 6011760, Note_on_c, 1, 40, 40
1, 6011880, Note_off_c, 1, 40, 0
1, 6012000, Note_on_c, 1, 40, 40
1, 6012240, Note_off_c, 1, 40, 0
1, 6012240, Note_on_c, 1, 40, 40
1, 6012360, Note_off_c, 1, 40, 0
1, 6012480, Note_on_c, 1, 41, 40
1, 6012600, Note_off_c, 1, 41, 0
1, 6012720, Note_on_c, 1, 43, 40
1, 6012840, Note_off_c, 1, 43, 0
1, 6012960, Note_on_c, 1, 43, 40
1, 6013200, Note_off_c, 1, 43, 0
1, 6013200, Note_on_c, 1, 43, 40
1, 6013320, Note_off_c, 1, 43, 0
1, 6013440, Note_on_c, 1, 43, 40
1, 6013560, Note_off_c, 1, 43, 0
1, 6013560, Note_on_c, 1, 31, 40
1, 6013680, Note_off_c, 1, 31, 0
1, 6013680, Note_on_c, 1, 41, 40
1, 6013800, Note_off_c, 1, 41, 0
1, 6013920, Note_on_c, 1, 41, 40
1, 6014160, Note_off_c, 1, 41, 0
1, 6014160, Note_on_c, 1, 41, 40
1, 6014280, Note_off_c, 1, 41, 0
1, 6014400, Note_on_c, 1, 33, 40
1, 6014520, Note_off_c, 1, 33, 0
1, 6014640, Note_on_c, 1, 35, 40
1, 6014760, Note_off_c, 1, 35, 0
1, 6014880, Note_on_c, 1, 35, 40
1, 6015120, Note_off_c, 1, 35, 0
1, 6015120, Note_on_c, 1, 35, 40
1, 6015240, Note_off_c, 1, 35, 0
1, 6015360, Note_on_c, 1, 43, 40
1, 6015480, Note_off_c, 1, 43, 0
1, 6015600, Note_on_c, 1, 45, 40
1, 6015720, Note_off_c, 1, 45, 0
1, 6015840, Note_on_c, 1, 45, 40
1, 6015960, Note_off_c, 1, 45, 0
1, 6016080, Note_on_c, 1, 45, 40
1, 6016200, Note_off_c, 1, 45, 0
1, 6016320, Note_on_c, 1, 45, 40
1, 6016440, Note_off_c, 1, 45, 0
1, 6016440, Note_on_c, 1, 33, 40
1, 6016560, Note_off_c, 1, 33, 0
1, 6016560, Note_on_c, 1, 45, 40
1, 6016680, Note_off_c, 1, 45, 0
1, 6016800, Note_on_c, 1, 45, 40
1, 6016920, Note_off_c, 1, 45, 0
1, 6017040, Note_on_c, 1, 45, 40
1, 6017280, Note_off_c, 1, 45, 0
1, 6017280, Note_on_c, 1, 38, 40
1, 6017400, Note_off_c, 1, 38, 0
1, 6017520, Note_on_c, 1, 40, 40
1, 6017640, Note_off_c, 1, 40, 0
1, 6017760, Note_on_c, 1, 40, 40
1, 6018000, Note_off_c, 1, 40, 0
1, 6018000, Note_on_c, 1, 40, 40
1, 6018120, Note_off_c, 1, 40, 0
1, 6018240, Note_on_c, 1, 36, 40
1, 6018360, Note_off_c, 1, 36, 0
1, 6018480, Note_on_c, 1, 36, 40
1, 6018600, Note_off_c, 1, 36, 0
1, 6018720, Note_on_c, 1, 36, 40
1, 6018960, Note_off_c, 1, 36, 0
1, 6018960, Note_on_c, 1, 36, 40
1, 6019080, Note_off_c, 1, 36, 0
1, 6019200, Note_on_c, 1, 43, 40
1, 6019320, Note_off_c, 1, 43, 0
1, 6019440, Note_on_c, 1, 45, 40
1, 6019560, Note_off_c, 1, 45, 0
1, 6019560, Note_on_c, 1, 33, 40
1, 6019680, Note_off_c, 1, 33, 0
1, 6019680, Note_on_c, 1, 45, 40
1, 6019800, Note_off_c, 1, 45, 0
1, 6019920, Note_on_c, 1, 45, 40
1, 6020040, Note_off_c, 1, 45, 0
1, 6020160, Note_on_c, 1, 45, 40
1, 6020280, Note_off_c, 1, 45, 0
1, 6020400, Note_on_c, 1, 35, 40
1, 6020520, Note_off_c, 1, 35, 0
1, 6020640, Note_on_c, 1, 35, 40
1, 6020880, Note_off_c, 1, 35, 0
1, 6020880, Note_on_c, 1, 35, 40
1, 6021000, Note_off_c, 1, 35, 0
1, 6021120, Note_on_c, 1, 35, 40
1, 6021240, Note_off_c, 1, 35, 0
1, 6021240, Note_on_c, 1, 23, 40
1, 6021360, Note_off_c, 1, 23, 0
1, 6021360, Note_on_c, 1, 40, 40
1, 6021480, Note_off_c, 1, 40, 0
1, 6021600, Note_on_c, 1, 40, 40
1, 6021720, Note_off_c, 1, 40, 0
1, 6021840, Note_on_c, 1, 40, 40
1, 6021960, Note_off_c, 1, 40, 0
1, 6022080, Note_on_c, 1, 40, 40
1, 6022200, Note_off_c, 1, 40, 0
1, 6022320, Note_on_c, 1, 40, 40
1, 6022440, Note_off_c, 1, 40, 0
1, 6022560, Note_on_c, 1, 40, 40
1, 6022680, Note_off_c, 1, 40, 0
1, 6022680, Note_on_c, 1, 28, 40
1, 6022800, Note_off_c, 1, 28, 0
1, 6022800, Note_on_c, 1, 40, 40
1, 6022920, Note_off_c, 1, 40, 0
1, 6022920, Note_on_c, 1, 28, 40
1, 6023040, Note_off_c, 1, 28, 0
1, 6023040, Note_on_c, 1, 40, 40
1, 6023160, Note_off_c, 1, 40, 0
1, 6023160, Note_on_c, 1, 40, 40
1, 6023280, Note_off_c, 1, 40, 0
1, 6023280, Note_on_c, 1, 36, 40
1, 6023400, Note_off_c, 1, 36, 0
1, 6023520, Note_on_c, 1, 36, 40
1, 6023640, Note_off_c, 1, 36, 0
1, 6023760, Note_on_c, 1, 36, 40
1, 6023880, Note_off_c, 1, 36, 0
1, 6024000, Note_on_c, 1, 36, 40
1, 6024240, Note_off_c, 1, 36, 0
1, 6024240, Note_on_c, 1, 36, 40
1, 6024360, Note_off_c, 1, 36, 0
1, 6024480, Note_on_c, 1, 36, 40
1, 6024600, Note_off_c, 1, 36, 0
1, 6024720, Note_on_c, 1, 36, 40
1, 6024840, Note_off_c, 1, 36, 0
1, 6024960, Note_on_c, 1, 36, 40
1, 6025080, Note_off_c, 1, 36, 0
1, 6025200, Note_on_c, 1, 41, 40
1, 6025320, Note_off_c, 1, 41, 0
1, 6025440, Note_on_c, 1, 41, 40
1, 6025680, Note_off_c, 1, 41, 0
1, 6025680, Note_on_c, 1, 41, 40
1, 6025800, Note_off_c, 1, 41, 0
1, 6025920, Note_on_c, 1, 43, 40
1, 6026040, Note_off_c, 1, 43, 0
1, 6026160, Note_on_c, 1, 43, 40
1, 6026280, Note_off_c, 1, 43, 0
1, 6026400, Note_on_c, 1, 43, 40
1, 6026640, Note_off_c, 1, 43, 0
1, 6026640, Note_on_c, 1, 43, 40
1, 6026760, Note_off_c, 1, 43, 0
1, 6026880, Note_on_c, 1, 43, 40
1, 6027000, Note_off_c, 1, 43, 0
1, 6027000, Note_on_c, 1, 31, 40
1, 6027120, Note_off_c, 1, 31, 0
1, 6027120, Note_on_c, 1, 36, 40
1, 6027240, Note_off_c, 1, 36, 0
1, 6027360, Note_on_c, 1, 36, 40
1, 6027480, Note_off_c, 1, 36, 0
1, 6027600, Note_on_c, 1, 36, 40
1, 6027720, Note_off_c, 1, 36, 0
1, 6027840, Note_on_c, 1, 36, 40
1, 6027960, Note_off_c, 1, 36, 0
1, 6028080, Note_on_c, 1, 36, 40
1, 6028200, Note_off_c, 1, 36, 0
1, 6028320, Note_on_c, 1, 36, 40
1, 6028440, Note_off_c, 1, 36, 0
1, 6028560, Note_on_c, 1, 36, 40
1, 6028680, Note_off_c, 1, 36, 0
1, 6028800, Note_on_c, 1, 36, 40
1, 6029040, Note_off_c, 1, 36, 0
1, 6029040, Note_on_c, 1, 41, 40
1, 6029160, Note_off_c, 1, 41, 0
1, 6029280, Note_on_c, 1, 41, 40
1, 6029520, Note_off_c, 1, 41, 0
1, 6029520, Note_on_c, 1, 41, 40
1, 6029640, Note_off_c, 1, 41, 0
1, 6029760, Note_on_c, 1, 41, 40
1, 6029880, Note_off_c, 1, 41, 0
1, 6029880, Note_on_c, 1, 29, 40
1, 6030000, Note_off_c, 1, 29, 0
1, 6030000, Note_on_c, 1, 43, 40
1, 6030120, Note_off_c, 1, 43, 0
1, 6030120, Note_on_c, 1, 31, 40
1, 6030240, Note_off_c, 1, 31, 0
1, 6030240, Note_on_c, 1, 43, 40
1, 6030360, Note_off_c, 1, 43, 0
1, 6030480, Note_on_c, 1, 43, 40
1, 6030600, Note_off_c, 1, 43, 0
1, 6030720, Note_on_c, 1, 43, 40
1, 6030840, Note_off_c, 1, 43, 0
1, 6030960, Note_on_c, 1, 36, 40
1, 6031080, Note_off_c, 1, 36, 0
1, 6031200, Note_on_c, 1, 36, 40
1, 6031320, Note_off_c, 1, 36, 0
1, 6031440, Note_on_c, 1, 36, 40
1, 6031560, Note_off_c, 1, 36, 0
1, 6031680, Note_on_c, 1, 36, 40
1, 6031920, Note_off_c, 1, 36, 0
1, 6031920, Note_on_c, 1, 36, 40
1, 6032040, Note_off_c, 1, 36, 0
1, 6032160, Note_on_c, 1, 36, 40
1, 6032280, Note_off_c, 1, 36, 0
1, 6032400, Note_on_c, 1, 36, 40
1, 6032520, Note_off_c, 1, 36, 0
1, 6032640, Note_on_c, 1, 36, 40
1, 6032760, Note_off_c, 1, 36, 0
1, 6032880, Note_on_c, 1, 41, 40
1, 6033000, Note_off_c, 1, 41, 0
1, 6033120, Note_on_c, 1, 41, 40
1, 6033360, Note_off_c, 1, 41, 0
1, 6033360, Note_on_c, 1, 41, 40
1, 6033480, Note_off_c, 1, 41, 0
1, 6033600, Note_on_c, 1, 41, 40
1, 6033720, Note_off_c, 1, 41, 0
1, 6033720, Note_on_c, 1, 29, 40
1, 6033840, Note_off_c, 1, 29, 0
1, 6033840, Note_on_c, 1, 43, 40
1, 6033960, Note_off_c, 1, 43, 0
1, 6033960, Note_on_c, 1, 31, 40
1, 6034080, Note_off_c, 1, 31, 0
1, 6034080, Note_on_c, 1, 43, 40
1, 6034200, Note_off_c, 1, 43, 0
1, 6034320, Note_on_c, 1, 43, 40
1, 6034440, Note_off_c, 1, 43, 0
1, 6034560, Note_on_c, 1, 43, 40
1, 6034680, Note_off_c, 1, 43, 0
1, 6034800, Note_on_c, 1, 45, 40
1, 6034920, Note_off_c, 1, 45, 0
1, 6035040, Note_on_c, 1, 45, 40
1, 6035280, Note_off_c, 1, 45, 0
1, 6035280, Note_on_c, 1, 45, 40
1, 6035400, Note_off_c, 1, 45, 0
1, 6035520, Note_on_c, 1, 45, 40
1, 6035640, Note_off_c, 1, 45, 0
1, 6035640, Note_on_c, 1, 33, 40
1, 6035760, Note_off_c, 1, 33, 0
1, 6035760, Note_on_c, 1, 35, 40
1, 6035880, Note_off_c, 1, 35, 0
1, 6036000, Note_on_c, 1, 35, 40
1, 6036240, Note_off_c, 1, 35, 0
1, 6036240, Note_on_c, 1, 35, 40
1, 6036360, Note_off_c, 1, 35, 0
1, 6036480, Note_on_c, 1, 35, 40
1, 6036600, Note_off_c, 1, 35, 0
1, 6036600, Note_on_c, 1, 23, 40
1, 6036720, Note_off_c, 1, 23, 0
1, 6036720, Note_on_c, 1, 40, 40
1, 6036840, Note_off_c, 1, 40, 0
1, 6036960, Note_on_c, 1, 40, 40
1, 6037080, Note_off_c, 1, 40, 0
1, 6037200, Note_on_c, 1, 40, 40
1, 6037320, Note_off_c, 1, 40, 0
1, 6037440, Note_on_c, 1, 40, 40
1, 6037560, Note_off_c, 1, 40, 0
1, 6037560, Note_on_c, 1, 28, 40
1, 6037680, Note_off_c, 1, 28, 0
1, 6037680, Note_on_c, 1, 40, 40
1, 6037800, Note_off_c, 1, 40, 0
1, 6037920, Note_on_c, 1, 40, 40
1, 6038040, Note_off_c, 1, 40, 0
1, 6038160, Note_on_c, 1, 40, 40
1, 6038400, Note_off_c, 1, 40, 0
1, 6038400, Note_on_c, 1, 38, 40
1, 6038520, Note_off_c, 1, 38, 0
1, 6038640, Note_on_c, 1, 40, 40
1, 6038760, Note_off_c, 1, 40, 0
1, 6038760, Note_on_c, 1, 28, 40
1, 6038880, Note_off_c, 1, 28, 0
1, 6038880, Note_on_c, 1, 40, 40
1, 6039000, Note_off_c, 1, 40, 0
1, 6039120, Note_on_c, 1, 40, 40
1, 6039240, Note_off_c, 1, 40, 0
1, 6039360, Note_on_c, 1, 40, 40
1, 6039480, Note_off_c, 1, 40, 0
1, 6039600, Note_on_c, 1, 43, 40
1, 6039720, Note_off_c, 1, 43, 0
1, 6039720, Note_on_c, 1, 31, 40
1, 6039840, Note_off_c, 1, 31, 0
1, 6039840, Note_on_c, 1, 43, 40
1, 6039960, Note_off_c, 1, 43, 0
1, 6040080, Note_on_c, 1, 43, 40
1, 6040200, Note_off_c, 1, 43, 0
1, 6040320, Note_on_c, 1, 43, 40
1, 6040440, Note_off_c, 1, 43, 0
1, 6040560, Note_on_c, 1, 41, 40
1, 6040680, Note_off_c, 1, 41, 0
1, 6040800, Note_on_c, 1, 41, 40
1, 6041040, Note_off_c, 1, 41, 0
1, 6041040, Note_on_c, 1, 41, 40
1, 6041160, Note_off_c, 1, 41, 0
1, 6041280, Note_on_c, 1, 41, 40
1, 6041400, Note_off_c, 1, 41, 0
1, 6041400, Note_on_c, 1, 29, 40
1, 6041520, Note_off_c, 1, 29, 0
1, 6041520, Note_on_c, 1, 35, 40
1, 6041640, Note_off_c, 1, 35, 0
1, 6041640, Note_on_c, 1, 23, 40
1, 6041760, Note_off_c, 1, 23, 0
1, 6041760, Note_on_c, 1, 35, 40
1, 6041880, Note_off_c, 1, 35, 0
1, 6042000, Note_on_c, 1, 35, 40
1, 6042120, Note_off_c, 1, 35, 0
1, 6042240, Note_on_c, 1, 35, 40
1, 6042360, Note_off_c, 1, 35, 0
1, 6042480, Note_on_c, 1, 40, 40
1, 6042600, Note_off_c, 1, 40, 0
1, 6042720, Note_on_c, 1, 40, 40
1, 6042960, Note_off_c, 1, 40, 0
1, 6042960, Note_on_c, 1, 40, 40
1, 6043080, Note_off_c, 1, 40, 0
1, 6043200, Note_on_c, 1, 40, 40
1, 6043320, Note_off_c, 1, 40, 0
1, 6043320, Note_on_c, 1, 28, 40
1, 6043440, Note_off_c, 1, 28, 0
1, 6043440, Note_on_c, 1, 43, 40
1, 6043560, Note_off_c, 1, 43, 0
1, 6043680, Note_on_c, 1, 43, 40
1, 6043920, Note_off_c, 1, 43, 0
1, 6043920, Note_on_c, 1, 43, 40
1, 6044040, Note_off_c, 1, 43, 0
1, 6044160, Note_on_c, 1, 43, 40
1, 6044280, Note_off_c, 1, 43, 0
1, 6044280, Note_on_c, 1, 31, 40
1, 6044400, Note_off_c, 1, 31, 0
1, 6044400, Note_on_c, 1, 41, 40
1, 6044520, Note_off_c, 1, 41, 0
1, 6044640, Note_on_c, 1, 41, 40
1, 6044880, Note_off_c, 1, 41, 0
1, 6044880, Note_on_c, 1, 41, 40
1, 6045000, Note_off_c, 1, 41, 0
1, 6045120, Note_on_c, 1, 41, 40
1, 6045240, Note_off_c, 1, 41, 0
1, 6045240, Note_on_c, 1, 29, 40
1, 6045360, Note_off_c, 1, 29, 0
1, 6045360, Note_on_c, 1, 35, 40
1, 6045480, Note_off_c, 1, 35, 0
1, 6045600, Note_on_c, 1, 35, 40
1, 6045840, Note_off_c, 1, 35, 0
1, 6045840, Note_on_c, 1, 35, 40
1, 6045960, Note_off_c, 1, 35, 0
1, 6046080, Note_on_c, 1, 43, 40
1, 6046200, Note_off_c, 1, 43, 0
1, 6046320, Note_on_c, 1, 45, 40
1, 6046440, Note_off_c, 1, 45, 0
1, 6046560, Note_on_c, 1, 45, 40
1, 6046680, Note_off_c, 1, 45, 0
1, 6046800, Note_on_c, 1, 45, 40
1, 6046920, Note_off_c, 1, 45, 0
1, 6047040, Note_on_c, 1, 45, 40
1, 6047160, Note_off_c, 1, 45, 0
1, 6047280, Note_on_c, 1, 45, 40
1, 6047400, Note_off_c, 1, 45, 0
1, 6047520, Note_on_c, 1, 45, 40
1, 6047640, Note_off_c, 1, 45, 0
1, 6047760, Note_on_c, 1, 45, 40
1, 6047880, Note_off_c, 1, 45, 0
1, 6048000, Note_on_c, 1, 45, 40
1, 6048240, Note_off_c, 1, 45, 0
1, 6048240, Note_on_c, 1, 40, 40
1, 6048360, Note_off_c, 1, 40, 0
1, 6048480, Note_on_c, 1, 40, 40
1, 6048720, Note_off_c, 1, 40, 0
1, 6048720, Note_on_c, 1, 40, 40
1, 6048840, Note_off_c, 1, 40, 0
1, 6048960, Note_on_c, 1, 36, 40
1, 6049080, Note_off_c, 1, 36, 0
1, 6049200, Note_on_c, 1, 36, 40
1, 6049320, Note_off_c, 1, 36, 0
1, 6049320, Note_on_c, 1, 24, 40
1, 6049440, Note_off_c, 1, 24, 0
1, 6049440, Note_on_c, 1, 36, 40
1, 6049560, Note_off_c, 1, 36, 0
1, 6049680, Note_on_c, 1, 36, 40
1, 6049800, Note_off_c, 1, 36, 0
1, 6049920, Note_on_c, 1, 36, 40
1, 6050040, Note_off_c, 1, 36, 0
1, 6050160, Note_on_c, 1, 45, 40
1, 6050280, Note_off_c, 1, 45, 0
1, 6050400, Note_on_c, 1, 45, 40
1, 6050640, Note_off_c, 1, 45, 0
1, 6050640, Note_on_c, 1, 45, 40
1, 6050760, Note_off_c, 1, 45, 0
1, 6050880, Note_on_c, 1, 33, 40
1, 6051000, Note_off_c, 1, 33, 0
1, 6051120, Note_on_c, 1, 35, 40
1, 6051240, Note_off_c, 1, 35, 0
1, 6051360, Note_on_c, 1, 35, 40
1, 6051600, Note_off_c, 1, 35, 0
1, 6051600, Note_on_c, 1, 35, 40
1, 6051720, Note_off_c, 1, 35, 0
1, 6051840, Note_on_c, 1, 35, 40
1, 6051960, Note_off_c, 1, 35, 0
1, 6051960, Note_on_c, 1, 23, 40
1, 6052080, Note_off_c, 1, 23, 0
1, 6052080, Note_on_c, 1, 36, 40
1, 6052200, Note_off_c, 1, 36, 0
1, 6052320, Note_on_c, 1, 36, 40
1, 6052440, Note_off_c, 1, 36, 0
1, 6052560, Note_on_c, 1, 36, 40
1, 6052680, Note_off_c, 1, 36, 0
1, 6052800, Note_on_c, 1, 36, 40
1, 6052920, Note_off_c, 1, 36, 0
1, 6053040, Note_on_c, 1, 36, 40
1, 6053160, Note_off_c, 1, 36, 0
1, 6053280, Note_on_c, 1, 36, 40
1, 6053400, Note_off_c, 1, 36, 0
1, 6053520, Note_on_c, 1, 36, 40
1, 6053760, Note_off_c, 1, 36, 0
1, 6053760, Note_on_c, 1, 40, 40
1, 6053880, Note_off_c, 1, 40, 0
1, 6054000, Note_on_c, 1, 41, 40
1, 6054120, Note_off_c, 1, 41, 0
1, 6054240, Note_on_c, 1, 41, 40
1, 6054480, Note_off_c, 1, 41, 0
1, 6054480, Note_on_c, 1, 41, 40
1, 6054600, Note_off_c, 1, 41, 0
1, 6054720, Note_on_c, 1, 41, 40
1, 6054840, Note_off_c, 1, 41, 0
1, 6054840, Note_on_c, 1, 29, 40
1, 6054960, Note_off_c, 1, 29, 0
1, 6054960, Note_on_c, 1, 43, 40
1, 6055080, Note_off_c, 1, 43, 0
1, 6055200, Note_on_c, 1, 43, 40
1, 6055440, Note_off_c, 1, 43, 0
1, 6055440, Note_on_c, 1, 43, 40
1, 6055560, Note_off_c, 1, 43, 0
1, 6055680, Note_on_c, 1, 43, 40
1, 6055800, Note_off_c, 1, 43, 0
1, 6055920, Note_on_c, 1, 45, 40
1, 6056040, Note_off_c, 1, 45, 0
1, 6056160, Note_on_c, 1, 45, 40
1, 6056400, Note_off_c, 1, 45, 0
1, 6056400, Note_on_c, 1, 45, 40
1, 6056520, Note_off_c, 1, 45, 0
1, 6056640, Note_on_c, 1, 45, 40
1, 6056760, Note_off_c, 1, 45, 0
1, 6056760, Note_on_c, 1, 33, 40
1, 6056880, Note_off_c, 1, 33, 0
1, 6056880, Note_on_c, 1, 35, 40
1, 6057000, Note_off_c, 1, 35, 0
1, 6057000, Note_on_c, 1, 23, 40
1, 6057120, Note_off_c, 1, 23, 0
1, 6057120, Note_on_c, 1, 35, 40
1, 6057240, Note_off_c, 1, 35, 0
1, 6057360, Note_on_c, 1, 35, 40
1, 6057480, Note_off_c, 1, 35, 0
1, 6057600, Note_on_c, 1, 35, 40
1, 6057720, Note_off_c, 1, 35, 0
1, 6057840, Note_on_c, 1, 36, 40
1, 6057960, Note_off_c, 1, 36, 0
1, 6058080, Note_on_c, 1, 36, 40
1, 6058200, Note_off_c, 1, 36, 0
1, 6058320, Note_on_c, 1, 36, 40
1, 6058440, Note_off_c, 1, 36, 0
1, 6058560, Note_on_c, 1, 36, 40
1, 6058800, Note_off_c, 1, 36, 0
1, 6058800, Note_on_c, 1, 36, 40
1, 6058920, Note_off_c, 1, 36, 0
1, 6059040, Note_on_c, 1, 36, 40
1, 6059160, Note_off_c, 1, 36, 0
1, 6059280, Note_on_c, 1, 36, 40
1, 6059400, Note_off_c, 1, 36, 0
1, 6059520, Note_on_c, 1, 36, 40
1, 6059640, Note_off_c, 1, 36, 0
1, 6059760, Note_on_c, 1, 41, 40
1, 6059880, Note_off_c, 1, 41, 0
1, 6060000, Note_on_c, 1, 41, 40
1, 6060240, Note_off_c, 1, 41, 0
1, 6060240, Note_on_c, 1, 41, 40
1, 6060360, Note_off_c, 1, 41, 0
1, 6060480, Note_on_c, 1, 41, 40
1, 6060600, Note_off_c, 1, 41, 0
1, 6060600, Note_on_c, 1, 29, 40
1, 6060720, Note_off_c, 1, 29, 0
1, 6060720, Note_on_c, 1, 43, 40
1, 6060840, Note_off_c, 1, 43, 0
1, 6060960, Note_on_c, 1, 43, 40
1, 6061200, Note_off_c, 1, 43, 0
1, 6061200, Note_on_c, 1, 43, 40
1, 6061320, Note_off_c, 1, 43, 0
1, 6061440, Note_on_c, 1, 43, 40
1, 6061560, Note_off_c, 1, 43, 0
1, 6061560, Note_on_c, 1, 31, 40
1, 6061680, Note_off_c, 1, 31, 0
1, 6061680, Note_on_c, 1, 45, 40
1, 6061800, Note_off_c, 1, 45, 0
1, 6061800, Note_on_c, 1, 33, 40
1, 6061920, Note_off_c, 1, 33, 0
1, 6061920, Note_on_c, 1, 45, 40
1, 6062040, Note_off_c, 1, 45, 0
1, 6062160, Note_on_c, 1, 45, 40
1, 6062280, Note_off_c, 1, 45, 0
1, 6062400, Note_on_c, 1, 45, 40
1, 6062520, Note_off_c, 1, 45, 0
1, 6062640, Note_on_c, 1, 35, 40
1, 6062760, Note_off_c, 1, 35, 0
1, 6062760, Note_on_c, 1, 23, 40
1, 6062880, Note_off_c, 1, 23, 0
1, 6062880, Note_on_c, 1, 35, 40
1, 6063000, Note_off_c, 1, 35, 0
1, 6063120, Note_on_c, 1, 35, 40
1, 6063240, Note_off_c, 1, 35, 0
1, 6063360, Note_on_c, 1, 35, 40
1, 6063480, Note_off_c, 1, 35, 0
1, 6063600, Note_on_c, 1, 40, 40
1, 6063720, Note_off_c, 1, 40, 0
1, 6063840, Note_on_c, 1, 40, 40
1, 6063960, Note_off_c, 1, 40, 0
1, 6064080, Note_on_c, 1, 40, 40
1, 6064200, Note_off_c, 1, 40, 0
1, 6064320, Note_on_c, 1, 40, 40
1, 6064440, Note_off_c, 1, 40, 0
1, 6064560, Note_on_c, 1, 40, 40
1, 6064680, Note_off_c, 1, 40, 0
1, 6064800, Note_on_c, 1, 40, 40
1, 6064920, Note_off_c, 1, 40, 0
1, 6065040, Note_on_c, 1, 40, 40
1, 6065280, Note_off_c, 1, 40, 0
1, 6065280, Note_on_c, 1, 36, 40
1, 6065400, Note_off_c, 1, 36, 0
1, 6069840, Note_on_c, 1, 45, 40
1, 6070800, Note_off_c, 1, 45, 0
1, 6070800, Note_on_c, 1, 44, 40
1, 6071760, Note_off_c, 1, 44, 0
1, 6071760, Note_on_c, 1, 38, 40
1, 6072720, Note_off_c, 1, 38, 0
1, 6072720, Note_on_c, 1, 40, 40
1, 6073200, Note_off_c, 1, 40, 0
1, 6073200, Note_on_c, 1, 42, 40
1, 6073440, Note_off_c, 1, 42, 0
1, 6073440, Note_on_c, 1, 44, 40
1, 6073680, Note_off_c, 1, 44, 0
1, 6073680, Note_on_c, 1, 45, 40
1, 6074640, Note_off_c, 1, 45, 0
1, 6074640, Note_on_c, 1, 42, 40
1, 6075600, Note_off_c, 1, 42, 0
1, 6075600, Note_on_c, 1, 38, 40
1, 6076560, Note_off_c, 1, 38, 0
1, 6076560, Note_on_c, 1, 40, 40
1, 6077040, Note_off_c, 1, 40, 0
1, 6077040, Note_on_c, 1, 42, 40
1, 6077280, Note_off_c, 1, 42, 0
1, 6077280, Note_on_c, 1, 44, 40
1, 6077520, Note_off_c, 1, 44, 0
1, 6077520, Note_on_c, 1, 45, 40
1, 6078480, Note_off_c, 1, 45, 0
1, 6078480, Note_on_c, 1, 40, 40
1, 6079440, Note_off_c, 1, 40, 0
1, 6079440, Note_on_c, 1, 42, 40
1, 6080400, Note_off_c, 1, 42, 0
1, 6080400, Note_on_c, 1, 38, 40
1, 6080640, Note_off_c, 1, 38, 0
1, 6080640, Note_on_c, 1, 38, 40
1, 6080880, Note_off_c, 1, 38, 0
1, 6080880, Note_on_c, 1, 38, 40
1, 6081120, Note_off_c, 1, 38, 0
1, 6081120, Note_on_c, 1, 38, 40
1, 6081360, Note_off_c, 1, 38, 0
1, 6081360, Note_on_c, 1, 38, 40
1, 6081600, Note_off_c, 1, 38, 0
1, 6081600, Note_on_c, 1, 41, 40
1, 6081840, Note_off_c, 1, 41, 0
1, 6081840, Note_on_c, 1, 40, 40
1, 6082080, Note_off_c, 1, 40, 0
1, 6082080, Note_on_c, 1, 38, 40
1, 6082320, Note_off_c, 1, 38, 0
1, 6082320, Note_on_c, 1, 45, 40
1, 6083280, Note_off_c, 1, 45, 0
1, 6083280, Note_on_c, 1, 44, 40
1, 6084240, Note_off_c, 1, 44, 0
1, 6084240, Note_on_c, 1, 38, 40
1, 6085200, Note_off_c, 1, 38, 0
1, 6085200, Note_on_c, 1, 40, 40
1, 6085440, Note_off_c, 1, 40, 0
1, 6085440, Note_on_c, 1, 42, 40
1, 6085680, Note_off_c, 1, 42, 0
1, 6085680, Note_on_c, 1, 44, 40
1, 6085920, Note_off_c, 1, 44, 0
1, 6085920, Note_on_c, 1, 40, 40
1, 6086160, Note_off_c, 1, 40, 0
1, 6086160, Note_on_c, 1, 45, 40
1, 6087120, Note_off_c, 1, 45, 0
1, 6087120, Note_on_c, 1, 42, 40
1, 6087840, Note_off_c, 1, 42, 0
1, 6087840, Note_on_c, 1, 40, 40
1, 6088080, Note_off_c, 1, 40, 0
1, 6088080, Note_on_c, 1, 38, 40
1, 6089040, Note_off_c, 1, 38, 0
1, 6089040, Note_on_c, 1, 40, 40
1, 6089520, Note_off_c, 1, 40, 0
1, 6089520, Note_on_c, 1, 42, 40
1, 6089760, Note_off_c, 1, 42, 0
1, 6089760, Note_on_c, 1, 44, 40
1, 6090000, Note_off_c, 1, 44, 0
1, 6090000, Note_on_c, 1, 45, 40
1, 6090480, Note_off_c, 1, 45, 0
1, 6090480, Note_on_c, 1, 37, 40
1, 6090720, Note_off_c, 1, 37, 0
1, 6090720, Note_on_c, 1, 38, 40
1, 6090960, Note_off_c, 1, 38, 0
1, 6090960, Note_on_c, 1, 40, 40
1, 6091200, Note_off_c, 1, 40, 0
1, 6091200, Note_on_c, 1, 40, 40
1, 6091440, Note_off_c, 1, 40, 0
1, 6091440, Note_on_c, 1, 42, 40
1, 6091680, Note_off_c, 1, 42, 0
1, 6091680, Note_on_c, 1, 40, 40
1, 6091920, Note_off_c, 1, 40, 0
1, 6091920, Note_on_c, 1, 42, 40
1, 6092400, Note_off_c, 1, 42, 0
1, 6092400, Note_on_c, 1, 42, 40
1, 6092880, Note_off_c, 1, 42, 0
1, 6092880, Note_on_c, 1, 38, 40
1, 6093360, Note_off_c, 1, 38, 0
1, 6093600, Note_on_c, 1, 38, 40
1, 6093840, Note_off_c, 1, 38, 0
1, 6093840, Note_on_c, 1, 50, 40
1, 6093960, Note_off_c, 1, 50, 0
1, 6093960, Note_on_c, 1, 47, 40
1, 6094080, Note_off_c, 1, 47, 0
1, 6094080, Note_on_c, 1, 45, 40
1, 6094200, Note_off_c, 1, 45, 0
1, 6094200, Note_on_c, 1, 43, 40
1, 6094320, Note_off_c, 1, 43, 0
1, 6094320, Note_on_c, 1, 41, 40
1, 6094440, Note_off_c, 1, 41, 0
1, 6094440, Note_on_c, 1, 43, 40
1, 6094560, Note_off_c, 1, 43, 0
1, 6094560, Note_on_c, 1, 41, 40
1, 6094800, Note_off_c, 1, 41, 0
1, 6094800, Note_on_c, 1, 45, 40
1, 6095040, Note_off_c, 1, 45, 0
1, 6095280, Note_on_c, 1, 40, 40
1, 6095520, Note_off_c, 1, 40, 0
1, 6095760, Note_on_c, 1, 45, 40
1, 6096000, Note_off_c, 1, 45, 0
1, 6096240, Note_on_c, 1, 40, 40
1, 6096480, Note_off_c, 1, 40, 0
1, 6096720, Note_on_c, 1, 45, 40
1, 6096960, Note_off_c, 1, 45, 0
1, 6097200, Note_on_c, 1, 40, 40
1, 6097440, Note_off_c, 1, 40, 0
1, 6097680, Note_on_c, 1, 45, 40
1, 6097920, Note_off_c, 1, 45, 0
1, 6098160, Note_on_c, 1, 40, 40
1, 6098400, Note_off_c, 1, 40, 0
1, 6098400, Note_on_c, 1, 45, 40
1, 6098640, Note_off_c, 1, 45, 0
1, 6098640, Note_on_c, 1, 40, 40
1, 6098880, Note_off_c, 1, 40, 0
1, 6098880, Note_on_c, 1, 40, 40
1, 6099120, Note_off_c, 1, 40, 0
1, 6099120, Note_on_c, 1, 35, 40
1, 6099360, Note_off_c, 1, 35, 0
1, 6099360, Note_on_c, 1, 35, 40
1, 6099600, Note_off_c, 1, 35, 0
1, 6099600, Note_on_c, 1, 40, 40
1, 6099840, Note_off_c, 1, 40, 0
1, 6099840, Note_on_c, 1, 40, 40
1, 6100080, Note_off_c, 1, 40, 0
1, 6100080, Note_on_c, 1, 35, 40
1, 6100320, Note_off_c, 1, 35, 0
1, 6100320, Note_on_c, 1, 35, 40
1, 6100560, Note_off_c, 1, 35, 0
1, 6100560, Note_on_c, 1, 40, 40
1, 6100800, Note_off_c, 1, 40, 0
1, 6100800, Note_on_c, 1, 40, 40
1, 6101040, Note_off_c, 1, 40, 0
1, 6101040, Note_on_c, 1, 35, 40
1, 6101280, Note_off_c, 1, 35, 0
1, 6101280, Note_on_c, 1, 35, 40
1, 6101520, Note_off_c, 1, 35, 0
1, 6101520, Note_on_c, 1, 40, 40
1, 6101760, Note_off_c, 1, 40, 0
1, 6101760, Note_on_c, 1, 40, 40
1, 6102000, Note_off_c, 1, 40, 0
1, 6102000, Note_on_c, 1, 35, 40
1, 6102240, Note_off_c, 1, 35, 0
1, 6102240, Note_on_c, 1, 35, 40
1, 6102480, Note_off_c, 1, 35, 0
1, 6102480, Note_on_c, 1, 38, 40
1, 6102720, Note_off_c, 1, 38, 0
1, 6102720, Note_on_c, 1, 38, 40
1, 6102960, Note_off_c, 1, 38, 0
1, 6102960, Note_on_c, 1, 40, 40
1, 6103200, Note_off_c, 1, 40, 0
1, 6103200, Note_on_c, 1, 40, 40
1, 6103440, Note_off_c, 1, 40, 0
1, 6103440, Note_on_c, 1, 42, 40
1, 6103680, Note_off_c, 1, 42, 0
1, 6103680, Note_on_c, 1, 42, 40
1, 6103920, Note_off_c, 1, 42, 0
1, 6103920, Note_on_c, 1, 43, 40
1, 6104160, Note_off_c, 1, 43, 0
1, 6104160, Note_on_c, 1, 44, 40
1, 6104400, Note_off_c, 1, 44, 0
1, 6104400, Note_on_c, 1, 45, 40
1, 6104640, Note_off_c, 1, 45, 0
1, 6106320, Note_on_c, 1, 45, 40
1, 6107280, Note_off_c, 1, 45, 0
1, 6107280, Note_on_c, 1, 44, 40
1, 6108240, Note_off_c, 1, 44, 0
1, 6108240, Note_on_c, 1, 38, 40
1, 6109200, Note_off_c, 1, 38, 0
1, 6109200, Note_on_c, 1, 40, 40
1, 6109440, Note_off_c, 1, 40, 0
1, 6109440, Note_on_c, 1, 42, 40
1, 6109680, Note_off_c, 1, 42, 0
1, 6109680, Note_on_c, 1, 44, 40
1, 6109920, Note_off_c, 1, 44, 0
1, 6109920, Note_on_c, 1, 40, 40
1, 6110160, Note_off_c, 1, 40, 0
1, 6110160, Note_on_c, 1, 45, 40
1, 6111120, Note_off_c, 1, 45, 0
1, 6111120, Note_on_c, 1, 42, 40
1, 6111840, Note_off_c, 1, 42, 0
1, 6111840, Note_on_c, 1, 40, 40
1, 6112080, Note_off_c, 1, 40, 0
1, 6112080, Note_on_c, 1, 38, 40
1, 6113040, Note_off_c, 1, 38, 0
1, 6113040, Note_on_c, 1, 40, 40
1, 6113520, Note_off_c, 1, 40, 0
1, 6113520, Note_on_c, 1, 42, 40
1, 6113760, Note_off_c, 1, 42, 0
1, 6113760, Note_on_c, 1, 44, 40
1, 6114000, Note_off_c, 1, 44, 0
1, 6114000, Note_on_c, 1, 45, 40
1, 6114480, Note_off_c, 1, 45, 0
1, 6114480, Note_on_c, 1, 37, 40
1, 6114720, Note_off_c, 1, 37, 0
1, 6114720, Note_on_c, 1, 38, 40
1, 6114960, Note_off_c, 1, 38, 0
1, 6114960, Note_on_c, 1, 40, 40
1, 6115200, Note_off_c, 1, 40, 0
1, 6115200, Note_on_c, 1, 40, 40
1, 6115440, Note_off_c, 1, 40, 0
1, 6115440, Note_on_c, 1, 42, 40
1, 6115680, Note_off_c, 1, 42, 0
1, 6115680, Note_on_c, 1, 40, 40
1, 6115920, Note_off_c, 1, 40, 0
1, 6115920, Note_on_c, 1, 42, 40
1, 6116400, Note_off_c, 1, 42, 0
1, 6116400, Note_on_c, 1, 42, 40
1, 6116880, Note_off_c, 1, 42, 0
1, 6116880, Note_on_c, 1, 38, 40
1, 6117360, Note_off_c, 1, 38, 0
1, 6117600, Note_on_c, 1, 38, 40
1, 6117840, Note_off_c, 1, 38, 0
1, 6117840, Note_on_c, 1, 50, 40
1, 6117960, Note_off_c, 1, 50, 0
1, 6117960, Note_on_c, 1, 47, 40
1, 6118080, Note_off_c, 1, 47, 0
1, 6118080, Note_on_c, 1, 45, 40
1, 6118200, Note_off_c, 1, 45, 0
1, 6118200, Note_on_c, 1, 43, 40
1, 6118320, Note_off_c, 1, 43, 0
1, 6118320, Note_on_c, 1, 41, 40
1, 6118440, Note_off_c, 1, 41, 0
1, 6118440, Note_on_c, 1, 43, 40
1, 6118560, Note_off_c, 1, 43, 0
1, 6118560, Note_on_c, 1, 41, 40
1, 6118800, Note_off_c, 1, 41, 0
1, 6118800, Note_on_c, 1, 45, 40
1, 6119040, Note_off_c, 1, 45, 0
1, 6119280, Note_on_c, 1, 40, 40
1, 6119520, Note_off_c, 1, 40, 0
1, 6119760, Note_on_c, 1, 45, 40
1, 6120000, Note_off_c, 1, 45, 0
1, 6120240, Note_on_c, 1, 40, 40
1, 6120480, Note_off_c, 1, 40, 0
1, 6120720, Note_on_c, 1, 45, 40
1, 6120960, Note_off_c, 1, 45, 0
1, 6121200, Note_on_c, 1, 40, 40
1, 6121440, Note_off_c, 1, 40, 0
1, 6121680, Note_on_c, 1, 45, 40
1, 6121920, Note_off_c, 1, 45, 0
1, 6122160, Note_on_c, 1, 40, 40
1, 6122400, Note_off_c, 1, 40, 0
1, 6122400, Note_on_c, 1, 45, 40
1, 6122640, Note_off_c, 1, 45, 0
1, 6122640, Note_on_c, 1, 40, 40
1, 6122880, Note_off_c, 1, 40, 0
1, 6122880, Note_on_c, 1, 40, 40
1, 6123120, Note_off_c, 1, 40, 0
1, 6123120, Note_on_c, 1, 35, 40
1, 6123360, Note_off_c, 1, 35, 0
1, 6123360, Note_on_c, 1, 35, 40
1, 6123600, Note_off_c, 1, 35, 0
1, 6123600, Note_on_c, 1, 40, 40
1, 6123840, Note_off_c, 1, 40, 0
1, 6123840, Note_on_c, 1, 40, 40
1, 6124080, Note_off_c, 1, 40, 0
1, 6124080, Note_on_c, 1, 35, 40
1, 6124320, Note_off_c, 1, 35, 0
1, 6124320, Note_on_c, 1, 35, 40
1, 6124560, Note_off_c, 1, 35, 0
1, 6124560, Note_on_c, 1, 40, 40
1, 6124800, Note_off_c, 1, 40, 0
1, 6124800, Note_on_c, 1, 40, 40
1, 6125040, Note_off_c, 1, 40, 0
1, 6125040, Note_on_c, 1, 35, 40
1, 6125280, Note_off_c, 1, 35, 0
1, 6125280, Note_on_c, 1, 35, 40
1, 6125520, Note_off_c, 1, 35, 0
1, 6125520, Note_on_c, 1, 40, 40
1, 6125760, Note_off_c, 1, 40, 0
1, 6125760, Note_on_c, 1, 40, 40
1, 6126000, Note_off_c, 1, 40, 0
1, 6126000, Note_on_c, 1, 35, 40
1, 6126240, Note_off_c, 1, 35, 0
1, 6126240, Note_on_c, 1, 35, 40
1, 6126480, Note_off_c, 1, 35, 0
1, 6126480, Note_on_c, 1, 38, 40
1, 6126720, Note_off_c, 1, 38, 0
1, 6126720, Note_on_c, 1, 38, 40
1, 6126960, Note_off_c, 1, 38, 0
1, 6126960, Note_on_c, 1, 40, 40
1, 6127200, Note_off_c, 1, 40, 0
1, 6127200, Note_on_c, 1, 40, 40
1, 6127440, Note_off_c, 1, 40, 0
1, 6127440, Note_on_c, 1, 42, 40
1, 6127680, Note_off_c, 1, 42, 0
1, 6127680, Note_on_c, 1, 42, 40
1, 6127920, Note_off_c, 1, 42, 0
1, 6127920, Note_on_c, 1, 43, 40
1, 6128160, Note_off_c, 1, 43, 0
1, 6128160, Note_on_c, 1, 44, 40
1, 6128400, Note_off_c, 1, 44, 0
1, 6128400, Note_on_c, 1, 45, 40
1, 6128640, Note_off_c, 1, 45, 0
1, 6130320, Note_on_c, 1, 38, 40
1, 6130560, Note_off_c, 1, 38, 0
1, 6130560, Note_on_c, 1, 38, 40
1, 6130800, Note_off_c, 1, 38, 0
1, 6130800, Note_on_c, 1, 40, 40
1, 6131040, Note_off_c, 1, 40, 0
1, 6131040, Note_on_c, 1, 40, 40
1, 6131280, Note_off_c, 1, 40, 0
1, 6131280, Note_on_c, 1, 42, 40
1, 6131520, Note_off_c, 1, 42, 0
1, 6131520, Note_on_c, 1, 42, 40
1, 6131760, Note_off_c, 1, 42, 0
1, 6131760, Note_on_c, 1, 43, 40
1, 6132000, Note_off_c, 1, 43, 0
1, 6132000, Note_on_c, 1, 44, 40
1, 6132240, Note_off_c, 1, 44, 0
1, 6132240, Note_on_c, 1, 45, 40
1, 6132480, Note_off_c, 1, 45, 0
1, 6133440, Note_on_c, 1, 57, 40
1, 6133680, Note_off_c, 1, 57, 0
1, 6133680, Note_on_c, 1, 57, 40
1, 6133920, Note_off_c, 1, 57, 0
1, 6133920, Note_on_c, 1, 57, 40
1, 6134160, Note_off_c, 1, 57, 0
1, 6134160, Note_on_c, 1, 38, 40
1, 6134400, Note_off_c, 1, 38, 0
1, 6134400, Note_on_c, 1, 38, 40
1, 6134640, Note_off_c, 1, 38, 0
1, 6134640, Note_on_c, 1, 40, 40
1, 6134880, Note_off_c, 1, 40, 0
1, 6134880, Note_on_c, 1, 40, 40
1, 6135120, Note_off_c, 1, 40, 0
1, 6135120, Note_on_c, 1, 42, 40
1, 6135360, Note_off_c, 1, 42, 0
1, 6135360, Note_on_c, 1, 42, 40
1, 6135600, Note_off_c, 1, 42, 0
1, 6135600, Note_on_c, 1, 43, 40
1, 6135840, Note_off_c, 1, 43, 0
1, 6135840, Note_on_c, 1, 44, 40
1, 6136080, Note_off_c, 1, 44, 0
1, 6136080, Note_on_c, 1, 45, 40
1, 6136320, Note_off_c, 1, 45, 0
1, 6141360, Note_on_c, 1, 48, 40
1, 6142200, Note_off_c, 1, 48, 0
1, 6142320, Note_on_c, 1, 47, 40
1, 6143160, Note_off_c, 1, 47, 0
1, 6143280, Note_on_c, 1, 45, 40
1, 6145200, Note_off_c, 1, 45, 0
1, 6145200, Note_on_c, 1, 45, 40
1, 6147120, Note_off_c, 1, 45, 0
1, 6147120, Note_on_c, 1, 45, 40
1, 6149040, Note_off_c, 1, 45, 0
1, 6149040, Note_on_c, 1, 45, 40
1, 6149880, Note_off_c, 1, 45, 0
1, 6150000, Note_on_c, 1, 43, 40
1, 6150840, Note_off_c, 1, 43, 0
1, 6150960, Note_on_c, 1, 41, 40
1, 6152880, Note_off_c, 1, 41, 0
1, 6152880, Note_on_c, 1, 41, 40
1, 6154800, Note_off_c, 1, 41, 0
1, 6154800, Note_on_c, 1, 41, 40
1, 6156720, Note_off_c, 1, 41, 0
1, 6156720, Note_on_c, 1, 41, 40
1, 6157560, Note_off_c, 1, 41, 0
1, 6157680, Note_on_c, 1, 40, 40
1, 6158520, Note_off_c, 1, 40, 0
1, 6158640, Note_on_c, 1, 38, 40
1, 6160560, Note_off_c, 1, 38, 0
1, 6160560, Note_on_c, 1, 36, 40
1, 6161400, Note_off_c, 1, 36, 0
1, 6161520, Note_on_c, 1, 35, 40
1, 6162360, Note_off_c, 1, 35, 0
1, 6162480, Note_on_c, 1, 36, 40
1, 6163320, Note_off_c, 1, 36, 0
1, 6163440, Note_on_c, 1, 43, 40
1, 6164280, Note_off_c, 1, 43, 0
1, 6164400, Note_on_c, 1, 48, 40
1, 6165240, Note_off_c, 1, 48, 0
1, 6165360, Note_on_c, 1, 43, 40
1, 6166200, Note_off_c, 1, 43, 0
1, 6166320, Note_on_c, 1, 48, 40
1, 6167160, Note_off_c, 1, 48, 0
1, 6167280, Note_on_c, 1, 43, 40
1, 6168120, Note_off_c, 1, 43, 0
1, 6168240, Note_on_c, 1, 48, 40
1, 6169080, Note_off_c, 1, 48, 0
1, 6169200, Note_on_c, 1, 47, 40
1, 6170040, Note_off_c, 1, 47, 0
1, 6170160, Note_on_c, 1, 45, 40
1, 6171000, Note_off_c, 1, 45, 0
1, 6171120, Note_on_c, 1, 40, 40
1, 6171960, Note_off_c, 1, 40, 0
1, 6172080, Note_on_c, 1, 45, 40
1, 6172920, Note_off_c, 1, 45, 0
1, 6173040, Note_on_c, 1, 40, 40
1, 6173520, Note_off_c, 1, 40, 0
1, 6173520, Note_on_c, 1, 43, 40
1, 6174000, Note_off_c, 1, 43, 0
1, 6174000, Note_on_c, 1, 45, 40
1, 6174840, Note_off_c, 1, 45, 0
1, 6174960, Note_on_c, 1, 40, 40
1, 6175800, Note_off_c, 1, 40, 0
1, 6175920, Note_on_c, 1, 45, 40
1, 6176760, Note_off_c, 1, 45, 0
1, 6176880, Note_on_c, 1, 43, 40
1, 6177720, Note_off_c, 1, 43, 0
1, 6177840, Note_on_c, 1, 41, 40
1, 6178680, Note_off_c, 1, 41, 0
1, 6178800, Note_on_c, 1, 36, 40
1, 6179640, Note_off_c, 1, 36, 0
1, 6179760, Note_on_c, 1, 41, 40
1, 6180600, Note_off_c, 1, 41, 0
1, 6180720, Note_on_c, 1, 40, 40
1, 6181560, Note_off_c, 1, 40, 0
1, 6181680, Note_on_c, 1, 38, 40
1, 6182520, Note_off_c, 1, 38, 0
1, 6182640, Note_on_c, 1, 36, 40
1, 6183120, Note_off_c, 1, 36, 0
1, 6183120, Note_on_c, 1, 35, 40
1, 6183600, Note_off_c, 1, 35, 0
1, 6183600, Note_on_c, 1, 36, 40
1, 6184440, Note_off_c, 1, 36, 0
1, 6184560, Note_on_c, 1, 43, 40
1, 6185040, Note_off_c, 1, 43, 0
1, 6185040, Note_on_c, 1, 47, 40
1, 6185520, Note_off_c, 1, 47, 0
1, 6185520, Note_on_c, 1, 48, 40
1, 6186360, Note_off_c, 1, 48, 0
1, 6186480, Note_on_c, 1, 43, 40
1, 6187320, Note_off_c, 1, 43, 0
1, 6187440, Note_on_c, 1, 48, 40
1, 6188280, Note_off_c, 1, 48, 0
1, 6188400, Note_on_c, 1, 43, 40
1, 6188880, Note_off_c, 1, 43, 0
1, 6188880, Note_on_c, 1, 47, 40
1, 6189360, Note_off_c, 1, 47, 0
1, 6189360, Note_on_c, 1, 48, 40
1, 6190200, Note_off_c, 1, 48, 0
1, 6190320, Note_on_c, 1, 43, 40
1, 6191160, Note_off_c, 1, 43, 0
1, 6191280, Note_on_c, 1, 48, 40
1, 6192120, Note_off_c, 1, 48, 0
1, 6192240, Note_on_c, 1, 47, 40
1, 6193080, Note_off_c, 1, 47, 0
1, 6193200, Note_on_c, 1, 45, 40
1, 6194040, Note_off_c, 1, 45, 0
1, 6194160, Note_on_c, 1, 40, 40
1, 6195000, Note_off_c, 1, 40, 0
1, 6195120, Note_on_c, 1, 45, 40
1, 6195960, Note_off_c, 1, 45, 0
1, 6196080, Note_on_c, 1, 40, 40
1, 6196560, Note_off_c, 1, 40, 0
1, 6196560, Note_on_c, 1, 43, 40
1, 6197040, Note_off_c, 1, 43, 0
1, 6197040, Note_on_c, 1, 45, 40
1, 6197880, Note_off_c, 1, 45, 0
1, 6198000, Note_on_c, 1, 40, 40
1, 6198840, Note_off_c, 1, 40, 0
1, 6198960, Note_on_c, 1, 45, 40
1, 6199800, Note_off_c, 1, 45, 0
1, 6199920, Note_on_c, 1, 43, 40
1, 6200760, Note_off_c, 1, 43, 0
1, 6200880, Note_on_c, 1, 41, 40
1, 6201720, Note_off_c, 1, 41, 0
1, 6201840, Note_on_c, 1, 36, 40
1, 6202680, Note_off_c, 1, 36, 0
1, 6202800, Note_on_c, 1, 41, 40
1, 6203640, Note_off_c, 1, 41, 0
1, 6203760, Note_on_c, 1, 40, 40
1, 6204600, Note_off_c, 1, 40, 0
1, 6204720, Note_on_c, 1, 38, 40
1, 6205560, Note_off_c, 1, 38, 0
1, 6205680, Note_on_c, 1, 43, 40
1, 6206160, Note_off_c, 1, 43, 0
1, 6206160, Note_on_c, 1, 47, 40
1, 6206640, Note_off_c, 1, 47, 0
1, 6206640, Note_on_c, 1, 48, 40
1, 6207480, Note_off_c, 1, 48, 0
1, 6207600, Note_on_c, 1, 43, 40
1, 6208080, Note_off_c, 1, 43, 0
1, 6208080, Note_on_c, 1, 40, 40
1, 6208560, Note_off_c, 1, 40, 0
1, 6208560, Note_on_c, 1, 43, 40
1, 6209400, Note_off_c, 1, 43, 0
1, 6209520, Note_on_c, 1, 38, 40
1, 6210360, Note_off_c, 1, 38, 0
1, 6210480, Note_on_c, 1, 43, 40
1, 6211320, Note_off_c, 1, 43, 0
1, 6211440, Note_on_c, 1, 38, 40
1, 6211920, Note_off_c, 1, 38, 0
1, 6211920, Note_on_c, 1, 40, 40
1, 6212400, Note_off_c, 1, 40, 0
1, 6212400, Note_on_c, 1, 41, 40
1, 6213240, Note_off_c, 1, 41, 0
1, 6213360, Note_on_c, 1, 36, 40
1, 6214200, Note_off_c, 1, 36, 0
1, 6214320, Note_on_c, 1, 41, 40
1, 6215160, Note_off_c, 1, 41, 0
1, 6215280, Note_on_c, 1, 45, 40
1, 6215760, Note_off_c, 1, 45, 0
1, 6215760, Note_on_c, 1, 47, 40
1, 6216240, Note_off_c, 1, 47, 0
1, 6216240, Note_on_c, 1, 48, 40
1, 6217080, Note_off_c, 1, 48, 0
1, 6217200, Note_on_c, 1, 43, 40
1, 6218040, Note_off_c, 1, 43, 0
1, 6218160, Note_on_c, 1, 41, 40
1, 6219000, Note_off_c, 1, 41, 0
1, 6219120, Note_on_c, 1, 48, 40
1, 6219600, Note_off_c, 1, 48, 0
1, 6219600, Note_on_c, 1, 47, 40
1, 6220080, Note_off_c, 1, 47, 0
1, 6220080, Note_on_c, 1, 48, 40
1, 6220920, Note_off_c, 1, 48, 0
1, 6221040, Note_on_c, 1, 43, 40
1, 6221880, Note_off_c, 1, 43, 0
1, 6222000, Note_on_c, 1, 48, 40
1, 6222840, Note_off_c, 1, 48, 0
1, 6222960, Note_on_c, 1, 43, 40
1, 6223440, Note_off_c, 1, 43, 0
1, 6223440, Note_on_c, 1, 47, 40
1, 6223920, Note_off_c, 1, 47, 0
1, 6223920, Note_on_c, 1, 48, 40
1, 6224760, Note_off_c, 1, 48, 0
1, 6224880, Note_on_c, 1, 43, 40
1, 6225720, Note_off_c, 1, 43, 0
1, 6225840, Note_on_c, 1, 48, 40
1, 6226680, Note_off_c, 1, 48, 0
1, 6226800, Note_on_c, 1, 43, 40
1, 6227280, Note_off_c, 1, 43, 0
1, 6227280, Note_on_c, 1, 47, 40
1, 6227760, Note_off_c, 1, 47, 0
1, 6227760, Note_on_c, 1, 48, 40
1, 6228600, Note_off_c, 1, 48, 0
1, 6228720, Note_on_c, 1, 43, 40
1, 6229560, Note_off_c, 1, 43, 0
1, 6229680, Note_on_c, 1, 48, 40
1, 6230520, Note_off_c, 1, 48, 0
1, 6230640, Note_on_c, 1, 47, 40
1, 6231480, Note_off_c, 1, 47, 0
1, 6231600, Note_on_c, 1, 45, 40
1, 6232440, Note_off_c, 1, 45, 0
1, 6232560, Note_on_c, 1, 40, 40
1, 6233400, Note_off_c, 1, 40, 0
1, 6233520, Note_on_c, 1, 45, 40
1, 6234360, Note_off_c, 1, 45, 0
1, 6234480, Note_on_c, 1, 40, 40
1, 6234960, Note_off_c, 1, 40, 0
1, 6234960, Note_on_c, 1, 43, 40
1, 6235440, Note_off_c, 1, 43, 0
1, 6235440, Note_on_c, 1, 45, 40
1, 6236280, Note_off_c, 1, 45, 0
1, 6236400, Note_on_c, 1, 40, 40
1, 6237240, Note_off_c, 1, 40, 0
1, 6237360, Note_on_c, 1, 45, 40
1, 6238200, Note_off_c, 1, 45, 0
1, 6238320, Note_on_c, 1, 43, 40
1, 6239160, Note_off_c, 1, 43, 0
1, 6239280, Note_on_c, 1, 41, 40
1, 6240120, Note_off_c, 1, 41, 0
1, 6240240, Note_on_c, 1, 36, 40
1, 6240720, Note_off_c, 1, 36, 0
1, 6240720, Note_on_c, 1, 40, 40
1, 6241200, Note_off_c, 1, 40, 0
1, 6241200, Note_on_c, 1, 41, 40
1, 6242040, Note_off_c, 1, 41, 0
1, 6242160, Note_on_c, 1, 40, 40
1, 6243000, Note_off_c, 1, 40, 0
1, 6243120, Note_on_c, 1, 38, 40
1, 6243960, Note_off_c, 1, 38, 0
1, 6244080, Note_on_c, 1, 40, 40
1, 6244560, Note_off_c, 1, 40, 0
1, 6244560, Note_on_c, 1, 38, 40
1, 6245040, Note_off_c, 1, 38, 0
1, 6245040, Note_on_c, 1, 36, 40
1, 6245880, Note_off_c, 1, 36, 0
1, 6246000, Note_on_c, 1, 40, 40
1, 6246480, Note_off_c, 1, 40, 0
1, 6246480, Note_on_c, 1, 41, 40
1, 6246960, Note_off_c, 1, 41, 0
1, 6246960, Note_on_c, 1, 43, 40
1, 6247800, Note_off_c, 1, 43, 0
1, 6247920, Note_on_c, 1, 38, 40
1, 6248760, Note_off_c, 1, 38, 0
1, 6248880, Note_on_c, 1, 43, 40
1, 6249720, Note_off_c, 1, 43, 0
1, 6249840, Note_on_c, 1, 38, 40
1, 6250320, Note_off_c, 1, 38, 0
1, 6250320, Note_on_c, 1, 40, 40
1, 6250800, Note_off_c, 1, 40, 0
1, 6250800, Note_on_c, 1, 41, 40
1, 6251640, Note_off_c, 1, 41, 0
1, 6251760, Note_on_c, 1, 36, 40
1, 6252600, Note_off_c, 1, 36, 0
1, 6252720, Note_on_c, 1, 41, 40
1, 6253560, Note_off_c, 1, 41, 0
1, 6253680, Note_on_c, 1, 45, 40
1, 6254160, Note_off_c, 1, 45, 0
1, 6254160, Note_on_c, 1, 47, 40
1, 6254640, Note_off_c, 1, 47, 0
1, 6254640, Note_on_c, 1, 48, 40
1, 6255480, Note_off_c, 1, 48, 0
1, 6255600, Note_on_c, 1, 43, 40
1, 6256440, Note_off_c, 1, 43, 0
1, 6256560, Note_on_c, 1, 41, 40
1, 6257400, Note_off_c, 1, 41, 0
1, 6257520, Note_on_c, 1, 45, 40
1, 6258000, Note_off_c, 1, 45, 0
1, 6258000, Note_on_c, 1, 47, 40
1, 6258480, Note_off_c, 1, 47, 0
1, 6258480, Note_on_c, 1, 48, 40
1, 6259320, Note_off_c, 1, 48, 0
1, 6259440, Note_on_c, 1, 43, 40
1, 6260280, Note_off_c, 1, 43, 0
1, 6260400, Note_on_c, 1, 48, 40
1, 6261240, Note_off_c, 1, 48, 0
1, 6261360, Note_on_c, 1, 43, 40
1, 6261840, Note_off_c, 1, 43, 0
1, 6261840, Note_on_c, 1, 47, 40
1, 6262320, Note_off_c, 1, 47, 0
1, 6262320, Note_on_c, 1, 48, 40
1, 6263160, Note_off_c, 1, 48, 0
1, 6263280, Note_on_c, 1, 43, 40
1, 6264120, Note_off_c, 1, 43, 0
1, 6264240, Note_on_c, 1, 48, 40
1, 6265080, Note_off_c, 1, 48, 0
1, 6265200, Note_on_c, 1, 43, 40
1, 6265680, Note_off_c, 1, 43, 0
1, 6265680, Note_on_c, 1, 47, 40
1, 6266160, Note_off_c, 1, 47, 0
1, 6266160, Note_on_c, 1, 48, 40
1, 6267000, Note_off_c, 1, 48, 0
1, 6267120, Note_on_c, 1, 43, 40
1, 6267960, Note_off_c, 1, 43, 0
1, 6268080, Note_on_c, 1, 48, 40
1, 6268920, Note_off_c, 1, 48, 0
1, 6269040, Note_on_c, 1, 47, 40
1, 6269880, Note_off_c, 1, 47, 0
1, 6270000, Note_on_c, 1, 45, 40
1, 6270840, Note_off_c, 1, 45, 0
1, 6270960, Note_on_c, 1, 40, 40
1, 6271800, Note_off_c, 1, 40, 0
1, 6271920, Note_on_c, 1, 45, 40
1, 6272760, Note_off_c, 1, 45, 0
1, 6272880, Note_on_c, 1, 40, 40
1, 6273360, Note_off_c, 1, 40, 0
1, 6273360, Note_on_c, 1, 43, 40
1, 6273840, Note_off_c, 1, 43, 0
1, 6273840, Note_on_c, 1, 45, 40
1, 6274680, Note_off_c, 1, 45, 0
1, 6274800, Note_on_c, 1, 40, 40
1, 6275640, Note_off_c, 1, 40, 0
1, 6275760, Note_on_c, 1, 45, 40
1, 6276600, Note_off_c, 1, 45, 0
1, 6276720, Note_on_c, 1, 43, 40
1, 6277560, Note_off_c, 1, 43, 0
1, 6277680, Note_on_c, 1, 41, 40
1, 6278520, Note_off_c, 1, 41, 0
1, 6278640, Note_on_c, 1, 36, 40
1, 6279480, Note_off_c, 1, 36, 0
1, 6279600, Note_on_c, 1, 41, 40
1, 6280440, Note_off_c, 1, 41, 0
1, 6280560, Note_on_c, 1, 40, 40
1, 6281400, Note_off_c, 1, 40, 0
1, 6281520, Note_on_c, 1, 38, 40
1, 6282360, Note_off_c, 1, 38, 0
1, 6282480, Note_on_c, 1, 43, 40
1, 6282960, Note_off_c, 1, 43, 0
1, 6282960, Note_on_c, 1, 47, 40
1, 6283440, Note_off_c, 1, 47, 0
1, 6283440, Note_on_c, 1, 48, 40
1, 6284280, Note_off_c, 1, 48, 0
1, 6284400, Note_on_c, 1, 43, 40
1, 6284880, Note_off_c, 1, 43, 0
1, 6284880, Note_on_c, 1, 40, 40
1, 6285360, Note_off_c, 1, 40, 0
1, 6285360, Note_on_c, 1, 43, 40
1, 6286200, Note_off_c, 1, 43, 0
1, 6286320, Note_on_c, 1, 38, 40
1, 6287160, Note_off_c, 1, 38, 0
1, 6287280, Note_on_c, 1, 43, 40
1, 6288120, Note_off_c, 1, 43, 0
1, 6288240, Note_on_c, 1, 38, 40
1, 6288720, Note_off_c, 1, 38, 0
1, 6288720, Note_on_c, 1, 40, 40
1, 6289200, Note_off_c, 1, 40, 0
1, 6289200, Note_on_c, 1, 41, 40
1, 6290040, Note_off_c, 1, 41, 0
1, 6290160, Note_on_c, 1, 36, 40
1, 6291000, Note_off_c, 1, 36, 0
1, 6291120, Note_on_c, 1, 41, 40
1, 6291960, Note_off_c, 1, 41, 0
1, 6292080, Note_on_c, 1, 45, 40
1, 6292560, Note_off_c, 1, 45, 0
1, 6292560, Note_on_c, 1, 47, 40
1, 6293040, Note_off_c, 1, 47, 0
1, 6293040, Note_on_c, 1, 48, 40
1, 6293880, Note_off_c, 1, 48, 0
1, 6294000, Note_on_c, 1, 43, 40
1, 6294840, Note_off_c, 1, 43, 0
1, 6294960, Note_on_c, 1, 41, 40
1, 6295800, Note_off_c, 1, 41, 0
1, 6295920, Note_on_c, 1, 48, 40
1, 6296400, Note_off_c, 1, 48, 0
1, 6296400, Note_on_c, 1, 47, 40
1, 6296880, Note_off_c, 1, 47, 0
1, 6296880, Note_on_c, 1, 48, 40
1, 6297720, Note_off_c, 1, 48, 0
1, 6297840, Note_on_c, 1, 43, 40
1, 6298680, Note_off_c, 1, 43, 0
1, 6298800, Note_on_c, 1, 48, 40
1, 6299640, Note_off_c, 1, 48, 0
1, 6299760, Note_on_c, 1, 43, 40
1, 6300240, Note_off_c, 1, 43, 0
1, 6300240, Note_on_c, 1, 47, 40
1, 6300720, Note_off_c, 1, 47, 0
1, 6300720, Note_on_c, 1, 48, 40
1, 6301560, Note_off_c, 1, 48, 0
1, 6301680, Note_on_c, 1, 43, 40
1, 6302520, Note_off_c, 1, 43, 0
1, 6302640, Note_on_c, 1, 48, 40
1, 6303480, Note_off_c, 1, 48, 0
1, 6303600, Note_on_c, 1, 43, 40
1, 6304080, Note_off_c, 1, 43, 0
1, 6304080, Note_on_c, 1, 47, 40
1, 6304560, Note_off_c, 1, 47, 0
1, 6304560, Note_on_c, 1, 48, 40
1, 6305400, Note_off_c, 1, 48, 0
1, 6305520, Note_on_c, 1, 43, 40
1, 6306360, Note_off_c, 1, 43, 0
1, 6306480, Note_on_c, 1, 48, 40
1, 6307320, Note_off_c, 1, 48, 0
1, 6307440, Note_on_c, 1, 47, 40
1, 6308280, Note_off_c, 1, 47, 0
1, 6308400, Note_on_c, 1, 45, 40
1, 6309240, Note_off_c, 1, 45, 0
1, 6309360, Note_on_c, 1, 40, 40
1, 6310200, Note_off_c, 1, 40, 0
1, 6310320, Note_on_c, 1, 45, 40
1, 6311160, Note_off_c, 1, 45, 0
1, 6311280, Note_on_c, 1, 40, 40
1, 6311760, Note_off_c, 1, 40, 0
1, 6311760, Note_on_c, 1, 43, 40
1, 6312240, Note_off_c, 1, 43, 0
1, 6312240, Note_on_c, 1, 45, 40
1, 6313080, Note_off_c, 1, 45, 0
1, 6313200, Note_on_c, 1, 40, 40
1, 6314040, Note_off_c, 1, 40, 0
1, 6314160, Note_on_c, 1, 45, 40
1, 6315000, Note_off_c, 1, 45, 0
1, 6315120, Note_on_c, 1, 43, 40
1, 6315960, Note_off_c, 1, 43, 0
1, 6316080, Note_on_c, 1, 41, 40
1, 6316920, Note_off_c, 1, 41, 0
1, 6317040, Note_on_c, 1, 36, 40
1, 6317520, Note_off_c, 1, 36, 0
1, 6317520, Note_on_c, 1, 40, 40
1, 6318000, Note_off_c, 1, 40, 0
1, 6318000, Note_on_c, 1, 41, 40
1, 6318840, Note_off_c, 1, 41, 0
1, 6318960, Note_on_c, 1, 40, 40
1, 6319800, Note_off_c, 1, 40, 0
1, 6319920, Note_on_c, 1, 38, 40
1, 6320760, Note_off_c, 1, 38, 0
1, 6320880, Note_on_c, 1, 40, 40
1, 6321360, Note_off_c, 1, 40, 0
1, 6321360, Note_on_c, 1, 38, 40
1, 6321840, Note_off_c, 1, 38, 0
1, 6321840, Note_on_c, 1, 36, 40
1, 6322680, Note_off_c, 1, 36, 0
1, 6322800, Note_on_c, 1, 40, 40
1, 6323280, Note_off_c, 1, 40, 0
1, 6323280, Note_on_c, 1, 41, 40
1, 6323760, Note_off_c, 1, 41, 0
1, 6323760, Note_on_c, 1, 43, 40
1, 6324600, Note_off_c, 1, 43, 0
1, 6324720, Note_on_c, 1, 38, 40
1, 6325560, Note_off_c, 1, 38, 0
1, 6325680, Note_on_c, 1, 43, 40
1, 6326520, Note_off_c, 1, 43, 0
1, 6326640, Note_on_c, 1, 38, 40
1, 6327120, Note_off_c, 1, 38, 0
1, 6327120, Note_on_c, 1, 40, 40
1, 6327600, Note_off_c, 1, 40, 0
1, 6327600, Note_on_c, 1, 41, 40
1, 6328440, Note_off_c, 1, 41, 0
1, 6328560, Note_on_c, 1, 36, 40
1, 6329400, Note_off_c, 1, 36, 0
1, 6329520, Note_on_c, 1, 41, 40
1, 6330360, Note_off_c, 1, 41, 0
1, 6330480, Note_on_c, 1, 45, 40
1, 6330960, Note_off_c, 1, 45, 0
1, 6330960, Note_on_c, 1, 47, 40
1, 6331440, Note_off_c, 1, 47, 0
1, 6331440, Note_on_c, 1, 48, 40
1, 6332280, Note_off_c, 1, 48, 0
1, 6332400, Note_on_c, 1, 43, 40
1, 6333240, Note_off_c, 1, 43, 0
1, 6333360, Note_on_c, 1, 41, 40
1, 6334200, Note_off_c, 1, 41, 0
1, 6334320, Note_on_c, 1, 45, 40
1, 6334800, Note_off_c, 1, 45, 0
1, 6334800, Note_on_c, 1, 47, 40
1, 6335280, Note_off_c, 1, 47, 0
1, 6335280, Note_on_c, 1, 48, 40
1, 6336120, Note_off_c, 1, 48, 0
1, 6336240, Note_on_c, 1, 43, 40
1, 6337080, Note_off_c, 1, 43, 0
1, 6337200, Note_on_c, 1, 48, 40
1, 6337920, Note_off_c, 1, 48, 0
1, 6338040, Note_on_c, 1, 47, 40
1, 6338640, Note_off_c, 1, 47, 0
1, 6338640, Note_on_c, 1, 45, 40
1, 6339120, Note_off_c, 1, 45, 0
1, 6339120, Note_on_c, 1, 43, 40
1, 6339960, Note_off_c, 1, 43, 0
1, 6340080, Note_on_c, 1, 38, 40
1, 6340920, Note_off_c, 1, 38, 0
1, 6341040, Note_on_c, 1, 43, 40
1, 6341880, Note_off_c, 1, 43, 0
1, 6342000, Note_on_c, 1, 38, 40
1, 6342480, Note_off_c, 1, 38, 0
1, 6342480, Note_on_c, 1, 40, 40
1, 6342960, Note_off_c, 1, 40, 0
1, 6342960, Note_on_c, 1, 41, 40
1, 6343800, Note_off_c, 1, 41, 0
1, 6343920, Note_on_c, 1, 36, 40
1, 6344760, Note_off_c, 1, 36, 0
1, 6344880, Note_on_c, 1, 41, 40
1, 6345720, Note_off_c, 1, 41, 0
1, 6345840, Note_on_c, 1, 45, 40
1, 6346320, Note_off_c, 1, 45, 0
1, 6346320, Note_on_c, 1, 47, 40
1, 6346800, Note_off_c, 1, 47, 0
1, 6346800, Note_on_c, 1, 48, 40
1, 6347640, Note_off_c, 1, 48, 0
1, 6347760, Note_on_c, 1, 43, 40
1, 6348600, Note_off_c, 1, 43, 0
1, 6348720, Note_on_c, 1, 41, 40
1, 6349560, Note_off_c, 1, 41, 0
1, 6349680, Note_on_c, 1, 45, 40
1, 6350160, Note_off_c, 1, 45, 0
1, 6350160, Note_on_c, 1, 47, 40
1, 6350640, Note_off_c, 1, 47, 0
1, 6350640, Note_on_c, 1, 48, 40
1, 6351480, Note_off_c, 1, 48, 0
1, 6351600, Note_on_c, 1, 43, 40
1, 6352440, Note_off_c, 1, 43, 0
1, 6352560, Note_on_c, 1, 48, 40
1, 6353280, Note_off_c, 1, 48, 0
1, 6353400, Note_on_c, 1, 47, 40
1, 6354000, Note_off_c, 1, 47, 0
1, 6354000, Note_on_c, 1, 45, 40
1, 6354480, Note_off_c, 1, 45, 0
1, 6354480, Note_on_c, 1, 43, 40
1, 6355320, Note_off_c, 1, 43, 0
1, 6355440, Note_on_c, 1, 38, 40
1, 6356280, Note_off_c, 1, 38, 0
1, 6356400, Note_on_c, 1, 43, 40
1, 6357240, Note_off_c, 1, 43, 0
1, 6357360, Note_on_c, 1, 38, 40
1, 6357840, Note_off_c, 1, 38, 0
1, 6357840, Note_on_c, 1, 40, 40
1, 6358320, Note_off_c, 1, 40, 0
1, 6358320, Note_on_c, 1, 41, 40
1, 6359160, Note_off_c, 1, 41, 0
1, 6359280, Note_on_c, 1, 36, 40
1, 6360120, Note_off_c, 1, 36, 0
1, 6360240, Note_on_c, 1, 41, 40
1, 6361080, Note_off_c, 1, 41, 0
1, 6361200, Note_on_c, 1, 45, 40
1, 6361680, Note_off_c, 1, 45, 0
1, 6361680, Note_on_c, 1, 47, 40
1, 6362160, Note_off_c, 1, 47, 0
1, 6362160, Note_on_c, 1, 48, 40
1, 6363000, Note_off_c, 1, 48, 0
1, 6363120, Note_on_c, 1, 43, 40
1, 6363960, Note_off_c, 1, 43, 0
1, 6364080, Note_on_c, 1, 41, 40
1, 6364920, Note_off_c, 1, 41, 0
1, 6365040, Note_on_c, 1, 43, 40
1, 6365880, Note_off_c, 1, 43, 0
1, 6366000, Note_on_c, 1, 41, 40
1, 6366840, Note_off_c, 1, 41, 0
1, 6366960, Note_on_c, 1, 40, 40
1, 6367800, Note_off_c, 1, 40, 0
1, 6367920, Note_on_c, 1, 38, 40
1, 6368760, Note_off_c, 1, 38, 0
1, 6368880, Note_on_c, 1, 36, 40
1, 6369360, Note_off_c, 1, 36, 0
1, 6369360, Note_on_c, 1, 35, 40
1, 6369840, Note_off_c, 1, 35, 0
1, 6369840, Note_on_c, 1, 36, 40
1, 6371760, Note_off_c, 1, 36, 0
1, 6376560, Note_on_c, 1, 42, 40
1, 6377280, Note_off_c, 1, 42, 0
1, 6377280, Note_on_c, 1, 42, 40
1, 6377520, Note_off_c, 1, 42, 0
1, 6377520, Note_on_c, 1, 42, 40
1, 6378240, Note_off_c, 1, 42, 0
1, 6378240, Note_on_c, 1, 42, 40
1, 6378480, Note_off_c, 1, 42, 0
1, 6378480, Note_on_c, 1, 42, 40
1, 6379200, Note_off_c, 1, 42, 0
1, 6379200, Note_on_c, 1, 42, 40
1, 6379440, Note_off_c, 1, 42, 0
1, 6379440, Note_on_c, 1, 42, 40
1, 6380160, Note_off_c, 1, 42, 0
1, 6380160, Note_on_c, 1, 42, 40
1, 6380400, Note_off_c, 1, 42, 0
1, 6380400, Note_on_c, 1, 45, 40
1, 6381120, Note_off_c, 1, 45, 0
1, 6381120, Note_on_c, 1, 45, 40
1, 6381360, Note_off_c, 1, 45, 0
1, 6381360, Note_on_c, 1, 45, 40
1, 6382080, Note_off_c, 1, 45, 0
1, 6382080, Note_on_c, 1, 45, 40
1, 6382320, Note_off_c, 1, 45, 0
1, 6382320, Note_on_c, 1, 45, 40
1, 6383040, Note_off_c, 1, 45, 0
1, 6383040, Note_on_c, 1, 45, 40
1, 6383280, Note_off_c, 1, 45, 0
1, 6383280, Note_on_c, 1, 45, 40
1, 6383760, Note_off_c, 1, 45, 0
1, 6383760, Note_on_c, 1, 45, 40
1, 6384240, Note_off_c, 1, 45, 0
1, 6384240, Note_on_c, 1, 42, 40
1, 6384960, Note_off_c, 1, 42, 0
1, 6384960, Note_on_c, 1, 42, 40
1, 6385200, Note_off_c, 1, 42, 0
1, 6385200, Note_on_c, 1, 42, 40
1, 6385920, Note_off_c, 1, 42, 0
1, 6385920, Note_on_c, 1, 42, 40
1, 6386160, Note_off_c, 1, 42, 0
1, 6386160, Note_on_c, 1, 38, 40
1, 6386880, Note_off_c, 1, 38, 0
1, 6386880, Note_on_c, 1, 38, 40
1, 6387120, Note_off_c, 1, 38, 0
1, 6387120, Note_on_c, 1, 38, 40
1, 6387840, Note_off_c, 1, 38, 0
1, 6387840, Note_on_c, 1, 40, 40
1, 6388080, Note_off_c, 1, 40, 0
1, 6388080, Note_on_c, 1, 45, 40
1, 6388800, Note_off_c, 1, 45, 0
1, 6388800, Note_on_c, 1, 45, 40
1, 6389040, Note_off_c, 1, 45, 0
1, 6389040, Note_on_c, 1, 40, 40
1, 6390000, Note_off_c, 1, 40, 0
1, 6390000, Note_on_c, 1, 45, 40
1, 6390720, Note_off_c, 1, 45, 0
1, 6390720, Note_on_c, 1, 45, 40
1, 6390960, Note_off_c, 1, 45, 0
1, 6390960, Note_on_c, 1, 40, 40
1, 6391440, Note_off_c, 1, 40, 0
1, 6391440, Note_on_c, 1, 36, 40
1, 6391680, Note_off_c, 1, 36, 0
1, 6391680, Note_on_c, 1, 37, 40
1, 6391920, Note_off_c, 1, 37, 0
1, 6391920, Note_on_c, 1, 33, 40
1, 6392880, Note_off_c, 1, 33, 0
1, 6392880, Note_on_c, 1, 40, 40
1, 6393840, Note_off_c, 1, 40, 0
1, 6393840, Note_on_c, 1, 41, 40
1, 6394560, Note_off_c, 1, 41, 0
1, 6394560, Note_on_c, 1, 41, 40
1, 6394800, Note_off_c, 1, 41, 0
1, 6394800, Note_on_c, 1, 41, 40
1, 6395520, Note_off_c, 1, 41, 0
1, 6395520, Note_on_c, 1, 41, 40
1, 6395760, Note_off_c, 1, 41, 0
1, 6395760, Note_on_c, 1, 45, 40
1, 6396480, Note_off_c, 1, 45, 0
1, 6396480, Note_on_c, 1, 45, 40
1, 6396720, Note_off_c, 1, 45, 0
1, 6396720, Note_on_c, 1, 40, 40
1, 6397680, Note_off_c, 1, 40, 0
1, 6397680, Note_on_c, 1, 45, 40
1, 6398400, Note_off_c, 1, 45, 0
1, 6398400, Note_on_c, 1, 45, 40
1, 6398640, Note_off_c, 1, 45, 0
1, 6398640, Note_on_c, 1, 40, 40
1, 6399120, Note_off_c, 1, 40, 0
1, 6399120, Note_on_c, 1, 45, 40
1, 6399600, Note_off_c, 1, 45, 0
1, 6399600, Note_on_c, 1, 41, 40
1, 6400320, Note_off_c, 1, 41, 0
1, 6400320, Note_on_c, 1, 41, 40
1, 6400560, Note_off_c, 1, 41, 0
1, 6400560, Note_on_c, 1, 41, 40
1, 6401280, Note_off_c, 1, 41, 0
1, 6401280, Note_on_c, 1, 41, 40
1, 6401520, Note_off_c, 1, 41, 0
1, 6401520, Note_on_c, 1, 45, 40
1, 6402240, Note_off_c, 1, 45, 0
1, 6402240, Note_on_c, 1, 45, 40
1, 6402480, Note_off_c, 1, 45, 0
1, 6402480, Note_on_c, 1, 40, 40
1, 6403440, Note_off_c, 1, 40, 0
1, 6403440, Note_on_c, 1, 45, 40
1, 6403680, Note_off_c, 1, 45, 0
1, 6403680, Note_on_c, 1, 45, 40
1, 6403920, Note_off_c, 1, 45, 0
1, 6403920, Note_on_c, 1, 45, 40
1, 6404160, Note_off_c, 1, 45, 0
1, 6404160, Note_on_c, 1, 45, 40
1, 6404400, Note_off_c, 1, 45, 0
1, 6404400, Note_on_c, 1, 45, 40
1, 6404640, Note_off_c, 1, 45, 0
1, 6404640, Note_on_c, 1, 52, 40
1, 6404880, Note_off_c, 1, 52, 0
1, 6404880, Note_on_c, 1, 37, 40
1, 6405120, Note_off_c, 1, 37, 0
1, 6405120, Note_on_c, 1, 40, 40
1, 6405360, Note_off_c, 1, 40, 0
1, 6405360, Note_on_c, 1, 42, 40
1, 6406080, Note_off_c, 1, 42, 0
1, 6406080, Note_on_c, 1, 42, 40
1, 6406320, Note_off_c, 1, 42, 0
1, 6406320, Note_on_c, 1, 42, 40
1, 6407040, Note_off_c, 1, 42, 0
1, 6407040, Note_on_c, 1, 42, 40
1, 6407280, Note_off_c, 1, 42, 0
1, 6407280, Note_on_c, 1, 42, 40
1, 6408000, Note_off_c, 1, 42, 0
1, 6408000, Note_on_c, 1, 42, 40
1, 6408240, Note_off_c, 1, 42, 0
1, 6408240, Note_on_c, 1, 42, 40
1, 6408960, Note_off_c, 1, 42, 0
1, 6408960, Note_on_c, 1, 42, 40
1, 6409200, Note_off_c, 1, 42, 0
1, 6409200, Note_on_c, 1, 45, 40
1, 6409920, Note_off_c, 1, 45, 0
1, 6409920, Note_on_c, 1, 45, 40
1, 6410160, Note_off_c, 1, 45, 0
1, 6410160, Note_on_c, 1, 45, 40
1, 6410880, Note_off_c, 1, 45, 0
1, 6410880, Note_on_c, 1, 45, 40
1, 6411120, Note_off_c, 1, 45, 0
1, 6411120, Note_on_c, 1, 45, 40
1, 6411840, Note_off_c, 1, 45, 0
1, 6411840, Note_on_c, 1, 45, 40
1, 6412080, Note_off_c, 1, 45, 0
1, 6412080, Note_on_c, 1, 44, 40
1, 6412200, Note_off_c, 1, 44, 0
1, 6412200, Note_on_c, 1, 45, 40
1, 6412560, Note_off_c, 1, 45, 0
1, 6412560, Note_on_c, 1, 45, 40
1, 6413040, Note_off_c, 1, 45, 0
1, 6413040, Note_on_c, 1, 42, 40
1, 6413760, Note_off_c, 1, 42, 0
1, 6413760, Note_on_c, 1, 42, 40
1, 6414000, Note_off_c, 1, 42, 0
1, 6414000, Note_on_c, 1, 42, 40
1, 6414720, Note_off_c, 1, 42, 0
1, 6414720, Note_on_c, 1, 42, 40
1, 6414960, Note_off_c, 1, 42, 0
1, 6414960, Note_on_c, 1, 38, 40
1, 6415680, Note_off_c, 1, 38, 0
1, 6415680, Note_on_c, 1, 38, 40
1, 6415920, Note_off_c, 1, 38, 0
1, 6415920, Note_on_c, 1, 38, 40
1, 6416640, Note_off_c, 1, 38, 0
1, 6416640, Note_on_c, 1, 40, 40
1, 6416880, Note_off_c, 1, 40, 0
1, 6416880, Note_on_c, 1, 45, 40
1, 6417600, Note_off_c, 1, 45, 0
1, 6417600, Note_on_c, 1, 45, 40
1, 6417840, Note_off_c, 1, 45, 0
1, 6417840, Note_on_c, 1, 40, 40
1, 6418800, Note_off_c, 1, 40, 0
1, 6418800, Note_on_c, 1, 45, 40
1, 6419280, Note_off_c, 1, 45, 0
1, 6419280, Note_on_c, 1, 45, 40
1, 6419520, Note_off_c, 1, 45, 0
1, 6419520, Note_on_c, 1, 44, 40
1, 6419760, Note_off_c, 1, 44, 0
1, 6419760, Note_on_c, 1, 42, 40
1, 6420000, Note_off_c, 1, 42, 0
1, 6420000, Note_on_c, 1, 40, 40
1, 6420240, Note_off_c, 1, 40, 0
1, 6420240, Note_on_c, 1, 36, 40
1, 6420480, Note_off_c, 1, 36, 0
1, 6420480, Note_on_c, 1, 37, 40
1, 6420720, Note_off_c, 1, 37, 0
1, 6420720, Note_on_c, 1, 33, 40
1, 6421440, Note_off_c, 1, 33, 0
1, 6421440, Note_on_c, 1, 33, 40
1, 6421680, Note_off_c, 1, 33, 0
1, 6421680, Note_on_c, 1, 40, 40
1, 6422160, Note_off_c, 1, 40, 0
1, 6422160, Note_on_c, 1, 45, 40
1, 6422640, Note_off_c, 1, 45, 0
1, 6422640, Note_on_c, 1, 44, 40
1, 6423360, Note_off_c, 1, 44, 0
1, 6423360, Note_on_c, 1, 44, 40
1, 6423600, Note_off_c, 1, 44, 0
1, 6423600, Note_on_c, 1, 44, 40
1, 6424560, Note_off_c, 1, 44, 0
1, 6424560, Note_on_c, 1, 43, 40
1, 6425280, Note_off_c, 1, 43, 0
1, 6425280, Note_on_c, 1, 43, 40
1, 6425520, Note_off_c, 1, 43, 0
1, 6425520, Note_on_c, 1, 43, 40
1, 6426240, Note_off_c, 1, 43, 0
1, 6426240, Note_on_c, 1, 43, 40
1, 6426480, Note_off_c, 1, 43, 0
1, 6426480, Note_on_c, 1, 42, 40
1, 6427200, Note_off_c, 1, 42, 0
1, 6427200, Note_on_c, 1, 42, 40
1, 6427440, Note_off_c, 1, 42, 0
1, 6427440, Note_on_c, 1, 42, 40
1, 6428160, Note_off_c, 1, 42, 0
1, 6428160, Note_on_c, 1, 42, 40
1, 6428400, Note_off_c, 1, 42, 0
1, 6428400, Note_on_c, 1, 38, 40
1, 6429120, Note_off_c, 1, 38, 0
1, 6429120, Note_on_c, 1, 38, 40
1, 6429360, Note_off_c, 1, 38, 0
1, 6429360, Note_on_c, 1, 38, 40
1, 6430320, Note_off_c, 1, 38, 0
1, 6430320, Note_on_c, 1, 40, 40
1, 6431040, Note_off_c, 1, 40, 0
1, 6431040, Note_on_c, 1, 40, 40
1, 6431280, Note_off_c, 1, 40, 0
1, 6431280, Note_on_c, 1, 40, 40
1, 6432240, Note_off_c, 1, 40, 0
1, 6432240, Note_on_c, 1, 47, 40
1, 6432480, Note_off_c, 1, 47, 0
1, 6432480, Note_on_c, 1, 47, 40
1, 6432720, Note_off_c, 1, 47, 0
1, 6432720, Note_on_c, 1, 47, 40
1, 6432960, Note_off_c, 1, 47, 0
1, 6432960, Note_on_c, 1, 47, 40
1, 6433200, Note_off_c, 1, 47, 0
1, 6433200, Note_on_c, 1, 47, 40
1, 6433440, Note_off_c, 1, 47, 0
1, 6433440, Note_on_c, 1, 47, 40
1, 6433680, Note_off_c, 1, 47, 0
1, 6433680, Note_on_c, 1, 47, 40
1, 6433920, Note_off_c, 1, 47, 0
1, 6433920, Note_on_c, 1, 47, 40
1, 6434160, Note_off_c, 1, 47, 0
1, 6434160, Note_on_c, 1, 40, 40
1, 6434400, Note_off_c, 1, 40, 0
1, 6434400, Note_on_c, 1, 40, 40
1, 6434640, Note_off_c, 1, 40, 0
1, 6434640, Note_on_c, 1, 40, 40
1, 6434880, Note_off_c, 1, 40, 0
1, 6434880, Note_on_c, 1, 40, 40
1, 6435120, Note_off_c, 1, 40, 0
1, 6435120, Note_on_c, 1, 40, 40
1, 6436080, Note_off_c, 1, 40, 0
1, 6436080, Note_on_c, 1, 45, 40
1, 6436800, Note_off_c, 1, 45, 0
1, 6436800, Note_on_c, 1, 45, 40
1, 6437040, Note_off_c, 1, 45, 0
1, 6437040, Note_on_c, 1, 40, 40
1, 6437760, Note_off_c, 1, 40, 0
1, 6437760, Note_on_c, 1, 40, 40
1, 6438000, Note_off_c, 1, 40, 0
1, 6438000, Note_on_c, 1, 41, 40
1, 6438720, Note_off_c, 1, 41, 0
1, 6438720, Note_on_c, 1, 41, 40
1, 6438960, Note_off_c, 1, 41, 0
1, 6438960, Note_on_c, 1, 41, 40
1, 6439680, Note_off_c, 1, 41, 0
1, 6439680, Note_on_c, 1, 41, 40
1, 6439920, Note_off_c, 1, 41, 0
1, 6439920, Note_on_c, 1, 45, 40
1, 6440640, Note_off_c, 1, 45, 0
1, 6440640, Note_on_c, 1, 45, 40
1, 6440880, Note_off_c, 1, 45, 0
1, 6440880, Note_on_c, 1, 40, 40
1, 6441840, Note_off_c, 1, 40, 0
1, 6441840, Note_on_c, 1, 45, 40
1, 6442560, Note_off_c, 1, 45, 0
1, 6442560, Note_on_c, 1, 45, 40
1, 6442800, Note_off_c, 1, 45, 0
1, 6442800, Note_on_c, 1, 40, 40
1, 6443520, Note_off_c, 1, 40, 0
1, 6443520, Note_on_c, 1, 45, 40
1, 6443760, Note_off_c, 1, 45, 0
1, 6443760, Note_on_c, 1, 41, 40
1, 6444480, Note_off_c, 1, 41, 0
1, 6444480, Note_on_c, 1, 41, 40
1, 6444720, Note_off_c, 1, 41, 0
1, 6444720, Note_on_c, 1, 41, 40
1, 6445440, Note_off_c, 1, 41, 0
1, 6445440, Note_on_c, 1, 41, 40
1, 6445680, Note_off_c, 1, 41, 0
1, 6445680, Note_on_c, 1, 45, 40
1, 6446400, Note_off_c, 1, 45, 0
1, 6446400, Note_on_c, 1, 45, 40
1, 6446640, Note_off_c, 1, 45, 0
1, 6446640, Note_on_c, 1, 40, 40
1, 6446880, Note_off_c, 1, 40, 0
1, 6446880, Note_on_c, 1, 45, 40
1, 6447120, Note_off_c, 1, 45, 0
1, 6447120, Note_on_c, 1, 45, 40
1, 6447360, Note_off_c, 1, 45, 0
1, 6447360, Note_on_c, 1, 45, 40
1, 6447600, Note_off_c, 1, 45, 0
1, 6447600, Note_on_c, 1, 45, 40
1, 6447840, Note_off_c, 1, 45, 0
1, 6447840, Note_on_c, 1, 45, 40
1, 6448080, Note_off_c, 1, 45, 0
1, 6448080, Note_on_c, 1, 45, 40
1, 6448320, Note_off_c, 1, 45, 0
1, 6448320, Note_on_c, 1, 45, 40
1, 6448560, Note_off_c, 1, 45, 0
1, 6448560, Note_on_c, 1, 45, 40
1, 6448800, Note_off_c, 1, 45, 0
1, 6448800, Note_on_c, 1, 40, 40
1, 6449040, Note_off_c, 1, 40, 0
1, 6449040, Note_on_c, 1, 37, 40
1, 6449280, Note_off_c, 1, 37, 0
1, 6449280, Note_on_c, 1, 40, 40
1, 6449520, Note_off_c, 1, 40, 0
1, 6449520, Note_on_c, 1, 42, 40
1, 6450240, Note_off_c, 1, 42, 0
1, 6450240, Note_on_c, 1, 42, 40
1, 6450480, Note_off_c, 1, 42, 0
1, 6450480, Note_on_c, 1, 42, 40
1, 6451200, Note_off_c, 1, 42, 0
1, 6451200, Note_on_c, 1, 42, 40
1, 6451440, Note_off_c, 1, 42, 0
1, 6451440, Note_on_c, 1, 42, 40
1, 6452160, Note_off_c, 1, 42, 0
1, 6452160, Note_on_c, 1, 42, 40
1, 6452400, Note_off_c, 1, 42, 0
1, 6452400, Note_on_c, 1, 42, 40
1, 6453120, Note_off_c, 1, 42, 0
1, 6453120, Note_on_c, 1, 42, 40
1, 6453360, Note_off_c, 1, 42, 0
1, 6453360, Note_on_c, 1, 45, 40
1, 6454080, Note_off_c, 1, 45, 0
1, 6454080, Note_on_c, 1, 45, 40
1, 6454320, Note_off_c, 1, 45, 0
1, 6454320, Note_on_c, 1, 45, 40
1, 6455040, Note_off_c, 1, 45, 0
1, 6455040, Note_on_c, 1, 45, 40
1, 6455280, Note_off_c, 1, 45, 0
1, 6455280, Note_on_c, 1, 45, 40
1, 6456000, Note_off_c, 1, 45, 0
1, 6456000, Note_on_c, 1, 45, 40
1, 6456240, Note_off_c, 1, 45, 0
1, 6456240, Note_on_c, 1, 44, 40
1, 6456360, Note_off_c, 1, 44, 0
1, 6456360, Note_on_c, 1, 45, 40
1, 6456720, Note_off_c, 1, 45, 0
1, 6456720, Note_on_c, 1, 45, 40
1, 6457200, Note_off_c, 1, 45, 0
1, 6457200, Note_on_c, 1, 42, 40
1, 6457920, Note_off_c, 1, 42, 0
1, 6457920, Note_on_c, 1, 42, 40
1, 6458160, Note_off_c, 1, 42, 0
1, 6458160, Note_on_c, 1, 42, 40
1, 6458880, Note_off_c, 1, 42, 0
1, 6458880, Note_on_c, 1, 42, 40
1, 6459120, Note_off_c, 1, 42, 0
1, 6459120, Note_on_c, 1, 38, 40
1, 6459840, Note_off_c, 1, 38, 0
1, 6459840, Note_on_c, 1, 38, 40
1, 6460080, Note_off_c, 1, 38, 0
1, 6460080, Note_on_c, 1, 38, 40
1, 6460800, Note_off_c, 1, 38, 0
1, 6460800, Note_on_c, 1, 40, 40
1, 6461040, Note_off_c, 1, 40, 0
1, 6461040, Note_on_c, 1, 45, 40
1, 6461760, Note_off_c, 1, 45, 0
1, 6461760, Note_on_c, 1, 45, 40
1, 6462000, Note_off_c, 1, 45, 0
1, 6462000, Note_on_c, 1, 40, 40
1, 6462960, Note_off_c, 1, 40, 0
1, 6462960, Note_on_c, 1, 45, 40
1, 6463440, Note_off_c, 1, 45, 0
1, 6463440, Note_on_c, 1, 45, 40
1, 6463680, Note_off_c, 1, 45, 0
1, 6463680, Note_on_c, 1, 44, 40
1, 6463920, Note_off_c, 1, 44, 0
1, 6463920, Note_on_c, 1, 42, 40
1, 6464160, Note_off_c, 1, 42, 0
1, 6464160, Note_on_c, 1, 40, 40
1, 6464400, Note_off_c, 1, 40, 0
1, 6464400, Note_on_c, 1, 36, 40
1, 6464640, Note_off_c, 1, 36, 0
1, 6464640, Note_on_c, 1, 37, 40
1, 6464880, Note_off_c, 1, 37, 0
1, 6464880, Note_on_c, 1, 33, 40
1, 6465600, Note_off_c, 1, 33, 0
1, 6465600, Note_on_c, 1, 33, 40
1, 6465840, Note_off_c, 1, 33, 0
1, 6465840, Note_on_c, 1, 40, 40
1, 6466560, Note_off_c, 1, 40, 0
1, 6466560, Note_on_c, 1, 45, 40
1, 6466800, Note_off_c, 1, 45, 0
1, 6466800, Note_on_c, 1, 44, 40
1, 6467520, Note_off_c, 1, 44, 0
1, 6467520, Note_on_c, 1, 44, 40
1, 6467760, Note_off_c, 1, 44, 0
1, 6467760, Note_on_c, 1, 44, 40
1, 6468480, Note_off_c, 1, 44, 0
1, 6468480, Note_on_c, 1, 44, 40
1, 6468720, Note_off_c, 1, 44, 0
1, 6468720, Note_on_c, 1, 43, 40
1, 6469440, Note_off_c, 1, 43, 0
1, 6469440, Note_on_c, 1, 43, 40
1, 6469680, Note_off_c, 1, 43, 0
1, 6469680, Note_on_c, 1, 43, 40
1, 6470400, Note_off_c, 1, 43, 0
1, 6470400, Note_on_c, 1, 43, 40
1, 6470640, Note_off_c, 1, 43, 0
1, 6470640, Note_on_c, 1, 42, 40
1, 6471360, Note_off_c, 1, 42, 0
1, 6471360, Note_on_c, 1, 42, 40
1, 6471600, Note_off_c, 1, 42, 0
1, 6471600, Note_on_c, 1, 42, 40
1, 6472320, Note_off_c, 1, 42, 0
1, 6472320, Note_on_c, 1, 42, 40
1, 6472560, Note_off_c, 1, 42, 0
1, 6472560, Note_on_c, 1, 38, 40
1, 6473280, Note_off_c, 1, 38, 0
1, 6473280, Note_on_c, 1, 38, 40
1, 6473520, Note_off_c, 1, 38, 0
1, 6473520, Note_on_c, 1, 38, 40
1, 6474480, Note_off_c, 1, 38, 0
1, 6474480, Note_on_c, 1, 40, 40
1, 6475200, Note_off_c, 1, 40, 0
1, 6475200, Note_on_c, 1, 40, 40
1, 6475440, Note_off_c, 1, 40, 0
1, 6475440, Note_on_c, 1, 40, 40
1, 6475920, Note_off_c, 1, 40, 0
1, 6475920, Note_on_c, 1, 40, 40
1, 6476400, Note_off_c, 1, 40, 0
1, 6476400, Note_on_c, 1, 47, 40
1, 6476640, Note_off_c, 1, 47, 0
1, 6476640, Note_on_c, 1, 47, 40
1, 6476880, Note_off_c, 1, 47, 0
1, 6476880, Note_on_c, 1, 47, 40
1, 6477120, Note_off_c, 1, 47, 0
1, 6477120, Note_on_c, 1, 47, 40
1, 6477360, Note_off_c, 1, 47, 0
1, 6477360, Note_on_c, 1, 47, 40
1, 6477600, Note_off_c, 1, 47, 0
1, 6477600, Note_on_c, 1, 47, 40
1, 6477840, Note_off_c, 1, 47, 0
1, 6477840, Note_on_c, 1, 47, 40
1, 6478080, Note_off_c, 1, 47, 0
1, 6478080, Note_on_c, 1, 47, 40
1, 6478320, Note_off_c, 1, 47, 0
1, 6478320, Note_on_c, 1, 40, 40
1, 6478560, Note_off_c, 1, 40, 0
1, 6478560, Note_on_c, 1, 40, 40
1, 6478800, Note_off_c, 1, 40, 0
1, 6478800, Note_on_c, 1, 40, 40
1, 6479040, Note_off_c, 1, 40, 0
1, 6479040, Note_on_c, 1, 40, 40
1, 6479280, Note_off_c, 1, 40, 0
1, 6479280, Note_on_c, 1, 40, 40
1, 6480240, Note_off_c, 1, 40, 0
1, 6480240, Note_on_c, 1, 45, 40
1, 6480960, Note_off_c, 1, 45, 0
1, 6480960, Note_on_c, 1, 45, 40
1, 6481200, Note_off_c, 1, 45, 0
1, 6481200, Note_on_c, 1, 40, 40
1, 6481920, Note_off_c, 1, 40, 0
1, 6481920, Note_on_c, 1, 40, 40
1, 6482160, Note_off_c, 1, 40, 0
1, 6482160, Note_on_c, 1, 41, 40
1, 6482880, Note_off_c, 1, 41, 0
1, 6482880, Note_on_c, 1, 41, 40
1, 6483120, Note_off_c, 1, 41, 0
1, 6483120, Note_on_c, 1, 41, 40
1, 6483840, Note_off_c, 1, 41, 0
1, 6483840, Note_on_c, 1, 41, 40
1, 6484080, Note_off_c, 1, 41, 0
1, 6484080, Note_on_c, 1, 45, 40
1, 6484800, Note_off_c, 1, 45, 0
1, 6484800, Note_on_c, 1, 45, 40
1, 6485040, Note_off_c, 1, 45, 0
1, 6485040, Note_on_c, 1, 40, 40
1, 6486000, Note_off_c, 1, 40, 0
1, 6486000, Note_on_c, 1, 45, 40
1, 6486720, Note_off_c, 1, 45, 0
1, 6486720, Note_on_c, 1, 45, 40
1, 6486960, Note_off_c, 1, 45, 0
1, 6486960, Note_on_c, 1, 40, 40
1, 6487680, Note_off_c, 1, 40, 0
1, 6487680, Note_on_c, 1, 45, 40
1, 6487920, Note_off_c, 1, 45, 0
1, 6487920, Note_on_c, 1, 41, 40
1, 6488640, Note_off_c, 1, 41, 0
1, 6488640, Note_on_c, 1, 41, 40
1, 6488880, Note_off_c, 1, 41, 0
1, 6488880, Note_on_c, 1, 41, 40
1, 6489600, Note_off_c, 1, 41, 0
1, 6489600, Note_on_c, 1, 41, 40
1, 6489840, Note_off_c, 1, 41, 0
1, 6489840, Note_on_c, 1, 45, 40
1, 6490560, Note_off_c, 1, 45, 0
1, 6490560, Note_on_c, 1, 45, 40
1, 6490800, Note_off_c, 1, 45, 0
1, 6490800, Note_on_c, 1, 40, 40
1, 6491040, Note_off_c, 1, 40, 0
1, 6491040, Note_on_c, 1, 45, 40
1, 6491280, Note_off_c, 1, 45, 0
1, 6491280, Note_on_c, 1, 45, 40
1, 6491520, Note_off_c, 1, 45, 0
1, 6491520, Note_on_c, 1, 45, 40
1, 6491760, Note_off_c, 1, 45, 0
1, 6491760, Note_on_c, 1, 45, 40
1, 6492000, Note_off_c, 1, 45, 0
1, 6492000, Note_on_c, 1, 45, 40
1, 6492240, Note_off_c, 1, 45, 0
1, 6492240, Note_on_c, 1, 45, 40
1, 6492480, Note_off_c, 1, 45, 0
1, 6492480, Note_on_c, 1, 45, 40
1, 6492720, Note_off_c, 1, 45, 0
1, 6492720, Note_on_c, 1, 45, 40
1, 6492960, Note_off_c, 1, 45, 0
1, 6492960, Note_on_c, 1, 40, 40
1, 6493200, Note_off_c, 1, 40, 0
1, 6493200, Note_on_c, 1, 37, 40
1, 6493440, Note_off_c, 1, 37, 0
1, 6493440, Note_on_c, 1, 40, 40
1, 6493680, Note_off_c, 1, 40, 0
1, 6493680, Note_on_c, 1, 42, 40
1, 6494400, Note_off_c, 1, 42, 0
1, 6494400, Note_on_c, 1, 42, 40
1, 6494640, Note_off_c, 1, 42, 0
1, 6494640, Note_on_c, 1, 42, 40
1, 6495360, Note_off_c, 1, 42, 0
1, 6495360, Note_on_c, 1, 42, 40
1, 6495600, Note_off_c, 1, 42, 0
1, 6495600, Note_on_c, 1, 42, 40
1, 6496320, Note_off_c, 1, 42, 0
1, 6496320, Note_on_c, 1, 42, 40
1, 6496560, Note_off_c, 1, 42, 0
1, 6496560, Note_on_c, 1, 42, 40
1, 6497280, Note_off_c, 1, 42, 0
1, 6497280, Note_on_c, 1, 42, 40
1, 6497520, Note_off_c, 1, 42, 0
1, 6497520, Note_on_c, 1, 45, 40
1, 6498240, Note_off_c, 1, 45, 0
1, 6498240, Note_on_c, 1, 45, 40
1, 6498480, Note_off_c, 1, 45, 0
1, 6498480, Note_on_c, 1, 45, 40
1, 6499200, Note_off_c, 1, 45, 0
1, 6499200, Note_on_c, 1, 45, 40
1, 6499440, Note_off_c, 1, 45, 0
1, 6499440, Note_on_c, 1, 45, 40
1, 6500160, Note_off_c, 1, 45, 0
1, 6500160, Note_on_c, 1, 45, 40
1, 6500400, Note_off_c, 1, 45, 0
1, 6500400, Note_on_c, 1, 44, 40
1, 6500520, Note_off_c, 1, 44, 0
1, 6500520, Note_on_c, 1, 45, 40
1, 6500880, Note_off_c, 1, 45, 0
1, 6500880, Note_on_c, 1, 45, 40
1, 6501360, Note_off_c, 1, 45, 0
1, 6501360, Note_on_c, 1, 42, 40
1, 6502080, Note_off_c, 1, 42, 0
1, 6502080, Note_on_c, 1, 42, 40
1, 6502320, Note_off_c, 1, 42, 0
1, 6502320, Note_on_c, 1, 42, 40
1, 6503040, Note_off_c, 1, 42, 0
1, 6503040, Note_on_c, 1, 42, 40
1, 6503280, Note_off_c, 1, 42, 0
1, 6503280, Note_on_c, 1, 38, 40
1, 6505200, Note_off_c, 1, 38, 0
1, 6505680, Note_on_c, 1, 48, 40
1, 6506160, Note_off_c, 1, 48, 0
1, 6506160, Note_on_c, 1, 47, 40
1, 6506640, Note_off_c, 1, 47, 0
1, 6506640, Note_on_c, 1, 46, 40
1, 6507120, Note_off_c, 1, 46, 0
1, 6507120, Note_on_c, 1, 45, 40
1, 6509040, Note_off_c, 1, 45, 0
1, 6509040, Note_on_c, 1, 45, 40
1, 6510960, Note_off_c, 1, 45, 0
1, 6514800, Note_on_c, 1, 40, 40
1, 6515160, Note_off_c, 1, 40, 0
1, 6515280, Note_on_c, 1, 40, 40
1, 6515640, Note_off_c, 1, 40, 0
1, 6515760, Note_on_c, 1, 40, 40
1, 6516000, Note_off_c, 1, 40, 0
1, 6516720, Note_on_c, 1, 33, 40
1, 6517080, Note_off_c, 1, 33, 0
1, 6517200, Note_on_c, 1, 33, 40
1, 6517560, Note_off_c, 1, 33, 0
1, 6517680, Note_on_c, 1, 33, 40
1, 6517920, Note_off_c, 1, 33, 0
1, 6518640, Note_on_c, 1, 40, 40
1, 6519000, Note_off_c, 1, 40, 0
1, 6519120, Note_on_c, 1, 40, 40
1, 6519480, Note_off_c, 1, 40, 0
1, 6519600, Note_on_c, 1, 40, 40
1, 6519960, Note_off_c, 1, 40, 0
1, 6520080, Note_on_c, 1, 40, 40
1, 6520440, Note_off_c, 1, 40, 0
1, 6520560, Note_on_c, 1, 40, 40
1, 6520800, Note_off_c, 1, 40, 0
1, 6520920, Note_on_c, 1, 33, 40
1, 6521040, Note_off_c, 1, 33, 0
1, 6521040, Note_on_c, 1, 34, 40
1, 6521280, Note_off_c, 1, 34, 0
1, 6521280, Note_on_c, 1, 35, 40
1, 6522360, Note_off_c, 1, 35, 0
1, 6522480, Note_on_c, 1, 28, 40
1, 6522840, Note_off_c, 1, 28, 0
1, 6522960, Note_on_c, 1, 32, 40
1, 6523320, Note_off_c, 1, 32, 0
1, 6523440, Note_on_c, 1, 35, 40
1, 6523800, Note_off_c, 1, 35, 0
1, 6523920, Note_on_c, 1, 37, 40
1, 6524280, Note_off_c, 1, 37, 0
1, 6524400, Note_on_c, 1, 40, 40
1, 6524760, Note_off_c, 1, 40, 0
1, 6524880, Note_on_c, 1, 37, 40
1, 6525240, Note_off_c, 1, 37, 0
1, 6525360, Note_on_c, 1, 35, 40
1, 6525720, Note_off_c, 1, 35, 0
1, 6525840, Note_on_c, 1, 32, 40
1, 6526200, Note_off_c, 1, 32, 0
1, 6526320, Note_on_c, 1, 28, 40
1, 6526680, Note_off_c, 1, 28, 0
1, 6526800, Note_on_c, 1, 32, 40
1, 6527160, Note_off_c, 1, 32, 0
1, 6527280, Note_on_c, 1, 35, 40
1, 6527640, Note_off_c, 1, 35, 0
1, 6527760, Note_on_c, 1, 37, 40
1, 6528120, Note_off_c, 1, 37, 0
1, 6528240, Note_on_c, 1, 40, 40
1, 6528600, Note_off_c, 1, 40, 0
1, 6528720, Note_on_c, 1, 37, 40
1, 6529080, Note_off_c, 1, 37, 0
1, 6529200, Note_on_c, 1, 35, 40
1, 6529560, Note_off_c, 1, 35, 0
1, 6529680, Note_on_c, 1, 32, 40
1, 6530040, Note_off_c, 1, 32, 0
1, 6530160, Note_on_c, 1, 33, 40
1, 6530520, Note_off_c, 1, 33, 0
1, 6530640, Note_on_c, 1, 37, 40
1, 6531000, Note_off_c, 1, 37, 0
1, 6531120, Note_on_c, 1, 40, 40
1, 6531480, Note_off_c, 1, 40, 0
1, 6531600, Note_on_c, 1, 42, 40
1, 6531960, Note_off_c, 1, 42, 0
1, 6531960, Note_on_c, 1, 40, 40
1, 6532080, Note_off_c, 1, 40, 0
1, 6532080, Note_on_c, 1, 33, 40
1, 6532440, Note_off_c, 1, 33, 0
1, 6532560, Note_on_c, 1, 42, 40
1, 6532920, Note_off_c, 1, 42, 0
1, 6533040, Note_on_c, 1, 40, 40
1, 6533400, Note_off_c, 1, 40, 0
1, 6533520, Note_on_c, 1, 37, 40
1, 6533880, Note_off_c, 1, 37, 0
1, 6534000, Note_on_c, 1, 40, 40
1, 6534360, Note_off_c, 1, 40, 0
1, 6534480, Note_on_c, 1, 32, 40
1, 6534840, Note_off_c, 1, 32, 0
1, 6534960, Note_on_c, 1, 35, 40
1, 6535320, Note_off_c, 1, 35, 0
1, 6535440, Note_on_c, 1, 37, 40
1, 6535800, Note_off_c, 1, 37, 0
1, 6535920, Note_on_c, 1, 40, 40
1, 6536280, Note_off_c, 1, 40, 0
1, 6536400, Note_on_c, 1, 37, 40
1, 6536760, Note_off_c, 1, 37, 0
1, 6536880, Note_on_c, 1, 35, 40
1, 6537240, Note_off_c, 1, 35, 0
1, 6537360, Note_on_c, 1, 32, 40
1, 6537720, Note_off_c, 1, 32, 0
1, 6537840, Note_on_c, 1, 35, 40
1, 6538200, Note_off_c, 1, 35, 0
1, 6538320, Note_on_c, 1, 39, 40
1, 6538680, Note_off_c, 1, 39, 0
1, 6538800, Note_on_c, 1, 42, 40
1, 6539160, Note_off_c, 1, 42, 0
1, 6539280, Note_on_c, 1, 39, 40
1, 6539640, Note_off_c, 1, 39, 0
1, 6539760, Note_on_c, 1, 33, 40
1, 6540120, Note_off_c, 1, 33, 0
1, 6540240, Note_on_c, 1, 37, 40
1, 6540600, Note_off_c, 1, 37, 0
1, 6540720, Note_on_c, 1, 40, 40
1, 6541080, Note_off_c, 1, 40, 0
1, 6541200, Note_on_c, 1, 37, 40
1, 6541560, Note_off_c, 1, 37, 0
1, 6541680, Note_on_c, 1, 28, 40
1, 6542040, Note_off_c, 1, 28, 0
1, 6542160, Note_on_c, 1, 32, 40
1, 6542520, Note_off_c, 1, 32, 0
1, 6542640, Note_on_c, 1, 33, 40
1, 6543000, Note_off_c, 1, 33, 0
1, 6543120, Note_on_c, 1, 34, 40
1, 6543480, Note_off_c, 1, 34, 0
1, 6543600, Note_on_c, 1, 35, 40
1, 6543960, Note_off_c, 1, 35, 0
1, 6544080, Note_on_c, 1, 33, 40
1, 6544440, Note_off_c, 1, 33, 0
1, 6544560, Note_on_c, 1, 32, 40
1, 6544920, Note_off_c, 1, 32, 0
1, 6545040, Note_on_c, 1, 30, 40
1, 6545400, Note_off_c, 1, 30, 0
1, 6545520, Note_on_c, 1, 28, 40
1, 6545880, Note_off_c, 1, 28, 0
1, 6546000, Note_on_c, 1, 32, 40
1, 6546360, Note_off_c, 1, 32, 0
1, 6546480, Note_on_c, 1, 35, 40
1, 6546840, Note_off_c, 1, 35, 0
1, 6546960, Note_on_c, 1, 37, 40
1, 6547320, Note_off_c, 1, 37, 0
1, 6547440, Note_on_c, 1, 40, 40
1, 6547800, Note_off_c, 1, 40, 0
1, 6547920, Note_on_c, 1, 37, 40
1, 6548280, Note_off_c, 1, 37, 0
1, 6548400, Note_on_c, 1, 35, 40
1, 6548760, Note_off_c, 1, 35, 0
1, 6548880, Note_on_c, 1, 32, 40
1, 6549240, Note_off_c, 1, 32, 0
1, 6549360, Note_on_c, 1, 28, 40
1, 6549720, Note_off_c, 1, 28, 0
1, 6549840, Note_on_c, 1, 32, 40
1, 6550200, Note_off_c, 1, 32, 0
1, 6550320, Note_on_c, 1, 35, 40
1, 6550680, Note_off_c, 1, 35, 0
1, 6550800, Note_on_c, 1, 37, 40
1, 6551160, Note_off_c, 1, 37, 0
1, 6551280, Note_on_c, 1, 40, 40
1, 6551640, Note_off_c, 1, 40, 0
1, 6551760, Note_on_c, 1, 37, 40
1, 6552120, Note_off_c, 1, 37, 0
1, 6552240, Note_on_c, 1, 35, 40
1, 6552600, Note_off_c, 1, 35, 0
1, 6552720, Note_on_c, 1, 32, 40
1, 6553080, Note_off_c, 1, 32, 0
1, 6553200, Note_on_c, 1, 33, 40
1, 6553560, Note_off_c, 1, 33, 0
1, 6553680, Note_on_c, 1, 37, 40
1, 6554040, Note_off_c, 1, 37, 0
1, 6554160, Note_on_c, 1, 40, 40
1, 6554520, Note_off_c, 1, 40, 0
1, 6554640, Note_on_c, 1, 42, 40
1, 6555000, Note_off_c, 1, 42, 0
1, 6555000, Note_on_c, 1, 40, 40
1, 6555120, Note_off_c, 1, 40, 0
1, 6555120, Note_on_c, 1, 33, 40
1, 6555480, Note_off_c, 1, 33, 0
1, 6555600, Note_on_c, 1, 42, 40
1, 6555960, Note_off_c, 1, 42, 0
1, 6556080, Note_on_c, 1, 40, 40
1, 6556440, Note_off_c, 1, 40, 0
1, 6556560, Note_on_c, 1, 37, 40
1, 6556920, Note_off_c, 1, 37, 0
1, 6557040, Note_on_c, 1, 40, 40
1, 6557400, Note_off_c, 1, 40, 0
1, 6557520, Note_on_c, 1, 32, 40
1, 6557880, Note_off_c, 1, 32, 0
1, 6558000, Note_on_c, 1, 35, 40
1, 6558360, Note_off_c, 1, 35, 0
1, 6558480, Note_on_c, 1, 37, 40
1, 6558840, Note_off_c, 1, 37, 0
1, 6558960, Note_on_c, 1, 40, 40
1, 6559320, Note_off_c, 1, 40, 0
1, 6559440, Note_on_c, 1, 37, 40
1, 6559800, Note_off_c, 1, 37, 0
1, 6559920, Note_on_c, 1, 35, 40
1, 6560280, Note_off_c, 1, 35, 0
1, 6560400, Note_on_c, 1, 32, 40
1, 6560760, Note_off_c, 1, 32, 0
1, 6560880, Note_on_c, 1, 35, 40
1, 6561240, Note_off_c, 1, 35, 0
1, 6561360, Note_on_c, 1, 39, 40
1, 6561720, Note_off_c, 1, 39, 0
1, 6561840, Note_on_c, 1, 42, 40
1, 6562200, Note_off_c, 1, 42, 0
1, 6562320, Note_on_c, 1, 39, 40
1, 6562680, Note_off_c, 1, 39, 0
1, 6562800, Note_on_c, 1, 33, 40
1, 6563160, Note_off_c, 1, 33, 0
1, 6563280, Note_on_c, 1, 37, 40
1, 6563640, Note_off_c, 1, 37, 0
1, 6563760, Note_on_c, 1, 38, 40
1, 6564120, Note_off_c, 1, 38, 0
1, 6564240, Note_on_c, 1, 39, 40
1, 6564600, Note_off_c, 1, 39, 0
1, 6564720, Note_on_c, 1, 40, 40
1, 6565080, Note_off_c, 1, 40, 0
1, 6565200, Note_on_c, 1, 38, 40
1, 6565560, Note_off_c, 1, 38, 0
1, 6565680, Note_on_c, 1, 37, 40
1, 6566040, Note_off_c, 1, 37, 0
1, 6566160, Note_on_c, 1, 36, 40
1, 6566520, Note_off_c, 1, 36, 0
1, 6566640, Note_on_c, 1, 35, 40
1, 6567000, Note_off_c, 1, 35, 0
1, 6567120, Note_on_c, 1, 35, 40
1, 6567480, Note_off_c, 1, 35, 0
1, 6567600, Note_on_c, 1, 35, 40
1, 6567960, Note_off_c, 1, 35, 0
1, 6568080, Note_on_c, 1, 35, 40
1, 6568440, Note_off_c, 1, 35, 0
1, 6568560, Note_on_c, 1, 28, 40
1, 6568920, Note_off_c, 1, 28, 0
1, 6569040, Note_on_c, 1, 32, 40
1, 6569400, Note_off_c, 1, 32, 0
1, 6569520, Note_on_c, 1, 35, 40
1, 6569880, Note_off_c, 1, 35, 0
1, 6570000, Note_on_c, 1, 37, 40
1, 6570360, Note_off_c, 1, 37, 0
1, 6570480, Note_on_c, 1, 40, 40
1, 6570840, Note_off_c, 1, 40, 0
1, 6570960, Note_on_c, 1, 37, 40
1, 6571320, Note_off_c, 1, 37, 0
1, 6571440, Note_on_c, 1, 35, 40
1, 6571800, Note_off_c, 1, 35, 0
1, 6571920, Note_on_c, 1, 32, 40
1, 6572280, Note_off_c, 1, 32, 0
1, 6572400, Note_on_c, 1, 28, 40
1, 6572760, Note_off_c, 1, 28, 0
1, 6572880, Note_on_c, 1, 32, 40
1, 6573240, Note_off_c, 1, 32, 0
1, 6573360, Note_on_c, 1, 35, 40
1, 6573720, Note_off_c, 1, 35, 0
1, 6573840, Note_on_c, 1, 37, 40
1, 6574200, Note_off_c, 1, 37, 0
1, 6574320, Note_on_c, 1, 40, 40
1, 6574680, Note_off_c, 1, 40, 0
1, 6574800, Note_on_c, 1, 37, 40
1, 6575160, Note_off_c, 1, 37, 0
1, 6575280, Note_on_c, 1, 35, 40
1, 6575640, Note_off_c, 1, 35, 0
1, 6575760, Note_on_c, 1, 32, 40
1, 6576120, Note_off_c, 1, 32, 0
1, 6576240, Note_on_c, 1, 33, 40
1, 6576600, Note_off_c, 1, 33, 0
1, 6576720, Note_on_c, 1, 37, 40
1, 6577080, Note_off_c, 1, 37, 0
1, 6577200, Note_on_c, 1, 40, 40
1, 6577560, Note_off_c, 1, 40, 0
1, 6577680, Note_on_c, 1, 42, 40
1, 6578040, Note_off_c, 1, 42, 0
1, 6578160, Note_on_c, 1, 45, 40
1, 6578520, Note_off_c, 1, 45, 0
1, 6578640, Note_on_c, 1, 42, 40
1, 6579000, Note_off_c, 1, 42, 0
1, 6579120, Note_on_c, 1, 40, 40
1, 6579480, Note_off_c, 1, 40, 0
1, 6579600, Note_on_c, 1, 37, 40
1, 6579960, Note_off_c, 1, 37, 0
1, 6580080, Note_on_c, 1, 28, 40
1, 6580440, Note_off_c, 1, 28, 0
1, 6580560, Note_on_c, 1, 32, 40
1, 6580920, Note_off_c, 1, 32, 0
1, 6581040, Note_on_c, 1, 35, 40
1, 6581400, Note_off_c, 1, 35, 0
1, 6581520, Note_on_c, 1, 37, 40
1, 6581880, Note_off_c, 1, 37, 0
1, 6582000, Note_on_c, 1, 40, 40
1, 6582360, Note_off_c, 1, 40, 0
1, 6582480, Note_on_c, 1, 37, 40
1, 6582840, Note_off_c, 1, 37, 0
1, 6582960, Note_on_c, 1, 35, 40
1, 6583320, Note_off_c, 1, 35, 0
1, 6583440, Note_on_c, 1, 32, 40
1, 6583800, Note_off_c, 1, 32, 0
1, 6583920, Note_on_c, 1, 35, 40
1, 6584280, Note_off_c, 1, 35, 0
1, 6584400, Note_on_c, 1, 39, 40
1, 6584760, Note_off_c, 1, 39, 0
1, 6584880, Note_on_c, 1, 42, 40
1, 6585240, Note_off_c, 1, 42, 0
1, 6585360, Note_on_c, 1, 39, 40
1, 6585720, Note_off_c, 1, 39, 0
1, 6585840, Note_on_c, 1, 33, 40
1, 6586200, Note_off_c, 1, 33, 0
1, 6586320, Note_on_c, 1, 37, 40
1, 6586680, Note_off_c, 1, 37, 0
1, 6586800, Note_on_c, 1, 38, 40
1, 6587160, Note_off_c, 1, 38, 0
1, 6587280, Note_on_c, 1, 39, 40
1, 6587640, Note_off_c, 1, 39, 0
1, 6587760, Note_on_c, 1, 40, 40
1, 6588120, Note_off_c, 1, 40, 0
1, 6588240, Note_on_c, 1, 32, 40
1, 6588600, Note_off_c, 1, 32, 0
1, 6588720, Note_on_c, 1, 33, 40
1, 6589080, Note_off_c, 1, 33, 0
1, 6589200, Note_on_c, 1, 34, 40
1, 6589560, Note_off_c, 1, 34, 0
1, 6589680, Note_on_c, 1, 35, 40
1, 6590040, Note_off_c, 1, 35, 0
1, 6591600, Note_on_c, 1, 28, 40
1, 6591960, Note_off_c, 1, 28, 0
1, 6592080, Note_on_c, 1, 32, 40
1, 6592440, Note_off_c, 1, 32, 0
1, 6592560, Note_on_c, 1, 35, 40
1, 6592920, Note_off_c, 1, 35, 0
1, 6593040, Note_on_c, 1, 37, 40
1, 6593400, Note_off_c, 1, 37, 0
1, 6593520, Note_on_c, 1, 40, 40
1, 6593880, Note_off_c, 1, 40, 0
1, 6594000, Note_on_c, 1, 37, 40
1, 6594360, Note_off_c, 1, 37, 0
1, 6594480, Note_on_c, 1, 35, 40
1, 6594840, Note_off_c, 1, 35, 0
1, 6594960, Note_on_c, 1, 32, 40
1, 6595320, Note_off_c, 1, 32, 0
1, 6595440, Note_on_c, 1, 28, 40
1, 6595800, Note_off_c, 1, 28, 0
1, 6595920, Note_on_c, 1, 32, 40
1, 6596280, Note_off_c, 1, 32, 0
1, 6596400, Note_on_c, 1, 35, 40
1, 6596760, Note_off_c, 1, 35, 0
1, 6596880, Note_on_c, 1, 37, 40
1, 6597240, Note_off_c, 1, 37, 0
1, 6597360, Note_on_c, 1, 40, 40
1, 6597720, Note_off_c, 1, 40, 0
1, 6597840, Note_on_c, 1, 37, 40
1, 6598200, Note_off_c, 1, 37, 0
1, 6598320, Note_on_c, 1, 35, 40
1, 6598680, Note_off_c, 1, 35, 0
1, 6598800, Note_on_c, 1, 32, 40
1, 6599160, Note_off_c, 1, 32, 0
1, 6599280, Note_on_c, 1, 33, 40
1, 6599640, Note_off_c, 1, 33, 0
1, 6599760, Note_on_c, 1, 37, 40
1, 6600120, Note_off_c, 1, 37, 0
1, 6600240, Note_on_c, 1, 40, 40
1, 6600600, Note_off_c, 1, 40, 0
1, 6600720, Note_on_c, 1, 42, 40
1, 6601080, Note_off_c, 1, 42, 0
1, 6601080, Note_on_c, 1, 40, 40
1, 6601200, Note_off_c, 1, 40, 0
1, 6601200, Note_on_c, 1, 33, 40
1, 6601560, Note_off_c, 1, 33, 0
1, 6601680, Note_on_c, 1, 42, 40
1, 6602040, Note_off_c, 1, 42, 0
1, 6602160, Note_on_c, 1, 40, 40
1, 6602520, Note_off_c, 1, 40, 0
1, 6602640, Note_on_c, 1, 37, 40
1, 6603000, Note_off_c, 1, 37, 0
1, 6603120, Note_on_c, 1, 40, 40
1, 6603480, Note_off_c, 1, 40, 0
1, 6603600, Note_on_c, 1, 32, 40
1, 6603960, Note_off_c, 1, 32, 0
1, 6604080, Note_on_c, 1, 35, 40
1, 6604440, Note_off_c, 1, 35, 0
1, 6604560, Note_on_c, 1, 37, 40
1, 6604920, Note_off_c, 1, 37, 0
1, 6605040, Note_on_c, 1, 40, 40
1, 6605400, Note_off_c, 1, 40, 0
1, 6605520, Note_on_c, 1, 37, 40
1, 6605880, Note_off_c, 1, 37, 0
1, 6606000, Note_on_c, 1, 35, 40
1, 6606360, Note_off_c, 1, 35, 0
1, 6606480, Note_on_c, 1, 32, 40
1, 6606840, Note_off_c, 1, 32, 0
1, 6606960, Note_on_c, 1, 35, 40
1, 6607320, Note_off_c, 1, 35, 0
1, 6607440, Note_on_c, 1, 39, 40
1, 6607800, Note_off_c, 1, 39, 0
1, 6607920, Note_on_c, 1, 42, 40
1, 6608280, Note_off_c, 1, 42, 0
1, 6608400, Note_on_c, 1, 39, 40
1, 6608760, Note_off_c, 1, 39, 0
1, 6608880, Note_on_c, 1, 33, 40
1, 6609240, Note_off_c, 1, 33, 0
1, 6609360, Note_on_c, 1, 37, 40
1, 6609720, Note_off_c, 1, 37, 0
1, 6609840, Note_on_c, 1, 38, 40
1, 6610200, Note_off_c, 1, 38, 0
1, 6610320, Note_on_c, 1, 39, 40
1, 6610680, Note_off_c, 1, 39, 0
1, 6610800, Note_on_c, 1, 40, 40
1, 6611160, Note_off_c, 1, 40, 0
1, 6611280, Note_on_c, 1, 32, 40
1, 6611640, Note_off_c, 1, 32, 0
1, 6611760, Note_on_c, 1, 33, 40
1, 6612120, Note_off_c, 1, 33, 0
1, 6612240, Note_on_c, 1, 34, 40
1, 6612600, Note_off_c, 1, 34, 0
1, 6612720, Note_on_c, 1, 35, 40
1, 6613080, Note_off_c, 1, 35, 0
1, 6614640, Note_on_c, 1, 28, 40
1, 6615000, Note_off_c, 1, 28, 0
1, 6615120, Note_on_c, 1, 32, 40
1, 6615480, Note_off_c, 1, 32, 0
1, 6615600, Note_on_c, 1, 35, 40
1, 6615960, Note_off_c, 1, 35, 0
1, 6616080, Note_on_c, 1, 37, 40
1, 6616440, Note_off_c, 1, 37, 0
1, 6616560, Note_on_c, 1, 40, 40
1, 6616920, Note_off_c, 1, 40, 0
1, 6617040, Note_on_c, 1, 37, 40
1, 6617400, Note_off_c, 1, 37, 0
1, 6617520, Note_on_c, 1, 35, 40
1, 6617880, Note_off_c, 1, 35, 0
1, 6618000, Note_on_c, 1, 32, 40
1, 6618360, Note_off_c, 1, 32, 0
1, 6618480, Note_on_c, 1, 28, 40
1, 6618840, Note_off_c, 1, 28, 0
1, 6618960, Note_on_c, 1, 32, 40
1, 6619320, Note_off_c, 1, 32, 0
1, 6619440, Note_on_c, 1, 35, 40
1, 6619800, Note_off_c, 1, 35, 0
1, 6619920, Note_on_c, 1, 37, 40
1, 6620280, Note_off_c, 1, 37, 0
1, 6620400, Note_on_c, 1, 40, 40
1, 6620760, Note_off_c, 1, 40, 0
1, 6620880, Note_on_c, 1, 37, 40
1, 6621240, Note_off_c, 1, 37, 0
1, 6621360, Note_on_c, 1, 35, 40
1, 6621720, Note_off_c, 1, 35, 0
1, 6621840, Note_on_c, 1, 32, 40
1, 6622200, Note_off_c, 1, 32, 0
1, 6622320, Note_on_c, 1, 33, 40
1, 6622680, Note_off_c, 1, 33, 0
1, 6622800, Note_on_c, 1, 37, 40
1, 6623160, Note_off_c, 1, 37, 0
1, 6623280, Note_on_c, 1, 40, 40
1, 6623640, Note_off_c, 1, 40, 0
1, 6623760, Note_on_c, 1, 42, 40
1, 6624120, Note_off_c, 1, 42, 0
1, 6624120, Note_on_c, 1, 40, 40
1, 6624240, Note_off_c, 1, 40, 0
1, 6624240, Note_on_c, 1, 33, 40
1, 6624600, Note_off_c, 1, 33, 0
1, 6624720, Note_on_c, 1, 42, 40
1, 6625080, Note_off_c, 1, 42, 0
1, 6625200, Note_on_c, 1, 40, 40
1, 6625560, Note_off_c, 1, 40, 0
1, 6625680, Note_on_c, 1, 37, 40
1, 6626040, Note_off_c, 1, 37, 0
1, 6626160, Note_on_c, 1, 40, 40
1, 6626520, Note_off_c, 1, 40, 0
1, 6626640, Note_on_c, 1, 32, 40
1, 6627000, Note_off_c, 1, 32, 0
1, 6627120, Note_on_c, 1, 35, 40
1, 6627480, Note_off_c, 1, 35, 0
1, 6627600, Note_on_c, 1, 37, 40
1, 6627960, Note_off_c, 1, 37, 0
1, 6628080, Note_on_c, 1, 40, 40
1, 6628440, Note_off_c, 1, 40, 0
1, 6628560, Note_on_c, 1, 37, 40
1, 6628920, Note_off_c, 1, 37, 0
1, 6629040, Note_on_c, 1, 35, 40
1, 6629400, Note_off_c, 1, 35, 0
1, 6629520, Note_on_c, 1, 32, 40
1, 6629880, Note_off_c, 1, 32, 0
1, 6630000, Note_on_c, 1, 35, 40
1, 6630360, Note_off_c, 1, 35, 0
1, 6630480, Note_on_c, 1, 39, 40
1, 6630840, Note_off_c, 1, 39, 0
1, 6630960, Note_on_c, 1, 42, 40
1, 6631320, Note_off_c, 1, 42, 0
1, 6631440, Note_on_c, 1, 39, 40
1, 6631800, Note_off_c, 1, 39, 0
1, 6631920, Note_on_c, 1, 33, 40
1, 6632280, Note_off_c, 1, 33, 0
1, 6632400, Note_on_c, 1, 37, 40
1, 6632760, Note_off_c, 1, 37, 0
1, 6632880, Note_on_c, 1, 38, 40
1, 6633240, Note_off_c, 1, 38, 0
1, 6633360, Note_on_c, 1, 39, 40
1, 6633720, Note_off_c, 1, 39, 0
1, 6633840, Note_on_c, 1, 40, 40
1, 6634200, Note_off_c, 1, 40, 0
1, 6634320, Note_on_c, 1, 37, 40
1, 6634680, Note_off_c, 1, 37, 0
1, 6634800, Note_on_c, 1, 38, 40
1, 6635160, Note_off_c, 1, 38, 0
1, 6635280, Note_on_c, 1, 39, 40
1, 6635640, Note_off_c, 1, 39, 0
1, 6635760, Note_on_c, 1, 40, 40
1, 6636000, Note_off_c, 1, 40, 0
1, 6636120, Note_on_c, 1, 33, 40
1, 6636240, Note_off_c, 1, 33, 0
1, 6636240, Note_on_c, 1, 34, 40
1, 6636480, Note_off_c, 1, 34, 0
1, 6636480, Note_on_c, 1, 35, 40
1, 6637560, Note_off_c, 1, 35, 0
1, 6637680, Note_on_c, 1, 28, 40
1, 6638040, Note_off_c, 1, 28, 0
1, 6638160, Note_on_c, 1, 32, 40
1, 6638520, Note_off_c, 1, 32, 0
1, 6638640, Note_on_c, 1, 35, 40
1, 6639000, Note_off_c, 1, 35, 0
1, 6639120, Note_on_c, 1, 37, 40
1, 6639480, Note_off_c, 1, 37, 0
1, 6639600, Note_on_c, 1, 40, 40
1, 6639960, Note_off_c, 1, 40, 0
1, 6640080, Note_on_c, 1, 37, 40
1, 6640440, Note_off_c, 1, 37, 0
1, 6640560, Note_on_c, 1, 35, 40
1, 6640920, Note_off_c, 1, 35, 0
1, 6641040, Note_on_c, 1, 32, 40
1, 6641400, Note_off_c, 1, 32, 0
1, 6641520, Note_on_c, 1, 28, 40
1, 6641880, Note_off_c, 1, 28, 0
1, 6642000, Note_on_c, 1, 32, 40
1, 6642360, Note_off_c, 1, 32, 0
1, 6642480, Note_on_c, 1, 35, 40
1, 6642840, Note_off_c, 1, 35, 0
1, 6642960, Note_on_c, 1, 37, 40
1, 6643320, Note_off_c, 1, 37, 0
1, 6643440, Note_on_c, 1, 40, 40
1, 6643800, Note_off_c, 1, 40, 0
1, 6643920, Note_on_c, 1, 37, 40
1, 6644280, Note_off_c, 1, 37, 0
1, 6644400, Note_on_c, 1, 35, 40
1, 6644760, Note_off_c, 1, 35, 0
1, 6644880, Note_on_c, 1, 32, 40
1, 6645240, Note_off_c, 1, 32, 0
1, 6645360, Note_on_c, 1, 33, 40
1, 6645720, Note_off_c, 1, 33, 0
1, 6645840, Note_on_c, 1, 37, 40
1, 6646200, Note_off_c, 1, 37, 0
1, 6646320, Note_on_c, 1, 40, 40
1, 6646680, Note_off_c, 1, 40, 0
1, 6646800, Note_on_c, 1, 42, 40
1, 6647160, Note_off_c, 1, 42, 0
1, 6647160, Note_on_c, 1, 40, 40
1, 6647280, Note_off_c, 1, 40, 0
1, 6647280, Note_on_c, 1, 33, 40
1, 6647640, Note_off_c, 1, 33, 0
1, 6647760, Note_on_c, 1, 42, 40
1, 6648120, Note_off_c, 1, 42, 0
1, 6648240, Note_on_c, 1, 40, 40
1, 6648600, Note_off_c, 1, 40, 0
1, 6648720, Note_on_c, 1, 37, 40
1, 6649080, Note_off_c, 1, 37, 0
1, 6649200, Note_on_c, 1, 40, 40
1, 6649560, Note_off_c, 1, 40, 0
1, 6649680, Note_on_c, 1, 32, 40
1, 6650040, Note_off_c, 1, 32, 0
1, 6650160, Note_on_c, 1, 35, 40
1, 6650520, Note_off_c, 1, 35, 0
1, 6650640, Note_on_c, 1, 37, 40
1, 6651000, Note_off_c, 1, 37, 0
1, 6651120, Note_on_c, 1, 40, 40
1, 6651480, Note_off_c, 1, 40, 0
1, 6651600, Note_on_c, 1, 37, 40
1, 6651960, Note_off_c, 1, 37, 0
1, 6652080, Note_on_c, 1, 35, 40
1, 6652440, Note_off_c, 1, 35, 0
1, 6652560, Note_on_c, 1, 32, 40
1, 6652920, Note_off_c, 1, 32, 0
1, 6653040, Note_on_c, 1, 35, 40
1, 6653400, Note_off_c, 1, 35, 0
1, 6653520, Note_on_c, 1, 39, 40
1, 6653880, Note_off_c, 1, 39, 0
1, 6654000, Note_on_c, 1, 42, 40
1, 6654360, Note_off_c, 1, 42, 0
1, 6654480, Note_on_c, 1, 39, 40
1, 6654840, Note_off_c, 1, 39, 0
1, 6654960, Note_on_c, 1, 33, 40
1, 6655320, Note_off_c, 1, 33, 0
1, 6655440, Note_on_c, 1, 37, 40
1, 6655800, Note_off_c, 1, 37, 0
1, 6655920, Note_on_c, 1, 38, 40
1, 6656280, Note_off_c, 1, 38, 0
1, 6656400, Note_on_c, 1, 39, 40
1, 6656760, Note_off_c, 1, 39, 0
1, 6656880, Note_on_c, 1, 40, 40
1, 6657240, Note_off_c, 1, 40, 0
1, 6657360, Note_on_c, 1, 37, 40
1, 6657720, Note_off_c, 1, 37, 0
1, 6657840, Note_on_c, 1, 38, 40
1, 6658200, Note_off_c, 1, 38, 0
1, 6658320, Note_on_c, 1, 39, 40
1, 6658680, Note_off_c, 1, 39, 0
1, 6658800, Note_on_c, 1, 40, 40
1, 6659160, Note_off_c, 1, 40, 0
1, 6659160, Note_on_c, 1, 33, 40
1, 6659280, Note_off_c, 1, 33, 0
1, 6659280, Note_on_c, 1, 34, 40
1, 6659520, Note_off_c, 1, 34, 0
1, 6659520, Note_on_c, 1, 35, 40
1, 6660600, Note_off_c, 1, 35, 0
1, 6660720, Note_on_c, 1, 28, 40
1, 6661080, Note_off_c, 1, 28, 0
1, 6661200, Note_on_c, 1, 32, 40
1, 6661560, Note_off_c, 1, 32, 0
1, 6661680, Note_on_c, 1, 35, 40
1, 6662040, Note_off_c, 1, 35, 0
1, 6662160, Note_on_c, 1, 37, 40
1, 6662520, Note_off_c, 1, 37, 0
1, 6662640, Note_on_c, 1, 40, 40
1, 6663000, Note_off_c, 1, 40, 0
1, 6663120, Note_on_c, 1, 37, 40
1, 6663480, Note_off_c, 1, 37, 0
1, 6663600, Note_on_c, 1, 35, 40
1, 6663960, Note_off_c, 1, 35, 0
1, 6664080, Note_on_c, 1, 32, 40
1, 6664440, Note_off_c, 1, 32, 0
1, 6664560, Note_on_c, 1, 28, 40
1, 6664920, Note_off_c, 1, 28, 0
1, 6665040, Note_on_c, 1, 32, 40
1, 6665400, Note_off_c, 1, 32, 0
1, 6665520, Note_on_c, 1, 35, 40
1, 6665880, Note_off_c, 1, 35, 0
1, 6666000, Note_on_c, 1, 37, 40
1, 6666360, Note_off_c, 1, 37, 0
1, 6666480, Note_on_c, 1, 40, 40
1, 6666840, Note_off_c, 1, 40, 0
1, 6666960, Note_on_c, 1, 37, 40
1, 6667320, Note_off_c, 1, 37, 0
1, 6667440, Note_on_c, 1, 35, 40
1, 6667800, Note_off_c, 1, 35, 0
1, 6667920, Note_on_c, 1, 32, 40
1, 6668280, Note_off_c, 1, 32, 0
1, 6668400, Note_on_c, 1, 33, 40
1, 6668760, Note_off_c, 1, 33, 0
1, 6668880, Note_on_c, 1, 37, 40
1, 6669240, Note_off_c, 1, 37, 0
1, 6669360, Note_on_c, 1, 40, 40
1, 6669720, Note_off_c, 1, 40, 0
1, 6669840, Note_on_c, 1, 42, 40
1, 6670200, Note_off_c, 1, 42, 0
1, 6670200, Note_on_c, 1, 40, 40
1, 6670320, Note_off_c, 1, 40, 0
1, 6670320, Note_on_c, 1, 33, 40
1, 6670680, Note_off_c, 1, 33, 0
1, 6670800, Note_on_c, 1, 42, 40
1, 6671160, Note_off_c, 1, 42, 0
1, 6671280, Note_on_c, 1, 40, 40
1, 6671640, Note_off_c, 1, 40, 0
1, 6671760, Note_on_c, 1, 37, 40
1, 6672120, Note_off_c, 1, 37, 0
1, 6672240, Note_on_c, 1, 40, 40
1, 6672600, Note_off_c, 1, 40, 0
1, 6672720, Note_on_c, 1, 32, 40
1, 6673080, Note_off_c, 1, 32, 0
1, 6673200, Note_on_c, 1, 35, 40
1, 6673560, Note_off_c, 1, 35, 0
1, 6673680, Note_on_c, 1, 37, 40
1, 6674040, Note_off_c, 1, 37, 0
1, 6674160, Note_on_c, 1, 40, 40
1, 6674520, Note_off_c, 1, 40, 0
1, 6674640, Note_on_c, 1, 37, 40
1, 6675000, Note_off_c, 1, 37, 0
1, 6675120, Note_on_c, 1, 35, 40
1, 6675480, Note_off_c, 1, 35, 0
1, 6675600, Note_on_c, 1, 32, 40
1, 6675960, Note_off_c, 1, 32, 0
1, 6676080, Note_on_c, 1, 35, 40
1, 6676440, Note_off_c, 1, 35, 0
1, 6676560, Note_on_c, 1, 39, 40
1, 6676920, Note_off_c, 1, 39, 0
1, 6677040, Note_on_c, 1, 42, 40
1, 6677400, Note_off_c, 1, 42, 0
1, 6677520, Note_on_c, 1, 39, 40
1, 6677880, Note_off_c, 1, 39, 0
1, 6678000, Note_on_c, 1, 33, 40
1, 6678360, Note_off_c, 1, 33, 0
1, 6678480, Note_on_c, 1, 37, 40
1, 6678840, Note_off_c, 1, 37, 0
1, 6678960, Note_on_c, 1, 38, 40
1, 6679320, Note_off_c, 1, 38, 0
1, 6679440, Note_on_c, 1, 39, 40
1, 6679800, Note_off_c, 1, 39, 0
1, 6682800, Note_on_c, 1, 45, 40
1, 6683280, Note_off_c, 1, 45, 0
1, 6683760, Note_on_c, 1, 40, 40
1, 6684240, Note_off_c, 1, 40, 0
1, 6684720, Note_on_c, 1, 38, 40
1, 6685200, Note_off_c, 1, 38, 0
1, 6685680, Note_on_c, 1, 45, 40
1, 6686160, Note_off_c, 1, 45, 0
1, 6686640, Note_on_c, 1, 45, 40
1, 6687120, Note_off_c, 1, 45, 0
1, 6687600, Note_on_c, 1, 40, 40
1, 6688080, Note_off_c, 1, 40, 0
1, 6688560, Note_on_c, 1, 38, 40
1, 6689040, Note_off_c, 1, 38, 0
1, 6689520, Note_on_c, 1, 45, 40
1, 6690000, Note_off_c, 1, 45, 0
1, 6690480, Note_on_c, 1, 45, 40
1, 6690960, Note_off_c, 1, 45, 0
1, 6691440, Note_on_c, 1, 40, 40
1, 6691920, Note_off_c, 1, 40, 0
1, 6692400, Note_on_c, 1, 38, 40
1, 6692880, Note_off_c, 1, 38, 0
1, 6693360, Note_on_c, 1, 45, 40
1, 6693840, Note_off_c, 1, 45, 0
1, 6694320, Note_on_c, 1, 45, 40
1, 6694800, Note_off_c, 1, 45, 0
1, 6695280, Note_on_c, 1, 40, 40
1, 6695760, Note_off_c, 1, 40, 0
1, 6696240, Note_on_c, 1, 45, 40
1, 6696720, Note_off_c, 1, 45, 0
1, 6697200, Note_on_c, 1, 40, 40
1, 6697680, Note_off_c, 1, 40, 0
1, 6698160, Note_on_c, 1, 45, 40
1, 6698640, Note_off_c, 1, 45, 0
1, 6699120, Note_on_c, 1, 40, 40
1, 6699600, Note_off_c, 1, 40, 0
1, 6700080, Note_on_c, 1, 38, 40
1, 6700560, Note_off_c, 1, 38, 0
1, 6701040, Note_on_c, 1, 45, 40
1, 6701520, Note_off_c, 1, 45, 0
1, 6702000, Note_on_c, 1, 45, 40
1, 6702480, Note_off_c, 1, 45, 0
1, 6702960, Note_on_c, 1, 40, 40
1, 6703440, Note_off_c, 1, 40, 0
1, 6703920, Note_on_c, 1, 38, 40
1, 6704400, Note_off_c, 1, 38, 0
1, 6704880, Note_on_c, 1, 45, 40
1, 6705360, Note_off_c, 1, 45, 0
1, 6705840, Note_on_c, 1, 45, 40
1, 6706320, Note_off_c, 1, 45, 0
1, 6706800, Note_on_c, 1, 40, 40
1, 6707280, Note_off_c, 1, 40, 0
1, 6707760, Note_on_c, 1, 38, 40
1, 6708240, Note_off_c, 1, 38, 0
1, 6708720, Note_on_c, 1, 45, 40
1, 6709200, Note_off_c, 1, 45, 0
1, 6709680, Note_on_c, 1, 38, 40
1, 6710160, Note_off_c, 1, 38, 0
1, 6710640, Note_on_c, 1, 45, 40
1, 6711120, Note_off_c, 1, 45, 0
1, 6711600, Note_on_c, 1, 38, 40
1, 6712080, Note_off_c, 1, 38, 0
1, 6712560, Note_on_c, 1, 45, 40
1, 6713040, Note_off_c, 1, 45, 0
1, 6713520, Note_on_c, 1, 38, 40
1, 6714000, Note_off_c, 1, 38, 0
1, 6715440, Note_on_c, 1, 45, 40
1, 6715920, Note_off_c, 1, 45, 0
1, 6716400, Note_on_c, 1, 40, 40
1, 6716880, Note_off_c, 1, 40, 0
1, 6717360, Note_on_c, 1, 38, 40
1, 6717840, Note_off_c, 1, 38, 0
1, 6718320, Note_on_c, 1, 45, 40
1, 6718800, Note_off_c, 1, 45, 0
1, 6719280, Note_on_c, 1, 45, 40
1, 6719760, Note_off_c, 1, 45, 0
1, 6720240, Note_on_c, 1, 40, 40
1, 6720720, Note_off_c, 1, 40, 0
1, 6721200, Note_on_c, 1, 38, 40
1, 6721680, Note_off_c, 1, 38, 0
1, 6722160, Note_on_c, 1, 45, 40
1, 6722640, Note_off_c, 1, 45, 0
1, 6723120, Note_on_c, 1, 45, 40
1, 6723600, Note_off_c, 1, 45, 0
1, 6724080, Note_on_c, 1, 40, 40
1, 6724560, Note_off_c, 1, 40, 0
1, 6725040, Note_on_c, 1, 38, 40
1, 6725520, Note_off_c, 1, 38, 0
1, 6726000, Note_on_c, 1, 45, 40
1, 6726480, Note_off_c, 1, 45, 0
1, 6726960, Note_on_c, 1, 45, 40
1, 6727440, Note_off_c, 1, 45, 0
1, 6727920, Note_on_c, 1, 40, 40
1, 6728400, Note_off_c, 1, 40, 0
1, 6728880, Note_on_c, 1, 38, 40
1, 6729360, Note_off_c, 1, 38, 0
1, 6729840, Note_on_c, 1, 45, 40
1, 6730320, Note_off_c, 1, 45, 0
1, 6730800, Note_on_c, 1, 45, 40
1, 6731280, Note_off_c, 1, 45, 0
1, 6731760, Note_on_c, 1, 40, 40
1, 6732240, Note_off_c, 1, 40, 0
1, 6732720, Note_on_c, 1, 38, 40
1, 6733200, Note_off_c, 1, 38, 0
1, 6733680, Note_on_c, 1, 45, 40
1, 6734160, Note_off_c, 1, 45, 0
1, 6734640, Note_on_c, 1, 38, 40
1, 6735120, Note_off_c, 1, 38, 0
1, 6735600, Note_on_c, 1, 45, 40
1, 6736080, Note_off_c, 1, 45, 0
1, 6736560, Note_on_c, 1, 38, 40
1, 6737040, Note_off_c, 1, 38, 0
1, 6737520, Note_on_c, 1, 45, 40
1, 6738000, Note_off_c, 1, 45, 0
1, 6738480, Note_on_c, 1, 38, 40
1, 6738960, Note_off_c, 1, 38, 0
1, 6740400, Note_on_c, 1, 45, 40
1, 6740880, Note_off_c, 1, 45, 0
1, 6741360, Note_on_c, 1, 40, 40
1, 6741840, Note_off_c, 1, 40, 0
1, 6742320, Note_on_c, 1, 38, 40
1, 6742800, Note_off_c, 1, 38, 0
1, 6743280, Note_on_c, 1, 45, 40
1, 6743760, Note_off_c, 1, 45, 0
1, 6744240, Note_on_c, 1, 45, 40
1, 6744720, Note_off_c, 1, 45, 0
1, 6745200, Note_on_c, 1, 40, 40
1, 6745680, Note_off_c, 1, 40, 0
1, 6746160, Note_on_c, 1, 45, 40
1, 6746640, Note_off_c, 1, 45, 0
1, 6746640, Note_on_c, 1, 45, 40
1, 6747120, Note_off_c, 1, 45, 0
1, 6747120, Note_on_c, 1, 44, 40
1, 6747600, Note_off_c, 1, 44, 0
1, 6747600, Note_on_c, 1, 42, 40
1, 6748080, Note_off_c, 1, 42, 0
1, 6748080, Note_on_c, 1, 40, 40
1, 6748560, Note_off_c, 1, 40, 0
1, 6749040, Note_on_c, 1, 47, 40
1, 6749520, Note_off_c, 1, 47, 0
1, 6750000, Note_on_c, 1, 40, 40
1, 6750480, Note_off_c, 1, 40, 0
1, 6750960, Note_on_c, 1, 47, 40
1, 6751440, Note_off_c, 1, 47, 0
1, 6751920, Note_on_c, 1, 38, 40
1, 6752400, Note_off_c, 1, 38, 0
1, 6752880, Note_on_c, 1, 45, 40
1, 6753360, Note_off_c, 1, 45, 0
1, 6753840, Note_on_c, 1, 45, 40
1, 6754320, Note_off_c, 1, 45, 0
1, 6754800, Note_on_c, 1, 40, 40
1, 6755280, Note_off_c, 1, 40, 0
1, 6755760, Note_on_c, 1, 40, 40
1, 6756240, Note_off_c, 1, 40, 0
1, 6756720, Note_on_c, 1, 47, 40
1, 6757200, Note_off_c, 1, 47, 0
1, 6757680, Note_on_c, 1, 40, 40
1, 6758160, Note_off_c, 1, 40, 0
1, 6758640, Note_on_c, 1, 47, 40
1, 6759120, Note_off_c, 1, 47, 0
1, 6759600, Note_on_c, 1, 38, 40
1, 6760080, Note_off_c, 1, 38, 0
1, 6760560, Note_on_c, 1, 45, 40
1, 6761040, Note_off_c, 1, 45, 0
1, 6761040, Note_on_c, 1, 38, 40
1, 6761520, Note_off_c, 1, 38, 0
1, 6761520, Note_on_c, 1, 45, 40
1, 6762000, Note_off_c, 1, 45, 0
1, 6762000, Note_on_c, 1, 40, 40
1, 6762480, Note_off_c, 1, 40, 0
1, 6762480, Note_on_c, 1, 45, 40
1, 6762960, Note_off_c, 1, 45, 0
1, 6763440, Note_on_c, 1, 45, 40
1, 6763920, Note_off_c, 1, 45, 0
1, 6764400, Note_on_c, 1, 40, 40
1, 6764880, Note_off_c, 1, 40, 0
1, 6765360, Note_on_c, 1, 38, 40
1, 6765840, Note_off_c, 1, 38, 0
1, 6766320, Note_on_c, 1, 45, 40
1, 6766800, Note_off_c, 1, 45, 0
1, 6767280, Note_on_c, 1, 45, 40
1, 6767760, Note_off_c, 1, 45, 0
1, 6768240, Note_on_c, 1, 40, 40
1, 6768720, Note_off_c, 1, 40, 0
1, 6769200, Note_on_c, 1, 38, 40
1, 6769680, Note_off_c, 1, 38, 0
1, 6770160, Note_on_c, 1, 45, 40
1, 6770640, Note_off_c, 1, 45, 0
1, 6771120, Note_on_c, 1, 45, 40
1, 6771600, Note_off_c, 1, 45, 0
1, 6772080, Note_on_c, 1, 40, 40
1, 6772560, Note_off_c, 1, 40, 0
1, 6773040, Note_on_c, 1, 38, 40
1, 6773520, Note_off_c, 1, 38, 0
1, 6774000, Note_on_c, 1, 45, 40
1, 6774480, Note_off_c, 1, 45, 0
1, 6774960, Note_on_c, 1, 38, 40
1, 6775440, Note_off_c, 1, 38, 0
1, 6775920, Note_on_c, 1, 45, 40
1, 6776400, Note_off_c, 1, 45, 0
1, 6776880, Note_on_c, 1, 38, 40
1, 6777360, Note_off_c, 1, 38, 0
1, 6777840, Note_on_c, 1, 45, 40
1, 6778320, Note_off_c, 1, 45, 0
1, 6778800, Note_on_c, 1, 38, 40
1, 6779280, Note_off_c, 1, 38, 0
1, 6780720, Note_on_c, 1, 45, 40
1, 6781200, Note_off_c, 1, 45, 0
1, 6781680, Note_on_c, 1, 40, 40
1, 6782160, Note_off_c, 1, 40, 0
1, 6782640, Note_on_c, 1, 38, 40
1, 6783120, Note_off_c, 1, 38, 0
1, 6783600, Note_on_c, 1, 45, 40
1, 6784080, Note_off_c, 1, 45, 0
1, 6784560, Note_on_c, 1, 45, 40
1, 6785040, Note_off_c, 1, 45, 0
1, 6785520, Note_on_c, 1, 40, 40
1, 6786000, Note_off_c, 1, 40, 0
1, 6786480, Note_on_c, 1, 45, 40
1, 6786960, Note_off_c, 1, 45, 0
1, 6786960, Note_on_c, 1, 45, 40
1, 6787440, Note_off_c, 1, 45, 0
1, 6787440, Note_on_c, 1, 44, 40
1, 6787920, Note_off_c, 1, 44, 0
1, 6787920, Note_on_c, 1, 42, 40
1, 6788400, Note_off_c, 1, 42, 0
1, 6788400, Note_on_c, 1, 40, 40
1, 6788880, Note_off_c, 1, 40, 0
1, 6789360, Note_on_c, 1, 47, 40
1, 6789840, Note_off_c, 1, 47, 0
1, 6790320, Note_on_c, 1, 40, 40
1, 6790800, Note_off_c, 1, 40, 0
1, 6791280, Note_on_c, 1, 47, 40
1, 6791760, Note_off_c, 1, 47, 0
1, 6791760, Note_on_c, 1, 40, 40
1, 6792240, Note_off_c, 1, 40, 0
1, 6792240, Note_on_c, 1, 38, 40
1, 6792720, Note_off_c, 1, 38, 0
1, 6793200, Note_on_c, 1, 45, 40
1, 6793680, Note_off_c, 1, 45, 0
1, 6794160, Note_on_c, 1, 45, 40
1, 6794640, Note_off_c, 1, 45, 0
1, 6795120, Note_on_c, 1, 40, 40
1, 6795600, Note_off_c, 1, 40, 0
1, 6796080, Note_on_c, 1, 40, 40
1, 6796560, Note_off_c, 1, 40, 0
1, 6797040, Note_on_c, 1, 47, 40
1, 6797520, Note_off_c, 1, 47, 0
1, 6798000, Note_on_c, 1, 40, 40
1, 6798480, Note_off_c, 1, 40, 0
1, 6798960, Note_on_c, 1, 47, 40
1, 6799440, Note_off_c, 1, 47, 0
1, 6799920, Note_on_c, 1, 38, 40
1, 6800400, Note_off_c, 1, 38, 0
1, 6800880, Note_on_c, 1, 45, 40
1, 6801360, Note_off_c, 1, 45, 0
1, 6801840, Note_on_c, 1, 45, 40
1, 6802320, Note_off_c, 1, 45, 0
1, 6802800, Note_on_c, 1, 40, 40
1, 6803280, Note_off_c, 1, 40, 0
1, 6803760, Note_on_c, 1, 45, 40
1, 6804240, Note_off_c, 1, 45, 0
1, 6804720, Note_on_c, 1, 40, 40
1, 6805200, Note_off_c, 1, 40, 0
1, 6805680, Note_on_c, 1, 45, 40
1, 6806160, Note_off_c, 1, 45, 0
1, 6806640, Note_on_c, 1, 40, 40
1, 6807120, Note_off_c, 1, 40, 0
1, 6807600, Note_on_c, 1, 45, 40
1, 6808080, Note_off_c, 1, 45, 0
1, 6808560, Note_on_c, 1, 40, 40
1, 6809040, Note_off_c, 1, 40, 0
1, 6809520, Note_on_c, 1, 45, 40
1, 6810000, Note_off_c, 1, 45, 0
1, 6810480, Note_on_c, 1, 40, 40
1, 6811440, Note_off_c, 1, 40, 0
1, 6811440, Note_on_c, 1, 45, 40
1, 6811920, Note_off_c, 1, 45, 0
1, 6812400, Note_on_c, 1, 40, 40
1, 6812880, Note_off_c, 1, 40, 0
1, 6813360, Note_on_c, 1, 38, 40
1, 6813840, Note_off_c, 1, 38, 0
1, 6814320, Note_on_c, 1, 45, 40
1, 6814800, Note_off_c, 1, 45, 0
1, 6815280, Note_on_c, 1, 45, 40
1, 6815760, Note_off_c, 1, 45, 0
1, 6816240, Note_on_c, 1, 40, 40
1, 6816720, Note_off_c, 1, 40, 0
1, 6817200, Note_on_c, 1, 38, 40
1, 6817680, Note_off_c, 1, 38, 0
1, 6818160, Note_on_c, 1, 45, 40
1, 6818640, Note_off_c, 1, 45, 0
1, 6819120, Note_on_c, 1, 45, 40
1, 6819600, Note_off_c, 1, 45, 0
1, 6820080, Note_on_c, 1, 40, 40
1, 6820560, Note_off_c, 1, 40, 0
1, 6821040, Note_on_c, 1, 38, 40
1, 6821520, Note_off_c, 1, 38, 0
1, 6822000, Note_on_c, 1, 45, 40
1, 6822480, Note_off_c, 1, 45, 0
1, 6822960, Note_on_c, 1, 38, 40
1, 6823440, Note_off_c, 1, 38, 0
1, 6823920, Note_on_c, 1, 45, 40
1, 6824400, Note_off_c, 1, 45, 0
1, 6824880, Note_on_c, 1, 38, 40
1, 6825360, Note_off_c, 1, 38, 0
1, 6825840, Note_on_c, 1, 45, 40
1, 6826320, Note_off_c, 1, 45, 0
1, 6826800, Note_on_c, 1, 38, 40
1, 6827280, Note_off_c, 1, 38, 0
1, 6828720, Note_on_c, 1, 45, 40
1, 6829200, Note_off_c, 1, 45, 0
1, 6829680, Note_on_c, 1, 40, 40
1, 6830160, Note_off_c, 1, 40, 0
1, 6830640, Note_on_c, 1, 38, 40
1, 6831120, Note_off_c, 1, 38, 0
1, 6831600, Note_on_c, 1, 45, 40
1, 6832080, Note_off_c, 1, 45, 0
1, 6832560, Note_on_c, 1, 45, 40
1, 6833040, Note_off_c, 1, 45, 0
1, 6833520, Note_on_c, 1, 40, 40
1, 6834000, Note_off_c, 1, 40, 0
1, 6834480, Note_on_c, 1, 38, 40
1, 6834960, Note_off_c, 1, 38, 0
1, 6835440, Note_on_c, 1, 45, 40
1, 6835920, Note_off_c, 1, 45, 0
1, 6836400, Note_on_c, 1, 45, 40
1, 6836880, Note_off_c, 1, 45, 0
1, 6837360, Note_on_c, 1, 40, 40
1, 6837840, Note_off_c, 1, 40, 0
1, 6838320, Note_on_c, 1, 38, 40
1, 6838800, Note_off_c, 1, 38, 0
1, 6839280, Note_on_c, 1, 45, 40
1, 6839760, Note_off_c, 1, 45, 0
1, 6840240, Note_on_c, 1, 45, 40
1, 6840720, Note_off_c, 1, 45, 0
1, 6841200, Note_on_c, 1, 40, 40
1, 6841680, Note_off_c, 1, 40, 0
1, 6842160, Note_on_c, 1, 38, 40
1, 6842640, Note_off_c, 1, 38, 0
1, 6843120, Note_on_c, 1, 45, 40
1, 6843600, Note_off_c, 1, 45, 0
1, 6844080, Note_on_c, 1, 45, 40
1, 6844560, Note_off_c, 1, 45, 0
1, 6845040, Note_on_c, 1, 40, 40
1, 6845520, Note_off_c, 1, 40, 0
1, 6846000, Note_on_c, 1, 38, 40
1, 6846480, Note_off_c, 1, 38, 0
1, 6846960, Note_on_c, 1, 45, 40
1, 6847440, Note_off_c, 1, 45, 0
1, 6847920, Note_on_c, 1, 45, 40
1, 6848400, Note_off_c, 1, 45, 0
1, 6848880, Note_on_c, 1, 40, 40
1, 6849360, Note_off_c, 1, 40, 0
1, 6849840, Note_on_c, 1, 38, 40
1, 6850320, Note_off_c, 1, 38, 0
1, 6850800, Note_on_c, 1, 45, 40
1, 6851280, Note_off_c, 1, 45, 0
1, 6851760, Note_on_c, 1, 45, 40
1, 6852240, Note_off_c, 1, 45, 0
1, 6852720, Note_on_c, 1, 40, 40
1, 6853200, Note_off_c, 1, 40, 0
1, 6853680, Note_on_c, 1, 38, 40
1, 6854160, Note_off_c, 1, 38, 0
1, 6854640, Note_on_c, 1, 45, 40
1, 6855120, Note_off_c, 1, 45, 0
1, 6855600, Note_on_c, 1, 45, 40
1, 6856080, Note_off_c, 1, 45, 0
1, 6856560, Note_on_c, 1, 40, 40
1, 6857040, Note_off_c, 1, 40, 0
1, 6857520, Note_on_c, 1, 38, 40
1, 6858000, Note_off_c, 1, 38, 0
1, 6858480, Note_on_c, 1, 45, 40
1, 6858960, Note_off_c, 1, 45, 0
1, 6859440, Note_on_c, 1, 45, 40
1, 6859920, Note_off_c, 1, 45, 0
1, 6860400, Note_on_c, 1, 40, 40
1, 6860880, Note_off_c, 1, 40, 0
1, 6861360, Note_on_c, 1, 38, 40
1, 6861840, Note_off_c, 1, 38, 0
1, 6862320, Note_on_c, 1, 45, 40
1, 6862800, Note_off_c, 1, 45, 0
1, 6863280, Note_on_c, 1, 45, 40
1, 6863760, Note_off_c, 1, 45, 0
1, 6864240, Note_on_c, 1, 40, 40
1, 6864720, Note_off_c, 1, 40, 0
1, 6865200, Note_on_c, 1, 38, 40
1, 6865680, Note_off_c, 1, 38, 0
1, 6866160, Note_on_c, 1, 45, 40
1, 6866640, Note_off_c, 1, 45, 0
1, 6867120, Note_on_c, 1, 45, 40
1, 6867600, Note_off_c, 1, 45, 0
1, 6868080, Note_on_c, 1, 40, 40
1, 6868560, Note_off_c, 1, 40, 0
1, 6869040, Note_on_c, 1, 38, 40
1, 6869520, Note_off_c, 1, 38, 0
1, 6870000, Note_on_c, 1, 45, 40
1, 6870480, Note_off_c, 1, 45, 0
1, 6870960, Note_on_c, 1, 45, 40
1, 6871440, Note_off_c, 1, 45, 0
1, 6871920, Note_on_c, 1, 40, 40
1, 6872400, Note_off_c, 1, 40, 0
1, 6875280, Note_on_c, 1, 35, 40
1, 6877200, Note_off_c, 1, 35, 0
1, 6877200, Note_on_c, 1, 30, 40
1, 6879120, Note_off_c, 1, 30, 0
1, 6879120, Note_on_c, 1, 30, 40
1, 6879600, Note_off_c, 1, 30, 0
1, 6879600, Note_on_c, 1, 37, 40
1, 6880080, Note_off_c, 1, 37, 0
1, 6880080, Note_on_c, 1, 25, 40
1, 6880320, Note_off_c, 1, 25, 0
1, 6880320, Note_on_c, 1, 25, 40
1, 6880560, Note_off_c, 1, 25, 0
1, 6880560, Note_on_c, 1, 37, 40
1, 6881040, Note_off_c, 1, 37, 0
1, 6881040, Note_on_c, 1, 25, 40
1, 6881520, Note_off_c, 1, 25, 0
1, 6881520, Note_on_c, 1, 37, 40
1, 6882000, Note_off_c, 1, 37, 0
1, 6882000, Note_on_c, 1, 25, 40
1, 6882240, Note_off_c, 1, 25, 0
1, 6882240, Note_on_c, 1, 25, 40
1, 6882480, Note_off_c, 1, 25, 0
1, 6882480, Note_on_c, 1, 37, 40
1, 6882960, Note_off_c, 1, 37, 0
1, 6882960, Note_on_c, 1, 37, 40
1, 6884880, Note_off_c, 1, 37, 0
1, 6884880, Note_on_c, 1, 37, 40
1, 6886800, Note_off_c, 1, 37, 0
1, 6886800, Note_on_c, 1, 40, 40
1, 6888720, Note_off_c, 1, 40, 0
1, 6888720, Note_on_c, 1, 42, 40
1, 6890640, Note_off_c, 1, 42, 0
1, 6890640, Note_on_c, 1, 37, 40
1, 6892560, Note_off_c, 1, 37, 0
1, 6892560, Note_on_c, 1, 37, 40
1, 6894480, Note_off_c, 1, 37, 0
1, 6894480, Note_on_c, 1, 40, 40
1, 6896400, Note_off_c, 1, 40, 0
1, 6896400, Note_on_c, 1, 42, 40
1, 6898320, Note_off_c, 1, 42, 0
1, 6898320, Note_on_c, 1, 37, 40
1, 6898800, Note_off_c, 1, 37, 0
1, 6898800, Note_on_c, 1, 37, 40
1, 6899280, Note_off_c, 1, 37, 0
1, 6899280, Note_on_c, 1, 37, 40
1, 6899760, Note_off_c, 1, 37, 0
1, 6899760, Note_on_c, 1, 37, 40
1, 6900240, Note_off_c, 1, 37, 0
1, 6900240, Note_on_c, 1, 37, 40
1, 6900720, Note_off_c, 1, 37, 0
1, 6900720, Note_on_c, 1, 37, 40
1, 6901200, Note_off_c, 1, 37, 0
1, 6901200, Note_on_c, 1, 37, 40
1, 6901680, Note_off_c, 1, 37, 0
1, 6901680, Note_on_c, 1, 37, 40
1, 6902160, Note_off_c, 1, 37, 0
1, 6902160, Note_on_c, 1, 40, 40
1, 6902640, Note_off_c, 1, 40, 0
1, 6902640, Note_on_c, 1, 40, 40
1, 6903120, Note_off_c, 1, 40, 0
1, 6903120, Note_on_c, 1, 40, 40
1, 6903600, Note_off_c, 1, 40, 0
1, 6903600, Note_on_c, 1, 40, 40
1, 6904080, Note_off_c, 1, 40, 0
1, 6904080, Note_on_c, 1, 42, 40
1, 6904560, Note_off_c, 1, 42, 0
1, 6904560, Note_on_c, 1, 42, 40
1, 6905040, Note_off_c, 1, 42, 0
1, 6905040, Note_on_c, 1, 42, 40
1, 6905520, Note_off_c, 1, 42, 0
1, 6905520, Note_on_c, 1, 42, 40
1, 6906000, Note_off_c, 1, 42, 0
1, 6906000, Note_on_c, 1, 37, 40
1, 6906480, Note_off_c, 1, 37, 0
1, 6906480, Note_on_c, 1, 37, 40
1, 6906960, Note_off_c, 1, 37, 0
1, 6906960, Note_on_c, 1, 37, 40
1, 6907440, Note_off_c, 1, 37, 0
1, 6907440, Note_on_c, 1, 37, 40
1, 6907920, Note_off_c, 1, 37, 0
1, 6907920, Note_on_c, 1, 37, 40
1, 6908400, Note_off_c, 1, 37, 0
1, 6908400, Note_on_c, 1, 37, 40
1, 6908880, Note_off_c, 1, 37, 0
1, 6908880, Note_on_c, 1, 37, 40
1, 6909360, Note_off_c, 1, 37, 0
1, 6909360, Note_on_c, 1, 37, 40
1, 6909840, Note_off_c, 1, 37, 0
1, 6909840, Note_on_c, 1, 40, 40
1, 6910320, Note_off_c, 1, 40, 0
1, 6910320, Note_on_c, 1, 40, 40
1, 6910800, Note_off_c, 1, 40, 0
1, 6910800, Note_on_c, 1, 40, 40
1, 6911280, Note_off_c, 1, 40, 0
1, 6911280, Note_on_c, 1, 40, 40
1, 6911760, Note_off_c, 1, 40, 0
1, 6911760, Note_on_c, 1, 42, 40
1, 6912240, Note_off_c, 1, 42, 0
1, 6912240, Note_on_c, 1, 42, 40
1, 6912720, Note_off_c, 1, 42, 0
1, 6912720, Note_on_c, 1, 42, 40
1, 6913200, Note_off_c, 1, 42, 0
1, 6913200, Note_on_c, 1, 42, 40
1, 6913680, Note_off_c, 1, 42, 0
1, 6913680, Note_on_c, 1, 35, 40
1, 6914640, Note_off_c, 1, 35, 0
1, 6914640, Note_on_c, 1, 35, 40
1, 6915600, Note_off_c, 1, 35, 0
1, 6915600, Note_on_c, 1, 33, 40
1, 6916560, Note_off_c, 1, 33, 0
1, 6916560, Note_on_c, 1, 33, 40
1, 6917520, Note_off_c, 1, 33, 0
1, 6917520, Note_on_c, 1, 32, 40
1, 6918480, Note_off_c, 1, 32, 0
1, 6918480, Note_on_c, 1, 32, 40
1, 6919440, Note_off_c, 1, 32, 0
1, 6919440, Note_on_c, 1, 31, 40
1, 6920400, Note_off_c, 1, 31, 0
1, 6920400, Note_on_c, 1, 31, 40
1, 6921360, Note_off_c, 1, 31, 0
1, 6921360, Note_on_c, 1, 30, 40
1, 6921840, Note_off_c, 1, 30, 0
1, 6921840, Note_on_c, 1, 30, 40
1, 6922320, Note_off_c, 1, 30, 0
1, 6922320, Note_on_c, 1, 30, 40
1, 6922800, Note_off_c, 1, 30, 0
1, 6922800, Note_on_c, 1, 30, 40
1, 6923280, Note_off_c, 1, 30, 0
1, 6923280, Note_on_c, 1, 30, 40
1, 6923760, Note_off_c, 1, 30, 0
1, 6923760, Note_on_c, 1, 30, 40
1, 6924240, Note_off_c, 1, 30, 0
1, 6924240, Note_on_c, 1, 30, 40
1, 6924720, Note_off_c, 1, 30, 0
1, 6924720, Note_on_c, 1, 30, 40
1, 6925200, Note_off_c, 1, 30, 0
1, 6925200, Note_on_c, 1, 37, 40
1, 6927120, Note_off_c, 1, 37, 0
1, 6927120, Note_on_c, 1, 37, 40
1, 6929040, Note_off_c, 1, 37, 0
1, 6929040, Note_on_c, 1, 40, 40
1, 6930960, Note_off_c, 1, 40, 0
1, 6930960, Note_on_c, 1, 42, 40
1, 6932880, Note_off_c, 1, 42, 0
1, 6932880, Note_on_c, 1, 37, 40
1, 6934800, Note_off_c, 1, 37, 0
1, 6934800, Note_on_c, 1, 37, 40
1, 6936720, Note_off_c, 1, 37, 0
1, 6936720, Note_on_c, 1, 40, 40
1, 6938640, Note_off_c, 1, 40, 0
1, 6938640, Note_on_c, 1, 42, 40
1, 6940560, Note_off_c, 1, 42, 0
1, 6940560, Note_on_c, 1, 37, 40
1, 6941040, Note_off_c, 1, 37, 0
1, 6941040, Note_on_c, 1, 37, 40
1, 6941520, Note_off_c, 1, 37, 0
1, 6941520, Note_on_c, 1, 37, 40
1, 6942000, Note_off_c, 1, 37, 0
1, 6942000, Note_on_c, 1, 37, 40
1, 6942480, Note_off_c, 1, 37, 0
1, 6942480, Note_on_c, 1, 37, 40
1, 6942960, Note_off_c, 1, 37, 0
1, 6942960, Note_on_c, 1, 37, 40
1, 6943440, Note_off_c, 1, 37, 0
1, 6943440, Note_on_c, 1, 37, 40
1, 6943920, Note_off_c, 1, 37, 0
1, 6943920, Note_on_c, 1, 37, 40
1, 6944400, Note_off_c, 1, 37, 0
1, 6944400, Note_on_c, 1, 40, 40
1, 6944880, Note_off_c, 1, 40, 0
1, 6944880, Note_on_c, 1, 40, 40
1, 6945360, Note_off_c, 1, 40, 0
1, 6945360, Note_on_c, 1, 40, 40
1, 6945840, Note_off_c, 1, 40, 0
1, 6945840, Note_on_c, 1, 40, 40
1, 6946320, Note_off_c, 1, 40, 0
1, 6946320, Note_on_c, 1, 42, 40
1, 6946800, Note_off_c, 1, 42, 0
1, 6946800, Note_on_c, 1, 42, 40
1, 6947280, Note_off_c, 1, 42, 0
1, 6947280, Note_on_c, 1, 42, 40
1, 6947760, Note_off_c, 1, 42, 0
1, 6947760, Note_on_c, 1, 42, 40
1, 6948240, Note_off_c, 1, 42, 0
1, 6948240, Note_on_c, 1, 37, 40
1, 6948720, Note_off_c, 1, 37, 0
1, 6948720, Note_on_c, 1, 37, 40
1, 6949200, Note_off_c, 1, 37, 0
1, 6949200, Note_on_c, 1, 37, 40
1, 6949680, Note_off_c, 1, 37, 0
1, 6949680, Note_on_c, 1, 37, 40
1, 6950160, Note_off_c, 1, 37, 0
1, 6950160, Note_on_c, 1, 37, 40
1, 6950640, Note_off_c, 1, 37, 0
1, 6950640, Note_on_c, 1, 37, 40
1, 6951120, Note_off_c, 1, 37, 0
1, 6951120, Note_on_c, 1, 37, 40
1, 6951600, Note_off_c, 1, 37, 0
1, 6951600, Note_on_c, 1, 37, 40
1, 6952080, Note_off_c, 1, 37, 0
1, 6952080, Note_on_c, 1, 40, 40
1, 6952560, Note_off_c, 1, 40, 0
1, 6952560, Note_on_c, 1, 40, 40
1, 6953040, Note_off_c, 1, 40, 0
1, 6953040, Note_on_c, 1, 40, 40
1, 6953520, Note_off_c, 1, 40, 0
1, 6953520, Note_on_c, 1, 40, 40
1, 6954000, Note_off_c, 1, 40, 0
1, 6954000, Note_on_c, 1, 42, 40
1, 6954480, Note_off_c, 1, 42, 0
1, 6954480, Note_on_c, 1, 42, 40
1, 6954960, Note_off_c, 1, 42, 0
1, 6954960, Note_on_c, 1, 42, 40
1, 6955440, Note_off_c, 1, 42, 0
1, 6955440, Note_on_c, 1, 42, 40
1, 6955920, Note_off_c, 1, 42, 0
1, 6955920, Note_on_c, 1, 35, 40
1, 6956880, Note_off_c, 1, 35, 0
1, 6956880, Note_on_c, 1, 35, 40
1, 6957840, Note_off_c, 1, 35, 0
1, 6957840, Note_on_c, 1, 33, 40
1, 6958800, Note_off_c, 1, 33, 0
1, 6958800, Note_on_c, 1, 33, 40
1, 6959760, Note_off_c, 1, 33, 0
1, 6959760, Note_on_c, 1, 32, 40
1, 6960720, Note_off_c, 1, 32, 0
1, 6960720, Note_on_c, 1, 32, 40
1, 6961680, Note_off_c, 1, 32, 0
1, 6961680, Note_on_c, 1, 31, 40
1, 6962640, Note_off_c, 1, 31, 0
1, 6962640, Note_on_c, 1, 31, 40
1, 6963600, Note_off_c, 1, 31, 0
1, 6963600, Note_on_c, 1, 30, 40
1, 6964080, Note_off_c, 1, 30, 0
1, 6964080, Note_on_c, 1, 30, 40
1, 6964560, Note_off_c, 1, 30, 0
1, 6964560, Note_on_c, 1, 30, 40
1, 6965040, Note_off_c, 1, 30, 0
1, 6965040, Note_on_c, 1, 30, 40
1, 6965520, Note_off_c, 1, 30, 0
1, 6965520, Note_on_c, 1, 30, 40
1, 6966000, Note_off_c, 1, 30, 0
1, 6966000, Note_on_c, 1, 30, 40
1, 6966480, Note_off_c, 1, 30, 0
1, 6966480, Note_on_c, 1, 30, 40
1, 6966960, Note_off_c, 1, 30, 0
1, 6966960, Note_on_c, 1, 30, 40
1, 6967440, Note_off_c, 1, 30, 0
1, 6967440, Note_on_c, 1, 32, 40
1, 6967920, Note_off_c, 1, 32, 0
1, 6967920, Note_on_c, 1, 32, 40
1, 6968400, Note_off_c, 1, 32, 0
1, 6968400, Note_on_c, 1, 32, 40
1, 6968880, Note_off_c, 1, 32, 0
1, 6968880, Note_on_c, 1, 32, 40
1, 6969360, Note_off_c, 1, 32, 0
1, 6969360, Note_on_c, 1, 32, 40
1, 6969840, Note_off_c, 1, 32, 0
1, 6969840, Note_on_c, 1, 32, 40
1, 6970320, Note_off_c, 1, 32, 0
1, 6970320, Note_on_c, 1, 32, 40
1, 6970560, Note_off_c, 1, 32, 0
1, 6970560, Note_on_c, 1, 36, 40
1, 6970800, Note_off_c, 1, 36, 0
1, 6970800, Note_on_c, 1, 39, 40
1, 6971040, Note_off_c, 1, 39, 0
1, 6971040, Note_on_c, 1, 36, 40
1, 6971280, Note_off_c, 1, 36, 0
1, 6971280, Note_on_c, 1, 27, 40
1, 6971760, Note_off_c, 1, 27, 0
1, 6971760, Note_on_c, 1, 27, 40
1, 6972240, Note_off_c, 1, 27, 0
1, 6972240, Note_on_c, 1, 27, 40
1, 6972720, Note_off_c, 1, 27, 0
1, 6972720, Note_on_c, 1, 27, 40
1, 6973200, Note_off_c, 1, 27, 0
1, 6973200, Note_on_c, 1, 27, 40
1, 6973680, Note_off_c, 1, 27, 0
1, 6973680, Note_on_c, 1, 27, 40
1, 6974160, Note_off_c, 1, 27, 0
1, 6974160, Note_on_c, 1, 27, 40
1, 6974640, Note_off_c, 1, 27, 0
1, 6974640, Note_on_c, 1, 27, 40
1, 6975120, Note_off_c, 1, 27, 0
1, 6975120, Note_on_c, 1, 32, 40
1, 6975600, Note_off_c, 1, 32, 0
1, 6975600, Note_on_c, 1, 32, 40
1, 6976080, Note_off_c, 1, 32, 0
1, 6976080, Note_on_c, 1, 32, 40
1, 6976560, Note_off_c, 1, 32, 0
1, 6976560, Note_on_c, 1, 32, 40
1, 6977040, Note_off_c, 1, 32, 0
1, 6977040, Note_on_c, 1, 32, 40
1, 6977520, Note_off_c, 1, 32, 0
1, 6977520, Note_on_c, 1, 32, 40
1, 6978000, Note_off_c, 1, 32, 0
1, 6978000, Note_on_c, 1, 32, 40
1, 6978240, Note_off_c, 1, 32, 0
1, 6978240, Note_on_c, 1, 36, 40
1, 6978480, Note_off_c, 1, 36, 0
1, 6978480, Note_on_c, 1, 39, 40
1, 6978720, Note_off_c, 1, 39, 0
1, 6978720, Note_on_c, 1, 36, 40
1, 6978960, Note_off_c, 1, 36, 0
1, 6978960, Note_on_c, 1, 27, 40
1, 6979440, Note_off_c, 1, 27, 0
1, 6979440, Note_on_c, 1, 27, 40
1, 6979920, Note_off_c, 1, 27, 0
1, 6979920, Note_on_c, 1, 27, 40
1, 6980400, Note_off_c, 1, 27, 0
1, 6980400, Note_on_c, 1, 27, 40
1, 6980880, Note_off_c, 1, 27, 0
1, 6980880, Note_on_c, 1, 27, 40
1, 6981360, Note_off_c, 1, 27, 0
1, 6981360, Note_on_c, 1, 27, 40
1, 6981840, Note_off_c, 1, 27, 0
1, 6981840, Note_on_c, 1, 27, 40
1, 6982080, Note_off_c, 1, 27, 0
1, 6982080, Note_on_c, 1, 29, 40
1, 6982800, Note_off_c, 1, 29, 0
1, 6982800, Note_on_c, 1, 30, 40
1, 6983280, Note_off_c, 1, 30, 0
1, 6983280, Note_on_c, 1, 30, 40
1, 6983760, Note_off_c, 1, 30, 0
1, 6983760, Note_on_c, 1, 30, 40
1, 6984240, Note_off_c, 1, 30, 0
1, 6984240, Note_on_c, 1, 30, 40
1, 6984720, Note_off_c, 1, 30, 0
1, 6984720, Note_on_c, 1, 32, 40
1, 6985200, Note_off_c, 1, 32, 0
1, 6985200, Note_on_c, 1, 32, 40
1, 6985680, Note_off_c, 1, 32, 0
1, 6985680, Note_on_c, 1, 32, 40
1, 6986160, Note_off_c, 1, 32, 0
1, 6986160, Note_on_c, 1, 32, 40
1, 6986640, Note_off_c, 1, 32, 0
1, 6986640, Note_on_c, 1, 37, 40
1, 6988560, Note_off_c, 1, 37, 0
1, 6988560, Note_on_c, 1, 37, 40
1, 6990480, Note_off_c, 1, 37, 0
1, 6990480, Note_on_c, 1, 40, 40
1, 6992400, Note_off_c, 1, 40, 0
1, 6992400, Note_on_c, 1, 42, 40
1, 6994320, Note_off_c, 1, 42, 0
1, 6994320, Note_on_c, 1, 37, 40
1, 6996240, Note_off_c, 1, 37, 0
1, 6996240, Note_on_c, 1, 37, 40
1, 6998160, Note_off_c, 1, 37, 0
1, 6998160, Note_on_c, 1, 40, 40
1, 7000080, Note_off_c, 1, 40, 0
1, 7000080, Note_on_c, 1, 42, 40
1, 7002000, Note_off_c, 1, 42, 0
1, 7002000, Note_on_c, 1, 37, 40
1, 7002480, Note_off_c, 1, 37, 0
1, 7002480, Note_on_c, 1, 37, 40
1, 7002960, Note_off_c, 1, 37, 0
1, 7002960, Note_on_c, 1, 37, 40
1, 7003440, Note_off_c, 1, 37, 0
1, 7003440, Note_on_c, 1, 37, 40
1, 7003920, Note_off_c, 1, 37, 0
1, 7003920, Note_on_c, 1, 37, 40
1, 7004400, Note_off_c, 1, 37, 0
1, 7004400, Note_on_c, 1, 37, 40
1, 7004880, Note_off_c, 1, 37, 0
1, 7004880, Note_on_c, 1, 37, 40
1, 7005360, Note_off_c, 1, 37, 0
1, 7005360, Note_on_c, 1, 37, 40
1, 7005840, Note_off_c, 1, 37, 0
1, 7005840, Note_on_c, 1, 40, 40
1, 7006320, Note_off_c, 1, 40, 0
1, 7006320, Note_on_c, 1, 40, 40
1, 7006800, Note_off_c, 1, 40, 0
1, 7006800, Note_on_c, 1, 40, 40
1, 7007280, Note_off_c, 1, 40, 0
1, 7007280, Note_on_c, 1, 40, 40
1, 7007760, Note_off_c, 1, 40, 0
1, 7007760, Note_on_c, 1, 42, 40
1, 7008240, Note_off_c, 1, 42, 0
1, 7008240, Note_on_c, 1, 42, 40
1, 7008720, Note_off_c, 1, 42, 0
1, 7008720, Note_on_c, 1, 42, 40
1, 7009200, Note_off_c, 1, 42, 0
1, 7009200, Note_on_c, 1, 42, 40
1, 7009680, Note_off_c, 1, 42, 0
1, 7009680, Note_on_c, 1, 37, 40
1, 7010160, Note_off_c, 1, 37, 0
1, 7010160, Note_on_c, 1, 37, 40
1, 7010640, Note_off_c, 1, 37, 0
1, 7010640, Note_on_c, 1, 37, 40
1, 7011120, Note_off_c, 1, 37, 0
1, 7011120, Note_on_c, 1, 37, 40
1, 7011600, Note_off_c, 1, 37, 0
1, 7011600, Note_on_c, 1, 37, 40
1, 7012080, Note_off_c, 1, 37, 0
1, 7012080, Note_on_c, 1, 37, 40
1, 7012560, Note_off_c, 1, 37, 0
1, 7012560, Note_on_c, 1, 37, 40
1, 7013040, Note_off_c, 1, 37, 0
1, 7013040, Note_on_c, 1, 37, 40
1, 7013520, Note_off_c, 1, 37, 0
1, 7013520, Note_on_c, 1, 40, 40
1, 7014000, Note_off_c, 1, 40, 0
1, 7014000, Note_on_c, 1, 40, 40
1, 7014480, Note_off_c, 1, 40, 0
1, 7014480, Note_on_c, 1, 40, 40
1, 7014960, Note_off_c, 1, 40, 0
1, 7014960, Note_on_c, 1, 40, 40
1, 7015440, Note_off_c, 1, 40, 0
1, 7015440, Note_on_c, 1, 42, 40
1, 7015920, Note_off_c, 1, 42, 0
1, 7015920, Note_on_c, 1, 42, 40
1, 7016400, Note_off_c, 1, 42, 0
1, 7016400, Note_on_c, 1, 42, 40
1, 7016880, Note_off_c, 1, 42, 0
1, 7016880, Note_on_c, 1, 42, 40
1, 7017360, Note_off_c, 1, 42, 0
1, 7017360, Note_on_c, 1, 35, 40
1, 7019280, Note_off_c, 1, 35, 0
1, 7019280, Note_on_c, 1, 35, 40
1, 7020240, Note_off_c, 1, 35, 0
1, 7020240, Note_on_c, 1, 33, 40
1, 7022160, Note_off_c, 1, 33, 0
1, 7022160, Note_on_c, 1, 33, 40
1, 7023120, Note_off_c, 1, 33, 0
1, 7023120, Note_on_c, 1, 32, 40
1, 7025040, Note_off_c, 1, 32, 0
1, 7025040, Note_on_c, 1, 32, 40
1, 7026000, Note_off_c, 1, 32, 0
1, 7026000, Note_on_c, 1, 31, 40
1, 7027920, Note_off_c, 1, 31, 0
1, 7027920, Note_on_c, 1, 31, 40
1, 7028880, Note_off_c, 1, 31, 0
1, 7028880, Note_on_c, 1, 18, 40
1, 7030320, Note_off_c, 1, 18, 0
1, 7030320, Note_on_c, 1, 30, 40
1, 7031760, Note_off_c, 1, 30, 0
1, 7031760, Note_on_c, 1, 30, 40
1, 7033200, Note_off_c, 1, 30, 0
1, 7033200, Note_on_c, 1, 18, 40
1, 7034640, Note_off_c, 1, 18, 0
1, 7034640, Note_on_c, 1, 35, 40
1, 7036560, Note_off_c, 1, 35, 0
1, 7036560, Note_on_c, 1, 35, 40
1, 7037520, Note_off_c, 1, 35, 0
1, 7037520, Note_on_c, 1, 33, 40
1, 7039440, Note_off_c, 1, 33, 0
1, 7039440, Note_on_c, 1, 33, 40
1, 7040400, Note_off_c, 1, 33, 0
1, 7040400, Note_on_c, 1, 32, 40
1, 7042320, Note_off_c, 1, 32, 0
1, 7042320, Note_on_c, 1, 32, 40
1, 7043280, Note_off_c, 1, 32, 0
1, 7043280, Note_on_c, 1, 31, 40
1, 7045200, Note_off_c, 1, 31, 0
1, 7045200, Note_on_c, 1, 31, 40
1, 7046160, Note_off_c, 1, 31, 0
1, 7046160, Note_on_c, 1, 18, 40
1, 7047600, Note_off_c, 1, 18, 0
1, 7047600, Note_on_c, 1, 30, 40
1, 7049040, Note_off_c, 1, 30, 0
1, 7049040, Note_on_c, 1, 30, 40
1, 7050960, Note_off_c, 1, 30, 0
1, 7050960, Note_on_c, 1, 30, 40
1, 7051920, Note_off_c, 1, 30, 0
1, 7051920, Note_on_c, 1, 35, 40
1, 7053840, Note_off_c, 1, 35, 0
1, 7053840, Note_on_c, 1, 35, 40
1, 7054800, Note_off_c, 1, 35, 0
1, 7060080, Note_on_c, 1, 33, 40
1, 7060560, Note_off_c, 1, 33, 0
1, 7060560, Note_on_c, 1, 37, 40
1, 7060920, Note_off_c, 1, 37, 0
1, 7061040, Note_on_c, 1, 40, 40
1, 7061400, Note_off_c, 1, 40, 0
1, 7061520, Note_on_c, 1, 37, 40
1, 7061880, Note_off_c, 1, 37, 0
1, 7062000, Note_on_c, 1, 33, 40
1, 7062480, Note_off_c, 1, 33, 0
1, 7062480, Note_on_c, 1, 37, 40
1, 7062840, Note_off_c, 1, 37, 0
1, 7062960, Note_on_c, 1, 40, 40
1, 7063320, Note_off_c, 1, 40, 0
1, 7063440, Note_on_c, 1, 37, 40
1, 7063800, Note_off_c, 1, 37, 0
1, 7063920, Note_on_c, 1, 33, 40
1, 7064400, Note_off_c, 1, 33, 0
1, 7064400, Note_on_c, 1, 37, 40
1, 7064760, Note_off_c, 1, 37, 0
1, 7064880, Note_on_c, 1, 40, 40
1, 7065240, Note_off_c, 1, 40, 0
1, 7065360, Note_on_c, 1, 37, 40
1, 7065720, Note_off_c, 1, 37, 0
1, 7065840, Note_on_c, 1, 33, 40
1, 7066320, Note_off_c, 1, 33, 0
1, 7066320, Note_on_c, 1, 37, 40
1, 7066680, Note_off_c, 1, 37, 0
1, 7066800, Note_on_c, 1, 40, 40
1, 7067280, Note_off_c, 1, 40, 0
1, 7067280, Note_on_c, 1, 37, 40
1, 7067640, Note_off_c, 1, 37, 0
1, 7067760, Note_on_c, 1, 33, 40
1, 7068120, Note_off_c, 1, 33, 0
1, 7068240, Note_on_c, 1, 37, 40
1, 7068600, Note_off_c, 1, 37, 0
1, 7068720, Note_on_c, 1, 40, 40
1, 7069200, Note_off_c, 1, 40, 0
1, 7069200, Note_on_c, 1, 37, 40
1, 7069560, Note_off_c, 1, 37, 0
1, 7069680, Note_on_c, 1, 33, 40
1, 7070160, Note_off_c, 1, 33, 0
1, 7070160, Note_on_c, 1, 37, 40
1, 7070520, Note_off_c, 1, 37, 0
1, 7070640, Note_on_c, 1, 40, 40
1, 7071120, Note_off_c, 1, 40, 0
1, 7071120, Note_on_c, 1, 37, 40
1, 7071480, Note_off_c, 1, 37, 0
1, 7071600, Note_on_c, 1, 33, 40
1, 7072080, Note_off_c, 1, 33, 0
1, 7072080, Note_on_c, 1, 37, 40
1, 7072440, Note_off_c, 1, 37, 0
1, 7072560, Note_on_c, 1, 40, 40
1, 7073040, Note_off_c, 1, 40, 0
1, 7073040, Note_on_c, 1, 37, 40
1, 7073400, Note_off_c, 1, 37, 0
1, 7073520, Note_on_c, 1, 33, 40
1, 7073880, Note_off_c, 1, 33, 0
1, 7074000, Note_on_c, 1, 33, 40
1, 7074360, Note_off_c, 1, 33, 0
1, 7074480, Note_on_c, 1, 35, 40
1, 7074840, Note_off_c, 1, 35, 0
1, 7074960, Note_on_c, 1, 37, 40
1, 7075320, Note_off_c, 1, 37, 0
1, 7075440, Note_on_c, 1, 38, 40
1, 7075800, Note_off_c, 1, 38, 0
1, 7075920, Note_on_c, 1, 42, 40
1, 7076280, Note_off_c, 1, 42, 0
1, 7076400, Note_on_c, 1, 45, 40
1, 7076760, Note_off_c, 1, 45, 0
1, 7076880, Note_on_c, 1, 42, 40
1, 7077240, Note_off_c, 1, 42, 0
1, 7077360, Note_on_c, 1, 38, 40
1, 7077840, Note_off_c, 1, 38, 0
1, 7077840, Note_on_c, 1, 42, 40
1, 7078200, Note_off_c, 1, 42, 0
1, 7078320, Note_on_c, 1, 45, 40
1, 7078680, Note_off_c, 1, 45, 0
1, 7078800, Note_on_c, 1, 42, 40
1, 7079160, Note_off_c, 1, 42, 0
1, 7079280, Note_on_c, 1, 33, 40
1, 7079640, Note_off_c, 1, 33, 0
1, 7079760, Note_on_c, 1, 37, 40
1, 7080240, Note_off_c, 1, 37, 0
1, 7080240, Note_on_c, 1, 40, 40
1, 7080600, Note_off_c, 1, 40, 0
1, 7080720, Note_on_c, 1, 37, 40
1, 7081080, Note_off_c, 1, 37, 0
1, 7081200, Note_on_c, 1, 33, 40
1, 7081680, Note_off_c, 1, 33, 0
1, 7081680, Note_on_c, 1, 37, 40
1, 7082040, Note_off_c, 1, 37, 0
1, 7082160, Note_on_c, 1, 40, 40
1, 7082520, Note_off_c, 1, 40, 0
1, 7082640, Note_on_c, 1, 37, 40
1, 7083000, Note_off_c, 1, 37, 0
1, 7083120, Note_on_c, 1, 40, 40
1, 7083480, Note_off_c, 1, 40, 0
1, 7083600, Note_on_c, 1, 44, 40
1, 7083960, Note_off_c, 1, 44, 0
1, 7084080, Note_on_c, 1, 47, 40
1, 7084440, Note_off_c, 1, 47, 0
1, 7084560, Note_on_c, 1, 44, 40
1, 7085040, Note_off_c, 1, 44, 0
1, 7085040, Note_on_c, 1, 38, 40
1, 7085520, Note_off_c, 1, 38, 0
1, 7085520, Note_on_c, 1, 42, 40
1, 7085880, Note_off_c, 1, 42, 0
1, 7086000, Note_on_c, 1, 45, 40
1, 7086480, Note_off_c, 1, 45, 0
1, 7086480, Note_on_c, 1, 42, 40
1, 7086840, Note_off_c, 1, 42, 0
1, 7086960, Note_on_c, 1, 33, 40
1, 7087320, Note_off_c, 1, 33, 0
1, 7087440, Note_on_c, 1, 37, 40
1, 7087800, Note_off_c, 1, 37, 0
1, 7087920, Note_on_c, 1, 40, 40
1, 7088280, Note_off_c, 1, 40, 0
1, 7088400, Note_on_c, 1, 37, 40
1, 7088760, Note_off_c, 1, 37, 0
1, 7088880, Note_on_c, 1, 33, 40
1, 7089240, Note_off_c, 1, 33, 0
1, 7089360, Note_on_c, 1, 28, 40
1, 7089720, Note_off_c, 1, 28, 0
1, 7089840, Note_on_c, 1, 30, 40
1, 7090200, Note_off_c, 1, 30, 0
1, 7090320, Note_on_c, 1, 32, 40
1, 7090560, Note_off_c, 1, 32, 0
1, 7090800, Note_on_c, 1, 33, 40
1, 7091280, Note_off_c, 1, 33, 0
1, 7091280, Note_on_c, 1, 37, 40
1, 7091640, Note_off_c, 1, 37, 0
1, 7091760, Note_on_c, 1, 40, 40
1, 7092120, Note_off_c, 1, 40, 0
1, 7092240, Note_on_c, 1, 37, 40
1, 7092600, Note_off_c, 1, 37, 0
1, 7092720, Note_on_c, 1, 33, 40
1, 7093080, Note_off_c, 1, 33, 0
1, 7093200, Note_on_c, 1, 37, 40
1, 7093560, Note_off_c, 1, 37, 0
1, 7093680, Note_on_c, 1, 40, 40
1, 7094160, Note_off_c, 1, 40, 0
1, 7094160, Note_on_c, 1, 37, 40
1, 7094520, Note_off_c, 1, 37, 0
1, 7094640, Note_on_c, 1, 33, 40
1, 7095000, Note_off_c, 1, 33, 0
1, 7095120, Note_on_c, 1, 37, 40
1, 7095480, Note_off_c, 1, 37, 0
1, 7095600, Note_on_c, 1, 40, 40
1, 7095960, Note_off_c, 1, 40, 0
1, 7096080, Note_on_c, 1, 37, 40
1, 7096440, Note_off_c, 1, 37, 0
1, 7096560, Note_on_c, 1, 35, 40
1, 7096680, Note_off_c, 1, 35, 0
1, 7096680, Note_on_c, 1, 33, 40
1, 7096920, Note_off_c, 1, 33, 0
1, 7097160, Note_on_c, 1, 33, 40
1, 7097520, Note_off_c, 1, 33, 0
1, 7097520, Note_on_c, 1, 35, 40
1, 7097880, Note_off_c, 1, 35, 0
1, 7098000, Note_on_c, 1, 37, 40
1, 7098240, Note_off_c, 1, 37, 0
1, 7098480, Note_on_c, 1, 38, 40
1, 7098960, Note_off_c, 1, 38, 0
1, 7098960, Note_on_c, 1, 42, 40
1, 7099320, Note_off_c, 1, 42, 0
1, 7099440, Note_on_c, 1, 45, 40
1, 7099920, Note_off_c, 1, 45, 0
1, 7099920, Note_on_c, 1, 42, 40
1, 7100280, Note_off_c, 1, 42, 0
1, 7100400, Note_on_c, 1, 38, 40
1, 7100880, Note_off_c, 1, 38, 0
1, 7100880, Note_on_c, 1, 42, 40
1, 7101240, Note_off_c, 1, 42, 0
1, 7101360, Note_on_c, 1, 45, 40
1, 7101840, Note_off_c, 1, 45, 0
1, 7101840, Note_on_c, 1, 42, 40
1, 7102200, Note_off_c, 1, 42, 0
1, 7102320, Note_on_c, 1, 33, 40
1, 7102800, Note_off_c, 1, 33, 0
1, 7102800, Note_on_c, 1, 37, 40
1, 7103280, Note_off_c, 1, 37, 0
1, 7103280, Note_on_c, 1, 40, 40
1, 7103640, Note_off_c, 1, 40, 0
1, 7103760, Note_on_c, 1, 37, 40
1, 7104120, Note_off_c, 1, 37, 0
1, 7104240, Note_on_c, 1, 33, 40
1, 7104600, Note_off_c, 1, 33, 0
1, 7104720, Note_on_c, 1, 37, 40
1, 7105080, Note_off_c, 1, 37, 0
1, 7105200, Note_on_c, 1, 40, 40
1, 7105560, Note_off_c, 1, 40, 0
1, 7105680, Note_on_c, 1, 37, 40
1, 7106040, Note_off_c, 1, 37, 0
1, 7106160, Note_on_c, 1, 40, 40
1, 7106640, Note_off_c, 1, 40, 0
1, 7106640, Note_on_c, 1, 44, 40
1, 7107000, Note_off_c, 1, 44, 0
1, 7107120, Note_on_c, 1, 47, 40
1, 7107480, Note_off_c, 1, 47, 0
1, 7107600, Note_on_c, 1, 44, 40
1, 7107960, Note_off_c, 1, 44, 0
1, 7108080, Note_on_c, 1, 38, 40
1, 7108560, Note_off_c, 1, 38, 0
1, 7108560, Note_on_c, 1, 42, 40
1, 7108920, Note_off_c, 1, 42, 0
1, 7109040, Note_on_c, 1, 45, 40
1, 7109400, Note_off_c, 1, 45, 0
1, 7109520, Note_on_c, 1, 42, 40
1, 7109880, Note_off_c, 1, 42, 0
1, 7110000, Note_on_c, 1, 33, 40
1, 7110480, Note_off_c, 1, 33, 0
1, 7110480, Note_on_c, 1, 37, 40
1, 7110840, Note_off_c, 1, 37, 0
1, 7110960, Note_on_c, 1, 40, 40
1, 7111320, Note_off_c, 1, 40, 0
1, 7111440, Note_on_c, 1, 37, 40
1, 7111800, Note_off_c, 1, 37, 0
1, 7111920, Note_on_c, 1, 33, 40
1, 7112160, Note_off_c, 1, 33, 0
1, 7112400, Note_on_c, 1, 28, 40
1, 7112760, Note_off_c, 1, 28, 0
1, 7112880, Note_on_c, 1, 30, 40
1, 7113240, Note_off_c, 1, 30, 0
1, 7113360, Note_on_c, 1, 32, 40
1, 7113600, Note_off_c, 1, 32, 0
1, 7113840, Note_on_c, 1, 33, 40
1, 7114200, Note_off_c, 1, 33, 0
1, 7114320, Note_on_c, 1, 37, 40
1, 7114680, Note_off_c, 1, 37, 0
1, 7114800, Note_on_c, 1, 40, 40
1, 7115160, Note_off_c, 1, 40, 0
1, 7115280, Note_on_c, 1, 37, 40
1, 7115640, Note_off_c, 1, 37, 0
1, 7115760, Note_on_c, 1, 33, 40
1, 7116240, Note_off_c, 1, 33, 0
1, 7116240, Note_on_c, 1, 37, 40
1, 7116600, Note_off_c, 1, 37, 0
1, 7116720, Note_on_c, 1, 40, 40
1, 7117080, Note_off_c, 1, 40, 0
1, 7117200, Note_on_c, 1, 37, 40
1, 7117560, Note_off_c, 1, 37, 0
1, 7117680, Note_on_c, 1, 33, 40
1, 7118160, Note_off_c, 1, 33, 0
1, 7118160, Note_on_c, 1, 37, 40
1, 7118520, Note_off_c, 1, 37, 0
1, 7118640, Note_on_c, 1, 40, 40
1, 7119000, Note_off_c, 1, 40, 0
1, 7119120, Note_on_c, 1, 37, 40
1, 7119480, Note_off_c, 1, 37, 0
1, 7119600, Note_on_c, 1, 33, 40
1, 7119960, Note_off_c, 1, 33, 0
1, 7120080, Note_on_c, 1, 33, 40
1, 7120440, Note_off_c, 1, 33, 0
1, 7120560, Note_on_c, 1, 35, 40
1, 7120920, Note_off_c, 1, 35, 0
1, 7121040, Note_on_c, 1, 37, 40
1, 7121400, Note_off_c, 1, 37, 0
1, 7121520, Note_on_c, 1, 38, 40
1, 7122000, Note_off_c, 1, 38, 0
1, 7122000, Note_on_c, 1, 42, 40
1, 7122360, Note_off_c, 1, 42, 0
1, 7122480, Note_on_c, 1, 45, 40
1, 7122840, Note_off_c, 1, 45, 0
1, 7122960, Note_on_c, 1, 42, 40
1, 7123320, Note_off_c, 1, 42, 0
1, 7123440, Note_on_c, 1, 38, 40
1, 7123920, Note_off_c, 1, 38, 0
1, 7123920, Note_on_c, 1, 42, 40
1, 7124280, Note_off_c, 1, 42, 0
1, 7124400, Note_on_c, 1, 45, 40
1, 7124880, Note_off_c, 1, 45, 0
1, 7124880, Note_on_c, 1, 42, 40
1, 7125240, Note_off_c, 1, 42, 0
1, 7125360, Note_on_c, 1, 33, 40
1, 7125840, Note_off_c, 1, 33, 0
1, 7125840, Note_on_c, 1, 37, 40
1, 7126200, Note_off_c, 1, 37, 0
1, 7126320, Note_on_c, 1, 40, 40
1, 7126680, Note_off_c, 1, 40, 0
1, 7126800, Note_on_c, 1, 37, 40
1, 7127160, Note_off_c, 1, 37, 0
1, 7127280, Note_on_c, 1, 33, 40
1, 7127760, Note_off_c, 1, 33, 0
1, 7127760, Note_on_c, 1, 37, 40
1, 7128120, Note_off_c, 1, 37, 0
1, 7128240, Note_on_c, 1, 40, 40
1, 7128600, Note_off_c, 1, 40, 0
1, 7128720, Note_on_c, 1, 37, 40
1, 7129080, Note_off_c, 1, 37, 0
1, 7129200, Note_on_c, 1, 40, 40
1, 7129680, Note_off_c, 1, 40, 0
1, 7129680, Note_on_c, 1, 44, 40
1, 7130040, Note_off_c, 1, 44, 0
1, 7130160, Note_on_c, 1, 47, 40
1, 7130640, Note_off_c, 1, 47, 0
1, 7130640, Note_on_c, 1, 44, 40
1, 7131000, Note_off_c, 1, 44, 0
1, 7131120, Note_on_c, 1, 38, 40
1, 7131600, Note_off_c, 1, 38, 0
1, 7131600, Note_on_c, 1, 42, 40
1, 7131960, Note_off_c, 1, 42, 0
1, 7132080, Note_on_c, 1, 45, 40
1, 7132440, Note_off_c, 1, 45, 0
1, 7132560, Note_on_c, 1, 42, 40
1, 7132920, Note_off_c, 1, 42, 0
1, 7133040, Note_on_c, 1, 33, 40
1, 7133520, Note_off_c, 1, 33, 0
1, 7133520, Note_on_c, 1, 37, 40
1, 7133880, Note_off_c, 1, 37, 0
1, 7134000, Note_on_c, 1, 40, 40
1, 7134480, Note_off_c, 1, 40, 0
1, 7134480, Note_on_c, 1, 37, 40
1, 7134840, Note_off_c, 1, 37, 0
1, 7134960, Note_on_c, 1, 33, 40
1, 7135320, Note_off_c, 1, 33, 0
1, 7135440, Note_on_c, 1, 29, 40
1, 7135680, Note_off_c, 1, 29, 0
1, 7135920, Note_on_c, 1, 30, 40
1, 7136280, Note_off_c, 1, 30, 0
1, 7136400, Note_on_c, 1, 32, 40
1, 7136640, Note_off_c, 1, 32, 0
1, 7136880, Note_on_c, 1, 33, 40
1, 7137240, Note_off_c, 1, 33, 0
1, 7137360, Note_on_c, 1, 37, 40
1, 7137720, Note_off_c, 1, 37, 0
1, 7137840, Note_on_c, 1, 40, 40
1, 7138200, Note_off_c, 1, 40, 0
1, 7138320, Note_on_c, 1, 37, 40
1, 7138680, Note_off_c, 1, 37, 0
1, 7138800, Note_on_c, 1, 33, 40
1, 7139280, Note_off_c, 1, 33, 0
1, 7139280, Note_on_c, 1, 37, 40
1, 7139640, Note_off_c, 1, 37, 0
1, 7139760, Note_on_c, 1, 40, 40
1, 7140120, Note_off_c, 1, 40, 0
1, 7140240, Note_on_c, 1, 37, 40
1, 7140600, Note_off_c, 1, 37, 0
1, 7140720, Note_on_c, 1, 33, 40
1, 7141200, Note_off_c, 1, 33, 0
1, 7141200, Note_on_c, 1, 37, 40
1, 7141560, Note_off_c, 1, 37, 0
1, 7141680, Note_on_c, 1, 40, 40
1, 7142040, Note_off_c, 1, 40, 0
1, 7142160, Note_on_c, 1, 37, 40
1, 7142520, Note_off_c, 1, 37, 0
1, 7142640, Note_on_c, 1, 33, 40
1, 7143000, Note_off_c, 1, 33, 0
1, 7143120, Note_on_c, 1, 33, 40
1, 7143480, Note_off_c, 1, 33, 0
1, 7143600, Note_on_c, 1, 35, 40
1, 7143960, Note_off_c, 1, 35, 0
1, 7144080, Note_on_c, 1, 37, 40
1, 7144440, Note_off_c, 1, 37, 0
1, 7144560, Note_on_c, 1, 38, 40
1, 7145040, Note_off_c, 1, 38, 0
1, 7145040, Note_on_c, 1, 42, 40
1, 7145400, Note_off_c, 1, 42, 0
1, 7145520, Note_on_c, 1, 45, 40
1, 7145880, Note_off_c, 1, 45, 0
1, 7146000, Note_on_c, 1, 42, 40
1, 7146360, Note_off_c, 1, 42, 0
1, 7146480, Note_on_c, 1, 38, 40
1, 7146960, Note_off_c, 1, 38, 0
1, 7146960, Note_on_c, 1, 42, 40
1, 7147320, Note_off_c, 1, 42, 0
1, 7147440, Note_on_c, 1, 45, 40
1, 7147920, Note_off_c, 1, 45, 0
1, 7147920, Note_on_c, 1, 42, 40
1, 7148280, Note_off_c, 1, 42, 0
1, 7148400, Note_on_c, 1, 33, 40
1, 7148880, Note_off_c, 1, 33, 0
1, 7148880, Note_on_c, 1, 37, 40
1, 7149240, Note_off_c, 1, 37, 0
1, 7149360, Note_on_c, 1, 40, 40
1, 7149720, Note_off_c, 1, 40, 0
1, 7149840, Note_on_c, 1, 37, 40
1, 7150200, Note_off_c, 1, 37, 0
1, 7150320, Note_on_c, 1, 33, 40
1, 7150680, Note_off_c, 1, 33, 0
1, 7150800, Note_on_c, 1, 37, 40
1, 7151160, Note_off_c, 1, 37, 0
1, 7151280, Note_on_c, 1, 40, 40
1, 7151640, Note_off_c, 1, 40, 0
1, 7151760, Note_on_c, 1, 37, 40
1, 7152120, Note_off_c, 1, 37, 0
1, 7152240, Note_on_c, 1, 40, 40
1, 7152720, Note_off_c, 1, 40, 0
1, 7152720, Note_on_c, 1, 44, 40
1, 7153080, Note_off_c, 1, 44, 0
1, 7153200, Note_on_c, 1, 47, 40
1, 7153680, Note_off_c, 1, 47, 0
1, 7153680, Note_on_c, 1, 44, 40
1, 7154040, Note_off_c, 1, 44, 0
1, 7154160, Note_on_c, 1, 38, 40
1, 7154640, Note_off_c, 1, 38, 0
1, 7154640, Note_on_c, 1, 42, 40
1, 7155000, Note_off_c, 1, 42, 0
1, 7155120, Note_on_c, 1, 45, 40
1, 7155480, Note_off_c, 1, 45, 0
1, 7155600, Note_on_c, 1, 42, 40
1, 7155960, Note_off_c, 1, 42, 0
1, 7156080, Note_on_c, 1, 33, 40
1, 7156560, Note_off_c, 1, 33, 0
1, 7156560, Note_on_c, 1, 37, 40
1, 7156920, Note_off_c, 1, 37, 0
1, 7157040, Note_on_c, 1, 40, 40
1, 7157400, Note_off_c, 1, 40, 0
1, 7157520, Note_on_c, 1, 37, 40
1, 7157880, Note_off_c, 1, 37, 0
1, 7158000, Note_on_c, 1, 33, 40
1, 7158360, Note_off_c, 1, 33, 0
1, 7158480, Note_on_c, 1, 29, 40
1, 7158600, Note_off_c, 1, 29, 0
1, 7158600, Note_on_c, 1, 28, 40
1, 7158960, Note_off_c, 1, 28, 0
1, 7158960, Note_on_c, 1, 30, 40
1, 7159320, Note_off_c, 1, 30, 0
1, 7159440, Note_on_c, 1, 32, 40
1, 7159680, Note_off_c, 1, 32, 0
1, 7159920, Note_on_c, 1, 33, 40
1, 7160400, Note_off_c, 1, 33, 0
1, 7160400, Note_on_c, 1, 37, 40
1, 7160760, Note_off_c, 1, 37, 0
1, 7160880, Note_on_c, 1, 40, 40
1, 7161240, Note_off_c, 1, 40, 0
1, 7161360, Note_on_c, 1, 37, 40
1, 7161720, Note_off_c, 1, 37, 0
1, 7161840, Note_on_c, 1, 33, 40
1, 7162320, Note_off_c, 1, 33, 0
1, 7162320, Note_on_c, 1, 37, 40
1, 7162800, Note_off_c, 1, 37, 0
1, 7162800, Note_on_c, 1, 40, 40
1, 7163280, Note_off_c, 1, 40, 0
1, 7163280, Note_on_c, 1, 37, 40
1, 7163640, Note_off_c, 1, 37, 0
1, 7163760, Note_on_c, 1, 33, 40
1, 7164240, Note_off_c, 1, 33, 0
1, 7164240, Note_on_c, 1, 37, 40
1, 7164600, Note_off_c, 1, 37, 0
1, 7164720, Note_on_c, 1, 40, 40
1, 7165080, Note_off_c, 1, 40, 0
1, 7165200, Note_on_c, 1, 37, 40
1, 7165560, Note_off_c, 1, 37, 0
1, 7165680, Note_on_c, 1, 33, 40
1, 7166040, Note_off_c, 1, 33, 0
1, 7166160, Note_on_c, 1, 33, 40
1, 7166520, Note_off_c, 1, 33, 0
1, 7166640, Note_on_c, 1, 35, 40
1, 7167000, Note_off_c, 1, 35, 0
1, 7167120, Note_on_c, 1, 37, 40
1, 7167480, Note_off_c, 1, 37, 0
1, 7167600, Note_on_c, 1, 38, 40
1, 7167960, Note_off_c, 1, 38, 0
1, 7168080, Note_on_c, 1, 42, 40
1, 7168440, Note_off_c, 1, 42, 0
1, 7168560, Note_on_c, 1, 45, 40
1, 7169040, Note_off_c, 1, 45, 0
1, 7169040, Note_on_c, 1, 42, 40
1, 7169400, Note_off_c, 1, 42, 0
1, 7169520, Note_on_c, 1, 38, 40
1, 7169880, Note_off_c, 1, 38, 0
1, 7170000, Note_on_c, 1, 42, 40
1, 7170360, Note_off_c, 1, 42, 0
1, 7170480, Note_on_c, 1, 45, 40
1, 7170960, Note_off_c, 1, 45, 0
1, 7170960, Note_on_c, 1, 42, 40
1, 7171320, Note_off_c, 1, 42, 0
1, 7171440, Note_on_c, 1, 33, 40
1, 7171920, Note_off_c, 1, 33, 0
1, 7171920, Note_on_c, 1, 37, 40
1, 7172400, Note_off_c, 1, 37, 0
1, 7172400, Note_on_c, 1, 40, 40
1, 7172760, Note_off_c, 1, 40, 0
1, 7172880, Note_on_c, 1, 37, 40
1, 7173240, Note_off_c, 1, 37, 0
1, 7173360, Note_on_c, 1, 33, 40
1, 7173840, Note_off_c, 1, 33, 0
1, 7173840, Note_on_c, 1, 37, 40
1, 7174200, Note_off_c, 1, 37, 0
1, 7174320, Note_on_c, 1, 40, 40
1, 7174680, Note_off_c, 1, 40, 0
1, 7174800, Note_on_c, 1, 37, 40
1, 7175280, Note_off_c, 1, 37, 0
1, 7175280, Note_on_c, 1, 40, 40
1, 7175760, Note_off_c, 1, 40, 0
1, 7175760, Note_on_c, 1, 44, 40
1, 7176120, Note_off_c, 1, 44, 0
1, 7176240, Note_on_c, 1, 47, 40
1, 7176600, Note_off_c, 1, 47, 0
1, 7176720, Note_on_c, 1, 44, 40
1, 7177080, Note_off_c, 1, 44, 0
1, 7177200, Note_on_c, 1, 38, 40
1, 7177680, Note_off_c, 1, 38, 0
1, 7177680, Note_on_c, 1, 42, 40
1, 7178040, Note_off_c, 1, 42, 0
1, 7178160, Note_on_c, 1, 45, 40
1, 7178520, Note_off_c, 1, 45, 0
1, 7178640, Note_on_c, 1, 42, 40
1, 7179000, Note_off_c, 1, 42, 0
1, 7179120, Note_on_c, 1, 33, 40
1, 7179600, Note_off_c, 1, 33, 0
1, 7179600, Note_on_c, 1, 37, 40
1, 7179960, Note_off_c, 1, 37, 0
1, 7180080, Note_on_c, 1, 40, 40
1, 7180560, Note_off_c, 1, 40, 0
1, 7180560, Note_on_c, 1, 37, 40
1, 7180920, Note_off_c, 1, 37, 0
1, 7181040, Note_on_c, 1, 33, 40
1, 7181280, Note_off_c, 1, 33, 0
1, 7181520, Note_on_c, 1, 28, 40
1, 7181880, Note_off_c, 1, 28, 0
1, 7182000, Note_on_c, 1, 30, 40
1, 7182360, Note_off_c, 1, 30, 0
1, 7182480, Note_on_c, 1, 32, 40
1, 7182840, Note_off_c, 1, 32, 0
1, 7182960, Note_on_c, 1, 33, 40
1, 7183440, Note_off_c, 1, 33, 0
1, 7183440, Note_on_c, 1, 37, 40
1, 7183800, Note_off_c, 1, 37, 0
1, 7183920, Note_on_c, 1, 40, 40
1, 7184400, Note_off_c, 1, 40, 0
1, 7184400, Note_on_c, 1, 37, 40
1, 7184760, Note_off_c, 1, 37, 0
1, 7184880, Note_on_c, 1, 33, 40
1, 7185360, Note_off_c, 1, 33, 0
1, 7185360, Note_on_c, 1, 37, 40
1, 7185840, Note_off_c, 1, 37, 0
1, 7185840, Note_on_c, 1, 40, 40
1, 7186320, Note_off_c, 1, 40, 0
1, 7186320, Note_on_c, 1, 37, 40
1, 7186680, Note_off_c, 1, 37, 0
1, 7186800, Note_on_c, 1, 33, 40
1, 7187280, Note_off_c, 1, 33, 0
1, 7187280, Note_on_c, 1, 37, 40
1, 7187640, Note_off_c, 1, 37, 0
1, 7187760, Note_on_c, 1, 40, 40
1, 7188240, Note_off_c, 1, 40, 0
1, 7188240, Note_on_c, 1, 37, 40
1, 7188600, Note_off_c, 1, 37, 0
1, 7188720, Note_on_c, 1, 33, 40
1, 7189080, Note_off_c, 1, 33, 0
1, 7189200, Note_on_c, 1, 33, 40
1, 7189560, Note_off_c, 1, 33, 0
1, 7189680, Note_on_c, 1, 35, 40
1, 7190040, Note_off_c, 1, 35, 0
1, 7190160, Note_on_c, 1, 37, 40
1, 7190520, Note_off_c, 1, 37, 0
1, 7190640, Note_on_c, 1, 38, 40
1, 7191120, Note_off_c, 1, 38, 0
1, 7191120, Note_on_c, 1, 42, 40
1, 7191480, Note_off_c, 1, 42, 0
1, 7191600, Note_on_c, 1, 45, 40
1, 7192080, Note_off_c, 1, 45, 0
1, 7192080, Note_on_c, 1, 42, 40
1, 7192440, Note_off_c, 1, 42, 0
1, 7192560, Note_on_c, 1, 38, 40
1, 7193040, Note_off_c, 1, 38, 0
1, 7193040, Note_on_c, 1, 42, 40
1, 7193400, Note_off_c, 1, 42, 0
1, 7193520, Note_on_c, 1, 45, 40
1, 7193880, Note_off_c, 1, 45, 0
1, 7194000, Note_on_c, 1, 42, 40
1, 7194360, Note_off_c, 1, 42, 0
1, 7194480, Note_on_c, 1, 33, 40
1, 7194960, Note_off_c, 1, 33, 0
1, 7194960, Note_on_c, 1, 37, 40
1, 7195320, Note_off_c, 1, 37, 0
1, 7195440, Note_on_c, 1, 40, 40
1, 7195800, Note_off_c, 1, 40, 0
1, 7195920, Note_on_c, 1, 37, 40
1, 7196280, Note_off_c, 1, 37, 0
1, 7196400, Note_on_c, 1, 33, 40
1, 7196760, Note_off_c, 1, 33, 0
1, 7196880, Note_on_c, 1, 37, 40
1, 7197240, Note_off_c, 1, 37, 0
1, 7197360, Note_on_c, 1, 40, 40
1, 7197720, Note_off_c, 1, 40, 0
1, 7197840, Note_on_c, 1, 37, 40
1, 7198320, Note_off_c, 1, 37, 0
1, 7198320, Note_on_c, 1, 40, 40
1, 7198800, Note_off_c, 1, 40, 0
1, 7198800, Note_on_c, 1, 44, 40
1, 7199160, Note_off_c, 1, 44, 0
1, 7199280, Note_on_c, 1, 47, 40
1, 7199760, Note_off_c, 1, 47, 0
1, 7199760, Note_on_c, 1, 44, 40
1, 7200120, Note_off_c, 1, 44, 0
1, 7200240, Note_on_c, 1, 38, 40
1, 7200720, Note_off_c, 1, 38, 0
1, 7200720, Note_on_c, 1, 42, 40
1, 7201080, Note_off_c, 1, 42, 0
1, 7201200, Note_on_c, 1, 45, 40
1, 7201560, Note_off_c, 1, 45, 0
1, 7201680, Note_on_c, 1, 42, 40
1, 7202040, Note_off_c, 1, 42, 0
1, 7202160, Note_on_c, 1, 33, 40
1, 7202640, Note_off_c, 1, 33, 0
1, 7202640, Note_on_c, 1, 37, 40
1, 7203000, Note_off_c, 1, 37, 0
1, 7203120, Note_on_c, 1, 40, 40
1, 7203600, Note_off_c, 1, 40, 0
1, 7203600, Note_on_c, 1, 37, 40
1, 7203960, Note_off_c, 1, 37, 0
1, 7204080, Note_on_c, 1, 33, 40
1, 7204320, Note_off_c, 1, 33, 0
1, 7204560, Note_on_c, 1, 28, 40
1, 7204920, Note_off_c, 1, 28, 0
1, 7205040, Note_on_c, 1, 30, 40
1, 7205400, Note_off_c, 1, 30, 0
1, 7205520, Note_on_c, 1, 32, 40
1, 7205760, Note_off_c, 1, 32, 0
1, 7206000, Note_on_c, 1, 33, 40
1, 7206360, Note_off_c, 1, 33, 0
1, 7206480, Note_on_c, 1, 37, 40
1, 7206840, Note_off_c, 1, 37, 0
1, 7206960, Note_on_c, 1, 40, 40
1, 7207320, Note_off_c, 1, 40, 0
1, 7207440, Note_on_c, 1, 37, 40
1, 7207800, Note_off_c, 1, 37, 0
1, 7207920, Note_on_c, 1, 33, 40
1, 7208400, Note_off_c, 1, 33, 0
1, 7208400, Note_on_c, 1, 37, 40
1, 7208760, Note_off_c, 1, 37, 0
1, 7208880, Note_on_c, 1, 40, 40
1, 7209240, Note_off_c, 1, 40, 0
1, 7209360, Note_on_c, 1, 37, 40
1, 7209720, Note_off_c, 1, 37, 0
1, 7209840, Note_on_c, 1, 33, 40
1, 7210200, Note_off_c, 1, 33, 0
1, 7210320, Note_on_c, 1, 37, 40
1, 7210680, Note_off_c, 1, 37, 0
1, 7210800, Note_on_c, 1, 40, 40
1, 7211160, Note_off_c, 1, 40, 0
1, 7211280, Note_on_c, 1, 37, 40
1, 7211640, Note_off_c, 1, 37, 0
1, 7211760, Note_on_c, 1, 33, 40
1, 7212240, Note_off_c, 1, 33, 0
1, 7212240, Note_on_c, 1, 37, 40
1, 7212720, Note_off_c, 1, 37, 0
1, 7212720, Note_on_c, 1, 40, 40
1, 7213200, Note_off_c, 1, 40, 0
1, 7213200, Note_on_c, 1, 37, 40
1, 7213560, Note_off_c, 1, 37, 0
1, 7213680, Note_on_c, 1, 38, 40
1, 7214160, Note_off_c, 1, 38, 0
1, 7214160, Note_on_c, 1, 42, 40
1, 7214520, Note_off_c, 1, 42, 0
1, 7214640, Note_on_c, 1, 45, 40
1, 7215000, Note_off_c, 1, 45, 0
1, 7215120, Note_on_c, 1, 42, 40
1, 7215480, Note_off_c, 1, 42, 0
1, 7215600, Note_on_c, 1, 38, 40
1, 7216080, Note_off_c, 1, 38, 0
1, 7216080, Note_on_c, 1, 42, 40
1, 7216440, Note_off_c, 1, 42, 0
1, 7216560, Note_on_c, 1, 45, 40
1, 7216920, Note_off_c, 1, 45, 0
1, 7217040, Note_on_c, 1, 42, 40
1, 7217400, Note_off_c, 1, 42, 0
1, 7217520, Note_on_c, 1, 33, 40
1, 7217880, Note_off_c, 1, 33, 0
1, 7218000, Note_on_c, 1, 37, 40
1, 7218360, Note_off_c, 1, 37, 0
1, 7218480, Note_on_c, 1, 40, 40
1, 7218960, Note_off_c, 1, 40, 0
1, 7218960, Note_on_c, 1, 37, 40
1, 7219320, Note_off_c, 1, 37, 0
1, 7219440, Note_on_c, 1, 33, 40
1, 7219920, Note_off_c, 1, 33, 0
1, 7219920, Note_on_c, 1, 37, 40
1, 7220280, Note_off_c, 1, 37, 0
1, 7220400, Note_on_c, 1, 40, 40
1, 7220760, Note_off_c, 1, 40, 0
1, 7220880, Note_on_c, 1, 37, 40
1, 7221240, Note_off_c, 1, 37, 0
1, 7221360, Note_on_c, 1, 40, 40
1, 7221840, Note_off_c, 1, 40, 0
1, 7221840, Note_on_c, 1, 44, 40
1, 7222200, Note_off_c, 1, 44, 0
1, 7222320, Note_on_c, 1, 47, 40
1, 7222800, Note_off_c, 1, 47, 0
1, 7222800, Note_on_c, 1, 44, 40
1, 7223160, Note_off_c, 1, 44, 0
1, 7223280, Note_on_c, 1, 38, 40
1, 7223760, Note_off_c, 1, 38, 0
1, 7223760, Note_on_c, 1, 42, 40
1, 7224120, Note_off_c, 1, 42, 0
1, 7224240, Note_on_c, 1, 45, 40
1, 7224720, Note_off_c, 1, 45, 0
1, 7224720, Note_on_c, 1, 42, 40
1, 7225080, Note_off_c, 1, 42, 0
1, 7225200, Note_on_c, 1, 33, 40
1, 7225680, Note_off_c, 1, 33, 0
1, 7225680, Note_on_c, 1, 37, 40
1, 7226160, Note_off_c, 1, 37, 0
1, 7226160, Note_on_c, 1, 40, 40
1, 7226520, Note_off_c, 1, 40, 0
1, 7226640, Note_on_c, 1, 37, 40
1, 7227000, Note_off_c, 1, 37, 0
1, 7227120, Note_on_c, 1, 33, 40
1, 7227240, Note_off_c, 1, 33, 0
1, 7227600, Note_on_c, 1, 28, 40
1, 7227720, Note_off_c, 1, 28, 0
1, 7227840, Note_on_c, 1, 33, 40
1, 7228080, Note_off_c, 1, 33, 0
1, 7228560, Note_on_c, 1, 33, 40
1, 7230480, Note_off_c, 1, 33, 0
1, 7230480, Note_on_c, 1, 33, 40
1, 7232400, Note_off_c, 1, 33, 0
1, 7232400, Note_on_c, 1, 33, 40
1, 7232880, Note_off_c, 1, 33, 0
1, 7237680, Note_on_c, 1, 45, 40
1, 7239120, Note_off_c, 1, 45, 0
1, 7239120, Note_on_c, 1, 49, 40
1, 7239600, Note_off_c, 1, 49, 0
1, 7239600, Note_on_c, 1, 50, 40
1, 7241040, Note_off_c, 1, 50, 0
1, 7241040, Note_on_c, 1, 45, 40
1, 7241520, Note_off_c, 1, 45, 0
1, 7241520, Note_on_c, 1, 38, 40
1, 7243440, Note_off_c, 1, 38, 0
1, 7243440, Note_on_c, 1, 45, 40
1, 7244880, Note_off_c, 1, 45, 0
1, 7245360, Note_on_c, 1, 38, 40
1, 7246320, Note_off_c, 1, 38, 0
1, 7246320, Note_on_c, 1, 45, 40
1, 7247040, Note_off_c, 1, 45, 0
1, 7247160, Note_on_c, 1, 42, 40
1, 7247280, Note_off_c, 1, 42, 0
1, 7247280, Note_on_c, 1, 43, 40
1, 7248240, Note_off_c, 1, 43, 0
1, 7248240, Note_on_c, 1, 38, 40
1, 7249200, Note_off_c, 1, 38, 0
1, 7249200, Note_on_c, 1, 36, 40
1, 7250160, Note_off_c, 1, 36, 0
1, 7250160, Note_on_c, 1, 43, 40
1, 7251120, Note_off_c, 1, 43, 0
1, 7251120, Note_on_c, 1, 35, 40
1, 7252080, Note_off_c, 1, 35, 0
1, 7252080, Note_on_c, 1, 32, 40
1, 7253040, Note_off_c, 1, 32, 0
1, 7253040, Note_on_c, 1, 33, 40
1, 7254000, Note_off_c, 1, 33, 0
1, 7254000, Note_on_c, 1, 32, 40
1, 7254960, Note_off_c, 1, 32, 0
1, 7254960, Note_on_c, 1, 33, 40
1, 7255920, Note_off_c, 1, 33, 0
1, 7255920, Note_on_c, 1, 35, 40
1, 7256400, Note_off_c, 1, 35, 0
1, 7256400, Note_on_c, 1, 37, 40
1, 7256880, Note_off_c, 1, 37, 0
1, 7256880, Note_on_c, 1, 38, 40
1, 7257840, Note_off_c, 1, 38, 0
1, 7257840, Note_on_c, 1, 33, 40
1, 7258560, Note_off_c, 1, 33, 0
1, 7258680, Note_on_c, 1, 30, 40
1, 7258800, Note_off_c, 1, 30, 0
1, 7258800, Note_on_c, 1, 31, 40
1, 7259760, Note_off_c, 1, 31, 0
1, 7259760, Note_on_c, 1, 38, 40
1, 7260720, Note_off_c, 1, 38, 0
1, 7260720, Note_on_c, 1, 36, 40
1, 7261680, Note_off_c, 1, 36, 0
1, 7261680, Note_on_c, 1, 43, 40
1, 7262640, Note_off_c, 1, 43, 0
1, 7262640, Note_on_c, 1, 35, 40
1, 7263600, Note_off_c, 1, 35, 0
1, 7263600, Note_on_c, 1, 32, 40
1, 7264560, Note_off_c, 1, 32, 0
1, 7264560, Note_on_c, 1, 33, 40
1, 7265520, Note_off_c, 1, 33, 0
1, 7265520, Note_on_c, 1, 32, 40
1, 7266480, Note_off_c, 1, 32, 0
1, 7266480, Note_on_c, 1, 33, 40
1, 7267440, Note_off_c, 1, 33, 0
1, 7267440, Note_on_c, 1, 35, 40
1, 7267920, Note_off_c, 1, 35, 0
1, 7267920, Note_on_c, 1, 37, 40
1, 7268400, Note_off_c, 1, 37, 0
1, 7268400, Note_on_c, 1, 38, 40
1, 7269360, Note_off_c, 1, 38, 0
1, 7269360, Note_on_c, 1, 33, 40
1, 7269600, Note_off_c, 1, 33, 0
1, 7269720, Note_on_c, 1, 36, 40
1, 7270320, Note_off_c, 1, 36, 0
1, 7270320, Note_on_c, 1, 38, 40
1, 7271280, Note_off_c, 1, 38, 0
1, 7271280, Note_on_c, 1, 33, 40
1, 7271520, Note_off_c, 1, 33, 0
1, 7271640, Note_on_c, 1, 36, 40
1, 7272240, Note_off_c, 1, 36, 0
1, 7272240, Note_on_c, 1, 41, 40
1, 7272720, Note_off_c, 1, 41, 0
1, 7272720, Note_on_c, 1, 39, 40
1, 7273200, Note_off_c, 1, 39, 0
1, 7273200, Note_on_c, 1, 38, 40
1, 7273680, Note_off_c, 1, 38, 0
1, 7273680, Note_on_c, 1, 36, 40
1, 7274160, Note_off_c, 1, 36, 0
1, 7274160, Note_on_c, 1, 34, 40
1, 7274640, Note_off_c, 1, 34, 0
1, 7274640, Note_on_c, 1, 36, 40
1, 7275120, Note_off_c, 1, 36, 0
1, 7275120, Note_on_c, 1, 38, 40
1, 7275600, Note_off_c, 1, 38, 0
1, 7275600, Note_on_c, 1, 34, 40
1, 7276080, Note_off_c, 1, 34, 0
1, 7276080, Note_on_c, 1, 33, 40
1, 7276560, Note_off_c, 1, 33, 0
1, 7276560, Note_on_c, 1, 35, 40
1, 7277040, Note_off_c, 1, 35, 0
1, 7277040, Note_on_c, 1, 37, 40
1, 7277520, Note_off_c, 1, 37, 0
1, 7277520, Note_on_c, 1, 33, 40
1, 7278000, Note_off_c, 1, 33, 0
1, 7278000, Note_on_c, 1, 38, 40
1, 7278480, Note_off_c, 1, 38, 0
1, 7278480, Note_on_c, 1, 40, 40
1, 7278960, Note_off_c, 1, 40, 0
1, 7278960, Note_on_c, 1, 41, 40
1, 7279440, Note_off_c, 1, 41, 0
1, 7279440, Note_on_c, 1, 43, 40
1, 7279920, Note_off_c, 1, 43, 0
1, 7279920, Note_on_c, 1, 45, 40
1, 7281360, Note_off_c, 1, 45, 0
1, 7281360, Note_on_c, 1, 49, 40
1, 7281840, Note_off_c, 1, 49, 0
1, 7281840, Note_on_c, 1, 50, 40
1, 7283280, Note_off_c, 1, 50, 0
1, 7283280, Note_on_c, 1, 45, 40
1, 7283760, Note_off_c, 1, 45, 0
1, 7283760, Note_on_c, 1, 38, 40
1, 7285680, Note_off_c, 1, 38, 0
1, 7285680, Note_on_c, 1, 45, 40
1, 7287120, Note_off_c, 1, 45, 0
1, 7287600, Note_on_c, 1, 38, 40
1, 7288560, Note_off_c, 1, 38, 0
1, 7288560, Note_on_c, 1, 33, 40
1, 7289280, Note_off_c, 1, 33, 0
1, 7289400, Note_on_c, 1, 30, 40
1, 7289520, Note_off_c, 1, 30, 0
1, 7289520, Note_on_c, 1, 31, 40
1, 7290480, Note_off_c, 1, 31, 0
1, 7290480, Note_on_c, 1, 38, 40
1, 7291440, Note_off_c, 1, 38, 0
1, 7291440, Note_on_c, 1, 36, 40
1, 7292400, Note_off_c, 1, 36, 0
1, 7292400, Note_on_c, 1, 43, 40
1, 7293360, Note_off_c, 1, 43, 0
1, 7293360, Note_on_c, 1, 35, 40
1, 7294320, Note_off_c, 1, 35, 0
1, 7294320, Note_on_c, 1, 32, 40
1, 7295280, Note_off_c, 1, 32, 0
1, 7295280, Note_on_c, 1, 33, 40
1, 7296240, Note_off_c, 1, 33, 0
1, 7296240, Note_on_c, 1, 32, 40
1, 7297200, Note_off_c, 1, 32, 0
1, 7297200, Note_on_c, 1, 33, 40
1, 7298160, Note_off_c, 1, 33, 0
1, 7298160, Note_on_c, 1, 35, 40
1, 7298640, Note_off_c, 1, 35, 0
1, 7298640, Note_on_c, 1, 37, 40
1, 7299120, Note_off_c, 1, 37, 0
1, 7299120, Note_on_c, 1, 38, 40
1, 7300080, Note_off_c, 1, 38, 0
1, 7300080, Note_on_c, 1, 33, 40
1, 7300320, Note_off_c, 1, 33, 0
1, 7300440, Note_on_c, 1, 36, 40
1, 7301040, Note_off_c, 1, 36, 0
1, 7301040, Note_on_c, 1, 38, 40
1, 7302000, Note_off_c, 1, 38, 0
1, 7302000, Note_on_c, 1, 33, 40
1, 7302240, Note_off_c, 1, 33, 0
1, 7302360, Note_on_c, 1, 36, 40
1, 7302960, Note_off_c, 1, 36, 0
1, 7302960, Note_on_c, 1, 41, 40
1, 7303440, Note_off_c, 1, 41, 0
1, 7303440, Note_on_c, 1, 39, 40
1, 7303920, Note_off_c, 1, 39, 0
1, 7303920, Note_on_c, 1, 38, 40
1, 7304400, Note_off_c, 1, 38, 0
1, 7304400, Note_on_c, 1, 36, 40
1, 7304880, Note_off_c, 1, 36, 0
1, 7304880, Note_on_c, 1, 34, 40
1, 7305360, Note_off_c, 1, 34, 0
1, 7305360, Note_on_c, 1, 36, 40
1, 7305840, Note_off_c, 1, 36, 0
1, 7305840, Note_on_c, 1, 38, 40
1, 7306320, Note_off_c, 1, 38, 0
1, 7306320, Note_on_c, 1, 34, 40
1, 7306800, Note_off_c, 1, 34, 0
1, 7306800, Note_on_c, 1, 33, 40
1, 7307280, Note_off_c, 1, 33, 0
1, 7307280, Note_on_c, 1, 35, 40
1, 7307760, Note_off_c, 1, 35, 0
1, 7307760, Note_on_c, 1, 37, 40
1, 7308240, Note_off_c, 1, 37, 0
1, 7308240, Note_on_c, 1, 33, 40
1, 7308720, Note_off_c, 1, 33, 0
1, 7308720, Note_on_c, 1, 38, 40
1, 7309200, Note_off_c, 1, 38, 0
1, 7309200, Note_on_c, 1, 40, 40
1, 7309680, Note_off_c, 1, 40, 0
1, 7309680, Note_on_c, 1, 41, 40
1, 7310160, Note_off_c, 1, 41, 0
1, 7310160, Note_on_c, 1, 43, 40
1, 7310640, Note_off_c, 1, 43, 0
1, 7310640, Note_on_c, 1, 45, 40
1, 7312080, Note_off_c, 1, 45, 0
1, 7312080, Note_on_c, 1, 49, 40
1, 7312560, Note_off_c, 1, 49, 0
1, 7312560, Note_on_c, 1, 50, 40
1, 7314000, Note_off_c, 1, 50, 0
1, 7314000, Note_on_c, 1, 45, 40
1, 7314480, Note_off_c, 1, 45, 0
1, 7314480, Note_on_c, 1, 38, 40
1, 7316400, Note_off_c, 1, 38, 0
1, 7316400, Note_on_c, 1, 45, 40
1, 7317840, Note_off_c, 1, 45, 0
1, 7318320, Note_on_c, 1, 38, 40
1, 7319280, Note_off_c, 1, 38, 0
1, 7319280, Note_on_c, 1, 45, 40
1, 7320000, Note_off_c, 1, 45, 0
1, 7320120, Note_on_c, 1, 42, 40
1, 7320240, Note_off_c, 1, 42, 0
1, 7320240, Note_on_c, 1, 43, 40
1, 7321200, Note_off_c, 1, 43, 0
1, 7321200, Note_on_c, 1, 38, 40
1, 7322160, Note_off_c, 1, 38, 0
1, 7322160, Note_on_c, 1, 36, 40
1, 7323120, Note_off_c, 1, 36, 0
1, 7323120, Note_on_c, 1, 43, 40
1, 7324080, Note_off_c, 1, 43, 0
1, 7324080, Note_on_c, 1, 35, 40
1, 7325040, Note_off_c, 1, 35, 0
1, 7325040, Note_on_c, 1, 32, 40
1, 7326000, Note_off_c, 1, 32, 0
1, 7326000, Note_on_c, 1, 33, 40
1, 7326960, Note_off_c, 1, 33, 0
1, 7326960, Note_on_c, 1, 32, 40
1, 7327920, Note_off_c, 1, 32, 0
1, 7327920, Note_on_c, 1, 33, 40
1, 7328880, Note_off_c, 1, 33, 0
1, 7328880, Note_on_c, 1, 35, 40
1, 7329360, Note_off_c, 1, 35, 0
1, 7329360, Note_on_c, 1, 37, 40
1, 7329840, Note_off_c, 1, 37, 0
1, 7329840, Note_on_c, 1, 38, 40
1, 7330800, Note_off_c, 1, 38, 0
1, 7330800, Note_on_c, 1, 33, 40
1, 7331040, Note_off_c, 1, 33, 0
1, 7331160, Note_on_c, 1, 36, 40
1, 7331760, Note_off_c, 1, 36, 0
1, 7331760, Note_on_c, 1, 38, 40
1, 7332720, Note_off_c, 1, 38, 0
1, 7332720, Note_on_c, 1, 33, 40
1, 7332960, Note_off_c, 1, 33, 0
1, 7333080, Note_on_c, 1, 36, 40
1, 7333680, Note_off_c, 1, 36, 0
1, 7333680, Note_on_c, 1, 41, 40
1, 7334160, Note_off_c, 1, 41, 0
1, 7334160, Note_on_c, 1, 39, 40
1, 7334640, Note_off_c, 1, 39, 0
1, 7334640, Note_on_c, 1, 38, 40
1, 7335120, Note_off_c, 1, 38, 0
1, 7335120, Note_on_c, 1, 36, 40
1, 7335600, Note_off_c, 1, 36, 0
1, 7335600, Note_on_c, 1, 34, 40
1, 7336080, Note_off_c, 1, 34, 0
1, 7336080, Note_on_c, 1, 36, 40
1, 7336560, Note_off_c, 1, 36, 0
1, 7336560, Note_on_c, 1, 38, 40
1, 7337040, Note_off_c, 1, 38, 0
1, 7337040, Note_on_c, 1, 34, 40
1, 7337520, Note_off_c, 1, 34, 0
1, 7337520, Note_on_c, 1, 33, 40
1, 7338000, Note_off_c, 1, 33, 0
1, 7338000, Note_on_c, 1, 35, 40
1, 7338480, Note_off_c, 1, 35, 0
1, 7338480, Note_on_c, 1, 37, 40
1, 7338960, Note_off_c, 1, 37, 0
1, 7338960, Note_on_c, 1, 33, 40
1, 7339440, Note_off_c, 1, 33, 0
1, 7339440, Note_on_c, 1, 38, 40
1, 7339920, Note_off_c, 1, 38, 0
1, 7339920, Note_on_c, 1, 40, 40
1, 7340400, Note_off_c, 1, 40, 0
1, 7340400, Note_on_c, 1, 41, 40
1, 7340880, Note_off_c, 1, 41, 0
1, 7340880, Note_on_c, 1, 43, 40
1, 7341360, Note_off_c, 1, 43, 0
1, 7341360, Note_on_c, 1, 45, 40
1, 7342800, Note_off_c, 1, 45, 0
1, 7342800, Note_on_c, 1, 49, 40
1, 7343280, Note_off_c, 1, 49, 0
1, 7343280, Note_on_c, 1, 50, 40
1, 7344720, Note_off_c, 1, 50, 0
1, 7344720, Note_on_c, 1, 45, 40
1, 7345200, Note_off_c, 1, 45, 0
1, 7345200, Note_on_c, 1, 38, 40
1, 7347120, Note_off_c, 1, 38, 0
1, 7347120, Note_on_c, 1, 45, 40
1, 7348080, Note_off_c, 1, 45, 0
1, 7348080, Note_on_c, 1, 45, 40
1, 7349040, Note_off_c, 1, 45, 0
1, 7349040, Note_on_c, 1, 38, 40
1, 7350000, Note_off_c, 1, 38, 0
1, 7350000, Note_on_c, 1, 45, 40
1, 7350720, Note_off_c, 1, 45, 0
1, 7350840, Note_on_c, 1, 42, 40
1, 7350960, Note_off_c, 1, 42, 0
1, 7350960, Note_on_c, 1, 43, 40
1, 7351920, Note_off_c, 1, 43, 0
1, 7351920, Note_on_c, 1, 38, 40
1, 7352640, Note_off_c, 1, 38, 0
1, 7352760, Note_on_c, 1, 35, 40
1, 7352880, Note_off_c, 1, 35, 0
1, 7352880, Note_on_c, 1, 36, 40
1, 7353840, Note_off_c, 1, 36, 0
1, 7353840, Note_on_c, 1, 43, 40
1, 7354800, Note_off_c, 1, 43, 0
1, 7354800, Note_on_c, 1, 35, 40
1, 7355760, Note_off_c, 1, 35, 0
1, 7355760, Note_on_c, 1, 32, 40
1, 7356000, Note_off_c, 1, 32, 0
1, 7356120, Note_on_c, 1, 32, 40
1, 7356240, Note_off_c, 1, 32, 0
1, 7356720, Note_on_c, 1, 33, 40
1, 7357680, Note_off_c, 1, 33, 0
1, 7357680, Note_on_c, 1, 32, 40
1, 7357920, Note_off_c, 1, 32, 0
1, 7358040, Note_on_c, 1, 32, 40
1, 7358160, Note_off_c, 1, 32, 0
1, 7358640, Note_on_c, 1, 33, 40
1, 7359600, Note_off_c, 1, 33, 0
1, 7359600, Note_on_c, 1, 33, 40
1, 7359840, Note_off_c, 1, 33, 0
1, 7359960, Note_on_c, 1, 33, 40
1, 7360080, Note_off_c, 1, 33, 0
1, 7360560, Note_on_c, 1, 45, 40
1, 7362000, Note_off_c, 1, 45, 0
1, 7362000, Note_on_c, 1, 49, 40
1, 7362480, Note_off_c, 1, 49, 0
1, 7362480, Note_on_c, 1, 50, 40
1, 7363920, Note_off_c, 1, 50, 0
1, 7363920, Note_on_c, 1, 45, 40
1, 7364400, Note_off_c, 1, 45, 0
1, 7364400, Note_on_c, 1, 38, 40
1, 7366320, Note_off_c, 1, 38, 0
1, 7366320, Note_on_c, 1, 45, 40
1, 7367280, Note_off_c, 1, 45, 0
1, 7367280, Note_on_c, 1, 45, 40
1, 7368240, Note_off_c, 1, 45, 0
1, 7368240, Note_on_c, 1, 38, 40
1, 7369200, Note_off_c, 1, 38, 0
1, 7369200, Note_on_c, 1, 33, 40
1, 7369920, Note_off_c, 1, 33, 0
1, 7370040, Note_on_c, 1, 42, 40
1, 7370160, Note_off_c, 1, 42, 0
1, 7370160, Note_on_c, 1, 43, 40
1, 7371120, Note_off_c, 1, 43, 0
1, 7371120, Note_on_c, 1, 38, 40
1, 7372080, Note_off_c, 1, 38, 0
1, 7372080, Note_on_c, 1, 36, 40
1, 7373040, Note_off_c, 1, 36, 0
1, 7373040, Note_on_c, 1, 43, 40
1, 7374000, Note_off_c, 1, 43, 0
1, 7374000, Note_on_c, 1, 35, 40
1, 7374960, Note_off_c, 1, 35, 0
1, 7374960, Note_on_c, 1, 32, 40
1, 7375920, Note_off_c, 1, 32, 0
1, 7375920, Note_on_c, 1, 33, 40
1, 7376880, Note_off_c, 1, 33, 0
1, 7376880, Note_on_c, 1, 32, 40
1, 7377840, Note_off_c, 1, 32, 0
1, 7377840, Note_on_c, 1, 33, 40
1, 7378800, Note_off_c, 1, 33, 0
1, 7378800, Note_on_c, 1, 35, 40
1, 7379280, Note_off_c, 1, 35, 0
1, 7379280, Note_on_c, 1, 37, 40
1, 7379760, Note_off_c, 1, 37, 0
1, 7379760, Note_on_c, 1, 38, 40
1, 7380720, Note_off_c, 1, 38, 0
1, 7380720, Note_on_c, 1, 33, 40
1, 7381440, Note_off_c, 1, 33, 0
1, 7381560, Note_on_c, 1, 42, 40
1, 7381680, Note_off_c, 1, 42, 0
1, 7381680, Note_on_c, 1, 43, 40
1, 7382640, Note_off_c, 1, 43, 0
1, 7382640, Note_on_c, 1, 38, 40
1, 7383600, Note_off_c, 1, 38, 0
1, 7383600, Note_on_c, 1, 36, 40
1, 7384560, Note_off_c, 1, 36, 0
1, 7384560, Note_on_c, 1, 43, 40
1, 7385520, Note_off_c, 1, 43, 0
1, 7385520, Note_on_c, 1, 35, 40
1, 7386480, Note_off_c, 1, 35, 0
1, 7386480, Note_on_c, 1, 32, 40
1, 7387440, Note_off_c, 1, 32, 0
1, 7387440, Note_on_c, 1, 33, 40
1, 7388400, Note_off_c, 1, 33, 0
1, 7388400, Note_on_c, 1, 32, 40
1, 7389360, Note_off_c, 1, 32, 0
1, 7389360, Note_on_c, 1, 33, 40
1, 7390320, Note_off_c, 1, 33, 0
1, 7390320, Note_on_c, 1, 35, 40
1, 7390800, Note_off_c, 1, 35, 0
1, 7390800, Note_on_c, 1, 37, 40
1, 7391280, Note_off_c, 1, 37, 0
1, 7391280, Note_on_c, 1, 38, 40
1, 7392240, Note_off_c, 1, 38, 0
1, 7392240, Note_on_c, 1, 33, 40
1, 7392960, Note_off_c, 1, 33, 0
1, 7393080, Note_on_c, 1, 42, 40
1, 7393200, Note_off_c, 1, 42, 0
1, 7393200, Note_on_c, 1, 43, 40
1, 7394160, Note_off_c, 1, 43, 0
1, 7394160, Note_on_c, 1, 38, 40
1, 7395120, Note_off_c, 1, 38, 0
1, 7395120, Note_on_c, 1, 36, 40
1, 7396080, Note_off_c, 1, 36, 0
1, 7396080, Note_on_c, 1, 43, 40
1, 7397040, Note_off_c, 1, 43, 0
1, 7397040, Note_on_c, 1, 35, 40
1, 7398000, Note_off_c, 1, 35, 0
1, 7398000, Note_on_c, 1, 32, 40
1, 7398960, Note_off_c, 1, 32, 0
1, 7398960, Note_on_c, 1, 33, 40
1, 7399920, Note_off_c, 1, 33, 0
1, 7399920, Note_on_c, 1, 32, 40
1, 7400880, Note_off_c, 1, 32, 0
1, 7400880, Note_on_c, 1, 33, 40
1, 7401840, Note_off_c, 1, 33, 0
1, 7401840, Note_on_c, 1, 35, 40
1, 7402320, Note_off_c, 1, 35, 0
1, 7402320, Note_on_c, 1, 37, 40
1, 7402800, Note_off_c, 1, 37, 0
1, 7402800, Note_on_c, 1, 38, 40
1, 7403760, Note_off_c, 1, 38, 0
1, 7403760, Note_on_c, 1, 33, 40
1, 7404480, Note_off_c, 1, 33, 0
1, 7404600, Note_on_c, 1, 42, 40
1, 7404720, Note_off_c, 1, 42, 0
1, 7404720, Note_on_c, 1, 43, 40
1, 7405680, Note_off_c, 1, 43, 0
1, 7405680, Note_on_c, 1, 38, 40
1, 7406640, Note_off_c, 1, 38, 0
1, 7406640, Note_on_c, 1, 36, 40
1, 7407600, Note_off_c, 1, 36, 0
1, 7407600, Note_on_c, 1, 43, 40
1, 7408560, Note_off_c, 1, 43, 0
1, 7408560, Note_on_c, 1, 35, 40
1, 7409520, Note_off_c, 1, 35, 0
1, 7409520, Note_on_c, 1, 32, 40
1, 7410480, Note_off_c, 1, 32, 0
1, 7410480, Note_on_c, 1, 33, 40
1, 7411440, Note_off_c, 1, 33, 0
1, 7411440, Note_on_c, 1, 32, 40
1, 7412400, Note_off_c, 1, 32, 0
1, 7412400, Note_on_c, 1, 33, 40
1, 7413360, Note_off_c, 1, 33, 0
1, 7413360, Note_on_c, 1, 35, 40
1, 7413840, Note_off_c, 1, 35, 0
1, 7413840, Note_on_c, 1, 37, 40
1, 7414320, Note_off_c, 1, 37, 0
1, 7423920, Note_on_c, 1, 39, 40
1, 7424640, Note_off_c, 1, 39, 0
1, 7424640, Note_on_c, 1, 39, 40
1, 7424760, Note_off_c, 1, 39, 0
1, 7424880, Note_on_c, 1, 44, 40
1, 7425480, Note_off_c, 1, 44, 0
1, 7425840, Note_on_c, 1, 39, 40
1, 7426560, Note_off_c, 1, 39, 0
1, 7426560, Note_on_c, 1, 39, 40
1, 7426680, Note_off_c, 1, 39, 0
1, 7426800, Note_on_c, 1, 44, 40
1, 7427400, Note_off_c, 1, 44, 0
1, 7427760, Note_on_c, 1, 39, 40
1, 7428480, Note_off_c, 1, 39, 0
1, 7428480, Note_on_c, 1, 39, 40
1, 7428600, Note_off_c, 1, 39, 0
1, 7428720, Note_on_c, 1, 44, 40
1, 7429320, Note_off_c, 1, 44, 0
1, 7429680, Note_on_c, 1, 39, 40
1, 7430400, Note_off_c, 1, 39, 0
1, 7430400, Note_on_c, 1, 39, 40
1, 7430520, Note_off_c, 1, 39, 0
1, 7430640, Note_on_c, 1, 44, 40
1, 7431240, Note_off_c, 1, 44, 0
1, 7431600, Note_on_c, 1, 39, 40
1, 7432320, Note_off_c, 1, 39, 0
1, 7432320, Note_on_c, 1, 39, 40
1, 7432440, Note_off_c, 1, 39, 0
1, 7432560, Note_on_c, 1, 44, 40
1, 7433160, Note_off_c, 1, 44, 0
1, 7433520, Note_on_c, 1, 39, 40
1, 7433880, Note_off_c, 1, 39, 0
1, 7434000, Note_on_c, 1, 39, 40
1, 7434360, Note_off_c, 1, 39, 0
1, 7434480, Note_on_c, 1, 41, 40
1, 7434840, Note_off_c, 1, 41, 0
1, 7434960, Note_on_c, 1, 43, 40
1, 7435320, Note_off_c, 1, 43, 0
1, 7435440, Note_on_c, 1, 44, 40
1, 7436040, Note_off_c, 1, 44, 0
1, 7436160, Note_on_c, 1, 44, 40
1, 7436280, Note_off_c, 1, 44, 0
1, 7436400, Note_on_c, 1, 39, 40
1, 7437000, Note_off_c, 1, 39, 0
1, 7437360, Note_on_c, 1, 44, 40
1, 7437960, Note_off_c, 1, 44, 0
1, 7438080, Note_on_c, 1, 44, 40
1, 7438200, Note_off_c, 1, 44, 0
1, 7438320, Note_on_c, 1, 39, 40
1, 7438920, Note_off_c, 1, 39, 0
1, 7439280, Note_on_c, 1, 39, 40
1, 7440000, Note_off_c, 1, 39, 0
1, 7440000, Note_on_c, 1, 39, 40
1, 7440120, Note_off_c, 1, 39, 0
1, 7440240, Note_on_c, 1, 44, 40
1, 7440840, Note_off_c, 1, 44, 0
1, 7441200, Note_on_c, 1, 39, 40
1, 7441560, Note_off_c, 1, 39, 0
1, 7441920, Note_on_c, 1, 39, 40
1, 7442040, Note_off_c, 1, 39, 0
1, 7442160, Note_on_c, 1, 39, 40
1, 7442520, Note_off_c, 1, 39, 0
1, 7442640, Note_on_c, 1, 39, 40
1, 7442760, Note_off_c, 1, 39, 0
1, 7443120, Note_on_c, 1, 48, 40
1, 7443240, Note_off_c, 1, 48, 0
1, 7443840, Note_on_c, 1, 48, 40
1, 7443960, Note_off_c, 1, 48, 0
1, 7444080, Note_on_c, 1, 48, 40
1, 7444440, Note_off_c, 1, 48, 0
1, 7445040, Note_on_c, 1, 48, 40
1, 7445160, Note_off_c, 1, 48, 0
1, 7445760, Note_on_c, 1, 48, 40
1, 7445880, Note_off_c, 1, 48, 0
1, 7446000, Note_on_c, 1, 48, 40
1, 7446360, Note_off_c, 1, 48, 0
1, 7446960, Note_on_c, 1, 48, 40
1, 7447080, Note_off_c, 1, 48, 0
1, 7447680, Note_on_c, 1, 48, 40
1, 7447800, Note_off_c, 1, 48, 0
1, 7447920, Note_on_c, 1, 48, 40
1, 7448280, Note_off_c, 1, 48, 0
1, 7448880, Note_on_c, 1, 48, 40
1, 7449000, Note_off_c, 1, 48, 0
1, 7449600, Note_on_c, 1, 48, 40
1, 7449720, Note_off_c, 1, 48, 0
1, 7449840, Note_on_c, 1, 48, 40
1, 7450200, Note_off_c, 1, 48, 0
1, 7450320, Note_on_c, 1, 46, 40
1, 7450680, Note_off_c, 1, 46, 0
1, 7450800, Note_on_c, 1, 44, 40
1, 7451400, Note_off_c, 1, 44, 0
1, 7451520, Note_on_c, 1, 44, 40
1, 7451640, Note_off_c, 1, 44, 0
1, 7451760, Note_on_c, 1, 39, 40
1, 7452360, Note_off_c, 1, 39, 0
1, 7452720, Note_on_c, 1, 44, 40
1, 7453320, Note_off_c, 1, 44, 0
1, 7453440, Note_on_c, 1, 44, 40
1, 7453560, Note_off_c, 1, 44, 0
1, 7453680, Note_on_c, 1, 39, 40
1, 7454280, Note_off_c, 1, 39, 0
1, 7454640, Note_on_c, 1, 39, 40
1, 7455360, Note_off_c, 1, 39, 0
1, 7455360, Note_on_c, 1, 39, 40
1, 7455480, Note_off_c, 1, 39, 0
1, 7455600, Note_on_c, 1, 44, 40
1, 7456200, Note_off_c, 1, 44, 0
1, 7456560, Note_on_c, 1, 39, 40
1, 7456920, Note_off_c, 1, 39, 0
1, 7457040, Note_on_c, 1, 39, 40
1, 7457400, Note_off_c, 1, 39, 0
1, 7457520, Note_on_c, 1, 41, 40
1, 7457880, Note_off_c, 1, 41, 0
1, 7458000, Note_on_c, 1, 43, 40
1, 7458360, Note_off_c, 1, 43, 0
1, 7458480, Note_on_c, 1, 44, 40
1, 7459080, Note_off_c, 1, 44, 0
1, 7459200, Note_on_c, 1, 44, 40
1, 7459320, Note_off_c, 1, 44, 0
1, 7459440, Note_on_c, 1, 39, 40
1, 7460040, Note_off_c, 1, 39, 0
1, 7460400, Note_on_c, 1, 44, 40
1, 7461000, Note_off_c, 1, 44, 0
1, 7461120, Note_on_c, 1, 44, 40
1, 7461240, Note_off_c, 1, 44, 0
1, 7461360, Note_on_c, 1, 39, 40
1, 7461960, Note_off_c, 1, 39, 0
1, 7462320, Note_on_c, 1, 39, 40
1, 7463040, Note_off_c, 1, 39, 0
1, 7463040, Note_on_c, 1, 39, 40
1, 7463160, Note_off_c, 1, 39, 0
1, 7463280, Note_on_c, 1, 39, 40
1, 7463640, Note_off_c, 1, 39, 0
1, 7463760, Note_on_c, 1, 46, 40
1, 7464240, Note_off_c, 1, 46, 0
1, 7464240, Note_on_c, 1, 48, 40
1, 7464600, Note_off_c, 1, 48, 0
1, 7464960, Note_on_c, 1, 48, 40
1, 7465080, Note_off_c, 1, 48, 0
1, 7465200, Note_on_c, 1, 48, 40
1, 7465560, Note_off_c, 1, 48, 0
1, 7465680, Note_on_c, 1, 48, 40
1, 7466040, Note_off_c, 1, 48, 0
1, 7466160, Note_on_c, 1, 41, 40
1, 7466520, Note_off_c, 1, 41, 0
1, 7466880, Note_on_c, 1, 41, 40
1, 7467000, Note_off_c, 1, 41, 0
1, 7467120, Note_on_c, 1, 41, 40
1, 7467480, Note_off_c, 1, 41, 0
1, 7467600, Note_on_c, 1, 41, 40
1, 7467960, Note_off_c, 1, 41, 0
1, 7468080, Note_on_c, 1, 46, 40
1, 7468440, Note_off_c, 1, 46, 0
1, 7470000, Note_on_c, 1, 39, 40
1, 7470720, Note_off_c, 1, 39, 0
1, 7470720, Note_on_c, 1, 39, 40
1, 7470840, Note_off_c, 1, 39, 0
1, 7470960, Note_on_c, 1, 44, 40
1, 7471560, Note_off_c, 1, 44, 0
1, 7471920, Note_on_c, 1, 39, 40
1, 7472640, Note_off_c, 1, 39, 0
1, 7472640, Note_on_c, 1, 39, 40
1, 7472760, Note_off_c, 1, 39, 0
1, 7472880, Note_on_c, 1, 44, 40
1, 7473480, Note_off_c, 1, 44, 0
1, 7473840, Note_on_c, 1, 39, 40
1, 7474560, Note_off_c, 1, 39, 0
1, 7474560, Note_on_c, 1, 39, 40
1, 7474680, Note_off_c, 1, 39, 0
1, 7474800, Note_on_c, 1, 44, 40
1, 7475400, Note_off_c, 1, 44, 0
1, 7475760, Note_on_c, 1, 39, 40
1, 7476480, Note_off_c, 1, 39, 0
1, 7476480, Note_on_c, 1, 39, 40
1, 7476600, Note_off_c, 1, 39, 0
1, 7476720, Note_on_c, 1, 44, 40
1, 7477320, Note_off_c, 1, 44, 0
1, 7477680, Note_on_c, 1, 39, 40
1, 7478400, Note_off_c, 1, 39, 0
1, 7478400, Note_on_c, 1, 39, 40
1, 7478520, Note_off_c, 1, 39, 0
1, 7478640, Note_on_c, 1, 44, 40
1, 7479240, Note_off_c, 1, 44, 0
1, 7479600, Note_on_c, 1, 39, 40
1, 7480320, Note_off_c, 1, 39, 0
1, 7480320, Note_on_c, 1, 39, 40
1, 7480440, Note_off_c, 1, 39, 0
1, 7480560, Note_on_c, 1, 44, 40
1, 7481160, Note_off_c, 1, 44, 0
1, 7481520, Note_on_c, 1, 39, 40
1, 7482240, Note_off_c, 1, 39, 0
1, 7482240, Note_on_c, 1, 39, 40
1, 7482360, Note_off_c, 1, 39, 0
1, 7482480, Note_on_c, 1, 44, 40
1, 7483080, Note_off_c, 1, 44, 0
1, 7483440, Note_on_c, 1, 39, 40
1, 7484160, Note_off_c, 1, 39, 0
1, 7484160, Note_on_c, 1, 39, 40
1, 7484280, Note_off_c, 1, 39, 0
1, 7484400, Note_on_c, 1, 44, 40
1, 7485000, Note_off_c, 1, 44, 0
1, 7485360, Note_on_c, 1, 39, 40
1, 7486080, Note_off_c, 1, 39, 0
1, 7486080, Note_on_c, 1, 39, 40
1, 7486200, Note_off_c, 1, 39, 0
1, 7486320, Note_on_c, 1, 44, 40
1, 7486920, Note_off_c, 1, 44, 0
1, 7487280, Note_on_c, 1, 39, 40
1, 7487640, Note_off_c, 1, 39, 0
1, 7487760, Note_on_c, 1, 39, 40
1, 7488120, Note_off_c, 1, 39, 0
1, 7488240, Note_on_c, 1, 41, 40
1, 7488600, Note_off_c, 1, 41, 0
1, 7488720, Note_on_c, 1, 43, 40
1, 7489080, Note_off_c, 1, 43, 0
1, 7489200, Note_on_c, 1, 44, 40
1, 7489800, Note_off_c, 1, 44, 0
1, 7489920, Note_on_c, 1, 44, 40
1, 7490040, Note_off_c, 1, 44, 0
1, 7490160, Note_on_c, 1, 39, 40
1, 7490760, Note_off_c, 1, 39, 0
1, 7491120, Note_on_c, 1, 44, 40
1, 7491720, Note_off_c, 1, 44, 0
1, 7491840, Note_on_c, 1, 44, 40
1, 7491960, Note_off_c, 1, 44, 0
1, 7492080, Note_on_c, 1, 39, 40
1, 7492680, Note_off_c, 1, 39, 0
1, 7493040, Note_on_c, 1, 39, 40
1, 7493760, Note_off_c, 1, 39, 0
1, 7493760, Note_on_c, 1, 39, 40
1, 7493880, Note_off_c, 1, 39, 0
1, 7494000, Note_on_c, 1, 39, 40
1, 7494360, Note_off_c, 1, 39, 0
1, 7494480, Note_on_c, 1, 46, 40
1, 7494840, Note_off_c, 1, 46, 0
1, 7494960, Note_on_c, 1, 48, 40
1, 7495320, Note_off_c, 1, 48, 0
1, 7495680, Note_on_c, 1, 48, 40
1, 7495800, Note_off_c, 1, 48, 0
1, 7495920, Note_on_c, 1, 48, 40
1, 7496280, Note_off_c, 1, 48, 0
1, 7496400, Note_on_c, 1, 48, 40
1, 7496760, Note_off_c, 1, 48, 0
1, 7496880, Note_on_c, 1, 41, 40
1, 7497240, Note_off_c, 1, 41, 0
1, 7497600, Note_on_c, 1, 41, 40
1, 7497720, Note_off_c, 1, 41, 0
1, 7497840, Note_on_c, 1, 41, 40
1, 7498200, Note_off_c, 1, 41, 0
1, 7498320, Note_on_c, 1, 41, 40
1, 7498680, Note_off_c, 1, 41, 0
1, 7498800, Note_on_c, 1, 46, 40
1, 7499160, Note_off_c, 1, 46, 0
1, 7500720, Note_on_c, 1, 39, 40
1, 7501440, Note_off_c, 1, 39, 0
1, 7501440, Note_on_c, 1, 39, 40
1, 7501560, Note_off_c, 1, 39, 0
1, 7501680, Note_on_c, 1, 44, 40
1, 7502280, Note_off_c, 1, 44, 0
1, 7502640, Note_on_c, 1, 39, 40
1, 7503360, Note_off_c, 1, 39, 0
1, 7503360, Note_on_c, 1, 39, 40
1, 7503480, Note_off_c, 1, 39, 0
1, 7503600, Note_on_c, 1, 44, 40
1, 7504200, Note_off_c, 1, 44, 0
1, 7504560, Note_on_c, 1, 39, 40
1, 7505280, Note_off_c, 1, 39, 0
1, 7505280, Note_on_c, 1, 39, 40
1, 7505400, Note_off_c, 1, 39, 0
1, 7505520, Note_on_c, 1, 44, 40
1, 7506120, Note_off_c, 1, 44, 0
1, 7506480, Note_on_c, 1, 39, 40
1, 7507200, Note_off_c, 1, 39, 0
1, 7507200, Note_on_c, 1, 39, 40
1, 7507320, Note_off_c, 1, 39, 0
1, 7507440, Note_on_c, 1, 44, 40
1, 7508040, Note_off_c, 1, 44, 0
1, 7508400, Note_on_c, 1, 39, 40
1, 7509120, Note_off_c, 1, 39, 0
1, 7509120, Note_on_c, 1, 39, 40
1, 7509240, Note_off_c, 1, 39, 0
1, 7509360, Note_on_c, 1, 44, 40
1, 7509960, Note_off_c, 1, 44, 0
1, 7510320, Note_on_c, 1, 39, 40
1, 7511040, Note_off_c, 1, 39, 0
1, 7511040, Note_on_c, 1, 39, 40
1, 7511160, Note_off_c, 1, 39, 0
1, 7511280, Note_on_c, 1, 44, 40
1, 7511880, Note_off_c, 1, 44, 0
1, 7512240, Note_on_c, 1, 39, 40
1, 7512960, Note_off_c, 1, 39, 0
1, 7512960, Note_on_c, 1, 39, 40
1, 7513080, Note_off_c, 1, 39, 0
1, 7513200, Note_on_c, 1, 44, 40
1, 7513800, Note_off_c, 1, 44, 0
1, 7514160, Note_on_c, 1, 39, 40
1, 7514880, Note_off_c, 1, 39, 0
1, 7514880, Note_on_c, 1, 39, 40
1, 7515000, Note_off_c, 1, 39, 0
1, 7515120, Note_on_c, 1, 44, 40
1, 7515720, Note_off_c, 1, 44, 0
1, 7516080, Note_on_c, 1, 39, 40
1, 7516800, Note_off_c, 1, 39, 0
1, 7516800, Note_on_c, 1, 39, 40
1, 7516920, Note_off_c, 1, 39, 0
1, 7517040, Note_on_c, 1, 44, 40
1, 7517640, Note_off_c, 1, 44, 0
1, 7518000, Note_on_c, 1, 39, 40
1, 7518360, Note_off_c, 1, 39, 0
1, 7518480, Note_on_c, 1, 39, 40
1, 7518840, Note_off_c, 1, 39, 0
1, 7518960, Note_on_c, 1, 41, 40
1, 7519320, Note_off_c, 1, 41, 0
1, 7519440, Note_on_c, 1, 43, 40
1, 7519800, Note_off_c, 1, 43, 0
1, 7519920, Note_on_c, 1, 44, 40
1, 7520520, Note_off_c, 1, 44, 0
1, 7520640, Note_on_c, 1, 44, 40
1, 7520760, Note_off_c, 1, 44, 0
1, 7520880, Note_on_c, 1, 39, 40
1, 7521480, Note_off_c, 1, 39, 0
1, 7521840, Note_on_c, 1, 74, 40
1, 7521960, Note_off_c, 1, 74, 0
1, 7521960, Note_on_c, 1, 44, 40
1, 7522560, Note_off_c, 1, 44, 0
1, 7522560, Note_on_c, 1, 72, 40
1, 7523160, Note_off_c, 1, 72, 0
1, 7523160, Note_on_c, 1, 75, 40
1, 7524000, Note_off_c, 1, 75, 0
1, 7524000, Note_on_c, 1, 75, 40
1, 7524360, Note_off_c, 1, 75, 0
1, 7524360, Note_on_c, 1, 75, 40
1, 7524480, Note_off_c, 1, 75, 0
1, 7524480, Note_on_c, 1, 39, 40
1, 7524600, Note_off_c, 1, 39, 0
1, 7524600, Note_on_c, 1, 75, 40
1, 7524840, Note_off_c, 1, 75, 0
1, 7525080, Note_on_c, 1, 70, 40
1, 7525320, Note_off_c, 1, 70, 0
1, 7525320, Note_on_c, 1, 70, 40
1, 7525800, Note_off_c, 1, 70, 0
1, 7526400, Note_on_c, 1, 48, 40
1, 7526520, Note_off_c, 1, 48, 0
1, 7526640, Note_on_c, 1, 48, 40
1, 7527000, Note_off_c, 1, 48, 0
1, 7527120, Note_on_c, 1, 48, 40
1, 7527480, Note_off_c, 1, 48, 0
1, 7527600, Note_on_c, 1, 41, 40
1, 7527960, Note_off_c, 1, 41, 0
1, 7528320, Note_on_c, 1, 41, 40
1, 7528440, Note_off_c, 1, 41, 0
1, 7528560, Note_on_c, 1, 41, 40
1, 7528920, Note_off_c, 1, 41, 0
1, 7529040, Note_on_c, 1, 41, 40
1, 7529400, Note_off_c, 1, 41, 0
1, 7529520, Note_on_c, 1, 46, 40
1, 7529880, Note_off_c, 1, 46, 0
1, 7531440, Note_on_c, 1, 39, 40
1, 7532160, Note_off_c, 1, 39, 0
1, 7532160, Note_on_c, 1, 39, 40
1, 7532280, Note_off_c, 1, 39, 0
1, 7532400, Note_on_c, 1, 44, 40
1, 7533000, Note_off_c, 1, 44, 0
1, 7533360, Note_on_c, 1, 39, 40
1, 7534080, Note_off_c, 1, 39, 0
1, 7534080, Note_on_c, 1, 39, 40
1, 7534200, Note_off_c, 1, 39, 0
1, 7534320, Note_on_c, 1, 44, 40
1, 7534920, Note_off_c, 1, 44, 0
1, 7535280, Note_on_c, 1, 39, 40
1, 7536000, Note_off_c, 1, 39, 0
1, 7536000, Note_on_c, 1, 39, 40
1, 7536120, Note_off_c, 1, 39, 0
1, 7536240, Note_on_c, 1, 44, 40
1, 7536840, Note_off_c, 1, 44, 0
1, 7537200, Note_on_c, 1, 39, 40
1, 7537920, Note_off_c, 1, 39, 0
1, 7537920, Note_on_c, 1, 39, 40
1, 7538040, Note_off_c, 1, 39, 0
1, 7538160, Note_on_c, 1, 44, 40
1, 7538760, Note_off_c, 1, 44, 0
1, 7539120, Note_on_c, 1, 39, 40
1, 7539840, Note_off_c, 1, 39, 0
1, 7539840, Note_on_c, 1, 39, 40
1, 7539960, Note_off_c, 1, 39, 0
1, 7540080, Note_on_c, 1, 44, 40
1, 7540680, Note_off_c, 1, 44, 0
1, 7541040, Note_on_c, 1, 39, 40
1, 7541760, Note_off_c, 1, 39, 0
1, 7541760, Note_on_c, 1, 39, 40
1, 7541880, Note_off_c, 1, 39, 0
1, 7542000, Note_on_c, 1, 44, 40
1, 7542600, Note_off_c, 1, 44, 0
1, 7542960, Note_on_c, 1, 39, 40
1, 7543680, Note_off_c, 1, 39, 0
1, 7543680, Note_on_c, 1, 39, 40
1, 7543800, Note_off_c, 1, 39, 0
1, 7543920, Note_on_c, 1, 44, 40
1, 7544520, Note_off_c, 1, 44, 0
1, 7544880, Note_on_c, 1, 39, 40
1, 7545600, Note_off_c, 1, 39, 0
1, 7545600, Note_on_c, 1, 39, 40
1, 7545720, Note_off_c, 1, 39, 0
1, 7545840, Note_on_c, 1, 44, 40
1, 7546440, Note_off_c, 1, 44, 0
1, 7546800, Note_on_c, 1, 39, 40
1, 7547520, Note_off_c, 1, 39, 0
1, 7547520, Note_on_c, 1, 39, 40
1, 7547640, Note_off_c, 1, 39, 0
1, 7547760, Note_on_c, 1, 44, 40
1, 7548360, Note_off_c, 1, 44, 0
1, 7548720, Note_on_c, 1, 39, 40
1, 7549080, Note_off_c, 1, 39, 0
1, 7549200, Note_on_c, 1, 39, 40
1, 7549560, Note_off_c, 1, 39, 0
1, 7549680, Note_on_c, 1, 41, 40
1, 7550040, Note_off_c, 1, 41, 0
1, 7550160, Note_on_c, 1, 43, 40
1, 7550520, Note_off_c, 1, 43, 0
1, 7550640, Note_on_c, 1, 44, 40
1, 7551240, Note_off_c, 1, 44, 0
1, 7551360, Note_on_c, 1, 44, 40
1, 7551480, Note_off_c, 1, 44, 0
1, 7551600, Note_on_c, 1, 39, 40
1, 7552200, Note_off_c, 1, 39, 0
1, 7552560, Note_on_c, 1, 44, 40
1, 7553160, Note_off_c, 1, 44, 0
1, 7553280, Note_on_c, 1, 44, 40
1, 7553400, Note_off_c, 1, 44, 0
1, 7553520, Note_on_c, 1, 39, 40
1, 7554120, Note_off_c, 1, 39, 0
1, 7554480, Note_on_c, 1, 39, 40
1, 7555200, Note_off_c, 1, 39, 0
1, 7555200, Note_on_c, 1, 39, 40
1, 7555320, Note_off_c, 1, 39, 0
1, 7555440, Note_on_c, 1, 39, 40
1, 7555800, Note_off_c, 1, 39, 0
1, 7555920, Note_on_c, 1, 46, 40
1, 7556280, Note_off_c, 1, 46, 0
1, 7556400, Note_on_c, 1, 48, 40
1, 7556760, Note_off_c, 1, 48, 0
1, 7557120, Note_on_c, 1, 48, 40
1, 7557240, Note_off_c, 1, 48, 0
1, 7557360, Note_on_c, 1, 48, 40
1, 7557720, Note_off_c, 1, 48, 0
1, 7557840, Note_on_c, 1, 48, 40
1, 7558200, Note_off_c, 1, 48, 0
1, 7558320, Note_on_c, 1, 41, 40
1, 7558680, Note_off_c, 1, 41, 0
1, 7559040, Note_on_c, 1, 41, 40
1, 7559160, Note_off_c, 1, 41, 0
1, 7559280, Note_on_c, 1, 41, 40
1, 7559640, Note_off_c, 1, 41, 0
1, 7559760, Note_on_c, 1, 41, 40
1, 7560120, Note_off_c, 1, 41, 0
1, 7560240, Note_on_c, 1, 46, 40
1, 7560600, Note_off_c, 1, 46, 0
1, 7562160, Note_on_c, 1, 39, 40
1, 7562880, Note_off_c, 1, 39, 0
1, 7562880, Note_on_c, 1, 39, 40
1, 7563000, Note_off_c, 1, 39, 0
1, 7563120, Note_on_c, 1, 44, 40
1, 7563720, Note_off_c, 1, 44, 0
1, 7564080, Note_on_c, 1, 39, 40
1, 7564800, Note_off_c, 1, 39, 0
1, 7564800, Note_on_c, 1, 39, 40
1, 7564920, Note_off_c, 1, 39, 0
1, 7565040, Note_on_c, 1, 44, 40
1, 7565640, Note_off_c, 1, 44, 0
1, 7566000, Note_on_c, 1, 39, 40
1, 7566720, Note_off_c, 1, 39, 0
1, 7566720, Note_on_c, 1, 39, 40
1, 7566840, Note_off_c, 1, 39, 0
1, 7566960, Note_on_c, 1, 44, 40
1, 7567560, Note_off_c, 1, 44, 0
1, 7567920, Note_on_c, 1, 39, 40
1, 7568640, Note_off_c, 1, 39, 0
1, 7568640, Note_on_c, 1, 39, 40
1, 7568760, Note_off_c, 1, 39, 0
1, 7568880, Note_on_c, 1, 44, 40
1, 7569480, Note_off_c, 1, 44, 0
1, 7569840, Note_on_c, 1, 39, 40
1, 7570560, Note_off_c, 1, 39, 0
1, 7570560, Note_on_c, 1, 39, 40
1, 7570680, Note_off_c, 1, 39, 0
1, 7570800, Note_on_c, 1, 44, 40
1, 7571400, Note_off_c, 1, 44, 0
1, 7571760, Note_on_c, 1, 39, 40
1, 7572480, Note_off_c, 1, 39, 0
1, 7572480, Note_on_c, 1, 39, 40
1, 7572600, Note_off_c, 1, 39, 0
1, 7572720, Note_on_c, 1, 44, 40
1, 7573320, Note_off_c, 1, 44, 0
1, 7573680, Note_on_c, 1, 39, 40
1, 7574400, Note_off_c, 1, 39, 0
1, 7574400, Note_on_c, 1, 39, 40
1, 7574520, Note_off_c, 1, 39, 0
1, 7574640, Note_on_c, 1, 44, 40
1, 7575240, Note_off_c, 1, 44, 0
1, 7575600, Note_on_c, 1, 39, 40
1, 7576320, Note_off_c, 1, 39, 0
1, 7576320, Note_on_c, 1, 39, 40
1, 7576440, Note_off_c, 1, 39, 0
1, 7576560, Note_on_c, 1, 44, 40
1, 7577160, Note_off_c, 1, 44, 0
1, 7581720, Note_on_c, 1, 31, 40
1, 7581840, Note_off_c, 1, 31, 0
1, 7581840, Note_on_c, 1, 36, 40
1, 7582440, Note_off_c, 1, 36, 0
1, 7582440, Note_on_c, 1, 36, 40
1, 7582560, Note_off_c, 1, 36, 0
1, 7582560, Note_on_c, 1, 31, 40
1, 7583160, Note_off_c, 1, 31, 0
1, 7583160, Note_on_c, 1, 31, 40
1, 7583280, Note_off_c, 1, 31, 0
1, 7583280, Note_on_c, 1, 36, 40
1, 7583880, Note_off_c, 1, 36, 0
1, 7583880, Note_on_c, 1, 36, 40
1, 7584000, Note_off_c, 1, 36, 0
1, 7584000, Note_on_c, 1, 31, 40
1, 7584600, Note_off_c, 1, 31, 0
1, 7584600, Note_on_c, 1, 31, 40
1, 7584720, Note_off_c, 1, 31, 0
1, 7584720, Note_on_c, 1, 36, 40
1, 7585320, Note_off_c, 1, 36, 0
1, 7585320, Note_on_c, 1, 36, 40
1, 7585440, Note_off_c, 1, 36, 0
1, 7585440, Note_on_c, 1, 31, 40
1, 7585920, Note_off_c, 1, 31, 0
1, 7585920, Note_on_c, 1, 36, 40
1, 7586160, Note_off_c, 1, 36, 0
1, 7586160, Note_on_c, 1, 36, 40
1, 7586760, Note_off_c, 1, 36, 0
1, 7586760, Note_on_c, 1, 36, 40
1, 7586880, Note_off_c, 1, 36, 0
1, 7586880, Note_on_c, 1, 31, 40
1, 7587480, Note_off_c, 1, 31, 0
1, 7587600, Note_on_c, 1, 36, 40
1, 7588200, Note_off_c, 1, 36, 0
1, 7588200, Note_on_c, 1, 36, 40
1, 7588320, Note_off_c, 1, 36, 0
1, 7588320, Note_on_c, 1, 31, 40
1, 7588920, Note_off_c, 1, 31, 0
1, 7588920, Note_on_c, 1, 31, 40
1, 7589040, Note_off_c, 1, 31, 0
1, 7589040, Note_on_c, 1, 36, 40
1, 7589640, Note_off_c, 1, 36, 0
1, 7589640, Note_on_c, 1, 36, 40
1, 7589760, Note_off_c, 1, 36, 0
1, 7589760, Note_on_c, 1, 31, 40
1, 7590360, Note_off_c, 1, 31, 0
1, 7590360, Note_on_c, 1, 31, 40
1, 7590480, Note_off_c, 1, 31, 0
1, 7590480, Note_on_c, 1, 36, 40
1, 7591200, Note_off_c, 1, 36, 0
1, 7591200, Note_on_c, 1, 43, 40
1, 7591440, Note_off_c, 1, 43, 0
1, 7591440, Note_on_c, 1, 46, 40
1, 7591680, Note_off_c, 1, 46, 0
1, 7591680, Note_on_c, 1, 48, 40
1, 7591920, Note_off_c, 1, 48, 0
1, 7591920, Note_on_c, 1, 36, 40
1, 7592520, Note_off_c, 1, 36, 0
1, 7592520, Note_on_c, 1, 36, 40
1, 7592640, Note_off_c, 1, 36, 0
1, 7592640, Note_on_c, 1, 31, 40
1, 7593360, Note_off_c, 1, 31, 0
1, 7593360, Note_on_c, 1, 36, 40
1, 7593960, Note_off_c, 1, 36, 0
1, 7593960, Note_on_c, 1, 36, 40
1, 7594080, Note_off_c, 1, 36, 0
1, 7594080, Note_on_c, 1, 31, 40
1, 7594680, Note_off_c, 1, 31, 0
1, 7594680, Note_on_c, 1, 31, 40
1, 7594800, Note_off_c, 1, 31, 0
1, 7594800, Note_on_c, 1, 36, 40
1, 7595400, Note_off_c, 1, 36, 0
1, 7595400, Note_on_c, 1, 36, 40
1, 7595520, Note_off_c, 1, 36, 0
1, 7595520, Note_on_c, 1, 31, 40
1, 7596120, Note_off_c, 1, 31, 0
1, 7596120, Note_on_c, 1, 31, 40
1, 7596240, Note_off_c, 1, 31, 0
1, 7596240, Note_on_c, 1, 36, 40
1, 7596960, Note_off_c, 1, 36, 0
1, 7596960, Note_on_c, 1, 36, 40
1, 7597200, Note_off_c, 1, 36, 0
1, 7597200, Note_on_c, 1, 41, 40
1, 7597440, Note_off_c, 1, 41, 0
1, 7597440, Note_on_c, 1, 43, 40
1, 7597680, Note_off_c, 1, 43, 0
1, 7597680, Note_on_c, 1, 31, 40
1, 7598400, Note_off_c, 1, 31, 0
1, 7598400, Note_on_c, 1, 31, 40
1, 7599120, Note_off_c, 1, 31, 0
1, 7599120, Note_on_c, 1, 36, 40
1, 7599840, Note_off_c, 1, 36, 0
1, 7599840, Note_on_c, 1, 36, 40
1, 7600560, Note_off_c, 1, 36, 0
1, 7600560, Note_on_c, 1, 36, 40
1, 7601280, Note_off_c, 1, 36, 0
1, 7601280, Note_on_c, 1, 36, 40
1, 7602000, Note_off_c, 1, 36, 0
1, 7602000, Note_on_c, 1, 41, 40
1, 7602720, Note_off_c, 1, 41, 0
1, 7602720, Note_on_c, 1, 36, 40
1, 7603200, Note_off_c, 1, 36, 0
1, 7603200, Note_on_c, 1, 39, 40
1, 7603440, Note_off_c, 1, 39, 0
1, 7603440, Note_on_c, 1, 41, 40
1, 7604160, Note_off_c, 1, 41, 0
1, 7604160, Note_on_c, 1, 36, 40
1, 7604640, Note_off_c, 1, 36, 0
1, 7604640, Note_on_c, 1, 41, 40
1, 7604880, Note_off_c, 1, 41, 0
1, 7604880, Note_on_c, 1, 36, 40
1, 7605600, Note_off_c, 1, 36, 0
1, 7605600, Note_on_c, 1, 31, 40
1, 7606320, Note_off_c, 1, 31, 0
1, 7606320, Note_on_c, 1, 36, 40
1, 7607040, Note_off_c, 1, 36, 0
1, 7607040, Note_on_c, 1, 36, 40
1, 7607760, Note_off_c, 1, 36, 0
1, 7607760, Note_on_c, 1, 38, 40
1, 7608480, Note_off_c, 1, 38, 0
1, 7608480, Note_on_c, 1, 38, 40
1, 7609200, Note_off_c, 1, 38, 0
1, 7609200, Note_on_c, 1, 31, 40
1, 7609800, Note_off_c, 1, 31, 0
1, 7609800, Note_on_c, 1, 31, 40
1, 7609920, Note_off_c, 1, 31, 0
1, 7609920, Note_on_c, 1, 31, 40
1, 7610400, Note_off_c, 1, 31, 0
1, 7610400, Note_on_c, 1, 35, 40
1, 7610640, Note_off_c, 1, 35, 0
1, 7610640, Note_on_c, 1, 36, 40
1, 7611240, Note_off_c, 1, 36, 0
1, 7611240, Note_on_c, 1, 36, 40
1, 7611360, Note_off_c, 1, 36, 0
1, 7611360, Note_on_c, 1, 31, 40
1, 7611960, Note_off_c, 1, 31, 0
1, 7611960, Note_on_c, 1, 31, 40
1, 7612080, Note_off_c, 1, 31, 0
1, 7612080, Note_on_c, 1, 36, 40
1, 7612680, Note_off_c, 1, 36, 0
1, 7612680, Note_on_c, 1, 36, 40
1, 7612800, Note_off_c, 1, 36, 0
1, 7612800, Note_on_c, 1, 31, 40
1, 7613400, Note_off_c, 1, 31, 0
1, 7613400, Note_on_c, 1, 31, 40
1, 7613520, Note_off_c, 1, 31, 0
1, 7613520, Note_on_c, 1, 36, 40
1, 7614240, Note_off_c, 1, 36, 0
1, 7614240, Note_on_c, 1, 43, 40
1, 7614480, Note_off_c, 1, 43, 0
1, 7614480, Note_on_c, 1, 46, 40
1, 7614720, Note_off_c, 1, 46, 0
1, 7614720, Note_on_c, 1, 48, 40
1, 7614960, Note_off_c, 1, 48, 0
1, 7614960, Note_on_c, 1, 36, 40
1, 7615560, Note_off_c, 1, 36, 0
1, 7615560, Note_on_c, 1, 36, 40
1, 7615680, Note_off_c, 1, 36, 0
1, 7615680, Note_on_c, 1, 31, 40
1, 7616400, Note_off_c, 1, 31, 0
1, 7616400, Note_on_c, 1, 36, 40
1, 7617000, Note_off_c, 1, 36, 0
1, 7617000, Note_on_c, 1, 36, 40
1, 7617120, Note_off_c, 1, 36, 0
1, 7617120, Note_on_c, 1, 31, 40
1, 7617720, Note_off_c, 1, 31, 0
1, 7617720, Note_on_c, 1, 31, 40
1, 7617840, Note_off_c, 1, 31, 0
1, 7617840, Note_on_c, 1, 36, 40
1, 7618440, Note_off_c, 1, 36, 0
1, 7618440, Note_on_c, 1, 36, 40
1, 7618560, Note_off_c, 1, 36, 0
1, 7618560, Note_on_c, 1, 31, 40
1, 7619160, Note_off_c, 1, 31, 0
1, 7619160, Note_on_c, 1, 31, 40
1, 7619280, Note_off_c, 1, 31, 0
1, 7619280, Note_on_c, 1, 36, 40
1, 7620000, Note_off_c, 1, 36, 0
1, 7620000, Note_on_c, 1, 43, 40
1, 7620240, Note_off_c, 1, 43, 0
1, 7620240, Note_on_c, 1, 46, 40
1, 7620480, Note_off_c, 1, 46, 0
1, 7620480, Note_on_c, 1, 48, 40
1, 7620720, Note_off_c, 1, 48, 0
1, 7620720, Note_on_c, 1, 36, 40
1, 7621440, Note_off_c, 1, 36, 0
1, 7621440, Note_on_c, 1, 36, 40
1, 7621680, Note_off_c, 1, 36, 0
1, 7621680, Note_on_c, 1, 43, 40
1, 7621800, Note_off_c, 1, 43, 0
1, 7621800, Note_on_c, 1, 41, 40
1, 7621920, Note_off_c, 1, 41, 0
1, 7621920, Note_on_c, 1, 39, 40
1, 7622160, Note_off_c, 1, 39, 0
1, 7622160, Note_on_c, 1, 36, 40
1, 7622760, Note_off_c, 1, 36, 0
1, 7622760, Note_on_c, 1, 36, 40
1, 7622880, Note_off_c, 1, 36, 0
1, 7622880, Note_on_c, 1, 31, 40
1, 7623480, Note_off_c, 1, 31, 0
1, 7623480, Note_on_c, 1, 31, 40
1, 7623600, Note_off_c, 1, 31, 0
1, 7623600, Note_on_c, 1, 36, 40
1, 7624200, Note_off_c, 1, 36, 0
1, 7624200, Note_on_c, 1, 36, 40
1, 7624320, Note_off_c, 1, 36, 0
1, 7624320, Note_on_c, 1, 31, 40
1, 7624920, Note_off_c, 1, 31, 0
1, 7624920, Note_on_c, 1, 35, 40
1, 7625040, Note_off_c, 1, 35, 0
1, 7625040, Note_on_c, 1, 36, 40
1, 7625760, Note_off_c, 1, 36, 0
1, 7625760, Note_on_c, 1, 41, 40
1, 7626000, Note_off_c, 1, 41, 0
1, 7626000, Note_on_c, 1, 42, 40
1, 7626240, Note_off_c, 1, 42, 0
1, 7626240, Note_on_c, 1, 43, 40
1, 7626480, Note_off_c, 1, 43, 0
1, 7626480, Note_on_c, 1, 36, 40
1, 7627200, Note_off_c, 1, 36, 0
1, 7627200, Note_on_c, 1, 31, 40
1, 7627440, Note_off_c, 1, 31, 0
1, 7627440, Note_on_c, 1, 34, 40
1, 7627680, Note_off_c, 1, 34, 0
1, 7627680, Note_on_c, 1, 31, 40
1, 7627920, Note_off_c, 1, 31, 0
1, 7627920, Note_on_c, 1, 36, 40
1, 7628640, Note_off_c, 1, 36, 0
1, 7628640, Note_on_c, 1, 31, 40
1, 7629120, Note_off_c, 1, 31, 0
1, 7629120, Note_on_c, 1, 35, 40
1, 7629360, Note_off_c, 1, 35, 0
1, 7629360, Note_on_c, 1, 36, 40
1, 7629960, Note_off_c, 1, 36, 0
1, 7629960, Note_on_c, 1, 36, 40
1, 7630080, Note_off_c, 1, 36, 0
1, 7630080, Note_on_c, 1, 31, 40
1, 7630560, Note_off_c, 1, 31, 0
1, 7630560, Note_on_c, 1, 35, 40
1, 7630800, Note_off_c, 1, 35, 0
1, 7630800, Note_on_c, 1, 36, 40
1, 7631520, Note_off_c, 1, 36, 0
1, 7631520, Note_on_c, 1, 43, 40
1, 7631760, Note_off_c, 1, 43, 0
1, 7631760, Note_on_c, 1, 46, 40
1, 7632000, Note_off_c, 1, 46, 0
1, 7632000, Note_on_c, 1, 48, 40
1, 7632240, Note_off_c, 1, 48, 0
1, 7632240, Note_on_c, 1, 36, 40
1, 7632840, Note_off_c, 1, 36, 0
1, 7632840, Note_on_c, 1, 36, 40
1, 7632960, Note_off_c, 1, 36, 0
1, 7632960, Note_on_c, 1, 31, 40
1, 7633560, Note_off_c, 1, 31, 0
1, 7633560, Note_on_c, 1, 31, 40
1, 7633680, Note_off_c, 1, 31, 0
1, 7633680, Note_on_c, 1, 36, 40
1, 7634400, Note_off_c, 1, 36, 0
1, 7634400, Note_on_c, 1, 36, 40
1, 7635120, Note_off_c, 1, 36, 0
1, 7635120, Note_on_c, 1, 36, 40
1, 7635840, Note_off_c, 1, 36, 0
1, 7635840, Note_on_c, 1, 36, 40
1, 7636560, Note_off_c, 1, 36, 0
1, 7636560, Note_on_c, 1, 41, 40
1, 7637280, Note_off_c, 1, 41, 0
1, 7637280, Note_on_c, 1, 36, 40
1, 7637760, Note_off_c, 1, 36, 0
1, 7637760, Note_on_c, 1, 39, 40
1, 7638000, Note_off_c, 1, 39, 0
1, 7638000, Note_on_c, 1, 41, 40
1, 7638720, Note_off_c, 1, 41, 0
1, 7638720, Note_on_c, 1, 36, 40
1, 7639200, Note_off_c, 1, 36, 0
1, 7639200, Note_on_c, 1, 41, 40
1, 7639440, Note_off_c, 1, 41, 0
1, 7639440, Note_on_c, 1, 36, 40
1, 7640160, Note_off_c, 1, 36, 0
1, 7640160, Note_on_c, 1, 31, 40
1, 7640880, Note_off_c, 1, 31, 0
1, 7640880, Note_on_c, 1, 36, 40
1, 7641600, Note_off_c, 1, 36, 0
1, 7641600, Note_on_c, 1, 36, 40
1, 7642320, Note_off_c, 1, 36, 0
1, 7642320, Note_on_c, 1, 38, 40
1, 7643040, Note_off_c, 1, 38, 0
1, 7643040, Note_on_c, 1, 38, 40
1, 7643760, Note_off_c, 1, 38, 0
1, 7643760, Note_on_c, 1, 31, 40
1, 7644360, Note_off_c, 1, 31, 0
1, 7644360, Note_on_c, 1, 31, 40
1, 7644480, Note_off_c, 1, 31, 0
1, 7644480, Note_on_c, 1, 31, 40
1, 7644960, Note_off_c, 1, 31, 0
1, 7644960, Note_on_c, 1, 35, 40
1, 7645200, Note_off_c, 1, 35, 0
1, 7645200, Note_on_c, 1, 36, 40
1, 7645800, Note_off_c, 1, 36, 0
1, 7645800, Note_on_c, 1, 36, 40
1, 7645920, Note_off_c, 1, 36, 0
1, 7645920, Note_on_c, 1, 31, 40
1, 7646520, Note_off_c, 1, 31, 0
1, 7646520, Note_on_c, 1, 31, 40
1, 7646640, Note_off_c, 1, 31, 0
1, 7646640, Note_on_c, 1, 36, 40
1, 7647240, Note_off_c, 1, 36, 0
1, 7647240, Note_on_c, 1, 36, 40
1, 7647360, Note_off_c, 1, 36, 0
1, 7647360, Note_on_c, 1, 31, 40
1, 7647960, Note_off_c, 1, 31, 0
1, 7647960, Note_on_c, 1, 31, 40
1, 7648080, Note_off_c, 1, 31, 0
1, 7648080, Note_on_c, 1, 36, 40
1, 7648800, Note_off_c, 1, 36, 0
1, 7648800, Note_on_c, 1, 43, 40
1, 7649040, Note_off_c, 1, 43, 0
1, 7649040, Note_on_c, 1, 46, 40
1, 7649280, Note_off_c, 1, 46, 0
1, 7649280, Note_on_c, 1, 48, 40
1, 7649520, Note_off_c, 1, 48, 0
1, 7649520, Note_on_c, 1, 36, 40
1, 7650120, Note_off_c, 1, 36, 0
1, 7650120, Note_on_c, 1, 36, 40
1, 7650240, Note_off_c, 1, 36, 0
1, 7650240, Note_on_c, 1, 31, 40
1, 7650960, Note_off_c, 1, 31, 0
1, 7650960, Note_on_c, 1, 36, 40
1, 7651560, Note_off_c, 1, 36, 0
1, 7651560, Note_on_c, 1, 36, 40
1, 7651680, Note_off_c, 1, 36, 0
1, 7651680, Note_on_c, 1, 31, 40
1, 7652280, Note_off_c, 1, 31, 0
1, 7652280, Note_on_c, 1, 31, 40
1, 7652400, Note_off_c, 1, 31, 0
1, 7652400, Note_on_c, 1, 36, 40
1, 7653000, Note_off_c, 1, 36, 0
1, 7653000, Note_on_c, 1, 36, 40
1, 7653120, Note_off_c, 1, 36, 0
1, 7653120, Note_on_c, 1, 31, 40
1, 7653720, Note_off_c, 1, 31, 0
1, 7653720, Note_on_c, 1, 31, 40
1, 7653840, Note_off_c, 1, 31, 0
1, 7653840, Note_on_c, 1, 36, 40
1, 7654560, Note_off_c, 1, 36, 0
1, 7654560, Note_on_c, 1, 43, 40
1, 7654800, Note_off_c, 1, 43, 0
1, 7654800, Note_on_c, 1, 46, 40
1, 7655040, Note_off_c, 1, 46, 0
1, 7655040, Note_on_c, 1, 48, 40
1, 7655280, Note_off_c, 1, 48, 0
1, 7655280, Note_on_c, 1, 36, 40
1, 7655880, Note_off_c, 1, 36, 0
1, 7655880, Note_on_c, 1, 36, 40
1, 7656000, Note_off_c, 1, 36, 0
1, 7656000, Note_on_c, 1, 31, 40
1, 7656240, Note_off_c, 1, 31, 0
1, 7656240, Note_on_c, 1, 35, 40
1, 7656480, Note_off_c, 1, 35, 0
1, 7656480, Note_on_c, 1, 31, 40
1, 7656720, Note_off_c, 1, 31, 0
1, 7656720, Note_on_c, 1, 36, 40
1, 7657320, Note_off_c, 1, 36, 0
1, 7657320, Note_on_c, 1, 36, 40
1, 7657440, Note_off_c, 1, 36, 0
1, 7657440, Note_on_c, 1, 31, 40
1, 7658040, Note_off_c, 1, 31, 0
1, 7658040, Note_on_c, 1, 31, 40
1, 7658160, Note_off_c, 1, 31, 0
1, 7658160, Note_on_c, 1, 36, 40
1, 7658760, Note_off_c, 1, 36, 0
1, 7658760, Note_on_c, 1, 36, 40
1, 7658880, Note_off_c, 1, 36, 0
1, 7658880, Note_on_c, 1, 31, 40
1, 7659480, Note_off_c, 1, 31, 0
1, 7659480, Note_on_c, 1, 35, 40
1, 7659600, Note_off_c, 1, 35, 0
1, 7659600, Note_on_c, 1, 36, 40
1, 7660320, Note_off_c, 1, 36, 0
1, 7660320, Note_on_c, 1, 41, 40
1, 7660560, Note_off_c, 1, 41, 0
1, 7660560, Note_on_c, 1, 42, 40
1, 7660800, Note_off_c, 1, 42, 0
1, 7660800, Note_on_c, 1, 43, 40
1, 7661040, Note_off_c, 1, 43, 0
1, 7661040, Note_on_c, 1, 36, 40
1, 7662960, Note_off_c, 1, 36, 0
1, 7662960, Note_on_c, 1, 36, 40
1, 7664880, Note_off_c, 1, 36, 0
1, 7664880, Note_on_c, 1, 36, 40
1, 7665360, Note_off_c, 1, 36, 0
1, 7672560, Note_on_c, 1, 38, 40
1, 7673160, Note_off_c, 1, 38, 0
1, 7673280, Note_on_c, 1, 38, 40
1, 7673400, Note_off_c, 1, 38, 0
1, 7673520, Note_on_c, 1, 35, 40
1, 7674120, Note_off_c, 1, 35, 0
1, 7674240, Note_on_c, 1, 35, 40
1, 7674360, Note_off_c, 1, 35, 0
1, 7674480, Note_on_c, 1, 35, 40
1, 7675200, Note_off_c, 1, 35, 0
1, 7675200, Note_on_c, 1, 31, 40
1, 7675440, Note_off_c, 1, 31, 0
1, 7675440, Note_on_c, 1, 35, 40
1, 7675560, Note_off_c, 1, 35, 0
1, 7675680, Note_on_c, 1, 35, 40
1, 7675920, Note_off_c, 1, 35, 0
1, 7676160, Note_on_c, 1, 35, 40
1, 7676280, Note_off_c, 1, 35, 0
1, 7676400, Note_on_c, 1, 38, 40
1, 7677000, Note_off_c, 1, 38, 0
1, 7677120, Note_on_c, 1, 38, 40
1, 7677240, Note_off_c, 1, 38, 0
1, 7677360, Note_on_c, 1, 35, 40
1, 7677960, Note_off_c, 1, 35, 0
1, 7678080, Note_on_c, 1, 35, 40
1, 7678200, Note_off_c, 1, 35, 0
1, 7678320, Note_on_c, 1, 35, 40
1, 7679040, Note_off_c, 1, 35, 0
1, 7679040, Note_on_c, 1, 31, 40
1, 7679280, Note_off_c, 1, 31, 0
1, 7679280, Note_on_c, 1, 35, 40
1, 7679400, Note_off_c, 1, 35, 0
1, 7679520, Note_on_c, 1, 35, 40
1, 7679760, Note_off_c, 1, 35, 0
1, 7680000, Note_on_c, 1, 35, 40
1, 7680120, Note_off_c, 1, 35, 0
1, 7680240, Note_on_c, 1, 38, 40
1, 7680840, Note_off_c, 1, 38, 0
1, 7680960, Note_on_c, 1, 38, 40
1, 7681080, Note_off_c, 1, 38, 0
1, 7681200, Note_on_c, 1, 35, 40
1, 7681800, Note_off_c, 1, 35, 0
1, 7681920, Note_on_c, 1, 35, 40
1, 7682040, Note_off_c, 1, 35, 0
1, 7682160, Note_on_c, 1, 35, 40
1, 7682880, Note_off_c, 1, 35, 0
1, 7682880, Note_on_c, 1, 31, 40
1, 7683120, Note_off_c, 1, 31, 0
1, 7683120, Note_on_c, 1, 35, 40
1, 7683240, Note_off_c, 1, 35, 0
1, 7683360, Note_on_c, 1, 35, 40
1, 7683600, Note_off_c, 1, 35, 0
1, 7683840, Note_on_c, 1, 35, 40
1, 7683960, Note_off_c, 1, 35, 0
1, 7684080, Note_on_c, 1, 35, 40
1, 7684680, Note_off_c, 1, 35, 0
1, 7684800, Note_on_c, 1, 35, 40
1, 7684920, Note_off_c, 1, 35, 0
1, 7685040, Note_on_c, 1, 43, 40
1, 7685640, Note_off_c, 1, 43, 0
1, 7685760, Note_on_c, 1, 43, 40
1, 7685880, Note_off_c, 1, 43, 0
1, 7686000, Note_on_c, 1, 35, 40
1, 7686480, Note_off_c, 1, 35, 0
1, 7686720, Note_on_c, 1, 35, 40
1, 7686840, Note_off_c, 1, 35, 0
1, 7686960, Note_on_c, 1, 35, 40
1, 7687560, Note_off_c, 1, 35, 0
1, 7687680, Note_on_c, 1, 35, 40
1, 7687800, Note_off_c, 1, 35, 0
1, 7687920, Note_on_c, 1, 35, 40
1, 7688640, Note_off_c, 1, 35, 0
1, 7688640, Note_on_c, 1, 35, 40
1, 7688760, Note_off_c, 1, 35, 0
1, 7688880, Note_on_c, 1, 35, 40
1, 7689000, Note_off_c, 1, 35, 0
1, 7689120, Note_on_c, 1, 35, 40
1, 7689480, Note_off_c, 1, 35, 0
1, 7689600, Note_on_c, 1, 35, 40
1, 7689720, Note_off_c, 1, 35, 0
1, 7689840, Note_on_c, 1, 38, 40
1, 7690320, Note_off_c, 1, 38, 0
1, 7690560, Note_on_c, 1, 38, 40
1, 7690680, Note_off_c, 1, 38, 0
1, 7690800, Note_on_c, 1, 38, 40
1, 7691400, Note_off_c, 1, 38, 0
1, 7691520, Note_on_c, 1, 38, 40
1, 7691640, Note_off_c, 1, 38, 0
1, 7691760, Note_on_c, 1, 35, 40
1, 7692240, Note_off_c, 1, 35, 0
1, 7692480, Note_on_c, 1, 35, 40
1, 7692600, Note_off_c, 1, 35, 0
1, 7692720, Note_on_c, 1, 35, 40
1, 7693320, Note_off_c, 1, 35, 0
1, 7693440, Note_on_c, 1, 35, 40
1, 7693560, Note_off_c, 1, 35, 0
1, 7693680, Note_on_c, 1, 43, 40
1, 7694400, Note_off_c, 1, 43, 0
1, 7694400, Note_on_c, 1, 43, 40
1, 7694520, Note_off_c, 1, 43, 0
1, 7694640, Note_on_c, 1, 43, 40
1, 7694760, Note_off_c, 1, 43, 0
1, 7694880, Note_on_c, 1, 43, 40
1, 7695240, Note_off_c, 1, 43, 0
1, 7695360, Note_on_c, 1, 43, 40
1, 7695480, Note_off_c, 1, 43, 0
1, 7695600, Note_on_c, 1, 33, 40
1, 7696080, Note_off_c, 1, 33, 0
1, 7696320, Note_on_c, 1, 33, 40
1, 7696440, Note_off_c, 1, 33, 0
1, 7696560, Note_on_c, 1, 33, 40
1, 7697160, Note_off_c, 1, 33, 0
1, 7697280, Note_on_c, 1, 33, 40
1, 7697400, Note_off_c, 1, 33, 0
1, 7697520, Note_on_c, 1, 43, 40
1, 7698000, Note_off_c, 1, 43, 0
1, 7698240, Note_on_c, 1, 43, 40
1, 7698360, Note_off_c, 1, 43, 0
1, 7698480, Note_on_c, 1, 43, 40
1, 7699080, Note_off_c, 1, 43, 0
1, 7699200, Note_on_c, 1, 43, 40
1, 7699320, Note_off_c, 1, 43, 0
1, 7699440, Note_on_c, 1, 43, 40
1, 7699920, Note_off_c, 1, 43, 0
1, 7700160, Note_on_c, 1, 43, 40
1, 7700280, Note_off_c, 1, 43, 0
1, 7700400, Note_on_c, 1, 43, 40
1, 7701000, Note_off_c, 1, 43, 0
1, 7701120, Note_on_c, 1, 43, 40
1, 7701240, Note_off_c, 1, 43, 0
1, 7701360, Note_on_c, 1, 43, 40
1, 7701960, Note_off_c, 1, 43, 0
1, 7702080, Note_on_c, 1, 43, 40
1, 7702200, Note_off_c, 1, 43, 0
1, 7702320, Note_on_c, 1, 43, 40
1, 7702800, Note_off_c, 1, 43, 0
1, 7702800, Note_on_c, 1, 33, 40
1, 7703280, Note_off_c, 1, 33, 0
1, 7703280, Note_on_c, 1, 35, 40
1, 7703760, Note_off_c, 1, 35, 0
1, 7704000, Note_on_c, 1, 35, 40
1, 7704120, Note_off_c, 1, 35, 0
1, 7704240, Note_on_c, 1, 35, 40
1, 7704960, Note_off_c, 1, 35, 0
1, 7704960, Note_on_c, 1, 31, 40
1, 7705200, Note_off_c, 1, 31, 0
1, 7705200, Note_on_c, 1, 35, 40
1, 7705920, Note_off_c, 1, 35, 0
1, 7706040, Note_on_c, 1, 35, 40
1, 7706160, Note_off_c, 1, 35, 0
1, 7706160, Note_on_c, 1, 35, 40
1, 7706280, Note_off_c, 1, 35, 0
1, 7706400, Note_on_c, 1, 35, 40
1, 7706760, Note_off_c, 1, 35, 0
1, 7706880, Note_on_c, 1, 35, 40
1, 7707120, Note_off_c, 1, 35, 0
1, 7707120, Note_on_c, 1, 35, 40
1, 7707840, Note_off_c, 1, 35, 0
1, 7707840, Note_on_c, 1, 35, 40
1, 7707960, Note_off_c, 1, 35, 0
1, 7708080, Note_on_c, 1, 35, 40
1, 7708200, Note_off_c, 1, 35, 0
1, 7708320, Note_on_c, 1, 35, 40
1, 7708680, Note_off_c, 1, 35, 0
1, 7708800, Note_on_c, 1, 35, 40
1, 7708920, Note_off_c, 1, 35, 0
1, 7709040, Note_on_c, 1, 38, 40
1, 7709520, Note_off_c, 1, 38, 0
1, 7709760, Note_on_c, 1, 38, 40
1, 7709880, Note_off_c, 1, 38, 0
1, 7710000, Note_on_c, 1, 38, 40
1, 7710600, Note_off_c, 1, 38, 0
1, 7710720, Note_on_c, 1, 38, 40
1, 7710840, Note_off_c, 1, 38, 0
1, 7710960, Note_on_c, 1, 35, 40
1, 7711680, Note_off_c, 1, 35, 0
1, 7711680, Note_on_c, 1, 35, 40
1, 7711800, Note_off_c, 1, 35, 0
1, 7711920, Note_on_c, 1, 35, 40
1, 7712040, Note_off_c, 1, 35, 0
1, 7712160, Note_on_c, 1, 35, 40
1, 7712520, Note_off_c, 1, 35, 0
1, 7712640, Note_on_c, 1, 35, 40
1, 7712760, Note_off_c, 1, 35, 0
1, 7712880, Note_on_c, 1, 43, 40
1, 7713360, Note_off_c, 1, 43, 0
1, 7713600, Note_on_c, 1, 43, 40
1, 7713720, Note_off_c, 1, 43, 0
1, 7713840, Note_on_c, 1, 43, 40
1, 7714440, Note_off_c, 1, 43, 0
1, 7714560, Note_on_c, 1, 43, 40
1, 7714680, Note_off_c, 1, 43, 0
1, 7714800, Note_on_c, 1, 33, 40
1, 7715520, Note_off_c, 1, 33, 0
1, 7715520, Note_on_c, 1, 33, 40
1, 7715640, Note_off_c, 1, 33, 0
1, 7715760, Note_on_c, 1, 33, 40
1, 7715880, Note_off_c, 1, 33, 0
1, 7716000, Note_on_c, 1, 33, 40
1, 7716360, Note_off_c, 1, 33, 0
1, 7716480, Note_on_c, 1, 33, 40
1, 7716600, Note_off_c, 1, 33, 0
1, 7716720, Note_on_c, 1, 43, 40
1, 7717440, Note_off_c, 1, 43, 0
1, 7717440, Note_on_c, 1, 43, 40
1, 7717560, Note_off_c, 1, 43, 0
1, 7717680, Note_on_c, 1, 43, 40
1, 7717800, Note_off_c, 1, 43, 0
1, 7717920, Note_on_c, 1, 43, 40
1, 7718280, Note_off_c, 1, 43, 0
1, 7718400, Note_on_c, 1, 43, 40
1, 7718520, Note_off_c, 1, 43, 0
1, 7718640, Note_on_c, 1, 43, 40
1, 7719120, Note_off_c, 1, 43, 0
1, 7719360, Note_on_c, 1, 43, 40
1, 7719480, Note_off_c, 1, 43, 0
1, 7719600, Note_on_c, 1, 43, 40
1, 7720200, Note_off_c, 1, 43, 0
1, 7720320, Note_on_c, 1, 43, 40
1, 7720440, Note_off_c, 1, 43, 0
1, 7720560, Note_on_c, 1, 43, 40
1, 7721160, Note_off_c, 1, 43, 0
1, 7721280, Note_on_c, 1, 43, 40
1, 7721400, Note_off_c, 1, 43, 0
1, 7721520, Note_on_c, 1, 43, 40
1, 7722000, Note_off_c, 1, 43, 0
1, 7722000, Note_on_c, 1, 33, 40
1, 7722480, Note_off_c, 1, 33, 0
1, 7722480, Note_on_c, 1, 35, 40
1, 7722960, Note_off_c, 1, 35, 0
1, 7723200, Note_on_c, 1, 35, 40
1, 7723320, Note_off_c, 1, 35, 0
1, 7723440, Note_on_c, 1, 35, 40
1, 7724040, Note_off_c, 1, 35, 0
1, 7724160, Note_on_c, 1, 35, 40
1, 7724280, Note_off_c, 1, 35, 0
1, 7724400, Note_on_c, 1, 35, 40
1, 7724880, Note_off_c, 1, 35, 0
1, 7725120, Note_on_c, 1, 35, 40
1, 7725240, Note_off_c, 1, 35, 0
1, 7725360, Note_on_c, 1, 35, 40
1, 7725960, Note_off_c, 1, 35, 0
1, 7726080, Note_on_c, 1, 35, 40
1, 7726200, Note_off_c, 1, 35, 0
1, 7726320, Note_on_c, 1, 40, 40
1, 7726800, Note_off_c, 1, 40, 0
1, 7727040, Note_on_c, 1, 40, 40
1, 7727160, Note_off_c, 1, 40, 0
1, 7727280, Note_on_c, 1, 40, 40
1, 7727880, Note_off_c, 1, 40, 0
1, 7728000, Note_on_c, 1, 40, 40
1, 7728120, Note_off_c, 1, 40, 0
1, 7728240, Note_on_c, 1, 35, 40
1, 7728720, Note_off_c, 1, 35, 0
1, 7728960, Note_on_c, 1, 35, 40
1, 7729080, Note_off_c, 1, 35, 0
1, 7729200, Note_on_c, 1, 35, 40
1, 7729800, Note_off_c, 1, 35, 0
1, 7729920, Note_on_c, 1, 35, 40
1, 7730040, Note_off_c, 1, 35, 0
1, 7730160, Note_on_c, 1, 40, 40
1, 7730640, Note_off_c, 1, 40, 0
1, 7730880, Note_on_c, 1, 40, 40
1, 7731000, Note_off_c, 1, 40, 0
1, 7731120, Note_on_c, 1, 40, 40
1, 7731720, Note_off_c, 1, 40, 0
1, 7731840, Note_on_c, 1, 40, 40
1, 7731960, Note_off_c, 1, 40, 0
1, 7732080, Note_on_c, 1, 35, 40
1, 7732800, Note_off_c, 1, 35, 0
1, 7732800, Note_on_c, 1, 35, 40
1, 7732920, Note_off_c, 1, 35, 0
1, 7733040, Note_on_c, 1, 35, 40
1, 7733160, Note_off_c, 1, 35, 0
1, 7733280, Note_on_c, 1, 35, 40
1, 7733640, Note_off_c, 1, 35, 0
1, 7733760, Note_on_c, 1, 35, 40
1, 7733880, Note_off_c, 1, 35, 0
1, 7734000, Note_on_c, 1, 40, 40
1, 7734720, Note_off_c, 1, 40, 0
1, 7734720, Note_on_c, 1, 40, 40
1, 7734840, Note_off_c, 1, 40, 0
1, 7734960, Note_on_c, 1, 40, 40
1, 7735080, Note_off_c, 1, 40, 0
1, 7735200, Note_on_c, 1, 40, 40
1, 7735560, Note_off_c, 1, 40, 0
1, 7735680, Note_on_c, 1, 40, 40
1, 7735800, Note_off_c, 1, 40, 0
1, 7735920, Note_on_c, 1, 35, 40
1, 7736400, Note_off_c, 1, 35, 0
1, 7736640, Note_on_c, 1, 35, 40
1, 7736760, Note_off_c, 1, 35, 0
1, 7736880, Note_on_c, 1, 35, 40
1, 7737480, Note_off_c, 1, 35, 0
1, 7737600, Note_on_c, 1, 35, 40
1, 7737720, Note_off_c, 1, 35, 0
1, 7737840, Note_on_c, 1, 35, 40
1, 7738440, Note_off_c, 1, 35, 0
1, 7738560, Note_on_c, 1, 35, 40
1, 7738680, Note_off_c, 1, 35, 0
1, 7738800, Note_on_c, 1, 43, 40
1, 7739400, Note_off_c, 1, 43, 0
1, 7739520, Note_on_c, 1, 43, 40
1, 7739640, Note_off_c, 1, 43, 0
1, 7739760, Note_on_c, 1, 35, 40
1, 7740480, Note_off_c, 1, 35, 0
1, 7740480, Note_on_c, 1, 35, 40
1, 7740600, Note_off_c, 1, 35, 0
1, 7740720, Note_on_c, 1, 35, 40
1, 7740840, Note_off_c, 1, 35, 0
1, 7740960, Note_on_c, 1, 35, 40
1, 7741320, Note_off_c, 1, 35, 0
1, 7741440, Note_on_c, 1, 35, 40
1, 7741560, Note_off_c, 1, 35, 0
1, 7741680, Note_on_c, 1, 35, 40
1, 7742400, Note_off_c, 1, 35, 0
1, 7742400, Note_on_c, 1, 31, 40
1, 7742640, Note_off_c, 1, 31, 0
1, 7742640, Note_on_c, 1, 35, 40
1, 7742760, Note_off_c, 1, 35, 0
1, 7742880, Note_on_c, 1, 35, 40
1, 7743120, Note_off_c, 1, 35, 0
1, 7743360, Note_on_c, 1, 35, 40
1, 7743480, Note_off_c, 1, 35, 0
1, 7743600, Note_on_c, 1, 38, 40
1, 7744080, Note_off_c, 1, 38, 0
1, 7744320, Note_on_c, 1, 38, 40
1, 7744440, Note_off_c, 1, 38, 0
1, 7744560, Note_on_c, 1, 38, 40
1, 7745160, Note_off_c, 1, 38, 0
1, 7745280, Note_on_c, 1, 38, 40
1, 7745400, Note_off_c, 1, 38, 0
1, 7745520, Note_on_c, 1, 35, 40
1, 7746000, Note_off_c, 1, 35, 0
1, 7746240, Note_on_c, 1, 35, 40
1, 7746360, Note_off_c, 1, 35, 0
1, 7746480, Note_on_c, 1, 35, 40
1, 7747080, Note_off_c, 1, 35, 0
1, 7747200, Note_on_c, 1, 35, 40
1, 7747320, Note_off_c, 1, 35, 0
1, 7747440, Note_on_c, 1, 43, 40
1, 7748160, Note_off_c, 1, 43, 0
1, 7748160, Note_on_c, 1, 43, 40
1, 7748280, Note_off_c, 1, 43, 0
1, 7748400, Note_on_c, 1, 43, 40
1, 7748520, Note_off_c, 1, 43, 0
1, 7748640, Note_on_c, 1, 43, 40
1, 7749000, Note_off_c, 1, 43, 0
1, 7749120, Note_on_c, 1, 43, 40
1, 7749240, Note_off_c, 1, 43, 0
1, 7749360, Note_on_c, 1, 33, 40
1, 7750080, Note_off_c, 1, 33, 0
1, 7750080, Note_on_c, 1, 33, 40
1, 7750200, Note_off_c, 1, 33, 0
1, 7750320, Note_on_c, 1, 33, 40
1, 7750440, Note_off_c, 1, 33, 0
1, 7750560, Note_on_c, 1, 33, 40
1, 7750920, Note_off_c, 1, 33, 0
1, 7751040, Note_on_c, 1, 33, 40
1, 7751160, Note_off_c, 1, 33, 0
1, 7751280, Note_on_c, 1, 43, 40
1, 7751760, Note_off_c, 1, 43, 0
1, 7752000, Note_on_c, 1, 43, 40
1, 7752120, Note_off_c, 1, 43, 0
1, 7752240, Note_on_c, 1, 43, 40
1, 7752840, Note_off_c, 1, 43, 0
1, 7752960, Note_on_c, 1, 43, 40
1, 7753080, Note_off_c, 1, 43, 0
1, 7753200, Note_on_c, 1, 43, 40
1, 7753920, Note_off_c, 1, 43, 0
1, 7753920, Note_on_c, 1, 43, 40
1, 7754040, Note_off_c, 1, 43, 0
1, 7754160, Note_on_c, 1, 43, 40
1, 7754280, Note_off_c, 1, 43, 0
1, 7754400, Note_on_c, 1, 43, 40
1, 7754760, Note_off_c, 1, 43, 0
1, 7754880, Note_on_c, 1, 43, 40
1, 7755000, Note_off_c, 1, 43, 0
1, 7755120, Note_on_c, 1, 43, 40
1, 7755720, Note_off_c, 1, 43, 0
1, 7755840, Note_on_c, 1, 43, 40
1, 7755960, Note_off_c, 1, 43, 0
1, 7756080, Note_on_c, 1, 43, 40
1, 7756560, Note_off_c, 1, 43, 0
1, 7756560, Note_on_c, 1, 33, 40
1, 7757040, Note_off_c, 1, 33, 0
1, 7757040, Note_on_c, 1, 35, 40
1, 7757640, Note_off_c, 1, 35, 0
1, 7757760, Note_on_c, 1, 35, 40
1, 7757880, Note_off_c, 1, 35, 0
1, 7758000, Note_on_c, 1, 35, 40
1, 7758840, Note_off_c, 1, 35, 0
1, 7758960, Note_on_c, 1, 35, 40
1, 7759560, Note_off_c, 1, 35, 0
1, 7759680, Note_on_c, 1, 35, 40
1, 7759800, Note_off_c, 1, 35, 0
1, 7759920, Note_on_c, 1, 35, 40
1, 7760520, Note_off_c, 1, 35, 0
1, 7760640, Note_on_c, 1, 35, 40
1, 7760760, Note_off_c, 1, 35, 0
1, 7760880, Note_on_c, 1, 40, 40
1, 7761360, Note_off_c, 1, 40, 0
1, 7761600, Note_on_c, 1, 40, 40
1, 7761720, Note_off_c, 1, 40, 0
1, 7761840, Note_on_c, 1, 40, 40
1, 7762440, Note_off_c, 1, 40, 0
1, 7762560, Note_on_c, 1, 40, 40
1, 7762680, Note_off_c, 1, 40, 0
1, 7762800, Note_on_c, 1, 35, 40
1, 7763280, Note_off_c, 1, 35, 0
1, 7763520, Note_on_c, 1, 35, 40
1, 7763640, Note_off_c, 1, 35, 0
1, 7763760, Note_on_c, 1, 35, 40
1, 7764360, Note_off_c, 1, 35, 0
1, 7764480, Note_on_c, 1, 35, 40
1, 7764600, Note_off_c, 1, 35, 0
1, 7764720, Note_on_c, 1, 40, 40
1, 7765440, Note_off_c, 1, 40, 0
1, 7765440, Note_on_c, 1, 40, 40
1, 7765560, Note_off_c, 1, 40, 0
1, 7765680, Note_on_c, 1, 40, 40
1, 7765800, Note_off_c, 1, 40, 0
1, 7765920, Note_on_c, 1, 40, 40
1, 7766280, Note_off_c, 1, 40, 0
1, 7766400, Note_on_c, 1, 40, 40
1, 7766520, Note_off_c, 1, 40, 0
1, 7766640, Note_on_c, 1, 35, 40
1, 7767360, Note_off_c, 1, 35, 0
1, 7767360, Note_on_c, 1, 35, 40
1, 7767480, Note_off_c, 1, 35, 0
1, 7767600, Note_on_c, 1, 35, 40
1, 7767720, Note_off_c, 1, 35, 0
1, 7767840, Note_on_c, 1, 35, 40
1, 7768200, Note_off_c, 1, 35, 0
1, 7768320, Note_on_c, 1, 35, 40
1, 7768440, Note_off_c, 1, 35, 0
1, 7768560, Note_on_c, 1, 40, 40
1, 7769040, Note_off_c, 1, 40, 0
1, 7769280, Note_on_c, 1, 40, 40
1, 7769400, Note_off_c, 1, 40, 0
1, 7769520, Note_on_c, 1, 40, 40
1, 7770120, Note_off_c, 1, 40, 0
1, 7770240, Note_on_c, 1, 40, 40
1, 7770360, Note_off_c, 1, 40, 0
1, 7770480, Note_on_c, 1, 35, 40
1, 7770960, Note_off_c, 1, 35, 0
1, 7771200, Note_on_c, 1, 35, 40
1, 7771320, Note_off_c, 1, 35, 0
1, 7771440, Note_on_c, 1, 35, 40
1, 7772040, Note_off_c, 1, 35, 0
1, 7772160, Note_on_c, 1, 35, 40
1, 7772280, Note_off_c, 1, 35, 0
1, 7772400, Note_on_c, 1, 35, 40
1, 7773000, Note_off_c, 1, 35, 0
1, 7773120, Note_on_c, 1, 35, 40
1, 7773240, Note_off_c, 1, 35, 0
1, 7773360, Note_on_c, 1, 43, 40
1, 7773960, Note_off_c, 1, 43, 0
1, 7774080, Note_on_c, 1, 43, 40
1, 7774200, Note_off_c, 1, 43, 0
1, 7774320, Note_on_c, 1, 35, 40
1, 7774800, Note_off_c, 1, 35, 0
1, 7775040, Note_on_c, 1, 35, 40
1, 7775160, Note_off_c, 1, 35, 0
1, 7775280, Note_on_c, 1, 35, 40
1, 7775880, Note_off_c, 1, 35, 0
1, 7776000, Note_on_c, 1, 35, 40
1, 7776120, Note_off_c, 1, 35, 0
1, 7776240, Note_on_c, 1, 35, 40
1, 7776720, Note_off_c, 1, 35, 0
1, 7776960, Note_on_c, 1, 35, 40
1, 7777080, Note_off_c, 1, 35, 0
1, 7777200, Note_on_c, 1, 35, 40
1, 7777800, Note_off_c, 1, 35, 0
1, 7777920, Note_on_c, 1, 35, 40
1, 7778040, Note_off_c, 1, 35, 0
1, 7778160, Note_on_c, 1, 38, 40
1, 7778640, Note_off_c, 1, 38, 0
1, 7778880, Note_on_c, 1, 38, 40
1, 7779000, Note_off_c, 1, 38, 0
1, 7779120, Note_on_c, 1, 38, 40
1, 7779720, Note_off_c, 1, 38, 0
1, 7779840, Note_on_c, 1, 38, 40
1, 7779960, Note_off_c, 1, 38, 0
1, 7780080, Note_on_c, 1, 35, 40
1, 7780560, Note_off_c, 1, 35, 0
1, 7780800, Note_on_c, 1, 35, 40
1, 7780920, Note_off_c, 1, 35, 0
1, 7781040, Note_on_c, 1, 35, 40
1, 7781640, Note_off_c, 1, 35, 0
1, 7781760, Note_on_c, 1, 35, 40
1, 7781880, Note_off_c, 1, 35, 0
1, 7782000, Note_on_c, 1, 43, 40
1, 7782720, Note_off_c, 1, 43, 0
1, 7782720, Note_on_c, 1, 43, 40
1, 7782840, Note_off_c, 1, 43, 0
1, 7782960, Note_on_c, 1, 43, 40
1, 7783080, Note_off_c, 1, 43, 0
1, 7783200, Note_on_c, 1, 43, 40
1, 7783560, Note_off_c, 1, 43, 0
1, 7783680, Note_on_c, 1, 43, 40
1, 7783800, Note_off_c, 1, 43, 0
1, 7783920, Note_on_c, 1, 33, 40
1, 7784400, Note_off_c, 1, 33, 0
1, 7784640, Note_on_c, 1, 33, 40
1, 7784760, Note_off_c, 1, 33, 0
1, 7784880, Note_on_c, 1, 33, 40
1, 7785480, Note_off_c, 1, 33, 0
1, 7785600, Note_on_c, 1, 33, 40
1, 7785720, Note_off_c, 1, 33, 0
1, 7785840, Note_on_c, 1, 43, 40
1, 7786320, Note_off_c, 1, 43, 0
1, 7786560, Note_on_c, 1, 43, 40
1, 7786680, Note_off_c, 1, 43, 0
1, 7786800, Note_on_c, 1, 43, 40
1, 7787400, Note_off_c, 1, 43, 0
1, 7787520, Note_on_c, 1, 43, 40
1, 7787640, Note_off_c, 1, 43, 0
1, 7787760, Note_on_c, 1, 43, 40
1, 7788240, Note_off_c, 1, 43, 0
1, 7788480, Note_on_c, 1, 43, 40
1, 7788600, Note_off_c, 1, 43, 0
1, 7788720, Note_on_c, 1, 43, 40
1, 7789320, Note_off_c, 1, 43, 0
1, 7789440, Note_on_c, 1, 43, 40
1, 7789560, Note_off_c, 1, 43, 0
1, 7789680, Note_on_c, 1, 43, 40
1, 7790280, Note_off_c, 1, 43, 0
1, 7790400, Note_on_c, 1, 43, 40
1, 7790520, Note_off_c, 1, 43, 0
1, 7790640, Note_on_c, 1, 43, 40
1, 7791120, Note_off_c, 1, 43, 0
1, 7791120, Note_on_c, 1, 33, 40
1, 7791600, Note_off_c, 1, 33, 0
1, 7791600, Note_on_c, 1, 35, 40
1, 7792320, Note_off_c, 1, 35, 0
1, 7792320, Note_on_c, 1, 31, 40
1, 7792560, Note_off_c, 1, 31, 0
1, 7792560, Note_on_c, 1, 35, 40
1, 7792680, Note_off_c, 1, 35, 0
1, 7792800, Note_on_c, 1, 35, 40
1, 7793040, Note_off_c, 1, 35, 0
1, 7793280, Note_on_c, 1, 35, 40
1, 7793400, Note_off_c, 1, 35, 0
1, 7793520, Note_on_c, 1, 35, 40
1, 7794120, Note_off_c, 1, 35, 0
1, 7794240, Note_on_c, 1, 35, 40
1, 7794360, Note_off_c, 1, 35, 0
1, 7794480, Note_on_c, 1, 43, 40
1, 7794960, Note_off_c, 1, 43, 0
1, 7794960, Note_on_c, 1, 33, 40
1, 7795440, Note_off_c, 1, 33, 0
1, 7795440, Note_on_c, 1, 35, 40
1, 7795920, Note_off_c, 1, 35, 0
1, 7796160, Note_on_c, 1, 35, 40
1, 7796280, Note_off_c, 1, 35, 0
1, 7796400, Note_on_c, 1, 35, 40
1, 7797000, Note_off_c, 1, 35, 0
1, 7797120, Note_on_c, 1, 35, 40
1, 7797240, Note_off_c, 1, 35, 0
1, 7797360, Note_on_c, 1, 35, 40
1, 7797960, Note_off_c, 1, 35, 0
1, 7798080, Note_on_c, 1, 35, 40
1, 7798200, Note_off_c, 1, 35, 0
1, 7798320, Note_on_c, 1, 43, 40
1, 7798800, Note_off_c, 1, 43, 0
1, 7798800, Note_on_c, 1, 33, 40
1, 7799280, Note_off_c, 1, 33, 0
1, 7799280, Note_on_c, 1, 35, 40
1, 7801200, Note_off_c, 1, 35, 0
1, 7801200, Note_on_c, 1, 35, 40
1, 7801440, Note_off_c, 1, 35, 0
1, 7821360, Note_on_c, 1, 57, 40
1, 7821480, Note_off_c, 1, 57, 0
1, 7821480, Note_on_c, 1, 57, 40
1, 7821600, Note_off_c, 1, 57, 0
1, 7821600, Note_on_c, 1, 57, 40
1, 7821720, Note_off_c, 1, 57, 0
1, 7821840, Note_on_c, 1, 57, 40
1, 7822080, Note_off_c, 1, 57, 0
1, 7822080, Note_on_c, 1, 56, 40
1, 7822200, Note_off_c, 1, 56, 0
1, 7822200, Note_on_c, 1, 55, 40
1, 7822320, Note_off_c, 1, 55, 0
1, 7822320, Note_on_c, 1, 52, 40
1, 7822440, Note_off_c, 1, 52, 0
1, 7822800, Note_on_c, 1, 45, 40
1, 7823520, Note_off_c, 1, 45, 0
1, 7823520, Note_on_c, 1, 40, 40
1, 7823760, Note_off_c, 1, 40, 0
1, 7823760, Note_on_c, 1, 43, 40
1, 7824000, Note_off_c, 1, 43, 0
1, 7824000, Note_on_c, 1, 45, 40
1, 7824720, Note_off_c, 1, 45, 0
1, 7824720, Note_on_c, 1, 45, 40
1, 7825200, Note_off_c, 1, 45, 0
1, 7825200, Note_on_c, 1, 35, 40
1, 7825440, Note_off_c, 1, 35, 0
1, 7825440, Note_on_c, 1, 37, 40
1, 7825680, Note_off_c, 1, 37, 0
1, 7825680, Note_on_c, 1, 38, 40
1, 7825920, Note_off_c, 1, 38, 0
1, 7825920, Note_on_c, 1, 40, 40
1, 7826160, Note_off_c, 1, 40, 0
1, 7826160, Note_on_c, 1, 33, 40
1, 7826640, Note_off_c, 1, 33, 0
1, 7826640, Note_on_c, 1, 33, 40
1, 7827360, Note_off_c, 1, 33, 0
1, 7827360, Note_on_c, 1, 33, 40
1, 7827600, Note_off_c, 1, 33, 0
1, 7827600, Note_on_c, 1, 38, 40
1, 7827720, Note_off_c, 1, 38, 0
1, 7827720, Note_on_c, 1, 40, 40
1, 7827840, Note_off_c, 1, 40, 0
1, 7827840, Note_on_c, 1, 45, 40
1, 7828560, Note_off_c, 1, 45, 0
1, 7828560, Note_on_c, 1, 45, 40
1, 7829040, Note_off_c, 1, 45, 0
1, 7829040, Note_on_c, 1, 33, 40
1, 7829280, Note_off_c, 1, 33, 0
1, 7829280, Note_on_c, 1, 38, 40
1, 7829520, Note_off_c, 1, 38, 0
1, 7829520, Note_on_c, 1, 40, 40
1, 7829760, Note_off_c, 1, 40, 0
1, 7829760, Note_on_c, 1, 43, 40
1, 7830000, Note_off_c, 1, 43, 0
1, 7830000, Note_on_c, 1, 45, 40
1, 7830240, Note_off_c, 1, 45, 0
1, 7830480, Note_on_c, 1, 45, 40
1, 7831200, Note_off_c, 1, 45, 0
1, 7831200, Note_on_c, 1, 40, 40
1, 7831440, Note_off_c, 1, 40, 0
1, 7831440, Note_on_c, 1, 43, 40
1, 7831680, Note_off_c, 1, 43, 0
1, 7831680, Note_on_c, 1, 45, 40
1, 7832400, Note_off_c, 1, 45, 0
1, 7832400, Note_on_c, 1, 45, 40
1, 7832880, Note_off_c, 1, 45, 0
1, 7832880, Note_on_c, 1, 40, 40
1, 7833120, Note_off_c, 1, 40, 0
1, 7833120, Note_on_c, 1, 43, 40
1, 7833360, Note_off_c, 1, 43, 0
1, 7833360, Note_on_c, 1, 45, 40
1, 7833600, Note_off_c, 1, 45, 0
1, 7833840, Note_on_c, 1, 45, 40
1, 7834320, Note_off_c, 1, 45, 0
1, 7834320, Note_on_c, 1, 45, 40
1, 7835040, Note_off_c, 1, 45, 0
1, 7835040, Note_on_c, 1, 40, 40
1, 7835280, Note_off_c, 1, 40, 0
1, 7835280, Note_on_c, 1, 43, 40
1, 7835520, Note_off_c, 1, 43, 0
1, 7835520, Note_on_c, 1, 45, 40
1, 7836240, Note_off_c, 1, 45, 0
1, 7836240, Note_on_c, 1, 45, 40
1, 7836720, Note_off_c, 1, 45, 0
1, 7836720, Note_on_c, 1, 40, 40
1, 7836840, Note_off_c, 1, 40, 0
1, 7836840, Note_on_c, 1, 42, 40
1, 7836960, Note_off_c, 1, 42, 0
1, 7836960, Note_on_c, 1, 45, 40
1, 7837200, Note_off_c, 1, 45, 0
1, 7837200, Note_on_c, 1, 42, 40
1, 7837440, Note_off_c, 1, 42, 0
1, 7837440, Note_on_c, 1, 40, 40
1, 7837680, Note_off_c, 1, 40, 0
1, 7837680, Note_on_c, 1, 38, 40
1, 7838160, Note_off_c, 1, 38, 0
1, 7838160, Note_on_c, 1, 38, 40
1, 7838640, Note_off_c, 1, 38, 0
1, 7838640, Note_on_c, 1, 33, 40
1, 7838880, Note_off_c, 1, 33, 0
1, 7838880, Note_on_c, 1, 35, 40
1, 7839120, Note_off_c, 1, 35, 0
1, 7839120, Note_on_c, 1, 36, 40
1, 7839360, Note_off_c, 1, 36, 0
1, 7839360, Note_on_c, 1, 37, 40
1, 7839600, Note_off_c, 1, 37, 0
1, 7839600, Note_on_c, 1, 38, 40
1, 7840080, Note_off_c, 1, 38, 0
1, 7840080, Note_on_c, 1, 38, 40
1, 7840560, Note_off_c, 1, 38, 0
1, 7840560, Note_on_c, 1, 33, 40
1, 7840800, Note_off_c, 1, 33, 0
1, 7840800, Note_on_c, 1, 35, 40
1, 7841040, Note_off_c, 1, 35, 0
1, 7841040, Note_on_c, 1, 37, 40
1, 7841280, Note_off_c, 1, 37, 0
1, 7841520, Note_on_c, 1, 45, 40
1, 7841760, Note_off_c, 1, 45, 0
1, 7842000, Note_on_c, 1, 45, 40
1, 7843440, Note_off_c, 1, 45, 0
1, 7845360, Note_on_c, 1, 40, 40
1, 7845480, Note_off_c, 1, 40, 0
1, 7845480, Note_on_c, 1, 43, 40
1, 7845600, Note_off_c, 1, 43, 0
1, 7845600, Note_on_c, 1, 45, 40
1, 7845840, Note_off_c, 1, 45, 0
1, 7845840, Note_on_c, 1, 40, 40
1, 7845960, Note_off_c, 1, 40, 0
1, 7845960, Note_on_c, 1, 43, 40
1, 7846080, Note_off_c, 1, 43, 0
1, 7846080, Note_on_c, 1, 45, 40
1, 7846320, Note_off_c, 1, 45, 0
1, 7846320, Note_on_c, 1, 40, 40
1, 7846560, Note_off_c, 1, 40, 0
1, 7846560, Note_on_c, 1, 40, 40
1, 7846800, Note_off_c, 1, 40, 0
1, 7846800, Note_on_c, 1, 43, 40
1, 7847040, Note_off_c, 1, 43, 0
1, 7847040, Note_on_c, 1, 45, 40
1, 7847760, Note_off_c, 1, 45, 0
1, 7847760, Note_on_c, 1, 45, 40
1, 7848240, Note_off_c, 1, 45, 0
1, 7848240, Note_on_c, 1, 33, 40
1, 7848480, Note_off_c, 1, 33, 0
1, 7848480, Note_on_c, 1, 38, 40
1, 7848960, Note_off_c, 1, 38, 0
1, 7848960, Note_on_c, 1, 38, 40
1, 7849200, Note_off_c, 1, 38, 0
1, 7849200, Note_on_c, 1, 45, 40
1, 7849440, Note_off_c, 1, 45, 0
1, 7849680, Note_on_c, 1, 45, 40
1, 7850400, Note_off_c, 1, 45, 0
1, 7850400, Note_on_c, 1, 40, 40
1, 7850640, Note_off_c, 1, 40, 0
1, 7850640, Note_on_c, 1, 43, 40
1, 7850880, Note_off_c, 1, 43, 0
1, 7850880, Note_on_c, 1, 45, 40
1, 7851600, Note_off_c, 1, 45, 0
1, 7851600, Note_on_c, 1, 45, 40
1, 7852080, Note_off_c, 1, 45, 0
1, 7852080, Note_on_c, 1, 40, 40
1, 7852320, Note_off_c, 1, 40, 0
1, 7852320, Note_on_c, 1, 43, 40
1, 7852560, Note_off_c, 1, 43, 0
1, 7852560, Note_on_c, 1, 45, 40
1, 7853040, Note_off_c, 1, 45, 0
1, 7853040, Note_on_c, 1, 40, 40
1, 7853160, Note_off_c, 1, 40, 0
1, 7853160, Note_on_c, 1, 43, 40
1, 7853280, Note_off_c, 1, 43, 0
1, 7853280, Note_on_c, 1, 45, 40
1, 7853520, Note_off_c, 1, 45, 0
1, 7853520, Note_on_c, 1, 40, 40
1, 7853640, Note_off_c, 1, 40, 0
1, 7853640, Note_on_c, 1, 43, 40
1, 7853760, Note_off_c, 1, 43, 0
1, 7853760, Note_on_c, 1, 45, 40
1, 7854240, Note_off_c, 1, 45, 0
1, 7854240, Note_on_c, 1, 40, 40
1, 7854480, Note_off_c, 1, 40, 0
1, 7854480, Note_on_c, 1, 43, 40
1, 7854720, Note_off_c, 1, 43, 0
1, 7854720, Note_on_c, 1, 45, 40
1, 7855440, Note_off_c, 1, 45, 0
1, 7855440, Note_on_c, 1, 45, 40
1, 7855920, Note_off_c, 1, 45, 0
1, 7855920, Note_on_c, 1, 40, 40
1, 7856040, Note_off_c, 1, 40, 0
1, 7856040, Note_on_c, 1, 42, 40
1, 7856160, Note_off_c, 1, 42, 0
1, 7856160, Note_on_c, 1, 45, 40
1, 7856400, Note_off_c, 1, 45, 0
1, 7856400, Note_on_c, 1, 40, 40
1, 7856520, Note_off_c, 1, 40, 0
1, 7856520, Note_on_c, 1, 42, 40
1, 7856640, Note_off_c, 1, 42, 0
1, 7856640, Note_on_c, 1, 45, 40
1, 7856880, Note_off_c, 1, 45, 0
1, 7856880, Note_on_c, 1, 45, 40
1, 7857360, Note_off_c, 1, 45, 0
1, 7857360, Note_on_c, 1, 45, 40
1, 7858080, Note_off_c, 1, 45, 0
1, 7858080, Note_on_c, 1, 33, 40
1, 7858320, Note_off_c, 1, 33, 0
1, 7858320, Note_on_c, 1, 38, 40
1, 7858560, Note_off_c, 1, 38, 0
1, 7858560, Note_on_c, 1, 40, 40
1, 7858800, Note_off_c, 1, 40, 0
1, 7858800, Note_on_c, 1, 40, 40
1, 7858920, Note_off_c, 1, 40, 0
1, 7858920, Note_on_c, 1, 43, 40
1, 7859040, Note_off_c, 1, 43, 0
1, 7859040, Note_on_c, 1, 45, 40
1, 7859280, Note_off_c, 1, 45, 0
1, 7859280, Note_on_c, 1, 45, 40
1, 7859760, Note_off_c, 1, 45, 0
1, 7859760, Note_on_c, 1, 40, 40
1, 7859880, Note_off_c, 1, 40, 0
1, 7859880, Note_on_c, 1, 42, 40
1, 7860000, Note_off_c, 1, 42, 0
1, 7860000, Note_on_c, 1, 45, 40
1, 7860240, Note_off_c, 1, 45, 0
1, 7860240, Note_on_c, 1, 42, 40
1, 7860480, Note_off_c, 1, 42, 0
1, 7860480, Note_on_c, 1, 40, 40
1, 7860720, Note_off_c, 1, 40, 0
1, 7860720, Note_on_c, 1, 38, 40
1, 7861200, Note_off_c, 1, 38, 0
1, 7861200, Note_on_c, 1, 38, 40
1, 7861920, Note_off_c, 1, 38, 0
1, 7861920, Note_on_c, 1, 33, 40
1, 7862160, Note_off_c, 1, 33, 0
1, 7862160, Note_on_c, 1, 36, 40
1, 7862400, Note_off_c, 1, 36, 0
1, 7862400, Note_on_c, 1, 38, 40
1, 7862640, Note_off_c, 1, 38, 0
1, 7862640, Note_on_c, 1, 38, 40
1, 7863120, Note_off_c, 1, 38, 0
1, 7863120, Note_on_c, 1, 38, 40
1, 7863600, Note_off_c, 1, 38, 0
1, 7863600, Note_on_c, 1, 33, 40
1, 7863840, Note_off_c, 1, 33, 0
1, 7863840, Note_on_c, 1, 35, 40
1, 7864080, Note_off_c, 1, 35, 0
1, 7864080, Note_on_c, 1, 37, 40
1, 7864320, Note_off_c, 1, 37, 0
1, 7864560, Note_on_c, 1, 45, 40
1, 7864800, Note_off_c, 1, 45, 0
1, 7865040, Note_on_c, 1, 45, 40
1, 7866960, Note_off_c, 1, 45, 0
1, 7866960, Note_on_c, 1, 45, 40
1, 7868400, Note_off_c, 1, 45, 0
1, 7882800, Note_on_c, 1, 57, 40
1, 7882920, Note_off_c, 1, 57, 0
1, 7882920, Note_on_c, 1, 57, 40
1, 7883040, Note_off_c, 1, 57, 0
1, 7883040, Note_on_c, 1, 57, 40
1, 7883160, Note_off_c, 1, 57, 0
1, 7883160, Note_on_c, 1, 57, 40
1, 7883280, Note_off_c, 1, 57, 0
1, 7883280, Note_on_c, 1, 57, 40
1, 7883520, Note_off_c, 1, 57, 0
1, 7883520, Note_on_c, 1, 57, 40
1, 7883760, Note_off_c, 1, 57, 0
1, 7883760, Note_on_c, 1, 45, 40
1, 7884240, Note_off_c, 1, 45, 0
1, 7884240, Note_on_c, 1, 45, 40
1, 7884960, Note_off_c, 1, 45, 0
1, 7884960, Note_on_c, 1, 40, 40
1, 7885200, Note_off_c, 1, 40, 0
1, 7885200, Note_on_c, 1, 43, 40
1, 7885440, Note_off_c, 1, 43, 0
1, 7885440, Note_on_c, 1, 45, 40
1, 7886160, Note_off_c, 1, 45, 0
1, 7886160, Note_on_c, 1, 45, 40
1, 7886640, Note_off_c, 1, 45, 0
1, 7886640, Note_on_c, 1, 35, 40
1, 7886880, Note_off_c, 1, 35, 0
1, 7886880, Note_on_c, 1, 37, 40
1, 7887120, Note_off_c, 1, 37, 0
1, 7887120, Note_on_c, 1, 38, 40
1, 7887360, Note_off_c, 1, 38, 0
1, 7887360, Note_on_c, 1, 40, 40
1, 7887600, Note_off_c, 1, 40, 0
1, 7887600, Note_on_c, 1, 33, 40
1, 7888080, Note_off_c, 1, 33, 0
1, 7888080, Note_on_c, 1, 33, 40
1, 7888800, Note_off_c, 1, 33, 0
1, 7888800, Note_on_c, 1, 33, 40
1, 7889040, Note_off_c, 1, 33, 0
1, 7889040, Note_on_c, 1, 38, 40
1, 7889160, Note_off_c, 1, 38, 0
1, 7889160, Note_on_c, 1, 40, 40
1, 7889280, Note_off_c, 1, 40, 0
1, 7889280, Note_on_c, 1, 45, 40
1, 7890000, Note_off_c, 1, 45, 0
1, 7890000, Note_on_c, 1, 45, 40
1, 7890480, Note_off_c, 1, 45, 0
1, 7890480, Note_on_c, 1, 33, 40
1, 7890720, Note_off_c, 1, 33, 0
1, 7890720, Note_on_c, 1, 38, 40
1, 7890960, Note_off_c, 1, 38, 0
1, 7890960, Note_on_c, 1, 40, 40
1, 7891200, Note_off_c, 1, 40, 0
1, 7891200, Note_on_c, 1, 43, 40
1, 7891440, Note_off_c, 1, 43, 0
1, 7891440, Note_on_c, 1, 45, 40
1, 7891680, Note_off_c, 1, 45, 0
1, 7891920, Note_on_c, 1, 45, 40
1, 7892640, Note_off_c, 1, 45, 0
1, 7892640, Note_on_c, 1, 40, 40
1, 7892880, Note_off_c, 1, 40, 0
1, 7892880, Note_on_c, 1, 43, 40
1, 7893120, Note_off_c, 1, 43, 0
1, 7893120, Note_on_c, 1, 45, 40
1, 7893840, Note_off_c, 1, 45, 0
1, 7893840, Note_on_c, 1, 45, 40
1, 7894320, Note_off_c, 1, 45, 0
1, 7894320, Note_on_c, 1, 40, 40
1, 7894560, Note_off_c, 1, 40, 0
1, 7894560, Note_on_c, 1, 43, 40
1, 7894800, Note_off_c, 1, 43, 0
1, 7894800, Note_on_c, 1, 45, 40
1, 7895040, Note_off_c, 1, 45, 0
1, 7895280, Note_on_c, 1, 45, 40
1, 7895760, Note_off_c, 1, 45, 0
1, 7895760, Note_on_c, 1, 45, 40
1, 7896480, Note_off_c, 1, 45, 0
1, 7896480, Note_on_c, 1, 40, 40
1, 7896720, Note_off_c, 1, 40, 0
1, 7896720, Note_on_c, 1, 43, 40
1, 7896960, Note_off_c, 1, 43, 0
1, 7896960, Note_on_c, 1, 45, 40
1, 7897680, Note_off_c, 1, 45, 0
1, 7897680, Note_on_c, 1, 45, 40
1, 7898160, Note_off_c, 1, 45, 0
1, 7898160, Note_on_c, 1, 40, 40
1, 7898280, Note_off_c, 1, 40, 0
1, 7898280, Note_on_c, 1, 42, 40
1, 7898400, Note_off_c, 1, 42, 0
1, 7898400, Note_on_c, 1, 45, 40
1, 7898640, Note_off_c, 1, 45, 0
1, 7898640, Note_on_c, 1, 42, 40
1, 7898880, Note_off_c, 1, 42, 0
1, 7898880, Note_on_c, 1, 40, 40
1, 7899120, Note_off_c, 1, 40, 0
1, 7899120, Note_on_c, 1, 38, 40
1, 7899600, Note_off_c, 1, 38, 0
1, 7899600, Note_on_c, 1, 38, 40
1, 7900080, Note_off_c, 1, 38, 0
1, 7900080, Note_on_c, 1, 33, 40
1, 7900320, Note_off_c, 1, 33, 0
1, 7900320, Note_on_c, 1, 35, 40
1, 7900560, Note_off_c, 1, 35, 0
1, 7900560, Note_on_c, 1, 36, 40
1, 7900800, Note_off_c, 1, 36, 0
1, 7900800, Note_on_c, 1, 37, 40
1, 7901040, Note_off_c, 1, 37, 0
1, 7901040, Note_on_c, 1, 38, 40
1, 7901520, Note_off_c, 1, 38, 0
1, 7901520, Note_on_c, 1, 38, 40
1, 7902000, Note_off_c, 1, 38, 0
1, 7902000, Note_on_c, 1, 33, 40
1, 7902240, Note_off_c, 1, 33, 0
1, 7902240, Note_on_c, 1, 35, 40
1, 7902480, Note_off_c, 1, 35, 0
1, 7902480, Note_on_c, 1, 37, 40
1, 7902720, Note_off_c, 1, 37, 0
1, 7902960, Note_on_c, 1, 45, 40
1, 7903200, Note_off_c, 1, 45, 0
1, 7903440, Note_on_c, 1, 45, 40
1, 7904880, Note_off_c, 1, 45, 0
1, 7906800, Note_on_c, 1, 40, 40
1, 7906920, Note_off_c, 1, 40, 0
1, 7906920, Note_on_c, 1, 43, 40
1, 7907040, Note_off_c, 1, 43, 0
1, 7907040, Note_on_c, 1, 45, 40
1, 7907280, Note_off_c, 1, 45, 0
1, 7907280, Note_on_c, 1, 40, 40
1, 7907400, Note_off_c, 1, 40, 0
1, 7907400, Note_on_c, 1, 43, 40
1, 7907520, Note_off_c, 1, 43, 0
1, 7907520, Note_on_c, 1, 45, 40
1, 7907760, Note_off_c, 1, 45, 0
1, 7907760, Note_on_c, 1, 40, 40
1, 7908000, Note_off_c, 1, 40, 0
1, 7908000, Note_on_c, 1, 40, 40
1, 7908240, Note_off_c, 1, 40, 0
1, 7908240, Note_on_c, 1, 43, 40
1, 7908480, Note_off_c, 1, 43, 0
1, 7908480, Note_on_c, 1, 45, 40
1, 7909200, Note_off_c, 1, 45, 0
1, 7909200, Note_on_c, 1, 45, 40
1, 7909680, Note_off_c, 1, 45, 0
1, 7909680, Note_on_c, 1, 33, 40
1, 7909920, Note_off_c, 1, 33, 0
1, 7909920, Note_on_c, 1, 38, 40
1, 7910400, Note_off_c, 1, 38, 0
1, 7910400, Note_on_c, 1, 38, 40
1, 7910640, Note_off_c, 1, 38, 0
1, 7910640, Note_on_c, 1, 45, 40
1, 7910880, Note_off_c, 1, 45, 0
1, 7911120, Note_on_c, 1, 45, 40
1, 7911840, Note_off_c, 1, 45, 0
1, 7911840, Note_on_c, 1, 40, 40
1, 7912080, Note_off_c, 1, 40, 0
1, 7912080, Note_on_c, 1, 43, 40
1, 7912320, Note_off_c, 1, 43, 0
1, 7912320, Note_on_c, 1, 45, 40
1, 7913040, Note_off_c, 1, 45, 0
1, 7913040, Note_on_c, 1, 45, 40
1, 7913520, Note_off_c, 1, 45, 0
1, 7913520, Note_on_c, 1, 40, 40
1, 7913760, Note_off_c, 1, 40, 0
1, 7913760, Note_on_c, 1, 43, 40
1, 7914000, Note_off_c, 1, 43, 0
1, 7914000, Note_on_c, 1, 45, 40
1, 7914480, Note_off_c, 1, 45, 0
1, 7914480, Note_on_c, 1, 40, 40
1, 7914600, Note_off_c, 1, 40, 0
1, 7914600, Note_on_c, 1, 43, 40
1, 7914720, Note_off_c, 1, 43, 0
1, 7914720, Note_on_c, 1, 45, 40
1, 7914960, Note_off_c, 1, 45, 0
1, 7914960, Note_on_c, 1, 40, 40
1, 7915080, Note_off_c, 1, 40, 0
1, 7915080, Note_on_c, 1, 43, 40
1, 7915200, Note_off_c, 1, 43, 0
1, 7915200, Note_on_c, 1, 45, 40
1, 7915680, Note_off_c, 1, 45, 0
1, 7915680, Note_on_c, 1, 40, 40
1, 7915920, Note_off_c, 1, 40, 0
1, 7915920, Note_on_c, 1, 43, 40
1, 7916160, Note_off_c, 1, 43, 0
1, 7916160, Note_on_c, 1, 45, 40
1, 7916880, Note_off_c, 1, 45, 0
1, 7916880, Note_on_c, 1, 45, 40
1, 7917360, Note_off_c, 1, 45, 0
1, 7917360, Note_on_c, 1, 40, 40
1, 7917480, Note_off_c, 1, 40, 0
1, 7917480, Note_on_c, 1, 42, 40
1, 7917600, Note_off_c, 1, 42, 0
1, 7917600, Note_on_c, 1, 45, 40
1, 7917840, Note_off_c, 1, 45, 0
1, 7917840, Note_on_c, 1, 40, 40
1, 7917960, Note_off_c, 1, 40, 0
1, 7917960, Note_on_c, 1, 42, 40
1, 7918080, Note_off_c, 1, 42, 0
1, 7918080, Note_on_c, 1, 45, 40
1, 7918320, Note_off_c, 1, 45, 0
1, 7918320, Note_on_c, 1, 45, 40
1, 7918800, Note_off_c, 1, 45, 0
1, 7918800, Note_on_c, 1, 45, 40
1, 7919520, Note_off_c, 1, 45, 0
1, 7919520, Note_on_c, 1, 33, 40
1, 7919760, Note_off_c, 1, 33, 0
1, 7919760, Note_on_c, 1, 38, 40
1, 7920000, Note_off_c, 1, 38, 0
1, 7920000, Note_on_c, 1, 40, 40
1, 7920240, Note_off_c, 1, 40, 0
1, 7920240, Note_on_c, 1, 40, 40
1, 7920360, Note_off_c, 1, 40, 0
1, 7920360, Note_on_c, 1, 43, 40
1, 7920480, Note_off_c, 1, 43, 0
1, 7920480, Note_on_c, 1, 45, 40
1, 7920720, Note_off_c, 1, 45, 0
1, 7920720, Note_on_c, 1, 45, 40
1, 7921200, Note_off_c, 1, 45, 0
1, 7921200, Note_on_c, 1, 40, 40
1, 7921320, Note_off_c, 1, 40, 0
1, 7921320, Note_on_c, 1, 42, 40
1, 7921440, Note_off_c, 1, 42, 0
1, 7921440, Note_on_c, 1, 45, 40
1, 7921680, Note_off_c, 1, 45, 0
1, 7921680, Note_on_c, 1, 42, 40
1, 7921920, Note_off_c, 1, 42, 0
1, 7921920, Note_on_c, 1, 40, 40
1, 7922160, Note_off_c, 1, 40, 0
1, 7922160, Note_on_c, 1, 38, 40
1, 7922640, Note_off_c, 1, 38, 0
1, 7922640, Note_on_c, 1, 38, 40
1, 7923360, Note_off_c, 1, 38, 0
1, 7923360, Note_on_c, 1, 33, 40
1, 7923600, Note_off_c, 1, 33, 0
1, 7923600, Note_on_c, 1, 36, 40
1, 7923840, Note_off_c, 1, 36, 0
1, 7923840, Note_on_c, 1, 38, 40
1, 7924080, Note_off_c, 1, 38, 0
1, 7924080, Note_on_c, 1, 38, 40
1, 7924560, Note_off_c, 1, 38, 0
1, 7924560, Note_on_c, 1, 38, 40
1, 7925040, Note_off_c, 1, 38, 0
1, 7925040, Note_on_c, 1, 33, 40
1, 7925280, Note_off_c, 1, 33, 0
1, 7925280, Note_on_c, 1, 35, 40
1, 7925520, Note_off_c, 1, 35, 0
1, 7925520, Note_on_c, 1, 37, 40
1, 7925760, Note_off_c, 1, 37, 0
1, 7926000, Note_on_c, 1, 45, 40
1, 7926240, Note_off_c, 1, 45, 0
1, 7926480, Note_on_c, 1, 45, 40
1, 7928400, Note_off_c, 1, 45, 0
1, 7928400, Note_on_c, 1, 45, 40
1, 7929840, Note_off_c, 1, 45, 0
1, 7943280, Note_on_c, 1, 55, 40
1, 7943400, Note_off_c, 1, 55, 0
1, 7943400, Note_on_c, 1, 57, 40
1, 7943640, Note_off_c, 1, 57, 0
1, 7943640, Note_on_c, 1, 55, 40
1, 7943760, Note_off_c, 1, 55, 0
1, 7943760, Note_on_c, 1, 57, 40
1, 7944000, Note_off_c, 1, 57, 0
1, 7944000, Note_on_c, 1, 55, 40
1, 7944120, Note_off_c, 1, 55, 0
1, 7944120, Note_on_c, 1, 57, 40
1, 7944240, Note_off_c, 1, 57, 0
1, 7944240, Note_on_c, 1, 55, 40
1, 7944360, Note_off_c, 1, 55, 0
1, 7944360, Note_on_c, 1, 57, 40
1, 7944720, Note_off_c, 1, 57, 0
1, 7944720, Note_on_c, 1, 55, 40
1, 7944960, Note_off_c, 1, 55, 0
1, 7944960, Note_on_c, 1, 57, 40
1, 7945200, Note_off_c, 1, 57, 0
1, 7945200, Note_on_c, 1, 45, 40
1, 7945680, Note_off_c, 1, 45, 0
1, 7945680, Note_on_c, 1, 45, 40
1, 7946160, Note_off_c, 1, 45, 0
1, 7946160, Note_on_c, 1, 40, 40
1, 7946400, Note_off_c, 1, 40, 0
1, 7946400, Note_on_c, 1, 40, 40
1, 7946640, Note_off_c, 1, 40, 0
1, 7946640, Note_on_c, 1, 43, 40
1, 7946880, Note_off_c, 1, 43, 0
1, 7946880, Note_on_c, 1, 45, 40
1, 7947600, Note_off_c, 1, 45, 0
1, 7947600, Note_on_c, 1, 45, 40
1, 7948080, Note_off_c, 1, 45, 0
1, 7948080, Note_on_c, 1, 35, 40
1, 7948320, Note_off_c, 1, 35, 0
1, 7948320, Note_on_c, 1, 37, 40
1, 7948560, Note_off_c, 1, 37, 0
1, 7948560, Note_on_c, 1, 38, 40
1, 7948800, Note_off_c, 1, 38, 0
1, 7948800, Note_on_c, 1, 40, 40
1, 7949040, Note_off_c, 1, 40, 0
1, 7949040, Note_on_c, 1, 45, 40
1, 7949520, Note_off_c, 1, 45, 0
1, 7949520, Note_on_c, 1, 45, 40
1, 7950000, Note_off_c, 1, 45, 0
1, 7950000, Note_on_c, 1, 33, 40
1, 7950240, Note_off_c, 1, 33, 0
1, 7950240, Note_on_c, 1, 40, 40
1, 7950480, Note_off_c, 1, 40, 0
1, 7950480, Note_on_c, 1, 43, 40
1, 7950720, Note_off_c, 1, 43, 0
1, 7950720, Note_on_c, 1, 45, 40
1, 7951440, Note_off_c, 1, 45, 0
1, 7951440, Note_on_c, 1, 45, 40
1, 7951920, Note_off_c, 1, 45, 0
1, 7951920, Note_on_c, 1, 33, 40
1, 7952160, Note_off_c, 1, 33, 0
1, 7952160, Note_on_c, 1, 37, 40
1, 7952400, Note_off_c, 1, 37, 0
1, 7952400, Note_on_c, 1, 38, 40
1, 7952640, Note_off_c, 1, 38, 0
1, 7952640, Note_on_c, 1, 40, 40
1, 7952880, Note_off_c, 1, 40, 0
1, 7952880, Note_on_c, 1, 45, 40
1, 7953360, Note_off_c, 1, 45, 0
1, 7953360, Note_on_c, 1, 45, 40
1, 7953840, Note_off_c, 1, 45, 0
1, 7953840, Note_on_c, 1, 40, 40
1, 7954080, Note_off_c, 1, 40, 0
1, 7954080, Note_on_c, 1, 40, 40
1, 7954320, Note_off_c, 1, 40, 0
1, 7954320, Note_on_c, 1, 43, 40
1, 7954560, Note_off_c, 1, 43, 0
1, 7954560, Note_on_c, 1, 45, 40
1, 7955280, Note_off_c, 1, 45, 0
1, 7955280, Note_on_c, 1, 45, 40
1, 7955760, Note_off_c, 1, 45, 0
1, 7955760, Note_on_c, 1, 35, 40
1, 7956000, Note_off_c, 1, 35, 0
1, 7956000, Note_on_c, 1, 37, 40
1, 7956240, Note_off_c, 1, 37, 0
1, 7956240, Note_on_c, 1, 38, 40
1, 7956480, Note_off_c, 1, 38, 0
1, 7956480, Note_on_c, 1, 40, 40
1, 7956720, Note_off_c, 1, 40, 0
1, 7956720, Note_on_c, 1, 45, 40
1, 7957200, Note_off_c, 1, 45, 0
1, 7957200, Note_on_c, 1, 45, 40
1, 7957680, Note_off_c, 1, 45, 0
1, 7957680, Note_on_c, 1, 33, 40
1, 7957920, Note_off_c, 1, 33, 0
1, 7957920, Note_on_c, 1, 40, 40
1, 7958160, Note_off_c, 1, 40, 0
1, 7958160, Note_on_c, 1, 43, 40
1, 7958400, Note_off_c, 1, 43, 0
1, 7958400, Note_on_c, 1, 45, 40
1, 7959120, Note_off_c, 1, 45, 0
1, 7959120, Note_on_c, 1, 45, 40
1, 7959600, Note_off_c, 1, 45, 0
1, 7959600, Note_on_c, 1, 33, 40
1, 7959840, Note_off_c, 1, 33, 0
1, 7959840, Note_on_c, 1, 37, 40
1, 7960080, Note_off_c, 1, 37, 0
1, 7960080, Note_on_c, 1, 38, 40
1, 7960320, Note_off_c, 1, 38, 0
1, 7960320, Note_on_c, 1, 40, 40
1, 7960560, Note_off_c, 1, 40, 0
1, 7960560, Note_on_c, 1, 45, 40
1, 7961040, Note_off_c, 1, 45, 0
1, 7961040, Note_on_c, 1, 45, 40
1, 7961520, Note_off_c, 1, 45, 0
1, 7961520, Note_on_c, 1, 40, 40
1, 7961760, Note_off_c, 1, 40, 0
1, 7961760, Note_on_c, 1, 40, 40
1, 7962000, Note_off_c, 1, 40, 0
1, 7962000, Note_on_c, 1, 43, 40
1, 7962240, Note_off_c, 1, 43, 0
1, 7962240, Note_on_c, 1, 45, 40
1, 7962960, Note_off_c, 1, 45, 0
1, 7962960, Note_on_c, 1, 45, 40
1, 7963440, Note_off_c, 1, 45, 0
1, 7963440, Note_on_c, 1, 35, 40
1, 7963680, Note_off_c, 1, 35, 0
1, 7963680, Note_on_c, 1, 37, 40
1, 7963920, Note_off_c, 1, 37, 0
1, 7963920, Note_on_c, 1, 38, 40
1, 7964160, Note_off_c, 1, 38, 0
1, 7964160, Note_on_c, 1, 40, 40
1, 7964400, Note_off_c, 1, 40, 0
1, 7964400, Note_on_c, 1, 45, 40
1, 7964880, Note_off_c, 1, 45, 0
1, 7964880, Note_on_c, 1, 45, 40
1, 7965360, Note_off_c, 1, 45, 0
1, 7965360, Note_on_c, 1, 33, 40
1, 7965600, Note_off_c, 1, 33, 0
1, 7965600, Note_on_c, 1, 40, 40
1, 7965840, Note_off_c, 1, 40, 0
1, 7965840, Note_on_c, 1, 43, 40
1, 7966080, Note_off_c, 1, 43, 0
1, 7966080, Note_on_c, 1, 45, 40
1, 7966800, Note_off_c, 1, 45, 0
1, 7966800, Note_on_c, 1, 45, 40
1, 7967280, Note_off_c, 1, 45, 0
1, 7967280, Note_on_c, 1, 33, 40
1, 7967520, Note_off_c, 1, 33, 0
1, 7967520, Note_on_c, 1, 37, 40
1, 7967760, Note_off_c, 1, 37, 0
1, 7967760, Note_on_c, 1, 38, 40
1, 7968000, Note_off_c, 1, 38, 0
1, 7968000, Note_on_c, 1, 40, 40
1, 7968240, Note_off_c, 1, 40, 0
1, 7968240, Note_on_c, 1, 45, 40
1, 7968720, Note_off_c, 1, 45, 0
1, 7968720, Note_on_c, 1, 45, 40
1, 7969200, Note_off_c, 1, 45, 0
1, 7969200, Note_on_c, 1, 40, 40
1, 7969440, Note_off_c, 1, 40, 0
1, 7969440, Note_on_c, 1, 40, 40
1, 7969680, Note_off_c, 1, 40, 0
1, 7969680, Note_on_c, 1, 43, 40
1, 7969920, Note_off_c, 1, 43, 0
1, 7969920, Note_on_c, 1, 45, 40
1, 7970640, Note_off_c, 1, 45, 0
1, 7970640, Note_on_c, 1, 45, 40
1, 7971120, Note_off_c, 1, 45, 0
1, 7971120, Note_on_c, 1, 35, 40
1, 7971360, Note_off_c, 1, 35, 0
1, 7971360, Note_on_c, 1, 37, 40
1, 7971600, Note_off_c, 1, 37, 0
1, 7971600, Note_on_c, 1, 38, 40
1, 7971840, Note_off_c, 1, 38, 0
1, 7971840, Note_on_c, 1, 40, 40
1, 7972080, Note_off_c, 1, 40, 0
1, 7972080, Note_on_c, 1, 45, 40
1, 7972560, Note_off_c, 1, 45, 0
1, 7972560, Note_on_c, 1, 45, 40
1, 7973040, Note_off_c, 1, 45, 0
1, 7973040, Note_on_c, 1, 33, 40
1, 7973280, Note_off_c, 1, 33, 0
1, 7973280, Note_on_c, 1, 40, 40
1, 7973520, Note_off_c, 1, 40, 0
1, 7973520, Note_on_c, 1, 43, 40
1, 7973760, Note_off_c, 1, 43, 0
1, 7973760, Note_on_c, 1, 45, 40
1, 7974480, Note_off_c, 1, 45, 0
1, 7974480, Note_on_c, 1, 45, 40
1, 7974960, Note_off_c, 1, 45, 0
1, 7974960, Note_on_c, 1, 33, 40
1, 7975200, Note_off_c, 1, 33, 0
1, 7975200, Note_on_c, 1, 37, 40
1, 7975440, Note_off_c, 1, 37, 0
1, 7975440, Note_on_c, 1, 38, 40
1, 7975680, Note_off_c, 1, 38, 0
1, 7975680, Note_on_c, 1, 40, 40
1, 7975920, Note_off_c, 1, 40, 0
1, 7975920, Note_on_c, 1, 45, 40
1, 7976400, Note_off_c, 1, 45, 0
1, 7976400, Note_on_c, 1, 45, 40
1, 7976880, Note_off_c, 1, 45, 0
1, 7976880, Note_on_c, 1, 40, 40
1, 7977120, Note_off_c, 1, 40, 0
1, 7977120, Note_on_c, 1, 40, 40
1, 7977360, Note_off_c, 1, 40, 0
1, 7977360, Note_on_c, 1, 43, 40
1, 7977600, Note_off_c, 1, 43, 0
1, 7977600, Note_on_c, 1, 45, 40
1, 7978320, Note_off_c, 1, 45, 0
1, 7978320, Note_on_c, 1, 45, 40
1, 7978800, Note_off_c, 1, 45, 0
1, 7978800, Note_on_c, 1, 35, 40
1, 7979040, Note_off_c, 1, 35, 0
1, 7979040, Note_on_c, 1, 37, 40
1, 7979280, Note_off_c, 1, 37, 0
1, 7979280, Note_on_c, 1, 38, 40
1, 7979520, Note_off_c, 1, 38, 0
1, 7979520, Note_on_c, 1, 40, 40
1, 7979760, Note_off_c, 1, 40, 0
1, 7979760, Note_on_c, 1, 45, 40
1, 7980240, Note_off_c, 1, 45, 0
1, 7980240, Note_on_c, 1, 45, 40
1, 7980720, Note_off_c, 1, 45, 0
1, 7980720, Note_on_c, 1, 33, 40
1, 7980960, Note_off_c, 1, 33, 0
1, 7980960, Note_on_c, 1, 40, 40
1, 7981200, Note_off_c, 1, 40, 0
1, 7981200, Note_on_c, 1, 43, 40
1, 7981440, Note_off_c, 1, 43, 0
1, 7981440, Note_on_c, 1, 45, 40
1, 7982160, Note_off_c, 1, 45, 0
1, 7982160, Note_on_c, 1, 45, 40
1, 7982640, Note_off_c, 1, 45, 0
1, 7982640, Note_on_c, 1, 33, 40
1, 7982880, Note_off_c, 1, 33, 0
1, 7982880, Note_on_c, 1, 37, 40
1, 7983120, Note_off_c, 1, 37, 0
1, 7983120, Note_on_c, 1, 38, 40
1, 7983360, Note_off_c, 1, 38, 0
1, 7983360, Note_on_c, 1, 40, 40
1, 7983600, Note_off_c, 1, 40, 0
1, 7983600, Note_on_c, 1, 45, 40
1, 7984080, Note_off_c, 1, 45, 0
1, 7984080, Note_on_c, 1, 45, 40
1, 7984560, Note_off_c, 1, 45, 0
1, 7984560, Note_on_c, 1, 40, 40
1, 7984800, Note_off_c, 1, 40, 0
1, 7984800, Note_on_c, 1, 40, 40
1, 7985040, Note_off_c, 1, 40, 0
1, 7985040, Note_on_c, 1, 43, 40
1, 7985280, Note_off_c, 1, 43, 0
1, 7985280, Note_on_c, 1, 45, 40
1, 7986000, Note_off_c, 1, 45, 0
1, 7986000, Note_on_c, 1, 45, 40
1, 7986480, Note_off_c, 1, 45, 0
1, 7986480, Note_on_c, 1, 35, 40
1, 7986720, Note_off_c, 1, 35, 0
1, 7986720, Note_on_c, 1, 37, 40
1, 7986960, Note_off_c, 1, 37, 0
1, 7986960, Note_on_c, 1, 38, 40
1, 7987200, Note_off_c, 1, 38, 0
1, 7987200, Note_on_c, 1, 40, 40
1, 7987440, Note_off_c, 1, 40, 0
1, 7987440, Note_on_c, 1, 45, 40
1, 7987920, Note_off_c, 1, 45, 0
1, 7987920, Note_on_c, 1, 45, 40
1, 7988400, Note_off_c, 1, 45, 0
1, 7988400, Note_on_c, 1, 33, 40
1, 7988640, Note_off_c, 1, 33, 0
1, 7988640, Note_on_c, 1, 40, 40
1, 7988880, Note_off_c, 1, 40, 0
1, 7988880, Note_on_c, 1, 43, 40
1, 7989120, Note_off_c, 1, 43, 0
1, 7989120, Note_on_c, 1, 45, 40
1, 7989840, Note_off_c, 1, 45, 0
1, 7989840, Note_on_c, 1, 45, 40
1, 7990320, Note_off_c, 1, 45, 0
1, 7990320, Note_on_c, 1, 33, 40
1, 7990560, Note_off_c, 1, 33, 0
1, 7990560, Note_on_c, 1, 37, 40
1, 7990800, Note_off_c, 1, 37, 0
1, 7990800, Note_on_c, 1, 38, 40
1, 7991040, Note_off_c, 1, 38, 0
1, 7991040, Note_on_c, 1, 40, 40
1, 7991280, Note_off_c, 1, 40, 0
1, 7991280, Note_on_c, 1, 45, 40
1, 7991760, Note_off_c, 1, 45, 0
1, 7991760, Note_on_c, 1, 45, 40
1, 7992240, Note_off_c, 1, 45, 0
1, 7992240, Note_on_c, 1, 40, 40
1, 7992480, Note_off_c, 1, 40, 0
1, 7992480, Note_on_c, 1, 40, 40
1, 7992720, Note_off_c, 1, 40, 0
1, 7992720, Note_on_c, 1, 43, 40
1, 7992960, Note_off_c, 1, 43, 0
1, 7992960, Note_on_c, 1, 45, 40
1, 7993680, Note_off_c, 1, 45, 0
1, 7993680, Note_on_c, 1, 45, 40
1, 7994160, Note_off_c, 1, 45, 0
1, 7994160, Note_on_c, 1, 35, 40
1, 7994400, Note_off_c, 1, 35, 0
1, 7994400, Note_on_c, 1, 37, 40
1, 7994640, Note_off_c, 1, 37, 0
1, 7994640, Note_on_c, 1, 38, 40
1, 7994880, Note_off_c, 1, 38, 0
1, 7994880, Note_on_c, 1, 40, 40
1, 7995120, Note_off_c, 1, 40, 0
1, 7995120, Note_on_c, 1, 45, 40
1, 7995600, Note_off_c, 1, 45, 0
1, 7995600, Note_on_c, 1, 45, 40
1, 7996080, Note_off_c, 1, 45, 0
1, 7996080, Note_on_c, 1, 33, 40
1, 7996320, Note_off_c, 1, 33, 0
1, 7996320, Note_on_c, 1, 40, 40
1, 7996560, Note_off_c, 1, 40, 0
1, 7996560, Note_on_c, 1, 43, 40
1, 7996800, Note_off_c, 1, 43, 0
1, 7996800, Note_on_c, 1, 45, 40
1, 7997520, Note_off_c, 1, 45, 0
1, 7997520, Note_on_c, 1, 45, 40
1, 7998000, Note_off_c, 1, 45, 0
1, 7998000, Note_on_c, 1, 33, 40
1, 7998240, Note_off_c, 1, 33, 0
1, 7998240, Note_on_c, 1, 37, 40
1, 7998480, Note_off_c, 1, 37, 0
1, 7998480, Note_on_c, 1, 38, 40
1, 7998720, Note_off_c, 1, 38, 0
1, 7998720, Note_on_c, 1, 40, 40
1, 7998960, Note_off_c, 1, 40, 0
1, 7998960, Note_on_c, 1, 45, 40
1, 7999440, Note_off_c, 1, 45, 0
1, 7999440, Note_on_c, 1, 45, 40
1, 7999920, Note_off_c, 1, 45, 0
1, 7999920, Note_on_c, 1, 40, 40
1, 8000160, Note_off_c, 1, 40, 0
1, 8000160, Note_on_c, 1, 40, 40
1, 8000400, Note_off_c, 1, 40, 0
1, 8000400, Note_on_c, 1, 43, 40
1, 8000640, Note_off_c, 1, 43, 0
1, 8000640, Note_on_c, 1, 45, 40
1, 8001360, Note_off_c, 1, 45, 0
1, 8001360, Note_on_c, 1, 45, 40
1, 8001840, Note_off_c, 1, 45, 0
1, 8001840, Note_on_c, 1, 35, 40
1, 8002080, Note_off_c, 1, 35, 0
1, 8002080, Note_on_c, 1, 37, 40
1, 8002320, Note_off_c, 1, 37, 0
1, 8002320, Note_on_c, 1, 38, 40
1, 8002560, Note_off_c, 1, 38, 0
1, 8002560, Note_on_c, 1, 40, 40
1, 8002800, Note_off_c, 1, 40, 0
1, 8002800, Note_on_c, 1, 45, 40
1, 8003280, Note_off_c, 1, 45, 0
1, 8003280, Note_on_c, 1, 45, 40
1, 8003760, Note_off_c, 1, 45, 0
1, 8003760, Note_on_c, 1, 33, 40
1, 8004000, Note_off_c, 1, 33, 0
1, 8004000, Note_on_c, 1, 40, 40
1, 8004240, Note_off_c, 1, 40, 0
1, 8004240, Note_on_c, 1, 43, 40
1, 8004480, Note_off_c, 1, 43, 0
1, 8004480, Note_on_c, 1, 45, 40
1, 8005200, Note_off_c, 1, 45, 0
1, 8005200, Note_on_c, 1, 45, 40
1, 8005680, Note_off_c, 1, 45, 0
1, 8005680, Note_on_c, 1, 33, 40
1, 8005920, Note_off_c, 1, 33, 0
1, 8005920, Note_on_c, 1, 37, 40
1, 8006160, Note_off_c, 1, 37, 0
1, 8006160, Note_on_c, 1, 38, 40
1, 8006400, Note_off_c, 1, 38, 0
1, 8006400, Note_on_c, 1, 40, 40
1, 8006640, Note_off_c, 1, 40, 0
1, 8013360, Note_on_c, 1, 30, 40
1, 8013600, Note_off_c, 1, 30, 0
1, 8017200, Note_on_c, 1, 27, 40
1, 8017560, Note_off_c, 1, 27, 0
1, 8020320, Note_on_c, 1, 46, 40
1, 8020560, Note_off_c, 1, 46, 0
1, 8020560, Note_on_c, 1, 45, 40
1, 8020800, Note_off_c, 1, 45, 0
1, 8020800, Note_on_c, 1, 44, 40
1, 8021040, Note_off_c, 1, 44, 0
1, 8021040, Note_on_c, 1, 42, 40
1, 8021280, Note_off_c, 1, 42, 0
1, 8021280, Note_on_c, 1, 42, 40
1, 8021400, Note_off_c, 1, 42, 0
1, 8021760, Note_on_c, 1, 42, 40
1, 8021880, Note_off_c, 1, 42, 0
1, 8022000, Note_on_c, 1, 37, 40
1, 8022120, Note_off_c, 1, 37, 0
1, 8022240, Note_on_c, 1, 37, 40
1, 8022360, Note_off_c, 1, 37, 0
1, 8022720, Note_on_c, 1, 37, 40
1, 8022840, Note_off_c, 1, 37, 0
1, 8022960, Note_on_c, 1, 42, 40
1, 8023080, Note_off_c, 1, 42, 0
1, 8023200, Note_on_c, 1, 42, 40
1, 8023320, Note_off_c, 1, 42, 0
1, 8023680, Note_on_c, 1, 42, 40
1, 8023800, Note_off_c, 1, 42, 0
1, 8023920, Note_on_c, 1, 37, 40
1, 8024160, Note_off_c, 1, 37, 0
1, 8024160, Note_on_c, 1, 37, 40
1, 8024280, Note_off_c, 1, 37, 0
1, 8024640, Note_on_c, 1, 37, 40
1, 8024760, Note_off_c, 1, 37, 0
1, 8024880, Note_on_c, 1, 39, 40
1, 8025120, Note_off_c, 1, 39, 0
1, 8025120, Note_on_c, 1, 39, 40
1, 8025240, Note_off_c, 1, 39, 0
1, 8025600, Note_on_c, 1, 39, 40
1, 8025720, Note_off_c, 1, 39, 0
1, 8025840, Note_on_c, 1, 34, 40
1, 8025960, Note_off_c, 1, 34, 0
1, 8026080, Note_on_c, 1, 34, 40
1, 8026200, Note_off_c, 1, 34, 0
1, 8026560, Note_on_c, 1, 34, 40
1, 8026680, Note_off_c, 1, 34, 0
1, 8026800, Note_on_c, 1, 39, 40
1, 8026920, Note_off_c, 1, 39, 0
1, 8027040, Note_on_c, 1, 39, 40
1, 8027160, Note_off_c, 1, 39, 0
1, 8027520, Note_on_c, 1, 39, 40
1, 8027640, Note_off_c, 1, 39, 0
1, 8027760, Note_on_c, 1, 34, 40
1, 8027880, Note_off_c, 1, 34, 0
1, 8028000, Note_on_c, 1, 34, 40
1, 8028120, Note_off_c, 1, 34, 0
1, 8028480, Note_on_c, 1, 34, 40
1, 8028600, Note_off_c, 1, 34, 0
1, 8028720, Note_on_c, 1, 35, 40
1, 8028960, Note_off_c, 1, 35, 0
1, 8028960, Note_on_c, 1, 35, 40
1, 8029080, Note_off_c, 1, 35, 0
1, 8029440, Note_on_c, 1, 35, 40
1, 8029560, Note_off_c, 1, 35, 0
1, 8029680, Note_on_c, 1, 30, 40
1, 8029800, Note_off_c, 1, 30, 0
1, 8029920, Note_on_c, 1, 30, 40
1, 8030040, Note_off_c, 1, 30, 0
1, 8030400, Note_on_c, 1, 30, 40
1, 8030520, Note_off_c, 1, 30, 0
1, 8030640, Note_on_c, 1, 35, 40
1, 8030760, Note_off_c, 1, 35, 0
1, 8030880, Note_on_c, 1, 35, 40
1, 8031000, Note_off_c, 1, 35, 0
1, 8031360, Note_on_c, 1, 35, 40
1, 8031480, Note_off_c, 1, 35, 0
1, 8031600, Note_on_c, 1, 30, 40
1, 8031720, Note_off_c, 1, 30, 0
1, 8031840, Note_on_c, 1, 30, 40
1, 8031960, Note_off_c, 1, 30, 0
1, 8032080, Note_on_c, 1, 35, 40
1, 8032200, Note_off_c, 1, 35, 0
1, 8032320, Note_on_c, 1, 36, 40
1, 8032560, Note_off_c, 1, 36, 0
1, 8032560, Note_on_c, 1, 37, 40
1, 8032800, Note_off_c, 1, 37, 0
1, 8032800, Note_on_c, 1, 37, 40
1, 8032920, Note_off_c, 1, 37, 0
1, 8033280, Note_on_c, 1, 37, 40
1, 8033400, Note_off_c, 1, 37, 0
1, 8033520, Note_on_c, 1, 32, 40
1, 8033640, Note_off_c, 1, 32, 0
1, 8033760, Note_on_c, 1, 32, 40
1, 8034000, Note_off_c, 1, 32, 0
1, 8034240, Note_on_c, 1, 32, 40
1, 8034360, Note_off_c, 1, 32, 0
1, 8034480, Note_on_c, 1, 37, 40
1, 8034600, Note_off_c, 1, 37, 0
1, 8034720, Note_on_c, 1, 37, 40
1, 8034960, Note_off_c, 1, 37, 0
1, 8035200, Note_on_c, 1, 37, 40
1, 8035320, Note_off_c, 1, 37, 0
1, 8035440, Note_on_c, 1, 37, 40
1, 8035560, Note_off_c, 1, 37, 0
1, 8035680, Note_on_c, 1, 37, 40
1, 8035800, Note_off_c, 1, 37, 0
1, 8035920, Note_on_c, 1, 39, 40
1, 8036040, Note_off_c, 1, 39, 0
1, 8036160, Note_on_c, 1, 41, 40
1, 8036400, Note_off_c, 1, 41, 0
1, 8036400, Note_on_c, 1, 42, 40
1, 8036520, Note_off_c, 1, 42, 0
1, 8036640, Note_on_c, 1, 42, 40
1, 8036760, Note_off_c, 1, 42, 0
1, 8037120, Note_on_c, 1, 42, 40
1, 8037240, Note_off_c, 1, 42, 0
1, 8037360, Note_on_c, 1, 37, 40
1, 8037480, Note_off_c, 1, 37, 0
1, 8037600, Note_on_c, 1, 37, 40
1, 8037720, Note_off_c, 1, 37, 0
1, 8038080, Note_on_c, 1, 37, 40
1, 8038200, Note_off_c, 1, 37, 0
1, 8038320, Note_on_c, 1, 42, 40
1, 8038440, Note_off_c, 1, 42, 0
1, 8038560, Note_on_c, 1, 42, 40
1, 8038680, Note_off_c, 1, 42, 0
1, 8039040, Note_on_c, 1, 42, 40
1, 8039160, Note_off_c, 1, 42, 0
1, 8039280, Note_on_c, 1, 37, 40
1, 8039520, Note_off_c, 1, 37, 0
1, 8039520, Note_on_c, 1, 37, 40
1, 8039640, Note_off_c, 1, 37, 0
1, 8040000, Note_on_c, 1, 37, 40
1, 8040120, Note_off_c, 1, 37, 0
1, 8040240, Note_on_c, 1, 39, 40
1, 8040360, Note_off_c, 1, 39, 0
1, 8040480, Note_on_c, 1, 39, 40
1, 8040600, Note_off_c, 1, 39, 0
1, 8040960, Note_on_c, 1, 39, 40
1, 8041080, Note_off_c, 1, 39, 0
1, 8041200, Note_on_c, 1, 34, 40
1, 8041320, Note_off_c, 1, 34, 0
1, 8041440, Note_on_c, 1, 34, 40
1, 8041560, Note_off_c, 1, 34, 0
1, 8041920, Note_on_c, 1, 34, 40
1, 8042040, Note_off_c, 1, 34, 0
1, 8042160, Note_on_c, 1, 39, 40
1, 8042280, Note_off_c, 1, 39, 0
1, 8042400, Note_on_c, 1, 39, 40
1, 8042520, Note_off_c, 1, 39, 0
1, 8042880, Note_on_c, 1, 39, 40
1, 8043000, Note_off_c, 1, 39, 0
1, 8043120, Note_on_c, 1, 34, 40
1, 8043240, Note_off_c, 1, 34, 0
1, 8043360, Note_on_c, 1, 34, 40
1, 8043480, Note_off_c, 1, 34, 0
1, 8043840, Note_on_c, 1, 34, 40
1, 8043960, Note_off_c, 1, 34, 0
1, 8044080, Note_on_c, 1, 35, 40
1, 8044200, Note_off_c, 1, 35, 0
1, 8044320, Note_on_c, 1, 35, 40
1, 8044440, Note_off_c, 1, 35, 0
1, 8044800, Note_on_c, 1, 35, 40
1, 8044920, Note_off_c, 1, 35, 0
1, 8045040, Note_on_c, 1, 30, 40
1, 8045160, Note_off_c, 1, 30, 0
1, 8045280, Note_on_c, 1, 30, 40
1, 8045400, Note_off_c, 1, 30, 0
1, 8045760, Note_on_c, 1, 30, 40
1, 8045880, Note_off_c, 1, 30, 0
1, 8046000, Note_on_c, 1, 35, 40
1, 8046120, Note_off_c, 1, 35, 0
1, 8046240, Note_on_c, 1, 35, 40
1, 8046360, Note_off_c, 1, 35, 0
1, 8046720, Note_on_c, 1, 35, 40
1, 8046840, Note_off_c, 1, 35, 0
1, 8046960, Note_on_c, 1, 30, 40
1, 8047080, Note_off_c, 1, 30, 0
1, 8047200, Note_on_c, 1, 30, 40
1, 8047320, Note_off_c, 1, 30, 0
1, 8047440, Note_on_c, 1, 35, 40
1, 8047560, Note_off_c, 1, 35, 0
1, 8047680, Note_on_c, 1, 36, 40
1, 8047920, Note_off_c, 1, 36, 0
1, 8047920, Note_on_c, 1, 37, 40
1, 8048160, Note_off_c, 1, 37, 0
1, 8048160, Note_on_c, 1, 37, 40
1, 8048280, Note_off_c, 1, 37, 0
1, 8048640, Note_on_c, 1, 37, 40
1, 8048760, Note_off_c, 1, 37, 0
1, 8048880, Note_on_c, 1, 32, 40
1, 8049000, Note_off_c, 1, 32, 0
1, 8049120, Note_on_c, 1, 32, 40
1, 8049360, Note_off_c, 1, 32, 0
1, 8049600, Note_on_c, 1, 32, 40
1, 8049720, Note_off_c, 1, 32, 0
1, 8049840, Note_on_c, 1, 37, 40
1, 8049960, Note_off_c, 1, 37, 0
1, 8050080, Note_on_c, 1, 37, 40
1, 8050320, Note_off_c, 1, 37, 0
1, 8050560, Note_on_c, 1, 37, 40
1, 8050680, Note_off_c, 1, 37, 0
1, 8050800, Note_on_c, 1, 37, 40
1, 8050920, Note_off_c, 1, 37, 0
1, 8051040, Note_on_c, 1, 37, 40
1, 8051160, Note_off_c, 1, 37, 0
1, 8051280, Note_on_c, 1, 39, 40
1, 8051400, Note_off_c, 1, 39, 0
1, 8051520, Note_on_c, 1, 41, 40
1, 8051760, Note_off_c, 1, 41, 0
1, 8051760, Note_on_c, 1, 42, 40
1, 8051880, Note_off_c, 1, 42, 0
1, 8052000, Note_on_c, 1, 42, 40
1, 8052120, Note_off_c, 1, 42, 0
1, 8052480, Note_on_c, 1, 42, 40
1, 8052600, Note_off_c, 1, 42, 0
1, 8052720, Note_on_c, 1, 37, 40
1, 8052840, Note_off_c, 1, 37, 0
1, 8052960, Note_on_c, 1, 37, 40
1, 8053080, Note_off_c, 1, 37, 0
1, 8053440, Note_on_c, 1, 37, 40
1, 8053560, Note_off_c, 1, 37, 0
1, 8053680, Note_on_c, 1, 42, 40
1, 8053800, Note_off_c, 1, 42, 0
1, 8053920, Note_on_c, 1, 42, 40
1, 8054040, Note_off_c, 1, 42, 0
1, 8054400, Note_on_c, 1, 42, 40
1, 8054520, Note_off_c, 1, 42, 0
1, 8054640, Note_on_c, 1, 37, 40
1, 8054880, Note_off_c, 1, 37, 0
1, 8054880, Note_on_c, 1, 37, 40
1, 8055000, Note_off_c, 1, 37, 0
1, 8055360, Note_on_c, 1, 37, 40
1, 8055480, Note_off_c, 1, 37, 0
1, 8055600, Note_on_c, 1, 39, 40
1, 8055720, Note_off_c, 1, 39, 0
1, 8055840, Note_on_c, 1, 39, 40
1, 8055960, Note_off_c, 1, 39, 0
1, 8056320, Note_on_c, 1, 39, 40
1, 8056440, Note_off_c, 1, 39, 0
1, 8056560, Note_on_c, 1, 34, 40
1, 8056680, Note_off_c, 1, 34, 0
1, 8056800, Note_on_c, 1, 34, 40
1, 8056920, Note_off_c, 1, 34, 0
1, 8057280, Note_on_c, 1, 34, 40
1, 8057400, Note_off_c, 1, 34, 0
1, 8057520, Note_on_c, 1, 39, 40
1, 8057640, Note_off_c, 1, 39, 0
1, 8057760, Note_on_c, 1, 39, 40
1, 8057880, Note_off_c, 1, 39, 0
1, 8058240, Note_on_c, 1, 39, 40
1, 8058360, Note_off_c, 1, 39, 0
1, 8058480, Note_on_c, 1, 34, 40
1, 8058600, Note_off_c, 1, 34, 0
1, 8058720, Note_on_c, 1, 34, 40
1, 8058840, Note_off_c, 1, 34, 0
1, 8059200, Note_on_c, 1, 34, 40
1, 8059320, Note_off_c, 1, 34, 0
1, 8059440, Note_on_c, 1, 35, 40
1, 8059560, Note_off_c, 1, 35, 0
1, 8059680, Note_on_c, 1, 35, 40
1, 8059800, Note_off_c, 1, 35, 0
1, 8060160, Note_on_c, 1, 35, 40
1, 8060280, Note_off_c, 1, 35, 0
1, 8060400, Note_on_c, 1, 30, 40
1, 8060520, Note_off_c, 1, 30, 0
1, 8060640, Note_on_c, 1, 30, 40
1, 8060760, Note_off_c, 1, 30, 0
1, 8061120, Note_on_c, 1, 30, 40
1, 8061240, Note_off_c, 1, 30, 0
1, 8061360, Note_on_c, 1, 35, 40
1, 8061480, Note_off_c, 1, 35, 0
1, 8061600, Note_on_c, 1, 35, 40
1, 8061720, Note_off_c, 1, 35, 0
1, 8062080, Note_on_c, 1, 35, 40
1, 8062200, Note_off_c, 1, 35, 0
1, 8062320, Note_on_c, 1, 30, 40
1, 8062440, Note_off_c, 1, 30, 0
1, 8062560, Note_on_c, 1, 30, 40
1, 8062680, Note_off_c, 1, 30, 0
1, 8062800, Note_on_c, 1, 35, 40
1, 8062920, Note_off_c, 1, 35, 0
1, 8063040, Note_on_c, 1, 36, 40
1, 8063280, Note_off_c, 1, 36, 0
1, 8063280, Note_on_c, 1, 37, 40
1, 8063520, Note_off_c, 1, 37, 0
1, 8063520, Note_on_c, 1, 37, 40
1, 8063640, Note_off_c, 1, 37, 0
1, 8064000, Note_on_c, 1, 37, 40
1, 8064120, Note_off_c, 1, 37, 0
1, 8064240, Note_on_c, 1, 32, 40
1, 8064360, Note_off_c, 1, 32, 0
1, 8064480, Note_on_c, 1, 32, 40
1, 8064720, Note_off_c, 1, 32, 0
1, 8064960, Note_on_c, 1, 32, 40
1, 8065080, Note_off_c, 1, 32, 0
1, 8065200, Note_on_c, 1, 37, 40
1, 8065320, Note_off_c, 1, 37, 0
1, 8065440, Note_on_c, 1, 37, 40
1, 8065680, Note_off_c, 1, 37, 0
1, 8065920, Note_on_c, 1, 37, 40
1, 8066040, Note_off_c, 1, 37, 0
1, 8066160, Note_on_c, 1, 37, 40
1, 8066280, Note_off_c, 1, 37, 0
1, 8066400, Note_on_c, 1, 37, 40
1, 8066520, Note_off_c, 1, 37, 0
1, 8066640, Note_on_c, 1, 39, 40
1, 8066760, Note_off_c, 1, 39, 0
1, 8066880, Note_on_c, 1, 41, 40
1, 8067120, Note_off_c, 1, 41, 0
1, 8067120, Note_on_c, 1, 42, 40
1, 8067240, Note_off_c, 1, 42, 0
1, 8067360, Note_on_c, 1, 42, 40
1, 8067480, Note_off_c, 1, 42, 0
1, 8067840, Note_on_c, 1, 42, 40
1, 8067960, Note_off_c, 1, 42, 0
1, 8068080, Note_on_c, 1, 37, 40
1, 8068200, Note_off_c, 1, 37, 0
1, 8068320, Note_on_c, 1, 37, 40
1, 8068440, Note_off_c, 1, 37, 0
1, 8068800, Note_on_c, 1, 37, 40
1, 8068920, Note_off_c, 1, 37, 0
1, 8069040, Note_on_c, 1, 42, 40
1, 8069160, Note_off_c, 1, 42, 0
1, 8069280, Note_on_c, 1, 42, 40
1, 8069400, Note_off_c, 1, 42, 0
1, 8069760, Note_on_c, 1, 42, 40
1, 8069880, Note_off_c, 1, 42, 0
1, 8070000, Note_on_c, 1, 37, 40
1, 8070240, Note_off_c, 1, 37, 0
1, 8070240, Note_on_c, 1, 37, 40
1, 8070360, Note_off_c, 1, 37, 0
1, 8070720, Note_on_c, 1, 37, 40
1, 8070840, Note_off_c, 1, 37, 0
1, 8070960, Note_on_c, 1, 39, 40
1, 8071200, Note_off_c, 1, 39, 0
1, 8071200, Note_on_c, 1, 39, 40
1, 8071320, Note_off_c, 1, 39, 0
1, 8071680, Note_on_c, 1, 39, 40
1, 8071800, Note_off_c, 1, 39, 0
1, 8071920, Note_on_c, 1, 34, 40
1, 8072040, Note_off_c, 1, 34, 0
1, 8072160, Note_on_c, 1, 34, 40
1, 8072280, Note_off_c, 1, 34, 0
1, 8072640, Note_on_c, 1, 34, 40
1, 8072760, Note_off_c, 1, 34, 0
1, 8072880, Note_on_c, 1, 39, 40
1, 8073000, Note_off_c, 1, 39, 0
1, 8073120, Note_on_c, 1, 39, 40
1, 8073240, Note_off_c, 1, 39, 0
1, 8073600, Note_on_c, 1, 39, 40
1, 8073720, Note_off_c, 1, 39, 0
1, 8073840, Note_on_c, 1, 34, 40
1, 8073960, Note_off_c, 1, 34, 0
1, 8074080, Note_on_c, 1, 34, 40
1, 8074200, Note_off_c, 1, 34, 0
1, 8074560, Note_on_c, 1, 34, 40
1, 8074680, Note_off_c, 1, 34, 0
1, 8074800, Note_on_c, 1, 35, 40
1, 8074920, Note_off_c, 1, 35, 0
1, 8075040, Note_on_c, 1, 35, 40
1, 8075160, Note_off_c, 1, 35, 0
1, 8075520, Note_on_c, 1, 35, 40
1, 8075640, Note_off_c, 1, 35, 0
1, 8075760, Note_on_c, 1, 30, 40
1, 8075880, Note_off_c, 1, 30, 0
1, 8076000, Note_on_c, 1, 30, 40
1, 8076120, Note_off_c, 1, 30, 0
1, 8076480, Note_on_c, 1, 30, 40
1, 8076600, Note_off_c, 1, 30, 0
1, 8076720, Note_on_c, 1, 35, 40
1, 8076840, Note_off_c, 1, 35, 0
1, 8076960, Note_on_c, 1, 35, 40
1, 8077080, Note_off_c, 1, 35, 0
1, 8077440, Note_on_c, 1, 35, 40
1, 8077560, Note_off_c, 1, 35, 0
1, 8077680, Note_on_c, 1, 30, 40
1, 8077800, Note_off_c, 1, 30, 0
1, 8077920, Note_on_c, 1, 30, 40
1, 8078040, Note_off_c, 1, 30, 0
1, 8078160, Note_on_c, 1, 35, 40
1, 8078280, Note_off_c, 1, 35, 0
1, 8078400, Note_on_c, 1, 36, 40
1, 8078640, Note_off_c, 1, 36, 0
1, 8078640, Note_on_c, 1, 37, 40
1, 8078880, Note_off_c, 1, 37, 0
1, 8078880, Note_on_c, 1, 37, 40
1, 8079000, Note_off_c, 1, 37, 0
1, 8079360, Note_on_c, 1, 37, 40
1, 8079480, Note_off_c, 1, 37, 0
1, 8079600, Note_on_c, 1, 32, 40
1, 8079720, Note_off_c, 1, 32, 0
1, 8079840, Note_on_c, 1, 32, 40
1, 8080080, Note_off_c, 1, 32, 0
1, 8080320, Note_on_c, 1, 32, 40
1, 8080440, Note_off_c, 1, 32, 0
1, 8080560, Note_on_c, 1, 37, 40
1, 8080680, Note_off_c, 1, 37, 0
1, 8080800, Note_on_c, 1, 37, 40
1, 8081040, Note_off_c, 1, 37, 0
1, 8081280, Note_on_c, 1, 37, 40
1, 8081400, Note_off_c, 1, 37, 0
1, 8081520, Note_on_c, 1, 37, 40
1, 8081640, Note_off_c, 1, 37, 0
1, 8081760, Note_on_c, 1, 37, 40
1, 8081880, Note_off_c, 1, 37, 0
1, 8082000, Note_on_c, 1, 39, 40
1, 8082120, Note_off_c, 1, 39, 0
1, 8082240, Note_on_c, 1, 41, 40
1, 8082480, Note_off_c, 1, 41, 0
1, 8082480, Note_on_c, 1, 42, 40
1, 8082600, Note_off_c, 1, 42, 0
1, 8082720, Note_on_c, 1, 42, 40
1, 8082840, Note_off_c, 1, 42, 0
1, 8083200, Note_on_c, 1, 42, 40
1, 8083320, Note_off_c, 1, 42, 0
1, 8083440, Note_on_c, 1, 37, 40
1, 8083560, Note_off_c, 1, 37, 0
1, 8083680, Note_on_c, 1, 37, 40
1, 8083800, Note_off_c, 1, 37, 0
1, 8084160, Note_on_c, 1, 37, 40
1, 8084280, Note_off_c, 1, 37, 0
1, 8084400, Note_on_c, 1, 42, 40
1, 8084520, Note_off_c, 1, 42, 0
1, 8084640, Note_on_c, 1, 42, 40
1, 8084760, Note_off_c, 1, 42, 0
1, 8085120, Note_on_c, 1, 42, 40
1, 8085240, Note_off_c, 1, 42, 0
1, 8085360, Note_on_c, 1, 37, 40
1, 8085600, Note_off_c, 1, 37, 0
1, 8085600, Note_on_c, 1, 37, 40
1, 8085720, Note_off_c, 1, 37, 0
1, 8086080, Note_on_c, 1, 37, 40
1, 8086200, Note_off_c, 1, 37, 0
1, 8086320, Note_on_c, 1, 39, 40
1, 8086440, Note_off_c, 1, 39, 0
1, 8086560, Note_on_c, 1, 39, 40
1, 8086680, Note_off_c, 1, 39, 0
1, 8087040, Note_on_c, 1, 39, 40
1, 8087160, Note_off_c, 1, 39, 0
1, 8087280, Note_on_c, 1, 34, 40
1, 8087400, Note_off_c, 1, 34, 0
1, 8087520, Note_on_c, 1, 34, 40
1, 8087640, Note_off_c, 1, 34, 0
1, 8088000, Note_on_c, 1, 34, 40
1, 8088120, Note_off_c, 1, 34, 0
1, 8088240, Note_on_c, 1, 39, 40
1, 8088360, Note_off_c, 1, 39, 0
1, 8088480, Note_on_c, 1, 39, 40
1, 8088600, Note_off_c, 1, 39, 0
1, 8088960, Note_on_c, 1, 39, 40
1, 8089080, Note_off_c, 1, 39, 0
1, 8089200, Note_on_c, 1, 34, 40
1, 8089320, Note_off_c, 1, 34, 0
1, 8089440, Note_on_c, 1, 34, 40
1, 8089560, Note_off_c, 1, 34, 0
1, 8089920, Note_on_c, 1, 34, 40
1, 8090040, Note_off_c, 1, 34, 0
1, 8090160, Note_on_c, 1, 35, 40
1, 8090280, Note_off_c, 1, 35, 0
1, 8090400, Note_on_c, 1, 35, 40
1, 8090520, Note_off_c, 1, 35, 0
1, 8090880, Note_on_c, 1, 35, 40
1, 8091000, Note_off_c, 1, 35, 0
1, 8091120, Note_on_c, 1, 30, 40
1, 8091240, Note_off_c, 1, 30, 0
1, 8091360, Note_on_c, 1, 30, 40
1, 8091480, Note_off_c, 1, 30, 0
1, 8091840, Note_on_c, 1, 30, 40
1, 8091960, Note_off_c, 1, 30, 0
1, 8092080, Note_on_c, 1, 35, 40
1, 8092200, Note_off_c, 1, 35, 0
1, 8092320, Note_on_c, 1, 35, 40
1, 8092440, Note_off_c, 1, 35, 0
1, 8092800, Note_on_c, 1, 35, 40
1, 8092920, Note_off_c, 1, 35, 0
1, 8093040, Note_on_c, 1, 30, 40
1, 8093160, Note_off_c, 1, 30, 0
1, 8093280, Note_on_c, 1, 30, 40
1, 8093400, Note_off_c, 1, 30, 0
1, 8093520, Note_on_c, 1, 35, 40
1, 8093640, Note_off_c, 1, 35, 0
1, 8093760, Note_on_c, 1, 36, 40
1, 8094000, Note_off_c, 1, 36, 0
1, 8094000, Note_on_c, 1, 37, 40
1, 8094240, Note_off_c, 1, 37, 0
1, 8094240, Note_on_c, 1, 37, 40
1, 8094360, Note_off_c, 1, 37, 0
1, 8094720, Note_on_c, 1, 37, 40
1, 8094840, Note_off_c, 1, 37, 0
1, 8094960, Note_on_c, 1, 32, 40
1, 8095080, Note_off_c, 1, 32, 0
1, 8095200, Note_on_c, 1, 32, 40
1, 8095440, Note_off_c, 1, 32, 0
1, 8095680, Note_on_c, 1, 32, 40
1, 8095800, Note_off_c, 1, 32, 0
1, 8095920, Note_on_c, 1, 37, 40
1, 8096040, Note_off_c, 1, 37, 0
1, 8096160, Note_on_c, 1, 37, 40
1, 8096400, Note_off_c, 1, 37, 0
1, 8096640, Note_on_c, 1, 37, 40
1, 8096760, Note_off_c, 1, 37, 0
1, 8096880, Note_on_c, 1, 37, 40
1, 8097000, Note_off_c, 1, 37, 0
1, 8097120, Note_on_c, 1, 37, 40
1, 8097240, Note_off_c, 1, 37, 0
1, 8097360, Note_on_c, 1, 39, 40
1, 8097480, Note_off_c, 1, 39, 0
1, 8097600, Note_on_c, 1, 41, 40
1, 8097840, Note_off_c, 1, 41, 0
1, 8097840, Note_on_c, 1, 42, 40
1, 8097960, Note_off_c, 1, 42, 0
1, 8098080, Note_on_c, 1, 42, 40
1, 8098200, Note_off_c, 1, 42, 0
1, 8098560, Note_on_c, 1, 42, 40
1, 8098680, Note_off_c, 1, 42, 0
1, 8098800, Note_on_c, 1, 37, 40
1, 8098920, Note_off_c, 1, 37, 0
1, 8099040, Note_on_c, 1, 37, 40
1, 8099160, Note_off_c, 1, 37, 0
1, 8099520, Note_on_c, 1, 37, 40
1, 8099640, Note_off_c, 1, 37, 0
1, 8099760, Note_on_c, 1, 42, 40
1, 8099880, Note_off_c, 1, 42, 0
1, 8100000, Note_on_c, 1, 42, 40
1, 8100120, Note_off_c, 1, 42, 0
1, 8100480, Note_on_c, 1, 42, 40
1, 8100600, Note_off_c, 1, 42, 0
1, 8100720, Note_on_c, 1, 37, 40
1, 8100960, Note_off_c, 1, 37, 0
1, 8100960, Note_on_c, 1, 37, 40
1, 8101080, Note_off_c, 1, 37, 0
1, 8101440, Note_on_c, 1, 37, 40
1, 8101560, Note_off_c, 1, 37, 0
1, 8101680, Note_on_c, 1, 39, 40
1, 8101800, Note_off_c, 1, 39, 0
1, 8101920, Note_on_c, 1, 39, 40
1, 8102040, Note_off_c, 1, 39, 0
1, 8102400, Note_on_c, 1, 39, 40
1, 8102520, Note_off_c, 1, 39, 0
1, 8102640, Note_on_c, 1, 34, 40
1, 8102760, Note_off_c, 1, 34, 0
1, 8102880, Note_on_c, 1, 34, 40
1, 8103000, Note_off_c, 1, 34, 0
1, 8103360, Note_on_c, 1, 34, 40
1, 8103480, Note_off_c, 1, 34, 0
1, 8103600, Note_on_c, 1, 39, 40
1, 8103720, Note_off_c, 1, 39, 0
1, 8103840, Note_on_c, 1, 39, 40
1, 8103960, Note_off_c, 1, 39, 0
1, 8104320, Note_on_c, 1, 39, 40
1, 8104440, Note_off_c, 1, 39, 0
1, 8104560, Note_on_c, 1, 34, 40
1, 8104680, Note_off_c, 1, 34, 0
1, 8104800, Note_on_c, 1, 34, 40
1, 8104920, Note_off_c, 1, 34, 0
1, 8105280, Note_on_c, 1, 34, 40
1, 8105400, Note_off_c, 1, 34, 0
1, 8105520, Note_on_c, 1, 35, 40
1, 8105640, Note_off_c, 1, 35, 0
1, 8105760, Note_on_c, 1, 35, 40
1, 8105880, Note_off_c, 1, 35, 0
1, 8106240, Note_on_c, 1, 35, 40
1, 8106360, Note_off_c, 1, 35, 0
1, 8106480, Note_on_c, 1, 30, 40
1, 8106600, Note_off_c, 1, 30, 0
1, 8106720, Note_on_c, 1, 30, 40
1, 8106840, Note_off_c, 1, 30, 0
1, 8107200, Note_on_c, 1, 30, 40
1, 8107320, Note_off_c, 1, 30, 0
1, 8107440, Note_on_c, 1, 35, 40
1, 8107560, Note_off_c, 1, 35, 0
1, 8107680, Note_on_c, 1, 35, 40
1, 8107800, Note_off_c, 1, 35, 0
1, 8108160, Note_on_c, 1, 35, 40
1, 8108280, Note_off_c, 1, 35, 0
1, 8108400, Note_on_c, 1, 30, 40
1, 8108520, Note_off_c, 1, 30, 0
1, 8108640, Note_on_c, 1, 30, 40
1, 8108760, Note_off_c, 1, 30, 0
1, 8108880, Note_on_c, 1, 35, 40
1, 8109000, Note_off_c, 1, 35, 0
1, 8109120, Note_on_c, 1, 36, 40
1, 8109360, Note_off_c, 1, 36, 0
1, 8109360, Note_on_c, 1, 37, 40
1, 8109600, Note_off_c, 1, 37, 0
1, 8109600, Note_on_c, 1, 37, 40
1, 8109720, Note_off_c, 1, 37, 0
1, 8110080, Note_on_c, 1, 37, 40
1, 8110200, Note_off_c, 1, 37, 0
1, 8110320, Note_on_c, 1, 32, 40
1, 8110440, Note_off_c, 1, 32, 0
1, 8110560, Note_on_c, 1, 32, 40
1, 8110800, Note_off_c, 1, 32, 0
1, 8111040, Note_on_c, 1, 32, 40
1, 8111160, Note_off_c, 1, 32, 0
1, 8111280, Note_on_c, 1, 37, 40
1, 8111400, Note_off_c, 1, 37, 0
1, 8111520, Note_on_c, 1, 37, 40
1, 8111760, Note_off_c, 1, 37, 0
1, 8112000, Note_on_c, 1, 37, 40
1, 8112120, Note_off_c, 1, 37, 0
1, 8112240, Note_on_c, 1, 37, 40
1, 8112360, Note_off_c, 1, 37, 0
1, 8112480, Note_on_c, 1, 37, 40
1, 8112600, Note_off_c, 1, 37, 0
1, 8112720, Note_on_c, 1, 39, 40
1, 8112840, Note_off_c, 1, 39, 0
1, 8112960, Note_on_c, 1, 41, 40
1, 8113200, Note_off_c, 1, 41, 0
1, 8113200, Note_on_c, 1, 42, 40
1, 8113320, Note_off_c, 1, 42, 0
1, 8113440, Note_on_c, 1, 42, 40
1, 8113560, Note_off_c, 1, 42, 0
1, 8113920, Note_on_c, 1, 42, 40
1, 8114040, Note_off_c, 1, 42, 0
1, 8114160, Note_on_c, 1, 37, 40
1, 8114280, Note_off_c, 1, 37, 0
1, 8114400, Note_on_c, 1, 37, 40
1, 8114520, Note_off_c, 1, 37, 0
1, 8114880, Note_on_c, 1, 37, 40
1, 8115000, Note_off_c, 1, 37, 0
1, 8115120, Note_on_c, 1, 42, 40
1, 8115240, Note_off_c, 1, 42, 0
1, 8115360, Note_on_c, 1, 42, 40
1, 8115480, Note_off_c, 1, 42, 0
1, 8115840, Note_on_c, 1, 42, 40
1, 8115960, Note_off_c, 1, 42, 0
1, 8116080, Note_on_c, 1, 37, 40
1, 8116320, Note_off_c, 1, 37, 0
1, 8116320, Note_on_c, 1, 37, 40
1, 8116440, Note_off_c, 1, 37, 0
1, 8116800, Note_on_c, 1, 37, 40
1, 8116920, Note_off_c, 1, 37, 0
1, 8117040, Note_on_c, 1, 39, 40
1, 8117160, Note_off_c, 1, 39, 0
1, 8117280, Note_on_c, 1, 39, 40
1, 8117400, Note_off_c, 1, 39, 0
1, 8117760, Note_on_c, 1, 39, 40
1, 8117880, Note_off_c, 1, 39, 0
1, 8118000, Note_on_c, 1, 34, 40
1, 8118120, Note_off_c, 1, 34, 0
1, 8118240, Note_on_c, 1, 34, 40
1, 8118360, Note_off_c, 1, 34, 0
1, 8118720, Note_on_c, 1, 34, 40
1, 8118840, Note_off_c, 1, 34, 0
1, 8118960, Note_on_c, 1, 39, 40
1, 8119080, Note_off_c, 1, 39, 0
1, 8119200, Note_on_c, 1, 39, 40
1, 8119320, Note_off_c, 1, 39, 0
1, 8119680, Note_on_c, 1, 39, 40
1, 8119800, Note_off_c, 1, 39, 0
1, 8119920, Note_on_c, 1, 34, 40
1, 8120040, Note_off_c, 1, 34, 0
1, 8120160, Note_on_c, 1, 34, 40
1, 8120280, Note_off_c, 1, 34, 0
1, 8120640, Note_on_c, 1, 34, 40
1, 8120760, Note_off_c, 1, 34, 0
1, 8120880, Note_on_c, 1, 35, 40
1, 8121000, Note_off_c, 1, 35, 0
1, 8121120, Note_on_c, 1, 35, 40
1, 8121240, Note_off_c, 1, 35, 0
1, 8121600, Note_on_c, 1, 35, 40
1, 8121720, Note_off_c, 1, 35, 0
1, 8121840, Note_on_c, 1, 30, 40
1, 8121960, Note_off_c, 1, 30, 0
1, 8122080, Note_on_c, 1, 30, 40
1, 8122200, Note_off_c, 1, 30, 0
1, 8122560, Note_on_c, 1, 30, 40
1, 8122680, Note_off_c, 1, 30, 0
1, 8122800, Note_on_c, 1, 35, 40
1, 8122920, Note_off_c, 1, 35, 0
1, 8123040, Note_on_c, 1, 35, 40
1, 8123160, Note_off_c, 1, 35, 0
1, 8123520, Note_on_c, 1, 35, 40
1, 8123640, Note_off_c, 1, 35, 0
1, 8123760, Note_on_c, 1, 30, 40
1, 8123880, Note_off_c, 1, 30, 0
1, 8124000, Note_on_c, 1, 30, 40
1, 8124120, Note_off_c, 1, 30, 0
1, 8124240, Note_on_c, 1, 35, 40
1, 8124360, Note_off_c, 1, 35, 0
1, 8124480, Note_on_c, 1, 36, 40
1, 8124720, Note_off_c, 1, 36, 0
1, 8124720, Note_on_c, 1, 37, 40
1, 8124960, Note_off_c, 1, 37, 0
1, 8128560, Note_on_c, 1, 42, 40
1, 8128680, Note_off_c, 1, 42, 0
1, 8128800, Note_on_c, 1, 42, 40
1, 8128920, Note_off_c, 1, 42, 0
1, 8129280, Note_on_c, 1, 42, 40
1, 8129400, Note_off_c, 1, 42, 0
1, 8129520, Note_on_c, 1, 37, 40
1, 8129640, Note_off_c, 1, 37, 0
1, 8129760, Note_on_c, 1, 37, 40
1, 8129880, Note_off_c, 1, 37, 0
1, 8130240, Note_on_c, 1, 37, 40
1, 8130360, Note_off_c, 1, 37, 0
1, 8130480, Note_on_c, 1, 42, 40
1, 8130600, Note_off_c, 1, 42, 0
1, 8130720, Note_on_c, 1, 42, 40
1, 8130840, Note_off_c, 1, 42, 0
1, 8131200, Note_on_c, 1, 42, 40
1, 8131320, Note_off_c, 1, 42, 0
1, 8131440, Note_on_c, 1, 37, 40
1, 8131680, Note_off_c, 1, 37, 0
1, 8131680, Note_on_c, 1, 37, 40
1, 8131800, Note_off_c, 1, 37, 0
1, 8132160, Note_on_c, 1, 37, 40
1, 8132280, Note_off_c, 1, 37, 0
1, 8132400, Note_on_c, 1, 39, 40
1, 8132640, Note_off_c, 1, 39, 0
1, 8132640, Note_on_c, 1, 39, 40
1, 8132760, Note_off_c, 1, 39, 0
1, 8133120, Note_on_c, 1, 39, 40
1, 8133240, Note_off_c, 1, 39, 0
1, 8133360, Note_on_c, 1, 34, 40
1, 8133480, Note_off_c, 1, 34, 0
1, 8133600, Note_on_c, 1, 34, 40
1, 8133720, Note_off_c, 1, 34, 0
1, 8134080, Note_on_c, 1, 34, 40
1, 8134200, Note_off_c, 1, 34, 0
1, 8134320, Note_on_c, 1, 39, 40
1, 8134440, Note_off_c, 1, 39, 0
1, 8134560, Note_on_c, 1, 39, 40
1, 8134680, Note_off_c, 1, 39, 0
1, 8135040, Note_on_c, 1, 39, 40
1, 8135160, Note_off_c, 1, 39, 0
1, 8135280, Note_on_c, 1, 34, 40
1, 8135400, Note_off_c, 1, 34, 0
1, 8135520, Note_on_c, 1, 34, 40
1, 8135640, Note_off_c, 1, 34, 0
1, 8136000, Note_on_c, 1, 34, 40
1, 8136120, Note_off_c, 1, 34, 0
1, 8136240, Note_on_c, 1, 35, 40
1, 8136360, Note_off_c, 1, 35, 0
1, 8136480, Note_on_c, 1, 35, 40
1, 8136600, Note_off_c, 1, 35, 0
1, 8136960, Note_on_c, 1, 35, 40
1, 8137080, Note_off_c, 1, 35, 0
1, 8137200, Note_on_c, 1, 30, 40
1, 8137320, Note_off_c, 1, 30, 0
1, 8137440, Note_on_c, 1, 30, 40
1, 8137560, Note_off_c, 1, 30, 0
1, 8137920, Note_on_c, 1, 30, 40
1, 8138040, Note_off_c, 1, 30, 0
1, 8138160, Note_on_c, 1, 35, 40
1, 8138280, Note_off_c, 1, 35, 0
1, 8138400, Note_on_c, 1, 35, 40
1, 8138520, Note_off_c, 1, 35, 0
1, 8138880, Note_on_c, 1, 35, 40
1, 8139000, Note_off_c, 1, 35, 0
1, 8139120, Note_on_c, 1, 30, 40
1, 8139240, Note_off_c, 1, 30, 0
1, 8139360, Note_on_c, 1, 30, 40
1, 8139480, Note_off_c, 1, 30, 0
1, 8139600, Note_on_c, 1, 35, 40
1, 8139720, Note_off_c, 1, 35, 0
1, 8139840, Note_on_c, 1, 36, 40
1, 8140080, Note_off_c, 1, 36, 0
1, 8140080, Note_on_c, 1, 37, 40
1, 8140320, Note_off_c, 1, 37, 0
1, 8143920, Note_on_c, 1, 42, 40
1, 8144040, Note_off_c, 1, 42, 0
1, 8144160, Note_on_c, 1, 42, 40
1, 8144280, Note_off_c, 1, 42, 0
1, 8144640, Note_on_c, 1, 42, 40
1, 8144760, Note_off_c, 1, 42, 0
1, 8144880, Note_on_c, 1, 37, 40
1, 8145000, Note_off_c, 1, 37, 0
1, 8145120, Note_on_c, 1, 37, 40
1, 8145240, Note_off_c, 1, 37, 0
1, 8145600, Note_on_c, 1, 37, 40
1, 8145720, Note_off_c, 1, 37, 0
1, 8145840, Note_on_c, 1, 42, 40
1, 8145960, Note_off_c, 1, 42, 0
1, 8146080, Note_on_c, 1, 42, 40
1, 8146200, Note_off_c, 1, 42, 0
1, 8146560, Note_on_c, 1, 42, 40
1, 8146680, Note_off_c, 1, 42, 0
1, 8146800, Note_on_c, 1, 37, 40
1, 8147040, Note_off_c, 1, 37, 0
1, 8147040, Note_on_c, 1, 37, 40
1, 8147160, Note_off_c, 1, 37, 0
1, 8147520, Note_on_c, 1, 37, 40
1, 8147640, Note_off_c, 1, 37, 0
1, 8147760, Note_on_c, 1, 39, 40
1, 8148000, Note_off_c, 1, 39, 0
1, 8148000, Note_on_c, 1, 39, 40
1, 8148120, Note_off_c, 1, 39, 0
1, 8148480, Note_on_c, 1, 39, 40
1, 8148600, Note_off_c, 1, 39, 0
1, 8148720, Note_on_c, 1, 34, 40
1, 8148840, Note_off_c, 1, 34, 0
1, 8148960, Note_on_c, 1, 34, 40
1, 8149080, Note_off_c, 1, 34, 0
1, 8149440, Note_on_c, 1, 34, 40
1, 8149560, Note_off_c, 1, 34, 0
1, 8149680, Note_on_c, 1, 39, 40
1, 8149800, Note_off_c, 1, 39, 0
1, 8149920, Note_on_c, 1, 39, 40
1, 8150040, Note_off_c, 1, 39, 0
1, 8150400, Note_on_c, 1, 39, 40
1, 8150520, Note_off_c, 1, 39, 0
1, 8150640, Note_on_c, 1, 34, 40
1, 8150760, Note_off_c, 1, 34, 0
1, 8150880, Note_on_c, 1, 34, 40
1, 8151000, Note_off_c, 1, 34, 0
1, 8151360, Note_on_c, 1, 34, 40
1, 8151480, Note_off_c, 1, 34, 0
1, 8151600, Note_on_c, 1, 35, 40
1, 8151840, Note_off_c, 1, 35, 0
1, 8151840, Note_on_c, 1, 35, 40
1, 8151960, Note_off_c, 1, 35, 0
1, 8152320, Note_on_c, 1, 35, 40
1, 8152440, Note_off_c, 1, 35, 0
1, 8152560, Note_on_c, 1, 30, 40
1, 8152680, Note_off_c, 1, 30, 0
1, 8152800, Note_on_c, 1, 30, 40
1, 8152920, Note_off_c, 1, 30, 0
1, 8153280, Note_on_c, 1, 30, 40
1, 8153400, Note_off_c, 1, 30, 0
1, 8153520, Note_on_c, 1, 35, 40
1, 8153640, Note_off_c, 1, 35, 0
1, 8153760, Note_on_c, 1, 35, 40
1, 8153880, Note_off_c, 1, 35, 0
1, 8154240, Note_on_c, 1, 35, 40
1, 8154360, Note_off_c, 1, 35, 0
1, 8154480, Note_on_c, 1, 30, 40
1, 8154600, Note_off_c, 1, 30, 0
1, 8154720, Note_on_c, 1, 30, 40
1, 8154840, Note_off_c, 1, 30, 0
1, 8154960, Note_on_c, 1, 35, 40
1, 8155080, Note_off_c, 1, 35, 0
1, 8155200, Note_on_c, 1, 36, 40
1, 8155440, Note_off_c, 1, 36, 0
1, 8155440, Note_on_c, 1, 37, 40
1, 8155680, Note_off_c, 1, 37, 0
1, 8155680, Note_on_c, 1, 37, 40
1, 8155800, Note_off_c, 1, 37, 0
1, 8156160, Note_on_c, 1, 37, 40
1, 8156280, Note_off_c, 1, 37, 0
1, 8156400, Note_on_c, 1, 37, 40
1, 8156520, Note_off_c, 1, 37, 0
1, 8156640, Note_on_c, 1, 37, 40
1, 8156760, Note_off_c, 1, 37, 0
1, 8157120, Note_on_c, 1, 37, 40
1, 8157240, Note_off_c, 1, 37, 0
1, 8157360, Note_on_c, 1, 37, 40
1, 8157480, Note_off_c, 1, 37, 0
1, 8157600, Note_on_c, 1, 37, 40
1, 8157840, Note_off_c, 1, 37, 0
1, 8158080, Note_on_c, 1, 37, 40
1, 8158200, Note_off_c, 1, 37, 0
1, 8158320, Note_on_c, 1, 37, 40
1, 8158440, Note_off_c, 1, 37, 0
1, 8158560, Note_on_c, 1, 37, 40
1, 8158680, Note_off_c, 1, 37, 0
1, 8158800, Note_on_c, 1, 39, 40
1, 8158920, Note_off_c, 1, 39, 0
1, 8159040, Note_on_c, 1, 41, 40
1, 8159280, Note_off_c, 1, 41, 0
1, 8159280, Note_on_c, 1, 42, 40
1, 8159400, Note_off_c, 1, 42, 0
1, 8159520, Note_on_c, 1, 42, 40
1, 8159640, Note_off_c, 1, 42, 0
1, 8160000, Note_on_c, 1, 42, 40
1, 8160120, Note_off_c, 1, 42, 0
1, 8160240, Note_on_c, 1, 37, 40
1, 8160360, Note_off_c, 1, 37, 0
1, 8160480, Note_on_c, 1, 37, 40
1, 8160600, Note_off_c, 1, 37, 0
1, 8160960, Note_on_c, 1, 37, 40
1, 8161080, Note_off_c, 1, 37, 0
1, 8161200, Note_on_c, 1, 42, 40
1, 8161320, Note_off_c, 1, 42, 0
1, 8161440, Note_on_c, 1, 42, 40
1, 8161560, Note_off_c, 1, 42, 0
1, 8161920, Note_on_c, 1, 42, 40
1, 8162040, Note_off_c, 1, 42, 0
1, 8162160, Note_on_c, 1, 37, 40
1, 8162400, Note_off_c, 1, 37, 0
1, 8162400, Note_on_c, 1, 37, 40
1, 8162520, Note_off_c, 1, 37, 0
1, 8162880, Note_on_c, 1, 37, 40
1, 8163000, Note_off_c, 1, 37, 0
1, 8163120, Note_on_c, 1, 39, 40
1, 8163360, Note_off_c, 1, 39, 0
1, 8163360, Note_on_c, 1, 39, 40
1, 8163480, Note_off_c, 1, 39, 0
1, 8163840, Note_on_c, 1, 39, 40
1, 8163960, Note_off_c, 1, 39, 0
1, 8164080, Note_on_c, 1, 34, 40
1, 8164200, Note_off_c, 1, 34, 0
1, 8164320, Note_on_c, 1, 34, 40
1, 8164440, Note_off_c, 1, 34, 0
1, 8164800, Note_on_c, 1, 34, 40
1, 8164920, Note_off_c, 1, 34, 0
1, 8165040, Note_on_c, 1, 39, 40
1, 8165160, Note_off_c, 1, 39, 0
1, 8165280, Note_on_c, 1, 39, 40
1, 8165400, Note_off_c, 1, 39, 0
1, 8165760, Note_on_c, 1, 39, 40
1, 8165880, Note_off_c, 1, 39, 0
1, 8166000, Note_on_c, 1, 34, 40
1, 8166120, Note_off_c, 1, 34, 0
1, 8166240, Note_on_c, 1, 34, 40
1, 8166360, Note_off_c, 1, 34, 0
1, 8166720, Note_on_c, 1, 34, 40
1, 8166840, Note_off_c, 1, 34, 0
1, 8166960, Note_on_c, 1, 35, 40
1, 8167080, Note_off_c, 1, 35, 0
1, 8167200, Note_on_c, 1, 35, 40
1, 8167320, Note_off_c, 1, 35, 0
1, 8167680, Note_on_c, 1, 35, 40
1, 8167800, Note_off_c, 1, 35, 0
1, 8167920, Note_on_c, 1, 30, 40
1, 8168040, Note_off_c, 1, 30, 0
1, 8168160, Note_on_c, 1, 30, 40
1, 8168280, Note_off_c, 1, 30, 0
1, 8168640, Note_on_c, 1, 30, 40
1, 8168760, Note_off_c, 1, 30, 0
1, 8168880, Note_on_c, 1, 35, 40
1, 8169000, Note_off_c, 1, 35, 0
1, 8169120, Note_on_c, 1, 35, 40
1, 8169240, Note_off_c, 1, 35, 0
1, 8169600, Note_on_c, 1, 35, 40
1, 8169720, Note_off_c, 1, 35, 0
1, 8169840, Note_on_c, 1, 30, 40
1, 8169960, Note_off_c, 1, 30, 0
1, 8170080, Note_on_c, 1, 30, 40
1, 8170200, Note_off_c, 1, 30, 0
1, 8170320, Note_on_c, 1, 35, 40
1, 8170440, Note_off_c, 1, 35, 0
1, 8170560, Note_on_c, 1, 36, 40
1, 8170800, Note_off_c, 1, 36, 0
1, 8170800, Note_on_c, 1, 37, 40
1, 8171040, Note_off_c, 1, 37, 0
1, 8171040, Note_on_c, 1, 37, 40
1, 8171160, Note_off_c, 1, 37, 0
1, 8171520, Note_on_c, 1, 37, 40
1, 8171640, Note_off_c, 1, 37, 0
1, 8171760, Note_on_c, 1, 37, 40
1, 8171880, Note_off_c, 1, 37, 0
1, 8172000, Note_on_c, 1, 37, 40
1, 8172240, Note_off_c, 1, 37, 0
1, 8172480, Note_on_c, 1, 37, 40
1, 8172600, Note_off_c, 1, 37, 0
1, 8172720, Note_on_c, 1, 37, 40
1, 8172840, Note_off_c, 1, 37, 0
1, 8172960, Note_on_c, 1, 37, 40
1, 8173200, Note_off_c, 1, 37, 0
1, 8173440, Note_on_c, 1, 37, 40
1, 8173560, Note_off_c, 1, 37, 0
1, 8173680, Note_on_c, 1, 37, 40
1, 8173800, Note_off_c, 1, 37, 0
1, 8173920, Note_on_c, 1, 37, 40
1, 8174040, Note_off_c, 1, 37, 0
1, 8174160, Note_on_c, 1, 39, 40
1, 8174280, Note_off_c, 1, 39, 0
1, 8174400, Note_on_c, 1, 41, 40
1, 8174640, Note_off_c, 1, 41, 0
1, 8174640, Note_on_c, 1, 42, 40
1, 8174760, Note_off_c, 1, 42, 0
1, 8174880, Note_on_c, 1, 42, 40
1, 8175000, Note_off_c, 1, 42, 0
1, 8175360, Note_on_c, 1, 42, 40
1, 8175480, Note_off_c, 1, 42, 0
1, 8175600, Note_on_c, 1, 37, 40
1, 8175720, Note_off_c, 1, 37, 0
1, 8175840, Note_on_c, 1, 37, 40
1, 8175960, Note_off_c, 1, 37, 0
1, 8176320, Note_on_c, 1, 37, 40
1, 8176440, Note_off_c, 1, 37, 0
1, 8176560, Note_on_c, 1, 42, 40
1, 8176680, Note_off_c, 1, 42, 0
1, 8176800, Note_on_c, 1, 42, 40
1, 8176920, Note_off_c, 1, 42, 0
1, 8177280, Note_on_c, 1, 42, 40
1, 8177400, Note_off_c, 1, 42, 0
1, 8177520, Note_on_c, 1, 37, 40
1, 8177760, Note_off_c, 1, 37, 0
1, 8177760, Note_on_c, 1, 37, 40
1, 8177880, Note_off_c, 1, 37, 0
1, 8178240, Note_on_c, 1, 37, 40
1, 8178360, Note_off_c, 1, 37, 0
1, 8178480, Note_on_c, 1, 39, 40
1, 8178720, Note_off_c, 1, 39, 0
1, 8178720, Note_on_c, 1, 39, 40
1, 8178840, Note_off_c, 1, 39, 0
1, 8179200, Note_on_c, 1, 39, 40
1, 8179320, Note_off_c, 1, 39, 0
1, 8179440, Note_on_c, 1, 34, 40
1, 8179560, Note_off_c, 1, 34, 0
1, 8179680, Note_on_c, 1, 34, 40
1, 8179800, Note_off_c, 1, 34, 0
1, 8180160, Note_on_c, 1, 34, 40
1, 8180280, Note_off_c, 1, 34, 0
1, 8180400, Note_on_c, 1, 39, 40
1, 8180520, Note_off_c, 1, 39, 0
1, 8180640, Note_on_c, 1, 39, 40
1, 8180760, Note_off_c, 1, 39, 0
1, 8181120, Note_on_c, 1, 39, 40
1, 8181240, Note_off_c, 1, 39, 0
1, 8181360, Note_on_c, 1, 34, 40
1, 8181480, Note_off_c, 1, 34, 0
1, 8181600, Note_on_c, 1, 34, 40
1, 8181720, Note_off_c, 1, 34, 0
1, 8182080, Note_on_c, 1, 34, 40
1, 8182200, Note_off_c, 1, 34, 0
1, 8182320, Note_on_c, 1, 35, 40
1, 8182560, Note_off_c, 1, 35, 0
1, 8182560, Note_on_c, 1, 35, 40
1, 8182680, Note_off_c, 1, 35, 0
1, 8183040, Note_on_c, 1, 35, 40
1, 8183160, Note_off_c, 1, 35, 0
1, 8183280, Note_on_c, 1, 30, 40
1, 8183400, Note_off_c, 1, 30, 0
1, 8183520, Note_on_c, 1, 30, 40
1, 8183640, Note_off_c, 1, 30, 0
1, 8184000, Note_on_c, 1, 30, 40
1, 8184120, Note_off_c, 1, 30, 0
1, 8184240, Note_on_c, 1, 35, 40
1, 8184360, Note_off_c, 1, 35, 0
1, 8184480, Note_on_c, 1, 35, 40
1, 8184600, Note_off_c, 1, 35, 0
1, 8184960, Note_on_c, 1, 35, 40
1, 8185080, Note_off_c, 1, 35, 0
1, 8185200, Note_on_c, 1, 30, 40
1, 8185320, Note_off_c, 1, 30, 0
1, 8185440, Note_on_c, 1, 30, 40
1, 8185560, Note_off_c, 1, 30, 0
1, 8185680, Note_on_c, 1, 35, 40
1, 8185800, Note_off_c, 1, 35, 0
1, 8185920, Note_on_c, 1, 36, 40
1, 8186160, Note_off_c, 1, 36, 0
1, 8186160, Note_on_c, 1, 37, 40
1, 8186400, Note_off_c, 1, 37, 0
1, 8186400, Note_on_c, 1, 37, 40
1, 8186520, Note_off_c, 1, 37, 0
1, 8186880, Note_on_c, 1, 37, 40
1, 8187000, Note_off_c, 1, 37, 0
1, 8187120, Note_on_c, 1, 37, 40
1, 8187240, Note_off_c, 1, 37, 0
1, 8187360, Note_on_c, 1, 37, 40
1, 8187600, Note_off_c, 1, 37, 0
1, 8187840, Note_on_c, 1, 37, 40
1, 8187960, Note_off_c, 1, 37, 0
1, 8188080, Note_on_c, 1, 37, 40
1, 8188200, Note_off_c, 1, 37, 0
1, 8188320, Note_on_c, 1, 37, 40
1, 8188560, Note_off_c, 1, 37, 0
1, 8188800, Note_on_c, 1, 37, 40
1, 8188920, Note_off_c, 1, 37, 0
1, 8189040, Note_on_c, 1, 37, 40
1, 8189160, Note_off_c, 1, 37, 0
1, 8189280, Note_on_c, 1, 37, 40
1, 8189400, Note_off_c, 1, 37, 0
1, 8189520, Note_on_c, 1, 39, 40
1, 8189640, Note_off_c, 1, 39, 0
1, 8189760, Note_on_c, 1, 41, 40
1, 8189880, Note_off_c, 1, 41, 0
1, 8190000, Note_on_c, 1, 42, 40
1, 8190120, Note_off_c, 1, 42, 0
1, 8190240, Note_on_c, 1, 42, 40
1, 8190360, Note_off_c, 1, 42, 0
1, 8190720, Note_on_c, 1, 42, 40
1, 8190840, Note_off_c, 1, 42, 0
1, 8190960, Note_on_c, 1, 37, 40
1, 8191080, Note_off_c, 1, 37, 0
1, 8191200, Note_on_c, 1, 37, 40
1, 8191320, Note_off_c, 1, 37, 0
1, 8191680, Note_on_c, 1, 37, 40
1, 8191800, Note_off_c, 1, 37, 0
1, 8191920, Note_on_c, 1, 42, 40
1, 8192040, Note_off_c, 1, 42, 0
1, 8192160, Note_on_c, 1, 42, 40
1, 8192280, Note_off_c, 1, 42, 0
1, 8192640, Note_on_c, 1, 42, 40
1, 8192760, Note_off_c, 1, 42, 0
1, 8192880, Note_on_c, 1, 37, 40
1, 8193120, Note_off_c, 1, 37, 0
1, 8193120, Note_on_c, 1, 37, 40
1, 8193240, Note_off_c, 1, 37, 0
1, 8193600, Note_on_c, 1, 37, 40
1, 8193720, Note_off_c, 1, 37, 0
1, 8201040, Note_on_c, 1, 32, 40
1, 8201520, Note_off_c, 1, 32, 0
1, 8201520, Note_on_c, 1, 37, 40
1, 8202000, Note_off_c, 1, 37, 0
1, 8202000, Note_on_c, 1, 37, 40
1, 8202240, Note_off_c, 1, 37, 0
1, 8202240, Note_on_c, 1, 37, 40
1, 8202480, Note_off_c, 1, 37, 0
1, 8202480, Note_on_c, 1, 37, 40
1, 8202720, Note_off_c, 1, 37, 0
1, 8202720, Note_on_c, 1, 37, 40
1, 8202960, Note_off_c, 1, 37, 0
1, 8202960, Note_on_c, 1, 37, 40
1, 8203200, Note_off_c, 1, 37, 0
1, 8203200, Note_on_c, 1, 37, 40
1, 8203440, Note_off_c, 1, 37, 0
1, 8203440, Note_on_c, 1, 37, 40
1, 8203680, Note_off_c, 1, 37, 0
1, 8203680, Note_on_c, 1, 37, 40
1, 8203920, Note_off_c, 1, 37, 0
1, 8203920, Note_on_c, 1, 37, 40
1, 8204160, Note_off_c, 1, 37, 0
1, 8204160, Note_on_c, 1, 37, 40
1, 8204400, Note_off_c, 1, 37, 0
1, 8204400, Note_on_c, 1, 37, 40
1, 8204640, Note_off_c, 1, 37, 0
1, 8204640, Note_on_c, 1, 37, 40
1, 8204880, Note_off_c, 1, 37, 0
1, 8204880, Note_on_c, 1, 30, 40
1, 8205120, Note_off_c, 1, 30, 0
1, 8205120, Note_on_c, 1, 32, 40
1, 8205360, Note_off_c, 1, 32, 0
1, 8205360, Note_on_c, 1, 37, 40
1, 8205600, Note_off_c, 1, 37, 0
1, 8205600, Note_on_c, 1, 37, 40
1, 8205840, Note_off_c, 1, 37, 0
1, 8205840, Note_on_c, 1, 37, 40
1, 8206080, Note_off_c, 1, 37, 0
1, 8206080, Note_on_c, 1, 37, 40
1, 8206320, Note_off_c, 1, 37, 0
1, 8206320, Note_on_c, 1, 37, 40
1, 8206560, Note_off_c, 1, 37, 0
1, 8206560, Note_on_c, 1, 37, 40
1, 8206800, Note_off_c, 1, 37, 0
1, 8206800, Note_on_c, 1, 37, 40
1, 8207040, Note_off_c, 1, 37, 0
1, 8207040, Note_on_c, 1, 37, 40
1, 8207280, Note_off_c, 1, 37, 0
1, 8207280, Note_on_c, 1, 37, 40
1, 8207520, Note_off_c, 1, 37, 0
1, 8207520, Note_on_c, 1, 37, 40
1, 8207760, Note_off_c, 1, 37, 0
1, 8207760, Note_on_c, 1, 37, 40
1, 8208000, Note_off_c, 1, 37, 0
1, 8208000, Note_on_c, 1, 37, 40
1, 8208240, Note_off_c, 1, 37, 0
1, 8208240, Note_on_c, 1, 37, 40
1, 8208480, Note_off_c, 1, 37, 0
1, 8208480, Note_on_c, 1, 37, 40
1, 8208720, Note_off_c, 1, 37, 0
1, 8208720, Note_on_c, 1, 30, 40
1, 8208960, Note_off_c, 1, 30, 0
1, 8208960, Note_on_c, 1, 32, 40
1, 8209200, Note_off_c, 1, 32, 0
1, 8209200, Note_on_c, 1, 37, 40
1, 8209440, Note_off_c, 1, 37, 0
1, 8209440, Note_on_c, 1, 37, 40
1, 8209680, Note_off_c, 1, 37, 0
1, 8209680, Note_on_c, 1, 37, 40
1, 8209920, Note_off_c, 1, 37, 0
1, 8209920, Note_on_c, 1, 37, 40
1, 8210160, Note_off_c, 1, 37, 0
1, 8210160, Note_on_c, 1, 37, 40
1, 8210400, Note_off_c, 1, 37, 0
1, 8210400, Note_on_c, 1, 37, 40
1, 8210640, Note_off_c, 1, 37, 0
1, 8210640, Note_on_c, 1, 37, 40
1, 8210880, Note_off_c, 1, 37, 0
1, 8210880, Note_on_c, 1, 37, 40
1, 8211120, Note_off_c, 1, 37, 0
1, 8211120, Note_on_c, 1, 37, 40
1, 8211360, Note_off_c, 1, 37, 0
1, 8211360, Note_on_c, 1, 37, 40
1, 8211600, Note_off_c, 1, 37, 0
1, 8211600, Note_on_c, 1, 37, 40
1, 8211840, Note_off_c, 1, 37, 0
1, 8211840, Note_on_c, 1, 37, 40
1, 8212080, Note_off_c, 1, 37, 0
1, 8212080, Note_on_c, 1, 37, 40
1, 8212320, Note_off_c, 1, 37, 0
1, 8212320, Note_on_c, 1, 37, 40
1, 8212560, Note_off_c, 1, 37, 0
1, 8212560, Note_on_c, 1, 37, 40
1, 8212800, Note_off_c, 1, 37, 0
1, 8212800, Note_on_c, 1, 37, 40
1, 8213040, Note_off_c, 1, 37, 0
1, 8213040, Note_on_c, 1, 42, 40
1, 8213280, Note_off_c, 1, 42, 0
1, 8213280, Note_on_c, 1, 42, 40
1, 8213520, Note_off_c, 1, 42, 0
1, 8213520, Note_on_c, 1, 42, 40
1, 8213760, Note_off_c, 1, 42, 0
1, 8213760, Note_on_c, 1, 42, 40
1, 8214000, Note_off_c, 1, 42, 0
1, 8214000, Note_on_c, 1, 37, 40
1, 8214240, Note_off_c, 1, 37, 0
1, 8214240, Note_on_c, 1, 37, 40
1, 8214480, Note_off_c, 1, 37, 0
1, 8214480, Note_on_c, 1, 37, 40
1, 8214720, Note_off_c, 1, 37, 0
1, 8214720, Note_on_c, 1, 37, 40
1, 8214960, Note_off_c, 1, 37, 0
1, 8214960, Note_on_c, 1, 37, 40
1, 8215200, Note_off_c, 1, 37, 0
1, 8215200, Note_on_c, 1, 40, 40
1, 8215440, Note_off_c, 1, 40, 0
1, 8215440, Note_on_c, 1, 40, 40
1, 8215680, Note_off_c, 1, 40, 0
1, 8215680, Note_on_c, 1, 42, 40
1, 8215920, Note_off_c, 1, 42, 0
1, 8215920, Note_on_c, 1, 42, 40
1, 8216160, Note_off_c, 1, 42, 0
1, 8216160, Note_on_c, 1, 44, 40
1, 8216400, Note_off_c, 1, 44, 0
1, 8216400, Note_on_c, 1, 44, 40
1, 8216880, Note_off_c, 1, 44, 0
1, 8216880, Note_on_c, 1, 37, 40
1, 8217120, Note_off_c, 1, 37, 0
1, 8217120, Note_on_c, 1, 37, 40
1, 8217360, Note_off_c, 1, 37, 0
1, 8217360, Note_on_c, 1, 37, 40
1, 8217600, Note_off_c, 1, 37, 0
1, 8217600, Note_on_c, 1, 37, 40
1, 8217840, Note_off_c, 1, 37, 0
1, 8217840, Note_on_c, 1, 37, 40
1, 8218080, Note_off_c, 1, 37, 0
1, 8218080, Note_on_c, 1, 37, 40
1, 8218320, Note_off_c, 1, 37, 0
1, 8218320, Note_on_c, 1, 37, 40
1, 8218560, Note_off_c, 1, 37, 0
1, 8218560, Note_on_c, 1, 37, 40
1, 8218800, Note_off_c, 1, 37, 0
1, 8218800, Note_on_c, 1, 37, 40
1, 8219040, Note_off_c, 1, 37, 0
1, 8219040, Note_on_c, 1, 37, 40
1, 8219280, Note_off_c, 1, 37, 0
1, 8219280, Note_on_c, 1, 37, 40
1, 8219520, Note_off_c, 1, 37, 0
1, 8219520, Note_on_c, 1, 37, 40
1, 8219760, Note_off_c, 1, 37, 0
1, 8219760, Note_on_c, 1, 37, 40
1, 8220000, Note_off_c, 1, 37, 0
1, 8220000, Note_on_c, 1, 37, 40
1, 8220240, Note_off_c, 1, 37, 0
1, 8220240, Note_on_c, 1, 37, 40
1, 8220480, Note_off_c, 1, 37, 0
1, 8220480, Note_on_c, 1, 37, 40
1, 8220720, Note_off_c, 1, 37, 0
1, 8220720, Note_on_c, 1, 42, 40
1, 8220960, Note_off_c, 1, 42, 0
1, 8220960, Note_on_c, 1, 42, 40
1, 8221200, Note_off_c, 1, 42, 0
1, 8221200, Note_on_c, 1, 42, 40
1, 8221440, Note_off_c, 1, 42, 0
1, 8221440, Note_on_c, 1, 42, 40
1, 8221680, Note_off_c, 1, 42, 0
1, 8221680, Note_on_c, 1, 37, 40
1, 8221920, Note_off_c, 1, 37, 0
1, 8221920, Note_on_c, 1, 37, 40
1, 8222160, Note_off_c, 1, 37, 0
1, 8222160, Note_on_c, 1, 37, 40
1, 8222400, Note_off_c, 1, 37, 0
1, 8222400, Note_on_c, 1, 37, 40
1, 8222640, Note_off_c, 1, 37, 0
1, 8222640, Note_on_c, 1, 37, 40
1, 8222880, Note_off_c, 1, 37, 0
1, 8223120, Note_on_c, 1, 37, 40
1, 8223360, Note_off_c, 1, 37, 0
1, 8223360, Note_on_c, 1, 37, 40
1, 8223480, Note_off_c, 1, 37, 0
1, 8223600, Note_on_c, 1, 49, 40
1, 8223840, Note_off_c, 1, 49, 0
1, 8223840, Note_on_c, 1, 49, 40
1, 8224080, Note_off_c, 1, 49, 0
1, 8224080, Note_on_c, 1, 44, 40
1, 8224320, Note_off_c, 1, 44, 0
1, 8224320, Note_on_c, 1, 44, 40
1, 8224440, Note_off_c, 1, 44, 0
1, 8224560, Note_on_c, 1, 42, 40
1, 8225040, Note_off_c, 1, 42, 0
1, 8225280, Note_on_c, 1, 37, 40
1, 8225760, Note_off_c, 1, 37, 0
1, 8226240, Note_on_c, 1, 38, 40
1, 8226480, Note_off_c, 1, 38, 0
1, 8226480, Note_on_c, 1, 39, 40
1, 8226960, Note_off_c, 1, 39, 0
1, 8227200, Note_on_c, 1, 34, 40
1, 8227680, Note_off_c, 1, 34, 0
1, 8227920, Note_on_c, 1, 39, 40
1, 8228160, Note_off_c, 1, 39, 0
1, 8228160, Note_on_c, 1, 40, 40
1, 8228400, Note_off_c, 1, 40, 0
1, 8228400, Note_on_c, 1, 41, 40
1, 8229000, Note_off_c, 1, 41, 0
1, 8229120, Note_on_c, 1, 34, 40
1, 8229600, Note_off_c, 1, 34, 0
1, 8229840, Note_on_c, 1, 41, 40
1, 8230080, Note_off_c, 1, 41, 0
1, 8230080, Note_on_c, 1, 37, 40
1, 8230200, Note_off_c, 1, 37, 0
1, 8230320, Note_on_c, 1, 42, 40
1, 8230800, Note_off_c, 1, 42, 0
1, 8231040, Note_on_c, 1, 37, 40
1, 8231640, Note_off_c, 1, 37, 0
1, 8231760, Note_on_c, 1, 42, 40
1, 8232120, Note_off_c, 1, 42, 0
1, 8232240, Note_on_c, 1, 37, 40
1, 8232480, Note_off_c, 1, 37, 0
1, 8232480, Note_on_c, 1, 37, 40
1, 8232720, Note_off_c, 1, 37, 0
1, 8232720, Note_on_c, 1, 37, 40
1, 8232960, Note_off_c, 1, 37, 0
1, 8232960, Note_on_c, 1, 37, 40
1, 8233200, Note_off_c, 1, 37, 0
1, 8233200, Note_on_c, 1, 37, 40
1, 8233440, Note_off_c, 1, 37, 0
1, 8233440, Note_on_c, 1, 37, 40
1, 8233680, Note_off_c, 1, 37, 0
1, 8233680, Note_on_c, 1, 37, 40
1, 8233920, Note_off_c, 1, 37, 0
1, 8233920, Note_on_c, 1, 37, 40
1, 8234160, Note_off_c, 1, 37, 0
1, 8234160, Note_on_c, 1, 42, 40
1, 8234400, Note_off_c, 1, 42, 0
1, 8234400, Note_on_c, 1, 42, 40
1, 8234640, Note_off_c, 1, 42, 0
1, 8234640, Note_on_c, 1, 42, 40
1, 8234880, Note_off_c, 1, 42, 0
1, 8234880, Note_on_c, 1, 42, 40
1, 8235120, Note_off_c, 1, 42, 0
1, 8235120, Note_on_c, 1, 44, 40
1, 8235360, Note_off_c, 1, 44, 0
1, 8235360, Note_on_c, 1, 44, 40
1, 8235600, Note_off_c, 1, 44, 0
1, 8235600, Note_on_c, 1, 44, 40
1, 8235840, Note_off_c, 1, 44, 0
1, 8235840, Note_on_c, 1, 44, 40
1, 8236080, Note_off_c, 1, 44, 0
1, 8236080, Note_on_c, 1, 37, 40
1, 8236320, Note_off_c, 1, 37, 0
1, 8236320, Note_on_c, 1, 37, 40
1, 8236560, Note_off_c, 1, 37, 0
1, 8236560, Note_on_c, 1, 41, 40
1, 8236800, Note_off_c, 1, 41, 0
1, 8236800, Note_on_c, 1, 41, 40
1, 8236920, Note_off_c, 1, 41, 0
1, 8237040, Note_on_c, 1, 44, 40
1, 8237280, Note_off_c, 1, 44, 0
1, 8237280, Note_on_c, 1, 44, 40
1, 8237520, Note_off_c, 1, 44, 0
1, 8237520, Note_on_c, 1, 41, 40
1, 8237760, Note_off_c, 1, 41, 0
1, 8237760, Note_on_c, 1, 37, 40
1, 8238000, Note_off_c, 1, 37, 0
1, 8238000, Note_on_c, 1, 42, 40
1, 8238240, Note_off_c, 1, 42, 0
1, 8238240, Note_on_c, 1, 42, 40
1, 8238480, Note_off_c, 1, 42, 0
1, 8238480, Note_on_c, 1, 42, 40
1, 8238720, Note_off_c, 1, 42, 0
1, 8238720, Note_on_c, 1, 42, 40
1, 8238960, Note_off_c, 1, 42, 0
1, 8238960, Note_on_c, 1, 44, 40
1, 8239200, Note_off_c, 1, 44, 0
1, 8239200, Note_on_c, 1, 44, 40
1, 8239440, Note_off_c, 1, 44, 0
1, 8239440, Note_on_c, 1, 44, 40
1, 8239680, Note_off_c, 1, 44, 0
1, 8239680, Note_on_c, 1, 44, 40
1, 8239920, Note_off_c, 1, 44, 0
1, 8239920, Note_on_c, 1, 37, 40
1, 8240160, Note_off_c, 1, 37, 0
1, 8240160, Note_on_c, 1, 37, 40
1, 8240400, Note_off_c, 1, 37, 0
1, 8240400, Note_on_c, 1, 37, 40
1, 8240640, Note_off_c, 1, 37, 0
1, 8240640, Note_on_c, 1, 37, 40
1, 8240880, Note_off_c, 1, 37, 0
1, 8240880, Note_on_c, 1, 37, 40
1, 8241120, Note_off_c, 1, 37, 0
1, 8241120, Note_on_c, 1, 37, 40
1, 8241360, Note_off_c, 1, 37, 0
1, 8241360, Note_on_c, 1, 37, 40
1, 8241600, Note_off_c, 1, 37, 0
1, 8241600, Note_on_c, 1, 37, 40
1, 8241840, Note_off_c, 1, 37, 0
1, 8241840, Note_on_c, 1, 37, 40
1, 8242080, Note_off_c, 1, 37, 0
1, 8242080, Note_on_c, 1, 37, 40
1, 8242320, Note_off_c, 1, 37, 0
1, 8242320, Note_on_c, 1, 37, 40
1, 8242560, Note_off_c, 1, 37, 0
1, 8242560, Note_on_c, 1, 37, 40
1, 8242800, Note_off_c, 1, 37, 0
1, 8242800, Note_on_c, 1, 37, 40
1, 8243040, Note_off_c, 1, 37, 0
1, 8243040, Note_on_c, 1, 37, 40
1, 8243280, Note_off_c, 1, 37, 0
1, 8243280, Note_on_c, 1, 37, 40
1, 8243520, Note_off_c, 1, 37, 0
1, 8243520, Note_on_c, 1, 37, 40
1, 8243760, Note_off_c, 1, 37, 0
1, 8243760, Note_on_c, 1, 42, 40
1, 8244000, Note_off_c, 1, 42, 0
1, 8244000, Note_on_c, 1, 42, 40
1, 8244240, Note_off_c, 1, 42, 0
1, 8244240, Note_on_c, 1, 42, 40
1, 8244480, Note_off_c, 1, 42, 0
1, 8244480, Note_on_c, 1, 42, 40
1, 8244720, Note_off_c, 1, 42, 0
1, 8244720, Note_on_c, 1, 37, 40
1, 8244960, Note_off_c, 1, 37, 0
1, 8244960, Note_on_c, 1, 37, 40
1, 8245200, Note_off_c, 1, 37, 0
1, 8245200, Note_on_c, 1, 37, 40
1, 8245440, Note_off_c, 1, 37, 0
1, 8245440, Note_on_c, 1, 37, 40
1, 8245680, Note_off_c, 1, 37, 0
1, 8245680, Note_on_c, 1, 37, 40
1, 8245920, Note_off_c, 1, 37, 0
1, 8245920, Note_on_c, 1, 40, 40
1, 8246160, Note_off_c, 1, 40, 0
1, 8246160, Note_on_c, 1, 40, 40
1, 8246400, Note_off_c, 1, 40, 0
1, 8246400, Note_on_c, 1, 42, 40
1, 8246640, Note_off_c, 1, 42, 0
1, 8246640, Note_on_c, 1, 42, 40
1, 8246880, Note_off_c, 1, 42, 0
1, 8246880, Note_on_c, 1, 44, 40
1, 8247120, Note_off_c, 1, 44, 0
1, 8247120, Note_on_c, 1, 44, 40
1, 8247600, Note_off_c, 1, 44, 0
1, 8247600, Note_on_c, 1, 37, 40
1, 8247840, Note_off_c, 1, 37, 0
1, 8247840, Note_on_c, 1, 37, 40
1, 8248080, Note_off_c, 1, 37, 0
1, 8248080, Note_on_c, 1, 37, 40
1, 8248320, Note_off_c, 1, 37, 0
1, 8248320, Note_on_c, 1, 37, 40
1, 8248560, Note_off_c, 1, 37, 0
1, 8248560, Note_on_c, 1, 37, 40
1, 8248800, Note_off_c, 1, 37, 0
1, 8248800, Note_on_c, 1, 37, 40
1, 8249040, Note_off_c, 1, 37, 0
1, 8249040, Note_on_c, 1, 37, 40
1, 8249280, Note_off_c, 1, 37, 0
1, 8249280, Note_on_c, 1, 37, 40
1, 8249520, Note_off_c, 1, 37, 0
1, 8249520, Note_on_c, 1, 37, 40
1, 8249760, Note_off_c, 1, 37, 0
1, 8249760, Note_on_c, 1, 37, 40
1, 8250000, Note_off_c, 1, 37, 0
1, 8250000, Note_on_c, 1, 37, 40
1, 8250240, Note_off_c, 1, 37, 0
1, 8250240, Note_on_c, 1, 37, 40
1, 8250480, Note_off_c, 1, 37, 0
1, 8250480, Note_on_c, 1, 37, 40
1, 8250720, Note_off_c, 1, 37, 0
1, 8250720, Note_on_c, 1, 37, 40
1, 8250960, Note_off_c, 1, 37, 0
1, 8250960, Note_on_c, 1, 37, 40
1, 8251200, Note_off_c, 1, 37, 0
1, 8251200, Note_on_c, 1, 37, 40
1, 8251440, Note_off_c, 1, 37, 0
1, 8251440, Note_on_c, 1, 42, 40
1, 8251680, Note_off_c, 1, 42, 0
1, 8251680, Note_on_c, 1, 42, 40
1, 8251920, Note_off_c, 1, 42, 0
1, 8251920, Note_on_c, 1, 42, 40
1, 8252160, Note_off_c, 1, 42, 0
1, 8252160, Note_on_c, 1, 42, 40
1, 8252400, Note_off_c, 1, 42, 0
1, 8252400, Note_on_c, 1, 37, 40
1, 8252640, Note_off_c, 1, 37, 0
1, 8252640, Note_on_c, 1, 37, 40
1, 8252880, Note_off_c, 1, 37, 0
1, 8252880, Note_on_c, 1, 37, 40
1, 8253120, Note_off_c, 1, 37, 0
1, 8253120, Note_on_c, 1, 37, 40
1, 8253360, Note_off_c, 1, 37, 0
1, 8253360, Note_on_c, 1, 37, 40
1, 8253600, Note_off_c, 1, 37, 0
1, 8253840, Note_on_c, 1, 37, 40
1, 8254080, Note_off_c, 1, 37, 0
1, 8254080, Note_on_c, 1, 37, 40
1, 8254200, Note_off_c, 1, 37, 0
1, 8254320, Note_on_c, 1, 49, 40
1, 8254560, Note_off_c, 1, 49, 0
1, 8254560, Note_on_c, 1, 49, 40
1, 8254800, Note_off_c, 1, 49, 0
1, 8254800, Note_on_c, 1, 44, 40
1, 8255040, Note_off_c, 1, 44, 0
1, 8255040, Note_on_c, 1, 44, 40
1, 8255160, Note_off_c, 1, 44, 0
1, 8255280, Note_on_c, 1, 42, 40
1, 8255760, Note_off_c, 1, 42, 0
1, 8256000, Note_on_c, 1, 37, 40
1, 8256720, Note_off_c, 1, 37, 0
1, 8256720, Note_on_c, 1, 42, 40
1, 8256960, Note_off_c, 1, 42, 0
1, 8256960, Note_on_c, 1, 41, 40
1, 8257200, Note_off_c, 1, 41, 0
1, 8257200, Note_on_c, 1, 39, 40
1, 8257680, Note_off_c, 1, 39, 0
1, 8257920, Note_on_c, 1, 34, 40
1, 8258400, Note_off_c, 1, 34, 0
1, 8258640, Note_on_c, 1, 39, 40
1, 8258880, Note_off_c, 1, 39, 0
1, 8258880, Note_on_c, 1, 40, 40
1, 8259120, Note_off_c, 1, 40, 0
1, 8259120, Note_on_c, 1, 41, 40
1, 8259720, Note_off_c, 1, 41, 0
1, 8259840, Note_on_c, 1, 34, 40
1, 8260320, Note_off_c, 1, 34, 0
1, 8260560, Note_on_c, 1, 41, 40
1, 8260800, Note_off_c, 1, 41, 0
1, 8260800, Note_on_c, 1, 37, 40
1, 8260920, Note_off_c, 1, 37, 0
1, 8261040, Note_on_c, 1, 42, 40
1, 8261520, Note_off_c, 1, 42, 0
1, 8261760, Note_on_c, 1, 37, 40
1, 8262360, Note_off_c, 1, 37, 0
1, 8262480, Note_on_c, 1, 42, 40
1, 8262720, Note_off_c, 1, 42, 0
1, 8262720, Note_on_c, 1, 42, 40
1, 8262960, Note_off_c, 1, 42, 0
1, 8262960, Note_on_c, 1, 37, 40
1, 8263200, Note_off_c, 1, 37, 0
1, 8263200, Note_on_c, 1, 37, 40
1, 8263440, Note_off_c, 1, 37, 0
1, 8263440, Note_on_c, 1, 37, 40
1, 8263680, Note_off_c, 1, 37, 0
1, 8263680, Note_on_c, 1, 37, 40
1, 8263920, Note_off_c, 1, 37, 0
1, 8263920, Note_on_c, 1, 37, 40
1, 8264160, Note_off_c, 1, 37, 0
1, 8264160, Note_on_c, 1, 37, 40
1, 8264400, Note_off_c, 1, 37, 0
1, 8264400, Note_on_c, 1, 37, 40
1, 8264640, Note_off_c, 1, 37, 0
1, 8264640, Note_on_c, 1, 37, 40
1, 8264880, Note_off_c, 1, 37, 0
1, 8264880, Note_on_c, 1, 42, 40
1, 8265120, Note_off_c, 1, 42, 0
1, 8265120, Note_on_c, 1, 42, 40
1, 8265360, Note_off_c, 1, 42, 0
1, 8265360, Note_on_c, 1, 42, 40
1, 8265600, Note_off_c, 1, 42, 0
1, 8265600, Note_on_c, 1, 42, 40
1, 8265840, Note_off_c, 1, 42, 0
1, 8265840, Note_on_c, 1, 44, 40
1, 8266080, Note_off_c, 1, 44, 0
1, 8266080, Note_on_c, 1, 44, 40
1, 8266320, Note_off_c, 1, 44, 0
1, 8266320, Note_on_c, 1, 44, 40
1, 8266560, Note_off_c, 1, 44, 0
1, 8266560, Note_on_c, 1, 44, 40
1, 8266800, Note_off_c, 1, 44, 0
1, 8266800, Note_on_c, 1, 37, 40
1, 8267040, Note_off_c, 1, 37, 0
1, 8267040, Note_on_c, 1, 37, 40
1, 8267280, Note_off_c, 1, 37, 0
1, 8267280, Note_on_c, 1, 41, 40
1, 8267520, Note_off_c, 1, 41, 0
1, 8267520, Note_on_c, 1, 41, 40
1, 8267640, Note_off_c, 1, 41, 0
1, 8267760, Note_on_c, 1, 44, 40
1, 8268000, Note_off_c, 1, 44, 0
1, 8268000, Note_on_c, 1, 44, 40
1, 8268240, Note_off_c, 1, 44, 0
1, 8268240, Note_on_c, 1, 41, 40
1, 8268480, Note_off_c, 1, 41, 0
1, 8268480, Note_on_c, 1, 44, 40
1, 8268720, Note_off_c, 1, 44, 0
1, 8268720, Note_on_c, 1, 37, 40
1, 8268960, Note_off_c, 1, 37, 0
1, 8270640, Note_on_c, 1, 30, 40
1, 8270880, Note_off_c, 1, 30, 0
1, 8270880, Note_on_c, 1, 42, 40
1, 8271120, Note_off_c, 1, 42, 0
1, 8271120, Note_on_c, 1, 39, 40
1, 8271600, Note_off_c, 1, 39, 0
1, 8271600, Note_on_c, 1, 37, 40
1, 8272080, Note_off_c, 1, 37, 0
1, 8272080, Note_on_c, 1, 34, 40
1, 8272560, Note_off_c, 1, 34, 0
1, 8272560, Note_on_c, 1, 44, 40
1, 8273040, Note_off_c, 1, 44, 0
1, 8273040, Note_on_c, 1, 42, 40
1, 8273520, Note_off_c, 1, 42, 0
1, 8273520, Note_on_c, 1, 41, 40
1, 8274000, Note_off_c, 1, 41, 0
1, 8274000, Note_on_c, 1, 39, 40
1, 8274480, Note_off_c, 1, 39, 0
1, 8274480, Note_on_c, 1, 37, 40
1, 8274960, Note_off_c, 1, 37, 0
1, 8274960, Note_on_c, 1, 37, 40
1, 8275200, Note_off_c, 1, 37, 0
1, 8275200, Note_on_c, 1, 41, 40
1, 8275320, Note_off_c, 1, 41, 0
1, 8275440, Note_on_c, 1, 44, 40
1, 8275680, Note_off_c, 1, 44, 0
1, 8275680, Note_on_c, 1, 44, 40
1, 8275920, Note_off_c, 1, 44, 0
1, 8275920, Note_on_c, 1, 41, 40
1, 8276040, Note_off_c, 1, 41, 0
1, 8276160, Note_on_c, 1, 44, 40
1, 8276400, Note_off_c, 1, 44, 0
1, 8276400, Note_on_c, 1, 37, 40
1, 8276880, Note_off_c, 1, 37, 0
1, 8276880, Note_on_c, 1, 37, 40
1, 8277120, Note_off_c, 1, 37, 0
1, 8277120, Note_on_c, 1, 41, 40
1, 8277240, Note_off_c, 1, 41, 0
1, 8277360, Note_on_c, 1, 44, 40
1, 8277600, Note_off_c, 1, 44, 0
1, 8277600, Note_on_c, 1, 44, 40
1, 8277840, Note_off_c, 1, 44, 0
1, 8277840, Note_on_c, 1, 41, 40
1, 8278080, Note_off_c, 1, 41, 0
1, 8278080, Note_on_c, 1, 37, 40
1, 8278320, Note_off_c, 1, 37, 0
1, 8278320, Note_on_c, 1, 42, 40
1, 8278800, Note_off_c, 1, 42, 0
1, 8278800, Note_on_c, 1, 39, 40
1, 8279280, Note_off_c, 1, 39, 0
1, 8279280, Note_on_c, 1, 37, 40
1, 8279640, Note_off_c, 1, 37, 0
1, 8279760, Note_on_c, 1, 34, 40
1, 8280120, Note_off_c, 1, 34, 0
1, 8280240, Note_on_c, 1, 44, 40
1, 8280720, Note_off_c, 1, 44, 0
1, 8280720, Note_on_c, 1, 44, 40
1, 8280960, Note_off_c, 1, 44, 0
1, 8280960, Note_on_c, 1, 42, 40
1, 8281200, Note_off_c, 1, 42, 0
1, 8281200, Note_on_c, 1, 41, 40
1, 8281680, Note_off_c, 1, 41, 0
1, 8281680, Note_on_c, 1, 39, 40
1, 8282160, Note_off_c, 1, 39, 0
1, 8282160, Note_on_c, 1, 37, 40
1, 8282640, Note_off_c, 1, 37, 0
1, 8282640, Note_on_c, 1, 37, 40
1, 8282880, Note_off_c, 1, 37, 0
1, 8282880, Note_on_c, 1, 41, 40
1, 8283120, Note_off_c, 1, 41, 0
1, 8283120, Note_on_c, 1, 44, 40
1, 8283360, Note_off_c, 1, 44, 0
1, 8283360, Note_on_c, 1, 44, 40
1, 8283600, Note_off_c, 1, 44, 0
1, 8283600, Note_on_c, 1, 41, 40
1, 8283840, Note_off_c, 1, 41, 0
1, 8283840, Note_on_c, 1, 37, 40
1, 8284080, Note_off_c, 1, 37, 0
1, 8284080, Note_on_c, 1, 42, 40
1, 8284320, Note_off_c, 1, 42, 0
1, 8284320, Note_on_c, 1, 42, 40
1, 8284560, Note_off_c, 1, 42, 0
1, 8284560, Note_on_c, 1, 42, 40
1, 8284800, Note_off_c, 1, 42, 0
1, 8284800, Note_on_c, 1, 42, 40
1, 8285040, Note_off_c, 1, 42, 0
1, 8285040, Note_on_c, 1, 44, 40
1, 8285280, Note_off_c, 1, 44, 0
1, 8285280, Note_on_c, 1, 44, 40
1, 8285520, Note_off_c, 1, 44, 0
1, 8285520, Note_on_c, 1, 44, 40
1, 8285760, Note_off_c, 1, 44, 0
1, 8285760, Note_on_c, 1, 44, 40
1, 8286000, Note_off_c, 1, 44, 0
1, 8286000, Note_on_c, 1, 37, 40
1, 8286480, Note_off_c, 1, 37, 0
1, 8286480, Note_on_c, 1, 37, 40
1, 8286720, Note_off_c, 1, 37, 0
1, 8286720, Note_on_c, 1, 41, 40
1, 8286840, Note_off_c, 1, 41, 0
1, 8286960, Note_on_c, 1, 44, 40
1, 8287200, Note_off_c, 1, 44, 0
1, 8287200, Note_on_c, 1, 44, 40
1, 8287440, Note_off_c, 1, 44, 0
1, 8287440, Note_on_c, 1, 41, 40
1, 8287680, Note_off_c, 1, 41, 0
1, 8287680, Note_on_c, 1, 37, 40
1, 8287920, Note_off_c, 1, 37, 0
1, 8287920, Note_on_c, 1, 42, 40
1, 8288160, Note_off_c, 1, 42, 0
1, 8288160, Note_on_c, 1, 42, 40
1, 8288400, Note_off_c, 1, 42, 0
1, 8288400, Note_on_c, 1, 42, 40
1, 8288640, Note_off_c, 1, 42, 0
1, 8288640, Note_on_c, 1, 42, 40
1, 8288880, Note_off_c, 1, 42, 0
1, 8288880, Note_on_c, 1, 44, 40
1, 8289120, Note_off_c, 1, 44, 0
1, 8289120, Note_on_c, 1, 44, 40
1, 8289360, Note_off_c, 1, 44, 0
1, 8289360, Note_on_c, 1, 44, 40
1, 8289600, Note_off_c, 1, 44, 0
1, 8289600, Note_on_c, 1, 44, 40
1, 8289840, Note_off_c, 1, 44, 0
1, 8289840, Note_on_c, 1, 37, 40
1, 8290080, Note_off_c, 1, 37, 0
1, 8290080, Note_on_c, 1, 37, 40
1, 8290320, Note_off_c, 1, 37, 0
1, 8290320, Note_on_c, 1, 37, 40
1, 8290560, Note_off_c, 1, 37, 0
1, 8290560, Note_on_c, 1, 37, 40
1, 8290800, Note_off_c, 1, 37, 0
1, 8290800, Note_on_c, 1, 37, 40
1, 8291040, Note_off_c, 1, 37, 0
1, 8291040, Note_on_c, 1, 37, 40
1, 8291280, Note_off_c, 1, 37, 0
1, 8291280, Note_on_c, 1, 37, 40
1, 8291520, Note_off_c, 1, 37, 0
1, 8291520, Note_on_c, 1, 37, 40
1, 8291760, Note_off_c, 1, 37, 0
1, 8291760, Note_on_c, 1, 37, 40
1, 8292000, Note_off_c, 1, 37, 0
1, 8292000, Note_on_c, 1, 37, 40
1, 8292240, Note_off_c, 1, 37, 0
1, 8292240, Note_on_c, 1, 37, 40
1, 8292480, Note_off_c, 1, 37, 0
1, 8292480, Note_on_c, 1, 37, 40
1, 8292720, Note_off_c, 1, 37, 0
1, 8292720, Note_on_c, 1, 37, 40
1, 8292960, Note_off_c, 1, 37, 0
1, 8292960, Note_on_c, 1, 37, 40
1, 8293200, Note_off_c, 1, 37, 0
1, 8293200, Note_on_c, 1, 37, 40
1, 8293440, Note_off_c, 1, 37, 0
1, 8293440, Note_on_c, 1, 37, 40
1, 8293680, Note_off_c, 1, 37, 0
1, 8293680, Note_on_c, 1, 42, 40
1, 8293920, Note_off_c, 1, 42, 0
1, 8293920, Note_on_c, 1, 42, 40
1, 8294160, Note_off_c, 1, 42, 0
1, 8294160, Note_on_c, 1, 42, 40
1, 8294400, Note_off_c, 1, 42, 0
1, 8294400, Note_on_c, 1, 42, 40
1, 8294640, Note_off_c, 1, 42, 0
1, 8294640, Note_on_c, 1, 37, 40
1, 8294880, Note_off_c, 1, 37, 0
1, 8294880, Note_on_c, 1, 37, 40
1, 8295120, Note_off_c, 1, 37, 0
1, 8295120, Note_on_c, 1, 37, 40
1, 8295360, Note_off_c, 1, 37, 0
1, 8295360, Note_on_c, 1, 37, 40
1, 8295600, Note_off_c, 1, 37, 0
1, 8295600, Note_on_c, 1, 37, 40
1, 8295840, Note_off_c, 1, 37, 0
1, 8295840, Note_on_c, 1, 40, 40
1, 8296080, Note_off_c, 1, 40, 0
1, 8296080, Note_on_c, 1, 40, 40
1, 8296320, Note_off_c, 1, 40, 0
1, 8296320, Note_on_c, 1, 42, 40
1, 8296560, Note_off_c, 1, 42, 0
1, 8296560, Note_on_c, 1, 42, 40
1, 8296800, Note_off_c, 1, 42, 0
1, 8296800, Note_on_c, 1, 44, 40
1, 8297040, Note_off_c, 1, 44, 0
1, 8297040, Note_on_c, 1, 44, 40
1, 8297520, Note_off_c, 1, 44, 0
1, 8297520, Note_on_c, 1, 37, 40
1, 8297760, Note_off_c, 1, 37, 0
1, 8297760, Note_on_c, 1, 37, 40
1, 8298000, Note_off_c, 1, 37, 0
1, 8298000, Note_on_c, 1, 37, 40
1, 8298240, Note_off_c, 1, 37, 0
1, 8298240, Note_on_c, 1, 37, 40
1, 8298480, Note_off_c, 1, 37, 0
1, 8298480, Note_on_c, 1, 37, 40
1, 8298720, Note_off_c, 1, 37, 0
1, 8298720, Note_on_c, 1, 37, 40
1, 8298960, Note_off_c, 1, 37, 0
1, 8298960, Note_on_c, 1, 37, 40
1, 8299200, Note_off_c, 1, 37, 0
1, 8299200, Note_on_c, 1, 37, 40
1, 8299440, Note_off_c, 1, 37, 0
1, 8299440, Note_on_c, 1, 37, 40
1, 8299680, Note_off_c, 1, 37, 0
1, 8299680, Note_on_c, 1, 37, 40
1, 8299920, Note_off_c, 1, 37, 0
1, 8299920, Note_on_c, 1, 37, 40
1, 8300160, Note_off_c, 1, 37, 0
1, 8300160, Note_on_c, 1, 37, 40
1, 8300400, Note_off_c, 1, 37, 0
1, 8300400, Note_on_c, 1, 37, 40
1, 8300640, Note_off_c, 1, 37, 0
1, 8300640, Note_on_c, 1, 37, 40
1, 8300880, Note_off_c, 1, 37, 0
1, 8300880, Note_on_c, 1, 37, 40
1, 8301120, Note_off_c, 1, 37, 0
1, 8301120, Note_on_c, 1, 37, 40
1, 8301360, Note_off_c, 1, 37, 0
1, 8301360, Note_on_c, 1, 42, 40
1, 8301600, Note_off_c, 1, 42, 0
1, 8301600, Note_on_c, 1, 42, 40
1, 8301840, Note_off_c, 1, 42, 0
1, 8301840, Note_on_c, 1, 42, 40
1, 8302080, Note_off_c, 1, 42, 0
1, 8302080, Note_on_c, 1, 42, 40
1, 8302320, Note_off_c, 1, 42, 0
1, 8302320, Note_on_c, 1, 37, 40
1, 8302560, Note_off_c, 1, 37, 0
1, 8302560, Note_on_c, 1, 37, 40
1, 8302800, Note_off_c, 1, 37, 0
1, 8302800, Note_on_c, 1, 37, 40
1, 8303040, Note_off_c, 1, 37, 0
1, 8303040, Note_on_c, 1, 37, 40
1, 8303280, Note_off_c, 1, 37, 0
1, 8303280, Note_on_c, 1, 37, 40
1, 8303520, Note_off_c, 1, 37, 0
1, 8303760, Note_on_c, 1, 37, 40
1, 8304000, Note_off_c, 1, 37, 0
1, 8304000, Note_on_c, 1, 37, 40
1, 8304120, Note_off_c, 1, 37, 0
1, 8304240, Note_on_c, 1, 49, 40
1, 8304480, Note_off_c, 1, 49, 0
1, 8304480, Note_on_c, 1, 49, 40
1, 8304720, Note_off_c, 1, 49, 0
1, 8304720, Note_on_c, 1, 44, 40
1, 8304960, Note_off_c, 1, 44, 0
1, 8304960, Note_on_c, 1, 44, 40
1, 8305080, Note_off_c, 1, 44, 0
1, 8305200, Note_on_c, 1, 42, 40
1, 8305680, Note_off_c, 1, 42, 0
1, 8305920, Note_on_c, 1, 37, 40
1, 8306400, Note_off_c, 1, 37, 0
1, 8306880, Note_on_c, 1, 38, 40
1, 8307120, Note_off_c, 1, 38, 0
1, 8307120, Note_on_c, 1, 39, 40
1, 8307600, Note_off_c, 1, 39, 0
1, 8307840, Note_on_c, 1, 34, 40
1, 8308320, Note_off_c, 1, 34, 0
1, 8308560, Note_on_c, 1, 39, 40
1, 8308800, Note_off_c, 1, 39, 0
1, 8308800, Note_on_c, 1, 40, 40
1, 8309040, Note_off_c, 1, 40, 0
1, 8309040, Note_on_c, 1, 41, 40
1, 8309640, Note_off_c, 1, 41, 0
1, 8309760, Note_on_c, 1, 34, 40
1, 8310240, Note_off_c, 1, 34, 0
1, 8310480, Note_on_c, 1, 41, 40
1, 8310720, Note_off_c, 1, 41, 0
1, 8310720, Note_on_c, 1, 37, 40
1, 8310840, Note_off_c, 1, 37, 0
1, 8310960, Note_on_c, 1, 42, 40
1, 8311440, Note_off_c, 1, 42, 0
1, 8311680, Note_on_c, 1, 37, 40
1, 8312280, Note_off_c, 1, 37, 0
1, 8312400, Note_on_c, 1, 42, 40
1, 8312760, Note_off_c, 1, 42, 0
1, 8312880, Note_on_c, 1, 37, 40
1, 8313120, Note_off_c, 1, 37, 0
1, 8313120, Note_on_c, 1, 37, 40
1, 8313360, Note_off_c, 1, 37, 0
1, 8313360, Note_on_c, 1, 37, 40
1, 8313600, Note_off_c, 1, 37, 0
1, 8313600, Note_on_c, 1, 37, 40
1, 8313840, Note_off_c, 1, 37, 0
1, 8313840, Note_on_c, 1, 37, 40
1, 8314080, Note_off_c, 1, 37, 0
1, 8314080, Note_on_c, 1, 37, 40
1, 8314320, Note_off_c, 1, 37, 0
1, 8314320, Note_on_c, 1, 37, 40
1, 8314560, Note_off_c, 1, 37, 0
1, 8314560, Note_on_c, 1, 37, 40
1, 8314800, Note_off_c, 1, 37, 0
1, 8314800, Note_on_c, 1, 42, 40
1, 8315040, Note_off_c, 1, 42, 0
1, 8315040, Note_on_c, 1, 42, 40
1, 8315280, Note_off_c, 1, 42, 0
1, 8315280, Note_on_c, 1, 42, 40
1, 8315520, Note_off_c, 1, 42, 0
1, 8315520, Note_on_c, 1, 42, 40
1, 8315760, Note_off_c, 1, 42, 0
1, 8315760, Note_on_c, 1, 44, 40
1, 8316000, Note_off_c, 1, 44, 0
1, 8316000, Note_on_c, 1, 44, 40
1, 8316240, Note_off_c, 1, 44, 0
1, 8316240, Note_on_c, 1, 44, 40
1, 8316480, Note_off_c, 1, 44, 0
1, 8316480, Note_on_c, 1, 44, 40
1, 8316720, Note_off_c, 1, 44, 0
1, 8316720, Note_on_c, 1, 37, 40
1, 8316960, Note_off_c, 1, 37, 0
1, 8316960, Note_on_c, 1, 37, 40
1, 8317200, Note_off_c, 1, 37, 0
1, 8317200, Note_on_c, 1, 37, 40
1, 8317440, Note_off_c, 1, 37, 0
1, 8317440, Note_on_c, 1, 37, 40
1, 8317680, Note_off_c, 1, 37, 0
1, 8317680, Note_on_c, 1, 37, 40
1, 8317920, Note_off_c, 1, 37, 0
1, 8317920, Note_on_c, 1, 37, 40
1, 8318160, Note_off_c, 1, 37, 0
1, 8318160, Note_on_c, 1, 37, 40
1, 8318400, Note_off_c, 1, 37, 0
1, 8318400, Note_on_c, 1, 37, 40
1, 8318640, Note_off_c, 1, 37, 0
1, 8318640, Note_on_c, 1, 42, 40
1, 8318880, Note_off_c, 1, 42, 0
1, 8318880, Note_on_c, 1, 42, 40
1, 8319120, Note_off_c, 1, 42, 0
1, 8319120, Note_on_c, 1, 42, 40
1, 8319360, Note_off_c, 1, 42, 0
1, 8319360, Note_on_c, 1, 42, 40
1, 8319600, Note_off_c, 1, 42, 0
1, 8319600, Note_on_c, 1, 44, 40
1, 8319840, Note_off_c, 1, 44, 0
1, 8319840, Note_on_c, 1, 44, 40
1, 8320080, Note_off_c, 1, 44, 0
1, 8320080, Note_on_c, 1, 44, 40
1, 8320320, Note_off_c, 1, 44, 0
1, 8320320, Note_on_c, 1, 44, 40
1, 8320560, Note_off_c, 1, 44, 0
1, 8320560, Note_on_c, 1, 37, 40
1, 8320800, Note_off_c, 1, 37, 0
1, 8320800, Note_on_c, 1, 37, 40
1, 8321040, Note_off_c, 1, 37, 0
1, 8321040, Note_on_c, 1, 37, 40
1, 8321280, Note_off_c, 1, 37, 0
1, 8321280, Note_on_c, 1, 37, 40
1, 8321520, Note_off_c, 1, 37, 0
1, 8321520, Note_on_c, 1, 37, 40
1, 8321760, Note_off_c, 1, 37, 0
1, 8321760, Note_on_c, 1, 37, 40
1, 8322000, Note_off_c, 1, 37, 0
1, 8322000, Note_on_c, 1, 37, 40
1, 8322240, Note_off_c, 1, 37, 0
1, 8322240, Note_on_c, 1, 37, 40
1, 8322480, Note_off_c, 1, 37, 0
1, 8322480, Note_on_c, 1, 42, 40
1, 8322720, Note_off_c, 1, 42, 0
1, 8322720, Note_on_c, 1, 42, 40
1, 8322960, Note_off_c, 1, 42, 0
1, 8322960, Note_on_c, 1, 42, 40
1, 8323200, Note_off_c, 1, 42, 0
1, 8323200, Note_on_c, 1, 42, 40
1, 8323440, Note_off_c, 1, 42, 0
1, 8323440, Note_on_c, 1, 44, 40
1, 8323680, Note_off_c, 1, 44, 0
1, 8323680, Note_on_c, 1, 44, 40
1, 8323920, Note_off_c, 1, 44, 0
1, 8323920, Note_on_c, 1, 44, 40
1, 8324160, Note_off_c, 1, 44, 0
1, 8324160, Note_on_c, 1, 44, 40
1, 8324400, Note_off_c, 1, 44, 0
1, 8324400, Note_on_c, 1, 37, 40
1, 8325000, Note_off_c, 1, 37, 0
1, 8325360, Note_on_c, 1, 40, 40
1, 8325960, Note_off_c, 1, 40, 0
1, 8326320, Note_on_c, 1, 33, 40
1, 8327040, Note_off_c, 1, 33, 0
1, 8327280, Note_on_c, 1, 32, 40
1, 8327880, Note_off_c, 1, 32, 0
1, 8328240, Note_on_c, 1, 37, 40
1, 8330160, Note_off_c, 1, 37, 0
1, 8330160, Note_on_c, 1, 37, 40
1, 8332080, Note_off_c, 1, 37, 0
1, 8340600, Note_on_c, 1, 29, 40
1, 8340720, Note_off_c, 1, 29, 0
1, 8340720, Note_on_c, 1, 35, 40
1, 8341200, Note_off_c, 1, 35, 0
1, 8341200, Note_on_c, 1, 38, 40
1, 8341680, Note_off_c, 1, 38, 0
1, 8341680, Note_on_c, 1, 41, 40
1, 8342160, Note_off_c, 1, 41, 0
1, 8342160, Note_on_c, 1, 38, 40
1, 8342400, Note_off_c, 1, 38, 0
1, 8342520, Note_on_c, 1, 41, 40
1, 8342640, Note_off_c, 1, 41, 0
1, 8342640, Note_on_c, 1, 35, 40
1, 8343120, Note_off_c, 1, 35, 0
1, 8343120, Note_on_c, 1, 38, 40
1, 8343600, Note_off_c, 1, 38, 0
1, 8343600, Note_on_c, 1, 41, 40
1, 8344080, Note_off_c, 1, 41, 0
1, 8344080, Note_on_c, 1, 38, 40
1, 8344320, Note_off_c, 1, 38, 0
1, 8344440, Note_on_c, 1, 41, 40
1, 8344560, Note_off_c, 1, 41, 0
1, 8344560, Note_on_c, 1, 35, 40
1, 8345040, Note_off_c, 1, 35, 0
1, 8345040, Note_on_c, 1, 38, 40
1, 8345520, Note_off_c, 1, 38, 0
1, 8345520, Note_on_c, 1, 40, 40
1, 8346000, Note_off_c, 1, 40, 0
1, 8346000, Note_on_c, 1, 43, 40
1, 8346480, Note_off_c, 1, 43, 0
1, 8346480, Note_on_c, 1, 47, 40
1, 8346960, Note_off_c, 1, 47, 0
1, 8346960, Note_on_c, 1, 43, 40
1, 8347200, Note_off_c, 1, 43, 0
1, 8347320, Note_on_c, 1, 47, 40
1, 8347440, Note_off_c, 1, 47, 0
1, 8347440, Note_on_c, 1, 40, 40
1, 8347920, Note_off_c, 1, 40, 0
1, 8347920, Note_on_c, 1, 43, 40
1, 8348400, Note_off_c, 1, 43, 0
1, 8348400, Note_on_c, 1, 47, 40
1, 8348880, Note_off_c, 1, 47, 0
1, 8348880, Note_on_c, 1, 48, 40
1, 8349120, Note_off_c, 1, 48, 0
1, 8349240, Note_on_c, 1, 47, 40
1, 8349360, Note_off_c, 1, 47, 0
1, 8349360, Note_on_c, 1, 35, 40
1, 8349840, Note_off_c, 1, 35, 0
1, 8349840, Note_on_c, 1, 38, 40
1, 8350320, Note_off_c, 1, 38, 0
1, 8350320, Note_on_c, 1, 41, 40
1, 8350800, Note_off_c, 1, 41, 0
1, 8350800, Note_on_c, 1, 38, 40
1, 8351040, Note_off_c, 1, 38, 0
1, 8351160, Note_on_c, 1, 41, 40
1, 8351280, Note_off_c, 1, 41, 0
1, 8351280, Note_on_c, 1, 35, 40
1, 8351760, Note_off_c, 1, 35, 0
1, 8351760, Note_on_c, 1, 38, 40
1, 8352240, Note_off_c, 1, 38, 0
1, 8352240, Note_on_c, 1, 41, 40
1, 8352720, Note_off_c, 1, 41, 0
1, 8352720, Note_on_c, 1, 38, 40
1, 8352960, Note_off_c, 1, 38, 0
1, 8353080, Note_on_c, 1, 41, 40
1, 8353200, Note_off_c, 1, 41, 0
1, 8353200, Note_on_c, 1, 35, 40
1, 8353680, Note_off_c, 1, 35, 0
1, 8353680, Note_on_c, 1, 38, 40
1, 8354160, Note_off_c, 1, 38, 0
1, 8354160, Note_on_c, 1, 41, 40
1, 8354640, Note_off_c, 1, 41, 0
1, 8354640, Note_on_c, 1, 38, 40
1, 8354880, Note_off_c, 1, 38, 0
1, 8355000, Note_on_c, 1, 41, 40
1, 8355120, Note_off_c, 1, 41, 0
1, 8355120, Note_on_c, 1, 35, 40
1, 8355600, Note_off_c, 1, 35, 0
1, 8355600, Note_on_c, 1, 38, 40
1, 8356080, Note_off_c, 1, 38, 0
1, 8356080, Note_on_c, 1, 41, 40
1, 8356560, Note_off_c, 1, 41, 0
1, 8356560, Note_on_c, 1, 38, 40
1, 8356800, Note_off_c, 1, 38, 0
1, 8356920, Note_on_c, 1, 41, 40
1, 8357040, Note_off_c, 1, 41, 0
1, 8357040, Note_on_c, 1, 35, 40
1, 8357520, Note_off_c, 1, 35, 0
1, 8357520, Note_on_c, 1, 38, 40
1, 8358000, Note_off_c, 1, 38, 0
1, 8358000, Note_on_c, 1, 40, 40
1, 8358480, Note_off_c, 1, 40, 0
1, 8358480, Note_on_c, 1, 43, 40
1, 8358960, Note_off_c, 1, 43, 0
1, 8358960, Note_on_c, 1, 47, 40
1, 8359440, Note_off_c, 1, 47, 0
1, 8359440, Note_on_c, 1, 43, 40
1, 8359680, Note_off_c, 1, 43, 0
1, 8359800, Note_on_c, 1, 47, 40
1, 8359920, Note_off_c, 1, 47, 0
1, 8359920, Note_on_c, 1, 40, 40
1, 8360400, Note_off_c, 1, 40, 0
1, 8360400, Note_on_c, 1, 43, 40
1, 8360880, Note_off_c, 1, 43, 0
1, 8360880, Note_on_c, 1, 47, 40
1, 8361360, Note_off_c, 1, 47, 0
1, 8361360, Note_on_c, 1, 43, 40
1, 8361600, Note_off_c, 1, 43, 0
1, 8361720, Note_on_c, 1, 47, 40
1, 8361840, Note_off_c, 1, 47, 0
1, 8361840, Note_on_c, 1, 41, 40
1, 8362320, Note_off_c, 1, 41, 0
1, 8362320, Note_on_c, 1, 40, 40
1, 8362800, Note_off_c, 1, 40, 0
1, 8362800, Note_on_c, 1, 38, 40
1, 8363280, Note_off_c, 1, 38, 0
1, 8363280, Note_on_c, 1, 36, 40
1, 8363520, Note_off_c, 1, 36, 0
1, 8363640, Note_on_c, 1, 35, 40
1, 8363760, Note_off_c, 1, 35, 0
1, 8363760, Note_on_c, 1, 33, 40
1, 8363880, Note_off_c, 1, 33, 0
1, 8364240, Note_on_c, 1, 33, 40
1, 8364720, Note_off_c, 1, 33, 0
1, 8364720, Note_on_c, 1, 36, 40
1, 8365200, Note_off_c, 1, 36, 0
1, 8365200, Note_on_c, 1, 33, 40
1, 8365440, Note_off_c, 1, 33, 0
1, 8365560, Note_on_c, 1, 36, 40
1, 8365680, Note_off_c, 1, 36, 0
1, 8365680, Note_on_c, 1, 31, 40
1, 8366160, Note_off_c, 1, 31, 0
1, 8367600, Note_on_c, 1, 29, 40
1, 8368080, Note_off_c, 1, 29, 0
1, 8369520, Note_on_c, 1, 31, 40
1, 8370000, Note_off_c, 1, 31, 0
1, 8371440, Note_on_c, 1, 33, 40
1, 8371680, Note_off_c, 1, 33, 0
1, 8371800, Note_on_c, 1, 35, 40
1, 8372280, Note_off_c, 1, 35, 0
1, 8372280, Note_on_c, 1, 31, 40
1, 8372880, Note_off_c, 1, 31, 0
1, 8372880, Note_on_c, 1, 31, 40
1, 8373360, Note_off_c, 1, 31, 0
1, 8373360, Note_on_c, 1, 31, 40
1, 8373840, Note_off_c, 1, 31, 0
1, 8373840, Note_on_c, 1, 31, 40
1, 8374320, Note_off_c, 1, 31, 0
1, 8374320, Note_on_c, 1, 29, 40
1, 8374800, Note_off_c, 1, 29, 0
1, 8374800, Note_on_c, 1, 29, 40
1, 8375280, Note_off_c, 1, 29, 0
1, 8375280, Note_on_c, 1, 29, 40
1, 8375760, Note_off_c, 1, 29, 0
1, 8375760, Note_on_c, 1, 29, 40
1, 8376000, Note_off_c, 1, 29, 0
1, 8376120, Note_on_c, 1, 29, 40
1, 8376240, Note_off_c, 1, 29, 0
1, 8376240, Note_on_c, 1, 35, 40
1, 8376480, Note_off_c, 1, 35, 0
1, 8376600, Note_on_c, 1, 29, 40
1, 8376720, Note_off_c, 1, 29, 0
1, 8376720, Note_on_c, 1, 35, 40
1, 8376960, Note_off_c, 1, 35, 0
1, 8377080, Note_on_c, 1, 29, 40
1, 8377200, Note_off_c, 1, 29, 0
1, 8377200, Note_on_c, 1, 35, 40
1, 8377440, Note_off_c, 1, 35, 0
1, 8377560, Note_on_c, 1, 29, 40
1, 8377680, Note_off_c, 1, 29, 0
1, 8377680, Note_on_c, 1, 35, 40
1, 8377920, Note_off_c, 1, 35, 0
1, 8378040, Note_on_c, 1, 29, 40
1, 8378160, Note_off_c, 1, 29, 0
1, 8378160, Note_on_c, 1, 40, 40
1, 8378400, Note_off_c, 1, 40, 0
1, 8378520, Note_on_c, 1, 35, 40
1, 8378640, Note_off_c, 1, 35, 0
1, 8378640, Note_on_c, 1, 40, 40
1, 8378880, Note_off_c, 1, 40, 0
1, 8379000, Note_on_c, 1, 35, 40
1, 8379120, Note_off_c, 1, 35, 0
1, 8379120, Note_on_c, 1, 40, 40
1, 8379360, Note_off_c, 1, 40, 0
1, 8379480, Note_on_c, 1, 31, 40
1, 8379600, Note_off_c, 1, 31, 0
1, 8379600, Note_on_c, 1, 33, 40
1, 8379840, Note_off_c, 1, 33, 0
1, 8379960, Note_on_c, 1, 33, 40
1, 8380080, Note_off_c, 1, 33, 0
1, 8380080, Note_on_c, 1, 35, 40
1, 8380320, Note_off_c, 1, 35, 0
1, 8380440, Note_on_c, 1, 29, 40
1, 8380560, Note_off_c, 1, 29, 0
1, 8380560, Note_on_c, 1, 35, 40
1, 8380800, Note_off_c, 1, 35, 0
1, 8380920, Note_on_c, 1, 29, 40
1, 8381040, Note_off_c, 1, 29, 0
1, 8381040, Note_on_c, 1, 35, 40
1, 8381280, Note_off_c, 1, 35, 0
1, 8381400, Note_on_c, 1, 29, 40
1, 8381520, Note_off_c, 1, 29, 0
1, 8381520, Note_on_c, 1, 35, 40
1, 8381760, Note_off_c, 1, 35, 0
1, 8381880, Note_on_c, 1, 29, 40
1, 8382000, Note_off_c, 1, 29, 0
1, 8382000, Note_on_c, 1, 40, 40
1, 8382240, Note_off_c, 1, 40, 0
1, 8382360, Note_on_c, 1, 35, 40
1, 8382480, Note_off_c, 1, 35, 0
1, 8382480, Note_on_c, 1, 40, 40
1, 8382720, Note_off_c, 1, 40, 0
1, 8382840, Note_on_c, 1, 35, 40
1, 8382960, Note_off_c, 1, 35, 0
1, 8382960, Note_on_c, 1, 40, 40
1, 8383200, Note_off_c, 1, 40, 0
1, 8383320, Note_on_c, 1, 31, 40
1, 8383440, Note_off_c, 1, 31, 0
1, 8383440, Note_on_c, 1, 33, 40
1, 8383680, Note_off_c, 1, 33, 0
1, 8383800, Note_on_c, 1, 33, 40
1, 8383920, Note_off_c, 1, 33, 0
1, 8383920, Note_on_c, 1, 35, 40
1, 8384160, Note_off_c, 1, 35, 0
1, 8384280, Note_on_c, 1, 29, 40
1, 8384400, Note_off_c, 1, 29, 0
1, 8384400, Note_on_c, 1, 35, 40
1, 8384640, Note_off_c, 1, 35, 0
1, 8384760, Note_on_c, 1, 29, 40
1, 8384880, Note_off_c, 1, 29, 0
1, 8384880, Note_on_c, 1, 35, 40
1, 8385120, Note_off_c, 1, 35, 0
1, 8385240, Note_on_c, 1, 29, 40
1, 8385360, Note_off_c, 1, 29, 0
1, 8385360, Note_on_c, 1, 35, 40
1, 8385600, Note_off_c, 1, 35, 0
1, 8385720, Note_on_c, 1, 29, 40
1, 8385840, Note_off_c, 1, 29, 0
1, 8385840, Note_on_c, 1, 40, 40
1, 8386080, Note_off_c, 1, 40, 0
1, 8386200, Note_on_c, 1, 35, 40
1, 8386320, Note_off_c, 1, 35, 0
1, 8386320, Note_on_c, 1, 40, 40
1, 8386560, Note_off_c, 1, 40, 0
1, 8386680, Note_on_c, 1, 35, 40
1, 8386800, Note_off_c, 1, 35, 0
1, 8386800, Note_on_c, 1, 40, 40
1, 8387040, Note_off_c, 1, 40, 0
1, 8387160, Note_on_c, 1, 31, 40
1, 8387280, Note_off_c, 1, 31, 0
1, 8387280, Note_on_c, 1, 33, 40
1, 8387520, Note_off_c, 1, 33, 0
1, 8387640, Note_on_c, 1, 33, 40
1, 8387760, Note_off_c, 1, 33, 0
1, 8387760, Note_on_c, 1, 29, 40
1, 8389560, Note_off_c, 1, 29, 0
1, 8389680, Note_on_c, 1, 29, 40
1, 8390400, Note_off_c, 1, 29, 0
1, 8390520, Note_on_c, 1, 29, 40
1, 8391000, Note_off_c, 1, 29, 0
1, 8391000, Note_on_c, 1, 29, 40
1, 8391480, Note_off_c, 1, 29, 0
1, 8391480, Note_on_c, 1, 33, 40
1, 8391600, Note_off_c, 1, 33, 0
1, 8391600, Note_on_c, 1, 35, 40
1, 8392080, Note_off_c, 1, 35, 0
1, 8392080, Note_on_c, 1, 38, 40
1, 8392560, Note_off_c, 1, 38, 0
1, 8392560, Note_on_c, 1, 41, 40
1, 8393040, Note_off_c, 1, 41, 0
1, 8393040, Note_on_c, 1, 38, 40
1, 8393280, Note_off_c, 1, 38, 0
1, 8393400, Note_on_c, 1, 41, 40
1, 8393520, Note_off_c, 1, 41, 0
1, 8393520, Note_on_c, 1, 35, 40
1, 8394000, Note_off_c, 1, 35, 0
1, 8394000, Note_on_c, 1, 38, 40
1, 8394480, Note_off_c, 1, 38, 0
1, 8394480, Note_on_c, 1, 41, 40
1, 8394960, Note_off_c, 1, 41, 0
1, 8394960, Note_on_c, 1, 38, 40
1, 8395200, Note_off_c, 1, 38, 0
1, 8395320, Note_on_c, 1, 41, 40
1, 8395440, Note_off_c, 1, 41, 0
1, 8395440, Note_on_c, 1, 35, 40
1, 8395920, Note_off_c, 1, 35, 0
1, 8395920, Note_on_c, 1, 38, 40
1, 8396400, Note_off_c, 1, 38, 0
1, 8396400, Note_on_c, 1, 40, 40
1, 8396880, Note_off_c, 1, 40, 0
1, 8396880, Note_on_c, 1, 43, 40
1, 8397360, Note_off_c, 1, 43, 0
1, 8397360, Note_on_c, 1, 47, 40
1, 8397840, Note_off_c, 1, 47, 0
1, 8397840, Note_on_c, 1, 43, 40
1, 8398080, Note_off_c, 1, 43, 0
1, 8398200, Note_on_c, 1, 47, 40
1, 8398320, Note_off_c, 1, 47, 0
1, 8398320, Note_on_c, 1, 40, 40
1, 8398800, Note_off_c, 1, 40, 0
1, 8398800, Note_on_c, 1, 43, 40
1, 8399280, Note_off_c, 1, 43, 0
1, 8399280, Note_on_c, 1, 47, 40
1, 8399760, Note_off_c, 1, 47, 0
1, 8399760, Note_on_c, 1, 48, 40
1, 8400000, Note_off_c, 1, 48, 0
1, 8400120, Note_on_c, 1, 47, 40
1, 8400240, Note_off_c, 1, 47, 0
1, 8400240, Note_on_c, 1, 35, 40
1, 8400720, Note_off_c, 1, 35, 0
1, 8400720, Note_on_c, 1, 38, 40
1, 8401200, Note_off_c, 1, 38, 0
1, 8401200, Note_on_c, 1, 41, 40
1, 8401680, Note_off_c, 1, 41, 0
1, 8401680, Note_on_c, 1, 38, 40
1, 8401920, Note_off_c, 1, 38, 0
1, 8402040, Note_on_c, 1, 41, 40
1, 8402160, Note_off_c, 1, 41, 0
1, 8402160, Note_on_c, 1, 35, 40
1, 8402640, Note_off_c, 1, 35, 0
1, 8402640, Note_on_c, 1, 38, 40
1, 8403120, Note_off_c, 1, 38, 0
1, 8403120, Note_on_c, 1, 41, 40
1, 8403600, Note_off_c, 1, 41, 0
1, 8403600, Note_on_c, 1, 38, 40
1, 8403840, Note_off_c, 1, 38, 0
1, 8403960, Note_on_c, 1, 41, 40
1, 8404080, Note_off_c, 1, 41, 0
1, 8404080, Note_on_c, 1, 35, 40
1, 8404560, Note_off_c, 1, 35, 0
1, 8404560, Note_on_c, 1, 38, 40
1, 8405040, Note_off_c, 1, 38, 0
1, 8405040, Note_on_c, 1, 41, 40
1, 8405520, Note_off_c, 1, 41, 0
1, 8405520, Note_on_c, 1, 38, 40
1, 8405760, Note_off_c, 1, 38, 0
1, 8405880, Note_on_c, 1, 41, 40
1, 8406000, Note_off_c, 1, 41, 0
1, 8406000, Note_on_c, 1, 35, 40
1, 8406480, Note_off_c, 1, 35, 0
1, 8406480, Note_on_c, 1, 38, 40
1, 8406960, Note_off_c, 1, 38, 0
1, 8406960, Note_on_c, 1, 41, 40
1, 8407440, Note_off_c, 1, 41, 0
1, 8407440, Note_on_c, 1, 38, 40
1, 8407680, Note_off_c, 1, 38, 0
1, 8407800, Note_on_c, 1, 41, 40
1, 8407920, Note_off_c, 1, 41, 0
1, 8407920, Note_on_c, 1, 35, 40
1, 8408400, Note_off_c, 1, 35, 0
1, 8408400, Note_on_c, 1, 38, 40
1, 8408880, Note_off_c, 1, 38, 0
1, 8408880, Note_on_c, 1, 40, 40
1, 8409360, Note_off_c, 1, 40, 0
1, 8409360, Note_on_c, 1, 43, 40
1, 8409840, Note_off_c, 1, 43, 0
1, 8409840, Note_on_c, 1, 47, 40
1, 8410320, Note_off_c, 1, 47, 0
1, 8410320, Note_on_c, 1, 43, 40
1, 8410560, Note_off_c, 1, 43, 0
1, 8410680, Note_on_c, 1, 47, 40
1, 8410800, Note_off_c, 1, 47, 0
1, 8410800, Note_on_c, 1, 40, 40
1, 8411280, Note_off_c, 1, 40, 0
1, 8411280, Note_on_c, 1, 43, 40
1, 8411760, Note_off_c, 1, 43, 0
1, 8411760, Note_on_c, 1, 47, 40
1, 8412240, Note_off_c, 1, 47, 0
1, 8412240, Note_on_c, 1, 43, 40
1, 8412480, Note_off_c, 1, 43, 0
1, 8412600, Note_on_c, 1, 47, 40
1, 8412720, Note_off_c, 1, 47, 0
1, 8412720, Note_on_c, 1, 41, 40
1, 8413200, Note_off_c, 1, 41, 0
1, 8413200, Note_on_c, 1, 40, 40
1, 8413680, Note_off_c, 1, 40, 0
1, 8413680, Note_on_c, 1, 38, 40
1, 8414160, Note_off_c, 1, 38, 0
1, 8414160, Note_on_c, 1, 36, 40
1, 8414400, Note_off_c, 1, 36, 0
1, 8414520, Note_on_c, 1, 35, 40
1, 8414640, Note_off_c, 1, 35, 0
1, 8414640, Note_on_c, 1, 33, 40
1, 8414760, Note_off_c, 1, 33, 0
1, 8415120, Note_on_c, 1, 33, 40
1, 8415600, Note_off_c, 1, 33, 0
1, 8415600, Note_on_c, 1, 36, 40
1, 8416080, Note_off_c, 1, 36, 0
1, 8416080, Note_on_c, 1, 33, 40
1, 8416320, Note_off_c, 1, 33, 0
1, 8416440, Note_on_c, 1, 36, 40
1, 8416560, Note_off_c, 1, 36, 0
1, 8416560, Note_on_c, 1, 31, 40
1, 8417040, Note_off_c, 1, 31, 0
1, 8418480, Note_on_c, 1, 29, 40
1, 8418960, Note_off_c, 1, 29, 0
1, 8420400, Note_on_c, 1, 31, 40
1, 8420880, Note_off_c, 1, 31, 0
1, 8422320, Note_on_c, 1, 33, 40
1, 8422560, Note_off_c, 1, 33, 0
1, 8422680, Note_on_c, 1, 35, 40
1, 8423160, Note_off_c, 1, 35, 0
1, 8423160, Note_on_c, 1, 31, 40
1, 8423760, Note_off_c, 1, 31, 0
1, 8423760, Note_on_c, 1, 31, 40
1, 8424240, Note_off_c, 1, 31, 0
1, 8424240, Note_on_c, 1, 31, 40
1, 8424720, Note_off_c, 1, 31, 0
1, 8424720, Note_on_c, 1, 31, 40
1, 8425200, Note_off_c, 1, 31, 0
1, 8425200, Note_on_c, 1, 29, 40
1, 8425680, Note_off_c, 1, 29, 0
1, 8425680, Note_on_c, 1, 29, 40
1, 8426160, Note_off_c, 1, 29, 0
1, 8426160, Note_on_c, 1, 29, 40
1, 8426640, Note_off_c, 1, 29, 0
1, 8426640, Note_on_c, 1, 29, 40
1, 8426880, Note_off_c, 1, 29, 0
1, 8427000, Note_on_c, 1, 29, 40
1, 8427120, Note_off_c, 1, 29, 0
1, 8427120, Note_on_c, 1, 35, 40
1, 8427360, Note_off_c, 1, 35, 0
1, 8427480, Note_on_c, 1, 29, 40
1, 8427600, Note_off_c, 1, 29, 0
1, 8427600, Note_on_c, 1, 35, 40
1, 8427840, Note_off_c, 1, 35, 0
1, 8427960, Note_on_c, 1, 29, 40
1, 8428080, Note_off_c, 1, 29, 0
1, 8428080, Note_on_c, 1, 35, 40
1, 8428320, Note_off_c, 1, 35, 0
1, 8428440, Note_on_c, 1, 29, 40
1, 8428560, Note_off_c, 1, 29, 0
1, 8428560, Note_on_c, 1, 35, 40
1, 8428800, Note_off_c, 1, 35, 0
1, 8428920, Note_on_c, 1, 29, 40
1, 8429040, Note_off_c, 1, 29, 0
1, 8429040, Note_on_c, 1, 40, 40
1, 8429280, Note_off_c, 1, 40, 0
1, 8429400, Note_on_c, 1, 35, 40
1, 8429520, Note_off_c, 1, 35, 0
1, 8429520, Note_on_c, 1, 40, 40
1, 8429760, Note_off_c, 1, 40, 0
1, 8429880, Note_on_c, 1, 35, 40
1, 8430000, Note_off_c, 1, 35, 0
1, 8430000, Note_on_c, 1, 40, 40
1, 8430240, Note_off_c, 1, 40, 0
1, 8430360, Note_on_c, 1, 31, 40
1, 8430480, Note_off_c, 1, 31, 0
1, 8430480, Note_on_c, 1, 33, 40
1, 8430720, Note_off_c, 1, 33, 0
1, 8430840, Note_on_c, 1, 33, 40
1, 8430960, Note_off_c, 1, 33, 0
1, 8430960, Note_on_c, 1, 35, 40
1, 8431200, Note_off_c, 1, 35, 0
1, 8431320, Note_on_c, 1, 29, 40
1, 8431440, Note_off_c, 1, 29, 0
1, 8431440, Note_on_c, 1, 35, 40
1, 8431680, Note_off_c, 1, 35, 0
1, 8431800, Note_on_c, 1, 29, 40
1, 8431920, Note_off_c, 1, 29, 0
1, 8431920, Note_on_c, 1, 35, 40
1, 8432160, Note_off_c, 1, 35, 0
1, 8432280, Note_on_c, 1, 29, 40
1, 8432400, Note_off_c, 1, 29, 0
1, 8432400, Note_on_c, 1, 35, 40
1, 8432640, Note_off_c, 1, 35, 0
1, 8432760, Note_on_c, 1, 29, 40
1, 8432880, Note_off_c, 1, 29, 0
1, 8432880, Note_on_c, 1, 40, 40
1, 8433120, Note_off_c, 1, 40, 0
1, 8433240, Note_on_c, 1, 35, 40
1, 8433360, Note_off_c, 1, 35, 0
1, 8433360, Note_on_c, 1, 40, 40
1, 8433600, Note_off_c, 1, 40, 0
1, 8433720, Note_on_c, 1, 35, 40
1, 8433840, Note_off_c, 1, 35, 0
1, 8433840, Note_on_c, 1, 40, 40
1, 8434080, Note_off_c, 1, 40, 0
1, 8434200, Note_on_c, 1, 31, 40
1, 8434320, Note_off_c, 1, 31, 0
1, 8434320, Note_on_c, 1, 33, 40
1, 8434560, Note_off_c, 1, 33, 0
1, 8434680, Note_on_c, 1, 33, 40
1, 8434800, Note_off_c, 1, 33, 0
1, 8434800, Note_on_c, 1, 35, 40
1, 8435040, Note_off_c, 1, 35, 0
1, 8435160, Note_on_c, 1, 29, 40
1, 8435280, Note_off_c, 1, 29, 0
1, 8435280, Note_on_c, 1, 35, 40
1, 8435520, Note_off_c, 1, 35, 0
1, 8435640, Note_on_c, 1, 29, 40
1, 8435760, Note_off_c, 1, 29, 0
1, 8435760, Note_on_c, 1, 35, 40
1, 8436000, Note_off_c, 1, 35, 0
1, 8436120, Note_on_c, 1, 29, 40
1, 8436240, Note_off_c, 1, 29, 0
1, 8436240, Note_on_c, 1, 35, 40
1, 8436480, Note_off_c, 1, 35, 0
1, 8436600, Note_on_c, 1, 29, 40
1, 8436720, Note_off_c, 1, 29, 0
1, 8436720, Note_on_c, 1, 40, 40
1, 8436960, Note_off_c, 1, 40, 0
1, 8437080, Note_on_c, 1, 35, 40
1, 8437200, Note_off_c, 1, 35, 0
1, 8437200, Note_on_c, 1, 40, 40
1, 8437440, Note_off_c, 1, 40, 0
1, 8437560, Note_on_c, 1, 35, 40
1, 8437680, Note_off_c, 1, 35, 0
1, 8437680, Note_on_c, 1, 40, 40
1, 8437920, Note_off_c, 1, 40, 0
1, 8438040, Note_on_c, 1, 31, 40
1, 8438160, Note_off_c, 1, 31, 0
1, 8438160, Note_on_c, 1, 33, 40
1, 8438400, Note_off_c, 1, 33, 0
1, 8438520, Note_on_c, 1, 33, 40
1, 8438640, Note_off_c, 1, 33, 0
1, 8438640, Note_on_c, 1, 29, 40
1, 8440560, Note_off_c, 1, 29, 0
1, 8440560, Note_on_c, 1, 29, 40
1, 8441640, Note_off_c, 1, 29, 0
1, 8441880, Note_on_c, 1, 29, 40
1, 8442120, Note_off_c, 1, 29, 0
1, 8442120, Note_on_c, 1, 29, 40
1, 8442240, Note_off_c, 1, 29, 0
1, 8442240, Note_on_c, 1, 31, 40
1, 8442360, Note_off_c, 1, 31, 0
1, 8442360, Note_on_c, 1, 33, 40
1, 8442480, Note_off_c, 1, 33, 0
1, 8442480, Note_on_c, 1, 35, 40
1, 8442720, Note_off_c, 1, 35, 0
1, 8442840, Note_on_c, 1, 29, 40
1, 8442960, Note_off_c, 1, 29, 0
1, 8442960, Note_on_c, 1, 35, 40
1, 8443200, Note_off_c, 1, 35, 0
1, 8443320, Note_on_c, 1, 29, 40
1, 8443440, Note_off_c, 1, 29, 0
1, 8443440, Note_on_c, 1, 35, 40
1, 8443680, Note_off_c, 1, 35, 0
1, 8443800, Note_on_c, 1, 29, 40
1, 8443920, Note_off_c, 1, 29, 0
1, 8443920, Note_on_c, 1, 35, 40
1, 8444160, Note_off_c, 1, 35, 0
1, 8444280, Note_on_c, 1, 29, 40
1, 8444400, Note_off_c, 1, 29, 0
1, 8444400, Note_on_c, 1, 35, 40
1, 8444640, Note_off_c, 1, 35, 0
1, 8444760, Note_on_c, 1, 29, 40
1, 8444880, Note_off_c, 1, 29, 0
1, 8444880, Note_on_c, 1, 35, 40
1, 8445120, Note_off_c, 1, 35, 0
1, 8445240, Note_on_c, 1, 29, 40
1, 8445360, Note_off_c, 1, 29, 0
1, 8445360, Note_on_c, 1, 35, 40
1, 8445600, Note_off_c, 1, 35, 0
1, 8445720, Note_on_c, 1, 29, 40
1, 8445840, Note_off_c, 1, 29, 0
1, 8445840, Note_on_c, 1, 35, 40
1, 8446080, Note_off_c, 1, 35, 0
1, 8446200, Note_on_c, 1, 29, 40
1, 8446320, Note_off_c, 1, 29, 0
1, 8446320, Note_on_c, 1, 35, 40
1, 8446560, Note_off_c, 1, 35, 0
1, 8446680, Note_on_c, 1, 29, 40
1, 8446800, Note_off_c, 1, 29, 0
1, 8446800, Note_on_c, 1, 35, 40
1, 8447040, Note_off_c, 1, 35, 0
1, 8447160, Note_on_c, 1, 29, 40
1, 8447280, Note_off_c, 1, 29, 0
1, 8447280, Note_on_c, 1, 40, 40
1, 8447520, Note_off_c, 1, 40, 0
1, 8447640, Note_on_c, 1, 35, 40
1, 8447760, Note_off_c, 1, 35, 0
1, 8447760, Note_on_c, 1, 40, 40
1, 8448000, Note_off_c, 1, 40, 0
1, 8448120, Note_on_c, 1, 35, 40
1, 8448240, Note_off_c, 1, 35, 0
1, 8448240, Note_on_c, 1, 40, 40
1, 8448480, Note_off_c, 1, 40, 0
1, 8448600, Note_on_c, 1, 35, 40
1, 8448720, Note_off_c, 1, 35, 0
1, 8448720, Note_on_c, 1, 40, 40
1, 8448960, Note_off_c, 1, 40, 0
1, 8449080, Note_on_c, 1, 35, 40
1, 8449200, Note_off_c, 1, 35, 0
1, 8449200, Note_on_c, 1, 40, 40
1, 8449440, Note_off_c, 1, 40, 0
1, 8449560, Note_on_c, 1, 35, 40
1, 8449680, Note_off_c, 1, 35, 0
1, 8449680, Note_on_c, 1, 40, 40
1, 8449920, Note_off_c, 1, 40, 0
1, 8450040, Note_on_c, 1, 35, 40
1, 8450160, Note_off_c, 1, 35, 0
1, 8450160, Note_on_c, 1, 40, 40
1, 8450400, Note_off_c, 1, 40, 0
1, 8450520, Note_on_c, 1, 35, 40
1, 8450640, Note_off_c, 1, 35, 0
1, 8450640, Note_on_c, 1, 40, 40
1, 8450880, Note_off_c, 1, 40, 0
1, 8451000, Note_on_c, 1, 35, 40
1, 8451120, Note_off_c, 1, 35, 0
1, 8451120, Note_on_c, 1, 41, 40
1, 8451360, Note_off_c, 1, 41, 0
1, 8451480, Note_on_c, 1, 36, 40
1, 8451600, Note_off_c, 1, 36, 0
1, 8451600, Note_on_c, 1, 41, 40
1, 8451840, Note_off_c, 1, 41, 0
1, 8451960, Note_on_c, 1, 36, 40
1, 8452080, Note_off_c, 1, 36, 0
1, 8452080, Note_on_c, 1, 41, 40
1, 8452320, Note_off_c, 1, 41, 0
1, 8452440, Note_on_c, 1, 36, 40
1, 8452560, Note_off_c, 1, 36, 0
1, 8452560, Note_on_c, 1, 41, 40
1, 8452800, Note_off_c, 1, 41, 0
1, 8452920, Note_on_c, 1, 36, 40
1, 8453040, Note_off_c, 1, 36, 0
1, 8453040, Note_on_c, 1, 41, 40
1, 8453280, Note_off_c, 1, 41, 0
1, 8453400, Note_on_c, 1, 36, 40
1, 8453520, Note_off_c, 1, 36, 0
1, 8453520, Note_on_c, 1, 41, 40
1, 8453760, Note_off_c, 1, 41, 0
1, 8453880, Note_on_c, 1, 36, 40
1, 8454000, Note_off_c, 1, 36, 0
1, 8454000, Note_on_c, 1, 41, 40
1, 8454240, Note_off_c, 1, 41, 0
1, 8454360, Note_on_c, 1, 36, 40
1, 8454480, Note_off_c, 1, 36, 0
1, 8454480, Note_on_c, 1, 41, 40
1, 8454720, Note_off_c, 1, 41, 0
1, 8454840, Note_on_c, 1, 36, 40
1, 8454960, Note_off_c, 1, 36, 0
1, 8454960, Note_on_c, 1, 41, 40
1, 8455200, Note_off_c, 1, 41, 0
1, 8455320, Note_on_c, 1, 36, 40
1, 8455440, Note_off_c, 1, 36, 0
1, 8455440, Note_on_c, 1, 41, 40
1, 8455680, Note_off_c, 1, 41, 0
1, 8455800, Note_on_c, 1, 36, 40
1, 8455920, Note_off_c, 1, 36, 0
1, 8455920, Note_on_c, 1, 33, 40
1, 8456040, Note_off_c, 1, 33, 0
1, 8456040, Note_on_c, 1, 35, 40
1, 8456160, Note_off_c, 1, 35, 0
1, 8456280, Note_on_c, 1, 35, 40
1, 8456400, Note_off_c, 1, 35, 0
1, 8456400, Note_on_c, 1, 36, 40
1, 8456520, Note_off_c, 1, 36, 0
1, 8456520, Note_on_c, 1, 35, 40
1, 8456640, Note_off_c, 1, 35, 0
1, 8456760, Note_on_c, 1, 35, 40
1, 8456880, Note_off_c, 1, 35, 0
1, 8456880, Note_on_c, 1, 33, 40
1, 8457000, Note_off_c, 1, 33, 0
1, 8457000, Note_on_c, 1, 35, 40
1, 8457120, Note_off_c, 1, 35, 0
1, 8457240, Note_on_c, 1, 35, 40
1, 8457360, Note_off_c, 1, 35, 0
1, 8457360, Note_on_c, 1, 36, 40
1, 8457480, Note_off_c, 1, 36, 0
1, 8457480, Note_on_c, 1, 35, 40
1, 8457600, Note_off_c, 1, 35, 0
1, 8457720, Note_on_c, 1, 35, 40
1, 8457840, Note_off_c, 1, 35, 0
1, 8457840, Note_on_c, 1, 33, 40
1, 8457960, Note_off_c, 1, 33, 0
1, 8457960, Note_on_c, 1, 35, 40
1, 8458080, Note_off_c, 1, 35, 0
1, 8458200, Note_on_c, 1, 35, 40
1, 8458320, Note_off_c, 1, 35, 0
1, 8458320, Note_on_c, 1, 36, 40
1, 8458440, Note_off_c, 1, 36, 0
1, 8458440, Note_on_c, 1, 35, 40
1, 8458560, Note_off_c, 1, 35, 0
1, 8458560, Note_on_c, 1, 33, 40
1, 8458680, Note_off_c, 1, 33, 0
1, 8458680, Note_on_c, 1, 33, 40
1, 8458800, Note_off_c, 1, 33, 0
1, 8458800, Note_on_c, 1, 35, 40
1, 8459280, Note_off_c, 1, 35, 0
1, 8459280, Note_on_c, 1, 38, 40
1, 8459760, Note_off_c, 1, 38, 0
1, 8459760, Note_on_c, 1, 41, 40
1, 8460240, Note_off_c, 1, 41, 0
1, 8460240, Note_on_c, 1, 38, 40
1, 8460480, Note_off_c, 1, 38, 0
1, 8460600, Note_on_c, 1, 41, 40
1, 8460720, Note_off_c, 1, 41, 0
1, 8460720, Note_on_c, 1, 35, 40
1, 8461200, Note_off_c, 1, 35, 0
1, 8461200, Note_on_c, 1, 38, 40
1, 8461680, Note_off_c, 1, 38, 0
1, 8461680, Note_on_c, 1, 41, 40
1, 8462160, Note_off_c, 1, 41, 0
1, 8462160, Note_on_c, 1, 38, 40
1, 8462400, Note_off_c, 1, 38, 0
1, 8462520, Note_on_c, 1, 41, 40
1, 8462640, Note_off_c, 1, 41, 0
1, 8462640, Note_on_c, 1, 35, 40
1, 8463120, Note_off_c, 1, 35, 0
1, 8463120, Note_on_c, 1, 38, 40
1, 8463600, Note_off_c, 1, 38, 0
1, 8463600, Note_on_c, 1, 40, 40
1, 8464080, Note_off_c, 1, 40, 0
1, 8464080, Note_on_c, 1, 43, 40
1, 8464560, Note_off_c, 1, 43, 0
1, 8464560, Note_on_c, 1, 47, 40
1, 8465040, Note_off_c, 1, 47, 0
1, 8465040, Note_on_c, 1, 43, 40
1, 8465280, Note_off_c, 1, 43, 0
1, 8465400, Note_on_c, 1, 47, 40
1, 8465520, Note_off_c, 1, 47, 0
1, 8465520, Note_on_c, 1, 40, 40
1, 8466000, Note_off_c, 1, 40, 0
1, 8466000, Note_on_c, 1, 43, 40
1, 8466480, Note_off_c, 1, 43, 0
1, 8466480, Note_on_c, 1, 47, 40
1, 8466960, Note_off_c, 1, 47, 0
1, 8466960, Note_on_c, 1, 48, 40
1, 8467200, Note_off_c, 1, 48, 0
1, 8467320, Note_on_c, 1, 47, 40
1, 8467440, Note_off_c, 1, 47, 0
1, 8467440, Note_on_c, 1, 35, 40
1, 8467920, Note_off_c, 1, 35, 0
1, 8467920, Note_on_c, 1, 38, 40
1, 8468400, Note_off_c, 1, 38, 0
1, 8468400, Note_on_c, 1, 41, 40
1, 8468880, Note_off_c, 1, 41, 0
1, 8468880, Note_on_c, 1, 38, 40
1, 8469120, Note_off_c, 1, 38, 0
1, 8469240, Note_on_c, 1, 41, 40
1, 8469360, Note_off_c, 1, 41, 0
1, 8469360, Note_on_c, 1, 35, 40
1, 8469840, Note_off_c, 1, 35, 0
1, 8469840, Note_on_c, 1, 38, 40
1, 8470320, Note_off_c, 1, 38, 0
1, 8470320, Note_on_c, 1, 41, 40
1, 8470800, Note_off_c, 1, 41, 0
1, 8470800, Note_on_c, 1, 38, 40
1, 8471040, Note_off_c, 1, 38, 0
1, 8471160, Note_on_c, 1, 41, 40
1, 8471280, Note_off_c, 1, 41, 0
1, 8471280, Note_on_c, 1, 35, 40
1, 8471760, Note_off_c, 1, 35, 0
1, 8471760, Note_on_c, 1, 38, 40
1, 8472240, Note_off_c, 1, 38, 0
1, 8472240, Note_on_c, 1, 41, 40
1, 8472720, Note_off_c, 1, 41, 0
1, 8472720, Note_on_c, 1, 38, 40
1, 8472960, Note_off_c, 1, 38, 0
1, 8473080, Note_on_c, 1, 41, 40
1, 8473200, Note_off_c, 1, 41, 0
1, 8473200, Note_on_c, 1, 35, 40
1, 8473680, Note_off_c, 1, 35, 0
1, 8473680, Note_on_c, 1, 38, 40
1, 8474160, Note_off_c, 1, 38, 0
1, 8474160, Note_on_c, 1, 41, 40
1, 8474640, Note_off_c, 1, 41, 0
1, 8474640, Note_on_c, 1, 38, 40
1, 8474880, Note_off_c, 1, 38, 0
1, 8475000, Note_on_c, 1, 41, 40
1, 8475120, Note_off_c, 1, 41, 0
1, 8475120, Note_on_c, 1, 35, 40
1, 8475600, Note_off_c, 1, 35, 0
1, 8475600, Note_on_c, 1, 38, 40
1, 8476080, Note_off_c, 1, 38, 0
1, 8476080, Note_on_c, 1, 40, 40
1, 8476560, Note_off_c, 1, 40, 0
1, 8476560, Note_on_c, 1, 43, 40
1, 8477040, Note_off_c, 1, 43, 0
1, 8477040, Note_on_c, 1, 47, 40
1, 8477520, Note_off_c, 1, 47, 0
1, 8477520, Note_on_c, 1, 43, 40
1, 8477760, Note_off_c, 1, 43, 0
1, 8477880, Note_on_c, 1, 47, 40
1, 8478000, Note_off_c, 1, 47, 0
1, 8478000, Note_on_c, 1, 40, 40
1, 8478480, Note_off_c, 1, 40, 0
1, 8478480, Note_on_c, 1, 43, 40
1, 8478960, Note_off_c, 1, 43, 0
1, 8478960, Note_on_c, 1, 47, 40
1, 8479440, Note_off_c, 1, 47, 0
1, 8479440, Note_on_c, 1, 43, 40
1, 8479680, Note_off_c, 1, 43, 0
1, 8479800, Note_on_c, 1, 47, 40
1, 8479920, Note_off_c, 1, 47, 0
1, 8479920, Note_on_c, 1, 41, 40
1, 8480400, Note_off_c, 1, 41, 0
1, 8480400, Note_on_c, 1, 40, 40
1, 8480880, Note_off_c, 1, 40, 0
1, 8480880, Note_on_c, 1, 38, 40
1, 8481360, Note_off_c, 1, 38, 0
1, 8481360, Note_on_c, 1, 36, 40
1, 8481600, Note_off_c, 1, 36, 0
1, 8481720, Note_on_c, 1, 35, 40
1, 8481840, Note_off_c, 1, 35, 0
1, 8481840, Note_on_c, 1, 33, 40
1, 8481960, Note_off_c, 1, 33, 0
1, 8482320, Note_on_c, 1, 33, 40
1, 8482800, Note_off_c, 1, 33, 0
1, 8482800, Note_on_c, 1, 36, 40
1, 8483280, Note_off_c, 1, 36, 0
1, 8483280, Note_on_c, 1, 33, 40
1, 8483520, Note_off_c, 1, 33, 0
1, 8483640, Note_on_c, 1, 36, 40
1, 8483760, Note_off_c, 1, 36, 0
1, 8483760, Note_on_c, 1, 31, 40
1, 8484240, Note_off_c, 1, 31, 0
1, 8485680, Note_on_c, 1, 29, 40
1, 8486160, Note_off_c, 1, 29, 0
1, 8487600, Note_on_c, 1, 31, 40
1, 8488080, Note_off_c, 1, 31, 0
1, 8489520, Note_on_c, 1, 33, 40
1, 8489760, Note_off_c, 1, 33, 0
1, 8489880, Note_on_c, 1, 35, 40
1, 8490360, Note_off_c, 1, 35, 0
1, 8490360, Note_on_c, 1, 31, 40
1, 8490960, Note_off_c, 1, 31, 0
1, 8490960, Note_on_c, 1, 31, 40
1, 8491440, Note_off_c, 1, 31, 0
1, 8491440, Note_on_c, 1, 31, 40
1, 8491920, Note_off_c, 1, 31, 0
1, 8491920, Note_on_c, 1, 31, 40
1, 8492400, Note_off_c, 1, 31, 0
1, 8492400, Note_on_c, 1, 29, 40
1, 8492880, Note_off_c, 1, 29, 0
1, 8492880, Note_on_c, 1, 29, 40
1, 8493360, Note_off_c, 1, 29, 0
1, 8493360, Note_on_c, 1, 29, 40
1, 8493840, Note_off_c, 1, 29, 0
1, 8493840, Note_on_c, 1, 29, 40
1, 8494080, Note_off_c, 1, 29, 0
1, 8494200, Note_on_c, 1, 29, 40
1, 8494320, Note_off_c, 1, 29, 0
1, 8494320, Note_on_c, 1, 35, 40
1, 8494560, Note_off_c, 1, 35, 0
1, 8494680, Note_on_c, 1, 29, 40
1, 8494800, Note_off_c, 1, 29, 0
1, 8494800, Note_on_c, 1, 35, 40
1, 8495040, Note_off_c, 1, 35, 0
1, 8495160, Note_on_c, 1, 29, 40
1, 8495280, Note_off_c, 1, 29, 0
1, 8495280, Note_on_c, 1, 35, 40
1, 8495520, Note_off_c, 1, 35, 0
1, 8495640, Note_on_c, 1, 29, 40
1, 8495760, Note_off_c, 1, 29, 0
1, 8495760, Note_on_c, 1, 35, 40
1, 8496000, Note_off_c, 1, 35, 0
1, 8496120, Note_on_c, 1, 29, 40
1, 8496240, Note_off_c, 1, 29, 0
1, 8496240, Note_on_c, 1, 40, 40
1, 8496480, Note_off_c, 1, 40, 0
1, 8496600, Note_on_c, 1, 35, 40
1, 8496720, Note_off_c, 1, 35, 0
1, 8496720, Note_on_c, 1, 40, 40
1, 8496960, Note_off_c, 1, 40, 0
1, 8497080, Note_on_c, 1, 35, 40
1, 8497200, Note_off_c, 1, 35, 0
1, 8497200, Note_on_c, 1, 40, 40
1, 8497440, Note_off_c, 1, 40, 0
1, 8497560, Note_on_c, 1, 31, 40
1, 8497680, Note_off_c, 1, 31, 0
1, 8497680, Note_on_c, 1, 33, 40
1, 8497920, Note_off_c, 1, 33, 0
1, 8498040, Note_on_c, 1, 33, 40
1, 8498160, Note_off_c, 1, 33, 0
1, 8498160, Note_on_c, 1, 35, 40
1, 8498400, Note_off_c, 1, 35, 0
1, 8498520, Note_on_c, 1, 29, 40
1, 8498640, Note_off_c, 1, 29, 0
1, 8498640, Note_on_c, 1, 35, 40
1, 8498880, Note_off_c, 1, 35, 0
1, 8499000, Note_on_c, 1, 29, 40
1, 8499120, Note_off_c, 1, 29, 0
1, 8499120, Note_on_c, 1, 35, 40
1, 8499360, Note_off_c, 1, 35, 0
1, 8499480, Note_on_c, 1, 29, 40
1, 8499600, Note_off_c, 1, 29, 0
1, 8499600, Note_on_c, 1, 35, 40
1, 8499840, Note_off_c, 1, 35, 0
1, 8499960, Note_on_c, 1, 29, 40
1, 8500080, Note_off_c, 1, 29, 0
1, 8500080, Note_on_c, 1, 40, 40
1, 8500320, Note_off_c, 1, 40, 0
1, 8500440, Note_on_c, 1, 35, 40
1, 8500560, Note_off_c, 1, 35, 0
1, 8500560, Note_on_c, 1, 40, 40
1, 8500800, Note_off_c, 1, 40, 0
1, 8500920, Note_on_c, 1, 35, 40
1, 8501040, Note_off_c, 1, 35, 0
1, 8501040, Note_on_c, 1, 40, 40
1, 8501280, Note_off_c, 1, 40, 0
1, 8501400, Note_on_c, 1, 31, 40
1, 8501520, Note_off_c, 1, 31, 0
1, 8501520, Note_on_c, 1, 33, 40
1, 8501760, Note_off_c, 1, 33, 0
1, 8501880, Note_on_c, 1, 33, 40
1, 8502000, Note_off_c, 1, 33, 0
1, 8502000, Note_on_c, 1, 35, 40
1, 8502240, Note_off_c, 1, 35, 0
1, 8502360, Note_on_c, 1, 29, 40
1, 8502480, Note_off_c, 1, 29, 0
1, 8502480, Note_on_c, 1, 35, 40
1, 8502720, Note_off_c, 1, 35, 0
1, 8502840, Note_on_c, 1, 29, 40
1, 8502960, Note_off_c, 1, 29, 0
1, 8502960, Note_on_c, 1, 35, 40
1, 8503200, Note_off_c, 1, 35, 0
1, 8503320, Note_on_c, 1, 29, 40
1, 8503440, Note_off_c, 1, 29, 0
1, 8503440, Note_on_c, 1, 35, 40
1, 8503680, Note_off_c, 1, 35, 0
1, 8503800, Note_on_c, 1, 29, 40
1, 8503920, Note_off_c, 1, 29, 0
1, 8503920, Note_on_c, 1, 40, 40
1, 8504160, Note_off_c, 1, 40, 0
1, 8504280, Note_on_c, 1, 35, 40
1, 8504400, Note_off_c, 1, 35, 0
1, 8504400, Note_on_c, 1, 40, 40
1, 8504640, Note_off_c, 1, 40, 0
1, 8504760, Note_on_c, 1, 35, 40
1, 8504880, Note_off_c, 1, 35, 0
1, 8504880, Note_on_c, 1, 40, 40
1, 8505120, Note_off_c, 1, 40, 0
1, 8505240, Note_on_c, 1, 31, 40
1, 8505360, Note_off_c, 1, 31, 0
1, 8505360, Note_on_c, 1, 33, 40
1, 8505600, Note_off_c, 1, 33, 0
1, 8505720, Note_on_c, 1, 33, 40
1, 8505840, Note_off_c, 1, 33, 0
1, 8505840, Note_on_c, 1, 29, 40
1, 8506320, Note_off_c, 1, 29, 0
1, 8506320, Note_on_c, 1, 29, 40
1, 8508240, Note_off_c, 1, 29, 0
1, 8508240, Note_on_c, 1, 29, 40
1, 8508960, Note_off_c, 1, 29, 0
1, 8509200, Note_on_c, 1, 29, 40
1, 8509680, Note_off_c, 1, 29, 0
1, 8509680, Note_on_c, 1, 35, 40
1, 8510160, Note_off_c, 1, 35, 0
1, 8510160, Note_on_c, 1, 38, 40
1, 8510640, Note_off_c, 1, 38, 0
1, 8510640, Note_on_c, 1, 41, 40
1, 8511120, Note_off_c, 1, 41, 0
1, 8511120, Note_on_c, 1, 38, 40
1, 8511360, Note_off_c, 1, 38, 0
1, 8511480, Note_on_c, 1, 41, 40
1, 8511600, Note_off_c, 1, 41, 0
1, 8511600, Note_on_c, 1, 40, 40
1, 8512080, Note_off_c, 1, 40, 0
1, 8512080, Note_on_c, 1, 43, 40
1, 8512560, Note_off_c, 1, 43, 0
1, 8512560, Note_on_c, 1, 47, 40
1, 8513040, Note_off_c, 1, 47, 0
1, 8513040, Note_on_c, 1, 43, 40
1, 8513280, Note_off_c, 1, 43, 0
1, 8513400, Note_on_c, 1, 47, 40
1, 8513520, Note_off_c, 1, 47, 0
1, 8513520, Note_on_c, 1, 35, 40
1, 8514000, Note_off_c, 1, 35, 0
1, 8514000, Note_on_c, 1, 38, 40
1, 8514480, Note_off_c, 1, 38, 0
1, 8514480, Note_on_c, 1, 41, 40
1, 8514960, Note_off_c, 1, 41, 0
1, 8514960, Note_on_c, 1, 38, 40
1, 8515200, Note_off_c, 1, 38, 0
1, 8515320, Note_on_c, 1, 41, 40
1, 8515440, Note_off_c, 1, 41, 0
1, 8515440, Note_on_c, 1, 40, 40
1, 8515920, Note_off_c, 1, 40, 0
1, 8515920, Note_on_c, 1, 31, 40
1, 8516400, Note_off_c, 1, 31, 0
1, 8516400, Note_on_c, 1, 35, 40
1, 8516880, Note_off_c, 1, 35, 0
1, 8516880, Note_on_c, 1, 36, 40
1, 8517120, Note_off_c, 1, 36, 0
1, 8517240, Note_on_c, 1, 35, 40
1, 8517360, Note_off_c, 1, 35, 0
1, 8517360, Note_on_c, 1, 35, 40
1, 8517840, Note_off_c, 1, 35, 0
1, 8517840, Note_on_c, 1, 38, 40
1, 8518320, Note_off_c, 1, 38, 0
1, 8518320, Note_on_c, 1, 41, 40
1, 8518800, Note_off_c, 1, 41, 0
1, 8518800, Note_on_c, 1, 38, 40
1, 8519040, Note_off_c, 1, 38, 0
1, 8519160, Note_on_c, 1, 41, 40
1, 8519280, Note_off_c, 1, 41, 0
1, 8519280, Note_on_c, 1, 40, 40
1, 8519760, Note_off_c, 1, 40, 0
1, 8519760, Note_on_c, 1, 31, 40
1, 8520240, Note_off_c, 1, 31, 0
1, 8520240, Note_on_c, 1, 35, 40
1, 8520720, Note_off_c, 1, 35, 0
1, 8520720, Note_on_c, 1, 36, 40
1, 8520960, Note_off_c, 1, 36, 0
1, 8521080, Note_on_c, 1, 35, 40
1, 8521200, Note_off_c, 1, 35, 0
1, 8521200, Note_on_c, 1, 29, 40
1, 8521680, Note_off_c, 1, 29, 0
1, 8521680, Note_on_c, 1, 29, 40
1, 8522160, Note_off_c, 1, 29, 0
1, 8522160, Note_on_c, 1, 29, 40
1, 8522400, Note_off_c, 1, 29, 0
1, 8522520, Note_on_c, 1, 31, 40
1, 8522640, Note_off_c, 1, 31, 0
1, 8522640, Note_on_c, 1, 33, 40
1, 8522880, Note_off_c, 1, 33, 0
1, 8523000, Note_on_c, 1, 33, 40
1, 8523120, Note_off_c, 1, 33, 0
1, 8523120, Note_on_c, 1, 35, 40
1, 8523360, Note_off_c, 1, 35, 0
1, 8523480, Note_on_c, 1, 33, 40
1, 8523600, Note_off_c, 1, 33, 0
1, 8523600, Note_on_c, 1, 35, 40
1, 8523840, Note_off_c, 1, 35, 0
1, 8523960, Note_on_c, 1, 35, 40
1, 8525880, Note_off_c, 1, 35, 0
1, 8525880, Note_on_c, 1, 35, 40
1, 8527800, Note_off_c, 1, 35, 0
1, 8527800, Note_on_c, 1, 35, 40
1, 8529720, Note_off_c, 1, 35, 0
1, 8529720, Note_on_c, 1, 35, 40
1, 8530080, Note_off_c, 1, 35, 0
1, 8537520, Note_on_c, 1, 31, 40
1, 8538000, Note_off_c, 1, 31, 0
1, 8538000, Note_on_c, 1, 35, 40
1, 8538360, Note_off_c, 1, 35, 0
1, 8538480, Note_on_c, 1, 38, 40
1, 8538840, Note_off_c, 1, 38, 0
1, 8538960, Note_on_c, 1, 35, 40
1, 8539320, Note_off_c, 1, 35, 0
1, 8539440, Note_on_c, 1, 31, 40
1, 8539800, Note_off_c, 1, 31, 0
1, 8539920, Note_on_c, 1, 35, 40
1, 8540280, Note_off_c, 1, 35, 0
1, 8540400, Note_on_c, 1, 38, 40
1, 8540760, Note_off_c, 1, 38, 0
1, 8540880, Note_on_c, 1, 35, 40
1, 8541240, Note_off_c, 1, 35, 0
1, 8541360, Note_on_c, 1, 31, 40
1, 8541720, Note_off_c, 1, 31, 0
1, 8541840, Note_on_c, 1, 35, 40
1, 8542200, Note_off_c, 1, 35, 0
1, 8542320, Note_on_c, 1, 38, 40
1, 8542680, Note_off_c, 1, 38, 0
1, 8542800, Note_on_c, 1, 35, 40
1, 8543160, Note_off_c, 1, 35, 0
1, 8543280, Note_on_c, 1, 31, 40
1, 8543640, Note_off_c, 1, 31, 0
1, 8543760, Note_on_c, 1, 35, 40
1, 8544120, Note_off_c, 1, 35, 0
1, 8544240, Note_on_c, 1, 38, 40
1, 8544720, Note_off_c, 1, 38, 0
1, 8544720, Note_on_c, 1, 35, 40
1, 8545080, Note_off_c, 1, 35, 0
1, 8545200, Note_on_c, 1, 36, 40
1, 8545560, Note_off_c, 1, 36, 0
1, 8545680, Note_on_c, 1, 40, 40
1, 8546040, Note_off_c, 1, 40, 0
1, 8546160, Note_on_c, 1, 43, 40
1, 8546640, Note_off_c, 1, 43, 0
1, 8546640, Note_on_c, 1, 40, 40
1, 8547000, Note_off_c, 1, 40, 0
1, 8547120, Note_on_c, 1, 36, 40
1, 8547480, Note_off_c, 1, 36, 0
1, 8547600, Note_on_c, 1, 40, 40
1, 8547960, Note_off_c, 1, 40, 0
1, 8548080, Note_on_c, 1, 43, 40
1, 8548440, Note_off_c, 1, 43, 0
1, 8548560, Note_on_c, 1, 40, 40
1, 8548920, Note_off_c, 1, 40, 0
1, 8549040, Note_on_c, 1, 31, 40
1, 8549400, Note_off_c, 1, 31, 0
1, 8549520, Note_on_c, 1, 35, 40
1, 8549880, Note_off_c, 1, 35, 0
1, 8550120, Note_on_c, 1, 38, 40
1, 8550600, Note_off_c, 1, 38, 0
1, 8550600, Note_on_c, 1, 35, 40
1, 8550960, Note_off_c, 1, 35, 0
1, 8550960, Note_on_c, 1, 31, 40
1, 8551440, Note_off_c, 1, 31, 0
1, 8551440, Note_on_c, 1, 35, 40
1, 8551800, Note_off_c, 1, 35, 0
1, 8551920, Note_on_c, 1, 38, 40
1, 8552400, Note_off_c, 1, 38, 0
1, 8552400, Note_on_c, 1, 35, 40
1, 8552760, Note_off_c, 1, 35, 0
1, 8552880, Note_on_c, 1, 38, 40
1, 8553360, Note_off_c, 1, 38, 0
1, 8553360, Note_on_c, 1, 41, 40
1, 8553720, Note_off_c, 1, 41, 0
1, 8553840, Note_on_c, 1, 45, 40
1, 8554200, Note_off_c, 1, 45, 0
1, 8554320, Note_on_c, 1, 41, 40
1, 8554680, Note_off_c, 1, 41, 0
1, 8554800, Note_on_c, 1, 38, 40
1, 8555280, Note_off_c, 1, 38, 0
1, 8555280, Note_on_c, 1, 41, 40
1, 8555640, Note_off_c, 1, 41, 0
1, 8555760, Note_on_c, 1, 45, 40
1, 8556240, Note_off_c, 1, 45, 0
1, 8556240, Note_on_c, 1, 41, 40
1, 8556600, Note_off_c, 1, 41, 0
1, 8556720, Note_on_c, 1, 38, 40
1, 8557080, Note_off_c, 1, 38, 0
1, 8557200, Note_on_c, 1, 36, 40
1, 8557560, Note_off_c, 1, 36, 0
1, 8557680, Note_on_c, 1, 35, 40
1, 8558040, Note_off_c, 1, 35, 0
1, 8558160, Note_on_c, 1, 33, 40
1, 8558520, Note_off_c, 1, 33, 0
1, 8558640, Note_on_c, 1, 31, 40
1, 8559000, Note_off_c, 1, 31, 0
1, 8559120, Note_on_c, 1, 35, 40
1, 8559480, Note_off_c, 1, 35, 0
1, 8559600, Note_on_c, 1, 38, 40
1, 8560080, Note_off_c, 1, 38, 0
1, 8560080, Note_on_c, 1, 35, 40
1, 8560440, Note_off_c, 1, 35, 0
1, 8560560, Note_on_c, 1, 38, 40
1, 8560800, Note_off_c, 1, 38, 0
1, 8561040, Note_on_c, 1, 36, 40
1, 8561280, Note_off_c, 1, 36, 0
1, 8561520, Note_on_c, 1, 35, 40
1, 8561760, Note_off_c, 1, 35, 0
1, 8562000, Note_on_c, 1, 33, 40
1, 8562360, Note_off_c, 1, 33, 0
1, 8562480, Note_on_c, 1, 31, 40
1, 8562840, Note_off_c, 1, 31, 0
1, 8564400, Note_on_c, 1, 38, 40
1, 8565000, Note_off_c, 1, 38, 0
1, 8565120, Note_on_c, 1, 41, 40
1, 8565840, Note_off_c, 1, 41, 0
1, 8565840, Note_on_c, 1, 45, 40
1, 8566080, Note_off_c, 1, 45, 0
1, 8566320, Note_on_c, 1, 38, 40
1, 8566920, Note_off_c, 1, 38, 0
1, 8567040, Note_on_c, 1, 41, 40
1, 8567640, Note_off_c, 1, 41, 0
1, 8567760, Note_on_c, 1, 45, 40
1, 8568000, Note_off_c, 1, 45, 0
1, 8568240, Note_on_c, 1, 31, 40
1, 8568840, Note_off_c, 1, 31, 0
1, 8568960, Note_on_c, 1, 35, 40
1, 8569560, Note_off_c, 1, 35, 0
1, 8569680, Note_on_c, 1, 38, 40
1, 8569920, Note_off_c, 1, 38, 0
1, 8570160, Note_on_c, 1, 31, 40
1, 8570760, Note_off_c, 1, 31, 0
1, 8570880, Note_on_c, 1, 35, 40
1, 8571480, Note_off_c, 1, 35, 0
1, 8571600, Note_on_c, 1, 38, 40
1, 8571960, Note_off_c, 1, 38, 0
1, 8572080, Note_on_c, 1, 36, 40
1, 8572680, Note_off_c, 1, 36, 0
1, 8572800, Note_on_c, 1, 40, 40
1, 8573400, Note_off_c, 1, 40, 0
1, 8573520, Note_on_c, 1, 43, 40
1, 8573880, Note_off_c, 1, 43, 0
1, 8574000, Note_on_c, 1, 36, 40
1, 8574600, Note_off_c, 1, 36, 0
1, 8574720, Note_on_c, 1, 40, 40
1, 8575320, Note_off_c, 1, 40, 0
1, 8575440, Note_on_c, 1, 43, 40
1, 8575800, Note_off_c, 1, 43, 0
1, 8575920, Note_on_c, 1, 38, 40
1, 8576520, Note_off_c, 1, 38, 0
1, 8576640, Note_on_c, 1, 41, 40
1, 8577240, Note_off_c, 1, 41, 0
1, 8577360, Note_on_c, 1, 45, 40
1, 8577840, Note_off_c, 1, 45, 0
1, 8577840, Note_on_c, 1, 38, 40
1, 8577960, Note_off_c, 1, 38, 0
1, 8579760, Note_on_c, 1, 31, 40
1, 8580120, Note_off_c, 1, 31, 0
1, 8580240, Note_on_c, 1, 35, 40
1, 8580600, Note_off_c, 1, 35, 0
1, 8580720, Note_on_c, 1, 38, 40
1, 8581080, Note_off_c, 1, 38, 0
1, 8581200, Note_on_c, 1, 35, 40
1, 8581560, Note_off_c, 1, 35, 0
1, 8581680, Note_on_c, 1, 31, 40
1, 8582040, Note_off_c, 1, 31, 0
1, 8582160, Note_on_c, 1, 35, 40
1, 8582640, Note_off_c, 1, 35, 0
1, 8582640, Note_on_c, 1, 38, 40
1, 8583120, Note_off_c, 1, 38, 0
1, 8583120, Note_on_c, 1, 35, 40
1, 8583480, Note_off_c, 1, 35, 0
1, 8583600, Note_on_c, 1, 31, 40
1, 8583960, Note_off_c, 1, 31, 0
1, 8584080, Note_on_c, 1, 35, 40
1, 8584440, Note_off_c, 1, 35, 0
1, 8584560, Note_on_c, 1, 38, 40
1, 8584920, Note_off_c, 1, 38, 0
1, 8585040, Note_on_c, 1, 35, 40
1, 8585400, Note_off_c, 1, 35, 0
1, 8585520, Note_on_c, 1, 31, 40
1, 8585880, Note_off_c, 1, 31, 0
1, 8586000, Note_on_c, 1, 31, 40
1, 8586360, Note_off_c, 1, 31, 0
1, 8586480, Note_on_c, 1, 33, 40
1, 8586840, Note_off_c, 1, 33, 0
1, 8586960, Note_on_c, 1, 35, 40
1, 8587320, Note_off_c, 1, 35, 0
1, 8587440, Note_on_c, 1, 36, 40
1, 8587800, Note_off_c, 1, 36, 0
1, 8587920, Note_on_c, 1, 40, 40
1, 8588280, Note_off_c, 1, 40, 0
1, 8588400, Note_on_c, 1, 43, 40
1, 8588760, Note_off_c, 1, 43, 0
1, 8588880, Note_on_c, 1, 40, 40
1, 8589240, Note_off_c, 1, 40, 0
1, 8589360, Note_on_c, 1, 36, 40
1, 8589720, Note_off_c, 1, 36, 0
1, 8589840, Note_on_c, 1, 40, 40
1, 8590200, Note_off_c, 1, 40, 0
1, 8590320, Note_on_c, 1, 43, 40
1, 8590800, Note_off_c, 1, 43, 0
1, 8590800, Note_on_c, 1, 40, 40
1, 8591160, Note_off_c, 1, 40, 0
1, 8591280, Note_on_c, 1, 31, 40
1, 8591640, Note_off_c, 1, 31, 0
1, 8591760, Note_on_c, 1, 35, 40
1, 8592120, Note_off_c, 1, 35, 0
1, 8592240, Note_on_c, 1, 38, 40
1, 8592720, Note_off_c, 1, 38, 0
1, 8592720, Note_on_c, 1, 35, 40
1, 8593080, Note_off_c, 1, 35, 0
1, 8593200, Note_on_c, 1, 31, 40
1, 8593680, Note_off_c, 1, 31, 0
1, 8593680, Note_on_c, 1, 35, 40
1, 8594160, Note_off_c, 1, 35, 0
1, 8594160, Note_on_c, 1, 38, 40
1, 8594520, Note_off_c, 1, 38, 0
1, 8594640, Note_on_c, 1, 35, 40
1, 8595000, Note_off_c, 1, 35, 0
1, 8595120, Note_on_c, 1, 38, 40
1, 8595480, Note_off_c, 1, 38, 0
1, 8595600, Note_on_c, 1, 41, 40
1, 8595960, Note_off_c, 1, 41, 0
1, 8596080, Note_on_c, 1, 45, 40
1, 8596440, Note_off_c, 1, 45, 0
1, 8596560, Note_on_c, 1, 41, 40
1, 8596920, Note_off_c, 1, 41, 0
1, 8597040, Note_on_c, 1, 38, 40
1, 8597520, Note_off_c, 1, 38, 0
1, 8597520, Note_on_c, 1, 41, 40
1, 8597880, Note_off_c, 1, 41, 0
1, 8598000, Note_on_c, 1, 45, 40
1, 8598360, Note_off_c, 1, 45, 0
1, 8598480, Note_on_c, 1, 41, 40
1, 8598840, Note_off_c, 1, 41, 0
1, 8598960, Note_on_c, 1, 38, 40
1, 8599320, Note_off_c, 1, 38, 0
1, 8599440, Note_on_c, 1, 36, 40
1, 8599800, Note_off_c, 1, 36, 0
1, 8599920, Note_on_c, 1, 35, 40
1, 8600280, Note_off_c, 1, 35, 0
1, 8600400, Note_on_c, 1, 33, 40
1, 8600760, Note_off_c, 1, 33, 0
1, 8600880, Note_on_c, 1, 31, 40
1, 8601360, Note_off_c, 1, 31, 0
1, 8601360, Note_on_c, 1, 35, 40
1, 8601720, Note_off_c, 1, 35, 0
1, 8601840, Note_on_c, 1, 38, 40
1, 8602320, Note_off_c, 1, 38, 0
1, 8602320, Note_on_c, 1, 35, 40
1, 8602680, Note_off_c, 1, 35, 0
1, 8602800, Note_on_c, 1, 38, 40
1, 8603280, Note_off_c, 1, 38, 0
1, 8603280, Note_on_c, 1, 36, 40
1, 8603640, Note_off_c, 1, 36, 0
1, 8603760, Note_on_c, 1, 35, 40
1, 8604120, Note_off_c, 1, 35, 0
1, 8604240, Note_on_c, 1, 33, 40
1, 8604600, Note_off_c, 1, 33, 0
1, 8604720, Note_on_c, 1, 31, 40
1, 8604960, Note_off_c, 1, 31, 0
1, 8606640, Note_on_c, 1, 38, 40
1, 8607240, Note_off_c, 1, 38, 0
1, 8607360, Note_on_c, 1, 41, 40
1, 8607960, Note_off_c, 1, 41, 0
1, 8608080, Note_on_c, 1, 45, 40
1, 8608560, Note_off_c, 1, 45, 0
1, 8608560, Note_on_c, 1, 38, 40
1, 8609160, Note_off_c, 1, 38, 0
1, 8609280, Note_on_c, 1, 41, 40
1, 8609880, Note_off_c, 1, 41, 0
1, 8610000, Note_on_c, 1, 45, 40
1, 8610240, Note_off_c, 1, 45, 0
1, 8610480, Note_on_c, 1, 31, 40
1, 8611200, Note_off_c, 1, 31, 0
1, 8611200, Note_on_c, 1, 35, 40
1, 8611800, Note_off_c, 1, 35, 0
1, 8611920, Note_on_c, 1, 38, 40
1, 8612400, Note_off_c, 1, 38, 0
1, 8612400, Note_on_c, 1, 31, 40
1, 8613120, Note_off_c, 1, 31, 0
1, 8613120, Note_on_c, 1, 35, 40
1, 8613720, Note_off_c, 1, 35, 0
1, 8613840, Note_on_c, 1, 38, 40
1, 8614200, Note_off_c, 1, 38, 0
1, 8614320, Note_on_c, 1, 36, 40
1, 8615040, Note_off_c, 1, 36, 0
1, 8615040, Note_on_c, 1, 40, 40
1, 8615640, Note_off_c, 1, 40, 0
1, 8615760, Note_on_c, 1, 43, 40
1, 8616120, Note_off_c, 1, 43, 0
1, 8616240, Note_on_c, 1, 36, 40
1, 8616960, Note_off_c, 1, 36, 0
1, 8616960, Note_on_c, 1, 40, 40
1, 8617560, Note_off_c, 1, 40, 0
1, 8617680, Note_on_c, 1, 43, 40
1, 8618160, Note_off_c, 1, 43, 0
1, 8618160, Note_on_c, 1, 38, 40
1, 8618880, Note_off_c, 1, 38, 0
1, 8618880, Note_on_c, 1, 41, 40
1, 8619480, Note_off_c, 1, 41, 0
1, 8619600, Note_on_c, 1, 45, 40
1, 8620080, Note_off_c, 1, 45, 0
1, 8620080, Note_on_c, 1, 38, 40
1, 8620320, Note_off_c, 1, 38, 0
1, 8622000, Note_on_c, 1, 31, 40
1, 8622360, Note_off_c, 1, 31, 0
1, 8622480, Note_on_c, 1, 35, 40
1, 8622840, Note_off_c, 1, 35, 0
1, 8622960, Note_on_c, 1, 38, 40
1, 8623440, Note_off_c, 1, 38, 0
1, 8623440, Note_on_c, 1, 35, 40
1, 8623800, Note_off_c, 1, 35, 0
1, 8623920, Note_on_c, 1, 31, 40
1, 8624280, Note_off_c, 1, 31, 0
1, 8624400, Note_on_c, 1, 35, 40
1, 8624880, Note_off_c, 1, 35, 0
1, 8624880, Note_on_c, 1, 38, 40
1, 8625360, Note_off_c, 1, 38, 0
1, 8625360, Note_on_c, 1, 35, 40
1, 8625720, Note_off_c, 1, 35, 0
1, 8625840, Note_on_c, 1, 31, 40
1, 8626200, Note_off_c, 1, 31, 0
1, 8626320, Note_on_c, 1, 35, 40
1, 8626680, Note_off_c, 1, 35, 0
1, 8626800, Note_on_c, 1, 38, 40
1, 8627280, Note_off_c, 1, 38, 0
1, 8627280, Note_on_c, 1, 35, 40
1, 8627640, Note_off_c, 1, 35, 0
1, 8627760, Note_on_c, 1, 31, 40
1, 8628120, Note_off_c, 1, 31, 0
1, 8628240, Note_on_c, 1, 35, 40
1, 8628720, Note_off_c, 1, 35, 0
1, 8628720, Note_on_c, 1, 38, 40
1, 8629080, Note_off_c, 1, 38, 0
1, 8629200, Note_on_c, 1, 35, 40
1, 8629560, Note_off_c, 1, 35, 0
1, 8629680, Note_on_c, 1, 36, 40
1, 8630040, Note_off_c, 1, 36, 0
1, 8630160, Note_on_c, 1, 40, 40
1, 8630520, Note_off_c, 1, 40, 0
1, 8630640, Note_on_c, 1, 43, 40
1, 8631000, Note_off_c, 1, 43, 0
1, 8631120, Note_on_c, 1, 40, 40
1, 8631480, Note_off_c, 1, 40, 0
1, 8631600, Note_on_c, 1, 36, 40
1, 8631960, Note_off_c, 1, 36, 0
1, 8632080, Note_on_c, 1, 40, 40
1, 8632440, Note_off_c, 1, 40, 0
1, 8632560, Note_on_c, 1, 43, 40
1, 8633040, Note_off_c, 1, 43, 0
1, 8633040, Note_on_c, 1, 40, 40
1, 8633400, Note_off_c, 1, 40, 0
1, 8633520, Note_on_c, 1, 31, 40
1, 8633880, Note_off_c, 1, 31, 0
1, 8634000, Note_on_c, 1, 35, 40
1, 8634360, Note_off_c, 1, 35, 0
1, 8634480, Note_on_c, 1, 38, 40
1, 8634960, Note_off_c, 1, 38, 0
1, 8634960, Note_on_c, 1, 35, 40
1, 8635320, Note_off_c, 1, 35, 0
1, 8635440, Note_on_c, 1, 31, 40
1, 8635920, Note_off_c, 1, 31, 0
1, 8635920, Note_on_c, 1, 35, 40
1, 8636400, Note_off_c, 1, 35, 0
1, 8636400, Note_on_c, 1, 38, 40
1, 8636880, Note_off_c, 1, 38, 0
1, 8636880, Note_on_c, 1, 35, 40
1, 8637240, Note_off_c, 1, 35, 0
1, 8637360, Note_on_c, 1, 38, 40
1, 8637720, Note_off_c, 1, 38, 0
1, 8637840, Note_on_c, 1, 41, 40
1, 8638200, Note_off_c, 1, 41, 0
1, 8638320, Note_on_c, 1, 45, 40
1, 8638800, Note_off_c, 1, 45, 0
1, 8638800, Note_on_c, 1, 41, 40
1, 8639160, Note_off_c, 1, 41, 0
1, 8639280, Note_on_c, 1, 38, 40
1, 8639760, Note_off_c, 1, 38, 0
1, 8639760, Note_on_c, 1, 41, 40
1, 8640240, Note_off_c, 1, 41, 0
1, 8640240, Note_on_c, 1, 45, 40
1, 8640600, Note_off_c, 1, 45, 0
1, 8640720, Note_on_c, 1, 41, 40
1, 8641080, Note_off_c, 1, 41, 0
1, 8641200, Note_on_c, 1, 38, 40
1, 8641560, Note_off_c, 1, 38, 0
1, 8641680, Note_on_c, 1, 36, 40
1, 8642160, Note_off_c, 1, 36, 0
1, 8642160, Note_on_c, 1, 35, 40
1, 8642520, Note_off_c, 1, 35, 0
1, 8642640, Note_on_c, 1, 33, 40
1, 8643000, Note_off_c, 1, 33, 0
1, 8643120, Note_on_c, 1, 31, 40
1, 8643600, Note_off_c, 1, 31, 0
1, 8643600, Note_on_c, 1, 35, 40
1, 8643960, Note_off_c, 1, 35, 0
1, 8644080, Note_on_c, 1, 38, 40
1, 8644560, Note_off_c, 1, 38, 0
1, 8644560, Note_on_c, 1, 35, 40
1, 8644920, Note_off_c, 1, 35, 0
1, 8645040, Note_on_c, 1, 38, 40
1, 8645400, Note_off_c, 1, 38, 0
1, 8645520, Note_on_c, 1, 36, 40
1, 8645880, Note_off_c, 1, 36, 0
1, 8646000, Note_on_c, 1, 35, 40
1, 8646360, Note_off_c, 1, 35, 0
1, 8646480, Note_on_c, 1, 33, 40
1, 8646840, Note_off_c, 1, 33, 0
1, 8646960, Note_on_c, 1, 31, 40
1, 8647080, Note_off_c, 1, 31, 0
1, 8648880, Note_on_c, 1, 38, 40
1, 8649480, Note_off_c, 1, 38, 0
1, 8649600, Note_on_c, 1, 41, 40
1, 8650200, Note_off_c, 1, 41, 0
1, 8650320, Note_on_c, 1, 45, 40
1, 8650680, Note_off_c, 1, 45, 0
1, 8650800, Note_on_c, 1, 38, 40
1, 8651400, Note_off_c, 1, 38, 0
1, 8651520, Note_on_c, 1, 41, 40
1, 8652240, Note_off_c, 1, 41, 0
1, 8652240, Note_on_c, 1, 45, 40
1, 8652480, Note_off_c, 1, 45, 0
1, 8652720, Note_on_c, 1, 31, 40
1, 8653320, Note_off_c, 1, 31, 0
1, 8653440, Note_on_c, 1, 35, 40
1, 8654040, Note_off_c, 1, 35, 0
1, 8654160, Note_on_c, 1, 38, 40
1, 8654520, Note_off_c, 1, 38, 0
1, 8654640, Note_on_c, 1, 31, 40
1, 8655240, Note_off_c, 1, 31, 0
1, 8655360, Note_on_c, 1, 35, 40
1, 8655960, Note_off_c, 1, 35, 0
1, 8656080, Note_on_c, 1, 38, 40
1, 8656440, Note_off_c, 1, 38, 0
1, 8656560, Note_on_c, 1, 36, 40
1, 8657280, Note_off_c, 1, 36, 0
1, 8657280, Note_on_c, 1, 40, 40
1, 8657880, Note_off_c, 1, 40, 0
1, 8658000, Note_on_c, 1, 43, 40
1, 8658480, Note_off_c, 1, 43, 0
1, 8658480, Note_on_c, 1, 36, 40
1, 8659080, Note_off_c, 1, 36, 0
1, 8659200, Note_on_c, 1, 40, 40
1, 8659800, Note_off_c, 1, 40, 0
1, 8659920, Note_on_c, 1, 43, 40
1, 8660400, Note_off_c, 1, 43, 0
1, 8660400, Note_on_c, 1, 38, 40
1, 8661120, Note_off_c, 1, 38, 0
1, 8661120, Note_on_c, 1, 41, 40
1, 8661720, Note_off_c, 1, 41, 0
1, 8661840, Note_on_c, 1, 45, 40
1, 8662320, Note_off_c, 1, 45, 0
1, 8662320, Note_on_c, 1, 38, 40
1, 8662440, Note_off_c, 1, 38, 0
1, 8664240, Note_on_c, 1, 31, 40
1, 8664600, Note_off_c, 1, 31, 0
1, 8664720, Note_on_c, 1, 35, 40
1, 8665080, Note_off_c, 1, 35, 0
1, 8665200, Note_on_c, 1, 38, 40
1, 8665680, Note_off_c, 1, 38, 0
1, 8665680, Note_on_c, 1, 35, 40
1, 8666040, Note_off_c, 1, 35, 0
1, 8666160, Note_on_c, 1, 31, 40
1, 8666520, Note_off_c, 1, 31, 0
1, 8666640, Note_on_c, 1, 35, 40
1, 8667000, Note_off_c, 1, 35, 0
1, 8667120, Note_on_c, 1, 38, 40
1, 8667480, Note_off_c, 1, 38, 0
1, 8667600, Note_on_c, 1, 35, 40
1, 8667960, Note_off_c, 1, 35, 0
1, 8668080, Note_on_c, 1, 31, 40
1, 8668440, Note_off_c, 1, 31, 0
1, 8668560, Note_on_c, 1, 35, 40
1, 8668920, Note_off_c, 1, 35, 0
1, 8669040, Note_on_c, 1, 38, 40
1, 8669400, Note_off_c, 1, 38, 0
1, 8669520, Note_on_c, 1, 35, 40
1, 8669880, Note_off_c, 1, 35, 0
1, 8670000, Note_on_c, 1, 31, 40
1, 8670360, Note_off_c, 1, 31, 0
1, 8670480, Note_on_c, 1, 35, 40
1, 8670840, Note_off_c, 1, 35, 0
1, 8670960, Note_on_c, 1, 38, 40
1, 8671320, Note_off_c, 1, 38, 0
1, 8671440, Note_on_c, 1, 35, 40
1, 8671800, Note_off_c, 1, 35, 0
1, 8671920, Note_on_c, 1, 36, 40
1, 8672280, Note_off_c, 1, 36, 0
1, 8672400, Note_on_c, 1, 40, 40
1, 8672760, Note_off_c, 1, 40, 0
1, 8672880, Note_on_c, 1, 43, 40
1, 8673240, Note_off_c, 1, 43, 0
1, 8673360, Note_on_c, 1, 40, 40
1, 8673720, Note_off_c, 1, 40, 0
1, 8673840, Note_on_c, 1, 36, 40
1, 8674320, Note_off_c, 1, 36, 0
1, 8674320, Note_on_c, 1, 40, 40
1, 8674680, Note_off_c, 1, 40, 0
1, 8674800, Note_on_c, 1, 43, 40
1, 8675280, Note_off_c, 1, 43, 0
1, 8675280, Note_on_c, 1, 40, 40
1, 8675520, Note_off_c, 1, 40, 0
1, 8675760, Note_on_c, 1, 31, 40
1, 8676240, Note_off_c, 1, 31, 0
1, 8676240, Note_on_c, 1, 35, 40
1, 8676600, Note_off_c, 1, 35, 0
1, 8676720, Note_on_c, 1, 38, 40
1, 8677200, Note_off_c, 1, 38, 0
1, 8677200, Note_on_c, 1, 35, 40
1, 8677560, Note_off_c, 1, 35, 0
1, 8677680, Note_on_c, 1, 31, 40
1, 8678040, Note_off_c, 1, 31, 0
1, 8678160, Note_on_c, 1, 35, 40
1, 8678520, Note_off_c, 1, 35, 0
1, 8678640, Note_on_c, 1, 38, 40
1, 8679000, Note_off_c, 1, 38, 0
1, 8679120, Note_on_c, 1, 35, 40
1, 8679360, Note_off_c, 1, 35, 0
1, 8679600, Note_on_c, 1, 38, 40
1, 8679960, Note_off_c, 1, 38, 0
1, 8680080, Note_on_c, 1, 41, 40
1, 8680440, Note_off_c, 1, 41, 0
1, 8680560, Note_on_c, 1, 45, 40
1, 8680920, Note_off_c, 1, 45, 0
1, 8681040, Note_on_c, 1, 41, 40
1, 8681400, Note_off_c, 1, 41, 0
1, 8681520, Note_on_c, 1, 38, 40
1, 8682000, Note_off_c, 1, 38, 0
1, 8682000, Note_on_c, 1, 41, 40
1, 8682360, Note_off_c, 1, 41, 0
1, 8682480, Note_on_c, 1, 45, 40
1, 8682960, Note_off_c, 1, 45, 0
1, 8682960, Note_on_c, 1, 41, 40
1, 8683320, Note_off_c, 1, 41, 0
1, 8683440, Note_on_c, 1, 38, 40
1, 8683800, Note_off_c, 1, 38, 0
1, 8683920, Note_on_c, 1, 36, 40
1, 8684280, Note_off_c, 1, 36, 0
1, 8684400, Note_on_c, 1, 35, 40
1, 8684640, Note_off_c, 1, 35, 0
1, 8684880, Note_on_c, 1, 33, 40
1, 8685240, Note_off_c, 1, 33, 0
1, 8685360, Note_on_c, 1, 31, 40
1, 8685720, Note_off_c, 1, 31, 0
1, 8685840, Note_on_c, 1, 35, 40
1, 8686200, Note_off_c, 1, 35, 0
1, 8686320, Note_on_c, 1, 38, 40
1, 8686680, Note_off_c, 1, 38, 0
1, 8686800, Note_on_c, 1, 35, 40
1, 8687160, Note_off_c, 1, 35, 0
1, 8687280, Note_on_c, 1, 38, 40
1, 8687640, Note_off_c, 1, 38, 0
1, 8687760, Note_on_c, 1, 36, 40
1, 8688120, Note_off_c, 1, 36, 0
1, 8688240, Note_on_c, 1, 35, 40
1, 8688600, Note_off_c, 1, 35, 0
1, 8688720, Note_on_c, 1, 33, 40
1, 8689080, Note_off_c, 1, 33, 0
1, 8689200, Note_on_c, 1, 31, 40
1, 8689440, Note_off_c, 1, 31, 0
1, 8691120, Note_on_c, 1, 38, 40
1, 8691720, Note_off_c, 1, 38, 0
1, 8691840, Note_on_c, 1, 41, 40
1, 8692440, Note_off_c, 1, 41, 0
1, 8692560, Note_on_c, 1, 45, 40
1, 8693040, Note_off_c, 1, 45, 0
1, 8693040, Note_on_c, 1, 38, 40
1, 8693640, Note_off_c, 1, 38, 0
1, 8693760, Note_on_c, 1, 41, 40
1, 8694360, Note_off_c, 1, 41, 0
1, 8694480, Note_on_c, 1, 45, 40
1, 8694840, Note_off_c, 1, 45, 0
1, 8694960, Note_on_c, 1, 31, 40
1, 8695560, Note_off_c, 1, 31, 0
1, 8695680, Note_on_c, 1, 35, 40
1, 8696280, Note_off_c, 1, 35, 0
1, 8696400, Note_on_c, 1, 38, 40
1, 8696880, Note_off_c, 1, 38, 0
1, 8696880, Note_on_c, 1, 31, 40
1, 8697480, Note_off_c, 1, 31, 0
1, 8697600, Note_on_c, 1, 35, 40
1, 8698200, Note_off_c, 1, 35, 0
1, 8698320, Note_on_c, 1, 38, 40
1, 8698680, Note_off_c, 1, 38, 0
1, 8698800, Note_on_c, 1, 36, 40
1, 8699520, Note_off_c, 1, 36, 0
1, 8699520, Note_on_c, 1, 40, 40
1, 8700120, Note_off_c, 1, 40, 0
1, 8700240, Note_on_c, 1, 43, 40
1, 8700720, Note_off_c, 1, 43, 0
1, 8700720, Note_on_c, 1, 36, 40
1, 8701440, Note_off_c, 1, 36, 0
1, 8701440, Note_on_c, 1, 40, 40
1, 8702040, Note_off_c, 1, 40, 0
1, 8702160, Note_on_c, 1, 43, 40
1, 8702640, Note_off_c, 1, 43, 0
1, 8702640, Note_on_c, 1, 38, 40
1, 8703240, Note_off_c, 1, 38, 0
1, 8703360, Note_on_c, 1, 41, 40
1, 8703960, Note_off_c, 1, 41, 0
1, 8704080, Note_on_c, 1, 45, 40
1, 8704560, Note_off_c, 1, 45, 0
1, 8704560, Note_on_c, 1, 38, 40
1, 8704680, Note_off_c, 1, 38, 0
1, 8706480, Note_on_c, 1, 31, 40
1, 8706840, Note_off_c, 1, 31, 0
1, 8706960, Note_on_c, 1, 35, 40
1, 8707320, Note_off_c, 1, 35, 0
1, 8707440, Note_on_c, 1, 38, 40
1, 8707920, Note_off_c, 1, 38, 0
1, 8707920, Note_on_c, 1, 35, 40
1, 8708280, Note_off_c, 1, 35, 0
1, 8708400, Note_on_c, 1, 31, 40
1, 8708880, Note_off_c, 1, 31, 0
1, 8708880, Note_on_c, 1, 35, 40
1, 8709240, Note_off_c, 1, 35, 0
1, 8709360, Note_on_c, 1, 38, 40
1, 8709720, Note_off_c, 1, 38, 0
1, 8709840, Note_on_c, 1, 35, 40
1, 8710200, Note_off_c, 1, 35, 0
1, 8710320, Note_on_c, 1, 31, 40
1, 8710680, Note_off_c, 1, 31, 0
1, 8710800, Note_on_c, 1, 35, 40
1, 8711280, Note_off_c, 1, 35, 0
1, 8711280, Note_on_c, 1, 38, 40
1, 8711640, Note_off_c, 1, 38, 0
1, 8711760, Note_on_c, 1, 35, 40
1, 8712120, Note_off_c, 1, 35, 0
1, 8712240, Note_on_c, 1, 31, 40
1, 8712600, Note_off_c, 1, 31, 0
1, 8712720, Note_on_c, 1, 35, 40
1, 8713200, Note_off_c, 1, 35, 0
1, 8713200, Note_on_c, 1, 38, 40
1, 8713560, Note_off_c, 1, 38, 0
1, 8713680, Note_on_c, 1, 35, 40
1, 8714040, Note_off_c, 1, 35, 0
1, 8714160, Note_on_c, 1, 36, 40
1, 8714520, Note_off_c, 1, 36, 0
1, 8714640, Note_on_c, 1, 40, 40
1, 8715000, Note_off_c, 1, 40, 0
1, 8715120, Note_on_c, 1, 43, 40
1, 8715480, Note_off_c, 1, 43, 0
1, 8715600, Note_on_c, 1, 40, 40
1, 8715960, Note_off_c, 1, 40, 0
1, 8716080, Note_on_c, 1, 36, 40
1, 8716440, Note_off_c, 1, 36, 0
1, 8716560, Note_on_c, 1, 40, 40
1, 8717040, Note_off_c, 1, 40, 0
1, 8717040, Note_on_c, 1, 43, 40
1, 8717520, Note_off_c, 1, 43, 0
1, 8717520, Note_on_c, 1, 40, 40
1, 8717880, Note_off_c, 1, 40, 0
1, 8718000, Note_on_c, 1, 31, 40
1, 8718360, Note_off_c, 1, 31, 0
1, 8718480, Note_on_c, 1, 35, 40
1, 8718840, Note_off_c, 1, 35, 0
1, 8718960, Note_on_c, 1, 38, 40
1, 8719320, Note_off_c, 1, 38, 0
1, 8719440, Note_on_c, 1, 35, 40
1, 8719800, Note_off_c, 1, 35, 0
1, 8719920, Note_on_c, 1, 31, 40
1, 8720280, Note_off_c, 1, 31, 0
1, 8720400, Note_on_c, 1, 35, 40
1, 8720760, Note_off_c, 1, 35, 0
1, 8720880, Note_on_c, 1, 38, 40
1, 8721240, Note_off_c, 1, 38, 0
1, 8721360, Note_on_c, 1, 35, 40
1, 8721600, Note_off_c, 1, 35, 0
1, 8721840, Note_on_c, 1, 38, 40
1, 8722200, Note_off_c, 1, 38, 0
1, 8722320, Note_on_c, 1, 41, 40
1, 8722680, Note_off_c, 1, 41, 0
1, 8722800, Note_on_c, 1, 45, 40
1, 8723160, Note_off_c, 1, 45, 0
1, 8723280, Note_on_c, 1, 41, 40
1, 8723640, Note_off_c, 1, 41, 0
1, 8723760, Note_on_c, 1, 38, 40
1, 8724240, Note_off_c, 1, 38, 0
1, 8724240, Note_on_c, 1, 41, 40
1, 8724600, Note_off_c, 1, 41, 0
1, 8724720, Note_on_c, 1, 45, 40
1, 8725080, Note_off_c, 1, 45, 0
1, 8725200, Note_on_c, 1, 41, 40
1, 8725560, Note_off_c, 1, 41, 0
1, 8725680, Note_on_c, 1, 38, 40
1, 8726040, Note_off_c, 1, 38, 0
1, 8726160, Note_on_c, 1, 36, 40
1, 8726520, Note_off_c, 1, 36, 0
1, 8726640, Note_on_c, 1, 35, 40
1, 8726880, Note_off_c, 1, 35, 0
1, 8727120, Note_on_c, 1, 33, 40
1, 8727480, Note_off_c, 1, 33, 0
1, 8727600, Note_on_c, 1, 31, 40
1, 8727960, Note_off_c, 1, 31, 0
1, 8728080, Note_on_c, 1, 35, 40
1, 8728560, Note_off_c, 1, 35, 0
1, 8728560, Note_on_c, 1, 38, 40
1, 8728920, Note_off_c, 1, 38, 0
1, 8729040, Note_on_c, 1, 35, 40
1, 8729400, Note_off_c, 1, 35, 0
1, 8729520, Note_on_c, 1, 38, 40
1, 8729880, Note_off_c, 1, 38, 0
1, 8730000, Note_on_c, 1, 36, 40
1, 8730360, Note_off_c, 1, 36, 0
1, 8730480, Note_on_c, 1, 35, 40
1, 8730840, Note_off_c, 1, 35, 0
1, 8730960, Note_on_c, 1, 33, 40
1, 8731200, Note_off_c, 1, 33, 0
1, 8731440, Note_on_c, 1, 31, 40
1, 8731680, Note_off_c, 1, 31, 0
1, 8731920, Note_on_c, 1, 31, 40
1, 8732040, Note_off_c, 1, 31, 0
1, 8732160, Note_on_c, 1, 31, 40
1, 8732280, Note_off_c, 1, 31, 0
1, 8732400, Note_on_c, 1, 31, 40
1, 8732640, Note_off_c, 1, 31, 0
1, 8745360, Note_on_c, 1, 28, 40
1, 8745480, Note_off_c, 1, 28, 0
1, 8745600, Note_on_c, 1, 28, 40
1, 8745720, Note_off_c, 1, 28, 0
1, 8745840, Note_on_c, 1, 32, 40
1, 8745960, Note_off_c, 1, 32, 0
1, 8746080, Note_on_c, 1, 32, 40
1, 8746200, Note_off_c, 1, 32, 0
1, 8746320, Note_on_c, 1, 35, 40
1, 8746440, Note_off_c, 1, 35, 0
1, 8746560, Note_on_c, 1, 35, 40
1, 8746680, Note_off_c, 1, 35, 0
1, 8746800, Note_on_c, 1, 37, 40
1, 8746920, Note_off_c, 1, 37, 0
1, 8747040, Note_on_c, 1, 37, 40
1, 8747280, Note_off_c, 1, 37, 0
1, 8747280, Note_on_c, 1, 40, 40
1, 8747400, Note_off_c, 1, 40, 0
1, 8747520, Note_on_c, 1, 40, 40
1, 8747640, Note_off_c, 1, 40, 0
1, 8747760, Note_on_c, 1, 37, 40
1, 8747880, Note_off_c, 1, 37, 0
1, 8748000, Note_on_c, 1, 37, 40
1, 8748120, Note_off_c, 1, 37, 0
1, 8748240, Note_on_c, 1, 35, 40
1, 8748360, Note_off_c, 1, 35, 0
1, 8748480, Note_on_c, 1, 30, 40
1, 8748720, Note_off_c, 1, 30, 0
1, 8748720, Note_on_c, 1, 32, 40
1, 8749080, Note_off_c, 1, 32, 0
1, 8749200, Note_on_c, 1, 35, 40
1, 8749320, Note_off_c, 1, 35, 0
1, 8749440, Note_on_c, 1, 35, 40
1, 8749560, Note_off_c, 1, 35, 0
1, 8749680, Note_on_c, 1, 39, 40
1, 8749800, Note_off_c, 1, 39, 0
1, 8749920, Note_on_c, 1, 39, 40
1, 8750160, Note_off_c, 1, 39, 0
1, 8750160, Note_on_c, 1, 42, 40
1, 8750280, Note_off_c, 1, 42, 0
1, 8750400, Note_on_c, 1, 42, 40
1, 8750520, Note_off_c, 1, 42, 0
1, 8750640, Note_on_c, 1, 39, 40
1, 8750760, Note_off_c, 1, 39, 0
1, 8750880, Note_on_c, 1, 39, 40
1, 8751000, Note_off_c, 1, 39, 0
1, 8751120, Note_on_c, 1, 35, 40
1, 8751240, Note_off_c, 1, 35, 0
1, 8751360, Note_on_c, 1, 35, 40
1, 8751600, Note_off_c, 1, 35, 0
1, 8751600, Note_on_c, 1, 39, 40
1, 8751720, Note_off_c, 1, 39, 0
1, 8751840, Note_on_c, 1, 39, 40
1, 8752080, Note_off_c, 1, 39, 0
1, 8752080, Note_on_c, 1, 42, 40
1, 8752200, Note_off_c, 1, 42, 0
1, 8752320, Note_on_c, 1, 42, 40
1, 8752440, Note_off_c, 1, 42, 0
1, 8752560, Note_on_c, 1, 39, 40
1, 8752680, Note_off_c, 1, 39, 0
1, 8752800, Note_on_c, 1, 39, 40
1, 8752920, Note_off_c, 1, 39, 0
1, 8753040, Note_on_c, 1, 28, 40
1, 8753160, Note_off_c, 1, 28, 0
1, 8753280, Note_on_c, 1, 28, 40
1, 8753400, Note_off_c, 1, 28, 0
1, 8753520, Note_on_c, 1, 32, 40
1, 8753640, Note_off_c, 1, 32, 0
1, 8753760, Note_on_c, 1, 32, 40
1, 8754000, Note_off_c, 1, 32, 0
1, 8754000, Note_on_c, 1, 35, 40
1, 8754120, Note_off_c, 1, 35, 0
1, 8754240, Note_on_c, 1, 35, 40
1, 8754360, Note_off_c, 1, 35, 0
1, 8754480, Note_on_c, 1, 32, 40
1, 8754720, Note_off_c, 1, 32, 0
1, 8754720, Note_on_c, 1, 32, 40
1, 8754840, Note_off_c, 1, 32, 0
1, 8754960, Note_on_c, 1, 30, 40
1, 8755080, Note_off_c, 1, 30, 0
1, 8755200, Note_on_c, 1, 30, 40
1, 8755320, Note_off_c, 1, 30, 0
1, 8755440, Note_on_c, 1, 34, 40
1, 8755560, Note_off_c, 1, 34, 0
1, 8755680, Note_on_c, 1, 34, 40
1, 8755920, Note_off_c, 1, 34, 0
1, 8755920, Note_on_c, 1, 37, 40
1, 8756040, Note_off_c, 1, 37, 0
1, 8756160, Note_on_c, 1, 37, 40
1, 8756280, Note_off_c, 1, 37, 0
1, 8756400, Note_on_c, 1, 34, 40
1, 8756640, Note_off_c, 1, 34, 0
1, 8756640, Note_on_c, 1, 34, 40
1, 8756760, Note_off_c, 1, 34, 0
1, 8756880, Note_on_c, 1, 35, 40
1, 8757000, Note_off_c, 1, 35, 0
1, 8757120, Note_on_c, 1, 35, 40
1, 8757240, Note_off_c, 1, 35, 0
1, 8757360, Note_on_c, 1, 39, 40
1, 8757480, Note_off_c, 1, 39, 0
1, 8757600, Note_on_c, 1, 39, 40
1, 8757720, Note_off_c, 1, 39, 0
1, 8757840, Note_on_c, 1, 42, 40
1, 8757960, Note_off_c, 1, 42, 0
1, 8758080, Note_on_c, 1, 42, 40
1, 8758200, Note_off_c, 1, 42, 0
1, 8758320, Note_on_c, 1, 39, 40
1, 8758440, Note_off_c, 1, 39, 0
1, 8758560, Note_on_c, 1, 39, 40
1, 8758800, Note_off_c, 1, 39, 0
1, 8758800, Note_on_c, 1, 35, 40
1, 8758920, Note_off_c, 1, 35, 0
1, 8759040, Note_on_c, 1, 35, 40
1, 8759160, Note_off_c, 1, 35, 0
1, 8759280, Note_on_c, 1, 32, 40
1, 8759400, Note_off_c, 1, 32, 0
1, 8759520, Note_on_c, 1, 32, 40
1, 8759640, Note_off_c, 1, 32, 0
1, 8759760, Note_on_c, 1, 33, 40
1, 8759880, Note_off_c, 1, 33, 0
1, 8760000, Note_on_c, 1, 33, 40
1, 8760120, Note_off_c, 1, 33, 0
1, 8760240, Note_on_c, 1, 34, 40
1, 8760360, Note_off_c, 1, 34, 0
1, 8760480, Note_on_c, 1, 34, 40
1, 8760600, Note_off_c, 1, 34, 0
1, 8760720, Note_on_c, 1, 35, 40
1, 8760960, Note_off_c, 1, 35, 0
1, 8760960, Note_on_c, 1, 35, 40
1, 8761200, Note_off_c, 1, 35, 0
1, 8761200, Note_on_c, 1, 39, 40
1, 8761440, Note_off_c, 1, 39, 0
1, 8761440, Note_on_c, 1, 39, 40
1, 8761680, Note_off_c, 1, 39, 0
1, 8761680, Note_on_c, 1, 42, 40
1, 8761920, Note_off_c, 1, 42, 0
1, 8761920, Note_on_c, 1, 42, 40
1, 8762160, Note_off_c, 1, 42, 0
1, 8762160, Note_on_c, 1, 39, 40
1, 8762520, Note_off_c, 1, 39, 0
1, 8762520, Note_on_c, 1, 42, 40
1, 8762760, Note_off_c, 1, 42, 0
1, 8762760, Note_on_c, 1, 28, 40
1, 8763000, Note_off_c, 1, 28, 0
1, 8763000, Note_on_c, 1, 28, 40
1, 8763240, Note_off_c, 1, 28, 0
1, 8763240, Note_on_c, 1, 32, 40
1, 8763480, Note_off_c, 1, 32, 0
1, 8763480, Note_on_c, 1, 32, 40
1, 8763720, Note_off_c, 1, 32, 0
1, 8763720, Note_on_c, 1, 35, 40
1, 8763960, Note_off_c, 1, 35, 0
1, 8763960, Note_on_c, 1, 35, 40
1, 8764200, Note_off_c, 1, 35, 0
1, 8764200, Note_on_c, 1, 32, 40
1, 8764440, Note_off_c, 1, 32, 0
1, 8764440, Note_on_c, 1, 35, 40
1, 8764680, Note_off_c, 1, 35, 0
1, 8764680, Note_on_c, 1, 35, 40
1, 8764920, Note_off_c, 1, 35, 0
1, 8765040, Note_on_c, 1, 39, 40
1, 8765280, Note_off_c, 1, 39, 0
1, 8765280, Note_on_c, 1, 39, 40
1, 8765520, Note_off_c, 1, 39, 0
1, 8765520, Note_on_c, 1, 42, 40
1, 8765760, Note_off_c, 1, 42, 0
1, 8765760, Note_on_c, 1, 42, 40
1, 8766000, Note_off_c, 1, 42, 0
1, 8766000, Note_on_c, 1, 39, 40
1, 8766360, Note_off_c, 1, 39, 0
1, 8766360, Note_on_c, 1, 42, 40
1, 8766600, Note_off_c, 1, 42, 0
1, 8766600, Note_on_c, 1, 35, 40
1, 8766840, Note_off_c, 1, 35, 0
1, 8766840, Note_on_c, 1, 35, 40
1, 8767080, Note_off_c, 1, 35, 0
1, 8767080, Note_on_c, 1, 39, 40
1, 8767320, Note_off_c, 1, 39, 0
1, 8767320, Note_on_c, 1, 39, 40
1, 8767560, Note_off_c, 1, 39, 0
1, 8767560, Note_on_c, 1, 42, 40
1, 8767800, Note_off_c, 1, 42, 0
1, 8767800, Note_on_c, 1, 42, 40
1, 8768040, Note_off_c, 1, 42, 0
1, 8768040, Note_on_c, 1, 39, 40
1, 8768280, Note_off_c, 1, 39, 0
1, 8768280, Note_on_c, 1, 42, 40
1, 8768520, Note_off_c, 1, 42, 0
1, 8768640, Note_on_c, 1, 28, 40
1, 8768880, Note_off_c, 1, 28, 0
1, 8768880, Note_on_c, 1, 32, 40
1, 8769120, Note_off_c, 1, 32, 0
1, 8769120, Note_on_c, 1, 32, 40
1, 8769360, Note_off_c, 1, 32, 0
1, 8769360, Note_on_c, 1, 35, 40
1, 8769600, Note_off_c, 1, 35, 0
1, 8769600, Note_on_c, 1, 35, 40
1, 8769840, Note_off_c, 1, 35, 0
1, 8769840, Note_on_c, 1, 32, 40
1, 8769960, Note_off_c, 1, 32, 0
1, 8770080, Note_on_c, 1, 35, 40
1, 8770320, Note_off_c, 1, 35, 0
1, 8770320, Note_on_c, 1, 28, 40
1, 8770560, Note_off_c, 1, 28, 0
1, 8770560, Note_on_c, 1, 28, 40
1, 8770800, Note_off_c, 1, 28, 0
1, 8770800, Note_on_c, 1, 32, 40
1, 8771040, Note_off_c, 1, 32, 0
1, 8771040, Note_on_c, 1, 32, 40
1, 8771280, Note_off_c, 1, 32, 0
1, 8771280, Note_on_c, 1, 35, 40
1, 8771520, Note_off_c, 1, 35, 0
1, 8771520, Note_on_c, 1, 35, 40
1, 8771640, Note_off_c, 1, 35, 0
1, 8771760, Note_on_c, 1, 32, 40
1, 8772000, Note_off_c, 1, 32, 0
1, 8772000, Note_on_c, 1, 32, 40
1, 8772120, Note_off_c, 1, 32, 0
1, 8772240, Note_on_c, 1, 35, 40
1, 8772480, Note_off_c, 1, 35, 0
1, 8772480, Note_on_c, 1, 35, 40
1, 8772600, Note_off_c, 1, 35, 0
1, 8772720, Note_on_c, 1, 39, 40
1, 8772840, Note_off_c, 1, 39, 0
1, 8772960, Note_on_c, 1, 39, 40
1, 8773200, Note_off_c, 1, 39, 0
1, 8773200, Note_on_c, 1, 42, 40
1, 8773440, Note_off_c, 1, 42, 0
1, 8773440, Note_on_c, 1, 42, 40
1, 8773680, Note_off_c, 1, 42, 0
1, 8773680, Note_on_c, 1, 39, 40
1, 8773920, Note_off_c, 1, 39, 0
1, 8773920, Note_on_c, 1, 42, 40
1, 8774040, Note_off_c, 1, 42, 0
1, 8774160, Note_on_c, 1, 35, 40
1, 8774400, Note_off_c, 1, 35, 0
1, 8774400, Note_on_c, 1, 35, 40
1, 8774640, Note_off_c, 1, 35, 0
1, 8774640, Note_on_c, 1, 39, 40
1, 8774880, Note_off_c, 1, 39, 0
1, 8774880, Note_on_c, 1, 39, 40
1, 8775120, Note_off_c, 1, 39, 0
1, 8775120, Note_on_c, 1, 42, 40
1, 8775360, Note_off_c, 1, 42, 0
1, 8775360, Note_on_c, 1, 42, 40
1, 8775600, Note_off_c, 1, 42, 0
1, 8775600, Note_on_c, 1, 39, 40
1, 8775840, Note_off_c, 1, 39, 0
1, 8775840, Note_on_c, 1, 42, 40
1, 8776080, Note_off_c, 1, 42, 0
1, 8776080, Note_on_c, 1, 28, 40
1, 8776200, Note_off_c, 1, 28, 0
1, 8776320, Note_on_c, 1, 28, 40
1, 8776560, Note_off_c, 1, 28, 0
1, 8776560, Note_on_c, 1, 32, 40
1, 8776680, Note_off_c, 1, 32, 0
1, 8776800, Note_on_c, 1, 32, 40
1, 8777040, Note_off_c, 1, 32, 0
1, 8777040, Note_on_c, 1, 35, 40
1, 8777280, Note_off_c, 1, 35, 0
1, 8777280, Note_on_c, 1, 35, 40
1, 8777520, Note_off_c, 1, 35, 0
1, 8777520, Note_on_c, 1, 32, 40
1, 8777880, Note_off_c, 1, 32, 0
1, 8777880, Note_on_c, 1, 35, 40
1, 8778120, Note_off_c, 1, 35, 0
1, 8778120, Note_on_c, 1, 30, 40
1, 8778360, Note_off_c, 1, 30, 0
1, 8778360, Note_on_c, 1, 30, 40
1, 8778600, Note_off_c, 1, 30, 0
1, 8778720, Note_on_c, 1, 34, 40
1, 8778960, Note_off_c, 1, 34, 0
1, 8778960, Note_on_c, 1, 37, 40
1, 8779200, Note_off_c, 1, 37, 0
1, 8779200, Note_on_c, 1, 37, 40
1, 8779440, Note_off_c, 1, 37, 0
1, 8779440, Note_on_c, 1, 34, 40
1, 8779680, Note_off_c, 1, 34, 0
1, 8779680, Note_on_c, 1, 37, 40
1, 8779920, Note_off_c, 1, 37, 0
1, 8779920, Note_on_c, 1, 35, 40
1, 8780160, Note_off_c, 1, 35, 0
1, 8780160, Note_on_c, 1, 35, 40
1, 8780280, Note_off_c, 1, 35, 0
1, 8780400, Note_on_c, 1, 39, 40
1, 8780520, Note_off_c, 1, 39, 0
1, 8780640, Note_on_c, 1, 39, 40
1, 8780880, Note_off_c, 1, 39, 0
1, 8780880, Note_on_c, 1, 42, 40
1, 8781120, Note_off_c, 1, 42, 0
1, 8781120, Note_on_c, 1, 42, 40
1, 8781360, Note_off_c, 1, 42, 0
1, 8781360, Note_on_c, 1, 39, 40
1, 8781600, Note_off_c, 1, 39, 0
1, 8781600, Note_on_c, 1, 42, 40
1, 8781840, Note_off_c, 1, 42, 0
1, 8781840, Note_on_c, 1, 35, 40
1, 8782080, Note_off_c, 1, 35, 0
1, 8782080, Note_on_c, 1, 35, 40
1, 8782320, Note_off_c, 1, 35, 0
1, 8782320, Note_on_c, 1, 32, 40
1, 8782560, Note_off_c, 1, 32, 0
1, 8782560, Note_on_c, 1, 32, 40
1, 8782800, Note_off_c, 1, 32, 0
1, 8782800, Note_on_c, 1, 33, 40
1, 8783040, Note_off_c, 1, 33, 0
1, 8783040, Note_on_c, 1, 33, 40
1, 8783160, Note_off_c, 1, 33, 0
1, 8783280, Note_on_c, 1, 34, 40
1, 8783520, Note_off_c, 1, 34, 0
1, 8783520, Note_on_c, 1, 34, 40
1, 8783640, Note_off_c, 1, 34, 0
1, 8783760, Note_on_c, 1, 35, 40
1, 8784000, Note_off_c, 1, 35, 0
1, 8784000, Note_on_c, 1, 35, 40
1, 8784240, Note_off_c, 1, 35, 0
1, 8784240, Note_on_c, 1, 39, 40
1, 8784480, Note_off_c, 1, 39, 0
1, 8784480, Note_on_c, 1, 39, 40
1, 8784720, Note_off_c, 1, 39, 0
1, 8784720, Note_on_c, 1, 42, 40
1, 8784960, Note_off_c, 1, 42, 0
1, 8784960, Note_on_c, 1, 42, 40
1, 8785200, Note_off_c, 1, 42, 0
1, 8785200, Note_on_c, 1, 39, 40
1, 8785560, Note_off_c, 1, 39, 0
1, 8785560, Note_on_c, 1, 42, 40
1, 8785800, Note_off_c, 1, 42, 0
1, 8785800, Note_on_c, 1, 28, 40
1, 8786040, Note_off_c, 1, 28, 0
1, 8786040, Note_on_c, 1, 28, 40
1, 8786280, Note_off_c, 1, 28, 0
1, 8786280, Note_on_c, 1, 32, 40
1, 8786520, Note_off_c, 1, 32, 0
1, 8786520, Note_on_c, 1, 32, 40
1, 8786760, Note_off_c, 1, 32, 0
1, 8786760, Note_on_c, 1, 35, 40
1, 8787000, Note_off_c, 1, 35, 0
1, 8787000, Note_on_c, 1, 35, 40
1, 8787240, Note_off_c, 1, 35, 0
1, 8787240, Note_on_c, 1, 32, 40
1, 8787480, Note_off_c, 1, 32, 0
1, 8787480, Note_on_c, 1, 35, 40
1, 8787720, Note_off_c, 1, 35, 0
1, 8787720, Note_on_c, 1, 35, 40
1, 8787960, Note_off_c, 1, 35, 0
1, 8788080, Note_on_c, 1, 39, 40
1, 8788320, Note_off_c, 1, 39, 0
1, 8788320, Note_on_c, 1, 39, 40
1, 8788560, Note_off_c, 1, 39, 0
1, 8788560, Note_on_c, 1, 42, 40
1, 8788800, Note_off_c, 1, 42, 0
1, 8788800, Note_on_c, 1, 42, 40
1, 8789040, Note_off_c, 1, 42, 0
1, 8789040, Note_on_c, 1, 39, 40
1, 8789400, Note_off_c, 1, 39, 0
1, 8789400, Note_on_c, 1, 42, 40
1, 8789640, Note_off_c, 1, 42, 0
1, 8789640, Note_on_c, 1, 35, 40
1, 8789880, Note_off_c, 1, 35, 0
1, 8789880, Note_on_c, 1, 35, 40
1, 8790120, Note_off_c, 1, 35, 0
1, 8790120, Note_on_c, 1, 39, 40
1, 8790360, Note_off_c, 1, 39, 0
1, 8790360, Note_on_c, 1, 39, 40
1, 8790600, Note_off_c, 1, 39, 0
1, 8790600, Note_on_c, 1, 42, 40
1, 8790840, Note_off_c, 1, 42, 0
1, 8790840, Note_on_c, 1, 42, 40
1, 8791080, Note_off_c, 1, 42, 0
1, 8791080, Note_on_c, 1, 39, 40
1, 8791320, Note_off_c, 1, 39, 0
1, 8791320, Note_on_c, 1, 42, 40
1, 8791560, Note_off_c, 1, 42, 0
1, 8791680, Note_on_c, 1, 28, 40
1, 8791920, Note_off_c, 1, 28, 0
1, 8791920, Note_on_c, 1, 32, 40
1, 8792160, Note_off_c, 1, 32, 0
1, 8792160, Note_on_c, 1, 32, 40
1, 8792400, Note_off_c, 1, 32, 0
1, 8792400, Note_on_c, 1, 35, 40
1, 8792640, Note_off_c, 1, 35, 0
1, 8792640, Note_on_c, 1, 35, 40
1, 8792880, Note_off_c, 1, 35, 0
1, 8792880, Note_on_c, 1, 32, 40
1, 8793000, Note_off_c, 1, 32, 0
1, 8793120, Note_on_c, 1, 35, 40
1, 8793360, Note_off_c, 1, 35, 0
1, 8793360, Note_on_c, 1, 28, 40
1, 8793600, Note_off_c, 1, 28, 0
1, 8793600, Note_on_c, 1, 28, 40
1, 8793840, Note_off_c, 1, 28, 0
1, 8793840, Note_on_c, 1, 32, 40
1, 8794080, Note_off_c, 1, 32, 0
1, 8794080, Note_on_c, 1, 32, 40
1, 8794320, Note_off_c, 1, 32, 0
1, 8794320, Note_on_c, 1, 35, 40
1, 8794560, Note_off_c, 1, 35, 0
1, 8794560, Note_on_c, 1, 35, 40
1, 8794680, Note_off_c, 1, 35, 0
1, 8794800, Note_on_c, 1, 32, 40
1, 8795040, Note_off_c, 1, 32, 0
1, 8795040, Note_on_c, 1, 32, 40
1, 8795160, Note_off_c, 1, 32, 0
1, 8795280, Note_on_c, 1, 35, 40
1, 8795520, Note_off_c, 1, 35, 0
1, 8795520, Note_on_c, 1, 35, 40
1, 8795640, Note_off_c, 1, 35, 0
1, 8795760, Note_on_c, 1, 39, 40
1, 8795880, Note_off_c, 1, 39, 0
1, 8796000, Note_on_c, 1, 39, 40
1, 8796240, Note_off_c, 1, 39, 0
1, 8796240, Note_on_c, 1, 42, 40
1, 8796480, Note_off_c, 1, 42, 0
1, 8796480, Note_on_c, 1, 42, 40
1, 8796720, Note_off_c, 1, 42, 0
1, 8796720, Note_on_c, 1, 39, 40
1, 8796960, Note_off_c, 1, 39, 0
1, 8796960, Note_on_c, 1, 42, 40
1, 8797080, Note_off_c, 1, 42, 0
1, 8797200, Note_on_c, 1, 35, 40
1, 8797440, Note_off_c, 1, 35, 0
1, 8797440, Note_on_c, 1, 35, 40
1, 8797680, Note_off_c, 1, 35, 0
1, 8797680, Note_on_c, 1, 39, 40
1, 8797920, Note_off_c, 1, 39, 0
1, 8797920, Note_on_c, 1, 39, 40
1, 8798160, Note_off_c, 1, 39, 0
1, 8798160, Note_on_c, 1, 42, 40
1, 8798400, Note_off_c, 1, 42, 0
1, 8798400, Note_on_c, 1, 42, 40
1, 8798640, Note_off_c, 1, 42, 0
1, 8798640, Note_on_c, 1, 39, 40
1, 8798880, Note_off_c, 1, 39, 0
1, 8798880, Note_on_c, 1, 42, 40
1, 8799120, Note_off_c, 1, 42, 0
1, 8799120, Note_on_c, 1, 28, 40
1, 8799240, Note_off_c, 1, 28, 0
1, 8799360, Note_on_c, 1, 28, 40
1, 8799600, Note_off_c, 1, 28, 0
1, 8799600, Note_on_c, 1, 32, 40
1, 8799720, Note_off_c, 1, 32, 0
1, 8799840, Note_on_c, 1, 32, 40
1, 8800080, Note_off_c, 1, 32, 0
1, 8800080, Note_on_c, 1, 35, 40
1, 8800320, Note_off_c, 1, 35, 0
1, 8800320, Note_on_c, 1, 35, 40
1, 8800560, Note_off_c, 1, 35, 0
1, 8800560, Note_on_c, 1, 32, 40
1, 8800920, Note_off_c, 1, 32, 0
1, 8800920, Note_on_c, 1, 35, 40
1, 8801160, Note_off_c, 1, 35, 0
1, 8801160, Note_on_c, 1, 30, 40
1, 8801400, Note_off_c, 1, 30, 0
1, 8801400, Note_on_c, 1, 30, 40
1, 8801640, Note_off_c, 1, 30, 0
1, 8801760, Note_on_c, 1, 34, 40
1, 8802000, Note_off_c, 1, 34, 0
1, 8802000, Note_on_c, 1, 37, 40
1, 8802240, Note_off_c, 1, 37, 0
1, 8802240, Note_on_c, 1, 37, 40
1, 8802480, Note_off_c, 1, 37, 0
1, 8802480, Note_on_c, 1, 34, 40
1, 8802720, Note_off_c, 1, 34, 0
1, 8802720, Note_on_c, 1, 37, 40
1, 8802960, Note_off_c, 1, 37, 0
1, 8802960, Note_on_c, 1, 35, 40
1, 8803200, Note_off_c, 1, 35, 0
1, 8803200, Note_on_c, 1, 35, 40
1, 8803320, Note_off_c, 1, 35, 0
1, 8803440, Note_on_c, 1, 39, 40
1, 8803560, Note_off_c, 1, 39, 0
1, 8803680, Note_on_c, 1, 39, 40
1, 8803920, Note_off_c, 1, 39, 0
1, 8803920, Note_on_c, 1, 42, 40
1, 8804160, Note_off_c, 1, 42, 0
1, 8804160, Note_on_c, 1, 42, 40
1, 8804400, Note_off_c, 1, 42, 0
1, 8804400, Note_on_c, 1, 39, 40
1, 8804640, Note_off_c, 1, 39, 0
1, 8804640, Note_on_c, 1, 42, 40
1, 8804880, Note_off_c, 1, 42, 0
1, 8804880, Note_on_c, 1, 35, 40
1, 8805120, Note_off_c, 1, 35, 0
1, 8805120, Note_on_c, 1, 35, 40
1, 8805360, Note_off_c, 1, 35, 0
1, 8805360, Note_on_c, 1, 32, 40
1, 8805600, Note_off_c, 1, 32, 0
1, 8805600, Note_on_c, 1, 32, 40
1, 8805840, Note_off_c, 1, 32, 0
1, 8805840, Note_on_c, 1, 33, 40
1, 8806080, Note_off_c, 1, 33, 0
1, 8806080, Note_on_c, 1, 33, 40
1, 8806200, Note_off_c, 1, 33, 0
1, 8806320, Note_on_c, 1, 34, 40
1, 8806560, Note_off_c, 1, 34, 0
1, 8806560, Note_on_c, 1, 34, 40
1, 8806680, Note_off_c, 1, 34, 0
1, 8806800, Note_on_c, 1, 35, 40
1, 8807040, Note_off_c, 1, 35, 0
1, 8807040, Note_on_c, 1, 35, 40
1, 8807280, Note_off_c, 1, 35, 0
1, 8807280, Note_on_c, 1, 39, 40
1, 8807520, Note_off_c, 1, 39, 0
1, 8807520, Note_on_c, 1, 39, 40
1, 8807760, Note_off_c, 1, 39, 0
1, 8807760, Note_on_c, 1, 42, 40
1, 8808000, Note_off_c, 1, 42, 0
1, 8808000, Note_on_c, 1, 42, 40
1, 8808240, Note_off_c, 1, 42, 0
1, 8808240, Note_on_c, 1, 39, 40
1, 8808600, Note_off_c, 1, 39, 0
1, 8808600, Note_on_c, 1, 42, 40
1, 8808840, Note_off_c, 1, 42, 0
1, 8808840, Note_on_c, 1, 28, 40
1, 8809080, Note_off_c, 1, 28, 0
1, 8809080, Note_on_c, 1, 28, 40
1, 8809320, Note_off_c, 1, 28, 0
1, 8809320, Note_on_c, 1, 32, 40
1, 8809560, Note_off_c, 1, 32, 0
1, 8809560, Note_on_c, 1, 32, 40
1, 8809800, Note_off_c, 1, 32, 0
1, 8809800, Note_on_c, 1, 35, 40
1, 8810040, Note_off_c, 1, 35, 0
1, 8810040, Note_on_c, 1, 35, 40
1, 8810280, Note_off_c, 1, 35, 0
1, 8810280, Note_on_c, 1, 32, 40
1, 8810520, Note_off_c, 1, 32, 0
1, 8810520, Note_on_c, 1, 35, 40
1, 8810760, Note_off_c, 1, 35, 0
1, 8810760, Note_on_c, 1, 35, 40
1, 8811000, Note_off_c, 1, 35, 0
1, 8811120, Note_on_c, 1, 39, 40
1, 8811360, Note_off_c, 1, 39, 0
1, 8811360, Note_on_c, 1, 39, 40
1, 8811600, Note_off_c, 1, 39, 0
1, 8811600, Note_on_c, 1, 42, 40
1, 8811840, Note_off_c, 1, 42, 0
1, 8811840, Note_on_c, 1, 42, 40
1, 8812080, Note_off_c, 1, 42, 0
1, 8812080, Note_on_c, 1, 39, 40
1, 8812440, Note_off_c, 1, 39, 0
1, 8812440, Note_on_c, 1, 42, 40
1, 8812680, Note_off_c, 1, 42, 0
1, 8812680, Note_on_c, 1, 35, 40
1, 8812920, Note_off_c, 1, 35, 0
1, 8812920, Note_on_c, 1, 35, 40
1, 8813160, Note_off_c, 1, 35, 0
1, 8813160, Note_on_c, 1, 39, 40
1, 8813400, Note_off_c, 1, 39, 0
1, 8813400, Note_on_c, 1, 39, 40
1, 8813640, Note_off_c, 1, 39, 0
1, 8813640, Note_on_c, 1, 42, 40
1, 8813880, Note_off_c, 1, 42, 0
1, 8813880, Note_on_c, 1, 42, 40
1, 8814120, Note_off_c, 1, 42, 0
1, 8814120, Note_on_c, 1, 39, 40
1, 8814360, Note_off_c, 1, 39, 0
1, 8814360, Note_on_c, 1, 42, 40
1, 8814600, Note_off_c, 1, 42, 0
1, 8814720, Note_on_c, 1, 28, 40
1, 8814960, Note_off_c, 1, 28, 0
1, 8814960, Note_on_c, 1, 32, 40
1, 8815200, Note_off_c, 1, 32, 0
1, 8815200, Note_on_c, 1, 32, 40
1, 8815440, Note_off_c, 1, 32, 0
1, 8815440, Note_on_c, 1, 35, 40
1, 8815680, Note_off_c, 1, 35, 0
1, 8815680, Note_on_c, 1, 35, 40
1, 8815920, Note_off_c, 1, 35, 0
1, 8815920, Note_on_c, 1, 32, 40
1, 8816040, Note_off_c, 1, 32, 0
1, 8816160, Note_on_c, 1, 35, 40
1, 8816400, Note_off_c, 1, 35, 0
1, 8816400, Note_on_c, 1, 28, 40
1, 8816640, Note_off_c, 1, 28, 0
1, 8816640, Note_on_c, 1, 28, 40
1, 8816880, Note_off_c, 1, 28, 0
1, 8816880, Note_on_c, 1, 32, 40
1, 8817120, Note_off_c, 1, 32, 0
1, 8817120, Note_on_c, 1, 32, 40
1, 8817360, Note_off_c, 1, 32, 0
1, 8817360, Note_on_c, 1, 35, 40
1, 8817600, Note_off_c, 1, 35, 0
1, 8817600, Note_on_c, 1, 35, 40
1, 8817720, Note_off_c, 1, 35, 0
1, 8817840, Note_on_c, 1, 32, 40
1, 8818080, Note_off_c, 1, 32, 0
1, 8818080, Note_on_c, 1, 32, 40
1, 8818200, Note_off_c, 1, 32, 0
1, 8818320, Note_on_c, 1, 35, 40
1, 8818560, Note_off_c, 1, 35, 0
1, 8818560, Note_on_c, 1, 35, 40
1, 8818680, Note_off_c, 1, 35, 0
1, 8818800, Note_on_c, 1, 39, 40
1, 8818920, Note_off_c, 1, 39, 0
1, 8819040, Note_on_c, 1, 39, 40
1, 8819280, Note_off_c, 1, 39, 0
1, 8819280, Note_on_c, 1, 42, 40
1, 8819520, Note_off_c, 1, 42, 0
1, 8819520, Note_on_c, 1, 42, 40
1, 8819760, Note_off_c, 1, 42, 0
1, 8819760, Note_on_c, 1, 39, 40
1, 8820000, Note_off_c, 1, 39, 0
1, 8820000, Note_on_c, 1, 42, 40
1, 8820120, Note_off_c, 1, 42, 0
1, 8820240, Note_on_c, 1, 35, 40
1, 8820480, Note_off_c, 1, 35, 0
1, 8820480, Note_on_c, 1, 35, 40
1, 8820720, Note_off_c, 1, 35, 0
1, 8820720, Note_on_c, 1, 39, 40
1, 8820960, Note_off_c, 1, 39, 0
1, 8820960, Note_on_c, 1, 39, 40
1, 8821200, Note_off_c, 1, 39, 0
1, 8821200, Note_on_c, 1, 42, 40
1, 8821440, Note_off_c, 1, 42, 0
1, 8821440, Note_on_c, 1, 42, 40
1, 8821680, Note_off_c, 1, 42, 0
1, 8821680, Note_on_c, 1, 39, 40
1, 8821920, Note_off_c, 1, 39, 0
1, 8821920, Note_on_c, 1, 42, 40
1, 8822160, Note_off_c, 1, 42, 0
1, 8822160, Note_on_c, 1, 28, 40
1, 8822280, Note_off_c, 1, 28, 0
1, 8822400, Note_on_c, 1, 28, 40
1, 8822640, Note_off_c, 1, 28, 0
1, 8822640, Note_on_c, 1, 32, 40
1, 8822760, Note_off_c, 1, 32, 0
1, 8822880, Note_on_c, 1, 32, 40
1, 8823120, Note_off_c, 1, 32, 0
1, 8823120, Note_on_c, 1, 35, 40
1, 8823360, Note_off_c, 1, 35, 0
1, 8823360, Note_on_c, 1, 35, 40
1, 8823600, Note_off_c, 1, 35, 0
1, 8823600, Note_on_c, 1, 32, 40
1, 8823960, Note_off_c, 1, 32, 0
1, 8823960, Note_on_c, 1, 35, 40
1, 8824200, Note_off_c, 1, 35, 0
1, 8824200, Note_on_c, 1, 30, 40
1, 8824440, Note_off_c, 1, 30, 0
1, 8824440, Note_on_c, 1, 30, 40
1, 8824680, Note_off_c, 1, 30, 0
1, 8824800, Note_on_c, 1, 34, 40
1, 8825040, Note_off_c, 1, 34, 0
1, 8825040, Note_on_c, 1, 37, 40
1, 8825280, Note_off_c, 1, 37, 0
1, 8825280, Note_on_c, 1, 37, 40
1, 8825520, Note_off_c, 1, 37, 0
1, 8825520, Note_on_c, 1, 34, 40
1, 8825760, Note_off_c, 1, 34, 0
1, 8825760, Note_on_c, 1, 37, 40
1, 8826000, Note_off_c, 1, 37, 0
1, 8826000, Note_on_c, 1, 35, 40
1, 8826240, Note_off_c, 1, 35, 0
1, 8826240, Note_on_c, 1, 35, 40
1, 8826360, Note_off_c, 1, 35, 0
1, 8826480, Note_on_c, 1, 39, 40
1, 8826600, Note_off_c, 1, 39, 0
1, 8826720, Note_on_c, 1, 39, 40
1, 8826960, Note_off_c, 1, 39, 0
1, 8826960, Note_on_c, 1, 42, 40
1, 8827200, Note_off_c, 1, 42, 0
1, 8827200, Note_on_c, 1, 42, 40
1, 8827440, Note_off_c, 1, 42, 0
1, 8827440, Note_on_c, 1, 39, 40
1, 8827680, Note_off_c, 1, 39, 0
1, 8827680, Note_on_c, 1, 42, 40
1, 8827920, Note_off_c, 1, 42, 0
1, 8827920, Note_on_c, 1, 35, 40
1, 8828160, Note_off_c, 1, 35, 0
1, 8828160, Note_on_c, 1, 35, 40
1, 8828400, Note_off_c, 1, 35, 0
1, 8828400, Note_on_c, 1, 32, 40
1, 8828640, Note_off_c, 1, 32, 0
1, 8828640, Note_on_c, 1, 32, 40
1, 8828880, Note_off_c, 1, 32, 0
1, 8828880, Note_on_c, 1, 33, 40
1, 8829120, Note_off_c, 1, 33, 0
1, 8829120, Note_on_c, 1, 33, 40
1, 8829240, Note_off_c, 1, 33, 0
1, 8829360, Note_on_c, 1, 34, 40
1, 8829600, Note_off_c, 1, 34, 0
1, 8829600, Note_on_c, 1, 34, 40
1, 8829720, Note_off_c, 1, 34, 0
1, 8829840, Note_on_c, 1, 35, 40
1, 8830440, Note_off_c, 1, 35, 0
1, 8830440, Note_on_c, 1, 47, 40
1, 8831280, Note_off_c, 1, 47, 0
1, 8831280, Note_on_c, 1, 47, 40
1, 8831760, Note_off_c, 1, 47, 0
1, 8831760, Note_on_c, 1, 35, 40
1, 8832360, Note_off_c, 1, 35, 0
1, 8832360, Note_on_c, 1, 47, 40
1, 8832600, Note_off_c, 1, 47, 0
1, 8832600, Note_on_c, 1, 35, 40
1, 8832960, Note_off_c, 1, 35, 0
1, 8832960, Note_on_c, 1, 42, 40
1, 8833320, Note_off_c, 1, 42, 0
1, 8833440, Note_on_c, 1, 39, 40
1, 8833680, Note_off_c, 1, 39, 0
1, 8833680, Note_on_c, 1, 35, 40
1, 8834280, Note_off_c, 1, 35, 0
1, 8834280, Note_on_c, 1, 47, 40
1, 8835120, Note_off_c, 1, 47, 0
1, 8835120, Note_on_c, 1, 47, 40
1, 8835600, Note_off_c, 1, 47, 0
1, 8835600, Note_on_c, 1, 35, 40
1, 8836200, Note_off_c, 1, 35, 0
1, 8836200, Note_on_c, 1, 47, 40
1, 8836440, Note_off_c, 1, 47, 0
1, 8836440, Note_on_c, 1, 35, 40
1, 8836800, Note_off_c, 1, 35, 0
1, 8836800, Note_on_c, 1, 42, 40
1, 8837160, Note_off_c, 1, 42, 0
1, 8837280, Note_on_c, 1, 39, 40
1, 8837520, Note_off_c, 1, 39, 0
1, 8837520, Note_on_c, 1, 40, 40
1, 8837640, Note_off_c, 1, 40, 0
1, 8837760, Note_on_c, 1, 40, 40
1, 8837880, Note_off_c, 1, 40, 0
1, 8838000, Note_on_c, 1, 40, 40
1, 8838120, Note_off_c, 1, 40, 0
1, 8838240, Note_on_c, 1, 40, 40
1, 8838480, Note_off_c, 1, 40, 0
1, 8838480, Note_on_c, 1, 39, 40
1, 8838720, Note_off_c, 1, 39, 0
1, 8838720, Note_on_c, 1, 40, 40
1, 8838840, Note_off_c, 1, 40, 0
1, 8838960, Note_on_c, 1, 40, 40
1, 8839080, Note_off_c, 1, 40, 0
1, 8839200, Note_on_c, 1, 40, 40
1, 8839440, Note_off_c, 1, 40, 0
1, 8839440, Note_on_c, 1, 39, 40
1, 8839680, Note_off_c, 1, 39, 0
1, 8839680, Note_on_c, 1, 40, 40
1, 8839800, Note_off_c, 1, 40, 0
1, 8839920, Note_on_c, 1, 40, 40
1, 8840040, Note_off_c, 1, 40, 0
1, 8840160, Note_on_c, 1, 40, 40
1, 8840280, Note_off_c, 1, 40, 0
1, 8840400, Note_on_c, 1, 40, 40
1, 8840760, Note_off_c, 1, 40, 0
1, 8840760, Note_on_c, 1, 42, 40
1, 8841120, Note_off_c, 1, 42, 0
1, 8841120, Note_on_c, 1, 39, 40
1, 8841360, Note_off_c, 1, 39, 0
1, 8841360, Note_on_c, 1, 35, 40
1, 8841480, Note_off_c, 1, 35, 0
1, 8841600, Note_on_c, 1, 35, 40
1, 8841960, Note_off_c, 1, 35, 0
1, 8841960, Note_on_c, 1, 47, 40
1, 8842680, Note_off_c, 1, 47, 0
1, 8842680, Note_on_c, 1, 35, 40
1, 8843040, Note_off_c, 1, 35, 0
1, 8843040, Note_on_c, 1, 47, 40
1, 8843400, Note_off_c, 1, 47, 0
1, 8843400, Note_on_c, 1, 35, 40
1, 8843640, Note_off_c, 1, 35, 0
1, 8843640, Note_on_c, 1, 35, 40
1, 8844000, Note_off_c, 1, 35, 0
1, 8844000, Note_on_c, 1, 35, 40
1, 8844240, Note_off_c, 1, 35, 0
1, 8844240, Note_on_c, 1, 35, 40
1, 8844480, Note_off_c, 1, 35, 0
1, 8844480, Note_on_c, 1, 35, 40
1, 8844720, Note_off_c, 1, 35, 0
1, 8844720, Note_on_c, 1, 47, 40
1, 8844960, Note_off_c, 1, 47, 0
1, 8844960, Note_on_c, 1, 42, 40
1, 8845200, Note_off_c, 1, 42, 0
1, 8845200, Note_on_c, 1, 40, 40
1, 8845320, Note_off_c, 1, 40, 0
1, 8845440, Note_on_c, 1, 40, 40
1, 8845560, Note_off_c, 1, 40, 0
1, 8845680, Note_on_c, 1, 40, 40
1, 8845800, Note_off_c, 1, 40, 0
1, 8845920, Note_on_c, 1, 40, 40
1, 8846040, Note_off_c, 1, 40, 0
1, 8846160, Note_on_c, 1, 40, 40
1, 8846400, Note_off_c, 1, 40, 0
1, 8846400, Note_on_c, 1, 40, 40
1, 8846640, Note_off_c, 1, 40, 0
1, 8846640, Note_on_c, 1, 40, 40
1, 8846880, Note_off_c, 1, 40, 0
1, 8846880, Note_on_c, 1, 40, 40
1, 8847000, Note_off_c, 1, 40, 0
1, 8847120, Note_on_c, 1, 42, 40
1, 8847360, Note_off_c, 1, 42, 0
1, 8847360, Note_on_c, 1, 42, 40
1, 8847480, Note_off_c, 1, 42, 0
1, 8847600, Note_on_c, 1, 42, 40
1, 8847840, Note_off_c, 1, 42, 0
1, 8847840, Note_on_c, 1, 42, 40
1, 8847960, Note_off_c, 1, 42, 0
1, 8848080, Note_on_c, 1, 42, 40
1, 8848320, Note_off_c, 1, 42, 0
1, 8848320, Note_on_c, 1, 42, 40
1, 8848440, Note_off_c, 1, 42, 0
1, 8848560, Note_on_c, 1, 42, 40
1, 8848680, Note_off_c, 1, 42, 0
1, 8848800, Note_on_c, 1, 42, 40
1, 8848920, Note_off_c, 1, 42, 0
1, 8849040, Note_on_c, 1, 35, 40
1, 8849160, Note_off_c, 1, 35, 0
1, 8849280, Note_on_c, 1, 35, 40
1, 8849520, Note_off_c, 1, 35, 0
1, 8849520, Note_on_c, 1, 35, 40
1, 8849640, Note_off_c, 1, 35, 0
1, 8849760, Note_on_c, 1, 35, 40
1, 8849880, Note_off_c, 1, 35, 0
1, 8850000, Note_on_c, 1, 35, 40
1, 8850240, Note_off_c, 1, 35, 0
1, 8850240, Note_on_c, 1, 35, 40
1, 8850360, Note_off_c, 1, 35, 0
1, 8850480, Note_on_c, 1, 35, 40
1, 8850720, Note_off_c, 1, 35, 0
1, 8850720, Note_on_c, 1, 35, 40
1, 8850960, Note_off_c, 1, 35, 0
1, 8850960, Note_on_c, 1, 35, 40
1, 8851080, Note_off_c, 1, 35, 0
1, 8851200, Note_on_c, 1, 35, 40
1, 8851320, Note_off_c, 1, 35, 0
1, 8851440, Note_on_c, 1, 35, 40
1, 8851680, Note_off_c, 1, 35, 0
1, 8851680, Note_on_c, 1, 35, 40
1, 8851800, Note_off_c, 1, 35, 0
1, 8851920, Note_on_c, 1, 35, 40
1, 8852160, Note_off_c, 1, 35, 0
1, 8852160, Note_on_c, 1, 35, 40
1, 8852280, Note_off_c, 1, 35, 0
1, 8852400, Note_on_c, 1, 35, 40
1, 8852640, Note_off_c, 1, 35, 0
1, 8852640, Note_on_c, 1, 35, 40
1, 8852880, Note_off_c, 1, 35, 0
1, 8852880, Note_on_c, 1, 35, 40
1, 8853120, Note_off_c, 1, 35, 0
1, 8853120, Note_on_c, 1, 35, 40
1, 8853360, Note_off_c, 1, 35, 0
1, 8853360, Note_on_c, 1, 39, 40
1, 8853600, Note_off_c, 1, 39, 0
1, 8853600, Note_on_c, 1, 39, 40
1, 8853840, Note_off_c, 1, 39, 0
1, 8853840, Note_on_c, 1, 42, 40
1, 8854080, Note_off_c, 1, 42, 0
1, 8854080, Note_on_c, 1, 42, 40
1, 8854320, Note_off_c, 1, 42, 0
1, 8854320, Note_on_c, 1, 39, 40
1, 8854680, Note_off_c, 1, 39, 0
1, 8854680, Note_on_c, 1, 42, 40
1, 8854920, Note_off_c, 1, 42, 0
1, 8854920, Note_on_c, 1, 28, 40
1, 8855160, Note_off_c, 1, 28, 0
1, 8855160, Note_on_c, 1, 28, 40
1, 8855400, Note_off_c, 1, 28, 0
1, 8855400, Note_on_c, 1, 32, 40
1, 8855640, Note_off_c, 1, 32, 0
1, 8855640, Note_on_c, 1, 32, 40
1, 8855880, Note_off_c, 1, 32, 0
1, 8855880, Note_on_c, 1, 35, 40
1, 8856120, Note_off_c, 1, 35, 0
1, 8856120, Note_on_c, 1, 35, 40
1, 8856360, Note_off_c, 1, 35, 0
1, 8856360, Note_on_c, 1, 32, 40
1, 8856600, Note_off_c, 1, 32, 0
1, 8856600, Note_on_c, 1, 35, 40
1, 8856840, Note_off_c, 1, 35, 0
1, 8856840, Note_on_c, 1, 35, 40
1, 8857080, Note_off_c, 1, 35, 0
1, 8857200, Note_on_c, 1, 39, 40
1, 8857440, Note_off_c, 1, 39, 0
1, 8857440, Note_on_c, 1, 39, 40
1, 8857680, Note_off_c, 1, 39, 0
1, 8857680, Note_on_c, 1, 42, 40
1, 8857920, Note_off_c, 1, 42, 0
1, 8857920, Note_on_c, 1, 42, 40
1, 8858160, Note_off_c, 1, 42, 0
1, 8858160, Note_on_c, 1, 39, 40
1, 8858520, Note_off_c, 1, 39, 0
1, 8858520, Note_on_c, 1, 42, 40
1, 8858760, Note_off_c, 1, 42, 0
1, 8858760, Note_on_c, 1, 35, 40
1, 8859000, Note_off_c, 1, 35, 0
1, 8859000, Note_on_c, 1, 35, 40
1, 8859240, Note_off_c, 1, 35, 0
1, 8859240, Note_on_c, 1, 39, 40
1, 8859480, Note_off_c, 1, 39, 0
1, 8859480, Note_on_c, 1, 39, 40
1, 8859720, Note_off_c, 1, 39, 0
1, 8859720, Note_on_c, 1, 42, 40
1, 8859960, Note_off_c, 1, 42, 0
1, 8859960, Note_on_c, 1, 42, 40
1, 8860200, Note_off_c, 1, 42, 0
1, 8860200, Note_on_c, 1, 39, 40
1, 8860440, Note_off_c, 1, 39, 0
1, 8860440, Note_on_c, 1, 42, 40
1, 8860680, Note_off_c, 1, 42, 0
1, 8860800, Note_on_c, 1, 28, 40
1, 8861040, Note_off_c, 1, 28, 0
1, 8861040, Note_on_c, 1, 32, 40
1, 8861280, Note_off_c, 1, 32, 0
1, 8861280, Note_on_c, 1, 32, 40
1, 8861520, Note_off_c, 1, 32, 0
1, 8861520, Note_on_c, 1, 35, 40
1, 8861760, Note_off_c, 1, 35, 0
1, 8861760, Note_on_c, 1, 35, 40
1, 8862000, Note_off_c, 1, 35, 0
1, 8862000, Note_on_c, 1, 32, 40
1, 8862120, Note_off_c, 1, 32, 0
1, 8862240, Note_on_c, 1, 35, 40
1, 8862480, Note_off_c, 1, 35, 0
1, 8862480, Note_on_c, 1, 28, 40
1, 8862720, Note_off_c, 1, 28, 0
1, 8862720, Note_on_c, 1, 28, 40
1, 8862960, Note_off_c, 1, 28, 0
1, 8862960, Note_on_c, 1, 32, 40
1, 8863200, Note_off_c, 1, 32, 0
1, 8863200, Note_on_c, 1, 32, 40
1, 8863440, Note_off_c, 1, 32, 0
1, 8863440, Note_on_c, 1, 35, 40
1, 8863680, Note_off_c, 1, 35, 0
1, 8863680, Note_on_c, 1, 35, 40
1, 8863800, Note_off_c, 1, 35, 0
1, 8863920, Note_on_c, 1, 32, 40
1, 8864160, Note_off_c, 1, 32, 0
1, 8864160, Note_on_c, 1, 32, 40
1, 8864280, Note_off_c, 1, 32, 0
1, 8864400, Note_on_c, 1, 35, 40
1, 8864640, Note_off_c, 1, 35, 0
1, 8864640, Note_on_c, 1, 35, 40
1, 8864760, Note_off_c, 1, 35, 0
1, 8864880, Note_on_c, 1, 39, 40
1, 8865000, Note_off_c, 1, 39, 0
1, 8865120, Note_on_c, 1, 39, 40
1, 8865360, Note_off_c, 1, 39, 0
1, 8865360, Note_on_c, 1, 42, 40
1, 8865600, Note_off_c, 1, 42, 0
1, 8865600, Note_on_c, 1, 42, 40
1, 8865840, Note_off_c, 1, 42, 0
1, 8865840, Note_on_c, 1, 39, 40
1, 8866080, Note_off_c, 1, 39, 0
1, 8866080, Note_on_c, 1, 42, 40
1, 8866200, Note_off_c, 1, 42, 0
1, 8866320, Note_on_c, 1, 35, 40
1, 8866560, Note_off_c, 1, 35, 0
1, 8866560, Note_on_c, 1, 35, 40
1, 8866800, Note_off_c, 1, 35, 0
1, 8866800, Note_on_c, 1, 39, 40
1, 8867040, Note_off_c, 1, 39, 0
1, 8867040, Note_on_c, 1, 39, 40
1, 8867280, Note_off_c, 1, 39, 0
1, 8867280, Note_on_c, 1, 42, 40
1, 8867520, Note_off_c, 1, 42, 0
1, 8867520, Note_on_c, 1, 42, 40
1, 8867760, Note_off_c, 1, 42, 0
1, 8867760, Note_on_c, 1, 39, 40
1, 8868000, Note_off_c, 1, 39, 0
1, 8868000, Note_on_c, 1, 42, 40
1, 8868240, Note_off_c, 1, 42, 0
1, 8868240, Note_on_c, 1, 28, 40
1, 8868360, Note_off_c, 1, 28, 0
1, 8868480, Note_on_c, 1, 28, 40
1, 8868720, Note_off_c, 1, 28, 0
1, 8868720, Note_on_c, 1, 32, 40
1, 8868840, Note_off_c, 1, 32, 0
1, 8868960, Note_on_c, 1, 32, 40
1, 8869200, Note_off_c, 1, 32, 0
1, 8869200, Note_on_c, 1, 35, 40
1, 8869440, Note_off_c, 1, 35, 0
1, 8869440, Note_on_c, 1, 35, 40
1, 8869680, Note_off_c, 1, 35, 0
1, 8869680, Note_on_c, 1, 32, 40
1, 8870040, Note_off_c, 1, 32, 0
1, 8870040, Note_on_c, 1, 35, 40
1, 8870280, Note_off_c, 1, 35, 0
1, 8870280, Note_on_c, 1, 30, 40
1, 8870520, Note_off_c, 1, 30, 0
1, 8870520, Note_on_c, 1, 30, 40
1, 8870760, Note_off_c, 1, 30, 0
1, 8870880, Note_on_c, 1, 34, 40
1, 8871120, Note_off_c, 1, 34, 0
1, 8871120, Note_on_c, 1, 37, 40
1, 8871360, Note_off_c, 1, 37, 0
1, 8871360, Note_on_c, 1, 37, 40
1, 8871600, Note_off_c, 1, 37, 0
1, 8871600, Note_on_c, 1, 34, 40
1, 8871840, Note_off_c, 1, 34, 0
1, 8871840, Note_on_c, 1, 37, 40
1, 8872080, Note_off_c, 1, 37, 0
1, 8872080, Note_on_c, 1, 35, 40
1, 8872320, Note_off_c, 1, 35, 0
1, 8872320, Note_on_c, 1, 35, 40
1, 8872440, Note_off_c, 1, 35, 0
1, 8872560, Note_on_c, 1, 39, 40
1, 8872680, Note_off_c, 1, 39, 0
1, 8872800, Note_on_c, 1, 39, 40
1, 8873040, Note_off_c, 1, 39, 0
1, 8873040, Note_on_c, 1, 42, 40
1, 8873280, Note_off_c, 1, 42, 0
1, 8873280, Note_on_c, 1, 42, 40
1, 8873520, Note_off_c, 1, 42, 0
1, 8873520, Note_on_c, 1, 39, 40
1, 8873760, Note_off_c, 1, 39, 0
1, 8873760, Note_on_c, 1, 42, 40
1, 8874000, Note_off_c, 1, 42, 0
1, 8874000, Note_on_c, 1, 35, 40
1, 8874240, Note_off_c, 1, 35, 0
1, 8874240, Note_on_c, 1, 35, 40
1, 8874480, Note_off_c, 1, 35, 0
1, 8874480, Note_on_c, 1, 32, 40
1, 8874720, Note_off_c, 1, 32, 0
1, 8874720, Note_on_c, 1, 32, 40
1, 8874960, Note_off_c, 1, 32, 0
1, 8874960, Note_on_c, 1, 33, 40
1, 8875200, Note_off_c, 1, 33, 0
1, 8875200, Note_on_c, 1, 33, 40
1, 8875320, Note_off_c, 1, 33, 0
1, 8875440, Note_on_c, 1, 34, 40
1, 8875680, Note_off_c, 1, 34, 0
1, 8875680, Note_on_c, 1, 34, 40
1, 8875800, Note_off_c, 1, 34, 0
1, 8875920, Note_on_c, 1, 35, 40
1, 8876160, Note_off_c, 1, 35, 0
1, 8876160, Note_on_c, 1, 35, 40
1, 8876400, Note_off_c, 1, 35, 0
1, 8876400, Note_on_c, 1, 39, 40
1, 8876640, Note_off_c, 1, 39, 0
1, 8876640, Note_on_c, 1, 39, 40
1, 8876880, Note_off_c, 1, 39, 0
1, 8876880, Note_on_c, 1, 42, 40
1, 8877120, Note_off_c, 1, 42, 0
1, 8877120, Note_on_c, 1, 42, 40
1, 8877360, Note_off_c, 1, 42, 0
1, 8877360, Note_on_c, 1, 39, 40
1, 8877720, Note_off_c, 1, 39, 0
1, 8877720, Note_on_c, 1, 42, 40
1, 8877960, Note_off_c, 1, 42, 0
1, 8877960, Note_on_c, 1, 28, 40
1, 8878200, Note_off_c, 1, 28, 0
1, 8878200, Note_on_c, 1, 28, 40
1, 8878440, Note_off_c, 1, 28, 0
1, 8878440, Note_on_c, 1, 32, 40
1, 8878680, Note_off_c, 1, 32, 0
1, 8878680, Note_on_c, 1, 32, 40
1, 8878920, Note_off_c, 1, 32, 0
1, 8878920, Note_on_c, 1, 35, 40
1, 8879160, Note_off_c, 1, 35, 0
1, 8879160, Note_on_c, 1, 35, 40
1, 8879400, Note_off_c, 1, 35, 0
1, 8879400, Note_on_c, 1, 32, 40
1, 8879640, Note_off_c, 1, 32, 0
1, 8879640, Note_on_c, 1, 35, 40
1, 8879880, Note_off_c, 1, 35, 0
1, 8879880, Note_on_c, 1, 35, 40
1, 8880120, Note_off_c, 1, 35, 0
1, 8880240, Note_on_c, 1, 39, 40
1, 8880480, Note_off_c, 1, 39, 0
1, 8880480, Note_on_c, 1, 39, 40
1, 8880720, Note_off_c, 1, 39, 0
1, 8880720, Note_on_c, 1, 42, 40
1, 8880960, Note_off_c, 1, 42, 0
1, 8880960, Note_on_c, 1, 42, 40
1, 8881200, Note_off_c, 1, 42, 0
1, 8881200, Note_on_c, 1, 39, 40
1, 8881560, Note_off_c, 1, 39, 0
1, 8881560, Note_on_c, 1, 42, 40
1, 8881800, Note_off_c, 1, 42, 0
1, 8881800, Note_on_c, 1, 35, 40
1, 8882040, Note_off_c, 1, 35, 0
1, 8882040, Note_on_c, 1, 35, 40
1, 8882280, Note_off_c, 1, 35, 0
1, 8882280, Note_on_c, 1, 39, 40
1, 8882520, Note_off_c, 1, 39, 0
1, 8882520, Note_on_c, 1, 39, 40
1, 8882760, Note_off_c, 1, 39, 0
1, 8882760, Note_on_c, 1, 42, 40
1, 8883000, Note_off_c, 1, 42, 0
1, 8883000, Note_on_c, 1, 42, 40
1, 8883240, Note_off_c, 1, 42, 0
1, 8883240, Note_on_c, 1, 39, 40
1, 8883480, Note_off_c, 1, 39, 0
1, 8883480, Note_on_c, 1, 42, 40
1, 8883720, Note_off_c, 1, 42, 0
1, 8883840, Note_on_c, 1, 28, 40
1, 8884080, Note_off_c, 1, 28, 0
1, 8884080, Note_on_c, 1, 32, 40
1, 8884320, Note_off_c, 1, 32, 0
1, 8884320, Note_on_c, 1, 32, 40
1, 8884560, Note_off_c, 1, 32, 0
1, 8884560, Note_on_c, 1, 35, 40
1, 8884800, Note_off_c, 1, 35, 0
1, 8884800, Note_on_c, 1, 35, 40
1, 8885040, Note_off_c, 1, 35, 0
1, 8885040, Note_on_c, 1, 32, 40
1, 8885160, Note_off_c, 1, 32, 0
1, 8885280, Note_on_c, 1, 35, 40
1, 8885520, Note_off_c, 1, 35, 0
1, 8885520, Note_on_c, 1, 28, 40
1, 8885760, Note_off_c, 1, 28, 0
1, 8885760, Note_on_c, 1, 28, 40
1, 8886000, Note_off_c, 1, 28, 0
1, 8886000, Note_on_c, 1, 32, 40
1, 8886240, Note_off_c, 1, 32, 0
1, 8886240, Note_on_c, 1, 32, 40
1, 8886480, Note_off_c, 1, 32, 0
1, 8886480, Note_on_c, 1, 35, 40
1, 8886720, Note_off_c, 1, 35, 0
1, 8886720, Note_on_c, 1, 35, 40
1, 8886840, Note_off_c, 1, 35, 0
1, 8886960, Note_on_c, 1, 32, 40
1, 8887200, Note_off_c, 1, 32, 0
1, 8887200, Note_on_c, 1, 32, 40
1, 8887320, Note_off_c, 1, 32, 0
1, 8887440, Note_on_c, 1, 35, 40
1, 8887680, Note_off_c, 1, 35, 0
1, 8887680, Note_on_c, 1, 35, 40
1, 8887800, Note_off_c, 1, 35, 0
1, 8887920, Note_on_c, 1, 39, 40
1, 8888040, Note_off_c, 1, 39, 0
1, 8888160, Note_on_c, 1, 39, 40
1, 8888400, Note_off_c, 1, 39, 0
1, 8888400, Note_on_c, 1, 42, 40
1, 8888640, Note_off_c, 1, 42, 0
1, 8888640, Note_on_c, 1, 42, 40
1, 8888880, Note_off_c, 1, 42, 0
1, 8888880, Note_on_c, 1, 39, 40
1, 8889120, Note_off_c, 1, 39, 0
1, 8889120, Note_on_c, 1, 42, 40
1, 8889240, Note_off_c, 1, 42, 0
1, 8889360, Note_on_c, 1, 35, 40
1, 8889600, Note_off_c, 1, 35, 0
1, 8889600, Note_on_c, 1, 35, 40
1, 8889840, Note_off_c, 1, 35, 0
1, 8889840, Note_on_c, 1, 39, 40
1, 8890080, Note_off_c, 1, 39, 0
1, 8890080, Note_on_c, 1, 39, 40
1, 8890320, Note_off_c, 1, 39, 0
1, 8890320, Note_on_c, 1, 42, 40
1, 8890560, Note_off_c, 1, 42, 0
1, 8890560, Note_on_c, 1, 42, 40
1, 8890800, Note_off_c, 1, 42, 0
1, 8890800, Note_on_c, 1, 39, 40
1, 8891040, Note_off_c, 1, 39, 0
1, 8891040, Note_on_c, 1, 42, 40
1, 8891280, Note_off_c, 1, 42, 0
1, 8891280, Note_on_c, 1, 28, 40
1, 8891400, Note_off_c, 1, 28, 0
1, 8891520, Note_on_c, 1, 28, 40
1, 8891760, Note_off_c, 1, 28, 0
1, 8891760, Note_on_c, 1, 32, 40
1, 8891880, Note_off_c, 1, 32, 0
1, 8892000, Note_on_c, 1, 32, 40
1, 8892240, Note_off_c, 1, 32, 0
1, 8892240, Note_on_c, 1, 35, 40
1, 8892480, Note_off_c, 1, 35, 0
1, 8892480, Note_on_c, 1, 35, 40
1, 8892720, Note_off_c, 1, 35, 0
1, 8892720, Note_on_c, 1, 32, 40
1, 8893080, Note_off_c, 1, 32, 0
1, 8893080, Note_on_c, 1, 35, 40
1, 8893320, Note_off_c, 1, 35, 0
1, 8893320, Note_on_c, 1, 30, 40
1, 8893560, Note_off_c, 1, 30, 0
1, 8893560, Note_on_c, 1, 30, 40
1, 8893800, Note_off_c, 1, 30, 0
1, 8893920, Note_on_c, 1, 34, 40
1, 8894160, Note_off_c, 1, 34, 0
1, 8894160, Note_on_c, 1, 37, 40
1, 8894400, Note_off_c, 1, 37, 0
1, 8894400, Note_on_c, 1, 37, 40
1, 8894640, Note_off_c, 1, 37, 0
1, 8894640, Note_on_c, 1, 34, 40
1, 8894880, Note_off_c, 1, 34, 0
1, 8894880, Note_on_c, 1, 37, 40
1, 8895120, Note_off_c, 1, 37, 0
1, 8895120, Note_on_c, 1, 35, 40
1, 8895360, Note_off_c, 1, 35, 0
1, 8895360, Note_on_c, 1, 35, 40
1, 8895480, Note_off_c, 1, 35, 0
1, 8895600, Note_on_c, 1, 39, 40
1, 8895720, Note_off_c, 1, 39, 0
1, 8895840, Note_on_c, 1, 39, 40
1, 8896080, Note_off_c, 1, 39, 0
1, 8896080, Note_on_c, 1, 42, 40
1, 8896320, Note_off_c, 1, 42, 0
1, 8896320, Note_on_c, 1, 42, 40
1, 8896560, Note_off_c, 1, 42, 0
1, 8896560, Note_on_c, 1, 39, 40
1, 8896800, Note_off_c, 1, 39, 0
1, 8896800, Note_on_c, 1, 42, 40
1, 8897040, Note_off_c, 1, 42, 0
1, 8897040, Note_on_c, 1, 35, 40
1, 8897280, Note_off_c, 1, 35, 0
1, 8897280, Note_on_c, 1, 35, 40
1, 8897520, Note_off_c, 1, 35, 0
1, 8897520, Note_on_c, 1, 32, 40
1, 8897760, Note_off_c, 1, 32, 0
1, 8897760, Note_on_c, 1, 32, 40
1, 8898000, Note_off_c, 1, 32, 0
1, 8898000, Note_on_c, 1, 33, 40
1, 8898240, Note_off_c, 1, 33, 0
1, 8898240, Note_on_c, 1, 33, 40
1, 8898360, Note_off_c, 1, 33, 0
1, 8898480, Note_on_c, 1, 34, 40
1, 8898720, Note_off_c, 1, 34, 0
1, 8898720, Note_on_c, 1, 34, 40
1, 8898840, Note_off_c, 1, 34, 0
1, 8898960, Note_on_c, 1, 35, 40
1, 8899200, Note_off_c, 1, 35, 0
1, 8899200, Note_on_c, 1, 35, 40
1, 8899440, Note_off_c, 1, 35, 0
1, 8899440, Note_on_c, 1, 39, 40
1, 8899680, Note_off_c, 1, 39, 0
1, 8899680, Note_on_c, 1, 39, 40
1, 8899920, Note_off_c, 1, 39, 0
1, 8899920, Note_on_c, 1, 42, 40
1, 8900160, Note_off_c, 1, 42, 0
1, 8900160, Note_on_c, 1, 42, 40
1, 8900400, Note_off_c, 1, 42, 0
1, 8900400, Note_on_c, 1, 39, 40
1, 8900760, Note_off_c, 1, 39, 0
1, 8900760, Note_on_c, 1, 42, 40
1, 8901000, Note_off_c, 1, 42, 0
1, 8901000, Note_on_c, 1, 28, 40
1, 8901240, Note_off_c, 1, 28, 0
1, 8901240, Note_on_c, 1, 28, 40
1, 8901480, Note_off_c, 1, 28, 0
1, 8901480, Note_on_c, 1, 32, 40
1, 8901720, Note_off_c, 1, 32, 0
1, 8901720, Note_on_c, 1, 32, 40
1, 8901960, Note_off_c, 1, 32, 0
1, 8901960, Note_on_c, 1, 35, 40
1, 8902200, Note_off_c, 1, 35, 0
1, 8902200, Note_on_c, 1, 35, 40
1, 8902440, Note_off_c, 1, 35, 0
1, 8902440, Note_on_c, 1, 32, 40
1, 8902680, Note_off_c, 1, 32, 0
1, 8902680, Note_on_c, 1, 35, 40
1, 8902920, Note_off_c, 1, 35, 0
1, 8902920, Note_on_c, 1, 35, 40
1, 8903160, Note_off_c, 1, 35, 0
1, 8903280, Note_on_c, 1, 39, 40
1, 8903520, Note_off_c, 1, 39, 0
1, 8903520, Note_on_c, 1, 39, 40
1, 8903760, Note_off_c, 1, 39, 0
1, 8903760, Note_on_c, 1, 42, 40
1, 8904000, Note_off_c, 1, 42, 0
1, 8904000, Note_on_c, 1, 42, 40
1, 8904240, Note_off_c, 1, 42, 0
1, 8904240, Note_on_c, 1, 39, 40
1, 8904600, Note_off_c, 1, 39, 0
1, 8904600, Note_on_c, 1, 42, 40
1, 8904840, Note_off_c, 1, 42, 0
1, 8904840, Note_on_c, 1, 35, 40
1, 8905080, Note_off_c, 1, 35, 0
1, 8905080, Note_on_c, 1, 35, 40
1, 8905320, Note_off_c, 1, 35, 0
1, 8905320, Note_on_c, 1, 39, 40
1, 8905560, Note_off_c, 1, 39, 0
1, 8905560, Note_on_c, 1, 39, 40
1, 8905800, Note_off_c, 1, 39, 0
1, 8905800, Note_on_c, 1, 42, 40
1, 8906040, Note_off_c, 1, 42, 0
1, 8906040, Note_on_c, 1, 42, 40
1, 8906280, Note_off_c, 1, 42, 0
1, 8906280, Note_on_c, 1, 39, 40
1, 8906520, Note_off_c, 1, 39, 0
1, 8906520, Note_on_c, 1, 42, 40
1, 8906760, Note_off_c, 1, 42, 0
1, 8906880, Note_on_c, 1, 28, 40
1, 8907120, Note_off_c, 1, 28, 0
1, 8907120, Note_on_c, 1, 32, 40
1, 8907360, Note_off_c, 1, 32, 0
1, 8907360, Note_on_c, 1, 32, 40
1, 8907600, Note_off_c, 1, 32, 0
1, 8907600, Note_on_c, 1, 35, 40
1, 8907840, Note_off_c, 1, 35, 0
1, 8907840, Note_on_c, 1, 35, 40
1, 8908080, Note_off_c, 1, 35, 0
1, 8908080, Note_on_c, 1, 32, 40
1, 8908200, Note_off_c, 1, 32, 0
1, 8908320, Note_on_c, 1, 35, 40
1, 8908560, Note_off_c, 1, 35, 0
1, 8908560, Note_on_c, 1, 28, 40
1, 8908800, Note_off_c, 1, 28, 0
1, 8908800, Note_on_c, 1, 28, 40
1, 8909040, Note_off_c, 1, 28, 0
1, 8909040, Note_on_c, 1, 32, 40
1, 8909280, Note_off_c, 1, 32, 0
1, 8909280, Note_on_c, 1, 32, 40
1, 8909520, Note_off_c, 1, 32, 0
1, 8909520, Note_on_c, 1, 35, 40
1, 8909760, Note_off_c, 1, 35, 0
1, 8909760, Note_on_c, 1, 35, 40
1, 8909880, Note_off_c, 1, 35, 0
1, 8910000, Note_on_c, 1, 32, 40
1, 8910240, Note_off_c, 1, 32, 0
1, 8910240, Note_on_c, 1, 32, 40
1, 8910360, Note_off_c, 1, 32, 0
1, 8910480, Note_on_c, 1, 35, 40
1, 8910720, Note_off_c, 1, 35, 0
1, 8910720, Note_on_c, 1, 35, 40
1, 8910840, Note_off_c, 1, 35, 0
1, 8910960, Note_on_c, 1, 39, 40
1, 8911080, Note_off_c, 1, 39, 0
1, 8911200, Note_on_c, 1, 39, 40
1, 8911440, Note_off_c, 1, 39, 0
1, 8911440, Note_on_c, 1, 42, 40
1, 8911680, Note_off_c, 1, 42, 0
1, 8911680, Note_on_c, 1, 42, 40
1, 8911920, Note_off_c, 1, 42, 0
1, 8911920, Note_on_c, 1, 39, 40
1, 8912160, Note_off_c, 1, 39, 0
1, 8912160, Note_on_c, 1, 42, 40
1, 8912280, Note_off_c, 1, 42, 0
1, 8912400, Note_on_c, 1, 35, 40
1, 8912640, Note_off_c, 1, 35, 0
1, 8912640, Note_on_c, 1, 35, 40
1, 8912880, Note_off_c, 1, 35, 0
1, 8912880, Note_on_c, 1, 39, 40
1, 8913120, Note_off_c, 1, 39, 0
1, 8913120, Note_on_c, 1, 39, 40
1, 8913360, Note_off_c, 1, 39, 0
1, 8913360, Note_on_c, 1, 42, 40
1, 8913600, Note_off_c, 1, 42, 0
1, 8913600, Note_on_c, 1, 42, 40
1, 8913840, Note_off_c, 1, 42, 0
1, 8913840, Note_on_c, 1, 39, 40
1, 8914080, Note_off_c, 1, 39, 0
1, 8914080, Note_on_c, 1, 42, 40
1, 8914320, Note_off_c, 1, 42, 0
1, 8914320, Note_on_c, 1, 28, 40
1, 8914440, Note_off_c, 1, 28, 0
1, 8914560, Note_on_c, 1, 28, 40
1, 8914800, Note_off_c, 1, 28, 0
1, 8914800, Note_on_c, 1, 32, 40
1, 8914920, Note_off_c, 1, 32, 0
1, 8915040, Note_on_c, 1, 32, 40
1, 8915280, Note_off_c, 1, 32, 0
1, 8915280, Note_on_c, 1, 35, 40
1, 8915520, Note_off_c, 1, 35, 0
1, 8915520, Note_on_c, 1, 35, 40
1, 8915760, Note_off_c, 1, 35, 0
1, 8915760, Note_on_c, 1, 32, 40
1, 8916120, Note_off_c, 1, 32, 0
1, 8916120, Note_on_c, 1, 35, 40
1, 8916360, Note_off_c, 1, 35, 0
1, 8916360, Note_on_c, 1, 30, 40
1, 8916600, Note_off_c, 1, 30, 0
1, 8916600, Note_on_c, 1, 30, 40
1, 8916840, Note_off_c, 1, 30, 0
1, 8916960, Note_on_c, 1, 34, 40
1, 8917200, Note_off_c, 1, 34, 0
1, 8917200, Note_on_c, 1, 37, 40
1, 8917440, Note_off_c, 1, 37, 0
1, 8917440, Note_on_c, 1, 37, 40
1, 8917680, Note_off_c, 1, 37, 0
1, 8917680, Note_on_c, 1, 34, 40
1, 8917920, Note_off_c, 1, 34, 0
1, 8917920, Note_on_c, 1, 37, 40
1, 8918160, Note_off_c, 1, 37, 0
1, 8918160, Note_on_c, 1, 35, 40
1, 8918400, Note_off_c, 1, 35, 0
1, 8918400, Note_on_c, 1, 35, 40
1, 8918520, Note_off_c, 1, 35, 0
1, 8918640, Note_on_c, 1, 39, 40
1, 8918760, Note_off_c, 1, 39, 0
1, 8918880, Note_on_c, 1, 39, 40
1, 8919120, Note_off_c, 1, 39, 0
1, 8919120, Note_on_c, 1, 42, 40
1, 8919360, Note_off_c, 1, 42, 0
1, 8919360, Note_on_c, 1, 42, 40
1, 8919600, Note_off_c, 1, 42, 0
1, 8919600, Note_on_c, 1, 39, 40
1, 8919840, Note_off_c, 1, 39, 0
1, 8919840, Note_on_c, 1, 42, 40
1, 8920080, Note_off_c, 1, 42, 0
1, 8920080, Note_on_c, 1, 35, 40
1, 8920320, Note_off_c, 1, 35, 0
1, 8920320, Note_on_c, 1, 35, 40
1, 8920560, Note_off_c, 1, 35, 0
1, 8920560, Note_on_c, 1, 32, 40
1, 8920800, Note_off_c, 1, 32, 0
1, 8920800, Note_on_c, 1, 32, 40
1, 8921040, Note_off_c, 1, 32, 0
1, 8921040, Note_on_c, 1, 33, 40
1, 8921280, Note_off_c, 1, 33, 0
1, 8921280, Note_on_c, 1, 33, 40
1, 8921400, Note_off_c, 1, 33, 0
1, 8921520, Note_on_c, 1, 34, 40
1, 8921760, Note_off_c, 1, 34, 0
1, 8921760, Note_on_c, 1, 34, 40
1, 8921880, Note_off_c, 1, 34, 0
1, 8922000, Note_on_c, 1, 35, 40
1, 8922240, Note_off_c, 1, 35, 0
1, 8922240, Note_on_c, 1, 35, 40
1, 8922360, Note_off_c, 1, 35, 0
1, 8922480, Note_on_c, 1, 39, 40
1, 8922720, Note_off_c, 1, 39, 0
1, 8922720, Note_on_c, 1, 39, 40
1, 8922960, Note_off_c, 1, 39, 0
1, 8922960, Note_on_c, 1, 42, 40
1, 8923200, Note_off_c, 1, 42, 0
1, 8923200, Note_on_c, 1, 42, 40
1, 8923440, Note_off_c, 1, 42, 0
1, 8923440, Note_on_c, 1, 39, 40
1, 8923680, Note_off_c, 1, 39, 0
1, 8923680, Note_on_c, 1, 39, 40
1, 8923920, Note_off_c, 1, 39, 0
1, 8923920, Note_on_c, 1, 35, 40
1, 8924160, Note_off_c, 1, 35, 0
1, 8924160, Note_on_c, 1, 35, 40
1, 8924280, Note_off_c, 1, 35, 0
1, 8924400, Note_on_c, 1, 39, 40
1, 8924640, Note_off_c, 1, 39, 0
1, 8924640, Note_on_c, 1, 39, 40
1, 8924880, Note_off_c, 1, 39, 0
1, 8924880, Note_on_c, 1, 42, 40
1, 8925120, Note_off_c, 1, 42, 0
1, 8925120, Note_on_c, 1, 42, 40
1, 8925360, Note_off_c, 1, 42, 0
1, 8925360, Note_on_c, 1, 39, 40
1, 8925600, Note_off_c, 1, 39, 0
1, 8925600, Note_on_c, 1, 39, 40
1, 8925840, Note_off_c, 1, 39, 0
1, 8925840, Note_on_c, 1, 35, 40
1, 8926080, Note_off_c, 1, 35, 0
1, 8926080, Note_on_c, 1, 35, 40
1, 8926200, Note_off_c, 1, 35, 0
1, 8926320, Note_on_c, 1, 39, 40
1, 8926560, Note_off_c, 1, 39, 0
1, 8926560, Note_on_c, 1, 39, 40
1, 8926800, Note_off_c, 1, 39, 0
1, 8926800, Note_on_c, 1, 42, 40
1, 8927040, Note_off_c, 1, 42, 0
1, 8927040, Note_on_c, 1, 42, 40
1, 8927280, Note_off_c, 1, 42, 0
1, 8927280, Note_on_c, 1, 39, 40
1, 8927520, Note_off_c, 1, 39, 0
1, 8927520, Note_on_c, 1, 39, 40
1, 8927760, Note_off_c, 1, 39, 0
1, 8927760, Note_on_c, 1, 35, 40
1, 8928000, Note_off_c, 1, 35, 0
1, 8928000, Note_on_c, 1, 35, 40
1, 8928120, Note_off_c, 1, 35, 0
1, 8928240, Note_on_c, 1, 39, 40
1, 8928480, Note_off_c, 1, 39, 0
1, 8928480, Note_on_c, 1, 39, 40
1, 8928720, Note_off_c, 1, 39, 0
1, 8928720, Note_on_c, 1, 42, 40
1, 8928960, Note_off_c, 1, 42, 0
1, 8928960, Note_on_c, 1, 42, 40
1, 8929200, Note_off_c, 1, 42, 0
1, 8929200, Note_on_c, 1, 39, 40
1, 8929440, Note_off_c, 1, 39, 0
1, 8929440, Note_on_c, 1, 39, 40
1, 8929680, Note_off_c, 1, 39, 0
1, 8929680, Note_on_c, 1, 28, 40
1, 8929920, Note_off_c, 1, 28, 0
1, 8929920, Note_on_c, 1, 28, 40
1, 8930160, Note_off_c, 1, 28, 0
1, 8930160, Note_on_c, 1, 32, 40
1, 8930400, Note_off_c, 1, 32, 0
1, 8930400, Note_on_c, 1, 32, 40
1, 8930640, Note_off_c, 1, 32, 0
1, 8930640, Note_on_c, 1, 35, 40
1, 8930880, Note_off_c, 1, 35, 0
1, 8930880, Note_on_c, 1, 35, 40
1, 8931120, Note_off_c, 1, 35, 0
1, 8931120, Note_on_c, 1, 32, 40
1, 8931360, Note_off_c, 1, 32, 0
1, 8931360, Note_on_c, 1, 32, 40
1, 8931600, Note_off_c, 1, 32, 0
1, 8931600, Note_on_c, 1, 28, 40
1, 8931840, Note_off_c, 1, 28, 0
1, 8931840, Note_on_c, 1, 28, 40
1, 8932080, Note_off_c, 1, 28, 0
1, 8932080, Note_on_c, 1, 32, 40
1, 8932320, Note_off_c, 1, 32, 0
1, 8932320, Note_on_c, 1, 32, 40
1, 8932560, Note_off_c, 1, 32, 0
1, 8932560, Note_on_c, 1, 35, 40
1, 8932800, Note_off_c, 1, 35, 0
1, 8932800, Note_on_c, 1, 35, 40
1, 8933040, Note_off_c, 1, 35, 0
1, 8933040, Note_on_c, 1, 32, 40
1, 8933280, Note_off_c, 1, 32, 0
1, 8933280, Note_on_c, 1, 32, 40
1, 8933400, Note_off_c, 1, 32, 0
1, 8933520, Note_on_c, 1, 35, 40
1, 8933760, Note_off_c, 1, 35, 0
1, 8933760, Note_on_c, 1, 35, 40
1, 8933880, Note_off_c, 1, 35, 0
1, 8934000, Note_on_c, 1, 39, 40
1, 8934240, Note_off_c, 1, 39, 0
1, 8934240, Note_on_c, 1, 39, 40
1, 8934480, Note_off_c, 1, 39, 0
1, 8934480, Note_on_c, 1, 42, 40
1, 8934720, Note_off_c, 1, 42, 0
1, 8934720, Note_on_c, 1, 42, 40
1, 8934960, Note_off_c, 1, 42, 0
1, 8934960, Note_on_c, 1, 39, 40
1, 8935200, Note_off_c, 1, 39, 0
1, 8935200, Note_on_c, 1, 39, 40
1, 8935440, Note_off_c, 1, 39, 0
1, 8935440, Note_on_c, 1, 35, 40
1, 8935680, Note_off_c, 1, 35, 0
1, 8935680, Note_on_c, 1, 35, 40
1, 8935800, Note_off_c, 1, 35, 0
1, 8935920, Note_on_c, 1, 39, 40
1, 8936160, Note_off_c, 1, 39, 0
1, 8936160, Note_on_c, 1, 39, 40
1, 8936400, Note_off_c, 1, 39, 0
1, 8936400, Note_on_c, 1, 42, 40
1, 8936640, Note_off_c, 1, 42, 0
1, 8936640, Note_on_c, 1, 42, 40
1, 8936880, Note_off_c, 1, 42, 0
1, 8936880, Note_on_c, 1, 39, 40
1, 8937120, Note_off_c, 1, 39, 0
1, 8937120, Note_on_c, 1, 39, 40
1, 8937360, Note_off_c, 1, 39, 0
1, 8937360, Note_on_c, 1, 30, 40
1, 8937480, Note_off_c, 1, 30, 0
1, 8937600, Note_on_c, 1, 30, 40
1, 8937840, Note_off_c, 1, 30, 0
1, 8937840, Note_on_c, 1, 34, 40
1, 8938080, Note_off_c, 1, 34, 0
1, 8938080, Note_on_c, 1, 34, 40
1, 8938320, Note_off_c, 1, 34, 0
1, 8938320, Note_on_c, 1, 37, 40
1, 8938560, Note_off_c, 1, 37, 0
1, 8938560, Note_on_c, 1, 37, 40
1, 8938680, Note_off_c, 1, 37, 0
1, 8938800, Note_on_c, 1, 34, 40
1, 8938920, Note_off_c, 1, 34, 0
1, 8939040, Note_on_c, 1, 34, 40
1, 8939280, Note_off_c, 1, 34, 0
1, 8939280, Note_on_c, 1, 30, 40
1, 8939520, Note_off_c, 1, 30, 0
1, 8939520, Note_on_c, 1, 30, 40
1, 8939640, Note_off_c, 1, 30, 0
1, 8939760, Note_on_c, 1, 30, 40
1, 8939880, Note_off_c, 1, 30, 0
1, 8940000, Note_on_c, 1, 30, 40
1, 8940240, Note_off_c, 1, 30, 0
1, 8940240, Note_on_c, 1, 35, 40
1, 8940480, Note_off_c, 1, 35, 0
1, 8940480, Note_on_c, 1, 35, 40
1, 8940720, Note_off_c, 1, 35, 0
1, 8940720, Note_on_c, 1, 39, 40
1, 8941200, Note_off_c, 1, 39, 0
1, 8941200, Note_on_c, 1, 40, 40
1, 8941440, Note_off_c, 1, 40, 0
1, 8941440, Note_on_c, 1, 39, 40
1, 8941680, Note_off_c, 1, 39, 0
1, 8941680, Note_on_c, 1, 40, 40
1, 8941920, Note_off_c, 1, 40, 0
1, 8941920, Note_on_c, 1, 41, 40
1, 8942160, Note_off_c, 1, 41, 0
1, 8942160, Note_on_c, 1, 42, 40
1, 8942280, Note_off_c, 1, 42, 0
1, 8942400, Note_on_c, 1, 30, 40
1, 8942640, Note_off_c, 1, 30, 0
1, 8942640, Note_on_c, 1, 34, 40
1, 8942880, Note_off_c, 1, 34, 0
1, 8942880, Note_on_c, 1, 35, 40
1, 8943120, Note_off_c, 1, 35, 0
1, 8955840, Note_on_c, 1, 36, 40
1, 8956080, Note_off_c, 1, 36, 0
1, 8956080, Note_on_c, 1, 29, 40
1, 8956320, Note_off_c, 1, 29, 0
1, 8956440, Note_on_c, 1, 29, 40
1, 8956560, Note_off_c, 1, 29, 0
1, 8956560, Note_on_c, 1, 29, 40
1, 8956800, Note_off_c, 1, 29, 0
1, 8957040, Note_on_c, 1, 29, 40
1, 8957280, Note_off_c, 1, 29, 0
1, 8957400, Note_on_c, 1, 29, 40
1, 8957520, Note_off_c, 1, 29, 0
1, 8957520, Note_on_c, 1, 29, 40
1, 8957880, Note_off_c, 1, 29, 0
1, 8958000, Note_on_c, 1, 29, 40
1, 8958240, Note_off_c, 1, 29, 0
1, 8958360, Note_on_c, 1, 29, 40
1, 8958480, Note_off_c, 1, 29, 0
1, 8958480, Note_on_c, 1, 29, 40
1, 8958840, Note_off_c, 1, 29, 0
1, 8958960, Note_on_c, 1, 29, 40
1, 8959080, Note_off_c, 1, 29, 0
1, 8959200, Note_on_c, 1, 29, 40
1, 8959320, Note_off_c, 1, 29, 0
1, 8959440, Note_on_c, 1, 29, 40
1, 8959560, Note_off_c, 1, 29, 0
1, 8959680, Note_on_c, 1, 29, 40
1, 8959800, Note_off_c, 1, 29, 0
1, 8959920, Note_on_c, 1, 29, 40
1, 8960160, Note_off_c, 1, 29, 0
1, 8960280, Note_on_c, 1, 29, 40
1, 8960400, Note_off_c, 1, 29, 0
1, 8960400, Note_on_c, 1, 29, 40
1, 8960760, Note_off_c, 1, 29, 0
1, 8960880, Note_on_c, 1, 29, 40
1, 8961120, Note_off_c, 1, 29, 0
1, 8961240, Note_on_c, 1, 29, 40
1, 8961360, Note_off_c, 1, 29, 0
1, 8961360, Note_on_c, 1, 29, 40
1, 8961720, Note_off_c, 1, 29, 0
1, 8961840, Note_on_c, 1, 29, 40
1, 8962200, Note_off_c, 1, 29, 0
1, 8962200, Note_on_c, 1, 29, 40
1, 8962320, Note_off_c, 1, 29, 0
1, 8962320, Note_on_c, 1, 29, 40
1, 8962680, Note_off_c, 1, 29, 0
1, 8962680, Note_on_c, 1, 29, 40
1, 8962800, Note_off_c, 1, 29, 0
1, 8962800, Note_on_c, 1, 29, 40
1, 8962920, Note_off_c, 1, 29, 0
1, 8963040, Note_on_c, 1, 29, 40
1, 8963160, Note_off_c, 1, 29, 0
1, 8963280, Note_on_c, 1, 29, 40
1, 8963400, Note_off_c, 1, 29, 0
1, 8963520, Note_on_c, 1, 29, 40
1, 8963640, Note_off_c, 1, 29, 0
1, 8963760, Note_on_c, 1, 29, 40
1, 8963880, Note_off_c, 1, 29, 0
1, 8964000, Note_on_c, 1, 29, 40
1, 8964240, Note_off_c, 1, 29, 0
1, 8964480, Note_on_c, 1, 29, 40
1, 8964720, Note_off_c, 1, 29, 0
1, 8964720, Note_on_c, 1, 32, 40
1, 8964840, Note_off_c, 1, 32, 0
1, 8964960, Note_on_c, 1, 32, 40
1, 8965200, Note_off_c, 1, 32, 0
1, 8965440, Note_on_c, 1, 32, 40
1, 8965560, Note_off_c, 1, 32, 0
1, 8965680, Note_on_c, 1, 34, 40
1, 8965800, Note_off_c, 1, 34, 0
1, 8965920, Note_on_c, 1, 34, 40
1, 8966160, Note_off_c, 1, 34, 0
1, 8966400, Note_on_c, 1, 34, 40
1, 8966640, Note_off_c, 1, 34, 0
1, 8966640, Note_on_c, 1, 29, 40
1, 8966760, Note_off_c, 1, 29, 0
1, 8966880, Note_on_c, 1, 29, 40
1, 8967120, Note_off_c, 1, 29, 0
1, 8967360, Note_on_c, 1, 29, 40
1, 8967600, Note_off_c, 1, 29, 0
1, 8967600, Note_on_c, 1, 34, 40
1, 8967720, Note_off_c, 1, 34, 0
1, 8967840, Note_on_c, 1, 34, 40
1, 8968200, Note_off_c, 1, 34, 0
1, 8968320, Note_on_c, 1, 34, 40
1, 8968440, Note_off_c, 1, 34, 0
1, 8968560, Note_on_c, 1, 34, 40
1, 8968920, Note_off_c, 1, 34, 0
1, 8969040, Note_on_c, 1, 34, 40
1, 8969280, Note_off_c, 1, 34, 0
1, 8969280, Note_on_c, 1, 29, 40
1, 8969640, Note_off_c, 1, 29, 0
1, 8969760, Note_on_c, 1, 29, 40
1, 8969880, Note_off_c, 1, 29, 0
1, 8970000, Note_on_c, 1, 29, 40
1, 8970240, Note_off_c, 1, 29, 0
1, 8970240, Note_on_c, 1, 29, 40
1, 8970360, Note_off_c, 1, 29, 0
1, 8970360, Note_on_c, 1, 29, 40
1, 8970480, Note_off_c, 1, 29, 0
1, 8970480, Note_on_c, 1, 36, 40
1, 8970720, Note_off_c, 1, 36, 0
1, 8970720, Note_on_c, 1, 29, 40
1, 8970840, Note_off_c, 1, 29, 0
1, 8970840, Note_on_c, 1, 36, 40
1, 8971080, Note_off_c, 1, 36, 0
1, 8971080, Note_on_c, 1, 29, 40
1, 8971200, Note_off_c, 1, 29, 0
1, 8971200, Note_on_c, 1, 29, 40
1, 8971320, Note_off_c, 1, 29, 0
1, 8971320, Note_on_c, 1, 36, 40
1, 8971440, Note_off_c, 1, 36, 0
1, 8971440, Note_on_c, 1, 29, 40
1, 8971560, Note_off_c, 1, 29, 0
1, 8971680, Note_on_c, 1, 29, 40
1, 8972040, Note_off_c, 1, 29, 0
1, 8972160, Note_on_c, 1, 29, 40
1, 8972280, Note_off_c, 1, 29, 0
1, 8972400, Note_on_c, 1, 32, 40
1, 8972520, Note_off_c, 1, 32, 0
1, 8972640, Note_on_c, 1, 32, 40
1, 8973000, Note_off_c, 1, 32, 0
1, 8973120, Note_on_c, 1, 32, 40
1, 8973360, Note_off_c, 1, 32, 0
1, 8973360, Note_on_c, 1, 34, 40
1, 8973480, Note_off_c, 1, 34, 0
1, 8973600, Note_on_c, 1, 34, 40
1, 8973840, Note_off_c, 1, 34, 0
1, 8974080, Note_on_c, 1, 34, 40
1, 8974320, Note_off_c, 1, 34, 0
1, 8974320, Note_on_c, 1, 29, 40
1, 8974440, Note_off_c, 1, 29, 0
1, 8974560, Note_on_c, 1, 29, 40
1, 8974800, Note_off_c, 1, 29, 0
1, 8975040, Note_on_c, 1, 29, 40
1, 8975160, Note_off_c, 1, 29, 0
1, 8975280, Note_on_c, 1, 31, 40
1, 8975400, Note_off_c, 1, 31, 0
1, 8975520, Note_on_c, 1, 31, 40
1, 8975760, Note_off_c, 1, 31, 0
1, 8976000, Note_on_c, 1, 31, 40
1, 8976120, Note_off_c, 1, 31, 0
1, 8976240, Note_on_c, 1, 31, 40
1, 8976600, Note_off_c, 1, 31, 0
1, 8976720, Note_on_c, 1, 31, 40
1, 8976840, Note_off_c, 1, 31, 0
1, 8976960, Note_on_c, 1, 36, 40
1, 8977320, Note_off_c, 1, 36, 0
1, 8977440, Note_on_c, 1, 36, 40
1, 8977560, Note_off_c, 1, 36, 0
1, 8977680, Note_on_c, 1, 36, 40
1, 8977920, Note_off_c, 1, 36, 0
1, 8978040, Note_on_c, 1, 36, 40
1, 8978160, Note_off_c, 1, 36, 0
1, 8978160, Note_on_c, 1, 36, 40
1, 8978400, Note_off_c, 1, 36, 0
1, 8978520, Note_on_c, 1, 36, 40
1, 8978640, Note_off_c, 1, 36, 0
1, 8978640, Note_on_c, 1, 36, 40
1, 8978880, Note_off_c, 1, 36, 0
1, 8979000, Note_on_c, 1, 36, 40
1, 8979120, Note_off_c, 1, 36, 0
1, 8979120, Note_on_c, 1, 34, 40
1, 8979480, Note_off_c, 1, 34, 0
1, 8979600, Note_on_c, 1, 34, 40
1, 8979720, Note_off_c, 1, 34, 0
1, 8979840, Note_on_c, 1, 34, 40
1, 8979960, Note_off_c, 1, 34, 0
1, 8980080, Note_on_c, 1, 34, 40
1, 8980440, Note_off_c, 1, 34, 0
1, 8980560, Note_on_c, 1, 34, 40
1, 8980800, Note_off_c, 1, 34, 0
1, 8980800, Note_on_c, 1, 29, 40
1, 8980920, Note_off_c, 1, 29, 0
1, 8981040, Note_on_c, 1, 29, 40
1, 8981400, Note_off_c, 1, 29, 0
1, 8981520, Note_on_c, 1, 29, 40
1, 8981640, Note_off_c, 1, 29, 0
1, 8981760, Note_on_c, 1, 29, 40
1, 8981880, Note_off_c, 1, 29, 0
1, 8982000, Note_on_c, 1, 29, 40
1, 8982240, Note_off_c, 1, 29, 0
1, 8982480, Note_on_c, 1, 29, 40
1, 8982600, Note_off_c, 1, 29, 0
1, 8982720, Note_on_c, 1, 29, 40
1, 8982840, Note_off_c, 1, 29, 0
1, 8982960, Note_on_c, 1, 31, 40
1, 8983320, Note_off_c, 1, 31, 0
1, 8983680, Note_on_c, 1, 31, 40
1, 8983800, Note_off_c, 1, 31, 0
1, 8983920, Note_on_c, 1, 31, 40
1, 8984280, Note_off_c, 1, 31, 0
1, 8984400, Note_on_c, 1, 31, 40
1, 8984520, Note_off_c, 1, 31, 0
1, 8984640, Note_on_c, 1, 31, 40
1, 8984880, Note_off_c, 1, 31, 0
1, 8984880, Note_on_c, 1, 38, 40
1, 8985480, Note_off_c, 1, 38, 0
1, 8985600, Note_on_c, 1, 38, 40
1, 8985720, Note_off_c, 1, 38, 0
1, 8985840, Note_on_c, 1, 38, 40
1, 8986200, Note_off_c, 1, 38, 0
1, 8986320, Note_on_c, 1, 38, 40
1, 8986440, Note_off_c, 1, 38, 0
1, 8986560, Note_on_c, 1, 38, 40
1, 8986800, Note_off_c, 1, 38, 0
1, 8986800, Note_on_c, 1, 31, 40
1, 8987160, Note_off_c, 1, 31, 0
1, 8987280, Note_on_c, 1, 31, 40
1, 8987400, Note_off_c, 1, 31, 0
1, 8987520, Note_on_c, 1, 31, 40
1, 8987640, Note_off_c, 1, 31, 0
1, 8987760, Note_on_c, 1, 34, 40
1, 8988120, Note_off_c, 1, 34, 0
1, 8988240, Note_on_c, 1, 34, 40
1, 8988360, Note_off_c, 1, 34, 0
1, 8988480, Note_on_c, 1, 34, 40
1, 8988600, Note_off_c, 1, 34, 0
1, 8988720, Note_on_c, 1, 36, 40
1, 8989080, Note_off_c, 1, 36, 0
1, 8989200, Note_on_c, 1, 36, 40
1, 8989320, Note_off_c, 1, 36, 0
1, 8989440, Note_on_c, 1, 36, 40
1, 8989680, Note_off_c, 1, 36, 0
1, 8989680, Note_on_c, 1, 31, 40
1, 8990040, Note_off_c, 1, 31, 0
1, 8990160, Note_on_c, 1, 31, 40
1, 8990280, Note_off_c, 1, 31, 0
1, 8990400, Note_on_c, 1, 31, 40
1, 8990520, Note_off_c, 1, 31, 0
1, 8990640, Note_on_c, 1, 36, 40
1, 8991000, Note_off_c, 1, 36, 0
1, 8991120, Note_on_c, 1, 36, 40
1, 8991240, Note_off_c, 1, 36, 0
1, 8991360, Note_on_c, 1, 36, 40
1, 8991480, Note_off_c, 1, 36, 0
1, 8991600, Note_on_c, 1, 36, 40
1, 8991960, Note_off_c, 1, 36, 0
1, 8992080, Note_on_c, 1, 36, 40
1, 8992320, Note_off_c, 1, 36, 0
1, 8992320, Note_on_c, 1, 31, 40
1, 8992680, Note_off_c, 1, 31, 0
1, 8992800, Note_on_c, 1, 31, 40
1, 8992920, Note_off_c, 1, 31, 0
1, 8993040, Note_on_c, 1, 31, 40
1, 8993280, Note_off_c, 1, 31, 0
1, 8993400, Note_on_c, 1, 31, 40
1, 8993520, Note_off_c, 1, 31, 0
1, 8993520, Note_on_c, 1, 38, 40
1, 8993760, Note_off_c, 1, 38, 0
1, 8993760, Note_on_c, 1, 31, 40
1, 8993880, Note_off_c, 1, 31, 0
1, 8993880, Note_on_c, 1, 38, 40
1, 8994120, Note_off_c, 1, 38, 0
1, 8994120, Note_on_c, 1, 31, 40
1, 8994240, Note_off_c, 1, 31, 0
1, 8994240, Note_on_c, 1, 38, 40
1, 8994360, Note_off_c, 1, 38, 0
1, 8994360, Note_on_c, 1, 38, 40
1, 8994480, Note_off_c, 1, 38, 0
1, 8994480, Note_on_c, 1, 31, 40
1, 8994600, Note_off_c, 1, 31, 0
1, 8994720, Note_on_c, 1, 31, 40
1, 8994840, Note_off_c, 1, 31, 0
1, 8995200, Note_on_c, 1, 31, 40
1, 8995320, Note_off_c, 1, 31, 0
1, 8995440, Note_on_c, 1, 34, 40
1, 8995560, Note_off_c, 1, 34, 0
1, 8995680, Note_on_c, 1, 34, 40
1, 8995920, Note_off_c, 1, 34, 0
1, 8996160, Note_on_c, 1, 34, 40
1, 8996280, Note_off_c, 1, 34, 0
1, 8996400, Note_on_c, 1, 36, 40
1, 8996520, Note_off_c, 1, 36, 0
1, 8996640, Note_on_c, 1, 36, 40
1, 8997000, Note_off_c, 1, 36, 0
1, 8997120, Note_on_c, 1, 36, 40
1, 8997360, Note_off_c, 1, 36, 0
1, 8997360, Note_on_c, 1, 31, 40
1, 8997480, Note_off_c, 1, 31, 0
1, 8997600, Note_on_c, 1, 31, 40
1, 8997840, Note_off_c, 1, 31, 0
1, 8998080, Note_on_c, 1, 31, 40
1, 8998200, Note_off_c, 1, 31, 0
1, 8998320, Note_on_c, 1, 33, 40
1, 8998440, Note_off_c, 1, 33, 0
1, 8998560, Note_on_c, 1, 33, 40
1, 8998800, Note_off_c, 1, 33, 0
1, 8999040, Note_on_c, 1, 33, 40
1, 8999160, Note_off_c, 1, 33, 0
1, 8999280, Note_on_c, 1, 33, 40
1, 8999400, Note_off_c, 1, 33, 0
1, 8999520, Note_on_c, 1, 33, 40
1, 8999760, Note_off_c, 1, 33, 0
1, 9000000, Note_on_c, 1, 33, 40
1, 9000120, Note_off_c, 1, 33, 0
1, 9000240, Note_on_c, 1, 38, 40
1, 9000840, Note_off_c, 1, 38, 0
1, 9000960, Note_on_c, 1, 38, 40
1, 9001320, Note_off_c, 1, 38, 0
1, 9001440, Note_on_c, 1, 38, 40
1, 9001800, Note_off_c, 1, 38, 0
1, 9001920, Note_on_c, 1, 38, 40
1, 9002160, Note_off_c, 1, 38, 0
1, 9002160, Note_on_c, 1, 36, 40
1, 9002640, Note_off_c, 1, 36, 0
1, 9002880, Note_on_c, 1, 36, 40
1, 9003000, Note_off_c, 1, 36, 0
1, 9003120, Note_on_c, 1, 36, 40
1, 9003240, Note_off_c, 1, 36, 0
1, 9003360, Note_on_c, 1, 36, 40
1, 9003600, Note_off_c, 1, 36, 0
1, 9003840, Note_on_c, 1, 36, 40
1, 9004080, Note_off_c, 1, 36, 0
1, 9004080, Note_on_c, 1, 31, 40
1, 9004560, Note_off_c, 1, 31, 0
1, 9004800, Note_on_c, 1, 31, 40
1, 9004920, Note_off_c, 1, 31, 0
1, 9005040, Note_on_c, 1, 31, 40
1, 9005160, Note_off_c, 1, 31, 0
1, 9005280, Note_on_c, 1, 31, 40
1, 9005520, Note_off_c, 1, 31, 0
1, 9005760, Note_on_c, 1, 31, 40
1, 9005880, Note_off_c, 1, 31, 0
1, 9006000, Note_on_c, 1, 33, 40
1, 9006120, Note_off_c, 1, 33, 0
1, 9006240, Note_on_c, 1, 33, 40
1, 9006600, Note_off_c, 1, 33, 0
1, 9006720, Note_on_c, 1, 33, 40
1, 9006840, Note_off_c, 1, 33, 0
1, 9006960, Note_on_c, 1, 33, 40
1, 9007440, Note_off_c, 1, 33, 0
1, 9007680, Note_on_c, 1, 33, 40
1, 9007800, Note_off_c, 1, 33, 0
1, 9007920, Note_on_c, 1, 36, 40
1, 9008520, Note_off_c, 1, 36, 0
1, 9008640, Note_on_c, 1, 36, 40
1, 9009480, Note_off_c, 1, 36, 0
1, 9009600, Note_on_c, 1, 36, 40
1, 9009720, Note_off_c, 1, 36, 0
1, 9009840, Note_on_c, 1, 36, 40
1, 9010440, Note_off_c, 1, 36, 0
1, 9010560, Note_on_c, 1, 36, 40
1, 9010920, Note_off_c, 1, 36, 0
1, 9011040, Note_on_c, 1, 36, 40
1, 9011160, Note_off_c, 1, 36, 0
1, 9011520, Note_on_c, 1, 36, 40
1, 9011760, Note_off_c, 1, 36, 0
1, 9011760, Note_on_c, 1, 31, 40
1, 9012240, Note_off_c, 1, 31, 0
1, 9012480, Note_on_c, 1, 31, 40
1, 9012840, Note_off_c, 1, 31, 0
1, 9012960, Note_on_c, 1, 31, 40
1, 9013200, Note_off_c, 1, 31, 0
1, 9013320, Note_on_c, 1, 31, 40
1, 9013440, Note_off_c, 1, 31, 0
1, 9013560, Note_on_c, 1, 31, 40
1, 9013680, Note_off_c, 1, 31, 0
1, 9013680, Note_on_c, 1, 34, 40
1, 9014160, Note_off_c, 1, 34, 0
1, 9014400, Note_on_c, 1, 34, 40
1, 9014760, Note_off_c, 1, 34, 0
1, 9014880, Note_on_c, 1, 34, 40
1, 9015120, Note_off_c, 1, 34, 0
1, 9015240, Note_on_c, 1, 34, 40
1, 9015360, Note_off_c, 1, 34, 0
1, 9015480, Note_on_c, 1, 34, 40
1, 9015600, Note_off_c, 1, 34, 0
1, 9015600, Note_on_c, 1, 36, 40
1, 9016080, Note_off_c, 1, 36, 0
1, 9016320, Note_on_c, 1, 36, 40
1, 9016680, Note_off_c, 1, 36, 0
1, 9016800, Note_on_c, 1, 36, 40
1, 9017040, Note_off_c, 1, 36, 0
1, 9017160, Note_on_c, 1, 36, 40
1, 9017280, Note_off_c, 1, 36, 0
1, 9017400, Note_on_c, 1, 36, 40
1, 9017520, Note_off_c, 1, 36, 0
1, 9017520, Note_on_c, 1, 31, 40
1, 9019440, Note_off_c, 1, 31, 0
1, 9019440, Note_on_c, 1, 31, 40
1, 9020400, Note_off_c, 1, 31, 0
1, 9024720, Note_on_c, 1, 37, 40
1, 9025440, Note_off_c, 1, 37, 0
1, 9025440, Note_on_c, 1, 37, 40
1, 9025680, Note_off_c, 1, 37, 0
1, 9025680, Note_on_c, 1, 32, 40
1, 9026400, Note_off_c, 1, 32, 0
1, 9026400, Note_on_c, 1, 35, 40
1, 9026640, Note_off_c, 1, 35, 0
1, 9026640, Note_on_c, 1, 37, 40
1, 9027360, Note_off_c, 1, 37, 0
1, 9027360, Note_on_c, 1, 37, 40
1, 9027600, Note_off_c, 1, 37, 0
1, 9027600, Note_on_c, 1, 32, 40
1, 9028080, Note_off_c, 1, 32, 0
1, 9028080, Note_on_c, 1, 37, 40
1, 9028320, Note_off_c, 1, 37, 0
1, 9028560, Note_on_c, 1, 30, 40
1, 9029280, Note_off_c, 1, 30, 0
1, 9029280, Note_on_c, 1, 30, 40
1, 9029520, Note_off_c, 1, 30, 0
1, 9029520, Note_on_c, 1, 37, 40
1, 9030240, Note_off_c, 1, 37, 0
1, 9030240, Note_on_c, 1, 37, 40
1, 9030480, Note_off_c, 1, 37, 0
1, 9030480, Note_on_c, 1, 30, 40
1, 9031200, Note_off_c, 1, 30, 0
1, 9031200, Note_on_c, 1, 30, 40
1, 9031440, Note_off_c, 1, 30, 0
1, 9031440, Note_on_c, 1, 37, 40
1, 9031920, Note_off_c, 1, 37, 0
1, 9031920, Note_on_c, 1, 30, 40
1, 9032160, Note_off_c, 1, 30, 0
1, 9032400, Note_on_c, 1, 33, 40
1, 9033120, Note_off_c, 1, 33, 0
1, 9033120, Note_on_c, 1, 33, 40
1, 9033360, Note_off_c, 1, 33, 0
1, 9033360, Note_on_c, 1, 40, 40
1, 9034080, Note_off_c, 1, 40, 0
1, 9034080, Note_on_c, 1, 40, 40
1, 9034320, Note_off_c, 1, 40, 0
1, 9034320, Note_on_c, 1, 33, 40
1, 9035040, Note_off_c, 1, 33, 0
1, 9035040, Note_on_c, 1, 33, 40
1, 9035280, Note_off_c, 1, 33, 0
1, 9035280, Note_on_c, 1, 40, 40
1, 9035760, Note_off_c, 1, 40, 0
1, 9035760, Note_on_c, 1, 33, 40
1, 9036000, Note_off_c, 1, 33, 0
1, 9036240, Note_on_c, 1, 40, 40
1, 9037080, Note_off_c, 1, 40, 0
1, 9037200, Note_on_c, 1, 35, 40
1, 9037920, Note_off_c, 1, 35, 0
1, 9037920, Note_on_c, 1, 38, 40
1, 9038160, Note_off_c, 1, 38, 0
1, 9038160, Note_on_c, 1, 40, 40
1, 9039000, Note_off_c, 1, 40, 0
1, 9039120, Note_on_c, 1, 35, 40
1, 9039360, Note_off_c, 1, 35, 0
1, 9039360, Note_on_c, 1, 35, 40
1, 9039600, Note_off_c, 1, 35, 0
1, 9039600, Note_on_c, 1, 37, 40
1, 9039840, Note_off_c, 1, 37, 0
1, 9039840, Note_on_c, 1, 39, 40
1, 9040080, Note_off_c, 1, 39, 0
1, 9040080, Note_on_c, 1, 40, 40
1, 9040800, Note_off_c, 1, 40, 0
1, 9040800, Note_on_c, 1, 40, 40
1, 9041040, Note_off_c, 1, 40, 0
1, 9041040, Note_on_c, 1, 35, 40
1, 9041280, Note_off_c, 1, 35, 0
1, 9041520, Note_on_c, 1, 40, 40
1, 9041760, Note_off_c, 1, 40, 0
1, 9042000, Note_on_c, 1, 37, 40
1, 9042720, Note_off_c, 1, 37, 0
1, 9042720, Note_on_c, 1, 37, 40
1, 9042960, Note_off_c, 1, 37, 0
1, 9042960, Note_on_c, 1, 37, 40
1, 9043440, Note_off_c, 1, 37, 0
1, 9043920, Note_on_c, 1, 32, 40
1, 9044640, Note_off_c, 1, 32, 0
1, 9044640, Note_on_c, 1, 32, 40
1, 9044880, Note_off_c, 1, 32, 0
1, 9044880, Note_on_c, 1, 32, 40
1, 9045360, Note_off_c, 1, 32, 0
1, 9045840, Note_on_c, 1, 35, 40
1, 9046560, Note_off_c, 1, 35, 0
1, 9046560, Note_on_c, 1, 35, 40
1, 9046800, Note_off_c, 1, 35, 0
1, 9046800, Note_on_c, 1, 35, 40
1, 9047280, Note_off_c, 1, 35, 0
1, 9047760, Note_on_c, 1, 40, 40
1, 9048480, Note_off_c, 1, 40, 0
1, 9048480, Note_on_c, 1, 40, 40
1, 9048720, Note_off_c, 1, 40, 0
1, 9048720, Note_on_c, 1, 40, 40
1, 9049200, Note_off_c, 1, 40, 0
1, 9049680, Note_on_c, 1, 37, 40
1, 9050400, Note_off_c, 1, 37, 0
1, 9050400, Note_on_c, 1, 37, 40
1, 9050640, Note_off_c, 1, 37, 0
1, 9050640, Note_on_c, 1, 37, 40
1, 9051120, Note_off_c, 1, 37, 0
1, 9051600, Note_on_c, 1, 32, 40
1, 9052320, Note_off_c, 1, 32, 0
1, 9052320, Note_on_c, 1, 32, 40
1, 9052560, Note_off_c, 1, 32, 0
1, 9052560, Note_on_c, 1, 32, 40
1, 9053040, Note_off_c, 1, 32, 0
1, 9053520, Note_on_c, 1, 35, 40
1, 9054240, Note_off_c, 1, 35, 0
1, 9054240, Note_on_c, 1, 35, 40
1, 9054480, Note_off_c, 1, 35, 0
1, 9054480, Note_on_c, 1, 35, 40
1, 9054960, Note_off_c, 1, 35, 0
1, 9055440, Note_on_c, 1, 40, 40
1, 9056160, Note_off_c, 1, 40, 0
1, 9056160, Note_on_c, 1, 32, 40
1, 9056880, Note_off_c, 1, 32, 0
1, 9056880, Note_on_c, 1, 35, 40
1, 9057360, Note_off_c, 1, 35, 0
1, 9057360, Note_on_c, 1, 40, 40
1, 9058080, Note_off_c, 1, 40, 0
1, 9058080, Note_on_c, 1, 40, 40
1, 9058320, Note_off_c, 1, 40, 0
1, 9058320, Note_on_c, 1, 35, 40
1, 9058800, Note_off_c, 1, 35, 0
1, 9058800, Note_on_c, 1, 40, 40
1, 9059040, Note_off_c, 1, 40, 0
1, 9059280, Note_on_c, 1, 37, 40
1, 9060000, Note_off_c, 1, 37, 0
1, 9060000, Note_on_c, 1, 37, 40
1, 9060240, Note_off_c, 1, 37, 0
1, 9060240, Note_on_c, 1, 32, 40
1, 9060960, Note_off_c, 1, 32, 0
1, 9060960, Note_on_c, 1, 32, 40
1, 9061200, Note_off_c, 1, 32, 0
1, 9061200, Note_on_c, 1, 37, 40
1, 9061920, Note_off_c, 1, 37, 0
1, 9061920, Note_on_c, 1, 37, 40
1, 9062160, Note_off_c, 1, 37, 0
1, 9062160, Note_on_c, 1, 32, 40
1, 9062640, Note_off_c, 1, 32, 0
1, 9062640, Note_on_c, 1, 37, 40
1, 9062880, Note_off_c, 1, 37, 0
1, 9063120, Note_on_c, 1, 33, 40
1, 9063840, Note_off_c, 1, 33, 0
1, 9063840, Note_on_c, 1, 33, 40
1, 9064080, Note_off_c, 1, 33, 0
1, 9064080, Note_on_c, 1, 40, 40
1, 9064800, Note_off_c, 1, 40, 0
1, 9064800, Note_on_c, 1, 32, 40
1, 9065040, Note_off_c, 1, 32, 0
1, 9065040, Note_on_c, 1, 33, 40
1, 9065760, Note_off_c, 1, 33, 0
1, 9065760, Note_on_c, 1, 33, 40
1, 9066000, Note_off_c, 1, 33, 0
1, 9066000, Note_on_c, 1, 40, 40
1, 9066480, Note_off_c, 1, 40, 0
1, 9066480, Note_on_c, 1, 33, 40
1, 9066720, Note_off_c, 1, 33, 0
1, 9066960, Note_on_c, 1, 35, 40
1, 9067680, Note_off_c, 1, 35, 0
1, 9067680, Note_on_c, 1, 39, 40
1, 9067920, Note_off_c, 1, 39, 0
1, 9067920, Note_on_c, 1, 42, 40
1, 9068640, Note_off_c, 1, 42, 0
1, 9068640, Note_on_c, 1, 34, 40
1, 9068880, Note_off_c, 1, 34, 0
1, 9068880, Note_on_c, 1, 35, 40
1, 9069600, Note_off_c, 1, 35, 0
1, 9069600, Note_on_c, 1, 35, 40
1, 9069840, Note_off_c, 1, 35, 0
1, 9069840, Note_on_c, 1, 42, 40
1, 9070080, Note_off_c, 1, 42, 0
1, 9070080, Note_on_c, 1, 35, 40
1, 9070320, Note_off_c, 1, 35, 0
1, 9070320, Note_on_c, 1, 37, 40
1, 9070560, Note_off_c, 1, 37, 0
1, 9070560, Note_on_c, 1, 39, 40
1, 9070800, Note_off_c, 1, 39, 0
1, 9070800, Note_on_c, 1, 40, 40
1, 9071520, Note_off_c, 1, 40, 0
1, 9071520, Note_on_c, 1, 40, 40
1, 9071760, Note_off_c, 1, 40, 0
1, 9071760, Note_on_c, 1, 35, 40
1, 9072000, Note_off_c, 1, 35, 0
1, 9072240, Note_on_c, 1, 40, 40
1, 9072480, Note_off_c, 1, 40, 0
1, 9072720, Note_on_c, 1, 37, 40
1, 9073440, Note_off_c, 1, 37, 0
1, 9073440, Note_on_c, 1, 37, 40
1, 9073680, Note_off_c, 1, 37, 0
1, 9073680, Note_on_c, 1, 37, 40
1, 9074160, Note_off_c, 1, 37, 0
1, 9074640, Note_on_c, 1, 32, 40
1, 9075360, Note_off_c, 1, 32, 0
1, 9075360, Note_on_c, 1, 32, 40
1, 9075600, Note_off_c, 1, 32, 0
1, 9075600, Note_on_c, 1, 32, 40
1, 9076080, Note_off_c, 1, 32, 0
1, 9076560, Note_on_c, 1, 35, 40
1, 9077280, Note_off_c, 1, 35, 0
1, 9077280, Note_on_c, 1, 35, 40
1, 9077520, Note_off_c, 1, 35, 0
1, 9077520, Note_on_c, 1, 35, 40
1, 9078000, Note_off_c, 1, 35, 0
1, 9078480, Note_on_c, 1, 40, 40
1, 9079200, Note_off_c, 1, 40, 0
1, 9079200, Note_on_c, 1, 40, 40
1, 9079440, Note_off_c, 1, 40, 0
1, 9079440, Note_on_c, 1, 40, 40
1, 9079920, Note_off_c, 1, 40, 0
1, 9080400, Note_on_c, 1, 37, 40
1, 9081120, Note_off_c, 1, 37, 0
1, 9081120, Note_on_c, 1, 37, 40
1, 9081360, Note_off_c, 1, 37, 0
1, 9081360, Note_on_c, 1, 37, 40
1, 9081840, Note_off_c, 1, 37, 0
1, 9082320, Note_on_c, 1, 32, 40
1, 9083040, Note_off_c, 1, 32, 0
1, 9083040, Note_on_c, 1, 32, 40
1, 9083280, Note_off_c, 1, 32, 0
1, 9083280, Note_on_c, 1, 32, 40
1, 9083760, Note_off_c, 1, 32, 0
1, 9084240, Note_on_c, 1, 35, 40
1, 9084960, Note_off_c, 1, 35, 0
1, 9084960, Note_on_c, 1, 35, 40
1, 9085200, Note_off_c, 1, 35, 0
1, 9085200, Note_on_c, 1, 35, 40
1, 9085680, Note_off_c, 1, 35, 0
1, 9086160, Note_on_c, 1, 40, 40
1, 9086880, Note_off_c, 1, 40, 0
1, 9086880, Note_on_c, 1, 32, 40
1, 9087600, Note_off_c, 1, 32, 0
1, 9087600, Note_on_c, 1, 35, 40
1, 9088080, Note_off_c, 1, 35, 0
1, 9088080, Note_on_c, 1, 40, 40
1, 9088800, Note_off_c, 1, 40, 0
1, 9088800, Note_on_c, 1, 40, 40
1, 9089040, Note_off_c, 1, 40, 0
1, 9089040, Note_on_c, 1, 35, 40
1, 9089520, Note_off_c, 1, 35, 0
1, 9089520, Note_on_c, 1, 40, 40
1, 9089760, Note_off_c, 1, 40, 0
1, 9090000, Note_on_c, 1, 37, 40
1, 9090720, Note_off_c, 1, 37, 0
1, 9090720, Note_on_c, 1, 37, 40
1, 9090960, Note_off_c, 1, 37, 0
1, 9090960, Note_on_c, 1, 32, 40
1, 9091680, Note_off_c, 1, 32, 0
1, 9091680, Note_on_c, 1, 32, 40
1, 9091920, Note_off_c, 1, 32, 0
1, 9091920, Note_on_c, 1, 37, 40
1, 9092640, Note_off_c, 1, 37, 0
1, 9092640, Note_on_c, 1, 37, 40
1, 9092880, Note_off_c, 1, 37, 0
1, 9092880, Note_on_c, 1, 32, 40
1, 9093360, Note_off_c, 1, 32, 0
1, 9093360, Note_on_c, 1, 37, 40
1, 9093600, Note_off_c, 1, 37, 0
1, 9093840, Note_on_c, 1, 33, 40
1, 9094560, Note_off_c, 1, 33, 0
1, 9094560, Note_on_c, 1, 33, 40
1, 9094800, Note_off_c, 1, 33, 0
1, 9094800, Note_on_c, 1, 40, 40
1, 9095520, Note_off_c, 1, 40, 0
1, 9095520, Note_on_c, 1, 32, 40
1, 9095760, Note_off_c, 1, 32, 0
1, 9095760, Note_on_c, 1, 33, 40
1, 9096480, Note_off_c, 1, 33, 0
1, 9096480, Note_on_c, 1, 33, 40
1, 9096720, Note_off_c, 1, 33, 0
1, 9096720, Note_on_c, 1, 40, 40
1, 9097200, Note_off_c, 1, 40, 0
1, 9097200, Note_on_c, 1, 33, 40
1, 9097440, Note_off_c, 1, 33, 0
1, 9097680, Note_on_c, 1, 35, 40
1, 9098400, Note_off_c, 1, 35, 0
1, 9098400, Note_on_c, 1, 39, 40
1, 9098640, Note_off_c, 1, 39, 0
1, 9098640, Note_on_c, 1, 42, 40
1, 9099360, Note_off_c, 1, 42, 0
1, 9099360, Note_on_c, 1, 34, 40
1, 9099600, Note_off_c, 1, 34, 0
1, 9099600, Note_on_c, 1, 35, 40
1, 9100320, Note_off_c, 1, 35, 0
1, 9100320, Note_on_c, 1, 35, 40
1, 9100560, Note_off_c, 1, 35, 0
1, 9100560, Note_on_c, 1, 42, 40
1, 9101040, Note_off_c, 1, 42, 0
1, 9101040, Note_on_c, 1, 35, 40
1, 9101280, Note_off_c, 1, 35, 0
1, 9101520, Note_on_c, 1, 37, 40
1, 9102240, Note_off_c, 1, 37, 0
1, 9102240, Note_on_c, 1, 37, 40
1, 9102480, Note_off_c, 1, 37, 0
1, 9102480, Note_on_c, 1, 32, 40
1, 9103200, Note_off_c, 1, 32, 0
1, 9103200, Note_on_c, 1, 35, 40
1, 9103440, Note_off_c, 1, 35, 0
1, 9103440, Note_on_c, 1, 37, 40
1, 9104160, Note_off_c, 1, 37, 0
1, 9104160, Note_on_c, 1, 37, 40
1, 9104400, Note_off_c, 1, 37, 0
1, 9104400, Note_on_c, 1, 32, 40
1, 9104880, Note_off_c, 1, 32, 0
1, 9104880, Note_on_c, 1, 37, 40
1, 9105120, Note_off_c, 1, 37, 0
1, 9105360, Note_on_c, 1, 42, 40
1, 9106080, Note_off_c, 1, 42, 0
1, 9106080, Note_on_c, 1, 42, 40
1, 9106320, Note_off_c, 1, 42, 0
1, 9106320, Note_on_c, 1, 37, 40
1, 9107040, Note_off_c, 1, 37, 0
1, 9107040, Note_on_c, 1, 40, 40
1, 9107280, Note_off_c, 1, 40, 0
1, 9107280, Note_on_c, 1, 42, 40
1, 9108000, Note_off_c, 1, 42, 0
1, 9108000, Note_on_c, 1, 42, 40
1, 9108240, Note_off_c, 1, 42, 0
1, 9108240, Note_on_c, 1, 37, 40
1, 9108720, Note_off_c, 1, 37, 0
1, 9108720, Note_on_c, 1, 42, 40
1, 9108960, Note_off_c, 1, 42, 0
1, 9109200, Note_on_c, 1, 33, 40
1, 9109680, Note_off_c, 1, 33, 0
1, 9109680, Note_on_c, 1, 33, 40
1, 9110160, Note_off_c, 1, 33, 0
1, 9110160, Note_on_c, 1, 33, 40
1, 9110400, Note_off_c, 1, 33, 0
1, 9111120, Note_on_c, 1, 35, 40
1, 9111840, Note_off_c, 1, 35, 0
1, 9111840, Note_on_c, 1, 35, 40
1, 9112080, Note_off_c, 1, 35, 0
1, 9112080, Note_on_c, 1, 42, 40
1, 9112560, Note_off_c, 1, 42, 0
1, 9112560, Note_on_c, 1, 35, 40
1, 9112800, Note_off_c, 1, 35, 0
1, 9113040, Note_on_c, 1, 40, 40
1, 9113760, Note_off_c, 1, 40, 0
1, 9113760, Note_on_c, 1, 40, 40
1, 9114000, Note_off_c, 1, 40, 0
1, 9114000, Note_on_c, 1, 35, 40
1, 9114720, Note_off_c, 1, 35, 0
1, 9114720, Note_on_c, 1, 35, 40
1, 9114960, Note_off_c, 1, 35, 0
1, 9114960, Note_on_c, 1, 40, 40
1, 9115680, Note_off_c, 1, 40, 0
1, 9115680, Note_on_c, 1, 40, 40
1, 9115920, Note_off_c, 1, 40, 0
1, 9115920, Note_on_c, 1, 35, 40
1, 9116160, Note_off_c, 1, 35, 0
1, 9116160, Note_on_c, 1, 35, 40
1, 9116400, Note_off_c, 1, 35, 0
1, 9116400, Note_on_c, 1, 37, 40
1, 9116640, Note_off_c, 1, 37, 0
1, 9116640, Note_on_c, 1, 39, 40
1, 9116880, Note_off_c, 1, 39, 0
1, 9116880, Note_on_c, 1, 40, 40
1, 9117600, Note_off_c, 1, 40, 0
1, 9117600, Note_on_c, 1, 40, 40
1, 9117840, Note_off_c, 1, 40, 0
1, 9117840, Note_on_c, 1, 35, 40
1, 9118080, Note_off_c, 1, 35, 0
1, 9118320, Note_on_c, 1, 40, 40
1, 9118560, Note_off_c, 1, 40, 0
1, 9118800, Note_on_c, 1, 37, 40
1, 9119520, Note_off_c, 1, 37, 0
1, 9119520, Note_on_c, 1, 37, 40
1, 9119760, Note_off_c, 1, 37, 0
1, 9119760, Note_on_c, 1, 37, 40
1, 9120240, Note_off_c, 1, 37, 0
1, 9120720, Note_on_c, 1, 32, 40
1, 9121440, Note_off_c, 1, 32, 0
1, 9121440, Note_on_c, 1, 32, 40
1, 9121680, Note_off_c, 1, 32, 0
1, 9121680, Note_on_c, 1, 32, 40
1, 9122160, Note_off_c, 1, 32, 0
1, 9122640, Note_on_c, 1, 35, 40
1, 9123360, Note_off_c, 1, 35, 0
1, 9123360, Note_on_c, 1, 35, 40
1, 9123600, Note_off_c, 1, 35, 0
1, 9123600, Note_on_c, 1, 35, 40
1, 9124080, Note_off_c, 1, 35, 0
1, 9124560, Note_on_c, 1, 40, 40
1, 9125280, Note_off_c, 1, 40, 0
1, 9125280, Note_on_c, 1, 40, 40
1, 9125520, Note_off_c, 1, 40, 0
1, 9125520, Note_on_c, 1, 40, 40
1, 9126000, Note_off_c, 1, 40, 0
1, 9126480, Note_on_c, 1, 37, 40
1, 9127200, Note_off_c, 1, 37, 0
1, 9127200, Note_on_c, 1, 37, 40
1, 9127440, Note_off_c, 1, 37, 0
1, 9127440, Note_on_c, 1, 37, 40
1, 9127920, Note_off_c, 1, 37, 0
1, 9128400, Note_on_c, 1, 32, 40
1, 9129120, Note_off_c, 1, 32, 0
1, 9129120, Note_on_c, 1, 32, 40
1, 9129360, Note_off_c, 1, 32, 0
1, 9129360, Note_on_c, 1, 32, 40
1, 9129840, Note_off_c, 1, 32, 0
1, 9130320, Note_on_c, 1, 35, 40
1, 9131040, Note_off_c, 1, 35, 0
1, 9131040, Note_on_c, 1, 35, 40
1, 9131280, Note_off_c, 1, 35, 0
1, 9131280, Note_on_c, 1, 35, 40
1, 9131760, Note_off_c, 1, 35, 0
1, 9132240, Note_on_c, 1, 40, 40
1, 9132960, Note_off_c, 1, 40, 0
1, 9132960, Note_on_c, 1, 32, 40
1, 9133680, Note_off_c, 1, 32, 0
1, 9133680, Note_on_c, 1, 35, 40
1, 9134160, Note_off_c, 1, 35, 0
1, 9134160, Note_on_c, 1, 40, 40
1, 9134880, Note_off_c, 1, 40, 0
1, 9134880, Note_on_c, 1, 40, 40
1, 9135120, Note_off_c, 1, 40, 0
1, 9135120, Note_on_c, 1, 35, 40
1, 9135600, Note_off_c, 1, 35, 0
1, 9135600, Note_on_c, 1, 40, 40
1, 9135840, Note_off_c, 1, 40, 0
1, 9136080, Note_on_c, 1, 37, 40
1, 9136800, Note_off_c, 1, 37, 0
1, 9136800, Note_on_c, 1, 37, 40
1, 9137040, Note_off_c, 1, 37, 0
1, 9137040, Note_on_c, 1, 32, 40
1, 9137760, Note_off_c, 1, 32, 0
1, 9137760, Note_on_c, 1, 32, 40
1, 9138000, Note_off_c, 1, 32, 0
1, 9138000, Note_on_c, 1, 37, 40
1, 9138720, Note_off_c, 1, 37, 0
1, 9138720, Note_on_c, 1, 37, 40
1, 9138960, Note_off_c, 1, 37, 0
1, 9138960, Note_on_c, 1, 32, 40
1, 9139440, Note_off_c, 1, 32, 0
1, 9139440, Note_on_c, 1, 37, 40
1, 9139680, Note_off_c, 1, 37, 0
1, 9139920, Note_on_c, 1, 33, 40
1, 9140640, Note_off_c, 1, 33, 0
1, 9140640, Note_on_c, 1, 33, 40
1, 9140880, Note_off_c, 1, 33, 0
1, 9140880, Note_on_c, 1, 40, 40
1, 9141600, Note_off_c, 1, 40, 0
1, 9141600, Note_on_c, 1, 32, 40
1, 9141840, Note_off_c, 1, 32, 0
1, 9141840, Note_on_c, 1, 33, 40
1, 9142560, Note_off_c, 1, 33, 0
1, 9142560, Note_on_c, 1, 33, 40
1, 9142800, Note_off_c, 1, 33, 0
1, 9142800, Note_on_c, 1, 40, 40
1, 9143280, Note_off_c, 1, 40, 0
1, 9143280, Note_on_c, 1, 33, 40
1, 9143520, Note_off_c, 1, 33, 0
1, 9143760, Note_on_c, 1, 35, 40
1, 9144480, Note_off_c, 1, 35, 0
1, 9144480, Note_on_c, 1, 39, 40
1, 9144720, Note_off_c, 1, 39, 0
1, 9144720, Note_on_c, 1, 42, 40
1, 9145440, Note_off_c, 1, 42, 0
1, 9145440, Note_on_c, 1, 34, 40
1, 9145680, Note_off_c, 1, 34, 0
1, 9145680, Note_on_c, 1, 35, 40
1, 9146400, Note_off_c, 1, 35, 0
1, 9146400, Note_on_c, 1, 35, 40
1, 9146640, Note_off_c, 1, 35, 0
1, 9146640, Note_on_c, 1, 42, 40
1, 9147120, Note_off_c, 1, 42, 0
1, 9147120, Note_on_c, 1, 35, 40
1, 9147360, Note_off_c, 1, 35, 0
1, 9147600, Note_on_c, 1, 37, 40
1, 9148320, Note_off_c, 1, 37, 0
1, 9148320, Note_on_c, 1, 37, 40
1, 9148560, Note_off_c, 1, 37, 0
1, 9148560, Note_on_c, 1, 32, 40
1, 9149280, Note_off_c, 1, 32, 0
1, 9149280, Note_on_c, 1, 35, 40
1, 9149520, Note_off_c, 1, 35, 0
1, 9149520, Note_on_c, 1, 37, 40
1, 9150240, Note_off_c, 1, 37, 0
1, 9150240, Note_on_c, 1, 37, 40
1, 9150480, Note_off_c, 1, 37, 0
1, 9150480, Note_on_c, 1, 32, 40
1, 9150960, Note_off_c, 1, 32, 0
1, 9150960, Note_on_c, 1, 37, 40
1, 9151200, Note_off_c, 1, 37, 0
1, 9151440, Note_on_c, 1, 42, 40
1, 9152160, Note_off_c, 1, 42, 0
1, 9152160, Note_on_c, 1, 42, 40
1, 9152400, Note_off_c, 1, 42, 0
1, 9152400, Note_on_c, 1, 37, 40
1, 9153120, Note_off_c, 1, 37, 0
1, 9153120, Note_on_c, 1, 40, 40
1, 9153360, Note_off_c, 1, 40, 0
1, 9153360, Note_on_c, 1, 42, 40
1, 9154080, Note_off_c, 1, 42, 0
1, 9154080, Note_on_c, 1, 42, 40
1, 9154320, Note_off_c, 1, 42, 0
1, 9154320, Note_on_c, 1, 37, 40
1, 9154800, Note_off_c, 1, 37, 0
1, 9154800, Note_on_c, 1, 42, 40
1, 9155040, Note_off_c, 1, 42, 0
1, 9155280, Note_on_c, 1, 33, 40
1, 9155760, Note_off_c, 1, 33, 0
1, 9155760, Note_on_c, 1, 33, 40
1, 9156240, Note_off_c, 1, 33, 0
1, 9156240, Note_on_c, 1, 33, 40
1, 9156480, Note_off_c, 1, 33, 0
1, 9157200, Note_on_c, 1, 35, 40
1, 9157920, Note_off_c, 1, 35, 0
1, 9157920, Note_on_c, 1, 35, 40
1, 9158160, Note_off_c, 1, 35, 0
1, 9158160, Note_on_c, 1, 42, 40
1, 9158640, Note_off_c, 1, 42, 0
1, 9158640, Note_on_c, 1, 35, 40
1, 9158880, Note_off_c, 1, 35, 0
1, 9159120, Note_on_c, 1, 40, 40
1, 9159840, Note_off_c, 1, 40, 0
1, 9159840, Note_on_c, 1, 40, 40
1, 9160080, Note_off_c, 1, 40, 0
1, 9160080, Note_on_c, 1, 35, 40
1, 9160800, Note_off_c, 1, 35, 0
1, 9160800, Note_on_c, 1, 35, 40
1, 9161040, Note_off_c, 1, 35, 0
1, 9161040, Note_on_c, 1, 37, 40
1, 9161760, Note_off_c, 1, 37, 0
1, 9161760, Note_on_c, 1, 37, 40
1, 9162000, Note_off_c, 1, 37, 0
1, 9162000, Note_on_c, 1, 37, 40
1, 9162840, Note_off_c, 1, 37, 0
1, 9162960, Note_on_c, 1, 33, 40
1, 9163440, Note_off_c, 1, 33, 0
1, 9163440, Note_on_c, 1, 33, 40
1, 9163920, Note_off_c, 1, 33, 0
1, 9163920, Note_on_c, 1, 33, 40
1, 9164160, Note_off_c, 1, 33, 0
1, 9164880, Note_on_c, 1, 35, 40
1, 9165600, Note_off_c, 1, 35, 0
1, 9165600, Note_on_c, 1, 35, 40
1, 9165840, Note_off_c, 1, 35, 0
1, 9165840, Note_on_c, 1, 42, 40
1, 9166320, Note_off_c, 1, 42, 0
1, 9166320, Note_on_c, 1, 35, 40
1, 9166560, Note_off_c, 1, 35, 0
1, 9166800, Note_on_c, 1, 40, 40
1, 9167520, Note_off_c, 1, 40, 0
1, 9167520, Note_on_c, 1, 40, 40
1, 9167760, Note_off_c, 1, 40, 0
1, 9167760, Note_on_c, 1, 35, 40
1, 9168480, Note_off_c, 1, 35, 0
1, 9168480, Note_on_c, 1, 35, 40
1, 9168720, Note_off_c, 1, 35, 0
1, 9168720, Note_on_c, 1, 37, 40
1, 9169440, Note_off_c, 1, 37, 0
1, 9169440, Note_on_c, 1, 37, 40
1, 9169680, Note_off_c, 1, 37, 0
1, 9169680, Note_on_c, 1, 37, 40
1, 9170520, Note_off_c, 1, 37, 0
1, 9170640, Note_on_c, 1, 33, 40
1, 9171120, Note_off_c, 1, 33, 0
1, 9171120, Note_on_c, 1, 33, 40
1, 9171600, Note_off_c, 1, 33, 0
1, 9171600, Note_on_c, 1, 33, 40
1, 9171840, Note_off_c, 1, 33, 0
1, 9172560, Note_on_c, 1, 35, 40
1, 9174360, Note_off_c, 1, 35, 0
1, 9176400, Note_on_c, 1, 40, 40
1, 9177120, Note_off_c, 1, 40, 0
1, 9177120, Note_on_c, 1, 40, 40
1, 9177360, Note_off_c, 1, 40, 0
1, 9177360, Note_on_c, 1, 35, 40
1, 9177840, Note_off_c, 1, 35, 0
1, 9177840, Note_on_c, 1, 35, 40
1, 9178080, Note_off_c, 1, 35, 0
1, 9178080, Note_on_c, 1, 39, 40
1, 9178320, Note_off_c, 1, 39, 0
1, 9178320, Note_on_c, 1, 40, 40
1, 9179040, Note_off_c, 1, 40, 0
1, 9179040, Note_on_c, 1, 40, 40
1, 9179280, Note_off_c, 1, 40, 0
1, 9179280, Note_on_c, 1, 35, 40
1, 9179760, Note_off_c, 1, 35, 0
1, 9179760, Note_on_c, 1, 40, 40
1, 9180000, Note_off_c, 1, 40, 0
1, 9180000, Note_on_c, 1, 39, 40
1, 9180240, Note_off_c, 1, 39, 0
1, 9180240, Note_on_c, 1, 37, 40
1, 9180960, Note_off_c, 1, 37, 0
1, 9180960, Note_on_c, 1, 37, 40
1, 9181200, Note_off_c, 1, 37, 0
1, 9181200, Note_on_c, 1, 32, 40
1, 9181920, Note_off_c, 1, 32, 0
1, 9181920, Note_on_c, 1, 35, 40
1, 9182160, Note_off_c, 1, 35, 0
1, 9182160, Note_on_c, 1, 37, 40
1, 9182880, Note_off_c, 1, 37, 0
1, 9182880, Note_on_c, 1, 37, 40
1, 9183120, Note_off_c, 1, 37, 0
1, 9183120, Note_on_c, 1, 32, 40
1, 9183960, Note_off_c, 1, 32, 0
1, 9184080, Note_on_c, 1, 33, 40
1, 9184800, Note_off_c, 1, 33, 0
1, 9184800, Note_on_c, 1, 33, 40
1, 9185040, Note_off_c, 1, 33, 0
1, 9185040, Note_on_c, 1, 40, 40
1, 9185760, Note_off_c, 1, 40, 0
1, 9185760, Note_on_c, 1, 32, 40
1, 9186000, Note_off_c, 1, 32, 0
1, 9186000, Note_on_c, 1, 33, 40
1, 9186480, Note_off_c, 1, 33, 0
1, 9186480, Note_on_c, 1, 33, 40
1, 9186960, Note_off_c, 1, 33, 0
1, 9186960, Note_on_c, 1, 40, 40
1, 9187680, Note_off_c, 1, 40, 0
1, 9187680, Note_on_c, 1, 33, 40
1, 9187920, Note_off_c, 1, 33, 0
1, 9187920, Note_on_c, 1, 40, 40
1, 9189840, Note_off_c, 1, 40, 0
1, 9189840, Note_on_c, 1, 40, 40
1, 9191520, Note_off_c, 1, 40, 0
1, 9196080, Note_on_c, 1, 40, 40
1, 9196440, Note_off_c, 1, 40, 0
1, 9196440, Note_on_c, 1, 38, 40
1, 9197040, Note_off_c, 1, 38, 0
1, 9197040, Note_on_c, 1, 37, 40
1, 9197400, Note_off_c, 1, 37, 0
1, 9197520, Note_on_c, 1, 35, 40
1, 9197760, Note_off_c, 1, 35, 0
1, 9198000, Note_on_c, 1, 40, 40
1, 9198480, Note_off_c, 1, 40, 0
1, 9198480, Note_on_c, 1, 40, 40
1, 9198840, Note_off_c, 1, 40, 0
1, 9198960, Note_on_c, 1, 35, 40
1, 9199200, Note_off_c, 1, 35, 0
1, 9199200, Note_on_c, 1, 38, 40
1, 9199680, Note_off_c, 1, 38, 0
1, 9199680, Note_on_c, 1, 40, 40
1, 9199800, Note_off_c, 1, 40, 0
1, 9199920, Note_on_c, 1, 40, 40
1, 9200280, Note_off_c, 1, 40, 0
1, 9200400, Note_on_c, 1, 40, 40
1, 9200640, Note_off_c, 1, 40, 0
1, 9200760, Note_on_c, 1, 40, 40
1, 9200880, Note_off_c, 1, 40, 0
1, 9200880, Note_on_c, 1, 35, 40
1, 9201120, Note_off_c, 1, 35, 0
1, 9201120, Note_on_c, 1, 38, 40
1, 9201600, Note_off_c, 1, 38, 0
1, 9201600, Note_on_c, 1, 40, 40
1, 9201720, Note_off_c, 1, 40, 0
1, 9201840, Note_on_c, 1, 40, 40
1, 9202200, Note_off_c, 1, 40, 0
1, 9202320, Note_on_c, 1, 40, 40
1, 9202560, Note_off_c, 1, 40, 0
1, 9202680, Note_on_c, 1, 40, 40
1, 9202800, Note_off_c, 1, 40, 0
1, 9202800, Note_on_c, 1, 35, 40
1, 9203040, Note_off_c, 1, 35, 0
1, 9203040, Note_on_c, 1, 38, 40
1, 9203400, Note_off_c, 1, 38, 0
1, 9203400, Note_on_c, 1, 40, 40
1, 9203520, Note_off_c, 1, 40, 0
1, 9203760, Note_on_c, 1, 40, 40
1, 9204120, Note_off_c, 1, 40, 0
1, 9204240, Note_on_c, 1, 40, 40
1, 9204480, Note_off_c, 1, 40, 0
1, 9204600, Note_on_c, 1, 40, 40
1, 9204720, Note_off_c, 1, 40, 0
1, 9204720, Note_on_c, 1, 35, 40
1, 9204960, Note_off_c, 1, 35, 0
1, 9204960, Note_on_c, 1, 38, 40
1, 9205320, Note_off_c, 1, 38, 0
1, 9205440, Note_on_c, 1, 40, 40
1, 9205560, Note_off_c, 1, 40, 0
1, 9205680, Note_on_c, 1, 40, 40
1, 9206040, Note_off_c, 1, 40, 0
1, 9206160, Note_on_c, 1, 40, 40
1, 9206400, Note_off_c, 1, 40, 0
1, 9206520, Note_on_c, 1, 40, 40
1, 9206640, Note_off_c, 1, 40, 0
1, 9206640, Note_on_c, 1, 35, 40
1, 9206880, Note_off_c, 1, 35, 0
1, 9206880, Note_on_c, 1, 38, 40
1, 9207240, Note_off_c, 1, 38, 0
1, 9207360, Note_on_c, 1, 40, 40
1, 9207480, Note_off_c, 1, 40, 0
1, 9207600, Note_on_c, 1, 40, 40
1, 9207960, Note_off_c, 1, 40, 0
1, 9208080, Note_on_c, 1, 40, 40
1, 9208320, Note_off_c, 1, 40, 0
1, 9208440, Note_on_c, 1, 40, 40
1, 9208560, Note_off_c, 1, 40, 0
1, 9208560, Note_on_c, 1, 35, 40
1, 9208800, Note_off_c, 1, 35, 0
1, 9208800, Note_on_c, 1, 38, 40
1, 9209160, Note_off_c, 1, 38, 0
1, 9209520, Note_on_c, 1, 40, 40
1, 9210000, Note_off_c, 1, 40, 0
1, 9210240, Note_on_c, 1, 38, 40
1, 9211080, Note_off_c, 1, 38, 0
1, 9211440, Note_on_c, 1, 45, 40
1, 9211800, Note_off_c, 1, 45, 0
1, 9211920, Note_on_c, 1, 35, 40
1, 9212160, Note_off_c, 1, 35, 0
1, 9212160, Note_on_c, 1, 40, 40
1, 9212880, Note_off_c, 1, 40, 0
1, 9213120, Note_on_c, 1, 38, 40
1, 9213360, Note_off_c, 1, 38, 0
1, 9213360, Note_on_c, 1, 40, 40
1, 9213960, Note_off_c, 1, 40, 0
1, 9214080, Note_on_c, 1, 38, 40
1, 9215040, Note_off_c, 1, 38, 0
1, 9215280, Note_on_c, 1, 45, 40
1, 9215640, Note_off_c, 1, 45, 0
1, 9215760, Note_on_c, 1, 35, 40
1, 9216000, Note_off_c, 1, 35, 0
1, 9216000, Note_on_c, 1, 40, 40
1, 9216840, Note_off_c, 1, 40, 0
1, 9216960, Note_on_c, 1, 38, 40
1, 9217200, Note_off_c, 1, 38, 0
1, 9217200, Note_on_c, 1, 40, 40
1, 9217560, Note_off_c, 1, 40, 0
1, 9217680, Note_on_c, 1, 40, 40
1, 9217920, Note_off_c, 1, 40, 0
1, 9218040, Note_on_c, 1, 40, 40
1, 9218160, Note_off_c, 1, 40, 0
1, 9218160, Note_on_c, 1, 35, 40
1, 9218400, Note_off_c, 1, 35, 0
1, 9218400, Note_on_c, 1, 38, 40
1, 9218760, Note_off_c, 1, 38, 0
1, 9218760, Note_on_c, 1, 39, 40
1, 9218880, Note_off_c, 1, 39, 0
1, 9219000, Note_on_c, 1, 40, 40
1, 9219360, Note_off_c, 1, 40, 0
1, 9219600, Note_on_c, 1, 40, 40
1, 9219840, Note_off_c, 1, 40, 0
1, 9220080, Note_on_c, 1, 35, 40
1, 9220320, Note_off_c, 1, 35, 0
1, 9220320, Note_on_c, 1, 38, 40
1, 9220680, Note_off_c, 1, 38, 0
1, 9220680, Note_on_c, 1, 40, 40
1, 9220800, Note_off_c, 1, 40, 0
1, 9221040, Note_on_c, 1, 38, 40
1, 9221400, Note_off_c, 1, 38, 0
1, 9221520, Note_on_c, 1, 38, 40
1, 9221760, Note_off_c, 1, 38, 0
1, 9221880, Note_on_c, 1, 38, 40
1, 9222000, Note_off_c, 1, 38, 0
1, 9222000, Note_on_c, 1, 33, 40
1, 9222240, Note_off_c, 1, 33, 0
1, 9222240, Note_on_c, 1, 38, 40
1, 9222600, Note_off_c, 1, 38, 0
1, 9222720, Note_on_c, 1, 35, 40
1, 9222960, Note_off_c, 1, 35, 0
1, 9222960, Note_on_c, 1, 42, 40
1, 9223080, Note_off_c, 1, 42, 0
1, 9223440, Note_on_c, 1, 40, 40
1, 9223680, Note_off_c, 1, 40, 0
1, 9223680, Note_on_c, 1, 40, 40
1, 9223800, Note_off_c, 1, 40, 0
1, 9223920, Note_on_c, 1, 35, 40
1, 9224280, Note_off_c, 1, 35, 0
1, 9224280, Note_on_c, 1, 40, 40
1, 9224640, Note_off_c, 1, 40, 0
1, 9225360, Note_on_c, 1, 39, 40
1, 9225600, Note_off_c, 1, 39, 0
1, 9225600, Note_on_c, 1, 44, 40
1, 9226080, Note_off_c, 1, 44, 0
1, 9226080, Note_on_c, 1, 39, 40
1, 9226320, Note_off_c, 1, 39, 0
1, 9226320, Note_on_c, 1, 44, 40
1, 9226680, Note_off_c, 1, 44, 0
1, 9226800, Note_on_c, 1, 44, 40
1, 9227040, Note_off_c, 1, 44, 0
1, 9227160, Note_on_c, 1, 44, 40
1, 9227280, Note_off_c, 1, 44, 0
1, 9227280, Note_on_c, 1, 39, 40
1, 9227520, Note_off_c, 1, 39, 0
1, 9227520, Note_on_c, 1, 44, 40
1, 9228000, Note_off_c, 1, 44, 0
1, 9228600, Note_on_c, 1, 45, 40
1, 9229080, Note_off_c, 1, 45, 0
1, 9229200, Note_on_c, 1, 45, 40
1, 9229440, Note_off_c, 1, 45, 0
1, 9229440, Note_on_c, 1, 45, 40
1, 9229680, Note_off_c, 1, 45, 0
1, 9229680, Note_on_c, 1, 40, 40
1, 9229920, Note_off_c, 1, 40, 0
1, 9229920, Note_on_c, 1, 45, 40
1, 9230400, Note_off_c, 1, 45, 0
1, 9230400, Note_on_c, 1, 40, 40
1, 9230640, Note_off_c, 1, 40, 0
1, 9230640, Note_on_c, 1, 45, 40
1, 9231000, Note_off_c, 1, 45, 0
1, 9231120, Note_on_c, 1, 45, 40
1, 9231360, Note_off_c, 1, 45, 0
1, 9231480, Note_on_c, 1, 45, 40
1, 9231600, Note_off_c, 1, 45, 0
1, 9231600, Note_on_c, 1, 40, 40
1, 9231840, Note_off_c, 1, 40, 0
1, 9231840, Note_on_c, 1, 45, 40
1, 9232200, Note_off_c, 1, 45, 0
1, 9232320, Note_on_c, 1, 45, 40
1, 9232440, Note_off_c, 1, 45, 0
1, 9232560, Note_on_c, 1, 38, 40
1, 9232920, Note_off_c, 1, 38, 0
1, 9233040, Note_on_c, 1, 38, 40
1, 9233280, Note_off_c, 1, 38, 0
1, 9233400, Note_on_c, 1, 38, 40
1, 9233520, Note_off_c, 1, 38, 0
1, 9233520, Note_on_c, 1, 33, 40
1, 9233760, Note_off_c, 1, 33, 0
1, 9233760, Note_on_c, 1, 38, 40
1, 9234240, Note_off_c, 1, 38, 0
1, 9234240, Note_on_c, 1, 33, 40
1, 9234480, Note_off_c, 1, 33, 0
1, 9234480, Note_on_c, 1, 40, 40
1, 9234840, Note_off_c, 1, 40, 0
1, 9234960, Note_on_c, 1, 40, 40
1, 9235200, Note_off_c, 1, 40, 0
1, 9235320, Note_on_c, 1, 40, 40
1, 9235440, Note_off_c, 1, 40, 0
1, 9235440, Note_on_c, 1, 35, 40
1, 9235680, Note_off_c, 1, 35, 0
1, 9235680, Note_on_c, 1, 40, 40
1, 9236160, Note_off_c, 1, 40, 0
1, 9236160, Note_on_c, 1, 35, 40
1, 9236400, Note_off_c, 1, 35, 0
1, 9236400, Note_on_c, 1, 40, 40
1, 9236760, Note_off_c, 1, 40, 0
1, 9236880, Note_on_c, 1, 40, 40
1, 9237120, Note_off_c, 1, 40, 0
1, 9237240, Note_on_c, 1, 40, 40
1, 9237360, Note_off_c, 1, 40, 0
1, 9237360, Note_on_c, 1, 38, 40
1, 9237960, Note_off_c, 1, 38, 0
1, 9238080, Note_on_c, 1, 38, 40
1, 9238320, Note_off_c, 1, 38, 0
1, 9238320, Note_on_c, 1, 33, 40
1, 9238920, Note_off_c, 1, 33, 0
1, 9239280, Note_on_c, 1, 33, 40
1, 9239520, Note_off_c, 1, 33, 0
1, 9239520, Note_on_c, 1, 35, 40
1, 9239640, Note_off_c, 1, 35, 0
1, 9239760, Note_on_c, 1, 40, 40
1, 9240120, Note_off_c, 1, 40, 0
1, 9240240, Note_on_c, 1, 40, 40
1, 9240720, Note_off_c, 1, 40, 0
1, 9240720, Note_on_c, 1, 38, 40
1, 9241080, Note_off_c, 1, 38, 0
1, 9241200, Note_on_c, 1, 38, 40
1, 9241440, Note_off_c, 1, 38, 0
1, 9241560, Note_on_c, 1, 38, 40
1, 9241680, Note_off_c, 1, 38, 0
1, 9241680, Note_on_c, 1, 33, 40
1, 9242280, Note_off_c, 1, 33, 0
1, 9242400, Note_on_c, 1, 33, 40
1, 9242520, Note_off_c, 1, 33, 0
1, 9242640, Note_on_c, 1, 33, 40
1, 9242880, Note_off_c, 1, 33, 0
1, 9242880, Note_on_c, 1, 35, 40
1, 9243000, Note_off_c, 1, 35, 0
1, 9243120, Note_on_c, 1, 37, 40
1, 9243240, Note_off_c, 1, 37, 0
1, 9243360, Note_on_c, 1, 39, 40
1, 9243480, Note_off_c, 1, 39, 0
1, 9243600, Note_on_c, 1, 40, 40
1, 9244080, Note_off_c, 1, 40, 0
1, 9244080, Note_on_c, 1, 40, 40
1, 9244320, Note_off_c, 1, 40, 0
1, 9244320, Note_on_c, 1, 40, 40
1, 9244440, Note_off_c, 1, 40, 0
1, 9244560, Note_on_c, 1, 38, 40
1, 9244800, Note_off_c, 1, 38, 0
1, 9244800, Note_on_c, 1, 38, 40
1, 9245160, Note_off_c, 1, 38, 0
1, 9245280, Note_on_c, 1, 38, 40
1, 9245520, Note_off_c, 1, 38, 0
1, 9245520, Note_on_c, 1, 33, 40
1, 9245880, Note_off_c, 1, 33, 0
1, 9246000, Note_on_c, 1, 35, 40
1, 9246240, Note_off_c, 1, 35, 0
1, 9246360, Note_on_c, 1, 35, 40
1, 9246480, Note_off_c, 1, 35, 0
1, 9246480, Note_on_c, 1, 35, 40
1, 9246600, Note_off_c, 1, 35, 0
1, 9246720, Note_on_c, 1, 38, 40
1, 9247080, Note_off_c, 1, 38, 0
1, 9247080, Note_on_c, 1, 39, 40
1, 9247320, Note_off_c, 1, 39, 0
1, 9247440, Note_on_c, 1, 40, 40
1, 9248040, Note_off_c, 1, 40, 0
1, 9248160, Note_on_c, 1, 38, 40
1, 9249240, Note_off_c, 1, 38, 0
1, 9249360, Note_on_c, 1, 45, 40
1, 9249600, Note_off_c, 1, 45, 0
1, 9249840, Note_on_c, 1, 35, 40
1, 9249960, Note_off_c, 1, 35, 0
1, 9250080, Note_on_c, 1, 40, 40
1, 9250920, Note_off_c, 1, 40, 0
1, 9251280, Note_on_c, 1, 40, 40
1, 9251760, Note_off_c, 1, 40, 0
1, 9252000, Note_on_c, 1, 38, 40
1, 9252960, Note_off_c, 1, 38, 0
1, 9253200, Note_on_c, 1, 45, 40
1, 9253800, Note_off_c, 1, 45, 0
1, 9253920, Note_on_c, 1, 40, 40
1, 9254760, Note_off_c, 1, 40, 0
1, 9255120, Note_on_c, 1, 40, 40
1, 9255720, Note_off_c, 1, 40, 0
1, 9255840, Note_on_c, 1, 40, 40
1, 9256080, Note_off_c, 1, 40, 0
1, 9256080, Note_on_c, 1, 35, 40
1, 9256560, Note_off_c, 1, 35, 0
1, 9256560, Note_on_c, 1, 38, 40
1, 9256680, Note_off_c, 1, 38, 0
1, 9256800, Note_on_c, 1, 39, 40
1, 9257040, Note_off_c, 1, 39, 0
1, 9257040, Note_on_c, 1, 40, 40
1, 9257400, Note_off_c, 1, 40, 0
1, 9257520, Note_on_c, 1, 40, 40
1, 9257760, Note_off_c, 1, 40, 0
1, 9257760, Note_on_c, 1, 40, 40
1, 9257880, Note_off_c, 1, 40, 0
1, 9258000, Note_on_c, 1, 35, 40
1, 9258240, Note_off_c, 1, 35, 0
1, 9258240, Note_on_c, 1, 38, 40
1, 9258480, Note_off_c, 1, 38, 0
1, 9258600, Note_on_c, 1, 39, 40
1, 9258720, Note_off_c, 1, 39, 0
1, 9258840, Note_on_c, 1, 38, 40
1, 9259320, Note_off_c, 1, 38, 0
1, 9259440, Note_on_c, 1, 38, 40
1, 9259680, Note_off_c, 1, 38, 0
1, 9259800, Note_on_c, 1, 38, 40
1, 9259920, Note_off_c, 1, 38, 0
1, 9259920, Note_on_c, 1, 33, 40
1, 9260160, Note_off_c, 1, 33, 0
1, 9260160, Note_on_c, 1, 36, 40
1, 9260640, Note_off_c, 1, 36, 0
1, 9260640, Note_on_c, 1, 38, 40
1, 9260760, Note_off_c, 1, 38, 0
1, 9260760, Note_on_c, 1, 40, 40
1, 9261240, Note_off_c, 1, 40, 0
1, 9261360, Note_on_c, 1, 40, 40
1, 9261840, Note_off_c, 1, 40, 0
1, 9261840, Note_on_c, 1, 35, 40
1, 9262080, Note_off_c, 1, 35, 0
1, 9262080, Note_on_c, 1, 40, 40
1, 9262200, Note_off_c, 1, 40, 0
1, 9262320, Note_on_c, 1, 44, 40
1, 9262680, Note_off_c, 1, 44, 0
1, 9262800, Note_on_c, 1, 44, 40
1, 9263040, Note_off_c, 1, 44, 0
1, 9263160, Note_on_c, 1, 44, 40
1, 9263280, Note_off_c, 1, 44, 0
1, 9263280, Note_on_c, 1, 39, 40
1, 9263520, Note_off_c, 1, 39, 0
1, 9263520, Note_on_c, 1, 44, 40
1, 9264000, Note_off_c, 1, 44, 0
1, 9264000, Note_on_c, 1, 39, 40
1, 9264240, Note_off_c, 1, 39, 0
1, 9264240, Note_on_c, 1, 44, 40
1, 9264600, Note_off_c, 1, 44, 0
1, 9264720, Note_on_c, 1, 44, 40
1, 9265200, Note_off_c, 1, 44, 0
1, 9265200, Note_on_c, 1, 39, 40
1, 9265440, Note_off_c, 1, 39, 0
1, 9265440, Note_on_c, 1, 44, 40
1, 9265920, Note_off_c, 1, 44, 0
1, 9265920, Note_on_c, 1, 39, 40
1, 9266160, Note_off_c, 1, 39, 0
1, 9266160, Note_on_c, 1, 45, 40
1, 9266520, Note_off_c, 1, 45, 0
1, 9266520, Note_on_c, 1, 45, 40
1, 9266760, Note_off_c, 1, 45, 0
1, 9266880, Note_on_c, 1, 45, 40
1, 9267000, Note_off_c, 1, 45, 0
1, 9267000, Note_on_c, 1, 40, 40
1, 9267240, Note_off_c, 1, 40, 0
1, 9267360, Note_on_c, 1, 45, 40
1, 9267840, Note_off_c, 1, 45, 0
1, 9267840, Note_on_c, 1, 40, 40
1, 9268080, Note_off_c, 1, 40, 0
1, 9268080, Note_on_c, 1, 45, 40
1, 9268320, Note_off_c, 1, 45, 0
1, 9268560, Note_on_c, 1, 45, 40
1, 9268800, Note_off_c, 1, 45, 0
1, 9268920, Note_on_c, 1, 45, 40
1, 9269040, Note_off_c, 1, 45, 0
1, 9269040, Note_on_c, 1, 40, 40
1, 9269280, Note_off_c, 1, 40, 0
1, 9269280, Note_on_c, 1, 45, 40
1, 9269760, Note_off_c, 1, 45, 0
1, 9269880, Note_on_c, 1, 38, 40
1, 9270240, Note_off_c, 1, 38, 0
1, 9270480, Note_on_c, 1, 38, 40
1, 9270720, Note_off_c, 1, 38, 0
1, 9270840, Note_on_c, 1, 38, 40
1, 9270960, Note_off_c, 1, 38, 0
1, 9270960, Note_on_c, 1, 33, 40
1, 9271200, Note_off_c, 1, 33, 0
1, 9271200, Note_on_c, 1, 38, 40
1, 9271680, Note_off_c, 1, 38, 0
1, 9271680, Note_on_c, 1, 33, 40
1, 9271920, Note_off_c, 1, 33, 0
1, 9271920, Note_on_c, 1, 40, 40
1, 9272280, Note_off_c, 1, 40, 0
1, 9272400, Note_on_c, 1, 40, 40
1, 9272640, Note_off_c, 1, 40, 0
1, 9272640, Note_on_c, 1, 40, 40
1, 9272760, Note_off_c, 1, 40, 0
1, 9272880, Note_on_c, 1, 35, 40
1, 9273120, Note_off_c, 1, 35, 0
1, 9273120, Note_on_c, 1, 40, 40
1, 9273600, Note_off_c, 1, 40, 0
1, 9273600, Note_on_c, 1, 35, 40
1, 9273840, Note_off_c, 1, 35, 0
1, 9273840, Note_on_c, 1, 40, 40
1, 9274200, Note_off_c, 1, 40, 0
1, 9274320, Note_on_c, 1, 40, 40
1, 9274560, Note_off_c, 1, 40, 0
1, 9274680, Note_on_c, 1, 40, 40
1, 9274800, Note_off_c, 1, 40, 0
1, 9274800, Note_on_c, 1, 35, 40
1, 9275040, Note_off_c, 1, 35, 0
1, 9275040, Note_on_c, 1, 35, 40
1, 9275280, Note_off_c, 1, 35, 0
1, 9275280, Note_on_c, 1, 38, 40
1, 9275400, Note_off_c, 1, 38, 0
1, 9275520, Note_on_c, 1, 39, 40
1, 9275760, Note_off_c, 1, 39, 0
1, 9275760, Note_on_c, 1, 40, 40
1, 9276120, Note_off_c, 1, 40, 0
1, 9276240, Note_on_c, 1, 40, 40
1, 9276480, Note_off_c, 1, 40, 0
1, 9276600, Note_on_c, 1, 40, 40
1, 9276720, Note_off_c, 1, 40, 0
1, 9276720, Note_on_c, 1, 35, 40
1, 9276960, Note_off_c, 1, 35, 0
1, 9276960, Note_on_c, 1, 40, 40
1, 9277320, Note_off_c, 1, 40, 0
1, 9277440, Note_on_c, 1, 35, 40
1, 9277680, Note_off_c, 1, 35, 0
1, 9277680, Note_on_c, 1, 40, 40
1, 9278040, Note_off_c, 1, 40, 0
1, 9278160, Note_on_c, 1, 40, 40
1, 9278280, Note_off_c, 1, 40, 0
1, 9278520, Note_on_c, 1, 40, 40
1, 9278640, Note_off_c, 1, 40, 0
1, 9278640, Note_on_c, 1, 38, 40
1, 9278880, Note_off_c, 1, 38, 0
1, 9278880, Note_on_c, 1, 38, 40
1, 9279120, Note_off_c, 1, 38, 0
1, 9279240, Note_on_c, 1, 38, 40
1, 9279480, Note_off_c, 1, 38, 0
1, 9279600, Note_on_c, 1, 33, 40
1, 9279960, Note_off_c, 1, 33, 0
1, 9280080, Note_on_c, 1, 33, 40
1, 9280320, Note_off_c, 1, 33, 0
1, 9280560, Note_on_c, 1, 33, 40
1, 9280800, Note_off_c, 1, 33, 0
1, 9280800, Note_on_c, 1, 37, 40
1, 9281160, Note_off_c, 1, 37, 0
1, 9281160, Note_on_c, 1, 38, 40
1, 9281400, Note_off_c, 1, 38, 0
1, 9281400, Note_on_c, 1, 40, 40
1, 9281760, Note_off_c, 1, 40, 0
1, 9282000, Note_on_c, 1, 40, 40
1, 9282240, Note_off_c, 1, 40, 0
1, 9282360, Note_on_c, 1, 40, 40
1, 9282480, Note_off_c, 1, 40, 0
1, 9282720, Note_on_c, 1, 38, 40
1, 9282960, Note_off_c, 1, 38, 0
1, 9283080, Note_on_c, 1, 38, 40
1, 9283320, Note_off_c, 1, 38, 0
1, 9283320, Note_on_c, 1, 33, 40
1, 9283680, Note_off_c, 1, 33, 0
1, 9283800, Note_on_c, 1, 33, 40
1, 9284040, Note_off_c, 1, 33, 0
1, 9284160, Note_on_c, 1, 33, 40
1, 9284520, Note_off_c, 1, 33, 0
1, 9284520, Note_on_c, 1, 35, 40
1, 9284760, Note_off_c, 1, 35, 0
1, 9284880, Note_on_c, 1, 37, 40
1, 9285240, Note_off_c, 1, 37, 0
1, 9285240, Note_on_c, 1, 38, 40
1, 9285480, Note_off_c, 1, 38, 0
1, 9285480, Note_on_c, 1, 40, 40
1, 9285960, Note_off_c, 1, 40, 0
1, 9286200, Note_on_c, 1, 38, 40
1, 9286560, Note_off_c, 1, 38, 0
1, 9287400, Note_on_c, 1, 45, 40
1, 9287880, Note_off_c, 1, 45, 0
1, 9287880, Note_on_c, 1, 35, 40
1, 9288120, Note_off_c, 1, 35, 0
1, 9288120, Note_on_c, 1, 40, 40
1, 9288840, Note_off_c, 1, 40, 0
1, 9289080, Note_on_c, 1, 35, 40
1, 9289320, Note_off_c, 1, 35, 0
1, 9289320, Note_on_c, 1, 40, 40
1, 9289920, Note_off_c, 1, 40, 0
1, 9289920, Note_on_c, 1, 38, 40
1, 9290880, Note_off_c, 1, 38, 0
1, 9291120, Note_on_c, 1, 45, 40
1, 9291600, Note_off_c, 1, 45, 0
1, 9291840, Note_on_c, 1, 35, 40
1, 9292080, Note_off_c, 1, 35, 0
1, 9292080, Note_on_c, 1, 40, 40
1, 9293760, Note_off_c, 1, 40, 0
1, 9303120, Note_on_c, 1, 43, 40
1, 9303600, Note_off_c, 1, 43, 0
1, 9303600, Note_on_c, 1, 36, 40
1, 9304320, Note_off_c, 1, 36, 0
1, 9304440, Note_on_c, 1, 36, 40
1, 9304560, Note_off_c, 1, 36, 0
1, 9304560, Note_on_c, 1, 43, 40
1, 9305040, Note_off_c, 1, 43, 0
1, 9305040, Note_on_c, 1, 41, 40
1, 9305280, Note_off_c, 1, 41, 0
1, 9305400, Note_on_c, 1, 39, 40
1, 9305520, Note_off_c, 1, 39, 0
1, 9305520, Note_on_c, 1, 36, 40
1, 9306240, Note_off_c, 1, 36, 0
1, 9306360, Note_on_c, 1, 36, 40
1, 9306480, Note_off_c, 1, 36, 0
1, 9306480, Note_on_c, 1, 43, 40
1, 9306960, Note_off_c, 1, 43, 0
1, 9306960, Note_on_c, 1, 41, 40
1, 9307200, Note_off_c, 1, 41, 0
1, 9307320, Note_on_c, 1, 39, 40
1, 9307440, Note_off_c, 1, 39, 0
1, 9307440, Note_on_c, 1, 36, 40
1, 9308160, Note_off_c, 1, 36, 0
1, 9308280, Note_on_c, 1, 36, 40
1, 9308400, Note_off_c, 1, 36, 0
1, 9308400, Note_on_c, 1, 43, 40
1, 9308880, Note_off_c, 1, 43, 0
1, 9308880, Note_on_c, 1, 41, 40
1, 9309120, Note_off_c, 1, 41, 0
1, 9309240, Note_on_c, 1, 39, 40
1, 9309360, Note_off_c, 1, 39, 0
1, 9309360, Note_on_c, 1, 36, 40
1, 9310080, Note_off_c, 1, 36, 0
1, 9310200, Note_on_c, 1, 36, 40
1, 9310320, Note_off_c, 1, 36, 0
1, 9310320, Note_on_c, 1, 43, 40
1, 9310800, Note_off_c, 1, 43, 0
1, 9310800, Note_on_c, 1, 41, 40
1, 9311040, Note_off_c, 1, 41, 0
1, 9311160, Note_on_c, 1, 39, 40
1, 9311280, Note_off_c, 1, 39, 0
1, 9311280, Note_on_c, 1, 36, 40
1, 9312000, Note_off_c, 1, 36, 0
1, 9312120, Note_on_c, 1, 36, 40
1, 9312240, Note_off_c, 1, 36, 0
1, 9312240, Note_on_c, 1, 43, 40
1, 9312720, Note_off_c, 1, 43, 0
1, 9312720, Note_on_c, 1, 36, 40
1, 9313200, Note_off_c, 1, 36, 0
1, 9313200, Note_on_c, 1, 41, 40
1, 9313680, Note_off_c, 1, 41, 0
1, 9313680, Note_on_c, 1, 41, 40
1, 9314160, Note_off_c, 1, 41, 0
1, 9314160, Note_on_c, 1, 36, 40
1, 9315120, Note_off_c, 1, 36, 0
1, 9315120, Note_on_c, 1, 36, 40
1, 9315840, Note_off_c, 1, 36, 0
1, 9315960, Note_on_c, 1, 36, 40
1, 9316080, Note_off_c, 1, 36, 0
1, 9316080, Note_on_c, 1, 43, 40
1, 9316560, Note_off_c, 1, 43, 0
1, 9316560, Note_on_c, 1, 41, 40
1, 9316800, Note_off_c, 1, 41, 0
1, 9316920, Note_on_c, 1, 39, 40
1, 9317040, Note_off_c, 1, 39, 0
1, 9317040, Note_on_c, 1, 36, 40
1, 9317760, Note_off_c, 1, 36, 0
1, 9317880, Note_on_c, 1, 36, 40
1, 9318000, Note_off_c, 1, 36, 0
1, 9318000, Note_on_c, 1, 43, 40
1, 9318480, Note_off_c, 1, 43, 0
1, 9318480, Note_on_c, 1, 41, 40
1, 9318720, Note_off_c, 1, 41, 0
1, 9318840, Note_on_c, 1, 39, 40
1, 9318960, Note_off_c, 1, 39, 0
1, 9318960, Note_on_c, 1, 36, 40
1, 9319680, Note_off_c, 1, 36, 0
1, 9319800, Note_on_c, 1, 36, 40
1, 9319920, Note_off_c, 1, 36, 0
1, 9319920, Note_on_c, 1, 43, 40
1, 9320400, Note_off_c, 1, 43, 0
1, 9320400, Note_on_c, 1, 36, 40
1, 9320880, Note_off_c, 1, 36, 0
1, 9320880, Note_on_c, 1, 41, 40
1, 9321360, Note_off_c, 1, 41, 0
1, 9321360, Note_on_c, 1, 41, 40
1, 9321840, Note_off_c, 1, 41, 0
1, 9321840, Note_on_c, 1, 36, 40
1, 9322800, Note_off_c, 1, 36, 0
1, 9322800, Note_on_c, 1, 36, 40
1, 9323520, Note_off_c, 1, 36, 0
1, 9323640, Note_on_c, 1, 36, 40
1, 9323760, Note_off_c, 1, 36, 0
1, 9323760, Note_on_c, 1, 43, 40
1, 9324240, Note_off_c, 1, 43, 0
1, 9324240, Note_on_c, 1, 41, 40
1, 9324480, Note_off_c, 1, 41, 0
1, 9324600, Note_on_c, 1, 39, 40
1, 9324720, Note_off_c, 1, 39, 0
1, 9324720, Note_on_c, 1, 36, 40
1, 9325440, Note_off_c, 1, 36, 0
1, 9325560, Note_on_c, 1, 36, 40
1, 9325680, Note_off_c, 1, 36, 0
1, 9325680, Note_on_c, 1, 43, 40
1, 9326160, Note_off_c, 1, 43, 0
1, 9326160, Note_on_c, 1, 41, 40
1, 9326400, Note_off_c, 1, 41, 0
1, 9326520, Note_on_c, 1, 39, 40
1, 9326640, Note_off_c, 1, 39, 0
1, 9326640, Note_on_c, 1, 41, 40
1, 9326880, Note_off_c, 1, 41, 0
1, 9327120, Note_on_c, 1, 41, 40
1, 9327360, Note_off_c, 1, 41, 0
1, 9327600, Note_on_c, 1, 36, 40
1, 9327840, Note_off_c, 1, 36, 0
1, 9328080, Note_on_c, 1, 36, 40
1, 9328320, Note_off_c, 1, 36, 0
1, 9328440, Note_on_c, 1, 39, 40
1, 9328560, Note_off_c, 1, 39, 0
1, 9328560, Note_on_c, 1, 41, 40
1, 9328800, Note_off_c, 1, 41, 0
1, 9329040, Note_on_c, 1, 41, 40
1, 9329280, Note_off_c, 1, 41, 0
1, 9329520, Note_on_c, 1, 36, 40
1, 9329760, Note_off_c, 1, 36, 0
1, 9330000, Note_on_c, 1, 36, 40
1, 9330240, Note_off_c, 1, 36, 0
1, 9330360, Note_on_c, 1, 39, 40
1, 9330480, Note_off_c, 1, 39, 0
1, 9330480, Note_on_c, 1, 41, 40
1, 9330720, Note_off_c, 1, 41, 0
1, 9330960, Note_on_c, 1, 41, 40
1, 9331200, Note_off_c, 1, 41, 0
1, 9331440, Note_on_c, 1, 36, 40
1, 9331680, Note_off_c, 1, 36, 0
1, 9331920, Note_on_c, 1, 36, 40
1, 9332160, Note_off_c, 1, 36, 0
1, 9332280, Note_on_c, 1, 39, 40
1, 9332400, Note_off_c, 1, 39, 0
1, 9332400, Note_on_c, 1, 41, 40
1, 9332640, Note_off_c, 1, 41, 0
1, 9332880, Note_on_c, 1, 41, 40
1, 9333120, Note_off_c, 1, 41, 0
1, 9333360, Note_on_c, 1, 36, 40
1, 9333600, Note_off_c, 1, 36, 0
1, 9333840, Note_on_c, 1, 41, 40
1, 9334080, Note_off_c, 1, 41, 0
1, 9334320, Note_on_c, 1, 36, 40
1, 9335040, Note_off_c, 1, 36, 0
1, 9335160, Note_on_c, 1, 36, 40
1, 9335280, Note_off_c, 1, 36, 0
1, 9335280, Note_on_c, 1, 43, 40
1, 9335760, Note_off_c, 1, 43, 0
1, 9335760, Note_on_c, 1, 36, 40
1, 9336240, Note_off_c, 1, 36, 0
1, 9336240, Note_on_c, 1, 41, 40
1, 9336720, Note_off_c, 1, 41, 0
1, 9336720, Note_on_c, 1, 41, 40
1, 9337200, Note_off_c, 1, 41, 0
1, 9337200, Note_on_c, 1, 36, 40
1, 9338160, Note_off_c, 1, 36, 0
1, 9338160, Note_on_c, 1, 36, 40
1, 9338880, Note_off_c, 1, 36, 0
1, 9339000, Note_on_c, 1, 36, 40
1, 9339120, Note_off_c, 1, 36, 0
1, 9339120, Note_on_c, 1, 43, 40
1, 9339600, Note_off_c, 1, 43, 0
1, 9339600, Note_on_c, 1, 46, 40
1, 9339840, Note_off_c, 1, 46, 0
1, 9339960, Note_on_c, 1, 48, 40
1, 9340080, Note_off_c, 1, 48, 0
1, 9340080, Note_on_c, 1, 36, 40
1, 9340800, Note_off_c, 1, 36, 0
1, 9340920, Note_on_c, 1, 36, 40
1, 9341040, Note_off_c, 1, 36, 0
1, 9341040, Note_on_c, 1, 43, 40
1, 9341280, Note_off_c, 1, 43, 0
1, 9341520, Note_on_c, 1, 48, 40
1, 9341760, Note_off_c, 1, 48, 0
1, 9342000, Note_on_c, 1, 43, 40
1, 9342720, Note_off_c, 1, 43, 0
1, 9342840, Note_on_c, 1, 43, 40
1, 9342960, Note_off_c, 1, 43, 0
1, 9342960, Note_on_c, 1, 38, 40
1, 9343680, Note_off_c, 1, 38, 0
1, 9343800, Note_on_c, 1, 41, 40
1, 9343920, Note_off_c, 1, 41, 0
1, 9343920, Note_on_c, 1, 43, 40
1, 9344640, Note_off_c, 1, 43, 0
1, 9344760, Note_on_c, 1, 43, 40
1, 9344880, Note_off_c, 1, 43, 0
1, 9344880, Note_on_c, 1, 38, 40
1, 9345360, Note_off_c, 1, 38, 0
1, 9345360, Note_on_c, 1, 43, 40
1, 9345840, Note_off_c, 1, 43, 0
1, 9345840, Note_on_c, 1, 41, 40
1, 9346080, Note_off_c, 1, 41, 0
1, 9346320, Note_on_c, 1, 41, 40
1, 9346560, Note_off_c, 1, 41, 0
1, 9346800, Note_on_c, 1, 36, 40
1, 9347040, Note_off_c, 1, 36, 0
1, 9347280, Note_on_c, 1, 36, 40
1, 9347520, Note_off_c, 1, 36, 0
1, 9347640, Note_on_c, 1, 39, 40
1, 9347760, Note_off_c, 1, 39, 0
1, 9347760, Note_on_c, 1, 41, 40
1, 9348000, Note_off_c, 1, 41, 0
1, 9348240, Note_on_c, 1, 41, 40
1, 9348480, Note_off_c, 1, 41, 0
1, 9348720, Note_on_c, 1, 36, 40
1, 9348960, Note_off_c, 1, 36, 0
1, 9349200, Note_on_c, 1, 41, 40
1, 9349440, Note_off_c, 1, 41, 0
1, 9349680, Note_on_c, 1, 36, 40
1, 9350400, Note_off_c, 1, 36, 0
1, 9350520, Note_on_c, 1, 36, 40
1, 9350640, Note_off_c, 1, 36, 0
1, 9350640, Note_on_c, 1, 36, 40
1, 9351120, Note_off_c, 1, 36, 0
1, 9351120, Note_on_c, 1, 36, 40
1, 9351600, Note_off_c, 1, 36, 0
1, 9351600, Note_on_c, 1, 41, 40
1, 9352320, Note_off_c, 1, 41, 0
1, 9352440, Note_on_c, 1, 41, 40
1, 9352560, Note_off_c, 1, 41, 0
1, 9352560, Note_on_c, 1, 36, 40
1, 9353040, Note_off_c, 1, 36, 0
1, 9353040, Note_on_c, 1, 36, 40
1, 9353520, Note_off_c, 1, 36, 0
1, 9353520, Note_on_c, 1, 36, 40
1, 9354240, Note_off_c, 1, 36, 0
1, 9354360, Note_on_c, 1, 36, 40
1, 9354480, Note_off_c, 1, 36, 0
1, 9354480, Note_on_c, 1, 43, 40
1, 9354960, Note_off_c, 1, 43, 0
1, 9354960, Note_on_c, 1, 46, 40
1, 9355200, Note_off_c, 1, 46, 0
1, 9355320, Note_on_c, 1, 48, 40
1, 9355440, Note_off_c, 1, 48, 0
1, 9355440, Note_on_c, 1, 36, 40
1, 9355920, Note_off_c, 1, 36, 0
1, 9355920, Note_on_c, 1, 43, 40
1, 9356160, Note_off_c, 1, 43, 0
1, 9356280, Note_on_c, 1, 43, 40
1, 9356400, Note_off_c, 1, 43, 0
1, 9356400, Note_on_c, 1, 43, 40
1, 9356640, Note_off_c, 1, 43, 0
1, 9356760, Note_on_c, 1, 43, 40
1, 9356880, Note_off_c, 1, 43, 0
1, 9356880, Note_on_c, 1, 43, 40
1, 9357360, Note_off_c, 1, 43, 0
1, 9357360, Note_on_c, 1, 36, 40
1, 9358080, Note_off_c, 1, 36, 0
1, 9358200, Note_on_c, 1, 36, 40
1, 9358320, Note_off_c, 1, 36, 0
1, 9358320, Note_on_c, 1, 43, 40
1, 9358800, Note_off_c, 1, 43, 0
1, 9358800, Note_on_c, 1, 36, 40
1, 9359280, Note_off_c, 1, 36, 0
1, 9359280, Note_on_c, 1, 41, 40
1, 9359760, Note_off_c, 1, 41, 0
1, 9359760, Note_on_c, 1, 41, 40
1, 9360240, Note_off_c, 1, 41, 0
1, 9360240, Note_on_c, 1, 36, 40
1, 9361200, Note_off_c, 1, 36, 0
1, 9361200, Note_on_c, 1, 36, 40
1, 9361920, Note_off_c, 1, 36, 0
1, 9362040, Note_on_c, 1, 36, 40
1, 9362160, Note_off_c, 1, 36, 0
1, 9362160, Note_on_c, 1, 43, 40
1, 9362640, Note_off_c, 1, 43, 0
1, 9362640, Note_on_c, 1, 41, 40
1, 9362880, Note_off_c, 1, 41, 0
1, 9363000, Note_on_c, 1, 39, 40
1, 9363120, Note_off_c, 1, 39, 0
1, 9363120, Note_on_c, 1, 36, 40
1, 9363840, Note_off_c, 1, 36, 0
1, 9363960, Note_on_c, 1, 36, 40
1, 9364080, Note_off_c, 1, 36, 0
1, 9364080, Note_on_c, 1, 43, 40
1, 9364560, Note_off_c, 1, 43, 0
1, 9364560, Note_on_c, 1, 41, 40
1, 9364800, Note_off_c, 1, 41, 0
1, 9364920, Note_on_c, 1, 39, 40
1, 9365040, Note_off_c, 1, 39, 0
1, 9365040, Note_on_c, 1, 36, 40
1, 9365760, Note_off_c, 1, 36, 0
1, 9365880, Note_on_c, 1, 36, 40
1, 9366000, Note_off_c, 1, 36, 0
1, 9366000, Note_on_c, 1, 43, 40
1, 9366480, Note_off_c, 1, 43, 0
1, 9366480, Note_on_c, 1, 36, 40
1, 9366960, Note_off_c, 1, 36, 0
1, 9366960, Note_on_c, 1, 41, 40
1, 9367440, Note_off_c, 1, 41, 0
1, 9367440, Note_on_c, 1, 41, 40
1, 9367920, Note_off_c, 1, 41, 0
1, 9367920, Note_on_c, 1, 36, 40
1, 9368880, Note_off_c, 1, 36, 0
1, 9368880, Note_on_c, 1, 36, 40
1, 9369600, Note_off_c, 1, 36, 0
1, 9369720, Note_on_c, 1, 36, 40
1, 9369840, Note_off_c, 1, 36, 0
1, 9369840, Note_on_c, 1, 43, 40
1, 9370320, Note_off_c, 1, 43, 0
1, 9370320, Note_on_c, 1, 41, 40
1, 9370560, Note_off_c, 1, 41, 0
1, 9370680, Note_on_c, 1, 39, 40
1, 9370800, Note_off_c, 1, 39, 0
1, 9370800, Note_on_c, 1, 36, 40
1, 9371520, Note_off_c, 1, 36, 0
1, 9371640, Note_on_c, 1, 36, 40
1, 9371760, Note_off_c, 1, 36, 0
1, 9371760, Note_on_c, 1, 43, 40
1, 9372240, Note_off_c, 1, 43, 0
1, 9372240, Note_on_c, 1, 41, 40
1, 9372480, Note_off_c, 1, 41, 0
1, 9372600, Note_on_c, 1, 39, 40
1, 9372720, Note_off_c, 1, 39, 0
1, 9372720, Note_on_c, 1, 41, 40
1, 9372960, Note_off_c, 1, 41, 0
1, 9373200, Note_on_c, 1, 41, 40
1, 9373440, Note_off_c, 1, 41, 0
1, 9373680, Note_on_c, 1, 36, 40
1, 9373920, Note_off_c, 1, 36, 0
1, 9374160, Note_on_c, 1, 36, 40
1, 9374400, Note_off_c, 1, 36, 0
1, 9374520, Note_on_c, 1, 39, 40
1, 9374640, Note_off_c, 1, 39, 0
1, 9374640, Note_on_c, 1, 41, 40
1, 9374880, Note_off_c, 1, 41, 0
1, 9375120, Note_on_c, 1, 41, 40
1, 9375360, Note_off_c, 1, 41, 0
1, 9375600, Note_on_c, 1, 36, 40
1, 9375840, Note_off_c, 1, 36, 0
1, 9376080, Note_on_c, 1, 36, 40
1, 9376320, Note_off_c, 1, 36, 0
1, 9376440, Note_on_c, 1, 39, 40
1, 9376560, Note_off_c, 1, 39, 0
1, 9376560, Note_on_c, 1, 41, 40
1, 9376800, Note_off_c, 1, 41, 0
1, 9377040, Note_on_c, 1, 41, 40
1, 9377280, Note_off_c, 1, 41, 0
1, 9377520, Note_on_c, 1, 36, 40
1, 9377760, Note_off_c, 1, 36, 0
1, 9378000, Note_on_c, 1, 36, 40
1, 9378240, Note_off_c, 1, 36, 0
1, 9378360, Note_on_c, 1, 39, 40
1, 9378480, Note_off_c, 1, 39, 0
1, 9378480, Note_on_c, 1, 41, 40
1, 9378720, Note_off_c, 1, 41, 0
1, 9378960, Note_on_c, 1, 41, 40
1, 9379200, Note_off_c, 1, 41, 0
1, 9379440, Note_on_c, 1, 36, 40
1, 9379680, Note_off_c, 1, 36, 0
1, 9379920, Note_on_c, 1, 41, 40
1, 9380160, Note_off_c, 1, 41, 0
1, 9380400, Note_on_c, 1, 36, 40
1, 9381120, Note_off_c, 1, 36, 0
1, 9381240, Note_on_c, 1, 36, 40
1, 9381360, Note_off_c, 1, 36, 0
1, 9381360, Note_on_c, 1, 43, 40
1, 9381840, Note_off_c, 1, 43, 0
1, 9381840, Note_on_c, 1, 36, 40
1, 9382320, Note_off_c, 1, 36, 0
1, 9382320, Note_on_c, 1, 41, 40
1, 9382800, Note_off_c, 1, 41, 0
1, 9382800, Note_on_c, 1, 41, 40
1, 9383280, Note_off_c, 1, 41, 0
1, 9383280, Note_on_c, 1, 36, 40
1, 9384240, Note_off_c, 1, 36, 0
1, 9384240, Note_on_c, 1, 36, 40
1, 9384960, Note_off_c, 1, 36, 0
1, 9385080, Note_on_c, 1, 36, 40
1, 9385200, Note_off_c, 1, 36, 0
1, 9385200, Note_on_c, 1, 43, 40
1, 9385680, Note_off_c, 1, 43, 0
1, 9385680, Note_on_c, 1, 46, 40
1, 9385920, Note_off_c, 1, 46, 0
1, 9386040, Note_on_c, 1, 48, 40
1, 9386160, Note_off_c, 1, 48, 0
1, 9386160, Note_on_c, 1, 36, 40
1, 9386880, Note_off_c, 1, 36, 0
1, 9387000, Note_on_c, 1, 36, 40
1, 9387120, Note_off_c, 1, 36, 0
1, 9387120, Note_on_c, 1, 43, 40
1, 9387360, Note_off_c, 1, 43, 0
1, 9387600, Note_on_c, 1, 48, 40
1, 9387840, Note_off_c, 1, 48, 0
1, 9388080, Note_on_c, 1, 43, 40
1, 9388800, Note_off_c, 1, 43, 0
1, 9388920, Note_on_c, 1, 43, 40
1, 9389040, Note_off_c, 1, 43, 0
1, 9389040, Note_on_c, 1, 38, 40
1, 9389760, Note_off_c, 1, 38, 0
1, 9389880, Note_on_c, 1, 41, 40
1, 9390000, Note_off_c, 1, 41, 0
1, 9390000, Note_on_c, 1, 43, 40
1, 9390720, Note_off_c, 1, 43, 0
1, 9390840, Note_on_c, 1, 43, 40
1, 9390960, Note_off_c, 1, 43, 0
1, 9390960, Note_on_c, 1, 38, 40
1, 9391440, Note_off_c, 1, 38, 0
1, 9391440, Note_on_c, 1, 43, 40
1, 9391920, Note_off_c, 1, 43, 0
1, 9391920, Note_on_c, 1, 41, 40
1, 9392160, Note_off_c, 1, 41, 0
1, 9392400, Note_on_c, 1, 41, 40
1, 9392640, Note_off_c, 1, 41, 0
1, 9392880, Note_on_c, 1, 36, 40
1, 9393120, Note_off_c, 1, 36, 0
1, 9393360, Note_on_c, 1, 36, 40
1, 9393600, Note_off_c, 1, 36, 0
1, 9393720, Note_on_c, 1, 39, 40
1, 9393840, Note_off_c, 1, 39, 0
1, 9393840, Note_on_c, 1, 41, 40
1, 9394080, Note_off_c, 1, 41, 0
1, 9394320, Note_on_c, 1, 41, 40
1, 9394560, Note_off_c, 1, 41, 0
1, 9394800, Note_on_c, 1, 36, 40
1, 9395040, Note_off_c, 1, 36, 0
1, 9395280, Note_on_c, 1, 41, 40
1, 9395520, Note_off_c, 1, 41, 0
1, 9395760, Note_on_c, 1, 36, 40
1, 9396480, Note_off_c, 1, 36, 0
1, 9396600, Note_on_c, 1, 36, 40
1, 9396720, Note_off_c, 1, 36, 0
1, 9396720, Note_on_c, 1, 36, 40
1, 9397200, Note_off_c, 1, 36, 0
1, 9397200, Note_on_c, 1, 36, 40
1, 9397680, Note_off_c, 1, 36, 0
1, 9397680, Note_on_c, 1, 41, 40
1, 9398400, Note_off_c, 1, 41, 0
1, 9398520, Note_on_c, 1, 41, 40
1, 9398640, Note_off_c, 1, 41, 0
1, 9398640, Note_on_c, 1, 36, 40
1, 9399120, Note_off_c, 1, 36, 0
1, 9399120, Note_on_c, 1, 36, 40
1, 9399600, Note_off_c, 1, 36, 0
1, 9399600, Note_on_c, 1, 36, 40
1, 9400320, Note_off_c, 1, 36, 0
1, 9400440, Note_on_c, 1, 36, 40
1, 9400560, Note_off_c, 1, 36, 0
1, 9400560, Note_on_c, 1, 43, 40
1, 9401040, Note_off_c, 1, 43, 0
1, 9401040, Note_on_c, 1, 46, 40
1, 9401520, Note_off_c, 1, 46, 0
1, 9401520, Note_on_c, 1, 48, 40
1, 9402240, Note_off_c, 1, 48, 0
1, 9402360, Note_on_c, 1, 48, 40
1, 9402480, Note_off_c, 1, 48, 0
1, 9402480, Note_on_c, 1, 43, 40
1, 9402960, Note_off_c, 1, 43, 0
1, 9402960, Note_on_c, 1, 48, 40
1, 9403440, Note_off_c, 1, 48, 0
1, 9403440, Note_on_c, 1, 40, 40
1, 9403920, Note_off_c, 1, 40, 0
1, 9403920, Note_on_c, 1, 40, 40
1, 9404400, Note_off_c, 1, 40, 0
1, 9404400, Note_on_c, 1, 35, 40
1, 9404880, Note_off_c, 1, 35, 0
1, 9404880, Note_on_c, 1, 40, 40
1, 9405360, Note_off_c, 1, 40, 0
1, 9405360, Note_on_c, 1, 45, 40
1, 9405840, Note_off_c, 1, 45, 0
1, 9405840, Note_on_c, 1, 45, 40
1, 9406320, Note_off_c, 1, 45, 0
1, 9406320, Note_on_c, 1, 40, 40
1, 9406800, Note_off_c, 1, 40, 0
1, 9406800, Note_on_c, 1, 45, 40
1, 9407280, Note_off_c, 1, 45, 0
1, 9407280, Note_on_c, 1, 40, 40
1, 9407760, Note_off_c, 1, 40, 0
1, 9407760, Note_on_c, 1, 40, 40
1, 9408240, Note_off_c, 1, 40, 0
1, 9408240, Note_on_c, 1, 35, 40
1, 9408720, Note_off_c, 1, 35, 0
1, 9408720, Note_on_c, 1, 40, 40
1, 9409200, Note_off_c, 1, 40, 0
1, 9409200, Note_on_c, 1, 41, 40
1, 9409440, Note_off_c, 1, 41, 0
1, 9409680, Note_on_c, 1, 41, 40
1, 9409920, Note_off_c, 1, 41, 0
1, 9410160, Note_on_c, 1, 43, 40
1, 9410400, Note_off_c, 1, 43, 0
1, 9410640, Note_on_c, 1, 43, 40
1, 9410880, Note_off_c, 1, 43, 0
1, 9411120, Note_on_c, 1, 36, 40
1, 9411840, Note_off_c, 1, 36, 0
1, 9411960, Note_on_c, 1, 36, 40
1, 9412080, Note_off_c, 1, 36, 0
1, 9412080, Note_on_c, 1, 43, 40
1, 9412560, Note_off_c, 1, 43, 0
1, 9412560, Note_on_c, 1, 36, 40
1, 9413040, Note_off_c, 1, 36, 0
1, 9413040, Note_on_c, 1, 41, 40
1, 9413520, Note_off_c, 1, 41, 0
1, 9413520, Note_on_c, 1, 41, 40
1, 9414000, Note_off_c, 1, 41, 0
1, 9414000, Note_on_c, 1, 36, 40
1, 9414960, Note_off_c, 1, 36, 0
1, 9414960, Note_on_c, 1, 36, 40
1, 9415680, Note_off_c, 1, 36, 0
1, 9415800, Note_on_c, 1, 36, 40
1, 9415920, Note_off_c, 1, 36, 0
1, 9415920, Note_on_c, 1, 43, 40
1, 9416400, Note_off_c, 1, 43, 0
1, 9416400, Note_on_c, 1, 41, 40
1, 9416640, Note_off_c, 1, 41, 0
1, 9416760, Note_on_c, 1, 39, 40
1, 9416880, Note_off_c, 1, 39, 0
1, 9416880, Note_on_c, 1, 36, 40
1, 9417600, Note_off_c, 1, 36, 0
1, 9417720, Note_on_c, 1, 36, 40
1, 9417840, Note_off_c, 1, 36, 0
1, 9417840, Note_on_c, 1, 43, 40
1, 9418320, Note_off_c, 1, 43, 0
1, 9418320, Note_on_c, 1, 41, 40
1, 9418560, Note_off_c, 1, 41, 0
1, 9418680, Note_on_c, 1, 39, 40
1, 9418800, Note_off_c, 1, 39, 0
1, 9418800, Note_on_c, 1, 36, 40
1, 9419520, Note_off_c, 1, 36, 0
1, 9419640, Note_on_c, 1, 36, 40
1, 9419760, Note_off_c, 1, 36, 0
1, 9419760, Note_on_c, 1, 43, 40
1, 9420240, Note_off_c, 1, 43, 0
1, 9420240, Note_on_c, 1, 36, 40
1, 9420720, Note_off_c, 1, 36, 0
1, 9420720, Note_on_c, 1, 41, 40
1, 9421200, Note_off_c, 1, 41, 0
1, 9421200, Note_on_c, 1, 41, 40
1, 9421680, Note_off_c, 1, 41, 0
1, 9421680, Note_on_c, 1, 36, 40
1, 9422640, Note_off_c, 1, 36, 0
1, 9422640, Note_on_c, 1, 36, 40
1, 9423360, Note_off_c, 1, 36, 0
1, 9423480, Note_on_c, 1, 36, 40
1, 9423600, Note_off_c, 1, 36, 0
1, 9423600, Note_on_c, 1, 43, 40
1, 9424080, Note_off_c, 1, 43, 0
1, 9424080, Note_on_c, 1, 41, 40
1, 9424320, Note_off_c, 1, 41, 0
1, 9424440, Note_on_c, 1, 39, 40
1, 9424560, Note_off_c, 1, 39, 0
1, 9424560, Note_on_c, 1, 36, 40
1, 9425280, Note_off_c, 1, 36, 0
1, 9425400, Note_on_c, 1, 36, 40
1, 9425520, Note_off_c, 1, 36, 0
1, 9425520, Note_on_c, 1, 43, 40
1, 9426000, Note_off_c, 1, 43, 0
1, 9426000, Note_on_c, 1, 41, 40
1, 9426240, Note_off_c, 1, 41, 0
1, 9426360, Note_on_c, 1, 39, 40
1, 9426480, Note_off_c, 1, 39, 0
1, 9426480, Note_on_c, 1, 41, 40
1, 9426720, Note_off_c, 1, 41, 0
1, 9426960, Note_on_c, 1, 41, 40
1, 9427200, Note_off_c, 1, 41, 0
1, 9427440, Note_on_c, 1, 36, 40
1, 9427680, Note_off_c, 1, 36, 0
1, 9427920, Note_on_c, 1, 36, 40
1, 9428160, Note_off_c, 1, 36, 0
1, 9428280, Note_on_c, 1, 39, 40
1, 9428400, Note_off_c, 1, 39, 0
1, 9428400, Note_on_c, 1, 41, 40
1, 9428640, Note_off_c, 1, 41, 0
1, 9428880, Note_on_c, 1, 41, 40
1, 9429120, Note_off_c, 1, 41, 0
1, 9429360, Note_on_c, 1, 36, 40
1, 9429600, Note_off_c, 1, 36, 0
1, 9429840, Note_on_c, 1, 36, 40
1, 9430080, Note_off_c, 1, 36, 0
1, 9430200, Note_on_c, 1, 39, 40
1, 9430320, Note_off_c, 1, 39, 0
1, 9430320, Note_on_c, 1, 41, 40
1, 9430560, Note_off_c, 1, 41, 0
1, 9430800, Note_on_c, 1, 41, 40
1, 9431040, Note_off_c, 1, 41, 0
1, 9431280, Note_on_c, 1, 36, 40
1, 9431520, Note_off_c, 1, 36, 0
1, 9431760, Note_on_c, 1, 36, 40
1, 9432000, Note_off_c, 1, 36, 0
1, 9432120, Note_on_c, 1, 39, 40
1, 9432240, Note_off_c, 1, 39, 0
1, 9432240, Note_on_c, 1, 41, 40
1, 9432480, Note_off_c, 1, 41, 0
1, 9432720, Note_on_c, 1, 41, 40
1, 9432960, Note_off_c, 1, 41, 0
1, 9433200, Note_on_c, 1, 36, 40
1, 9433440, Note_off_c, 1, 36, 0
1, 9433680, Note_on_c, 1, 41, 40
1, 9433920, Note_off_c, 1, 41, 0
1, 9434160, Note_on_c, 1, 36, 40
1, 9434880, Note_off_c, 1, 36, 0
1, 9435000, Note_on_c, 1, 36, 40
1, 9435120, Note_off_c, 1, 36, 0
1, 9435120, Note_on_c, 1, 43, 40
1, 9435600, Note_off_c, 1, 43, 0
1, 9435600, Note_on_c, 1, 36, 40
1, 9436080, Note_off_c, 1, 36, 0
1, 9436080, Note_on_c, 1, 41, 40
1, 9436560, Note_off_c, 1, 41, 0
1, 9436560, Note_on_c, 1, 41, 40
1, 9437040, Note_off_c, 1, 41, 0
1, 9437040, Note_on_c, 1, 36, 40
1, 9438000, Note_off_c, 1, 36, 0
1, 9438000, Note_on_c, 1, 36, 40
1, 9438720, Note_off_c, 1, 36, 0
1, 9438840, Note_on_c, 1, 36, 40
1, 9438960, Note_off_c, 1, 36, 0
1, 9438960, Note_on_c, 1, 43, 40
1, 9439440, Note_off_c, 1, 43, 0
1, 9439440, Note_on_c, 1, 46, 40
1, 9439680, Note_off_c, 1, 46, 0
1, 9439800, Note_on_c, 1, 48, 40
1, 9439920, Note_off_c, 1, 48, 0
1, 9439920, Note_on_c, 1, 36, 40
1, 9440640, Note_off_c, 1, 36, 0
1, 9440760, Note_on_c, 1, 36, 40
1, 9440880, Note_off_c, 1, 36, 0
1, 9440880, Note_on_c, 1, 43, 40
1, 9441120, Note_off_c, 1, 43, 0
1, 9441360, Note_on_c, 1, 48, 40
1, 9441600, Note_off_c, 1, 48, 0
1, 9441840, Note_on_c, 1, 43, 40
1, 9442560, Note_off_c, 1, 43, 0
1, 9442680, Note_on_c, 1, 43, 40
1, 9442800, Note_off_c, 1, 43, 0
1, 9442800, Note_on_c, 1, 38, 40
1, 9443520, Note_off_c, 1, 38, 0
1, 9443640, Note_on_c, 1, 41, 40
1, 9443760, Note_off_c, 1, 41, 0
1, 9443760, Note_on_c, 1, 43, 40
1, 9444480, Note_off_c, 1, 43, 0
1, 9444600, Note_on_c, 1, 43, 40
1, 9444720, Note_off_c, 1, 43, 0
1, 9444720, Note_on_c, 1, 38, 40
1, 9445200, Note_off_c, 1, 38, 0
1, 9445200, Note_on_c, 1, 43, 40
1, 9445680, Note_off_c, 1, 43, 0
1, 9445680, Note_on_c, 1, 41, 40
1, 9445920, Note_off_c, 1, 41, 0
1, 9446160, Note_on_c, 1, 41, 40
1, 9446400, Note_off_c, 1, 41, 0
1, 9446640, Note_on_c, 1, 36, 40
1, 9446880, Note_off_c, 1, 36, 0
1, 9447120, Note_on_c, 1, 36, 40
1, 9447360, Note_off_c, 1, 36, 0
1, 9447480, Note_on_c, 1, 39, 40
1, 9447600, Note_off_c, 1, 39, 0
1, 9447600, Note_on_c, 1, 41, 40
1, 9447840, Note_off_c, 1, 41, 0
1, 9448080, Note_on_c, 1, 41, 40
1, 9448320, Note_off_c, 1, 41, 0
1, 9448560, Note_on_c, 1, 36, 40
1, 9448800, Note_off_c, 1, 36, 0
1, 9449040, Note_on_c, 1, 41, 40
1, 9449280, Note_off_c, 1, 41, 0
1, 9449520, Note_on_c, 1, 36, 40
1, 9450240, Note_off_c, 1, 36, 0
1, 9450360, Note_on_c, 1, 36, 40
1, 9450480, Note_off_c, 1, 36, 0
1, 9450480, Note_on_c, 1, 36, 40
1, 9450960, Note_off_c, 1, 36, 0
1, 9450960, Note_on_c, 1, 36, 40
1, 9451440, Note_off_c, 1, 36, 0
1, 9451440, Note_on_c, 1, 41, 40
1, 9452160, Note_off_c, 1, 41, 0
1, 9452280, Note_on_c, 1, 41, 40
1, 9452400, Note_off_c, 1, 41, 0
1, 9452400, Note_on_c, 1, 36, 40
1, 9452880, Note_off_c, 1, 36, 0
1, 9452880, Note_on_c, 1, 36, 40
1, 9453360, Note_off_c, 1, 36, 0
1, 9453360, Note_on_c, 1, 36, 40
1, 9453840, Note_off_c, 1, 36, 0
1, 9453840, Note_on_c, 1, 36, 40
1, 9454320, Note_off_c, 1, 36, 0
1, 9454320, Note_on_c, 1, 36, 40
1, 9454800, Note_off_c, 1, 36, 0
1, 9454800, Note_on_c, 1, 36, 40
1, 9455280, Note_off_c, 1, 36, 0
1, 9455280, Note_on_c, 1, 43, 40
1, 9455760, Note_off_c, 1, 43, 0
1, 9455760, Note_on_c, 1, 43, 40
1, 9456240, Note_off_c, 1, 43, 0
1, 9456240, Note_on_c, 1, 43, 40
1, 9456720, Note_off_c, 1, 43, 0
1, 9456720, Note_on_c, 1, 43, 40
1, 9457200, Note_off_c, 1, 43, 0
1, 9457200, Note_on_c, 1, 48, 40
1, 9457680, Note_off_c, 1, 48, 0
1, 9457680, Note_on_c, 1, 48, 40
1, 9458160, Note_off_c, 1, 48, 0
1, 9458160, Note_on_c, 1, 41, 40
1, 9458640, Note_off_c, 1, 41, 0
1, 9458640, Note_on_c, 1, 43, 40
1, 9459120, Note_off_c, 1, 43, 0
1, 9459120, Note_on_c, 1, 36, 40
1, 9459600, Note_off_c, 1, 36, 0
1, 9459600, Note_on_c, 1, 48, 40
1, 9460080, Note_off_c, 1, 48, 0
1, 9460080, Note_on_c, 1, 48, 40
1, 9460560, Note_off_c, 1, 48, 0
1, 9460560, Note_on_c, 1, 43, 40
1, 9461040, Note_off_c, 1, 43, 0
1, 9461040, Note_on_c, 1, 36, 40
1, 9461520, Note_off_c, 1, 36, 0
1, 9461520, Note_on_c, 1, 48, 40
1, 9462000, Note_off_c, 1, 48, 0
1, 9462000, Note_on_c, 1, 41, 40
1, 9462480, Note_off_c, 1, 41, 0
1, 9462480, Note_on_c, 1, 43, 40
1, 9462960, Note_off_c, 1, 43, 0
1, 9462960, Note_on_c, 1, 36, 40
1, 9463440, Note_off_c, 1, 36, 0
1, 9463440, Note_on_c, 1, 48, 40
1, 9463920, Note_off_c, 1, 48, 0
1, 9463920, Note_on_c, 1, 36, 40
1, 9464400, Note_off_c, 1, 36, 0
1, 9464400, Note_on_c, 1, 41, 40
1, 9464880, Note_off_c, 1, 41, 0
1, 9464880, Note_on_c, 1, 41, 40
1, 9465360, Note_off_c, 1, 41, 0
1, 9465360, Note_on_c, 1, 41, 40
1, 9465840, Note_off_c, 1, 41, 0
1, 9465840, Note_on_c, 1, 36, 40
1, 9466320, Note_off_c, 1, 36, 0
1, 9466320, Note_on_c, 1, 39, 40
1, 9466800, Note_off_c, 1, 39, 0
1, 9466800, Note_on_c, 1, 41, 40
1, 9467280, Note_off_c, 1, 41, 0
1, 9467280, Note_on_c, 1, 41, 40
1, 9467760, Note_off_c, 1, 41, 0
1, 9467760, Note_on_c, 1, 36, 40
1, 9468240, Note_off_c, 1, 36, 0
1, 9468240, Note_on_c, 1, 41, 40
1, 9468480, Note_off_c, 1, 41, 0
1, 9468600, Note_on_c, 1, 44, 40
1, 9468720, Note_off_c, 1, 44, 0
1, 9468720, Note_on_c, 1, 48, 40
1, 9469200, Note_off_c, 1, 48, 0
1, 9469200, Note_on_c, 1, 48, 40
1, 9469680, Note_off_c, 1, 48, 0
1, 9469680, Note_on_c, 1, 43, 40
1, 9470160, Note_off_c, 1, 43, 0
1, 9470160, Note_on_c, 1, 46, 40
1, 9470640, Note_off_c, 1, 46, 0
1, 9470640, Note_on_c, 1, 48, 40
1, 9471120, Note_off_c, 1, 48, 0
1, 9471120, Note_on_c, 1, 48, 40
1, 9471600, Note_off_c, 1, 48, 0
1, 9471600, Note_on_c, 1, 43, 40
1, 9472080, Note_off_c, 1, 43, 0
1, 9472080, Note_on_c, 1, 43, 40
1, 9472560, Note_off_c, 1, 43, 0
1, 9472560, Note_on_c, 1, 43, 40
1, 9473040, Note_off_c, 1, 43, 0
1, 9473040, Note_on_c, 1, 43, 40
1, 9473520, Note_off_c, 1, 43, 0
1, 9473520, Note_on_c, 1, 38, 40
1, 9474000, Note_off_c, 1, 38, 0
1, 9474000, Note_on_c, 1, 43, 40
1, 9474480, Note_off_c, 1, 43, 0
1, 9474480, Note_on_c, 1, 41, 40
1, 9474960, Note_off_c, 1, 41, 0
1, 9474960, Note_on_c, 1, 45, 40
1, 9475440, Note_off_c, 1, 45, 0
1, 9475440, Note_on_c, 1, 46, 40
1, 9475920, Note_off_c, 1, 46, 0
1, 9475920, Note_on_c, 1, 47, 40
1, 9476160, Note_off_c, 1, 47, 0
1, 9476280, Note_on_c, 1, 48, 40
1, 9476400, Note_off_c, 1, 48, 0
1, 9476400, Note_on_c, 1, 36, 40
1, 9477120, Note_off_c, 1, 36, 0
1, 9477240, Note_on_c, 1, 36, 40
1, 9477360, Note_off_c, 1, 36, 0
1, 9477360, Note_on_c, 1, 43, 40
1, 9477840, Note_off_c, 1, 43, 0
1, 9477840, Note_on_c, 1, 46, 40
1, 9478320, Note_off_c, 1, 46, 0
1, 9478320, Note_on_c, 1, 48, 40
1, 9478800, Note_off_c, 1, 48, 0
1, 9478800, Note_on_c, 1, 48, 40
1, 9479280, Note_off_c, 1, 48, 0
1, 9479280, Note_on_c, 1, 43, 40
1, 9479760, Note_off_c, 1, 43, 0
1, 9479760, Note_on_c, 1, 43, 40
1, 9480240, Note_off_c, 1, 43, 0
1, 9480240, Note_on_c, 1, 40, 40
1, 9480720, Note_off_c, 1, 40, 0
1, 9480720, Note_on_c, 1, 40, 40
1, 9481200, Note_off_c, 1, 40, 0
1, 9481200, Note_on_c, 1, 35, 40
1, 9481680, Note_off_c, 1, 35, 0
1, 9481680, Note_on_c, 1, 40, 40
1, 9482160, Note_off_c, 1, 40, 0
1, 9482160, Note_on_c, 1, 45, 40
1, 9482640, Note_off_c, 1, 45, 0
1, 9482640, Note_on_c, 1, 45, 40
1, 9483120, Note_off_c, 1, 45, 0
1, 9483120, Note_on_c, 1, 40, 40
1, 9483600, Note_off_c, 1, 40, 0
1, 9483600, Note_on_c, 1, 45, 40
1, 9484080, Note_off_c, 1, 45, 0
1, 9484080, Note_on_c, 1, 40, 40
1, 9484560, Note_off_c, 1, 40, 0
1, 9484560, Note_on_c, 1, 40, 40
1, 9485040, Note_off_c, 1, 40, 0
1, 9485040, Note_on_c, 1, 35, 40
1, 9485520, Note_off_c, 1, 35, 0
1, 9485520, Note_on_c, 1, 40, 40
1, 9486000, Note_off_c, 1, 40, 0
1, 9486000, Note_on_c, 1, 41, 40
1, 9486240, Note_off_c, 1, 41, 0
1, 9486480, Note_on_c, 1, 41, 40
1, 9486720, Note_off_c, 1, 41, 0
1, 9486960, Note_on_c, 1, 43, 40
1, 9487200, Note_off_c, 1, 43, 0
1, 9487440, Note_on_c, 1, 43, 40
1, 9487680, Note_off_c, 1, 43, 0
1, 9487920, Note_on_c, 1, 36, 40
1, 9488640, Note_off_c, 1, 36, 0
1, 9488760, Note_on_c, 1, 36, 40
1, 9488880, Note_off_c, 1, 36, 0
1, 9488880, Note_on_c, 1, 43, 40
1, 9489360, Note_off_c, 1, 43, 0
1, 9489360, Note_on_c, 1, 36, 40
1, 9489840, Note_off_c, 1, 36, 0
1, 9489840, Note_on_c, 1, 41, 40
1, 9490320, Note_off_c, 1, 41, 0
1, 9490320, Note_on_c, 1, 41, 40
1, 9490800, Note_off_c, 1, 41, 0
1, 9490800, Note_on_c, 1, 36, 40
1, 9491760, Note_off_c, 1, 36, 0
1, 9491760, Note_on_c, 1, 36, 40
1, 9492480, Note_off_c, 1, 36, 0
1, 9492600, Note_on_c, 1, 36, 40
1, 9492720, Note_off_c, 1, 36, 0
1, 9492720, Note_on_c, 1, 43, 40
1, 9493200, Note_off_c, 1, 43, 0
1, 9493200, Note_on_c, 1, 41, 40
1, 9493440, Note_off_c, 1, 41, 0
1, 9493560, Note_on_c, 1, 39, 40
1, 9493680, Note_off_c, 1, 39, 0
1, 9493680, Note_on_c, 1, 36, 40
1, 9494400, Note_off_c, 1, 36, 0
1, 9494520, Note_on_c, 1, 36, 40
1, 9494640, Note_off_c, 1, 36, 0
1, 9494640, Note_on_c, 1, 43, 40
1, 9495120, Note_off_c, 1, 43, 0
1, 9495120, Note_on_c, 1, 41, 40
1, 9495360, Note_off_c, 1, 41, 0
1, 9495480, Note_on_c, 1, 39, 40
1, 9495600, Note_off_c, 1, 39, 0
1, 9495600, Note_on_c, 1, 36, 40
1, 9496320, Note_off_c, 1, 36, 0
1, 9496440, Note_on_c, 1, 36, 40
1, 9496560, Note_off_c, 1, 36, 0
1, 9496560, Note_on_c, 1, 43, 40
1, 9497040, Note_off_c, 1, 43, 0
1, 9497040, Note_on_c, 1, 36, 40
1, 9497520, Note_off_c, 1, 36, 0
1, 9497520, Note_on_c, 1, 41, 40
1, 9498000, Note_off_c, 1, 41, 0
1, 9498000, Note_on_c, 1, 41, 40
1, 9498480, Note_off_c, 1, 41, 0
1, 9498480, Note_on_c, 1, 36, 40
1, 9499440, Note_off_c, 1, 36, 0
1, 9499440, Note_on_c, 1, 36, 40
1, 9500160, Note_off_c, 1, 36, 0
1, 9500280, Note_on_c, 1, 36, 40
1, 9500400, Note_off_c, 1, 36, 0
1, 9500400, Note_on_c, 1, 43, 40
1, 9500880, Note_off_c, 1, 43, 0
1, 9500880, Note_on_c, 1, 41, 40
1, 9501120, Note_off_c, 1, 41, 0
1, 9501240, Note_on_c, 1, 39, 40
1, 9501360, Note_off_c, 1, 39, 0
1, 9501360, Note_on_c, 1, 36, 40
1, 9502080, Note_off_c, 1, 36, 0
1, 9502200, Note_on_c, 1, 36, 40
1, 9502320, Note_off_c, 1, 36, 0
1, 9502320, Note_on_c, 1, 43, 40
1, 9502800, Note_off_c, 1, 43, 0
1, 9502800, Note_on_c, 1, 41, 40
1, 9503040, Note_off_c, 1, 41, 0
1, 9503160, Note_on_c, 1, 39, 40
1, 9503280, Note_off_c, 1, 39, 0
1, 9503280, Note_on_c, 1, 41, 40
1, 9503520, Note_off_c, 1, 41, 0
1, 9503760, Note_on_c, 1, 41, 40
1, 9504000, Note_off_c, 1, 41, 0
1, 9504240, Note_on_c, 1, 36, 40
1, 9504480, Note_off_c, 1, 36, 0
1, 9504720, Note_on_c, 1, 36, 40
1, 9504960, Note_off_c, 1, 36, 0
1, 9505080, Note_on_c, 1, 39, 40
1, 9505200, Note_off_c, 1, 39, 0
1, 9505200, Note_on_c, 1, 41, 40
1, 9505440, Note_off_c, 1, 41, 0
1, 9505680, Note_on_c, 1, 41, 40
1, 9505920, Note_off_c, 1, 41, 0
1, 9506160, Note_on_c, 1, 36, 40
1, 9506400, Note_off_c, 1, 36, 0
1, 9506640, Note_on_c, 1, 36, 40
1, 9506880, Note_off_c, 1, 36, 0
1, 9507000, Note_on_c, 1, 39, 40
1, 9507120, Note_off_c, 1, 39, 0
1, 9507120, Note_on_c, 1, 41, 40
1, 9507360, Note_off_c, 1, 41, 0
1, 9507600, Note_on_c, 1, 41, 40
1, 9507840, Note_off_c, 1, 41, 0
1, 9508080, Note_on_c, 1, 36, 40
1, 9508320, Note_off_c, 1, 36, 0
1, 9508560, Note_on_c, 1, 36, 40
1, 9508800, Note_off_c, 1, 36, 0
1, 9508920, Note_on_c, 1, 39, 40
1, 9509040, Note_off_c, 1, 39, 0
1, 9509040, Note_on_c, 1, 41, 40
1, 9509280, Note_off_c, 1, 41, 0
1, 9509520, Note_on_c, 1, 41, 40
1, 9509760, Note_off_c, 1, 41, 0
1, 9510000, Note_on_c, 1, 36, 40
1, 9510240, Note_off_c, 1, 36, 0
1, 9510480, Note_on_c, 1, 41, 40
1, 9510720, Note_off_c, 1, 41, 0
1, 9510960, Note_on_c, 1, 36, 40
1, 9511680, Note_off_c, 1, 36, 0
1, 9511800, Note_on_c, 1, 36, 40
1, 9511920, Note_off_c, 1, 36, 0
1, 9511920, Note_on_c, 1, 43, 40
1, 9512400, Note_off_c, 1, 43, 0
1, 9512400, Note_on_c, 1, 36, 40
1, 9512880, Note_off_c, 1, 36, 0
1, 9512880, Note_on_c, 1, 41, 40
1, 9513360, Note_off_c, 1, 41, 0
1, 9513360, Note_on_c, 1, 41, 40
1, 9513840, Note_off_c, 1, 41, 0
1, 9513840, Note_on_c, 1, 36, 40
1, 9514800, Note_off_c, 1, 36, 0
1, 9514800, Note_on_c, 1, 36, 40
1, 9515520, Note_off_c, 1, 36, 0
1, 9515640, Note_on_c, 1, 36, 40
1, 9515760, Note_off_c, 1, 36, 0
1, 9515760, Note_on_c, 1, 43, 40
1, 9516240, Note_off_c, 1, 43, 0
1, 9516240, Note_on_c, 1, 46, 40
1, 9516480, Note_off_c, 1, 46, 0
1, 9516600, Note_on_c, 1, 48, 40
1, 9516720, Note_off_c, 1, 48, 0
1, 9516720, Note_on_c, 1, 36, 40
1, 9517440, Note_off_c, 1, 36, 0
1, 9517560, Note_on_c, 1, 36, 40
1, 9517680, Note_off_c, 1, 36, 0
1, 9517680, Note_on_c, 1, 43, 40
1, 9517920, Note_off_c, 1, 43, 0
1, 9518160, Note_on_c, 1, 48, 40
1, 9518400, Note_off_c, 1, 48, 0
1, 9518640, Note_on_c, 1, 43, 40
1, 9519360, Note_off_c, 1, 43, 0
1, 9519480, Note_on_c, 1, 43, 40
1, 9519600, Note_off_c, 1, 43, 0
1, 9519600, Note_on_c, 1, 38, 40
1, 9520320, Note_off_c, 1, 38, 0
1, 9520440, Note_on_c, 1, 41, 40
1, 9520560, Note_off_c, 1, 41, 0
1, 9520560, Note_on_c, 1, 43, 40
1, 9521280, Note_off_c, 1, 43, 0
1, 9521400, Note_on_c, 1, 43, 40
1, 9521520, Note_off_c, 1, 43, 0
1, 9521520, Note_on_c, 1, 38, 40
1, 9522000, Note_off_c, 1, 38, 0
1, 9522000, Note_on_c, 1, 43, 40
1, 9522480, Note_off_c, 1, 43, 0
1, 9522480, Note_on_c, 1, 41, 40
1, 9522720, Note_off_c, 1, 41, 0
1, 9522960, Note_on_c, 1, 41, 40
1, 9523200, Note_off_c, 1, 41, 0
1, 9523440, Note_on_c, 1, 36, 40
1, 9523680, Note_off_c, 1, 36, 0
1, 9523920, Note_on_c, 1, 36, 40
1, 9524160, Note_off_c, 1, 36, 0
1, 9524280, Note_on_c, 1, 39, 40
1, 9524400, Note_off_c, 1, 39, 0
1, 9524400, Note_on_c, 1, 41, 40
1, 9524640, Note_off_c, 1, 41, 0
1, 9524880, Note_on_c, 1, 41, 40
1, 9525120, Note_off_c, 1, 41, 0
1, 9525360, Note_on_c, 1, 36, 40
1, 9525600, Note_off_c, 1, 36, 0
1, 9525840, Note_on_c, 1, 41, 40
1, 9526080, Note_off_c, 1, 41, 0
1, 9526320, Note_on_c, 1, 36, 40
1, 9527040, Note_off_c, 1, 36, 0
1, 9527160, Note_on_c, 1, 36, 40
1, 9527280, Note_off_c, 1, 36, 0
1, 9527280, Note_on_c, 1, 36, 40
1, 9527760, Note_off_c, 1, 36, 0
1, 9527760, Note_on_c, 1, 36, 40
1, 9528240, Note_off_c, 1, 36, 0
1, 9528240, Note_on_c, 1, 41, 40
1, 9528960, Note_off_c, 1, 41, 0
1, 9529080, Note_on_c, 1, 41, 40
1, 9529200, Note_off_c, 1, 41, 0
1, 9529200, Note_on_c, 1, 36, 40
1, 9529680, Note_off_c, 1, 36, 0
1, 9529680, Note_on_c, 1, 36, 40
1, 9530160, Note_off_c, 1, 36, 0
1, 9530160, Note_on_c, 1, 36, 40
1, 9530640, Note_off_c, 1, 36, 0
1, 9530640, Note_on_c, 1, 48, 40
1, 9531120, Note_off_c, 1, 48, 0
1, 9531120, Note_on_c, 1, 43, 40
1, 9531600, Note_off_c, 1, 43, 0
1, 9531600, Note_on_c, 1, 46, 40
1, 9532080, Note_off_c, 1, 46, 0
1, 9532080, Note_on_c, 1, 48, 40
1, 9532800, Note_off_c, 1, 48, 0
1, 9532920, Note_on_c, 1, 48, 40
1, 9533040, Note_off_c, 1, 48, 0
1, 9533040, Note_on_c, 1, 43, 40
1, 9534000, Note_off_c, 1, 43, 0
1, 9534000, Note_on_c, 1, 36, 40
1, 9534480, Note_off_c, 1, 36, 0
1, 9534480, Note_on_c, 1, 48, 40
1, 9534960, Note_off_c, 1, 48, 0
1, 9534960, Note_on_c, 1, 43, 40
1, 9535440, Note_off_c, 1, 43, 0
1, 9535440, Note_on_c, 1, 46, 40
1, 9535920, Note_off_c, 1, 46, 0
1, 9535920, Note_on_c, 1, 48, 40
1, 9536640, Note_off_c, 1, 48, 0
1, 9536760, Note_on_c, 1, 48, 40
1, 9536880, Note_off_c, 1, 48, 0
1, 9536880, Note_on_c, 1, 43, 40
1, 9537360, Note_off_c, 1, 43, 0
1, 9537360, Note_on_c, 1, 46, 40
1, 9537840, Note_off_c, 1, 46, 0
1, 9537840, Note_on_c, 1, 36, 40
1, 9538320, Note_off_c, 1, 36, 0
1, 9538320, Note_on_c, 1, 48, 40
1, 9538800, Note_off_c, 1, 48, 0
1, 9538800, Note_on_c, 1, 43, 40
1, 9539280, Note_off_c, 1, 43, 0
1, 9539280, Note_on_c, 1, 46, 40
1, 9539760, Note_off_c, 1, 46, 0
1, 9539760, Note_on_c, 1, 48, 40
1, 9540480, Note_off_c, 1, 48, 0
1, 9540600, Note_on_c, 1, 48, 40
1, 9540720, Note_off_c, 1, 48, 0
1, 9540720, Note_on_c, 1, 43, 40
1, 9541200, Note_off_c, 1, 43, 0
1, 9541200, Note_on_c, 1, 48, 40
1, 9541680, Note_off_c, 1, 48, 0
1, 9541680, Note_on_c, 1, 41, 40
1, 9542160, Note_off_c, 1, 41, 0
1, 9542160, Note_on_c, 1, 41, 40
1, 9542640, Note_off_c, 1, 41, 0
1, 9542640, Note_on_c, 1, 36, 40
1, 9543120, Note_off_c, 1, 36, 0
1, 9543120, Note_on_c, 1, 39, 40
1, 9543600, Note_off_c, 1, 39, 0
1, 9543600, Note_on_c, 1, 41, 40
1, 9544320, Note_off_c, 1, 41, 0
1, 9544440, Note_on_c, 1, 41, 40
1, 9544560, Note_off_c, 1, 41, 0
1, 9544560, Note_on_c, 1, 36, 40
1, 9545040, Note_off_c, 1, 36, 0
1, 9545040, Note_on_c, 1, 41, 40
1, 9545280, Note_off_c, 1, 41, 0
1, 9545400, Note_on_c, 1, 43, 40
1, 9545520, Note_off_c, 1, 43, 0
1, 9545520, Note_on_c, 1, 36, 40
1, 9546000, Note_off_c, 1, 36, 0
1, 9546000, Note_on_c, 1, 48, 40
1, 9546480, Note_off_c, 1, 48, 0
1, 9546480, Note_on_c, 1, 43, 40
1, 9546960, Note_off_c, 1, 43, 0
1, 9546960, Note_on_c, 1, 46, 40
1, 9547440, Note_off_c, 1, 46, 0
1, 9547440, Note_on_c, 1, 48, 40
1, 9548160, Note_off_c, 1, 48, 0
1, 9548280, Note_on_c, 1, 48, 40
1, 9548400, Note_off_c, 1, 48, 0
1, 9548400, Note_on_c, 1, 43, 40
1, 9548880, Note_off_c, 1, 43, 0
1, 9548880, Note_on_c, 1, 46, 40
1, 9549360, Note_off_c, 1, 46, 0
1, 9549360, Note_on_c, 1, 43, 40
1, 9550080, Note_off_c, 1, 43, 0
1, 9550200, Note_on_c, 1, 43, 40
1, 9550320, Note_off_c, 1, 43, 0
1, 9550320, Note_on_c, 1, 38, 40
1, 9550800, Note_off_c, 1, 38, 0
1, 9550800, Note_on_c, 1, 43, 40
1, 9551280, Note_off_c, 1, 43, 0
1, 9551280, Note_on_c, 1, 41, 40
1, 9551760, Note_off_c, 1, 41, 0
1, 9551760, Note_on_c, 1, 45, 40
1, 9552240, Note_off_c, 1, 45, 0
1, 9552240, Note_on_c, 1, 46, 40
1, 9552720, Note_off_c, 1, 46, 0
1, 9552720, Note_on_c, 1, 47, 40
1, 9552960, Note_off_c, 1, 47, 0
1, 9553080, Note_on_c, 1, 48, 40
1, 9553200, Note_off_c, 1, 48, 0
1, 9553200, Note_on_c, 1, 36, 40
1, 9553680, Note_off_c, 1, 36, 0
1, 9553680, Note_on_c, 1, 48, 40
1, 9554160, Note_off_c, 1, 48, 0
1, 9554160, Note_on_c, 1, 43, 40
1, 9554640, Note_off_c, 1, 43, 0
1, 9554640, Note_on_c, 1, 46, 40
1, 9555120, Note_off_c, 1, 46, 0
1, 9555120, Note_on_c, 1, 48, 40
1, 9555840, Note_off_c, 1, 48, 0
1, 9555960, Note_on_c, 1, 48, 40
1, 9556080, Note_off_c, 1, 48, 0
1, 9556080, Note_on_c, 1, 43, 40
1, 9557040, Note_off_c, 1, 43, 0
1, 9557040, Note_on_c, 1, 36, 40
1, 9557520, Note_off_c, 1, 36, 0
1, 9557520, Note_on_c, 1, 48, 40
1, 9558000, Note_off_c, 1, 48, 0
1, 9558000, Note_on_c, 1, 43, 40
1, 9558480, Note_off_c, 1, 43, 0
1, 9558480, Note_on_c, 1, 46, 40
1, 9558960, Note_off_c, 1, 46, 0
1, 9558960, Note_on_c, 1, 48, 40
1, 9559680, Note_off_c, 1, 48, 0
1, 9559800, Note_on_c, 1, 48, 40
1, 9559920, Note_off_c, 1, 48, 0
1, 9559920, Note_on_c, 1, 43, 40
1, 9560400, Note_off_c, 1, 43, 0
1, 9560400, Note_on_c, 1, 46, 40
1, 9560880, Note_off_c, 1, 46, 0
1, 9560880, Note_on_c, 1, 36, 40
1, 9561360, Note_off_c, 1, 36, 0
1, 9561360, Note_on_c, 1, 48, 40
1, 9561840, Note_off_c, 1, 48, 0
1, 9561840, Note_on_c, 1, 43, 40
1, 9562320, Note_off_c, 1, 43, 0
1, 9562320, Note_on_c, 1, 46, 40
1, 9562800, Note_off_c, 1, 46, 0
1, 9562800, Note_on_c, 1, 48, 40
1, 9563520, Note_off_c, 1, 48, 0
1, 9563640, Note_on_c, 1, 48, 40
1, 9563760, Note_off_c, 1, 48, 0
1, 9563760, Note_on_c, 1, 43, 40
1, 9564240, Note_off_c, 1, 43, 0
1, 9564240, Note_on_c, 1, 48, 40
1, 9564720, Note_off_c, 1, 48, 0
1, 9564720, Note_on_c, 1, 41, 40
1, 9565200, Note_off_c, 1, 41, 0
1, 9565200, Note_on_c, 1, 41, 40
1, 9565680, Note_off_c, 1, 41, 0
1, 9565680, Note_on_c, 1, 36, 40
1, 9566160, Note_off_c, 1, 36, 0
1, 9566160, Note_on_c, 1, 39, 40
1, 9566640, Note_off_c, 1, 39, 0
1, 9566640, Note_on_c, 1, 41, 40
1, 9567360, Note_off_c, 1, 41, 0
1, 9567480, Note_on_c, 1, 41, 40
1, 9567600, Note_off_c, 1, 41, 0
1, 9567600, Note_on_c, 1, 36, 40
1, 9568080, Note_off_c, 1, 36, 0
1, 9568080, Note_on_c, 1, 41, 40
1, 9568320, Note_off_c, 1, 41, 0
1, 9568440, Note_on_c, 1, 43, 40
1, 9568560, Note_off_c, 1, 43, 0
1, 9568560, Note_on_c, 1, 36, 40
1, 9569040, Note_off_c, 1, 36, 0
1, 9569040, Note_on_c, 1, 48, 40
1, 9569520, Note_off_c, 1, 48, 0
1, 9569520, Note_on_c, 1, 43, 40
1, 9570000, Note_off_c, 1, 43, 0
1, 9570000, Note_on_c, 1, 46, 40
1, 9570480, Note_off_c, 1, 46, 0
1, 9570480, Note_on_c, 1, 48, 40
1, 9571200, Note_off_c, 1, 48, 0
1, 9571320, Note_on_c, 1, 48, 40
1, 9571440, Note_off_c, 1, 48, 0
1, 9571440, Note_on_c, 1, 43, 40
1, 9571920, Note_off_c, 1, 43, 0
1, 9571920, Note_on_c, 1, 46, 40
1, 9572400, Note_off_c, 1, 46, 0
1, 9572400, Note_on_c, 1, 43, 40
1, 9573120, Note_off_c, 1, 43, 0
1, 9573240, Note_on_c, 1, 43, 40
1, 9573360, Note_off_c, 1, 43, 0
1, 9573360, Note_on_c, 1, 38, 40
1, 9573840, Note_off_c, 1, 38, 0
1, 9573840, Note_on_c, 1, 43, 40
1, 9574320, Note_off_c, 1, 43, 0
1, 9574320, Note_on_c, 1, 41, 40
1, 9574800, Note_off_c, 1, 41, 0
1, 9574800, Note_on_c, 1, 45, 40
1, 9575280, Note_off_c, 1, 45, 0
1, 9575280, Note_on_c, 1, 46, 40
1, 9575760, Note_off_c, 1, 46, 0
1, 9575760, Note_on_c, 1, 47, 40
1, 9576000, Note_off_c, 1, 47, 0
1, 9576120, Note_on_c, 1, 48, 40
1, 9576240, Note_off_c, 1, 48, 0
1, 9576240, Note_on_c, 1, 36, 40
1, 9576720, Note_off_c, 1, 36, 0
1, 9576720, Note_on_c, 1, 48, 40
1, 9577200, Note_off_c, 1, 48, 0
1, 9577200, Note_on_c, 1, 43, 40
1, 9577680, Note_off_c, 1, 43, 0
1, 9577680, Note_on_c, 1, 46, 40
1, 9578160, Note_off_c, 1, 46, 0
1, 9578160, Note_on_c, 1, 48, 40
1, 9578880, Note_off_c, 1, 48, 0
1, 9579000, Note_on_c, 1, 48, 40
1, 9579120, Note_off_c, 1, 48, 0
1, 9579120, Note_on_c, 1, 43, 40
1, 9580080, Note_off_c, 1, 43, 0
1, 9582000, Note_on_c, 1, 36, 40
1, 9582720, Note_off_c, 1, 36, 0
1, 9582720, Note_on_c, 1, 48, 40
1, 9582960, Note_off_c, 1, 48, 0
1, 9582960, Note_on_c, 1, 48, 40
1, 9583920, Note_off_c, 1, 48, 0
1, 9583920, Note_on_c, 1, 36, 40
1, 9584640, Note_off_c, 1, 36, 0
1, 9584640, Note_on_c, 1, 48, 40
1, 9584760, Note_off_c, 1, 48, 0
1, 9584760, Note_on_c, 1, 48, 40
1, 9584880, Note_off_c, 1, 48, 0
1, 9584880, Note_on_c, 1, 48, 40
1, 9585840, Note_off_c, 1, 48, 0
1, 9585840, Note_on_c, 1, 36, 40
1, 9586560, Note_off_c, 1, 36, 0
1, 9586560, Note_on_c, 1, 48, 40
1, 9586800, Note_off_c, 1, 48, 0
1, 9586800, Note_on_c, 1, 48, 40
1, 9587760, Note_off_c, 1, 48, 0
1, 9587760, Note_on_c, 1, 36, 40
1, 9588480, Note_off_c, 1, 36, 0
1, 9588480, Note_on_c, 1, 48, 40
1, 9588600, Note_off_c, 1, 48, 0
1, 9588600, Note_on_c, 1, 48, 40
1, 9588720, Note_off_c, 1, 48, 0
1, 9588720, Note_on_c, 1, 48, 40
1, 9588960, Note_off_c, 1, 48, 0
1, 9588960, Note_on_c, 1, 33, 40
1, 9589200, Note_off_c, 1, 33, 0
1, 9589200, Note_on_c, 1, 40, 40
1, 9589440, Note_off_c, 1, 40, 0
1, 9589440, Note_on_c, 1, 43, 40
1, 9589680, Note_off_c, 1, 43, 0
1, 9589680, Note_on_c, 1, 38, 40
1, 9590400, Note_off_c, 1, 38, 0
1, 9590400, Note_on_c, 1, 48, 40
1, 9590640, Note_off_c, 1, 48, 0
1, 9590640, Note_on_c, 1, 48, 40
1, 9591600, Note_off_c, 1, 48, 0
1, 9591600, Note_on_c, 1, 38, 40
1, 9592320, Note_off_c, 1, 38, 0
1, 9592320, Note_on_c, 1, 48, 40
1, 9592560, Note_off_c, 1, 48, 0
1, 9592560, Note_on_c, 1, 48, 40
1, 9593040, Note_off_c, 1, 48, 0
1, 9593040, Note_on_c, 1, 43, 40
1, 9593520, Note_off_c, 1, 43, 0
1, 9593520, Note_on_c, 1, 36, 40
1, 9594240, Note_off_c, 1, 36, 0
1, 9594240, Note_on_c, 1, 48, 40
1, 9594480, Note_off_c, 1, 48, 0
1, 9594480, Note_on_c, 1, 48, 40
1, 9595440, Note_off_c, 1, 48, 0
1, 9595440, Note_on_c, 1, 36, 40
1, 9596160, Note_off_c, 1, 36, 0
1, 9596160, Note_on_c, 1, 48, 40
1, 9596400, Note_off_c, 1, 48, 0
1, 9596400, Note_on_c, 1, 40, 40
1, 9596640, Note_off_c, 1, 40, 0
1, 9596640, Note_on_c, 1, 41, 40
1, 9596880, Note_off_c, 1, 41, 0
1, 9596880, Note_on_c, 1, 43, 40
1, 9597120, Note_off_c, 1, 43, 0
1, 9597120, Note_on_c, 1, 38, 40
1, 9598080, Note_off_c, 1, 38, 0
1, 9598080, Note_on_c, 1, 48, 40
1, 9598320, Note_off_c, 1, 48, 0
1, 9598320, Note_on_c, 1, 48, 40
1, 9599280, Note_off_c, 1, 48, 0
1, 9599280, Note_on_c, 1, 38, 40
1, 9600000, Note_off_c, 1, 38, 0
1, 9600000, Note_on_c, 1, 48, 40
1, 9600120, Note_off_c, 1, 48, 0
1, 9600240, Note_on_c, 1, 48, 40
1, 9600720, Note_off_c, 1, 48, 0
1, 9600720, Note_on_c, 1, 43, 40
1, 9601200, Note_off_c, 1, 43, 0
1, 9601200, Note_on_c, 1, 36, 40
1, 9601920, Note_off_c, 1, 36, 0
1, 9601920, Note_on_c, 1, 48, 40
1, 9602160, Note_off_c, 1, 48, 0
1, 9602160, Note_on_c, 1, 48, 40
1, 9603120, Note_off_c, 1, 48, 0
1, 9603120, Note_on_c, 1, 36, 40
1, 9603840, Note_off_c, 1, 36, 0
1, 9603840, Note_on_c, 1, 48, 40
1, 9603960, Note_off_c, 1, 48, 0
1, 9603960, Note_on_c, 1, 48, 40
1, 9604080, Note_off_c, 1, 48, 0
1, 9604080, Note_on_c, 1, 48, 40
1, 9604320, Note_off_c, 1, 48, 0
1, 9604320, Note_on_c, 1, 40, 40
1, 9604560, Note_off_c, 1, 40, 0
1, 9604560, Note_on_c, 1, 41, 40
1, 9604800, Note_off_c, 1, 41, 0
1, 9604800, Note_on_c, 1, 43, 40
1, 9605040, Note_off_c, 1, 43, 0
1, 9605040, Note_on_c, 1, 38, 40
1, 9605760, Note_off_c, 1, 38, 0
1, 9605760, Note_on_c, 1, 48, 40
1, 9606000, Note_off_c, 1, 48, 0
1, 9606000, Note_on_c, 1, 48, 40
1, 9606960, Note_off_c, 1, 48, 0
1, 9606960, Note_on_c, 1, 38, 40
1, 9607680, Note_off_c, 1, 38, 0
1, 9607680, Note_on_c, 1, 48, 40
1, 9607800, Note_off_c, 1, 48, 0
1, 9607800, Note_on_c, 1, 48, 40
1, 9607920, Note_off_c, 1, 48, 0
1, 9607920, Note_on_c, 1, 48, 40
1, 9608400, Note_off_c, 1, 48, 0
1, 9608400, Note_on_c, 1, 43, 40
1, 9608880, Note_off_c, 1, 43, 0
1, 9608880, Note_on_c, 1, 36, 40
1, 9609600, Note_off_c, 1, 36, 0
1, 9609600, Note_on_c, 1, 48, 40
1, 9609840, Note_off_c, 1, 48, 0
1, 9609840, Note_on_c, 1, 48, 40
1, 9610800, Note_off_c, 1, 48, 0
1, 9610800, Note_on_c, 1, 36, 40
1, 9611520, Note_off_c, 1, 36, 0
1, 9611520, Note_on_c, 1, 43, 40
1, 9611760, Note_off_c, 1, 43, 0
1, 9611760, Note_on_c, 1, 48, 40
1, 9612240, Note_off_c, 1, 48, 0
1, 9612240, Note_on_c, 1, 43, 40
1, 9612720, Note_off_c, 1, 43, 0
1, 9612720, Note_on_c, 1, 43, 40
1, 9614640, Note_off_c, 1, 43, 0
1, 9614640, Note_on_c, 1, 43, 40
1, 9616080, Note_off_c, 1, 43, 0
1, 9616560, Note_on_c, 1, 36, 40
1, 9618480, Note_off_c, 1, 36, 0
1, 9618480, Note_on_c, 1, 36, 40
1, 9619920, Note_off_c, 1, 36, 0
1, 9620160, Note_on_c, 1, 41, 40
1, 9620400, Note_off_c, 1, 41, 0
1, 9620400, Note_on_c, 1, 43, 40
1, 9622320, Note_off_c, 1, 43, 0
1, 9622320, Note_on_c, 1, 45, 40
1, 9623280, Note_off_c, 1, 45, 0
1, 9623280, Note_on_c, 1, 40, 40
1, 9623520, Note_off_c, 1, 40, 0
1, 9623520, Note_on_c, 1, 33, 40
1, 9623760, Note_off_c, 1, 33, 0
1, 9623760, Note_on_c, 1, 37, 40
1, 9624000, Note_off_c, 1, 37, 0
1, 9624000, Note_on_c, 1, 40, 40
1, 9624240, Note_off_c, 1, 40, 0
1, 9624240, Note_on_c, 1, 36, 40
1, 9626160, Note_off_c, 1, 36, 0
1, 9626160, Note_on_c, 1, 36, 40
1, 9627600, Note_off_c, 1, 36, 0
1, 9627600, Note_on_c, 1, 40, 40
1, 9628080, Note_off_c, 1, 40, 0
1, 9628080, Note_on_c, 1, 43, 40
1, 9628800, Note_off_c, 1, 43, 0
1, 9628800, Note_on_c, 1, 43, 40
1, 9629040, Note_off_c, 1, 43, 0
1, 9629040, Note_on_c, 1, 43, 40
1, 9629520, Note_off_c, 1, 43, 0
1, 9629520, Note_on_c, 1, 40, 40
1, 9630000, Note_off_c, 1, 40, 0
1, 9630000, Note_on_c, 1, 45, 40
1, 9630720, Note_off_c, 1, 45, 0
1, 9630720, Note_on_c, 1, 45, 40
1, 9630960, Note_off_c, 1, 45, 0
1, 9630960, Note_on_c, 1, 45, 40
1, 9631920, Note_off_c, 1, 45, 0
1, 9631920, Note_on_c, 1, 41, 40
1, 9632640, Note_off_c, 1, 41, 0
1, 9632640, Note_on_c, 1, 41, 40
1, 9633600, Note_off_c, 1, 41, 0
1, 9633840, Note_on_c, 1, 38, 40
1, 9634560, Note_off_c, 1, 38, 0
1, 9634560, Note_on_c, 1, 38, 40
1, 9634800, Note_off_c, 1, 38, 0
1, 9634800, Note_on_c, 1, 38, 40
1, 9635520, Note_off_c, 1, 38, 0
1, 9635520, Note_on_c, 1, 40, 40
1, 9635760, Note_off_c, 1, 40, 0
1, 9635760, Note_on_c, 1, 41, 40
1, 9636480, Note_off_c, 1, 41, 0
1, 9636480, Note_on_c, 1, 41, 40
1, 9637440, Note_off_c, 1, 41, 0
1, 9637680, Note_on_c, 1, 38, 40
1, 9638400, Note_off_c, 1, 38, 0
1, 9638400, Note_on_c, 1, 50, 40
1, 9638640, Note_off_c, 1, 50, 0
1, 9638640, Note_on_c, 1, 38, 40
1, 9639600, Note_off_c, 1, 38, 0
1, 9639600, Note_on_c, 1, 36, 40
1, 9640320, Note_off_c, 1, 36, 0
1, 9640320, Note_on_c, 1, 36, 40
1, 9640560, Note_off_c, 1, 36, 0
1, 9640560, Note_on_c, 1, 36, 40
1, 9641040, Note_off_c, 1, 36, 0
1, 9641040, Note_on_c, 1, 38, 40
1, 9641520, Note_off_c, 1, 38, 0
1, 9641520, Note_on_c, 1, 40, 40
1, 9642960, Note_off_c, 1, 40, 0
1, 9642960, Note_on_c, 1, 41, 40
1, 9643200, Note_off_c, 1, 41, 0
1, 9643200, Note_on_c, 1, 43, 40
1, 9643440, Note_off_c, 1, 43, 0
1, 9643440, Note_on_c, 1, 36, 40
1, 9644400, Note_off_c, 1, 36, 0
1, 9644400, Note_on_c, 1, 43, 40
1, 9644520, Note_off_c, 1, 43, 0
1, 9644520, Note_on_c, 1, 45, 40
1, 9644640, Note_off_c, 1, 45, 0
1, 9644640, Note_on_c, 1, 48, 40
1, 9644880, Note_off_c, 1, 48, 0
1, 9644880, Note_on_c, 1, 45, 40
1, 9645120, Note_off_c, 1, 45, 0
1, 9645120, Note_on_c, 1, 43, 40
1, 9645360, Note_off_c, 1, 43, 0
1, 9645360, Note_on_c, 1, 41, 40
1, 9646080, Note_off_c, 1, 41, 0
1, 9646080, Note_on_c, 1, 41, 40
1, 9646200, Note_off_c, 1, 41, 0
1, 9646320, Note_on_c, 1, 41, 40
1, 9646560, Note_off_c, 1, 41, 0
1, 9646800, Note_on_c, 1, 43, 40
1, 9647040, Note_off_c, 1, 43, 0
1, 9647280, Note_on_c, 1, 42, 40
1, 9648000, Note_off_c, 1, 42, 0
1, 9648000, Note_on_c, 1, 52, 40
1, 9648240, Note_off_c, 1, 52, 0
1, 9648240, Note_on_c, 1, 52, 40
1, 9649200, Note_off_c, 1, 52, 0
1, 9649200, Note_on_c, 1, 42, 40
1, 9649920, Note_off_c, 1, 42, 0
1, 9649920, Note_on_c, 1, 52, 40
1, 9650160, Note_off_c, 1, 52, 0
1, 9650160, Note_on_c, 1, 52, 40
1, 9650640, Note_off_c, 1, 52, 0
1, 9650640, Note_on_c, 1, 47, 40
1, 9651120, Note_off_c, 1, 47, 0
1, 9651120, Note_on_c, 1, 40, 40
1, 9651840, Note_off_c, 1, 40, 0
1, 9651840, Note_on_c, 1, 52, 40
1, 9652080, Note_off_c, 1, 52, 0
1, 9652080, Note_on_c, 1, 52, 40
1, 9653040, Note_off_c, 1, 52, 0
1, 9653040, Note_on_c, 1, 40, 40
1, 9653760, Note_off_c, 1, 40, 0
1, 9653760, Note_on_c, 1, 52, 40
1, 9654000, Note_off_c, 1, 52, 0
1, 9654000, Note_on_c, 1, 44, 40
1, 9654240, Note_off_c, 1, 44, 0
1, 9654240, Note_on_c, 1, 45, 40
1, 9654480, Note_off_c, 1, 45, 0
1, 9654480, Note_on_c, 1, 47, 40
1, 9654720, Note_off_c, 1, 47, 0
1, 9654720, Note_on_c, 1, 42, 40
1, 9655680, Note_off_c, 1, 42, 0
1, 9655680, Note_on_c, 1, 52, 40
1, 9655920, Note_off_c, 1, 52, 0
1, 9655920, Note_on_c, 1, 52, 40
1, 9656880, Note_off_c, 1, 52, 0
1, 9656880, Note_on_c, 1, 42, 40
1, 9657600, Note_off_c, 1, 42, 0
1, 9657600, Note_on_c, 1, 52, 40
1, 9657720, Note_off_c, 1, 52, 0
1, 9657840, Note_on_c, 1, 52, 40
1, 9658320, Note_off_c, 1, 52, 0
1, 9658320, Note_on_c, 1, 47, 40
1, 9658800, Note_off_c, 1, 47, 0
1, 9658800, Note_on_c, 1, 40, 40
1, 9659520, Note_off_c, 1, 40, 0
1, 9659520, Note_on_c, 1, 52, 40
1, 9659760, Note_off_c, 1, 52, 0
1, 9659760, Note_on_c, 1, 52, 40
1, 9660720, Note_off_c, 1, 52, 0
1, 9660720, Note_on_c, 1, 40, 40
1, 9661440, Note_off_c, 1, 40, 0
1, 9661440, Note_on_c, 1, 52, 40
1, 9661560, Note_off_c, 1, 52, 0
1, 9661560, Note_on_c, 1, 52, 40
1, 9661680, Note_off_c, 1, 52, 0
1, 9661680, Note_on_c, 1, 52, 40
1, 9661920, Note_off_c, 1, 52, 0
1, 9661920, Note_on_c, 1, 44, 40
1, 9662160, Note_off_c, 1, 44, 0
1, 9662160, Note_on_c, 1, 45, 40
1, 9662640, Note_off_c, 1, 45, 0
1, 9662640, Note_on_c, 1, 42, 40
1, 9663360, Note_off_c, 1, 42, 0
1, 9663360, Note_on_c, 1, 52, 40
1, 9663600, Note_off_c, 1, 52, 0
1, 9663600, Note_on_c, 1, 52, 40
1, 9664560, Note_off_c, 1, 52, 0
1, 9664560, Note_on_c, 1, 42, 40
1, 9665280, Note_off_c, 1, 42, 0
1, 9665280, Note_on_c, 1, 52, 40
1, 9665400, Note_off_c, 1, 52, 0
1, 9665400, Note_on_c, 1, 52, 40
1, 9665520, Note_off_c, 1, 52, 0
1, 9665520, Note_on_c, 1, 52, 40
1, 9666000, Note_off_c, 1, 52, 0
1, 9666000, Note_on_c, 1, 47, 40
1, 9666480, Note_off_c, 1, 47, 0
1, 9666480, Note_on_c, 1, 40, 40
1, 9667200, Note_off_c, 1, 40, 0
1, 9667200, Note_on_c, 1, 52, 40
1, 9667320, Note_off_c, 1, 52, 0
1, 9667320, Note_on_c, 1, 52, 40
1, 9667440, Note_off_c, 1, 52, 0
1, 9667440, Note_on_c, 1, 52, 40
1, 9667920, Note_off_c, 1, 52, 0
1, 9667920, Note_on_c, 1, 47, 40
1, 9668400, Note_off_c, 1, 47, 0
1, 9668400, Note_on_c, 1, 40, 40
1, 9670320, Note_off_c, 1, 40, 0
1, 9674160, Note_on_c, 1, 40, 40
1, 9674880, Note_off_c, 1, 40, 0
1, 9674880, Note_on_c, 1, 40, 40
1, 9675120, Note_off_c, 1, 40, 0
1, 9675120, Note_on_c, 1, 35, 40
1, 9675960, Note_off_c, 1, 35, 0
1, 9676080, Note_on_c, 1, 40, 40
1, 9676800, Note_off_c, 1, 40, 0
1, 9676800, Note_on_c, 1, 40, 40
1, 9677040, Note_off_c, 1, 40, 0
1, 9677040, Note_on_c, 1, 35, 40
1, 9677880, Note_off_c, 1, 35, 0
1, 9678000, Note_on_c, 1, 40, 40
1, 9678480, Note_off_c, 1, 40, 0
1, 9678480, Note_on_c, 1, 40, 40
1, 9678960, Note_off_c, 1, 40, 0
1, 9678960, Note_on_c, 1, 33, 40
1, 9679440, Note_off_c, 1, 33, 0
1, 9679440, Note_on_c, 1, 33, 40
1, 9679920, Note_off_c, 1, 33, 0
1, 9679920, Note_on_c, 1, 35, 40
1, 9680400, Note_off_c, 1, 35, 0
1, 9680400, Note_on_c, 1, 35, 40
1, 9680880, Note_off_c, 1, 35, 0
1, 9680880, Note_on_c, 1, 40, 40
1, 9681360, Note_off_c, 1, 40, 0
1, 9681360, Note_on_c, 1, 40, 40
1, 9681840, Note_off_c, 1, 40, 0
1, 9681840, Note_on_c, 1, 40, 40
1, 9682320, Note_off_c, 1, 40, 0
1, 9682320, Note_on_c, 1, 40, 40
1, 9682800, Note_off_c, 1, 40, 0
1, 9682800, Note_on_c, 1, 33, 40
1, 9683280, Note_off_c, 1, 33, 0
1, 9683280, Note_on_c, 1, 33, 40
1, 9683760, Note_off_c, 1, 33, 0
1, 9683760, Note_on_c, 1, 40, 40
1, 9684240, Note_off_c, 1, 40, 0
1, 9684240, Note_on_c, 1, 40, 40
1, 9684720, Note_off_c, 1, 40, 0
1, 9684720, Note_on_c, 1, 35, 40
1, 9685200, Note_off_c, 1, 35, 0
1, 9685200, Note_on_c, 1, 35, 40
1, 9685680, Note_off_c, 1, 35, 0
1, 9685680, Note_on_c, 1, 40, 40
1, 9686160, Note_off_c, 1, 40, 0
1, 9686160, Note_on_c, 1, 40, 40
1, 9686640, Note_off_c, 1, 40, 0
1, 9686640, Note_on_c, 1, 33, 40
1, 9687120, Note_off_c, 1, 33, 0
1, 9687120, Note_on_c, 1, 33, 40
1, 9687600, Note_off_c, 1, 33, 0
1, 9687600, Note_on_c, 1, 35, 40
1, 9688080, Note_off_c, 1, 35, 0
1, 9688080, Note_on_c, 1, 35, 40
1, 9688560, Note_off_c, 1, 35, 0
1, 9688560, Note_on_c, 1, 40, 40
1, 9689040, Note_off_c, 1, 40, 0
1, 9689040, Note_on_c, 1, 40, 40
1, 9689520, Note_off_c, 1, 40, 0
1, 9689520, Note_on_c, 1, 33, 40
1, 9690000, Note_off_c, 1, 33, 0
1, 9690000, Note_on_c, 1, 33, 40
1, 9690480, Note_off_c, 1, 33, 0
1, 9690480, Note_on_c, 1, 35, 40
1, 9690960, Note_off_c, 1, 35, 0
1, 9690960, Note_on_c, 1, 35, 40
1, 9691440, Note_off_c, 1, 35, 0
1, 9691440, Note_on_c, 1, 40, 40
1, 9691920, Note_off_c, 1, 40, 0
1, 9691920, Note_on_c, 1, 40, 40
1, 9692400, Note_off_c, 1, 40, 0
1, 9692400, Note_on_c, 1, 35, 40
1, 9692880, Note_off_c, 1, 35, 0
1, 9692880, Note_on_c, 1, 40, 40
1, 9693120, Note_off_c, 1, 40, 0
1, 9693120, Note_on_c, 1, 35, 40
1, 9693360, Note_off_c, 1, 35, 0
1, 9693360, Note_on_c, 1, 33, 40
1, 9694080, Note_off_c, 1, 33, 0
1, 9694080, Note_on_c, 1, 33, 40
1, 9694320, Note_off_c, 1, 33, 0
1, 9694320, Note_on_c, 1, 28, 40
1, 9695160, Note_off_c, 1, 28, 0
1, 9695280, Note_on_c, 1, 40, 40
1, 9696000, Note_off_c, 1, 40, 0
1, 9696000, Note_on_c, 1, 40, 40
1, 9696240, Note_off_c, 1, 40, 0
1, 9696240, Note_on_c, 1, 35, 40
1, 9697080, Note_off_c, 1, 35, 0
1, 9697200, Note_on_c, 1, 33, 40
1, 9697920, Note_off_c, 1, 33, 0
1, 9697920, Note_on_c, 1, 33, 40
1, 9698160, Note_off_c, 1, 33, 0
1, 9698160, Note_on_c, 1, 28, 40
1, 9699000, Note_off_c, 1, 28, 0
1, 9699120, Note_on_c, 1, 40, 40
1, 9699840, Note_off_c, 1, 40, 0
1, 9699840, Note_on_c, 1, 40, 40
1, 9700080, Note_off_c, 1, 40, 0
1, 9700080, Note_on_c, 1, 35, 40
1, 9700920, Note_off_c, 1, 35, 0
1, 9701040, Note_on_c, 1, 33, 40
1, 9701760, Note_off_c, 1, 33, 0
1, 9701760, Note_on_c, 1, 33, 40
1, 9702000, Note_off_c, 1, 33, 0
1, 9702000, Note_on_c, 1, 28, 40
1, 9702840, Note_off_c, 1, 28, 0
1, 9702960, Note_on_c, 1, 40, 40
1, 9703680, Note_off_c, 1, 40, 0
1, 9703680, Note_on_c, 1, 40, 40
1, 9703920, Note_off_c, 1, 40, 0
1, 9703920, Note_on_c, 1, 35, 40
1, 9704760, Note_off_c, 1, 35, 0
1, 9704880, Note_on_c, 1, 33, 40
1, 9705600, Note_off_c, 1, 33, 0
1, 9705600, Note_on_c, 1, 33, 40
1, 9705840, Note_off_c, 1, 33, 0
1, 9705840, Note_on_c, 1, 35, 40
1, 9706560, Note_off_c, 1, 35, 0
1, 9706560, Note_on_c, 1, 35, 40
1, 9706800, Note_off_c, 1, 35, 0
1, 9706800, Note_on_c, 1, 40, 40
1, 9707520, Note_off_c, 1, 40, 0
1, 9707520, Note_on_c, 1, 40, 40
1, 9707760, Note_off_c, 1, 40, 0
1, 9707760, Note_on_c, 1, 35, 40
1, 9708600, Note_off_c, 1, 35, 0
1, 9708720, Note_on_c, 1, 40, 40
1, 9709200, Note_off_c, 1, 40, 0
1, 9709200, Note_on_c, 1, 40, 40
1, 9709680, Note_off_c, 1, 40, 0
1, 9709680, Note_on_c, 1, 33, 40
1, 9710160, Note_off_c, 1, 33, 0
1, 9710160, Note_on_c, 1, 33, 40
1, 9710640, Note_off_c, 1, 33, 0
1, 9710640, Note_on_c, 1, 35, 40
1, 9711120, Note_off_c, 1, 35, 0
1, 9711120, Note_on_c, 1, 35, 40
1, 9711600, Note_off_c, 1, 35, 0
1, 9711600, Note_on_c, 1, 40, 40
1, 9712080, Note_off_c, 1, 40, 0
1, 9712080, Note_on_c, 1, 40, 40
1, 9712560, Note_off_c, 1, 40, 0
1, 9712560, Note_on_c, 1, 40, 40
1, 9713040, Note_off_c, 1, 40, 0
1, 9713040, Note_on_c, 1, 40, 40
1, 9713520, Note_off_c, 1, 40, 0
1, 9713520, Note_on_c, 1, 33, 40
1, 9714000, Note_off_c, 1, 33, 0
1, 9714000, Note_on_c, 1, 33, 40
1, 9714480, Note_off_c, 1, 33, 0
1, 9714480, Note_on_c, 1, 40, 40
1, 9714960, Note_off_c, 1, 40, 0
1, 9714960, Note_on_c, 1, 40, 40
1, 9715440, Note_off_c, 1, 40, 0
1, 9715440, Note_on_c, 1, 35, 40
1, 9715920, Note_off_c, 1, 35, 0
1, 9715920, Note_on_c, 1, 35, 40
1, 9716400, Note_off_c, 1, 35, 0
1, 9716400, Note_on_c, 1, 40, 40
1, 9716880, Note_off_c, 1, 40, 0
1, 9716880, Note_on_c, 1, 40, 40
1, 9717360, Note_off_c, 1, 40, 0
1, 9717360, Note_on_c, 1, 33, 40
1, 9717840, Note_off_c, 1, 33, 0
1, 9717840, Note_on_c, 1, 33, 40
1, 9718320, Note_off_c, 1, 33, 0
1, 9718320, Note_on_c, 1, 35, 40
1, 9718800, Note_off_c, 1, 35, 0
1, 9718800, Note_on_c, 1, 35, 40
1, 9719280, Note_off_c, 1, 35, 0
1, 9719280, Note_on_c, 1, 40, 40
1, 9719760, Note_off_c, 1, 40, 0
1, 9719760, Note_on_c, 1, 40, 40
1, 9720240, Note_off_c, 1, 40, 0
1, 9720240, Note_on_c, 1, 33, 40
1, 9720720, Note_off_c, 1, 33, 0
1, 9720720, Note_on_c, 1, 33, 40
1, 9721200, Note_off_c, 1, 33, 0
1, 9721200, Note_on_c, 1, 35, 40
1, 9721680, Note_off_c, 1, 35, 0
1, 9721680, Note_on_c, 1, 35, 40
1, 9722160, Note_off_c, 1, 35, 0
1, 9722160, Note_on_c, 1, 40, 40
1, 9722640, Note_off_c, 1, 40, 0
1, 9722640, Note_on_c, 1, 40, 40
1, 9723120, Note_off_c, 1, 40, 0
1, 9723120, Note_on_c, 1, 35, 40
1, 9723600, Note_off_c, 1, 35, 0
1, 9723600, Note_on_c, 1, 35, 40
1, 9724080, Note_off_c, 1, 35, 0
1, 9724080, Note_on_c, 1, 33, 40
1, 9724800, Note_off_c, 1, 33, 0
1, 9724800, Note_on_c, 1, 33, 40
1, 9725040, Note_off_c, 1, 33, 0
1, 9725040, Note_on_c, 1, 28, 40
1, 9725880, Note_off_c, 1, 28, 0
1, 9726000, Note_on_c, 1, 40, 40
1, 9726720, Note_off_c, 1, 40, 0
1, 9726720, Note_on_c, 1, 40, 40
1, 9726960, Note_off_c, 1, 40, 0
1, 9726960, Note_on_c, 1, 35, 40
1, 9727800, Note_off_c, 1, 35, 0
1, 9727920, Note_on_c, 1, 33, 40
1, 9728640, Note_off_c, 1, 33, 0
1, 9728640, Note_on_c, 1, 33, 40
1, 9728880, Note_off_c, 1, 33, 0
1, 9728880, Note_on_c, 1, 28, 40
1, 9729720, Note_off_c, 1, 28, 0
1, 9729840, Note_on_c, 1, 40, 40
1, 9730560, Note_off_c, 1, 40, 0
1, 9730560, Note_on_c, 1, 40, 40
1, 9730800, Note_off_c, 1, 40, 0
1, 9730800, Note_on_c, 1, 35, 40
1, 9731640, Note_off_c, 1, 35, 0
1, 9731760, Note_on_c, 1, 33, 40
1, 9732480, Note_off_c, 1, 33, 0
1, 9732480, Note_on_c, 1, 33, 40
1, 9732720, Note_off_c, 1, 33, 0
1, 9732720, Note_on_c, 1, 28, 40
1, 9733560, Note_off_c, 1, 28, 0
1, 9733680, Note_on_c, 1, 40, 40
1, 9734400, Note_off_c, 1, 40, 0
1, 9734400, Note_on_c, 1, 40, 40
1, 9734640, Note_off_c, 1, 40, 0
1, 9734640, Note_on_c, 1, 35, 40
1, 9735480, Note_off_c, 1, 35, 0
1, 9735600, Note_on_c, 1, 33, 40
1, 9736320, Note_off_c, 1, 33, 0
1, 9736320, Note_on_c, 1, 33, 40
1, 9736560, Note_off_c, 1, 33, 0
1, 9736560, Note_on_c, 1, 35, 40
1, 9737280, Note_off_c, 1, 35, 0
1, 9737280, Note_on_c, 1, 35, 40
1, 9737520, Note_off_c, 1, 35, 0
1, 9737520, Note_on_c, 1, 40, 40
1, 9738240, Note_off_c, 1, 40, 0
1, 9738240, Note_on_c, 1, 40, 40
1, 9738480, Note_off_c, 1, 40, 0
1, 9738480, Note_on_c, 1, 35, 40
1, 9739320, Note_off_c, 1, 35, 0
1, 9739440, Note_on_c, 1, 39, 40
1, 9739560, Note_off_c, 1, 39, 0
1, 9739560, Note_on_c, 1, 40, 40
1, 9739920, Note_off_c, 1, 40, 0
1, 9739920, Note_on_c, 1, 40, 40
1, 9740400, Note_off_c, 1, 40, 0
1, 9740400, Note_on_c, 1, 39, 40
1, 9740520, Note_off_c, 1, 39, 0
1, 9740520, Note_on_c, 1, 40, 40
1, 9740880, Note_off_c, 1, 40, 0
1, 9740880, Note_on_c, 1, 40, 40
1, 9741360, Note_off_c, 1, 40, 0
1, 9741360, Note_on_c, 1, 39, 40
1, 9741480, Note_off_c, 1, 39, 0
1, 9741480, Note_on_c, 1, 40, 40
1, 9741840, Note_off_c, 1, 40, 0
1, 9741840, Note_on_c, 1, 40, 40
1, 9742320, Note_off_c, 1, 40, 0
1, 9742320, Note_on_c, 1, 39, 40
1, 9742440, Note_off_c, 1, 39, 0
1, 9742440, Note_on_c, 1, 40, 40
1, 9742800, Note_off_c, 1, 40, 0
1, 9742800, Note_on_c, 1, 40, 40
1, 9743280, Note_off_c, 1, 40, 0
1, 9743280, Note_on_c, 1, 33, 40
1, 9745200, Note_off_c, 1, 33, 0
1, 9745200, Note_on_c, 1, 33, 40
1, 9747120, Note_off_c, 1, 33, 0
1, 9747120, Note_on_c, 1, 40, 40
1, 9747840, Note_off_c, 1, 40, 0
1, 9747840, Note_on_c, 1, 40, 40
1, 9748080, Note_off_c, 1, 40, 0
1, 9748080, Note_on_c, 1, 40, 40
1, 9748920, Note_off_c, 1, 40, 0
1, 9749040, Note_on_c, 1, 35, 40
1, 9749760, Note_off_c, 1, 35, 0
1, 9749760, Note_on_c, 1, 35, 40
1, 9750000, Note_off_c, 1, 35, 0
1, 9750000, Note_on_c, 1, 35, 40
1, 9750840, Note_off_c, 1, 35, 0
1, 9750960, Note_on_c, 1, 40, 40
1, 9751680, Note_off_c, 1, 40, 0
1, 9751680, Note_on_c, 1, 40, 40
1, 9751920, Note_off_c, 1, 40, 0
1, 9751920, Note_on_c, 1, 40, 40
1, 9752760, Note_off_c, 1, 40, 0
1, 9752880, Note_on_c, 1, 40, 40
1, 9753600, Note_off_c, 1, 40, 0
1, 9753600, Note_on_c, 1, 40, 40
1, 9753840, Note_off_c, 1, 40, 0
1, 9753840, Note_on_c, 1, 40, 40
1, 9754680, Note_off_c, 1, 40, 0
1, 9754800, Note_on_c, 1, 40, 40
1, 9755280, Note_off_c, 1, 40, 0
1, 9755280, Note_on_c, 1, 40, 40
1, 9755760, Note_off_c, 1, 40, 0
1, 9755760, Note_on_c, 1, 33, 40
1, 9756240, Note_off_c, 1, 33, 0
1, 9756240, Note_on_c, 1, 33, 40
1, 9756720, Note_off_c, 1, 33, 0
1, 9756720, Note_on_c, 1, 35, 40
1, 9757200, Note_off_c, 1, 35, 0
1, 9757200, Note_on_c, 1, 35, 40
1, 9757680, Note_off_c, 1, 35, 0
1, 9757680, Note_on_c, 1, 40, 40
1, 9758160, Note_off_c, 1, 40, 0
1, 9758160, Note_on_c, 1, 40, 40
1, 9758640, Note_off_c, 1, 40, 0
1, 9758640, Note_on_c, 1, 40, 40
1, 9759120, Note_off_c, 1, 40, 0
1, 9759120, Note_on_c, 1, 40, 40
1, 9759600, Note_off_c, 1, 40, 0
1, 9759600, Note_on_c, 1, 33, 40
1, 9760080, Note_off_c, 1, 33, 0
1, 9760080, Note_on_c, 1, 33, 40
1, 9760560, Note_off_c, 1, 33, 0
1, 9760560, Note_on_c, 1, 40, 40
1, 9761040, Note_off_c, 1, 40, 0
1, 9761040, Note_on_c, 1, 40, 40
1, 9761520, Note_off_c, 1, 40, 0
1, 9761520, Note_on_c, 1, 35, 40
1, 9762000, Note_off_c, 1, 35, 0
1, 9762000, Note_on_c, 1, 35, 40
1, 9762480, Note_off_c, 1, 35, 0
1, 9762480, Note_on_c, 1, 40, 40
1, 9762960, Note_off_c, 1, 40, 0
1, 9762960, Note_on_c, 1, 40, 40
1, 9763440, Note_off_c, 1, 40, 0
1, 9763440, Note_on_c, 1, 33, 40
1, 9763920, Note_off_c, 1, 33, 0
1, 9763920, Note_on_c, 1, 33, 40
1, 9764400, Note_off_c, 1, 33, 0
1, 9764400, Note_on_c, 1, 35, 40
1, 9764880, Note_off_c, 1, 35, 0
1, 9764880, Note_on_c, 1, 35, 40
1, 9765360, Note_off_c, 1, 35, 0
1, 9765360, Note_on_c, 1, 40, 40
1, 9765840, Note_off_c, 1, 40, 0
1, 9765840, Note_on_c, 1, 40, 40
1, 9766320, Note_off_c, 1, 40, 0
1, 9766320, Note_on_c, 1, 33, 40
1, 9766800, Note_off_c, 1, 33, 0
1, 9766800, Note_on_c, 1, 33, 40
1, 9767280, Note_off_c, 1, 33, 0
1, 9767280, Note_on_c, 1, 35, 40
1, 9767760, Note_off_c, 1, 35, 0
1, 9767760, Note_on_c, 1, 35, 40
1, 9768240, Note_off_c, 1, 35, 0
1, 9768240, Note_on_c, 1, 40, 40
1, 9768720, Note_off_c, 1, 40, 0
1, 9768720, Note_on_c, 1, 40, 40
1, 9769200, Note_off_c, 1, 40, 0
1, 9769200, Note_on_c, 1, 35, 40
1, 9769680, Note_off_c, 1, 35, 0
1, 9769680, Note_on_c, 1, 40, 40
1, 9769920, Note_off_c, 1, 40, 0
1, 9769920, Note_on_c, 1, 35, 40
1, 9770160, Note_off_c, 1, 35, 0
1, 9770160, Note_on_c, 1, 33, 40
1, 9770880, Note_off_c, 1, 33, 0
1, 9770880, Note_on_c, 1, 33, 40
1, 9771120, Note_off_c, 1, 33, 0
1, 9771120, Note_on_c, 1, 28, 40
1, 9771960, Note_off_c, 1, 28, 0
1, 9772080, Note_on_c, 1, 40, 40
1, 9772800, Note_off_c, 1, 40, 0
1, 9772800, Note_on_c, 1, 40, 40
1, 9773040, Note_off_c, 1, 40, 0
1, 9773040, Note_on_c, 1, 35, 40
1, 9773880, Note_off_c, 1, 35, 0
1, 9774000, Note_on_c, 1, 33, 40
1, 9774720, Note_off_c, 1, 33, 0
1, 9774720, Note_on_c, 1, 33, 40
1, 9774960, Note_off_c, 1, 33, 0
1, 9774960, Note_on_c, 1, 28, 40
1, 9775800, Note_off_c, 1, 28, 0
1, 9775920, Note_on_c, 1, 40, 40
1, 9776640, Note_off_c, 1, 40, 0
1, 9776640, Note_on_c, 1, 40, 40
1, 9776880, Note_off_c, 1, 40, 0
1, 9776880, Note_on_c, 1, 35, 40
1, 9777720, Note_off_c, 1, 35, 0
1, 9777840, Note_on_c, 1, 33, 40
1, 9778560, Note_off_c, 1, 33, 0
1, 9778560, Note_on_c, 1, 33, 40
1, 9778800, Note_off_c, 1, 33, 0
1, 9778800, Note_on_c, 1, 28, 40
1, 9779640, Note_off_c, 1, 28, 0
1, 9779760, Note_on_c, 1, 40, 40
1, 9780480, Note_off_c, 1, 40, 0
1, 9780480, Note_on_c, 1, 40, 40
1, 9780720, Note_off_c, 1, 40, 0
1, 9780720, Note_on_c, 1, 35, 40
1, 9781560, Note_off_c, 1, 35, 0
1, 9781680, Note_on_c, 1, 33, 40
1, 9782400, Note_off_c, 1, 33, 0
1, 9782400, Note_on_c, 1, 33, 40
1, 9782640, Note_off_c, 1, 33, 0
1, 9782640, Note_on_c, 1, 35, 40
1, 9783360, Note_off_c, 1, 35, 0
1, 9783360, Note_on_c, 1, 35, 40
1, 9783600, Note_off_c, 1, 35, 0
1, 9783600, Note_on_c, 1, 40, 40
1, 9784320, Note_off_c, 1, 40, 0
1, 9784320, Note_on_c, 1, 40, 40
1, 9784560, Note_off_c, 1, 40, 0
1, 9784560, Note_on_c, 1, 35, 40
1, 9785400, Note_off_c, 1, 35, 0
1, 9785520, Note_on_c, 1, 39, 40
1, 9785640, Note_off_c, 1, 39, 0
1, 9785640, Note_on_c, 1, 40, 40
1, 9786000, Note_off_c, 1, 40, 0
1, 9786000, Note_on_c, 1, 40, 40
1, 9786480, Note_off_c, 1, 40, 0
1, 9786480, Note_on_c, 1, 39, 40
1, 9786600, Note_off_c, 1, 39, 0
1, 9786600, Note_on_c, 1, 40, 40
1, 9786960, Note_off_c, 1, 40, 0
1, 9786960, Note_on_c, 1, 40, 40
1, 9787440, Note_off_c, 1, 40, 0
1, 9787440, Note_on_c, 1, 39, 40
1, 9787560, Note_off_c, 1, 39, 0
1, 9787560, Note_on_c, 1, 40, 40
1, 9787920, Note_off_c, 1, 40, 0
1, 9787920, Note_on_c, 1, 40, 40
1, 9788400, Note_off_c, 1, 40, 0
1, 9788400, Note_on_c, 1, 39, 40
1, 9788520, Note_off_c, 1, 39, 0
1, 9788520, Note_on_c, 1, 40, 40
1, 9788880, Note_off_c, 1, 40, 0
1, 9788880, Note_on_c, 1, 40, 40
1, 9789360, Note_off_c, 1, 40, 0
1, 9789360, Note_on_c, 1, 33, 40
1, 9791280, Note_off_c, 1, 33, 0
1, 9791280, Note_on_c, 1, 33, 40
1, 9793200, Note_off_c, 1, 33, 0
1, 9793200, Note_on_c, 1, 40, 40
1, 9793920, Note_off_c, 1, 40, 0
1, 9793920, Note_on_c, 1, 40, 40
1, 9794160, Note_off_c, 1, 40, 0
1, 9794160, Note_on_c, 1, 40, 40
1, 9795000, Note_off_c, 1, 40, 0
1, 9795120, Note_on_c, 1, 35, 40
1, 9795840, Note_off_c, 1, 35, 0
1, 9795840, Note_on_c, 1, 35, 40
1, 9796080, Note_off_c, 1, 35, 0
1, 9796080, Note_on_c, 1, 35, 40
1, 9796920, Note_off_c, 1, 35, 0
1, 9797040, Note_on_c, 1, 40, 40
1, 9797760, Note_off_c, 1, 40, 0
1, 9797760, Note_on_c, 1, 40, 40
1, 9798000, Note_off_c, 1, 40, 0
1, 9798000, Note_on_c, 1, 40, 40
1, 9798840, Note_off_c, 1, 40, 0
1, 9798960, Note_on_c, 1, 40, 40
1, 9799680, Note_off_c, 1, 40, 0
1, 9799680, Note_on_c, 1, 40, 40
1, 9799920, Note_off_c, 1, 40, 0
1, 9799920, Note_on_c, 1, 35, 40
1, 9800760, Note_off_c, 1, 35, 0
1, 9800880, Note_on_c, 1, 40, 40
1, 9801360, Note_off_c, 1, 40, 0
1, 9801360, Note_on_c, 1, 40, 40
1, 9801840, Note_off_c, 1, 40, 0
1, 9801840, Note_on_c, 1, 33, 40
1, 9802320, Note_off_c, 1, 33, 0
1, 9802320, Note_on_c, 1, 33, 40
1, 9802800, Note_off_c, 1, 33, 0
1, 9802800, Note_on_c, 1, 35, 40
1, 9803280, Note_off_c, 1, 35, 0
1, 9803280, Note_on_c, 1, 35, 40
1, 9803760, Note_off_c, 1, 35, 0
1, 9803760, Note_on_c, 1, 40, 40
1, 9804240, Note_off_c, 1, 40, 0
1, 9804240, Note_on_c, 1, 40, 40
1, 9804720, Note_off_c, 1, 40, 0
1, 9804720, Note_on_c, 1, 40, 40
1, 9805200, Note_off_c, 1, 40, 0
1, 9805200, Note_on_c, 1, 40, 40
1, 9805680, Note_off_c, 1, 40, 0
1, 9805680, Note_on_c, 1, 33, 40
1, 9806160, Note_off_c, 1, 33, 0
1, 9806160, Note_on_c, 1, 33, 40
1, 9806640, Note_off_c, 1, 33, 0
1, 9806640, Note_on_c, 1, 40, 40
1, 9807120, Note_off_c, 1, 40, 0
1, 9807120, Note_on_c, 1, 40, 40
1, 9807600, Note_off_c, 1, 40, 0
1, 9807600, Note_on_c, 1, 35, 40
1, 9808080, Note_off_c, 1, 35, 0
1, 9808080, Note_on_c, 1, 35, 40
1, 9808560, Note_off_c, 1, 35, 0
1, 9808560, Note_on_c, 1, 40, 40
1, 9809040, Note_off_c, 1, 40, 0
1, 9809040, Note_on_c, 1, 40, 40
1, 9809520, Note_off_c, 1, 40, 0
1, 9809520, Note_on_c, 1, 33, 40
1, 9810000, Note_off_c, 1, 33, 0
1, 9810000, Note_on_c, 1, 33, 40
1, 9810480, Note_off_c, 1, 33, 0
1, 9810480, Note_on_c, 1, 35, 40
1, 9810960, Note_off_c, 1, 35, 0
1, 9810960, Note_on_c, 1, 35, 40
1, 9811440, Note_off_c, 1, 35, 0
1, 9811440, Note_on_c, 1, 40, 40
1, 9811920, Note_off_c, 1, 40, 0
1, 9811920, Note_on_c, 1, 40, 40
1, 9812400, Note_off_c, 1, 40, 0
1, 9812400, Note_on_c, 1, 33, 40
1, 9812880, Note_off_c, 1, 33, 0
1, 9812880, Note_on_c, 1, 33, 40
1, 9813360, Note_off_c, 1, 33, 0
1, 9813360, Note_on_c, 1, 35, 40
1, 9813840, Note_off_c, 1, 35, 0
1, 9813840, Note_on_c, 1, 35, 40
1, 9814320, Note_off_c, 1, 35, 0
1, 9814320, Note_on_c, 1, 40, 40
1, 9814800, Note_off_c, 1, 40, 0
1, 9814800, Note_on_c, 1, 40, 40
1, 9815280, Note_off_c, 1, 40, 0
1, 9815280, Note_on_c, 1, 35, 40
1, 9815760, Note_off_c, 1, 35, 0
1, 9815760, Note_on_c, 1, 40, 40
1, 9816000, Note_off_c, 1, 40, 0
1, 9816000, Note_on_c, 1, 35, 40
1, 9816240, Note_off_c, 1, 35, 0
1, 9816240, Note_on_c, 1, 33, 40
1, 9816960, Note_off_c, 1, 33, 0
1, 9816960, Note_on_c, 1, 33, 40
1, 9817200, Note_off_c, 1, 33, 0
1, 9817200, Note_on_c, 1, 33, 40
1, 9818040, Note_off_c, 1, 33, 0
1, 9818160, Note_on_c, 1, 40, 40
1, 9818880, Note_off_c, 1, 40, 0
1, 9818880, Note_on_c, 1, 40, 40
1, 9819120, Note_off_c, 1, 40, 0
1, 9819120, Note_on_c, 1, 40, 40
1, 9819960, Note_off_c, 1, 40, 0
1, 9820080, Note_on_c, 1, 33, 40
1, 9820800, Note_off_c, 1, 33, 0
1, 9820800, Note_on_c, 1, 33, 40
1, 9821040, Note_off_c, 1, 33, 0
1, 9821040, Note_on_c, 1, 33, 40
1, 9821880, Note_off_c, 1, 33, 0
1, 9822000, Note_on_c, 1, 40, 40
1, 9822720, Note_off_c, 1, 40, 0
1, 9822720, Note_on_c, 1, 40, 40
1, 9822960, Note_off_c, 1, 40, 0
1, 9822960, Note_on_c, 1, 40, 40
1, 9823800, Note_off_c, 1, 40, 0
1, 9823920, Note_on_c, 1, 33, 40
1, 9824640, Note_off_c, 1, 33, 0
1, 9824640, Note_on_c, 1, 33, 40
1, 9824880, Note_off_c, 1, 33, 0
1, 9824880, Note_on_c, 1, 33, 40
1, 9825720, Note_off_c, 1, 33, 0
1, 9825840, Note_on_c, 1, 40, 40
1, 9826560, Note_off_c, 1, 40, 0
1, 9826560, Note_on_c, 1, 40, 40
1, 9826800, Note_off_c, 1, 40, 0
1, 9826800, Note_on_c, 1, 40, 40
1, 9827640, Note_off_c, 1, 40, 0
1, 9827760, Note_on_c, 1, 33, 40
1, 9828480, Note_off_c, 1, 33, 0
1, 9828480, Note_on_c, 1, 33, 40
1, 9828720, Note_off_c, 1, 33, 0
1, 9828720, Note_on_c, 1, 35, 40
1, 9829440, Note_off_c, 1, 35, 0
1, 9829440, Note_on_c, 1, 35, 40
1, 9829680, Note_off_c, 1, 35, 0
1, 9829680, Note_on_c, 1, 40, 40
1, 9830400, Note_off_c, 1, 40, 0
1, 9830400, Note_on_c, 1, 40, 40
1, 9830640, Note_off_c, 1, 40, 0
1, 9830640, Note_on_c, 1, 35, 40
1, 9831480, Note_off_c, 1, 35, 0
1, 9831600, Note_on_c, 1, 39, 40
1, 9831720, Note_off_c, 1, 39, 0
1, 9831720, Note_on_c, 1, 40, 40
1, 9832080, Note_off_c, 1, 40, 0
1, 9832080, Note_on_c, 1, 40, 40
1, 9832560, Note_off_c, 1, 40, 0
1, 9832560, Note_on_c, 1, 39, 40
1, 9832680, Note_off_c, 1, 39, 0
1, 9832680, Note_on_c, 1, 40, 40
1, 9833040, Note_off_c, 1, 40, 0
1, 9833040, Note_on_c, 1, 40, 40
1, 9833520, Note_off_c, 1, 40, 0
1, 9833520, Note_on_c, 1, 39, 40
1, 9833640, Note_off_c, 1, 39, 0
1, 9833640, Note_on_c, 1, 40, 40
1, 9834000, Note_off_c, 1, 40, 0
1, 9834000, Note_on_c, 1, 40, 40
1, 9834480, Note_off_c, 1, 40, 0
1, 9834480, Note_on_c, 1, 39, 40
1, 9834600, Note_off_c, 1, 39, 0
1, 9834600, Note_on_c, 1, 40, 40
1, 9834960, Note_off_c, 1, 40, 0
1, 9834960, Note_on_c, 1, 40, 40
1, 9835440, Note_off_c, 1, 40, 0
1, 9835440, Note_on_c, 1, 33, 40
1, 9837360, Note_off_c, 1, 33, 0
1, 9837360, Note_on_c, 1, 33, 40
1, 9839280, Note_off_c, 1, 33, 0
1, 9846960, Note_on_c, 1, 43, 40
1, 9847440, Note_off_c, 1, 43, 0
1, 9847920, Note_on_c, 1, 38, 40
1, 9848400, Note_off_c, 1, 38, 0
1, 9848880, Note_on_c, 1, 41, 40
1, 9849360, Note_off_c, 1, 41, 0
1, 9849840, Note_on_c, 1, 36, 40
1, 9850320, Note_off_c, 1, 36, 0
1, 9850800, Note_on_c, 1, 36, 40
1, 9851280, Note_off_c, 1, 36, 0
1, 9851760, Note_on_c, 1, 41, 40
1, 9852240, Note_off_c, 1, 41, 0
1, 9852720, Note_on_c, 1, 36, 40
1, 9853200, Note_off_c, 1, 36, 0
1, 9853680, Note_on_c, 1, 41, 40
1, 9854160, Note_off_c, 1, 41, 0
1, 9854640, Note_on_c, 1, 36, 40
1, 9855120, Note_off_c, 1, 36, 0
1, 9855600, Note_on_c, 1, 43, 40
1, 9856080, Note_off_c, 1, 43, 0
1, 9856560, Note_on_c, 1, 36, 40
1, 9857040, Note_off_c, 1, 36, 0
1, 9857520, Note_on_c, 1, 41, 40
1, 9858000, Note_off_c, 1, 41, 0
1, 9858480, Note_on_c, 1, 36, 40
1, 9858960, Note_off_c, 1, 36, 0
1, 9859440, Note_on_c, 1, 41, 40
1, 9859920, Note_off_c, 1, 41, 0
1, 9860400, Note_on_c, 1, 36, 40
1, 9860880, Note_off_c, 1, 36, 0
1, 9861360, Note_on_c, 1, 41, 40
1, 9861840, Note_off_c, 1, 41, 0
1, 9862320, Note_on_c, 1, 36, 40
1, 9862800, Note_off_c, 1, 36, 0
1, 9863280, Note_on_c, 1, 43, 40
1, 9863760, Note_off_c, 1, 43, 0
1, 9864240, Note_on_c, 1, 36, 40
1, 9864720, Note_off_c, 1, 36, 0
1, 9865200, Note_on_c, 1, 43, 40
1, 9865680, Note_off_c, 1, 43, 0
1, 9866160, Note_on_c, 1, 41, 40
1, 9866640, Note_off_c, 1, 41, 0
1, 9867120, Note_on_c, 1, 36, 40
1, 9867600, Note_off_c, 1, 36, 0
1, 9868080, Note_on_c, 1, 43, 40
1, 9868560, Note_off_c, 1, 43, 0
1, 9869040, Note_on_c, 1, 38, 40
1, 9869520, Note_off_c, 1, 38, 0
1, 9870000, Note_on_c, 1, 43, 40
1, 9870480, Note_off_c, 1, 43, 0
1, 9870960, Note_on_c, 1, 36, 40
1, 9871440, Note_off_c, 1, 36, 0
1, 9871920, Note_on_c, 1, 43, 40
1, 9872400, Note_off_c, 1, 43, 0
1, 9872880, Note_on_c, 1, 38, 40
1, 9873360, Note_off_c, 1, 38, 0
1, 9877680, Note_on_c, 1, 43, 40
1, 9878160, Note_off_c, 1, 43, 0
1, 9878640, Note_on_c, 1, 38, 40
1, 9879120, Note_off_c, 1, 38, 0
1, 9879600, Note_on_c, 1, 41, 40
1, 9880080, Note_off_c, 1, 41, 0
1, 9880560, Note_on_c, 1, 36, 40
1, 9881040, Note_off_c, 1, 36, 0
1, 9881520, Note_on_c, 1, 36, 40
1, 9882000, Note_off_c, 1, 36, 0
1, 9882480, Note_on_c, 1, 41, 40
1, 9882960, Note_off_c, 1, 41, 0
1, 9883440, Note_on_c, 1, 36, 40
1, 9883920, Note_off_c, 1, 36, 0
1, 9884400, Note_on_c, 1, 41, 40
1, 9884880, Note_off_c, 1, 41, 0
1, 9885360, Note_on_c, 1, 36, 40
1, 9885840, Note_off_c, 1, 36, 0
1, 9886320, Note_on_c, 1, 43, 40
1, 9886800, Note_off_c, 1, 43, 0
1, 9887280, Note_on_c, 1, 36, 40
1, 9887760, Note_off_c, 1, 36, 0
1, 9888240, Note_on_c, 1, 41, 40
1, 9888720, Note_off_c, 1, 41, 0
1, 9889200, Note_on_c, 1, 36, 40
1, 9889680, Note_off_c, 1, 36, 0
1, 9890160, Note_on_c, 1, 41, 40
1, 9890640, Note_off_c, 1, 41, 0
1, 9891120, Note_on_c, 1, 36, 40
1, 9891600, Note_off_c, 1, 36, 0
1, 9892080, Note_on_c, 1, 41, 40
1, 9892560, Note_off_c, 1, 41, 0
1, 9893040, Note_on_c, 1, 36, 40
1, 9893520, Note_off_c, 1, 36, 0
1, 9894000, Note_on_c, 1, 43, 40
1, 9894480, Note_off_c, 1, 43, 0
1, 9894960, Note_on_c, 1, 36, 40
1, 9895440, Note_off_c, 1, 36, 0
1, 9895920, Note_on_c, 1, 43, 40
1, 9896400, Note_off_c, 1, 43, 0
1, 9896880, Note_on_c, 1, 41, 40
1, 9897360, Note_off_c, 1, 41, 0
1, 9897840, Note_on_c, 1, 36, 40
1, 9898320, Note_off_c, 1, 36, 0
1, 9898800, Note_on_c, 1, 43, 40
1, 9899280, Note_off_c, 1, 43, 0
1, 9899760, Note_on_c, 1, 38, 40
1, 9900240, Note_off_c, 1, 38, 0
1, 9900720, Note_on_c, 1, 43, 40
1, 9901200, Note_off_c, 1, 43, 0
1, 9901680, Note_on_c, 1, 36, 40
1, 9902160, Note_off_c, 1, 36, 0
1, 9902640, Note_on_c, 1, 43, 40
1, 9903120, Note_off_c, 1, 43, 0
1, 9903600, Note_on_c, 1, 38, 40
1, 9904080, Note_off_c, 1, 38, 0
1, 9904560, Note_on_c, 1, 45, 40
1, 9905040, Note_off_c, 1, 45, 0
1, 9905520, Note_on_c, 1, 40, 40
1, 9906000, Note_off_c, 1, 40, 0
1, 9906480, Note_on_c, 1, 43, 40
1, 9906960, Note_off_c, 1, 43, 0
1, 9907440, Note_on_c, 1, 43, 40
1, 9907920, Note_off_c, 1, 43, 0
1, 9908400, Note_on_c, 1, 43, 40
1, 9908880, Note_off_c, 1, 43, 0
1, 9909360, Note_on_c, 1, 38, 40
1, 9909840, Note_off_c, 1, 38, 0
1, 9910320, Note_on_c, 1, 43, 40
1, 9910800, Note_off_c, 1, 43, 0
1, 9911280, Note_on_c, 1, 38, 40
1, 9911760, Note_off_c, 1, 38, 0
1, 9912240, Note_on_c, 1, 38, 40
1, 9912720, Note_off_c, 1, 38, 0
1, 9913200, Note_on_c, 1, 38, 40
1, 9913680, Note_off_c, 1, 38, 0
1, 9914160, Note_on_c, 1, 43, 40
1, 9914880, Note_off_c, 1, 43, 0
1, 9914880, Note_on_c, 1, 43, 40
1, 9915120, Note_off_c, 1, 43, 0
1, 9915120, Note_on_c, 1, 35, 40
1, 9915600, Note_off_c, 1, 35, 0
1, 9915600, Note_on_c, 1, 38, 40
1, 9916080, Note_off_c, 1, 38, 0
1, 9916080, Note_on_c, 1, 36, 40
1, 9916560, Note_off_c, 1, 36, 0
1, 9917040, Note_on_c, 1, 43, 40
1, 9917760, Note_off_c, 1, 43, 0
1, 9917760, Note_on_c, 1, 35, 40
1, 9918000, Note_off_c, 1, 35, 0
1, 9918000, Note_on_c, 1, 36, 40
1, 9918720, Note_off_c, 1, 36, 0
1, 9918720, Note_on_c, 1, 40, 40
1, 9918960, Note_off_c, 1, 40, 0
1, 9918960, Note_on_c, 1, 43, 40
1, 9919440, Note_off_c, 1, 43, 0
1, 9919440, Note_on_c, 1, 40, 40
1, 9919680, Note_off_c, 1, 40, 0
1, 9919680, Note_on_c, 1, 36, 40
1, 9919920, Note_off_c, 1, 36, 0
1, 9919920, Note_on_c, 1, 41, 40
1, 9920400, Note_off_c, 1, 41, 0
1, 9920880, Note_on_c, 1, 36, 40
1, 9921360, Note_off_c, 1, 36, 0
1, 9921840, Note_on_c, 1, 43, 40
1, 9922320, Note_off_c, 1, 43, 0
1, 9922800, Note_on_c, 1, 38, 40
1, 9923280, Note_off_c, 1, 38, 0
1, 9923760, Note_on_c, 1, 41, 40
1, 9924240, Note_off_c, 1, 41, 0
1, 9924720, Note_on_c, 1, 36, 40
1, 9925200, Note_off_c, 1, 36, 0
1, 9925680, Note_on_c, 1, 43, 40
1, 9926160, Note_off_c, 1, 43, 0
1, 9926640, Note_on_c, 1, 38, 40
1, 9927120, Note_off_c, 1, 38, 0
1, 9931440, Note_on_c, 1, 43, 40
1, 9931920, Note_off_c, 1, 43, 0
1, 9932400, Note_on_c, 1, 38, 40
1, 9932880, Note_off_c, 1, 38, 0
1, 9933360, Note_on_c, 1, 41, 40
1, 9933840, Note_off_c, 1, 41, 0
1, 9934320, Note_on_c, 1, 36, 40
1, 9934800, Note_off_c, 1, 36, 0
1, 9935280, Note_on_c, 1, 36, 40
1, 9935760, Note_off_c, 1, 36, 0
1, 9936240, Note_on_c, 1, 41, 40
1, 9936720, Note_off_c, 1, 41, 0
1, 9937200, Note_on_c, 1, 36, 40
1, 9937680, Note_off_c, 1, 36, 0
1, 9938160, Note_on_c, 1, 41, 40
1, 9938640, Note_off_c, 1, 41, 0
1, 9939120, Note_on_c, 1, 36, 40
1, 9939600, Note_off_c, 1, 36, 0
1, 9940080, Note_on_c, 1, 43, 40
1, 9940560, Note_off_c, 1, 43, 0
1, 9941040, Note_on_c, 1, 36, 40
1, 9941520, Note_off_c, 1, 36, 0
1, 9942000, Note_on_c, 1, 41, 40
1, 9942480, Note_off_c, 1, 41, 0
1, 9942960, Note_on_c, 1, 36, 40
1, 9943440, Note_off_c, 1, 36, 0
1, 9943920, Note_on_c, 1, 41, 40
1, 9944400, Note_off_c, 1, 41, 0
1, 9944880, Note_on_c, 1, 36, 40
1, 9945360, Note_off_c, 1, 36, 0
1, 9945840, Note_on_c, 1, 41, 40
1, 9946320, Note_off_c, 1, 41, 0
1, 9946800, Note_on_c, 1, 36, 40
1, 9947280, Note_off_c, 1, 36, 0
1, 9947760, Note_on_c, 1, 43, 40
1, 9948240, Note_off_c, 1, 43, 0
1, 9948720, Note_on_c, 1, 36, 40
1, 9949200, Note_off_c, 1, 36, 0
1, 9949680, Note_on_c, 1, 43, 40
1, 9950160, Note_off_c, 1, 43, 0
1, 9950640, Note_on_c, 1, 41, 40
1, 9951120, Note_off_c, 1, 41, 0
1, 9951600, Note_on_c, 1, 36, 40
1, 9952080, Note_off_c, 1, 36, 0
1, 9952560, Note_on_c, 1, 43, 40
1, 9953040, Note_off_c, 1, 43, 0
1, 9953520, Note_on_c, 1, 38, 40
1, 9954000, Note_off_c, 1, 38, 0
1, 9954480, Note_on_c, 1, 43, 40
1, 9954960, Note_off_c, 1, 43, 0
1, 9955440, Note_on_c, 1, 36, 40
1, 9955920, Note_off_c, 1, 36, 0
1, 9956400, Note_on_c, 1, 43, 40
1, 9956880, Note_off_c, 1, 43, 0
1, 9957360, Note_on_c, 1, 38, 40
1, 9957840, Note_off_c, 1, 38, 0
1, 9958320, Note_on_c, 1, 43, 40
1, 9958800, Note_off_c, 1, 43, 0
1, 9958800, Note_on_c, 1, 43, 40
1, 9959040, Note_off_c, 1, 43, 0
1, 9959040, Note_on_c, 1, 43, 40
1, 9959280, Note_off_c, 1, 43, 0
1, 9959280, Note_on_c, 1, 43, 40
1, 9959520, Note_off_c, 1, 43, 0
1, 9959520, Note_on_c, 1, 43, 40
1, 9959760, Note_off_c, 1, 43, 0
1, 9959760, Note_on_c, 1, 43, 40
1, 9960000, Note_off_c, 1, 43, 0
1, 9960000, Note_on_c, 1, 43, 40
1, 9960240, Note_off_c, 1, 43, 0
1, 9960240, Note_on_c, 1, 43, 40
1, 9960480, Note_off_c, 1, 43, 0
1, 9960480, Note_on_c, 1, 43, 40
1, 9960720, Note_off_c, 1, 43, 0
1, 9960720, Note_on_c, 1, 43, 40
1, 9960960, Note_off_c, 1, 43, 0
1, 9960960, Note_on_c, 1, 43, 40
1, 9961200, Note_off_c, 1, 43, 0
1, 9961200, Note_on_c, 1, 43, 40
1, 9961440, Note_off_c, 1, 43, 0
1, 9961440, Note_on_c, 1, 43, 40
1, 9961680, Note_off_c, 1, 43, 0
1, 9961680, Note_on_c, 1, 43, 40
1, 9962160, Note_off_c, 1, 43, 0
1, 9962160, Note_on_c, 1, 43, 40
1, 9962640, Note_off_c, 1, 43, 0
1, 9963120, Note_on_c, 1, 38, 40
1, 9963600, Note_off_c, 1, 38, 0
1, 9964080, Note_on_c, 1, 41, 40
1, 9964560, Note_off_c, 1, 41, 0
1, 9965040, Note_on_c, 1, 36, 40
1, 9965520, Note_off_c, 1, 36, 0
1, 9966000, Note_on_c, 1, 36, 40
1, 9966480, Note_off_c, 1, 36, 0
1, 9966960, Note_on_c, 1, 41, 40
1, 9967440, Note_off_c, 1, 41, 0
1, 9967920, Note_on_c, 1, 36, 40
1, 9968400, Note_off_c, 1, 36, 0
1, 9968880, Note_on_c, 1, 41, 40
1, 9969360, Note_off_c, 1, 41, 0
1, 9969840, Note_on_c, 1, 43, 40
1, 9970320, Note_off_c, 1, 43, 0
1, 9970800, Note_on_c, 1, 38, 40
1, 9971280, Note_off_c, 1, 38, 0
1, 9971760, Note_on_c, 1, 41, 40
1, 9972240, Note_off_c, 1, 41, 0
1, 9972720, Note_on_c, 1, 36, 40
1, 9973200, Note_off_c, 1, 36, 0
1, 9973680, Note_on_c, 1, 36, 40
1, 9974160, Note_off_c, 1, 36, 0
1, 9974640, Note_on_c, 1, 41, 40
1, 9975120, Note_off_c, 1, 41, 0
1, 9975600, Note_on_c, 1, 36, 40
1, 9976080, Note_off_c, 1, 36, 0
1, 9976560, Note_on_c, 1, 41, 40
1, 9977040, Note_off_c, 1, 41, 0
1, 9977520, Note_on_c, 1, 43, 40
1, 9978000, Note_off_c, 1, 43, 0
1, 9978480, Note_on_c, 1, 38, 40
1, 9978960, Note_off_c, 1, 38, 0
1, 9979440, Note_on_c, 1, 41, 40
1, 9979920, Note_off_c, 1, 41, 0
1, 9980400, Note_on_c, 1, 36, 40
1, 9980880, Note_off_c, 1, 36, 0
1, 9981360, Note_on_c, 1, 36, 40
1, 9981840, Note_off_c, 1, 36, 0
1, 9982320, Note_on_c, 1, 41, 40
1, 9982800, Note_off_c, 1, 41, 0
1, 9983280, Note_on_c, 1, 36, 40
1, 9983520, Note_off_c, 1, 36, 0
1, 9983520, Note_on_c, 1, 36, 40
1, 9983760, Note_off_c, 1, 36, 0
1, 9983760, Note_on_c, 1, 36, 40
1, 9984000, Note_off_c, 1, 36, 0
1, 9984000, Note_on_c, 1, 36, 40
1, 9984240, Note_off_c, 1, 36, 0
1, 9984240, Note_on_c, 1, 36, 40
1, 9984480, Note_off_c, 1, 36, 0
1, 9984480, Note_on_c, 1, 36, 40
1, 9984720, Note_off_c, 1, 36, 0
1, 9984720, Note_on_c, 1, 36, 40
1, 9984960, Note_off_c, 1, 36, 0
1, 9984960, Note_on_c, 1, 36, 40
1, 9985200, Note_off_c, 1, 36, 0
1, 9985200, Note_on_c, 1, 36, 40
1, 9985680, Note_off_c, 1, 36, 0
1, 9989040, Note_on_c, 1, 33, 40
1, 9989520, Note_off_c, 1, 33, 0
1, 9989760, Note_on_c, 1, 37, 40
1, 9990240, Note_off_c, 1, 37, 0
1, 9990240, Note_on_c, 1, 40, 40
1, 9990480, Note_off_c, 1, 40, 0
1, 9990480, Note_on_c, 1, 42, 40
1, 9990720, Note_off_c, 1, 42, 0
1, 9990720, Note_on_c, 1, 40, 40
1, 9990960, Note_off_c, 1, 40, 0
1, 9990960, Note_on_c, 1, 33, 40
1, 9991440, Note_off_c, 1, 33, 0
1, 9991680, Note_on_c, 1, 37, 40
1, 9992160, Note_off_c, 1, 37, 0
1, 9992160, Note_on_c, 1, 40, 40
1, 9992400, Note_off_c, 1, 40, 0
1, 9992400, Note_on_c, 1, 42, 40
1, 9992640, Note_off_c, 1, 42, 0
1, 9992640, Note_on_c, 1, 40, 40
1, 9992880, Note_off_c, 1, 40, 0
1, 9992880, Note_on_c, 1, 33, 40
1, 9993360, Note_off_c, 1, 33, 0
1, 9993600, Note_on_c, 1, 37, 40
1, 9994080, Note_off_c, 1, 37, 0
1, 9994080, Note_on_c, 1, 40, 40
1, 9994320, Note_off_c, 1, 40, 0
1, 9994320, Note_on_c, 1, 42, 40
1, 9994560, Note_off_c, 1, 42, 0
1, 9994560, Note_on_c, 1, 40, 40
1, 9994800, Note_off_c, 1, 40, 0
1, 9994800, Note_on_c, 1, 33, 40
1, 9995280, Note_off_c, 1, 33, 0
1, 9995520, Note_on_c, 1, 37, 40
1, 9996000, Note_off_c, 1, 37, 0
1, 9996000, Note_on_c, 1, 40, 40
1, 9996240, Note_off_c, 1, 40, 0
1, 9996240, Note_on_c, 1, 42, 40
1, 9996480, Note_off_c, 1, 42, 0
1, 9996480, Note_on_c, 1, 40, 40
1, 9996720, Note_off_c, 1, 40, 0
1, 9996720, Note_on_c, 1, 33, 40
1, 9997200, Note_off_c, 1, 33, 0
1, 9997440, Note_on_c, 1, 37, 40
1, 9997920, Note_off_c, 1, 37, 0
1, 9997920, Note_on_c, 1, 40, 40
1, 9998160, Note_off_c, 1, 40, 0
1, 9998160, Note_on_c, 1, 42, 40
1, 9998400, Note_off_c, 1, 42, 0
1, 9998400, Note_on_c, 1, 40, 40
1, 9998640, Note_off_c, 1, 40, 0
1, 9998640, Note_on_c, 1, 33, 40
1, 9999120, Note_off_c, 1, 33, 0
1, 9999360, Note_on_c, 1, 37, 40
1, 9999840, Note_off_c, 1, 37, 0
1, 9999840, Note_on_c, 1, 40, 40
1, 10000080, Note_off_c, 1, 40, 0
1, 10000080, Note_on_c, 1, 42, 40
1, 10000320, Note_off_c, 1, 42, 0
1, 10000320, Note_on_c, 1, 40, 40
1, 10000560, Note_off_c, 1, 40, 0
1, 10000560, Note_on_c, 1, 33, 40
1, 10001040, Note_off_c, 1, 33, 0
1, 10001280, Note_on_c, 1, 37, 40
1, 10001760, Note_off_c, 1, 37, 0
1, 10001760, Note_on_c, 1, 40, 40
1, 10002000, Note_off_c, 1, 40, 0
1, 10002000, Note_on_c, 1, 42, 40
1, 10002240, Note_off_c, 1, 42, 0
1, 10002240, Note_on_c, 1, 40, 40
1, 10002480, Note_off_c, 1, 40, 0
1, 10002480, Note_on_c, 1, 33, 40
1, 10002960, Note_off_c, 1, 33, 0
1, 10003200, Note_on_c, 1, 37, 40
1, 10003680, Note_off_c, 1, 37, 0
1, 10003680, Note_on_c, 1, 40, 40
1, 10003920, Note_off_c, 1, 40, 0
1, 10003920, Note_on_c, 1, 42, 40
1, 10004160, Note_off_c, 1, 42, 0
1, 10004160, Note_on_c, 1, 40, 40
1, 10004400, Note_off_c, 1, 40, 0
1, 10004400, Note_on_c, 1, 33, 40
1, 10004880, Note_off_c, 1, 33, 0
1, 10005120, Note_on_c, 1, 37, 40
1, 10005600, Note_off_c, 1, 37, 0
1, 10005600, Note_on_c, 1, 40, 40
1, 10005840, Note_off_c, 1, 40, 0
1, 10005840, Note_on_c, 1, 42, 40
1, 10006080, Note_off_c, 1, 42, 0
1, 10006080, Note_on_c, 1, 40, 40
1, 10006320, Note_off_c, 1, 40, 0
1, 10006320, Note_on_c, 1, 33, 40
1, 10006800, Note_off_c, 1, 33, 0
1, 10007040, Note_on_c, 1, 37, 40
1, 10007520, Note_off_c, 1, 37, 0
1, 10007520, Note_on_c, 1, 40, 40
1, 10007760, Note_off_c, 1, 40, 0
1, 10007760, Note_on_c, 1, 42, 40
1, 10008000, Note_off_c, 1, 42, 0
1, 10008000, Note_on_c, 1, 40, 40
1, 10008240, Note_off_c, 1, 40, 0
1, 10008240, Note_on_c, 1, 38, 40
1, 10008720, Note_off_c, 1, 38, 0
1, 10008960, Note_on_c, 1, 42, 40
1, 10009440, Note_off_c, 1, 42, 0
1, 10009440, Note_on_c, 1, 45, 40
1, 10009680, Note_off_c, 1, 45, 0
1, 10009680, Note_on_c, 1, 47, 40
1, 10009920, Note_off_c, 1, 47, 0
1, 10009920, Note_on_c, 1, 45, 40
1, 10010160, Note_off_c, 1, 45, 0
1, 10010160, Note_on_c, 1, 38, 40
1, 10010640, Note_off_c, 1, 38, 0
1, 10010880, Note_on_c, 1, 42, 40
1, 10011360, Note_off_c, 1, 42, 0
1, 10011360, Note_on_c, 1, 45, 40
1, 10011600, Note_off_c, 1, 45, 0
1, 10011600, Note_on_c, 1, 47, 40
1, 10011840, Note_off_c, 1, 47, 0
1, 10011840, Note_on_c, 1, 45, 40
1, 10012080, Note_off_c, 1, 45, 0
1, 10012080, Note_on_c, 1, 33, 40
1, 10012560, Note_off_c, 1, 33, 0
1, 10012800, Note_on_c, 1, 37, 40
1, 10013280, Note_off_c, 1, 37, 0
1, 10013280, Note_on_c, 1, 40, 40
1, 10013520, Note_off_c, 1, 40, 0
1, 10013520, Note_on_c, 1, 42, 40
1, 10013760, Note_off_c, 1, 42, 0
1, 10013760, Note_on_c, 1, 40, 40
1, 10014000, Note_off_c, 1, 40, 0
1, 10014000, Note_on_c, 1, 33, 40
1, 10014480, Note_off_c, 1, 33, 0
1, 10014720, Note_on_c, 1, 37, 40
1, 10015200, Note_off_c, 1, 37, 0
1, 10015200, Note_on_c, 1, 40, 40
1, 10015440, Note_off_c, 1, 40, 0
1, 10015440, Note_on_c, 1, 42, 40
1, 10015680, Note_off_c, 1, 42, 0
1, 10015680, Note_on_c, 1, 40, 40
1, 10015920, Note_off_c, 1, 40, 0
1, 10015920, Note_on_c, 1, 40, 40
1, 10016400, Note_off_c, 1, 40, 0
1, 10016640, Note_on_c, 1, 44, 40
1, 10017120, Note_off_c, 1, 44, 0
1, 10017120, Note_on_c, 1, 47, 40
1, 10017360, Note_off_c, 1, 47, 0
1, 10017360, Note_on_c, 1, 49, 40
1, 10017600, Note_off_c, 1, 49, 0
1, 10017600, Note_on_c, 1, 47, 40
1, 10017840, Note_off_c, 1, 47, 0
1, 10017840, Note_on_c, 1, 40, 40
1, 10018320, Note_off_c, 1, 40, 0
1, 10018560, Note_on_c, 1, 44, 40
1, 10019040, Note_off_c, 1, 44, 0
1, 10019040, Note_on_c, 1, 47, 40
1, 10019280, Note_off_c, 1, 47, 0
1, 10019280, Note_on_c, 1, 49, 40
1, 10019520, Note_off_c, 1, 49, 0
1, 10019520, Note_on_c, 1, 47, 40
1, 10019760, Note_off_c, 1, 47, 0
1, 10019760, Note_on_c, 1, 33, 40
1, 10020240, Note_off_c, 1, 33, 0
1, 10020480, Note_on_c, 1, 37, 40
1, 10020960, Note_off_c, 1, 37, 0
1, 10020960, Note_on_c, 1, 40, 40
1, 10021200, Note_off_c, 1, 40, 0
1, 10021200, Note_on_c, 1, 42, 40
1, 10021440, Note_off_c, 1, 42, 0
1, 10021440, Note_on_c, 1, 40, 40
1, 10021680, Note_off_c, 1, 40, 0
1, 10021680, Note_on_c, 1, 33, 40
1, 10022160, Note_off_c, 1, 33, 0
1, 10022400, Note_on_c, 1, 37, 40
1, 10022880, Note_off_c, 1, 37, 0
1, 10022880, Note_on_c, 1, 40, 40
1, 10023120, Note_off_c, 1, 40, 0
1, 10023120, Note_on_c, 1, 42, 40
1, 10023360, Note_off_c, 1, 42, 0
1, 10023360, Note_on_c, 1, 40, 40
1, 10023600, Note_off_c, 1, 40, 0
1, 10023600, Note_on_c, 1, 33, 40
1, 10024080, Note_off_c, 1, 33, 0
1, 10024320, Note_on_c, 1, 37, 40
1, 10024800, Note_off_c, 1, 37, 0
1, 10024800, Note_on_c, 1, 40, 40
1, 10025040, Note_off_c, 1, 40, 0
1, 10025040, Note_on_c, 1, 42, 40
1, 10025280, Note_off_c, 1, 42, 0
1, 10025280, Note_on_c, 1, 40, 40
1, 10025520, Note_off_c, 1, 40, 0
1, 10025520, Note_on_c, 1, 33, 40
1, 10026000, Note_off_c, 1, 33, 0
1, 10026240, Note_on_c, 1, 37, 40
1, 10026720, Note_off_c, 1, 37, 0
1, 10026720, Note_on_c, 1, 40, 40
1, 10026960, Note_off_c, 1, 40, 0
1, 10026960, Note_on_c, 1, 42, 40
1, 10027200, Note_off_c, 1, 42, 0
1, 10027200, Note_on_c, 1, 40, 40
1, 10027440, Note_off_c, 1, 40, 0
1, 10027440, Note_on_c, 1, 33, 40
1, 10027920, Note_off_c, 1, 33, 0
1, 10028160, Note_on_c, 1, 37, 40
1, 10028640, Note_off_c, 1, 37, 0
1, 10028640, Note_on_c, 1, 40, 40
1, 10028880, Note_off_c, 1, 40, 0
1, 10028880, Note_on_c, 1, 42, 40
1, 10029120, Note_off_c, 1, 42, 0
1, 10029120, Note_on_c, 1, 40, 40
1, 10029360, Note_off_c, 1, 40, 0
1, 10029360, Note_on_c, 1, 33, 40
1, 10029840, Note_off_c, 1, 33, 0
1, 10030080, Note_on_c, 1, 37, 40
1, 10030560, Note_off_c, 1, 37, 0
1, 10030560, Note_on_c, 1, 40, 40
1, 10030800, Note_off_c, 1, 40, 0
1, 10030800, Note_on_c, 1, 42, 40
1, 10031040, Note_off_c, 1, 42, 0
1, 10031040, Note_on_c, 1, 40, 40
1, 10031280, Note_off_c, 1, 40, 0
1, 10031280, Note_on_c, 1, 33, 40
1, 10031760, Note_off_c, 1, 33, 0
1, 10032000, Note_on_c, 1, 37, 40
1, 10032480, Note_off_c, 1, 37, 0
1, 10032480, Note_on_c, 1, 40, 40
1, 10032720, Note_off_c, 1, 40, 0
1, 10032720, Note_on_c, 1, 42, 40
1, 10032960, Note_off_c, 1, 42, 0
1, 10032960, Note_on_c, 1, 40, 40
1, 10033200, Note_off_c, 1, 40, 0
1, 10033200, Note_on_c, 1, 33, 40
1, 10033680, Note_off_c, 1, 33, 0
1, 10033920, Note_on_c, 1, 37, 40
1, 10034400, Note_off_c, 1, 37, 0
1, 10034400, Note_on_c, 1, 40, 40
1, 10034640, Note_off_c, 1, 40, 0
1, 10034640, Note_on_c, 1, 42, 40
1, 10034880, Note_off_c, 1, 42, 0
1, 10034880, Note_on_c, 1, 40, 40
1, 10035120, Note_off_c, 1, 40, 0
1, 10035120, Note_on_c, 1, 33, 40
1, 10035600, Note_off_c, 1, 33, 0
1, 10035840, Note_on_c, 1, 37, 40
1, 10036320, Note_off_c, 1, 37, 0
1, 10036320, Note_on_c, 1, 40, 40
1, 10036560, Note_off_c, 1, 40, 0
1, 10036560, Note_on_c, 1, 42, 40
1, 10036800, Note_off_c, 1, 42, 0
1, 10036800, Note_on_c, 1, 40, 40
1, 10037040, Note_off_c, 1, 40, 0
1, 10037040, Note_on_c, 1, 33, 40
1, 10037520, Note_off_c, 1, 33, 0
1, 10037760, Note_on_c, 1, 37, 40
1, 10038240, Note_off_c, 1, 37, 0
1, 10038240, Note_on_c, 1, 40, 40
1, 10038480, Note_off_c, 1, 40, 0
1, 10038480, Note_on_c, 1, 42, 40
1, 10038720, Note_off_c, 1, 42, 0
1, 10038720, Note_on_c, 1, 40, 40
1, 10038960, Note_off_c, 1, 40, 0
1, 10038960, Note_on_c, 1, 38, 40
1, 10039440, Note_off_c, 1, 38, 0
1, 10039680, Note_on_c, 1, 42, 40
1, 10040160, Note_off_c, 1, 42, 0
1, 10040160, Note_on_c, 1, 45, 40
1, 10040400, Note_off_c, 1, 45, 0
1, 10040400, Note_on_c, 1, 47, 40
1, 10040640, Note_off_c, 1, 47, 0
1, 10040640, Note_on_c, 1, 45, 40
1, 10040880, Note_off_c, 1, 45, 0
1, 10040880, Note_on_c, 1, 38, 40
1, 10041360, Note_off_c, 1, 38, 0
1, 10041600, Note_on_c, 1, 42, 40
1, 10042080, Note_off_c, 1, 42, 0
1, 10042080, Note_on_c, 1, 45, 40
1, 10042320, Note_off_c, 1, 45, 0
1, 10042320, Note_on_c, 1, 47, 40
1, 10042560, Note_off_c, 1, 47, 0
1, 10042560, Note_on_c, 1, 45, 40
1, 10042800, Note_off_c, 1, 45, 0
1, 10042800, Note_on_c, 1, 33, 40
1, 10043280, Note_off_c, 1, 33, 0
1, 10043520, Note_on_c, 1, 37, 40
1, 10044000, Note_off_c, 1, 37, 0
1, 10044000, Note_on_c, 1, 40, 40
1, 10044240, Note_off_c, 1, 40, 0
1, 10044240, Note_on_c, 1, 42, 40
1, 10044480, Note_off_c, 1, 42, 0
1, 10044480, Note_on_c, 1, 40, 40
1, 10044720, Note_off_c, 1, 40, 0
1, 10044720, Note_on_c, 1, 33, 40
1, 10045200, Note_off_c, 1, 33, 0
1, 10045440, Note_on_c, 1, 37, 40
1, 10045920, Note_off_c, 1, 37, 0
1, 10045920, Note_on_c, 1, 40, 40
1, 10046160, Note_off_c, 1, 40, 0
1, 10046160, Note_on_c, 1, 42, 40
1, 10046400, Note_off_c, 1, 42, 0
1, 10046400, Note_on_c, 1, 40, 40
1, 10046640, Note_off_c, 1, 40, 0
1, 10046640, Note_on_c, 1, 40, 40
1, 10047120, Note_off_c, 1, 40, 0
1, 10047360, Note_on_c, 1, 44, 40
1, 10047840, Note_off_c, 1, 44, 0
1, 10047840, Note_on_c, 1, 47, 40
1, 10048080, Note_off_c, 1, 47, 0
1, 10048080, Note_on_c, 1, 49, 40
1, 10048320, Note_off_c, 1, 49, 0
1, 10048320, Note_on_c, 1, 47, 40
1, 10048560, Note_off_c, 1, 47, 0
1, 10048560, Note_on_c, 1, 40, 40
1, 10049040, Note_off_c, 1, 40, 0
1, 10049280, Note_on_c, 1, 44, 40
1, 10049760, Note_off_c, 1, 44, 0
1, 10049760, Note_on_c, 1, 47, 40
1, 10050000, Note_off_c, 1, 47, 0
1, 10050000, Note_on_c, 1, 49, 40
1, 10050240, Note_off_c, 1, 49, 0
1, 10050240, Note_on_c, 1, 47, 40
1, 10050480, Note_off_c, 1, 47, 0
1, 10050480, Note_on_c, 1, 33, 40
1, 10050960, Note_off_c, 1, 33, 0
1, 10051200, Note_on_c, 1, 37, 40
1, 10051680, Note_off_c, 1, 37, 0
1, 10051680, Note_on_c, 1, 40, 40
1, 10051920, Note_off_c, 1, 40, 0
1, 10051920, Note_on_c, 1, 42, 40
1, 10052160, Note_off_c, 1, 42, 0
1, 10052160, Note_on_c, 1, 40, 40
1, 10052400, Note_off_c, 1, 40, 0
1, 10052400, Note_on_c, 1, 33, 40
1, 10052880, Note_off_c, 1, 33, 0
1, 10053120, Note_on_c, 1, 37, 40
1, 10053600, Note_off_c, 1, 37, 0
1, 10053600, Note_on_c, 1, 40, 40
1, 10053840, Note_off_c, 1, 40, 0
1, 10053840, Note_on_c, 1, 42, 40
1, 10054080, Note_off_c, 1, 42, 0
1, 10054080, Note_on_c, 1, 40, 40
1, 10054320, Note_off_c, 1, 40, 0
1, 10054320, Note_on_c, 1, 33, 40
1, 10054800, Note_off_c, 1, 33, 0
1, 10055040, Note_on_c, 1, 37, 40
1, 10055520, Note_off_c, 1, 37, 0
1, 10055520, Note_on_c, 1, 40, 40
1, 10055760, Note_off_c, 1, 40, 0
1, 10055760, Note_on_c, 1, 42, 40
1, 10056000, Note_off_c, 1, 42, 0
1, 10056000, Note_on_c, 1, 40, 40
1, 10056240, Note_off_c, 1, 40, 0
1, 10056240, Note_on_c, 1, 33, 40
1, 10056720, Note_off_c, 1, 33, 0
1, 10056960, Note_on_c, 1, 37, 40
1, 10057440, Note_off_c, 1, 37, 0
1, 10057440, Note_on_c, 1, 40, 40
1, 10057680, Note_off_c, 1, 40, 0
1, 10057680, Note_on_c, 1, 42, 40
1, 10057920, Note_off_c, 1, 42, 0
1, 10057920, Note_on_c, 1, 40, 40
1, 10058160, Note_off_c, 1, 40, 0
1, 10058160, Note_on_c, 1, 33, 40
1, 10058640, Note_off_c, 1, 33, 0
1, 10058880, Note_on_c, 1, 37, 40
1, 10059360, Note_off_c, 1, 37, 0
1, 10059360, Note_on_c, 1, 40, 40
1, 10059600, Note_off_c, 1, 40, 0
1, 10059600, Note_on_c, 1, 42, 40
1, 10059840, Note_off_c, 1, 42, 0
1, 10059840, Note_on_c, 1, 40, 40
1, 10060080, Note_off_c, 1, 40, 0
1, 10060080, Note_on_c, 1, 33, 40
1, 10060560, Note_off_c, 1, 33, 0
1, 10060800, Note_on_c, 1, 37, 40
1, 10061280, Note_off_c, 1, 37, 0
1, 10061280, Note_on_c, 1, 40, 40
1, 10061520, Note_off_c, 1, 40, 0
1, 10061520, Note_on_c, 1, 42, 40
1, 10061760, Note_off_c, 1, 42, 0
1, 10061760, Note_on_c, 1, 40, 40
1, 10062000, Note_off_c, 1, 40, 0
1, 10062000, Note_on_c, 1, 33, 40
1, 10062480, Note_off_c, 1, 33, 0
1, 10062720, Note_on_c, 1, 37, 40
1, 10063200, Note_off_c, 1, 37, 0
1, 10063200, Note_on_c, 1, 40, 40
1, 10063440, Note_off_c, 1, 40, 0
1, 10063440, Note_on_c, 1, 42, 40
1, 10063680, Note_off_c, 1, 42, 0
1, 10063680, Note_on_c, 1, 40, 40
1, 10063920, Note_off_c, 1, 40, 0
1, 10063920, Note_on_c, 1, 33, 40
1, 10064400, Note_off_c, 1, 33, 0
1, 10064640, Note_on_c, 1, 37, 40
1, 10065120, Note_off_c, 1, 37, 0
1, 10065120, Note_on_c, 1, 40, 40
1, 10065360, Note_off_c, 1, 40, 0
1, 10065360, Note_on_c, 1, 42, 40
1, 10065600, Note_off_c, 1, 42, 0
1, 10065600, Note_on_c, 1, 40, 40
1, 10065840, Note_off_c, 1, 40, 0
1, 10065840, Note_on_c, 1, 33, 40
1, 10066320, Note_off_c, 1, 33, 0
1, 10066560, Note_on_c, 1, 37, 40
1, 10067040, Note_off_c, 1, 37, 0
1, 10067040, Note_on_c, 1, 40, 40
1, 10067280, Note_off_c, 1, 40, 0
1, 10067280, Note_on_c, 1, 42, 40
1, 10067520, Note_off_c, 1, 42, 0
1, 10067520, Note_on_c, 1, 40, 40
1, 10067760, Note_off_c, 1, 40, 0
1, 10067760, Note_on_c, 1, 33, 40
1, 10068240, Note_off_c, 1, 33, 0
1, 10068480, Note_on_c, 1, 37, 40
1, 10068960, Note_off_c, 1, 37, 0
1, 10068960, Note_on_c, 1, 40, 40
1, 10069200, Note_off_c, 1, 40, 0
1, 10069200, Note_on_c, 1, 42, 40
1, 10069440, Note_off_c, 1, 42, 0
1, 10069440, Note_on_c, 1, 40, 40
1, 10069680, Note_off_c, 1, 40, 0
1, 10069680, Note_on_c, 1, 38, 40
1, 10070160, Note_off_c, 1, 38, 0
1, 10070400, Note_on_c, 1, 42, 40
1, 10070880, Note_off_c, 1, 42, 0
1, 10070880, Note_on_c, 1, 45, 40
1, 10071120, Note_off_c, 1, 45, 0
1, 10071120, Note_on_c, 1, 47, 40
1, 10071360, Note_off_c, 1, 47, 0
1, 10071360, Note_on_c, 1, 45, 40
1, 10071600, Note_off_c, 1, 45, 0
1, 10071600, Note_on_c, 1, 38, 40
1, 10072080, Note_off_c, 1, 38, 0
1, 10072320, Note_on_c, 1, 42, 40
1, 10072800, Note_off_c, 1, 42, 0
1, 10072800, Note_on_c, 1, 45, 40
1, 10073040, Note_off_c, 1, 45, 0
1, 10073040, Note_on_c, 1, 47, 40
1, 10073280, Note_off_c, 1, 47, 0
1, 10073280, Note_on_c, 1, 45, 40
1, 10073520, Note_off_c, 1, 45, 0
1, 10073520, Note_on_c, 1, 33, 40
1, 10074000, Note_off_c, 1, 33, 0
1, 10074240, Note_on_c, 1, 37, 40
1, 10074720, Note_off_c, 1, 37, 0
1, 10074720, Note_on_c, 1, 40, 40
1, 10074960, Note_off_c, 1, 40, 0
1, 10074960, Note_on_c, 1, 42, 40
1, 10075200, Note_off_c, 1, 42, 0
1, 10075200, Note_on_c, 1, 40, 40
1, 10075440, Note_off_c, 1, 40, 0
1, 10075440, Note_on_c, 1, 33, 40
1, 10075920, Note_off_c, 1, 33, 0
1, 10076160, Note_on_c, 1, 37, 40
1, 10076640, Note_off_c, 1, 37, 0
1, 10076640, Note_on_c, 1, 40, 40
1, 10076880, Note_off_c, 1, 40, 0
1, 10076880, Note_on_c, 1, 42, 40
1, 10077120, Note_off_c, 1, 42, 0
1, 10077120, Note_on_c, 1, 40, 40
1, 10077360, Note_off_c, 1, 40, 0
1, 10077360, Note_on_c, 1, 40, 40
1, 10077840, Note_off_c, 1, 40, 0
1, 10078080, Note_on_c, 1, 44, 40
1, 10078560, Note_off_c, 1, 44, 0
1, 10078560, Note_on_c, 1, 47, 40
1, 10078800, Note_off_c, 1, 47, 0
1, 10078800, Note_on_c, 1, 49, 40
1, 10079040, Note_off_c, 1, 49, 0
1, 10079040, Note_on_c, 1, 47, 40
1, 10079280, Note_off_c, 1, 47, 0
1, 10079280, Note_on_c, 1, 40, 40
1, 10079760, Note_off_c, 1, 40, 0
1, 10080000, Note_on_c, 1, 44, 40
1, 10080480, Note_off_c, 1, 44, 0
1, 10080480, Note_on_c, 1, 47, 40
1, 10080720, Note_off_c, 1, 47, 0
1, 10080720, Note_on_c, 1, 49, 40
1, 10080960, Note_off_c, 1, 49, 0
1, 10080960, Note_on_c, 1, 47, 40
1, 10081200, Note_off_c, 1, 47, 0
1, 10081200, Note_on_c, 1, 33, 40
1, 10081680, Note_off_c, 1, 33, 0
1, 10081920, Note_on_c, 1, 37, 40
1, 10082400, Note_off_c, 1, 37, 0
1, 10082400, Note_on_c, 1, 40, 40
1, 10082640, Note_off_c, 1, 40, 0
1, 10082640, Note_on_c, 1, 42, 40
1, 10082880, Note_off_c, 1, 42, 0
1, 10082880, Note_on_c, 1, 40, 40
1, 10083120, Note_off_c, 1, 40, 0
1, 10083120, Note_on_c, 1, 33, 40
1, 10083600, Note_off_c, 1, 33, 0
1, 10083840, Note_on_c, 1, 37, 40
1, 10084320, Note_off_c, 1, 37, 0
1, 10084320, Note_on_c, 1, 40, 40
1, 10084560, Note_off_c, 1, 40, 0
1, 10084560, Note_on_c, 1, 42, 40
1, 10084800, Note_off_c, 1, 42, 0
1, 10084800, Note_on_c, 1, 40, 40
1, 10085040, Note_off_c, 1, 40, 0
1, 10085040, Note_on_c, 1, 38, 40
1, 10085520, Note_off_c, 1, 38, 0
1, 10085760, Note_on_c, 1, 42, 40
1, 10086240, Note_off_c, 1, 42, 0
1, 10086240, Note_on_c, 1, 45, 40
1, 10086480, Note_off_c, 1, 45, 0
1, 10086480, Note_on_c, 1, 47, 40
1, 10086720, Note_off_c, 1, 47, 0
1, 10086720, Note_on_c, 1, 45, 40
1, 10086960, Note_off_c, 1, 45, 0
1, 10086960, Note_on_c, 1, 38, 40
1, 10087440, Note_off_c, 1, 38, 0
1, 10087680, Note_on_c, 1, 42, 40
1, 10088160, Note_off_c, 1, 42, 0
1, 10088160, Note_on_c, 1, 45, 40
1, 10088400, Note_off_c, 1, 45, 0
1, 10088400, Note_on_c, 1, 47, 40
1, 10088640, Note_off_c, 1, 47, 0
1, 10088640, Note_on_c, 1, 45, 40
1, 10088880, Note_off_c, 1, 45, 0
1, 10088880, Note_on_c, 1, 38, 40
1, 10089360, Note_off_c, 1, 38, 0
1, 10089600, Note_on_c, 1, 42, 40
1, 10090080, Note_off_c, 1, 42, 0
1, 10090080, Note_on_c, 1, 45, 40
1, 10090320, Note_off_c, 1, 45, 0
1, 10090320, Note_on_c, 1, 47, 40
1, 10090560, Note_off_c, 1, 47, 0
1, 10090560, Note_on_c, 1, 45, 40
1, 10090800, Note_off_c, 1, 45, 0
1, 10090800, Note_on_c, 1, 38, 40
1, 10091280, Note_off_c, 1, 38, 0
1, 10091520, Note_on_c, 1, 42, 40
1, 10092000, Note_off_c, 1, 42, 0
1, 10092000, Note_on_c, 1, 45, 40
1, 10092240, Note_off_c, 1, 45, 0
1, 10092240, Note_on_c, 1, 47, 40
1, 10092480, Note_off_c, 1, 47, 0
1, 10092480, Note_on_c, 1, 45, 40
1, 10092720, Note_off_c, 1, 45, 0
1, 10092720, Note_on_c, 1, 38, 40
1, 10093200, Note_off_c, 1, 38, 0
1, 10093440, Note_on_c, 1, 42, 40
1, 10093920, Note_off_c, 1, 42, 0
1, 10093920, Note_on_c, 1, 45, 40
1, 10094160, Note_off_c, 1, 45, 0
1, 10094160, Note_on_c, 1, 47, 40
1, 10094400, Note_off_c, 1, 47, 0
1, 10094400, Note_on_c, 1, 45, 40
1, 10094640, Note_off_c, 1, 45, 0
1, 10094640, Note_on_c, 1, 38, 40
1, 10095120, Note_off_c, 1, 38, 0
1, 10095360, Note_on_c, 1, 42, 40
1, 10095840, Note_off_c, 1, 42, 0
1, 10095840, Note_on_c, 1, 45, 40
1, 10096080, Note_off_c, 1, 45, 0
1, 10096080, Note_on_c, 1, 47, 40
1, 10096320, Note_off_c, 1, 47, 0
1, 10096320, Note_on_c, 1, 45, 40
1, 10096560, Note_off_c, 1, 45, 0
1, 10096560, Note_on_c, 1, 40, 40
1, 10097040, Note_off_c, 1, 40, 0
1, 10097280, Note_on_c, 1, 44, 40
1, 10097760, Note_off_c, 1, 44, 0
1, 10097760, Note_on_c, 1, 47, 40
1, 10098000, Note_off_c, 1, 47, 0
1, 10098000, Note_on_c, 1, 49, 40
1, 10098240, Note_off_c, 1, 49, 0
1, 10098240, Note_on_c, 1, 47, 40
1, 10098480, Note_off_c, 1, 47, 0
1, 10098480, Note_on_c, 1, 40, 40
1, 10098960, Note_off_c, 1, 40, 0
1, 10099200, Note_on_c, 1, 44, 40
1, 10099680, Note_off_c, 1, 44, 0
1, 10099680, Note_on_c, 1, 47, 40
1, 10099920, Note_off_c, 1, 47, 0
1, 10101360, Note_on_c, 1, 33, 40
1, 10101840, Note_off_c, 1, 33, 0
1, 10102080, Note_on_c, 1, 37, 40
1, 10102560, Note_off_c, 1, 37, 0
1, 10102560, Note_on_c, 1, 40, 40
1, 10102800, Note_off_c, 1, 40, 0
1, 10102800, Note_on_c, 1, 42, 40
1, 10103040, Note_off_c, 1, 42, 0
1, 10103040, Note_on_c, 1, 40, 40
1, 10103280, Note_off_c, 1, 40, 0
1, 10103280, Note_on_c, 1, 33, 40
1, 10103760, Note_off_c, 1, 33, 0
1, 10104000, Note_on_c, 1, 37, 40
1, 10104480, Note_off_c, 1, 37, 0
1, 10104480, Note_on_c, 1, 40, 40
1, 10104720, Note_off_c, 1, 40, 0
1, 10104720, Note_on_c, 1, 42, 40
1, 10104960, Note_off_c, 1, 42, 0
1, 10104960, Note_on_c, 1, 40, 40
1, 10105200, Note_off_c, 1, 40, 0
1, 10105200, Note_on_c, 1, 33, 40
1, 10105680, Note_off_c, 1, 33, 0
1, 10105920, Note_on_c, 1, 37, 40
1, 10106400, Note_off_c, 1, 37, 0
1, 10106400, Note_on_c, 1, 40, 40
1, 10106640, Note_off_c, 1, 40, 0
1, 10106640, Note_on_c, 1, 42, 40
1, 10106880, Note_off_c, 1, 42, 0
1, 10106880, Note_on_c, 1, 40, 40
1, 10107120, Note_off_c, 1, 40, 0
1, 10107120, Note_on_c, 1, 33, 40
1, 10107600, Note_off_c, 1, 33, 0
1, 10107840, Note_on_c, 1, 37, 40
1, 10108320, Note_off_c, 1, 37, 0
1, 10108320, Note_on_c, 1, 40, 40
1, 10108560, Note_off_c, 1, 40, 0
1, 10108560, Note_on_c, 1, 42, 40
1, 10108800, Note_off_c, 1, 42, 0
1, 10108800, Note_on_c, 1, 40, 40
1, 10109040, Note_off_c, 1, 40, 0
1, 10109040, Note_on_c, 1, 33, 40
1, 10109520, Note_off_c, 1, 33, 0
1, 10109760, Note_on_c, 1, 37, 40
1, 10110240, Note_off_c, 1, 37, 0
1, 10110240, Note_on_c, 1, 40, 40
1, 10110480, Note_off_c, 1, 40, 0
1, 10110480, Note_on_c, 1, 42, 40
1, 10110720, Note_off_c, 1, 42, 0
1, 10110720, Note_on_c, 1, 40, 40
1, 10110960, Note_off_c, 1, 40, 0
1, 10110960, Note_on_c, 1, 33, 40
1, 10111440, Note_off_c, 1, 33, 0
1, 10111680, Note_on_c, 1, 37, 40
1, 10112160, Note_off_c, 1, 37, 0
1, 10112160, Note_on_c, 1, 40, 40
1, 10112400, Note_off_c, 1, 40, 0
1, 10112400, Note_on_c, 1, 42, 40
1, 10112640, Note_off_c, 1, 42, 0
1, 10112640, Note_on_c, 1, 40, 40
1, 10112880, Note_off_c, 1, 40, 0
1, 10112880, Note_on_c, 1, 33, 40
1, 10113360, Note_off_c, 1, 33, 0
1, 10113600, Note_on_c, 1, 37, 40
1, 10114080, Note_off_c, 1, 37, 0
1, 10114080, Note_on_c, 1, 40, 40
1, 10114320, Note_off_c, 1, 40, 0
1, 10114320, Note_on_c, 1, 42, 40
1, 10114560, Note_off_c, 1, 42, 0
1, 10114560, Note_on_c, 1, 40, 40
1, 10114800, Note_off_c, 1, 40, 0
1, 10114800, Note_on_c, 1, 33, 40
1, 10115280, Note_off_c, 1, 33, 0
1, 10115520, Note_on_c, 1, 37, 40
1, 10116000, Note_off_c, 1, 37, 0
1, 10116000, Note_on_c, 1, 40, 40
1, 10116240, Note_off_c, 1, 40, 0
1, 10116240, Note_on_c, 1, 42, 40
1, 10116480, Note_off_c, 1, 42, 0
1, 10116480, Note_on_c, 1, 40, 40
1, 10116720, Note_off_c, 1, 40, 0
1, 10116720, Note_on_c, 1, 38, 40
1, 10117200, Note_off_c, 1, 38, 0
1, 10117440, Note_on_c, 1, 42, 40
1, 10117920, Note_off_c, 1, 42, 0
1, 10117920, Note_on_c, 1, 45, 40
1, 10118160, Note_off_c, 1, 45, 0
1, 10118160, Note_on_c, 1, 47, 40
1, 10118400, Note_off_c, 1, 47, 0
1, 10118400, Note_on_c, 1, 45, 40
1, 10118640, Note_off_c, 1, 45, 0
1, 10118640, Note_on_c, 1, 38, 40
1, 10119120, Note_off_c, 1, 38, 0
1, 10119360, Note_on_c, 1, 42, 40
1, 10119840, Note_off_c, 1, 42, 0
1, 10119840, Note_on_c, 1, 45, 40
1, 10120080, Note_off_c, 1, 45, 0
1, 10120080, Note_on_c, 1, 47, 40
1, 10120320, Note_off_c, 1, 47, 0
1, 10120320, Note_on_c, 1, 45, 40
1, 10120560, Note_off_c, 1, 45, 0
1, 10120560, Note_on_c, 1, 33, 40
1, 10121040, Note_off_c, 1, 33, 0
1, 10121280, Note_on_c, 1, 37, 40
1, 10121760, Note_off_c, 1, 37, 0
1, 10121760, Note_on_c, 1, 40, 40
1, 10122000, Note_off_c, 1, 40, 0
1, 10122000, Note_on_c, 1, 42, 40
1, 10122240, Note_off_c, 1, 42, 0
1, 10122240, Note_on_c, 1, 40, 40
1, 10122480, Note_off_c, 1, 40, 0
1, 10122480, Note_on_c, 1, 33, 40
1, 10122960, Note_off_c, 1, 33, 0
1, 10123200, Note_on_c, 1, 37, 40
1, 10123680, Note_off_c, 1, 37, 0
1, 10123680, Note_on_c, 1, 40, 40
1, 10123920, Note_off_c, 1, 40, 0
1, 10123920, Note_on_c, 1, 42, 40
1, 10124160, Note_off_c, 1, 42, 0
1, 10124160, Note_on_c, 1, 40, 40
1, 10124400, Note_off_c, 1, 40, 0
1, 10124400, Note_on_c, 1, 40, 40
1, 10124880, Note_off_c, 1, 40, 0
1, 10125120, Note_on_c, 1, 44, 40
1, 10125600, Note_off_c, 1, 44, 0
1, 10125600, Note_on_c, 1, 47, 40
1, 10125840, Note_off_c, 1, 47, 0
1, 10125840, Note_on_c, 1, 49, 40
1, 10126080, Note_off_c, 1, 49, 0
1, 10126080, Note_on_c, 1, 47, 40
1, 10126320, Note_off_c, 1, 47, 0
1, 10126320, Note_on_c, 1, 40, 40
1, 10126800, Note_off_c, 1, 40, 0
1, 10127040, Note_on_c, 1, 44, 40
1, 10127520, Note_off_c, 1, 44, 0
1, 10127520, Note_on_c, 1, 47, 40
1, 10127760, Note_off_c, 1, 47, 0
1, 10127760, Note_on_c, 1, 49, 40
1, 10128000, Note_off_c, 1, 49, 0
1, 10128000, Note_on_c, 1, 47, 40
1, 10128240, Note_off_c, 1, 47, 0
1, 10128240, Note_on_c, 1, 33, 40
1, 10128720, Note_off_c, 1, 33, 0
1, 10128960, Note_on_c, 1, 37, 40
1, 10129440, Note_off_c, 1, 37, 0
1, 10129440, Note_on_c, 1, 40, 40
1, 10129680, Note_off_c, 1, 40, 0
1, 10129680, Note_on_c, 1, 42, 40
1, 10129920, Note_off_c, 1, 42, 0
1, 10129920, Note_on_c, 1, 40, 40
1, 10130160, Note_off_c, 1, 40, 0
1, 10130160, Note_on_c, 1, 33, 40
1, 10130640, Note_off_c, 1, 33, 0
1, 10130880, Note_on_c, 1, 37, 40
1, 10131360, Note_off_c, 1, 37, 0
1, 10131360, Note_on_c, 1, 40, 40
1, 10131600, Note_off_c, 1, 40, 0
1, 10131600, Note_on_c, 1, 42, 40
1, 10131840, Note_off_c, 1, 42, 0
1, 10131840, Note_on_c, 1, 40, 40
1, 10132080, Note_off_c, 1, 40, 0
1, 10132080, Note_on_c, 1, 33, 40
1, 10132560, Note_off_c, 1, 33, 0
1, 10132800, Note_on_c, 1, 37, 40
1, 10133280, Note_off_c, 1, 37, 0
1, 10133280, Note_on_c, 1, 40, 40
1, 10133520, Note_off_c, 1, 40, 0
1, 10133520, Note_on_c, 1, 42, 40
1, 10133760, Note_off_c, 1, 42, 0
1, 10133760, Note_on_c, 1, 40, 40
1, 10134000, Note_off_c, 1, 40, 0
1, 10134000, Note_on_c, 1, 33, 40
1, 10134480, Note_off_c, 1, 33, 0
1, 10134720, Note_on_c, 1, 37, 40
1, 10135200, Note_off_c, 1, 37, 0
1, 10135200, Note_on_c, 1, 40, 40
1, 10135440, Note_off_c, 1, 40, 0
1, 10135440, Note_on_c, 1, 42, 40
1, 10135680, Note_off_c, 1, 42, 0
1, 10135680, Note_on_c, 1, 40, 40
1, 10135920, Note_off_c, 1, 40, 0
1, 10135920, Note_on_c, 1, 33, 40
1, 10136400, Note_off_c, 1, 33, 0
1, 10136640, Note_on_c, 1, 37, 40
1, 10137120, Note_off_c, 1, 37, 0
1, 10137120, Note_on_c, 1, 40, 40
1, 10137360, Note_off_c, 1, 40, 0
1, 10137360, Note_on_c, 1, 42, 40
1, 10137600, Note_off_c, 1, 42, 0
1, 10137600, Note_on_c, 1, 40, 40
1, 10137840, Note_off_c, 1, 40, 0
1, 10137840, Note_on_c, 1, 33, 40
1, 10138320, Note_off_c, 1, 33, 0
1, 10138560, Note_on_c, 1, 37, 40
1, 10139040, Note_off_c, 1, 37, 0
1, 10139040, Note_on_c, 1, 40, 40
1, 10139280, Note_off_c, 1, 40, 0
1, 10139280, Note_on_c, 1, 42, 40
1, 10139520, Note_off_c, 1, 42, 0
1, 10139520, Note_on_c, 1, 40, 40
1, 10139760, Note_off_c, 1, 40, 0
1, 10139760, Note_on_c, 1, 33, 40
1, 10140240, Note_off_c, 1, 33, 0
1, 10140480, Note_on_c, 1, 37, 40
1, 10140960, Note_off_c, 1, 37, 0
1, 10140960, Note_on_c, 1, 40, 40
1, 10141200, Note_off_c, 1, 40, 0
1, 10141200, Note_on_c, 1, 42, 40
1, 10141440, Note_off_c, 1, 42, 0
1, 10141440, Note_on_c, 1, 40, 40
1, 10141680, Note_off_c, 1, 40, 0
1, 10141680, Note_on_c, 1, 33, 40
1, 10142160, Note_off_c, 1, 33, 0
1, 10142400, Note_on_c, 1, 37, 40
1, 10142880, Note_off_c, 1, 37, 0
1, 10142880, Note_on_c, 1, 40, 40
1, 10143120, Note_off_c, 1, 40, 0
1, 10143120, Note_on_c, 1, 42, 40
1, 10143360, Note_off_c, 1, 42, 0
1, 10143360, Note_on_c, 1, 40, 40
1, 10143600, Note_off_c, 1, 40, 0
1, 10143600, Note_on_c, 1, 33, 40
1, 10144080, Note_off_c, 1, 33, 0
1, 10144320, Note_on_c, 1, 37, 40
1, 10144800, Note_off_c, 1, 37, 0
1, 10144800, Note_on_c, 1, 40, 40
1, 10145040, Note_off_c, 1, 40, 0
1, 10145040, Note_on_c, 1, 42, 40
1, 10145280, Note_off_c, 1, 42, 0
1, 10145280, Note_on_c, 1, 40, 40
1, 10145520, Note_off_c, 1, 40, 0
1, 10145520, Note_on_c, 1, 33, 40
1, 10146000, Note_off_c, 1, 33, 0
1, 10146240, Note_on_c, 1, 37, 40
1, 10146720, Note_off_c, 1, 37, 0
1, 10146720, Note_on_c, 1, 40, 40
1, 10146960, Note_off_c, 1, 40, 0
1, 10146960, Note_on_c, 1, 42, 40
1, 10147200, Note_off_c, 1, 42, 0
1, 10147200, Note_on_c, 1, 40, 40
1, 10147440, Note_off_c, 1, 40, 0
1, 10147440, Note_on_c, 1, 38, 40
1, 10147920, Note_off_c, 1, 38, 0
1, 10148160, Note_on_c, 1, 42, 40
1, 10148640, Note_off_c, 1, 42, 0
1, 10148640, Note_on_c, 1, 45, 40
1, 10148880, Note_off_c, 1, 45, 0
1, 10148880, Note_on_c, 1, 47, 40
1, 10149120, Note_off_c, 1, 47, 0
1, 10149120, Note_on_c, 1, 45, 40
1, 10149360, Note_off_c, 1, 45, 0
1, 10149360, Note_on_c, 1, 38, 40
1, 10149840, Note_off_c, 1, 38, 0
1, 10150080, Note_on_c, 1, 42, 40
1, 10150560, Note_off_c, 1, 42, 0
1, 10150560, Note_on_c, 1, 45, 40
1, 10150800, Note_off_c, 1, 45, 0
1, 10150800, Note_on_c, 1, 47, 40
1, 10151040, Note_off_c, 1, 47, 0
1, 10151040, Note_on_c, 1, 45, 40
1, 10151280, Note_off_c, 1, 45, 0
1, 10151280, Note_on_c, 1, 33, 40
1, 10151760, Note_off_c, 1, 33, 0
1, 10152000, Note_on_c, 1, 37, 40
1, 10152480, Note_off_c, 1, 37, 0
1, 10152480, Note_on_c, 1, 40, 40
1, 10152720, Note_off_c, 1, 40, 0
1, 10152720, Note_on_c, 1, 42, 40
1, 10152960, Note_off_c, 1, 42, 0
1, 10152960, Note_on_c, 1, 40, 40
1, 10153200, Note_off_c, 1, 40, 0
1, 10153200, Note_on_c, 1, 33, 40
1, 10153680, Note_off_c, 1, 33, 0
1, 10153920, Note_on_c, 1, 37, 40
1, 10154400, Note_off_c, 1, 37, 0
1, 10154400, Note_on_c, 1, 40, 40
1, 10154640, Note_off_c, 1, 40, 0
1, 10154640, Note_on_c, 1, 42, 40
1, 10154880, Note_off_c, 1, 42, 0
1, 10154880, Note_on_c, 1, 40, 40
1, 10155120, Note_off_c, 1, 40, 0
1, 10155120, Note_on_c, 1, 40, 40
1, 10155600, Note_off_c, 1, 40, 0
1, 10155840, Note_on_c, 1, 44, 40
1, 10156320, Note_off_c, 1, 44, 0
1, 10156320, Note_on_c, 1, 47, 40
1, 10156560, Note_off_c, 1, 47, 0
1, 10156560, Note_on_c, 1, 49, 40
1, 10156800, Note_off_c, 1, 49, 0
1, 10156800, Note_on_c, 1, 47, 40
1, 10157040, Note_off_c, 1, 47, 0
1, 10157040, Note_on_c, 1, 40, 40
1, 10157520, Note_off_c, 1, 40, 0
1, 10157760, Note_on_c, 1, 44, 40
1, 10158240, Note_off_c, 1, 44, 0
1, 10158240, Note_on_c, 1, 47, 40
1, 10158480, Note_off_c, 1, 47, 0
1, 10158480, Note_on_c, 1, 49, 40
1, 10158720, Note_off_c, 1, 49, 0
1, 10158720, Note_on_c, 1, 47, 40
1, 10158960, Note_off_c, 1, 47, 0
1, 10158960, Note_on_c, 1, 33, 40
1, 10159440, Note_off_c, 1, 33, 0
1, 10159680, Note_on_c, 1, 37, 40
1, 10160160, Note_off_c, 1, 37, 0
1, 10160160, Note_on_c, 1, 40, 40
1, 10160400, Note_off_c, 1, 40, 0
1, 10160400, Note_on_c, 1, 42, 40
1, 10160640, Note_off_c, 1, 42, 0
1, 10160640, Note_on_c, 1, 40, 40
1, 10160880, Note_off_c, 1, 40, 0
1, 10160880, Note_on_c, 1, 33, 40
1, 10161360, Note_off_c, 1, 33, 0
1, 10161600, Note_on_c, 1, 37, 40
1, 10162080, Note_off_c, 1, 37, 0
1, 10162080, Note_on_c, 1, 40, 40
1, 10162320, Note_off_c, 1, 40, 0
1, 10162320, Note_on_c, 1, 42, 40
1, 10162560, Note_off_c, 1, 42, 0
1, 10162560, Note_on_c, 1, 37, 40
1, 10162800, Note_off_c, 1, 37, 0
1, 10162800, Note_on_c, 1, 40, 40
1, 10163280, Note_off_c, 1, 40, 0
1, 10163520, Note_on_c, 1, 44, 40
1, 10164000, Note_off_c, 1, 44, 0
1, 10164000, Note_on_c, 1, 47, 40
1, 10164240, Note_off_c, 1, 47, 0
1, 10164240, Note_on_c, 1, 49, 40
1, 10164480, Note_off_c, 1, 49, 0
1, 10164480, Note_on_c, 1, 47, 40
1, 10164720, Note_off_c, 1, 47, 0
1, 10164720, Note_on_c, 1, 40, 40
1, 10165200, Note_off_c, 1, 40, 0
1, 10165440, Note_on_c, 1, 44, 40
1, 10165920, Note_off_c, 1, 44, 0
1, 10165920, Note_on_c, 1, 47, 40
1, 10166160, Note_off_c, 1, 47, 0
1, 10166160, Note_on_c, 1, 49, 40
1, 10166400, Note_off_c, 1, 49, 0
1, 10166400, Note_on_c, 1, 47, 40
1, 10166640, Note_off_c, 1, 47, 0
1, 10166640, Note_on_c, 1, 33, 40
1, 10167120, Note_off_c, 1, 33, 0
1, 10167360, Note_on_c, 1, 37, 40
1, 10167840, Note_off_c, 1, 37, 0
1, 10167840, Note_on_c, 1, 40, 40
1, 10168080, Note_off_c, 1, 40, 0
1, 10168080, Note_on_c, 1, 42, 40
1, 10168320, Note_off_c, 1, 42, 0
1, 10168320, Note_on_c, 1, 40, 40
1, 10168560, Note_off_c, 1, 40, 0
1, 10168560, Note_on_c, 1, 33, 40
1, 10169040, Note_off_c, 1, 33, 0
1, 10169280, Note_on_c, 1, 37, 40
1, 10169760, Note_off_c, 1, 37, 0
1, 10169760, Note_on_c, 1, 40, 40
1, 10170000, Note_off_c, 1, 40, 0
1, 10170000, Note_on_c, 1, 42, 40
1, 10170240, Note_off_c, 1, 42, 0
1, 10170240, Note_on_c, 1, 37, 40
1, 10170480, Note_off_c, 1, 37, 0
1, 10170480, Note_on_c, 1, 40, 40
1, 10170960, Note_off_c, 1, 40, 0
1, 10171200, Note_on_c, 1, 47, 40
1, 10171440, Note_off_c, 1, 47, 0
1, 10171680, Note_on_c, 1, 47, 40
1, 10171920, Note_off_c, 1, 47, 0
1, 10171920, Note_on_c, 1, 35, 40
1, 10172400, Note_off_c, 1, 35, 0
1, 10172400, Note_on_c, 1, 40, 40
1, 10172880, Note_off_c, 1, 40, 0
1, 10173120, Note_on_c, 1, 47, 40
1, 10173360, Note_off_c, 1, 47, 0
1, 10173600, Note_on_c, 1, 47, 40
1, 10173840, Note_off_c, 1, 47, 0
1, 10173840, Note_on_c, 1, 40, 40
1, 10174320, Note_off_c, 1, 40, 0
1, 10174320, Note_on_c, 1, 45, 40
1, 10174800, Note_off_c, 1, 45, 0
1, 10175040, Note_on_c, 1, 42, 40
1, 10175520, Note_off_c, 1, 42, 0
1, 10175520, Note_on_c, 1, 40, 40
1, 10175760, Note_off_c, 1, 40, 0
1, 10175760, Note_on_c, 1, 37, 40
1, 10176240, Note_off_c, 1, 37, 0
1, 10176240, Note_on_c, 1, 33, 40
1, 10178160, Note_off_c, 1, 33, 0
1, 10183920, Note_on_c, 1, 35, 40
1, 10184160, Note_off_c, 1, 35, 0
1, 10184160, Note_on_c, 1, 35, 40
1, 10184400, Note_off_c, 1, 35, 0
1, 10184640, Note_on_c, 1, 35, 40
1, 10184760, Note_off_c, 1, 35, 0
1, 10184760, Note_on_c, 1, 33, 40
1, 10184880, Note_off_c, 1, 33, 0
1, 10184880, Note_on_c, 1, 30, 40
1, 10185120, Note_off_c, 1, 30, 0
1, 10185120, Note_on_c, 1, 30, 40
1, 10185360, Note_off_c, 1, 30, 0
1, 10185600, Note_on_c, 1, 33, 40
1, 10185720, Note_off_c, 1, 33, 0
1, 10185720, Note_on_c, 1, 34, 40
1, 10185840, Note_off_c, 1, 34, 0
1, 10185840, Note_on_c, 1, 35, 40
1, 10186080, Note_off_c, 1, 35, 0
1, 10186080, Note_on_c, 1, 35, 40
1, 10186320, Note_off_c, 1, 35, 0
1, 10186560, Note_on_c, 1, 35, 40
1, 10186680, Note_off_c, 1, 35, 0
1, 10186680, Note_on_c, 1, 33, 40
1, 10186800, Note_off_c, 1, 33, 0
1, 10186800, Note_on_c, 1, 30, 40
1, 10187040, Note_off_c, 1, 30, 0
1, 10187040, Note_on_c, 1, 30, 40
1, 10187280, Note_off_c, 1, 30, 0
1, 10187520, Note_on_c, 1, 33, 40
1, 10187640, Note_off_c, 1, 33, 0
1, 10187640, Note_on_c, 1, 34, 40
1, 10187760, Note_off_c, 1, 34, 0
1, 10187760, Note_on_c, 1, 35, 40
1, 10188000, Note_off_c, 1, 35, 0
1, 10188000, Note_on_c, 1, 35, 40
1, 10188240, Note_off_c, 1, 35, 0
1, 10188480, Note_on_c, 1, 35, 40
1, 10188600, Note_off_c, 1, 35, 0
1, 10188600, Note_on_c, 1, 33, 40
1, 10188720, Note_off_c, 1, 33, 0
1, 10188720, Note_on_c, 1, 30, 40
1, 10188960, Note_off_c, 1, 30, 0
1, 10188960, Note_on_c, 1, 30, 40
1, 10189200, Note_off_c, 1, 30, 0
1, 10189440, Note_on_c, 1, 33, 40
1, 10189560, Note_off_c, 1, 33, 0
1, 10189560, Note_on_c, 1, 34, 40
1, 10189680, Note_off_c, 1, 34, 0
1, 10189680, Note_on_c, 1, 35, 40
1, 10189920, Note_off_c, 1, 35, 0
1, 10189920, Note_on_c, 1, 35, 40
1, 10190160, Note_off_c, 1, 35, 0
1, 10190400, Note_on_c, 1, 35, 40
1, 10190520, Note_off_c, 1, 35, 0
1, 10190520, Note_on_c, 1, 33, 40
1, 10190640, Note_off_c, 1, 33, 0
1, 10190640, Note_on_c, 1, 30, 40
1, 10190880, Note_off_c, 1, 30, 0
1, 10190880, Note_on_c, 1, 30, 40
1, 10191120, Note_off_c, 1, 30, 0
1, 10191360, Note_on_c, 1, 33, 40
1, 10191480, Note_off_c, 1, 33, 0
1, 10191480, Note_on_c, 1, 34, 40
1, 10191600, Note_off_c, 1, 34, 0
1, 10191600, Note_on_c, 1, 35, 40
1, 10191840, Note_off_c, 1, 35, 0
1, 10191840, Note_on_c, 1, 35, 40
1, 10192080, Note_off_c, 1, 35, 0
1, 10192320, Note_on_c, 1, 35, 40
1, 10192440, Note_off_c, 1, 35, 0
1, 10192440, Note_on_c, 1, 33, 40
1, 10192560, Note_off_c, 1, 33, 0
1, 10192560, Note_on_c, 1, 30, 40
1, 10192800, Note_off_c, 1, 30, 0
1, 10192800, Note_on_c, 1, 30, 40
1, 10193040, Note_off_c, 1, 30, 0
1, 10193280, Note_on_c, 1, 33, 40
1, 10193400, Note_off_c, 1, 33, 0
1, 10193400, Note_on_c, 1, 34, 40
1, 10193520, Note_off_c, 1, 34, 0
1, 10193520, Note_on_c, 1, 35, 40
1, 10193760, Note_off_c, 1, 35, 0
1, 10193760, Note_on_c, 1, 35, 40
1, 10194000, Note_off_c, 1, 35, 0
1, 10194240, Note_on_c, 1, 35, 40
1, 10194360, Note_off_c, 1, 35, 0
1, 10194360, Note_on_c, 1, 33, 40
1, 10194480, Note_off_c, 1, 33, 0
1, 10194480, Note_on_c, 1, 30, 40
1, 10194720, Note_off_c, 1, 30, 0
1, 10194720, Note_on_c, 1, 30, 40
1, 10194960, Note_off_c, 1, 30, 0
1, 10195200, Note_on_c, 1, 35, 40
1, 10195320, Note_off_c, 1, 35, 0
1, 10195320, Note_on_c, 1, 38, 40
1, 10195440, Note_off_c, 1, 38, 0
1, 10195440, Note_on_c, 1, 40, 40
1, 10195680, Note_off_c, 1, 40, 0
1, 10195680, Note_on_c, 1, 40, 40
1, 10195920, Note_off_c, 1, 40, 0
1, 10196160, Note_on_c, 1, 40, 40
1, 10196280, Note_off_c, 1, 40, 0
1, 10196280, Note_on_c, 1, 38, 40
1, 10196400, Note_off_c, 1, 38, 0
1, 10196400, Note_on_c, 1, 35, 40
1, 10196640, Note_off_c, 1, 35, 0
1, 10196640, Note_on_c, 1, 35, 40
1, 10196880, Note_off_c, 1, 35, 0
1, 10197120, Note_on_c, 1, 35, 40
1, 10197240, Note_off_c, 1, 35, 0
1, 10197240, Note_on_c, 1, 38, 40
1, 10197360, Note_off_c, 1, 38, 0
1, 10197360, Note_on_c, 1, 40, 40
1, 10197600, Note_off_c, 1, 40, 0
1, 10197600, Note_on_c, 1, 40, 40
1, 10197840, Note_off_c, 1, 40, 0
1, 10198080, Note_on_c, 1, 40, 40
1, 10198200, Note_off_c, 1, 40, 0
1, 10198200, Note_on_c, 1, 38, 40
1, 10198320, Note_off_c, 1, 38, 0
1, 10198320, Note_on_c, 1, 35, 40
1, 10198560, Note_off_c, 1, 35, 0
1, 10198560, Note_on_c, 1, 35, 40
1, 10198800, Note_off_c, 1, 35, 0
1, 10198800, Note_on_c, 1, 33, 40
1, 10199040, Note_off_c, 1, 33, 0
1, 10199040, Note_on_c, 1, 30, 40
1, 10199280, Note_off_c, 1, 30, 0
1, 10199280, Note_on_c, 1, 35, 40
1, 10199520, Note_off_c, 1, 35, 0
1, 10199520, Note_on_c, 1, 35, 40
1, 10199760, Note_off_c, 1, 35, 0
1, 10200000, Note_on_c, 1, 35, 40
1, 10200120, Note_off_c, 1, 35, 0
1, 10200120, Note_on_c, 1, 33, 40
1, 10200240, Note_off_c, 1, 33, 0
1, 10200240, Note_on_c, 1, 30, 40
1, 10200480, Note_off_c, 1, 30, 0
1, 10200480, Note_on_c, 1, 30, 40
1, 10200720, Note_off_c, 1, 30, 0
1, 10200960, Note_on_c, 1, 30, 40
1, 10201080, Note_off_c, 1, 30, 0
1, 10201080, Note_on_c, 1, 33, 40
1, 10201200, Note_off_c, 1, 33, 0
1, 10201200, Note_on_c, 1, 35, 40
1, 10201440, Note_off_c, 1, 35, 0
1, 10201440, Note_on_c, 1, 35, 40
1, 10201680, Note_off_c, 1, 35, 0
1, 10201920, Note_on_c, 1, 35, 40
1, 10202040, Note_off_c, 1, 35, 0
1, 10202040, Note_on_c, 1, 33, 40
1, 10202160, Note_off_c, 1, 33, 0
1, 10202160, Note_on_c, 1, 30, 40
1, 10202400, Note_off_c, 1, 30, 0
1, 10202400, Note_on_c, 1, 30, 40
1, 10202640, Note_off_c, 1, 30, 0
1, 10202640, Note_on_c, 1, 33, 40
1, 10202880, Note_off_c, 1, 33, 0
1, 10202880, Note_on_c, 1, 30, 40
1, 10203120, Note_off_c, 1, 30, 0
1, 10203120, Note_on_c, 1, 30, 40
1, 10203360, Note_off_c, 1, 30, 0
1, 10203360, Note_on_c, 1, 34, 40
1, 10203600, Note_off_c, 1, 34, 0
1, 10203600, Note_on_c, 1, 37, 40
1, 10203840, Note_off_c, 1, 37, 0
1, 10203840, Note_on_c, 1, 42, 40
1, 10204560, Note_off_c, 1, 42, 0
1, 10205040, Note_on_c, 1, 28, 40
1, 10205280, Note_off_c, 1, 28, 0
1, 10205280, Note_on_c, 1, 32, 40
1, 10205520, Note_off_c, 1, 32, 0
1, 10205520, Note_on_c, 1, 35, 40
1, 10205760, Note_off_c, 1, 35, 0
1, 10205760, Note_on_c, 1, 40, 40
1, 10206480, Note_off_c, 1, 40, 0
1, 10206960, Note_on_c, 1, 35, 40
1, 10207440, Note_off_c, 1, 35, 0
1, 10207680, Note_on_c, 1, 35, 40
1, 10207800, Note_off_c, 1, 35, 0
1, 10207800, Note_on_c, 1, 33, 40
1, 10207920, Note_off_c, 1, 33, 0
1, 10207920, Note_on_c, 1, 30, 40
1, 10208160, Note_off_c, 1, 30, 0
1, 10208160, Note_on_c, 1, 30, 40
1, 10208400, Note_off_c, 1, 30, 0
1, 10208640, Note_on_c, 1, 33, 40
1, 10208760, Note_off_c, 1, 33, 0
1, 10208760, Note_on_c, 1, 34, 40
1, 10208880, Note_off_c, 1, 34, 0
1, 10208880, Note_on_c, 1, 35, 40
1, 10209120, Note_off_c, 1, 35, 0
1, 10209120, Note_on_c, 1, 35, 40
1, 10209360, Note_off_c, 1, 35, 0
1, 10209600, Note_on_c, 1, 35, 40
1, 10209720, Note_off_c, 1, 35, 0
1, 10209720, Note_on_c, 1, 33, 40
1, 10209840, Note_off_c, 1, 33, 0
1, 10209840, Note_on_c, 1, 30, 40
1, 10210080, Note_off_c, 1, 30, 0
1, 10210080, Note_on_c, 1, 30, 40
1, 10210800, Note_off_c, 1, 30, 0
1, 10210800, Note_on_c, 1, 35, 40
1, 10211280, Note_off_c, 1, 35, 0
1, 10211280, Note_on_c, 1, 35, 40
1, 10211760, Note_off_c, 1, 35, 0
1, 10211760, Note_on_c, 1, 35, 40
1, 10212240, Note_off_c, 1, 35, 0
1, 10212240, Note_on_c, 1, 35, 40
1, 10212720, Note_off_c, 1, 35, 0
1, 10212720, Note_on_c, 1, 33, 40
1, 10213200, Note_off_c, 1, 33, 0
1, 10213200, Note_on_c, 1, 33, 40
1, 10213680, Note_off_c, 1, 33, 0
1, 10213680, Note_on_c, 1, 33, 40
1, 10214160, Note_off_c, 1, 33, 0
1, 10214160, Note_on_c, 1, 33, 40
1, 10214640, Note_off_c, 1, 33, 0
1, 10214640, Note_on_c, 1, 38, 40
1, 10215120, Note_off_c, 1, 38, 0
1, 10215120, Note_on_c, 1, 38, 40
1, 10215600, Note_off_c, 1, 38, 0
1, 10215600, Note_on_c, 1, 38, 40
1, 10216080, Note_off_c, 1, 38, 0
1, 10216080, Note_on_c, 1, 38, 40
1, 10216560, Note_off_c, 1, 38, 0
1, 10216560, Note_on_c, 1, 40, 40
1, 10217040, Note_off_c, 1, 40, 0
1, 10217040, Note_on_c, 1, 40, 40
1, 10217520, Note_off_c, 1, 40, 0
1, 10217520, Note_on_c, 1, 40, 40
1, 10218000, Note_off_c, 1, 40, 0
1, 10218000, Note_on_c, 1, 40, 40
1, 10218120, Note_off_c, 1, 40, 0
1, 10218120, Note_on_c, 1, 42, 40
1, 10218240, Note_off_c, 1, 42, 0
1, 10218240, Note_on_c, 1, 45, 40
1, 10218480, Note_off_c, 1, 45, 0
1, 10218480, Note_on_c, 1, 35, 40
1, 10218720, Note_off_c, 1, 35, 0
1, 10218720, Note_on_c, 1, 35, 40
1, 10218960, Note_off_c, 1, 35, 0
1, 10219200, Note_on_c, 1, 35, 40
1, 10219320, Note_off_c, 1, 35, 0
1, 10219320, Note_on_c, 1, 33, 40
1, 10219440, Note_off_c, 1, 33, 0
1, 10219440, Note_on_c, 1, 30, 40
1, 10219680, Note_off_c, 1, 30, 0
1, 10219680, Note_on_c, 1, 30, 40
1, 10219920, Note_off_c, 1, 30, 0
1, 10220160, Note_on_c, 1, 33, 40
1, 10220280, Note_off_c, 1, 33, 0
1, 10220280, Note_on_c, 1, 34, 40
1, 10220400, Note_off_c, 1, 34, 0
1, 10220400, Note_on_c, 1, 35, 40
1, 10220640, Note_off_c, 1, 35, 0
1, 10220640, Note_on_c, 1, 35, 40
1, 10220880, Note_off_c, 1, 35, 0
1, 10221120, Note_on_c, 1, 35, 40
1, 10221240, Note_off_c, 1, 35, 0
1, 10221240, Note_on_c, 1, 33, 40
1, 10221360, Note_off_c, 1, 33, 0
1, 10221360, Note_on_c, 1, 30, 40
1, 10221600, Note_off_c, 1, 30, 0
1, 10221600, Note_on_c, 1, 30, 40
1, 10221840, Note_off_c, 1, 30, 0
1, 10222080, Note_on_c, 1, 33, 40
1, 10222200, Note_off_c, 1, 33, 0
1, 10222200, Note_on_c, 1, 34, 40
1, 10222320, Note_off_c, 1, 34, 0
1, 10222320, Note_on_c, 1, 35, 40
1, 10222560, Note_off_c, 1, 35, 0
1, 10222560, Note_on_c, 1, 35, 40
1, 10222800, Note_off_c, 1, 35, 0
1, 10223040, Note_on_c, 1, 35, 40
1, 10223160, Note_off_c, 1, 35, 0
1, 10223160, Note_on_c, 1, 33, 40
1, 10223280, Note_off_c, 1, 33, 0
1, 10223280, Note_on_c, 1, 30, 40
1, 10223520, Note_off_c, 1, 30, 0
1, 10223520, Note_on_c, 1, 30, 40
1, 10223760, Note_off_c, 1, 30, 0
1, 10224000, Note_on_c, 1, 33, 40
1, 10224120, Note_off_c, 1, 33, 0
1, 10224120, Note_on_c, 1, 34, 40
1, 10224240, Note_off_c, 1, 34, 0
1, 10224240, Note_on_c, 1, 35, 40
1, 10224480, Note_off_c, 1, 35, 0
1, 10224480, Note_on_c, 1, 35, 40
1, 10224720, Note_off_c, 1, 35, 0
1, 10224960, Note_on_c, 1, 35, 40
1, 10225080, Note_off_c, 1, 35, 0
1, 10225080, Note_on_c, 1, 33, 40
1, 10225200, Note_off_c, 1, 33, 0
1, 10225200, Note_on_c, 1, 30, 40
1, 10225440, Note_off_c, 1, 30, 0
1, 10225440, Note_on_c, 1, 30, 40
1, 10225680, Note_off_c, 1, 30, 0
1, 10225920, Note_on_c, 1, 35, 40
1, 10226040, Note_off_c, 1, 35, 0
1, 10226040, Note_on_c, 1, 38, 40
1, 10226160, Note_off_c, 1, 38, 0
1, 10226160, Note_on_c, 1, 40, 40
1, 10226400, Note_off_c, 1, 40, 0
1, 10226400, Note_on_c, 1, 40, 40
1, 10226640, Note_off_c, 1, 40, 0
1, 10226880, Note_on_c, 1, 40, 40
1, 10227000, Note_off_c, 1, 40, 0
1, 10227000, Note_on_c, 1, 38, 40
1, 10227120, Note_off_c, 1, 38, 0
1, 10227120, Note_on_c, 1, 35, 40
1, 10227360, Note_off_c, 1, 35, 0
1, 10227360, Note_on_c, 1, 35, 40
1, 10227600, Note_off_c, 1, 35, 0
1, 10227840, Note_on_c, 1, 35, 40
1, 10227960, Note_off_c, 1, 35, 0
1, 10227960, Note_on_c, 1, 38, 40
1, 10228080, Note_off_c, 1, 38, 0
1, 10228080, Note_on_c, 1, 40, 40
1, 10228320, Note_off_c, 1, 40, 0
1, 10228320, Note_on_c, 1, 40, 40
1, 10228560, Note_off_c, 1, 40, 0
1, 10228800, Note_on_c, 1, 40, 40
1, 10228920, Note_off_c, 1, 40, 0
1, 10228920, Note_on_c, 1, 38, 40
1, 10229040, Note_off_c, 1, 38, 0
1, 10229040, Note_on_c, 1, 35, 40
1, 10229280, Note_off_c, 1, 35, 0
1, 10229280, Note_on_c, 1, 35, 40
1, 10229520, Note_off_c, 1, 35, 0
1, 10229520, Note_on_c, 1, 33, 40
1, 10229760, Note_off_c, 1, 33, 0
1, 10229760, Note_on_c, 1, 30, 40
1, 10230000, Note_off_c, 1, 30, 0
1, 10230000, Note_on_c, 1, 35, 40
1, 10230240, Note_off_c, 1, 35, 0
1, 10230240, Note_on_c, 1, 35, 40
1, 10230480, Note_off_c, 1, 35, 0
1, 10230720, Note_on_c, 1, 35, 40
1, 10230840, Note_off_c, 1, 35, 0
1, 10230840, Note_on_c, 1, 33, 40
1, 10230960, Note_off_c, 1, 33, 0
1, 10230960, Note_on_c, 1, 30, 40
1, 10231200, Note_off_c, 1, 30, 0
1, 10231200, Note_on_c, 1, 30, 40
1, 10231440, Note_off_c, 1, 30, 0
1, 10231680, Note_on_c, 1, 30, 40
1, 10231800, Note_off_c, 1, 30, 0
1, 10231800, Note_on_c, 1, 33, 40
1, 10231920, Note_off_c, 1, 33, 0
1, 10231920, Note_on_c, 1, 35, 40
1, 10232160, Note_off_c, 1, 35, 0
1, 10232160, Note_on_c, 1, 35, 40
1, 10232400, Note_off_c, 1, 35, 0
1, 10232640, Note_on_c, 1, 35, 40
1, 10232760, Note_off_c, 1, 35, 0
1, 10232760, Note_on_c, 1, 33, 40
1, 10232880, Note_off_c, 1, 33, 0
1, 10232880, Note_on_c, 1, 30, 40
1, 10233120, Note_off_c, 1, 30, 0
1, 10233120, Note_on_c, 1, 30, 40
1, 10233360, Note_off_c, 1, 30, 0
1, 10233360, Note_on_c, 1, 33, 40
1, 10233600, Note_off_c, 1, 33, 0
1, 10233600, Note_on_c, 1, 30, 40
1, 10233840, Note_off_c, 1, 30, 0
1, 10233840, Note_on_c, 1, 30, 40
1, 10234080, Note_off_c, 1, 30, 0
1, 10234080, Note_on_c, 1, 34, 40
1, 10234320, Note_off_c, 1, 34, 0
1, 10234320, Note_on_c, 1, 37, 40
1, 10234560, Note_off_c, 1, 37, 0
1, 10234560, Note_on_c, 1, 42, 40
1, 10235280, Note_off_c, 1, 42, 0
1, 10235760, Note_on_c, 1, 28, 40
1, 10236000, Note_off_c, 1, 28, 0
1, 10236000, Note_on_c, 1, 32, 40
1, 10236240, Note_off_c, 1, 32, 0
1, 10236240, Note_on_c, 1, 35, 40
1, 10236480, Note_off_c, 1, 35, 0
1, 10236480, Note_on_c, 1, 40, 40
1, 10237200, Note_off_c, 1, 40, 0
1, 10237680, Note_on_c, 1, 35, 40
1, 10238160, Note_off_c, 1, 35, 0
1, 10238400, Note_on_c, 1, 35, 40
1, 10238520, Note_off_c, 1, 35, 0
1, 10238520, Note_on_c, 1, 33, 40
1, 10238640, Note_off_c, 1, 33, 0
1, 10238640, Note_on_c, 1, 30, 40
1, 10238880, Note_off_c, 1, 30, 0
1, 10238880, Note_on_c, 1, 30, 40
1, 10239120, Note_off_c, 1, 30, 0
1, 10239360, Note_on_c, 1, 33, 40
1, 10239480, Note_off_c, 1, 33, 0
1, 10239480, Note_on_c, 1, 34, 40
1, 10239600, Note_off_c, 1, 34, 0
1, 10239600, Note_on_c, 1, 35, 40
1, 10239840, Note_off_c, 1, 35, 0
1, 10239840, Note_on_c, 1, 35, 40
1, 10240080, Note_off_c, 1, 35, 0
1, 10240320, Note_on_c, 1, 35, 40
1, 10240440, Note_off_c, 1, 35, 0
1, 10240440, Note_on_c, 1, 33, 40
1, 10240560, Note_off_c, 1, 33, 0
1, 10240560, Note_on_c, 1, 30, 40
1, 10240800, Note_off_c, 1, 30, 0
1, 10240800, Note_on_c, 1, 30, 40
1, 10241520, Note_off_c, 1, 30, 0
1, 10241520, Note_on_c, 1, 35, 40
1, 10242000, Note_off_c, 1, 35, 0
1, 10242000, Note_on_c, 1, 35, 40
1, 10242480, Note_off_c, 1, 35, 0
1, 10242480, Note_on_c, 1, 35, 40
1, 10242960, Note_off_c, 1, 35, 0
1, 10242960, Note_on_c, 1, 35, 40
1, 10243440, Note_off_c, 1, 35, 0
1, 10243440, Note_on_c, 1, 33, 40
1, 10243920, Note_off_c, 1, 33, 0
1, 10243920, Note_on_c, 1, 33, 40
1, 10244400, Note_off_c, 1, 33, 0
1, 10244400, Note_on_c, 1, 33, 40
1, 10244880, Note_off_c, 1, 33, 0
1, 10244880, Note_on_c, 1, 33, 40
1, 10245360, Note_off_c, 1, 33, 0
1, 10245360, Note_on_c, 1, 38, 40
1, 10245840, Note_off_c, 1, 38, 0
1, 10245840, Note_on_c, 1, 38, 40
1, 10246320, Note_off_c, 1, 38, 0
1, 10246320, Note_on_c, 1, 38, 40
1, 10246800, Note_off_c, 1, 38, 0
1, 10246800, Note_on_c, 1, 38, 40
1, 10247280, Note_off_c, 1, 38, 0
1, 10247280, Note_on_c, 1, 40, 40
1, 10247760, Note_off_c, 1, 40, 0
1, 10247760, Note_on_c, 1, 40, 40
1, 10248240, Note_off_c, 1, 40, 0
1, 10248240, Note_on_c, 1, 40, 40
1, 10248720, Note_off_c, 1, 40, 0
1, 10248720, Note_on_c, 1, 40, 40
1, 10248840, Note_off_c, 1, 40, 0
1, 10248840, Note_on_c, 1, 42, 40
1, 10248960, Note_off_c, 1, 42, 0
1, 10248960, Note_on_c, 1, 45, 40
1, 10249200, Note_off_c, 1, 45, 0
1, 10249200, Note_on_c, 1, 35, 40
1, 10249440, Note_off_c, 1, 35, 0
1, 10249440, Note_on_c, 1, 35, 40
1, 10249680, Note_off_c, 1, 35, 0
1, 10249920, Note_on_c, 1, 35, 40
1, 10250040, Note_off_c, 1, 35, 0
1, 10250040, Note_on_c, 1, 33, 40
1, 10250160, Note_off_c, 1, 33, 0
1, 10250160, Note_on_c, 1, 30, 40
1, 10250400, Note_off_c, 1, 30, 0
1, 10250400, Note_on_c, 1, 30, 40
1, 10250640, Note_off_c, 1, 30, 0
1, 10250880, Note_on_c, 1, 33, 40
1, 10251000, Note_off_c, 1, 33, 0
1, 10251000, Note_on_c, 1, 34, 40
1, 10251120, Note_off_c, 1, 34, 0
1, 10251120, Note_on_c, 1, 35, 40
1, 10251360, Note_off_c, 1, 35, 0
1, 10251360, Note_on_c, 1, 35, 40
1, 10251600, Note_off_c, 1, 35, 0
1, 10251840, Note_on_c, 1, 35, 40
1, 10251960, Note_off_c, 1, 35, 0
1, 10251960, Note_on_c, 1, 33, 40
1, 10252080, Note_off_c, 1, 33, 0
1, 10252080, Note_on_c, 1, 30, 40
1, 10252320, Note_off_c, 1, 30, 0
1, 10252320, Note_on_c, 1, 30, 40
1, 10252560, Note_off_c, 1, 30, 0
1, 10252800, Note_on_c, 1, 33, 40
1, 10252920, Note_off_c, 1, 33, 0
1, 10252920, Note_on_c, 1, 34, 40
1, 10253040, Note_off_c, 1, 34, 0
1, 10253040, Note_on_c, 1, 35, 40
1, 10253280, Note_off_c, 1, 35, 0
1, 10253280, Note_on_c, 1, 35, 40
1, 10253520, Note_off_c, 1, 35, 0
1, 10253760, Note_on_c, 1, 35, 40
1, 10253880, Note_off_c, 1, 35, 0
1, 10253880, Note_on_c, 1, 33, 40
1, 10254000, Note_off_c, 1, 33, 0
1, 10254000, Note_on_c, 1, 30, 40
1, 10254240, Note_off_c, 1, 30, 0
1, 10254240, Note_on_c, 1, 30, 40
1, 10254480, Note_off_c, 1, 30, 0
1, 10254720, Note_on_c, 1, 33, 40
1, 10254840, Note_off_c, 1, 33, 0
1, 10254840, Note_on_c, 1, 34, 40
1, 10254960, Note_off_c, 1, 34, 0
1, 10254960, Note_on_c, 1, 35, 40
1, 10255200, Note_off_c, 1, 35, 0
1, 10255200, Note_on_c, 1, 35, 40
1, 10255440, Note_off_c, 1, 35, 0
1, 10255680, Note_on_c, 1, 35, 40
1, 10255800, Note_off_c, 1, 35, 0
1, 10255800, Note_on_c, 1, 33, 40
1, 10255920, Note_off_c, 1, 33, 0
1, 10255920, Note_on_c, 1, 30, 40
1, 10256160, Note_off_c, 1, 30, 0
1, 10256160, Note_on_c, 1, 30, 40
1, 10256400, Note_off_c, 1, 30, 0
1, 10256640, Note_on_c, 1, 35, 40
1, 10256760, Note_off_c, 1, 35, 0
1, 10256760, Note_on_c, 1, 38, 40
1, 10256880, Note_off_c, 1, 38, 0
1, 10256880, Note_on_c, 1, 40, 40
1, 10257120, Note_off_c, 1, 40, 0
1, 10257120, Note_on_c, 1, 40, 40
1, 10257360, Note_off_c, 1, 40, 0
1, 10257600, Note_on_c, 1, 40, 40
1, 10257720, Note_off_c, 1, 40, 0
1, 10257720, Note_on_c, 1, 38, 40
1, 10257840, Note_off_c, 1, 38, 0
1, 10257840, Note_on_c, 1, 35, 40
1, 10258080, Note_off_c, 1, 35, 0
1, 10258080, Note_on_c, 1, 35, 40
1, 10258320, Note_off_c, 1, 35, 0
1, 10258560, Note_on_c, 1, 35, 40
1, 10258680, Note_off_c, 1, 35, 0
1, 10258680, Note_on_c, 1, 38, 40
1, 10258800, Note_off_c, 1, 38, 0
1, 10258800, Note_on_c, 1, 40, 40
1, 10259040, Note_off_c, 1, 40, 0
1, 10259040, Note_on_c, 1, 40, 40
1, 10259280, Note_off_c, 1, 40, 0
1, 10259520, Note_on_c, 1, 40, 40
1, 10259640, Note_off_c, 1, 40, 0
1, 10259640, Note_on_c, 1, 38, 40
1, 10259760, Note_off_c, 1, 38, 0
1, 10259760, Note_on_c, 1, 35, 40
1, 10260000, Note_off_c, 1, 35, 0
1, 10260000, Note_on_c, 1, 35, 40
1, 10260240, Note_off_c, 1, 35, 0
1, 10260240, Note_on_c, 1, 33, 40
1, 10260480, Note_off_c, 1, 33, 0
1, 10260480, Note_on_c, 1, 30, 40
1, 10260720, Note_off_c, 1, 30, 0
1, 10260720, Note_on_c, 1, 35, 40
1, 10260960, Note_off_c, 1, 35, 0
1, 10260960, Note_on_c, 1, 35, 40
1, 10261200, Note_off_c, 1, 35, 0
1, 10261440, Note_on_c, 1, 35, 40
1, 10261560, Note_off_c, 1, 35, 0
1, 10261560, Note_on_c, 1, 33, 40
1, 10261680, Note_off_c, 1, 33, 0
1, 10261680, Note_on_c, 1, 30, 40
1, 10261920, Note_off_c, 1, 30, 0
1, 10261920, Note_on_c, 1, 30, 40
1, 10262160, Note_off_c, 1, 30, 0
1, 10262400, Note_on_c, 1, 30, 40
1, 10262520, Note_off_c, 1, 30, 0
1, 10262520, Note_on_c, 1, 33, 40
1, 10262640, Note_off_c, 1, 33, 0
1, 10262640, Note_on_c, 1, 35, 40
1, 10262880, Note_off_c, 1, 35, 0
1, 10262880, Note_on_c, 1, 35, 40
1, 10263120, Note_off_c, 1, 35, 0
1, 10263360, Note_on_c, 1, 35, 40
1, 10263480, Note_off_c, 1, 35, 0
1, 10263480, Note_on_c, 1, 33, 40
1, 10263600, Note_off_c, 1, 33, 0
1, 10263600, Note_on_c, 1, 30, 40
1, 10263840, Note_off_c, 1, 30, 0
1, 10263840, Note_on_c, 1, 30, 40
1, 10264080, Note_off_c, 1, 30, 0
1, 10264080, Note_on_c, 1, 33, 40
1, 10264320, Note_off_c, 1, 33, 0
1, 10264320, Note_on_c, 1, 30, 40
1, 10264560, Note_off_c, 1, 30, 0
1, 10264560, Note_on_c, 1, 30, 40
1, 10264800, Note_off_c, 1, 30, 0
1, 10264800, Note_on_c, 1, 34, 40
1, 10265040, Note_off_c, 1, 34, 0
1, 10265040, Note_on_c, 1, 37, 40
1, 10265280, Note_off_c, 1, 37, 0
1, 10265280, Note_on_c, 1, 42, 40
1, 10266000, Note_off_c, 1, 42, 0
1, 10266480, Note_on_c, 1, 28, 40
1, 10266720, Note_off_c, 1, 28, 0
1, 10266720, Note_on_c, 1, 32, 40
1, 10266960, Note_off_c, 1, 32, 0
1, 10266960, Note_on_c, 1, 35, 40
1, 10267200, Note_off_c, 1, 35, 0
1, 10267200, Note_on_c, 1, 40, 40
1, 10267920, Note_off_c, 1, 40, 0
1, 10268400, Note_on_c, 1, 35, 40
1, 10268880, Note_off_c, 1, 35, 0
1, 10269120, Note_on_c, 1, 35, 40
1, 10269240, Note_off_c, 1, 35, 0
1, 10269240, Note_on_c, 1, 33, 40
1, 10269360, Note_off_c, 1, 33, 0
1, 10269360, Note_on_c, 1, 30, 40
1, 10269600, Note_off_c, 1, 30, 0
1, 10269600, Note_on_c, 1, 30, 40
1, 10269840, Note_off_c, 1, 30, 0
1, 10270080, Note_on_c, 1, 33, 40
1, 10270200, Note_off_c, 1, 33, 0
1, 10270200, Note_on_c, 1, 34, 40
1, 10270320, Note_off_c, 1, 34, 0
1, 10270320, Note_on_c, 1, 35, 40
1, 10270560, Note_off_c, 1, 35, 0
1, 10270560, Note_on_c, 1, 35, 40
1, 10270800, Note_off_c, 1, 35, 0
1, 10271040, Note_on_c, 1, 35, 40
1, 10271160, Note_off_c, 1, 35, 0
1, 10271160, Note_on_c, 1, 33, 40
1, 10271280, Note_off_c, 1, 33, 0
1, 10271280, Note_on_c, 1, 30, 40
1, 10271520, Note_off_c, 1, 30, 0
1, 10271520, Note_on_c, 1, 30, 40
1, 10272240, Note_off_c, 1, 30, 0
1, 10272240, Note_on_c, 1, 35, 40
1, 10272720, Note_off_c, 1, 35, 0
1, 10272720, Note_on_c, 1, 35, 40
1, 10273200, Note_off_c, 1, 35, 0
1, 10273200, Note_on_c, 1, 35, 40
1, 10273680, Note_off_c, 1, 35, 0
1, 10273680, Note_on_c, 1, 35, 40
1, 10274160, Note_off_c, 1, 35, 0
1, 10274160, Note_on_c, 1, 33, 40
1, 10274640, Note_off_c, 1, 33, 0
1, 10274640, Note_on_c, 1, 33, 40
1, 10275120, Note_off_c, 1, 33, 0
1, 10275120, Note_on_c, 1, 33, 40
1, 10275600, Note_off_c, 1, 33, 0
1, 10275600, Note_on_c, 1, 33, 40
1, 10276080, Note_off_c, 1, 33, 0
1, 10276080, Note_on_c, 1, 38, 40
1, 10276560, Note_off_c, 1, 38, 0
1, 10276560, Note_on_c, 1, 38, 40
1, 10277040, Note_off_c, 1, 38, 0
1, 10277040, Note_on_c, 1, 38, 40
1, 10277520, Note_off_c, 1, 38, 0
1, 10277520, Note_on_c, 1, 38, 40
1, 10278000, Note_off_c, 1, 38, 0
1, 10278000, Note_on_c, 1, 40, 40
1, 10278480, Note_off_c, 1, 40, 0
1, 10278480, Note_on_c, 1, 40, 40
1, 10278960, Note_off_c, 1, 40, 0
1, 10278960, Note_on_c, 1, 40, 40
1, 10279440, Note_off_c, 1, 40, 0
1, 10279440, Note_on_c, 1, 40, 40
1, 10279560, Note_off_c, 1, 40, 0
1, 10279560, Note_on_c, 1, 42, 40
1, 10279680, Note_off_c, 1, 42, 0
1, 10279680, Note_on_c, 1, 45, 40
1, 10279920, Note_off_c, 1, 45, 0
1, 10279920, Note_on_c, 1, 35, 40
1, 10280160, Note_off_c, 1, 35, 0
1, 10280160, Note_on_c, 1, 35, 40
1, 10280400, Note_off_c, 1, 35, 0
1, 10280640, Note_on_c, 1, 35, 40
1, 10280760, Note_off_c, 1, 35, 0
1, 10280760, Note_on_c, 1, 33, 40
1, 10280880, Note_off_c, 1, 33, 0
1, 10280880, Note_on_c, 1, 30, 40
1, 10281120, Note_off_c, 1, 30, 0
1, 10281120, Note_on_c, 1, 30, 40
1, 10281360, Note_off_c, 1, 30, 0
1, 10281600, Note_on_c, 1, 33, 40
1, 10281720, Note_off_c, 1, 33, 0
1, 10281720, Note_on_c, 1, 34, 40
1, 10281840, Note_off_c, 1, 34, 0
1, 10281840, Note_on_c, 1, 35, 40
1, 10282080, Note_off_c, 1, 35, 0
1, 10282080, Note_on_c, 1, 35, 40
1, 10282320, Note_off_c, 1, 35, 0
1, 10282560, Note_on_c, 1, 35, 40
1, 10282680, Note_off_c, 1, 35, 0
1, 10282680, Note_on_c, 1, 33, 40
1, 10282800, Note_off_c, 1, 33, 0
1, 10282800, Note_on_c, 1, 30, 40
1, 10283040, Note_off_c, 1, 30, 0
1, 10283040, Note_on_c, 1, 30, 40
1, 10283280, Note_off_c, 1, 30, 0
1, 10283520, Note_on_c, 1, 33, 40
1, 10283640, Note_off_c, 1, 33, 0
1, 10283640, Note_on_c, 1, 34, 40
1, 10283760, Note_off_c, 1, 34, 0
1, 10283760, Note_on_c, 1, 35, 40
1, 10284000, Note_off_c, 1, 35, 0
1, 10284000, Note_on_c, 1, 35, 40
1, 10284240, Note_off_c, 1, 35, 0
1, 10284480, Note_on_c, 1, 35, 40
1, 10284600, Note_off_c, 1, 35, 0
1, 10284600, Note_on_c, 1, 33, 40
1, 10284720, Note_off_c, 1, 33, 0
1, 10284720, Note_on_c, 1, 30, 40
1, 10284960, Note_off_c, 1, 30, 0
1, 10284960, Note_on_c, 1, 30, 40
1, 10285200, Note_off_c, 1, 30, 0
1, 10285440, Note_on_c, 1, 33, 40
1, 10285560, Note_off_c, 1, 33, 0
1, 10285560, Note_on_c, 1, 34, 40
1, 10285680, Note_off_c, 1, 34, 0
1, 10285680, Note_on_c, 1, 35, 40
1, 10285920, Note_off_c, 1, 35, 0
1, 10285920, Note_on_c, 1, 35, 40
1, 10286160, Note_off_c, 1, 35, 0
1, 10286400, Note_on_c, 1, 35, 40
1, 10286520, Note_off_c, 1, 35, 0
1, 10286520, Note_on_c, 1, 33, 40
1, 10286640, Note_off_c, 1, 33, 0
1, 10286640, Note_on_c, 1, 30, 40
1, 10286880, Note_off_c, 1, 30, 0
1, 10286880, Note_on_c, 1, 30, 40
1, 10287120, Note_off_c, 1, 30, 0
1, 10287360, Note_on_c, 1, 35, 40
1, 10287480, Note_off_c, 1, 35, 0
1, 10287480, Note_on_c, 1, 38, 40
1, 10287600, Note_off_c, 1, 38, 0
1, 10287600, Note_on_c, 1, 40, 40
1, 10287840, Note_off_c, 1, 40, 0
1, 10287840, Note_on_c, 1, 40, 40
1, 10288080, Note_off_c, 1, 40, 0
1, 10288320, Note_on_c, 1, 40, 40
1, 10288440, Note_off_c, 1, 40, 0
1, 10288440, Note_on_c, 1, 38, 40
1, 10288560, Note_off_c, 1, 38, 0
1, 10288560, Note_on_c, 1, 35, 40
1, 10288800, Note_off_c, 1, 35, 0
1, 10288800, Note_on_c, 1, 35, 40
1, 10289040, Note_off_c, 1, 35, 0
1, 10289280, Note_on_c, 1, 35, 40
1, 10289400, Note_off_c, 1, 35, 0
1, 10289400, Note_on_c, 1, 38, 40
1, 10289520, Note_off_c, 1, 38, 0
1, 10289520, Note_on_c, 1, 40, 40
1, 10289760, Note_off_c, 1, 40, 0
1, 10289760, Note_on_c, 1, 40, 40
1, 10290000, Note_off_c, 1, 40, 0
1, 10290240, Note_on_c, 1, 40, 40
1, 10290360, Note_off_c, 1, 40, 0
1, 10290360, Note_on_c, 1, 38, 40
1, 10290480, Note_off_c, 1, 38, 0
1, 10290480, Note_on_c, 1, 35, 40
1, 10290720, Note_off_c, 1, 35, 0
1, 10290720, Note_on_c, 1, 35, 40
1, 10290960, Note_off_c, 1, 35, 0
1, 10290960, Note_on_c, 1, 33, 40
1, 10291200, Note_off_c, 1, 33, 0
1, 10291200, Note_on_c, 1, 30, 40
1, 10291440, Note_off_c, 1, 30, 0
1, 10291440, Note_on_c, 1, 35, 40
1, 10291680, Note_off_c, 1, 35, 0
1, 10291680, Note_on_c, 1, 35, 40
1, 10291920, Note_off_c, 1, 35, 0
1, 10292160, Note_on_c, 1, 35, 40
1, 10292280, Note_off_c, 1, 35, 0
1, 10292280, Note_on_c, 1, 33, 40
1, 10292400, Note_off_c, 1, 33, 0
1, 10292400, Note_on_c, 1, 30, 40
1, 10292640, Note_off_c, 1, 30, 0
1, 10292640, Note_on_c, 1, 30, 40
1, 10292880, Note_off_c, 1, 30, 0
1, 10293120, Note_on_c, 1, 30, 40
1, 10293240, Note_off_c, 1, 30, 0
1, 10293240, Note_on_c, 1, 33, 40
1, 10293360, Note_off_c, 1, 33, 0
1, 10293360, Note_on_c, 1, 35, 40
1, 10293600, Note_off_c, 1, 35, 0
1, 10293600, Note_on_c, 1, 35, 40
1, 10293840, Note_off_c, 1, 35, 0
1, 10294080, Note_on_c, 1, 35, 40
1, 10294200, Note_off_c, 1, 35, 0
1, 10294200, Note_on_c, 1, 33, 40
1, 10294320, Note_off_c, 1, 33, 0
1, 10294320, Note_on_c, 1, 30, 40
1, 10294560, Note_off_c, 1, 30, 0
1, 10294560, Note_on_c, 1, 30, 40
1, 10294800, Note_off_c, 1, 30, 0
1, 10294800, Note_on_c, 1, 33, 40
1, 10295040, Note_off_c, 1, 33, 0
1, 10295040, Note_on_c, 1, 30, 40
1, 10295280, Note_off_c, 1, 30, 0
1, 10295280, Note_on_c, 1, 30, 40
1, 10295520, Note_off_c, 1, 30, 0
1, 10295520, Note_on_c, 1, 34, 40
1, 10295760, Note_off_c, 1, 34, 0
1, 10295760, Note_on_c, 1, 37, 40
1, 10296000, Note_off_c, 1, 37, 0
1, 10296000, Note_on_c, 1, 42, 40
1, 10296720, Note_off_c, 1, 42, 0
1, 10297200, Note_on_c, 1, 28, 40
1, 10297440, Note_off_c, 1, 28, 0
1, 10297440, Note_on_c, 1, 32, 40
1, 10297680, Note_off_c, 1, 32, 0
1, 10297680, Note_on_c, 1, 35, 40
1, 10297920, Note_off_c, 1, 35, 0
1, 10297920, Note_on_c, 1, 40, 40
1, 10298640, Note_off_c, 1, 40, 0
1, 10299120, Note_on_c, 1, 35, 40
1, 10299600, Note_off_c, 1, 35, 0
1, 10299840, Note_on_c, 1, 35, 40
1, 10299960, Note_off_c, 1, 35, 0
1, 10299960, Note_on_c, 1, 33, 40
1, 10300080, Note_off_c, 1, 33, 0
1, 10300080, Note_on_c, 1, 30, 40
1, 10300320, Note_off_c, 1, 30, 0
1, 10300320, Note_on_c, 1, 30, 40
1, 10300560, Note_off_c, 1, 30, 0
1, 10300800, Note_on_c, 1, 33, 40
1, 10300920, Note_off_c, 1, 33, 0
1, 10300920, Note_on_c, 1, 34, 40
1, 10301040, Note_off_c, 1, 34, 0
1, 10301040, Note_on_c, 1, 35, 40
1, 10301280, Note_off_c, 1, 35, 0
1, 10301280, Note_on_c, 1, 35, 40
1, 10301520, Note_off_c, 1, 35, 0
1, 10301760, Note_on_c, 1, 35, 40
1, 10301880, Note_off_c, 1, 35, 0
1, 10301880, Note_on_c, 1, 33, 40
1, 10302000, Note_off_c, 1, 33, 0
1, 10302000, Note_on_c, 1, 30, 40
1, 10302240, Note_off_c, 1, 30, 0
1, 10302240, Note_on_c, 1, 30, 40
1, 10302720, Note_off_c, 1, 30, 0
1, 10302720, Note_on_c, 1, 30, 40
1, 10302960, Note_off_c, 1, 30, 0
1, 10302960, Note_on_c, 1, 35, 40
1, 10303440, Note_off_c, 1, 35, 0
1, 10303440, Note_on_c, 1, 35, 40
1, 10303920, Note_off_c, 1, 35, 0
1, 10303920, Note_on_c, 1, 35, 40
1, 10304400, Note_off_c, 1, 35, 0
1, 10304400, Note_on_c, 1, 35, 40
1, 10304880, Note_off_c, 1, 35, 0
1, 10304880, Note_on_c, 1, 33, 40
1, 10305360, Note_off_c, 1, 33, 0
1, 10305360, Note_on_c, 1, 33, 40
1, 10305840, Note_off_c, 1, 33, 0
1, 10305840, Note_on_c, 1, 33, 40
1, 10306320, Note_off_c, 1, 33, 0
1, 10306320, Note_on_c, 1, 33, 40
1, 10306800, Note_off_c, 1, 33, 0
1, 10306800, Note_on_c, 1, 38, 40
1, 10307280, Note_off_c, 1, 38, 0
1, 10307280, Note_on_c, 1, 38, 40
1, 10307760, Note_off_c, 1, 38, 0
1, 10307760, Note_on_c, 1, 38, 40
1, 10308240, Note_off_c, 1, 38, 0
1, 10308240, Note_on_c, 1, 38, 40
1, 10308720, Note_off_c, 1, 38, 0
1, 10308720, Note_on_c, 1, 40, 40
1, 10309200, Note_off_c, 1, 40, 0
1, 10309200, Note_on_c, 1, 40, 40
1, 10309680, Note_off_c, 1, 40, 0
1, 10309680, Note_on_c, 1, 40, 40
1, 10309800, Note_off_c, 1, 40, 0
1, 10309800, Note_on_c, 1, 42, 40
1, 10309920, Note_off_c, 1, 42, 0
1, 10309920, Note_on_c, 1, 45, 40
1, 10310040, Note_off_c, 1, 45, 0
1, 10310160, Note_on_c, 1, 40, 40
1, 10310280, Note_off_c, 1, 40, 0
1, 10310280, Note_on_c, 1, 42, 40
1, 10310400, Note_off_c, 1, 42, 0
1, 10310400, Note_on_c, 1, 45, 40
1, 10310520, Note_off_c, 1, 45, 0
1, 10310640, Note_on_c, 1, 35, 40
1, 10311120, Note_off_c, 1, 35, 0
1, 10311120, Note_on_c, 1, 35, 40
1, 10311480, Note_off_c, 1, 35, 0
1, 10311480, Note_on_c, 1, 33, 40
1, 10311600, Note_off_c, 1, 33, 0
1, 10311600, Note_on_c, 1, 30, 40
1, 10311840, Note_off_c, 1, 30, 0
1, 10311840, Note_on_c, 1, 30, 40
1, 10312080, Note_off_c, 1, 30, 0
1, 10312080, Note_on_c, 1, 33, 40
1, 10312320, Note_off_c, 1, 33, 0
1, 10312320, Note_on_c, 1, 35, 40
1, 10312560, Note_off_c, 1, 35, 0
1, 10312560, Note_on_c, 1, 35, 40
1, 10313040, Note_off_c, 1, 35, 0
1, 10313040, Note_on_c, 1, 35, 40
1, 10313400, Note_off_c, 1, 35, 0
1, 10313400, Note_on_c, 1, 33, 40
1, 10313520, Note_off_c, 1, 33, 0
1, 10313520, Note_on_c, 1, 30, 40
1, 10313760, Note_off_c, 1, 30, 0
1, 10313760, Note_on_c, 1, 30, 40
1, 10314000, Note_off_c, 1, 30, 0
1, 10314000, Note_on_c, 1, 33, 40
1, 10314240, Note_off_c, 1, 33, 0
1, 10314240, Note_on_c, 1, 35, 40
1, 10314480, Note_off_c, 1, 35, 0
1, 10314480, Note_on_c, 1, 35, 40
1, 10314960, Note_off_c, 1, 35, 0
1, 10314960, Note_on_c, 1, 35, 40
1, 10315320, Note_off_c, 1, 35, 0
1, 10315320, Note_on_c, 1, 33, 40
1, 10315440, Note_off_c, 1, 33, 0
1, 10315440, Note_on_c, 1, 30, 40
1, 10315680, Note_off_c, 1, 30, 0
1, 10315680, Note_on_c, 1, 30, 40
1, 10315920, Note_off_c, 1, 30, 0
1, 10315920, Note_on_c, 1, 33, 40
1, 10316160, Note_off_c, 1, 33, 0
1, 10316160, Note_on_c, 1, 35, 40
1, 10316400, Note_off_c, 1, 35, 0
1, 10316400, Note_on_c, 1, 35, 40
1, 10316880, Note_off_c, 1, 35, 0
1, 10316880, Note_on_c, 1, 35, 40
1, 10317240, Note_off_c, 1, 35, 0
1, 10317240, Note_on_c, 1, 33, 40
1, 10317360, Note_off_c, 1, 33, 0
1, 10317360, Note_on_c, 1, 30, 40
1, 10317600, Note_off_c, 1, 30, 0
1, 10317600, Note_on_c, 1, 33, 40
1, 10317840, Note_off_c, 1, 33, 0
1, 10317840, Note_on_c, 1, 35, 40
1, 10318080, Note_off_c, 1, 35, 0
1, 10318080, Note_on_c, 1, 39, 40
1, 10318320, Note_off_c, 1, 39, 0
1, 10318320, Note_on_c, 1, 40, 40
1, 10318800, Note_off_c, 1, 40, 0
1, 10318800, Note_on_c, 1, 40, 40
1, 10319160, Note_off_c, 1, 40, 0
1, 10319160, Note_on_c, 1, 38, 40
1, 10319280, Note_off_c, 1, 38, 0
1, 10319280, Note_on_c, 1, 35, 40
1, 10319520, Note_off_c, 1, 35, 0
1, 10319520, Note_on_c, 1, 35, 40
1, 10319760, Note_off_c, 1, 35, 0
1, 10319760, Note_on_c, 1, 38, 40
1, 10320000, Note_off_c, 1, 38, 0
1, 10320000, Note_on_c, 1, 40, 40
1, 10320240, Note_off_c, 1, 40, 0
1, 10320240, Note_on_c, 1, 40, 40
1, 10320720, Note_off_c, 1, 40, 0
1, 10320720, Note_on_c, 1, 40, 40
1, 10320960, Note_off_c, 1, 40, 0
1, 10320960, Note_on_c, 1, 38, 40
1, 10321200, Note_off_c, 1, 38, 0
1, 10321200, Note_on_c, 1, 40, 40
1, 10321320, Note_off_c, 1, 40, 0
1, 10321320, Note_on_c, 1, 42, 40
1, 10321440, Note_off_c, 1, 42, 0
1, 10321440, Note_on_c, 1, 45, 40
1, 10321560, Note_off_c, 1, 45, 0
1, 10321560, Note_on_c, 1, 42, 40
1, 10321680, Note_off_c, 1, 42, 0
1, 10321680, Note_on_c, 1, 40, 40
1, 10321800, Note_off_c, 1, 40, 0
1, 10321800, Note_on_c, 1, 38, 40
1, 10321920, Note_off_c, 1, 38, 0
1, 10321920, Note_on_c, 1, 35, 40
1, 10322040, Note_off_c, 1, 35, 0
1, 10322160, Note_on_c, 1, 35, 40
1, 10322280, Note_off_c, 1, 35, 0
1, 10322400, Note_on_c, 1, 35, 40
1, 10322520, Note_off_c, 1, 35, 0
1, 10322640, Note_on_c, 1, 35, 40
1, 10322760, Note_off_c, 1, 35, 0
1, 10322880, Note_on_c, 1, 33, 40
1, 10323000, Note_off_c, 1, 33, 0
1, 10323120, Note_on_c, 1, 30, 40
1, 10323240, Note_off_c, 1, 30, 0
1, 10323360, Note_on_c, 1, 30, 40
1, 10323480, Note_off_c, 1, 30, 0
1, 10323600, Note_on_c, 1, 33, 40
1, 10323720, Note_off_c, 1, 33, 0
1, 10323840, Note_on_c, 1, 35, 40
1, 10323960, Note_off_c, 1, 35, 0
1, 10324080, Note_on_c, 1, 35, 40
1, 10324320, Note_off_c, 1, 35, 0
1, 10324320, Note_on_c, 1, 35, 40
1, 10324560, Note_off_c, 1, 35, 0
1, 10324800, Note_on_c, 1, 35, 40
1, 10324920, Note_off_c, 1, 35, 0
1, 10324920, Note_on_c, 1, 33, 40
1, 10325040, Note_off_c, 1, 33, 0
1, 10325040, Note_on_c, 1, 30, 40
1, 10325280, Note_off_c, 1, 30, 0
1, 10325280, Note_on_c, 1, 30, 40
1, 10325520, Note_off_c, 1, 30, 0
1, 10325520, Note_on_c, 1, 33, 40
1, 10325760, Note_off_c, 1, 33, 0
1, 10325760, Note_on_c, 1, 30, 40
1, 10326000, Note_off_c, 1, 30, 0
1, 10326000, Note_on_c, 1, 30, 40
1, 10326240, Note_off_c, 1, 30, 0
1, 10326240, Note_on_c, 1, 34, 40
1, 10326480, Note_off_c, 1, 34, 0
1, 10326480, Note_on_c, 1, 37, 40
1, 10326720, Note_off_c, 1, 37, 0
1, 10326720, Note_on_c, 1, 42, 40
1, 10327440, Note_off_c, 1, 42, 0
1, 10327920, Note_on_c, 1, 28, 40
1, 10328160, Note_off_c, 1, 28, 0
1, 10328160, Note_on_c, 1, 32, 40
1, 10328400, Note_off_c, 1, 32, 0
1, 10328400, Note_on_c, 1, 35, 40
1, 10328640, Note_off_c, 1, 35, 0
1, 10328640, Note_on_c, 1, 40, 40
1, 10329360, Note_off_c, 1, 40, 0
1, 10329840, Note_on_c, 1, 35, 40
1, 10330320, Note_off_c, 1, 35, 0
1, 10330320, Note_on_c, 1, 35, 40
1, 10330680, Note_off_c, 1, 35, 0
1, 10330680, Note_on_c, 1, 33, 40
1, 10330800, Note_off_c, 1, 33, 0
1, 10330800, Note_on_c, 1, 30, 40
1, 10331040, Note_off_c, 1, 30, 0
1, 10331040, Note_on_c, 1, 30, 40
1, 10331280, Note_off_c, 1, 30, 0
1, 10331280, Note_on_c, 1, 33, 40
1, 10331520, Note_off_c, 1, 33, 0
1, 10331520, Note_on_c, 1, 34, 40
1, 10331760, Note_off_c, 1, 34, 0
1, 10331760, Note_on_c, 1, 35, 40
1, 10332240, Note_off_c, 1, 35, 0
1, 10332240, Note_on_c, 1, 35, 40
1, 10332600, Note_off_c, 1, 35, 0
1, 10332600, Note_on_c, 1, 33, 40
1, 10332720, Note_off_c, 1, 33, 0
1, 10332720, Note_on_c, 1, 30, 40
1, 10333200, Note_off_c, 1, 30, 0
1, 10333200, Note_on_c, 1, 30, 40
1, 10333680, Note_off_c, 1, 30, 0
1, 10333680, Note_on_c, 1, 35, 40
1, 10334160, Note_off_c, 1, 35, 0
1, 10334160, Note_on_c, 1, 35, 40
1, 10334640, Note_off_c, 1, 35, 0
1, 10334640, Note_on_c, 1, 35, 40
1, 10335120, Note_off_c, 1, 35, 0
1, 10335120, Note_on_c, 1, 35, 40
1, 10335600, Note_off_c, 1, 35, 0
1, 10335600, Note_on_c, 1, 33, 40
1, 10336080, Note_off_c, 1, 33, 0
1, 10336080, Note_on_c, 1, 33, 40
1, 10336560, Note_off_c, 1, 33, 0
1, 10336560, Note_on_c, 1, 33, 40
1, 10337040, Note_off_c, 1, 33, 0
1, 10337040, Note_on_c, 1, 33, 40
1, 10337520, Note_off_c, 1, 33, 0
1, 10337520, Note_on_c, 1, 38, 40
1, 10338000, Note_off_c, 1, 38, 0
1, 10338000, Note_on_c, 1, 38, 40
1, 10338480, Note_off_c, 1, 38, 0
1, 10338480, Note_on_c, 1, 38, 40
1, 10338960, Note_off_c, 1, 38, 0
1, 10338960, Note_on_c, 1, 38, 40
1, 10339440, Note_off_c, 1, 38, 0
1, 10339440, Note_on_c, 1, 40, 40
1, 10339920, Note_off_c, 1, 40, 0
1, 10339920, Note_on_c, 1, 40, 40
1, 10340400, Note_off_c, 1, 40, 0
1, 10340400, Note_on_c, 1, 40, 40
1, 10340880, Note_off_c, 1, 40, 0
1, 10340880, Note_on_c, 1, 40, 40
1, 10341360, Note_off_c, 1, 40, 0
1, 10341360, Note_on_c, 1, 35, 40
1, 10341840, Note_off_c, 1, 35, 0
1, 10341840, Note_on_c, 1, 35, 40
1, 10342200, Note_off_c, 1, 35, 0
1, 10342200, Note_on_c, 1, 33, 40
1, 10342320, Note_off_c, 1, 33, 0
1, 10342320, Note_on_c, 1, 30, 40
1, 10342560, Note_off_c, 1, 30, 0
1, 10342560, Note_on_c, 1, 30, 40
1, 10342800, Note_off_c, 1, 30, 0
1, 10342800, Note_on_c, 1, 33, 40
1, 10343040, Note_off_c, 1, 33, 0
1, 10343040, Note_on_c, 1, 35, 40
1, 10343280, Note_off_c, 1, 35, 0
1, 10343280, Note_on_c, 1, 35, 40
1, 10343760, Note_off_c, 1, 35, 0
1, 10343760, Note_on_c, 1, 35, 40
1, 10344120, Note_off_c, 1, 35, 0
1, 10344120, Note_on_c, 1, 33, 40
1, 10344240, Note_off_c, 1, 33, 0
1, 10344240, Note_on_c, 1, 30, 40
1, 10344480, Note_off_c, 1, 30, 0
1, 10344480, Note_on_c, 1, 30, 40
1, 10344720, Note_off_c, 1, 30, 0
1, 10344720, Note_on_c, 1, 33, 40
1, 10344960, Note_off_c, 1, 33, 0
1, 10344960, Note_on_c, 1, 35, 40
1, 10345200, Note_off_c, 1, 35, 0
1, 10345200, Note_on_c, 1, 35, 40
1, 10345680, Note_off_c, 1, 35, 0
1, 10345680, Note_on_c, 1, 35, 40
1, 10346040, Note_off_c, 1, 35, 0
1, 10346040, Note_on_c, 1, 33, 40
1, 10346160, Note_off_c, 1, 33, 0
1, 10346160, Note_on_c, 1, 30, 40
1, 10346400, Note_off_c, 1, 30, 0
1, 10346400, Note_on_c, 1, 30, 40
1, 10346640, Note_off_c, 1, 30, 0
1, 10346640, Note_on_c, 1, 33, 40
1, 10346880, Note_off_c, 1, 33, 0
1, 10346880, Note_on_c, 1, 35, 40
1, 10347120, Note_off_c, 1, 35, 0
1, 10347120, Note_on_c, 1, 35, 40
1, 10347600, Note_off_c, 1, 35, 0
1, 10347600, Note_on_c, 1, 35, 40
1, 10347960, Note_off_c, 1, 35, 0
1, 10347960, Note_on_c, 1, 33, 40
1, 10348080, Note_off_c, 1, 33, 0
1, 10348080, Note_on_c, 1, 30, 40
1, 10348320, Note_off_c, 1, 30, 0
1, 10348320, Note_on_c, 1, 33, 40
1, 10348560, Note_off_c, 1, 33, 0
1, 10348560, Note_on_c, 1, 35, 40
1, 10348800, Note_off_c, 1, 35, 0
1, 10348800, Note_on_c, 1, 39, 40
1, 10349040, Note_off_c, 1, 39, 0
1, 10349040, Note_on_c, 1, 40, 40
1, 10349520, Note_off_c, 1, 40, 0
1, 10349520, Note_on_c, 1, 40, 40
1, 10349880, Note_off_c, 1, 40, 0
1, 10349880, Note_on_c, 1, 38, 40
1, 10350000, Note_off_c, 1, 38, 0
1, 10350000, Note_on_c, 1, 35, 40
1, 10350240, Note_off_c, 1, 35, 0
1, 10350240, Note_on_c, 1, 35, 40
1, 10350480, Note_off_c, 1, 35, 0
1, 10350480, Note_on_c, 1, 38, 40
1, 10350720, Note_off_c, 1, 38, 0
1, 10350720, Note_on_c, 1, 40, 40
1, 10350960, Note_off_c, 1, 40, 0
1, 10350960, Note_on_c, 1, 40, 40
1, 10351440, Note_off_c, 1, 40, 0
1, 10351440, Note_on_c, 1, 40, 40
1, 10351680, Note_off_c, 1, 40, 0
1, 10351680, Note_on_c, 1, 38, 40
1, 10351920, Note_off_c, 1, 38, 0
1, 10351920, Note_on_c, 1, 40, 40
1, 10352040, Note_off_c, 1, 40, 0
1, 10352040, Note_on_c, 1, 42, 40
1, 10352160, Note_off_c, 1, 42, 0
1, 10352160, Note_on_c, 1, 45, 40
1, 10352280, Note_off_c, 1, 45, 0
1, 10352280, Note_on_c, 1, 42, 40
1, 10352400, Note_off_c, 1, 42, 0
1, 10352400, Note_on_c, 1, 40, 40
1, 10352520, Note_off_c, 1, 40, 0
1, 10352520, Note_on_c, 1, 38, 40
1, 10352640, Note_off_c, 1, 38, 0
1, 10352640, Note_on_c, 1, 35, 40
1, 10352760, Note_off_c, 1, 35, 0
1, 10352880, Note_on_c, 1, 35, 40
1, 10353000, Note_off_c, 1, 35, 0
1, 10353120, Note_on_c, 1, 35, 40
1, 10353240, Note_off_c, 1, 35, 0
1, 10353360, Note_on_c, 1, 35, 40
1, 10353480, Note_off_c, 1, 35, 0
1, 10353600, Note_on_c, 1, 33, 40
1, 10353720, Note_off_c, 1, 33, 0
1, 10353840, Note_on_c, 1, 30, 40
1, 10353960, Note_off_c, 1, 30, 0
1, 10354080, Note_on_c, 1, 30, 40
1, 10354200, Note_off_c, 1, 30, 0
1, 10354320, Note_on_c, 1, 33, 40
1, 10354440, Note_off_c, 1, 33, 0
1, 10354560, Note_on_c, 1, 35, 40
1, 10354680, Note_off_c, 1, 35, 0
1, 10354800, Note_on_c, 1, 35, 40
1, 10355040, Note_off_c, 1, 35, 0
1, 10355040, Note_on_c, 1, 35, 40
1, 10355280, Note_off_c, 1, 35, 0
1, 10355520, Note_on_c, 1, 35, 40
1, 10355640, Note_off_c, 1, 35, 0
1, 10355640, Note_on_c, 1, 33, 40
1, 10355760, Note_off_c, 1, 33, 0
1, 10355760, Note_on_c, 1, 30, 40
1, 10356000, Note_off_c, 1, 30, 0
1, 10356000, Note_on_c, 1, 30, 40
1, 10356240, Note_off_c, 1, 30, 0
1, 10356240, Note_on_c, 1, 33, 40
1, 10356480, Note_off_c, 1, 33, 0
1, 10356480, Note_on_c, 1, 30, 40
1, 10356720, Note_off_c, 1, 30, 0
1, 10356720, Note_on_c, 1, 30, 40
1, 10356960, Note_off_c, 1, 30, 0
1, 10356960, Note_on_c, 1, 34, 40
1, 10357200, Note_off_c, 1, 34, 0
1, 10357200, Note_on_c, 1, 37, 40
1, 10357440, Note_off_c, 1, 37, 0
1, 10357440, Note_on_c, 1, 42, 40
1, 10358160, Note_off_c, 1, 42, 0
1, 10358640, Note_on_c, 1, 28, 40
1, 10358880, Note_off_c, 1, 28, 0
1, 10358880, Note_on_c, 1, 32, 40
1, 10359120, Note_off_c, 1, 32, 0
1, 10359120, Note_on_c, 1, 35, 40
1, 10359360, Note_off_c, 1, 35, 0
1, 10359360, Note_on_c, 1, 40, 40
1, 10360080, Note_off_c, 1, 40, 0
1, 10360560, Note_on_c, 1, 35, 40
1, 10361040, Note_off_c, 1, 35, 0
1, 10361040, Note_on_c, 1, 35, 40
1, 10361400, Note_off_c, 1, 35, 0
1, 10361400, Note_on_c, 1, 33, 40
1, 10361520, Note_off_c, 1, 33, 0
1, 10361520, Note_on_c, 1, 30, 40
1, 10361760, Note_off_c, 1, 30, 0
1, 10361760, Note_on_c, 1, 30, 40
1, 10362000, Note_off_c, 1, 30, 0
1, 10362000, Note_on_c, 1, 33, 40
1, 10362240, Note_off_c, 1, 33, 0
1, 10362240, Note_on_c, 1, 34, 40
1, 10362480, Note_off_c, 1, 34, 0
1, 10362480, Note_on_c, 1, 35, 40
1, 10362960, Note_off_c, 1, 35, 0
1, 10362960, Note_on_c, 1, 35, 40
1, 10363320, Note_off_c, 1, 35, 0
1, 10363320, Note_on_c, 1, 33, 40
1, 10363440, Note_off_c, 1, 33, 0
1, 10363440, Note_on_c, 1, 30, 40
1, 10363920, Note_off_c, 1, 30, 0
1, 10363920, Note_on_c, 1, 30, 40
1, 10364400, Note_off_c, 1, 30, 0
1, 10364400, Note_on_c, 1, 35, 40
1, 10364880, Note_off_c, 1, 35, 0
1, 10364880, Note_on_c, 1, 35, 40
1, 10365360, Note_off_c, 1, 35, 0
1, 10365360, Note_on_c, 1, 35, 40
1, 10365840, Note_off_c, 1, 35, 0
1, 10365840, Note_on_c, 1, 35, 40
1, 10366320, Note_off_c, 1, 35, 0
1, 10366320, Note_on_c, 1, 33, 40
1, 10366800, Note_off_c, 1, 33, 0
1, 10366800, Note_on_c, 1, 33, 40
1, 10367280, Note_off_c, 1, 33, 0
1, 10367280, Note_on_c, 1, 33, 40
1, 10367760, Note_off_c, 1, 33, 0
1, 10367760, Note_on_c, 1, 33, 40
1, 10368240, Note_off_c, 1, 33, 0
1, 10368240, Note_on_c, 1, 38, 40
1, 10368720, Note_off_c, 1, 38, 0
1, 10368720, Note_on_c, 1, 38, 40
1, 10369200, Note_off_c, 1, 38, 0
1, 10369200, Note_on_c, 1, 38, 40
1, 10369680, Note_off_c, 1, 38, 0
1, 10369680, Note_on_c, 1, 38, 40
1, 10370160, Note_off_c, 1, 38, 0
1, 10370160, Note_on_c, 1, 40, 40
1, 10370640, Note_off_c, 1, 40, 0
1, 10370640, Note_on_c, 1, 40, 40
1, 10371120, Note_off_c, 1, 40, 0
1, 10371120, Note_on_c, 1, 40, 40
1, 10371600, Note_off_c, 1, 40, 0
1, 10371600, Note_on_c, 1, 40, 40
1, 10372080, Note_off_c, 1, 40, 0
1, 10376400, Note_on_c, 1, 42, 40
1, 10377240, Note_off_c, 1, 42, 0
1, 10377360, Note_on_c, 1, 37, 40
1, 10377600, Note_off_c, 1, 37, 0
1, 10377600, Note_on_c, 1, 37, 40
1, 10378080, Note_off_c, 1, 37, 0
1, 10378080, Note_on_c, 1, 37, 40
1, 10378320, Note_off_c, 1, 37, 0
1, 10378320, Note_on_c, 1, 42, 40
1, 10379160, Note_off_c, 1, 42, 0
1, 10379280, Note_on_c, 1, 37, 40
1, 10380120, Note_off_c, 1, 37, 0
1, 10380240, Note_on_c, 1, 42, 40
1, 10380960, Note_off_c, 1, 42, 0
1, 10380960, Note_on_c, 1, 42, 40
1, 10381200, Note_off_c, 1, 42, 0
1, 10381200, Note_on_c, 1, 37, 40
1, 10382040, Note_off_c, 1, 37, 0
1, 10382160, Note_on_c, 1, 42, 40
1, 10382880, Note_off_c, 1, 42, 0
1, 10382880, Note_on_c, 1, 42, 40
1, 10383120, Note_off_c, 1, 42, 0
1, 10383120, Note_on_c, 1, 37, 40
1, 10383600, Note_off_c, 1, 37, 0
1, 10383600, Note_on_c, 1, 40, 40
1, 10384080, Note_off_c, 1, 40, 0
1, 10384080, Note_on_c, 1, 42, 40
1, 10384800, Note_off_c, 1, 42, 0
1, 10384800, Note_on_c, 1, 42, 40
1, 10385040, Note_off_c, 1, 42, 0
1, 10385040, Note_on_c, 1, 37, 40
1, 10385520, Note_off_c, 1, 37, 0
1, 10385520, Note_on_c, 1, 40, 40
1, 10386000, Note_off_c, 1, 40, 0
1, 10386000, Note_on_c, 1, 42, 40
1, 10386720, Note_off_c, 1, 42, 0
1, 10386720, Note_on_c, 1, 42, 40
1, 10386960, Note_off_c, 1, 42, 0
1, 10386960, Note_on_c, 1, 37, 40
1, 10387440, Note_off_c, 1, 37, 0
1, 10387440, Note_on_c, 1, 40, 40
1, 10387920, Note_off_c, 1, 40, 0
1, 10387920, Note_on_c, 1, 42, 40
1, 10388640, Note_off_c, 1, 42, 0
1, 10388640, Note_on_c, 1, 42, 40
1, 10388880, Note_off_c, 1, 42, 0
1, 10388880, Note_on_c, 1, 37, 40
1, 10389360, Note_off_c, 1, 37, 0
1, 10389360, Note_on_c, 1, 40, 40
1, 10389840, Note_off_c, 1, 40, 0
1, 10389840, Note_on_c, 1, 42, 40
1, 10390560, Note_off_c, 1, 42, 0
1, 10390560, Note_on_c, 1, 42, 40
1, 10390800, Note_off_c, 1, 42, 0
1, 10390800, Note_on_c, 1, 37, 40
1, 10391280, Note_off_c, 1, 37, 0
1, 10391280, Note_on_c, 1, 40, 40
1, 10391760, Note_off_c, 1, 40, 0
1, 10391760, Note_on_c, 1, 42, 40
1, 10392480, Note_off_c, 1, 42, 0
1, 10392480, Note_on_c, 1, 42, 40
1, 10392720, Note_off_c, 1, 42, 0
1, 10392720, Note_on_c, 1, 37, 40
1, 10393200, Note_off_c, 1, 37, 0
1, 10393200, Note_on_c, 1, 40, 40
1, 10393680, Note_off_c, 1, 40, 0
1, 10393680, Note_on_c, 1, 42, 40
1, 10394400, Note_off_c, 1, 42, 0
1, 10394400, Note_on_c, 1, 42, 40
1, 10394640, Note_off_c, 1, 42, 0
1, 10394640, Note_on_c, 1, 37, 40
1, 10395120, Note_off_c, 1, 37, 0
1, 10395120, Note_on_c, 1, 40, 40
1, 10395600, Note_off_c, 1, 40, 0
1, 10395600, Note_on_c, 1, 33, 40
1, 10396320, Note_off_c, 1, 33, 0
1, 10396320, Note_on_c, 1, 33, 40
1, 10396560, Note_off_c, 1, 33, 0
1, 10396560, Note_on_c, 1, 33, 40
1, 10397280, Note_off_c, 1, 33, 0
1, 10397280, Note_on_c, 1, 33, 40
1, 10397520, Note_off_c, 1, 33, 0
1, 10397520, Note_on_c, 1, 33, 40
1, 10398240, Note_off_c, 1, 33, 0
1, 10398240, Note_on_c, 1, 33, 40
1, 10398480, Note_off_c, 1, 33, 0
1, 10398480, Note_on_c, 1, 33, 40
1, 10398960, Note_off_c, 1, 33, 0
1, 10398960, Note_on_c, 1, 33, 40
1, 10399440, Note_off_c, 1, 33, 0
1, 10399440, Note_on_c, 1, 38, 40
1, 10400160, Note_off_c, 1, 38, 0
1, 10400160, Note_on_c, 1, 38, 40
1, 10400400, Note_off_c, 1, 38, 0
1, 10400400, Note_on_c, 1, 38, 40
1, 10401120, Note_off_c, 1, 38, 0
1, 10401120, Note_on_c, 1, 38, 40
1, 10401360, Note_off_c, 1, 38, 0
1, 10401360, Note_on_c, 1, 31, 40
1, 10402080, Note_off_c, 1, 31, 0
1, 10402080, Note_on_c, 1, 31, 40
1, 10402320, Note_off_c, 1, 31, 0
1, 10402320, Note_on_c, 1, 31, 40
1, 10403040, Note_off_c, 1, 31, 0
1, 10403040, Note_on_c, 1, 31, 40
1, 10403280, Note_off_c, 1, 31, 0
1, 10403280, Note_on_c, 1, 30, 40
1, 10404000, Note_off_c, 1, 30, 0
1, 10404000, Note_on_c, 1, 30, 40
1, 10404240, Note_off_c, 1, 30, 0
1, 10404240, Note_on_c, 1, 25, 40
1, 10404960, Note_off_c, 1, 25, 0
1, 10404960, Note_on_c, 1, 28, 40
1, 10405200, Note_off_c, 1, 28, 0
1, 10405200, Note_on_c, 1, 30, 40
1, 10405920, Note_off_c, 1, 30, 0
1, 10405920, Note_on_c, 1, 30, 40
1, 10406160, Note_off_c, 1, 30, 0
1, 10406160, Note_on_c, 1, 37, 40
1, 10406640, Note_off_c, 1, 37, 0
1, 10406640, Note_on_c, 1, 40, 40
1, 10407120, Note_off_c, 1, 40, 0
1, 10407120, Note_on_c, 1, 42, 40
1, 10407960, Note_off_c, 1, 42, 0
1, 10408080, Note_on_c, 1, 37, 40
1, 10408560, Note_off_c, 1, 37, 0
1, 10408560, Note_on_c, 1, 37, 40
1, 10409040, Note_off_c, 1, 37, 0
1, 10409040, Note_on_c, 1, 42, 40
1, 10409760, Note_off_c, 1, 42, 0
1, 10409760, Note_on_c, 1, 42, 40
1, 10410000, Note_off_c, 1, 42, 0
1, 10410000, Note_on_c, 1, 42, 40
1, 10410840, Note_off_c, 1, 42, 0
1, 10410960, Note_on_c, 1, 42, 40
1, 10411680, Note_off_c, 1, 42, 0
1, 10411680, Note_on_c, 1, 42, 40
1, 10411920, Note_off_c, 1, 42, 0
1, 10411920, Note_on_c, 1, 42, 40
1, 10412760, Note_off_c, 1, 42, 0
1, 10412880, Note_on_c, 1, 42, 40
1, 10413600, Note_off_c, 1, 42, 0
1, 10413600, Note_on_c, 1, 42, 40
1, 10413840, Note_off_c, 1, 42, 0
1, 10413840, Note_on_c, 1, 37, 40
1, 10414320, Note_off_c, 1, 37, 0
1, 10414320, Note_on_c, 1, 40, 40
1, 10414800, Note_off_c, 1, 40, 0
1, 10414800, Note_on_c, 1, 42, 40
1, 10415520, Note_off_c, 1, 42, 0
1, 10415520, Note_on_c, 1, 42, 40
1, 10415760, Note_off_c, 1, 42, 0
1, 10415760, Note_on_c, 1, 37, 40
1, 10416240, Note_off_c, 1, 37, 0
1, 10416240, Note_on_c, 1, 40, 40
1, 10416720, Note_off_c, 1, 40, 0
1, 10416720, Note_on_c, 1, 42, 40
1, 10417440, Note_off_c, 1, 42, 0
1, 10417440, Note_on_c, 1, 42, 40
1, 10417680, Note_off_c, 1, 42, 0
1, 10417680, Note_on_c, 1, 37, 40
1, 10418160, Note_off_c, 1, 37, 0
1, 10418160, Note_on_c, 1, 40, 40
1, 10418640, Note_off_c, 1, 40, 0
1, 10418640, Note_on_c, 1, 42, 40
1, 10419360, Note_off_c, 1, 42, 0
1, 10419360, Note_on_c, 1, 42, 40
1, 10419600, Note_off_c, 1, 42, 0
1, 10419600, Note_on_c, 1, 37, 40
1, 10420080, Note_off_c, 1, 37, 0
1, 10420080, Note_on_c, 1, 37, 40
1, 10420560, Note_off_c, 1, 37, 0
1, 10420560, Note_on_c, 1, 42, 40
1, 10421280, Note_off_c, 1, 42, 0
1, 10421280, Note_on_c, 1, 42, 40
1, 10421520, Note_off_c, 1, 42, 0
1, 10421520, Note_on_c, 1, 37, 40
1, 10422000, Note_off_c, 1, 37, 0
1, 10422000, Note_on_c, 1, 37, 40
1, 10422480, Note_off_c, 1, 37, 0
1, 10422480, Note_on_c, 1, 42, 40
1, 10423200, Note_off_c, 1, 42, 0
1, 10423200, Note_on_c, 1, 42, 40
1, 10423440, Note_off_c, 1, 42, 0
1, 10423440, Note_on_c, 1, 37, 40
1, 10423920, Note_off_c, 1, 37, 0
1, 10423920, Note_on_c, 1, 40, 40
1, 10424400, Note_off_c, 1, 40, 0
1, 10424400, Note_on_c, 1, 42, 40
1, 10425120, Note_off_c, 1, 42, 0
1, 10425120, Note_on_c, 1, 42, 40
1, 10425360, Note_off_c, 1, 42, 0
1, 10425360, Note_on_c, 1, 37, 40
1, 10425840, Note_off_c, 1, 37, 0
1, 10425840, Note_on_c, 1, 37, 40
1, 10426320, Note_off_c, 1, 37, 0
1, 10426320, Note_on_c, 1, 42, 40
1, 10427040, Note_off_c, 1, 42, 0
1, 10427040, Note_on_c, 1, 42, 40
1, 10427280, Note_off_c, 1, 42, 0
1, 10427280, Note_on_c, 1, 37, 40
1, 10427760, Note_off_c, 1, 37, 0
1, 10427760, Note_on_c, 1, 40, 40
1, 10428240, Note_off_c, 1, 40, 0
1, 10428240, Note_on_c, 1, 33, 40
1, 10428960, Note_off_c, 1, 33, 0
1, 10428960, Note_on_c, 1, 33, 40
1, 10429200, Note_off_c, 1, 33, 0
1, 10429200, Note_on_c, 1, 33, 40
1, 10429920, Note_off_c, 1, 33, 0
1, 10429920, Note_on_c, 1, 33, 40
1, 10430160, Note_off_c, 1, 33, 0
1, 10430160, Note_on_c, 1, 33, 40
1, 10430880, Note_off_c, 1, 33, 0
1, 10430880, Note_on_c, 1, 33, 40
1, 10431120, Note_off_c, 1, 33, 0
1, 10431120, Note_on_c, 1, 33, 40
1, 10431600, Note_off_c, 1, 33, 0
1, 10431600, Note_on_c, 1, 33, 40
1, 10432080, Note_off_c, 1, 33, 0
1, 10432080, Note_on_c, 1, 38, 40
1, 10432800, Note_off_c, 1, 38, 0
1, 10432800, Note_on_c, 1, 38, 40
1, 10433040, Note_off_c, 1, 38, 0
1, 10433040, Note_on_c, 1, 38, 40
1, 10433760, Note_off_c, 1, 38, 0
1, 10433760, Note_on_c, 1, 38, 40
1, 10434000, Note_off_c, 1, 38, 0
1, 10434000, Note_on_c, 1, 31, 40
1, 10434720, Note_off_c, 1, 31, 0
1, 10434720, Note_on_c, 1, 31, 40
1, 10434960, Note_off_c, 1, 31, 0
1, 10434960, Note_on_c, 1, 31, 40
1, 10435680, Note_off_c, 1, 31, 0
1, 10435680, Note_on_c, 1, 31, 40
1, 10435920, Note_off_c, 1, 31, 0
1, 10435920, Note_on_c, 1, 30, 40
1, 10436640, Note_off_c, 1, 30, 0
1, 10436640, Note_on_c, 1, 30, 40
1, 10436880, Note_off_c, 1, 30, 0
1, 10436880, Note_on_c, 1, 25, 40
1, 10437600, Note_off_c, 1, 25, 0
1, 10437600, Note_on_c, 1, 28, 40
1, 10437840, Note_off_c, 1, 28, 0
1, 10437840, Note_on_c, 1, 30, 40
1, 10438560, Note_off_c, 1, 30, 0
1, 10438560, Note_on_c, 1, 30, 40
1, 10438800, Note_off_c, 1, 30, 0
1, 10438800, Note_on_c, 1, 37, 40
1, 10439280, Note_off_c, 1, 37, 0
1, 10439280, Note_on_c, 1, 40, 40
1, 10439760, Note_off_c, 1, 40, 0
1, 10439760, Note_on_c, 1, 42, 40
1, 10440600, Note_off_c, 1, 42, 0
1, 10440720, Note_on_c, 1, 37, 40
1, 10441200, Note_off_c, 1, 37, 0
1, 10441200, Note_on_c, 1, 37, 40
1, 10441680, Note_off_c, 1, 37, 0
1, 10441680, Note_on_c, 1, 30, 40
1, 10442400, Note_off_c, 1, 30, 0
1, 10442400, Note_on_c, 1, 30, 40
1, 10442640, Note_off_c, 1, 30, 0
1, 10442640, Note_on_c, 1, 30, 40
1, 10443360, Note_off_c, 1, 30, 0
1, 10443360, Note_on_c, 1, 30, 40
1, 10443600, Note_off_c, 1, 30, 0
1, 10443600, Note_on_c, 1, 30, 40
1, 10444320, Note_off_c, 1, 30, 0
1, 10444320, Note_on_c, 1, 30, 40
1, 10444560, Note_off_c, 1, 30, 0
1, 10444560, Note_on_c, 1, 30, 40
1, 10445280, Note_off_c, 1, 30, 0
1, 10445280, Note_on_c, 1, 30, 40
1, 10445520, Note_off_c, 1, 30, 0
1, 10445520, Note_on_c, 1, 35, 40
1, 10446240, Note_off_c, 1, 35, 0
1, 10446240, Note_on_c, 1, 35, 40
1, 10446480, Note_off_c, 1, 35, 0
1, 10446480, Note_on_c, 1, 35, 40
1, 10447200, Note_off_c, 1, 35, 0
1, 10447200, Note_on_c, 1, 35, 40
1, 10447440, Note_off_c, 1, 35, 0
1, 10447440, Note_on_c, 1, 32, 40
1, 10448160, Note_off_c, 1, 32, 0
1, 10448160, Note_on_c, 1, 32, 40
1, 10448400, Note_off_c, 1, 32, 0
1, 10448400, Note_on_c, 1, 32, 40
1, 10449120, Note_off_c, 1, 32, 0
1, 10449120, Note_on_c, 1, 32, 40
1, 10449360, Note_off_c, 1, 32, 0
1, 10449360, Note_on_c, 1, 37, 40
1, 10450080, Note_off_c, 1, 37, 0
1, 10450080, Note_on_c, 1, 37, 40
1, 10450320, Note_off_c, 1, 37, 0
1, 10450320, Note_on_c, 1, 37, 40
1, 10451040, Note_off_c, 1, 37, 0
1, 10451040, Note_on_c, 1, 37, 40
1, 10451280, Note_off_c, 1, 37, 0
1, 10451280, Note_on_c, 1, 30, 40
1, 10452000, Note_off_c, 1, 30, 0
1, 10452000, Note_on_c, 1, 34, 40
1, 10452240, Note_off_c, 1, 34, 0
1, 10452240, Note_on_c, 1, 37, 40
1, 10452720, Note_off_c, 1, 37, 0
1, 10452720, Note_on_c, 1, 34, 40
1, 10453200, Note_off_c, 1, 34, 0
1, 10453200, Note_on_c, 1, 35, 40
1, 10453920, Note_off_c, 1, 35, 0
1, 10453920, Note_on_c, 1, 39, 40
1, 10454160, Note_off_c, 1, 39, 0
1, 10454160, Note_on_c, 1, 42, 40
1, 10454640, Note_off_c, 1, 42, 0
1, 10454640, Note_on_c, 1, 39, 40
1, 10455120, Note_off_c, 1, 39, 0
1, 10455120, Note_on_c, 1, 44, 40
1, 10455840, Note_off_c, 1, 44, 0
1, 10455840, Note_on_c, 1, 44, 40
1, 10456080, Note_off_c, 1, 44, 0
1, 10456080, Note_on_c, 1, 39, 40
1, 10456800, Note_off_c, 1, 39, 0
1, 10456800, Note_on_c, 1, 44, 40
1, 10457040, Note_off_c, 1, 44, 0
1, 10457040, Note_on_c, 1, 43, 40
1, 10457760, Note_off_c, 1, 43, 0
1, 10457760, Note_on_c, 1, 43, 40
1, 10458000, Note_off_c, 1, 43, 0
1, 10458000, Note_on_c, 1, 43, 40
1, 10458720, Note_off_c, 1, 43, 0
1, 10458720, Note_on_c, 1, 43, 40
1, 10458960, Note_off_c, 1, 43, 0
1, 10458960, Note_on_c, 1, 42, 40
1, 10459680, Note_off_c, 1, 42, 0
1, 10459680, Note_on_c, 1, 42, 40
1, 10459920, Note_off_c, 1, 42, 0
1, 10459920, Note_on_c, 1, 37, 40
1, 10460400, Note_off_c, 1, 37, 0
1, 10460400, Note_on_c, 1, 40, 40
1, 10460880, Note_off_c, 1, 40, 0
1, 10460880, Note_on_c, 1, 42, 40
1, 10461600, Note_off_c, 1, 42, 0
1, 10461600, Note_on_c, 1, 42, 40
1, 10461840, Note_off_c, 1, 42, 0
1, 10461840, Note_on_c, 1, 37, 40
1, 10462320, Note_off_c, 1, 37, 0
1, 10462320, Note_on_c, 1, 40, 40
1, 10462800, Note_off_c, 1, 40, 0
1, 10462800, Note_on_c, 1, 42, 40
1, 10463520, Note_off_c, 1, 42, 0
1, 10463520, Note_on_c, 1, 42, 40
1, 10463760, Note_off_c, 1, 42, 0
1, 10463760, Note_on_c, 1, 37, 40
1, 10464240, Note_off_c, 1, 37, 0
1, 10464240, Note_on_c, 1, 40, 40
1, 10464720, Note_off_c, 1, 40, 0
1, 10464720, Note_on_c, 1, 42, 40
1, 10465440, Note_off_c, 1, 42, 0
1, 10465440, Note_on_c, 1, 42, 40
1, 10465680, Note_off_c, 1, 42, 0
1, 10465680, Note_on_c, 1, 37, 40
1, 10466160, Note_off_c, 1, 37, 0
1, 10466160, Note_on_c, 1, 37, 40
1, 10466640, Note_off_c, 1, 37, 0
1, 10466640, Note_on_c, 1, 42, 40
1, 10467360, Note_off_c, 1, 42, 0
1, 10467360, Note_on_c, 1, 42, 40
1, 10467600, Note_off_c, 1, 42, 0
1, 10467600, Note_on_c, 1, 37, 40
1, 10468080, Note_off_c, 1, 37, 0
1, 10468080, Note_on_c, 1, 37, 40
1, 10468560, Note_off_c, 1, 37, 0
1, 10468560, Note_on_c, 1, 42, 40
1, 10469280, Note_off_c, 1, 42, 0
1, 10469280, Note_on_c, 1, 42, 40
1, 10469520, Note_off_c, 1, 42, 0
1, 10469520, Note_on_c, 1, 37, 40
1, 10470000, Note_off_c, 1, 37, 0
1, 10470000, Note_on_c, 1, 40, 40
1, 10470480, Note_off_c, 1, 40, 0
1, 10470480, Note_on_c, 1, 42, 40
1, 10471200, Note_off_c, 1, 42, 0
1, 10471200, Note_on_c, 1, 42, 40
1, 10471440, Note_off_c, 1, 42, 0
1, 10471440, Note_on_c, 1, 37, 40
1, 10471920, Note_off_c, 1, 37, 0
1, 10471920, Note_on_c, 1, 37, 40
1, 10472400, Note_off_c, 1, 37, 0
1, 10472400, Note_on_c, 1, 42, 40
1, 10473120, Note_off_c, 1, 42, 0
1, 10473120, Note_on_c, 1, 42, 40
1, 10473360, Note_off_c, 1, 42, 0
1, 10473360, Note_on_c, 1, 37, 40
1, 10473840, Note_off_c, 1, 37, 0
1, 10473840, Note_on_c, 1, 40, 40
1, 10474320, Note_off_c, 1, 40, 0
1, 10474320, Note_on_c, 1, 33, 40
1, 10475040, Note_off_c, 1, 33, 0
1, 10475040, Note_on_c, 1, 33, 40
1, 10475280, Note_off_c, 1, 33, 0
1, 10475280, Note_on_c, 1, 33, 40
1, 10476000, Note_off_c, 1, 33, 0
1, 10476000, Note_on_c, 1, 33, 40
1, 10476240, Note_off_c, 1, 33, 0
1, 10476240, Note_on_c, 1, 33, 40
1, 10476960, Note_off_c, 1, 33, 0
1, 10476960, Note_on_c, 1, 33, 40
1, 10477200, Note_off_c, 1, 33, 0
1, 10477200, Note_on_c, 1, 33, 40
1, 10477680, Note_off_c, 1, 33, 0
1, 10477680, Note_on_c, 1, 33, 40
1, 10478160, Note_off_c, 1, 33, 0
1, 10478160, Note_on_c, 1, 38, 40
1, 10478880, Note_off_c, 1, 38, 0
1, 10478880, Note_on_c, 1, 38, 40
1, 10479120, Note_off_c, 1, 38, 0
1, 10479120, Note_on_c, 1, 38, 40
1, 10479840, Note_off_c, 1, 38, 0
1, 10479840, Note_on_c, 1, 38, 40
1, 10480080, Note_off_c, 1, 38, 0
1, 10480080, Note_on_c, 1, 31, 40
1, 10480800, Note_off_c, 1, 31, 0
1, 10480800, Note_on_c, 1, 31, 40
1, 10481040, Note_off_c, 1, 31, 0
1, 10481040, Note_on_c, 1, 31, 40
1, 10481760, Note_off_c, 1, 31, 0
1, 10481760, Note_on_c, 1, 31, 40
1, 10482000, Note_off_c, 1, 31, 0
1, 10482000, Note_on_c, 1, 30, 40
1, 10482720, Note_off_c, 1, 30, 0
1, 10482720, Note_on_c, 1, 30, 40
1, 10482960, Note_off_c, 1, 30, 0
1, 10482960, Note_on_c, 1, 25, 40
1, 10483680, Note_off_c, 1, 25, 0
1, 10483680, Note_on_c, 1, 28, 40
1, 10483920, Note_off_c, 1, 28, 0
1, 10483920, Note_on_c, 1, 30, 40
1, 10484640, Note_off_c, 1, 30, 0
1, 10484640, Note_on_c, 1, 30, 40
1, 10484880, Note_off_c, 1, 30, 0
1, 10484880, Note_on_c, 1, 37, 40
1, 10485360, Note_off_c, 1, 37, 0
1, 10485360, Note_on_c, 1, 40, 40
1, 10485840, Note_off_c, 1, 40, 0
1, 10485840, Note_on_c, 1, 42, 40
1, 10486680, Note_off_c, 1, 42, 0
1, 10486800, Note_on_c, 1, 37, 40
1, 10487280, Note_off_c, 1, 37, 0
1, 10487280, Note_on_c, 1, 37, 40
1, 10487760, Note_off_c, 1, 37, 0
1, 10487760, Note_on_c, 1, 30, 40
1, 10488480, Note_off_c, 1, 30, 0
1, 10488480, Note_on_c, 1, 30, 40
1, 10488720, Note_off_c, 1, 30, 0
1, 10488720, Note_on_c, 1, 30, 40
1, 10489440, Note_off_c, 1, 30, 0
1, 10489440, Note_on_c, 1, 30, 40
1, 10489680, Note_off_c, 1, 30, 0
1, 10489680, Note_on_c, 1, 30, 40
1, 10490400, Note_off_c, 1, 30, 0
1, 10490400, Note_on_c, 1, 34, 40
1, 10490640, Note_off_c, 1, 34, 0
1, 10490640, Note_on_c, 1, 37, 40
1, 10491120, Note_off_c, 1, 37, 0
1, 10491120, Note_on_c, 1, 34, 40
1, 10491600, Note_off_c, 1, 34, 0
1, 10491600, Note_on_c, 1, 35, 40
1, 10492320, Note_off_c, 1, 35, 0
1, 10492320, Note_on_c, 1, 39, 40
1, 10492560, Note_off_c, 1, 39, 0
1, 10492560, Note_on_c, 1, 42, 40
1, 10493040, Note_off_c, 1, 42, 0
1, 10493040, Note_on_c, 1, 39, 40
1, 10493520, Note_off_c, 1, 39, 0
1, 10493520, Note_on_c, 1, 32, 40
1, 10494240, Note_off_c, 1, 32, 0
1, 10494240, Note_on_c, 1, 36, 40
1, 10494480, Note_off_c, 1, 36, 0
1, 10494480, Note_on_c, 1, 39, 40
1, 10494960, Note_off_c, 1, 39, 0
1, 10494960, Note_on_c, 1, 36, 40
1, 10495440, Note_off_c, 1, 36, 0
1, 10495440, Note_on_c, 1, 37, 40
1, 10496160, Note_off_c, 1, 37, 0
1, 10496160, Note_on_c, 1, 37, 40
1, 10496400, Note_off_c, 1, 37, 0
1, 10496400, Note_on_c, 1, 37, 40
1, 10497120, Note_off_c, 1, 37, 0
1, 10497120, Note_on_c, 1, 37, 40
1, 10497360, Note_off_c, 1, 37, 0
1, 10497360, Note_on_c, 1, 30, 40
1, 10498080, Note_off_c, 1, 30, 0
1, 10498080, Note_on_c, 1, 34, 40
1, 10498320, Note_off_c, 1, 34, 0
1, 10498320, Note_on_c, 1, 37, 40
1, 10498800, Note_off_c, 1, 37, 0
1, 10498800, Note_on_c, 1, 34, 40
1, 10499280, Note_off_c, 1, 34, 0
1, 10499280, Note_on_c, 1, 35, 40
1, 10500000, Note_off_c, 1, 35, 0
1, 10500000, Note_on_c, 1, 39, 40
1, 10500240, Note_off_c, 1, 39, 0
1, 10500240, Note_on_c, 1, 42, 40
1, 10500720, Note_off_c, 1, 42, 0
1, 10500720, Note_on_c, 1, 39, 40
1, 10501200, Note_off_c, 1, 39, 0
1, 10501200, Note_on_c, 1, 44, 40
1, 10501920, Note_off_c, 1, 44, 0
1, 10501920, Note_on_c, 1, 44, 40
1, 10502160, Note_off_c, 1, 44, 0
1, 10502160, Note_on_c, 1, 39, 40
1, 10502880, Note_off_c, 1, 39, 0
1, 10502880, Note_on_c, 1, 44, 40
1, 10503120, Note_off_c, 1, 44, 0
1, 10503120, Note_on_c, 1, 43, 40
1, 10503840, Note_off_c, 1, 43, 0
1, 10503840, Note_on_c, 1, 43, 40
1, 10504080, Note_off_c, 1, 43, 0
1, 10504080, Note_on_c, 1, 43, 40
1, 10504800, Note_off_c, 1, 43, 0
1, 10504800, Note_on_c, 1, 43, 40
1, 10505040, Note_off_c, 1, 43, 0
1, 10505040, Note_on_c, 1, 42, 40
1, 10505760, Note_off_c, 1, 42, 0
1, 10505760, Note_on_c, 1, 42, 40
1, 10506000, Note_off_c, 1, 42, 0
1, 10506000, Note_on_c, 1, 37, 40
1, 10506480, Note_off_c, 1, 37, 0
1, 10506480, Note_on_c, 1, 40, 40
1, 10506960, Note_off_c, 1, 40, 0
1, 10506960, Note_on_c, 1, 42, 40
1, 10507680, Note_off_c, 1, 42, 0
1, 10507680, Note_on_c, 1, 42, 40
1, 10507920, Note_off_c, 1, 42, 0
1, 10507920, Note_on_c, 1, 37, 40
1, 10508400, Note_off_c, 1, 37, 0
1, 10508400, Note_on_c, 1, 40, 40
1, 10508880, Note_off_c, 1, 40, 0
1, 10508880, Note_on_c, 1, 42, 40
1, 10509600, Note_off_c, 1, 42, 0
1, 10509600, Note_on_c, 1, 42, 40
1, 10509840, Note_off_c, 1, 42, 0
1, 10509840, Note_on_c, 1, 37, 40
1, 10510320, Note_off_c, 1, 37, 0
1, 10510320, Note_on_c, 1, 40, 40
1, 10510800, Note_off_c, 1, 40, 0
1, 10510800, Note_on_c, 1, 42, 40
1, 10511520, Note_off_c, 1, 42, 0
1, 10511520, Note_on_c, 1, 42, 40
1, 10511760, Note_off_c, 1, 42, 0
1, 10511760, Note_on_c, 1, 37, 40
1, 10512240, Note_off_c, 1, 37, 0
1, 10512240, Note_on_c, 1, 37, 40
1, 10512720, Note_off_c, 1, 37, 0
1, 10512720, Note_on_c, 1, 42, 40
1, 10513440, Note_off_c, 1, 42, 0
1, 10513440, Note_on_c, 1, 42, 40
1, 10513680, Note_off_c, 1, 42, 0
1, 10513680, Note_on_c, 1, 37, 40
1, 10514160, Note_off_c, 1, 37, 0
1, 10514160, Note_on_c, 1, 37, 40
1, 10514640, Note_off_c, 1, 37, 0
1, 10514640, Note_on_c, 1, 42, 40
1, 10515360, Note_off_c, 1, 42, 0
1, 10515360, Note_on_c, 1, 42, 40
1, 10515600, Note_off_c, 1, 42, 0
1, 10515600, Note_on_c, 1, 37, 40
1, 10516080, Note_off_c, 1, 37, 0
1, 10516080, Note_on_c, 1, 40, 40
1, 10516560, Note_off_c, 1, 40, 0
1, 10516560, Note_on_c, 1, 42, 40
1, 10517280, Note_off_c, 1, 42, 0
1, 10517280, Note_on_c, 1, 42, 40
1, 10517520, Note_off_c, 1, 42, 0
1, 10517520, Note_on_c, 1, 37, 40
1, 10518000, Note_off_c, 1, 37, 0
1, 10518000, Note_on_c, 1, 37, 40
1, 10518480, Note_off_c, 1, 37, 0
1, 10518480, Note_on_c, 1, 42, 40
1, 10519200, Note_off_c, 1, 42, 0
1, 10519200, Note_on_c, 1, 42, 40
1, 10519440, Note_off_c, 1, 42, 0
1, 10519440, Note_on_c, 1, 37, 40
1, 10519920, Note_off_c, 1, 37, 0
1, 10519920, Note_on_c, 1, 40, 40
1, 10520400, Note_off_c, 1, 40, 0
1, 10520400, Note_on_c, 1, 33, 40
1, 10521120, Note_off_c, 1, 33, 0
1, 10521120, Note_on_c, 1, 33, 40
1, 10521360, Note_off_c, 1, 33, 0
1, 10521360, Note_on_c, 1, 33, 40
1, 10522080, Note_off_c, 1, 33, 0
1, 10522080, Note_on_c, 1, 33, 40
1, 10522320, Note_off_c, 1, 33, 0
1, 10522320, Note_on_c, 1, 33, 40
1, 10523040, Note_off_c, 1, 33, 0
1, 10523040, Note_on_c, 1, 33, 40
1, 10523280, Note_off_c, 1, 33, 0
1, 10523280, Note_on_c, 1, 33, 40
1, 10523760, Note_off_c, 1, 33, 0
1, 10523760, Note_on_c, 1, 33, 40
1, 10524240, Note_off_c, 1, 33, 0
1, 10524240, Note_on_c, 1, 38, 40
1, 10524960, Note_off_c, 1, 38, 0
1, 10524960, Note_on_c, 1, 38, 40
1, 10525200, Note_off_c, 1, 38, 0
1, 10525200, Note_on_c, 1, 38, 40
1, 10525920, Note_off_c, 1, 38, 0
1, 10525920, Note_on_c, 1, 38, 40
1, 10526160, Note_off_c, 1, 38, 0
1, 10526160, Note_on_c, 1, 31, 40
1, 10526880, Note_off_c, 1, 31, 0
1, 10526880, Note_on_c, 1, 31, 40
1, 10527120, Note_off_c, 1, 31, 0
1, 10527120, Note_on_c, 1, 31, 40
1, 10527840, Note_off_c, 1, 31, 0
1, 10527840, Note_on_c, 1, 31, 40
1, 10528080, Note_off_c, 1, 31, 0
1, 10528080, Note_on_c, 1, 30, 40
1, 10528800, Note_off_c, 1, 30, 0
1, 10528800, Note_on_c, 1, 30, 40
1, 10529040, Note_off_c, 1, 30, 0
1, 10529040, Note_on_c, 1, 25, 40
1, 10529760, Note_off_c, 1, 25, 0
1, 10529760, Note_on_c, 1, 28, 40
1, 10530000, Note_off_c, 1, 28, 0
1, 10530000, Note_on_c, 1, 30, 40
1, 10530720, Note_off_c, 1, 30, 0
1, 10530720, Note_on_c, 1, 30, 40
1, 10530960, Note_off_c, 1, 30, 0
1, 10530960, Note_on_c, 1, 37, 40
1, 10531440, Note_off_c, 1, 37, 0
1, 10531440, Note_on_c, 1, 40, 40
1, 10531920, Note_off_c, 1, 40, 0
1, 10531920, Note_on_c, 1, 42, 40
1, 10532760, Note_off_c, 1, 42, 0
1, 10532880, Note_on_c, 1, 37, 40
1, 10533360, Note_off_c, 1, 37, 0
1, 10533360, Note_on_c, 1, 37, 40
1, 10533840, Note_off_c, 1, 37, 0
1, 10533840, Note_on_c, 1, 30, 40
1, 10534680, Note_off_c, 1, 30, 0
1, 10534800, Note_on_c, 1, 37, 40
1, 10535520, Note_off_c, 1, 37, 0
1, 10535520, Note_on_c, 1, 37, 40
1, 10535760, Note_off_c, 1, 37, 0
1, 10535760, Note_on_c, 1, 30, 40
1, 10536600, Note_off_c, 1, 30, 0
1, 10536720, Note_on_c, 1, 37, 40
1, 10537560, Note_off_c, 1, 37, 0
1, 10537680, Note_on_c, 1, 30, 40
1, 10538520, Note_off_c, 1, 30, 0
1, 10538640, Note_on_c, 1, 37, 40
1, 10539480, Note_off_c, 1, 37, 0
1, 10539600, Note_on_c, 1, 30, 40
1, 10540440, Note_off_c, 1, 30, 0
1, 10540560, Note_on_c, 1, 37, 40
1, 10541400, Note_off_c, 1, 37, 0
1, 10541520, Note_on_c, 1, 30, 40
1, 10542360, Note_off_c, 1, 30, 0
1, 10542480, Note_on_c, 1, 37, 40
1, 10543320, Note_off_c, 1, 37, 0
1, 10543440, Note_on_c, 1, 30, 40
1, 10544280, Note_off_c, 1, 30, 0
1, 10544400, Note_on_c, 1, 37, 40
1, 10545240, Note_off_c, 1, 37, 0
1, 10545360, Note_on_c, 1, 30, 40
1, 10546200, Note_off_c, 1, 30, 0
1, 10546320, Note_on_c, 1, 37, 40
1, 10547160, Note_off_c, 1, 37, 0
1, 10547280, Note_on_c, 1, 30, 40
1, 10548120, Note_off_c, 1, 30, 0
1, 10548240, Note_on_c, 1, 37, 40
1, 10549080, Note_off_c, 1, 37, 0
1, 10549200, Note_on_c, 1, 30, 40
1, 10550040, Note_off_c, 1, 30, 0
1, 10550160, Note_on_c, 1, 37, 40
1, 10551000, Note_off_c, 1, 37, 0
1, 10551120, Note_on_c, 1, 30, 40
1, 10551960, Note_off_c, 1, 30, 0
1, 10552080, Note_on_c, 1, 37, 40
1, 10552920, Note_off_c, 1, 37, 0
1, 10553040, Note_on_c, 1, 30, 40
1, 10553880, Note_off_c, 1, 30, 0
1, 10554000, Note_on_c, 1, 37, 40
1, 10554840, Note_off_c, 1, 37, 0
1, 10554960, Note_on_c, 1, 30, 40
1, 10555800, Note_off_c, 1, 30, 0
1, 10555920, Note_on_c, 1, 37, 40
1, 10556760, Note_off_c, 1, 37, 0
1, 10556880, Note_on_c, 1, 30, 40
1, 10557720, Note_off_c, 1, 30, 0
1, 10557840, Note_on_c, 1, 37, 40
1, 10558680, Note_off_c, 1, 37, 0
1, 10558800, Note_on_c, 1, 30, 40
1, 10559640, Note_off_c, 1, 30, 0
1, 10559760, Note_on_c, 1, 37, 40
1, 10560600, Note_off_c, 1, 37, 0
1, 10560720, Note_on_c, 1, 30, 40
1, 10561560, Note_off_c, 1, 30, 0
1, 10561680, Note_on_c, 1, 37, 40
1, 10562520, Note_off_c, 1, 37, 0
1, 10566720, Note_on_c, 1, 40, 40
1, 10566960, Note_off_c, 1, 40, 0
1, 10566960, Note_on_c, 1, 42, 40
1, 10567320, Note_off_c, 1, 42, 0
1, 10567320, Note_on_c, 1, 44, 40
1, 10567560, Note_off_c, 1, 44, 0
1, 10567560, Note_on_c, 1, 33, 40
1, 10568520, Note_off_c, 1, 33, 0
1, 10568520, Note_on_c, 1, 34, 40
1, 10569480, Note_off_c, 1, 34, 0
1, 10569480, Note_on_c, 1, 35, 40
1, 10570440, Note_off_c, 1, 35, 0
1, 10570440, Note_on_c, 1, 40, 40
1, 10571400, Note_off_c, 1, 40, 0
1, 10571400, Note_on_c, 1, 33, 40
1, 10572360, Note_off_c, 1, 33, 0
1, 10572360, Note_on_c, 1, 34, 40
1, 10573200, Note_off_c, 1, 34, 0
1, 10573560, Note_on_c, 1, 35, 40
1, 10574280, Note_off_c, 1, 35, 0
1, 10574280, Note_on_c, 1, 40, 40
1, 10575000, Note_off_c, 1, 40, 0
1, 10575240, Note_on_c, 1, 33, 40
1, 10577040, Note_off_c, 1, 33, 0
1, 10577040, Note_on_c, 1, 34, 40
1, 10578840, Note_off_c, 1, 34, 0
1, 10578960, Note_on_c, 1, 35, 40
1, 10580280, Note_off_c, 1, 35, 0
1, 10580400, Note_on_c, 1, 35, 40
1, 10580760, Note_off_c, 1, 35, 0
1, 10580880, Note_on_c, 1, 38, 40
1, 10582200, Note_off_c, 1, 38, 0
1, 10582320, Note_on_c, 1, 38, 40
1, 10582560, Note_off_c, 1, 38, 0
1, 10582800, Note_on_c, 1, 33, 40
1, 10583280, Note_off_c, 1, 33, 0
1, 10583520, Note_on_c, 1, 33, 40
1, 10583760, Note_off_c, 1, 33, 0
1, 10583760, Note_on_c, 1, 37, 40
1, 10584240, Note_off_c, 1, 37, 0
1, 10584240, Note_on_c, 1, 36, 40
1, 10584720, Note_off_c, 1, 36, 0
1, 10584720, Note_on_c, 1, 35, 40
1, 10585200, Note_off_c, 1, 35, 0
1, 10585440, Note_on_c, 1, 35, 40
1, 10585680, Note_off_c, 1, 35, 0
1, 10585680, Note_on_c, 1, 40, 40
1, 10586040, Note_off_c, 1, 40, 0
1, 10586040, Note_on_c, 1, 42, 40
1, 10586400, Note_off_c, 1, 42, 0
1, 10586400, Note_on_c, 1, 44, 40
1, 10586640, Note_off_c, 1, 44, 0
1, 10586640, Note_on_c, 1, 45, 40
1, 10587240, Note_off_c, 1, 45, 0
1, 10587360, Note_on_c, 1, 45, 40
1, 10587480, Note_off_c, 1, 45, 0
1, 10587600, Note_on_c, 1, 45, 40
1, 10588080, Note_off_c, 1, 45, 0
1, 10588320, Note_on_c, 1, 45, 40
1, 10588560, Note_off_c, 1, 45, 0
1, 10588560, Note_on_c, 1, 35, 40
1, 10589040, Note_off_c, 1, 35, 0
1, 10589280, Note_on_c, 1, 35, 40
1, 10589520, Note_off_c, 1, 35, 0
1, 10589520, Note_on_c, 1, 40, 40
1, 10589760, Note_off_c, 1, 40, 0
1, 10589880, Note_on_c, 1, 42, 40
1, 10590120, Note_off_c, 1, 42, 0
1, 10590120, Note_on_c, 1, 44, 40
1, 10590360, Note_off_c, 1, 44, 0
1, 10590480, Note_on_c, 1, 33, 40
1, 10592280, Note_off_c, 1, 33, 0
1, 10592400, Note_on_c, 1, 34, 40
1, 10594200, Note_off_c, 1, 34, 0
1, 10594320, Note_on_c, 1, 35, 40
1, 10595640, Note_off_c, 1, 35, 0
1, 10595760, Note_on_c, 1, 35, 40
1, 10596120, Note_off_c, 1, 35, 0
1, 10596240, Note_on_c, 1, 38, 40
1, 10597560, Note_off_c, 1, 38, 0
1, 10597680, Note_on_c, 1, 38, 40
1, 10597920, Note_off_c, 1, 38, 0
1, 10598160, Note_on_c, 1, 33, 40
1, 10598640, Note_off_c, 1, 33, 0
1, 10598880, Note_on_c, 1, 33, 40
1, 10599120, Note_off_c, 1, 33, 0
1, 10599120, Note_on_c, 1, 37, 40
1, 10599600, Note_off_c, 1, 37, 0
1, 10599600, Note_on_c, 1, 36, 40
1, 10600080, Note_off_c, 1, 36, 0
1, 10600080, Note_on_c, 1, 35, 40
1, 10600560, Note_off_c, 1, 35, 0
1, 10600800, Note_on_c, 1, 35, 40
1, 10601040, Note_off_c, 1, 35, 0
1, 10601040, Note_on_c, 1, 40, 40
1, 10601400, Note_off_c, 1, 40, 0
1, 10601400, Note_on_c, 1, 42, 40
1, 10601760, Note_off_c, 1, 42, 0
1, 10601760, Note_on_c, 1, 44, 40
1, 10602000, Note_off_c, 1, 44, 0
1, 10602000, Note_on_c, 1, 45, 40
1, 10602600, Note_off_c, 1, 45, 0
1, 10602720, Note_on_c, 1, 45, 40
1, 10602840, Note_off_c, 1, 45, 0
1, 10602960, Note_on_c, 1, 45, 40
1, 10603440, Note_off_c, 1, 45, 0
1, 10603680, Note_on_c, 1, 45, 40
1, 10603920, Note_off_c, 1, 45, 0
1, 10603920, Note_on_c, 1, 33, 40
1, 10604520, Note_off_c, 1, 33, 0
1, 10604640, Note_on_c, 1, 33, 40
1, 10604880, Note_off_c, 1, 33, 0
1, 10604880, Note_on_c, 1, 35, 40
1, 10605360, Note_off_c, 1, 35, 0
1, 10605360, Note_on_c, 1, 37, 40
1, 10605720, Note_off_c, 1, 37, 0
1, 10605840, Note_on_c, 1, 38, 40
1, 10607520, Note_off_c, 1, 38, 0
1, 10607760, Note_on_c, 1, 38, 40
1, 10609080, Note_off_c, 1, 38, 0
1, 10609200, Note_on_c, 1, 38, 40
1, 10609680, Note_off_c, 1, 38, 0
1, 10609680, Note_on_c, 1, 33, 40
1, 10611120, Note_off_c, 1, 33, 0
1, 10611120, Note_on_c, 1, 32, 40
1, 10611360, Note_off_c, 1, 32, 0
1, 10611360, Note_on_c, 1, 33, 40
1, 10611600, Note_off_c, 1, 33, 0
1, 10611600, Note_on_c, 1, 34, 40
1, 10612920, Note_off_c, 1, 34, 0
1, 10613040, Note_on_c, 1, 34, 40
1, 10613400, Note_off_c, 1, 34, 0
1, 10613520, Note_on_c, 1, 35, 40
1, 10615200, Note_off_c, 1, 35, 0
1, 10615440, Note_on_c, 1, 35, 40
1, 10616160, Note_off_c, 1, 35, 0
1, 10616160, Note_on_c, 1, 37, 40
1, 10616400, Note_off_c, 1, 37, 0
1, 10616400, Note_on_c, 1, 38, 40
1, 10617360, Note_off_c, 1, 38, 0
1, 10617480, Note_on_c, 1, 40, 40
1, 10619040, Note_off_c, 1, 40, 0
1, 10619280, Note_on_c, 1, 40, 40
1, 10620480, Note_off_c, 1, 40, 0
1, 10620720, Note_on_c, 1, 40, 40
1, 10620960, Note_off_c, 1, 40, 0
1, 10621200, Note_on_c, 1, 45, 40
1, 10622400, Note_off_c, 1, 45, 0
1, 10622640, Note_on_c, 1, 45, 40
1, 10622880, Note_off_c, 1, 45, 0
1, 10623120, Note_on_c, 1, 34, 40
1, 10624080, Note_off_c, 1, 34, 0
1, 10624560, Note_on_c, 1, 34, 40
1, 10624800, Note_off_c, 1, 34, 0
1, 10624800, Note_on_c, 1, 37, 40
1, 10625040, Note_off_c, 1, 37, 0
1, 10625040, Note_on_c, 1, 35, 40
1, 10626120, Note_off_c, 1, 35, 0
1, 10626480, Note_on_c, 1, 35, 40
1, 10626840, Note_off_c, 1, 35, 0
1, 10626960, Note_on_c, 1, 38, 40
1, 10627680, Note_off_c, 1, 38, 0
1, 10627680, Note_on_c, 1, 41, 40
1, 10627920, Note_off_c, 1, 41, 0
1, 10627920, Note_on_c, 1, 45, 40
1, 10628160, Note_off_c, 1, 45, 0
1, 10628160, Note_on_c, 1, 41, 40
1, 10628400, Note_off_c, 1, 41, 0
1, 10628400, Note_on_c, 1, 38, 40
1, 10628760, Note_off_c, 1, 38, 0
1, 10628880, Note_on_c, 1, 33, 40
1, 10629480, Note_off_c, 1, 33, 0
1, 10629600, Note_on_c, 1, 33, 40
1, 10629840, Note_off_c, 1, 33, 0
1, 10629840, Note_on_c, 1, 37, 40
1, 10630320, Note_off_c, 1, 37, 0
1, 10630320, Note_on_c, 1, 36, 40
1, 10630680, Note_off_c, 1, 36, 0
1, 10630800, Note_on_c, 1, 35, 40
1, 10631400, Note_off_c, 1, 35, 0
1, 10631520, Note_on_c, 1, 35, 40
1, 10631760, Note_off_c, 1, 35, 0
1, 10631760, Note_on_c, 1, 40, 40
1, 10632120, Note_off_c, 1, 40, 0
1, 10632120, Note_on_c, 1, 42, 40
1, 10632480, Note_off_c, 1, 42, 0
1, 10632480, Note_on_c, 1, 44, 40
1, 10632720, Note_off_c, 1, 44, 0
1, 10632720, Note_on_c, 1, 45, 40
1, 10633200, Note_off_c, 1, 45, 0
1, 10633440, Note_on_c, 1, 45, 40
1, 10633560, Note_off_c, 1, 45, 0
1, 10633680, Note_on_c, 1, 45, 40
1, 10634160, Note_off_c, 1, 45, 0
1, 10634400, Note_on_c, 1, 45, 40
1, 10634640, Note_off_c, 1, 45, 0
1, 10634640, Note_on_c, 1, 47, 40
1, 10635240, Note_off_c, 1, 47, 0
1, 10635360, Note_on_c, 1, 42, 40
1, 10635600, Note_off_c, 1, 42, 0
1, 10635600, Note_on_c, 1, 40, 40
1, 10636080, Note_off_c, 1, 40, 0
1, 10636320, Note_on_c, 1, 40, 40
1, 10636560, Note_off_c, 1, 40, 0
1, 10636560, Note_on_c, 1, 33, 40
1, 10638360, Note_off_c, 1, 33, 0
1, 10638480, Note_on_c, 1, 34, 40
1, 10640280, Note_off_c, 1, 34, 0
1, 10640400, Note_on_c, 1, 35, 40
1, 10641720, Note_off_c, 1, 35, 0
1, 10641840, Note_on_c, 1, 35, 40
1, 10642200, Note_off_c, 1, 35, 0
1, 10642320, Note_on_c, 1, 38, 40
1, 10643640, Note_off_c, 1, 38, 0
1, 10643760, Note_on_c, 1, 38, 40
1, 10644000, Note_off_c, 1, 38, 0
1, 10644240, Note_on_c, 1, 33, 40
1, 10644720, Note_off_c, 1, 33, 0
1, 10644960, Note_on_c, 1, 33, 40
1, 10645200, Note_off_c, 1, 33, 0
1, 10645200, Note_on_c, 1, 37, 40
1, 10645680, Note_off_c, 1, 37, 0
1, 10645680, Note_on_c, 1, 36, 40
1, 10646160, Note_off_c, 1, 36, 0
1, 10646160, Note_on_c, 1, 35, 40
1, 10646640, Note_off_c, 1, 35, 0
1, 10646880, Note_on_c, 1, 35, 40
1, 10647120, Note_off_c, 1, 35, 0
1, 10647120, Note_on_c, 1, 40, 40
1, 10647480, Note_off_c, 1, 40, 0
1, 10647480, Note_on_c, 1, 42, 40
1, 10647840, Note_off_c, 1, 42, 0
1, 10647840, Note_on_c, 1, 44, 40
1, 10648080, Note_off_c, 1, 44, 0
1, 10648080, Note_on_c, 1, 45, 40
1, 10648680, Note_off_c, 1, 45, 0
1, 10648800, Note_on_c, 1, 45, 40
1, 10648920, Note_off_c, 1, 45, 0
1, 10649040, Note_on_c, 1, 45, 40
1, 10649520, Note_off_c, 1, 45, 0
1, 10649760, Note_on_c, 1, 45, 40
1, 10650000, Note_off_c, 1, 45, 0
1, 10650000, Note_on_c, 1, 33, 40
1, 10650600, Note_off_c, 1, 33, 0
1, 10650720, Note_on_c, 1, 33, 40
1, 10650960, Note_off_c, 1, 33, 0
1, 10650960, Note_on_c, 1, 35, 40
1, 10651440, Note_off_c, 1, 35, 0
1, 10651440, Note_on_c, 1, 37, 40
1, 10651800, Note_off_c, 1, 37, 0
1, 10651920, Note_on_c, 1, 38, 40
1, 10653600, Note_off_c, 1, 38, 0
1, 10653840, Note_on_c, 1, 38, 40
1, 10655160, Note_off_c, 1, 38, 0
1, 10655280, Note_on_c, 1, 38, 40
1, 10655760, Note_off_c, 1, 38, 0
1, 10655760, Note_on_c, 1, 33, 40
1, 10657200, Note_off_c, 1, 33, 0
1, 10657200, Note_on_c, 1, 32, 40
1, 10657440, Note_off_c, 1, 32, 0
1, 10657440, Note_on_c, 1, 33, 40
1, 10657680, Note_off_c, 1, 33, 0
1, 10657680, Note_on_c, 1, 34, 40
1, 10659000, Note_off_c, 1, 34, 0
1, 10659120, Note_on_c, 1, 34, 40
1, 10659480, Note_off_c, 1, 34, 0
1, 10659600, Note_on_c, 1, 35, 40
1, 10661280, Note_off_c, 1, 35, 0
1, 10661520, Note_on_c, 1, 35, 40
1, 10662240, Note_off_c, 1, 35, 0
1, 10662240, Note_on_c, 1, 37, 40
1, 10662480, Note_off_c, 1, 37, 0
1, 10662480, Note_on_c, 1, 38, 40
1, 10663440, Note_off_c, 1, 38, 0
1, 10663560, Note_on_c, 1, 40, 40
1, 10665120, Note_off_c, 1, 40, 0
1, 10665360, Note_on_c, 1, 40, 40
1, 10666560, Note_off_c, 1, 40, 0
1, 10666800, Note_on_c, 1, 40, 40
1, 10667040, Note_off_c, 1, 40, 0
1, 10667280, Note_on_c, 1, 45, 40
1, 10668480, Note_off_c, 1, 45, 0
1, 10668720, Note_on_c, 1, 45, 40
1, 10668960, Note_off_c, 1, 45, 0
1, 10669200, Note_on_c, 1, 34, 40
1, 10670160, Note_off_c, 1, 34, 0
1, 10670640, Note_on_c, 1, 34, 40
1, 10670880, Note_off_c, 1, 34, 0
1, 10670880, Note_on_c, 1, 37, 40
1, 10671120, Note_off_c, 1, 37, 0
1, 10671120, Note_on_c, 1, 35, 40
1, 10672200, Note_off_c, 1, 35, 0
1, 10672560, Note_on_c, 1, 35, 40
1, 10672920, Note_off_c, 1, 35, 0
1, 10673040, Note_on_c, 1, 38, 40
1, 10673760, Note_off_c, 1, 38, 0
1, 10673760, Note_on_c, 1, 41, 40
1, 10674000, Note_off_c, 1, 41, 0
1, 10674000, Note_on_c, 1, 45, 40
1, 10674240, Note_off_c, 1, 45, 0
1, 10674240, Note_on_c, 1, 41, 40
1, 10674480, Note_off_c, 1, 41, 0
1, 10674480, Note_on_c, 1, 38, 40
1, 10674840, Note_off_c, 1, 38, 0
1, 10674960, Note_on_c, 1, 33, 40
1, 10675560, Note_off_c, 1, 33, 0
1, 10675680, Note_on_c, 1, 33, 40
1, 10675920, Note_off_c, 1, 33, 0
1, 10675920, Note_on_c, 1, 37, 40
1, 10676400, Note_off_c, 1, 37, 0
1, 10676400, Note_on_c, 1, 36, 40
1, 10676760, Note_off_c, 1, 36, 0
1, 10676880, Note_on_c, 1, 35, 40
1, 10677480, Note_off_c, 1, 35, 0
1, 10677600, Note_on_c, 1, 35, 40
1, 10677840, Note_off_c, 1, 35, 0
1, 10677840, Note_on_c, 1, 40, 40
1, 10678200, Note_off_c, 1, 40, 0
1, 10678200, Note_on_c, 1, 42, 40
1, 10678560, Note_off_c, 1, 42, 0
1, 10678560, Note_on_c, 1, 44, 40
1, 10678800, Note_off_c, 1, 44, 0
1, 10678800, Note_on_c, 1, 45, 40
1, 10679280, Note_off_c, 1, 45, 0
1, 10679520, Note_on_c, 1, 45, 40
1, 10679640, Note_off_c, 1, 45, 0
1, 10679760, Note_on_c, 1, 45, 40
1, 10680240, Note_off_c, 1, 45, 0
1, 10680480, Note_on_c, 1, 45, 40
1, 10680720, Note_off_c, 1, 45, 0
1, 10680720, Note_on_c, 1, 47, 40
1, 10681320, Note_off_c, 1, 47, 0
1, 10681440, Note_on_c, 1, 42, 40
1, 10681680, Note_off_c, 1, 42, 0
1, 10681680, Note_on_c, 1, 40, 40
1, 10682160, Note_off_c, 1, 40, 0
1, 10682400, Note_on_c, 1, 40, 40
1, 10682640, Note_off_c, 1, 40, 0
1, 10682640, Note_on_c, 1, 40, 40
1, 10682760, Note_off_c, 1, 40, 0
1, 10683000, Note_on_c, 1, 40, 40
1, 10683120, Note_off_c, 1, 40, 0
1, 10683240, Note_on_c, 1, 40, 40
1, 10683360, Note_off_c, 1, 40, 0
1, 10683600, Note_on_c, 1, 39, 40
1, 10683720, Note_off_c, 1, 39, 0
1, 10683960, Note_on_c, 1, 39, 40
1, 10684080, Note_off_c, 1, 39, 0
1, 10684200, Note_on_c, 1, 39, 40
1, 10684320, Note_off_c, 1, 39, 0
1, 10684560, Note_on_c, 1, 40, 40
1, 10685640, Note_off_c, 1, 40, 0
1, 10686000, Note_on_c, 1, 40, 40
1, 10686240, Note_off_c, 1, 40, 0
1, 10686480, Note_on_c, 1, 33, 40
1, 10687080, Note_off_c, 1, 33, 0
1, 10687200, Note_on_c, 1, 37, 40
1, 10687920, Note_off_c, 1, 37, 0
1, 10687920, Note_on_c, 1, 40, 40
1, 10688400, Note_off_c, 1, 40, 0
1, 10688400, Note_on_c, 1, 36, 40
1, 10689000, Note_off_c, 1, 36, 0
1, 10689120, Note_on_c, 1, 41, 40
1, 10689840, Note_off_c, 1, 41, 0
1, 10689840, Note_on_c, 1, 43, 40
1, 10690200, Note_off_c, 1, 43, 0
1, 10690320, Note_on_c, 1, 33, 40
1, 10691040, Note_off_c, 1, 33, 0
1, 10692240, Note_on_c, 1, 33, 40
1, 10692720, Note_off_c, 1, 33, 0
1, 10693200, Note_on_c, 1, 33, 40
1, 10694160, Note_off_c, 1, 33, 0
1, 10697760, Note_on_c, 1, 32, 40
1, 10698000, Note_off_c, 1, 32, 0
1, 10698000, Note_on_c, 1, 34, 40
1, 10698240, Note_off_c, 1, 34, 0
1, 10698240, Note_on_c, 1, 36, 40
1, 10698480, Note_off_c, 1, 36, 0
1, 10698480, Note_on_c, 1, 37, 40
1, 10698720, Note_off_c, 1, 37, 0
1, 10698960, Note_on_c, 1, 37, 40
1, 10699200, Note_off_c, 1, 37, 0
1, 10699200, Note_on_c, 1, 32, 40
1, 10699440, Note_off_c, 1, 32, 0
1, 10699440, Note_on_c, 1, 30, 40
1, 10699680, Note_off_c, 1, 30, 0
1, 10699680, Note_on_c, 1, 34, 40
1, 10699920, Note_off_c, 1, 34, 0
1, 10699920, Note_on_c, 1, 30, 40
1, 10700160, Note_off_c, 1, 30, 0
1, 10700160, Note_on_c, 1, 32, 40
1, 10700520, Note_off_c, 1, 32, 0
1, 10700640, Note_on_c, 1, 32, 40
1, 10700760, Note_off_c, 1, 32, 0
1, 10700880, Note_on_c, 1, 32, 40
1, 10701000, Note_off_c, 1, 32, 0
1, 10701120, Note_on_c, 1, 32, 40
1, 10701240, Note_off_c, 1, 32, 0
1, 10701360, Note_on_c, 1, 32, 40
1, 10701600, Note_off_c, 1, 32, 0
1, 10701600, Note_on_c, 1, 30, 40
1, 10701840, Note_off_c, 1, 30, 0
1, 10701840, Note_on_c, 1, 29, 40
1, 10701960, Note_off_c, 1, 29, 0
1, 10702080, Note_on_c, 1, 27, 40
1, 10702320, Note_off_c, 1, 27, 0
1, 10702320, Note_on_c, 1, 37, 40
1, 10702560, Note_off_c, 1, 37, 0
1, 10702800, Note_on_c, 1, 37, 40
1, 10703040, Note_off_c, 1, 37, 0
1, 10703040, Note_on_c, 1, 32, 40
1, 10703280, Note_off_c, 1, 32, 0
1, 10703280, Note_on_c, 1, 30, 40
1, 10703520, Note_off_c, 1, 30, 0
1, 10703520, Note_on_c, 1, 34, 40
1, 10703760, Note_off_c, 1, 34, 0
1, 10703760, Note_on_c, 1, 30, 40
1, 10704000, Note_off_c, 1, 30, 0
1, 10704000, Note_on_c, 1, 32, 40
1, 10704360, Note_off_c, 1, 32, 0
1, 10704480, Note_on_c, 1, 32, 40
1, 10704600, Note_off_c, 1, 32, 0
1, 10704720, Note_on_c, 1, 32, 40
1, 10704840, Note_off_c, 1, 32, 0
1, 10704960, Note_on_c, 1, 32, 40
1, 10705080, Note_off_c, 1, 32, 0
1, 10705200, Note_on_c, 1, 32, 40
1, 10705440, Note_off_c, 1, 32, 0
1, 10705440, Note_on_c, 1, 30, 40
1, 10705560, Note_off_c, 1, 30, 0
1, 10705680, Note_on_c, 1, 29, 40
1, 10705920, Note_off_c, 1, 29, 0
1, 10705920, Note_on_c, 1, 27, 40
1, 10706160, Note_off_c, 1, 27, 0
1, 10706160, Note_on_c, 1, 37, 40
1, 10706400, Note_off_c, 1, 37, 0
1, 10706640, Note_on_c, 1, 37, 40
1, 10706880, Note_off_c, 1, 37, 0
1, 10706880, Note_on_c, 1, 29, 40
1, 10707000, Note_off_c, 1, 29, 0
1, 10707120, Note_on_c, 1, 30, 40
1, 10707480, Note_off_c, 1, 30, 0
1, 10707600, Note_on_c, 1, 34, 40
1, 10707840, Note_off_c, 1, 34, 0
1, 10707840, Note_on_c, 1, 30, 40
1, 10708080, Note_off_c, 1, 30, 0
1, 10708080, Note_on_c, 1, 32, 40
1, 10708440, Note_off_c, 1, 32, 0
1, 10708560, Note_on_c, 1, 36, 40
1, 10708800, Note_off_c, 1, 36, 0
1, 10708800, Note_on_c, 1, 39, 40
1, 10709040, Note_off_c, 1, 39, 0
1, 10709040, Note_on_c, 1, 32, 40
1, 10709160, Note_off_c, 1, 32, 0
1, 10709280, Note_on_c, 1, 32, 40
1, 10709520, Note_off_c, 1, 32, 0
1, 10709520, Note_on_c, 1, 34, 40
1, 10709760, Note_off_c, 1, 34, 0
1, 10709760, Note_on_c, 1, 36, 40
1, 10710000, Note_off_c, 1, 36, 0
1, 10710000, Note_on_c, 1, 37, 40
1, 10710240, Note_off_c, 1, 37, 0
1, 10710480, Note_on_c, 1, 37, 40
1, 10710720, Note_off_c, 1, 37, 0
1, 10710720, Note_on_c, 1, 29, 40
1, 10710840, Note_off_c, 1, 29, 0
1, 10710960, Note_on_c, 1, 30, 40
1, 10711320, Note_off_c, 1, 30, 0
1, 10711440, Note_on_c, 1, 34, 40
1, 10711680, Note_off_c, 1, 34, 0
1, 10711680, Note_on_c, 1, 30, 40
1, 10711800, Note_off_c, 1, 30, 0
1, 10711920, Note_on_c, 1, 32, 40
1, 10712400, Note_off_c, 1, 32, 0
1, 10712400, Note_on_c, 1, 32, 40
1, 10712640, Note_off_c, 1, 32, 0
1, 10712640, Note_on_c, 1, 32, 40
1, 10712760, Note_off_c, 1, 32, 0
1, 10712880, Note_on_c, 1, 32, 40
1, 10713000, Note_off_c, 1, 32, 0
1, 10713120, Note_on_c, 1, 32, 40
1, 10713360, Note_off_c, 1, 32, 0
1, 10713360, Note_on_c, 1, 34, 40
1, 10713600, Note_off_c, 1, 34, 0
1, 10713600, Note_on_c, 1, 36, 40
1, 10713840, Note_off_c, 1, 36, 0
1, 10713840, Note_on_c, 1, 37, 40
1, 10714080, Note_off_c, 1, 37, 0
1, 10714320, Note_on_c, 1, 37, 40
1, 10714560, Note_off_c, 1, 37, 0
1, 10714560, Note_on_c, 1, 29, 40
1, 10714800, Note_off_c, 1, 29, 0
1, 10714800, Note_on_c, 1, 30, 40
1, 10715160, Note_off_c, 1, 30, 0
1, 10715280, Note_on_c, 1, 34, 40
1, 10715520, Note_off_c, 1, 34, 0
1, 10715520, Note_on_c, 1, 30, 40
1, 10715760, Note_off_c, 1, 30, 0
1, 10715760, Note_on_c, 1, 32, 40
1, 10716120, Note_off_c, 1, 32, 0
1, 10716240, Note_on_c, 1, 36, 40
1, 10716480, Note_off_c, 1, 36, 0
1, 10716480, Note_on_c, 1, 39, 40
1, 10716720, Note_off_c, 1, 39, 0
1, 10716720, Note_on_c, 1, 32, 40
1, 10716840, Note_off_c, 1, 32, 0
1, 10716960, Note_on_c, 1, 32, 40
1, 10717200, Note_off_c, 1, 32, 0
1, 10717200, Note_on_c, 1, 34, 40
1, 10717440, Note_off_c, 1, 34, 0
1, 10717440, Note_on_c, 1, 36, 40
1, 10717680, Note_off_c, 1, 36, 0
1, 10717680, Note_on_c, 1, 37, 40
1, 10717920, Note_off_c, 1, 37, 0
1, 10718160, Note_on_c, 1, 37, 40
1, 10718400, Note_off_c, 1, 37, 0
1, 10718400, Note_on_c, 1, 29, 40
1, 10718640, Note_off_c, 1, 29, 0
1, 10718640, Note_on_c, 1, 30, 40
1, 10719000, Note_off_c, 1, 30, 0
1, 10719120, Note_on_c, 1, 34, 40
1, 10719360, Note_off_c, 1, 34, 0
1, 10719360, Note_on_c, 1, 30, 40
1, 10719600, Note_off_c, 1, 30, 0
1, 10719600, Note_on_c, 1, 32, 40
1, 10720080, Note_off_c, 1, 32, 0
1, 10720080, Note_on_c, 1, 32, 40
1, 10720320, Note_off_c, 1, 32, 0
1, 10720320, Note_on_c, 1, 32, 40
1, 10720440, Note_off_c, 1, 32, 0
1, 10720560, Note_on_c, 1, 32, 40
1, 10720680, Note_off_c, 1, 32, 0
1, 10720800, Note_on_c, 1, 32, 40
1, 10721040, Note_off_c, 1, 32, 0
1, 10721040, Note_on_c, 1, 34, 40
1, 10721280, Note_off_c, 1, 34, 0
1, 10721280, Note_on_c, 1, 36, 40
1, 10721520, Note_off_c, 1, 36, 0
1, 10721520, Note_on_c, 1, 37, 40
1, 10721760, Note_off_c, 1, 37, 0
1, 10722000, Note_on_c, 1, 37, 40
1, 10722240, Note_off_c, 1, 37, 0
1, 10722240, Note_on_c, 1, 29, 40
1, 10722360, Note_off_c, 1, 29, 0
1, 10722480, Note_on_c, 1, 30, 40
1, 10722840, Note_off_c, 1, 30, 0
1, 10722960, Note_on_c, 1, 34, 40
1, 10723200, Note_off_c, 1, 34, 0
1, 10723200, Note_on_c, 1, 30, 40
1, 10723440, Note_off_c, 1, 30, 0
1, 10723440, Note_on_c, 1, 32, 40
1, 10723800, Note_off_c, 1, 32, 0
1, 10723920, Note_on_c, 1, 36, 40
1, 10724160, Note_off_c, 1, 36, 0
1, 10724160, Note_on_c, 1, 39, 40
1, 10724400, Note_off_c, 1, 39, 0
1, 10724400, Note_on_c, 1, 32, 40
1, 10724520, Note_off_c, 1, 32, 0
1, 10724640, Note_on_c, 1, 32, 40
1, 10724880, Note_off_c, 1, 32, 0
1, 10724880, Note_on_c, 1, 34, 40
1, 10725120, Note_off_c, 1, 34, 0
1, 10725120, Note_on_c, 1, 36, 40
1, 10725360, Note_off_c, 1, 36, 0
1, 10725360, Note_on_c, 1, 37, 40
1, 10725600, Note_off_c, 1, 37, 0
1, 10725840, Note_on_c, 1, 37, 40
1, 10726080, Note_off_c, 1, 37, 0
1, 10726080, Note_on_c, 1, 29, 40
1, 10726200, Note_off_c, 1, 29, 0
1, 10726320, Note_on_c, 1, 30, 40
1, 10726680, Note_off_c, 1, 30, 0
1, 10726800, Note_on_c, 1, 34, 40
1, 10727040, Note_off_c, 1, 34, 0
1, 10727040, Note_on_c, 1, 30, 40
1, 10727160, Note_off_c, 1, 30, 0
1, 10727280, Note_on_c, 1, 32, 40
1, 10727760, Note_off_c, 1, 32, 0
1, 10727760, Note_on_c, 1, 32, 40
1, 10728000, Note_off_c, 1, 32, 0
1, 10728000, Note_on_c, 1, 32, 40
1, 10728120, Note_off_c, 1, 32, 0
1, 10728240, Note_on_c, 1, 32, 40
1, 10728360, Note_off_c, 1, 32, 0
1, 10728480, Note_on_c, 1, 32, 40
1, 10728720, Note_off_c, 1, 32, 0
1, 10728720, Note_on_c, 1, 34, 40
1, 10728960, Note_off_c, 1, 34, 0
1, 10728960, Note_on_c, 1, 36, 40
1, 10729200, Note_off_c, 1, 36, 0
1, 10729200, Note_on_c, 1, 37, 40
1, 10729440, Note_off_c, 1, 37, 0
1, 10729680, Note_on_c, 1, 37, 40
1, 10729920, Note_off_c, 1, 37, 0
1, 10729920, Note_on_c, 1, 29, 40
1, 10730160, Note_off_c, 1, 29, 0
1, 10730160, Note_on_c, 1, 30, 40
1, 10730520, Note_off_c, 1, 30, 0
1, 10730640, Note_on_c, 1, 34, 40
1, 10730880, Note_off_c, 1, 34, 0
1, 10730880, Note_on_c, 1, 30, 40
1, 10731120, Note_off_c, 1, 30, 0
1, 10731120, Note_on_c, 1, 32, 40
1, 10731480, Note_off_c, 1, 32, 0
1, 10731600, Note_on_c, 1, 36, 40
1, 10731840, Note_off_c, 1, 36, 0
1, 10731840, Note_on_c, 1, 39, 40
1, 10732080, Note_off_c, 1, 39, 0
1, 10732080, Note_on_c, 1, 32, 40
1, 10732200, Note_off_c, 1, 32, 0
1, 10732320, Note_on_c, 1, 32, 40
1, 10732560, Note_off_c, 1, 32, 0
1, 10732560, Note_on_c, 1, 34, 40
1, 10732800, Note_off_c, 1, 34, 0
1, 10732800, Note_on_c, 1, 36, 40
1, 10733040, Note_off_c, 1, 36, 0
1, 10733040, Note_on_c, 1, 37, 40
1, 10733280, Note_off_c, 1, 37, 0
1, 10733520, Note_on_c, 1, 37, 40
1, 10733760, Note_off_c, 1, 37, 0
1, 10733760, Note_on_c, 1, 29, 40
1, 10734000, Note_off_c, 1, 29, 0
1, 10734000, Note_on_c, 1, 30, 40
1, 10734360, Note_off_c, 1, 30, 0
1, 10734480, Note_on_c, 1, 34, 40
1, 10734720, Note_off_c, 1, 34, 0
1, 10734720, Note_on_c, 1, 30, 40
1, 10734960, Note_off_c, 1, 30, 0
1, 10734960, Note_on_c, 1, 32, 40
1, 10735440, Note_off_c, 1, 32, 0
1, 10735440, Note_on_c, 1, 32, 40
1, 10735680, Note_off_c, 1, 32, 0
1, 10735680, Note_on_c, 1, 32, 40
1, 10735800, Note_off_c, 1, 32, 0
1, 10735920, Note_on_c, 1, 32, 40
1, 10736040, Note_off_c, 1, 32, 0
1, 10736160, Note_on_c, 1, 32, 40
1, 10736400, Note_off_c, 1, 32, 0
1, 10736400, Note_on_c, 1, 34, 40
1, 10736640, Note_off_c, 1, 34, 0
1, 10736640, Note_on_c, 1, 36, 40
1, 10736880, Note_off_c, 1, 36, 0
1, 10736880, Note_on_c, 1, 37, 40
1, 10737120, Note_off_c, 1, 37, 0
1, 10737360, Note_on_c, 1, 37, 40
1, 10737600, Note_off_c, 1, 37, 0
1, 10737600, Note_on_c, 1, 29, 40
1, 10737720, Note_off_c, 1, 29, 0
1, 10737840, Note_on_c, 1, 30, 40
1, 10738200, Note_off_c, 1, 30, 0
1, 10738320, Note_on_c, 1, 34, 40
1, 10738560, Note_off_c, 1, 34, 0
1, 10738560, Note_on_c, 1, 30, 40
1, 10738800, Note_off_c, 1, 30, 0
1, 10738800, Note_on_c, 1, 32, 40
1, 10739160, Note_off_c, 1, 32, 0
1, 10739280, Note_on_c, 1, 36, 40
1, 10739520, Note_off_c, 1, 36, 0
1, 10739520, Note_on_c, 1, 39, 40
1, 10739760, Note_off_c, 1, 39, 0
1, 10739760, Note_on_c, 1, 32, 40
1, 10739880, Note_off_c, 1, 32, 0
1, 10740000, Note_on_c, 1, 32, 40
1, 10740240, Note_off_c, 1, 32, 0
1, 10740240, Note_on_c, 1, 34, 40
1, 10740480, Note_off_c, 1, 34, 0
1, 10740480, Note_on_c, 1, 36, 40
1, 10740720, Note_off_c, 1, 36, 0
1, 10740720, Note_on_c, 1, 37, 40
1, 10740960, Note_off_c, 1, 37, 0
1, 10741200, Note_on_c, 1, 37, 40
1, 10741440, Note_off_c, 1, 37, 0
1, 10741440, Note_on_c, 1, 29, 40
1, 10741560, Note_off_c, 1, 29, 0
1, 10741680, Note_on_c, 1, 30, 40
1, 10742040, Note_off_c, 1, 30, 0
1, 10742160, Note_on_c, 1, 34, 40
1, 10742400, Note_off_c, 1, 34, 0
1, 10742400, Note_on_c, 1, 30, 40
1, 10742520, Note_off_c, 1, 30, 0
1, 10742640, Note_on_c, 1, 32, 40
1, 10743120, Note_off_c, 1, 32, 0
1, 10743120, Note_on_c, 1, 32, 40
1, 10743360, Note_off_c, 1, 32, 0
1, 10743360, Note_on_c, 1, 32, 40
1, 10743480, Note_off_c, 1, 32, 0
1, 10743600, Note_on_c, 1, 32, 40
1, 10743720, Note_off_c, 1, 32, 0
1, 10743840, Note_on_c, 1, 32, 40
1, 10744080, Note_off_c, 1, 32, 0
1, 10744080, Note_on_c, 1, 34, 40
1, 10744320, Note_off_c, 1, 34, 0
1, 10744320, Note_on_c, 1, 36, 40
1, 10744560, Note_off_c, 1, 36, 0
1, 10744560, Note_on_c, 1, 37, 40
1, 10744800, Note_off_c, 1, 37, 0
1, 10745040, Note_on_c, 1, 37, 40
1, 10745280, Note_off_c, 1, 37, 0
1, 10745280, Note_on_c, 1, 29, 40
1, 10745520, Note_off_c, 1, 29, 0
1, 10745520, Note_on_c, 1, 30, 40
1, 10745880, Note_off_c, 1, 30, 0
1, 10746000, Note_on_c, 1, 34, 40
1, 10746240, Note_off_c, 1, 34, 0
1, 10746240, Note_on_c, 1, 30, 40
1, 10746480, Note_off_c, 1, 30, 0
1, 10746480, Note_on_c, 1, 32, 40
1, 10746840, Note_off_c, 1, 32, 0
1, 10746960, Note_on_c, 1, 36, 40
1, 10747200, Note_off_c, 1, 36, 0
1, 10747200, Note_on_c, 1, 39, 40
1, 10747440, Note_off_c, 1, 39, 0
1, 10747440, Note_on_c, 1, 32, 40
1, 10747560, Note_off_c, 1, 32, 0
1, 10747680, Note_on_c, 1, 32, 40
1, 10747920, Note_off_c, 1, 32, 0
1, 10747920, Note_on_c, 1, 34, 40
1, 10748160, Note_off_c, 1, 34, 0
1, 10748160, Note_on_c, 1, 36, 40
1, 10748400, Note_off_c, 1, 36, 0
1, 10748400, Note_on_c, 1, 37, 40
1, 10748640, Note_off_c, 1, 37, 0
1, 10748880, Note_on_c, 1, 37, 40
1, 10749120, Note_off_c, 1, 37, 0
1, 10749120, Note_on_c, 1, 29, 40
1, 10749360, Note_off_c, 1, 29, 0
1, 10749360, Note_on_c, 1, 30, 40
1, 10749720, Note_off_c, 1, 30, 0
1, 10749840, Note_on_c, 1, 34, 40
1, 10750080, Note_off_c, 1, 34, 0
1, 10750080, Note_on_c, 1, 30, 40
1, 10750320, Note_off_c, 1, 30, 0
1, 10750320, Note_on_c, 1, 32, 40
1, 10750800, Note_off_c, 1, 32, 0
1, 10750800, Note_on_c, 1, 32, 40
1, 10751040, Note_off_c, 1, 32, 0
1, 10751040, Note_on_c, 1, 32, 40
1, 10751160, Note_off_c, 1, 32, 0
1, 10751280, Note_on_c, 1, 32, 40
1, 10751400, Note_off_c, 1, 32, 0
1, 10751520, Note_on_c, 1, 32, 40
1, 10751760, Note_off_c, 1, 32, 0
1, 10751760, Note_on_c, 1, 34, 40
1, 10752000, Note_off_c, 1, 34, 0
1, 10752000, Note_on_c, 1, 36, 40
1, 10752240, Note_off_c, 1, 36, 0
1, 10752240, Note_on_c, 1, 37, 40
1, 10752480, Note_off_c, 1, 37, 0
1, 10752720, Note_on_c, 1, 37, 40
1, 10752960, Note_off_c, 1, 37, 0
1, 10752960, Note_on_c, 1, 29, 40
1, 10753080, Note_off_c, 1, 29, 0
1, 10753200, Note_on_c, 1, 30, 40
1, 10753560, Note_off_c, 1, 30, 0
1, 10753680, Note_on_c, 1, 34, 40
1, 10753920, Note_off_c, 1, 34, 0
1, 10753920, Note_on_c, 1, 30, 40
1, 10754160, Note_off_c, 1, 30, 0
1, 10754160, Note_on_c, 1, 32, 40
1, 10754520, Note_off_c, 1, 32, 0
1, 10754640, Note_on_c, 1, 36, 40
1, 10754880, Note_off_c, 1, 36, 0
1, 10754880, Note_on_c, 1, 39, 40
1, 10755120, Note_off_c, 1, 39, 0
1, 10755120, Note_on_c, 1, 32, 40
1, 10755240, Note_off_c, 1, 32, 0
1, 10755360, Note_on_c, 1, 32, 40
1, 10755600, Note_off_c, 1, 32, 0
1, 10755600, Note_on_c, 1, 34, 40
1, 10755840, Note_off_c, 1, 34, 0
1, 10755840, Note_on_c, 1, 36, 40
1, 10756080, Note_off_c, 1, 36, 0
1, 10756080, Note_on_c, 1, 37, 40
1, 10756320, Note_off_c, 1, 37, 0
1, 10756560, Note_on_c, 1, 37, 40
1, 10756800, Note_off_c, 1, 37, 0
1, 10756800, Note_on_c, 1, 29, 40
1, 10756920, Note_off_c, 1, 29, 0
1, 10757040, Note_on_c, 1, 30, 40
1, 10757400, Note_off_c, 1, 30, 0
1, 10757520, Note_on_c, 1, 34, 40
1, 10757760, Note_off_c, 1, 34, 0
1, 10757760, Note_on_c, 1, 30, 40
1, 10757880, Note_off_c, 1, 30, 0
1, 10758000, Note_on_c, 1, 32, 40
1, 10758480, Note_off_c, 1, 32, 0
1, 10758480, Note_on_c, 1, 32, 40
1, 10758720, Note_off_c, 1, 32, 0
1, 10758720, Note_on_c, 1, 32, 40
1, 10758840, Note_off_c, 1, 32, 0
1, 10758960, Note_on_c, 1, 32, 40
1, 10759080, Note_off_c, 1, 32, 0
1, 10759200, Note_on_c, 1, 32, 40
1, 10759440, Note_off_c, 1, 32, 0
1, 10759440, Note_on_c, 1, 34, 40
1, 10759680, Note_off_c, 1, 34, 0
1, 10759680, Note_on_c, 1, 36, 40
1, 10759920, Note_off_c, 1, 36, 0
1, 10759920, Note_on_c, 1, 37, 40
1, 10760160, Note_off_c, 1, 37, 0
1, 10760400, Note_on_c, 1, 37, 40
1, 10760640, Note_off_c, 1, 37, 0
1, 10760640, Note_on_c, 1, 29, 40
1, 10760880, Note_off_c, 1, 29, 0
1, 10760880, Note_on_c, 1, 30, 40
1, 10761240, Note_off_c, 1, 30, 0
1, 10761360, Note_on_c, 1, 34, 40
1, 10761600, Note_off_c, 1, 34, 0
1, 10761600, Note_on_c, 1, 30, 40
1, 10761840, Note_off_c, 1, 30, 0
1, 10761840, Note_on_c, 1, 32, 40
1, 10762200, Note_off_c, 1, 32, 0
1, 10762320, Note_on_c, 1, 36, 40
1, 10762560, Note_off_c, 1, 36, 0
1, 10762560, Note_on_c, 1, 39, 40
1, 10762800, Note_off_c, 1, 39, 0
1, 10762800, Note_on_c, 1, 32, 40
1, 10762920, Note_off_c, 1, 32, 0
1, 10763040, Note_on_c, 1, 32, 40
1, 10763280, Note_off_c, 1, 32, 0
1, 10763280, Note_on_c, 1, 34, 40
1, 10763520, Note_off_c, 1, 34, 0
1, 10763520, Note_on_c, 1, 36, 40
1, 10763760, Note_off_c, 1, 36, 0
1, 10763760, Note_on_c, 1, 37, 40
1, 10764000, Note_off_c, 1, 37, 0
1, 10764240, Note_on_c, 1, 37, 40
1, 10764480, Note_off_c, 1, 37, 0
1, 10764480, Note_on_c, 1, 29, 40
1, 10764720, Note_off_c, 1, 29, 0
1, 10764720, Note_on_c, 1, 30, 40
1, 10765080, Note_off_c, 1, 30, 0
1, 10765200, Note_on_c, 1, 34, 40
1, 10765440, Note_off_c, 1, 34, 0
1, 10765440, Note_on_c, 1, 30, 40
1, 10765680, Note_off_c, 1, 30, 0
1, 10765680, Note_on_c, 1, 32, 40
1, 10766160, Note_off_c, 1, 32, 0
1, 10766160, Note_on_c, 1, 32, 40
1, 10766400, Note_off_c, 1, 32, 0
1, 10766400, Note_on_c, 1, 32, 40
1, 10766520, Note_off_c, 1, 32, 0
1, 10766640, Note_on_c, 1, 32, 40
1, 10766760, Note_off_c, 1, 32, 0
1, 10766880, Note_on_c, 1, 32, 40
1, 10767120, Note_off_c, 1, 32, 0
1, 10767120, Note_on_c, 1, 34, 40
1, 10767360, Note_off_c, 1, 34, 0
1, 10767360, Note_on_c, 1, 36, 40
1, 10767600, Note_off_c, 1, 36, 0
1, 10767600, Note_on_c, 1, 37, 40
1, 10767840, Note_off_c, 1, 37, 0
1, 10768080, Note_on_c, 1, 37, 40
1, 10768200, Note_off_c, 1, 37, 0
1, 10768320, Note_on_c, 1, 37, 40
1, 10768440, Note_off_c, 1, 37, 0
1, 10768560, Note_on_c, 1, 42, 40
1, 10768800, Note_off_c, 1, 42, 0
1, 10768800, Note_on_c, 1, 46, 40
1, 10769040, Note_off_c, 1, 46, 0
1, 10769040, Note_on_c, 1, 42, 40
1, 10769280, Note_off_c, 1, 42, 0
1, 10769280, Note_on_c, 1, 44, 40
1, 10769520, Note_off_c, 1, 44, 0
1, 10769520, Note_on_c, 1, 32, 40
1, 10769760, Note_off_c, 1, 32, 0
1, 10769760, Note_on_c, 1, 44, 40
1, 10770000, Note_off_c, 1, 44, 0
1, 10770000, Note_on_c, 1, 44, 40
1, 10770240, Note_off_c, 1, 44, 0
1, 10770240, Note_on_c, 1, 44, 40
1, 10770480, Note_off_c, 1, 44, 0
1, 10770480, Note_on_c, 1, 42, 40
1, 10770720, Note_off_c, 1, 42, 0
1, 10770720, Note_on_c, 1, 42, 40
1, 10770960, Note_off_c, 1, 42, 0
1, 10770960, Note_on_c, 1, 41, 40
1, 10771200, Note_off_c, 1, 41, 0
1, 10771200, Note_on_c, 1, 41, 40
1, 10771440, Note_off_c, 1, 41, 0
1, 10771440, Note_on_c, 1, 37, 40
1, 10771560, Note_off_c, 1, 37, 0
1, 10771680, Note_on_c, 1, 37, 40
1, 10771800, Note_off_c, 1, 37, 0
1, 10771920, Note_on_c, 1, 37, 40
1, 10772040, Note_off_c, 1, 37, 0
1, 10772160, Note_on_c, 1, 37, 40
1, 10772400, Note_off_c, 1, 37, 0
1, 10772400, Note_on_c, 1, 42, 40
1, 10772640, Note_off_c, 1, 42, 0
1, 10772640, Note_on_c, 1, 46, 40
1, 10772880, Note_off_c, 1, 46, 0
1, 10772880, Note_on_c, 1, 42, 40
1, 10773120, Note_off_c, 1, 42, 0
1, 10773120, Note_on_c, 1, 44, 40
1, 10773360, Note_off_c, 1, 44, 0
1, 10773360, Note_on_c, 1, 32, 40
1, 10773480, Note_off_c, 1, 32, 0
1, 10773600, Note_on_c, 1, 32, 40
1, 10773840, Note_off_c, 1, 32, 0
1, 10773840, Note_on_c, 1, 36, 40
1, 10774080, Note_off_c, 1, 36, 0
1, 10774080, Note_on_c, 1, 39, 40
1, 10774320, Note_off_c, 1, 39, 0
1, 10774320, Note_on_c, 1, 42, 40
1, 10774440, Note_off_c, 1, 42, 0
1, 10774560, Note_on_c, 1, 42, 40
1, 10774800, Note_off_c, 1, 42, 0
1, 10774800, Note_on_c, 1, 41, 40
1, 10775040, Note_off_c, 1, 41, 0
1, 10775040, Note_on_c, 1, 39, 40
1, 10775280, Note_off_c, 1, 39, 0
1, 10775280, Note_on_c, 1, 37, 40
1, 10775400, Note_off_c, 1, 37, 0
1, 10775520, Note_on_c, 1, 37, 40
1, 10775640, Note_off_c, 1, 37, 0
1, 10775760, Note_on_c, 1, 37, 40
1, 10775880, Note_off_c, 1, 37, 0
1, 10776000, Note_on_c, 1, 37, 40
1, 10776240, Note_off_c, 1, 37, 0
1, 10776240, Note_on_c, 1, 42, 40
1, 10776480, Note_off_c, 1, 42, 0
1, 10776480, Note_on_c, 1, 46, 40
1, 10776720, Note_off_c, 1, 46, 0
1, 10776720, Note_on_c, 1, 42, 40
1, 10776960, Note_off_c, 1, 42, 0
1, 10776960, Note_on_c, 1, 44, 40
1, 10777200, Note_off_c, 1, 44, 0
1, 10777200, Note_on_c, 1, 32, 40
1, 10777320, Note_off_c, 1, 32, 0
1, 10777440, Note_on_c, 1, 32, 40
1, 10777680, Note_off_c, 1, 32, 0
1, 10777680, Note_on_c, 1, 36, 40
1, 10777920, Note_off_c, 1, 36, 0
1, 10777920, Note_on_c, 1, 39, 40
1, 10778160, Note_off_c, 1, 39, 0
1, 10778160, Note_on_c, 1, 42, 40
1, 10778280, Note_off_c, 1, 42, 0
1, 10778400, Note_on_c, 1, 42, 40
1, 10778640, Note_off_c, 1, 42, 0
1, 10778640, Note_on_c, 1, 41, 40
1, 10778880, Note_off_c, 1, 41, 0
1, 10778880, Note_on_c, 1, 39, 40
1, 10779120, Note_off_c, 1, 39, 0
1, 10779120, Note_on_c, 1, 37, 40
1, 10779240, Note_off_c, 1, 37, 0
1, 10779360, Note_on_c, 1, 37, 40
1, 10779480, Note_off_c, 1, 37, 0
1, 10779600, Note_on_c, 1, 37, 40
1, 10779720, Note_off_c, 1, 37, 0
1, 10779840, Note_on_c, 1, 37, 40
1, 10780080, Note_off_c, 1, 37, 0
1, 10780080, Note_on_c, 1, 42, 40
1, 10780320, Note_off_c, 1, 42, 0
1, 10780320, Note_on_c, 1, 46, 40
1, 10780560, Note_off_c, 1, 46, 0
1, 10780560, Note_on_c, 1, 42, 40
1, 10780800, Note_off_c, 1, 42, 0
1, 10780800, Note_on_c, 1, 44, 40
1, 10781040, Note_off_c, 1, 44, 0
1, 10781040, Note_on_c, 1, 32, 40
1, 10781400, Note_off_c, 1, 32, 0
1, 10781400, Note_on_c, 1, 44, 40
1, 10781640, Note_off_c, 1, 44, 0
1, 10781880, Note_on_c, 1, 32, 40
1, 10782120, Note_off_c, 1, 32, 0
1, 10782120, Note_on_c, 1, 44, 40
1, 10782360, Note_off_c, 1, 44, 0
1, 10782600, Note_on_c, 1, 32, 40
1, 10782840, Note_off_c, 1, 32, 0
1, 10782840, Note_on_c, 1, 44, 40
1, 10783080, Note_off_c, 1, 44, 0
1, 10783080, Note_on_c, 1, 32, 40
1, 10783320, Note_off_c, 1, 32, 0
1, 10783320, Note_on_c, 1, 32, 40
1, 10783560, Note_off_c, 1, 32, 0
1, 10783560, Note_on_c, 1, 32, 40
1, 10783800, Note_off_c, 1, 32, 0
1, 10783800, Note_on_c, 1, 44, 40
1, 10784280, Note_off_c, 1, 44, 0
1, 10784280, Note_on_c, 1, 32, 40
1, 10784520, Note_off_c, 1, 32, 0
1, 10784520, Note_on_c, 1, 44, 40
1, 10784760, Note_off_c, 1, 44, 0
1, 10784760, Note_on_c, 1, 44, 40
1, 10785000, Note_off_c, 1, 44, 0
1, 10785000, Note_on_c, 1, 32, 40
1, 10785240, Note_off_c, 1, 32, 0
1, 10785240, Note_on_c, 1, 32, 40
1, 10785480, Note_off_c, 1, 32, 0
1, 10785480, Note_on_c, 1, 32, 40
1, 10785720, Note_off_c, 1, 32, 0
1, 10785720, Note_on_c, 1, 44, 40
1, 10786200, Note_off_c, 1, 44, 0
1, 10786200, Note_on_c, 1, 32, 40
1, 10786440, Note_off_c, 1, 32, 0
1, 10786440, Note_on_c, 1, 44, 40
1, 10786680, Note_off_c, 1, 44, 0
1, 10786680, Note_on_c, 1, 44, 40
1, 10786920, Note_off_c, 1, 44, 0
1, 10786920, Note_on_c, 1, 32, 40
1, 10787160, Note_off_c, 1, 32, 0
1, 10787160, Note_on_c, 1, 32, 40
1, 10787400, Note_off_c, 1, 32, 0
1, 10787400, Note_on_c, 1, 32, 40
1, 10787640, Note_off_c, 1, 32, 0
1, 10787640, Note_on_c, 1, 44, 40
1, 10788120, Note_off_c, 1, 44, 0
1, 10788120, Note_on_c, 1, 32, 40
1, 10788360, Note_off_c, 1, 32, 0
1, 10788480, Note_on_c, 1, 44, 40
1, 10788720, Note_off_c, 1, 44, 0
1, 10788720, Note_on_c, 1, 32, 40
1, 10788960, Note_off_c, 1, 32, 0
1, 10788960, Note_on_c, 1, 32, 40
1, 10789080, Note_off_c, 1, 32, 0
1, 10789200, Note_on_c, 1, 32, 40
1, 10789440, Note_off_c, 1, 32, 0
1, 10789440, Note_on_c, 1, 44, 40
1, 10789920, Note_off_c, 1, 44, 0
1, 10789920, Note_on_c, 1, 32, 40
1, 10790160, Note_off_c, 1, 32, 0
1, 10790160, Note_on_c, 1, 44, 40
1, 10790280, Note_off_c, 1, 44, 0
1, 10790400, Note_on_c, 1, 44, 40
1, 10790640, Note_off_c, 1, 44, 0
1, 10790640, Note_on_c, 1, 32, 40
1, 10790880, Note_off_c, 1, 32, 0
1, 10790880, Note_on_c, 1, 32, 40
1, 10791120, Note_off_c, 1, 32, 0
1, 10791120, Note_on_c, 1, 32, 40
1, 10791360, Note_off_c, 1, 32, 0
1, 10791360, Note_on_c, 1, 44, 40
1, 10791840, Note_off_c, 1, 44, 0
1, 10791840, Note_on_c, 1, 32, 40
1, 10792080, Note_off_c, 1, 32, 0
1, 10792080, Note_on_c, 1, 44, 40
1, 10792200, Note_off_c, 1, 44, 0
1, 10792320, Note_on_c, 1, 44, 40
1, 10792680, Note_off_c, 1, 44, 0
1, 10792800, Note_on_c, 1, 44, 40
1, 10793040, Note_off_c, 1, 44, 0
1, 10793040, Note_on_c, 1, 44, 40
1, 10793280, Note_off_c, 1, 44, 0
1, 10793280, Note_on_c, 1, 32, 40
1, 10793520, Note_off_c, 1, 32, 0
1, 10793520, Note_on_c, 1, 44, 40
1, 10793760, Note_off_c, 1, 44, 0
1, 10793760, Note_on_c, 1, 42, 40
1, 10794000, Note_off_c, 1, 42, 0
1, 10794000, Note_on_c, 1, 41, 40
1, 10794240, Note_off_c, 1, 41, 0
1, 10794240, Note_on_c, 1, 39, 40
1, 10794480, Note_off_c, 1, 39, 0
1, 10794480, Note_on_c, 1, 37, 40
1, 10794720, Note_off_c, 1, 37, 0
1, 10794960, Note_on_c, 1, 37, 40
1, 10795200, Note_off_c, 1, 37, 0
1, 10795200, Note_on_c, 1, 29, 40
1, 10795320, Note_off_c, 1, 29, 0
1, 10795440, Note_on_c, 1, 30, 40
1, 10795800, Note_off_c, 1, 30, 0
1, 10795920, Note_on_c, 1, 34, 40
1, 10796160, Note_off_c, 1, 34, 0
1, 10796160, Note_on_c, 1, 30, 40
1, 10796400, Note_off_c, 1, 30, 0
1, 10796400, Note_on_c, 1, 32, 40
1, 10796760, Note_off_c, 1, 32, 0
1, 10796880, Note_on_c, 1, 36, 40
1, 10797120, Note_off_c, 1, 36, 0
1, 10797120, Note_on_c, 1, 39, 40
1, 10797360, Note_off_c, 1, 39, 0
1, 10797360, Note_on_c, 1, 32, 40
1, 10797480, Note_off_c, 1, 32, 0
1, 10797600, Note_on_c, 1, 32, 40
1, 10797840, Note_off_c, 1, 32, 0
1, 10797840, Note_on_c, 1, 34, 40
1, 10798080, Note_off_c, 1, 34, 0
1, 10798080, Note_on_c, 1, 36, 40
1, 10798320, Note_off_c, 1, 36, 0
1, 10798320, Note_on_c, 1, 37, 40
1, 10798560, Note_off_c, 1, 37, 0
1, 10798800, Note_on_c, 1, 37, 40
1, 10799040, Note_off_c, 1, 37, 0
1, 10799040, Note_on_c, 1, 29, 40
1, 10799160, Note_off_c, 1, 29, 0
1, 10799280, Note_on_c, 1, 30, 40
1, 10799640, Note_off_c, 1, 30, 0
1, 10799760, Note_on_c, 1, 34, 40
1, 10800000, Note_off_c, 1, 34, 0
1, 10800000, End_track, , , 
2, 0, Start_track, , , 
2, 0, Title_t, Electric Guitar, , 
2, 0, Control_c, 2, 0, 0
2, 0, Program_c, 2, 1,
2, 1680, Note_on_c, 2, 67, 50
2, 1920, Note_off_c, 2, 67, 0
2, 1920, Note_on_c, 2, 67, 50
2, 2160, Note_off_c, 2, 67, 0
2, 2160, Note_on_c, 2, 67, 50
2, 2400, Note_off_c, 2, 67, 0
2, 2400, Note_on_c, 2, 67, 50
2, 2760, Note_off_c, 2, 67, 0
2, 2880, Note_on_c, 2, 66, 50
2, 3120, Note_off_c, 2, 66, 0
2, 3120, Note_on_c, 2, 66, 50
2, 3360, Note_off_c, 2, 66, 0
2, 3360, Note_on_c, 2, 66, 50
2, 3720, Note_off_c, 2, 66, 0
2, 3840, Note_on_c, 2, 64, 50
2, 4080, Note_off_c, 2, 64, 0
2, 4080, Note_on_c, 2, 64, 50
2, 4320, Note_off_c, 2, 64, 0
2, 4320, Note_on_c, 2, 64, 50
2, 4560, Note_off_c, 2, 64, 0
2, 4560, Note_on_c, 2, 64, 50
2, 4800, Note_off_c, 2, 64, 0
2, 4800, Note_on_c, 2, 64, 50
2, 5040, Note_off_c, 2, 64, 0
2, 5040, Note_on_c, 2, 64, 50
2, 5280, Note_off_c, 2, 64, 0
2, 5280, Note_on_c, 2, 64, 50
2, 5520, Note_off_c, 2, 64, 0
2, 5520, Note_on_c, 2, 64, 50
2, 5760, Note_off_c, 2, 64, 0
2, 5760, Note_on_c, 2, 64, 50
2, 6240, Note_off_c, 2, 64, 0
2, 6240, Note_on_c, 2, 64, 50
2, 6720, Note_off_c, 2, 64, 0
2, 6720, Note_on_c, 2, 64, 50
2, 7200, Note_off_c, 2, 64, 0
2, 7200, Note_on_c, 2, 64, 50
2, 7680, Note_off_c, 2, 64, 0
2, 7680, Note_on_c, 2, 64, 50
2, 8160, Note_off_c, 2, 64, 0
2, 8160, Note_on_c, 2, 64, 50
2, 8640, Note_off_c, 2, 64, 0
2, 8640, Note_on_c, 2, 64, 50
2, 9120, Note_off_c, 2, 64, 0
2, 9120, Note_on_c, 2, 64, 50
2, 9360, Note_off_c, 2, 64, 0
2, 9600, Note_on_c, 2, 67, 50
2, 10080, Note_off_c, 2, 67, 0
2, 10080, Note_on_c, 2, 67, 50
2, 10320, Note_off_c, 2, 67, 0
2, 10560, Note_on_c, 2, 66, 50
2, 11040, Note_off_c, 2, 66, 0
2, 11040, Note_on_c, 2, 66, 50
2, 11280, Note_off_c, 2, 66, 0
2, 11520, Note_on_c, 2, 64, 50
2, 12000, Note_off_c, 2, 64, 0
2, 12000, Note_on_c, 2, 64, 50
2, 12240, Note_off_c, 2, 64, 0
2, 12480, Note_on_c, 2, 64, 50
2, 12960, Note_off_c, 2, 64, 0
2, 12960, Note_on_c, 2, 64, 50
2, 13200, Note_off_c, 2, 64, 0
2, 13440, Note_on_c, 2, 64, 50
2, 13920, Note_off_c, 2, 64, 0
2, 13920, Note_on_c, 2, 64, 50
2, 14160, Note_off_c, 2, 64, 0
2, 14400, Note_on_c, 2, 64, 50
2, 14880, Note_off_c, 2, 64, 0
2, 14880, Note_on_c, 2, 64, 50
2, 15120, Note_off_c, 2, 64, 0
2, 15360, Note_on_c, 2, 64, 50
2, 15840, Note_off_c, 2, 64, 0
2, 15840, Note_on_c, 2, 64, 50
2, 16080, Note_off_c, 2, 64, 0
2, 16320, Note_on_c, 2, 64, 50
2, 16800, Note_off_c, 2, 64, 0
2, 16800, Note_on_c, 2, 64, 50
2, 17040, Note_off_c, 2, 64, 0
2, 17280, Note_on_c, 2, 67, 50
2, 17760, Note_off_c, 2, 67, 0
2, 17760, Note_on_c, 2, 67, 50
2, 18000, Note_off_c, 2, 67, 0
2, 18240, Note_on_c, 2, 66, 50
2, 18720, Note_off_c, 2, 66, 0
2, 18720, Note_on_c, 2, 66, 50
2, 18960, Note_off_c, 2, 66, 0
2, 19200, Note_on_c, 2, 64, 50
2, 19680, Note_off_c, 2, 64, 0
2, 19680, Note_on_c, 2, 64, 50
2, 19920, Note_off_c, 2, 64, 0
2, 20160, Note_on_c, 2, 64, 50
2, 20640, Note_off_c, 2, 64, 0
2, 20640, Note_on_c, 2, 64, 50
2, 20880, Note_off_c, 2, 64, 0
2, 21120, Note_on_c, 2, 64, 50
2, 21600, Note_off_c, 2, 64, 0
2, 21600, Note_on_c, 2, 64, 50
2, 21840, Note_off_c, 2, 64, 0
2, 22080, Note_on_c, 2, 65, 50
2, 22560, Note_off_c, 2, 65, 0
2, 22560, Note_on_c, 2, 65, 50
2, 22800, Note_off_c, 2, 65, 0
2, 23040, Note_on_c, 2, 64, 50
2, 23520, Note_off_c, 2, 64, 0
2, 23520, Note_on_c, 2, 64, 50
2, 23760, Note_off_c, 2, 64, 0
2, 24000, Note_on_c, 2, 64, 50
2, 24480, Note_off_c, 2, 64, 0
2, 24480, Note_on_c, 2, 64, 50
2, 24720, Note_off_c, 2, 64, 0
2, 24960, Note_on_c, 2, 64, 50
2, 25440, Note_off_c, 2, 64, 0
2, 25440, Note_on_c, 2, 64, 50
2, 25680, Note_off_c, 2, 64, 0
2, 25920, Note_on_c, 2, 65, 50
2, 26400, Note_off_c, 2, 65, 0
2, 26400, Note_on_c, 2, 65, 50
2, 26640, Note_off_c, 2, 65, 0
2, 26880, Note_on_c, 2, 64, 50
2, 27360, Note_off_c, 2, 64, 0
2, 27360, Note_on_c, 2, 64, 50
2, 27600, Note_off_c, 2, 64, 0
2, 27840, Note_on_c, 2, 64, 50
2, 28320, Note_off_c, 2, 64, 0
2, 28320, Note_on_c, 2, 64, 50
2, 28560, Note_off_c, 2, 64, 0
2, 28800, Note_on_c, 2, 67, 50
2, 29280, Note_off_c, 2, 67, 0
2, 29280, Note_on_c, 2, 67, 50
2, 29520, Note_off_c, 2, 67, 0
2, 29760, Note_on_c, 2, 66, 50
2, 30240, Note_off_c, 2, 66, 0
2, 30240, Note_on_c, 2, 66, 50
2, 30480, Note_off_c, 2, 66, 0
2, 30720, Note_on_c, 2, 64, 50
2, 31200, Note_off_c, 2, 64, 0
2, 31200, Note_on_c, 2, 64, 50
2, 31440, Note_off_c, 2, 64, 0
2, 31680, Note_on_c, 2, 64, 50
2, 32160, Note_off_c, 2, 64, 0
2, 32160, Note_on_c, 2, 64, 50
2, 32400, Note_off_c, 2, 64, 0
2, 32640, Note_on_c, 2, 64, 50
2, 33120, Note_off_c, 2, 64, 0
2, 33120, Note_on_c, 2, 64, 50
2, 33360, Note_off_c, 2, 64, 0
2, 33600, Note_on_c, 2, 64, 50
2, 34080, Note_off_c, 2, 64, 0
2, 34080, Note_on_c, 2, 64, 50
2, 34320, Note_off_c, 2, 64, 0
2, 34560, Note_on_c, 2, 64, 50
2, 35040, Note_off_c, 2, 64, 0
2, 35040, Note_on_c, 2, 64, 50
2, 35280, Note_off_c, 2, 64, 0
2, 35520, Note_on_c, 2, 64, 50
2, 36000, Note_off_c, 2, 64, 0
2, 36000, Note_on_c, 2, 64, 50
2, 36240, Note_off_c, 2, 64, 0
2, 36480, Note_on_c, 2, 67, 50
2, 36960, Note_off_c, 2, 67, 0
2, 36960, Note_on_c, 2, 67, 50
2, 37200, Note_off_c, 2, 67, 0
2, 37440, Note_on_c, 2, 66, 50
2, 37920, Note_off_c, 2, 66, 0
2, 37920, Note_on_c, 2, 66, 50
2, 38160, Note_off_c, 2, 66, 0
2, 38400, Note_on_c, 2, 64, 50
2, 38880, Note_off_c, 2, 64, 0
2, 38880, Note_on_c, 2, 64, 50
2, 39120, Note_off_c, 2, 64, 0
2, 39360, Note_on_c, 2, 64, 50
2, 39840, Note_off_c, 2, 64, 0
2, 39840, Note_on_c, 2, 64, 50
2, 40080, Note_off_c, 2, 64, 0
2, 40320, Note_on_c, 2, 64, 50
2, 40800, Note_off_c, 2, 64, 0
2, 40800, Note_on_c, 2, 64, 50
2, 41040, Note_off_c, 2, 64, 0
2, 41280, Note_on_c, 2, 65, 50
2, 41760, Note_off_c, 2, 65, 0
2, 41760, Note_on_c, 2, 65, 50
2, 42000, Note_off_c, 2, 65, 0
2, 42240, Note_on_c, 2, 64, 50
2, 42720, Note_off_c, 2, 64, 0
2, 42720, Note_on_c, 2, 64, 50
2, 42960, Note_off_c, 2, 64, 0
2, 43200, Note_on_c, 2, 62, 50
2, 43680, Note_off_c, 2, 62, 0
2, 43680, Note_on_c, 2, 62, 50
2, 43920, Note_off_c, 2, 62, 0
2, 44160, Note_on_c, 2, 64, 50
2, 44640, Note_off_c, 2, 64, 0
2, 44640, Note_on_c, 2, 64, 50
2, 45360, Note_off_c, 2, 64, 0
2, 45600, Note_on_c, 2, 64, 50
2, 45720, Note_off_c, 2, 64, 0
2, 46080, Note_on_c, 2, 67, 50
2, 46560, Note_off_c, 2, 67, 0
2, 46560, Note_on_c, 2, 67, 50
2, 46800, Note_off_c, 2, 67, 0
2, 47040, Note_on_c, 2, 66, 50
2, 47520, Note_off_c, 2, 66, 0
2, 47520, Note_on_c, 2, 66, 50
2, 47760, Note_off_c, 2, 66, 0
2, 48000, Note_on_c, 2, 64, 50
2, 48480, Note_off_c, 2, 64, 0
2, 48480, Note_on_c, 2, 64, 50
2, 48720, Note_off_c, 2, 64, 0
2, 48960, Note_on_c, 2, 64, 50
2, 49440, Note_off_c, 2, 64, 0
2, 49440, Note_on_c, 2, 64, 50
2, 49680, Note_off_c, 2, 64, 0
2, 49920, Note_on_c, 2, 64, 50
2, 50400, Note_off_c, 2, 64, 0
2, 50400, Note_on_c, 2, 64, 50
2, 50640, Note_off_c, 2, 64, 0
2, 50880, Note_on_c, 2, 64, 50
2, 51360, Note_off_c, 2, 64, 0
2, 51360, Note_on_c, 2, 64, 50
2, 51600, Note_off_c, 2, 64, 0
2, 51840, Note_on_c, 2, 64, 50
2, 52320, Note_off_c, 2, 64, 0
2, 52320, Note_on_c, 2, 64, 50
2, 52560, Note_off_c, 2, 64, 0
2, 52800, Note_on_c, 2, 64, 50
2, 53280, Note_off_c, 2, 64, 0
2, 53280, Note_on_c, 2, 64, 50
2, 53520, Note_off_c, 2, 64, 0
2, 53760, Note_on_c, 2, 67, 50
2, 54240, Note_off_c, 2, 67, 0
2, 54240, Note_on_c, 2, 67, 50
2, 54480, Note_off_c, 2, 67, 0
2, 54720, Note_on_c, 2, 66, 50
2, 55200, Note_off_c, 2, 66, 0
2, 55200, Note_on_c, 2, 66, 50
2, 55440, Note_off_c, 2, 66, 0
2, 55680, Note_on_c, 2, 64, 50
2, 56160, Note_off_c, 2, 64, 0
2, 56160, Note_on_c, 2, 64, 50
2, 56400, Note_off_c, 2, 64, 0
2, 56640, Note_on_c, 2, 64, 50
2, 57120, Note_off_c, 2, 64, 0
2, 57120, Note_on_c, 2, 64, 50
2, 57360, Note_off_c, 2, 64, 0
2, 57600, Note_on_c, 2, 64, 50
2, 58080, Note_off_c, 2, 64, 0
2, 58080, Note_on_c, 2, 64, 50
2, 58320, Note_off_c, 2, 64, 0
2, 58560, Note_on_c, 2, 65, 50
2, 59040, Note_off_c, 2, 65, 0
2, 59040, Note_on_c, 2, 65, 50
2, 59280, Note_off_c, 2, 65, 0
2, 59520, Note_on_c, 2, 64, 50
2, 60000, Note_off_c, 2, 64, 0
2, 60000, Note_on_c, 2, 64, 50
2, 60240, Note_off_c, 2, 64, 0
2, 60480, Note_on_c, 2, 62, 50
2, 60960, Note_off_c, 2, 62, 0
2, 60960, Note_on_c, 2, 62, 50
2, 61200, Note_off_c, 2, 62, 0
2, 61440, Note_on_c, 2, 64, 50
2, 61920, Note_off_c, 2, 64, 0
2, 61920, Note_on_c, 2, 64, 50
2, 62640, Note_off_c, 2, 64, 0
2, 62880, Note_on_c, 2, 64, 50
2, 63000, Note_off_c, 2, 64, 0
2, 127200, Note_on_c, 2, 67, 50
2, 127680, Note_off_c, 2, 67, 0
2, 127680, Note_on_c, 2, 67, 50
2, 127920, Note_off_c, 2, 67, 0
2, 128160, Note_on_c, 2, 66, 50
2, 128640, Note_off_c, 2, 66, 0
2, 128640, Note_on_c, 2, 66, 50
2, 128880, Note_off_c, 2, 66, 0
2, 129120, Note_on_c, 2, 64, 50
2, 129600, Note_off_c, 2, 64, 0
2, 129600, Note_on_c, 2, 64, 50
2, 129840, Note_off_c, 2, 64, 0
2, 130080, Note_on_c, 2, 64, 50
2, 130560, Note_off_c, 2, 64, 0
2, 130560, Note_on_c, 2, 64, 50
2, 130800, Note_off_c, 2, 64, 0
2, 131040, Note_on_c, 2, 64, 50
2, 131520, Note_off_c, 2, 64, 0
2, 131520, Note_on_c, 2, 64, 50
2, 131760, Note_off_c, 2, 64, 0
2, 132000, Note_on_c, 2, 64, 50
2, 132480, Note_off_c, 2, 64, 0
2, 132480, Note_on_c, 2, 64, 50
2, 132720, Note_off_c, 2, 64, 0
2, 132960, Note_on_c, 2, 64, 50
2, 133440, Note_off_c, 2, 64, 0
2, 133440, Note_on_c, 2, 64, 50
2, 133680, Note_off_c, 2, 64, 0
2, 133920, Note_on_c, 2, 64, 50
2, 134400, Note_off_c, 2, 64, 0
2, 134400, Note_on_c, 2, 64, 50
2, 134640, Note_off_c, 2, 64, 0
2, 134880, Note_on_c, 2, 67, 50
2, 135360, Note_off_c, 2, 67, 0
2, 135360, Note_on_c, 2, 67, 50
2, 135600, Note_off_c, 2, 67, 0
2, 135840, Note_on_c, 2, 66, 50
2, 136320, Note_off_c, 2, 66, 0
2, 136320, Note_on_c, 2, 66, 50
2, 136560, Note_off_c, 2, 66, 0
2, 136800, Note_on_c, 2, 64, 50
2, 137280, Note_off_c, 2, 64, 0
2, 137280, Note_on_c, 2, 64, 50
2, 137520, Note_off_c, 2, 64, 0
2, 137760, Note_on_c, 2, 64, 50
2, 138240, Note_off_c, 2, 64, 0
2, 138240, Note_on_c, 2, 64, 50
2, 138480, Note_off_c, 2, 64, 0
2, 138720, Note_on_c, 2, 64, 50
2, 139200, Note_off_c, 2, 64, 0
2, 139200, Note_on_c, 2, 64, 50
2, 139440, Note_off_c, 2, 64, 0
2, 139680, Note_on_c, 2, 65, 50
2, 140160, Note_off_c, 2, 65, 0
2, 140160, Note_on_c, 2, 65, 50
2, 140400, Note_off_c, 2, 65, 0
2, 140640, Note_on_c, 2, 64, 50
2, 141120, Note_off_c, 2, 64, 0
2, 141120, Note_on_c, 2, 64, 50
2, 141360, Note_off_c, 2, 64, 0
2, 141600, Note_on_c, 2, 62, 50
2, 142080, Note_off_c, 2, 62, 0
2, 142080, Note_on_c, 2, 62, 50
2, 142320, Note_off_c, 2, 62, 0
2, 142560, Note_on_c, 2, 64, 50
2, 143040, Note_off_c, 2, 64, 0
2, 143040, Note_on_c, 2, 64, 50
2, 143760, Note_off_c, 2, 64, 0
2, 144000, Note_on_c, 2, 64, 50
2, 144120, Note_off_c, 2, 64, 0
2, 185760, Note_on_c, 2, 73, 50
2, 186000, Note_off_c, 2, 73, 0
2, 186000, Note_on_c, 2, 74, 50
2, 186240, Note_off_c, 2, 74, 0
2, 186240, Note_on_c, 2, 73, 50
2, 186480, Note_off_c, 2, 73, 0
2, 186480, Note_on_c, 2, 76, 50
2, 187440, Note_off_c, 2, 76, 0
2, 187440, Note_on_c, 2, 76, 50
2, 188160, Note_off_c, 2, 76, 0
2, 188160, Note_on_c, 2, 76, 50
2, 188880, Note_off_c, 2, 76, 0
2, 189600, Note_on_c, 2, 76, 50
2, 189840, Note_off_c, 2, 76, 0
2, 189840, Note_on_c, 2, 76, 50
2, 190080, Note_off_c, 2, 76, 0
2, 190080, Note_on_c, 2, 74, 50
2, 190320, Note_off_c, 2, 74, 0
2, 190320, Note_on_c, 2, 76, 50
2, 190560, Note_off_c, 2, 76, 0
2, 190560, Note_on_c, 2, 79, 50
2, 191520, Note_off_c, 2, 79, 0
2, 191520, Note_on_c, 2, 76, 50
2, 191760, Note_off_c, 2, 76, 0
2, 191760, Note_on_c, 2, 74, 50
2, 192000, Note_off_c, 2, 74, 0
2, 192000, Note_on_c, 2, 76, 50
2, 192120, Note_off_c, 2, 76, 0
2, 192120, Note_on_c, 2, 74, 50
2, 192240, Note_off_c, 2, 74, 0
2, 192240, Note_on_c, 2, 73, 50
2, 192720, Note_off_c, 2, 73, 0
2, 193440, Note_on_c, 2, 73, 50
2, 193680, Note_off_c, 2, 73, 0
2, 193680, Note_on_c, 2, 74, 50
2, 193920, Note_off_c, 2, 74, 0
2, 193920, Note_on_c, 2, 73, 50
2, 194160, Note_off_c, 2, 73, 0
2, 194160, Note_on_c, 2, 76, 50
2, 195120, Note_off_c, 2, 76, 0
2, 195120, Note_on_c, 2, 76, 50
2, 195840, Note_off_c, 2, 76, 0
2, 195840, Note_on_c, 2, 76, 50
2, 196560, Note_off_c, 2, 76, 0
2, 197280, Note_on_c, 2, 74, 50
2, 197520, Note_off_c, 2, 74, 0
2, 197520, Note_on_c, 2, 76, 50
2, 197760, Note_off_c, 2, 76, 0
2, 197760, Note_on_c, 2, 74, 50
2, 198000, Note_off_c, 2, 74, 0
2, 198000, Note_on_c, 2, 76, 50
2, 198240, Note_off_c, 2, 76, 0
2, 198240, Note_on_c, 2, 79, 50
2, 199200, Note_off_c, 2, 79, 0
2, 199200, Note_on_c, 2, 76, 50
2, 199440, Note_off_c, 2, 76, 0
2, 199440, Note_on_c, 2, 74, 50
2, 199680, Note_off_c, 2, 74, 0
2, 199680, Note_on_c, 2, 76, 50
2, 199800, Note_off_c, 2, 76, 0
2, 199800, Note_on_c, 2, 74, 50
2, 199920, Note_off_c, 2, 74, 0
2, 199920, Note_on_c, 2, 73, 50
2, 200400, Note_off_c, 2, 73, 0
2, 201120, Note_on_c, 2, 78, 50
2, 201360, Note_off_c, 2, 78, 0
2, 201360, Note_on_c, 2, 79, 50
2, 201600, Note_off_c, 2, 79, 0
2, 201600, Note_on_c, 2, 80, 50
2, 201840, Note_off_c, 2, 80, 0
2, 201840, Note_on_c, 2, 81, 50
2, 202080, Note_off_c, 2, 81, 0
2, 202080, Note_on_c, 2, 80, 50
2, 202320, Note_off_c, 2, 80, 0
2, 202320, Note_on_c, 2, 79, 50
2, 202560, Note_off_c, 2, 79, 0
2, 202560, Note_on_c, 2, 78, 50
2, 202800, Note_off_c, 2, 78, 0
2, 203040, Note_on_c, 2, 81, 50
2, 203280, Note_off_c, 2, 81, 0
2, 203280, Note_on_c, 2, 81, 50
2, 203520, Note_off_c, 2, 81, 0
2, 203520, Note_on_c, 2, 82, 50
2, 203760, Note_off_c, 2, 82, 0
2, 203760, Note_on_c, 2, 83, 50
2, 204000, Note_off_c, 2, 83, 0
2, 204000, Note_on_c, 2, 82, 50
2, 204240, Note_off_c, 2, 82, 0
2, 204240, Note_on_c, 2, 81, 50
2, 204480, Note_off_c, 2, 81, 0
2, 204480, Note_on_c, 2, 80, 50
2, 204720, Note_off_c, 2, 80, 0
2, 204960, Note_on_c, 2, 73, 50
2, 205200, Note_off_c, 2, 73, 0
2, 205200, Note_on_c, 2, 74, 50
2, 205440, Note_off_c, 2, 74, 0
2, 205440, Note_on_c, 2, 73, 50
2, 205680, Note_off_c, 2, 73, 0
2, 205680, Note_on_c, 2, 76, 50
2, 205920, Note_off_c, 2, 76, 0
2, 205920, Note_on_c, 2, 69, 50
2, 206640, Note_off_c, 2, 69, 0
2, 206640, Note_on_c, 2, 72, 50
2, 206880, Note_off_c, 2, 72, 0
2, 206880, Note_on_c, 2, 74, 50
2, 207360, Note_off_c, 2, 74, 0
2, 207360, Note_on_c, 2, 72, 50
2, 208080, Note_off_c, 2, 72, 0
2, 208800, Note_on_c, 2, 73, 50
2, 209040, Note_off_c, 2, 73, 0
2, 209040, Note_on_c, 2, 74, 50
2, 209280, Note_off_c, 2, 74, 0
2, 209280, Note_on_c, 2, 73, 50
2, 209520, Note_off_c, 2, 73, 0
2, 209520, Note_on_c, 2, 76, 50
2, 210480, Note_off_c, 2, 76, 0
2, 210480, Note_on_c, 2, 76, 50
2, 211200, Note_off_c, 2, 76, 0
2, 211200, Note_on_c, 2, 76, 50
2, 211920, Note_off_c, 2, 76, 0
2, 212640, Note_on_c, 2, 76, 50
2, 212880, Note_off_c, 2, 76, 0
2, 212880, Note_on_c, 2, 76, 50
2, 213120, Note_off_c, 2, 76, 0
2, 213120, Note_on_c, 2, 74, 50
2, 213360, Note_off_c, 2, 74, 0
2, 213360, Note_on_c, 2, 76, 50
2, 213600, Note_off_c, 2, 76, 0
2, 213600, Note_on_c, 2, 79, 50
2, 214560, Note_off_c, 2, 79, 0
2, 214560, Note_on_c, 2, 76, 50
2, 214800, Note_off_c, 2, 76, 0
2, 214800, Note_on_c, 2, 76, 50
2, 215040, Note_off_c, 2, 76, 0
2, 215040, Note_on_c, 2, 74, 50
2, 215280, Note_off_c, 2, 74, 0
2, 215280, Note_on_c, 2, 76, 50
2, 215400, Note_off_c, 2, 76, 0
2, 215400, Note_on_c, 2, 74, 50
2, 215520, Note_off_c, 2, 74, 0
2, 215520, Note_on_c, 2, 73, 50
2, 215760, Note_off_c, 2, 73, 0
2, 216720, Note_on_c, 2, 74, 50
2, 216960, Note_off_c, 2, 74, 0
2, 216960, Note_on_c, 2, 73, 50
2, 217200, Note_off_c, 2, 73, 0
2, 217200, Note_on_c, 2, 76, 50
2, 217440, Note_off_c, 2, 76, 0
2, 217440, Note_on_c, 2, 76, 50
2, 217680, Note_off_c, 2, 76, 0
2, 217680, Note_on_c, 2, 76, 50
2, 217920, Note_off_c, 2, 76, 0
2, 217920, Note_on_c, 2, 76, 50
2, 218160, Note_off_c, 2, 76, 0
2, 218160, Note_on_c, 2, 76, 50
2, 218400, Note_off_c, 2, 76, 0
2, 218400, Note_on_c, 2, 76, 50
2, 218880, Note_off_c, 2, 76, 0
2, 218880, Note_on_c, 2, 76, 50
2, 219600, Note_off_c, 2, 76, 0
2, 220320, Note_on_c, 2, 74, 50
2, 220560, Note_off_c, 2, 74, 0
2, 220560, Note_on_c, 2, 76, 50
2, 220800, Note_off_c, 2, 76, 0
2, 220800, Note_on_c, 2, 74, 50
2, 221040, Note_off_c, 2, 74, 0
2, 221040, Note_on_c, 2, 76, 50
2, 221280, Note_off_c, 2, 76, 0
2, 221280, Note_on_c, 2, 79, 50
2, 222240, Note_off_c, 2, 79, 0
2, 222240, Note_on_c, 2, 76, 50
2, 222480, Note_off_c, 2, 76, 0
2, 222480, Note_on_c, 2, 74, 50
2, 222720, Note_off_c, 2, 74, 0
2, 222720, Note_on_c, 2, 76, 50
2, 222840, Note_off_c, 2, 76, 0
2, 222840, Note_on_c, 2, 74, 50
2, 222960, Note_off_c, 2, 74, 0
2, 222960, Note_on_c, 2, 73, 50
2, 223440, Note_off_c, 2, 73, 0
2, 224160, Note_on_c, 2, 78, 50
2, 224400, Note_off_c, 2, 78, 0
2, 224400, Note_on_c, 2, 79, 50
2, 224640, Note_off_c, 2, 79, 0
2, 224640, Note_on_c, 2, 80, 50
2, 224880, Note_off_c, 2, 80, 0
2, 224880, Note_on_c, 2, 81, 50
2, 225120, Note_off_c, 2, 81, 0
2, 225120, Note_on_c, 2, 80, 50
2, 225360, Note_off_c, 2, 80, 0
2, 225360, Note_on_c, 2, 79, 50
2, 225600, Note_off_c, 2, 79, 0
2, 225600, Note_on_c, 2, 78, 50
2, 225840, Note_off_c, 2, 78, 0
2, 226080, Note_on_c, 2, 81, 50
2, 226320, Note_off_c, 2, 81, 0
2, 226320, Note_on_c, 2, 81, 50
2, 226560, Note_off_c, 2, 81, 0
2, 226560, Note_on_c, 2, 82, 50
2, 226800, Note_off_c, 2, 82, 0
2, 226800, Note_on_c, 2, 83, 50
2, 227040, Note_off_c, 2, 83, 0
2, 227040, Note_on_c, 2, 82, 50
2, 227280, Note_off_c, 2, 82, 0
2, 227280, Note_on_c, 2, 81, 50
2, 227520, Note_off_c, 2, 81, 0
2, 227520, Note_on_c, 2, 80, 50
2, 227760, Note_off_c, 2, 80, 0
2, 228000, Note_on_c, 2, 73, 50
2, 228240, Note_off_c, 2, 73, 0
2, 228240, Note_on_c, 2, 74, 50
2, 228480, Note_off_c, 2, 74, 0
2, 228480, Note_on_c, 2, 73, 50
2, 228720, Note_off_c, 2, 73, 0
2, 228720, Note_on_c, 2, 76, 50
2, 228960, Note_off_c, 2, 76, 0
2, 228960, Note_on_c, 2, 69, 50
2, 229680, Note_off_c, 2, 69, 0
2, 229680, Note_on_c, 2, 72, 50
2, 229920, Note_off_c, 2, 72, 0
2, 229920, Note_on_c, 2, 74, 50
2, 230400, Note_off_c, 2, 74, 0
2, 230400, Note_on_c, 2, 72, 50
2, 231120, Note_off_c, 2, 72, 0
2, 231600, Note_on_c, 2, 76, 50
2, 231840, Note_off_c, 2, 76, 0
2, 231840, Note_on_c, 2, 81, 50
2, 232320, Note_off_c, 2, 81, 0
2, 232320, Note_on_c, 2, 80, 50
2, 234000, Note_off_c, 2, 80, 0
2, 234480, Note_on_c, 2, 81, 50
2, 234720, Note_off_c, 2, 81, 0
2, 234720, Note_on_c, 2, 80, 50
2, 234960, Note_off_c, 2, 80, 0
2, 234960, Note_on_c, 2, 78, 50
2, 235200, Note_off_c, 2, 78, 0
2, 235200, Note_on_c, 2, 78, 50
2, 235680, Note_off_c, 2, 78, 0
2, 235680, Note_on_c, 2, 80, 50
2, 235920, Note_off_c, 2, 80, 0
2, 235920, Note_on_c, 2, 81, 50
2, 236160, Note_off_c, 2, 81, 0
2, 236160, Note_on_c, 2, 78, 50
2, 236400, Note_off_c, 2, 78, 0
2, 236400, Note_on_c, 2, 80, 50
2, 237840, Note_off_c, 2, 80, 0
2, 239280, Note_on_c, 2, 76, 50
2, 239520, Note_off_c, 2, 76, 0
2, 239520, Note_on_c, 2, 80, 50
2, 240000, Note_off_c, 2, 80, 0
2, 240000, Note_on_c, 2, 81, 50
2, 241680, Note_off_c, 2, 81, 0
2, 242160, Note_on_c, 2, 81, 50
2, 242400, Note_off_c, 2, 81, 0
2, 242400, Note_on_c, 2, 80, 50
2, 242640, Note_off_c, 2, 80, 0
2, 242640, Note_on_c, 2, 78, 50
2, 242880, Note_off_c, 2, 78, 0
2, 242880, Note_on_c, 2, 78, 50
2, 243360, Note_off_c, 2, 78, 0
2, 243360, Note_on_c, 2, 80, 50
2, 243600, Note_off_c, 2, 80, 0
2, 243600, Note_on_c, 2, 81, 50
2, 244080, Note_off_c, 2, 81, 0
2, 244080, Note_on_c, 2, 83, 50
2, 245040, Note_off_c, 2, 83, 0
2, 245760, Note_on_c, 2, 81, 50
2, 246000, Note_off_c, 2, 81, 0
2, 246000, Note_on_c, 2, 83, 50
2, 246720, Note_off_c, 2, 83, 0
2, 246720, Note_on_c, 2, 83, 50
2, 247200, Note_off_c, 2, 83, 0
2, 247200, Note_on_c, 2, 73, 50
2, 247440, Note_off_c, 2, 73, 0
2, 247440, Note_on_c, 2, 74, 50
2, 247680, Note_off_c, 2, 74, 0
2, 247680, Note_on_c, 2, 73, 50
2, 247920, Note_off_c, 2, 73, 0
2, 247920, Note_on_c, 2, 76, 50
2, 248880, Note_off_c, 2, 76, 0
2, 248880, Note_on_c, 2, 76, 50
2, 249600, Note_off_c, 2, 76, 0
2, 249600, Note_on_c, 2, 76, 50
2, 250320, Note_off_c, 2, 76, 0
2, 251040, Note_on_c, 2, 74, 50
2, 251280, Note_off_c, 2, 74, 0
2, 251280, Note_on_c, 2, 76, 50
2, 251520, Note_off_c, 2, 76, 0
2, 251520, Note_on_c, 2, 74, 50
2, 251760, Note_off_c, 2, 74, 0
2, 251760, Note_on_c, 2, 76, 50
2, 252000, Note_off_c, 2, 76, 0
2, 252000, Note_on_c, 2, 79, 50
2, 252960, Note_off_c, 2, 79, 0
2, 252960, Note_on_c, 2, 76, 50
2, 253200, Note_off_c, 2, 76, 0
2, 253200, Note_on_c, 2, 74, 50
2, 253440, Note_off_c, 2, 74, 0
2, 253440, Note_on_c, 2, 76, 50
2, 253560, Note_off_c, 2, 76, 0
2, 253560, Note_on_c, 2, 74, 50
2, 253680, Note_off_c, 2, 74, 0
2, 253680, Note_on_c, 2, 73, 50
2, 254160, Note_off_c, 2, 73, 0
2, 254880, Note_on_c, 2, 73, 50
2, 255120, Note_off_c, 2, 73, 0
2, 255120, Note_on_c, 2, 74, 50
2, 255360, Note_off_c, 2, 74, 0
2, 255360, Note_on_c, 2, 73, 50
2, 255600, Note_off_c, 2, 73, 0
2, 255600, Note_on_c, 2, 76, 50
2, 256560, Note_off_c, 2, 76, 0
2, 256560, Note_on_c, 2, 76, 50
2, 257280, Note_off_c, 2, 76, 0
2, 257280, Note_on_c, 2, 76, 50
2, 258000, Note_off_c, 2, 76, 0
2, 258720, Note_on_c, 2, 74, 50
2, 258960, Note_off_c, 2, 74, 0
2, 258960, Note_on_c, 2, 76, 50
2, 259200, Note_off_c, 2, 76, 0
2, 259200, Note_on_c, 2, 74, 50
2, 259440, Note_off_c, 2, 74, 0
2, 259440, Note_on_c, 2, 76, 50
2, 259680, Note_off_c, 2, 76, 0
2, 259680, Note_on_c, 2, 79, 50
2, 260640, Note_off_c, 2, 79, 0
2, 260640, Note_on_c, 2, 76, 50
2, 260880, Note_off_c, 2, 76, 0
2, 260880, Note_on_c, 2, 74, 50
2, 261120, Note_off_c, 2, 74, 0
2, 261120, Note_on_c, 2, 76, 50
2, 261240, Note_off_c, 2, 76, 0
2, 261240, Note_on_c, 2, 74, 50
2, 261360, Note_off_c, 2, 74, 0
2, 261360, Note_on_c, 2, 73, 50
2, 261840, Note_off_c, 2, 73, 0
2, 262560, Note_on_c, 2, 78, 50
2, 262800, Note_off_c, 2, 78, 0
2, 262800, Note_on_c, 2, 79, 50
2, 263040, Note_off_c, 2, 79, 0
2, 263040, Note_on_c, 2, 80, 50
2, 263280, Note_off_c, 2, 80, 0
2, 263280, Note_on_c, 2, 81, 50
2, 263520, Note_off_c, 2, 81, 0
2, 263520, Note_on_c, 2, 80, 50
2, 263760, Note_off_c, 2, 80, 0
2, 263760, Note_on_c, 2, 79, 50
2, 264000, Note_off_c, 2, 79, 0
2, 264000, Note_on_c, 2, 78, 50
2, 264240, Note_off_c, 2, 78, 0
2, 264480, Note_on_c, 2, 81, 50
2, 264720, Note_off_c, 2, 81, 0
2, 264720, Note_on_c, 2, 81, 50
2, 264960, Note_off_c, 2, 81, 0
2, 264960, Note_on_c, 2, 82, 50
2, 265200, Note_off_c, 2, 82, 0
2, 265200, Note_on_c, 2, 83, 50
2, 265440, Note_off_c, 2, 83, 0
2, 265440, Note_on_c, 2, 82, 50
2, 265680, Note_off_c, 2, 82, 0
2, 265680, Note_on_c, 2, 81, 50
2, 265920, Note_off_c, 2, 81, 0
2, 265920, Note_on_c, 2, 80, 50
2, 266160, Note_off_c, 2, 80, 0
2, 266400, Note_on_c, 2, 73, 50
2, 266640, Note_off_c, 2, 73, 0
2, 266640, Note_on_c, 2, 74, 50
2, 266880, Note_off_c, 2, 74, 0
2, 266880, Note_on_c, 2, 73, 50
2, 267120, Note_off_c, 2, 73, 0
2, 267120, Note_on_c, 2, 76, 50
2, 267360, Note_off_c, 2, 76, 0
2, 267360, Note_on_c, 2, 69, 50
2, 268080, Note_off_c, 2, 69, 0
2, 268080, Note_on_c, 2, 72, 50
2, 268320, Note_off_c, 2, 72, 0
2, 268320, Note_on_c, 2, 74, 50
2, 268800, Note_off_c, 2, 74, 0
2, 268800, Note_on_c, 2, 72, 50
2, 269520, Note_off_c, 2, 72, 0
2, 269760, Note_on_c, 2, 81, 50
2, 270480, Note_off_c, 2, 81, 0
2, 285600, Note_on_c, 2, 78, 50
2, 285840, Note_off_c, 2, 78, 0
2, 285840, Note_on_c, 2, 79, 50
2, 286080, Note_off_c, 2, 79, 0
2, 286080, Note_on_c, 2, 80, 50
2, 286320, Note_off_c, 2, 80, 0
2, 286320, Note_on_c, 2, 81, 50
2, 286560, Note_off_c, 2, 81, 0
2, 286560, Note_on_c, 2, 80, 50
2, 286800, Note_off_c, 2, 80, 0
2, 286800, Note_on_c, 2, 79, 50
2, 287040, Note_off_c, 2, 79, 0
2, 287040, Note_on_c, 2, 78, 50
2, 287280, Note_off_c, 2, 78, 0
2, 287520, Note_on_c, 2, 81, 50
2, 287760, Note_off_c, 2, 81, 0
2, 287760, Note_on_c, 2, 81, 50
2, 288000, Note_off_c, 2, 81, 0
2, 288000, Note_on_c, 2, 82, 50
2, 288240, Note_off_c, 2, 82, 0
2, 288240, Note_on_c, 2, 83, 50
2, 288480, Note_off_c, 2, 83, 0
2, 288480, Note_on_c, 2, 82, 50
2, 288720, Note_off_c, 2, 82, 0
2, 288720, Note_on_c, 2, 81, 50
2, 288960, Note_off_c, 2, 81, 0
2, 288960, Note_on_c, 2, 80, 50
2, 289200, Note_off_c, 2, 80, 0
2, 289440, Note_on_c, 2, 73, 50
2, 289680, Note_off_c, 2, 73, 0
2, 289680, Note_on_c, 2, 74, 50
2, 289920, Note_off_c, 2, 74, 0
2, 289920, Note_on_c, 2, 73, 50
2, 290160, Note_off_c, 2, 73, 0
2, 290160, Note_on_c, 2, 76, 50
2, 290400, Note_off_c, 2, 76, 0
2, 290400, Note_on_c, 2, 69, 50
2, 291120, Note_off_c, 2, 69, 0
2, 291120, Note_on_c, 2, 72, 50
2, 291360, Note_off_c, 2, 72, 0
2, 291360, Note_on_c, 2, 74, 50
2, 291840, Note_off_c, 2, 74, 0
2, 291840, Note_on_c, 2, 72, 50
2, 292560, Note_off_c, 2, 72, 0
2, 293040, Note_on_c, 2, 76, 50
2, 293280, Note_off_c, 2, 76, 0
2, 293280, Note_on_c, 2, 81, 50
2, 293760, Note_off_c, 2, 81, 0
2, 293760, Note_on_c, 2, 80, 50
2, 295440, Note_off_c, 2, 80, 0
2, 295920, Note_on_c, 2, 81, 50
2, 296160, Note_off_c, 2, 81, 0
2, 296160, Note_on_c, 2, 80, 50
2, 296400, Note_off_c, 2, 80, 0
2, 296400, Note_on_c, 2, 78, 50
2, 296640, Note_off_c, 2, 78, 0
2, 296640, Note_on_c, 2, 78, 50
2, 297120, Note_off_c, 2, 78, 0
2, 297120, Note_on_c, 2, 80, 50
2, 297360, Note_off_c, 2, 80, 0
2, 297360, Note_on_c, 2, 81, 50
2, 297600, Note_off_c, 2, 81, 0
2, 297600, Note_on_c, 2, 78, 50
2, 297840, Note_off_c, 2, 78, 0
2, 297840, Note_on_c, 2, 80, 50
2, 298560, Note_off_c, 2, 80, 0
2, 298560, Note_on_c, 2, 76, 50
2, 299280, Note_off_c, 2, 76, 0
2, 300720, Note_on_c, 2, 76, 50
2, 300960, Note_off_c, 2, 76, 0
2, 300960, Note_on_c, 2, 80, 50
2, 301440, Note_off_c, 2, 80, 0
2, 301440, Note_on_c, 2, 81, 50
2, 303120, Note_off_c, 2, 81, 0
2, 303600, Note_on_c, 2, 81, 50
2, 303840, Note_off_c, 2, 81, 0
2, 303840, Note_on_c, 2, 80, 50
2, 304080, Note_off_c, 2, 80, 0
2, 304080, Note_on_c, 2, 78, 50
2, 304320, Note_off_c, 2, 78, 0
2, 304320, Note_on_c, 2, 78, 50
2, 304800, Note_off_c, 2, 78, 0
2, 304800, Note_on_c, 2, 80, 50
2, 305040, Note_off_c, 2, 80, 0
2, 305040, Note_on_c, 2, 81, 50
2, 305520, Note_off_c, 2, 81, 0
2, 305520, Note_on_c, 2, 83, 50
2, 306480, Note_off_c, 2, 83, 0
2, 307200, Note_on_c, 2, 81, 50
2, 307440, Note_off_c, 2, 81, 0
2, 307440, Note_on_c, 2, 83, 50
2, 308160, Note_off_c, 2, 83, 0
2, 308160, Note_on_c, 2, 83, 50
2, 308640, Note_off_c, 2, 83, 0
2, 308640, Note_on_c, 2, 73, 50
2, 308880, Note_off_c, 2, 73, 0
2, 308880, Note_on_c, 2, 74, 50
2, 309120, Note_off_c, 2, 74, 0
2, 309120, Note_on_c, 2, 73, 50
2, 309360, Note_off_c, 2, 73, 0
2, 309360, Note_on_c, 2, 76, 50
2, 310320, Note_off_c, 2, 76, 0
2, 310320, Note_on_c, 2, 76, 50
2, 311040, Note_off_c, 2, 76, 0
2, 311040, Note_on_c, 2, 76, 50
2, 311760, Note_off_c, 2, 76, 0
2, 312480, Note_on_c, 2, 74, 50
2, 312720, Note_off_c, 2, 74, 0
2, 312720, Note_on_c, 2, 76, 50
2, 312960, Note_off_c, 2, 76, 0
2, 312960, Note_on_c, 2, 74, 50
2, 313200, Note_off_c, 2, 74, 0
2, 313200, Note_on_c, 2, 76, 50
2, 313440, Note_off_c, 2, 76, 0
2, 313440, Note_on_c, 2, 79, 50
2, 314400, Note_off_c, 2, 79, 0
2, 314400, Note_on_c, 2, 76, 50
2, 314640, Note_off_c, 2, 76, 0
2, 314640, Note_on_c, 2, 74, 50
2, 314880, Note_off_c, 2, 74, 0
2, 314880, Note_on_c, 2, 76, 50
2, 315000, Note_off_c, 2, 76, 0
2, 315000, Note_on_c, 2, 74, 50
2, 315120, Note_off_c, 2, 74, 0
2, 315120, Note_on_c, 2, 73, 50
2, 315600, Note_off_c, 2, 73, 0
2, 316320, Note_on_c, 2, 73, 50
2, 316560, Note_off_c, 2, 73, 0
2, 316560, Note_on_c, 2, 74, 50
2, 316800, Note_off_c, 2, 74, 0
2, 316800, Note_on_c, 2, 73, 50
2, 317040, Note_off_c, 2, 73, 0
2, 317040, Note_on_c, 2, 76, 50
2, 318000, Note_off_c, 2, 76, 0
2, 318000, Note_on_c, 2, 76, 50
2, 318720, Note_off_c, 2, 76, 0
2, 318720, Note_on_c, 2, 76, 50
2, 319440, Note_off_c, 2, 76, 0
2, 320160, Note_on_c, 2, 74, 50
2, 320400, Note_off_c, 2, 74, 0
2, 320400, Note_on_c, 2, 76, 50
2, 320640, Note_off_c, 2, 76, 0
2, 320640, Note_on_c, 2, 74, 50
2, 320880, Note_off_c, 2, 74, 0
2, 320880, Note_on_c, 2, 76, 50
2, 321120, Note_off_c, 2, 76, 0
2, 321120, Note_on_c, 2, 79, 50
2, 322080, Note_off_c, 2, 79, 0
2, 322080, Note_on_c, 2, 76, 50
2, 322560, Note_off_c, 2, 76, 0
2, 322560, Note_on_c, 2, 74, 50
2, 322800, Note_off_c, 2, 74, 0
2, 322800, Note_on_c, 2, 76, 50
2, 322920, Note_off_c, 2, 76, 0
2, 322920, Note_on_c, 2, 74, 50
2, 323040, Note_off_c, 2, 74, 0
2, 323040, Note_on_c, 2, 73, 50
2, 323280, Note_off_c, 2, 73, 0
2, 324000, Note_on_c, 2, 78, 50
2, 324240, Note_off_c, 2, 78, 0
2, 324240, Note_on_c, 2, 79, 50
2, 324480, Note_off_c, 2, 79, 0
2, 324480, Note_on_c, 2, 80, 50
2, 324720, Note_off_c, 2, 80, 0
2, 324720, Note_on_c, 2, 81, 50
2, 324960, Note_off_c, 2, 81, 0
2, 324960, Note_on_c, 2, 80, 50
2, 325200, Note_off_c, 2, 80, 0
2, 325200, Note_on_c, 2, 79, 50
2, 325440, Note_off_c, 2, 79, 0
2, 325440, Note_on_c, 2, 78, 50
2, 325680, Note_off_c, 2, 78, 0
2, 325920, Note_on_c, 2, 81, 50
2, 326160, Note_off_c, 2, 81, 0
2, 326160, Note_on_c, 2, 81, 50
2, 326400, Note_off_c, 2, 81, 0
2, 326400, Note_on_c, 2, 82, 50
2, 326640, Note_off_c, 2, 82, 0
2, 326640, Note_on_c, 2, 83, 50
2, 326880, Note_off_c, 2, 83, 0
2, 326880, Note_on_c, 2, 82, 50
2, 327120, Note_off_c, 2, 82, 0
2, 327120, Note_on_c, 2, 81, 50
2, 327360, Note_off_c, 2, 81, 0
2, 327360, Note_on_c, 2, 80, 50
2, 327600, Note_off_c, 2, 80, 0
2, 327840, Note_on_c, 2, 73, 50
2, 328080, Note_off_c, 2, 73, 0
2, 328080, Note_on_c, 2, 74, 50
2, 328320, Note_off_c, 2, 74, 0
2, 328320, Note_on_c, 2, 73, 50
2, 328560, Note_off_c, 2, 73, 0
2, 328560, Note_on_c, 2, 76, 50
2, 328800, Note_off_c, 2, 76, 0
2, 328800, Note_on_c, 2, 69, 50
2, 329520, Note_off_c, 2, 69, 0
2, 329520, Note_on_c, 2, 72, 50
2, 329760, Note_off_c, 2, 72, 0
2, 329760, Note_on_c, 2, 74, 50
2, 330240, Note_off_c, 2, 74, 0
2, 330240, Note_on_c, 2, 72, 50
2, 330960, Note_off_c, 2, 72, 0
2, 331680, Note_on_c, 2, 73, 50
2, 331920, Note_off_c, 2, 73, 0
2, 331920, Note_on_c, 2, 74, 50
2, 332160, Note_off_c, 2, 74, 0
2, 332160, Note_on_c, 2, 73, 50
2, 332400, Note_off_c, 2, 73, 0
2, 332400, Note_on_c, 2, 76, 50
2, 332640, Note_off_c, 2, 76, 0
2, 332640, Note_on_c, 2, 69, 50
2, 333360, Note_off_c, 2, 69, 0
2, 333360, Note_on_c, 2, 72, 50
2, 333600, Note_off_c, 2, 72, 0
2, 333600, Note_on_c, 2, 74, 50
2, 334080, Note_off_c, 2, 74, 0
2, 334080, Note_on_c, 2, 72, 50
2, 334800, Note_off_c, 2, 72, 0
2, 335520, Note_on_c, 2, 73, 50
2, 335760, Note_off_c, 2, 73, 0
2, 335760, Note_on_c, 2, 74, 50
2, 336000, Note_off_c, 2, 74, 0
2, 336000, Note_on_c, 2, 73, 50
2, 336240, Note_off_c, 2, 73, 0
2, 336240, Note_on_c, 2, 76, 50
2, 337200, Note_off_c, 2, 76, 0
2, 337200, Note_on_c, 2, 76, 50
2, 337920, Note_off_c, 2, 76, 0
2, 337920, Note_on_c, 2, 76, 50
2, 338640, Note_off_c, 2, 76, 0
2, 372240, Note_on_c, 2, 50, 50
2, 372480, Note_off_c, 2, 50, 0
2, 372480, Note_on_c, 2, 57, 50
2, 372720, Note_off_c, 2, 57, 0
2, 372720, Note_on_c, 2, 62, 50
2, 372960, Note_off_c, 2, 62, 0
2, 372960, Note_on_c, 2, 66, 50
2, 373200, Note_off_c, 2, 66, 0
2, 373200, Note_on_c, 2, 69, 50
2, 373440, Note_off_c, 2, 69, 0
2, 373440, Note_on_c, 2, 74, 50
2, 373680, Note_off_c, 2, 74, 0
2, 373680, Note_on_c, 2, 78, 50
2, 373920, Note_off_c, 2, 78, 0
2, 373920, Note_on_c, 2, 81, 50
2, 374160, Note_off_c, 2, 81, 0
2, 374160, Note_on_c, 2, 62, 50
2, 374400, Note_off_c, 2, 62, 0
2, 374400, Note_on_c, 2, 69, 50
2, 374640, Note_off_c, 2, 69, 0
2, 374640, Note_on_c, 2, 74, 50
2, 374880, Note_off_c, 2, 74, 0
2, 374880, Note_on_c, 2, 78, 50
2, 375120, Note_off_c, 2, 78, 0
2, 375120, Note_on_c, 2, 81, 50
2, 375360, Note_off_c, 2, 81, 0
2, 375360, Note_on_c, 2, 86, 50
2, 375600, Note_off_c, 2, 86, 0
2, 375600, Note_on_c, 2, 90, 50
2, 375840, Note_off_c, 2, 90, 0
2, 375840, Note_on_c, 2, 81, 50
2, 376080, Note_off_c, 2, 81, 0
2, 376080, Note_on_c, 2, 57, 50
2, 376320, Note_off_c, 2, 57, 0
2, 376320, Note_on_c, 2, 64, 50
2, 376560, Note_off_c, 2, 64, 0
2, 376560, Note_on_c, 2, 69, 50
2, 376800, Note_off_c, 2, 69, 0
2, 376800, Note_on_c, 2, 73, 50
2, 377040, Note_off_c, 2, 73, 0
2, 377040, Note_on_c, 2, 76, 50
2, 377280, Note_off_c, 2, 76, 0
2, 377280, Note_on_c, 2, 73, 50
2, 377520, Note_off_c, 2, 73, 0
2, 377520, Note_on_c, 2, 76, 50
2, 377760, Note_off_c, 2, 76, 0
2, 377760, Note_on_c, 2, 73, 50
2, 378000, Note_off_c, 2, 73, 0
2, 378000, Note_on_c, 2, 57, 50
2, 378120, Note_off_c, 2, 57, 0
2, 378120, Note_on_c, 2, 61, 50
2, 378240, Note_off_c, 2, 61, 0
2, 378240, Note_on_c, 2, 69, 50
2, 378360, Note_off_c, 2, 69, 0
2, 378360, Note_on_c, 2, 73, 50
2, 378480, Note_off_c, 2, 73, 0
2, 378480, Note_on_c, 2, 76, 50
2, 378600, Note_off_c, 2, 76, 0
2, 378600, Note_on_c, 2, 73, 50
2, 378720, Note_off_c, 2, 73, 0
2, 378720, Note_on_c, 2, 81, 50
2, 378840, Note_off_c, 2, 81, 0
2, 378840, Note_on_c, 2, 85, 50
2, 378960, Note_off_c, 2, 85, 0
2, 378960, Note_on_c, 2, 88, 50
2, 379920, Note_off_c, 2, 88, 0
2, 379920, Note_on_c, 2, 69, 50
2, 380160, Note_off_c, 2, 69, 0
2, 380160, Note_on_c, 2, 73, 50
2, 380400, Note_off_c, 2, 73, 0
2, 380400, Note_on_c, 2, 76, 50
2, 380640, Note_off_c, 2, 76, 0
2, 380640, Note_on_c, 2, 73, 50
2, 380880, Note_off_c, 2, 73, 0
2, 380880, Note_on_c, 2, 69, 50
2, 381120, Note_off_c, 2, 69, 0
2, 381120, Note_on_c, 2, 73, 50
2, 381360, Note_off_c, 2, 73, 0
2, 381360, Note_on_c, 2, 76, 50
2, 381600, Note_off_c, 2, 76, 0
2, 381600, Note_on_c, 2, 73, 50
2, 381840, Note_off_c, 2, 73, 0
2, 381840, Note_on_c, 2, 79, 50
2, 382080, Note_off_c, 2, 79, 0
2, 382080, Note_on_c, 2, 67, 50
2, 382320, Note_off_c, 2, 67, 0
2, 382320, Note_on_c, 2, 71, 50
2, 382560, Note_off_c, 2, 71, 0
2, 382560, Note_on_c, 2, 74, 50
2, 382800, Note_off_c, 2, 74, 0
2, 382800, Note_on_c, 2, 79, 50
2, 383040, Note_off_c, 2, 79, 0
2, 383040, Note_on_c, 2, 67, 50
2, 383280, Note_off_c, 2, 67, 0
2, 383280, Note_on_c, 2, 71, 50
2, 383520, Note_off_c, 2, 71, 0
2, 383520, Note_on_c, 2, 74, 50
2, 383760, Note_off_c, 2, 74, 0
2, 383760, Note_on_c, 2, 62, 50
2, 384000, Note_off_c, 2, 62, 0
2, 384000, Note_on_c, 2, 69, 50
2, 384240, Note_off_c, 2, 69, 0
2, 384240, Note_on_c, 2, 74, 50
2, 384480, Note_off_c, 2, 74, 0
2, 384480, Note_on_c, 2, 78, 50
2, 384720, Note_off_c, 2, 78, 0
2, 384720, Note_on_c, 2, 81, 50
2, 384960, Note_off_c, 2, 81, 0
2, 384960, Note_on_c, 2, 86, 50
2, 385200, Note_off_c, 2, 86, 0
2, 385200, Note_on_c, 2, 90, 50
2, 385680, Note_off_c, 2, 90, 0
2, 385680, Note_on_c, 2, 69, 50
2, 385920, Note_off_c, 2, 69, 0
2, 385920, Note_on_c, 2, 73, 50
2, 386160, Note_off_c, 2, 73, 0
2, 386160, Note_on_c, 2, 67, 50
2, 386400, Note_off_c, 2, 67, 0
2, 386400, Note_on_c, 2, 69, 50
2, 386640, Note_off_c, 2, 69, 0
2, 386640, Note_on_c, 2, 73, 50
2, 386880, Note_off_c, 2, 73, 0
2, 386880, Note_on_c, 2, 76, 50
2, 387120, Note_off_c, 2, 76, 0
2, 387120, Note_on_c, 2, 81, 50
2, 387360, Note_off_c, 2, 81, 0
2, 387360, Note_on_c, 2, 85, 50
2, 387600, Note_off_c, 2, 85, 0
2, 387600, Note_on_c, 2, 69, 50
2, 387840, Note_off_c, 2, 69, 0
2, 387840, Note_on_c, 2, 73, 50
2, 388080, Note_off_c, 2, 73, 0
2, 388080, Note_on_c, 2, 69, 50
2, 388320, Note_off_c, 2, 69, 0
2, 388320, Note_on_c, 2, 73, 50
2, 388560, Note_off_c, 2, 73, 0
2, 388560, Note_on_c, 2, 76, 50
2, 388800, Note_off_c, 2, 76, 0
2, 388800, Note_on_c, 2, 81, 50
2, 389040, Note_off_c, 2, 81, 0
2, 389040, Note_on_c, 2, 85, 50
2, 389520, Note_off_c, 2, 85, 0
2, 389520, Note_on_c, 2, 55, 50
2, 389760, Note_off_c, 2, 55, 0
2, 389760, Note_on_c, 2, 62, 50
2, 390000, Note_off_c, 2, 62, 0
2, 390000, Note_on_c, 2, 67, 50
2, 390240, Note_off_c, 2, 67, 0
2, 390240, Note_on_c, 2, 71, 50
2, 390480, Note_off_c, 2, 71, 0
2, 390480, Note_on_c, 2, 74, 50
2, 390720, Note_off_c, 2, 74, 0
2, 390720, Note_on_c, 2, 79, 50
2, 390960, Note_off_c, 2, 79, 0
2, 390960, Note_on_c, 2, 83, 50
2, 391440, Note_off_c, 2, 83, 0
2, 391440, Note_on_c, 2, 62, 50
2, 391680, Note_off_c, 2, 62, 0
2, 391680, Note_on_c, 2, 66, 50
2, 391920, Note_off_c, 2, 66, 0
2, 391920, Note_on_c, 2, 62, 50
2, 392160, Note_off_c, 2, 62, 0
2, 392160, Note_on_c, 2, 66, 50
2, 392400, Note_off_c, 2, 66, 0
2, 392400, Note_on_c, 2, 69, 50
2, 392640, Note_off_c, 2, 69, 0
2, 392640, Note_on_c, 2, 74, 50
2, 392880, Note_off_c, 2, 74, 0
2, 392880, Note_on_c, 2, 78, 50
2, 393360, Note_off_c, 2, 78, 0
2, 393360, Note_on_c, 2, 62, 50
2, 393600, Note_off_c, 2, 62, 0
2, 393600, Note_on_c, 2, 69, 50
2, 393840, Note_off_c, 2, 69, 0
2, 393840, Note_on_c, 2, 74, 50
2, 394080, Note_off_c, 2, 74, 0
2, 394080, Note_on_c, 2, 78, 50
2, 394320, Note_off_c, 2, 78, 0
2, 394320, Note_on_c, 2, 66, 50
2, 394560, Note_off_c, 2, 66, 0
2, 394560, Note_on_c, 2, 71, 50
2, 394800, Note_off_c, 2, 71, 0
2, 394800, Note_on_c, 2, 74, 50
2, 395040, Note_off_c, 2, 74, 0
2, 395040, Note_on_c, 2, 78, 50
2, 395280, Note_off_c, 2, 78, 0
2, 395280, Note_on_c, 2, 66, 50
2, 395520, Note_off_c, 2, 66, 0
2, 395520, Note_on_c, 2, 69, 50
2, 395760, Note_off_c, 2, 69, 0
2, 395760, Note_on_c, 2, 73, 50
2, 396000, Note_off_c, 2, 73, 0
2, 396000, Note_on_c, 2, 78, 50
2, 396240, Note_off_c, 2, 78, 0
2, 396240, Note_on_c, 2, 66, 50
2, 396480, Note_off_c, 2, 66, 0
2, 396480, Note_on_c, 2, 69, 50
2, 396720, Note_off_c, 2, 69, 0
2, 396720, Note_on_c, 2, 73, 50
2, 396960, Note_off_c, 2, 73, 0
2, 396960, Note_on_c, 2, 78, 50
2, 397200, Note_off_c, 2, 78, 0
2, 397200, Note_on_c, 2, 64, 50
2, 397440, Note_off_c, 2, 64, 0
2, 397440, Note_on_c, 2, 71, 50
2, 397680, Note_off_c, 2, 71, 0
2, 397680, Note_on_c, 2, 74, 50
2, 397920, Note_off_c, 2, 74, 0
2, 397920, Note_on_c, 2, 76, 50
2, 398160, Note_off_c, 2, 76, 0
2, 398160, Note_on_c, 2, 79, 50
2, 398400, Note_off_c, 2, 79, 0
2, 398400, Note_on_c, 2, 83, 50
2, 398640, Note_off_c, 2, 83, 0
2, 398640, Note_on_c, 2, 74, 50
2, 398880, Note_off_c, 2, 74, 0
2, 398880, Note_on_c, 2, 76, 50
2, 399120, Note_off_c, 2, 76, 0
2, 399120, Note_on_c, 2, 81, 50
2, 399360, Note_off_c, 2, 81, 0
2, 399360, Note_on_c, 2, 76, 50
2, 399600, Note_off_c, 2, 76, 0
2, 399600, Note_on_c, 2, 76, 50
2, 399840, Note_off_c, 2, 76, 0
2, 399840, Note_on_c, 2, 73, 50
2, 400080, Note_off_c, 2, 73, 0
2, 400080, Note_on_c, 2, 76, 50
2, 400320, Note_off_c, 2, 76, 0
2, 400320, Note_on_c, 2, 81, 50
2, 400560, Note_off_c, 2, 81, 0
2, 400560, Note_on_c, 2, 73, 50
2, 400800, Note_off_c, 2, 73, 0
2, 400800, Note_on_c, 2, 76, 50
2, 401040, Note_off_c, 2, 76, 0
2, 401040, Note_on_c, 2, 62, 50
2, 401280, Note_off_c, 2, 62, 0
2, 401280, Note_on_c, 2, 69, 50
2, 401520, Note_off_c, 2, 69, 0
2, 401520, Note_on_c, 2, 74, 50
2, 401760, Note_off_c, 2, 74, 0
2, 401760, Note_on_c, 2, 78, 50
2, 402000, Note_off_c, 2, 78, 0
2, 402000, Note_on_c, 2, 81, 50
2, 402240, Note_off_c, 2, 81, 0
2, 402240, Note_on_c, 2, 69, 50
2, 402480, Note_off_c, 2, 69, 0
2, 402480, Note_on_c, 2, 74, 50
2, 402720, Note_off_c, 2, 74, 0
2, 402720, Note_on_c, 2, 78, 50
2, 402960, Note_off_c, 2, 78, 0
2, 402960, Note_on_c, 2, 69, 50
2, 403200, Note_off_c, 2, 69, 0
2, 403200, Note_on_c, 2, 73, 50
2, 403440, Note_off_c, 2, 73, 0
2, 403440, Note_on_c, 2, 78, 50
2, 403680, Note_off_c, 2, 78, 0
2, 403680, Note_on_c, 2, 81, 50
2, 403920, Note_off_c, 2, 81, 0
2, 403920, Note_on_c, 2, 78, 50
2, 404160, Note_off_c, 2, 78, 0
2, 404160, Note_on_c, 2, 69, 50
2, 404400, Note_off_c, 2, 69, 0
2, 404400, Note_on_c, 2, 73, 50
2, 404640, Note_off_c, 2, 73, 0
2, 404640, Note_on_c, 2, 78, 50
2, 404880, Note_off_c, 2, 78, 0
2, 404880, Note_on_c, 2, 67, 50
2, 405120, Note_off_c, 2, 67, 0
2, 405120, Note_on_c, 2, 71, 50
2, 405360, Note_off_c, 2, 71, 0
2, 405360, Note_on_c, 2, 76, 50
2, 405600, Note_off_c, 2, 76, 0
2, 405600, Note_on_c, 2, 79, 50
2, 405840, Note_off_c, 2, 79, 0
2, 405840, Note_on_c, 2, 79, 50
2, 406080, Note_off_c, 2, 79, 0
2, 406080, Note_on_c, 2, 71, 50
2, 406320, Note_off_c, 2, 71, 0
2, 406320, Note_on_c, 2, 76, 50
2, 406560, Note_off_c, 2, 76, 0
2, 406560, Note_on_c, 2, 83, 50
2, 406800, Note_off_c, 2, 83, 0
2, 406800, Note_on_c, 2, 57, 50
2, 407040, Note_off_c, 2, 57, 0
2, 407040, Note_on_c, 2, 64, 50
2, 407280, Note_off_c, 2, 64, 0
2, 407280, Note_on_c, 2, 69, 50
2, 407520, Note_off_c, 2, 69, 0
2, 407520, Note_on_c, 2, 73, 50
2, 407760, Note_off_c, 2, 73, 0
2, 407760, Note_on_c, 2, 76, 50
2, 408000, Note_off_c, 2, 76, 0
2, 408000, Note_on_c, 2, 81, 50
2, 408240, Note_off_c, 2, 81, 0
2, 408240, Note_on_c, 2, 73, 50
2, 408480, Note_off_c, 2, 73, 0
2, 408480, Note_on_c, 2, 76, 50
2, 408720, Note_off_c, 2, 76, 0
2, 408720, Note_on_c, 2, 81, 50
2, 408960, Note_off_c, 2, 81, 0
2, 408960, Note_on_c, 2, 85, 50
2, 409200, Note_off_c, 2, 85, 0
2, 409200, Note_on_c, 2, 50, 50
2, 409440, Note_off_c, 2, 50, 0
2, 409440, Note_on_c, 2, 57, 50
2, 409680, Note_off_c, 2, 57, 0
2, 409680, Note_on_c, 2, 62, 50
2, 409920, Note_off_c, 2, 62, 0
2, 409920, Note_on_c, 2, 66, 50
2, 410160, Note_off_c, 2, 66, 0
2, 410160, Note_on_c, 2, 69, 50
2, 410400, Note_off_c, 2, 69, 0
2, 410400, Note_on_c, 2, 74, 50
2, 410640, Note_off_c, 2, 74, 0
2, 410640, Note_on_c, 2, 78, 50
2, 410880, Note_off_c, 2, 78, 0
2, 410880, Note_on_c, 2, 74, 50
2, 411120, Note_off_c, 2, 74, 0
2, 411120, Note_on_c, 2, 62, 50
2, 411360, Note_off_c, 2, 62, 0
2, 411360, Note_on_c, 2, 66, 50
2, 411600, Note_off_c, 2, 66, 0
2, 411600, Note_on_c, 2, 69, 50
2, 411840, Note_off_c, 2, 69, 0
2, 411840, Note_on_c, 2, 74, 50
2, 412080, Note_off_c, 2, 74, 0
2, 412080, Note_on_c, 2, 78, 50
2, 412320, Note_off_c, 2, 78, 0
2, 412320, Note_on_c, 2, 81, 50
2, 412560, Note_off_c, 2, 81, 0
2, 412560, Note_on_c, 2, 74, 50
2, 412800, Note_off_c, 2, 74, 0
2, 412800, Note_on_c, 2, 78, 50
2, 413040, Note_off_c, 2, 78, 0
2, 413040, Note_on_c, 2, 57, 50
2, 413280, Note_off_c, 2, 57, 0
2, 413280, Note_on_c, 2, 64, 50
2, 413520, Note_off_c, 2, 64, 0
2, 413520, Note_on_c, 2, 69, 50
2, 413760, Note_off_c, 2, 69, 0
2, 413760, Note_on_c, 2, 73, 50
2, 414000, Note_off_c, 2, 73, 0
2, 414000, Note_on_c, 2, 76, 50
2, 414240, Note_off_c, 2, 76, 0
2, 414240, Note_on_c, 2, 69, 50
2, 414480, Note_off_c, 2, 69, 0
2, 414480, Note_on_c, 2, 73, 50
2, 414720, Note_off_c, 2, 73, 0
2, 414720, Note_on_c, 2, 64, 50
2, 414960, Note_off_c, 2, 64, 0
2, 414960, Note_on_c, 2, 57, 50
2, 415200, Note_off_c, 2, 57, 0
2, 415200, Note_on_c, 2, 64, 50
2, 415440, Note_off_c, 2, 64, 0
2, 415440, Note_on_c, 2, 69, 50
2, 415680, Note_off_c, 2, 69, 0
2, 415680, Note_on_c, 2, 73, 50
2, 415920, Note_off_c, 2, 73, 0
2, 415920, Note_on_c, 2, 76, 50
2, 416160, Note_off_c, 2, 76, 0
2, 416160, Note_on_c, 2, 69, 50
2, 416400, Note_off_c, 2, 69, 0
2, 416400, Note_on_c, 2, 73, 50
2, 416640, Note_off_c, 2, 73, 0
2, 416640, Note_on_c, 2, 64, 50
2, 416880, Note_off_c, 2, 64, 0
2, 416880, Note_on_c, 2, 57, 50
2, 417120, Note_off_c, 2, 57, 0
2, 417120, Note_on_c, 2, 64, 50
2, 417360, Note_off_c, 2, 64, 0
2, 417360, Note_on_c, 2, 69, 50
2, 417600, Note_off_c, 2, 69, 0
2, 417600, Note_on_c, 2, 73, 50
2, 417840, Note_off_c, 2, 73, 0
2, 417840, Note_on_c, 2, 76, 50
2, 418080, Note_off_c, 2, 76, 0
2, 418080, Note_on_c, 2, 69, 50
2, 418320, Note_off_c, 2, 69, 0
2, 418320, Note_on_c, 2, 73, 50
2, 418560, Note_off_c, 2, 73, 0
2, 418560, Note_on_c, 2, 64, 50
2, 418800, Note_off_c, 2, 64, 0
2, 418800, Note_on_c, 2, 55, 50
2, 419040, Note_off_c, 2, 55, 0
2, 419040, Note_on_c, 2, 62, 50
2, 419280, Note_off_c, 2, 62, 0
2, 419280, Note_on_c, 2, 67, 50
2, 419520, Note_off_c, 2, 67, 0
2, 419520, Note_on_c, 2, 71, 50
2, 419760, Note_off_c, 2, 71, 0
2, 419760, Note_on_c, 2, 74, 50
2, 420000, Note_off_c, 2, 74, 0
2, 420000, Note_on_c, 2, 79, 50
2, 420240, Note_off_c, 2, 79, 0
2, 420240, Note_on_c, 2, 83, 50
2, 420720, Note_off_c, 2, 83, 0
2, 420720, Note_on_c, 2, 62, 50
2, 420960, Note_off_c, 2, 62, 0
2, 420960, Note_on_c, 2, 69, 50
2, 421200, Note_off_c, 2, 69, 0
2, 421200, Note_on_c, 2, 74, 50
2, 421440, Note_off_c, 2, 74, 0
2, 421440, Note_on_c, 2, 78, 50
2, 421680, Note_off_c, 2, 78, 0
2, 421680, Note_on_c, 2, 81, 50
2, 421920, Note_off_c, 2, 81, 0
2, 421920, Note_on_c, 2, 78, 50
2, 422160, Note_off_c, 2, 78, 0
2, 422160, Note_on_c, 2, 74, 50
2, 422400, Note_off_c, 2, 74, 0
2, 422400, Note_on_c, 2, 69, 50
2, 422640, Note_off_c, 2, 69, 0
2, 422640, Note_on_c, 2, 57, 50
2, 422880, Note_off_c, 2, 57, 0
2, 422880, Note_on_c, 2, 64, 50
2, 423120, Note_off_c, 2, 64, 0
2, 423120, Note_on_c, 2, 69, 50
2, 423360, Note_off_c, 2, 69, 0
2, 423360, Note_on_c, 2, 73, 50
2, 423600, Note_off_c, 2, 73, 0
2, 423600, Note_on_c, 2, 76, 50
2, 423840, Note_off_c, 2, 76, 0
2, 423840, Note_on_c, 2, 69, 50
2, 424080, Note_off_c, 2, 69, 0
2, 424080, Note_on_c, 2, 73, 50
2, 424320, Note_off_c, 2, 73, 0
2, 424320, Note_on_c, 2, 64, 50
2, 424560, Note_off_c, 2, 64, 0
2, 424560, Note_on_c, 2, 57, 50
2, 424800, Note_off_c, 2, 57, 0
2, 424800, Note_on_c, 2, 64, 50
2, 425040, Note_off_c, 2, 64, 0
2, 425040, Note_on_c, 2, 69, 50
2, 425280, Note_off_c, 2, 69, 0
2, 425280, Note_on_c, 2, 73, 50
2, 425520, Note_off_c, 2, 73, 0
2, 425520, Note_on_c, 2, 76, 50
2, 425760, Note_off_c, 2, 76, 0
2, 425760, Note_on_c, 2, 69, 50
2, 426000, Note_off_c, 2, 69, 0
2, 426000, Note_on_c, 2, 73, 50
2, 426240, Note_off_c, 2, 73, 0
2, 426240, Note_on_c, 2, 64, 50
2, 426480, Note_off_c, 2, 64, 0
2, 426480, Note_on_c, 2, 55, 50
2, 426720, Note_off_c, 2, 55, 0
2, 426720, Note_on_c, 2, 62, 50
2, 426960, Note_off_c, 2, 62, 0
2, 426960, Note_on_c, 2, 67, 50
2, 427200, Note_off_c, 2, 67, 0
2, 427200, Note_on_c, 2, 71, 50
2, 427440, Note_off_c, 2, 71, 0
2, 427440, Note_on_c, 2, 74, 50
2, 427680, Note_off_c, 2, 74, 0
2, 427680, Note_on_c, 2, 79, 50
2, 427920, Note_off_c, 2, 79, 0
2, 427920, Note_on_c, 2, 83, 50
2, 428160, Note_off_c, 2, 83, 0
2, 428160, Note_on_c, 2, 79, 50
2, 428400, Note_off_c, 2, 79, 0
2, 428400, Note_on_c, 2, 78, 50
2, 428640, Note_off_c, 2, 78, 0
2, 428640, Note_on_c, 2, 81, 50
2, 428880, Note_off_c, 2, 81, 0
2, 428880, Note_on_c, 2, 74, 50
2, 429120, Note_off_c, 2, 74, 0
2, 429120, Note_on_c, 2, 78, 50
2, 429360, Note_off_c, 2, 78, 0
2, 429360, Note_on_c, 2, 69, 50
2, 429600, Note_off_c, 2, 69, 0
2, 429600, Note_on_c, 2, 74, 50
2, 429840, Note_off_c, 2, 74, 0
2, 429840, Note_on_c, 2, 66, 50
2, 430080, Note_off_c, 2, 66, 0
2, 430080, Note_on_c, 2, 69, 50
2, 430320, Note_off_c, 2, 69, 0
2, 430320, Note_on_c, 2, 50, 50
2, 430560, Note_off_c, 2, 50, 0
2, 430560, Note_on_c, 2, 57, 50
2, 430800, Note_off_c, 2, 57, 0
2, 430800, Note_on_c, 2, 62, 50
2, 431040, Note_off_c, 2, 62, 0
2, 431040, Note_on_c, 2, 66, 50
2, 431280, Note_off_c, 2, 66, 0
2, 431280, Note_on_c, 2, 69, 50
2, 431520, Note_off_c, 2, 69, 0
2, 431520, Note_on_c, 2, 74, 50
2, 431760, Note_off_c, 2, 74, 0
2, 431760, Note_on_c, 2, 78, 50
2, 432000, Note_off_c, 2, 78, 0
2, 432000, Note_on_c, 2, 74, 50
2, 432240, Note_off_c, 2, 74, 0
2, 432240, Note_on_c, 2, 54, 50
2, 432480, Note_off_c, 2, 54, 0
2, 432480, Note_on_c, 2, 61, 50
2, 432720, Note_off_c, 2, 61, 0
2, 432720, Note_on_c, 2, 66, 50
2, 432960, Note_off_c, 2, 66, 0
2, 432960, Note_on_c, 2, 69, 50
2, 433200, Note_off_c, 2, 69, 0
2, 433200, Note_on_c, 2, 73, 50
2, 433440, Note_off_c, 2, 73, 0
2, 433440, Note_on_c, 2, 78, 50
2, 433680, Note_off_c, 2, 78, 0
2, 433680, Note_on_c, 2, 81, 50
2, 433920, Note_off_c, 2, 81, 0
2, 433920, Note_on_c, 2, 78, 50
2, 434160, Note_off_c, 2, 78, 0
2, 434160, Note_on_c, 2, 64, 50
2, 434400, Note_off_c, 2, 64, 0
2, 434400, Note_on_c, 2, 71, 50
2, 434640, Note_off_c, 2, 71, 0
2, 434640, Note_on_c, 2, 76, 50
2, 434880, Note_off_c, 2, 76, 0
2, 434880, Note_on_c, 2, 79, 50
2, 435120, Note_off_c, 2, 79, 0
2, 435120, Note_on_c, 2, 58, 50
2, 435360, Note_off_c, 2, 58, 0
2, 435360, Note_on_c, 2, 62, 50
2, 435600, Note_off_c, 2, 62, 0
2, 435600, Note_on_c, 2, 67, 50
2, 435840, Note_off_c, 2, 67, 0
2, 435840, Note_on_c, 2, 70, 50
2, 436080, Note_off_c, 2, 70, 0
2, 436080, Note_on_c, 2, 74, 50
2, 436320, Note_off_c, 2, 74, 0
2, 436320, Note_on_c, 2, 78, 50
2, 436560, Note_off_c, 2, 78, 0
2, 436560, Note_on_c, 2, 70, 50
2, 436800, Note_off_c, 2, 70, 0
2, 436800, Note_on_c, 2, 74, 50
2, 437040, Note_off_c, 2, 74, 0
2, 437040, Note_on_c, 2, 62, 50
2, 437280, Note_off_c, 2, 62, 0
2, 437280, Note_on_c, 2, 69, 50
2, 437520, Note_off_c, 2, 69, 0
2, 437520, Note_on_c, 2, 74, 50
2, 437760, Note_off_c, 2, 74, 0
2, 437760, Note_on_c, 2, 78, 50
2, 438000, Note_off_c, 2, 78, 0
2, 438000, Note_on_c, 2, 66, 50
2, 438240, Note_off_c, 2, 66, 0
2, 438240, Note_on_c, 2, 71, 50
2, 438480, Note_off_c, 2, 71, 0
2, 438480, Note_on_c, 2, 74, 50
2, 438720, Note_off_c, 2, 74, 0
2, 438720, Note_on_c, 2, 78, 50
2, 438960, Note_off_c, 2, 78, 0
2, 438960, Note_on_c, 2, 66, 50
2, 439200, Note_off_c, 2, 66, 0
2, 439200, Note_on_c, 2, 73, 50
2, 439440, Note_off_c, 2, 73, 0
2, 439440, Note_on_c, 2, 78, 50
2, 439680, Note_off_c, 2, 78, 0
2, 439680, Note_on_c, 2, 81, 50
2, 439920, Note_off_c, 2, 81, 0
2, 439920, Note_on_c, 2, 73, 50
2, 440160, Note_off_c, 2, 73, 0
2, 440160, Note_on_c, 2, 78, 50
2, 440400, Note_off_c, 2, 78, 0
2, 440400, Note_on_c, 2, 69, 50
2, 440640, Note_off_c, 2, 69, 0
2, 440640, Note_on_c, 2, 73, 50
2, 440880, Note_off_c, 2, 73, 0
2, 440880, Note_on_c, 2, 67, 50
2, 441120, Note_off_c, 2, 67, 0
2, 441120, Note_on_c, 2, 71, 50
2, 441360, Note_off_c, 2, 71, 0
2, 441360, Note_on_c, 2, 76, 50
2, 441600, Note_off_c, 2, 76, 0
2, 441600, Note_on_c, 2, 79, 50
2, 441840, Note_off_c, 2, 79, 0
2, 441840, Note_on_c, 2, 71, 50
2, 442080, Note_off_c, 2, 71, 0
2, 442080, Note_on_c, 2, 76, 50
2, 442320, Note_off_c, 2, 76, 0
2, 442320, Note_on_c, 2, 67, 50
2, 442560, Note_off_c, 2, 67, 0
2, 442560, Note_on_c, 2, 71, 50
2, 442800, Note_off_c, 2, 71, 0
2, 442800, Note_on_c, 2, 57, 50
2, 443040, Note_off_c, 2, 57, 0
2, 443040, Note_on_c, 2, 64, 50
2, 443280, Note_off_c, 2, 64, 0
2, 443280, Note_on_c, 2, 69, 50
2, 443520, Note_off_c, 2, 69, 0
2, 443520, Note_on_c, 2, 73, 50
2, 443760, Note_off_c, 2, 73, 0
2, 443760, Note_on_c, 2, 76, 50
2, 444000, Note_off_c, 2, 76, 0
2, 444000, Note_on_c, 2, 69, 50
2, 444240, Note_off_c, 2, 69, 0
2, 444240, Note_on_c, 2, 73, 50
2, 444480, Note_off_c, 2, 73, 0
2, 444480, Note_on_c, 2, 76, 50
2, 444720, Note_off_c, 2, 76, 0
2, 444720, Note_on_c, 2, 50, 50
2, 444960, Note_off_c, 2, 50, 0
2, 444960, Note_on_c, 2, 57, 50
2, 445200, Note_off_c, 2, 57, 0
2, 445200, Note_on_c, 2, 62, 50
2, 445440, Note_off_c, 2, 62, 0
2, 445440, Note_on_c, 2, 66, 50
2, 445680, Note_off_c, 2, 66, 0
2, 445680, Note_on_c, 2, 69, 50
2, 445920, Note_off_c, 2, 69, 0
2, 445920, Note_on_c, 2, 74, 50
2, 446160, Note_off_c, 2, 74, 0
2, 446160, Note_on_c, 2, 78, 50
2, 446400, Note_off_c, 2, 78, 0
2, 446400, Note_on_c, 2, 74, 50
2, 446640, Note_off_c, 2, 74, 0
2, 446640, Note_on_c, 2, 62, 50
2, 446880, Note_off_c, 2, 62, 0
2, 446880, Note_on_c, 2, 66, 50
2, 447120, Note_off_c, 2, 66, 0
2, 447120, Note_on_c, 2, 69, 50
2, 447360, Note_off_c, 2, 69, 0
2, 447360, Note_on_c, 2, 74, 50
2, 447600, Note_off_c, 2, 74, 0
2, 447600, Note_on_c, 2, 78, 50
2, 447840, Note_off_c, 2, 78, 0
2, 447840, Note_on_c, 2, 81, 50
2, 448080, Note_off_c, 2, 81, 0
2, 448080, Note_on_c, 2, 74, 50
2, 448320, Note_off_c, 2, 74, 0
2, 448320, Note_on_c, 2, 78, 50
2, 448560, Note_off_c, 2, 78, 0
2, 448560, Note_on_c, 2, 57, 50
2, 448800, Note_off_c, 2, 57, 0
2, 448800, Note_on_c, 2, 64, 50
2, 449040, Note_off_c, 2, 64, 0
2, 449040, Note_on_c, 2, 69, 50
2, 449280, Note_off_c, 2, 69, 0
2, 449280, Note_on_c, 2, 73, 50
2, 449520, Note_off_c, 2, 73, 0
2, 449520, Note_on_c, 2, 76, 50
2, 449760, Note_off_c, 2, 76, 0
2, 449760, Note_on_c, 2, 69, 50
2, 450000, Note_off_c, 2, 69, 0
2, 450000, Note_on_c, 2, 73, 50
2, 450240, Note_off_c, 2, 73, 0
2, 450240, Note_on_c, 2, 64, 50
2, 450480, Note_off_c, 2, 64, 0
2, 450480, Note_on_c, 2, 57, 50
2, 450720, Note_off_c, 2, 57, 0
2, 450720, Note_on_c, 2, 64, 50
2, 450960, Note_off_c, 2, 64, 0
2, 450960, Note_on_c, 2, 69, 50
2, 451200, Note_off_c, 2, 69, 0
2, 451200, Note_on_c, 2, 73, 50
2, 451440, Note_off_c, 2, 73, 0
2, 451440, Note_on_c, 2, 76, 50
2, 451680, Note_off_c, 2, 76, 0
2, 451680, Note_on_c, 2, 69, 50
2, 451920, Note_off_c, 2, 69, 0
2, 451920, Note_on_c, 2, 73, 50
2, 452160, Note_off_c, 2, 73, 0
2, 452160, Note_on_c, 2, 64, 50
2, 452400, Note_off_c, 2, 64, 0
2, 452400, Note_on_c, 2, 57, 50
2, 452640, Note_off_c, 2, 57, 0
2, 452640, Note_on_c, 2, 64, 50
2, 452880, Note_off_c, 2, 64, 0
2, 452880, Note_on_c, 2, 69, 50
2, 453120, Note_off_c, 2, 69, 0
2, 453120, Note_on_c, 2, 73, 50
2, 453360, Note_off_c, 2, 73, 0
2, 453360, Note_on_c, 2, 76, 50
2, 453600, Note_off_c, 2, 76, 0
2, 453600, Note_on_c, 2, 69, 50
2, 453840, Note_off_c, 2, 69, 0
2, 453840, Note_on_c, 2, 73, 50
2, 454080, Note_off_c, 2, 73, 0
2, 454080, Note_on_c, 2, 64, 50
2, 454320, Note_off_c, 2, 64, 0
2, 454320, Note_on_c, 2, 55, 50
2, 454560, Note_off_c, 2, 55, 0
2, 454560, Note_on_c, 2, 62, 50
2, 454800, Note_off_c, 2, 62, 0
2, 454800, Note_on_c, 2, 67, 50
2, 455040, Note_off_c, 2, 67, 0
2, 455040, Note_on_c, 2, 71, 50
2, 455280, Note_off_c, 2, 71, 0
2, 455280, Note_on_c, 2, 74, 50
2, 455520, Note_off_c, 2, 74, 0
2, 455520, Note_on_c, 2, 79, 50
2, 455760, Note_off_c, 2, 79, 0
2, 455760, Note_on_c, 2, 83, 50
2, 456240, Note_off_c, 2, 83, 0
2, 456240, Note_on_c, 2, 62, 50
2, 456480, Note_off_c, 2, 62, 0
2, 456480, Note_on_c, 2, 69, 50
2, 456720, Note_off_c, 2, 69, 0
2, 456720, Note_on_c, 2, 74, 50
2, 456960, Note_off_c, 2, 74, 0
2, 456960, Note_on_c, 2, 78, 50
2, 457200, Note_off_c, 2, 78, 0
2, 457200, Note_on_c, 2, 81, 50
2, 457440, Note_off_c, 2, 81, 0
2, 457440, Note_on_c, 2, 78, 50
2, 457680, Note_off_c, 2, 78, 0
2, 457680, Note_on_c, 2, 74, 50
2, 457920, Note_off_c, 2, 74, 0
2, 457920, Note_on_c, 2, 69, 50
2, 458160, Note_off_c, 2, 69, 0
2, 458160, Note_on_c, 2, 57, 50
2, 458400, Note_off_c, 2, 57, 0
2, 458400, Note_on_c, 2, 64, 50
2, 458640, Note_off_c, 2, 64, 0
2, 458640, Note_on_c, 2, 69, 50
2, 458880, Note_off_c, 2, 69, 0
2, 458880, Note_on_c, 2, 73, 50
2, 459120, Note_off_c, 2, 73, 0
2, 459120, Note_on_c, 2, 76, 50
2, 459360, Note_off_c, 2, 76, 0
2, 459360, Note_on_c, 2, 69, 50
2, 459600, Note_off_c, 2, 69, 0
2, 459600, Note_on_c, 2, 73, 50
2, 459840, Note_off_c, 2, 73, 0
2, 459840, Note_on_c, 2, 64, 50
2, 460080, Note_off_c, 2, 64, 0
2, 460080, Note_on_c, 2, 57, 50
2, 460320, Note_off_c, 2, 57, 0
2, 460320, Note_on_c, 2, 64, 50
2, 460560, Note_off_c, 2, 64, 0
2, 460560, Note_on_c, 2, 69, 50
2, 460800, Note_off_c, 2, 69, 0
2, 460800, Note_on_c, 2, 73, 50
2, 461040, Note_off_c, 2, 73, 0
2, 461040, Note_on_c, 2, 76, 50
2, 461280, Note_off_c, 2, 76, 0
2, 461280, Note_on_c, 2, 69, 50
2, 461520, Note_off_c, 2, 69, 0
2, 461520, Note_on_c, 2, 73, 50
2, 461760, Note_off_c, 2, 73, 0
2, 461760, Note_on_c, 2, 64, 50
2, 462000, Note_off_c, 2, 64, 0
2, 462000, Note_on_c, 2, 55, 50
2, 462240, Note_off_c, 2, 55, 0
2, 462240, Note_on_c, 2, 62, 50
2, 462480, Note_off_c, 2, 62, 0
2, 462480, Note_on_c, 2, 67, 50
2, 462720, Note_off_c, 2, 67, 0
2, 462720, Note_on_c, 2, 71, 50
2, 462960, Note_off_c, 2, 71, 0
2, 462960, Note_on_c, 2, 74, 50
2, 463200, Note_off_c, 2, 74, 0
2, 463200, Note_on_c, 2, 79, 50
2, 463440, Note_off_c, 2, 79, 0
2, 463440, Note_on_c, 2, 83, 50
2, 463680, Note_off_c, 2, 83, 0
2, 463680, Note_on_c, 2, 79, 50
2, 463920, Note_off_c, 2, 79, 0
2, 463920, Note_on_c, 2, 78, 50
2, 464160, Note_off_c, 2, 78, 0
2, 464160, Note_on_c, 2, 81, 50
2, 464400, Note_off_c, 2, 81, 0
2, 464400, Note_on_c, 2, 74, 50
2, 464640, Note_off_c, 2, 74, 0
2, 464640, Note_on_c, 2, 78, 50
2, 464880, Note_off_c, 2, 78, 0
2, 464880, Note_on_c, 2, 69, 50
2, 465120, Note_off_c, 2, 69, 0
2, 465120, Note_on_c, 2, 74, 50
2, 465360, Note_off_c, 2, 74, 0
2, 465360, Note_on_c, 2, 66, 50
2, 465600, Note_off_c, 2, 66, 0
2, 465600, Note_on_c, 2, 69, 50
2, 465840, Note_off_c, 2, 69, 0
2, 465840, Note_on_c, 2, 62, 50
2, 466080, Note_off_c, 2, 62, 0
2, 466080, Note_on_c, 2, 69, 50
2, 466320, Note_off_c, 2, 69, 0
2, 466320, Note_on_c, 2, 74, 50
2, 466560, Note_off_c, 2, 74, 0
2, 466560, Note_on_c, 2, 78, 50
2, 466800, Note_off_c, 2, 78, 0
2, 466800, Note_on_c, 2, 81, 50
2, 467040, Note_off_c, 2, 81, 0
2, 467040, Note_on_c, 2, 74, 50
2, 467280, Note_off_c, 2, 74, 0
2, 467280, Note_on_c, 2, 78, 50
2, 467520, Note_off_c, 2, 78, 0
2, 467520, Note_on_c, 2, 81, 50
2, 467760, Note_off_c, 2, 81, 0
2, 467760, Note_on_c, 2, 62, 50
2, 468000, Note_off_c, 2, 62, 0
2, 468000, Note_on_c, 2, 69, 50
2, 468240, Note_off_c, 2, 69, 0
2, 468240, Note_on_c, 2, 74, 50
2, 468480, Note_off_c, 2, 74, 0
2, 468480, Note_on_c, 2, 78, 50
2, 468720, Note_off_c, 2, 78, 0
2, 468720, Note_on_c, 2, 81, 50
2, 468960, Note_off_c, 2, 81, 0
2, 468960, Note_on_c, 2, 74, 50
2, 469200, Note_off_c, 2, 74, 0
2, 469200, Note_on_c, 2, 78, 50
2, 469440, Note_off_c, 2, 78, 0
2, 469440, Note_on_c, 2, 81, 50
2, 469680, Note_off_c, 2, 81, 0
2, 469680, Note_on_c, 2, 62, 50
2, 469920, Note_off_c, 2, 62, 0
2, 469920, Note_on_c, 2, 69, 50
2, 470160, Note_off_c, 2, 69, 0
2, 470160, Note_on_c, 2, 74, 50
2, 470400, Note_off_c, 2, 74, 0
2, 470400, Note_on_c, 2, 78, 50
2, 470640, Note_off_c, 2, 78, 0
2, 470640, Note_on_c, 2, 81, 50
2, 470880, Note_off_c, 2, 81, 0
2, 470880, Note_on_c, 2, 74, 50
2, 471120, Note_off_c, 2, 74, 0
2, 471120, Note_on_c, 2, 78, 50
2, 471360, Note_off_c, 2, 78, 0
2, 471360, Note_on_c, 2, 81, 50
2, 471600, Note_off_c, 2, 81, 0
2, 471600, Note_on_c, 2, 62, 50
2, 471840, Note_off_c, 2, 62, 0
2, 471840, Note_on_c, 2, 69, 50
2, 472080, Note_off_c, 2, 69, 0
2, 472080, Note_on_c, 2, 74, 50
2, 472320, Note_off_c, 2, 74, 0
2, 472320, Note_on_c, 2, 78, 50
2, 472560, Note_off_c, 2, 78, 0
2, 472560, Note_on_c, 2, 81, 50
2, 472800, Note_off_c, 2, 81, 0
2, 472800, Note_on_c, 2, 74, 50
2, 473040, Note_off_c, 2, 74, 0
2, 473040, Note_on_c, 2, 78, 50
2, 473280, Note_off_c, 2, 78, 0
2, 473280, Note_on_c, 2, 81, 50
2, 473520, Note_off_c, 2, 81, 0
2, 473520, Note_on_c, 2, 62, 50
2, 473760, Note_off_c, 2, 62, 0
2, 473760, Note_on_c, 2, 69, 50
2, 474000, Note_off_c, 2, 69, 0
2, 474000, Note_on_c, 2, 74, 50
2, 474240, Note_off_c, 2, 74, 0
2, 474240, Note_on_c, 2, 78, 50
2, 474480, Note_off_c, 2, 78, 0
2, 474480, Note_on_c, 2, 81, 50
2, 474720, Note_off_c, 2, 81, 0
2, 474720, Note_on_c, 2, 74, 50
2, 474960, Note_off_c, 2, 74, 0
2, 474960, Note_on_c, 2, 78, 50
2, 475200, Note_off_c, 2, 78, 0
2, 475200, Note_on_c, 2, 81, 50
2, 475440, Note_off_c, 2, 81, 0
2, 475440, Note_on_c, 2, 62, 50
2, 475680, Note_off_c, 2, 62, 0
2, 475680, Note_on_c, 2, 69, 50
2, 475920, Note_off_c, 2, 69, 0
2, 475920, Note_on_c, 2, 74, 50
2, 476160, Note_off_c, 2, 74, 0
2, 476160, Note_on_c, 2, 78, 50
2, 476400, Note_off_c, 2, 78, 0
2, 476400, Note_on_c, 2, 81, 50
2, 476640, Note_off_c, 2, 81, 0
2, 476640, Note_on_c, 2, 74, 50
2, 476880, Note_off_c, 2, 74, 0
2, 476880, Note_on_c, 2, 78, 50
2, 477120, Note_off_c, 2, 78, 0
2, 477120, Note_on_c, 2, 81, 50
2, 477360, Note_off_c, 2, 81, 0
2, 477360, Note_on_c, 2, 62, 50
2, 477600, Note_off_c, 2, 62, 0
2, 477600, Note_on_c, 2, 69, 50
2, 477840, Note_off_c, 2, 69, 0
2, 477840, Note_on_c, 2, 74, 50
2, 478080, Note_off_c, 2, 74, 0
2, 478080, Note_on_c, 2, 78, 50
2, 478320, Note_off_c, 2, 78, 0
2, 478320, Note_on_c, 2, 81, 50
2, 478560, Note_off_c, 2, 81, 0
2, 478560, Note_on_c, 2, 74, 50
2, 478800, Note_off_c, 2, 74, 0
2, 478800, Note_on_c, 2, 78, 50
2, 479040, Note_off_c, 2, 78, 0
2, 479040, Note_on_c, 2, 81, 50
2, 479280, Note_off_c, 2, 81, 0
2, 479280, Note_on_c, 2, 62, 50
2, 479520, Note_off_c, 2, 62, 0
2, 479520, Note_on_c, 2, 69, 50
2, 479760, Note_off_c, 2, 69, 0
2, 479760, Note_on_c, 2, 74, 50
2, 480000, Note_off_c, 2, 74, 0
2, 480000, Note_on_c, 2, 78, 50
2, 480240, Note_off_c, 2, 78, 0
2, 480240, Note_on_c, 2, 81, 50
2, 480480, Note_off_c, 2, 81, 0
2, 480480, Note_on_c, 2, 74, 50
2, 480720, Note_off_c, 2, 74, 0
2, 480720, Note_on_c, 2, 78, 50
2, 480960, Note_off_c, 2, 78, 0
2, 480960, Note_on_c, 2, 81, 50
2, 481200, Note_off_c, 2, 81, 0
2, 481200, Note_on_c, 2, 62, 50
2, 481440, Note_off_c, 2, 62, 0
2, 481440, Note_on_c, 2, 69, 50
2, 481680, Note_off_c, 2, 69, 0
2, 481680, Note_on_c, 2, 74, 50
2, 481920, Note_off_c, 2, 74, 0
2, 481920, Note_on_c, 2, 78, 50
2, 482160, Note_off_c, 2, 78, 0
2, 482160, Note_on_c, 2, 81, 50
2, 482400, Note_off_c, 2, 81, 0
2, 482400, Note_on_c, 2, 74, 50
2, 482640, Note_off_c, 2, 74, 0
2, 482640, Note_on_c, 2, 78, 50
2, 482880, Note_off_c, 2, 78, 0
2, 482880, Note_on_c, 2, 81, 50
2, 483120, Note_off_c, 2, 81, 0
2, 483120, Note_on_c, 2, 62, 50
2, 483360, Note_off_c, 2, 62, 0
2, 483360, Note_on_c, 2, 69, 50
2, 483600, Note_off_c, 2, 69, 0
2, 483600, Note_on_c, 2, 74, 50
2, 483840, Note_off_c, 2, 74, 0
2, 483840, Note_on_c, 2, 78, 50
2, 484080, Note_off_c, 2, 78, 0
2, 484080, Note_on_c, 2, 81, 50
2, 484320, Note_off_c, 2, 81, 0
2, 484320, Note_on_c, 2, 74, 50
2, 484560, Note_off_c, 2, 74, 0
2, 484560, Note_on_c, 2, 78, 50
2, 484800, Note_off_c, 2, 78, 0
2, 484800, Note_on_c, 2, 81, 50
2, 485040, Note_off_c, 2, 81, 0
2, 485040, Note_on_c, 2, 62, 50
2, 485280, Note_off_c, 2, 62, 0
2, 485280, Note_on_c, 2, 69, 50
2, 485520, Note_off_c, 2, 69, 0
2, 485520, Note_on_c, 2, 74, 50
2, 485760, Note_off_c, 2, 74, 0
2, 485760, Note_on_c, 2, 78, 50
2, 486000, Note_off_c, 2, 78, 0
2, 486000, Note_on_c, 2, 81, 50
2, 486240, Note_off_c, 2, 81, 0
2, 486240, Note_on_c, 2, 74, 50
2, 486480, Note_off_c, 2, 74, 0
2, 486480, Note_on_c, 2, 78, 50
2, 486720, Note_off_c, 2, 78, 0
2, 486720, Note_on_c, 2, 81, 50
2, 486960, Note_off_c, 2, 81, 0
2, 486960, Note_on_c, 2, 62, 50
2, 487200, Note_off_c, 2, 62, 0
2, 487200, Note_on_c, 2, 69, 50
2, 487440, Note_off_c, 2, 69, 0
2, 487440, Note_on_c, 2, 74, 50
2, 487680, Note_off_c, 2, 74, 0
2, 487680, Note_on_c, 2, 78, 50
2, 487920, Note_off_c, 2, 78, 0
2, 487920, Note_on_c, 2, 81, 50
2, 488160, Note_off_c, 2, 81, 0
2, 488160, Note_on_c, 2, 74, 50
2, 488400, Note_off_c, 2, 74, 0
2, 488400, Note_on_c, 2, 78, 50
2, 488640, Note_off_c, 2, 78, 0
2, 488640, Note_on_c, 2, 81, 50
2, 488880, Note_off_c, 2, 81, 0
2, 488880, Note_on_c, 2, 62, 50
2, 489120, Note_off_c, 2, 62, 0
2, 489120, Note_on_c, 2, 69, 50
2, 489360, Note_off_c, 2, 69, 0
2, 489360, Note_on_c, 2, 74, 50
2, 489600, Note_off_c, 2, 74, 0
2, 489600, Note_on_c, 2, 78, 50
2, 489840, Note_off_c, 2, 78, 0
2, 489840, Note_on_c, 2, 81, 50
2, 490080, Note_off_c, 2, 81, 0
2, 490080, Note_on_c, 2, 74, 50
2, 490320, Note_off_c, 2, 74, 0
2, 490320, Note_on_c, 2, 78, 50
2, 490560, Note_off_c, 2, 78, 0
2, 490560, Note_on_c, 2, 81, 50
2, 490800, Note_off_c, 2, 81, 0
2, 490800, Note_on_c, 2, 62, 50
2, 491040, Note_off_c, 2, 62, 0
2, 491040, Note_on_c, 2, 69, 50
2, 491280, Note_off_c, 2, 69, 0
2, 491280, Note_on_c, 2, 74, 50
2, 491520, Note_off_c, 2, 74, 0
2, 491520, Note_on_c, 2, 78, 50
2, 491760, Note_off_c, 2, 78, 0
2, 491760, Note_on_c, 2, 81, 50
2, 492000, Note_off_c, 2, 81, 0
2, 492000, Note_on_c, 2, 74, 50
2, 492240, Note_off_c, 2, 74, 0
2, 492240, Note_on_c, 2, 78, 50
2, 492480, Note_off_c, 2, 78, 0
2, 492480, Note_on_c, 2, 81, 50
2, 492720, Note_off_c, 2, 81, 0
2, 508560, Note_on_c, 2, 66, 50
2, 509040, Note_off_c, 2, 66, 0
2, 509040, Note_on_c, 2, 66, 50
2, 509280, Note_off_c, 2, 66, 0
2, 509280, Note_on_c, 2, 66, 50
2, 509760, Note_off_c, 2, 66, 0
2, 509760, Note_on_c, 2, 66, 50
2, 510000, Note_off_c, 2, 66, 0
2, 510000, Note_on_c, 2, 66, 50
2, 510240, Note_off_c, 2, 66, 0
2, 510240, Note_on_c, 2, 66, 50
2, 510480, Note_off_c, 2, 66, 0
2, 510480, Note_on_c, 2, 66, 50
2, 510960, Note_off_c, 2, 66, 0
2, 510960, Note_on_c, 2, 66, 50
2, 511200, Note_off_c, 2, 66, 0
2, 511200, Note_on_c, 2, 66, 50
2, 511680, Note_off_c, 2, 66, 0
2, 511680, Note_on_c, 2, 66, 50
2, 511920, Note_off_c, 2, 66, 0
2, 511920, Note_on_c, 2, 66, 50
2, 512160, Note_off_c, 2, 66, 0
2, 512160, Note_on_c, 2, 66, 50
2, 512400, Note_off_c, 2, 66, 0
2, 512400, Note_on_c, 2, 69, 50
2, 512880, Note_off_c, 2, 69, 0
2, 512880, Note_on_c, 2, 69, 50
2, 513120, Note_off_c, 2, 69, 0
2, 513120, Note_on_c, 2, 69, 50
2, 513600, Note_off_c, 2, 69, 0
2, 513600, Note_on_c, 2, 69, 50
2, 513840, Note_off_c, 2, 69, 0
2, 513840, Note_on_c, 2, 69, 50
2, 514080, Note_off_c, 2, 69, 0
2, 514080, Note_on_c, 2, 69, 50
2, 514320, Note_off_c, 2, 69, 0
2, 514320, Note_on_c, 2, 64, 50
2, 514800, Note_off_c, 2, 64, 0
2, 514800, Note_on_c, 2, 64, 50
2, 515040, Note_off_c, 2, 64, 0
2, 515040, Note_on_c, 2, 64, 50
2, 515520, Note_off_c, 2, 64, 0
2, 515520, Note_on_c, 2, 64, 50
2, 515760, Note_off_c, 2, 64, 0
2, 515760, Note_on_c, 2, 64, 50
2, 516000, Note_off_c, 2, 64, 0
2, 516000, Note_on_c, 2, 64, 50
2, 516240, Note_off_c, 2, 64, 0
2, 516240, Note_on_c, 2, 66, 50
2, 516480, Note_off_c, 2, 66, 0
2, 518640, Note_on_c, 2, 65, 50
2, 519120, Note_off_c, 2, 65, 0
2, 519120, Note_on_c, 2, 64, 50
2, 519360, Note_off_c, 2, 64, 0
2, 519360, Note_on_c, 2, 64, 50
2, 519600, Note_off_c, 2, 64, 0
2, 519600, Note_on_c, 2, 64, 50
2, 519840, Note_off_c, 2, 64, 0
2, 519840, Note_on_c, 2, 64, 50
2, 520080, Note_off_c, 2, 64, 0
2, 520080, Note_on_c, 2, 64, 50
2, 520560, Note_off_c, 2, 64, 0
2, 520560, Note_on_c, 2, 64, 50
2, 520800, Note_off_c, 2, 64, 0
2, 520800, Note_on_c, 2, 64, 50
2, 521280, Note_off_c, 2, 64, 0
2, 521280, Note_on_c, 2, 64, 50
2, 521520, Note_off_c, 2, 64, 0
2, 521520, Note_on_c, 2, 64, 50
2, 521760, Note_off_c, 2, 64, 0
2, 521760, Note_on_c, 2, 64, 50
2, 522000, Note_off_c, 2, 64, 0
2, 522000, Note_on_c, 2, 64, 50
2, 522480, Note_off_c, 2, 64, 0
2, 522480, Note_on_c, 2, 64, 50
2, 522720, Note_off_c, 2, 64, 0
2, 522720, Note_on_c, 2, 64, 50
2, 523200, Note_off_c, 2, 64, 0
2, 523200, Note_on_c, 2, 64, 50
2, 523440, Note_off_c, 2, 64, 0
2, 523440, Note_on_c, 2, 64, 50
2, 523680, Note_off_c, 2, 64, 0
2, 523680, Note_on_c, 2, 64, 50
2, 523920, Note_off_c, 2, 64, 0
2, 523920, Note_on_c, 2, 64, 50
2, 524400, Note_off_c, 2, 64, 0
2, 524400, Note_on_c, 2, 64, 50
2, 524640, Note_off_c, 2, 64, 0
2, 524640, Note_on_c, 2, 64, 50
2, 525120, Note_off_c, 2, 64, 0
2, 525120, Note_on_c, 2, 64, 50
2, 525360, Note_off_c, 2, 64, 0
2, 525360, Note_on_c, 2, 64, 50
2, 525600, Note_off_c, 2, 64, 0
2, 525600, Note_on_c, 2, 64, 50
2, 525840, Note_off_c, 2, 64, 0
2, 525840, Note_on_c, 2, 64, 50
2, 526320, Note_off_c, 2, 64, 0
2, 526320, Note_on_c, 2, 64, 50
2, 526560, Note_off_c, 2, 64, 0
2, 526560, Note_on_c, 2, 64, 50
2, 527040, Note_off_c, 2, 64, 0
2, 527040, Note_on_c, 2, 64, 50
2, 527280, Note_off_c, 2, 64, 0
2, 527280, Note_on_c, 2, 64, 50
2, 527520, Note_off_c, 2, 64, 0
2, 527520, Note_on_c, 2, 64, 50
2, 527760, Note_off_c, 2, 64, 0
2, 527760, Note_on_c, 2, 64, 50
2, 528240, Note_off_c, 2, 64, 0
2, 528240, Note_on_c, 2, 64, 50
2, 528480, Note_off_c, 2, 64, 0
2, 528480, Note_on_c, 2, 64, 50
2, 528960, Note_off_c, 2, 64, 0
2, 528960, Note_on_c, 2, 64, 50
2, 529200, Note_off_c, 2, 64, 0
2, 529200, Note_on_c, 2, 64, 50
2, 529440, Note_off_c, 2, 64, 0
2, 529440, Note_on_c, 2, 64, 50
2, 529680, Note_off_c, 2, 64, 0
2, 529680, Note_on_c, 2, 66, 50
2, 530160, Note_off_c, 2, 66, 0
2, 530160, Note_on_c, 2, 66, 50
2, 530400, Note_off_c, 2, 66, 0
2, 530400, Note_on_c, 2, 66, 50
2, 530880, Note_off_c, 2, 66, 0
2, 530880, Note_on_c, 2, 66, 50
2, 531120, Note_off_c, 2, 66, 0
2, 531120, Note_on_c, 2, 66, 50
2, 531360, Note_off_c, 2, 66, 0
2, 531360, Note_on_c, 2, 66, 50
2, 531600, Note_off_c, 2, 66, 0
2, 531600, Note_on_c, 2, 66, 50
2, 532080, Note_off_c, 2, 66, 0
2, 532080, Note_on_c, 2, 66, 50
2, 532320, Note_off_c, 2, 66, 0
2, 532320, Note_on_c, 2, 66, 50
2, 532800, Note_off_c, 2, 66, 0
2, 532800, Note_on_c, 2, 66, 50
2, 533040, Note_off_c, 2, 66, 0
2, 533040, Note_on_c, 2, 66, 50
2, 533280, Note_off_c, 2, 66, 0
2, 533280, Note_on_c, 2, 66, 50
2, 533520, Note_off_c, 2, 66, 0
2, 533520, Note_on_c, 2, 69, 50
2, 534000, Note_off_c, 2, 69, 0
2, 534000, Note_on_c, 2, 69, 50
2, 534240, Note_off_c, 2, 69, 0
2, 534240, Note_on_c, 2, 69, 50
2, 534720, Note_off_c, 2, 69, 0
2, 534720, Note_on_c, 2, 69, 50
2, 534960, Note_off_c, 2, 69, 0
2, 534960, Note_on_c, 2, 69, 50
2, 535200, Note_off_c, 2, 69, 0
2, 535200, Note_on_c, 2, 69, 50
2, 535440, Note_off_c, 2, 69, 0
2, 535440, Note_on_c, 2, 64, 50
2, 535920, Note_off_c, 2, 64, 0
2, 535920, Note_on_c, 2, 64, 50
2, 536160, Note_off_c, 2, 64, 0
2, 536160, Note_on_c, 2, 64, 50
2, 536640, Note_off_c, 2, 64, 0
2, 536640, Note_on_c, 2, 64, 50
2, 536880, Note_off_c, 2, 64, 0
2, 536880, Note_on_c, 2, 64, 50
2, 537120, Note_off_c, 2, 64, 0
2, 537120, Note_on_c, 2, 64, 50
2, 537360, Note_off_c, 2, 64, 0
2, 537360, Note_on_c, 2, 64, 50
2, 537840, Note_off_c, 2, 64, 0
2, 537840, Note_on_c, 2, 64, 50
2, 538080, Note_off_c, 2, 64, 0
2, 538080, Note_on_c, 2, 64, 50
2, 538560, Note_off_c, 2, 64, 0
2, 538560, Note_on_c, 2, 64, 50
2, 538800, Note_off_c, 2, 64, 0
2, 538800, Note_on_c, 2, 64, 50
2, 539040, Note_off_c, 2, 64, 0
2, 539040, Note_on_c, 2, 64, 50
2, 539280, Note_off_c, 2, 64, 0
2, 539280, Note_on_c, 2, 69, 50
2, 539760, Note_off_c, 2, 69, 0
2, 539760, Note_on_c, 2, 69, 50
2, 540000, Note_off_c, 2, 69, 0
2, 540000, Note_on_c, 2, 69, 50
2, 540480, Note_off_c, 2, 69, 0
2, 540480, Note_on_c, 2, 69, 50
2, 540720, Note_off_c, 2, 69, 0
2, 540720, Note_on_c, 2, 69, 50
2, 540960, Note_off_c, 2, 69, 0
2, 540960, Note_on_c, 2, 69, 50
2, 541200, Note_off_c, 2, 69, 0
2, 541200, Note_on_c, 2, 69, 50
2, 541680, Note_off_c, 2, 69, 0
2, 541680, Note_on_c, 2, 69, 50
2, 541920, Note_off_c, 2, 69, 0
2, 541920, Note_on_c, 2, 69, 50
2, 542400, Note_off_c, 2, 69, 0
2, 542400, Note_on_c, 2, 69, 50
2, 542640, Note_off_c, 2, 69, 0
2, 542640, Note_on_c, 2, 69, 50
2, 542880, Note_off_c, 2, 69, 0
2, 542880, Note_on_c, 2, 69, 50
2, 543120, Note_off_c, 2, 69, 0
2, 543120, Note_on_c, 2, 64, 50
2, 543600, Note_off_c, 2, 64, 0
2, 543600, Note_on_c, 2, 64, 50
2, 543840, Note_off_c, 2, 64, 0
2, 543840, Note_on_c, 2, 64, 50
2, 544320, Note_off_c, 2, 64, 0
2, 544320, Note_on_c, 2, 64, 50
2, 544560, Note_off_c, 2, 64, 0
2, 544560, Note_on_c, 2, 64, 50
2, 544800, Note_off_c, 2, 64, 0
2, 544800, Note_on_c, 2, 64, 50
2, 545040, Note_off_c, 2, 64, 0
2, 545040, Note_on_c, 2, 64, 50
2, 545520, Note_off_c, 2, 64, 0
2, 545520, Note_on_c, 2, 64, 50
2, 545760, Note_off_c, 2, 64, 0
2, 545760, Note_on_c, 2, 64, 50
2, 546240, Note_off_c, 2, 64, 0
2, 546240, Note_on_c, 2, 64, 50
2, 546480, Note_off_c, 2, 64, 0
2, 546480, Note_on_c, 2, 64, 50
2, 546720, Note_off_c, 2, 64, 0
2, 546720, Note_on_c, 2, 64, 50
2, 546960, Note_off_c, 2, 64, 0
2, 546960, Note_on_c, 2, 69, 50
2, 547440, Note_off_c, 2, 69, 0
2, 547440, Note_on_c, 2, 69, 50
2, 547680, Note_off_c, 2, 69, 0
2, 547680, Note_on_c, 2, 69, 50
2, 548160, Note_off_c, 2, 69, 0
2, 548160, Note_on_c, 2, 69, 50
2, 548400, Note_off_c, 2, 69, 0
2, 548400, Note_on_c, 2, 69, 50
2, 548640, Note_off_c, 2, 69, 0
2, 548640, Note_on_c, 2, 69, 50
2, 548880, Note_off_c, 2, 69, 0
2, 548880, Note_on_c, 2, 64, 50
2, 549360, Note_off_c, 2, 64, 0
2, 549360, Note_on_c, 2, 64, 50
2, 549600, Note_off_c, 2, 64, 0
2, 549600, Note_on_c, 2, 64, 50
2, 550080, Note_off_c, 2, 64, 0
2, 550080, Note_on_c, 2, 64, 50
2, 550320, Note_off_c, 2, 64, 0
2, 550320, Note_on_c, 2, 64, 50
2, 550560, Note_off_c, 2, 64, 0
2, 550560, Note_on_c, 2, 64, 50
2, 550800, Note_off_c, 2, 64, 0
2, 550800, Note_on_c, 2, 69, 50
2, 551280, Note_off_c, 2, 69, 0
2, 551280, Note_on_c, 2, 69, 50
2, 551520, Note_off_c, 2, 69, 0
2, 551520, Note_on_c, 2, 69, 50
2, 552000, Note_off_c, 2, 69, 0
2, 552000, Note_on_c, 2, 69, 50
2, 552240, Note_off_c, 2, 69, 0
2, 552240, Note_on_c, 2, 69, 50
2, 552480, Note_off_c, 2, 69, 0
2, 552480, Note_on_c, 2, 69, 50
2, 552720, Note_off_c, 2, 69, 0
2, 552720, Note_on_c, 2, 64, 50
2, 553200, Note_off_c, 2, 64, 0
2, 553200, Note_on_c, 2, 64, 50
2, 553440, Note_off_c, 2, 64, 0
2, 553440, Note_on_c, 2, 64, 50
2, 553920, Note_off_c, 2, 64, 0
2, 553920, Note_on_c, 2, 64, 50
2, 554160, Note_off_c, 2, 64, 0
2, 554160, Note_on_c, 2, 64, 50
2, 554400, Note_off_c, 2, 64, 0
2, 554400, Note_on_c, 2, 64, 50
2, 554640, Note_off_c, 2, 64, 0
2, 554640, Note_on_c, 2, 64, 50
2, 554880, Note_off_c, 2, 64, 0
2, 557040, Note_on_c, 2, 49, 50
2, 557520, Note_off_c, 2, 49, 0
2, 557520, Note_on_c, 2, 49, 50
2, 557760, Note_off_c, 2, 49, 0
2, 557760, Note_on_c, 2, 49, 50
2, 558000, Note_off_c, 2, 49, 0
2, 558000, Note_on_c, 2, 49, 50
2, 558240, Note_off_c, 2, 49, 0
2, 558240, Note_on_c, 2, 49, 50
2, 558480, Note_off_c, 2, 49, 0
2, 558480, Note_on_c, 2, 49, 50
2, 558960, Note_off_c, 2, 49, 0
2, 558960, Note_on_c, 2, 49, 50
2, 559200, Note_off_c, 2, 49, 0
2, 559200, Note_on_c, 2, 49, 50
2, 559680, Note_off_c, 2, 49, 0
2, 559680, Note_on_c, 2, 49, 50
2, 559920, Note_off_c, 2, 49, 0
2, 559920, Note_on_c, 2, 49, 50
2, 560160, Note_off_c, 2, 49, 0
2, 560160, Note_on_c, 2, 49, 50
2, 560400, Note_off_c, 2, 49, 0
2, 560400, Note_on_c, 2, 52, 50
2, 560880, Note_off_c, 2, 52, 0
2, 560880, Note_on_c, 2, 52, 50
2, 561120, Note_off_c, 2, 52, 0
2, 561120, Note_on_c, 2, 52, 50
2, 561600, Note_off_c, 2, 52, 0
2, 561600, Note_on_c, 2, 52, 50
2, 561840, Note_off_c, 2, 52, 0
2, 561840, Note_on_c, 2, 52, 50
2, 562080, Note_off_c, 2, 52, 0
2, 562080, Note_on_c, 2, 52, 50
2, 562320, Note_off_c, 2, 52, 0
2, 562320, Note_on_c, 2, 52, 50
2, 562800, Note_off_c, 2, 52, 0
2, 562800, Note_on_c, 2, 52, 50
2, 563040, Note_off_c, 2, 52, 0
2, 563040, Note_on_c, 2, 52, 50
2, 563520, Note_off_c, 2, 52, 0
2, 563520, Note_on_c, 2, 52, 50
2, 563760, Note_off_c, 2, 52, 0
2, 563760, Note_on_c, 2, 52, 50
2, 564000, Note_off_c, 2, 52, 0
2, 564000, Note_on_c, 2, 52, 50
2, 564240, Note_off_c, 2, 52, 0
2, 564240, Note_on_c, 2, 49, 50
2, 564720, Note_off_c, 2, 49, 0
2, 564720, Note_on_c, 2, 49, 50
2, 564960, Note_off_c, 2, 49, 0
2, 564960, Note_on_c, 2, 49, 50
2, 565440, Note_off_c, 2, 49, 0
2, 565440, Note_on_c, 2, 49, 50
2, 565680, Note_off_c, 2, 49, 0
2, 565680, Note_on_c, 2, 49, 50
2, 565920, Note_off_c, 2, 49, 0
2, 565920, Note_on_c, 2, 49, 50
2, 566160, Note_off_c, 2, 49, 0
2, 566160, Note_on_c, 2, 49, 50
2, 566640, Note_off_c, 2, 49, 0
2, 566640, Note_on_c, 2, 49, 50
2, 566880, Note_off_c, 2, 49, 0
2, 566880, Note_on_c, 2, 49, 50
2, 567360, Note_off_c, 2, 49, 0
2, 567360, Note_on_c, 2, 49, 50
2, 567600, Note_off_c, 2, 49, 0
2, 567600, Note_on_c, 2, 49, 50
2, 567840, Note_off_c, 2, 49, 0
2, 567840, Note_on_c, 2, 49, 50
2, 568080, Note_off_c, 2, 49, 0
2, 568080, Note_on_c, 2, 54, 50
2, 568560, Note_off_c, 2, 54, 0
2, 568560, Note_on_c, 2, 54, 50
2, 568800, Note_off_c, 2, 54, 0
2, 568800, Note_on_c, 2, 54, 50
2, 569280, Note_off_c, 2, 54, 0
2, 569280, Note_on_c, 2, 54, 50
2, 569520, Note_off_c, 2, 54, 0
2, 569520, Note_on_c, 2, 54, 50
2, 569760, Note_off_c, 2, 54, 0
2, 569760, Note_on_c, 2, 54, 50
2, 570000, Note_off_c, 2, 54, 0
2, 570000, Note_on_c, 2, 54, 50
2, 570480, Note_off_c, 2, 54, 0
2, 570480, Note_on_c, 2, 54, 50
2, 570720, Note_off_c, 2, 54, 0
2, 570720, Note_on_c, 2, 54, 50
2, 571200, Note_off_c, 2, 54, 0
2, 571200, Note_on_c, 2, 54, 50
2, 571440, Note_off_c, 2, 54, 0
2, 571440, Note_on_c, 2, 54, 50
2, 571680, Note_off_c, 2, 54, 0
2, 571680, Note_on_c, 2, 54, 50
2, 571920, Note_off_c, 2, 54, 0
2, 571920, Note_on_c, 2, 57, 50
2, 572400, Note_off_c, 2, 57, 0
2, 572400, Note_on_c, 2, 57, 50
2, 572640, Note_off_c, 2, 57, 0
2, 572640, Note_on_c, 2, 57, 50
2, 573120, Note_off_c, 2, 57, 0
2, 573120, Note_on_c, 2, 57, 50
2, 573360, Note_off_c, 2, 57, 0
2, 573360, Note_on_c, 2, 57, 50
2, 573600, Note_off_c, 2, 57, 0
2, 573600, Note_on_c, 2, 57, 50
2, 573840, Note_off_c, 2, 57, 0
2, 573840, Note_on_c, 2, 52, 50
2, 574320, Note_off_c, 2, 52, 0
2, 574320, Note_on_c, 2, 52, 50
2, 574560, Note_off_c, 2, 52, 0
2, 574560, Note_on_c, 2, 52, 50
2, 575040, Note_off_c, 2, 52, 0
2, 575040, Note_on_c, 2, 52, 50
2, 575280, Note_off_c, 2, 52, 0
2, 575280, Note_on_c, 2, 52, 50
2, 575520, Note_off_c, 2, 52, 0
2, 575520, Note_on_c, 2, 52, 50
2, 575760, Note_off_c, 2, 52, 0
2, 575760, Note_on_c, 2, 52, 50
2, 576240, Note_off_c, 2, 52, 0
2, 576240, Note_on_c, 2, 52, 50
2, 576480, Note_off_c, 2, 52, 0
2, 576480, Note_on_c, 2, 52, 50
2, 576960, Note_off_c, 2, 52, 0
2, 576960, Note_on_c, 2, 52, 50
2, 577200, Note_off_c, 2, 52, 0
2, 577200, Note_on_c, 2, 52, 50
2, 577440, Note_off_c, 2, 52, 0
2, 577440, Note_on_c, 2, 52, 50
2, 577680, Note_off_c, 2, 52, 0
2, 577680, Note_on_c, 2, 57, 50
2, 578160, Note_off_c, 2, 57, 0
2, 578160, Note_on_c, 2, 57, 50
2, 578400, Note_off_c, 2, 57, 0
2, 578400, Note_on_c, 2, 57, 50
2, 578880, Note_off_c, 2, 57, 0
2, 578880, Note_on_c, 2, 57, 50
2, 579120, Note_off_c, 2, 57, 0
2, 579120, Note_on_c, 2, 57, 50
2, 579360, Note_off_c, 2, 57, 0
2, 579360, Note_on_c, 2, 57, 50
2, 579600, Note_off_c, 2, 57, 0
2, 579600, Note_on_c, 2, 57, 50
2, 580080, Note_off_c, 2, 57, 0
2, 580080, Note_on_c, 2, 57, 50
2, 580320, Note_off_c, 2, 57, 0
2, 580320, Note_on_c, 2, 57, 50
2, 580800, Note_off_c, 2, 57, 0
2, 580800, Note_on_c, 2, 57, 50
2, 581040, Note_off_c, 2, 57, 0
2, 581040, Note_on_c, 2, 57, 50
2, 581280, Note_off_c, 2, 57, 0
2, 581280, Note_on_c, 2, 57, 50
2, 581520, Note_off_c, 2, 57, 0
2, 581520, Note_on_c, 2, 49, 50
2, 582000, Note_off_c, 2, 49, 0
2, 582000, Note_on_c, 2, 49, 50
2, 582240, Note_off_c, 2, 49, 0
2, 582240, Note_on_c, 2, 49, 50
2, 582720, Note_off_c, 2, 49, 0
2, 582720, Note_on_c, 2, 49, 50
2, 582960, Note_off_c, 2, 49, 0
2, 582960, Note_on_c, 2, 49, 50
2, 583200, Note_off_c, 2, 49, 0
2, 583200, Note_on_c, 2, 49, 50
2, 583440, Note_off_c, 2, 49, 0
2, 583440, Note_on_c, 2, 49, 50
2, 583920, Note_off_c, 2, 49, 0
2, 583920, Note_on_c, 2, 49, 50
2, 584160, Note_off_c, 2, 49, 0
2, 584160, Note_on_c, 2, 49, 50
2, 584640, Note_off_c, 2, 49, 0
2, 584640, Note_on_c, 2, 49, 50
2, 584880, Note_off_c, 2, 49, 0
2, 584880, Note_on_c, 2, 49, 50
2, 585120, Note_off_c, 2, 49, 0
2, 585120, Note_on_c, 2, 49, 50
2, 585360, Note_off_c, 2, 49, 0
2, 585360, Note_on_c, 2, 69, 50
2, 585840, Note_off_c, 2, 69, 0
2, 585840, Note_on_c, 2, 69, 50
2, 586080, Note_off_c, 2, 69, 0
2, 586080, Note_on_c, 2, 69, 50
2, 586560, Note_off_c, 2, 69, 0
2, 586560, Note_on_c, 2, 69, 50
2, 586800, Note_off_c, 2, 69, 0
2, 586800, Note_on_c, 2, 69, 50
2, 587040, Note_off_c, 2, 69, 0
2, 587040, Note_on_c, 2, 69, 50
2, 587280, Note_off_c, 2, 69, 0
2, 587280, Note_on_c, 2, 52, 50
2, 587760, Note_off_c, 2, 52, 0
2, 587760, Note_on_c, 2, 52, 50
2, 588000, Note_off_c, 2, 52, 0
2, 588000, Note_on_c, 2, 52, 50
2, 588480, Note_off_c, 2, 52, 0
2, 588480, Note_on_c, 2, 52, 50
2, 588720, Note_off_c, 2, 52, 0
2, 588720, Note_on_c, 2, 52, 50
2, 588960, Note_off_c, 2, 52, 0
2, 588960, Note_on_c, 2, 52, 50
2, 589200, Note_off_c, 2, 52, 0
2, 589200, Note_on_c, 2, 69, 50
2, 589680, Note_off_c, 2, 69, 0
2, 589680, Note_on_c, 2, 69, 50
2, 589920, Note_off_c, 2, 69, 0
2, 589920, Note_on_c, 2, 69, 50
2, 590400, Note_off_c, 2, 69, 0
2, 590400, Note_on_c, 2, 69, 50
2, 590640, Note_off_c, 2, 69, 0
2, 590640, Note_on_c, 2, 69, 50
2, 590880, Note_off_c, 2, 69, 0
2, 590880, Note_on_c, 2, 69, 50
2, 591120, Note_off_c, 2, 69, 0
2, 591120, Note_on_c, 2, 52, 50
2, 591600, Note_off_c, 2, 52, 0
2, 591600, Note_on_c, 2, 52, 50
2, 591840, Note_off_c, 2, 52, 0
2, 591840, Note_on_c, 2, 52, 50
2, 592320, Note_off_c, 2, 52, 0
2, 592320, Note_on_c, 2, 52, 50
2, 592560, Note_off_c, 2, 52, 0
2, 592560, Note_on_c, 2, 52, 50
2, 592800, Note_off_c, 2, 52, 0
2, 592800, Note_on_c, 2, 52, 50
2, 593040, Note_off_c, 2, 52, 0
2, 593040, Note_on_c, 2, 69, 50
2, 593520, Note_off_c, 2, 69, 0
2, 593520, Note_on_c, 2, 69, 50
2, 593760, Note_off_c, 2, 69, 0
2, 593760, Note_on_c, 2, 69, 50
2, 594240, Note_off_c, 2, 69, 0
2, 594240, Note_on_c, 2, 69, 50
2, 594480, Note_off_c, 2, 69, 0
2, 594480, Note_on_c, 2, 69, 50
2, 594720, Note_off_c, 2, 69, 0
2, 594720, Note_on_c, 2, 69, 50
2, 594960, Note_off_c, 2, 69, 0
2, 594960, Note_on_c, 2, 52, 50
2, 595440, Note_off_c, 2, 52, 0
2, 595440, Note_on_c, 2, 52, 50
2, 595680, Note_off_c, 2, 52, 0
2, 595680, Note_on_c, 2, 52, 50
2, 596160, Note_off_c, 2, 52, 0
2, 596160, Note_on_c, 2, 52, 50
2, 596400, Note_off_c, 2, 52, 0
2, 596400, Note_on_c, 2, 52, 50
2, 596640, Note_off_c, 2, 52, 0
2, 596640, Note_on_c, 2, 52, 50
2, 596880, Note_off_c, 2, 52, 0
2, 596880, Note_on_c, 2, 52, 50
2, 597360, Note_off_c, 2, 52, 0
2, 597360, Note_on_c, 2, 52, 50
2, 597600, Note_off_c, 2, 52, 0
2, 597600, Note_on_c, 2, 52, 50
2, 598080, Note_off_c, 2, 52, 0
2, 598080, Note_on_c, 2, 52, 50
2, 598320, Note_off_c, 2, 52, 0
2, 598320, Note_on_c, 2, 52, 50
2, 598560, Note_off_c, 2, 52, 0
2, 598560, Note_on_c, 2, 52, 50
2, 598800, Note_off_c, 2, 52, 0
2, 598800, Note_on_c, 2, 49, 50
2, 599280, Note_off_c, 2, 49, 0
2, 599280, Note_on_c, 2, 49, 50
2, 599520, Note_off_c, 2, 49, 0
2, 599520, Note_on_c, 2, 49, 50
2, 600000, Note_off_c, 2, 49, 0
2, 600000, Note_on_c, 2, 49, 50
2, 600240, Note_off_c, 2, 49, 0
2, 600240, Note_on_c, 2, 49, 50
2, 600480, Note_off_c, 2, 49, 0
2, 600480, Note_on_c, 2, 49, 50
2, 600720, Note_off_c, 2, 49, 0
2, 600720, Note_on_c, 2, 49, 50
2, 601200, Note_off_c, 2, 49, 0
2, 601200, Note_on_c, 2, 49, 50
2, 601440, Note_off_c, 2, 49, 0
2, 601440, Note_on_c, 2, 49, 50
2, 601920, Note_off_c, 2, 49, 0
2, 601920, Note_on_c, 2, 49, 50
2, 602160, Note_off_c, 2, 49, 0
2, 602160, Note_on_c, 2, 49, 50
2, 602400, Note_off_c, 2, 49, 0
2, 602400, Note_on_c, 2, 64, 50
2, 602640, Note_off_c, 2, 64, 0
2, 602640, Note_on_c, 2, 66, 50
2, 603120, Note_off_c, 2, 66, 0
2, 603120, Note_on_c, 2, 64, 50
2, 603360, Note_off_c, 2, 64, 0
2, 603360, Note_on_c, 2, 64, 50
2, 603840, Note_off_c, 2, 64, 0
2, 603840, Note_on_c, 2, 64, 50
2, 604080, Note_off_c, 2, 64, 0
2, 604080, Note_on_c, 2, 64, 50
2, 604320, Note_off_c, 2, 64, 0
2, 604320, Note_on_c, 2, 64, 50
2, 604560, Note_off_c, 2, 64, 0
2, 604560, Note_on_c, 2, 64, 50
2, 605040, Note_off_c, 2, 64, 0
2, 605040, Note_on_c, 2, 64, 50
2, 605280, Note_off_c, 2, 64, 0
2, 605280, Note_on_c, 2, 64, 50
2, 605760, Note_off_c, 2, 64, 0
2, 605760, Note_on_c, 2, 64, 50
2, 606000, Note_off_c, 2, 64, 0
2, 606000, Note_on_c, 2, 64, 50
2, 606240, Note_off_c, 2, 64, 0
2, 606240, Note_on_c, 2, 64, 50
2, 606480, Note_off_c, 2, 64, 0
2, 606480, Note_on_c, 2, 64, 50
2, 606960, Note_off_c, 2, 64, 0
2, 606960, Note_on_c, 2, 64, 50
2, 607200, Note_off_c, 2, 64, 0
2, 607200, Note_on_c, 2, 64, 50
2, 607680, Note_off_c, 2, 64, 0
2, 607680, Note_on_c, 2, 64, 50
2, 607920, Note_off_c, 2, 64, 0
2, 607920, Note_on_c, 2, 64, 50
2, 608160, Note_off_c, 2, 64, 0
2, 608160, Note_on_c, 2, 64, 50
2, 608400, Note_off_c, 2, 64, 0
2, 613680, Note_on_c, 2, 42, 50
2, 614160, Note_off_c, 2, 42, 0
2, 614160, Note_on_c, 2, 61, 50
2, 614640, Note_off_c, 2, 61, 0
2, 614640, Note_on_c, 2, 42, 50
2, 615120, Note_off_c, 2, 42, 0
2, 615120, Note_on_c, 2, 61, 50
2, 615600, Note_off_c, 2, 61, 0
2, 615600, Note_on_c, 2, 42, 50
2, 616080, Note_off_c, 2, 42, 0
2, 616080, Note_on_c, 2, 61, 50
2, 616560, Note_off_c, 2, 61, 0
2, 616560, Note_on_c, 2, 42, 50
2, 617040, Note_off_c, 2, 42, 0
2, 617040, Note_on_c, 2, 61, 50
2, 617520, Note_off_c, 2, 61, 0
2, 617520, Note_on_c, 2, 40, 50
2, 618000, Note_off_c, 2, 40, 0
2, 618000, Note_on_c, 2, 59, 50
2, 618480, Note_off_c, 2, 59, 0
2, 618480, Note_on_c, 2, 40, 50
2, 618960, Note_off_c, 2, 40, 0
2, 618960, Note_on_c, 2, 59, 50
2, 619440, Note_off_c, 2, 59, 0
2, 619440, Note_on_c, 2, 40, 50
2, 619920, Note_off_c, 2, 40, 0
2, 619920, Note_on_c, 2, 59, 50
2, 620400, Note_off_c, 2, 59, 0
2, 620400, Note_on_c, 2, 40, 50
2, 620880, Note_off_c, 2, 40, 0
2, 620880, Note_on_c, 2, 59, 50
2, 621360, Note_off_c, 2, 59, 0
2, 621360, Note_on_c, 2, 42, 50
2, 621840, Note_off_c, 2, 42, 0
2, 621840, Note_on_c, 2, 61, 50
2, 622320, Note_off_c, 2, 61, 0
2, 622320, Note_on_c, 2, 42, 50
2, 622800, Note_off_c, 2, 42, 0
2, 622800, Note_on_c, 2, 61, 50
2, 623280, Note_off_c, 2, 61, 0
2, 623280, Note_on_c, 2, 49, 50
2, 623760, Note_off_c, 2, 49, 0
2, 623760, Note_on_c, 2, 64, 50
2, 624240, Note_off_c, 2, 64, 0
2, 624240, Note_on_c, 2, 49, 50
2, 624720, Note_off_c, 2, 49, 0
2, 624720, Note_on_c, 2, 64, 50
2, 625200, Note_off_c, 2, 64, 0
2, 625200, Note_on_c, 2, 42, 50
2, 625680, Note_off_c, 2, 42, 0
2, 625680, Note_on_c, 2, 61, 50
2, 626160, Note_off_c, 2, 61, 0
2, 626160, Note_on_c, 2, 42, 50
2, 626640, Note_off_c, 2, 42, 0
2, 626640, Note_on_c, 2, 61, 50
2, 627120, Note_off_c, 2, 61, 0
2, 627120, Note_on_c, 2, 49, 50
2, 627600, Note_off_c, 2, 49, 0
2, 627600, Note_on_c, 2, 64, 50
2, 628080, Note_off_c, 2, 64, 0
2, 628080, Note_on_c, 2, 49, 50
2, 628560, Note_off_c, 2, 49, 0
2, 628560, Note_on_c, 2, 64, 50
2, 629040, Note_off_c, 2, 64, 0
2, 629040, Note_on_c, 2, 42, 50
2, 629520, Note_off_c, 2, 42, 0
2, 629520, Note_on_c, 2, 61, 50
2, 630000, Note_off_c, 2, 61, 0
2, 630000, Note_on_c, 2, 42, 50
2, 630480, Note_off_c, 2, 42, 0
2, 630480, Note_on_c, 2, 61, 50
2, 630960, Note_off_c, 2, 61, 0
2, 630960, Note_on_c, 2, 49, 50
2, 631440, Note_off_c, 2, 49, 0
2, 631440, Note_on_c, 2, 64, 50
2, 631920, Note_off_c, 2, 64, 0
2, 631920, Note_on_c, 2, 49, 50
2, 632400, Note_off_c, 2, 49, 0
2, 632400, Note_on_c, 2, 64, 50
2, 632880, Note_off_c, 2, 64, 0
2, 632880, Note_on_c, 2, 45, 50
2, 633360, Note_off_c, 2, 45, 0
2, 633360, Note_on_c, 2, 64, 50
2, 633840, Note_off_c, 2, 64, 0
2, 633840, Note_on_c, 2, 45, 50
2, 634320, Note_off_c, 2, 45, 0
2, 634320, Note_on_c, 2, 64, 50
2, 634800, Note_off_c, 2, 64, 0
2, 634800, Note_on_c, 2, 47, 50
2, 635280, Note_off_c, 2, 47, 0
2, 635280, Note_on_c, 2, 66, 50
2, 635760, Note_off_c, 2, 66, 0
2, 635760, Note_on_c, 2, 47, 50
2, 636720, Note_off_c, 2, 47, 0
2, 636720, Note_on_c, 2, 40, 50
2, 637200, Note_off_c, 2, 40, 0
2, 637200, Note_on_c, 2, 64, 50
2, 637680, Note_off_c, 2, 64, 0
2, 637680, Note_on_c, 2, 47, 50
2, 638160, Note_off_c, 2, 47, 0
2, 638160, Note_on_c, 2, 64, 50
2, 638640, Note_off_c, 2, 64, 0
2, 638640, Note_on_c, 2, 40, 50
2, 639120, Note_off_c, 2, 40, 0
2, 639120, Note_on_c, 2, 64, 50
2, 639600, Note_off_c, 2, 64, 0
2, 639600, Note_on_c, 2, 47, 50
2, 640080, Note_off_c, 2, 47, 0
2, 640080, Note_on_c, 2, 64, 50
2, 640560, Note_off_c, 2, 64, 0
2, 640560, Note_on_c, 2, 42, 50
2, 641040, Note_off_c, 2, 42, 0
2, 641040, Note_on_c, 2, 61, 50
2, 641520, Note_off_c, 2, 61, 0
2, 641520, Note_on_c, 2, 42, 50
2, 642000, Note_off_c, 2, 42, 0
2, 642000, Note_on_c, 2, 61, 50
2, 642480, Note_off_c, 2, 61, 0
2, 642480, Note_on_c, 2, 49, 50
2, 642960, Note_off_c, 2, 49, 0
2, 642960, Note_on_c, 2, 64, 50
2, 643440, Note_off_c, 2, 64, 0
2, 643440, Note_on_c, 2, 49, 50
2, 643920, Note_off_c, 2, 49, 0
2, 643920, Note_on_c, 2, 64, 50
2, 644400, Note_off_c, 2, 64, 0
2, 644400, Note_on_c, 2, 42, 50
2, 644880, Note_off_c, 2, 42, 0
2, 644880, Note_on_c, 2, 61, 50
2, 645360, Note_off_c, 2, 61, 0
2, 645360, Note_on_c, 2, 42, 50
2, 645840, Note_off_c, 2, 42, 0
2, 645840, Note_on_c, 2, 61, 50
2, 646320, Note_off_c, 2, 61, 0
2, 646320, Note_on_c, 2, 49, 50
2, 646800, Note_off_c, 2, 49, 0
2, 646800, Note_on_c, 2, 64, 50
2, 647280, Note_off_c, 2, 64, 0
2, 647280, Note_on_c, 2, 49, 50
2, 647760, Note_off_c, 2, 49, 0
2, 647760, Note_on_c, 2, 64, 50
2, 648240, Note_off_c, 2, 64, 0
2, 648240, Note_on_c, 2, 42, 50
2, 648720, Note_off_c, 2, 42, 0
2, 648720, Note_on_c, 2, 61, 50
2, 649200, Note_off_c, 2, 61, 0
2, 649200, Note_on_c, 2, 42, 50
2, 649680, Note_off_c, 2, 42, 0
2, 649680, Note_on_c, 2, 61, 50
2, 650160, Note_off_c, 2, 61, 0
2, 650160, Note_on_c, 2, 49, 50
2, 650640, Note_off_c, 2, 49, 0
2, 650640, Note_on_c, 2, 64, 50
2, 651120, Note_off_c, 2, 64, 0
2, 651120, Note_on_c, 2, 49, 50
2, 651600, Note_off_c, 2, 49, 0
2, 651600, Note_on_c, 2, 64, 50
2, 652080, Note_off_c, 2, 64, 0
2, 652080, Note_on_c, 2, 45, 50
2, 652560, Note_off_c, 2, 45, 0
2, 652560, Note_on_c, 2, 64, 50
2, 653040, Note_off_c, 2, 64, 0
2, 653040, Note_on_c, 2, 45, 50
2, 653520, Note_off_c, 2, 45, 0
2, 653520, Note_on_c, 2, 64, 50
2, 654000, Note_off_c, 2, 64, 0
2, 654000, Note_on_c, 2, 47, 50
2, 654480, Note_off_c, 2, 47, 0
2, 654480, Note_on_c, 2, 66, 50
2, 654960, Note_off_c, 2, 66, 0
2, 654960, Note_on_c, 2, 47, 50
2, 655920, Note_off_c, 2, 47, 0
2, 655920, Note_on_c, 2, 40, 50
2, 656400, Note_off_c, 2, 40, 0
2, 656400, Note_on_c, 2, 64, 50
2, 656880, Note_off_c, 2, 64, 0
2, 656880, Note_on_c, 2, 47, 50
2, 657360, Note_off_c, 2, 47, 0
2, 657360, Note_on_c, 2, 64, 50
2, 657840, Note_off_c, 2, 64, 0
2, 657840, Note_on_c, 2, 40, 50
2, 658320, Note_off_c, 2, 40, 0
2, 658320, Note_on_c, 2, 64, 50
2, 658800, Note_off_c, 2, 64, 0
2, 658800, Note_on_c, 2, 47, 50
2, 659280, Note_off_c, 2, 47, 0
2, 659280, Note_on_c, 2, 64, 50
2, 659760, Note_off_c, 2, 64, 0
2, 659760, Note_on_c, 2, 49, 50
2, 660240, Note_off_c, 2, 49, 0
2, 660240, Note_on_c, 2, 68, 50
2, 660720, Note_off_c, 2, 68, 0
2, 660720, Note_on_c, 2, 49, 50
2, 661200, Note_off_c, 2, 49, 0
2, 661200, Note_on_c, 2, 68, 50
2, 661680, Note_off_c, 2, 68, 0
2, 661680, Note_on_c, 2, 47, 50
2, 662160, Note_off_c, 2, 47, 0
2, 662160, Note_on_c, 2, 66, 50
2, 662640, Note_off_c, 2, 66, 0
2, 662640, Note_on_c, 2, 47, 50
2, 663120, Note_off_c, 2, 47, 0
2, 663120, Note_on_c, 2, 66, 50
2, 663600, Note_off_c, 2, 66, 0
2, 663600, Note_on_c, 2, 49, 50
2, 664080, Note_off_c, 2, 49, 0
2, 664080, Note_on_c, 2, 68, 50
2, 664560, Note_off_c, 2, 68, 0
2, 664560, Note_on_c, 2, 49, 50
2, 665040, Note_off_c, 2, 49, 0
2, 665040, Note_on_c, 2, 68, 50
2, 665520, Note_off_c, 2, 68, 0
2, 665520, Note_on_c, 2, 44, 50
2, 666000, Note_off_c, 2, 44, 0
2, 666000, Note_on_c, 2, 68, 50
2, 666480, Note_off_c, 2, 68, 0
2, 666480, Note_on_c, 2, 44, 50
2, 666960, Note_off_c, 2, 44, 0
2, 666960, Note_on_c, 2, 68, 50
2, 667440, Note_off_c, 2, 68, 0
2, 667440, Note_on_c, 2, 49, 50
2, 667920, Note_off_c, 2, 49, 0
2, 667920, Note_on_c, 2, 68, 50
2, 668400, Note_off_c, 2, 68, 0
2, 668400, Note_on_c, 2, 49, 50
2, 668880, Note_off_c, 2, 49, 0
2, 668880, Note_on_c, 2, 68, 50
2, 669360, Note_off_c, 2, 68, 0
2, 669360, Note_on_c, 2, 44, 50
2, 669840, Note_off_c, 2, 44, 0
2, 669840, Note_on_c, 2, 68, 50
2, 670320, Note_off_c, 2, 68, 0
2, 670320, Note_on_c, 2, 44, 50
2, 670800, Note_off_c, 2, 44, 0
2, 670800, Note_on_c, 2, 68, 50
2, 671280, Note_off_c, 2, 68, 0
2, 671280, Note_on_c, 2, 47, 50
2, 671760, Note_off_c, 2, 47, 0
2, 671760, Note_on_c, 2, 66, 50
2, 672240, Note_off_c, 2, 66, 0
2, 672240, Note_on_c, 2, 47, 50
2, 672720, Note_off_c, 2, 47, 0
2, 672720, Note_on_c, 2, 66, 50
2, 673200, Note_off_c, 2, 66, 0
2, 673200, Note_on_c, 2, 47, 50
2, 673680, Note_off_c, 2, 47, 0
2, 673680, Note_on_c, 2, 66, 50
2, 674160, Note_off_c, 2, 66, 0
2, 674160, Note_on_c, 2, 47, 50
2, 674640, Note_off_c, 2, 47, 0
2, 674640, Note_on_c, 2, 66, 50
2, 675120, Note_off_c, 2, 66, 0
2, 675120, Note_on_c, 2, 42, 50
2, 675600, Note_off_c, 2, 42, 0
2, 675600, Note_on_c, 2, 61, 50
2, 676080, Note_off_c, 2, 61, 0
2, 676080, Note_on_c, 2, 42, 50
2, 676560, Note_off_c, 2, 42, 0
2, 676560, Note_on_c, 2, 61, 50
2, 677040, Note_off_c, 2, 61, 0
2, 677040, Note_on_c, 2, 49, 50
2, 677520, Note_off_c, 2, 49, 0
2, 677520, Note_on_c, 2, 64, 50
2, 678000, Note_off_c, 2, 64, 0
2, 678000, Note_on_c, 2, 49, 50
2, 678480, Note_off_c, 2, 49, 0
2, 678480, Note_on_c, 2, 64, 50
2, 678960, Note_off_c, 2, 64, 0
2, 678960, Note_on_c, 2, 42, 50
2, 679440, Note_off_c, 2, 42, 0
2, 679440, Note_on_c, 2, 61, 50
2, 679920, Note_off_c, 2, 61, 0
2, 679920, Note_on_c, 2, 42, 50
2, 680400, Note_off_c, 2, 42, 0
2, 680400, Note_on_c, 2, 61, 50
2, 680880, Note_off_c, 2, 61, 0
2, 680880, Note_on_c, 2, 49, 50
2, 681360, Note_off_c, 2, 49, 0
2, 681360, Note_on_c, 2, 64, 50
2, 681840, Note_off_c, 2, 64, 0
2, 681840, Note_on_c, 2, 49, 50
2, 682320, Note_off_c, 2, 49, 0
2, 682320, Note_on_c, 2, 64, 50
2, 682800, Note_off_c, 2, 64, 0
2, 682800, Note_on_c, 2, 42, 50
2, 683280, Note_off_c, 2, 42, 0
2, 683280, Note_on_c, 2, 61, 50
2, 683760, Note_off_c, 2, 61, 0
2, 683760, Note_on_c, 2, 42, 50
2, 684240, Note_off_c, 2, 42, 0
2, 684240, Note_on_c, 2, 61, 50
2, 684720, Note_off_c, 2, 61, 0
2, 684720, Note_on_c, 2, 49, 50
2, 685200, Note_off_c, 2, 49, 0
2, 685200, Note_on_c, 2, 64, 50
2, 685680, Note_off_c, 2, 64, 0
2, 685680, Note_on_c, 2, 49, 50
2, 686160, Note_off_c, 2, 49, 0
2, 686160, Note_on_c, 2, 64, 50
2, 686640, Note_off_c, 2, 64, 0
2, 686640, Note_on_c, 2, 45, 50
2, 687120, Note_off_c, 2, 45, 0
2, 687120, Note_on_c, 2, 64, 50
2, 687600, Note_off_c, 2, 64, 0
2, 687600, Note_on_c, 2, 45, 50
2, 688080, Note_off_c, 2, 45, 0
2, 688080, Note_on_c, 2, 64, 50
2, 688560, Note_off_c, 2, 64, 0
2, 688560, Note_on_c, 2, 47, 50
2, 689040, Note_off_c, 2, 47, 0
2, 689040, Note_on_c, 2, 66, 50
2, 689520, Note_off_c, 2, 66, 0
2, 689520, Note_on_c, 2, 47, 50
2, 690480, Note_off_c, 2, 47, 0
2, 690480, Note_on_c, 2, 40, 50
2, 690960, Note_off_c, 2, 40, 0
2, 690960, Note_on_c, 2, 64, 50
2, 691440, Note_off_c, 2, 64, 0
2, 691440, Note_on_c, 2, 47, 50
2, 691920, Note_off_c, 2, 47, 0
2, 691920, Note_on_c, 2, 64, 50
2, 692400, Note_off_c, 2, 64, 0
2, 692400, Note_on_c, 2, 40, 50
2, 692880, Note_off_c, 2, 40, 0
2, 692880, Note_on_c, 2, 64, 50
2, 693360, Note_off_c, 2, 64, 0
2, 693360, Note_on_c, 2, 47, 50
2, 693840, Note_off_c, 2, 47, 0
2, 693840, Note_on_c, 2, 64, 50
2, 694320, Note_off_c, 2, 64, 0
2, 694320, Note_on_c, 2, 43, 50
2, 694800, Note_off_c, 2, 43, 0
2, 694800, Note_on_c, 2, 62, 50
2, 695280, Note_off_c, 2, 62, 0
2, 695280, Note_on_c, 2, 43, 50
2, 695760, Note_off_c, 2, 43, 0
2, 695760, Note_on_c, 2, 62, 50
2, 696240, Note_off_c, 2, 62, 0
2, 696240, Note_on_c, 2, 50, 50
2, 696720, Note_off_c, 2, 50, 0
2, 696720, Note_on_c, 2, 65, 50
2, 697200, Note_off_c, 2, 65, 0
2, 697200, Note_on_c, 2, 50, 50
2, 697680, Note_off_c, 2, 50, 0
2, 697680, Note_on_c, 2, 65, 50
2, 698160, Note_off_c, 2, 65, 0
2, 698160, Note_on_c, 2, 43, 50
2, 698640, Note_off_c, 2, 43, 0
2, 698640, Note_on_c, 2, 62, 50
2, 699120, Note_off_c, 2, 62, 0
2, 699120, Note_on_c, 2, 43, 50
2, 699600, Note_off_c, 2, 43, 0
2, 699600, Note_on_c, 2, 62, 50
2, 700080, Note_off_c, 2, 62, 0
2, 700080, Note_on_c, 2, 50, 50
2, 700560, Note_off_c, 2, 50, 0
2, 700560, Note_on_c, 2, 65, 50
2, 701040, Note_off_c, 2, 65, 0
2, 701040, Note_on_c, 2, 50, 50
2, 701520, Note_off_c, 2, 50, 0
2, 701520, Note_on_c, 2, 65, 50
2, 702000, Note_off_c, 2, 65, 0
2, 702000, Note_on_c, 2, 43, 50
2, 702480, Note_off_c, 2, 43, 0
2, 702480, Note_on_c, 2, 62, 50
2, 702960, Note_off_c, 2, 62, 0
2, 702960, Note_on_c, 2, 43, 50
2, 703440, Note_off_c, 2, 43, 0
2, 703440, Note_on_c, 2, 62, 50
2, 703920, Note_off_c, 2, 62, 0
2, 703920, Note_on_c, 2, 50, 50
2, 704400, Note_off_c, 2, 50, 0
2, 704400, Note_on_c, 2, 65, 50
2, 704880, Note_off_c, 2, 65, 0
2, 704880, Note_on_c, 2, 50, 50
2, 705360, Note_off_c, 2, 50, 0
2, 705360, Note_on_c, 2, 65, 50
2, 705840, Note_off_c, 2, 65, 0
2, 705840, Note_on_c, 2, 46, 50
2, 706320, Note_off_c, 2, 46, 0
2, 706320, Note_on_c, 2, 65, 50
2, 706800, Note_off_c, 2, 65, 0
2, 706800, Note_on_c, 2, 46, 50
2, 707280, Note_off_c, 2, 46, 0
2, 707280, Note_on_c, 2, 65, 50
2, 707760, Note_off_c, 2, 65, 0
2, 707760, Note_on_c, 2, 48, 50
2, 708240, Note_off_c, 2, 48, 0
2, 708240, Note_on_c, 2, 67, 50
2, 708720, Note_off_c, 2, 67, 0
2, 708720, Note_on_c, 2, 48, 50
2, 709680, Note_off_c, 2, 48, 0
2, 709680, Note_on_c, 2, 41, 50
2, 710160, Note_off_c, 2, 41, 0
2, 710160, Note_on_c, 2, 65, 50
2, 710640, Note_off_c, 2, 65, 0
2, 710640, Note_on_c, 2, 48, 50
2, 711120, Note_off_c, 2, 48, 0
2, 711120, Note_on_c, 2, 65, 50
2, 711600, Note_off_c, 2, 65, 0
2, 711600, Note_on_c, 2, 41, 50
2, 712080, Note_off_c, 2, 41, 0
2, 712080, Note_on_c, 2, 65, 50
2, 712560, Note_off_c, 2, 65, 0
2, 712560, Note_on_c, 2, 48, 50
2, 713040, Note_off_c, 2, 48, 0
2, 713040, Note_on_c, 2, 65, 50
2, 713520, Note_off_c, 2, 65, 0
2, 713520, Note_on_c, 2, 43, 50
2, 714000, Note_off_c, 2, 43, 0
2, 714000, Note_on_c, 2, 62, 50
2, 714480, Note_off_c, 2, 62, 0
2, 714480, Note_on_c, 2, 43, 50
2, 714960, Note_off_c, 2, 43, 0
2, 714960, Note_on_c, 2, 62, 50
2, 715440, Note_off_c, 2, 62, 0
2, 715440, Note_on_c, 2, 50, 50
2, 715920, Note_off_c, 2, 50, 0
2, 715920, Note_on_c, 2, 65, 50
2, 716400, Note_off_c, 2, 65, 0
2, 716400, Note_on_c, 2, 50, 50
2, 716880, Note_off_c, 2, 50, 0
2, 716880, Note_on_c, 2, 65, 50
2, 717360, Note_off_c, 2, 65, 0
2, 717360, Note_on_c, 2, 43, 50
2, 717840, Note_off_c, 2, 43, 0
2, 717840, Note_on_c, 2, 62, 50
2, 718320, Note_off_c, 2, 62, 0
2, 718320, Note_on_c, 2, 43, 50
2, 718800, Note_off_c, 2, 43, 0
2, 718800, Note_on_c, 2, 62, 50
2, 719280, Note_off_c, 2, 62, 0
2, 719280, Note_on_c, 2, 50, 50
2, 719760, Note_off_c, 2, 50, 0
2, 719760, Note_on_c, 2, 65, 50
2, 720240, Note_off_c, 2, 65, 0
2, 720240, Note_on_c, 2, 50, 50
2, 720720, Note_off_c, 2, 50, 0
2, 720720, Note_on_c, 2, 65, 50
2, 721200, Note_off_c, 2, 65, 0
2, 721200, Note_on_c, 2, 43, 50
2, 721680, Note_off_c, 2, 43, 0
2, 721680, Note_on_c, 2, 62, 50
2, 722160, Note_off_c, 2, 62, 0
2, 722160, Note_on_c, 2, 43, 50
2, 722640, Note_off_c, 2, 43, 0
2, 722640, Note_on_c, 2, 62, 50
2, 723120, Note_off_c, 2, 62, 0
2, 723120, Note_on_c, 2, 50, 50
2, 723600, Note_off_c, 2, 50, 0
2, 723600, Note_on_c, 2, 65, 50
2, 724080, Note_off_c, 2, 65, 0
2, 724080, Note_on_c, 2, 50, 50
2, 724560, Note_off_c, 2, 50, 0
2, 724560, Note_on_c, 2, 65, 50
2, 725040, Note_off_c, 2, 65, 0
2, 725040, Note_on_c, 2, 46, 50
2, 725520, Note_off_c, 2, 46, 0
2, 725520, Note_on_c, 2, 65, 50
2, 726000, Note_off_c, 2, 65, 0
2, 726000, Note_on_c, 2, 46, 50
2, 726480, Note_off_c, 2, 46, 0
2, 726480, Note_on_c, 2, 65, 50
2, 726960, Note_off_c, 2, 65, 0
2, 726960, Note_on_c, 2, 48, 50
2, 727440, Note_off_c, 2, 48, 0
2, 727440, Note_on_c, 2, 67, 50
2, 727920, Note_off_c, 2, 67, 0
2, 727920, Note_on_c, 2, 48, 50
2, 728880, Note_off_c, 2, 48, 0
2, 728880, Note_on_c, 2, 41, 50
2, 729360, Note_off_c, 2, 41, 0
2, 729360, Note_on_c, 2, 65, 50
2, 729840, Note_off_c, 2, 65, 0
2, 729840, Note_on_c, 2, 48, 50
2, 730320, Note_off_c, 2, 48, 0
2, 730320, Note_on_c, 2, 65, 50
2, 730800, Note_off_c, 2, 65, 0
2, 730800, Note_on_c, 2, 41, 50
2, 731280, Note_off_c, 2, 41, 0
2, 731280, Note_on_c, 2, 65, 50
2, 731760, Note_off_c, 2, 65, 0
2, 731760, Note_on_c, 2, 48, 50
2, 732240, Note_off_c, 2, 48, 0
2, 732240, Note_on_c, 2, 65, 50
2, 732720, Note_off_c, 2, 65, 0
2, 732720, Note_on_c, 2, 43, 50
2, 733200, Note_off_c, 2, 43, 0
2, 733200, Note_on_c, 2, 62, 50
2, 733680, Note_off_c, 2, 62, 0
2, 733680, Note_on_c, 2, 43, 50
2, 734160, Note_off_c, 2, 43, 0
2, 734160, Note_on_c, 2, 62, 50
2, 734640, Note_off_c, 2, 62, 0
2, 734640, Note_on_c, 2, 43, 50
2, 735120, Note_off_c, 2, 43, 0
2, 735120, Note_on_c, 2, 62, 50
2, 735600, Note_off_c, 2, 62, 0
2, 735600, Note_on_c, 2, 43, 50
2, 736080, Note_off_c, 2, 43, 0
2, 736080, Note_on_c, 2, 62, 50
2, 736560, Note_off_c, 2, 62, 0
2, 736560, Note_on_c, 2, 41, 50
2, 737040, Note_off_c, 2, 41, 0
2, 737040, Note_on_c, 2, 60, 50
2, 737520, Note_off_c, 2, 60, 0
2, 737520, Note_on_c, 2, 41, 50
2, 738000, Note_off_c, 2, 41, 0
2, 738000, Note_on_c, 2, 60, 50
2, 738480, Note_off_c, 2, 60, 0
2, 738480, Note_on_c, 2, 41, 50
2, 738960, Note_off_c, 2, 41, 0
2, 738960, Note_on_c, 2, 60, 50
2, 739440, Note_off_c, 2, 60, 0
2, 739440, Note_on_c, 2, 41, 50
2, 739920, Note_off_c, 2, 41, 0
2, 739920, Note_on_c, 2, 60, 50
2, 740400, Note_off_c, 2, 60, 0
2, 740400, Note_on_c, 2, 43, 50
2, 740880, Note_off_c, 2, 43, 0
2, 740880, Note_on_c, 2, 62, 50
2, 741360, Note_off_c, 2, 62, 0
2, 741360, Note_on_c, 2, 43, 50
2, 741840, Note_off_c, 2, 43, 0
2, 741840, Note_on_c, 2, 62, 50
2, 742320, Note_off_c, 2, 62, 0
2, 742320, Note_on_c, 2, 43, 50
2, 742800, Note_off_c, 2, 43, 0
2, 742800, Note_on_c, 2, 62, 50
2, 743280, Note_off_c, 2, 62, 0
2, 743280, Note_on_c, 2, 43, 50
2, 743760, Note_off_c, 2, 43, 0
2, 743760, Note_on_c, 2, 62, 50
2, 744240, Note_off_c, 2, 62, 0
2, 744240, Note_on_c, 2, 66, 50
2, 746160, Note_off_c, 2, 66, 0
2, 746160, Note_on_c, 2, 66, 50
2, 747120, Note_off_c, 2, 66, 0
2, 751920, Note_on_c, 2, 40, 50
2, 752160, Note_off_c, 2, 40, 0
2, 752160, Note_on_c, 2, 68, 50
2, 752400, Note_off_c, 2, 68, 0
2, 752400, Note_on_c, 2, 66, 50
2, 752640, Note_off_c, 2, 66, 0
2, 752640, Note_on_c, 2, 64, 50
2, 752880, Note_off_c, 2, 64, 0
2, 752880, Note_on_c, 2, 66, 50
2, 753120, Note_off_c, 2, 66, 0
2, 753120, Note_on_c, 2, 64, 50
2, 753360, Note_off_c, 2, 64, 0
2, 753360, Note_on_c, 2, 63, 50
2, 753600, Note_off_c, 2, 63, 0
2, 753600, Note_on_c, 2, 64, 50
2, 753840, Note_off_c, 2, 64, 0
2, 753840, Note_on_c, 2, 63, 50
2, 754560, Note_off_c, 2, 63, 0
2, 754560, Note_on_c, 2, 57, 50
2, 754800, Note_off_c, 2, 57, 0
2, 754800, Note_on_c, 2, 56, 50
2, 755280, Note_off_c, 2, 56, 0
2, 755280, Note_on_c, 2, 64, 50
2, 755520, Note_off_c, 2, 64, 0
2, 755520, Note_on_c, 2, 66, 50
2, 755760, Note_off_c, 2, 66, 0
2, 755760, Note_on_c, 2, 68, 50
2, 756000, Note_off_c, 2, 68, 0
2, 756240, Note_on_c, 2, 68, 50
2, 756960, Note_off_c, 2, 68, 0
2, 756960, Note_on_c, 2, 68, 50
2, 757080, Note_off_c, 2, 68, 0
2, 757080, Note_on_c, 2, 69, 50
2, 757200, Note_off_c, 2, 69, 0
2, 757200, Note_on_c, 2, 68, 50
2, 757680, Note_off_c, 2, 68, 0
2, 757680, Note_on_c, 2, 64, 50
2, 757920, Note_off_c, 2, 64, 0
2, 757920, Note_on_c, 2, 59, 50
2, 758160, Note_off_c, 2, 59, 0
2, 758160, Note_on_c, 2, 61, 50
2, 758400, Note_off_c, 2, 61, 0
2, 758400, Note_on_c, 2, 64, 50
2, 758640, Note_off_c, 2, 64, 0
2, 758640, Note_on_c, 2, 68, 50
2, 759120, Note_off_c, 2, 68, 0
2, 759120, Note_on_c, 2, 66, 50
2, 759240, Note_off_c, 2, 66, 0
2, 759240, Note_on_c, 2, 64, 50
2, 759360, Note_off_c, 2, 64, 0
2, 759360, Note_on_c, 2, 61, 50
2, 759600, Note_off_c, 2, 61, 0
2, 773280, Note_on_c, 2, 59, 50
2, 773520, Note_off_c, 2, 59, 0
2, 773520, Note_on_c, 2, 61, 50
2, 773760, Note_off_c, 2, 61, 0
2, 773760, Note_on_c, 2, 64, 50
2, 774000, Note_off_c, 2, 64, 0
2, 774000, Note_on_c, 2, 68, 50
2, 774480, Note_off_c, 2, 68, 0
2, 774480, Note_on_c, 2, 66, 50
2, 774600, Note_off_c, 2, 66, 0
2, 774600, Note_on_c, 2, 64, 50
2, 774720, Note_off_c, 2, 64, 0
2, 774720, Note_on_c, 2, 61, 50
2, 774960, Note_off_c, 2, 61, 0
2, 790320, Note_on_c, 2, 59, 50
2, 791040, Note_off_c, 2, 59, 0
2, 791040, Note_on_c, 2, 68, 50
2, 792000, Note_off_c, 2, 68, 0
2, 792000, Note_on_c, 2, 59, 50
2, 792240, Note_off_c, 2, 59, 0
2, 792240, Note_on_c, 2, 59, 50
2, 792960, Note_off_c, 2, 59, 0
2, 792960, Note_on_c, 2, 67, 50
2, 793920, Note_off_c, 2, 67, 0
2, 793920, Note_on_c, 2, 59, 50
2, 794160, Note_off_c, 2, 59, 0
2, 794160, Note_on_c, 2, 59, 50
2, 794880, Note_off_c, 2, 59, 0
2, 794880, Note_on_c, 2, 66, 50
2, 795840, Note_off_c, 2, 66, 0
2, 795840, Note_on_c, 2, 59, 50
2, 796080, Note_off_c, 2, 59, 0
2, 796080, Note_on_c, 2, 59, 50
2, 796800, Note_off_c, 2, 59, 0
2, 796800, Note_on_c, 2, 65, 50
2, 797760, Note_off_c, 2, 65, 0
2, 797760, Note_on_c, 2, 53, 50
2, 798000, Note_off_c, 2, 53, 0
2, 798000, Note_on_c, 2, 52, 50
2, 798480, Note_off_c, 2, 52, 0
2, 798480, Note_on_c, 2, 59, 50
2, 799200, Note_off_c, 2, 59, 0
2, 799200, Note_on_c, 2, 64, 50
2, 799920, Note_off_c, 2, 64, 0
2, 799920, Note_on_c, 2, 54, 50
2, 800400, Note_off_c, 2, 54, 0
2, 800400, Note_on_c, 2, 61, 50
2, 801120, Note_off_c, 2, 61, 0
2, 801120, Note_on_c, 2, 66, 50
2, 801840, Note_off_c, 2, 66, 0
2, 801840, Note_on_c, 2, 54, 50
2, 802320, Note_off_c, 2, 54, 0
2, 802320, Note_on_c, 2, 61, 50
2, 803040, Note_off_c, 2, 61, 0
2, 803040, Note_on_c, 2, 66, 50
2, 803760, Note_off_c, 2, 66, 0
2, 803760, Note_on_c, 2, 54, 50
2, 804240, Note_off_c, 2, 54, 0
2, 804240, Note_on_c, 2, 63, 50
2, 804960, Note_off_c, 2, 63, 0
2, 804960, Note_on_c, 2, 66, 50
2, 805680, Note_off_c, 2, 66, 0
2, 805680, Note_on_c, 2, 40, 50
2, 805920, Note_off_c, 2, 40, 0
2, 805920, Note_on_c, 2, 68, 50
2, 806160, Note_off_c, 2, 68, 0
2, 806160, Note_on_c, 2, 66, 50
2, 806400, Note_off_c, 2, 66, 0
2, 806400, Note_on_c, 2, 64, 50
2, 806640, Note_off_c, 2, 64, 0
2, 806640, Note_on_c, 2, 66, 50
2, 806880, Note_off_c, 2, 66, 0
2, 806880, Note_on_c, 2, 64, 50
2, 807120, Note_off_c, 2, 64, 0
2, 807120, Note_on_c, 2, 63, 50
2, 807360, Note_off_c, 2, 63, 0
2, 807360, Note_on_c, 2, 64, 50
2, 807600, Note_off_c, 2, 64, 0
2, 807600, Note_on_c, 2, 63, 50
2, 808320, Note_off_c, 2, 63, 0
2, 808320, Note_on_c, 2, 57, 50
2, 808560, Note_off_c, 2, 57, 0
2, 808560, Note_on_c, 2, 56, 50
2, 809040, Note_off_c, 2, 56, 0
2, 809040, Note_on_c, 2, 64, 50
2, 809280, Note_off_c, 2, 64, 0
2, 809280, Note_on_c, 2, 66, 50
2, 809520, Note_off_c, 2, 66, 0
2, 809520, Note_on_c, 2, 68, 50
2, 809760, Note_off_c, 2, 68, 0
2, 810000, Note_on_c, 2, 68, 50
2, 810840, Note_off_c, 2, 68, 0
2, 810840, Note_on_c, 2, 69, 50
2, 810960, Note_off_c, 2, 69, 0
2, 810960, Note_on_c, 2, 68, 50
2, 811440, Note_off_c, 2, 68, 0
2, 811440, Note_on_c, 2, 64, 50
2, 811680, Note_off_c, 2, 64, 0
2, 811680, Note_on_c, 2, 59, 50
2, 811920, Note_off_c, 2, 59, 0
2, 811920, Note_on_c, 2, 61, 50
2, 812160, Note_off_c, 2, 61, 0
2, 812160, Note_on_c, 2, 64, 50
2, 812400, Note_off_c, 2, 64, 0
2, 812400, Note_on_c, 2, 68, 50
2, 812880, Note_off_c, 2, 68, 0
2, 812880, Note_on_c, 2, 66, 50
2, 813000, Note_off_c, 2, 66, 0
2, 813000, Note_on_c, 2, 64, 50
2, 813120, Note_off_c, 2, 64, 0
2, 813120, Note_on_c, 2, 61, 50
2, 813360, Note_off_c, 2, 61, 0
2, 813360, Note_on_c, 2, 66, 50
2, 813600, Note_off_c, 2, 66, 0
2, 813600, Note_on_c, 2, 68, 50
2, 813840, Note_off_c, 2, 68, 0
2, 813840, Note_on_c, 2, 69, 50
2, 814320, Note_off_c, 2, 69, 0
2, 814320, Note_on_c, 2, 71, 50
2, 815280, Note_off_c, 2, 71, 0
2, 815280, Note_on_c, 2, 63, 50
2, 815520, Note_off_c, 2, 63, 0
2, 815520, Note_on_c, 2, 64, 50
2, 816480, Note_off_c, 2, 64, 0
2, 816480, Note_on_c, 2, 71, 50
2, 816720, Note_off_c, 2, 71, 0
2, 816720, Note_on_c, 2, 73, 50
2, 816960, Note_off_c, 2, 73, 0
2, 816960, Note_on_c, 2, 75, 50
2, 817200, Note_off_c, 2, 75, 0
2, 817200, Note_on_c, 2, 76, 50
2, 817440, Note_off_c, 2, 76, 0
2, 817680, Note_on_c, 2, 76, 50
2, 818520, Note_off_c, 2, 76, 0
2, 818520, Note_on_c, 2, 78, 50
2, 818640, Note_off_c, 2, 78, 0
2, 818640, Note_on_c, 2, 76, 50
2, 819120, Note_off_c, 2, 76, 0
2, 819120, Note_on_c, 2, 71, 50
2, 819360, Note_off_c, 2, 71, 0
2, 819360, Note_on_c, 2, 68, 50
2, 821040, Note_off_c, 2, 68, 0
2, 821040, Note_on_c, 2, 59, 50
2, 821760, Note_off_c, 2, 59, 0
2, 821760, Note_on_c, 2, 68, 50
2, 822720, Note_off_c, 2, 68, 0
2, 822720, Note_on_c, 2, 59, 50
2, 822960, Note_off_c, 2, 59, 0
2, 822960, Note_on_c, 2, 59, 50
2, 823680, Note_off_c, 2, 59, 0
2, 823680, Note_on_c, 2, 67, 50
2, 824640, Note_off_c, 2, 67, 0
2, 824640, Note_on_c, 2, 59, 50
2, 824880, Note_off_c, 2, 59, 0
2, 824880, Note_on_c, 2, 59, 50
2, 825600, Note_off_c, 2, 59, 0
2, 825600, Note_on_c, 2, 66, 50
2, 826560, Note_off_c, 2, 66, 0
2, 826560, Note_on_c, 2, 59, 50
2, 826800, Note_off_c, 2, 59, 0
2, 826800, Note_on_c, 2, 59, 50
2, 827520, Note_off_c, 2, 59, 0
2, 827520, Note_on_c, 2, 65, 50
2, 828480, Note_off_c, 2, 65, 0
2, 828480, Note_on_c, 2, 53, 50
2, 828720, Note_off_c, 2, 53, 0
2, 828720, Note_on_c, 2, 52, 50
2, 829200, Note_off_c, 2, 52, 0
2, 829200, Note_on_c, 2, 59, 50
2, 829920, Note_off_c, 2, 59, 0
2, 829920, Note_on_c, 2, 64, 50
2, 830640, Note_off_c, 2, 64, 0
2, 830640, Note_on_c, 2, 54, 50
2, 831120, Note_off_c, 2, 54, 0
2, 831120, Note_on_c, 2, 61, 50
2, 831840, Note_off_c, 2, 61, 0
2, 831840, Note_on_c, 2, 66, 50
2, 832560, Note_off_c, 2, 66, 0
2, 832560, Note_on_c, 2, 54, 50
2, 833040, Note_off_c, 2, 54, 0
2, 833040, Note_on_c, 2, 61, 50
2, 833760, Note_off_c, 2, 61, 0
2, 833760, Note_on_c, 2, 66, 50
2, 834480, Note_off_c, 2, 66, 0
2, 834480, Note_on_c, 2, 54, 50
2, 834960, Note_off_c, 2, 54, 0
2, 834960, Note_on_c, 2, 63, 50
2, 835680, Note_off_c, 2, 63, 0
2, 835680, Note_on_c, 2, 66, 50
2, 836400, Note_off_c, 2, 66, 0
2, 851760, Note_on_c, 2, 40, 50
2, 852000, Note_off_c, 2, 40, 0
2, 852000, Note_on_c, 2, 68, 50
2, 852240, Note_off_c, 2, 68, 0
2, 852240, Note_on_c, 2, 66, 50
2, 852480, Note_off_c, 2, 66, 0
2, 852480, Note_on_c, 2, 64, 50
2, 852720, Note_off_c, 2, 64, 0
2, 852720, Note_on_c, 2, 66, 50
2, 852960, Note_off_c, 2, 66, 0
2, 852960, Note_on_c, 2, 64, 50
2, 853200, Note_off_c, 2, 64, 0
2, 853200, Note_on_c, 2, 63, 50
2, 853440, Note_off_c, 2, 63, 0
2, 853440, Note_on_c, 2, 64, 50
2, 853680, Note_off_c, 2, 64, 0
2, 853680, Note_on_c, 2, 63, 50
2, 854400, Note_off_c, 2, 63, 0
2, 854400, Note_on_c, 2, 57, 50
2, 854640, Note_off_c, 2, 57, 0
2, 854640, Note_on_c, 2, 56, 50
2, 855120, Note_off_c, 2, 56, 0
2, 855120, Note_on_c, 2, 64, 50
2, 855360, Note_off_c, 2, 64, 0
2, 855360, Note_on_c, 2, 66, 50
2, 855600, Note_off_c, 2, 66, 0
2, 855600, Note_on_c, 2, 68, 50
2, 855840, Note_off_c, 2, 68, 0
2, 856080, Note_on_c, 2, 68, 50
2, 856920, Note_off_c, 2, 68, 0
2, 856920, Note_on_c, 2, 69, 50
2, 857040, Note_off_c, 2, 69, 0
2, 857040, Note_on_c, 2, 68, 50
2, 857520, Note_off_c, 2, 68, 0
2, 857520, Note_on_c, 2, 64, 50
2, 857760, Note_off_c, 2, 64, 0
2, 857760, Note_on_c, 2, 59, 50
2, 858000, Note_off_c, 2, 59, 0
2, 858000, Note_on_c, 2, 61, 50
2, 858240, Note_off_c, 2, 61, 0
2, 858240, Note_on_c, 2, 64, 50
2, 858480, Note_off_c, 2, 64, 0
2, 858480, Note_on_c, 2, 68, 50
2, 858960, Note_off_c, 2, 68, 0
2, 858960, Note_on_c, 2, 66, 50
2, 859080, Note_off_c, 2, 66, 0
2, 859080, Note_on_c, 2, 64, 50
2, 859200, Note_off_c, 2, 64, 0
2, 859200, Note_on_c, 2, 61, 50
2, 859440, Note_off_c, 2, 61, 0
2, 859440, Note_on_c, 2, 66, 50
2, 859680, Note_off_c, 2, 66, 0
2, 859680, Note_on_c, 2, 68, 50
2, 859920, Note_off_c, 2, 68, 0
2, 859920, Note_on_c, 2, 69, 50
2, 860400, Note_off_c, 2, 69, 0
2, 860400, Note_on_c, 2, 71, 50
2, 861360, Note_off_c, 2, 71, 0
2, 861360, Note_on_c, 2, 63, 50
2, 861600, Note_off_c, 2, 63, 0
2, 861600, Note_on_c, 2, 64, 50
2, 862560, Note_off_c, 2, 64, 0
2, 862560, Note_on_c, 2, 71, 50
2, 862800, Note_off_c, 2, 71, 0
2, 862800, Note_on_c, 2, 73, 50
2, 863040, Note_off_c, 2, 73, 0
2, 863040, Note_on_c, 2, 75, 50
2, 863280, Note_off_c, 2, 75, 0
2, 863280, Note_on_c, 2, 76, 50
2, 863520, Note_off_c, 2, 76, 0
2, 863760, Note_on_c, 2, 76, 50
2, 864600, Note_off_c, 2, 76, 0
2, 864600, Note_on_c, 2, 78, 50
2, 864720, Note_off_c, 2, 78, 0
2, 864720, Note_on_c, 2, 76, 50
2, 865200, Note_off_c, 2, 76, 0
2, 865200, Note_on_c, 2, 71, 50
2, 865440, Note_off_c, 2, 71, 0
2, 865440, Note_on_c, 2, 68, 50
2, 867120, Note_off_c, 2, 68, 0
2, 867120, Note_on_c, 2, 40, 50
2, 867360, Note_off_c, 2, 40, 0
2, 867360, Note_on_c, 2, 68, 50
2, 867600, Note_off_c, 2, 68, 0
2, 867600, Note_on_c, 2, 66, 50
2, 867840, Note_off_c, 2, 66, 0
2, 867840, Note_on_c, 2, 64, 50
2, 868080, Note_off_c, 2, 64, 0
2, 868080, Note_on_c, 2, 66, 50
2, 868320, Note_off_c, 2, 66, 0
2, 868320, Note_on_c, 2, 64, 50
2, 868560, Note_off_c, 2, 64, 0
2, 868560, Note_on_c, 2, 63, 50
2, 868800, Note_off_c, 2, 63, 0
2, 868800, Note_on_c, 2, 64, 50
2, 869040, Note_off_c, 2, 64, 0
2, 869040, Note_on_c, 2, 40, 50
2, 869280, Note_off_c, 2, 40, 0
2, 869280, Note_on_c, 2, 68, 50
2, 869520, Note_off_c, 2, 68, 0
2, 869520, Note_on_c, 2, 66, 50
2, 869760, Note_off_c, 2, 66, 0
2, 869760, Note_on_c, 2, 64, 50
2, 870000, Note_off_c, 2, 64, 0
2, 870000, Note_on_c, 2, 66, 50
2, 870240, Note_off_c, 2, 66, 0
2, 870240, Note_on_c, 2, 64, 50
2, 870480, Note_off_c, 2, 64, 0
2, 870480, Note_on_c, 2, 63, 50
2, 870720, Note_off_c, 2, 63, 0
2, 870720, Note_on_c, 2, 64, 50
2, 870960, Note_off_c, 2, 64, 0
2, 870960, Note_on_c, 2, 40, 50
2, 871200, Note_off_c, 2, 40, 0
2, 871200, Note_on_c, 2, 68, 50
2, 871440, Note_off_c, 2, 68, 0
2, 871440, Note_on_c, 2, 66, 50
2, 871680, Note_off_c, 2, 66, 0
2, 871680, Note_on_c, 2, 64, 50
2, 871920, Note_off_c, 2, 64, 0
2, 871920, Note_on_c, 2, 66, 50
2, 872160, Note_off_c, 2, 66, 0
2, 872160, Note_on_c, 2, 64, 50
2, 872400, Note_off_c, 2, 64, 0
2, 872400, Note_on_c, 2, 63, 50
2, 872640, Note_off_c, 2, 63, 0
2, 872640, Note_on_c, 2, 64, 50
2, 872880, Note_off_c, 2, 64, 0
2, 889200, Note_on_c, 2, 73, 50
2, 889320, Note_off_c, 2, 73, 0
2, 889320, Note_on_c, 2, 71, 50
2, 889440, Note_off_c, 2, 71, 0
2, 889440, Note_on_c, 2, 71, 50
2, 889920, Note_off_c, 2, 71, 0
2, 889920, Note_on_c, 2, 69, 50
2, 890160, Note_off_c, 2, 69, 0
2, 890160, Note_on_c, 2, 71, 50
2, 890280, Note_off_c, 2, 71, 0
2, 890280, Note_on_c, 2, 69, 50
2, 890400, Note_off_c, 2, 69, 0
2, 890400, Note_on_c, 2, 66, 50
2, 891120, Note_off_c, 2, 66, 0
2, 893040, Note_on_c, 2, 73, 50
2, 893160, Note_off_c, 2, 73, 0
2, 893160, Note_on_c, 2, 76, 50
2, 893280, Note_off_c, 2, 76, 0
2, 893280, Note_on_c, 2, 76, 50
2, 893760, Note_off_c, 2, 76, 0
2, 893760, Note_on_c, 2, 73, 50
2, 894000, Note_off_c, 2, 73, 0
2, 894000, Note_on_c, 2, 76, 50
2, 894120, Note_off_c, 2, 76, 0
2, 894120, Note_on_c, 2, 73, 50
2, 894240, Note_off_c, 2, 73, 0
2, 894240, Note_on_c, 2, 71, 50
2, 894960, Note_off_c, 2, 71, 0
2, 896880, Note_on_c, 2, 73, 50
2, 897000, Note_off_c, 2, 73, 0
2, 897000, Note_on_c, 2, 71, 50
2, 897120, Note_off_c, 2, 71, 0
2, 897120, Note_on_c, 2, 71, 50
2, 897600, Note_off_c, 2, 71, 0
2, 897600, Note_on_c, 2, 69, 50
2, 897840, Note_off_c, 2, 69, 0
2, 897840, Note_on_c, 2, 71, 50
2, 897960, Note_off_c, 2, 71, 0
2, 897960, Note_on_c, 2, 69, 50
2, 898080, Note_off_c, 2, 69, 0
2, 898080, Note_on_c, 2, 66, 50
2, 898560, Note_off_c, 2, 66, 0
2, 898560, Note_on_c, 2, 72, 50
2, 898920, Note_off_c, 2, 72, 0
2, 898920, Note_on_c, 2, 71, 50
2, 899040, Note_off_c, 2, 71, 0
2, 899040, Note_on_c, 2, 71, 50
2, 899160, Note_off_c, 2, 71, 0
2, 899160, Note_on_c, 2, 69, 50
2, 899280, Note_off_c, 2, 69, 0
2, 899280, Note_on_c, 2, 71, 50
2, 899520, Note_off_c, 2, 71, 0
2, 899520, Note_on_c, 2, 69, 50
2, 899760, Note_off_c, 2, 69, 0
2, 899760, Note_on_c, 2, 71, 50
2, 899880, Note_off_c, 2, 71, 0
2, 899880, Note_on_c, 2, 69, 50
2, 900000, Note_off_c, 2, 69, 0
2, 900000, Note_on_c, 2, 66, 50
2, 900240, Note_off_c, 2, 66, 0
2, 900480, Note_on_c, 2, 64, 50
2, 900720, Note_off_c, 2, 64, 0
2, 900720, Note_on_c, 2, 72, 50
2, 900960, Note_off_c, 2, 72, 0
2, 900960, Note_on_c, 2, 71, 50
2, 901440, Note_off_c, 2, 71, 0
2, 901440, Note_on_c, 2, 69, 50
2, 901680, Note_off_c, 2, 69, 0
2, 901680, Note_on_c, 2, 69, 50
2, 903600, Note_off_c, 2, 69, 0
2, 906000, Note_on_c, 2, 57, 50
2, 906240, Note_off_c, 2, 57, 0
2, 906240, Note_on_c, 2, 59, 50
2, 906480, Note_off_c, 2, 59, 0
2, 906480, Note_on_c, 2, 61, 50
2, 906960, Note_off_c, 2, 61, 0
2, 906960, Note_on_c, 2, 62, 50
2, 907440, Note_off_c, 2, 62, 0
2, 907440, Note_on_c, 2, 64, 50
2, 907680, Note_off_c, 2, 64, 0
2, 907680, Note_on_c, 2, 66, 50
2, 907920, Note_off_c, 2, 66, 0
2, 907920, Note_on_c, 2, 61, 50
2, 908160, Note_off_c, 2, 61, 0
2, 908160, Note_on_c, 2, 64, 50
2, 908880, Note_off_c, 2, 64, 0
2, 909600, Note_on_c, 2, 66, 50
2, 909840, Note_off_c, 2, 66, 0
2, 909840, Note_on_c, 2, 66, 50
2, 910080, Note_off_c, 2, 66, 0
2, 910080, Note_on_c, 2, 66, 50
2, 910320, Note_off_c, 2, 66, 0
2, 910320, Note_on_c, 2, 66, 50
2, 910560, Note_off_c, 2, 66, 0
2, 910560, Note_on_c, 2, 66, 50
2, 911040, Note_off_c, 2, 66, 0
2, 911040, Note_on_c, 2, 62, 50
2, 912240, Note_off_c, 2, 62, 0
2, 913200, Note_on_c, 2, 61, 50
2, 913440, Note_off_c, 2, 61, 0
2, 913440, Note_on_c, 2, 64, 50
2, 913680, Note_off_c, 2, 64, 0
2, 913680, Note_on_c, 2, 61, 50
2, 913920, Note_off_c, 2, 61, 0
2, 913920, Note_on_c, 2, 64, 50
2, 914880, Note_off_c, 2, 64, 0
2, 914880, Note_on_c, 2, 64, 50
2, 915120, Note_off_c, 2, 64, 0
2, 915120, Note_on_c, 2, 66, 50
2, 915600, Note_off_c, 2, 66, 0
2, 915600, Note_on_c, 2, 64, 50
2, 916320, Note_off_c, 2, 64, 0
2, 916320, Note_on_c, 2, 61, 50
2, 916560, Note_off_c, 2, 61, 0
2, 916560, Note_on_c, 2, 59, 50
2, 916800, Note_off_c, 2, 59, 0
2, 916800, Note_on_c, 2, 57, 50
2, 917520, Note_off_c, 2, 57, 0
2, 917520, Note_on_c, 2, 57, 50
2, 917760, Note_off_c, 2, 57, 0
2, 917760, Note_on_c, 2, 59, 50
2, 918000, Note_off_c, 2, 59, 0
2, 918000, Note_on_c, 2, 61, 50
2, 918480, Note_off_c, 2, 61, 0
2, 918480, Note_on_c, 2, 62, 50
2, 918960, Note_off_c, 2, 62, 0
2, 918960, Note_on_c, 2, 64, 50
2, 919200, Note_off_c, 2, 64, 0
2, 919200, Note_on_c, 2, 66, 50
2, 919440, Note_off_c, 2, 66, 0
2, 919440, Note_on_c, 2, 61, 50
2, 919680, Note_off_c, 2, 61, 0
2, 919680, Note_on_c, 2, 64, 50
2, 920400, Note_off_c, 2, 64, 0
2, 921120, Note_on_c, 2, 66, 50
2, 921360, Note_off_c, 2, 66, 0
2, 921360, Note_on_c, 2, 66, 50
2, 921600, Note_off_c, 2, 66, 0
2, 921600, Note_on_c, 2, 66, 50
2, 921840, Note_off_c, 2, 66, 0
2, 921840, Note_on_c, 2, 66, 50
2, 922080, Note_off_c, 2, 66, 0
2, 922080, Note_on_c, 2, 66, 50
2, 922560, Note_off_c, 2, 66, 0
2, 922560, Note_on_c, 2, 62, 50
2, 923760, Note_off_c, 2, 62, 0
2, 924720, Note_on_c, 2, 61, 50
2, 924960, Note_off_c, 2, 61, 0
2, 924960, Note_on_c, 2, 64, 50
2, 925200, Note_off_c, 2, 64, 0
2, 925200, Note_on_c, 2, 61, 50
2, 925440, Note_off_c, 2, 61, 0
2, 925440, Note_on_c, 2, 64, 50
2, 926400, Note_off_c, 2, 64, 0
2, 926400, Note_on_c, 2, 64, 50
2, 926640, Note_off_c, 2, 64, 0
2, 926640, Note_on_c, 2, 66, 50
2, 927120, Note_off_c, 2, 66, 0
2, 927120, Note_on_c, 2, 64, 50
2, 927840, Note_off_c, 2, 64, 0
2, 927840, Note_on_c, 2, 61, 50
2, 928080, Note_off_c, 2, 61, 0
2, 928080, Note_on_c, 2, 59, 50
2, 928320, Note_off_c, 2, 59, 0
2, 928320, Note_on_c, 2, 57, 50
2, 929520, Note_off_c, 2, 57, 0
2, 931440, Note_on_c, 2, 73, 50
2, 931560, Note_off_c, 2, 73, 0
2, 931560, Note_on_c, 2, 71, 50
2, 931680, Note_off_c, 2, 71, 0
2, 931680, Note_on_c, 2, 71, 50
2, 932160, Note_off_c, 2, 71, 0
2, 932160, Note_on_c, 2, 69, 50
2, 932400, Note_off_c, 2, 69, 0
2, 932400, Note_on_c, 2, 71, 50
2, 932520, Note_off_c, 2, 71, 0
2, 932520, Note_on_c, 2, 69, 50
2, 932640, Note_off_c, 2, 69, 0
2, 932640, Note_on_c, 2, 66, 50
2, 933360, Note_off_c, 2, 66, 0
2, 935280, Note_on_c, 2, 73, 50
2, 935400, Note_off_c, 2, 73, 0
2, 935400, Note_on_c, 2, 76, 50
2, 935520, Note_off_c, 2, 76, 0
2, 935520, Note_on_c, 2, 76, 50
2, 936000, Note_off_c, 2, 76, 0
2, 936000, Note_on_c, 2, 73, 50
2, 936240, Note_off_c, 2, 73, 0
2, 936240, Note_on_c, 2, 76, 50
2, 936360, Note_off_c, 2, 76, 0
2, 936360, Note_on_c, 2, 73, 50
2, 936480, Note_off_c, 2, 73, 0
2, 936480, Note_on_c, 2, 71, 50
2, 937200, Note_off_c, 2, 71, 0
2, 939120, Note_on_c, 2, 73, 50
2, 939240, Note_off_c, 2, 73, 0
2, 939240, Note_on_c, 2, 71, 50
2, 939360, Note_off_c, 2, 71, 0
2, 939360, Note_on_c, 2, 71, 50
2, 939840, Note_off_c, 2, 71, 0
2, 939840, Note_on_c, 2, 69, 50
2, 940080, Note_off_c, 2, 69, 0
2, 940080, Note_on_c, 2, 71, 50
2, 940200, Note_off_c, 2, 71, 0
2, 940200, Note_on_c, 2, 69, 50
2, 940320, Note_off_c, 2, 69, 0
2, 940320, Note_on_c, 2, 66, 50
2, 940800, Note_off_c, 2, 66, 0
2, 940800, Note_on_c, 2, 72, 50
2, 941160, Note_off_c, 2, 72, 0
2, 941160, Note_on_c, 2, 71, 50
2, 941280, Note_off_c, 2, 71, 0
2, 941280, Note_on_c, 2, 71, 50
2, 941400, Note_off_c, 2, 71, 0
2, 941400, Note_on_c, 2, 69, 50
2, 941520, Note_off_c, 2, 69, 0
2, 941520, Note_on_c, 2, 71, 50
2, 941760, Note_off_c, 2, 71, 0
2, 941760, Note_on_c, 2, 69, 50
2, 942000, Note_off_c, 2, 69, 0
2, 942000, Note_on_c, 2, 71, 50
2, 942120, Note_off_c, 2, 71, 0
2, 942120, Note_on_c, 2, 69, 50
2, 942240, Note_off_c, 2, 69, 0
2, 942240, Note_on_c, 2, 66, 50
2, 942480, Note_off_c, 2, 66, 0
2, 942720, Note_on_c, 2, 64, 50
2, 942960, Note_off_c, 2, 64, 0
2, 942960, Note_on_c, 2, 72, 50
2, 943200, Note_off_c, 2, 72, 0
2, 943200, Note_on_c, 2, 71, 50
2, 943680, Note_off_c, 2, 71, 0
2, 943680, Note_on_c, 2, 69, 50
2, 943920, Note_off_c, 2, 69, 0
2, 943920, Note_on_c, 2, 69, 50
2, 945840, Note_off_c, 2, 69, 0
2, 948240, Note_on_c, 2, 57, 50
2, 948480, Note_off_c, 2, 57, 0
2, 948480, Note_on_c, 2, 59, 50
2, 948720, Note_off_c, 2, 59, 0
2, 948720, Note_on_c, 2, 61, 50
2, 949200, Note_off_c, 2, 61, 0
2, 949200, Note_on_c, 2, 62, 50
2, 949680, Note_off_c, 2, 62, 0
2, 949680, Note_on_c, 2, 64, 50
2, 949920, Note_off_c, 2, 64, 0
2, 949920, Note_on_c, 2, 66, 50
2, 950160, Note_off_c, 2, 66, 0
2, 950160, Note_on_c, 2, 61, 50
2, 950400, Note_off_c, 2, 61, 0
2, 950400, Note_on_c, 2, 64, 50
2, 951120, Note_off_c, 2, 64, 0
2, 951840, Note_on_c, 2, 66, 50
2, 952080, Note_off_c, 2, 66, 0
2, 952080, Note_on_c, 2, 66, 50
2, 952320, Note_off_c, 2, 66, 0
2, 952320, Note_on_c, 2, 66, 50
2, 952560, Note_off_c, 2, 66, 0
2, 952560, Note_on_c, 2, 66, 50
2, 952800, Note_off_c, 2, 66, 0
2, 952800, Note_on_c, 2, 66, 50
2, 953280, Note_off_c, 2, 66, 0
2, 953280, Note_on_c, 2, 62, 50
2, 954480, Note_off_c, 2, 62, 0
2, 955920, Note_on_c, 2, 61, 50
2, 956160, Note_off_c, 2, 61, 0
2, 956160, Note_on_c, 2, 64, 50
2, 956640, Note_off_c, 2, 64, 0
2, 956640, Note_on_c, 2, 64, 50
2, 957120, Note_off_c, 2, 64, 0
2, 957120, Note_on_c, 2, 64, 50
2, 957360, Note_off_c, 2, 64, 0
2, 957360, Note_on_c, 2, 66, 50
2, 957840, Note_off_c, 2, 66, 0
2, 957840, Note_on_c, 2, 64, 50
2, 958560, Note_off_c, 2, 64, 0
2, 958560, Note_on_c, 2, 61, 50
2, 958800, Note_off_c, 2, 61, 0
2, 958800, Note_on_c, 2, 59, 50
2, 959040, Note_off_c, 2, 59, 0
2, 959040, Note_on_c, 2, 57, 50
2, 959760, Note_off_c, 2, 57, 0
2, 959760, Note_on_c, 2, 57, 50
2, 960000, Note_off_c, 2, 57, 0
2, 960000, Note_on_c, 2, 59, 50
2, 960240, Note_off_c, 2, 59, 0
2, 960240, Note_on_c, 2, 61, 50
2, 960720, Note_off_c, 2, 61, 0
2, 960720, Note_on_c, 2, 62, 50
2, 961200, Note_off_c, 2, 62, 0
2, 961200, Note_on_c, 2, 64, 50
2, 961440, Note_off_c, 2, 64, 0
2, 961440, Note_on_c, 2, 66, 50
2, 961680, Note_off_c, 2, 66, 0
2, 961680, Note_on_c, 2, 61, 50
2, 961920, Note_off_c, 2, 61, 0
2, 961920, Note_on_c, 2, 64, 50
2, 962640, Note_off_c, 2, 64, 0
2, 962640, Note_on_c, 2, 66, 50
2, 962880, Note_off_c, 2, 66, 0
2, 963360, Note_on_c, 2, 66, 50
2, 963600, Note_off_c, 2, 66, 0
2, 963600, Note_on_c, 2, 66, 50
2, 963840, Note_off_c, 2, 66, 0
2, 963840, Note_on_c, 2, 66, 50
2, 964080, Note_off_c, 2, 66, 0
2, 964080, Note_on_c, 2, 66, 50
2, 964320, Note_off_c, 2, 66, 0
2, 964320, Note_on_c, 2, 66, 50
2, 964800, Note_off_c, 2, 66, 0
2, 964800, Note_on_c, 2, 62, 50
2, 966000, Note_off_c, 2, 62, 0
2, 966960, Note_on_c, 2, 61, 50
2, 967200, Note_off_c, 2, 61, 0
2, 967200, Note_on_c, 2, 64, 50
2, 967440, Note_off_c, 2, 64, 0
2, 967440, Note_on_c, 2, 61, 50
2, 967680, Note_off_c, 2, 61, 0
2, 967680, Note_on_c, 2, 64, 50
2, 968640, Note_off_c, 2, 64, 0
2, 968640, Note_on_c, 2, 64, 50
2, 968880, Note_off_c, 2, 64, 0
2, 968880, Note_on_c, 2, 66, 50
2, 969360, Note_off_c, 2, 66, 0
2, 969360, Note_on_c, 2, 64, 50
2, 970080, Note_off_c, 2, 64, 0
2, 970080, Note_on_c, 2, 61, 50
2, 970320, Note_off_c, 2, 61, 0
2, 970320, Note_on_c, 2, 59, 50
2, 970560, Note_off_c, 2, 59, 0
2, 970560, Note_on_c, 2, 57, 50
2, 971760, Note_off_c, 2, 57, 0
2, 973680, Note_on_c, 2, 73, 50
2, 973800, Note_off_c, 2, 73, 0
2, 973800, Note_on_c, 2, 71, 50
2, 973920, Note_off_c, 2, 71, 0
2, 973920, Note_on_c, 2, 71, 50
2, 974400, Note_off_c, 2, 71, 0
2, 974400, Note_on_c, 2, 69, 50
2, 974640, Note_off_c, 2, 69, 0
2, 974640, Note_on_c, 2, 71, 50
2, 974760, Note_off_c, 2, 71, 0
2, 974760, Note_on_c, 2, 69, 50
2, 974880, Note_off_c, 2, 69, 0
2, 974880, Note_on_c, 2, 66, 50
2, 975600, Note_off_c, 2, 66, 0
2, 977520, Note_on_c, 2, 73, 50
2, 977640, Note_off_c, 2, 73, 0
2, 977640, Note_on_c, 2, 76, 50
2, 977760, Note_off_c, 2, 76, 0
2, 977760, Note_on_c, 2, 76, 50
2, 978240, Note_off_c, 2, 76, 0
2, 978240, Note_on_c, 2, 73, 50
2, 978480, Note_off_c, 2, 73, 0
2, 978480, Note_on_c, 2, 76, 50
2, 978600, Note_off_c, 2, 76, 0
2, 978600, Note_on_c, 2, 73, 50
2, 978720, Note_off_c, 2, 73, 0
2, 978720, Note_on_c, 2, 71, 50
2, 979440, Note_off_c, 2, 71, 0
2, 981360, Note_on_c, 2, 73, 50
2, 981480, Note_off_c, 2, 73, 0
2, 981480, Note_on_c, 2, 71, 50
2, 981600, Note_off_c, 2, 71, 0
2, 981600, Note_on_c, 2, 71, 50
2, 982080, Note_off_c, 2, 71, 0
2, 982080, Note_on_c, 2, 69, 50
2, 982320, Note_off_c, 2, 69, 0
2, 982320, Note_on_c, 2, 71, 50
2, 982440, Note_off_c, 2, 71, 0
2, 982440, Note_on_c, 2, 69, 50
2, 982560, Note_off_c, 2, 69, 0
2, 982560, Note_on_c, 2, 66, 50
2, 983040, Note_off_c, 2, 66, 0
2, 983040, Note_on_c, 2, 72, 50
2, 983400, Note_off_c, 2, 72, 0
2, 983400, Note_on_c, 2, 71, 50
2, 983520, Note_off_c, 2, 71, 0
2, 983520, Note_on_c, 2, 71, 50
2, 983640, Note_off_c, 2, 71, 0
2, 983640, Note_on_c, 2, 69, 50
2, 983760, Note_off_c, 2, 69, 0
2, 983760, Note_on_c, 2, 71, 50
2, 984000, Note_off_c, 2, 71, 0
2, 984000, Note_on_c, 2, 69, 50
2, 984240, Note_off_c, 2, 69, 0
2, 984240, Note_on_c, 2, 71, 50
2, 984360, Note_off_c, 2, 71, 0
2, 984360, Note_on_c, 2, 69, 50
2, 984480, Note_off_c, 2, 69, 0
2, 984480, Note_on_c, 2, 66, 50
2, 984720, Note_off_c, 2, 66, 0
2, 984960, Note_on_c, 2, 64, 50
2, 985200, Note_off_c, 2, 64, 0
2, 985200, Note_on_c, 2, 72, 50
2, 985440, Note_off_c, 2, 72, 0
2, 985440, Note_on_c, 2, 71, 50
2, 985920, Note_off_c, 2, 71, 0
2, 985920, Note_on_c, 2, 69, 50
2, 986160, Note_off_c, 2, 69, 0
2, 986160, Note_on_c, 2, 69, 50
2, 988080, Note_off_c, 2, 69, 0
2, 1008240, Note_on_c, 2, 73, 50
2, 1008360, Note_off_c, 2, 73, 0
2, 1008360, Note_on_c, 2, 71, 50
2, 1008480, Note_off_c, 2, 71, 0
2, 1008480, Note_on_c, 2, 71, 50
2, 1008960, Note_off_c, 2, 71, 0
2, 1008960, Note_on_c, 2, 69, 50
2, 1009200, Note_off_c, 2, 69, 0
2, 1009200, Note_on_c, 2, 71, 50
2, 1009320, Note_off_c, 2, 71, 0
2, 1009320, Note_on_c, 2, 69, 50
2, 1009440, Note_off_c, 2, 69, 0
2, 1009440, Note_on_c, 2, 66, 50
2, 1010160, Note_off_c, 2, 66, 0
2, 1012080, Note_on_c, 2, 73, 50
2, 1012200, Note_off_c, 2, 73, 0
2, 1012200, Note_on_c, 2, 76, 50
2, 1012320, Note_off_c, 2, 76, 0
2, 1012320, Note_on_c, 2, 76, 50
2, 1012800, Note_off_c, 2, 76, 0
2, 1012800, Note_on_c, 2, 73, 50
2, 1013040, Note_off_c, 2, 73, 0
2, 1013040, Note_on_c, 2, 76, 50
2, 1013160, Note_off_c, 2, 76, 0
2, 1013160, Note_on_c, 2, 73, 50
2, 1013280, Note_off_c, 2, 73, 0
2, 1013280, Note_on_c, 2, 71, 50
2, 1014000, Note_off_c, 2, 71, 0
2, 1015920, Note_on_c, 2, 73, 50
2, 1016040, Note_off_c, 2, 73, 0
2, 1016040, Note_on_c, 2, 71, 50
2, 1016160, Note_off_c, 2, 71, 0
2, 1016160, Note_on_c, 2, 71, 50
2, 1016640, Note_off_c, 2, 71, 0
2, 1016640, Note_on_c, 2, 69, 50
2, 1016880, Note_off_c, 2, 69, 0
2, 1016880, Note_on_c, 2, 71, 50
2, 1017000, Note_off_c, 2, 71, 0
2, 1017000, Note_on_c, 2, 69, 50
2, 1017120, Note_off_c, 2, 69, 0
2, 1017120, Note_on_c, 2, 66, 50
2, 1017600, Note_off_c, 2, 66, 0
2, 1017600, Note_on_c, 2, 72, 50
2, 1017960, Note_off_c, 2, 72, 0
2, 1017960, Note_on_c, 2, 71, 50
2, 1018080, Note_off_c, 2, 71, 0
2, 1018080, Note_on_c, 2, 71, 50
2, 1018200, Note_off_c, 2, 71, 0
2, 1018200, Note_on_c, 2, 69, 50
2, 1018320, Note_off_c, 2, 69, 0
2, 1018320, Note_on_c, 2, 71, 50
2, 1018560, Note_off_c, 2, 71, 0
2, 1018560, Note_on_c, 2, 69, 50
2, 1018800, Note_off_c, 2, 69, 0
2, 1018800, Note_on_c, 2, 71, 50
2, 1018920, Note_off_c, 2, 71, 0
2, 1018920, Note_on_c, 2, 69, 50
2, 1019040, Note_off_c, 2, 69, 0
2, 1019040, Note_on_c, 2, 66, 50
2, 1019280, Note_off_c, 2, 66, 0
2, 1019520, Note_on_c, 2, 64, 50
2, 1019760, Note_off_c, 2, 64, 0
2, 1019760, Note_on_c, 2, 72, 50
2, 1020000, Note_off_c, 2, 72, 0
2, 1020000, Note_on_c, 2, 71, 50
2, 1020480, Note_off_c, 2, 71, 0
2, 1020480, Note_on_c, 2, 69, 50
2, 1020720, Note_off_c, 2, 69, 0
2, 1020720, Note_on_c, 2, 69, 50
2, 1022640, Note_off_c, 2, 69, 0
2, 1023360, Note_on_c, 2, 73, 50
2, 1023840, Note_off_c, 2, 73, 0
2, 1023840, Note_on_c, 2, 71, 50
2, 1024080, Note_off_c, 2, 71, 0
2, 1024080, Note_on_c, 2, 71, 50
2, 1024320, Note_off_c, 2, 71, 0
2, 1024320, Note_on_c, 2, 69, 50
2, 1024560, Note_off_c, 2, 69, 0
2, 1024560, Note_on_c, 2, 71, 50
2, 1024680, Note_off_c, 2, 71, 0
2, 1024680, Note_on_c, 2, 69, 50
2, 1024800, Note_off_c, 2, 69, 0
2, 1024800, Note_on_c, 2, 66, 50
2, 1025520, Note_off_c, 2, 66, 0
2, 1027440, Note_on_c, 2, 73, 50
2, 1027560, Note_off_c, 2, 73, 0
2, 1027560, Note_on_c, 2, 76, 50
2, 1027680, Note_off_c, 2, 76, 0
2, 1027680, Note_on_c, 2, 76, 50
2, 1028160, Note_off_c, 2, 76, 0
2, 1028160, Note_on_c, 2, 73, 50
2, 1028400, Note_off_c, 2, 73, 0
2, 1028400, Note_on_c, 2, 76, 50
2, 1028520, Note_off_c, 2, 76, 0
2, 1028520, Note_on_c, 2, 73, 50
2, 1028640, Note_off_c, 2, 73, 0
2, 1028640, Note_on_c, 2, 71, 50
2, 1029360, Note_off_c, 2, 71, 0
2, 1031280, Note_on_c, 2, 73, 50
2, 1031400, Note_off_c, 2, 73, 0
2, 1031400, Note_on_c, 2, 71, 50
2, 1031520, Note_off_c, 2, 71, 0
2, 1031520, Note_on_c, 2, 71, 50
2, 1032000, Note_off_c, 2, 71, 0
2, 1032000, Note_on_c, 2, 69, 50
2, 1032240, Note_off_c, 2, 69, 0
2, 1032240, Note_on_c, 2, 71, 50
2, 1032360, Note_off_c, 2, 71, 0
2, 1032360, Note_on_c, 2, 69, 50
2, 1032480, Note_off_c, 2, 69, 0
2, 1032480, Note_on_c, 2, 66, 50
2, 1032960, Note_off_c, 2, 66, 0
2, 1032960, Note_on_c, 2, 72, 50
2, 1033320, Note_off_c, 2, 72, 0
2, 1033320, Note_on_c, 2, 71, 50
2, 1033440, Note_off_c, 2, 71, 0
2, 1033440, Note_on_c, 2, 71, 50
2, 1033560, Note_off_c, 2, 71, 0
2, 1033560, Note_on_c, 2, 69, 50
2, 1033680, Note_off_c, 2, 69, 0
2, 1033680, Note_on_c, 2, 71, 50
2, 1033920, Note_off_c, 2, 71, 0
2, 1033920, Note_on_c, 2, 69, 50
2, 1034160, Note_off_c, 2, 69, 0
2, 1034160, Note_on_c, 2, 71, 50
2, 1034280, Note_off_c, 2, 71, 0
2, 1034280, Note_on_c, 2, 69, 50
2, 1034400, Note_off_c, 2, 69, 0
2, 1034400, Note_on_c, 2, 66, 50
2, 1034640, Note_off_c, 2, 66, 0
2, 1034880, Note_on_c, 2, 64, 50
2, 1035120, Note_off_c, 2, 64, 0
2, 1035120, Note_on_c, 2, 72, 50
2, 1035360, Note_off_c, 2, 72, 0
2, 1035360, Note_on_c, 2, 71, 50
2, 1035840, Note_off_c, 2, 71, 0
2, 1035840, Note_on_c, 2, 69, 50
2, 1036080, Note_off_c, 2, 69, 0
2, 1036080, Note_on_c, 2, 69, 50
2, 1038000, Note_off_c, 2, 69, 0
2, 1038720, Note_on_c, 2, 73, 50
2, 1039200, Note_off_c, 2, 73, 0
2, 1039200, Note_on_c, 2, 71, 50
2, 1039440, Note_off_c, 2, 71, 0
2, 1039440, Note_on_c, 2, 71, 50
2, 1039680, Note_off_c, 2, 71, 0
2, 1039680, Note_on_c, 2, 69, 50
2, 1039920, Note_off_c, 2, 69, 0
2, 1039920, Note_on_c, 2, 71, 50
2, 1040040, Note_off_c, 2, 71, 0
2, 1040040, Note_on_c, 2, 69, 50
2, 1040160, Note_off_c, 2, 69, 0
2, 1040160, Note_on_c, 2, 66, 50
2, 1040880, Note_off_c, 2, 66, 0
2, 1042800, Note_on_c, 2, 73, 50
2, 1042920, Note_off_c, 2, 73, 0
2, 1042920, Note_on_c, 2, 76, 50
2, 1043040, Note_off_c, 2, 76, 0
2, 1043040, Note_on_c, 2, 76, 50
2, 1043520, Note_off_c, 2, 76, 0
2, 1043520, Note_on_c, 2, 73, 50
2, 1043760, Note_off_c, 2, 73, 0
2, 1043760, Note_on_c, 2, 76, 50
2, 1043880, Note_off_c, 2, 76, 0
2, 1043880, Note_on_c, 2, 73, 50
2, 1044000, Note_off_c, 2, 73, 0
2, 1044000, Note_on_c, 2, 71, 50
2, 1044720, Note_off_c, 2, 71, 0
2, 1046640, Note_on_c, 2, 73, 50
2, 1046760, Note_off_c, 2, 73, 0
2, 1046760, Note_on_c, 2, 71, 50
2, 1046880, Note_off_c, 2, 71, 0
2, 1046880, Note_on_c, 2, 71, 50
2, 1047360, Note_off_c, 2, 71, 0
2, 1047360, Note_on_c, 2, 69, 50
2, 1047600, Note_off_c, 2, 69, 0
2, 1047600, Note_on_c, 2, 71, 50
2, 1047720, Note_off_c, 2, 71, 0
2, 1047720, Note_on_c, 2, 69, 50
2, 1047840, Note_off_c, 2, 69, 0
2, 1047840, Note_on_c, 2, 66, 50
2, 1048320, Note_off_c, 2, 66, 0
2, 1048320, Note_on_c, 2, 72, 50
2, 1048680, Note_off_c, 2, 72, 0
2, 1048680, Note_on_c, 2, 71, 50
2, 1048800, Note_off_c, 2, 71, 0
2, 1048800, Note_on_c, 2, 71, 50
2, 1048920, Note_off_c, 2, 71, 0
2, 1048920, Note_on_c, 2, 69, 50
2, 1049040, Note_off_c, 2, 69, 0
2, 1049040, Note_on_c, 2, 71, 50
2, 1049280, Note_off_c, 2, 71, 0
2, 1049280, Note_on_c, 2, 69, 50
2, 1049520, Note_off_c, 2, 69, 0
2, 1049520, Note_on_c, 2, 71, 50
2, 1049640, Note_off_c, 2, 71, 0
2, 1049640, Note_on_c, 2, 69, 50
2, 1049760, Note_off_c, 2, 69, 0
2, 1049760, Note_on_c, 2, 66, 50
2, 1050000, Note_off_c, 2, 66, 0
2, 1050240, Note_on_c, 2, 64, 50
2, 1050480, Note_off_c, 2, 64, 0
2, 1050480, Note_on_c, 2, 72, 50
2, 1050720, Note_off_c, 2, 72, 0
2, 1050720, Note_on_c, 2, 71, 50
2, 1051200, Note_off_c, 2, 71, 0
2, 1051200, Note_on_c, 2, 69, 50
2, 1051440, Note_off_c, 2, 69, 0
2, 1051440, Note_on_c, 2, 69, 50
2, 1053360, Note_off_c, 2, 69, 0
2, 1054080, Note_on_c, 2, 73, 50
2, 1054560, Note_off_c, 2, 73, 0
2, 1054560, Note_on_c, 2, 71, 50
2, 1054800, Note_off_c, 2, 71, 0
2, 1054800, Note_on_c, 2, 71, 50
2, 1055040, Note_off_c, 2, 71, 0
2, 1055040, Note_on_c, 2, 69, 50
2, 1055280, Note_off_c, 2, 69, 0
2, 1055280, Note_on_c, 2, 71, 50
2, 1055400, Note_off_c, 2, 71, 0
2, 1055400, Note_on_c, 2, 69, 50
2, 1055520, Note_off_c, 2, 69, 0
2, 1055520, Note_on_c, 2, 66, 50
2, 1056000, Note_off_c, 2, 66, 0
2, 1056000, Note_on_c, 2, 72, 50
2, 1056360, Note_off_c, 2, 72, 0
2, 1056360, Note_on_c, 2, 71, 50
2, 1056480, Note_off_c, 2, 71, 0
2, 1056480, Note_on_c, 2, 71, 50
2, 1056600, Note_off_c, 2, 71, 0
2, 1056600, Note_on_c, 2, 69, 50
2, 1056720, Note_off_c, 2, 69, 0
2, 1056720, Note_on_c, 2, 71, 50
2, 1056960, Note_off_c, 2, 71, 0
2, 1056960, Note_on_c, 2, 69, 50
2, 1057200, Note_off_c, 2, 69, 0
2, 1057200, Note_on_c, 2, 71, 50
2, 1057320, Note_off_c, 2, 71, 0
2, 1057320, Note_on_c, 2, 69, 50
2, 1057440, Note_off_c, 2, 69, 0
2, 1057440, Note_on_c, 2, 66, 50
2, 1057680, Note_off_c, 2, 66, 0
2, 1057920, Note_on_c, 2, 64, 50
2, 1058160, Note_off_c, 2, 64, 0
2, 1058160, Note_on_c, 2, 72, 50
2, 1058400, Note_off_c, 2, 72, 0
2, 1058400, Note_on_c, 2, 71, 50
2, 1058880, Note_off_c, 2, 71, 0
2, 1058880, Note_on_c, 2, 69, 50
2, 1059120, Note_off_c, 2, 69, 0
2, 1059120, Note_on_c, 2, 69, 50
2, 1060080, Note_off_c, 2, 69, 0
2, 1088400, Note_on_c, 2, 66, 50
2, 1088640, Note_off_c, 2, 66, 0
2, 1088640, Note_on_c, 2, 69, 50
2, 1088880, Note_off_c, 2, 69, 0
2, 1088880, Note_on_c, 2, 71, 50
2, 1089000, Note_off_c, 2, 71, 0
2, 1089000, Note_on_c, 2, 73, 50
2, 1089120, Note_off_c, 2, 73, 0
2, 1089240, Note_on_c, 2, 71, 50
2, 1089360, Note_off_c, 2, 71, 0
2, 1089360, Note_on_c, 2, 69, 50
2, 1089840, Note_off_c, 2, 69, 0
2, 1090560, Note_on_c, 2, 66, 50
2, 1090800, Note_off_c, 2, 66, 0
2, 1090800, Note_on_c, 2, 69, 50
2, 1091280, Note_off_c, 2, 69, 0
2, 1091280, Note_on_c, 2, 71, 50
2, 1091760, Note_off_c, 2, 71, 0
2, 1091760, Note_on_c, 2, 73, 50
2, 1091880, Note_off_c, 2, 73, 0
2, 1091880, Note_on_c, 2, 76, 50
2, 1092000, Note_off_c, 2, 76, 0
2, 1092000, Note_on_c, 2, 73, 50
2, 1092720, Note_off_c, 2, 73, 0
2, 1096080, Note_on_c, 2, 66, 50
2, 1096320, Note_off_c, 2, 66, 0
2, 1096320, Note_on_c, 2, 69, 50
2, 1096560, Note_off_c, 2, 69, 0
2, 1096560, Note_on_c, 2, 71, 50
2, 1096680, Note_off_c, 2, 71, 0
2, 1096680, Note_on_c, 2, 73, 50
2, 1096800, Note_off_c, 2, 73, 0
2, 1096920, Note_on_c, 2, 71, 50
2, 1097040, Note_off_c, 2, 71, 0
2, 1097040, Note_on_c, 2, 69, 50
2, 1097520, Note_off_c, 2, 69, 0
2, 1098240, Note_on_c, 2, 66, 50
2, 1098480, Note_off_c, 2, 66, 0
2, 1098480, Note_on_c, 2, 69, 50
2, 1098960, Note_off_c, 2, 69, 0
2, 1098960, Note_on_c, 2, 69, 50
2, 1099440, Note_off_c, 2, 69, 0
2, 1099440, Note_on_c, 2, 64, 50
2, 1099800, Note_off_c, 2, 64, 0
2, 1099800, Note_on_c, 2, 66, 50
2, 1099920, Note_off_c, 2, 66, 0
2, 1099920, Note_on_c, 2, 69, 50
2, 1100400, Note_off_c, 2, 69, 0
2, 1102320, Note_on_c, 2, 73, 50
2, 1102560, Note_off_c, 2, 73, 0
2, 1102560, Note_on_c, 2, 76, 50
2, 1103280, Note_off_c, 2, 76, 0
2, 1103760, Note_on_c, 2, 73, 50
2, 1103880, Note_off_c, 2, 73, 0
2, 1103880, Note_on_c, 2, 73, 50
2, 1104000, Note_off_c, 2, 73, 0
2, 1104120, Note_on_c, 2, 73, 50
2, 1104240, Note_off_c, 2, 73, 0
2, 1104240, Note_on_c, 2, 73, 50
2, 1104840, Note_off_c, 2, 73, 0
2, 1104840, Note_on_c, 2, 73, 50
2, 1104960, Note_off_c, 2, 73, 0
2, 1104960, Note_on_c, 2, 73, 50
2, 1105200, Note_off_c, 2, 73, 0
2, 1105200, Note_on_c, 2, 73, 50
2, 1105560, Note_off_c, 2, 73, 0
2, 1105560, Note_on_c, 2, 73, 50
2, 1105920, Note_off_c, 2, 73, 0
2, 1105920, Note_on_c, 2, 69, 50
2, 1106640, Note_off_c, 2, 69, 0
2, 1107360, Note_on_c, 2, 74, 50
2, 1107600, Note_off_c, 2, 74, 0
2, 1107600, Note_on_c, 2, 74, 50
2, 1107840, Note_off_c, 2, 74, 0
2, 1107840, Note_on_c, 2, 73, 50
2, 1108080, Note_off_c, 2, 73, 0
2, 1108080, Note_on_c, 2, 73, 50
2, 1108320, Note_off_c, 2, 73, 0
2, 1108320, Note_on_c, 2, 71, 50
2, 1108560, Note_off_c, 2, 71, 0
2, 1108800, Note_on_c, 2, 62, 50
2, 1108920, Note_off_c, 2, 62, 0
2, 1108920, Note_on_c, 2, 62, 50
2, 1109040, Note_off_c, 2, 62, 0
2, 1109040, Note_on_c, 2, 74, 50
2, 1109400, Note_off_c, 2, 74, 0
2, 1109400, Note_on_c, 2, 73, 50
2, 1109760, Note_off_c, 2, 73, 0
2, 1109760, Note_on_c, 2, 73, 50
2, 1110240, Note_off_c, 2, 73, 0
2, 1110240, Note_on_c, 2, 71, 50
2, 1110480, Note_off_c, 2, 71, 0
2, 1110480, Note_on_c, 2, 69, 50
2, 1110720, Note_off_c, 2, 69, 0
2, 1110720, Note_on_c, 2, 71, 50
2, 1110960, Note_off_c, 2, 71, 0
2, 1110960, Note_on_c, 2, 73, 50
2, 1111080, Note_off_c, 2, 73, 0
2, 1111080, Note_on_c, 2, 76, 50
2, 1111200, Note_off_c, 2, 76, 0
2, 1111200, Note_on_c, 2, 73, 50
2, 1111920, Note_off_c, 2, 73, 0
2, 1112160, Note_on_c, 2, 71, 50
2, 1112400, Note_off_c, 2, 71, 0
2, 1112400, Note_on_c, 2, 69, 50
2, 1112640, Note_off_c, 2, 69, 0
2, 1112640, Note_on_c, 2, 71, 50
2, 1112880, Note_off_c, 2, 71, 0
2, 1112880, Note_on_c, 2, 66, 50
2, 1113360, Note_off_c, 2, 66, 0
2, 1115280, Note_on_c, 2, 81, 50
2, 1115760, Note_off_c, 2, 81, 0
2, 1115760, Note_on_c, 2, 78, 50
2, 1116240, Note_off_c, 2, 78, 0
2, 1116240, Note_on_c, 2, 81, 50
2, 1116720, Note_off_c, 2, 81, 0
2, 1116720, Note_on_c, 2, 76, 50
2, 1116960, Note_off_c, 2, 76, 0
2, 1116960, Note_on_c, 2, 78, 50
2, 1117680, Note_off_c, 2, 78, 0
2, 1119360, Note_on_c, 2, 64, 50
2, 1119600, Note_off_c, 2, 64, 0
2, 1119600, Note_on_c, 2, 66, 50
2, 1119840, Note_off_c, 2, 66, 0
2, 1119840, Note_on_c, 2, 69, 50
2, 1120320, Note_off_c, 2, 69, 0
2, 1120320, Note_on_c, 2, 71, 50
2, 1120560, Note_off_c, 2, 71, 0
2, 1120560, Note_on_c, 2, 69, 50
2, 1121040, Note_off_c, 2, 69, 0
2, 1123440, Note_on_c, 2, 66, 50
2, 1123680, Note_off_c, 2, 66, 0
2, 1123680, Note_on_c, 2, 69, 50
2, 1124160, Note_off_c, 2, 69, 0
2, 1124160, Note_on_c, 2, 71, 50
2, 1124400, Note_off_c, 2, 71, 0
2, 1124400, Note_on_c, 2, 69, 50
2, 1124880, Note_off_c, 2, 69, 0
2, 1128720, Note_on_c, 2, 66, 50
2, 1128960, Note_off_c, 2, 66, 0
2, 1128960, Note_on_c, 2, 69, 50
2, 1129200, Note_off_c, 2, 69, 0
2, 1129200, Note_on_c, 2, 73, 50
2, 1129440, Note_off_c, 2, 73, 0
2, 1129440, Note_on_c, 2, 71, 50
2, 1129680, Note_off_c, 2, 71, 0
2, 1129680, Note_on_c, 2, 69, 50
2, 1129920, Note_off_c, 2, 69, 0
2, 1129920, Note_on_c, 2, 69, 50
2, 1130160, Note_off_c, 2, 69, 0
2, 1130160, Note_on_c, 2, 71, 50
2, 1130640, Note_off_c, 2, 71, 0
2, 1131360, Note_on_c, 2, 66, 50
2, 1131600, Note_off_c, 2, 66, 0
2, 1131600, Note_on_c, 2, 69, 50
2, 1132080, Note_off_c, 2, 69, 0
2, 1132080, Note_on_c, 2, 73, 50
2, 1132200, Note_off_c, 2, 73, 0
2, 1132200, Note_on_c, 2, 76, 50
2, 1132320, Note_off_c, 2, 76, 0
2, 1132320, Note_on_c, 2, 73, 50
2, 1133040, Note_off_c, 2, 73, 0
2, 1133040, Note_on_c, 2, 73, 50
2, 1133520, Note_off_c, 2, 73, 0
2, 1134000, Note_on_c, 2, 73, 50
2, 1134480, Note_off_c, 2, 73, 0
2, 1136400, Note_on_c, 2, 73, 50
2, 1136640, Note_off_c, 2, 73, 0
2, 1136640, Note_on_c, 2, 71, 50
2, 1137120, Note_off_c, 2, 71, 0
2, 1137120, Note_on_c, 2, 73, 50
2, 1137360, Note_off_c, 2, 73, 0
2, 1137360, Note_on_c, 2, 71, 50
2, 1137480, Note_off_c, 2, 71, 0
2, 1137480, Note_on_c, 2, 69, 50
2, 1137600, Note_off_c, 2, 69, 0
2, 1137600, Note_on_c, 2, 71, 50
2, 1137720, Note_off_c, 2, 71, 0
2, 1137720, Note_on_c, 2, 69, 50
2, 1137840, Note_off_c, 2, 69, 0
2, 1137840, Note_on_c, 2, 71, 50
2, 1137960, Note_off_c, 2, 71, 0
2, 1137960, Note_on_c, 2, 69, 50
2, 1138080, Note_off_c, 2, 69, 0
2, 1138080, Note_on_c, 2, 71, 50
2, 1138200, Note_off_c, 2, 71, 0
2, 1138200, Note_on_c, 2, 69, 50
2, 1139280, Note_off_c, 2, 69, 0
2, 1139280, Note_on_c, 2, 69, 50
2, 1139760, Note_off_c, 2, 69, 0
2, 1139760, Note_on_c, 2, 64, 50
2, 1140120, Note_off_c, 2, 64, 0
2, 1140120, Note_on_c, 2, 66, 50
2, 1140240, Note_off_c, 2, 66, 0
2, 1140240, Note_on_c, 2, 69, 50
2, 1140720, Note_off_c, 2, 69, 0
2, 1142640, Note_on_c, 2, 73, 50
2, 1142880, Note_off_c, 2, 73, 0
2, 1142880, Note_on_c, 2, 76, 50
2, 1143600, Note_off_c, 2, 76, 0
2, 1143840, Note_on_c, 2, 73, 50
2, 1144080, Note_off_c, 2, 73, 0
2, 1144080, Note_on_c, 2, 73, 50
2, 1144320, Note_off_c, 2, 73, 0
2, 1144320, Note_on_c, 2, 73, 50
2, 1144560, Note_off_c, 2, 73, 0
2, 1144560, Note_on_c, 2, 71, 50
2, 1144800, Note_off_c, 2, 71, 0
2, 1144800, Note_on_c, 2, 69, 50
2, 1145520, Note_off_c, 2, 69, 0
2, 1145520, Note_on_c, 2, 73, 50
2, 1145880, Note_off_c, 2, 73, 0
2, 1145880, Note_on_c, 2, 73, 50
2, 1146240, Note_off_c, 2, 73, 0
2, 1146240, Note_on_c, 2, 69, 50
2, 1146960, Note_off_c, 2, 69, 0
2, 1147680, Note_on_c, 2, 74, 50
2, 1147920, Note_off_c, 2, 74, 0
2, 1147920, Note_on_c, 2, 74, 50
2, 1148160, Note_off_c, 2, 74, 0
2, 1148160, Note_on_c, 2, 73, 50
2, 1148400, Note_off_c, 2, 73, 0
2, 1148400, Note_on_c, 2, 73, 50
2, 1148640, Note_off_c, 2, 73, 0
2, 1148640, Note_on_c, 2, 71, 50
2, 1148880, Note_off_c, 2, 71, 0
2, 1148880, Note_on_c, 2, 71, 50
2, 1149120, Note_off_c, 2, 71, 0
2, 1149120, Note_on_c, 2, 69, 50
2, 1149360, Note_off_c, 2, 69, 0
2, 1149360, Note_on_c, 2, 74, 50
2, 1149600, Note_off_c, 2, 74, 0
2, 1149600, Note_on_c, 2, 74, 50
2, 1149840, Note_off_c, 2, 74, 0
2, 1149840, Note_on_c, 2, 73, 50
2, 1150320, Note_off_c, 2, 73, 0
2, 1150320, Note_on_c, 2, 71, 50
2, 1150560, Note_off_c, 2, 71, 0
2, 1150560, Note_on_c, 2, 69, 50
2, 1150800, Note_off_c, 2, 69, 0
2, 1150800, Note_on_c, 2, 69, 50
2, 1150920, Note_off_c, 2, 69, 0
2, 1150920, Note_on_c, 2, 71, 50
2, 1151280, Note_off_c, 2, 71, 0
2, 1151280, Note_on_c, 2, 73, 50
2, 1151400, Note_off_c, 2, 73, 0
2, 1151400, Note_on_c, 2, 76, 50
2, 1151520, Note_off_c, 2, 76, 0
2, 1151520, Note_on_c, 2, 73, 50
2, 1152240, Note_off_c, 2, 73, 0
2, 1152480, Note_on_c, 2, 71, 50
2, 1152720, Note_off_c, 2, 71, 0
2, 1152720, Note_on_c, 2, 69, 50
2, 1152960, Note_off_c, 2, 69, 0
2, 1152960, Note_on_c, 2, 71, 50
2, 1153200, Note_off_c, 2, 71, 0
2, 1153200, Note_on_c, 2, 66, 50
2, 1153680, Note_off_c, 2, 66, 0
2, 1155600, Note_on_c, 2, 81, 50
2, 1156080, Note_off_c, 2, 81, 0
2, 1156080, Note_on_c, 2, 78, 50
2, 1156560, Note_off_c, 2, 78, 0
2, 1156560, Note_on_c, 2, 81, 50
2, 1157040, Note_off_c, 2, 81, 0
2, 1157040, Note_on_c, 2, 78, 50
2, 1157280, Note_off_c, 2, 78, 0
2, 1157280, Note_on_c, 2, 76, 50
2, 1157760, Note_off_c, 2, 76, 0
2, 1157760, Note_on_c, 2, 81, 50
2, 1158000, Note_off_c, 2, 81, 0
2, 1158000, Note_on_c, 2, 78, 50
2, 1158240, Note_off_c, 2, 78, 0
2, 1158240, Note_on_c, 2, 76, 50
2, 1158480, Note_off_c, 2, 76, 0
2, 1158480, Note_on_c, 2, 78, 50
2, 1158960, Note_off_c, 2, 78, 0
2, 1159680, Note_on_c, 2, 64, 50
2, 1159920, Note_off_c, 2, 64, 0
2, 1159920, Note_on_c, 2, 66, 50
2, 1160160, Note_off_c, 2, 66, 0
2, 1160160, Note_on_c, 2, 69, 50
2, 1160640, Note_off_c, 2, 69, 0
2, 1160640, Note_on_c, 2, 71, 50
2, 1160880, Note_off_c, 2, 71, 0
2, 1160880, Note_on_c, 2, 69, 50
2, 1161360, Note_off_c, 2, 69, 0
2, 1163760, Note_on_c, 2, 66, 50
2, 1164000, Note_off_c, 2, 66, 0
2, 1164000, Note_on_c, 2, 69, 50
2, 1164480, Note_off_c, 2, 69, 0
2, 1164480, Note_on_c, 2, 71, 50
2, 1164720, Note_off_c, 2, 71, 0
2, 1164720, Note_on_c, 2, 69, 50
2, 1165200, Note_off_c, 2, 69, 0
2, 1182960, Note_on_c, 2, 73, 50
2, 1183200, Note_off_c, 2, 73, 0
2, 1183200, Note_on_c, 2, 76, 50
2, 1183920, Note_off_c, 2, 76, 0
2, 1184160, Note_on_c, 2, 73, 50
2, 1184400, Note_off_c, 2, 73, 0
2, 1184400, Note_on_c, 2, 73, 50
2, 1184640, Note_off_c, 2, 73, 0
2, 1184640, Note_on_c, 2, 73, 50
2, 1184880, Note_off_c, 2, 73, 0
2, 1184880, Note_on_c, 2, 71, 50
2, 1185120, Note_off_c, 2, 71, 0
2, 1185120, Note_on_c, 2, 69, 50
2, 1185840, Note_off_c, 2, 69, 0
2, 1185840, Note_on_c, 2, 73, 50
2, 1186200, Note_off_c, 2, 73, 0
2, 1186200, Note_on_c, 2, 73, 50
2, 1186560, Note_off_c, 2, 73, 0
2, 1186560, Note_on_c, 2, 69, 50
2, 1187280, Note_off_c, 2, 69, 0
2, 1188000, Note_on_c, 2, 74, 50
2, 1188240, Note_off_c, 2, 74, 0
2, 1188240, Note_on_c, 2, 74, 50
2, 1188480, Note_off_c, 2, 74, 0
2, 1188480, Note_on_c, 2, 73, 50
2, 1188720, Note_off_c, 2, 73, 0
2, 1188720, Note_on_c, 2, 73, 50
2, 1188960, Note_off_c, 2, 73, 0
2, 1188960, Note_on_c, 2, 71, 50
2, 1189200, Note_off_c, 2, 71, 0
2, 1189200, Note_on_c, 2, 71, 50
2, 1189440, Note_off_c, 2, 71, 0
2, 1189440, Note_on_c, 2, 69, 50
2, 1189680, Note_off_c, 2, 69, 0
2, 1189680, Note_on_c, 2, 74, 50
2, 1189920, Note_off_c, 2, 74, 0
2, 1189920, Note_on_c, 2, 74, 50
2, 1190160, Note_off_c, 2, 74, 0
2, 1190160, Note_on_c, 2, 73, 50
2, 1190640, Note_off_c, 2, 73, 0
2, 1190640, Note_on_c, 2, 71, 50
2, 1190880, Note_off_c, 2, 71, 0
2, 1190880, Note_on_c, 2, 69, 50
2, 1191120, Note_off_c, 2, 69, 0
2, 1191120, Note_on_c, 2, 69, 50
2, 1191240, Note_off_c, 2, 69, 0
2, 1191240, Note_on_c, 2, 71, 50
2, 1191600, Note_off_c, 2, 71, 0
2, 1191600, Note_on_c, 2, 73, 50
2, 1191720, Note_off_c, 2, 73, 0
2, 1191720, Note_on_c, 2, 76, 50
2, 1191840, Note_off_c, 2, 76, 0
2, 1191840, Note_on_c, 2, 73, 50
2, 1192560, Note_off_c, 2, 73, 0
2, 1192800, Note_on_c, 2, 71, 50
2, 1193040, Note_off_c, 2, 71, 0
2, 1193040, Note_on_c, 2, 69, 50
2, 1193280, Note_off_c, 2, 69, 0
2, 1193280, Note_on_c, 2, 71, 50
2, 1193520, Note_off_c, 2, 71, 0
2, 1193520, Note_on_c, 2, 66, 50
2, 1194000, Note_off_c, 2, 66, 0
2, 1195920, Note_on_c, 2, 81, 50
2, 1196400, Note_off_c, 2, 81, 0
2, 1196400, Note_on_c, 2, 78, 50
2, 1196880, Note_off_c, 2, 78, 0
2, 1196880, Note_on_c, 2, 81, 50
2, 1197360, Note_off_c, 2, 81, 0
2, 1197360, Note_on_c, 2, 78, 50
2, 1197600, Note_off_c, 2, 78, 0
2, 1197600, Note_on_c, 2, 76, 50
2, 1198080, Note_off_c, 2, 76, 0
2, 1198080, Note_on_c, 2, 81, 50
2, 1198320, Note_off_c, 2, 81, 0
2, 1198320, Note_on_c, 2, 78, 50
2, 1198560, Note_off_c, 2, 78, 0
2, 1198560, Note_on_c, 2, 76, 50
2, 1198800, Note_off_c, 2, 76, 0
2, 1198800, Note_on_c, 2, 78, 50
2, 1199280, Note_off_c, 2, 78, 0
2, 1200000, Note_on_c, 2, 64, 50
2, 1200240, Note_off_c, 2, 64, 0
2, 1200240, Note_on_c, 2, 66, 50
2, 1200480, Note_off_c, 2, 66, 0
2, 1200480, Note_on_c, 2, 69, 50
2, 1200960, Note_off_c, 2, 69, 0
2, 1200960, Note_on_c, 2, 71, 50
2, 1201200, Note_off_c, 2, 71, 0
2, 1201200, Note_on_c, 2, 69, 50
2, 1201680, Note_off_c, 2, 69, 0
2, 1204080, Note_on_c, 2, 66, 50
2, 1204320, Note_off_c, 2, 66, 0
2, 1204320, Note_on_c, 2, 69, 50
2, 1204800, Note_off_c, 2, 69, 0
2, 1204800, Note_on_c, 2, 71, 50
2, 1205040, Note_off_c, 2, 71, 0
2, 1205040, Note_on_c, 2, 69, 50
2, 1205520, Note_off_c, 2, 69, 0
2, 1207440, Note_on_c, 2, 81, 50
2, 1207920, Note_off_c, 2, 81, 0
2, 1207920, Note_on_c, 2, 78, 50
2, 1208160, Note_off_c, 2, 78, 0
2, 1208160, Note_on_c, 2, 76, 50
2, 1208400, Note_off_c, 2, 76, 0
2, 1208400, Note_on_c, 2, 78, 50
2, 1208640, Note_off_c, 2, 78, 0
2, 1208640, Note_on_c, 2, 76, 50
2, 1208880, Note_off_c, 2, 76, 0
2, 1208880, Note_on_c, 2, 78, 50
2, 1209120, Note_off_c, 2, 78, 0
2, 1209120, Note_on_c, 2, 76, 50
2, 1209360, Note_off_c, 2, 76, 0
2, 1209360, Note_on_c, 2, 78, 50
2, 1209840, Note_off_c, 2, 78, 0
2, 1211280, Note_on_c, 2, 81, 50
2, 1211760, Note_off_c, 2, 81, 0
2, 1211760, Note_on_c, 2, 78, 50
2, 1212000, Note_off_c, 2, 78, 0
2, 1212000, Note_on_c, 2, 76, 50
2, 1212240, Note_off_c, 2, 76, 0
2, 1212240, Note_on_c, 2, 78, 50
2, 1212480, Note_off_c, 2, 78, 0
2, 1212480, Note_on_c, 2, 76, 50
2, 1212720, Note_off_c, 2, 76, 0
2, 1212720, Note_on_c, 2, 78, 50
2, 1212960, Note_off_c, 2, 78, 0
2, 1212960, Note_on_c, 2, 76, 50
2, 1213200, Note_off_c, 2, 76, 0
2, 1213200, Note_on_c, 2, 78, 50
2, 1213680, Note_off_c, 2, 78, 0
2, 1215120, Note_on_c, 2, 81, 50
2, 1215600, Note_off_c, 2, 81, 0
2, 1215600, Note_on_c, 2, 78, 50
2, 1215840, Note_off_c, 2, 78, 0
2, 1215840, Note_on_c, 2, 76, 50
2, 1216080, Note_off_c, 2, 76, 0
2, 1216080, Note_on_c, 2, 78, 50
2, 1216320, Note_off_c, 2, 78, 0
2, 1216320, Note_on_c, 2, 76, 50
2, 1216560, Note_off_c, 2, 76, 0
2, 1216560, Note_on_c, 2, 78, 50
2, 1216800, Note_off_c, 2, 78, 0
2, 1216800, Note_on_c, 2, 76, 50
2, 1217040, Note_off_c, 2, 76, 0
2, 1217040, Note_on_c, 2, 78, 50
2, 1217520, Note_off_c, 2, 78, 0
2, 1218960, Note_on_c, 2, 81, 50
2, 1219440, Note_off_c, 2, 81, 0
2, 1219440, Note_on_c, 2, 78, 50
2, 1219680, Note_off_c, 2, 78, 0
2, 1219680, Note_on_c, 2, 76, 50
2, 1219920, Note_off_c, 2, 76, 0
2, 1219920, Note_on_c, 2, 78, 50
2, 1220160, Note_off_c, 2, 78, 0
2, 1220160, Note_on_c, 2, 76, 50
2, 1220400, Note_off_c, 2, 76, 0
2, 1220400, Note_on_c, 2, 78, 50
2, 1220640, Note_off_c, 2, 78, 0
2, 1220640, Note_on_c, 2, 76, 50
2, 1220880, Note_off_c, 2, 76, 0
2, 1220880, Note_on_c, 2, 78, 50
2, 1221360, Note_off_c, 2, 78, 0
2, 1222800, Note_on_c, 2, 81, 50
2, 1223280, Note_off_c, 2, 81, 0
2, 1223280, Note_on_c, 2, 78, 50
2, 1223520, Note_off_c, 2, 78, 0
2, 1223520, Note_on_c, 2, 76, 50
2, 1223760, Note_off_c, 2, 76, 0
2, 1223760, Note_on_c, 2, 78, 50
2, 1224000, Note_off_c, 2, 78, 0
2, 1224000, Note_on_c, 2, 76, 50
2, 1224240, Note_off_c, 2, 76, 0
2, 1224240, Note_on_c, 2, 78, 50
2, 1224480, Note_off_c, 2, 78, 0
2, 1224480, Note_on_c, 2, 76, 50
2, 1224720, Note_off_c, 2, 76, 0
2, 1224720, Note_on_c, 2, 78, 50
2, 1225200, Note_off_c, 2, 78, 0
2, 1226640, Note_on_c, 2, 81, 50
2, 1227120, Note_off_c, 2, 81, 0
2, 1227120, Note_on_c, 2, 78, 50
2, 1227360, Note_off_c, 2, 78, 0
2, 1227360, Note_on_c, 2, 76, 50
2, 1227600, Note_off_c, 2, 76, 0
2, 1227600, Note_on_c, 2, 78, 50
2, 1227840, Note_off_c, 2, 78, 0
2, 1227840, Note_on_c, 2, 76, 50
2, 1228080, Note_off_c, 2, 76, 0
2, 1228080, Note_on_c, 2, 78, 50
2, 1228320, Note_off_c, 2, 78, 0
2, 1228320, Note_on_c, 2, 76, 50
2, 1228560, Note_off_c, 2, 76, 0
2, 1228560, Note_on_c, 2, 78, 50
2, 1229040, Note_off_c, 2, 78, 0
2, 1230480, Note_on_c, 2, 81, 50
2, 1230960, Note_off_c, 2, 81, 0
2, 1230960, Note_on_c, 2, 78, 50
2, 1231200, Note_off_c, 2, 78, 0
2, 1231200, Note_on_c, 2, 76, 50
2, 1231440, Note_off_c, 2, 76, 0
2, 1231440, Note_on_c, 2, 78, 50
2, 1231680, Note_off_c, 2, 78, 0
2, 1231680, Note_on_c, 2, 76, 50
2, 1231920, Note_off_c, 2, 76, 0
2, 1231920, Note_on_c, 2, 78, 50
2, 1232160, Note_off_c, 2, 78, 0
2, 1232160, Note_on_c, 2, 76, 50
2, 1232400, Note_off_c, 2, 76, 0
2, 1232400, Note_on_c, 2, 78, 50
2, 1232880, Note_off_c, 2, 78, 0
2, 1239360, Note_on_c, 2, 75, 50
2, 1240080, Note_off_c, 2, 75, 0
2, 1240200, Note_on_c, 2, 75, 50
2, 1240560, Note_off_c, 2, 75, 0
2, 1240800, Note_on_c, 2, 75, 50
2, 1241040, Note_off_c, 2, 75, 0
2, 1241040, Note_on_c, 2, 73, 50
2, 1241160, Note_off_c, 2, 73, 0
2, 1241280, Note_on_c, 2, 73, 50
2, 1241520, Note_off_c, 2, 73, 0
2, 1241520, Note_on_c, 2, 73, 50
2, 1242120, Note_off_c, 2, 73, 0
2, 1242240, Note_on_c, 2, 73, 50
2, 1242480, Note_off_c, 2, 73, 0
2, 1242480, Note_on_c, 2, 71, 50
2, 1242720, Note_off_c, 2, 71, 0
2, 1242720, Note_on_c, 2, 71, 50
2, 1242840, Note_off_c, 2, 71, 0
2, 1242960, Note_on_c, 2, 71, 50
2, 1243440, Note_off_c, 2, 71, 0
2, 1243680, Note_on_c, 2, 70, 50
2, 1243920, Note_off_c, 2, 70, 0
2, 1243920, Note_on_c, 2, 66, 50
2, 1244280, Note_off_c, 2, 66, 0
2, 1244400, Note_on_c, 2, 66, 50
2, 1244640, Note_off_c, 2, 66, 0
2, 1244640, Note_on_c, 2, 73, 50
2, 1244880, Note_off_c, 2, 73, 0
2, 1244880, Note_on_c, 2, 75, 50
2, 1245000, Note_off_c, 2, 75, 0
2, 1245240, Note_on_c, 2, 75, 50
2, 1245840, Note_off_c, 2, 75, 0
2, 1245840, Note_on_c, 2, 71, 50
2, 1246080, Note_off_c, 2, 71, 0
2, 1246080, Note_on_c, 2, 66, 50
2, 1246320, Note_off_c, 2, 66, 0
2, 1246320, Note_on_c, 2, 64, 50
2, 1246560, Note_off_c, 2, 64, 0
2, 1246560, Note_on_c, 2, 63, 50
2, 1247400, Note_off_c, 2, 63, 0
2, 1247760, Note_on_c, 2, 71, 50
2, 1248000, Note_off_c, 2, 71, 0
2, 1248000, Note_on_c, 2, 75, 50
2, 1249080, Note_off_c, 2, 75, 0
2, 1249200, Note_on_c, 2, 71, 50
2, 1249440, Note_off_c, 2, 71, 0
2, 1249440, Note_on_c, 2, 75, 50
2, 1250520, Note_off_c, 2, 75, 0
2, 1250520, Note_on_c, 2, 71, 50
2, 1250880, Note_off_c, 2, 71, 0
2, 1250880, Note_on_c, 2, 78, 50
2, 1251600, Note_off_c, 2, 78, 0
2, 1251600, Note_on_c, 2, 78, 50
2, 1251840, Note_off_c, 2, 78, 0
2, 1251840, Note_on_c, 2, 76, 50
2, 1251960, Note_off_c, 2, 76, 0
2, 1252080, Note_on_c, 2, 75, 50
2, 1252320, Note_off_c, 2, 75, 0
2, 1252320, Note_on_c, 2, 76, 50
2, 1253400, Note_off_c, 2, 76, 0
2, 1253520, Note_on_c, 2, 71, 50
2, 1253760, Note_off_c, 2, 71, 0
2, 1253760, Note_on_c, 2, 76, 50
2, 1254360, Note_off_c, 2, 76, 0
2, 1254480, Note_on_c, 2, 76, 50
2, 1254720, Note_off_c, 2, 76, 0
2, 1254720, Note_on_c, 2, 75, 50
2, 1254960, Note_off_c, 2, 75, 0
2, 1254960, Note_on_c, 2, 73, 50
2, 1255200, Note_off_c, 2, 73, 0
2, 1255200, Note_on_c, 2, 75, 50
2, 1255800, Note_off_c, 2, 75, 0
2, 1255920, Note_on_c, 2, 70, 50
2, 1256160, Note_off_c, 2, 70, 0
2, 1256160, Note_on_c, 2, 71, 50
2, 1256400, Note_off_c, 2, 71, 0
2, 1256400, Note_on_c, 2, 76, 50
2, 1256640, Note_off_c, 2, 76, 0
2, 1256640, Note_on_c, 2, 75, 50
2, 1257360, Note_off_c, 2, 75, 0
2, 1258080, Note_on_c, 2, 75, 50
2, 1259400, Note_off_c, 2, 75, 0
2, 1259520, Note_on_c, 2, 75, 50
2, 1259760, Note_off_c, 2, 75, 0
2, 1259760, Note_on_c, 2, 73, 50
2, 1260000, Note_off_c, 2, 73, 0
2, 1260000, Note_on_c, 2, 73, 50
2, 1260240, Note_off_c, 2, 73, 0
2, 1260240, Note_on_c, 2, 73, 50
2, 1260720, Note_off_c, 2, 73, 0
2, 1260960, Note_on_c, 2, 73, 50
2, 1261200, Note_off_c, 2, 73, 0
2, 1261200, Note_on_c, 2, 71, 50
2, 1261320, Note_off_c, 2, 71, 0
2, 1261440, Note_on_c, 2, 71, 50
2, 1261560, Note_off_c, 2, 71, 0
2, 1261680, Note_on_c, 2, 71, 50
2, 1262160, Note_off_c, 2, 71, 0
2, 1262400, Note_on_c, 2, 70, 50
2, 1262640, Note_off_c, 2, 70, 0
2, 1262640, Note_on_c, 2, 66, 50
2, 1262880, Note_off_c, 2, 66, 0
2, 1263120, Note_on_c, 2, 66, 50
2, 1263360, Note_off_c, 2, 66, 0
2, 1263360, Note_on_c, 2, 75, 50
2, 1263720, Note_off_c, 2, 75, 0
2, 1263840, Note_on_c, 2, 75, 50
2, 1264320, Note_off_c, 2, 75, 0
2, 1264560, Note_on_c, 2, 71, 50
2, 1264800, Note_off_c, 2, 71, 0
2, 1264800, Note_on_c, 2, 66, 50
2, 1265040, Note_off_c, 2, 66, 0
2, 1265040, Note_on_c, 2, 64, 50
2, 1265280, Note_off_c, 2, 64, 0
2, 1265280, Note_on_c, 2, 63, 50
2, 1266000, Note_off_c, 2, 63, 0
2, 1266480, Note_on_c, 2, 71, 50
2, 1266720, Note_off_c, 2, 71, 0
2, 1266720, Note_on_c, 2, 75, 50
2, 1267680, Note_off_c, 2, 75, 0
2, 1267680, Note_on_c, 2, 73, 50
2, 1267920, Note_off_c, 2, 73, 0
2, 1267920, Note_on_c, 2, 71, 50
2, 1268160, Note_off_c, 2, 71, 0
2, 1268160, Note_on_c, 2, 75, 50
2, 1269360, Note_off_c, 2, 75, 0
2, 1269360, Note_on_c, 2, 71, 50
2, 1269600, Note_off_c, 2, 71, 0
2, 1269600, Note_on_c, 2, 78, 50
2, 1270320, Note_off_c, 2, 78, 0
2, 1270320, Note_on_c, 2, 78, 50
2, 1270560, Note_off_c, 2, 78, 0
2, 1270560, Note_on_c, 2, 76, 50
2, 1270800, Note_off_c, 2, 76, 0
2, 1270800, Note_on_c, 2, 75, 50
2, 1271040, Note_off_c, 2, 75, 0
2, 1271040, Note_on_c, 2, 76, 50
2, 1272000, Note_off_c, 2, 76, 0
2, 1272240, Note_on_c, 2, 71, 50
2, 1272480, Note_off_c, 2, 71, 0
2, 1272480, Note_on_c, 2, 76, 50
2, 1273200, Note_off_c, 2, 76, 0
2, 1273200, Note_on_c, 2, 76, 50
2, 1273440, Note_off_c, 2, 76, 0
2, 1273440, Note_on_c, 2, 75, 50
2, 1273680, Note_off_c, 2, 75, 0
2, 1273680, Note_on_c, 2, 73, 50
2, 1273920, Note_off_c, 2, 73, 0
2, 1273920, Note_on_c, 2, 75, 50
2, 1274520, Note_off_c, 2, 75, 0
2, 1274640, Note_on_c, 2, 70, 50
2, 1274880, Note_off_c, 2, 70, 0
2, 1274880, Note_on_c, 2, 71, 50
2, 1275120, Note_off_c, 2, 71, 0
2, 1275120, Note_on_c, 2, 76, 50
2, 1275360, Note_off_c, 2, 76, 0
2, 1275360, Note_on_c, 2, 75, 50
2, 1276200, Note_off_c, 2, 75, 0
2, 1276800, Note_on_c, 2, 83, 50
2, 1277400, Note_off_c, 2, 83, 0
2, 1277520, Note_on_c, 2, 83, 50
2, 1278120, Note_off_c, 2, 83, 0
2, 1278240, Note_on_c, 2, 83, 50
2, 1278480, Note_off_c, 2, 83, 0
2, 1278480, Note_on_c, 2, 82, 50
2, 1278720, Note_off_c, 2, 82, 0
2, 1278720, Note_on_c, 2, 80, 50
2, 1278840, Note_off_c, 2, 80, 0
2, 1278960, Note_on_c, 2, 80, 50
2, 1279440, Note_off_c, 2, 80, 0
2, 1279680, Note_on_c, 2, 83, 50
2, 1280280, Note_off_c, 2, 83, 0
2, 1280400, Note_on_c, 2, 83, 50
2, 1281000, Note_off_c, 2, 83, 0
2, 1281120, Note_on_c, 2, 83, 50
2, 1281360, Note_off_c, 2, 83, 0
2, 1281360, Note_on_c, 2, 82, 50
2, 1281600, Note_off_c, 2, 82, 0
2, 1281600, Note_on_c, 2, 80, 50
2, 1281840, Note_off_c, 2, 80, 0
2, 1281840, Note_on_c, 2, 80, 50
2, 1282200, Note_off_c, 2, 80, 0
2, 1282560, Note_on_c, 2, 73, 50
2, 1282920, Note_off_c, 2, 73, 0
2, 1282920, Note_on_c, 2, 75, 50
2, 1283280, Note_off_c, 2, 75, 0
2, 1283400, Note_on_c, 2, 75, 50
2, 1284000, Note_off_c, 2, 75, 0
2, 1284000, Note_on_c, 2, 75, 50
2, 1284240, Note_off_c, 2, 75, 0
2, 1284240, Note_on_c, 2, 73, 50
2, 1284480, Note_off_c, 2, 73, 0
2, 1284480, Note_on_c, 2, 73, 50
2, 1284600, Note_off_c, 2, 73, 0
2, 1284720, Note_on_c, 2, 73, 50
2, 1285320, Note_off_c, 2, 73, 0
2, 1285440, Note_on_c, 2, 73, 50
2, 1285680, Note_off_c, 2, 73, 0
2, 1285680, Note_on_c, 2, 71, 50
2, 1285920, Note_off_c, 2, 71, 0
2, 1285920, Note_on_c, 2, 71, 50
2, 1286040, Note_off_c, 2, 71, 0
2, 1286160, Note_on_c, 2, 71, 50
2, 1286640, Note_off_c, 2, 71, 0
2, 1286880, Note_on_c, 2, 70, 50
2, 1287120, Note_off_c, 2, 70, 0
2, 1287120, Note_on_c, 2, 66, 50
2, 1287480, Note_off_c, 2, 66, 0
2, 1287600, Note_on_c, 2, 66, 50
2, 1287840, Note_off_c, 2, 66, 0
2, 1287840, Note_on_c, 2, 73, 50
2, 1288080, Note_off_c, 2, 73, 0
2, 1288080, Note_on_c, 2, 75, 50
2, 1288320, Note_off_c, 2, 75, 0
2, 1288320, Note_on_c, 2, 75, 50
2, 1288800, Note_off_c, 2, 75, 0
2, 1289040, Note_on_c, 2, 71, 50
2, 1289280, Note_off_c, 2, 71, 0
2, 1289280, Note_on_c, 2, 66, 50
2, 1289520, Note_off_c, 2, 66, 0
2, 1289520, Note_on_c, 2, 64, 50
2, 1289760, Note_off_c, 2, 64, 0
2, 1289760, Note_on_c, 2, 63, 50
2, 1290720, Note_off_c, 2, 63, 0
2, 1299840, Note_on_c, 2, 83, 50
2, 1300440, Note_off_c, 2, 83, 0
2, 1300560, Note_on_c, 2, 83, 50
2, 1301160, Note_off_c, 2, 83, 0
2, 1301280, Note_on_c, 2, 83, 50
2, 1301520, Note_off_c, 2, 83, 0
2, 1301520, Note_on_c, 2, 82, 50
2, 1301760, Note_off_c, 2, 82, 0
2, 1301760, Note_on_c, 2, 80, 50
2, 1302000, Note_off_c, 2, 80, 0
2, 1302000, Note_on_c, 2, 80, 50
2, 1302480, Note_off_c, 2, 80, 0
2, 1302720, Note_on_c, 2, 83, 50
2, 1303440, Note_off_c, 2, 83, 0
2, 1303440, Note_on_c, 2, 83, 50
2, 1304040, Note_off_c, 2, 83, 0
2, 1304160, Note_on_c, 2, 83, 50
2, 1304520, Note_off_c, 2, 83, 0
2, 1304640, Note_on_c, 2, 80, 50
2, 1304880, Note_off_c, 2, 80, 0
2, 1304880, Note_on_c, 2, 80, 50
2, 1305240, Note_off_c, 2, 80, 0
2, 1305600, Note_on_c, 2, 75, 50
2, 1306200, Note_off_c, 2, 75, 0
2, 1306320, Note_on_c, 2, 75, 50
2, 1306800, Note_off_c, 2, 75, 0
2, 1307040, Note_on_c, 2, 75, 50
2, 1307280, Note_off_c, 2, 75, 0
2, 1307280, Note_on_c, 2, 73, 50
2, 1307520, Note_off_c, 2, 73, 0
2, 1307520, Note_on_c, 2, 73, 50
2, 1307760, Note_off_c, 2, 73, 0
2, 1307760, Note_on_c, 2, 73, 50
2, 1308360, Note_off_c, 2, 73, 0
2, 1308480, Note_on_c, 2, 73, 50
2, 1308720, Note_off_c, 2, 73, 0
2, 1308720, Note_on_c, 2, 71, 50
2, 1308960, Note_off_c, 2, 71, 0
2, 1308960, Note_on_c, 2, 71, 50
2, 1309080, Note_off_c, 2, 71, 0
2, 1309200, Note_on_c, 2, 71, 50
2, 1309680, Note_off_c, 2, 71, 0
2, 1309920, Note_on_c, 2, 70, 50
2, 1310160, Note_off_c, 2, 70, 0
2, 1310160, Note_on_c, 2, 66, 50
2, 1310520, Note_off_c, 2, 66, 0
2, 1310640, Note_on_c, 2, 66, 50
2, 1310880, Note_off_c, 2, 66, 0
2, 1311120, Note_on_c, 2, 75, 50
2, 1311360, Note_off_c, 2, 75, 0
2, 1311360, Note_on_c, 2, 75, 50
2, 1311960, Note_off_c, 2, 75, 0
2, 1312080, Note_on_c, 2, 71, 50
2, 1312320, Note_off_c, 2, 71, 0
2, 1312320, Note_on_c, 2, 66, 50
2, 1312560, Note_off_c, 2, 66, 0
2, 1312560, Note_on_c, 2, 64, 50
2, 1312800, Note_off_c, 2, 64, 0
2, 1312800, Note_on_c, 2, 63, 50
2, 1313640, Note_off_c, 2, 63, 0
2, 1314000, Note_on_c, 2, 71, 50
2, 1314360, Note_off_c, 2, 71, 0
2, 1314360, Note_on_c, 2, 75, 50
2, 1315320, Note_off_c, 2, 75, 0
2, 1315320, Note_on_c, 2, 73, 50
2, 1315560, Note_off_c, 2, 73, 0
2, 1315560, Note_on_c, 2, 71, 50
2, 1315920, Note_off_c, 2, 71, 0
2, 1315920, Note_on_c, 2, 75, 50
2, 1317120, Note_off_c, 2, 75, 0
2, 1317120, Note_on_c, 2, 78, 50
2, 1317840, Note_off_c, 2, 78, 0
2, 1317960, Note_on_c, 2, 78, 50
2, 1318200, Note_off_c, 2, 78, 0
2, 1318320, Note_on_c, 2, 75, 50
2, 1318560, Note_off_c, 2, 75, 0
2, 1318560, Note_on_c, 2, 76, 50
2, 1319640, Note_off_c, 2, 76, 0
2, 1319760, Note_on_c, 2, 71, 50
2, 1320000, Note_off_c, 2, 71, 0
2, 1320000, Note_on_c, 2, 76, 50
2, 1320600, Note_off_c, 2, 76, 0
2, 1320720, Note_on_c, 2, 76, 50
2, 1320960, Note_off_c, 2, 76, 0
2, 1320960, Note_on_c, 2, 75, 50
2, 1321200, Note_off_c, 2, 75, 0
2, 1321200, Note_on_c, 2, 73, 50
2, 1321440, Note_off_c, 2, 73, 0
2, 1321440, Note_on_c, 2, 75, 50
2, 1321920, Note_off_c, 2, 75, 0
2, 1322160, Note_on_c, 2, 70, 50
2, 1322400, Note_off_c, 2, 70, 0
2, 1322400, Note_on_c, 2, 71, 50
2, 1322520, Note_off_c, 2, 71, 0
2, 1322640, Note_on_c, 2, 76, 50
2, 1322880, Note_off_c, 2, 76, 0
2, 1322880, Note_on_c, 2, 75, 50
2, 1323840, Note_off_c, 2, 75, 0
2, 1324320, Note_on_c, 2, 75, 50
2, 1324920, Note_off_c, 2, 75, 0
2, 1325040, Note_on_c, 2, 75, 50
2, 1325400, Note_off_c, 2, 75, 0
2, 1325760, Note_on_c, 2, 75, 50
2, 1326000, Note_off_c, 2, 75, 0
2, 1326000, Note_on_c, 2, 73, 50
2, 1326120, Note_off_c, 2, 73, 0
2, 1326240, Note_on_c, 2, 73, 50
2, 1326360, Note_off_c, 2, 73, 0
2, 1326480, Note_on_c, 2, 73, 50
2, 1327080, Note_off_c, 2, 73, 0
2, 1327200, Note_on_c, 2, 73, 50
2, 1327440, Note_off_c, 2, 73, 0
2, 1327440, Note_on_c, 2, 71, 50
2, 1327920, Note_off_c, 2, 71, 0
2, 1327920, Note_on_c, 2, 71, 50
2, 1328640, Note_off_c, 2, 71, 0
2, 1328640, Note_on_c, 2, 70, 50
2, 1328880, Note_off_c, 2, 70, 0
2, 1328880, Note_on_c, 2, 66, 50
2, 1329240, Note_off_c, 2, 66, 0
2, 1329360, Note_on_c, 2, 66, 50
2, 1329600, Note_off_c, 2, 66, 0
2, 1329600, Note_on_c, 2, 73, 50
2, 1329840, Note_off_c, 2, 73, 0
2, 1329840, Note_on_c, 2, 75, 50
2, 1330080, Note_off_c, 2, 75, 0
2, 1330080, Note_on_c, 2, 75, 50
2, 1330800, Note_off_c, 2, 75, 0
2, 1330920, Note_on_c, 2, 71, 50
2, 1331160, Note_off_c, 2, 71, 0
2, 1331280, Note_on_c, 2, 64, 50
2, 1331520, Note_off_c, 2, 64, 0
2, 1331520, Note_on_c, 2, 63, 50
2, 1332480, Note_off_c, 2, 63, 0
2, 1340400, Note_on_c, 2, 45, 50
2, 1340640, Note_off_c, 2, 45, 0
2, 1340640, Note_on_c, 2, 52, 50
2, 1340880, Note_off_c, 2, 52, 0
2, 1340880, Note_on_c, 2, 57, 50
2, 1341120, Note_off_c, 2, 57, 0
2, 1341120, Note_on_c, 2, 60, 50
2, 1341360, Note_off_c, 2, 60, 0
2, 1341360, Note_on_c, 2, 57, 50
2, 1341600, Note_off_c, 2, 57, 0
2, 1341600, Note_on_c, 2, 52, 50
2, 1341840, Note_off_c, 2, 52, 0
2, 1341840, Note_on_c, 2, 45, 50
2, 1342080, Note_off_c, 2, 45, 0
2, 1342080, Note_on_c, 2, 52, 50
2, 1342320, Note_off_c, 2, 52, 0
2, 1342320, Note_on_c, 2, 45, 50
2, 1342560, Note_off_c, 2, 45, 0
2, 1342560, Note_on_c, 2, 52, 50
2, 1342800, Note_off_c, 2, 52, 0
2, 1342800, Note_on_c, 2, 57, 50
2, 1343040, Note_off_c, 2, 57, 0
2, 1343040, Note_on_c, 2, 60, 50
2, 1343280, Note_off_c, 2, 60, 0
2, 1343280, Note_on_c, 2, 57, 50
2, 1343520, Note_off_c, 2, 57, 0
2, 1343520, Note_on_c, 2, 52, 50
2, 1343760, Note_off_c, 2, 52, 0
2, 1343760, Note_on_c, 2, 45, 50
2, 1344000, Note_off_c, 2, 45, 0
2, 1344000, Note_on_c, 2, 52, 50
2, 1344240, Note_off_c, 2, 52, 0
2, 1344240, Note_on_c, 2, 47, 50
2, 1344480, Note_off_c, 2, 47, 0
2, 1344480, Note_on_c, 2, 54, 50
2, 1344720, Note_off_c, 2, 54, 0
2, 1344720, Note_on_c, 2, 57, 50
2, 1344960, Note_off_c, 2, 57, 0
2, 1344960, Note_on_c, 2, 59, 50
2, 1345200, Note_off_c, 2, 59, 0
2, 1345200, Note_on_c, 2, 57, 50
2, 1345440, Note_off_c, 2, 57, 0
2, 1345440, Note_on_c, 2, 54, 50
2, 1345680, Note_off_c, 2, 54, 0
2, 1345680, Note_on_c, 2, 48, 50
2, 1345920, Note_off_c, 2, 48, 0
2, 1345920, Note_on_c, 2, 50, 50
2, 1346160, Note_off_c, 2, 50, 0
2, 1346160, Note_on_c, 2, 47, 50
2, 1346400, Note_off_c, 2, 47, 0
2, 1346400, Note_on_c, 2, 52, 50
2, 1346640, Note_off_c, 2, 52, 0
2, 1346640, Note_on_c, 2, 57, 50
2, 1346880, Note_off_c, 2, 57, 0
2, 1346880, Note_on_c, 2, 58, 50
2, 1347120, Note_off_c, 2, 58, 0
2, 1347120, Note_on_c, 2, 57, 50
2, 1347360, Note_off_c, 2, 57, 0
2, 1347360, Note_on_c, 2, 52, 50
2, 1347600, Note_off_c, 2, 52, 0
2, 1347600, Note_on_c, 2, 39, 50
2, 1347840, Note_off_c, 2, 39, 0
2, 1347840, Note_on_c, 2, 52, 50
2, 1348080, Note_off_c, 2, 52, 0
2, 1348320, Note_on_c, 2, 53, 50
2, 1348560, Note_off_c, 2, 53, 0
2, 1348560, Note_on_c, 2, 57, 50
2, 1348800, Note_off_c, 2, 57, 0
2, 1348800, Note_on_c, 2, 60, 50
2, 1349040, Note_off_c, 2, 60, 0
2, 1349040, Note_on_c, 2, 57, 50
2, 1349280, Note_off_c, 2, 57, 0
2, 1349280, Note_on_c, 2, 53, 50
2, 1349520, Note_off_c, 2, 53, 0
2, 1349520, Note_on_c, 2, 48, 50
2, 1349760, Note_off_c, 2, 48, 0
2, 1349760, Note_on_c, 2, 53, 50
2, 1350000, Note_off_c, 2, 53, 0
2, 1350000, Note_on_c, 2, 45, 50
2, 1350240, Note_off_c, 2, 45, 0
2, 1350240, Note_on_c, 2, 52, 50
2, 1350480, Note_off_c, 2, 52, 0
2, 1350480, Note_on_c, 2, 57, 50
2, 1350720, Note_off_c, 2, 57, 0
2, 1350720, Note_on_c, 2, 60, 50
2, 1350960, Note_off_c, 2, 60, 0
2, 1350960, Note_on_c, 2, 57, 50
2, 1351200, Note_off_c, 2, 57, 0
2, 1351200, Note_on_c, 2, 52, 50
2, 1351440, Note_off_c, 2, 52, 0
2, 1351440, Note_on_c, 2, 45, 50
2, 1351680, Note_off_c, 2, 45, 0
2, 1351680, Note_on_c, 2, 52, 50
2, 1351920, Note_off_c, 2, 52, 0
2, 1352160, Note_on_c, 2, 52, 50
2, 1352400, Note_off_c, 2, 52, 0
2, 1352400, Note_on_c, 2, 57, 50
2, 1352640, Note_off_c, 2, 57, 0
2, 1352640, Note_on_c, 2, 63, 50
2, 1352880, Note_off_c, 2, 63, 0
2, 1352880, Note_on_c, 2, 57, 50
2, 1353120, Note_off_c, 2, 57, 0
2, 1353120, Note_on_c, 2, 52, 50
2, 1353360, Note_off_c, 2, 52, 0
2, 1353360, Note_on_c, 2, 48, 50
2, 1353600, Note_off_c, 2, 48, 0
2, 1353600, Note_on_c, 2, 52, 50
2, 1353840, Note_off_c, 2, 52, 0
2, 1354080, Note_on_c, 2, 52, 50
2, 1354320, Note_off_c, 2, 52, 0
2, 1354320, Note_on_c, 2, 57, 50
2, 1354560, Note_off_c, 2, 57, 0
2, 1354560, Note_on_c, 2, 62, 50
2, 1354800, Note_off_c, 2, 62, 0
2, 1354800, Note_on_c, 2, 62, 50
2, 1355760, Note_off_c, 2, 62, 0
2, 1356000, Note_on_c, 2, 53, 50
2, 1356240, Note_off_c, 2, 53, 0
2, 1356240, Note_on_c, 2, 58, 50
2, 1356480, Note_off_c, 2, 58, 0
2, 1356480, Note_on_c, 2, 61, 50
2, 1356720, Note_off_c, 2, 61, 0
2, 1356720, Note_on_c, 2, 58, 50
2, 1356960, Note_off_c, 2, 58, 0
2, 1356960, Note_on_c, 2, 53, 50
2, 1357200, Note_off_c, 2, 53, 0
2, 1357200, Note_on_c, 2, 49, 50
2, 1357440, Note_off_c, 2, 49, 0
2, 1357440, Note_on_c, 2, 53, 50
2, 1357680, Note_off_c, 2, 53, 0
2, 1357920, Note_on_c, 2, 55, 50
2, 1358160, Note_off_c, 2, 55, 0
2, 1358160, Note_on_c, 2, 58, 50
2, 1358400, Note_off_c, 2, 58, 0
2, 1358400, Note_on_c, 2, 62, 50
2, 1358640, Note_off_c, 2, 62, 0
2, 1358640, Note_on_c, 2, 61, 50
2, 1359120, Note_off_c, 2, 61, 0
2, 1359600, Note_on_c, 2, 45, 50
2, 1359840, Note_off_c, 2, 45, 0
2, 1359840, Note_on_c, 2, 52, 50
2, 1360080, Note_off_c, 2, 52, 0
2, 1360080, Note_on_c, 2, 56, 50
2, 1360320, Note_off_c, 2, 56, 0
2, 1360320, Note_on_c, 2, 60, 50
2, 1360560, Note_off_c, 2, 60, 0
2, 1360560, Note_on_c, 2, 56, 50
2, 1360800, Note_off_c, 2, 56, 0
2, 1360800, Note_on_c, 2, 52, 50
2, 1361040, Note_off_c, 2, 52, 0
2, 1361040, Note_on_c, 2, 48, 50
2, 1361280, Note_off_c, 2, 48, 0
2, 1361280, Note_on_c, 2, 51, 50
2, 1361520, Note_off_c, 2, 51, 0
2, 1361520, Note_on_c, 2, 45, 50
2, 1361760, Note_off_c, 2, 45, 0
2, 1361760, Note_on_c, 2, 52, 50
2, 1362000, Note_off_c, 2, 52, 0
2, 1362000, Note_on_c, 2, 57, 50
2, 1362240, Note_off_c, 2, 57, 0
2, 1362240, Note_on_c, 2, 60, 50
2, 1362480, Note_off_c, 2, 60, 0
2, 1362480, Note_on_c, 2, 57, 50
2, 1362720, Note_off_c, 2, 57, 0
2, 1362720, Note_on_c, 2, 52, 50
2, 1362960, Note_off_c, 2, 52, 0
2, 1362960, Note_on_c, 2, 48, 50
2, 1363200, Note_off_c, 2, 48, 0
2, 1363200, Note_on_c, 2, 52, 50
2, 1363440, Note_off_c, 2, 52, 0
2, 1363440, Note_on_c, 2, 47, 50
2, 1363680, Note_off_c, 2, 47, 0
2, 1363680, Note_on_c, 2, 53, 50
2, 1363920, Note_off_c, 2, 53, 0
2, 1363920, Note_on_c, 2, 57, 50
2, 1364160, Note_off_c, 2, 57, 0
2, 1364160, Note_on_c, 2, 59, 50
2, 1364400, Note_off_c, 2, 59, 0
2, 1364400, Note_on_c, 2, 57, 50
2, 1364640, Note_off_c, 2, 57, 0
2, 1364640, Note_on_c, 2, 53, 50
2, 1364880, Note_off_c, 2, 53, 0
2, 1364880, Note_on_c, 2, 48, 50
2, 1365120, Note_off_c, 2, 48, 0
2, 1365120, Note_on_c, 2, 50, 50
2, 1365360, Note_off_c, 2, 50, 0
2, 1365360, Note_on_c, 2, 47, 50
2, 1365600, Note_off_c, 2, 47, 0
2, 1365600, Note_on_c, 2, 52, 50
2, 1365840, Note_off_c, 2, 52, 0
2, 1365840, Note_on_c, 2, 56, 50
2, 1366080, Note_off_c, 2, 56, 0
2, 1366080, Note_on_c, 2, 59, 50
2, 1366320, Note_off_c, 2, 59, 0
2, 1366320, Note_on_c, 2, 56, 50
2, 1366560, Note_off_c, 2, 56, 0
2, 1366560, Note_on_c, 2, 52, 50
2, 1366800, Note_off_c, 2, 52, 0
2, 1366800, Note_on_c, 2, 40, 50
2, 1367280, Note_off_c, 2, 40, 0
2, 1367280, Note_on_c, 2, 41, 50
2, 1367520, Note_off_c, 2, 41, 0
2, 1367520, Note_on_c, 2, 48, 50
2, 1367760, Note_off_c, 2, 48, 0
2, 1367760, Note_on_c, 2, 53, 50
2, 1368000, Note_off_c, 2, 53, 0
2, 1368000, Note_on_c, 2, 57, 50
2, 1368240, Note_off_c, 2, 57, 0
2, 1368240, Note_on_c, 2, 53, 50
2, 1368480, Note_off_c, 2, 53, 0
2, 1368480, Note_on_c, 2, 48, 50
2, 1368720, Note_off_c, 2, 48, 0
2, 1368720, Note_on_c, 2, 45, 50
2, 1368960, Note_off_c, 2, 45, 0
2, 1368960, Note_on_c, 2, 41, 50
2, 1369200, Note_off_c, 2, 41, 0
2, 1369200, Note_on_c, 2, 45, 50
2, 1369440, Note_off_c, 2, 45, 0
2, 1369440, Note_on_c, 2, 52, 50
2, 1369680, Note_off_c, 2, 52, 0
2, 1369680, Note_on_c, 2, 57, 50
2, 1369920, Note_off_c, 2, 57, 0
2, 1369920, Note_on_c, 2, 60, 50
2, 1370160, Note_off_c, 2, 60, 0
2, 1370160, Note_on_c, 2, 57, 50
2, 1370400, Note_off_c, 2, 57, 0
2, 1370400, Note_on_c, 2, 52, 50
2, 1370640, Note_off_c, 2, 52, 0
2, 1370640, Note_on_c, 2, 48, 50
2, 1370880, Note_off_c, 2, 48, 0
2, 1370880, Note_on_c, 2, 45, 50
2, 1371120, Note_off_c, 2, 45, 0
2, 1371120, Note_on_c, 2, 41, 50
2, 1371360, Note_off_c, 2, 41, 0
2, 1371360, Note_on_c, 2, 48, 50
2, 1371600, Note_off_c, 2, 48, 0
2, 1371600, Note_on_c, 2, 53, 50
2, 1371840, Note_off_c, 2, 53, 0
2, 1371840, Note_on_c, 2, 57, 50
2, 1372080, Note_off_c, 2, 57, 0
2, 1372080, Note_on_c, 2, 60, 50
2, 1372320, Note_off_c, 2, 60, 0
2, 1372320, Note_on_c, 2, 57, 50
2, 1372560, Note_off_c, 2, 57, 0
2, 1372560, Note_on_c, 2, 53, 50
2, 1372800, Note_off_c, 2, 53, 0
2, 1372800, Note_on_c, 2, 48, 50
2, 1373040, Note_off_c, 2, 48, 0
2, 1373040, Note_on_c, 2, 41, 50
2, 1373280, Note_off_c, 2, 41, 0
2, 1373280, Note_on_c, 2, 51, 50
2, 1373520, Note_off_c, 2, 51, 0
2, 1373520, Note_on_c, 2, 57, 50
2, 1373760, Note_off_c, 2, 57, 0
2, 1373760, Note_on_c, 2, 62, 50
2, 1374480, Note_off_c, 2, 62, 0
2, 1374960, Note_on_c, 2, 46, 50
2, 1375200, Note_off_c, 2, 46, 0
2, 1375200, Note_on_c, 2, 53, 50
2, 1375440, Note_off_c, 2, 53, 0
2, 1375440, Note_on_c, 2, 58, 50
2, 1375680, Note_off_c, 2, 58, 0
2, 1375680, Note_on_c, 2, 62, 50
2, 1375920, Note_off_c, 2, 62, 0
2, 1375920, Note_on_c, 2, 58, 50
2, 1376160, Note_off_c, 2, 58, 0
2, 1376160, Note_on_c, 2, 53, 50
2, 1376400, Note_off_c, 2, 53, 0
2, 1376400, Note_on_c, 2, 50, 50
2, 1376640, Note_off_c, 2, 50, 0
2, 1376640, Note_on_c, 2, 46, 50
2, 1376880, Note_off_c, 2, 46, 0
2, 1376880, Note_on_c, 2, 46, 50
2, 1377120, Note_off_c, 2, 46, 0
2, 1377120, Note_on_c, 2, 55, 50
2, 1377360, Note_off_c, 2, 55, 0
2, 1377360, Note_on_c, 2, 59, 50
2, 1377600, Note_off_c, 2, 59, 0
2, 1377600, Note_on_c, 2, 62, 50
2, 1377840, Note_off_c, 2, 62, 0
2, 1377840, Note_on_c, 2, 61, 50
2, 1378080, Note_off_c, 2, 61, 0
2, 1378800, Note_on_c, 2, 45, 50
2, 1379040, Note_off_c, 2, 45, 0
2, 1379040, Note_on_c, 2, 52, 50
2, 1379280, Note_off_c, 2, 52, 0
2, 1379280, Note_on_c, 2, 56, 50
2, 1379520, Note_off_c, 2, 56, 0
2, 1379520, Note_on_c, 2, 60, 50
2, 1379760, Note_off_c, 2, 60, 0
2, 1379760, Note_on_c, 2, 56, 50
2, 1380000, Note_off_c, 2, 56, 0
2, 1380000, Note_on_c, 2, 52, 50
2, 1380240, Note_off_c, 2, 52, 0
2, 1380240, Note_on_c, 2, 48, 50
2, 1380480, Note_off_c, 2, 48, 0
2, 1380480, Note_on_c, 2, 51, 50
2, 1380720, Note_off_c, 2, 51, 0
2, 1380720, Note_on_c, 2, 45, 50
2, 1380960, Note_off_c, 2, 45, 0
2, 1380960, Note_on_c, 2, 52, 50
2, 1381200, Note_off_c, 2, 52, 0
2, 1381200, Note_on_c, 2, 57, 50
2, 1381440, Note_off_c, 2, 57, 0
2, 1381440, Note_on_c, 2, 60, 50
2, 1381680, Note_off_c, 2, 60, 0
2, 1381680, Note_on_c, 2, 57, 50
2, 1381920, Note_off_c, 2, 57, 0
2, 1381920, Note_on_c, 2, 52, 50
2, 1382160, Note_off_c, 2, 52, 0
2, 1382160, Note_on_c, 2, 48, 50
2, 1382400, Note_off_c, 2, 48, 0
2, 1382400, Note_on_c, 2, 52, 50
2, 1382640, Note_off_c, 2, 52, 0
2, 1382640, Note_on_c, 2, 47, 50
2, 1382880, Note_off_c, 2, 47, 0
2, 1382880, Note_on_c, 2, 53, 50
2, 1383120, Note_off_c, 2, 53, 0
2, 1383120, Note_on_c, 2, 57, 50
2, 1383360, Note_off_c, 2, 57, 0
2, 1383360, Note_on_c, 2, 59, 50
2, 1383600, Note_off_c, 2, 59, 0
2, 1383600, Note_on_c, 2, 57, 50
2, 1383840, Note_off_c, 2, 57, 0
2, 1383840, Note_on_c, 2, 53, 50
2, 1384080, Note_off_c, 2, 53, 0
2, 1384080, Note_on_c, 2, 48, 50
2, 1384320, Note_off_c, 2, 48, 0
2, 1384320, Note_on_c, 2, 50, 50
2, 1384560, Note_off_c, 2, 50, 0
2, 1384560, Note_on_c, 2, 47, 50
2, 1384800, Note_off_c, 2, 47, 0
2, 1384800, Note_on_c, 2, 52, 50
2, 1385040, Note_off_c, 2, 52, 0
2, 1385040, Note_on_c, 2, 56, 50
2, 1385280, Note_off_c, 2, 56, 0
2, 1385280, Note_on_c, 2, 59, 50
2, 1385520, Note_off_c, 2, 59, 0
2, 1385520, Note_on_c, 2, 56, 50
2, 1385760, Note_off_c, 2, 56, 0
2, 1385760, Note_on_c, 2, 52, 50
2, 1386000, Note_off_c, 2, 52, 0
2, 1386000, Note_on_c, 2, 40, 50
2, 1386480, Note_off_c, 2, 40, 0
2, 1386480, Note_on_c, 2, 41, 50
2, 1386720, Note_off_c, 2, 41, 0
2, 1386720, Note_on_c, 2, 48, 50
2, 1386960, Note_off_c, 2, 48, 0
2, 1386960, Note_on_c, 2, 53, 50
2, 1387200, Note_off_c, 2, 53, 0
2, 1387200, Note_on_c, 2, 57, 50
2, 1387440, Note_off_c, 2, 57, 0
2, 1387440, Note_on_c, 2, 53, 50
2, 1387680, Note_off_c, 2, 53, 0
2, 1387680, Note_on_c, 2, 48, 50
2, 1387920, Note_off_c, 2, 48, 0
2, 1387920, Note_on_c, 2, 45, 50
2, 1388160, Note_off_c, 2, 45, 0
2, 1388160, Note_on_c, 2, 41, 50
2, 1388400, Note_off_c, 2, 41, 0
2, 1388400, Note_on_c, 2, 45, 50
2, 1388640, Note_off_c, 2, 45, 0
2, 1388640, Note_on_c, 2, 52, 50
2, 1388880, Note_off_c, 2, 52, 0
2, 1388880, Note_on_c, 2, 57, 50
2, 1389120, Note_off_c, 2, 57, 0
2, 1389120, Note_on_c, 2, 60, 50
2, 1389360, Note_off_c, 2, 60, 0
2, 1389360, Note_on_c, 2, 57, 50
2, 1389600, Note_off_c, 2, 57, 0
2, 1389600, Note_on_c, 2, 52, 50
2, 1389840, Note_off_c, 2, 52, 0
2, 1389840, Note_on_c, 2, 48, 50
2, 1390080, Note_off_c, 2, 48, 0
2, 1390080, Note_on_c, 2, 45, 50
2, 1390320, Note_off_c, 2, 45, 0
2, 1390320, Note_on_c, 2, 41, 50
2, 1390560, Note_off_c, 2, 41, 0
2, 1390560, Note_on_c, 2, 48, 50
2, 1390800, Note_off_c, 2, 48, 0
2, 1390800, Note_on_c, 2, 53, 50
2, 1391040, Note_off_c, 2, 53, 0
2, 1391040, Note_on_c, 2, 57, 50
2, 1391280, Note_off_c, 2, 57, 0
2, 1391280, Note_on_c, 2, 60, 50
2, 1391520, Note_off_c, 2, 60, 0
2, 1391520, Note_on_c, 2, 57, 50
2, 1391760, Note_off_c, 2, 57, 0
2, 1391760, Note_on_c, 2, 53, 50
2, 1392000, Note_off_c, 2, 53, 0
2, 1392000, Note_on_c, 2, 48, 50
2, 1392240, Note_off_c, 2, 48, 0
2, 1392240, Note_on_c, 2, 41, 50
2, 1392480, Note_off_c, 2, 41, 0
2, 1392480, Note_on_c, 2, 51, 50
2, 1392720, Note_off_c, 2, 51, 0
2, 1392720, Note_on_c, 2, 57, 50
2, 1392960, Note_off_c, 2, 57, 0
2, 1392960, Note_on_c, 2, 62, 50
2, 1393680, Note_off_c, 2, 62, 0
2, 1394160, Note_on_c, 2, 46, 50
2, 1394400, Note_off_c, 2, 46, 0
2, 1394400, Note_on_c, 2, 53, 50
2, 1394640, Note_off_c, 2, 53, 0
2, 1394640, Note_on_c, 2, 58, 50
2, 1394880, Note_off_c, 2, 58, 0
2, 1394880, Note_on_c, 2, 62, 50
2, 1395120, Note_off_c, 2, 62, 0
2, 1395120, Note_on_c, 2, 58, 50
2, 1395360, Note_off_c, 2, 58, 0
2, 1395360, Note_on_c, 2, 53, 50
2, 1395600, Note_off_c, 2, 53, 0
2, 1395600, Note_on_c, 2, 50, 50
2, 1395840, Note_off_c, 2, 50, 0
2, 1395840, Note_on_c, 2, 46, 50
2, 1396080, Note_off_c, 2, 46, 0
2, 1396080, Note_on_c, 2, 49, 50
2, 1396320, Note_off_c, 2, 49, 0
2, 1398000, Note_on_c, 2, 38, 50
2, 1398240, Note_off_c, 2, 38, 0
2, 1398240, Note_on_c, 2, 50, 50
2, 1398480, Note_off_c, 2, 50, 0
2, 1398480, Note_on_c, 2, 54, 50
2, 1398720, Note_off_c, 2, 54, 0
2, 1398720, Note_on_c, 2, 57, 50
2, 1398960, Note_off_c, 2, 57, 0
2, 1398960, Note_on_c, 2, 54, 50
2, 1399200, Note_off_c, 2, 54, 0
2, 1399200, Note_on_c, 2, 50, 50
2, 1399440, Note_off_c, 2, 50, 0
2, 1399440, Note_on_c, 2, 45, 50
2, 1399680, Note_off_c, 2, 45, 0
2, 1399680, Note_on_c, 2, 50, 50
2, 1399920, Note_off_c, 2, 50, 0
2, 1399920, Note_on_c, 2, 38, 50
2, 1400160, Note_off_c, 2, 38, 0
2, 1400160, Note_on_c, 2, 50, 50
2, 1400400, Note_off_c, 2, 50, 0
2, 1400400, Note_on_c, 2, 54, 50
2, 1400640, Note_off_c, 2, 54, 0
2, 1400640, Note_on_c, 2, 57, 50
2, 1400880, Note_off_c, 2, 57, 0
2, 1400880, Note_on_c, 2, 54, 50
2, 1401120, Note_off_c, 2, 54, 0
2, 1401120, Note_on_c, 2, 50, 50
2, 1401360, Note_off_c, 2, 50, 0
2, 1401360, Note_on_c, 2, 45, 50
2, 1401600, Note_off_c, 2, 45, 0
2, 1401600, Note_on_c, 2, 50, 50
2, 1401840, Note_off_c, 2, 50, 0
2, 1401840, Note_on_c, 2, 40, 50
2, 1402080, Note_off_c, 2, 40, 0
2, 1402080, Note_on_c, 2, 50, 50
2, 1402320, Note_off_c, 2, 50, 0
2, 1402320, Note_on_c, 2, 56, 50
2, 1402560, Note_off_c, 2, 56, 0
2, 1402560, Note_on_c, 2, 59, 50
2, 1402800, Note_off_c, 2, 59, 0
2, 1402800, Note_on_c, 2, 56, 50
2, 1403040, Note_off_c, 2, 56, 0
2, 1403040, Note_on_c, 2, 50, 50
2, 1403280, Note_off_c, 2, 50, 0
2, 1403280, Note_on_c, 2, 48, 50
2, 1403520, Note_off_c, 2, 48, 0
2, 1403520, Note_on_c, 2, 50, 50
2, 1403760, Note_off_c, 2, 50, 0
2, 1403760, Note_on_c, 2, 40, 50
2, 1404000, Note_off_c, 2, 40, 0
2, 1404000, Note_on_c, 2, 47, 50
2, 1404240, Note_off_c, 2, 47, 0
2, 1404240, Note_on_c, 2, 50, 50
2, 1404480, Note_off_c, 2, 50, 0
2, 1404480, Note_on_c, 2, 56, 50
2, 1404720, Note_off_c, 2, 56, 0
2, 1404720, Note_on_c, 2, 59, 50
2, 1405200, Note_off_c, 2, 59, 0
2, 1405680, Note_on_c, 2, 45, 50
2, 1405920, Note_off_c, 2, 45, 0
2, 1405920, Note_on_c, 2, 52, 50
2, 1406160, Note_off_c, 2, 52, 0
2, 1406160, Note_on_c, 2, 56, 50
2, 1406400, Note_off_c, 2, 56, 0
2, 1406400, Note_on_c, 2, 60, 50
2, 1406640, Note_off_c, 2, 60, 0
2, 1406640, Note_on_c, 2, 56, 50
2, 1406880, Note_off_c, 2, 56, 0
2, 1406880, Note_on_c, 2, 52, 50
2, 1407120, Note_off_c, 2, 52, 0
2, 1407120, Note_on_c, 2, 48, 50
2, 1407360, Note_off_c, 2, 48, 0
2, 1407360, Note_on_c, 2, 51, 50
2, 1407600, Note_off_c, 2, 51, 0
2, 1407600, Note_on_c, 2, 45, 50
2, 1407840, Note_off_c, 2, 45, 0
2, 1407840, Note_on_c, 2, 52, 50
2, 1408080, Note_off_c, 2, 52, 0
2, 1408080, Note_on_c, 2, 57, 50
2, 1408320, Note_off_c, 2, 57, 0
2, 1408320, Note_on_c, 2, 60, 50
2, 1408560, Note_off_c, 2, 60, 0
2, 1408560, Note_on_c, 2, 57, 50
2, 1408800, Note_off_c, 2, 57, 0
2, 1408800, Note_on_c, 2, 52, 50
2, 1409040, Note_off_c, 2, 52, 0
2, 1409040, Note_on_c, 2, 48, 50
2, 1409280, Note_off_c, 2, 48, 0
2, 1409280, Note_on_c, 2, 52, 50
2, 1409520, Note_off_c, 2, 52, 0
2, 1409520, Note_on_c, 2, 47, 50
2, 1409760, Note_off_c, 2, 47, 0
2, 1409760, Note_on_c, 2, 53, 50
2, 1410000, Note_off_c, 2, 53, 0
2, 1410000, Note_on_c, 2, 57, 50
2, 1410240, Note_off_c, 2, 57, 0
2, 1410240, Note_on_c, 2, 59, 50
2, 1410480, Note_off_c, 2, 59, 0
2, 1410480, Note_on_c, 2, 57, 50
2, 1410720, Note_off_c, 2, 57, 0
2, 1410720, Note_on_c, 2, 53, 50
2, 1410960, Note_off_c, 2, 53, 0
2, 1410960, Note_on_c, 2, 48, 50
2, 1411200, Note_off_c, 2, 48, 0
2, 1411200, Note_on_c, 2, 50, 50
2, 1411440, Note_off_c, 2, 50, 0
2, 1411440, Note_on_c, 2, 47, 50
2, 1411680, Note_off_c, 2, 47, 0
2, 1411680, Note_on_c, 2, 52, 50
2, 1411920, Note_off_c, 2, 52, 0
2, 1411920, Note_on_c, 2, 56, 50
2, 1412160, Note_off_c, 2, 56, 0
2, 1412160, Note_on_c, 2, 59, 50
2, 1412400, Note_off_c, 2, 59, 0
2, 1412400, Note_on_c, 2, 56, 50
2, 1412640, Note_off_c, 2, 56, 0
2, 1412640, Note_on_c, 2, 52, 50
2, 1412880, Note_off_c, 2, 52, 0
2, 1412880, Note_on_c, 2, 40, 50
2, 1413360, Note_off_c, 2, 40, 0
2, 1413360, Note_on_c, 2, 41, 50
2, 1413600, Note_off_c, 2, 41, 0
2, 1413600, Note_on_c, 2, 48, 50
2, 1413840, Note_off_c, 2, 48, 0
2, 1413840, Note_on_c, 2, 53, 50
2, 1414080, Note_off_c, 2, 53, 0
2, 1414080, Note_on_c, 2, 57, 50
2, 1414320, Note_off_c, 2, 57, 0
2, 1414320, Note_on_c, 2, 53, 50
2, 1414560, Note_off_c, 2, 53, 0
2, 1414560, Note_on_c, 2, 48, 50
2, 1414800, Note_off_c, 2, 48, 0
2, 1414800, Note_on_c, 2, 45, 50
2, 1415040, Note_off_c, 2, 45, 0
2, 1415040, Note_on_c, 2, 41, 50
2, 1415280, Note_off_c, 2, 41, 0
2, 1415280, Note_on_c, 2, 45, 50
2, 1415520, Note_off_c, 2, 45, 0
2, 1415520, Note_on_c, 2, 52, 50
2, 1415760, Note_off_c, 2, 52, 0
2, 1415760, Note_on_c, 2, 57, 50
2, 1416000, Note_off_c, 2, 57, 0
2, 1416000, Note_on_c, 2, 60, 50
2, 1416240, Note_off_c, 2, 60, 0
2, 1416240, Note_on_c, 2, 57, 50
2, 1416480, Note_off_c, 2, 57, 0
2, 1416480, Note_on_c, 2, 52, 50
2, 1416720, Note_off_c, 2, 52, 0
2, 1416720, Note_on_c, 2, 48, 50
2, 1416960, Note_off_c, 2, 48, 0
2, 1416960, Note_on_c, 2, 45, 50
2, 1417200, Note_off_c, 2, 45, 0
2, 1417200, Note_on_c, 2, 41, 50
2, 1417440, Note_off_c, 2, 41, 0
2, 1417440, Note_on_c, 2, 48, 50
2, 1417680, Note_off_c, 2, 48, 0
2, 1417680, Note_on_c, 2, 53, 50
2, 1417920, Note_off_c, 2, 53, 0
2, 1417920, Note_on_c, 2, 57, 50
2, 1418160, Note_off_c, 2, 57, 0
2, 1418160, Note_on_c, 2, 60, 50
2, 1418400, Note_off_c, 2, 60, 0
2, 1418400, Note_on_c, 2, 57, 50
2, 1418640, Note_off_c, 2, 57, 0
2, 1418640, Note_on_c, 2, 53, 50
2, 1418880, Note_off_c, 2, 53, 0
2, 1418880, Note_on_c, 2, 48, 50
2, 1419120, Note_off_c, 2, 48, 0
2, 1419120, Note_on_c, 2, 41, 50
2, 1419360, Note_off_c, 2, 41, 0
2, 1419360, Note_on_c, 2, 51, 50
2, 1419600, Note_off_c, 2, 51, 0
2, 1419600, Note_on_c, 2, 57, 50
2, 1419840, Note_off_c, 2, 57, 0
2, 1419840, Note_on_c, 2, 62, 50
2, 1420560, Note_off_c, 2, 62, 0
2, 1421040, Note_on_c, 2, 46, 50
2, 1422960, Note_off_c, 2, 46, 0
2, 1422960, Note_on_c, 2, 46, 50
2, 1424880, Note_off_c, 2, 46, 0
2, 1424880, Note_on_c, 2, 45, 50
2, 1425120, Note_off_c, 2, 45, 0
2, 1425120, Note_on_c, 2, 52, 50
2, 1425360, Note_off_c, 2, 52, 0
2, 1425360, Note_on_c, 2, 57, 50
2, 1425600, Note_off_c, 2, 57, 0
2, 1425600, Note_on_c, 2, 60, 50
2, 1425840, Note_off_c, 2, 60, 0
2, 1425840, Note_on_c, 2, 57, 50
2, 1426080, Note_off_c, 2, 57, 0
2, 1426080, Note_on_c, 2, 52, 50
2, 1426320, Note_off_c, 2, 52, 0
2, 1426320, Note_on_c, 2, 48, 50
2, 1426560, Note_off_c, 2, 48, 0
2, 1426560, Note_on_c, 2, 52, 50
2, 1426800, Note_off_c, 2, 52, 0
2, 1426800, Note_on_c, 2, 45, 50
2, 1427040, Note_off_c, 2, 45, 0
2, 1427040, Note_on_c, 2, 52, 50
2, 1427280, Note_off_c, 2, 52, 0
2, 1427280, Note_on_c, 2, 57, 50
2, 1427520, Note_off_c, 2, 57, 0
2, 1427520, Note_on_c, 2, 60, 50
2, 1427760, Note_off_c, 2, 60, 0
2, 1427760, Note_on_c, 2, 57, 50
2, 1428000, Note_off_c, 2, 57, 0
2, 1428000, Note_on_c, 2, 52, 50
2, 1428240, Note_off_c, 2, 52, 0
2, 1428240, Note_on_c, 2, 48, 50
2, 1428480, Note_off_c, 2, 48, 0
2, 1428480, Note_on_c, 2, 52, 50
2, 1428720, Note_off_c, 2, 52, 0
2, 1428720, Note_on_c, 2, 46, 50
2, 1428960, Note_off_c, 2, 46, 0
2, 1428960, Note_on_c, 2, 52, 50
2, 1429200, Note_off_c, 2, 52, 0
2, 1429200, Note_on_c, 2, 57, 50
2, 1429440, Note_off_c, 2, 57, 0
2, 1429440, Note_on_c, 2, 59, 50
2, 1429680, Note_off_c, 2, 59, 0
2, 1429680, Note_on_c, 2, 57, 50
2, 1429920, Note_off_c, 2, 57, 0
2, 1429920, Note_on_c, 2, 53, 50
2, 1430160, Note_off_c, 2, 53, 0
2, 1430160, Note_on_c, 2, 48, 50
2, 1430400, Note_off_c, 2, 48, 0
2, 1430400, Note_on_c, 2, 50, 50
2, 1430640, Note_off_c, 2, 50, 0
2, 1430640, Note_on_c, 2, 47, 50
2, 1430880, Note_off_c, 2, 47, 0
2, 1430880, Note_on_c, 2, 52, 50
2, 1431120, Note_off_c, 2, 52, 0
2, 1431120, Note_on_c, 2, 56, 50
2, 1431360, Note_off_c, 2, 56, 0
2, 1431360, Note_on_c, 2, 59, 50
2, 1431600, Note_off_c, 2, 59, 0
2, 1431600, Note_on_c, 2, 56, 50
2, 1431840, Note_off_c, 2, 56, 0
2, 1431840, Note_on_c, 2, 52, 50
2, 1432080, Note_off_c, 2, 52, 0
2, 1432080, Note_on_c, 2, 40, 50
2, 1432320, Note_off_c, 2, 40, 0
2, 1432320, Note_on_c, 2, 52, 50
2, 1432560, Note_off_c, 2, 52, 0
2, 1434480, Note_on_c, 2, 45, 50
2, 1434720, Note_off_c, 2, 45, 0
2, 1434720, Note_on_c, 2, 52, 50
2, 1434960, Note_off_c, 2, 52, 0
2, 1434960, Note_on_c, 2, 57, 50
2, 1435200, Note_off_c, 2, 57, 0
2, 1435200, Note_on_c, 2, 60, 50
2, 1435440, Note_off_c, 2, 60, 0
2, 1435440, Note_on_c, 2, 57, 50
2, 1435680, Note_off_c, 2, 57, 0
2, 1435680, Note_on_c, 2, 52, 50
2, 1435920, Note_off_c, 2, 52, 0
2, 1435920, Note_on_c, 2, 45, 50
2, 1436160, Note_off_c, 2, 45, 0
2, 1436160, Note_on_c, 2, 52, 50
2, 1436400, Note_off_c, 2, 52, 0
2, 1436400, Note_on_c, 2, 41, 50
2, 1438320, Note_off_c, 2, 41, 0
2, 1438320, Note_on_c, 2, 41, 50
2, 1440240, Note_off_c, 2, 41, 0
2, 1440480, Note_on_c, 2, 41, 50
2, 1440720, Note_off_c, 2, 41, 0
2, 1440720, Note_on_c, 2, 46, 50
2, 1442160, Note_off_c, 2, 46, 0
2, 1442160, Note_on_c, 2, 46, 50
2, 1444080, Note_off_c, 2, 46, 0
2, 1444080, Note_on_c, 2, 46, 50
2, 1445400, Note_off_c, 2, 46, 0
2, 1458600, Note_on_c, 2, 52, 50
2, 1458720, Note_off_c, 2, 52, 0
2, 1458840, Note_on_c, 2, 52, 50
2, 1458960, Note_off_c, 2, 52, 0
2, 1458960, Note_on_c, 2, 57, 50
2, 1459080, Note_off_c, 2, 57, 0
2, 1459320, Note_on_c, 2, 57, 50
2, 1459440, Note_off_c, 2, 57, 0
2, 1459440, Note_on_c, 2, 57, 50
2, 1459560, Note_off_c, 2, 57, 0
2, 1459800, Note_on_c, 2, 57, 50
2, 1459920, Note_off_c, 2, 57, 0
2, 1459920, Note_on_c, 2, 56, 50
2, 1460040, Note_off_c, 2, 56, 0
2, 1460280, Note_on_c, 2, 56, 50
2, 1460400, Note_off_c, 2, 56, 0
2, 1460400, Note_on_c, 2, 52, 50
2, 1460760, Note_off_c, 2, 52, 0
2, 1460880, Note_on_c, 2, 55, 50
2, 1461000, Note_off_c, 2, 55, 0
2, 1461240, Note_on_c, 2, 55, 50
2, 1461360, Note_off_c, 2, 55, 0
2, 1461360, Note_on_c, 2, 55, 50
2, 1461480, Note_off_c, 2, 55, 0
2, 1461720, Note_on_c, 2, 55, 50
2, 1461840, Note_off_c, 2, 55, 0
2, 1461840, Note_on_c, 2, 54, 50
2, 1461960, Note_off_c, 2, 54, 0
2, 1462200, Note_on_c, 2, 54, 50
2, 1462320, Note_off_c, 2, 54, 0
2, 1462320, Note_on_c, 2, 50, 50
2, 1462440, Note_off_c, 2, 50, 0
2, 1462680, Note_on_c, 2, 50, 50
2, 1462800, Note_off_c, 2, 50, 0
2, 1462800, Note_on_c, 2, 52, 50
2, 1462920, Note_off_c, 2, 52, 0
2, 1463160, Note_on_c, 2, 52, 50
2, 1463280, Note_off_c, 2, 52, 0
2, 1463280, Note_on_c, 2, 52, 50
2, 1463760, Note_off_c, 2, 52, 0
2, 1466520, Note_on_c, 2, 52, 50
2, 1466640, Note_off_c, 2, 52, 0
2, 1466640, Note_on_c, 2, 57, 50
2, 1466760, Note_off_c, 2, 57, 0
2, 1467000, Note_on_c, 2, 57, 50
2, 1467120, Note_off_c, 2, 57, 0
2, 1467120, Note_on_c, 2, 57, 50
2, 1467240, Note_off_c, 2, 57, 0
2, 1467480, Note_on_c, 2, 57, 50
2, 1467600, Note_off_c, 2, 57, 0
2, 1467600, Note_on_c, 2, 56, 50
2, 1467720, Note_off_c, 2, 56, 0
2, 1467960, Note_on_c, 2, 56, 50
2, 1468080, Note_off_c, 2, 56, 0
2, 1468080, Note_on_c, 2, 52, 50
2, 1468200, Note_off_c, 2, 52, 0
2, 1468440, Note_on_c, 2, 52, 50
2, 1468560, Note_off_c, 2, 52, 0
2, 1468560, Note_on_c, 2, 55, 50
2, 1468680, Note_off_c, 2, 55, 0
2, 1468920, Note_on_c, 2, 55, 50
2, 1469040, Note_off_c, 2, 55, 0
2, 1469040, Note_on_c, 2, 55, 50
2, 1469160, Note_off_c, 2, 55, 0
2, 1469400, Note_on_c, 2, 55, 50
2, 1469520, Note_off_c, 2, 55, 0
2, 1469520, Note_on_c, 2, 54, 50
2, 1469640, Note_off_c, 2, 54, 0
2, 1469880, Note_on_c, 2, 54, 50
2, 1470000, Note_off_c, 2, 54, 0
2, 1470000, Note_on_c, 2, 50, 50
2, 1470120, Note_off_c, 2, 50, 0
2, 1470360, Note_on_c, 2, 50, 50
2, 1470480, Note_off_c, 2, 50, 0
2, 1470480, Note_on_c, 2, 54, 50
2, 1470600, Note_off_c, 2, 54, 0
2, 1470840, Note_on_c, 2, 54, 50
2, 1470960, Note_off_c, 2, 54, 0
2, 1470960, Note_on_c, 2, 54, 50
2, 1471920, Note_off_c, 2, 54, 0
2, 1472040, Note_on_c, 2, 54, 50
2, 1472160, Note_off_c, 2, 54, 0
2, 1472280, Note_on_c, 2, 54, 50
2, 1472400, Note_off_c, 2, 54, 0
2, 1472400, Note_on_c, 2, 47, 50
2, 1472520, Note_off_c, 2, 47, 0
2, 1472760, Note_on_c, 2, 47, 50
2, 1472880, Note_off_c, 2, 47, 0
2, 1472880, Note_on_c, 2, 54, 50
2, 1473000, Note_off_c, 2, 54, 0
2, 1473240, Note_on_c, 2, 54, 50
2, 1473360, Note_off_c, 2, 54, 0
2, 1473360, Note_on_c, 2, 59, 50
2, 1473480, Note_off_c, 2, 59, 0
2, 1473720, Note_on_c, 2, 59, 50
2, 1473840, Note_off_c, 2, 59, 0
2, 1473840, Note_on_c, 2, 54, 50
2, 1473960, Note_off_c, 2, 54, 0
2, 1474200, Note_on_c, 2, 54, 50
2, 1474320, Note_off_c, 2, 54, 0
2, 1474320, Note_on_c, 2, 55, 50
2, 1474440, Note_off_c, 2, 55, 0
2, 1474680, Note_on_c, 2, 55, 50
2, 1474800, Note_off_c, 2, 55, 0
2, 1474800, Note_on_c, 2, 50, 50
2, 1474920, Note_off_c, 2, 50, 0
2, 1475160, Note_on_c, 2, 50, 50
2, 1475280, Note_off_c, 2, 50, 0
2, 1475280, Note_on_c, 2, 54, 50
2, 1475400, Note_off_c, 2, 54, 0
2, 1475640, Note_on_c, 2, 54, 50
2, 1475760, Note_off_c, 2, 54, 0
2, 1475760, Note_on_c, 2, 54, 50
2, 1475880, Note_off_c, 2, 54, 0
2, 1476120, Note_on_c, 2, 54, 50
2, 1476240, Note_off_c, 2, 54, 0
2, 1476240, Note_on_c, 2, 47, 50
2, 1477200, Note_off_c, 2, 47, 0
2, 1477800, Note_on_c, 2, 54, 50
2, 1477920, Note_off_c, 2, 54, 0
2, 1478040, Note_on_c, 2, 54, 50
2, 1478160, Note_off_c, 2, 54, 0
2, 1478160, Note_on_c, 2, 55, 50
2, 1478520, Note_off_c, 2, 55, 0
2, 1478640, Note_on_c, 2, 55, 50
2, 1479000, Note_off_c, 2, 55, 0
2, 1479000, Note_on_c, 2, 55, 50
2, 1479120, Note_off_c, 2, 55, 0
2, 1479120, Note_on_c, 2, 54, 50
2, 1479240, Note_off_c, 2, 54, 0
2, 1479480, Note_on_c, 2, 54, 50
2, 1479600, Note_off_c, 2, 54, 0
2, 1479600, Note_on_c, 2, 54, 50
2, 1479720, Note_off_c, 2, 54, 0
2, 1479720, Note_on_c, 2, 54, 50
2, 1479840, Note_off_c, 2, 54, 0
2, 1479960, Note_on_c, 2, 54, 50
2, 1480080, Note_off_c, 2, 54, 0
2, 1480080, Note_on_c, 2, 59, 50
2, 1481640, Note_off_c, 2, 59, 0
2, 1485720, Note_on_c, 2, 52, 50
2, 1485840, Note_off_c, 2, 52, 0
2, 1485840, Note_on_c, 2, 57, 50
2, 1486080, Note_off_c, 2, 57, 0
2, 1486200, Note_on_c, 2, 57, 50
2, 1486320, Note_off_c, 2, 57, 0
2, 1486320, Note_on_c, 2, 57, 50
2, 1486560, Note_off_c, 2, 57, 0
2, 1486680, Note_on_c, 2, 57, 50
2, 1486800, Note_off_c, 2, 57, 0
2, 1486800, Note_on_c, 2, 56, 50
2, 1487040, Note_off_c, 2, 56, 0
2, 1487160, Note_on_c, 2, 56, 50
2, 1487280, Note_off_c, 2, 56, 0
2, 1487280, Note_on_c, 2, 52, 50
2, 1487760, Note_off_c, 2, 52, 0
2, 1487760, Note_on_c, 2, 55, 50
2, 1488000, Note_off_c, 2, 55, 0
2, 1488120, Note_on_c, 2, 55, 50
2, 1488240, Note_off_c, 2, 55, 0
2, 1488240, Note_on_c, 2, 55, 50
2, 1488480, Note_off_c, 2, 55, 0
2, 1488600, Note_on_c, 2, 55, 50
2, 1488720, Note_off_c, 2, 55, 0
2, 1488720, Note_on_c, 2, 54, 50
2, 1488960, Note_off_c, 2, 54, 0
2, 1489080, Note_on_c, 2, 54, 50
2, 1489320, Note_off_c, 2, 54, 0
2, 1489560, Note_on_c, 2, 50, 50
2, 1489680, Note_off_c, 2, 50, 0
2, 1489680, Note_on_c, 2, 52, 50
2, 1489920, Note_off_c, 2, 52, 0
2, 1490040, Note_on_c, 2, 52, 50
2, 1490160, Note_off_c, 2, 52, 0
2, 1490160, Note_on_c, 2, 52, 50
2, 1491600, Note_off_c, 2, 52, 0
2, 1493400, Note_on_c, 2, 52, 50
2, 1493640, Note_off_c, 2, 52, 0
2, 1493640, Note_on_c, 2, 57, 50
2, 1493880, Note_off_c, 2, 57, 0
2, 1493880, Note_on_c, 2, 57, 50
2, 1494000, Note_off_c, 2, 57, 0
2, 1494000, Note_on_c, 2, 57, 50
2, 1494240, Note_off_c, 2, 57, 0
2, 1494360, Note_on_c, 2, 57, 50
2, 1494600, Note_off_c, 2, 57, 0
2, 1494840, Note_on_c, 2, 56, 50
2, 1494960, Note_off_c, 2, 56, 0
2, 1494960, Note_on_c, 2, 52, 50
2, 1495320, Note_off_c, 2, 52, 0
2, 1495440, Note_on_c, 2, 55, 50
2, 1495560, Note_off_c, 2, 55, 0
2, 1495800, Note_on_c, 2, 55, 50
2, 1495920, Note_off_c, 2, 55, 0
2, 1495920, Note_on_c, 2, 55, 50
2, 1496040, Note_off_c, 2, 55, 0
2, 1496280, Note_on_c, 2, 55, 50
2, 1496400, Note_off_c, 2, 55, 0
2, 1496400, Note_on_c, 2, 54, 50
2, 1496640, Note_off_c, 2, 54, 0
2, 1496760, Note_on_c, 2, 54, 50
2, 1496880, Note_off_c, 2, 54, 0
2, 1496880, Note_on_c, 2, 50, 50
2, 1497120, Note_off_c, 2, 50, 0
2, 1497240, Note_on_c, 2, 50, 50
2, 1497360, Note_off_c, 2, 50, 0
2, 1497360, Note_on_c, 2, 54, 50
2, 1497600, Note_off_c, 2, 54, 0
2, 1497720, Note_on_c, 2, 54, 50
2, 1497840, Note_off_c, 2, 54, 0
2, 1497840, Note_on_c, 2, 54, 50
2, 1498800, Note_off_c, 2, 54, 0
2, 1498920, Note_on_c, 2, 54, 50
2, 1499040, Note_off_c, 2, 54, 0
2, 1499160, Note_on_c, 2, 54, 50
2, 1499280, Note_off_c, 2, 54, 0
2, 1499280, Note_on_c, 2, 47, 50
2, 1499520, Note_off_c, 2, 47, 0
2, 1499640, Note_on_c, 2, 47, 50
2, 1499760, Note_off_c, 2, 47, 0
2, 1499760, Note_on_c, 2, 54, 50
2, 1500000, Note_off_c, 2, 54, 0
2, 1500120, Note_on_c, 2, 54, 50
2, 1500240, Note_off_c, 2, 54, 0
2, 1500240, Note_on_c, 2, 59, 50
2, 1500480, Note_off_c, 2, 59, 0
2, 1500600, Note_on_c, 2, 59, 50
2, 1500720, Note_off_c, 2, 59, 0
2, 1500720, Note_on_c, 2, 54, 50
2, 1500960, Note_off_c, 2, 54, 0
2, 1501080, Note_on_c, 2, 54, 50
2, 1501200, Note_off_c, 2, 54, 0
2, 1501200, Note_on_c, 2, 55, 50
2, 1501440, Note_off_c, 2, 55, 0
2, 1501560, Note_on_c, 2, 55, 50
2, 1501680, Note_off_c, 2, 55, 0
2, 1501680, Note_on_c, 2, 50, 50
2, 1501920, Note_off_c, 2, 50, 0
2, 1502040, Note_on_c, 2, 50, 50
2, 1502160, Note_off_c, 2, 50, 0
2, 1502160, Note_on_c, 2, 54, 50
2, 1502400, Note_off_c, 2, 54, 0
2, 1502520, Note_on_c, 2, 54, 50
2, 1502640, Note_off_c, 2, 54, 0
2, 1502640, Note_on_c, 2, 54, 50
2, 1502880, Note_off_c, 2, 54, 0
2, 1503000, Note_on_c, 2, 54, 50
2, 1503120, Note_off_c, 2, 54, 0
2, 1503120, Note_on_c, 2, 47, 50
2, 1504680, Note_off_c, 2, 47, 0
2, 1504680, Note_on_c, 2, 54, 50
2, 1504800, Note_off_c, 2, 54, 0
2, 1504920, Note_on_c, 2, 54, 50
2, 1505040, Note_off_c, 2, 54, 0
2, 1505040, Note_on_c, 2, 59, 50
2, 1505400, Note_off_c, 2, 59, 0
2, 1505520, Note_on_c, 2, 59, 50
2, 1505640, Note_off_c, 2, 59, 0
2, 1505640, Note_on_c, 2, 59, 50
2, 1505760, Note_off_c, 2, 59, 0
2, 1505880, Note_on_c, 2, 59, 50
2, 1506000, Note_off_c, 2, 59, 0
2, 1506000, Note_on_c, 2, 58, 50
2, 1506360, Note_off_c, 2, 58, 0
2, 1506480, Note_on_c, 2, 58, 50
2, 1506600, Note_off_c, 2, 58, 0
2, 1506600, Note_on_c, 2, 58, 50
2, 1506720, Note_off_c, 2, 58, 0
2, 1506840, Note_on_c, 2, 58, 50
2, 1506960, Note_off_c, 2, 58, 0
2, 1506960, Note_on_c, 2, 66, 50
2, 1508880, Note_off_c, 2, 66, 0
2, 1508880, Note_on_c, 2, 66, 50
2, 1509720, Note_off_c, 2, 66, 0
2, 1543200, Note_on_c, 2, 52, 50
2, 1543440, Note_off_c, 2, 52, 0
2, 1543440, Note_on_c, 2, 57, 50
2, 1543680, Note_off_c, 2, 57, 0
2, 1543800, Note_on_c, 2, 57, 50
2, 1543920, Note_off_c, 2, 57, 0
2, 1543920, Note_on_c, 2, 57, 50
2, 1544160, Note_off_c, 2, 57, 0
2, 1544280, Note_on_c, 2, 57, 50
2, 1544400, Note_off_c, 2, 57, 0
2, 1544400, Note_on_c, 2, 56, 50
2, 1544640, Note_off_c, 2, 56, 0
2, 1544760, Note_on_c, 2, 56, 50
2, 1544880, Note_off_c, 2, 56, 0
2, 1544880, Note_on_c, 2, 52, 50
2, 1545360, Note_off_c, 2, 52, 0
2, 1545360, Note_on_c, 2, 55, 50
2, 1545600, Note_off_c, 2, 55, 0
2, 1545720, Note_on_c, 2, 55, 50
2, 1545840, Note_off_c, 2, 55, 0
2, 1545840, Note_on_c, 2, 55, 50
2, 1546080, Note_off_c, 2, 55, 0
2, 1546200, Note_on_c, 2, 55, 50
2, 1546440, Note_off_c, 2, 55, 0
2, 1546680, Note_on_c, 2, 54, 50
2, 1546800, Note_off_c, 2, 54, 0
2, 1546800, Note_on_c, 2, 50, 50
2, 1547040, Note_off_c, 2, 50, 0
2, 1547160, Note_on_c, 2, 50, 50
2, 1547280, Note_off_c, 2, 50, 0
2, 1547280, Note_on_c, 2, 52, 50
2, 1547520, Note_off_c, 2, 52, 0
2, 1547640, Note_on_c, 2, 52, 50
2, 1547760, Note_off_c, 2, 52, 0
2, 1547760, Note_on_c, 2, 52, 50
2, 1549200, Note_off_c, 2, 52, 0
2, 1551000, Note_on_c, 2, 52, 50
2, 1551120, Note_off_c, 2, 52, 0
2, 1551120, Note_on_c, 2, 57, 50
2, 1551240, Note_off_c, 2, 57, 0
2, 1551480, Note_on_c, 2, 57, 50
2, 1551600, Note_off_c, 2, 57, 0
2, 1551600, Note_on_c, 2, 57, 50
2, 1551720, Note_off_c, 2, 57, 0
2, 1551960, Note_on_c, 2, 57, 50
2, 1552080, Note_off_c, 2, 57, 0
2, 1552080, Note_on_c, 2, 56, 50
2, 1552200, Note_off_c, 2, 56, 0
2, 1552440, Note_on_c, 2, 56, 50
2, 1552560, Note_off_c, 2, 56, 0
2, 1552560, Note_on_c, 2, 52, 50
2, 1553040, Note_off_c, 2, 52, 0
2, 1553040, Note_on_c, 2, 55, 50
2, 1553280, Note_off_c, 2, 55, 0
2, 1553400, Note_on_c, 2, 55, 50
2, 1553520, Note_off_c, 2, 55, 0
2, 1553520, Note_on_c, 2, 55, 50
2, 1553760, Note_off_c, 2, 55, 0
2, 1553880, Note_on_c, 2, 55, 50
2, 1554000, Note_off_c, 2, 55, 0
2, 1554000, Note_on_c, 2, 54, 50
2, 1554240, Note_off_c, 2, 54, 0
2, 1554360, Note_on_c, 2, 54, 50
2, 1554480, Note_off_c, 2, 54, 0
2, 1554480, Note_on_c, 2, 50, 50
2, 1554720, Note_off_c, 2, 50, 0
2, 1554840, Note_on_c, 2, 50, 50
2, 1554960, Note_off_c, 2, 50, 0
2, 1554960, Note_on_c, 2, 54, 50
2, 1555200, Note_off_c, 2, 54, 0
2, 1555320, Note_on_c, 2, 54, 50
2, 1555440, Note_off_c, 2, 54, 0
2, 1555440, Note_on_c, 2, 54, 50
2, 1556520, Note_off_c, 2, 54, 0
2, 1556520, Note_on_c, 2, 54, 50
2, 1556640, Note_off_c, 2, 54, 0
2, 1556760, Note_on_c, 2, 54, 50
2, 1556880, Note_off_c, 2, 54, 0
2, 1556880, Note_on_c, 2, 47, 50
2, 1557120, Note_off_c, 2, 47, 0
2, 1557240, Note_on_c, 2, 47, 50
2, 1557360, Note_off_c, 2, 47, 0
2, 1557360, Note_on_c, 2, 54, 50
2, 1557600, Note_off_c, 2, 54, 0
2, 1557720, Note_on_c, 2, 54, 50
2, 1557840, Note_off_c, 2, 54, 0
2, 1557840, Note_on_c, 2, 59, 50
2, 1558080, Note_off_c, 2, 59, 0
2, 1558200, Note_on_c, 2, 59, 50
2, 1558320, Note_off_c, 2, 59, 0
2, 1558320, Note_on_c, 2, 54, 50
2, 1558560, Note_off_c, 2, 54, 0
2, 1558680, Note_on_c, 2, 54, 50
2, 1558800, Note_off_c, 2, 54, 0
2, 1558800, Note_on_c, 2, 55, 50
2, 1558920, Note_off_c, 2, 55, 0
2, 1559160, Note_on_c, 2, 55, 50
2, 1559280, Note_off_c, 2, 55, 0
2, 1559280, Note_on_c, 2, 50, 50
2, 1559520, Note_off_c, 2, 50, 0
2, 1559640, Note_on_c, 2, 50, 50
2, 1559760, Note_off_c, 2, 50, 0
2, 1559760, Note_on_c, 2, 54, 50
2, 1560000, Note_off_c, 2, 54, 0
2, 1560120, Note_on_c, 2, 54, 50
2, 1560240, Note_off_c, 2, 54, 0
2, 1560240, Note_on_c, 2, 54, 50
2, 1560480, Note_off_c, 2, 54, 0
2, 1560600, Note_on_c, 2, 54, 50
2, 1560720, Note_off_c, 2, 54, 0
2, 1560720, Note_on_c, 2, 47, 50
2, 1562280, Note_off_c, 2, 47, 0
2, 1562280, Note_on_c, 2, 54, 50
2, 1562400, Note_off_c, 2, 54, 0
2, 1562520, Note_on_c, 2, 54, 50
2, 1562640, Note_off_c, 2, 54, 0
2, 1562640, Note_on_c, 2, 59, 50
2, 1563000, Note_off_c, 2, 59, 0
2, 1563120, Note_on_c, 2, 59, 50
2, 1563240, Note_off_c, 2, 59, 0
2, 1563240, Note_on_c, 2, 59, 50
2, 1563360, Note_off_c, 2, 59, 0
2, 1563480, Note_on_c, 2, 59, 50
2, 1563600, Note_off_c, 2, 59, 0
2, 1563600, Note_on_c, 2, 58, 50
2, 1563960, Note_off_c, 2, 58, 0
2, 1563960, Note_on_c, 2, 54, 50
2, 1564080, Note_off_c, 2, 54, 0
2, 1564080, Note_on_c, 2, 58, 50
2, 1564200, Note_off_c, 2, 58, 0
2, 1564200, Note_on_c, 2, 58, 50
2, 1564320, Note_off_c, 2, 58, 0
2, 1564440, Note_on_c, 2, 58, 50
2, 1564560, Note_off_c, 2, 58, 0
2, 1564560, Note_on_c, 2, 66, 50
2, 1566480, Note_off_c, 2, 66, 0
2, 1584720, Note_on_c, 2, 57, 50
2, 1584960, Note_off_c, 2, 57, 0
2, 1584960, Note_on_c, 2, 57, 50
2, 1585200, Note_off_c, 2, 57, 0
2, 1585200, Note_on_c, 2, 59, 50
2, 1585320, Note_off_c, 2, 59, 0
2, 1585320, Note_on_c, 2, 61, 50
2, 1585440, Note_off_c, 2, 61, 0
2, 1585440, Note_on_c, 2, 64, 50
2, 1585680, Note_off_c, 2, 64, 0
2, 1585680, Note_on_c, 2, 67, 50
2, 1585920, Note_off_c, 2, 67, 0
2, 1585920, Note_on_c, 2, 66, 50
2, 1586400, Note_off_c, 2, 66, 0
2, 1586400, Note_on_c, 2, 64, 50
2, 1586640, Note_off_c, 2, 64, 0
2, 1586640, Note_on_c, 2, 57, 50
2, 1586880, Note_off_c, 2, 57, 0
2, 1588560, Note_on_c, 2, 57, 50
2, 1588800, Note_off_c, 2, 57, 0
2, 1588800, Note_on_c, 2, 57, 50
2, 1589040, Note_off_c, 2, 57, 0
2, 1589040, Note_on_c, 2, 59, 50
2, 1589160, Note_off_c, 2, 59, 0
2, 1589160, Note_on_c, 2, 61, 50
2, 1589280, Note_off_c, 2, 61, 0
2, 1589280, Note_on_c, 2, 64, 50
2, 1589520, Note_off_c, 2, 64, 0
2, 1589520, Note_on_c, 2, 67, 50
2, 1589760, Note_off_c, 2, 67, 0
2, 1589760, Note_on_c, 2, 66, 50
2, 1590240, Note_off_c, 2, 66, 0
2, 1590240, Note_on_c, 2, 64, 50
2, 1590480, Note_off_c, 2, 64, 0
2, 1590480, Note_on_c, 2, 57, 50
2, 1590720, Note_off_c, 2, 57, 0
2, 1592400, Note_on_c, 2, 62, 50
2, 1592640, Note_off_c, 2, 62, 0
2, 1592640, Note_on_c, 2, 62, 50
2, 1592880, Note_off_c, 2, 62, 0
2, 1592880, Note_on_c, 2, 64, 50
2, 1593000, Note_off_c, 2, 64, 0
2, 1593000, Note_on_c, 2, 66, 50
2, 1593120, Note_off_c, 2, 66, 0
2, 1593120, Note_on_c, 2, 69, 50
2, 1593360, Note_off_c, 2, 69, 0
2, 1593360, Note_on_c, 2, 72, 50
2, 1593600, Note_off_c, 2, 72, 0
2, 1593600, Note_on_c, 2, 71, 50
2, 1594080, Note_off_c, 2, 71, 0
2, 1594080, Note_on_c, 2, 69, 50
2, 1594320, Note_off_c, 2, 69, 0
2, 1594320, Note_on_c, 2, 62, 50
2, 1594560, Note_off_c, 2, 62, 0
2, 1596240, Note_on_c, 2, 57, 50
2, 1596480, Note_off_c, 2, 57, 0
2, 1596480, Note_on_c, 2, 57, 50
2, 1596720, Note_off_c, 2, 57, 0
2, 1596720, Note_on_c, 2, 59, 50
2, 1596840, Note_off_c, 2, 59, 0
2, 1596840, Note_on_c, 2, 61, 50
2, 1596960, Note_off_c, 2, 61, 0
2, 1596960, Note_on_c, 2, 64, 50
2, 1597200, Note_off_c, 2, 64, 0
2, 1597200, Note_on_c, 2, 67, 50
2, 1597440, Note_off_c, 2, 67, 0
2, 1597440, Note_on_c, 2, 66, 50
2, 1597920, Note_off_c, 2, 66, 0
2, 1597920, Note_on_c, 2, 64, 50
2, 1598160, Note_off_c, 2, 64, 0
2, 1598160, Note_on_c, 2, 57, 50
2, 1598400, Note_off_c, 2, 57, 0
2, 1600080, Note_on_c, 2, 64, 50
2, 1600320, Note_off_c, 2, 64, 0
2, 1600320, Note_on_c, 2, 64, 50
2, 1600560, Note_off_c, 2, 64, 0
2, 1600560, Note_on_c, 2, 66, 50
2, 1600680, Note_off_c, 2, 66, 0
2, 1600680, Note_on_c, 2, 68, 50
2, 1600800, Note_off_c, 2, 68, 0
2, 1600800, Note_on_c, 2, 71, 50
2, 1601040, Note_off_c, 2, 71, 0
2, 1601040, Note_on_c, 2, 74, 50
2, 1601280, Note_off_c, 2, 74, 0
2, 1601280, Note_on_c, 2, 73, 50
2, 1601760, Note_off_c, 2, 73, 0
2, 1601760, Note_on_c, 2, 71, 50
2, 1602000, Note_off_c, 2, 71, 0
2, 1602000, Note_on_c, 2, 64, 50
2, 1602240, Note_off_c, 2, 64, 0
2, 1603920, Note_on_c, 2, 57, 50
2, 1604160, Note_off_c, 2, 57, 0
2, 1604160, Note_on_c, 2, 57, 50
2, 1604400, Note_off_c, 2, 57, 0
2, 1604400, Note_on_c, 2, 59, 50
2, 1604520, Note_off_c, 2, 59, 0
2, 1604520, Note_on_c, 2, 61, 50
2, 1604640, Note_off_c, 2, 61, 0
2, 1604640, Note_on_c, 2, 64, 50
2, 1604880, Note_off_c, 2, 64, 0
2, 1604880, Note_on_c, 2, 67, 50
2, 1605120, Note_off_c, 2, 67, 0
2, 1605120, Note_on_c, 2, 66, 50
2, 1605600, Note_off_c, 2, 66, 0
2, 1605600, Note_on_c, 2, 64, 50
2, 1605840, Note_off_c, 2, 64, 0
2, 1605840, Note_on_c, 2, 57, 50
2, 1606080, Note_off_c, 2, 57, 0
2, 1607760, Note_on_c, 2, 57, 50
2, 1608000, Note_off_c, 2, 57, 0
2, 1608000, Note_on_c, 2, 57, 50
2, 1608240, Note_off_c, 2, 57, 0
2, 1608240, Note_on_c, 2, 59, 50
2, 1608360, Note_off_c, 2, 59, 0
2, 1608360, Note_on_c, 2, 61, 50
2, 1608480, Note_off_c, 2, 61, 0
2, 1608480, Note_on_c, 2, 64, 50
2, 1608720, Note_off_c, 2, 64, 0
2, 1608720, Note_on_c, 2, 67, 50
2, 1608960, Note_off_c, 2, 67, 0
2, 1608960, Note_on_c, 2, 66, 50
2, 1609440, Note_off_c, 2, 66, 0
2, 1609440, Note_on_c, 2, 64, 50
2, 1609680, Note_off_c, 2, 64, 0
2, 1609680, Note_on_c, 2, 57, 50
2, 1609920, Note_off_c, 2, 57, 0
2, 1611600, Note_on_c, 2, 57, 50
2, 1611840, Note_off_c, 2, 57, 0
2, 1611840, Note_on_c, 2, 57, 50
2, 1612080, Note_off_c, 2, 57, 0
2, 1612080, Note_on_c, 2, 59, 50
2, 1612200, Note_off_c, 2, 59, 0
2, 1612200, Note_on_c, 2, 61, 50
2, 1612320, Note_off_c, 2, 61, 0
2, 1612320, Note_on_c, 2, 64, 50
2, 1612560, Note_off_c, 2, 64, 0
2, 1612560, Note_on_c, 2, 67, 50
2, 1612800, Note_off_c, 2, 67, 0
2, 1612800, Note_on_c, 2, 66, 50
2, 1613280, Note_off_c, 2, 66, 0
2, 1613280, Note_on_c, 2, 64, 50
2, 1613520, Note_off_c, 2, 64, 0
2, 1613520, Note_on_c, 2, 57, 50
2, 1613760, Note_off_c, 2, 57, 0
2, 1615440, Note_on_c, 2, 62, 50
2, 1615680, Note_off_c, 2, 62, 0
2, 1615680, Note_on_c, 2, 62, 50
2, 1615920, Note_off_c, 2, 62, 0
2, 1615920, Note_on_c, 2, 64, 50
2, 1616040, Note_off_c, 2, 64, 0
2, 1616040, Note_on_c, 2, 66, 50
2, 1616160, Note_off_c, 2, 66, 0
2, 1616160, Note_on_c, 2, 69, 50
2, 1616400, Note_off_c, 2, 69, 0
2, 1616400, Note_on_c, 2, 72, 50
2, 1616640, Note_off_c, 2, 72, 0
2, 1616640, Note_on_c, 2, 71, 50
2, 1617120, Note_off_c, 2, 71, 0
2, 1617120, Note_on_c, 2, 69, 50
2, 1617360, Note_off_c, 2, 69, 0
2, 1617360, Note_on_c, 2, 62, 50
2, 1617600, Note_off_c, 2, 62, 0
2, 1619280, Note_on_c, 2, 57, 50
2, 1619520, Note_off_c, 2, 57, 0
2, 1619520, Note_on_c, 2, 57, 50
2, 1619760, Note_off_c, 2, 57, 0
2, 1619760, Note_on_c, 2, 59, 50
2, 1619880, Note_off_c, 2, 59, 0
2, 1619880, Note_on_c, 2, 61, 50
2, 1620000, Note_off_c, 2, 61, 0
2, 1620000, Note_on_c, 2, 64, 50
2, 1620240, Note_off_c, 2, 64, 0
2, 1620240, Note_on_c, 2, 67, 50
2, 1620480, Note_off_c, 2, 67, 0
2, 1620480, Note_on_c, 2, 66, 50
2, 1620960, Note_off_c, 2, 66, 0
2, 1620960, Note_on_c, 2, 64, 50
2, 1621200, Note_off_c, 2, 64, 0
2, 1621200, Note_on_c, 2, 57, 50
2, 1621440, Note_off_c, 2, 57, 0
2, 1623120, Note_on_c, 2, 64, 50
2, 1623360, Note_off_c, 2, 64, 0
2, 1623360, Note_on_c, 2, 64, 50
2, 1623600, Note_off_c, 2, 64, 0
2, 1623600, Note_on_c, 2, 66, 50
2, 1623720, Note_off_c, 2, 66, 0
2, 1623720, Note_on_c, 2, 68, 50
2, 1623840, Note_off_c, 2, 68, 0
2, 1623840, Note_on_c, 2, 71, 50
2, 1624080, Note_off_c, 2, 71, 0
2, 1624080, Note_on_c, 2, 74, 50
2, 1624320, Note_off_c, 2, 74, 0
2, 1624320, Note_on_c, 2, 73, 50
2, 1624800, Note_off_c, 2, 73, 0
2, 1624800, Note_on_c, 2, 71, 50
2, 1625040, Note_off_c, 2, 71, 0
2, 1625040, Note_on_c, 2, 64, 50
2, 1625280, Note_off_c, 2, 64, 0
2, 1626960, Note_on_c, 2, 57, 50
2, 1627200, Note_off_c, 2, 57, 0
2, 1627200, Note_on_c, 2, 57, 50
2, 1627440, Note_off_c, 2, 57, 0
2, 1627440, Note_on_c, 2, 59, 50
2, 1627560, Note_off_c, 2, 59, 0
2, 1627560, Note_on_c, 2, 61, 50
2, 1627680, Note_off_c, 2, 61, 0
2, 1627680, Note_on_c, 2, 64, 50
2, 1627920, Note_off_c, 2, 64, 0
2, 1627920, Note_on_c, 2, 67, 50
2, 1628160, Note_off_c, 2, 67, 0
2, 1628160, Note_on_c, 2, 66, 50
2, 1628640, Note_off_c, 2, 66, 0
2, 1628640, Note_on_c, 2, 64, 50
2, 1628880, Note_off_c, 2, 64, 0
2, 1628880, Note_on_c, 2, 57, 50
2, 1629120, Note_off_c, 2, 57, 0
2, 1646160, Note_on_c, 2, 64, 50
2, 1646400, Note_off_c, 2, 64, 0
2, 1646400, Note_on_c, 2, 64, 50
2, 1646640, Note_off_c, 2, 64, 0
2, 1647840, Note_on_c, 2, 64, 50
2, 1649040, Note_off_c, 2, 64, 0
2, 1650000, Note_on_c, 2, 64, 50
2, 1650240, Note_off_c, 2, 64, 0
2, 1651680, Note_on_c, 2, 64, 50
2, 1652880, Note_off_c, 2, 64, 0
2, 1653600, Note_on_c, 2, 64, 50
2, 1654800, Note_off_c, 2, 64, 0
2, 1655520, Note_on_c, 2, 64, 50
2, 1656720, Note_off_c, 2, 64, 0
2, 1657440, Note_on_c, 2, 64, 50
2, 1658640, Note_off_c, 2, 64, 0
2, 1659360, Note_on_c, 2, 64, 50
2, 1659840, Note_off_c, 2, 64, 0
2, 1660800, Note_on_c, 2, 64, 50
2, 1661520, Note_off_c, 2, 64, 0
2, 1661520, Note_on_c, 2, 48, 50
2, 1661760, Note_off_c, 2, 48, 0
2, 1661760, Note_on_c, 2, 48, 50
2, 1662000, Note_off_c, 2, 48, 0
2, 1662000, Note_on_c, 2, 52, 50
2, 1662240, Note_off_c, 2, 52, 0
2, 1662240, Note_on_c, 2, 52, 50
2, 1662480, Note_off_c, 2, 52, 0
2, 1662480, Note_on_c, 2, 53, 50
2, 1662720, Note_off_c, 2, 53, 0
2, 1662720, Note_on_c, 2, 53, 50
2, 1662960, Note_off_c, 2, 53, 0
2, 1662960, Note_on_c, 2, 54, 50
2, 1663200, Note_off_c, 2, 54, 0
2, 1663200, Note_on_c, 2, 54, 50
2, 1663440, Note_off_c, 2, 54, 0
2, 1663440, Note_on_c, 2, 55, 50
2, 1663680, Note_off_c, 2, 55, 0
2, 1663680, Note_on_c, 2, 55, 50
2, 1663920, Note_off_c, 2, 55, 0
2, 1663920, Note_on_c, 2, 53, 50
2, 1664160, Note_off_c, 2, 53, 0
2, 1664160, Note_on_c, 2, 53, 50
2, 1664400, Note_off_c, 2, 53, 0
2, 1664400, Note_on_c, 2, 52, 50
2, 1664640, Note_off_c, 2, 52, 0
2, 1664640, Note_on_c, 2, 52, 50
2, 1664880, Note_off_c, 2, 52, 0
2, 1664880, Note_on_c, 2, 50, 50
2, 1665120, Note_off_c, 2, 50, 0
2, 1665120, Note_on_c, 2, 50, 50
2, 1665360, Note_off_c, 2, 50, 0
2, 1665360, Note_on_c, 2, 48, 50
2, 1665600, Note_off_c, 2, 48, 0
2, 1665600, Note_on_c, 2, 48, 50
2, 1665840, Note_off_c, 2, 48, 0
2, 1665840, Note_on_c, 2, 52, 50
2, 1666080, Note_off_c, 2, 52, 0
2, 1666080, Note_on_c, 2, 52, 50
2, 1666320, Note_off_c, 2, 52, 0
2, 1666320, Note_on_c, 2, 53, 50
2, 1666560, Note_off_c, 2, 53, 0
2, 1666560, Note_on_c, 2, 53, 50
2, 1666800, Note_off_c, 2, 53, 0
2, 1666800, Note_on_c, 2, 54, 50
2, 1667040, Note_off_c, 2, 54, 0
2, 1667040, Note_on_c, 2, 54, 50
2, 1667280, Note_off_c, 2, 54, 0
2, 1667280, Note_on_c, 2, 55, 50
2, 1667520, Note_off_c, 2, 55, 0
2, 1667520, Note_on_c, 2, 55, 50
2, 1667760, Note_off_c, 2, 55, 0
2, 1667760, Note_on_c, 2, 53, 50
2, 1668000, Note_off_c, 2, 53, 0
2, 1668000, Note_on_c, 2, 53, 50
2, 1668240, Note_off_c, 2, 53, 0
2, 1668240, Note_on_c, 2, 52, 50
2, 1668480, Note_off_c, 2, 52, 0
2, 1668480, Note_on_c, 2, 52, 50
2, 1668720, Note_off_c, 2, 52, 0
2, 1668720, Note_on_c, 2, 50, 50
2, 1668960, Note_off_c, 2, 50, 0
2, 1668960, Note_on_c, 2, 50, 50
2, 1669200, Note_off_c, 2, 50, 0
2, 1669200, Note_on_c, 2, 48, 50
2, 1669440, Note_off_c, 2, 48, 0
2, 1669440, Note_on_c, 2, 48, 50
2, 1669680, Note_off_c, 2, 48, 0
2, 1669680, Note_on_c, 2, 52, 50
2, 1669920, Note_off_c, 2, 52, 0
2, 1669920, Note_on_c, 2, 52, 50
2, 1670160, Note_off_c, 2, 52, 0
2, 1670160, Note_on_c, 2, 53, 50
2, 1670400, Note_off_c, 2, 53, 0
2, 1670400, Note_on_c, 2, 53, 50
2, 1670640, Note_off_c, 2, 53, 0
2, 1670640, Note_on_c, 2, 54, 50
2, 1670880, Note_off_c, 2, 54, 0
2, 1670880, Note_on_c, 2, 54, 50
2, 1671120, Note_off_c, 2, 54, 0
2, 1671120, Note_on_c, 2, 55, 50
2, 1671360, Note_off_c, 2, 55, 0
2, 1671360, Note_on_c, 2, 55, 50
2, 1671600, Note_off_c, 2, 55, 0
2, 1671600, Note_on_c, 2, 53, 50
2, 1671840, Note_off_c, 2, 53, 0
2, 1671840, Note_on_c, 2, 53, 50
2, 1672080, Note_off_c, 2, 53, 0
2, 1672080, Note_on_c, 2, 52, 50
2, 1672320, Note_off_c, 2, 52, 0
2, 1672320, Note_on_c, 2, 52, 50
2, 1672560, Note_off_c, 2, 52, 0
2, 1672560, Note_on_c, 2, 50, 50
2, 1672800, Note_off_c, 2, 50, 0
2, 1672800, Note_on_c, 2, 50, 50
2, 1673040, Note_off_c, 2, 50, 0
2, 1673040, Note_on_c, 2, 48, 50
2, 1673280, Note_off_c, 2, 48, 0
2, 1673280, Note_on_c, 2, 48, 50
2, 1673520, Note_off_c, 2, 48, 0
2, 1673520, Note_on_c, 2, 52, 50
2, 1673760, Note_off_c, 2, 52, 0
2, 1673760, Note_on_c, 2, 52, 50
2, 1674000, Note_off_c, 2, 52, 0
2, 1674000, Note_on_c, 2, 53, 50
2, 1674240, Note_off_c, 2, 53, 0
2, 1674240, Note_on_c, 2, 53, 50
2, 1674480, Note_off_c, 2, 53, 0
2, 1674480, Note_on_c, 2, 54, 50
2, 1674720, Note_off_c, 2, 54, 0
2, 1674720, Note_on_c, 2, 54, 50
2, 1674960, Note_off_c, 2, 54, 0
2, 1674960, Note_on_c, 2, 55, 50
2, 1675200, Note_off_c, 2, 55, 0
2, 1675200, Note_on_c, 2, 55, 50
2, 1675440, Note_off_c, 2, 55, 0
2, 1675440, Note_on_c, 2, 56, 50
2, 1675680, Note_off_c, 2, 56, 0
2, 1675680, Note_on_c, 2, 56, 50
2, 1675920, Note_off_c, 2, 56, 0
2, 1675920, Note_on_c, 2, 57, 50
2, 1676160, Note_off_c, 2, 57, 0
2, 1676160, Note_on_c, 2, 57, 50
2, 1676400, Note_off_c, 2, 57, 0
2, 1676400, Note_on_c, 2, 58, 50
2, 1676640, Note_off_c, 2, 58, 0
2, 1676640, Note_on_c, 2, 58, 50
2, 1676880, Note_off_c, 2, 58, 0
2, 1676880, Note_on_c, 2, 59, 50
2, 1678320, Note_off_c, 2, 59, 0
2, 1678560, Note_on_c, 2, 76, 50
2, 1678800, Note_off_c, 2, 76, 0
2, 1678800, Note_on_c, 2, 76, 50
2, 1679280, Note_off_c, 2, 76, 0
2, 1679280, Note_on_c, 2, 76, 50
2, 1680000, Note_off_c, 2, 76, 0
2, 1680000, Note_on_c, 2, 76, 50
2, 1680720, Note_off_c, 2, 76, 0
2, 1680720, Note_on_c, 2, 57, 50
2, 1680960, Note_off_c, 2, 57, 0
2, 1680960, Note_on_c, 2, 57, 50
2, 1681200, Note_off_c, 2, 57, 0
2, 1681200, Note_on_c, 2, 59, 50
2, 1681320, Note_off_c, 2, 59, 0
2, 1681320, Note_on_c, 2, 61, 50
2, 1681440, Note_off_c, 2, 61, 0
2, 1681440, Note_on_c, 2, 64, 50
2, 1681680, Note_off_c, 2, 64, 0
2, 1681680, Note_on_c, 2, 67, 50
2, 1681920, Note_off_c, 2, 67, 0
2, 1681920, Note_on_c, 2, 66, 50
2, 1682400, Note_off_c, 2, 66, 0
2, 1682400, Note_on_c, 2, 64, 50
2, 1682640, Note_off_c, 2, 64, 0
2, 1682640, Note_on_c, 2, 57, 50
2, 1682880, Note_off_c, 2, 57, 0
2, 1684560, Note_on_c, 2, 57, 50
2, 1684800, Note_off_c, 2, 57, 0
2, 1684800, Note_on_c, 2, 57, 50
2, 1685040, Note_off_c, 2, 57, 0
2, 1685040, Note_on_c, 2, 59, 50
2, 1685160, Note_off_c, 2, 59, 0
2, 1685160, Note_on_c, 2, 61, 50
2, 1685280, Note_off_c, 2, 61, 0
2, 1685280, Note_on_c, 2, 64, 50
2, 1685520, Note_off_c, 2, 64, 0
2, 1685520, Note_on_c, 2, 67, 50
2, 1685760, Note_off_c, 2, 67, 0
2, 1685760, Note_on_c, 2, 66, 50
2, 1686240, Note_off_c, 2, 66, 0
2, 1686240, Note_on_c, 2, 64, 50
2, 1686480, Note_off_c, 2, 64, 0
2, 1686480, Note_on_c, 2, 57, 50
2, 1686720, Note_off_c, 2, 57, 0
2, 1688400, Note_on_c, 2, 62, 50
2, 1688640, Note_off_c, 2, 62, 0
2, 1688640, Note_on_c, 2, 62, 50
2, 1688880, Note_off_c, 2, 62, 0
2, 1688880, Note_on_c, 2, 64, 50
2, 1689000, Note_off_c, 2, 64, 0
2, 1689000, Note_on_c, 2, 66, 50
2, 1689120, Note_off_c, 2, 66, 0
2, 1689120, Note_on_c, 2, 69, 50
2, 1689360, Note_off_c, 2, 69, 0
2, 1689360, Note_on_c, 2, 72, 50
2, 1689600, Note_off_c, 2, 72, 0
2, 1689600, Note_on_c, 2, 71, 50
2, 1690080, Note_off_c, 2, 71, 0
2, 1690080, Note_on_c, 2, 69, 50
2, 1690320, Note_off_c, 2, 69, 0
2, 1690320, Note_on_c, 2, 62, 50
2, 1690560, Note_off_c, 2, 62, 0
2, 1692240, Note_on_c, 2, 57, 50
2, 1692480, Note_off_c, 2, 57, 0
2, 1692480, Note_on_c, 2, 57, 50
2, 1692720, Note_off_c, 2, 57, 0
2, 1692720, Note_on_c, 2, 59, 50
2, 1692840, Note_off_c, 2, 59, 0
2, 1692840, Note_on_c, 2, 61, 50
2, 1692960, Note_off_c, 2, 61, 0
2, 1692960, Note_on_c, 2, 64, 50
2, 1693200, Note_off_c, 2, 64, 0
2, 1693200, Note_on_c, 2, 67, 50
2, 1693440, Note_off_c, 2, 67, 0
2, 1693440, Note_on_c, 2, 66, 50
2, 1693920, Note_off_c, 2, 66, 0
2, 1693920, Note_on_c, 2, 64, 50
2, 1694160, Note_off_c, 2, 64, 0
2, 1694160, Note_on_c, 2, 57, 50
2, 1694400, Note_off_c, 2, 57, 0
2, 1696080, Note_on_c, 2, 64, 50
2, 1696320, Note_off_c, 2, 64, 0
2, 1696320, Note_on_c, 2, 64, 50
2, 1696560, Note_off_c, 2, 64, 0
2, 1696560, Note_on_c, 2, 66, 50
2, 1696680, Note_off_c, 2, 66, 0
2, 1696680, Note_on_c, 2, 68, 50
2, 1696800, Note_off_c, 2, 68, 0
2, 1696800, Note_on_c, 2, 71, 50
2, 1697040, Note_off_c, 2, 71, 0
2, 1697040, Note_on_c, 2, 74, 50
2, 1697280, Note_off_c, 2, 74, 0
2, 1697280, Note_on_c, 2, 73, 50
2, 1697760, Note_off_c, 2, 73, 0
2, 1697760, Note_on_c, 2, 71, 50
2, 1698000, Note_off_c, 2, 71, 0
2, 1698000, Note_on_c, 2, 64, 50
2, 1698240, Note_off_c, 2, 64, 0
2, 1699920, Note_on_c, 2, 57, 50
2, 1700160, Note_off_c, 2, 57, 0
2, 1700160, Note_on_c, 2, 57, 50
2, 1700400, Note_off_c, 2, 57, 0
2, 1700400, Note_on_c, 2, 59, 50
2, 1700520, Note_off_c, 2, 59, 0
2, 1700520, Note_on_c, 2, 61, 50
2, 1700640, Note_off_c, 2, 61, 0
2, 1700640, Note_on_c, 2, 64, 50
2, 1700880, Note_off_c, 2, 64, 0
2, 1700880, Note_on_c, 2, 67, 50
2, 1701120, Note_off_c, 2, 67, 0
2, 1701120, Note_on_c, 2, 66, 50
2, 1701600, Note_off_c, 2, 66, 0
2, 1701600, Note_on_c, 2, 64, 50
2, 1701840, Note_off_c, 2, 64, 0
2, 1701840, Note_on_c, 2, 57, 50
2, 1702080, Note_off_c, 2, 57, 0
2, 1703760, Note_on_c, 2, 69, 50
2, 1704000, Note_off_c, 2, 69, 0
2, 1704000, Note_on_c, 2, 64, 50
2, 1704240, Note_off_c, 2, 64, 0
2, 1704480, Note_on_c, 2, 67, 50
2, 1704720, Note_off_c, 2, 67, 0
2, 1704960, Note_on_c, 2, 69, 50
2, 1705440, Note_off_c, 2, 69, 0
2, 1705440, Note_on_c, 2, 67, 50
2, 1705680, Note_off_c, 2, 67, 0
2, 1705680, Note_on_c, 2, 64, 50
2, 1705920, Note_off_c, 2, 64, 0
2, 1705920, Note_on_c, 2, 62, 50
2, 1706160, Note_off_c, 2, 62, 0
2, 1706160, Note_on_c, 2, 60, 50
2, 1706400, Note_off_c, 2, 60, 0
2, 1706400, Note_on_c, 2, 57, 50
2, 1706640, Note_off_c, 2, 57, 0
2, 1706640, Note_on_c, 2, 55, 50
2, 1707600, Note_off_c, 2, 55, 0
2, 1707600, Note_on_c, 2, 57, 50
2, 1707840, Note_off_c, 2, 57, 0
2, 1707840, Note_on_c, 2, 64, 50
2, 1708080, Note_off_c, 2, 64, 0
2, 1708320, Note_on_c, 2, 67, 50
2, 1708560, Note_off_c, 2, 67, 0
2, 1708800, Note_on_c, 2, 69, 50
2, 1709040, Note_off_c, 2, 69, 0
2, 1709280, Note_on_c, 2, 72, 50
2, 1709520, Note_off_c, 2, 72, 0
2, 1709520, Note_on_c, 2, 76, 50
2, 1709760, Note_off_c, 2, 76, 0
2, 1709760, Note_on_c, 2, 74, 50
2, 1710000, Note_off_c, 2, 74, 0
2, 1710000, Note_on_c, 2, 72, 50
2, 1710120, Note_off_c, 2, 72, 0
2, 1710120, Note_on_c, 2, 74, 50
2, 1710240, Note_off_c, 2, 74, 0
2, 1710240, Note_on_c, 2, 69, 50
2, 1710480, Note_off_c, 2, 69, 0
2, 1710480, Note_on_c, 2, 67, 50
2, 1711440, Note_off_c, 2, 67, 0
2, 1711440, Note_on_c, 2, 48, 50
2, 1711680, Note_off_c, 2, 48, 0
2, 1711680, Note_on_c, 2, 48, 50
2, 1711920, Note_off_c, 2, 48, 0
2, 1711920, Note_on_c, 2, 52, 50
2, 1712160, Note_off_c, 2, 52, 0
2, 1712160, Note_on_c, 2, 52, 50
2, 1712400, Note_off_c, 2, 52, 0
2, 1712400, Note_on_c, 2, 53, 50
2, 1712640, Note_off_c, 2, 53, 0
2, 1712640, Note_on_c, 2, 53, 50
2, 1712880, Note_off_c, 2, 53, 0
2, 1712880, Note_on_c, 2, 54, 50
2, 1713120, Note_off_c, 2, 54, 0
2, 1713120, Note_on_c, 2, 54, 50
2, 1713360, Note_off_c, 2, 54, 0
2, 1713360, Note_on_c, 2, 55, 50
2, 1713600, Note_off_c, 2, 55, 0
2, 1713600, Note_on_c, 2, 55, 50
2, 1713840, Note_off_c, 2, 55, 0
2, 1713840, Note_on_c, 2, 53, 50
2, 1714080, Note_off_c, 2, 53, 0
2, 1714080, Note_on_c, 2, 53, 50
2, 1714320, Note_off_c, 2, 53, 0
2, 1714320, Note_on_c, 2, 52, 50
2, 1714560, Note_off_c, 2, 52, 0
2, 1714560, Note_on_c, 2, 52, 50
2, 1714800, Note_off_c, 2, 52, 0
2, 1714800, Note_on_c, 2, 50, 50
2, 1715040, Note_off_c, 2, 50, 0
2, 1715040, Note_on_c, 2, 50, 50
2, 1715280, Note_off_c, 2, 50, 0
2, 1715280, Note_on_c, 2, 48, 50
2, 1715520, Note_off_c, 2, 48, 0
2, 1715520, Note_on_c, 2, 48, 50
2, 1715760, Note_off_c, 2, 48, 0
2, 1715760, Note_on_c, 2, 52, 50
2, 1716000, Note_off_c, 2, 52, 0
2, 1716000, Note_on_c, 2, 52, 50
2, 1716240, Note_off_c, 2, 52, 0
2, 1716240, Note_on_c, 2, 53, 50
2, 1716480, Note_off_c, 2, 53, 0
2, 1716480, Note_on_c, 2, 53, 50
2, 1716720, Note_off_c, 2, 53, 0
2, 1716720, Note_on_c, 2, 54, 50
2, 1716960, Note_off_c, 2, 54, 0
2, 1716960, Note_on_c, 2, 54, 50
2, 1717200, Note_off_c, 2, 54, 0
2, 1717200, Note_on_c, 2, 55, 50
2, 1717440, Note_off_c, 2, 55, 0
2, 1717440, Note_on_c, 2, 55, 50
2, 1717680, Note_off_c, 2, 55, 0
2, 1717680, Note_on_c, 2, 53, 50
2, 1717920, Note_off_c, 2, 53, 0
2, 1717920, Note_on_c, 2, 53, 50
2, 1718160, Note_off_c, 2, 53, 0
2, 1718160, Note_on_c, 2, 52, 50
2, 1718400, Note_off_c, 2, 52, 0
2, 1718400, Note_on_c, 2, 52, 50
2, 1718640, Note_off_c, 2, 52, 0
2, 1718640, Note_on_c, 2, 50, 50
2, 1718880, Note_off_c, 2, 50, 0
2, 1718880, Note_on_c, 2, 50, 50
2, 1719120, Note_off_c, 2, 50, 0
2, 1719120, Note_on_c, 2, 48, 50
2, 1719360, Note_off_c, 2, 48, 0
2, 1719360, Note_on_c, 2, 48, 50
2, 1719600, Note_off_c, 2, 48, 0
2, 1719600, Note_on_c, 2, 52, 50
2, 1719840, Note_off_c, 2, 52, 0
2, 1719840, Note_on_c, 2, 52, 50
2, 1720080, Note_off_c, 2, 52, 0
2, 1720080, Note_on_c, 2, 53, 50
2, 1720320, Note_off_c, 2, 53, 0
2, 1720320, Note_on_c, 2, 53, 50
2, 1720560, Note_off_c, 2, 53, 0
2, 1720560, Note_on_c, 2, 54, 50
2, 1720800, Note_off_c, 2, 54, 0
2, 1720800, Note_on_c, 2, 54, 50
2, 1721040, Note_off_c, 2, 54, 0
2, 1721040, Note_on_c, 2, 55, 50
2, 1721280, Note_off_c, 2, 55, 0
2, 1721280, Note_on_c, 2, 55, 50
2, 1721520, Note_off_c, 2, 55, 0
2, 1721520, Note_on_c, 2, 53, 50
2, 1721760, Note_off_c, 2, 53, 0
2, 1721760, Note_on_c, 2, 53, 50
2, 1722000, Note_off_c, 2, 53, 0
2, 1722000, Note_on_c, 2, 52, 50
2, 1722240, Note_off_c, 2, 52, 0
2, 1722240, Note_on_c, 2, 52, 50
2, 1722480, Note_off_c, 2, 52, 0
2, 1722480, Note_on_c, 2, 50, 50
2, 1722720, Note_off_c, 2, 50, 0
2, 1722720, Note_on_c, 2, 50, 50
2, 1722960, Note_off_c, 2, 50, 0
2, 1722960, Note_on_c, 2, 48, 50
2, 1723200, Note_off_c, 2, 48, 0
2, 1723200, Note_on_c, 2, 48, 50
2, 1723440, Note_off_c, 2, 48, 0
2, 1723440, Note_on_c, 2, 52, 50
2, 1723680, Note_off_c, 2, 52, 0
2, 1723680, Note_on_c, 2, 52, 50
2, 1723920, Note_off_c, 2, 52, 0
2, 1723920, Note_on_c, 2, 53, 50
2, 1724160, Note_off_c, 2, 53, 0
2, 1724160, Note_on_c, 2, 53, 50
2, 1724400, Note_off_c, 2, 53, 0
2, 1724400, Note_on_c, 2, 54, 50
2, 1724640, Note_off_c, 2, 54, 0
2, 1724640, Note_on_c, 2, 54, 50
2, 1724880, Note_off_c, 2, 54, 0
2, 1724880, Note_on_c, 2, 55, 50
2, 1725120, Note_off_c, 2, 55, 0
2, 1725120, Note_on_c, 2, 55, 50
2, 1725360, Note_off_c, 2, 55, 0
2, 1725360, Note_on_c, 2, 56, 50
2, 1725600, Note_off_c, 2, 56, 0
2, 1725600, Note_on_c, 2, 56, 50
2, 1725840, Note_off_c, 2, 56, 0
2, 1725840, Note_on_c, 2, 57, 50
2, 1726080, Note_off_c, 2, 57, 0
2, 1726080, Note_on_c, 2, 57, 50
2, 1726320, Note_off_c, 2, 57, 0
2, 1726320, Note_on_c, 2, 58, 50
2, 1726560, Note_off_c, 2, 58, 0
2, 1726560, Note_on_c, 2, 58, 50
2, 1726800, Note_off_c, 2, 58, 0
2, 1726800, Note_on_c, 2, 59, 50
2, 1728720, Note_off_c, 2, 59, 0
2, 1728720, Note_on_c, 2, 76, 50
2, 1729200, Note_off_c, 2, 76, 0
2, 1729200, Note_on_c, 2, 76, 50
2, 1730160, Note_off_c, 2, 76, 0
2, 1730640, Note_on_c, 2, 57, 50
2, 1730880, Note_off_c, 2, 57, 0
2, 1730880, Note_on_c, 2, 57, 50
2, 1731120, Note_off_c, 2, 57, 0
2, 1731120, Note_on_c, 2, 59, 50
2, 1731240, Note_off_c, 2, 59, 0
2, 1731240, Note_on_c, 2, 61, 50
2, 1731360, Note_off_c, 2, 61, 0
2, 1731360, Note_on_c, 2, 64, 50
2, 1731600, Note_off_c, 2, 64, 0
2, 1731600, Note_on_c, 2, 67, 50
2, 1731840, Note_off_c, 2, 67, 0
2, 1731840, Note_on_c, 2, 66, 50
2, 1732320, Note_off_c, 2, 66, 0
2, 1732320, Note_on_c, 2, 64, 50
2, 1732560, Note_off_c, 2, 64, 0
2, 1732560, Note_on_c, 2, 57, 50
2, 1732800, Note_off_c, 2, 57, 0
2, 1734480, Note_on_c, 2, 57, 50
2, 1734720, Note_off_c, 2, 57, 0
2, 1734720, Note_on_c, 2, 57, 50
2, 1734960, Note_off_c, 2, 57, 0
2, 1734960, Note_on_c, 2, 59, 50
2, 1735080, Note_off_c, 2, 59, 0
2, 1735080, Note_on_c, 2, 61, 50
2, 1735200, Note_off_c, 2, 61, 0
2, 1735200, Note_on_c, 2, 64, 50
2, 1735440, Note_off_c, 2, 64, 0
2, 1735440, Note_on_c, 2, 67, 50
2, 1735680, Note_off_c, 2, 67, 0
2, 1735680, Note_on_c, 2, 66, 50
2, 1736160, Note_off_c, 2, 66, 0
2, 1736160, Note_on_c, 2, 64, 50
2, 1736400, Note_off_c, 2, 64, 0
2, 1736400, Note_on_c, 2, 57, 50
2, 1736640, Note_off_c, 2, 57, 0
2, 1738320, Note_on_c, 2, 62, 50
2, 1738560, Note_off_c, 2, 62, 0
2, 1738560, Note_on_c, 2, 62, 50
2, 1738800, Note_off_c, 2, 62, 0
2, 1738800, Note_on_c, 2, 64, 50
2, 1738920, Note_off_c, 2, 64, 0
2, 1738920, Note_on_c, 2, 66, 50
2, 1739040, Note_off_c, 2, 66, 0
2, 1739040, Note_on_c, 2, 69, 50
2, 1739280, Note_off_c, 2, 69, 0
2, 1739280, Note_on_c, 2, 72, 50
2, 1739520, Note_off_c, 2, 72, 0
2, 1739520, Note_on_c, 2, 71, 50
2, 1740000, Note_off_c, 2, 71, 0
2, 1740000, Note_on_c, 2, 69, 50
2, 1740240, Note_off_c, 2, 69, 0
2, 1740240, Note_on_c, 2, 62, 50
2, 1740480, Note_off_c, 2, 62, 0
2, 1742160, Note_on_c, 2, 57, 50
2, 1742400, Note_off_c, 2, 57, 0
2, 1742400, Note_on_c, 2, 57, 50
2, 1742640, Note_off_c, 2, 57, 0
2, 1742640, Note_on_c, 2, 59, 50
2, 1742760, Note_off_c, 2, 59, 0
2, 1742760, Note_on_c, 2, 61, 50
2, 1742880, Note_off_c, 2, 61, 0
2, 1742880, Note_on_c, 2, 64, 50
2, 1743120, Note_off_c, 2, 64, 0
2, 1743120, Note_on_c, 2, 67, 50
2, 1743360, Note_off_c, 2, 67, 0
2, 1743360, Note_on_c, 2, 66, 50
2, 1743840, Note_off_c, 2, 66, 0
2, 1743840, Note_on_c, 2, 64, 50
2, 1744080, Note_off_c, 2, 64, 0
2, 1744080, Note_on_c, 2, 57, 50
2, 1744320, Note_off_c, 2, 57, 0
2, 1746000, Note_on_c, 2, 64, 50
2, 1746240, Note_off_c, 2, 64, 0
2, 1746240, Note_on_c, 2, 64, 50
2, 1746480, Note_off_c, 2, 64, 0
2, 1746480, Note_on_c, 2, 66, 50
2, 1746600, Note_off_c, 2, 66, 0
2, 1746600, Note_on_c, 2, 68, 50
2, 1746720, Note_off_c, 2, 68, 0
2, 1746720, Note_on_c, 2, 71, 50
2, 1746960, Note_off_c, 2, 71, 0
2, 1746960, Note_on_c, 2, 74, 50
2, 1747200, Note_off_c, 2, 74, 0
2, 1747200, Note_on_c, 2, 73, 50
2, 1747680, Note_off_c, 2, 73, 0
2, 1747680, Note_on_c, 2, 71, 50
2, 1747920, Note_off_c, 2, 71, 0
2, 1747920, Note_on_c, 2, 64, 50
2, 1748160, Note_off_c, 2, 64, 0
2, 1749840, Note_on_c, 2, 57, 50
2, 1750080, Note_off_c, 2, 57, 0
2, 1750080, Note_on_c, 2, 57, 50
2, 1750320, Note_off_c, 2, 57, 0
2, 1750320, Note_on_c, 2, 59, 50
2, 1750440, Note_off_c, 2, 59, 0
2, 1750440, Note_on_c, 2, 61, 50
2, 1750560, Note_off_c, 2, 61, 0
2, 1750560, Note_on_c, 2, 64, 50
2, 1750800, Note_off_c, 2, 64, 0
2, 1750800, Note_on_c, 2, 67, 50
2, 1751040, Note_off_c, 2, 67, 0
2, 1751040, Note_on_c, 2, 66, 50
2, 1751520, Note_off_c, 2, 66, 0
2, 1751520, Note_on_c, 2, 57, 50
2, 1752000, Note_off_c, 2, 57, 0
2, 1752000, Note_on_c, 2, 57, 50
2, 1752240, Note_off_c, 2, 57, 0
2, 1752240, Note_on_c, 2, 59, 50
2, 1752360, Note_off_c, 2, 59, 0
2, 1752360, Note_on_c, 2, 61, 50
2, 1752480, Note_off_c, 2, 61, 0
2, 1752480, Note_on_c, 2, 64, 50
2, 1752720, Note_off_c, 2, 64, 0
2, 1752720, Note_on_c, 2, 67, 50
2, 1752960, Note_off_c, 2, 67, 0
2, 1752960, Note_on_c, 2, 66, 50
2, 1753440, Note_off_c, 2, 66, 0
2, 1753440, Note_on_c, 2, 57, 50
2, 1753920, Note_off_c, 2, 57, 0
2, 1753920, Note_on_c, 2, 57, 50
2, 1754160, Note_off_c, 2, 57, 0
2, 1754160, Note_on_c, 2, 59, 50
2, 1754280, Note_off_c, 2, 59, 0
2, 1754280, Note_on_c, 2, 61, 50
2, 1754400, Note_off_c, 2, 61, 0
2, 1754400, Note_on_c, 2, 64, 50
2, 1754640, Note_off_c, 2, 64, 0
2, 1754640, Note_on_c, 2, 67, 50
2, 1754880, Note_off_c, 2, 67, 0
2, 1754880, Note_on_c, 2, 66, 50
2, 1755120, Note_off_c, 2, 66, 0
2, 1755120, Note_on_c, 2, 64, 50
2, 1755360, Note_off_c, 2, 64, 0
2, 1755360, Note_on_c, 2, 57, 50
2, 1757280, Note_off_c, 2, 57, 0
2, 1757280, Note_on_c, 2, 57, 50
2, 1759200, Note_off_c, 2, 57, 0
2, 1759200, Note_on_c, 2, 57, 50
2, 1759440, Note_off_c, 2, 57, 0
2, 1765680, Note_on_c, 2, 60, 50
2, 1765920, Note_off_c, 2, 60, 0
2, 1766160, Note_on_c, 2, 64, 50
2, 1766400, Note_off_c, 2, 64, 0
2, 1766400, Note_on_c, 2, 67, 50
2, 1766880, Note_off_c, 2, 67, 0
2, 1766880, Note_on_c, 2, 67, 50
2, 1768320, Note_off_c, 2, 67, 0
2, 1768800, Note_on_c, 2, 64, 50
2, 1769280, Note_off_c, 2, 64, 0
2, 1770720, Note_on_c, 2, 67, 50
2, 1772640, Note_off_c, 2, 67, 0
2, 1772640, Note_on_c, 2, 64, 50
2, 1773120, Note_off_c, 2, 64, 0
2, 1773360, Note_on_c, 2, 60, 50
2, 1773600, Note_off_c, 2, 60, 0
2, 1773840, Note_on_c, 2, 64, 50
2, 1774080, Note_off_c, 2, 64, 0
2, 1774080, Note_on_c, 2, 67, 50
2, 1774560, Note_off_c, 2, 67, 0
2, 1774560, Note_on_c, 2, 67, 50
2, 1776480, Note_off_c, 2, 67, 0
2, 1776480, Note_on_c, 2, 64, 50
2, 1776960, Note_off_c, 2, 64, 0
2, 1778400, Note_on_c, 2, 67, 50
2, 1778640, Note_off_c, 2, 67, 0
2, 1778640, Note_on_c, 2, 67, 50
2, 1778880, Note_off_c, 2, 67, 0
2, 1779120, Note_on_c, 2, 67, 50
2, 1779360, Note_off_c, 2, 67, 0
2, 1779360, Note_on_c, 2, 67, 50
2, 1779600, Note_off_c, 2, 67, 0
2, 1779600, Note_on_c, 2, 65, 50
2, 1779840, Note_off_c, 2, 65, 0
2, 1779840, Note_on_c, 2, 63, 50
2, 1780320, Note_off_c, 2, 63, 0
2, 1780320, Note_on_c, 2, 62, 50
2, 1780800, Note_off_c, 2, 62, 0
2, 1780800, Note_on_c, 2, 60, 50
2, 1781280, Note_off_c, 2, 60, 0
2, 1781280, Note_on_c, 2, 60, 50
2, 1781760, Note_off_c, 2, 60, 0
2, 1782000, Note_on_c, 2, 60, 50
2, 1782240, Note_off_c, 2, 60, 0
2, 1782240, Note_on_c, 2, 58, 50
2, 1782480, Note_off_c, 2, 58, 0
2, 1782480, Note_on_c, 2, 60, 50
2, 1782720, Note_off_c, 2, 60, 0
2, 1782960, Note_on_c, 2, 55, 50
2, 1783200, Note_off_c, 2, 55, 0
2, 1783440, Note_on_c, 2, 58, 50
2, 1783680, Note_off_c, 2, 58, 0
2, 1783680, Note_on_c, 2, 60, 50
2, 1784160, Note_off_c, 2, 60, 0
2, 1784160, Note_on_c, 2, 60, 50
2, 1785120, Note_off_c, 2, 60, 0
2, 1786080, Note_on_c, 2, 60, 50
2, 1786320, Note_off_c, 2, 60, 0
2, 1786320, Note_on_c, 2, 67, 50
2, 1786560, Note_off_c, 2, 67, 0
2, 1786800, Note_on_c, 2, 67, 50
2, 1787040, Note_off_c, 2, 67, 0
2, 1787280, Note_on_c, 2, 65, 50
2, 1787520, Note_off_c, 2, 65, 0
2, 1787520, Note_on_c, 2, 63, 50
2, 1788000, Note_off_c, 2, 63, 0
2, 1788000, Note_on_c, 2, 62, 50
2, 1788480, Note_off_c, 2, 62, 0
2, 1788480, Note_on_c, 2, 60, 50
2, 1788960, Note_off_c, 2, 60, 0
2, 1788960, Note_on_c, 2, 60, 50
2, 1789440, Note_off_c, 2, 60, 0
2, 1789680, Note_on_c, 2, 60, 50
2, 1789920, Note_off_c, 2, 60, 0
2, 1789920, Note_on_c, 2, 58, 50
2, 1790160, Note_off_c, 2, 58, 0
2, 1790160, Note_on_c, 2, 60, 50
2, 1790400, Note_off_c, 2, 60, 0
2, 1790640, Note_on_c, 2, 55, 50
2, 1790880, Note_off_c, 2, 55, 0
2, 1791120, Note_on_c, 2, 58, 50
2, 1791360, Note_off_c, 2, 58, 0
2, 1791360, Note_on_c, 2, 60, 50
2, 1791840, Note_off_c, 2, 60, 0
2, 1791840, Note_on_c, 2, 60, 50
2, 1793040, Note_off_c, 2, 60, 0
2, 1793760, Note_on_c, 2, 60, 50
2, 1794000, Note_off_c, 2, 60, 0
2, 1794000, Note_on_c, 2, 67, 50
2, 1794240, Note_off_c, 2, 67, 0
2, 1794480, Note_on_c, 2, 67, 50
2, 1794720, Note_off_c, 2, 67, 0
2, 1794960, Note_on_c, 2, 67, 50
2, 1795200, Note_off_c, 2, 67, 0
2, 1795440, Note_on_c, 2, 67, 50
2, 1795680, Note_off_c, 2, 67, 0
2, 1796160, Note_on_c, 2, 65, 50
2, 1796640, Note_off_c, 2, 65, 0
2, 1796640, Note_on_c, 2, 63, 50
2, 1796880, Note_off_c, 2, 63, 0
2, 1796880, Note_on_c, 2, 65, 50
2, 1797120, Note_off_c, 2, 65, 0
2, 1797120, Note_on_c, 2, 63, 50
2, 1797600, Note_off_c, 2, 63, 0
2, 1797600, Note_on_c, 2, 55, 50
2, 1797840, Note_off_c, 2, 55, 0
2, 1797840, Note_on_c, 2, 67, 50
2, 1798080, Note_off_c, 2, 67, 0
2, 1798080, Note_on_c, 2, 67, 50
2, 1798320, Note_off_c, 2, 67, 0
2, 1798320, Note_on_c, 2, 67, 50
2, 1798560, Note_off_c, 2, 67, 0
2, 1798800, Note_on_c, 2, 65, 50
2, 1799040, Note_off_c, 2, 65, 0
2, 1799040, Note_on_c, 2, 63, 50
2, 1799520, Note_off_c, 2, 63, 0
2, 1799520, Note_on_c, 2, 60, 50
2, 1800720, Note_off_c, 2, 60, 0
2, 1801440, Note_on_c, 2, 67, 50
2, 1801680, Note_off_c, 2, 67, 0
2, 1801680, Note_on_c, 2, 67, 50
2, 1801920, Note_off_c, 2, 67, 0
2, 1802160, Note_on_c, 2, 67, 50
2, 1802400, Note_off_c, 2, 67, 0
2, 1802640, Note_on_c, 2, 65, 50
2, 1802880, Note_off_c, 2, 65, 0
2, 1802880, Note_on_c, 2, 63, 50
2, 1803360, Note_off_c, 2, 63, 0
2, 1803360, Note_on_c, 2, 62, 50
2, 1803840, Note_off_c, 2, 62, 0
2, 1803840, Note_on_c, 2, 60, 50
2, 1804320, Note_off_c, 2, 60, 0
2, 1804320, Note_on_c, 2, 60, 50
2, 1804800, Note_off_c, 2, 60, 0
2, 1805040, Note_on_c, 2, 60, 50
2, 1805280, Note_off_c, 2, 60, 0
2, 1805280, Note_on_c, 2, 58, 50
2, 1805520, Note_off_c, 2, 58, 0
2, 1805520, Note_on_c, 2, 60, 50
2, 1805760, Note_off_c, 2, 60, 0
2, 1806000, Note_on_c, 2, 55, 50
2, 1806240, Note_off_c, 2, 55, 0
2, 1806480, Note_on_c, 2, 58, 50
2, 1806720, Note_off_c, 2, 58, 0
2, 1806720, Note_on_c, 2, 60, 50
2, 1807200, Note_off_c, 2, 60, 0
2, 1807200, Note_on_c, 2, 60, 50
2, 1808160, Note_off_c, 2, 60, 0
2, 1809120, Note_on_c, 2, 60, 50
2, 1809360, Note_off_c, 2, 60, 0
2, 1809360, Note_on_c, 2, 67, 50
2, 1809600, Note_off_c, 2, 67, 0
2, 1809840, Note_on_c, 2, 67, 50
2, 1810080, Note_off_c, 2, 67, 0
2, 1810320, Note_on_c, 2, 65, 50
2, 1810560, Note_off_c, 2, 65, 0
2, 1810560, Note_on_c, 2, 63, 50
2, 1811040, Note_off_c, 2, 63, 0
2, 1811040, Note_on_c, 2, 62, 50
2, 1811520, Note_off_c, 2, 62, 0
2, 1811520, Note_on_c, 2, 60, 50
2, 1812000, Note_off_c, 2, 60, 0
2, 1812000, Note_on_c, 2, 60, 50
2, 1812480, Note_off_c, 2, 60, 0
2, 1812480, Note_on_c, 2, 60, 50
2, 1812720, Note_off_c, 2, 60, 0
2, 1812720, Note_on_c, 2, 60, 50
2, 1812960, Note_off_c, 2, 60, 0
2, 1812960, Note_on_c, 2, 58, 50
2, 1813200, Note_off_c, 2, 58, 0
2, 1813200, Note_on_c, 2, 60, 50
2, 1813440, Note_off_c, 2, 60, 0
2, 1813680, Note_on_c, 2, 55, 50
2, 1813920, Note_off_c, 2, 55, 0
2, 1814160, Note_on_c, 2, 58, 50
2, 1814400, Note_off_c, 2, 58, 0
2, 1814400, Note_on_c, 2, 60, 50
2, 1814880, Note_off_c, 2, 60, 0
2, 1814880, Note_on_c, 2, 60, 50
2, 1816080, Note_off_c, 2, 60, 0
2, 1816800, Note_on_c, 2, 60, 50
2, 1817040, Note_off_c, 2, 60, 0
2, 1817040, Note_on_c, 2, 67, 50
2, 1817280, Note_off_c, 2, 67, 0
2, 1817520, Note_on_c, 2, 67, 50
2, 1817760, Note_off_c, 2, 67, 0
2, 1818000, Note_on_c, 2, 67, 50
2, 1818240, Note_off_c, 2, 67, 0
2, 1818480, Note_on_c, 2, 67, 50
2, 1818720, Note_off_c, 2, 67, 0
2, 1819200, Note_on_c, 2, 65, 50
2, 1819680, Note_off_c, 2, 65, 0
2, 1819680, Note_on_c, 2, 63, 50
2, 1819920, Note_off_c, 2, 63, 0
2, 1819920, Note_on_c, 2, 65, 50
2, 1820160, Note_off_c, 2, 65, 0
2, 1820160, Note_on_c, 2, 63, 50
2, 1820640, Note_off_c, 2, 63, 0
2, 1820640, Note_on_c, 2, 55, 50
2, 1820880, Note_off_c, 2, 55, 0
2, 1820880, Note_on_c, 2, 67, 50
2, 1821120, Note_off_c, 2, 67, 0
2, 1821120, Note_on_c, 2, 67, 50
2, 1821360, Note_off_c, 2, 67, 0
2, 1821360, Note_on_c, 2, 67, 50
2, 1821600, Note_off_c, 2, 67, 0
2, 1821840, Note_on_c, 2, 65, 50
2, 1822080, Note_off_c, 2, 65, 0
2, 1822080, Note_on_c, 2, 63, 50
2, 1822560, Note_off_c, 2, 63, 0
2, 1822560, Note_on_c, 2, 60, 50
2, 1823040, Note_off_c, 2, 60, 0
2, 1823280, Note_on_c, 2, 60, 50
2, 1823520, Note_off_c, 2, 60, 0
2, 1823760, Note_on_c, 2, 64, 50
2, 1824000, Note_off_c, 2, 64, 0
2, 1824000, Note_on_c, 2, 67, 50
2, 1824480, Note_off_c, 2, 67, 0
2, 1824480, Note_on_c, 2, 67, 50
2, 1825920, Note_off_c, 2, 67, 0
2, 1826640, Note_on_c, 2, 64, 50
2, 1826880, Note_off_c, 2, 64, 0
2, 1828320, Note_on_c, 2, 63, 50
2, 1828800, Note_off_c, 2, 63, 0
2, 1828800, Note_on_c, 2, 63, 50
2, 1829040, Note_off_c, 2, 63, 0
2, 1829040, Note_on_c, 2, 62, 50
2, 1829280, Note_off_c, 2, 62, 0
2, 1829280, Note_on_c, 2, 60, 50
2, 1829520, Note_off_c, 2, 60, 0
2, 1829520, Note_on_c, 2, 62, 50
2, 1829760, Note_off_c, 2, 62, 0
2, 1829760, Note_on_c, 2, 60, 50
2, 1830240, Note_off_c, 2, 60, 0
2, 1830240, Note_on_c, 2, 60, 50
2, 1830720, Note_off_c, 2, 60, 0
2, 1830960, Note_on_c, 2, 60, 50
2, 1831200, Note_off_c, 2, 60, 0
2, 1831440, Note_on_c, 2, 64, 50
2, 1831680, Note_off_c, 2, 64, 0
2, 1831680, Note_on_c, 2, 67, 50
2, 1832160, Note_off_c, 2, 67, 0
2, 1832160, Note_on_c, 2, 67, 50
2, 1833600, Note_off_c, 2, 67, 0
2, 1834320, Note_on_c, 2, 64, 50
2, 1834560, Note_off_c, 2, 64, 0
2, 1836240, Note_on_c, 2, 62, 50
2, 1836480, Note_off_c, 2, 62, 0
2, 1836480, Note_on_c, 2, 62, 50
2, 1836960, Note_off_c, 2, 62, 0
2, 1836960, Note_on_c, 2, 65, 50
2, 1837920, Note_off_c, 2, 65, 0
2, 1838160, Note_on_c, 2, 67, 50
2, 1839360, Note_off_c, 2, 67, 0
2, 1840080, Note_on_c, 2, 67, 50
2, 1840320, Note_off_c, 2, 67, 0
2, 1840320, Note_on_c, 2, 67, 50
2, 1840560, Note_off_c, 2, 67, 0
2, 1840560, Note_on_c, 2, 67, 50
2, 1840800, Note_off_c, 2, 67, 0
2, 1841040, Note_on_c, 2, 65, 50
2, 1841280, Note_off_c, 2, 65, 0
2, 1841280, Note_on_c, 2, 63, 50
2, 1841760, Note_off_c, 2, 63, 0
2, 1841760, Note_on_c, 2, 62, 50
2, 1842240, Note_off_c, 2, 62, 0
2, 1842240, Note_on_c, 2, 60, 50
2, 1842720, Note_off_c, 2, 60, 0
2, 1842720, Note_on_c, 2, 60, 50
2, 1843440, Note_off_c, 2, 60, 0
2, 1843680, Note_on_c, 2, 58, 50
2, 1843920, Note_off_c, 2, 58, 0
2, 1843920, Note_on_c, 2, 60, 50
2, 1844160, Note_off_c, 2, 60, 0
2, 1844400, Note_on_c, 2, 55, 50
2, 1844640, Note_off_c, 2, 55, 0
2, 1844880, Note_on_c, 2, 58, 50
2, 1845120, Note_off_c, 2, 58, 0
2, 1845120, Note_on_c, 2, 60, 50
2, 1845600, Note_off_c, 2, 60, 0
2, 1845600, Note_on_c, 2, 60, 50
2, 1846560, Note_off_c, 2, 60, 0
2, 1847760, Note_on_c, 2, 67, 50
2, 1848000, Note_off_c, 2, 67, 0
2, 1848000, Note_on_c, 2, 67, 50
2, 1848240, Note_off_c, 2, 67, 0
2, 1848240, Note_on_c, 2, 67, 50
2, 1848480, Note_off_c, 2, 67, 0
2, 1848480, Note_on_c, 2, 67, 50
2, 1848720, Note_off_c, 2, 67, 0
2, 1848720, Note_on_c, 2, 65, 50
2, 1848960, Note_off_c, 2, 65, 0
2, 1848960, Note_on_c, 2, 63, 50
2, 1849440, Note_off_c, 2, 63, 0
2, 1849440, Note_on_c, 2, 62, 50
2, 1849920, Note_off_c, 2, 62, 0
2, 1849920, Note_on_c, 2, 60, 50
2, 1850400, Note_off_c, 2, 60, 0
2, 1850400, Note_on_c, 2, 60, 50
2, 1851120, Note_off_c, 2, 60, 0
2, 1851360, Note_on_c, 2, 58, 50
2, 1851600, Note_off_c, 2, 58, 0
2, 1851600, Note_on_c, 2, 60, 50
2, 1851840, Note_off_c, 2, 60, 0
2, 1852080, Note_on_c, 2, 55, 50
2, 1852320, Note_off_c, 2, 55, 0
2, 1852560, Note_on_c, 2, 58, 50
2, 1852800, Note_off_c, 2, 58, 0
2, 1852800, Note_on_c, 2, 60, 50
2, 1853280, Note_off_c, 2, 60, 0
2, 1853280, Note_on_c, 2, 60, 50
2, 1854720, Note_off_c, 2, 60, 0
2, 1855440, Note_on_c, 2, 67, 50
2, 1855680, Note_off_c, 2, 67, 0
2, 1855920, Note_on_c, 2, 67, 50
2, 1856160, Note_off_c, 2, 67, 0
2, 1856400, Note_on_c, 2, 67, 50
2, 1856640, Note_off_c, 2, 67, 0
2, 1856880, Note_on_c, 2, 67, 50
2, 1857120, Note_off_c, 2, 67, 0
2, 1857600, Note_on_c, 2, 65, 50
2, 1858080, Note_off_c, 2, 65, 0
2, 1858080, Note_on_c, 2, 63, 50
2, 1858320, Note_off_c, 2, 63, 0
2, 1858320, Note_on_c, 2, 65, 50
2, 1858560, Note_off_c, 2, 65, 0
2, 1858560, Note_on_c, 2, 63, 50
2, 1859040, Note_off_c, 2, 63, 0
2, 1859280, Note_on_c, 2, 67, 50
2, 1859520, Note_off_c, 2, 67, 0
2, 1859520, Note_on_c, 2, 67, 50
2, 1859760, Note_off_c, 2, 67, 0
2, 1859760, Note_on_c, 2, 67, 50
2, 1860000, Note_off_c, 2, 67, 0
2, 1860240, Note_on_c, 2, 65, 50
2, 1860480, Note_off_c, 2, 65, 0
2, 1860480, Note_on_c, 2, 63, 50
2, 1860960, Note_off_c, 2, 63, 0
2, 1860960, Note_on_c, 2, 60, 50
2, 1862880, Note_off_c, 2, 60, 0
2, 1862880, Note_on_c, 2, 60, 50
2, 1863360, Note_off_c, 2, 60, 0
2, 1886640, Note_on_c, 2, 60, 50
2, 1886880, Note_off_c, 2, 60, 0
2, 1887120, Note_on_c, 2, 64, 50
2, 1887360, Note_off_c, 2, 64, 0
2, 1887360, Note_on_c, 2, 67, 50
2, 1887840, Note_off_c, 2, 67, 0
2, 1887840, Note_on_c, 2, 67, 50
2, 1889280, Note_off_c, 2, 67, 0
2, 1890000, Note_on_c, 2, 64, 50
2, 1890240, Note_off_c, 2, 64, 0
2, 1891680, Note_on_c, 2, 63, 50
2, 1892160, Note_off_c, 2, 63, 0
2, 1892160, Note_on_c, 2, 63, 50
2, 1892400, Note_off_c, 2, 63, 0
2, 1892400, Note_on_c, 2, 62, 50
2, 1892640, Note_off_c, 2, 62, 0
2, 1892640, Note_on_c, 2, 60, 50
2, 1892880, Note_off_c, 2, 60, 0
2, 1892880, Note_on_c, 2, 62, 50
2, 1893120, Note_off_c, 2, 62, 0
2, 1893120, Note_on_c, 2, 60, 50
2, 1893600, Note_off_c, 2, 60, 0
2, 1893600, Note_on_c, 2, 60, 50
2, 1894080, Note_off_c, 2, 60, 0
2, 1894320, Note_on_c, 2, 60, 50
2, 1894560, Note_off_c, 2, 60, 0
2, 1894800, Note_on_c, 2, 64, 50
2, 1895040, Note_off_c, 2, 64, 0
2, 1895040, Note_on_c, 2, 67, 50
2, 1895520, Note_off_c, 2, 67, 0
2, 1895520, Note_on_c, 2, 67, 50
2, 1896960, Note_off_c, 2, 67, 0
2, 1897680, Note_on_c, 2, 64, 50
2, 1897920, Note_off_c, 2, 64, 0
2, 1899600, Note_on_c, 2, 62, 50
2, 1899840, Note_off_c, 2, 62, 0
2, 1899840, Note_on_c, 2, 62, 50
2, 1900320, Note_off_c, 2, 62, 0
2, 1900320, Note_on_c, 2, 65, 50
2, 1901280, Note_off_c, 2, 65, 0
2, 1901520, Note_on_c, 2, 67, 50
2, 1902720, Note_off_c, 2, 67, 0
2, 1903440, Note_on_c, 2, 67, 50
2, 1903680, Note_off_c, 2, 67, 0
2, 1903680, Note_on_c, 2, 67, 50
2, 1903920, Note_off_c, 2, 67, 0
2, 1903920, Note_on_c, 2, 67, 50
2, 1904160, Note_off_c, 2, 67, 0
2, 1904400, Note_on_c, 2, 65, 50
2, 1904640, Note_off_c, 2, 65, 0
2, 1904640, Note_on_c, 2, 63, 50
2, 1905120, Note_off_c, 2, 63, 0
2, 1905120, Note_on_c, 2, 62, 50
2, 1905600, Note_off_c, 2, 62, 0
2, 1905600, Note_on_c, 2, 60, 50
2, 1906080, Note_off_c, 2, 60, 0
2, 1906080, Note_on_c, 2, 60, 50
2, 1906800, Note_off_c, 2, 60, 0
2, 1907040, Note_on_c, 2, 58, 50
2, 1907280, Note_off_c, 2, 58, 0
2, 1907280, Note_on_c, 2, 60, 50
2, 1907520, Note_off_c, 2, 60, 0
2, 1907760, Note_on_c, 2, 55, 50
2, 1908000, Note_off_c, 2, 55, 0
2, 1908240, Note_on_c, 2, 58, 50
2, 1908480, Note_off_c, 2, 58, 0
2, 1908480, Note_on_c, 2, 60, 50
2, 1908960, Note_off_c, 2, 60, 0
2, 1908960, Note_on_c, 2, 60, 50
2, 1909920, Note_off_c, 2, 60, 0
2, 1911120, Note_on_c, 2, 67, 50
2, 1911360, Note_off_c, 2, 67, 0
2, 1911360, Note_on_c, 2, 67, 50
2, 1911600, Note_off_c, 2, 67, 0
2, 1911600, Note_on_c, 2, 67, 50
2, 1911840, Note_off_c, 2, 67, 0
2, 1911840, Note_on_c, 2, 67, 50
2, 1912080, Note_off_c, 2, 67, 0
2, 1912080, Note_on_c, 2, 65, 50
2, 1912320, Note_off_c, 2, 65, 0
2, 1912320, Note_on_c, 2, 63, 50
2, 1912800, Note_off_c, 2, 63, 0
2, 1912800, Note_on_c, 2, 62, 50
2, 1913280, Note_off_c, 2, 62, 0
2, 1913280, Note_on_c, 2, 60, 50
2, 1913760, Note_off_c, 2, 60, 0
2, 1913760, Note_on_c, 2, 60, 50
2, 1914480, Note_off_c, 2, 60, 0
2, 1914720, Note_on_c, 2, 58, 50
2, 1914960, Note_off_c, 2, 58, 0
2, 1914960, Note_on_c, 2, 60, 50
2, 1915200, Note_off_c, 2, 60, 0
2, 1915440, Note_on_c, 2, 55, 50
2, 1915680, Note_off_c, 2, 55, 0
2, 1915920, Note_on_c, 2, 58, 50
2, 1916160, Note_off_c, 2, 58, 0
2, 1916160, Note_on_c, 2, 60, 50
2, 1916640, Note_off_c, 2, 60, 0
2, 1916640, Note_on_c, 2, 60, 50
2, 1918080, Note_off_c, 2, 60, 0
2, 1918800, Note_on_c, 2, 67, 50
2, 1919040, Note_off_c, 2, 67, 0
2, 1919280, Note_on_c, 2, 67, 50
2, 1919520, Note_off_c, 2, 67, 0
2, 1919760, Note_on_c, 2, 67, 50
2, 1920000, Note_off_c, 2, 67, 0
2, 1920240, Note_on_c, 2, 67, 50
2, 1920480, Note_off_c, 2, 67, 0
2, 1920960, Note_on_c, 2, 65, 50
2, 1921440, Note_off_c, 2, 65, 0
2, 1921440, Note_on_c, 2, 63, 50
2, 1921680, Note_off_c, 2, 63, 0
2, 1921680, Note_on_c, 2, 65, 50
2, 1921920, Note_off_c, 2, 65, 0
2, 1921920, Note_on_c, 2, 63, 50
2, 1922400, Note_off_c, 2, 63, 0
2, 1922640, Note_on_c, 2, 67, 50
2, 1922880, Note_off_c, 2, 67, 0
2, 1922880, Note_on_c, 2, 67, 50
2, 1923120, Note_off_c, 2, 67, 0
2, 1923120, Note_on_c, 2, 67, 50
2, 1923360, Note_off_c, 2, 67, 0
2, 1923600, Note_on_c, 2, 65, 50
2, 1923840, Note_off_c, 2, 65, 0
2, 1923840, Note_on_c, 2, 63, 50
2, 1924320, Note_off_c, 2, 63, 0
2, 1924320, Note_on_c, 2, 60, 50
2, 1925040, Note_off_c, 2, 60, 0
2, 1925280, Note_on_c, 2, 60, 50
2, 1925520, Note_off_c, 2, 60, 0
2, 1925520, Note_on_c, 2, 64, 50
2, 1925760, Note_off_c, 2, 64, 0
2, 1925760, Note_on_c, 2, 67, 50
2, 1926240, Note_off_c, 2, 67, 0
2, 1926240, Note_on_c, 2, 67, 50
2, 1928160, Note_off_c, 2, 67, 0
2, 1928160, Note_on_c, 2, 64, 50
2, 1929360, Note_off_c, 2, 64, 0
2, 1930080, Note_on_c, 2, 67, 50
2, 1932000, Note_off_c, 2, 67, 0
2, 1932000, Note_on_c, 2, 64, 50
2, 1932480, Note_off_c, 2, 64, 0
2, 1932720, Note_on_c, 2, 60, 50
2, 1932960, Note_off_c, 2, 60, 0
2, 1933200, Note_on_c, 2, 64, 50
2, 1933440, Note_off_c, 2, 64, 0
2, 1933440, Note_on_c, 2, 67, 50
2, 1933920, Note_off_c, 2, 67, 0
2, 1933920, Note_on_c, 2, 67, 50
2, 1935840, Note_off_c, 2, 67, 0
2, 1935840, Note_on_c, 2, 64, 50
2, 1937760, Note_off_c, 2, 64, 0
2, 1937760, Note_on_c, 2, 64, 50
2, 1939200, Note_off_c, 2, 64, 0
2, 1955520, Note_on_c, 2, 72, 50
2, 1955760, Note_off_c, 2, 72, 0
2, 1955760, Note_on_c, 2, 72, 50
2, 1955880, Note_off_c, 2, 72, 0
2, 1955880, Note_on_c, 2, 72, 50
2, 1956240, Note_off_c, 2, 72, 0
2, 1956240, Note_on_c, 2, 72, 50
2, 1956480, Note_off_c, 2, 72, 0
2, 1956480, Note_on_c, 2, 69, 50
2, 1956720, Note_off_c, 2, 69, 0
2, 1956720, Note_on_c, 2, 67, 50
2, 1956960, Note_off_c, 2, 67, 0
2, 1956960, Note_on_c, 2, 69, 50
2, 1957200, Note_off_c, 2, 69, 0
2, 1957440, Note_on_c, 2, 72, 50
2, 1957800, Note_off_c, 2, 72, 0
2, 1957800, Note_on_c, 2, 72, 50
2, 1957920, Note_off_c, 2, 72, 0
2, 1957920, Note_on_c, 2, 72, 50
2, 1958160, Note_off_c, 2, 72, 0
2, 1958160, Note_on_c, 2, 72, 50
2, 1958400, Note_off_c, 2, 72, 0
2, 1958400, Note_on_c, 2, 69, 50
2, 1958640, Note_off_c, 2, 69, 0
2, 1958640, Note_on_c, 2, 67, 50
2, 1958880, Note_off_c, 2, 67, 0
2, 1958880, Note_on_c, 2, 69, 50
2, 1959120, Note_off_c, 2, 69, 0
2, 1959360, Note_on_c, 2, 72, 50
2, 1959840, Note_off_c, 2, 72, 0
2, 1959840, Note_on_c, 2, 72, 50
2, 1960080, Note_off_c, 2, 72, 0
2, 1960080, Note_on_c, 2, 72, 50
2, 1960320, Note_off_c, 2, 72, 0
2, 1960320, Note_on_c, 2, 69, 50
2, 1960560, Note_off_c, 2, 69, 0
2, 1960560, Note_on_c, 2, 67, 50
2, 1960800, Note_off_c, 2, 67, 0
2, 1960800, Note_on_c, 2, 69, 50
2, 1961040, Note_off_c, 2, 69, 0
2, 1961280, Note_on_c, 2, 72, 50
2, 1961760, Note_off_c, 2, 72, 0
2, 1961760, Note_on_c, 2, 69, 50
2, 1962000, Note_off_c, 2, 69, 0
2, 1962000, Note_on_c, 2, 72, 50
2, 1962240, Note_off_c, 2, 72, 0
2, 1962240, Note_on_c, 2, 69, 50
2, 1962480, Note_off_c, 2, 69, 0
2, 1962480, Note_on_c, 2, 67, 50
2, 1962720, Note_off_c, 2, 67, 0
2, 1962720, Note_on_c, 2, 69, 50
2, 1962960, Note_off_c, 2, 69, 0
2, 1963200, Note_on_c, 2, 71, 50
2, 1963920, Note_off_c, 2, 71, 0
2, 1963920, Note_on_c, 2, 71, 50
2, 1964400, Note_off_c, 2, 71, 0
2, 1964880, Note_on_c, 2, 71, 50
2, 1965360, Note_off_c, 2, 71, 0
2, 1965360, Note_on_c, 2, 69, 50
2, 1965600, Note_off_c, 2, 69, 0
2, 1965600, Note_on_c, 2, 71, 50
2, 1965840, Note_off_c, 2, 71, 0
2, 1966800, Note_on_c, 2, 72, 50
2, 1967040, Note_off_c, 2, 72, 0
2, 1967040, Note_on_c, 2, 72, 50
2, 1967280, Note_off_c, 2, 72, 0
2, 1967280, Note_on_c, 2, 72, 50
2, 1967520, Note_off_c, 2, 72, 0
2, 1967520, Note_on_c, 2, 72, 50
2, 1967760, Note_off_c, 2, 72, 0
2, 1967760, Note_on_c, 2, 72, 50
2, 1968000, Note_off_c, 2, 72, 0
2, 1968000, Note_on_c, 2, 72, 50
2, 1968240, Note_off_c, 2, 72, 0
2, 1968240, Note_on_c, 2, 72, 50
2, 1968480, Note_off_c, 2, 72, 0
2, 1968480, Note_on_c, 2, 72, 50
2, 1968720, Note_off_c, 2, 72, 0
2, 1968720, Note_on_c, 2, 72, 50
2, 1968960, Note_off_c, 2, 72, 0
2, 1968960, Note_on_c, 2, 72, 50
2, 1969200, Note_off_c, 2, 72, 0
2, 1969200, Note_on_c, 2, 72, 50
2, 1969440, Note_off_c, 2, 72, 0
2, 1969440, Note_on_c, 2, 72, 50
2, 1970160, Note_off_c, 2, 72, 0
2, 1978560, Note_on_c, 2, 72, 50
2, 1978800, Note_off_c, 2, 72, 0
2, 1978800, Note_on_c, 2, 72, 50
2, 1979040, Note_off_c, 2, 72, 0
2, 1979040, Note_on_c, 2, 72, 50
2, 1979280, Note_off_c, 2, 72, 0
2, 1979280, Note_on_c, 2, 72, 50
2, 1979520, Note_off_c, 2, 72, 0
2, 1979520, Note_on_c, 2, 69, 50
2, 1979760, Note_off_c, 2, 69, 0
2, 1979760, Note_on_c, 2, 67, 50
2, 1980000, Note_off_c, 2, 67, 0
2, 1980000, Note_on_c, 2, 69, 50
2, 1980240, Note_off_c, 2, 69, 0
2, 1980480, Note_on_c, 2, 72, 50
2, 1980960, Note_off_c, 2, 72, 0
2, 1980960, Note_on_c, 2, 72, 50
2, 1981200, Note_off_c, 2, 72, 0
2, 1981200, Note_on_c, 2, 72, 50
2, 1981440, Note_off_c, 2, 72, 0
2, 1981440, Note_on_c, 2, 69, 50
2, 1981680, Note_off_c, 2, 69, 0
2, 1981680, Note_on_c, 2, 67, 50
2, 1981920, Note_off_c, 2, 67, 0
2, 1981920, Note_on_c, 2, 69, 50
2, 1982160, Note_off_c, 2, 69, 0
2, 1982400, Note_on_c, 2, 72, 50
2, 1982880, Note_off_c, 2, 72, 0
2, 1982880, Note_on_c, 2, 69, 50
2, 1983120, Note_off_c, 2, 69, 0
2, 1983120, Note_on_c, 2, 72, 50
2, 1983360, Note_off_c, 2, 72, 0
2, 1983360, Note_on_c, 2, 69, 50
2, 1983600, Note_off_c, 2, 69, 0
2, 1983600, Note_on_c, 2, 67, 50
2, 1983840, Note_off_c, 2, 67, 0
2, 1983840, Note_on_c, 2, 69, 50
2, 1984080, Note_off_c, 2, 69, 0
2, 1984320, Note_on_c, 2, 72, 50
2, 1984800, Note_off_c, 2, 72, 0
2, 1984800, Note_on_c, 2, 69, 50
2, 1985040, Note_off_c, 2, 69, 0
2, 1985040, Note_on_c, 2, 72, 50
2, 1985280, Note_off_c, 2, 72, 0
2, 1985280, Note_on_c, 2, 69, 50
2, 1985520, Note_off_c, 2, 69, 0
2, 1985520, Note_on_c, 2, 67, 50
2, 1985760, Note_off_c, 2, 67, 0
2, 1985760, Note_on_c, 2, 69, 50
2, 1986000, Note_off_c, 2, 69, 0
2, 1986240, Note_on_c, 2, 71, 50
2, 1986480, Note_off_c, 2, 71, 0
2, 1986480, Note_on_c, 2, 71, 50
2, 1986720, Note_off_c, 2, 71, 0
2, 1986720, Note_on_c, 2, 69, 50
2, 1986840, Note_off_c, 2, 69, 0
2, 1986840, Note_on_c, 2, 71, 50
2, 1986960, Note_off_c, 2, 71, 0
2, 1987920, Note_on_c, 2, 71, 50
2, 1988160, Note_off_c, 2, 71, 0
2, 1988160, Note_on_c, 2, 71, 50
2, 1988400, Note_off_c, 2, 71, 0
2, 1988400, Note_on_c, 2, 69, 50
2, 1988640, Note_off_c, 2, 69, 0
2, 1988640, Note_on_c, 2, 71, 50
2, 1988880, Note_off_c, 2, 71, 0
2, 1989840, Note_on_c, 2, 72, 50
2, 1990080, Note_off_c, 2, 72, 0
2, 1990080, Note_on_c, 2, 72, 50
2, 1990320, Note_off_c, 2, 72, 0
2, 1990320, Note_on_c, 2, 72, 50
2, 1990560, Note_off_c, 2, 72, 0
2, 1990560, Note_on_c, 2, 72, 50
2, 1990800, Note_off_c, 2, 72, 0
2, 1990800, Note_on_c, 2, 72, 50
2, 1991040, Note_off_c, 2, 72, 0
2, 1991040, Note_on_c, 2, 72, 50
2, 1991280, Note_off_c, 2, 72, 0
2, 1991280, Note_on_c, 2, 72, 50
2, 1991520, Note_off_c, 2, 72, 0
2, 1991520, Note_on_c, 2, 72, 50
2, 1991760, Note_off_c, 2, 72, 0
2, 1991760, Note_on_c, 2, 72, 50
2, 1992000, Note_off_c, 2, 72, 0
2, 1992000, Note_on_c, 2, 72, 50
2, 1992240, Note_off_c, 2, 72, 0
2, 1992240, Note_on_c, 2, 72, 50
2, 1992480, Note_off_c, 2, 72, 0
2, 1992480, Note_on_c, 2, 72, 50
2, 1992960, Note_off_c, 2, 72, 0
2, 1993200, Note_on_c, 2, 69, 50
2, 1993440, Note_off_c, 2, 69, 0
2, 1993440, Note_on_c, 2, 69, 50
2, 1993560, Note_off_c, 2, 69, 0
2, 1993560, Note_on_c, 2, 76, 50
2, 1993800, Note_off_c, 2, 76, 0
2, 1993800, Note_on_c, 2, 71, 50
2, 1993920, Note_off_c, 2, 71, 0
2, 1993920, Note_on_c, 2, 73, 50
2, 1994160, Note_off_c, 2, 73, 0
2, 1995120, Note_on_c, 2, 73, 50
2, 1995600, Note_off_c, 2, 73, 0
2, 1995600, Note_on_c, 2, 71, 50
2, 1995720, Note_off_c, 2, 71, 0
2, 1995720, Note_on_c, 2, 69, 50
2, 1995840, Note_off_c, 2, 69, 0
2, 1995840, Note_on_c, 2, 66, 50
2, 1996080, Note_off_c, 2, 66, 0
2, 1997040, Note_on_c, 2, 66, 50
2, 1997280, Note_off_c, 2, 66, 0
2, 1997280, Note_on_c, 2, 69, 50
2, 1997400, Note_off_c, 2, 69, 0
2, 1997400, Note_on_c, 2, 69, 50
2, 1997520, Note_off_c, 2, 69, 0
2, 2005440, Note_on_c, 2, 72, 50
2, 2005680, Note_off_c, 2, 72, 0
2, 2005680, Note_on_c, 2, 72, 50
2, 2005920, Note_off_c, 2, 72, 0
2, 2005920, Note_on_c, 2, 72, 50
2, 2006160, Note_off_c, 2, 72, 0
2, 2006160, Note_on_c, 2, 72, 50
2, 2006400, Note_off_c, 2, 72, 0
2, 2006400, Note_on_c, 2, 69, 50
2, 2006640, Note_off_c, 2, 69, 0
2, 2006640, Note_on_c, 2, 67, 50
2, 2006880, Note_off_c, 2, 67, 0
2, 2006880, Note_on_c, 2, 69, 50
2, 2007120, Note_off_c, 2, 69, 0
2, 2007360, Note_on_c, 2, 72, 50
2, 2007840, Note_off_c, 2, 72, 0
2, 2007840, Note_on_c, 2, 72, 50
2, 2008080, Note_off_c, 2, 72, 0
2, 2008080, Note_on_c, 2, 72, 50
2, 2008320, Note_off_c, 2, 72, 0
2, 2008320, Note_on_c, 2, 69, 50
2, 2008560, Note_off_c, 2, 69, 0
2, 2008560, Note_on_c, 2, 67, 50
2, 2008800, Note_off_c, 2, 67, 0
2, 2008800, Note_on_c, 2, 69, 50
2, 2009040, Note_off_c, 2, 69, 0
2, 2009280, Note_on_c, 2, 72, 50
2, 2009760, Note_off_c, 2, 72, 0
2, 2009760, Note_on_c, 2, 69, 50
2, 2010000, Note_off_c, 2, 69, 0
2, 2010000, Note_on_c, 2, 72, 50
2, 2010240, Note_off_c, 2, 72, 0
2, 2010240, Note_on_c, 2, 69, 50
2, 2010480, Note_off_c, 2, 69, 0
2, 2010480, Note_on_c, 2, 67, 50
2, 2010720, Note_off_c, 2, 67, 0
2, 2010720, Note_on_c, 2, 69, 50
2, 2010960, Note_off_c, 2, 69, 0
2, 2011200, Note_on_c, 2, 72, 50
2, 2011680, Note_off_c, 2, 72, 0
2, 2011680, Note_on_c, 2, 69, 50
2, 2011920, Note_off_c, 2, 69, 0
2, 2011920, Note_on_c, 2, 72, 50
2, 2012160, Note_off_c, 2, 72, 0
2, 2012160, Note_on_c, 2, 69, 50
2, 2012400, Note_off_c, 2, 69, 0
2, 2012400, Note_on_c, 2, 67, 50
2, 2012640, Note_off_c, 2, 67, 0
2, 2012640, Note_on_c, 2, 69, 50
2, 2012880, Note_off_c, 2, 69, 0
2, 2013120, Note_on_c, 2, 71, 50
2, 2013360, Note_off_c, 2, 71, 0
2, 2013840, Note_on_c, 2, 71, 50
2, 2014320, Note_off_c, 2, 71, 0
2, 2014320, Note_on_c, 2, 69, 50
2, 2014560, Note_off_c, 2, 69, 0
2, 2014560, Note_on_c, 2, 71, 50
2, 2015280, Note_off_c, 2, 71, 0
2, 2015280, Note_on_c, 2, 69, 50
2, 2015520, Note_off_c, 2, 69, 0
2, 2015520, Note_on_c, 2, 71, 50
2, 2015760, Note_off_c, 2, 71, 0
2, 2016720, Note_on_c, 2, 72, 50
2, 2016960, Note_off_c, 2, 72, 0
2, 2016960, Note_on_c, 2, 72, 50
2, 2017200, Note_off_c, 2, 72, 0
2, 2017200, Note_on_c, 2, 72, 50
2, 2017440, Note_off_c, 2, 72, 0
2, 2017440, Note_on_c, 2, 72, 50
2, 2017680, Note_off_c, 2, 72, 0
2, 2017680, Note_on_c, 2, 72, 50
2, 2017920, Note_off_c, 2, 72, 0
2, 2017920, Note_on_c, 2, 72, 50
2, 2018160, Note_off_c, 2, 72, 0
2, 2018160, Note_on_c, 2, 72, 50
2, 2018400, Note_off_c, 2, 72, 0
2, 2018400, Note_on_c, 2, 72, 50
2, 2018640, Note_off_c, 2, 72, 0
2, 2018640, Note_on_c, 2, 72, 50
2, 2018880, Note_off_c, 2, 72, 0
2, 2018880, Note_on_c, 2, 72, 50
2, 2019120, Note_off_c, 2, 72, 0
2, 2019120, Note_on_c, 2, 72, 50
2, 2019360, Note_off_c, 2, 72, 0
2, 2019360, Note_on_c, 2, 72, 50
2, 2019840, Note_off_c, 2, 72, 0
2, 2020080, Note_on_c, 2, 69, 50
2, 2020320, Note_off_c, 2, 69, 0
2, 2020320, Note_on_c, 2, 69, 50
2, 2020440, Note_off_c, 2, 69, 0
2, 2020440, Note_on_c, 2, 76, 50
2, 2020680, Note_off_c, 2, 76, 0
2, 2020680, Note_on_c, 2, 71, 50
2, 2020800, Note_off_c, 2, 71, 0
2, 2020800, Note_on_c, 2, 73, 50
2, 2021040, Note_off_c, 2, 73, 0
2, 2022000, Note_on_c, 2, 73, 50
2, 2022480, Note_off_c, 2, 73, 0
2, 2022480, Note_on_c, 2, 71, 50
2, 2022600, Note_off_c, 2, 71, 0
2, 2022600, Note_on_c, 2, 69, 50
2, 2022720, Note_off_c, 2, 69, 0
2, 2022720, Note_on_c, 2, 66, 50
2, 2022960, Note_off_c, 2, 66, 0
2, 2023920, Note_on_c, 2, 66, 50
2, 2024160, Note_off_c, 2, 66, 0
2, 2024160, Note_on_c, 2, 69, 50
2, 2024280, Note_off_c, 2, 69, 0
2, 2024280, Note_on_c, 2, 69, 50
2, 2024400, Note_off_c, 2, 69, 0
2, 2047680, Note_on_c, 2, 72, 50
2, 2047920, Note_off_c, 2, 72, 0
2, 2047920, Note_on_c, 2, 72, 50
2, 2048160, Note_off_c, 2, 72, 0
2, 2048160, Note_on_c, 2, 72, 50
2, 2048400, Note_off_c, 2, 72, 0
2, 2048400, Note_on_c, 2, 72, 50
2, 2048640, Note_off_c, 2, 72, 0
2, 2048640, Note_on_c, 2, 69, 50
2, 2048880, Note_off_c, 2, 69, 0
2, 2048880, Note_on_c, 2, 67, 50
2, 2049120, Note_off_c, 2, 67, 0
2, 2049120, Note_on_c, 2, 69, 50
2, 2049360, Note_off_c, 2, 69, 0
2, 2049600, Note_on_c, 2, 72, 50
2, 2050080, Note_off_c, 2, 72, 0
2, 2050080, Note_on_c, 2, 72, 50
2, 2050320, Note_off_c, 2, 72, 0
2, 2050320, Note_on_c, 2, 72, 50
2, 2050560, Note_off_c, 2, 72, 0
2, 2050560, Note_on_c, 2, 69, 50
2, 2050800, Note_off_c, 2, 69, 0
2, 2050800, Note_on_c, 2, 67, 50
2, 2051040, Note_off_c, 2, 67, 0
2, 2051040, Note_on_c, 2, 69, 50
2, 2051280, Note_off_c, 2, 69, 0
2, 2051520, Note_on_c, 2, 72, 50
2, 2052000, Note_off_c, 2, 72, 0
2, 2052000, Note_on_c, 2, 69, 50
2, 2052240, Note_off_c, 2, 69, 0
2, 2052240, Note_on_c, 2, 72, 50
2, 2052480, Note_off_c, 2, 72, 0
2, 2052480, Note_on_c, 2, 69, 50
2, 2052720, Note_off_c, 2, 69, 0
2, 2052720, Note_on_c, 2, 67, 50
2, 2052960, Note_off_c, 2, 67, 0
2, 2052960, Note_on_c, 2, 69, 50
2, 2053200, Note_off_c, 2, 69, 0
2, 2053440, Note_on_c, 2, 72, 50
2, 2053920, Note_off_c, 2, 72, 0
2, 2053920, Note_on_c, 2, 69, 50
2, 2054160, Note_off_c, 2, 69, 0
2, 2054160, Note_on_c, 2, 72, 50
2, 2054400, Note_off_c, 2, 72, 0
2, 2054400, Note_on_c, 2, 69, 50
2, 2054640, Note_off_c, 2, 69, 0
2, 2054640, Note_on_c, 2, 67, 50
2, 2054880, Note_off_c, 2, 67, 0
2, 2054880, Note_on_c, 2, 69, 50
2, 2055120, Note_off_c, 2, 69, 0
2, 2055360, Note_on_c, 2, 71, 50
2, 2055600, Note_off_c, 2, 71, 0
2, 2056080, Note_on_c, 2, 71, 50
2, 2056560, Note_off_c, 2, 71, 0
2, 2056560, Note_on_c, 2, 69, 50
2, 2056800, Note_off_c, 2, 69, 0
2, 2056800, Note_on_c, 2, 71, 50
2, 2057520, Note_off_c, 2, 71, 0
2, 2057520, Note_on_c, 2, 69, 50
2, 2057760, Note_off_c, 2, 69, 0
2, 2057760, Note_on_c, 2, 71, 50
2, 2058000, Note_off_c, 2, 71, 0
2, 2058960, Note_on_c, 2, 72, 50
2, 2059200, Note_off_c, 2, 72, 0
2, 2059200, Note_on_c, 2, 72, 50
2, 2059440, Note_off_c, 2, 72, 0
2, 2059440, Note_on_c, 2, 72, 50
2, 2059680, Note_off_c, 2, 72, 0
2, 2059680, Note_on_c, 2, 72, 50
2, 2059920, Note_off_c, 2, 72, 0
2, 2059920, Note_on_c, 2, 72, 50
2, 2060160, Note_off_c, 2, 72, 0
2, 2060160, Note_on_c, 2, 72, 50
2, 2060400, Note_off_c, 2, 72, 0
2, 2060400, Note_on_c, 2, 72, 50
2, 2060640, Note_off_c, 2, 72, 0
2, 2060640, Note_on_c, 2, 72, 50
2, 2060880, Note_off_c, 2, 72, 0
2, 2060880, Note_on_c, 2, 72, 50
2, 2061120, Note_off_c, 2, 72, 0
2, 2061120, Note_on_c, 2, 72, 50
2, 2061360, Note_off_c, 2, 72, 0
2, 2061360, Note_on_c, 2, 72, 50
2, 2061600, Note_off_c, 2, 72, 0
2, 2061600, Note_on_c, 2, 72, 50
2, 2062080, Note_off_c, 2, 72, 0
2, 2062320, Note_on_c, 2, 69, 50
2, 2062560, Note_off_c, 2, 69, 0
2, 2062560, Note_on_c, 2, 69, 50
2, 2062680, Note_off_c, 2, 69, 0
2, 2062680, Note_on_c, 2, 76, 50
2, 2062920, Note_off_c, 2, 76, 0
2, 2062920, Note_on_c, 2, 71, 50
2, 2063040, Note_off_c, 2, 71, 0
2, 2063040, Note_on_c, 2, 73, 50
2, 2063280, Note_off_c, 2, 73, 0
2, 2064240, Note_on_c, 2, 73, 50
2, 2064720, Note_off_c, 2, 73, 0
2, 2064720, Note_on_c, 2, 71, 50
2, 2064840, Note_off_c, 2, 71, 0
2, 2064840, Note_on_c, 2, 69, 50
2, 2064960, Note_off_c, 2, 69, 0
2, 2064960, Note_on_c, 2, 66, 50
2, 2065200, Note_off_c, 2, 66, 0
2, 2066160, Note_on_c, 2, 66, 50
2, 2066400, Note_off_c, 2, 66, 0
2, 2066400, Note_on_c, 2, 69, 50
2, 2066520, Note_off_c, 2, 69, 0
2, 2066520, Note_on_c, 2, 69, 50
2, 2066640, Note_off_c, 2, 69, 0
2, 2073960, Note_on_c, 2, 74, 50
2, 2074320, Note_off_c, 2, 74, 0
2, 2078640, Note_on_c, 2, 71, 50
2, 2078880, Note_off_c, 2, 71, 0
2, 2078880, Note_on_c, 2, 72, 50
2, 2079000, Note_off_c, 2, 72, 0
2, 2079000, Note_on_c, 2, 71, 50
2, 2079240, Note_off_c, 2, 71, 0
2, 2079240, Note_on_c, 2, 69, 50
2, 2079600, Note_off_c, 2, 69, 0
2, 2080560, Note_on_c, 2, 69, 50
2, 2080800, Note_off_c, 2, 69, 0
2, 2082480, Note_on_c, 2, 71, 50
2, 2082720, Note_off_c, 2, 71, 0
2, 2082720, Note_on_c, 2, 72, 50
2, 2082840, Note_off_c, 2, 72, 0
2, 2082840, Note_on_c, 2, 71, 50
2, 2083080, Note_off_c, 2, 71, 0
2, 2083080, Note_on_c, 2, 69, 50
2, 2083440, Note_off_c, 2, 69, 0
2, 2083920, Note_on_c, 2, 67, 50
2, 2084160, Note_off_c, 2, 67, 0
2, 2086320, Note_on_c, 2, 71, 50
2, 2086560, Note_off_c, 2, 71, 0
2, 2086560, Note_on_c, 2, 72, 50
2, 2086680, Note_off_c, 2, 72, 0
2, 2086680, Note_on_c, 2, 71, 50
2, 2086920, Note_off_c, 2, 71, 0
2, 2086920, Note_on_c, 2, 69, 50
2, 2087280, Note_off_c, 2, 69, 0
2, 2087760, Note_on_c, 2, 69, 50
2, 2088000, Note_off_c, 2, 69, 0
2, 2090160, Note_on_c, 2, 71, 50
2, 2090400, Note_off_c, 2, 71, 0
2, 2090400, Note_on_c, 2, 72, 50
2, 2090520, Note_off_c, 2, 72, 0
2, 2090520, Note_on_c, 2, 71, 50
2, 2090760, Note_off_c, 2, 71, 0
2, 2090760, Note_on_c, 2, 69, 50
2, 2091120, Note_off_c, 2, 69, 0
2, 2091600, Note_on_c, 2, 69, 50
2, 2091840, Note_off_c, 2, 69, 0
2, 2094000, Note_on_c, 2, 71, 50
2, 2094240, Note_off_c, 2, 71, 0
2, 2094240, Note_on_c, 2, 72, 50
2, 2094360, Note_off_c, 2, 72, 0
2, 2094360, Note_on_c, 2, 71, 50
2, 2094600, Note_off_c, 2, 71, 0
2, 2094600, Note_on_c, 2, 69, 50
2, 2094960, Note_off_c, 2, 69, 0
2, 2095440, Note_on_c, 2, 76, 50
2, 2095680, Note_off_c, 2, 76, 0
2, 2097840, Note_on_c, 2, 71, 50
2, 2098080, Note_off_c, 2, 71, 0
2, 2098080, Note_on_c, 2, 72, 50
2, 2098200, Note_off_c, 2, 72, 0
2, 2098200, Note_on_c, 2, 71, 50
2, 2098440, Note_off_c, 2, 71, 0
2, 2098440, Note_on_c, 2, 69, 50
2, 2098800, Note_off_c, 2, 69, 0
2, 2099160, Note_on_c, 2, 81, 50
2, 2100720, Note_off_c, 2, 81, 0
2, 2101680, Note_on_c, 2, 71, 50
2, 2101920, Note_off_c, 2, 71, 0
2, 2101920, Note_on_c, 2, 72, 50
2, 2102040, Note_off_c, 2, 72, 0
2, 2102040, Note_on_c, 2, 71, 50
2, 2102280, Note_off_c, 2, 71, 0
2, 2102280, Note_on_c, 2, 69, 50
2, 2102640, Note_off_c, 2, 69, 0
2, 2103000, Note_on_c, 2, 81, 50
2, 2104560, Note_off_c, 2, 81, 0
2, 2105520, Note_on_c, 2, 57, 50
2, 2107440, Note_off_c, 2, 57, 0
2, 2107440, Note_on_c, 2, 57, 50
2, 2108400, Note_off_c, 2, 57, 0
2, 2109360, Note_on_c, 2, 71, 50
2, 2109600, Note_off_c, 2, 71, 0
2, 2109600, Note_on_c, 2, 72, 50
2, 2109720, Note_off_c, 2, 72, 0
2, 2109720, Note_on_c, 2, 71, 50
2, 2109960, Note_off_c, 2, 71, 0
2, 2109960, Note_on_c, 2, 69, 50
2, 2110320, Note_off_c, 2, 69, 0
2, 2110680, Note_on_c, 2, 69, 50
2, 2111040, Note_off_c, 2, 69, 0
2, 2113200, Note_on_c, 2, 71, 50
2, 2113440, Note_off_c, 2, 71, 0
2, 2113440, Note_on_c, 2, 72, 50
2, 2113560, Note_off_c, 2, 72, 0
2, 2113560, Note_on_c, 2, 71, 50
2, 2113800, Note_off_c, 2, 71, 0
2, 2113800, Note_on_c, 2, 69, 50
2, 2114160, Note_off_c, 2, 69, 0
2, 2114520, Note_on_c, 2, 81, 50
2, 2116080, Note_off_c, 2, 81, 0
2, 2117040, Note_on_c, 2, 71, 50
2, 2117280, Note_off_c, 2, 71, 0
2, 2117280, Note_on_c, 2, 72, 50
2, 2117400, Note_off_c, 2, 72, 0
2, 2117400, Note_on_c, 2, 71, 50
2, 2117640, Note_off_c, 2, 71, 0
2, 2117640, Note_on_c, 2, 69, 50
2, 2118000, Note_off_c, 2, 69, 0
2, 2120880, Note_on_c, 2, 71, 50
2, 2121120, Note_off_c, 2, 71, 0
2, 2121120, Note_on_c, 2, 72, 50
2, 2121240, Note_off_c, 2, 72, 0
2, 2121240, Note_on_c, 2, 71, 50
2, 2121480, Note_off_c, 2, 71, 0
2, 2121480, Note_on_c, 2, 69, 50
2, 2121840, Note_off_c, 2, 69, 0
2, 2122200, Note_on_c, 2, 81, 50
2, 2123760, Note_off_c, 2, 81, 0
2, 2124720, Note_on_c, 2, 71, 50
2, 2124960, Note_off_c, 2, 71, 0
2, 2124960, Note_on_c, 2, 72, 50
2, 2125080, Note_off_c, 2, 72, 0
2, 2125080, Note_on_c, 2, 71, 50
2, 2125320, Note_off_c, 2, 71, 0
2, 2125320, Note_on_c, 2, 69, 50
2, 2125680, Note_off_c, 2, 69, 0
2, 2128560, Note_on_c, 2, 71, 50
2, 2128800, Note_off_c, 2, 71, 0
2, 2128800, Note_on_c, 2, 72, 50
2, 2128920, Note_off_c, 2, 72, 0
2, 2128920, Note_on_c, 2, 71, 50
2, 2129160, Note_off_c, 2, 71, 0
2, 2129160, Note_on_c, 2, 69, 50
2, 2129520, Note_off_c, 2, 69, 0
2, 2129880, Note_on_c, 2, 81, 50
2, 2131440, Note_off_c, 2, 81, 0
2, 2132400, Note_on_c, 2, 71, 50
2, 2132640, Note_off_c, 2, 71, 0
2, 2132640, Note_on_c, 2, 72, 50
2, 2132760, Note_off_c, 2, 72, 0
2, 2132760, Note_on_c, 2, 71, 50
2, 2133000, Note_off_c, 2, 71, 0
2, 2133000, Note_on_c, 2, 69, 50
2, 2133360, Note_off_c, 2, 69, 0
2, 2139600, Note_on_c, 2, 45, 50
2, 2140320, Note_off_c, 2, 45, 0
2, 2140320, Note_on_c, 2, 48, 50
2, 2140560, Note_off_c, 2, 48, 0
2, 2140560, Note_on_c, 2, 49, 50
2, 2140800, Note_off_c, 2, 49, 0
2, 2140800, Note_on_c, 2, 52, 50
2, 2141040, Note_off_c, 2, 52, 0
2, 2141040, Note_on_c, 2, 57, 50
2, 2141280, Note_off_c, 2, 57, 0
2, 2141280, Note_on_c, 2, 55, 50
2, 2142000, Note_off_c, 2, 55, 0
2, 2142000, Note_on_c, 2, 52, 50
2, 2142240, Note_off_c, 2, 52, 0
2, 2142240, Note_on_c, 2, 59, 50
2, 2142720, Note_off_c, 2, 59, 0
2, 2142720, Note_on_c, 2, 52, 50
2, 2142960, Note_off_c, 2, 52, 0
2, 2142960, Note_on_c, 2, 55, 50
2, 2143200, Note_off_c, 2, 55, 0
2, 2143200, Note_on_c, 2, 57, 50
2, 2143440, Note_off_c, 2, 57, 0
2, 2143440, Note_on_c, 2, 45, 50
2, 2144160, Note_off_c, 2, 45, 0
2, 2144160, Note_on_c, 2, 48, 50
2, 2144400, Note_off_c, 2, 48, 0
2, 2144400, Note_on_c, 2, 49, 50
2, 2144640, Note_off_c, 2, 49, 0
2, 2144640, Note_on_c, 2, 52, 50
2, 2144880, Note_off_c, 2, 52, 0
2, 2144880, Note_on_c, 2, 57, 50
2, 2145120, Note_off_c, 2, 57, 0
2, 2145120, Note_on_c, 2, 55, 50
2, 2145840, Note_off_c, 2, 55, 0
2, 2145840, Note_on_c, 2, 52, 50
2, 2146080, Note_off_c, 2, 52, 0
2, 2146080, Note_on_c, 2, 59, 50
2, 2146560, Note_off_c, 2, 59, 0
2, 2146560, Note_on_c, 2, 52, 50
2, 2146800, Note_off_c, 2, 52, 0
2, 2146800, Note_on_c, 2, 55, 50
2, 2147040, Note_off_c, 2, 55, 0
2, 2147040, Note_on_c, 2, 57, 50
2, 2147280, Note_off_c, 2, 57, 0
2, 2147280, Note_on_c, 2, 45, 50
2, 2148000, Note_off_c, 2, 45, 0
2, 2148000, Note_on_c, 2, 48, 50
2, 2148240, Note_off_c, 2, 48, 0
2, 2148240, Note_on_c, 2, 49, 50
2, 2148480, Note_off_c, 2, 49, 0
2, 2148480, Note_on_c, 2, 52, 50
2, 2148720, Note_off_c, 2, 52, 0
2, 2148720, Note_on_c, 2, 57, 50
2, 2148960, Note_off_c, 2, 57, 0
2, 2148960, Note_on_c, 2, 55, 50
2, 2149680, Note_off_c, 2, 55, 0
2, 2149680, Note_on_c, 2, 52, 50
2, 2149920, Note_off_c, 2, 52, 0
2, 2149920, Note_on_c, 2, 59, 50
2, 2150400, Note_off_c, 2, 59, 0
2, 2150400, Note_on_c, 2, 52, 50
2, 2150640, Note_off_c, 2, 52, 0
2, 2150640, Note_on_c, 2, 55, 50
2, 2150880, Note_off_c, 2, 55, 0
2, 2150880, Note_on_c, 2, 57, 50
2, 2151120, Note_off_c, 2, 57, 0
2, 2151120, Note_on_c, 2, 45, 50
2, 2151840, Note_off_c, 2, 45, 0
2, 2151840, Note_on_c, 2, 48, 50
2, 2152080, Note_off_c, 2, 48, 0
2, 2152080, Note_on_c, 2, 49, 50
2, 2152320, Note_off_c, 2, 49, 0
2, 2152320, Note_on_c, 2, 52, 50
2, 2152560, Note_off_c, 2, 52, 0
2, 2152560, Note_on_c, 2, 57, 50
2, 2152800, Note_off_c, 2, 57, 0
2, 2152800, Note_on_c, 2, 55, 50
2, 2153520, Note_off_c, 2, 55, 0
2, 2153520, Note_on_c, 2, 52, 50
2, 2153760, Note_off_c, 2, 52, 0
2, 2153760, Note_on_c, 2, 59, 50
2, 2154240, Note_off_c, 2, 59, 0
2, 2154240, Note_on_c, 2, 52, 50
2, 2154480, Note_off_c, 2, 52, 0
2, 2154480, Note_on_c, 2, 55, 50
2, 2154720, Note_off_c, 2, 55, 0
2, 2154720, Note_on_c, 2, 57, 50
2, 2154960, Note_off_c, 2, 57, 0
2, 2154960, Note_on_c, 2, 45, 50
2, 2155680, Note_off_c, 2, 45, 0
2, 2155680, Note_on_c, 2, 48, 50
2, 2155920, Note_off_c, 2, 48, 0
2, 2155920, Note_on_c, 2, 49, 50
2, 2156160, Note_off_c, 2, 49, 0
2, 2156160, Note_on_c, 2, 52, 50
2, 2156400, Note_off_c, 2, 52, 0
2, 2156400, Note_on_c, 2, 57, 50
2, 2156640, Note_off_c, 2, 57, 0
2, 2156640, Note_on_c, 2, 55, 50
2, 2157360, Note_off_c, 2, 55, 0
2, 2157360, Note_on_c, 2, 52, 50
2, 2157600, Note_off_c, 2, 52, 0
2, 2157600, Note_on_c, 2, 59, 50
2, 2158080, Note_off_c, 2, 59, 0
2, 2158080, Note_on_c, 2, 52, 50
2, 2158320, Note_off_c, 2, 52, 0
2, 2158320, Note_on_c, 2, 55, 50
2, 2158560, Note_off_c, 2, 55, 0
2, 2158560, Note_on_c, 2, 57, 50
2, 2158800, Note_off_c, 2, 57, 0
2, 2158800, Note_on_c, 2, 45, 50
2, 2159520, Note_off_c, 2, 45, 0
2, 2159520, Note_on_c, 2, 48, 50
2, 2159760, Note_off_c, 2, 48, 0
2, 2159760, Note_on_c, 2, 49, 50
2, 2160000, Note_off_c, 2, 49, 0
2, 2160000, Note_on_c, 2, 52, 50
2, 2160240, Note_off_c, 2, 52, 0
2, 2160240, Note_on_c, 2, 57, 50
2, 2160480, Note_off_c, 2, 57, 0
2, 2160480, Note_on_c, 2, 55, 50
2, 2161200, Note_off_c, 2, 55, 0
2, 2161200, Note_on_c, 2, 52, 50
2, 2161440, Note_off_c, 2, 52, 0
2, 2161440, Note_on_c, 2, 59, 50
2, 2161920, Note_off_c, 2, 59, 0
2, 2161920, Note_on_c, 2, 52, 50
2, 2162160, Note_off_c, 2, 52, 0
2, 2162160, Note_on_c, 2, 55, 50
2, 2162400, Note_off_c, 2, 55, 0
2, 2162400, Note_on_c, 2, 57, 50
2, 2162640, Note_off_c, 2, 57, 0
2, 2162640, Note_on_c, 2, 45, 50
2, 2163360, Note_off_c, 2, 45, 0
2, 2163360, Note_on_c, 2, 48, 50
2, 2163600, Note_off_c, 2, 48, 0
2, 2163600, Note_on_c, 2, 49, 50
2, 2163840, Note_off_c, 2, 49, 0
2, 2163840, Note_on_c, 2, 52, 50
2, 2164080, Note_off_c, 2, 52, 0
2, 2164080, Note_on_c, 2, 57, 50
2, 2164320, Note_off_c, 2, 57, 0
2, 2164320, Note_on_c, 2, 55, 50
2, 2165040, Note_off_c, 2, 55, 0
2, 2165040, Note_on_c, 2, 52, 50
2, 2165280, Note_off_c, 2, 52, 0
2, 2165280, Note_on_c, 2, 59, 50
2, 2165760, Note_off_c, 2, 59, 0
2, 2165760, Note_on_c, 2, 52, 50
2, 2166000, Note_off_c, 2, 52, 0
2, 2166000, Note_on_c, 2, 55, 50
2, 2166240, Note_off_c, 2, 55, 0
2, 2166240, Note_on_c, 2, 57, 50
2, 2166480, Note_off_c, 2, 57, 0
2, 2166480, Note_on_c, 2, 50, 50
2, 2167200, Note_off_c, 2, 50, 0
2, 2167200, Note_on_c, 2, 53, 50
2, 2167440, Note_off_c, 2, 53, 0
2, 2167440, Note_on_c, 2, 54, 50
2, 2167680, Note_off_c, 2, 54, 0
2, 2167680, Note_on_c, 2, 57, 50
2, 2167920, Note_off_c, 2, 57, 0
2, 2167920, Note_on_c, 2, 62, 50
2, 2168160, Note_off_c, 2, 62, 0
2, 2168160, Note_on_c, 2, 60, 50
2, 2168880, Note_off_c, 2, 60, 0
2, 2168880, Note_on_c, 2, 57, 50
2, 2169120, Note_off_c, 2, 57, 0
2, 2169120, Note_on_c, 2, 64, 50
2, 2169600, Note_off_c, 2, 64, 0
2, 2169600, Note_on_c, 2, 57, 50
2, 2169840, Note_off_c, 2, 57, 0
2, 2169840, Note_on_c, 2, 60, 50
2, 2170080, Note_off_c, 2, 60, 0
2, 2170080, Note_on_c, 2, 62, 50
2, 2170320, Note_off_c, 2, 62, 0
2, 2170320, Note_on_c, 2, 45, 50
2, 2171040, Note_off_c, 2, 45, 0
2, 2171040, Note_on_c, 2, 48, 50
2, 2171280, Note_off_c, 2, 48, 0
2, 2171280, Note_on_c, 2, 49, 50
2, 2171520, Note_off_c, 2, 49, 0
2, 2171520, Note_on_c, 2, 52, 50
2, 2171760, Note_off_c, 2, 52, 0
2, 2171760, Note_on_c, 2, 57, 50
2, 2172000, Note_off_c, 2, 57, 0
2, 2172000, Note_on_c, 2, 55, 50
2, 2172720, Note_off_c, 2, 55, 0
2, 2172720, Note_on_c, 2, 52, 50
2, 2172960, Note_off_c, 2, 52, 0
2, 2172960, Note_on_c, 2, 59, 50
2, 2173440, Note_off_c, 2, 59, 0
2, 2173440, Note_on_c, 2, 52, 50
2, 2173680, Note_off_c, 2, 52, 0
2, 2173680, Note_on_c, 2, 55, 50
2, 2173920, Note_off_c, 2, 55, 0
2, 2173920, Note_on_c, 2, 57, 50
2, 2174160, Note_off_c, 2, 57, 0
2, 2174160, Note_on_c, 2, 47, 50
2, 2174640, Note_off_c, 2, 47, 0
2, 2174640, Note_on_c, 2, 47, 50
2, 2174880, Note_off_c, 2, 47, 0
2, 2174880, Note_on_c, 2, 47, 50
2, 2175120, Note_off_c, 2, 47, 0
2, 2175120, Note_on_c, 2, 47, 50
2, 2175600, Note_off_c, 2, 47, 0
2, 2175600, Note_on_c, 2, 47, 50
2, 2175840, Note_off_c, 2, 47, 0
2, 2175840, Note_on_c, 2, 47, 50
2, 2176080, Note_off_c, 2, 47, 0
2, 2176080, Note_on_c, 2, 47, 50
2, 2176560, Note_off_c, 2, 47, 0
2, 2176560, Note_on_c, 2, 47, 50
2, 2176800, Note_off_c, 2, 47, 0
2, 2176800, Note_on_c, 2, 47, 50
2, 2177040, Note_off_c, 2, 47, 0
2, 2177040, Note_on_c, 2, 45, 50
2, 2177160, Note_off_c, 2, 45, 0
2, 2177160, Note_on_c, 2, 47, 50
2, 2177280, Note_off_c, 2, 47, 0
2, 2177280, Note_on_c, 2, 50, 50
2, 2177520, Note_off_c, 2, 50, 0
2, 2177520, Note_on_c, 2, 47, 50
2, 2177760, Note_off_c, 2, 47, 0
2, 2177760, Note_on_c, 2, 47, 50
2, 2178000, Note_off_c, 2, 47, 0
2, 2178000, Note_on_c, 2, 47, 50
2, 2178480, Note_off_c, 2, 47, 0
2, 2178480, Note_on_c, 2, 47, 50
2, 2178720, Note_off_c, 2, 47, 0
2, 2178720, Note_on_c, 2, 47, 50
2, 2178960, Note_off_c, 2, 47, 0
2, 2179200, Note_on_c, 2, 47, 50
2, 2179440, Note_off_c, 2, 47, 0
2, 2179680, Note_on_c, 2, 45, 50
2, 2179920, Note_off_c, 2, 45, 0
2, 2179920, Note_on_c, 2, 45, 50
2, 2180160, Note_off_c, 2, 45, 0
2, 2180160, Note_on_c, 2, 47, 50
2, 2180400, Note_off_c, 2, 47, 0
2, 2180400, Note_on_c, 2, 47, 50
2, 2180640, Note_off_c, 2, 47, 0
2, 2180640, Note_on_c, 2, 47, 50
2, 2180880, Note_off_c, 2, 47, 0
2, 2180880, Note_on_c, 2, 47, 50
2, 2181120, Note_off_c, 2, 47, 0
2, 2181120, Note_on_c, 2, 47, 50
2, 2181360, Note_off_c, 2, 47, 0
2, 2181360, Note_on_c, 2, 47, 50
2, 2181600, Note_off_c, 2, 47, 0
2, 2181600, Note_on_c, 2, 47, 50
2, 2181840, Note_off_c, 2, 47, 0
2, 2181840, Note_on_c, 2, 50, 50
2, 2182320, Note_off_c, 2, 50, 0
2, 2182320, Note_on_c, 2, 50, 50
2, 2182560, Note_off_c, 2, 50, 0
2, 2182560, Note_on_c, 2, 50, 50
2, 2182800, Note_off_c, 2, 50, 0
2, 2183040, Note_on_c, 2, 50, 50
2, 2183280, Note_off_c, 2, 50, 0
2, 2183520, Note_on_c, 2, 50, 50
2, 2183760, Note_off_c, 2, 50, 0
2, 2183760, Note_on_c, 2, 49, 50
2, 2184240, Note_off_c, 2, 49, 0
2, 2184240, Note_on_c, 2, 49, 50
2, 2184480, Note_off_c, 2, 49, 0
2, 2184480, Note_on_c, 2, 49, 50
2, 2184720, Note_off_c, 2, 49, 0
2, 2184720, Note_on_c, 2, 56, 50
2, 2185200, Note_off_c, 2, 56, 0
2, 2185200, Note_on_c, 2, 56, 50
2, 2185680, Note_off_c, 2, 56, 0
2, 2185680, Note_on_c, 2, 54, 50
2, 2186160, Note_off_c, 2, 54, 0
2, 2186160, Note_on_c, 2, 54, 50
2, 2186640, Note_off_c, 2, 54, 0
2, 2186640, Note_on_c, 2, 54, 50
2, 2187120, Note_off_c, 2, 54, 0
2, 2187120, Note_on_c, 2, 54, 50
2, 2187360, Note_off_c, 2, 54, 0
2, 2187360, Note_on_c, 2, 54, 50
2, 2187600, Note_off_c, 2, 54, 0
2, 2187600, Note_on_c, 2, 52, 50
2, 2188080, Note_off_c, 2, 52, 0
2, 2188080, Note_on_c, 2, 59, 50
2, 2188560, Note_off_c, 2, 59, 0
2, 2188560, Note_on_c, 2, 52, 50
2, 2188800, Note_off_c, 2, 52, 0
2, 2188800, Note_on_c, 2, 64, 50
2, 2189040, Note_off_c, 2, 64, 0
2, 2189040, Note_on_c, 2, 59, 50
2, 2189520, Note_off_c, 2, 59, 0
2, 2189520, Note_on_c, 2, 45, 50
2, 2190240, Note_off_c, 2, 45, 0
2, 2190240, Note_on_c, 2, 48, 50
2, 2190480, Note_off_c, 2, 48, 0
2, 2190480, Note_on_c, 2, 49, 50
2, 2190720, Note_off_c, 2, 49, 0
2, 2190720, Note_on_c, 2, 52, 50
2, 2190960, Note_off_c, 2, 52, 0
2, 2190960, Note_on_c, 2, 57, 50
2, 2191200, Note_off_c, 2, 57, 0
2, 2191200, Note_on_c, 2, 55, 50
2, 2191920, Note_off_c, 2, 55, 0
2, 2191920, Note_on_c, 2, 52, 50
2, 2192160, Note_off_c, 2, 52, 0
2, 2192160, Note_on_c, 2, 59, 50
2, 2192640, Note_off_c, 2, 59, 0
2, 2192640, Note_on_c, 2, 52, 50
2, 2192880, Note_off_c, 2, 52, 0
2, 2192880, Note_on_c, 2, 55, 50
2, 2193120, Note_off_c, 2, 55, 0
2, 2193120, Note_on_c, 2, 57, 50
2, 2193360, Note_off_c, 2, 57, 0
2, 2193360, Note_on_c, 2, 45, 50
2, 2194080, Note_off_c, 2, 45, 0
2, 2194080, Note_on_c, 2, 48, 50
2, 2194320, Note_off_c, 2, 48, 0
2, 2194320, Note_on_c, 2, 49, 50
2, 2194560, Note_off_c, 2, 49, 0
2, 2194560, Note_on_c, 2, 52, 50
2, 2194800, Note_off_c, 2, 52, 0
2, 2194800, Note_on_c, 2, 57, 50
2, 2195040, Note_off_c, 2, 57, 0
2, 2195040, Note_on_c, 2, 55, 50
2, 2195760, Note_off_c, 2, 55, 0
2, 2195760, Note_on_c, 2, 52, 50
2, 2196000, Note_off_c, 2, 52, 0
2, 2196000, Note_on_c, 2, 59, 50
2, 2196480, Note_off_c, 2, 59, 0
2, 2196480, Note_on_c, 2, 52, 50
2, 2196720, Note_off_c, 2, 52, 0
2, 2196720, Note_on_c, 2, 55, 50
2, 2196960, Note_off_c, 2, 55, 0
2, 2196960, Note_on_c, 2, 57, 50
2, 2197200, Note_off_c, 2, 57, 0
2, 2197200, Note_on_c, 2, 45, 50
2, 2197920, Note_off_c, 2, 45, 0
2, 2197920, Note_on_c, 2, 48, 50
2, 2198160, Note_off_c, 2, 48, 0
2, 2198160, Note_on_c, 2, 49, 50
2, 2198400, Note_off_c, 2, 49, 0
2, 2198400, Note_on_c, 2, 52, 50
2, 2198640, Note_off_c, 2, 52, 0
2, 2198640, Note_on_c, 2, 57, 50
2, 2198880, Note_off_c, 2, 57, 0
2, 2198880, Note_on_c, 2, 55, 50
2, 2199600, Note_off_c, 2, 55, 0
2, 2199600, Note_on_c, 2, 52, 50
2, 2199840, Note_off_c, 2, 52, 0
2, 2199840, Note_on_c, 2, 59, 50
2, 2200320, Note_off_c, 2, 59, 0
2, 2200320, Note_on_c, 2, 52, 50
2, 2200560, Note_off_c, 2, 52, 0
2, 2200560, Note_on_c, 2, 55, 50
2, 2200800, Note_off_c, 2, 55, 0
2, 2200800, Note_on_c, 2, 57, 50
2, 2201040, Note_off_c, 2, 57, 0
2, 2201040, Note_on_c, 2, 45, 50
2, 2201760, Note_off_c, 2, 45, 0
2, 2201760, Note_on_c, 2, 48, 50
2, 2202000, Note_off_c, 2, 48, 0
2, 2202000, Note_on_c, 2, 49, 50
2, 2202240, Note_off_c, 2, 49, 0
2, 2202240, Note_on_c, 2, 52, 50
2, 2202480, Note_off_c, 2, 52, 0
2, 2202480, Note_on_c, 2, 57, 50
2, 2202720, Note_off_c, 2, 57, 0
2, 2202720, Note_on_c, 2, 55, 50
2, 2203440, Note_off_c, 2, 55, 0
2, 2203440, Note_on_c, 2, 52, 50
2, 2203680, Note_off_c, 2, 52, 0
2, 2203680, Note_on_c, 2, 59, 50
2, 2204160, Note_off_c, 2, 59, 0
2, 2204160, Note_on_c, 2, 52, 50
2, 2204400, Note_off_c, 2, 52, 0
2, 2204400, Note_on_c, 2, 55, 50
2, 2204640, Note_off_c, 2, 55, 0
2, 2204640, Note_on_c, 2, 57, 50
2, 2204880, Note_off_c, 2, 57, 0
2, 2204880, Note_on_c, 2, 50, 50
2, 2205600, Note_off_c, 2, 50, 0
2, 2205600, Note_on_c, 2, 53, 50
2, 2205840, Note_off_c, 2, 53, 0
2, 2205840, Note_on_c, 2, 54, 50
2, 2206080, Note_off_c, 2, 54, 0
2, 2206080, Note_on_c, 2, 57, 50
2, 2206320, Note_off_c, 2, 57, 0
2, 2206320, Note_on_c, 2, 62, 50
2, 2206560, Note_off_c, 2, 62, 0
2, 2206560, Note_on_c, 2, 60, 50
2, 2207280, Note_off_c, 2, 60, 0
2, 2207280, Note_on_c, 2, 57, 50
2, 2207520, Note_off_c, 2, 57, 0
2, 2207520, Note_on_c, 2, 64, 50
2, 2208000, Note_off_c, 2, 64, 0
2, 2208000, Note_on_c, 2, 57, 50
2, 2208240, Note_off_c, 2, 57, 0
2, 2208240, Note_on_c, 2, 60, 50
2, 2208480, Note_off_c, 2, 60, 0
2, 2208480, Note_on_c, 2, 62, 50
2, 2208720, Note_off_c, 2, 62, 0
2, 2208720, Note_on_c, 2, 45, 50
2, 2209440, Note_off_c, 2, 45, 0
2, 2209440, Note_on_c, 2, 48, 50
2, 2209680, Note_off_c, 2, 48, 0
2, 2209680, Note_on_c, 2, 49, 50
2, 2209920, Note_off_c, 2, 49, 0
2, 2209920, Note_on_c, 2, 52, 50
2, 2210160, Note_off_c, 2, 52, 0
2, 2210160, Note_on_c, 2, 57, 50
2, 2210400, Note_off_c, 2, 57, 0
2, 2210400, Note_on_c, 2, 55, 50
2, 2211120, Note_off_c, 2, 55, 0
2, 2211120, Note_on_c, 2, 52, 50
2, 2211360, Note_off_c, 2, 52, 0
2, 2211360, Note_on_c, 2, 59, 50
2, 2211840, Note_off_c, 2, 59, 0
2, 2211840, Note_on_c, 2, 52, 50
2, 2212080, Note_off_c, 2, 52, 0
2, 2212080, Note_on_c, 2, 55, 50
2, 2212320, Note_off_c, 2, 55, 0
2, 2212320, Note_on_c, 2, 57, 50
2, 2212560, Note_off_c, 2, 57, 0
2, 2212560, Note_on_c, 2, 47, 50
2, 2213040, Note_off_c, 2, 47, 0
2, 2213040, Note_on_c, 2, 47, 50
2, 2213280, Note_off_c, 2, 47, 0
2, 2213280, Note_on_c, 2, 47, 50
2, 2213520, Note_off_c, 2, 47, 0
2, 2213520, Note_on_c, 2, 47, 50
2, 2214000, Note_off_c, 2, 47, 0
2, 2214000, Note_on_c, 2, 47, 50
2, 2214240, Note_off_c, 2, 47, 0
2, 2214240, Note_on_c, 2, 47, 50
2, 2214480, Note_off_c, 2, 47, 0
2, 2214480, Note_on_c, 2, 47, 50
2, 2214960, Note_off_c, 2, 47, 0
2, 2214960, Note_on_c, 2, 47, 50
2, 2215200, Note_off_c, 2, 47, 0
2, 2215200, Note_on_c, 2, 47, 50
2, 2215440, Note_off_c, 2, 47, 0
2, 2215440, Note_on_c, 2, 45, 50
2, 2215560, Note_off_c, 2, 45, 0
2, 2215560, Note_on_c, 2, 47, 50
2, 2215680, Note_off_c, 2, 47, 0
2, 2215680, Note_on_c, 2, 50, 50
2, 2215920, Note_off_c, 2, 50, 0
2, 2215920, Note_on_c, 2, 47, 50
2, 2216160, Note_off_c, 2, 47, 0
2, 2216160, Note_on_c, 2, 47, 50
2, 2216400, Note_off_c, 2, 47, 0
2, 2216400, Note_on_c, 2, 47, 50
2, 2216880, Note_off_c, 2, 47, 0
2, 2216880, Note_on_c, 2, 47, 50
2, 2217120, Note_off_c, 2, 47, 0
2, 2217120, Note_on_c, 2, 47, 50
2, 2217360, Note_off_c, 2, 47, 0
2, 2217600, Note_on_c, 2, 47, 50
2, 2217840, Note_off_c, 2, 47, 0
2, 2218080, Note_on_c, 2, 45, 50
2, 2218320, Note_off_c, 2, 45, 0
2, 2218320, Note_on_c, 2, 45, 50
2, 2218560, Note_off_c, 2, 45, 0
2, 2218560, Note_on_c, 2, 47, 50
2, 2218800, Note_off_c, 2, 47, 0
2, 2218800, Note_on_c, 2, 47, 50
2, 2219040, Note_off_c, 2, 47, 0
2, 2219040, Note_on_c, 2, 47, 50
2, 2219280, Note_off_c, 2, 47, 0
2, 2219280, Note_on_c, 2, 47, 50
2, 2219520, Note_off_c, 2, 47, 0
2, 2219520, Note_on_c, 2, 47, 50
2, 2219760, Note_off_c, 2, 47, 0
2, 2219760, Note_on_c, 2, 47, 50
2, 2220000, Note_off_c, 2, 47, 0
2, 2220000, Note_on_c, 2, 47, 50
2, 2220240, Note_off_c, 2, 47, 0
2, 2220240, Note_on_c, 2, 50, 50
2, 2220720, Note_off_c, 2, 50, 0
2, 2220720, Note_on_c, 2, 50, 50
2, 2220960, Note_off_c, 2, 50, 0
2, 2220960, Note_on_c, 2, 50, 50
2, 2221200, Note_off_c, 2, 50, 0
2, 2221440, Note_on_c, 2, 50, 50
2, 2221680, Note_off_c, 2, 50, 0
2, 2221920, Note_on_c, 2, 50, 50
2, 2222160, Note_off_c, 2, 50, 0
2, 2222160, Note_on_c, 2, 49, 50
2, 2222640, Note_off_c, 2, 49, 0
2, 2222640, Note_on_c, 2, 49, 50
2, 2222880, Note_off_c, 2, 49, 0
2, 2222880, Note_on_c, 2, 49, 50
2, 2223120, Note_off_c, 2, 49, 0
2, 2223120, Note_on_c, 2, 56, 50
2, 2223600, Note_off_c, 2, 56, 0
2, 2223600, Note_on_c, 2, 56, 50
2, 2224080, Note_off_c, 2, 56, 0
2, 2224080, Note_on_c, 2, 54, 50
2, 2224560, Note_off_c, 2, 54, 0
2, 2224560, Note_on_c, 2, 54, 50
2, 2225040, Note_off_c, 2, 54, 0
2, 2225040, Note_on_c, 2, 54, 50
2, 2225520, Note_off_c, 2, 54, 0
2, 2225520, Note_on_c, 2, 54, 50
2, 2225760, Note_off_c, 2, 54, 0
2, 2225760, Note_on_c, 2, 54, 50
2, 2226000, Note_off_c, 2, 54, 0
2, 2226000, Note_on_c, 2, 52, 50
2, 2226480, Note_off_c, 2, 52, 0
2, 2227920, Note_on_c, 2, 59, 50
2, 2229120, Note_off_c, 2, 59, 0
2, 2229120, Note_on_c, 2, 59, 50
2, 2230320, Note_off_c, 2, 59, 0
2, 2230320, Note_on_c, 2, 59, 50
2, 2231040, Note_off_c, 2, 59, 0
2, 2231040, Note_on_c, 2, 59, 50
2, 2231760, Note_off_c, 2, 59, 0
2, 2231760, Note_on_c, 2, 59, 50
2, 2232960, Note_off_c, 2, 59, 0
2, 2232960, Note_on_c, 2, 59, 50
2, 2234160, Note_off_c, 2, 59, 0
2, 2234160, Note_on_c, 2, 59, 50
2, 2234880, Note_off_c, 2, 59, 0
2, 2234880, Note_on_c, 2, 59, 50
2, 2235600, Note_off_c, 2, 59, 0
2, 2235600, Note_on_c, 2, 59, 50
2, 2236800, Note_off_c, 2, 59, 0
2, 2236800, Note_on_c, 2, 59, 50
2, 2238000, Note_off_c, 2, 59, 0
2, 2238000, Note_on_c, 2, 59, 50
2, 2238720, Note_off_c, 2, 59, 0
2, 2238720, Note_on_c, 2, 59, 50
2, 2239440, Note_off_c, 2, 59, 0
2, 2239440, Note_on_c, 2, 64, 50
2, 2239920, Note_off_c, 2, 64, 0
2, 2239920, Note_on_c, 2, 64, 50
2, 2240400, Note_off_c, 2, 64, 0
2, 2240400, Note_on_c, 2, 68, 50
2, 2240520, Note_off_c, 2, 68, 0
2, 2240520, Note_on_c, 2, 67, 50
2, 2240640, Note_off_c, 2, 67, 0
2, 2240640, Note_on_c, 2, 64, 50
2, 2240880, Note_off_c, 2, 64, 0
2, 2240880, Note_on_c, 2, 67, 50
2, 2241120, Note_off_c, 2, 67, 0
2, 2241120, Note_on_c, 2, 69, 50
2, 2241360, Note_off_c, 2, 69, 0
2, 2241360, Note_on_c, 2, 71, 50
2, 2241600, Note_off_c, 2, 71, 0
2, 2241600, Note_on_c, 2, 74, 50
2, 2242320, Note_off_c, 2, 74, 0
2, 2242320, Note_on_c, 2, 70, 50
2, 2242440, Note_off_c, 2, 70, 0
2, 2242440, Note_on_c, 2, 69, 50
2, 2243280, Note_off_c, 2, 69, 0
2, 2243280, Note_on_c, 2, 76, 50
2, 2243760, Note_off_c, 2, 76, 0
2, 2243760, Note_on_c, 2, 76, 50
2, 2244240, Note_off_c, 2, 76, 0
2, 2244240, Note_on_c, 2, 79, 50
2, 2244480, Note_off_c, 2, 79, 0
2, 2244480, Note_on_c, 2, 76, 50
2, 2244720, Note_off_c, 2, 76, 0
2, 2244720, Note_on_c, 2, 79, 50
2, 2244960, Note_off_c, 2, 79, 0
2, 2244960, Note_on_c, 2, 81, 50
2, 2245200, Note_off_c, 2, 81, 0
2, 2245200, Note_on_c, 2, 83, 50
2, 2245440, Note_off_c, 2, 83, 0
2, 2245440, Note_on_c, 2, 83, 50
2, 2245560, Note_off_c, 2, 83, 0
2, 2245560, Note_on_c, 2, 81, 50
2, 2245680, Note_off_c, 2, 81, 0
2, 2245680, Note_on_c, 2, 79, 50
2, 2245920, Note_off_c, 2, 79, 0
2, 2245920, Note_on_c, 2, 76, 50
2, 2246160, Note_off_c, 2, 76, 0
2, 2246160, Note_on_c, 2, 76, 50
2, 2247120, Note_off_c, 2, 76, 0
2, 2247120, Note_on_c, 2, 59, 50
2, 2247360, Note_off_c, 2, 59, 0
2, 2247360, Note_on_c, 2, 59, 50
2, 2247600, Note_off_c, 2, 59, 0
2, 2247600, Note_on_c, 2, 59, 50
2, 2247840, Note_off_c, 2, 59, 0
2, 2247840, Note_on_c, 2, 59, 50
2, 2248080, Note_off_c, 2, 59, 0
2, 2248080, Note_on_c, 2, 59, 50
2, 2248320, Note_off_c, 2, 59, 0
2, 2248320, Note_on_c, 2, 59, 50
2, 2248560, Note_off_c, 2, 59, 0
2, 2248560, Note_on_c, 2, 59, 50
2, 2248800, Note_off_c, 2, 59, 0
2, 2248800, Note_on_c, 2, 59, 50
2, 2249040, Note_off_c, 2, 59, 0
2, 2249040, Note_on_c, 2, 59, 50
2, 2249280, Note_off_c, 2, 59, 0
2, 2249280, Note_on_c, 2, 59, 50
2, 2249520, Note_off_c, 2, 59, 0
2, 2249520, Note_on_c, 2, 59, 50
2, 2249760, Note_off_c, 2, 59, 0
2, 2249760, Note_on_c, 2, 59, 50
2, 2250000, Note_off_c, 2, 59, 0
2, 2250000, Note_on_c, 2, 59, 50
2, 2250240, Note_off_c, 2, 59, 0
2, 2250240, Note_on_c, 2, 59, 50
2, 2250480, Note_off_c, 2, 59, 0
2, 2250480, Note_on_c, 2, 59, 50
2, 2250720, Note_off_c, 2, 59, 0
2, 2250720, Note_on_c, 2, 59, 50
2, 2250960, Note_off_c, 2, 59, 0
2, 2250960, Note_on_c, 2, 45, 50
2, 2251680, Note_off_c, 2, 45, 0
2, 2251680, Note_on_c, 2, 48, 50
2, 2251920, Note_off_c, 2, 48, 0
2, 2251920, Note_on_c, 2, 49, 50
2, 2252160, Note_off_c, 2, 49, 0
2, 2252160, Note_on_c, 2, 52, 50
2, 2252400, Note_off_c, 2, 52, 0
2, 2252400, Note_on_c, 2, 57, 50
2, 2252640, Note_off_c, 2, 57, 0
2, 2252640, Note_on_c, 2, 55, 50
2, 2253360, Note_off_c, 2, 55, 0
2, 2253360, Note_on_c, 2, 52, 50
2, 2253600, Note_off_c, 2, 52, 0
2, 2253600, Note_on_c, 2, 59, 50
2, 2254080, Note_off_c, 2, 59, 0
2, 2254080, Note_on_c, 2, 52, 50
2, 2254320, Note_off_c, 2, 52, 0
2, 2254320, Note_on_c, 2, 55, 50
2, 2254560, Note_off_c, 2, 55, 0
2, 2254560, Note_on_c, 2, 57, 50
2, 2254800, Note_off_c, 2, 57, 0
2, 2254800, Note_on_c, 2, 45, 50
2, 2255520, Note_off_c, 2, 45, 0
2, 2255520, Note_on_c, 2, 48, 50
2, 2255760, Note_off_c, 2, 48, 0
2, 2255760, Note_on_c, 2, 49, 50
2, 2256000, Note_off_c, 2, 49, 0
2, 2256000, Note_on_c, 2, 52, 50
2, 2256240, Note_off_c, 2, 52, 0
2, 2256240, Note_on_c, 2, 57, 50
2, 2256480, Note_off_c, 2, 57, 0
2, 2256480, Note_on_c, 2, 55, 50
2, 2257200, Note_off_c, 2, 55, 0
2, 2257200, Note_on_c, 2, 52, 50
2, 2257440, Note_off_c, 2, 52, 0
2, 2257440, Note_on_c, 2, 59, 50
2, 2257920, Note_off_c, 2, 59, 0
2, 2257920, Note_on_c, 2, 52, 50
2, 2258160, Note_off_c, 2, 52, 0
2, 2258160, Note_on_c, 2, 55, 50
2, 2258400, Note_off_c, 2, 55, 0
2, 2258400, Note_on_c, 2, 57, 50
2, 2258640, Note_off_c, 2, 57, 0
2, 2258640, Note_on_c, 2, 45, 50
2, 2259360, Note_off_c, 2, 45, 0
2, 2259360, Note_on_c, 2, 48, 50
2, 2259600, Note_off_c, 2, 48, 0
2, 2259600, Note_on_c, 2, 49, 50
2, 2259840, Note_off_c, 2, 49, 0
2, 2259840, Note_on_c, 2, 52, 50
2, 2260080, Note_off_c, 2, 52, 0
2, 2260080, Note_on_c, 2, 57, 50
2, 2260320, Note_off_c, 2, 57, 0
2, 2260320, Note_on_c, 2, 55, 50
2, 2261040, Note_off_c, 2, 55, 0
2, 2261040, Note_on_c, 2, 52, 50
2, 2261280, Note_off_c, 2, 52, 0
2, 2261280, Note_on_c, 2, 59, 50
2, 2261760, Note_off_c, 2, 59, 0
2, 2261760, Note_on_c, 2, 52, 50
2, 2262000, Note_off_c, 2, 52, 0
2, 2262000, Note_on_c, 2, 55, 50
2, 2262240, Note_off_c, 2, 55, 0
2, 2262240, Note_on_c, 2, 57, 50
2, 2262480, Note_off_c, 2, 57, 0
2, 2262480, Note_on_c, 2, 45, 50
2, 2263200, Note_off_c, 2, 45, 0
2, 2263200, Note_on_c, 2, 48, 50
2, 2263440, Note_off_c, 2, 48, 0
2, 2263440, Note_on_c, 2, 49, 50
2, 2263680, Note_off_c, 2, 49, 0
2, 2263680, Note_on_c, 2, 52, 50
2, 2263920, Note_off_c, 2, 52, 0
2, 2263920, Note_on_c, 2, 57, 50
2, 2264160, Note_off_c, 2, 57, 0
2, 2264160, Note_on_c, 2, 55, 50
2, 2264880, Note_off_c, 2, 55, 0
2, 2264880, Note_on_c, 2, 52, 50
2, 2265120, Note_off_c, 2, 52, 0
2, 2265120, Note_on_c, 2, 59, 50
2, 2265600, Note_off_c, 2, 59, 0
2, 2265600, Note_on_c, 2, 52, 50
2, 2265840, Note_off_c, 2, 52, 0
2, 2265840, Note_on_c, 2, 55, 50
2, 2266080, Note_off_c, 2, 55, 0
2, 2266080, Note_on_c, 2, 57, 50
2, 2266320, Note_off_c, 2, 57, 0
2, 2266320, Note_on_c, 2, 50, 50
2, 2267040, Note_off_c, 2, 50, 0
2, 2267040, Note_on_c, 2, 53, 50
2, 2267280, Note_off_c, 2, 53, 0
2, 2267280, Note_on_c, 2, 54, 50
2, 2267520, Note_off_c, 2, 54, 0
2, 2267520, Note_on_c, 2, 57, 50
2, 2267760, Note_off_c, 2, 57, 0
2, 2267760, Note_on_c, 2, 62, 50
2, 2268000, Note_off_c, 2, 62, 0
2, 2268000, Note_on_c, 2, 60, 50
2, 2268720, Note_off_c, 2, 60, 0
2, 2268720, Note_on_c, 2, 57, 50
2, 2268960, Note_off_c, 2, 57, 0
2, 2268960, Note_on_c, 2, 64, 50
2, 2269440, Note_off_c, 2, 64, 0
2, 2269440, Note_on_c, 2, 57, 50
2, 2269680, Note_off_c, 2, 57, 0
2, 2269680, Note_on_c, 2, 60, 50
2, 2269920, Note_off_c, 2, 60, 0
2, 2269920, Note_on_c, 2, 62, 50
2, 2270160, Note_off_c, 2, 62, 0
2, 2270160, Note_on_c, 2, 45, 50
2, 2270880, Note_off_c, 2, 45, 0
2, 2270880, Note_on_c, 2, 48, 50
2, 2271120, Note_off_c, 2, 48, 0
2, 2271120, Note_on_c, 2, 49, 50
2, 2271360, Note_off_c, 2, 49, 0
2, 2271360, Note_on_c, 2, 52, 50
2, 2271600, Note_off_c, 2, 52, 0
2, 2271600, Note_on_c, 2, 57, 50
2, 2271840, Note_off_c, 2, 57, 0
2, 2271840, Note_on_c, 2, 55, 50
2, 2272560, Note_off_c, 2, 55, 0
2, 2272560, Note_on_c, 2, 52, 50
2, 2272800, Note_off_c, 2, 52, 0
2, 2272800, Note_on_c, 2, 59, 50
2, 2273280, Note_off_c, 2, 59, 0
2, 2273280, Note_on_c, 2, 52, 50
2, 2273520, Note_off_c, 2, 52, 0
2, 2273520, Note_on_c, 2, 55, 50
2, 2273760, Note_off_c, 2, 55, 0
2, 2273760, Note_on_c, 2, 57, 50
2, 2274000, Note_off_c, 2, 57, 0
2, 2274000, Note_on_c, 2, 47, 50
2, 2274480, Note_off_c, 2, 47, 0
2, 2274480, Note_on_c, 2, 47, 50
2, 2274720, Note_off_c, 2, 47, 0
2, 2274720, Note_on_c, 2, 47, 50
2, 2274960, Note_off_c, 2, 47, 0
2, 2274960, Note_on_c, 2, 47, 50
2, 2275440, Note_off_c, 2, 47, 0
2, 2275440, Note_on_c, 2, 47, 50
2, 2275680, Note_off_c, 2, 47, 0
2, 2275680, Note_on_c, 2, 47, 50
2, 2275920, Note_off_c, 2, 47, 0
2, 2275920, Note_on_c, 2, 47, 50
2, 2276400, Note_off_c, 2, 47, 0
2, 2276400, Note_on_c, 2, 47, 50
2, 2276640, Note_off_c, 2, 47, 0
2, 2276640, Note_on_c, 2, 47, 50
2, 2276880, Note_off_c, 2, 47, 0
2, 2276880, Note_on_c, 2, 45, 50
2, 2277000, Note_off_c, 2, 45, 0
2, 2277000, Note_on_c, 2, 47, 50
2, 2277120, Note_off_c, 2, 47, 0
2, 2277120, Note_on_c, 2, 50, 50
2, 2277360, Note_off_c, 2, 50, 0
2, 2277360, Note_on_c, 2, 47, 50
2, 2277600, Note_off_c, 2, 47, 0
2, 2277600, Note_on_c, 2, 47, 50
2, 2277840, Note_off_c, 2, 47, 0
2, 2277840, Note_on_c, 2, 47, 50
2, 2278320, Note_off_c, 2, 47, 0
2, 2278320, Note_on_c, 2, 47, 50
2, 2278560, Note_off_c, 2, 47, 0
2, 2278560, Note_on_c, 2, 47, 50
2, 2278800, Note_off_c, 2, 47, 0
2, 2279040, Note_on_c, 2, 47, 50
2, 2279280, Note_off_c, 2, 47, 0
2, 2279520, Note_on_c, 2, 45, 50
2, 2279760, Note_off_c, 2, 45, 0
2, 2279760, Note_on_c, 2, 45, 50
2, 2280000, Note_off_c, 2, 45, 0
2, 2280000, Note_on_c, 2, 47, 50
2, 2280240, Note_off_c, 2, 47, 0
2, 2280240, Note_on_c, 2, 47, 50
2, 2280480, Note_off_c, 2, 47, 0
2, 2280480, Note_on_c, 2, 47, 50
2, 2280720, Note_off_c, 2, 47, 0
2, 2280720, Note_on_c, 2, 47, 50
2, 2280960, Note_off_c, 2, 47, 0
2, 2280960, Note_on_c, 2, 47, 50
2, 2281200, Note_off_c, 2, 47, 0
2, 2281200, Note_on_c, 2, 47, 50
2, 2281440, Note_off_c, 2, 47, 0
2, 2281440, Note_on_c, 2, 47, 50
2, 2281680, Note_off_c, 2, 47, 0
2, 2281680, Note_on_c, 2, 50, 50
2, 2282160, Note_off_c, 2, 50, 0
2, 2282160, Note_on_c, 2, 50, 50
2, 2282400, Note_off_c, 2, 50, 0
2, 2282400, Note_on_c, 2, 50, 50
2, 2282640, Note_off_c, 2, 50, 0
2, 2282880, Note_on_c, 2, 50, 50
2, 2283120, Note_off_c, 2, 50, 0
2, 2283360, Note_on_c, 2, 50, 50
2, 2283600, Note_off_c, 2, 50, 0
2, 2283600, Note_on_c, 2, 49, 50
2, 2284080, Note_off_c, 2, 49, 0
2, 2284080, Note_on_c, 2, 49, 50
2, 2284320, Note_off_c, 2, 49, 0
2, 2284320, Note_on_c, 2, 49, 50
2, 2284560, Note_off_c, 2, 49, 0
2, 2284560, Note_on_c, 2, 56, 50
2, 2285040, Note_off_c, 2, 56, 0
2, 2285040, Note_on_c, 2, 56, 50
2, 2285520, Note_off_c, 2, 56, 0
2, 2285520, Note_on_c, 2, 54, 50
2, 2286000, Note_off_c, 2, 54, 0
2, 2286000, Note_on_c, 2, 54, 50
2, 2286480, Note_off_c, 2, 54, 0
2, 2286480, Note_on_c, 2, 54, 50
2, 2286960, Note_off_c, 2, 54, 0
2, 2286960, Note_on_c, 2, 54, 50
2, 2287200, Note_off_c, 2, 54, 0
2, 2287200, Note_on_c, 2, 54, 50
2, 2287440, Note_off_c, 2, 54, 0
2, 2287440, Note_on_c, 2, 52, 50
2, 2287920, Note_off_c, 2, 52, 0
2, 2287920, Note_on_c, 2, 52, 50
2, 2288160, Note_off_c, 2, 52, 0
2, 2288160, Note_on_c, 2, 52, 50
2, 2288400, Note_off_c, 2, 52, 0
2, 2288400, Note_on_c, 2, 52, 50
2, 2288640, Note_off_c, 2, 52, 0
2, 2288640, Note_on_c, 2, 52, 50
2, 2288880, Note_off_c, 2, 52, 0
2, 2288880, Note_on_c, 2, 52, 50
2, 2289120, Note_off_c, 2, 52, 0
2, 2289120, Note_on_c, 2, 52, 50
2, 2289360, Note_off_c, 2, 52, 0
2, 2289360, Note_on_c, 2, 45, 50
2, 2290080, Note_off_c, 2, 45, 0
2, 2290080, Note_on_c, 2, 48, 50
2, 2290320, Note_off_c, 2, 48, 0
2, 2290320, Note_on_c, 2, 49, 50
2, 2290560, Note_off_c, 2, 49, 0
2, 2290560, Note_on_c, 2, 52, 50
2, 2290800, Note_off_c, 2, 52, 0
2, 2290800, Note_on_c, 2, 57, 50
2, 2291040, Note_off_c, 2, 57, 0
2, 2291040, Note_on_c, 2, 55, 50
2, 2291760, Note_off_c, 2, 55, 0
2, 2291760, Note_on_c, 2, 52, 50
2, 2292000, Note_off_c, 2, 52, 0
2, 2292000, Note_on_c, 2, 59, 50
2, 2292480, Note_off_c, 2, 59, 0
2, 2292480, Note_on_c, 2, 52, 50
2, 2292720, Note_off_c, 2, 52, 0
2, 2292720, Note_on_c, 2, 55, 50
2, 2292960, Note_off_c, 2, 55, 0
2, 2292960, Note_on_c, 2, 57, 50
2, 2293200, Note_off_c, 2, 57, 0
2, 2293200, Note_on_c, 2, 45, 50
2, 2293920, Note_off_c, 2, 45, 0
2, 2293920, Note_on_c, 2, 48, 50
2, 2294160, Note_off_c, 2, 48, 0
2, 2294160, Note_on_c, 2, 49, 50
2, 2294400, Note_off_c, 2, 49, 0
2, 2294400, Note_on_c, 2, 52, 50
2, 2294640, Note_off_c, 2, 52, 0
2, 2294640, Note_on_c, 2, 57, 50
2, 2294880, Note_off_c, 2, 57, 0
2, 2294880, Note_on_c, 2, 55, 50
2, 2295600, Note_off_c, 2, 55, 0
2, 2295600, Note_on_c, 2, 52, 50
2, 2295840, Note_off_c, 2, 52, 0
2, 2295840, Note_on_c, 2, 59, 50
2, 2296320, Note_off_c, 2, 59, 0
2, 2296320, Note_on_c, 2, 52, 50
2, 2296560, Note_off_c, 2, 52, 0
2, 2296560, Note_on_c, 2, 55, 50
2, 2296800, Note_off_c, 2, 55, 0
2, 2296800, Note_on_c, 2, 57, 50
2, 2297040, Note_off_c, 2, 57, 0
2, 2297040, Note_on_c, 2, 45, 50
2, 2297760, Note_off_c, 2, 45, 0
2, 2297760, Note_on_c, 2, 48, 50
2, 2298000, Note_off_c, 2, 48, 0
2, 2298000, Note_on_c, 2, 49, 50
2, 2298240, Note_off_c, 2, 49, 0
2, 2298240, Note_on_c, 2, 52, 50
2, 2298480, Note_off_c, 2, 52, 0
2, 2298480, Note_on_c, 2, 57, 50
2, 2298720, Note_off_c, 2, 57, 0
2, 2298720, Note_on_c, 2, 55, 50
2, 2299440, Note_off_c, 2, 55, 0
2, 2299440, Note_on_c, 2, 52, 50
2, 2299680, Note_off_c, 2, 52, 0
2, 2299680, Note_on_c, 2, 59, 50
2, 2300160, Note_off_c, 2, 59, 0
2, 2300160, Note_on_c, 2, 52, 50
2, 2300400, Note_off_c, 2, 52, 0
2, 2300400, Note_on_c, 2, 55, 50
2, 2300640, Note_off_c, 2, 55, 0
2, 2300640, Note_on_c, 2, 57, 50
2, 2300880, Note_off_c, 2, 57, 0
2, 2300880, Note_on_c, 2, 45, 50
2, 2301600, Note_off_c, 2, 45, 0
2, 2301600, Note_on_c, 2, 48, 50
2, 2301840, Note_off_c, 2, 48, 0
2, 2301840, Note_on_c, 2, 49, 50
2, 2302080, Note_off_c, 2, 49, 0
2, 2302080, Note_on_c, 2, 52, 50
2, 2302320, Note_off_c, 2, 52, 0
2, 2302320, Note_on_c, 2, 57, 50
2, 2302560, Note_off_c, 2, 57, 0
2, 2302560, Note_on_c, 2, 55, 50
2, 2303280, Note_off_c, 2, 55, 0
2, 2303280, Note_on_c, 2, 52, 50
2, 2303520, Note_off_c, 2, 52, 0
2, 2303520, Note_on_c, 2, 59, 50
2, 2304000, Note_off_c, 2, 59, 0
2, 2304000, Note_on_c, 2, 52, 50
2, 2304240, Note_off_c, 2, 52, 0
2, 2304240, Note_on_c, 2, 55, 50
2, 2304480, Note_off_c, 2, 55, 0
2, 2304480, Note_on_c, 2, 57, 50
2, 2304720, Note_off_c, 2, 57, 0
2, 2304720, Note_on_c, 2, 45, 50
2, 2305440, Note_off_c, 2, 45, 0
2, 2305440, Note_on_c, 2, 48, 50
2, 2305680, Note_off_c, 2, 48, 0
2, 2305680, Note_on_c, 2, 49, 50
2, 2305920, Note_off_c, 2, 49, 0
2, 2305920, Note_on_c, 2, 52, 50
2, 2306160, Note_off_c, 2, 52, 0
2, 2306160, Note_on_c, 2, 57, 50
2, 2306400, Note_off_c, 2, 57, 0
2, 2306400, Note_on_c, 2, 55, 50
2, 2307120, Note_off_c, 2, 55, 0
2, 2307120, Note_on_c, 2, 52, 50
2, 2307360, Note_off_c, 2, 52, 0
2, 2307360, Note_on_c, 2, 59, 50
2, 2307840, Note_off_c, 2, 59, 0
2, 2307840, Note_on_c, 2, 52, 50
2, 2308080, Note_off_c, 2, 52, 0
2, 2308080, Note_on_c, 2, 55, 50
2, 2308320, Note_off_c, 2, 55, 0
2, 2308320, Note_on_c, 2, 57, 50
2, 2308560, Note_off_c, 2, 57, 0
2, 2308560, Note_on_c, 2, 45, 50
2, 2309280, Note_off_c, 2, 45, 0
2, 2309280, Note_on_c, 2, 48, 50
2, 2309520, Note_off_c, 2, 48, 0
2, 2309520, Note_on_c, 2, 49, 50
2, 2309760, Note_off_c, 2, 49, 0
2, 2309760, Note_on_c, 2, 52, 50
2, 2310000, Note_off_c, 2, 52, 0
2, 2310000, Note_on_c, 2, 57, 50
2, 2310240, Note_off_c, 2, 57, 0
2, 2310240, Note_on_c, 2, 55, 50
2, 2310960, Note_off_c, 2, 55, 0
2, 2310960, Note_on_c, 2, 52, 50
2, 2311200, Note_off_c, 2, 52, 0
2, 2311200, Note_on_c, 2, 59, 50
2, 2311680, Note_off_c, 2, 59, 0
2, 2311680, Note_on_c, 2, 52, 50
2, 2311920, Note_off_c, 2, 52, 0
2, 2311920, Note_on_c, 2, 55, 50
2, 2312160, Note_off_c, 2, 55, 0
2, 2312160, Note_on_c, 2, 57, 50
2, 2312400, Note_off_c, 2, 57, 0
2, 2312400, Note_on_c, 2, 45, 50
2, 2313120, Note_off_c, 2, 45, 0
2, 2313120, Note_on_c, 2, 48, 50
2, 2313360, Note_off_c, 2, 48, 0
2, 2313360, Note_on_c, 2, 49, 50
2, 2313600, Note_off_c, 2, 49, 0
2, 2313600, Note_on_c, 2, 52, 50
2, 2313840, Note_off_c, 2, 52, 0
2, 2313840, Note_on_c, 2, 57, 50
2, 2314080, Note_off_c, 2, 57, 0
2, 2314080, Note_on_c, 2, 55, 50
2, 2314800, Note_off_c, 2, 55, 0
2, 2314800, Note_on_c, 2, 52, 50
2, 2315040, Note_off_c, 2, 52, 0
2, 2315040, Note_on_c, 2, 59, 50
2, 2315520, Note_off_c, 2, 59, 0
2, 2315520, Note_on_c, 2, 52, 50
2, 2315760, Note_off_c, 2, 52, 0
2, 2315760, Note_on_c, 2, 55, 50
2, 2316000, Note_off_c, 2, 55, 0
2, 2316000, Note_on_c, 2, 57, 50
2, 2316240, Note_off_c, 2, 57, 0
2, 2316240, Note_on_c, 2, 45, 50
2, 2316960, Note_off_c, 2, 45, 0
2, 2316960, Note_on_c, 2, 48, 50
2, 2317200, Note_off_c, 2, 48, 0
2, 2317200, Note_on_c, 2, 49, 50
2, 2317440, Note_off_c, 2, 49, 0
2, 2317440, Note_on_c, 2, 52, 50
2, 2317680, Note_off_c, 2, 52, 0
2, 2317680, Note_on_c, 2, 57, 50
2, 2317920, Note_off_c, 2, 57, 0
2, 2317920, Note_on_c, 2, 55, 50
2, 2318640, Note_off_c, 2, 55, 0
2, 2318640, Note_on_c, 2, 52, 50
2, 2318880, Note_off_c, 2, 52, 0
2, 2318880, Note_on_c, 2, 59, 50
2, 2319360, Note_off_c, 2, 59, 0
2, 2319360, Note_on_c, 2, 52, 50
2, 2319600, Note_off_c, 2, 52, 0
2, 2319600, Note_on_c, 2, 55, 50
2, 2319840, Note_off_c, 2, 55, 0
2, 2319840, Note_on_c, 2, 57, 50
2, 2320080, Note_off_c, 2, 57, 0
2, 2320080, Note_on_c, 2, 45, 50
2, 2320800, Note_off_c, 2, 45, 0
2, 2320800, Note_on_c, 2, 48, 50
2, 2321040, Note_off_c, 2, 48, 0
2, 2321040, Note_on_c, 2, 49, 50
2, 2321280, Note_off_c, 2, 49, 0
2, 2321280, Note_on_c, 2, 52, 50
2, 2321520, Note_off_c, 2, 52, 0
2, 2321520, Note_on_c, 2, 57, 50
2, 2321760, Note_off_c, 2, 57, 0
2, 2321760, Note_on_c, 2, 55, 50
2, 2322480, Note_off_c, 2, 55, 0
2, 2322480, Note_on_c, 2, 52, 50
2, 2322720, Note_off_c, 2, 52, 0
2, 2322720, Note_on_c, 2, 59, 50
2, 2323200, Note_off_c, 2, 59, 0
2, 2323200, Note_on_c, 2, 52, 50
2, 2323440, Note_off_c, 2, 52, 0
2, 2323440, Note_on_c, 2, 55, 50
2, 2323680, Note_off_c, 2, 55, 0
2, 2323680, Note_on_c, 2, 57, 50
2, 2323920, Note_off_c, 2, 57, 0
2, 2323920, Note_on_c, 2, 45, 50
2, 2324640, Note_off_c, 2, 45, 0
2, 2324640, Note_on_c, 2, 48, 50
2, 2324880, Note_off_c, 2, 48, 0
2, 2324880, Note_on_c, 2, 49, 50
2, 2325120, Note_off_c, 2, 49, 0
2, 2325120, Note_on_c, 2, 52, 50
2, 2325360, Note_off_c, 2, 52, 0
2, 2325360, Note_on_c, 2, 57, 50
2, 2325600, Note_off_c, 2, 57, 0
2, 2325600, Note_on_c, 2, 55, 50
2, 2326320, Note_off_c, 2, 55, 0
2, 2326320, Note_on_c, 2, 52, 50
2, 2326560, Note_off_c, 2, 52, 0
2, 2326560, Note_on_c, 2, 59, 50
2, 2327040, Note_off_c, 2, 59, 0
2, 2327040, Note_on_c, 2, 52, 50
2, 2327280, Note_off_c, 2, 52, 0
2, 2327280, Note_on_c, 2, 55, 50
2, 2327520, Note_off_c, 2, 55, 0
2, 2327520, Note_on_c, 2, 57, 50
2, 2327760, Note_off_c, 2, 57, 0
2, 2327760, Note_on_c, 2, 45, 50
2, 2328480, Note_off_c, 2, 45, 0
2, 2328480, Note_on_c, 2, 48, 50
2, 2328720, Note_off_c, 2, 48, 0
2, 2328720, Note_on_c, 2, 49, 50
2, 2328960, Note_off_c, 2, 49, 0
2, 2328960, Note_on_c, 2, 52, 50
2, 2329200, Note_off_c, 2, 52, 0
2, 2329200, Note_on_c, 2, 57, 50
2, 2329440, Note_off_c, 2, 57, 0
2, 2329440, Note_on_c, 2, 55, 50
2, 2330160, Note_off_c, 2, 55, 0
2, 2330160, Note_on_c, 2, 52, 50
2, 2330400, Note_off_c, 2, 52, 0
2, 2330400, Note_on_c, 2, 59, 50
2, 2330880, Note_off_c, 2, 59, 0
2, 2330880, Note_on_c, 2, 52, 50
2, 2331120, Note_off_c, 2, 52, 0
2, 2331120, Note_on_c, 2, 55, 50
2, 2331360, Note_off_c, 2, 55, 0
2, 2331360, Note_on_c, 2, 57, 50
2, 2331600, Note_off_c, 2, 57, 0
2, 2331600, Note_on_c, 2, 45, 50
2, 2332320, Note_off_c, 2, 45, 0
2, 2332320, Note_on_c, 2, 48, 50
2, 2332560, Note_off_c, 2, 48, 0
2, 2332560, Note_on_c, 2, 49, 50
2, 2332800, Note_off_c, 2, 49, 0
2, 2332800, Note_on_c, 2, 52, 50
2, 2333040, Note_off_c, 2, 52, 0
2, 2333040, Note_on_c, 2, 57, 50
2, 2333280, Note_off_c, 2, 57, 0
2, 2333280, Note_on_c, 2, 55, 50
2, 2334000, Note_off_c, 2, 55, 0
2, 2334000, Note_on_c, 2, 52, 50
2, 2334240, Note_off_c, 2, 52, 0
2, 2334240, Note_on_c, 2, 59, 50
2, 2334720, Note_off_c, 2, 59, 0
2, 2334720, Note_on_c, 2, 52, 50
2, 2334960, Note_off_c, 2, 52, 0
2, 2334960, Note_on_c, 2, 55, 50
2, 2335200, Note_off_c, 2, 55, 0
2, 2335200, Note_on_c, 2, 57, 50
2, 2335440, Note_off_c, 2, 57, 0
2, 2335440, Note_on_c, 2, 45, 50
2, 2336160, Note_off_c, 2, 45, 0
2, 2336160, Note_on_c, 2, 48, 50
2, 2336400, Note_off_c, 2, 48, 0
2, 2336400, Note_on_c, 2, 49, 50
2, 2336640, Note_off_c, 2, 49, 0
2, 2336640, Note_on_c, 2, 52, 50
2, 2336880, Note_off_c, 2, 52, 0
2, 2336880, Note_on_c, 2, 57, 50
2, 2337120, Note_off_c, 2, 57, 0
2, 2337120, Note_on_c, 2, 55, 50
2, 2337840, Note_off_c, 2, 55, 0
2, 2337840, Note_on_c, 2, 52, 50
2, 2338080, Note_off_c, 2, 52, 0
2, 2338080, Note_on_c, 2, 59, 50
2, 2338560, Note_off_c, 2, 59, 0
2, 2338560, Note_on_c, 2, 52, 50
2, 2338800, Note_off_c, 2, 52, 0
2, 2338800, Note_on_c, 2, 55, 50
2, 2339040, Note_off_c, 2, 55, 0
2, 2339040, Note_on_c, 2, 57, 50
2, 2339280, Note_off_c, 2, 57, 0
2, 2339280, Note_on_c, 2, 45, 50
2, 2340000, Note_off_c, 2, 45, 0
2, 2340000, Note_on_c, 2, 48, 50
2, 2340240, Note_off_c, 2, 48, 0
2, 2340240, Note_on_c, 2, 49, 50
2, 2340480, Note_off_c, 2, 49, 0
2, 2340480, Note_on_c, 2, 52, 50
2, 2340720, Note_off_c, 2, 52, 0
2, 2340720, Note_on_c, 2, 57, 50
2, 2340960, Note_off_c, 2, 57, 0
2, 2340960, Note_on_c, 2, 55, 50
2, 2341680, Note_off_c, 2, 55, 0
2, 2341680, Note_on_c, 2, 52, 50
2, 2341920, Note_off_c, 2, 52, 0
2, 2341920, Note_on_c, 2, 59, 50
2, 2342400, Note_off_c, 2, 59, 0
2, 2342400, Note_on_c, 2, 52, 50
2, 2342640, Note_off_c, 2, 52, 0
2, 2342640, Note_on_c, 2, 55, 50
2, 2342880, Note_off_c, 2, 55, 0
2, 2342880, Note_on_c, 2, 57, 50
2, 2343120, Note_off_c, 2, 57, 0
2, 2343120, Note_on_c, 2, 45, 50
2, 2343840, Note_off_c, 2, 45, 0
2, 2343840, Note_on_c, 2, 48, 50
2, 2344080, Note_off_c, 2, 48, 0
2, 2344080, Note_on_c, 2, 49, 50
2, 2344320, Note_off_c, 2, 49, 0
2, 2344320, Note_on_c, 2, 52, 50
2, 2344560, Note_off_c, 2, 52, 0
2, 2344560, Note_on_c, 2, 57, 50
2, 2344800, Note_off_c, 2, 57, 0
2, 2344800, Note_on_c, 2, 55, 50
2, 2345520, Note_off_c, 2, 55, 0
2, 2345520, Note_on_c, 2, 52, 50
2, 2345760, Note_off_c, 2, 52, 0
2, 2345760, Note_on_c, 2, 59, 50
2, 2346240, Note_off_c, 2, 59, 0
2, 2346240, Note_on_c, 2, 52, 50
2, 2346480, Note_off_c, 2, 52, 0
2, 2346480, Note_on_c, 2, 55, 50
2, 2346720, Note_off_c, 2, 55, 0
2, 2346720, Note_on_c, 2, 57, 50
2, 2346960, Note_off_c, 2, 57, 0
2, 2346960, Note_on_c, 2, 45, 50
2, 2347680, Note_off_c, 2, 45, 0
2, 2347680, Note_on_c, 2, 48, 50
2, 2347920, Note_off_c, 2, 48, 0
2, 2347920, Note_on_c, 2, 49, 50
2, 2348160, Note_off_c, 2, 49, 0
2, 2348160, Note_on_c, 2, 52, 50
2, 2348400, Note_off_c, 2, 52, 0
2, 2348400, Note_on_c, 2, 57, 50
2, 2348640, Note_off_c, 2, 57, 0
2, 2348640, Note_on_c, 2, 55, 50
2, 2349360, Note_off_c, 2, 55, 0
2, 2349360, Note_on_c, 2, 52, 50
2, 2349600, Note_off_c, 2, 52, 0
2, 2349600, Note_on_c, 2, 59, 50
2, 2350080, Note_off_c, 2, 59, 0
2, 2350080, Note_on_c, 2, 52, 50
2, 2350320, Note_off_c, 2, 52, 0
2, 2350320, Note_on_c, 2, 55, 50
2, 2350560, Note_off_c, 2, 55, 0
2, 2350560, Note_on_c, 2, 57, 50
2, 2350800, Note_off_c, 2, 57, 0
2, 2356440, Note_on_c, 2, 49, 50
2, 2356560, Note_off_c, 2, 49, 0
2, 2356560, Note_on_c, 2, 61, 50
2, 2358360, Note_off_c, 2, 61, 0
2, 2358360, Note_on_c, 2, 49, 50
2, 2358480, Note_off_c, 2, 49, 0
2, 2358480, Note_on_c, 2, 61, 50
2, 2358840, Note_off_c, 2, 61, 0
2, 2358840, Note_on_c, 2, 49, 50
2, 2358960, Note_off_c, 2, 49, 0
2, 2358960, Note_on_c, 2, 61, 50
2, 2360280, Note_off_c, 2, 61, 0
2, 2360280, Note_on_c, 2, 52, 50
2, 2360400, Note_off_c, 2, 52, 0
2, 2360400, Note_on_c, 2, 64, 50
2, 2362200, Note_off_c, 2, 64, 0
2, 2362200, Note_on_c, 2, 50, 50
2, 2362320, Note_off_c, 2, 50, 0
2, 2362320, Note_on_c, 2, 62, 50
2, 2362680, Note_off_c, 2, 62, 0
2, 2363040, Note_on_c, 2, 51, 50
2, 2363160, Note_off_c, 2, 51, 0
2, 2363160, Note_on_c, 2, 68, 50
2, 2364600, Note_off_c, 2, 68, 0
2, 2364720, Note_on_c, 2, 44, 50
2, 2364840, Note_off_c, 2, 44, 0
2, 2364840, Note_on_c, 2, 46, 50
2, 2364960, Note_off_c, 2, 46, 0
2, 2365080, Note_on_c, 2, 44, 50
2, 2365200, Note_off_c, 2, 44, 0
2, 2365200, Note_on_c, 2, 47, 50
2, 2365440, Note_off_c, 2, 47, 0
2, 2365440, Note_on_c, 2, 44, 50
2, 2365680, Note_off_c, 2, 44, 0
2, 2365680, Note_on_c, 2, 48, 50
2, 2365920, Note_off_c, 2, 48, 0
2, 2365920, Note_on_c, 2, 44, 50
2, 2366160, Note_off_c, 2, 44, 0
2, 2366160, Note_on_c, 2, 49, 50
2, 2367120, Note_off_c, 2, 49, 0
2, 2367120, Note_on_c, 2, 48, 50
2, 2367600, Note_off_c, 2, 48, 0
2, 2367600, Note_on_c, 2, 47, 50
2, 2368080, Note_off_c, 2, 47, 0
2, 2368080, Note_on_c, 2, 46, 50
2, 2369040, Note_off_c, 2, 46, 0
2, 2369040, Note_on_c, 2, 48, 50
2, 2369520, Note_off_c, 2, 48, 0
2, 2369520, Note_on_c, 2, 63, 50
2, 2370000, Note_off_c, 2, 63, 0
2, 2370000, Note_on_c, 2, 49, 50
2, 2370960, Note_off_c, 2, 49, 0
2, 2370960, Note_on_c, 2, 48, 50
2, 2371440, Note_off_c, 2, 48, 0
2, 2371440, Note_on_c, 2, 47, 50
2, 2371920, Note_off_c, 2, 47, 0
2, 2371920, Note_on_c, 2, 46, 50
2, 2372880, Note_off_c, 2, 46, 0
2, 2372880, Note_on_c, 2, 48, 50
2, 2373360, Note_off_c, 2, 48, 0
2, 2373360, Note_on_c, 2, 63, 50
2, 2373840, Note_off_c, 2, 63, 0
2, 2373840, Note_on_c, 2, 49, 50
2, 2374800, Note_off_c, 2, 49, 0
2, 2374800, Note_on_c, 2, 48, 50
2, 2375280, Note_off_c, 2, 48, 0
2, 2375280, Note_on_c, 2, 47, 50
2, 2375760, Note_off_c, 2, 47, 0
2, 2375760, Note_on_c, 2, 63, 50
2, 2376720, Note_off_c, 2, 63, 0
2, 2376720, Note_on_c, 2, 64, 50
2, 2377680, Note_off_c, 2, 64, 0
2, 2377680, Note_on_c, 2, 61, 50
2, 2378160, Note_off_c, 2, 61, 0
2, 2378160, Note_on_c, 2, 61, 50
2, 2378640, Note_off_c, 2, 61, 0
2, 2378640, Note_on_c, 2, 48, 50
2, 2379120, Note_off_c, 2, 48, 0
2, 2379120, Note_on_c, 2, 47, 50
2, 2379600, Note_off_c, 2, 47, 0
2, 2379600, Note_on_c, 2, 46, 50
2, 2380560, Note_off_c, 2, 46, 0
2, 2380560, Note_on_c, 2, 48, 50
2, 2381040, Note_off_c, 2, 48, 0
2, 2381040, Note_on_c, 2, 63, 50
2, 2381520, Note_off_c, 2, 63, 0
2, 2381520, Note_on_c, 2, 49, 50
2, 2382480, Note_off_c, 2, 49, 0
2, 2382480, Note_on_c, 2, 48, 50
2, 2382960, Note_off_c, 2, 48, 0
2, 2382960, Note_on_c, 2, 47, 50
2, 2383440, Note_off_c, 2, 47, 0
2, 2383440, Note_on_c, 2, 63, 50
2, 2384400, Note_off_c, 2, 63, 0
2, 2384400, Note_on_c, 2, 63, 50
2, 2385360, Note_off_c, 2, 63, 0
2, 2385360, Note_on_c, 2, 61, 50
2, 2386080, Note_off_c, 2, 61, 0
2, 2386080, Note_on_c, 2, 61, 50
2, 2386800, Note_off_c, 2, 61, 0
2, 2386800, Note_on_c, 2, 61, 50
2, 2387280, Note_off_c, 2, 61, 0
2, 2387280, Note_on_c, 2, 63, 50
2, 2388000, Note_off_c, 2, 63, 0
2, 2388000, Note_on_c, 2, 63, 50
2, 2388720, Note_off_c, 2, 63, 0
2, 2388720, Note_on_c, 2, 63, 50
2, 2389200, Note_off_c, 2, 63, 0
2, 2389200, Note_on_c, 2, 49, 50
2, 2391120, Note_off_c, 2, 49, 0
2, 2391120, Note_on_c, 2, 63, 50
2, 2392080, Note_off_c, 2, 63, 0
2, 2392080, Note_on_c, 2, 63, 50
2, 2393040, Note_off_c, 2, 63, 0
2, 2393040, Note_on_c, 2, 49, 50
2, 2394000, Note_off_c, 2, 49, 0
2, 2394000, Note_on_c, 2, 48, 50
2, 2394480, Note_off_c, 2, 48, 0
2, 2394480, Note_on_c, 2, 47, 50
2, 2394960, Note_off_c, 2, 47, 0
2, 2394960, Note_on_c, 2, 46, 50
2, 2395920, Note_off_c, 2, 46, 0
2, 2395920, Note_on_c, 2, 48, 50
2, 2396400, Note_off_c, 2, 48, 0
2, 2396400, Note_on_c, 2, 63, 50
2, 2396880, Note_off_c, 2, 63, 0
2, 2396880, Note_on_c, 2, 49, 50
2, 2397840, Note_off_c, 2, 49, 0
2, 2397840, Note_on_c, 2, 48, 50
2, 2398320, Note_off_c, 2, 48, 0
2, 2398320, Note_on_c, 2, 47, 50
2, 2398800, Note_off_c, 2, 47, 0
2, 2398800, Note_on_c, 2, 46, 50
2, 2399760, Note_off_c, 2, 46, 0
2, 2399760, Note_on_c, 2, 48, 50
2, 2400240, Note_off_c, 2, 48, 0
2, 2400240, Note_on_c, 2, 63, 50
2, 2400720, Note_off_c, 2, 63, 0
2, 2400720, Note_on_c, 2, 49, 50
2, 2401680, Note_off_c, 2, 49, 0
2, 2401680, Note_on_c, 2, 48, 50
2, 2402160, Note_off_c, 2, 48, 0
2, 2402160, Note_on_c, 2, 47, 50
2, 2402640, Note_off_c, 2, 47, 0
2, 2402640, Note_on_c, 2, 63, 50
2, 2403600, Note_off_c, 2, 63, 0
2, 2403600, Note_on_c, 2, 64, 50
2, 2404560, Note_off_c, 2, 64, 0
2, 2404560, Note_on_c, 2, 61, 50
2, 2405040, Note_off_c, 2, 61, 0
2, 2405040, Note_on_c, 2, 61, 50
2, 2405520, Note_off_c, 2, 61, 0
2, 2405520, Note_on_c, 2, 48, 50
2, 2406000, Note_off_c, 2, 48, 0
2, 2406000, Note_on_c, 2, 47, 50
2, 2406480, Note_off_c, 2, 47, 0
2, 2406480, Note_on_c, 2, 46, 50
2, 2407440, Note_off_c, 2, 46, 0
2, 2407440, Note_on_c, 2, 48, 50
2, 2407920, Note_off_c, 2, 48, 0
2, 2407920, Note_on_c, 2, 63, 50
2, 2408400, Note_off_c, 2, 63, 0
2, 2408400, Note_on_c, 2, 49, 50
2, 2409360, Note_off_c, 2, 49, 0
2, 2409360, Note_on_c, 2, 48, 50
2, 2409840, Note_off_c, 2, 48, 0
2, 2409840, Note_on_c, 2, 47, 50
2, 2410320, Note_off_c, 2, 47, 0
2, 2410320, Note_on_c, 2, 63, 50
2, 2411280, Note_off_c, 2, 63, 0
2, 2411280, Note_on_c, 2, 63, 50
2, 2412240, Note_off_c, 2, 63, 0
2, 2412240, Note_on_c, 2, 61, 50
2, 2412960, Note_off_c, 2, 61, 0
2, 2412960, Note_on_c, 2, 61, 50
2, 2413680, Note_off_c, 2, 61, 0
2, 2413680, Note_on_c, 2, 61, 50
2, 2414160, Note_off_c, 2, 61, 0
2, 2414160, Note_on_c, 2, 63, 50
2, 2414880, Note_off_c, 2, 63, 0
2, 2414880, Note_on_c, 2, 63, 50
2, 2415600, Note_off_c, 2, 63, 0
2, 2415600, Note_on_c, 2, 63, 50
2, 2416080, Note_off_c, 2, 63, 0
2, 2416080, Note_on_c, 2, 49, 50
2, 2418000, Note_off_c, 2, 49, 0
2, 2418000, Note_on_c, 2, 63, 50
2, 2418960, Note_off_c, 2, 63, 0
2, 2418960, Note_on_c, 2, 63, 50
2, 2419920, Note_off_c, 2, 63, 0
2, 2419920, Note_on_c, 2, 61, 50
2, 2420880, Note_off_c, 2, 61, 0
2, 2420880, Note_on_c, 2, 63, 50
2, 2421840, Note_off_c, 2, 63, 0
2, 2421840, Note_on_c, 2, 65, 50
2, 2422080, Note_off_c, 2, 65, 0
2, 2422080, Note_on_c, 2, 65, 50
2, 2422320, Note_off_c, 2, 65, 0
2, 2422560, Note_on_c, 2, 65, 50
2, 2422800, Note_off_c, 2, 65, 0
2, 2422800, Note_on_c, 2, 63, 50
2, 2423040, Note_off_c, 2, 63, 0
2, 2423040, Note_on_c, 2, 63, 50
2, 2423280, Note_off_c, 2, 63, 0
2, 2423280, Note_on_c, 2, 63, 50
2, 2423760, Note_off_c, 2, 63, 0
2, 2423760, Note_on_c, 2, 61, 50
2, 2424240, Note_off_c, 2, 61, 0
2, 2424240, Note_on_c, 2, 61, 50
2, 2424480, Note_off_c, 2, 61, 0
2, 2424720, Note_on_c, 2, 63, 50
2, 2425200, Note_off_c, 2, 63, 0
2, 2425200, Note_on_c, 2, 63, 50
2, 2425440, Note_off_c, 2, 63, 0
2, 2425680, Note_on_c, 2, 65, 50
2, 2426160, Note_off_c, 2, 65, 0
2, 2426160, Note_on_c, 2, 65, 50
2, 2426400, Note_off_c, 2, 65, 0
2, 2426640, Note_on_c, 2, 63, 50
2, 2427120, Note_off_c, 2, 63, 0
2, 2427120, Note_on_c, 2, 63, 50
2, 2427360, Note_off_c, 2, 63, 0
2, 2427600, Note_on_c, 2, 63, 50
2, 2428320, Note_off_c, 2, 63, 0
2, 2428320, Note_on_c, 2, 63, 50
2, 2429040, Note_off_c, 2, 63, 0
2, 2429040, Note_on_c, 2, 63, 50
2, 2429520, Note_off_c, 2, 63, 0
2, 2429520, Note_on_c, 2, 63, 50
2, 2430240, Note_off_c, 2, 63, 0
2, 2430240, Note_on_c, 2, 63, 50
2, 2430960, Note_off_c, 2, 63, 0
2, 2430960, Note_on_c, 2, 63, 50
2, 2431440, Note_off_c, 2, 63, 0
2, 2431440, Note_on_c, 2, 49, 50
2, 2432400, Note_off_c, 2, 49, 0
2, 2432400, Note_on_c, 2, 48, 50
2, 2432880, Note_off_c, 2, 48, 0
2, 2432880, Note_on_c, 2, 47, 50
2, 2433360, Note_off_c, 2, 47, 0
2, 2433360, Note_on_c, 2, 46, 50
2, 2434320, Note_off_c, 2, 46, 0
2, 2434320, Note_on_c, 2, 48, 50
2, 2434800, Note_off_c, 2, 48, 0
2, 2434800, Note_on_c, 2, 63, 50
2, 2435280, Note_off_c, 2, 63, 0
2, 2435280, Note_on_c, 2, 49, 50
2, 2436240, Note_off_c, 2, 49, 0
2, 2436240, Note_on_c, 2, 48, 50
2, 2436720, Note_off_c, 2, 48, 0
2, 2436720, Note_on_c, 2, 47, 50
2, 2437200, Note_off_c, 2, 47, 0
2, 2437200, Note_on_c, 2, 46, 50
2, 2438160, Note_off_c, 2, 46, 0
2, 2438160, Note_on_c, 2, 48, 50
2, 2438640, Note_off_c, 2, 48, 0
2, 2438640, Note_on_c, 2, 63, 50
2, 2439120, Note_off_c, 2, 63, 0
2, 2439120, Note_on_c, 2, 49, 50
2, 2440080, Note_off_c, 2, 49, 0
2, 2440080, Note_on_c, 2, 48, 50
2, 2440560, Note_off_c, 2, 48, 0
2, 2440560, Note_on_c, 2, 47, 50
2, 2441040, Note_off_c, 2, 47, 0
2, 2441040, Note_on_c, 2, 63, 50
2, 2442000, Note_off_c, 2, 63, 0
2, 2442000, Note_on_c, 2, 64, 50
2, 2442960, Note_off_c, 2, 64, 0
2, 2442960, Note_on_c, 2, 61, 50
2, 2443440, Note_off_c, 2, 61, 0
2, 2443440, Note_on_c, 2, 61, 50
2, 2443920, Note_off_c, 2, 61, 0
2, 2443920, Note_on_c, 2, 48, 50
2, 2444400, Note_off_c, 2, 48, 0
2, 2444400, Note_on_c, 2, 47, 50
2, 2444880, Note_off_c, 2, 47, 0
2, 2444880, Note_on_c, 2, 46, 50
2, 2445840, Note_off_c, 2, 46, 0
2, 2445840, Note_on_c, 2, 48, 50
2, 2446320, Note_off_c, 2, 48, 0
2, 2446320, Note_on_c, 2, 63, 50
2, 2446800, Note_off_c, 2, 63, 0
2, 2446800, Note_on_c, 2, 49, 50
2, 2447760, Note_off_c, 2, 49, 0
2, 2447760, Note_on_c, 2, 48, 50
2, 2448240, Note_off_c, 2, 48, 0
2, 2448240, Note_on_c, 2, 47, 50
2, 2448720, Note_off_c, 2, 47, 0
2, 2448720, Note_on_c, 2, 63, 50
2, 2449680, Note_off_c, 2, 63, 0
2, 2449680, Note_on_c, 2, 63, 50
2, 2450640, Note_off_c, 2, 63, 0
2, 2450640, Note_on_c, 2, 61, 50
2, 2451360, Note_off_c, 2, 61, 0
2, 2451360, Note_on_c, 2, 61, 50
2, 2452080, Note_off_c, 2, 61, 0
2, 2452080, Note_on_c, 2, 61, 50
2, 2452560, Note_off_c, 2, 61, 0
2, 2452560, Note_on_c, 2, 63, 50
2, 2453280, Note_off_c, 2, 63, 0
2, 2453280, Note_on_c, 2, 63, 50
2, 2454000, Note_off_c, 2, 63, 0
2, 2454000, Note_on_c, 2, 63, 50
2, 2454480, Note_off_c, 2, 63, 0
2, 2454480, Note_on_c, 2, 49, 50
2, 2456400, Note_off_c, 2, 49, 0
2, 2456400, Note_on_c, 2, 63, 50
2, 2457360, Note_off_c, 2, 63, 0
2, 2457360, Note_on_c, 2, 63, 50
2, 2458320, Note_off_c, 2, 63, 0
2, 2458320, Note_on_c, 2, 46, 50
2, 2460240, Note_off_c, 2, 46, 0
2, 2460240, Note_on_c, 2, 63, 50
2, 2460720, Note_off_c, 2, 63, 0
2, 2460720, Note_on_c, 2, 63, 50
2, 2460960, Note_off_c, 2, 63, 0
2, 2461200, Note_on_c, 2, 63, 50
2, 2461680, Note_off_c, 2, 63, 0
2, 2461680, Note_on_c, 2, 63, 50
2, 2461920, Note_off_c, 2, 63, 0
2, 2462160, Note_on_c, 2, 46, 50
2, 2464080, Note_off_c, 2, 46, 0
2, 2464080, Note_on_c, 2, 63, 50
2, 2464560, Note_off_c, 2, 63, 0
2, 2464560, Note_on_c, 2, 63, 50
2, 2464800, Note_off_c, 2, 63, 0
2, 2465040, Note_on_c, 2, 63, 50
2, 2465520, Note_off_c, 2, 63, 0
2, 2465520, Note_on_c, 2, 63, 50
2, 2465760, Note_off_c, 2, 63, 0
2, 2466000, Note_on_c, 2, 46, 50
2, 2467920, Note_off_c, 2, 46, 0
2, 2467920, Note_on_c, 2, 63, 50
2, 2468400, Note_off_c, 2, 63, 0
2, 2468400, Note_on_c, 2, 63, 50
2, 2468640, Note_off_c, 2, 63, 0
2, 2468880, Note_on_c, 2, 63, 50
2, 2469360, Note_off_c, 2, 63, 0
2, 2469360, Note_on_c, 2, 63, 50
2, 2469600, Note_off_c, 2, 63, 0
2, 2469840, Note_on_c, 2, 46, 50
2, 2471760, Note_off_c, 2, 46, 0
2, 2471760, Note_on_c, 2, 63, 50
2, 2472240, Note_off_c, 2, 63, 0
2, 2472240, Note_on_c, 2, 63, 50
2, 2472480, Note_off_c, 2, 63, 0
2, 2472720, Note_on_c, 2, 63, 50
2, 2473200, Note_off_c, 2, 63, 0
2, 2473200, Note_on_c, 2, 63, 50
2, 2473440, Note_off_c, 2, 63, 0
2, 2473680, Note_on_c, 2, 46, 50
2, 2475600, Note_off_c, 2, 46, 0
2, 2475600, Note_on_c, 2, 63, 50
2, 2476080, Note_off_c, 2, 63, 0
2, 2476080, Note_on_c, 2, 63, 50
2, 2476320, Note_off_c, 2, 63, 0
2, 2476560, Note_on_c, 2, 63, 50
2, 2477040, Note_off_c, 2, 63, 0
2, 2477040, Note_on_c, 2, 63, 50
2, 2477280, Note_off_c, 2, 63, 0
2, 2477520, Note_on_c, 2, 46, 50
2, 2479440, Note_off_c, 2, 46, 0
2, 2479440, Note_on_c, 2, 63, 50
2, 2479920, Note_off_c, 2, 63, 0
2, 2479920, Note_on_c, 2, 63, 50
2, 2480160, Note_off_c, 2, 63, 0
2, 2480400, Note_on_c, 2, 63, 50
2, 2480880, Note_off_c, 2, 63, 0
2, 2480880, Note_on_c, 2, 63, 50
2, 2481120, Note_off_c, 2, 63, 0
2, 2481360, Note_on_c, 2, 46, 50
2, 2483280, Note_off_c, 2, 46, 0
2, 2483280, Note_on_c, 2, 63, 50
2, 2483760, Note_off_c, 2, 63, 0
2, 2483760, Note_on_c, 2, 63, 50
2, 2484000, Note_off_c, 2, 63, 0
2, 2484240, Note_on_c, 2, 63, 50
2, 2484720, Note_off_c, 2, 63, 0
2, 2484720, Note_on_c, 2, 63, 50
2, 2484960, Note_off_c, 2, 63, 0
2, 2485200, Note_on_c, 2, 46, 50
2, 2487120, Note_off_c, 2, 46, 0
2, 2487120, Note_on_c, 2, 63, 50
2, 2487600, Note_off_c, 2, 63, 0
2, 2487600, Note_on_c, 2, 63, 50
2, 2487840, Note_off_c, 2, 63, 0
2, 2488080, Note_on_c, 2, 63, 50
2, 2488560, Note_off_c, 2, 63, 0
2, 2488560, Note_on_c, 2, 63, 50
2, 2488800, Note_off_c, 2, 63, 0
2, 2494560, Note_on_c, 2, 55, 50
2, 2495520, Note_off_c, 2, 55, 0
2, 2495520, Note_on_c, 2, 55, 50
2, 2495760, Note_off_c, 2, 55, 0
2, 2495760, Note_on_c, 2, 57, 50
2, 2496480, Note_off_c, 2, 57, 0
2, 2496480, Note_on_c, 2, 55, 50
2, 2496720, Note_off_c, 2, 55, 0
2, 2496720, Note_on_c, 2, 52, 50
2, 2497200, Note_off_c, 2, 52, 0
2, 2497200, Note_on_c, 2, 55, 50
2, 2497680, Note_off_c, 2, 55, 0
2, 2497680, Note_on_c, 2, 57, 50
2, 2498400, Note_off_c, 2, 57, 0
2, 2498400, Note_on_c, 2, 55, 50
2, 2499600, Note_off_c, 2, 55, 0
2, 2499600, Note_on_c, 2, 57, 50
2, 2500320, Note_off_c, 2, 57, 0
2, 2500320, Note_on_c, 2, 55, 50
2, 2500560, Note_off_c, 2, 55, 0
2, 2500560, Note_on_c, 2, 52, 50
2, 2501040, Note_off_c, 2, 52, 0
2, 2501040, Note_on_c, 2, 55, 50
2, 2501520, Note_off_c, 2, 55, 0
2, 2501520, Note_on_c, 2, 57, 50
2, 2502240, Note_off_c, 2, 57, 0
2, 2502240, Note_on_c, 2, 55, 50
2, 2503200, Note_off_c, 2, 55, 0
2, 2503200, Note_on_c, 2, 55, 50
2, 2503440, Note_off_c, 2, 55, 0
2, 2503440, Note_on_c, 2, 57, 50
2, 2504160, Note_off_c, 2, 57, 0
2, 2504160, Note_on_c, 2, 55, 50
2, 2505120, Note_off_c, 2, 55, 0
2, 2505120, Note_on_c, 2, 55, 50
2, 2505360, Note_off_c, 2, 55, 0
2, 2505360, Note_on_c, 2, 57, 50
2, 2506080, Note_off_c, 2, 57, 0
2, 2506080, Note_on_c, 2, 55, 50
2, 2506320, Note_off_c, 2, 55, 0
2, 2506320, Note_on_c, 2, 52, 50
2, 2506800, Note_off_c, 2, 52, 0
2, 2506800, Note_on_c, 2, 55, 50
2, 2507280, Note_off_c, 2, 55, 0
2, 2507280, Note_on_c, 2, 57, 50
2, 2508240, Note_off_c, 2, 57, 0
2, 2508240, Note_on_c, 2, 52, 50
2, 2508720, Note_off_c, 2, 52, 0
2, 2508720, Note_on_c, 2, 55, 50
2, 2509200, Note_off_c, 2, 55, 0
2, 2509200, Note_on_c, 2, 57, 50
2, 2509920, Note_off_c, 2, 57, 0
2, 2509920, Note_on_c, 2, 55, 50
2, 2511120, Note_off_c, 2, 55, 0
2, 2511120, Note_on_c, 2, 57, 50
2, 2511840, Note_off_c, 2, 57, 0
2, 2511840, Note_on_c, 2, 55, 50
2, 2513040, Note_off_c, 2, 55, 0
2, 2513040, Note_on_c, 2, 57, 50
2, 2513760, Note_off_c, 2, 57, 0
2, 2513760, Note_on_c, 2, 55, 50
2, 2514960, Note_off_c, 2, 55, 0
2, 2514960, Note_on_c, 2, 57, 50
2, 2515920, Note_off_c, 2, 57, 0
2, 2515920, Note_on_c, 2, 49, 50
2, 2516880, Note_off_c, 2, 49, 0
2, 2516880, Note_on_c, 2, 42, 50
2, 2517360, Note_off_c, 2, 42, 0
2, 2517360, Note_on_c, 2, 47, 50
2, 2517840, Note_off_c, 2, 47, 0
2, 2517840, Note_on_c, 2, 49, 50
2, 2518800, Note_off_c, 2, 49, 0
2, 2518800, Note_on_c, 2, 42, 50
2, 2519280, Note_off_c, 2, 42, 0
2, 2519280, Note_on_c, 2, 47, 50
2, 2519760, Note_off_c, 2, 47, 0
2, 2519760, Note_on_c, 2, 49, 50
2, 2520720, Note_off_c, 2, 49, 0
2, 2520720, Note_on_c, 2, 42, 50
2, 2521200, Note_off_c, 2, 42, 0
2, 2521200, Note_on_c, 2, 47, 50
2, 2521680, Note_off_c, 2, 47, 0
2, 2521680, Note_on_c, 2, 49, 50
2, 2522640, Note_off_c, 2, 49, 0
2, 2522640, Note_on_c, 2, 42, 50
2, 2523120, Note_off_c, 2, 42, 0
2, 2523120, Note_on_c, 2, 47, 50
2, 2523600, Note_off_c, 2, 47, 0
2, 2523600, Note_on_c, 2, 49, 50
2, 2524560, Note_off_c, 2, 49, 0
2, 2524560, Note_on_c, 2, 42, 50
2, 2525040, Note_off_c, 2, 42, 0
2, 2525040, Note_on_c, 2, 47, 50
2, 2525520, Note_off_c, 2, 47, 0
2, 2525520, Note_on_c, 2, 49, 50
2, 2526480, Note_off_c, 2, 49, 0
2, 2526480, Note_on_c, 2, 42, 50
2, 2526960, Note_off_c, 2, 42, 0
2, 2526960, Note_on_c, 2, 47, 50
2, 2527440, Note_off_c, 2, 47, 0
2, 2527440, Note_on_c, 2, 40, 50
2, 2528400, Note_off_c, 2, 40, 0
2, 2528400, Note_on_c, 2, 40, 50
2, 2528880, Note_off_c, 2, 40, 0
2, 2528880, Note_on_c, 2, 45, 50
2, 2529360, Note_off_c, 2, 45, 0
2, 2529360, Note_on_c, 2, 42, 50
2, 2530320, Note_off_c, 2, 42, 0
2, 2530320, Note_on_c, 2, 49, 50
2, 2531280, Note_off_c, 2, 49, 0
2, 2531280, Note_on_c, 2, 47, 50
2, 2532240, Note_off_c, 2, 47, 0
2, 2532240, Note_on_c, 2, 47, 50
2, 2532720, Note_off_c, 2, 47, 0
2, 2532960, Note_on_c, 2, 52, 50
2, 2533200, Note_off_c, 2, 52, 0
2, 2533200, Note_on_c, 2, 54, 50
2, 2534160, Note_off_c, 2, 54, 0
2, 2534160, Note_on_c, 2, 47, 50
2, 2534640, Note_off_c, 2, 47, 0
2, 2534640, Note_on_c, 2, 47, 50
2, 2535120, Note_off_c, 2, 47, 0
2, 2535120, Note_on_c, 2, 52, 50
2, 2535600, Note_off_c, 2, 52, 0
2, 2535600, Note_on_c, 2, 55, 50
2, 2536080, Note_off_c, 2, 55, 0
2, 2536080, Note_on_c, 2, 57, 50
2, 2536800, Note_off_c, 2, 57, 0
2, 2536800, Note_on_c, 2, 55, 50
2, 2537760, Note_off_c, 2, 55, 0
2, 2537760, Note_on_c, 2, 55, 50
2, 2538000, Note_off_c, 2, 55, 0
2, 2538000, Note_on_c, 2, 57, 50
2, 2538720, Note_off_c, 2, 57, 0
2, 2538720, Note_on_c, 2, 55, 50
2, 2539680, Note_off_c, 2, 55, 0
2, 2539680, Note_on_c, 2, 55, 50
2, 2539920, Note_off_c, 2, 55, 0
2, 2539920, Note_on_c, 2, 57, 50
2, 2540640, Note_off_c, 2, 57, 0
2, 2540640, Note_on_c, 2, 55, 50
2, 2540880, Note_off_c, 2, 55, 0
2, 2540880, Note_on_c, 2, 52, 50
2, 2541360, Note_off_c, 2, 52, 0
2, 2541360, Note_on_c, 2, 55, 50
2, 2541840, Note_off_c, 2, 55, 0
2, 2541840, Note_on_c, 2, 57, 50
2, 2542800, Note_off_c, 2, 57, 0
2, 2542800, Note_on_c, 2, 52, 50
2, 2543280, Note_off_c, 2, 52, 0
2, 2543280, Note_on_c, 2, 55, 50
2, 2543760, Note_off_c, 2, 55, 0
2, 2543760, Note_on_c, 2, 57, 50
2, 2544480, Note_off_c, 2, 57, 0
2, 2544480, Note_on_c, 2, 55, 50
2, 2545680, Note_off_c, 2, 55, 0
2, 2545680, Note_on_c, 2, 57, 50
2, 2546400, Note_off_c, 2, 57, 0
2, 2546400, Note_on_c, 2, 55, 50
2, 2547600, Note_off_c, 2, 55, 0
2, 2547600, Note_on_c, 2, 57, 50
2, 2548320, Note_off_c, 2, 57, 0
2, 2548320, Note_on_c, 2, 55, 50
2, 2549520, Note_off_c, 2, 55, 0
2, 2549520, Note_on_c, 2, 57, 50
2, 2550480, Note_off_c, 2, 57, 0
2, 2550480, Note_on_c, 2, 49, 50
2, 2551440, Note_off_c, 2, 49, 0
2, 2551440, Note_on_c, 2, 42, 50
2, 2551920, Note_off_c, 2, 42, 0
2, 2551920, Note_on_c, 2, 47, 50
2, 2552400, Note_off_c, 2, 47, 0
2, 2552400, Note_on_c, 2, 49, 50
2, 2553360, Note_off_c, 2, 49, 0
2, 2553360, Note_on_c, 2, 42, 50
2, 2553840, Note_off_c, 2, 42, 0
2, 2553840, Note_on_c, 2, 47, 50
2, 2554320, Note_off_c, 2, 47, 0
2, 2554320, Note_on_c, 2, 49, 50
2, 2555280, Note_off_c, 2, 49, 0
2, 2555280, Note_on_c, 2, 42, 50
2, 2555760, Note_off_c, 2, 42, 0
2, 2555760, Note_on_c, 2, 47, 50
2, 2556240, Note_off_c, 2, 47, 0
2, 2556240, Note_on_c, 2, 49, 50
2, 2557200, Note_off_c, 2, 49, 0
2, 2557200, Note_on_c, 2, 42, 50
2, 2557680, Note_off_c, 2, 42, 0
2, 2557680, Note_on_c, 2, 47, 50
2, 2558160, Note_off_c, 2, 47, 0
2, 2558160, Note_on_c, 2, 49, 50
2, 2559120, Note_off_c, 2, 49, 0
2, 2559120, Note_on_c, 2, 42, 50
2, 2559600, Note_off_c, 2, 42, 0
2, 2559600, Note_on_c, 2, 47, 50
2, 2560080, Note_off_c, 2, 47, 0
2, 2560080, Note_on_c, 2, 49, 50
2, 2561040, Note_off_c, 2, 49, 0
2, 2561040, Note_on_c, 2, 42, 50
2, 2561520, Note_off_c, 2, 42, 0
2, 2561520, Note_on_c, 2, 47, 50
2, 2562000, Note_off_c, 2, 47, 0
2, 2562000, Note_on_c, 2, 40, 50
2, 2562960, Note_off_c, 2, 40, 0
2, 2562960, Note_on_c, 2, 40, 50
2, 2563440, Note_off_c, 2, 40, 0
2, 2563440, Note_on_c, 2, 45, 50
2, 2563920, Note_off_c, 2, 45, 0
2, 2563920, Note_on_c, 2, 42, 50
2, 2564880, Note_off_c, 2, 42, 0
2, 2564880, Note_on_c, 2, 49, 50
2, 2565840, Note_off_c, 2, 49, 0
2, 2565840, Note_on_c, 2, 59, 50
2, 2566320, Note_off_c, 2, 59, 0
2, 2566320, Note_on_c, 2, 66, 50
2, 2566560, Note_off_c, 2, 66, 0
2, 2566560, Note_on_c, 2, 59, 50
2, 2566800, Note_off_c, 2, 59, 0
2, 2566800, Note_on_c, 2, 64, 50
2, 2567040, Note_off_c, 2, 64, 0
2, 2567040, Note_on_c, 2, 63, 50
2, 2567280, Note_off_c, 2, 63, 0
2, 2567280, Note_on_c, 2, 59, 50
2, 2567520, Note_off_c, 2, 59, 0
2, 2567520, Note_on_c, 2, 63, 50
2, 2567760, Note_off_c, 2, 63, 0
2, 2567760, Note_on_c, 2, 64, 50
2, 2568240, Note_off_c, 2, 64, 0
2, 2568240, Note_on_c, 2, 59, 50
2, 2568720, Note_off_c, 2, 59, 0
2, 2568720, Note_on_c, 2, 64, 50
2, 2568960, Note_off_c, 2, 64, 0
2, 2568960, Note_on_c, 2, 63, 50
2, 2569680, Note_off_c, 2, 63, 0
2, 2569680, Note_on_c, 2, 66, 50
2, 2571600, Note_off_c, 2, 66, 0
2, 2585520, Note_on_c, 2, 69, 50
2, 2586000, Note_off_c, 2, 69, 0
2, 2586240, Note_on_c, 2, 69, 50
2, 2587440, Note_off_c, 2, 69, 0
2, 2587440, Note_on_c, 2, 62, 50
2, 2587680, Note_off_c, 2, 62, 0
2, 2587680, Note_on_c, 2, 61, 50
2, 2587920, Note_off_c, 2, 61, 0
2, 2587920, Note_on_c, 2, 57, 50
2, 2588160, Note_off_c, 2, 57, 0
2, 2588160, Note_on_c, 2, 61, 50
2, 2588400, Note_off_c, 2, 61, 0
2, 2588400, Note_on_c, 2, 62, 50
2, 2588640, Note_off_c, 2, 62, 0
2, 2588640, Note_on_c, 2, 69, 50
2, 2588880, Note_off_c, 2, 69, 0
2, 2588880, Note_on_c, 2, 52, 50
2, 2589360, Note_off_c, 2, 52, 0
2, 2589360, Note_on_c, 2, 55, 50
2, 2589840, Note_off_c, 2, 55, 0
2, 2589840, Note_on_c, 2, 57, 50
2, 2590560, Note_off_c, 2, 57, 0
2, 2590560, Note_on_c, 2, 55, 50
2, 2591520, Note_off_c, 2, 55, 0
2, 2591520, Note_on_c, 2, 55, 50
2, 2591760, Note_off_c, 2, 55, 0
2, 2591760, Note_on_c, 2, 57, 50
2, 2592480, Note_off_c, 2, 57, 0
2, 2592480, Note_on_c, 2, 55, 50
2, 2593440, Note_off_c, 2, 55, 0
2, 2593440, Note_on_c, 2, 55, 50
2, 2593680, Note_off_c, 2, 55, 0
2, 2593680, Note_on_c, 2, 57, 50
2, 2594400, Note_off_c, 2, 57, 0
2, 2594400, Note_on_c, 2, 55, 50
2, 2594640, Note_off_c, 2, 55, 0
2, 2594640, Note_on_c, 2, 52, 50
2, 2595120, Note_off_c, 2, 52, 0
2, 2595120, Note_on_c, 2, 55, 50
2, 2595600, Note_off_c, 2, 55, 0
2, 2595600, Note_on_c, 2, 57, 50
2, 2596560, Note_off_c, 2, 57, 0
2, 2596560, Note_on_c, 2, 52, 50
2, 2597040, Note_off_c, 2, 52, 0
2, 2597040, Note_on_c, 2, 55, 50
2, 2597520, Note_off_c, 2, 55, 0
2, 2597520, Note_on_c, 2, 57, 50
2, 2598240, Note_off_c, 2, 57, 0
2, 2598240, Note_on_c, 2, 55, 50
2, 2599440, Note_off_c, 2, 55, 0
2, 2599440, Note_on_c, 2, 57, 50
2, 2600160, Note_off_c, 2, 57, 0
2, 2600160, Note_on_c, 2, 55, 50
2, 2601360, Note_off_c, 2, 55, 0
2, 2601360, Note_on_c, 2, 57, 50
2, 2602080, Note_off_c, 2, 57, 0
2, 2602080, Note_on_c, 2, 55, 50
2, 2603280, Note_off_c, 2, 55, 0
2, 2603280, Note_on_c, 2, 57, 50
2, 2604240, Note_off_c, 2, 57, 0
2, 2604240, Note_on_c, 2, 49, 50
2, 2605200, Note_off_c, 2, 49, 0
2, 2605200, Note_on_c, 2, 42, 50
2, 2605680, Note_off_c, 2, 42, 0
2, 2605680, Note_on_c, 2, 47, 50
2, 2606160, Note_off_c, 2, 47, 0
2, 2606160, Note_on_c, 2, 49, 50
2, 2607120, Note_off_c, 2, 49, 0
2, 2607120, Note_on_c, 2, 42, 50
2, 2607600, Note_off_c, 2, 42, 0
2, 2607600, Note_on_c, 2, 47, 50
2, 2608080, Note_off_c, 2, 47, 0
2, 2608080, Note_on_c, 2, 49, 50
2, 2609040, Note_off_c, 2, 49, 0
2, 2609040, Note_on_c, 2, 42, 50
2, 2609520, Note_off_c, 2, 42, 0
2, 2609520, Note_on_c, 2, 47, 50
2, 2610000, Note_off_c, 2, 47, 0
2, 2610000, Note_on_c, 2, 49, 50
2, 2610960, Note_off_c, 2, 49, 0
2, 2610960, Note_on_c, 2, 42, 50
2, 2611440, Note_off_c, 2, 42, 0
2, 2611440, Note_on_c, 2, 47, 50
2, 2611920, Note_off_c, 2, 47, 0
2, 2611920, Note_on_c, 2, 49, 50
2, 2612880, Note_off_c, 2, 49, 0
2, 2612880, Note_on_c, 2, 42, 50
2, 2613360, Note_off_c, 2, 42, 0
2, 2613360, Note_on_c, 2, 47, 50
2, 2613840, Note_off_c, 2, 47, 0
2, 2613840, Note_on_c, 2, 49, 50
2, 2614800, Note_off_c, 2, 49, 0
2, 2614800, Note_on_c, 2, 42, 50
2, 2615280, Note_off_c, 2, 42, 0
2, 2615280, Note_on_c, 2, 47, 50
2, 2615760, Note_off_c, 2, 47, 0
2, 2615760, Note_on_c, 2, 40, 50
2, 2616720, Note_off_c, 2, 40, 0
2, 2616720, Note_on_c, 2, 40, 50
2, 2617200, Note_off_c, 2, 40, 0
2, 2617200, Note_on_c, 2, 45, 50
2, 2617680, Note_off_c, 2, 45, 0
2, 2617680, Note_on_c, 2, 42, 50
2, 2618640, Note_off_c, 2, 42, 0
2, 2618640, Note_on_c, 2, 49, 50
2, 2619600, Note_off_c, 2, 49, 0
2, 2619600, Note_on_c, 2, 59, 50
2, 2620080, Note_off_c, 2, 59, 0
2, 2620080, Note_on_c, 2, 66, 50
2, 2620320, Note_off_c, 2, 66, 0
2, 2620320, Note_on_c, 2, 59, 50
2, 2620560, Note_off_c, 2, 59, 0
2, 2620560, Note_on_c, 2, 64, 50
2, 2620800, Note_off_c, 2, 64, 0
2, 2620800, Note_on_c, 2, 63, 50
2, 2621040, Note_off_c, 2, 63, 0
2, 2621040, Note_on_c, 2, 59, 50
2, 2621280, Note_off_c, 2, 59, 0
2, 2621280, Note_on_c, 2, 63, 50
2, 2621520, Note_off_c, 2, 63, 0
2, 2621520, Note_on_c, 2, 64, 50
2, 2622000, Note_off_c, 2, 64, 0
2, 2622000, Note_on_c, 2, 59, 50
2, 2622480, Note_off_c, 2, 59, 0
2, 2622480, Note_on_c, 2, 64, 50
2, 2622720, Note_off_c, 2, 64, 0
2, 2622720, Note_on_c, 2, 63, 50
2, 2623440, Note_off_c, 2, 63, 0
2, 2623440, Note_on_c, 2, 66, 50
2, 2625360, Note_off_c, 2, 66, 0
2, 2639280, Note_on_c, 2, 69, 50
2, 2639760, Note_off_c, 2, 69, 0
2, 2640000, Note_on_c, 2, 69, 50
2, 2640960, Note_off_c, 2, 69, 0
2, 2640960, Note_on_c, 2, 64, 50
2, 2641920, Note_off_c, 2, 64, 0
2, 2641920, Note_on_c, 2, 62, 50
2, 2642640, Note_off_c, 2, 62, 0
2, 2643840, Note_on_c, 2, 69, 50
2, 2644320, Note_off_c, 2, 69, 0
2, 2644320, Note_on_c, 2, 57, 50
2, 2644560, Note_off_c, 2, 57, 0
2, 2644560, Note_on_c, 2, 69, 50
2, 2644800, Note_off_c, 2, 69, 0
2, 2644800, Note_on_c, 2, 62, 50
2, 2645040, Note_off_c, 2, 62, 0
2, 2645040, Note_on_c, 2, 61, 50
2, 2645280, Note_off_c, 2, 61, 0
2, 2645280, Note_on_c, 2, 57, 50
2, 2645520, Note_off_c, 2, 57, 0
2, 2645520, Note_on_c, 2, 61, 50
2, 2645760, Note_off_c, 2, 61, 0
2, 2645760, Note_on_c, 2, 62, 50
2, 2646000, Note_off_c, 2, 62, 0
2, 2646000, Note_on_c, 2, 62, 50
2, 2646240, Note_off_c, 2, 62, 0
2, 2646240, Note_on_c, 2, 61, 50
2, 2646480, Note_off_c, 2, 61, 0
2, 2646960, Note_on_c, 2, 69, 50
2, 2647680, Note_off_c, 2, 69, 0
2, 2647680, Note_on_c, 2, 61, 50
2, 2647920, Note_off_c, 2, 61, 0
2, 2647920, Note_on_c, 2, 62, 50
2, 2648400, Note_off_c, 2, 62, 0
2, 2648400, Note_on_c, 2, 69, 50
2, 2649120, Note_off_c, 2, 69, 0
2, 2649120, Note_on_c, 2, 61, 50
2, 2649360, Note_off_c, 2, 61, 0
2, 2649360, Note_on_c, 2, 62, 50
2, 2649600, Note_off_c, 2, 62, 0
2, 2649600, Note_on_c, 2, 62, 50
2, 2649840, Note_off_c, 2, 62, 0
2, 2649840, Note_on_c, 2, 62, 50
2, 2650080, Note_off_c, 2, 62, 0
2, 2650080, Note_on_c, 2, 61, 50
2, 2650320, Note_off_c, 2, 61, 0
2, 2651280, Note_on_c, 2, 62, 50
2, 2651520, Note_off_c, 2, 62, 0
2, 2651520, Note_on_c, 2, 61, 50
2, 2651760, Note_off_c, 2, 61, 0
2, 2651760, Note_on_c, 2, 57, 50
2, 2652000, Note_off_c, 2, 57, 0
2, 2652000, Note_on_c, 2, 61, 50
2, 2652240, Note_off_c, 2, 61, 0
2, 2652240, Note_on_c, 2, 62, 50
2, 2652480, Note_off_c, 2, 62, 0
2, 2652480, Note_on_c, 2, 69, 50
2, 2652960, Note_off_c, 2, 69, 0
2, 2652960, Note_on_c, 2, 57, 50
2, 2653200, Note_off_c, 2, 57, 0
2, 2653200, Note_on_c, 2, 69, 50
2, 2653440, Note_off_c, 2, 69, 0
2, 2653440, Note_on_c, 2, 61, 50
2, 2653680, Note_off_c, 2, 61, 0
2, 2653680, Note_on_c, 2, 62, 50
2, 2653920, Note_off_c, 2, 62, 0
2, 2653920, Note_on_c, 2, 61, 50
2, 2654160, Note_off_c, 2, 61, 0
2, 2654160, Note_on_c, 2, 69, 50
2, 2654880, Note_off_c, 2, 69, 0
2, 2654880, Note_on_c, 2, 61, 50
2, 2655120, Note_off_c, 2, 61, 0
2, 2655120, Note_on_c, 2, 62, 50
2, 2655360, Note_off_c, 2, 62, 0
2, 2655360, Note_on_c, 2, 62, 50
2, 2655600, Note_off_c, 2, 62, 0
2, 2655600, Note_on_c, 2, 62, 50
2, 2655840, Note_off_c, 2, 62, 0
2, 2655840, Note_on_c, 2, 61, 50
2, 2656080, Note_off_c, 2, 61, 0
2, 2656320, Note_on_c, 2, 61, 50
2, 2656560, Note_off_c, 2, 61, 0
2, 2656560, Note_on_c, 2, 61, 50
2, 2657040, Note_off_c, 2, 61, 0
2, 2657040, Note_on_c, 2, 69, 50
2, 2658000, Note_off_c, 2, 69, 0
2, 2658960, Note_on_c, 2, 58, 50
2, 2659200, Note_off_c, 2, 58, 0
2, 2659200, Note_on_c, 2, 66, 50
2, 2659440, Note_off_c, 2, 66, 0
2, 2659440, Note_on_c, 2, 61, 50
2, 2659680, Note_off_c, 2, 61, 0
2, 2659680, Note_on_c, 2, 63, 50
2, 2659920, Note_off_c, 2, 63, 0
2, 2659920, Note_on_c, 2, 66, 50
2, 2660160, Note_off_c, 2, 66, 0
2, 2660160, Note_on_c, 2, 63, 50
2, 2660400, Note_off_c, 2, 63, 0
2, 2660400, Note_on_c, 2, 61, 50
2, 2660640, Note_off_c, 2, 61, 0
2, 2660640, Note_on_c, 2, 58, 50
2, 2660880, Note_off_c, 2, 58, 0
2, 2660880, Note_on_c, 2, 66, 50
2, 2661360, Note_off_c, 2, 66, 0
2, 2661360, Note_on_c, 2, 61, 50
2, 2661840, Note_off_c, 2, 61, 0
2, 2661840, Note_on_c, 2, 59, 50
2, 2662080, Note_off_c, 2, 59, 0
2, 2662080, Note_on_c, 2, 66, 50
2, 2662320, Note_off_c, 2, 66, 0
2, 2662320, Note_on_c, 2, 63, 50
2, 2662800, Note_off_c, 2, 63, 0
2, 2662800, Note_on_c, 2, 64, 50
2, 2663280, Note_off_c, 2, 64, 0
2, 2663280, Note_on_c, 2, 64, 50
2, 2663520, Note_off_c, 2, 64, 0
2, 2663520, Note_on_c, 2, 63, 50
2, 2665440, Note_off_c, 2, 63, 0
2, 2665440, Note_on_c, 2, 63, 50
2, 2665680, Note_off_c, 2, 63, 0
2, 2671200, Note_on_c, 2, 54, 50
2, 2671440, Note_off_c, 2, 54, 0
2, 2671440, Note_on_c, 2, 57, 50
2, 2671680, Note_off_c, 2, 57, 0
2, 2671680, Note_on_c, 2, 60, 50
2, 2671800, Note_off_c, 2, 60, 0
2, 2671800, Note_on_c, 2, 59, 50
2, 2671920, Note_off_c, 2, 59, 0
2, 2671920, Note_on_c, 2, 57, 50
2, 2672160, Note_off_c, 2, 57, 0
2, 2672160, Note_on_c, 2, 62, 50
2, 2672640, Note_off_c, 2, 62, 0
2, 2672640, Note_on_c, 2, 54, 50
2, 2672880, Note_off_c, 2, 54, 0
2, 2672880, Note_on_c, 2, 61, 50
2, 2673120, Note_off_c, 2, 61, 0
2, 2673120, Note_on_c, 2, 63, 50
2, 2673600, Note_off_c, 2, 63, 0
2, 2673600, Note_on_c, 2, 63, 50
2, 2673840, Note_off_c, 2, 63, 0
2, 2673840, Note_on_c, 2, 61, 50
2, 2674080, Note_off_c, 2, 61, 0
2, 2674080, Note_on_c, 2, 57, 50
2, 2674560, Note_off_c, 2, 57, 0
2, 2674560, Note_on_c, 2, 61, 50
2, 2675040, Note_off_c, 2, 61, 0
2, 2675040, Note_on_c, 2, 63, 50
2, 2676000, Note_off_c, 2, 63, 0
2, 2676000, Note_on_c, 2, 57, 50
2, 2676240, Note_off_c, 2, 57, 0
2, 2676240, Note_on_c, 2, 57, 50
2, 2676720, Note_off_c, 2, 57, 0
2, 2676720, Note_on_c, 2, 57, 50
2, 2676960, Note_off_c, 2, 57, 0
2, 2676960, Note_on_c, 2, 57, 50
2, 2677200, Note_off_c, 2, 57, 0
2, 2677200, Note_on_c, 2, 57, 50
2, 2677440, Note_off_c, 2, 57, 0
2, 2677440, Note_on_c, 2, 56, 50
2, 2677680, Note_off_c, 2, 56, 0
2, 2677680, Note_on_c, 2, 56, 50
2, 2677920, Note_off_c, 2, 56, 0
2, 2677920, Note_on_c, 2, 56, 50
2, 2678640, Note_off_c, 2, 56, 0
2, 2679600, Note_on_c, 2, 57, 50
2, 2679840, Note_off_c, 2, 57, 0
2, 2679840, Note_on_c, 2, 57, 50
2, 2680080, Note_off_c, 2, 57, 0
2, 2680080, Note_on_c, 2, 57, 50
2, 2680320, Note_off_c, 2, 57, 0
2, 2680320, Note_on_c, 2, 57, 50
2, 2680560, Note_off_c, 2, 57, 0
2, 2681040, Note_on_c, 2, 57, 50
2, 2681280, Note_off_c, 2, 57, 0
2, 2681280, Note_on_c, 2, 56, 50
2, 2681760, Note_off_c, 2, 56, 0
2, 2681760, Note_on_c, 2, 56, 50
2, 2682000, Note_off_c, 2, 56, 0
2, 2683200, Note_on_c, 2, 57, 50
2, 2683440, Note_off_c, 2, 57, 0
2, 2683440, Note_on_c, 2, 57, 50
2, 2683560, Note_off_c, 2, 57, 0
2, 2683560, Note_on_c, 2, 57, 50
2, 2683680, Note_off_c, 2, 57, 0
2, 2683680, Note_on_c, 2, 57, 50
2, 2683920, Note_off_c, 2, 57, 0
2, 2683920, Note_on_c, 2, 57, 50
2, 2684160, Note_off_c, 2, 57, 0
2, 2684160, Note_on_c, 2, 57, 50
2, 2684400, Note_off_c, 2, 57, 0
2, 2684640, Note_on_c, 2, 57, 50
2, 2684880, Note_off_c, 2, 57, 0
2, 2684880, Note_on_c, 2, 57, 50
2, 2685120, Note_off_c, 2, 57, 0
2, 2685120, Note_on_c, 2, 56, 50
2, 2685360, Note_off_c, 2, 56, 0
2, 2685360, Note_on_c, 2, 56, 50
2, 2685600, Note_off_c, 2, 56, 0
2, 2685600, Note_on_c, 2, 56, 50
2, 2686320, Note_off_c, 2, 56, 0
2, 2686560, Note_on_c, 2, 59, 50
2, 2686800, Note_off_c, 2, 59, 0
2, 2686800, Note_on_c, 2, 62, 50
2, 2687040, Note_off_c, 2, 62, 0
2, 2687040, Note_on_c, 2, 62, 50
2, 2687280, Note_off_c, 2, 62, 0
2, 2687280, Note_on_c, 2, 62, 50
2, 2687760, Note_off_c, 2, 62, 0
2, 2687760, Note_on_c, 2, 62, 50
2, 2688240, Note_off_c, 2, 62, 0
2, 2688240, Note_on_c, 2, 62, 50
2, 2688720, Note_off_c, 2, 62, 0
2, 2688720, Note_on_c, 2, 62, 50
2, 2688960, Note_off_c, 2, 62, 0
2, 2688960, Note_on_c, 2, 62, 50
2, 2689440, Note_off_c, 2, 62, 0
2, 2689440, Note_on_c, 2, 62, 50
2, 2689680, Note_off_c, 2, 62, 0
2, 2690640, Note_on_c, 2, 59, 50
2, 2690880, Note_off_c, 2, 59, 0
2, 2690880, Note_on_c, 2, 63, 50
2, 2691120, Note_off_c, 2, 63, 0
2, 2691120, Note_on_c, 2, 59, 50
2, 2691360, Note_off_c, 2, 59, 0
2, 2691360, Note_on_c, 2, 56, 50
2, 2691600, Note_off_c, 2, 56, 0
2, 2691600, Note_on_c, 2, 56, 50
2, 2691840, Note_off_c, 2, 56, 0
2, 2691840, Note_on_c, 2, 56, 50
2, 2692320, Note_off_c, 2, 56, 0
2, 2692320, Note_on_c, 2, 56, 50
2, 2693040, Note_off_c, 2, 56, 0
2, 2694480, Note_on_c, 2, 56, 50
2, 2694720, Note_off_c, 2, 56, 0
2, 2694720, Note_on_c, 2, 56, 50
2, 2694960, Note_off_c, 2, 56, 0
2, 2694960, Note_on_c, 2, 56, 50
2, 2695200, Note_off_c, 2, 56, 0
2, 2695200, Note_on_c, 2, 56, 50
2, 2695440, Note_off_c, 2, 56, 0
2, 2695440, Note_on_c, 2, 56, 50
2, 2695680, Note_off_c, 2, 56, 0
2, 2695680, Note_on_c, 2, 56, 50
2, 2696160, Note_off_c, 2, 56, 0
2, 2696160, Note_on_c, 2, 56, 50
2, 2696880, Note_off_c, 2, 56, 0
2, 2698320, Note_on_c, 2, 59, 50
2, 2698560, Note_off_c, 2, 59, 0
2, 2698560, Note_on_c, 2, 63, 50
2, 2698800, Note_off_c, 2, 63, 0
2, 2698800, Note_on_c, 2, 59, 50
2, 2699040, Note_off_c, 2, 59, 0
2, 2699040, Note_on_c, 2, 56, 50
2, 2699280, Note_off_c, 2, 56, 0
2, 2699280, Note_on_c, 2, 56, 50
2, 2699520, Note_off_c, 2, 56, 0
2, 2699520, Note_on_c, 2, 56, 50
2, 2700000, Note_off_c, 2, 56, 0
2, 2700000, Note_on_c, 2, 56, 50
2, 2700720, Note_off_c, 2, 56, 0
2, 2700960, Note_on_c, 2, 54, 50
2, 2701200, Note_off_c, 2, 54, 0
2, 2701200, Note_on_c, 2, 57, 50
2, 2701440, Note_off_c, 2, 57, 0
2, 2701440, Note_on_c, 2, 59, 50
2, 2701680, Note_off_c, 2, 59, 0
2, 2701680, Note_on_c, 2, 57, 50
2, 2701920, Note_off_c, 2, 57, 0
2, 2701920, Note_on_c, 2, 61, 50
2, 2702400, Note_off_c, 2, 61, 0
2, 2702400, Note_on_c, 2, 59, 50
2, 2703120, Note_off_c, 2, 59, 0
2, 2706240, Note_on_c, 2, 57, 50
2, 2706480, Note_off_c, 2, 57, 0
2, 2706480, Note_on_c, 2, 57, 50
2, 2706720, Note_off_c, 2, 57, 0
2, 2706720, Note_on_c, 2, 57, 50
2, 2706960, Note_off_c, 2, 57, 0
2, 2706960, Note_on_c, 2, 57, 50
2, 2707440, Note_off_c, 2, 57, 0
2, 2707440, Note_on_c, 2, 57, 50
2, 2707680, Note_off_c, 2, 57, 0
2, 2707680, Note_on_c, 2, 57, 50
2, 2707920, Note_off_c, 2, 57, 0
2, 2707920, Note_on_c, 2, 57, 50
2, 2708160, Note_off_c, 2, 57, 0
2, 2708160, Note_on_c, 2, 56, 50
2, 2708400, Note_off_c, 2, 56, 0
2, 2708400, Note_on_c, 2, 56, 50
2, 2708640, Note_off_c, 2, 56, 0
2, 2708640, Note_on_c, 2, 56, 50
2, 2709360, Note_off_c, 2, 56, 0
2, 2710080, Note_on_c, 2, 57, 50
2, 2710320, Note_off_c, 2, 57, 0
2, 2710320, Note_on_c, 2, 57, 50
2, 2710560, Note_off_c, 2, 57, 0
2, 2710560, Note_on_c, 2, 57, 50
2, 2710800, Note_off_c, 2, 57, 0
2, 2710800, Note_on_c, 2, 57, 50
2, 2711040, Note_off_c, 2, 57, 0
2, 2711040, Note_on_c, 2, 57, 50
2, 2711280, Note_off_c, 2, 57, 0
2, 2711760, Note_on_c, 2, 57, 50
2, 2712000, Note_off_c, 2, 57, 0
2, 2712000, Note_on_c, 2, 56, 50
2, 2712480, Note_off_c, 2, 56, 0
2, 2712480, Note_on_c, 2, 56, 50
2, 2712720, Note_off_c, 2, 56, 0
2, 2713920, Note_on_c, 2, 57, 50
2, 2714160, Note_off_c, 2, 57, 0
2, 2714160, Note_on_c, 2, 57, 50
2, 2714400, Note_off_c, 2, 57, 0
2, 2714400, Note_on_c, 2, 57, 50
2, 2714640, Note_off_c, 2, 57, 0
2, 2714640, Note_on_c, 2, 57, 50
2, 2714880, Note_off_c, 2, 57, 0
2, 2714880, Note_on_c, 2, 57, 50
2, 2715120, Note_off_c, 2, 57, 0
2, 2715360, Note_on_c, 2, 57, 50
2, 2715600, Note_off_c, 2, 57, 0
2, 2715600, Note_on_c, 2, 57, 50
2, 2715840, Note_off_c, 2, 57, 0
2, 2715840, Note_on_c, 2, 56, 50
2, 2716080, Note_off_c, 2, 56, 0
2, 2716080, Note_on_c, 2, 56, 50
2, 2716320, Note_off_c, 2, 56, 0
2, 2716320, Note_on_c, 2, 56, 50
2, 2717040, Note_off_c, 2, 56, 0
2, 2717280, Note_on_c, 2, 59, 50
2, 2717520, Note_off_c, 2, 59, 0
2, 2717520, Note_on_c, 2, 62, 50
2, 2717760, Note_off_c, 2, 62, 0
2, 2717760, Note_on_c, 2, 62, 50
2, 2718000, Note_off_c, 2, 62, 0
2, 2718000, Note_on_c, 2, 62, 50
2, 2718480, Note_off_c, 2, 62, 0
2, 2718480, Note_on_c, 2, 62, 50
2, 2718960, Note_off_c, 2, 62, 0
2, 2718960, Note_on_c, 2, 62, 50
2, 2719440, Note_off_c, 2, 62, 0
2, 2719440, Note_on_c, 2, 62, 50
2, 2719680, Note_off_c, 2, 62, 0
2, 2719680, Note_on_c, 2, 62, 50
2, 2720160, Note_off_c, 2, 62, 0
2, 2720160, Note_on_c, 2, 62, 50
2, 2720400, Note_off_c, 2, 62, 0
2, 2721360, Note_on_c, 2, 59, 50
2, 2721600, Note_off_c, 2, 59, 0
2, 2721600, Note_on_c, 2, 63, 50
2, 2721840, Note_off_c, 2, 63, 0
2, 2721840, Note_on_c, 2, 59, 50
2, 2722080, Note_off_c, 2, 59, 0
2, 2722080, Note_on_c, 2, 56, 50
2, 2722320, Note_off_c, 2, 56, 0
2, 2722320, Note_on_c, 2, 56, 50
2, 2722560, Note_off_c, 2, 56, 0
2, 2722560, Note_on_c, 2, 56, 50
2, 2723040, Note_off_c, 2, 56, 0
2, 2723040, Note_on_c, 2, 56, 50
2, 2723760, Note_off_c, 2, 56, 0
2, 2725200, Note_on_c, 2, 56, 50
2, 2725440, Note_off_c, 2, 56, 0
2, 2725440, Note_on_c, 2, 56, 50
2, 2725680, Note_off_c, 2, 56, 0
2, 2725680, Note_on_c, 2, 56, 50
2, 2725920, Note_off_c, 2, 56, 0
2, 2725920, Note_on_c, 2, 56, 50
2, 2726160, Note_off_c, 2, 56, 0
2, 2726160, Note_on_c, 2, 56, 50
2, 2726400, Note_off_c, 2, 56, 0
2, 2726400, Note_on_c, 2, 56, 50
2, 2726880, Note_off_c, 2, 56, 0
2, 2726880, Note_on_c, 2, 56, 50
2, 2727600, Note_off_c, 2, 56, 0
2, 2729040, Note_on_c, 2, 59, 50
2, 2729280, Note_off_c, 2, 59, 0
2, 2729280, Note_on_c, 2, 63, 50
2, 2729520, Note_off_c, 2, 63, 0
2, 2729520, Note_on_c, 2, 59, 50
2, 2729760, Note_off_c, 2, 59, 0
2, 2729760, Note_on_c, 2, 56, 50
2, 2730000, Note_off_c, 2, 56, 0
2, 2730000, Note_on_c, 2, 56, 50
2, 2730240, Note_off_c, 2, 56, 0
2, 2730240, Note_on_c, 2, 56, 50
2, 2730720, Note_off_c, 2, 56, 0
2, 2730720, Note_on_c, 2, 56, 50
2, 2731440, Note_off_c, 2, 56, 0
2, 2731680, Note_on_c, 2, 54, 50
2, 2731920, Note_off_c, 2, 54, 0
2, 2731920, Note_on_c, 2, 57, 50
2, 2732160, Note_off_c, 2, 57, 0
2, 2732160, Note_on_c, 2, 59, 50
2, 2732400, Note_off_c, 2, 59, 0
2, 2732400, Note_on_c, 2, 57, 50
2, 2732640, Note_off_c, 2, 57, 0
2, 2732640, Note_on_c, 2, 61, 50
2, 2733120, Note_off_c, 2, 61, 0
2, 2733120, Note_on_c, 2, 59, 50
2, 2733840, Note_off_c, 2, 59, 0
2, 2735040, Note_on_c, 2, 64, 50
2, 2735160, Note_off_c, 2, 64, 0
2, 2735280, Note_on_c, 2, 64, 50
2, 2735400, Note_off_c, 2, 64, 0
2, 2735520, Note_on_c, 2, 59, 50
2, 2735640, Note_off_c, 2, 59, 0
2, 2735760, Note_on_c, 2, 64, 50
2, 2735880, Note_off_c, 2, 64, 0
2, 2736000, Note_on_c, 2, 64, 50
2, 2736360, Note_off_c, 2, 64, 0
2, 2736480, Note_on_c, 2, 63, 50
2, 2737200, Note_off_c, 2, 63, 0
2, 2737200, Note_on_c, 2, 59, 50
2, 2737440, Note_off_c, 2, 59, 0
2, 2737440, Note_on_c, 2, 71, 50
2, 2737920, Note_off_c, 2, 71, 0
2, 2737920, Note_on_c, 2, 59, 50
2, 2738160, Note_off_c, 2, 59, 0
2, 2738160, Note_on_c, 2, 65, 50
2, 2738280, Note_off_c, 2, 65, 0
2, 2738280, Note_on_c, 2, 64, 50
2, 2738400, Note_off_c, 2, 64, 0
2, 2738400, Note_on_c, 2, 62, 50
2, 2738640, Note_off_c, 2, 62, 0
2, 2738640, Note_on_c, 2, 64, 50
2, 2739120, Note_off_c, 2, 64, 0
2, 2739120, Note_on_c, 2, 64, 50
2, 2739480, Note_off_c, 2, 64, 0
2, 2739480, Note_on_c, 2, 64, 50
2, 2739600, Note_off_c, 2, 64, 0
2, 2739600, Note_on_c, 2, 62, 50
2, 2739840, Note_off_c, 2, 62, 0
2, 2739840, Note_on_c, 2, 64, 50
2, 2740080, Note_off_c, 2, 64, 0
2, 2740320, Note_on_c, 2, 54, 50
2, 2740560, Note_off_c, 2, 54, 0
2, 2740560, Note_on_c, 2, 57, 50
2, 2741040, Note_off_c, 2, 57, 0
2, 2741040, Note_on_c, 2, 59, 50
2, 2741280, Note_off_c, 2, 59, 0
2, 2741280, Note_on_c, 2, 71, 50
2, 2741760, Note_off_c, 2, 71, 0
2, 2741760, Note_on_c, 2, 59, 50
2, 2742000, Note_off_c, 2, 59, 0
2, 2742000, Note_on_c, 2, 65, 50
2, 2742120, Note_off_c, 2, 65, 0
2, 2742120, Note_on_c, 2, 64, 50
2, 2742240, Note_off_c, 2, 64, 0
2, 2742240, Note_on_c, 2, 62, 50
2, 2742480, Note_off_c, 2, 62, 0
2, 2742480, Note_on_c, 2, 64, 50
2, 2742960, Note_off_c, 2, 64, 0
2, 2742960, Note_on_c, 2, 64, 50
2, 2743320, Note_off_c, 2, 64, 0
2, 2743320, Note_on_c, 2, 64, 50
2, 2743440, Note_off_c, 2, 64, 0
2, 2743440, Note_on_c, 2, 62, 50
2, 2743680, Note_off_c, 2, 62, 0
2, 2743680, Note_on_c, 2, 61, 50
2, 2743920, Note_off_c, 2, 61, 0
2, 2743920, Note_on_c, 2, 57, 50
2, 2744160, Note_off_c, 2, 57, 0
2, 2744160, Note_on_c, 2, 54, 50
2, 2744400, Note_off_c, 2, 54, 0
2, 2744400, Note_on_c, 2, 57, 50
2, 2744880, Note_off_c, 2, 57, 0
2, 2744880, Note_on_c, 2, 59, 50
2, 2745120, Note_off_c, 2, 59, 0
2, 2745120, Note_on_c, 2, 71, 50
2, 2745600, Note_off_c, 2, 71, 0
2, 2745600, Note_on_c, 2, 59, 50
2, 2745840, Note_off_c, 2, 59, 0
2, 2745840, Note_on_c, 2, 65, 50
2, 2745960, Note_off_c, 2, 65, 0
2, 2745960, Note_on_c, 2, 64, 50
2, 2746080, Note_off_c, 2, 64, 0
2, 2746080, Note_on_c, 2, 62, 50
2, 2746320, Note_off_c, 2, 62, 0
2, 2746320, Note_on_c, 2, 64, 50
2, 2746800, Note_off_c, 2, 64, 0
2, 2746800, Note_on_c, 2, 64, 50
2, 2747160, Note_off_c, 2, 64, 0
2, 2747160, Note_on_c, 2, 64, 50
2, 2747280, Note_off_c, 2, 64, 0
2, 2747280, Note_on_c, 2, 62, 50
2, 2747520, Note_off_c, 2, 62, 0
2, 2747520, Note_on_c, 2, 59, 50
2, 2748240, Note_off_c, 2, 59, 0
2, 2748240, Note_on_c, 2, 66, 50
2, 2748720, Note_off_c, 2, 66, 0
2, 2748720, Note_on_c, 2, 66, 50
2, 2748960, Note_off_c, 2, 66, 0
2, 2748960, Note_on_c, 2, 69, 50
2, 2749200, Note_off_c, 2, 69, 0
2, 2749200, Note_on_c, 2, 69, 50
2, 2749680, Note_off_c, 2, 69, 0
2, 2749680, Note_on_c, 2, 69, 50
2, 2749920, Note_off_c, 2, 69, 0
2, 2749920, Note_on_c, 2, 71, 50
2, 2750160, Note_off_c, 2, 71, 0
2, 2750160, Note_on_c, 2, 71, 50
2, 2750640, Note_off_c, 2, 71, 0
2, 2750640, Note_on_c, 2, 71, 50
2, 2750880, Note_off_c, 2, 71, 0
2, 2750880, Note_on_c, 2, 74, 50
2, 2751120, Note_off_c, 2, 74, 0
2, 2751120, Note_on_c, 2, 74, 50
2, 2751360, Note_off_c, 2, 74, 0
2, 2751360, Note_on_c, 2, 69, 50
2, 2751840, Note_off_c, 2, 69, 0
2, 2751840, Note_on_c, 2, 71, 50
2, 2752560, Note_off_c, 2, 71, 0
2, 2752560, Note_on_c, 2, 59, 50
2, 2752800, Note_off_c, 2, 59, 0
2, 2752800, Note_on_c, 2, 56, 50
2, 2753040, Note_off_c, 2, 56, 0
2, 2753040, Note_on_c, 2, 56, 50
2, 2753280, Note_off_c, 2, 56, 0
2, 2753280, Note_on_c, 2, 56, 50
2, 2753760, Note_off_c, 2, 56, 0
2, 2753760, Note_on_c, 2, 56, 50
2, 2754480, Note_off_c, 2, 56, 0
2, 2755920, Note_on_c, 2, 56, 50
2, 2756160, Note_off_c, 2, 56, 0
2, 2756160, Note_on_c, 2, 56, 50
2, 2756400, Note_off_c, 2, 56, 0
2, 2756400, Note_on_c, 2, 56, 50
2, 2756640, Note_off_c, 2, 56, 0
2, 2756640, Note_on_c, 2, 56, 50
2, 2756880, Note_off_c, 2, 56, 0
2, 2756880, Note_on_c, 2, 56, 50
2, 2757120, Note_off_c, 2, 56, 0
2, 2757120, Note_on_c, 2, 56, 50
2, 2757600, Note_off_c, 2, 56, 0
2, 2757600, Note_on_c, 2, 56, 50
2, 2758320, Note_off_c, 2, 56, 0
2, 2759760, Note_on_c, 2, 59, 50
2, 2760000, Note_off_c, 2, 59, 0
2, 2760000, Note_on_c, 2, 63, 50
2, 2760240, Note_off_c, 2, 63, 0
2, 2760240, Note_on_c, 2, 59, 50
2, 2760480, Note_off_c, 2, 59, 0
2, 2760480, Note_on_c, 2, 56, 50
2, 2760720, Note_off_c, 2, 56, 0
2, 2760720, Note_on_c, 2, 56, 50
2, 2760960, Note_off_c, 2, 56, 0
2, 2760960, Note_on_c, 2, 56, 50
2, 2761440, Note_off_c, 2, 56, 0
2, 2761440, Note_on_c, 2, 56, 50
2, 2762160, Note_off_c, 2, 56, 0
2, 2762400, Note_on_c, 2, 54, 50
2, 2762640, Note_off_c, 2, 54, 0
2, 2762640, Note_on_c, 2, 57, 50
2, 2762880, Note_off_c, 2, 57, 0
2, 2762880, Note_on_c, 2, 59, 50
2, 2763120, Note_off_c, 2, 59, 0
2, 2763120, Note_on_c, 2, 57, 50
2, 2763360, Note_off_c, 2, 57, 0
2, 2763360, Note_on_c, 2, 61, 50
2, 2763840, Note_off_c, 2, 61, 0
2, 2763840, Note_on_c, 2, 59, 50
2, 2764560, Note_off_c, 2, 59, 0
2, 2767680, Note_on_c, 2, 57, 50
2, 2767920, Note_off_c, 2, 57, 0
2, 2767920, Note_on_c, 2, 57, 50
2, 2768160, Note_off_c, 2, 57, 0
2, 2768160, Note_on_c, 2, 57, 50
2, 2768400, Note_off_c, 2, 57, 0
2, 2768400, Note_on_c, 2, 57, 50
2, 2768880, Note_off_c, 2, 57, 0
2, 2768880, Note_on_c, 2, 57, 50
2, 2769120, Note_off_c, 2, 57, 0
2, 2769120, Note_on_c, 2, 57, 50
2, 2769360, Note_off_c, 2, 57, 0
2, 2769360, Note_on_c, 2, 57, 50
2, 2769600, Note_off_c, 2, 57, 0
2, 2769600, Note_on_c, 2, 56, 50
2, 2769840, Note_off_c, 2, 56, 0
2, 2769840, Note_on_c, 2, 56, 50
2, 2770080, Note_off_c, 2, 56, 0
2, 2770080, Note_on_c, 2, 56, 50
2, 2770800, Note_off_c, 2, 56, 0
2, 2771520, Note_on_c, 2, 57, 50
2, 2771760, Note_off_c, 2, 57, 0
2, 2771760, Note_on_c, 2, 57, 50
2, 2772000, Note_off_c, 2, 57, 0
2, 2772000, Note_on_c, 2, 57, 50
2, 2772240, Note_off_c, 2, 57, 0
2, 2772240, Note_on_c, 2, 57, 50
2, 2772480, Note_off_c, 2, 57, 0
2, 2772480, Note_on_c, 2, 57, 50
2, 2772720, Note_off_c, 2, 57, 0
2, 2773200, Note_on_c, 2, 57, 50
2, 2773440, Note_off_c, 2, 57, 0
2, 2773440, Note_on_c, 2, 56, 50
2, 2773920, Note_off_c, 2, 56, 0
2, 2773920, Note_on_c, 2, 56, 50
2, 2774160, Note_off_c, 2, 56, 0
2, 2775360, Note_on_c, 2, 57, 50
2, 2775600, Note_off_c, 2, 57, 0
2, 2775600, Note_on_c, 2, 57, 50
2, 2775840, Note_off_c, 2, 57, 0
2, 2775840, Note_on_c, 2, 57, 50
2, 2776080, Note_off_c, 2, 57, 0
2, 2776080, Note_on_c, 2, 57, 50
2, 2776320, Note_off_c, 2, 57, 0
2, 2776320, Note_on_c, 2, 57, 50
2, 2776560, Note_off_c, 2, 57, 0
2, 2776800, Note_on_c, 2, 57, 50
2, 2777040, Note_off_c, 2, 57, 0
2, 2777040, Note_on_c, 2, 57, 50
2, 2777280, Note_off_c, 2, 57, 0
2, 2777280, Note_on_c, 2, 56, 50
2, 2777520, Note_off_c, 2, 56, 0
2, 2777520, Note_on_c, 2, 56, 50
2, 2777760, Note_off_c, 2, 56, 0
2, 2777760, Note_on_c, 2, 56, 50
2, 2778480, Note_off_c, 2, 56, 0
2, 2778720, Note_on_c, 2, 59, 50
2, 2778960, Note_off_c, 2, 59, 0
2, 2778960, Note_on_c, 2, 62, 50
2, 2779200, Note_off_c, 2, 62, 0
2, 2779200, Note_on_c, 2, 62, 50
2, 2779440, Note_off_c, 2, 62, 0
2, 2779440, Note_on_c, 2, 62, 50
2, 2779920, Note_off_c, 2, 62, 0
2, 2779920, Note_on_c, 2, 62, 50
2, 2780400, Note_off_c, 2, 62, 0
2, 2780400, Note_on_c, 2, 62, 50
2, 2780880, Note_off_c, 2, 62, 0
2, 2780880, Note_on_c, 2, 62, 50
2, 2781120, Note_off_c, 2, 62, 0
2, 2781120, Note_on_c, 2, 62, 50
2, 2781600, Note_off_c, 2, 62, 0
2, 2781600, Note_on_c, 2, 62, 50
2, 2781840, Note_off_c, 2, 62, 0
2, 2782800, Note_on_c, 2, 59, 50
2, 2783040, Note_off_c, 2, 59, 0
2, 2783040, Note_on_c, 2, 63, 50
2, 2783280, Note_off_c, 2, 63, 0
2, 2783280, Note_on_c, 2, 59, 50
2, 2783520, Note_off_c, 2, 59, 0
2, 2783520, Note_on_c, 2, 56, 50
2, 2783760, Note_off_c, 2, 56, 0
2, 2783760, Note_on_c, 2, 56, 50
2, 2784000, Note_off_c, 2, 56, 0
2, 2784000, Note_on_c, 2, 56, 50
2, 2784480, Note_off_c, 2, 56, 0
2, 2784480, Note_on_c, 2, 56, 50
2, 2785200, Note_off_c, 2, 56, 0
2, 2786640, Note_on_c, 2, 56, 50
2, 2786880, Note_off_c, 2, 56, 0
2, 2786880, Note_on_c, 2, 56, 50
2, 2787120, Note_off_c, 2, 56, 0
2, 2787120, Note_on_c, 2, 56, 50
2, 2787360, Note_off_c, 2, 56, 0
2, 2787360, Note_on_c, 2, 56, 50
2, 2787600, Note_off_c, 2, 56, 0
2, 2787600, Note_on_c, 2, 56, 50
2, 2787840, Note_off_c, 2, 56, 0
2, 2787840, Note_on_c, 2, 56, 50
2, 2788320, Note_off_c, 2, 56, 0
2, 2788320, Note_on_c, 2, 56, 50
2, 2789040, Note_off_c, 2, 56, 0
2, 2790480, Note_on_c, 2, 59, 50
2, 2790720, Note_off_c, 2, 59, 0
2, 2790720, Note_on_c, 2, 63, 50
2, 2790960, Note_off_c, 2, 63, 0
2, 2790960, Note_on_c, 2, 59, 50
2, 2791200, Note_off_c, 2, 59, 0
2, 2791200, Note_on_c, 2, 56, 50
2, 2791440, Note_off_c, 2, 56, 0
2, 2791440, Note_on_c, 2, 56, 50
2, 2791680, Note_off_c, 2, 56, 0
2, 2791680, Note_on_c, 2, 56, 50
2, 2792160, Note_off_c, 2, 56, 0
2, 2792160, Note_on_c, 2, 56, 50
2, 2792880, Note_off_c, 2, 56, 0
2, 2793120, Note_on_c, 2, 54, 50
2, 2793360, Note_off_c, 2, 54, 0
2, 2793360, Note_on_c, 2, 57, 50
2, 2793600, Note_off_c, 2, 57, 0
2, 2793600, Note_on_c, 2, 59, 50
2, 2793840, Note_off_c, 2, 59, 0
2, 2793840, Note_on_c, 2, 57, 50
2, 2794080, Note_off_c, 2, 57, 0
2, 2794080, Note_on_c, 2, 61, 50
2, 2794560, Note_off_c, 2, 61, 0
2, 2794560, Note_on_c, 2, 59, 50
2, 2795280, Note_off_c, 2, 59, 0
2, 2796480, Note_on_c, 2, 64, 50
2, 2796600, Note_off_c, 2, 64, 0
2, 2796720, Note_on_c, 2, 64, 50
2, 2796840, Note_off_c, 2, 64, 0
2, 2796960, Note_on_c, 2, 59, 50
2, 2797080, Note_off_c, 2, 59, 0
2, 2797200, Note_on_c, 2, 64, 50
2, 2797320, Note_off_c, 2, 64, 0
2, 2797440, Note_on_c, 2, 64, 50
2, 2797800, Note_off_c, 2, 64, 0
2, 2797920, Note_on_c, 2, 63, 50
2, 2798640, Note_off_c, 2, 63, 0
2, 2800320, Note_on_c, 2, 64, 50
2, 2800440, Note_off_c, 2, 64, 0
2, 2800560, Note_on_c, 2, 64, 50
2, 2800680, Note_off_c, 2, 64, 0
2, 2800800, Note_on_c, 2, 59, 50
2, 2800920, Note_off_c, 2, 59, 0
2, 2801040, Note_on_c, 2, 64, 50
2, 2801160, Note_off_c, 2, 64, 0
2, 2801280, Note_on_c, 2, 64, 50
2, 2801640, Note_off_c, 2, 64, 0
2, 2801760, Note_on_c, 2, 63, 50
2, 2802480, Note_off_c, 2, 63, 0
2, 2804160, Note_on_c, 2, 64, 50
2, 2804280, Note_off_c, 2, 64, 0
2, 2804400, Note_on_c, 2, 64, 50
2, 2804520, Note_off_c, 2, 64, 0
2, 2804640, Note_on_c, 2, 59, 50
2, 2804760, Note_off_c, 2, 59, 0
2, 2804880, Note_on_c, 2, 64, 50
2, 2805000, Note_off_c, 2, 64, 0
2, 2805120, Note_on_c, 2, 64, 50
2, 2805480, Note_off_c, 2, 64, 0
2, 2805600, Note_on_c, 2, 63, 50
2, 2806320, Note_off_c, 2, 63, 0
2, 2806320, Note_on_c, 2, 71, 50
2, 2806800, Note_off_c, 2, 71, 0
2, 2806800, Note_on_c, 2, 71, 50
2, 2807280, Note_off_c, 2, 71, 0
2, 2807280, Note_on_c, 2, 71, 50
2, 2807760, Note_off_c, 2, 71, 0
2, 2807760, Note_on_c, 2, 71, 50
2, 2808480, Note_off_c, 2, 71, 0
2, 2808480, Note_on_c, 2, 59, 50
2, 2808600, Note_off_c, 2, 59, 0
2, 2808720, Note_on_c, 2, 64, 50
2, 2808840, Note_off_c, 2, 64, 0
2, 2808960, Note_on_c, 2, 64, 50
2, 2809320, Note_off_c, 2, 64, 0
2, 2809440, Note_on_c, 2, 63, 50
2, 2810160, Note_off_c, 2, 63, 0
2, 2810160, Note_on_c, 2, 71, 50
2, 2810640, Note_off_c, 2, 71, 0
2, 2810640, Note_on_c, 2, 71, 50
2, 2811120, Note_off_c, 2, 71, 0
2, 2811120, Note_on_c, 2, 71, 50
2, 2811600, Note_off_c, 2, 71, 0
2, 2811600, Note_on_c, 2, 71, 50
2, 2812320, Note_off_c, 2, 71, 0
2, 2812320, Note_on_c, 2, 59, 50
2, 2812440, Note_off_c, 2, 59, 0
2, 2812560, Note_on_c, 2, 64, 50
2, 2812680, Note_off_c, 2, 64, 0
2, 2812800, Note_on_c, 2, 64, 50
2, 2813160, Note_off_c, 2, 64, 0
2, 2813280, Note_on_c, 2, 63, 50
2, 2814000, Note_off_c, 2, 63, 0
2, 2814000, Note_on_c, 2, 71, 50
2, 2814480, Note_off_c, 2, 71, 0
2, 2814480, Note_on_c, 2, 71, 50
2, 2814960, Note_off_c, 2, 71, 0
2, 2814960, Note_on_c, 2, 71, 50
2, 2815440, Note_off_c, 2, 71, 0
2, 2815440, Note_on_c, 2, 71, 50
2, 2816160, Note_off_c, 2, 71, 0
2, 2816160, Note_on_c, 2, 59, 50
2, 2816280, Note_off_c, 2, 59, 0
2, 2816400, Note_on_c, 2, 64, 50
2, 2816520, Note_off_c, 2, 64, 0
2, 2816640, Note_on_c, 2, 64, 50
2, 2817000, Note_off_c, 2, 64, 0
2, 2817120, Note_on_c, 2, 63, 50
2, 2817840, Note_off_c, 2, 63, 0
2, 2817840, Note_on_c, 2, 71, 50
2, 2818320, Note_off_c, 2, 71, 0
2, 2818320, Note_on_c, 2, 71, 50
2, 2818800, Note_off_c, 2, 71, 0
2, 2818800, Note_on_c, 2, 71, 50
2, 2819280, Note_off_c, 2, 71, 0
2, 2819280, Note_on_c, 2, 71, 50
2, 2820000, Note_off_c, 2, 71, 0
2, 2820000, Note_on_c, 2, 59, 50
2, 2820120, Note_off_c, 2, 59, 0
2, 2820240, Note_on_c, 2, 64, 50
2, 2820360, Note_off_c, 2, 64, 0
2, 2820480, Note_on_c, 2, 64, 50
2, 2820840, Note_off_c, 2, 64, 0
2, 2820960, Note_on_c, 2, 63, 50
2, 2821680, Note_off_c, 2, 63, 0
2, 2821680, Note_on_c, 2, 71, 50
2, 2822160, Note_off_c, 2, 71, 0
2, 2822160, Note_on_c, 2, 71, 50
2, 2822640, Note_off_c, 2, 71, 0
2, 2822640, Note_on_c, 2, 71, 50
2, 2823120, Note_off_c, 2, 71, 0
2, 2823120, Note_on_c, 2, 71, 50
2, 2823840, Note_off_c, 2, 71, 0
2, 2823840, Note_on_c, 2, 59, 50
2, 2823960, Note_off_c, 2, 59, 0
2, 2824080, Note_on_c, 2, 64, 50
2, 2824200, Note_off_c, 2, 64, 0
2, 2824320, Note_on_c, 2, 64, 50
2, 2824680, Note_off_c, 2, 64, 0
2, 2824800, Note_on_c, 2, 63, 50
2, 2825520, Note_off_c, 2, 63, 0
2, 2825520, Note_on_c, 2, 71, 50
2, 2826000, Note_off_c, 2, 71, 0
2, 2826000, Note_on_c, 2, 71, 50
2, 2826480, Note_off_c, 2, 71, 0
2, 2826480, Note_on_c, 2, 71, 50
2, 2826960, Note_off_c, 2, 71, 0
2, 2826960, Note_on_c, 2, 71, 50
2, 2827680, Note_off_c, 2, 71, 0
2, 2827680, Note_on_c, 2, 59, 50
2, 2827800, Note_off_c, 2, 59, 0
2, 2827920, Note_on_c, 2, 64, 50
2, 2828040, Note_off_c, 2, 64, 0
2, 2828160, Note_on_c, 2, 64, 50
2, 2828520, Note_off_c, 2, 64, 0
2, 2828640, Note_on_c, 2, 63, 50
2, 2829360, Note_off_c, 2, 63, 0
2, 2829360, Note_on_c, 2, 71, 50
2, 2829840, Note_off_c, 2, 71, 0
2, 2829840, Note_on_c, 2, 71, 50
2, 2830320, Note_off_c, 2, 71, 0
2, 2830320, Note_on_c, 2, 71, 50
2, 2830800, Note_off_c, 2, 71, 0
2, 2830800, Note_on_c, 2, 71, 50
2, 2831520, Note_off_c, 2, 71, 0
2, 2831520, Note_on_c, 2, 59, 50
2, 2831640, Note_off_c, 2, 59, 0
2, 2831760, Note_on_c, 2, 64, 50
2, 2831880, Note_off_c, 2, 64, 0
2, 2832000, Note_on_c, 2, 64, 50
2, 2832360, Note_off_c, 2, 64, 0
2, 2832480, Note_on_c, 2, 63, 50
2, 2833200, Note_off_c, 2, 63, 0
2, 2833200, Note_on_c, 2, 71, 50
2, 2833680, Note_off_c, 2, 71, 0
2, 2833680, Note_on_c, 2, 71, 50
2, 2834160, Note_off_c, 2, 71, 0
2, 2834160, Note_on_c, 2, 71, 50
2, 2834640, Note_off_c, 2, 71, 0
2, 2834640, Note_on_c, 2, 71, 50
2, 2835360, Note_off_c, 2, 71, 0
2, 2835360, Note_on_c, 2, 59, 50
2, 2835480, Note_off_c, 2, 59, 0
2, 2835600, Note_on_c, 2, 64, 50
2, 2835720, Note_off_c, 2, 64, 0
2, 2835840, Note_on_c, 2, 64, 50
2, 2836200, Note_off_c, 2, 64, 0
2, 2836320, Note_on_c, 2, 63, 50
2, 2837040, Note_off_c, 2, 63, 0
2, 2837040, Note_on_c, 2, 71, 50
2, 2837520, Note_off_c, 2, 71, 0
2, 2837520, Note_on_c, 2, 71, 50
2, 2838000, Note_off_c, 2, 71, 0
2, 2838000, Note_on_c, 2, 71, 50
2, 2838480, Note_off_c, 2, 71, 0
2, 2838480, Note_on_c, 2, 71, 50
2, 2839200, Note_off_c, 2, 71, 0
2, 2839200, Note_on_c, 2, 59, 50
2, 2839320, Note_off_c, 2, 59, 0
2, 2839440, Note_on_c, 2, 64, 50
2, 2839560, Note_off_c, 2, 64, 0
2, 2839680, Note_on_c, 2, 64, 50
2, 2840040, Note_off_c, 2, 64, 0
2, 2840160, Note_on_c, 2, 63, 50
2, 2840880, Note_off_c, 2, 63, 0
2, 2840880, Note_on_c, 2, 71, 50
2, 2841360, Note_off_c, 2, 71, 0
2, 2841360, Note_on_c, 2, 71, 50
2, 2841840, Note_off_c, 2, 71, 0
2, 2841840, Note_on_c, 2, 71, 50
2, 2842320, Note_off_c, 2, 71, 0
2, 2842320, Note_on_c, 2, 71, 50
2, 2843040, Note_off_c, 2, 71, 0
2, 2843040, Note_on_c, 2, 59, 50
2, 2843160, Note_off_c, 2, 59, 0
2, 2843280, Note_on_c, 2, 64, 50
2, 2843400, Note_off_c, 2, 64, 0
2, 2843520, Note_on_c, 2, 64, 50
2, 2843880, Note_off_c, 2, 64, 0
2, 2844000, Note_on_c, 2, 63, 50
2, 2844720, Note_off_c, 2, 63, 0
2, 2857680, Note_on_c, 2, 64, 50
2, 2858160, Note_off_c, 2, 64, 0
2, 2858160, Note_on_c, 2, 62, 50
2, 2858640, Note_off_c, 2, 62, 0
2, 2858640, Note_on_c, 2, 60, 50
2, 2859120, Note_off_c, 2, 60, 0
2, 2859120, Note_on_c, 2, 62, 50
2, 2859600, Note_off_c, 2, 62, 0
2, 2859600, Note_on_c, 2, 62, 50
2, 2860440, Note_off_c, 2, 62, 0
2, 2860440, Note_on_c, 2, 57, 50
2, 2861040, Note_off_c, 2, 57, 0
2, 2861520, Note_on_c, 2, 57, 50
2, 2862000, Note_off_c, 2, 57, 0
2, 2862000, Note_on_c, 2, 60, 50
2, 2862480, Note_off_c, 2, 60, 0
2, 2862480, Note_on_c, 2, 65, 50
2, 2862960, Note_off_c, 2, 65, 0
2, 2862960, Note_on_c, 2, 65, 50
2, 2863320, Note_off_c, 2, 65, 0
2, 2863320, Note_on_c, 2, 64, 50
2, 2863920, Note_off_c, 2, 64, 0
2, 2865360, Note_on_c, 2, 64, 50
2, 2865840, Note_off_c, 2, 64, 0
2, 2865840, Note_on_c, 2, 62, 50
2, 2866320, Note_off_c, 2, 62, 0
2, 2866320, Note_on_c, 2, 60, 50
2, 2866800, Note_off_c, 2, 60, 0
2, 2866800, Note_on_c, 2, 62, 50
2, 2867280, Note_off_c, 2, 62, 0
2, 2867280, Note_on_c, 2, 62, 50
2, 2868120, Note_off_c, 2, 62, 0
2, 2868120, Note_on_c, 2, 57, 50
2, 2868720, Note_off_c, 2, 57, 0
2, 2869200, Note_on_c, 2, 57, 50
2, 2869680, Note_off_c, 2, 57, 0
2, 2869680, Note_on_c, 2, 60, 50
2, 2870160, Note_off_c, 2, 60, 0
2, 2870160, Note_on_c, 2, 65, 50
2, 2870640, Note_off_c, 2, 65, 0
2, 2870640, Note_on_c, 2, 65, 50
2, 2871000, Note_off_c, 2, 65, 0
2, 2871000, Note_on_c, 2, 64, 50
2, 2871600, Note_off_c, 2, 64, 0
2, 2873040, Note_on_c, 2, 64, 50
2, 2873880, Note_off_c, 2, 64, 0
2, 2873880, Note_on_c, 2, 60, 50
2, 2874480, Note_off_c, 2, 60, 0
2, 2874960, Note_on_c, 2, 62, 50
2, 2875800, Note_off_c, 2, 62, 0
2, 2875800, Note_on_c, 2, 57, 50
2, 2876400, Note_off_c, 2, 57, 0
2, 2876880, Note_on_c, 2, 64, 50
2, 2877720, Note_off_c, 2, 64, 0
2, 2877720, Note_on_c, 2, 60, 50
2, 2878320, Note_off_c, 2, 60, 0
2, 2878800, Note_on_c, 2, 62, 50
2, 2879640, Note_off_c, 2, 62, 0
2, 2879640, Note_on_c, 2, 57, 50
2, 2880240, Note_off_c, 2, 57, 0
2, 2880600, Note_on_c, 2, 62, 50
2, 2880720, Note_off_c, 2, 62, 0
2, 2880720, Note_on_c, 2, 64, 50
2, 2881200, Note_off_c, 2, 64, 0
2, 2881200, Note_on_c, 2, 62, 50
2, 2881680, Note_off_c, 2, 62, 0
2, 2881680, Note_on_c, 2, 60, 50
2, 2882040, Note_off_c, 2, 60, 0
2, 2882040, Note_on_c, 2, 60, 50
2, 2882160, Note_off_c, 2, 60, 0
2, 2882160, Note_on_c, 2, 62, 50
2, 2882640, Note_off_c, 2, 62, 0
2, 2882640, Note_on_c, 2, 62, 50
2, 2883480, Note_off_c, 2, 62, 0
2, 2883480, Note_on_c, 2, 57, 50
2, 2884080, Note_off_c, 2, 57, 0
2, 2885040, Note_on_c, 2, 65, 50
2, 2885520, Note_off_c, 2, 65, 0
2, 2885520, Note_on_c, 2, 65, 50
2, 2886000, Note_off_c, 2, 65, 0
2, 2886000, Note_on_c, 2, 65, 50
2, 2886360, Note_off_c, 2, 65, 0
2, 2886360, Note_on_c, 2, 64, 50
2, 2886840, Note_off_c, 2, 64, 0
2, 2886840, Note_on_c, 2, 62, 50
2, 2886960, Note_off_c, 2, 62, 0
2, 2886960, Note_on_c, 2, 60, 50
2, 2887440, Note_off_c, 2, 60, 0
2, 2888400, Note_on_c, 2, 64, 50
2, 2888880, Note_off_c, 2, 64, 0
2, 2888880, Note_on_c, 2, 62, 50
2, 2889360, Note_off_c, 2, 62, 0
2, 2889360, Note_on_c, 2, 60, 50
2, 2889840, Note_off_c, 2, 60, 0
2, 2889840, Note_on_c, 2, 62, 50
2, 2890320, Note_off_c, 2, 62, 0
2, 2890320, Note_on_c, 2, 62, 50
2, 2891160, Note_off_c, 2, 62, 0
2, 2891160, Note_on_c, 2, 57, 50
2, 2891760, Note_off_c, 2, 57, 0
2, 2892240, Note_on_c, 2, 57, 50
2, 2892720, Note_off_c, 2, 57, 0
2, 2892720, Note_on_c, 2, 60, 50
2, 2893200, Note_off_c, 2, 60, 0
2, 2893200, Note_on_c, 2, 65, 50
2, 2893680, Note_off_c, 2, 65, 0
2, 2893680, Note_on_c, 2, 65, 50
2, 2894040, Note_off_c, 2, 65, 0
2, 2894040, Note_on_c, 2, 64, 50
2, 2894640, Note_off_c, 2, 64, 0
2, 2896080, Note_on_c, 2, 64, 50
2, 2896560, Note_off_c, 2, 64, 0
2, 2896560, Note_on_c, 2, 62, 50
2, 2897040, Note_off_c, 2, 62, 0
2, 2897040, Note_on_c, 2, 60, 50
2, 2897520, Note_off_c, 2, 60, 0
2, 2897520, Note_on_c, 2, 62, 50
2, 2898000, Note_off_c, 2, 62, 0
2, 2898000, Note_on_c, 2, 62, 50
2, 2898840, Note_off_c, 2, 62, 0
2, 2898840, Note_on_c, 2, 57, 50
2, 2899440, Note_off_c, 2, 57, 0
2, 2899920, Note_on_c, 2, 57, 50
2, 2900400, Note_off_c, 2, 57, 0
2, 2900400, Note_on_c, 2, 60, 50
2, 2900880, Note_off_c, 2, 60, 0
2, 2900880, Note_on_c, 2, 65, 50
2, 2901360, Note_off_c, 2, 65, 0
2, 2901360, Note_on_c, 2, 65, 50
2, 2901720, Note_off_c, 2, 65, 0
2, 2901720, Note_on_c, 2, 64, 50
2, 2902320, Note_off_c, 2, 64, 0
2, 2903760, Note_on_c, 2, 67, 50
2, 2904600, Note_off_c, 2, 67, 0
2, 2904600, Note_on_c, 2, 64, 50
2, 2905200, Note_off_c, 2, 64, 0
2, 2905680, Note_on_c, 2, 65, 50
2, 2906520, Note_off_c, 2, 65, 0
2, 2906520, Note_on_c, 2, 60, 50
2, 2907120, Note_off_c, 2, 60, 0
2, 2907600, Note_on_c, 2, 67, 50
2, 2908440, Note_off_c, 2, 67, 0
2, 2908440, Note_on_c, 2, 64, 50
2, 2909040, Note_off_c, 2, 64, 0
2, 2909520, Note_on_c, 2, 66, 50
2, 2910360, Note_off_c, 2, 66, 0
2, 2910360, Note_on_c, 2, 62, 50
2, 2910960, Note_off_c, 2, 62, 0
2, 2911320, Note_on_c, 2, 62, 50
2, 2911440, Note_off_c, 2, 62, 0
2, 2911440, Note_on_c, 2, 64, 50
2, 2911920, Note_off_c, 2, 64, 0
2, 2911920, Note_on_c, 2, 62, 50
2, 2912400, Note_off_c, 2, 62, 0
2, 2912400, Note_on_c, 2, 60, 50
2, 2912760, Note_off_c, 2, 60, 0
2, 2912760, Note_on_c, 2, 60, 50
2, 2912880, Note_off_c, 2, 60, 0
2, 2912880, Note_on_c, 2, 62, 50
2, 2913360, Note_off_c, 2, 62, 0
2, 2913360, Note_on_c, 2, 62, 50
2, 2914200, Note_off_c, 2, 62, 0
2, 2914200, Note_on_c, 2, 57, 50
2, 2914800, Note_off_c, 2, 57, 0
2, 2915760, Note_on_c, 2, 65, 50
2, 2916240, Note_off_c, 2, 65, 0
2, 2916240, Note_on_c, 2, 65, 50
2, 2916720, Note_off_c, 2, 65, 0
2, 2916720, Note_on_c, 2, 65, 50
2, 2917080, Note_off_c, 2, 65, 0
2, 2917080, Note_on_c, 2, 64, 50
2, 2917560, Note_off_c, 2, 64, 0
2, 2917560, Note_on_c, 2, 62, 50
2, 2917680, Note_off_c, 2, 62, 0
2, 2917680, Note_on_c, 2, 60, 50
2, 2918160, Note_off_c, 2, 60, 0
2, 2919120, Note_on_c, 2, 62, 50
2, 2920080, Note_off_c, 2, 62, 0
2, 2920080, Note_on_c, 2, 62, 50
2, 2920920, Note_off_c, 2, 62, 0
2, 2920920, Note_on_c, 2, 64, 50
2, 2921040, Note_off_c, 2, 64, 0
2, 2921040, Note_on_c, 2, 62, 50
2, 2922000, Note_off_c, 2, 62, 0
2, 2922840, Note_on_c, 2, 60, 50
2, 2922960, Note_off_c, 2, 60, 0
2, 2922960, Note_on_c, 2, 62, 50
2, 2923440, Note_off_c, 2, 62, 0
2, 2923440, Note_on_c, 2, 60, 50
2, 2923920, Note_off_c, 2, 60, 0
2, 2923920, Note_on_c, 2, 62, 50
2, 2924400, Note_off_c, 2, 62, 0
2, 2924400, Note_on_c, 2, 60, 50
2, 2924880, Note_off_c, 2, 60, 0
2, 2924880, Note_on_c, 2, 62, 50
2, 2925000, Note_off_c, 2, 62, 0
2, 2925000, Note_on_c, 2, 60, 50
2, 2925120, Note_off_c, 2, 60, 0
2, 2925240, Note_on_c, 2, 57, 50
2, 2925840, Note_off_c, 2, 57, 0
2, 2926800, Note_on_c, 2, 59, 50
2, 2927760, Note_off_c, 2, 59, 0
2, 2927760, Note_on_c, 2, 59, 50
2, 2928600, Note_off_c, 2, 59, 0
2, 2928600, Note_on_c, 2, 61, 50
2, 2928720, Note_off_c, 2, 61, 0
2, 2928720, Note_on_c, 2, 59, 50
2, 2929680, Note_off_c, 2, 59, 0
2, 2930520, Note_on_c, 2, 57, 50
2, 2930640, Note_off_c, 2, 57, 0
2, 2930640, Note_on_c, 2, 59, 50
2, 2931000, Note_off_c, 2, 59, 0
2, 2931000, Note_on_c, 2, 57, 50
2, 2931480, Note_off_c, 2, 57, 0
2, 2931480, Note_on_c, 2, 59, 50
2, 2931960, Note_off_c, 2, 59, 0
2, 2931960, Note_on_c, 2, 57, 50
2, 2932560, Note_off_c, 2, 57, 0
2, 2932560, Note_on_c, 2, 59, 50
2, 2932920, Note_off_c, 2, 59, 0
2, 2932920, Note_on_c, 2, 59, 50
2, 2933400, Note_off_c, 2, 59, 0
2, 2933400, Note_on_c, 2, 62, 50
2, 2934480, Note_off_c, 2, 62, 0
2, 2934480, Note_on_c, 2, 61, 50
2, 2934960, Note_off_c, 2, 61, 0
2, 2934960, Note_on_c, 2, 59, 50
2, 2935440, Note_off_c, 2, 59, 0
2, 2935440, Note_on_c, 2, 57, 50
2, 2935920, Note_off_c, 2, 57, 0
2, 2935920, Note_on_c, 2, 59, 50
2, 2936400, Note_off_c, 2, 59, 0
2, 2936400, Note_on_c, 2, 59, 50
2, 2937240, Note_off_c, 2, 59, 0
2, 2937240, Note_on_c, 2, 54, 50
2, 2937840, Note_off_c, 2, 54, 0
2, 2938320, Note_on_c, 2, 54, 50
2, 2938800, Note_off_c, 2, 54, 0
2, 2938800, Note_on_c, 2, 57, 50
2, 2939280, Note_off_c, 2, 57, 0
2, 2939280, Note_on_c, 2, 62, 50
2, 2939760, Note_off_c, 2, 62, 0
2, 2939760, Note_on_c, 2, 62, 50
2, 2940120, Note_off_c, 2, 62, 0
2, 2940120, Note_on_c, 2, 61, 50
2, 2940720, Note_off_c, 2, 61, 0
2, 2942160, Note_on_c, 2, 61, 50
2, 2942640, Note_off_c, 2, 61, 0
2, 2942640, Note_on_c, 2, 59, 50
2, 2943120, Note_off_c, 2, 59, 0
2, 2943120, Note_on_c, 2, 57, 50
2, 2943600, Note_off_c, 2, 57, 0
2, 2943600, Note_on_c, 2, 59, 50
2, 2944080, Note_off_c, 2, 59, 0
2, 2944080, Note_on_c, 2, 59, 50
2, 2944920, Note_off_c, 2, 59, 0
2, 2944920, Note_on_c, 2, 54, 50
2, 2945520, Note_off_c, 2, 54, 0
2, 2946000, Note_on_c, 2, 54, 50
2, 2946480, Note_off_c, 2, 54, 0
2, 2946480, Note_on_c, 2, 57, 50
2, 2946960, Note_off_c, 2, 57, 0
2, 2946960, Note_on_c, 2, 62, 50
2, 2947440, Note_off_c, 2, 62, 0
2, 2947440, Note_on_c, 2, 62, 50
2, 2947800, Note_off_c, 2, 62, 0
2, 2947800, Note_on_c, 2, 61, 50
2, 2948400, Note_off_c, 2, 61, 0
2, 2949840, Note_on_c, 2, 61, 50
2, 2950680, Note_off_c, 2, 61, 0
2, 2950680, Note_on_c, 2, 57, 50
2, 2951280, Note_off_c, 2, 57, 0
2, 2951760, Note_on_c, 2, 59, 50
2, 2952600, Note_off_c, 2, 59, 0
2, 2952600, Note_on_c, 2, 54, 50
2, 2953200, Note_off_c, 2, 54, 0
2, 2953680, Note_on_c, 2, 61, 50
2, 2954520, Note_off_c, 2, 61, 0
2, 2954520, Note_on_c, 2, 57, 50
2, 2955120, Note_off_c, 2, 57, 0
2, 2955600, Note_on_c, 2, 59, 50
2, 2956440, Note_off_c, 2, 59, 0
2, 2956440, Note_on_c, 2, 54, 50
2, 2957040, Note_off_c, 2, 54, 0
2, 2957400, Note_on_c, 2, 59, 50
2, 2957520, Note_off_c, 2, 59, 0
2, 2957520, Note_on_c, 2, 61, 50
2, 2958000, Note_off_c, 2, 61, 0
2, 2958000, Note_on_c, 2, 59, 50
2, 2958480, Note_off_c, 2, 59, 0
2, 2958480, Note_on_c, 2, 57, 50
2, 2958840, Note_off_c, 2, 57, 0
2, 2958840, Note_on_c, 2, 57, 50
2, 2958960, Note_off_c, 2, 57, 0
2, 2958960, Note_on_c, 2, 59, 50
2, 2959440, Note_off_c, 2, 59, 0
2, 2959440, Note_on_c, 2, 59, 50
2, 2960280, Note_off_c, 2, 59, 0
2, 2960280, Note_on_c, 2, 54, 50
2, 2960880, Note_off_c, 2, 54, 0
2, 2961840, Note_on_c, 2, 62, 50
2, 2962320, Note_off_c, 2, 62, 0
2, 2962320, Note_on_c, 2, 62, 50
2, 2962800, Note_off_c, 2, 62, 0
2, 2962800, Note_on_c, 2, 62, 50
2, 2963160, Note_off_c, 2, 62, 0
2, 2963160, Note_on_c, 2, 61, 50
2, 2963640, Note_off_c, 2, 61, 0
2, 2963640, Note_on_c, 2, 59, 50
2, 2963760, Note_off_c, 2, 59, 0
2, 2963760, Note_on_c, 2, 57, 50
2, 2964240, Note_off_c, 2, 57, 0
2, 2965200, Note_on_c, 2, 59, 50
2, 2966160, Note_off_c, 2, 59, 0
2, 2966160, Note_on_c, 2, 59, 50
2, 2967000, Note_off_c, 2, 59, 0
2, 2967000, Note_on_c, 2, 61, 50
2, 2967120, Note_off_c, 2, 61, 0
2, 2967120, Note_on_c, 2, 59, 50
2, 2968080, Note_off_c, 2, 59, 0
2, 2968920, Note_on_c, 2, 57, 50
2, 2969040, Note_off_c, 2, 57, 0
2, 2969040, Note_on_c, 2, 59, 50
2, 2969520, Note_off_c, 2, 59, 0
2, 2969520, Note_on_c, 2, 57, 50
2, 2970000, Note_off_c, 2, 57, 0
2, 2970000, Note_on_c, 2, 59, 50
2, 2970480, Note_off_c, 2, 59, 0
2, 2970480, Note_on_c, 2, 57, 50
2, 2970960, Note_off_c, 2, 57, 0
2, 2970960, Note_on_c, 2, 59, 50
2, 2971080, Note_off_c, 2, 59, 0
2, 2971080, Note_on_c, 2, 57, 50
2, 2971200, Note_off_c, 2, 57, 0
2, 2971320, Note_on_c, 2, 54, 50
2, 2971920, Note_off_c, 2, 54, 0
2, 2972880, Note_on_c, 2, 59, 50
2, 2973840, Note_off_c, 2, 59, 0
2, 2973840, Note_on_c, 2, 59, 50
2, 2974680, Note_off_c, 2, 59, 0
2, 2974680, Note_on_c, 2, 61, 50
2, 2974800, Note_off_c, 2, 61, 0
2, 2974800, Note_on_c, 2, 59, 50
2, 2975760, Note_off_c, 2, 59, 0
2, 2976600, Note_on_c, 2, 57, 50
2, 2976720, Note_off_c, 2, 57, 0
2, 2976720, Note_on_c, 2, 59, 50
2, 2977080, Note_off_c, 2, 59, 0
2, 2977080, Note_on_c, 2, 57, 50
2, 2977560, Note_off_c, 2, 57, 0
2, 2977560, Note_on_c, 2, 59, 50
2, 2978040, Note_off_c, 2, 59, 0
2, 2978040, Note_on_c, 2, 57, 50
2, 2978640, Note_off_c, 2, 57, 0
2, 2978640, Note_on_c, 2, 59, 50
2, 2979000, Note_off_c, 2, 59, 0
2, 2979000, Note_on_c, 2, 59, 50
2, 2979480, Note_off_c, 2, 59, 0
2, 2979480, Note_on_c, 2, 62, 50
2, 2980560, Note_off_c, 2, 62, 0
2, 2980560, Note_on_c, 2, 61, 50
2, 2981040, Note_off_c, 2, 61, 0
2, 2981040, Note_on_c, 2, 59, 50
2, 2981520, Note_off_c, 2, 59, 0
2, 2981520, Note_on_c, 2, 57, 50
2, 2982000, Note_off_c, 2, 57, 0
2, 2982000, Note_on_c, 2, 59, 50
2, 2982480, Note_off_c, 2, 59, 0
2, 2982480, Note_on_c, 2, 59, 50
2, 2983320, Note_off_c, 2, 59, 0
2, 2983320, Note_on_c, 2, 54, 50
2, 2983920, Note_off_c, 2, 54, 0
2, 2984400, Note_on_c, 2, 54, 50
2, 2984880, Note_off_c, 2, 54, 0
2, 2984880, Note_on_c, 2, 57, 50
2, 2985360, Note_off_c, 2, 57, 0
2, 2985360, Note_on_c, 2, 62, 50
2, 2985840, Note_off_c, 2, 62, 0
2, 2985840, Note_on_c, 2, 62, 50
2, 2986200, Note_off_c, 2, 62, 0
2, 2986200, Note_on_c, 2, 61, 50
2, 2986800, Note_off_c, 2, 61, 0
2, 2988240, Note_on_c, 2, 61, 50
2, 2988720, Note_off_c, 2, 61, 0
2, 2988720, Note_on_c, 2, 59, 50
2, 2989200, Note_off_c, 2, 59, 0
2, 2989200, Note_on_c, 2, 57, 50
2, 2989680, Note_off_c, 2, 57, 0
2, 2989680, Note_on_c, 2, 59, 50
2, 2990160, Note_off_c, 2, 59, 0
2, 2990160, Note_on_c, 2, 59, 50
2, 2991000, Note_off_c, 2, 59, 0
2, 2991000, Note_on_c, 2, 54, 50
2, 2991600, Note_off_c, 2, 54, 0
2, 2992080, Note_on_c, 2, 54, 50
2, 2992560, Note_off_c, 2, 54, 0
2, 2992560, Note_on_c, 2, 57, 50
2, 2993040, Note_off_c, 2, 57, 0
2, 2993040, Note_on_c, 2, 62, 50
2, 2993520, Note_off_c, 2, 62, 0
2, 2993520, Note_on_c, 2, 62, 50
2, 2993880, Note_off_c, 2, 62, 0
2, 2993880, Note_on_c, 2, 61, 50
2, 2994480, Note_off_c, 2, 61, 0
2, 2995920, Note_on_c, 2, 64, 50
2, 2996760, Note_off_c, 2, 64, 0
2, 2996760, Note_on_c, 2, 61, 50
2, 2997360, Note_off_c, 2, 61, 0
2, 2997840, Note_on_c, 2, 62, 50
2, 2998680, Note_off_c, 2, 62, 0
2, 2998680, Note_on_c, 2, 57, 50
2, 2999280, Note_off_c, 2, 57, 0
2, 2999760, Note_on_c, 2, 64, 50
2, 3000600, Note_off_c, 2, 64, 0
2, 3000600, Note_on_c, 2, 61, 50
2, 3001200, Note_off_c, 2, 61, 0
2, 3001680, Note_on_c, 2, 63, 50
2, 3002520, Note_off_c, 2, 63, 0
2, 3002520, Note_on_c, 2, 59, 50
2, 3003120, Note_off_c, 2, 59, 0
2, 3003480, Note_on_c, 2, 59, 50
2, 3003600, Note_off_c, 2, 59, 0
2, 3003600, Note_on_c, 2, 61, 50
2, 3004080, Note_off_c, 2, 61, 0
2, 3004080, Note_on_c, 2, 59, 50
2, 3004560, Note_off_c, 2, 59, 0
2, 3004560, Note_on_c, 2, 57, 50
2, 3004920, Note_off_c, 2, 57, 0
2, 3004920, Note_on_c, 2, 57, 50
2, 3005040, Note_off_c, 2, 57, 0
2, 3005040, Note_on_c, 2, 59, 50
2, 3005520, Note_off_c, 2, 59, 0
2, 3005520, Note_on_c, 2, 59, 50
2, 3006360, Note_off_c, 2, 59, 0
2, 3006360, Note_on_c, 2, 54, 50
2, 3006960, Note_off_c, 2, 54, 0
2, 3007920, Note_on_c, 2, 62, 50
2, 3008400, Note_off_c, 2, 62, 0
2, 3008400, Note_on_c, 2, 62, 50
2, 3008880, Note_off_c, 2, 62, 0
2, 3008880, Note_on_c, 2, 62, 50
2, 3009240, Note_off_c, 2, 62, 0
2, 3009240, Note_on_c, 2, 61, 50
2, 3009720, Note_off_c, 2, 61, 0
2, 3009720, Note_on_c, 2, 59, 50
2, 3009840, Note_off_c, 2, 59, 0
2, 3009840, Note_on_c, 2, 57, 50
2, 3010320, Note_off_c, 2, 57, 0
2, 3011760, Note_on_c, 2, 62, 50
2, 3012240, Note_off_c, 2, 62, 0
2, 3012240, Note_on_c, 2, 62, 50
2, 3012720, Note_off_c, 2, 62, 0
2, 3012720, Note_on_c, 2, 62, 50
2, 3013080, Note_off_c, 2, 62, 0
2, 3013080, Note_on_c, 2, 61, 50
2, 3013560, Note_off_c, 2, 61, 0
2, 3013560, Note_on_c, 2, 59, 50
2, 3013680, Note_off_c, 2, 59, 0
2, 3013680, Note_on_c, 2, 57, 50
2, 3014160, Note_off_c, 2, 57, 0
2, 3015600, Note_on_c, 2, 62, 50
2, 3016080, Note_off_c, 2, 62, 0
2, 3016080, Note_on_c, 2, 62, 50
2, 3016560, Note_off_c, 2, 62, 0
2, 3016560, Note_on_c, 2, 62, 50
2, 3016920, Note_off_c, 2, 62, 0
2, 3016920, Note_on_c, 2, 61, 50
2, 3017400, Note_off_c, 2, 61, 0
2, 3017400, Note_on_c, 2, 59, 50
2, 3017520, Note_off_c, 2, 59, 0
2, 3017520, Note_on_c, 2, 57, 50
2, 3018000, Note_off_c, 2, 57, 0
2, 3032880, Note_on_c, 2, 73, 50
2, 3033120, Note_off_c, 2, 73, 0
2, 3033120, Note_on_c, 2, 74, 50
2, 3033360, Note_off_c, 2, 74, 0
2, 3033360, Note_on_c, 2, 73, 50
2, 3033600, Note_off_c, 2, 73, 0
2, 3033600, Note_on_c, 2, 71, 50
2, 3034080, Note_off_c, 2, 71, 0
2, 3034080, Note_on_c, 2, 69, 50
2, 3034320, Note_off_c, 2, 69, 0
2, 3034320, Note_on_c, 2, 69, 50
2, 3034800, Note_off_c, 2, 69, 0
2, 3034800, Note_on_c, 2, 71, 50
2, 3035640, Note_off_c, 2, 71, 0
2, 3036840, Note_on_c, 2, 73, 50
2, 3037080, Note_off_c, 2, 73, 0
2, 3037080, Note_on_c, 2, 74, 50
2, 3037320, Note_off_c, 2, 74, 0
2, 3037320, Note_on_c, 2, 73, 50
2, 3037560, Note_off_c, 2, 73, 0
2, 3037560, Note_on_c, 2, 71, 50
2, 3038040, Note_off_c, 2, 71, 0
2, 3038040, Note_on_c, 2, 69, 50
2, 3038280, Note_off_c, 2, 69, 0
2, 3038280, Note_on_c, 2, 71, 50
2, 3038520, Note_off_c, 2, 71, 0
2, 3038640, Note_on_c, 2, 69, 50
2, 3039240, Note_off_c, 2, 69, 0
2, 3040560, Note_on_c, 2, 71, 50
2, 3040800, Note_off_c, 2, 71, 0
2, 3040800, Note_on_c, 2, 74, 50
2, 3041040, Note_off_c, 2, 74, 0
2, 3041040, Note_on_c, 2, 78, 50
2, 3041280, Note_off_c, 2, 78, 0
2, 3041280, Note_on_c, 2, 79, 50
2, 3041640, Note_off_c, 2, 79, 0
2, 3041640, Note_on_c, 2, 78, 50
2, 3042000, Note_off_c, 2, 78, 0
2, 3042000, Note_on_c, 2, 76, 50
2, 3042240, Note_off_c, 2, 76, 0
2, 3042240, Note_on_c, 2, 74, 50
2, 3042720, Note_off_c, 2, 74, 0
2, 3042720, Note_on_c, 2, 73, 50
2, 3043440, Note_off_c, 2, 73, 0
2, 3044400, Note_on_c, 2, 73, 50
2, 3044640, Note_off_c, 2, 73, 0
2, 3044640, Note_on_c, 2, 74, 50
2, 3044880, Note_off_c, 2, 74, 0
2, 3044880, Note_on_c, 2, 73, 50
2, 3045120, Note_off_c, 2, 73, 0
2, 3045120, Note_on_c, 2, 71, 50
2, 3045600, Note_off_c, 2, 71, 0
2, 3045600, Note_on_c, 2, 69, 50
2, 3045840, Note_off_c, 2, 69, 0
2, 3045840, Note_on_c, 2, 69, 50
2, 3046320, Note_off_c, 2, 69, 0
2, 3046320, Note_on_c, 2, 71, 50
2, 3047040, Note_off_c, 2, 71, 0
2, 3048360, Note_on_c, 2, 73, 50
2, 3048600, Note_off_c, 2, 73, 0
2, 3048600, Note_on_c, 2, 74, 50
2, 3048840, Note_off_c, 2, 74, 0
2, 3048840, Note_on_c, 2, 73, 50
2, 3049080, Note_off_c, 2, 73, 0
2, 3049080, Note_on_c, 2, 71, 50
2, 3049560, Note_off_c, 2, 71, 0
2, 3049560, Note_on_c, 2, 69, 50
2, 3049800, Note_off_c, 2, 69, 0
2, 3049800, Note_on_c, 2, 71, 50
2, 3050040, Note_off_c, 2, 71, 0
2, 3050160, Note_on_c, 2, 69, 50
2, 3050760, Note_off_c, 2, 69, 0
2, 3052080, Note_on_c, 2, 71, 50
2, 3052320, Note_off_c, 2, 71, 0
2, 3052320, Note_on_c, 2, 74, 50
2, 3052560, Note_off_c, 2, 74, 0
2, 3052560, Note_on_c, 2, 78, 50
2, 3052920, Note_off_c, 2, 78, 0
2, 3052920, Note_on_c, 2, 79, 50
2, 3053280, Note_off_c, 2, 79, 0
2, 3053280, Note_on_c, 2, 78, 50
2, 3053640, Note_off_c, 2, 78, 0
2, 3053640, Note_on_c, 2, 76, 50
2, 3053880, Note_off_c, 2, 76, 0
2, 3053880, Note_on_c, 2, 74, 50
2, 3054360, Note_off_c, 2, 74, 0
2, 3054360, Note_on_c, 2, 73, 50
2, 3055320, Note_off_c, 2, 73, 0
2, 3056040, Note_on_c, 2, 76, 50
2, 3056280, Note_off_c, 2, 76, 0
2, 3056280, Note_on_c, 2, 78, 50
2, 3056520, Note_off_c, 2, 78, 0
2, 3056520, Note_on_c, 2, 81, 50
2, 3057000, Note_off_c, 2, 81, 0
2, 3057000, Note_on_c, 2, 78, 50
2, 3057480, Note_off_c, 2, 78, 0
2, 3057480, Note_on_c, 2, 76, 50
2, 3058200, Note_off_c, 2, 76, 0
2, 3058200, Note_on_c, 2, 74, 50
2, 3058440, Note_off_c, 2, 74, 0
2, 3058440, Note_on_c, 2, 74, 50
2, 3059280, Note_off_c, 2, 74, 0
2, 3060240, Note_on_c, 2, 74, 50
2, 3060600, Note_off_c, 2, 74, 0
2, 3060720, Note_on_c, 2, 74, 50
2, 3061200, Note_off_c, 2, 74, 0
2, 3061200, Note_on_c, 2, 74, 50
2, 3061440, Note_off_c, 2, 74, 0
2, 3061440, Note_on_c, 2, 76, 50
2, 3061920, Note_off_c, 2, 76, 0
2, 3062160, Note_on_c, 2, 74, 50
2, 3062400, Note_off_c, 2, 74, 0
2, 3062400, Note_on_c, 2, 76, 50
2, 3062880, Note_off_c, 2, 76, 0
2, 3063600, Note_on_c, 2, 76, 50
2, 3063840, Note_off_c, 2, 76, 0
2, 3063840, Note_on_c, 2, 78, 50
2, 3064080, Note_off_c, 2, 78, 0
2, 3064080, Note_on_c, 2, 81, 50
2, 3064560, Note_off_c, 2, 81, 0
2, 3064560, Note_on_c, 2, 78, 50
2, 3065040, Note_off_c, 2, 78, 0
2, 3065040, Note_on_c, 2, 76, 50
2, 3065760, Note_off_c, 2, 76, 0
2, 3065760, Note_on_c, 2, 74, 50
2, 3066000, Note_off_c, 2, 74, 0
2, 3066000, Note_on_c, 2, 74, 50
2, 3066840, Note_off_c, 2, 74, 0
2, 3067680, Note_on_c, 2, 74, 50
2, 3067920, Note_off_c, 2, 74, 0
2, 3067920, Note_on_c, 2, 74, 50
2, 3068400, Note_off_c, 2, 74, 0
2, 3068400, Note_on_c, 2, 74, 50
2, 3068760, Note_off_c, 2, 74, 0
2, 3068880, Note_on_c, 2, 74, 50
2, 3069120, Note_off_c, 2, 74, 0
2, 3069120, Note_on_c, 2, 76, 50
2, 3069720, Note_off_c, 2, 76, 0
2, 3069840, Note_on_c, 2, 74, 50
2, 3070080, Note_off_c, 2, 74, 0
2, 3070080, Note_on_c, 2, 76, 50
2, 3070560, Note_off_c, 2, 76, 0
2, 3071280, Note_on_c, 2, 73, 50
2, 3071520, Note_off_c, 2, 73, 0
2, 3071520, Note_on_c, 2, 74, 50
2, 3071760, Note_off_c, 2, 74, 0
2, 3071760, Note_on_c, 2, 73, 50
2, 3072000, Note_off_c, 2, 73, 0
2, 3072000, Note_on_c, 2, 71, 50
2, 3072480, Note_off_c, 2, 71, 0
2, 3072480, Note_on_c, 2, 69, 50
2, 3072720, Note_off_c, 2, 69, 0
2, 3072720, Note_on_c, 2, 69, 50
2, 3073080, Note_off_c, 2, 69, 0
2, 3073200, Note_on_c, 2, 71, 50
2, 3073920, Note_off_c, 2, 71, 0
2, 3075120, Note_on_c, 2, 73, 50
2, 3075360, Note_off_c, 2, 73, 0
2, 3075360, Note_on_c, 2, 74, 50
2, 3075600, Note_off_c, 2, 74, 0
2, 3075600, Note_on_c, 2, 73, 50
2, 3075960, Note_off_c, 2, 73, 0
2, 3076320, Note_on_c, 2, 69, 50
2, 3076560, Note_off_c, 2, 69, 0
2, 3076560, Note_on_c, 2, 71, 50
2, 3076800, Note_off_c, 2, 71, 0
2, 3076800, Note_on_c, 2, 69, 50
2, 3076920, Note_off_c, 2, 69, 0
2, 3077040, Note_on_c, 2, 69, 50
2, 3077760, Note_off_c, 2, 69, 0
2, 3078960, Note_on_c, 2, 71, 50
2, 3079200, Note_off_c, 2, 71, 0
2, 3079200, Note_on_c, 2, 74, 50
2, 3079440, Note_off_c, 2, 74, 0
2, 3079440, Note_on_c, 2, 78, 50
2, 3079680, Note_off_c, 2, 78, 0
2, 3079680, Note_on_c, 2, 79, 50
2, 3080040, Note_off_c, 2, 79, 0
2, 3080040, Note_on_c, 2, 78, 50
2, 3080400, Note_off_c, 2, 78, 0
2, 3080400, Note_on_c, 2, 76, 50
2, 3080640, Note_off_c, 2, 76, 0
2, 3080640, Note_on_c, 2, 74, 50
2, 3081120, Note_off_c, 2, 74, 0
2, 3081120, Note_on_c, 2, 73, 50
2, 3081840, Note_off_c, 2, 73, 0
2, 3082800, Note_on_c, 2, 73, 50
2, 3083040, Note_off_c, 2, 73, 0
2, 3083040, Note_on_c, 2, 74, 50
2, 3083280, Note_off_c, 2, 74, 0
2, 3083280, Note_on_c, 2, 73, 50
2, 3083520, Note_off_c, 2, 73, 0
2, 3083520, Note_on_c, 2, 71, 50
2, 3084000, Note_off_c, 2, 71, 0
2, 3084000, Note_on_c, 2, 69, 50
2, 3084240, Note_off_c, 2, 69, 0
2, 3084240, Note_on_c, 2, 69, 50
2, 3084720, Note_off_c, 2, 69, 0
2, 3084720, Note_on_c, 2, 71, 50
2, 3085440, Note_off_c, 2, 71, 0
2, 3086640, Note_on_c, 2, 73, 50
2, 3086880, Note_off_c, 2, 73, 0
2, 3086880, Note_on_c, 2, 74, 50
2, 3087120, Note_off_c, 2, 74, 0
2, 3087120, Note_on_c, 2, 73, 50
2, 3087360, Note_off_c, 2, 73, 0
2, 3087360, Note_on_c, 2, 71, 50
2, 3087840, Note_off_c, 2, 71, 0
2, 3087840, Note_on_c, 2, 69, 50
2, 3088080, Note_off_c, 2, 69, 0
2, 3088080, Note_on_c, 2, 71, 50
2, 3088560, Note_off_c, 2, 71, 0
2, 3088560, Note_on_c, 2, 69, 50
2, 3089160, Note_off_c, 2, 69, 0
2, 3090480, Note_on_c, 2, 71, 50
2, 3090720, Note_off_c, 2, 71, 0
2, 3090720, Note_on_c, 2, 74, 50
2, 3090960, Note_off_c, 2, 74, 0
2, 3090960, Note_on_c, 2, 78, 50
2, 3091200, Note_off_c, 2, 78, 0
2, 3091200, Note_on_c, 2, 79, 50
2, 3091560, Note_off_c, 2, 79, 0
2, 3091560, Note_on_c, 2, 78, 50
2, 3091920, Note_off_c, 2, 78, 0
2, 3091920, Note_on_c, 2, 76, 50
2, 3092160, Note_off_c, 2, 76, 0
2, 3092160, Note_on_c, 2, 74, 50
2, 3092640, Note_off_c, 2, 74, 0
2, 3092640, Note_on_c, 2, 73, 50
2, 3093240, Note_off_c, 2, 73, 0
2, 3094320, Note_on_c, 2, 76, 50
2, 3094560, Note_off_c, 2, 76, 0
2, 3094560, Note_on_c, 2, 78, 50
2, 3094800, Note_off_c, 2, 78, 0
2, 3094800, Note_on_c, 2, 81, 50
2, 3095280, Note_off_c, 2, 81, 0
2, 3095280, Note_on_c, 2, 78, 50
2, 3095760, Note_off_c, 2, 78, 0
2, 3095760, Note_on_c, 2, 76, 50
2, 3096480, Note_off_c, 2, 76, 0
2, 3096480, Note_on_c, 2, 74, 50
2, 3096720, Note_off_c, 2, 74, 0
2, 3096720, Note_on_c, 2, 74, 50
2, 3097560, Note_off_c, 2, 74, 0
2, 3098400, Note_on_c, 2, 74, 50
2, 3098520, Note_off_c, 2, 74, 0
2, 3098640, Note_on_c, 2, 74, 50
2, 3099120, Note_off_c, 2, 74, 0
2, 3099120, Note_on_c, 2, 74, 50
2, 3099480, Note_off_c, 2, 74, 0
2, 3099600, Note_on_c, 2, 74, 50
2, 3099840, Note_off_c, 2, 74, 0
2, 3099840, Note_on_c, 2, 76, 50
2, 3100440, Note_off_c, 2, 76, 0
2, 3100560, Note_on_c, 2, 74, 50
2, 3100800, Note_off_c, 2, 74, 0
2, 3100800, Note_on_c, 2, 76, 50
2, 3101280, Note_off_c, 2, 76, 0
2, 3102000, Note_on_c, 2, 76, 50
2, 3102240, Note_off_c, 2, 76, 0
2, 3102240, Note_on_c, 2, 78, 50
2, 3102480, Note_off_c, 2, 78, 0
2, 3102480, Note_on_c, 2, 81, 50
2, 3102960, Note_off_c, 2, 81, 0
2, 3102960, Note_on_c, 2, 78, 50
2, 3103440, Note_off_c, 2, 78, 0
2, 3103440, Note_on_c, 2, 76, 50
2, 3104160, Note_off_c, 2, 76, 0
2, 3104160, Note_on_c, 2, 74, 50
2, 3104280, Note_off_c, 2, 74, 0
2, 3104400, Note_on_c, 2, 74, 50
2, 3105120, Note_off_c, 2, 74, 0
2, 3106080, Note_on_c, 2, 74, 50
2, 3106200, Note_off_c, 2, 74, 0
2, 3106320, Note_on_c, 2, 74, 50
2, 3106680, Note_off_c, 2, 74, 0
2, 3106800, Note_on_c, 2, 74, 50
2, 3107160, Note_off_c, 2, 74, 0
2, 3107280, Note_on_c, 2, 74, 50
2, 3107520, Note_off_c, 2, 74, 0
2, 3107520, Note_on_c, 2, 76, 50
2, 3108120, Note_off_c, 2, 76, 0
2, 3108240, Note_on_c, 2, 74, 50
2, 3108480, Note_off_c, 2, 74, 0
2, 3108480, Note_on_c, 2, 76, 50
2, 3109080, Note_off_c, 2, 76, 0
2, 3121200, Note_on_c, 2, 76, 50
2, 3121440, Note_off_c, 2, 76, 0
2, 3121440, Note_on_c, 2, 78, 50
2, 3121680, Note_off_c, 2, 78, 0
2, 3121680, Note_on_c, 2, 81, 50
2, 3122160, Note_off_c, 2, 81, 0
2, 3122160, Note_on_c, 2, 78, 50
2, 3122640, Note_off_c, 2, 78, 0
2, 3122640, Note_on_c, 2, 76, 50
2, 3123360, Note_off_c, 2, 76, 0
2, 3123360, Note_on_c, 2, 74, 50
2, 3123480, Note_off_c, 2, 74, 0
2, 3123600, Note_on_c, 2, 74, 50
2, 3124320, Note_off_c, 2, 74, 0
2, 3125280, Note_on_c, 2, 74, 50
2, 3125400, Note_off_c, 2, 74, 0
2, 3125520, Note_on_c, 2, 74, 50
2, 3125880, Note_off_c, 2, 74, 0
2, 3126000, Note_on_c, 2, 74, 50
2, 3126360, Note_off_c, 2, 74, 0
2, 3126480, Note_on_c, 2, 74, 50
2, 3126720, Note_off_c, 2, 74, 0
2, 3126720, Note_on_c, 2, 76, 50
2, 3127440, Note_off_c, 2, 76, 0
2, 3127440, Note_on_c, 2, 74, 50
2, 3127680, Note_off_c, 2, 74, 0
2, 3127680, Note_on_c, 2, 76, 50
2, 3128160, Note_off_c, 2, 76, 0
2, 3128880, Note_on_c, 2, 76, 50
2, 3129120, Note_off_c, 2, 76, 0
2, 3129120, Note_on_c, 2, 78, 50
2, 3129360, Note_off_c, 2, 78, 0
2, 3129360, Note_on_c, 2, 81, 50
2, 3129840, Note_off_c, 2, 81, 0
2, 3129840, Note_on_c, 2, 78, 50
2, 3130320, Note_off_c, 2, 78, 0
2, 3130320, Note_on_c, 2, 76, 50
2, 3131040, Note_off_c, 2, 76, 0
2, 3131040, Note_on_c, 2, 74, 50
2, 3131160, Note_off_c, 2, 74, 0
2, 3131280, Note_on_c, 2, 74, 50
2, 3132000, Note_off_c, 2, 74, 0
2, 3132960, Note_on_c, 2, 74, 50
2, 3133080, Note_off_c, 2, 74, 0
2, 3133200, Note_on_c, 2, 74, 50
2, 3133560, Note_off_c, 2, 74, 0
2, 3133680, Note_on_c, 2, 74, 50
2, 3134040, Note_off_c, 2, 74, 0
2, 3134160, Note_on_c, 2, 74, 50
2, 3134400, Note_off_c, 2, 74, 0
2, 3134400, Note_on_c, 2, 76, 50
2, 3135000, Note_off_c, 2, 76, 0
2, 3135120, Note_on_c, 2, 74, 50
2, 3135360, Note_off_c, 2, 74, 0
2, 3135360, Note_on_c, 2, 76, 50
2, 3135960, Note_off_c, 2, 76, 0
2, 3138960, Note_on_c, 2, 78, 50
2, 3139080, Note_off_c, 2, 78, 0
2, 3139200, Note_on_c, 2, 78, 50
2, 3139320, Note_off_c, 2, 78, 0
2, 3139440, Note_on_c, 2, 78, 50
2, 3139560, Note_off_c, 2, 78, 0
2, 3139680, Note_on_c, 2, 78, 50
2, 3139920, Note_off_c, 2, 78, 0
2, 3139920, Note_on_c, 2, 76, 50
2, 3140160, Note_off_c, 2, 76, 0
2, 3140160, Note_on_c, 2, 74, 50
2, 3140400, Note_off_c, 2, 74, 0
2, 3142800, Note_on_c, 2, 78, 50
2, 3142920, Note_off_c, 2, 78, 0
2, 3143040, Note_on_c, 2, 78, 50
2, 3143160, Note_off_c, 2, 78, 0
2, 3143280, Note_on_c, 2, 78, 50
2, 3143400, Note_off_c, 2, 78, 0
2, 3143520, Note_on_c, 2, 78, 50
2, 3143760, Note_off_c, 2, 78, 0
2, 3143760, Note_on_c, 2, 76, 50
2, 3144120, Note_off_c, 2, 76, 0
2, 3144240, Note_on_c, 2, 73, 50
2, 3144720, Note_off_c, 2, 73, 0
2, 3146640, Note_on_c, 2, 78, 50
2, 3146760, Note_off_c, 2, 78, 0
2, 3146880, Note_on_c, 2, 78, 50
2, 3147120, Note_off_c, 2, 78, 0
2, 3147120, Note_on_c, 2, 78, 50
2, 3147360, Note_off_c, 2, 78, 0
2, 3147360, Note_on_c, 2, 78, 50
2, 3147600, Note_off_c, 2, 78, 0
2, 3147600, Note_on_c, 2, 76, 50
2, 3147960, Note_off_c, 2, 76, 0
2, 3148080, Note_on_c, 2, 73, 50
2, 3148680, Note_off_c, 2, 73, 0
2, 3150480, Note_on_c, 2, 78, 50
2, 3150600, Note_off_c, 2, 78, 0
2, 3150720, Note_on_c, 2, 78, 50
2, 3150840, Note_off_c, 2, 78, 0
2, 3150960, Note_on_c, 2, 78, 50
2, 3151200, Note_off_c, 2, 78, 0
2, 3151200, Note_on_c, 2, 78, 50
2, 3151440, Note_off_c, 2, 78, 0
2, 3151440, Note_on_c, 2, 76, 50
2, 3151800, Note_off_c, 2, 76, 0
2, 3151920, Note_on_c, 2, 73, 50
2, 3152520, Note_off_c, 2, 73, 0
2, 3154320, Note_on_c, 2, 78, 50
2, 3154440, Note_off_c, 2, 78, 0
2, 3154560, Note_on_c, 2, 78, 50
2, 3154800, Note_off_c, 2, 78, 0
2, 3154800, Note_on_c, 2, 78, 50
2, 3155040, Note_off_c, 2, 78, 0
2, 3155040, Note_on_c, 2, 81, 50
2, 3155280, Note_off_c, 2, 81, 0
2, 3155280, Note_on_c, 2, 81, 50
2, 3155640, Note_off_c, 2, 81, 0
2, 3159120, Note_on_c, 2, 45, 50
2, 3159360, Note_off_c, 2, 45, 0
2, 3159360, Note_on_c, 2, 45, 50
2, 3159840, Note_off_c, 2, 45, 0
2, 3159840, Note_on_c, 2, 40, 50
2, 3160320, Note_off_c, 2, 40, 0
2, 3160320, Note_on_c, 2, 48, 50
2, 3160560, Note_off_c, 2, 48, 0
2, 3160560, Note_on_c, 2, 49, 50
2, 3160800, Note_off_c, 2, 49, 0
2, 3160800, Note_on_c, 2, 45, 50
2, 3161040, Note_off_c, 2, 45, 0
2, 3161040, Note_on_c, 2, 45, 50
2, 3161280, Note_off_c, 2, 45, 0
2, 3161280, Note_on_c, 2, 45, 50
2, 3161760, Note_off_c, 2, 45, 0
2, 3161760, Note_on_c, 2, 40, 50
2, 3162240, Note_off_c, 2, 40, 0
2, 3162240, Note_on_c, 2, 48, 50
2, 3162480, Note_off_c, 2, 48, 0
2, 3162480, Note_on_c, 2, 49, 50
2, 3162720, Note_off_c, 2, 49, 0
2, 3162720, Note_on_c, 2, 45, 50
2, 3162960, Note_off_c, 2, 45, 0
2, 3162960, Note_on_c, 2, 45, 50
2, 3163200, Note_off_c, 2, 45, 0
2, 3163200, Note_on_c, 2, 45, 50
2, 3163680, Note_off_c, 2, 45, 0
2, 3163680, Note_on_c, 2, 40, 50
2, 3164160, Note_off_c, 2, 40, 0
2, 3164160, Note_on_c, 2, 48, 50
2, 3164400, Note_off_c, 2, 48, 0
2, 3164400, Note_on_c, 2, 49, 50
2, 3164640, Note_off_c, 2, 49, 0
2, 3164640, Note_on_c, 2, 45, 50
2, 3164880, Note_off_c, 2, 45, 0
2, 3164880, Note_on_c, 2, 45, 50
2, 3165120, Note_off_c, 2, 45, 0
2, 3165120, Note_on_c, 2, 45, 50
2, 3165600, Note_off_c, 2, 45, 0
2, 3165600, Note_on_c, 2, 40, 50
2, 3166080, Note_off_c, 2, 40, 0
2, 3166080, Note_on_c, 2, 48, 50
2, 3166320, Note_off_c, 2, 48, 0
2, 3166320, Note_on_c, 2, 49, 50
2, 3166560, Note_off_c, 2, 49, 0
2, 3166560, Note_on_c, 2, 45, 50
2, 3166800, Note_off_c, 2, 45, 0
2, 3166800, Note_on_c, 2, 38, 50
2, 3167040, Note_off_c, 2, 38, 0
2, 3167040, Note_on_c, 2, 38, 50
2, 3167520, Note_off_c, 2, 38, 0
2, 3167520, Note_on_c, 2, 33, 50
2, 3168000, Note_off_c, 2, 33, 0
2, 3168000, Note_on_c, 2, 33, 50
2, 3168240, Note_off_c, 2, 33, 0
2, 3168240, Note_on_c, 2, 36, 50
2, 3168480, Note_off_c, 2, 36, 0
2, 3168480, Note_on_c, 2, 33, 50
2, 3168720, Note_off_c, 2, 33, 0
2, 3168720, Note_on_c, 2, 38, 50
2, 3168960, Note_off_c, 2, 38, 0
2, 3168960, Note_on_c, 2, 38, 50
2, 3169440, Note_off_c, 2, 38, 0
2, 3169440, Note_on_c, 2, 33, 50
2, 3169920, Note_off_c, 2, 33, 0
2, 3169920, Note_on_c, 2, 33, 50
2, 3170160, Note_off_c, 2, 33, 0
2, 3170160, Note_on_c, 2, 36, 50
2, 3170400, Note_off_c, 2, 36, 0
2, 3170400, Note_on_c, 2, 33, 50
2, 3170640, Note_off_c, 2, 33, 0
2, 3170640, Note_on_c, 2, 45, 50
2, 3170880, Note_off_c, 2, 45, 0
2, 3170880, Note_on_c, 2, 45, 50
2, 3171360, Note_off_c, 2, 45, 0
2, 3171360, Note_on_c, 2, 40, 50
2, 3171840, Note_off_c, 2, 40, 0
2, 3171840, Note_on_c, 2, 48, 50
2, 3172080, Note_off_c, 2, 48, 0
2, 3172080, Note_on_c, 2, 49, 50
2, 3172320, Note_off_c, 2, 49, 0
2, 3172320, Note_on_c, 2, 45, 50
2, 3172560, Note_off_c, 2, 45, 0
2, 3172560, Note_on_c, 2, 45, 50
2, 3172800, Note_off_c, 2, 45, 0
2, 3172800, Note_on_c, 2, 45, 50
2, 3173280, Note_off_c, 2, 45, 0
2, 3173280, Note_on_c, 2, 40, 50
2, 3173760, Note_off_c, 2, 40, 0
2, 3173760, Note_on_c, 2, 48, 50
2, 3174000, Note_off_c, 2, 48, 0
2, 3174000, Note_on_c, 2, 49, 50
2, 3174240, Note_off_c, 2, 49, 0
2, 3174240, Note_on_c, 2, 45, 50
2, 3174480, Note_off_c, 2, 45, 0
2, 3174480, Note_on_c, 2, 40, 50
2, 3174720, Note_off_c, 2, 40, 0
2, 3174720, Note_on_c, 2, 40, 50
2, 3175200, Note_off_c, 2, 40, 0
2, 3175200, Note_on_c, 2, 40, 50
2, 3175680, Note_off_c, 2, 40, 0
2, 3175680, Note_on_c, 2, 35, 50
2, 3175920, Note_off_c, 2, 35, 0
2, 3175920, Note_on_c, 2, 40, 50
2, 3176400, Note_off_c, 2, 40, 0
2, 3176400, Note_on_c, 2, 38, 50
2, 3176640, Note_off_c, 2, 38, 0
2, 3176640, Note_on_c, 2, 38, 50
2, 3177120, Note_off_c, 2, 38, 0
2, 3177120, Note_on_c, 2, 38, 50
2, 3177600, Note_off_c, 2, 38, 0
2, 3177600, Note_on_c, 2, 33, 50
2, 3177840, Note_off_c, 2, 33, 0
2, 3177840, Note_on_c, 2, 38, 50
2, 3178320, Note_off_c, 2, 38, 0
2, 3178320, Note_on_c, 2, 45, 50
2, 3178560, Note_off_c, 2, 45, 0
2, 3178560, Note_on_c, 2, 45, 50
2, 3179040, Note_off_c, 2, 45, 0
2, 3179040, Note_on_c, 2, 45, 50
2, 3179520, Note_off_c, 2, 45, 0
2, 3179520, Note_on_c, 2, 40, 50
2, 3179760, Note_off_c, 2, 40, 0
2, 3179760, Note_on_c, 2, 45, 50
2, 3180240, Note_off_c, 2, 45, 0
2, 3180240, Note_on_c, 2, 52, 50
2, 3182160, Note_off_c, 2, 52, 0
2, 3182160, Note_on_c, 2, 45, 50
2, 3182400, Note_off_c, 2, 45, 0
2, 3182400, Note_on_c, 2, 45, 50
2, 3182880, Note_off_c, 2, 45, 0
2, 3182880, Note_on_c, 2, 40, 50
2, 3183360, Note_off_c, 2, 40, 0
2, 3183360, Note_on_c, 2, 45, 50
2, 3183600, Note_off_c, 2, 45, 0
2, 3183600, Note_on_c, 2, 49, 50
2, 3183840, Note_off_c, 2, 49, 0
2, 3183840, Note_on_c, 2, 40, 50
2, 3184080, Note_off_c, 2, 40, 0
2, 3184080, Note_on_c, 2, 45, 50
2, 3184320, Note_off_c, 2, 45, 0
2, 3184320, Note_on_c, 2, 45, 50
2, 3184800, Note_off_c, 2, 45, 0
2, 3184800, Note_on_c, 2, 40, 50
2, 3185280, Note_off_c, 2, 40, 0
2, 3185280, Note_on_c, 2, 45, 50
2, 3185520, Note_off_c, 2, 45, 0
2, 3185520, Note_on_c, 2, 49, 50
2, 3185760, Note_off_c, 2, 49, 0
2, 3185760, Note_on_c, 2, 40, 50
2, 3186000, Note_off_c, 2, 40, 0
2, 3186000, Note_on_c, 2, 45, 50
2, 3186240, Note_off_c, 2, 45, 0
2, 3186240, Note_on_c, 2, 45, 50
2, 3186720, Note_off_c, 2, 45, 0
2, 3186720, Note_on_c, 2, 40, 50
2, 3187200, Note_off_c, 2, 40, 0
2, 3187200, Note_on_c, 2, 45, 50
2, 3187440, Note_off_c, 2, 45, 0
2, 3187440, Note_on_c, 2, 49, 50
2, 3187680, Note_off_c, 2, 49, 0
2, 3187680, Note_on_c, 2, 40, 50
2, 3187920, Note_off_c, 2, 40, 0
2, 3187920, Note_on_c, 2, 45, 50
2, 3188160, Note_off_c, 2, 45, 0
2, 3188160, Note_on_c, 2, 45, 50
2, 3188640, Note_off_c, 2, 45, 0
2, 3188640, Note_on_c, 2, 40, 50
2, 3189120, Note_off_c, 2, 40, 0
2, 3189120, Note_on_c, 2, 45, 50
2, 3189360, Note_off_c, 2, 45, 0
2, 3189360, Note_on_c, 2, 49, 50
2, 3189600, Note_off_c, 2, 49, 0
2, 3189600, Note_on_c, 2, 40, 50
2, 3189840, Note_off_c, 2, 40, 0
2, 3189840, Note_on_c, 2, 38, 50
2, 3190080, Note_off_c, 2, 38, 0
2, 3190080, Note_on_c, 2, 38, 50
2, 3190560, Note_off_c, 2, 38, 0
2, 3190560, Note_on_c, 2, 33, 50
2, 3191040, Note_off_c, 2, 33, 0
2, 3191040, Note_on_c, 2, 38, 50
2, 3191280, Note_off_c, 2, 38, 0
2, 3191280, Note_on_c, 2, 42, 50
2, 3191520, Note_off_c, 2, 42, 0
2, 3191520, Note_on_c, 2, 33, 50
2, 3191760, Note_off_c, 2, 33, 0
2, 3191760, Note_on_c, 2, 38, 50
2, 3192000, Note_off_c, 2, 38, 0
2, 3192000, Note_on_c, 2, 38, 50
2, 3192480, Note_off_c, 2, 38, 0
2, 3192480, Note_on_c, 2, 38, 50
2, 3192960, Note_off_c, 2, 38, 0
2, 3192960, Note_on_c, 2, 42, 50
2, 3193200, Note_off_c, 2, 42, 0
2, 3193200, Note_on_c, 2, 45, 50
2, 3193440, Note_off_c, 2, 45, 0
2, 3193440, Note_on_c, 2, 47, 50
2, 3193680, Note_off_c, 2, 47, 0
2, 3193680, Note_on_c, 2, 45, 50
2, 3193920, Note_off_c, 2, 45, 0
2, 3193920, Note_on_c, 2, 45, 50
2, 3194400, Note_off_c, 2, 45, 0
2, 3194400, Note_on_c, 2, 40, 50
2, 3194880, Note_off_c, 2, 40, 0
2, 3194880, Note_on_c, 2, 45, 50
2, 3195120, Note_off_c, 2, 45, 0
2, 3195120, Note_on_c, 2, 49, 50
2, 3195360, Note_off_c, 2, 49, 0
2, 3195360, Note_on_c, 2, 45, 50
2, 3195600, Note_off_c, 2, 45, 0
2, 3195600, Note_on_c, 2, 45, 50
2, 3195840, Note_off_c, 2, 45, 0
2, 3195840, Note_on_c, 2, 45, 50
2, 3196320, Note_off_c, 2, 45, 0
2, 3196320, Note_on_c, 2, 40, 50
2, 3196800, Note_off_c, 2, 40, 0
2, 3196800, Note_on_c, 2, 45, 50
2, 3197040, Note_off_c, 2, 45, 0
2, 3197040, Note_on_c, 2, 49, 50
2, 3197280, Note_off_c, 2, 49, 0
2, 3197280, Note_on_c, 2, 45, 50
2, 3197520, Note_off_c, 2, 45, 0
2, 3197520, Note_on_c, 2, 40, 50
2, 3197760, Note_off_c, 2, 40, 0
2, 3197760, Note_on_c, 2, 40, 50
2, 3198240, Note_off_c, 2, 40, 0
2, 3198240, Note_on_c, 2, 40, 50
2, 3198720, Note_off_c, 2, 40, 0
2, 3198720, Note_on_c, 2, 40, 50
2, 3198960, Note_off_c, 2, 40, 0
2, 3198960, Note_on_c, 2, 47, 50
2, 3199200, Note_off_c, 2, 47, 0
2, 3199200, Note_on_c, 2, 40, 50
2, 3199440, Note_off_c, 2, 40, 0
2, 3199440, Note_on_c, 2, 38, 50
2, 3199680, Note_off_c, 2, 38, 0
2, 3199680, Note_on_c, 2, 38, 50
2, 3200160, Note_off_c, 2, 38, 0
2, 3200160, Note_on_c, 2, 38, 50
2, 3200640, Note_off_c, 2, 38, 0
2, 3200640, Note_on_c, 2, 45, 50
2, 3200880, Note_off_c, 2, 45, 0
2, 3200880, Note_on_c, 2, 42, 50
2, 3201120, Note_off_c, 2, 42, 0
2, 3201120, Note_on_c, 2, 38, 50
2, 3201360, Note_off_c, 2, 38, 0
2, 3201360, Note_on_c, 2, 45, 50
2, 3201600, Note_off_c, 2, 45, 0
2, 3201600, Note_on_c, 2, 45, 50
2, 3202080, Note_off_c, 2, 45, 0
2, 3202080, Note_on_c, 2, 40, 50
2, 3202560, Note_off_c, 2, 40, 0
2, 3202560, Note_on_c, 2, 45, 50
2, 3202800, Note_off_c, 2, 45, 0
2, 3202800, Note_on_c, 2, 49, 50
2, 3203040, Note_off_c, 2, 49, 0
2, 3203040, Note_on_c, 2, 45, 50
2, 3203280, Note_off_c, 2, 45, 0
2, 3203280, Note_on_c, 2, 40, 50
2, 3203520, Note_off_c, 2, 40, 0
2, 3203520, Note_on_c, 2, 40, 50
2, 3203760, Note_off_c, 2, 40, 0
2, 3203760, Note_on_c, 2, 40, 50
2, 3204000, Note_off_c, 2, 40, 0
2, 3204000, Note_on_c, 2, 40, 50
2, 3204240, Note_off_c, 2, 40, 0
2, 3204240, Note_on_c, 2, 40, 50
2, 3204480, Note_off_c, 2, 40, 0
2, 3204480, Note_on_c, 2, 42, 50
2, 3204720, Note_off_c, 2, 42, 0
2, 3204720, Note_on_c, 2, 44, 50
2, 3204960, Note_off_c, 2, 44, 0
2, 3204960, Note_on_c, 2, 40, 50
2, 3205200, Note_off_c, 2, 40, 0
2, 3205200, Note_on_c, 2, 45, 50
2, 3205440, Note_off_c, 2, 45, 0
2, 3205440, Note_on_c, 2, 45, 50
2, 3205920, Note_off_c, 2, 45, 0
2, 3205920, Note_on_c, 2, 40, 50
2, 3206400, Note_off_c, 2, 40, 0
2, 3206400, Note_on_c, 2, 45, 50
2, 3206640, Note_off_c, 2, 45, 0
2, 3206640, Note_on_c, 2, 49, 50
2, 3206880, Note_off_c, 2, 49, 0
2, 3206880, Note_on_c, 2, 40, 50
2, 3207120, Note_off_c, 2, 40, 0
2, 3207120, Note_on_c, 2, 45, 50
2, 3207360, Note_off_c, 2, 45, 0
2, 3207360, Note_on_c, 2, 45, 50
2, 3207840, Note_off_c, 2, 45, 0
2, 3207840, Note_on_c, 2, 40, 50
2, 3208320, Note_off_c, 2, 40, 0
2, 3208320, Note_on_c, 2, 45, 50
2, 3208560, Note_off_c, 2, 45, 0
2, 3208560, Note_on_c, 2, 49, 50
2, 3208800, Note_off_c, 2, 49, 0
2, 3208800, Note_on_c, 2, 40, 50
2, 3209040, Note_off_c, 2, 40, 0
2, 3209040, Note_on_c, 2, 45, 50
2, 3209280, Note_off_c, 2, 45, 0
2, 3209280, Note_on_c, 2, 45, 50
2, 3209760, Note_off_c, 2, 45, 0
2, 3209760, Note_on_c, 2, 40, 50
2, 3210240, Note_off_c, 2, 40, 0
2, 3210240, Note_on_c, 2, 45, 50
2, 3210480, Note_off_c, 2, 45, 0
2, 3210480, Note_on_c, 2, 49, 50
2, 3210720, Note_off_c, 2, 49, 0
2, 3210720, Note_on_c, 2, 40, 50
2, 3210960, Note_off_c, 2, 40, 0
2, 3210960, Note_on_c, 2, 45, 50
2, 3211200, Note_off_c, 2, 45, 0
2, 3211200, Note_on_c, 2, 45, 50
2, 3211680, Note_off_c, 2, 45, 0
2, 3211680, Note_on_c, 2, 40, 50
2, 3212160, Note_off_c, 2, 40, 0
2, 3212160, Note_on_c, 2, 45, 50
2, 3212400, Note_off_c, 2, 45, 0
2, 3212400, Note_on_c, 2, 49, 50
2, 3212640, Note_off_c, 2, 49, 0
2, 3212640, Note_on_c, 2, 40, 50
2, 3212880, Note_off_c, 2, 40, 0
2, 3212880, Note_on_c, 2, 38, 50
2, 3213120, Note_off_c, 2, 38, 0
2, 3213120, Note_on_c, 2, 38, 50
2, 3213600, Note_off_c, 2, 38, 0
2, 3213600, Note_on_c, 2, 33, 50
2, 3214080, Note_off_c, 2, 33, 0
2, 3214080, Note_on_c, 2, 38, 50
2, 3214320, Note_off_c, 2, 38, 0
2, 3214320, Note_on_c, 2, 42, 50
2, 3214560, Note_off_c, 2, 42, 0
2, 3214560, Note_on_c, 2, 33, 50
2, 3214800, Note_off_c, 2, 33, 0
2, 3214800, Note_on_c, 2, 38, 50
2, 3215040, Note_off_c, 2, 38, 0
2, 3215040, Note_on_c, 2, 38, 50
2, 3215520, Note_off_c, 2, 38, 0
2, 3215520, Note_on_c, 2, 38, 50
2, 3216000, Note_off_c, 2, 38, 0
2, 3216000, Note_on_c, 2, 42, 50
2, 3216240, Note_off_c, 2, 42, 0
2, 3216240, Note_on_c, 2, 45, 50
2, 3216480, Note_off_c, 2, 45, 0
2, 3216480, Note_on_c, 2, 47, 50
2, 3216720, Note_off_c, 2, 47, 0
2, 3216720, Note_on_c, 2, 45, 50
2, 3216960, Note_off_c, 2, 45, 0
2, 3216960, Note_on_c, 2, 45, 50
2, 3217440, Note_off_c, 2, 45, 0
2, 3217440, Note_on_c, 2, 40, 50
2, 3217920, Note_off_c, 2, 40, 0
2, 3217920, Note_on_c, 2, 45, 50
2, 3218160, Note_off_c, 2, 45, 0
2, 3218160, Note_on_c, 2, 49, 50
2, 3218400, Note_off_c, 2, 49, 0
2, 3218400, Note_on_c, 2, 45, 50
2, 3218640, Note_off_c, 2, 45, 0
2, 3218640, Note_on_c, 2, 45, 50
2, 3218880, Note_off_c, 2, 45, 0
2, 3218880, Note_on_c, 2, 45, 50
2, 3219360, Note_off_c, 2, 45, 0
2, 3219360, Note_on_c, 2, 40, 50
2, 3219840, Note_off_c, 2, 40, 0
2, 3219840, Note_on_c, 2, 45, 50
2, 3220080, Note_off_c, 2, 45, 0
2, 3220080, Note_on_c, 2, 49, 50
2, 3220320, Note_off_c, 2, 49, 0
2, 3220320, Note_on_c, 2, 45, 50
2, 3220560, Note_off_c, 2, 45, 0
2, 3220560, Note_on_c, 2, 40, 50
2, 3220800, Note_off_c, 2, 40, 0
2, 3220800, Note_on_c, 2, 40, 50
2, 3221280, Note_off_c, 2, 40, 0
2, 3221280, Note_on_c, 2, 40, 50
2, 3221760, Note_off_c, 2, 40, 0
2, 3221760, Note_on_c, 2, 40, 50
2, 3222000, Note_off_c, 2, 40, 0
2, 3222000, Note_on_c, 2, 47, 50
2, 3222240, Note_off_c, 2, 47, 0
2, 3222240, Note_on_c, 2, 40, 50
2, 3222480, Note_off_c, 2, 40, 0
2, 3222480, Note_on_c, 2, 38, 50
2, 3222720, Note_off_c, 2, 38, 0
2, 3222720, Note_on_c, 2, 38, 50
2, 3223200, Note_off_c, 2, 38, 0
2, 3223200, Note_on_c, 2, 38, 50
2, 3223680, Note_off_c, 2, 38, 0
2, 3223680, Note_on_c, 2, 45, 50
2, 3223920, Note_off_c, 2, 45, 0
2, 3223920, Note_on_c, 2, 42, 50
2, 3224160, Note_off_c, 2, 42, 0
2, 3224160, Note_on_c, 2, 38, 50
2, 3224400, Note_off_c, 2, 38, 0
2, 3224400, Note_on_c, 2, 45, 50
2, 3224640, Note_off_c, 2, 45, 0
2, 3224640, Note_on_c, 2, 45, 50
2, 3225120, Note_off_c, 2, 45, 0
2, 3225120, Note_on_c, 2, 40, 50
2, 3225600, Note_off_c, 2, 40, 0
2, 3225600, Note_on_c, 2, 40, 50
2, 3225840, Note_off_c, 2, 40, 0
2, 3225840, Note_on_c, 2, 45, 50
2, 3226080, Note_off_c, 2, 45, 0
2, 3226080, Note_on_c, 2, 40, 50
2, 3226320, Note_off_c, 2, 40, 0
2, 3226320, Note_on_c, 2, 33, 50
2, 3228240, Note_off_c, 2, 33, 0
2, 3232080, Note_on_c, 2, 57, 50
2, 3232200, Note_off_c, 2, 57, 0
2, 3232320, Note_on_c, 2, 59, 50
2, 3232440, Note_off_c, 2, 59, 0
2, 3232560, Note_on_c, 2, 61, 50
2, 3232800, Note_off_c, 2, 61, 0
2, 3232800, Note_on_c, 2, 59, 50
2, 3233040, Note_off_c, 2, 59, 0
2, 3233040, Note_on_c, 2, 57, 50
2, 3233400, Note_off_c, 2, 57, 0
2, 3233520, Note_on_c, 2, 59, 50
2, 3233640, Note_off_c, 2, 59, 0
2, 3233760, Note_on_c, 2, 59, 50
2, 3234120, Note_off_c, 2, 59, 0
2, 3234240, Note_on_c, 2, 54, 50
2, 3235440, Note_off_c, 2, 54, 0
2, 3235920, Note_on_c, 2, 57, 50
2, 3236040, Note_off_c, 2, 57, 0
2, 3236160, Note_on_c, 2, 59, 50
2, 3236280, Note_off_c, 2, 59, 0
2, 3236400, Note_on_c, 2, 61, 50
2, 3236640, Note_off_c, 2, 61, 0
2, 3236640, Note_on_c, 2, 59, 50
2, 3236880, Note_off_c, 2, 59, 0
2, 3236880, Note_on_c, 2, 57, 50
2, 3237120, Note_off_c, 2, 57, 0
2, 3237360, Note_on_c, 2, 59, 50
2, 3237480, Note_off_c, 2, 59, 0
2, 3237600, Note_on_c, 2, 59, 50
2, 3237840, Note_off_c, 2, 59, 0
2, 3238080, Note_on_c, 2, 54, 50
2, 3239400, Note_off_c, 2, 54, 0
2, 3239760, Note_on_c, 2, 57, 50
2, 3240000, Note_off_c, 2, 57, 0
2, 3240000, Note_on_c, 2, 59, 50
2, 3240240, Note_off_c, 2, 59, 0
2, 3240240, Note_on_c, 2, 61, 50
2, 3240480, Note_off_c, 2, 61, 0
2, 3240480, Note_on_c, 2, 59, 50
2, 3240720, Note_off_c, 2, 59, 0
2, 3240720, Note_on_c, 2, 57, 50
2, 3241200, Note_off_c, 2, 57, 0
2, 3241200, Note_on_c, 2, 59, 50
2, 3241320, Note_off_c, 2, 59, 0
2, 3241440, Note_on_c, 2, 59, 50
2, 3241800, Note_off_c, 2, 59, 0
2, 3241920, Note_on_c, 2, 54, 50
2, 3243240, Note_off_c, 2, 54, 0
2, 3243600, Note_on_c, 2, 57, 50
2, 3243840, Note_off_c, 2, 57, 0
2, 3243840, Note_on_c, 2, 59, 50
2, 3243960, Note_off_c, 2, 59, 0
2, 3244080, Note_on_c, 2, 61, 50
2, 3244320, Note_off_c, 2, 61, 0
2, 3244320, Note_on_c, 2, 59, 50
2, 3244560, Note_off_c, 2, 59, 0
2, 3244560, Note_on_c, 2, 57, 50
2, 3244920, Note_off_c, 2, 57, 0
2, 3245040, Note_on_c, 2, 69, 50
2, 3245160, Note_off_c, 2, 69, 0
2, 3245280, Note_on_c, 2, 69, 50
2, 3245640, Note_off_c, 2, 69, 0
2, 3245760, Note_on_c, 2, 68, 50
2, 3247440, Note_off_c, 2, 68, 0
2, 3247440, Note_on_c, 2, 59, 50
2, 3247680, Note_off_c, 2, 59, 0
2, 3247920, Note_on_c, 2, 60, 50
2, 3248040, Note_off_c, 2, 60, 0
2, 3248160, Note_on_c, 2, 59, 50
2, 3248520, Note_off_c, 2, 59, 0
2, 3248640, Note_on_c, 2, 57, 50
2, 3249120, Note_off_c, 2, 57, 0
2, 3249360, Note_on_c, 2, 54, 50
2, 3249480, Note_off_c, 2, 54, 0
2, 3249600, Note_on_c, 2, 57, 50
2, 3249720, Note_off_c, 2, 57, 0
2, 3249840, Note_on_c, 2, 61, 50
2, 3249960, Note_off_c, 2, 61, 0
2, 3250080, Note_on_c, 2, 59, 50
2, 3250200, Note_off_c, 2, 59, 0
2, 3250320, Note_on_c, 2, 57, 50
2, 3250560, Note_off_c, 2, 57, 0
2, 3250560, Note_on_c, 2, 54, 50
2, 3251160, Note_off_c, 2, 54, 0
2, 3251280, Note_on_c, 2, 57, 50
2, 3251400, Note_off_c, 2, 57, 0
2, 3251520, Note_on_c, 2, 57, 50
2, 3252120, Note_off_c, 2, 57, 0
2, 3252240, Note_on_c, 2, 61, 50
2, 3252480, Note_off_c, 2, 61, 0
2, 3252480, Note_on_c, 2, 59, 50
2, 3252960, Note_off_c, 2, 59, 0
2, 3253200, Note_on_c, 2, 59, 50
2, 3253440, Note_off_c, 2, 59, 0
2, 3253440, Note_on_c, 2, 57, 50
2, 3254160, Note_off_c, 2, 57, 0
2, 3255120, Note_on_c, 2, 57, 50
2, 3255360, Note_off_c, 2, 57, 0
2, 3255360, Note_on_c, 2, 59, 50
2, 3255600, Note_off_c, 2, 59, 0
2, 3255600, Note_on_c, 2, 61, 50
2, 3255840, Note_off_c, 2, 61, 0
2, 3255840, Note_on_c, 2, 59, 50
2, 3256080, Note_off_c, 2, 59, 0
2, 3256080, Note_on_c, 2, 57, 50
2, 3256560, Note_off_c, 2, 57, 0
2, 3256560, Note_on_c, 2, 59, 50
2, 3256680, Note_off_c, 2, 59, 0
2, 3256800, Note_on_c, 2, 59, 50
2, 3257160, Note_off_c, 2, 59, 0
2, 3257280, Note_on_c, 2, 54, 50
2, 3258600, Note_off_c, 2, 54, 0
2, 3258960, Note_on_c, 2, 57, 50
2, 3259200, Note_off_c, 2, 57, 0
2, 3259200, Note_on_c, 2, 59, 50
2, 3259320, Note_off_c, 2, 59, 0
2, 3259440, Note_on_c, 2, 61, 50
2, 3259680, Note_off_c, 2, 61, 0
2, 3259680, Note_on_c, 2, 59, 50
2, 3259920, Note_off_c, 2, 59, 0
2, 3259920, Note_on_c, 2, 57, 50
2, 3260280, Note_off_c, 2, 57, 0
2, 3260400, Note_on_c, 2, 69, 50
2, 3260520, Note_off_c, 2, 69, 0
2, 3260640, Note_on_c, 2, 69, 50
2, 3261000, Note_off_c, 2, 69, 0
2, 3261120, Note_on_c, 2, 68, 50
2, 3262800, Note_off_c, 2, 68, 0
2, 3262800, Note_on_c, 2, 59, 50
2, 3263040, Note_off_c, 2, 59, 0
2, 3263280, Note_on_c, 2, 60, 50
2, 3263400, Note_off_c, 2, 60, 0
2, 3263520, Note_on_c, 2, 59, 50
2, 3263880, Note_off_c, 2, 59, 0
2, 3264000, Note_on_c, 2, 57, 50
2, 3264480, Note_off_c, 2, 57, 0
2, 3264720, Note_on_c, 2, 54, 50
2, 3264840, Note_off_c, 2, 54, 0
2, 3264960, Note_on_c, 2, 57, 50
2, 3265080, Note_off_c, 2, 57, 0
2, 3265200, Note_on_c, 2, 61, 50
2, 3265320, Note_off_c, 2, 61, 0
2, 3265440, Note_on_c, 2, 59, 50
2, 3265560, Note_off_c, 2, 59, 0
2, 3265680, Note_on_c, 2, 57, 50
2, 3265920, Note_off_c, 2, 57, 0
2, 3265920, Note_on_c, 2, 54, 50
2, 3266520, Note_off_c, 2, 54, 0
2, 3266640, Note_on_c, 2, 57, 50
2, 3266760, Note_off_c, 2, 57, 0
2, 3266880, Note_on_c, 2, 57, 50
2, 3267480, Note_off_c, 2, 57, 0
2, 3267600, Note_on_c, 2, 61, 50
2, 3267840, Note_off_c, 2, 61, 0
2, 3267840, Note_on_c, 2, 59, 50
2, 3268320, Note_off_c, 2, 59, 0
2, 3268560, Note_on_c, 2, 59, 50
2, 3268800, Note_off_c, 2, 59, 0
2, 3268800, Note_on_c, 2, 57, 50
2, 3269520, Note_off_c, 2, 57, 0
2, 3270480, Note_on_c, 2, 52, 50
2, 3270600, Note_off_c, 2, 52, 0
2, 3270720, Note_on_c, 2, 54, 50
2, 3270840, Note_off_c, 2, 54, 0
2, 3270960, Note_on_c, 2, 55, 50
2, 3271680, Note_off_c, 2, 55, 0
2, 3271680, Note_on_c, 2, 54, 50
2, 3271800, Note_off_c, 2, 54, 0
2, 3271920, Note_on_c, 2, 55, 50
2, 3272640, Note_off_c, 2, 55, 0
2, 3272640, Note_on_c, 2, 57, 50
2, 3272880, Note_off_c, 2, 57, 0
2, 3272880, Note_on_c, 2, 55, 50
2, 3273120, Note_off_c, 2, 55, 0
2, 3273120, Note_on_c, 2, 54, 50
2, 3273360, Note_off_c, 2, 54, 0
2, 3273360, Note_on_c, 2, 52, 50
2, 3274440, Note_off_c, 2, 52, 0
2, 3274560, Note_on_c, 2, 49, 50
2, 3274800, Note_off_c, 2, 49, 0
2, 3274800, Note_on_c, 2, 50, 50
2, 3275160, Note_off_c, 2, 50, 0
2, 3275280, Note_on_c, 2, 54, 50
2, 3275760, Note_off_c, 2, 54, 0
2, 3275760, Note_on_c, 2, 57, 50
2, 3276240, Note_off_c, 2, 57, 0
2, 3276240, Note_on_c, 2, 55, 50
2, 3276720, Note_off_c, 2, 55, 0
2, 3276720, Note_on_c, 2, 54, 50
2, 3277920, Note_off_c, 2, 54, 0
2, 3278160, Note_on_c, 2, 54, 50
2, 3278400, Note_off_c, 2, 54, 0
2, 3278400, Note_on_c, 2, 56, 50
2, 3278640, Note_off_c, 2, 56, 0
2, 3278640, Note_on_c, 2, 57, 50
2, 3279360, Note_off_c, 2, 57, 0
2, 3279360, Note_on_c, 2, 56, 50
2, 3279600, Note_off_c, 2, 56, 0
2, 3279600, Note_on_c, 2, 57, 50
2, 3280320, Note_off_c, 2, 57, 0
2, 3280320, Note_on_c, 2, 59, 50
2, 3280560, Note_off_c, 2, 59, 0
2, 3280560, Note_on_c, 2, 57, 50
2, 3280920, Note_off_c, 2, 57, 0
2, 3281040, Note_on_c, 2, 54, 50
2, 3282240, Note_off_c, 2, 54, 0
2, 3282240, Note_on_c, 2, 52, 50
2, 3282480, Note_off_c, 2, 52, 0
2, 3282480, Note_on_c, 2, 59, 50
2, 3282960, Note_off_c, 2, 59, 0
2, 3282960, Note_on_c, 2, 52, 50
2, 3283320, Note_off_c, 2, 52, 0
2, 3283440, Note_on_c, 2, 52, 50
2, 3283800, Note_off_c, 2, 52, 0
2, 3283920, Note_on_c, 2, 52, 50
2, 3284160, Note_off_c, 2, 52, 0
2, 3284400, Note_on_c, 2, 52, 50
2, 3286320, Note_off_c, 2, 52, 0
2, 3286320, Note_on_c, 2, 61, 50
2, 3286560, Note_off_c, 2, 61, 0
2, 3286560, Note_on_c, 2, 59, 50
2, 3286800, Note_off_c, 2, 59, 0
2, 3286800, Note_on_c, 2, 57, 50
2, 3287280, Note_off_c, 2, 57, 0
2, 3287280, Note_on_c, 2, 59, 50
2, 3287400, Note_off_c, 2, 59, 0
2, 3287520, Note_on_c, 2, 59, 50
2, 3287880, Note_off_c, 2, 59, 0
2, 3288000, Note_on_c, 2, 54, 50
2, 3289320, Note_off_c, 2, 54, 0
2, 3289680, Note_on_c, 2, 57, 50
2, 3289920, Note_off_c, 2, 57, 0
2, 3289920, Note_on_c, 2, 59, 50
2, 3290040, Note_off_c, 2, 59, 0
2, 3290160, Note_on_c, 2, 61, 50
2, 3290400, Note_off_c, 2, 61, 0
2, 3290400, Note_on_c, 2, 59, 50
2, 3290640, Note_off_c, 2, 59, 0
2, 3290640, Note_on_c, 2, 57, 50
2, 3291000, Note_off_c, 2, 57, 0
2, 3291120, Note_on_c, 2, 69, 50
2, 3291240, Note_off_c, 2, 69, 0
2, 3291360, Note_on_c, 2, 69, 50
2, 3291720, Note_off_c, 2, 69, 0
2, 3291840, Note_on_c, 2, 68, 50
2, 3293520, Note_off_c, 2, 68, 0
2, 3293520, Note_on_c, 2, 59, 50
2, 3293760, Note_off_c, 2, 59, 0
2, 3294000, Note_on_c, 2, 60, 50
2, 3294120, Note_off_c, 2, 60, 0
2, 3294240, Note_on_c, 2, 59, 50
2, 3294600, Note_off_c, 2, 59, 0
2, 3294720, Note_on_c, 2, 57, 50
2, 3295200, Note_off_c, 2, 57, 0
2, 3295440, Note_on_c, 2, 54, 50
2, 3295560, Note_off_c, 2, 54, 0
2, 3295680, Note_on_c, 2, 57, 50
2, 3295800, Note_off_c, 2, 57, 0
2, 3295920, Note_on_c, 2, 61, 50
2, 3296040, Note_off_c, 2, 61, 0
2, 3296160, Note_on_c, 2, 59, 50
2, 3296280, Note_off_c, 2, 59, 0
2, 3296400, Note_on_c, 2, 57, 50
2, 3296640, Note_off_c, 2, 57, 0
2, 3296640, Note_on_c, 2, 54, 50
2, 3297240, Note_off_c, 2, 54, 0
2, 3297360, Note_on_c, 2, 57, 50
2, 3297480, Note_off_c, 2, 57, 0
2, 3297600, Note_on_c, 2, 57, 50
2, 3298200, Note_off_c, 2, 57, 0
2, 3298320, Note_on_c, 2, 61, 50
2, 3298560, Note_off_c, 2, 61, 0
2, 3298560, Note_on_c, 2, 59, 50
2, 3299040, Note_off_c, 2, 59, 0
2, 3299280, Note_on_c, 2, 59, 50
2, 3299520, Note_off_c, 2, 59, 0
2, 3299520, Note_on_c, 2, 57, 50
2, 3300240, Note_off_c, 2, 57, 0
2, 3304080, Note_on_c, 2, 59, 50
2, 3304440, Note_off_c, 2, 59, 0
2, 3304560, Note_on_c, 2, 57, 50
2, 3305040, Note_off_c, 2, 57, 0
2, 3307920, Note_on_c, 2, 59, 50
2, 3308760, Note_off_c, 2, 59, 0
2, 3308880, Note_on_c, 2, 59, 50
2, 3309120, Note_off_c, 2, 59, 0
2, 3309360, Note_on_c, 2, 60, 50
2, 3309480, Note_off_c, 2, 60, 0
2, 3309600, Note_on_c, 2, 59, 50
2, 3309960, Note_off_c, 2, 59, 0
2, 3310080, Note_on_c, 2, 57, 50
2, 3310560, Note_off_c, 2, 57, 0
2, 3310800, Note_on_c, 2, 54, 50
2, 3310920, Note_off_c, 2, 54, 0
2, 3311040, Note_on_c, 2, 57, 50
2, 3311160, Note_off_c, 2, 57, 0
2, 3311280, Note_on_c, 2, 61, 50
2, 3311400, Note_off_c, 2, 61, 0
2, 3311520, Note_on_c, 2, 59, 50
2, 3311640, Note_off_c, 2, 59, 0
2, 3311760, Note_on_c, 2, 57, 50
2, 3312000, Note_off_c, 2, 57, 0
2, 3312000, Note_on_c, 2, 54, 50
2, 3312600, Note_off_c, 2, 54, 0
2, 3312720, Note_on_c, 2, 57, 50
2, 3312840, Note_off_c, 2, 57, 0
2, 3312960, Note_on_c, 2, 57, 50
2, 3313560, Note_off_c, 2, 57, 0
2, 3313680, Note_on_c, 2, 61, 50
2, 3313920, Note_off_c, 2, 61, 0
2, 3313920, Note_on_c, 2, 59, 50
2, 3314400, Note_off_c, 2, 59, 0
2, 3314640, Note_on_c, 2, 59, 50
2, 3314880, Note_off_c, 2, 59, 0
2, 3314880, Note_on_c, 2, 57, 50
2, 3315600, Note_off_c, 2, 57, 0
2, 3316560, Note_on_c, 2, 52, 50
2, 3316680, Note_off_c, 2, 52, 0
2, 3316800, Note_on_c, 2, 54, 50
2, 3316920, Note_off_c, 2, 54, 0
2, 3317040, Note_on_c, 2, 55, 50
2, 3317760, Note_off_c, 2, 55, 0
2, 3317760, Note_on_c, 2, 54, 50
2, 3317880, Note_off_c, 2, 54, 0
2, 3318000, Note_on_c, 2, 55, 50
2, 3318720, Note_off_c, 2, 55, 0
2, 3318720, Note_on_c, 2, 57, 50
2, 3318960, Note_off_c, 2, 57, 0
2, 3318960, Note_on_c, 2, 55, 50
2, 3319200, Note_off_c, 2, 55, 0
2, 3319200, Note_on_c, 2, 54, 50
2, 3319440, Note_off_c, 2, 54, 0
2, 3319440, Note_on_c, 2, 52, 50
2, 3320520, Note_off_c, 2, 52, 0
2, 3320640, Note_on_c, 2, 49, 50
2, 3320880, Note_off_c, 2, 49, 0
2, 3320880, Note_on_c, 2, 50, 50
2, 3321240, Note_off_c, 2, 50, 0
2, 3321360, Note_on_c, 2, 54, 50
2, 3321840, Note_off_c, 2, 54, 0
2, 3321840, Note_on_c, 2, 57, 50
2, 3322320, Note_off_c, 2, 57, 0
2, 3322320, Note_on_c, 2, 55, 50
2, 3322800, Note_off_c, 2, 55, 0
2, 3322800, Note_on_c, 2, 54, 50
2, 3324000, Note_off_c, 2, 54, 0
2, 3324240, Note_on_c, 2, 54, 50
2, 3324480, Note_off_c, 2, 54, 0
2, 3324480, Note_on_c, 2, 56, 50
2, 3324720, Note_off_c, 2, 56, 0
2, 3324720, Note_on_c, 2, 57, 50
2, 3325440, Note_off_c, 2, 57, 0
2, 3325440, Note_on_c, 2, 56, 50
2, 3325680, Note_off_c, 2, 56, 0
2, 3325680, Note_on_c, 2, 57, 50
2, 3326400, Note_off_c, 2, 57, 0
2, 3326400, Note_on_c, 2, 59, 50
2, 3326640, Note_off_c, 2, 59, 0
2, 3326640, Note_on_c, 2, 57, 50
2, 3327000, Note_off_c, 2, 57, 0
2, 3327120, Note_on_c, 2, 54, 50
2, 3328320, Note_off_c, 2, 54, 0
2, 3328320, Note_on_c, 2, 52, 50
2, 3328560, Note_off_c, 2, 52, 0
2, 3328560, Note_on_c, 2, 59, 50
2, 3329040, Note_off_c, 2, 59, 0
2, 3329040, Note_on_c, 2, 52, 50
2, 3329400, Note_off_c, 2, 52, 0
2, 3329520, Note_on_c, 2, 52, 50
2, 3329880, Note_off_c, 2, 52, 0
2, 3330000, Note_on_c, 2, 52, 50
2, 3330240, Note_off_c, 2, 52, 0
2, 3330480, Note_on_c, 2, 52, 50
2, 3332400, Note_off_c, 2, 52, 0
2, 3332400, Note_on_c, 2, 61, 50
2, 3332640, Note_off_c, 2, 61, 0
2, 3332640, Note_on_c, 2, 59, 50
2, 3332880, Note_off_c, 2, 59, 0
2, 3332880, Note_on_c, 2, 57, 50
2, 3333360, Note_off_c, 2, 57, 0
2, 3333360, Note_on_c, 2, 59, 50
2, 3333480, Note_off_c, 2, 59, 0
2, 3333600, Note_on_c, 2, 59, 50
2, 3333960, Note_off_c, 2, 59, 0
2, 3334080, Note_on_c, 2, 54, 50
2, 3335400, Note_off_c, 2, 54, 0
2, 3335760, Note_on_c, 2, 57, 50
2, 3336000, Note_off_c, 2, 57, 0
2, 3336000, Note_on_c, 2, 59, 50
2, 3336120, Note_off_c, 2, 59, 0
2, 3336240, Note_on_c, 2, 61, 50
2, 3336480, Note_off_c, 2, 61, 0
2, 3336480, Note_on_c, 2, 59, 50
2, 3336720, Note_off_c, 2, 59, 0
2, 3336720, Note_on_c, 2, 57, 50
2, 3337080, Note_off_c, 2, 57, 0
2, 3337200, Note_on_c, 2, 69, 50
2, 3337320, Note_off_c, 2, 69, 0
2, 3337440, Note_on_c, 2, 69, 50
2, 3337800, Note_off_c, 2, 69, 0
2, 3337920, Note_on_c, 2, 68, 50
2, 3339600, Note_off_c, 2, 68, 0
2, 3339600, Note_on_c, 2, 59, 50
2, 3339840, Note_off_c, 2, 59, 0
2, 3340080, Note_on_c, 2, 60, 50
2, 3340200, Note_off_c, 2, 60, 0
2, 3340320, Note_on_c, 2, 59, 50
2, 3340680, Note_off_c, 2, 59, 0
2, 3340800, Note_on_c, 2, 57, 50
2, 3341280, Note_off_c, 2, 57, 0
2, 3341520, Note_on_c, 2, 54, 50
2, 3341640, Note_off_c, 2, 54, 0
2, 3341760, Note_on_c, 2, 57, 50
2, 3341880, Note_off_c, 2, 57, 0
2, 3342000, Note_on_c, 2, 61, 50
2, 3342120, Note_off_c, 2, 61, 0
2, 3342240, Note_on_c, 2, 59, 50
2, 3342360, Note_off_c, 2, 59, 0
2, 3342480, Note_on_c, 2, 57, 50
2, 3342720, Note_off_c, 2, 57, 0
2, 3342720, Note_on_c, 2, 54, 50
2, 3343320, Note_off_c, 2, 54, 0
2, 3343440, Note_on_c, 2, 57, 50
2, 3343560, Note_off_c, 2, 57, 0
2, 3343680, Note_on_c, 2, 57, 50
2, 3344280, Note_off_c, 2, 57, 0
2, 3344400, Note_on_c, 2, 61, 50
2, 3344640, Note_off_c, 2, 61, 0
2, 3344640, Note_on_c, 2, 59, 50
2, 3345120, Note_off_c, 2, 59, 0
2, 3345360, Note_on_c, 2, 59, 50
2, 3345600, Note_off_c, 2, 59, 0
2, 3345600, Note_on_c, 2, 57, 50
2, 3346320, Note_off_c, 2, 57, 0
2, 3347280, Note_on_c, 2, 59, 50
2, 3347520, Note_off_c, 2, 59, 0
2, 3347520, Note_on_c, 2, 57, 50
2, 3347760, Note_off_c, 2, 57, 0
2, 3349200, Note_on_c, 2, 59, 50
2, 3349440, Note_off_c, 2, 59, 0
2, 3349440, Note_on_c, 2, 57, 50
2, 3349680, Note_off_c, 2, 57, 0
2, 3351120, Note_on_c, 2, 59, 50
2, 3351600, Note_off_c, 2, 59, 0
2, 3351600, Note_on_c, 2, 57, 50
2, 3353520, Note_off_c, 2, 57, 0
2, 3368400, Note_on_c, 2, 76, 50
2, 3368640, Note_off_c, 2, 76, 0
2, 3368640, Note_on_c, 2, 76, 50
2, 3368880, Note_off_c, 2, 76, 0
2, 3368880, Note_on_c, 2, 76, 50
2, 3369120, Note_off_c, 2, 76, 0
2, 3369120, Note_on_c, 2, 76, 50
2, 3369360, Note_off_c, 2, 76, 0
2, 3369360, Note_on_c, 2, 76, 50
2, 3369840, Note_off_c, 2, 76, 0
2, 3369840, Note_on_c, 2, 78, 50
2, 3370080, Note_off_c, 2, 78, 0
2, 3370080, Note_on_c, 2, 79, 50
2, 3370560, Note_off_c, 2, 79, 0
2, 3370560, Note_on_c, 2, 79, 50
2, 3370800, Note_off_c, 2, 79, 0
2, 3370800, Note_on_c, 2, 79, 50
2, 3371040, Note_off_c, 2, 79, 0
2, 3371040, Note_on_c, 2, 79, 50
2, 3371280, Note_off_c, 2, 79, 0
2, 3371280, Note_on_c, 2, 78, 50
2, 3371520, Note_off_c, 2, 78, 0
2, 3371520, Note_on_c, 2, 76, 50
2, 3371760, Note_off_c, 2, 76, 0
2, 3372000, Note_on_c, 2, 74, 50
2, 3372480, Note_off_c, 2, 74, 0
2, 3372480, Note_on_c, 2, 74, 50
2, 3372720, Note_off_c, 2, 74, 0
2, 3372720, Note_on_c, 2, 74, 50
2, 3372960, Note_off_c, 2, 74, 0
2, 3372960, Note_on_c, 2, 74, 50
2, 3373200, Note_off_c, 2, 74, 0
2, 3373200, Note_on_c, 2, 69, 50
2, 3373440, Note_off_c, 2, 69, 0
2, 3373440, Note_on_c, 2, 66, 50
2, 3373920, Note_off_c, 2, 66, 0
2, 3373920, Note_on_c, 2, 64, 50
2, 3374640, Note_off_c, 2, 64, 0
2, 3375840, Note_on_c, 2, 76, 50
2, 3376320, Note_off_c, 2, 76, 0
2, 3376320, Note_on_c, 2, 76, 50
2, 3376560, Note_off_c, 2, 76, 0
2, 3376560, Note_on_c, 2, 76, 50
2, 3376800, Note_off_c, 2, 76, 0
2, 3376800, Note_on_c, 2, 76, 50
2, 3377040, Note_off_c, 2, 76, 0
2, 3377040, Note_on_c, 2, 76, 50
2, 3377520, Note_off_c, 2, 76, 0
2, 3377520, Note_on_c, 2, 78, 50
2, 3377760, Note_off_c, 2, 78, 0
2, 3377760, Note_on_c, 2, 79, 50
2, 3378240, Note_off_c, 2, 79, 0
2, 3378240, Note_on_c, 2, 79, 50
2, 3378480, Note_off_c, 2, 79, 0
2, 3378480, Note_on_c, 2, 79, 50
2, 3378720, Note_off_c, 2, 79, 0
2, 3378720, Note_on_c, 2, 79, 50
2, 3378960, Note_off_c, 2, 79, 0
2, 3378960, Note_on_c, 2, 78, 50
2, 3379200, Note_off_c, 2, 78, 0
2, 3379200, Note_on_c, 2, 76, 50
2, 3379440, Note_off_c, 2, 76, 0
2, 3379680, Note_on_c, 2, 74, 50
2, 3380160, Note_off_c, 2, 74, 0
2, 3380160, Note_on_c, 2, 74, 50
2, 3380400, Note_off_c, 2, 74, 0
2, 3380400, Note_on_c, 2, 74, 50
2, 3380640, Note_off_c, 2, 74, 0
2, 3380640, Note_on_c, 2, 74, 50
2, 3380880, Note_off_c, 2, 74, 0
2, 3380880, Note_on_c, 2, 69, 50
2, 3381360, Note_off_c, 2, 69, 0
2, 3381360, Note_on_c, 2, 66, 50
2, 3381600, Note_off_c, 2, 66, 0
2, 3381600, Note_on_c, 2, 64, 50
2, 3382320, Note_off_c, 2, 64, 0
2, 3383280, Note_on_c, 2, 78, 50
2, 3383520, Note_off_c, 2, 78, 0
2, 3383520, Note_on_c, 2, 79, 50
2, 3384720, Note_off_c, 2, 79, 0
2, 3385200, Note_on_c, 2, 78, 50
2, 3385440, Note_off_c, 2, 78, 0
2, 3385440, Note_on_c, 2, 79, 50
2, 3386640, Note_off_c, 2, 79, 0
2, 3387120, Note_on_c, 2, 78, 50
2, 3387360, Note_off_c, 2, 78, 0
2, 3387360, Note_on_c, 2, 79, 50
2, 3387840, Note_off_c, 2, 79, 0
2, 3387840, Note_on_c, 2, 78, 50
2, 3388080, Note_off_c, 2, 78, 0
2, 3388080, Note_on_c, 2, 78, 50
2, 3388320, Note_off_c, 2, 78, 0
2, 3388320, Note_on_c, 2, 76, 50
2, 3388560, Note_off_c, 2, 76, 0
2, 3388560, Note_on_c, 2, 76, 50
2, 3389040, Note_off_c, 2, 76, 0
2, 3389040, Note_on_c, 2, 72, 50
2, 3389280, Note_off_c, 2, 72, 0
2, 3389280, Note_on_c, 2, 72, 50
2, 3389400, Note_off_c, 2, 72, 0
2, 3389400, Note_on_c, 2, 71, 50
2, 3389520, Note_off_c, 2, 71, 0
2, 3389520, Note_on_c, 2, 69, 50
2, 3390480, Note_off_c, 2, 69, 0
2, 3390960, Note_on_c, 2, 78, 50
2, 3391200, Note_off_c, 2, 78, 0
2, 3391200, Note_on_c, 2, 79, 50
2, 3392400, Note_off_c, 2, 79, 0
2, 3392880, Note_on_c, 2, 78, 50
2, 3393120, Note_off_c, 2, 78, 0
2, 3393120, Note_on_c, 2, 79, 50
2, 3394320, Note_off_c, 2, 79, 0
2, 3394800, Note_on_c, 2, 78, 50
2, 3395040, Note_off_c, 2, 78, 0
2, 3395040, Note_on_c, 2, 79, 50
2, 3395520, Note_off_c, 2, 79, 0
2, 3395520, Note_on_c, 2, 78, 50
2, 3395760, Note_off_c, 2, 78, 0
2, 3395760, Note_on_c, 2, 78, 50
2, 3396000, Note_off_c, 2, 78, 0
2, 3396000, Note_on_c, 2, 76, 50
2, 3396240, Note_off_c, 2, 76, 0
2, 3396240, Note_on_c, 2, 76, 50
2, 3396720, Note_off_c, 2, 76, 0
2, 3396720, Note_on_c, 2, 72, 50
2, 3396960, Note_off_c, 2, 72, 0
2, 3396960, Note_on_c, 2, 72, 50
2, 3397080, Note_off_c, 2, 72, 0
2, 3397080, Note_on_c, 2, 71, 50
2, 3397200, Note_off_c, 2, 71, 0
2, 3397200, Note_on_c, 2, 69, 50
2, 3398160, Note_off_c, 2, 69, 0
2, 3414000, Note_on_c, 2, 72, 50
2, 3414240, Note_off_c, 2, 72, 0
2, 3414240, Note_on_c, 2, 73, 50
2, 3415440, Note_off_c, 2, 73, 0
2, 3415920, Note_on_c, 2, 72, 50
2, 3416160, Note_off_c, 2, 72, 0
2, 3416160, Note_on_c, 2, 73, 50
2, 3417360, Note_off_c, 2, 73, 0
2, 3418080, Note_on_c, 2, 72, 50
2, 3418560, Note_off_c, 2, 72, 0
2, 3418560, Note_on_c, 2, 72, 50
2, 3418800, Note_off_c, 2, 72, 0
2, 3418800, Note_on_c, 2, 71, 50
2, 3419040, Note_off_c, 2, 71, 0
2, 3419040, Note_on_c, 2, 71, 50
2, 3419280, Note_off_c, 2, 71, 0
2, 3419280, Note_on_c, 2, 69, 50
2, 3419760, Note_off_c, 2, 69, 0
2, 3419760, Note_on_c, 2, 69, 50
2, 3420000, Note_off_c, 2, 69, 0
2, 3420000, Note_on_c, 2, 69, 50
2, 3421200, Note_off_c, 2, 69, 0
2, 3421680, Note_on_c, 2, 72, 50
2, 3421920, Note_off_c, 2, 72, 0
2, 3421920, Note_on_c, 2, 73, 50
2, 3423120, Note_off_c, 2, 73, 0
2, 3423600, Note_on_c, 2, 72, 50
2, 3423840, Note_off_c, 2, 72, 0
2, 3423840, Note_on_c, 2, 73, 50
2, 3425040, Note_off_c, 2, 73, 0
2, 3425760, Note_on_c, 2, 72, 50
2, 3426240, Note_off_c, 2, 72, 0
2, 3426240, Note_on_c, 2, 71, 50
2, 3426480, Note_off_c, 2, 71, 0
2, 3426480, Note_on_c, 2, 71, 50
2, 3426720, Note_off_c, 2, 71, 0
2, 3426720, Note_on_c, 2, 71, 50
2, 3426960, Note_off_c, 2, 71, 0
2, 3426960, Note_on_c, 2, 69, 50
2, 3427440, Note_off_c, 2, 69, 0
2, 3427440, Note_on_c, 2, 69, 50
2, 3427680, Note_off_c, 2, 69, 0
2, 3427680, Note_on_c, 2, 69, 50
2, 3429600, Note_off_c, 2, 69, 0
2, 3429600, Note_on_c, 2, 69, 50
2, 3431520, Note_off_c, 2, 69, 0
2, 3431520, Note_on_c, 2, 69, 50
2, 3431760, Note_off_c, 2, 69, 0
2, 3447120, Note_on_c, 2, 76, 50
2, 3447360, Note_off_c, 2, 76, 0
2, 3447360, Note_on_c, 2, 76, 50
2, 3447600, Note_off_c, 2, 76, 0
2, 3447600, Note_on_c, 2, 76, 50
2, 3447840, Note_off_c, 2, 76, 0
2, 3447840, Note_on_c, 2, 76, 50
2, 3448080, Note_off_c, 2, 76, 0
2, 3448080, Note_on_c, 2, 76, 50
2, 3448560, Note_off_c, 2, 76, 0
2, 3448560, Note_on_c, 2, 78, 50
2, 3448800, Note_off_c, 2, 78, 0
2, 3448800, Note_on_c, 2, 79, 50
2, 3449280, Note_off_c, 2, 79, 0
2, 3449280, Note_on_c, 2, 79, 50
2, 3449520, Note_off_c, 2, 79, 0
2, 3449520, Note_on_c, 2, 79, 50
2, 3449760, Note_off_c, 2, 79, 0
2, 3449760, Note_on_c, 2, 79, 50
2, 3450000, Note_off_c, 2, 79, 0
2, 3450000, Note_on_c, 2, 78, 50
2, 3450240, Note_off_c, 2, 78, 0
2, 3450240, Note_on_c, 2, 76, 50
2, 3450480, Note_off_c, 2, 76, 0
2, 3450720, Note_on_c, 2, 74, 50
2, 3451200, Note_off_c, 2, 74, 0
2, 3451200, Note_on_c, 2, 74, 50
2, 3451440, Note_off_c, 2, 74, 0
2, 3451440, Note_on_c, 2, 74, 50
2, 3451680, Note_off_c, 2, 74, 0
2, 3451680, Note_on_c, 2, 74, 50
2, 3451920, Note_off_c, 2, 74, 0
2, 3451920, Note_on_c, 2, 69, 50
2, 3452160, Note_off_c, 2, 69, 0
2, 3452160, Note_on_c, 2, 66, 50
2, 3452640, Note_off_c, 2, 66, 0
2, 3452640, Note_on_c, 2, 64, 50
2, 3453360, Note_off_c, 2, 64, 0
2, 3454560, Note_on_c, 2, 76, 50
2, 3455040, Note_off_c, 2, 76, 0
2, 3455040, Note_on_c, 2, 76, 50
2, 3455280, Note_off_c, 2, 76, 0
2, 3455280, Note_on_c, 2, 76, 50
2, 3455520, Note_off_c, 2, 76, 0
2, 3455520, Note_on_c, 2, 76, 50
2, 3455760, Note_off_c, 2, 76, 0
2, 3455760, Note_on_c, 2, 76, 50
2, 3456240, Note_off_c, 2, 76, 0
2, 3456240, Note_on_c, 2, 78, 50
2, 3456480, Note_off_c, 2, 78, 0
2, 3456480, Note_on_c, 2, 79, 50
2, 3456960, Note_off_c, 2, 79, 0
2, 3456960, Note_on_c, 2, 79, 50
2, 3457200, Note_off_c, 2, 79, 0
2, 3457200, Note_on_c, 2, 79, 50
2, 3457440, Note_off_c, 2, 79, 0
2, 3457440, Note_on_c, 2, 79, 50
2, 3457680, Note_off_c, 2, 79, 0
2, 3457680, Note_on_c, 2, 78, 50
2, 3457920, Note_off_c, 2, 78, 0
2, 3457920, Note_on_c, 2, 76, 50
2, 3458160, Note_off_c, 2, 76, 0
2, 3458400, Note_on_c, 2, 74, 50
2, 3458880, Note_off_c, 2, 74, 0
2, 3458880, Note_on_c, 2, 74, 50
2, 3459120, Note_off_c, 2, 74, 0
2, 3459120, Note_on_c, 2, 74, 50
2, 3459360, Note_off_c, 2, 74, 0
2, 3459360, Note_on_c, 2, 74, 50
2, 3459600, Note_off_c, 2, 74, 0
2, 3459600, Note_on_c, 2, 69, 50
2, 3460080, Note_off_c, 2, 69, 0
2, 3460080, Note_on_c, 2, 66, 50
2, 3460320, Note_off_c, 2, 66, 0
2, 3460320, Note_on_c, 2, 64, 50
2, 3461040, Note_off_c, 2, 64, 0
2, 3462000, Note_on_c, 2, 78, 50
2, 3462240, Note_off_c, 2, 78, 0
2, 3462240, Note_on_c, 2, 79, 50
2, 3463440, Note_off_c, 2, 79, 0
2, 3463920, Note_on_c, 2, 78, 50
2, 3464160, Note_off_c, 2, 78, 0
2, 3464160, Note_on_c, 2, 79, 50
2, 3465360, Note_off_c, 2, 79, 0
2, 3465840, Note_on_c, 2, 78, 50
2, 3466080, Note_off_c, 2, 78, 0
2, 3466080, Note_on_c, 2, 79, 50
2, 3466560, Note_off_c, 2, 79, 0
2, 3466560, Note_on_c, 2, 78, 50
2, 3466800, Note_off_c, 2, 78, 0
2, 3466800, Note_on_c, 2, 78, 50
2, 3467040, Note_off_c, 2, 78, 0
2, 3467040, Note_on_c, 2, 76, 50
2, 3467280, Note_off_c, 2, 76, 0
2, 3467280, Note_on_c, 2, 76, 50
2, 3467760, Note_off_c, 2, 76, 0
2, 3467760, Note_on_c, 2, 72, 50
2, 3468000, Note_off_c, 2, 72, 0
2, 3468000, Note_on_c, 2, 72, 50
2, 3468120, Note_off_c, 2, 72, 0
2, 3468120, Note_on_c, 2, 71, 50
2, 3468240, Note_off_c, 2, 71, 0
2, 3468240, Note_on_c, 2, 69, 50
2, 3469200, Note_off_c, 2, 69, 0
2, 3469680, Note_on_c, 2, 78, 50
2, 3469920, Note_off_c, 2, 78, 0
2, 3469920, Note_on_c, 2, 79, 50
2, 3471120, Note_off_c, 2, 79, 0
2, 3471600, Note_on_c, 2, 78, 50
2, 3471840, Note_off_c, 2, 78, 0
2, 3471840, Note_on_c, 2, 79, 50
2, 3473040, Note_off_c, 2, 79, 0
2, 3473520, Note_on_c, 2, 78, 50
2, 3473760, Note_off_c, 2, 78, 0
2, 3473760, Note_on_c, 2, 79, 50
2, 3474240, Note_off_c, 2, 79, 0
2, 3474240, Note_on_c, 2, 78, 50
2, 3474480, Note_off_c, 2, 78, 0
2, 3474480, Note_on_c, 2, 78, 50
2, 3474720, Note_off_c, 2, 78, 0
2, 3474720, Note_on_c, 2, 76, 50
2, 3474960, Note_off_c, 2, 76, 0
2, 3474960, Note_on_c, 2, 76, 50
2, 3475440, Note_off_c, 2, 76, 0
2, 3475440, Note_on_c, 2, 72, 50
2, 3475680, Note_off_c, 2, 72, 0
2, 3475680, Note_on_c, 2, 72, 50
2, 3475800, Note_off_c, 2, 72, 0
2, 3475800, Note_on_c, 2, 71, 50
2, 3475920, Note_off_c, 2, 71, 0
2, 3475920, Note_on_c, 2, 69, 50
2, 3476880, Note_off_c, 2, 69, 0
2, 3492480, Note_on_c, 2, 79, 50
2, 3492720, Note_off_c, 2, 79, 0
2, 3492720, Note_on_c, 2, 79, 50
2, 3492960, Note_off_c, 2, 79, 0
2, 3492960, Note_on_c, 2, 79, 50
2, 3493440, Note_off_c, 2, 79, 0
2, 3493440, Note_on_c, 2, 81, 50
2, 3493680, Note_off_c, 2, 81, 0
2, 3494400, Note_on_c, 2, 79, 50
2, 3494640, Note_off_c, 2, 79, 0
2, 3494640, Note_on_c, 2, 79, 50
2, 3494880, Note_off_c, 2, 79, 0
2, 3494880, Note_on_c, 2, 79, 50
2, 3496080, Note_off_c, 2, 79, 0
2, 3496560, Note_on_c, 2, 78, 50
2, 3496800, Note_off_c, 2, 78, 0
2, 3496800, Note_on_c, 2, 79, 50
2, 3497280, Note_off_c, 2, 79, 0
2, 3497280, Note_on_c, 2, 78, 50
2, 3497520, Note_off_c, 2, 78, 0
2, 3497520, Note_on_c, 2, 78, 50
2, 3497760, Note_off_c, 2, 78, 0
2, 3497760, Note_on_c, 2, 76, 50
2, 3498000, Note_off_c, 2, 76, 0
2, 3498000, Note_on_c, 2, 76, 50
2, 3498480, Note_off_c, 2, 76, 0
2, 3498480, Note_on_c, 2, 72, 50
2, 3498720, Note_off_c, 2, 72, 0
2, 3498720, Note_on_c, 2, 72, 50
2, 3498840, Note_off_c, 2, 72, 0
2, 3498840, Note_on_c, 2, 71, 50
2, 3498960, Note_off_c, 2, 71, 0
2, 3498960, Note_on_c, 2, 69, 50
2, 3499920, Note_off_c, 2, 69, 0
2, 3500160, Note_on_c, 2, 79, 50
2, 3500400, Note_off_c, 2, 79, 0
2, 3500400, Note_on_c, 2, 79, 50
2, 3500640, Note_off_c, 2, 79, 0
2, 3500640, Note_on_c, 2, 79, 50
2, 3501120, Note_off_c, 2, 79, 0
2, 3501120, Note_on_c, 2, 81, 50
2, 3501360, Note_off_c, 2, 81, 0
2, 3502320, Note_on_c, 2, 79, 50
2, 3502560, Note_off_c, 2, 79, 0
2, 3502560, Note_on_c, 2, 81, 50
2, 3503040, Note_off_c, 2, 81, 0
2, 3503040, Note_on_c, 2, 79, 50
2, 3503520, Note_off_c, 2, 79, 0
2, 3503520, Note_on_c, 2, 76, 50
2, 3503640, Note_off_c, 2, 76, 0
2, 3503640, Note_on_c, 2, 74, 50
2, 3503760, Note_off_c, 2, 74, 0
2, 3503760, Note_on_c, 2, 72, 50
2, 3504240, Note_off_c, 2, 72, 0
2, 3504240, Note_on_c, 2, 79, 50
2, 3504480, Note_off_c, 2, 79, 0
2, 3504480, Note_on_c, 2, 79, 50
2, 3504960, Note_off_c, 2, 79, 0
2, 3504960, Note_on_c, 2, 78, 50
2, 3505200, Note_off_c, 2, 78, 0
2, 3505200, Note_on_c, 2, 78, 50
2, 3505440, Note_off_c, 2, 78, 0
2, 3505440, Note_on_c, 2, 76, 50
2, 3505680, Note_off_c, 2, 76, 0
2, 3505680, Note_on_c, 2, 76, 50
2, 3506160, Note_off_c, 2, 76, 0
2, 3506160, Note_on_c, 2, 72, 50
2, 3506400, Note_off_c, 2, 72, 0
2, 3506400, Note_on_c, 2, 72, 50
2, 3506520, Note_off_c, 2, 72, 0
2, 3506520, Note_on_c, 2, 71, 50
2, 3506640, Note_off_c, 2, 71, 0
2, 3506640, Note_on_c, 2, 69, 50
2, 3508560, Note_off_c, 2, 69, 0
2, 3508560, Note_on_c, 2, 69, 50
2, 3510480, Note_off_c, 2, 69, 0
2, 3510480, Note_on_c, 2, 81, 50
2, 3512400, Note_off_c, 2, 81, 0
2, 3512400, Note_on_c, 2, 81, 50
2, 3514320, Note_off_c, 2, 81, 0
2, 3529680, Note_on_c, 2, 79, 50
2, 3530880, Note_off_c, 2, 79, 0
2, 3531360, Note_on_c, 2, 79, 50
2, 3532560, Note_off_c, 2, 79, 0
2, 3533040, Note_on_c, 2, 78, 50
2, 3533280, Note_off_c, 2, 78, 0
2, 3533280, Note_on_c, 2, 79, 50
2, 3533760, Note_off_c, 2, 79, 0
2, 3533760, Note_on_c, 2, 78, 50
2, 3534000, Note_off_c, 2, 78, 0
2, 3534000, Note_on_c, 2, 78, 50
2, 3534240, Note_off_c, 2, 78, 0
2, 3534240, Note_on_c, 2, 76, 50
2, 3534480, Note_off_c, 2, 76, 0
2, 3534480, Note_on_c, 2, 76, 50
2, 3534960, Note_off_c, 2, 76, 0
2, 3534960, Note_on_c, 2, 72, 50
2, 3535200, Note_off_c, 2, 72, 0
2, 3535200, Note_on_c, 2, 72, 50
2, 3535320, Note_off_c, 2, 72, 0
2, 3535320, Note_on_c, 2, 71, 50
2, 3535440, Note_off_c, 2, 71, 0
2, 3535440, Note_on_c, 2, 69, 50
2, 3536400, Note_off_c, 2, 69, 0
2, 3536880, Note_on_c, 2, 78, 50
2, 3537120, Note_off_c, 2, 78, 0
2, 3537120, Note_on_c, 2, 79, 50
2, 3538320, Note_off_c, 2, 79, 0
2, 3538800, Note_on_c, 2, 78, 50
2, 3539040, Note_off_c, 2, 78, 0
2, 3539040, Note_on_c, 2, 79, 50
2, 3540240, Note_off_c, 2, 79, 0
2, 3540720, Note_on_c, 2, 78, 50
2, 3540960, Note_off_c, 2, 78, 0
2, 3540960, Note_on_c, 2, 79, 50
2, 3541440, Note_off_c, 2, 79, 0
2, 3541440, Note_on_c, 2, 78, 50
2, 3541680, Note_off_c, 2, 78, 0
2, 3541680, Note_on_c, 2, 78, 50
2, 3541920, Note_off_c, 2, 78, 0
2, 3541920, Note_on_c, 2, 76, 50
2, 3542160, Note_off_c, 2, 76, 0
2, 3542160, Note_on_c, 2, 76, 50
2, 3542640, Note_off_c, 2, 76, 0
2, 3542640, Note_on_c, 2, 72, 50
2, 3542880, Note_off_c, 2, 72, 0
2, 3542880, Note_on_c, 2, 72, 50
2, 3543000, Note_off_c, 2, 72, 0
2, 3543000, Note_on_c, 2, 71, 50
2, 3543120, Note_off_c, 2, 71, 0
2, 3543120, Note_on_c, 2, 69, 50
2, 3544080, Note_off_c, 2, 69, 0
2, 3559680, Note_on_c, 2, 79, 50
2, 3559920, Note_off_c, 2, 79, 0
2, 3559920, Note_on_c, 2, 79, 50
2, 3560160, Note_off_c, 2, 79, 0
2, 3560160, Note_on_c, 2, 79, 50
2, 3560640, Note_off_c, 2, 79, 0
2, 3560640, Note_on_c, 2, 81, 50
2, 3560880, Note_off_c, 2, 81, 0
2, 3561600, Note_on_c, 2, 79, 50
2, 3561840, Note_off_c, 2, 79, 0
2, 3561840, Note_on_c, 2, 79, 50
2, 3562080, Note_off_c, 2, 79, 0
2, 3562080, Note_on_c, 2, 79, 50
2, 3563280, Note_off_c, 2, 79, 0
2, 3563760, Note_on_c, 2, 78, 50
2, 3564000, Note_off_c, 2, 78, 0
2, 3564000, Note_on_c, 2, 79, 50
2, 3564480, Note_off_c, 2, 79, 0
2, 3564480, Note_on_c, 2, 78, 50
2, 3564720, Note_off_c, 2, 78, 0
2, 3564720, Note_on_c, 2, 78, 50
2, 3564960, Note_off_c, 2, 78, 0
2, 3564960, Note_on_c, 2, 76, 50
2, 3565200, Note_off_c, 2, 76, 0
2, 3565200, Note_on_c, 2, 76, 50
2, 3565680, Note_off_c, 2, 76, 0
2, 3565680, Note_on_c, 2, 72, 50
2, 3565920, Note_off_c, 2, 72, 0
2, 3565920, Note_on_c, 2, 72, 50
2, 3566040, Note_off_c, 2, 72, 0
2, 3566040, Note_on_c, 2, 71, 50
2, 3566160, Note_off_c, 2, 71, 0
2, 3566160, Note_on_c, 2, 69, 50
2, 3567120, Note_off_c, 2, 69, 0
2, 3567360, Note_on_c, 2, 79, 50
2, 3567600, Note_off_c, 2, 79, 0
2, 3567600, Note_on_c, 2, 79, 50
2, 3567840, Note_off_c, 2, 79, 0
2, 3567840, Note_on_c, 2, 79, 50
2, 3568320, Note_off_c, 2, 79, 0
2, 3568320, Note_on_c, 2, 81, 50
2, 3568560, Note_off_c, 2, 81, 0
2, 3569520, Note_on_c, 2, 79, 50
2, 3569760, Note_off_c, 2, 79, 0
2, 3569760, Note_on_c, 2, 81, 50
2, 3570240, Note_off_c, 2, 81, 0
2, 3570240, Note_on_c, 2, 79, 50
2, 3570720, Note_off_c, 2, 79, 0
2, 3570720, Note_on_c, 2, 76, 50
2, 3570840, Note_off_c, 2, 76, 0
2, 3570840, Note_on_c, 2, 74, 50
2, 3570960, Note_off_c, 2, 74, 0
2, 3570960, Note_on_c, 2, 72, 50
2, 3571440, Note_off_c, 2, 72, 0
2, 3571440, Note_on_c, 2, 79, 50
2, 3571680, Note_off_c, 2, 79, 0
2, 3571680, Note_on_c, 2, 79, 50
2, 3572160, Note_off_c, 2, 79, 0
2, 3572160, Note_on_c, 2, 78, 50
2, 3572400, Note_off_c, 2, 78, 0
2, 3572400, Note_on_c, 2, 78, 50
2, 3572640, Note_off_c, 2, 78, 0
2, 3572640, Note_on_c, 2, 76, 50
2, 3572880, Note_off_c, 2, 76, 0
2, 3572880, Note_on_c, 2, 76, 50
2, 3573360, Note_off_c, 2, 76, 0
2, 3573360, Note_on_c, 2, 72, 50
2, 3573600, Note_off_c, 2, 72, 0
2, 3573600, Note_on_c, 2, 72, 50
2, 3573720, Note_off_c, 2, 72, 0
2, 3573720, Note_on_c, 2, 71, 50
2, 3573840, Note_off_c, 2, 71, 0
2, 3573840, Note_on_c, 2, 69, 50
2, 3575760, Note_off_c, 2, 69, 0
2, 3587280, Note_on_c, 2, 75, 50
2, 3588000, Note_off_c, 2, 75, 0
2, 3588000, Note_on_c, 2, 72, 50
2, 3588360, Note_off_c, 2, 72, 0
2, 3588720, Note_on_c, 2, 75, 50
2, 3589320, Note_off_c, 2, 75, 0
2, 3589440, Note_on_c, 2, 72, 50
2, 3590160, Note_off_c, 2, 72, 0
2, 3591120, Note_on_c, 2, 75, 50
2, 3591840, Note_off_c, 2, 75, 0
2, 3591840, Note_on_c, 2, 72, 50
2, 3592200, Note_off_c, 2, 72, 0
2, 3592560, Note_on_c, 2, 75, 50
2, 3593280, Note_off_c, 2, 75, 0
2, 3593280, Note_on_c, 2, 72, 50
2, 3594000, Note_off_c, 2, 72, 0
2, 3594960, Note_on_c, 2, 77, 50
2, 3595680, Note_off_c, 2, 77, 0
2, 3595680, Note_on_c, 2, 75, 50
2, 3596040, Note_off_c, 2, 75, 0
2, 3596400, Note_on_c, 2, 73, 50
2, 3597120, Note_off_c, 2, 73, 0
2, 3597120, Note_on_c, 2, 71, 50
2, 3597840, Note_off_c, 2, 71, 0
2, 3598080, Note_on_c, 2, 61, 50
2, 3598320, Note_off_c, 2, 61, 0
2, 3598320, Note_on_c, 2, 66, 50
2, 3598560, Note_off_c, 2, 66, 0
2, 3598560, Note_on_c, 2, 68, 50
2, 3598800, Note_off_c, 2, 68, 0
2, 3598800, Note_on_c, 2, 70, 50
2, 3599280, Note_off_c, 2, 70, 0
2, 3600000, Note_on_c, 2, 70, 50
2, 3600240, Note_off_c, 2, 70, 0
2, 3600240, Note_on_c, 2, 70, 50
2, 3600480, Note_off_c, 2, 70, 0
2, 3600480, Note_on_c, 2, 66, 50
2, 3600720, Note_off_c, 2, 66, 0
2, 3600720, Note_on_c, 2, 68, 50
2, 3600960, Note_off_c, 2, 68, 0
2, 3600960, Note_on_c, 2, 63, 50
2, 3601200, Note_off_c, 2, 63, 0
2, 3601200, Note_on_c, 2, 66, 50
2, 3602640, Note_off_c, 2, 66, 0
2, 3602640, Note_on_c, 2, 77, 50
2, 3603120, Note_off_c, 2, 77, 0
2, 3603120, Note_on_c, 2, 75, 50
2, 3603600, Note_off_c, 2, 75, 0
2, 3603600, Note_on_c, 2, 73, 50
2, 3603840, Note_off_c, 2, 73, 0
2, 3603840, Note_on_c, 2, 73, 50
2, 3604080, Note_off_c, 2, 73, 0
2, 3604080, Note_on_c, 2, 71, 50
2, 3604320, Note_off_c, 2, 71, 0
2, 3604320, Note_on_c, 2, 70, 50
2, 3604560, Note_off_c, 2, 70, 0
2, 3604800, Note_on_c, 2, 71, 50
2, 3605040, Note_off_c, 2, 71, 0
2, 3605040, Note_on_c, 2, 70, 50
2, 3605280, Note_off_c, 2, 70, 0
2, 3605280, Note_on_c, 2, 66, 50
2, 3605640, Note_off_c, 2, 66, 0
2, 3605760, Note_on_c, 2, 66, 50
2, 3606000, Note_off_c, 2, 66, 0
2, 3606000, Note_on_c, 2, 68, 50
2, 3606480, Note_off_c, 2, 68, 0
2, 3606480, Note_on_c, 2, 70, 50
2, 3606960, Note_off_c, 2, 70, 0
2, 3607680, Note_on_c, 2, 70, 50
2, 3607920, Note_off_c, 2, 70, 0
2, 3607920, Note_on_c, 2, 70, 50
2, 3608160, Note_off_c, 2, 70, 0
2, 3608160, Note_on_c, 2, 66, 50
2, 3608400, Note_off_c, 2, 66, 0
2, 3608400, Note_on_c, 2, 68, 50
2, 3608640, Note_off_c, 2, 68, 0
2, 3608640, Note_on_c, 2, 63, 50
2, 3608880, Note_off_c, 2, 63, 0
2, 3608880, Note_on_c, 2, 66, 50
2, 3610320, Note_off_c, 2, 66, 0
2, 3610320, Note_on_c, 2, 76, 50
2, 3610800, Note_off_c, 2, 76, 0
2, 3610800, Note_on_c, 2, 75, 50
2, 3611280, Note_off_c, 2, 75, 0
2, 3611280, Note_on_c, 2, 73, 50
2, 3611520, Note_off_c, 2, 73, 0
2, 3611520, Note_on_c, 2, 73, 50
2, 3611760, Note_off_c, 2, 73, 0
2, 3611760, Note_on_c, 2, 71, 50
2, 3612000, Note_off_c, 2, 71, 0
2, 3612000, Note_on_c, 2, 70, 50
2, 3612240, Note_off_c, 2, 70, 0
2, 3612480, Note_on_c, 2, 71, 50
2, 3612720, Note_off_c, 2, 71, 0
2, 3612720, Note_on_c, 2, 70, 50
2, 3612960, Note_off_c, 2, 70, 0
2, 3612960, Note_on_c, 2, 66, 50
2, 3613320, Note_off_c, 2, 66, 0
2, 3614160, Note_on_c, 2, 75, 50
2, 3614880, Note_off_c, 2, 75, 0
2, 3614880, Note_on_c, 2, 72, 50
2, 3615600, Note_off_c, 2, 72, 0
2, 3615600, Note_on_c, 2, 75, 50
2, 3616320, Note_off_c, 2, 75, 0
2, 3616320, Note_on_c, 2, 72, 50
2, 3617040, Note_off_c, 2, 72, 0
2, 3618000, Note_on_c, 2, 75, 50
2, 3618720, Note_off_c, 2, 75, 0
2, 3618720, Note_on_c, 2, 72, 50
2, 3619440, Note_off_c, 2, 72, 0
2, 3619440, Note_on_c, 2, 75, 50
2, 3620160, Note_off_c, 2, 75, 0
2, 3620160, Note_on_c, 2, 72, 50
2, 3620880, Note_off_c, 2, 72, 0
2, 3621840, Note_on_c, 2, 77, 50
2, 3622560, Note_off_c, 2, 77, 0
2, 3622560, Note_on_c, 2, 75, 50
2, 3623280, Note_off_c, 2, 75, 0
2, 3623280, Note_on_c, 2, 73, 50
2, 3624000, Note_off_c, 2, 73, 0
2, 3624000, Note_on_c, 2, 71, 50
2, 3624720, Note_off_c, 2, 71, 0
2, 3624960, Note_on_c, 2, 66, 50
2, 3625200, Note_off_c, 2, 66, 0
2, 3625200, Note_on_c, 2, 66, 50
2, 3625440, Note_off_c, 2, 66, 0
2, 3625440, Note_on_c, 2, 68, 50
2, 3625680, Note_off_c, 2, 68, 0
2, 3625680, Note_on_c, 2, 70, 50
2, 3626160, Note_off_c, 2, 70, 0
2, 3626880, Note_on_c, 2, 70, 50
2, 3627120, Note_off_c, 2, 70, 0
2, 3627120, Note_on_c, 2, 70, 50
2, 3627360, Note_off_c, 2, 70, 0
2, 3627360, Note_on_c, 2, 66, 50
2, 3627600, Note_off_c, 2, 66, 0
2, 3627600, Note_on_c, 2, 68, 50
2, 3627840, Note_off_c, 2, 68, 0
2, 3627840, Note_on_c, 2, 63, 50
2, 3628080, Note_off_c, 2, 63, 0
2, 3628080, Note_on_c, 2, 66, 50
2, 3629520, Note_off_c, 2, 66, 0
2, 3629520, Note_on_c, 2, 76, 50
2, 3630000, Note_off_c, 2, 76, 0
2, 3630000, Note_on_c, 2, 75, 50
2, 3630480, Note_off_c, 2, 75, 0
2, 3630480, Note_on_c, 2, 73, 50
2, 3630960, Note_off_c, 2, 73, 0
2, 3630960, Note_on_c, 2, 71, 50
2, 3631200, Note_off_c, 2, 71, 0
2, 3631200, Note_on_c, 2, 70, 50
2, 3631440, Note_off_c, 2, 70, 0
2, 3631440, Note_on_c, 2, 71, 50
2, 3631680, Note_off_c, 2, 71, 0
2, 3631680, Note_on_c, 2, 70, 50
2, 3631920, Note_off_c, 2, 70, 0
2, 3631920, Note_on_c, 2, 66, 50
2, 3633840, Note_off_c, 2, 66, 0
2, 3641040, Note_on_c, 2, 77, 50
2, 3641760, Note_off_c, 2, 77, 0
2, 3641760, Note_on_c, 2, 75, 50
2, 3642480, Note_off_c, 2, 75, 0
2, 3642480, Note_on_c, 2, 73, 50
2, 3643200, Note_off_c, 2, 73, 0
2, 3643200, Note_on_c, 2, 71, 50
2, 3643920, Note_off_c, 2, 71, 0
2, 3644400, Note_on_c, 2, 75, 50
2, 3645120, Note_off_c, 2, 75, 0
2, 3645120, Note_on_c, 2, 72, 50
2, 3645840, Note_off_c, 2, 72, 0
2, 3645840, Note_on_c, 2, 77, 50
2, 3646560, Note_off_c, 2, 77, 0
2, 3646560, Note_on_c, 2, 75, 50
2, 3647280, Note_off_c, 2, 75, 0
2, 3648240, Note_on_c, 2, 75, 50
2, 3648960, Note_off_c, 2, 75, 0
2, 3648960, Note_on_c, 2, 72, 50
2, 3649680, Note_off_c, 2, 72, 0
2, 3649680, Note_on_c, 2, 77, 50
2, 3650400, Note_off_c, 2, 77, 0
2, 3650400, Note_on_c, 2, 75, 50
2, 3651120, Note_off_c, 2, 75, 0
2, 3651360, Note_on_c, 2, 61, 50
2, 3651600, Note_off_c, 2, 61, 0
2, 3651600, Note_on_c, 2, 66, 50
2, 3651840, Note_off_c, 2, 66, 0
2, 3651840, Note_on_c, 2, 68, 50
2, 3652080, Note_off_c, 2, 68, 0
2, 3652080, Note_on_c, 2, 70, 50
2, 3652560, Note_off_c, 2, 70, 0
2, 3653280, Note_on_c, 2, 70, 50
2, 3653520, Note_off_c, 2, 70, 0
2, 3653520, Note_on_c, 2, 70, 50
2, 3653760, Note_off_c, 2, 70, 0
2, 3653760, Note_on_c, 2, 66, 50
2, 3654000, Note_off_c, 2, 66, 0
2, 3654000, Note_on_c, 2, 68, 50
2, 3654240, Note_off_c, 2, 68, 0
2, 3654240, Note_on_c, 2, 63, 50
2, 3654480, Note_off_c, 2, 63, 0
2, 3654480, Note_on_c, 2, 66, 50
2, 3655920, Note_off_c, 2, 66, 0
2, 3655920, Note_on_c, 2, 77, 50
2, 3656400, Note_off_c, 2, 77, 0
2, 3656400, Note_on_c, 2, 75, 50
2, 3656880, Note_off_c, 2, 75, 0
2, 3656880, Note_on_c, 2, 73, 50
2, 3657120, Note_off_c, 2, 73, 0
2, 3657120, Note_on_c, 2, 73, 50
2, 3657360, Note_off_c, 2, 73, 0
2, 3657360, Note_on_c, 2, 71, 50
2, 3657600, Note_off_c, 2, 71, 0
2, 3657600, Note_on_c, 2, 70, 50
2, 3657840, Note_off_c, 2, 70, 0
2, 3658080, Note_on_c, 2, 71, 50
2, 3658320, Note_off_c, 2, 71, 0
2, 3658320, Note_on_c, 2, 70, 50
2, 3658560, Note_off_c, 2, 70, 0
2, 3658560, Note_on_c, 2, 66, 50
2, 3658920, Note_off_c, 2, 66, 0
2, 3659040, Note_on_c, 2, 66, 50
2, 3659280, Note_off_c, 2, 66, 0
2, 3659280, Note_on_c, 2, 68, 50
2, 3659760, Note_off_c, 2, 68, 0
2, 3659760, Note_on_c, 2, 70, 50
2, 3660240, Note_off_c, 2, 70, 0
2, 3660960, Note_on_c, 2, 70, 50
2, 3661200, Note_off_c, 2, 70, 0
2, 3661200, Note_on_c, 2, 70, 50
2, 3661440, Note_off_c, 2, 70, 0
2, 3661440, Note_on_c, 2, 66, 50
2, 3661680, Note_off_c, 2, 66, 0
2, 3661680, Note_on_c, 2, 68, 50
2, 3661920, Note_off_c, 2, 68, 0
2, 3661920, Note_on_c, 2, 63, 50
2, 3662160, Note_off_c, 2, 63, 0
2, 3662160, Note_on_c, 2, 66, 50
2, 3663600, Note_off_c, 2, 66, 0
2, 3663600, Note_on_c, 2, 76, 50
2, 3664080, Note_off_c, 2, 76, 0
2, 3664080, Note_on_c, 2, 75, 50
2, 3664560, Note_off_c, 2, 75, 0
2, 3664560, Note_on_c, 2, 73, 50
2, 3664800, Note_off_c, 2, 73, 0
2, 3664800, Note_on_c, 2, 73, 50
2, 3665040, Note_off_c, 2, 73, 0
2, 3665040, Note_on_c, 2, 71, 50
2, 3665280, Note_off_c, 2, 71, 0
2, 3665280, Note_on_c, 2, 70, 50
2, 3665520, Note_off_c, 2, 70, 0
2, 3665760, Note_on_c, 2, 71, 50
2, 3666000, Note_off_c, 2, 71, 0
2, 3666000, Note_on_c, 2, 70, 50
2, 3666240, Note_off_c, 2, 70, 0
2, 3666240, Note_on_c, 2, 66, 50
2, 3666600, Note_off_c, 2, 66, 0
2, 3667440, Note_on_c, 2, 75, 50
2, 3668160, Note_off_c, 2, 75, 0
2, 3668160, Note_on_c, 2, 72, 50
2, 3668880, Note_off_c, 2, 72, 0
2, 3668880, Note_on_c, 2, 75, 50
2, 3669600, Note_off_c, 2, 75, 0
2, 3669600, Note_on_c, 2, 72, 50
2, 3670320, Note_off_c, 2, 72, 0
2, 3671280, Note_on_c, 2, 75, 50
2, 3672000, Note_off_c, 2, 75, 0
2, 3672000, Note_on_c, 2, 72, 50
2, 3672720, Note_off_c, 2, 72, 0
2, 3672720, Note_on_c, 2, 75, 50
2, 3673440, Note_off_c, 2, 75, 0
2, 3673440, Note_on_c, 2, 72, 50
2, 3674160, Note_off_c, 2, 72, 0
2, 3675120, Note_on_c, 2, 77, 50
2, 3675840, Note_off_c, 2, 77, 0
2, 3675840, Note_on_c, 2, 75, 50
2, 3676560, Note_off_c, 2, 75, 0
2, 3676560, Note_on_c, 2, 73, 50
2, 3677280, Note_off_c, 2, 73, 0
2, 3677280, Note_on_c, 2, 71, 50
2, 3678000, Note_off_c, 2, 71, 0
2, 3678480, Note_on_c, 2, 75, 50
2, 3679200, Note_off_c, 2, 75, 0
2, 3679200, Note_on_c, 2, 72, 50
2, 3679920, Note_off_c, 2, 72, 0
2, 3679920, Note_on_c, 2, 77, 50
2, 3680640, Note_off_c, 2, 77, 0
2, 3680640, Note_on_c, 2, 75, 50
2, 3681360, Note_off_c, 2, 75, 0
2, 3682320, Note_on_c, 2, 75, 50
2, 3683040, Note_off_c, 2, 75, 0
2, 3683040, Note_on_c, 2, 72, 50
2, 3683760, Note_off_c, 2, 72, 0
2, 3683760, Note_on_c, 2, 77, 50
2, 3684480, Note_off_c, 2, 77, 0
2, 3684480, Note_on_c, 2, 75, 50
2, 3685200, Note_off_c, 2, 75, 0
2, 3686160, Note_on_c, 2, 77, 50
2, 3686880, Note_off_c, 2, 77, 0
2, 3686880, Note_on_c, 2, 75, 50
2, 3687600, Note_off_c, 2, 75, 0
2, 3687600, Note_on_c, 2, 73, 50
2, 3688320, Note_off_c, 2, 73, 0
2, 3688320, Note_on_c, 2, 71, 50
2, 3689040, Note_off_c, 2, 71, 0
2, 3695760, Note_on_c, 2, 71, 50
2, 3695880, Note_off_c, 2, 71, 0
2, 3696000, Note_on_c, 2, 74, 50
2, 3696360, Note_off_c, 2, 74, 0
2, 3696480, Note_on_c, 2, 74, 50
2, 3697080, Note_off_c, 2, 74, 0
2, 3697680, Note_on_c, 2, 69, 50
2, 3697800, Note_off_c, 2, 69, 0
2, 3697920, Note_on_c, 2, 73, 50
2, 3698280, Note_off_c, 2, 73, 0
2, 3698400, Note_on_c, 2, 73, 50
2, 3699000, Note_off_c, 2, 73, 0
2, 3699600, Note_on_c, 2, 68, 50
2, 3699720, Note_off_c, 2, 68, 0
2, 3699840, Note_on_c, 2, 71, 50
2, 3700200, Note_off_c, 2, 71, 0
2, 3700320, Note_on_c, 2, 71, 50
2, 3701040, Note_off_c, 2, 71, 0
2, 3701280, Note_on_c, 2, 64, 50
2, 3701400, Note_off_c, 2, 64, 0
2, 3701520, Note_on_c, 2, 66, 50
2, 3701640, Note_off_c, 2, 66, 0
2, 3701760, Note_on_c, 2, 69, 50
2, 3702120, Note_off_c, 2, 69, 0
2, 3702240, Note_on_c, 2, 69, 50
2, 3702600, Note_off_c, 2, 69, 0
2, 3702720, Note_on_c, 2, 73, 50
2, 3703080, Note_off_c, 2, 73, 0
2, 3703200, Note_on_c, 2, 76, 50
2, 3704040, Note_off_c, 2, 76, 0
2, 3706560, Note_on_c, 2, 78, 50
2, 3706800, Note_off_c, 2, 78, 0
2, 3706800, Note_on_c, 2, 73, 50
2, 3706920, Note_off_c, 2, 73, 0
2, 3707040, Note_on_c, 2, 76, 50
2, 3707880, Note_off_c, 2, 76, 0
2, 3709200, Note_on_c, 2, 76, 50
2, 3709560, Note_off_c, 2, 76, 0
2, 3709680, Note_on_c, 2, 73, 50
2, 3709800, Note_off_c, 2, 73, 0
2, 3709800, Note_on_c, 2, 71, 50
2, 3709920, Note_off_c, 2, 71, 0
2, 3709920, Note_on_c, 2, 69, 50
2, 3710040, Note_off_c, 2, 69, 0
2, 3710040, Note_on_c, 2, 71, 50
2, 3710640, Note_off_c, 2, 71, 0
2, 3710880, Note_on_c, 2, 64, 50
2, 3711000, Note_off_c, 2, 64, 0
2, 3711120, Note_on_c, 2, 69, 50
2, 3711480, Note_off_c, 2, 69, 0
2, 3711600, Note_on_c, 2, 69, 50
2, 3711720, Note_off_c, 2, 69, 0
2, 3711840, Note_on_c, 2, 69, 50
2, 3711960, Note_off_c, 2, 69, 0
2, 3711960, Note_on_c, 2, 69, 50
2, 3712680, Note_off_c, 2, 69, 0
2, 3713280, Note_on_c, 2, 64, 50
2, 3713400, Note_off_c, 2, 64, 0
2, 3713400, Note_on_c, 2, 69, 50
2, 3713640, Note_off_c, 2, 69, 0
2, 3713760, Note_on_c, 2, 73, 50
2, 3713880, Note_off_c, 2, 73, 0
2, 3713880, Note_on_c, 2, 76, 50
2, 3714600, Note_off_c, 2, 76, 0
2, 3715200, Note_on_c, 2, 64, 50
2, 3715320, Note_off_c, 2, 64, 0
2, 3715320, Note_on_c, 2, 69, 50
2, 3715560, Note_off_c, 2, 69, 0
2, 3715560, Note_on_c, 2, 73, 50
2, 3715800, Note_off_c, 2, 73, 0
2, 3715920, Note_on_c, 2, 74, 50
2, 3716040, Note_off_c, 2, 74, 0
2, 3716160, Note_on_c, 2, 74, 50
2, 3716280, Note_off_c, 2, 74, 0
2, 3716400, Note_on_c, 2, 73, 50
2, 3716520, Note_off_c, 2, 73, 0
2, 3716640, Note_on_c, 2, 71, 50
2, 3716760, Note_off_c, 2, 71, 0
2, 3716760, Note_on_c, 2, 69, 50
2, 3717000, Note_off_c, 2, 69, 0
2, 3717120, Note_on_c, 2, 69, 50
2, 3717240, Note_off_c, 2, 69, 0
2, 3717360, Note_on_c, 2, 69, 50
2, 3717480, Note_off_c, 2, 69, 0
2, 3717600, Note_on_c, 2, 67, 50
2, 3717720, Note_off_c, 2, 67, 0
2, 3717720, Note_on_c, 2, 69, 50
2, 3718440, Note_off_c, 2, 69, 0
2, 3719040, Note_on_c, 2, 64, 50
2, 3719160, Note_off_c, 2, 64, 0
2, 3719160, Note_on_c, 2, 69, 50
2, 3719400, Note_off_c, 2, 69, 0
2, 3719520, Note_on_c, 2, 73, 50
2, 3719640, Note_off_c, 2, 73, 0
2, 3719640, Note_on_c, 2, 76, 50
2, 3720360, Note_off_c, 2, 76, 0
2, 3720960, Note_on_c, 2, 64, 50
2, 3721080, Note_off_c, 2, 64, 0
2, 3721080, Note_on_c, 2, 69, 50
2, 3721320, Note_off_c, 2, 69, 0
2, 3721320, Note_on_c, 2, 73, 50
2, 3721560, Note_off_c, 2, 73, 0
2, 3721680, Note_on_c, 2, 74, 50
2, 3721800, Note_off_c, 2, 74, 0
2, 3721920, Note_on_c, 2, 74, 50
2, 3722040, Note_off_c, 2, 74, 0
2, 3722160, Note_on_c, 2, 73, 50
2, 3722280, Note_off_c, 2, 73, 0
2, 3722400, Note_on_c, 2, 71, 50
2, 3722520, Note_off_c, 2, 71, 0
2, 3722520, Note_on_c, 2, 69, 50
2, 3722760, Note_off_c, 2, 69, 0
2, 3722880, Note_on_c, 2, 69, 50
2, 3723000, Note_off_c, 2, 69, 0
2, 3723120, Note_on_c, 2, 69, 50
2, 3723240, Note_off_c, 2, 69, 0
2, 3723360, Note_on_c, 2, 67, 50
2, 3723480, Note_off_c, 2, 67, 0
2, 3723480, Note_on_c, 2, 69, 50
2, 3724200, Note_off_c, 2, 69, 0
2, 3725520, Note_on_c, 2, 71, 50
2, 3725640, Note_off_c, 2, 71, 0
2, 3725760, Note_on_c, 2, 74, 50
2, 3726120, Note_off_c, 2, 74, 0
2, 3726240, Note_on_c, 2, 74, 50
2, 3726840, Note_off_c, 2, 74, 0
2, 3727440, Note_on_c, 2, 69, 50
2, 3727560, Note_off_c, 2, 69, 0
2, 3727680, Note_on_c, 2, 73, 50
2, 3728040, Note_off_c, 2, 73, 0
2, 3728160, Note_on_c, 2, 73, 50
2, 3728760, Note_off_c, 2, 73, 0
2, 3729360, Note_on_c, 2, 68, 50
2, 3729480, Note_off_c, 2, 68, 0
2, 3729600, Note_on_c, 2, 71, 50
2, 3729960, Note_off_c, 2, 71, 0
2, 3730080, Note_on_c, 2, 71, 50
2, 3730800, Note_off_c, 2, 71, 0
2, 3731040, Note_on_c, 2, 64, 50
2, 3731160, Note_off_c, 2, 64, 0
2, 3731280, Note_on_c, 2, 66, 50
2, 3731400, Note_off_c, 2, 66, 0
2, 3731520, Note_on_c, 2, 69, 50
2, 3731880, Note_off_c, 2, 69, 0
2, 3732000, Note_on_c, 2, 69, 50
2, 3732360, Note_off_c, 2, 69, 0
2, 3732480, Note_on_c, 2, 73, 50
2, 3732840, Note_off_c, 2, 73, 0
2, 3732960, Note_on_c, 2, 76, 50
2, 3733800, Note_off_c, 2, 76, 0
2, 3735120, Note_on_c, 2, 81, 50
2, 3735600, Note_off_c, 2, 81, 0
2, 3735600, Note_on_c, 2, 78, 50
2, 3735960, Note_off_c, 2, 78, 0
2, 3736320, Note_on_c, 2, 78, 50
2, 3736560, Note_off_c, 2, 78, 0
2, 3736560, Note_on_c, 2, 73, 50
2, 3736680, Note_off_c, 2, 73, 0
2, 3736800, Note_on_c, 2, 76, 50
2, 3737640, Note_off_c, 2, 76, 0
2, 3738960, Note_on_c, 2, 76, 50
2, 3739320, Note_off_c, 2, 76, 0
2, 3739440, Note_on_c, 2, 73, 50
2, 3739560, Note_off_c, 2, 73, 0
2, 3739560, Note_on_c, 2, 71, 50
2, 3739680, Note_off_c, 2, 71, 0
2, 3739680, Note_on_c, 2, 69, 50
2, 3739800, Note_off_c, 2, 69, 0
2, 3739800, Note_on_c, 2, 71, 50
2, 3740400, Note_off_c, 2, 71, 0
2, 3740640, Note_on_c, 2, 64, 50
2, 3740760, Note_off_c, 2, 64, 0
2, 3740880, Note_on_c, 2, 69, 50
2, 3741240, Note_off_c, 2, 69, 0
2, 3741360, Note_on_c, 2, 69, 50
2, 3741480, Note_off_c, 2, 69, 0
2, 3741600, Note_on_c, 2, 69, 50
2, 3741720, Note_off_c, 2, 69, 0
2, 3741720, Note_on_c, 2, 69, 50
2, 3742440, Note_off_c, 2, 69, 0
2, 3743040, Note_on_c, 2, 64, 50
2, 3743160, Note_off_c, 2, 64, 0
2, 3743160, Note_on_c, 2, 69, 50
2, 3743400, Note_off_c, 2, 69, 0
2, 3743520, Note_on_c, 2, 73, 50
2, 3743640, Note_off_c, 2, 73, 0
2, 3743640, Note_on_c, 2, 76, 50
2, 3744360, Note_off_c, 2, 76, 0
2, 3744960, Note_on_c, 2, 64, 50
2, 3745080, Note_off_c, 2, 64, 0
2, 3745080, Note_on_c, 2, 69, 50
2, 3745320, Note_off_c, 2, 69, 0
2, 3745320, Note_on_c, 2, 73, 50
2, 3745560, Note_off_c, 2, 73, 0
2, 3745680, Note_on_c, 2, 74, 50
2, 3745800, Note_off_c, 2, 74, 0
2, 3745920, Note_on_c, 2, 74, 50
2, 3746040, Note_off_c, 2, 74, 0
2, 3746160, Note_on_c, 2, 73, 50
2, 3746280, Note_off_c, 2, 73, 0
2, 3746400, Note_on_c, 2, 71, 50
2, 3746520, Note_off_c, 2, 71, 0
2, 3746520, Note_on_c, 2, 69, 50
2, 3746760, Note_off_c, 2, 69, 0
2, 3746880, Note_on_c, 2, 69, 50
2, 3747000, Note_off_c, 2, 69, 0
2, 3747120, Note_on_c, 2, 69, 50
2, 3747240, Note_off_c, 2, 69, 0
2, 3747360, Note_on_c, 2, 67, 50
2, 3747480, Note_off_c, 2, 67, 0
2, 3747480, Note_on_c, 2, 69, 50
2, 3748200, Note_off_c, 2, 69, 0
2, 3748800, Note_on_c, 2, 64, 50
2, 3748920, Note_off_c, 2, 64, 0
2, 3748920, Note_on_c, 2, 69, 50
2, 3749160, Note_off_c, 2, 69, 0
2, 3749280, Note_on_c, 2, 73, 50
2, 3749400, Note_off_c, 2, 73, 0
2, 3749400, Note_on_c, 2, 76, 50
2, 3750120, Note_off_c, 2, 76, 0
2, 3750720, Note_on_c, 2, 64, 50
2, 3750840, Note_off_c, 2, 64, 0
2, 3750840, Note_on_c, 2, 69, 50
2, 3751080, Note_off_c, 2, 69, 0
2, 3751080, Note_on_c, 2, 73, 50
2, 3751320, Note_off_c, 2, 73, 0
2, 3751440, Note_on_c, 2, 74, 50
2, 3751560, Note_off_c, 2, 74, 0
2, 3751680, Note_on_c, 2, 74, 50
2, 3751800, Note_off_c, 2, 74, 0
2, 3751920, Note_on_c, 2, 73, 50
2, 3752040, Note_off_c, 2, 73, 0
2, 3752160, Note_on_c, 2, 71, 50
2, 3752280, Note_off_c, 2, 71, 0
2, 3752280, Note_on_c, 2, 69, 50
2, 3752520, Note_off_c, 2, 69, 0
2, 3752640, Note_on_c, 2, 67, 50
2, 3752760, Note_off_c, 2, 67, 0
2, 3752880, Note_on_c, 2, 67, 50
2, 3753000, Note_off_c, 2, 67, 0
2, 3753120, Note_on_c, 2, 72, 50
2, 3753240, Note_off_c, 2, 72, 0
2, 3753240, Note_on_c, 2, 69, 50
2, 3753960, Note_off_c, 2, 69, 0
2, 3758400, Note_on_c, 2, 69, 50
2, 3758520, Note_off_c, 2, 69, 0
2, 3758640, Note_on_c, 2, 69, 50
2, 3758760, Note_off_c, 2, 69, 0
2, 3758880, Note_on_c, 2, 73, 50
2, 3759000, Note_off_c, 2, 73, 0
2, 3759120, Note_on_c, 2, 74, 50
2, 3759240, Note_off_c, 2, 74, 0
2, 3759360, Note_on_c, 2, 74, 50
2, 3759720, Note_off_c, 2, 74, 0
2, 3759840, Note_on_c, 2, 74, 50
2, 3760200, Note_off_c, 2, 74, 0
2, 3760320, Note_on_c, 2, 81, 50
2, 3760440, Note_off_c, 2, 81, 0
2, 3760560, Note_on_c, 2, 80, 50
2, 3760680, Note_off_c, 2, 80, 0
2, 3760800, Note_on_c, 2, 76, 50
2, 3761400, Note_off_c, 2, 76, 0
2, 3761520, Note_on_c, 2, 73, 50
2, 3761640, Note_off_c, 2, 73, 0
2, 3761760, Note_on_c, 2, 69, 50
2, 3762360, Note_off_c, 2, 69, 0
2, 3762480, Note_on_c, 2, 73, 50
2, 3762600, Note_off_c, 2, 73, 0
2, 3762720, Note_on_c, 2, 76, 50
2, 3764280, Note_off_c, 2, 76, 0
2, 3766080, Note_on_c, 2, 78, 50
2, 3766320, Note_off_c, 2, 78, 0
2, 3766320, Note_on_c, 2, 73, 50
2, 3766440, Note_off_c, 2, 73, 0
2, 3766560, Note_on_c, 2, 76, 50
2, 3767400, Note_off_c, 2, 76, 0
2, 3768720, Note_on_c, 2, 76, 50
2, 3769080, Note_off_c, 2, 76, 0
2, 3769200, Note_on_c, 2, 73, 50
2, 3769320, Note_off_c, 2, 73, 0
2, 3769320, Note_on_c, 2, 71, 50
2, 3769440, Note_off_c, 2, 71, 0
2, 3769440, Note_on_c, 2, 69, 50
2, 3769560, Note_off_c, 2, 69, 0
2, 3769560, Note_on_c, 2, 71, 50
2, 3770160, Note_off_c, 2, 71, 0
2, 3770400, Note_on_c, 2, 64, 50
2, 3770520, Note_off_c, 2, 64, 0
2, 3770640, Note_on_c, 2, 69, 50
2, 3771000, Note_off_c, 2, 69, 0
2, 3771120, Note_on_c, 2, 69, 50
2, 3771240, Note_off_c, 2, 69, 0
2, 3771360, Note_on_c, 2, 69, 50
2, 3771480, Note_off_c, 2, 69, 0
2, 3771480, Note_on_c, 2, 69, 50
2, 3772200, Note_off_c, 2, 69, 0
2, 3772800, Note_on_c, 2, 64, 50
2, 3772920, Note_off_c, 2, 64, 0
2, 3772920, Note_on_c, 2, 69, 50
2, 3773160, Note_off_c, 2, 69, 0
2, 3773280, Note_on_c, 2, 73, 50
2, 3773400, Note_off_c, 2, 73, 0
2, 3773400, Note_on_c, 2, 76, 50
2, 3774120, Note_off_c, 2, 76, 0
2, 3774720, Note_on_c, 2, 64, 50
2, 3774840, Note_off_c, 2, 64, 0
2, 3774840, Note_on_c, 2, 69, 50
2, 3775080, Note_off_c, 2, 69, 0
2, 3775080, Note_on_c, 2, 73, 50
2, 3775320, Note_off_c, 2, 73, 0
2, 3775440, Note_on_c, 2, 74, 50
2, 3775560, Note_off_c, 2, 74, 0
2, 3775680, Note_on_c, 2, 74, 50
2, 3775800, Note_off_c, 2, 74, 0
2, 3775920, Note_on_c, 2, 73, 50
2, 3776040, Note_off_c, 2, 73, 0
2, 3776160, Note_on_c, 2, 71, 50
2, 3776280, Note_off_c, 2, 71, 0
2, 3776280, Note_on_c, 2, 69, 50
2, 3776520, Note_off_c, 2, 69, 0
2, 3776640, Note_on_c, 2, 69, 50
2, 3776760, Note_off_c, 2, 69, 0
2, 3776880, Note_on_c, 2, 69, 50
2, 3777000, Note_off_c, 2, 69, 0
2, 3777120, Note_on_c, 2, 67, 50
2, 3777240, Note_off_c, 2, 67, 0
2, 3777240, Note_on_c, 2, 69, 50
2, 3777960, Note_off_c, 2, 69, 0
2, 3778560, Note_on_c, 2, 64, 50
2, 3778680, Note_off_c, 2, 64, 0
2, 3778680, Note_on_c, 2, 69, 50
2, 3778920, Note_off_c, 2, 69, 0
2, 3779040, Note_on_c, 2, 73, 50
2, 3779160, Note_off_c, 2, 73, 0
2, 3779160, Note_on_c, 2, 76, 50
2, 3779880, Note_off_c, 2, 76, 0
2, 3780480, Note_on_c, 2, 64, 50
2, 3780600, Note_off_c, 2, 64, 0
2, 3780600, Note_on_c, 2, 69, 50
2, 3780840, Note_off_c, 2, 69, 0
2, 3780840, Note_on_c, 2, 73, 50
2, 3781080, Note_off_c, 2, 73, 0
2, 3781200, Note_on_c, 2, 74, 50
2, 3781320, Note_off_c, 2, 74, 0
2, 3781440, Note_on_c, 2, 74, 50
2, 3781560, Note_off_c, 2, 74, 0
2, 3781680, Note_on_c, 2, 73, 50
2, 3781800, Note_off_c, 2, 73, 0
2, 3781920, Note_on_c, 2, 71, 50
2, 3782040, Note_off_c, 2, 71, 0
2, 3782040, Note_on_c, 2, 69, 50
2, 3782280, Note_off_c, 2, 69, 0
2, 3782400, Note_on_c, 2, 69, 50
2, 3782520, Note_off_c, 2, 69, 0
2, 3782640, Note_on_c, 2, 69, 50
2, 3782760, Note_off_c, 2, 69, 0
2, 3782880, Note_on_c, 2, 67, 50
2, 3783000, Note_off_c, 2, 67, 0
2, 3783000, Note_on_c, 2, 69, 50
2, 3783720, Note_off_c, 2, 69, 0
2, 3785040, Note_on_c, 2, 71, 50
2, 3785160, Note_off_c, 2, 71, 0
2, 3785280, Note_on_c, 2, 74, 50
2, 3785640, Note_off_c, 2, 74, 0
2, 3785760, Note_on_c, 2, 74, 50
2, 3786360, Note_off_c, 2, 74, 0
2, 3786960, Note_on_c, 2, 69, 50
2, 3787080, Note_off_c, 2, 69, 0
2, 3787200, Note_on_c, 2, 73, 50
2, 3787560, Note_off_c, 2, 73, 0
2, 3787680, Note_on_c, 2, 73, 50
2, 3788280, Note_off_c, 2, 73, 0
2, 3788880, Note_on_c, 2, 68, 50
2, 3789000, Note_off_c, 2, 68, 0
2, 3789120, Note_on_c, 2, 71, 50
2, 3789480, Note_off_c, 2, 71, 0
2, 3789600, Note_on_c, 2, 71, 50
2, 3790320, Note_off_c, 2, 71, 0
2, 3790560, Note_on_c, 2, 64, 50
2, 3790680, Note_off_c, 2, 64, 0
2, 3790800, Note_on_c, 2, 66, 50
2, 3790920, Note_off_c, 2, 66, 0
2, 3791040, Note_on_c, 2, 69, 50
2, 3791400, Note_off_c, 2, 69, 0
2, 3791520, Note_on_c, 2, 69, 50
2, 3791880, Note_off_c, 2, 69, 0
2, 3792000, Note_on_c, 2, 73, 50
2, 3792360, Note_off_c, 2, 73, 0
2, 3792480, Note_on_c, 2, 76, 50
2, 3793320, Note_off_c, 2, 76, 0
2, 3794640, Note_on_c, 2, 81, 50
2, 3795120, Note_off_c, 2, 81, 0
2, 3795120, Note_on_c, 2, 78, 50
2, 3795480, Note_off_c, 2, 78, 0
2, 3795840, Note_on_c, 2, 78, 50
2, 3796080, Note_off_c, 2, 78, 0
2, 3796080, Note_on_c, 2, 73, 50
2, 3796200, Note_off_c, 2, 73, 0
2, 3796320, Note_on_c, 2, 76, 50
2, 3797160, Note_off_c, 2, 76, 0
2, 3798480, Note_on_c, 2, 76, 50
2, 3798840, Note_off_c, 2, 76, 0
2, 3798960, Note_on_c, 2, 73, 50
2, 3799080, Note_off_c, 2, 73, 0
2, 3799080, Note_on_c, 2, 71, 50
2, 3799200, Note_off_c, 2, 71, 0
2, 3799200, Note_on_c, 2, 69, 50
2, 3799320, Note_off_c, 2, 69, 0
2, 3799320, Note_on_c, 2, 71, 50
2, 3799920, Note_off_c, 2, 71, 0
2, 3800160, Note_on_c, 2, 64, 50
2, 3800280, Note_off_c, 2, 64, 0
2, 3800400, Note_on_c, 2, 69, 50
2, 3800760, Note_off_c, 2, 69, 0
2, 3800880, Note_on_c, 2, 69, 50
2, 3801000, Note_off_c, 2, 69, 0
2, 3801120, Note_on_c, 2, 69, 50
2, 3801240, Note_off_c, 2, 69, 0
2, 3801240, Note_on_c, 2, 69, 50
2, 3801960, Note_off_c, 2, 69, 0
2, 3802560, Note_on_c, 2, 64, 50
2, 3802680, Note_off_c, 2, 64, 0
2, 3802680, Note_on_c, 2, 69, 50
2, 3802920, Note_off_c, 2, 69, 0
2, 3803040, Note_on_c, 2, 73, 50
2, 3803160, Note_off_c, 2, 73, 0
2, 3803160, Note_on_c, 2, 76, 50
2, 3803880, Note_off_c, 2, 76, 0
2, 3804480, Note_on_c, 2, 64, 50
2, 3804600, Note_off_c, 2, 64, 0
2, 3804600, Note_on_c, 2, 69, 50
2, 3804840, Note_off_c, 2, 69, 0
2, 3804840, Note_on_c, 2, 73, 50
2, 3805080, Note_off_c, 2, 73, 0
2, 3805200, Note_on_c, 2, 74, 50
2, 3805320, Note_off_c, 2, 74, 0
2, 3805440, Note_on_c, 2, 74, 50
2, 3805560, Note_off_c, 2, 74, 0
2, 3805680, Note_on_c, 2, 73, 50
2, 3805800, Note_off_c, 2, 73, 0
2, 3805920, Note_on_c, 2, 71, 50
2, 3806040, Note_off_c, 2, 71, 0
2, 3806040, Note_on_c, 2, 69, 50
2, 3806280, Note_off_c, 2, 69, 0
2, 3806400, Note_on_c, 2, 69, 50
2, 3806520, Note_off_c, 2, 69, 0
2, 3806640, Note_on_c, 2, 69, 50
2, 3806760, Note_off_c, 2, 69, 0
2, 3806880, Note_on_c, 2, 67, 50
2, 3807000, Note_off_c, 2, 67, 0
2, 3807000, Note_on_c, 2, 69, 50
2, 3807720, Note_off_c, 2, 69, 0
2, 3808320, Note_on_c, 2, 64, 50
2, 3808440, Note_off_c, 2, 64, 0
2, 3808440, Note_on_c, 2, 69, 50
2, 3808680, Note_off_c, 2, 69, 0
2, 3808800, Note_on_c, 2, 73, 50
2, 3808920, Note_off_c, 2, 73, 0
2, 3808920, Note_on_c, 2, 76, 50
2, 3809640, Note_off_c, 2, 76, 0
2, 3810240, Note_on_c, 2, 64, 50
2, 3810360, Note_off_c, 2, 64, 0
2, 3810360, Note_on_c, 2, 69, 50
2, 3810600, Note_off_c, 2, 69, 0
2, 3810600, Note_on_c, 2, 73, 50
2, 3810840, Note_off_c, 2, 73, 0
2, 3810960, Note_on_c, 2, 74, 50
2, 3811080, Note_off_c, 2, 74, 0
2, 3811200, Note_on_c, 2, 74, 50
2, 3811320, Note_off_c, 2, 74, 0
2, 3811440, Note_on_c, 2, 73, 50
2, 3811560, Note_off_c, 2, 73, 0
2, 3811680, Note_on_c, 2, 71, 50
2, 3811800, Note_off_c, 2, 71, 0
2, 3811800, Note_on_c, 2, 69, 50
2, 3812040, Note_off_c, 2, 69, 0
2, 3812160, Note_on_c, 2, 67, 50
2, 3812280, Note_off_c, 2, 67, 0
2, 3812400, Note_on_c, 2, 67, 50
2, 3812520, Note_off_c, 2, 67, 0
2, 3812640, Note_on_c, 2, 72, 50
2, 3812760, Note_off_c, 2, 72, 0
2, 3812760, Note_on_c, 2, 69, 50
2, 3813480, Note_off_c, 2, 69, 0
2, 3814080, Note_on_c, 2, 64, 50
2, 3814200, Note_off_c, 2, 64, 0
2, 3814200, Note_on_c, 2, 69, 50
2, 3814440, Note_off_c, 2, 69, 0
2, 3814560, Note_on_c, 2, 73, 50
2, 3814680, Note_off_c, 2, 73, 0
2, 3814680, Note_on_c, 2, 76, 50
2, 3815400, Note_off_c, 2, 76, 0
2, 3816000, Note_on_c, 2, 64, 50
2, 3816120, Note_off_c, 2, 64, 0
2, 3816120, Note_on_c, 2, 69, 50
2, 3816360, Note_off_c, 2, 69, 0
2, 3816360, Note_on_c, 2, 73, 50
2, 3816600, Note_off_c, 2, 73, 0
2, 3816720, Note_on_c, 2, 74, 50
2, 3816840, Note_off_c, 2, 74, 0
2, 3816960, Note_on_c, 2, 74, 50
2, 3817080, Note_off_c, 2, 74, 0
2, 3817200, Note_on_c, 2, 73, 50
2, 3817320, Note_off_c, 2, 73, 0
2, 3817440, Note_on_c, 2, 71, 50
2, 3817560, Note_off_c, 2, 71, 0
2, 3817560, Note_on_c, 2, 69, 50
2, 3817800, Note_off_c, 2, 69, 0
2, 3817920, Note_on_c, 2, 69, 50
2, 3818040, Note_off_c, 2, 69, 0
2, 3818160, Note_on_c, 2, 69, 50
2, 3818280, Note_off_c, 2, 69, 0
2, 3818400, Note_on_c, 2, 67, 50
2, 3818520, Note_off_c, 2, 67, 0
2, 3818520, Note_on_c, 2, 69, 50
2, 3819120, Note_off_c, 2, 69, 0
2, 3819120, Note_on_c, 2, 74, 50
2, 3819240, Note_off_c, 2, 74, 0
2, 3819240, Note_on_c, 2, 77, 50
2, 3819360, Note_off_c, 2, 77, 0
2, 3819360, Note_on_c, 2, 74, 50
2, 3819600, Note_off_c, 2, 74, 0
2, 3819600, Note_on_c, 2, 69, 50
2, 3820080, Note_off_c, 2, 69, 0
2, 3820080, Note_on_c, 2, 74, 50
2, 3820200, Note_off_c, 2, 74, 0
2, 3820200, Note_on_c, 2, 77, 50
2, 3820320, Note_off_c, 2, 77, 0
2, 3820320, Note_on_c, 2, 74, 50
2, 3820560, Note_off_c, 2, 74, 0
2, 3820560, Note_on_c, 2, 69, 50
2, 3820920, Note_off_c, 2, 69, 0
2, 3822240, Note_on_c, 2, 69, 50
2, 3822360, Note_off_c, 2, 69, 0
2, 3822480, Note_on_c, 2, 76, 50
2, 3822960, Note_off_c, 2, 76, 0
2, 3822960, Note_on_c, 2, 73, 50
2, 3823440, Note_off_c, 2, 73, 0
2, 3823440, Note_on_c, 2, 69, 50
2, 3825360, Note_off_c, 2, 69, 0
2, 3825360, Note_on_c, 2, 69, 50
2, 3825720, Note_off_c, 2, 69, 0
2, 3826320, Note_on_c, 2, 73, 50
2, 3826680, Note_off_c, 2, 73, 0
2, 3826800, Note_on_c, 2, 73, 50
2, 3827520, Note_off_c, 2, 73, 0
2, 3827640, Note_on_c, 2, 73, 50
2, 3827880, Note_off_c, 2, 73, 0
2, 3827880, Note_on_c, 2, 69, 50
2, 3828000, Note_off_c, 2, 69, 0
2, 3828000, Note_on_c, 2, 71, 50
2, 3828120, Note_off_c, 2, 71, 0
2, 3828240, Note_on_c, 2, 69, 50
2, 3828600, Note_off_c, 2, 69, 0
2, 3828720, Note_on_c, 2, 69, 50
2, 3829560, Note_off_c, 2, 69, 0
2, 3830160, Note_on_c, 2, 73, 50
2, 3830520, Note_off_c, 2, 73, 0
2, 3830640, Note_on_c, 2, 73, 50
2, 3831360, Note_off_c, 2, 73, 0
2, 3831480, Note_on_c, 2, 73, 50
2, 3831720, Note_off_c, 2, 73, 0
2, 3831720, Note_on_c, 2, 69, 50
2, 3831840, Note_off_c, 2, 69, 0
2, 3831840, Note_on_c, 2, 71, 50
2, 3831960, Note_off_c, 2, 71, 0
2, 3832080, Note_on_c, 2, 69, 50
2, 3832440, Note_off_c, 2, 69, 0
2, 3832560, Note_on_c, 2, 69, 50
2, 3833400, Note_off_c, 2, 69, 0
2, 3834000, Note_on_c, 2, 73, 50
2, 3834360, Note_off_c, 2, 73, 0
2, 3834480, Note_on_c, 2, 73, 50
2, 3835200, Note_off_c, 2, 73, 0
2, 3835320, Note_on_c, 2, 73, 50
2, 3835560, Note_off_c, 2, 73, 0
2, 3835560, Note_on_c, 2, 69, 50
2, 3835680, Note_off_c, 2, 69, 0
2, 3835680, Note_on_c, 2, 71, 50
2, 3835800, Note_off_c, 2, 71, 0
2, 3835920, Note_on_c, 2, 69, 50
2, 3836280, Note_off_c, 2, 69, 0
2, 3836400, Note_on_c, 2, 69, 50
2, 3837240, Note_off_c, 2, 69, 0
2, 3837840, Note_on_c, 2, 73, 50
2, 3838200, Note_off_c, 2, 73, 0
2, 3838320, Note_on_c, 2, 73, 50
2, 3839040, Note_off_c, 2, 73, 0
2, 3839160, Note_on_c, 2, 73, 50
2, 3839400, Note_off_c, 2, 73, 0
2, 3839400, Note_on_c, 2, 69, 50
2, 3839520, Note_off_c, 2, 69, 0
2, 3839520, Note_on_c, 2, 71, 50
2, 3839640, Note_off_c, 2, 71, 0
2, 3839760, Note_on_c, 2, 69, 50
2, 3840120, Note_off_c, 2, 69, 0
2, 3840240, Note_on_c, 2, 69, 50
2, 3841080, Note_off_c, 2, 69, 0
2, 3841680, Note_on_c, 2, 73, 50
2, 3842040, Note_off_c, 2, 73, 0
2, 3842160, Note_on_c, 2, 73, 50
2, 3842880, Note_off_c, 2, 73, 0
2, 3843000, Note_on_c, 2, 73, 50
2, 3843240, Note_off_c, 2, 73, 0
2, 3843240, Note_on_c, 2, 69, 50
2, 3843360, Note_off_c, 2, 69, 0
2, 3843360, Note_on_c, 2, 71, 50
2, 3843480, Note_off_c, 2, 71, 0
2, 3843600, Note_on_c, 2, 69, 50
2, 3843960, Note_off_c, 2, 69, 0
2, 3844080, Note_on_c, 2, 69, 50
2, 3844920, Note_off_c, 2, 69, 0
2, 3845520, Note_on_c, 2, 73, 50
2, 3845880, Note_off_c, 2, 73, 0
2, 3846000, Note_on_c, 2, 73, 50
2, 3846720, Note_off_c, 2, 73, 0
2, 3846840, Note_on_c, 2, 73, 50
2, 3847080, Note_off_c, 2, 73, 0
2, 3847080, Note_on_c, 2, 69, 50
2, 3847200, Note_off_c, 2, 69, 0
2, 3847200, Note_on_c, 2, 71, 50
2, 3847320, Note_off_c, 2, 71, 0
2, 3847440, Note_on_c, 2, 69, 50
2, 3847800, Note_off_c, 2, 69, 0
2, 3847920, Note_on_c, 2, 69, 50
2, 3848760, Note_off_c, 2, 69, 0
2, 3855120, Note_on_c, 2, 70, 50
2, 3855360, Note_off_c, 2, 70, 0
2, 3855600, Note_on_c, 2, 68, 50
2, 3855840, Note_off_c, 2, 68, 0
2, 3855840, Note_on_c, 2, 70, 50
2, 3856320, Note_off_c, 2, 70, 0
2, 3857040, Note_on_c, 2, 70, 50
2, 3857280, Note_off_c, 2, 70, 0
2, 3857280, Note_on_c, 2, 68, 50
2, 3857760, Note_off_c, 2, 68, 0
2, 3857760, Note_on_c, 2, 66, 50
2, 3858240, Note_off_c, 2, 66, 0
2, 3858240, Note_on_c, 2, 63, 50
2, 3858720, Note_off_c, 2, 63, 0
2, 3858720, Note_on_c, 2, 66, 50
2, 3859200, Note_off_c, 2, 66, 0
2, 3859200, Note_on_c, 2, 68, 50
2, 3859680, Note_off_c, 2, 68, 0
2, 3859680, Note_on_c, 2, 66, 50
2, 3860160, Note_off_c, 2, 66, 0
2, 3860160, Note_on_c, 2, 63, 50
2, 3860400, Note_off_c, 2, 63, 0
2, 3860400, Note_on_c, 2, 65, 50
2, 3860640, Note_off_c, 2, 65, 0
2, 3860640, Note_on_c, 2, 63, 50
2, 3860880, Note_off_c, 2, 63, 0
2, 3860880, Note_on_c, 2, 65, 50
2, 3861120, Note_off_c, 2, 65, 0
2, 3861120, Note_on_c, 2, 66, 50
2, 3861600, Note_off_c, 2, 66, 0
2, 3861600, Note_on_c, 2, 68, 50
2, 3862320, Note_off_c, 2, 68, 0
2, 3862800, Note_on_c, 2, 70, 50
2, 3863040, Note_off_c, 2, 70, 0
2, 3863040, Note_on_c, 2, 66, 50
2, 3863280, Note_off_c, 2, 66, 0
2, 3863280, Note_on_c, 2, 68, 50
2, 3863520, Note_off_c, 2, 68, 0
2, 3863520, Note_on_c, 2, 70, 50
2, 3864000, Note_off_c, 2, 70, 0
2, 3864000, Note_on_c, 2, 66, 50
2, 3864720, Note_off_c, 2, 66, 0
2, 3864720, Note_on_c, 2, 70, 50
2, 3864960, Note_off_c, 2, 70, 0
2, 3864960, Note_on_c, 2, 68, 50
2, 3865440, Note_off_c, 2, 68, 0
2, 3865440, Note_on_c, 2, 66, 50
2, 3865920, Note_off_c, 2, 66, 0
2, 3865920, Note_on_c, 2, 63, 50
2, 3867360, Note_off_c, 2, 63, 0
2, 3867360, Note_on_c, 2, 66, 50
2, 3867840, Note_off_c, 2, 66, 0
2, 3867840, Note_on_c, 2, 65, 50
2, 3869760, Note_off_c, 2, 65, 0
2, 3869760, Note_on_c, 2, 65, 50
2, 3870000, Note_off_c, 2, 65, 0
2, 3870480, Note_on_c, 2, 70, 50
2, 3870720, Note_off_c, 2, 70, 0
2, 3870720, Note_on_c, 2, 68, 50
2, 3871200, Note_off_c, 2, 68, 0
2, 3871200, Note_on_c, 2, 70, 50
2, 3871680, Note_off_c, 2, 70, 0
2, 3871680, Note_on_c, 2, 66, 50
2, 3872400, Note_off_c, 2, 66, 0
2, 3872400, Note_on_c, 2, 70, 50
2, 3872880, Note_off_c, 2, 70, 0
2, 3872880, Note_on_c, 2, 68, 50
2, 3873120, Note_off_c, 2, 68, 0
2, 3873120, Note_on_c, 2, 70, 50
2, 3873840, Note_off_c, 2, 70, 0
2, 3873840, Note_on_c, 2, 63, 50
2, 3874320, Note_off_c, 2, 63, 0
2, 3874320, Note_on_c, 2, 70, 50
2, 3874560, Note_off_c, 2, 70, 0
2, 3874560, Note_on_c, 2, 68, 50
2, 3875040, Note_off_c, 2, 68, 0
2, 3875040, Note_on_c, 2, 70, 50
2, 3875520, Note_off_c, 2, 70, 0
2, 3875520, Note_on_c, 2, 66, 50
2, 3876000, Note_off_c, 2, 66, 0
2, 3876000, Note_on_c, 2, 66, 50
2, 3876240, Note_off_c, 2, 66, 0
2, 3876240, Note_on_c, 2, 66, 50
2, 3876720, Note_off_c, 2, 66, 0
2, 3876720, Note_on_c, 2, 66, 50
2, 3877200, Note_off_c, 2, 66, 0
2, 3877200, Note_on_c, 2, 66, 50
2, 3877680, Note_off_c, 2, 66, 0
2, 3877920, Note_on_c, 2, 70, 50
2, 3878400, Note_off_c, 2, 70, 0
2, 3878400, Note_on_c, 2, 68, 50
2, 3878880, Note_off_c, 2, 68, 0
2, 3878880, Note_on_c, 2, 66, 50
2, 3879600, Note_off_c, 2, 66, 0
2, 3879600, Note_on_c, 2, 63, 50
2, 3880080, Note_off_c, 2, 63, 0
2, 3880080, Note_on_c, 2, 68, 50
2, 3880560, Note_off_c, 2, 68, 0
2, 3880560, Note_on_c, 2, 66, 50
2, 3881040, Note_off_c, 2, 66, 0
2, 3881040, Note_on_c, 2, 68, 50
2, 3881520, Note_off_c, 2, 68, 0
2, 3881520, Note_on_c, 2, 68, 50
2, 3882000, Note_off_c, 2, 68, 0
2, 3882000, Note_on_c, 2, 66, 50
2, 3882480, Note_off_c, 2, 66, 0
2, 3882480, Note_on_c, 2, 68, 50
2, 3882960, Note_off_c, 2, 68, 0
2, 3882960, Note_on_c, 2, 65, 50
2, 3883440, Note_off_c, 2, 65, 0
2, 3883440, Note_on_c, 2, 66, 50
2, 3884160, Note_off_c, 2, 66, 0
2, 3884160, Note_on_c, 2, 70, 50
2, 3884640, Note_off_c, 2, 70, 0
2, 3884640, Note_on_c, 2, 70, 50
2, 3885360, Note_off_c, 2, 70, 0
2, 3885840, Note_on_c, 2, 70, 50
2, 3886080, Note_off_c, 2, 70, 0
2, 3886080, Note_on_c, 2, 68, 50
2, 3887040, Note_off_c, 2, 68, 0
2, 3887040, Note_on_c, 2, 63, 50
2, 3887520, Note_off_c, 2, 63, 0
2, 3887520, Note_on_c, 2, 66, 50
2, 3887760, Note_off_c, 2, 66, 0
2, 3887760, Note_on_c, 2, 66, 50
2, 3888000, Note_off_c, 2, 66, 0
2, 3888000, Note_on_c, 2, 68, 50
2, 3888480, Note_off_c, 2, 68, 0
2, 3888480, Note_on_c, 2, 66, 50
2, 3889200, Note_off_c, 2, 66, 0
2, 3889200, Note_on_c, 2, 65, 50
2, 3889440, Note_off_c, 2, 65, 0
2, 3889440, Note_on_c, 2, 63, 50
2, 3889680, Note_off_c, 2, 63, 0
2, 3889680, Note_on_c, 2, 65, 50
2, 3889920, Note_off_c, 2, 65, 0
2, 3889920, Note_on_c, 2, 66, 50
2, 3890400, Note_off_c, 2, 66, 0
2, 3890400, Note_on_c, 2, 68, 50
2, 3891120, Note_off_c, 2, 68, 0
2, 3891120, Note_on_c, 2, 70, 50
2, 3891600, Note_off_c, 2, 70, 0
2, 3891600, Note_on_c, 2, 70, 50
2, 3891840, Note_off_c, 2, 70, 0
2, 3891840, Note_on_c, 2, 70, 50
2, 3892080, Note_off_c, 2, 70, 0
2, 3892080, Note_on_c, 2, 68, 50
2, 3892320, Note_off_c, 2, 68, 0
2, 3892320, Note_on_c, 2, 70, 50
2, 3893040, Note_off_c, 2, 70, 0
2, 3893520, Note_on_c, 2, 70, 50
2, 3893760, Note_off_c, 2, 70, 0
2, 3893760, Note_on_c, 2, 68, 50
2, 3894240, Note_off_c, 2, 68, 0
2, 3894240, Note_on_c, 2, 66, 50
2, 3894720, Note_off_c, 2, 66, 0
2, 3894720, Note_on_c, 2, 63, 50
2, 3895680, Note_off_c, 2, 63, 0
2, 3895680, Note_on_c, 2, 68, 50
2, 3896160, Note_off_c, 2, 68, 0
2, 3896160, Note_on_c, 2, 66, 50
2, 3896400, Note_off_c, 2, 66, 0
2, 3896400, Note_on_c, 2, 66, 50
2, 3896640, Note_off_c, 2, 66, 0
2, 3896640, Note_on_c, 2, 65, 50
2, 3897120, Note_off_c, 2, 65, 0
2, 3897120, Note_on_c, 2, 65, 50
2, 3897360, Note_off_c, 2, 65, 0
2, 3897360, Note_on_c, 2, 65, 50
2, 3897600, Note_off_c, 2, 65, 0
2, 3897600, Note_on_c, 2, 65, 50
2, 3897840, Note_off_c, 2, 65, 0
2, 3897840, Note_on_c, 2, 68, 50
2, 3898080, Note_off_c, 2, 68, 0
2, 3898080, Note_on_c, 2, 68, 50
2, 3898320, Note_off_c, 2, 68, 0
2, 3898320, Note_on_c, 2, 68, 50
2, 3898560, Note_off_c, 2, 68, 0
2, 3898560, Note_on_c, 2, 68, 50
2, 3898800, Note_off_c, 2, 68, 0
2, 3898800, Note_on_c, 2, 61, 50
2, 3899280, Note_off_c, 2, 61, 0
2, 3899280, Note_on_c, 2, 70, 50
2, 3899520, Note_off_c, 2, 70, 0
2, 3899520, Note_on_c, 2, 68, 50
2, 3900000, Note_off_c, 2, 68, 0
2, 3900000, Note_on_c, 2, 70, 50
2, 3900480, Note_off_c, 2, 70, 0
2, 3900480, Note_on_c, 2, 66, 50
2, 3901440, Note_off_c, 2, 66, 0
2, 3901440, Note_on_c, 2, 70, 50
2, 3902160, Note_off_c, 2, 70, 0
2, 3902160, Note_on_c, 2, 70, 50
2, 3902640, Note_off_c, 2, 70, 0
2, 3902640, Note_on_c, 2, 47, 50
2, 3904080, Note_off_c, 2, 47, 0
2, 3904080, Note_on_c, 2, 70, 50
2, 3904560, Note_off_c, 2, 70, 0
2, 3904560, Note_on_c, 2, 66, 50
2, 3905040, Note_off_c, 2, 66, 0
2, 3905040, Note_on_c, 2, 66, 50
2, 3906000, Note_off_c, 2, 66, 0
2, 3906000, Note_on_c, 2, 66, 50
2, 3906480, Note_off_c, 2, 66, 0
2, 3906480, Note_on_c, 2, 61, 50
2, 3907920, Note_off_c, 2, 61, 0
2, 3907920, Note_on_c, 2, 66, 50
2, 3908640, Note_off_c, 2, 66, 0
2, 3908640, Note_on_c, 2, 66, 50
2, 3909120, Note_off_c, 2, 66, 0
2, 3909120, Note_on_c, 2, 68, 50
2, 3909600, Note_off_c, 2, 68, 0
2, 3909600, Note_on_c, 2, 68, 50
2, 3910080, Note_off_c, 2, 68, 0
2, 3910080, Note_on_c, 2, 66, 50
2, 3910560, Note_off_c, 2, 66, 0
2, 3910560, Note_on_c, 2, 68, 50
2, 3911040, Note_off_c, 2, 68, 0
2, 3911040, Note_on_c, 2, 68, 50
2, 3911520, Note_off_c, 2, 68, 0
2, 3911520, Note_on_c, 2, 65, 50
2, 3912000, Note_off_c, 2, 65, 0
2, 3912000, Note_on_c, 2, 61, 50
2, 3912240, Note_off_c, 2, 61, 0
2, 3912240, Note_on_c, 2, 54, 50
2, 3912720, Note_off_c, 2, 54, 0
2, 3912720, Note_on_c, 2, 70, 50
2, 3913200, Note_off_c, 2, 70, 0
2, 3913200, Note_on_c, 2, 68, 50
2, 3913440, Note_off_c, 2, 68, 0
2, 3913440, Note_on_c, 2, 70, 50
2, 3914160, Note_off_c, 2, 70, 0
2, 3914160, Note_on_c, 2, 65, 50
2, 3914640, Note_off_c, 2, 65, 0
2, 3914640, Note_on_c, 2, 65, 50
2, 3914880, Note_off_c, 2, 65, 0
2, 3914880, Note_on_c, 2, 66, 50
2, 3915360, Note_off_c, 2, 66, 0
2, 3915360, Note_on_c, 2, 68, 50
2, 3916080, Note_off_c, 2, 68, 0
2, 3916080, Note_on_c, 2, 66, 50
2, 3916800, Note_off_c, 2, 66, 0
2, 3916800, Note_on_c, 2, 70, 50
2, 3917280, Note_off_c, 2, 70, 0
2, 3917280, Note_on_c, 2, 70, 50
2, 3918000, Note_off_c, 2, 70, 0
2, 3918480, Note_on_c, 2, 70, 50
2, 3918720, Note_off_c, 2, 70, 0
2, 3918720, Note_on_c, 2, 68, 50
2, 3919680, Note_off_c, 2, 68, 0
2, 3919680, Note_on_c, 2, 63, 50
2, 3920160, Note_off_c, 2, 63, 0
2, 3920160, Note_on_c, 2, 66, 50
2, 3920400, Note_off_c, 2, 66, 0
2, 3920400, Note_on_c, 2, 66, 50
2, 3920640, Note_off_c, 2, 66, 0
2, 3920640, Note_on_c, 2, 68, 50
2, 3921120, Note_off_c, 2, 68, 0
2, 3921120, Note_on_c, 2, 66, 50
2, 3921840, Note_off_c, 2, 66, 0
2, 3921840, Note_on_c, 2, 65, 50
2, 3922080, Note_off_c, 2, 65, 0
2, 3922080, Note_on_c, 2, 63, 50
2, 3922320, Note_off_c, 2, 63, 0
2, 3922320, Note_on_c, 2, 65, 50
2, 3922560, Note_off_c, 2, 65, 0
2, 3922560, Note_on_c, 2, 66, 50
2, 3923040, Note_off_c, 2, 66, 0
2, 3923040, Note_on_c, 2, 68, 50
2, 3923760, Note_off_c, 2, 68, 0
2, 3923760, Note_on_c, 2, 70, 50
2, 3924240, Note_off_c, 2, 70, 0
2, 3924240, Note_on_c, 2, 70, 50
2, 3924480, Note_off_c, 2, 70, 0
2, 3924480, Note_on_c, 2, 70, 50
2, 3924720, Note_off_c, 2, 70, 0
2, 3924720, Note_on_c, 2, 68, 50
2, 3924960, Note_off_c, 2, 68, 0
2, 3924960, Note_on_c, 2, 70, 50
2, 3925680, Note_off_c, 2, 70, 0
2, 3926160, Note_on_c, 2, 70, 50
2, 3926400, Note_off_c, 2, 70, 0
2, 3926400, Note_on_c, 2, 68, 50
2, 3926880, Note_off_c, 2, 68, 0
2, 3926880, Note_on_c, 2, 66, 50
2, 3927360, Note_off_c, 2, 66, 0
2, 3927360, Note_on_c, 2, 63, 50
2, 3928320, Note_off_c, 2, 63, 0
2, 3928320, Note_on_c, 2, 68, 50
2, 3928800, Note_off_c, 2, 68, 0
2, 3928800, Note_on_c, 2, 66, 50
2, 3929040, Note_off_c, 2, 66, 0
2, 3929040, Note_on_c, 2, 66, 50
2, 3929280, Note_off_c, 2, 66, 0
2, 3929280, Note_on_c, 2, 65, 50
2, 3929760, Note_off_c, 2, 65, 0
2, 3929760, Note_on_c, 2, 65, 50
2, 3930000, Note_off_c, 2, 65, 0
2, 3930000, Note_on_c, 2, 65, 50
2, 3930240, Note_off_c, 2, 65, 0
2, 3930240, Note_on_c, 2, 65, 50
2, 3930480, Note_off_c, 2, 65, 0
2, 3930480, Note_on_c, 2, 68, 50
2, 3930720, Note_off_c, 2, 68, 0
2, 3930720, Note_on_c, 2, 68, 50
2, 3930960, Note_off_c, 2, 68, 0
2, 3930960, Note_on_c, 2, 68, 50
2, 3931200, Note_off_c, 2, 68, 0
2, 3931200, Note_on_c, 2, 68, 50
2, 3931440, Note_off_c, 2, 68, 0
2, 3931440, Note_on_c, 2, 61, 50
2, 3931920, Note_off_c, 2, 61, 0
2, 3931920, Note_on_c, 2, 70, 50
2, 3932160, Note_off_c, 2, 70, 0
2, 3932160, Note_on_c, 2, 68, 50
2, 3932640, Note_off_c, 2, 68, 0
2, 3932640, Note_on_c, 2, 70, 50
2, 3933120, Note_off_c, 2, 70, 0
2, 3933120, Note_on_c, 2, 66, 50
2, 3934080, Note_off_c, 2, 66, 0
2, 3934080, Note_on_c, 2, 70, 50
2, 3934800, Note_off_c, 2, 70, 0
2, 3934800, Note_on_c, 2, 70, 50
2, 3935280, Note_off_c, 2, 70, 0
2, 3935280, Note_on_c, 2, 47, 50
2, 3936720, Note_off_c, 2, 47, 0
2, 3936720, Note_on_c, 2, 70, 50
2, 3937200, Note_off_c, 2, 70, 0
2, 3937200, Note_on_c, 2, 66, 50
2, 3937680, Note_off_c, 2, 66, 0
2, 3937680, Note_on_c, 2, 66, 50
2, 3938640, Note_off_c, 2, 66, 0
2, 3938640, Note_on_c, 2, 66, 50
2, 3939120, Note_off_c, 2, 66, 0
2, 3939120, Note_on_c, 2, 61, 50
2, 3940560, Note_off_c, 2, 61, 0
2, 3940560, Note_on_c, 2, 66, 50
2, 3941280, Note_off_c, 2, 66, 0
2, 3941280, Note_on_c, 2, 66, 50
2, 3941760, Note_off_c, 2, 66, 0
2, 3941760, Note_on_c, 2, 68, 50
2, 3942240, Note_off_c, 2, 68, 0
2, 3942240, Note_on_c, 2, 68, 50
2, 3942720, Note_off_c, 2, 68, 0
2, 3942720, Note_on_c, 2, 66, 50
2, 3943200, Note_off_c, 2, 66, 0
2, 3943200, Note_on_c, 2, 68, 50
2, 3943680, Note_off_c, 2, 68, 0
2, 3943680, Note_on_c, 2, 68, 50
2, 3944160, Note_off_c, 2, 68, 0
2, 3944160, Note_on_c, 2, 65, 50
2, 3944640, Note_off_c, 2, 65, 0
2, 3944640, Note_on_c, 2, 61, 50
2, 3944880, Note_off_c, 2, 61, 0
2, 3944880, Note_on_c, 2, 54, 50
2, 3945360, Note_off_c, 2, 54, 0
2, 3945360, Note_on_c, 2, 70, 50
2, 3945840, Note_off_c, 2, 70, 0
2, 3945840, Note_on_c, 2, 68, 50
2, 3946080, Note_off_c, 2, 68, 0
2, 3946080, Note_on_c, 2, 70, 50
2, 3946800, Note_off_c, 2, 70, 0
2, 3946800, Note_on_c, 2, 65, 50
2, 3947760, Note_off_c, 2, 65, 0
2, 3947760, Note_on_c, 2, 49, 50
2, 3948480, Note_off_c, 2, 49, 0
2, 3948480, Note_on_c, 2, 57, 50
2, 3949200, Note_off_c, 2, 57, 0
2, 3949200, Note_on_c, 2, 52, 50
2, 3949920, Note_off_c, 2, 52, 0
2, 3949920, Note_on_c, 2, 51, 50
2, 3950640, Note_off_c, 2, 51, 0
2, 3950640, Note_on_c, 2, 47, 50
2, 3951120, Note_off_c, 2, 47, 0
2, 3951120, Note_on_c, 2, 54, 50
2, 3953040, Note_off_c, 2, 54, 0
2, 3953040, Note_on_c, 2, 68, 50
2, 3953520, Note_off_c, 2, 68, 0
2, 3953520, Note_on_c, 2, 68, 50
2, 3954000, Note_off_c, 2, 68, 0
2, 3954000, Note_on_c, 2, 49, 50
2, 3954720, Note_off_c, 2, 49, 0
2, 3954720, Note_on_c, 2, 57, 50
2, 3955440, Note_off_c, 2, 57, 0
2, 3955440, Note_on_c, 2, 52, 50
2, 3956160, Note_off_c, 2, 52, 0
2, 3956160, Note_on_c, 2, 51, 50
2, 3956880, Note_off_c, 2, 51, 0
2, 3956880, Note_on_c, 2, 47, 50
2, 3957360, Note_off_c, 2, 47, 0
2, 3957360, Note_on_c, 2, 54, 50
2, 3959280, Note_off_c, 2, 54, 0
2, 3959280, Note_on_c, 2, 68, 50
2, 3959760, Note_off_c, 2, 68, 0
2, 3959760, Note_on_c, 2, 68, 50
2, 3960240, Note_off_c, 2, 68, 0
2, 3960240, Note_on_c, 2, 49, 50
2, 3960960, Note_off_c, 2, 49, 0
2, 3960960, Note_on_c, 2, 57, 50
2, 3961680, Note_off_c, 2, 57, 0
2, 3961680, Note_on_c, 2, 52, 50
2, 3962400, Note_off_c, 2, 52, 0
2, 3962400, Note_on_c, 2, 51, 50
2, 3963120, Note_off_c, 2, 51, 0
2, 3963120, Note_on_c, 2, 47, 50
2, 3963600, Note_off_c, 2, 47, 0
2, 3963600, Note_on_c, 2, 54, 50
2, 3965520, Note_off_c, 2, 54, 0
2, 3965520, Note_on_c, 2, 68, 50
2, 3966000, Note_off_c, 2, 68, 0
2, 3966000, Note_on_c, 2, 68, 50
2, 3966480, Note_off_c, 2, 68, 0
2, 3966480, Note_on_c, 2, 49, 50
2, 3967200, Note_off_c, 2, 49, 0
2, 3967200, Note_on_c, 2, 57, 50
2, 3967920, Note_off_c, 2, 57, 0
2, 3967920, Note_on_c, 2, 52, 50
2, 3968640, Note_off_c, 2, 52, 0
2, 3968640, Note_on_c, 2, 51, 50
2, 3969360, Note_off_c, 2, 51, 0
2, 3969360, Note_on_c, 2, 47, 50
2, 3969840, Note_off_c, 2, 47, 0
2, 3969840, Note_on_c, 2, 54, 50
2, 3971760, Note_off_c, 2, 54, 0
2, 3971760, Note_on_c, 2, 68, 50
2, 3972240, Note_off_c, 2, 68, 0
2, 3972240, Note_on_c, 2, 68, 50
2, 3972720, Note_off_c, 2, 68, 0
2, 3972720, Note_on_c, 2, 49, 50
2, 3973440, Note_off_c, 2, 49, 0
2, 3973440, Note_on_c, 2, 57, 50
2, 3974160, Note_off_c, 2, 57, 0
2, 3974160, Note_on_c, 2, 52, 50
2, 3974880, Note_off_c, 2, 52, 0
2, 3974880, Note_on_c, 2, 51, 50
2, 3975600, Note_off_c, 2, 51, 0
2, 3975600, Note_on_c, 2, 47, 50
2, 3976080, Note_off_c, 2, 47, 0
2, 3976080, Note_on_c, 2, 54, 50
2, 3978000, Note_off_c, 2, 54, 0
2, 3978000, Note_on_c, 2, 68, 50
2, 3978480, Note_off_c, 2, 68, 0
2, 3978480, Note_on_c, 2, 68, 50
2, 3978960, Note_off_c, 2, 68, 0
2, 3978960, Note_on_c, 2, 49, 50
2, 3979680, Note_off_c, 2, 49, 0
2, 3979680, Note_on_c, 2, 57, 50
2, 3980400, Note_off_c, 2, 57, 0
2, 3980400, Note_on_c, 2, 52, 50
2, 3981120, Note_off_c, 2, 52, 0
2, 3981120, Note_on_c, 2, 51, 50
2, 3981840, Note_off_c, 2, 51, 0
2, 3981840, Note_on_c, 2, 47, 50
2, 3982320, Note_off_c, 2, 47, 0
2, 3982320, Note_on_c, 2, 70, 50
2, 3982800, Note_off_c, 2, 70, 0
2, 3982800, Note_on_c, 2, 70, 50
2, 3983280, Note_off_c, 2, 70, 0
2, 3983280, Note_on_c, 2, 68, 50
2, 3983520, Note_off_c, 2, 68, 0
2, 3983520, Note_on_c, 2, 70, 50
2, 3983760, Note_off_c, 2, 70, 0
2, 3984000, Note_on_c, 2, 65, 50
2, 3984480, Note_off_c, 2, 65, 0
2, 3984480, Note_on_c, 2, 65, 50
2, 3984720, Note_off_c, 2, 65, 0
2, 3984720, Note_on_c, 2, 65, 50
2, 3985200, Note_off_c, 2, 65, 0
2, 3985200, Note_on_c, 2, 65, 50
2, 3985440, Note_off_c, 2, 65, 0
2, 3985440, Note_on_c, 2, 63, 50
2, 3985680, Note_off_c, 2, 63, 0
2, 3985680, Note_on_c, 2, 65, 50
2, 3985920, Note_off_c, 2, 65, 0
2, 3985920, Note_on_c, 2, 66, 50
2, 3987360, Note_off_c, 2, 66, 0
2, 3987360, Note_on_c, 2, 65, 50
2, 3987600, Note_off_c, 2, 65, 0
2, 3987600, Note_on_c, 2, 66, 50
2, 3987840, Note_off_c, 2, 66, 0
2, 3987840, Note_on_c, 2, 68, 50
2, 3989280, Note_off_c, 2, 68, 0
2, 3989280, Note_on_c, 2, 66, 50
2, 3989520, Note_off_c, 2, 66, 0
2, 3989520, Note_on_c, 2, 68, 50
2, 3989760, Note_off_c, 2, 68, 0
2, 3989760, Note_on_c, 2, 71, 50
2, 3990240, Note_off_c, 2, 71, 0
2, 3990240, Note_on_c, 2, 71, 50
2, 3990480, Note_off_c, 2, 71, 0
2, 3990480, Note_on_c, 2, 71, 50
2, 3990720, Note_off_c, 2, 71, 0
2, 3990720, Note_on_c, 2, 71, 50
2, 3990960, Note_off_c, 2, 71, 0
2, 3990960, Note_on_c, 2, 71, 50
2, 3991440, Note_off_c, 2, 71, 0
2, 3991440, Note_on_c, 2, 71, 50
2, 3991920, Note_off_c, 2, 71, 0
2, 3991920, Note_on_c, 2, 66, 50
2, 3992640, Note_off_c, 2, 66, 0
2, 3992640, Note_on_c, 2, 70, 50
2, 3993120, Note_off_c, 2, 70, 0
2, 3993120, Note_on_c, 2, 70, 50
2, 3993840, Note_off_c, 2, 70, 0
2, 3994320, Note_on_c, 2, 70, 50
2, 3994560, Note_off_c, 2, 70, 0
2, 3994560, Note_on_c, 2, 68, 50
2, 3995280, Note_off_c, 2, 68, 0
2, 3995520, Note_on_c, 2, 63, 50
2, 3996000, Note_off_c, 2, 63, 0
2, 3996000, Note_on_c, 2, 66, 50
2, 3996240, Note_off_c, 2, 66, 0
2, 3996240, Note_on_c, 2, 66, 50
2, 3996480, Note_off_c, 2, 66, 0
2, 3996480, Note_on_c, 2, 68, 50
2, 3996960, Note_off_c, 2, 68, 0
2, 3996960, Note_on_c, 2, 66, 50
2, 3997680, Note_off_c, 2, 66, 0
2, 3997680, Note_on_c, 2, 65, 50
2, 3997920, Note_off_c, 2, 65, 0
2, 3997920, Note_on_c, 2, 63, 50
2, 3998160, Note_off_c, 2, 63, 0
2, 3998160, Note_on_c, 2, 65, 50
2, 3998400, Note_off_c, 2, 65, 0
2, 3998400, Note_on_c, 2, 66, 50
2, 3998880, Note_off_c, 2, 66, 0
2, 3998880, Note_on_c, 2, 68, 50
2, 3999600, Note_off_c, 2, 68, 0
2, 3999600, Note_on_c, 2, 70, 50
2, 4000080, Note_off_c, 2, 70, 0
2, 4000080, Note_on_c, 2, 70, 50
2, 4000320, Note_off_c, 2, 70, 0
2, 4000320, Note_on_c, 2, 70, 50
2, 4000560, Note_off_c, 2, 70, 0
2, 4000560, Note_on_c, 2, 68, 50
2, 4000800, Note_off_c, 2, 68, 0
2, 4000800, Note_on_c, 2, 70, 50
2, 4001520, Note_off_c, 2, 70, 0
2, 4002000, Note_on_c, 2, 70, 50
2, 4002240, Note_off_c, 2, 70, 0
2, 4002240, Note_on_c, 2, 68, 50
2, 4002720, Note_off_c, 2, 68, 0
2, 4002720, Note_on_c, 2, 66, 50
2, 4003200, Note_off_c, 2, 66, 0
2, 4003200, Note_on_c, 2, 63, 50
2, 4004160, Note_off_c, 2, 63, 0
2, 4004160, Note_on_c, 2, 68, 50
2, 4004640, Note_off_c, 2, 68, 0
2, 4004640, Note_on_c, 2, 66, 50
2, 4004880, Note_off_c, 2, 66, 0
2, 4004880, Note_on_c, 2, 66, 50
2, 4005120, Note_off_c, 2, 66, 0
2, 4005120, Note_on_c, 2, 65, 50
2, 4005600, Note_off_c, 2, 65, 0
2, 4005600, Note_on_c, 2, 65, 50
2, 4005840, Note_off_c, 2, 65, 0
2, 4005840, Note_on_c, 2, 65, 50
2, 4006080, Note_off_c, 2, 65, 0
2, 4006080, Note_on_c, 2, 65, 50
2, 4006320, Note_off_c, 2, 65, 0
2, 4006320, Note_on_c, 2, 68, 50
2, 4006560, Note_off_c, 2, 68, 0
2, 4006560, Note_on_c, 2, 68, 50
2, 4006800, Note_off_c, 2, 68, 0
2, 4006800, Note_on_c, 2, 68, 50
2, 4007040, Note_off_c, 2, 68, 0
2, 4007040, Note_on_c, 2, 68, 50
2, 4007280, Note_off_c, 2, 68, 0
2, 4007280, Note_on_c, 2, 61, 50
2, 4007760, Note_off_c, 2, 61, 0
2, 4007760, Note_on_c, 2, 70, 50
2, 4008000, Note_off_c, 2, 70, 0
2, 4008000, Note_on_c, 2, 68, 50
2, 4008480, Note_off_c, 2, 68, 0
2, 4008480, Note_on_c, 2, 70, 50
2, 4008960, Note_off_c, 2, 70, 0
2, 4008960, Note_on_c, 2, 66, 50
2, 4009920, Note_off_c, 2, 66, 0
2, 4009920, Note_on_c, 2, 70, 50
2, 4010640, Note_off_c, 2, 70, 0
2, 4010640, Note_on_c, 2, 70, 50
2, 4011120, Note_off_c, 2, 70, 0
2, 4011120, Note_on_c, 2, 47, 50
2, 4012560, Note_off_c, 2, 47, 0
2, 4012560, Note_on_c, 2, 70, 50
2, 4013040, Note_off_c, 2, 70, 0
2, 4013040, Note_on_c, 2, 66, 50
2, 4013520, Note_off_c, 2, 66, 0
2, 4013520, Note_on_c, 2, 66, 50
2, 4014480, Note_off_c, 2, 66, 0
2, 4014480, Note_on_c, 2, 66, 50
2, 4014960, Note_off_c, 2, 66, 0
2, 4014960, Note_on_c, 2, 61, 50
2, 4016400, Note_off_c, 2, 61, 0
2, 4016400, Note_on_c, 2, 66, 50
2, 4017120, Note_off_c, 2, 66, 0
2, 4017120, Note_on_c, 2, 66, 50
2, 4017600, Note_off_c, 2, 66, 0
2, 4017600, Note_on_c, 2, 68, 50
2, 4018080, Note_off_c, 2, 68, 0
2, 4018080, Note_on_c, 2, 68, 50
2, 4018560, Note_off_c, 2, 68, 0
2, 4018560, Note_on_c, 2, 66, 50
2, 4019040, Note_off_c, 2, 66, 0
2, 4019040, Note_on_c, 2, 68, 50
2, 4019520, Note_off_c, 2, 68, 0
2, 4019520, Note_on_c, 2, 68, 50
2, 4020000, Note_off_c, 2, 68, 0
2, 4020000, Note_on_c, 2, 65, 50
2, 4020480, Note_off_c, 2, 65, 0
2, 4020480, Note_on_c, 2, 61, 50
2, 4020720, Note_off_c, 2, 61, 0
2, 4020720, Note_on_c, 2, 70, 50
2, 4021200, Note_off_c, 2, 70, 0
2, 4021200, Note_on_c, 2, 70, 50
2, 4021440, Note_off_c, 2, 70, 0
2, 4021440, Note_on_c, 2, 68, 50
2, 4021920, Note_off_c, 2, 68, 0
2, 4021920, Note_on_c, 2, 70, 50
2, 4022400, Note_off_c, 2, 70, 0
2, 4022400, Note_on_c, 2, 66, 50
2, 4023360, Note_off_c, 2, 66, 0
2, 4023360, Note_on_c, 2, 70, 50
2, 4024080, Note_off_c, 2, 70, 0
2, 4024080, Note_on_c, 2, 70, 50
2, 4024800, Note_off_c, 2, 70, 0
2, 4024800, Note_on_c, 2, 54, 50
2, 4026240, Note_off_c, 2, 54, 0
2, 4026240, Note_on_c, 2, 66, 50
2, 4026720, Note_off_c, 2, 66, 0
2, 4026720, Note_on_c, 2, 66, 50
2, 4026960, Note_off_c, 2, 66, 0
2, 4026960, Note_on_c, 2, 66, 50
2, 4027440, Note_off_c, 2, 66, 0
2, 4027440, Note_on_c, 2, 66, 50
2, 4027920, Note_off_c, 2, 66, 0
2, 4027920, Note_on_c, 2, 66, 50
2, 4028160, Note_off_c, 2, 66, 0
2, 4028640, Note_on_c, 2, 70, 50
2, 4029120, Note_off_c, 2, 70, 0
2, 4029120, Note_on_c, 2, 68, 50
2, 4029600, Note_off_c, 2, 68, 0
2, 4029600, Note_on_c, 2, 66, 50
2, 4030320, Note_off_c, 2, 66, 0
2, 4030320, Note_on_c, 2, 63, 50
2, 4030800, Note_off_c, 2, 63, 0
2, 4030800, Note_on_c, 2, 68, 50
2, 4031280, Note_off_c, 2, 68, 0
2, 4031280, Note_on_c, 2, 66, 50
2, 4031760, Note_off_c, 2, 66, 0
2, 4031760, Note_on_c, 2, 68, 50
2, 4032240, Note_off_c, 2, 68, 0
2, 4032240, Note_on_c, 2, 68, 50
2, 4032720, Note_off_c, 2, 68, 0
2, 4032720, Note_on_c, 2, 66, 50
2, 4033200, Note_off_c, 2, 66, 0
2, 4033200, Note_on_c, 2, 68, 50
2, 4033680, Note_off_c, 2, 68, 0
2, 4033680, Note_on_c, 2, 65, 50
2, 4034160, Note_off_c, 2, 65, 0
2, 4034160, Note_on_c, 2, 66, 50
2, 4034640, Note_off_c, 2, 66, 0
2, 4034640, Note_on_c, 2, 70, 50
2, 4035120, Note_off_c, 2, 70, 0
2, 4035120, Note_on_c, 2, 68, 50
2, 4035360, Note_off_c, 2, 68, 0
2, 4035360, Note_on_c, 2, 70, 50
2, 4036080, Note_off_c, 2, 70, 0
2, 4036080, Note_on_c, 2, 63, 50
2, 4036560, Note_off_c, 2, 63, 0
2, 4036560, Note_on_c, 2, 68, 50
2, 4037040, Note_off_c, 2, 68, 0
2, 4037040, Note_on_c, 2, 66, 50
2, 4037520, Note_off_c, 2, 66, 0
2, 4037520, Note_on_c, 2, 68, 50
2, 4038000, Note_off_c, 2, 68, 0
2, 4038000, Note_on_c, 2, 68, 50
2, 4038480, Note_off_c, 2, 68, 0
2, 4038480, Note_on_c, 2, 66, 50
2, 4038960, Note_off_c, 2, 66, 0
2, 4038960, Note_on_c, 2, 68, 50
2, 4039440, Note_off_c, 2, 68, 0
2, 4039440, Note_on_c, 2, 65, 50
2, 4039920, Note_off_c, 2, 65, 0
2, 4047600, Note_on_c, 2, 47, 50
2, 4047720, Note_off_c, 2, 47, 0
2, 4047840, Note_on_c, 2, 47, 50
2, 4048080, Note_off_c, 2, 47, 0
2, 4048080, Note_on_c, 2, 50, 50
2, 4048320, Note_off_c, 2, 50, 0
2, 4048320, Note_on_c, 2, 47, 50
2, 4048440, Note_off_c, 2, 47, 0
2, 4048440, Note_on_c, 2, 52, 50
2, 4048680, Note_off_c, 2, 52, 0
2, 4048680, Note_on_c, 2, 47, 50
2, 4048800, Note_off_c, 2, 47, 0
2, 4048800, Note_on_c, 2, 53, 50
2, 4049280, Note_off_c, 2, 53, 0
2, 4049280, Note_on_c, 2, 54, 50
2, 4049520, Note_off_c, 2, 54, 0
2, 4049520, Note_on_c, 2, 47, 50
2, 4049640, Note_off_c, 2, 47, 0
2, 4049760, Note_on_c, 2, 47, 50
2, 4050000, Note_off_c, 2, 47, 0
2, 4050000, Note_on_c, 2, 50, 50
2, 4050240, Note_off_c, 2, 50, 0
2, 4050240, Note_on_c, 2, 47, 50
2, 4050360, Note_off_c, 2, 47, 0
2, 4050360, Note_on_c, 2, 54, 50
2, 4050600, Note_off_c, 2, 54, 0
2, 4050600, Note_on_c, 2, 47, 50
2, 4050720, Note_off_c, 2, 47, 0
2, 4050720, Note_on_c, 2, 53, 50
2, 4051200, Note_off_c, 2, 53, 0
2, 4051200, Note_on_c, 2, 52, 50
2, 4051440, Note_off_c, 2, 52, 0
2, 4091760, Note_on_c, 2, 47, 50
2, 4091880, Note_off_c, 2, 47, 0
2, 4092000, Note_on_c, 2, 47, 50
2, 4092240, Note_off_c, 2, 47, 0
2, 4092240, Note_on_c, 2, 50, 50
2, 4092480, Note_off_c, 2, 50, 0
2, 4092480, Note_on_c, 2, 47, 50
2, 4092600, Note_off_c, 2, 47, 0
2, 4092600, Note_on_c, 2, 52, 50
2, 4092840, Note_off_c, 2, 52, 0
2, 4092840, Note_on_c, 2, 47, 50
2, 4092960, Note_off_c, 2, 47, 0
2, 4092960, Note_on_c, 2, 53, 50
2, 4093440, Note_off_c, 2, 53, 0
2, 4093440, Note_on_c, 2, 54, 50
2, 4093680, Note_off_c, 2, 54, 0
2, 4093680, Note_on_c, 2, 47, 50
2, 4093800, Note_off_c, 2, 47, 0
2, 4093920, Note_on_c, 2, 47, 50
2, 4094160, Note_off_c, 2, 47, 0
2, 4094160, Note_on_c, 2, 50, 50
2, 4094400, Note_off_c, 2, 50, 0
2, 4094400, Note_on_c, 2, 47, 50
2, 4094520, Note_off_c, 2, 47, 0
2, 4094520, Note_on_c, 2, 54, 50
2, 4094760, Note_off_c, 2, 54, 0
2, 4094760, Note_on_c, 2, 47, 50
2, 4094880, Note_off_c, 2, 47, 0
2, 4094880, Note_on_c, 2, 53, 50
2, 4095360, Note_off_c, 2, 53, 0
2, 4095360, Note_on_c, 2, 52, 50
2, 4095600, Note_off_c, 2, 52, 0
2, 4095600, Note_on_c, 2, 47, 50
2, 4095720, Note_off_c, 2, 47, 0
2, 4095840, Note_on_c, 2, 47, 50
2, 4096080, Note_off_c, 2, 47, 0
2, 4096080, Note_on_c, 2, 50, 50
2, 4096320, Note_off_c, 2, 50, 0
2, 4096320, Note_on_c, 2, 47, 50
2, 4096440, Note_off_c, 2, 47, 0
2, 4096440, Note_on_c, 2, 52, 50
2, 4096680, Note_off_c, 2, 52, 0
2, 4096680, Note_on_c, 2, 47, 50
2, 4096800, Note_off_c, 2, 47, 0
2, 4096800, Note_on_c, 2, 53, 50
2, 4097280, Note_off_c, 2, 53, 0
2, 4097280, Note_on_c, 2, 54, 50
2, 4097520, Note_off_c, 2, 54, 0
2, 4097520, Note_on_c, 2, 47, 50
2, 4097640, Note_off_c, 2, 47, 0
2, 4097760, Note_on_c, 2, 47, 50
2, 4098000, Note_off_c, 2, 47, 0
2, 4098000, Note_on_c, 2, 50, 50
2, 4098240, Note_off_c, 2, 50, 0
2, 4098240, Note_on_c, 2, 47, 50
2, 4098360, Note_off_c, 2, 47, 0
2, 4098360, Note_on_c, 2, 54, 50
2, 4098600, Note_off_c, 2, 54, 0
2, 4098600, Note_on_c, 2, 47, 50
2, 4098720, Note_off_c, 2, 47, 0
2, 4098720, Note_on_c, 2, 53, 50
2, 4099200, Note_off_c, 2, 53, 0
2, 4099200, Note_on_c, 2, 52, 50
2, 4099440, Note_off_c, 2, 52, 0
2, 4099680, Note_on_c, 2, 59, 50
2, 4099800, Note_off_c, 2, 59, 0
2, 4099800, Note_on_c, 2, 59, 50
2, 4099920, Note_off_c, 2, 59, 0
2, 4099920, Note_on_c, 2, 59, 50
2, 4100040, Note_off_c, 2, 59, 0
2, 4100040, Note_on_c, 2, 59, 50
2, 4100160, Note_off_c, 2, 59, 0
2, 4100160, Note_on_c, 2, 59, 50
2, 4100280, Note_off_c, 2, 59, 0
2, 4100280, Note_on_c, 2, 59, 50
2, 4100400, Note_off_c, 2, 59, 0
2, 4100640, Note_on_c, 2, 47, 50
2, 4100880, Note_off_c, 2, 47, 0
2, 4100880, Note_on_c, 2, 51, 50
2, 4101000, Note_off_c, 2, 51, 0
2, 4101000, Note_on_c, 2, 54, 50
2, 4101120, Note_off_c, 2, 54, 0
2, 4101120, Note_on_c, 2, 59, 50
2, 4101360, Note_off_c, 2, 59, 0
2, 4101360, Note_on_c, 2, 57, 50
2, 4102080, Note_off_c, 2, 57, 0
2, 4102080, Note_on_c, 2, 59, 50
2, 4102320, Note_off_c, 2, 59, 0
2, 4102320, Note_on_c, 2, 61, 50
2, 4103040, Note_off_c, 2, 61, 0
2, 4103280, Note_on_c, 2, 59, 50
2, 4103400, Note_off_c, 2, 59, 0
2, 4103400, Note_on_c, 2, 59, 50
2, 4103520, Note_off_c, 2, 59, 0
2, 4103520, Note_on_c, 2, 59, 50
2, 4103640, Note_off_c, 2, 59, 0
2, 4103640, Note_on_c, 2, 59, 50
2, 4103760, Note_off_c, 2, 59, 0
2, 4103760, Note_on_c, 2, 59, 50
2, 4103880, Note_off_c, 2, 59, 0
2, 4103880, Note_on_c, 2, 59, 50
2, 4104000, Note_off_c, 2, 59, 0
2, 4104000, Note_on_c, 2, 59, 50
2, 4104120, Note_off_c, 2, 59, 0
2, 4104120, Note_on_c, 2, 59, 50
2, 4104240, Note_off_c, 2, 59, 0
2, 4104480, Note_on_c, 2, 47, 50
2, 4104720, Note_off_c, 2, 47, 0
2, 4104720, Note_on_c, 2, 51, 50
2, 4104840, Note_off_c, 2, 51, 0
2, 4104840, Note_on_c, 2, 54, 50
2, 4104960, Note_off_c, 2, 54, 0
2, 4104960, Note_on_c, 2, 59, 50
2, 4105200, Note_off_c, 2, 59, 0
2, 4105200, Note_on_c, 2, 57, 50
2, 4105920, Note_off_c, 2, 57, 0
2, 4105920, Note_on_c, 2, 59, 50
2, 4106160, Note_off_c, 2, 59, 0
2, 4106160, Note_on_c, 2, 61, 50
2, 4107120, Note_off_c, 2, 61, 0
2, 4107360, Note_on_c, 2, 64, 50
2, 4107480, Note_off_c, 2, 64, 0
2, 4107600, Note_on_c, 2, 64, 50
2, 4107720, Note_off_c, 2, 64, 0
2, 4107840, Note_on_c, 2, 64, 50
2, 4108080, Note_off_c, 2, 64, 0
2, 4108080, Note_on_c, 2, 63, 50
2, 4108320, Note_off_c, 2, 63, 0
2, 4108320, Note_on_c, 2, 61, 50
2, 4108560, Note_off_c, 2, 61, 0
2, 4108560, Note_on_c, 2, 59, 50
2, 4108800, Note_off_c, 2, 59, 0
2, 4108800, Note_on_c, 2, 61, 50
2, 4109160, Note_off_c, 2, 61, 0
2, 4109280, Note_on_c, 2, 54, 50
2, 4109520, Note_off_c, 2, 54, 0
2, 4109520, Note_on_c, 2, 59, 50
2, 4109760, Note_off_c, 2, 59, 0
2, 4109760, Note_on_c, 2, 54, 50
2, 4110000, Note_off_c, 2, 54, 0
2, 4110000, Note_on_c, 2, 57, 50
2, 4110240, Note_off_c, 2, 57, 0
2, 4110240, Note_on_c, 2, 54, 50
2, 4110480, Note_off_c, 2, 54, 0
2, 4110480, Note_on_c, 2, 59, 50
2, 4110720, Note_off_c, 2, 59, 0
2, 4110720, Note_on_c, 2, 61, 50
2, 4110840, Note_off_c, 2, 61, 0
2, 4111200, Note_on_c, 2, 64, 50
2, 4111320, Note_off_c, 2, 64, 0
2, 4111440, Note_on_c, 2, 64, 50
2, 4111560, Note_off_c, 2, 64, 0
2, 4111680, Note_on_c, 2, 64, 50
2, 4111920, Note_off_c, 2, 64, 0
2, 4111920, Note_on_c, 2, 63, 50
2, 4112160, Note_off_c, 2, 63, 0
2, 4112160, Note_on_c, 2, 61, 50
2, 4112400, Note_off_c, 2, 61, 0
2, 4112400, Note_on_c, 2, 59, 50
2, 4112640, Note_off_c, 2, 59, 0
2, 4112640, Note_on_c, 2, 61, 50
2, 4112880, Note_off_c, 2, 61, 0
2, 4112880, Note_on_c, 2, 54, 50
2, 4113240, Note_off_c, 2, 54, 0
2, 4113240, Note_on_c, 2, 57, 50
2, 4113480, Note_off_c, 2, 57, 0
2, 4113480, Note_on_c, 2, 59, 50
2, 4113840, Note_off_c, 2, 59, 0
2, 4113840, Note_on_c, 2, 57, 50
2, 4114080, Note_off_c, 2, 57, 0
2, 4114080, Note_on_c, 2, 59, 50
2, 4114320, Note_off_c, 2, 59, 0
2, 4114320, Note_on_c, 2, 61, 50
2, 4114560, Note_off_c, 2, 61, 0
2, 4114560, Note_on_c, 2, 59, 50
2, 4114800, Note_off_c, 2, 59, 0
2, 4139760, Note_on_c, 2, 47, 50
2, 4139880, Note_off_c, 2, 47, 0
2, 4140000, Note_on_c, 2, 47, 50
2, 4140240, Note_off_c, 2, 47, 0
2, 4140240, Note_on_c, 2, 50, 50
2, 4140480, Note_off_c, 2, 50, 0
2, 4140480, Note_on_c, 2, 47, 50
2, 4140600, Note_off_c, 2, 47, 0
2, 4140600, Note_on_c, 2, 52, 50
2, 4140840, Note_off_c, 2, 52, 0
2, 4140840, Note_on_c, 2, 47, 50
2, 4140960, Note_off_c, 2, 47, 0
2, 4140960, Note_on_c, 2, 53, 50
2, 4141440, Note_off_c, 2, 53, 0
2, 4141440, Note_on_c, 2, 54, 50
2, 4141680, Note_off_c, 2, 54, 0
2, 4141680, Note_on_c, 2, 47, 50
2, 4141800, Note_off_c, 2, 47, 0
2, 4141920, Note_on_c, 2, 47, 50
2, 4142160, Note_off_c, 2, 47, 0
2, 4142160, Note_on_c, 2, 50, 50
2, 4142400, Note_off_c, 2, 50, 0
2, 4142400, Note_on_c, 2, 47, 50
2, 4142520, Note_off_c, 2, 47, 0
2, 4142520, Note_on_c, 2, 54, 50
2, 4142760, Note_off_c, 2, 54, 0
2, 4142760, Note_on_c, 2, 47, 50
2, 4142880, Note_off_c, 2, 47, 0
2, 4142880, Note_on_c, 2, 53, 50
2, 4143360, Note_off_c, 2, 53, 0
2, 4143360, Note_on_c, 2, 52, 50
2, 4143600, Note_off_c, 2, 52, 0
2, 4143600, Note_on_c, 2, 47, 50
2, 4143720, Note_off_c, 2, 47, 0
2, 4143840, Note_on_c, 2, 47, 50
2, 4144080, Note_off_c, 2, 47, 0
2, 4144080, Note_on_c, 2, 50, 50
2, 4144320, Note_off_c, 2, 50, 0
2, 4144320, Note_on_c, 2, 47, 50
2, 4144440, Note_off_c, 2, 47, 0
2, 4144440, Note_on_c, 2, 52, 50
2, 4144680, Note_off_c, 2, 52, 0
2, 4144680, Note_on_c, 2, 47, 50
2, 4144800, Note_off_c, 2, 47, 0
2, 4144800, Note_on_c, 2, 53, 50
2, 4145280, Note_off_c, 2, 53, 0
2, 4145280, Note_on_c, 2, 54, 50
2, 4145520, Note_off_c, 2, 54, 0
2, 4145520, Note_on_c, 2, 47, 50
2, 4145640, Note_off_c, 2, 47, 0
2, 4145760, Note_on_c, 2, 47, 50
2, 4146000, Note_off_c, 2, 47, 0
2, 4146000, Note_on_c, 2, 50, 50
2, 4146240, Note_off_c, 2, 50, 0
2, 4146240, Note_on_c, 2, 47, 50
2, 4146360, Note_off_c, 2, 47, 0
2, 4146360, Note_on_c, 2, 54, 50
2, 4146600, Note_off_c, 2, 54, 0
2, 4146600, Note_on_c, 2, 47, 50
2, 4146720, Note_off_c, 2, 47, 0
2, 4146720, Note_on_c, 2, 53, 50
2, 4147200, Note_off_c, 2, 53, 0
2, 4147200, Note_on_c, 2, 52, 50
2, 4147440, Note_off_c, 2, 52, 0
2, 4147440, Note_on_c, 2, 47, 50
2, 4147560, Note_off_c, 2, 47, 0
2, 4147680, Note_on_c, 2, 47, 50
2, 4147920, Note_off_c, 2, 47, 0
2, 4147920, Note_on_c, 2, 50, 50
2, 4148160, Note_off_c, 2, 50, 0
2, 4148160, Note_on_c, 2, 47, 50
2, 4148280, Note_off_c, 2, 47, 0
2, 4148280, Note_on_c, 2, 52, 50
2, 4148520, Note_off_c, 2, 52, 0
2, 4148520, Note_on_c, 2, 47, 50
2, 4148640, Note_off_c, 2, 47, 0
2, 4148640, Note_on_c, 2, 53, 50
2, 4149240, Note_off_c, 2, 53, 0
2, 4149240, Note_on_c, 2, 54, 50
2, 4149480, Note_off_c, 2, 54, 0
2, 4149600, Note_on_c, 2, 42, 50
2, 4149840, Note_off_c, 2, 42, 0
2, 4149840, Note_on_c, 2, 45, 50
2, 4150080, Note_off_c, 2, 45, 0
2, 4150080, Note_on_c, 2, 42, 50
2, 4150200, Note_off_c, 2, 42, 0
2, 4150200, Note_on_c, 2, 47, 50
2, 4150440, Note_off_c, 2, 47, 0
2, 4150440, Note_on_c, 2, 42, 50
2, 4150560, Note_off_c, 2, 42, 0
2, 4150560, Note_on_c, 2, 48, 50
2, 4151040, Note_off_c, 2, 48, 0
2, 4151040, Note_on_c, 2, 49, 50
2, 4151280, Note_off_c, 2, 49, 0
2, 4151280, Note_on_c, 2, 47, 50
2, 4151400, Note_off_c, 2, 47, 0
2, 4151520, Note_on_c, 2, 47, 50
2, 4151760, Note_off_c, 2, 47, 0
2, 4151760, Note_on_c, 2, 50, 50
2, 4152000, Note_off_c, 2, 50, 0
2, 4152000, Note_on_c, 2, 47, 50
2, 4152120, Note_off_c, 2, 47, 0
2, 4152120, Note_on_c, 2, 52, 50
2, 4152360, Note_off_c, 2, 52, 0
2, 4152360, Note_on_c, 2, 47, 50
2, 4152480, Note_off_c, 2, 47, 0
2, 4152480, Note_on_c, 2, 53, 50
2, 4153080, Note_off_c, 2, 53, 0
2, 4153080, Note_on_c, 2, 54, 50
2, 4153320, Note_off_c, 2, 54, 0
2, 4153440, Note_on_c, 2, 42, 50
2, 4153680, Note_off_c, 2, 42, 0
2, 4153680, Note_on_c, 2, 45, 50
2, 4153920, Note_off_c, 2, 45, 0
2, 4153920, Note_on_c, 2, 42, 50
2, 4154040, Note_off_c, 2, 42, 0
2, 4154040, Note_on_c, 2, 47, 50
2, 4154280, Note_off_c, 2, 47, 0
2, 4154280, Note_on_c, 2, 42, 50
2, 4154400, Note_off_c, 2, 42, 0
2, 4154400, Note_on_c, 2, 48, 50
2, 4154880, Note_off_c, 2, 48, 0
2, 4154880, Note_on_c, 2, 49, 50
2, 4155120, Note_off_c, 2, 49, 0
2, 4155120, Note_on_c, 2, 47, 50
2, 4155240, Note_off_c, 2, 47, 0
2, 4155360, Note_on_c, 2, 47, 50
2, 4155600, Note_off_c, 2, 47, 0
2, 4155600, Note_on_c, 2, 50, 50
2, 4155840, Note_off_c, 2, 50, 0
2, 4155840, Note_on_c, 2, 47, 50
2, 4155960, Note_off_c, 2, 47, 0
2, 4155960, Note_on_c, 2, 52, 50
2, 4156200, Note_off_c, 2, 52, 0
2, 4156200, Note_on_c, 2, 47, 50
2, 4156320, Note_off_c, 2, 47, 0
2, 4156320, Note_on_c, 2, 53, 50
2, 4156920, Note_off_c, 2, 53, 0
2, 4156920, Note_on_c, 2, 54, 50
2, 4157160, Note_off_c, 2, 54, 0
2, 4157280, Note_on_c, 2, 42, 50
2, 4157520, Note_off_c, 2, 42, 0
2, 4157520, Note_on_c, 2, 45, 50
2, 4157760, Note_off_c, 2, 45, 0
2, 4157760, Note_on_c, 2, 42, 50
2, 4157880, Note_off_c, 2, 42, 0
2, 4157880, Note_on_c, 2, 47, 50
2, 4158120, Note_off_c, 2, 47, 0
2, 4158120, Note_on_c, 2, 42, 50
2, 4158240, Note_off_c, 2, 42, 0
2, 4158240, Note_on_c, 2, 48, 50
2, 4158720, Note_off_c, 2, 48, 0
2, 4158720, Note_on_c, 2, 49, 50
2, 4158960, Note_off_c, 2, 49, 0
2, 4158960, Note_on_c, 2, 47, 50
2, 4159080, Note_off_c, 2, 47, 0
2, 4159200, Note_on_c, 2, 47, 50
2, 4159440, Note_off_c, 2, 47, 0
2, 4159440, Note_on_c, 2, 50, 50
2, 4159680, Note_off_c, 2, 50, 0
2, 4159680, Note_on_c, 2, 47, 50
2, 4159800, Note_off_c, 2, 47, 0
2, 4159800, Note_on_c, 2, 52, 50
2, 4160040, Note_off_c, 2, 52, 0
2, 4160040, Note_on_c, 2, 47, 50
2, 4160160, Note_off_c, 2, 47, 0
2, 4160160, Note_on_c, 2, 53, 50
2, 4160760, Note_off_c, 2, 53, 0
2, 4160760, Note_on_c, 2, 54, 50
2, 4161000, Note_off_c, 2, 54, 0
2, 4161120, Note_on_c, 2, 42, 50
2, 4161360, Note_off_c, 2, 42, 0
2, 4161360, Note_on_c, 2, 45, 50
2, 4161600, Note_off_c, 2, 45, 0
2, 4161600, Note_on_c, 2, 42, 50
2, 4161720, Note_off_c, 2, 42, 0
2, 4161720, Note_on_c, 2, 47, 50
2, 4161960, Note_off_c, 2, 47, 0
2, 4161960, Note_on_c, 2, 42, 50
2, 4162080, Note_off_c, 2, 42, 0
2, 4162080, Note_on_c, 2, 48, 50
2, 4162560, Note_off_c, 2, 48, 0
2, 4162560, Note_on_c, 2, 49, 50
2, 4162800, Note_off_c, 2, 49, 0
2, 4162800, Note_on_c, 2, 47, 50
2, 4162920, Note_off_c, 2, 47, 0
2, 4163040, Note_on_c, 2, 47, 50
2, 4163280, Note_off_c, 2, 47, 0
2, 4163280, Note_on_c, 2, 50, 50
2, 4163520, Note_off_c, 2, 50, 0
2, 4163520, Note_on_c, 2, 47, 50
2, 4163640, Note_off_c, 2, 47, 0
2, 4163640, Note_on_c, 2, 52, 50
2, 4163880, Note_off_c, 2, 52, 0
2, 4163880, Note_on_c, 2, 47, 50
2, 4164000, Note_off_c, 2, 47, 0
2, 4164000, Note_on_c, 2, 53, 50
2, 4164600, Note_off_c, 2, 53, 0
2, 4164600, Note_on_c, 2, 54, 50
2, 4164840, Note_off_c, 2, 54, 0
2, 4164960, Note_on_c, 2, 42, 50
2, 4165200, Note_off_c, 2, 42, 0
2, 4165200, Note_on_c, 2, 45, 50
2, 4165440, Note_off_c, 2, 45, 0
2, 4165440, Note_on_c, 2, 42, 50
2, 4165560, Note_off_c, 2, 42, 0
2, 4165560, Note_on_c, 2, 47, 50
2, 4165800, Note_off_c, 2, 47, 0
2, 4165800, Note_on_c, 2, 42, 50
2, 4165920, Note_off_c, 2, 42, 0
2, 4165920, Note_on_c, 2, 48, 50
2, 4166400, Note_off_c, 2, 48, 0
2, 4166400, Note_on_c, 2, 49, 50
2, 4166640, Note_off_c, 2, 49, 0
2, 4166640, Note_on_c, 2, 47, 50
2, 4166760, Note_off_c, 2, 47, 0
2, 4166880, Note_on_c, 2, 47, 50
2, 4167120, Note_off_c, 2, 47, 0
2, 4167120, Note_on_c, 2, 50, 50
2, 4167360, Note_off_c, 2, 50, 0
2, 4167360, Note_on_c, 2, 47, 50
2, 4167480, Note_off_c, 2, 47, 0
2, 4167480, Note_on_c, 2, 52, 50
2, 4167720, Note_off_c, 2, 52, 0
2, 4167720, Note_on_c, 2, 47, 50
2, 4167840, Note_off_c, 2, 47, 0
2, 4167840, Note_on_c, 2, 53, 50
2, 4168440, Note_off_c, 2, 53, 0
2, 4168440, Note_on_c, 2, 54, 50
2, 4168680, Note_off_c, 2, 54, 0
2, 4168800, Note_on_c, 2, 42, 50
2, 4169040, Note_off_c, 2, 42, 0
2, 4169040, Note_on_c, 2, 45, 50
2, 4169280, Note_off_c, 2, 45, 0
2, 4169280, Note_on_c, 2, 42, 50
2, 4169400, Note_off_c, 2, 42, 0
2, 4169400, Note_on_c, 2, 47, 50
2, 4169640, Note_off_c, 2, 47, 0
2, 4169640, Note_on_c, 2, 42, 50
2, 4169760, Note_off_c, 2, 42, 0
2, 4169760, Note_on_c, 2, 48, 50
2, 4170240, Note_off_c, 2, 48, 0
2, 4170240, Note_on_c, 2, 49, 50
2, 4170480, Note_off_c, 2, 49, 0
2, 4170480, Note_on_c, 2, 47, 50
2, 4170600, Note_off_c, 2, 47, 0
2, 4170720, Note_on_c, 2, 47, 50
2, 4170960, Note_off_c, 2, 47, 0
2, 4170960, Note_on_c, 2, 50, 50
2, 4171200, Note_off_c, 2, 50, 0
2, 4171200, Note_on_c, 2, 47, 50
2, 4171320, Note_off_c, 2, 47, 0
2, 4171320, Note_on_c, 2, 52, 50
2, 4171560, Note_off_c, 2, 52, 0
2, 4171560, Note_on_c, 2, 47, 50
2, 4171680, Note_off_c, 2, 47, 0
2, 4171680, Note_on_c, 2, 53, 50
2, 4172280, Note_off_c, 2, 53, 0
2, 4172280, Note_on_c, 2, 54, 50
2, 4172520, Note_off_c, 2, 54, 0
2, 4172640, Note_on_c, 2, 42, 50
2, 4172880, Note_off_c, 2, 42, 0
2, 4172880, Note_on_c, 2, 45, 50
2, 4173120, Note_off_c, 2, 45, 0
2, 4173120, Note_on_c, 2, 42, 50
2, 4173240, Note_off_c, 2, 42, 0
2, 4173240, Note_on_c, 2, 47, 50
2, 4173480, Note_off_c, 2, 47, 0
2, 4173480, Note_on_c, 2, 42, 50
2, 4173600, Note_off_c, 2, 42, 0
2, 4173600, Note_on_c, 2, 48, 50
2, 4174080, Note_off_c, 2, 48, 0
2, 4174080, Note_on_c, 2, 49, 50
2, 4174320, Note_off_c, 2, 49, 0
2, 4174320, Note_on_c, 2, 47, 50
2, 4174440, Note_off_c, 2, 47, 0
2, 4174560, Note_on_c, 2, 47, 50
2, 4174800, Note_off_c, 2, 47, 0
2, 4174800, Note_on_c, 2, 50, 50
2, 4175040, Note_off_c, 2, 50, 0
2, 4175040, Note_on_c, 2, 47, 50
2, 4175160, Note_off_c, 2, 47, 0
2, 4175160, Note_on_c, 2, 52, 50
2, 4175400, Note_off_c, 2, 52, 0
2, 4175400, Note_on_c, 2, 47, 50
2, 4175520, Note_off_c, 2, 47, 0
2, 4175520, Note_on_c, 2, 53, 50
2, 4176120, Note_off_c, 2, 53, 0
2, 4176120, Note_on_c, 2, 54, 50
2, 4176360, Note_off_c, 2, 54, 0
2, 4176480, Note_on_c, 2, 42, 50
2, 4176720, Note_off_c, 2, 42, 0
2, 4176720, Note_on_c, 2, 45, 50
2, 4176960, Note_off_c, 2, 45, 0
2, 4176960, Note_on_c, 2, 42, 50
2, 4177080, Note_off_c, 2, 42, 0
2, 4177080, Note_on_c, 2, 47, 50
2, 4177320, Note_off_c, 2, 47, 0
2, 4177320, Note_on_c, 2, 42, 50
2, 4177440, Note_off_c, 2, 42, 0
2, 4177440, Note_on_c, 2, 48, 50
2, 4177920, Note_off_c, 2, 48, 0
2, 4177920, Note_on_c, 2, 49, 50
2, 4178160, Note_off_c, 2, 49, 0
2, 4178160, Note_on_c, 2, 47, 50
2, 4178280, Note_off_c, 2, 47, 0
2, 4178400, Note_on_c, 2, 47, 50
2, 4178640, Note_off_c, 2, 47, 0
2, 4178640, Note_on_c, 2, 50, 50
2, 4178880, Note_off_c, 2, 50, 0
2, 4178880, Note_on_c, 2, 47, 50
2, 4179000, Note_off_c, 2, 47, 0
2, 4179000, Note_on_c, 2, 52, 50
2, 4179240, Note_off_c, 2, 52, 0
2, 4179240, Note_on_c, 2, 47, 50
2, 4179360, Note_off_c, 2, 47, 0
2, 4179360, Note_on_c, 2, 53, 50
2, 4179960, Note_off_c, 2, 53, 0
2, 4179960, Note_on_c, 2, 54, 50
2, 4180200, Note_off_c, 2, 54, 0
2, 4180320, Note_on_c, 2, 42, 50
2, 4180560, Note_off_c, 2, 42, 0
2, 4180560, Note_on_c, 2, 45, 50
2, 4180800, Note_off_c, 2, 45, 0
2, 4180800, Note_on_c, 2, 42, 50
2, 4180920, Note_off_c, 2, 42, 0
2, 4180920, Note_on_c, 2, 47, 50
2, 4181160, Note_off_c, 2, 47, 0
2, 4181160, Note_on_c, 2, 42, 50
2, 4181280, Note_off_c, 2, 42, 0
2, 4181280, Note_on_c, 2, 48, 50
2, 4181760, Note_off_c, 2, 48, 0
2, 4181760, Note_on_c, 2, 49, 50
2, 4182000, Note_off_c, 2, 49, 0
2, 4187760, Note_on_c, 2, 61, 50
2, 4188240, Note_off_c, 2, 61, 0
2, 4188240, Note_on_c, 2, 59, 50
2, 4188600, Note_off_c, 2, 59, 0
2, 4188720, Note_on_c, 2, 56, 50
2, 4188960, Note_off_c, 2, 56, 0
2, 4188960, Note_on_c, 2, 54, 50
2, 4189200, Note_off_c, 2, 54, 0
2, 4189200, Note_on_c, 2, 52, 50
2, 4189680, Note_off_c, 2, 52, 0
2, 4189680, Note_on_c, 2, 49, 50
2, 4191120, Note_off_c, 2, 49, 0
2, 4191120, Note_on_c, 2, 52, 50
2, 4191360, Note_off_c, 2, 52, 0
2, 4191360, Note_on_c, 2, 54, 50
2, 4193280, Note_off_c, 2, 54, 0
2, 4193280, Note_on_c, 2, 54, 50
2, 4193400, Note_off_c, 2, 54, 0
2, 4194000, Note_on_c, 2, 59, 50
2, 4194240, Note_off_c, 2, 59, 0
2, 4194240, Note_on_c, 2, 57, 50
2, 4194480, Note_off_c, 2, 57, 0
2, 4194480, Note_on_c, 2, 56, 50
2, 4194960, Note_off_c, 2, 56, 0
2, 4194960, Note_on_c, 2, 54, 50
2, 4195320, Note_off_c, 2, 54, 0
2, 4195320, Note_on_c, 2, 54, 50
2, 4195560, Note_off_c, 2, 54, 0
2, 4195680, Note_on_c, 2, 56, 50
2, 4196040, Note_off_c, 2, 56, 0
2, 4196160, Note_on_c, 2, 52, 50
2, 4196640, Note_off_c, 2, 52, 0
2, 4196880, Note_on_c, 2, 50, 50
2, 4197360, Note_off_c, 2, 50, 0
2, 4197360, Note_on_c, 2, 49, 50
2, 4198920, Note_off_c, 2, 49, 0
2, 4198920, Note_on_c, 2, 52, 50
2, 4199160, Note_off_c, 2, 52, 0
2, 4199160, Note_on_c, 2, 54, 50
2, 4200840, Note_off_c, 2, 54, 0
2, 4201800, Note_on_c, 2, 59, 50
2, 4202040, Note_off_c, 2, 59, 0
2, 4202040, Note_on_c, 2, 57, 50
2, 4202280, Note_off_c, 2, 57, 0
2, 4202280, Note_on_c, 2, 56, 50
2, 4203000, Note_off_c, 2, 56, 0
2, 4203120, Note_on_c, 2, 54, 50
2, 4203360, Note_off_c, 2, 54, 0
2, 4203360, Note_on_c, 2, 56, 50
2, 4203720, Note_off_c, 2, 56, 0
2, 4203840, Note_on_c, 2, 52, 50
2, 4204320, Note_off_c, 2, 52, 0
2, 4204320, Note_on_c, 2, 54, 50
2, 4204560, Note_off_c, 2, 54, 0
2, 4204560, Note_on_c, 2, 52, 50
2, 4204680, Note_off_c, 2, 52, 0
2, 4204800, Note_on_c, 2, 57, 50
2, 4206480, Note_off_c, 2, 57, 0
2, 4206600, Note_on_c, 2, 59, 50
2, 4206720, Note_off_c, 2, 59, 0
2, 4206720, Note_on_c, 2, 57, 50
2, 4208400, Note_off_c, 2, 57, 0
2, 4208400, Note_on_c, 2, 59, 50
2, 4208520, Note_off_c, 2, 59, 0
2, 4208640, Note_on_c, 2, 57, 50
2, 4210200, Note_off_c, 2, 57, 0
2, 4210320, Note_on_c, 2, 59, 50
2, 4210560, Note_off_c, 2, 59, 0
2, 4210560, Note_on_c, 2, 57, 50
2, 4211760, Note_off_c, 2, 57, 0
2, 4212240, Note_on_c, 2, 61, 50
2, 4212600, Note_off_c, 2, 61, 0
2, 4212720, Note_on_c, 2, 61, 50
2, 4213440, Note_off_c, 2, 61, 0
2, 4213440, Note_on_c, 2, 59, 50
2, 4213680, Note_off_c, 2, 59, 0
2, 4213680, Note_on_c, 2, 57, 50
2, 4215240, Note_off_c, 2, 57, 0
2, 4215600, Note_on_c, 2, 59, 50
2, 4216080, Note_off_c, 2, 59, 0
2, 4216080, Note_on_c, 2, 62, 50
2, 4216440, Note_off_c, 2, 62, 0
2, 4216560, Note_on_c, 2, 61, 50
2, 4217280, Note_off_c, 2, 61, 0
2, 4217280, Note_on_c, 2, 59, 50
2, 4217520, Note_off_c, 2, 59, 0
2, 4217520, Note_on_c, 2, 57, 50
2, 4218240, Note_off_c, 2, 57, 0
2, 4218240, Note_on_c, 2, 54, 50
2, 4218480, Note_off_c, 2, 54, 0
2, 4218480, Note_on_c, 2, 52, 50
2, 4220280, Note_off_c, 2, 52, 0
2, 4220400, Note_on_c, 2, 49, 50
2, 4221960, Note_off_c, 2, 49, 0
2, 4221960, Note_on_c, 2, 52, 50
2, 4222200, Note_off_c, 2, 52, 0
2, 4222200, Note_on_c, 2, 54, 50
2, 4224120, Note_off_c, 2, 54, 0
2, 4224840, Note_on_c, 2, 59, 50
2, 4225080, Note_off_c, 2, 59, 0
2, 4225080, Note_on_c, 2, 57, 50
2, 4225320, Note_off_c, 2, 57, 0
2, 4225320, Note_on_c, 2, 56, 50
2, 4226040, Note_off_c, 2, 56, 0
2, 4226160, Note_on_c, 2, 54, 50
2, 4226400, Note_off_c, 2, 54, 0
2, 4226400, Note_on_c, 2, 56, 50
2, 4226880, Note_off_c, 2, 56, 0
2, 4226880, Note_on_c, 2, 52, 50
2, 4227600, Note_off_c, 2, 52, 0
2, 4227600, Note_on_c, 2, 50, 50
2, 4227840, Note_off_c, 2, 50, 0
2, 4227840, Note_on_c, 2, 49, 50
2, 4229520, Note_off_c, 2, 49, 0
2, 4229520, Note_on_c, 2, 52, 50
2, 4229760, Note_off_c, 2, 52, 0
2, 4229760, Note_on_c, 2, 54, 50
2, 4231680, Note_off_c, 2, 54, 0
2, 4231680, Note_on_c, 2, 54, 50
2, 4232040, Note_off_c, 2, 54, 0
2, 4232400, Note_on_c, 2, 59, 50
2, 4232640, Note_off_c, 2, 59, 0
2, 4232640, Note_on_c, 2, 57, 50
2, 4232880, Note_off_c, 2, 57, 0
2, 4233600, Note_on_c, 2, 54, 50
2, 4233720, Note_off_c, 2, 54, 0
2, 4233720, Note_on_c, 2, 54, 50
2, 4233960, Note_off_c, 2, 54, 0
2, 4234080, Note_on_c, 2, 56, 50
2, 4234560, Note_off_c, 2, 56, 0
2, 4234560, Note_on_c, 2, 52, 50
2, 4235040, Note_off_c, 2, 52, 0
2, 4235040, Note_on_c, 2, 54, 50
2, 4235280, Note_off_c, 2, 54, 0
2, 4235280, Note_on_c, 2, 52, 50
2, 4235400, Note_off_c, 2, 52, 0
2, 4235520, Note_on_c, 2, 57, 50
2, 4237200, Note_off_c, 2, 57, 0
2, 4237200, Note_on_c, 2, 59, 50
2, 4237440, Note_off_c, 2, 59, 0
2, 4237440, Note_on_c, 2, 57, 50
2, 4239120, Note_off_c, 2, 57, 0
2, 4239120, Note_on_c, 2, 59, 50
2, 4239360, Note_off_c, 2, 59, 0
2, 4239360, Note_on_c, 2, 57, 50
2, 4241040, Note_off_c, 2, 57, 0
2, 4241040, Note_on_c, 2, 59, 50
2, 4241280, Note_off_c, 2, 59, 0
2, 4241280, Note_on_c, 2, 57, 50
2, 4242960, Note_off_c, 2, 57, 0
2, 4242960, Note_on_c, 2, 59, 50
2, 4243440, Note_off_c, 2, 59, 0
2, 4243440, Note_on_c, 2, 61, 50
2, 4244160, Note_off_c, 2, 61, 0
2, 4244160, Note_on_c, 2, 59, 50
2, 4244400, Note_off_c, 2, 59, 0
2, 4244400, Note_on_c, 2, 57, 50
2, 4245600, Note_off_c, 2, 57, 0
2, 4246320, Note_on_c, 2, 61, 50
2, 4246800, Note_off_c, 2, 61, 0
2, 4246800, Note_on_c, 2, 62, 50
2, 4247160, Note_off_c, 2, 62, 0
2, 4247280, Note_on_c, 2, 61, 50
2, 4248120, Note_off_c, 2, 61, 0
2, 4248240, Note_on_c, 2, 57, 50
2, 4248960, Note_off_c, 2, 57, 0
2, 4248960, Note_on_c, 2, 54, 50
2, 4249200, Note_off_c, 2, 54, 0
2, 4249200, Note_on_c, 2, 52, 50
2, 4250760, Note_off_c, 2, 52, 0
2, 4251120, Note_on_c, 2, 49, 50
2, 4252920, Note_off_c, 2, 49, 0
2, 4253520, Note_on_c, 2, 52, 50
2, 4253640, Note_off_c, 2, 52, 0
2, 4253760, Note_on_c, 2, 52, 50
2, 4253880, Note_off_c, 2, 52, 0
2, 4254000, Note_on_c, 2, 52, 50
2, 4254600, Note_off_c, 2, 52, 0
2, 4254720, Note_on_c, 2, 50, 50
2, 4254840, Note_off_c, 2, 50, 0
2, 4254960, Note_on_c, 2, 50, 50
2, 4255200, Note_off_c, 2, 50, 0
2, 4255200, Note_on_c, 2, 49, 50
2, 4255440, Note_off_c, 2, 49, 0
2, 4255680, Note_on_c, 2, 49, 50
2, 4256880, Note_off_c, 2, 49, 0
2, 4257120, Note_on_c, 2, 54, 50
2, 4257480, Note_off_c, 2, 54, 0
2, 4257600, Note_on_c, 2, 54, 50
2, 4257720, Note_off_c, 2, 54, 0
2, 4257840, Note_on_c, 2, 54, 50
2, 4258440, Note_off_c, 2, 54, 0
2, 4258560, Note_on_c, 2, 52, 50
2, 4258680, Note_off_c, 2, 52, 0
2, 4258800, Note_on_c, 2, 52, 50
2, 4259160, Note_off_c, 2, 52, 0
2, 4259280, Note_on_c, 2, 50, 50
2, 4259400, Note_off_c, 2, 50, 0
2, 4259520, Note_on_c, 2, 50, 50
2, 4260240, Note_off_c, 2, 50, 0
2, 4260240, Note_on_c, 2, 49, 50
2, 4260600, Note_off_c, 2, 49, 0
2, 4260720, Note_on_c, 2, 47, 50
2, 4261320, Note_off_c, 2, 47, 0
2, 4261680, Note_on_c, 2, 57, 50
2, 4262040, Note_off_c, 2, 57, 0
2, 4262400, Note_on_c, 2, 61, 50
2, 4262520, Note_off_c, 2, 61, 0
2, 4262640, Note_on_c, 2, 61, 50
2, 4263000, Note_off_c, 2, 61, 0
2, 4263120, Note_on_c, 2, 59, 50
2, 4263480, Note_off_c, 2, 59, 0
2, 4263600, Note_on_c, 2, 56, 50
2, 4263840, Note_off_c, 2, 56, 0
2, 4263840, Note_on_c, 2, 54, 50
2, 4264080, Note_off_c, 2, 54, 0
2, 4264080, Note_on_c, 2, 52, 50
2, 4264440, Note_off_c, 2, 52, 0
2, 4264560, Note_on_c, 2, 49, 50
2, 4266000, Note_off_c, 2, 49, 0
2, 4266000, Note_on_c, 2, 52, 50
2, 4266240, Note_off_c, 2, 52, 0
2, 4266240, Note_on_c, 2, 54, 50
2, 4268160, Note_off_c, 2, 54, 0
2, 4268160, Note_on_c, 2, 54, 50
2, 4268520, Note_off_c, 2, 54, 0
2, 4268880, Note_on_c, 2, 59, 50
2, 4269120, Note_off_c, 2, 59, 0
2, 4269120, Note_on_c, 2, 57, 50
2, 4269360, Note_off_c, 2, 57, 0
2, 4269360, Note_on_c, 2, 56, 50
2, 4270080, Note_off_c, 2, 56, 0
2, 4270080, Note_on_c, 2, 54, 50
2, 4270200, Note_off_c, 2, 54, 0
2, 4270320, Note_on_c, 2, 54, 50
2, 4270560, Note_off_c, 2, 54, 0
2, 4270560, Note_on_c, 2, 56, 50
2, 4271040, Note_off_c, 2, 56, 0
2, 4271040, Note_on_c, 2, 52, 50
2, 4271880, Note_off_c, 2, 52, 0
2, 4272240, Note_on_c, 2, 49, 50
2, 4273560, Note_off_c, 2, 49, 0
2, 4273680, Note_on_c, 2, 52, 50
2, 4273920, Note_off_c, 2, 52, 0
2, 4273920, Note_on_c, 2, 54, 50
2, 4275840, Note_off_c, 2, 54, 0
2, 4275840, Note_on_c, 2, 54, 50
2, 4276320, Note_off_c, 2, 54, 0
2, 4276560, Note_on_c, 2, 59, 50
2, 4276680, Note_off_c, 2, 59, 0
2, 4276800, Note_on_c, 2, 57, 50
2, 4277040, Note_off_c, 2, 57, 0
2, 4277040, Note_on_c, 2, 56, 50
2, 4277760, Note_off_c, 2, 56, 0
2, 4277760, Note_on_c, 2, 54, 50
2, 4277880, Note_off_c, 2, 54, 0
2, 4278000, Note_on_c, 2, 54, 50
2, 4278240, Note_off_c, 2, 54, 0
2, 4278240, Note_on_c, 2, 56, 50
2, 4278720, Note_off_c, 2, 56, 0
2, 4278720, Note_on_c, 2, 52, 50
2, 4279080, Note_off_c, 2, 52, 0
2, 4279200, Note_on_c, 2, 54, 50
2, 4279440, Note_off_c, 2, 54, 0
2, 4279440, Note_on_c, 2, 52, 50
2, 4279560, Note_off_c, 2, 52, 0
2, 4279680, Note_on_c, 2, 57, 50
2, 4281360, Note_off_c, 2, 57, 0
2, 4281360, Note_on_c, 2, 59, 50
2, 4281600, Note_off_c, 2, 59, 0
2, 4281600, Note_on_c, 2, 57, 50
2, 4283280, Note_off_c, 2, 57, 0
2, 4283280, Note_on_c, 2, 59, 50
2, 4283520, Note_off_c, 2, 59, 0
2, 4283520, Note_on_c, 2, 57, 50
2, 4285080, Note_off_c, 2, 57, 0
2, 4285200, Note_on_c, 2, 59, 50
2, 4285440, Note_off_c, 2, 59, 0
2, 4285440, Note_on_c, 2, 57, 50
2, 4287000, Note_off_c, 2, 57, 0
2, 4287120, Note_on_c, 2, 59, 50
2, 4287360, Note_off_c, 2, 59, 0
2, 4287600, Note_on_c, 2, 61, 50
2, 4288320, Note_off_c, 2, 61, 0
2, 4288320, Note_on_c, 2, 59, 50
2, 4288560, Note_off_c, 2, 59, 0
2, 4288560, Note_on_c, 2, 57, 50
2, 4289640, Note_off_c, 2, 57, 0
2, 4290480, Note_on_c, 2, 61, 50
2, 4290960, Note_off_c, 2, 61, 0
2, 4290960, Note_on_c, 2, 62, 50
2, 4291440, Note_off_c, 2, 62, 0
2, 4291440, Note_on_c, 2, 61, 50
2, 4292040, Note_off_c, 2, 61, 0
2, 4292160, Note_on_c, 2, 59, 50
2, 4292400, Note_off_c, 2, 59, 0
2, 4292400, Note_on_c, 2, 57, 50
2, 4293120, Note_off_c, 2, 57, 0
2, 4293120, Note_on_c, 2, 54, 50
2, 4293360, Note_off_c, 2, 54, 0
2, 4293360, Note_on_c, 2, 52, 50
2, 4294800, Note_off_c, 2, 52, 0
2, 4294800, Note_on_c, 2, 50, 50
2, 4295160, Note_off_c, 2, 50, 0
2, 4295280, Note_on_c, 2, 49, 50
2, 4296960, Note_off_c, 2, 49, 0
2, 4297200, Note_on_c, 2, 52, 50
2, 4298520, Note_off_c, 2, 52, 0
2, 4298640, Note_on_c, 2, 50, 50
2, 4299000, Note_off_c, 2, 50, 0
2, 4299120, Note_on_c, 2, 49, 50
2, 4301040, Note_off_c, 2, 49, 0
2, 4301040, Note_on_c, 2, 52, 50
2, 4302480, Note_off_c, 2, 52, 0
2, 4302480, Note_on_c, 2, 50, 50
2, 4302840, Note_off_c, 2, 50, 0
2, 4302960, Note_on_c, 2, 49, 50
2, 4304760, Note_off_c, 2, 49, 0
2, 4310640, Note_on_c, 2, 57, 50
2, 4311120, Note_off_c, 2, 57, 0
2, 4311120, Note_on_c, 2, 62, 50
2, 4311960, Note_off_c, 2, 62, 0
2, 4311960, Note_on_c, 2, 62, 50
2, 4312560, Note_off_c, 2, 62, 0
2, 4312560, Note_on_c, 2, 56, 50
2, 4313040, Note_off_c, 2, 56, 0
2, 4313040, Note_on_c, 2, 62, 50
2, 4313880, Note_off_c, 2, 62, 0
2, 4313880, Note_on_c, 2, 62, 50
2, 4314480, Note_off_c, 2, 62, 0
2, 4314480, Note_on_c, 2, 55, 50
2, 4314960, Note_off_c, 2, 55, 0
2, 4314960, Note_on_c, 2, 62, 50
2, 4315800, Note_off_c, 2, 62, 0
2, 4315800, Note_on_c, 2, 62, 50
2, 4316400, Note_off_c, 2, 62, 0
2, 4316880, Note_on_c, 2, 62, 50
2, 4318320, Note_off_c, 2, 62, 0
2, 4318320, Note_on_c, 2, 62, 50
2, 4320240, Note_off_c, 2, 62, 0
2, 4320240, Note_on_c, 2, 62, 50
2, 4322160, Note_off_c, 2, 62, 0
2, 4322160, Note_on_c, 2, 62, 50
2, 4323480, Note_off_c, 2, 62, 0
2, 4323480, Note_on_c, 2, 62, 50
2, 4323600, Note_off_c, 2, 62, 0
2, 4323600, Note_on_c, 2, 62, 50
2, 4324080, Note_off_c, 2, 62, 0
2, 4324080, Note_on_c, 2, 62, 50
2, 4326000, Note_off_c, 2, 62, 0
2, 4326000, Note_on_c, 2, 62, 50
2, 4327320, Note_off_c, 2, 62, 0
2, 4327320, Note_on_c, 2, 62, 50
2, 4327440, Note_off_c, 2, 62, 0
2, 4327440, Note_on_c, 2, 62, 50
2, 4327920, Note_off_c, 2, 62, 0
2, 4327920, Note_on_c, 2, 62, 50
2, 4329840, Note_off_c, 2, 62, 0
2, 4329840, Note_on_c, 2, 62, 50
2, 4331160, Note_off_c, 2, 62, 0
2, 4331160, Note_on_c, 2, 62, 50
2, 4331280, Note_off_c, 2, 62, 0
2, 4331280, Note_on_c, 2, 62, 50
2, 4331760, Note_off_c, 2, 62, 0
2, 4331760, Note_on_c, 2, 62, 50
2, 4333680, Note_off_c, 2, 62, 0
2, 4333680, Note_on_c, 2, 62, 50
2, 4335000, Note_off_c, 2, 62, 0
2, 4335000, Note_on_c, 2, 62, 50
2, 4335120, Note_off_c, 2, 62, 0
2, 4335120, Note_on_c, 2, 62, 50
2, 4335600, Note_off_c, 2, 62, 0
2, 4336080, Note_on_c, 2, 64, 50
2, 4336440, Note_off_c, 2, 64, 0
2, 4336920, Note_on_c, 2, 64, 50
2, 4337040, Note_off_c, 2, 64, 0
2, 4337520, Note_on_c, 2, 64, 50
2, 4337880, Note_off_c, 2, 64, 0
2, 4338360, Note_on_c, 2, 64, 50
2, 4338960, Note_off_c, 2, 64, 0
2, 4339440, Note_on_c, 2, 38, 50
2, 4339920, Note_off_c, 2, 38, 0
2, 4339920, Note_on_c, 2, 45, 50
2, 4340520, Note_off_c, 2, 45, 0
2, 4340520, Note_on_c, 2, 45, 50
2, 4340880, Note_off_c, 2, 45, 0
2, 4340880, Note_on_c, 2, 47, 50
2, 4341240, Note_off_c, 2, 47, 0
2, 4341240, Note_on_c, 2, 47, 50
2, 4341360, Note_off_c, 2, 47, 0
2, 4341360, Note_on_c, 2, 50, 50
2, 4341720, Note_off_c, 2, 50, 0
2, 4341720, Note_on_c, 2, 50, 50
2, 4342320, Note_off_c, 2, 50, 0
2, 4342320, Note_on_c, 2, 45, 50
2, 4342800, Note_off_c, 2, 45, 0
2, 4342800, Note_on_c, 2, 50, 50
2, 4343280, Note_off_c, 2, 50, 0
2, 4343280, Note_on_c, 2, 38, 50
2, 4343760, Note_off_c, 2, 38, 0
2, 4343760, Note_on_c, 2, 45, 50
2, 4344240, Note_off_c, 2, 45, 0
2, 4344240, Note_on_c, 2, 45, 50
2, 4344720, Note_off_c, 2, 45, 0
2, 4344720, Note_on_c, 2, 49, 50
2, 4345200, Note_off_c, 2, 49, 0
2, 4345200, Note_on_c, 2, 48, 50
2, 4345680, Note_off_c, 2, 48, 0
2, 4345680, Note_on_c, 2, 50, 50
2, 4346160, Note_off_c, 2, 50, 0
2, 4346160, Note_on_c, 2, 50, 50
2, 4346640, Note_off_c, 2, 50, 0
2, 4346640, Note_on_c, 2, 50, 50
2, 4347120, Note_off_c, 2, 50, 0
2, 4347120, Note_on_c, 2, 38, 50
2, 4347600, Note_off_c, 2, 38, 0
2, 4347600, Note_on_c, 2, 45, 50
2, 4348080, Note_off_c, 2, 45, 0
2, 4348080, Note_on_c, 2, 45, 50
2, 4348560, Note_off_c, 2, 45, 0
2, 4348560, Note_on_c, 2, 49, 50
2, 4349040, Note_off_c, 2, 49, 0
2, 4349040, Note_on_c, 2, 48, 50
2, 4349520, Note_off_c, 2, 48, 0
2, 4349520, Note_on_c, 2, 50, 50
2, 4350000, Note_off_c, 2, 50, 0
2, 4350000, Note_on_c, 2, 50, 50
2, 4350480, Note_off_c, 2, 50, 0
2, 4350480, Note_on_c, 2, 50, 50
2, 4350960, Note_off_c, 2, 50, 0
2, 4350960, Note_on_c, 2, 43, 50
2, 4351440, Note_off_c, 2, 43, 0
2, 4351440, Note_on_c, 2, 55, 50
2, 4351920, Note_off_c, 2, 55, 0
2, 4351920, Note_on_c, 2, 55, 50
2, 4352280, Note_off_c, 2, 55, 0
2, 4352280, Note_on_c, 2, 55, 50
2, 4352400, Note_off_c, 2, 55, 0
2, 4352400, Note_on_c, 2, 52, 50
2, 4352760, Note_off_c, 2, 52, 0
2, 4352760, Note_on_c, 2, 52, 50
2, 4352880, Note_off_c, 2, 52, 0
2, 4352880, Note_on_c, 2, 53, 50
2, 4353240, Note_off_c, 2, 53, 0
2, 4353240, Note_on_c, 2, 53, 50
2, 4353360, Note_off_c, 2, 53, 0
2, 4353360, Note_on_c, 2, 52, 50
2, 4353840, Note_off_c, 2, 52, 0
2, 4353840, Note_on_c, 2, 55, 50
2, 4354200, Note_off_c, 2, 55, 0
2, 4354200, Note_on_c, 2, 55, 50
2, 4354320, Note_off_c, 2, 55, 0
2, 4354320, Note_on_c, 2, 47, 50
2, 4354800, Note_off_c, 2, 47, 0
2, 4354800, Note_on_c, 2, 38, 50
2, 4355280, Note_off_c, 2, 38, 0
2, 4355280, Note_on_c, 2, 45, 50
2, 4355760, Note_off_c, 2, 45, 0
2, 4355760, Note_on_c, 2, 45, 50
2, 4356240, Note_off_c, 2, 45, 0
2, 4356240, Note_on_c, 2, 50, 50
2, 4356720, Note_off_c, 2, 50, 0
2, 4356720, Note_on_c, 2, 48, 50
2, 4357080, Note_off_c, 2, 48, 0
2, 4357080, Note_on_c, 2, 48, 50
2, 4357200, Note_off_c, 2, 48, 0
2, 4357200, Note_on_c, 2, 47, 50
2, 4357680, Note_off_c, 2, 47, 0
2, 4357680, Note_on_c, 2, 50, 50
2, 4358040, Note_off_c, 2, 50, 0
2, 4358040, Note_on_c, 2, 50, 50
2, 4358160, Note_off_c, 2, 50, 0
2, 4358160, Note_on_c, 2, 42, 50
2, 4358640, Note_off_c, 2, 42, 0
2, 4358640, Note_on_c, 2, 45, 50
2, 4359120, Note_off_c, 2, 45, 0
2, 4359120, Note_on_c, 2, 45, 50
2, 4359480, Note_off_c, 2, 45, 0
2, 4359480, Note_on_c, 2, 45, 50
2, 4360080, Note_off_c, 2, 45, 0
2, 4360080, Note_on_c, 2, 40, 50
2, 4360560, Note_off_c, 2, 40, 0
2, 4360560, Note_on_c, 2, 45, 50
2, 4361040, Note_off_c, 2, 45, 0
2, 4361040, Note_on_c, 2, 43, 50
2, 4361520, Note_off_c, 2, 43, 0
2, 4361520, Note_on_c, 2, 42, 50
2, 4361880, Note_off_c, 2, 42, 0
2, 4361880, Note_on_c, 2, 42, 50
2, 4362000, Note_off_c, 2, 42, 0
2, 4362000, Note_on_c, 2, 40, 50
2, 4362480, Note_off_c, 2, 40, 0
2, 4362480, Note_on_c, 2, 38, 50
2, 4362960, Note_off_c, 2, 38, 0
2, 4362960, Note_on_c, 2, 45, 50
2, 4363440, Note_off_c, 2, 45, 0
2, 4363440, Note_on_c, 2, 50, 50
2, 4363800, Note_off_c, 2, 50, 0
2, 4363920, Note_on_c, 2, 47, 50
2, 4364280, Note_off_c, 2, 47, 0
2, 4364280, Note_on_c, 2, 45, 50
2, 4364400, Note_off_c, 2, 45, 0
2, 4364400, Note_on_c, 2, 50, 50
2, 4364880, Note_off_c, 2, 50, 0
2, 4364880, Note_on_c, 2, 47, 50
2, 4365360, Note_off_c, 2, 47, 0
2, 4365720, Note_on_c, 2, 50, 50
2, 4366200, Note_off_c, 2, 50, 0
2, 4366200, Note_on_c, 2, 50, 50
2, 4366320, Note_off_c, 2, 50, 0
2, 4366320, Note_on_c, 2, 62, 50
2, 4368240, Note_off_c, 2, 62, 0
2, 4368240, Note_on_c, 2, 62, 50
2, 4369560, Note_off_c, 2, 62, 0
2, 4369560, Note_on_c, 2, 62, 50
2, 4369680, Note_off_c, 2, 62, 0
2, 4369680, Note_on_c, 2, 62, 50
2, 4370160, Note_off_c, 2, 62, 0
2, 4370160, Note_on_c, 2, 62, 50
2, 4372080, Note_off_c, 2, 62, 0
2, 4372080, Note_on_c, 2, 62, 50
2, 4373400, Note_off_c, 2, 62, 0
2, 4373400, Note_on_c, 2, 62, 50
2, 4373520, Note_off_c, 2, 62, 0
2, 4373520, Note_on_c, 2, 62, 50
2, 4374000, Note_off_c, 2, 62, 0
2, 4374000, Note_on_c, 2, 62, 50
2, 4375920, Note_off_c, 2, 62, 0
2, 4375920, Note_on_c, 2, 62, 50
2, 4377240, Note_off_c, 2, 62, 0
2, 4377240, Note_on_c, 2, 62, 50
2, 4377360, Note_off_c, 2, 62, 0
2, 4377360, Note_on_c, 2, 62, 50
2, 4377840, Note_off_c, 2, 62, 0
2, 4377840, Note_on_c, 2, 62, 50
2, 4379760, Note_off_c, 2, 62, 0
2, 4379760, Note_on_c, 2, 62, 50
2, 4381080, Note_off_c, 2, 62, 0
2, 4381080, Note_on_c, 2, 62, 50
2, 4381200, Note_off_c, 2, 62, 0
2, 4381200, Note_on_c, 2, 62, 50
2, 4381680, Note_off_c, 2, 62, 0
2, 4382160, Note_on_c, 2, 64, 50
2, 4382520, Note_off_c, 2, 64, 0
2, 4383000, Note_on_c, 2, 64, 50
2, 4383120, Note_off_c, 2, 64, 0
2, 4383600, Note_on_c, 2, 64, 50
2, 4383960, Note_off_c, 2, 64, 0
2, 4384440, Note_on_c, 2, 64, 50
2, 4385040, Note_off_c, 2, 64, 0
2, 4385520, Note_on_c, 2, 38, 50
2, 4386000, Note_off_c, 2, 38, 0
2, 4386000, Note_on_c, 2, 45, 50
2, 4386600, Note_off_c, 2, 45, 0
2, 4386600, Note_on_c, 2, 45, 50
2, 4386960, Note_off_c, 2, 45, 0
2, 4386960, Note_on_c, 2, 47, 50
2, 4387320, Note_off_c, 2, 47, 0
2, 4387320, Note_on_c, 2, 47, 50
2, 4387440, Note_off_c, 2, 47, 0
2, 4387440, Note_on_c, 2, 50, 50
2, 4387800, Note_off_c, 2, 50, 0
2, 4387800, Note_on_c, 2, 50, 50
2, 4388400, Note_off_c, 2, 50, 0
2, 4388400, Note_on_c, 2, 45, 50
2, 4388880, Note_off_c, 2, 45, 0
2, 4388880, Note_on_c, 2, 50, 50
2, 4389360, Note_off_c, 2, 50, 0
2, 4389360, Note_on_c, 2, 38, 50
2, 4389840, Note_off_c, 2, 38, 0
2, 4389840, Note_on_c, 2, 45, 50
2, 4390320, Note_off_c, 2, 45, 0
2, 4390320, Note_on_c, 2, 45, 50
2, 4390800, Note_off_c, 2, 45, 0
2, 4390800, Note_on_c, 2, 49, 50
2, 4391280, Note_off_c, 2, 49, 0
2, 4391280, Note_on_c, 2, 48, 50
2, 4391760, Note_off_c, 2, 48, 0
2, 4391760, Note_on_c, 2, 50, 50
2, 4392240, Note_off_c, 2, 50, 0
2, 4392240, Note_on_c, 2, 50, 50
2, 4392720, Note_off_c, 2, 50, 0
2, 4392720, Note_on_c, 2, 50, 50
2, 4393200, Note_off_c, 2, 50, 0
2, 4393200, Note_on_c, 2, 38, 50
2, 4393680, Note_off_c, 2, 38, 0
2, 4393680, Note_on_c, 2, 45, 50
2, 4394160, Note_off_c, 2, 45, 0
2, 4394160, Note_on_c, 2, 45, 50
2, 4394640, Note_off_c, 2, 45, 0
2, 4394640, Note_on_c, 2, 49, 50
2, 4395120, Note_off_c, 2, 49, 0
2, 4395120, Note_on_c, 2, 48, 50
2, 4395600, Note_off_c, 2, 48, 0
2, 4395600, Note_on_c, 2, 50, 50
2, 4396080, Note_off_c, 2, 50, 0
2, 4396080, Note_on_c, 2, 50, 50
2, 4396560, Note_off_c, 2, 50, 0
2, 4396560, Note_on_c, 2, 50, 50
2, 4397040, Note_off_c, 2, 50, 0
2, 4397040, Note_on_c, 2, 43, 50
2, 4397520, Note_off_c, 2, 43, 0
2, 4397520, Note_on_c, 2, 55, 50
2, 4398000, Note_off_c, 2, 55, 0
2, 4398000, Note_on_c, 2, 55, 50
2, 4398360, Note_off_c, 2, 55, 0
2, 4398360, Note_on_c, 2, 55, 50
2, 4398480, Note_off_c, 2, 55, 0
2, 4398480, Note_on_c, 2, 52, 50
2, 4398840, Note_off_c, 2, 52, 0
2, 4398840, Note_on_c, 2, 52, 50
2, 4398960, Note_off_c, 2, 52, 0
2, 4398960, Note_on_c, 2, 53, 50
2, 4399320, Note_off_c, 2, 53, 0
2, 4399320, Note_on_c, 2, 53, 50
2, 4399440, Note_off_c, 2, 53, 0
2, 4399440, Note_on_c, 2, 52, 50
2, 4399920, Note_off_c, 2, 52, 0
2, 4399920, Note_on_c, 2, 55, 50
2, 4400280, Note_off_c, 2, 55, 0
2, 4400280, Note_on_c, 2, 55, 50
2, 4400400, Note_off_c, 2, 55, 0
2, 4400400, Note_on_c, 2, 47, 50
2, 4400880, Note_off_c, 2, 47, 0
2, 4400880, Note_on_c, 2, 38, 50
2, 4401360, Note_off_c, 2, 38, 0
2, 4401360, Note_on_c, 2, 45, 50
2, 4401840, Note_off_c, 2, 45, 0
2, 4401840, Note_on_c, 2, 45, 50
2, 4402320, Note_off_c, 2, 45, 0
2, 4402320, Note_on_c, 2, 50, 50
2, 4402800, Note_off_c, 2, 50, 0
2, 4402800, Note_on_c, 2, 48, 50
2, 4403160, Note_off_c, 2, 48, 0
2, 4403160, Note_on_c, 2, 48, 50
2, 4403280, Note_off_c, 2, 48, 0
2, 4403280, Note_on_c, 2, 47, 50
2, 4403760, Note_off_c, 2, 47, 0
2, 4403760, Note_on_c, 2, 50, 50
2, 4404120, Note_off_c, 2, 50, 0
2, 4404120, Note_on_c, 2, 50, 50
2, 4404240, Note_off_c, 2, 50, 0
2, 4404240, Note_on_c, 2, 42, 50
2, 4404720, Note_off_c, 2, 42, 0
2, 4404720, Note_on_c, 2, 45, 50
2, 4405200, Note_off_c, 2, 45, 0
2, 4405200, Note_on_c, 2, 45, 50
2, 4405560, Note_off_c, 2, 45, 0
2, 4405560, Note_on_c, 2, 45, 50
2, 4406160, Note_off_c, 2, 45, 0
2, 4406160, Note_on_c, 2, 40, 50
2, 4406640, Note_off_c, 2, 40, 0
2, 4406640, Note_on_c, 2, 45, 50
2, 4407120, Note_off_c, 2, 45, 0
2, 4407120, Note_on_c, 2, 43, 50
2, 4407600, Note_off_c, 2, 43, 0
2, 4407600, Note_on_c, 2, 42, 50
2, 4407960, Note_off_c, 2, 42, 0
2, 4407960, Note_on_c, 2, 42, 50
2, 4408080, Note_off_c, 2, 42, 0
2, 4408080, Note_on_c, 2, 40, 50
2, 4408560, Note_off_c, 2, 40, 0
2, 4408560, Note_on_c, 2, 38, 50
2, 4409040, Note_off_c, 2, 38, 0
2, 4409040, Note_on_c, 2, 45, 50
2, 4409520, Note_off_c, 2, 45, 0
2, 4409520, Note_on_c, 2, 50, 50
2, 4409880, Note_off_c, 2, 50, 0
2, 4410000, Note_on_c, 2, 47, 50
2, 4410360, Note_off_c, 2, 47, 0
2, 4410360, Note_on_c, 2, 45, 50
2, 4410480, Note_off_c, 2, 45, 0
2, 4410480, Note_on_c, 2, 50, 50
2, 4410960, Note_off_c, 2, 50, 0
2, 4410960, Note_on_c, 2, 47, 50
2, 4411440, Note_off_c, 2, 47, 0
2, 4411800, Note_on_c, 2, 50, 50
2, 4412280, Note_off_c, 2, 50, 0
2, 4412280, Note_on_c, 2, 50, 50
2, 4412400, Note_off_c, 2, 50, 0
2, 4412760, Note_on_c, 2, 74, 50
2, 4412880, Note_off_c, 2, 74, 0
2, 4413360, Note_on_c, 2, 74, 50
2, 4413720, Note_off_c, 2, 74, 0
2, 4414200, Note_on_c, 2, 74, 50
2, 4414320, Note_off_c, 2, 74, 0
2, 4414680, Note_on_c, 2, 74, 50
2, 4414800, Note_off_c, 2, 74, 0
2, 4415160, Note_on_c, 2, 74, 50
2, 4415640, Note_off_c, 2, 74, 0
2, 4415640, Note_on_c, 2, 74, 50
2, 4415760, Note_off_c, 2, 74, 0
2, 4416120, Note_on_c, 2, 74, 50
2, 4416240, Note_off_c, 2, 74, 0
2, 4416240, Note_on_c, 2, 70, 50
2, 4416600, Note_off_c, 2, 70, 0
2, 4416720, Note_on_c, 2, 70, 50
2, 4417080, Note_off_c, 2, 70, 0
2, 4417200, Note_on_c, 2, 70, 50
2, 4417560, Note_off_c, 2, 70, 0
2, 4418040, Note_on_c, 2, 74, 50
2, 4418160, Note_off_c, 2, 74, 0
2, 4418520, Note_on_c, 2, 74, 50
2, 4418640, Note_off_c, 2, 74, 0
2, 4419000, Note_on_c, 2, 74, 50
2, 4419480, Note_off_c, 2, 74, 0
2, 4419480, Note_on_c, 2, 74, 50
2, 4419600, Note_off_c, 2, 74, 0
2, 4420440, Note_on_c, 2, 69, 50
2, 4420560, Note_off_c, 2, 69, 0
2, 4421040, Note_on_c, 2, 69, 50
2, 4421400, Note_off_c, 2, 69, 0
2, 4421880, Note_on_c, 2, 74, 50
2, 4422000, Note_off_c, 2, 74, 0
2, 4422360, Note_on_c, 2, 74, 50
2, 4422480, Note_off_c, 2, 74, 0
2, 4422840, Note_on_c, 2, 74, 50
2, 4423320, Note_off_c, 2, 74, 0
2, 4423320, Note_on_c, 2, 74, 50
2, 4423440, Note_off_c, 2, 74, 0
2, 4423800, Note_on_c, 2, 74, 50
2, 4423920, Note_off_c, 2, 74, 0
2, 4423920, Note_on_c, 2, 70, 50
2, 4424280, Note_off_c, 2, 70, 0
2, 4424400, Note_on_c, 2, 70, 50
2, 4425360, Note_off_c, 2, 70, 0
2, 4425720, Note_on_c, 2, 44, 50
2, 4425840, Note_off_c, 2, 44, 0
2, 4425840, Note_on_c, 2, 45, 50
2, 4426200, Note_off_c, 2, 45, 0
2, 4426200, Note_on_c, 2, 45, 50
2, 4426320, Note_off_c, 2, 45, 0
2, 4426320, Note_on_c, 2, 43, 50
2, 4426800, Note_off_c, 2, 43, 0
2, 4426800, Note_on_c, 2, 42, 50
2, 4427160, Note_off_c, 2, 42, 0
2, 4427160, Note_on_c, 2, 42, 50
2, 4427280, Note_off_c, 2, 42, 0
2, 4427280, Note_on_c, 2, 40, 50
2, 4427760, Note_off_c, 2, 40, 0
2, 4427760, Note_on_c, 2, 38, 50
2, 4428240, Note_off_c, 2, 38, 0
2, 4428240, Note_on_c, 2, 42, 50
2, 4428720, Note_off_c, 2, 42, 0
2, 4428720, Note_on_c, 2, 42, 50
2, 4429200, Note_off_c, 2, 42, 0
2, 4429560, Note_on_c, 2, 38, 50
2, 4430160, Note_off_c, 2, 38, 0
2, 4430160, Note_on_c, 2, 42, 50
2, 4430520, Note_off_c, 2, 42, 0
2, 4430640, Note_on_c, 2, 42, 50
2, 4431120, Note_off_c, 2, 42, 0
2, 4431480, Note_on_c, 2, 38, 50
2, 4432080, Note_off_c, 2, 38, 0
2, 4432080, Note_on_c, 2, 42, 50
2, 4432440, Note_off_c, 2, 42, 0
2, 4432560, Note_on_c, 2, 42, 50
2, 4433040, Note_off_c, 2, 42, 0
2, 4433400, Note_on_c, 2, 38, 50
2, 4434000, Note_off_c, 2, 38, 0
2, 4434000, Note_on_c, 2, 42, 50
2, 4434360, Note_off_c, 2, 42, 0
2, 4434480, Note_on_c, 2, 42, 50
2, 4434960, Note_off_c, 2, 42, 0
2, 4435320, Note_on_c, 2, 43, 50
2, 4435920, Note_off_c, 2, 43, 0
2, 4435920, Note_on_c, 2, 47, 50
2, 4436280, Note_off_c, 2, 47, 0
2, 4436400, Note_on_c, 2, 47, 50
2, 4436880, Note_off_c, 2, 47, 0
2, 4437240, Note_on_c, 2, 43, 50
2, 4437840, Note_off_c, 2, 43, 0
2, 4437840, Note_on_c, 2, 47, 50
2, 4438200, Note_off_c, 2, 47, 0
2, 4438320, Note_on_c, 2, 47, 50
2, 4438800, Note_off_c, 2, 47, 0
2, 4439160, Note_on_c, 2, 38, 50
2, 4439760, Note_off_c, 2, 38, 0
2, 4439760, Note_on_c, 2, 42, 50
2, 4440120, Note_off_c, 2, 42, 0
2, 4440240, Note_on_c, 2, 42, 50
2, 4440720, Note_off_c, 2, 42, 0
2, 4441080, Note_on_c, 2, 38, 50
2, 4441680, Note_off_c, 2, 38, 0
2, 4441680, Note_on_c, 2, 42, 50
2, 4442040, Note_off_c, 2, 42, 0
2, 4442160, Note_on_c, 2, 42, 50
2, 4442640, Note_off_c, 2, 42, 0
2, 4443000, Note_on_c, 2, 45, 50
2, 4443600, Note_off_c, 2, 45, 0
2, 4443600, Note_on_c, 2, 45, 50
2, 4444080, Note_off_c, 2, 45, 0
2, 4444080, Note_on_c, 2, 40, 50
2, 4444560, Note_off_c, 2, 40, 0
2, 4444560, Note_on_c, 2, 45, 50
2, 4444920, Note_off_c, 2, 45, 0
2, 4445040, Note_on_c, 2, 45, 50
2, 4445520, Note_off_c, 2, 45, 0
2, 4445520, Note_on_c, 2, 45, 50
2, 4445880, Note_off_c, 2, 45, 0
2, 4445880, Note_on_c, 2, 45, 50
2, 4446000, Note_off_c, 2, 45, 0
2, 4446000, Note_on_c, 2, 47, 50
2, 4446360, Note_off_c, 2, 47, 0
2, 4446360, Note_on_c, 2, 50, 50
2, 4446480, Note_off_c, 2, 50, 0
2, 4446480, Note_on_c, 2, 47, 50
2, 4446840, Note_off_c, 2, 47, 0
2, 4446840, Note_on_c, 2, 45, 50
2, 4446960, Note_off_c, 2, 45, 0
2, 4446960, Note_on_c, 2, 38, 50
2, 4447440, Note_off_c, 2, 38, 0
2, 4447440, Note_on_c, 2, 42, 50
2, 4447920, Note_off_c, 2, 42, 0
2, 4447920, Note_on_c, 2, 45, 50
2, 4448280, Note_off_c, 2, 45, 0
2, 4448760, Note_on_c, 2, 45, 50
2, 4449240, Note_off_c, 2, 45, 0
2, 4449240, Note_on_c, 2, 50, 50
2, 4449720, Note_off_c, 2, 50, 0
2, 4449720, Note_on_c, 2, 50, 50
2, 4449840, Note_off_c, 2, 50, 0
2, 4450200, Note_on_c, 2, 50, 50
2, 4450320, Note_off_c, 2, 50, 0
2, 4450320, Note_on_c, 2, 50, 50
2, 4450680, Note_off_c, 2, 50, 0
2, 4450680, Note_on_c, 2, 50, 50
2, 4450800, Note_off_c, 2, 50, 0
2, 4450800, Note_on_c, 2, 62, 50
2, 4452720, Note_off_c, 2, 62, 0
2, 4452720, Note_on_c, 2, 62, 50
2, 4454040, Note_off_c, 2, 62, 0
2, 4454040, Note_on_c, 2, 62, 50
2, 4454160, Note_off_c, 2, 62, 0
2, 4454160, Note_on_c, 2, 62, 50
2, 4454640, Note_off_c, 2, 62, 0
2, 4454640, Note_on_c, 2, 62, 50
2, 4456560, Note_off_c, 2, 62, 0
2, 4456560, Note_on_c, 2, 62, 50
2, 4457880, Note_off_c, 2, 62, 0
2, 4457880, Note_on_c, 2, 62, 50
2, 4458000, Note_off_c, 2, 62, 0
2, 4458000, Note_on_c, 2, 62, 50
2, 4458480, Note_off_c, 2, 62, 0
2, 4458480, Note_on_c, 2, 62, 50
2, 4460400, Note_off_c, 2, 62, 0
2, 4460400, Note_on_c, 2, 62, 50
2, 4461720, Note_off_c, 2, 62, 0
2, 4461720, Note_on_c, 2, 62, 50
2, 4461840, Note_off_c, 2, 62, 0
2, 4461840, Note_on_c, 2, 62, 50
2, 4462320, Note_off_c, 2, 62, 0
2, 4462320, Note_on_c, 2, 62, 50
2, 4464240, Note_off_c, 2, 62, 0
2, 4464240, Note_on_c, 2, 62, 50
2, 4465560, Note_off_c, 2, 62, 0
2, 4465560, Note_on_c, 2, 62, 50
2, 4465680, Note_off_c, 2, 62, 0
2, 4465680, Note_on_c, 2, 62, 50
2, 4466160, Note_off_c, 2, 62, 0
2, 4466640, Note_on_c, 2, 64, 50
2, 4467000, Note_off_c, 2, 64, 0
2, 4467480, Note_on_c, 2, 64, 50
2, 4467600, Note_off_c, 2, 64, 0
2, 4468080, Note_on_c, 2, 64, 50
2, 4468440, Note_off_c, 2, 64, 0
2, 4468920, Note_on_c, 2, 64, 50
2, 4469520, Note_off_c, 2, 64, 0
2, 4470000, Note_on_c, 2, 38, 50
2, 4470480, Note_off_c, 2, 38, 0
2, 4470480, Note_on_c, 2, 45, 50
2, 4471080, Note_off_c, 2, 45, 0
2, 4471080, Note_on_c, 2, 45, 50
2, 4471440, Note_off_c, 2, 45, 0
2, 4471440, Note_on_c, 2, 47, 50
2, 4471800, Note_off_c, 2, 47, 0
2, 4471800, Note_on_c, 2, 47, 50
2, 4471920, Note_off_c, 2, 47, 0
2, 4471920, Note_on_c, 2, 50, 50
2, 4472280, Note_off_c, 2, 50, 0
2, 4472280, Note_on_c, 2, 50, 50
2, 4472880, Note_off_c, 2, 50, 0
2, 4472880, Note_on_c, 2, 45, 50
2, 4473360, Note_off_c, 2, 45, 0
2, 4473360, Note_on_c, 2, 50, 50
2, 4473840, Note_off_c, 2, 50, 0
2, 4473840, Note_on_c, 2, 38, 50
2, 4474320, Note_off_c, 2, 38, 0
2, 4474320, Note_on_c, 2, 45, 50
2, 4474800, Note_off_c, 2, 45, 0
2, 4474800, Note_on_c, 2, 45, 50
2, 4475280, Note_off_c, 2, 45, 0
2, 4475280, Note_on_c, 2, 49, 50
2, 4475760, Note_off_c, 2, 49, 0
2, 4475760, Note_on_c, 2, 48, 50
2, 4476240, Note_off_c, 2, 48, 0
2, 4476240, Note_on_c, 2, 50, 50
2, 4476720, Note_off_c, 2, 50, 0
2, 4476720, Note_on_c, 2, 50, 50
2, 4477200, Note_off_c, 2, 50, 0
2, 4477200, Note_on_c, 2, 50, 50
2, 4477680, Note_off_c, 2, 50, 0
2, 4477680, Note_on_c, 2, 38, 50
2, 4478160, Note_off_c, 2, 38, 0
2, 4478160, Note_on_c, 2, 45, 50
2, 4478640, Note_off_c, 2, 45, 0
2, 4478640, Note_on_c, 2, 45, 50
2, 4479120, Note_off_c, 2, 45, 0
2, 4479120, Note_on_c, 2, 49, 50
2, 4479600, Note_off_c, 2, 49, 0
2, 4479600, Note_on_c, 2, 48, 50
2, 4480080, Note_off_c, 2, 48, 0
2, 4480080, Note_on_c, 2, 50, 50
2, 4480560, Note_off_c, 2, 50, 0
2, 4480560, Note_on_c, 2, 50, 50
2, 4481040, Note_off_c, 2, 50, 0
2, 4481040, Note_on_c, 2, 50, 50
2, 4481520, Note_off_c, 2, 50, 0
2, 4481520, Note_on_c, 2, 43, 50
2, 4482000, Note_off_c, 2, 43, 0
2, 4482000, Note_on_c, 2, 55, 50
2, 4482480, Note_off_c, 2, 55, 0
2, 4482480, Note_on_c, 2, 55, 50
2, 4482840, Note_off_c, 2, 55, 0
2, 4482840, Note_on_c, 2, 55, 50
2, 4482960, Note_off_c, 2, 55, 0
2, 4482960, Note_on_c, 2, 52, 50
2, 4483320, Note_off_c, 2, 52, 0
2, 4483320, Note_on_c, 2, 52, 50
2, 4483440, Note_off_c, 2, 52, 0
2, 4483440, Note_on_c, 2, 53, 50
2, 4483800, Note_off_c, 2, 53, 0
2, 4483800, Note_on_c, 2, 53, 50
2, 4483920, Note_off_c, 2, 53, 0
2, 4483920, Note_on_c, 2, 52, 50
2, 4484400, Note_off_c, 2, 52, 0
2, 4484400, Note_on_c, 2, 55, 50
2, 4484760, Note_off_c, 2, 55, 0
2, 4484760, Note_on_c, 2, 55, 50
2, 4484880, Note_off_c, 2, 55, 0
2, 4484880, Note_on_c, 2, 47, 50
2, 4485360, Note_off_c, 2, 47, 0
2, 4485360, Note_on_c, 2, 38, 50
2, 4485840, Note_off_c, 2, 38, 0
2, 4485840, Note_on_c, 2, 45, 50
2, 4486320, Note_off_c, 2, 45, 0
2, 4486320, Note_on_c, 2, 45, 50
2, 4486800, Note_off_c, 2, 45, 0
2, 4486800, Note_on_c, 2, 50, 50
2, 4487280, Note_off_c, 2, 50, 0
2, 4487280, Note_on_c, 2, 48, 50
2, 4487640, Note_off_c, 2, 48, 0
2, 4487640, Note_on_c, 2, 48, 50
2, 4487760, Note_off_c, 2, 48, 0
2, 4487760, Note_on_c, 2, 47, 50
2, 4488240, Note_off_c, 2, 47, 0
2, 4488240, Note_on_c, 2, 50, 50
2, 4488600, Note_off_c, 2, 50, 0
2, 4488600, Note_on_c, 2, 50, 50
2, 4488720, Note_off_c, 2, 50, 0
2, 4488720, Note_on_c, 2, 42, 50
2, 4489200, Note_off_c, 2, 42, 0
2, 4489200, Note_on_c, 2, 45, 50
2, 4489680, Note_off_c, 2, 45, 0
2, 4489680, Note_on_c, 2, 45, 50
2, 4490040, Note_off_c, 2, 45, 0
2, 4490040, Note_on_c, 2, 45, 50
2, 4490640, Note_off_c, 2, 45, 0
2, 4490640, Note_on_c, 2, 40, 50
2, 4491120, Note_off_c, 2, 40, 0
2, 4491120, Note_on_c, 2, 45, 50
2, 4491600, Note_off_c, 2, 45, 0
2, 4491600, Note_on_c, 2, 43, 50
2, 4492080, Note_off_c, 2, 43, 0
2, 4492080, Note_on_c, 2, 42, 50
2, 4492440, Note_off_c, 2, 42, 0
2, 4492440, Note_on_c, 2, 42, 50
2, 4492560, Note_off_c, 2, 42, 0
2, 4492560, Note_on_c, 2, 40, 50
2, 4493040, Note_off_c, 2, 40, 0
2, 4493040, Note_on_c, 2, 38, 50
2, 4493520, Note_off_c, 2, 38, 0
2, 4493520, Note_on_c, 2, 45, 50
2, 4494000, Note_off_c, 2, 45, 0
2, 4494000, Note_on_c, 2, 50, 50
2, 4494360, Note_off_c, 2, 50, 0
2, 4494480, Note_on_c, 2, 47, 50
2, 4494840, Note_off_c, 2, 47, 0
2, 4494840, Note_on_c, 2, 45, 50
2, 4494960, Note_off_c, 2, 45, 0
2, 4494960, Note_on_c, 2, 50, 50
2, 4495440, Note_off_c, 2, 50, 0
2, 4495440, Note_on_c, 2, 47, 50
2, 4495920, Note_off_c, 2, 47, 0
2, 4496280, Note_on_c, 2, 50, 50
2, 4496760, Note_off_c, 2, 50, 0
2, 4496760, Note_on_c, 2, 50, 50
2, 4496880, Note_off_c, 2, 50, 0
2, 4497240, Note_on_c, 2, 74, 50
2, 4497360, Note_off_c, 2, 74, 0
2, 4497840, Note_on_c, 2, 74, 50
2, 4498200, Note_off_c, 2, 74, 0
2, 4498680, Note_on_c, 2, 74, 50
2, 4498800, Note_off_c, 2, 74, 0
2, 4499160, Note_on_c, 2, 74, 50
2, 4499280, Note_off_c, 2, 74, 0
2, 4499640, Note_on_c, 2, 74, 50
2, 4500120, Note_off_c, 2, 74, 0
2, 4500120, Note_on_c, 2, 74, 50
2, 4500240, Note_off_c, 2, 74, 0
2, 4500240, Note_on_c, 2, 74, 50
2, 4500600, Note_off_c, 2, 74, 0
2, 4501080, Note_on_c, 2, 70, 50
2, 4501200, Note_off_c, 2, 70, 0
2, 4501680, Note_on_c, 2, 70, 50
2, 4502040, Note_off_c, 2, 70, 0
2, 4502520, Note_on_c, 2, 70, 50
2, 4502640, Note_off_c, 2, 70, 0
2, 4503000, Note_on_c, 2, 70, 50
2, 4503120, Note_off_c, 2, 70, 0
2, 4503480, Note_on_c, 2, 70, 50
2, 4503960, Note_off_c, 2, 70, 0
2, 4503960, Note_on_c, 2, 70, 50
2, 4504080, Note_off_c, 2, 70, 0
2, 4504080, Note_on_c, 2, 70, 50
2, 4504440, Note_off_c, 2, 70, 0
2, 4504440, Note_on_c, 2, 70, 50
2, 4504560, Note_off_c, 2, 70, 0
2, 4504920, Note_on_c, 2, 74, 50
2, 4505040, Note_off_c, 2, 74, 0
2, 4505520, Note_on_c, 2, 74, 50
2, 4505880, Note_off_c, 2, 74, 0
2, 4506360, Note_on_c, 2, 74, 50
2, 4506480, Note_off_c, 2, 74, 0
2, 4506840, Note_on_c, 2, 74, 50
2, 4506960, Note_off_c, 2, 74, 0
2, 4507320, Note_on_c, 2, 74, 50
2, 4507800, Note_off_c, 2, 74, 0
2, 4507800, Note_on_c, 2, 74, 50
2, 4507920, Note_off_c, 2, 74, 0
2, 4507920, Note_on_c, 2, 74, 50
2, 4508280, Note_off_c, 2, 74, 0
2, 4508280, Note_on_c, 2, 74, 50
2, 4508400, Note_off_c, 2, 74, 0
2, 4508400, Note_on_c, 2, 74, 50
2, 4508760, Note_off_c, 2, 74, 0
2, 4508880, Note_on_c, 2, 74, 50
2, 4509840, Note_off_c, 2, 74, 0
2, 4510200, Note_on_c, 2, 45, 50
2, 4510680, Note_off_c, 2, 45, 0
2, 4510680, Note_on_c, 2, 45, 50
2, 4510800, Note_off_c, 2, 45, 0
2, 4510800, Note_on_c, 2, 43, 50
2, 4511280, Note_off_c, 2, 43, 0
2, 4511280, Note_on_c, 2, 42, 50
2, 4511760, Note_off_c, 2, 42, 0
2, 4511760, Note_on_c, 2, 40, 50
2, 4512240, Note_off_c, 2, 40, 0
2, 4512240, Note_on_c, 2, 38, 50
2, 4512720, Note_off_c, 2, 38, 0
2, 4512720, Note_on_c, 2, 42, 50
2, 4513200, Note_off_c, 2, 42, 0
2, 4513200, Note_on_c, 2, 45, 50
2, 4513680, Note_off_c, 2, 45, 0
2, 4513680, Note_on_c, 2, 42, 50
2, 4514160, Note_off_c, 2, 42, 0
2, 4514160, Note_on_c, 2, 38, 50
2, 4514640, Note_off_c, 2, 38, 0
2, 4514640, Note_on_c, 2, 42, 50
2, 4515120, Note_off_c, 2, 42, 0
2, 4515120, Note_on_c, 2, 45, 50
2, 4515600, Note_off_c, 2, 45, 0
2, 4515600, Note_on_c, 2, 42, 50
2, 4516080, Note_off_c, 2, 42, 0
2, 4516080, Note_on_c, 2, 38, 50
2, 4516560, Note_off_c, 2, 38, 0
2, 4516560, Note_on_c, 2, 42, 50
2, 4517040, Note_off_c, 2, 42, 0
2, 4517040, Note_on_c, 2, 45, 50
2, 4517520, Note_off_c, 2, 45, 0
2, 4517520, Note_on_c, 2, 42, 50
2, 4518000, Note_off_c, 2, 42, 0
2, 4518000, Note_on_c, 2, 38, 50
2, 4518480, Note_off_c, 2, 38, 0
2, 4518480, Note_on_c, 2, 42, 50
2, 4518960, Note_off_c, 2, 42, 0
2, 4518960, Note_on_c, 2, 45, 50
2, 4519440, Note_off_c, 2, 45, 0
2, 4519440, Note_on_c, 2, 42, 50
2, 4519920, Note_off_c, 2, 42, 0
2, 4519920, Note_on_c, 2, 43, 50
2, 4520400, Note_off_c, 2, 43, 0
2, 4520400, Note_on_c, 2, 50, 50
2, 4520880, Note_off_c, 2, 50, 0
2, 4520880, Note_on_c, 2, 50, 50
2, 4521240, Note_off_c, 2, 50, 0
2, 4521240, Note_on_c, 2, 50, 50
2, 4521360, Note_off_c, 2, 50, 0
2, 4521360, Note_on_c, 2, 50, 50
2, 4521720, Note_off_c, 2, 50, 0
2, 4521720, Note_on_c, 2, 50, 50
2, 4521840, Note_off_c, 2, 50, 0
2, 4521840, Note_on_c, 2, 53, 50
2, 4522320, Note_off_c, 2, 53, 0
2, 4522320, Note_on_c, 2, 52, 50
2, 4522800, Note_off_c, 2, 52, 0
2, 4522800, Note_on_c, 2, 50, 50
2, 4523160, Note_off_c, 2, 50, 0
2, 4523160, Note_on_c, 2, 50, 50
2, 4523280, Note_off_c, 2, 50, 0
2, 4523280, Note_on_c, 2, 47, 50
2, 4523760, Note_off_c, 2, 47, 0
2, 4523760, Note_on_c, 2, 38, 50
2, 4524240, Note_off_c, 2, 38, 0
2, 4524240, Note_on_c, 2, 42, 50
2, 4524720, Note_off_c, 2, 42, 0
2, 4524720, Note_on_c, 2, 45, 50
2, 4525080, Note_off_c, 2, 45, 0
2, 4525080, Note_on_c, 2, 45, 50
2, 4525200, Note_off_c, 2, 45, 0
2, 4525200, Note_on_c, 2, 47, 50
2, 4525560, Note_off_c, 2, 47, 0
2, 4525560, Note_on_c, 2, 47, 50
2, 4525680, Note_off_c, 2, 47, 0
2, 4525680, Note_on_c, 2, 50, 50
2, 4526040, Note_off_c, 2, 50, 0
2, 4526040, Note_on_c, 2, 50, 50
2, 4526160, Note_off_c, 2, 50, 0
2, 4526160, Note_on_c, 2, 47, 50
2, 4526520, Note_off_c, 2, 47, 0
2, 4526520, Note_on_c, 2, 47, 50
2, 4526640, Note_off_c, 2, 47, 0
2, 4526640, Note_on_c, 2, 45, 50
2, 4527000, Note_off_c, 2, 45, 0
2, 4527000, Note_on_c, 2, 45, 50
2, 4527120, Note_off_c, 2, 45, 0
2, 4527120, Note_on_c, 2, 42, 50
2, 4527600, Note_off_c, 2, 42, 0
2, 4527600, Note_on_c, 2, 45, 50
2, 4528080, Note_off_c, 2, 45, 0
2, 4528080, Note_on_c, 2, 43, 50
2, 4528560, Note_off_c, 2, 43, 0
2, 4528560, Note_on_c, 2, 40, 50
2, 4529040, Note_off_c, 2, 40, 0
2, 4529040, Note_on_c, 2, 43, 50
2, 4529520, Note_off_c, 2, 43, 0
2, 4529520, Note_on_c, 2, 45, 50
2, 4530000, Note_off_c, 2, 45, 0
2, 4530000, Note_on_c, 2, 43, 50
2, 4530480, Note_off_c, 2, 43, 0
2, 4530480, Note_on_c, 2, 42, 50
2, 4530960, Note_off_c, 2, 42, 0
2, 4530960, Note_on_c, 2, 40, 50
2, 4531440, Note_off_c, 2, 40, 0
2, 4531440, Note_on_c, 2, 38, 50
2, 4532400, Note_off_c, 2, 38, 0
2, 4532400, Note_on_c, 2, 62, 50
2, 4532880, Note_off_c, 2, 62, 0
2, 4532880, Note_on_c, 2, 62, 50
2, 4533360, Note_off_c, 2, 62, 0
2, 4533360, Note_on_c, 2, 57, 50
2, 4533840, Note_off_c, 2, 57, 0
2, 4533840, Note_on_c, 2, 45, 50
2, 4534320, Note_off_c, 2, 45, 0
2, 4534800, Note_on_c, 2, 50, 50
2, 4536720, Note_off_c, 2, 50, 0
2, 4536720, Note_on_c, 2, 50, 50
2, 4538640, Note_off_c, 2, 50, 0
2, 4538640, Note_on_c, 2, 50, 50
2, 4540560, Note_off_c, 2, 50, 0
2, 4540560, Note_on_c, 2, 50, 50
2, 4541040, Note_off_c, 2, 50, 0
2, 4547280, Note_on_c, 2, 64, 50
2, 4548240, Note_off_c, 2, 64, 0
2, 4548480, Note_on_c, 2, 71, 50
2, 4550400, Note_off_c, 2, 71, 0
2, 4550400, Note_on_c, 2, 71, 50
2, 4550640, Note_off_c, 2, 71, 0
2, 4550880, Note_on_c, 2, 72, 50
2, 4551600, Note_off_c, 2, 72, 0
2, 4551600, Note_on_c, 2, 72, 50
2, 4552320, Note_off_c, 2, 72, 0
2, 4552320, Note_on_c, 2, 64, 50
2, 4552560, Note_off_c, 2, 64, 0
2, 4552560, Note_on_c, 2, 69, 50
2, 4553040, Note_off_c, 2, 69, 0
2, 4553040, Note_on_c, 2, 69, 50
2, 4553520, Note_off_c, 2, 69, 0
2, 4553520, Note_on_c, 2, 69, 50
2, 4553640, Note_off_c, 2, 69, 0
2, 4553640, Note_on_c, 2, 67, 50
2, 4554480, Note_off_c, 2, 67, 0
2, 4554480, Note_on_c, 2, 68, 50
2, 4556400, Note_off_c, 2, 68, 0
2, 4556400, Note_on_c, 2, 57, 50
2, 4557720, Note_off_c, 2, 57, 0
2, 4558080, Note_on_c, 2, 57, 50
2, 4558560, Note_off_c, 2, 57, 0
2, 4558560, Note_on_c, 2, 57, 50
2, 4559760, Note_off_c, 2, 57, 0
2, 4560240, Note_on_c, 2, 66, 50
2, 4560480, Note_off_c, 2, 66, 0
2, 4560480, Note_on_c, 2, 66, 50
2, 4561680, Note_off_c, 2, 66, 0
2, 4561920, Note_on_c, 2, 66, 50
2, 4562400, Note_off_c, 2, 66, 0
2, 4562400, Note_on_c, 2, 66, 50
2, 4563600, Note_off_c, 2, 66, 0
2, 4564080, Note_on_c, 2, 71, 50
2, 4564320, Note_off_c, 2, 71, 0
2, 4564320, Note_on_c, 2, 71, 50
2, 4565040, Note_off_c, 2, 71, 0
2, 4565040, Note_on_c, 2, 75, 50
2, 4565520, Note_off_c, 2, 75, 0
2, 4565760, Note_on_c, 2, 71, 50
2, 4566000, Note_off_c, 2, 71, 0
2, 4566000, Note_on_c, 2, 71, 50
2, 4566240, Note_off_c, 2, 71, 0
2, 4566240, Note_on_c, 2, 71, 50
2, 4566840, Note_off_c, 2, 71, 0
2, 4566960, Note_on_c, 2, 71, 50
2, 4567440, Note_off_c, 2, 71, 0
2, 4567920, Note_on_c, 2, 64, 50
2, 4568160, Note_off_c, 2, 64, 0
2, 4568160, Note_on_c, 2, 64, 50
2, 4568640, Note_off_c, 2, 64, 0
2, 4568640, Note_on_c, 2, 73, 50
2, 4569120, Note_off_c, 2, 73, 0
2, 4569120, Note_on_c, 2, 71, 50
2, 4569360, Note_off_c, 2, 71, 0
2, 4569840, Note_on_c, 2, 64, 50
2, 4570080, Note_off_c, 2, 64, 0
2, 4570080, Note_on_c, 2, 64, 50
2, 4570320, Note_off_c, 2, 64, 0
2, 4570560, Note_on_c, 2, 64, 50
2, 4570800, Note_off_c, 2, 64, 0
2, 4571040, Note_on_c, 2, 64, 50
2, 4571520, Note_off_c, 2, 64, 0
2, 4571760, Note_on_c, 2, 69, 50
2, 4572240, Note_off_c, 2, 69, 0
2, 4572240, Note_on_c, 2, 69, 50
2, 4572720, Note_off_c, 2, 69, 0
2, 4572720, Note_on_c, 2, 67, 50
2, 4572960, Note_off_c, 2, 67, 0
2, 4572960, Note_on_c, 2, 69, 50
2, 4573200, Note_off_c, 2, 69, 0
2, 4573440, Note_on_c, 2, 57, 50
2, 4573920, Note_off_c, 2, 57, 0
2, 4573920, Note_on_c, 2, 57, 50
2, 4575120, Note_off_c, 2, 57, 0
2, 4575600, Note_on_c, 2, 66, 50
2, 4575840, Note_off_c, 2, 66, 0
2, 4575840, Note_on_c, 2, 66, 50
2, 4576320, Note_off_c, 2, 66, 0
2, 4576320, Note_on_c, 2, 73, 50
2, 4576800, Note_off_c, 2, 73, 0
2, 4576800, Note_on_c, 2, 73, 50
2, 4577040, Note_off_c, 2, 73, 0
2, 4577280, Note_on_c, 2, 66, 50
2, 4578240, Note_off_c, 2, 66, 0
2, 4578240, Note_on_c, 2, 73, 50
2, 4578720, Note_off_c, 2, 73, 0
2, 4578720, Note_on_c, 2, 73, 50
2, 4578960, Note_off_c, 2, 73, 0
2, 4583040, Note_on_c, 2, 69, 50
2, 4583760, Note_off_c, 2, 69, 0
2, 4583760, Note_on_c, 2, 69, 50
2, 4584240, Note_off_c, 2, 69, 0
2, 4584240, Note_on_c, 2, 67, 50
2, 4584480, Note_off_c, 2, 67, 0
2, 4584480, Note_on_c, 2, 69, 50
2, 4585200, Note_off_c, 2, 69, 0
2, 4586880, Note_on_c, 2, 62, 50
2, 4587360, Note_off_c, 2, 62, 0
2, 4587360, Note_on_c, 2, 62, 50
2, 4588080, Note_off_c, 2, 62, 0
2, 4588080, Note_on_c, 2, 69, 50
2, 4588320, Note_off_c, 2, 69, 0
2, 4588320, Note_on_c, 2, 69, 50
2, 4589040, Note_off_c, 2, 69, 0
2, 4589040, Note_on_c, 2, 62, 50
2, 4589280, Note_off_c, 2, 62, 0
2, 4589280, Note_on_c, 2, 62, 50
2, 4590000, Note_off_c, 2, 62, 0
2, 4590000, Note_on_c, 2, 69, 50
2, 4590240, Note_off_c, 2, 69, 0
2, 4590240, Note_on_c, 2, 69, 50
2, 4590960, Note_off_c, 2, 69, 0
2, 4590960, Note_on_c, 2, 66, 50
2, 4591200, Note_off_c, 2, 66, 0
2, 4591200, Note_on_c, 2, 66, 50
2, 4591920, Note_off_c, 2, 66, 0
2, 4591920, Note_on_c, 2, 73, 50
2, 4592160, Note_off_c, 2, 73, 0
2, 4592160, Note_on_c, 2, 73, 50
2, 4592880, Note_off_c, 2, 73, 0
2, 4592880, Note_on_c, 2, 66, 50
2, 4593120, Note_off_c, 2, 66, 0
2, 4593120, Note_on_c, 2, 66, 50
2, 4593840, Note_off_c, 2, 66, 0
2, 4593840, Note_on_c, 2, 73, 50
2, 4594800, Note_off_c, 2, 73, 0
2, 4594800, Note_on_c, 2, 59, 50
2, 4595040, Note_off_c, 2, 59, 0
2, 4595040, Note_on_c, 2, 59, 50
2, 4595760, Note_off_c, 2, 59, 0
2, 4595760, Note_on_c, 2, 66, 50
2, 4596000, Note_off_c, 2, 66, 0
2, 4596000, Note_on_c, 2, 66, 50
2, 4596720, Note_off_c, 2, 66, 0
2, 4596720, Note_on_c, 2, 59, 50
2, 4596960, Note_off_c, 2, 59, 0
2, 4596960, Note_on_c, 2, 59, 50
2, 4597680, Note_off_c, 2, 59, 0
2, 4597680, Note_on_c, 2, 66, 50
2, 4597920, Note_off_c, 2, 66, 0
2, 4597920, Note_on_c, 2, 66, 50
2, 4598640, Note_off_c, 2, 66, 0
2, 4598640, Note_on_c, 2, 65, 50
2, 4598880, Note_off_c, 2, 65, 0
2, 4598880, Note_on_c, 2, 65, 50
2, 4599600, Note_off_c, 2, 65, 0
2, 4599600, Note_on_c, 2, 72, 50
2, 4599840, Note_off_c, 2, 72, 0
2, 4599840, Note_on_c, 2, 72, 50
2, 4600560, Note_off_c, 2, 72, 0
2, 4600560, Note_on_c, 2, 64, 50
2, 4600800, Note_off_c, 2, 64, 0
2, 4600800, Note_on_c, 2, 64, 50
2, 4601280, Note_off_c, 2, 64, 0
2, 4601280, Note_on_c, 2, 67, 50
2, 4601760, Note_off_c, 2, 67, 0
2, 4601760, Note_on_c, 2, 71, 50
2, 4602240, Note_off_c, 2, 71, 0
2, 4602240, Note_on_c, 2, 69, 50
2, 4602480, Note_off_c, 2, 69, 0
2, 4602480, Note_on_c, 2, 57, 50
2, 4602840, Note_off_c, 2, 57, 0
2, 4602960, Note_on_c, 2, 69, 50
2, 4603320, Note_off_c, 2, 69, 0
2, 4603440, Note_on_c, 2, 67, 50
2, 4603680, Note_off_c, 2, 67, 0
2, 4603680, Note_on_c, 2, 69, 50
2, 4603920, Note_off_c, 2, 69, 0
2, 4604160, Note_on_c, 2, 57, 50
2, 4604640, Note_off_c, 2, 57, 0
2, 4604640, Note_on_c, 2, 57, 50
2, 4605360, Note_off_c, 2, 57, 0
2, 4605360, Note_on_c, 2, 67, 50
2, 4605600, Note_off_c, 2, 67, 0
2, 4605600, Note_on_c, 2, 69, 50
2, 4605840, Note_off_c, 2, 69, 0
2, 4606320, Note_on_c, 2, 66, 50
2, 4606560, Note_off_c, 2, 66, 0
2, 4606560, Note_on_c, 2, 66, 50
2, 4607280, Note_off_c, 2, 66, 0
2, 4607280, Note_on_c, 2, 71, 50
2, 4607520, Note_off_c, 2, 71, 0
2, 4607520, Note_on_c, 2, 73, 50
2, 4607760, Note_off_c, 2, 73, 0
2, 4608000, Note_on_c, 2, 66, 50
2, 4608240, Note_off_c, 2, 66, 0
2, 4608240, Note_on_c, 2, 66, 50
2, 4608480, Note_off_c, 2, 66, 0
2, 4608480, Note_on_c, 2, 66, 50
2, 4609200, Note_off_c, 2, 66, 0
2, 4609200, Note_on_c, 2, 71, 50
2, 4609440, Note_off_c, 2, 71, 0
2, 4609440, Note_on_c, 2, 73, 50
2, 4609680, Note_off_c, 2, 73, 0
2, 4610160, Note_on_c, 2, 71, 50
2, 4610400, Note_off_c, 2, 71, 0
2, 4610400, Note_on_c, 2, 71, 50
2, 4610880, Note_off_c, 2, 71, 0
2, 4610880, Note_on_c, 2, 75, 50
2, 4611360, Note_off_c, 2, 75, 0
2, 4611360, Note_on_c, 2, 75, 50
2, 4611600, Note_off_c, 2, 75, 0
2, 4612080, Note_on_c, 2, 62, 50
2, 4612320, Note_off_c, 2, 62, 0
2, 4612320, Note_on_c, 2, 62, 50
2, 4613280, Note_off_c, 2, 62, 0
2, 4613280, Note_on_c, 2, 65, 50
2, 4613760, Note_off_c, 2, 65, 0
2, 4616400, Note_on_c, 2, 72, 50
2, 4616640, Note_off_c, 2, 72, 0
2, 4616640, Note_on_c, 2, 74, 50
2, 4616880, Note_off_c, 2, 74, 0
2, 4616880, Note_on_c, 2, 76, 50
2, 4617360, Note_off_c, 2, 76, 0
2, 4617360, Note_on_c, 2, 74, 50
2, 4617480, Note_off_c, 2, 74, 0
2, 4617480, Note_on_c, 2, 72, 50
2, 4617720, Note_off_c, 2, 72, 0
2, 4617840, Note_on_c, 2, 73, 50
2, 4618800, Note_off_c, 2, 73, 0
2, 4618800, Note_on_c, 2, 73, 50
2, 4619160, Note_off_c, 2, 73, 0
2, 4619160, Note_on_c, 2, 74, 50
2, 4619280, Note_off_c, 2, 74, 0
2, 4619520, Note_on_c, 2, 74, 50
2, 4619640, Note_off_c, 2, 74, 0
2, 4619640, Note_on_c, 2, 76, 50
2, 4620240, Note_off_c, 2, 76, 0
2, 4620240, Note_on_c, 2, 76, 50
2, 4620720, Note_off_c, 2, 76, 0
2, 4620720, Note_on_c, 2, 76, 50
2, 4620840, Note_off_c, 2, 76, 0
2, 4620840, Note_on_c, 2, 74, 50
2, 4620960, Note_off_c, 2, 74, 0
2, 4621080, Note_on_c, 2, 72, 50
2, 4621680, Note_off_c, 2, 72, 0
2, 4621680, Note_on_c, 2, 70, 50
2, 4622040, Note_off_c, 2, 70, 0
2, 4622160, Note_on_c, 2, 73, 50
2, 4622520, Note_off_c, 2, 73, 0
2, 4622640, Note_on_c, 2, 70, 50
2, 4623120, Note_off_c, 2, 70, 0
2, 4623360, Note_on_c, 2, 68, 50
2, 4623600, Note_off_c, 2, 68, 0
2, 4623600, Note_on_c, 2, 70, 50
2, 4624080, Note_off_c, 2, 70, 0
2, 4624080, Note_on_c, 2, 70, 50
2, 4624200, Note_off_c, 2, 70, 0
2, 4624200, Note_on_c, 2, 68, 50
2, 4624320, Note_off_c, 2, 68, 0
2, 4624440, Note_on_c, 2, 66, 50
2, 4624560, Note_off_c, 2, 66, 0
2, 4624560, Note_on_c, 2, 68, 50
2, 4624680, Note_off_c, 2, 68, 0
2, 4624680, Note_on_c, 2, 70, 50
2, 4624800, Note_off_c, 2, 70, 0
2, 4624920, Note_on_c, 2, 73, 50
2, 4625040, Note_off_c, 2, 73, 0
2, 4625760, Note_on_c, 2, 69, 50
2, 4626480, Note_off_c, 2, 69, 0
2, 4626480, Note_on_c, 2, 71, 50
2, 4627440, Note_off_c, 2, 71, 0
2, 4627440, Note_on_c, 2, 71, 50
2, 4629000, Note_off_c, 2, 71, 0
2, 4629240, Note_on_c, 2, 69, 50
2, 4630440, Note_off_c, 2, 69, 0
2, 4630440, Note_on_c, 2, 62, 50
2, 4630560, Note_off_c, 2, 62, 0
2, 4630680, Note_on_c, 2, 60, 50
2, 4631280, Note_off_c, 2, 60, 0
2, 4631280, Note_on_c, 2, 57, 50
2, 4631520, Note_off_c, 2, 57, 0
2, 4633200, Note_on_c, 2, 62, 50
2, 4633440, Note_off_c, 2, 62, 0
2, 4633440, Note_on_c, 2, 62, 50
2, 4634160, Note_off_c, 2, 62, 0
2, 4634160, Note_on_c, 2, 69, 50
2, 4634400, Note_off_c, 2, 69, 0
2, 4634400, Note_on_c, 2, 69, 50
2, 4635120, Note_off_c, 2, 69, 0
2, 4635120, Note_on_c, 2, 62, 50
2, 4635360, Note_off_c, 2, 62, 0
2, 4635360, Note_on_c, 2, 62, 50
2, 4636080, Note_off_c, 2, 62, 0
2, 4636080, Note_on_c, 2, 69, 50
2, 4636320, Note_off_c, 2, 69, 0
2, 4636320, Note_on_c, 2, 69, 50
2, 4637040, Note_off_c, 2, 69, 0
2, 4637040, Note_on_c, 2, 66, 50
2, 4637280, Note_off_c, 2, 66, 0
2, 4637280, Note_on_c, 2, 66, 50
2, 4638000, Note_off_c, 2, 66, 0
2, 4638000, Note_on_c, 2, 73, 50
2, 4638240, Note_off_c, 2, 73, 0
2, 4638240, Note_on_c, 2, 73, 50
2, 4638960, Note_off_c, 2, 73, 0
2, 4638960, Note_on_c, 2, 66, 50
2, 4639200, Note_off_c, 2, 66, 0
2, 4639200, Note_on_c, 2, 66, 50
2, 4639920, Note_off_c, 2, 66, 0
2, 4639920, Note_on_c, 2, 73, 50
2, 4640880, Note_off_c, 2, 73, 0
2, 4640880, Note_on_c, 2, 59, 50
2, 4641120, Note_off_c, 2, 59, 0
2, 4641120, Note_on_c, 2, 59, 50
2, 4641840, Note_off_c, 2, 59, 0
2, 4641840, Note_on_c, 2, 66, 50
2, 4642080, Note_off_c, 2, 66, 0
2, 4642080, Note_on_c, 2, 66, 50
2, 4642800, Note_off_c, 2, 66, 0
2, 4642800, Note_on_c, 2, 59, 50
2, 4643040, Note_off_c, 2, 59, 0
2, 4643040, Note_on_c, 2, 59, 50
2, 4643760, Note_off_c, 2, 59, 0
2, 4643760, Note_on_c, 2, 66, 50
2, 4644000, Note_off_c, 2, 66, 0
2, 4644000, Note_on_c, 2, 66, 50
2, 4644720, Note_off_c, 2, 66, 0
2, 4644720, Note_on_c, 2, 65, 50
2, 4644960, Note_off_c, 2, 65, 0
2, 4644960, Note_on_c, 2, 65, 50
2, 4645680, Note_off_c, 2, 65, 0
2, 4645680, Note_on_c, 2, 72, 50
2, 4645920, Note_off_c, 2, 72, 0
2, 4645920, Note_on_c, 2, 72, 50
2, 4646640, Note_off_c, 2, 72, 0
2, 4646640, Note_on_c, 2, 64, 50
2, 4646880, Note_off_c, 2, 64, 0
2, 4646880, Note_on_c, 2, 64, 50
2, 4647360, Note_off_c, 2, 64, 0
2, 4647360, Note_on_c, 2, 67, 50
2, 4647840, Note_off_c, 2, 67, 0
2, 4647840, Note_on_c, 2, 71, 50
2, 4648320, Note_off_c, 2, 71, 0
2, 4648320, Note_on_c, 2, 69, 50
2, 4648560, Note_off_c, 2, 69, 0
2, 4648560, Note_on_c, 2, 57, 50
2, 4648920, Note_off_c, 2, 57, 0
2, 4649040, Note_on_c, 2, 69, 50
2, 4649400, Note_off_c, 2, 69, 0
2, 4649520, Note_on_c, 2, 67, 50
2, 4649760, Note_off_c, 2, 67, 0
2, 4649760, Note_on_c, 2, 69, 50
2, 4650000, Note_off_c, 2, 69, 0
2, 4650240, Note_on_c, 2, 57, 50
2, 4650720, Note_off_c, 2, 57, 0
2, 4650720, Note_on_c, 2, 57, 50
2, 4651440, Note_off_c, 2, 57, 0
2, 4651440, Note_on_c, 2, 67, 50
2, 4651680, Note_off_c, 2, 67, 0
2, 4651680, Note_on_c, 2, 69, 50
2, 4651920, Note_off_c, 2, 69, 0
2, 4652400, Note_on_c, 2, 66, 50
2, 4652640, Note_off_c, 2, 66, 0
2, 4652640, Note_on_c, 2, 66, 50
2, 4653360, Note_off_c, 2, 66, 0
2, 4653360, Note_on_c, 2, 71, 50
2, 4653600, Note_off_c, 2, 71, 0
2, 4653600, Note_on_c, 2, 73, 50
2, 4653840, Note_off_c, 2, 73, 0
2, 4654080, Note_on_c, 2, 66, 50
2, 4654320, Note_off_c, 2, 66, 0
2, 4654320, Note_on_c, 2, 66, 50
2, 4654560, Note_off_c, 2, 66, 0
2, 4654560, Note_on_c, 2, 66, 50
2, 4655280, Note_off_c, 2, 66, 0
2, 4655280, Note_on_c, 2, 71, 50
2, 4655520, Note_off_c, 2, 71, 0
2, 4655520, Note_on_c, 2, 73, 50
2, 4655760, Note_off_c, 2, 73, 0
2, 4656240, Note_on_c, 2, 71, 50
2, 4656480, Note_off_c, 2, 71, 0
2, 4656480, Note_on_c, 2, 71, 50
2, 4656960, Note_off_c, 2, 71, 0
2, 4656960, Note_on_c, 2, 75, 50
2, 4657440, Note_off_c, 2, 75, 0
2, 4657440, Note_on_c, 2, 75, 50
2, 4657680, Note_off_c, 2, 75, 0
2, 4658160, Note_on_c, 2, 62, 50
2, 4658400, Note_off_c, 2, 62, 0
2, 4658400, Note_on_c, 2, 62, 50
2, 4659360, Note_off_c, 2, 62, 0
2, 4659360, Note_on_c, 2, 65, 50
2, 4659840, Note_off_c, 2, 65, 0
2, 4660320, Note_on_c, 2, 57, 50
2, 4660680, Note_off_c, 2, 57, 0
2, 4660680, Note_on_c, 2, 69, 50
2, 4661040, Note_off_c, 2, 69, 0
2, 4661040, Note_on_c, 2, 69, 50
2, 4661160, Note_off_c, 2, 69, 0
2, 4661160, Note_on_c, 2, 67, 50
2, 4661520, Note_off_c, 2, 67, 0
2, 4661520, Note_on_c, 2, 67, 50
2, 4662480, Note_off_c, 2, 67, 0
2, 4663920, Note_on_c, 2, 57, 50
2, 4664280, Note_off_c, 2, 57, 0
2, 4664400, Note_on_c, 2, 69, 50
2, 4664760, Note_off_c, 2, 69, 0
2, 4664880, Note_on_c, 2, 69, 50
2, 4665000, Note_off_c, 2, 69, 0
2, 4665000, Note_on_c, 2, 67, 50
2, 4665480, Note_off_c, 2, 67, 0
2, 4665600, Note_on_c, 2, 62, 50
2, 4667520, Note_off_c, 2, 62, 0
2, 4667520, Note_on_c, 2, 62, 50
2, 4667760, Note_off_c, 2, 62, 0
2, 4667760, Note_on_c, 2, 57, 50
2, 4668120, Note_off_c, 2, 57, 0
2, 4668240, Note_on_c, 2, 69, 50
2, 4668600, Note_off_c, 2, 69, 0
2, 4668720, Note_on_c, 2, 69, 50
2, 4668840, Note_off_c, 2, 69, 0
2, 4668840, Note_on_c, 2, 67, 50
2, 4669320, Note_off_c, 2, 67, 0
2, 4669440, Note_on_c, 2, 62, 50
2, 4671360, Note_off_c, 2, 62, 0
2, 4671360, Note_on_c, 2, 62, 50
2, 4671600, Note_off_c, 2, 62, 0
2, 4671600, Note_on_c, 2, 57, 50
2, 4671960, Note_off_c, 2, 57, 0
2, 4672080, Note_on_c, 2, 69, 50
2, 4672440, Note_off_c, 2, 69, 0
2, 4672560, Note_on_c, 2, 69, 50
2, 4672680, Note_off_c, 2, 69, 0
2, 4672680, Note_on_c, 2, 67, 50
2, 4673160, Note_off_c, 2, 67, 0
2, 4673280, Note_on_c, 2, 62, 50
2, 4675200, Note_off_c, 2, 62, 0
2, 4675200, Note_on_c, 2, 62, 50
2, 4675440, Note_off_c, 2, 62, 0
2, 4675440, Note_on_c, 2, 57, 50
2, 4675800, Note_off_c, 2, 57, 0
2, 4675920, Note_on_c, 2, 69, 50
2, 4676280, Note_off_c, 2, 69, 0
2, 4676400, Note_on_c, 2, 69, 50
2, 4676520, Note_off_c, 2, 69, 0
2, 4676520, Note_on_c, 2, 67, 50
2, 4677000, Note_off_c, 2, 67, 0
2, 4677120, Note_on_c, 2, 62, 50
2, 4679040, Note_off_c, 2, 62, 0
2, 4679040, Note_on_c, 2, 62, 50
2, 4679280, Note_off_c, 2, 62, 0
2, 4679280, Note_on_c, 2, 57, 50
2, 4679640, Note_off_c, 2, 57, 0
2, 4679760, Note_on_c, 2, 69, 50
2, 4680120, Note_off_c, 2, 69, 0
2, 4680240, Note_on_c, 2, 69, 50
2, 4680360, Note_off_c, 2, 69, 0
2, 4680360, Note_on_c, 2, 67, 50
2, 4680840, Note_off_c, 2, 67, 0
2, 4680960, Note_on_c, 2, 62, 50
2, 4682880, Note_off_c, 2, 62, 0
2, 4682880, Note_on_c, 2, 62, 50
2, 4683120, Note_off_c, 2, 62, 0
2, 4683120, Note_on_c, 2, 57, 50
2, 4683480, Note_off_c, 2, 57, 0
2, 4683600, Note_on_c, 2, 69, 50
2, 4683960, Note_off_c, 2, 69, 0
2, 4684080, Note_on_c, 2, 69, 50
2, 4684200, Note_off_c, 2, 69, 0
2, 4684200, Note_on_c, 2, 67, 50
2, 4684680, Note_off_c, 2, 67, 0
2, 4684800, Note_on_c, 2, 62, 50
2, 4686720, Note_off_c, 2, 62, 0
2, 4686720, Note_on_c, 2, 62, 50
2, 4686960, Note_off_c, 2, 62, 0
2, 4686960, Note_on_c, 2, 57, 50
2, 4687320, Note_off_c, 2, 57, 0
2, 4687440, Note_on_c, 2, 69, 50
2, 4687800, Note_off_c, 2, 69, 0
2, 4687920, Note_on_c, 2, 69, 50
2, 4688040, Note_off_c, 2, 69, 0
2, 4688040, Note_on_c, 2, 67, 50
2, 4688520, Note_off_c, 2, 67, 0
2, 4688640, Note_on_c, 2, 62, 50
2, 4690560, Note_off_c, 2, 62, 0
2, 4690560, Note_on_c, 2, 62, 50
2, 4690800, Note_off_c, 2, 62, 0
2, 4690800, Note_on_c, 2, 57, 50
2, 4691160, Note_off_c, 2, 57, 0
2, 4691280, Note_on_c, 2, 69, 50
2, 4691640, Note_off_c, 2, 69, 0
2, 4691760, Note_on_c, 2, 69, 50
2, 4691880, Note_off_c, 2, 69, 0
2, 4691880, Note_on_c, 2, 67, 50
2, 4692360, Note_off_c, 2, 67, 0
2, 4692480, Note_on_c, 2, 62, 50
2, 4694400, Note_off_c, 2, 62, 0
2, 4694400, Note_on_c, 2, 62, 50
2, 4694640, Note_off_c, 2, 62, 0
2, 4694640, Note_on_c, 2, 57, 50
2, 4695000, Note_off_c, 2, 57, 0
2, 4695120, Note_on_c, 2, 69, 50
2, 4695480, Note_off_c, 2, 69, 0
2, 4695600, Note_on_c, 2, 69, 50
2, 4695720, Note_off_c, 2, 69, 0
2, 4695720, Note_on_c, 2, 67, 50
2, 4696200, Note_off_c, 2, 67, 0
2, 4696320, Note_on_c, 2, 62, 50
2, 4698240, Note_off_c, 2, 62, 0
2, 4698240, Note_on_c, 2, 62, 50
2, 4698480, Note_off_c, 2, 62, 0
2, 4698480, Note_on_c, 2, 57, 50
2, 4698840, Note_off_c, 2, 57, 0
2, 4698960, Note_on_c, 2, 69, 50
2, 4699320, Note_off_c, 2, 69, 0
2, 4699440, Note_on_c, 2, 69, 50
2, 4699560, Note_off_c, 2, 69, 0
2, 4699560, Note_on_c, 2, 67, 50
2, 4700040, Note_off_c, 2, 67, 0
2, 4700160, Note_on_c, 2, 62, 50
2, 4702080, Note_off_c, 2, 62, 0
2, 4702080, Note_on_c, 2, 62, 50
2, 4702320, Note_off_c, 2, 62, 0
2, 4702320, Note_on_c, 2, 57, 50
2, 4702680, Note_off_c, 2, 57, 0
2, 4702800, Note_on_c, 2, 69, 50
2, 4703160, Note_off_c, 2, 69, 0
2, 4703280, Note_on_c, 2, 69, 50
2, 4703400, Note_off_c, 2, 69, 0
2, 4703400, Note_on_c, 2, 67, 50
2, 4703880, Note_off_c, 2, 67, 0
2, 4704000, Note_on_c, 2, 62, 50
2, 4705920, Note_off_c, 2, 62, 0
2, 4705920, Note_on_c, 2, 62, 50
2, 4706160, Note_off_c, 2, 62, 0
2, 4714800, Note_on_c, 2, 68, 50
2, 4715280, Note_off_c, 2, 68, 0
2, 4715280, Note_on_c, 2, 69, 50
2, 4715760, Note_off_c, 2, 69, 0
2, 4715760, Note_on_c, 2, 71, 50
2, 4716240, Note_off_c, 2, 71, 0
2, 4716240, Note_on_c, 2, 71, 50
2, 4716480, Note_off_c, 2, 71, 0
2, 4716480, Note_on_c, 2, 71, 50
2, 4717200, Note_off_c, 2, 71, 0
2, 4717200, Note_on_c, 2, 71, 50
2, 4717440, Note_off_c, 2, 71, 0
2, 4717440, Note_on_c, 2, 73, 50
2, 4718160, Note_off_c, 2, 73, 0
2, 4718160, Note_on_c, 2, 71, 50
2, 4718640, Note_off_c, 2, 71, 0
2, 4718640, Note_on_c, 2, 71, 50
2, 4718880, Note_off_c, 2, 71, 0
2, 4718880, Note_on_c, 2, 69, 50
2, 4719360, Note_off_c, 2, 69, 0
2, 4719360, Note_on_c, 2, 71, 50
2, 4721040, Note_off_c, 2, 71, 0
2, 4722480, Note_on_c, 2, 68, 50
2, 4722960, Note_off_c, 2, 68, 0
2, 4722960, Note_on_c, 2, 69, 50
2, 4723200, Note_off_c, 2, 69, 0
2, 4723200, Note_on_c, 2, 71, 50
2, 4723920, Note_off_c, 2, 71, 0
2, 4723920, Note_on_c, 2, 71, 50
2, 4724400, Note_off_c, 2, 71, 0
2, 4724400, Note_on_c, 2, 71, 50
2, 4724640, Note_off_c, 2, 71, 0
2, 4724640, Note_on_c, 2, 71, 50
2, 4725120, Note_off_c, 2, 71, 0
2, 4725120, Note_on_c, 2, 73, 50
2, 4725840, Note_off_c, 2, 73, 0
2, 4725840, Note_on_c, 2, 71, 50
2, 4726800, Note_off_c, 2, 71, 0
2, 4726800, Note_on_c, 2, 64, 50
2, 4727280, Note_off_c, 2, 64, 0
2, 4727280, Note_on_c, 2, 71, 50
2, 4728000, Note_off_c, 2, 71, 0
2, 4728000, Note_on_c, 2, 68, 50
2, 4728240, Note_off_c, 2, 68, 0
2, 4728240, Note_on_c, 2, 66, 50
2, 4729200, Note_off_c, 2, 66, 0
2, 4730640, Note_on_c, 2, 71, 50
2, 4731120, Note_off_c, 2, 71, 0
2, 4731120, Note_on_c, 2, 73, 50
2, 4731600, Note_off_c, 2, 73, 0
2, 4731600, Note_on_c, 2, 73, 50
2, 4732080, Note_off_c, 2, 73, 0
2, 4732080, Note_on_c, 2, 73, 50
2, 4732560, Note_off_c, 2, 73, 0
2, 4732560, Note_on_c, 2, 73, 50
2, 4732800, Note_off_c, 2, 73, 0
2, 4732800, Note_on_c, 2, 72, 50
2, 4734000, Note_off_c, 2, 72, 0
2, 4734720, Note_on_c, 2, 68, 50
2, 4734960, Note_off_c, 2, 68, 0
2, 4734960, Note_on_c, 2, 69, 50
2, 4735440, Note_off_c, 2, 69, 0
2, 4735440, Note_on_c, 2, 71, 50
2, 4735920, Note_off_c, 2, 71, 0
2, 4735920, Note_on_c, 2, 73, 50
2, 4736160, Note_off_c, 2, 73, 0
2, 4736160, Note_on_c, 2, 76, 50
2, 4736640, Note_off_c, 2, 76, 0
2, 4736640, Note_on_c, 2, 75, 50
2, 4737600, Note_off_c, 2, 75, 0
2, 4737840, Note_on_c, 2, 68, 50
2, 4738080, Note_off_c, 2, 68, 0
2, 4738080, Note_on_c, 2, 69, 50
2, 4738560, Note_off_c, 2, 69, 0
2, 4738560, Note_on_c, 2, 71, 50
2, 4739280, Note_off_c, 2, 71, 0
2, 4739280, Note_on_c, 2, 71, 50
2, 4739760, Note_off_c, 2, 71, 0
2, 4739760, Note_on_c, 2, 71, 50
2, 4740000, Note_off_c, 2, 71, 0
2, 4740000, Note_on_c, 2, 71, 50
2, 4740480, Note_off_c, 2, 71, 0
2, 4740480, Note_on_c, 2, 73, 50
2, 4741200, Note_off_c, 2, 73, 0
2, 4741200, Note_on_c, 2, 71, 50
2, 4741680, Note_off_c, 2, 71, 0
2, 4741680, Note_on_c, 2, 71, 50
2, 4742160, Note_off_c, 2, 71, 0
2, 4742160, Note_on_c, 2, 69, 50
2, 4742400, Note_off_c, 2, 69, 0
2, 4742400, Note_on_c, 2, 71, 50
2, 4743360, Note_off_c, 2, 71, 0
2, 4743360, Note_on_c, 2, 69, 50
2, 4743600, Note_off_c, 2, 69, 0
2, 4743600, Note_on_c, 2, 68, 50
2, 4744560, Note_off_c, 2, 68, 0
2, 4746240, Note_on_c, 2, 68, 50
2, 4746480, Note_off_c, 2, 68, 0
2, 4746480, Note_on_c, 2, 71, 50
2, 4746960, Note_off_c, 2, 71, 0
2, 4746960, Note_on_c, 2, 71, 50
2, 4747200, Note_off_c, 2, 71, 0
2, 4747200, Note_on_c, 2, 71, 50
2, 4747920, Note_off_c, 2, 71, 0
2, 4747920, Note_on_c, 2, 71, 50
2, 4748160, Note_off_c, 2, 71, 0
2, 4748160, Note_on_c, 2, 73, 50
2, 4748880, Note_off_c, 2, 73, 0
2, 4748880, Note_on_c, 2, 71, 50
2, 4749360, Note_off_c, 2, 71, 0
2, 4749360, Note_on_c, 2, 71, 50
2, 4749600, Note_off_c, 2, 71, 0
2, 4749600, Note_on_c, 2, 69, 50
2, 4750080, Note_off_c, 2, 69, 0
2, 4750080, Note_on_c, 2, 71, 50
2, 4751760, Note_off_c, 2, 71, 0
2, 4753200, Note_on_c, 2, 68, 50
2, 4753680, Note_off_c, 2, 68, 0
2, 4753680, Note_on_c, 2, 69, 50
2, 4753920, Note_off_c, 2, 69, 0
2, 4753920, Note_on_c, 2, 71, 50
2, 4754640, Note_off_c, 2, 71, 0
2, 4754640, Note_on_c, 2, 71, 50
2, 4755120, Note_off_c, 2, 71, 0
2, 4755120, Note_on_c, 2, 71, 50
2, 4755360, Note_off_c, 2, 71, 0
2, 4755360, Note_on_c, 2, 71, 50
2, 4755840, Note_off_c, 2, 71, 0
2, 4755840, Note_on_c, 2, 73, 50
2, 4756560, Note_off_c, 2, 73, 0
2, 4756560, Note_on_c, 2, 71, 50
2, 4757040, Note_off_c, 2, 71, 0
2, 4757040, Note_on_c, 2, 69, 50
2, 4757520, Note_off_c, 2, 69, 0
2, 4757520, Note_on_c, 2, 68, 50
2, 4758000, Note_off_c, 2, 68, 0
2, 4758000, Note_on_c, 2, 71, 50
2, 4758720, Note_off_c, 2, 71, 0
2, 4758720, Note_on_c, 2, 68, 50
2, 4758960, Note_off_c, 2, 68, 0
2, 4758960, Note_on_c, 2, 66, 50
2, 4759920, Note_off_c, 2, 66, 0
2, 4761360, Note_on_c, 2, 71, 50
2, 4761840, Note_off_c, 2, 71, 0
2, 4761840, Note_on_c, 2, 73, 50
2, 4762320, Note_off_c, 2, 73, 0
2, 4762320, Note_on_c, 2, 73, 50
2, 4762800, Note_off_c, 2, 73, 0
2, 4762800, Note_on_c, 2, 73, 50
2, 4763280, Note_off_c, 2, 73, 0
2, 4763280, Note_on_c, 2, 73, 50
2, 4763520, Note_off_c, 2, 73, 0
2, 4763520, Note_on_c, 2, 72, 50
2, 4764720, Note_off_c, 2, 72, 0
2, 4765440, Note_on_c, 2, 68, 50
2, 4765680, Note_off_c, 2, 68, 0
2, 4765680, Note_on_c, 2, 69, 50
2, 4766160, Note_off_c, 2, 69, 0
2, 4766160, Note_on_c, 2, 71, 50
2, 4766640, Note_off_c, 2, 71, 0
2, 4766640, Note_on_c, 2, 73, 50
2, 4766880, Note_off_c, 2, 73, 0
2, 4766880, Note_on_c, 2, 76, 50
2, 4767360, Note_off_c, 2, 76, 0
2, 4767360, Note_on_c, 2, 75, 50
2, 4768320, Note_off_c, 2, 75, 0
2, 4769280, Note_on_c, 2, 71, 50
2, 4769520, Note_off_c, 2, 71, 0
2, 4769520, Note_on_c, 2, 71, 50
2, 4770000, Note_off_c, 2, 71, 0
2, 4770000, Note_on_c, 2, 71, 50
2, 4770480, Note_off_c, 2, 71, 0
2, 4770480, Note_on_c, 2, 71, 50
2, 4770720, Note_off_c, 2, 71, 0
2, 4770720, Note_on_c, 2, 71, 50
2, 4771200, Note_off_c, 2, 71, 0
2, 4771200, Note_on_c, 2, 73, 50
2, 4771920, Note_off_c, 2, 73, 0
2, 4771920, Note_on_c, 2, 71, 50
2, 4772400, Note_off_c, 2, 71, 0
2, 4772400, Note_on_c, 2, 71, 50
2, 4772880, Note_off_c, 2, 71, 0
2, 4772880, Note_on_c, 2, 69, 50
2, 4773120, Note_off_c, 2, 69, 0
2, 4773120, Note_on_c, 2, 71, 50
2, 4774080, Note_off_c, 2, 71, 0
2, 4774080, Note_on_c, 2, 69, 50
2, 4774320, Note_off_c, 2, 69, 0
2, 4774320, Note_on_c, 2, 68, 50
2, 4775280, Note_off_c, 2, 68, 0
2, 4776240, Note_on_c, 2, 68, 50
2, 4776720, Note_off_c, 2, 68, 0
2, 4776720, Note_on_c, 2, 71, 50
2, 4776960, Note_off_c, 2, 71, 0
2, 4776960, Note_on_c, 2, 76, 50
2, 4777680, Note_off_c, 2, 76, 0
2, 4777680, Note_on_c, 2, 76, 50
2, 4778160, Note_off_c, 2, 76, 0
2, 4778160, Note_on_c, 2, 76, 50
2, 4778640, Note_off_c, 2, 76, 0
2, 4778640, Note_on_c, 2, 78, 50
2, 4778880, Note_off_c, 2, 78, 0
2, 4778880, Note_on_c, 2, 76, 50
2, 4780560, Note_off_c, 2, 76, 0
2, 4781040, Note_on_c, 2, 76, 50
2, 4782960, Note_off_c, 2, 76, 0
2, 4782960, Note_on_c, 2, 73, 50
2, 4784880, Note_off_c, 2, 73, 0
2, 4784880, Note_on_c, 2, 76, 50
2, 4786800, Note_off_c, 2, 76, 0
2, 4786800, Note_on_c, 2, 75, 50
2, 4787520, Note_off_c, 2, 75, 0
2, 4787760, Note_on_c, 2, 69, 50
2, 4788000, Note_off_c, 2, 69, 0
2, 4788000, Note_on_c, 2, 71, 50
2, 4788480, Note_off_c, 2, 71, 0
2, 4788480, Note_on_c, 2, 76, 50
2, 4789200, Note_off_c, 2, 76, 0
2, 4789200, Note_on_c, 2, 76, 50
2, 4789440, Note_off_c, 2, 76, 0
2, 4789440, Note_on_c, 2, 76, 50
2, 4790160, Note_off_c, 2, 76, 0
2, 4790160, Note_on_c, 2, 78, 50
2, 4790400, Note_off_c, 2, 78, 0
2, 4790400, Note_on_c, 2, 76, 50
2, 4792080, Note_off_c, 2, 76, 0
2, 4792560, Note_on_c, 2, 76, 50
2, 4794480, Note_off_c, 2, 76, 0
2, 4794480, Note_on_c, 2, 73, 50
2, 4796400, Note_off_c, 2, 73, 0
2, 4796400, Note_on_c, 2, 76, 50
2, 4797600, Note_off_c, 2, 76, 0
2, 4797600, Note_on_c, 2, 78, 50
2, 4797840, Note_off_c, 2, 78, 0
2, 4797840, Note_on_c, 2, 76, 50
2, 4798320, Note_off_c, 2, 76, 0
2, 4798320, Note_on_c, 2, 75, 50
2, 4799040, Note_off_c, 2, 75, 0
2, 4799280, Note_on_c, 2, 68, 50
2, 4799760, Note_off_c, 2, 68, 0
2, 4799760, Note_on_c, 2, 69, 50
2, 4800240, Note_off_c, 2, 69, 0
2, 4800240, Note_on_c, 2, 71, 50
2, 4800720, Note_off_c, 2, 71, 0
2, 4800720, Note_on_c, 2, 71, 50
2, 4800960, Note_off_c, 2, 71, 0
2, 4800960, Note_on_c, 2, 71, 50
2, 4801680, Note_off_c, 2, 71, 0
2, 4801680, Note_on_c, 2, 71, 50
2, 4801920, Note_off_c, 2, 71, 0
2, 4801920, Note_on_c, 2, 73, 50
2, 4802640, Note_off_c, 2, 73, 0
2, 4802640, Note_on_c, 2, 71, 50
2, 4803120, Note_off_c, 2, 71, 0
2, 4803120, Note_on_c, 2, 71, 50
2, 4803360, Note_off_c, 2, 71, 0
2, 4803360, Note_on_c, 2, 69, 50
2, 4803840, Note_off_c, 2, 69, 0
2, 4803840, Note_on_c, 2, 71, 50
2, 4805520, Note_off_c, 2, 71, 0
2, 4806960, Note_on_c, 2, 68, 50
2, 4807440, Note_off_c, 2, 68, 0
2, 4807440, Note_on_c, 2, 69, 50
2, 4807680, Note_off_c, 2, 69, 0
2, 4807680, Note_on_c, 2, 71, 50
2, 4808400, Note_off_c, 2, 71, 0
2, 4808400, Note_on_c, 2, 71, 50
2, 4808880, Note_off_c, 2, 71, 0
2, 4808880, Note_on_c, 2, 71, 50
2, 4809120, Note_off_c, 2, 71, 0
2, 4809120, Note_on_c, 2, 71, 50
2, 4809600, Note_off_c, 2, 71, 0
2, 4809600, Note_on_c, 2, 73, 50
2, 4810320, Note_off_c, 2, 73, 0
2, 4810320, Note_on_c, 2, 71, 50
2, 4811280, Note_off_c, 2, 71, 0
2, 4811280, Note_on_c, 2, 68, 50
2, 4812720, Note_off_c, 2, 68, 0
2, 4812720, Note_on_c, 2, 66, 50
2, 4813680, Note_off_c, 2, 66, 0
2, 4815120, Note_on_c, 2, 71, 50
2, 4815600, Note_off_c, 2, 71, 0
2, 4815600, Note_on_c, 2, 73, 50
2, 4816080, Note_off_c, 2, 73, 0
2, 4816080, Note_on_c, 2, 73, 50
2, 4816560, Note_off_c, 2, 73, 0
2, 4816560, Note_on_c, 2, 73, 50
2, 4817040, Note_off_c, 2, 73, 0
2, 4817040, Note_on_c, 2, 73, 50
2, 4817280, Note_off_c, 2, 73, 0
2, 4817280, Note_on_c, 2, 72, 50
2, 4818480, Note_off_c, 2, 72, 0
2, 4819200, Note_on_c, 2, 68, 50
2, 4819440, Note_off_c, 2, 68, 0
2, 4819440, Note_on_c, 2, 69, 50
2, 4819920, Note_off_c, 2, 69, 0
2, 4819920, Note_on_c, 2, 71, 50
2, 4820400, Note_off_c, 2, 71, 0
2, 4820400, Note_on_c, 2, 73, 50
2, 4820640, Note_off_c, 2, 73, 0
2, 4820640, Note_on_c, 2, 76, 50
2, 4821120, Note_off_c, 2, 76, 0
2, 4821120, Note_on_c, 2, 75, 50
2, 4822080, Note_off_c, 2, 75, 0
2, 4822320, Note_on_c, 2, 68, 50
2, 4822560, Note_off_c, 2, 68, 0
2, 4822560, Note_on_c, 2, 69, 50
2, 4823040, Note_off_c, 2, 69, 0
2, 4823040, Note_on_c, 2, 71, 50
2, 4823760, Note_off_c, 2, 71, 0
2, 4823760, Note_on_c, 2, 71, 50
2, 4824240, Note_off_c, 2, 71, 0
2, 4824240, Note_on_c, 2, 71, 50
2, 4824480, Note_off_c, 2, 71, 0
2, 4824480, Note_on_c, 2, 71, 50
2, 4824960, Note_off_c, 2, 71, 0
2, 4824960, Note_on_c, 2, 73, 50
2, 4825680, Note_off_c, 2, 73, 0
2, 4825680, Note_on_c, 2, 71, 50
2, 4826160, Note_off_c, 2, 71, 0
2, 4826160, Note_on_c, 2, 71, 50
2, 4826640, Note_off_c, 2, 71, 0
2, 4826640, Note_on_c, 2, 69, 50
2, 4826880, Note_off_c, 2, 69, 0
2, 4826880, Note_on_c, 2, 71, 50
2, 4827840, Note_off_c, 2, 71, 0
2, 4827840, Note_on_c, 2, 69, 50
2, 4828080, Note_off_c, 2, 69, 0
2, 4828080, Note_on_c, 2, 68, 50
2, 4829040, Note_off_c, 2, 68, 0
2, 4860720, Note_on_c, 2, 68, 50
2, 4861200, Note_off_c, 2, 68, 0
2, 4861200, Note_on_c, 2, 71, 50
2, 4861440, Note_off_c, 2, 71, 0
2, 4861440, Note_on_c, 2, 76, 50
2, 4862160, Note_off_c, 2, 76, 0
2, 4862160, Note_on_c, 2, 76, 50
2, 4862640, Note_off_c, 2, 76, 0
2, 4862640, Note_on_c, 2, 76, 50
2, 4863120, Note_off_c, 2, 76, 0
2, 4863120, Note_on_c, 2, 78, 50
2, 4863360, Note_off_c, 2, 78, 0
2, 4863360, Note_on_c, 2, 76, 50
2, 4865040, Note_off_c, 2, 76, 0
2, 4865520, Note_on_c, 2, 76, 50
2, 4867440, Note_off_c, 2, 76, 0
2, 4867440, Note_on_c, 2, 73, 50
2, 4869360, Note_off_c, 2, 73, 0
2, 4869360, Note_on_c, 2, 76, 50
2, 4871280, Note_off_c, 2, 76, 0
2, 4871280, Note_on_c, 2, 75, 50
2, 4872000, Note_off_c, 2, 75, 0
2, 4872240, Note_on_c, 2, 69, 50
2, 4872480, Note_off_c, 2, 69, 0
2, 4872480, Note_on_c, 2, 71, 50
2, 4872960, Note_off_c, 2, 71, 0
2, 4872960, Note_on_c, 2, 76, 50
2, 4873680, Note_off_c, 2, 76, 0
2, 4873680, Note_on_c, 2, 76, 50
2, 4873920, Note_off_c, 2, 76, 0
2, 4873920, Note_on_c, 2, 76, 50
2, 4874640, Note_off_c, 2, 76, 0
2, 4874640, Note_on_c, 2, 78, 50
2, 4874880, Note_off_c, 2, 78, 0
2, 4874880, Note_on_c, 2, 76, 50
2, 4876560, Note_off_c, 2, 76, 0
2, 4877040, Note_on_c, 2, 76, 50
2, 4878960, Note_off_c, 2, 76, 0
2, 4878960, Note_on_c, 2, 73, 50
2, 4880880, Note_off_c, 2, 73, 0
2, 4880880, Note_on_c, 2, 76, 50
2, 4882080, Note_off_c, 2, 76, 0
2, 4882080, Note_on_c, 2, 78, 50
2, 4882320, Note_off_c, 2, 78, 0
2, 4882320, Note_on_c, 2, 76, 50
2, 4882800, Note_off_c, 2, 76, 0
2, 4882800, Note_on_c, 2, 75, 50
2, 4883520, Note_off_c, 2, 75, 0
2, 4884480, Note_on_c, 2, 68, 50
2, 4884720, Note_off_c, 2, 68, 0
2, 4884720, Note_on_c, 2, 71, 50
2, 4885200, Note_off_c, 2, 71, 0
2, 4885200, Note_on_c, 2, 71, 50
2, 4885440, Note_off_c, 2, 71, 0
2, 4885440, Note_on_c, 2, 71, 50
2, 4886160, Note_off_c, 2, 71, 0
2, 4886160, Note_on_c, 2, 71, 50
2, 4886400, Note_off_c, 2, 71, 0
2, 4886400, Note_on_c, 2, 73, 50
2, 4887120, Note_off_c, 2, 73, 0
2, 4887120, Note_on_c, 2, 71, 50
2, 4887600, Note_off_c, 2, 71, 0
2, 4887600, Note_on_c, 2, 71, 50
2, 4887840, Note_off_c, 2, 71, 0
2, 4887840, Note_on_c, 2, 69, 50
2, 4888320, Note_off_c, 2, 69, 0
2, 4888320, Note_on_c, 2, 71, 50
2, 4890000, Note_off_c, 2, 71, 0
2, 4891440, Note_on_c, 2, 68, 50
2, 4891920, Note_off_c, 2, 68, 0
2, 4891920, Note_on_c, 2, 69, 50
2, 4892160, Note_off_c, 2, 69, 0
2, 4892160, Note_on_c, 2, 71, 50
2, 4892880, Note_off_c, 2, 71, 0
2, 4892880, Note_on_c, 2, 71, 50
2, 4893360, Note_off_c, 2, 71, 0
2, 4893360, Note_on_c, 2, 71, 50
2, 4893600, Note_off_c, 2, 71, 0
2, 4893600, Note_on_c, 2, 71, 50
2, 4894080, Note_off_c, 2, 71, 0
2, 4894080, Note_on_c, 2, 73, 50
2, 4894800, Note_off_c, 2, 73, 0
2, 4894800, Note_on_c, 2, 71, 50
2, 4895280, Note_off_c, 2, 71, 0
2, 4895280, Note_on_c, 2, 69, 50
2, 4895760, Note_off_c, 2, 69, 0
2, 4895760, Note_on_c, 2, 68, 50
2, 4896240, Note_off_c, 2, 68, 0
2, 4896240, Note_on_c, 2, 71, 50
2, 4896960, Note_off_c, 2, 71, 0
2, 4896960, Note_on_c, 2, 68, 50
2, 4897200, Note_off_c, 2, 68, 0
2, 4897200, Note_on_c, 2, 66, 50
2, 4898160, Note_off_c, 2, 66, 0
2, 4899600, Note_on_c, 2, 71, 50
2, 4900080, Note_off_c, 2, 71, 0
2, 4900080, Note_on_c, 2, 73, 50
2, 4900560, Note_off_c, 2, 73, 0
2, 4900560, Note_on_c, 2, 73, 50
2, 4901040, Note_off_c, 2, 73, 0
2, 4901040, Note_on_c, 2, 73, 50
2, 4901520, Note_off_c, 2, 73, 0
2, 4901520, Note_on_c, 2, 73, 50
2, 4901760, Note_off_c, 2, 73, 0
2, 4901760, Note_on_c, 2, 72, 50
2, 4902960, Note_off_c, 2, 72, 0
2, 4903680, Note_on_c, 2, 68, 50
2, 4903920, Note_off_c, 2, 68, 0
2, 4903920, Note_on_c, 2, 69, 50
2, 4904400, Note_off_c, 2, 69, 0
2, 4904400, Note_on_c, 2, 71, 50
2, 4904880, Note_off_c, 2, 71, 0
2, 4904880, Note_on_c, 2, 73, 50
2, 4905120, Note_off_c, 2, 73, 0
2, 4905120, Note_on_c, 2, 76, 50
2, 4905600, Note_off_c, 2, 76, 0
2, 4905600, Note_on_c, 2, 75, 50
2, 4906560, Note_off_c, 2, 75, 0
2, 4907520, Note_on_c, 2, 71, 50
2, 4907760, Note_off_c, 2, 71, 0
2, 4907760, Note_on_c, 2, 71, 50
2, 4908240, Note_off_c, 2, 71, 0
2, 4908240, Note_on_c, 2, 71, 50
2, 4908720, Note_off_c, 2, 71, 0
2, 4908720, Note_on_c, 2, 71, 50
2, 4908960, Note_off_c, 2, 71, 0
2, 4908960, Note_on_c, 2, 71, 50
2, 4909440, Note_off_c, 2, 71, 0
2, 4909440, Note_on_c, 2, 73, 50
2, 4910160, Note_off_c, 2, 73, 0
2, 4910160, Note_on_c, 2, 71, 50
2, 4910640, Note_off_c, 2, 71, 0
2, 4910640, Note_on_c, 2, 71, 50
2, 4911120, Note_off_c, 2, 71, 0
2, 4911120, Note_on_c, 2, 69, 50
2, 4911360, Note_off_c, 2, 69, 0
2, 4911360, Note_on_c, 2, 71, 50
2, 4912320, Note_off_c, 2, 71, 0
2, 4912320, Note_on_c, 2, 69, 50
2, 4912560, Note_off_c, 2, 69, 0
2, 4912560, Note_on_c, 2, 68, 50
2, 4913520, Note_off_c, 2, 68, 0
2, 4932720, Note_on_c, 2, 42, 50
2, 4934640, Note_off_c, 2, 42, 0
2, 4934640, Note_on_c, 2, 47, 50
2, 4935120, Note_off_c, 2, 47, 0
2, 4935120, Note_on_c, 2, 59, 50
2, 4935600, Note_off_c, 2, 59, 0
2, 4935600, Note_on_c, 2, 59, 50
2, 4935960, Note_off_c, 2, 59, 0
2, 4935960, Note_on_c, 2, 57, 50
2, 4936080, Note_off_c, 2, 57, 0
2, 4936080, Note_on_c, 2, 54, 50
2, 4936440, Note_off_c, 2, 54, 0
2, 4936440, Note_on_c, 2, 64, 50
2, 4936920, Note_off_c, 2, 64, 0
2, 4936920, Note_on_c, 2, 63, 50
2, 4937400, Note_off_c, 2, 63, 0
2, 4937400, Note_on_c, 2, 61, 50
2, 4937880, Note_off_c, 2, 61, 0
2, 4937880, Note_on_c, 2, 63, 50
2, 4938000, Note_off_c, 2, 63, 0
2, 4938000, Note_on_c, 2, 61, 50
2, 4938480, Note_off_c, 2, 61, 0
2, 4938480, Note_on_c, 2, 45, 50
2, 4938960, Note_off_c, 2, 45, 0
2, 4938960, Note_on_c, 2, 57, 50
2, 4939440, Note_off_c, 2, 57, 0
2, 4939440, Note_on_c, 2, 57, 50
2, 4939800, Note_off_c, 2, 57, 0
2, 4939800, Note_on_c, 2, 55, 50
2, 4939920, Note_off_c, 2, 55, 0
2, 4939920, Note_on_c, 2, 52, 50
2, 4940280, Note_off_c, 2, 52, 0
2, 4940280, Note_on_c, 2, 62, 50
2, 4940760, Note_off_c, 2, 62, 0
2, 4940760, Note_on_c, 2, 61, 50
2, 4941240, Note_off_c, 2, 61, 0
2, 4941240, Note_on_c, 2, 59, 50
2, 4941720, Note_off_c, 2, 59, 0
2, 4941720, Note_on_c, 2, 61, 50
2, 4941840, Note_off_c, 2, 61, 0
2, 4941840, Note_on_c, 2, 59, 50
2, 4942320, Note_off_c, 2, 59, 0
2, 4942320, Note_on_c, 2, 40, 50
2, 4942800, Note_off_c, 2, 40, 0
2, 4942800, Note_on_c, 2, 52, 50
2, 4943280, Note_off_c, 2, 52, 0
2, 4943280, Note_on_c, 2, 52, 50
2, 4943640, Note_off_c, 2, 52, 0
2, 4943640, Note_on_c, 2, 50, 50
2, 4943760, Note_off_c, 2, 50, 0
2, 4943760, Note_on_c, 2, 47, 50
2, 4944120, Note_off_c, 2, 47, 0
2, 4944120, Note_on_c, 2, 57, 50
2, 4944600, Note_off_c, 2, 57, 0
2, 4944600, Note_on_c, 2, 56, 50
2, 4945080, Note_off_c, 2, 56, 0
2, 4945080, Note_on_c, 2, 54, 50
2, 4945560, Note_off_c, 2, 54, 0
2, 4945560, Note_on_c, 2, 56, 50
2, 4945680, Note_off_c, 2, 56, 0
2, 4945680, Note_on_c, 2, 54, 50
2, 4946160, Note_off_c, 2, 54, 0
2, 4946160, Note_on_c, 2, 40, 50
2, 4946640, Note_off_c, 2, 40, 0
2, 4946640, Note_on_c, 2, 52, 50
2, 4947120, Note_off_c, 2, 52, 0
2, 4947120, Note_on_c, 2, 52, 50
2, 4947480, Note_off_c, 2, 52, 0
2, 4947480, Note_on_c, 2, 50, 50
2, 4947600, Note_off_c, 2, 50, 0
2, 4947600, Note_on_c, 2, 47, 50
2, 4947960, Note_off_c, 2, 47, 0
2, 4947960, Note_on_c, 2, 57, 50
2, 4948440, Note_off_c, 2, 57, 0
2, 4948440, Note_on_c, 2, 56, 50
2, 4948920, Note_off_c, 2, 56, 0
2, 4948920, Note_on_c, 2, 54, 50
2, 4949400, Note_off_c, 2, 54, 0
2, 4949400, Note_on_c, 2, 56, 50
2, 4949520, Note_off_c, 2, 56, 0
2, 4949520, Note_on_c, 2, 54, 50
2, 4950000, Note_off_c, 2, 54, 0
2, 4950000, Note_on_c, 2, 40, 50
2, 4950480, Note_off_c, 2, 40, 0
2, 4950480, Note_on_c, 2, 52, 50
2, 4950960, Note_off_c, 2, 52, 0
2, 4950960, Note_on_c, 2, 52, 50
2, 4951320, Note_off_c, 2, 52, 0
2, 4951320, Note_on_c, 2, 50, 50
2, 4951440, Note_off_c, 2, 50, 0
2, 4951440, Note_on_c, 2, 47, 50
2, 4951800, Note_off_c, 2, 47, 0
2, 4951800, Note_on_c, 2, 57, 50
2, 4952280, Note_off_c, 2, 57, 0
2, 4952280, Note_on_c, 2, 56, 50
2, 4952760, Note_off_c, 2, 56, 0
2, 4952760, Note_on_c, 2, 54, 50
2, 4953240, Note_off_c, 2, 54, 0
2, 4953240, Note_on_c, 2, 56, 50
2, 4953360, Note_off_c, 2, 56, 0
2, 4953360, Note_on_c, 2, 54, 50
2, 4953840, Note_off_c, 2, 54, 0
2, 4953840, Note_on_c, 2, 40, 50
2, 4954320, Note_off_c, 2, 40, 0
2, 4954320, Note_on_c, 2, 52, 50
2, 4954800, Note_off_c, 2, 52, 0
2, 4954800, Note_on_c, 2, 52, 50
2, 4955160, Note_off_c, 2, 52, 0
2, 4955160, Note_on_c, 2, 50, 50
2, 4955280, Note_off_c, 2, 50, 0
2, 4955280, Note_on_c, 2, 47, 50
2, 4955640, Note_off_c, 2, 47, 0
2, 4955640, Note_on_c, 2, 57, 50
2, 4956120, Note_off_c, 2, 57, 0
2, 4956120, Note_on_c, 2, 56, 50
2, 4956600, Note_off_c, 2, 56, 0
2, 4956600, Note_on_c, 2, 54, 50
2, 4957080, Note_off_c, 2, 54, 0
2, 4957080, Note_on_c, 2, 56, 50
2, 4957200, Note_off_c, 2, 56, 0
2, 4957200, Note_on_c, 2, 54, 50
2, 4957680, Note_off_c, 2, 54, 0
2, 4957680, Note_on_c, 2, 47, 50
2, 4958160, Note_off_c, 2, 47, 0
2, 4958160, Note_on_c, 2, 59, 50
2, 4958640, Note_off_c, 2, 59, 0
2, 4958640, Note_on_c, 2, 59, 50
2, 4959000, Note_off_c, 2, 59, 0
2, 4959000, Note_on_c, 2, 57, 50
2, 4959120, Note_off_c, 2, 57, 0
2, 4959120, Note_on_c, 2, 54, 50
2, 4959480, Note_off_c, 2, 54, 0
2, 4959480, Note_on_c, 2, 64, 50
2, 4959960, Note_off_c, 2, 64, 0
2, 4959960, Note_on_c, 2, 63, 50
2, 4960440, Note_off_c, 2, 63, 0
2, 4960440, Note_on_c, 2, 61, 50
2, 4960920, Note_off_c, 2, 61, 0
2, 4960920, Note_on_c, 2, 63, 50
2, 4961040, Note_off_c, 2, 63, 0
2, 4961040, Note_on_c, 2, 61, 50
2, 4961520, Note_off_c, 2, 61, 0
2, 4961520, Note_on_c, 2, 47, 50
2, 4961880, Note_off_c, 2, 47, 0
2, 4962000, Note_on_c, 2, 59, 50
2, 4962360, Note_off_c, 2, 59, 0
2, 4962480, Note_on_c, 2, 54, 50
2, 4963320, Note_off_c, 2, 54, 0
2, 4963320, Note_on_c, 2, 61, 50
2, 4963920, Note_off_c, 2, 61, 0
2, 4963920, Note_on_c, 2, 61, 50
2, 4964400, Note_off_c, 2, 61, 0
2, 4964400, Note_on_c, 2, 45, 50
2, 4964760, Note_off_c, 2, 45, 0
2, 4964760, Note_on_c, 2, 50, 50
2, 4965120, Note_off_c, 2, 50, 0
2, 4965240, Note_on_c, 2, 40, 50
2, 4965840, Note_off_c, 2, 40, 0
2, 4965840, Note_on_c, 2, 52, 50
2, 4966680, Note_off_c, 2, 52, 0
2, 4966680, Note_on_c, 2, 50, 50
2, 4966800, Note_off_c, 2, 50, 0
2, 4966800, Note_on_c, 2, 47, 50
2, 4967160, Note_off_c, 2, 47, 0
2, 4967160, Note_on_c, 2, 57, 50
2, 4967640, Note_off_c, 2, 57, 0
2, 4967640, Note_on_c, 2, 56, 50
2, 4968120, Note_off_c, 2, 56, 0
2, 4968120, Note_on_c, 2, 54, 50
2, 4968600, Note_off_c, 2, 54, 0
2, 4968600, Note_on_c, 2, 56, 50
2, 4968720, Note_off_c, 2, 56, 0
2, 4968720, Note_on_c, 2, 54, 50
2, 4969200, Note_off_c, 2, 54, 0
2, 4969200, Note_on_c, 2, 40, 50
2, 4969680, Note_off_c, 2, 40, 0
2, 4969680, Note_on_c, 2, 52, 50
2, 4970160, Note_off_c, 2, 52, 0
2, 4970160, Note_on_c, 2, 52, 50
2, 4970520, Note_off_c, 2, 52, 0
2, 4970520, Note_on_c, 2, 50, 50
2, 4970640, Note_off_c, 2, 50, 0
2, 4970640, Note_on_c, 2, 47, 50
2, 4971000, Note_off_c, 2, 47, 0
2, 4971000, Note_on_c, 2, 57, 50
2, 4971480, Note_off_c, 2, 57, 0
2, 4971480, Note_on_c, 2, 56, 50
2, 4971960, Note_off_c, 2, 56, 0
2, 4971960, Note_on_c, 2, 54, 50
2, 4972440, Note_off_c, 2, 54, 0
2, 4972440, Note_on_c, 2, 56, 50
2, 4972560, Note_off_c, 2, 56, 0
2, 4972560, Note_on_c, 2, 54, 50
2, 4973040, Note_off_c, 2, 54, 0
2, 4973040, Note_on_c, 2, 40, 50
2, 4973520, Note_off_c, 2, 40, 0
2, 4973520, Note_on_c, 2, 52, 50
2, 4974000, Note_off_c, 2, 52, 0
2, 4974000, Note_on_c, 2, 52, 50
2, 4974360, Note_off_c, 2, 52, 0
2, 4974360, Note_on_c, 2, 50, 50
2, 4974480, Note_off_c, 2, 50, 0
2, 4974480, Note_on_c, 2, 47, 50
2, 4974840, Note_off_c, 2, 47, 0
2, 4974840, Note_on_c, 2, 57, 50
2, 4975320, Note_off_c, 2, 57, 0
2, 4975320, Note_on_c, 2, 56, 50
2, 4975800, Note_off_c, 2, 56, 0
2, 4975800, Note_on_c, 2, 54, 50
2, 4976280, Note_off_c, 2, 54, 0
2, 4976280, Note_on_c, 2, 56, 50
2, 4976400, Note_off_c, 2, 56, 0
2, 4976400, Note_on_c, 2, 54, 50
2, 4976880, Note_off_c, 2, 54, 0
2, 4976880, Note_on_c, 2, 47, 50
2, 4977360, Note_off_c, 2, 47, 0
2, 4977360, Note_on_c, 2, 59, 50
2, 4977840, Note_off_c, 2, 59, 0
2, 4977840, Note_on_c, 2, 59, 50
2, 4978200, Note_off_c, 2, 59, 0
2, 4978200, Note_on_c, 2, 57, 50
2, 4978320, Note_off_c, 2, 57, 0
2, 4978320, Note_on_c, 2, 54, 50
2, 4978680, Note_off_c, 2, 54, 0
2, 4978680, Note_on_c, 2, 64, 50
2, 4979160, Note_off_c, 2, 64, 0
2, 4979160, Note_on_c, 2, 63, 50
2, 4979640, Note_off_c, 2, 63, 0
2, 4979640, Note_on_c, 2, 61, 50
2, 4980120, Note_off_c, 2, 61, 0
2, 4980120, Note_on_c, 2, 63, 50
2, 4980240, Note_off_c, 2, 63, 0
2, 4980240, Note_on_c, 2, 61, 50
2, 4980720, Note_off_c, 2, 61, 0
2, 4980720, Note_on_c, 2, 47, 50
2, 4981080, Note_off_c, 2, 47, 0
2, 4981200, Note_on_c, 2, 59, 50
2, 4981560, Note_off_c, 2, 59, 0
2, 4981680, Note_on_c, 2, 54, 50
2, 4982520, Note_off_c, 2, 54, 0
2, 4982520, Note_on_c, 2, 61, 50
2, 4983120, Note_off_c, 2, 61, 0
2, 4983120, Note_on_c, 2, 61, 50
2, 4983600, Note_off_c, 2, 61, 0
2, 4983600, Note_on_c, 2, 45, 50
2, 4983960, Note_off_c, 2, 45, 0
2, 4983960, Note_on_c, 2, 50, 50
2, 4984320, Note_off_c, 2, 50, 0
2, 4984440, Note_on_c, 2, 40, 50
2, 4985040, Note_off_c, 2, 40, 0
2, 4985040, Note_on_c, 2, 52, 50
2, 4985520, Note_off_c, 2, 52, 0
2, 4985520, Note_on_c, 2, 52, 50
2, 4985880, Note_off_c, 2, 52, 0
2, 4985880, Note_on_c, 2, 50, 50
2, 4986000, Note_off_c, 2, 50, 0
2, 4986000, Note_on_c, 2, 47, 50
2, 4986360, Note_off_c, 2, 47, 0
2, 4986360, Note_on_c, 2, 57, 50
2, 4986840, Note_off_c, 2, 57, 0
2, 4986840, Note_on_c, 2, 56, 50
2, 4987320, Note_off_c, 2, 56, 0
2, 4987320, Note_on_c, 2, 54, 50
2, 4987800, Note_off_c, 2, 54, 0
2, 4987800, Note_on_c, 2, 56, 50
2, 4987920, Note_off_c, 2, 56, 0
2, 4987920, Note_on_c, 2, 54, 50
2, 4988400, Note_off_c, 2, 54, 0
2, 4988400, Note_on_c, 2, 40, 50
2, 4988880, Note_off_c, 2, 40, 0
2, 4988880, Note_on_c, 2, 52, 50
2, 4989240, Note_off_c, 2, 52, 0
2, 4989240, Note_on_c, 2, 47, 50
2, 4989360, Note_off_c, 2, 47, 0
2, 4989360, Note_on_c, 2, 40, 50
2, 4989720, Note_off_c, 2, 40, 0
2, 4989720, Note_on_c, 2, 56, 50
2, 4989840, Note_off_c, 2, 56, 0
2, 4990320, Note_on_c, 2, 44, 50
2, 4990800, Note_off_c, 2, 44, 0
2, 4990800, Note_on_c, 2, 56, 50
2, 4991160, Note_off_c, 2, 56, 0
2, 4991160, Note_on_c, 2, 51, 50
2, 4991280, Note_off_c, 2, 51, 0
2, 4991280, Note_on_c, 2, 44, 50
2, 4991640, Note_off_c, 2, 44, 0
2, 4991640, Note_on_c, 2, 56, 50
2, 4991760, Note_off_c, 2, 56, 0
2, 4992240, Note_on_c, 2, 45, 50
2, 4992720, Note_off_c, 2, 45, 0
2, 4992720, Note_on_c, 2, 52, 50
2, 4993080, Note_off_c, 2, 52, 0
2, 4993080, Note_on_c, 2, 49, 50
2, 4993200, Note_off_c, 2, 49, 0
2, 4993200, Note_on_c, 2, 56, 50
2, 4993560, Note_off_c, 2, 56, 0
2, 4993560, Note_on_c, 2, 56, 50
2, 4993680, Note_off_c, 2, 56, 0
2, 4994160, Note_on_c, 2, 47, 50
2, 4994640, Note_off_c, 2, 47, 0
2, 4994640, Note_on_c, 2, 54, 50
2, 4995000, Note_off_c, 2, 54, 0
2, 4995000, Note_on_c, 2, 51, 50
2, 4995120, Note_off_c, 2, 51, 0
2, 4995120, Note_on_c, 2, 47, 50
2, 4995480, Note_off_c, 2, 47, 0
2, 4995480, Note_on_c, 2, 54, 50
2, 4995600, Note_off_c, 2, 54, 0
2, 4996080, Note_on_c, 2, 40, 50
2, 4996560, Note_off_c, 2, 40, 0
2, 4996560, Note_on_c, 2, 52, 50
2, 4996920, Note_off_c, 2, 52, 0
2, 4996920, Note_on_c, 2, 47, 50
2, 4997040, Note_off_c, 2, 47, 0
2, 4997040, Note_on_c, 2, 40, 50
2, 4997400, Note_off_c, 2, 40, 0
2, 4997400, Note_on_c, 2, 56, 50
2, 4997520, Note_off_c, 2, 56, 0
2, 4998000, Note_on_c, 2, 44, 50
2, 4998480, Note_off_c, 2, 44, 0
2, 4998480, Note_on_c, 2, 56, 50
2, 4998840, Note_off_c, 2, 56, 0
2, 4998840, Note_on_c, 2, 51, 50
2, 4998960, Note_off_c, 2, 51, 0
2, 4998960, Note_on_c, 2, 44, 50
2, 4999320, Note_off_c, 2, 44, 0
2, 4999320, Note_on_c, 2, 56, 50
2, 4999440, Note_off_c, 2, 56, 0
2, 5000400, Note_on_c, 2, 54, 50
2, 5000880, Note_off_c, 2, 54, 0
2, 5000880, Note_on_c, 2, 54, 50
2, 5001240, Note_off_c, 2, 54, 0
2, 5001240, Note_on_c, 2, 54, 50
2, 5001720, Note_off_c, 2, 54, 0
2, 5001720, Note_on_c, 2, 54, 50
2, 5001840, Note_off_c, 2, 54, 0
2, 5001840, Note_on_c, 2, 59, 50
2, 5002320, Note_off_c, 2, 59, 0
2, 5002320, Note_on_c, 2, 59, 50
2, 5002680, Note_off_c, 2, 59, 0
2, 5002680, Note_on_c, 2, 59, 50
2, 5002800, Note_off_c, 2, 59, 0
2, 5002800, Note_on_c, 2, 59, 50
2, 5003160, Note_off_c, 2, 59, 0
2, 5003160, Note_on_c, 2, 59, 50
2, 5003280, Note_off_c, 2, 59, 0
2, 5003760, Note_on_c, 2, 40, 50
2, 5004240, Note_off_c, 2, 40, 0
2, 5004240, Note_on_c, 2, 52, 50
2, 5004720, Note_off_c, 2, 52, 0
2, 5004720, Note_on_c, 2, 52, 50
2, 5005080, Note_off_c, 2, 52, 0
2, 5005080, Note_on_c, 2, 50, 50
2, 5005200, Note_off_c, 2, 50, 0
2, 5005200, Note_on_c, 2, 47, 50
2, 5005560, Note_off_c, 2, 47, 0
2, 5005560, Note_on_c, 2, 57, 50
2, 5006040, Note_off_c, 2, 57, 0
2, 5006040, Note_on_c, 2, 56, 50
2, 5006520, Note_off_c, 2, 56, 0
2, 5006520, Note_on_c, 2, 54, 50
2, 5007000, Note_off_c, 2, 54, 0
2, 5007000, Note_on_c, 2, 56, 50
2, 5007120, Note_off_c, 2, 56, 0
2, 5007120, Note_on_c, 2, 54, 50
2, 5007600, Note_off_c, 2, 54, 0
2, 5007600, Note_on_c, 2, 40, 50
2, 5008080, Note_off_c, 2, 40, 0
2, 5008080, Note_on_c, 2, 52, 50
2, 5008560, Note_off_c, 2, 52, 0
2, 5008560, Note_on_c, 2, 52, 50
2, 5008920, Note_off_c, 2, 52, 0
2, 5008920, Note_on_c, 2, 50, 50
2, 5009040, Note_off_c, 2, 50, 0
2, 5009040, Note_on_c, 2, 47, 50
2, 5009400, Note_off_c, 2, 47, 0
2, 5009400, Note_on_c, 2, 57, 50
2, 5009880, Note_off_c, 2, 57, 0
2, 5009880, Note_on_c, 2, 56, 50
2, 5010360, Note_off_c, 2, 56, 0
2, 5010360, Note_on_c, 2, 54, 50
2, 5010840, Note_off_c, 2, 54, 0
2, 5010840, Note_on_c, 2, 56, 50
2, 5010960, Note_off_c, 2, 56, 0
2, 5010960, Note_on_c, 2, 54, 50
2, 5011440, Note_off_c, 2, 54, 0
2, 5011440, Note_on_c, 2, 47, 50
2, 5011920, Note_off_c, 2, 47, 0
2, 5011920, Note_on_c, 2, 59, 50
2, 5012400, Note_off_c, 2, 59, 0
2, 5012400, Note_on_c, 2, 59, 50
2, 5012760, Note_off_c, 2, 59, 0
2, 5012760, Note_on_c, 2, 57, 50
2, 5012880, Note_off_c, 2, 57, 0
2, 5012880, Note_on_c, 2, 54, 50
2, 5013240, Note_off_c, 2, 54, 0
2, 5013240, Note_on_c, 2, 64, 50
2, 5013720, Note_off_c, 2, 64, 0
2, 5013720, Note_on_c, 2, 63, 50
2, 5014200, Note_off_c, 2, 63, 0
2, 5014200, Note_on_c, 2, 61, 50
2, 5014680, Note_off_c, 2, 61, 0
2, 5014680, Note_on_c, 2, 63, 50
2, 5014800, Note_off_c, 2, 63, 0
2, 5014800, Note_on_c, 2, 61, 50
2, 5015280, Note_off_c, 2, 61, 0
2, 5015280, Note_on_c, 2, 47, 50
2, 5015640, Note_off_c, 2, 47, 0
2, 5015760, Note_on_c, 2, 59, 50
2, 5016120, Note_off_c, 2, 59, 0
2, 5016240, Note_on_c, 2, 54, 50
2, 5017080, Note_off_c, 2, 54, 0
2, 5017080, Note_on_c, 2, 61, 50
2, 5017680, Note_off_c, 2, 61, 0
2, 5017680, Note_on_c, 2, 61, 50
2, 5018160, Note_off_c, 2, 61, 0
2, 5018160, Note_on_c, 2, 45, 50
2, 5018520, Note_off_c, 2, 45, 0
2, 5018520, Note_on_c, 2, 50, 50
2, 5018880, Note_off_c, 2, 50, 0
2, 5019000, Note_on_c, 2, 40, 50
2, 5019600, Note_off_c, 2, 40, 0
2, 5019600, Note_on_c, 2, 52, 50
2, 5020080, Note_off_c, 2, 52, 0
2, 5020080, Note_on_c, 2, 52, 50
2, 5020440, Note_off_c, 2, 52, 0
2, 5020440, Note_on_c, 2, 50, 50
2, 5020560, Note_off_c, 2, 50, 0
2, 5020560, Note_on_c, 2, 47, 50
2, 5020920, Note_off_c, 2, 47, 0
2, 5020920, Note_on_c, 2, 57, 50
2, 5021400, Note_off_c, 2, 57, 0
2, 5021400, Note_on_c, 2, 56, 50
2, 5021880, Note_off_c, 2, 56, 0
2, 5021880, Note_on_c, 2, 54, 50
2, 5022360, Note_off_c, 2, 54, 0
2, 5022360, Note_on_c, 2, 56, 50
2, 5022480, Note_off_c, 2, 56, 0
2, 5022480, Note_on_c, 2, 54, 50
2, 5022960, Note_off_c, 2, 54, 0
2, 5022960, Note_on_c, 2, 40, 50
2, 5023440, Note_off_c, 2, 40, 0
2, 5023440, Note_on_c, 2, 52, 50
2, 5023920, Note_off_c, 2, 52, 0
2, 5023920, Note_on_c, 2, 52, 50
2, 5024280, Note_off_c, 2, 52, 0
2, 5024280, Note_on_c, 2, 50, 50
2, 5024400, Note_off_c, 2, 50, 0
2, 5024400, Note_on_c, 2, 47, 50
2, 5024760, Note_off_c, 2, 47, 0
2, 5024760, Note_on_c, 2, 57, 50
2, 5025240, Note_off_c, 2, 57, 0
2, 5025240, Note_on_c, 2, 56, 50
2, 5025720, Note_off_c, 2, 56, 0
2, 5025720, Note_on_c, 2, 54, 50
2, 5026200, Note_off_c, 2, 54, 0
2, 5026200, Note_on_c, 2, 56, 50
2, 5026320, Note_off_c, 2, 56, 0
2, 5026320, Note_on_c, 2, 54, 50
2, 5026680, Note_off_c, 2, 54, 0
2, 5026680, Note_on_c, 2, 56, 50
2, 5026800, Note_off_c, 2, 56, 0
2, 5026800, Note_on_c, 2, 40, 50
2, 5027280, Note_off_c, 2, 40, 0
2, 5027280, Note_on_c, 2, 52, 50
2, 5027760, Note_off_c, 2, 52, 0
2, 5027760, Note_on_c, 2, 52, 50
2, 5028120, Note_off_c, 2, 52, 0
2, 5028120, Note_on_c, 2, 50, 50
2, 5028240, Note_off_c, 2, 50, 0
2, 5028240, Note_on_c, 2, 47, 50
2, 5028600, Note_off_c, 2, 47, 0
2, 5028600, Note_on_c, 2, 57, 50
2, 5029080, Note_off_c, 2, 57, 0
2, 5029080, Note_on_c, 2, 56, 50
2, 5029560, Note_off_c, 2, 56, 0
2, 5029560, Note_on_c, 2, 54, 50
2, 5030040, Note_off_c, 2, 54, 0
2, 5030040, Note_on_c, 2, 56, 50
2, 5030160, Note_off_c, 2, 56, 0
2, 5030160, Note_on_c, 2, 54, 50
2, 5030520, Note_off_c, 2, 54, 0
2, 5030520, Note_on_c, 2, 56, 50
2, 5030640, Note_off_c, 2, 56, 0
2, 5030640, Note_on_c, 2, 47, 50
2, 5031120, Note_off_c, 2, 47, 0
2, 5031120, Note_on_c, 2, 59, 50
2, 5031600, Note_off_c, 2, 59, 0
2, 5031600, Note_on_c, 2, 59, 50
2, 5031960, Note_off_c, 2, 59, 0
2, 5031960, Note_on_c, 2, 63, 50
2, 5032440, Note_off_c, 2, 63, 0
2, 5032440, Note_on_c, 2, 64, 50
2, 5032920, Note_off_c, 2, 64, 0
2, 5032920, Note_on_c, 2, 63, 50
2, 5033400, Note_off_c, 2, 63, 0
2, 5033400, Note_on_c, 2, 54, 50
2, 5033880, Note_off_c, 2, 54, 0
2, 5033880, Note_on_c, 2, 54, 50
2, 5034000, Note_off_c, 2, 54, 0
2, 5034000, Note_on_c, 2, 54, 50
2, 5034360, Note_off_c, 2, 54, 0
2, 5034360, Note_on_c, 2, 54, 50
2, 5034480, Note_off_c, 2, 54, 0
2, 5034480, Note_on_c, 2, 47, 50
2, 5034960, Note_off_c, 2, 47, 0
2, 5034960, Note_on_c, 2, 59, 50
2, 5035440, Note_off_c, 2, 59, 0
2, 5035440, Note_on_c, 2, 59, 50
2, 5035800, Note_off_c, 2, 59, 0
2, 5035800, Note_on_c, 2, 57, 50
2, 5035920, Note_off_c, 2, 57, 0
2, 5035920, Note_on_c, 2, 54, 50
2, 5036280, Note_off_c, 2, 54, 0
2, 5036280, Note_on_c, 2, 64, 50
2, 5036760, Note_off_c, 2, 64, 0
2, 5036760, Note_on_c, 2, 63, 50
2, 5037240, Note_off_c, 2, 63, 0
2, 5037240, Note_on_c, 2, 61, 50
2, 5037720, Note_off_c, 2, 61, 0
2, 5037720, Note_on_c, 2, 63, 50
2, 5037840, Note_off_c, 2, 63, 0
2, 5037840, Note_on_c, 2, 61, 50
2, 5038320, Note_off_c, 2, 61, 0
2, 5038320, Note_on_c, 2, 45, 50
2, 5038800, Note_off_c, 2, 45, 0
2, 5038800, Note_on_c, 2, 57, 50
2, 5039280, Note_off_c, 2, 57, 0
2, 5039280, Note_on_c, 2, 57, 50
2, 5039640, Note_off_c, 2, 57, 0
2, 5039640, Note_on_c, 2, 55, 50
2, 5039760, Note_off_c, 2, 55, 0
2, 5039760, Note_on_c, 2, 52, 50
2, 5040120, Note_off_c, 2, 52, 0
2, 5040120, Note_on_c, 2, 62, 50
2, 5040600, Note_off_c, 2, 62, 0
2, 5040600, Note_on_c, 2, 61, 50
2, 5041080, Note_off_c, 2, 61, 0
2, 5041080, Note_on_c, 2, 59, 50
2, 5041560, Note_off_c, 2, 59, 0
2, 5041560, Note_on_c, 2, 61, 50
2, 5041680, Note_off_c, 2, 61, 0
2, 5041680, Note_on_c, 2, 59, 50
2, 5042160, Note_off_c, 2, 59, 0
2, 5042160, Note_on_c, 2, 40, 50
2, 5042640, Note_off_c, 2, 40, 0
2, 5042640, Note_on_c, 2, 52, 50
2, 5043120, Note_off_c, 2, 52, 0
2, 5043120, Note_on_c, 2, 52, 50
2, 5043480, Note_off_c, 2, 52, 0
2, 5043480, Note_on_c, 2, 50, 50
2, 5043600, Note_off_c, 2, 50, 0
2, 5043600, Note_on_c, 2, 47, 50
2, 5043960, Note_off_c, 2, 47, 0
2, 5043960, Note_on_c, 2, 57, 50
2, 5044440, Note_off_c, 2, 57, 0
2, 5044440, Note_on_c, 2, 56, 50
2, 5044920, Note_off_c, 2, 56, 0
2, 5044920, Note_on_c, 2, 54, 50
2, 5045400, Note_off_c, 2, 54, 0
2, 5045400, Note_on_c, 2, 56, 50
2, 5045520, Note_off_c, 2, 56, 0
2, 5045520, Note_on_c, 2, 54, 50
2, 5046000, Note_off_c, 2, 54, 0
2, 5046000, Note_on_c, 2, 40, 50
2, 5046480, Note_off_c, 2, 40, 0
2, 5046480, Note_on_c, 2, 52, 50
2, 5046960, Note_off_c, 2, 52, 0
2, 5046960, Note_on_c, 2, 52, 50
2, 5047320, Note_off_c, 2, 52, 0
2, 5047320, Note_on_c, 2, 50, 50
2, 5047440, Note_off_c, 2, 50, 0
2, 5047440, Note_on_c, 2, 47, 50
2, 5047800, Note_off_c, 2, 47, 0
2, 5047800, Note_on_c, 2, 57, 50
2, 5048280, Note_off_c, 2, 57, 0
2, 5048280, Note_on_c, 2, 56, 50
2, 5048760, Note_off_c, 2, 56, 0
2, 5048760, Note_on_c, 2, 54, 50
2, 5049240, Note_off_c, 2, 54, 0
2, 5049240, Note_on_c, 2, 56, 50
2, 5049360, Note_off_c, 2, 56, 0
2, 5049360, Note_on_c, 2, 54, 50
2, 5049840, Note_off_c, 2, 54, 0
2, 5049840, Note_on_c, 2, 40, 50
2, 5050320, Note_off_c, 2, 40, 0
2, 5050320, Note_on_c, 2, 52, 50
2, 5050800, Note_off_c, 2, 52, 0
2, 5050800, Note_on_c, 2, 52, 50
2, 5051160, Note_off_c, 2, 52, 0
2, 5051160, Note_on_c, 2, 50, 50
2, 5051280, Note_off_c, 2, 50, 0
2, 5051280, Note_on_c, 2, 47, 50
2, 5051640, Note_off_c, 2, 47, 0
2, 5051640, Note_on_c, 2, 57, 50
2, 5052120, Note_off_c, 2, 57, 0
2, 5052120, Note_on_c, 2, 56, 50
2, 5052600, Note_off_c, 2, 56, 0
2, 5052600, Note_on_c, 2, 54, 50
2, 5053080, Note_off_c, 2, 54, 0
2, 5053080, Note_on_c, 2, 56, 50
2, 5053200, Note_off_c, 2, 56, 0
2, 5053200, Note_on_c, 2, 54, 50
2, 5053680, Note_off_c, 2, 54, 0
2, 5053680, Note_on_c, 2, 40, 50
2, 5054160, Note_off_c, 2, 40, 0
2, 5054160, Note_on_c, 2, 52, 50
2, 5054640, Note_off_c, 2, 52, 0
2, 5054640, Note_on_c, 2, 52, 50
2, 5055000, Note_off_c, 2, 52, 0
2, 5055000, Note_on_c, 2, 50, 50
2, 5055120, Note_off_c, 2, 50, 0
2, 5055120, Note_on_c, 2, 47, 50
2, 5055480, Note_off_c, 2, 47, 0
2, 5055480, Note_on_c, 2, 57, 50
2, 5055960, Note_off_c, 2, 57, 0
2, 5055960, Note_on_c, 2, 56, 50
2, 5056440, Note_off_c, 2, 56, 0
2, 5056440, Note_on_c, 2, 54, 50
2, 5056920, Note_off_c, 2, 54, 0
2, 5056920, Note_on_c, 2, 56, 50
2, 5057040, Note_off_c, 2, 56, 0
2, 5057040, Note_on_c, 2, 54, 50
2, 5057520, Note_off_c, 2, 54, 0
2, 5057520, Note_on_c, 2, 47, 50
2, 5058000, Note_off_c, 2, 47, 0
2, 5058000, Note_on_c, 2, 59, 50
2, 5058480, Note_off_c, 2, 59, 0
2, 5058480, Note_on_c, 2, 59, 50
2, 5058840, Note_off_c, 2, 59, 0
2, 5058840, Note_on_c, 2, 57, 50
2, 5058960, Note_off_c, 2, 57, 0
2, 5058960, Note_on_c, 2, 54, 50
2, 5059320, Note_off_c, 2, 54, 0
2, 5059320, Note_on_c, 2, 64, 50
2, 5059800, Note_off_c, 2, 64, 0
2, 5059800, Note_on_c, 2, 63, 50
2, 5060280, Note_off_c, 2, 63, 0
2, 5060280, Note_on_c, 2, 61, 50
2, 5060760, Note_off_c, 2, 61, 0
2, 5060760, Note_on_c, 2, 63, 50
2, 5060880, Note_off_c, 2, 63, 0
2, 5060880, Note_on_c, 2, 61, 50
2, 5061360, Note_off_c, 2, 61, 0
2, 5061360, Note_on_c, 2, 47, 50
2, 5061720, Note_off_c, 2, 47, 0
2, 5061840, Note_on_c, 2, 59, 50
2, 5062200, Note_off_c, 2, 59, 0
2, 5062320, Note_on_c, 2, 54, 50
2, 5063160, Note_off_c, 2, 54, 0
2, 5063160, Note_on_c, 2, 61, 50
2, 5063760, Note_off_c, 2, 61, 0
2, 5063760, Note_on_c, 2, 61, 50
2, 5064240, Note_off_c, 2, 61, 0
2, 5064240, Note_on_c, 2, 45, 50
2, 5064600, Note_off_c, 2, 45, 0
2, 5064600, Note_on_c, 2, 50, 50
2, 5064960, Note_off_c, 2, 50, 0
2, 5065080, Note_on_c, 2, 40, 50
2, 5065680, Note_off_c, 2, 40, 0
2, 5065680, Note_on_c, 2, 52, 50
2, 5066160, Note_off_c, 2, 52, 0
2, 5066160, Note_on_c, 2, 52, 50
2, 5066520, Note_off_c, 2, 52, 0
2, 5066520, Note_on_c, 2, 50, 50
2, 5066640, Note_off_c, 2, 50, 0
2, 5066640, Note_on_c, 2, 47, 50
2, 5067000, Note_off_c, 2, 47, 0
2, 5067000, Note_on_c, 2, 57, 50
2, 5067480, Note_off_c, 2, 57, 0
2, 5067480, Note_on_c, 2, 56, 50
2, 5067960, Note_off_c, 2, 56, 0
2, 5067960, Note_on_c, 2, 54, 50
2, 5068440, Note_off_c, 2, 54, 0
2, 5068440, Note_on_c, 2, 56, 50
2, 5068560, Note_off_c, 2, 56, 0
2, 5068560, Note_on_c, 2, 54, 50
2, 5069040, Note_off_c, 2, 54, 0
2, 5069040, Note_on_c, 2, 40, 50
2, 5069520, Note_off_c, 2, 40, 0
2, 5069520, Note_on_c, 2, 52, 50
2, 5069880, Note_off_c, 2, 52, 0
2, 5069880, Note_on_c, 2, 47, 50
2, 5070000, Note_off_c, 2, 47, 0
2, 5070000, Note_on_c, 2, 40, 50
2, 5070360, Note_off_c, 2, 40, 0
2, 5070360, Note_on_c, 2, 56, 50
2, 5070480, Note_off_c, 2, 56, 0
2, 5070960, Note_on_c, 2, 44, 50
2, 5071440, Note_off_c, 2, 44, 0
2, 5071440, Note_on_c, 2, 56, 50
2, 5071800, Note_off_c, 2, 56, 0
2, 5071800, Note_on_c, 2, 51, 50
2, 5071920, Note_off_c, 2, 51, 0
2, 5071920, Note_on_c, 2, 44, 50
2, 5072280, Note_off_c, 2, 44, 0
2, 5072280, Note_on_c, 2, 56, 50
2, 5072400, Note_off_c, 2, 56, 0
2, 5072880, Note_on_c, 2, 45, 50
2, 5073360, Note_off_c, 2, 45, 0
2, 5073360, Note_on_c, 2, 52, 50
2, 5073720, Note_off_c, 2, 52, 0
2, 5073720, Note_on_c, 2, 49, 50
2, 5073840, Note_off_c, 2, 49, 0
2, 5073840, Note_on_c, 2, 56, 50
2, 5074200, Note_off_c, 2, 56, 0
2, 5074200, Note_on_c, 2, 56, 50
2, 5074320, Note_off_c, 2, 56, 0
2, 5074800, Note_on_c, 2, 47, 50
2, 5075280, Note_off_c, 2, 47, 0
2, 5075280, Note_on_c, 2, 54, 50
2, 5075640, Note_off_c, 2, 54, 0
2, 5075640, Note_on_c, 2, 51, 50
2, 5075760, Note_off_c, 2, 51, 0
2, 5075760, Note_on_c, 2, 47, 50
2, 5076120, Note_off_c, 2, 47, 0
2, 5076120, Note_on_c, 2, 54, 50
2, 5076240, Note_off_c, 2, 54, 0
2, 5076720, Note_on_c, 2, 40, 50
2, 5077200, Note_off_c, 2, 40, 0
2, 5077200, Note_on_c, 2, 52, 50
2, 5077560, Note_off_c, 2, 52, 0
2, 5077560, Note_on_c, 2, 47, 50
2, 5077680, Note_off_c, 2, 47, 0
2, 5077680, Note_on_c, 2, 40, 50
2, 5078040, Note_off_c, 2, 40, 0
2, 5078040, Note_on_c, 2, 56, 50
2, 5078160, Note_off_c, 2, 56, 0
2, 5078640, Note_on_c, 2, 44, 50
2, 5079120, Note_off_c, 2, 44, 0
2, 5079120, Note_on_c, 2, 56, 50
2, 5079480, Note_off_c, 2, 56, 0
2, 5079480, Note_on_c, 2, 51, 50
2, 5079600, Note_off_c, 2, 51, 0
2, 5079600, Note_on_c, 2, 44, 50
2, 5079960, Note_off_c, 2, 44, 0
2, 5079960, Note_on_c, 2, 56, 50
2, 5080080, Note_off_c, 2, 56, 0
2, 5081040, Note_on_c, 2, 54, 50
2, 5081520, Note_off_c, 2, 54, 0
2, 5081520, Note_on_c, 2, 54, 50
2, 5081880, Note_off_c, 2, 54, 0
2, 5081880, Note_on_c, 2, 54, 50
2, 5082360, Note_off_c, 2, 54, 0
2, 5082360, Note_on_c, 2, 54, 50
2, 5082480, Note_off_c, 2, 54, 0
2, 5082480, Note_on_c, 2, 59, 50
2, 5082960, Note_off_c, 2, 59, 0
2, 5082960, Note_on_c, 2, 59, 50
2, 5083320, Note_off_c, 2, 59, 0
2, 5083320, Note_on_c, 2, 59, 50
2, 5083440, Note_off_c, 2, 59, 0
2, 5083440, Note_on_c, 2, 59, 50
2, 5083800, Note_off_c, 2, 59, 0
2, 5083800, Note_on_c, 2, 59, 50
2, 5083920, Note_off_c, 2, 59, 0
2, 5084400, Note_on_c, 2, 40, 50
2, 5084880, Note_off_c, 2, 40, 0
2, 5084880, Note_on_c, 2, 52, 50
2, 5085360, Note_off_c, 2, 52, 0
2, 5085360, Note_on_c, 2, 52, 50
2, 5085720, Note_off_c, 2, 52, 0
2, 5085720, Note_on_c, 2, 50, 50
2, 5085840, Note_off_c, 2, 50, 0
2, 5085840, Note_on_c, 2, 47, 50
2, 5086200, Note_off_c, 2, 47, 0
2, 5086200, Note_on_c, 2, 57, 50
2, 5086680, Note_off_c, 2, 57, 0
2, 5086680, Note_on_c, 2, 56, 50
2, 5087160, Note_off_c, 2, 56, 0
2, 5087160, Note_on_c, 2, 54, 50
2, 5087640, Note_off_c, 2, 54, 0
2, 5087640, Note_on_c, 2, 56, 50
2, 5087760, Note_off_c, 2, 56, 0
2, 5087760, Note_on_c, 2, 54, 50
2, 5088240, Note_off_c, 2, 54, 0
2, 5088240, Note_on_c, 2, 40, 50
2, 5088720, Note_off_c, 2, 40, 0
2, 5088720, Note_on_c, 2, 52, 50
2, 5089200, Note_off_c, 2, 52, 0
2, 5089200, Note_on_c, 2, 52, 50
2, 5089560, Note_off_c, 2, 52, 0
2, 5089560, Note_on_c, 2, 50, 50
2, 5089680, Note_off_c, 2, 50, 0
2, 5089680, Note_on_c, 2, 47, 50
2, 5090040, Note_off_c, 2, 47, 0
2, 5090040, Note_on_c, 2, 57, 50
2, 5090520, Note_off_c, 2, 57, 0
2, 5090520, Note_on_c, 2, 56, 50
2, 5091000, Note_off_c, 2, 56, 0
2, 5091000, Note_on_c, 2, 54, 50
2, 5091480, Note_off_c, 2, 54, 0
2, 5091480, Note_on_c, 2, 56, 50
2, 5091600, Note_off_c, 2, 56, 0
2, 5091600, Note_on_c, 2, 54, 50
2, 5092080, Note_off_c, 2, 54, 0
2, 5092080, Note_on_c, 2, 47, 50
2, 5092560, Note_off_c, 2, 47, 0
2, 5092560, Note_on_c, 2, 59, 50
2, 5093040, Note_off_c, 2, 59, 0
2, 5093040, Note_on_c, 2, 59, 50
2, 5093400, Note_off_c, 2, 59, 0
2, 5093400, Note_on_c, 2, 57, 50
2, 5093520, Note_off_c, 2, 57, 0
2, 5093520, Note_on_c, 2, 54, 50
2, 5093880, Note_off_c, 2, 54, 0
2, 5093880, Note_on_c, 2, 64, 50
2, 5094360, Note_off_c, 2, 64, 0
2, 5094360, Note_on_c, 2, 63, 50
2, 5094840, Note_off_c, 2, 63, 0
2, 5094840, Note_on_c, 2, 61, 50
2, 5095320, Note_off_c, 2, 61, 0
2, 5095320, Note_on_c, 2, 63, 50
2, 5095440, Note_off_c, 2, 63, 0
2, 5095440, Note_on_c, 2, 61, 50
2, 5095920, Note_off_c, 2, 61, 0
2, 5095920, Note_on_c, 2, 47, 50
2, 5096280, Note_off_c, 2, 47, 0
2, 5096400, Note_on_c, 2, 59, 50
2, 5096760, Note_off_c, 2, 59, 0
2, 5096880, Note_on_c, 2, 54, 50
2, 5097720, Note_off_c, 2, 54, 0
2, 5097720, Note_on_c, 2, 61, 50
2, 5098320, Note_off_c, 2, 61, 0
2, 5098320, Note_on_c, 2, 61, 50
2, 5098800, Note_off_c, 2, 61, 0
2, 5098800, Note_on_c, 2, 45, 50
2, 5099160, Note_off_c, 2, 45, 0
2, 5099160, Note_on_c, 2, 50, 50
2, 5099520, Note_off_c, 2, 50, 0
2, 5099640, Note_on_c, 2, 40, 50
2, 5100240, Note_off_c, 2, 40, 0
2, 5100240, Note_on_c, 2, 52, 50
2, 5100720, Note_off_c, 2, 52, 0
2, 5100720, Note_on_c, 2, 52, 50
2, 5101080, Note_off_c, 2, 52, 0
2, 5101080, Note_on_c, 2, 50, 50
2, 5101200, Note_off_c, 2, 50, 0
2, 5101200, Note_on_c, 2, 47, 50
2, 5101560, Note_off_c, 2, 47, 0
2, 5101560, Note_on_c, 2, 57, 50
2, 5102040, Note_off_c, 2, 57, 0
2, 5102040, Note_on_c, 2, 56, 50
2, 5102520, Note_off_c, 2, 56, 0
2, 5102520, Note_on_c, 2, 54, 50
2, 5103000, Note_off_c, 2, 54, 0
2, 5103000, Note_on_c, 2, 56, 50
2, 5103120, Note_off_c, 2, 56, 0
2, 5103120, Note_on_c, 2, 54, 50
2, 5103600, Note_off_c, 2, 54, 0
2, 5103600, Note_on_c, 2, 47, 50
2, 5104080, Note_off_c, 2, 47, 0
2, 5104080, Note_on_c, 2, 59, 50
2, 5104560, Note_off_c, 2, 59, 0
2, 5104560, Note_on_c, 2, 59, 50
2, 5104920, Note_off_c, 2, 59, 0
2, 5104920, Note_on_c, 2, 63, 50
2, 5105040, Note_off_c, 2, 63, 0
2, 5105400, Note_on_c, 2, 57, 50
2, 5106000, Note_off_c, 2, 57, 0
2, 5106000, Note_on_c, 2, 57, 50
2, 5106480, Note_off_c, 2, 57, 0
2, 5106480, Note_on_c, 2, 61, 50
2, 5106840, Note_off_c, 2, 61, 0
2, 5106840, Note_on_c, 2, 57, 50
2, 5107200, Note_off_c, 2, 57, 0
2, 5107320, Note_on_c, 2, 47, 50
2, 5107440, Note_off_c, 2, 47, 0
2, 5107440, Note_on_c, 2, 40, 50
2, 5107920, Note_off_c, 2, 40, 0
2, 5107920, Note_on_c, 2, 52, 50
2, 5108400, Note_off_c, 2, 52, 0
2, 5108400, Note_on_c, 2, 52, 50
2, 5108760, Note_off_c, 2, 52, 0
2, 5108760, Note_on_c, 2, 50, 50
2, 5108880, Note_off_c, 2, 50, 0
2, 5108880, Note_on_c, 2, 47, 50
2, 5109240, Note_off_c, 2, 47, 0
2, 5109240, Note_on_c, 2, 57, 50
2, 5109720, Note_off_c, 2, 57, 0
2, 5109720, Note_on_c, 2, 56, 50
2, 5110200, Note_off_c, 2, 56, 0
2, 5110200, Note_on_c, 2, 54, 50
2, 5110680, Note_off_c, 2, 54, 0
2, 5110680, Note_on_c, 2, 56, 50
2, 5110800, Note_off_c, 2, 56, 0
2, 5110800, Note_on_c, 2, 54, 50
2, 5111280, Note_off_c, 2, 54, 0
2, 5115360, Note_on_c, 2, 49, 50
2, 5115600, Note_off_c, 2, 49, 0
2, 5115600, Note_on_c, 2, 52, 50
2, 5115840, Note_off_c, 2, 52, 0
2, 5115840, Note_on_c, 2, 47, 50
2, 5116560, Note_off_c, 2, 47, 0
2, 5116560, Note_on_c, 2, 54, 50
2, 5117040, Note_off_c, 2, 54, 0
2, 5117040, Note_on_c, 2, 54, 50
2, 5117280, Note_off_c, 2, 54, 0
2, 5117280, Note_on_c, 2, 49, 50
2, 5117520, Note_off_c, 2, 49, 0
2, 5117520, Note_on_c, 2, 52, 50
2, 5117760, Note_off_c, 2, 52, 0
2, 5117760, Note_on_c, 2, 47, 50
2, 5118480, Note_off_c, 2, 47, 0
2, 5118480, Note_on_c, 2, 59, 50
2, 5118960, Note_off_c, 2, 59, 0
2, 5118960, Note_on_c, 2, 59, 50
2, 5119200, Note_off_c, 2, 59, 0
2, 5119200, Note_on_c, 2, 49, 50
2, 5119440, Note_off_c, 2, 49, 0
2, 5119440, Note_on_c, 2, 52, 50
2, 5119680, Note_off_c, 2, 52, 0
2, 5119680, Note_on_c, 2, 47, 50
2, 5120160, Note_off_c, 2, 47, 0
2, 5120160, Note_on_c, 2, 54, 50
2, 5120640, Note_off_c, 2, 54, 0
2, 5120640, Note_on_c, 2, 54, 50
2, 5120880, Note_off_c, 2, 54, 0
2, 5120880, Note_on_c, 2, 54, 50
2, 5121360, Note_off_c, 2, 54, 0
2, 5121360, Note_on_c, 2, 54, 50
2, 5121840, Note_off_c, 2, 54, 0
2, 5121840, Note_on_c, 2, 59, 50
2, 5123280, Note_off_c, 2, 59, 0
2, 5123280, Note_on_c, 2, 57, 50
2, 5123760, Note_off_c, 2, 57, 0
2, 5124240, Note_on_c, 2, 56, 50
2, 5124480, Note_off_c, 2, 56, 0
2, 5124480, Note_on_c, 2, 56, 50
2, 5124720, Note_off_c, 2, 56, 0
2, 5125200, Note_on_c, 2, 56, 50
2, 5125440, Note_off_c, 2, 56, 0
2, 5126640, Note_on_c, 2, 47, 50
2, 5126880, Note_off_c, 2, 47, 0
2, 5126880, Note_on_c, 2, 46, 50
2, 5127120, Note_off_c, 2, 46, 0
2, 5127120, Note_on_c, 2, 47, 50
2, 5127360, Note_off_c, 2, 47, 0
2, 5127360, Note_on_c, 2, 48, 50
2, 5127600, Note_off_c, 2, 48, 0
2, 5127600, Note_on_c, 2, 49, 50
2, 5129520, Note_off_c, 2, 49, 0
2, 5129520, Note_on_c, 2, 56, 50
2, 5131440, Note_off_c, 2, 56, 0
2, 5131440, Note_on_c, 2, 59, 50
2, 5132160, Note_off_c, 2, 59, 0
2, 5132160, Note_on_c, 2, 59, 50
2, 5132400, Note_off_c, 2, 59, 0
2, 5132880, Note_on_c, 2, 59, 50
2, 5133120, Note_off_c, 2, 59, 0
2, 5134320, Note_on_c, 2, 47, 50
2, 5134560, Note_off_c, 2, 47, 0
2, 5134560, Note_on_c, 2, 46, 50
2, 5134800, Note_off_c, 2, 46, 0
2, 5134800, Note_on_c, 2, 47, 50
2, 5135040, Note_off_c, 2, 47, 0
2, 5135040, Note_on_c, 2, 48, 50
2, 5135280, Note_off_c, 2, 48, 0
2, 5135280, Note_on_c, 2, 49, 50
2, 5137200, Note_off_c, 2, 49, 0
2, 5137680, Note_on_c, 2, 56, 50
2, 5138640, Note_off_c, 2, 56, 0
2, 5138640, Note_on_c, 2, 51, 50
2, 5139120, Note_off_c, 2, 51, 0
2, 5139120, Note_on_c, 2, 49, 50
2, 5140080, Note_off_c, 2, 49, 0
2, 5142480, Note_on_c, 2, 44, 50
2, 5142720, Note_off_c, 2, 44, 0
2, 5142720, Note_on_c, 2, 52, 50
2, 5142960, Note_off_c, 2, 52, 0
2, 5142960, Note_on_c, 2, 45, 50
2, 5143920, Note_off_c, 2, 45, 0
2, 5143920, Note_on_c, 2, 59, 50
2, 5144880, Note_off_c, 2, 59, 0
2, 5145360, Note_on_c, 2, 68, 50
2, 5145600, Note_off_c, 2, 68, 0
2, 5146080, Note_on_c, 2, 68, 50
2, 5146320, Note_off_c, 2, 68, 0
2, 5146560, Note_on_c, 2, 68, 50
2, 5146800, Note_off_c, 2, 68, 0
2, 5147520, Note_on_c, 2, 68, 50
2, 5147760, Note_off_c, 2, 68, 0
2, 5148480, Note_on_c, 2, 68, 50
2, 5148720, Note_off_c, 2, 68, 0
2, 5149440, Note_on_c, 2, 63, 50
2, 5149680, Note_off_c, 2, 63, 0
2, 5149680, Note_on_c, 2, 47, 50
2, 5149920, Note_off_c, 2, 47, 0
2, 5149920, Note_on_c, 2, 46, 50
2, 5150160, Note_off_c, 2, 46, 0
2, 5150160, Note_on_c, 2, 47, 50
2, 5150400, Note_off_c, 2, 47, 0
2, 5150400, Note_on_c, 2, 48, 50
2, 5150640, Note_off_c, 2, 48, 0
2, 5150640, Note_on_c, 2, 49, 50
2, 5152560, Note_off_c, 2, 49, 0
2, 5152560, Note_on_c, 2, 56, 50
2, 5154480, Note_off_c, 2, 56, 0
2, 5155200, Note_on_c, 2, 68, 50
2, 5155440, Note_off_c, 2, 68, 0
2, 5156160, Note_on_c, 2, 68, 50
2, 5156400, Note_off_c, 2, 68, 0
2, 5157120, Note_on_c, 2, 63, 50
2, 5157360, Note_off_c, 2, 63, 0
2, 5157360, Note_on_c, 2, 47, 50
2, 5157600, Note_off_c, 2, 47, 0
2, 5157600, Note_on_c, 2, 46, 50
2, 5157840, Note_off_c, 2, 46, 0
2, 5157840, Note_on_c, 2, 47, 50
2, 5158080, Note_off_c, 2, 47, 0
2, 5158080, Note_on_c, 2, 48, 50
2, 5158320, Note_off_c, 2, 48, 0
2, 5158320, Note_on_c, 2, 49, 50
2, 5160240, Note_off_c, 2, 49, 0
2, 5160720, Note_on_c, 2, 56, 50
2, 5161680, Note_off_c, 2, 56, 0
2, 5161680, Note_on_c, 2, 51, 50
2, 5162160, Note_off_c, 2, 51, 0
2, 5162160, Note_on_c, 2, 49, 50
2, 5163120, Note_off_c, 2, 49, 0
2, 5163120, Note_on_c, 2, 47, 50
2, 5164080, Note_off_c, 2, 47, 0
2, 5167680, Note_on_c, 2, 68, 50
2, 5167920, Note_off_c, 2, 68, 0
2, 5168400, Note_on_c, 2, 68, 50
2, 5168640, Note_off_c, 2, 68, 0
2, 5169120, Note_on_c, 2, 68, 50
2, 5169360, Note_off_c, 2, 68, 0
2, 5169600, Note_on_c, 2, 68, 50
2, 5169840, Note_off_c, 2, 68, 0
2, 5170320, Note_on_c, 2, 47, 50
2, 5170560, Note_off_c, 2, 47, 0
2, 5170560, Note_on_c, 2, 54, 50
2, 5171040, Note_off_c, 2, 54, 0
2, 5171040, Note_on_c, 2, 59, 50
2, 5171280, Note_off_c, 2, 59, 0
2, 5171280, Note_on_c, 2, 63, 50
2, 5171760, Note_off_c, 2, 63, 0
2, 5172240, Note_on_c, 2, 52, 50
2, 5172480, Note_off_c, 2, 52, 0
2, 5172480, Note_on_c, 2, 56, 50
2, 5172960, Note_off_c, 2, 56, 0
2, 5172960, Note_on_c, 2, 59, 50
2, 5173200, Note_off_c, 2, 59, 0
2, 5173200, Note_on_c, 2, 64, 50
2, 5173680, Note_off_c, 2, 64, 0
2, 5174160, Note_on_c, 2, 49, 50
2, 5174400, Note_off_c, 2, 49, 0
2, 5174400, Note_on_c, 2, 52, 50
2, 5174880, Note_off_c, 2, 52, 0
2, 5174880, Note_on_c, 2, 57, 50
2, 5175120, Note_off_c, 2, 57, 0
2, 5175120, Note_on_c, 2, 61, 50
2, 5175600, Note_off_c, 2, 61, 0
2, 5176080, Note_on_c, 2, 49, 50
2, 5176320, Note_off_c, 2, 49, 0
2, 5176320, Note_on_c, 2, 54, 50
2, 5176800, Note_off_c, 2, 54, 0
2, 5176800, Note_on_c, 2, 57, 50
2, 5177040, Note_off_c, 2, 57, 0
2, 5177040, Note_on_c, 2, 61, 50
2, 5177520, Note_off_c, 2, 61, 0
2, 5178000, Note_on_c, 2, 54, 50
2, 5178240, Note_off_c, 2, 54, 0
2, 5178240, Note_on_c, 2, 59, 50
2, 5178720, Note_off_c, 2, 59, 0
2, 5178720, Note_on_c, 2, 63, 50
2, 5178960, Note_off_c, 2, 63, 0
2, 5178960, Note_on_c, 2, 66, 50
2, 5179440, Note_off_c, 2, 66, 0
2, 5179920, Note_on_c, 2, 52, 50
2, 5180160, Note_off_c, 2, 52, 0
2, 5180160, Note_on_c, 2, 56, 50
2, 5180640, Note_off_c, 2, 56, 0
2, 5180640, Note_on_c, 2, 59, 50
2, 5180880, Note_off_c, 2, 59, 0
2, 5180880, Note_on_c, 2, 64, 50
2, 5181360, Note_off_c, 2, 64, 0
2, 5181840, Note_on_c, 2, 49, 50
2, 5182080, Note_off_c, 2, 49, 0
2, 5182080, Note_on_c, 2, 52, 50
2, 5182560, Note_off_c, 2, 52, 0
2, 5182560, Note_on_c, 2, 57, 50
2, 5182800, Note_off_c, 2, 57, 0
2, 5182800, Note_on_c, 2, 61, 50
2, 5183040, Note_off_c, 2, 61, 0
2, 5183040, Note_on_c, 2, 54, 50
2, 5183760, Note_off_c, 2, 54, 0
2, 5183760, Note_on_c, 2, 54, 50
2, 5184240, Note_off_c, 2, 54, 0
2, 5184240, Note_on_c, 2, 47, 50
2, 5184480, Note_off_c, 2, 47, 0
2, 5184480, Note_on_c, 2, 45, 50
2, 5184720, Note_off_c, 2, 45, 0
2, 5184720, Note_on_c, 2, 47, 50
2, 5184960, Note_off_c, 2, 47, 0
2, 5184960, Note_on_c, 2, 54, 50
2, 5185680, Note_off_c, 2, 54, 0
2, 5185680, Note_on_c, 2, 54, 50
2, 5186160, Note_off_c, 2, 54, 0
2, 5186160, Note_on_c, 2, 54, 50
2, 5186400, Note_off_c, 2, 54, 0
2, 5186400, Note_on_c, 2, 49, 50
2, 5186640, Note_off_c, 2, 49, 0
2, 5186640, Note_on_c, 2, 52, 50
2, 5186880, Note_off_c, 2, 52, 0
2, 5186880, Note_on_c, 2, 54, 50
2, 5188800, Note_off_c, 2, 54, 0
2, 5188800, Note_on_c, 2, 54, 50
2, 5189040, Note_off_c, 2, 54, 0
2, 5189040, Note_on_c, 2, 59, 50
2, 5190000, Note_off_c, 2, 59, 0
2, 5190000, Note_on_c, 2, 59, 50
2, 5190480, Note_off_c, 2, 59, 0
2, 5190480, Note_on_c, 2, 54, 50
2, 5190840, Note_off_c, 2, 54, 0
2, 5191680, Note_on_c, 2, 68, 50
2, 5191920, Note_off_c, 2, 68, 0
2, 5192640, Note_on_c, 2, 68, 50
2, 5192880, Note_off_c, 2, 68, 0
2, 5193600, Note_on_c, 2, 63, 50
2, 5193840, Note_off_c, 2, 63, 0
2, 5193840, Note_on_c, 2, 47, 50
2, 5194080, Note_off_c, 2, 47, 0
2, 5194080, Note_on_c, 2, 46, 50
2, 5194320, Note_off_c, 2, 46, 0
2, 5194320, Note_on_c, 2, 47, 50
2, 5194560, Note_off_c, 2, 47, 0
2, 5194560, Note_on_c, 2, 48, 50
2, 5194800, Note_off_c, 2, 48, 0
2, 5194800, Note_on_c, 2, 49, 50
2, 5196720, Note_off_c, 2, 49, 0
2, 5196720, Note_on_c, 2, 56, 50
2, 5198640, Note_off_c, 2, 56, 0
2, 5199360, Note_on_c, 2, 68, 50
2, 5199600, Note_off_c, 2, 68, 0
2, 5200320, Note_on_c, 2, 68, 50
2, 5200560, Note_off_c, 2, 68, 0
2, 5201280, Note_on_c, 2, 63, 50
2, 5201520, Note_off_c, 2, 63, 0
2, 5201520, Note_on_c, 2, 47, 50
2, 5201760, Note_off_c, 2, 47, 0
2, 5201760, Note_on_c, 2, 46, 50
2, 5202000, Note_off_c, 2, 46, 0
2, 5202000, Note_on_c, 2, 47, 50
2, 5202240, Note_off_c, 2, 47, 0
2, 5202240, Note_on_c, 2, 48, 50
2, 5202480, Note_off_c, 2, 48, 0
2, 5202480, Note_on_c, 2, 49, 50
2, 5204400, Note_off_c, 2, 49, 0
2, 5204880, Note_on_c, 2, 56, 50
2, 5205840, Note_off_c, 2, 56, 0
2, 5205840, Note_on_c, 2, 51, 50
2, 5206320, Note_off_c, 2, 51, 0
2, 5206320, Note_on_c, 2, 49, 50
2, 5207280, Note_off_c, 2, 49, 0
2, 5207280, Note_on_c, 2, 47, 50
2, 5208240, Note_off_c, 2, 47, 0
2, 5211840, Note_on_c, 2, 68, 50
2, 5212080, Note_off_c, 2, 68, 0
2, 5212560, Note_on_c, 2, 68, 50
2, 5212800, Note_off_c, 2, 68, 0
2, 5213280, Note_on_c, 2, 68, 50
2, 5213520, Note_off_c, 2, 68, 0
2, 5213760, Note_on_c, 2, 68, 50
2, 5214000, Note_off_c, 2, 68, 0
2, 5214480, Note_on_c, 2, 47, 50
2, 5214720, Note_off_c, 2, 47, 0
2, 5214720, Note_on_c, 2, 54, 50
2, 5215200, Note_off_c, 2, 54, 0
2, 5215200, Note_on_c, 2, 59, 50
2, 5215440, Note_off_c, 2, 59, 0
2, 5215440, Note_on_c, 2, 63, 50
2, 5215920, Note_off_c, 2, 63, 0
2, 5216400, Note_on_c, 2, 52, 50
2, 5216640, Note_off_c, 2, 52, 0
2, 5216640, Note_on_c, 2, 56, 50
2, 5217120, Note_off_c, 2, 56, 0
2, 5217120, Note_on_c, 2, 59, 50
2, 5217360, Note_off_c, 2, 59, 0
2, 5217360, Note_on_c, 2, 64, 50
2, 5217840, Note_off_c, 2, 64, 0
2, 5218320, Note_on_c, 2, 49, 50
2, 5218560, Note_off_c, 2, 49, 0
2, 5218560, Note_on_c, 2, 52, 50
2, 5219040, Note_off_c, 2, 52, 0
2, 5219040, Note_on_c, 2, 57, 50
2, 5219280, Note_off_c, 2, 57, 0
2, 5219280, Note_on_c, 2, 61, 50
2, 5219760, Note_off_c, 2, 61, 0
2, 5220240, Note_on_c, 2, 49, 50
2, 5220480, Note_off_c, 2, 49, 0
2, 5220480, Note_on_c, 2, 54, 50
2, 5220960, Note_off_c, 2, 54, 0
2, 5220960, Note_on_c, 2, 57, 50
2, 5221200, Note_off_c, 2, 57, 0
2, 5221200, Note_on_c, 2, 61, 50
2, 5221680, Note_off_c, 2, 61, 0
2, 5222160, Note_on_c, 2, 54, 50
2, 5222400, Note_off_c, 2, 54, 0
2, 5222400, Note_on_c, 2, 59, 50
2, 5222880, Note_off_c, 2, 59, 0
2, 5222880, Note_on_c, 2, 63, 50
2, 5223120, Note_off_c, 2, 63, 0
2, 5223120, Note_on_c, 2, 66, 50
2, 5223600, Note_off_c, 2, 66, 0
2, 5224080, Note_on_c, 2, 52, 50
2, 5224320, Note_off_c, 2, 52, 0
2, 5224320, Note_on_c, 2, 56, 50
2, 5224800, Note_off_c, 2, 56, 0
2, 5224800, Note_on_c, 2, 59, 50
2, 5225040, Note_off_c, 2, 59, 0
2, 5225040, Note_on_c, 2, 64, 50
2, 5225520, Note_off_c, 2, 64, 0
2, 5226000, Note_on_c, 2, 49, 50
2, 5226240, Note_off_c, 2, 49, 0
2, 5226240, Note_on_c, 2, 52, 50
2, 5226720, Note_off_c, 2, 52, 0
2, 5226720, Note_on_c, 2, 57, 50
2, 5226960, Note_off_c, 2, 57, 0
2, 5226960, Note_on_c, 2, 61, 50
2, 5227200, Note_off_c, 2, 61, 0
2, 5227200, Note_on_c, 2, 54, 50
2, 5227920, Note_off_c, 2, 54, 0
2, 5227920, Note_on_c, 2, 54, 50
2, 5228400, Note_off_c, 2, 54, 0
2, 5228400, Note_on_c, 2, 47, 50
2, 5228640, Note_off_c, 2, 47, 0
2, 5228640, Note_on_c, 2, 45, 50
2, 5228880, Note_off_c, 2, 45, 0
2, 5228880, Note_on_c, 2, 47, 50
2, 5229120, Note_off_c, 2, 47, 0
2, 5229120, Note_on_c, 2, 54, 50
2, 5229840, Note_off_c, 2, 54, 0
2, 5229840, Note_on_c, 2, 54, 50
2, 5230320, Note_off_c, 2, 54, 0
2, 5230320, Note_on_c, 2, 54, 50
2, 5230560, Note_off_c, 2, 54, 0
2, 5230560, Note_on_c, 2, 49, 50
2, 5230800, Note_off_c, 2, 49, 0
2, 5230800, Note_on_c, 2, 52, 50
2, 5231040, Note_off_c, 2, 52, 0
2, 5231040, Note_on_c, 2, 54, 50
2, 5232960, Note_off_c, 2, 54, 0
2, 5232960, Note_on_c, 2, 54, 50
2, 5233200, Note_off_c, 2, 54, 0
2, 5233200, Note_on_c, 2, 59, 50
2, 5233680, Note_off_c, 2, 59, 0
2, 5233680, Note_on_c, 2, 59, 50
2, 5234160, Note_off_c, 2, 59, 0
2, 5234160, Note_on_c, 2, 59, 50
2, 5234640, Note_off_c, 2, 59, 0
2, 5234640, Note_on_c, 2, 54, 50
2, 5235120, Note_off_c, 2, 54, 0
2, 5235840, Note_on_c, 2, 68, 50
2, 5236080, Note_off_c, 2, 68, 0
2, 5236800, Note_on_c, 2, 68, 50
2, 5237040, Note_off_c, 2, 68, 0
2, 5237760, Note_on_c, 2, 63, 50
2, 5238000, Note_off_c, 2, 63, 0
2, 5238000, Note_on_c, 2, 47, 50
2, 5238240, Note_off_c, 2, 47, 0
2, 5238240, Note_on_c, 2, 46, 50
2, 5238480, Note_off_c, 2, 46, 0
2, 5238480, Note_on_c, 2, 47, 50
2, 5238720, Note_off_c, 2, 47, 0
2, 5238720, Note_on_c, 2, 48, 50
2, 5238960, Note_off_c, 2, 48, 0
2, 5238960, Note_on_c, 2, 49, 50
2, 5240880, Note_off_c, 2, 49, 0
2, 5240880, Note_on_c, 2, 56, 50
2, 5242800, Note_off_c, 2, 56, 0
2, 5243520, Note_on_c, 2, 68, 50
2, 5243760, Note_off_c, 2, 68, 0
2, 5244480, Note_on_c, 2, 68, 50
2, 5244720, Note_off_c, 2, 68, 0
2, 5245440, Note_on_c, 2, 63, 50
2, 5245680, Note_off_c, 2, 63, 0
2, 5245680, Note_on_c, 2, 47, 50
2, 5245920, Note_off_c, 2, 47, 0
2, 5245920, Note_on_c, 2, 46, 50
2, 5246160, Note_off_c, 2, 46, 0
2, 5246160, Note_on_c, 2, 47, 50
2, 5246400, Note_off_c, 2, 47, 0
2, 5246400, Note_on_c, 2, 48, 50
2, 5246640, Note_off_c, 2, 48, 0
2, 5246640, Note_on_c, 2, 49, 50
2, 5248560, Note_off_c, 2, 49, 0
2, 5249040, Note_on_c, 2, 56, 50
2, 5250000, Note_off_c, 2, 56, 0
2, 5250000, Note_on_c, 2, 51, 50
2, 5250480, Note_off_c, 2, 51, 0
2, 5250480, Note_on_c, 2, 49, 50
2, 5251440, Note_off_c, 2, 49, 0
2, 5251440, Note_on_c, 2, 47, 50
2, 5252400, Note_off_c, 2, 47, 0
2, 5256240, Note_on_c, 2, 63, 50
2, 5256720, Note_off_c, 2, 63, 0
2, 5256720, Note_on_c, 2, 63, 50
2, 5257200, Note_off_c, 2, 63, 0
2, 5257200, Note_on_c, 2, 63, 50
2, 5257680, Note_off_c, 2, 63, 0
2, 5257680, Note_on_c, 2, 61, 50
2, 5257800, Note_off_c, 2, 61, 0
2, 5257800, Note_on_c, 2, 59, 50
2, 5257920, Note_off_c, 2, 59, 0
2, 5257920, Note_on_c, 2, 56, 50
2, 5258160, Note_off_c, 2, 56, 0
2, 5259120, Note_on_c, 2, 47, 50
2, 5260080, Note_off_c, 2, 47, 0
2, 5260080, Note_on_c, 2, 45, 50
2, 5260440, Note_off_c, 2, 45, 0
2, 5260440, Note_on_c, 2, 49, 50
2, 5260800, Note_off_c, 2, 49, 0
2, 5261040, Note_on_c, 2, 45, 50
2, 5261400, Note_off_c, 2, 45, 0
2, 5261400, Note_on_c, 2, 49, 50
2, 5261760, Note_off_c, 2, 49, 0
2, 5262000, Note_on_c, 2, 64, 50
2, 5263920, Note_off_c, 2, 64, 0
2, 5268000, Note_on_c, 2, 74, 50
2, 5268360, Note_off_c, 2, 74, 0
2, 5268360, Note_on_c, 2, 71, 50
2, 5268480, Note_off_c, 2, 71, 0
2, 5268480, Note_on_c, 2, 66, 50
2, 5268720, Note_off_c, 2, 66, 0
2, 5268720, Note_on_c, 2, 74, 50
2, 5268960, Note_off_c, 2, 74, 0
2, 5269080, Note_on_c, 2, 71, 50
2, 5269320, Note_off_c, 2, 71, 0
2, 5269320, Note_on_c, 2, 66, 50
2, 5269440, Note_off_c, 2, 66, 0
2, 5269440, Note_on_c, 2, 65, 50
2, 5269560, Note_off_c, 2, 65, 0
2, 5269560, Note_on_c, 2, 66, 50
2, 5269680, Note_off_c, 2, 66, 0
2, 5269920, Note_on_c, 2, 74, 50
2, 5270280, Note_off_c, 2, 74, 0
2, 5270280, Note_on_c, 2, 71, 50
2, 5270400, Note_off_c, 2, 71, 0
2, 5270400, Note_on_c, 2, 67, 50
2, 5270640, Note_off_c, 2, 67, 0
2, 5271120, Note_on_c, 2, 61, 50
2, 5271360, Note_off_c, 2, 61, 0
2, 5271360, Note_on_c, 2, 62, 50
2, 5271960, Note_off_c, 2, 62, 0
2, 5272080, Note_on_c, 2, 69, 50
2, 5272320, Note_off_c, 2, 69, 0
2, 5272320, Note_on_c, 2, 66, 50
2, 5272440, Note_off_c, 2, 66, 0
2, 5273040, Note_on_c, 2, 62, 50
2, 5273280, Note_off_c, 2, 62, 0
2, 5273280, Note_on_c, 2, 64, 50
2, 5273520, Note_off_c, 2, 64, 0
2, 5273520, Note_on_c, 2, 64, 50
2, 5273760, Note_off_c, 2, 64, 0
2, 5273760, Note_on_c, 2, 64, 50
2, 5274720, Note_off_c, 2, 64, 0
2, 5274960, Note_on_c, 2, 61, 50
2, 5275200, Note_off_c, 2, 61, 0
2, 5275200, Note_on_c, 2, 62, 50
2, 5275440, Note_off_c, 2, 62, 0
2, 5275440, Note_on_c, 2, 62, 50
2, 5275800, Note_off_c, 2, 62, 0
2, 5275920, Note_on_c, 2, 69, 50
2, 5276160, Note_off_c, 2, 69, 0
2, 5276160, Note_on_c, 2, 66, 50
2, 5276760, Note_off_c, 2, 66, 0
2, 5276880, Note_on_c, 2, 62, 50
2, 5277120, Note_off_c, 2, 62, 0
2, 5277120, Note_on_c, 2, 69, 50
2, 5278080, Note_off_c, 2, 69, 0
2, 5278320, Note_on_c, 2, 74, 50
2, 5278680, Note_off_c, 2, 74, 0
2, 5278800, Note_on_c, 2, 71, 50
2, 5279640, Note_off_c, 2, 71, 0
2, 5279760, Note_on_c, 2, 67, 50
2, 5280000, Note_off_c, 2, 67, 0
2, 5280000, Note_on_c, 2, 64, 50
2, 5280600, Note_off_c, 2, 64, 0
2, 5280720, Note_on_c, 2, 69, 50
2, 5280960, Note_off_c, 2, 69, 0
2, 5280960, Note_on_c, 2, 66, 50
2, 5281440, Note_off_c, 2, 66, 0
2, 5281440, Note_on_c, 2, 62, 50
2, 5282040, Note_off_c, 2, 62, 0
2, 5282400, Note_on_c, 2, 69, 50
2, 5282640, Note_off_c, 2, 69, 0
2, 5282640, Note_on_c, 2, 74, 50
2, 5282880, Note_off_c, 2, 74, 0
2, 5282880, Note_on_c, 2, 71, 50
2, 5283480, Note_off_c, 2, 71, 0
2, 5283600, Note_on_c, 2, 67, 50
2, 5283840, Note_off_c, 2, 67, 0
2, 5284560, Note_on_c, 2, 61, 50
2, 5284800, Note_off_c, 2, 61, 0
2, 5284800, Note_on_c, 2, 62, 50
2, 5285040, Note_off_c, 2, 62, 0
2, 5285280, Note_on_c, 2, 74, 50
2, 5285640, Note_off_c, 2, 74, 0
2, 5285640, Note_on_c, 2, 71, 50
2, 5285760, Note_off_c, 2, 71, 0
2, 5285760, Note_on_c, 2, 66, 50
2, 5286000, Note_off_c, 2, 66, 0
2, 5286000, Note_on_c, 2, 74, 50
2, 5286240, Note_off_c, 2, 74, 0
2, 5286360, Note_on_c, 2, 71, 50
2, 5286600, Note_off_c, 2, 71, 0
2, 5286600, Note_on_c, 2, 66, 50
2, 5286720, Note_off_c, 2, 66, 0
2, 5286720, Note_on_c, 2, 65, 50
2, 5286840, Note_off_c, 2, 65, 0
2, 5286840, Note_on_c, 2, 66, 50
2, 5286960, Note_off_c, 2, 66, 0
2, 5287200, Note_on_c, 2, 74, 50
2, 5287560, Note_off_c, 2, 74, 0
2, 5287560, Note_on_c, 2, 71, 50
2, 5287680, Note_off_c, 2, 71, 0
2, 5287680, Note_on_c, 2, 67, 50
2, 5287920, Note_off_c, 2, 67, 0
2, 5287920, Note_on_c, 2, 74, 50
2, 5288640, Note_off_c, 2, 74, 0
2, 5289120, Note_on_c, 2, 69, 50
2, 5289480, Note_off_c, 2, 69, 0
2, 5289600, Note_on_c, 2, 66, 50
2, 5290200, Note_off_c, 2, 66, 0
2, 5290320, Note_on_c, 2, 62, 50
2, 5290560, Note_off_c, 2, 62, 0
2, 5290560, Note_on_c, 2, 64, 50
2, 5291040, Note_off_c, 2, 64, 0
2, 5291040, Note_on_c, 2, 64, 50
2, 5292000, Note_off_c, 2, 64, 0
2, 5292240, Note_on_c, 2, 61, 50
2, 5292480, Note_off_c, 2, 61, 0
2, 5292480, Note_on_c, 2, 62, 50
2, 5292720, Note_off_c, 2, 62, 0
2, 5292720, Note_on_c, 2, 62, 50
2, 5293080, Note_off_c, 2, 62, 0
2, 5293200, Note_on_c, 2, 69, 50
2, 5293440, Note_off_c, 2, 69, 0
2, 5293440, Note_on_c, 2, 66, 50
2, 5294040, Note_off_c, 2, 66, 0
2, 5294160, Note_on_c, 2, 62, 50
2, 5294400, Note_off_c, 2, 62, 0
2, 5294400, Note_on_c, 2, 69, 50
2, 5295360, Note_off_c, 2, 69, 0
2, 5295600, Note_on_c, 2, 74, 50
2, 5295960, Note_off_c, 2, 74, 0
2, 5296080, Note_on_c, 2, 71, 50
2, 5296920, Note_off_c, 2, 71, 0
2, 5297040, Note_on_c, 2, 67, 50
2, 5297280, Note_off_c, 2, 67, 0
2, 5297280, Note_on_c, 2, 64, 50
2, 5297880, Note_off_c, 2, 64, 0
2, 5298000, Note_on_c, 2, 69, 50
2, 5298240, Note_off_c, 2, 69, 0
2, 5298240, Note_on_c, 2, 66, 50
2, 5298720, Note_off_c, 2, 66, 0
2, 5298720, Note_on_c, 2, 62, 50
2, 5299320, Note_off_c, 2, 62, 0
2, 5299680, Note_on_c, 2, 69, 50
2, 5299920, Note_off_c, 2, 69, 0
2, 5299920, Note_on_c, 2, 74, 50
2, 5300160, Note_off_c, 2, 74, 0
2, 5300160, Note_on_c, 2, 71, 50
2, 5300640, Note_off_c, 2, 71, 0
2, 5300640, Note_on_c, 2, 67, 50
2, 5301000, Note_off_c, 2, 67, 0
2, 5301120, Note_on_c, 2, 64, 50
2, 5301720, Note_off_c, 2, 64, 0
2, 5301840, Note_on_c, 2, 61, 50
2, 5302080, Note_off_c, 2, 61, 0
2, 5302080, Note_on_c, 2, 62, 50
2, 5302680, Note_off_c, 2, 62, 0
2, 5302800, Note_on_c, 2, 74, 50
2, 5303040, Note_off_c, 2, 74, 0
2, 5303040, Note_on_c, 2, 74, 50
2, 5303160, Note_off_c, 2, 74, 0
2, 5303160, Note_on_c, 2, 69, 50
2, 5303280, Note_off_c, 2, 69, 0
2, 5303280, Note_on_c, 2, 66, 50
2, 5303520, Note_off_c, 2, 66, 0
2, 5303520, Note_on_c, 2, 72, 50
2, 5303760, Note_off_c, 2, 72, 0
2, 5303760, Note_on_c, 2, 71, 50
2, 5303880, Note_off_c, 2, 71, 0
2, 5303880, Note_on_c, 2, 69, 50
2, 5304000, Note_off_c, 2, 69, 0
2, 5304000, Note_on_c, 2, 69, 50
2, 5304120, Note_off_c, 2, 69, 0
2, 5304120, Note_on_c, 2, 66, 50
2, 5304240, Note_off_c, 2, 66, 0
2, 5304240, Note_on_c, 2, 71, 50
2, 5304480, Note_off_c, 2, 71, 0
2, 5304480, Note_on_c, 2, 69, 50
2, 5304720, Note_off_c, 2, 69, 0
2, 5304720, Note_on_c, 2, 71, 50
2, 5304960, Note_off_c, 2, 71, 0
2, 5304960, Note_on_c, 2, 73, 50
2, 5305440, Note_off_c, 2, 73, 0
2, 5305440, Note_on_c, 2, 74, 50
2, 5305800, Note_off_c, 2, 74, 0
2, 5305920, Note_on_c, 2, 71, 50
2, 5306520, Note_off_c, 2, 71, 0
2, 5306640, Note_on_c, 2, 62, 50
2, 5306880, Note_off_c, 2, 62, 0
2, 5306880, Note_on_c, 2, 66, 50
2, 5307360, Note_off_c, 2, 66, 0
2, 5307360, Note_on_c, 2, 69, 50
2, 5307960, Note_off_c, 2, 69, 0
2, 5308080, Note_on_c, 2, 71, 50
2, 5308320, Note_off_c, 2, 71, 0
2, 5308320, Note_on_c, 2, 69, 50
2, 5308560, Note_off_c, 2, 69, 0
2, 5308560, Note_on_c, 2, 71, 50
2, 5308800, Note_off_c, 2, 71, 0
2, 5308800, Note_on_c, 2, 73, 50
2, 5309040, Note_off_c, 2, 73, 0
2, 5309040, Note_on_c, 2, 73, 50
2, 5309280, Note_off_c, 2, 73, 0
2, 5309280, Note_on_c, 2, 69, 50
2, 5309640, Note_off_c, 2, 69, 0
2, 5309760, Note_on_c, 2, 69, 50
2, 5310240, Note_off_c, 2, 69, 0
2, 5310240, Note_on_c, 2, 74, 50
2, 5310600, Note_off_c, 2, 74, 0
2, 5310600, Note_on_c, 2, 69, 50
2, 5310720, Note_off_c, 2, 69, 0
2, 5310720, Note_on_c, 2, 66, 50
2, 5310960, Note_off_c, 2, 66, 0
2, 5310960, Note_on_c, 2, 72, 50
2, 5311200, Note_off_c, 2, 72, 0
2, 5311200, Note_on_c, 2, 71, 50
2, 5311320, Note_off_c, 2, 71, 0
2, 5311320, Note_on_c, 2, 69, 50
2, 5311560, Note_off_c, 2, 69, 0
2, 5311560, Note_on_c, 2, 66, 50
2, 5311680, Note_off_c, 2, 66, 0
2, 5311680, Note_on_c, 2, 65, 50
2, 5311800, Note_off_c, 2, 65, 0
2, 5311800, Note_on_c, 2, 66, 50
2, 5311920, Note_off_c, 2, 66, 0
2, 5311920, Note_on_c, 2, 71, 50
2, 5312160, Note_off_c, 2, 71, 0
2, 5312160, Note_on_c, 2, 69, 50
2, 5312400, Note_off_c, 2, 69, 0
2, 5312400, Note_on_c, 2, 71, 50
2, 5312640, Note_off_c, 2, 71, 0
2, 5312640, Note_on_c, 2, 73, 50
2, 5313120, Note_off_c, 2, 73, 0
2, 5313120, Note_on_c, 2, 74, 50
2, 5313480, Note_off_c, 2, 74, 0
2, 5313600, Note_on_c, 2, 71, 50
2, 5314200, Note_off_c, 2, 71, 0
2, 5314320, Note_on_c, 2, 62, 50
2, 5314560, Note_off_c, 2, 62, 0
2, 5314560, Note_on_c, 2, 66, 50
2, 5315040, Note_off_c, 2, 66, 0
2, 5315040, Note_on_c, 2, 69, 50
2, 5315640, Note_off_c, 2, 69, 0
2, 5315760, Note_on_c, 2, 71, 50
2, 5316000, Note_off_c, 2, 71, 0
2, 5316000, Note_on_c, 2, 69, 50
2, 5316240, Note_off_c, 2, 69, 0
2, 5316240, Note_on_c, 2, 71, 50
2, 5316480, Note_off_c, 2, 71, 0
2, 5316480, Note_on_c, 2, 73, 50
2, 5316960, Note_off_c, 2, 73, 0
2, 5316960, Note_on_c, 2, 73, 50
2, 5317320, Note_off_c, 2, 73, 0
2, 5317440, Note_on_c, 2, 73, 50
2, 5317680, Note_off_c, 2, 73, 0
2, 5317680, Note_on_c, 2, 64, 50
2, 5317920, Note_off_c, 2, 64, 0
2, 5317920, Note_on_c, 2, 67, 50
2, 5318160, Note_off_c, 2, 67, 0
2, 5318160, Note_on_c, 2, 67, 50
2, 5318400, Note_off_c, 2, 67, 0
2, 5318400, Note_on_c, 2, 66, 50
2, 5318880, Note_off_c, 2, 66, 0
2, 5318880, Note_on_c, 2, 64, 50
2, 5319480, Note_off_c, 2, 64, 0
2, 5320080, Note_on_c, 2, 69, 50
2, 5320320, Note_off_c, 2, 69, 0
2, 5320320, Note_on_c, 2, 66, 50
2, 5320920, Note_off_c, 2, 66, 0
2, 5321040, Note_on_c, 2, 62, 50
2, 5321280, Note_off_c, 2, 62, 0
2, 5321280, Note_on_c, 2, 64, 50
2, 5321760, Note_off_c, 2, 64, 0
2, 5321760, Note_on_c, 2, 67, 50
2, 5322360, Note_off_c, 2, 67, 0
2, 5322480, Note_on_c, 2, 67, 50
2, 5322720, Note_off_c, 2, 67, 0
2, 5322960, Note_on_c, 2, 61, 50
2, 5323200, Note_off_c, 2, 61, 0
2, 5323200, Note_on_c, 2, 62, 50
2, 5323800, Note_off_c, 2, 62, 0
2, 5323920, Note_on_c, 2, 69, 50
2, 5324160, Note_off_c, 2, 69, 0
2, 5324160, Note_on_c, 2, 66, 50
2, 5324760, Note_off_c, 2, 66, 0
2, 5324880, Note_on_c, 2, 62, 50
2, 5325120, Note_off_c, 2, 62, 0
2, 5325120, Note_on_c, 2, 69, 50
2, 5326080, Note_off_c, 2, 69, 0
2, 5326320, Note_on_c, 2, 69, 50
2, 5326680, Note_off_c, 2, 69, 0
2, 5326800, Note_on_c, 2, 74, 50
2, 5327040, Note_off_c, 2, 74, 0
2, 5327040, Note_on_c, 2, 71, 50
2, 5327640, Note_off_c, 2, 71, 0
2, 5327760, Note_on_c, 2, 67, 50
2, 5328000, Note_off_c, 2, 67, 0
2, 5328000, Note_on_c, 2, 64, 50
2, 5328600, Note_off_c, 2, 64, 0
2, 5328720, Note_on_c, 2, 69, 50
2, 5328960, Note_off_c, 2, 69, 0
2, 5328960, Note_on_c, 2, 66, 50
2, 5329440, Note_off_c, 2, 66, 0
2, 5329440, Note_on_c, 2, 62, 50
2, 5329680, Note_off_c, 2, 62, 0
2, 5329680, Note_on_c, 2, 62, 50
2, 5330040, Note_off_c, 2, 62, 0
2, 5330160, Note_on_c, 2, 57, 50
2, 5330880, Note_off_c, 2, 57, 0
2, 5331600, Note_on_c, 2, 67, 50
2, 5331840, Note_off_c, 2, 67, 0
2, 5331840, Note_on_c, 2, 64, 50
2, 5332440, Note_off_c, 2, 64, 0
2, 5332560, Note_on_c, 2, 69, 50
2, 5332800, Note_off_c, 2, 69, 0
2, 5332800, Note_on_c, 2, 66, 50
2, 5333280, Note_off_c, 2, 66, 0
2, 5333280, Note_on_c, 2, 62, 50
2, 5333880, Note_off_c, 2, 62, 0
2, 5334000, Note_on_c, 2, 57, 50
2, 5334960, Note_off_c, 2, 57, 0
2, 5335440, Note_on_c, 2, 67, 50
2, 5335680, Note_off_c, 2, 67, 0
2, 5335680, Note_on_c, 2, 64, 50
2, 5336280, Note_off_c, 2, 64, 0
2, 5336400, Note_on_c, 2, 69, 50
2, 5336640, Note_off_c, 2, 69, 0
2, 5336640, Note_on_c, 2, 74, 50
2, 5337120, Note_off_c, 2, 74, 0
2, 5337120, Note_on_c, 2, 71, 50
2, 5337480, Note_off_c, 2, 71, 0
2, 5337600, Note_on_c, 2, 66, 50
2, 5338080, Note_off_c, 2, 66, 0
2, 5338080, Note_on_c, 2, 74, 50
2, 5338440, Note_off_c, 2, 74, 0
2, 5338560, Note_on_c, 2, 71, 50
2, 5339160, Note_off_c, 2, 71, 0
2, 5339280, Note_on_c, 2, 67, 50
2, 5339520, Note_off_c, 2, 67, 0
2, 5339520, Note_on_c, 2, 64, 50
2, 5340120, Note_off_c, 2, 64, 0
2, 5340240, Note_on_c, 2, 61, 50
2, 5340480, Note_off_c, 2, 61, 0
2, 5340480, Note_on_c, 2, 62, 50
2, 5340960, Note_off_c, 2, 62, 0
2, 5340960, Note_on_c, 2, 62, 50
2, 5341320, Note_off_c, 2, 62, 0
2, 5341320, Note_on_c, 2, 60, 50
2, 5341440, Note_off_c, 2, 60, 0
2, 5341440, Note_on_c, 2, 58, 50
2, 5341560, Note_off_c, 2, 58, 0
2, 5341560, Note_on_c, 2, 62, 50
2, 5341920, Note_off_c, 2, 62, 0
2, 5342040, Note_on_c, 2, 60, 50
2, 5343240, Note_off_c, 2, 60, 0
2, 5343240, Note_on_c, 2, 60, 50
2, 5343960, Note_off_c, 2, 60, 0
2, 5343960, Note_on_c, 2, 60, 50
2, 5345880, Note_off_c, 2, 60, 0
2, 5345880, Note_on_c, 2, 71, 50
2, 5346120, Note_off_c, 2, 71, 0
2, 5346120, Note_on_c, 2, 66, 50
2, 5346240, Note_off_c, 2, 66, 0
2, 5346240, Note_on_c, 2, 65, 50
2, 5346360, Note_off_c, 2, 65, 0
2, 5346360, Note_on_c, 2, 66, 50
2, 5346480, Note_off_c, 2, 66, 0
2, 5346480, Note_on_c, 2, 60, 50
2, 5348400, Note_off_c, 2, 60, 0
2, 5348400, Note_on_c, 2, 71, 50
2, 5348640, Note_off_c, 2, 71, 0
2, 5348640, Note_on_c, 2, 69, 50
2, 5348880, Note_off_c, 2, 69, 0
2, 5348880, Note_on_c, 2, 71, 50
2, 5349120, Note_off_c, 2, 71, 0
2, 5349120, Note_on_c, 2, 73, 50
2, 5349600, Note_off_c, 2, 73, 0
2, 5349600, Note_on_c, 2, 74, 50
2, 5349960, Note_off_c, 2, 74, 0
2, 5349960, Note_on_c, 2, 60, 50
2, 5351880, Note_off_c, 2, 60, 0
2, 5351880, Note_on_c, 2, 69, 50
2, 5352480, Note_off_c, 2, 69, 0
2, 5352480, Note_on_c, 2, 73, 50
2, 5352720, Note_off_c, 2, 73, 0
2, 5352720, Note_on_c, 2, 74, 50
2, 5352960, Note_off_c, 2, 74, 0
2, 5352960, Note_on_c, 2, 76, 50
2, 5353200, Note_off_c, 2, 76, 0
2, 5353200, Note_on_c, 2, 78, 50
2, 5353440, Note_off_c, 2, 78, 0
2, 5353440, Note_on_c, 2, 79, 50
2, 5353800, Note_off_c, 2, 79, 0
2, 5353800, Note_on_c, 2, 60, 50
2, 5355720, Note_off_c, 2, 60, 0
2, 5365080, Note_on_c, 2, 73, 50
2, 5365200, Note_off_c, 2, 73, 0
2, 5365200, Note_on_c, 2, 74, 50
2, 5365680, Note_off_c, 2, 74, 0
2, 5365680, Note_on_c, 2, 76, 50
2, 5366160, Note_off_c, 2, 76, 0
2, 5366160, Note_on_c, 2, 76, 50
2, 5366640, Note_off_c, 2, 76, 0
2, 5366640, Note_on_c, 2, 76, 50
2, 5367000, Note_off_c, 2, 76, 0
2, 5367000, Note_on_c, 2, 74, 50
2, 5367120, Note_off_c, 2, 74, 0
2, 5367120, Note_on_c, 2, 74, 50
2, 5367480, Note_off_c, 2, 74, 0
2, 5367480, Note_on_c, 2, 74, 50
2, 5367600, Note_off_c, 2, 74, 0
2, 5367600, Note_on_c, 2, 76, 50
2, 5367960, Note_off_c, 2, 76, 0
2, 5367960, Note_on_c, 2, 74, 50
2, 5368560, Note_off_c, 2, 74, 0
2, 5368560, Note_on_c, 2, 72, 50
2, 5368920, Note_off_c, 2, 72, 0
2, 5368920, Note_on_c, 2, 74, 50
2, 5369400, Note_off_c, 2, 74, 0
2, 5369400, Note_on_c, 2, 72, 50
2, 5370480, Note_off_c, 2, 72, 0
2, 5373240, Note_on_c, 2, 73, 50
2, 5373360, Note_off_c, 2, 73, 0
2, 5373360, Note_on_c, 2, 76, 50
2, 5373840, Note_off_c, 2, 76, 0
2, 5373840, Note_on_c, 2, 76, 50
2, 5374320, Note_off_c, 2, 76, 0
2, 5374320, Note_on_c, 2, 76, 50
2, 5374800, Note_off_c, 2, 76, 0
2, 5374800, Note_on_c, 2, 74, 50
2, 5375160, Note_off_c, 2, 74, 0
2, 5375160, Note_on_c, 2, 76, 50
2, 5375760, Note_off_c, 2, 76, 0
2, 5375760, Note_on_c, 2, 73, 50
2, 5376240, Note_off_c, 2, 73, 0
2, 5376240, Note_on_c, 2, 74, 50
2, 5376600, Note_off_c, 2, 74, 0
2, 5376600, Note_on_c, 2, 73, 50
2, 5377080, Note_off_c, 2, 73, 0
2, 5377080, Note_on_c, 2, 76, 50
2, 5378160, Note_off_c, 2, 76, 0
2, 5380560, Note_on_c, 2, 76, 50
2, 5380920, Note_off_c, 2, 76, 0
2, 5380920, Note_on_c, 2, 79, 50
2, 5381520, Note_off_c, 2, 79, 0
2, 5381520, Note_on_c, 2, 76, 50
2, 5382000, Note_off_c, 2, 76, 0
2, 5382000, Note_on_c, 2, 74, 50
2, 5382360, Note_off_c, 2, 74, 0
2, 5382360, Note_on_c, 2, 72, 50
2, 5382840, Note_off_c, 2, 72, 0
2, 5382840, Note_on_c, 2, 74, 50
2, 5383920, Note_off_c, 2, 74, 0
2, 5384760, Note_on_c, 2, 72, 50
2, 5384880, Note_off_c, 2, 72, 0
2, 5384880, Note_on_c, 2, 74, 50
2, 5385360, Note_off_c, 2, 74, 0
2, 5385360, Note_on_c, 2, 72, 50
2, 5385840, Note_off_c, 2, 72, 0
2, 5385840, Note_on_c, 2, 74, 50
2, 5386320, Note_off_c, 2, 74, 0
2, 5386320, Note_on_c, 2, 72, 50
2, 5386800, Note_off_c, 2, 72, 0
2, 5386800, Note_on_c, 2, 76, 50
2, 5387280, Note_off_c, 2, 76, 0
2, 5387280, Note_on_c, 2, 72, 50
2, 5387640, Note_off_c, 2, 72, 0
2, 5387640, Note_on_c, 2, 72, 50
2, 5388120, Note_off_c, 2, 72, 0
2, 5388120, Note_on_c, 2, 69, 50
2, 5388240, Note_off_c, 2, 69, 0
2, 5388240, Note_on_c, 2, 69, 50
2, 5388600, Note_off_c, 2, 69, 0
2, 5388600, Note_on_c, 2, 73, 50
2, 5389680, Note_off_c, 2, 73, 0
2, 5390040, Note_on_c, 2, 73, 50
2, 5390160, Note_off_c, 2, 73, 0
2, 5390160, Note_on_c, 2, 73, 50
2, 5390520, Note_off_c, 2, 73, 0
2, 5390520, Note_on_c, 2, 74, 50
2, 5391000, Note_off_c, 2, 74, 0
2, 5391000, Note_on_c, 2, 71, 50
2, 5391600, Note_off_c, 2, 71, 0
2, 5391960, Note_on_c, 2, 71, 50
2, 5392440, Note_off_c, 2, 71, 0
2, 5392440, Note_on_c, 2, 69, 50
2, 5394000, Note_off_c, 2, 69, 0
2, 5395800, Note_on_c, 2, 73, 50
2, 5395920, Note_off_c, 2, 73, 0
2, 5395920, Note_on_c, 2, 74, 50
2, 5396280, Note_off_c, 2, 74, 0
2, 5396280, Note_on_c, 2, 73, 50
2, 5396400, Note_off_c, 2, 73, 0
2, 5396400, Note_on_c, 2, 76, 50
2, 5396880, Note_off_c, 2, 76, 0
2, 5396880, Note_on_c, 2, 76, 50
2, 5397240, Note_off_c, 2, 76, 0
2, 5397240, Note_on_c, 2, 76, 50
2, 5397360, Note_off_c, 2, 76, 0
2, 5397360, Note_on_c, 2, 76, 50
2, 5397720, Note_off_c, 2, 76, 0
2, 5397720, Note_on_c, 2, 74, 50
2, 5397840, Note_off_c, 2, 74, 0
2, 5397840, Note_on_c, 2, 74, 50
2, 5398200, Note_off_c, 2, 74, 0
2, 5398200, Note_on_c, 2, 74, 50
2, 5398320, Note_off_c, 2, 74, 0
2, 5398320, Note_on_c, 2, 76, 50
2, 5398680, Note_off_c, 2, 76, 0
2, 5398680, Note_on_c, 2, 74, 50
2, 5399160, Note_off_c, 2, 74, 0
2, 5399160, Note_on_c, 2, 72, 50
2, 5399640, Note_off_c, 2, 72, 0
2, 5399640, Note_on_c, 2, 74, 50
2, 5400120, Note_off_c, 2, 74, 0
2, 5400120, Note_on_c, 2, 72, 50
2, 5401200, Note_off_c, 2, 72, 0
2, 5403960, Note_on_c, 2, 73, 50
2, 5404080, Note_off_c, 2, 73, 0
2, 5404080, Note_on_c, 2, 76, 50
2, 5404560, Note_off_c, 2, 76, 0
2, 5404560, Note_on_c, 2, 76, 50
2, 5405040, Note_off_c, 2, 76, 0
2, 5405040, Note_on_c, 2, 76, 50
2, 5405520, Note_off_c, 2, 76, 0
2, 5405520, Note_on_c, 2, 74, 50
2, 5405880, Note_off_c, 2, 74, 0
2, 5405880, Note_on_c, 2, 76, 50
2, 5406480, Note_off_c, 2, 76, 0
2, 5406480, Note_on_c, 2, 73, 50
2, 5406960, Note_off_c, 2, 73, 0
2, 5406960, Note_on_c, 2, 74, 50
2, 5407320, Note_off_c, 2, 74, 0
2, 5407320, Note_on_c, 2, 73, 50
2, 5407800, Note_off_c, 2, 73, 0
2, 5407800, Note_on_c, 2, 76, 50
2, 5408880, Note_off_c, 2, 76, 0
2, 5411280, Note_on_c, 2, 76, 50
2, 5411640, Note_off_c, 2, 76, 0
2, 5411640, Note_on_c, 2, 79, 50
2, 5412240, Note_off_c, 2, 79, 0
2, 5412240, Note_on_c, 2, 76, 50
2, 5412720, Note_off_c, 2, 76, 0
2, 5412720, Note_on_c, 2, 74, 50
2, 5413080, Note_off_c, 2, 74, 0
2, 5413080, Note_on_c, 2, 72, 50
2, 5413560, Note_off_c, 2, 72, 0
2, 5413560, Note_on_c, 2, 74, 50
2, 5414640, Note_off_c, 2, 74, 0
2, 5415480, Note_on_c, 2, 72, 50
2, 5415600, Note_off_c, 2, 72, 0
2, 5415600, Note_on_c, 2, 74, 50
2, 5416080, Note_off_c, 2, 74, 0
2, 5416080, Note_on_c, 2, 72, 50
2, 5416440, Note_off_c, 2, 72, 0
2, 5416440, Note_on_c, 2, 74, 50
2, 5416920, Note_off_c, 2, 74, 0
2, 5416920, Note_on_c, 2, 72, 50
2, 5417400, Note_off_c, 2, 72, 0
2, 5417400, Note_on_c, 2, 76, 50
2, 5417880, Note_off_c, 2, 76, 0
2, 5417880, Note_on_c, 2, 74, 50
2, 5418000, Note_off_c, 2, 74, 0
2, 5418000, Note_on_c, 2, 72, 50
2, 5418360, Note_off_c, 2, 72, 0
2, 5418360, Note_on_c, 2, 69, 50
2, 5418840, Note_off_c, 2, 69, 0
2, 5418840, Note_on_c, 2, 69, 50
2, 5418960, Note_off_c, 2, 69, 0
2, 5418960, Note_on_c, 2, 69, 50
2, 5419320, Note_off_c, 2, 69, 0
2, 5419320, Note_on_c, 2, 73, 50
2, 5420400, Note_off_c, 2, 73, 0
2, 5420760, Note_on_c, 2, 73, 50
2, 5420880, Note_off_c, 2, 73, 0
2, 5420880, Note_on_c, 2, 73, 50
2, 5421240, Note_off_c, 2, 73, 0
2, 5421240, Note_on_c, 2, 74, 50
2, 5421720, Note_off_c, 2, 74, 0
2, 5421720, Note_on_c, 2, 71, 50
2, 5422320, Note_off_c, 2, 71, 0
2, 5422680, Note_on_c, 2, 71, 50
2, 5423160, Note_off_c, 2, 71, 0
2, 5423160, Note_on_c, 2, 69, 50
2, 5424720, Note_off_c, 2, 69, 0
2, 5426040, Note_on_c, 2, 73, 50
2, 5426520, Note_off_c, 2, 73, 0
2, 5426520, Note_on_c, 2, 76, 50
2, 5427000, Note_off_c, 2, 76, 0
2, 5427000, Note_on_c, 2, 73, 50
2, 5427120, Note_off_c, 2, 73, 0
2, 5427120, Note_on_c, 2, 76, 50
2, 5427600, Note_off_c, 2, 76, 0
2, 5427600, Note_on_c, 2, 76, 50
2, 5427960, Note_off_c, 2, 76, 0
2, 5427960, Note_on_c, 2, 73, 50
2, 5428080, Note_off_c, 2, 73, 0
2, 5428080, Note_on_c, 2, 76, 50
2, 5428440, Note_off_c, 2, 76, 0
2, 5428440, Note_on_c, 2, 78, 50
2, 5428920, Note_off_c, 2, 78, 0
2, 5428920, Note_on_c, 2, 76, 50
2, 5430000, Note_off_c, 2, 76, 0
2, 5430360, Note_on_c, 2, 75, 50
2, 5430480, Note_off_c, 2, 75, 0
2, 5430480, Note_on_c, 2, 76, 50
2, 5430960, Note_off_c, 2, 76, 0
2, 5430960, Note_on_c, 2, 75, 50
2, 5431440, Note_off_c, 2, 75, 0
2, 5431440, Note_on_c, 2, 75, 50
2, 5431800, Note_off_c, 2, 75, 0
2, 5431800, Note_on_c, 2, 73, 50
2, 5431920, Note_off_c, 2, 73, 0
2, 5431920, Note_on_c, 2, 75, 50
2, 5432400, Note_off_c, 2, 75, 0
2, 5432400, Note_on_c, 2, 76, 50
2, 5432760, Note_off_c, 2, 76, 0
2, 5432760, Note_on_c, 2, 75, 50
2, 5434320, Note_off_c, 2, 75, 0
2, 5434680, Note_on_c, 2, 75, 50
2, 5434800, Note_off_c, 2, 75, 0
2, 5434800, Note_on_c, 2, 76, 50
2, 5435160, Note_off_c, 2, 76, 0
2, 5435160, Note_on_c, 2, 75, 50
2, 5435280, Note_off_c, 2, 75, 0
2, 5435280, Note_on_c, 2, 76, 50
2, 5435640, Note_off_c, 2, 76, 0
2, 5435640, Note_on_c, 2, 75, 50
2, 5435760, Note_off_c, 2, 75, 0
2, 5435760, Note_on_c, 2, 76, 50
2, 5436240, Note_off_c, 2, 76, 0
2, 5436240, Note_on_c, 2, 78, 50
2, 5436600, Note_off_c, 2, 78, 0
2, 5436600, Note_on_c, 2, 80, 50
2, 5437200, Note_off_c, 2, 80, 0
2, 5437200, Note_on_c, 2, 78, 50
2, 5437560, Note_off_c, 2, 78, 0
2, 5437560, Note_on_c, 2, 76, 50
2, 5437680, Note_off_c, 2, 76, 0
2, 5437680, Note_on_c, 2, 78, 50
2, 5438160, Note_off_c, 2, 78, 0
2, 5438520, Note_on_c, 2, 77, 50
2, 5438640, Note_off_c, 2, 77, 0
2, 5438640, Note_on_c, 2, 78, 50
2, 5439120, Note_off_c, 2, 78, 0
2, 5439120, Note_on_c, 2, 78, 50
2, 5439600, Note_off_c, 2, 78, 0
2, 5439600, Note_on_c, 2, 73, 50
2, 5440080, Note_off_c, 2, 73, 0
2, 5440440, Note_on_c, 2, 73, 50
2, 5440560, Note_off_c, 2, 73, 0
2, 5440560, Note_on_c, 2, 75, 50
2, 5441040, Note_off_c, 2, 75, 0
2, 5441040, Note_on_c, 2, 75, 50
2, 5441400, Note_off_c, 2, 75, 0
2, 5441400, Note_on_c, 2, 76, 50
2, 5441880, Note_off_c, 2, 76, 0
2, 5441880, Note_on_c, 2, 74, 50
2, 5442000, Note_off_c, 2, 74, 0
2, 5442000, Note_on_c, 2, 74, 50
2, 5442360, Note_off_c, 2, 74, 0
2, 5442360, Note_on_c, 2, 74, 50
2, 5442480, Note_off_c, 2, 74, 0
2, 5442480, Note_on_c, 2, 76, 50
2, 5442960, Note_off_c, 2, 76, 0
2, 5442960, Note_on_c, 2, 76, 50
2, 5443440, Note_off_c, 2, 76, 0
2, 5443440, Note_on_c, 2, 76, 50
2, 5443800, Note_off_c, 2, 76, 0
2, 5443800, Note_on_c, 2, 74, 50
2, 5444280, Note_off_c, 2, 74, 0
2, 5444280, Note_on_c, 2, 74, 50
2, 5444400, Note_off_c, 2, 74, 0
2, 5444400, Note_on_c, 2, 76, 50
2, 5444760, Note_off_c, 2, 76, 0
2, 5444760, Note_on_c, 2, 74, 50
2, 5445360, Note_off_c, 2, 74, 0
2, 5445360, Note_on_c, 2, 72, 50
2, 5445720, Note_off_c, 2, 72, 0
2, 5445720, Note_on_c, 2, 74, 50
2, 5446200, Note_off_c, 2, 74, 0
2, 5446200, Note_on_c, 2, 72, 50
2, 5447280, Note_off_c, 2, 72, 0
2, 5450040, Note_on_c, 2, 73, 50
2, 5450160, Note_off_c, 2, 73, 0
2, 5450160, Note_on_c, 2, 76, 50
2, 5450640, Note_off_c, 2, 76, 0
2, 5450640, Note_on_c, 2, 76, 50
2, 5451000, Note_off_c, 2, 76, 0
2, 5451000, Note_on_c, 2, 74, 50
2, 5451120, Note_off_c, 2, 74, 0
2, 5451120, Note_on_c, 2, 76, 50
2, 5451480, Note_off_c, 2, 76, 0
2, 5451480, Note_on_c, 2, 74, 50
2, 5451960, Note_off_c, 2, 74, 0
2, 5451960, Note_on_c, 2, 76, 50
2, 5452560, Note_off_c, 2, 76, 0
2, 5452560, Note_on_c, 2, 73, 50
2, 5453040, Note_off_c, 2, 73, 0
2, 5453040, Note_on_c, 2, 74, 50
2, 5453400, Note_off_c, 2, 74, 0
2, 5453400, Note_on_c, 2, 73, 50
2, 5453880, Note_off_c, 2, 73, 0
2, 5453880, Note_on_c, 2, 76, 50
2, 5454960, Note_off_c, 2, 76, 0
2, 5457360, Note_on_c, 2, 76, 50
2, 5457720, Note_off_c, 2, 76, 0
2, 5457720, Note_on_c, 2, 79, 50
2, 5458320, Note_off_c, 2, 79, 0
2, 5458320, Note_on_c, 2, 76, 50
2, 5458680, Note_off_c, 2, 76, 0
2, 5458680, Note_on_c, 2, 76, 50
2, 5458800, Note_off_c, 2, 76, 0
2, 5458800, Note_on_c, 2, 74, 50
2, 5459160, Note_off_c, 2, 74, 0
2, 5459160, Note_on_c, 2, 74, 50
2, 5459280, Note_off_c, 2, 74, 0
2, 5459280, Note_on_c, 2, 72, 50
2, 5459640, Note_off_c, 2, 72, 0
2, 5459640, Note_on_c, 2, 74, 50
2, 5460720, Note_off_c, 2, 74, 0
2, 5461560, Note_on_c, 2, 72, 50
2, 5461680, Note_off_c, 2, 72, 0
2, 5461680, Note_on_c, 2, 74, 50
2, 5462160, Note_off_c, 2, 74, 0
2, 5462160, Note_on_c, 2, 72, 50
2, 5462520, Note_off_c, 2, 72, 0
2, 5462520, Note_on_c, 2, 74, 50
2, 5462640, Note_off_c, 2, 74, 0
2, 5462640, Note_on_c, 2, 74, 50
2, 5463000, Note_off_c, 2, 74, 0
2, 5463000, Note_on_c, 2, 72, 50
2, 5463120, Note_off_c, 2, 72, 0
2, 5463120, Note_on_c, 2, 72, 50
2, 5463480, Note_off_c, 2, 72, 0
2, 5463480, Note_on_c, 2, 76, 50
2, 5463600, Note_off_c, 2, 76, 0
2, 5463600, Note_on_c, 2, 76, 50
2, 5464080, Note_off_c, 2, 76, 0
2, 5464080, Note_on_c, 2, 72, 50
2, 5464440, Note_off_c, 2, 72, 0
2, 5464440, Note_on_c, 2, 69, 50
2, 5464920, Note_off_c, 2, 69, 0
2, 5464920, Note_on_c, 2, 69, 50
2, 5465040, Note_off_c, 2, 69, 0
2, 5465040, Note_on_c, 2, 69, 50
2, 5465400, Note_off_c, 2, 69, 0
2, 5465400, Note_on_c, 2, 73, 50
2, 5466480, Note_off_c, 2, 73, 0
2, 5466840, Note_on_c, 2, 73, 50
2, 5467320, Note_off_c, 2, 73, 0
2, 5467320, Note_on_c, 2, 74, 50
2, 5467800, Note_off_c, 2, 74, 0
2, 5467800, Note_on_c, 2, 71, 50
2, 5468400, Note_off_c, 2, 71, 0
2, 5468760, Note_on_c, 2, 71, 50
2, 5469240, Note_off_c, 2, 71, 0
2, 5469240, Note_on_c, 2, 69, 50
2, 5470800, Note_off_c, 2, 69, 0
2, 5472120, Note_on_c, 2, 73, 50
2, 5472600, Note_off_c, 2, 73, 0
2, 5472600, Note_on_c, 2, 76, 50
2, 5473080, Note_off_c, 2, 76, 0
2, 5473080, Note_on_c, 2, 73, 50
2, 5473200, Note_off_c, 2, 73, 0
2, 5473200, Note_on_c, 2, 76, 50
2, 5473680, Note_off_c, 2, 76, 0
2, 5473680, Note_on_c, 2, 76, 50
2, 5474040, Note_off_c, 2, 76, 0
2, 5474040, Note_on_c, 2, 73, 50
2, 5474160, Note_off_c, 2, 73, 0
2, 5474160, Note_on_c, 2, 76, 50
2, 5474520, Note_off_c, 2, 76, 0
2, 5474520, Note_on_c, 2, 78, 50
2, 5475000, Note_off_c, 2, 78, 0
2, 5475000, Note_on_c, 2, 76, 50
2, 5476080, Note_off_c, 2, 76, 0
2, 5476440, Note_on_c, 2, 75, 50
2, 5476560, Note_off_c, 2, 75, 0
2, 5476560, Note_on_c, 2, 76, 50
2, 5477040, Note_off_c, 2, 76, 0
2, 5477040, Note_on_c, 2, 75, 50
2, 5477520, Note_off_c, 2, 75, 0
2, 5477520, Note_on_c, 2, 75, 50
2, 5477880, Note_off_c, 2, 75, 0
2, 5477880, Note_on_c, 2, 73, 50
2, 5478000, Note_off_c, 2, 73, 0
2, 5478000, Note_on_c, 2, 75, 50
2, 5478480, Note_off_c, 2, 75, 0
2, 5478480, Note_on_c, 2, 76, 50
2, 5478840, Note_off_c, 2, 76, 0
2, 5478840, Note_on_c, 2, 75, 50
2, 5480400, Note_off_c, 2, 75, 0
2, 5480760, Note_on_c, 2, 75, 50
2, 5480880, Note_off_c, 2, 75, 0
2, 5480880, Note_on_c, 2, 76, 50
2, 5481240, Note_off_c, 2, 76, 0
2, 5481240, Note_on_c, 2, 75, 50
2, 5481360, Note_off_c, 2, 75, 0
2, 5481360, Note_on_c, 2, 76, 50
2, 5481720, Note_off_c, 2, 76, 0
2, 5481720, Note_on_c, 2, 75, 50
2, 5481840, Note_off_c, 2, 75, 0
2, 5481840, Note_on_c, 2, 76, 50
2, 5482320, Note_off_c, 2, 76, 0
2, 5482320, Note_on_c, 2, 78, 50
2, 5482680, Note_off_c, 2, 78, 0
2, 5482680, Note_on_c, 2, 80, 50
2, 5483280, Note_off_c, 2, 80, 0
2, 5483280, Note_on_c, 2, 78, 50
2, 5483640, Note_off_c, 2, 78, 0
2, 5483640, Note_on_c, 2, 76, 50
2, 5483760, Note_off_c, 2, 76, 0
2, 5483760, Note_on_c, 2, 78, 50
2, 5484240, Note_off_c, 2, 78, 0
2, 5484600, Note_on_c, 2, 77, 50
2, 5484720, Note_off_c, 2, 77, 0
2, 5484720, Note_on_c, 2, 78, 50
2, 5485200, Note_off_c, 2, 78, 0
2, 5485200, Note_on_c, 2, 78, 50
2, 5485680, Note_off_c, 2, 78, 0
2, 5485680, Note_on_c, 2, 73, 50
2, 5486160, Note_off_c, 2, 73, 0
2, 5486520, Note_on_c, 2, 73, 50
2, 5486640, Note_off_c, 2, 73, 0
2, 5486640, Note_on_c, 2, 75, 50
2, 5487120, Note_off_c, 2, 75, 0
2, 5487120, Note_on_c, 2, 75, 50
2, 5487480, Note_off_c, 2, 75, 0
2, 5487480, Note_on_c, 2, 76, 50
2, 5487960, Note_off_c, 2, 76, 0
2, 5487960, Note_on_c, 2, 74, 50
2, 5488080, Note_off_c, 2, 74, 0
2, 5488080, Note_on_c, 2, 74, 50
2, 5488440, Note_off_c, 2, 74, 0
2, 5488440, Note_on_c, 2, 74, 50
2, 5488560, Note_off_c, 2, 74, 0
2, 5488560, Note_on_c, 2, 76, 50
2, 5489040, Note_off_c, 2, 76, 0
2, 5489040, Note_on_c, 2, 76, 50
2, 5489520, Note_off_c, 2, 76, 0
2, 5489520, Note_on_c, 2, 76, 50
2, 5489880, Note_off_c, 2, 76, 0
2, 5489880, Note_on_c, 2, 74, 50
2, 5490360, Note_off_c, 2, 74, 0
2, 5490360, Note_on_c, 2, 74, 50
2, 5490480, Note_off_c, 2, 74, 0
2, 5490480, Note_on_c, 2, 76, 50
2, 5490840, Note_off_c, 2, 76, 0
2, 5490840, Note_on_c, 2, 74, 50
2, 5491440, Note_off_c, 2, 74, 0
2, 5491440, Note_on_c, 2, 72, 50
2, 5491800, Note_off_c, 2, 72, 0
2, 5491800, Note_on_c, 2, 74, 50
2, 5492280, Note_off_c, 2, 74, 0
2, 5492280, Note_on_c, 2, 72, 50
2, 5493360, Note_off_c, 2, 72, 0
2, 5496120, Note_on_c, 2, 73, 50
2, 5496240, Note_off_c, 2, 73, 0
2, 5496240, Note_on_c, 2, 76, 50
2, 5496720, Note_off_c, 2, 76, 0
2, 5496720, Note_on_c, 2, 76, 50
2, 5497080, Note_off_c, 2, 76, 0
2, 5497080, Note_on_c, 2, 74, 50
2, 5497200, Note_off_c, 2, 74, 0
2, 5497200, Note_on_c, 2, 76, 50
2, 5497560, Note_off_c, 2, 76, 0
2, 5497560, Note_on_c, 2, 74, 50
2, 5498040, Note_off_c, 2, 74, 0
2, 5498040, Note_on_c, 2, 76, 50
2, 5498640, Note_off_c, 2, 76, 0
2, 5498640, Note_on_c, 2, 73, 50
2, 5499120, Note_off_c, 2, 73, 0
2, 5499120, Note_on_c, 2, 74, 50
2, 5499480, Note_off_c, 2, 74, 0
2, 5499480, Note_on_c, 2, 73, 50
2, 5499960, Note_off_c, 2, 73, 0
2, 5499960, Note_on_c, 2, 76, 50
2, 5501040, Note_off_c, 2, 76, 0
2, 5503440, Note_on_c, 2, 76, 50
2, 5503800, Note_off_c, 2, 76, 0
2, 5503800, Note_on_c, 2, 79, 50
2, 5504400, Note_off_c, 2, 79, 0
2, 5504400, Note_on_c, 2, 76, 50
2, 5504760, Note_off_c, 2, 76, 0
2, 5504760, Note_on_c, 2, 76, 50
2, 5504880, Note_off_c, 2, 76, 0
2, 5504880, Note_on_c, 2, 74, 50
2, 5505240, Note_off_c, 2, 74, 0
2, 5505240, Note_on_c, 2, 74, 50
2, 5505360, Note_off_c, 2, 74, 0
2, 5505360, Note_on_c, 2, 72, 50
2, 5505720, Note_off_c, 2, 72, 0
2, 5505720, Note_on_c, 2, 74, 50
2, 5506800, Note_off_c, 2, 74, 0
2, 5507640, Note_on_c, 2, 72, 50
2, 5507760, Note_off_c, 2, 72, 0
2, 5507760, Note_on_c, 2, 74, 50
2, 5508240, Note_off_c, 2, 74, 0
2, 5508240, Note_on_c, 2, 72, 50
2, 5508600, Note_off_c, 2, 72, 0
2, 5508600, Note_on_c, 2, 74, 50
2, 5508720, Note_off_c, 2, 74, 0
2, 5508720, Note_on_c, 2, 74, 50
2, 5509080, Note_off_c, 2, 74, 0
2, 5509080, Note_on_c, 2, 72, 50
2, 5509200, Note_off_c, 2, 72, 0
2, 5509200, Note_on_c, 2, 72, 50
2, 5509560, Note_off_c, 2, 72, 0
2, 5509560, Note_on_c, 2, 76, 50
2, 5509680, Note_off_c, 2, 76, 0
2, 5509680, Note_on_c, 2, 76, 50
2, 5510160, Note_off_c, 2, 76, 0
2, 5510160, Note_on_c, 2, 72, 50
2, 5510520, Note_off_c, 2, 72, 0
2, 5510520, Note_on_c, 2, 69, 50
2, 5511000, Note_off_c, 2, 69, 0
2, 5511000, Note_on_c, 2, 69, 50
2, 5511120, Note_off_c, 2, 69, 0
2, 5511120, Note_on_c, 2, 69, 50
2, 5511480, Note_off_c, 2, 69, 0
2, 5511480, Note_on_c, 2, 73, 50
2, 5512560, Note_off_c, 2, 73, 0
2, 5512920, Note_on_c, 2, 73, 50
2, 5513400, Note_off_c, 2, 73, 0
2, 5513400, Note_on_c, 2, 74, 50
2, 5513880, Note_off_c, 2, 74, 0
2, 5513880, Note_on_c, 2, 71, 50
2, 5514480, Note_off_c, 2, 71, 0
2, 5514840, Note_on_c, 2, 71, 50
2, 5515320, Note_off_c, 2, 71, 0
2, 5515320, Note_on_c, 2, 69, 50
2, 5516880, Note_off_c, 2, 69, 0
2, 5526480, Note_on_c, 2, 47, 50
2, 5527200, Note_off_c, 2, 47, 0
2, 5527200, Note_on_c, 2, 52, 50
2, 5528400, Note_off_c, 2, 52, 0
2, 5528400, Note_on_c, 2, 48, 50
2, 5529120, Note_off_c, 2, 48, 0
2, 5529120, Note_on_c, 2, 54, 50
2, 5530320, Note_off_c, 2, 54, 0
2, 5530800, Note_on_c, 2, 52, 50
2, 5531280, Note_off_c, 2, 52, 0
2, 5531280, Note_on_c, 2, 57, 50
2, 5531760, Note_off_c, 2, 57, 0
2, 5531760, Note_on_c, 2, 56, 50
2, 5532000, Note_off_c, 2, 56, 0
2, 5532000, Note_on_c, 2, 59, 50
2, 5533680, Note_off_c, 2, 59, 0
2, 5533680, Note_on_c, 2, 57, 50
2, 5533920, Note_off_c, 2, 57, 0
2, 5533920, Note_on_c, 2, 59, 50
2, 5534160, Note_off_c, 2, 59, 0
2, 5534160, Note_on_c, 2, 61, 50
2, 5534400, Note_off_c, 2, 61, 0
2, 5534400, Note_on_c, 2, 61, 50
2, 5534640, Note_off_c, 2, 61, 0
2, 5534640, Note_on_c, 2, 64, 50
2, 5534880, Note_off_c, 2, 64, 0
2, 5534880, Note_on_c, 2, 61, 50
2, 5535600, Note_off_c, 2, 61, 0
2, 5535600, Note_on_c, 2, 59, 50
2, 5535840, Note_off_c, 2, 59, 0
2, 5535840, Note_on_c, 2, 57, 50
2, 5536320, Note_off_c, 2, 57, 0
2, 5536560, Note_on_c, 2, 57, 50
2, 5537040, Note_off_c, 2, 57, 0
2, 5537040, Note_on_c, 2, 56, 50
2, 5537280, Note_off_c, 2, 56, 0
2, 5537280, Note_on_c, 2, 57, 50
2, 5537760, Note_off_c, 2, 57, 0
2, 5537760, Note_on_c, 2, 59, 50
2, 5538000, Note_off_c, 2, 59, 0
2, 5538000, Note_on_c, 2, 52, 50
2, 5539920, Note_off_c, 2, 52, 0
2, 5541840, Note_on_c, 2, 47, 50
2, 5542560, Note_off_c, 2, 47, 0
2, 5542560, Note_on_c, 2, 52, 50
2, 5543760, Note_off_c, 2, 52, 0
2, 5543760, Note_on_c, 2, 48, 50
2, 5544480, Note_off_c, 2, 48, 0
2, 5544480, Note_on_c, 2, 54, 50
2, 5545680, Note_off_c, 2, 54, 0
2, 5546160, Note_on_c, 2, 52, 50
2, 5546640, Note_off_c, 2, 52, 0
2, 5546640, Note_on_c, 2, 57, 50
2, 5547120, Note_off_c, 2, 57, 0
2, 5547120, Note_on_c, 2, 56, 50
2, 5547360, Note_off_c, 2, 56, 0
2, 5547360, Note_on_c, 2, 59, 50
2, 5549040, Note_off_c, 2, 59, 0
2, 5549040, Note_on_c, 2, 57, 50
2, 5549280, Note_off_c, 2, 57, 0
2, 5549280, Note_on_c, 2, 59, 50
2, 5549520, Note_off_c, 2, 59, 0
2, 5549520, Note_on_c, 2, 61, 50
2, 5549760, Note_off_c, 2, 61, 0
2, 5549760, Note_on_c, 2, 61, 50
2, 5550000, Note_off_c, 2, 61, 0
2, 5550000, Note_on_c, 2, 64, 50
2, 5550240, Note_off_c, 2, 64, 0
2, 5550240, Note_on_c, 2, 61, 50
2, 5550960, Note_off_c, 2, 61, 0
2, 5550960, Note_on_c, 2, 59, 50
2, 5551200, Note_off_c, 2, 59, 0
2, 5551200, Note_on_c, 2, 57, 50
2, 5551680, Note_off_c, 2, 57, 0
2, 5551920, Note_on_c, 2, 57, 50
2, 5552400, Note_off_c, 2, 57, 0
2, 5552400, Note_on_c, 2, 56, 50
2, 5552640, Note_off_c, 2, 56, 0
2, 5552640, Note_on_c, 2, 57, 50
2, 5553120, Note_off_c, 2, 57, 0
2, 5553120, Note_on_c, 2, 59, 50
2, 5553360, Note_off_c, 2, 59, 0
2, 5553360, Note_on_c, 2, 57, 50
2, 5555280, Note_off_c, 2, 57, 0
2, 5555760, Note_on_c, 2, 57, 50
2, 5556240, Note_off_c, 2, 57, 0
2, 5556240, Note_on_c, 2, 59, 50
2, 5556720, Note_off_c, 2, 59, 0
2, 5556720, Note_on_c, 2, 61, 50
2, 5557200, Note_off_c, 2, 61, 0
2, 5557200, Note_on_c, 2, 62, 50
2, 5557680, Note_off_c, 2, 62, 0
2, 5557680, Note_on_c, 2, 62, 50
2, 5557920, Note_off_c, 2, 62, 0
2, 5557920, Note_on_c, 2, 62, 50
2, 5558880, Note_off_c, 2, 62, 0
2, 5558880, Note_on_c, 2, 59, 50
2, 5559120, Note_off_c, 2, 59, 0
2, 5559120, Note_on_c, 2, 62, 50
2, 5559600, Note_off_c, 2, 62, 0
2, 5559600, Note_on_c, 2, 62, 50
2, 5559840, Note_off_c, 2, 62, 0
2, 5559840, Note_on_c, 2, 62, 50
2, 5560320, Note_off_c, 2, 62, 0
2, 5560320, Note_on_c, 2, 57, 50
2, 5560560, Note_off_c, 2, 57, 0
2, 5560560, Note_on_c, 2, 59, 50
2, 5560800, Note_off_c, 2, 59, 0
2, 5560800, Note_on_c, 2, 61, 50
2, 5562720, Note_off_c, 2, 61, 0
2, 5562720, Note_on_c, 2, 61, 50
2, 5562960, Note_off_c, 2, 61, 0
2, 5563440, Note_on_c, 2, 57, 50
2, 5563920, Note_off_c, 2, 57, 0
2, 5563920, Note_on_c, 2, 59, 50
2, 5564400, Note_off_c, 2, 59, 0
2, 5564400, Note_on_c, 2, 61, 50
2, 5564880, Note_off_c, 2, 61, 0
2, 5564880, Note_on_c, 2, 62, 50
2, 5565360, Note_off_c, 2, 62, 0
2, 5565360, Note_on_c, 2, 62, 50
2, 5565600, Note_off_c, 2, 62, 0
2, 5565600, Note_on_c, 2, 62, 50
2, 5566800, Note_off_c, 2, 62, 0
2, 5566800, Note_on_c, 2, 62, 50
2, 5567280, Note_off_c, 2, 62, 0
2, 5567280, Note_on_c, 2, 62, 50
2, 5567520, Note_off_c, 2, 62, 0
2, 5567520, Note_on_c, 2, 62, 50
2, 5568000, Note_off_c, 2, 62, 0
2, 5568000, Note_on_c, 2, 57, 50
2, 5568240, Note_off_c, 2, 57, 0
2, 5568240, Note_on_c, 2, 59, 50
2, 5568480, Note_off_c, 2, 59, 0
2, 5568480, Note_on_c, 2, 61, 50
2, 5570400, Note_off_c, 2, 61, 0
2, 5570400, Note_on_c, 2, 61, 50
2, 5570640, Note_off_c, 2, 61, 0
2, 5570640, Note_on_c, 2, 59, 50
2, 5571360, Note_off_c, 2, 59, 0
2, 5571360, Note_on_c, 2, 57, 50
2, 5571840, Note_off_c, 2, 57, 0
2, 5571840, Note_on_c, 2, 56, 50
2, 5572080, Note_off_c, 2, 56, 0
2, 5572080, Note_on_c, 2, 54, 50
2, 5572560, Note_off_c, 2, 54, 0
2, 5572560, Note_on_c, 2, 47, 50
2, 5573280, Note_off_c, 2, 47, 0
2, 5573280, Note_on_c, 2, 52, 50
2, 5574480, Note_off_c, 2, 52, 0
2, 5574480, Note_on_c, 2, 48, 50
2, 5575200, Note_off_c, 2, 48, 0
2, 5575200, Note_on_c, 2, 54, 50
2, 5576400, Note_off_c, 2, 54, 0
2, 5576880, Note_on_c, 2, 52, 50
2, 5577360, Note_off_c, 2, 52, 0
2, 5577360, Note_on_c, 2, 57, 50
2, 5577840, Note_off_c, 2, 57, 0
2, 5577840, Note_on_c, 2, 56, 50
2, 5578080, Note_off_c, 2, 56, 0
2, 5578080, Note_on_c, 2, 59, 50
2, 5579760, Note_off_c, 2, 59, 0
2, 5579760, Note_on_c, 2, 57, 50
2, 5580000, Note_off_c, 2, 57, 0
2, 5580000, Note_on_c, 2, 59, 50
2, 5580240, Note_off_c, 2, 59, 0
2, 5580240, Note_on_c, 2, 61, 50
2, 5580480, Note_off_c, 2, 61, 0
2, 5580480, Note_on_c, 2, 61, 50
2, 5580720, Note_off_c, 2, 61, 0
2, 5580720, Note_on_c, 2, 64, 50
2, 5580960, Note_off_c, 2, 64, 0
2, 5580960, Note_on_c, 2, 61, 50
2, 5581680, Note_off_c, 2, 61, 0
2, 5581680, Note_on_c, 2, 59, 50
2, 5581920, Note_off_c, 2, 59, 0
2, 5581920, Note_on_c, 2, 57, 50
2, 5582400, Note_off_c, 2, 57, 0
2, 5582640, Note_on_c, 2, 57, 50
2, 5583120, Note_off_c, 2, 57, 0
2, 5583120, Note_on_c, 2, 56, 50
2, 5583360, Note_off_c, 2, 56, 0
2, 5583360, Note_on_c, 2, 57, 50
2, 5583840, Note_off_c, 2, 57, 0
2, 5583840, Note_on_c, 2, 59, 50
2, 5584080, Note_off_c, 2, 59, 0
2, 5584080, Note_on_c, 2, 57, 50
2, 5586000, Note_off_c, 2, 57, 0
2, 5595120, Note_on_c, 2, 57, 50
2, 5595360, Note_off_c, 2, 57, 0
2, 5595360, Note_on_c, 2, 59, 50
2, 5595600, Note_off_c, 2, 59, 0
2, 5595600, Note_on_c, 2, 61, 50
2, 5595840, Note_off_c, 2, 61, 0
2, 5595840, Note_on_c, 2, 61, 50
2, 5596080, Note_off_c, 2, 61, 0
2, 5596080, Note_on_c, 2, 64, 50
2, 5596320, Note_off_c, 2, 64, 0
2, 5596320, Note_on_c, 2, 61, 50
2, 5597040, Note_off_c, 2, 61, 0
2, 5597040, Note_on_c, 2, 59, 50
2, 5597280, Note_off_c, 2, 59, 0
2, 5597280, Note_on_c, 2, 57, 50
2, 5597760, Note_off_c, 2, 57, 0
2, 5598000, Note_on_c, 2, 57, 50
2, 5598480, Note_off_c, 2, 57, 0
2, 5598480, Note_on_c, 2, 56, 50
2, 5598720, Note_off_c, 2, 56, 0
2, 5598720, Note_on_c, 2, 57, 50
2, 5599200, Note_off_c, 2, 57, 0
2, 5599200, Note_on_c, 2, 59, 50
2, 5599440, Note_off_c, 2, 59, 0
2, 5599440, Note_on_c, 2, 57, 50
2, 5601360, Note_off_c, 2, 57, 0
2, 5601840, Note_on_c, 2, 57, 50
2, 5602320, Note_off_c, 2, 57, 0
2, 5602320, Note_on_c, 2, 59, 50
2, 5602800, Note_off_c, 2, 59, 0
2, 5602800, Note_on_c, 2, 61, 50
2, 5603280, Note_off_c, 2, 61, 0
2, 5603280, Note_on_c, 2, 62, 50
2, 5603760, Note_off_c, 2, 62, 0
2, 5603760, Note_on_c, 2, 62, 50
2, 5604000, Note_off_c, 2, 62, 0
2, 5604000, Note_on_c, 2, 62, 50
2, 5604960, Note_off_c, 2, 62, 0
2, 5604960, Note_on_c, 2, 59, 50
2, 5605200, Note_off_c, 2, 59, 0
2, 5605200, Note_on_c, 2, 62, 50
2, 5605680, Note_off_c, 2, 62, 0
2, 5605680, Note_on_c, 2, 62, 50
2, 5605920, Note_off_c, 2, 62, 0
2, 5605920, Note_on_c, 2, 62, 50
2, 5606400, Note_off_c, 2, 62, 0
2, 5606400, Note_on_c, 2, 57, 50
2, 5606640, Note_off_c, 2, 57, 0
2, 5606640, Note_on_c, 2, 59, 50
2, 5606880, Note_off_c, 2, 59, 0
2, 5606880, Note_on_c, 2, 61, 50
2, 5608800, Note_off_c, 2, 61, 0
2, 5608800, Note_on_c, 2, 61, 50
2, 5609040, Note_off_c, 2, 61, 0
2, 5609520, Note_on_c, 2, 57, 50
2, 5610000, Note_off_c, 2, 57, 0
2, 5610000, Note_on_c, 2, 59, 50
2, 5610480, Note_off_c, 2, 59, 0
2, 5610480, Note_on_c, 2, 61, 50
2, 5610960, Note_off_c, 2, 61, 0
2, 5610960, Note_on_c, 2, 62, 50
2, 5611440, Note_off_c, 2, 62, 0
2, 5611440, Note_on_c, 2, 62, 50
2, 5611680, Note_off_c, 2, 62, 0
2, 5611680, Note_on_c, 2, 62, 50
2, 5612880, Note_off_c, 2, 62, 0
2, 5612880, Note_on_c, 2, 62, 50
2, 5613360, Note_off_c, 2, 62, 0
2, 5613360, Note_on_c, 2, 62, 50
2, 5613600, Note_off_c, 2, 62, 0
2, 5613600, Note_on_c, 2, 62, 50
2, 5614080, Note_off_c, 2, 62, 0
2, 5614080, Note_on_c, 2, 57, 50
2, 5614320, Note_off_c, 2, 57, 0
2, 5614320, Note_on_c, 2, 59, 50
2, 5614560, Note_off_c, 2, 59, 0
2, 5614560, Note_on_c, 2, 61, 50
2, 5616480, Note_off_c, 2, 61, 0
2, 5616480, Note_on_c, 2, 61, 50
2, 5616720, Note_off_c, 2, 61, 0
2, 5616720, Note_on_c, 2, 59, 50
2, 5617440, Note_off_c, 2, 59, 0
2, 5617440, Note_on_c, 2, 57, 50
2, 5617920, Note_off_c, 2, 57, 0
2, 5617920, Note_on_c, 2, 56, 50
2, 5618160, Note_off_c, 2, 56, 0
2, 5618160, Note_on_c, 2, 54, 50
2, 5618640, Note_off_c, 2, 54, 0
2, 5618640, Note_on_c, 2, 47, 50
2, 5619360, Note_off_c, 2, 47, 0
2, 5619360, Note_on_c, 2, 52, 50
2, 5620560, Note_off_c, 2, 52, 0
2, 5620560, Note_on_c, 2, 48, 50
2, 5621280, Note_off_c, 2, 48, 0
2, 5621280, Note_on_c, 2, 54, 50
2, 5622480, Note_off_c, 2, 54, 0
2, 5622960, Note_on_c, 2, 52, 50
2, 5623440, Note_off_c, 2, 52, 0
2, 5623440, Note_on_c, 2, 57, 50
2, 5623920, Note_off_c, 2, 57, 0
2, 5623920, Note_on_c, 2, 56, 50
2, 5624160, Note_off_c, 2, 56, 0
2, 5624160, Note_on_c, 2, 59, 50
2, 5625840, Note_off_c, 2, 59, 0
2, 5625840, Note_on_c, 2, 57, 50
2, 5626080, Note_off_c, 2, 57, 0
2, 5626080, Note_on_c, 2, 59, 50
2, 5626320, Note_off_c, 2, 59, 0
2, 5626320, Note_on_c, 2, 61, 50
2, 5626560, Note_off_c, 2, 61, 0
2, 5626560, Note_on_c, 2, 61, 50
2, 5626800, Note_off_c, 2, 61, 0
2, 5626800, Note_on_c, 2, 64, 50
2, 5627040, Note_off_c, 2, 64, 0
2, 5627040, Note_on_c, 2, 61, 50
2, 5627760, Note_off_c, 2, 61, 0
2, 5627760, Note_on_c, 2, 59, 50
2, 5628000, Note_off_c, 2, 59, 0
2, 5628000, Note_on_c, 2, 57, 50
2, 5628480, Note_off_c, 2, 57, 0
2, 5628720, Note_on_c, 2, 57, 50
2, 5629200, Note_off_c, 2, 57, 0
2, 5629200, Note_on_c, 2, 56, 50
2, 5629440, Note_off_c, 2, 56, 0
2, 5629440, Note_on_c, 2, 57, 50
2, 5629920, Note_off_c, 2, 57, 0
2, 5629920, Note_on_c, 2, 59, 50
2, 5630160, Note_off_c, 2, 59, 0
2, 5630160, Note_on_c, 2, 57, 50
2, 5632080, Note_off_c, 2, 57, 0
2, 5636880, Note_on_c, 2, 61, 50
2, 5637360, Note_off_c, 2, 61, 0
2, 5637360, Note_on_c, 2, 57, 50
2, 5638800, Note_off_c, 2, 57, 0
2, 5638800, Note_on_c, 2, 56, 50
2, 5639280, Note_off_c, 2, 56, 0
2, 5639280, Note_on_c, 2, 52, 50
2, 5640720, Note_off_c, 2, 52, 0
2, 5640720, Note_on_c, 2, 61, 50
2, 5641200, Note_off_c, 2, 61, 0
2, 5641200, Note_on_c, 2, 57, 50
2, 5642640, Note_off_c, 2, 57, 0
2, 5642640, Note_on_c, 2, 56, 50
2, 5643120, Note_off_c, 2, 56, 0
2, 5643120, Note_on_c, 2, 52, 50
2, 5644560, Note_off_c, 2, 52, 0
2, 5644800, Note_on_c, 2, 49, 50
2, 5645040, Note_off_c, 2, 49, 0
2, 5645040, Note_on_c, 2, 52, 50
2, 5645760, Note_off_c, 2, 52, 0
2, 5645760, Note_on_c, 2, 52, 50
2, 5646000, Note_off_c, 2, 52, 0
2, 5646000, Note_on_c, 2, 54, 50
2, 5646720, Note_off_c, 2, 54, 0
2, 5646720, Note_on_c, 2, 54, 50
2, 5646960, Note_off_c, 2, 54, 0
2, 5646960, Note_on_c, 2, 54, 50
2, 5647680, Note_off_c, 2, 54, 0
2, 5647680, Note_on_c, 2, 49, 50
2, 5647920, Note_off_c, 2, 49, 0
2, 5647920, Note_on_c, 2, 49, 50
2, 5648640, Note_off_c, 2, 49, 0
2, 5648640, Note_on_c, 2, 52, 50
2, 5648880, Note_off_c, 2, 52, 0
2, 5648880, Note_on_c, 2, 50, 50
2, 5650080, Note_off_c, 2, 50, 0
2, 5650080, Note_on_c, 2, 52, 50
2, 5650320, Note_off_c, 2, 52, 0
2, 5650320, Note_on_c, 2, 50, 50
2, 5650560, Note_off_c, 2, 50, 0
2, 5650560, Note_on_c, 2, 49, 50
2, 5650800, Note_off_c, 2, 49, 0
2, 5650800, Note_on_c, 2, 49, 50
2, 5651040, Note_off_c, 2, 49, 0
2, 5651040, Note_on_c, 2, 47, 50
2, 5652240, Note_off_c, 2, 47, 0
2, 5652240, Note_on_c, 2, 45, 50
2, 5652480, Note_off_c, 2, 45, 0
2, 5652480, Note_on_c, 2, 47, 50
2, 5652720, Note_off_c, 2, 47, 0
2, 5652720, Note_on_c, 2, 49, 50
2, 5653200, Note_off_c, 2, 49, 0
2, 5653200, Note_on_c, 2, 52, 50
2, 5653680, Note_off_c, 2, 52, 0
2, 5653680, Note_on_c, 2, 59, 50
2, 5654400, Note_off_c, 2, 59, 0
2, 5654400, Note_on_c, 2, 57, 50
2, 5654640, Note_off_c, 2, 57, 0
2, 5654640, Note_on_c, 2, 57, 50
2, 5655360, Note_off_c, 2, 57, 0
2, 5655360, Note_on_c, 2, 54, 50
2, 5655600, Note_off_c, 2, 54, 0
2, 5655600, Note_on_c, 2, 54, 50
2, 5656560, Note_off_c, 2, 54, 0
2, 5656560, Note_on_c, 2, 50, 50
2, 5656680, Note_off_c, 2, 50, 0
2, 5656680, Note_on_c, 2, 52, 50
2, 5657040, Note_off_c, 2, 52, 0
2, 5657280, Note_on_c, 2, 50, 50
2, 5657400, Note_off_c, 2, 50, 0
2, 5657400, Note_on_c, 2, 52, 50
2, 5657520, Note_off_c, 2, 52, 0
2, 5657520, Note_on_c, 2, 50, 50
2, 5657640, Note_off_c, 2, 50, 0
2, 5657640, Note_on_c, 2, 52, 50
2, 5657760, Note_off_c, 2, 52, 0
2, 5657760, Note_on_c, 2, 50, 50
2, 5658240, Note_off_c, 2, 50, 0
2, 5658240, Note_on_c, 2, 49, 50
2, 5658480, Note_off_c, 2, 49, 0
2, 5658480, Note_on_c, 2, 47, 50
2, 5659920, Note_off_c, 2, 47, 0
2, 5659920, Note_on_c, 2, 45, 50
2, 5660160, Note_off_c, 2, 45, 0
2, 5660160, Note_on_c, 2, 47, 50
2, 5660400, Note_off_c, 2, 47, 0
2, 5660400, Note_on_c, 2, 52, 50
2, 5660880, Note_off_c, 2, 52, 0
2, 5660880, Note_on_c, 2, 52, 50
2, 5661840, Note_off_c, 2, 52, 0
2, 5661840, Note_on_c, 2, 52, 50
2, 5662080, Note_off_c, 2, 52, 0
2, 5662080, Note_on_c, 2, 54, 50
2, 5662320, Note_off_c, 2, 54, 0
2, 5662320, Note_on_c, 2, 55, 50
2, 5663280, Note_off_c, 2, 55, 0
2, 5663760, Note_on_c, 2, 52, 50
2, 5664000, Note_off_c, 2, 52, 0
2, 5664000, Note_on_c, 2, 54, 50
2, 5664240, Note_off_c, 2, 54, 0
2, 5664240, Note_on_c, 2, 54, 50
2, 5664480, Note_off_c, 2, 54, 0
2, 5664480, Note_on_c, 2, 52, 50
2, 5664960, Note_off_c, 2, 52, 0
2, 5664960, Note_on_c, 2, 57, 50
2, 5665200, Note_off_c, 2, 57, 0
2, 5665200, Note_on_c, 2, 61, 50
2, 5665440, Note_off_c, 2, 61, 0
2, 5665440, Note_on_c, 2, 59, 50
2, 5665680, Note_off_c, 2, 59, 0
2, 5665680, Note_on_c, 2, 57, 50
2, 5665920, Note_off_c, 2, 57, 0
2, 5665920, Note_on_c, 2, 59, 50
2, 5666160, Note_off_c, 2, 59, 0
2, 5666160, Note_on_c, 2, 54, 50
2, 5667600, Note_off_c, 2, 54, 0
2, 5667600, Note_on_c, 2, 57, 50
2, 5667840, Note_off_c, 2, 57, 0
2, 5667840, Note_on_c, 2, 54, 50
2, 5668080, Note_off_c, 2, 54, 0
2, 5668080, Note_on_c, 2, 50, 50
2, 5668800, Note_off_c, 2, 50, 0
2, 5668800, Note_on_c, 2, 54, 50
2, 5669040, Note_off_c, 2, 54, 0
2, 5669040, Note_on_c, 2, 59, 50
2, 5669280, Note_off_c, 2, 59, 0
2, 5669280, Note_on_c, 2, 54, 50
2, 5669520, Note_off_c, 2, 54, 0
2, 5669520, Note_on_c, 2, 50, 50
2, 5669760, Note_off_c, 2, 50, 0
2, 5669760, Note_on_c, 2, 52, 50
2, 5670000, Note_off_c, 2, 52, 0
2, 5670000, Note_on_c, 2, 49, 50
2, 5670480, Note_off_c, 2, 49, 0
2, 5670480, Note_on_c, 2, 47, 50
2, 5671440, Note_off_c, 2, 47, 0
2, 5671440, Note_on_c, 2, 61, 50
2, 5671920, Note_off_c, 2, 61, 0
2, 5671920, Note_on_c, 2, 57, 50
2, 5673360, Note_off_c, 2, 57, 0
2, 5673360, Note_on_c, 2, 56, 50
2, 5673840, Note_off_c, 2, 56, 0
2, 5673840, Note_on_c, 2, 52, 50
2, 5675280, Note_off_c, 2, 52, 0
2, 5675520, Note_on_c, 2, 49, 50
2, 5675760, Note_off_c, 2, 49, 0
2, 5675760, Note_on_c, 2, 52, 50
2, 5676480, Note_off_c, 2, 52, 0
2, 5676480, Note_on_c, 2, 52, 50
2, 5676720, Note_off_c, 2, 52, 0
2, 5676720, Note_on_c, 2, 54, 50
2, 5677440, Note_off_c, 2, 54, 0
2, 5677440, Note_on_c, 2, 54, 50
2, 5677680, Note_off_c, 2, 54, 0
2, 5677680, Note_on_c, 2, 54, 50
2, 5678400, Note_off_c, 2, 54, 0
2, 5678400, Note_on_c, 2, 49, 50
2, 5678640, Note_off_c, 2, 49, 0
2, 5678640, Note_on_c, 2, 49, 50
2, 5679360, Note_off_c, 2, 49, 0
2, 5679360, Note_on_c, 2, 52, 50
2, 5679600, Note_off_c, 2, 52, 0
2, 5679600, Note_on_c, 2, 50, 50
2, 5680800, Note_off_c, 2, 50, 0
2, 5680800, Note_on_c, 2, 52, 50
2, 5681040, Note_off_c, 2, 52, 0
2, 5681040, Note_on_c, 2, 50, 50
2, 5681280, Note_off_c, 2, 50, 0
2, 5681280, Note_on_c, 2, 49, 50
2, 5681520, Note_off_c, 2, 49, 0
2, 5681520, Note_on_c, 2, 49, 50
2, 5681760, Note_off_c, 2, 49, 0
2, 5681760, Note_on_c, 2, 47, 50
2, 5682960, Note_off_c, 2, 47, 0
2, 5682960, Note_on_c, 2, 45, 50
2, 5683200, Note_off_c, 2, 45, 0
2, 5683200, Note_on_c, 2, 47, 50
2, 5683440, Note_off_c, 2, 47, 0
2, 5683440, Note_on_c, 2, 49, 50
2, 5683920, Note_off_c, 2, 49, 0
2, 5683920, Note_on_c, 2, 52, 50
2, 5684400, Note_off_c, 2, 52, 0
2, 5684400, Note_on_c, 2, 59, 50
2, 5685120, Note_off_c, 2, 59, 0
2, 5685120, Note_on_c, 2, 57, 50
2, 5685360, Note_off_c, 2, 57, 0
2, 5685360, Note_on_c, 2, 57, 50
2, 5686080, Note_off_c, 2, 57, 0
2, 5686080, Note_on_c, 2, 54, 50
2, 5686320, Note_off_c, 2, 54, 0
2, 5686320, Note_on_c, 2, 54, 50
2, 5687040, Note_off_c, 2, 54, 0
2, 5687040, Note_on_c, 2, 52, 50
2, 5687280, Note_off_c, 2, 52, 0
2, 5687280, Note_on_c, 2, 50, 50
2, 5687400, Note_off_c, 2, 50, 0
2, 5687400, Note_on_c, 2, 52, 50
2, 5687760, Note_off_c, 2, 52, 0
2, 5688000, Note_on_c, 2, 50, 50
2, 5688120, Note_off_c, 2, 50, 0
2, 5688120, Note_on_c, 2, 52, 50
2, 5688240, Note_off_c, 2, 52, 0
2, 5688240, Note_on_c, 2, 50, 50
2, 5688360, Note_off_c, 2, 50, 0
2, 5688360, Note_on_c, 2, 52, 50
2, 5688480, Note_off_c, 2, 52, 0
2, 5688480, Note_on_c, 2, 50, 50
2, 5688960, Note_off_c, 2, 50, 0
2, 5688960, Note_on_c, 2, 49, 50
2, 5689200, Note_off_c, 2, 49, 0
2, 5689200, Note_on_c, 2, 47, 50
2, 5690640, Note_off_c, 2, 47, 0
2, 5690640, Note_on_c, 2, 45, 50
2, 5690880, Note_off_c, 2, 45, 0
2, 5690880, Note_on_c, 2, 47, 50
2, 5691120, Note_off_c, 2, 47, 0
2, 5691120, Note_on_c, 2, 52, 50
2, 5691600, Note_off_c, 2, 52, 0
2, 5691600, Note_on_c, 2, 52, 50
2, 5692560, Note_off_c, 2, 52, 0
2, 5692560, Note_on_c, 2, 52, 50
2, 5692800, Note_off_c, 2, 52, 0
2, 5692800, Note_on_c, 2, 54, 50
2, 5693040, Note_off_c, 2, 54, 0
2, 5693040, Note_on_c, 2, 55, 50
2, 5694000, Note_off_c, 2, 55, 0
2, 5694480, Note_on_c, 2, 52, 50
2, 5694720, Note_off_c, 2, 52, 0
2, 5694720, Note_on_c, 2, 54, 50
2, 5694960, Note_off_c, 2, 54, 0
2, 5694960, Note_on_c, 2, 54, 50
2, 5695200, Note_off_c, 2, 54, 0
2, 5695200, Note_on_c, 2, 52, 50
2, 5695680, Note_off_c, 2, 52, 0
2, 5695680, Note_on_c, 2, 57, 50
2, 5695920, Note_off_c, 2, 57, 0
2, 5695920, Note_on_c, 2, 61, 50
2, 5696160, Note_off_c, 2, 61, 0
2, 5696160, Note_on_c, 2, 59, 50
2, 5696400, Note_off_c, 2, 59, 0
2, 5696400, Note_on_c, 2, 57, 50
2, 5696640, Note_off_c, 2, 57, 0
2, 5696640, Note_on_c, 2, 59, 50
2, 5696880, Note_off_c, 2, 59, 0
2, 5696880, Note_on_c, 2, 54, 50
2, 5698320, Note_off_c, 2, 54, 0
2, 5698320, Note_on_c, 2, 57, 50
2, 5698560, Note_off_c, 2, 57, 0
2, 5698560, Note_on_c, 2, 54, 50
2, 5698800, Note_off_c, 2, 54, 0
2, 5698800, Note_on_c, 2, 50, 50
2, 5699520, Note_off_c, 2, 50, 0
2, 5699520, Note_on_c, 2, 54, 50
2, 5699760, Note_off_c, 2, 54, 0
2, 5699760, Note_on_c, 2, 59, 50
2, 5700000, Note_off_c, 2, 59, 0
2, 5700000, Note_on_c, 2, 54, 50
2, 5700240, Note_off_c, 2, 54, 0
2, 5700240, Note_on_c, 2, 50, 50
2, 5700480, Note_off_c, 2, 50, 0
2, 5700480, Note_on_c, 2, 52, 50
2, 5700720, Note_off_c, 2, 52, 0
2, 5700720, Note_on_c, 2, 49, 50
2, 5701200, Note_off_c, 2, 49, 0
2, 5701200, Note_on_c, 2, 47, 50
2, 5702160, Note_off_c, 2, 47, 0
2, 5702160, Note_on_c, 2, 61, 50
2, 5702640, Note_off_c, 2, 61, 0
2, 5702640, Note_on_c, 2, 57, 50
2, 5704080, Note_off_c, 2, 57, 0
2, 5704080, Note_on_c, 2, 56, 50
2, 5704560, Note_off_c, 2, 56, 0
2, 5704560, Note_on_c, 2, 52, 50
2, 5706000, Note_off_c, 2, 52, 0
2, 5706000, Note_on_c, 2, 54, 50
2, 5706240, Note_off_c, 2, 54, 0
2, 5706240, Note_on_c, 2, 57, 50
2, 5706480, Note_off_c, 2, 57, 0
2, 5706480, Note_on_c, 2, 61, 50
2, 5707200, Note_off_c, 2, 61, 0
2, 5707200, Note_on_c, 2, 59, 50
2, 5707440, Note_off_c, 2, 59, 0
2, 5707440, Note_on_c, 2, 59, 50
2, 5708160, Note_off_c, 2, 59, 0
2, 5708160, Note_on_c, 2, 57, 50
2, 5708400, Note_off_c, 2, 57, 0
2, 5708400, Note_on_c, 2, 57, 50
2, 5709840, Note_off_c, 2, 57, 0
2, 5709840, Note_on_c, 2, 54, 50
2, 5710080, Note_off_c, 2, 54, 0
2, 5710080, Note_on_c, 2, 57, 50
2, 5710320, Note_off_c, 2, 57, 0
2, 5710320, Note_on_c, 2, 61, 50
2, 5711040, Note_off_c, 2, 61, 0
2, 5711040, Note_on_c, 2, 59, 50
2, 5711280, Note_off_c, 2, 59, 0
2, 5711280, Note_on_c, 2, 59, 50
2, 5712000, Note_off_c, 2, 59, 0
2, 5712000, Note_on_c, 2, 57, 50
2, 5712240, Note_off_c, 2, 57, 0
2, 5712240, Note_on_c, 2, 57, 50
2, 5713680, Note_off_c, 2, 57, 0
2, 5713680, Note_on_c, 2, 54, 50
2, 5713920, Note_off_c, 2, 54, 0
2, 5713920, Note_on_c, 2, 57, 50
2, 5714160, Note_off_c, 2, 57, 0
2, 5714160, Note_on_c, 2, 61, 50
2, 5714880, Note_off_c, 2, 61, 0
2, 5714880, Note_on_c, 2, 59, 50
2, 5715120, Note_off_c, 2, 59, 0
2, 5715120, Note_on_c, 2, 59, 50
2, 5715840, Note_off_c, 2, 59, 0
2, 5715840, Note_on_c, 2, 57, 50
2, 5716080, Note_off_c, 2, 57, 0
2, 5716080, Note_on_c, 2, 57, 50
2, 5716800, Note_off_c, 2, 57, 0
2, 5716800, Note_on_c, 2, 54, 50
2, 5717040, Note_off_c, 2, 54, 0
2, 5717040, Note_on_c, 2, 54, 50
2, 5717760, Note_off_c, 2, 54, 0
2, 5717760, Note_on_c, 2, 57, 50
2, 5718000, Note_off_c, 2, 57, 0
2, 5718000, Note_on_c, 2, 59, 50
2, 5719440, Note_off_c, 2, 59, 0
2, 5719440, Note_on_c, 2, 56, 50
2, 5719920, Note_off_c, 2, 56, 0
2, 5719920, Note_on_c, 2, 52, 50
2, 5721360, Note_off_c, 2, 52, 0
2, 5721600, Note_on_c, 2, 49, 50
2, 5721840, Note_off_c, 2, 49, 0
2, 5721840, Note_on_c, 2, 52, 50
2, 5722560, Note_off_c, 2, 52, 0
2, 5722560, Note_on_c, 2, 52, 50
2, 5722800, Note_off_c, 2, 52, 0
2, 5722800, Note_on_c, 2, 54, 50
2, 5723520, Note_off_c, 2, 54, 0
2, 5723520, Note_on_c, 2, 54, 50
2, 5723760, Note_off_c, 2, 54, 0
2, 5723760, Note_on_c, 2, 54, 50
2, 5724480, Note_off_c, 2, 54, 0
2, 5724480, Note_on_c, 2, 49, 50
2, 5724720, Note_off_c, 2, 49, 0
2, 5724720, Note_on_c, 2, 49, 50
2, 5725440, Note_off_c, 2, 49, 0
2, 5725440, Note_on_c, 2, 52, 50
2, 5725680, Note_off_c, 2, 52, 0
2, 5725680, Note_on_c, 2, 50, 50
2, 5726880, Note_off_c, 2, 50, 0
2, 5726880, Note_on_c, 2, 52, 50
2, 5727120, Note_off_c, 2, 52, 0
2, 5727120, Note_on_c, 2, 50, 50
2, 5727360, Note_off_c, 2, 50, 0
2, 5727360, Note_on_c, 2, 49, 50
2, 5727600, Note_off_c, 2, 49, 0
2, 5727600, Note_on_c, 2, 49, 50
2, 5727840, Note_off_c, 2, 49, 0
2, 5727840, Note_on_c, 2, 47, 50
2, 5729040, Note_off_c, 2, 47, 0
2, 5729040, Note_on_c, 2, 45, 50
2, 5729280, Note_off_c, 2, 45, 0
2, 5729280, Note_on_c, 2, 47, 50
2, 5729520, Note_off_c, 2, 47, 0
2, 5729520, Note_on_c, 2, 49, 50
2, 5730000, Note_off_c, 2, 49, 0
2, 5730000, Note_on_c, 2, 52, 50
2, 5730480, Note_off_c, 2, 52, 0
2, 5730480, Note_on_c, 2, 59, 50
2, 5731200, Note_off_c, 2, 59, 0
2, 5731200, Note_on_c, 2, 57, 50
2, 5731440, Note_off_c, 2, 57, 0
2, 5731440, Note_on_c, 2, 57, 50
2, 5732160, Note_off_c, 2, 57, 0
2, 5732160, Note_on_c, 2, 54, 50
2, 5732400, Note_off_c, 2, 54, 0
2, 5732400, Note_on_c, 2, 54, 50
2, 5733360, Note_off_c, 2, 54, 0
2, 5733360, Note_on_c, 2, 50, 50
2, 5733480, Note_off_c, 2, 50, 0
2, 5733480, Note_on_c, 2, 52, 50
2, 5733840, Note_off_c, 2, 52, 0
2, 5734080, Note_on_c, 2, 50, 50
2, 5734200, Note_off_c, 2, 50, 0
2, 5734200, Note_on_c, 2, 52, 50
2, 5734320, Note_off_c, 2, 52, 0
2, 5734320, Note_on_c, 2, 50, 50
2, 5734440, Note_off_c, 2, 50, 0
2, 5734440, Note_on_c, 2, 52, 50
2, 5734560, Note_off_c, 2, 52, 0
2, 5734560, Note_on_c, 2, 50, 50
2, 5735040, Note_off_c, 2, 50, 0
2, 5735040, Note_on_c, 2, 49, 50
2, 5735280, Note_off_c, 2, 49, 0
2, 5735280, Note_on_c, 2, 47, 50
2, 5736720, Note_off_c, 2, 47, 0
2, 5736720, Note_on_c, 2, 45, 50
2, 5736960, Note_off_c, 2, 45, 0
2, 5736960, Note_on_c, 2, 47, 50
2, 5737200, Note_off_c, 2, 47, 0
2, 5737200, Note_on_c, 2, 52, 50
2, 5737680, Note_off_c, 2, 52, 0
2, 5737680, Note_on_c, 2, 52, 50
2, 5738640, Note_off_c, 2, 52, 0
2, 5738640, Note_on_c, 2, 52, 50
2, 5738880, Note_off_c, 2, 52, 0
2, 5738880, Note_on_c, 2, 54, 50
2, 5739120, Note_off_c, 2, 54, 0
2, 5739120, Note_on_c, 2, 55, 50
2, 5740080, Note_off_c, 2, 55, 0
2, 5740560, Note_on_c, 2, 52, 50
2, 5740800, Note_off_c, 2, 52, 0
2, 5740800, Note_on_c, 2, 54, 50
2, 5741040, Note_off_c, 2, 54, 0
2, 5741040, Note_on_c, 2, 54, 50
2, 5741280, Note_off_c, 2, 54, 0
2, 5741280, Note_on_c, 2, 52, 50
2, 5741760, Note_off_c, 2, 52, 0
2, 5741760, Note_on_c, 2, 57, 50
2, 5742000, Note_off_c, 2, 57, 0
2, 5742000, Note_on_c, 2, 61, 50
2, 5742240, Note_off_c, 2, 61, 0
2, 5742240, Note_on_c, 2, 59, 50
2, 5742480, Note_off_c, 2, 59, 0
2, 5742480, Note_on_c, 2, 57, 50
2, 5742720, Note_off_c, 2, 57, 0
2, 5742720, Note_on_c, 2, 59, 50
2, 5742960, Note_off_c, 2, 59, 0
2, 5742960, Note_on_c, 2, 54, 50
2, 5744400, Note_off_c, 2, 54, 0
2, 5744400, Note_on_c, 2, 57, 50
2, 5744640, Note_off_c, 2, 57, 0
2, 5744640, Note_on_c, 2, 54, 50
2, 5744880, Note_off_c, 2, 54, 0
2, 5744880, Note_on_c, 2, 50, 50
2, 5745600, Note_off_c, 2, 50, 0
2, 5745600, Note_on_c, 2, 54, 50
2, 5745840, Note_off_c, 2, 54, 0
2, 5745840, Note_on_c, 2, 59, 50
2, 5746080, Note_off_c, 2, 59, 0
2, 5746080, Note_on_c, 2, 54, 50
2, 5746320, Note_off_c, 2, 54, 0
2, 5746320, Note_on_c, 2, 50, 50
2, 5746560, Note_off_c, 2, 50, 0
2, 5746560, Note_on_c, 2, 52, 50
2, 5746800, Note_off_c, 2, 52, 0
2, 5746800, Note_on_c, 2, 49, 50
2, 5747280, Note_off_c, 2, 49, 0
2, 5747280, Note_on_c, 2, 47, 50
2, 5748240, Note_off_c, 2, 47, 0
2, 5748240, Note_on_c, 2, 61, 50
2, 5748720, Note_off_c, 2, 61, 0
2, 5748720, Note_on_c, 2, 57, 50
2, 5750160, Note_off_c, 2, 57, 0
2, 5750160, Note_on_c, 2, 56, 50
2, 5750640, Note_off_c, 2, 56, 0
2, 5750640, Note_on_c, 2, 52, 50
2, 5752080, Note_off_c, 2, 52, 0
2, 5752080, Note_on_c, 2, 61, 50
2, 5752560, Note_off_c, 2, 61, 0
2, 5752560, Note_on_c, 2, 57, 50
2, 5754000, Note_off_c, 2, 57, 0
2, 5754000, Note_on_c, 2, 56, 50
2, 5754480, Note_off_c, 2, 56, 0
2, 5754480, Note_on_c, 2, 52, 50
2, 5755920, Note_off_c, 2, 52, 0
2, 5755920, Note_on_c, 2, 61, 50
2, 5756400, Note_off_c, 2, 61, 0
2, 5756400, Note_on_c, 2, 57, 50
2, 5757840, Note_off_c, 2, 57, 0
2, 5762160, Note_on_c, 2, 83, 50
2, 5762640, Note_off_c, 2, 83, 0
2, 5762640, Note_on_c, 2, 83, 50
2, 5763120, Note_off_c, 2, 83, 0
2, 5763120, Note_on_c, 2, 83, 50
2, 5763600, Note_off_c, 2, 83, 0
2, 5763600, Note_on_c, 2, 83, 50
2, 5763840, Note_off_c, 2, 83, 0
2, 5763840, Note_on_c, 2, 81, 50
2, 5764080, Note_off_c, 2, 81, 0
2, 5764080, Note_on_c, 2, 85, 50
2, 5764320, Note_off_c, 2, 85, 0
2, 5764320, Note_on_c, 2, 81, 50
2, 5764800, Note_off_c, 2, 81, 0
2, 5764800, Note_on_c, 2, 81, 50
2, 5766000, Note_off_c, 2, 81, 0
2, 5766000, Note_on_c, 2, 83, 50
2, 5766480, Note_off_c, 2, 83, 0
2, 5766480, Note_on_c, 2, 83, 50
2, 5766960, Note_off_c, 2, 83, 0
2, 5766960, Note_on_c, 2, 83, 50
2, 5767440, Note_off_c, 2, 83, 0
2, 5767440, Note_on_c, 2, 83, 50
2, 5767680, Note_off_c, 2, 83, 0
2, 5767680, Note_on_c, 2, 81, 50
2, 5767920, Note_off_c, 2, 81, 0
2, 5767920, Note_on_c, 2, 85, 50
2, 5768160, Note_off_c, 2, 85, 0
2, 5768160, Note_on_c, 2, 76, 50
2, 5768400, Note_off_c, 2, 76, 0
2, 5768400, Note_on_c, 2, 78, 50
2, 5768640, Note_off_c, 2, 78, 0
2, 5768640, Note_on_c, 2, 79, 50
2, 5769120, Note_off_c, 2, 79, 0
2, 5769120, Note_on_c, 2, 81, 50
2, 5769600, Note_off_c, 2, 81, 0
2, 5769600, Note_on_c, 2, 74, 50
2, 5771520, Note_off_c, 2, 74, 0
2, 5771520, Note_on_c, 2, 74, 50
2, 5771760, Note_off_c, 2, 74, 0
2, 5772960, Note_on_c, 2, 76, 50
2, 5773440, Note_off_c, 2, 76, 0
2, 5773440, Note_on_c, 2, 69, 50
2, 5775360, Note_off_c, 2, 69, 0
2, 5775360, Note_on_c, 2, 69, 50
2, 5775600, Note_off_c, 2, 69, 0
2, 5776800, Note_on_c, 2, 76, 50
2, 5777280, Note_off_c, 2, 76, 0
2, 5777280, Note_on_c, 2, 74, 50
2, 5779200, Note_off_c, 2, 74, 0
2, 5779200, Note_on_c, 2, 74, 50
2, 5779440, Note_off_c, 2, 74, 0
2, 5781360, Note_on_c, 2, 83, 50
2, 5781600, Note_off_c, 2, 83, 0
2, 5781600, Note_on_c, 2, 83, 50
2, 5781840, Note_off_c, 2, 83, 0
2, 5781840, Note_on_c, 2, 81, 50
2, 5782080, Note_off_c, 2, 81, 0
2, 5782080, Note_on_c, 2, 85, 50
2, 5782800, Note_off_c, 2, 85, 0
2, 5782800, Note_on_c, 2, 76, 50
2, 5783040, Note_off_c, 2, 76, 0
2, 5783040, Note_on_c, 2, 78, 50
2, 5783280, Note_off_c, 2, 78, 0
2, 5783280, Note_on_c, 2, 79, 50
2, 5783520, Note_off_c, 2, 79, 0
2, 5783520, Note_on_c, 2, 81, 50
2, 5784000, Note_off_c, 2, 81, 0
2, 5784000, Note_on_c, 2, 81, 50
2, 5785200, Note_off_c, 2, 81, 0
2, 5786640, Note_on_c, 2, 76, 50
2, 5786880, Note_off_c, 2, 76, 0
2, 5786880, Note_on_c, 2, 78, 50
2, 5787120, Note_off_c, 2, 78, 0
2, 5787120, Note_on_c, 2, 79, 50
2, 5787360, Note_off_c, 2, 79, 0
2, 5787360, Note_on_c, 2, 81, 50
2, 5787840, Note_off_c, 2, 81, 0
2, 5787840, Note_on_c, 2, 81, 50
2, 5789040, Note_off_c, 2, 81, 0
2, 5789040, Note_on_c, 2, 83, 50
2, 5789520, Note_off_c, 2, 83, 0
2, 5789520, Note_on_c, 2, 83, 50
2, 5790000, Note_off_c, 2, 83, 0
2, 5790000, Note_on_c, 2, 83, 50
2, 5790480, Note_off_c, 2, 83, 0
2, 5790480, Note_on_c, 2, 83, 50
2, 5790720, Note_off_c, 2, 83, 0
2, 5790720, Note_on_c, 2, 81, 50
2, 5790960, Note_off_c, 2, 81, 0
2, 5790960, Note_on_c, 2, 84, 50
2, 5791200, Note_off_c, 2, 84, 0
2, 5791200, Note_on_c, 2, 81, 50
2, 5791440, Note_off_c, 2, 81, 0
2, 5791440, Note_on_c, 2, 79, 50
2, 5791680, Note_off_c, 2, 79, 0
2, 5791680, Note_on_c, 2, 81, 50
2, 5792880, Note_off_c, 2, 81, 0
2, 5792880, Note_on_c, 2, 83, 50
2, 5793360, Note_off_c, 2, 83, 0
2, 5793360, Note_on_c, 2, 83, 50
2, 5793840, Note_off_c, 2, 83, 0
2, 5793840, Note_on_c, 2, 83, 50
2, 5794320, Note_off_c, 2, 83, 0
2, 5794320, Note_on_c, 2, 83, 50
2, 5794560, Note_off_c, 2, 83, 0
2, 5794560, Note_on_c, 2, 81, 50
2, 5794800, Note_off_c, 2, 81, 0
2, 5794800, Note_on_c, 2, 85, 50
2, 5795040, Note_off_c, 2, 85, 0
2, 5795040, Note_on_c, 2, 76, 50
2, 5795280, Note_off_c, 2, 76, 0
2, 5795280, Note_on_c, 2, 78, 50
2, 5795520, Note_off_c, 2, 78, 0
2, 5795520, Note_on_c, 2, 79, 50
2, 5796000, Note_off_c, 2, 79, 0
2, 5796000, Note_on_c, 2, 81, 50
2, 5796480, Note_off_c, 2, 81, 0
2, 5796480, Note_on_c, 2, 74, 50
2, 5798400, Note_off_c, 2, 74, 0
2, 5798400, Note_on_c, 2, 74, 50
2, 5798640, Note_off_c, 2, 74, 0
2, 5799840, Note_on_c, 2, 76, 50
2, 5800320, Note_off_c, 2, 76, 0
2, 5800320, Note_on_c, 2, 69, 50
2, 5802240, Note_off_c, 2, 69, 0
2, 5802240, Note_on_c, 2, 69, 50
2, 5802480, Note_off_c, 2, 69, 0
2, 5803680, Note_on_c, 2, 76, 50
2, 5804160, Note_off_c, 2, 76, 0
2, 5804160, Note_on_c, 2, 74, 50
2, 5806080, Note_off_c, 2, 74, 0
2, 5806080, Note_on_c, 2, 74, 50
2, 5806320, Note_off_c, 2, 74, 0
2, 5808240, Note_on_c, 2, 83, 50
2, 5808480, Note_off_c, 2, 83, 0
2, 5808480, Note_on_c, 2, 83, 50
2, 5808720, Note_off_c, 2, 83, 0
2, 5808720, Note_on_c, 2, 81, 50
2, 5808960, Note_off_c, 2, 81, 0
2, 5808960, Note_on_c, 2, 85, 50
2, 5809680, Note_off_c, 2, 85, 0
2, 5809680, Note_on_c, 2, 76, 50
2, 5809920, Note_off_c, 2, 76, 0
2, 5809920, Note_on_c, 2, 78, 50
2, 5810160, Note_off_c, 2, 78, 0
2, 5810160, Note_on_c, 2, 79, 50
2, 5810400, Note_off_c, 2, 79, 0
2, 5810400, Note_on_c, 2, 81, 50
2, 5810880, Note_off_c, 2, 81, 0
2, 5810880, Note_on_c, 2, 81, 50
2, 5812080, Note_off_c, 2, 81, 0
2, 5813520, Note_on_c, 2, 76, 50
2, 5813760, Note_off_c, 2, 76, 0
2, 5813760, Note_on_c, 2, 78, 50
2, 5814000, Note_off_c, 2, 78, 0
2, 5814000, Note_on_c, 2, 79, 50
2, 5814240, Note_off_c, 2, 79, 0
2, 5814240, Note_on_c, 2, 81, 50
2, 5814720, Note_off_c, 2, 81, 0
2, 5814720, Note_on_c, 2, 81, 50
2, 5815920, Note_off_c, 2, 81, 0
2, 5822160, Note_on_c, 2, 81, 50
2, 5823600, Note_off_c, 2, 81, 0
2, 5838960, Note_on_c, 2, 83, 50
2, 5839440, Note_off_c, 2, 83, 0
2, 5839440, Note_on_c, 2, 83, 50
2, 5839680, Note_off_c, 2, 83, 0
2, 5839680, Note_on_c, 2, 81, 50
2, 5839920, Note_off_c, 2, 81, 0
2, 5839920, Note_on_c, 2, 83, 50
2, 5840400, Note_off_c, 2, 83, 0
2, 5840400, Note_on_c, 2, 83, 50
2, 5840640, Note_off_c, 2, 83, 0
2, 5840640, Note_on_c, 2, 81, 50
2, 5840880, Note_off_c, 2, 81, 0
2, 5840880, Note_on_c, 2, 84, 50
2, 5841120, Note_off_c, 2, 84, 0
2, 5841120, Note_on_c, 2, 81, 50
2, 5841360, Note_off_c, 2, 81, 0
2, 5841360, Note_on_c, 2, 79, 50
2, 5841600, Note_off_c, 2, 79, 0
2, 5841600, Note_on_c, 2, 81, 50
2, 5842800, Note_off_c, 2, 81, 0
2, 5842800, Note_on_c, 2, 83, 50
2, 5843280, Note_off_c, 2, 83, 0
2, 5843280, Note_on_c, 2, 83, 50
2, 5843760, Note_off_c, 2, 83, 0
2, 5843760, Note_on_c, 2, 83, 50
2, 5844240, Note_off_c, 2, 83, 0
2, 5844240, Note_on_c, 2, 83, 50
2, 5844480, Note_off_c, 2, 83, 0
2, 5844480, Note_on_c, 2, 81, 50
2, 5844720, Note_off_c, 2, 81, 0
2, 5844720, Note_on_c, 2, 85, 50
2, 5845200, Note_off_c, 2, 85, 0
2, 5845200, Note_on_c, 2, 78, 50
2, 5845440, Note_off_c, 2, 78, 0
2, 5845440, Note_on_c, 2, 79, 50
2, 5845680, Note_off_c, 2, 79, 0
2, 5845680, Note_on_c, 2, 79, 50
2, 5845920, Note_off_c, 2, 79, 0
2, 5845920, Note_on_c, 2, 81, 50
2, 5846400, Note_off_c, 2, 81, 0
2, 5846400, Note_on_c, 2, 74, 50
2, 5848320, Note_off_c, 2, 74, 0
2, 5848320, Note_on_c, 2, 74, 50
2, 5848560, Note_off_c, 2, 74, 0
2, 5849760, Note_on_c, 2, 76, 50
2, 5850000, Note_off_c, 2, 76, 0
2, 5850000, Note_on_c, 2, 81, 50
2, 5850120, Note_off_c, 2, 81, 0
2, 5850120, Note_on_c, 2, 81, 50
2, 5850240, Note_off_c, 2, 81, 0
2, 5850240, Note_on_c, 2, 81, 50
2, 5850480, Note_off_c, 2, 81, 0
2, 5850480, Note_on_c, 2, 81, 50
2, 5852400, Note_off_c, 2, 81, 0
2, 5853600, Note_on_c, 2, 76, 50
2, 5854080, Note_off_c, 2, 76, 0
2, 5854080, Note_on_c, 2, 74, 50
2, 5856000, Note_off_c, 2, 74, 0
2, 5856000, Note_on_c, 2, 74, 50
2, 5856240, Note_off_c, 2, 74, 0
2, 5858160, Note_on_c, 2, 83, 50
2, 5858400, Note_off_c, 2, 83, 0
2, 5858400, Note_on_c, 2, 83, 50
2, 5858640, Note_off_c, 2, 83, 0
2, 5858640, Note_on_c, 2, 81, 50
2, 5858880, Note_off_c, 2, 81, 0
2, 5858880, Note_on_c, 2, 85, 50
2, 5859600, Note_off_c, 2, 85, 0
2, 5859600, Note_on_c, 2, 76, 50
2, 5859840, Note_off_c, 2, 76, 0
2, 5859840, Note_on_c, 2, 78, 50
2, 5860080, Note_off_c, 2, 78, 0
2, 5860080, Note_on_c, 2, 79, 50
2, 5860320, Note_off_c, 2, 79, 0
2, 5860320, Note_on_c, 2, 81, 50
2, 5860800, Note_off_c, 2, 81, 0
2, 5860800, Note_on_c, 2, 81, 50
2, 5862000, Note_off_c, 2, 81, 0
2, 5863440, Note_on_c, 2, 76, 50
2, 5863680, Note_off_c, 2, 76, 0
2, 5863680, Note_on_c, 2, 78, 50
2, 5863920, Note_off_c, 2, 78, 0
2, 5863920, Note_on_c, 2, 79, 50
2, 5864160, Note_off_c, 2, 79, 0
2, 5864160, Note_on_c, 2, 81, 50
2, 5864640, Note_off_c, 2, 81, 0
2, 5864640, Note_on_c, 2, 81, 50
2, 5865120, Note_off_c, 2, 81, 0
2, 5865120, Note_on_c, 2, 81, 50
2, 5867040, Note_off_c, 2, 81, 0
2, 5867040, Note_on_c, 2, 81, 50
2, 5867760, Note_off_c, 2, 81, 0
2, 5887200, Note_on_c, 2, 81, 50
2, 5887440, Note_off_c, 2, 81, 0
2, 5887440, Note_on_c, 2, 85, 50
2, 5887680, Note_off_c, 2, 85, 0
2, 5887680, Note_on_c, 2, 85, 50
2, 5887920, Note_off_c, 2, 85, 0
2, 5887920, Note_on_c, 2, 85, 50
2, 5888160, Note_off_c, 2, 85, 0
2, 5888160, Note_on_c, 2, 86, 50
2, 5888640, Note_off_c, 2, 86, 0
2, 5888640, Note_on_c, 2, 85, 50
2, 5889360, Note_off_c, 2, 85, 0
2, 5891520, Note_on_c, 2, 76, 50
2, 5891760, Note_off_c, 2, 76, 0
2, 5891760, Note_on_c, 2, 85, 50
2, 5892000, Note_off_c, 2, 85, 0
2, 5892000, Note_on_c, 2, 81, 50
2, 5892480, Note_off_c, 2, 81, 0
2, 5892480, Note_on_c, 2, 81, 50
2, 5894400, Note_off_c, 2, 81, 0
2, 5894400, Note_on_c, 2, 81, 50
2, 5894640, Note_off_c, 2, 81, 0
2, 5894880, Note_on_c, 2, 69, 50
2, 5895120, Note_off_c, 2, 69, 0
2, 5895120, Note_on_c, 2, 81, 50
2, 5895840, Note_off_c, 2, 81, 0
2, 5896080, Note_on_c, 2, 69, 50
2, 5896320, Note_off_c, 2, 69, 0
2, 5896320, Note_on_c, 2, 69, 50
2, 5896560, Note_off_c, 2, 69, 0
2, 5896560, Note_on_c, 2, 69, 50
2, 5897040, Note_off_c, 2, 69, 0
2, 5898960, Note_on_c, 2, 69, 50
2, 5900160, Note_off_c, 2, 69, 0
2, 5900160, Note_on_c, 2, 69, 50
2, 5901360, Note_off_c, 2, 69, 0
2, 5903040, Note_on_c, 2, 76, 50
2, 5903280, Note_off_c, 2, 76, 0
2, 5903280, Note_on_c, 2, 85, 50
2, 5903400, Note_off_c, 2, 85, 0
2, 5903400, Note_on_c, 2, 85, 50
2, 5903520, Note_off_c, 2, 85, 0
2, 5903520, Note_on_c, 2, 85, 50
2, 5903760, Note_off_c, 2, 85, 0
2, 5903760, Note_on_c, 2, 85, 50
2, 5904000, Note_off_c, 2, 85, 0
2, 5904000, Note_on_c, 2, 83, 50
2, 5904480, Note_off_c, 2, 83, 0
2, 5904480, Note_on_c, 2, 80, 50
2, 5905200, Note_off_c, 2, 80, 0
2, 5906880, Note_on_c, 2, 66, 50
2, 5907120, Note_off_c, 2, 66, 0
2, 5907120, Note_on_c, 2, 69, 50
2, 5907840, Note_off_c, 2, 69, 0
2, 5907840, Note_on_c, 2, 74, 50
2, 5908800, Note_off_c, 2, 74, 0
2, 5908800, Note_on_c, 2, 76, 50
2, 5909760, Note_off_c, 2, 76, 0
2, 5909760, Note_on_c, 2, 81, 50
2, 5910720, Note_off_c, 2, 81, 0
2, 5910720, Note_on_c, 2, 81, 50
2, 5910960, Note_off_c, 2, 81, 0
2, 5910960, Note_on_c, 2, 79, 50
2, 5911440, Note_off_c, 2, 79, 0
2, 5911440, Note_on_c, 2, 85, 50
2, 5911680, Note_off_c, 2, 85, 0
2, 5911680, Note_on_c, 2, 85, 50
2, 5912400, Note_off_c, 2, 85, 0
2, 5914560, Note_on_c, 2, 76, 50
2, 5914800, Note_off_c, 2, 76, 0
2, 5914800, Note_on_c, 2, 85, 50
2, 5915040, Note_off_c, 2, 85, 0
2, 5915040, Note_on_c, 2, 81, 50
2, 5915520, Note_off_c, 2, 81, 0
2, 5915520, Note_on_c, 2, 81, 50
2, 5917440, Note_off_c, 2, 81, 0
2, 5917440, Note_on_c, 2, 81, 50
2, 5917680, Note_off_c, 2, 81, 0
2, 5917920, Note_on_c, 2, 69, 50
2, 5918160, Note_off_c, 2, 69, 0
2, 5918160, Note_on_c, 2, 81, 50
2, 5918880, Note_off_c, 2, 81, 0
2, 5919120, Note_on_c, 2, 69, 50
2, 5919360, Note_off_c, 2, 69, 0
2, 5919360, Note_on_c, 2, 69, 50
2, 5919600, Note_off_c, 2, 69, 0
2, 5919600, Note_on_c, 2, 69, 50
2, 5920080, Note_off_c, 2, 69, 0
2, 5922000, Note_on_c, 2, 69, 50
2, 5923200, Note_off_c, 2, 69, 0
2, 5923200, Note_on_c, 2, 69, 50
2, 5924400, Note_off_c, 2, 69, 0
2, 5926080, Note_on_c, 2, 76, 50
2, 5926320, Note_off_c, 2, 76, 0
2, 5926320, Note_on_c, 2, 85, 50
2, 5926440, Note_off_c, 2, 85, 0
2, 5926440, Note_on_c, 2, 85, 50
2, 5926560, Note_off_c, 2, 85, 0
2, 5926560, Note_on_c, 2, 85, 50
2, 5926800, Note_off_c, 2, 85, 0
2, 5926800, Note_on_c, 2, 85, 50
2, 5927040, Note_off_c, 2, 85, 0
2, 5927040, Note_on_c, 2, 83, 50
2, 5927520, Note_off_c, 2, 83, 0
2, 5927520, Note_on_c, 2, 80, 50
2, 5928240, Note_off_c, 2, 80, 0
2, 5929920, Note_on_c, 2, 66, 50
2, 5930160, Note_off_c, 2, 66, 0
2, 5930160, Note_on_c, 2, 69, 50
2, 5930880, Note_off_c, 2, 69, 0
2, 5930880, Note_on_c, 2, 74, 50
2, 5931840, Note_off_c, 2, 74, 0
2, 5931840, Note_on_c, 2, 76, 50
2, 5932800, Note_off_c, 2, 76, 0
2, 5932800, Note_on_c, 2, 81, 50
2, 5933760, Note_off_c, 2, 81, 0
2, 5933760, Note_on_c, 2, 81, 50
2, 5934000, Note_off_c, 2, 81, 0
2, 5934000, Note_on_c, 2, 79, 50
2, 5934480, Note_off_c, 2, 79, 0
2, 5934480, Note_on_c, 2, 85, 50
2, 5934720, Note_off_c, 2, 85, 0
2, 5934720, Note_on_c, 2, 85, 50
2, 5935440, Note_off_c, 2, 85, 0
2, 5937600, Note_on_c, 2, 76, 50
2, 5937840, Note_off_c, 2, 76, 0
2, 5937840, Note_on_c, 2, 85, 50
2, 5938080, Note_off_c, 2, 85, 0
2, 5938080, Note_on_c, 2, 81, 50
2, 5938560, Note_off_c, 2, 81, 0
2, 5938560, Note_on_c, 2, 81, 50
2, 5940480, Note_off_c, 2, 81, 0
2, 5940480, Note_on_c, 2, 81, 50
2, 5940720, Note_off_c, 2, 81, 0
2, 5940960, Note_on_c, 2, 69, 50
2, 5941200, Note_off_c, 2, 69, 0
2, 5941200, Note_on_c, 2, 81, 50
2, 5941920, Note_off_c, 2, 81, 0
2, 5942160, Note_on_c, 2, 69, 50
2, 5942400, Note_off_c, 2, 69, 0
2, 5942400, Note_on_c, 2, 69, 50
2, 5942640, Note_off_c, 2, 69, 0
2, 5942640, Note_on_c, 2, 69, 50
2, 5943120, Note_off_c, 2, 69, 0
2, 5945040, Note_on_c, 2, 69, 50
2, 5946240, Note_off_c, 2, 69, 0
2, 5946240, Note_on_c, 2, 69, 50
2, 5947440, Note_off_c, 2, 69, 0
2, 5949120, Note_on_c, 2, 76, 50
2, 5949360, Note_off_c, 2, 76, 0
2, 5949360, Note_on_c, 2, 85, 50
2, 5949480, Note_off_c, 2, 85, 0
2, 5949480, Note_on_c, 2, 85, 50
2, 5949600, Note_off_c, 2, 85, 0
2, 5949600, Note_on_c, 2, 85, 50
2, 5949840, Note_off_c, 2, 85, 0
2, 5949840, Note_on_c, 2, 85, 50
2, 5950080, Note_off_c, 2, 85, 0
2, 5950080, Note_on_c, 2, 83, 50
2, 5950560, Note_off_c, 2, 83, 0
2, 5950560, Note_on_c, 2, 80, 50
2, 5951280, Note_off_c, 2, 80, 0
2, 5952960, Note_on_c, 2, 66, 50
2, 5953200, Note_off_c, 2, 66, 0
2, 5953200, Note_on_c, 2, 69, 50
2, 5953920, Note_off_c, 2, 69, 0
2, 5953920, Note_on_c, 2, 74, 50
2, 5954880, Note_off_c, 2, 74, 0
2, 5954880, Note_on_c, 2, 76, 50
2, 5955840, Note_off_c, 2, 76, 0
2, 5955840, Note_on_c, 2, 81, 50
2, 5956800, Note_off_c, 2, 81, 0
2, 5956800, Note_on_c, 2, 81, 50
2, 5957040, Note_off_c, 2, 81, 0
2, 5957040, Note_on_c, 2, 79, 50
2, 5957520, Note_off_c, 2, 79, 0
2, 5957520, Note_on_c, 2, 85, 50
2, 5957760, Note_off_c, 2, 85, 0
2, 5957760, Note_on_c, 2, 85, 50
2, 5958000, Note_off_c, 2, 85, 0
2, 5961840, Note_on_c, 2, 72, 50
2, 5962440, Note_off_c, 2, 72, 0
2, 5962560, Note_on_c, 2, 72, 50
2, 5962920, Note_off_c, 2, 72, 0
2, 5963040, Note_on_c, 2, 71, 50
2, 5963280, Note_off_c, 2, 71, 0
2, 5963280, Note_on_c, 2, 67, 50
2, 5963400, Note_off_c, 2, 67, 0
2, 5963520, Note_on_c, 2, 64, 50
2, 5963640, Note_off_c, 2, 64, 0
2, 5963760, Note_on_c, 2, 65, 50
2, 5964360, Note_off_c, 2, 65, 0
2, 5964480, Note_on_c, 2, 67, 50
2, 5965320, Note_off_c, 2, 67, 0
2, 5965680, Note_on_c, 2, 72, 50
2, 5966280, Note_off_c, 2, 72, 0
2, 5966400, Note_on_c, 2, 72, 50
2, 5966760, Note_off_c, 2, 72, 0
2, 5966880, Note_on_c, 2, 71, 50
2, 5967120, Note_off_c, 2, 71, 0
2, 5967120, Note_on_c, 2, 67, 50
2, 5967240, Note_off_c, 2, 67, 0
2, 5967360, Note_on_c, 2, 64, 50
2, 5967480, Note_off_c, 2, 64, 0
2, 5967600, Note_on_c, 2, 65, 50
2, 5968080, Note_off_c, 2, 65, 0
2, 5968320, Note_on_c, 2, 67, 50
2, 5969160, Note_off_c, 2, 67, 0
2, 5969520, Note_on_c, 2, 72, 50
2, 5970120, Note_off_c, 2, 72, 0
2, 5970240, Note_on_c, 2, 72, 50
2, 5970600, Note_off_c, 2, 72, 0
2, 5970720, Note_on_c, 2, 71, 50
2, 5970840, Note_off_c, 2, 71, 0
2, 5970960, Note_on_c, 2, 67, 50
2, 5971080, Note_off_c, 2, 67, 0
2, 5971200, Note_on_c, 2, 64, 50
2, 5971320, Note_off_c, 2, 64, 0
2, 5971440, Note_on_c, 2, 65, 50
2, 5971920, Note_off_c, 2, 65, 0
2, 5972160, Note_on_c, 2, 67, 50
2, 5973120, Note_off_c, 2, 67, 0
2, 5973360, Note_on_c, 2, 69, 50
2, 5973960, Note_off_c, 2, 69, 0
2, 5974080, Note_on_c, 2, 71, 50
2, 5974920, Note_off_c, 2, 71, 0
2, 5975280, Note_on_c, 2, 71, 50
2, 5976840, Note_off_c, 2, 71, 0
2, 5976960, Note_on_c, 2, 69, 50
2, 5977080, Note_off_c, 2, 69, 0
2, 5977200, Note_on_c, 2, 71, 50
2, 5977320, Note_off_c, 2, 71, 0
2, 5977440, Note_on_c, 2, 71, 50
2, 5977560, Note_off_c, 2, 71, 0
2, 5977680, Note_on_c, 2, 71, 50
2, 5977800, Note_off_c, 2, 71, 0
2, 5977920, Note_on_c, 2, 71, 50
2, 5978040, Note_off_c, 2, 71, 0
2, 5978160, Note_on_c, 2, 72, 50
2, 5978280, Note_off_c, 2, 72, 0
2, 5978400, Note_on_c, 2, 74, 50
2, 5979000, Note_off_c, 2, 74, 0
2, 5979000, Note_on_c, 2, 71, 50
2, 5980560, Note_off_c, 2, 71, 0
2, 5980560, Note_on_c, 2, 67, 50
2, 5980800, Note_off_c, 2, 67, 0
2, 5980800, Note_on_c, 2, 69, 50
2, 5981040, Note_off_c, 2, 69, 0
2, 5981040, Note_on_c, 2, 71, 50
2, 5981160, Note_off_c, 2, 71, 0
2, 5981280, Note_on_c, 2, 71, 50
2, 5981400, Note_off_c, 2, 71, 0
2, 5981520, Note_on_c, 2, 71, 50
2, 5981640, Note_off_c, 2, 71, 0
2, 5981760, Note_on_c, 2, 71, 50
2, 5981880, Note_off_c, 2, 71, 0
2, 5982000, Note_on_c, 2, 72, 50
2, 5982240, Note_off_c, 2, 72, 0
2, 5982240, Note_on_c, 2, 74, 50
2, 5982720, Note_off_c, 2, 74, 0
2, 5982720, Note_on_c, 2, 71, 50
2, 5983800, Note_off_c, 2, 71, 0
2, 5984400, Note_on_c, 2, 72, 50
2, 5984640, Note_off_c, 2, 72, 0
2, 5984640, Note_on_c, 2, 74, 50
2, 5984880, Note_off_c, 2, 74, 0
2, 5984880, Note_on_c, 2, 76, 50
2, 5985120, Note_off_c, 2, 76, 0
2, 5985120, Note_on_c, 2, 76, 50
2, 5985240, Note_off_c, 2, 76, 0
2, 5985360, Note_on_c, 2, 76, 50
2, 5985480, Note_off_c, 2, 76, 0
2, 5985600, Note_on_c, 2, 76, 50
2, 5985720, Note_off_c, 2, 76, 0
2, 5985840, Note_on_c, 2, 76, 50
2, 5986080, Note_off_c, 2, 76, 0
2, 5986080, Note_on_c, 2, 74, 50
2, 5986320, Note_off_c, 2, 74, 0
2, 5986320, Note_on_c, 2, 72, 50
2, 5986560, Note_off_c, 2, 72, 0
2, 5986560, Note_on_c, 2, 74, 50
2, 5986800, Note_off_c, 2, 74, 0
2, 5986800, Note_on_c, 2, 72, 50
2, 5987280, Note_off_c, 2, 72, 0
2, 5987280, Note_on_c, 2, 71, 50
2, 5988240, Note_off_c, 2, 71, 0
2, 5988240, Note_on_c, 2, 67, 50
2, 5988360, Note_off_c, 2, 67, 0
2, 5988480, Note_on_c, 2, 67, 50
2, 5988720, Note_off_c, 2, 67, 0
2, 5988720, Note_on_c, 2, 69, 50
2, 5988960, Note_off_c, 2, 69, 0
2, 5988960, Note_on_c, 2, 69, 50
2, 5989080, Note_off_c, 2, 69, 0
2, 5989200, Note_on_c, 2, 69, 50
2, 5989320, Note_off_c, 2, 69, 0
2, 5989440, Note_on_c, 2, 69, 50
2, 5989560, Note_off_c, 2, 69, 0
2, 5989680, Note_on_c, 2, 71, 50
2, 5990280, Note_off_c, 2, 71, 0
2, 5990400, Note_on_c, 2, 72, 50
2, 5990640, Note_off_c, 2, 72, 0
2, 5990640, Note_on_c, 2, 67, 50
2, 5992080, Note_off_c, 2, 67, 0
2, 5992080, Note_on_c, 2, 72, 50
2, 5992200, Note_off_c, 2, 72, 0
2, 5992320, Note_on_c, 2, 72, 50
2, 5992440, Note_off_c, 2, 72, 0
2, 5992560, Note_on_c, 2, 72, 50
2, 5993160, Note_off_c, 2, 72, 0
2, 5993280, Note_on_c, 2, 67, 50
2, 5993520, Note_off_c, 2, 67, 0
2, 5993520, Note_on_c, 2, 67, 50
2, 5994120, Note_off_c, 2, 67, 0
2, 5994480, Note_on_c, 2, 72, 50
2, 5995080, Note_off_c, 2, 72, 0
2, 5995200, Note_on_c, 2, 74, 50
2, 5996040, Note_off_c, 2, 74, 0
2, 5996160, Note_on_c, 2, 74, 50
2, 5996400, Note_off_c, 2, 74, 0
2, 5996400, Note_on_c, 2, 72, 50
2, 5996760, Note_off_c, 2, 72, 0
2, 5996880, Note_on_c, 2, 71, 50
2, 5997360, Note_off_c, 2, 71, 0
2, 5997360, Note_on_c, 2, 67, 50
2, 5997840, Note_off_c, 2, 67, 0
2, 5997840, Note_on_c, 2, 65, 50
2, 5998200, Note_off_c, 2, 65, 0
2, 5998320, Note_on_c, 2, 65, 50
2, 5998920, Note_off_c, 2, 65, 0
2, 5999160, Note_on_c, 2, 67, 50
2, 5999520, Note_off_c, 2, 67, 0
2, 5999520, Note_on_c, 2, 67, 50
2, 5999640, Note_off_c, 2, 67, 0
2, 5999760, Note_on_c, 2, 67, 50
2, 5999880, Note_off_c, 2, 67, 0
2, 6000000, Note_on_c, 2, 67, 50
2, 6000120, Note_off_c, 2, 67, 0
2, 6000240, Note_on_c, 2, 72, 50
2, 6000720, Note_off_c, 2, 72, 0
2, 6000720, Note_on_c, 2, 71, 50
2, 6000960, Note_off_c, 2, 71, 0
2, 6000960, Note_on_c, 2, 72, 50
2, 6001440, Note_off_c, 2, 72, 0
2, 6001440, Note_on_c, 2, 71, 50
2, 6001680, Note_off_c, 2, 71, 0
2, 6001680, Note_on_c, 2, 67, 50
2, 6001920, Note_off_c, 2, 67, 0
2, 6001920, Note_on_c, 2, 65, 50
2, 6002040, Note_off_c, 2, 65, 0
2, 6002160, Note_on_c, 2, 65, 50
2, 6002400, Note_off_c, 2, 65, 0
2, 6002640, Note_on_c, 2, 65, 50
2, 6002880, Note_off_c, 2, 65, 0
2, 6002880, Note_on_c, 2, 67, 50
2, 6003480, Note_off_c, 2, 67, 0
2, 6003600, Note_on_c, 2, 67, 50
2, 6003720, Note_off_c, 2, 67, 0
2, 6003840, Note_on_c, 2, 67, 50
2, 6004080, Note_off_c, 2, 67, 0
2, 6004080, Note_on_c, 2, 65, 50
2, 6004320, Note_off_c, 2, 65, 0
2, 6004320, Note_on_c, 2, 67, 50
2, 6004560, Note_off_c, 2, 67, 0
2, 6004560, Note_on_c, 2, 65, 50
2, 6004680, Note_off_c, 2, 65, 0
2, 6004800, Note_on_c, 2, 64, 50
2, 6004920, Note_off_c, 2, 64, 0
2, 6005040, Note_on_c, 2, 65, 50
2, 6005640, Note_off_c, 2, 65, 0
2, 6005760, Note_on_c, 2, 64, 50
2, 6005880, Note_off_c, 2, 64, 0
2, 6006000, Note_on_c, 2, 64, 50
2, 6006600, Note_off_c, 2, 64, 0
2, 6007440, Note_on_c, 2, 67, 50
2, 6007680, Note_off_c, 2, 67, 0
2, 6007680, Note_on_c, 2, 69, 50
2, 6008040, Note_off_c, 2, 69, 0
2, 6008160, Note_on_c, 2, 71, 50
2, 6008280, Note_off_c, 2, 71, 0
2, 6008400, Note_on_c, 2, 71, 50
2, 6008520, Note_off_c, 2, 71, 0
2, 6008640, Note_on_c, 2, 71, 50
2, 6008760, Note_off_c, 2, 71, 0
2, 6008880, Note_on_c, 2, 72, 50
2, 6009000, Note_off_c, 2, 72, 0
2, 6009120, Note_on_c, 2, 74, 50
2, 6009600, Note_off_c, 2, 74, 0
2, 6009600, Note_on_c, 2, 71, 50
2, 6011280, Note_off_c, 2, 71, 0
2, 6011280, Note_on_c, 2, 67, 50
2, 6011520, Note_off_c, 2, 67, 0
2, 6011520, Note_on_c, 2, 69, 50
2, 6011760, Note_off_c, 2, 69, 0
2, 6011760, Note_on_c, 2, 71, 50
2, 6012000, Note_off_c, 2, 71, 0
2, 6012000, Note_on_c, 2, 71, 50
2, 6012120, Note_off_c, 2, 71, 0
2, 6012240, Note_on_c, 2, 71, 50
2, 6012360, Note_off_c, 2, 71, 0
2, 6012480, Note_on_c, 2, 71, 50
2, 6012600, Note_off_c, 2, 71, 0
2, 6012720, Note_on_c, 2, 72, 50
2, 6012840, Note_off_c, 2, 72, 0
2, 6012960, Note_on_c, 2, 74, 50
2, 6013560, Note_off_c, 2, 74, 0
2, 6013680, Note_on_c, 2, 71, 50
2, 6014640, Note_off_c, 2, 71, 0
2, 6015120, Note_on_c, 2, 72, 50
2, 6015360, Note_off_c, 2, 72, 0
2, 6015360, Note_on_c, 2, 74, 50
2, 6015480, Note_off_c, 2, 74, 0
2, 6015600, Note_on_c, 2, 76, 50
2, 6015720, Note_off_c, 2, 76, 0
2, 6015840, Note_on_c, 2, 76, 50
2, 6015960, Note_off_c, 2, 76, 0
2, 6016080, Note_on_c, 2, 76, 50
2, 6016200, Note_off_c, 2, 76, 0
2, 6016320, Note_on_c, 2, 76, 50
2, 6016440, Note_off_c, 2, 76, 0
2, 6016560, Note_on_c, 2, 76, 50
2, 6016680, Note_off_c, 2, 76, 0
2, 6016800, Note_on_c, 2, 74, 50
2, 6017040, Note_off_c, 2, 74, 0
2, 6017040, Note_on_c, 2, 72, 50
2, 6017280, Note_off_c, 2, 72, 0
2, 6017280, Note_on_c, 2, 74, 50
2, 6017520, Note_off_c, 2, 74, 0
2, 6017520, Note_on_c, 2, 72, 50
2, 6018000, Note_off_c, 2, 72, 0
2, 6018000, Note_on_c, 2, 71, 50
2, 6018960, Note_off_c, 2, 71, 0
2, 6018960, Note_on_c, 2, 67, 50
2, 6019080, Note_off_c, 2, 67, 0
2, 6019200, Note_on_c, 2, 67, 50
2, 6019440, Note_off_c, 2, 67, 0
2, 6019440, Note_on_c, 2, 69, 50
2, 6019560, Note_off_c, 2, 69, 0
2, 6019680, Note_on_c, 2, 69, 50
2, 6019800, Note_off_c, 2, 69, 0
2, 6019920, Note_on_c, 2, 69, 50
2, 6020040, Note_off_c, 2, 69, 0
2, 6020160, Note_on_c, 2, 69, 50
2, 6020280, Note_off_c, 2, 69, 0
2, 6020400, Note_on_c, 2, 71, 50
2, 6021000, Note_off_c, 2, 71, 0
2, 6021120, Note_on_c, 2, 72, 50
2, 6021360, Note_off_c, 2, 72, 0
2, 6021360, Note_on_c, 2, 67, 50
2, 6022800, Note_off_c, 2, 67, 0
2, 6022800, Note_on_c, 2, 72, 50
2, 6022920, Note_off_c, 2, 72, 0
2, 6023040, Note_on_c, 2, 72, 50
2, 6023160, Note_off_c, 2, 72, 0
2, 6023280, Note_on_c, 2, 72, 50
2, 6024000, Note_off_c, 2, 72, 0
2, 6024000, Note_on_c, 2, 67, 50
2, 6024240, Note_off_c, 2, 67, 0
2, 6024240, Note_on_c, 2, 67, 50
2, 6024840, Note_off_c, 2, 67, 0
2, 6025200, Note_on_c, 2, 72, 50
2, 6025800, Note_off_c, 2, 72, 0
2, 6025920, Note_on_c, 2, 74, 50
2, 6026760, Note_off_c, 2, 74, 0
2, 6026760, Note_on_c, 2, 74, 50
2, 6027000, Note_off_c, 2, 74, 0
2, 6027120, Note_on_c, 2, 72, 50
2, 6027480, Note_off_c, 2, 72, 0
2, 6027600, Note_on_c, 2, 71, 50
2, 6027960, Note_off_c, 2, 71, 0
2, 6028080, Note_on_c, 2, 67, 50
2, 6028560, Note_off_c, 2, 67, 0
2, 6028560, Note_on_c, 2, 67, 50
2, 6028680, Note_off_c, 2, 67, 0
2, 6028680, Note_on_c, 2, 64, 50
2, 6028800, Note_off_c, 2, 64, 0
2, 6029040, Note_on_c, 2, 65, 50
2, 6029640, Note_off_c, 2, 65, 0
2, 6029760, Note_on_c, 2, 67, 50
2, 6030120, Note_off_c, 2, 67, 0
2, 6030240, Note_on_c, 2, 67, 50
2, 6030360, Note_off_c, 2, 67, 0
2, 6030480, Note_on_c, 2, 67, 50
2, 6030600, Note_off_c, 2, 67, 0
2, 6030720, Note_on_c, 2, 67, 50
2, 6030840, Note_off_c, 2, 67, 0
2, 6030960, Note_on_c, 2, 72, 50
2, 6031320, Note_off_c, 2, 72, 0
2, 6031440, Note_on_c, 2, 71, 50
2, 6031560, Note_off_c, 2, 71, 0
2, 6031680, Note_on_c, 2, 72, 50
2, 6032040, Note_off_c, 2, 72, 0
2, 6032160, Note_on_c, 2, 71, 50
2, 6032280, Note_off_c, 2, 71, 0
2, 6032400, Note_on_c, 2, 67, 50
2, 6032520, Note_off_c, 2, 67, 0
2, 6032640, Note_on_c, 2, 65, 50
2, 6032760, Note_off_c, 2, 65, 0
2, 6032880, Note_on_c, 2, 65, 50
2, 6033240, Note_off_c, 2, 65, 0
2, 6033360, Note_on_c, 2, 65, 50
2, 6033480, Note_off_c, 2, 65, 0
2, 6033600, Note_on_c, 2, 67, 50
2, 6034320, Note_off_c, 2, 67, 0
2, 6034320, Note_on_c, 2, 67, 50
2, 6034440, Note_off_c, 2, 67, 0
2, 6034560, Note_on_c, 2, 67, 50
2, 6034800, Note_off_c, 2, 67, 0
2, 6034800, Note_on_c, 2, 65, 50
2, 6035040, Note_off_c, 2, 65, 0
2, 6035040, Note_on_c, 2, 67, 50
2, 6035280, Note_off_c, 2, 67, 0
2, 6035280, Note_on_c, 2, 65, 50
2, 6035520, Note_off_c, 2, 65, 0
2, 6035520, Note_on_c, 2, 64, 50
2, 6035760, Note_off_c, 2, 64, 0
2, 6035760, Note_on_c, 2, 65, 50
2, 6036480, Note_off_c, 2, 65, 0
2, 6036720, Note_on_c, 2, 64, 50
2, 6037440, Note_off_c, 2, 64, 0
2, 6038160, Note_on_c, 2, 67, 50
2, 6038520, Note_off_c, 2, 67, 0
2, 6038520, Note_on_c, 2, 69, 50
2, 6038640, Note_off_c, 2, 69, 0
2, 6038760, Note_on_c, 2, 71, 50
2, 6038880, Note_off_c, 2, 71, 0
2, 6038880, Note_on_c, 2, 71, 50
2, 6039000, Note_off_c, 2, 71, 0
2, 6039120, Note_on_c, 2, 71, 50
2, 6039240, Note_off_c, 2, 71, 0
2, 6039360, Note_on_c, 2, 71, 50
2, 6039480, Note_off_c, 2, 71, 0
2, 6039600, Note_on_c, 2, 72, 50
2, 6039720, Note_off_c, 2, 72, 0
2, 6039840, Note_on_c, 2, 74, 50
2, 6040440, Note_off_c, 2, 74, 0
2, 6040560, Note_on_c, 2, 71, 50
2, 6042000, Note_off_c, 2, 71, 0
2, 6042000, Note_on_c, 2, 67, 50
2, 6042240, Note_off_c, 2, 67, 0
2, 6042240, Note_on_c, 2, 69, 50
2, 6042480, Note_off_c, 2, 69, 0
2, 6042480, Note_on_c, 2, 71, 50
2, 6042600, Note_off_c, 2, 71, 0
2, 6042720, Note_on_c, 2, 71, 50
2, 6042840, Note_off_c, 2, 71, 0
2, 6042960, Note_on_c, 2, 71, 50
2, 6043080, Note_off_c, 2, 71, 0
2, 6043200, Note_on_c, 2, 71, 50
2, 6043320, Note_off_c, 2, 71, 0
2, 6043440, Note_on_c, 2, 72, 50
2, 6043560, Note_off_c, 2, 72, 0
2, 6043680, Note_on_c, 2, 74, 50
2, 6044280, Note_off_c, 2, 74, 0
2, 6044400, Note_on_c, 2, 71, 50
2, 6045360, Note_off_c, 2, 71, 0
2, 6045840, Note_on_c, 2, 72, 50
2, 6046080, Note_off_c, 2, 72, 0
2, 6046080, Note_on_c, 2, 74, 50
2, 6046200, Note_off_c, 2, 74, 0
2, 6046320, Note_on_c, 2, 76, 50
2, 6046440, Note_off_c, 2, 76, 0
2, 6046560, Note_on_c, 2, 76, 50
2, 6046680, Note_off_c, 2, 76, 0
2, 6046800, Note_on_c, 2, 76, 50
2, 6046920, Note_off_c, 2, 76, 0
2, 6047040, Note_on_c, 2, 76, 50
2, 6047160, Note_off_c, 2, 76, 0
2, 6047280, Note_on_c, 2, 76, 50
2, 6047520, Note_off_c, 2, 76, 0
2, 6047520, Note_on_c, 2, 74, 50
2, 6047760, Note_off_c, 2, 74, 0
2, 6047760, Note_on_c, 2, 72, 50
2, 6048000, Note_off_c, 2, 72, 0
2, 6048000, Note_on_c, 2, 74, 50
2, 6048240, Note_off_c, 2, 74, 0
2, 6048240, Note_on_c, 2, 72, 50
2, 6048720, Note_off_c, 2, 72, 0
2, 6048720, Note_on_c, 2, 71, 50
2, 6049680, Note_off_c, 2, 71, 0
2, 6049680, Note_on_c, 2, 67, 50
2, 6049800, Note_off_c, 2, 67, 0
2, 6049920, Note_on_c, 2, 67, 50
2, 6050040, Note_off_c, 2, 67, 0
2, 6050160, Note_on_c, 2, 69, 50
2, 6050280, Note_off_c, 2, 69, 0
2, 6050400, Note_on_c, 2, 69, 50
2, 6050520, Note_off_c, 2, 69, 0
2, 6050640, Note_on_c, 2, 69, 50
2, 6050760, Note_off_c, 2, 69, 0
2, 6050880, Note_on_c, 2, 69, 50
2, 6051000, Note_off_c, 2, 69, 0
2, 6051120, Note_on_c, 2, 71, 50
2, 6051840, Note_off_c, 2, 71, 0
2, 6051840, Note_on_c, 2, 72, 50
2, 6052080, Note_off_c, 2, 72, 0
2, 6052080, Note_on_c, 2, 67, 50
2, 6053880, Note_off_c, 2, 67, 0
2, 6054000, Note_on_c, 2, 72, 50
2, 6054720, Note_off_c, 2, 72, 0
2, 6054840, Note_on_c, 2, 74, 50
2, 6055800, Note_off_c, 2, 74, 0
2, 6055920, Note_on_c, 2, 69, 50
2, 6056160, Note_off_c, 2, 69, 0
2, 6056160, Note_on_c, 2, 69, 50
2, 6056400, Note_off_c, 2, 69, 0
2, 6056400, Note_on_c, 2, 69, 50
2, 6056640, Note_off_c, 2, 69, 0
2, 6056640, Note_on_c, 2, 69, 50
2, 6056880, Note_off_c, 2, 69, 0
2, 6056880, Note_on_c, 2, 71, 50
2, 6057480, Note_off_c, 2, 71, 0
2, 6057600, Note_on_c, 2, 72, 50
2, 6057840, Note_off_c, 2, 72, 0
2, 6057840, Note_on_c, 2, 67, 50
2, 6059400, Note_off_c, 2, 67, 0
2, 6059760, Note_on_c, 2, 76, 50
2, 6059880, Note_off_c, 2, 76, 0
2, 6059880, Note_on_c, 2, 69, 50
2, 6060480, Note_off_c, 2, 69, 0
2, 6060480, Note_on_c, 2, 74, 50
2, 6061080, Note_off_c, 2, 74, 0
2, 6061680, Note_on_c, 2, 76, 50
2, 6062280, Note_off_c, 2, 76, 0
2, 6062400, Note_on_c, 2, 74, 50
2, 6063000, Note_off_c, 2, 74, 0
2, 6063600, Note_on_c, 2, 76, 50
2, 6065160, Note_off_c, 2, 76, 0
2, 6069600, Note_on_c, 2, 64, 50
2, 6069840, Note_off_c, 2, 64, 0
2, 6069840, Note_on_c, 2, 71, 50
2, 6070440, Note_off_c, 2, 71, 0
2, 6070440, Note_on_c, 2, 69, 50
2, 6070560, Note_off_c, 2, 69, 0
2, 6070560, Note_on_c, 2, 71, 50
2, 6070680, Note_off_c, 2, 71, 0
2, 6070680, Note_on_c, 2, 68, 50
2, 6071280, Note_off_c, 2, 68, 0
2, 6071520, Note_on_c, 2, 66, 50
2, 6071760, Note_off_c, 2, 66, 0
2, 6071760, Note_on_c, 2, 69, 50
2, 6072000, Note_off_c, 2, 69, 0
2, 6072000, Note_on_c, 2, 71, 50
2, 6072240, Note_off_c, 2, 71, 0
2, 6072240, Note_on_c, 2, 69, 50
2, 6072480, Note_off_c, 2, 69, 0
2, 6072480, Note_on_c, 2, 71, 50
2, 6072600, Note_off_c, 2, 71, 0
2, 6072600, Note_on_c, 2, 68, 50
2, 6073080, Note_off_c, 2, 68, 0
2, 6073440, Note_on_c, 2, 64, 50
2, 6073920, Note_off_c, 2, 64, 0
2, 6073920, Note_on_c, 2, 73, 50
2, 6074280, Note_off_c, 2, 73, 0
2, 6074280, Note_on_c, 2, 71, 50
2, 6074400, Note_off_c, 2, 71, 0
2, 6074400, Note_on_c, 2, 69, 50
2, 6074520, Note_off_c, 2, 69, 0
2, 6074520, Note_on_c, 2, 71, 50
2, 6074640, Note_off_c, 2, 71, 0
2, 6074640, Note_on_c, 2, 71, 50
2, 6074760, Note_off_c, 2, 71, 0
2, 6074760, Note_on_c, 2, 69, 50
2, 6074880, Note_off_c, 2, 69, 0
2, 6074880, Note_on_c, 2, 71, 50
2, 6075000, Note_off_c, 2, 71, 0
2, 6075000, Note_on_c, 2, 69, 50
2, 6075120, Note_off_c, 2, 69, 0
2, 6075120, Note_on_c, 2, 66, 50
2, 6075600, Note_off_c, 2, 66, 0
2, 6075840, Note_on_c, 2, 64, 50
2, 6076080, Note_off_c, 2, 64, 0
2, 6076080, Note_on_c, 2, 73, 50
2, 6076320, Note_off_c, 2, 73, 0
2, 6076320, Note_on_c, 2, 71, 50
2, 6076440, Note_off_c, 2, 71, 0
2, 6076440, Note_on_c, 2, 73, 50
2, 6076680, Note_off_c, 2, 73, 0
2, 6076680, Note_on_c, 2, 71, 50
2, 6076800, Note_off_c, 2, 71, 0
2, 6076800, Note_on_c, 2, 64, 50
2, 6077040, Note_off_c, 2, 64, 0
2, 6077280, Note_on_c, 2, 62, 50
2, 6077520, Note_off_c, 2, 62, 0
2, 6077520, Note_on_c, 2, 61, 50
2, 6077760, Note_off_c, 2, 61, 0
2, 6077760, Note_on_c, 2, 61, 50
2, 6078120, Note_off_c, 2, 61, 0
2, 6078120, Note_on_c, 2, 61, 50
2, 6078240, Note_off_c, 2, 61, 0
2, 6078240, Note_on_c, 2, 61, 50
2, 6078600, Note_off_c, 2, 61, 0
2, 6078600, Note_on_c, 2, 64, 50
2, 6078720, Note_off_c, 2, 64, 0
2, 6078720, Note_on_c, 2, 64, 50
2, 6078840, Note_off_c, 2, 64, 0
2, 6079200, Note_on_c, 2, 64, 50
2, 6079440, Note_off_c, 2, 64, 0
2, 6079440, Note_on_c, 2, 66, 50
2, 6079680, Note_off_c, 2, 66, 0
2, 6079680, Note_on_c, 2, 66, 50
2, 6079920, Note_off_c, 2, 66, 0
2, 6079920, Note_on_c, 2, 66, 50
2, 6080160, Note_off_c, 2, 66, 0
2, 6080160, Note_on_c, 2, 66, 50
2, 6080280, Note_off_c, 2, 66, 0
2, 6080280, Note_on_c, 2, 69, 50
2, 6080640, Note_off_c, 2, 69, 0
2, 6080880, Note_on_c, 2, 72, 50
2, 6081000, Note_off_c, 2, 72, 0
2, 6081000, Note_on_c, 2, 71, 50
2, 6081240, Note_off_c, 2, 71, 0
2, 6081240, Note_on_c, 2, 69, 50
2, 6081360, Note_off_c, 2, 69, 0
2, 6081360, Note_on_c, 2, 71, 50
2, 6081480, Note_off_c, 2, 71, 0
2, 6081480, Note_on_c, 2, 69, 50
2, 6081600, Note_off_c, 2, 69, 0
2, 6081600, Note_on_c, 2, 65, 50
2, 6081840, Note_off_c, 2, 65, 0
2, 6082080, Note_on_c, 2, 64, 50
2, 6082320, Note_off_c, 2, 64, 0
2, 6082320, Note_on_c, 2, 71, 50
2, 6082920, Note_off_c, 2, 71, 0
2, 6082920, Note_on_c, 2, 69, 50
2, 6083040, Note_off_c, 2, 69, 0
2, 6083040, Note_on_c, 2, 71, 50
2, 6083160, Note_off_c, 2, 71, 0
2, 6083160, Note_on_c, 2, 68, 50
2, 6083760, Note_off_c, 2, 68, 0
2, 6084000, Note_on_c, 2, 66, 50
2, 6084240, Note_off_c, 2, 66, 0
2, 6084240, Note_on_c, 2, 69, 50
2, 6084480, Note_off_c, 2, 69, 0
2, 6084480, Note_on_c, 2, 71, 50
2, 6084720, Note_off_c, 2, 71, 0
2, 6084720, Note_on_c, 2, 69, 50
2, 6084960, Note_off_c, 2, 69, 0
2, 6084960, Note_on_c, 2, 71, 50
2, 6085080, Note_off_c, 2, 71, 0
2, 6085080, Note_on_c, 2, 68, 50
2, 6085560, Note_off_c, 2, 68, 0
2, 6085920, Note_on_c, 2, 64, 50
2, 6086400, Note_off_c, 2, 64, 0
2, 6086400, Note_on_c, 2, 73, 50
2, 6086760, Note_off_c, 2, 73, 0
2, 6086760, Note_on_c, 2, 71, 50
2, 6086880, Note_off_c, 2, 71, 0
2, 6086880, Note_on_c, 2, 69, 50
2, 6087000, Note_off_c, 2, 69, 0
2, 6087000, Note_on_c, 2, 71, 50
2, 6087120, Note_off_c, 2, 71, 0
2, 6087120, Note_on_c, 2, 71, 50
2, 6087240, Note_off_c, 2, 71, 0
2, 6087240, Note_on_c, 2, 69, 50
2, 6087360, Note_off_c, 2, 69, 0
2, 6087360, Note_on_c, 2, 71, 50
2, 6087480, Note_off_c, 2, 71, 0
2, 6087480, Note_on_c, 2, 69, 50
2, 6087600, Note_off_c, 2, 69, 0
2, 6087600, Note_on_c, 2, 66, 50
2, 6088080, Note_off_c, 2, 66, 0
2, 6088320, Note_on_c, 2, 64, 50
2, 6088560, Note_off_c, 2, 64, 0
2, 6088560, Note_on_c, 2, 73, 50
2, 6088800, Note_off_c, 2, 73, 0
2, 6088800, Note_on_c, 2, 71, 50
2, 6088920, Note_off_c, 2, 71, 0
2, 6088920, Note_on_c, 2, 73, 50
2, 6089160, Note_off_c, 2, 73, 0
2, 6089160, Note_on_c, 2, 71, 50
2, 6089280, Note_off_c, 2, 71, 0
2, 6089280, Note_on_c, 2, 64, 50
2, 6089520, Note_off_c, 2, 64, 0
2, 6089760, Note_on_c, 2, 69, 50
2, 6090000, Note_off_c, 2, 69, 0
2, 6090000, Note_on_c, 2, 73, 50
2, 6090240, Note_off_c, 2, 73, 0
2, 6090240, Note_on_c, 2, 73, 50
2, 6090480, Note_off_c, 2, 73, 0
2, 6090480, Note_on_c, 2, 76, 50
2, 6090600, Note_off_c, 2, 76, 0
2, 6090600, Note_on_c, 2, 76, 50
2, 6090840, Note_off_c, 2, 76, 0
2, 6090840, Note_on_c, 2, 80, 50
2, 6091080, Note_off_c, 2, 80, 0
2, 6091080, Note_on_c, 2, 78, 50
2, 6091200, Note_off_c, 2, 78, 0
2, 6091200, Note_on_c, 2, 76, 50
2, 6091320, Note_off_c, 2, 76, 0
2, 6091320, Note_on_c, 2, 78, 50
2, 6091440, Note_off_c, 2, 78, 0
2, 6091560, Note_on_c, 2, 76, 50
2, 6091680, Note_off_c, 2, 76, 0
2, 6091680, Note_on_c, 2, 78, 50
2, 6091920, Note_off_c, 2, 78, 0
2, 6091920, Note_on_c, 2, 85, 50
2, 6092280, Note_off_c, 2, 85, 0
2, 6092280, Note_on_c, 2, 78, 50
2, 6092520, Note_off_c, 2, 78, 0
2, 6092520, Note_on_c, 2, 76, 50
2, 6092640, Note_off_c, 2, 76, 0
2, 6092640, Note_on_c, 2, 78, 50
2, 6092760, Note_off_c, 2, 78, 0
2, 6092760, Note_on_c, 2, 83, 50
2, 6093240, Note_off_c, 2, 83, 0
2, 6093240, Note_on_c, 2, 81, 50
2, 6093720, Note_off_c, 2, 81, 0
2, 6094800, Note_on_c, 2, 64, 50
2, 6095040, Note_off_c, 2, 64, 0
2, 6095040, Note_on_c, 2, 64, 50
2, 6095280, Note_off_c, 2, 64, 0
2, 6095640, Note_on_c, 2, 64, 50
2, 6095760, Note_off_c, 2, 64, 0
2, 6095760, Note_on_c, 2, 69, 50
2, 6095880, Note_off_c, 2, 69, 0
2, 6095880, Note_on_c, 2, 66, 50
2, 6096000, Note_off_c, 2, 66, 0
2, 6096000, Note_on_c, 2, 64, 50
2, 6096120, Note_off_c, 2, 64, 0
2, 6096120, Note_on_c, 2, 69, 50
2, 6096360, Note_off_c, 2, 69, 0
2, 6096360, Note_on_c, 2, 66, 50
2, 6096480, Note_off_c, 2, 66, 0
2, 6096480, Note_on_c, 2, 64, 50
2, 6096600, Note_off_c, 2, 64, 0
2, 6096600, Note_on_c, 2, 61, 50
2, 6096720, Note_off_c, 2, 61, 0
2, 6096720, Note_on_c, 2, 64, 50
2, 6096960, Note_off_c, 2, 64, 0
2, 6096960, Note_on_c, 2, 64, 50
2, 6097200, Note_off_c, 2, 64, 0
2, 6097560, Note_on_c, 2, 64, 50
2, 6097680, Note_off_c, 2, 64, 0
2, 6097680, Note_on_c, 2, 69, 50
2, 6097800, Note_off_c, 2, 69, 0
2, 6097800, Note_on_c, 2, 71, 50
2, 6097920, Note_off_c, 2, 71, 0
2, 6097920, Note_on_c, 2, 73, 50
2, 6098040, Note_off_c, 2, 73, 0
2, 6098040, Note_on_c, 2, 69, 50
2, 6098280, Note_off_c, 2, 69, 0
2, 6098280, Note_on_c, 2, 64, 50
2, 6098400, Note_off_c, 2, 64, 0
2, 6098400, Note_on_c, 2, 66, 50
2, 6098520, Note_off_c, 2, 66, 0
2, 6098520, Note_on_c, 2, 64, 50
2, 6098640, Note_off_c, 2, 64, 0
2, 6098640, Note_on_c, 2, 71, 50
2, 6098880, Note_off_c, 2, 71, 0
2, 6098880, Note_on_c, 2, 71, 50
2, 6099120, Note_off_c, 2, 71, 0
2, 6099480, Note_on_c, 2, 71, 50
2, 6099600, Note_off_c, 2, 71, 0
2, 6099600, Note_on_c, 2, 74, 50
2, 6099720, Note_off_c, 2, 74, 0
2, 6099720, Note_on_c, 2, 74, 50
2, 6099840, Note_off_c, 2, 74, 0
2, 6099840, Note_on_c, 2, 74, 50
2, 6099960, Note_off_c, 2, 74, 0
2, 6099960, Note_on_c, 2, 74, 50
2, 6100200, Note_off_c, 2, 74, 0
2, 6100200, Note_on_c, 2, 74, 50
2, 6100320, Note_off_c, 2, 74, 0
2, 6100320, Note_on_c, 2, 74, 50
2, 6100440, Note_off_c, 2, 74, 0
2, 6100440, Note_on_c, 2, 74, 50
2, 6100560, Note_off_c, 2, 74, 0
2, 6100560, Note_on_c, 2, 74, 50
2, 6100800, Note_off_c, 2, 74, 0
2, 6100800, Note_on_c, 2, 74, 50
2, 6101040, Note_off_c, 2, 74, 0
2, 6101400, Note_on_c, 2, 74, 50
2, 6101520, Note_off_c, 2, 74, 0
2, 6101520, Note_on_c, 2, 81, 50
2, 6101640, Note_off_c, 2, 81, 0
2, 6101640, Note_on_c, 2, 81, 50
2, 6101760, Note_off_c, 2, 81, 0
2, 6101760, Note_on_c, 2, 81, 50
2, 6101880, Note_off_c, 2, 81, 0
2, 6101880, Note_on_c, 2, 78, 50
2, 6102120, Note_off_c, 2, 78, 0
2, 6102120, Note_on_c, 2, 76, 50
2, 6102240, Note_off_c, 2, 76, 0
2, 6102240, Note_on_c, 2, 74, 50
2, 6102360, Note_off_c, 2, 74, 0
2, 6102360, Note_on_c, 2, 74, 50
2, 6102480, Note_off_c, 2, 74, 0
2, 6102480, Note_on_c, 2, 78, 50
2, 6102600, Note_off_c, 2, 78, 0
2, 6102600, Note_on_c, 2, 78, 50
2, 6102720, Note_off_c, 2, 78, 0
2, 6102720, Note_on_c, 2, 78, 50
2, 6102840, Note_off_c, 2, 78, 0
2, 6102840, Note_on_c, 2, 78, 50
2, 6102960, Note_off_c, 2, 78, 0
2, 6102960, Note_on_c, 2, 78, 50
2, 6103080, Note_off_c, 2, 78, 0
2, 6103080, Note_on_c, 2, 78, 50
2, 6103200, Note_off_c, 2, 78, 0
2, 6103320, Note_on_c, 2, 78, 50
2, 6103440, Note_off_c, 2, 78, 0
2, 6103560, Note_on_c, 2, 78, 50
2, 6103680, Note_off_c, 2, 78, 0
2, 6103680, Note_on_c, 2, 78, 50
2, 6103800, Note_off_c, 2, 78, 0
2, 6103800, Note_on_c, 2, 78, 50
2, 6103920, Note_off_c, 2, 78, 0
2, 6103920, Note_on_c, 2, 78, 50
2, 6104040, Note_off_c, 2, 78, 0
2, 6104040, Note_on_c, 2, 78, 50
2, 6104280, Note_off_c, 2, 78, 0
2, 6104280, Note_on_c, 2, 78, 50
2, 6104400, Note_off_c, 2, 78, 0
2, 6104400, Note_on_c, 2, 76, 50
2, 6104880, Note_off_c, 2, 76, 0
2, 6106080, Note_on_c, 2, 64, 50
2, 6106320, Note_off_c, 2, 64, 0
2, 6106320, Note_on_c, 2, 71, 50
2, 6106920, Note_off_c, 2, 71, 0
2, 6106920, Note_on_c, 2, 69, 50
2, 6107040, Note_off_c, 2, 69, 0
2, 6107040, Note_on_c, 2, 71, 50
2, 6107160, Note_off_c, 2, 71, 0
2, 6107160, Note_on_c, 2, 68, 50
2, 6107760, Note_off_c, 2, 68, 0
2, 6108000, Note_on_c, 2, 66, 50
2, 6108240, Note_off_c, 2, 66, 0
2, 6108240, Note_on_c, 2, 69, 50
2, 6108480, Note_off_c, 2, 69, 0
2, 6108480, Note_on_c, 2, 71, 50
2, 6108720, Note_off_c, 2, 71, 0
2, 6108720, Note_on_c, 2, 69, 50
2, 6108960, Note_off_c, 2, 69, 0
2, 6108960, Note_on_c, 2, 71, 50
2, 6109080, Note_off_c, 2, 71, 0
2, 6109080, Note_on_c, 2, 68, 50
2, 6109560, Note_off_c, 2, 68, 0
2, 6109920, Note_on_c, 2, 64, 50
2, 6110400, Note_off_c, 2, 64, 0
2, 6110400, Note_on_c, 2, 73, 50
2, 6110760, Note_off_c, 2, 73, 0
2, 6110760, Note_on_c, 2, 71, 50
2, 6110880, Note_off_c, 2, 71, 0
2, 6110880, Note_on_c, 2, 69, 50
2, 6111000, Note_off_c, 2, 69, 0
2, 6111000, Note_on_c, 2, 71, 50
2, 6111120, Note_off_c, 2, 71, 0
2, 6111120, Note_on_c, 2, 71, 50
2, 6111240, Note_off_c, 2, 71, 0
2, 6111240, Note_on_c, 2, 69, 50
2, 6111360, Note_off_c, 2, 69, 0
2, 6111360, Note_on_c, 2, 71, 50
2, 6111480, Note_off_c, 2, 71, 0
2, 6111480, Note_on_c, 2, 69, 50
2, 6111600, Note_off_c, 2, 69, 0
2, 6111600, Note_on_c, 2, 66, 50
2, 6112080, Note_off_c, 2, 66, 0
2, 6112320, Note_on_c, 2, 64, 50
2, 6112560, Note_off_c, 2, 64, 0
2, 6112560, Note_on_c, 2, 73, 50
2, 6112800, Note_off_c, 2, 73, 0
2, 6112800, Note_on_c, 2, 71, 50
2, 6112920, Note_off_c, 2, 71, 0
2, 6112920, Note_on_c, 2, 73, 50
2, 6113160, Note_off_c, 2, 73, 0
2, 6113160, Note_on_c, 2, 71, 50
2, 6113280, Note_off_c, 2, 71, 0
2, 6113280, Note_on_c, 2, 64, 50
2, 6113520, Note_off_c, 2, 64, 0
2, 6113760, Note_on_c, 2, 62, 50
2, 6114000, Note_off_c, 2, 62, 0
2, 6114000, Note_on_c, 2, 61, 50
2, 6114240, Note_off_c, 2, 61, 0
2, 6114240, Note_on_c, 2, 61, 50
2, 6114480, Note_off_c, 2, 61, 0
2, 6114480, Note_on_c, 2, 61, 50
2, 6114720, Note_off_c, 2, 61, 0
2, 6114720, Note_on_c, 2, 61, 50
2, 6114840, Note_off_c, 2, 61, 0
2, 6114840, Note_on_c, 2, 64, 50
2, 6115200, Note_off_c, 2, 64, 0
2, 6115200, Note_on_c, 2, 64, 50
2, 6115440, Note_off_c, 2, 64, 0
2, 6115560, Note_on_c, 2, 64, 50
2, 6115680, Note_off_c, 2, 64, 0
2, 6115680, Note_on_c, 2, 64, 50
2, 6115920, Note_off_c, 2, 64, 0
2, 6115920, Note_on_c, 2, 66, 50
2, 6116160, Note_off_c, 2, 66, 0
2, 6116160, Note_on_c, 2, 66, 50
2, 6116400, Note_off_c, 2, 66, 0
2, 6116400, Note_on_c, 2, 66, 50
2, 6116640, Note_off_c, 2, 66, 0
2, 6116640, Note_on_c, 2, 66, 50
2, 6116880, Note_off_c, 2, 66, 0
2, 6116880, Note_on_c, 2, 69, 50
2, 6117120, Note_off_c, 2, 69, 0
2, 6118800, Note_on_c, 2, 64, 50
2, 6119040, Note_off_c, 2, 64, 0
2, 6119040, Note_on_c, 2, 64, 50
2, 6119280, Note_off_c, 2, 64, 0
2, 6119640, Note_on_c, 2, 64, 50
2, 6119760, Note_off_c, 2, 64, 0
2, 6119760, Note_on_c, 2, 69, 50
2, 6119880, Note_off_c, 2, 69, 0
2, 6119880, Note_on_c, 2, 66, 50
2, 6120000, Note_off_c, 2, 66, 0
2, 6120000, Note_on_c, 2, 64, 50
2, 6120120, Note_off_c, 2, 64, 0
2, 6120120, Note_on_c, 2, 69, 50
2, 6120360, Note_off_c, 2, 69, 0
2, 6120360, Note_on_c, 2, 66, 50
2, 6120480, Note_off_c, 2, 66, 0
2, 6120480, Note_on_c, 2, 64, 50
2, 6120600, Note_off_c, 2, 64, 0
2, 6120600, Note_on_c, 2, 61, 50
2, 6120720, Note_off_c, 2, 61, 0
2, 6120720, Note_on_c, 2, 64, 50
2, 6120960, Note_off_c, 2, 64, 0
2, 6120960, Note_on_c, 2, 64, 50
2, 6121200, Note_off_c, 2, 64, 0
2, 6121560, Note_on_c, 2, 64, 50
2, 6121680, Note_off_c, 2, 64, 0
2, 6121680, Note_on_c, 2, 69, 50
2, 6121800, Note_off_c, 2, 69, 0
2, 6121800, Note_on_c, 2, 71, 50
2, 6121920, Note_off_c, 2, 71, 0
2, 6121920, Note_on_c, 2, 73, 50
2, 6122040, Note_off_c, 2, 73, 0
2, 6122040, Note_on_c, 2, 69, 50
2, 6122280, Note_off_c, 2, 69, 0
2, 6122280, Note_on_c, 2, 64, 50
2, 6122400, Note_off_c, 2, 64, 0
2, 6122400, Note_on_c, 2, 66, 50
2, 6122520, Note_off_c, 2, 66, 0
2, 6122520, Note_on_c, 2, 64, 50
2, 6122640, Note_off_c, 2, 64, 0
2, 6122640, Note_on_c, 2, 71, 50
2, 6122880, Note_off_c, 2, 71, 0
2, 6122880, Note_on_c, 2, 71, 50
2, 6123120, Note_off_c, 2, 71, 0
2, 6123480, Note_on_c, 2, 71, 50
2, 6123600, Note_off_c, 2, 71, 0
2, 6123600, Note_on_c, 2, 74, 50
2, 6123720, Note_off_c, 2, 74, 0
2, 6123720, Note_on_c, 2, 74, 50
2, 6123840, Note_off_c, 2, 74, 0
2, 6123840, Note_on_c, 2, 74, 50
2, 6123960, Note_off_c, 2, 74, 0
2, 6123960, Note_on_c, 2, 74, 50
2, 6124200, Note_off_c, 2, 74, 0
2, 6124200, Note_on_c, 2, 74, 50
2, 6124320, Note_off_c, 2, 74, 0
2, 6124320, Note_on_c, 2, 74, 50
2, 6124440, Note_off_c, 2, 74, 0
2, 6124440, Note_on_c, 2, 74, 50
2, 6124560, Note_off_c, 2, 74, 0
2, 6124560, Note_on_c, 2, 74, 50
2, 6124800, Note_off_c, 2, 74, 0
2, 6124800, Note_on_c, 2, 74, 50
2, 6125040, Note_off_c, 2, 74, 0
2, 6125400, Note_on_c, 2, 74, 50
2, 6125520, Note_off_c, 2, 74, 0
2, 6125520, Note_on_c, 2, 81, 50
2, 6125640, Note_off_c, 2, 81, 0
2, 6125640, Note_on_c, 2, 81, 50
2, 6125760, Note_off_c, 2, 81, 0
2, 6125760, Note_on_c, 2, 81, 50
2, 6125880, Note_off_c, 2, 81, 0
2, 6125880, Note_on_c, 2, 78, 50
2, 6126120, Note_off_c, 2, 78, 0
2, 6126120, Note_on_c, 2, 76, 50
2, 6126240, Note_off_c, 2, 76, 0
2, 6126240, Note_on_c, 2, 74, 50
2, 6126360, Note_off_c, 2, 74, 0
2, 6126360, Note_on_c, 2, 74, 50
2, 6126480, Note_off_c, 2, 74, 0
2, 6126480, Note_on_c, 2, 78, 50
2, 6126600, Note_off_c, 2, 78, 0
2, 6126600, Note_on_c, 2, 78, 50
2, 6126720, Note_off_c, 2, 78, 0
2, 6126720, Note_on_c, 2, 78, 50
2, 6126840, Note_off_c, 2, 78, 0
2, 6126840, Note_on_c, 2, 78, 50
2, 6126960, Note_off_c, 2, 78, 0
2, 6126960, Note_on_c, 2, 78, 50
2, 6127080, Note_off_c, 2, 78, 0
2, 6127080, Note_on_c, 2, 78, 50
2, 6127200, Note_off_c, 2, 78, 0
2, 6127320, Note_on_c, 2, 78, 50
2, 6127440, Note_off_c, 2, 78, 0
2, 6127560, Note_on_c, 2, 78, 50
2, 6127680, Note_off_c, 2, 78, 0
2, 6127680, Note_on_c, 2, 78, 50
2, 6127800, Note_off_c, 2, 78, 0
2, 6127800, Note_on_c, 2, 78, 50
2, 6127920, Note_off_c, 2, 78, 0
2, 6127920, Note_on_c, 2, 78, 50
2, 6128040, Note_off_c, 2, 78, 0
2, 6128040, Note_on_c, 2, 78, 50
2, 6128280, Note_off_c, 2, 78, 0
2, 6128280, Note_on_c, 2, 78, 50
2, 6128400, Note_off_c, 2, 78, 0
2, 6128400, Note_on_c, 2, 76, 50
2, 6128880, Note_off_c, 2, 76, 0
2, 6130320, Note_on_c, 2, 78, 50
2, 6130440, Note_off_c, 2, 78, 0
2, 6130440, Note_on_c, 2, 78, 50
2, 6130560, Note_off_c, 2, 78, 0
2, 6130560, Note_on_c, 2, 78, 50
2, 6130680, Note_off_c, 2, 78, 0
2, 6130680, Note_on_c, 2, 78, 50
2, 6130800, Note_off_c, 2, 78, 0
2, 6130800, Note_on_c, 2, 78, 50
2, 6130920, Note_off_c, 2, 78, 0
2, 6130920, Note_on_c, 2, 78, 50
2, 6131040, Note_off_c, 2, 78, 0
2, 6131160, Note_on_c, 2, 78, 50
2, 6131280, Note_off_c, 2, 78, 0
2, 6131400, Note_on_c, 2, 78, 50
2, 6131520, Note_off_c, 2, 78, 0
2, 6131520, Note_on_c, 2, 78, 50
2, 6131640, Note_off_c, 2, 78, 0
2, 6131640, Note_on_c, 2, 78, 50
2, 6131760, Note_off_c, 2, 78, 0
2, 6131760, Note_on_c, 2, 78, 50
2, 6131880, Note_off_c, 2, 78, 0
2, 6131880, Note_on_c, 2, 78, 50
2, 6132120, Note_off_c, 2, 78, 0
2, 6132120, Note_on_c, 2, 78, 50
2, 6132240, Note_off_c, 2, 78, 0
2, 6132240, Note_on_c, 2, 76, 50
2, 6132720, Note_off_c, 2, 76, 0
2, 6134160, Note_on_c, 2, 78, 50
2, 6134280, Note_off_c, 2, 78, 0
2, 6134280, Note_on_c, 2, 78, 50
2, 6134400, Note_off_c, 2, 78, 0
2, 6134400, Note_on_c, 2, 78, 50
2, 6134520, Note_off_c, 2, 78, 0
2, 6134520, Note_on_c, 2, 78, 50
2, 6134640, Note_off_c, 2, 78, 0
2, 6134640, Note_on_c, 2, 78, 50
2, 6134760, Note_off_c, 2, 78, 0
2, 6134760, Note_on_c, 2, 78, 50
2, 6134880, Note_off_c, 2, 78, 0
2, 6135000, Note_on_c, 2, 78, 50
2, 6135120, Note_off_c, 2, 78, 0
2, 6135240, Note_on_c, 2, 78, 50
2, 6135360, Note_off_c, 2, 78, 0
2, 6135360, Note_on_c, 2, 78, 50
2, 6135480, Note_off_c, 2, 78, 0
2, 6135480, Note_on_c, 2, 78, 50
2, 6135600, Note_off_c, 2, 78, 0
2, 6135600, Note_on_c, 2, 78, 50
2, 6135720, Note_off_c, 2, 78, 0
2, 6135720, Note_on_c, 2, 78, 50
2, 6135960, Note_off_c, 2, 78, 0
2, 6135960, Note_on_c, 2, 78, 50
2, 6136080, Note_off_c, 2, 78, 0
2, 6136080, Note_on_c, 2, 76, 50
2, 6136560, Note_off_c, 2, 76, 0
2, 6162480, Note_on_c, 2, 60, 50
2, 6162960, Note_off_c, 2, 60, 0
2, 6162960, Note_on_c, 2, 60, 50
2, 6163440, Note_off_c, 2, 60, 0
2, 6163440, Note_on_c, 2, 60, 50
2, 6163920, Note_off_c, 2, 60, 0
2, 6163920, Note_on_c, 2, 60, 50
2, 6164280, Note_off_c, 2, 60, 0
2, 6164280, Note_on_c, 2, 62, 50
2, 6164880, Note_off_c, 2, 62, 0
2, 6164880, Note_on_c, 2, 60, 50
2, 6165360, Note_off_c, 2, 60, 0
2, 6165360, Note_on_c, 2, 60, 50
2, 6165840, Note_off_c, 2, 60, 0
2, 6165840, Note_on_c, 2, 64, 50
2, 6166320, Note_off_c, 2, 64, 0
2, 6166320, Note_on_c, 2, 64, 50
2, 6166800, Note_off_c, 2, 64, 0
2, 6166800, Note_on_c, 2, 60, 50
2, 6167160, Note_off_c, 2, 60, 0
2, 6167160, Note_on_c, 2, 60, 50
2, 6167760, Note_off_c, 2, 60, 0
2, 6167760, Note_on_c, 2, 65, 50
2, 6168240, Note_off_c, 2, 65, 0
2, 6168240, Note_on_c, 2, 65, 50
2, 6168720, Note_off_c, 2, 65, 0
2, 6168720, Note_on_c, 2, 64, 50
2, 6169200, Note_off_c, 2, 64, 0
2, 6169200, Note_on_c, 2, 64, 50
2, 6169560, Note_off_c, 2, 64, 0
2, 6169560, Note_on_c, 2, 62, 50
2, 6170160, Note_off_c, 2, 62, 0
2, 6170160, Note_on_c, 2, 60, 50
2, 6170640, Note_off_c, 2, 60, 0
2, 6170640, Note_on_c, 2, 60, 50
2, 6171120, Note_off_c, 2, 60, 0
2, 6171120, Note_on_c, 2, 60, 50
2, 6171600, Note_off_c, 2, 60, 0
2, 6171600, Note_on_c, 2, 60, 50
2, 6171960, Note_off_c, 2, 60, 0
2, 6171960, Note_on_c, 2, 62, 50
2, 6172560, Note_off_c, 2, 62, 0
2, 6172560, Note_on_c, 2, 60, 50
2, 6173040, Note_off_c, 2, 60, 0
2, 6173040, Note_on_c, 2, 60, 50
2, 6173520, Note_off_c, 2, 60, 0
2, 6173520, Note_on_c, 2, 60, 50
2, 6173880, Note_off_c, 2, 60, 0
2, 6173880, Note_on_c, 2, 64, 50
2, 6174480, Note_off_c, 2, 64, 0
2, 6174480, Note_on_c, 2, 60, 50
2, 6174960, Note_off_c, 2, 60, 0
2, 6174960, Note_on_c, 2, 60, 50
2, 6175440, Note_off_c, 2, 60, 0
2, 6175440, Note_on_c, 2, 65, 50
2, 6175920, Note_off_c, 2, 65, 0
2, 6175920, Note_on_c, 2, 65, 50
2, 6176400, Note_off_c, 2, 65, 0
2, 6176400, Note_on_c, 2, 64, 50
2, 6176760, Note_off_c, 2, 64, 0
2, 6176760, Note_on_c, 2, 64, 50
2, 6177360, Note_off_c, 2, 64, 0
2, 6177360, Note_on_c, 2, 62, 50
2, 6177840, Note_off_c, 2, 62, 0
2, 6177840, Note_on_c, 2, 60, 50
2, 6178320, Note_off_c, 2, 60, 0
2, 6179760, Note_on_c, 2, 65, 50
2, 6180720, Note_off_c, 2, 65, 0
2, 6180720, Note_on_c, 2, 64, 50
2, 6181680, Note_off_c, 2, 64, 0
2, 6181680, Note_on_c, 2, 62, 50
2, 6182640, Note_off_c, 2, 62, 0
2, 6182640, Note_on_c, 2, 60, 50
2, 6183000, Note_off_c, 2, 60, 0
2, 6183000, Note_on_c, 2, 59, 50
2, 6183480, Note_off_c, 2, 59, 0
2, 6183480, Note_on_c, 2, 60, 50
2, 6185040, Note_off_c, 2, 60, 0
2, 6185520, Note_on_c, 2, 60, 50
2, 6185880, Note_off_c, 2, 60, 0
2, 6185880, Note_on_c, 2, 60, 50
2, 6186360, Note_off_c, 2, 60, 0
2, 6186360, Note_on_c, 2, 60, 50
2, 6186960, Note_off_c, 2, 60, 0
2, 6186960, Note_on_c, 2, 62, 50
2, 6187440, Note_off_c, 2, 62, 0
2, 6187440, Note_on_c, 2, 62, 50
2, 6187800, Note_off_c, 2, 62, 0
2, 6187800, Note_on_c, 2, 60, 50
2, 6188280, Note_off_c, 2, 60, 0
2, 6188280, Note_on_c, 2, 60, 50
2, 6188880, Note_off_c, 2, 60, 0
2, 6188880, Note_on_c, 2, 64, 50
2, 6189360, Note_off_c, 2, 64, 0
2, 6189360, Note_on_c, 2, 64, 50
2, 6189840, Note_off_c, 2, 64, 0
2, 6189840, Note_on_c, 2, 60, 50
2, 6190320, Note_off_c, 2, 60, 0
2, 6190320, Note_on_c, 2, 60, 50
2, 6190800, Note_off_c, 2, 60, 0
2, 6190800, Note_on_c, 2, 65, 50
2, 6191280, Note_off_c, 2, 65, 0
2, 6191280, Note_on_c, 2, 65, 50
2, 6191640, Note_off_c, 2, 65, 0
2, 6191640, Note_on_c, 2, 64, 50
2, 6192120, Note_off_c, 2, 64, 0
2, 6192120, Note_on_c, 2, 64, 50
2, 6192720, Note_off_c, 2, 64, 0
2, 6192720, Note_on_c, 2, 62, 50
2, 6193200, Note_off_c, 2, 62, 0
2, 6193200, Note_on_c, 2, 60, 50
2, 6193680, Note_off_c, 2, 60, 0
2, 6193680, Note_on_c, 2, 60, 50
2, 6194160, Note_off_c, 2, 60, 0
2, 6194160, Note_on_c, 2, 60, 50
2, 6194640, Note_off_c, 2, 60, 0
2, 6194640, Note_on_c, 2, 60, 50
2, 6195000, Note_off_c, 2, 60, 0
2, 6195000, Note_on_c, 2, 62, 50
2, 6195600, Note_off_c, 2, 62, 0
2, 6195600, Note_on_c, 2, 60, 50
2, 6195960, Note_off_c, 2, 60, 0
2, 6195960, Note_on_c, 2, 60, 50
2, 6196560, Note_off_c, 2, 60, 0
2, 6196920, Note_on_c, 2, 64, 50
2, 6197040, Note_off_c, 2, 64, 0
2, 6197040, Note_on_c, 2, 64, 50
2, 6197520, Note_off_c, 2, 64, 0
2, 6197520, Note_on_c, 2, 60, 50
2, 6198000, Note_off_c, 2, 60, 0
2, 6198000, Note_on_c, 2, 60, 50
2, 6198480, Note_off_c, 2, 60, 0
2, 6198480, Note_on_c, 2, 65, 50
2, 6198960, Note_off_c, 2, 65, 0
2, 6198960, Note_on_c, 2, 65, 50
2, 6199440, Note_off_c, 2, 65, 0
2, 6199440, Note_on_c, 2, 64, 50
2, 6199800, Note_off_c, 2, 64, 0
2, 6199800, Note_on_c, 2, 64, 50
2, 6200400, Note_off_c, 2, 64, 0
2, 6200400, Note_on_c, 2, 62, 50
2, 6200760, Note_off_c, 2, 62, 0
2, 6200760, Note_on_c, 2, 60, 50
2, 6201360, Note_off_c, 2, 60, 0
2, 6202800, Note_on_c, 2, 65, 50
2, 6203760, Note_off_c, 2, 65, 0
2, 6203760, Note_on_c, 2, 64, 50
2, 6204720, Note_off_c, 2, 64, 0
2, 6204720, Note_on_c, 2, 62, 50
2, 6205680, Note_off_c, 2, 62, 0
2, 6205680, Note_on_c, 2, 60, 50
2, 6206040, Note_off_c, 2, 60, 0
2, 6206040, Note_on_c, 2, 59, 50
2, 6206520, Note_off_c, 2, 59, 0
2, 6206520, Note_on_c, 2, 60, 50
2, 6208080, Note_off_c, 2, 60, 0
2, 6208560, Note_on_c, 2, 71, 50
2, 6209400, Note_off_c, 2, 71, 0
2, 6209400, Note_on_c, 2, 71, 50
2, 6210960, Note_off_c, 2, 71, 0
2, 6210960, Note_on_c, 2, 74, 50
2, 6211440, Note_off_c, 2, 74, 0
2, 6211440, Note_on_c, 2, 72, 50
2, 6211920, Note_off_c, 2, 72, 0
2, 6211920, Note_on_c, 2, 71, 50
2, 6212400, Note_off_c, 2, 71, 0
2, 6212400, Note_on_c, 2, 72, 50
2, 6212760, Note_off_c, 2, 72, 0
2, 6212760, Note_on_c, 2, 71, 50
2, 6213240, Note_off_c, 2, 71, 0
2, 6213240, Note_on_c, 2, 69, 50
2, 6214320, Note_off_c, 2, 69, 0
2, 6214800, Note_on_c, 2, 72, 50
2, 6215280, Note_off_c, 2, 72, 0
2, 6215280, Note_on_c, 2, 72, 50
2, 6215640, Note_off_c, 2, 72, 0
2, 6215640, Note_on_c, 2, 72, 50
2, 6216240, Note_off_c, 2, 72, 0
2, 6216240, Note_on_c, 2, 67, 50
2, 6217080, Note_off_c, 2, 67, 0
2, 6217080, Note_on_c, 2, 67, 50
2, 6218160, Note_off_c, 2, 67, 0
2, 6218640, Note_on_c, 2, 69, 50
2, 6219120, Note_off_c, 2, 69, 0
2, 6219120, Note_on_c, 2, 67, 50
2, 6219600, Note_off_c, 2, 67, 0
2, 6219600, Note_on_c, 2, 65, 50
2, 6219960, Note_off_c, 2, 65, 0
2, 6219960, Note_on_c, 2, 64, 50
2, 6221520, Note_off_c, 2, 64, 0
2, 6223920, Note_on_c, 2, 60, 50
2, 6224280, Note_off_c, 2, 60, 0
2, 6224280, Note_on_c, 2, 60, 50
2, 6224760, Note_off_c, 2, 60, 0
2, 6224760, Note_on_c, 2, 60, 50
2, 6225360, Note_off_c, 2, 60, 0
2, 6225360, Note_on_c, 2, 60, 50
2, 6225720, Note_off_c, 2, 60, 0
2, 6225720, Note_on_c, 2, 62, 50
2, 6226320, Note_off_c, 2, 62, 0
2, 6226320, Note_on_c, 2, 60, 50
2, 6226800, Note_off_c, 2, 60, 0
2, 6226800, Note_on_c, 2, 60, 50
2, 6227280, Note_off_c, 2, 60, 0
2, 6227280, Note_on_c, 2, 64, 50
2, 6227760, Note_off_c, 2, 64, 0
2, 6227760, Note_on_c, 2, 64, 50
2, 6228240, Note_off_c, 2, 64, 0
2, 6228240, Note_on_c, 2, 60, 50
2, 6228600, Note_off_c, 2, 60, 0
2, 6228600, Note_on_c, 2, 60, 50
2, 6229200, Note_off_c, 2, 60, 0
2, 6229200, Note_on_c, 2, 65, 50
2, 6229680, Note_off_c, 2, 65, 0
2, 6229680, Note_on_c, 2, 65, 50
2, 6230160, Note_off_c, 2, 65, 0
2, 6230160, Note_on_c, 2, 64, 50
2, 6230640, Note_off_c, 2, 64, 0
2, 6230640, Note_on_c, 2, 64, 50
2, 6231120, Note_off_c, 2, 64, 0
2, 6231120, Note_on_c, 2, 62, 50
2, 6231600, Note_off_c, 2, 62, 0
2, 6231600, Note_on_c, 2, 60, 50
2, 6232080, Note_off_c, 2, 60, 0
2, 6232080, Note_on_c, 2, 60, 50
2, 6232560, Note_off_c, 2, 60, 0
2, 6232560, Note_on_c, 2, 60, 50
2, 6233040, Note_off_c, 2, 60, 0
2, 6233040, Note_on_c, 2, 60, 50
2, 6233400, Note_off_c, 2, 60, 0
2, 6233400, Note_on_c, 2, 62, 50
2, 6234000, Note_off_c, 2, 62, 0
2, 6234000, Note_on_c, 2, 60, 50
2, 6234360, Note_off_c, 2, 60, 0
2, 6234360, Note_on_c, 2, 60, 50
2, 6234960, Note_off_c, 2, 60, 0
2, 6235320, Note_on_c, 2, 64, 50
2, 6235440, Note_off_c, 2, 64, 0
2, 6235440, Note_on_c, 2, 64, 50
2, 6235800, Note_off_c, 2, 64, 0
2, 6235800, Note_on_c, 2, 60, 50
2, 6236280, Note_off_c, 2, 60, 0
2, 6236280, Note_on_c, 2, 60, 50
2, 6236880, Note_off_c, 2, 60, 0
2, 6236880, Note_on_c, 2, 65, 50
2, 6237360, Note_off_c, 2, 65, 0
2, 6237360, Note_on_c, 2, 65, 50
2, 6237720, Note_off_c, 2, 65, 0
2, 6237720, Note_on_c, 2, 64, 50
2, 6238200, Note_off_c, 2, 64, 0
2, 6238200, Note_on_c, 2, 64, 50
2, 6238800, Note_off_c, 2, 64, 0
2, 6238800, Note_on_c, 2, 62, 50
2, 6239280, Note_off_c, 2, 62, 0
2, 6239280, Note_on_c, 2, 60, 50
2, 6239760, Note_off_c, 2, 60, 0
2, 6241200, Note_on_c, 2, 65, 50
2, 6242160, Note_off_c, 2, 65, 0
2, 6242160, Note_on_c, 2, 64, 50
2, 6243120, Note_off_c, 2, 64, 0
2, 6243120, Note_on_c, 2, 62, 50
2, 6244080, Note_off_c, 2, 62, 0
2, 6244080, Note_on_c, 2, 60, 50
2, 6244440, Note_off_c, 2, 60, 0
2, 6244440, Note_on_c, 2, 59, 50
2, 6244920, Note_off_c, 2, 59, 0
2, 6244920, Note_on_c, 2, 60, 50
2, 6246480, Note_off_c, 2, 60, 0
2, 6246960, Note_on_c, 2, 71, 50
2, 6247800, Note_off_c, 2, 71, 0
2, 6247800, Note_on_c, 2, 71, 50
2, 6249360, Note_off_c, 2, 71, 0
2, 6249360, Note_on_c, 2, 74, 50
2, 6249840, Note_off_c, 2, 74, 0
2, 6249840, Note_on_c, 2, 72, 50
2, 6250320, Note_off_c, 2, 72, 0
2, 6250320, Note_on_c, 2, 71, 50
2, 6250800, Note_off_c, 2, 71, 0
2, 6250800, Note_on_c, 2, 72, 50
2, 6251160, Note_off_c, 2, 72, 0
2, 6251160, Note_on_c, 2, 71, 50
2, 6251640, Note_off_c, 2, 71, 0
2, 6251640, Note_on_c, 2, 69, 50
2, 6252720, Note_off_c, 2, 69, 0
2, 6253200, Note_on_c, 2, 72, 50
2, 6253680, Note_off_c, 2, 72, 0
2, 6253680, Note_on_c, 2, 72, 50
2, 6254040, Note_off_c, 2, 72, 0
2, 6254040, Note_on_c, 2, 72, 50
2, 6254640, Note_off_c, 2, 72, 0
2, 6254640, Note_on_c, 2, 67, 50
2, 6255480, Note_off_c, 2, 67, 0
2, 6255480, Note_on_c, 2, 67, 50
2, 6256560, Note_off_c, 2, 67, 0
2, 6257040, Note_on_c, 2, 69, 50
2, 6257520, Note_off_c, 2, 69, 0
2, 6257520, Note_on_c, 2, 67, 50
2, 6258000, Note_off_c, 2, 67, 0
2, 6258000, Note_on_c, 2, 65, 50
2, 6258360, Note_off_c, 2, 65, 0
2, 6258360, Note_on_c, 2, 64, 50
2, 6259920, Note_off_c, 2, 64, 0
2, 6262320, Note_on_c, 2, 67, 50
2, 6262800, Note_off_c, 2, 67, 0
2, 6264240, Note_on_c, 2, 67, 50
2, 6264600, Note_off_c, 2, 67, 0
2, 6264600, Note_on_c, 2, 65, 50
2, 6264720, Note_off_c, 2, 65, 0
2, 6264720, Note_on_c, 2, 67, 50
2, 6265080, Note_off_c, 2, 67, 0
2, 6265200, Note_on_c, 2, 67, 50
2, 6265680, Note_off_c, 2, 67, 0
2, 6285360, Note_on_c, 2, 71, 50
2, 6286200, Note_off_c, 2, 71, 0
2, 6286200, Note_on_c, 2, 71, 50
2, 6287760, Note_off_c, 2, 71, 0
2, 6287760, Note_on_c, 2, 74, 50
2, 6288240, Note_off_c, 2, 74, 0
2, 6288240, Note_on_c, 2, 72, 50
2, 6288720, Note_off_c, 2, 72, 0
2, 6288720, Note_on_c, 2, 71, 50
2, 6289200, Note_off_c, 2, 71, 0
2, 6289200, Note_on_c, 2, 72, 50
2, 6289560, Note_off_c, 2, 72, 0
2, 6289560, Note_on_c, 2, 71, 50
2, 6290040, Note_off_c, 2, 71, 0
2, 6290040, Note_on_c, 2, 69, 50
2, 6291120, Note_off_c, 2, 69, 0
2, 6291600, Note_on_c, 2, 72, 50
2, 6292080, Note_off_c, 2, 72, 0
2, 6292080, Note_on_c, 2, 72, 50
2, 6292440, Note_off_c, 2, 72, 0
2, 6292440, Note_on_c, 2, 72, 50
2, 6293040, Note_off_c, 2, 72, 0
2, 6293040, Note_on_c, 2, 67, 50
2, 6293880, Note_off_c, 2, 67, 0
2, 6293880, Note_on_c, 2, 67, 50
2, 6294960, Note_off_c, 2, 67, 0
2, 6295440, Note_on_c, 2, 69, 50
2, 6295920, Note_off_c, 2, 69, 0
2, 6295920, Note_on_c, 2, 67, 50
2, 6296400, Note_off_c, 2, 67, 0
2, 6296400, Note_on_c, 2, 65, 50
2, 6296760, Note_off_c, 2, 65, 0
2, 6296760, Note_on_c, 2, 64, 50
2, 6298320, Note_off_c, 2, 64, 0
2, 6300720, Note_on_c, 2, 60, 50
2, 6301080, Note_off_c, 2, 60, 0
2, 6301080, Note_on_c, 2, 60, 50
2, 6301560, Note_off_c, 2, 60, 0
2, 6301560, Note_on_c, 2, 60, 50
2, 6302160, Note_off_c, 2, 60, 0
2, 6302160, Note_on_c, 2, 60, 50
2, 6302520, Note_off_c, 2, 60, 0
2, 6302520, Note_on_c, 2, 62, 50
2, 6303120, Note_off_c, 2, 62, 0
2, 6303120, Note_on_c, 2, 60, 50
2, 6303600, Note_off_c, 2, 60, 0
2, 6303600, Note_on_c, 2, 60, 50
2, 6304080, Note_off_c, 2, 60, 0
2, 6304080, Note_on_c, 2, 64, 50
2, 6304560, Note_off_c, 2, 64, 0
2, 6304560, Note_on_c, 2, 64, 50
2, 6305040, Note_off_c, 2, 64, 0
2, 6305040, Note_on_c, 2, 60, 50
2, 6305400, Note_off_c, 2, 60, 0
2, 6305400, Note_on_c, 2, 60, 50
2, 6306000, Note_off_c, 2, 60, 0
2, 6306000, Note_on_c, 2, 65, 50
2, 6306480, Note_off_c, 2, 65, 0
2, 6306480, Note_on_c, 2, 65, 50
2, 6306960, Note_off_c, 2, 65, 0
2, 6306960, Note_on_c, 2, 64, 50
2, 6307440, Note_off_c, 2, 64, 0
2, 6307440, Note_on_c, 2, 64, 50
2, 6307920, Note_off_c, 2, 64, 0
2, 6307920, Note_on_c, 2, 62, 50
2, 6308400, Note_off_c, 2, 62, 0
2, 6308400, Note_on_c, 2, 60, 50
2, 6308880, Note_off_c, 2, 60, 0
2, 6308880, Note_on_c, 2, 60, 50
2, 6309360, Note_off_c, 2, 60, 0
2, 6309360, Note_on_c, 2, 60, 50
2, 6309840, Note_off_c, 2, 60, 0
2, 6309840, Note_on_c, 2, 60, 50
2, 6310200, Note_off_c, 2, 60, 0
2, 6310200, Note_on_c, 2, 62, 50
2, 6310800, Note_off_c, 2, 62, 0
2, 6310800, Note_on_c, 2, 60, 50
2, 6311160, Note_off_c, 2, 60, 0
2, 6311160, Note_on_c, 2, 60, 50
2, 6311760, Note_off_c, 2, 60, 0
2, 6312120, Note_on_c, 2, 64, 50
2, 6312240, Note_off_c, 2, 64, 0
2, 6312240, Note_on_c, 2, 64, 50
2, 6312600, Note_off_c, 2, 64, 0
2, 6312600, Note_on_c, 2, 60, 50
2, 6313080, Note_off_c, 2, 60, 0
2, 6313080, Note_on_c, 2, 60, 50
2, 6313680, Note_off_c, 2, 60, 0
2, 6313680, Note_on_c, 2, 65, 50
2, 6314160, Note_off_c, 2, 65, 0
2, 6314160, Note_on_c, 2, 65, 50
2, 6314520, Note_off_c, 2, 65, 0
2, 6314520, Note_on_c, 2, 64, 50
2, 6315000, Note_off_c, 2, 64, 0
2, 6315000, Note_on_c, 2, 64, 50
2, 6315600, Note_off_c, 2, 64, 0
2, 6315600, Note_on_c, 2, 62, 50
2, 6316080, Note_off_c, 2, 62, 0
2, 6316080, Note_on_c, 2, 60, 50
2, 6316560, Note_off_c, 2, 60, 0
2, 6318000, Note_on_c, 2, 65, 50
2, 6318960, Note_off_c, 2, 65, 0
2, 6318960, Note_on_c, 2, 64, 50
2, 6319920, Note_off_c, 2, 64, 0
2, 6319920, Note_on_c, 2, 62, 50
2, 6320880, Note_off_c, 2, 62, 0
2, 6320880, Note_on_c, 2, 60, 50
2, 6321240, Note_off_c, 2, 60, 0
2, 6321240, Note_on_c, 2, 59, 50
2, 6321720, Note_off_c, 2, 59, 0
2, 6321720, Note_on_c, 2, 60, 50
2, 6323280, Note_off_c, 2, 60, 0
2, 6323760, Note_on_c, 2, 71, 50
2, 6324600, Note_off_c, 2, 71, 0
2, 6324600, Note_on_c, 2, 71, 50
2, 6326160, Note_off_c, 2, 71, 0
2, 6326160, Note_on_c, 2, 74, 50
2, 6326640, Note_off_c, 2, 74, 0
2, 6326640, Note_on_c, 2, 72, 50
2, 6327120, Note_off_c, 2, 72, 0
2, 6327120, Note_on_c, 2, 71, 50
2, 6327600, Note_off_c, 2, 71, 0
2, 6327600, Note_on_c, 2, 72, 50
2, 6327960, Note_off_c, 2, 72, 0
2, 6327960, Note_on_c, 2, 71, 50
2, 6328440, Note_off_c, 2, 71, 0
2, 6328440, Note_on_c, 2, 69, 50
2, 6329520, Note_off_c, 2, 69, 0
2, 6330000, Note_on_c, 2, 72, 50
2, 6330480, Note_off_c, 2, 72, 0
2, 6330480, Note_on_c, 2, 72, 50
2, 6330840, Note_off_c, 2, 72, 0
2, 6330840, Note_on_c, 2, 72, 50
2, 6331440, Note_off_c, 2, 72, 0
2, 6331440, Note_on_c, 2, 67, 50
2, 6332280, Note_off_c, 2, 67, 0
2, 6332280, Note_on_c, 2, 67, 50
2, 6333360, Note_off_c, 2, 67, 0
2, 6333840, Note_on_c, 2, 69, 50
2, 6334320, Note_off_c, 2, 69, 0
2, 6334320, Note_on_c, 2, 67, 50
2, 6334800, Note_off_c, 2, 67, 0
2, 6334800, Note_on_c, 2, 65, 50
2, 6335160, Note_off_c, 2, 65, 0
2, 6335160, Note_on_c, 2, 64, 50
2, 6336720, Note_off_c, 2, 64, 0
2, 6339120, Note_on_c, 2, 71, 50
2, 6339960, Note_off_c, 2, 71, 0
2, 6339960, Note_on_c, 2, 71, 50
2, 6341520, Note_off_c, 2, 71, 0
2, 6341520, Note_on_c, 2, 74, 50
2, 6342000, Note_off_c, 2, 74, 0
2, 6342000, Note_on_c, 2, 72, 50
2, 6342480, Note_off_c, 2, 72, 0
2, 6342480, Note_on_c, 2, 71, 50
2, 6342960, Note_off_c, 2, 71, 0
2, 6342960, Note_on_c, 2, 72, 50
2, 6343320, Note_off_c, 2, 72, 0
2, 6343320, Note_on_c, 2, 71, 50
2, 6343800, Note_off_c, 2, 71, 0
2, 6343800, Note_on_c, 2, 69, 50
2, 6344880, Note_off_c, 2, 69, 0
2, 6345360, Note_on_c, 2, 72, 50
2, 6345840, Note_off_c, 2, 72, 0
2, 6345840, Note_on_c, 2, 72, 50
2, 6346200, Note_off_c, 2, 72, 0
2, 6346200, Note_on_c, 2, 72, 50
2, 6346800, Note_off_c, 2, 72, 0
2, 6346800, Note_on_c, 2, 67, 50
2, 6347640, Note_off_c, 2, 67, 0
2, 6347640, Note_on_c, 2, 67, 50
2, 6348720, Note_off_c, 2, 67, 0
2, 6349200, Note_on_c, 2, 69, 50
2, 6349680, Note_off_c, 2, 69, 0
2, 6349680, Note_on_c, 2, 67, 50
2, 6350160, Note_off_c, 2, 67, 0
2, 6350160, Note_on_c, 2, 65, 50
2, 6350520, Note_off_c, 2, 65, 0
2, 6350520, Note_on_c, 2, 64, 50
2, 6352080, Note_off_c, 2, 64, 0
2, 6354480, Note_on_c, 2, 71, 50
2, 6354840, Note_off_c, 2, 71, 0
2, 6354960, Note_on_c, 2, 71, 50
2, 6355920, Note_off_c, 2, 71, 0
2, 6355920, Note_on_c, 2, 71, 50
2, 6356400, Note_off_c, 2, 71, 0
2, 6356880, Note_on_c, 2, 74, 50
2, 6357360, Note_off_c, 2, 74, 0
2, 6357360, Note_on_c, 2, 72, 50
2, 6357840, Note_off_c, 2, 72, 0
2, 6357840, Note_on_c, 2, 71, 50
2, 6358320, Note_off_c, 2, 71, 0
2, 6358320, Note_on_c, 2, 72, 50
2, 6358680, Note_off_c, 2, 72, 0
2, 6358680, Note_on_c, 2, 71, 50
2, 6359160, Note_off_c, 2, 71, 0
2, 6359160, Note_on_c, 2, 69, 50
2, 6360240, Note_off_c, 2, 69, 0
2, 6360720, Note_on_c, 2, 72, 50
2, 6361200, Note_off_c, 2, 72, 0
2, 6361200, Note_on_c, 2, 72, 50
2, 6361560, Note_off_c, 2, 72, 0
2, 6361560, Note_on_c, 2, 72, 50
2, 6362160, Note_off_c, 2, 72, 0
2, 6362160, Note_on_c, 2, 67, 50
2, 6363000, Note_off_c, 2, 67, 0
2, 6363000, Note_on_c, 2, 67, 50
2, 6364080, Note_off_c, 2, 67, 0
2, 6364560, Note_on_c, 2, 69, 50
2, 6365040, Note_off_c, 2, 69, 0
2, 6365040, Note_on_c, 2, 67, 50
2, 6365520, Note_off_c, 2, 67, 0
2, 6365520, Note_on_c, 2, 64, 50
2, 6365880, Note_off_c, 2, 64, 0
2, 6365880, Note_on_c, 2, 65, 50
2, 6367800, Note_off_c, 2, 65, 0
2, 6367800, Note_on_c, 2, 65, 50
2, 6367920, Note_off_c, 2, 65, 0
2, 6375840, Note_on_c, 2, 83, 50
2, 6376080, Note_off_c, 2, 83, 0
2, 6376080, Note_on_c, 2, 83, 50
2, 6376320, Note_off_c, 2, 83, 0
2, 6376320, Note_on_c, 2, 83, 50
2, 6376560, Note_off_c, 2, 83, 0
2, 6376560, Note_on_c, 2, 78, 50
2, 6377040, Note_off_c, 2, 78, 0
2, 6377040, Note_on_c, 2, 78, 50
2, 6377520, Note_off_c, 2, 78, 0
2, 6378000, Note_on_c, 2, 78, 50
2, 6378480, Note_off_c, 2, 78, 0
2, 6378960, Note_on_c, 2, 78, 50
2, 6379440, Note_off_c, 2, 78, 0
2, 6379680, Note_on_c, 2, 83, 50
2, 6379920, Note_off_c, 2, 83, 0
2, 6379920, Note_on_c, 2, 83, 50
2, 6380160, Note_off_c, 2, 83, 0
2, 6380160, Note_on_c, 2, 83, 50
2, 6380400, Note_off_c, 2, 83, 0
2, 6380400, Note_on_c, 2, 83, 50
2, 6380640, Note_off_c, 2, 83, 0
2, 6380640, Note_on_c, 2, 81, 50
2, 6380880, Note_off_c, 2, 81, 0
2, 6380880, Note_on_c, 2, 81, 50
2, 6381360, Note_off_c, 2, 81, 0
2, 6381840, Note_on_c, 2, 81, 50
2, 6382320, Note_off_c, 2, 81, 0
2, 6382800, Note_on_c, 2, 81, 50
2, 6383280, Note_off_c, 2, 81, 0
2, 6383520, Note_on_c, 2, 83, 50
2, 6383760, Note_off_c, 2, 83, 0
2, 6383760, Note_on_c, 2, 83, 50
2, 6384000, Note_off_c, 2, 83, 0
2, 6384000, Note_on_c, 2, 83, 50
2, 6384240, Note_off_c, 2, 83, 0
2, 6384240, Note_on_c, 2, 78, 50
2, 6384720, Note_off_c, 2, 78, 0
2, 6384720, Note_on_c, 2, 78, 50
2, 6385200, Note_off_c, 2, 78, 0
2, 6385920, Note_on_c, 2, 78, 50
2, 6386160, Note_off_c, 2, 78, 0
2, 6386160, Note_on_c, 2, 78, 50
2, 6386880, Note_off_c, 2, 78, 0
2, 6386880, Note_on_c, 2, 78, 50
2, 6387120, Note_off_c, 2, 78, 0
2, 6387120, Note_on_c, 2, 78, 50
2, 6387840, Note_off_c, 2, 78, 0
2, 6387840, Note_on_c, 2, 78, 50
2, 6388080, Note_off_c, 2, 78, 0
2, 6388080, Note_on_c, 2, 76, 50
2, 6389520, Note_off_c, 2, 76, 0
2, 6392400, Note_on_c, 2, 81, 50
2, 6392640, Note_off_c, 2, 81, 0
2, 6392640, Note_on_c, 2, 80, 50
2, 6392880, Note_off_c, 2, 80, 0
2, 6392880, Note_on_c, 2, 76, 50
2, 6393600, Note_off_c, 2, 76, 0
2, 6393600, Note_on_c, 2, 76, 50
2, 6393840, Note_off_c, 2, 76, 0
2, 6393840, Note_on_c, 2, 77, 50
2, 6394320, Note_off_c, 2, 77, 0
2, 6394320, Note_on_c, 2, 79, 50
2, 6394560, Note_off_c, 2, 79, 0
2, 6394560, Note_on_c, 2, 77, 50
2, 6395040, Note_off_c, 2, 77, 0
2, 6395040, Note_on_c, 2, 72, 50
2, 6395280, Note_off_c, 2, 72, 0
2, 6395280, Note_on_c, 2, 74, 50
2, 6395760, Note_off_c, 2, 74, 0
2, 6395760, Note_on_c, 2, 76, 50
2, 6396240, Note_off_c, 2, 76, 0
2, 6398160, Note_on_c, 2, 81, 50
2, 6398400, Note_off_c, 2, 81, 0
2, 6398400, Note_on_c, 2, 80, 50
2, 6398640, Note_off_c, 2, 80, 0
2, 6398640, Note_on_c, 2, 76, 50
2, 6399600, Note_off_c, 2, 76, 0
2, 6399600, Note_on_c, 2, 77, 50
2, 6400080, Note_off_c, 2, 77, 0
2, 6400080, Note_on_c, 2, 79, 50
2, 6400320, Note_off_c, 2, 79, 0
2, 6400320, Note_on_c, 2, 77, 50
2, 6400800, Note_off_c, 2, 77, 0
2, 6400800, Note_on_c, 2, 72, 50
2, 6401040, Note_off_c, 2, 72, 0
2, 6401040, Note_on_c, 2, 74, 50
2, 6401520, Note_off_c, 2, 74, 0
2, 6401520, Note_on_c, 2, 76, 50
2, 6402000, Note_off_c, 2, 76, 0
2, 6404640, Note_on_c, 2, 83, 50
2, 6404880, Note_off_c, 2, 83, 0
2, 6404880, Note_on_c, 2, 83, 50
2, 6405120, Note_off_c, 2, 83, 0
2, 6405120, Note_on_c, 2, 83, 50
2, 6405360, Note_off_c, 2, 83, 0
2, 6405360, Note_on_c, 2, 78, 50
2, 6405840, Note_off_c, 2, 78, 0
2, 6405840, Note_on_c, 2, 78, 50
2, 6406320, Note_off_c, 2, 78, 0
2, 6406800, Note_on_c, 2, 78, 50
2, 6407280, Note_off_c, 2, 78, 0
2, 6407760, Note_on_c, 2, 78, 50
2, 6408240, Note_off_c, 2, 78, 0
2, 6408480, Note_on_c, 2, 83, 50
2, 6408720, Note_off_c, 2, 83, 0
2, 6408720, Note_on_c, 2, 83, 50
2, 6408960, Note_off_c, 2, 83, 0
2, 6408960, Note_on_c, 2, 83, 50
2, 6409200, Note_off_c, 2, 83, 0
2, 6409200, Note_on_c, 2, 83, 50
2, 6409440, Note_off_c, 2, 83, 0
2, 6409440, Note_on_c, 2, 81, 50
2, 6409680, Note_off_c, 2, 81, 0
2, 6409680, Note_on_c, 2, 81, 50
2, 6410160, Note_off_c, 2, 81, 0
2, 6410640, Note_on_c, 2, 81, 50
2, 6411120, Note_off_c, 2, 81, 0
2, 6411600, Note_on_c, 2, 81, 50
2, 6412080, Note_off_c, 2, 81, 0
2, 6412320, Note_on_c, 2, 83, 50
2, 6412560, Note_off_c, 2, 83, 0
2, 6412560, Note_on_c, 2, 83, 50
2, 6412800, Note_off_c, 2, 83, 0
2, 6412800, Note_on_c, 2, 83, 50
2, 6413040, Note_off_c, 2, 83, 0
2, 6413040, Note_on_c, 2, 78, 50
2, 6413520, Note_off_c, 2, 78, 0
2, 6413520, Note_on_c, 2, 78, 50
2, 6414000, Note_off_c, 2, 78, 0
2, 6414720, Note_on_c, 2, 78, 50
2, 6414960, Note_off_c, 2, 78, 0
2, 6414960, Note_on_c, 2, 78, 50
2, 6415680, Note_off_c, 2, 78, 0
2, 6415680, Note_on_c, 2, 78, 50
2, 6415920, Note_off_c, 2, 78, 0
2, 6415920, Note_on_c, 2, 78, 50
2, 6416640, Note_off_c, 2, 78, 0
2, 6416640, Note_on_c, 2, 78, 50
2, 6416880, Note_off_c, 2, 78, 0
2, 6416880, Note_on_c, 2, 76, 50
2, 6418320, Note_off_c, 2, 76, 0
2, 6420240, Note_on_c, 2, 73, 50
2, 6420480, Note_off_c, 2, 73, 0
2, 6420480, Note_on_c, 2, 73, 50
2, 6420720, Note_off_c, 2, 73, 0
2, 6420720, Note_on_c, 2, 76, 50
2, 6421200, Note_off_c, 2, 76, 0
2, 6421200, Note_on_c, 2, 76, 50
2, 6421680, Note_off_c, 2, 76, 0
2, 6422640, Note_on_c, 2, 76, 50
2, 6422880, Note_off_c, 2, 76, 0
2, 6422880, Note_on_c, 2, 76, 50
2, 6423120, Note_off_c, 2, 76, 0
2, 6423120, Note_on_c, 2, 78, 50
2, 6423360, Note_off_c, 2, 78, 0
2, 6423360, Note_on_c, 2, 76, 50
2, 6424080, Note_off_c, 2, 76, 0
2, 6424080, Note_on_c, 2, 76, 50
2, 6424320, Note_off_c, 2, 76, 0
2, 6424320, Note_on_c, 2, 73, 50
2, 6424560, Note_off_c, 2, 73, 0
2, 6424560, Note_on_c, 2, 76, 50
2, 6424800, Note_off_c, 2, 76, 0
2, 6424800, Note_on_c, 2, 76, 50
2, 6425040, Note_off_c, 2, 76, 0
2, 6426240, Note_on_c, 2, 76, 50
2, 6426480, Note_off_c, 2, 76, 0
2, 6426480, Note_on_c, 2, 78, 50
2, 6426720, Note_off_c, 2, 78, 0
2, 6426720, Note_on_c, 2, 76, 50
2, 6426960, Note_off_c, 2, 76, 0
2, 6426960, Note_on_c, 2, 73, 50
2, 6427200, Note_off_c, 2, 73, 0
2, 6427200, Note_on_c, 2, 70, 50
2, 6427920, Note_off_c, 2, 70, 0
2, 6428400, Note_on_c, 2, 74, 50
2, 6428880, Note_off_c, 2, 74, 0
2, 6428880, Note_on_c, 2, 74, 50
2, 6429360, Note_off_c, 2, 74, 0
2, 6429360, Note_on_c, 2, 74, 50
2, 6429840, Note_off_c, 2, 74, 0
2, 6429840, Note_on_c, 2, 74, 50
2, 6430080, Note_off_c, 2, 74, 0
2, 6430080, Note_on_c, 2, 71, 50
2, 6430320, Note_off_c, 2, 71, 0
2, 6430320, Note_on_c, 2, 73, 50
2, 6430560, Note_off_c, 2, 73, 0
2, 6430560, Note_on_c, 2, 73, 50
2, 6431040, Note_off_c, 2, 73, 0
2, 6431040, Note_on_c, 2, 71, 50
2, 6431280, Note_off_c, 2, 71, 0
2, 6431520, Note_on_c, 2, 81, 50
2, 6431760, Note_off_c, 2, 81, 0
2, 6431760, Note_on_c, 2, 81, 50
2, 6432000, Note_off_c, 2, 81, 0
2, 6432000, Note_on_c, 2, 78, 50
2, 6432240, Note_off_c, 2, 78, 0
2, 6432240, Note_on_c, 2, 81, 50
2, 6432480, Note_off_c, 2, 81, 0
2, 6432480, Note_on_c, 2, 78, 50
2, 6433200, Note_off_c, 2, 78, 0
2, 6433200, Note_on_c, 2, 85, 50
2, 6433560, Note_off_c, 2, 85, 0
2, 6433560, Note_on_c, 2, 83, 50
2, 6433920, Note_off_c, 2, 83, 0
2, 6434160, Note_on_c, 2, 83, 50
2, 6435120, Note_off_c, 2, 83, 0
2, 6435120, Note_on_c, 2, 76, 50
2, 6435600, Note_off_c, 2, 76, 0
2, 6436560, Note_on_c, 2, 81, 50
2, 6436800, Note_off_c, 2, 81, 0
2, 6436800, Note_on_c, 2, 80, 50
2, 6437040, Note_off_c, 2, 80, 0
2, 6437040, Note_on_c, 2, 76, 50
2, 6437760, Note_off_c, 2, 76, 0
2, 6437760, Note_on_c, 2, 76, 50
2, 6438000, Note_off_c, 2, 76, 0
2, 6438000, Note_on_c, 2, 77, 50
2, 6438480, Note_off_c, 2, 77, 0
2, 6438480, Note_on_c, 2, 79, 50
2, 6438720, Note_off_c, 2, 79, 0
2, 6438720, Note_on_c, 2, 77, 50
2, 6439200, Note_off_c, 2, 77, 0
2, 6439200, Note_on_c, 2, 72, 50
2, 6439440, Note_off_c, 2, 72, 0
2, 6439440, Note_on_c, 2, 74, 50
2, 6439920, Note_off_c, 2, 74, 0
2, 6439920, Note_on_c, 2, 76, 50
2, 6440400, Note_off_c, 2, 76, 0
2, 6442320, Note_on_c, 2, 81, 50
2, 6442560, Note_off_c, 2, 81, 0
2, 6442560, Note_on_c, 2, 80, 50
2, 6442800, Note_off_c, 2, 80, 0
2, 6442800, Note_on_c, 2, 76, 50
2, 6443760, Note_off_c, 2, 76, 0
2, 6443760, Note_on_c, 2, 77, 50
2, 6444240, Note_off_c, 2, 77, 0
2, 6444240, Note_on_c, 2, 79, 50
2, 6444480, Note_off_c, 2, 79, 0
2, 6444480, Note_on_c, 2, 77, 50
2, 6444960, Note_off_c, 2, 77, 0
2, 6444960, Note_on_c, 2, 72, 50
2, 6445200, Note_off_c, 2, 72, 0
2, 6445200, Note_on_c, 2, 74, 50
2, 6445680, Note_off_c, 2, 74, 0
2, 6445680, Note_on_c, 2, 76, 50
2, 6446160, Note_off_c, 2, 76, 0
2, 6448800, Note_on_c, 2, 83, 50
2, 6449040, Note_off_c, 2, 83, 0
2, 6449040, Note_on_c, 2, 83, 50
2, 6449280, Note_off_c, 2, 83, 0
2, 6449280, Note_on_c, 2, 83, 50
2, 6449520, Note_off_c, 2, 83, 0
2, 6449520, Note_on_c, 2, 78, 50
2, 6450000, Note_off_c, 2, 78, 0
2, 6450000, Note_on_c, 2, 78, 50
2, 6450480, Note_off_c, 2, 78, 0
2, 6450960, Note_on_c, 2, 78, 50
2, 6451440, Note_off_c, 2, 78, 0
2, 6451920, Note_on_c, 2, 78, 50
2, 6452400, Note_off_c, 2, 78, 0
2, 6452640, Note_on_c, 2, 83, 50
2, 6452880, Note_off_c, 2, 83, 0
2, 6452880, Note_on_c, 2, 83, 50
2, 6453120, Note_off_c, 2, 83, 0
2, 6453120, Note_on_c, 2, 83, 50
2, 6453360, Note_off_c, 2, 83, 0
2, 6453360, Note_on_c, 2, 83, 50
2, 6453600, Note_off_c, 2, 83, 0
2, 6453600, Note_on_c, 2, 81, 50
2, 6453840, Note_off_c, 2, 81, 0
2, 6453840, Note_on_c, 2, 81, 50
2, 6454320, Note_off_c, 2, 81, 0
2, 6454800, Note_on_c, 2, 81, 50
2, 6455280, Note_off_c, 2, 81, 0
2, 6455760, Note_on_c, 2, 81, 50
2, 6456240, Note_off_c, 2, 81, 0
2, 6456480, Note_on_c, 2, 83, 50
2, 6456720, Note_off_c, 2, 83, 0
2, 6456720, Note_on_c, 2, 83, 50
2, 6456960, Note_off_c, 2, 83, 0
2, 6456960, Note_on_c, 2, 83, 50
2, 6457200, Note_off_c, 2, 83, 0
2, 6457200, Note_on_c, 2, 78, 50
2, 6457680, Note_off_c, 2, 78, 0
2, 6457680, Note_on_c, 2, 78, 50
2, 6458160, Note_off_c, 2, 78, 0
2, 6458880, Note_on_c, 2, 78, 50
2, 6459120, Note_off_c, 2, 78, 0
2, 6459120, Note_on_c, 2, 78, 50
2, 6459840, Note_off_c, 2, 78, 0
2, 6459840, Note_on_c, 2, 78, 50
2, 6460080, Note_off_c, 2, 78, 0
2, 6460080, Note_on_c, 2, 78, 50
2, 6460800, Note_off_c, 2, 78, 0
2, 6460800, Note_on_c, 2, 78, 50
2, 6461040, Note_off_c, 2, 78, 0
2, 6461040, Note_on_c, 2, 76, 50
2, 6462480, Note_off_c, 2, 76, 0
2, 6464400, Note_on_c, 2, 73, 50
2, 6464640, Note_off_c, 2, 73, 0
2, 6464640, Note_on_c, 2, 73, 50
2, 6464880, Note_off_c, 2, 73, 0
2, 6464880, Note_on_c, 2, 76, 50
2, 6465360, Note_off_c, 2, 76, 0
2, 6465360, Note_on_c, 2, 76, 50
2, 6465840, Note_off_c, 2, 76, 0
2, 6466800, Note_on_c, 2, 76, 50
2, 6467040, Note_off_c, 2, 76, 0
2, 6467040, Note_on_c, 2, 76, 50
2, 6467280, Note_off_c, 2, 76, 0
2, 6467280, Note_on_c, 2, 78, 50
2, 6467520, Note_off_c, 2, 78, 0
2, 6467520, Note_on_c, 2, 76, 50
2, 6468240, Note_off_c, 2, 76, 0
2, 6468240, Note_on_c, 2, 76, 50
2, 6468480, Note_off_c, 2, 76, 0
2, 6468480, Note_on_c, 2, 73, 50
2, 6468720, Note_off_c, 2, 73, 0
2, 6468720, Note_on_c, 2, 76, 50
2, 6468960, Note_off_c, 2, 76, 0
2, 6468960, Note_on_c, 2, 76, 50
2, 6469200, Note_off_c, 2, 76, 0
2, 6470400, Note_on_c, 2, 76, 50
2, 6470640, Note_off_c, 2, 76, 0
2, 6470640, Note_on_c, 2, 78, 50
2, 6470880, Note_off_c, 2, 78, 0
2, 6470880, Note_on_c, 2, 76, 50
2, 6471120, Note_off_c, 2, 76, 0
2, 6471120, Note_on_c, 2, 73, 50
2, 6471360, Note_off_c, 2, 73, 0
2, 6471360, Note_on_c, 2, 70, 50
2, 6472080, Note_off_c, 2, 70, 0
2, 6472560, Note_on_c, 2, 74, 50
2, 6473040, Note_off_c, 2, 74, 0
2, 6473040, Note_on_c, 2, 74, 50
2, 6473520, Note_off_c, 2, 74, 0
2, 6473520, Note_on_c, 2, 74, 50
2, 6474000, Note_off_c, 2, 74, 0
2, 6474000, Note_on_c, 2, 74, 50
2, 6474240, Note_off_c, 2, 74, 0
2, 6474240, Note_on_c, 2, 71, 50
2, 6474480, Note_off_c, 2, 71, 0
2, 6474480, Note_on_c, 2, 73, 50
2, 6474720, Note_off_c, 2, 73, 0
2, 6474720, Note_on_c, 2, 73, 50
2, 6475200, Note_off_c, 2, 73, 0
2, 6475200, Note_on_c, 2, 71, 50
2, 6475440, Note_off_c, 2, 71, 0
2, 6475680, Note_on_c, 2, 81, 50
2, 6475920, Note_off_c, 2, 81, 0
2, 6475920, Note_on_c, 2, 81, 50
2, 6476160, Note_off_c, 2, 81, 0
2, 6476160, Note_on_c, 2, 78, 50
2, 6476400, Note_off_c, 2, 78, 0
2, 6476400, Note_on_c, 2, 81, 50
2, 6476640, Note_off_c, 2, 81, 0
2, 6476640, Note_on_c, 2, 78, 50
2, 6477360, Note_off_c, 2, 78, 0
2, 6477360, Note_on_c, 2, 85, 50
2, 6477720, Note_off_c, 2, 85, 0
2, 6477720, Note_on_c, 2, 83, 50
2, 6478080, Note_off_c, 2, 83, 0
2, 6478320, Note_on_c, 2, 83, 50
2, 6479280, Note_off_c, 2, 83, 0
2, 6479280, Note_on_c, 2, 76, 50
2, 6479760, Note_off_c, 2, 76, 0
2, 6480720, Note_on_c, 2, 81, 50
2, 6480960, Note_off_c, 2, 81, 0
2, 6480960, Note_on_c, 2, 80, 50
2, 6481200, Note_off_c, 2, 80, 0
2, 6481200, Note_on_c, 2, 76, 50
2, 6482160, Note_off_c, 2, 76, 0
2, 6482160, Note_on_c, 2, 77, 50
2, 6482640, Note_off_c, 2, 77, 0
2, 6482640, Note_on_c, 2, 79, 50
2, 6482880, Note_off_c, 2, 79, 0
2, 6482880, Note_on_c, 2, 77, 50
2, 6483360, Note_off_c, 2, 77, 0
2, 6483360, Note_on_c, 2, 72, 50
2, 6483600, Note_off_c, 2, 72, 0
2, 6483600, Note_on_c, 2, 74, 50
2, 6484080, Note_off_c, 2, 74, 0
2, 6484080, Note_on_c, 2, 76, 50
2, 6484560, Note_off_c, 2, 76, 0
2, 6486480, Note_on_c, 2, 81, 50
2, 6486720, Note_off_c, 2, 81, 0
2, 6486720, Note_on_c, 2, 80, 50
2, 6486960, Note_off_c, 2, 80, 0
2, 6486960, Note_on_c, 2, 76, 50
2, 6487680, Note_off_c, 2, 76, 0
2, 6487680, Note_on_c, 2, 76, 50
2, 6487920, Note_off_c, 2, 76, 0
2, 6487920, Note_on_c, 2, 77, 50
2, 6488400, Note_off_c, 2, 77, 0
2, 6488400, Note_on_c, 2, 79, 50
2, 6488640, Note_off_c, 2, 79, 0
2, 6488640, Note_on_c, 2, 77, 50
2, 6489120, Note_off_c, 2, 77, 0
2, 6489120, Note_on_c, 2, 72, 50
2, 6489360, Note_off_c, 2, 72, 0
2, 6489360, Note_on_c, 2, 74, 50
2, 6489840, Note_off_c, 2, 74, 0
2, 6489840, Note_on_c, 2, 76, 50
2, 6490320, Note_off_c, 2, 76, 0
2, 6492960, Note_on_c, 2, 83, 50
2, 6493200, Note_off_c, 2, 83, 0
2, 6493200, Note_on_c, 2, 83, 50
2, 6493440, Note_off_c, 2, 83, 0
2, 6493440, Note_on_c, 2, 83, 50
2, 6493680, Note_off_c, 2, 83, 0
2, 6493680, Note_on_c, 2, 78, 50
2, 6494160, Note_off_c, 2, 78, 0
2, 6494160, Note_on_c, 2, 78, 50
2, 6494640, Note_off_c, 2, 78, 0
2, 6495120, Note_on_c, 2, 78, 50
2, 6495600, Note_off_c, 2, 78, 0
2, 6496080, Note_on_c, 2, 78, 50
2, 6496560, Note_off_c, 2, 78, 0
2, 6496800, Note_on_c, 2, 83, 50
2, 6497040, Note_off_c, 2, 83, 0
2, 6497040, Note_on_c, 2, 83, 50
2, 6497280, Note_off_c, 2, 83, 0
2, 6497280, Note_on_c, 2, 83, 50
2, 6497520, Note_off_c, 2, 83, 0
2, 6497520, Note_on_c, 2, 83, 50
2, 6497640, Note_off_c, 2, 83, 0
2, 6497640, Note_on_c, 2, 85, 50
2, 6497760, Note_off_c, 2, 85, 0
2, 6497880, Note_on_c, 2, 83, 50
2, 6498000, Note_off_c, 2, 83, 0
2, 6498000, Note_on_c, 2, 81, 50
2, 6498480, Note_off_c, 2, 81, 0
2, 6498960, Note_on_c, 2, 81, 50
2, 6499440, Note_off_c, 2, 81, 0
2, 6499920, Note_on_c, 2, 81, 50
2, 6500400, Note_off_c, 2, 81, 0
2, 6500640, Note_on_c, 2, 83, 50
2, 6500880, Note_off_c, 2, 83, 0
2, 6500880, Note_on_c, 2, 83, 50
2, 6501120, Note_off_c, 2, 83, 0
2, 6501120, Note_on_c, 2, 83, 50
2, 6501360, Note_off_c, 2, 83, 0
2, 6501360, Note_on_c, 2, 78, 50
2, 6501840, Note_off_c, 2, 78, 0
2, 6501840, Note_on_c, 2, 78, 50
2, 6502320, Note_off_c, 2, 78, 0
2, 6503040, Note_on_c, 2, 78, 50
2, 6503280, Note_off_c, 2, 78, 0
2, 6503280, Note_on_c, 2, 78, 50
2, 6504000, Note_off_c, 2, 78, 0
2, 6504000, Note_on_c, 2, 78, 50
2, 6504240, Note_off_c, 2, 78, 0
2, 6504240, Note_on_c, 2, 78, 50
2, 6504720, Note_off_c, 2, 78, 0
2, 6504720, Note_on_c, 2, 78, 50
2, 6504960, Note_off_c, 2, 78, 0
2, 6504960, Note_on_c, 2, 76, 50
2, 6505200, Note_off_c, 2, 76, 0
2, 6505200, Note_on_c, 2, 81, 50
2, 6507120, Note_off_c, 2, 81, 0
2, 6507120, Note_on_c, 2, 88, 50
2, 6509040, Note_off_c, 2, 88, 0
2, 6509040, Note_on_c, 2, 88, 50
2, 6510960, Note_off_c, 2, 88, 0
2, 6514320, Note_on_c, 2, 61, 50
2, 6514680, Note_off_c, 2, 61, 0
2, 6514680, Note_on_c, 2, 64, 50
2, 6514800, Note_off_c, 2, 64, 0
2, 6514800, Note_on_c, 2, 68, 50
2, 6514920, Note_off_c, 2, 68, 0
2, 6514920, Note_on_c, 2, 68, 50
2, 6515040, Note_off_c, 2, 68, 0
2, 6515160, Note_on_c, 2, 68, 50
2, 6515280, Note_off_c, 2, 68, 0
2, 6515280, Note_on_c, 2, 68, 50
2, 6515400, Note_off_c, 2, 68, 0
2, 6515400, Note_on_c, 2, 68, 50
2, 6515520, Note_off_c, 2, 68, 0
2, 6515640, Note_on_c, 2, 68, 50
2, 6515760, Note_off_c, 2, 68, 0
2, 6515760, Note_on_c, 2, 68, 50
2, 6516120, Note_off_c, 2, 68, 0
2, 6516120, Note_on_c, 2, 59, 50
2, 6516240, Note_off_c, 2, 59, 0
2, 6516240, Note_on_c, 2, 61, 50
2, 6516600, Note_off_c, 2, 61, 0
2, 6516600, Note_on_c, 2, 64, 50
2, 6516720, Note_off_c, 2, 64, 0
2, 6516720, Note_on_c, 2, 67, 50
2, 6516840, Note_off_c, 2, 67, 0
2, 6516840, Note_on_c, 2, 67, 50
2, 6516960, Note_off_c, 2, 67, 0
2, 6517080, Note_on_c, 2, 67, 50
2, 6517200, Note_off_c, 2, 67, 0
2, 6517200, Note_on_c, 2, 67, 50
2, 6517320, Note_off_c, 2, 67, 0
2, 6517320, Note_on_c, 2, 67, 50
2, 6517440, Note_off_c, 2, 67, 0
2, 6517560, Note_on_c, 2, 67, 50
2, 6517680, Note_off_c, 2, 67, 0
2, 6517680, Note_on_c, 2, 67, 50
2, 6518040, Note_off_c, 2, 67, 0
2, 6518040, Note_on_c, 2, 59, 50
2, 6518160, Note_off_c, 2, 59, 0
2, 6518160, Note_on_c, 2, 61, 50
2, 6518520, Note_off_c, 2, 61, 0
2, 6518520, Note_on_c, 2, 64, 50
2, 6518640, Note_off_c, 2, 64, 0
2, 6518640, Note_on_c, 2, 68, 50
2, 6518760, Note_off_c, 2, 68, 0
2, 6518760, Note_on_c, 2, 68, 50
2, 6518880, Note_off_c, 2, 68, 0
2, 6519000, Note_on_c, 2, 68, 50
2, 6519120, Note_off_c, 2, 68, 0
2, 6519120, Note_on_c, 2, 68, 50
2, 6519240, Note_off_c, 2, 68, 0
2, 6519240, Note_on_c, 2, 68, 50
2, 6519360, Note_off_c, 2, 68, 0
2, 6519480, Note_on_c, 2, 68, 50
2, 6519600, Note_off_c, 2, 68, 0
2, 6519600, Note_on_c, 2, 68, 50
2, 6519720, Note_off_c, 2, 68, 0
2, 6519720, Note_on_c, 2, 68, 50
2, 6519840, Note_off_c, 2, 68, 0
2, 6519960, Note_on_c, 2, 68, 50
2, 6520080, Note_off_c, 2, 68, 0
2, 6520080, Note_on_c, 2, 68, 50
2, 6520200, Note_off_c, 2, 68, 0
2, 6520200, Note_on_c, 2, 68, 50
2, 6520320, Note_off_c, 2, 68, 0
2, 6520440, Note_on_c, 2, 68, 50
2, 6520560, Note_off_c, 2, 68, 0
2, 6520560, Note_on_c, 2, 68, 50
2, 6520800, Note_off_c, 2, 68, 0
2, 6520920, Note_on_c, 2, 69, 50
2, 6521040, Note_off_c, 2, 69, 0
2, 6521040, Note_on_c, 2, 70, 50
2, 6521280, Note_off_c, 2, 70, 0
2, 6521280, Note_on_c, 2, 71, 50
2, 6522360, Note_off_c, 2, 71, 0
2, 6522360, Note_on_c, 2, 76, 50
2, 6523320, Note_off_c, 2, 76, 0
2, 6523320, Note_on_c, 2, 73, 50
2, 6523560, Note_off_c, 2, 73, 0
2, 6523560, Note_on_c, 2, 71, 50
2, 6523800, Note_off_c, 2, 71, 0
2, 6523800, Note_on_c, 2, 73, 50
2, 6524040, Note_off_c, 2, 73, 0
2, 6524760, Note_on_c, 2, 71, 50
2, 6524880, Note_off_c, 2, 71, 0
2, 6524880, Note_on_c, 2, 73, 50
2, 6525000, Note_off_c, 2, 73, 0
2, 6525000, Note_on_c, 2, 76, 50
2, 6525360, Note_off_c, 2, 76, 0
2, 6525360, Note_on_c, 2, 79, 50
2, 6525480, Note_off_c, 2, 79, 0
2, 6525480, Note_on_c, 2, 79, 50
2, 6525600, Note_off_c, 2, 79, 0
2, 6525600, Note_on_c, 2, 76, 50
2, 6525960, Note_off_c, 2, 76, 0
2, 6526080, Note_on_c, 2, 76, 50
2, 6526200, Note_off_c, 2, 76, 0
2, 6526200, Note_on_c, 2, 73, 50
2, 6526320, Note_off_c, 2, 73, 0
2, 6526320, Note_on_c, 2, 71, 50
2, 6526680, Note_off_c, 2, 71, 0
2, 6527640, Note_on_c, 2, 71, 50
2, 6527760, Note_off_c, 2, 71, 0
2, 6527760, Note_on_c, 2, 76, 50
2, 6528000, Note_off_c, 2, 76, 0
2, 6528000, Note_on_c, 2, 68, 50
2, 6528480, Note_off_c, 2, 68, 0
2, 6529440, Note_on_c, 2, 76, 50
2, 6529800, Note_off_c, 2, 76, 0
2, 6529920, Note_on_c, 2, 76, 50
2, 6530400, Note_off_c, 2, 76, 0
2, 6530400, Note_on_c, 2, 73, 50
2, 6530640, Note_off_c, 2, 73, 0
2, 6530640, Note_on_c, 2, 76, 50
2, 6530880, Note_off_c, 2, 76, 0
2, 6530880, Note_on_c, 2, 73, 50
2, 6531120, Note_off_c, 2, 73, 0
2, 6531120, Note_on_c, 2, 76, 50
2, 6531360, Note_off_c, 2, 76, 0
2, 6531360, Note_on_c, 2, 73, 50
2, 6531960, Note_off_c, 2, 73, 0
2, 6532320, Note_on_c, 2, 71, 50
2, 6532440, Note_off_c, 2, 71, 0
2, 6532440, Note_on_c, 2, 71, 50
2, 6532560, Note_off_c, 2, 71, 0
2, 6532560, Note_on_c, 2, 73, 50
2, 6532680, Note_off_c, 2, 73, 0
2, 6532680, Note_on_c, 2, 76, 50
2, 6533040, Note_off_c, 2, 76, 0
2, 6533040, Note_on_c, 2, 79, 50
2, 6533160, Note_off_c, 2, 79, 0
2, 6533160, Note_on_c, 2, 79, 50
2, 6533280, Note_off_c, 2, 79, 0
2, 6533280, Note_on_c, 2, 76, 50
2, 6533640, Note_off_c, 2, 76, 0
2, 6533760, Note_on_c, 2, 76, 50
2, 6533880, Note_off_c, 2, 76, 0
2, 6533880, Note_on_c, 2, 73, 50
2, 6534000, Note_off_c, 2, 73, 0
2, 6534000, Note_on_c, 2, 71, 50
2, 6534360, Note_off_c, 2, 71, 0
2, 6535320, Note_on_c, 2, 71, 50
2, 6535440, Note_off_c, 2, 71, 0
2, 6535440, Note_on_c, 2, 76, 50
2, 6535680, Note_off_c, 2, 76, 0
2, 6535680, Note_on_c, 2, 68, 50
2, 6536280, Note_off_c, 2, 68, 0
2, 6537120, Note_on_c, 2, 76, 50
2, 6537360, Note_off_c, 2, 76, 0
2, 6537360, Note_on_c, 2, 76, 50
2, 6537600, Note_off_c, 2, 76, 0
2, 6537600, Note_on_c, 2, 71, 50
2, 6537840, Note_off_c, 2, 71, 0
2, 6537840, Note_on_c, 2, 74, 50
2, 6538080, Note_off_c, 2, 74, 0
2, 6538080, Note_on_c, 2, 74, 50
2, 6538440, Note_off_c, 2, 74, 0
2, 6538560, Note_on_c, 2, 73, 50
2, 6538920, Note_off_c, 2, 73, 0
2, 6539040, Note_on_c, 2, 71, 50
2, 6539640, Note_off_c, 2, 71, 0
2, 6540240, Note_on_c, 2, 79, 50
2, 6540600, Note_off_c, 2, 79, 0
2, 6540720, Note_on_c, 2, 78, 50
2, 6541080, Note_off_c, 2, 78, 0
2, 6541080, Note_on_c, 2, 76, 50
2, 6541200, Note_off_c, 2, 76, 0
2, 6541200, Note_on_c, 2, 76, 50
2, 6541440, Note_off_c, 2, 76, 0
2, 6541440, Note_on_c, 2, 76, 50
2, 6542040, Note_off_c, 2, 76, 0
2, 6542160, Note_on_c, 2, 69, 50
2, 6542520, Note_off_c, 2, 69, 0
2, 6542640, Note_on_c, 2, 71, 50
2, 6543000, Note_off_c, 2, 71, 0
2, 6543120, Note_on_c, 2, 69, 50
2, 6543480, Note_off_c, 2, 69, 0
2, 6543600, Note_on_c, 2, 68, 50
2, 6543840, Note_off_c, 2, 68, 0
2, 6543960, Note_on_c, 2, 69, 50
2, 6544080, Note_off_c, 2, 69, 0
2, 6544080, Note_on_c, 2, 70, 50
2, 6544320, Note_off_c, 2, 70, 0
2, 6544320, Note_on_c, 2, 71, 50
2, 6545400, Note_off_c, 2, 71, 0
2, 6545400, Note_on_c, 2, 76, 50
2, 6546360, Note_off_c, 2, 76, 0
2, 6546360, Note_on_c, 2, 73, 50
2, 6546600, Note_off_c, 2, 73, 0
2, 6546600, Note_on_c, 2, 76, 50
2, 6546840, Note_off_c, 2, 76, 0
2, 6546840, Note_on_c, 2, 73, 50
2, 6547080, Note_off_c, 2, 73, 0
2, 6547800, Note_on_c, 2, 71, 50
2, 6547920, Note_off_c, 2, 71, 0
2, 6547920, Note_on_c, 2, 73, 50
2, 6548040, Note_off_c, 2, 73, 0
2, 6548040, Note_on_c, 2, 76, 50
2, 6548400, Note_off_c, 2, 76, 0
2, 6548400, Note_on_c, 2, 79, 50
2, 6548520, Note_off_c, 2, 79, 0
2, 6548520, Note_on_c, 2, 79, 50
2, 6548640, Note_off_c, 2, 79, 0
2, 6548640, Note_on_c, 2, 76, 50
2, 6549000, Note_off_c, 2, 76, 0
2, 6549120, Note_on_c, 2, 76, 50
2, 6549240, Note_off_c, 2, 76, 0
2, 6549240, Note_on_c, 2, 73, 50
2, 6549360, Note_off_c, 2, 73, 0
2, 6549360, Note_on_c, 2, 71, 50
2, 6549720, Note_off_c, 2, 71, 0
2, 6550680, Note_on_c, 2, 71, 50
2, 6550800, Note_off_c, 2, 71, 0
2, 6550800, Note_on_c, 2, 76, 50
2, 6551040, Note_off_c, 2, 76, 0
2, 6551040, Note_on_c, 2, 68, 50
2, 6551520, Note_off_c, 2, 68, 0
2, 6552480, Note_on_c, 2, 76, 50
2, 6552840, Note_off_c, 2, 76, 0
2, 6552960, Note_on_c, 2, 76, 50
2, 6553440, Note_off_c, 2, 76, 0
2, 6553440, Note_on_c, 2, 73, 50
2, 6553680, Note_off_c, 2, 73, 0
2, 6553680, Note_on_c, 2, 76, 50
2, 6553920, Note_off_c, 2, 76, 0
2, 6553920, Note_on_c, 2, 73, 50
2, 6554160, Note_off_c, 2, 73, 0
2, 6554160, Note_on_c, 2, 76, 50
2, 6554400, Note_off_c, 2, 76, 0
2, 6554400, Note_on_c, 2, 73, 50
2, 6555000, Note_off_c, 2, 73, 0
2, 6555360, Note_on_c, 2, 79, 50
2, 6555480, Note_off_c, 2, 79, 0
2, 6555480, Note_on_c, 2, 79, 50
2, 6555600, Note_off_c, 2, 79, 0
2, 6555600, Note_on_c, 2, 79, 50
2, 6555840, Note_off_c, 2, 79, 0
2, 6555840, Note_on_c, 2, 79, 50
2, 6556080, Note_off_c, 2, 79, 0
2, 6556080, Note_on_c, 2, 79, 50
2, 6556320, Note_off_c, 2, 79, 0
2, 6556320, Note_on_c, 2, 79, 50
2, 6556560, Note_off_c, 2, 79, 0
2, 6556560, Note_on_c, 2, 76, 50
2, 6557280, Note_off_c, 2, 76, 0
2, 6557280, Note_on_c, 2, 76, 50
2, 6557400, Note_off_c, 2, 76, 0
2, 6557400, Note_on_c, 2, 73, 50
2, 6557520, Note_off_c, 2, 73, 0
2, 6557520, Note_on_c, 2, 71, 50
2, 6557880, Note_off_c, 2, 71, 0
2, 6558360, Note_on_c, 2, 71, 50
2, 6558480, Note_off_c, 2, 71, 0
2, 6558480, Note_on_c, 2, 76, 50
2, 6558720, Note_off_c, 2, 76, 0
2, 6558720, Note_on_c, 2, 68, 50
2, 6559320, Note_off_c, 2, 68, 0
2, 6560160, Note_on_c, 2, 76, 50
2, 6560400, Note_off_c, 2, 76, 0
2, 6560400, Note_on_c, 2, 76, 50
2, 6560640, Note_off_c, 2, 76, 0
2, 6560640, Note_on_c, 2, 71, 50
2, 6560880, Note_off_c, 2, 71, 0
2, 6560880, Note_on_c, 2, 74, 50
2, 6561120, Note_off_c, 2, 74, 0
2, 6561120, Note_on_c, 2, 74, 50
2, 6561480, Note_off_c, 2, 74, 0
2, 6561600, Note_on_c, 2, 73, 50
2, 6561960, Note_off_c, 2, 73, 0
2, 6562080, Note_on_c, 2, 71, 50
2, 6562680, Note_off_c, 2, 71, 0
2, 6563280, Note_on_c, 2, 79, 50
2, 6563520, Note_off_c, 2, 79, 0
2, 6563520, Note_on_c, 2, 79, 50
2, 6563760, Note_off_c, 2, 79, 0
2, 6563760, Note_on_c, 2, 78, 50
2, 6564120, Note_off_c, 2, 78, 0
2, 6564120, Note_on_c, 2, 76, 50
2, 6564240, Note_off_c, 2, 76, 0
2, 6564240, Note_on_c, 2, 76, 50
2, 6564480, Note_off_c, 2, 76, 0
2, 6564480, Note_on_c, 2, 76, 50
2, 6565080, Note_off_c, 2, 76, 0
2, 6565200, Note_on_c, 2, 69, 50
2, 6565560, Note_off_c, 2, 69, 0
2, 6565680, Note_on_c, 2, 71, 50
2, 6566040, Note_off_c, 2, 71, 0
2, 6566160, Note_on_c, 2, 69, 50
2, 6566520, Note_off_c, 2, 69, 0
2, 6566640, Note_on_c, 2, 68, 50
2, 6566880, Note_off_c, 2, 68, 0
2, 6567000, Note_on_c, 2, 69, 50
2, 6567120, Note_off_c, 2, 69, 0
2, 6567120, Note_on_c, 2, 70, 50
2, 6567360, Note_off_c, 2, 70, 0
2, 6567360, Note_on_c, 2, 71, 50
2, 6568440, Note_off_c, 2, 71, 0
2, 6568560, Note_on_c, 2, 71, 50
2, 6568800, Note_off_c, 2, 71, 0
2, 6568800, Note_on_c, 2, 70, 50
2, 6569400, Note_off_c, 2, 70, 0
2, 6569520, Note_on_c, 2, 76, 50
2, 6569760, Note_off_c, 2, 76, 0
2, 6569760, Note_on_c, 2, 70, 50
2, 6570360, Note_off_c, 2, 70, 0
2, 6570480, Note_on_c, 2, 69, 50
2, 6570840, Note_off_c, 2, 69, 0
2, 6570960, Note_on_c, 2, 69, 50
2, 6571080, Note_off_c, 2, 69, 0
2, 6571080, Note_on_c, 2, 67, 50
2, 6571200, Note_off_c, 2, 67, 0
2, 6571320, Note_on_c, 2, 64, 50
2, 6571440, Note_off_c, 2, 64, 0
2, 6571440, Note_on_c, 2, 67, 50
2, 6571680, Note_off_c, 2, 67, 0
2, 6571680, Note_on_c, 2, 64, 50
2, 6572040, Note_off_c, 2, 64, 0
2, 6572160, Note_on_c, 2, 61, 50
2, 6572400, Note_off_c, 2, 61, 0
2, 6572400, Note_on_c, 2, 64, 50
2, 6572760, Note_off_c, 2, 64, 0
2, 6572880, Note_on_c, 2, 71, 50
2, 6573240, Note_off_c, 2, 71, 0
2, 6573360, Note_on_c, 2, 69, 50
2, 6573720, Note_off_c, 2, 69, 0
2, 6573840, Note_on_c, 2, 67, 50
2, 6574200, Note_off_c, 2, 67, 0
2, 6574320, Note_on_c, 2, 70, 50
2, 6574440, Note_off_c, 2, 70, 0
2, 6574440, Note_on_c, 2, 71, 50
2, 6574560, Note_off_c, 2, 71, 0
2, 6574680, Note_on_c, 2, 71, 50
2, 6574800, Note_off_c, 2, 71, 0
2, 6574800, Note_on_c, 2, 70, 50
2, 6574920, Note_off_c, 2, 70, 0
2, 6574920, Note_on_c, 2, 71, 50
2, 6575040, Note_off_c, 2, 71, 0
2, 6575160, Note_on_c, 2, 71, 50
2, 6575280, Note_off_c, 2, 71, 0
2, 6575280, Note_on_c, 2, 69, 50
2, 6575640, Note_off_c, 2, 69, 0
2, 6575760, Note_on_c, 2, 67, 50
2, 6576120, Note_off_c, 2, 67, 0
2, 6576120, Note_on_c, 2, 64, 50
2, 6576240, Note_off_c, 2, 64, 0
2, 6576240, Note_on_c, 2, 64, 50
2, 6576600, Note_off_c, 2, 64, 0
2, 6576720, Note_on_c, 2, 66, 50
2, 6577080, Note_off_c, 2, 66, 0
2, 6577080, Note_on_c, 2, 64, 50
2, 6577200, Note_off_c, 2, 64, 0
2, 6577200, Note_on_c, 2, 67, 50
2, 6577440, Note_off_c, 2, 67, 0
2, 6577440, Note_on_c, 2, 64, 50
2, 6577800, Note_off_c, 2, 64, 0
2, 6577920, Note_on_c, 2, 64, 50
2, 6578160, Note_off_c, 2, 64, 0
2, 6578160, Note_on_c, 2, 71, 50
2, 6578520, Note_off_c, 2, 71, 0
2, 6578640, Note_on_c, 2, 71, 50
2, 6579000, Note_off_c, 2, 71, 0
2, 6579000, Note_on_c, 2, 71, 50
2, 6579120, Note_off_c, 2, 71, 0
2, 6579120, Note_on_c, 2, 69, 50
2, 6579480, Note_off_c, 2, 69, 0
2, 6579480, Note_on_c, 2, 67, 50
2, 6579600, Note_off_c, 2, 67, 0
2, 6579600, Note_on_c, 2, 64, 50
2, 6579960, Note_off_c, 2, 64, 0
2, 6580080, Note_on_c, 2, 76, 50
2, 6580440, Note_off_c, 2, 76, 0
2, 6580560, Note_on_c, 2, 76, 50
2, 6580920, Note_off_c, 2, 76, 0
2, 6580920, Note_on_c, 2, 79, 50
2, 6581040, Note_off_c, 2, 79, 0
2, 6581040, Note_on_c, 2, 82, 50
2, 6581160, Note_off_c, 2, 82, 0
2, 6581160, Note_on_c, 2, 83, 50
2, 6581520, Note_off_c, 2, 83, 0
2, 6581520, Note_on_c, 2, 82, 50
2, 6581640, Note_off_c, 2, 82, 0
2, 6581640, Note_on_c, 2, 83, 50
2, 6582000, Note_off_c, 2, 83, 0
2, 6582000, Note_on_c, 2, 82, 50
2, 6582120, Note_off_c, 2, 82, 0
2, 6582120, Note_on_c, 2, 83, 50
2, 6582480, Note_off_c, 2, 83, 0
2, 6582480, Note_on_c, 2, 82, 50
2, 6582600, Note_off_c, 2, 82, 0
2, 6582600, Note_on_c, 2, 83, 50
2, 6582960, Note_off_c, 2, 83, 0
2, 6583200, Note_on_c, 2, 79, 50
2, 6583440, Note_off_c, 2, 79, 0
2, 6583440, Note_on_c, 2, 76, 50
2, 6583560, Note_off_c, 2, 76, 0
2, 6583920, Note_on_c, 2, 76, 50
2, 6584160, Note_off_c, 2, 76, 0
2, 6584160, Note_on_c, 2, 70, 50
2, 6584280, Note_off_c, 2, 70, 0
2, 6584280, Note_on_c, 2, 71, 50
2, 6584640, Note_off_c, 2, 71, 0
2, 6584640, Note_on_c, 2, 76, 50
2, 6584880, Note_off_c, 2, 76, 0
2, 6584880, Note_on_c, 2, 69, 50
2, 6585240, Note_off_c, 2, 69, 0
2, 6585360, Note_on_c, 2, 67, 50
2, 6585600, Note_off_c, 2, 67, 0
2, 6585840, Note_on_c, 2, 76, 50
2, 6586080, Note_off_c, 2, 76, 0
2, 6586080, Note_on_c, 2, 69, 50
2, 6586200, Note_off_c, 2, 69, 0
2, 6586200, Note_on_c, 2, 70, 50
2, 6586560, Note_off_c, 2, 70, 0
2, 6586560, Note_on_c, 2, 76, 50
2, 6586800, Note_off_c, 2, 76, 0
2, 6586800, Note_on_c, 2, 70, 50
2, 6587160, Note_off_c, 2, 70, 0
2, 6587280, Note_on_c, 2, 69, 50
2, 6587520, Note_off_c, 2, 69, 0
2, 6587760, Note_on_c, 2, 70, 50
2, 6587880, Note_off_c, 2, 70, 0
2, 6587880, Note_on_c, 2, 69, 50
2, 6588000, Note_off_c, 2, 69, 0
2, 6588120, Note_on_c, 2, 64, 50
2, 6588240, Note_off_c, 2, 64, 0
2, 6588240, Note_on_c, 2, 62, 50
2, 6588600, Note_off_c, 2, 62, 0
2, 6588600, Note_on_c, 2, 58, 50
2, 6588720, Note_off_c, 2, 58, 0
2, 6588720, Note_on_c, 2, 62, 50
2, 6589080, Note_off_c, 2, 62, 0
2, 6589200, Note_on_c, 2, 64, 50
2, 6589560, Note_off_c, 2, 64, 0
2, 6589680, Note_on_c, 2, 64, 50
2, 6590040, Note_off_c, 2, 64, 0
2, 6590160, Note_on_c, 2, 78, 50
2, 6590280, Note_off_c, 2, 78, 0
2, 6590280, Note_on_c, 2, 79, 50
2, 6590640, Note_off_c, 2, 79, 0
2, 6590640, Note_on_c, 2, 78, 50
2, 6590760, Note_off_c, 2, 78, 0
2, 6590760, Note_on_c, 2, 79, 50
2, 6591120, Note_off_c, 2, 79, 0
2, 6591120, Note_on_c, 2, 78, 50
2, 6591240, Note_off_c, 2, 78, 0
2, 6591240, Note_on_c, 2, 79, 50
2, 6591600, Note_off_c, 2, 79, 0
2, 6591600, Note_on_c, 2, 76, 50
2, 6591960, Note_off_c, 2, 76, 0
2, 6592080, Note_on_c, 2, 78, 50
2, 6592200, Note_off_c, 2, 78, 0
2, 6592200, Note_on_c, 2, 79, 50
2, 6592560, Note_off_c, 2, 79, 0
2, 6592560, Note_on_c, 2, 79, 50
2, 6592920, Note_off_c, 2, 79, 0
2, 6593040, Note_on_c, 2, 79, 50
2, 6593400, Note_off_c, 2, 79, 0
2, 6593520, Note_on_c, 2, 76, 50
2, 6593880, Note_off_c, 2, 76, 0
2, 6594240, Note_on_c, 2, 79, 50
2, 6594840, Note_off_c, 2, 79, 0
2, 6594960, Note_on_c, 2, 73, 50
2, 6595200, Note_off_c, 2, 73, 0
2, 6595200, Note_on_c, 2, 76, 50
2, 6595680, Note_off_c, 2, 76, 0
2, 6595680, Note_on_c, 2, 79, 50
2, 6596160, Note_off_c, 2, 79, 0
2, 6596160, Note_on_c, 2, 79, 50
2, 6596760, Note_off_c, 2, 79, 0
2, 6596880, Note_on_c, 2, 73, 50
2, 6597120, Note_off_c, 2, 73, 0
2, 6597120, Note_on_c, 2, 76, 50
2, 6597600, Note_off_c, 2, 76, 0
2, 6597600, Note_on_c, 2, 76, 50
2, 6598200, Note_off_c, 2, 76, 0
2, 6598320, Note_on_c, 2, 88, 50
2, 6598680, Note_off_c, 2, 88, 0
2, 6598800, Note_on_c, 2, 79, 50
2, 6599040, Note_off_c, 2, 79, 0
2, 6599040, Note_on_c, 2, 76, 50
2, 6599640, Note_off_c, 2, 76, 0
2, 6599760, Note_on_c, 2, 79, 50
2, 6600000, Note_off_c, 2, 79, 0
2, 6600240, Note_on_c, 2, 76, 50
2, 6600840, Note_off_c, 2, 76, 0
2, 6600960, Note_on_c, 2, 76, 50
2, 6601560, Note_off_c, 2, 76, 0
2, 6601560, Note_on_c, 2, 73, 50
2, 6601920, Note_off_c, 2, 73, 0
2, 6601920, Note_on_c, 2, 76, 50
2, 6602280, Note_off_c, 2, 76, 0
2, 6602280, Note_on_c, 2, 79, 50
2, 6602520, Note_off_c, 2, 79, 0
2, 6602520, Note_on_c, 2, 79, 50
2, 6604440, Note_off_c, 2, 79, 0
2, 6604440, Note_on_c, 2, 79, 50
2, 6605760, Note_off_c, 2, 79, 0
2, 6605760, Note_on_c, 2, 79, 50
2, 6606120, Note_off_c, 2, 79, 0
2, 6606120, Note_on_c, 2, 79, 50
2, 6606360, Note_off_c, 2, 79, 0
2, 6606360, Note_on_c, 2, 79, 50
2, 6606600, Note_off_c, 2, 79, 0
2, 6606600, Note_on_c, 2, 79, 50
2, 6606960, Note_off_c, 2, 79, 0
2, 6606960, Note_on_c, 2, 78, 50
2, 6607200, Note_off_c, 2, 78, 0
2, 6607200, Note_on_c, 2, 76, 50
2, 6607560, Note_off_c, 2, 76, 0
2, 6607680, Note_on_c, 2, 76, 50
2, 6608040, Note_off_c, 2, 76, 0
2, 6609240, Note_on_c, 2, 76, 50
2, 6609600, Note_off_c, 2, 76, 0
2, 6609840, Note_on_c, 2, 76, 50
2, 6610200, Note_off_c, 2, 76, 0
2, 6610320, Note_on_c, 2, 73, 50
2, 6610560, Note_off_c, 2, 73, 0
2, 6610560, Note_on_c, 2, 79, 50
2, 6612480, Note_off_c, 2, 79, 0
2, 6612480, Note_on_c, 2, 79, 50
2, 6613680, Note_off_c, 2, 79, 0
2, 6613680, Note_on_c, 2, 78, 50
2, 6613800, Note_off_c, 2, 78, 0
2, 6613800, Note_on_c, 2, 79, 50
2, 6614160, Note_off_c, 2, 79, 0
2, 6614160, Note_on_c, 2, 78, 50
2, 6614280, Note_off_c, 2, 78, 0
2, 6614280, Note_on_c, 2, 79, 50
2, 6614640, Note_off_c, 2, 79, 0
2, 6614640, Note_on_c, 2, 76, 50
2, 6615000, Note_off_c, 2, 76, 0
2, 6615120, Note_on_c, 2, 78, 50
2, 6615240, Note_off_c, 2, 78, 0
2, 6615240, Note_on_c, 2, 79, 50
2, 6615600, Note_off_c, 2, 79, 0
2, 6615600, Note_on_c, 2, 79, 50
2, 6615960, Note_off_c, 2, 79, 0
2, 6616080, Note_on_c, 2, 79, 50
2, 6616440, Note_off_c, 2, 79, 0
2, 6616560, Note_on_c, 2, 76, 50
2, 6616920, Note_off_c, 2, 76, 0
2, 6617280, Note_on_c, 2, 79, 50
2, 6617880, Note_off_c, 2, 79, 0
2, 6618000, Note_on_c, 2, 73, 50
2, 6618240, Note_off_c, 2, 73, 0
2, 6618240, Note_on_c, 2, 76, 50
2, 6618720, Note_off_c, 2, 76, 0
2, 6618720, Note_on_c, 2, 79, 50
2, 6619200, Note_off_c, 2, 79, 0
2, 6619200, Note_on_c, 2, 79, 50
2, 6619800, Note_off_c, 2, 79, 0
2, 6619920, Note_on_c, 2, 73, 50
2, 6620160, Note_off_c, 2, 73, 0
2, 6620160, Note_on_c, 2, 76, 50
2, 6620640, Note_off_c, 2, 76, 0
2, 6620640, Note_on_c, 2, 76, 50
2, 6621240, Note_off_c, 2, 76, 0
2, 6621360, Note_on_c, 2, 88, 50
2, 6621720, Note_off_c, 2, 88, 0
2, 6621840, Note_on_c, 2, 79, 50
2, 6622080, Note_off_c, 2, 79, 0
2, 6622080, Note_on_c, 2, 76, 50
2, 6622680, Note_off_c, 2, 76, 0
2, 6622800, Note_on_c, 2, 79, 50
2, 6623040, Note_off_c, 2, 79, 0
2, 6623280, Note_on_c, 2, 76, 50
2, 6623880, Note_off_c, 2, 76, 0
2, 6624000, Note_on_c, 2, 76, 50
2, 6624600, Note_off_c, 2, 76, 0
2, 6624600, Note_on_c, 2, 73, 50
2, 6624960, Note_off_c, 2, 73, 0
2, 6624960, Note_on_c, 2, 76, 50
2, 6625320, Note_off_c, 2, 76, 0
2, 6625320, Note_on_c, 2, 79, 50
2, 6625560, Note_off_c, 2, 79, 0
2, 6625560, Note_on_c, 2, 79, 50
2, 6627480, Note_off_c, 2, 79, 0
2, 6627480, Note_on_c, 2, 79, 50
2, 6628800, Note_off_c, 2, 79, 0
2, 6628800, Note_on_c, 2, 79, 50
2, 6629160, Note_off_c, 2, 79, 0
2, 6629160, Note_on_c, 2, 79, 50
2, 6629520, Note_off_c, 2, 79, 0
2, 6629520, Note_on_c, 2, 79, 50
2, 6629880, Note_off_c, 2, 79, 0
2, 6630120, Note_on_c, 2, 78, 50
2, 6630360, Note_off_c, 2, 78, 0
2, 6630360, Note_on_c, 2, 76, 50
2, 6630720, Note_off_c, 2, 76, 0
2, 6630720, Note_on_c, 2, 76, 50
2, 6631080, Note_off_c, 2, 76, 0
2, 6632280, Note_on_c, 2, 76, 50
2, 6632640, Note_off_c, 2, 76, 0
2, 6632880, Note_on_c, 2, 76, 50
2, 6633240, Note_off_c, 2, 76, 0
2, 6633360, Note_on_c, 2, 73, 50
2, 6633600, Note_off_c, 2, 73, 0
2, 6633600, Note_on_c, 2, 79, 50
2, 6635520, Note_off_c, 2, 79, 0
2, 6635520, Note_on_c, 2, 79, 50
2, 6637200, Note_off_c, 2, 79, 0
2, 6637200, Note_on_c, 2, 79, 50
2, 6637560, Note_off_c, 2, 79, 0
2, 6637560, Note_on_c, 2, 79, 50
2, 6639480, Note_off_c, 2, 79, 0
2, 6639480, Note_on_c, 2, 79, 50
2, 6640080, Note_off_c, 2, 79, 0
2, 6640080, Note_on_c, 2, 79, 50
2, 6640320, Note_off_c, 2, 79, 0
2, 6640320, Note_on_c, 2, 71, 50
2, 6640920, Note_off_c, 2, 71, 0
2, 6640920, Note_on_c, 2, 76, 50
2, 6641040, Note_off_c, 2, 76, 0
2, 6641040, Note_on_c, 2, 79, 50
2, 6641280, Note_off_c, 2, 79, 0
2, 6641280, Note_on_c, 2, 76, 50
2, 6641880, Note_off_c, 2, 76, 0
2, 6641880, Note_on_c, 2, 79, 50
2, 6643800, Note_off_c, 2, 79, 0
2, 6643800, Note_on_c, 2, 86, 50
2, 6644280, Note_off_c, 2, 86, 0
2, 6644280, Note_on_c, 2, 79, 50
2, 6645720, Note_off_c, 2, 79, 0
2, 6645840, Note_on_c, 2, 73, 50
2, 6646080, Note_off_c, 2, 73, 0
2, 6646080, Note_on_c, 2, 71, 50
2, 6646680, Note_off_c, 2, 71, 0
2, 6646800, Note_on_c, 2, 73, 50
2, 6647040, Note_off_c, 2, 73, 0
2, 6647040, Note_on_c, 2, 71, 50
2, 6647520, Note_off_c, 2, 71, 0
2, 6647520, Note_on_c, 2, 73, 50
2, 6647760, Note_off_c, 2, 73, 0
2, 6647760, Note_on_c, 2, 76, 50
2, 6648000, Note_off_c, 2, 76, 0
2, 6648000, Note_on_c, 2, 79, 50
2, 6648240, Note_off_c, 2, 79, 0
2, 6648240, Note_on_c, 2, 78, 50
2, 6648480, Note_off_c, 2, 78, 0
2, 6648480, Note_on_c, 2, 76, 50
2, 6648720, Note_off_c, 2, 76, 0
2, 6648720, Note_on_c, 2, 76, 50
2, 6649440, Note_off_c, 2, 76, 0
2, 6649440, Note_on_c, 2, 76, 50
2, 6649560, Note_off_c, 2, 76, 0
2, 6649560, Note_on_c, 2, 73, 50
2, 6649680, Note_off_c, 2, 73, 0
2, 6649680, Note_on_c, 2, 73, 50
2, 6649920, Note_off_c, 2, 73, 0
2, 6649920, Note_on_c, 2, 71, 50
2, 6650520, Note_off_c, 2, 71, 0
2, 6650640, Note_on_c, 2, 73, 50
2, 6650880, Note_off_c, 2, 73, 0
2, 6650880, Note_on_c, 2, 71, 50
2, 6651600, Note_off_c, 2, 71, 0
2, 6651600, Note_on_c, 2, 79, 50
2, 6652200, Note_off_c, 2, 79, 0
2, 6652320, Note_on_c, 2, 79, 50
2, 6652560, Note_off_c, 2, 79, 0
2, 6652560, Note_on_c, 2, 79, 50
2, 6652800, Note_off_c, 2, 79, 0
2, 6652800, Note_on_c, 2, 79, 50
2, 6653040, Note_off_c, 2, 79, 0
2, 6653040, Note_on_c, 2, 78, 50
2, 6653400, Note_off_c, 2, 78, 0
2, 6653520, Note_on_c, 2, 78, 50
2, 6653880, Note_off_c, 2, 78, 0
2, 6654240, Note_on_c, 2, 78, 50
2, 6654360, Note_off_c, 2, 78, 0
2, 6654360, Note_on_c, 2, 78, 50
2, 6654720, Note_off_c, 2, 78, 0
2, 6655920, Note_on_c, 2, 79, 50
2, 6656520, Note_off_c, 2, 79, 0
2, 6656640, Note_on_c, 2, 79, 50
2, 6658440, Note_off_c, 2, 79, 0
2, 6658560, Note_on_c, 2, 81, 50
2, 6659640, Note_off_c, 2, 81, 0
2, 6659760, Note_on_c, 2, 81, 50
2, 6660000, Note_off_c, 2, 81, 0
2, 6660000, Note_on_c, 2, 80, 50
2, 6660360, Note_off_c, 2, 80, 0
2, 6660480, Note_on_c, 2, 76, 50
2, 6661080, Note_off_c, 2, 76, 0
2, 6661200, Note_on_c, 2, 71, 50
2, 6661440, Note_off_c, 2, 71, 0
2, 6661440, Note_on_c, 2, 71, 50
2, 6662040, Note_off_c, 2, 71, 0
2, 6662160, Note_on_c, 2, 71, 50
2, 6662400, Note_off_c, 2, 71, 0
2, 6662400, Note_on_c, 2, 71, 50
2, 6663000, Note_off_c, 2, 71, 0
2, 6663000, Note_on_c, 2, 79, 50
2, 6663240, Note_off_c, 2, 79, 0
2, 6663240, Note_on_c, 2, 79, 50
2, 6663480, Note_off_c, 2, 79, 0
2, 6663480, Note_on_c, 2, 79, 50
2, 6663600, Note_off_c, 2, 79, 0
2, 6663600, Note_on_c, 2, 79, 50
2, 6663960, Note_off_c, 2, 79, 0
2, 6663960, Note_on_c, 2, 76, 50
2, 6664080, Note_off_c, 2, 76, 0
2, 6664080, Note_on_c, 2, 79, 50
2, 6664320, Note_off_c, 2, 79, 0
2, 6664320, Note_on_c, 2, 76, 50
2, 6664920, Note_off_c, 2, 76, 0
2, 6664920, Note_on_c, 2, 79, 50
2, 6666840, Note_off_c, 2, 79, 0
2, 6666840, Note_on_c, 2, 86, 50
2, 6667320, Note_off_c, 2, 86, 0
2, 6667320, Note_on_c, 2, 79, 50
2, 6668760, Note_off_c, 2, 79, 0
2, 6668760, Note_on_c, 2, 79, 50
2, 6670680, Note_off_c, 2, 79, 0
2, 6670680, Note_on_c, 2, 79, 50
2, 6671640, Note_off_c, 2, 79, 0
2, 6671640, Note_on_c, 2, 76, 50
2, 6671880, Note_off_c, 2, 76, 0
2, 6671880, Note_on_c, 2, 76, 50
2, 6672600, Note_off_c, 2, 76, 0
2, 6672600, Note_on_c, 2, 79, 50
2, 6674520, Note_off_c, 2, 79, 0
2, 6674520, Note_on_c, 2, 79, 50
2, 6675600, Note_off_c, 2, 79, 0
2, 6675600, Note_on_c, 2, 79, 50
2, 6675720, Note_off_c, 2, 79, 0
2, 6676080, Note_on_c, 2, 78, 50
2, 6676440, Note_off_c, 2, 78, 0
2, 6676560, Note_on_c, 2, 78, 50
2, 6676800, Note_off_c, 2, 78, 0
2, 6676800, Note_on_c, 2, 78, 50
2, 6676920, Note_off_c, 2, 78, 0
2, 6676920, Note_on_c, 2, 77, 50
2, 6677040, Note_off_c, 2, 77, 0
2, 6677040, Note_on_c, 2, 78, 50
2, 6677280, Note_off_c, 2, 78, 0
2, 6677280, Note_on_c, 2, 78, 50
2, 6677760, Note_off_c, 2, 78, 0
2, 6678240, Note_on_c, 2, 79, 50
2, 6678600, Note_off_c, 2, 79, 0
2, 6678720, Note_on_c, 2, 79, 50
2, 6679080, Note_off_c, 2, 79, 0
2, 6679200, Note_on_c, 2, 78, 50
2, 6679440, Note_off_c, 2, 78, 0
2, 6679440, Note_on_c, 2, 74, 50
2, 6679680, Note_off_c, 2, 74, 0
2, 6679680, Note_on_c, 2, 79, 50
2, 6679920, Note_off_c, 2, 79, 0
2, 6682800, Note_on_c, 2, 79, 50
2, 6683760, Note_off_c, 2, 79, 0
2, 6683760, Note_on_c, 2, 78, 50
2, 6684720, Note_off_c, 2, 78, 0
2, 6684720, Note_on_c, 2, 76, 50
2, 6685080, Note_off_c, 2, 76, 0
2, 6685080, Note_on_c, 2, 69, 50
2, 6685200, Note_off_c, 2, 69, 0
2, 6685560, Note_on_c, 2, 69, 50
2, 6685680, Note_off_c, 2, 69, 0
2, 6686040, Note_on_c, 2, 69, 50
2, 6686160, Note_off_c, 2, 69, 0
2, 6686160, Note_on_c, 2, 69, 50
2, 6686520, Note_off_c, 2, 69, 0
2, 6686520, Note_on_c, 2, 69, 50
2, 6686640, Note_off_c, 2, 69, 0
2, 6686640, Note_on_c, 2, 79, 50
2, 6687000, Note_off_c, 2, 79, 0
2, 6687000, Note_on_c, 2, 79, 50
2, 6687360, Note_off_c, 2, 79, 0
2, 6687600, Note_on_c, 2, 78, 50
2, 6687960, Note_off_c, 2, 78, 0
2, 6687960, Note_on_c, 2, 78, 50
2, 6688320, Note_off_c, 2, 78, 0
2, 6688560, Note_on_c, 2, 76, 50
2, 6688920, Note_off_c, 2, 76, 0
2, 6688920, Note_on_c, 2, 69, 50
2, 6689040, Note_off_c, 2, 69, 0
2, 6689400, Note_on_c, 2, 69, 50
2, 6689520, Note_off_c, 2, 69, 0
2, 6689880, Note_on_c, 2, 69, 50
2, 6690360, Note_off_c, 2, 69, 0
2, 6690360, Note_on_c, 2, 69, 50
2, 6690480, Note_off_c, 2, 69, 0
2, 6690480, Note_on_c, 2, 79, 50
2, 6691440, Note_off_c, 2, 79, 0
2, 6691440, Note_on_c, 2, 78, 50
2, 6692400, Note_off_c, 2, 78, 0
2, 6692400, Note_on_c, 2, 76, 50
2, 6692760, Note_off_c, 2, 76, 0
2, 6692760, Note_on_c, 2, 69, 50
2, 6692880, Note_off_c, 2, 69, 0
2, 6693240, Note_on_c, 2, 69, 50
2, 6693360, Note_off_c, 2, 69, 0
2, 6693720, Note_on_c, 2, 69, 50
2, 6693840, Note_off_c, 2, 69, 0
2, 6693840, Note_on_c, 2, 74, 50
2, 6694200, Note_off_c, 2, 74, 0
2, 6694200, Note_on_c, 2, 76, 50
2, 6694320, Note_off_c, 2, 76, 0
2, 6694800, Note_on_c, 2, 69, 50
2, 6695160, Note_off_c, 2, 69, 0
2, 6695280, Note_on_c, 2, 69, 50
2, 6695760, Note_off_c, 2, 69, 0
2, 6696120, Note_on_c, 2, 69, 50
2, 6696360, Note_off_c, 2, 69, 0
2, 6696600, Note_on_c, 2, 69, 50
2, 6697080, Note_off_c, 2, 69, 0
2, 6697080, Note_on_c, 2, 69, 50
2, 6697200, Note_off_c, 2, 69, 0
2, 6697200, Note_on_c, 2, 74, 50
2, 6697680, Note_off_c, 2, 74, 0
2, 6697680, Note_on_c, 2, 73, 50
2, 6698160, Note_off_c, 2, 73, 0
2, 6715440, Note_on_c, 2, 79, 50
2, 6716400, Note_off_c, 2, 79, 0
2, 6716400, Note_on_c, 2, 78, 50
2, 6717360, Note_off_c, 2, 78, 0
2, 6717360, Note_on_c, 2, 76, 50
2, 6717720, Note_off_c, 2, 76, 0
2, 6717720, Note_on_c, 2, 69, 50
2, 6717840, Note_off_c, 2, 69, 0
2, 6718200, Note_on_c, 2, 69, 50
2, 6718320, Note_off_c, 2, 69, 0
2, 6718680, Note_on_c, 2, 69, 50
2, 6718800, Note_off_c, 2, 69, 0
2, 6718800, Note_on_c, 2, 69, 50
2, 6719160, Note_off_c, 2, 69, 0
2, 6719160, Note_on_c, 2, 69, 50
2, 6719280, Note_off_c, 2, 69, 0
2, 6719280, Note_on_c, 2, 79, 50
2, 6719640, Note_off_c, 2, 79, 0
2, 6719640, Note_on_c, 2, 79, 50
2, 6720000, Note_off_c, 2, 79, 0
2, 6720240, Note_on_c, 2, 78, 50
2, 6721200, Note_off_c, 2, 78, 0
2, 6721200, Note_on_c, 2, 76, 50
2, 6721560, Note_off_c, 2, 76, 0
2, 6721560, Note_on_c, 2, 69, 50
2, 6721680, Note_off_c, 2, 69, 0
2, 6722040, Note_on_c, 2, 69, 50
2, 6722160, Note_off_c, 2, 69, 0
2, 6722520, Note_on_c, 2, 69, 50
2, 6723000, Note_off_c, 2, 69, 0
2, 6740400, Note_on_c, 2, 79, 50
2, 6741360, Note_off_c, 2, 79, 0
2, 6741360, Note_on_c, 2, 78, 50
2, 6742320, Note_off_c, 2, 78, 0
2, 6742320, Note_on_c, 2, 76, 50
2, 6742680, Note_off_c, 2, 76, 0
2, 6742680, Note_on_c, 2, 69, 50
2, 6742800, Note_off_c, 2, 69, 0
2, 6743160, Note_on_c, 2, 69, 50
2, 6743280, Note_off_c, 2, 69, 0
2, 6743640, Note_on_c, 2, 69, 50
2, 6743760, Note_off_c, 2, 69, 0
2, 6743760, Note_on_c, 2, 69, 50
2, 6744120, Note_off_c, 2, 69, 0
2, 6744120, Note_on_c, 2, 69, 50
2, 6744240, Note_off_c, 2, 69, 0
2, 6744240, Note_on_c, 2, 79, 50
2, 6744600, Note_off_c, 2, 79, 0
2, 6744600, Note_on_c, 2, 79, 50
2, 6744960, Note_off_c, 2, 79, 0
2, 6745200, Note_on_c, 2, 78, 50
2, 6746160, Note_off_c, 2, 78, 0
2, 6746160, Note_on_c, 2, 76, 50
2, 6746520, Note_off_c, 2, 76, 0
2, 6746520, Note_on_c, 2, 69, 50
2, 6746640, Note_off_c, 2, 69, 0
2, 6747000, Note_on_c, 2, 69, 50
2, 6747120, Note_off_c, 2, 69, 0
2, 6747480, Note_on_c, 2, 69, 50
2, 6747600, Note_off_c, 2, 69, 0
2, 6747600, Note_on_c, 2, 69, 50
2, 6747960, Note_off_c, 2, 69, 0
2, 6747960, Note_on_c, 2, 69, 50
2, 6748080, Note_off_c, 2, 69, 0
2, 6748080, Note_on_c, 2, 71, 50
2, 6749040, Note_off_c, 2, 71, 0
2, 6749040, Note_on_c, 2, 71, 50
2, 6749520, Note_off_c, 2, 71, 0
2, 6749520, Note_on_c, 2, 69, 50
2, 6750000, Note_off_c, 2, 69, 0
2, 6750000, Note_on_c, 2, 68, 50
2, 6751440, Note_off_c, 2, 68, 0
2, 6755280, Note_on_c, 2, 69, 50
2, 6755760, Note_off_c, 2, 69, 0
2, 6755760, Note_on_c, 2, 71, 50
2, 6756600, Note_off_c, 2, 71, 0
2, 6756600, Note_on_c, 2, 73, 50
2, 6756720, Note_off_c, 2, 73, 0
2, 6756720, Note_on_c, 2, 71, 50
2, 6757200, Note_off_c, 2, 71, 0
2, 6757200, Note_on_c, 2, 69, 50
2, 6757680, Note_off_c, 2, 69, 0
2, 6757680, Note_on_c, 2, 68, 50
2, 6759120, Note_off_c, 2, 68, 0
2, 6780720, Note_on_c, 2, 79, 50
2, 6781680, Note_off_c, 2, 79, 0
2, 6781680, Note_on_c, 2, 78, 50
2, 6782640, Note_off_c, 2, 78, 0
2, 6782640, Note_on_c, 2, 76, 50
2, 6783000, Note_off_c, 2, 76, 0
2, 6783000, Note_on_c, 2, 69, 50
2, 6783120, Note_off_c, 2, 69, 0
2, 6783480, Note_on_c, 2, 69, 50
2, 6783600, Note_off_c, 2, 69, 0
2, 6783960, Note_on_c, 2, 69, 50
2, 6784080, Note_off_c, 2, 69, 0
2, 6784080, Note_on_c, 2, 69, 50
2, 6784440, Note_off_c, 2, 69, 0
2, 6784440, Note_on_c, 2, 69, 50
2, 6784560, Note_off_c, 2, 69, 0
2, 6784560, Note_on_c, 2, 79, 50
2, 6784920, Note_off_c, 2, 79, 0
2, 6784920, Note_on_c, 2, 79, 50
2, 6785280, Note_off_c, 2, 79, 0
2, 6785520, Note_on_c, 2, 78, 50
2, 6786480, Note_off_c, 2, 78, 0
2, 6786480, Note_on_c, 2, 76, 50
2, 6786840, Note_off_c, 2, 76, 0
2, 6786840, Note_on_c, 2, 69, 50
2, 6786960, Note_off_c, 2, 69, 0
2, 6787320, Note_on_c, 2, 69, 50
2, 6787440, Note_off_c, 2, 69, 0
2, 6787800, Note_on_c, 2, 69, 50
2, 6788280, Note_off_c, 2, 69, 0
2, 6788280, Note_on_c, 2, 69, 50
2, 6788400, Note_off_c, 2, 69, 0
2, 6788400, Note_on_c, 2, 71, 50
2, 6789360, Note_off_c, 2, 71, 0
2, 6789360, Note_on_c, 2, 71, 50
2, 6789840, Note_off_c, 2, 71, 0
2, 6789840, Note_on_c, 2, 69, 50
2, 6790320, Note_off_c, 2, 69, 0
2, 6790320, Note_on_c, 2, 68, 50
2, 6791760, Note_off_c, 2, 68, 0
2, 6792240, Note_on_c, 2, 69, 50
2, 6793200, Note_off_c, 2, 69, 0
2, 6793200, Note_on_c, 2, 67, 50
2, 6793680, Note_off_c, 2, 67, 0
2, 6793680, Note_on_c, 2, 66, 50
2, 6794160, Note_off_c, 2, 66, 0
2, 6794160, Note_on_c, 2, 64, 50
2, 6795600, Note_off_c, 2, 64, 0
2, 6796080, Note_on_c, 2, 71, 50
2, 6796920, Note_off_c, 2, 71, 0
2, 6796920, Note_on_c, 2, 73, 50
2, 6797040, Note_off_c, 2, 73, 0
2, 6797040, Note_on_c, 2, 71, 50
2, 6797520, Note_off_c, 2, 71, 0
2, 6797520, Note_on_c, 2, 69, 50
2, 6798000, Note_off_c, 2, 69, 0
2, 6798000, Note_on_c, 2, 68, 50
2, 6799440, Note_off_c, 2, 68, 0
2, 6799800, Note_on_c, 2, 69, 50
2, 6800880, Note_off_c, 2, 69, 0
2, 6800880, Note_on_c, 2, 67, 50
2, 6801360, Note_off_c, 2, 67, 0
2, 6801360, Note_on_c, 2, 66, 50
2, 6801840, Note_off_c, 2, 66, 0
2, 6801840, Note_on_c, 2, 64, 50
2, 6803280, Note_off_c, 2, 64, 0
2, 6803640, Note_on_c, 2, 69, 50
2, 6803760, Note_off_c, 2, 69, 0
2, 6804240, Note_on_c, 2, 69, 50
2, 6804600, Note_off_c, 2, 69, 0
2, 6804720, Note_on_c, 2, 69, 50
2, 6805320, Note_off_c, 2, 69, 0
2, 6805560, Note_on_c, 2, 69, 50
2, 6805680, Note_off_c, 2, 69, 0
2, 6806040, Note_on_c, 2, 69, 50
2, 6806160, Note_off_c, 2, 69, 0
2, 6806520, Note_on_c, 2, 69, 50
2, 6806640, Note_off_c, 2, 69, 0
2, 6806640, Note_on_c, 2, 74, 50
2, 6807120, Note_off_c, 2, 74, 0
2, 6807120, Note_on_c, 2, 76, 50
2, 6807600, Note_off_c, 2, 76, 0
2, 6808080, Note_on_c, 2, 69, 50
2, 6808440, Note_off_c, 2, 69, 0
2, 6808560, Note_on_c, 2, 69, 50
2, 6809160, Note_off_c, 2, 69, 0
2, 6809400, Note_on_c, 2, 69, 50
2, 6809520, Note_off_c, 2, 69, 0
2, 6828720, Note_on_c, 2, 79, 50
2, 6829680, Note_off_c, 2, 79, 0
2, 6829680, Note_on_c, 2, 78, 50
2, 6830640, Note_off_c, 2, 78, 0
2, 6830640, Note_on_c, 2, 76, 50
2, 6831000, Note_off_c, 2, 76, 0
2, 6831000, Note_on_c, 2, 69, 50
2, 6831120, Note_off_c, 2, 69, 0
2, 6831480, Note_on_c, 2, 69, 50
2, 6831600, Note_off_c, 2, 69, 0
2, 6831960, Note_on_c, 2, 69, 50
2, 6832080, Note_off_c, 2, 69, 0
2, 6832080, Note_on_c, 2, 69, 50
2, 6832440, Note_off_c, 2, 69, 0
2, 6832440, Note_on_c, 2, 69, 50
2, 6832560, Note_off_c, 2, 69, 0
2, 6832560, Note_on_c, 2, 79, 50
2, 6832920, Note_off_c, 2, 79, 0
2, 6832920, Note_on_c, 2, 79, 50
2, 6833280, Note_off_c, 2, 79, 0
2, 6833520, Note_on_c, 2, 78, 50
2, 6834480, Note_off_c, 2, 78, 0
2, 6834480, Note_on_c, 2, 76, 50
2, 6834840, Note_off_c, 2, 76, 0
2, 6834840, Note_on_c, 2, 69, 50
2, 6834960, Note_off_c, 2, 69, 0
2, 6835320, Note_on_c, 2, 69, 50
2, 6835440, Note_off_c, 2, 69, 0
2, 6835800, Note_on_c, 2, 69, 50
2, 6835920, Note_off_c, 2, 69, 0
2, 6835920, Note_on_c, 2, 69, 50
2, 6836280, Note_off_c, 2, 69, 0
2, 6836280, Note_on_c, 2, 69, 50
2, 6836400, Note_off_c, 2, 69, 0
2, 6836400, Note_on_c, 2, 79, 50
2, 6837360, Note_off_c, 2, 79, 0
2, 6837360, Note_on_c, 2, 78, 50
2, 6838320, Note_off_c, 2, 78, 0
2, 6838320, Note_on_c, 2, 76, 50
2, 6838680, Note_off_c, 2, 76, 0
2, 6838680, Note_on_c, 2, 69, 50
2, 6838800, Note_off_c, 2, 69, 0
2, 6839160, Note_on_c, 2, 69, 50
2, 6839280, Note_off_c, 2, 69, 0
2, 6839640, Note_on_c, 2, 69, 50
2, 6839760, Note_off_c, 2, 69, 0
2, 6839760, Note_on_c, 2, 69, 50
2, 6840120, Note_off_c, 2, 69, 0
2, 6840120, Note_on_c, 2, 69, 50
2, 6840240, Note_off_c, 2, 69, 0
2, 6840240, Note_on_c, 2, 79, 50
2, 6840600, Note_off_c, 2, 79, 0
2, 6840600, Note_on_c, 2, 79, 50
2, 6840960, Note_off_c, 2, 79, 0
2, 6841200, Note_on_c, 2, 78, 50
2, 6842160, Note_off_c, 2, 78, 0
2, 6842160, Note_on_c, 2, 76, 50
2, 6842520, Note_off_c, 2, 76, 0
2, 6842520, Note_on_c, 2, 69, 50
2, 6842640, Note_off_c, 2, 69, 0
2, 6843000, Note_on_c, 2, 69, 50
2, 6843120, Note_off_c, 2, 69, 0
2, 6843480, Note_on_c, 2, 69, 50
2, 6843600, Note_off_c, 2, 69, 0
2, 6843600, Note_on_c, 2, 69, 50
2, 6843960, Note_off_c, 2, 69, 0
2, 6843960, Note_on_c, 2, 69, 50
2, 6844080, Note_off_c, 2, 69, 0
2, 6844080, Note_on_c, 2, 79, 50
2, 6845040, Note_off_c, 2, 79, 0
2, 6845040, Note_on_c, 2, 78, 50
2, 6846000, Note_off_c, 2, 78, 0
2, 6846000, Note_on_c, 2, 76, 50
2, 6846360, Note_off_c, 2, 76, 0
2, 6846360, Note_on_c, 2, 69, 50
2, 6846480, Note_off_c, 2, 69, 0
2, 6846840, Note_on_c, 2, 69, 50
2, 6846960, Note_off_c, 2, 69, 0
2, 6847320, Note_on_c, 2, 69, 50
2, 6847440, Note_off_c, 2, 69, 0
2, 6847440, Note_on_c, 2, 69, 50
2, 6847800, Note_off_c, 2, 69, 0
2, 6847800, Note_on_c, 2, 69, 50
2, 6847920, Note_off_c, 2, 69, 0
2, 6847920, Note_on_c, 2, 79, 50
2, 6848280, Note_off_c, 2, 79, 0
2, 6848280, Note_on_c, 2, 79, 50
2, 6848640, Note_off_c, 2, 79, 0
2, 6848880, Note_on_c, 2, 78, 50
2, 6849840, Note_off_c, 2, 78, 0
2, 6849840, Note_on_c, 2, 76, 50
2, 6850200, Note_off_c, 2, 76, 0
2, 6850200, Note_on_c, 2, 69, 50
2, 6850320, Note_off_c, 2, 69, 0
2, 6850680, Note_on_c, 2, 69, 50
2, 6850800, Note_off_c, 2, 69, 0
2, 6851160, Note_on_c, 2, 69, 50
2, 6851280, Note_off_c, 2, 69, 0
2, 6851280, Note_on_c, 2, 69, 50
2, 6851640, Note_off_c, 2, 69, 0
2, 6851640, Note_on_c, 2, 69, 50
2, 6851760, Note_off_c, 2, 69, 0
2, 6851760, Note_on_c, 2, 79, 50
2, 6852720, Note_off_c, 2, 79, 0
2, 6852720, Note_on_c, 2, 78, 50
2, 6853680, Note_off_c, 2, 78, 0
2, 6853680, Note_on_c, 2, 76, 50
2, 6854040, Note_off_c, 2, 76, 0
2, 6854040, Note_on_c, 2, 69, 50
2, 6854160, Note_off_c, 2, 69, 0
2, 6854520, Note_on_c, 2, 69, 50
2, 6854640, Note_off_c, 2, 69, 0
2, 6855000, Note_on_c, 2, 69, 50
2, 6855120, Note_off_c, 2, 69, 0
2, 6855120, Note_on_c, 2, 69, 50
2, 6855480, Note_off_c, 2, 69, 0
2, 6855480, Note_on_c, 2, 69, 50
2, 6855600, Note_off_c, 2, 69, 0
2, 6855600, Note_on_c, 2, 79, 50
2, 6855960, Note_off_c, 2, 79, 0
2, 6855960, Note_on_c, 2, 79, 50
2, 6856320, Note_off_c, 2, 79, 0
2, 6856560, Note_on_c, 2, 78, 50
2, 6857520, Note_off_c, 2, 78, 0
2, 6857520, Note_on_c, 2, 76, 50
2, 6857880, Note_off_c, 2, 76, 0
2, 6857880, Note_on_c, 2, 69, 50
2, 6858000, Note_off_c, 2, 69, 0
2, 6858360, Note_on_c, 2, 69, 50
2, 6858480, Note_off_c, 2, 69, 0
2, 6858840, Note_on_c, 2, 69, 50
2, 6858960, Note_off_c, 2, 69, 0
2, 6858960, Note_on_c, 2, 69, 50
2, 6859320, Note_off_c, 2, 69, 0
2, 6859320, Note_on_c, 2, 69, 50
2, 6859440, Note_off_c, 2, 69, 0
2, 6859440, Note_on_c, 2, 79, 50
2, 6860400, Note_off_c, 2, 79, 0
2, 6860400, Note_on_c, 2, 78, 50
2, 6861360, Note_off_c, 2, 78, 0
2, 6861360, Note_on_c, 2, 76, 50
2, 6861720, Note_off_c, 2, 76, 0
2, 6861720, Note_on_c, 2, 69, 50
2, 6861840, Note_off_c, 2, 69, 0
2, 6862200, Note_on_c, 2, 69, 50
2, 6862320, Note_off_c, 2, 69, 0
2, 6862680, Note_on_c, 2, 69, 50
2, 6862800, Note_off_c, 2, 69, 0
2, 6862800, Note_on_c, 2, 69, 50
2, 6863160, Note_off_c, 2, 69, 0
2, 6863160, Note_on_c, 2, 69, 50
2, 6863280, Note_off_c, 2, 69, 0
2, 6863280, Note_on_c, 2, 79, 50
2, 6863640, Note_off_c, 2, 79, 0
2, 6863640, Note_on_c, 2, 79, 50
2, 6864000, Note_off_c, 2, 79, 0
2, 6864240, Note_on_c, 2, 78, 50
2, 6865200, Note_off_c, 2, 78, 0
2, 6865200, Note_on_c, 2, 76, 50
2, 6865560, Note_off_c, 2, 76, 0
2, 6865560, Note_on_c, 2, 69, 50
2, 6865680, Note_off_c, 2, 69, 0
2, 6866040, Note_on_c, 2, 69, 50
2, 6866160, Note_off_c, 2, 69, 0
2, 6866520, Note_on_c, 2, 69, 50
2, 6866640, Note_off_c, 2, 69, 0
2, 6866640, Note_on_c, 2, 69, 50
2, 6867000, Note_off_c, 2, 69, 0
2, 6867000, Note_on_c, 2, 69, 50
2, 6867120, Note_off_c, 2, 69, 0
2, 6867120, Note_on_c, 2, 79, 50
2, 6868080, Note_off_c, 2, 79, 0
2, 6868080, Note_on_c, 2, 78, 50
2, 6869040, Note_off_c, 2, 78, 0
2, 6869040, Note_on_c, 2, 76, 50
2, 6869400, Note_off_c, 2, 76, 0
2, 6869400, Note_on_c, 2, 69, 50
2, 6869520, Note_off_c, 2, 69, 0
2, 6869880, Note_on_c, 2, 69, 50
2, 6870000, Note_off_c, 2, 69, 0
2, 6870360, Note_on_c, 2, 69, 50
2, 6870480, Note_off_c, 2, 69, 0
2, 6870480, Note_on_c, 2, 69, 50
2, 6870840, Note_off_c, 2, 69, 0
2, 6870840, Note_on_c, 2, 69, 50
2, 6870960, Note_off_c, 2, 69, 0
2, 6870960, Note_on_c, 2, 79, 50
2, 6871320, Note_off_c, 2, 79, 0
2, 6871320, Note_on_c, 2, 79, 50
2, 6871680, Note_off_c, 2, 79, 0
2, 6871920, Note_on_c, 2, 78, 50
2, 6872880, Note_off_c, 2, 78, 0
2, 6875280, Note_on_c, 2, 71, 50
2, 6876000, Note_off_c, 2, 71, 0
2, 6876000, Note_on_c, 2, 66, 50
2, 6876240, Note_off_c, 2, 66, 0
2, 6876240, Note_on_c, 2, 63, 50
2, 6877200, Note_off_c, 2, 63, 0
2, 6877200, Note_on_c, 2, 70, 50
2, 6877920, Note_off_c, 2, 70, 0
2, 6877920, Note_on_c, 2, 66, 50
2, 6878160, Note_off_c, 2, 66, 0
2, 6878160, Note_on_c, 2, 61, 50
2, 6879120, Note_off_c, 2, 61, 0
2, 6879120, Note_on_c, 2, 68, 50
2, 6881040, Note_off_c, 2, 68, 0
2, 6881040, Note_on_c, 2, 68, 50
2, 6882960, Note_off_c, 2, 68, 0
2, 6883440, Note_on_c, 2, 61, 50
2, 6883680, Note_off_c, 2, 61, 0
2, 6883680, Note_on_c, 2, 61, 50
2, 6884400, Note_off_c, 2, 61, 0
2, 6884400, Note_on_c, 2, 61, 50
2, 6884880, Note_off_c, 2, 61, 0
2, 6885360, Note_on_c, 2, 61, 50
2, 6885840, Note_off_c, 2, 61, 0
2, 6886320, Note_on_c, 2, 61, 50
2, 6886800, Note_off_c, 2, 61, 0
2, 6887280, Note_on_c, 2, 59, 50
2, 6887520, Note_off_c, 2, 59, 0
2, 6887520, Note_on_c, 2, 59, 50
2, 6888240, Note_off_c, 2, 59, 0
2, 6888240, Note_on_c, 2, 59, 50
2, 6888480, Note_off_c, 2, 59, 0
2, 6888480, Note_on_c, 2, 61, 50
2, 6888960, Note_off_c, 2, 61, 0
2, 6888960, Note_on_c, 2, 61, 50
2, 6889200, Note_off_c, 2, 61, 0
2, 6889200, Note_on_c, 2, 59, 50
2, 6889440, Note_off_c, 2, 59, 0
2, 6889440, Note_on_c, 2, 58, 50
2, 6890160, Note_off_c, 2, 58, 0
2, 6890160, Note_on_c, 2, 61, 50
2, 6890640, Note_off_c, 2, 61, 0
2, 6891120, Note_on_c, 2, 61, 50
2, 6891360, Note_off_c, 2, 61, 0
2, 6891360, Note_on_c, 2, 61, 50
2, 6892080, Note_off_c, 2, 61, 0
2, 6892080, Note_on_c, 2, 61, 50
2, 6892560, Note_off_c, 2, 61, 0
2, 6893040, Note_on_c, 2, 61, 50
2, 6893520, Note_off_c, 2, 61, 0
2, 6894000, Note_on_c, 2, 61, 50
2, 6894480, Note_off_c, 2, 61, 0
2, 6894960, Note_on_c, 2, 59, 50
2, 6895200, Note_off_c, 2, 59, 0
2, 6895200, Note_on_c, 2, 59, 50
2, 6895920, Note_off_c, 2, 59, 0
2, 6895920, Note_on_c, 2, 59, 50
2, 6896160, Note_off_c, 2, 59, 0
2, 6896160, Note_on_c, 2, 61, 50
2, 6896640, Note_off_c, 2, 61, 0
2, 6896640, Note_on_c, 2, 61, 50
2, 6896880, Note_off_c, 2, 61, 0
2, 6896880, Note_on_c, 2, 59, 50
2, 6897120, Note_off_c, 2, 59, 0
2, 6897120, Note_on_c, 2, 58, 50
2, 6897840, Note_off_c, 2, 58, 0
2, 6897840, Note_on_c, 2, 61, 50
2, 6898320, Note_off_c, 2, 61, 0
2, 6898800, Note_on_c, 2, 61, 50
2, 6899040, Note_off_c, 2, 61, 0
2, 6899040, Note_on_c, 2, 61, 50
2, 6899520, Note_off_c, 2, 61, 0
2, 6900240, Note_on_c, 2, 65, 50
2, 6900720, Note_off_c, 2, 65, 0
2, 6900720, Note_on_c, 2, 61, 50
2, 6900960, Note_off_c, 2, 61, 0
2, 6900960, Note_on_c, 2, 56, 50
2, 6901680, Note_off_c, 2, 56, 0
2, 6901680, Note_on_c, 2, 53, 50
2, 6902160, Note_off_c, 2, 53, 0
2, 6902640, Note_on_c, 2, 59, 50
2, 6902880, Note_off_c, 2, 59, 0
2, 6902880, Note_on_c, 2, 59, 50
2, 6903600, Note_off_c, 2, 59, 0
2, 6903600, Note_on_c, 2, 59, 50
2, 6903840, Note_off_c, 2, 59, 0
2, 6903840, Note_on_c, 2, 61, 50
2, 6904320, Note_off_c, 2, 61, 0
2, 6904320, Note_on_c, 2, 61, 50
2, 6904560, Note_off_c, 2, 61, 0
2, 6904560, Note_on_c, 2, 59, 50
2, 6904800, Note_off_c, 2, 59, 0
2, 6904800, Note_on_c, 2, 58, 50
2, 6905520, Note_off_c, 2, 58, 0
2, 6905520, Note_on_c, 2, 61, 50
2, 6906000, Note_off_c, 2, 61, 0
2, 6906480, Note_on_c, 2, 61, 50
2, 6906720, Note_off_c, 2, 61, 0
2, 6906720, Note_on_c, 2, 61, 50
2, 6907200, Note_off_c, 2, 61, 0
2, 6907920, Note_on_c, 2, 65, 50
2, 6908400, Note_off_c, 2, 65, 0
2, 6908400, Note_on_c, 2, 61, 50
2, 6908640, Note_off_c, 2, 61, 0
2, 6908640, Note_on_c, 2, 56, 50
2, 6909360, Note_off_c, 2, 56, 0
2, 6909360, Note_on_c, 2, 53, 50
2, 6909840, Note_off_c, 2, 53, 0
2, 6910320, Note_on_c, 2, 59, 50
2, 6910560, Note_off_c, 2, 59, 0
2, 6910560, Note_on_c, 2, 59, 50
2, 6911280, Note_off_c, 2, 59, 0
2, 6911280, Note_on_c, 2, 59, 50
2, 6911520, Note_off_c, 2, 59, 0
2, 6911520, Note_on_c, 2, 61, 50
2, 6912000, Note_off_c, 2, 61, 0
2, 6912000, Note_on_c, 2, 61, 50
2, 6912240, Note_off_c, 2, 61, 0
2, 6912240, Note_on_c, 2, 59, 50
2, 6912480, Note_off_c, 2, 59, 0
2, 6912480, Note_on_c, 2, 58, 50
2, 6913200, Note_off_c, 2, 58, 0
2, 6913200, Note_on_c, 2, 61, 50
2, 6913680, Note_off_c, 2, 61, 0
2, 6914160, Note_on_c, 2, 63, 50
2, 6914400, Note_off_c, 2, 63, 0
2, 6914400, Note_on_c, 2, 63, 50
2, 6914880, Note_off_c, 2, 63, 0
2, 6914880, Note_on_c, 2, 63, 50
2, 6915120, Note_off_c, 2, 63, 0
2, 6915120, Note_on_c, 2, 63, 50
2, 6915360, Note_off_c, 2, 63, 0
2, 6915360, Note_on_c, 2, 63, 50
2, 6915840, Note_off_c, 2, 63, 0
2, 6915840, Note_on_c, 2, 61, 50
2, 6916080, Note_off_c, 2, 61, 0
2, 6916080, Note_on_c, 2, 59, 50
2, 6916320, Note_off_c, 2, 59, 0
2, 6916320, Note_on_c, 2, 57, 50
2, 6917040, Note_off_c, 2, 57, 0
2, 6917040, Note_on_c, 2, 59, 50
2, 6917520, Note_off_c, 2, 59, 0
2, 6917520, Note_on_c, 2, 59, 50
2, 6918480, Note_off_c, 2, 59, 0
2, 6918480, Note_on_c, 2, 59, 50
2, 6919440, Note_off_c, 2, 59, 0
2, 6919440, Note_on_c, 2, 52, 50
2, 6921360, Note_off_c, 2, 52, 0
2, 6921360, Note_on_c, 2, 59, 50
2, 6921720, Note_off_c, 2, 59, 0
2, 6921720, Note_on_c, 2, 59, 50
2, 6921960, Note_off_c, 2, 59, 0
2, 6921960, Note_on_c, 2, 59, 50
2, 6922320, Note_off_c, 2, 59, 0
2, 6922320, Note_on_c, 2, 59, 50
2, 6922680, Note_off_c, 2, 59, 0
2, 6922680, Note_on_c, 2, 61, 50
2, 6922920, Note_off_c, 2, 61, 0
2, 6922920, Note_on_c, 2, 62, 50
2, 6923280, Note_off_c, 2, 62, 0
2, 6923280, Note_on_c, 2, 63, 50
2, 6925200, Note_off_c, 2, 63, 0
2, 6925680, Note_on_c, 2, 61, 50
2, 6925920, Note_off_c, 2, 61, 0
2, 6925920, Note_on_c, 2, 61, 50
2, 6926640, Note_off_c, 2, 61, 0
2, 6926640, Note_on_c, 2, 61, 50
2, 6927120, Note_off_c, 2, 61, 0
2, 6927600, Note_on_c, 2, 61, 50
2, 6928080, Note_off_c, 2, 61, 0
2, 6928560, Note_on_c, 2, 61, 50
2, 6929040, Note_off_c, 2, 61, 0
2, 6929520, Note_on_c, 2, 59, 50
2, 6929760, Note_off_c, 2, 59, 0
2, 6929760, Note_on_c, 2, 59, 50
2, 6930480, Note_off_c, 2, 59, 0
2, 6930480, Note_on_c, 2, 59, 50
2, 6930720, Note_off_c, 2, 59, 0
2, 6930720, Note_on_c, 2, 61, 50
2, 6931200, Note_off_c, 2, 61, 0
2, 6931200, Note_on_c, 2, 61, 50
2, 6931440, Note_off_c, 2, 61, 0
2, 6931440, Note_on_c, 2, 59, 50
2, 6931680, Note_off_c, 2, 59, 0
2, 6931680, Note_on_c, 2, 58, 50
2, 6932400, Note_off_c, 2, 58, 0
2, 6932400, Note_on_c, 2, 61, 50
2, 6932880, Note_off_c, 2, 61, 0
2, 6933360, Note_on_c, 2, 61, 50
2, 6933600, Note_off_c, 2, 61, 0
2, 6933600, Note_on_c, 2, 61, 50
2, 6934320, Note_off_c, 2, 61, 0
2, 6934320, Note_on_c, 2, 61, 50
2, 6934800, Note_off_c, 2, 61, 0
2, 6935280, Note_on_c, 2, 61, 50
2, 6935760, Note_off_c, 2, 61, 0
2, 6936240, Note_on_c, 2, 61, 50
2, 6936720, Note_off_c, 2, 61, 0
2, 6937200, Note_on_c, 2, 59, 50
2, 6937440, Note_off_c, 2, 59, 0
2, 6937440, Note_on_c, 2, 59, 50
2, 6938160, Note_off_c, 2, 59, 0
2, 6938160, Note_on_c, 2, 59, 50
2, 6938400, Note_off_c, 2, 59, 0
2, 6938400, Note_on_c, 2, 61, 50
2, 6938880, Note_off_c, 2, 61, 0
2, 6938880, Note_on_c, 2, 61, 50
2, 6939120, Note_off_c, 2, 61, 0
2, 6939120, Note_on_c, 2, 59, 50
2, 6939360, Note_off_c, 2, 59, 0
2, 6939360, Note_on_c, 2, 58, 50
2, 6940080, Note_off_c, 2, 58, 0
2, 6940080, Note_on_c, 2, 61, 50
2, 6940560, Note_off_c, 2, 61, 0
2, 6941040, Note_on_c, 2, 61, 50
2, 6941280, Note_off_c, 2, 61, 0
2, 6941280, Note_on_c, 2, 61, 50
2, 6941760, Note_off_c, 2, 61, 0
2, 6942480, Note_on_c, 2, 65, 50
2, 6942960, Note_off_c, 2, 65, 0
2, 6942960, Note_on_c, 2, 61, 50
2, 6943200, Note_off_c, 2, 61, 0
2, 6943200, Note_on_c, 2, 56, 50
2, 6943920, Note_off_c, 2, 56, 0
2, 6943920, Note_on_c, 2, 53, 50
2, 6944400, Note_off_c, 2, 53, 0
2, 6944880, Note_on_c, 2, 59, 50
2, 6945120, Note_off_c, 2, 59, 0
2, 6945120, Note_on_c, 2, 59, 50
2, 6945840, Note_off_c, 2, 59, 0
2, 6945840, Note_on_c, 2, 59, 50
2, 6946080, Note_off_c, 2, 59, 0
2, 6946080, Note_on_c, 2, 61, 50
2, 6946560, Note_off_c, 2, 61, 0
2, 6946560, Note_on_c, 2, 61, 50
2, 6946800, Note_off_c, 2, 61, 0
2, 6946800, Note_on_c, 2, 59, 50
2, 6947040, Note_off_c, 2, 59, 0
2, 6947040, Note_on_c, 2, 58, 50
2, 6947760, Note_off_c, 2, 58, 0
2, 6947760, Note_on_c, 2, 61, 50
2, 6948240, Note_off_c, 2, 61, 0
2, 6948720, Note_on_c, 2, 61, 50
2, 6948960, Note_off_c, 2, 61, 0
2, 6948960, Note_on_c, 2, 61, 50
2, 6949440, Note_off_c, 2, 61, 0
2, 6950160, Note_on_c, 2, 65, 50
2, 6950640, Note_off_c, 2, 65, 0
2, 6950640, Note_on_c, 2, 61, 50
2, 6950880, Note_off_c, 2, 61, 0
2, 6950880, Note_on_c, 2, 56, 50
2, 6951600, Note_off_c, 2, 56, 0
2, 6951600, Note_on_c, 2, 53, 50
2, 6952080, Note_off_c, 2, 53, 0
2, 6952560, Note_on_c, 2, 59, 50
2, 6952800, Note_off_c, 2, 59, 0
2, 6952800, Note_on_c, 2, 59, 50
2, 6953520, Note_off_c, 2, 59, 0
2, 6953520, Note_on_c, 2, 59, 50
2, 6953760, Note_off_c, 2, 59, 0
2, 6953760, Note_on_c, 2, 61, 50
2, 6954240, Note_off_c, 2, 61, 0
2, 6954240, Note_on_c, 2, 61, 50
2, 6954480, Note_off_c, 2, 61, 0
2, 6954480, Note_on_c, 2, 59, 50
2, 6954720, Note_off_c, 2, 59, 0
2, 6954720, Note_on_c, 2, 58, 50
2, 6955440, Note_off_c, 2, 58, 0
2, 6955440, Note_on_c, 2, 61, 50
2, 6955920, Note_off_c, 2, 61, 0
2, 6956400, Note_on_c, 2, 63, 50
2, 6956640, Note_off_c, 2, 63, 0
2, 6956640, Note_on_c, 2, 63, 50
2, 6957120, Note_off_c, 2, 63, 0
2, 6957120, Note_on_c, 2, 63, 50
2, 6957360, Note_off_c, 2, 63, 0
2, 6957360, Note_on_c, 2, 63, 50
2, 6957600, Note_off_c, 2, 63, 0
2, 6957600, Note_on_c, 2, 63, 50
2, 6958080, Note_off_c, 2, 63, 0
2, 6958080, Note_on_c, 2, 61, 50
2, 6958320, Note_off_c, 2, 61, 0
2, 6958320, Note_on_c, 2, 59, 50
2, 6958560, Note_off_c, 2, 59, 0
2, 6958560, Note_on_c, 2, 57, 50
2, 6959280, Note_off_c, 2, 57, 0
2, 6959280, Note_on_c, 2, 59, 50
2, 6959760, Note_off_c, 2, 59, 0
2, 6959760, Note_on_c, 2, 59, 50
2, 6960720, Note_off_c, 2, 59, 0
2, 6960720, Note_on_c, 2, 59, 50
2, 6961680, Note_off_c, 2, 59, 0
2, 6961680, Note_on_c, 2, 52, 50
2, 6963600, Note_off_c, 2, 52, 0
2, 6963600, Note_on_c, 2, 59, 50
2, 6963960, Note_off_c, 2, 59, 0
2, 6963960, Note_on_c, 2, 59, 50
2, 6964200, Note_off_c, 2, 59, 0
2, 6964200, Note_on_c, 2, 59, 50
2, 6964560, Note_off_c, 2, 59, 0
2, 6964560, Note_on_c, 2, 59, 50
2, 6964920, Note_off_c, 2, 59, 0
2, 6964920, Note_on_c, 2, 61, 50
2, 6965160, Note_off_c, 2, 61, 0
2, 6965160, Note_on_c, 2, 62, 50
2, 6965520, Note_off_c, 2, 62, 0
2, 6965520, Note_on_c, 2, 63, 50
2, 6967440, Note_off_c, 2, 63, 0
2, 6967440, Note_on_c, 2, 63, 50
2, 6969360, Note_off_c, 2, 63, 0
2, 6969360, Note_on_c, 2, 63, 50
2, 6971280, Note_off_c, 2, 63, 0
2, 6971280, Note_on_c, 2, 66, 50
2, 6972000, Note_off_c, 2, 66, 0
2, 6972240, Note_on_c, 2, 63, 50
2, 6972600, Note_off_c, 2, 63, 0
2, 6972600, Note_on_c, 2, 65, 50
2, 6972840, Note_off_c, 2, 65, 0
2, 6972840, Note_on_c, 2, 66, 50
2, 6973200, Note_off_c, 2, 66, 0
2, 6973200, Note_on_c, 2, 66, 50
2, 6974640, Note_off_c, 2, 66, 0
2, 6974640, Note_on_c, 2, 68, 50
2, 6974880, Note_off_c, 2, 68, 0
2, 6974880, Note_on_c, 2, 66, 50
2, 6975120, Note_off_c, 2, 66, 0
2, 6975120, Note_on_c, 2, 63, 50
2, 6977040, Note_off_c, 2, 63, 0
2, 6977040, Note_on_c, 2, 63, 50
2, 6978960, Note_off_c, 2, 63, 0
2, 6978960, Note_on_c, 2, 66, 50
2, 6979680, Note_off_c, 2, 66, 0
2, 6979920, Note_on_c, 2, 63, 50
2, 6980280, Note_off_c, 2, 63, 0
2, 6980280, Note_on_c, 2, 65, 50
2, 6980520, Note_off_c, 2, 65, 0
2, 6980520, Note_on_c, 2, 66, 50
2, 6980880, Note_off_c, 2, 66, 0
2, 6980880, Note_on_c, 2, 66, 50
2, 6982800, Note_off_c, 2, 66, 0
2, 6983760, Note_on_c, 2, 73, 50
2, 6984240, Note_off_c, 2, 73, 0
2, 6985680, Note_on_c, 2, 75, 50
2, 6985800, Note_off_c, 2, 75, 0
2, 6985800, Note_on_c, 2, 73, 50
2, 6985920, Note_off_c, 2, 73, 0
2, 6985920, Note_on_c, 2, 75, 50
2, 6986160, Note_off_c, 2, 75, 0
2, 6987120, Note_on_c, 2, 61, 50
2, 6987360, Note_off_c, 2, 61, 0
2, 6987360, Note_on_c, 2, 61, 50
2, 6988080, Note_off_c, 2, 61, 0
2, 6988080, Note_on_c, 2, 61, 50
2, 6988560, Note_off_c, 2, 61, 0
2, 6989040, Note_on_c, 2, 61, 50
2, 6989520, Note_off_c, 2, 61, 0
2, 6990000, Note_on_c, 2, 61, 50
2, 6990480, Note_off_c, 2, 61, 0
2, 6990960, Note_on_c, 2, 59, 50
2, 6991200, Note_off_c, 2, 59, 0
2, 6991200, Note_on_c, 2, 59, 50
2, 6991920, Note_off_c, 2, 59, 0
2, 6991920, Note_on_c, 2, 59, 50
2, 6992160, Note_off_c, 2, 59, 0
2, 6992160, Note_on_c, 2, 61, 50
2, 6992640, Note_off_c, 2, 61, 0
2, 6992640, Note_on_c, 2, 61, 50
2, 6992880, Note_off_c, 2, 61, 0
2, 6992880, Note_on_c, 2, 59, 50
2, 6993120, Note_off_c, 2, 59, 0
2, 6993120, Note_on_c, 2, 58, 50
2, 6993840, Note_off_c, 2, 58, 0
2, 6993840, Note_on_c, 2, 61, 50
2, 6994320, Note_off_c, 2, 61, 0
2, 6994800, Note_on_c, 2, 61, 50
2, 6995040, Note_off_c, 2, 61, 0
2, 6995040, Note_on_c, 2, 61, 50
2, 6995760, Note_off_c, 2, 61, 0
2, 6995760, Note_on_c, 2, 61, 50
2, 6996240, Note_off_c, 2, 61, 0
2, 6996720, Note_on_c, 2, 61, 50
2, 6997200, Note_off_c, 2, 61, 0
2, 6997680, Note_on_c, 2, 61, 50
2, 6998160, Note_off_c, 2, 61, 0
2, 6998640, Note_on_c, 2, 59, 50
2, 6998880, Note_off_c, 2, 59, 0
2, 6998880, Note_on_c, 2, 59, 50
2, 6999600, Note_off_c, 2, 59, 0
2, 6999600, Note_on_c, 2, 59, 50
2, 6999840, Note_off_c, 2, 59, 0
2, 6999840, Note_on_c, 2, 61, 50
2, 7000320, Note_off_c, 2, 61, 0
2, 7000320, Note_on_c, 2, 61, 50
2, 7000560, Note_off_c, 2, 61, 0
2, 7000560, Note_on_c, 2, 59, 50
2, 7000800, Note_off_c, 2, 59, 0
2, 7000800, Note_on_c, 2, 58, 50
2, 7001520, Note_off_c, 2, 58, 0
2, 7001520, Note_on_c, 2, 61, 50
2, 7002000, Note_off_c, 2, 61, 0
2, 7002480, Note_on_c, 2, 61, 50
2, 7002720, Note_off_c, 2, 61, 0
2, 7002720, Note_on_c, 2, 61, 50
2, 7003200, Note_off_c, 2, 61, 0
2, 7003920, Note_on_c, 2, 65, 50
2, 7004400, Note_off_c, 2, 65, 0
2, 7004400, Note_on_c, 2, 61, 50
2, 7004640, Note_off_c, 2, 61, 0
2, 7004640, Note_on_c, 2, 56, 50
2, 7005360, Note_off_c, 2, 56, 0
2, 7005360, Note_on_c, 2, 53, 50
2, 7005840, Note_off_c, 2, 53, 0
2, 7006320, Note_on_c, 2, 59, 50
2, 7006560, Note_off_c, 2, 59, 0
2, 7006560, Note_on_c, 2, 59, 50
2, 7007280, Note_off_c, 2, 59, 0
2, 7007280, Note_on_c, 2, 59, 50
2, 7007520, Note_off_c, 2, 59, 0
2, 7007520, Note_on_c, 2, 61, 50
2, 7008000, Note_off_c, 2, 61, 0
2, 7008000, Note_on_c, 2, 61, 50
2, 7008240, Note_off_c, 2, 61, 0
2, 7008240, Note_on_c, 2, 59, 50
2, 7008480, Note_off_c, 2, 59, 0
2, 7008480, Note_on_c, 2, 58, 50
2, 7009200, Note_off_c, 2, 58, 0
2, 7009200, Note_on_c, 2, 61, 50
2, 7009680, Note_off_c, 2, 61, 0
2, 7010160, Note_on_c, 2, 61, 50
2, 7010400, Note_off_c, 2, 61, 0
2, 7010400, Note_on_c, 2, 61, 50
2, 7010880, Note_off_c, 2, 61, 0
2, 7011600, Note_on_c, 2, 65, 50
2, 7012080, Note_off_c, 2, 65, 0
2, 7012080, Note_on_c, 2, 61, 50
2, 7012320, Note_off_c, 2, 61, 0
2, 7012320, Note_on_c, 2, 56, 50
2, 7013040, Note_off_c, 2, 56, 0
2, 7013040, Note_on_c, 2, 53, 50
2, 7013520, Note_off_c, 2, 53, 0
2, 7014000, Note_on_c, 2, 59, 50
2, 7014240, Note_off_c, 2, 59, 0
2, 7014240, Note_on_c, 2, 59, 50
2, 7014960, Note_off_c, 2, 59, 0
2, 7014960, Note_on_c, 2, 59, 50
2, 7015200, Note_off_c, 2, 59, 0
2, 7015200, Note_on_c, 2, 61, 50
2, 7015680, Note_off_c, 2, 61, 0
2, 7015680, Note_on_c, 2, 61, 50
2, 7015920, Note_off_c, 2, 61, 0
2, 7015920, Note_on_c, 2, 59, 50
2, 7016160, Note_off_c, 2, 59, 0
2, 7016160, Note_on_c, 2, 58, 50
2, 7016880, Note_off_c, 2, 58, 0
2, 7016880, Note_on_c, 2, 61, 50
2, 7017360, Note_off_c, 2, 61, 0
2, 7017840, Note_on_c, 2, 63, 50
2, 7018320, Note_off_c, 2, 63, 0
2, 7018320, Note_on_c, 2, 63, 50
2, 7018800, Note_off_c, 2, 63, 0
2, 7018800, Note_on_c, 2, 63, 50
2, 7019280, Note_off_c, 2, 63, 0
2, 7019280, Note_on_c, 2, 63, 50
2, 7019760, Note_off_c, 2, 63, 0
2, 7019760, Note_on_c, 2, 63, 50
2, 7020240, Note_off_c, 2, 63, 0
2, 7020240, Note_on_c, 2, 63, 50
2, 7020720, Note_off_c, 2, 63, 0
2, 7020720, Note_on_c, 2, 61, 50
2, 7021200, Note_off_c, 2, 61, 0
2, 7021200, Note_on_c, 2, 59, 50
2, 7021680, Note_off_c, 2, 59, 0
2, 7021680, Note_on_c, 2, 58, 50
2, 7022160, Note_off_c, 2, 58, 0
2, 7022640, Note_on_c, 2, 59, 50
2, 7023120, Note_off_c, 2, 59, 0
2, 7023120, Note_on_c, 2, 59, 50
2, 7024560, Note_off_c, 2, 59, 0
2, 7024560, Note_on_c, 2, 59, 50
2, 7026000, Note_off_c, 2, 59, 0
2, 7026000, Note_on_c, 2, 52, 50
2, 7027920, Note_off_c, 2, 52, 0
2, 7027920, Note_on_c, 2, 52, 50
2, 7028880, Note_off_c, 2, 52, 0
2, 7028880, Note_on_c, 2, 59, 50
2, 7029360, Note_off_c, 2, 59, 0
2, 7029360, Note_on_c, 2, 59, 50
2, 7029840, Note_off_c, 2, 59, 0
2, 7029840, Note_on_c, 2, 59, 50
2, 7030320, Note_off_c, 2, 59, 0
2, 7030320, Note_on_c, 2, 59, 50
2, 7030800, Note_off_c, 2, 59, 0
2, 7030800, Note_on_c, 2, 61, 50
2, 7031280, Note_off_c, 2, 61, 0
2, 7031280, Note_on_c, 2, 62, 50
2, 7031760, Note_off_c, 2, 62, 0
2, 7031760, Note_on_c, 2, 63, 50
2, 7033680, Note_off_c, 2, 63, 0
2, 7033680, Note_on_c, 2, 63, 50
2, 7034640, Note_off_c, 2, 63, 0
2, 7035120, Note_on_c, 2, 63, 50
2, 7035600, Note_off_c, 2, 63, 0
2, 7035600, Note_on_c, 2, 63, 50
2, 7036080, Note_off_c, 2, 63, 0
2, 7036080, Note_on_c, 2, 63, 50
2, 7036560, Note_off_c, 2, 63, 0
2, 7036560, Note_on_c, 2, 63, 50
2, 7037040, Note_off_c, 2, 63, 0
2, 7037040, Note_on_c, 2, 63, 50
2, 7037520, Note_off_c, 2, 63, 0
2, 7037520, Note_on_c, 2, 63, 50
2, 7038000, Note_off_c, 2, 63, 0
2, 7038000, Note_on_c, 2, 61, 50
2, 7038480, Note_off_c, 2, 61, 0
2, 7038480, Note_on_c, 2, 59, 50
2, 7038960, Note_off_c, 2, 59, 0
2, 7038960, Note_on_c, 2, 58, 50
2, 7039440, Note_off_c, 2, 58, 0
2, 7039920, Note_on_c, 2, 59, 50
2, 7040400, Note_off_c, 2, 59, 0
2, 7040400, Note_on_c, 2, 59, 50
2, 7041840, Note_off_c, 2, 59, 0
2, 7041840, Note_on_c, 2, 59, 50
2, 7043280, Note_off_c, 2, 59, 0
2, 7043280, Note_on_c, 2, 52, 50
2, 7045200, Note_off_c, 2, 52, 0
2, 7045200, Note_on_c, 2, 52, 50
2, 7046160, Note_off_c, 2, 52, 0
2, 7046160, Note_on_c, 2, 59, 50
2, 7046640, Note_off_c, 2, 59, 0
2, 7046640, Note_on_c, 2, 59, 50
2, 7047120, Note_off_c, 2, 59, 0
2, 7047120, Note_on_c, 2, 59, 50
2, 7047600, Note_off_c, 2, 59, 0
2, 7047600, Note_on_c, 2, 59, 50
2, 7048080, Note_off_c, 2, 59, 0
2, 7048080, Note_on_c, 2, 61, 50
2, 7048560, Note_off_c, 2, 61, 0
2, 7048560, Note_on_c, 2, 62, 50
2, 7049040, Note_off_c, 2, 62, 0
2, 7049040, Note_on_c, 2, 63, 50
2, 7050480, Note_off_c, 2, 63, 0
2, 7050480, Note_on_c, 2, 63, 50
2, 7050960, Note_off_c, 2, 63, 0
2, 7050960, Note_on_c, 2, 62, 50
2, 7051440, Note_off_c, 2, 62, 0
2, 7051440, Note_on_c, 2, 61, 50
2, 7051920, Note_off_c, 2, 61, 0
2, 7051920, Note_on_c, 2, 59, 50
2, 7053840, Note_off_c, 2, 59, 0
2, 7053840, Note_on_c, 2, 59, 50
2, 7054800, Note_off_c, 2, 59, 0
2, 7060080, Note_on_c, 2, 33, 50
2, 7060200, Note_off_c, 2, 33, 0
2, 7060440, Note_on_c, 2, 33, 50
2, 7060560, Note_off_c, 2, 33, 0
2, 7060560, Note_on_c, 2, 36, 50
2, 7060920, Note_off_c, 2, 36, 0
2, 7060920, Note_on_c, 2, 37, 50
2, 7061160, Note_off_c, 2, 37, 0
2, 7061400, Note_on_c, 2, 40, 50
2, 7061520, Note_off_c, 2, 40, 0
2, 7061520, Note_on_c, 2, 37, 50
2, 7061880, Note_off_c, 2, 37, 0
2, 7061880, Note_on_c, 2, 40, 50
2, 7062120, Note_off_c, 2, 40, 0
2, 7062360, Note_on_c, 2, 33, 50
2, 7062480, Note_off_c, 2, 33, 0
2, 7062480, Note_on_c, 2, 36, 50
2, 7062840, Note_off_c, 2, 36, 0
2, 7062840, Note_on_c, 2, 37, 50
2, 7063080, Note_off_c, 2, 37, 0
2, 7063080, Note_on_c, 2, 40, 50
2, 7063320, Note_off_c, 2, 40, 0
2, 7063320, Note_on_c, 2, 40, 50
2, 7063560, Note_off_c, 2, 40, 0
2, 7063800, Note_on_c, 2, 40, 50
2, 7063920, Note_off_c, 2, 40, 0
2, 7063920, Note_on_c, 2, 33, 50
2, 7064040, Note_off_c, 2, 33, 0
2, 7064280, Note_on_c, 2, 33, 50
2, 7064400, Note_off_c, 2, 33, 0
2, 7064400, Note_on_c, 2, 36, 50
2, 7064760, Note_off_c, 2, 36, 0
2, 7064760, Note_on_c, 2, 37, 50
2, 7065000, Note_off_c, 2, 37, 0
2, 7065000, Note_on_c, 2, 40, 50
2, 7065240, Note_off_c, 2, 40, 0
2, 7065240, Note_on_c, 2, 40, 50
2, 7065360, Note_off_c, 2, 40, 0
2, 7065360, Note_on_c, 2, 37, 50
2, 7065600, Note_off_c, 2, 37, 0
2, 7065720, Note_on_c, 2, 40, 50
2, 7065840, Note_off_c, 2, 40, 0
2, 7065840, Note_on_c, 2, 33, 50
2, 7065960, Note_off_c, 2, 33, 0
2, 7066200, Note_on_c, 2, 33, 50
2, 7066320, Note_off_c, 2, 33, 0
2, 7066320, Note_on_c, 2, 36, 50
2, 7066680, Note_off_c, 2, 36, 0
2, 7066680, Note_on_c, 2, 37, 50
2, 7066920, Note_off_c, 2, 37, 0
2, 7066920, Note_on_c, 2, 40, 50
2, 7067160, Note_off_c, 2, 40, 0
2, 7067160, Note_on_c, 2, 40, 50
2, 7067400, Note_off_c, 2, 40, 0
2, 7067640, Note_on_c, 2, 40, 50
2, 7067760, Note_off_c, 2, 40, 0
2, 7067760, Note_on_c, 2, 33, 50
2, 7067880, Note_off_c, 2, 33, 0
2, 7068120, Note_on_c, 2, 33, 50
2, 7068240, Note_off_c, 2, 33, 0
2, 7068240, Note_on_c, 2, 36, 50
2, 7068600, Note_off_c, 2, 36, 0
2, 7068600, Note_on_c, 2, 37, 50
2, 7068840, Note_off_c, 2, 37, 0
2, 7069080, Note_on_c, 2, 40, 50
2, 7069200, Note_off_c, 2, 40, 0
2, 7069200, Note_on_c, 2, 37, 50
2, 7069560, Note_off_c, 2, 37, 0
2, 7069560, Note_on_c, 2, 40, 50
2, 7069680, Note_off_c, 2, 40, 0
2, 7069680, Note_on_c, 2, 33, 50
2, 7069800, Note_off_c, 2, 33, 0
2, 7070040, Note_on_c, 2, 33, 50
2, 7070160, Note_off_c, 2, 33, 0
2, 7070160, Note_on_c, 2, 36, 50
2, 7070520, Note_off_c, 2, 36, 0
2, 7070520, Note_on_c, 2, 37, 50
2, 7070640, Note_off_c, 2, 37, 0
2, 7070640, Note_on_c, 2, 40, 50
2, 7070760, Note_off_c, 2, 40, 0
2, 7071000, Note_on_c, 2, 40, 50
2, 7071120, Note_off_c, 2, 40, 0
2, 7071120, Note_on_c, 2, 37, 50
2, 7071480, Note_off_c, 2, 37, 0
2, 7071480, Note_on_c, 2, 40, 50
2, 7071600, Note_off_c, 2, 40, 0
2, 7071600, Note_on_c, 2, 33, 50
2, 7071720, Note_off_c, 2, 33, 0
2, 7071960, Note_on_c, 2, 33, 50
2, 7072080, Note_off_c, 2, 33, 0
2, 7072080, Note_on_c, 2, 36, 50
2, 7072440, Note_off_c, 2, 36, 0
2, 7072440, Note_on_c, 2, 37, 50
2, 7072680, Note_off_c, 2, 37, 0
2, 7072920, Note_on_c, 2, 40, 50
2, 7073040, Note_off_c, 2, 40, 0
2, 7073040, Note_on_c, 2, 37, 50
2, 7073400, Note_off_c, 2, 37, 0
2, 7073400, Note_on_c, 2, 40, 50
2, 7073520, Note_off_c, 2, 40, 0
2, 7073520, Note_on_c, 2, 33, 50
2, 7073640, Note_off_c, 2, 33, 0
2, 7073880, Note_on_c, 2, 33, 50
2, 7074000, Note_off_c, 2, 33, 0
2, 7074000, Note_on_c, 2, 35, 50
2, 7074120, Note_off_c, 2, 35, 0
2, 7074360, Note_on_c, 2, 35, 50
2, 7074480, Note_off_c, 2, 35, 0
2, 7074480, Note_on_c, 2, 36, 50
2, 7074600, Note_off_c, 2, 36, 0
2, 7074840, Note_on_c, 2, 36, 50
2, 7074960, Note_off_c, 2, 36, 0
2, 7074960, Note_on_c, 2, 37, 50
2, 7075080, Note_off_c, 2, 37, 0
2, 7075320, Note_on_c, 2, 37, 50
2, 7075440, Note_off_c, 2, 37, 0
2, 7075440, Note_on_c, 2, 38, 50
2, 7075680, Note_off_c, 2, 38, 0
2, 7075800, Note_on_c, 2, 38, 50
2, 7075920, Note_off_c, 2, 38, 0
2, 7075920, Note_on_c, 2, 41, 50
2, 7076280, Note_off_c, 2, 41, 0
2, 7076280, Note_on_c, 2, 42, 50
2, 7076400, Note_off_c, 2, 42, 0
2, 7076400, Note_on_c, 2, 45, 50
2, 7076520, Note_off_c, 2, 45, 0
2, 7076760, Note_on_c, 2, 45, 50
2, 7076880, Note_off_c, 2, 45, 0
2, 7076880, Note_on_c, 2, 42, 50
2, 7077240, Note_off_c, 2, 42, 0
2, 7077240, Note_on_c, 2, 45, 50
2, 7077360, Note_off_c, 2, 45, 0
2, 7077360, Note_on_c, 2, 38, 50
2, 7077480, Note_off_c, 2, 38, 0
2, 7077720, Note_on_c, 2, 38, 50
2, 7077840, Note_off_c, 2, 38, 0
2, 7077840, Note_on_c, 2, 41, 50
2, 7078200, Note_off_c, 2, 41, 0
2, 7078200, Note_on_c, 2, 42, 50
2, 7078440, Note_off_c, 2, 42, 0
2, 7078440, Note_on_c, 2, 45, 50
2, 7078680, Note_off_c, 2, 45, 0
2, 7078680, Note_on_c, 2, 45, 50
2, 7078800, Note_off_c, 2, 45, 0
2, 7078800, Note_on_c, 2, 42, 50
2, 7079160, Note_off_c, 2, 42, 0
2, 7079160, Note_on_c, 2, 45, 50
2, 7079280, Note_off_c, 2, 45, 0
2, 7079280, Note_on_c, 2, 33, 50
2, 7079400, Note_off_c, 2, 33, 0
2, 7079640, Note_on_c, 2, 33, 50
2, 7079760, Note_off_c, 2, 33, 0
2, 7079760, Note_on_c, 2, 36, 50
2, 7080120, Note_off_c, 2, 36, 0
2, 7080120, Note_on_c, 2, 37, 50
2, 7080360, Note_off_c, 2, 37, 0
2, 7080600, Note_on_c, 2, 40, 50
2, 7080720, Note_off_c, 2, 40, 0
2, 7080720, Note_on_c, 2, 37, 50
2, 7080960, Note_off_c, 2, 37, 0
2, 7081080, Note_on_c, 2, 40, 50
2, 7081200, Note_off_c, 2, 40, 0
2, 7081200, Note_on_c, 2, 33, 50
2, 7081320, Note_off_c, 2, 33, 0
2, 7081560, Note_on_c, 2, 33, 50
2, 7081680, Note_off_c, 2, 33, 0
2, 7081680, Note_on_c, 2, 36, 50
2, 7082040, Note_off_c, 2, 36, 0
2, 7082040, Note_on_c, 2, 37, 50
2, 7082280, Note_off_c, 2, 37, 0
2, 7082520, Note_on_c, 2, 40, 50
2, 7082760, Note_off_c, 2, 40, 0
2, 7083000, Note_on_c, 2, 40, 50
2, 7083120, Note_off_c, 2, 40, 0
2, 7083120, Note_on_c, 2, 40, 50
2, 7083240, Note_off_c, 2, 40, 0
2, 7083480, Note_on_c, 2, 40, 50
2, 7083600, Note_off_c, 2, 40, 0
2, 7083600, Note_on_c, 2, 43, 50
2, 7083960, Note_off_c, 2, 43, 0
2, 7083960, Note_on_c, 2, 44, 50
2, 7084080, Note_off_c, 2, 44, 0
2, 7084080, Note_on_c, 2, 47, 50
2, 7084200, Note_off_c, 2, 47, 0
2, 7084440, Note_on_c, 2, 47, 50
2, 7084560, Note_off_c, 2, 47, 0
2, 7084560, Note_on_c, 2, 44, 50
2, 7084920, Note_off_c, 2, 44, 0
2, 7084920, Note_on_c, 2, 47, 50
2, 7085040, Note_off_c, 2, 47, 0
2, 7085040, Note_on_c, 2, 38, 50
2, 7085160, Note_off_c, 2, 38, 0
2, 7085400, Note_on_c, 2, 38, 50
2, 7085520, Note_off_c, 2, 38, 0
2, 7085520, Note_on_c, 2, 41, 50
2, 7085880, Note_off_c, 2, 41, 0
2, 7085880, Note_on_c, 2, 42, 50
2, 7086000, Note_off_c, 2, 42, 0
2, 7086000, Note_on_c, 2, 45, 50
2, 7086120, Note_off_c, 2, 45, 0
2, 7086360, Note_on_c, 2, 45, 50
2, 7086480, Note_off_c, 2, 45, 0
2, 7086480, Note_on_c, 2, 42, 50
2, 7086720, Note_off_c, 2, 42, 0
2, 7086840, Note_on_c, 2, 45, 50
2, 7086960, Note_off_c, 2, 45, 0
2, 7086960, Note_on_c, 2, 33, 50
2, 7087080, Note_off_c, 2, 33, 0
2, 7087320, Note_on_c, 2, 33, 50
2, 7087440, Note_off_c, 2, 33, 0
2, 7087440, Note_on_c, 2, 36, 50
2, 7087800, Note_off_c, 2, 36, 0
2, 7087800, Note_on_c, 2, 37, 50
2, 7087920, Note_off_c, 2, 37, 0
2, 7087920, Note_on_c, 2, 40, 50
2, 7088040, Note_off_c, 2, 40, 0
2, 7088280, Note_on_c, 2, 40, 50
2, 7088400, Note_off_c, 2, 40, 0
2, 7088400, Note_on_c, 2, 37, 50
2, 7088760, Note_off_c, 2, 37, 0
2, 7088760, Note_on_c, 2, 40, 50
2, 7089000, Note_off_c, 2, 40, 0
2, 7089240, Note_on_c, 2, 33, 50
2, 7089360, Note_off_c, 2, 33, 0
2, 7089360, Note_on_c, 2, 28, 50
2, 7089480, Note_off_c, 2, 28, 0
2, 7089720, Note_on_c, 2, 29, 50
2, 7089840, Note_off_c, 2, 29, 0
2, 7089840, Note_on_c, 2, 30, 50
2, 7089960, Note_off_c, 2, 30, 0
2, 7090200, Note_on_c, 2, 30, 50
2, 7090320, Note_off_c, 2, 30, 0
2, 7090320, Note_on_c, 2, 32, 50
2, 7090560, Note_off_c, 2, 32, 0
2, 7090680, Note_on_c, 2, 32, 50
2, 7090800, Note_off_c, 2, 32, 0
2, 7090800, Note_on_c, 2, 33, 50
2, 7090920, Note_off_c, 2, 33, 0
2, 7091160, Note_on_c, 2, 33, 50
2, 7091280, Note_off_c, 2, 33, 0
2, 7091280, Note_on_c, 2, 36, 50
2, 7091640, Note_off_c, 2, 36, 0
2, 7091640, Note_on_c, 2, 37, 50
2, 7091880, Note_off_c, 2, 37, 0
2, 7092120, Note_on_c, 2, 40, 50
2, 7092240, Note_off_c, 2, 40, 0
2, 7092240, Note_on_c, 2, 37, 50
2, 7092600, Note_off_c, 2, 37, 0
2, 7092600, Note_on_c, 2, 40, 50
2, 7092720, Note_off_c, 2, 40, 0
2, 7092720, Note_on_c, 2, 33, 50
2, 7092840, Note_off_c, 2, 33, 0
2, 7093080, Note_on_c, 2, 33, 50
2, 7093200, Note_off_c, 2, 33, 0
2, 7093200, Note_on_c, 2, 36, 50
2, 7093560, Note_off_c, 2, 36, 0
2, 7093560, Note_on_c, 2, 37, 50
2, 7093680, Note_off_c, 2, 37, 0
2, 7093680, Note_on_c, 2, 40, 50
2, 7093800, Note_off_c, 2, 40, 0
2, 7094040, Note_on_c, 2, 40, 50
2, 7094160, Note_off_c, 2, 40, 0
2, 7094160, Note_on_c, 2, 37, 50
2, 7094520, Note_off_c, 2, 37, 0
2, 7094520, Note_on_c, 2, 40, 50
2, 7094640, Note_off_c, 2, 40, 0
2, 7094640, Note_on_c, 2, 33, 50
2, 7094760, Note_off_c, 2, 33, 0
2, 7095000, Note_on_c, 2, 33, 50
2, 7095120, Note_off_c, 2, 33, 0
2, 7095120, Note_on_c, 2, 36, 50
2, 7095480, Note_off_c, 2, 36, 0
2, 7095480, Note_on_c, 2, 37, 50
2, 7095600, Note_off_c, 2, 37, 0
2, 7095600, Note_on_c, 2, 40, 50
2, 7095720, Note_off_c, 2, 40, 0
2, 7095960, Note_on_c, 2, 40, 50
2, 7096080, Note_off_c, 2, 40, 0
2, 7096080, Note_on_c, 2, 37, 50
2, 7096440, Note_off_c, 2, 37, 0
2, 7096440, Note_on_c, 2, 40, 50
2, 7096560, Note_off_c, 2, 40, 0
2, 7096560, Note_on_c, 2, 33, 50
2, 7096680, Note_off_c, 2, 33, 0
2, 7096920, Note_on_c, 2, 33, 50
2, 7097040, Note_off_c, 2, 33, 0
2, 7097040, Note_on_c, 2, 35, 50
2, 7097160, Note_off_c, 2, 35, 0
2, 7097400, Note_on_c, 2, 35, 50
2, 7097520, Note_off_c, 2, 35, 0
2, 7097520, Note_on_c, 2, 36, 50
2, 7097640, Note_off_c, 2, 36, 0
2, 7097880, Note_on_c, 2, 36, 50
2, 7098000, Note_off_c, 2, 36, 0
2, 7098000, Note_on_c, 2, 37, 50
2, 7098120, Note_off_c, 2, 37, 0
2, 7098360, Note_on_c, 2, 37, 50
2, 7098480, Note_off_c, 2, 37, 0
2, 7098480, Note_on_c, 2, 38, 50
2, 7098720, Note_off_c, 2, 38, 0
2, 7098840, Note_on_c, 2, 38, 50
2, 7098960, Note_off_c, 2, 38, 0
2, 7098960, Note_on_c, 2, 41, 50
2, 7099320, Note_off_c, 2, 41, 0
2, 7099320, Note_on_c, 2, 42, 50
2, 7099440, Note_off_c, 2, 42, 0
2, 7099440, Note_on_c, 2, 45, 50
2, 7099560, Note_off_c, 2, 45, 0
2, 7099800, Note_on_c, 2, 45, 50
2, 7099920, Note_off_c, 2, 45, 0
2, 7099920, Note_on_c, 2, 42, 50
2, 7100160, Note_off_c, 2, 42, 0
2, 7100280, Note_on_c, 2, 45, 50
2, 7100400, Note_off_c, 2, 45, 0
2, 7100400, Note_on_c, 2, 38, 50
2, 7100520, Note_off_c, 2, 38, 0
2, 7100760, Note_on_c, 2, 38, 50
2, 7100880, Note_off_c, 2, 38, 0
2, 7100880, Note_on_c, 2, 41, 50
2, 7101240, Note_off_c, 2, 41, 0
2, 7101240, Note_on_c, 2, 42, 50
2, 7101480, Note_off_c, 2, 42, 0
2, 7101480, Note_on_c, 2, 45, 50
2, 7101720, Note_off_c, 2, 45, 0
2, 7101720, Note_on_c, 2, 45, 50
2, 7101840, Note_off_c, 2, 45, 0
2, 7101840, Note_on_c, 2, 42, 50
2, 7102200, Note_off_c, 2, 42, 0
2, 7102200, Note_on_c, 2, 45, 50
2, 7102320, Note_off_c, 2, 45, 0
2, 7102320, Note_on_c, 2, 33, 50
2, 7102440, Note_off_c, 2, 33, 0
2, 7102680, Note_on_c, 2, 33, 50
2, 7102800, Note_off_c, 2, 33, 0
2, 7102800, Note_on_c, 2, 36, 50
2, 7103160, Note_off_c, 2, 36, 0
2, 7103160, Note_on_c, 2, 37, 50
2, 7103400, Note_off_c, 2, 37, 0
2, 7103640, Note_on_c, 2, 40, 50
2, 7103760, Note_off_c, 2, 40, 0
2, 7103760, Note_on_c, 2, 37, 50
2, 7104000, Note_off_c, 2, 37, 0
2, 7104120, Note_on_c, 2, 40, 50
2, 7104240, Note_off_c, 2, 40, 0
2, 7104240, Note_on_c, 2, 33, 50
2, 7104360, Note_off_c, 2, 33, 0
2, 7104600, Note_on_c, 2, 33, 50
2, 7104720, Note_off_c, 2, 33, 0
2, 7104720, Note_on_c, 2, 36, 50
2, 7105080, Note_off_c, 2, 36, 0
2, 7105080, Note_on_c, 2, 37, 50
2, 7105320, Note_off_c, 2, 37, 0
2, 7105560, Note_on_c, 2, 40, 50
2, 7105800, Note_off_c, 2, 40, 0
2, 7106040, Note_on_c, 2, 40, 50
2, 7106160, Note_off_c, 2, 40, 0
2, 7106160, Note_on_c, 2, 40, 50
2, 7106280, Note_off_c, 2, 40, 0
2, 7106520, Note_on_c, 2, 40, 50
2, 7106640, Note_off_c, 2, 40, 0
2, 7106640, Note_on_c, 2, 43, 50
2, 7107000, Note_off_c, 2, 43, 0
2, 7107000, Note_on_c, 2, 44, 50
2, 7107120, Note_off_c, 2, 44, 0
2, 7107120, Note_on_c, 2, 47, 50
2, 7107240, Note_off_c, 2, 47, 0
2, 7107480, Note_on_c, 2, 47, 50
2, 7107600, Note_off_c, 2, 47, 0
2, 7107600, Note_on_c, 2, 44, 50
2, 7107960, Note_off_c, 2, 44, 0
2, 7107960, Note_on_c, 2, 47, 50
2, 7108080, Note_off_c, 2, 47, 0
2, 7108080, Note_on_c, 2, 38, 50
2, 7108200, Note_off_c, 2, 38, 0
2, 7108440, Note_on_c, 2, 38, 50
2, 7108560, Note_off_c, 2, 38, 0
2, 7108560, Note_on_c, 2, 41, 50
2, 7108920, Note_off_c, 2, 41, 0
2, 7108920, Note_on_c, 2, 42, 50
2, 7109040, Note_off_c, 2, 42, 0
2, 7109040, Note_on_c, 2, 45, 50
2, 7109160, Note_off_c, 2, 45, 0
2, 7109400, Note_on_c, 2, 45, 50
2, 7109520, Note_off_c, 2, 45, 0
2, 7109520, Note_on_c, 2, 42, 50
2, 7109760, Note_off_c, 2, 42, 0
2, 7109880, Note_on_c, 2, 45, 50
2, 7110000, Note_off_c, 2, 45, 0
2, 7110000, Note_on_c, 2, 33, 50
2, 7110120, Note_off_c, 2, 33, 0
2, 7110360, Note_on_c, 2, 33, 50
2, 7110480, Note_off_c, 2, 33, 0
2, 7110480, Note_on_c, 2, 36, 50
2, 7110840, Note_off_c, 2, 36, 0
2, 7110840, Note_on_c, 2, 37, 50
2, 7110960, Note_off_c, 2, 37, 0
2, 7110960, Note_on_c, 2, 40, 50
2, 7111080, Note_off_c, 2, 40, 0
2, 7111320, Note_on_c, 2, 40, 50
2, 7111440, Note_off_c, 2, 40, 0
2, 7111440, Note_on_c, 2, 37, 50
2, 7111800, Note_off_c, 2, 37, 0
2, 7111800, Note_on_c, 2, 40, 50
2, 7112040, Note_off_c, 2, 40, 0
2, 7112280, Note_on_c, 2, 33, 50
2, 7112400, Note_off_c, 2, 33, 0
2, 7112400, Note_on_c, 2, 28, 50
2, 7112520, Note_off_c, 2, 28, 0
2, 7112760, Note_on_c, 2, 29, 50
2, 7112880, Note_off_c, 2, 29, 0
2, 7112880, Note_on_c, 2, 30, 50
2, 7113000, Note_off_c, 2, 30, 0
2, 7113240, Note_on_c, 2, 30, 50
2, 7113360, Note_off_c, 2, 30, 0
2, 7113360, Note_on_c, 2, 32, 50
2, 7113600, Note_off_c, 2, 32, 0
2, 7113720, Note_on_c, 2, 32, 50
2, 7113840, Note_off_c, 2, 32, 0
2, 7113840, Note_on_c, 2, 33, 50
2, 7113960, Note_off_c, 2, 33, 0
2, 7114200, Note_on_c, 2, 33, 50
2, 7114320, Note_off_c, 2, 33, 0
2, 7114320, Note_on_c, 2, 36, 50
2, 7114680, Note_off_c, 2, 36, 0
2, 7114680, Note_on_c, 2, 37, 50
2, 7114920, Note_off_c, 2, 37, 0
2, 7115160, Note_on_c, 2, 40, 50
2, 7115280, Note_off_c, 2, 40, 0
2, 7115280, Note_on_c, 2, 37, 50
2, 7115640, Note_off_c, 2, 37, 0
2, 7115640, Note_on_c, 2, 40, 50
2, 7115760, Note_off_c, 2, 40, 0
2, 7115760, Note_on_c, 2, 33, 50
2, 7115880, Note_off_c, 2, 33, 0
2, 7116120, Note_on_c, 2, 33, 50
2, 7116240, Note_off_c, 2, 33, 0
2, 7116240, Note_on_c, 2, 36, 50
2, 7116600, Note_off_c, 2, 36, 0
2, 7116600, Note_on_c, 2, 37, 50
2, 7116720, Note_off_c, 2, 37, 0
2, 7116720, Note_on_c, 2, 40, 50
2, 7116840, Note_off_c, 2, 40, 0
2, 7117080, Note_on_c, 2, 40, 50
2, 7117200, Note_off_c, 2, 40, 0
2, 7117200, Note_on_c, 2, 37, 50
2, 7117560, Note_off_c, 2, 37, 0
2, 7117560, Note_on_c, 2, 40, 50
2, 7117680, Note_off_c, 2, 40, 0
2, 7117680, Note_on_c, 2, 33, 50
2, 7117800, Note_off_c, 2, 33, 0
2, 7118040, Note_on_c, 2, 33, 50
2, 7118160, Note_off_c, 2, 33, 0
2, 7118160, Note_on_c, 2, 36, 50
2, 7118520, Note_off_c, 2, 36, 0
2, 7118520, Note_on_c, 2, 37, 50
2, 7118760, Note_off_c, 2, 37, 0
2, 7119000, Note_on_c, 2, 40, 50
2, 7119120, Note_off_c, 2, 40, 0
2, 7119120, Note_on_c, 2, 37, 50
2, 7119480, Note_off_c, 2, 37, 0
2, 7119480, Note_on_c, 2, 40, 50
2, 7119600, Note_off_c, 2, 40, 0
2, 7119600, Note_on_c, 2, 33, 50
2, 7119720, Note_off_c, 2, 33, 0
2, 7119960, Note_on_c, 2, 33, 50
2, 7120080, Note_off_c, 2, 33, 0
2, 7120080, Note_on_c, 2, 35, 50
2, 7120200, Note_off_c, 2, 35, 0
2, 7120440, Note_on_c, 2, 35, 50
2, 7120560, Note_off_c, 2, 35, 0
2, 7120560, Note_on_c, 2, 36, 50
2, 7120680, Note_off_c, 2, 36, 0
2, 7120920, Note_on_c, 2, 36, 50
2, 7121040, Note_off_c, 2, 36, 0
2, 7121040, Note_on_c, 2, 37, 50
2, 7121160, Note_off_c, 2, 37, 0
2, 7121400, Note_on_c, 2, 37, 50
2, 7121520, Note_off_c, 2, 37, 0
2, 7121520, Note_on_c, 2, 38, 50
2, 7121760, Note_off_c, 2, 38, 0
2, 7121880, Note_on_c, 2, 38, 50
2, 7122000, Note_off_c, 2, 38, 0
2, 7122000, Note_on_c, 2, 41, 50
2, 7122360, Note_off_c, 2, 41, 0
2, 7122360, Note_on_c, 2, 42, 50
2, 7122480, Note_off_c, 2, 42, 0
2, 7122480, Note_on_c, 2, 45, 50
2, 7122600, Note_off_c, 2, 45, 0
2, 7122840, Note_on_c, 2, 45, 50
2, 7122960, Note_off_c, 2, 45, 0
2, 7122960, Note_on_c, 2, 42, 50
2, 7123320, Note_off_c, 2, 42, 0
2, 7123320, Note_on_c, 2, 45, 50
2, 7123440, Note_off_c, 2, 45, 0
2, 7123440, Note_on_c, 2, 38, 50
2, 7123560, Note_off_c, 2, 38, 0
2, 7123800, Note_on_c, 2, 38, 50
2, 7123920, Note_off_c, 2, 38, 0
2, 7123920, Note_on_c, 2, 41, 50
2, 7124280, Note_off_c, 2, 41, 0
2, 7124280, Note_on_c, 2, 42, 50
2, 7124520, Note_off_c, 2, 42, 0
2, 7124760, Note_on_c, 2, 45, 50
2, 7124880, Note_off_c, 2, 45, 0
2, 7124880, Note_on_c, 2, 42, 50
2, 7125240, Note_off_c, 2, 42, 0
2, 7125240, Note_on_c, 2, 45, 50
2, 7125360, Note_off_c, 2, 45, 0
2, 7125360, Note_on_c, 2, 33, 50
2, 7125480, Note_off_c, 2, 33, 0
2, 7125720, Note_on_c, 2, 33, 50
2, 7125840, Note_off_c, 2, 33, 0
2, 7125840, Note_on_c, 2, 36, 50
2, 7126200, Note_off_c, 2, 36, 0
2, 7126200, Note_on_c, 2, 37, 50
2, 7126440, Note_off_c, 2, 37, 0
2, 7126680, Note_on_c, 2, 40, 50
2, 7126800, Note_off_c, 2, 40, 0
2, 7126800, Note_on_c, 2, 37, 50
2, 7127040, Note_off_c, 2, 37, 0
2, 7127160, Note_on_c, 2, 40, 50
2, 7127280, Note_off_c, 2, 40, 0
2, 7127280, Note_on_c, 2, 33, 50
2, 7127400, Note_off_c, 2, 33, 0
2, 7127640, Note_on_c, 2, 33, 50
2, 7127760, Note_off_c, 2, 33, 0
2, 7127760, Note_on_c, 2, 36, 50
2, 7128120, Note_off_c, 2, 36, 0
2, 7128120, Note_on_c, 2, 37, 50
2, 7128360, Note_off_c, 2, 37, 0
2, 7128600, Note_on_c, 2, 40, 50
2, 7128840, Note_off_c, 2, 40, 0
2, 7129080, Note_on_c, 2, 40, 50
2, 7129200, Note_off_c, 2, 40, 0
2, 7129200, Note_on_c, 2, 40, 50
2, 7129320, Note_off_c, 2, 40, 0
2, 7129560, Note_on_c, 2, 40, 50
2, 7129680, Note_off_c, 2, 40, 0
2, 7129680, Note_on_c, 2, 43, 50
2, 7130040, Note_off_c, 2, 43, 0
2, 7130040, Note_on_c, 2, 44, 50
2, 7130160, Note_off_c, 2, 44, 0
2, 7130160, Note_on_c, 2, 47, 50
2, 7130280, Note_off_c, 2, 47, 0
2, 7130520, Note_on_c, 2, 47, 50
2, 7130640, Note_off_c, 2, 47, 0
2, 7130640, Note_on_c, 2, 44, 50
2, 7131000, Note_off_c, 2, 44, 0
2, 7131000, Note_on_c, 2, 47, 50
2, 7131120, Note_off_c, 2, 47, 0
2, 7131120, Note_on_c, 2, 38, 50
2, 7131240, Note_off_c, 2, 38, 0
2, 7131480, Note_on_c, 2, 38, 50
2, 7131600, Note_off_c, 2, 38, 0
2, 7131600, Note_on_c, 2, 41, 50
2, 7131960, Note_off_c, 2, 41, 0
2, 7131960, Note_on_c, 2, 42, 50
2, 7132080, Note_off_c, 2, 42, 0
2, 7132080, Note_on_c, 2, 45, 50
2, 7132200, Note_off_c, 2, 45, 0
2, 7132440, Note_on_c, 2, 45, 50
2, 7132560, Note_off_c, 2, 45, 0
2, 7132560, Note_on_c, 2, 42, 50
2, 7132800, Note_off_c, 2, 42, 0
2, 7132920, Note_on_c, 2, 45, 50
2, 7133040, Note_off_c, 2, 45, 0
2, 7133040, Note_on_c, 2, 33, 50
2, 7133160, Note_off_c, 2, 33, 0
2, 7133400, Note_on_c, 2, 33, 50
2, 7133520, Note_off_c, 2, 33, 0
2, 7133520, Note_on_c, 2, 36, 50
2, 7133880, Note_off_c, 2, 36, 0
2, 7133880, Note_on_c, 2, 37, 50
2, 7134000, Note_off_c, 2, 37, 0
2, 7134000, Note_on_c, 2, 40, 50
2, 7134120, Note_off_c, 2, 40, 0
2, 7134360, Note_on_c, 2, 40, 50
2, 7134480, Note_off_c, 2, 40, 0
2, 7134480, Note_on_c, 2, 37, 50
2, 7134840, Note_off_c, 2, 37, 0
2, 7134840, Note_on_c, 2, 40, 50
2, 7134960, Note_off_c, 2, 40, 0
2, 7134960, Note_on_c, 2, 33, 50
2, 7135080, Note_off_c, 2, 33, 0
2, 7135320, Note_on_c, 2, 33, 50
2, 7135440, Note_off_c, 2, 33, 0
2, 7135440, Note_on_c, 2, 28, 50
2, 7135560, Note_off_c, 2, 28, 0
2, 7135800, Note_on_c, 2, 29, 50
2, 7135920, Note_off_c, 2, 29, 0
2, 7135920, Note_on_c, 2, 30, 50
2, 7136040, Note_off_c, 2, 30, 0
2, 7136280, Note_on_c, 2, 30, 50
2, 7136400, Note_off_c, 2, 30, 0
2, 7136400, Note_on_c, 2, 32, 50
2, 7136640, Note_off_c, 2, 32, 0
2, 7136760, Note_on_c, 2, 32, 50
2, 7136880, Note_off_c, 2, 32, 0
2, 7136880, Note_on_c, 2, 33, 50
2, 7137000, Note_off_c, 2, 33, 0
2, 7137240, Note_on_c, 2, 33, 50
2, 7137360, Note_off_c, 2, 33, 0
2, 7137360, Note_on_c, 2, 36, 50
2, 7137720, Note_off_c, 2, 36, 0
2, 7137720, Note_on_c, 2, 37, 50
2, 7137960, Note_off_c, 2, 37, 0
2, 7138200, Note_on_c, 2, 40, 50
2, 7138320, Note_off_c, 2, 40, 0
2, 7138320, Note_on_c, 2, 37, 50
2, 7138680, Note_off_c, 2, 37, 0
2, 7138680, Note_on_c, 2, 40, 50
2, 7138800, Note_off_c, 2, 40, 0
2, 7138800, Note_on_c, 2, 33, 50
2, 7138920, Note_off_c, 2, 33, 0
2, 7139160, Note_on_c, 2, 33, 50
2, 7139280, Note_off_c, 2, 33, 0
2, 7139280, Note_on_c, 2, 36, 50
2, 7139640, Note_off_c, 2, 36, 0
2, 7139640, Note_on_c, 2, 37, 50
2, 7139760, Note_off_c, 2, 37, 0
2, 7139760, Note_on_c, 2, 40, 50
2, 7139880, Note_off_c, 2, 40, 0
2, 7140120, Note_on_c, 2, 40, 50
2, 7140240, Note_off_c, 2, 40, 0
2, 7140240, Note_on_c, 2, 37, 50
2, 7140600, Note_off_c, 2, 37, 0
2, 7140600, Note_on_c, 2, 40, 50
2, 7140720, Note_off_c, 2, 40, 0
2, 7140720, Note_on_c, 2, 33, 50
2, 7140840, Note_off_c, 2, 33, 0
2, 7141080, Note_on_c, 2, 33, 50
2, 7141200, Note_off_c, 2, 33, 0
2, 7141200, Note_on_c, 2, 36, 50
2, 7141560, Note_off_c, 2, 36, 0
2, 7141560, Note_on_c, 2, 37, 50
2, 7141800, Note_off_c, 2, 37, 0
2, 7142040, Note_on_c, 2, 40, 50
2, 7142160, Note_off_c, 2, 40, 0
2, 7142160, Note_on_c, 2, 37, 50
2, 7142520, Note_off_c, 2, 37, 0
2, 7142520, Note_on_c, 2, 40, 50
2, 7142640, Note_off_c, 2, 40, 0
2, 7142640, Note_on_c, 2, 33, 50
2, 7142760, Note_off_c, 2, 33, 0
2, 7143000, Note_on_c, 2, 33, 50
2, 7143120, Note_off_c, 2, 33, 0
2, 7143120, Note_on_c, 2, 35, 50
2, 7143240, Note_off_c, 2, 35, 0
2, 7143480, Note_on_c, 2, 35, 50
2, 7143600, Note_off_c, 2, 35, 0
2, 7143600, Note_on_c, 2, 36, 50
2, 7143720, Note_off_c, 2, 36, 0
2, 7143960, Note_on_c, 2, 36, 50
2, 7144080, Note_off_c, 2, 36, 0
2, 7144080, Note_on_c, 2, 37, 50
2, 7144200, Note_off_c, 2, 37, 0
2, 7144440, Note_on_c, 2, 37, 50
2, 7144560, Note_off_c, 2, 37, 0
2, 7144560, Note_on_c, 2, 38, 50
2, 7144800, Note_off_c, 2, 38, 0
2, 7144920, Note_on_c, 2, 38, 50
2, 7145040, Note_off_c, 2, 38, 0
2, 7145040, Note_on_c, 2, 41, 50
2, 7145400, Note_off_c, 2, 41, 0
2, 7145400, Note_on_c, 2, 42, 50
2, 7145520, Note_off_c, 2, 42, 0
2, 7145520, Note_on_c, 2, 45, 50
2, 7145640, Note_off_c, 2, 45, 0
2, 7145880, Note_on_c, 2, 45, 50
2, 7146000, Note_off_c, 2, 45, 0
2, 7146000, Note_on_c, 2, 42, 50
2, 7146360, Note_off_c, 2, 42, 0
2, 7146360, Note_on_c, 2, 45, 50
2, 7146480, Note_off_c, 2, 45, 0
2, 7146480, Note_on_c, 2, 38, 50
2, 7146600, Note_off_c, 2, 38, 0
2, 7146840, Note_on_c, 2, 38, 50
2, 7146960, Note_off_c, 2, 38, 0
2, 7146960, Note_on_c, 2, 41, 50
2, 7147320, Note_off_c, 2, 41, 0
2, 7147320, Note_on_c, 2, 42, 50
2, 7147560, Note_off_c, 2, 42, 0
2, 7147560, Note_on_c, 2, 45, 50
2, 7147800, Note_off_c, 2, 45, 0
2, 7147800, Note_on_c, 2, 45, 50
2, 7147920, Note_off_c, 2, 45, 0
2, 7147920, Note_on_c, 2, 42, 50
2, 7148280, Note_off_c, 2, 42, 0
2, 7148280, Note_on_c, 2, 45, 50
2, 7148400, Note_off_c, 2, 45, 0
2, 7148400, Note_on_c, 2, 33, 50
2, 7148520, Note_off_c, 2, 33, 0
2, 7148760, Note_on_c, 2, 33, 50
2, 7148880, Note_off_c, 2, 33, 0
2, 7148880, Note_on_c, 2, 36, 50
2, 7149240, Note_off_c, 2, 36, 0
2, 7149240, Note_on_c, 2, 37, 50
2, 7149480, Note_off_c, 2, 37, 0
2, 7149720, Note_on_c, 2, 40, 50
2, 7149840, Note_off_c, 2, 40, 0
2, 7149840, Note_on_c, 2, 37, 50
2, 7150080, Note_off_c, 2, 37, 0
2, 7150200, Note_on_c, 2, 40, 50
2, 7150320, Note_off_c, 2, 40, 0
2, 7150320, Note_on_c, 2, 33, 50
2, 7150440, Note_off_c, 2, 33, 0
2, 7150680, Note_on_c, 2, 33, 50
2, 7150800, Note_off_c, 2, 33, 0
2, 7150800, Note_on_c, 2, 36, 50
2, 7151160, Note_off_c, 2, 36, 0
2, 7151160, Note_on_c, 2, 37, 50
2, 7151400, Note_off_c, 2, 37, 0
2, 7151640, Note_on_c, 2, 40, 50
2, 7151880, Note_off_c, 2, 40, 0
2, 7152120, Note_on_c, 2, 40, 50
2, 7152240, Note_off_c, 2, 40, 0
2, 7152240, Note_on_c, 2, 40, 50
2, 7152360, Note_off_c, 2, 40, 0
2, 7152600, Note_on_c, 2, 40, 50
2, 7152720, Note_off_c, 2, 40, 0
2, 7152720, Note_on_c, 2, 43, 50
2, 7153080, Note_off_c, 2, 43, 0
2, 7153080, Note_on_c, 2, 44, 50
2, 7153200, Note_off_c, 2, 44, 0
2, 7153200, Note_on_c, 2, 47, 50
2, 7153320, Note_off_c, 2, 47, 0
2, 7153560, Note_on_c, 2, 47, 50
2, 7153680, Note_off_c, 2, 47, 0
2, 7153680, Note_on_c, 2, 44, 50
2, 7154040, Note_off_c, 2, 44, 0
2, 7154040, Note_on_c, 2, 47, 50
2, 7154160, Note_off_c, 2, 47, 0
2, 7154160, Note_on_c, 2, 38, 50
2, 7154280, Note_off_c, 2, 38, 0
2, 7154520, Note_on_c, 2, 38, 50
2, 7154640, Note_off_c, 2, 38, 0
2, 7154640, Note_on_c, 2, 41, 50
2, 7155000, Note_off_c, 2, 41, 0
2, 7155000, Note_on_c, 2, 42, 50
2, 7155120, Note_off_c, 2, 42, 0
2, 7155120, Note_on_c, 2, 45, 50
2, 7155240, Note_off_c, 2, 45, 0
2, 7155480, Note_on_c, 2, 45, 50
2, 7155600, Note_off_c, 2, 45, 0
2, 7155600, Note_on_c, 2, 42, 50
2, 7155840, Note_off_c, 2, 42, 0
2, 7155960, Note_on_c, 2, 45, 50
2, 7156080, Note_off_c, 2, 45, 0
2, 7156080, Note_on_c, 2, 33, 50
2, 7156200, Note_off_c, 2, 33, 0
2, 7156440, Note_on_c, 2, 33, 50
2, 7156560, Note_off_c, 2, 33, 0
2, 7156560, Note_on_c, 2, 36, 50
2, 7156920, Note_off_c, 2, 36, 0
2, 7156920, Note_on_c, 2, 37, 50
2, 7157040, Note_off_c, 2, 37, 0
2, 7157040, Note_on_c, 2, 40, 50
2, 7157160, Note_off_c, 2, 40, 0
2, 7157400, Note_on_c, 2, 40, 50
2, 7157520, Note_off_c, 2, 40, 0
2, 7157520, Note_on_c, 2, 37, 50
2, 7157880, Note_off_c, 2, 37, 0
2, 7157880, Note_on_c, 2, 40, 50
2, 7158120, Note_off_c, 2, 40, 0
2, 7158360, Note_on_c, 2, 33, 50
2, 7158480, Note_off_c, 2, 33, 0
2, 7158480, Note_on_c, 2, 28, 50
2, 7158600, Note_off_c, 2, 28, 0
2, 7158840, Note_on_c, 2, 29, 50
2, 7158960, Note_off_c, 2, 29, 0
2, 7158960, Note_on_c, 2, 30, 50
2, 7159080, Note_off_c, 2, 30, 0
2, 7159320, Note_on_c, 2, 30, 50
2, 7159440, Note_off_c, 2, 30, 0
2, 7159440, Note_on_c, 2, 32, 50
2, 7159680, Note_off_c, 2, 32, 0
2, 7159800, Note_on_c, 2, 32, 50
2, 7159920, Note_off_c, 2, 32, 0
2, 7159920, Note_on_c, 2, 33, 50
2, 7160040, Note_off_c, 2, 33, 0
2, 7160280, Note_on_c, 2, 33, 50
2, 7160400, Note_off_c, 2, 33, 0
2, 7160400, Note_on_c, 2, 36, 50
2, 7160760, Note_off_c, 2, 36, 0
2, 7160760, Note_on_c, 2, 37, 50
2, 7161000, Note_off_c, 2, 37, 0
2, 7161240, Note_on_c, 2, 40, 50
2, 7161360, Note_off_c, 2, 40, 0
2, 7161360, Note_on_c, 2, 37, 50
2, 7161720, Note_off_c, 2, 37, 0
2, 7161720, Note_on_c, 2, 40, 50
2, 7161840, Note_off_c, 2, 40, 0
2, 7161840, Note_on_c, 2, 33, 50
2, 7161960, Note_off_c, 2, 33, 0
2, 7162200, Note_on_c, 2, 33, 50
2, 7162320, Note_off_c, 2, 33, 0
2, 7162320, Note_on_c, 2, 36, 50
2, 7162680, Note_off_c, 2, 36, 0
2, 7162680, Note_on_c, 2, 37, 50
2, 7162800, Note_off_c, 2, 37, 0
2, 7162800, Note_on_c, 2, 40, 50
2, 7162920, Note_off_c, 2, 40, 0
2, 7163160, Note_on_c, 2, 40, 50
2, 7163280, Note_off_c, 2, 40, 0
2, 7163280, Note_on_c, 2, 37, 50
2, 7163640, Note_off_c, 2, 37, 0
2, 7163640, Note_on_c, 2, 40, 50
2, 7163760, Note_off_c, 2, 40, 0
2, 7163760, Note_on_c, 2, 33, 50
2, 7163880, Note_off_c, 2, 33, 0
2, 7164120, Note_on_c, 2, 33, 50
2, 7164240, Note_off_c, 2, 33, 0
2, 7164240, Note_on_c, 2, 36, 50
2, 7164600, Note_off_c, 2, 36, 0
2, 7164600, Note_on_c, 2, 37, 50
2, 7164840, Note_off_c, 2, 37, 0
2, 7165080, Note_on_c, 2, 40, 50
2, 7165200, Note_off_c, 2, 40, 0
2, 7165200, Note_on_c, 2, 37, 50
2, 7165560, Note_off_c, 2, 37, 0
2, 7165560, Note_on_c, 2, 40, 50
2, 7165680, Note_off_c, 2, 40, 0
2, 7165680, Note_on_c, 2, 33, 50
2, 7165800, Note_off_c, 2, 33, 0
2, 7166040, Note_on_c, 2, 33, 50
2, 7166160, Note_off_c, 2, 33, 0
2, 7166160, Note_on_c, 2, 35, 50
2, 7166280, Note_off_c, 2, 35, 0
2, 7166520, Note_on_c, 2, 35, 50
2, 7166640, Note_off_c, 2, 35, 0
2, 7166640, Note_on_c, 2, 36, 50
2, 7166760, Note_off_c, 2, 36, 0
2, 7167000, Note_on_c, 2, 36, 50
2, 7167120, Note_off_c, 2, 36, 0
2, 7167120, Note_on_c, 2, 37, 50
2, 7167240, Note_off_c, 2, 37, 0
2, 7167480, Note_on_c, 2, 37, 50
2, 7167600, Note_off_c, 2, 37, 0
2, 7167600, Note_on_c, 2, 38, 50
2, 7167840, Note_off_c, 2, 38, 0
2, 7167960, Note_on_c, 2, 38, 50
2, 7168080, Note_off_c, 2, 38, 0
2, 7168080, Note_on_c, 2, 41, 50
2, 7168440, Note_off_c, 2, 41, 0
2, 7168440, Note_on_c, 2, 42, 50
2, 7168560, Note_off_c, 2, 42, 0
2, 7168560, Note_on_c, 2, 45, 50
2, 7168680, Note_off_c, 2, 45, 0
2, 7168920, Note_on_c, 2, 45, 50
2, 7169040, Note_off_c, 2, 45, 0
2, 7169040, Note_on_c, 2, 42, 50
2, 7169280, Note_off_c, 2, 42, 0
2, 7169400, Note_on_c, 2, 45, 50
2, 7169520, Note_off_c, 2, 45, 0
2, 7169520, Note_on_c, 2, 38, 50
2, 7169640, Note_off_c, 2, 38, 0
2, 7169880, Note_on_c, 2, 38, 50
2, 7170000, Note_off_c, 2, 38, 0
2, 7170000, Note_on_c, 2, 41, 50
2, 7170360, Note_off_c, 2, 41, 0
2, 7170360, Note_on_c, 2, 42, 50
2, 7170600, Note_off_c, 2, 42, 0
2, 7170600, Note_on_c, 2, 45, 50
2, 7170840, Note_off_c, 2, 45, 0
2, 7170840, Note_on_c, 2, 45, 50
2, 7170960, Note_off_c, 2, 45, 0
2, 7170960, Note_on_c, 2, 42, 50
2, 7171320, Note_off_c, 2, 42, 0
2, 7171320, Note_on_c, 2, 45, 50
2, 7171440, Note_off_c, 2, 45, 0
2, 7171440, Note_on_c, 2, 33, 50
2, 7171560, Note_off_c, 2, 33, 0
2, 7171800, Note_on_c, 2, 33, 50
2, 7171920, Note_off_c, 2, 33, 0
2, 7171920, Note_on_c, 2, 36, 50
2, 7172280, Note_off_c, 2, 36, 0
2, 7172280, Note_on_c, 2, 37, 50
2, 7172520, Note_off_c, 2, 37, 0
2, 7172760, Note_on_c, 2, 40, 50
2, 7172880, Note_off_c, 2, 40, 0
2, 7172880, Note_on_c, 2, 37, 50
2, 7173120, Note_off_c, 2, 37, 0
2, 7173240, Note_on_c, 2, 40, 50
2, 7173360, Note_off_c, 2, 40, 0
2, 7173360, Note_on_c, 2, 33, 50
2, 7173480, Note_off_c, 2, 33, 0
2, 7173720, Note_on_c, 2, 33, 50
2, 7173840, Note_off_c, 2, 33, 0
2, 7173840, Note_on_c, 2, 36, 50
2, 7174200, Note_off_c, 2, 36, 0
2, 7174200, Note_on_c, 2, 37, 50
2, 7174440, Note_off_c, 2, 37, 0
2, 7174680, Note_on_c, 2, 40, 50
2, 7174920, Note_off_c, 2, 40, 0
2, 7175160, Note_on_c, 2, 40, 50
2, 7175280, Note_off_c, 2, 40, 0
2, 7175280, Note_on_c, 2, 40, 50
2, 7175400, Note_off_c, 2, 40, 0
2, 7175640, Note_on_c, 2, 40, 50
2, 7175760, Note_off_c, 2, 40, 0
2, 7175760, Note_on_c, 2, 43, 50
2, 7176120, Note_off_c, 2, 43, 0
2, 7176120, Note_on_c, 2, 44, 50
2, 7176240, Note_off_c, 2, 44, 0
2, 7176240, Note_on_c, 2, 47, 50
2, 7176360, Note_off_c, 2, 47, 0
2, 7176600, Note_on_c, 2, 47, 50
2, 7176720, Note_off_c, 2, 47, 0
2, 7176720, Note_on_c, 2, 44, 50
2, 7177080, Note_off_c, 2, 44, 0
2, 7177080, Note_on_c, 2, 47, 50
2, 7177200, Note_off_c, 2, 47, 0
2, 7177200, Note_on_c, 2, 38, 50
2, 7177320, Note_off_c, 2, 38, 0
2, 7177560, Note_on_c, 2, 38, 50
2, 7177680, Note_off_c, 2, 38, 0
2, 7177680, Note_on_c, 2, 41, 50
2, 7178040, Note_off_c, 2, 41, 0
2, 7178040, Note_on_c, 2, 42, 50
2, 7178160, Note_off_c, 2, 42, 0
2, 7178160, Note_on_c, 2, 45, 50
2, 7178280, Note_off_c, 2, 45, 0
2, 7178520, Note_on_c, 2, 45, 50
2, 7178640, Note_off_c, 2, 45, 0
2, 7178640, Note_on_c, 2, 42, 50
2, 7178880, Note_off_c, 2, 42, 0
2, 7179000, Note_on_c, 2, 45, 50
2, 7179120, Note_off_c, 2, 45, 0
2, 7179120, Note_on_c, 2, 33, 50
2, 7179240, Note_off_c, 2, 33, 0
2, 7179480, Note_on_c, 2, 33, 50
2, 7179600, Note_off_c, 2, 33, 0
2, 7179600, Note_on_c, 2, 36, 50
2, 7179960, Note_off_c, 2, 36, 0
2, 7179960, Note_on_c, 2, 37, 50
2, 7180080, Note_off_c, 2, 37, 0
2, 7180080, Note_on_c, 2, 40, 50
2, 7180200, Note_off_c, 2, 40, 0
2, 7180440, Note_on_c, 2, 40, 50
2, 7180560, Note_off_c, 2, 40, 0
2, 7180560, Note_on_c, 2, 37, 50
2, 7180920, Note_off_c, 2, 37, 0
2, 7180920, Note_on_c, 2, 40, 50
2, 7181040, Note_off_c, 2, 40, 0
2, 7181040, Note_on_c, 2, 33, 50
2, 7181160, Note_off_c, 2, 33, 0
2, 7181400, Note_on_c, 2, 33, 50
2, 7181520, Note_off_c, 2, 33, 0
2, 7181520, Note_on_c, 2, 28, 50
2, 7181640, Note_off_c, 2, 28, 0
2, 7181880, Note_on_c, 2, 29, 50
2, 7182000, Note_off_c, 2, 29, 0
2, 7182000, Note_on_c, 2, 30, 50
2, 7182120, Note_off_c, 2, 30, 0
2, 7182360, Note_on_c, 2, 30, 50
2, 7182480, Note_off_c, 2, 30, 0
2, 7182480, Note_on_c, 2, 32, 50
2, 7182720, Note_off_c, 2, 32, 0
2, 7182840, Note_on_c, 2, 32, 50
2, 7182960, Note_off_c, 2, 32, 0
2, 7182960, Note_on_c, 2, 33, 50
2, 7183080, Note_off_c, 2, 33, 0
2, 7183320, Note_on_c, 2, 33, 50
2, 7183440, Note_off_c, 2, 33, 0
2, 7183440, Note_on_c, 2, 36, 50
2, 7183800, Note_off_c, 2, 36, 0
2, 7183800, Note_on_c, 2, 37, 50
2, 7184040, Note_off_c, 2, 37, 0
2, 7184280, Note_on_c, 2, 40, 50
2, 7184400, Note_off_c, 2, 40, 0
2, 7184400, Note_on_c, 2, 37, 50
2, 7184760, Note_off_c, 2, 37, 0
2, 7184760, Note_on_c, 2, 40, 50
2, 7184880, Note_off_c, 2, 40, 0
2, 7184880, Note_on_c, 2, 33, 50
2, 7185000, Note_off_c, 2, 33, 0
2, 7185240, Note_on_c, 2, 33, 50
2, 7185360, Note_off_c, 2, 33, 0
2, 7185360, Note_on_c, 2, 36, 50
2, 7185720, Note_off_c, 2, 36, 0
2, 7185720, Note_on_c, 2, 37, 50
2, 7185840, Note_off_c, 2, 37, 0
2, 7185840, Note_on_c, 2, 40, 50
2, 7185960, Note_off_c, 2, 40, 0
2, 7186200, Note_on_c, 2, 40, 50
2, 7186320, Note_off_c, 2, 40, 0
2, 7186320, Note_on_c, 2, 37, 50
2, 7186680, Note_off_c, 2, 37, 0
2, 7186680, Note_on_c, 2, 40, 50
2, 7186800, Note_off_c, 2, 40, 0
2, 7186800, Note_on_c, 2, 33, 50
2, 7186920, Note_off_c, 2, 33, 0
2, 7187160, Note_on_c, 2, 33, 50
2, 7187280, Note_off_c, 2, 33, 0
2, 7187280, Note_on_c, 2, 36, 50
2, 7187640, Note_off_c, 2, 36, 0
2, 7187640, Note_on_c, 2, 37, 50
2, 7187880, Note_off_c, 2, 37, 0
2, 7188120, Note_on_c, 2, 40, 50
2, 7188240, Note_off_c, 2, 40, 0
2, 7188240, Note_on_c, 2, 37, 50
2, 7188600, Note_off_c, 2, 37, 0
2, 7188600, Note_on_c, 2, 40, 50
2, 7188720, Note_off_c, 2, 40, 0
2, 7188720, Note_on_c, 2, 33, 50
2, 7188840, Note_off_c, 2, 33, 0
2, 7189080, Note_on_c, 2, 33, 50
2, 7189200, Note_off_c, 2, 33, 0
2, 7189200, Note_on_c, 2, 35, 50
2, 7189320, Note_off_c, 2, 35, 0
2, 7189560, Note_on_c, 2, 35, 50
2, 7189680, Note_off_c, 2, 35, 0
2, 7189680, Note_on_c, 2, 36, 50
2, 7189800, Note_off_c, 2, 36, 0
2, 7190040, Note_on_c, 2, 36, 50
2, 7190160, Note_off_c, 2, 36, 0
2, 7190160, Note_on_c, 2, 37, 50
2, 7190280, Note_off_c, 2, 37, 0
2, 7190520, Note_on_c, 2, 37, 50
2, 7190640, Note_off_c, 2, 37, 0
2, 7190640, Note_on_c, 2, 38, 50
2, 7190880, Note_off_c, 2, 38, 0
2, 7191000, Note_on_c, 2, 38, 50
2, 7191120, Note_off_c, 2, 38, 0
2, 7191120, Note_on_c, 2, 41, 50
2, 7191480, Note_off_c, 2, 41, 0
2, 7191480, Note_on_c, 2, 42, 50
2, 7191600, Note_off_c, 2, 42, 0
2, 7191600, Note_on_c, 2, 45, 50
2, 7191720, Note_off_c, 2, 45, 0
2, 7191960, Note_on_c, 2, 45, 50
2, 7192080, Note_off_c, 2, 45, 0
2, 7192080, Note_on_c, 2, 42, 50
2, 7192440, Note_off_c, 2, 42, 0
2, 7192440, Note_on_c, 2, 45, 50
2, 7192560, Note_off_c, 2, 45, 0
2, 7192560, Note_on_c, 2, 38, 50
2, 7192680, Note_off_c, 2, 38, 0
2, 7192920, Note_on_c, 2, 38, 50
2, 7193040, Note_off_c, 2, 38, 0
2, 7193040, Note_on_c, 2, 41, 50
2, 7193400, Note_off_c, 2, 41, 0
2, 7193400, Note_on_c, 2, 42, 50
2, 7193640, Note_off_c, 2, 42, 0
2, 7193640, Note_on_c, 2, 45, 50
2, 7193880, Note_off_c, 2, 45, 0
2, 7193880, Note_on_c, 2, 45, 50
2, 7194000, Note_off_c, 2, 45, 0
2, 7194000, Note_on_c, 2, 42, 50
2, 7194360, Note_off_c, 2, 42, 0
2, 7194360, Note_on_c, 2, 45, 50
2, 7194480, Note_off_c, 2, 45, 0
2, 7194480, Note_on_c, 2, 33, 50
2, 7194600, Note_off_c, 2, 33, 0
2, 7194840, Note_on_c, 2, 33, 50
2, 7194960, Note_off_c, 2, 33, 0
2, 7194960, Note_on_c, 2, 36, 50
2, 7195320, Note_off_c, 2, 36, 0
2, 7195320, Note_on_c, 2, 37, 50
2, 7195560, Note_off_c, 2, 37, 0
2, 7195800, Note_on_c, 2, 40, 50
2, 7195920, Note_off_c, 2, 40, 0
2, 7195920, Note_on_c, 2, 37, 50
2, 7196160, Note_off_c, 2, 37, 0
2, 7196280, Note_on_c, 2, 40, 50
2, 7196400, Note_off_c, 2, 40, 0
2, 7196400, Note_on_c, 2, 33, 50
2, 7196520, Note_off_c, 2, 33, 0
2, 7196760, Note_on_c, 2, 33, 50
2, 7196880, Note_off_c, 2, 33, 0
2, 7196880, Note_on_c, 2, 36, 50
2, 7197240, Note_off_c, 2, 36, 0
2, 7197240, Note_on_c, 2, 37, 50
2, 7197480, Note_off_c, 2, 37, 0
2, 7197720, Note_on_c, 2, 40, 50
2, 7197960, Note_off_c, 2, 40, 0
2, 7198200, Note_on_c, 2, 40, 50
2, 7198320, Note_off_c, 2, 40, 0
2, 7198320, Note_on_c, 2, 40, 50
2, 7198440, Note_off_c, 2, 40, 0
2, 7198680, Note_on_c, 2, 40, 50
2, 7198800, Note_off_c, 2, 40, 0
2, 7198800, Note_on_c, 2, 43, 50
2, 7199160, Note_off_c, 2, 43, 0
2, 7199160, Note_on_c, 2, 44, 50
2, 7199280, Note_off_c, 2, 44, 0
2, 7199280, Note_on_c, 2, 47, 50
2, 7199400, Note_off_c, 2, 47, 0
2, 7199640, Note_on_c, 2, 47, 50
2, 7199760, Note_off_c, 2, 47, 0
2, 7199760, Note_on_c, 2, 44, 50
2, 7200120, Note_off_c, 2, 44, 0
2, 7200120, Note_on_c, 2, 47, 50
2, 7200240, Note_off_c, 2, 47, 0
2, 7200240, Note_on_c, 2, 38, 50
2, 7200360, Note_off_c, 2, 38, 0
2, 7200600, Note_on_c, 2, 38, 50
2, 7200720, Note_off_c, 2, 38, 0
2, 7200720, Note_on_c, 2, 41, 50
2, 7201080, Note_off_c, 2, 41, 0
2, 7201080, Note_on_c, 2, 42, 50
2, 7201200, Note_off_c, 2, 42, 0
2, 7201200, Note_on_c, 2, 45, 50
2, 7201320, Note_off_c, 2, 45, 0
2, 7201560, Note_on_c, 2, 45, 50
2, 7201680, Note_off_c, 2, 45, 0
2, 7201680, Note_on_c, 2, 42, 50
2, 7201920, Note_off_c, 2, 42, 0
2, 7202040, Note_on_c, 2, 45, 50
2, 7202160, Note_off_c, 2, 45, 0
2, 7202160, Note_on_c, 2, 33, 50
2, 7202280, Note_off_c, 2, 33, 0
2, 7202520, Note_on_c, 2, 33, 50
2, 7202640, Note_off_c, 2, 33, 0
2, 7202640, Note_on_c, 2, 36, 50
2, 7203000, Note_off_c, 2, 36, 0
2, 7203000, Note_on_c, 2, 37, 50
2, 7203120, Note_off_c, 2, 37, 0
2, 7203120, Note_on_c, 2, 40, 50
2, 7203240, Note_off_c, 2, 40, 0
2, 7203480, Note_on_c, 2, 40, 50
2, 7203600, Note_off_c, 2, 40, 0
2, 7203600, Note_on_c, 2, 37, 50
2, 7203960, Note_off_c, 2, 37, 0
2, 7203960, Note_on_c, 2, 40, 50
2, 7204080, Note_off_c, 2, 40, 0
2, 7204080, Note_on_c, 2, 33, 50
2, 7204200, Note_off_c, 2, 33, 0
2, 7204440, Note_on_c, 2, 33, 50
2, 7204560, Note_off_c, 2, 33, 0
2, 7204560, Note_on_c, 2, 28, 50
2, 7204680, Note_off_c, 2, 28, 0
2, 7204920, Note_on_c, 2, 29, 50
2, 7205040, Note_off_c, 2, 29, 0
2, 7205040, Note_on_c, 2, 30, 50
2, 7205160, Note_off_c, 2, 30, 0
2, 7205400, Note_on_c, 2, 30, 50
2, 7205520, Note_off_c, 2, 30, 0
2, 7205520, Note_on_c, 2, 32, 50
2, 7205760, Note_off_c, 2, 32, 0
2, 7205880, Note_on_c, 2, 32, 50
2, 7206000, Note_off_c, 2, 32, 0
2, 7206000, Note_on_c, 2, 33, 50
2, 7206120, Note_off_c, 2, 33, 0
2, 7206360, Note_on_c, 2, 33, 50
2, 7206480, Note_off_c, 2, 33, 0
2, 7206480, Note_on_c, 2, 36, 50
2, 7206840, Note_off_c, 2, 36, 0
2, 7206840, Note_on_c, 2, 37, 50
2, 7207080, Note_off_c, 2, 37, 0
2, 7207320, Note_on_c, 2, 40, 50
2, 7207440, Note_off_c, 2, 40, 0
2, 7207440, Note_on_c, 2, 37, 50
2, 7207800, Note_off_c, 2, 37, 0
2, 7207800, Note_on_c, 2, 40, 50
2, 7207920, Note_off_c, 2, 40, 0
2, 7207920, Note_on_c, 2, 33, 50
2, 7208040, Note_off_c, 2, 33, 0
2, 7208280, Note_on_c, 2, 33, 50
2, 7208400, Note_off_c, 2, 33, 0
2, 7208400, Note_on_c, 2, 36, 50
2, 7208760, Note_off_c, 2, 36, 0
2, 7208760, Note_on_c, 2, 37, 50
2, 7208880, Note_off_c, 2, 37, 0
2, 7208880, Note_on_c, 2, 40, 50
2, 7209000, Note_off_c, 2, 40, 0
2, 7209240, Note_on_c, 2, 40, 50
2, 7209360, Note_off_c, 2, 40, 0
2, 7209360, Note_on_c, 2, 37, 50
2, 7209720, Note_off_c, 2, 37, 0
2, 7209720, Note_on_c, 2, 40, 50
2, 7209840, Note_off_c, 2, 40, 0
2, 7209840, Note_on_c, 2, 33, 50
2, 7209960, Note_off_c, 2, 33, 0
2, 7210200, Note_on_c, 2, 33, 50
2, 7210320, Note_off_c, 2, 33, 0
2, 7210320, Note_on_c, 2, 36, 50
2, 7210680, Note_off_c, 2, 36, 0
2, 7210680, Note_on_c, 2, 37, 50
2, 7210920, Note_off_c, 2, 37, 0
2, 7211160, Note_on_c, 2, 40, 50
2, 7211280, Note_off_c, 2, 40, 0
2, 7211280, Note_on_c, 2, 37, 50
2, 7211640, Note_off_c, 2, 37, 0
2, 7211640, Note_on_c, 2, 40, 50
2, 7211760, Note_off_c, 2, 40, 0
2, 7211760, Note_on_c, 2, 33, 50
2, 7211880, Note_off_c, 2, 33, 0
2, 7212120, Note_on_c, 2, 33, 50
2, 7212240, Note_off_c, 2, 33, 0
2, 7212240, Note_on_c, 2, 35, 50
2, 7212360, Note_off_c, 2, 35, 0
2, 7212600, Note_on_c, 2, 35, 50
2, 7212720, Note_off_c, 2, 35, 0
2, 7212720, Note_on_c, 2, 36, 50
2, 7212840, Note_off_c, 2, 36, 0
2, 7213080, Note_on_c, 2, 36, 50
2, 7213200, Note_off_c, 2, 36, 0
2, 7213200, Note_on_c, 2, 37, 50
2, 7213320, Note_off_c, 2, 37, 0
2, 7213560, Note_on_c, 2, 37, 50
2, 7213680, Note_off_c, 2, 37, 0
2, 7213680, Note_on_c, 2, 38, 50
2, 7213920, Note_off_c, 2, 38, 0
2, 7214040, Note_on_c, 2, 38, 50
2, 7214160, Note_off_c, 2, 38, 0
2, 7214160, Note_on_c, 2, 41, 50
2, 7214520, Note_off_c, 2, 41, 0
2, 7214520, Note_on_c, 2, 42, 50
2, 7214640, Note_off_c, 2, 42, 0
2, 7214640, Note_on_c, 2, 45, 50
2, 7214760, Note_off_c, 2, 45, 0
2, 7215000, Note_on_c, 2, 45, 50
2, 7215120, Note_off_c, 2, 45, 0
2, 7215120, Note_on_c, 2, 42, 50
2, 7215360, Note_off_c, 2, 42, 0
2, 7215480, Note_on_c, 2, 45, 50
2, 7215600, Note_off_c, 2, 45, 0
2, 7215600, Note_on_c, 2, 38, 50
2, 7215720, Note_off_c, 2, 38, 0
2, 7215960, Note_on_c, 2, 38, 50
2, 7216080, Note_off_c, 2, 38, 0
2, 7216080, Note_on_c, 2, 41, 50
2, 7216440, Note_off_c, 2, 41, 0
2, 7216440, Note_on_c, 2, 42, 50
2, 7216680, Note_off_c, 2, 42, 0
2, 7216680, Note_on_c, 2, 45, 50
2, 7216920, Note_off_c, 2, 45, 0
2, 7216920, Note_on_c, 2, 45, 50
2, 7217040, Note_off_c, 2, 45, 0
2, 7217040, Note_on_c, 2, 42, 50
2, 7217400, Note_off_c, 2, 42, 0
2, 7217400, Note_on_c, 2, 45, 50
2, 7217520, Note_off_c, 2, 45, 0
2, 7217520, Note_on_c, 2, 33, 50
2, 7217640, Note_off_c, 2, 33, 0
2, 7217880, Note_on_c, 2, 33, 50
2, 7218000, Note_off_c, 2, 33, 0
2, 7218000, Note_on_c, 2, 36, 50
2, 7218360, Note_off_c, 2, 36, 0
2, 7218360, Note_on_c, 2, 37, 50
2, 7218600, Note_off_c, 2, 37, 0
2, 7218840, Note_on_c, 2, 40, 50
2, 7218960, Note_off_c, 2, 40, 0
2, 7218960, Note_on_c, 2, 37, 50
2, 7219200, Note_off_c, 2, 37, 0
2, 7219320, Note_on_c, 2, 40, 50
2, 7219440, Note_off_c, 2, 40, 0
2, 7219440, Note_on_c, 2, 33, 50
2, 7219560, Note_off_c, 2, 33, 0
2, 7219800, Note_on_c, 2, 33, 50
2, 7219920, Note_off_c, 2, 33, 0
2, 7219920, Note_on_c, 2, 36, 50
2, 7220280, Note_off_c, 2, 36, 0
2, 7220280, Note_on_c, 2, 37, 50
2, 7220520, Note_off_c, 2, 37, 0
2, 7220760, Note_on_c, 2, 40, 50
2, 7221000, Note_off_c, 2, 40, 0
2, 7221240, Note_on_c, 2, 40, 50
2, 7221360, Note_off_c, 2, 40, 0
2, 7221360, Note_on_c, 2, 40, 50
2, 7221480, Note_off_c, 2, 40, 0
2, 7221720, Note_on_c, 2, 40, 50
2, 7221840, Note_off_c, 2, 40, 0
2, 7221840, Note_on_c, 2, 43, 50
2, 7222200, Note_off_c, 2, 43, 0
2, 7222200, Note_on_c, 2, 44, 50
2, 7222320, Note_off_c, 2, 44, 0
2, 7222320, Note_on_c, 2, 47, 50
2, 7222440, Note_off_c, 2, 47, 0
2, 7222680, Note_on_c, 2, 47, 50
2, 7222800, Note_off_c, 2, 47, 0
2, 7222800, Note_on_c, 2, 44, 50
2, 7223160, Note_off_c, 2, 44, 0
2, 7223160, Note_on_c, 2, 47, 50
2, 7223280, Note_off_c, 2, 47, 0
2, 7223280, Note_on_c, 2, 38, 50
2, 7223400, Note_off_c, 2, 38, 0
2, 7223640, Note_on_c, 2, 38, 50
2, 7223760, Note_off_c, 2, 38, 0
2, 7223760, Note_on_c, 2, 41, 50
2, 7224120, Note_off_c, 2, 41, 0
2, 7224120, Note_on_c, 2, 42, 50
2, 7224240, Note_off_c, 2, 42, 0
2, 7224240, Note_on_c, 2, 45, 50
2, 7224360, Note_off_c, 2, 45, 0
2, 7224600, Note_on_c, 2, 45, 50
2, 7224720, Note_off_c, 2, 45, 0
2, 7224720, Note_on_c, 2, 42, 50
2, 7224960, Note_off_c, 2, 42, 0
2, 7225080, Note_on_c, 2, 45, 50
2, 7225200, Note_off_c, 2, 45, 0
2, 7225200, Note_on_c, 2, 33, 50
2, 7225800, Note_off_c, 2, 33, 0
2, 7225800, Note_on_c, 2, 37, 50
2, 7226280, Note_off_c, 2, 37, 0
2, 7226280, Note_on_c, 2, 38, 50
2, 7226760, Note_off_c, 2, 38, 0
2, 7226760, Note_on_c, 2, 39, 50
2, 7227240, Note_off_c, 2, 39, 0
2, 7227240, Note_on_c, 2, 40, 50
2, 7227720, Note_off_c, 2, 40, 0
2, 7227720, Note_on_c, 2, 44, 50
2, 7227960, Note_off_c, 2, 44, 0
2, 7227960, Note_on_c, 2, 45, 50
2, 7228200, Note_off_c, 2, 45, 0
2, 7229040, Note_on_c, 2, 33, 50
2, 7230960, Note_off_c, 2, 33, 0
2, 7230960, Note_on_c, 2, 33, 50
2, 7232760, Note_off_c, 2, 33, 0
2, 7245360, Note_on_c, 2, 69, 50
2, 7246320, Note_off_c, 2, 69, 0
2, 7246320, Note_on_c, 2, 69, 50
2, 7247280, Note_off_c, 2, 69, 0
2, 7247760, Note_on_c, 2, 70, 50
2, 7248240, Note_off_c, 2, 70, 0
2, 7248240, Note_on_c, 2, 65, 50
2, 7249200, Note_off_c, 2, 65, 0
2, 7249200, Note_on_c, 2, 64, 50
2, 7249680, Note_off_c, 2, 64, 0
2, 7249680, Note_on_c, 2, 69, 50
2, 7250160, Note_off_c, 2, 69, 0
2, 7250160, Note_on_c, 2, 64, 50
2, 7250640, Note_off_c, 2, 64, 0
2, 7250640, Note_on_c, 2, 64, 50
2, 7251120, Note_off_c, 2, 64, 0
2, 7251120, Note_on_c, 2, 62, 50
2, 7251600, Note_off_c, 2, 62, 0
2, 7251600, Note_on_c, 2, 65, 50
2, 7252080, Note_off_c, 2, 65, 0
2, 7252080, Note_on_c, 2, 68, 50
2, 7252560, Note_off_c, 2, 68, 0
2, 7252560, Note_on_c, 2, 65, 50
2, 7253040, Note_off_c, 2, 65, 0
2, 7253040, Note_on_c, 2, 64, 50
2, 7254000, Note_off_c, 2, 64, 0
2, 7254000, Note_on_c, 2, 62, 50
2, 7254480, Note_off_c, 2, 62, 0
2, 7254480, Note_on_c, 2, 65, 50
2, 7254840, Note_off_c, 2, 65, 0
2, 7254840, Note_on_c, 2, 64, 50
2, 7256400, Note_off_c, 2, 64, 0
2, 7256880, Note_on_c, 2, 69, 50
2, 7257840, Note_off_c, 2, 69, 0
2, 7257840, Note_on_c, 2, 69, 50
2, 7258800, Note_off_c, 2, 69, 0
2, 7259280, Note_on_c, 2, 70, 50
2, 7259760, Note_off_c, 2, 70, 0
2, 7259760, Note_on_c, 2, 65, 50
2, 7260720, Note_off_c, 2, 65, 0
2, 7260720, Note_on_c, 2, 64, 50
2, 7261200, Note_off_c, 2, 64, 0
2, 7261200, Note_on_c, 2, 69, 50
2, 7261680, Note_off_c, 2, 69, 0
2, 7261680, Note_on_c, 2, 64, 50
2, 7262160, Note_off_c, 2, 64, 0
2, 7262160, Note_on_c, 2, 64, 50
2, 7262640, Note_off_c, 2, 64, 0
2, 7262640, Note_on_c, 2, 62, 50
2, 7263120, Note_off_c, 2, 62, 0
2, 7263120, Note_on_c, 2, 65, 50
2, 7263600, Note_off_c, 2, 65, 0
2, 7263600, Note_on_c, 2, 68, 50
2, 7264080, Note_off_c, 2, 68, 0
2, 7264080, Note_on_c, 2, 65, 50
2, 7264560, Note_off_c, 2, 65, 0
2, 7264560, Note_on_c, 2, 64, 50
2, 7265520, Note_off_c, 2, 64, 0
2, 7265520, Note_on_c, 2, 62, 50
2, 7265880, Note_off_c, 2, 62, 0
2, 7265880, Note_on_c, 2, 64, 50
2, 7266240, Note_off_c, 2, 64, 0
2, 7266240, Note_on_c, 2, 65, 50
2, 7266600, Note_off_c, 2, 65, 0
2, 7266600, Note_on_c, 2, 64, 50
2, 7268040, Note_off_c, 2, 64, 0
2, 7268280, Note_on_c, 2, 69, 50
2, 7268520, Note_off_c, 2, 69, 0
2, 7268520, Note_on_c, 2, 74, 50
2, 7268880, Note_off_c, 2, 74, 0
2, 7268880, Note_on_c, 2, 72, 50
2, 7269240, Note_off_c, 2, 72, 0
2, 7269480, Note_on_c, 2, 74, 50
2, 7269840, Note_off_c, 2, 74, 0
2, 7269840, Note_on_c, 2, 72, 50
2, 7270200, Note_off_c, 2, 72, 0
2, 7270440, Note_on_c, 2, 76, 50
2, 7270920, Note_off_c, 2, 76, 0
2, 7270920, Note_on_c, 2, 74, 50
2, 7271880, Note_off_c, 2, 74, 0
2, 7272720, Note_on_c, 2, 70, 50
2, 7273080, Note_off_c, 2, 70, 0
2, 7273080, Note_on_c, 2, 69, 50
2, 7273560, Note_off_c, 2, 69, 0
2, 7273560, Note_on_c, 2, 70, 50
2, 7273920, Note_off_c, 2, 70, 0
2, 7274160, Note_on_c, 2, 65, 50
2, 7275600, Note_off_c, 2, 65, 0
2, 7276440, Note_on_c, 2, 69, 50
2, 7276560, Note_off_c, 2, 69, 0
2, 7276560, Note_on_c, 2, 69, 50
2, 7276920, Note_off_c, 2, 69, 0
2, 7276920, Note_on_c, 2, 69, 50
2, 7277040, Note_off_c, 2, 69, 0
2, 7277040, Note_on_c, 2, 74, 50
2, 7277520, Note_off_c, 2, 74, 0
2, 7277520, Note_on_c, 2, 69, 50
2, 7277880, Note_off_c, 2, 69, 0
2, 7277880, Note_on_c, 2, 67, 50
2, 7278360, Note_off_c, 2, 67, 0
2, 7278360, Note_on_c, 2, 65, 50
2, 7278960, Note_off_c, 2, 65, 0
2, 7279320, Note_on_c, 2, 65, 50
2, 7279440, Note_off_c, 2, 65, 0
2, 7279440, Note_on_c, 2, 67, 50
2, 7279920, Note_off_c, 2, 67, 0
2, 7279920, Note_on_c, 2, 69, 50
2, 7280400, Note_off_c, 2, 69, 0
2, 7280400, Note_on_c, 2, 69, 50
2, 7280880, Note_off_c, 2, 69, 0
2, 7280880, Note_on_c, 2, 69, 50
2, 7281360, Note_off_c, 2, 69, 0
2, 7281360, Note_on_c, 2, 69, 50
2, 7281840, Note_off_c, 2, 69, 0
2, 7281840, Note_on_c, 2, 69, 50
2, 7282320, Note_off_c, 2, 69, 0
2, 7282320, Note_on_c, 2, 69, 50
2, 7282800, Note_off_c, 2, 69, 0
2, 7282800, Note_on_c, 2, 69, 50
2, 7283280, Note_off_c, 2, 69, 0
2, 7283280, Note_on_c, 2, 69, 50
2, 7283760, Note_off_c, 2, 69, 0
2, 7283760, Note_on_c, 2, 69, 50
2, 7284720, Note_off_c, 2, 69, 0
2, 7284720, Note_on_c, 2, 67, 50
2, 7285200, Note_off_c, 2, 67, 0
2, 7285200, Note_on_c, 2, 65, 50
2, 7285680, Note_off_c, 2, 65, 0
2, 7285680, Note_on_c, 2, 64, 50
2, 7287120, Note_off_c, 2, 64, 0
2, 7287600, Note_on_c, 2, 69, 50
2, 7288560, Note_off_c, 2, 69, 0
2, 7288560, Note_on_c, 2, 69, 50
2, 7289520, Note_off_c, 2, 69, 0
2, 7290000, Note_on_c, 2, 70, 50
2, 7290480, Note_off_c, 2, 70, 0
2, 7290480, Note_on_c, 2, 65, 50
2, 7291440, Note_off_c, 2, 65, 0
2, 7291440, Note_on_c, 2, 64, 50
2, 7291920, Note_off_c, 2, 64, 0
2, 7291920, Note_on_c, 2, 69, 50
2, 7292400, Note_off_c, 2, 69, 0
2, 7292400, Note_on_c, 2, 64, 50
2, 7292880, Note_off_c, 2, 64, 0
2, 7292880, Note_on_c, 2, 64, 50
2, 7293360, Note_off_c, 2, 64, 0
2, 7293360, Note_on_c, 2, 62, 50
2, 7293840, Note_off_c, 2, 62, 0
2, 7293840, Note_on_c, 2, 65, 50
2, 7294320, Note_off_c, 2, 65, 0
2, 7294320, Note_on_c, 2, 68, 50
2, 7294800, Note_off_c, 2, 68, 0
2, 7294800, Note_on_c, 2, 65, 50
2, 7295280, Note_off_c, 2, 65, 0
2, 7295280, Note_on_c, 2, 64, 50
2, 7296240, Note_off_c, 2, 64, 0
2, 7296240, Note_on_c, 2, 62, 50
2, 7296600, Note_off_c, 2, 62, 0
2, 7296600, Note_on_c, 2, 64, 50
2, 7296960, Note_off_c, 2, 64, 0
2, 7296960, Note_on_c, 2, 65, 50
2, 7297320, Note_off_c, 2, 65, 0
2, 7297320, Note_on_c, 2, 64, 50
2, 7298760, Note_off_c, 2, 64, 0
2, 7299000, Note_on_c, 2, 69, 50
2, 7299240, Note_off_c, 2, 69, 0
2, 7299240, Note_on_c, 2, 74, 50
2, 7299600, Note_off_c, 2, 74, 0
2, 7299600, Note_on_c, 2, 72, 50
2, 7299960, Note_off_c, 2, 72, 0
2, 7300200, Note_on_c, 2, 74, 50
2, 7300560, Note_off_c, 2, 74, 0
2, 7300560, Note_on_c, 2, 72, 50
2, 7300920, Note_off_c, 2, 72, 0
2, 7301160, Note_on_c, 2, 76, 50
2, 7301880, Note_off_c, 2, 76, 0
2, 7301880, Note_on_c, 2, 76, 50
2, 7302000, Note_off_c, 2, 76, 0
2, 7302000, Note_on_c, 2, 74, 50
2, 7302480, Note_off_c, 2, 74, 0
2, 7303320, Note_on_c, 2, 69, 50
2, 7303440, Note_off_c, 2, 69, 0
2, 7303440, Note_on_c, 2, 70, 50
2, 7303800, Note_off_c, 2, 70, 0
2, 7303800, Note_on_c, 2, 69, 50
2, 7304280, Note_off_c, 2, 69, 0
2, 7304280, Note_on_c, 2, 70, 50
2, 7304640, Note_off_c, 2, 70, 0
2, 7304880, Note_on_c, 2, 65, 50
2, 7306320, Note_off_c, 2, 65, 0
2, 7307160, Note_on_c, 2, 69, 50
2, 7307280, Note_off_c, 2, 69, 0
2, 7307280, Note_on_c, 2, 69, 50
2, 7307640, Note_off_c, 2, 69, 0
2, 7307640, Note_on_c, 2, 69, 50
2, 7307760, Note_off_c, 2, 69, 0
2, 7307760, Note_on_c, 2, 74, 50
2, 7308240, Note_off_c, 2, 74, 0
2, 7308240, Note_on_c, 2, 69, 50
2, 7308600, Note_off_c, 2, 69, 0
2, 7308600, Note_on_c, 2, 67, 50
2, 7309080, Note_off_c, 2, 67, 0
2, 7309080, Note_on_c, 2, 65, 50
2, 7309680, Note_off_c, 2, 65, 0
2, 7310040, Note_on_c, 2, 65, 50
2, 7310160, Note_off_c, 2, 65, 0
2, 7310160, Note_on_c, 2, 67, 50
2, 7310640, Note_off_c, 2, 67, 0
2, 7310640, Note_on_c, 2, 69, 50
2, 7311120, Note_off_c, 2, 69, 0
2, 7311120, Note_on_c, 2, 69, 50
2, 7311600, Note_off_c, 2, 69, 0
2, 7311600, Note_on_c, 2, 69, 50
2, 7312080, Note_off_c, 2, 69, 0
2, 7312080, Note_on_c, 2, 69, 50
2, 7312560, Note_off_c, 2, 69, 0
2, 7312560, Note_on_c, 2, 69, 50
2, 7313040, Note_off_c, 2, 69, 0
2, 7313040, Note_on_c, 2, 69, 50
2, 7313520, Note_off_c, 2, 69, 0
2, 7313520, Note_on_c, 2, 69, 50
2, 7314000, Note_off_c, 2, 69, 0
2, 7314000, Note_on_c, 2, 69, 50
2, 7314480, Note_off_c, 2, 69, 0
2, 7314480, Note_on_c, 2, 69, 50
2, 7315440, Note_off_c, 2, 69, 0
2, 7315440, Note_on_c, 2, 67, 50
2, 7315920, Note_off_c, 2, 67, 0
2, 7315920, Note_on_c, 2, 65, 50
2, 7316400, Note_off_c, 2, 65, 0
2, 7316400, Note_on_c, 2, 64, 50
2, 7317840, Note_off_c, 2, 64, 0
2, 7318680, Note_on_c, 2, 67, 50
2, 7319160, Note_off_c, 2, 67, 0
2, 7319160, Note_on_c, 2, 72, 50
2, 7319640, Note_off_c, 2, 72, 0
2, 7319640, Note_on_c, 2, 74, 50
2, 7321560, Note_off_c, 2, 74, 0
2, 7321560, Note_on_c, 2, 74, 50
2, 7322160, Note_off_c, 2, 74, 0
2, 7322160, Note_on_c, 2, 72, 50
2, 7323600, Note_off_c, 2, 72, 0
2, 7329600, Note_on_c, 2, 69, 50
2, 7329840, Note_off_c, 2, 69, 0
2, 7329840, Note_on_c, 2, 74, 50
2, 7330200, Note_off_c, 2, 74, 0
2, 7330200, Note_on_c, 2, 72, 50
2, 7330560, Note_off_c, 2, 72, 0
2, 7330800, Note_on_c, 2, 74, 50
2, 7331160, Note_off_c, 2, 74, 0
2, 7331160, Note_on_c, 2, 72, 50
2, 7331520, Note_off_c, 2, 72, 0
2, 7331760, Note_on_c, 2, 76, 50
2, 7332480, Note_off_c, 2, 76, 0
2, 7332480, Note_on_c, 2, 77, 50
2, 7332600, Note_off_c, 2, 77, 0
2, 7332600, Note_on_c, 2, 76, 50
2, 7332720, Note_off_c, 2, 76, 0
2, 7332720, Note_on_c, 2, 74, 50
2, 7333200, Note_off_c, 2, 74, 0
2, 7334040, Note_on_c, 2, 69, 50
2, 7334160, Note_off_c, 2, 69, 0
2, 7334160, Note_on_c, 2, 70, 50
2, 7334520, Note_off_c, 2, 70, 0
2, 7334520, Note_on_c, 2, 69, 50
2, 7335000, Note_off_c, 2, 69, 0
2, 7335000, Note_on_c, 2, 70, 50
2, 7335360, Note_off_c, 2, 70, 0
2, 7335600, Note_on_c, 2, 65, 50
2, 7337040, Note_off_c, 2, 65, 0
2, 7337880, Note_on_c, 2, 69, 50
2, 7338000, Note_off_c, 2, 69, 0
2, 7338000, Note_on_c, 2, 69, 50
2, 7338360, Note_off_c, 2, 69, 0
2, 7338360, Note_on_c, 2, 69, 50
2, 7338480, Note_off_c, 2, 69, 0
2, 7338480, Note_on_c, 2, 74, 50
2, 7338960, Note_off_c, 2, 74, 0
2, 7338960, Note_on_c, 2, 69, 50
2, 7339320, Note_off_c, 2, 69, 0
2, 7339320, Note_on_c, 2, 67, 50
2, 7339800, Note_off_c, 2, 67, 0
2, 7339800, Note_on_c, 2, 65, 50
2, 7340400, Note_off_c, 2, 65, 0
2, 7340760, Note_on_c, 2, 65, 50
2, 7340880, Note_off_c, 2, 65, 0
2, 7340880, Note_on_c, 2, 67, 50
2, 7341360, Note_off_c, 2, 67, 0
2, 7341360, Note_on_c, 2, 69, 50
2, 7341840, Note_off_c, 2, 69, 0
2, 7341840, Note_on_c, 2, 69, 50
2, 7342320, Note_off_c, 2, 69, 0
2, 7342320, Note_on_c, 2, 69, 50
2, 7342800, Note_off_c, 2, 69, 0
2, 7342800, Note_on_c, 2, 69, 50
2, 7343280, Note_off_c, 2, 69, 0
2, 7343280, Note_on_c, 2, 69, 50
2, 7343760, Note_off_c, 2, 69, 0
2, 7343760, Note_on_c, 2, 69, 50
2, 7344240, Note_off_c, 2, 69, 0
2, 7344240, Note_on_c, 2, 69, 50
2, 7344720, Note_off_c, 2, 69, 0
2, 7344720, Note_on_c, 2, 69, 50
2, 7345200, Note_off_c, 2, 69, 0
2, 7345200, Note_on_c, 2, 69, 50
2, 7346160, Note_off_c, 2, 69, 0
2, 7346160, Note_on_c, 2, 67, 50
2, 7346640, Note_off_c, 2, 67, 0
2, 7346640, Note_on_c, 2, 65, 50
2, 7347120, Note_off_c, 2, 65, 0
2, 7347120, Note_on_c, 2, 64, 50
2, 7348560, Note_off_c, 2, 64, 0
2, 7349040, Note_on_c, 2, 69, 50
2, 7350000, Note_off_c, 2, 69, 0
2, 7350000, Note_on_c, 2, 69, 50
2, 7350960, Note_off_c, 2, 69, 0
2, 7351440, Note_on_c, 2, 70, 50
2, 7351920, Note_off_c, 2, 70, 0
2, 7351920, Note_on_c, 2, 65, 50
2, 7352880, Note_off_c, 2, 65, 0
2, 7352880, Note_on_c, 2, 64, 50
2, 7353360, Note_off_c, 2, 64, 0
2, 7353360, Note_on_c, 2, 69, 50
2, 7353840, Note_off_c, 2, 69, 0
2, 7353840, Note_on_c, 2, 64, 50
2, 7354320, Note_off_c, 2, 64, 0
2, 7354320, Note_on_c, 2, 64, 50
2, 7354800, Note_off_c, 2, 64, 0
2, 7354800, Note_on_c, 2, 62, 50
2, 7355280, Note_off_c, 2, 62, 0
2, 7355280, Note_on_c, 2, 65, 50
2, 7355760, Note_off_c, 2, 65, 0
2, 7355760, Note_on_c, 2, 68, 50
2, 7356240, Note_off_c, 2, 68, 0
2, 7356240, Note_on_c, 2, 65, 50
2, 7356720, Note_off_c, 2, 65, 0
2, 7356720, Note_on_c, 2, 64, 50
2, 7357680, Note_off_c, 2, 64, 0
2, 7357680, Note_on_c, 2, 62, 50
2, 7358040, Note_off_c, 2, 62, 0
2, 7358040, Note_on_c, 2, 64, 50
2, 7358400, Note_off_c, 2, 64, 0
2, 7358400, Note_on_c, 2, 65, 50
2, 7358760, Note_off_c, 2, 65, 0
2, 7358760, Note_on_c, 2, 64, 50
2, 7359720, Note_off_c, 2, 64, 0
2, 7360200, Note_on_c, 2, 62, 50
2, 7360560, Note_off_c, 2, 62, 0
2, 7360560, Note_on_c, 2, 65, 50
2, 7361040, Note_off_c, 2, 65, 0
2, 7361040, Note_on_c, 2, 62, 50
2, 7361520, Note_off_c, 2, 62, 0
2, 7361520, Note_on_c, 2, 67, 50
2, 7362000, Note_off_c, 2, 67, 0
2, 7362000, Note_on_c, 2, 64, 50
2, 7362360, Note_off_c, 2, 64, 0
2, 7362360, Note_on_c, 2, 65, 50
2, 7362960, Note_off_c, 2, 65, 0
2, 7362960, Note_on_c, 2, 64, 50
2, 7363440, Note_off_c, 2, 64, 0
2, 7363440, Note_on_c, 2, 62, 50
2, 7363920, Note_off_c, 2, 62, 0
2, 7364280, Note_on_c, 2, 64, 50
2, 7364400, Note_off_c, 2, 64, 0
2, 7364400, Note_on_c, 2, 65, 50
2, 7365360, Note_off_c, 2, 65, 0
2, 7365360, Note_on_c, 2, 64, 50
2, 7365840, Note_off_c, 2, 64, 0
2, 7365840, Note_on_c, 2, 62, 50
2, 7366320, Note_off_c, 2, 62, 0
2, 7366320, Note_on_c, 2, 61, 50
2, 7367280, Note_off_c, 2, 61, 0
2, 7367280, Note_on_c, 2, 62, 50
2, 7367760, Note_off_c, 2, 62, 0
2, 7367760, Note_on_c, 2, 64, 50
2, 7368240, Note_off_c, 2, 64, 0
2, 7368240, Note_on_c, 2, 62, 50
2, 7369680, Note_off_c, 2, 62, 0
2, 7418160, Note_on_c, 2, 65, 50
2, 7418640, Note_off_c, 2, 65, 0
2, 7418640, Note_on_c, 2, 66, 50
2, 7419360, Note_off_c, 2, 66, 0
2, 7419360, Note_on_c, 2, 65, 50
2, 7419600, Note_off_c, 2, 65, 0
2, 7419600, Note_on_c, 2, 66, 50
2, 7419840, Note_off_c, 2, 66, 0
2, 7419840, Note_on_c, 2, 65, 50
2, 7419960, Note_off_c, 2, 65, 0
2, 7420080, Note_on_c, 2, 63, 50
2, 7420440, Note_off_c, 2, 63, 0
2, 7420560, Note_on_c, 2, 62, 50
2, 7421160, Note_off_c, 2, 62, 0
2, 7421160, Note_on_c, 2, 60, 50
2, 7421400, Note_off_c, 2, 60, 0
2, 7421520, Note_on_c, 2, 55, 50
2, 7422000, Note_off_c, 2, 55, 0
2, 7422000, Note_on_c, 2, 58, 50
2, 7423920, Note_off_c, 2, 58, 0
2, 7427760, Note_on_c, 2, 70, 50
2, 7428000, Note_off_c, 2, 70, 0
2, 7428120, Note_on_c, 2, 70, 50
2, 7428360, Note_off_c, 2, 70, 0
2, 7428480, Note_on_c, 2, 70, 50
2, 7428600, Note_off_c, 2, 70, 0
2, 7428720, Note_on_c, 2, 70, 50
2, 7430160, Note_off_c, 2, 70, 0
2, 7430640, Note_on_c, 2, 72, 50
2, 7431120, Note_off_c, 2, 72, 0
2, 7431120, Note_on_c, 2, 70, 50
2, 7431360, Note_off_c, 2, 70, 0
2, 7431360, Note_on_c, 2, 69, 50
2, 7431600, Note_off_c, 2, 69, 0
2, 7431600, Note_on_c, 2, 70, 50
2, 7432680, Note_off_c, 2, 70, 0
2, 7436400, Note_on_c, 2, 72, 50
2, 7436760, Note_off_c, 2, 72, 0
2, 7436880, Note_on_c, 2, 74, 50
2, 7437000, Note_off_c, 2, 74, 0
2, 7437120, Note_on_c, 2, 75, 50
2, 7437240, Note_off_c, 2, 75, 0
2, 7437360, Note_on_c, 2, 77, 50
2, 7438200, Note_off_c, 2, 77, 0
2, 7438320, Note_on_c, 2, 74, 50
2, 7438680, Note_off_c, 2, 74, 0
2, 7438800, Note_on_c, 2, 72, 50
2, 7439160, Note_off_c, 2, 72, 0
2, 7439280, Note_on_c, 2, 70, 50
2, 7439640, Note_off_c, 2, 70, 0
2, 7439640, Note_on_c, 2, 68, 50
2, 7439760, Note_off_c, 2, 68, 0
2, 7439760, Note_on_c, 2, 67, 50
2, 7440000, Note_off_c, 2, 67, 0
2, 7440000, Note_on_c, 2, 68, 50
2, 7440240, Note_off_c, 2, 68, 0
2, 7440240, Note_on_c, 2, 70, 50
2, 7441080, Note_off_c, 2, 70, 0
2, 7444080, Note_on_c, 2, 67, 50
2, 7444320, Note_off_c, 2, 67, 0
2, 7444440, Note_on_c, 2, 67, 50
2, 7444680, Note_off_c, 2, 67, 0
2, 7444800, Note_on_c, 2, 67, 50
2, 7445040, Note_off_c, 2, 67, 0
2, 7445040, Note_on_c, 2, 67, 50
2, 7445880, Note_off_c, 2, 67, 0
2, 7446000, Note_on_c, 2, 67, 50
2, 7446360, Note_off_c, 2, 67, 0
2, 7446360, Note_on_c, 2, 67, 50
2, 7446600, Note_off_c, 2, 67, 0
2, 7446720, Note_on_c, 2, 67, 50
2, 7446960, Note_off_c, 2, 67, 0
2, 7446960, Note_on_c, 2, 67, 50
2, 7448880, Note_off_c, 2, 67, 0
2, 7448880, Note_on_c, 2, 67, 50
2, 7449840, Note_off_c, 2, 67, 0
2, 7451760, Note_on_c, 2, 72, 50
2, 7452120, Note_off_c, 2, 72, 0
2, 7452240, Note_on_c, 2, 74, 50
2, 7452360, Note_off_c, 2, 74, 0
2, 7452480, Note_on_c, 2, 75, 50
2, 7452600, Note_off_c, 2, 75, 0
2, 7452720, Note_on_c, 2, 77, 50
2, 7453440, Note_off_c, 2, 77, 0
2, 7453440, Note_on_c, 2, 75, 50
2, 7453560, Note_off_c, 2, 75, 0
2, 7453680, Note_on_c, 2, 74, 50
2, 7454040, Note_off_c, 2, 74, 0
2, 7454160, Note_on_c, 2, 72, 50
2, 7454520, Note_off_c, 2, 72, 0
2, 7454640, Note_on_c, 2, 70, 50
2, 7455000, Note_off_c, 2, 70, 0
2, 7455000, Note_on_c, 2, 68, 50
2, 7455120, Note_off_c, 2, 68, 0
2, 7455120, Note_on_c, 2, 67, 50
2, 7455360, Note_off_c, 2, 67, 0
2, 7455360, Note_on_c, 2, 68, 50
2, 7455600, Note_off_c, 2, 68, 0
2, 7455600, Note_on_c, 2, 70, 50
2, 7456440, Note_off_c, 2, 70, 0
2, 7459200, Note_on_c, 2, 75, 50
2, 7459440, Note_off_c, 2, 75, 0
2, 7459440, Note_on_c, 2, 77, 50
2, 7459800, Note_off_c, 2, 77, 0
2, 7459920, Note_on_c, 2, 75, 50
2, 7460040, Note_off_c, 2, 75, 0
2, 7460160, Note_on_c, 2, 74, 50
2, 7460280, Note_off_c, 2, 74, 0
2, 7460400, Note_on_c, 2, 72, 50
2, 7461240, Note_off_c, 2, 72, 0
2, 7462320, Note_on_c, 2, 72, 50
2, 7462680, Note_off_c, 2, 72, 0
2, 7462680, Note_on_c, 2, 70, 50
2, 7463760, Note_off_c, 2, 70, 0
2, 7463760, Note_on_c, 2, 72, 50
2, 7464240, Note_off_c, 2, 72, 0
2, 7464240, Note_on_c, 2, 67, 50
2, 7464840, Note_off_c, 2, 67, 0
2, 7465440, Note_on_c, 2, 64, 50
2, 7465560, Note_off_c, 2, 64, 0
2, 7465680, Note_on_c, 2, 64, 50
2, 7466040, Note_off_c, 2, 64, 0
2, 7466160, Note_on_c, 2, 67, 50
2, 7466640, Note_off_c, 2, 67, 0
2, 7466640, Note_on_c, 2, 67, 50
2, 7466760, Note_off_c, 2, 67, 0
2, 7466760, Note_on_c, 2, 65, 50
2, 7467120, Note_off_c, 2, 65, 0
2, 7469040, Note_on_c, 2, 62, 50
2, 7469160, Note_off_c, 2, 62, 0
2, 7469280, Note_on_c, 2, 63, 50
2, 7469520, Note_off_c, 2, 63, 0
2, 7469640, Note_on_c, 2, 65, 50
2, 7469880, Note_off_c, 2, 65, 0
2, 7470000, Note_on_c, 2, 63, 50
2, 7470960, Note_off_c, 2, 63, 0
2, 7473840, Note_on_c, 2, 70, 50
2, 7474080, Note_off_c, 2, 70, 0
2, 7474200, Note_on_c, 2, 70, 50
2, 7474440, Note_off_c, 2, 70, 0
2, 7474560, Note_on_c, 2, 70, 50
2, 7474680, Note_off_c, 2, 70, 0
2, 7474800, Note_on_c, 2, 70, 50
2, 7476240, Note_off_c, 2, 70, 0
2, 7476720, Note_on_c, 2, 72, 50
2, 7477200, Note_off_c, 2, 72, 0
2, 7477200, Note_on_c, 2, 70, 50
2, 7477440, Note_off_c, 2, 70, 0
2, 7477440, Note_on_c, 2, 69, 50
2, 7477680, Note_off_c, 2, 69, 0
2, 7477680, Note_on_c, 2, 70, 50
2, 7478760, Note_off_c, 2, 70, 0
2, 7481520, Note_on_c, 2, 70, 50
2, 7481760, Note_off_c, 2, 70, 0
2, 7481760, Note_on_c, 2, 70, 50
2, 7482000, Note_off_c, 2, 70, 0
2, 7482000, Note_on_c, 2, 70, 50
2, 7482480, Note_off_c, 2, 70, 0
2, 7482480, Note_on_c, 2, 70, 50
2, 7482720, Note_off_c, 2, 70, 0
2, 7482720, Note_on_c, 2, 70, 50
2, 7482960, Note_off_c, 2, 70, 0
2, 7482960, Note_on_c, 2, 70, 50
2, 7483800, Note_off_c, 2, 70, 0
2, 7484400, Note_on_c, 2, 72, 50
2, 7484520, Note_off_c, 2, 72, 0
2, 7484640, Note_on_c, 2, 70, 50
2, 7484880, Note_off_c, 2, 70, 0
2, 7484880, Note_on_c, 2, 69, 50
2, 7485120, Note_off_c, 2, 69, 0
2, 7485120, Note_on_c, 2, 69, 50
2, 7485360, Note_off_c, 2, 69, 0
2, 7485360, Note_on_c, 2, 70, 50
2, 7486080, Note_off_c, 2, 70, 0
2, 7489920, Note_on_c, 2, 75, 50
2, 7490040, Note_off_c, 2, 75, 0
2, 7490040, Note_on_c, 2, 75, 50
2, 7490160, Note_off_c, 2, 75, 0
2, 7490160, Note_on_c, 2, 77, 50
2, 7490280, Note_off_c, 2, 77, 0
2, 7490400, Note_on_c, 2, 77, 50
2, 7490520, Note_off_c, 2, 77, 0
2, 7490520, Note_on_c, 2, 77, 50
2, 7490760, Note_off_c, 2, 77, 0
2, 7490880, Note_on_c, 2, 75, 50
2, 7491000, Note_off_c, 2, 75, 0
2, 7491120, Note_on_c, 2, 74, 50
2, 7491240, Note_off_c, 2, 74, 0
2, 7491360, Note_on_c, 2, 72, 50
2, 7491960, Note_off_c, 2, 72, 0
2, 7492320, Note_on_c, 2, 75, 50
2, 7493160, Note_off_c, 2, 75, 0
2, 7493280, Note_on_c, 2, 75, 50
2, 7493760, Note_off_c, 2, 75, 0
2, 7493760, Note_on_c, 2, 75, 50
2, 7494000, Note_off_c, 2, 75, 0
2, 7494000, Note_on_c, 2, 75, 50
2, 7494240, Note_off_c, 2, 75, 0
2, 7494360, Note_on_c, 2, 70, 50
2, 7494600, Note_off_c, 2, 70, 0
2, 7494600, Note_on_c, 2, 70, 50
2, 7494960, Note_off_c, 2, 70, 0
2, 7494960, Note_on_c, 2, 72, 50
2, 7495560, Note_off_c, 2, 72, 0
2, 7496160, Note_on_c, 2, 64, 50
2, 7496280, Note_off_c, 2, 64, 0
2, 7496400, Note_on_c, 2, 64, 50
2, 7496760, Note_off_c, 2, 64, 0
2, 7496880, Note_on_c, 2, 67, 50
2, 7497360, Note_off_c, 2, 67, 0
2, 7497360, Note_on_c, 2, 67, 50
2, 7497480, Note_off_c, 2, 67, 0
2, 7497480, Note_on_c, 2, 65, 50
2, 7497840, Note_off_c, 2, 65, 0
2, 7499760, Note_on_c, 2, 62, 50
2, 7499880, Note_off_c, 2, 62, 0
2, 7500000, Note_on_c, 2, 63, 50
2, 7500240, Note_off_c, 2, 63, 0
2, 7500360, Note_on_c, 2, 65, 50
2, 7500600, Note_off_c, 2, 65, 0
2, 7500720, Note_on_c, 2, 63, 50
2, 7501680, Note_off_c, 2, 63, 0
2, 7520640, Note_on_c, 2, 75, 50
2, 7520760, Note_off_c, 2, 75, 0
2, 7520760, Note_on_c, 2, 75, 50
2, 7520880, Note_off_c, 2, 75, 0
2, 7520880, Note_on_c, 2, 77, 50
2, 7521000, Note_off_c, 2, 77, 0
2, 7521120, Note_on_c, 2, 77, 50
2, 7521240, Note_off_c, 2, 77, 0
2, 7521240, Note_on_c, 2, 77, 50
2, 7521480, Note_off_c, 2, 77, 0
2, 7521600, Note_on_c, 2, 75, 50
2, 7521720, Note_off_c, 2, 75, 0
2, 7521840, Note_on_c, 2, 74, 50
2, 7521960, Note_off_c, 2, 74, 0
2, 7522080, Note_on_c, 2, 72, 50
2, 7522680, Note_off_c, 2, 72, 0
2, 7523040, Note_on_c, 2, 75, 50
2, 7523880, Note_off_c, 2, 75, 0
2, 7524000, Note_on_c, 2, 75, 50
2, 7524360, Note_off_c, 2, 75, 0
2, 7524360, Note_on_c, 2, 75, 50
2, 7524480, Note_off_c, 2, 75, 0
2, 7524600, Note_on_c, 2, 75, 50
2, 7524840, Note_off_c, 2, 75, 0
2, 7525080, Note_on_c, 2, 70, 50
2, 7525320, Note_off_c, 2, 70, 0
2, 7525320, Note_on_c, 2, 70, 50
2, 7525800, Note_off_c, 2, 70, 0
2, 7525800, Note_on_c, 2, 72, 50
2, 7526400, Note_off_c, 2, 72, 0
2, 7527120, Note_on_c, 2, 64, 50
2, 7527480, Note_off_c, 2, 64, 0
2, 7527600, Note_on_c, 2, 67, 50
2, 7528080, Note_off_c, 2, 67, 0
2, 7528080, Note_on_c, 2, 67, 50
2, 7528200, Note_off_c, 2, 67, 0
2, 7528200, Note_on_c, 2, 65, 50
2, 7528560, Note_off_c, 2, 65, 0
2, 7530480, Note_on_c, 2, 62, 50
2, 7530600, Note_off_c, 2, 62, 0
2, 7530720, Note_on_c, 2, 63, 50
2, 7530960, Note_off_c, 2, 63, 0
2, 7531080, Note_on_c, 2, 65, 50
2, 7531320, Note_off_c, 2, 65, 0
2, 7531440, Note_on_c, 2, 63, 50
2, 7532400, Note_off_c, 2, 63, 0
2, 7535280, Note_on_c, 2, 70, 50
2, 7535520, Note_off_c, 2, 70, 0
2, 7535640, Note_on_c, 2, 70, 50
2, 7535880, Note_off_c, 2, 70, 0
2, 7536000, Note_on_c, 2, 70, 50
2, 7536120, Note_off_c, 2, 70, 0
2, 7536240, Note_on_c, 2, 70, 50
2, 7537680, Note_off_c, 2, 70, 0
2, 7538160, Note_on_c, 2, 72, 50
2, 7538640, Note_off_c, 2, 72, 0
2, 7538640, Note_on_c, 2, 70, 50
2, 7538880, Note_off_c, 2, 70, 0
2, 7538880, Note_on_c, 2, 69, 50
2, 7539120, Note_off_c, 2, 69, 0
2, 7539120, Note_on_c, 2, 70, 50
2, 7540200, Note_off_c, 2, 70, 0
2, 7542960, Note_on_c, 2, 70, 50
2, 7543200, Note_off_c, 2, 70, 0
2, 7543200, Note_on_c, 2, 70, 50
2, 7543440, Note_off_c, 2, 70, 0
2, 7543440, Note_on_c, 2, 70, 50
2, 7543920, Note_off_c, 2, 70, 0
2, 7543920, Note_on_c, 2, 70, 50
2, 7544160, Note_off_c, 2, 70, 0
2, 7544160, Note_on_c, 2, 70, 50
2, 7544400, Note_off_c, 2, 70, 0
2, 7544400, Note_on_c, 2, 70, 50
2, 7545720, Note_off_c, 2, 70, 0
2, 7545840, Note_on_c, 2, 72, 50
2, 7545960, Note_off_c, 2, 72, 0
2, 7546080, Note_on_c, 2, 70, 50
2, 7546320, Note_off_c, 2, 70, 0
2, 7546320, Note_on_c, 2, 69, 50
2, 7546560, Note_off_c, 2, 69, 0
2, 7546560, Note_on_c, 2, 69, 50
2, 7546800, Note_off_c, 2, 69, 0
2, 7546800, Note_on_c, 2, 70, 50
2, 7547880, Note_off_c, 2, 70, 0
2, 7551360, Note_on_c, 2, 75, 50
2, 7551480, Note_off_c, 2, 75, 0
2, 7551480, Note_on_c, 2, 75, 50
2, 7551600, Note_off_c, 2, 75, 0
2, 7551600, Note_on_c, 2, 77, 50
2, 7551720, Note_off_c, 2, 77, 0
2, 7551840, Note_on_c, 2, 77, 50
2, 7551960, Note_off_c, 2, 77, 0
2, 7551960, Note_on_c, 2, 77, 50
2, 7552200, Note_off_c, 2, 77, 0
2, 7552320, Note_on_c, 2, 75, 50
2, 7552440, Note_off_c, 2, 75, 0
2, 7552560, Note_on_c, 2, 74, 50
2, 7552680, Note_off_c, 2, 74, 0
2, 7552800, Note_on_c, 2, 72, 50
2, 7553400, Note_off_c, 2, 72, 0
2, 7553760, Note_on_c, 2, 75, 50
2, 7554600, Note_off_c, 2, 75, 0
2, 7554720, Note_on_c, 2, 75, 50
2, 7555080, Note_off_c, 2, 75, 0
2, 7555080, Note_on_c, 2, 75, 50
2, 7555200, Note_off_c, 2, 75, 0
2, 7555320, Note_on_c, 2, 75, 50
2, 7555560, Note_off_c, 2, 75, 0
2, 7555800, Note_on_c, 2, 70, 50
2, 7556040, Note_off_c, 2, 70, 0
2, 7556040, Note_on_c, 2, 70, 50
2, 7556520, Note_off_c, 2, 70, 0
2, 7557600, Note_on_c, 2, 64, 50
2, 7557720, Note_off_c, 2, 64, 0
2, 7557840, Note_on_c, 2, 64, 50
2, 7558200, Note_off_c, 2, 64, 0
2, 7558320, Note_on_c, 2, 67, 50
2, 7558800, Note_off_c, 2, 67, 0
2, 7558800, Note_on_c, 2, 67, 50
2, 7558920, Note_off_c, 2, 67, 0
2, 7558920, Note_on_c, 2, 65, 50
2, 7559280, Note_off_c, 2, 65, 0
2, 7561200, Note_on_c, 2, 62, 50
2, 7561320, Note_off_c, 2, 62, 0
2, 7561440, Note_on_c, 2, 63, 50
2, 7561680, Note_off_c, 2, 63, 0
2, 7561800, Note_on_c, 2, 65, 50
2, 7562040, Note_off_c, 2, 65, 0
2, 7562160, Note_on_c, 2, 63, 50
2, 7563120, Note_off_c, 2, 63, 0
2, 7565040, Note_on_c, 2, 62, 50
2, 7565160, Note_off_c, 2, 62, 0
2, 7565280, Note_on_c, 2, 63, 50
2, 7565520, Note_off_c, 2, 63, 0
2, 7565640, Note_on_c, 2, 65, 50
2, 7565880, Note_off_c, 2, 65, 0
2, 7566000, Note_on_c, 2, 63, 50
2, 7566960, Note_off_c, 2, 63, 0
2, 7568880, Note_on_c, 2, 62, 50
2, 7569000, Note_off_c, 2, 62, 0
2, 7569120, Note_on_c, 2, 63, 50
2, 7569360, Note_off_c, 2, 63, 0
2, 7569480, Note_on_c, 2, 65, 50
2, 7569720, Note_off_c, 2, 65, 0
2, 7569840, Note_on_c, 2, 63, 50
2, 7571280, Note_off_c, 2, 63, 0
2, 7572720, Note_on_c, 2, 70, 50
2, 7572840, Note_off_c, 2, 70, 0
2, 7572960, Note_on_c, 2, 70, 50
2, 7573200, Note_off_c, 2, 70, 0
2, 7573320, Note_on_c, 2, 75, 50
2, 7573560, Note_off_c, 2, 75, 0
2, 7573680, Note_on_c, 2, 75, 50
2, 7575240, Note_off_c, 2, 75, 0
2, 7587600, Note_on_c, 2, 67, 50
2, 7588320, Note_off_c, 2, 67, 0
2, 7588320, Note_on_c, 2, 67, 50
2, 7588440, Note_off_c, 2, 67, 0
2, 7588440, Note_on_c, 2, 69, 50
2, 7588560, Note_off_c, 2, 69, 0
2, 7588560, Note_on_c, 2, 67, 50
2, 7588800, Note_off_c, 2, 67, 0
2, 7588800, Note_on_c, 2, 65, 50
2, 7588920, Note_off_c, 2, 65, 0
2, 7588920, Note_on_c, 2, 64, 50
2, 7589760, Note_off_c, 2, 64, 0
2, 7589760, Note_on_c, 2, 62, 50
2, 7590000, Note_off_c, 2, 62, 0
2, 7590000, Note_on_c, 2, 65, 50
2, 7590120, Note_off_c, 2, 65, 0
2, 7590120, Note_on_c, 2, 64, 50
2, 7590480, Note_off_c, 2, 64, 0
2, 7590480, Note_on_c, 2, 60, 50
2, 7591200, Note_off_c, 2, 60, 0
2, 7591200, Note_on_c, 2, 58, 50
2, 7591440, Note_off_c, 2, 58, 0
2, 7591440, Note_on_c, 2, 65, 50
2, 7591680, Note_off_c, 2, 65, 0
2, 7591680, Note_on_c, 2, 57, 50
2, 7591920, Note_off_c, 2, 57, 0
2, 7591920, Note_on_c, 2, 55, 50
2, 7592640, Note_off_c, 2, 55, 0
2, 7593360, Note_on_c, 2, 67, 50
2, 7594080, Note_off_c, 2, 67, 0
2, 7594080, Note_on_c, 2, 67, 50
2, 7594200, Note_off_c, 2, 67, 0
2, 7594200, Note_on_c, 2, 69, 50
2, 7594320, Note_off_c, 2, 69, 0
2, 7594320, Note_on_c, 2, 67, 50
2, 7594560, Note_off_c, 2, 67, 0
2, 7594560, Note_on_c, 2, 65, 50
2, 7594800, Note_off_c, 2, 65, 0
2, 7594800, Note_on_c, 2, 64, 50
2, 7595520, Note_off_c, 2, 64, 0
2, 7595520, Note_on_c, 2, 62, 50
2, 7595760, Note_off_c, 2, 62, 0
2, 7595760, Note_on_c, 2, 65, 50
2, 7596000, Note_off_c, 2, 65, 0
2, 7596000, Note_on_c, 2, 64, 50
2, 7596240, Note_off_c, 2, 64, 0
2, 7596240, Note_on_c, 2, 60, 50
2, 7596960, Note_off_c, 2, 60, 0
2, 7596960, Note_on_c, 2, 58, 50
2, 7597200, Note_off_c, 2, 58, 0
2, 7597200, Note_on_c, 2, 65, 50
2, 7597440, Note_off_c, 2, 65, 0
2, 7597440, Note_on_c, 2, 57, 50
2, 7597680, Note_off_c, 2, 57, 0
2, 7597680, Note_on_c, 2, 55, 50
2, 7598400, Note_off_c, 2, 55, 0
2, 7598880, Note_on_c, 2, 67, 50
2, 7599120, Note_off_c, 2, 67, 0
2, 7599120, Note_on_c, 2, 75, 50
2, 7599360, Note_off_c, 2, 75, 0
2, 7599360, Note_on_c, 2, 75, 50
2, 7599600, Note_off_c, 2, 75, 0
2, 7599600, Note_on_c, 2, 75, 50
2, 7599840, Note_off_c, 2, 75, 0
2, 7599840, Note_on_c, 2, 75, 50
2, 7600080, Note_off_c, 2, 75, 0
2, 7600080, Note_on_c, 2, 74, 50
2, 7600320, Note_off_c, 2, 74, 0
2, 7600320, Note_on_c, 2, 74, 50
2, 7600560, Note_off_c, 2, 74, 0
2, 7600560, Note_on_c, 2, 74, 50
2, 7600800, Note_off_c, 2, 74, 0
2, 7600800, Note_on_c, 2, 72, 50
2, 7601040, Note_off_c, 2, 72, 0
2, 7601040, Note_on_c, 2, 72, 50
2, 7601280, Note_off_c, 2, 72, 0
2, 7601280, Note_on_c, 2, 70, 50
2, 7601520, Note_off_c, 2, 70, 0
2, 7601520, Note_on_c, 2, 72, 50
2, 7601760, Note_off_c, 2, 72, 0
2, 7601760, Note_on_c, 2, 70, 50
2, 7601880, Note_off_c, 2, 70, 0
2, 7601880, Note_on_c, 2, 72, 50
2, 7602720, Note_off_c, 2, 72, 0
2, 7604640, Note_on_c, 2, 65, 50
2, 7604880, Note_off_c, 2, 65, 0
2, 7604880, Note_on_c, 2, 75, 50
2, 7605120, Note_off_c, 2, 75, 0
2, 7605120, Note_on_c, 2, 75, 50
2, 7605360, Note_off_c, 2, 75, 0
2, 7605360, Note_on_c, 2, 75, 50
2, 7605600, Note_off_c, 2, 75, 0
2, 7605600, Note_on_c, 2, 75, 50
2, 7605840, Note_off_c, 2, 75, 0
2, 7605840, Note_on_c, 2, 74, 50
2, 7605960, Note_off_c, 2, 74, 0
2, 7605960, Note_on_c, 2, 74, 50
2, 7606320, Note_off_c, 2, 74, 0
2, 7606320, Note_on_c, 2, 74, 50
2, 7606560, Note_off_c, 2, 74, 0
2, 7606560, Note_on_c, 2, 72, 50
2, 7606800, Note_off_c, 2, 72, 0
2, 7606800, Note_on_c, 2, 72, 50
2, 7607040, Note_off_c, 2, 72, 0
2, 7607040, Note_on_c, 2, 70, 50
2, 7607160, Note_off_c, 2, 70, 0
2, 7607160, Note_on_c, 2, 72, 50
2, 7607520, Note_off_c, 2, 72, 0
2, 7607520, Note_on_c, 2, 70, 50
2, 7607640, Note_off_c, 2, 70, 0
2, 7607640, Note_on_c, 2, 72, 50
2, 7608480, Note_off_c, 2, 72, 0
2, 7610640, Note_on_c, 2, 67, 50
2, 7611360, Note_off_c, 2, 67, 0
2, 7611360, Note_on_c, 2, 69, 50
2, 7611600, Note_off_c, 2, 69, 0
2, 7611600, Note_on_c, 2, 67, 50
2, 7611840, Note_off_c, 2, 67, 0
2, 7611840, Note_on_c, 2, 65, 50
2, 7612080, Note_off_c, 2, 65, 0
2, 7612080, Note_on_c, 2, 64, 50
2, 7612800, Note_off_c, 2, 64, 0
2, 7612800, Note_on_c, 2, 62, 50
2, 7613040, Note_off_c, 2, 62, 0
2, 7613040, Note_on_c, 2, 65, 50
2, 7613280, Note_off_c, 2, 65, 0
2, 7613280, Note_on_c, 2, 64, 50
2, 7613520, Note_off_c, 2, 64, 0
2, 7613520, Note_on_c, 2, 60, 50
2, 7614240, Note_off_c, 2, 60, 0
2, 7614240, Note_on_c, 2, 58, 50
2, 7614480, Note_off_c, 2, 58, 0
2, 7614480, Note_on_c, 2, 65, 50
2, 7614720, Note_off_c, 2, 65, 0
2, 7614720, Note_on_c, 2, 57, 50
2, 7614960, Note_off_c, 2, 57, 0
2, 7614960, Note_on_c, 2, 55, 50
2, 7615680, Note_off_c, 2, 55, 0
2, 7616400, Note_on_c, 2, 67, 50
2, 7617120, Note_off_c, 2, 67, 0
2, 7617120, Note_on_c, 2, 69, 50
2, 7617360, Note_off_c, 2, 69, 0
2, 7617360, Note_on_c, 2, 67, 50
2, 7617600, Note_off_c, 2, 67, 0
2, 7617600, Note_on_c, 2, 65, 50
2, 7617840, Note_off_c, 2, 65, 0
2, 7617840, Note_on_c, 2, 64, 50
2, 7618560, Note_off_c, 2, 64, 0
2, 7618560, Note_on_c, 2, 62, 50
2, 7618800, Note_off_c, 2, 62, 0
2, 7618800, Note_on_c, 2, 65, 50
2, 7619040, Note_off_c, 2, 65, 0
2, 7619040, Note_on_c, 2, 64, 50
2, 7619280, Note_off_c, 2, 64, 0
2, 7619280, Note_on_c, 2, 60, 50
2, 7620000, Note_off_c, 2, 60, 0
2, 7620000, Note_on_c, 2, 58, 50
2, 7620240, Note_off_c, 2, 58, 0
2, 7620240, Note_on_c, 2, 65, 50
2, 7620480, Note_off_c, 2, 65, 0
2, 7620480, Note_on_c, 2, 57, 50
2, 7620600, Note_off_c, 2, 57, 0
2, 7620600, Note_on_c, 2, 55, 50
2, 7621440, Note_off_c, 2, 55, 0
2, 7633440, Note_on_c, 2, 67, 50
2, 7633680, Note_off_c, 2, 67, 0
2, 7633680, Note_on_c, 2, 75, 50
2, 7633920, Note_off_c, 2, 75, 0
2, 7633920, Note_on_c, 2, 75, 50
2, 7634160, Note_off_c, 2, 75, 0
2, 7634160, Note_on_c, 2, 75, 50
2, 7634400, Note_off_c, 2, 75, 0
2, 7634400, Note_on_c, 2, 75, 50
2, 7634640, Note_off_c, 2, 75, 0
2, 7634640, Note_on_c, 2, 74, 50
2, 7634880, Note_off_c, 2, 74, 0
2, 7634880, Note_on_c, 2, 74, 50
2, 7635120, Note_off_c, 2, 74, 0
2, 7635120, Note_on_c, 2, 74, 50
2, 7635360, Note_off_c, 2, 74, 0
2, 7635360, Note_on_c, 2, 72, 50
2, 7635600, Note_off_c, 2, 72, 0
2, 7635600, Note_on_c, 2, 72, 50
2, 7635840, Note_off_c, 2, 72, 0
2, 7635840, Note_on_c, 2, 70, 50
2, 7636080, Note_off_c, 2, 70, 0
2, 7636080, Note_on_c, 2, 72, 50
2, 7636320, Note_off_c, 2, 72, 0
2, 7636320, Note_on_c, 2, 70, 50
2, 7636440, Note_off_c, 2, 70, 0
2, 7636440, Note_on_c, 2, 72, 50
2, 7637280, Note_off_c, 2, 72, 0
2, 7639200, Note_on_c, 2, 65, 50
2, 7639440, Note_off_c, 2, 65, 0
2, 7639440, Note_on_c, 2, 75, 50
2, 7639680, Note_off_c, 2, 75, 0
2, 7639680, Note_on_c, 2, 75, 50
2, 7639920, Note_off_c, 2, 75, 0
2, 7639920, Note_on_c, 2, 75, 50
2, 7640160, Note_off_c, 2, 75, 0
2, 7640160, Note_on_c, 2, 75, 50
2, 7640400, Note_off_c, 2, 75, 0
2, 7640400, Note_on_c, 2, 74, 50
2, 7640520, Note_off_c, 2, 74, 0
2, 7640520, Note_on_c, 2, 74, 50
2, 7640880, Note_off_c, 2, 74, 0
2, 7640880, Note_on_c, 2, 74, 50
2, 7641120, Note_off_c, 2, 74, 0
2, 7641120, Note_on_c, 2, 72, 50
2, 7641360, Note_off_c, 2, 72, 0
2, 7641360, Note_on_c, 2, 72, 50
2, 7641600, Note_off_c, 2, 72, 0
2, 7641600, Note_on_c, 2, 70, 50
2, 7641720, Note_off_c, 2, 70, 0
2, 7641720, Note_on_c, 2, 72, 50
2, 7642080, Note_off_c, 2, 72, 0
2, 7642080, Note_on_c, 2, 70, 50
2, 7642200, Note_off_c, 2, 70, 0
2, 7642200, Note_on_c, 2, 72, 50
2, 7643040, Note_off_c, 2, 72, 0
2, 7645200, Note_on_c, 2, 67, 50
2, 7645920, Note_off_c, 2, 67, 0
2, 7645920, Note_on_c, 2, 69, 50
2, 7646160, Note_off_c, 2, 69, 0
2, 7646160, Note_on_c, 2, 67, 50
2, 7646400, Note_off_c, 2, 67, 0
2, 7646400, Note_on_c, 2, 65, 50
2, 7646640, Note_off_c, 2, 65, 0
2, 7646640, Note_on_c, 2, 64, 50
2, 7647360, Note_off_c, 2, 64, 0
2, 7647360, Note_on_c, 2, 62, 50
2, 7647600, Note_off_c, 2, 62, 0
2, 7647600, Note_on_c, 2, 65, 50
2, 7647840, Note_off_c, 2, 65, 0
2, 7647840, Note_on_c, 2, 64, 50
2, 7648080, Note_off_c, 2, 64, 0
2, 7648080, Note_on_c, 2, 60, 50
2, 7648800, Note_off_c, 2, 60, 0
2, 7648800, Note_on_c, 2, 58, 50
2, 7649040, Note_off_c, 2, 58, 0
2, 7649040, Note_on_c, 2, 65, 50
2, 7649280, Note_off_c, 2, 65, 0
2, 7649280, Note_on_c, 2, 57, 50
2, 7649520, Note_off_c, 2, 57, 0
2, 7649520, Note_on_c, 2, 55, 50
2, 7650240, Note_off_c, 2, 55, 0
2, 7650960, Note_on_c, 2, 67, 50
2, 7651680, Note_off_c, 2, 67, 0
2, 7651680, Note_on_c, 2, 69, 50
2, 7651920, Note_off_c, 2, 69, 0
2, 7651920, Note_on_c, 2, 67, 50
2, 7652160, Note_off_c, 2, 67, 0
2, 7652160, Note_on_c, 2, 65, 50
2, 7652400, Note_off_c, 2, 65, 0
2, 7652400, Note_on_c, 2, 64, 50
2, 7653120, Note_off_c, 2, 64, 0
2, 7653120, Note_on_c, 2, 62, 50
2, 7653360, Note_off_c, 2, 62, 0
2, 7653360, Note_on_c, 2, 65, 50
2, 7653600, Note_off_c, 2, 65, 0
2, 7653600, Note_on_c, 2, 64, 50
2, 7653840, Note_off_c, 2, 64, 0
2, 7653840, Note_on_c, 2, 60, 50
2, 7654560, Note_off_c, 2, 60, 0
2, 7654560, Note_on_c, 2, 58, 50
2, 7654800, Note_off_c, 2, 58, 0
2, 7654800, Note_on_c, 2, 65, 50
2, 7655040, Note_off_c, 2, 65, 0
2, 7655040, Note_on_c, 2, 57, 50
2, 7655280, Note_off_c, 2, 57, 0
2, 7655280, Note_on_c, 2, 55, 50
2, 7656000, Note_off_c, 2, 55, 0
2, 7672560, Note_on_c, 2, 61, 50
2, 7673400, Note_off_c, 2, 61, 0
2, 7673400, Note_on_c, 2, 65, 50
2, 7674240, Note_off_c, 2, 65, 0
2, 7674240, Note_on_c, 2, 62, 50
2, 7675080, Note_off_c, 2, 62, 0
2, 7675080, Note_on_c, 2, 64, 50
2, 7676880, Note_off_c, 2, 64, 0
2, 7676880, Note_on_c, 2, 65, 50
2, 7677720, Note_off_c, 2, 65, 0
2, 7677720, Note_on_c, 2, 62, 50
2, 7678560, Note_off_c, 2, 62, 0
2, 7678560, Note_on_c, 2, 64, 50
2, 7680360, Note_off_c, 2, 64, 0
2, 7680360, Note_on_c, 2, 65, 50
2, 7681200, Note_off_c, 2, 65, 0
2, 7681200, Note_on_c, 2, 59, 50
2, 7682040, Note_off_c, 2, 59, 0
2, 7682040, Note_on_c, 2, 62, 50
2, 7682880, Note_off_c, 2, 62, 0
2, 7682880, Note_on_c, 2, 64, 50
2, 7684680, Note_off_c, 2, 64, 0
2, 7684680, Note_on_c, 2, 64, 50
2, 7685520, Note_off_c, 2, 64, 0
2, 7685520, Note_on_c, 2, 59, 50
2, 7686360, Note_off_c, 2, 59, 0
2, 7686360, Note_on_c, 2, 64, 50
2, 7688160, Note_off_c, 2, 64, 0
2, 7688160, Note_on_c, 2, 64, 50
2, 7689960, Note_off_c, 2, 64, 0
2, 7689960, Note_on_c, 2, 65, 50
2, 7691760, Note_off_c, 2, 65, 0
2, 7691760, Note_on_c, 2, 60, 50
2, 7693560, Note_off_c, 2, 60, 0
2, 7693560, Note_on_c, 2, 64, 50
2, 7695360, Note_off_c, 2, 64, 0
2, 7695360, Note_on_c, 2, 59, 50
2, 7697160, Note_off_c, 2, 59, 0
2, 7697160, Note_on_c, 2, 60, 50
2, 7698960, Note_off_c, 2, 60, 0
2, 7698960, Note_on_c, 2, 59, 50
2, 7700760, Note_off_c, 2, 59, 0
2, 7700880, Note_on_c, 2, 59, 50
2, 7701000, Note_off_c, 2, 59, 0
2, 7701360, Note_on_c, 2, 55, 50
2, 7702200, Note_off_c, 2, 55, 0
2, 7702200, Note_on_c, 2, 59, 50
2, 7703040, Note_off_c, 2, 59, 0
2, 7703040, Note_on_c, 2, 60, 50
2, 7703520, Note_off_c, 2, 60, 0
2, 7703520, Note_on_c, 2, 64, 50
2, 7705080, Note_off_c, 2, 64, 0
2, 7705440, Note_on_c, 2, 64, 50
2, 7707120, Note_off_c, 2, 64, 0
2, 7707120, Note_on_c, 2, 60, 50
2, 7708920, Note_off_c, 2, 60, 0
2, 7708920, Note_on_c, 2, 64, 50
2, 7710720, Note_off_c, 2, 64, 0
2, 7710720, Note_on_c, 2, 65, 50
2, 7712520, Note_off_c, 2, 65, 0
2, 7712520, Note_on_c, 2, 64, 50
2, 7714320, Note_off_c, 2, 64, 0
2, 7714320, Note_on_c, 2, 59, 50
2, 7716120, Note_off_c, 2, 59, 0
2, 7716120, Note_on_c, 2, 60, 50
2, 7717920, Note_off_c, 2, 60, 0
2, 7717920, Note_on_c, 2, 59, 50
2, 7719720, Note_off_c, 2, 59, 0
2, 7719840, Note_on_c, 2, 55, 50
2, 7719960, Note_off_c, 2, 55, 0
2, 7720080, Note_on_c, 2, 59, 50
2, 7720200, Note_off_c, 2, 59, 0
2, 7720560, Note_on_c, 2, 55, 50
2, 7721400, Note_off_c, 2, 55, 0
2, 7721400, Note_on_c, 2, 59, 50
2, 7722240, Note_off_c, 2, 59, 0
2, 7722240, Note_on_c, 2, 60, 50
2, 7722720, Note_off_c, 2, 60, 0
2, 7722720, Note_on_c, 2, 64, 50
2, 7724280, Note_off_c, 2, 64, 0
2, 7724640, Note_on_c, 2, 64, 50
2, 7726320, Note_off_c, 2, 64, 0
2, 7726320, Note_on_c, 2, 65, 50
2, 7728120, Note_off_c, 2, 65, 0
2, 7728120, Note_on_c, 2, 67, 50
2, 7729920, Note_off_c, 2, 67, 0
2, 7729920, Note_on_c, 2, 64, 50
2, 7731720, Note_off_c, 2, 64, 0
2, 7731720, Note_on_c, 2, 67, 50
2, 7733520, Note_off_c, 2, 67, 0
2, 7733520, Note_on_c, 2, 64, 50
2, 7735320, Note_off_c, 2, 64, 0
2, 7735320, Note_on_c, 2, 67, 50
2, 7737120, Note_off_c, 2, 67, 0
2, 7737120, Note_on_c, 2, 64, 50
2, 7738920, Note_off_c, 2, 64, 0
2, 7738920, Note_on_c, 2, 59, 50
2, 7739760, Note_off_c, 2, 59, 0
2, 7739760, Note_on_c, 2, 60, 50
2, 7741560, Note_off_c, 2, 60, 0
2, 7741560, Note_on_c, 2, 64, 50
2, 7743360, Note_off_c, 2, 64, 0
2, 7743360, Note_on_c, 2, 64, 50
2, 7745160, Note_off_c, 2, 64, 0
2, 7745160, Note_on_c, 2, 65, 50
2, 7746960, Note_off_c, 2, 65, 0
2, 7746960, Note_on_c, 2, 64, 50
2, 7748760, Note_off_c, 2, 64, 0
2, 7748760, Note_on_c, 2, 59, 50
2, 7750560, Note_off_c, 2, 59, 0
2, 7750560, Note_on_c, 2, 60, 50
2, 7752360, Note_off_c, 2, 60, 0
2, 7752360, Note_on_c, 2, 59, 50
2, 7754160, Note_off_c, 2, 59, 0
2, 7754160, Note_on_c, 2, 59, 50
2, 7754280, Note_off_c, 2, 59, 0
2, 7754400, Note_on_c, 2, 55, 50
2, 7754520, Note_off_c, 2, 55, 0
2, 7754640, Note_on_c, 2, 59, 50
2, 7754760, Note_off_c, 2, 59, 0
2, 7755120, Note_on_c, 2, 55, 50
2, 7755960, Note_off_c, 2, 55, 0
2, 7755960, Note_on_c, 2, 59, 50
2, 7756800, Note_off_c, 2, 59, 0
2, 7756800, Note_on_c, 2, 60, 50
2, 7757280, Note_off_c, 2, 60, 0
2, 7757280, Note_on_c, 2, 64, 50
2, 7758840, Note_off_c, 2, 64, 0
2, 7759200, Note_on_c, 2, 64, 50
2, 7760880, Note_off_c, 2, 64, 0
2, 7760880, Note_on_c, 2, 65, 50
2, 7762680, Note_off_c, 2, 65, 0
2, 7762680, Note_on_c, 2, 67, 50
2, 7764480, Note_off_c, 2, 67, 0
2, 7764480, Note_on_c, 2, 64, 50
2, 7766280, Note_off_c, 2, 64, 0
2, 7766280, Note_on_c, 2, 67, 50
2, 7768080, Note_off_c, 2, 67, 0
2, 7768080, Note_on_c, 2, 64, 50
2, 7769880, Note_off_c, 2, 64, 0
2, 7769880, Note_on_c, 2, 67, 50
2, 7771680, Note_off_c, 2, 67, 0
2, 7771680, Note_on_c, 2, 64, 50
2, 7773480, Note_off_c, 2, 64, 0
2, 7773480, Note_on_c, 2, 59, 50
2, 7774320, Note_off_c, 2, 59, 0
2, 7774320, Note_on_c, 2, 60, 50
2, 7776120, Note_off_c, 2, 60, 0
2, 7776120, Note_on_c, 2, 64, 50
2, 7777920, Note_off_c, 2, 64, 0
2, 7777920, Note_on_c, 2, 64, 50
2, 7779720, Note_off_c, 2, 64, 0
2, 7779720, Note_on_c, 2, 65, 50
2, 7781520, Note_off_c, 2, 65, 0
2, 7781520, Note_on_c, 2, 64, 50
2, 7783320, Note_off_c, 2, 64, 0
2, 7783320, Note_on_c, 2, 59, 50
2, 7785120, Note_off_c, 2, 59, 0
2, 7785120, Note_on_c, 2, 60, 50
2, 7786920, Note_off_c, 2, 60, 0
2, 7786920, Note_on_c, 2, 59, 50
2, 7788720, Note_off_c, 2, 59, 0
2, 7788720, Note_on_c, 2, 59, 50
2, 7788840, Note_off_c, 2, 59, 0
2, 7788960, Note_on_c, 2, 55, 50
2, 7789080, Note_off_c, 2, 55, 0
2, 7789200, Note_on_c, 2, 59, 50
2, 7789320, Note_off_c, 2, 59, 0
2, 7789680, Note_on_c, 2, 55, 50
2, 7790520, Note_off_c, 2, 55, 0
2, 7790520, Note_on_c, 2, 59, 50
2, 7791360, Note_off_c, 2, 59, 0
2, 7791360, Note_on_c, 2, 60, 50
2, 7791840, Note_off_c, 2, 60, 0
2, 7791840, Note_on_c, 2, 64, 50
2, 7793640, Note_off_c, 2, 64, 0
2, 7793640, Note_on_c, 2, 64, 50
2, 7794480, Note_off_c, 2, 64, 0
2, 7794480, Note_on_c, 2, 59, 50
2, 7794960, Note_off_c, 2, 59, 0
2, 7794960, Note_on_c, 2, 60, 50
2, 7795440, Note_off_c, 2, 60, 0
2, 7795440, Note_on_c, 2, 60, 50
2, 7797240, Note_off_c, 2, 60, 0
2, 7797240, Note_on_c, 2, 64, 50
2, 7799040, Note_off_c, 2, 64, 0
2, 7799040, Note_on_c, 2, 60, 50
2, 7799520, Note_off_c, 2, 60, 0
2, 7799520, Note_on_c, 2, 60, 50
2, 7801320, Note_off_c, 2, 60, 0
2, 7806960, Note_on_c, 2, 74, 50
2, 7807680, Note_off_c, 2, 74, 0
2, 7807680, Note_on_c, 2, 76, 50
2, 7807920, Note_off_c, 2, 76, 0
2, 7807920, Note_on_c, 2, 78, 50
2, 7808880, Note_off_c, 2, 78, 0
2, 7808880, Note_on_c, 2, 78, 50
2, 7809840, Note_off_c, 2, 78, 0
2, 7809840, Note_on_c, 2, 76, 50
2, 7811760, Note_off_c, 2, 76, 0
2, 7811760, Note_on_c, 2, 76, 50
2, 7813680, Note_off_c, 2, 76, 0
2, 7813680, Note_on_c, 2, 76, 50
2, 7814640, Note_off_c, 2, 76, 0
2, 7821840, Note_on_c, 2, 73, 50
2, 7822320, Note_off_c, 2, 73, 0
2, 7822320, Note_on_c, 2, 76, 50
2, 7822800, Note_off_c, 2, 76, 0
2, 7822800, Note_on_c, 2, 76, 50
2, 7823280, Note_off_c, 2, 76, 0
2, 7823280, Note_on_c, 2, 76, 50
2, 7823520, Note_off_c, 2, 76, 0
2, 7823520, Note_on_c, 2, 76, 50
2, 7823760, Note_off_c, 2, 76, 0
2, 7823760, Note_on_c, 2, 74, 50
2, 7824000, Note_off_c, 2, 74, 0
2, 7824000, Note_on_c, 2, 73, 50
2, 7824240, Note_off_c, 2, 73, 0
2, 7824240, Note_on_c, 2, 76, 50
2, 7824720, Note_off_c, 2, 76, 0
2, 7824720, Note_on_c, 2, 76, 50
2, 7825200, Note_off_c, 2, 76, 0
2, 7825200, Note_on_c, 2, 76, 50
2, 7825440, Note_off_c, 2, 76, 0
2, 7825440, Note_on_c, 2, 76, 50
2, 7825680, Note_off_c, 2, 76, 0
2, 7825680, Note_on_c, 2, 76, 50
2, 7825920, Note_off_c, 2, 76, 0
2, 7825920, Note_on_c, 2, 78, 50
2, 7826160, Note_off_c, 2, 78, 0
2, 7826160, Note_on_c, 2, 79, 50
2, 7826640, Note_off_c, 2, 79, 0
2, 7826640, Note_on_c, 2, 79, 50
2, 7826880, Note_off_c, 2, 79, 0
2, 7826880, Note_on_c, 2, 79, 50
2, 7827600, Note_off_c, 2, 79, 0
2, 7827600, Note_on_c, 2, 78, 50
2, 7827840, Note_off_c, 2, 78, 0
2, 7827840, Note_on_c, 2, 76, 50
2, 7828080, Note_off_c, 2, 76, 0
2, 7828080, Note_on_c, 2, 78, 50
2, 7828320, Note_off_c, 2, 78, 0
2, 7828320, Note_on_c, 2, 76, 50
2, 7828560, Note_off_c, 2, 76, 0
2, 7828560, Note_on_c, 2, 76, 50
2, 7829520, Note_off_c, 2, 76, 0
2, 7830000, Note_on_c, 2, 76, 50
2, 7830480, Note_off_c, 2, 76, 0
2, 7830480, Note_on_c, 2, 76, 50
2, 7830720, Note_off_c, 2, 76, 0
2, 7830720, Note_on_c, 2, 76, 50
2, 7830960, Note_off_c, 2, 76, 0
2, 7830960, Note_on_c, 2, 76, 50
2, 7831200, Note_off_c, 2, 76, 0
2, 7831200, Note_on_c, 2, 76, 50
2, 7831440, Note_off_c, 2, 76, 0
2, 7831440, Note_on_c, 2, 74, 50
2, 7831680, Note_off_c, 2, 74, 0
2, 7831680, Note_on_c, 2, 73, 50
2, 7831920, Note_off_c, 2, 73, 0
2, 7831920, Note_on_c, 2, 76, 50
2, 7832400, Note_off_c, 2, 76, 0
2, 7832400, Note_on_c, 2, 76, 50
2, 7832880, Note_off_c, 2, 76, 0
2, 7832880, Note_on_c, 2, 76, 50
2, 7833360, Note_off_c, 2, 76, 0
2, 7833360, Note_on_c, 2, 76, 50
2, 7833600, Note_off_c, 2, 76, 0
2, 7833600, Note_on_c, 2, 78, 50
2, 7833840, Note_off_c, 2, 78, 0
2, 7833840, Note_on_c, 2, 79, 50
2, 7834320, Note_off_c, 2, 79, 0
2, 7834320, Note_on_c, 2, 79, 50
2, 7834560, Note_off_c, 2, 79, 0
2, 7834560, Note_on_c, 2, 79, 50
2, 7835280, Note_off_c, 2, 79, 0
2, 7835280, Note_on_c, 2, 78, 50
2, 7835520, Note_off_c, 2, 78, 0
2, 7835520, Note_on_c, 2, 76, 50
2, 7835760, Note_off_c, 2, 76, 0
2, 7835760, Note_on_c, 2, 78, 50
2, 7836000, Note_off_c, 2, 78, 0
2, 7836000, Note_on_c, 2, 76, 50
2, 7836240, Note_off_c, 2, 76, 0
2, 7836240, Note_on_c, 2, 76, 50
2, 7836480, Note_off_c, 2, 76, 0
2, 7836480, Note_on_c, 2, 76, 50
2, 7836720, Note_off_c, 2, 76, 0
2, 7836720, Note_on_c, 2, 69, 50
2, 7836960, Note_off_c, 2, 69, 0
2, 7836960, Note_on_c, 2, 69, 50
2, 7837200, Note_off_c, 2, 69, 0
2, 7837200, Note_on_c, 2, 73, 50
2, 7837680, Note_off_c, 2, 73, 0
2, 7837680, Note_on_c, 2, 74, 50
2, 7838160, Note_off_c, 2, 74, 0
2, 7838160, Note_on_c, 2, 74, 50
2, 7840080, Note_off_c, 2, 74, 0
2, 7840080, Note_on_c, 2, 74, 50
2, 7840320, Note_off_c, 2, 74, 0
2, 7840320, Note_on_c, 2, 76, 50
2, 7840800, Note_off_c, 2, 76, 0
2, 7840800, Note_on_c, 2, 76, 50
2, 7841040, Note_off_c, 2, 76, 0
2, 7841040, Note_on_c, 2, 79, 50
2, 7841520, Note_off_c, 2, 79, 0
2, 7841520, Note_on_c, 2, 81, 50
2, 7842000, Note_off_c, 2, 81, 0
2, 7842000, Note_on_c, 2, 81, 50
2, 7843920, Note_off_c, 2, 81, 0
2, 7843920, Note_on_c, 2, 81, 50
2, 7844880, Note_off_c, 2, 81, 0
2, 7844880, Note_on_c, 2, 69, 50
2, 7845120, Note_off_c, 2, 69, 0
2, 7845120, Note_on_c, 2, 73, 50
2, 7845360, Note_off_c, 2, 73, 0
2, 7845360, Note_on_c, 2, 76, 50
2, 7845840, Note_off_c, 2, 76, 0
2, 7845840, Note_on_c, 2, 76, 50
2, 7846080, Note_off_c, 2, 76, 0
2, 7846080, Note_on_c, 2, 76, 50
2, 7846560, Note_off_c, 2, 76, 0
2, 7846560, Note_on_c, 2, 76, 50
2, 7846800, Note_off_c, 2, 76, 0
2, 7846800, Note_on_c, 2, 74, 50
2, 7847040, Note_off_c, 2, 74, 0
2, 7847040, Note_on_c, 2, 73, 50
2, 7847280, Note_off_c, 2, 73, 0
2, 7847280, Note_on_c, 2, 76, 50
2, 7847760, Note_off_c, 2, 76, 0
2, 7847760, Note_on_c, 2, 76, 50
2, 7848000, Note_off_c, 2, 76, 0
2, 7848000, Note_on_c, 2, 76, 50
2, 7848720, Note_off_c, 2, 76, 0
2, 7848720, Note_on_c, 2, 76, 50
2, 7848960, Note_off_c, 2, 76, 0
2, 7848960, Note_on_c, 2, 78, 50
2, 7849200, Note_off_c, 2, 78, 0
2, 7849200, Note_on_c, 2, 79, 50
2, 7849680, Note_off_c, 2, 79, 0
2, 7849680, Note_on_c, 2, 79, 50
2, 7849920, Note_off_c, 2, 79, 0
2, 7849920, Note_on_c, 2, 79, 50
2, 7850640, Note_off_c, 2, 79, 0
2, 7850640, Note_on_c, 2, 78, 50
2, 7850880, Note_off_c, 2, 78, 0
2, 7850880, Note_on_c, 2, 76, 50
2, 7851120, Note_off_c, 2, 76, 0
2, 7851120, Note_on_c, 2, 78, 50
2, 7851360, Note_off_c, 2, 78, 0
2, 7851360, Note_on_c, 2, 76, 50
2, 7851600, Note_off_c, 2, 76, 0
2, 7851600, Note_on_c, 2, 76, 50
2, 7852560, Note_off_c, 2, 76, 0
2, 7852800, Note_on_c, 2, 73, 50
2, 7853040, Note_off_c, 2, 73, 0
2, 7853040, Note_on_c, 2, 76, 50
2, 7853520, Note_off_c, 2, 76, 0
2, 7853520, Note_on_c, 2, 76, 50
2, 7853760, Note_off_c, 2, 76, 0
2, 7853760, Note_on_c, 2, 76, 50
2, 7854240, Note_off_c, 2, 76, 0
2, 7854240, Note_on_c, 2, 76, 50
2, 7854480, Note_off_c, 2, 76, 0
2, 7854480, Note_on_c, 2, 74, 50
2, 7854720, Note_off_c, 2, 74, 0
2, 7854720, Note_on_c, 2, 73, 50
2, 7854960, Note_off_c, 2, 73, 0
2, 7854960, Note_on_c, 2, 76, 50
2, 7855440, Note_off_c, 2, 76, 0
2, 7855440, Note_on_c, 2, 76, 50
2, 7855680, Note_off_c, 2, 76, 0
2, 7855680, Note_on_c, 2, 76, 50
2, 7856400, Note_off_c, 2, 76, 0
2, 7856400, Note_on_c, 2, 76, 50
2, 7856640, Note_off_c, 2, 76, 0
2, 7856640, Note_on_c, 2, 78, 50
2, 7856880, Note_off_c, 2, 78, 0
2, 7856880, Note_on_c, 2, 79, 50
2, 7857360, Note_off_c, 2, 79, 0
2, 7857360, Note_on_c, 2, 79, 50
2, 7857600, Note_off_c, 2, 79, 0
2, 7857600, Note_on_c, 2, 79, 50
2, 7858320, Note_off_c, 2, 79, 0
2, 7858320, Note_on_c, 2, 78, 50
2, 7858560, Note_off_c, 2, 78, 0
2, 7858560, Note_on_c, 2, 76, 50
2, 7858800, Note_off_c, 2, 76, 0
2, 7858800, Note_on_c, 2, 78, 50
2, 7859040, Note_off_c, 2, 78, 0
2, 7859040, Note_on_c, 2, 76, 50
2, 7859280, Note_off_c, 2, 76, 0
2, 7859280, Note_on_c, 2, 76, 50
2, 7859520, Note_off_c, 2, 76, 0
2, 7859520, Note_on_c, 2, 76, 50
2, 7859760, Note_off_c, 2, 76, 0
2, 7859760, Note_on_c, 2, 69, 50
2, 7860000, Note_off_c, 2, 69, 0
2, 7860000, Note_on_c, 2, 69, 50
2, 7860240, Note_off_c, 2, 69, 0
2, 7860240, Note_on_c, 2, 73, 50
2, 7860720, Note_off_c, 2, 73, 0
2, 7860720, Note_on_c, 2, 74, 50
2, 7861200, Note_off_c, 2, 74, 0
2, 7861200, Note_on_c, 2, 74, 50
2, 7863120, Note_off_c, 2, 74, 0
2, 7863120, Note_on_c, 2, 74, 50
2, 7863360, Note_off_c, 2, 74, 0
2, 7863360, Note_on_c, 2, 76, 50
2, 7863840, Note_off_c, 2, 76, 0
2, 7863840, Note_on_c, 2, 76, 50
2, 7864080, Note_off_c, 2, 76, 0
2, 7864080, Note_on_c, 2, 79, 50
2, 7864560, Note_off_c, 2, 79, 0
2, 7864560, Note_on_c, 2, 81, 50
2, 7865040, Note_off_c, 2, 81, 0
2, 7865040, Note_on_c, 2, 81, 50
2, 7866960, Note_off_c, 2, 81, 0
2, 7866960, Note_on_c, 2, 81, 50
2, 7868400, Note_off_c, 2, 81, 0
2, 7868400, Note_on_c, 2, 74, 50
2, 7869120, Note_off_c, 2, 74, 0
2, 7869120, Note_on_c, 2, 76, 50
2, 7869360, Note_off_c, 2, 76, 0
2, 7869360, Note_on_c, 2, 78, 50
2, 7870320, Note_off_c, 2, 78, 0
2, 7870320, Note_on_c, 2, 78, 50
2, 7871280, Note_off_c, 2, 78, 0
2, 7871280, Note_on_c, 2, 76, 50
2, 7873200, Note_off_c, 2, 76, 0
2, 7873200, Note_on_c, 2, 76, 50
2, 7875120, Note_off_c, 2, 76, 0
2, 7875120, Note_on_c, 2, 76, 50
2, 7876080, Note_off_c, 2, 76, 0
2, 7883280, Note_on_c, 2, 73, 50
2, 7883520, Note_off_c, 2, 73, 0
2, 7883520, Note_on_c, 2, 73, 50
2, 7883760, Note_off_c, 2, 73, 0
2, 7883760, Note_on_c, 2, 76, 50
2, 7884240, Note_off_c, 2, 76, 0
2, 7884240, Note_on_c, 2, 76, 50
2, 7884720, Note_off_c, 2, 76, 0
2, 7884720, Note_on_c, 2, 76, 50
2, 7884960, Note_off_c, 2, 76, 0
2, 7884960, Note_on_c, 2, 76, 50
2, 7885200, Note_off_c, 2, 76, 0
2, 7885200, Note_on_c, 2, 74, 50
2, 7885440, Note_off_c, 2, 74, 0
2, 7885440, Note_on_c, 2, 73, 50
2, 7885680, Note_off_c, 2, 73, 0
2, 7885680, Note_on_c, 2, 76, 50
2, 7886160, Note_off_c, 2, 76, 0
2, 7886160, Note_on_c, 2, 76, 50
2, 7886640, Note_off_c, 2, 76, 0
2, 7886640, Note_on_c, 2, 76, 50
2, 7887120, Note_off_c, 2, 76, 0
2, 7887120, Note_on_c, 2, 76, 50
2, 7887360, Note_off_c, 2, 76, 0
2, 7887360, Note_on_c, 2, 78, 50
2, 7887600, Note_off_c, 2, 78, 0
2, 7887600, Note_on_c, 2, 79, 50
2, 7888080, Note_off_c, 2, 79, 0
2, 7888080, Note_on_c, 2, 79, 50
2, 7888320, Note_off_c, 2, 79, 0
2, 7888320, Note_on_c, 2, 79, 50
2, 7889040, Note_off_c, 2, 79, 0
2, 7889040, Note_on_c, 2, 78, 50
2, 7889280, Note_off_c, 2, 78, 0
2, 7889280, Note_on_c, 2, 76, 50
2, 7889520, Note_off_c, 2, 76, 0
2, 7889520, Note_on_c, 2, 78, 50
2, 7889760, Note_off_c, 2, 78, 0
2, 7889760, Note_on_c, 2, 76, 50
2, 7890000, Note_off_c, 2, 76, 0
2, 7890000, Note_on_c, 2, 76, 50
2, 7890960, Note_off_c, 2, 76, 0
2, 7890960, Note_on_c, 2, 73, 50
2, 7891200, Note_off_c, 2, 73, 0
2, 7891200, Note_on_c, 2, 74, 50
2, 7891440, Note_off_c, 2, 74, 0
2, 7891440, Note_on_c, 2, 76, 50
2, 7891920, Note_off_c, 2, 76, 0
2, 7891920, Note_on_c, 2, 76, 50
2, 7892400, Note_off_c, 2, 76, 0
2, 7892400, Note_on_c, 2, 76, 50
2, 7892640, Note_off_c, 2, 76, 0
2, 7892640, Note_on_c, 2, 76, 50
2, 7892880, Note_off_c, 2, 76, 0
2, 7892880, Note_on_c, 2, 74, 50
2, 7893120, Note_off_c, 2, 74, 0
2, 7893120, Note_on_c, 2, 73, 50
2, 7893360, Note_off_c, 2, 73, 0
2, 7893360, Note_on_c, 2, 76, 50
2, 7893840, Note_off_c, 2, 76, 0
2, 7893840, Note_on_c, 2, 76, 50
2, 7894320, Note_off_c, 2, 76, 0
2, 7894320, Note_on_c, 2, 76, 50
2, 7894800, Note_off_c, 2, 76, 0
2, 7894800, Note_on_c, 2, 76, 50
2, 7895040, Note_off_c, 2, 76, 0
2, 7895040, Note_on_c, 2, 78, 50
2, 7895280, Note_off_c, 2, 78, 0
2, 7895280, Note_on_c, 2, 79, 50
2, 7895760, Note_off_c, 2, 79, 0
2, 7895760, Note_on_c, 2, 79, 50
2, 7896000, Note_off_c, 2, 79, 0
2, 7896000, Note_on_c, 2, 79, 50
2, 7896720, Note_off_c, 2, 79, 0
2, 7896720, Note_on_c, 2, 78, 50
2, 7896960, Note_off_c, 2, 78, 0
2, 7896960, Note_on_c, 2, 76, 50
2, 7897200, Note_off_c, 2, 76, 0
2, 7897200, Note_on_c, 2, 78, 50
2, 7897440, Note_off_c, 2, 78, 0
2, 7897440, Note_on_c, 2, 76, 50
2, 7897680, Note_off_c, 2, 76, 0
2, 7897680, Note_on_c, 2, 76, 50
2, 7897920, Note_off_c, 2, 76, 0
2, 7897920, Note_on_c, 2, 76, 50
2, 7898160, Note_off_c, 2, 76, 0
2, 7898160, Note_on_c, 2, 69, 50
2, 7898400, Note_off_c, 2, 69, 0
2, 7898400, Note_on_c, 2, 69, 50
2, 7898640, Note_off_c, 2, 69, 0
2, 7898640, Note_on_c, 2, 73, 50
2, 7899120, Note_off_c, 2, 73, 0
2, 7899120, Note_on_c, 2, 74, 50
2, 7899600, Note_off_c, 2, 74, 0
2, 7899600, Note_on_c, 2, 74, 50
2, 7901520, Note_off_c, 2, 74, 0
2, 7901520, Note_on_c, 2, 74, 50
2, 7901760, Note_off_c, 2, 74, 0
2, 7901760, Note_on_c, 2, 76, 50
2, 7902240, Note_off_c, 2, 76, 0
2, 7902240, Note_on_c, 2, 76, 50
2, 7902480, Note_off_c, 2, 76, 0
2, 7902480, Note_on_c, 2, 79, 50
2, 7902960, Note_off_c, 2, 79, 0
2, 7902960, Note_on_c, 2, 81, 50
2, 7903440, Note_off_c, 2, 81, 0
2, 7903440, Note_on_c, 2, 81, 50
2, 7905360, Note_off_c, 2, 81, 0
2, 7905360, Note_on_c, 2, 81, 50
2, 7906320, Note_off_c, 2, 81, 0
2, 7906320, Note_on_c, 2, 69, 50
2, 7906560, Note_off_c, 2, 69, 0
2, 7906560, Note_on_c, 2, 73, 50
2, 7906800, Note_off_c, 2, 73, 0
2, 7906800, Note_on_c, 2, 76, 50
2, 7907280, Note_off_c, 2, 76, 0
2, 7907280, Note_on_c, 2, 76, 50
2, 7907520, Note_off_c, 2, 76, 0
2, 7907520, Note_on_c, 2, 76, 50
2, 7908000, Note_off_c, 2, 76, 0
2, 7908000, Note_on_c, 2, 76, 50
2, 7908240, Note_off_c, 2, 76, 0
2, 7908240, Note_on_c, 2, 74, 50
2, 7908480, Note_off_c, 2, 74, 0
2, 7908480, Note_on_c, 2, 73, 50
2, 7908720, Note_off_c, 2, 73, 0
2, 7908720, Note_on_c, 2, 76, 50
2, 7909200, Note_off_c, 2, 76, 0
2, 7909200, Note_on_c, 2, 76, 50
2, 7909440, Note_off_c, 2, 76, 0
2, 7909440, Note_on_c, 2, 76, 50
2, 7910160, Note_off_c, 2, 76, 0
2, 7910160, Note_on_c, 2, 76, 50
2, 7910400, Note_off_c, 2, 76, 0
2, 7910400, Note_on_c, 2, 78, 50
2, 7910640, Note_off_c, 2, 78, 0
2, 7910640, Note_on_c, 2, 79, 50
2, 7911120, Note_off_c, 2, 79, 0
2, 7911120, Note_on_c, 2, 79, 50
2, 7911360, Note_off_c, 2, 79, 0
2, 7911360, Note_on_c, 2, 79, 50
2, 7911840, Note_off_c, 2, 79, 0
2, 7911840, Note_on_c, 2, 79, 50
2, 7912080, Note_off_c, 2, 79, 0
2, 7912080, Note_on_c, 2, 78, 50
2, 7912320, Note_off_c, 2, 78, 0
2, 7912320, Note_on_c, 2, 76, 50
2, 7912560, Note_off_c, 2, 76, 0
2, 7912560, Note_on_c, 2, 78, 50
2, 7912800, Note_off_c, 2, 78, 0
2, 7912800, Note_on_c, 2, 76, 50
2, 7913040, Note_off_c, 2, 76, 0
2, 7913040, Note_on_c, 2, 76, 50
2, 7914000, Note_off_c, 2, 76, 0
2, 7914000, Note_on_c, 2, 73, 50
2, 7914240, Note_off_c, 2, 73, 0
2, 7914240, Note_on_c, 2, 74, 50
2, 7914480, Note_off_c, 2, 74, 0
2, 7914480, Note_on_c, 2, 76, 50
2, 7914960, Note_off_c, 2, 76, 0
2, 7914960, Note_on_c, 2, 76, 50
2, 7915200, Note_off_c, 2, 76, 0
2, 7915200, Note_on_c, 2, 76, 50
2, 7915680, Note_off_c, 2, 76, 0
2, 7915680, Note_on_c, 2, 76, 50
2, 7915920, Note_off_c, 2, 76, 0
2, 7915920, Note_on_c, 2, 74, 50
2, 7916160, Note_off_c, 2, 74, 0
2, 7916160, Note_on_c, 2, 73, 50
2, 7916400, Note_off_c, 2, 73, 0
2, 7916400, Note_on_c, 2, 76, 50
2, 7916880, Note_off_c, 2, 76, 0
2, 7916880, Note_on_c, 2, 76, 50
2, 7917120, Note_off_c, 2, 76, 0
2, 7917120, Note_on_c, 2, 76, 50
2, 7917840, Note_off_c, 2, 76, 0
2, 7917840, Note_on_c, 2, 76, 50
2, 7918080, Note_off_c, 2, 76, 0
2, 7918080, Note_on_c, 2, 78, 50
2, 7918320, Note_off_c, 2, 78, 0
2, 7918320, Note_on_c, 2, 79, 50
2, 7918800, Note_off_c, 2, 79, 0
2, 7918800, Note_on_c, 2, 79, 50
2, 7919040, Note_off_c, 2, 79, 0
2, 7919040, Note_on_c, 2, 79, 50
2, 7919760, Note_off_c, 2, 79, 0
2, 7919760, Note_on_c, 2, 78, 50
2, 7920000, Note_off_c, 2, 78, 0
2, 7920000, Note_on_c, 2, 76, 50
2, 7920240, Note_off_c, 2, 76, 0
2, 7920240, Note_on_c, 2, 78, 50
2, 7920480, Note_off_c, 2, 78, 0
2, 7920480, Note_on_c, 2, 76, 50
2, 7920720, Note_off_c, 2, 76, 0
2, 7920720, Note_on_c, 2, 76, 50
2, 7920960, Note_off_c, 2, 76, 0
2, 7920960, Note_on_c, 2, 76, 50
2, 7921200, Note_off_c, 2, 76, 0
2, 7921200, Note_on_c, 2, 69, 50
2, 7921440, Note_off_c, 2, 69, 0
2, 7921440, Note_on_c, 2, 69, 50
2, 7921680, Note_off_c, 2, 69, 0
2, 7921680, Note_on_c, 2, 73, 50
2, 7922160, Note_off_c, 2, 73, 0
2, 7922160, Note_on_c, 2, 74, 50
2, 7922640, Note_off_c, 2, 74, 0
2, 7922640, Note_on_c, 2, 74, 50
2, 7924560, Note_off_c, 2, 74, 0
2, 7924560, Note_on_c, 2, 74, 50
2, 7924800, Note_off_c, 2, 74, 0
2, 7924800, Note_on_c, 2, 76, 50
2, 7925280, Note_off_c, 2, 76, 0
2, 7925280, Note_on_c, 2, 76, 50
2, 7925520, Note_off_c, 2, 76, 0
2, 7925520, Note_on_c, 2, 79, 50
2, 7926000, Note_off_c, 2, 79, 0
2, 7926000, Note_on_c, 2, 81, 50
2, 7926480, Note_off_c, 2, 81, 0
2, 7926480, Note_on_c, 2, 81, 50
2, 7928400, Note_off_c, 2, 81, 0
2, 7928400, Note_on_c, 2, 81, 50
2, 7929840, Note_off_c, 2, 81, 0
2, 7929840, Note_on_c, 2, 74, 50
2, 7930560, Note_off_c, 2, 74, 0
2, 7930560, Note_on_c, 2, 76, 50
2, 7930800, Note_off_c, 2, 76, 0
2, 7930800, Note_on_c, 2, 78, 50
2, 7931760, Note_off_c, 2, 78, 0
2, 7931760, Note_on_c, 2, 78, 50
2, 7932720, Note_off_c, 2, 78, 0
2, 7932720, Note_on_c, 2, 76, 50
2, 7934640, Note_off_c, 2, 76, 0
2, 7934640, Note_on_c, 2, 76, 50
2, 7936560, Note_off_c, 2, 76, 0
2, 7936560, Note_on_c, 2, 76, 50
2, 7937520, Note_off_c, 2, 76, 0
2, 7948080, Note_on_c, 2, 74, 50
2, 7948320, Note_off_c, 2, 74, 0
2, 7948320, Note_on_c, 2, 76, 50
2, 7948560, Note_off_c, 2, 76, 0
2, 7948560, Note_on_c, 2, 76, 50
2, 7949040, Note_off_c, 2, 76, 0
2, 7949040, Note_on_c, 2, 76, 50
2, 7949520, Note_off_c, 2, 76, 0
2, 7949520, Note_on_c, 2, 76, 50
2, 7950960, Note_off_c, 2, 76, 0
2, 7955760, Note_on_c, 2, 74, 50
2, 7956000, Note_off_c, 2, 74, 0
2, 7956000, Note_on_c, 2, 76, 50
2, 7956240, Note_off_c, 2, 76, 0
2, 7956240, Note_on_c, 2, 76, 50
2, 7956720, Note_off_c, 2, 76, 0
2, 7956720, Note_on_c, 2, 76, 50
2, 7957200, Note_off_c, 2, 76, 0
2, 7957200, Note_on_c, 2, 76, 50
2, 7958640, Note_off_c, 2, 76, 0
2, 7963440, Note_on_c, 2, 74, 50
2, 7963680, Note_off_c, 2, 74, 0
2, 7963680, Note_on_c, 2, 76, 50
2, 7963920, Note_off_c, 2, 76, 0
2, 7963920, Note_on_c, 2, 76, 50
2, 7964400, Note_off_c, 2, 76, 0
2, 7964400, Note_on_c, 2, 76, 50
2, 7964880, Note_off_c, 2, 76, 0
2, 7964880, Note_on_c, 2, 76, 50
2, 7966320, Note_off_c, 2, 76, 0
2, 7971120, Note_on_c, 2, 74, 50
2, 7971360, Note_off_c, 2, 74, 0
2, 7971360, Note_on_c, 2, 76, 50
2, 7971600, Note_off_c, 2, 76, 0
2, 7971600, Note_on_c, 2, 76, 50
2, 7972080, Note_off_c, 2, 76, 0
2, 7972080, Note_on_c, 2, 76, 50
2, 7972560, Note_off_c, 2, 76, 0
2, 7972560, Note_on_c, 2, 76, 50
2, 7974000, Note_off_c, 2, 76, 0
2, 7978800, Note_on_c, 2, 74, 50
2, 7979040, Note_off_c, 2, 74, 0
2, 7979040, Note_on_c, 2, 76, 50
2, 7979280, Note_off_c, 2, 76, 0
2, 7979280, Note_on_c, 2, 76, 50
2, 7979760, Note_off_c, 2, 76, 0
2, 7979760, Note_on_c, 2, 76, 50
2, 7980240, Note_off_c, 2, 76, 0
2, 7980240, Note_on_c, 2, 76, 50
2, 7981680, Note_off_c, 2, 76, 0
2, 7986480, Note_on_c, 2, 74, 50
2, 7986720, Note_off_c, 2, 74, 0
2, 7986720, Note_on_c, 2, 76, 50
2, 7986960, Note_off_c, 2, 76, 0
2, 7986960, Note_on_c, 2, 76, 50
2, 7987440, Note_off_c, 2, 76, 0
2, 7987440, Note_on_c, 2, 76, 50
2, 7987920, Note_off_c, 2, 76, 0
2, 7987920, Note_on_c, 2, 76, 50
2, 7989360, Note_off_c, 2, 76, 0
2, 7994160, Note_on_c, 2, 74, 50
2, 7994400, Note_off_c, 2, 74, 0
2, 7994400, Note_on_c, 2, 76, 50
2, 7994640, Note_off_c, 2, 76, 0
2, 7994640, Note_on_c, 2, 76, 50
2, 7995120, Note_off_c, 2, 76, 0
2, 7995120, Note_on_c, 2, 76, 50
2, 7995600, Note_off_c, 2, 76, 0
2, 7995600, Note_on_c, 2, 76, 50
2, 7997040, Note_off_c, 2, 76, 0
2, 8001840, Note_on_c, 2, 74, 50
2, 8002080, Note_off_c, 2, 74, 0
2, 8002080, Note_on_c, 2, 76, 50
2, 8002320, Note_off_c, 2, 76, 0
2, 8002320, Note_on_c, 2, 76, 50
2, 8002800, Note_off_c, 2, 76, 0
2, 8002800, Note_on_c, 2, 76, 50
2, 8003280, Note_off_c, 2, 76, 0
2, 8003280, Note_on_c, 2, 76, 50
2, 8004720, Note_off_c, 2, 76, 0
2, 8013840, Note_on_c, 2, 66, 50
2, 8014320, Note_off_c, 2, 66, 0
2, 8014320, Note_on_c, 2, 64, 50
2, 8014800, Note_off_c, 2, 64, 0
2, 8014800, Note_on_c, 2, 66, 50
2, 8015040, Note_off_c, 2, 66, 0
2, 8015040, Note_on_c, 2, 64, 50
2, 8015280, Note_off_c, 2, 64, 0
2, 8015280, Note_on_c, 2, 66, 50
2, 8015520, Note_off_c, 2, 66, 0
2, 8015520, Note_on_c, 2, 64, 50
2, 8015760, Note_off_c, 2, 64, 0
2, 8015760, Note_on_c, 2, 66, 50
2, 8016000, Note_off_c, 2, 66, 0
2, 8016000, Note_on_c, 2, 64, 50
2, 8016240, Note_off_c, 2, 64, 0
2, 8016240, Note_on_c, 2, 66, 50
2, 8016720, Note_off_c, 2, 66, 0
2, 8016720, Note_on_c, 2, 61, 50
2, 8017200, Note_off_c, 2, 61, 0
2, 8017680, Note_on_c, 2, 66, 50
2, 8018160, Note_off_c, 2, 66, 0
2, 8018160, Note_on_c, 2, 61, 50
2, 8018640, Note_off_c, 2, 61, 0
2, 8018640, Note_on_c, 2, 59, 50
2, 8019120, Note_off_c, 2, 59, 0
2, 8019120, Note_on_c, 2, 61, 50
2, 8019360, Note_off_c, 2, 61, 0
2, 8019360, Note_on_c, 2, 59, 50
2, 8019600, Note_off_c, 2, 59, 0
2, 8019600, Note_on_c, 2, 57, 50
2, 8019840, Note_off_c, 2, 57, 0
2, 8019840, Note_on_c, 2, 59, 50
2, 8020080, Note_off_c, 2, 59, 0
2, 8020080, Note_on_c, 2, 61, 50
2, 8020560, Note_off_c, 2, 61, 0
2, 8020560, Note_on_c, 2, 57, 50
2, 8021040, Note_off_c, 2, 57, 0
2, 8024400, Note_on_c, 2, 66, 50
2, 8024760, Note_off_c, 2, 66, 0
2, 8024880, Note_on_c, 2, 61, 50
2, 8025120, Note_off_c, 2, 61, 0
2, 8025120, Note_on_c, 2, 59, 50
2, 8025360, Note_off_c, 2, 59, 0
2, 8025360, Note_on_c, 2, 57, 50
2, 8025960, Note_off_c, 2, 57, 0
2, 8026560, Note_on_c, 2, 66, 50
2, 8027640, Note_off_c, 2, 66, 0
2, 8027760, Note_on_c, 2, 61, 50
2, 8028000, Note_off_c, 2, 61, 0
2, 8028000, Note_on_c, 2, 59, 50
2, 8028240, Note_off_c, 2, 59, 0
2, 8028240, Note_on_c, 2, 57, 50
2, 8028480, Note_off_c, 2, 57, 0
2, 8028480, Note_on_c, 2, 59, 50
2, 8028720, Note_off_c, 2, 59, 0
2, 8028720, Note_on_c, 2, 61, 50
2, 8029200, Note_off_c, 2, 61, 0
2, 8029200, Note_on_c, 2, 59, 50
2, 8029560, Note_off_c, 2, 59, 0
2, 8029680, Note_on_c, 2, 57, 50
2, 8030640, Note_off_c, 2, 57, 0
2, 8031840, Note_on_c, 2, 66, 50
2, 8032320, Note_off_c, 2, 66, 0
2, 8032320, Note_on_c, 2, 61, 50
2, 8032560, Note_off_c, 2, 61, 0
2, 8032560, Note_on_c, 2, 64, 50
2, 8032800, Note_off_c, 2, 64, 0
2, 8032800, Note_on_c, 2, 61, 50
2, 8033640, Note_off_c, 2, 61, 0
2, 8037120, Note_on_c, 2, 61, 50
2, 8037240, Note_off_c, 2, 61, 0
2, 8037360, Note_on_c, 2, 64, 50
2, 8037600, Note_off_c, 2, 64, 0
2, 8037600, Note_on_c, 2, 61, 50
2, 8037840, Note_off_c, 2, 61, 0
2, 8038080, Note_on_c, 2, 57, 50
2, 8038200, Note_off_c, 2, 57, 0
2, 8038320, Note_on_c, 2, 61, 50
2, 8038800, Note_off_c, 2, 61, 0
2, 8038800, Note_on_c, 2, 57, 50
2, 8039040, Note_off_c, 2, 57, 0
2, 8039040, Note_on_c, 2, 61, 50
2, 8039760, Note_off_c, 2, 61, 0
2, 8039760, Note_on_c, 2, 59, 50
2, 8039880, Note_off_c, 2, 59, 0
2, 8039880, Note_on_c, 2, 61, 50
2, 8040000, Note_off_c, 2, 61, 0
2, 8040000, Note_on_c, 2, 59, 50
2, 8040120, Note_off_c, 2, 59, 0
2, 8040240, Note_on_c, 2, 57, 50
2, 8040600, Note_off_c, 2, 57, 0
2, 8040720, Note_on_c, 2, 57, 50
2, 8040960, Note_off_c, 2, 57, 0
2, 8040960, Note_on_c, 2, 54, 50
2, 8041200, Note_off_c, 2, 54, 0
2, 8041200, Note_on_c, 2, 57, 50
2, 8041440, Note_off_c, 2, 57, 0
2, 8041440, Note_on_c, 2, 57, 50
2, 8041680, Note_off_c, 2, 57, 0
2, 8042160, Note_on_c, 2, 57, 50
2, 8042400, Note_off_c, 2, 57, 0
2, 8042400, Note_on_c, 2, 57, 50
2, 8042640, Note_off_c, 2, 57, 0
2, 8042640, Note_on_c, 2, 59, 50
2, 8042880, Note_off_c, 2, 59, 0
2, 8043000, Note_on_c, 2, 57, 50
2, 8043720, Note_off_c, 2, 57, 0
2, 8044320, Note_on_c, 2, 62, 50
2, 8044440, Note_off_c, 2, 62, 0
2, 8044560, Note_on_c, 2, 62, 50
2, 8044680, Note_off_c, 2, 62, 0
2, 8044800, Note_on_c, 2, 62, 50
2, 8044920, Note_off_c, 2, 62, 0
2, 8045040, Note_on_c, 2, 62, 50
2, 8045160, Note_off_c, 2, 62, 0
2, 8045280, Note_on_c, 2, 62, 50
2, 8045640, Note_off_c, 2, 62, 0
2, 8046000, Note_on_c, 2, 62, 50
2, 8046240, Note_off_c, 2, 62, 0
2, 8046240, Note_on_c, 2, 64, 50
2, 8046600, Note_off_c, 2, 64, 0
2, 8046720, Note_on_c, 2, 62, 50
2, 8047680, Note_off_c, 2, 62, 0
2, 8048160, Note_on_c, 2, 64, 50
2, 8048280, Note_off_c, 2, 64, 0
2, 8048400, Note_on_c, 2, 64, 50
2, 8048640, Note_off_c, 2, 64, 0
2, 8048640, Note_on_c, 2, 61, 50
2, 8048760, Note_off_c, 2, 61, 0
2, 8048880, Note_on_c, 2, 64, 50
2, 8049120, Note_off_c, 2, 64, 0
2, 8049120, Note_on_c, 2, 64, 50
2, 8049360, Note_off_c, 2, 64, 0
2, 8049600, Note_on_c, 2, 64, 50
2, 8049720, Note_off_c, 2, 64, 0
2, 8049840, Note_on_c, 2, 66, 50
2, 8050080, Note_off_c, 2, 66, 0
2, 8050080, Note_on_c, 2, 64, 50
2, 8050320, Note_off_c, 2, 64, 0
2, 8050320, Note_on_c, 2, 61, 50
2, 8050440, Note_off_c, 2, 61, 0
2, 8050560, Note_on_c, 2, 64, 50
2, 8051520, Note_off_c, 2, 64, 0
2, 8052000, Note_on_c, 2, 64, 50
2, 8052240, Note_off_c, 2, 64, 0
2, 8052240, Note_on_c, 2, 66, 50
2, 8052480, Note_off_c, 2, 66, 0
2, 8052480, Note_on_c, 2, 64, 50
2, 8052600, Note_off_c, 2, 64, 0
2, 8052720, Note_on_c, 2, 66, 50
2, 8052960, Note_off_c, 2, 66, 0
2, 8052960, Note_on_c, 2, 64, 50
2, 8053200, Note_off_c, 2, 64, 0
2, 8053200, Note_on_c, 2, 66, 50
2, 8053440, Note_off_c, 2, 66, 0
2, 8053440, Note_on_c, 2, 64, 50
2, 8053680, Note_off_c, 2, 64, 0
2, 8053680, Note_on_c, 2, 66, 50
2, 8053920, Note_off_c, 2, 66, 0
2, 8053920, Note_on_c, 2, 64, 50
2, 8054160, Note_off_c, 2, 64, 0
2, 8054160, Note_on_c, 2, 66, 50
2, 8054400, Note_off_c, 2, 66, 0
2, 8054400, Note_on_c, 2, 64, 50
2, 8054640, Note_off_c, 2, 64, 0
2, 8054640, Note_on_c, 2, 66, 50
2, 8055120, Note_off_c, 2, 66, 0
2, 8055120, Note_on_c, 2, 61, 50
2, 8055600, Note_off_c, 2, 61, 0
2, 8056080, Note_on_c, 2, 66, 50
2, 8056560, Note_off_c, 2, 66, 0
2, 8056560, Note_on_c, 2, 61, 50
2, 8057040, Note_off_c, 2, 61, 0
2, 8057040, Note_on_c, 2, 59, 50
2, 8057520, Note_off_c, 2, 59, 0
2, 8057520, Note_on_c, 2, 61, 50
2, 8057760, Note_off_c, 2, 61, 0
2, 8057760, Note_on_c, 2, 59, 50
2, 8058120, Note_off_c, 2, 59, 0
2, 8058240, Note_on_c, 2, 61, 50
2, 8058720, Note_off_c, 2, 61, 0
2, 8058720, Note_on_c, 2, 59, 50
2, 8058960, Note_off_c, 2, 59, 0
2, 8058960, Note_on_c, 2, 57, 50
2, 8059440, Note_off_c, 2, 57, 0
2, 8059680, Note_on_c, 2, 59, 50
2, 8059800, Note_off_c, 2, 59, 0
2, 8059920, Note_on_c, 2, 61, 50
2, 8060160, Note_off_c, 2, 61, 0
2, 8060160, Note_on_c, 2, 59, 50
2, 8060400, Note_off_c, 2, 59, 0
2, 8060400, Note_on_c, 2, 61, 50
2, 8061240, Note_off_c, 2, 61, 0
2, 8061600, Note_on_c, 2, 59, 50
2, 8061840, Note_off_c, 2, 59, 0
2, 8061840, Note_on_c, 2, 61, 50
2, 8062080, Note_off_c, 2, 61, 0
2, 8062080, Note_on_c, 2, 59, 50
2, 8062320, Note_off_c, 2, 59, 0
2, 8062320, Note_on_c, 2, 61, 50
2, 8062560, Note_off_c, 2, 61, 0
2, 8062560, Note_on_c, 2, 59, 50
2, 8063040, Note_off_c, 2, 59, 0
2, 8063760, Note_on_c, 2, 64, 50
2, 8064000, Note_off_c, 2, 64, 0
2, 8064000, Note_on_c, 2, 61, 50
2, 8064240, Note_off_c, 2, 61, 0
2, 8064240, Note_on_c, 2, 64, 50
2, 8064360, Note_off_c, 2, 64, 0
2, 8064480, Note_on_c, 2, 64, 50
2, 8064600, Note_off_c, 2, 64, 0
2, 8064720, Note_on_c, 2, 64, 50
2, 8064840, Note_off_c, 2, 64, 0
2, 8064960, Note_on_c, 2, 64, 50
2, 8065080, Note_off_c, 2, 64, 0
2, 8065200, Note_on_c, 2, 66, 50
2, 8065440, Note_off_c, 2, 66, 0
2, 8065440, Note_on_c, 2, 64, 50
2, 8065680, Note_off_c, 2, 64, 0
2, 8065680, Note_on_c, 2, 61, 50
2, 8065800, Note_off_c, 2, 61, 0
2, 8065920, Note_on_c, 2, 64, 50
2, 8066400, Note_off_c, 2, 64, 0
2, 8066640, Note_on_c, 2, 64, 50
2, 8066760, Note_off_c, 2, 64, 0
2, 8066880, Note_on_c, 2, 64, 50
2, 8067000, Note_off_c, 2, 64, 0
2, 8067120, Note_on_c, 2, 66, 50
2, 8067480, Note_off_c, 2, 66, 0
2, 8067600, Note_on_c, 2, 61, 50
2, 8067960, Note_off_c, 2, 61, 0
2, 8067960, Note_on_c, 2, 59, 50
2, 8068080, Note_off_c, 2, 59, 0
2, 8068080, Note_on_c, 2, 57, 50
2, 8068440, Note_off_c, 2, 57, 0
2, 8068440, Note_on_c, 2, 59, 50
2, 8068560, Note_off_c, 2, 59, 0
2, 8068560, Note_on_c, 2, 61, 50
2, 8069280, Note_off_c, 2, 61, 0
2, 8069760, Note_on_c, 2, 66, 50
2, 8070960, Note_off_c, 2, 66, 0
2, 8070960, Note_on_c, 2, 61, 50
2, 8071320, Note_off_c, 2, 61, 0
2, 8071320, Note_on_c, 2, 59, 50
2, 8071440, Note_off_c, 2, 59, 0
2, 8071440, Note_on_c, 2, 57, 50
2, 8072640, Note_off_c, 2, 57, 0
2, 8073120, Note_on_c, 2, 66, 50
2, 8073840, Note_off_c, 2, 66, 0
2, 8073840, Note_on_c, 2, 61, 50
2, 8074080, Note_off_c, 2, 61, 0
2, 8074080, Note_on_c, 2, 59, 50
2, 8074320, Note_off_c, 2, 59, 0
2, 8074320, Note_on_c, 2, 57, 50
2, 8074560, Note_off_c, 2, 57, 0
2, 8074560, Note_on_c, 2, 59, 50
2, 8074680, Note_off_c, 2, 59, 0
2, 8074800, Note_on_c, 2, 61, 50
2, 8075280, Note_off_c, 2, 61, 0
2, 8075280, Note_on_c, 2, 59, 50
2, 8075760, Note_off_c, 2, 59, 0
2, 8075760, Note_on_c, 2, 61, 50
2, 8076240, Note_off_c, 2, 61, 0
2, 8076240, Note_on_c, 2, 59, 50
2, 8076720, Note_off_c, 2, 59, 0
2, 8076720, Note_on_c, 2, 61, 50
2, 8076840, Note_off_c, 2, 61, 0
2, 8076840, Note_on_c, 2, 59, 50
2, 8076960, Note_off_c, 2, 59, 0
2, 8076960, Note_on_c, 2, 57, 50
2, 8077440, Note_off_c, 2, 57, 0
2, 8077920, Note_on_c, 2, 66, 50
2, 8078400, Note_off_c, 2, 66, 0
2, 8078400, Note_on_c, 2, 61, 50
2, 8078640, Note_off_c, 2, 61, 0
2, 8078640, Note_on_c, 2, 64, 50
2, 8078880, Note_off_c, 2, 64, 0
2, 8078880, Note_on_c, 2, 61, 50
2, 8080080, Note_off_c, 2, 61, 0
2, 8098560, Note_on_c, 2, 61, 50
2, 8098680, Note_off_c, 2, 61, 0
2, 8098800, Note_on_c, 2, 64, 50
2, 8099040, Note_off_c, 2, 64, 0
2, 8099040, Note_on_c, 2, 61, 50
2, 8099520, Note_off_c, 2, 61, 0
2, 8099520, Note_on_c, 2, 57, 50
2, 8099760, Note_off_c, 2, 57, 0
2, 8099760, Note_on_c, 2, 61, 50
2, 8100240, Note_off_c, 2, 61, 0
2, 8100240, Note_on_c, 2, 57, 50
2, 8100480, Note_off_c, 2, 57, 0
2, 8100480, Note_on_c, 2, 61, 50
2, 8101080, Note_off_c, 2, 61, 0
2, 8101200, Note_on_c, 2, 59, 50
2, 8101320, Note_off_c, 2, 59, 0
2, 8101320, Note_on_c, 2, 61, 50
2, 8101440, Note_off_c, 2, 61, 0
2, 8101440, Note_on_c, 2, 59, 50
2, 8101560, Note_off_c, 2, 59, 0
2, 8101680, Note_on_c, 2, 57, 50
2, 8101920, Note_off_c, 2, 57, 0
2, 8102160, Note_on_c, 2, 57, 50
2, 8102400, Note_off_c, 2, 57, 0
2, 8102400, Note_on_c, 2, 54, 50
2, 8102640, Note_off_c, 2, 54, 0
2, 8102640, Note_on_c, 2, 57, 50
2, 8102760, Note_off_c, 2, 57, 0
2, 8102880, Note_on_c, 2, 57, 50
2, 8103360, Note_off_c, 2, 57, 0
2, 8103600, Note_on_c, 2, 57, 50
2, 8103720, Note_off_c, 2, 57, 0
2, 8103840, Note_on_c, 2, 57, 50
2, 8104080, Note_off_c, 2, 57, 0
2, 8104080, Note_on_c, 2, 59, 50
2, 8104320, Note_off_c, 2, 59, 0
2, 8104320, Note_on_c, 2, 57, 50
2, 8104800, Note_off_c, 2, 57, 0
2, 8105760, Note_on_c, 2, 59, 50
2, 8105880, Note_off_c, 2, 59, 0
2, 8106000, Note_on_c, 2, 62, 50
2, 8106240, Note_off_c, 2, 62, 0
2, 8106240, Note_on_c, 2, 59, 50
2, 8106480, Note_off_c, 2, 59, 0
2, 8106480, Note_on_c, 2, 62, 50
2, 8106720, Note_off_c, 2, 62, 0
2, 8106720, Note_on_c, 2, 62, 50
2, 8107080, Note_off_c, 2, 62, 0
2, 8107200, Note_on_c, 2, 59, 50
2, 8107320, Note_off_c, 2, 59, 0
2, 8107440, Note_on_c, 2, 62, 50
2, 8107680, Note_off_c, 2, 62, 0
2, 8107920, Note_on_c, 2, 64, 50
2, 8108160, Note_off_c, 2, 64, 0
2, 8108160, Note_on_c, 2, 62, 50
2, 8108760, Note_off_c, 2, 62, 0
2, 8109600, Note_on_c, 2, 61, 50
2, 8109840, Note_off_c, 2, 61, 0
2, 8109840, Note_on_c, 2, 64, 50
2, 8110080, Note_off_c, 2, 64, 0
2, 8110080, Note_on_c, 2, 61, 50
2, 8110320, Note_off_c, 2, 61, 0
2, 8110320, Note_on_c, 2, 64, 50
2, 8110440, Note_off_c, 2, 64, 0
2, 8110560, Note_on_c, 2, 64, 50
2, 8110680, Note_off_c, 2, 64, 0
2, 8110800, Note_on_c, 2, 64, 50
2, 8110920, Note_off_c, 2, 64, 0
2, 8111040, Note_on_c, 2, 64, 50
2, 8111280, Note_off_c, 2, 64, 0
2, 8111280, Note_on_c, 2, 66, 50
2, 8111520, Note_off_c, 2, 66, 0
2, 8111520, Note_on_c, 2, 64, 50
2, 8111760, Note_off_c, 2, 64, 0
2, 8111760, Note_on_c, 2, 61, 50
2, 8112000, Note_off_c, 2, 61, 0
2, 8112000, Note_on_c, 2, 64, 50
2, 8112720, Note_off_c, 2, 64, 0
2, 8112720, Note_on_c, 2, 64, 50
2, 8112840, Note_off_c, 2, 64, 0
2, 8112960, Note_on_c, 2, 64, 50
2, 8113080, Note_off_c, 2, 64, 0
2, 8113200, Note_on_c, 2, 66, 50
2, 8113560, Note_off_c, 2, 66, 0
2, 8113680, Note_on_c, 2, 61, 50
2, 8114040, Note_off_c, 2, 61, 0
2, 8114040, Note_on_c, 2, 59, 50
2, 8114160, Note_off_c, 2, 59, 0
2, 8114160, Note_on_c, 2, 57, 50
2, 8114520, Note_off_c, 2, 57, 0
2, 8114520, Note_on_c, 2, 59, 50
2, 8114640, Note_off_c, 2, 59, 0
2, 8114640, Note_on_c, 2, 61, 50
2, 8115240, Note_off_c, 2, 61, 0
2, 8115840, Note_on_c, 2, 66, 50
2, 8117040, Note_off_c, 2, 66, 0
2, 8117040, Note_on_c, 2, 61, 50
2, 8117400, Note_off_c, 2, 61, 0
2, 8117400, Note_on_c, 2, 59, 50
2, 8117520, Note_off_c, 2, 59, 0
2, 8117520, Note_on_c, 2, 57, 50
2, 8118720, Note_off_c, 2, 57, 0
2, 8119200, Note_on_c, 2, 66, 50
2, 8119920, Note_off_c, 2, 66, 0
2, 8119920, Note_on_c, 2, 61, 50
2, 8120160, Note_off_c, 2, 61, 0
2, 8120160, Note_on_c, 2, 59, 50
2, 8120400, Note_off_c, 2, 59, 0
2, 8120400, Note_on_c, 2, 57, 50
2, 8120640, Note_off_c, 2, 57, 0
2, 8120640, Note_on_c, 2, 59, 50
2, 8120760, Note_off_c, 2, 59, 0
2, 8120880, Note_on_c, 2, 61, 50
2, 8121360, Note_off_c, 2, 61, 0
2, 8121360, Note_on_c, 2, 59, 50
2, 8121840, Note_off_c, 2, 59, 0
2, 8121840, Note_on_c, 2, 61, 50
2, 8122320, Note_off_c, 2, 61, 0
2, 8122320, Note_on_c, 2, 59, 50
2, 8122800, Note_off_c, 2, 59, 0
2, 8122800, Note_on_c, 2, 61, 50
2, 8122920, Note_off_c, 2, 61, 0
2, 8122920, Note_on_c, 2, 59, 50
2, 8123040, Note_off_c, 2, 59, 0
2, 8123040, Note_on_c, 2, 57, 50
2, 8123520, Note_off_c, 2, 57, 0
2, 8124000, Note_on_c, 2, 64, 50
2, 8124120, Note_off_c, 2, 64, 0
2, 8124240, Note_on_c, 2, 64, 50
2, 8124360, Note_off_c, 2, 64, 0
2, 8124480, Note_on_c, 2, 64, 50
2, 8124600, Note_off_c, 2, 64, 0
2, 8124720, Note_on_c, 2, 66, 50
2, 8124960, Note_off_c, 2, 66, 0
2, 8124960, Note_on_c, 2, 64, 50
2, 8125200, Note_off_c, 2, 64, 0
2, 8125200, Note_on_c, 2, 61, 50
2, 8125440, Note_off_c, 2, 61, 0
2, 8125440, Note_on_c, 2, 64, 50
2, 8125680, Note_off_c, 2, 64, 0
2, 8126160, Note_on_c, 2, 66, 50
2, 8126400, Note_off_c, 2, 66, 0
2, 8126400, Note_on_c, 2, 64, 50
2, 8126520, Note_off_c, 2, 64, 0
2, 8126640, Note_on_c, 2, 66, 50
2, 8127120, Note_off_c, 2, 66, 0
2, 8127120, Note_on_c, 2, 64, 50
2, 8127360, Note_off_c, 2, 64, 0
2, 8127360, Note_on_c, 2, 64, 50
2, 8127840, Note_off_c, 2, 64, 0
2, 8127840, Note_on_c, 2, 64, 50
2, 8128200, Note_off_c, 2, 64, 0
2, 8128200, Note_on_c, 2, 66, 50
2, 8128440, Note_off_c, 2, 66, 0
2, 8128440, Note_on_c, 2, 64, 50
2, 8128680, Note_off_c, 2, 64, 0
2, 8128800, Note_on_c, 2, 69, 50
2, 8129040, Note_off_c, 2, 69, 0
2, 8129040, Note_on_c, 2, 67, 50
2, 8129160, Note_off_c, 2, 67, 0
2, 8129280, Note_on_c, 2, 67, 50
2, 8129520, Note_off_c, 2, 67, 0
2, 8129520, Note_on_c, 2, 66, 50
2, 8129640, Note_off_c, 2, 66, 0
2, 8129760, Note_on_c, 2, 66, 50
2, 8130000, Note_off_c, 2, 66, 0
2, 8130000, Note_on_c, 2, 64, 50
2, 8130120, Note_off_c, 2, 64, 0
2, 8130240, Note_on_c, 2, 64, 50
2, 8130480, Note_off_c, 2, 64, 0
2, 8132400, Note_on_c, 2, 66, 50
2, 8132640, Note_off_c, 2, 66, 0
2, 8132640, Note_on_c, 2, 66, 50
2, 8132760, Note_off_c, 2, 66, 0
2, 8132880, Note_on_c, 2, 66, 50
2, 8133000, Note_off_c, 2, 66, 0
2, 8133120, Note_on_c, 2, 66, 50
2, 8133240, Note_off_c, 2, 66, 0
2, 8133360, Note_on_c, 2, 66, 50
2, 8133480, Note_off_c, 2, 66, 0
2, 8133600, Note_on_c, 2, 66, 50
2, 8133720, Note_off_c, 2, 66, 0
2, 8133840, Note_on_c, 2, 66, 50
2, 8133960, Note_off_c, 2, 66, 0
2, 8134080, Note_on_c, 2, 66, 50
2, 8134200, Note_off_c, 2, 66, 0
2, 8134560, Note_on_c, 2, 68, 50
2, 8134800, Note_off_c, 2, 68, 0
2, 8134800, Note_on_c, 2, 66, 50
2, 8135040, Note_off_c, 2, 66, 0
2, 8135040, Note_on_c, 2, 61, 50
2, 8135520, Note_off_c, 2, 61, 0
2, 8135520, Note_on_c, 2, 59, 50
2, 8135640, Note_off_c, 2, 59, 0
2, 8135760, Note_on_c, 2, 57, 50
2, 8136000, Note_off_c, 2, 57, 0
2, 8136000, Note_on_c, 2, 59, 50
2, 8136240, Note_off_c, 2, 59, 0
2, 8136240, Note_on_c, 2, 61, 50
2, 8136720, Note_off_c, 2, 61, 0
2, 8136720, Note_on_c, 2, 59, 50
2, 8137200, Note_off_c, 2, 59, 0
2, 8137200, Note_on_c, 2, 61, 50
2, 8137680, Note_off_c, 2, 61, 0
2, 8137680, Note_on_c, 2, 59, 50
2, 8138160, Note_off_c, 2, 59, 0
2, 8138160, Note_on_c, 2, 61, 50
2, 8138280, Note_off_c, 2, 61, 0
2, 8138280, Note_on_c, 2, 59, 50
2, 8138520, Note_off_c, 2, 59, 0
2, 8138520, Note_on_c, 2, 57, 50
2, 8138880, Note_off_c, 2, 57, 0
2, 8139360, Note_on_c, 2, 64, 50
2, 8139480, Note_off_c, 2, 64, 0
2, 8139600, Note_on_c, 2, 64, 50
2, 8139720, Note_off_c, 2, 64, 0
2, 8139840, Note_on_c, 2, 64, 50
2, 8139960, Note_off_c, 2, 64, 0
2, 8140080, Note_on_c, 2, 66, 50
2, 8140320, Note_off_c, 2, 66, 0
2, 8140320, Note_on_c, 2, 64, 50
2, 8140560, Note_off_c, 2, 64, 0
2, 8140560, Note_on_c, 2, 61, 50
2, 8140800, Note_off_c, 2, 61, 0
2, 8140800, Note_on_c, 2, 64, 50
2, 8141280, Note_off_c, 2, 64, 0
2, 8141280, Note_on_c, 2, 61, 50
2, 8141520, Note_off_c, 2, 61, 0
2, 8141760, Note_on_c, 2, 64, 50
2, 8141880, Note_off_c, 2, 64, 0
2, 8142000, Note_on_c, 2, 66, 50
2, 8142240, Note_off_c, 2, 66, 0
2, 8142240, Note_on_c, 2, 64, 50
2, 8142480, Note_off_c, 2, 64, 0
2, 8142480, Note_on_c, 2, 61, 50
2, 8142720, Note_off_c, 2, 61, 0
2, 8142720, Note_on_c, 2, 64, 50
2, 8142960, Note_off_c, 2, 64, 0
2, 8143200, Note_on_c, 2, 64, 50
2, 8143440, Note_off_c, 2, 64, 0
2, 8143440, Note_on_c, 2, 66, 50
2, 8143680, Note_off_c, 2, 66, 0
2, 8143920, Note_on_c, 2, 69, 50
2, 8145840, Note_off_c, 2, 69, 0
2, 8145840, Note_on_c, 2, 69, 50
2, 8147400, Note_off_c, 2, 69, 0
2, 8148240, Note_on_c, 2, 66, 50
2, 8148360, Note_off_c, 2, 66, 0
2, 8148480, Note_on_c, 2, 66, 50
2, 8148600, Note_off_c, 2, 66, 0
2, 8148720, Note_on_c, 2, 66, 50
2, 8148840, Note_off_c, 2, 66, 0
2, 8148960, Note_on_c, 2, 66, 50
2, 8150880, Note_off_c, 2, 66, 0
2, 8150880, Note_on_c, 2, 66, 50
2, 8151240, Note_off_c, 2, 66, 0
2, 8151600, Note_on_c, 2, 66, 50
2, 8153520, Note_off_c, 2, 66, 0
2, 8153520, Note_on_c, 2, 66, 50
2, 8155440, Note_off_c, 2, 66, 0
2, 8155440, Note_on_c, 2, 64, 50
2, 8157360, Note_off_c, 2, 64, 0
2, 8157360, Note_on_c, 2, 64, 50
2, 8158800, Note_off_c, 2, 64, 0
2, 8166960, Note_on_c, 2, 69, 50
2, 8168880, Note_off_c, 2, 69, 0
2, 8168880, Note_on_c, 2, 69, 50
2, 8170200, Note_off_c, 2, 69, 0
2, 8170320, Note_on_c, 2, 69, 50
2, 8170800, Note_off_c, 2, 69, 0
2, 8170800, Note_on_c, 2, 74, 50
2, 8172720, Note_off_c, 2, 74, 0
2, 8172720, Note_on_c, 2, 71, 50
2, 8174520, Note_off_c, 2, 71, 0
2, 8182320, Note_on_c, 2, 69, 50
2, 8184240, Note_off_c, 2, 69, 0
2, 8184240, Note_on_c, 2, 69, 50
2, 8185560, Note_off_c, 2, 69, 0
2, 8185680, Note_on_c, 2, 69, 50
2, 8186160, Note_off_c, 2, 69, 0
2, 8186160, Note_on_c, 2, 74, 50
2, 8188080, Note_off_c, 2, 74, 0
2, 8188080, Note_on_c, 2, 71, 50
2, 8189880, Note_off_c, 2, 71, 0
2, 8209680, Note_on_c, 2, 61, 50
2, 8210040, Note_off_c, 2, 61, 0
2, 8210160, Note_on_c, 2, 60, 50
2, 8210640, Note_off_c, 2, 60, 0
2, 8210640, Note_on_c, 2, 58, 50
2, 8211120, Note_off_c, 2, 58, 0
2, 8211120, Note_on_c, 2, 56, 50
2, 8211600, Note_off_c, 2, 56, 0
2, 8211600, Note_on_c, 2, 58, 50
2, 8212080, Note_off_c, 2, 58, 0
2, 8212080, Note_on_c, 2, 56, 50
2, 8212560, Note_off_c, 2, 56, 0
2, 8212560, Note_on_c, 2, 53, 50
2, 8213040, Note_off_c, 2, 53, 0
2, 8213040, Note_on_c, 2, 58, 50
2, 8213760, Note_off_c, 2, 58, 0
2, 8213760, Note_on_c, 2, 60, 50
2, 8213880, Note_off_c, 2, 60, 0
2, 8213880, Note_on_c, 2, 58, 50
2, 8214000, Note_off_c, 2, 58, 0
2, 8214000, Note_on_c, 2, 56, 50
2, 8214840, Note_off_c, 2, 56, 0
2, 8217360, Note_on_c, 2, 61, 50
2, 8217840, Note_off_c, 2, 61, 0
2, 8217840, Note_on_c, 2, 60, 50
2, 8218320, Note_off_c, 2, 60, 0
2, 8218320, Note_on_c, 2, 58, 50
2, 8218800, Note_off_c, 2, 58, 0
2, 8218800, Note_on_c, 2, 56, 50
2, 8219160, Note_off_c, 2, 56, 0
2, 8219280, Note_on_c, 2, 58, 50
2, 8219760, Note_off_c, 2, 58, 0
2, 8219760, Note_on_c, 2, 56, 50
2, 8220120, Note_off_c, 2, 56, 0
2, 8220240, Note_on_c, 2, 53, 50
2, 8220720, Note_off_c, 2, 53, 0
2, 8220720, Note_on_c, 2, 58, 50
2, 8221440, Note_off_c, 2, 58, 0
2, 8221440, Note_on_c, 2, 60, 50
2, 8221560, Note_off_c, 2, 60, 0
2, 8221560, Note_on_c, 2, 58, 50
2, 8221680, Note_off_c, 2, 58, 0
2, 8221680, Note_on_c, 2, 56, 50
2, 8222280, Note_off_c, 2, 56, 0
2, 8224320, Note_on_c, 2, 56, 50
2, 8224560, Note_off_c, 2, 56, 0
2, 8224560, Note_on_c, 2, 58, 50
2, 8225040, Note_off_c, 2, 58, 0
2, 8226240, Note_on_c, 2, 56, 50
2, 8226480, Note_off_c, 2, 56, 0
2, 8226480, Note_on_c, 2, 58, 50
2, 8226960, Note_off_c, 2, 58, 0
2, 8228160, Note_on_c, 2, 56, 50
2, 8228400, Note_off_c, 2, 56, 0
2, 8228400, Note_on_c, 2, 58, 50
2, 8228880, Note_off_c, 2, 58, 0
2, 8230080, Note_on_c, 2, 61, 50
2, 8230320, Note_off_c, 2, 61, 0
2, 8230320, Note_on_c, 2, 61, 50
2, 8230800, Note_off_c, 2, 61, 0
2, 8231760, Note_on_c, 2, 66, 50
2, 8232240, Note_off_c, 2, 66, 0
2, 8232240, Note_on_c, 2, 65, 50
2, 8233080, Note_off_c, 2, 65, 0
2, 8233200, Note_on_c, 2, 65, 50
2, 8233680, Note_off_c, 2, 65, 0
2, 8233680, Note_on_c, 2, 65, 50
2, 8234160, Note_off_c, 2, 65, 0
2, 8234160, Note_on_c, 2, 61, 50
2, 8234760, Note_off_c, 2, 61, 0
2, 8234880, Note_on_c, 2, 61, 50
2, 8235120, Note_off_c, 2, 61, 0
2, 8235120, Note_on_c, 2, 60, 50
2, 8235600, Note_off_c, 2, 60, 0
2, 8235600, Note_on_c, 2, 60, 50
2, 8235960, Note_off_c, 2, 60, 0
2, 8236080, Note_on_c, 2, 56, 50
2, 8236800, Note_off_c, 2, 56, 0
2, 8240400, Note_on_c, 2, 61, 50
2, 8240760, Note_off_c, 2, 61, 0
2, 8240880, Note_on_c, 2, 60, 50
2, 8241360, Note_off_c, 2, 60, 0
2, 8241360, Note_on_c, 2, 58, 50
2, 8241840, Note_off_c, 2, 58, 0
2, 8241840, Note_on_c, 2, 56, 50
2, 8242320, Note_off_c, 2, 56, 0
2, 8242320, Note_on_c, 2, 58, 50
2, 8242800, Note_off_c, 2, 58, 0
2, 8242800, Note_on_c, 2, 56, 50
2, 8243280, Note_off_c, 2, 56, 0
2, 8243280, Note_on_c, 2, 53, 50
2, 8243760, Note_off_c, 2, 53, 0
2, 8243760, Note_on_c, 2, 58, 50
2, 8244480, Note_off_c, 2, 58, 0
2, 8244480, Note_on_c, 2, 60, 50
2, 8244600, Note_off_c, 2, 60, 0
2, 8244600, Note_on_c, 2, 58, 50
2, 8244720, Note_off_c, 2, 58, 0
2, 8244720, Note_on_c, 2, 56, 50
2, 8245560, Note_off_c, 2, 56, 0
2, 8248080, Note_on_c, 2, 61, 50
2, 8248560, Note_off_c, 2, 61, 0
2, 8248560, Note_on_c, 2, 60, 50
2, 8249040, Note_off_c, 2, 60, 0
2, 8249040, Note_on_c, 2, 58, 50
2, 8249520, Note_off_c, 2, 58, 0
2, 8249520, Note_on_c, 2, 56, 50
2, 8249880, Note_off_c, 2, 56, 0
2, 8250000, Note_on_c, 2, 58, 50
2, 8250480, Note_off_c, 2, 58, 0
2, 8250480, Note_on_c, 2, 56, 50
2, 8250840, Note_off_c, 2, 56, 0
2, 8250960, Note_on_c, 2, 53, 50
2, 8251440, Note_off_c, 2, 53, 0
2, 8251440, Note_on_c, 2, 58, 50
2, 8252160, Note_off_c, 2, 58, 0
2, 8252160, Note_on_c, 2, 60, 50
2, 8252280, Note_off_c, 2, 60, 0
2, 8252280, Note_on_c, 2, 58, 50
2, 8252400, Note_off_c, 2, 58, 0
2, 8252400, Note_on_c, 2, 56, 50
2, 8253000, Note_off_c, 2, 56, 0
2, 8255040, Note_on_c, 2, 56, 50
2, 8255280, Note_off_c, 2, 56, 0
2, 8255280, Note_on_c, 2, 58, 50
2, 8255760, Note_off_c, 2, 58, 0
2, 8256960, Note_on_c, 2, 56, 50
2, 8257200, Note_off_c, 2, 56, 0
2, 8257200, Note_on_c, 2, 58, 50
2, 8257680, Note_off_c, 2, 58, 0
2, 8258880, Note_on_c, 2, 56, 50
2, 8259120, Note_off_c, 2, 56, 0
2, 8259120, Note_on_c, 2, 58, 50
2, 8259600, Note_off_c, 2, 58, 0
2, 8260800, Note_on_c, 2, 61, 50
2, 8261040, Note_off_c, 2, 61, 0
2, 8261040, Note_on_c, 2, 61, 50
2, 8261520, Note_off_c, 2, 61, 0
2, 8262480, Note_on_c, 2, 66, 50
2, 8262960, Note_off_c, 2, 66, 0
2, 8262960, Note_on_c, 2, 65, 50
2, 8263800, Note_off_c, 2, 65, 0
2, 8263920, Note_on_c, 2, 65, 50
2, 8264400, Note_off_c, 2, 65, 0
2, 8264400, Note_on_c, 2, 65, 50
2, 8264880, Note_off_c, 2, 65, 0
2, 8264880, Note_on_c, 2, 61, 50
2, 8265480, Note_off_c, 2, 61, 0
2, 8265600, Note_on_c, 2, 61, 50
2, 8265840, Note_off_c, 2, 61, 0
2, 8265840, Note_on_c, 2, 60, 50
2, 8266320, Note_off_c, 2, 60, 0
2, 8266320, Note_on_c, 2, 60, 50
2, 8266680, Note_off_c, 2, 60, 0
2, 8266800, Note_on_c, 2, 56, 50
2, 8267520, Note_off_c, 2, 56, 0
2, 8270640, Note_on_c, 2, 58, 50
2, 8270880, Note_off_c, 2, 58, 0
2, 8270880, Note_on_c, 2, 56, 50
2, 8271120, Note_off_c, 2, 56, 0
2, 8271120, Note_on_c, 2, 58, 50
2, 8271360, Note_off_c, 2, 58, 0
2, 8271360, Note_on_c, 2, 56, 50
2, 8271600, Note_off_c, 2, 56, 0
2, 8271600, Note_on_c, 2, 58, 50
2, 8271840, Note_off_c, 2, 58, 0
2, 8271840, Note_on_c, 2, 56, 50
2, 8272080, Note_off_c, 2, 56, 0
2, 8272080, Note_on_c, 2, 58, 50
2, 8272320, Note_off_c, 2, 58, 0
2, 8272320, Note_on_c, 2, 59, 50
2, 8272560, Note_off_c, 2, 59, 0
2, 8272560, Note_on_c, 2, 60, 50
2, 8272800, Note_off_c, 2, 60, 0
2, 8272800, Note_on_c, 2, 58, 50
2, 8273040, Note_off_c, 2, 58, 0
2, 8273040, Note_on_c, 2, 60, 50
2, 8273280, Note_off_c, 2, 60, 0
2, 8273280, Note_on_c, 2, 58, 50
2, 8273520, Note_off_c, 2, 58, 0
2, 8273520, Note_on_c, 2, 60, 50
2, 8273760, Note_off_c, 2, 60, 0
2, 8273760, Note_on_c, 2, 58, 50
2, 8274000, Note_off_c, 2, 58, 0
2, 8274000, Note_on_c, 2, 56, 50
2, 8274480, Note_off_c, 2, 56, 0
2, 8274480, Note_on_c, 2, 58, 50
2, 8275200, Note_off_c, 2, 58, 0
2, 8275200, Note_on_c, 2, 60, 50
2, 8275320, Note_off_c, 2, 60, 0
2, 8275320, Note_on_c, 2, 58, 50
2, 8275440, Note_off_c, 2, 58, 0
2, 8275440, Note_on_c, 2, 56, 50
2, 8276640, Note_off_c, 2, 56, 0
2, 8278320, Note_on_c, 2, 58, 50
2, 8278560, Note_off_c, 2, 58, 0
2, 8278560, Note_on_c, 2, 56, 50
2, 8278800, Note_off_c, 2, 56, 0
2, 8278800, Note_on_c, 2, 58, 50
2, 8279040, Note_off_c, 2, 58, 0
2, 8279040, Note_on_c, 2, 56, 50
2, 8279160, Note_off_c, 2, 56, 0
2, 8279280, Note_on_c, 2, 58, 50
2, 8279520, Note_off_c, 2, 58, 0
2, 8279520, Note_on_c, 2, 56, 50
2, 8279640, Note_off_c, 2, 56, 0
2, 8279760, Note_on_c, 2, 58, 50
2, 8280000, Note_off_c, 2, 58, 0
2, 8280000, Note_on_c, 2, 59, 50
2, 8280240, Note_off_c, 2, 59, 0
2, 8280240, Note_on_c, 2, 60, 50
2, 8280480, Note_off_c, 2, 60, 0
2, 8280480, Note_on_c, 2, 58, 50
2, 8280720, Note_off_c, 2, 58, 0
2, 8280720, Note_on_c, 2, 60, 50
2, 8280960, Note_off_c, 2, 60, 0
2, 8280960, Note_on_c, 2, 58, 50
2, 8281200, Note_off_c, 2, 58, 0
2, 8281200, Note_on_c, 2, 60, 50
2, 8281440, Note_off_c, 2, 60, 0
2, 8281440, Note_on_c, 2, 58, 50
2, 8281920, Note_off_c, 2, 58, 0
2, 8281920, Note_on_c, 2, 56, 50
2, 8282160, Note_off_c, 2, 56, 0
2, 8282160, Note_on_c, 2, 65, 50
2, 8283600, Note_off_c, 2, 65, 0
2, 8283600, Note_on_c, 2, 65, 50
2, 8284080, Note_off_c, 2, 65, 0
2, 8284080, Note_on_c, 2, 61, 50
2, 8284800, Note_off_c, 2, 61, 0
2, 8284800, Note_on_c, 2, 66, 50
2, 8285040, Note_off_c, 2, 66, 0
2, 8285040, Note_on_c, 2, 60, 50
2, 8285280, Note_off_c, 2, 60, 0
2, 8285280, Note_on_c, 2, 60, 50
2, 8285520, Note_off_c, 2, 60, 0
2, 8285520, Note_on_c, 2, 58, 50
2, 8285760, Note_off_c, 2, 58, 0
2, 8285760, Note_on_c, 2, 56, 50
2, 8286000, Note_off_c, 2, 56, 0
2, 8286000, Note_on_c, 2, 56, 50
2, 8287200, Note_off_c, 2, 56, 0
2, 8290320, Note_on_c, 2, 61, 50
2, 8290680, Note_off_c, 2, 61, 0
2, 8290800, Note_on_c, 2, 60, 50
2, 8291280, Note_off_c, 2, 60, 0
2, 8291280, Note_on_c, 2, 58, 50
2, 8291760, Note_off_c, 2, 58, 0
2, 8291760, Note_on_c, 2, 56, 50
2, 8292240, Note_off_c, 2, 56, 0
2, 8292240, Note_on_c, 2, 58, 50
2, 8292720, Note_off_c, 2, 58, 0
2, 8292720, Note_on_c, 2, 56, 50
2, 8293200, Note_off_c, 2, 56, 0
2, 8293200, Note_on_c, 2, 53, 50
2, 8293680, Note_off_c, 2, 53, 0
2, 8293680, Note_on_c, 2, 58, 50
2, 8294400, Note_off_c, 2, 58, 0
2, 8294400, Note_on_c, 2, 60, 50
2, 8294520, Note_off_c, 2, 60, 0
2, 8294520, Note_on_c, 2, 58, 50
2, 8294640, Note_off_c, 2, 58, 0
2, 8294640, Note_on_c, 2, 56, 50
2, 8295480, Note_off_c, 2, 56, 0
2, 8298000, Note_on_c, 2, 61, 50
2, 8298480, Note_off_c, 2, 61, 0
2, 8298480, Note_on_c, 2, 60, 50
2, 8298960, Note_off_c, 2, 60, 0
2, 8298960, Note_on_c, 2, 58, 50
2, 8299440, Note_off_c, 2, 58, 0
2, 8299440, Note_on_c, 2, 56, 50
2, 8299800, Note_off_c, 2, 56, 0
2, 8299920, Note_on_c, 2, 58, 50
2, 8300400, Note_off_c, 2, 58, 0
2, 8300400, Note_on_c, 2, 56, 50
2, 8300760, Note_off_c, 2, 56, 0
2, 8300880, Note_on_c, 2, 53, 50
2, 8301360, Note_off_c, 2, 53, 0
2, 8301360, Note_on_c, 2, 58, 50
2, 8302080, Note_off_c, 2, 58, 0
2, 8302080, Note_on_c, 2, 60, 50
2, 8302200, Note_off_c, 2, 60, 0
2, 8302200, Note_on_c, 2, 58, 50
2, 8302320, Note_off_c, 2, 58, 0
2, 8302320, Note_on_c, 2, 56, 50
2, 8302920, Note_off_c, 2, 56, 0
2, 8304960, Note_on_c, 2, 56, 50
2, 8305200, Note_off_c, 2, 56, 0
2, 8305200, Note_on_c, 2, 58, 50
2, 8305680, Note_off_c, 2, 58, 0
2, 8306880, Note_on_c, 2, 56, 50
2, 8307120, Note_off_c, 2, 56, 0
2, 8307120, Note_on_c, 2, 58, 50
2, 8307600, Note_off_c, 2, 58, 0
2, 8308800, Note_on_c, 2, 56, 50
2, 8309040, Note_off_c, 2, 56, 0
2, 8309040, Note_on_c, 2, 58, 50
2, 8309520, Note_off_c, 2, 58, 0
2, 8310720, Note_on_c, 2, 61, 50
2, 8310960, Note_off_c, 2, 61, 0
2, 8310960, Note_on_c, 2, 61, 50
2, 8311440, Note_off_c, 2, 61, 0
2, 8312400, Note_on_c, 2, 56, 50
2, 8312880, Note_off_c, 2, 56, 0
2, 8312880, Note_on_c, 2, 65, 50
2, 8313720, Note_off_c, 2, 65, 0
2, 8313840, Note_on_c, 2, 65, 50
2, 8314320, Note_off_c, 2, 65, 0
2, 8314320, Note_on_c, 2, 65, 50
2, 8314800, Note_off_c, 2, 65, 0
2, 8314800, Note_on_c, 2, 61, 50
2, 8315400, Note_off_c, 2, 61, 0
2, 8315520, Note_on_c, 2, 61, 50
2, 8315760, Note_off_c, 2, 61, 0
2, 8315760, Note_on_c, 2, 60, 50
2, 8316240, Note_off_c, 2, 60, 0
2, 8316240, Note_on_c, 2, 60, 50
2, 8316600, Note_off_c, 2, 60, 0
2, 8316720, Note_on_c, 2, 56, 50
2, 8317080, Note_off_c, 2, 56, 0
2, 8318160, Note_on_c, 2, 65, 50
2, 8318640, Note_off_c, 2, 65, 0
2, 8318640, Note_on_c, 2, 61, 50
2, 8319240, Note_off_c, 2, 61, 0
2, 8319360, Note_on_c, 2, 61, 50
2, 8319600, Note_off_c, 2, 61, 0
2, 8319600, Note_on_c, 2, 60, 50
2, 8320080, Note_off_c, 2, 60, 0
2, 8320080, Note_on_c, 2, 60, 50
2, 8320440, Note_off_c, 2, 60, 0
2, 8320560, Note_on_c, 2, 56, 50
2, 8321040, Note_off_c, 2, 56, 0
2, 8322000, Note_on_c, 2, 65, 50
2, 8322480, Note_off_c, 2, 65, 0
2, 8322480, Note_on_c, 2, 61, 50
2, 8323080, Note_off_c, 2, 61, 0
2, 8323200, Note_on_c, 2, 61, 50
2, 8323440, Note_off_c, 2, 61, 0
2, 8323440, Note_on_c, 2, 60, 50
2, 8323920, Note_off_c, 2, 60, 0
2, 8323920, Note_on_c, 2, 60, 50
2, 8324280, Note_off_c, 2, 60, 0
2, 8338320, Note_on_c, 2, 77, 50
2, 8340240, Note_off_c, 2, 77, 0
2, 8340600, Note_on_c, 2, 64, 50
2, 8340720, Note_off_c, 2, 64, 0
2, 8340720, Note_on_c, 2, 65, 50
2, 8341080, Note_off_c, 2, 65, 0
2, 8341080, Note_on_c, 2, 65, 50
2, 8341200, Note_off_c, 2, 65, 0
2, 8341200, Note_on_c, 2, 65, 50
2, 8341560, Note_off_c, 2, 65, 0
2, 8341560, Note_on_c, 2, 65, 50
2, 8341680, Note_off_c, 2, 65, 0
2, 8341680, Note_on_c, 2, 71, 50
2, 8342040, Note_off_c, 2, 71, 0
2, 8342040, Note_on_c, 2, 72, 50
2, 8342160, Note_off_c, 2, 72, 0
2, 8342160, Note_on_c, 2, 71, 50
2, 8342520, Note_off_c, 2, 71, 0
2, 8342520, Note_on_c, 2, 77, 50
2, 8343000, Note_off_c, 2, 77, 0
2, 8343000, Note_on_c, 2, 74, 50
2, 8343480, Note_off_c, 2, 74, 0
2, 8343480, Note_on_c, 2, 72, 50
2, 8343960, Note_off_c, 2, 72, 0
2, 8343960, Note_on_c, 2, 71, 50
2, 8344080, Note_off_c, 2, 71, 0
2, 8344080, Note_on_c, 2, 74, 50
2, 8344440, Note_off_c, 2, 74, 0
2, 8344440, Note_on_c, 2, 72, 50
2, 8344920, Note_off_c, 2, 72, 0
2, 8344920, Note_on_c, 2, 71, 50
2, 8345040, Note_off_c, 2, 71, 0
2, 8345040, Note_on_c, 2, 67, 50
2, 8345400, Note_off_c, 2, 67, 0
2, 8345400, Note_on_c, 2, 72, 50
2, 8345880, Note_off_c, 2, 72, 0
2, 8345880, Note_on_c, 2, 71, 50
2, 8346000, Note_off_c, 2, 71, 0
2, 8346000, Note_on_c, 2, 67, 50
2, 8346480, Note_off_c, 2, 67, 0
2, 8347800, Note_on_c, 2, 72, 50
2, 8347920, Note_off_c, 2, 72, 0
2, 8347920, Note_on_c, 2, 72, 50
2, 8348280, Note_off_c, 2, 72, 0
2, 8348280, Note_on_c, 2, 72, 50
2, 8348760, Note_off_c, 2, 72, 0
2, 8348760, Note_on_c, 2, 71, 50
2, 8348880, Note_off_c, 2, 71, 0
2, 8348880, Note_on_c, 2, 72, 50
2, 8349240, Note_off_c, 2, 72, 0
2, 8349240, Note_on_c, 2, 71, 50
2, 8349360, Note_off_c, 2, 71, 0
2, 8349360, Note_on_c, 2, 65, 50
2, 8350320, Note_off_c, 2, 65, 0
2, 8353080, Note_on_c, 2, 64, 50
2, 8353200, Note_off_c, 2, 64, 0
2, 8353200, Note_on_c, 2, 65, 50
2, 8353560, Note_off_c, 2, 65, 0
2, 8353560, Note_on_c, 2, 65, 50
2, 8353680, Note_off_c, 2, 65, 0
2, 8353680, Note_on_c, 2, 65, 50
2, 8354040, Note_off_c, 2, 65, 0
2, 8354040, Note_on_c, 2, 65, 50
2, 8354160, Note_off_c, 2, 65, 0
2, 8354160, Note_on_c, 2, 71, 50
2, 8354520, Note_off_c, 2, 71, 0
2, 8354520, Note_on_c, 2, 72, 50
2, 8354640, Note_off_c, 2, 72, 0
2, 8354640, Note_on_c, 2, 71, 50
2, 8355000, Note_off_c, 2, 71, 0
2, 8355000, Note_on_c, 2, 77, 50
2, 8355480, Note_off_c, 2, 77, 0
2, 8355480, Note_on_c, 2, 74, 50
2, 8355960, Note_off_c, 2, 74, 0
2, 8355960, Note_on_c, 2, 72, 50
2, 8356440, Note_off_c, 2, 72, 0
2, 8356440, Note_on_c, 2, 71, 50
2, 8356560, Note_off_c, 2, 71, 0
2, 8356560, Note_on_c, 2, 74, 50
2, 8356920, Note_off_c, 2, 74, 0
2, 8356920, Note_on_c, 2, 72, 50
2, 8357400, Note_off_c, 2, 72, 0
2, 8357400, Note_on_c, 2, 71, 50
2, 8357520, Note_off_c, 2, 71, 0
2, 8357520, Note_on_c, 2, 67, 50
2, 8357880, Note_off_c, 2, 67, 0
2, 8357880, Note_on_c, 2, 72, 50
2, 8358360, Note_off_c, 2, 72, 0
2, 8358360, Note_on_c, 2, 71, 50
2, 8358480, Note_off_c, 2, 71, 0
2, 8358480, Note_on_c, 2, 67, 50
2, 8358960, Note_off_c, 2, 67, 0
2, 8360280, Note_on_c, 2, 72, 50
2, 8360400, Note_off_c, 2, 72, 0
2, 8360400, Note_on_c, 2, 72, 50
2, 8360760, Note_off_c, 2, 72, 0
2, 8360760, Note_on_c, 2, 72, 50
2, 8361240, Note_off_c, 2, 72, 0
2, 8361240, Note_on_c, 2, 71, 50
2, 8361360, Note_off_c, 2, 71, 0
2, 8361360, Note_on_c, 2, 72, 50
2, 8361720, Note_off_c, 2, 72, 0
2, 8361720, Note_on_c, 2, 71, 50
2, 8361840, Note_off_c, 2, 71, 0
2, 8361840, Note_on_c, 2, 72, 50
2, 8362680, Note_off_c, 2, 72, 0
2, 8362680, Note_on_c, 2, 69, 50
2, 8362800, Note_off_c, 2, 69, 0
2, 8362800, Note_on_c, 2, 65, 50
2, 8363760, Note_off_c, 2, 65, 0
2, 8366040, Note_on_c, 2, 67, 50
2, 8366160, Note_off_c, 2, 67, 0
2, 8366160, Note_on_c, 2, 72, 50
2, 8366520, Note_off_c, 2, 72, 0
2, 8366520, Note_on_c, 2, 71, 50
2, 8366640, Note_off_c, 2, 71, 0
2, 8366640, Note_on_c, 2, 72, 50
2, 8367000, Note_off_c, 2, 72, 0
2, 8367000, Note_on_c, 2, 71, 50
2, 8367120, Note_off_c, 2, 71, 0
2, 8367120, Note_on_c, 2, 72, 50
2, 8367480, Note_off_c, 2, 72, 0
2, 8367480, Note_on_c, 2, 71, 50
2, 8367600, Note_off_c, 2, 71, 0
2, 8367600, Note_on_c, 2, 74, 50
2, 8367960, Note_off_c, 2, 74, 0
2, 8367960, Note_on_c, 2, 74, 50
2, 8368440, Note_off_c, 2, 74, 0
2, 8368440, Note_on_c, 2, 72, 50
2, 8368920, Note_off_c, 2, 72, 0
2, 8368920, Note_on_c, 2, 71, 50
2, 8369040, Note_off_c, 2, 71, 0
2, 8369040, Note_on_c, 2, 67, 50
2, 8369520, Note_off_c, 2, 67, 0
2, 8370000, Note_on_c, 2, 72, 50
2, 8370360, Note_off_c, 2, 72, 0
2, 8370360, Note_on_c, 2, 71, 50
2, 8370480, Note_off_c, 2, 71, 0
2, 8370480, Note_on_c, 2, 72, 50
2, 8370840, Note_off_c, 2, 72, 0
2, 8370840, Note_on_c, 2, 71, 50
2, 8370960, Note_off_c, 2, 71, 0
2, 8370960, Note_on_c, 2, 72, 50
2, 8371320, Note_off_c, 2, 72, 0
2, 8371320, Note_on_c, 2, 71, 50
2, 8371440, Note_off_c, 2, 71, 0
2, 8371440, Note_on_c, 2, 72, 50
2, 8371800, Note_off_c, 2, 72, 0
2, 8371800, Note_on_c, 2, 74, 50
2, 8372280, Note_off_c, 2, 74, 0
2, 8372280, Note_on_c, 2, 71, 50
2, 8373840, Note_off_c, 2, 71, 0
2, 8375160, Note_on_c, 2, 77, 50
2, 8375280, Note_off_c, 2, 77, 0
2, 8375280, Note_on_c, 2, 79, 50
2, 8375400, Note_off_c, 2, 79, 0
2, 8375400, Note_on_c, 2, 83, 50
2, 8375520, Note_off_c, 2, 83, 0
2, 8375640, Note_on_c, 2, 79, 50
2, 8375760, Note_off_c, 2, 79, 0
2, 8375760, Note_on_c, 2, 83, 50
2, 8375880, Note_off_c, 2, 83, 0
2, 8375880, Note_on_c, 2, 79, 50
2, 8376000, Note_off_c, 2, 79, 0
2, 8376120, Note_on_c, 2, 86, 50
2, 8376720, Note_off_c, 2, 86, 0
2, 8377560, Note_on_c, 2, 74, 50
2, 8378040, Note_off_c, 2, 74, 0
2, 8378040, Note_on_c, 2, 72, 50
2, 8378640, Note_off_c, 2, 72, 0
2, 8381400, Note_on_c, 2, 74, 50
2, 8381880, Note_off_c, 2, 74, 0
2, 8381880, Note_on_c, 2, 72, 50
2, 8382480, Note_off_c, 2, 72, 0
2, 8385240, Note_on_c, 2, 74, 50
2, 8385720, Note_off_c, 2, 74, 0
2, 8385720, Note_on_c, 2, 72, 50
2, 8386320, Note_off_c, 2, 72, 0
2, 8391480, Note_on_c, 2, 64, 50
2, 8391600, Note_off_c, 2, 64, 0
2, 8391600, Note_on_c, 2, 65, 50
2, 8391960, Note_off_c, 2, 65, 0
2, 8391960, Note_on_c, 2, 65, 50
2, 8392080, Note_off_c, 2, 65, 0
2, 8392080, Note_on_c, 2, 65, 50
2, 8392440, Note_off_c, 2, 65, 0
2, 8392440, Note_on_c, 2, 65, 50
2, 8392560, Note_off_c, 2, 65, 0
2, 8392560, Note_on_c, 2, 71, 50
2, 8392920, Note_off_c, 2, 71, 0
2, 8392920, Note_on_c, 2, 72, 50
2, 8393040, Note_off_c, 2, 72, 0
2, 8393040, Note_on_c, 2, 71, 50
2, 8393400, Note_off_c, 2, 71, 0
2, 8393400, Note_on_c, 2, 77, 50
2, 8393880, Note_off_c, 2, 77, 0
2, 8393880, Note_on_c, 2, 74, 50
2, 8394360, Note_off_c, 2, 74, 0
2, 8394360, Note_on_c, 2, 72, 50
2, 8394840, Note_off_c, 2, 72, 0
2, 8394840, Note_on_c, 2, 71, 50
2, 8394960, Note_off_c, 2, 71, 0
2, 8394960, Note_on_c, 2, 74, 50
2, 8395320, Note_off_c, 2, 74, 0
2, 8395320, Note_on_c, 2, 72, 50
2, 8395800, Note_off_c, 2, 72, 0
2, 8395800, Note_on_c, 2, 71, 50
2, 8395920, Note_off_c, 2, 71, 0
2, 8395920, Note_on_c, 2, 67, 50
2, 8396280, Note_off_c, 2, 67, 0
2, 8396280, Note_on_c, 2, 72, 50
2, 8396760, Note_off_c, 2, 72, 0
2, 8396760, Note_on_c, 2, 71, 50
2, 8396880, Note_off_c, 2, 71, 0
2, 8396880, Note_on_c, 2, 67, 50
2, 8397360, Note_off_c, 2, 67, 0
2, 8398680, Note_on_c, 2, 72, 50
2, 8398800, Note_off_c, 2, 72, 0
2, 8398800, Note_on_c, 2, 72, 50
2, 8399160, Note_off_c, 2, 72, 0
2, 8399160, Note_on_c, 2, 72, 50
2, 8399640, Note_off_c, 2, 72, 0
2, 8399640, Note_on_c, 2, 71, 50
2, 8399760, Note_off_c, 2, 71, 0
2, 8399760, Note_on_c, 2, 72, 50
2, 8400120, Note_off_c, 2, 72, 0
2, 8400120, Note_on_c, 2, 71, 50
2, 8400240, Note_off_c, 2, 71, 0
2, 8400240, Note_on_c, 2, 65, 50
2, 8401200, Note_off_c, 2, 65, 0
2, 8403960, Note_on_c, 2, 64, 50
2, 8404080, Note_off_c, 2, 64, 0
2, 8404080, Note_on_c, 2, 65, 50
2, 8404440, Note_off_c, 2, 65, 0
2, 8404440, Note_on_c, 2, 65, 50
2, 8404560, Note_off_c, 2, 65, 0
2, 8404560, Note_on_c, 2, 65, 50
2, 8404920, Note_off_c, 2, 65, 0
2, 8404920, Note_on_c, 2, 65, 50
2, 8405040, Note_off_c, 2, 65, 0
2, 8405040, Note_on_c, 2, 71, 50
2, 8405400, Note_off_c, 2, 71, 0
2, 8405400, Note_on_c, 2, 72, 50
2, 8405520, Note_off_c, 2, 72, 0
2, 8405520, Note_on_c, 2, 71, 50
2, 8405880, Note_off_c, 2, 71, 0
2, 8405880, Note_on_c, 2, 77, 50
2, 8406360, Note_off_c, 2, 77, 0
2, 8406360, Note_on_c, 2, 74, 50
2, 8406840, Note_off_c, 2, 74, 0
2, 8406840, Note_on_c, 2, 72, 50
2, 8407320, Note_off_c, 2, 72, 0
2, 8407320, Note_on_c, 2, 71, 50
2, 8407440, Note_off_c, 2, 71, 0
2, 8407440, Note_on_c, 2, 74, 50
2, 8407800, Note_off_c, 2, 74, 0
2, 8407800, Note_on_c, 2, 72, 50
2, 8408280, Note_off_c, 2, 72, 0
2, 8408280, Note_on_c, 2, 71, 50
2, 8408400, Note_off_c, 2, 71, 0
2, 8408400, Note_on_c, 2, 67, 50
2, 8408760, Note_off_c, 2, 67, 0
2, 8408760, Note_on_c, 2, 72, 50
2, 8409240, Note_off_c, 2, 72, 0
2, 8409240, Note_on_c, 2, 71, 50
2, 8409360, Note_off_c, 2, 71, 0
2, 8409360, Note_on_c, 2, 67, 50
2, 8409840, Note_off_c, 2, 67, 0
2, 8411160, Note_on_c, 2, 72, 50
2, 8411280, Note_off_c, 2, 72, 0
2, 8411280, Note_on_c, 2, 72, 50
2, 8411640, Note_off_c, 2, 72, 0
2, 8411640, Note_on_c, 2, 72, 50
2, 8412120, Note_off_c, 2, 72, 0
2, 8412120, Note_on_c, 2, 71, 50
2, 8412240, Note_off_c, 2, 71, 0
2, 8412240, Note_on_c, 2, 72, 50
2, 8412600, Note_off_c, 2, 72, 0
2, 8412600, Note_on_c, 2, 71, 50
2, 8412720, Note_off_c, 2, 71, 0
2, 8412720, Note_on_c, 2, 72, 50
2, 8413560, Note_off_c, 2, 72, 0
2, 8413560, Note_on_c, 2, 69, 50
2, 8413680, Note_off_c, 2, 69, 0
2, 8413680, Note_on_c, 2, 65, 50
2, 8414640, Note_off_c, 2, 65, 0
2, 8416920, Note_on_c, 2, 67, 50
2, 8417040, Note_off_c, 2, 67, 0
2, 8417040, Note_on_c, 2, 72, 50
2, 8417160, Note_off_c, 2, 72, 0
2, 8417160, Note_on_c, 2, 72, 50
2, 8417280, Note_off_c, 2, 72, 0
2, 8417400, Note_on_c, 2, 71, 50
2, 8417520, Note_off_c, 2, 71, 0
2, 8417520, Note_on_c, 2, 72, 50
2, 8417640, Note_off_c, 2, 72, 0
2, 8417640, Note_on_c, 2, 72, 50
2, 8417760, Note_off_c, 2, 72, 0
2, 8417880, Note_on_c, 2, 71, 50
2, 8418000, Note_off_c, 2, 71, 0
2, 8418000, Note_on_c, 2, 72, 50
2, 8418120, Note_off_c, 2, 72, 0
2, 8418120, Note_on_c, 2, 72, 50
2, 8418240, Note_off_c, 2, 72, 0
2, 8418360, Note_on_c, 2, 71, 50
2, 8418480, Note_off_c, 2, 71, 0
2, 8418480, Note_on_c, 2, 74, 50
2, 8418840, Note_off_c, 2, 74, 0
2, 8418840, Note_on_c, 2, 74, 50
2, 8419320, Note_off_c, 2, 74, 0
2, 8419320, Note_on_c, 2, 72, 50
2, 8419800, Note_off_c, 2, 72, 0
2, 8419800, Note_on_c, 2, 71, 50
2, 8419920, Note_off_c, 2, 71, 0
2, 8419920, Note_on_c, 2, 67, 50
2, 8420400, Note_off_c, 2, 67, 0
2, 8420880, Note_on_c, 2, 72, 50
2, 8421000, Note_off_c, 2, 72, 0
2, 8421000, Note_on_c, 2, 72, 50
2, 8421120, Note_off_c, 2, 72, 0
2, 8421240, Note_on_c, 2, 71, 50
2, 8421360, Note_off_c, 2, 71, 0
2, 8421360, Note_on_c, 2, 72, 50
2, 8421480, Note_off_c, 2, 72, 0
2, 8421480, Note_on_c, 2, 72, 50
2, 8421600, Note_off_c, 2, 72, 0
2, 8421720, Note_on_c, 2, 71, 50
2, 8421840, Note_off_c, 2, 71, 0
2, 8421840, Note_on_c, 2, 72, 50
2, 8421960, Note_off_c, 2, 72, 0
2, 8421960, Note_on_c, 2, 72, 50
2, 8422080, Note_off_c, 2, 72, 0
2, 8422200, Note_on_c, 2, 71, 50
2, 8422320, Note_off_c, 2, 71, 0
2, 8422320, Note_on_c, 2, 72, 50
2, 8422680, Note_off_c, 2, 72, 0
2, 8422680, Note_on_c, 2, 74, 50
2, 8423160, Note_off_c, 2, 74, 0
2, 8423160, Note_on_c, 2, 71, 50
2, 8424720, Note_off_c, 2, 71, 0
2, 8426040, Note_on_c, 2, 77, 50
2, 8426160, Note_off_c, 2, 77, 0
2, 8426160, Note_on_c, 2, 79, 50
2, 8426280, Note_off_c, 2, 79, 0
2, 8426280, Note_on_c, 2, 83, 50
2, 8426400, Note_off_c, 2, 83, 0
2, 8426520, Note_on_c, 2, 79, 50
2, 8426640, Note_off_c, 2, 79, 0
2, 8426640, Note_on_c, 2, 83, 50
2, 8426760, Note_off_c, 2, 83, 0
2, 8426760, Note_on_c, 2, 79, 50
2, 8426880, Note_off_c, 2, 79, 0
2, 8427000, Note_on_c, 2, 86, 50
2, 8427600, Note_off_c, 2, 86, 0
2, 8428440, Note_on_c, 2, 74, 50
2, 8428920, Note_off_c, 2, 74, 0
2, 8428920, Note_on_c, 2, 72, 50
2, 8429520, Note_off_c, 2, 72, 0
2, 8432280, Note_on_c, 2, 74, 50
2, 8432760, Note_off_c, 2, 74, 0
2, 8432760, Note_on_c, 2, 72, 50
2, 8433360, Note_off_c, 2, 72, 0
2, 8436120, Note_on_c, 2, 74, 50
2, 8436600, Note_off_c, 2, 74, 0
2, 8436600, Note_on_c, 2, 72, 50
2, 8437200, Note_off_c, 2, 72, 0
2, 8439960, Note_on_c, 2, 79, 50
2, 8441520, Note_off_c, 2, 79, 0
2, 8442840, Note_on_c, 2, 74, 50
2, 8442960, Note_off_c, 2, 74, 0
2, 8443320, Note_on_c, 2, 74, 50
2, 8443440, Note_off_c, 2, 74, 0
2, 8443800, Note_on_c, 2, 74, 50
2, 8443920, Note_off_c, 2, 74, 0
2, 8444280, Note_on_c, 2, 74, 50
2, 8444400, Note_off_c, 2, 74, 0
2, 8444760, Note_on_c, 2, 74, 50
2, 8444880, Note_off_c, 2, 74, 0
2, 8445240, Note_on_c, 2, 74, 50
2, 8445360, Note_off_c, 2, 74, 0
2, 8445720, Note_on_c, 2, 74, 50
2, 8445840, Note_off_c, 2, 74, 0
2, 8446200, Note_on_c, 2, 74, 50
2, 8446320, Note_off_c, 2, 74, 0
2, 8446680, Note_on_c, 2, 74, 50
2, 8446800, Note_off_c, 2, 74, 0
2, 8447160, Note_on_c, 2, 74, 50
2, 8447280, Note_off_c, 2, 74, 0
2, 8447640, Note_on_c, 2, 76, 50
2, 8447760, Note_off_c, 2, 76, 0
2, 8448120, Note_on_c, 2, 76, 50
2, 8448240, Note_off_c, 2, 76, 0
2, 8448600, Note_on_c, 2, 76, 50
2, 8448720, Note_off_c, 2, 76, 0
2, 8449080, Note_on_c, 2, 76, 50
2, 8449200, Note_off_c, 2, 76, 0
2, 8449560, Note_on_c, 2, 76, 50
2, 8449680, Note_off_c, 2, 76, 0
2, 8450040, Note_on_c, 2, 76, 50
2, 8450160, Note_off_c, 2, 76, 0
2, 8450520, Note_on_c, 2, 76, 50
2, 8450640, Note_off_c, 2, 76, 0
2, 8451000, Note_on_c, 2, 76, 50
2, 8451120, Note_off_c, 2, 76, 0
2, 8451480, Note_on_c, 2, 77, 50
2, 8451600, Note_off_c, 2, 77, 0
2, 8451960, Note_on_c, 2, 77, 50
2, 8452080, Note_off_c, 2, 77, 0
2, 8452440, Note_on_c, 2, 77, 50
2, 8452560, Note_off_c, 2, 77, 0
2, 8452920, Note_on_c, 2, 77, 50
2, 8453040, Note_off_c, 2, 77, 0
2, 8453400, Note_on_c, 2, 77, 50
2, 8453520, Note_off_c, 2, 77, 0
2, 8453880, Note_on_c, 2, 77, 50
2, 8454000, Note_off_c, 2, 77, 0
2, 8454360, Note_on_c, 2, 77, 50
2, 8454480, Note_off_c, 2, 77, 0
2, 8454840, Note_on_c, 2, 77, 50
2, 8454960, Note_off_c, 2, 77, 0
2, 8458680, Note_on_c, 2, 64, 50
2, 8458800, Note_off_c, 2, 64, 0
2, 8458800, Note_on_c, 2, 65, 50
2, 8459160, Note_off_c, 2, 65, 0
2, 8459160, Note_on_c, 2, 65, 50
2, 8459280, Note_off_c, 2, 65, 0
2, 8459280, Note_on_c, 2, 65, 50
2, 8459640, Note_off_c, 2, 65, 0
2, 8459640, Note_on_c, 2, 65, 50
2, 8459760, Note_off_c, 2, 65, 0
2, 8459760, Note_on_c, 2, 71, 50
2, 8460120, Note_off_c, 2, 71, 0
2, 8460120, Note_on_c, 2, 72, 50
2, 8460240, Note_off_c, 2, 72, 0
2, 8460240, Note_on_c, 2, 71, 50
2, 8460600, Note_off_c, 2, 71, 0
2, 8460600, Note_on_c, 2, 77, 50
2, 8461080, Note_off_c, 2, 77, 0
2, 8461080, Note_on_c, 2, 74, 50
2, 8461560, Note_off_c, 2, 74, 0
2, 8461560, Note_on_c, 2, 72, 50
2, 8462040, Note_off_c, 2, 72, 0
2, 8462040, Note_on_c, 2, 71, 50
2, 8462160, Note_off_c, 2, 71, 0
2, 8462160, Note_on_c, 2, 74, 50
2, 8462520, Note_off_c, 2, 74, 0
2, 8462520, Note_on_c, 2, 72, 50
2, 8463000, Note_off_c, 2, 72, 0
2, 8463000, Note_on_c, 2, 71, 50
2, 8463120, Note_off_c, 2, 71, 0
2, 8463120, Note_on_c, 2, 67, 50
2, 8463480, Note_off_c, 2, 67, 0
2, 8463480, Note_on_c, 2, 72, 50
2, 8463960, Note_off_c, 2, 72, 0
2, 8463960, Note_on_c, 2, 71, 50
2, 8464080, Note_off_c, 2, 71, 0
2, 8464080, Note_on_c, 2, 67, 50
2, 8464560, Note_off_c, 2, 67, 0
2, 8465880, Note_on_c, 2, 72, 50
2, 8466000, Note_off_c, 2, 72, 0
2, 8466000, Note_on_c, 2, 72, 50
2, 8466360, Note_off_c, 2, 72, 0
2, 8466360, Note_on_c, 2, 72, 50
2, 8466840, Note_off_c, 2, 72, 0
2, 8466840, Note_on_c, 2, 71, 50
2, 8466960, Note_off_c, 2, 71, 0
2, 8466960, Note_on_c, 2, 72, 50
2, 8467320, Note_off_c, 2, 72, 0
2, 8467320, Note_on_c, 2, 71, 50
2, 8467440, Note_off_c, 2, 71, 0
2, 8467440, Note_on_c, 2, 65, 50
2, 8468400, Note_off_c, 2, 65, 0
2, 8471160, Note_on_c, 2, 64, 50
2, 8471280, Note_off_c, 2, 64, 0
2, 8471280, Note_on_c, 2, 65, 50
2, 8471640, Note_off_c, 2, 65, 0
2, 8471640, Note_on_c, 2, 65, 50
2, 8471760, Note_off_c, 2, 65, 0
2, 8471760, Note_on_c, 2, 65, 50
2, 8472120, Note_off_c, 2, 65, 0
2, 8472120, Note_on_c, 2, 65, 50
2, 8472240, Note_off_c, 2, 65, 0
2, 8472240, Note_on_c, 2, 71, 50
2, 8472600, Note_off_c, 2, 71, 0
2, 8472600, Note_on_c, 2, 72, 50
2, 8472720, Note_off_c, 2, 72, 0
2, 8472720, Note_on_c, 2, 71, 50
2, 8473080, Note_off_c, 2, 71, 0
2, 8473080, Note_on_c, 2, 77, 50
2, 8473560, Note_off_c, 2, 77, 0
2, 8473560, Note_on_c, 2, 74, 50
2, 8474040, Note_off_c, 2, 74, 0
2, 8474040, Note_on_c, 2, 72, 50
2, 8474520, Note_off_c, 2, 72, 0
2, 8474520, Note_on_c, 2, 71, 50
2, 8474640, Note_off_c, 2, 71, 0
2, 8474640, Note_on_c, 2, 74, 50
2, 8475000, Note_off_c, 2, 74, 0
2, 8475000, Note_on_c, 2, 72, 50
2, 8475480, Note_off_c, 2, 72, 0
2, 8475480, Note_on_c, 2, 71, 50
2, 8475600, Note_off_c, 2, 71, 0
2, 8475600, Note_on_c, 2, 67, 50
2, 8475960, Note_off_c, 2, 67, 0
2, 8475960, Note_on_c, 2, 72, 50
2, 8476440, Note_off_c, 2, 72, 0
2, 8476440, Note_on_c, 2, 71, 50
2, 8476560, Note_off_c, 2, 71, 0
2, 8476560, Note_on_c, 2, 67, 50
2, 8477040, Note_off_c, 2, 67, 0
2, 8478360, Note_on_c, 2, 72, 50
2, 8478480, Note_off_c, 2, 72, 0
2, 8478480, Note_on_c, 2, 72, 50
2, 8478840, Note_off_c, 2, 72, 0
2, 8478840, Note_on_c, 2, 72, 50
2, 8479320, Note_off_c, 2, 72, 0
2, 8479320, Note_on_c, 2, 71, 50
2, 8479440, Note_off_c, 2, 71, 0
2, 8479440, Note_on_c, 2, 72, 50
2, 8479800, Note_off_c, 2, 72, 0
2, 8479800, Note_on_c, 2, 71, 50
2, 8479920, Note_off_c, 2, 71, 0
2, 8479920, Note_on_c, 2, 72, 50
2, 8480760, Note_off_c, 2, 72, 0
2, 8480760, Note_on_c, 2, 69, 50
2, 8480880, Note_off_c, 2, 69, 0
2, 8480880, Note_on_c, 2, 65, 50
2, 8481840, Note_off_c, 2, 65, 0
2, 8484120, Note_on_c, 2, 67, 50
2, 8484240, Note_off_c, 2, 67, 0
2, 8484240, Note_on_c, 2, 72, 50
2, 8484360, Note_off_c, 2, 72, 0
2, 8484360, Note_on_c, 2, 72, 50
2, 8484480, Note_off_c, 2, 72, 0
2, 8484600, Note_on_c, 2, 71, 50
2, 8484720, Note_off_c, 2, 71, 0
2, 8484720, Note_on_c, 2, 72, 50
2, 8484840, Note_off_c, 2, 72, 0
2, 8484840, Note_on_c, 2, 72, 50
2, 8484960, Note_off_c, 2, 72, 0
2, 8485080, Note_on_c, 2, 71, 50
2, 8485200, Note_off_c, 2, 71, 0
2, 8485200, Note_on_c, 2, 72, 50
2, 8485320, Note_off_c, 2, 72, 0
2, 8485320, Note_on_c, 2, 72, 50
2, 8485440, Note_off_c, 2, 72, 0
2, 8485560, Note_on_c, 2, 71, 50
2, 8485680, Note_off_c, 2, 71, 0
2, 8485680, Note_on_c, 2, 74, 50
2, 8486040, Note_off_c, 2, 74, 0
2, 8486040, Note_on_c, 2, 74, 50
2, 8486520, Note_off_c, 2, 74, 0
2, 8486520, Note_on_c, 2, 72, 50
2, 8487000, Note_off_c, 2, 72, 0
2, 8487000, Note_on_c, 2, 71, 50
2, 8487120, Note_off_c, 2, 71, 0
2, 8487120, Note_on_c, 2, 67, 50
2, 8487600, Note_off_c, 2, 67, 0
2, 8487960, Note_on_c, 2, 65, 50
2, 8488080, Note_off_c, 2, 65, 0
2, 8488080, Note_on_c, 2, 72, 50
2, 8488200, Note_off_c, 2, 72, 0
2, 8488200, Note_on_c, 2, 72, 50
2, 8488320, Note_off_c, 2, 72, 0
2, 8488440, Note_on_c, 2, 71, 50
2, 8488560, Note_off_c, 2, 71, 0
2, 8488560, Note_on_c, 2, 72, 50
2, 8488680, Note_off_c, 2, 72, 0
2, 8488680, Note_on_c, 2, 72, 50
2, 8488800, Note_off_c, 2, 72, 0
2, 8488920, Note_on_c, 2, 71, 50
2, 8489040, Note_off_c, 2, 71, 0
2, 8489040, Note_on_c, 2, 72, 50
2, 8489160, Note_off_c, 2, 72, 0
2, 8489160, Note_on_c, 2, 72, 50
2, 8489280, Note_off_c, 2, 72, 0
2, 8489400, Note_on_c, 2, 71, 50
2, 8489520, Note_off_c, 2, 71, 0
2, 8489520, Note_on_c, 2, 72, 50
2, 8489880, Note_off_c, 2, 72, 0
2, 8489880, Note_on_c, 2, 74, 50
2, 8490360, Note_off_c, 2, 74, 0
2, 8490360, Note_on_c, 2, 71, 50
2, 8491920, Note_off_c, 2, 71, 0
2, 8493240, Note_on_c, 2, 77, 50
2, 8493360, Note_off_c, 2, 77, 0
2, 8493360, Note_on_c, 2, 79, 50
2, 8493480, Note_off_c, 2, 79, 0
2, 8493480, Note_on_c, 2, 83, 50
2, 8493600, Note_off_c, 2, 83, 0
2, 8493720, Note_on_c, 2, 79, 50
2, 8493840, Note_off_c, 2, 79, 0
2, 8493840, Note_on_c, 2, 83, 50
2, 8493960, Note_off_c, 2, 83, 0
2, 8493960, Note_on_c, 2, 79, 50
2, 8494080, Note_off_c, 2, 79, 0
2, 8494200, Note_on_c, 2, 86, 50
2, 8494800, Note_off_c, 2, 86, 0
2, 8495640, Note_on_c, 2, 74, 50
2, 8496120, Note_off_c, 2, 74, 0
2, 8496120, Note_on_c, 2, 72, 50
2, 8496720, Note_off_c, 2, 72, 0
2, 8499480, Note_on_c, 2, 74, 50
2, 8499960, Note_off_c, 2, 74, 0
2, 8499960, Note_on_c, 2, 72, 50
2, 8500560, Note_off_c, 2, 72, 0
2, 8503320, Note_on_c, 2, 74, 50
2, 8503800, Note_off_c, 2, 74, 0
2, 8503800, Note_on_c, 2, 72, 50
2, 8504400, Note_off_c, 2, 72, 0
2, 8509080, Note_on_c, 2, 79, 50
2, 8509560, Note_off_c, 2, 79, 0
2, 8509560, Note_on_c, 2, 77, 50
2, 8510160, Note_off_c, 2, 77, 0
2, 8511000, Note_on_c, 2, 79, 50
2, 8511480, Note_off_c, 2, 79, 0
2, 8511480, Note_on_c, 2, 77, 50
2, 8512080, Note_off_c, 2, 77, 0
2, 8512920, Note_on_c, 2, 79, 50
2, 8513400, Note_off_c, 2, 79, 0
2, 8513400, Note_on_c, 2, 77, 50
2, 8514000, Note_off_c, 2, 77, 0
2, 8514840, Note_on_c, 2, 79, 50
2, 8515320, Note_off_c, 2, 79, 0
2, 8515320, Note_on_c, 2, 77, 50
2, 8515920, Note_off_c, 2, 77, 0
2, 8516760, Note_on_c, 2, 79, 50
2, 8517240, Note_off_c, 2, 79, 0
2, 8517240, Note_on_c, 2, 77, 50
2, 8517840, Note_off_c, 2, 77, 0
2, 8518680, Note_on_c, 2, 79, 50
2, 8519160, Note_off_c, 2, 79, 0
2, 8519160, Note_on_c, 2, 77, 50
2, 8519760, Note_off_c, 2, 77, 0
2, 8520600, Note_on_c, 2, 79, 50
2, 8521080, Note_off_c, 2, 79, 0
2, 8521080, Note_on_c, 2, 77, 50
2, 8521680, Note_off_c, 2, 77, 0
2, 8522040, Note_on_c, 2, 79, 50
2, 8522520, Note_off_c, 2, 79, 0
2, 8522520, Note_on_c, 2, 79, 50
2, 8523120, Note_off_c, 2, 79, 0
2, 8537520, Note_on_c, 2, 31, 50
2, 8538000, Note_off_c, 2, 31, 0
2, 8538000, Note_on_c, 2, 40, 50
2, 8538240, Note_off_c, 2, 40, 0
2, 8538480, Note_on_c, 2, 38, 50
2, 8538960, Note_off_c, 2, 38, 0
2, 8538960, Note_on_c, 2, 40, 50
2, 8539200, Note_off_c, 2, 40, 0
2, 8539200, Note_on_c, 2, 31, 50
2, 8539560, Note_off_c, 2, 31, 0
2, 8539680, Note_on_c, 2, 31, 50
2, 8539920, Note_off_c, 2, 31, 0
2, 8539920, Note_on_c, 2, 40, 50
2, 8540280, Note_off_c, 2, 40, 0
2, 8540400, Note_on_c, 2, 38, 50
2, 8540520, Note_off_c, 2, 38, 0
2, 8540640, Note_on_c, 2, 38, 50
2, 8540880, Note_off_c, 2, 38, 0
2, 8540880, Note_on_c, 2, 40, 50
2, 8541120, Note_off_c, 2, 40, 0
2, 8541120, Note_on_c, 2, 38, 50
2, 8541240, Note_off_c, 2, 38, 0
2, 8541360, Note_on_c, 2, 31, 50
2, 8541840, Note_off_c, 2, 31, 0
2, 8541840, Note_on_c, 2, 40, 50
2, 8542080, Note_off_c, 2, 40, 0
2, 8542320, Note_on_c, 2, 38, 50
2, 8542800, Note_off_c, 2, 38, 0
2, 8542800, Note_on_c, 2, 40, 50
2, 8543040, Note_off_c, 2, 40, 0
2, 8543040, Note_on_c, 2, 31, 50
2, 8543400, Note_off_c, 2, 31, 0
2, 8543520, Note_on_c, 2, 31, 50
2, 8543760, Note_off_c, 2, 31, 0
2, 8543760, Note_on_c, 2, 40, 50
2, 8544120, Note_off_c, 2, 40, 0
2, 8544240, Note_on_c, 2, 38, 50
2, 8544360, Note_off_c, 2, 38, 0
2, 8544480, Note_on_c, 2, 38, 50
2, 8544720, Note_off_c, 2, 38, 0
2, 8544720, Note_on_c, 2, 40, 50
2, 8544960, Note_off_c, 2, 40, 0
2, 8544960, Note_on_c, 2, 38, 50
2, 8545080, Note_off_c, 2, 38, 0
2, 8545200, Note_on_c, 2, 36, 50
2, 8545800, Note_off_c, 2, 36, 0
2, 8545920, Note_on_c, 2, 45, 50
2, 8546160, Note_off_c, 2, 45, 0
2, 8546160, Note_on_c, 2, 43, 50
2, 8546640, Note_off_c, 2, 43, 0
2, 8546640, Note_on_c, 2, 45, 50
2, 8546880, Note_off_c, 2, 45, 0
2, 8546880, Note_on_c, 2, 36, 50
2, 8547120, Note_off_c, 2, 36, 0
2, 8547360, Note_on_c, 2, 36, 50
2, 8547600, Note_off_c, 2, 36, 0
2, 8547600, Note_on_c, 2, 45, 50
2, 8547960, Note_off_c, 2, 45, 0
2, 8548080, Note_on_c, 2, 43, 50
2, 8548200, Note_off_c, 2, 43, 0
2, 8548320, Note_on_c, 2, 43, 50
2, 8548560, Note_off_c, 2, 43, 0
2, 8548560, Note_on_c, 2, 45, 50
2, 8549040, Note_off_c, 2, 45, 0
2, 8549040, Note_on_c, 2, 31, 50
2, 8549520, Note_off_c, 2, 31, 0
2, 8549520, Note_on_c, 2, 40, 50
2, 8549640, Note_off_c, 2, 40, 0
2, 8550000, Note_on_c, 2, 38, 50
2, 8550600, Note_off_c, 2, 38, 0
2, 8550600, Note_on_c, 2, 40, 50
2, 8550840, Note_off_c, 2, 40, 0
2, 8550840, Note_on_c, 2, 31, 50
2, 8551080, Note_off_c, 2, 31, 0
2, 8551320, Note_on_c, 2, 31, 50
2, 8551560, Note_off_c, 2, 31, 0
2, 8551560, Note_on_c, 2, 40, 50
2, 8551920, Note_off_c, 2, 40, 0
2, 8551920, Note_on_c, 2, 38, 50
2, 8552040, Note_off_c, 2, 38, 0
2, 8552160, Note_on_c, 2, 38, 50
2, 8552400, Note_off_c, 2, 38, 0
2, 8552400, Note_on_c, 2, 40, 50
2, 8552640, Note_off_c, 2, 40, 0
2, 8552640, Note_on_c, 2, 38, 50
2, 8552760, Note_off_c, 2, 38, 0
2, 8552880, Note_on_c, 2, 38, 50
2, 8553360, Note_off_c, 2, 38, 0
2, 8553360, Note_on_c, 2, 47, 50
2, 8553600, Note_off_c, 2, 47, 0
2, 8553840, Note_on_c, 2, 45, 50
2, 8554320, Note_off_c, 2, 45, 0
2, 8554320, Note_on_c, 2, 47, 50
2, 8554560, Note_off_c, 2, 47, 0
2, 8554560, Note_on_c, 2, 38, 50
2, 8554800, Note_off_c, 2, 38, 0
2, 8555040, Note_on_c, 2, 38, 50
2, 8555280, Note_off_c, 2, 38, 0
2, 8555280, Note_on_c, 2, 47, 50
2, 8555640, Note_off_c, 2, 47, 0
2, 8555760, Note_on_c, 2, 45, 50
2, 8555880, Note_off_c, 2, 45, 0
2, 8556000, Note_on_c, 2, 45, 50
2, 8556240, Note_off_c, 2, 45, 0
2, 8556240, Note_on_c, 2, 47, 50
2, 8556360, Note_off_c, 2, 47, 0
2, 8556480, Note_on_c, 2, 38, 50
2, 8556600, Note_off_c, 2, 38, 0
2, 8556960, Note_on_c, 2, 38, 50
2, 8557080, Note_off_c, 2, 38, 0
2, 8557200, Note_on_c, 2, 38, 50
2, 8557320, Note_off_c, 2, 38, 0
2, 8557440, Note_on_c, 2, 38, 50
2, 8557560, Note_off_c, 2, 38, 0
2, 8557680, Note_on_c, 2, 40, 50
2, 8558040, Note_off_c, 2, 40, 0
2, 8558160, Note_on_c, 2, 41, 50
2, 8558280, Note_off_c, 2, 41, 0
2, 8558400, Note_on_c, 2, 43, 50
2, 8558760, Note_off_c, 2, 43, 0
2, 8558880, Note_on_c, 2, 43, 50
2, 8559120, Note_off_c, 2, 43, 0
2, 8559120, Note_on_c, 2, 52, 50
2, 8559480, Note_off_c, 2, 52, 0
2, 8559600, Note_on_c, 2, 50, 50
2, 8559960, Note_off_c, 2, 50, 0
2, 8560080, Note_on_c, 2, 52, 50
2, 8560320, Note_off_c, 2, 52, 0
2, 8560320, Note_on_c, 2, 38, 50
2, 8560680, Note_off_c, 2, 38, 0
2, 8560800, Note_on_c, 2, 38, 50
2, 8560920, Note_off_c, 2, 38, 0
2, 8561040, Note_on_c, 2, 38, 50
2, 8561160, Note_off_c, 2, 38, 0
2, 8561280, Note_on_c, 2, 38, 50
2, 8561520, Note_off_c, 2, 38, 0
2, 8561520, Note_on_c, 2, 40, 50
2, 8561880, Note_off_c, 2, 40, 0
2, 8562000, Note_on_c, 2, 41, 50
2, 8562360, Note_off_c, 2, 41, 0
2, 8562480, Note_on_c, 2, 43, 50
2, 8562600, Note_off_c, 2, 43, 0
2, 8564400, Note_on_c, 2, 38, 50
2, 8565000, Note_off_c, 2, 38, 0
2, 8565120, Note_on_c, 2, 41, 50
2, 8565720, Note_off_c, 2, 41, 0
2, 8565840, Note_on_c, 2, 45, 50
2, 8566200, Note_off_c, 2, 45, 0
2, 8566320, Note_on_c, 2, 38, 50
2, 8566920, Note_off_c, 2, 38, 0
2, 8567040, Note_on_c, 2, 41, 50
2, 8567640, Note_off_c, 2, 41, 0
2, 8567760, Note_on_c, 2, 45, 50
2, 8568000, Note_off_c, 2, 45, 0
2, 8568240, Note_on_c, 2, 43, 50
2, 8568840, Note_off_c, 2, 43, 0
2, 8568960, Note_on_c, 2, 47, 50
2, 8569560, Note_off_c, 2, 47, 0
2, 8569680, Note_on_c, 2, 50, 50
2, 8570040, Note_off_c, 2, 50, 0
2, 8570160, Note_on_c, 2, 43, 50
2, 8570760, Note_off_c, 2, 43, 0
2, 8570880, Note_on_c, 2, 47, 50
2, 8571480, Note_off_c, 2, 47, 0
2, 8571600, Note_on_c, 2, 50, 50
2, 8571720, Note_off_c, 2, 50, 0
2, 8572080, Note_on_c, 2, 36, 50
2, 8572680, Note_off_c, 2, 36, 0
2, 8572800, Note_on_c, 2, 40, 50
2, 8573400, Note_off_c, 2, 40, 0
2, 8573520, Note_on_c, 2, 43, 50
2, 8573880, Note_off_c, 2, 43, 0
2, 8574000, Note_on_c, 2, 36, 50
2, 8574720, Note_off_c, 2, 36, 0
2, 8574720, Note_on_c, 2, 40, 50
2, 8575320, Note_off_c, 2, 40, 0
2, 8575440, Note_on_c, 2, 43, 50
2, 8575800, Note_off_c, 2, 43, 0
2, 8575920, Note_on_c, 2, 38, 50
2, 8576520, Note_off_c, 2, 38, 0
2, 8576640, Note_on_c, 2, 41, 50
2, 8577240, Note_off_c, 2, 41, 0
2, 8577360, Note_on_c, 2, 45, 50
2, 8577720, Note_off_c, 2, 45, 0
2, 8577840, Note_on_c, 2, 38, 50
2, 8578080, Note_off_c, 2, 38, 0
2, 8579760, Note_on_c, 2, 31, 50
2, 8580240, Note_off_c, 2, 31, 0
2, 8580240, Note_on_c, 2, 40, 50
2, 8580480, Note_off_c, 2, 40, 0
2, 8580720, Note_on_c, 2, 38, 50
2, 8581200, Note_off_c, 2, 38, 0
2, 8581200, Note_on_c, 2, 40, 50
2, 8581440, Note_off_c, 2, 40, 0
2, 8581440, Note_on_c, 2, 31, 50
2, 8581800, Note_off_c, 2, 31, 0
2, 8581920, Note_on_c, 2, 31, 50
2, 8582160, Note_off_c, 2, 31, 0
2, 8582160, Note_on_c, 2, 40, 50
2, 8582520, Note_off_c, 2, 40, 0
2, 8582640, Note_on_c, 2, 38, 50
2, 8582760, Note_off_c, 2, 38, 0
2, 8582880, Note_on_c, 2, 38, 50
2, 8583120, Note_off_c, 2, 38, 0
2, 8583120, Note_on_c, 2, 40, 50
2, 8583360, Note_off_c, 2, 40, 0
2, 8583360, Note_on_c, 2, 38, 50
2, 8583480, Note_off_c, 2, 38, 0
2, 8583600, Note_on_c, 2, 31, 50
2, 8584080, Note_off_c, 2, 31, 0
2, 8584080, Note_on_c, 2, 40, 50
2, 8584320, Note_off_c, 2, 40, 0
2, 8584560, Note_on_c, 2, 38, 50
2, 8585040, Note_off_c, 2, 38, 0
2, 8585040, Note_on_c, 2, 40, 50
2, 8585280, Note_off_c, 2, 40, 0
2, 8585280, Note_on_c, 2, 31, 50
2, 8585640, Note_off_c, 2, 31, 0
2, 8585760, Note_on_c, 2, 31, 50
2, 8586000, Note_off_c, 2, 31, 0
2, 8586000, Note_on_c, 2, 40, 50
2, 8586360, Note_off_c, 2, 40, 0
2, 8586480, Note_on_c, 2, 38, 50
2, 8586600, Note_off_c, 2, 38, 0
2, 8586720, Note_on_c, 2, 38, 50
2, 8586960, Note_off_c, 2, 38, 0
2, 8586960, Note_on_c, 2, 40, 50
2, 8587200, Note_off_c, 2, 40, 0
2, 8587200, Note_on_c, 2, 38, 50
2, 8587320, Note_off_c, 2, 38, 0
2, 8587440, Note_on_c, 2, 36, 50
2, 8588040, Note_off_c, 2, 36, 0
2, 8588160, Note_on_c, 2, 45, 50
2, 8588400, Note_off_c, 2, 45, 0
2, 8588400, Note_on_c, 2, 43, 50
2, 8588880, Note_off_c, 2, 43, 0
2, 8588880, Note_on_c, 2, 45, 50
2, 8589120, Note_off_c, 2, 45, 0
2, 8589120, Note_on_c, 2, 36, 50
2, 8589360, Note_off_c, 2, 36, 0
2, 8589600, Note_on_c, 2, 36, 50
2, 8589840, Note_off_c, 2, 36, 0
2, 8589840, Note_on_c, 2, 45, 50
2, 8590200, Note_off_c, 2, 45, 0
2, 8590320, Note_on_c, 2, 43, 50
2, 8590440, Note_off_c, 2, 43, 0
2, 8590560, Note_on_c, 2, 43, 50
2, 8590800, Note_off_c, 2, 43, 0
2, 8590800, Note_on_c, 2, 45, 50
2, 8591280, Note_off_c, 2, 45, 0
2, 8591280, Note_on_c, 2, 31, 50
2, 8591760, Note_off_c, 2, 31, 0
2, 8591760, Note_on_c, 2, 40, 50
2, 8591880, Note_off_c, 2, 40, 0
2, 8592240, Note_on_c, 2, 38, 50
2, 8592840, Note_off_c, 2, 38, 0
2, 8592840, Note_on_c, 2, 40, 50
2, 8593080, Note_off_c, 2, 40, 0
2, 8593080, Note_on_c, 2, 31, 50
2, 8593320, Note_off_c, 2, 31, 0
2, 8593560, Note_on_c, 2, 31, 50
2, 8593800, Note_off_c, 2, 31, 0
2, 8593800, Note_on_c, 2, 40, 50
2, 8594160, Note_off_c, 2, 40, 0
2, 8594160, Note_on_c, 2, 38, 50
2, 8594280, Note_off_c, 2, 38, 0
2, 8594400, Note_on_c, 2, 38, 50
2, 8594640, Note_off_c, 2, 38, 0
2, 8594640, Note_on_c, 2, 40, 50
2, 8594880, Note_off_c, 2, 40, 0
2, 8594880, Note_on_c, 2, 38, 50
2, 8595000, Note_off_c, 2, 38, 0
2, 8595120, Note_on_c, 2, 38, 50
2, 8595600, Note_off_c, 2, 38, 0
2, 8595600, Note_on_c, 2, 47, 50
2, 8595840, Note_off_c, 2, 47, 0
2, 8596080, Note_on_c, 2, 45, 50
2, 8596560, Note_off_c, 2, 45, 0
2, 8596560, Note_on_c, 2, 47, 50
2, 8596800, Note_off_c, 2, 47, 0
2, 8596800, Note_on_c, 2, 38, 50
2, 8597040, Note_off_c, 2, 38, 0
2, 8597280, Note_on_c, 2, 38, 50
2, 8597520, Note_off_c, 2, 38, 0
2, 8597520, Note_on_c, 2, 47, 50
2, 8597880, Note_off_c, 2, 47, 0
2, 8598000, Note_on_c, 2, 45, 50
2, 8598120, Note_off_c, 2, 45, 0
2, 8598240, Note_on_c, 2, 45, 50
2, 8598480, Note_off_c, 2, 45, 0
2, 8598480, Note_on_c, 2, 47, 50
2, 8598600, Note_off_c, 2, 47, 0
2, 8598720, Note_on_c, 2, 38, 50
2, 8598840, Note_off_c, 2, 38, 0
2, 8599200, Note_on_c, 2, 38, 50
2, 8599320, Note_off_c, 2, 38, 0
2, 8599440, Note_on_c, 2, 38, 50
2, 8599560, Note_off_c, 2, 38, 0
2, 8599680, Note_on_c, 2, 38, 50
2, 8599800, Note_off_c, 2, 38, 0
2, 8599920, Note_on_c, 2, 40, 50
2, 8600280, Note_off_c, 2, 40, 0
2, 8600400, Note_on_c, 2, 41, 50
2, 8600520, Note_off_c, 2, 41, 0
2, 8600640, Note_on_c, 2, 43, 50
2, 8601000, Note_off_c, 2, 43, 0
2, 8601120, Note_on_c, 2, 43, 50
2, 8601360, Note_off_c, 2, 43, 0
2, 8601360, Note_on_c, 2, 52, 50
2, 8601720, Note_off_c, 2, 52, 0
2, 8601840, Note_on_c, 2, 50, 50
2, 8602200, Note_off_c, 2, 50, 0
2, 8602320, Note_on_c, 2, 52, 50
2, 8602560, Note_off_c, 2, 52, 0
2, 8602560, Note_on_c, 2, 38, 50
2, 8602920, Note_off_c, 2, 38, 0
2, 8603040, Note_on_c, 2, 38, 50
2, 8603160, Note_off_c, 2, 38, 0
2, 8603280, Note_on_c, 2, 38, 50
2, 8603400, Note_off_c, 2, 38, 0
2, 8603520, Note_on_c, 2, 38, 50
2, 8603760, Note_off_c, 2, 38, 0
2, 8603760, Note_on_c, 2, 40, 50
2, 8604120, Note_off_c, 2, 40, 0
2, 8604240, Note_on_c, 2, 41, 50
2, 8604600, Note_off_c, 2, 41, 0
2, 8604720, Note_on_c, 2, 43, 50
2, 8604840, Note_off_c, 2, 43, 0
2, 8606640, Note_on_c, 2, 38, 50
2, 8607240, Note_off_c, 2, 38, 0
2, 8607360, Note_on_c, 2, 41, 50
2, 8607960, Note_off_c, 2, 41, 0
2, 8608080, Note_on_c, 2, 45, 50
2, 8608440, Note_off_c, 2, 45, 0
2, 8608560, Note_on_c, 2, 38, 50
2, 8609160, Note_off_c, 2, 38, 0
2, 8609280, Note_on_c, 2, 41, 50
2, 8609880, Note_off_c, 2, 41, 0
2, 8610000, Note_on_c, 2, 45, 50
2, 8610240, Note_off_c, 2, 45, 0
2, 8610480, Note_on_c, 2, 43, 50
2, 8611080, Note_off_c, 2, 43, 0
2, 8611200, Note_on_c, 2, 47, 50
2, 8611800, Note_off_c, 2, 47, 0
2, 8611920, Note_on_c, 2, 50, 50
2, 8612280, Note_off_c, 2, 50, 0
2, 8612400, Note_on_c, 2, 43, 50
2, 8613000, Note_off_c, 2, 43, 0
2, 8613120, Note_on_c, 2, 47, 50
2, 8613720, Note_off_c, 2, 47, 0
2, 8613840, Note_on_c, 2, 50, 50
2, 8613960, Note_off_c, 2, 50, 0
2, 8614320, Note_on_c, 2, 36, 50
2, 8614920, Note_off_c, 2, 36, 0
2, 8615040, Note_on_c, 2, 40, 50
2, 8615640, Note_off_c, 2, 40, 0
2, 8615760, Note_on_c, 2, 43, 50
2, 8616120, Note_off_c, 2, 43, 0
2, 8616240, Note_on_c, 2, 36, 50
2, 8616960, Note_off_c, 2, 36, 0
2, 8616960, Note_on_c, 2, 40, 50
2, 8617560, Note_off_c, 2, 40, 0
2, 8617680, Note_on_c, 2, 43, 50
2, 8618040, Note_off_c, 2, 43, 0
2, 8618160, Note_on_c, 2, 38, 50
2, 8618760, Note_off_c, 2, 38, 0
2, 8618880, Note_on_c, 2, 41, 50
2, 8619480, Note_off_c, 2, 41, 0
2, 8619600, Note_on_c, 2, 45, 50
2, 8619960, Note_off_c, 2, 45, 0
2, 8620080, Note_on_c, 2, 38, 50
2, 8620320, Note_off_c, 2, 38, 0
2, 8622000, Note_on_c, 2, 31, 50
2, 8622480, Note_off_c, 2, 31, 0
2, 8622480, Note_on_c, 2, 40, 50
2, 8622720, Note_off_c, 2, 40, 0
2, 8622960, Note_on_c, 2, 38, 50
2, 8623440, Note_off_c, 2, 38, 0
2, 8623440, Note_on_c, 2, 40, 50
2, 8623680, Note_off_c, 2, 40, 0
2, 8623680, Note_on_c, 2, 31, 50
2, 8624040, Note_off_c, 2, 31, 0
2, 8624160, Note_on_c, 2, 31, 50
2, 8624400, Note_off_c, 2, 31, 0
2, 8624400, Note_on_c, 2, 40, 50
2, 8624760, Note_off_c, 2, 40, 0
2, 8624880, Note_on_c, 2, 38, 50
2, 8625000, Note_off_c, 2, 38, 0
2, 8625120, Note_on_c, 2, 38, 50
2, 8625360, Note_off_c, 2, 38, 0
2, 8625360, Note_on_c, 2, 40, 50
2, 8625600, Note_off_c, 2, 40, 0
2, 8625600, Note_on_c, 2, 38, 50
2, 8625720, Note_off_c, 2, 38, 0
2, 8625840, Note_on_c, 2, 31, 50
2, 8626320, Note_off_c, 2, 31, 0
2, 8626320, Note_on_c, 2, 40, 50
2, 8626560, Note_off_c, 2, 40, 0
2, 8626800, Note_on_c, 2, 38, 50
2, 8627280, Note_off_c, 2, 38, 0
2, 8627280, Note_on_c, 2, 40, 50
2, 8627520, Note_off_c, 2, 40, 0
2, 8627520, Note_on_c, 2, 31, 50
2, 8627880, Note_off_c, 2, 31, 0
2, 8628000, Note_on_c, 2, 31, 50
2, 8628240, Note_off_c, 2, 31, 0
2, 8628240, Note_on_c, 2, 40, 50
2, 8628600, Note_off_c, 2, 40, 0
2, 8628720, Note_on_c, 2, 38, 50
2, 8628840, Note_off_c, 2, 38, 0
2, 8628960, Note_on_c, 2, 38, 50
2, 8629200, Note_off_c, 2, 38, 0
2, 8629200, Note_on_c, 2, 40, 50
2, 8629440, Note_off_c, 2, 40, 0
2, 8629440, Note_on_c, 2, 38, 50
2, 8629560, Note_off_c, 2, 38, 0
2, 8629680, Note_on_c, 2, 36, 50
2, 8630280, Note_off_c, 2, 36, 0
2, 8630400, Note_on_c, 2, 45, 50
2, 8630640, Note_off_c, 2, 45, 0
2, 8630640, Note_on_c, 2, 43, 50
2, 8631120, Note_off_c, 2, 43, 0
2, 8631120, Note_on_c, 2, 45, 50
2, 8631360, Note_off_c, 2, 45, 0
2, 8631360, Note_on_c, 2, 36, 50
2, 8631600, Note_off_c, 2, 36, 0
2, 8631840, Note_on_c, 2, 36, 50
2, 8632080, Note_off_c, 2, 36, 0
2, 8632080, Note_on_c, 2, 45, 50
2, 8632440, Note_off_c, 2, 45, 0
2, 8632560, Note_on_c, 2, 43, 50
2, 8632680, Note_off_c, 2, 43, 0
2, 8632800, Note_on_c, 2, 43, 50
2, 8633040, Note_off_c, 2, 43, 0
2, 8633040, Note_on_c, 2, 45, 50
2, 8633520, Note_off_c, 2, 45, 0
2, 8633520, Note_on_c, 2, 31, 50
2, 8634000, Note_off_c, 2, 31, 0
2, 8634000, Note_on_c, 2, 40, 50
2, 8634120, Note_off_c, 2, 40, 0
2, 8634480, Note_on_c, 2, 38, 50
2, 8635080, Note_off_c, 2, 38, 0
2, 8635080, Note_on_c, 2, 40, 50
2, 8635320, Note_off_c, 2, 40, 0
2, 8635320, Note_on_c, 2, 31, 50
2, 8635560, Note_off_c, 2, 31, 0
2, 8635800, Note_on_c, 2, 31, 50
2, 8636040, Note_off_c, 2, 31, 0
2, 8636040, Note_on_c, 2, 40, 50
2, 8636400, Note_off_c, 2, 40, 0
2, 8636400, Note_on_c, 2, 38, 50
2, 8636520, Note_off_c, 2, 38, 0
2, 8636640, Note_on_c, 2, 38, 50
2, 8636880, Note_off_c, 2, 38, 0
2, 8636880, Note_on_c, 2, 40, 50
2, 8637120, Note_off_c, 2, 40, 0
2, 8637120, Note_on_c, 2, 38, 50
2, 8637240, Note_off_c, 2, 38, 0
2, 8637360, Note_on_c, 2, 38, 50
2, 8637840, Note_off_c, 2, 38, 0
2, 8637840, Note_on_c, 2, 47, 50
2, 8638080, Note_off_c, 2, 47, 0
2, 8638320, Note_on_c, 2, 45, 50
2, 8638800, Note_off_c, 2, 45, 0
2, 8638800, Note_on_c, 2, 47, 50
2, 8639040, Note_off_c, 2, 47, 0
2, 8639040, Note_on_c, 2, 38, 50
2, 8639280, Note_off_c, 2, 38, 0
2, 8639520, Note_on_c, 2, 38, 50
2, 8639760, Note_off_c, 2, 38, 0
2, 8639760, Note_on_c, 2, 47, 50
2, 8640120, Note_off_c, 2, 47, 0
2, 8640240, Note_on_c, 2, 45, 50
2, 8640360, Note_off_c, 2, 45, 0
2, 8640480, Note_on_c, 2, 45, 50
2, 8640720, Note_off_c, 2, 45, 0
2, 8640720, Note_on_c, 2, 47, 50
2, 8640840, Note_off_c, 2, 47, 0
2, 8640960, Note_on_c, 2, 38, 50
2, 8641080, Note_off_c, 2, 38, 0
2, 8641440, Note_on_c, 2, 38, 50
2, 8641560, Note_off_c, 2, 38, 0
2, 8641680, Note_on_c, 2, 38, 50
2, 8641800, Note_off_c, 2, 38, 0
2, 8641920, Note_on_c, 2, 38, 50
2, 8642040, Note_off_c, 2, 38, 0
2, 8642160, Note_on_c, 2, 40, 50
2, 8642520, Note_off_c, 2, 40, 0
2, 8642640, Note_on_c, 2, 41, 50
2, 8642760, Note_off_c, 2, 41, 0
2, 8642880, Note_on_c, 2, 43, 50
2, 8643240, Note_off_c, 2, 43, 0
2, 8643360, Note_on_c, 2, 43, 50
2, 8643600, Note_off_c, 2, 43, 0
2, 8643600, Note_on_c, 2, 52, 50
2, 8643960, Note_off_c, 2, 52, 0
2, 8644080, Note_on_c, 2, 50, 50
2, 8644440, Note_off_c, 2, 50, 0
2, 8644560, Note_on_c, 2, 52, 50
2, 8644800, Note_off_c, 2, 52, 0
2, 8644800, Note_on_c, 2, 38, 50
2, 8645160, Note_off_c, 2, 38, 0
2, 8645280, Note_on_c, 2, 38, 50
2, 8645400, Note_off_c, 2, 38, 0
2, 8645520, Note_on_c, 2, 38, 50
2, 8645640, Note_off_c, 2, 38, 0
2, 8645760, Note_on_c, 2, 38, 50
2, 8646000, Note_off_c, 2, 38, 0
2, 8646000, Note_on_c, 2, 40, 50
2, 8646360, Note_off_c, 2, 40, 0
2, 8646480, Note_on_c, 2, 41, 50
2, 8646840, Note_off_c, 2, 41, 0
2, 8646960, Note_on_c, 2, 43, 50
2, 8647080, Note_off_c, 2, 43, 0
2, 8648880, Note_on_c, 2, 38, 50
2, 8649480, Note_off_c, 2, 38, 0
2, 8649600, Note_on_c, 2, 41, 50
2, 8650200, Note_off_c, 2, 41, 0
2, 8650320, Note_on_c, 2, 45, 50
2, 8650680, Note_off_c, 2, 45, 0
2, 8650800, Note_on_c, 2, 38, 50
2, 8651400, Note_off_c, 2, 38, 0
2, 8651520, Note_on_c, 2, 41, 50
2, 8652120, Note_off_c, 2, 41, 0
2, 8652240, Note_on_c, 2, 45, 50
2, 8652480, Note_off_c, 2, 45, 0
2, 8652720, Note_on_c, 2, 43, 50
2, 8653320, Note_off_c, 2, 43, 0
2, 8653440, Note_on_c, 2, 47, 50
2, 8654040, Note_off_c, 2, 47, 0
2, 8654160, Note_on_c, 2, 50, 50
2, 8654520, Note_off_c, 2, 50, 0
2, 8654640, Note_on_c, 2, 43, 50
2, 8655240, Note_off_c, 2, 43, 0
2, 8655360, Note_on_c, 2, 47, 50
2, 8655960, Note_off_c, 2, 47, 0
2, 8656080, Note_on_c, 2, 50, 50
2, 8656200, Note_off_c, 2, 50, 0
2, 8656560, Note_on_c, 2, 36, 50
2, 8657160, Note_off_c, 2, 36, 0
2, 8657280, Note_on_c, 2, 40, 50
2, 8657880, Note_off_c, 2, 40, 0
2, 8658000, Note_on_c, 2, 43, 50
2, 8658360, Note_off_c, 2, 43, 0
2, 8658480, Note_on_c, 2, 36, 50
2, 8659200, Note_off_c, 2, 36, 0
2, 8659200, Note_on_c, 2, 40, 50
2, 8659800, Note_off_c, 2, 40, 0
2, 8659920, Note_on_c, 2, 43, 50
2, 8660280, Note_off_c, 2, 43, 0
2, 8660400, Note_on_c, 2, 38, 50
2, 8661000, Note_off_c, 2, 38, 0
2, 8661120, Note_on_c, 2, 41, 50
2, 8661720, Note_off_c, 2, 41, 0
2, 8661840, Note_on_c, 2, 45, 50
2, 8662200, Note_off_c, 2, 45, 0
2, 8662320, Note_on_c, 2, 38, 50
2, 8662560, Note_off_c, 2, 38, 0
2, 8664240, Note_on_c, 2, 31, 50
2, 8664720, Note_off_c, 2, 31, 0
2, 8664720, Note_on_c, 2, 40, 50
2, 8664960, Note_off_c, 2, 40, 0
2, 8665200, Note_on_c, 2, 38, 50
2, 8665680, Note_off_c, 2, 38, 0
2, 8665680, Note_on_c, 2, 40, 50
2, 8665920, Note_off_c, 2, 40, 0
2, 8665920, Note_on_c, 2, 31, 50
2, 8666280, Note_off_c, 2, 31, 0
2, 8666400, Note_on_c, 2, 31, 50
2, 8666640, Note_off_c, 2, 31, 0
2, 8666640, Note_on_c, 2, 40, 50
2, 8667000, Note_off_c, 2, 40, 0
2, 8667120, Note_on_c, 2, 38, 50
2, 8667240, Note_off_c, 2, 38, 0
2, 8667360, Note_on_c, 2, 38, 50
2, 8667600, Note_off_c, 2, 38, 0
2, 8667600, Note_on_c, 2, 40, 50
2, 8667840, Note_off_c, 2, 40, 0
2, 8667840, Note_on_c, 2, 38, 50
2, 8667960, Note_off_c, 2, 38, 0
2, 8668080, Note_on_c, 2, 31, 50
2, 8668560, Note_off_c, 2, 31, 0
2, 8668560, Note_on_c, 2, 40, 50
2, 8668800, Note_off_c, 2, 40, 0
2, 8669040, Note_on_c, 2, 38, 50
2, 8669520, Note_off_c, 2, 38, 0
2, 8669520, Note_on_c, 2, 40, 50
2, 8669760, Note_off_c, 2, 40, 0
2, 8669760, Note_on_c, 2, 31, 50
2, 8670120, Note_off_c, 2, 31, 0
2, 8670240, Note_on_c, 2, 31, 50
2, 8670480, Note_off_c, 2, 31, 0
2, 8670480, Note_on_c, 2, 40, 50
2, 8670840, Note_off_c, 2, 40, 0
2, 8670960, Note_on_c, 2, 38, 50
2, 8671080, Note_off_c, 2, 38, 0
2, 8671200, Note_on_c, 2, 38, 50
2, 8671440, Note_off_c, 2, 38, 0
2, 8671440, Note_on_c, 2, 40, 50
2, 8671680, Note_off_c, 2, 40, 0
2, 8671680, Note_on_c, 2, 38, 50
2, 8671800, Note_off_c, 2, 38, 0
2, 8671920, Note_on_c, 2, 36, 50
2, 8672520, Note_off_c, 2, 36, 0
2, 8672640, Note_on_c, 2, 45, 50
2, 8672880, Note_off_c, 2, 45, 0
2, 8672880, Note_on_c, 2, 43, 50
2, 8673360, Note_off_c, 2, 43, 0
2, 8673360, Note_on_c, 2, 45, 50
2, 8673600, Note_off_c, 2, 45, 0
2, 8673600, Note_on_c, 2, 36, 50
2, 8673840, Note_off_c, 2, 36, 0
2, 8674080, Note_on_c, 2, 36, 50
2, 8674320, Note_off_c, 2, 36, 0
2, 8674320, Note_on_c, 2, 45, 50
2, 8674680, Note_off_c, 2, 45, 0
2, 8674800, Note_on_c, 2, 43, 50
2, 8674920, Note_off_c, 2, 43, 0
2, 8675040, Note_on_c, 2, 43, 50
2, 8675280, Note_off_c, 2, 43, 0
2, 8675280, Note_on_c, 2, 45, 50
2, 8675760, Note_off_c, 2, 45, 0
2, 8675760, Note_on_c, 2, 31, 50
2, 8676240, Note_off_c, 2, 31, 0
2, 8676240, Note_on_c, 2, 40, 50
2, 8676360, Note_off_c, 2, 40, 0
2, 8676720, Note_on_c, 2, 38, 50
2, 8677320, Note_off_c, 2, 38, 0
2, 8677320, Note_on_c, 2, 40, 50
2, 8677560, Note_off_c, 2, 40, 0
2, 8677560, Note_on_c, 2, 31, 50
2, 8677800, Note_off_c, 2, 31, 0
2, 8678040, Note_on_c, 2, 31, 50
2, 8678280, Note_off_c, 2, 31, 0
2, 8678280, Note_on_c, 2, 40, 50
2, 8678640, Note_off_c, 2, 40, 0
2, 8678640, Note_on_c, 2, 38, 50
2, 8678760, Note_off_c, 2, 38, 0
2, 8678880, Note_on_c, 2, 38, 50
2, 8679120, Note_off_c, 2, 38, 0
2, 8679120, Note_on_c, 2, 40, 50
2, 8679360, Note_off_c, 2, 40, 0
2, 8679360, Note_on_c, 2, 38, 50
2, 8679480, Note_off_c, 2, 38, 0
2, 8679600, Note_on_c, 2, 38, 50
2, 8680080, Note_off_c, 2, 38, 0
2, 8680080, Note_on_c, 2, 47, 50
2, 8680320, Note_off_c, 2, 47, 0
2, 8680560, Note_on_c, 2, 45, 50
2, 8681040, Note_off_c, 2, 45, 0
2, 8681040, Note_on_c, 2, 47, 50
2, 8681280, Note_off_c, 2, 47, 0
2, 8681280, Note_on_c, 2, 38, 50
2, 8681520, Note_off_c, 2, 38, 0
2, 8681760, Note_on_c, 2, 38, 50
2, 8682000, Note_off_c, 2, 38, 0
2, 8682000, Note_on_c, 2, 47, 50
2, 8682360, Note_off_c, 2, 47, 0
2, 8682480, Note_on_c, 2, 45, 50
2, 8682600, Note_off_c, 2, 45, 0
2, 8682720, Note_on_c, 2, 45, 50
2, 8682960, Note_off_c, 2, 45, 0
2, 8682960, Note_on_c, 2, 47, 50
2, 8683080, Note_off_c, 2, 47, 0
2, 8683200, Note_on_c, 2, 38, 50
2, 8683320, Note_off_c, 2, 38, 0
2, 8683680, Note_on_c, 2, 38, 50
2, 8683800, Note_off_c, 2, 38, 0
2, 8683920, Note_on_c, 2, 38, 50
2, 8684040, Note_off_c, 2, 38, 0
2, 8684160, Note_on_c, 2, 38, 50
2, 8684280, Note_off_c, 2, 38, 0
2, 8684400, Note_on_c, 2, 40, 50
2, 8684760, Note_off_c, 2, 40, 0
2, 8684880, Note_on_c, 2, 41, 50
2, 8685000, Note_off_c, 2, 41, 0
2, 8685120, Note_on_c, 2, 43, 50
2, 8685480, Note_off_c, 2, 43, 0
2, 8685600, Note_on_c, 2, 43, 50
2, 8685840, Note_off_c, 2, 43, 0
2, 8685840, Note_on_c, 2, 52, 50
2, 8686200, Note_off_c, 2, 52, 0
2, 8686320, Note_on_c, 2, 50, 50
2, 8686680, Note_off_c, 2, 50, 0
2, 8686800, Note_on_c, 2, 52, 50
2, 8687040, Note_off_c, 2, 52, 0
2, 8687040, Note_on_c, 2, 38, 50
2, 8687400, Note_off_c, 2, 38, 0
2, 8687520, Note_on_c, 2, 38, 50
2, 8687640, Note_off_c, 2, 38, 0
2, 8687760, Note_on_c, 2, 38, 50
2, 8687880, Note_off_c, 2, 38, 0
2, 8688000, Note_on_c, 2, 38, 50
2, 8688240, Note_off_c, 2, 38, 0
2, 8688240, Note_on_c, 2, 40, 50
2, 8688600, Note_off_c, 2, 40, 0
2, 8688720, Note_on_c, 2, 41, 50
2, 8689080, Note_off_c, 2, 41, 0
2, 8689200, Note_on_c, 2, 43, 50
2, 8689320, Note_off_c, 2, 43, 0
2, 8691120, Note_on_c, 2, 38, 50
2, 8691720, Note_off_c, 2, 38, 0
2, 8691840, Note_on_c, 2, 41, 50
2, 8692440, Note_off_c, 2, 41, 0
2, 8692560, Note_on_c, 2, 45, 50
2, 8692920, Note_off_c, 2, 45, 0
2, 8693040, Note_on_c, 2, 38, 50
2, 8693640, Note_off_c, 2, 38, 0
2, 8693760, Note_on_c, 2, 41, 50
2, 8694360, Note_off_c, 2, 41, 0
2, 8694480, Note_on_c, 2, 45, 50
2, 8694720, Note_off_c, 2, 45, 0
2, 8694960, Note_on_c, 2, 43, 50
2, 8695560, Note_off_c, 2, 43, 0
2, 8695680, Note_on_c, 2, 47, 50
2, 8696280, Note_off_c, 2, 47, 0
2, 8696400, Note_on_c, 2, 50, 50
2, 8696760, Note_off_c, 2, 50, 0
2, 8696880, Note_on_c, 2, 43, 50
2, 8697480, Note_off_c, 2, 43, 0
2, 8697600, Note_on_c, 2, 47, 50
2, 8698200, Note_off_c, 2, 47, 0
2, 8698320, Note_on_c, 2, 50, 50
2, 8698440, Note_off_c, 2, 50, 0
2, 8698800, Note_on_c, 2, 36, 50
2, 8699400, Note_off_c, 2, 36, 0
2, 8699520, Note_on_c, 2, 40, 50
2, 8700120, Note_off_c, 2, 40, 0
2, 8700240, Note_on_c, 2, 43, 50
2, 8700600, Note_off_c, 2, 43, 0
2, 8700720, Note_on_c, 2, 36, 50
2, 8701440, Note_off_c, 2, 36, 0
2, 8701440, Note_on_c, 2, 40, 50
2, 8702040, Note_off_c, 2, 40, 0
2, 8702160, Note_on_c, 2, 43, 50
2, 8702520, Note_off_c, 2, 43, 0
2, 8702640, Note_on_c, 2, 38, 50
2, 8703240, Note_off_c, 2, 38, 0
2, 8703360, Note_on_c, 2, 41, 50
2, 8703960, Note_off_c, 2, 41, 0
2, 8704080, Note_on_c, 2, 45, 50
2, 8704440, Note_off_c, 2, 45, 0
2, 8704560, Note_on_c, 2, 38, 50
2, 8704800, Note_off_c, 2, 38, 0
2, 8706480, Note_on_c, 2, 31, 50
2, 8706960, Note_off_c, 2, 31, 0
2, 8706960, Note_on_c, 2, 40, 50
2, 8707200, Note_off_c, 2, 40, 0
2, 8707440, Note_on_c, 2, 38, 50
2, 8707920, Note_off_c, 2, 38, 0
2, 8707920, Note_on_c, 2, 40, 50
2, 8708160, Note_off_c, 2, 40, 0
2, 8708160, Note_on_c, 2, 31, 50
2, 8708520, Note_off_c, 2, 31, 0
2, 8708640, Note_on_c, 2, 31, 50
2, 8708880, Note_off_c, 2, 31, 0
2, 8708880, Note_on_c, 2, 40, 50
2, 8709240, Note_off_c, 2, 40, 0
2, 8709360, Note_on_c, 2, 38, 50
2, 8709480, Note_off_c, 2, 38, 0
2, 8709600, Note_on_c, 2, 38, 50
2, 8709840, Note_off_c, 2, 38, 0
2, 8709840, Note_on_c, 2, 40, 50
2, 8710080, Note_off_c, 2, 40, 0
2, 8710080, Note_on_c, 2, 38, 50
2, 8710200, Note_off_c, 2, 38, 0
2, 8710320, Note_on_c, 2, 31, 50
2, 8710800, Note_off_c, 2, 31, 0
2, 8710800, Note_on_c, 2, 40, 50
2, 8711040, Note_off_c, 2, 40, 0
2, 8711280, Note_on_c, 2, 38, 50
2, 8711760, Note_off_c, 2, 38, 0
2, 8711760, Note_on_c, 2, 40, 50
2, 8712000, Note_off_c, 2, 40, 0
2, 8712000, Note_on_c, 2, 31, 50
2, 8712360, Note_off_c, 2, 31, 0
2, 8712480, Note_on_c, 2, 31, 50
2, 8712720, Note_off_c, 2, 31, 0
2, 8712720, Note_on_c, 2, 40, 50
2, 8713080, Note_off_c, 2, 40, 0
2, 8713200, Note_on_c, 2, 38, 50
2, 8713320, Note_off_c, 2, 38, 0
2, 8713440, Note_on_c, 2, 38, 50
2, 8713680, Note_off_c, 2, 38, 0
2, 8713680, Note_on_c, 2, 40, 50
2, 8713920, Note_off_c, 2, 40, 0
2, 8713920, Note_on_c, 2, 38, 50
2, 8714040, Note_off_c, 2, 38, 0
2, 8714160, Note_on_c, 2, 36, 50
2, 8714760, Note_off_c, 2, 36, 0
2, 8714880, Note_on_c, 2, 45, 50
2, 8715120, Note_off_c, 2, 45, 0
2, 8715120, Note_on_c, 2, 43, 50
2, 8715600, Note_off_c, 2, 43, 0
2, 8715600, Note_on_c, 2, 45, 50
2, 8715840, Note_off_c, 2, 45, 0
2, 8715840, Note_on_c, 2, 36, 50
2, 8716080, Note_off_c, 2, 36, 0
2, 8716320, Note_on_c, 2, 36, 50
2, 8716560, Note_off_c, 2, 36, 0
2, 8716560, Note_on_c, 2, 45, 50
2, 8716920, Note_off_c, 2, 45, 0
2, 8717040, Note_on_c, 2, 43, 50
2, 8717160, Note_off_c, 2, 43, 0
2, 8717280, Note_on_c, 2, 43, 50
2, 8717520, Note_off_c, 2, 43, 0
2, 8717520, Note_on_c, 2, 45, 50
2, 8718000, Note_off_c, 2, 45, 0
2, 8718000, Note_on_c, 2, 31, 50
2, 8718480, Note_off_c, 2, 31, 0
2, 8718480, Note_on_c, 2, 40, 50
2, 8718600, Note_off_c, 2, 40, 0
2, 8718960, Note_on_c, 2, 38, 50
2, 8719560, Note_off_c, 2, 38, 0
2, 8719560, Note_on_c, 2, 40, 50
2, 8719800, Note_off_c, 2, 40, 0
2, 8719800, Note_on_c, 2, 31, 50
2, 8720040, Note_off_c, 2, 31, 0
2, 8720280, Note_on_c, 2, 31, 50
2, 8720520, Note_off_c, 2, 31, 0
2, 8720520, Note_on_c, 2, 40, 50
2, 8720880, Note_off_c, 2, 40, 0
2, 8720880, Note_on_c, 2, 38, 50
2, 8721000, Note_off_c, 2, 38, 0
2, 8721120, Note_on_c, 2, 38, 50
2, 8721360, Note_off_c, 2, 38, 0
2, 8721360, Note_on_c, 2, 40, 50
2, 8721600, Note_off_c, 2, 40, 0
2, 8721600, Note_on_c, 2, 38, 50
2, 8721720, Note_off_c, 2, 38, 0
2, 8721840, Note_on_c, 2, 38, 50
2, 8722320, Note_off_c, 2, 38, 0
2, 8722320, Note_on_c, 2, 47, 50
2, 8722560, Note_off_c, 2, 47, 0
2, 8722800, Note_on_c, 2, 45, 50
2, 8723280, Note_off_c, 2, 45, 0
2, 8723280, Note_on_c, 2, 47, 50
2, 8723520, Note_off_c, 2, 47, 0
2, 8723520, Note_on_c, 2, 38, 50
2, 8723760, Note_off_c, 2, 38, 0
2, 8724000, Note_on_c, 2, 38, 50
2, 8724240, Note_off_c, 2, 38, 0
2, 8724240, Note_on_c, 2, 47, 50
2, 8724600, Note_off_c, 2, 47, 0
2, 8724720, Note_on_c, 2, 45, 50
2, 8724840, Note_off_c, 2, 45, 0
2, 8724960, Note_on_c, 2, 45, 50
2, 8725200, Note_off_c, 2, 45, 0
2, 8725200, Note_on_c, 2, 47, 50
2, 8725320, Note_off_c, 2, 47, 0
2, 8725440, Note_on_c, 2, 38, 50
2, 8725560, Note_off_c, 2, 38, 0
2, 8725920, Note_on_c, 2, 38, 50
2, 8726040, Note_off_c, 2, 38, 0
2, 8726160, Note_on_c, 2, 38, 50
2, 8726280, Note_off_c, 2, 38, 0
2, 8726400, Note_on_c, 2, 38, 50
2, 8726520, Note_off_c, 2, 38, 0
2, 8726640, Note_on_c, 2, 40, 50
2, 8727000, Note_off_c, 2, 40, 0
2, 8727120, Note_on_c, 2, 41, 50
2, 8727240, Note_off_c, 2, 41, 0
2, 8727360, Note_on_c, 2, 43, 50
2, 8727720, Note_off_c, 2, 43, 0
2, 8727840, Note_on_c, 2, 43, 50
2, 8728080, Note_off_c, 2, 43, 0
2, 8728080, Note_on_c, 2, 52, 50
2, 8728440, Note_off_c, 2, 52, 0
2, 8728560, Note_on_c, 2, 50, 50
2, 8728920, Note_off_c, 2, 50, 0
2, 8729040, Note_on_c, 2, 52, 50
2, 8729280, Note_off_c, 2, 52, 0
2, 8729280, Note_on_c, 2, 38, 50
2, 8729640, Note_off_c, 2, 38, 0
2, 8729760, Note_on_c, 2, 38, 50
2, 8729880, Note_off_c, 2, 38, 0
2, 8730000, Note_on_c, 2, 38, 50
2, 8730120, Note_off_c, 2, 38, 0
2, 8730240, Note_on_c, 2, 38, 50
2, 8730480, Note_off_c, 2, 38, 0
2, 8730480, Note_on_c, 2, 40, 50
2, 8730840, Note_off_c, 2, 40, 0
2, 8730960, Note_on_c, 2, 41, 50
2, 8731320, Note_off_c, 2, 41, 0
2, 8731440, Note_on_c, 2, 43, 50
2, 8731560, Note_off_c, 2, 43, 0
2, 8731920, Note_on_c, 2, 43, 50
2, 8732040, Note_off_c, 2, 43, 0
2, 8732160, Note_on_c, 2, 43, 50
2, 8732280, Note_off_c, 2, 43, 0
2, 8732400, Note_on_c, 2, 43, 50
2, 8732520, Note_off_c, 2, 43, 0
2, 8745600, Note_on_c, 2, 59, 50
2, 8745720, Note_off_c, 2, 59, 0
2, 8745840, Note_on_c, 2, 61, 50
2, 8746200, Note_off_c, 2, 61, 0
2, 8746320, Note_on_c, 2, 62, 50
2, 8746680, Note_off_c, 2, 62, 0
2, 8746800, Note_on_c, 2, 61, 50
2, 8747160, Note_off_c, 2, 61, 0
2, 8747520, Note_on_c, 2, 59, 50
2, 8747640, Note_off_c, 2, 59, 0
2, 8747760, Note_on_c, 2, 61, 50
2, 8748120, Note_off_c, 2, 61, 0
2, 8748240, Note_on_c, 2, 62, 50
2, 8748600, Note_off_c, 2, 62, 0
2, 8748720, Note_on_c, 2, 61, 50
2, 8748960, Note_off_c, 2, 61, 0
2, 8748960, Note_on_c, 2, 54, 50
2, 8749080, Note_off_c, 2, 54, 0
2, 8749440, Note_on_c, 2, 54, 50
2, 8749560, Note_off_c, 2, 54, 0
2, 8749680, Note_on_c, 2, 56, 50
2, 8750040, Note_off_c, 2, 56, 0
2, 8750160, Note_on_c, 2, 57, 50
2, 8750400, Note_off_c, 2, 57, 0
2, 8750400, Note_on_c, 2, 54, 50
2, 8750520, Note_off_c, 2, 54, 0
2, 8750640, Note_on_c, 2, 56, 50
2, 8750880, Note_off_c, 2, 56, 0
2, 8750880, Note_on_c, 2, 54, 50
2, 8751120, Note_off_c, 2, 54, 0
2, 8751360, Note_on_c, 2, 54, 50
2, 8751480, Note_off_c, 2, 54, 0
2, 8751600, Note_on_c, 2, 56, 50
2, 8751960, Note_off_c, 2, 56, 0
2, 8752080, Note_on_c, 2, 57, 50
2, 8752320, Note_off_c, 2, 57, 0
2, 8752320, Note_on_c, 2, 54, 50
2, 8752440, Note_off_c, 2, 54, 0
2, 8752560, Note_on_c, 2, 56, 50
2, 8752800, Note_off_c, 2, 56, 0
2, 8752800, Note_on_c, 2, 59, 50
2, 8753040, Note_off_c, 2, 59, 0
2, 8753280, Note_on_c, 2, 59, 50
2, 8753400, Note_off_c, 2, 59, 0
2, 8753520, Note_on_c, 2, 61, 50
2, 8753880, Note_off_c, 2, 61, 0
2, 8754000, Note_on_c, 2, 62, 50
2, 8754240, Note_off_c, 2, 62, 0
2, 8754240, Note_on_c, 2, 59, 50
2, 8754360, Note_off_c, 2, 59, 0
2, 8754480, Note_on_c, 2, 61, 50
2, 8754720, Note_off_c, 2, 61, 0
2, 8754720, Note_on_c, 2, 54, 50
2, 8754960, Note_off_c, 2, 54, 0
2, 8755200, Note_on_c, 2, 61, 50
2, 8755320, Note_off_c, 2, 61, 0
2, 8755440, Note_on_c, 2, 63, 50
2, 8755680, Note_off_c, 2, 63, 0
2, 8755680, Note_on_c, 2, 61, 50
2, 8755800, Note_off_c, 2, 61, 0
2, 8755920, Note_on_c, 2, 64, 50
2, 8756160, Note_off_c, 2, 64, 0
2, 8756280, Note_on_c, 2, 61, 50
2, 8756400, Note_off_c, 2, 61, 0
2, 8756400, Note_on_c, 2, 63, 50
2, 8756640, Note_off_c, 2, 63, 0
2, 8756760, Note_on_c, 2, 54, 50
2, 8756880, Note_off_c, 2, 54, 0
2, 8757120, Note_on_c, 2, 54, 50
2, 8757240, Note_off_c, 2, 54, 0
2, 8757360, Note_on_c, 2, 56, 50
2, 8757720, Note_off_c, 2, 56, 0
2, 8757840, Note_on_c, 2, 57, 50
2, 8758080, Note_off_c, 2, 57, 0
2, 8758080, Note_on_c, 2, 54, 50
2, 8758200, Note_off_c, 2, 54, 0
2, 8758320, Note_on_c, 2, 56, 50
2, 8758680, Note_off_c, 2, 56, 0
2, 8759040, Note_on_c, 2, 54, 50
2, 8759160, Note_off_c, 2, 54, 0
2, 8759280, Note_on_c, 2, 56, 50
2, 8759640, Note_off_c, 2, 56, 0
2, 8759760, Note_on_c, 2, 57, 50
2, 8760000, Note_off_c, 2, 57, 0
2, 8760000, Note_on_c, 2, 54, 50
2, 8760120, Note_off_c, 2, 54, 0
2, 8760240, Note_on_c, 2, 56, 50
2, 8760480, Note_off_c, 2, 56, 0
2, 8760480, Note_on_c, 2, 54, 50
2, 8760720, Note_off_c, 2, 54, 0
2, 8760720, Note_on_c, 2, 54, 50
2, 8760960, Note_off_c, 2, 54, 0
2, 8760960, Note_on_c, 2, 54, 50
2, 8761080, Note_off_c, 2, 54, 0
2, 8761200, Note_on_c, 2, 56, 50
2, 8761560, Note_off_c, 2, 56, 0
2, 8761680, Note_on_c, 2, 57, 50
2, 8761920, Note_off_c, 2, 57, 0
2, 8761920, Note_on_c, 2, 54, 50
2, 8762040, Note_off_c, 2, 54, 0
2, 8762160, Note_on_c, 2, 56, 50
2, 8762520, Note_off_c, 2, 56, 0
2, 8762520, Note_on_c, 2, 59, 50
2, 8762760, Note_off_c, 2, 59, 0
2, 8763120, Note_on_c, 2, 61, 50
2, 8763480, Note_off_c, 2, 61, 0
2, 8763600, Note_on_c, 2, 62, 50
2, 8763960, Note_off_c, 2, 62, 0
2, 8764080, Note_on_c, 2, 61, 50
2, 8764440, Note_off_c, 2, 61, 0
2, 8764800, Note_on_c, 2, 54, 50
2, 8764920, Note_off_c, 2, 54, 0
2, 8765040, Note_on_c, 2, 56, 50
2, 8765400, Note_off_c, 2, 56, 0
2, 8765520, Note_on_c, 2, 57, 50
2, 8765760, Note_off_c, 2, 57, 0
2, 8765760, Note_on_c, 2, 54, 50
2, 8765880, Note_off_c, 2, 54, 0
2, 8766000, Note_on_c, 2, 56, 50
2, 8766360, Note_off_c, 2, 56, 0
2, 8766720, Note_on_c, 2, 54, 50
2, 8766840, Note_off_c, 2, 54, 0
2, 8766960, Note_on_c, 2, 56, 50
2, 8767320, Note_off_c, 2, 56, 0
2, 8767440, Note_on_c, 2, 57, 50
2, 8767680, Note_off_c, 2, 57, 0
2, 8767680, Note_on_c, 2, 54, 50
2, 8767800, Note_off_c, 2, 54, 0
2, 8767920, Note_on_c, 2, 56, 50
2, 8768160, Note_off_c, 2, 56, 0
2, 8768160, Note_on_c, 2, 59, 50
2, 8768400, Note_off_c, 2, 59, 0
2, 8768640, Note_on_c, 2, 59, 50
2, 8768760, Note_off_c, 2, 59, 0
2, 8768880, Note_on_c, 2, 61, 50
2, 8769240, Note_off_c, 2, 61, 0
2, 8769360, Note_on_c, 2, 62, 50
2, 8769720, Note_off_c, 2, 62, 0
2, 8769840, Note_on_c, 2, 61, 50
2, 8770200, Note_off_c, 2, 61, 0
2, 8770560, Note_on_c, 2, 59, 50
2, 8770680, Note_off_c, 2, 59, 0
2, 8770800, Note_on_c, 2, 61, 50
2, 8771160, Note_off_c, 2, 61, 0
2, 8771280, Note_on_c, 2, 62, 50
2, 8771640, Note_off_c, 2, 62, 0
2, 8771760, Note_on_c, 2, 61, 50
2, 8772000, Note_off_c, 2, 61, 0
2, 8772000, Note_on_c, 2, 54, 50
2, 8772120, Note_off_c, 2, 54, 0
2, 8772480, Note_on_c, 2, 54, 50
2, 8772600, Note_off_c, 2, 54, 0
2, 8772720, Note_on_c, 2, 56, 50
2, 8773080, Note_off_c, 2, 56, 0
2, 8773200, Note_on_c, 2, 57, 50
2, 8773440, Note_off_c, 2, 57, 0
2, 8773440, Note_on_c, 2, 54, 50
2, 8773560, Note_off_c, 2, 54, 0
2, 8773680, Note_on_c, 2, 56, 50
2, 8773920, Note_off_c, 2, 56, 0
2, 8773920, Note_on_c, 2, 54, 50
2, 8774160, Note_off_c, 2, 54, 0
2, 8774400, Note_on_c, 2, 54, 50
2, 8774520, Note_off_c, 2, 54, 0
2, 8774640, Note_on_c, 2, 56, 50
2, 8775000, Note_off_c, 2, 56, 0
2, 8775120, Note_on_c, 2, 57, 50
2, 8775360, Note_off_c, 2, 57, 0
2, 8775360, Note_on_c, 2, 54, 50
2, 8775480, Note_off_c, 2, 54, 0
2, 8775600, Note_on_c, 2, 56, 50
2, 8775840, Note_off_c, 2, 56, 0
2, 8775840, Note_on_c, 2, 59, 50
2, 8776080, Note_off_c, 2, 59, 0
2, 8776320, Note_on_c, 2, 59, 50
2, 8776440, Note_off_c, 2, 59, 0
2, 8776560, Note_on_c, 2, 61, 50
2, 8776920, Note_off_c, 2, 61, 0
2, 8777040, Note_on_c, 2, 62, 50
2, 8777280, Note_off_c, 2, 62, 0
2, 8777280, Note_on_c, 2, 59, 50
2, 8777400, Note_off_c, 2, 59, 0
2, 8777520, Note_on_c, 2, 61, 50
2, 8777760, Note_off_c, 2, 61, 0
2, 8777760, Note_on_c, 2, 54, 50
2, 8778000, Note_off_c, 2, 54, 0
2, 8778240, Note_on_c, 2, 61, 50
2, 8778360, Note_off_c, 2, 61, 0
2, 8778480, Note_on_c, 2, 63, 50
2, 8778720, Note_off_c, 2, 63, 0
2, 8778720, Note_on_c, 2, 61, 50
2, 8778840, Note_off_c, 2, 61, 0
2, 8778960, Note_on_c, 2, 64, 50
2, 8779200, Note_off_c, 2, 64, 0
2, 8779320, Note_on_c, 2, 61, 50
2, 8779440, Note_off_c, 2, 61, 0
2, 8779440, Note_on_c, 2, 63, 50
2, 8779680, Note_off_c, 2, 63, 0
2, 8779920, Note_on_c, 2, 54, 50
2, 8780040, Note_off_c, 2, 54, 0
2, 8780160, Note_on_c, 2, 54, 50
2, 8780280, Note_off_c, 2, 54, 0
2, 8780400, Note_on_c, 2, 56, 50
2, 8780760, Note_off_c, 2, 56, 0
2, 8780880, Note_on_c, 2, 57, 50
2, 8781120, Note_off_c, 2, 57, 0
2, 8781120, Note_on_c, 2, 54, 50
2, 8781240, Note_off_c, 2, 54, 0
2, 8781360, Note_on_c, 2, 56, 50
2, 8781720, Note_off_c, 2, 56, 0
2, 8782080, Note_on_c, 2, 54, 50
2, 8782200, Note_off_c, 2, 54, 0
2, 8782320, Note_on_c, 2, 56, 50
2, 8782680, Note_off_c, 2, 56, 0
2, 8782800, Note_on_c, 2, 57, 50
2, 8783040, Note_off_c, 2, 57, 0
2, 8783040, Note_on_c, 2, 54, 50
2, 8783160, Note_off_c, 2, 54, 0
2, 8783280, Note_on_c, 2, 56, 50
2, 8783520, Note_off_c, 2, 56, 0
2, 8783520, Note_on_c, 2, 54, 50
2, 8783760, Note_off_c, 2, 54, 0
2, 8783760, Note_on_c, 2, 54, 50
2, 8784000, Note_off_c, 2, 54, 0
2, 8784000, Note_on_c, 2, 54, 50
2, 8784120, Note_off_c, 2, 54, 0
2, 8784240, Note_on_c, 2, 56, 50
2, 8784600, Note_off_c, 2, 56, 0
2, 8784720, Note_on_c, 2, 57, 50
2, 8784960, Note_off_c, 2, 57, 0
2, 8784960, Note_on_c, 2, 54, 50
2, 8785080, Note_off_c, 2, 54, 0
2, 8785200, Note_on_c, 2, 56, 50
2, 8785560, Note_off_c, 2, 56, 0
2, 8785560, Note_on_c, 2, 59, 50
2, 8785800, Note_off_c, 2, 59, 0
2, 8786160, Note_on_c, 2, 61, 50
2, 8786520, Note_off_c, 2, 61, 0
2, 8786640, Note_on_c, 2, 62, 50
2, 8787000, Note_off_c, 2, 62, 0
2, 8787120, Note_on_c, 2, 61, 50
2, 8787480, Note_off_c, 2, 61, 0
2, 8787840, Note_on_c, 2, 54, 50
2, 8787960, Note_off_c, 2, 54, 0
2, 8788080, Note_on_c, 2, 56, 50
2, 8788440, Note_off_c, 2, 56, 0
2, 8788560, Note_on_c, 2, 57, 50
2, 8788800, Note_off_c, 2, 57, 0
2, 8788800, Note_on_c, 2, 54, 50
2, 8788920, Note_off_c, 2, 54, 0
2, 8789040, Note_on_c, 2, 56, 50
2, 8789400, Note_off_c, 2, 56, 0
2, 8789760, Note_on_c, 2, 54, 50
2, 8789880, Note_off_c, 2, 54, 0
2, 8790000, Note_on_c, 2, 56, 50
2, 8790360, Note_off_c, 2, 56, 0
2, 8790480, Note_on_c, 2, 57, 50
2, 8790720, Note_off_c, 2, 57, 0
2, 8790720, Note_on_c, 2, 54, 50
2, 8790840, Note_off_c, 2, 54, 0
2, 8790960, Note_on_c, 2, 56, 50
2, 8791200, Note_off_c, 2, 56, 0
2, 8791200, Note_on_c, 2, 59, 50
2, 8791440, Note_off_c, 2, 59, 0
2, 8791680, Note_on_c, 2, 59, 50
2, 8791800, Note_off_c, 2, 59, 0
2, 8791920, Note_on_c, 2, 61, 50
2, 8792280, Note_off_c, 2, 61, 0
2, 8792400, Note_on_c, 2, 62, 50
2, 8792760, Note_off_c, 2, 62, 0
2, 8792880, Note_on_c, 2, 61, 50
2, 8793240, Note_off_c, 2, 61, 0
2, 8793600, Note_on_c, 2, 59, 50
2, 8793720, Note_off_c, 2, 59, 0
2, 8793840, Note_on_c, 2, 61, 50
2, 8794200, Note_off_c, 2, 61, 0
2, 8794320, Note_on_c, 2, 62, 50
2, 8794680, Note_off_c, 2, 62, 0
2, 8794800, Note_on_c, 2, 61, 50
2, 8795040, Note_off_c, 2, 61, 0
2, 8795040, Note_on_c, 2, 54, 50
2, 8795160, Note_off_c, 2, 54, 0
2, 8795520, Note_on_c, 2, 54, 50
2, 8795640, Note_off_c, 2, 54, 0
2, 8795760, Note_on_c, 2, 56, 50
2, 8796120, Note_off_c, 2, 56, 0
2, 8796240, Note_on_c, 2, 57, 50
2, 8796480, Note_off_c, 2, 57, 0
2, 8796480, Note_on_c, 2, 54, 50
2, 8796600, Note_off_c, 2, 54, 0
2, 8796720, Note_on_c, 2, 56, 50
2, 8796960, Note_off_c, 2, 56, 0
2, 8796960, Note_on_c, 2, 54, 50
2, 8797200, Note_off_c, 2, 54, 0
2, 8797440, Note_on_c, 2, 54, 50
2, 8797560, Note_off_c, 2, 54, 0
2, 8797680, Note_on_c, 2, 56, 50
2, 8798040, Note_off_c, 2, 56, 0
2, 8798160, Note_on_c, 2, 57, 50
2, 8798400, Note_off_c, 2, 57, 0
2, 8798400, Note_on_c, 2, 54, 50
2, 8798520, Note_off_c, 2, 54, 0
2, 8798640, Note_on_c, 2, 56, 50
2, 8798880, Note_off_c, 2, 56, 0
2, 8798880, Note_on_c, 2, 59, 50
2, 8799120, Note_off_c, 2, 59, 0
2, 8799360, Note_on_c, 2, 59, 50
2, 8799480, Note_off_c, 2, 59, 0
2, 8799600, Note_on_c, 2, 61, 50
2, 8799960, Note_off_c, 2, 61, 0
2, 8800080, Note_on_c, 2, 62, 50
2, 8800320, Note_off_c, 2, 62, 0
2, 8800320, Note_on_c, 2, 59, 50
2, 8800440, Note_off_c, 2, 59, 0
2, 8800560, Note_on_c, 2, 61, 50
2, 8800800, Note_off_c, 2, 61, 0
2, 8800800, Note_on_c, 2, 54, 50
2, 8801040, Note_off_c, 2, 54, 0
2, 8801280, Note_on_c, 2, 61, 50
2, 8801400, Note_off_c, 2, 61, 0
2, 8801520, Note_on_c, 2, 63, 50
2, 8801760, Note_off_c, 2, 63, 0
2, 8801760, Note_on_c, 2, 61, 50
2, 8801880, Note_off_c, 2, 61, 0
2, 8802000, Note_on_c, 2, 64, 50
2, 8802240, Note_off_c, 2, 64, 0
2, 8802360, Note_on_c, 2, 61, 50
2, 8802480, Note_off_c, 2, 61, 0
2, 8802480, Note_on_c, 2, 63, 50
2, 8802720, Note_off_c, 2, 63, 0
2, 8802720, Note_on_c, 2, 54, 50
2, 8802840, Note_off_c, 2, 54, 0
2, 8803200, Note_on_c, 2, 54, 50
2, 8803320, Note_off_c, 2, 54, 0
2, 8803440, Note_on_c, 2, 56, 50
2, 8803800, Note_off_c, 2, 56, 0
2, 8803920, Note_on_c, 2, 57, 50
2, 8804160, Note_off_c, 2, 57, 0
2, 8804160, Note_on_c, 2, 54, 50
2, 8804280, Note_off_c, 2, 54, 0
2, 8804400, Note_on_c, 2, 56, 50
2, 8804760, Note_off_c, 2, 56, 0
2, 8805120, Note_on_c, 2, 54, 50
2, 8805240, Note_off_c, 2, 54, 0
2, 8805360, Note_on_c, 2, 56, 50
2, 8805720, Note_off_c, 2, 56, 0
2, 8805840, Note_on_c, 2, 57, 50
2, 8806080, Note_off_c, 2, 57, 0
2, 8806080, Note_on_c, 2, 54, 50
2, 8806200, Note_off_c, 2, 54, 0
2, 8806320, Note_on_c, 2, 56, 50
2, 8806560, Note_off_c, 2, 56, 0
2, 8806560, Note_on_c, 2, 54, 50
2, 8806800, Note_off_c, 2, 54, 0
2, 8806800, Note_on_c, 2, 54, 50
2, 8807040, Note_off_c, 2, 54, 0
2, 8807040, Note_on_c, 2, 54, 50
2, 8807160, Note_off_c, 2, 54, 0
2, 8807280, Note_on_c, 2, 56, 50
2, 8807640, Note_off_c, 2, 56, 0
2, 8807760, Note_on_c, 2, 57, 50
2, 8808000, Note_off_c, 2, 57, 0
2, 8808000, Note_on_c, 2, 54, 50
2, 8808120, Note_off_c, 2, 54, 0
2, 8808240, Note_on_c, 2, 56, 50
2, 8808600, Note_off_c, 2, 56, 0
2, 8808600, Note_on_c, 2, 59, 50
2, 8808840, Note_off_c, 2, 59, 0
2, 8809200, Note_on_c, 2, 61, 50
2, 8809560, Note_off_c, 2, 61, 0
2, 8809680, Note_on_c, 2, 62, 50
2, 8810040, Note_off_c, 2, 62, 0
2, 8810160, Note_on_c, 2, 61, 50
2, 8810520, Note_off_c, 2, 61, 0
2, 8810880, Note_on_c, 2, 54, 50
2, 8811000, Note_off_c, 2, 54, 0
2, 8811120, Note_on_c, 2, 56, 50
2, 8811480, Note_off_c, 2, 56, 0
2, 8811600, Note_on_c, 2, 57, 50
2, 8811840, Note_off_c, 2, 57, 0
2, 8811840, Note_on_c, 2, 54, 50
2, 8811960, Note_off_c, 2, 54, 0
2, 8812080, Note_on_c, 2, 56, 50
2, 8812440, Note_off_c, 2, 56, 0
2, 8812800, Note_on_c, 2, 54, 50
2, 8812920, Note_off_c, 2, 54, 0
2, 8813040, Note_on_c, 2, 56, 50
2, 8813400, Note_off_c, 2, 56, 0
2, 8813520, Note_on_c, 2, 57, 50
2, 8813760, Note_off_c, 2, 57, 0
2, 8813760, Note_on_c, 2, 54, 50
2, 8813880, Note_off_c, 2, 54, 0
2, 8814000, Note_on_c, 2, 56, 50
2, 8814240, Note_off_c, 2, 56, 0
2, 8814240, Note_on_c, 2, 59, 50
2, 8814480, Note_off_c, 2, 59, 0
2, 8814720, Note_on_c, 2, 59, 50
2, 8814840, Note_off_c, 2, 59, 0
2, 8814960, Note_on_c, 2, 61, 50
2, 8815320, Note_off_c, 2, 61, 0
2, 8815440, Note_on_c, 2, 62, 50
2, 8815800, Note_off_c, 2, 62, 0
2, 8815920, Note_on_c, 2, 61, 50
2, 8816280, Note_off_c, 2, 61, 0
2, 8816640, Note_on_c, 2, 59, 50
2, 8816760, Note_off_c, 2, 59, 0
2, 8816880, Note_on_c, 2, 61, 50
2, 8817240, Note_off_c, 2, 61, 0
2, 8817360, Note_on_c, 2, 62, 50
2, 8817720, Note_off_c, 2, 62, 0
2, 8817840, Note_on_c, 2, 61, 50
2, 8818080, Note_off_c, 2, 61, 0
2, 8818080, Note_on_c, 2, 54, 50
2, 8818200, Note_off_c, 2, 54, 0
2, 8818560, Note_on_c, 2, 54, 50
2, 8818680, Note_off_c, 2, 54, 0
2, 8818800, Note_on_c, 2, 56, 50
2, 8819160, Note_off_c, 2, 56, 0
2, 8819280, Note_on_c, 2, 57, 50
2, 8819520, Note_off_c, 2, 57, 0
2, 8819520, Note_on_c, 2, 54, 50
2, 8819640, Note_off_c, 2, 54, 0
2, 8819760, Note_on_c, 2, 56, 50
2, 8820000, Note_off_c, 2, 56, 0
2, 8820000, Note_on_c, 2, 54, 50
2, 8820240, Note_off_c, 2, 54, 0
2, 8820480, Note_on_c, 2, 54, 50
2, 8820600, Note_off_c, 2, 54, 0
2, 8820720, Note_on_c, 2, 56, 50
2, 8821080, Note_off_c, 2, 56, 0
2, 8821200, Note_on_c, 2, 57, 50
2, 8821440, Note_off_c, 2, 57, 0
2, 8821440, Note_on_c, 2, 54, 50
2, 8821560, Note_off_c, 2, 54, 0
2, 8821680, Note_on_c, 2, 56, 50
2, 8821920, Note_off_c, 2, 56, 0
2, 8821920, Note_on_c, 2, 59, 50
2, 8822160, Note_off_c, 2, 59, 0
2, 8822400, Note_on_c, 2, 59, 50
2, 8822520, Note_off_c, 2, 59, 0
2, 8822640, Note_on_c, 2, 61, 50
2, 8823000, Note_off_c, 2, 61, 0
2, 8823120, Note_on_c, 2, 62, 50
2, 8823360, Note_off_c, 2, 62, 0
2, 8823360, Note_on_c, 2, 59, 50
2, 8823480, Note_off_c, 2, 59, 0
2, 8823600, Note_on_c, 2, 61, 50
2, 8823840, Note_off_c, 2, 61, 0
2, 8823840, Note_on_c, 2, 54, 50
2, 8824080, Note_off_c, 2, 54, 0
2, 8824320, Note_on_c, 2, 61, 50
2, 8824440, Note_off_c, 2, 61, 0
2, 8824560, Note_on_c, 2, 63, 50
2, 8824800, Note_off_c, 2, 63, 0
2, 8824800, Note_on_c, 2, 61, 50
2, 8824920, Note_off_c, 2, 61, 0
2, 8825040, Note_on_c, 2, 64, 50
2, 8825280, Note_off_c, 2, 64, 0
2, 8825400, Note_on_c, 2, 61, 50
2, 8825520, Note_off_c, 2, 61, 0
2, 8825520, Note_on_c, 2, 63, 50
2, 8825760, Note_off_c, 2, 63, 0
2, 8825760, Note_on_c, 2, 54, 50
2, 8825880, Note_off_c, 2, 54, 0
2, 8826240, Note_on_c, 2, 54, 50
2, 8826360, Note_off_c, 2, 54, 0
2, 8826480, Note_on_c, 2, 56, 50
2, 8826840, Note_off_c, 2, 56, 0
2, 8826960, Note_on_c, 2, 57, 50
2, 8827200, Note_off_c, 2, 57, 0
2, 8827200, Note_on_c, 2, 54, 50
2, 8827320, Note_off_c, 2, 54, 0
2, 8827440, Note_on_c, 2, 56, 50
2, 8827800, Note_off_c, 2, 56, 0
2, 8828160, Note_on_c, 2, 54, 50
2, 8828280, Note_off_c, 2, 54, 0
2, 8828400, Note_on_c, 2, 56, 50
2, 8828760, Note_off_c, 2, 56, 0
2, 8828880, Note_on_c, 2, 57, 50
2, 8829120, Note_off_c, 2, 57, 0
2, 8829120, Note_on_c, 2, 54, 50
2, 8829240, Note_off_c, 2, 54, 0
2, 8829360, Note_on_c, 2, 56, 50
2, 8829600, Note_off_c, 2, 56, 0
2, 8829600, Note_on_c, 2, 54, 50
2, 8829840, Note_off_c, 2, 54, 0
2, 8829840, Note_on_c, 2, 63, 50
2, 8830080, Note_off_c, 2, 63, 0
2, 8830080, Note_on_c, 2, 63, 50
2, 8830200, Note_off_c, 2, 63, 0
2, 8830320, Note_on_c, 2, 64, 50
2, 8830560, Note_off_c, 2, 64, 0
2, 8830800, Note_on_c, 2, 63, 50
2, 8831040, Note_off_c, 2, 63, 0
2, 8831280, Note_on_c, 2, 63, 50
2, 8831520, Note_off_c, 2, 63, 0
2, 8831760, Note_on_c, 2, 63, 50
2, 8832000, Note_off_c, 2, 63, 0
2, 8832000, Note_on_c, 2, 63, 50
2, 8832120, Note_off_c, 2, 63, 0
2, 8832240, Note_on_c, 2, 64, 50
2, 8832480, Note_off_c, 2, 64, 0
2, 8832720, Note_on_c, 2, 63, 50
2, 8832960, Note_off_c, 2, 63, 0
2, 8833200, Note_on_c, 2, 63, 50
2, 8833440, Note_off_c, 2, 63, 0
2, 8833680, Note_on_c, 2, 63, 50
2, 8833920, Note_off_c, 2, 63, 0
2, 8833920, Note_on_c, 2, 63, 50
2, 8834040, Note_off_c, 2, 63, 0
2, 8834160, Note_on_c, 2, 64, 50
2, 8834400, Note_off_c, 2, 64, 0
2, 8834640, Note_on_c, 2, 63, 50
2, 8834880, Note_off_c, 2, 63, 0
2, 8835120, Note_on_c, 2, 63, 50
2, 8835360, Note_off_c, 2, 63, 0
2, 8835600, Note_on_c, 2, 63, 50
2, 8835840, Note_off_c, 2, 63, 0
2, 8835840, Note_on_c, 2, 63, 50
2, 8835960, Note_off_c, 2, 63, 0
2, 8836080, Note_on_c, 2, 64, 50
2, 8836320, Note_off_c, 2, 64, 0
2, 8836560, Note_on_c, 2, 63, 50
2, 8836800, Note_off_c, 2, 63, 0
2, 8837040, Note_on_c, 2, 63, 50
2, 8837280, Note_off_c, 2, 63, 0
2, 8837520, Note_on_c, 2, 64, 50
2, 8837760, Note_off_c, 2, 64, 0
2, 8838000, Note_on_c, 2, 66, 50
2, 8838240, Note_off_c, 2, 66, 0
2, 8838480, Note_on_c, 2, 64, 50
2, 8838720, Note_off_c, 2, 64, 0
2, 8838960, Note_on_c, 2, 64, 50
2, 8839200, Note_off_c, 2, 64, 0
2, 8839440, Note_on_c, 2, 64, 50
2, 8839680, Note_off_c, 2, 64, 0
2, 8839920, Note_on_c, 2, 66, 50
2, 8840160, Note_off_c, 2, 66, 0
2, 8840400, Note_on_c, 2, 64, 50
2, 8840640, Note_off_c, 2, 64, 0
2, 8840880, Note_on_c, 2, 64, 50
2, 8841120, Note_off_c, 2, 64, 0
2, 8841360, Note_on_c, 2, 63, 50
2, 8841600, Note_off_c, 2, 63, 0
2, 8841600, Note_on_c, 2, 63, 50
2, 8841720, Note_off_c, 2, 63, 0
2, 8841840, Note_on_c, 2, 64, 50
2, 8842080, Note_off_c, 2, 64, 0
2, 8842320, Note_on_c, 2, 63, 50
2, 8842560, Note_off_c, 2, 63, 0
2, 8842800, Note_on_c, 2, 63, 50
2, 8843040, Note_off_c, 2, 63, 0
2, 8843280, Note_on_c, 2, 63, 50
2, 8843520, Note_off_c, 2, 63, 0
2, 8843520, Note_on_c, 2, 63, 50
2, 8843640, Note_off_c, 2, 63, 0
2, 8843760, Note_on_c, 2, 64, 50
2, 8844000, Note_off_c, 2, 64, 0
2, 8844240, Note_on_c, 2, 63, 50
2, 8844480, Note_off_c, 2, 63, 0
2, 8844720, Note_on_c, 2, 63, 50
2, 8844960, Note_off_c, 2, 63, 0
2, 8845200, Note_on_c, 2, 64, 50
2, 8845440, Note_off_c, 2, 64, 0
2, 8845440, Note_on_c, 2, 64, 50
2, 8845560, Note_off_c, 2, 64, 0
2, 8845680, Note_on_c, 2, 66, 50
2, 8845920, Note_off_c, 2, 66, 0
2, 8846160, Note_on_c, 2, 64, 50
2, 8846400, Note_off_c, 2, 64, 0
2, 8846640, Note_on_c, 2, 64, 50
2, 8846880, Note_off_c, 2, 64, 0
2, 8847120, Note_on_c, 2, 66, 50
2, 8847360, Note_off_c, 2, 66, 0
2, 8847600, Note_on_c, 2, 68, 50
2, 8847840, Note_off_c, 2, 68, 0
2, 8848080, Note_on_c, 2, 66, 50
2, 8848320, Note_off_c, 2, 66, 0
2, 8848560, Note_on_c, 2, 66, 50
2, 8848800, Note_off_c, 2, 66, 0
2, 8849040, Note_on_c, 2, 63, 50
2, 8849280, Note_off_c, 2, 63, 0
2, 8849520, Note_on_c, 2, 64, 50
2, 8849760, Note_off_c, 2, 64, 0
2, 8850000, Note_on_c, 2, 63, 50
2, 8850240, Note_off_c, 2, 63, 0
2, 8850480, Note_on_c, 2, 63, 50
2, 8850720, Note_off_c, 2, 63, 0
2, 8850960, Note_on_c, 2, 63, 50
2, 8851200, Note_off_c, 2, 63, 0
2, 8851440, Note_on_c, 2, 64, 50
2, 8851680, Note_off_c, 2, 64, 0
2, 8851920, Note_on_c, 2, 63, 50
2, 8852160, Note_off_c, 2, 63, 0
2, 8852400, Note_on_c, 2, 63, 50
2, 8852640, Note_off_c, 2, 63, 0
2, 8852880, Note_on_c, 2, 54, 50
2, 8853120, Note_off_c, 2, 54, 0
2, 8853120, Note_on_c, 2, 54, 50
2, 8853240, Note_off_c, 2, 54, 0
2, 8853360, Note_on_c, 2, 56, 50
2, 8853720, Note_off_c, 2, 56, 0
2, 8853840, Note_on_c, 2, 57, 50
2, 8854080, Note_off_c, 2, 57, 0
2, 8854080, Note_on_c, 2, 54, 50
2, 8854200, Note_off_c, 2, 54, 0
2, 8854320, Note_on_c, 2, 56, 50
2, 8854680, Note_off_c, 2, 56, 0
2, 8854680, Note_on_c, 2, 59, 50
2, 8854920, Note_off_c, 2, 59, 0
2, 8855280, Note_on_c, 2, 61, 50
2, 8855640, Note_off_c, 2, 61, 0
2, 8855760, Note_on_c, 2, 62, 50
2, 8856120, Note_off_c, 2, 62, 0
2, 8856240, Note_on_c, 2, 61, 50
2, 8856600, Note_off_c, 2, 61, 0
2, 8856960, Note_on_c, 2, 54, 50
2, 8857080, Note_off_c, 2, 54, 0
2, 8857200, Note_on_c, 2, 56, 50
2, 8857560, Note_off_c, 2, 56, 0
2, 8857680, Note_on_c, 2, 57, 50
2, 8857920, Note_off_c, 2, 57, 0
2, 8857920, Note_on_c, 2, 54, 50
2, 8858040, Note_off_c, 2, 54, 0
2, 8858160, Note_on_c, 2, 56, 50
2, 8858520, Note_off_c, 2, 56, 0
2, 8858880, Note_on_c, 2, 54, 50
2, 8859000, Note_off_c, 2, 54, 0
2, 8859120, Note_on_c, 2, 56, 50
2, 8859480, Note_off_c, 2, 56, 0
2, 8859600, Note_on_c, 2, 57, 50
2, 8859840, Note_off_c, 2, 57, 0
2, 8859840, Note_on_c, 2, 54, 50
2, 8859960, Note_off_c, 2, 54, 0
2, 8860080, Note_on_c, 2, 56, 50
2, 8860320, Note_off_c, 2, 56, 0
2, 8860320, Note_on_c, 2, 59, 50
2, 8860560, Note_off_c, 2, 59, 0
2, 8860800, Note_on_c, 2, 59, 50
2, 8860920, Note_off_c, 2, 59, 0
2, 8861040, Note_on_c, 2, 61, 50
2, 8861400, Note_off_c, 2, 61, 0
2, 8861520, Note_on_c, 2, 62, 50
2, 8861880, Note_off_c, 2, 62, 0
2, 8862000, Note_on_c, 2, 61, 50
2, 8862360, Note_off_c, 2, 61, 0
2, 8862720, Note_on_c, 2, 59, 50
2, 8862840, Note_off_c, 2, 59, 0
2, 8862960, Note_on_c, 2, 61, 50
2, 8863320, Note_off_c, 2, 61, 0
2, 8863440, Note_on_c, 2, 62, 50
2, 8863800, Note_off_c, 2, 62, 0
2, 8863920, Note_on_c, 2, 61, 50
2, 8864160, Note_off_c, 2, 61, 0
2, 8864160, Note_on_c, 2, 54, 50
2, 8864280, Note_off_c, 2, 54, 0
2, 8864640, Note_on_c, 2, 54, 50
2, 8864760, Note_off_c, 2, 54, 0
2, 8864880, Note_on_c, 2, 56, 50
2, 8865240, Note_off_c, 2, 56, 0
2, 8865360, Note_on_c, 2, 57, 50
2, 8865600, Note_off_c, 2, 57, 0
2, 8865600, Note_on_c, 2, 54, 50
2, 8865720, Note_off_c, 2, 54, 0
2, 8865840, Note_on_c, 2, 56, 50
2, 8866080, Note_off_c, 2, 56, 0
2, 8866080, Note_on_c, 2, 54, 50
2, 8866320, Note_off_c, 2, 54, 0
2, 8866560, Note_on_c, 2, 54, 50
2, 8866680, Note_off_c, 2, 54, 0
2, 8866800, Note_on_c, 2, 56, 50
2, 8867160, Note_off_c, 2, 56, 0
2, 8867280, Note_on_c, 2, 57, 50
2, 8867520, Note_off_c, 2, 57, 0
2, 8867520, Note_on_c, 2, 54, 50
2, 8867640, Note_off_c, 2, 54, 0
2, 8867760, Note_on_c, 2, 56, 50
2, 8868000, Note_off_c, 2, 56, 0
2, 8868000, Note_on_c, 2, 59, 50
2, 8868240, Note_off_c, 2, 59, 0
2, 8868480, Note_on_c, 2, 59, 50
2, 8868600, Note_off_c, 2, 59, 0
2, 8868720, Note_on_c, 2, 61, 50
2, 8869080, Note_off_c, 2, 61, 0
2, 8869200, Note_on_c, 2, 62, 50
2, 8869440, Note_off_c, 2, 62, 0
2, 8869440, Note_on_c, 2, 59, 50
2, 8869560, Note_off_c, 2, 59, 0
2, 8869680, Note_on_c, 2, 61, 50
2, 8869920, Note_off_c, 2, 61, 0
2, 8869920, Note_on_c, 2, 54, 50
2, 8870160, Note_off_c, 2, 54, 0
2, 8870400, Note_on_c, 2, 61, 50
2, 8870520, Note_off_c, 2, 61, 0
2, 8870640, Note_on_c, 2, 63, 50
2, 8870880, Note_off_c, 2, 63, 0
2, 8870880, Note_on_c, 2, 61, 50
2, 8871000, Note_off_c, 2, 61, 0
2, 8871120, Note_on_c, 2, 64, 50
2, 8871360, Note_off_c, 2, 64, 0
2, 8871480, Note_on_c, 2, 61, 50
2, 8871600, Note_off_c, 2, 61, 0
2, 8871600, Note_on_c, 2, 63, 50
2, 8871840, Note_off_c, 2, 63, 0
2, 8871960, Note_on_c, 2, 54, 50
2, 8872080, Note_off_c, 2, 54, 0
2, 8872320, Note_on_c, 2, 54, 50
2, 8872440, Note_off_c, 2, 54, 0
2, 8872560, Note_on_c, 2, 56, 50
2, 8872920, Note_off_c, 2, 56, 0
2, 8873040, Note_on_c, 2, 57, 50
2, 8873280, Note_off_c, 2, 57, 0
2, 8873280, Note_on_c, 2, 54, 50
2, 8873400, Note_off_c, 2, 54, 0
2, 8873520, Note_on_c, 2, 56, 50
2, 8873880, Note_off_c, 2, 56, 0
2, 8874240, Note_on_c, 2, 54, 50
2, 8874360, Note_off_c, 2, 54, 0
2, 8874480, Note_on_c, 2, 56, 50
2, 8874840, Note_off_c, 2, 56, 0
2, 8874960, Note_on_c, 2, 57, 50
2, 8875200, Note_off_c, 2, 57, 0
2, 8875200, Note_on_c, 2, 54, 50
2, 8875320, Note_off_c, 2, 54, 0
2, 8875440, Note_on_c, 2, 56, 50
2, 8875680, Note_off_c, 2, 56, 0
2, 8875680, Note_on_c, 2, 54, 50
2, 8875920, Note_off_c, 2, 54, 0
2, 8875920, Note_on_c, 2, 54, 50
2, 8876160, Note_off_c, 2, 54, 0
2, 8876160, Note_on_c, 2, 54, 50
2, 8876280, Note_off_c, 2, 54, 0
2, 8876400, Note_on_c, 2, 56, 50
2, 8876760, Note_off_c, 2, 56, 0
2, 8876880, Note_on_c, 2, 57, 50
2, 8877120, Note_off_c, 2, 57, 0
2, 8877120, Note_on_c, 2, 54, 50
2, 8877240, Note_off_c, 2, 54, 0
2, 8877360, Note_on_c, 2, 56, 50
2, 8877720, Note_off_c, 2, 56, 0
2, 8877720, Note_on_c, 2, 59, 50
2, 8877960, Note_off_c, 2, 59, 0
2, 8878320, Note_on_c, 2, 61, 50
2, 8878680, Note_off_c, 2, 61, 0
2, 8878800, Note_on_c, 2, 62, 50
2, 8879160, Note_off_c, 2, 62, 0
2, 8879280, Note_on_c, 2, 61, 50
2, 8879640, Note_off_c, 2, 61, 0
2, 8880000, Note_on_c, 2, 54, 50
2, 8880120, Note_off_c, 2, 54, 0
2, 8880240, Note_on_c, 2, 56, 50
2, 8880600, Note_off_c, 2, 56, 0
2, 8880720, Note_on_c, 2, 57, 50
2, 8880960, Note_off_c, 2, 57, 0
2, 8880960, Note_on_c, 2, 54, 50
2, 8881080, Note_off_c, 2, 54, 0
2, 8881200, Note_on_c, 2, 56, 50
2, 8881560, Note_off_c, 2, 56, 0
2, 8881920, Note_on_c, 2, 54, 50
2, 8882040, Note_off_c, 2, 54, 0
2, 8882160, Note_on_c, 2, 56, 50
2, 8882520, Note_off_c, 2, 56, 0
2, 8882640, Note_on_c, 2, 57, 50
2, 8882880, Note_off_c, 2, 57, 0
2, 8882880, Note_on_c, 2, 54, 50
2, 8883000, Note_off_c, 2, 54, 0
2, 8883120, Note_on_c, 2, 56, 50
2, 8883360, Note_off_c, 2, 56, 0
2, 8883360, Note_on_c, 2, 59, 50
2, 8883600, Note_off_c, 2, 59, 0
2, 8883840, Note_on_c, 2, 59, 50
2, 8883960, Note_off_c, 2, 59, 0
2, 8884080, Note_on_c, 2, 61, 50
2, 8884440, Note_off_c, 2, 61, 0
2, 8884560, Note_on_c, 2, 62, 50
2, 8884920, Note_off_c, 2, 62, 0
2, 8885040, Note_on_c, 2, 61, 50
2, 8885400, Note_off_c, 2, 61, 0
2, 8885760, Note_on_c, 2, 59, 50
2, 8885880, Note_off_c, 2, 59, 0
2, 8886000, Note_on_c, 2, 61, 50
2, 8886360, Note_off_c, 2, 61, 0
2, 8886480, Note_on_c, 2, 62, 50
2, 8886840, Note_off_c, 2, 62, 0
2, 8886960, Note_on_c, 2, 61, 50
2, 8887200, Note_off_c, 2, 61, 0
2, 8887200, Note_on_c, 2, 54, 50
2, 8887320, Note_off_c, 2, 54, 0
2, 8887680, Note_on_c, 2, 54, 50
2, 8887800, Note_off_c, 2, 54, 0
2, 8887920, Note_on_c, 2, 56, 50
2, 8888280, Note_off_c, 2, 56, 0
2, 8888400, Note_on_c, 2, 57, 50
2, 8888640, Note_off_c, 2, 57, 0
2, 8888640, Note_on_c, 2, 54, 50
2, 8888760, Note_off_c, 2, 54, 0
2, 8888880, Note_on_c, 2, 56, 50
2, 8889120, Note_off_c, 2, 56, 0
2, 8889120, Note_on_c, 2, 54, 50
2, 8889360, Note_off_c, 2, 54, 0
2, 8889600, Note_on_c, 2, 54, 50
2, 8889720, Note_off_c, 2, 54, 0
2, 8889840, Note_on_c, 2, 56, 50
2, 8890200, Note_off_c, 2, 56, 0
2, 8890320, Note_on_c, 2, 57, 50
2, 8890560, Note_off_c, 2, 57, 0
2, 8890560, Note_on_c, 2, 54, 50
2, 8890680, Note_off_c, 2, 54, 0
2, 8890800, Note_on_c, 2, 56, 50
2, 8891040, Note_off_c, 2, 56, 0
2, 8891040, Note_on_c, 2, 59, 50
2, 8891280, Note_off_c, 2, 59, 0
2, 8891520, Note_on_c, 2, 59, 50
2, 8891640, Note_off_c, 2, 59, 0
2, 8891760, Note_on_c, 2, 61, 50
2, 8892120, Note_off_c, 2, 61, 0
2, 8892240, Note_on_c, 2, 62, 50
2, 8892480, Note_off_c, 2, 62, 0
2, 8892480, Note_on_c, 2, 59, 50
2, 8892600, Note_off_c, 2, 59, 0
2, 8892720, Note_on_c, 2, 61, 50
2, 8892960, Note_off_c, 2, 61, 0
2, 8892960, Note_on_c, 2, 54, 50
2, 8893200, Note_off_c, 2, 54, 0
2, 8893440, Note_on_c, 2, 61, 50
2, 8893560, Note_off_c, 2, 61, 0
2, 8893680, Note_on_c, 2, 63, 50
2, 8893920, Note_off_c, 2, 63, 0
2, 8893920, Note_on_c, 2, 61, 50
2, 8894040, Note_off_c, 2, 61, 0
2, 8894160, Note_on_c, 2, 64, 50
2, 8894400, Note_off_c, 2, 64, 0
2, 8894520, Note_on_c, 2, 61, 50
2, 8894640, Note_off_c, 2, 61, 0
2, 8894640, Note_on_c, 2, 63, 50
2, 8894880, Note_off_c, 2, 63, 0
2, 8895000, Note_on_c, 2, 54, 50
2, 8895120, Note_off_c, 2, 54, 0
2, 8895360, Note_on_c, 2, 54, 50
2, 8895480, Note_off_c, 2, 54, 0
2, 8895600, Note_on_c, 2, 56, 50
2, 8895960, Note_off_c, 2, 56, 0
2, 8896080, Note_on_c, 2, 57, 50
2, 8896320, Note_off_c, 2, 57, 0
2, 8896320, Note_on_c, 2, 54, 50
2, 8896440, Note_off_c, 2, 54, 0
2, 8896560, Note_on_c, 2, 56, 50
2, 8896920, Note_off_c, 2, 56, 0
2, 8897280, Note_on_c, 2, 54, 50
2, 8897400, Note_off_c, 2, 54, 0
2, 8897520, Note_on_c, 2, 56, 50
2, 8897880, Note_off_c, 2, 56, 0
2, 8898000, Note_on_c, 2, 57, 50
2, 8898240, Note_off_c, 2, 57, 0
2, 8898240, Note_on_c, 2, 54, 50
2, 8898360, Note_off_c, 2, 54, 0
2, 8898480, Note_on_c, 2, 56, 50
2, 8898720, Note_off_c, 2, 56, 0
2, 8898720, Note_on_c, 2, 54, 50
2, 8898960, Note_off_c, 2, 54, 0
2, 8898960, Note_on_c, 2, 54, 50
2, 8899200, Note_off_c, 2, 54, 0
2, 8899200, Note_on_c, 2, 54, 50
2, 8899320, Note_off_c, 2, 54, 0
2, 8899440, Note_on_c, 2, 56, 50
2, 8899800, Note_off_c, 2, 56, 0
2, 8899920, Note_on_c, 2, 57, 50
2, 8900160, Note_off_c, 2, 57, 0
2, 8900160, Note_on_c, 2, 54, 50
2, 8900280, Note_off_c, 2, 54, 0
2, 8900400, Note_on_c, 2, 56, 50
2, 8900760, Note_off_c, 2, 56, 0
2, 8900760, Note_on_c, 2, 59, 50
2, 8901000, Note_off_c, 2, 59, 0
2, 8901360, Note_on_c, 2, 61, 50
2, 8901720, Note_off_c, 2, 61, 0
2, 8901840, Note_on_c, 2, 62, 50
2, 8902200, Note_off_c, 2, 62, 0
2, 8902320, Note_on_c, 2, 61, 50
2, 8902680, Note_off_c, 2, 61, 0
2, 8903040, Note_on_c, 2, 54, 50
2, 8903160, Note_off_c, 2, 54, 0
2, 8903280, Note_on_c, 2, 56, 50
2, 8903640, Note_off_c, 2, 56, 0
2, 8903760, Note_on_c, 2, 57, 50
2, 8904000, Note_off_c, 2, 57, 0
2, 8904000, Note_on_c, 2, 54, 50
2, 8904120, Note_off_c, 2, 54, 0
2, 8904240, Note_on_c, 2, 56, 50
2, 8904600, Note_off_c, 2, 56, 0
2, 8904960, Note_on_c, 2, 54, 50
2, 8905080, Note_off_c, 2, 54, 0
2, 8905200, Note_on_c, 2, 56, 50
2, 8905560, Note_off_c, 2, 56, 0
2, 8905680, Note_on_c, 2, 57, 50
2, 8905920, Note_off_c, 2, 57, 0
2, 8905920, Note_on_c, 2, 54, 50
2, 8906040, Note_off_c, 2, 54, 0
2, 8906160, Note_on_c, 2, 56, 50
2, 8906400, Note_off_c, 2, 56, 0
2, 8906400, Note_on_c, 2, 59, 50
2, 8906640, Note_off_c, 2, 59, 0
2, 8906880, Note_on_c, 2, 59, 50
2, 8907000, Note_off_c, 2, 59, 0
2, 8907120, Note_on_c, 2, 61, 50
2, 8907480, Note_off_c, 2, 61, 0
2, 8907600, Note_on_c, 2, 62, 50
2, 8907960, Note_off_c, 2, 62, 0
2, 8908080, Note_on_c, 2, 61, 50
2, 8908440, Note_off_c, 2, 61, 0
2, 8908800, Note_on_c, 2, 59, 50
2, 8908920, Note_off_c, 2, 59, 0
2, 8909040, Note_on_c, 2, 61, 50
2, 8909400, Note_off_c, 2, 61, 0
2, 8909520, Note_on_c, 2, 62, 50
2, 8909880, Note_off_c, 2, 62, 0
2, 8910000, Note_on_c, 2, 61, 50
2, 8910240, Note_off_c, 2, 61, 0
2, 8910240, Note_on_c, 2, 54, 50
2, 8910360, Note_off_c, 2, 54, 0
2, 8910720, Note_on_c, 2, 54, 50
2, 8910840, Note_off_c, 2, 54, 0
2, 8910960, Note_on_c, 2, 56, 50
2, 8911320, Note_off_c, 2, 56, 0
2, 8911440, Note_on_c, 2, 57, 50
2, 8911680, Note_off_c, 2, 57, 0
2, 8911680, Note_on_c, 2, 54, 50
2, 8911800, Note_off_c, 2, 54, 0
2, 8911920, Note_on_c, 2, 56, 50
2, 8912160, Note_off_c, 2, 56, 0
2, 8912160, Note_on_c, 2, 54, 50
2, 8912400, Note_off_c, 2, 54, 0
2, 8912640, Note_on_c, 2, 54, 50
2, 8912760, Note_off_c, 2, 54, 0
2, 8912880, Note_on_c, 2, 56, 50
2, 8913240, Note_off_c, 2, 56, 0
2, 8913360, Note_on_c, 2, 57, 50
2, 8913600, Note_off_c, 2, 57, 0
2, 8913600, Note_on_c, 2, 54, 50
2, 8913720, Note_off_c, 2, 54, 0
2, 8913840, Note_on_c, 2, 56, 50
2, 8914080, Note_off_c, 2, 56, 0
2, 8914080, Note_on_c, 2, 59, 50
2, 8914320, Note_off_c, 2, 59, 0
2, 8914560, Note_on_c, 2, 59, 50
2, 8914680, Note_off_c, 2, 59, 0
2, 8914800, Note_on_c, 2, 61, 50
2, 8915160, Note_off_c, 2, 61, 0
2, 8915280, Note_on_c, 2, 62, 50
2, 8915520, Note_off_c, 2, 62, 0
2, 8915520, Note_on_c, 2, 59, 50
2, 8915640, Note_off_c, 2, 59, 0
2, 8915760, Note_on_c, 2, 61, 50
2, 8916000, Note_off_c, 2, 61, 0
2, 8916000, Note_on_c, 2, 54, 50
2, 8916240, Note_off_c, 2, 54, 0
2, 8916480, Note_on_c, 2, 61, 50
2, 8916600, Note_off_c, 2, 61, 0
2, 8916720, Note_on_c, 2, 63, 50
2, 8916960, Note_off_c, 2, 63, 0
2, 8916960, Note_on_c, 2, 61, 50
2, 8917080, Note_off_c, 2, 61, 0
2, 8917200, Note_on_c, 2, 64, 50
2, 8917440, Note_off_c, 2, 64, 0
2, 8917560, Note_on_c, 2, 61, 50
2, 8917680, Note_off_c, 2, 61, 0
2, 8917680, Note_on_c, 2, 63, 50
2, 8917920, Note_off_c, 2, 63, 0
2, 8918040, Note_on_c, 2, 54, 50
2, 8918160, Note_off_c, 2, 54, 0
2, 8918400, Note_on_c, 2, 54, 50
2, 8918520, Note_off_c, 2, 54, 0
2, 8918640, Note_on_c, 2, 56, 50
2, 8919000, Note_off_c, 2, 56, 0
2, 8919120, Note_on_c, 2, 57, 50
2, 8919360, Note_off_c, 2, 57, 0
2, 8919360, Note_on_c, 2, 54, 50
2, 8919480, Note_off_c, 2, 54, 0
2, 8919600, Note_on_c, 2, 56, 50
2, 8919960, Note_off_c, 2, 56, 0
2, 8920320, Note_on_c, 2, 54, 50
2, 8920440, Note_off_c, 2, 54, 0
2, 8920560, Note_on_c, 2, 56, 50
2, 8920920, Note_off_c, 2, 56, 0
2, 8921040, Note_on_c, 2, 57, 50
2, 8921280, Note_off_c, 2, 57, 0
2, 8921280, Note_on_c, 2, 54, 50
2, 8921400, Note_off_c, 2, 54, 0
2, 8921520, Note_on_c, 2, 56, 50
2, 8921760, Note_off_c, 2, 56, 0
2, 8921760, Note_on_c, 2, 54, 50
2, 8922000, Note_off_c, 2, 54, 0
2, 8922240, Note_on_c, 2, 54, 50
2, 8922360, Note_off_c, 2, 54, 0
2, 8922480, Note_on_c, 2, 56, 50
2, 8922840, Note_off_c, 2, 56, 0
2, 8922960, Note_on_c, 2, 57, 50
2, 8923200, Note_off_c, 2, 57, 0
2, 8923200, Note_on_c, 2, 54, 50
2, 8923320, Note_off_c, 2, 54, 0
2, 8923440, Note_on_c, 2, 56, 50
2, 8923680, Note_off_c, 2, 56, 0
2, 8923680, Note_on_c, 2, 54, 50
2, 8923920, Note_off_c, 2, 54, 0
2, 8924160, Note_on_c, 2, 54, 50
2, 8924280, Note_off_c, 2, 54, 0
2, 8924400, Note_on_c, 2, 56, 50
2, 8924760, Note_off_c, 2, 56, 0
2, 8924880, Note_on_c, 2, 57, 50
2, 8925120, Note_off_c, 2, 57, 0
2, 8925120, Note_on_c, 2, 54, 50
2, 8925240, Note_off_c, 2, 54, 0
2, 8925360, Note_on_c, 2, 56, 50
2, 8925600, Note_off_c, 2, 56, 0
2, 8925600, Note_on_c, 2, 54, 50
2, 8925840, Note_off_c, 2, 54, 0
2, 8926080, Note_on_c, 2, 54, 50
2, 8926200, Note_off_c, 2, 54, 0
2, 8926320, Note_on_c, 2, 56, 50
2, 8926680, Note_off_c, 2, 56, 0
2, 8926800, Note_on_c, 2, 57, 50
2, 8927040, Note_off_c, 2, 57, 0
2, 8927040, Note_on_c, 2, 54, 50
2, 8927160, Note_off_c, 2, 54, 0
2, 8927280, Note_on_c, 2, 56, 50
2, 8927520, Note_off_c, 2, 56, 0
2, 8927520, Note_on_c, 2, 54, 50
2, 8927760, Note_off_c, 2, 54, 0
2, 8928000, Note_on_c, 2, 54, 50
2, 8928120, Note_off_c, 2, 54, 0
2, 8928240, Note_on_c, 2, 56, 50
2, 8928600, Note_off_c, 2, 56, 0
2, 8928720, Note_on_c, 2, 57, 50
2, 8928960, Note_off_c, 2, 57, 0
2, 8928960, Note_on_c, 2, 54, 50
2, 8929080, Note_off_c, 2, 54, 0
2, 8929200, Note_on_c, 2, 56, 50
2, 8929440, Note_off_c, 2, 56, 0
2, 8929440, Note_on_c, 2, 59, 50
2, 8929680, Note_off_c, 2, 59, 0
2, 8929920, Note_on_c, 2, 59, 50
2, 8930040, Note_off_c, 2, 59, 0
2, 8930160, Note_on_c, 2, 61, 50
2, 8930520, Note_off_c, 2, 61, 0
2, 8930640, Note_on_c, 2, 62, 50
2, 8931000, Note_off_c, 2, 62, 0
2, 8931120, Note_on_c, 2, 61, 50
2, 8931480, Note_off_c, 2, 61, 0
2, 8931840, Note_on_c, 2, 59, 50
2, 8931960, Note_off_c, 2, 59, 0
2, 8932080, Note_on_c, 2, 61, 50
2, 8932440, Note_off_c, 2, 61, 0
2, 8932560, Note_on_c, 2, 62, 50
2, 8932920, Note_off_c, 2, 62, 0
2, 8933040, Note_on_c, 2, 61, 50
2, 8933280, Note_off_c, 2, 61, 0
2, 8933280, Note_on_c, 2, 54, 50
2, 8933400, Note_off_c, 2, 54, 0
2, 8933760, Note_on_c, 2, 54, 50
2, 8933880, Note_off_c, 2, 54, 0
2, 8934000, Note_on_c, 2, 56, 50
2, 8934360, Note_off_c, 2, 56, 0
2, 8934480, Note_on_c, 2, 57, 50
2, 8934720, Note_off_c, 2, 57, 0
2, 8934720, Note_on_c, 2, 54, 50
2, 8934840, Note_off_c, 2, 54, 0
2, 8934960, Note_on_c, 2, 56, 50
2, 8935200, Note_off_c, 2, 56, 0
2, 8935200, Note_on_c, 2, 54, 50
2, 8935440, Note_off_c, 2, 54, 0
2, 8935680, Note_on_c, 2, 54, 50
2, 8935800, Note_off_c, 2, 54, 0
2, 8935920, Note_on_c, 2, 56, 50
2, 8936280, Note_off_c, 2, 56, 0
2, 8936400, Note_on_c, 2, 57, 50
2, 8936640, Note_off_c, 2, 57, 0
2, 8936640, Note_on_c, 2, 54, 50
2, 8936760, Note_off_c, 2, 54, 0
2, 8936880, Note_on_c, 2, 56, 50
2, 8937120, Note_off_c, 2, 56, 0
2, 8937120, Note_on_c, 2, 61, 50
2, 8937360, Note_off_c, 2, 61, 0
2, 8937600, Note_on_c, 2, 61, 50
2, 8937720, Note_off_c, 2, 61, 0
2, 8937840, Note_on_c, 2, 63, 50
2, 8938080, Note_off_c, 2, 63, 0
2, 8938080, Note_on_c, 2, 61, 50
2, 8938200, Note_off_c, 2, 61, 0
2, 8938320, Note_on_c, 2, 64, 50
2, 8938560, Note_off_c, 2, 64, 0
2, 8938680, Note_on_c, 2, 61, 50
2, 8938800, Note_off_c, 2, 61, 0
2, 8938800, Note_on_c, 2, 63, 50
2, 8939040, Note_off_c, 2, 63, 0
2, 8939160, Note_on_c, 2, 61, 50
2, 8939280, Note_off_c, 2, 61, 0
2, 8939520, Note_on_c, 2, 61, 50
2, 8939640, Note_off_c, 2, 61, 0
2, 8939760, Note_on_c, 2, 63, 50
2, 8940000, Note_off_c, 2, 63, 0
2, 8940000, Note_on_c, 2, 61, 50
2, 8940120, Note_off_c, 2, 61, 0
2, 8943600, Note_on_c, 2, 71, 50
2, 8945520, Note_off_c, 2, 71, 0
2, 8945520, Note_on_c, 2, 71, 50
2, 8946480, Note_off_c, 2, 71, 0
2, 8963520, Note_on_c, 2, 57, 50
2, 8963760, Note_off_c, 2, 57, 0
2, 8963760, Note_on_c, 2, 60, 50
2, 8964000, Note_off_c, 2, 60, 0
2, 8964000, Note_on_c, 2, 60, 50
2, 8964240, Note_off_c, 2, 60, 0
2, 8964240, Note_on_c, 2, 60, 50
2, 8964480, Note_off_c, 2, 60, 0
2, 8964480, Note_on_c, 2, 60, 50
2, 8964720, Note_off_c, 2, 60, 0
2, 8964720, Note_on_c, 2, 65, 50
2, 8965200, Note_off_c, 2, 65, 0
2, 8965200, Note_on_c, 2, 65, 50
2, 8965440, Note_off_c, 2, 65, 0
2, 8965440, Note_on_c, 2, 63, 50
2, 8965920, Note_off_c, 2, 63, 0
2, 8965920, Note_on_c, 2, 62, 50
2, 8966400, Note_off_c, 2, 62, 0
2, 8966400, Note_on_c, 2, 60, 50
2, 8967120, Note_off_c, 2, 60, 0
2, 8967360, Note_on_c, 2, 60, 50
2, 8967600, Note_off_c, 2, 60, 0
2, 8967600, Note_on_c, 2, 62, 50
2, 8967840, Note_off_c, 2, 62, 0
2, 8967840, Note_on_c, 2, 62, 50
2, 8968080, Note_off_c, 2, 62, 0
2, 8968080, Note_on_c, 2, 62, 50
2, 8968320, Note_off_c, 2, 62, 0
2, 8968320, Note_on_c, 2, 62, 50
2, 8968560, Note_off_c, 2, 62, 0
2, 8968560, Note_on_c, 2, 62, 50
2, 8968800, Note_off_c, 2, 62, 0
2, 8969040, Note_on_c, 2, 62, 50
2, 8969280, Note_off_c, 2, 62, 0
2, 8969280, Note_on_c, 2, 60, 50
2, 8969760, Note_off_c, 2, 60, 0
2, 8971440, Note_on_c, 2, 60, 50
2, 8971680, Note_off_c, 2, 60, 0
2, 8971680, Note_on_c, 2, 60, 50
2, 8971920, Note_off_c, 2, 60, 0
2, 8971920, Note_on_c, 2, 60, 50
2, 8972160, Note_off_c, 2, 60, 0
2, 8972160, Note_on_c, 2, 60, 50
2, 8972400, Note_off_c, 2, 60, 0
2, 8972400, Note_on_c, 2, 65, 50
2, 8972640, Note_off_c, 2, 65, 0
2, 8972880, Note_on_c, 2, 65, 50
2, 8973120, Note_off_c, 2, 65, 0
2, 8973120, Note_on_c, 2, 63, 50
2, 8973600, Note_off_c, 2, 63, 0
2, 8973600, Note_on_c, 2, 62, 50
2, 8974080, Note_off_c, 2, 62, 0
2, 8974080, Note_on_c, 2, 60, 50
2, 8974800, Note_off_c, 2, 60, 0
2, 8975040, Note_on_c, 2, 60, 50
2, 8975280, Note_off_c, 2, 60, 0
2, 8975280, Note_on_c, 2, 62, 50
2, 8975520, Note_off_c, 2, 62, 0
2, 8975520, Note_on_c, 2, 62, 50
2, 8975760, Note_off_c, 2, 62, 0
2, 8975760, Note_on_c, 2, 62, 50
2, 8976000, Note_off_c, 2, 62, 0
2, 8976000, Note_on_c, 2, 62, 50
2, 8976240, Note_off_c, 2, 62, 0
2, 8976240, Note_on_c, 2, 62, 50
2, 8976480, Note_off_c, 2, 62, 0
2, 8976720, Note_on_c, 2, 62, 50
2, 8976960, Note_off_c, 2, 62, 0
2, 8976960, Note_on_c, 2, 64, 50
2, 8977680, Note_off_c, 2, 64, 0
2, 8978880, Note_on_c, 2, 62, 50
2, 8979360, Note_off_c, 2, 62, 0
2, 8979360, Note_on_c, 2, 62, 50
2, 8979600, Note_off_c, 2, 62, 0
2, 8979600, Note_on_c, 2, 62, 50
2, 8979840, Note_off_c, 2, 62, 0
2, 8979840, Note_on_c, 2, 62, 50
2, 8980080, Note_off_c, 2, 62, 0
2, 8980080, Note_on_c, 2, 62, 50
2, 8980320, Note_off_c, 2, 62, 0
2, 8980560, Note_on_c, 2, 62, 50
2, 8980800, Note_off_c, 2, 62, 0
2, 8980800, Note_on_c, 2, 60, 50
2, 8981280, Note_off_c, 2, 60, 0
2, 8981280, Note_on_c, 2, 60, 50
2, 8981520, Note_off_c, 2, 60, 0
2, 8981520, Note_on_c, 2, 60, 50
2, 8981760, Note_off_c, 2, 60, 0
2, 8981760, Note_on_c, 2, 60, 50
2, 8982000, Note_off_c, 2, 60, 0
2, 8982000, Note_on_c, 2, 60, 50
2, 8982240, Note_off_c, 2, 60, 0
2, 8982480, Note_on_c, 2, 60, 50
2, 8982720, Note_off_c, 2, 60, 0
2, 8982720, Note_on_c, 2, 62, 50
2, 8982960, Note_off_c, 2, 62, 0
2, 8983200, Note_on_c, 2, 62, 50
2, 8983440, Note_off_c, 2, 62, 0
2, 8983440, Note_on_c, 2, 62, 50
2, 8983680, Note_off_c, 2, 62, 0
2, 8983680, Note_on_c, 2, 62, 50
2, 8983920, Note_off_c, 2, 62, 0
2, 8983920, Note_on_c, 2, 62, 50
2, 8984160, Note_off_c, 2, 62, 0
2, 8984400, Note_on_c, 2, 62, 50
2, 8984640, Note_off_c, 2, 62, 0
2, 8984640, Note_on_c, 2, 62, 50
2, 8984880, Note_off_c, 2, 62, 0
2, 8985120, Note_on_c, 2, 62, 50
2, 8985360, Note_off_c, 2, 62, 0
2, 8985360, Note_on_c, 2, 62, 50
2, 8985600, Note_off_c, 2, 62, 0
2, 8985600, Note_on_c, 2, 62, 50
2, 8985840, Note_off_c, 2, 62, 0
2, 8985840, Note_on_c, 2, 62, 50
2, 8986080, Note_off_c, 2, 62, 0
2, 8986320, Note_on_c, 2, 62, 50
2, 8986560, Note_off_c, 2, 62, 0
2, 8986560, Note_on_c, 2, 62, 50
2, 8987040, Note_off_c, 2, 62, 0
2, 8987040, Note_on_c, 2, 62, 50
2, 8987280, Note_off_c, 2, 62, 0
2, 8987280, Note_on_c, 2, 62, 50
2, 8987520, Note_off_c, 2, 62, 0
2, 8987520, Note_on_c, 2, 62, 50
2, 8987760, Note_off_c, 2, 62, 0
2, 8987760, Note_on_c, 2, 67, 50
2, 8988000, Note_off_c, 2, 67, 0
2, 8988240, Note_on_c, 2, 67, 50
2, 8988480, Note_off_c, 2, 67, 0
2, 8988480, Note_on_c, 2, 65, 50
2, 8988720, Note_off_c, 2, 65, 0
2, 8988960, Note_on_c, 2, 64, 50
2, 8989200, Note_off_c, 2, 64, 0
2, 8989440, Note_on_c, 2, 62, 50
2, 8990160, Note_off_c, 2, 62, 0
2, 8990400, Note_on_c, 2, 62, 50
2, 8990640, Note_off_c, 2, 62, 0
2, 8990640, Note_on_c, 2, 64, 50
2, 8990880, Note_off_c, 2, 64, 0
2, 8990880, Note_on_c, 2, 64, 50
2, 8991120, Note_off_c, 2, 64, 0
2, 8991120, Note_on_c, 2, 64, 50
2, 8991360, Note_off_c, 2, 64, 0
2, 8991360, Note_on_c, 2, 64, 50
2, 8991600, Note_off_c, 2, 64, 0
2, 8991600, Note_on_c, 2, 64, 50
2, 8991840, Note_off_c, 2, 64, 0
2, 8992080, Note_on_c, 2, 64, 50
2, 8992320, Note_off_c, 2, 64, 0
2, 8992320, Note_on_c, 2, 62, 50
2, 8993040, Note_off_c, 2, 62, 0
2, 8994480, Note_on_c, 2, 62, 50
2, 8994720, Note_off_c, 2, 62, 0
2, 8994720, Note_on_c, 2, 62, 50
2, 8994960, Note_off_c, 2, 62, 0
2, 8994960, Note_on_c, 2, 62, 50
2, 8995200, Note_off_c, 2, 62, 0
2, 8995200, Note_on_c, 2, 62, 50
2, 8995440, Note_off_c, 2, 62, 0
2, 8995440, Note_on_c, 2, 67, 50
2, 8995680, Note_off_c, 2, 67, 0
2, 8995680, Note_on_c, 2, 65, 50
2, 8995920, Note_off_c, 2, 65, 0
2, 8996160, Note_on_c, 2, 65, 50
2, 8996400, Note_off_c, 2, 65, 0
2, 8996400, Note_on_c, 2, 64, 50
2, 8996640, Note_off_c, 2, 64, 0
2, 8996640, Note_on_c, 2, 62, 50
2, 8996880, Note_off_c, 2, 62, 0
2, 8997120, Note_on_c, 2, 64, 50
2, 8997360, Note_off_c, 2, 64, 0
2, 8997360, Note_on_c, 2, 62, 50
2, 8997840, Note_off_c, 2, 62, 0
2, 8998080, Note_on_c, 2, 62, 50
2, 8998320, Note_off_c, 2, 62, 0
2, 8998320, Note_on_c, 2, 64, 50
2, 8998560, Note_off_c, 2, 64, 0
2, 8998560, Note_on_c, 2, 64, 50
2, 8998800, Note_off_c, 2, 64, 0
2, 8998800, Note_on_c, 2, 64, 50
2, 8999040, Note_off_c, 2, 64, 0
2, 8999040, Note_on_c, 2, 64, 50
2, 8999280, Note_off_c, 2, 64, 0
2, 8999280, Note_on_c, 2, 64, 50
2, 8999520, Note_off_c, 2, 64, 0
2, 8999760, Note_on_c, 2, 64, 50
2, 9000000, Note_off_c, 2, 64, 0
2, 9000000, Note_on_c, 2, 66, 50
2, 9000720, Note_off_c, 2, 66, 0
2, 9001920, Note_on_c, 2, 64, 50
2, 9002160, Note_off_c, 2, 64, 0
2, 9002400, Note_on_c, 2, 64, 50
2, 9002640, Note_off_c, 2, 64, 0
2, 9002640, Note_on_c, 2, 64, 50
2, 9002880, Note_off_c, 2, 64, 0
2, 9002880, Note_on_c, 2, 64, 50
2, 9003120, Note_off_c, 2, 64, 0
2, 9003120, Note_on_c, 2, 64, 50
2, 9003360, Note_off_c, 2, 64, 0
2, 9003600, Note_on_c, 2, 64, 50
2, 9003840, Note_off_c, 2, 64, 0
2, 9003840, Note_on_c, 2, 62, 50
2, 9004320, Note_off_c, 2, 62, 0
2, 9004320, Note_on_c, 2, 62, 50
2, 9004560, Note_off_c, 2, 62, 0
2, 9004560, Note_on_c, 2, 62, 50
2, 9004800, Note_off_c, 2, 62, 0
2, 9004800, Note_on_c, 2, 62, 50
2, 9005040, Note_off_c, 2, 62, 0
2, 9005040, Note_on_c, 2, 62, 50
2, 9005280, Note_off_c, 2, 62, 0
2, 9005520, Note_on_c, 2, 62, 50
2, 9005760, Note_off_c, 2, 62, 0
2, 9005760, Note_on_c, 2, 64, 50
2, 9006240, Note_off_c, 2, 64, 0
2, 9006240, Note_on_c, 2, 64, 50
2, 9006480, Note_off_c, 2, 64, 0
2, 9006480, Note_on_c, 2, 64, 50
2, 9006720, Note_off_c, 2, 64, 0
2, 9006720, Note_on_c, 2, 64, 50
2, 9006960, Note_off_c, 2, 64, 0
2, 9006960, Note_on_c, 2, 64, 50
2, 9007200, Note_off_c, 2, 64, 0
2, 9007440, Note_on_c, 2, 64, 50
2, 9007680, Note_off_c, 2, 64, 0
2, 9007680, Note_on_c, 2, 65, 50
2, 9008160, Note_off_c, 2, 65, 0
2, 9008160, Note_on_c, 2, 64, 50
2, 9009840, Note_off_c, 2, 64, 0
2, 9009840, Note_on_c, 2, 67, 50
2, 9011760, Note_off_c, 2, 67, 0
2, 9011760, Note_on_c, 2, 70, 50
2, 9012000, Note_off_c, 2, 70, 0
2, 9012000, Note_on_c, 2, 67, 50
2, 9013920, Note_off_c, 2, 67, 0
2, 9013920, Note_on_c, 2, 67, 50
2, 9015600, Note_off_c, 2, 67, 0
2, 9024480, Note_on_c, 2, 71, 50
2, 9024720, Note_off_c, 2, 71, 0
2, 9024720, Note_on_c, 2, 73, 50
2, 9025200, Note_off_c, 2, 73, 0
2, 9025200, Note_on_c, 2, 76, 50
2, 9025680, Note_off_c, 2, 76, 0
2, 9025680, Note_on_c, 2, 76, 50
2, 9026640, Note_off_c, 2, 76, 0
2, 9026640, Note_on_c, 2, 75, 50
2, 9027360, Note_off_c, 2, 75, 0
2, 9027360, Note_on_c, 2, 73, 50
2, 9028320, Note_off_c, 2, 73, 0
2, 9028320, Note_on_c, 2, 71, 50
2, 9028560, Note_off_c, 2, 71, 0
2, 9028560, Note_on_c, 2, 73, 50
2, 9029040, Note_off_c, 2, 73, 0
2, 9029040, Note_on_c, 2, 76, 50
2, 9029520, Note_off_c, 2, 76, 0
2, 9029520, Note_on_c, 2, 76, 50
2, 9030480, Note_off_c, 2, 76, 0
2, 9030480, Note_on_c, 2, 75, 50
2, 9031200, Note_off_c, 2, 75, 0
2, 9031200, Note_on_c, 2, 73, 50
2, 9032160, Note_off_c, 2, 73, 0
2, 9032160, Note_on_c, 2, 71, 50
2, 9032400, Note_off_c, 2, 71, 0
2, 9032400, Note_on_c, 2, 73, 50
2, 9032880, Note_off_c, 2, 73, 0
2, 9032880, Note_on_c, 2, 76, 50
2, 9033360, Note_off_c, 2, 76, 0
2, 9033360, Note_on_c, 2, 76, 50
2, 9034320, Note_off_c, 2, 76, 0
2, 9034320, Note_on_c, 2, 75, 50
2, 9035280, Note_off_c, 2, 75, 0
2, 9035280, Note_on_c, 2, 73, 50
2, 9036240, Note_off_c, 2, 73, 0
2, 9036240, Note_on_c, 2, 73, 50
2, 9038160, Note_off_c, 2, 73, 0
2, 9038160, Note_on_c, 2, 73, 50
2, 9039120, Note_off_c, 2, 73, 0
2, 9039840, Note_on_c, 2, 62, 50
2, 9040080, Note_off_c, 2, 62, 0
2, 9040080, Note_on_c, 2, 64, 50
2, 9040560, Note_off_c, 2, 64, 0
2, 9040560, Note_on_c, 2, 66, 50
2, 9041040, Note_off_c, 2, 66, 0
2, 9041040, Note_on_c, 2, 68, 50
2, 9041520, Note_off_c, 2, 68, 0
2, 9041520, Note_on_c, 2, 69, 50
2, 9041760, Note_off_c, 2, 69, 0
2, 9041760, Note_on_c, 2, 71, 50
2, 9043440, Note_off_c, 2, 71, 0
2, 9043440, Note_on_c, 2, 71, 50
2, 9043680, Note_off_c, 2, 71, 0
2, 9043680, Note_on_c, 2, 73, 50
2, 9043920, Note_off_c, 2, 73, 0
2, 9043920, Note_on_c, 2, 75, 50
2, 9044400, Note_off_c, 2, 75, 0
2, 9044400, Note_on_c, 2, 71, 50
2, 9044880, Note_off_c, 2, 71, 0
2, 9044880, Note_on_c, 2, 71, 50
2, 9045600, Note_off_c, 2, 71, 0
2, 9045600, Note_on_c, 2, 68, 50
2, 9045840, Note_off_c, 2, 68, 0
2, 9045840, Note_on_c, 2, 71, 50
2, 9046080, Note_off_c, 2, 71, 0
2, 9046080, Note_on_c, 2, 75, 50
2, 9046320, Note_off_c, 2, 75, 0
2, 9046320, Note_on_c, 2, 71, 50
2, 9047280, Note_off_c, 2, 71, 0
2, 9047520, Note_on_c, 2, 64, 50
2, 9047760, Note_off_c, 2, 64, 0
2, 9047760, Note_on_c, 2, 64, 50
2, 9048240, Note_off_c, 2, 64, 0
2, 9048240, Note_on_c, 2, 66, 50
2, 9048720, Note_off_c, 2, 66, 0
2, 9048720, Note_on_c, 2, 68, 50
2, 9049200, Note_off_c, 2, 68, 0
2, 9049200, Note_on_c, 2, 69, 50
2, 9049440, Note_off_c, 2, 69, 0
2, 9049440, Note_on_c, 2, 71, 50
2, 9051120, Note_off_c, 2, 71, 0
2, 9051120, Note_on_c, 2, 71, 50
2, 9051360, Note_off_c, 2, 71, 0
2, 9051360, Note_on_c, 2, 73, 50
2, 9051600, Note_off_c, 2, 73, 0
2, 9051600, Note_on_c, 2, 75, 50
2, 9052080, Note_off_c, 2, 75, 0
2, 9052080, Note_on_c, 2, 71, 50
2, 9052560, Note_off_c, 2, 71, 0
2, 9052560, Note_on_c, 2, 71, 50
2, 9053280, Note_off_c, 2, 71, 0
2, 9053280, Note_on_c, 2, 68, 50
2, 9053520, Note_off_c, 2, 68, 0
2, 9053520, Note_on_c, 2, 71, 50
2, 9053760, Note_off_c, 2, 71, 0
2, 9053760, Note_on_c, 2, 75, 50
2, 9054000, Note_off_c, 2, 75, 0
2, 9054000, Note_on_c, 2, 71, 50
2, 9054480, Note_off_c, 2, 71, 0
2, 9054720, Note_on_c, 2, 71, 50
2, 9054960, Note_off_c, 2, 71, 0
2, 9054960, Note_on_c, 2, 71, 50
2, 9055200, Note_off_c, 2, 71, 0
2, 9055200, Note_on_c, 2, 71, 50
2, 9055440, Note_off_c, 2, 71, 0
2, 9055440, Note_on_c, 2, 73, 50
2, 9055920, Note_off_c, 2, 73, 0
2, 9055920, Note_on_c, 2, 76, 50
2, 9056880, Note_off_c, 2, 76, 0
2, 9056880, Note_on_c, 2, 64, 50
2, 9057120, Note_off_c, 2, 64, 0
2, 9057120, Note_on_c, 2, 66, 50
2, 9057360, Note_off_c, 2, 66, 0
2, 9057360, Note_on_c, 2, 68, 50
2, 9057840, Note_off_c, 2, 68, 0
2, 9057840, Note_on_c, 2, 68, 50
2, 9058320, Note_off_c, 2, 68, 0
2, 9058320, Note_on_c, 2, 66, 50
2, 9058800, Note_off_c, 2, 66, 0
2, 9058800, Note_on_c, 2, 64, 50
2, 9059280, Note_off_c, 2, 64, 0
2, 9059280, Note_on_c, 2, 68, 50
2, 9061200, Note_off_c, 2, 68, 0
2, 9061200, Note_on_c, 2, 68, 50
2, 9062160, Note_off_c, 2, 68, 0
2, 9062640, Note_on_c, 2, 68, 50
2, 9062880, Note_off_c, 2, 68, 0
2, 9062880, Note_on_c, 2, 68, 50
2, 9063120, Note_off_c, 2, 68, 0
2, 9063120, Note_on_c, 2, 69, 50
2, 9063600, Note_off_c, 2, 69, 0
2, 9063600, Note_on_c, 2, 69, 50
2, 9064560, Note_off_c, 2, 69, 0
2, 9064560, Note_on_c, 2, 69, 50
2, 9064800, Note_off_c, 2, 69, 0
2, 9064800, Note_on_c, 2, 69, 50
2, 9065040, Note_off_c, 2, 69, 0
2, 9065040, Note_on_c, 2, 69, 50
2, 9065520, Note_off_c, 2, 69, 0
2, 9065520, Note_on_c, 2, 69, 50
2, 9066000, Note_off_c, 2, 69, 0
2, 9066000, Note_on_c, 2, 72, 50
2, 9066480, Note_off_c, 2, 72, 0
2, 9066480, Note_on_c, 2, 76, 50
2, 9066720, Note_off_c, 2, 76, 0
2, 9066720, Note_on_c, 2, 75, 50
2, 9066840, Note_off_c, 2, 75, 0
2, 9066840, Note_on_c, 2, 76, 50
2, 9066960, Note_off_c, 2, 76, 0
2, 9066960, Note_on_c, 2, 75, 50
2, 9068880, Note_off_c, 2, 75, 0
2, 9070560, Note_on_c, 2, 63, 50
2, 9070800, Note_off_c, 2, 63, 0
2, 9070800, Note_on_c, 2, 64, 50
2, 9071280, Note_off_c, 2, 64, 0
2, 9071280, Note_on_c, 2, 66, 50
2, 9071760, Note_off_c, 2, 66, 0
2, 9071760, Note_on_c, 2, 68, 50
2, 9072240, Note_off_c, 2, 68, 0
2, 9072240, Note_on_c, 2, 69, 50
2, 9072480, Note_off_c, 2, 69, 0
2, 9072480, Note_on_c, 2, 71, 50
2, 9074160, Note_off_c, 2, 71, 0
2, 9074160, Note_on_c, 2, 71, 50
2, 9074400, Note_off_c, 2, 71, 0
2, 9074400, Note_on_c, 2, 73, 50
2, 9074640, Note_off_c, 2, 73, 0
2, 9074640, Note_on_c, 2, 75, 50
2, 9075120, Note_off_c, 2, 75, 0
2, 9075120, Note_on_c, 2, 71, 50
2, 9075600, Note_off_c, 2, 71, 0
2, 9075600, Note_on_c, 2, 71, 50
2, 9076320, Note_off_c, 2, 71, 0
2, 9076320, Note_on_c, 2, 68, 50
2, 9076560, Note_off_c, 2, 68, 0
2, 9076560, Note_on_c, 2, 71, 50
2, 9076800, Note_off_c, 2, 71, 0
2, 9076800, Note_on_c, 2, 75, 50
2, 9077040, Note_off_c, 2, 75, 0
2, 9077040, Note_on_c, 2, 71, 50
2, 9078000, Note_off_c, 2, 71, 0
2, 9078240, Note_on_c, 2, 64, 50
2, 9078480, Note_off_c, 2, 64, 0
2, 9078480, Note_on_c, 2, 64, 50
2, 9078960, Note_off_c, 2, 64, 0
2, 9078960, Note_on_c, 2, 66, 50
2, 9079440, Note_off_c, 2, 66, 0
2, 9079440, Note_on_c, 2, 68, 50
2, 9079920, Note_off_c, 2, 68, 0
2, 9079920, Note_on_c, 2, 69, 50
2, 9080160, Note_off_c, 2, 69, 0
2, 9080160, Note_on_c, 2, 71, 50
2, 9081840, Note_off_c, 2, 71, 0
2, 9081840, Note_on_c, 2, 71, 50
2, 9082080, Note_off_c, 2, 71, 0
2, 9082080, Note_on_c, 2, 73, 50
2, 9082320, Note_off_c, 2, 73, 0
2, 9082320, Note_on_c, 2, 75, 50
2, 9082800, Note_off_c, 2, 75, 0
2, 9082800, Note_on_c, 2, 71, 50
2, 9083280, Note_off_c, 2, 71, 0
2, 9083280, Note_on_c, 2, 71, 50
2, 9084000, Note_off_c, 2, 71, 0
2, 9084000, Note_on_c, 2, 68, 50
2, 9084240, Note_off_c, 2, 68, 0
2, 9084240, Note_on_c, 2, 71, 50
2, 9084480, Note_off_c, 2, 71, 0
2, 9084480, Note_on_c, 2, 75, 50
2, 9084720, Note_off_c, 2, 75, 0
2, 9084720, Note_on_c, 2, 71, 50
2, 9085200, Note_off_c, 2, 71, 0
2, 9085440, Note_on_c, 2, 71, 50
2, 9085680, Note_off_c, 2, 71, 0
2, 9085680, Note_on_c, 2, 71, 50
2, 9085920, Note_off_c, 2, 71, 0
2, 9085920, Note_on_c, 2, 71, 50
2, 9086160, Note_off_c, 2, 71, 0
2, 9086160, Note_on_c, 2, 73, 50
2, 9086640, Note_off_c, 2, 73, 0
2, 9086640, Note_on_c, 2, 76, 50
2, 9087600, Note_off_c, 2, 76, 0
2, 9087600, Note_on_c, 2, 64, 50
2, 9087840, Note_off_c, 2, 64, 0
2, 9087840, Note_on_c, 2, 66, 50
2, 9088080, Note_off_c, 2, 66, 0
2, 9088080, Note_on_c, 2, 68, 50
2, 9088560, Note_off_c, 2, 68, 0
2, 9088560, Note_on_c, 2, 68, 50
2, 9089040, Note_off_c, 2, 68, 0
2, 9089040, Note_on_c, 2, 66, 50
2, 9089520, Note_off_c, 2, 66, 0
2, 9089520, Note_on_c, 2, 64, 50
2, 9090000, Note_off_c, 2, 64, 0
2, 9090000, Note_on_c, 2, 68, 50
2, 9091920, Note_off_c, 2, 68, 0
2, 9091920, Note_on_c, 2, 68, 50
2, 9092880, Note_off_c, 2, 68, 0
2, 9093360, Note_on_c, 2, 68, 50
2, 9093600, Note_off_c, 2, 68, 0
2, 9093600, Note_on_c, 2, 68, 50
2, 9093840, Note_off_c, 2, 68, 0
2, 9093840, Note_on_c, 2, 69, 50
2, 9094320, Note_off_c, 2, 69, 0
2, 9094320, Note_on_c, 2, 69, 50
2, 9095280, Note_off_c, 2, 69, 0
2, 9095280, Note_on_c, 2, 69, 50
2, 9095520, Note_off_c, 2, 69, 0
2, 9095520, Note_on_c, 2, 69, 50
2, 9095760, Note_off_c, 2, 69, 0
2, 9095760, Note_on_c, 2, 69, 50
2, 9096240, Note_off_c, 2, 69, 0
2, 9096240, Note_on_c, 2, 69, 50
2, 9096720, Note_off_c, 2, 69, 0
2, 9096720, Note_on_c, 2, 72, 50
2, 9097200, Note_off_c, 2, 72, 0
2, 9097200, Note_on_c, 2, 76, 50
2, 9097440, Note_off_c, 2, 76, 0
2, 9097440, Note_on_c, 2, 75, 50
2, 9097560, Note_off_c, 2, 75, 0
2, 9097560, Note_on_c, 2, 76, 50
2, 9097680, Note_off_c, 2, 76, 0
2, 9097680, Note_on_c, 2, 75, 50
2, 9099600, Note_off_c, 2, 75, 0
2, 9099600, Note_on_c, 2, 75, 50
2, 9101160, Note_off_c, 2, 75, 0
2, 9101400, Note_on_c, 2, 71, 50
2, 9101640, Note_off_c, 2, 71, 0
2, 9101640, Note_on_c, 2, 73, 50
2, 9102120, Note_off_c, 2, 73, 0
2, 9102120, Note_on_c, 2, 76, 50
2, 9102600, Note_off_c, 2, 76, 0
2, 9102600, Note_on_c, 2, 76, 50
2, 9103560, Note_off_c, 2, 76, 0
2, 9103560, Note_on_c, 2, 75, 50
2, 9104280, Note_off_c, 2, 75, 0
2, 9104280, Note_on_c, 2, 73, 50
2, 9105240, Note_off_c, 2, 73, 0
2, 9105240, Note_on_c, 2, 71, 50
2, 9105480, Note_off_c, 2, 71, 0
2, 9105480, Note_on_c, 2, 73, 50
2, 9105960, Note_off_c, 2, 73, 0
2, 9105960, Note_on_c, 2, 76, 50
2, 9106440, Note_off_c, 2, 76, 0
2, 9106440, Note_on_c, 2, 76, 50
2, 9107400, Note_off_c, 2, 76, 0
2, 9107400, Note_on_c, 2, 75, 50
2, 9108120, Note_off_c, 2, 75, 0
2, 9108120, Note_on_c, 2, 73, 50
2, 9108600, Note_off_c, 2, 73, 0
2, 9108600, Note_on_c, 2, 66, 50
2, 9108840, Note_off_c, 2, 66, 0
2, 9108840, Note_on_c, 2, 66, 50
2, 9109080, Note_off_c, 2, 66, 0
2, 9109080, Note_on_c, 2, 68, 50
2, 9109320, Note_off_c, 2, 68, 0
2, 9109320, Note_on_c, 2, 69, 50
2, 9109800, Note_off_c, 2, 69, 0
2, 9109800, Note_on_c, 2, 69, 50
2, 9110280, Note_off_c, 2, 69, 0
2, 9110280, Note_on_c, 2, 69, 50
2, 9110760, Note_off_c, 2, 69, 0
2, 9111000, Note_on_c, 2, 66, 50
2, 9111240, Note_off_c, 2, 66, 0
2, 9111240, Note_on_c, 2, 71, 50
2, 9111720, Note_off_c, 2, 71, 0
2, 9111720, Note_on_c, 2, 71, 50
2, 9112200, Note_off_c, 2, 71, 0
2, 9112200, Note_on_c, 2, 69, 50
2, 9112680, Note_off_c, 2, 69, 0
2, 9112680, Note_on_c, 2, 69, 50
2, 9112920, Note_off_c, 2, 69, 0
2, 9112920, Note_on_c, 2, 69, 50
2, 9113280, Note_off_c, 2, 69, 0
2, 9113280, Note_on_c, 2, 68, 50
2, 9114960, Note_off_c, 2, 68, 0
2, 9116640, Note_on_c, 2, 63, 50
2, 9116880, Note_off_c, 2, 63, 0
2, 9116880, Note_on_c, 2, 64, 50
2, 9117360, Note_off_c, 2, 64, 0
2, 9117360, Note_on_c, 2, 66, 50
2, 9117840, Note_off_c, 2, 66, 0
2, 9117840, Note_on_c, 2, 68, 50
2, 9118320, Note_off_c, 2, 68, 0
2, 9118320, Note_on_c, 2, 69, 50
2, 9118560, Note_off_c, 2, 69, 0
2, 9118560, Note_on_c, 2, 71, 50
2, 9120240, Note_off_c, 2, 71, 0
2, 9120240, Note_on_c, 2, 71, 50
2, 9120480, Note_off_c, 2, 71, 0
2, 9120480, Note_on_c, 2, 73, 50
2, 9120720, Note_off_c, 2, 73, 0
2, 9120720, Note_on_c, 2, 75, 50
2, 9121200, Note_off_c, 2, 75, 0
2, 9121200, Note_on_c, 2, 71, 50
2, 9121680, Note_off_c, 2, 71, 0
2, 9121680, Note_on_c, 2, 71, 50
2, 9122400, Note_off_c, 2, 71, 0
2, 9122400, Note_on_c, 2, 68, 50
2, 9122640, Note_off_c, 2, 68, 0
2, 9122640, Note_on_c, 2, 71, 50
2, 9122880, Note_off_c, 2, 71, 0
2, 9122880, Note_on_c, 2, 75, 50
2, 9123120, Note_off_c, 2, 75, 0
2, 9123120, Note_on_c, 2, 71, 50
2, 9124080, Note_off_c, 2, 71, 0
2, 9124320, Note_on_c, 2, 64, 50
2, 9124560, Note_off_c, 2, 64, 0
2, 9124560, Note_on_c, 2, 64, 50
2, 9125040, Note_off_c, 2, 64, 0
2, 9125040, Note_on_c, 2, 66, 50
2, 9125520, Note_off_c, 2, 66, 0
2, 9125520, Note_on_c, 2, 68, 50
2, 9126000, Note_off_c, 2, 68, 0
2, 9126000, Note_on_c, 2, 69, 50
2, 9126240, Note_off_c, 2, 69, 0
2, 9126240, Note_on_c, 2, 71, 50
2, 9127920, Note_off_c, 2, 71, 0
2, 9127920, Note_on_c, 2, 71, 50
2, 9128160, Note_off_c, 2, 71, 0
2, 9128160, Note_on_c, 2, 73, 50
2, 9128400, Note_off_c, 2, 73, 0
2, 9128400, Note_on_c, 2, 75, 50
2, 9128880, Note_off_c, 2, 75, 0
2, 9128880, Note_on_c, 2, 71, 50
2, 9129360, Note_off_c, 2, 71, 0
2, 9129360, Note_on_c, 2, 71, 50
2, 9130080, Note_off_c, 2, 71, 0
2, 9130080, Note_on_c, 2, 68, 50
2, 9130320, Note_off_c, 2, 68, 0
2, 9130320, Note_on_c, 2, 71, 50
2, 9130560, Note_off_c, 2, 71, 0
2, 9130560, Note_on_c, 2, 75, 50
2, 9130800, Note_off_c, 2, 75, 0
2, 9130800, Note_on_c, 2, 71, 50
2, 9131280, Note_off_c, 2, 71, 0
2, 9131520, Note_on_c, 2, 71, 50
2, 9131760, Note_off_c, 2, 71, 0
2, 9131760, Note_on_c, 2, 71, 50
2, 9132000, Note_off_c, 2, 71, 0
2, 9132000, Note_on_c, 2, 71, 50
2, 9132240, Note_off_c, 2, 71, 0
2, 9132240, Note_on_c, 2, 73, 50
2, 9132720, Note_off_c, 2, 73, 0
2, 9132720, Note_on_c, 2, 76, 50
2, 9133680, Note_off_c, 2, 76, 0
2, 9133680, Note_on_c, 2, 64, 50
2, 9133920, Note_off_c, 2, 64, 0
2, 9133920, Note_on_c, 2, 66, 50
2, 9134160, Note_off_c, 2, 66, 0
2, 9134160, Note_on_c, 2, 68, 50
2, 9134640, Note_off_c, 2, 68, 0
2, 9134640, Note_on_c, 2, 68, 50
2, 9135120, Note_off_c, 2, 68, 0
2, 9135120, Note_on_c, 2, 66, 50
2, 9135600, Note_off_c, 2, 66, 0
2, 9135600, Note_on_c, 2, 64, 50
2, 9136080, Note_off_c, 2, 64, 0
2, 9136080, Note_on_c, 2, 68, 50
2, 9138000, Note_off_c, 2, 68, 0
2, 9138000, Note_on_c, 2, 68, 50
2, 9138960, Note_off_c, 2, 68, 0
2, 9139440, Note_on_c, 2, 68, 50
2, 9139680, Note_off_c, 2, 68, 0
2, 9139680, Note_on_c, 2, 68, 50
2, 9139920, Note_off_c, 2, 68, 0
2, 9139920, Note_on_c, 2, 69, 50
2, 9140400, Note_off_c, 2, 69, 0
2, 9140400, Note_on_c, 2, 69, 50
2, 9141360, Note_off_c, 2, 69, 0
2, 9141360, Note_on_c, 2, 69, 50
2, 9141600, Note_off_c, 2, 69, 0
2, 9141600, Note_on_c, 2, 69, 50
2, 9141840, Note_off_c, 2, 69, 0
2, 9141840, Note_on_c, 2, 69, 50
2, 9142320, Note_off_c, 2, 69, 0
2, 9142320, Note_on_c, 2, 69, 50
2, 9142800, Note_off_c, 2, 69, 0
2, 9142800, Note_on_c, 2, 72, 50
2, 9143280, Note_off_c, 2, 72, 0
2, 9143280, Note_on_c, 2, 76, 50
2, 9143520, Note_off_c, 2, 76, 0
2, 9143520, Note_on_c, 2, 75, 50
2, 9143640, Note_off_c, 2, 75, 0
2, 9143640, Note_on_c, 2, 76, 50
2, 9143760, Note_off_c, 2, 76, 0
2, 9143760, Note_on_c, 2, 75, 50
2, 9145680, Note_off_c, 2, 75, 0
2, 9145680, Note_on_c, 2, 75, 50
2, 9147240, Note_off_c, 2, 75, 0
2, 9147480, Note_on_c, 2, 71, 50
2, 9147720, Note_off_c, 2, 71, 0
2, 9147720, Note_on_c, 2, 73, 50
2, 9148200, Note_off_c, 2, 73, 0
2, 9148200, Note_on_c, 2, 76, 50
2, 9148680, Note_off_c, 2, 76, 0
2, 9148680, Note_on_c, 2, 76, 50
2, 9149640, Note_off_c, 2, 76, 0
2, 9149640, Note_on_c, 2, 75, 50
2, 9150360, Note_off_c, 2, 75, 0
2, 9150360, Note_on_c, 2, 73, 50
2, 9151320, Note_off_c, 2, 73, 0
2, 9151320, Note_on_c, 2, 71, 50
2, 9151560, Note_off_c, 2, 71, 0
2, 9151560, Note_on_c, 2, 73, 50
2, 9152040, Note_off_c, 2, 73, 0
2, 9152040, Note_on_c, 2, 76, 50
2, 9152520, Note_off_c, 2, 76, 0
2, 9152520, Note_on_c, 2, 76, 50
2, 9153480, Note_off_c, 2, 76, 0
2, 9153480, Note_on_c, 2, 75, 50
2, 9154200, Note_off_c, 2, 75, 0
2, 9154200, Note_on_c, 2, 73, 50
2, 9154680, Note_off_c, 2, 73, 0
2, 9154680, Note_on_c, 2, 66, 50
2, 9154920, Note_off_c, 2, 66, 0
2, 9154920, Note_on_c, 2, 66, 50
2, 9155160, Note_off_c, 2, 66, 0
2, 9155160, Note_on_c, 2, 68, 50
2, 9155400, Note_off_c, 2, 68, 0
2, 9155400, Note_on_c, 2, 69, 50
2, 9155880, Note_off_c, 2, 69, 0
2, 9155880, Note_on_c, 2, 66, 50
2, 9156360, Note_off_c, 2, 66, 0
2, 9156360, Note_on_c, 2, 69, 50
2, 9156840, Note_off_c, 2, 69, 0
2, 9157080, Note_on_c, 2, 66, 50
2, 9157320, Note_off_c, 2, 66, 0
2, 9157320, Note_on_c, 2, 71, 50
2, 9157800, Note_off_c, 2, 71, 0
2, 9157800, Note_on_c, 2, 71, 50
2, 9158280, Note_off_c, 2, 71, 0
2, 9158280, Note_on_c, 2, 69, 50
2, 9158760, Note_off_c, 2, 69, 0
2, 9158760, Note_on_c, 2, 69, 50
2, 9159000, Note_off_c, 2, 69, 0
2, 9159000, Note_on_c, 2, 69, 50
2, 9159360, Note_off_c, 2, 69, 0
2, 9159360, Note_on_c, 2, 68, 50
2, 9161040, Note_off_c, 2, 68, 0
2, 9162240, Note_on_c, 2, 66, 50
2, 9162480, Note_off_c, 2, 66, 0
2, 9162480, Note_on_c, 2, 66, 50
2, 9162720, Note_off_c, 2, 66, 0
2, 9162720, Note_on_c, 2, 68, 50
2, 9162960, Note_off_c, 2, 68, 0
2, 9162960, Note_on_c, 2, 69, 50
2, 9163440, Note_off_c, 2, 69, 0
2, 9163440, Note_on_c, 2, 69, 50
2, 9163920, Note_off_c, 2, 69, 0
2, 9163920, Note_on_c, 2, 69, 50
2, 9164400, Note_off_c, 2, 69, 0
2, 9164640, Note_on_c, 2, 66, 50
2, 9164880, Note_off_c, 2, 66, 0
2, 9164880, Note_on_c, 2, 71, 50
2, 9165360, Note_off_c, 2, 71, 0
2, 9165360, Note_on_c, 2, 71, 50
2, 9165840, Note_off_c, 2, 71, 0
2, 9165840, Note_on_c, 2, 69, 50
2, 9166320, Note_off_c, 2, 69, 0
2, 9166320, Note_on_c, 2, 69, 50
2, 9166560, Note_off_c, 2, 69, 0
2, 9166560, Note_on_c, 2, 67, 50
2, 9166680, Note_off_c, 2, 67, 0
2, 9166680, Note_on_c, 2, 69, 50
2, 9167040, Note_off_c, 2, 69, 0
2, 9167040, Note_on_c, 2, 68, 50
2, 9168720, Note_off_c, 2, 68, 0
2, 9169920, Note_on_c, 2, 66, 50
2, 9170160, Note_off_c, 2, 66, 0
2, 9170160, Note_on_c, 2, 66, 50
2, 9170400, Note_off_c, 2, 66, 0
2, 9170400, Note_on_c, 2, 68, 50
2, 9170640, Note_off_c, 2, 68, 0
2, 9170640, Note_on_c, 2, 69, 50
2, 9171120, Note_off_c, 2, 69, 0
2, 9171120, Note_on_c, 2, 69, 50
2, 9171600, Note_off_c, 2, 69, 0
2, 9171600, Note_on_c, 2, 69, 50
2, 9172080, Note_off_c, 2, 69, 0
2, 9172320, Note_on_c, 2, 66, 50
2, 9172560, Note_off_c, 2, 66, 0
2, 9172560, Note_on_c, 2, 71, 50
2, 9173280, Note_off_c, 2, 71, 0
2, 9173280, Note_on_c, 2, 71, 50
2, 9173520, Note_off_c, 2, 71, 0
2, 9173520, Note_on_c, 2, 69, 50
2, 9173640, Note_off_c, 2, 69, 0
2, 9173640, Note_on_c, 2, 71, 50
2, 9173760, Note_off_c, 2, 71, 0
2, 9173760, Note_on_c, 2, 69, 50
2, 9173880, Note_off_c, 2, 69, 0
2, 9173880, Note_on_c, 2, 67, 50
2, 9174000, Note_off_c, 2, 67, 0
2, 9174000, Note_on_c, 2, 69, 50
2, 9174480, Note_off_c, 2, 69, 0
2, 9175440, Note_on_c, 2, 71, 50
2, 9176400, Note_off_c, 2, 71, 0
2, 9176400, Note_on_c, 2, 76, 50
2, 9178320, Note_off_c, 2, 76, 0
2, 9178320, Note_on_c, 2, 76, 50
2, 9180240, Note_off_c, 2, 76, 0
2, 9181200, Note_on_c, 2, 76, 50
2, 9182160, Note_off_c, 2, 76, 0
2, 9182160, Note_on_c, 2, 75, 50
2, 9182880, Note_off_c, 2, 75, 0
2, 9182880, Note_on_c, 2, 73, 50
2, 9184080, Note_off_c, 2, 73, 0
2, 9185040, Note_on_c, 2, 76, 50
2, 9186000, Note_off_c, 2, 76, 0
2, 9186000, Note_on_c, 2, 75, 50
2, 9186960, Note_off_c, 2, 75, 0
2, 9186960, Note_on_c, 2, 73, 50
2, 9187920, Note_off_c, 2, 73, 0
2, 9187920, Note_on_c, 2, 73, 50
2, 9189840, Note_off_c, 2, 73, 0
2, 9189840, Note_on_c, 2, 73, 50
2, 9191760, Note_off_c, 2, 73, 0
2, 9198000, Note_on_c, 2, 52, 50
2, 9198480, Note_off_c, 2, 52, 0
2, 9198480, Note_on_c, 2, 59, 50
2, 9200400, Note_off_c, 2, 59, 0
2, 9200400, Note_on_c, 2, 59, 50
2, 9200760, Note_off_c, 2, 59, 0
2, 9200880, Note_on_c, 2, 52, 50
2, 9201120, Note_off_c, 2, 52, 0
2, 9201120, Note_on_c, 2, 54, 50
2, 9201360, Note_off_c, 2, 54, 0
2, 9201360, Note_on_c, 2, 56, 50
2, 9201600, Note_off_c, 2, 56, 0
2, 9201600, Note_on_c, 2, 57, 50
2, 9201840, Note_off_c, 2, 57, 0
2, 9201840, Note_on_c, 2, 56, 50
2, 9202200, Note_off_c, 2, 56, 0
2, 9202200, Note_on_c, 2, 57, 50
2, 9202560, Note_off_c, 2, 57, 0
2, 9202560, Note_on_c, 2, 59, 50
2, 9202920, Note_off_c, 2, 59, 0
2, 9204840, Note_on_c, 2, 52, 50
2, 9205080, Note_off_c, 2, 52, 0
2, 9205080, Note_on_c, 2, 54, 50
2, 9205440, Note_off_c, 2, 54, 0
2, 9205440, Note_on_c, 2, 57, 50
2, 9205680, Note_off_c, 2, 57, 0
2, 9205680, Note_on_c, 2, 56, 50
2, 9206040, Note_off_c, 2, 56, 0
2, 9206040, Note_on_c, 2, 57, 50
2, 9206400, Note_off_c, 2, 57, 0
2, 9206400, Note_on_c, 2, 59, 50
2, 9206760, Note_off_c, 2, 59, 0
2, 9206760, Note_on_c, 2, 52, 50
2, 9208680, Note_off_c, 2, 52, 0
2, 9208680, Note_on_c, 2, 52, 50
2, 9209040, Note_off_c, 2, 52, 0
2, 9209040, Note_on_c, 2, 52, 50
2, 9209280, Note_off_c, 2, 52, 0
2, 9209280, Note_on_c, 2, 54, 50
2, 9209520, Note_off_c, 2, 54, 0
2, 9209520, Note_on_c, 2, 56, 50
2, 9209760, Note_off_c, 2, 56, 0
2, 9209760, Note_on_c, 2, 54, 50
2, 9210000, Note_off_c, 2, 54, 0
2, 9210000, Note_on_c, 2, 52, 50
2, 9210240, Note_off_c, 2, 52, 0
2, 9210240, Note_on_c, 2, 54, 50
2, 9210720, Note_off_c, 2, 54, 0
2, 9210720, Note_on_c, 2, 50, 50
2, 9210960, Note_off_c, 2, 50, 0
2, 9210960, Note_on_c, 2, 50, 50
2, 9211080, Note_off_c, 2, 50, 0
2, 9211200, Note_on_c, 2, 50, 50
2, 9211440, Note_off_c, 2, 50, 0
2, 9211440, Note_on_c, 2, 52, 50
2, 9211680, Note_off_c, 2, 52, 0
2, 9211680, Note_on_c, 2, 50, 50
2, 9211920, Note_off_c, 2, 50, 0
2, 9211920, Note_on_c, 2, 47, 50
2, 9212040, Note_off_c, 2, 47, 0
2, 9212040, Note_on_c, 2, 52, 50
2, 9213240, Note_off_c, 2, 52, 0
2, 9213360, Note_on_c, 2, 56, 50
2, 9213720, Note_off_c, 2, 56, 0
2, 9213840, Note_on_c, 2, 52, 50
2, 9214080, Note_off_c, 2, 52, 0
2, 9214080, Note_on_c, 2, 54, 50
2, 9214560, Note_off_c, 2, 54, 0
2, 9214560, Note_on_c, 2, 50, 50
2, 9214920, Note_off_c, 2, 50, 0
2, 9215040, Note_on_c, 2, 50, 50
2, 9215280, Note_off_c, 2, 50, 0
2, 9215280, Note_on_c, 2, 52, 50
2, 9215520, Note_off_c, 2, 52, 0
2, 9215520, Note_on_c, 2, 50, 50
2, 9215760, Note_off_c, 2, 50, 0
2, 9215760, Note_on_c, 2, 47, 50
2, 9215880, Note_off_c, 2, 47, 0
2, 9216000, Note_on_c, 2, 52, 50
2, 9216960, Note_off_c, 2, 52, 0
2, 9217200, Note_on_c, 2, 57, 50
2, 9217680, Note_off_c, 2, 57, 0
2, 9217680, Note_on_c, 2, 52, 50
2, 9218040, Note_off_c, 2, 52, 0
2, 9218160, Note_on_c, 2, 57, 50
2, 9218520, Note_off_c, 2, 57, 0
2, 9218640, Note_on_c, 2, 54, 50
2, 9218880, Note_off_c, 2, 54, 0
2, 9218880, Note_on_c, 2, 52, 50
2, 9219120, Note_off_c, 2, 52, 0
2, 9219120, Note_on_c, 2, 54, 50
2, 9219480, Note_off_c, 2, 54, 0
2, 9219480, Note_on_c, 2, 56, 50
2, 9219840, Note_off_c, 2, 56, 0
2, 9219840, Note_on_c, 2, 54, 50
2, 9220080, Note_off_c, 2, 54, 0
2, 9220080, Note_on_c, 2, 52, 50
2, 9220440, Note_off_c, 2, 52, 0
2, 9220440, Note_on_c, 2, 56, 50
2, 9220920, Note_off_c, 2, 56, 0
2, 9221160, Note_on_c, 2, 57, 50
2, 9221640, Note_off_c, 2, 57, 0
2, 9221640, Note_on_c, 2, 56, 50
2, 9222000, Note_off_c, 2, 56, 0
2, 9222360, Note_on_c, 2, 52, 50
2, 9222600, Note_off_c, 2, 52, 0
2, 9222600, Note_on_c, 2, 56, 50
2, 9223560, Note_off_c, 2, 56, 0
2, 9223560, Note_on_c, 2, 52, 50
2, 9223920, Note_off_c, 2, 52, 0
2, 9223920, Note_on_c, 2, 56, 50
2, 9224160, Note_off_c, 2, 56, 0
2, 9224160, Note_on_c, 2, 57, 50
2, 9224520, Note_off_c, 2, 57, 0
2, 9224520, Note_on_c, 2, 59, 50
2, 9226440, Note_off_c, 2, 59, 0
2, 9226440, Note_on_c, 2, 59, 50
2, 9227760, Note_off_c, 2, 59, 0
2, 9227760, Note_on_c, 2, 59, 50
2, 9228000, Note_off_c, 2, 59, 0
2, 9228000, Note_on_c, 2, 57, 50
2, 9228240, Note_off_c, 2, 57, 0
2, 9228240, Note_on_c, 2, 56, 50
2, 9228480, Note_off_c, 2, 56, 0
2, 9228480, Note_on_c, 2, 54, 50
2, 9228720, Note_off_c, 2, 54, 0
2, 9229080, Note_on_c, 2, 57, 50
2, 9231000, Note_off_c, 2, 57, 0
2, 9231000, Note_on_c, 2, 57, 50
2, 9231480, Note_off_c, 2, 57, 0
2, 9231600, Note_on_c, 2, 59, 50
2, 9231960, Note_off_c, 2, 59, 0
2, 9232080, Note_on_c, 2, 56, 50
2, 9232320, Note_off_c, 2, 56, 0
2, 9232320, Note_on_c, 2, 54, 50
2, 9232560, Note_off_c, 2, 54, 0
2, 9232560, Note_on_c, 2, 52, 50
2, 9233280, Note_off_c, 2, 52, 0
2, 9233280, Note_on_c, 2, 57, 50
2, 9234120, Note_off_c, 2, 57, 0
2, 9234120, Note_on_c, 2, 56, 50
2, 9236040, Note_off_c, 2, 56, 0
2, 9236040, Note_on_c, 2, 52, 50
2, 9236520, Note_off_c, 2, 52, 0
2, 9236520, Note_on_c, 2, 57, 50
2, 9238440, Note_off_c, 2, 57, 0
2, 9238440, Note_on_c, 2, 57, 50
2, 9238920, Note_off_c, 2, 57, 0
2, 9238920, Note_on_c, 2, 52, 50
2, 9239160, Note_off_c, 2, 52, 0
2, 9239160, Note_on_c, 2, 54, 50
2, 9239400, Note_off_c, 2, 54, 0
2, 9239400, Note_on_c, 2, 56, 50
2, 9239640, Note_off_c, 2, 56, 0
2, 9239640, Note_on_c, 2, 57, 50
2, 9239880, Note_off_c, 2, 57, 0
2, 9239880, Note_on_c, 2, 56, 50
2, 9240240, Note_off_c, 2, 56, 0
2, 9240240, Note_on_c, 2, 57, 50
2, 9240720, Note_off_c, 2, 57, 0
2, 9240720, Note_on_c, 2, 52, 50
2, 9242520, Note_off_c, 2, 52, 0
2, 9242640, Note_on_c, 2, 52, 50
2, 9242880, Note_off_c, 2, 52, 0
2, 9242880, Note_on_c, 2, 54, 50
2, 9243120, Note_off_c, 2, 54, 0
2, 9243120, Note_on_c, 2, 56, 50
2, 9243360, Note_off_c, 2, 56, 0
2, 9243360, Note_on_c, 2, 57, 50
2, 9243600, Note_off_c, 2, 57, 0
2, 9243600, Note_on_c, 2, 56, 50
2, 9243840, Note_off_c, 2, 56, 0
2, 9244200, Note_on_c, 2, 59, 50
2, 9244560, Note_off_c, 2, 59, 0
2, 9244560, Note_on_c, 2, 52, 50
2, 9246480, Note_off_c, 2, 52, 0
2, 9246480, Note_on_c, 2, 52, 50
2, 9246840, Note_off_c, 2, 52, 0
2, 9246960, Note_on_c, 2, 52, 50
2, 9247200, Note_off_c, 2, 52, 0
2, 9247200, Note_on_c, 2, 54, 50
2, 9247440, Note_off_c, 2, 54, 0
2, 9247440, Note_on_c, 2, 56, 50
2, 9247680, Note_off_c, 2, 56, 0
2, 9247680, Note_on_c, 2, 54, 50
2, 9247920, Note_off_c, 2, 54, 0
2, 9247920, Note_on_c, 2, 52, 50
2, 9248160, Note_off_c, 2, 52, 0
2, 9248160, Note_on_c, 2, 54, 50
2, 9248640, Note_off_c, 2, 54, 0
2, 9249000, Note_on_c, 2, 50, 50
2, 9249240, Note_off_c, 2, 50, 0
2, 9249360, Note_on_c, 2, 52, 50
2, 9249600, Note_off_c, 2, 52, 0
2, 9249600, Note_on_c, 2, 50, 50
2, 9249840, Note_off_c, 2, 50, 0
2, 9249840, Note_on_c, 2, 47, 50
2, 9249960, Note_off_c, 2, 47, 0
2, 9250080, Note_on_c, 2, 52, 50
2, 9251280, Note_off_c, 2, 52, 0
2, 9251280, Note_on_c, 2, 56, 50
2, 9251520, Note_off_c, 2, 56, 0
2, 9251520, Note_on_c, 2, 54, 50
2, 9251760, Note_off_c, 2, 54, 0
2, 9251760, Note_on_c, 2, 52, 50
2, 9252000, Note_off_c, 2, 52, 0
2, 9252000, Note_on_c, 2, 54, 50
2, 9252960, Note_off_c, 2, 54, 0
2, 9252960, Note_on_c, 2, 50, 50
2, 9253200, Note_off_c, 2, 50, 0
2, 9253200, Note_on_c, 2, 52, 50
2, 9253440, Note_off_c, 2, 52, 0
2, 9253440, Note_on_c, 2, 50, 50
2, 9253680, Note_off_c, 2, 50, 0
2, 9253680, Note_on_c, 2, 47, 50
2, 9253800, Note_off_c, 2, 47, 0
2, 9253920, Note_on_c, 2, 52, 50
2, 9255000, Note_off_c, 2, 52, 0
2, 9255120, Note_on_c, 2, 56, 50
2, 9255600, Note_off_c, 2, 56, 0
2, 9255600, Note_on_c, 2, 52, 50
2, 9256080, Note_off_c, 2, 52, 0
2, 9256080, Note_on_c, 2, 57, 50
2, 9256320, Note_off_c, 2, 57, 0
2, 9256320, Note_on_c, 2, 56, 50
2, 9256560, Note_off_c, 2, 56, 0
2, 9256560, Note_on_c, 2, 54, 50
2, 9256800, Note_off_c, 2, 54, 0
2, 9257040, Note_on_c, 2, 54, 50
2, 9257280, Note_off_c, 2, 54, 0
2, 9257280, Note_on_c, 2, 56, 50
2, 9257640, Note_off_c, 2, 56, 0
2, 9257640, Note_on_c, 2, 54, 50
2, 9258000, Note_off_c, 2, 54, 0
2, 9258240, Note_on_c, 2, 56, 50
2, 9258720, Note_off_c, 2, 56, 0
2, 9258960, Note_on_c, 2, 57, 50
2, 9259440, Note_off_c, 2, 57, 0
2, 9259440, Note_on_c, 2, 56, 50
2, 9259800, Note_off_c, 2, 56, 0
2, 9260160, Note_on_c, 2, 52, 50
2, 9260400, Note_off_c, 2, 52, 0
2, 9260400, Note_on_c, 2, 56, 50
2, 9261360, Note_off_c, 2, 56, 0
2, 9261600, Note_on_c, 2, 54, 50
2, 9261840, Note_off_c, 2, 54, 0
2, 9261840, Note_on_c, 2, 56, 50
2, 9262080, Note_off_c, 2, 56, 0
2, 9262080, Note_on_c, 2, 57, 50
2, 9262320, Note_off_c, 2, 57, 0
2, 9262320, Note_on_c, 2, 59, 50
2, 9264240, Note_off_c, 2, 59, 0
2, 9264240, Note_on_c, 2, 59, 50
2, 9265080, Note_off_c, 2, 59, 0
2, 9265200, Note_on_c, 2, 59, 50
2, 9265440, Note_off_c, 2, 59, 0
2, 9265560, Note_on_c, 2, 56, 50
2, 9265800, Note_off_c, 2, 56, 0
2, 9265800, Note_on_c, 2, 54, 50
2, 9266040, Note_off_c, 2, 54, 0
2, 9266040, Note_on_c, 2, 52, 50
2, 9266520, Note_off_c, 2, 52, 0
2, 9266640, Note_on_c, 2, 57, 50
2, 9267240, Note_off_c, 2, 57, 0
2, 9269040, Note_on_c, 2, 59, 50
2, 9269280, Note_off_c, 2, 59, 0
2, 9269280, Note_on_c, 2, 57, 50
2, 9269520, Note_off_c, 2, 57, 0
2, 9269640, Note_on_c, 2, 54, 50
2, 9269880, Note_off_c, 2, 54, 0
2, 9270000, Note_on_c, 2, 52, 50
2, 9270960, Note_off_c, 2, 52, 0
2, 9270960, Note_on_c, 2, 57, 50
2, 9271800, Note_off_c, 2, 57, 0
2, 9271800, Note_on_c, 2, 56, 50
2, 9273720, Note_off_c, 2, 56, 0
2, 9273720, Note_on_c, 2, 56, 50
2, 9273840, Note_off_c, 2, 56, 0
2, 9273840, Note_on_c, 2, 52, 50
2, 9274320, Note_off_c, 2, 52, 0
2, 9274320, Note_on_c, 2, 59, 50
2, 9276240, Note_off_c, 2, 59, 0
2, 9276240, Note_on_c, 2, 59, 50
2, 9276720, Note_off_c, 2, 59, 0
2, 9276720, Note_on_c, 2, 52, 50
2, 9276960, Note_off_c, 2, 52, 0
2, 9276960, Note_on_c, 2, 54, 50
2, 9277320, Note_off_c, 2, 54, 0
2, 9277320, Note_on_c, 2, 56, 50
2, 9277560, Note_off_c, 2, 56, 0
2, 9277560, Note_on_c, 2, 57, 50
2, 9277800, Note_off_c, 2, 57, 0
2, 9277800, Note_on_c, 2, 56, 50
2, 9278040, Note_off_c, 2, 56, 0
2, 9278040, Note_on_c, 2, 57, 50
2, 9278520, Note_off_c, 2, 57, 0
2, 9278520, Note_on_c, 2, 59, 50
2, 9278760, Note_off_c, 2, 59, 0
2, 9278760, Note_on_c, 2, 52, 50
2, 9280560, Note_off_c, 2, 52, 0
2, 9280560, Note_on_c, 2, 52, 50
2, 9280800, Note_off_c, 2, 52, 0
2, 9280800, Note_on_c, 2, 54, 50
2, 9281160, Note_off_c, 2, 54, 0
2, 9281160, Note_on_c, 2, 56, 50
2, 9281400, Note_off_c, 2, 56, 0
2, 9281400, Note_on_c, 2, 57, 50
2, 9281640, Note_off_c, 2, 57, 0
2, 9281640, Note_on_c, 2, 56, 50
2, 9281880, Note_off_c, 2, 56, 0
2, 9281880, Note_on_c, 2, 57, 50
2, 9282360, Note_off_c, 2, 57, 0
2, 9282480, Note_on_c, 2, 52, 50
2, 9284400, Note_off_c, 2, 52, 0
2, 9284400, Note_on_c, 2, 52, 50
2, 9284760, Note_off_c, 2, 52, 0
2, 9284880, Note_on_c, 2, 52, 50
2, 9285120, Note_off_c, 2, 52, 0
2, 9285120, Note_on_c, 2, 54, 50
2, 9285360, Note_off_c, 2, 54, 0
2, 9285360, Note_on_c, 2, 56, 50
2, 9285600, Note_off_c, 2, 56, 0
2, 9285600, Note_on_c, 2, 54, 50
2, 9285840, Note_off_c, 2, 54, 0
2, 9285840, Note_on_c, 2, 52, 50
2, 9286080, Note_off_c, 2, 52, 0
2, 9286080, Note_on_c, 2, 54, 50
2, 9286440, Note_off_c, 2, 54, 0
2, 9286440, Note_on_c, 2, 50, 50
2, 9286800, Note_off_c, 2, 50, 0
2, 9286920, Note_on_c, 2, 50, 50
2, 9287160, Note_off_c, 2, 50, 0
2, 9287160, Note_on_c, 2, 52, 50
2, 9287400, Note_off_c, 2, 52, 0
2, 9287400, Note_on_c, 2, 50, 50
2, 9287520, Note_off_c, 2, 50, 0
2, 9287760, Note_on_c, 2, 47, 50
2, 9287880, Note_off_c, 2, 47, 0
2, 9288000, Note_on_c, 2, 52, 50
2, 9289080, Note_off_c, 2, 52, 0
2, 9289200, Note_on_c, 2, 56, 50
2, 9289440, Note_off_c, 2, 56, 0
2, 9289440, Note_on_c, 2, 54, 50
2, 9289680, Note_off_c, 2, 54, 0
2, 9289680, Note_on_c, 2, 52, 50
2, 9290040, Note_off_c, 2, 52, 0
2, 9290040, Note_on_c, 2, 54, 50
2, 9290520, Note_off_c, 2, 54, 0
2, 9290520, Note_on_c, 2, 50, 50
2, 9290880, Note_off_c, 2, 50, 0
2, 9290880, Note_on_c, 2, 50, 50
2, 9291120, Note_off_c, 2, 50, 0
2, 9291120, Note_on_c, 2, 52, 50
2, 9291360, Note_off_c, 2, 52, 0
2, 9291360, Note_on_c, 2, 50, 50
2, 9291600, Note_off_c, 2, 50, 0
2, 9291600, Note_on_c, 2, 47, 50
2, 9291720, Note_off_c, 2, 47, 0
2, 9291840, Note_on_c, 2, 52, 50
2, 9293520, Note_off_c, 2, 52, 0
2, 9311280, Note_on_c, 2, 76, 50
2, 9311760, Note_off_c, 2, 76, 0
2, 9311760, Note_on_c, 2, 84, 50
2, 9312720, Note_off_c, 2, 84, 0
2, 9312720, Note_on_c, 2, 82, 50
2, 9313200, Note_off_c, 2, 82, 0
2, 9313200, Note_on_c, 2, 77, 50
2, 9314040, Note_off_c, 2, 77, 0
2, 9314040, Note_on_c, 2, 79, 50
2, 9314160, Note_off_c, 2, 79, 0
2, 9314160, Note_on_c, 2, 75, 50
2, 9314640, Note_off_c, 2, 75, 0
2, 9314640, Note_on_c, 2, 72, 50
2, 9315120, Note_off_c, 2, 72, 0
2, 9318960, Note_on_c, 2, 76, 50
2, 9319440, Note_off_c, 2, 76, 0
2, 9319440, Note_on_c, 2, 84, 50
2, 9320400, Note_off_c, 2, 84, 0
2, 9320400, Note_on_c, 2, 82, 50
2, 9320880, Note_off_c, 2, 82, 0
2, 9320880, Note_on_c, 2, 77, 50
2, 9321360, Note_off_c, 2, 77, 0
2, 9321360, Note_on_c, 2, 79, 50
2, 9321840, Note_off_c, 2, 79, 0
2, 9321840, Note_on_c, 2, 75, 50
2, 9322320, Note_off_c, 2, 75, 0
2, 9322320, Note_on_c, 2, 72, 50
2, 9322800, Note_off_c, 2, 72, 0
2, 9326640, Note_on_c, 2, 81, 50
2, 9327120, Note_off_c, 2, 81, 0
2, 9327120, Note_on_c, 2, 81, 50
2, 9327600, Note_off_c, 2, 81, 0
2, 9327600, Note_on_c, 2, 82, 50
2, 9328080, Note_off_c, 2, 82, 0
2, 9328080, Note_on_c, 2, 82, 50
2, 9328440, Note_off_c, 2, 82, 0
2, 9328440, Note_on_c, 2, 81, 50
2, 9328920, Note_off_c, 2, 81, 0
2, 9328920, Note_on_c, 2, 81, 50
2, 9329400, Note_off_c, 2, 81, 0
2, 9329400, Note_on_c, 2, 79, 50
2, 9329880, Note_off_c, 2, 79, 0
2, 9329880, Note_on_c, 2, 77, 50
2, 9330480, Note_off_c, 2, 77, 0
2, 9330480, Note_on_c, 2, 81, 50
2, 9330960, Note_off_c, 2, 81, 0
2, 9330960, Note_on_c, 2, 81, 50
2, 9331440, Note_off_c, 2, 81, 0
2, 9331440, Note_on_c, 2, 82, 50
2, 9331920, Note_off_c, 2, 82, 0
2, 9331920, Note_on_c, 2, 82, 50
2, 9332400, Note_off_c, 2, 82, 0
2, 9332400, Note_on_c, 2, 81, 50
2, 9332880, Note_off_c, 2, 81, 0
2, 9332880, Note_on_c, 2, 81, 50
2, 9333360, Note_off_c, 2, 81, 0
2, 9333360, Note_on_c, 2, 79, 50
2, 9333720, Note_off_c, 2, 79, 0
2, 9333720, Note_on_c, 2, 77, 50
2, 9334200, Note_off_c, 2, 77, 0
2, 9334200, Note_on_c, 2, 76, 50
2, 9334800, Note_off_c, 2, 76, 0
2, 9334800, Note_on_c, 2, 84, 50
2, 9335640, Note_off_c, 2, 84, 0
2, 9335640, Note_on_c, 2, 82, 50
2, 9336240, Note_off_c, 2, 82, 0
2, 9336240, Note_on_c, 2, 77, 50
2, 9337080, Note_off_c, 2, 77, 0
2, 9337080, Note_on_c, 2, 79, 50
2, 9337200, Note_off_c, 2, 79, 0
2, 9337200, Note_on_c, 2, 75, 50
2, 9337680, Note_off_c, 2, 75, 0
2, 9337680, Note_on_c, 2, 72, 50
2, 9338160, Note_off_c, 2, 72, 0
2, 9342000, Note_on_c, 2, 83, 50
2, 9342480, Note_off_c, 2, 83, 0
2, 9342480, Note_on_c, 2, 83, 50
2, 9342840, Note_off_c, 2, 83, 0
2, 9342840, Note_on_c, 2, 84, 50
2, 9343440, Note_off_c, 2, 84, 0
2, 9343440, Note_on_c, 2, 84, 50
2, 9343800, Note_off_c, 2, 84, 0
2, 9343800, Note_on_c, 2, 83, 50
2, 9344280, Note_off_c, 2, 83, 0
2, 9344280, Note_on_c, 2, 83, 50
2, 9344760, Note_off_c, 2, 83, 0
2, 9344760, Note_on_c, 2, 81, 50
2, 9345360, Note_off_c, 2, 81, 0
2, 9345360, Note_on_c, 2, 79, 50
2, 9345840, Note_off_c, 2, 79, 0
2, 9345840, Note_on_c, 2, 81, 50
2, 9346320, Note_off_c, 2, 81, 0
2, 9346320, Note_on_c, 2, 81, 50
2, 9346800, Note_off_c, 2, 81, 0
2, 9346800, Note_on_c, 2, 82, 50
2, 9347280, Note_off_c, 2, 82, 0
2, 9347280, Note_on_c, 2, 82, 50
2, 9347640, Note_off_c, 2, 82, 0
2, 9347640, Note_on_c, 2, 81, 50
2, 9348120, Note_off_c, 2, 81, 0
2, 9348120, Note_on_c, 2, 81, 50
2, 9348600, Note_off_c, 2, 81, 0
2, 9348600, Note_on_c, 2, 79, 50
2, 9349200, Note_off_c, 2, 79, 0
2, 9349200, Note_on_c, 2, 77, 50
2, 9349680, Note_off_c, 2, 77, 0
2, 9349680, Note_on_c, 2, 76, 50
2, 9350160, Note_off_c, 2, 76, 0
2, 9350160, Note_on_c, 2, 84, 50
2, 9351000, Note_off_c, 2, 84, 0
2, 9351000, Note_on_c, 2, 82, 50
2, 9351600, Note_off_c, 2, 82, 0
2, 9351600, Note_on_c, 2, 77, 50
2, 9352440, Note_off_c, 2, 77, 0
2, 9352440, Note_on_c, 2, 79, 50
2, 9352560, Note_off_c, 2, 79, 0
2, 9352560, Note_on_c, 2, 75, 50
2, 9353040, Note_off_c, 2, 75, 0
2, 9353040, Note_on_c, 2, 72, 50
2, 9353520, Note_off_c, 2, 72, 0
2, 9357360, Note_on_c, 2, 76, 50
2, 9357840, Note_off_c, 2, 76, 0
2, 9357840, Note_on_c, 2, 84, 50
2, 9358800, Note_off_c, 2, 84, 0
2, 9358800, Note_on_c, 2, 82, 50
2, 9359280, Note_off_c, 2, 82, 0
2, 9359280, Note_on_c, 2, 77, 50
2, 9360120, Note_off_c, 2, 77, 0
2, 9360120, Note_on_c, 2, 79, 50
2, 9360240, Note_off_c, 2, 79, 0
2, 9360240, Note_on_c, 2, 75, 50
2, 9360720, Note_off_c, 2, 75, 0
2, 9360720, Note_on_c, 2, 72, 50
2, 9361200, Note_off_c, 2, 72, 0
2, 9365040, Note_on_c, 2, 76, 50
2, 9365520, Note_off_c, 2, 76, 0
2, 9365520, Note_on_c, 2, 84, 50
2, 9366480, Note_off_c, 2, 84, 0
2, 9366480, Note_on_c, 2, 82, 50
2, 9366960, Note_off_c, 2, 82, 0
2, 9366960, Note_on_c, 2, 77, 50
2, 9367440, Note_off_c, 2, 77, 0
2, 9367440, Note_on_c, 2, 79, 50
2, 9367920, Note_off_c, 2, 79, 0
2, 9367920, Note_on_c, 2, 75, 50
2, 9368400, Note_off_c, 2, 75, 0
2, 9368400, Note_on_c, 2, 72, 50
2, 9368880, Note_off_c, 2, 72, 0
2, 9372720, Note_on_c, 2, 81, 50
2, 9373200, Note_off_c, 2, 81, 0
2, 9373200, Note_on_c, 2, 81, 50
2, 9373680, Note_off_c, 2, 81, 0
2, 9373680, Note_on_c, 2, 82, 50
2, 9374160, Note_off_c, 2, 82, 0
2, 9374160, Note_on_c, 2, 82, 50
2, 9374520, Note_off_c, 2, 82, 0
2, 9374520, Note_on_c, 2, 81, 50
2, 9375000, Note_off_c, 2, 81, 0
2, 9375000, Note_on_c, 2, 81, 50
2, 9375480, Note_off_c, 2, 81, 0
2, 9375480, Note_on_c, 2, 79, 50
2, 9375960, Note_off_c, 2, 79, 0
2, 9375960, Note_on_c, 2, 77, 50
2, 9376560, Note_off_c, 2, 77, 0
2, 9376560, Note_on_c, 2, 81, 50
2, 9377040, Note_off_c, 2, 81, 0
2, 9377040, Note_on_c, 2, 81, 50
2, 9377520, Note_off_c, 2, 81, 0
2, 9377520, Note_on_c, 2, 82, 50
2, 9378000, Note_off_c, 2, 82, 0
2, 9378000, Note_on_c, 2, 82, 50
2, 9378480, Note_off_c, 2, 82, 0
2, 9378480, Note_on_c, 2, 81, 50
2, 9378960, Note_off_c, 2, 81, 0
2, 9378960, Note_on_c, 2, 81, 50
2, 9379440, Note_off_c, 2, 81, 0
2, 9379440, Note_on_c, 2, 79, 50
2, 9379800, Note_off_c, 2, 79, 0
2, 9379800, Note_on_c, 2, 77, 50
2, 9380280, Note_off_c, 2, 77, 0
2, 9380280, Note_on_c, 2, 76, 50
2, 9380880, Note_off_c, 2, 76, 0
2, 9380880, Note_on_c, 2, 84, 50
2, 9381720, Note_off_c, 2, 84, 0
2, 9381720, Note_on_c, 2, 82, 50
2, 9382320, Note_off_c, 2, 82, 0
2, 9382320, Note_on_c, 2, 77, 50
2, 9383160, Note_off_c, 2, 77, 0
2, 9383160, Note_on_c, 2, 79, 50
2, 9383280, Note_off_c, 2, 79, 0
2, 9383280, Note_on_c, 2, 75, 50
2, 9383760, Note_off_c, 2, 75, 0
2, 9383760, Note_on_c, 2, 72, 50
2, 9384240, Note_off_c, 2, 72, 0
2, 9388080, Note_on_c, 2, 83, 50
2, 9388560, Note_off_c, 2, 83, 0
2, 9388560, Note_on_c, 2, 83, 50
2, 9388920, Note_off_c, 2, 83, 0
2, 9388920, Note_on_c, 2, 84, 50
2, 9389520, Note_off_c, 2, 84, 0
2, 9389520, Note_on_c, 2, 84, 50
2, 9389880, Note_off_c, 2, 84, 0
2, 9389880, Note_on_c, 2, 83, 50
2, 9390360, Note_off_c, 2, 83, 0
2, 9390360, Note_on_c, 2, 83, 50
2, 9390840, Note_off_c, 2, 83, 0
2, 9390840, Note_on_c, 2, 81, 50
2, 9391440, Note_off_c, 2, 81, 0
2, 9391440, Note_on_c, 2, 79, 50
2, 9391920, Note_off_c, 2, 79, 0
2, 9391920, Note_on_c, 2, 81, 50
2, 9392400, Note_off_c, 2, 81, 0
2, 9392400, Note_on_c, 2, 81, 50
2, 9392880, Note_off_c, 2, 81, 0
2, 9392880, Note_on_c, 2, 82, 50
2, 9393360, Note_off_c, 2, 82, 0
2, 9393360, Note_on_c, 2, 82, 50
2, 9393720, Note_off_c, 2, 82, 0
2, 9393720, Note_on_c, 2, 81, 50
2, 9394200, Note_off_c, 2, 81, 0
2, 9394200, Note_on_c, 2, 81, 50
2, 9394680, Note_off_c, 2, 81, 0
2, 9394680, Note_on_c, 2, 79, 50
2, 9395280, Note_off_c, 2, 79, 0
2, 9395280, Note_on_c, 2, 77, 50
2, 9395760, Note_off_c, 2, 77, 0
2, 9395760, Note_on_c, 2, 76, 50
2, 9396240, Note_off_c, 2, 76, 0
2, 9396240, Note_on_c, 2, 84, 50
2, 9397080, Note_off_c, 2, 84, 0
2, 9397080, Note_on_c, 2, 82, 50
2, 9397680, Note_off_c, 2, 82, 0
2, 9397680, Note_on_c, 2, 77, 50
2, 9398520, Note_off_c, 2, 77, 0
2, 9398520, Note_on_c, 2, 79, 50
2, 9398640, Note_off_c, 2, 79, 0
2, 9398640, Note_on_c, 2, 75, 50
2, 9399120, Note_off_c, 2, 75, 0
2, 9399120, Note_on_c, 2, 72, 50
2, 9399600, Note_off_c, 2, 72, 0
2, 9403440, Note_on_c, 2, 83, 50
2, 9403920, Note_off_c, 2, 83, 0
2, 9403920, Note_on_c, 2, 81, 50
2, 9404280, Note_off_c, 2, 81, 0
2, 9404280, Note_on_c, 2, 79, 50
2, 9404760, Note_off_c, 2, 79, 0
2, 9404760, Note_on_c, 2, 81, 50
2, 9404880, Note_off_c, 2, 81, 0
2, 9404880, Note_on_c, 2, 83, 50
2, 9405240, Note_off_c, 2, 83, 0
2, 9405240, Note_on_c, 2, 81, 50
2, 9405720, Note_off_c, 2, 81, 0
2, 9405720, Note_on_c, 2, 79, 50
2, 9406200, Note_off_c, 2, 79, 0
2, 9406200, Note_on_c, 2, 76, 50
2, 9407280, Note_off_c, 2, 76, 0
2, 9407280, Note_on_c, 2, 83, 50
2, 9407760, Note_off_c, 2, 83, 0
2, 9407760, Note_on_c, 2, 81, 50
2, 9408120, Note_off_c, 2, 81, 0
2, 9408120, Note_on_c, 2, 79, 50
2, 9408600, Note_off_c, 2, 79, 0
2, 9408600, Note_on_c, 2, 81, 50
2, 9408720, Note_off_c, 2, 81, 0
2, 9408720, Note_on_c, 2, 83, 50
2, 9409080, Note_off_c, 2, 83, 0
2, 9409080, Note_on_c, 2, 81, 50
2, 9409560, Note_off_c, 2, 81, 0
2, 9409560, Note_on_c, 2, 79, 50
2, 9410040, Note_off_c, 2, 79, 0
2, 9410040, Note_on_c, 2, 76, 50
2, 9410520, Note_off_c, 2, 76, 0
2, 9410520, Note_on_c, 2, 74, 50
2, 9410640, Note_off_c, 2, 74, 0
2, 9410640, Note_on_c, 2, 72, 50
2, 9411120, Note_off_c, 2, 72, 0
2, 9411120, Note_on_c, 2, 76, 50
2, 9411600, Note_off_c, 2, 76, 0
2, 9411600, Note_on_c, 2, 84, 50
2, 9412560, Note_off_c, 2, 84, 0
2, 9412560, Note_on_c, 2, 82, 50
2, 9413040, Note_off_c, 2, 82, 0
2, 9413040, Note_on_c, 2, 77, 50
2, 9413880, Note_off_c, 2, 77, 0
2, 9413880, Note_on_c, 2, 79, 50
2, 9414000, Note_off_c, 2, 79, 0
2, 9414000, Note_on_c, 2, 75, 50
2, 9414480, Note_off_c, 2, 75, 0
2, 9414480, Note_on_c, 2, 72, 50
2, 9414960, Note_off_c, 2, 72, 0
2, 9418800, Note_on_c, 2, 76, 50
2, 9419280, Note_off_c, 2, 76, 0
2, 9419280, Note_on_c, 2, 84, 50
2, 9420240, Note_off_c, 2, 84, 0
2, 9420240, Note_on_c, 2, 82, 50
2, 9420720, Note_off_c, 2, 82, 0
2, 9420720, Note_on_c, 2, 77, 50
2, 9421200, Note_off_c, 2, 77, 0
2, 9421200, Note_on_c, 2, 79, 50
2, 9421680, Note_off_c, 2, 79, 0
2, 9421680, Note_on_c, 2, 75, 50
2, 9422160, Note_off_c, 2, 75, 0
2, 9422160, Note_on_c, 2, 72, 50
2, 9422640, Note_off_c, 2, 72, 0
2, 9426480, Note_on_c, 2, 81, 50
2, 9426960, Note_off_c, 2, 81, 0
2, 9426960, Note_on_c, 2, 81, 50
2, 9427440, Note_off_c, 2, 81, 0
2, 9427440, Note_on_c, 2, 82, 50
2, 9427920, Note_off_c, 2, 82, 0
2, 9427920, Note_on_c, 2, 82, 50
2, 9428280, Note_off_c, 2, 82, 0
2, 9428280, Note_on_c, 2, 81, 50
2, 9428760, Note_off_c, 2, 81, 0
2, 9428760, Note_on_c, 2, 81, 50
2, 9429240, Note_off_c, 2, 81, 0
2, 9429240, Note_on_c, 2, 79, 50
2, 9429720, Note_off_c, 2, 79, 0
2, 9429720, Note_on_c, 2, 77, 50
2, 9430320, Note_off_c, 2, 77, 0
2, 9430320, Note_on_c, 2, 81, 50
2, 9430800, Note_off_c, 2, 81, 0
2, 9430800, Note_on_c, 2, 81, 50
2, 9431280, Note_off_c, 2, 81, 0
2, 9431280, Note_on_c, 2, 82, 50
2, 9431760, Note_off_c, 2, 82, 0
2, 9431760, Note_on_c, 2, 82, 50
2, 9432240, Note_off_c, 2, 82, 0
2, 9432240, Note_on_c, 2, 81, 50
2, 9432720, Note_off_c, 2, 81, 0
2, 9432720, Note_on_c, 2, 81, 50
2, 9433200, Note_off_c, 2, 81, 0
2, 9433200, Note_on_c, 2, 79, 50
2, 9433560, Note_off_c, 2, 79, 0
2, 9433560, Note_on_c, 2, 77, 50
2, 9434040, Note_off_c, 2, 77, 0
2, 9434040, Note_on_c, 2, 76, 50
2, 9434640, Note_off_c, 2, 76, 0
2, 9434640, Note_on_c, 2, 84, 50
2, 9435480, Note_off_c, 2, 84, 0
2, 9435480, Note_on_c, 2, 82, 50
2, 9436080, Note_off_c, 2, 82, 0
2, 9436080, Note_on_c, 2, 77, 50
2, 9436920, Note_off_c, 2, 77, 0
2, 9436920, Note_on_c, 2, 79, 50
2, 9437040, Note_off_c, 2, 79, 0
2, 9437040, Note_on_c, 2, 75, 50
2, 9437520, Note_off_c, 2, 75, 0
2, 9437520, Note_on_c, 2, 72, 50
2, 9438000, Note_off_c, 2, 72, 0
2, 9441840, Note_on_c, 2, 83, 50
2, 9442320, Note_off_c, 2, 83, 0
2, 9442320, Note_on_c, 2, 83, 50
2, 9442680, Note_off_c, 2, 83, 0
2, 9442680, Note_on_c, 2, 84, 50
2, 9443280, Note_off_c, 2, 84, 0
2, 9443280, Note_on_c, 2, 84, 50
2, 9443640, Note_off_c, 2, 84, 0
2, 9443640, Note_on_c, 2, 83, 50
2, 9444120, Note_off_c, 2, 83, 0
2, 9444120, Note_on_c, 2, 83, 50
2, 9444600, Note_off_c, 2, 83, 0
2, 9444600, Note_on_c, 2, 81, 50
2, 9445200, Note_off_c, 2, 81, 0
2, 9445200, Note_on_c, 2, 79, 50
2, 9445680, Note_off_c, 2, 79, 0
2, 9445680, Note_on_c, 2, 81, 50
2, 9446160, Note_off_c, 2, 81, 0
2, 9446160, Note_on_c, 2, 81, 50
2, 9446640, Note_off_c, 2, 81, 0
2, 9446640, Note_on_c, 2, 82, 50
2, 9447120, Note_off_c, 2, 82, 0
2, 9447120, Note_on_c, 2, 82, 50
2, 9447480, Note_off_c, 2, 82, 0
2, 9447480, Note_on_c, 2, 81, 50
2, 9447960, Note_off_c, 2, 81, 0
2, 9447960, Note_on_c, 2, 81, 50
2, 9448440, Note_off_c, 2, 81, 0
2, 9448440, Note_on_c, 2, 79, 50
2, 9449040, Note_off_c, 2, 79, 0
2, 9449040, Note_on_c, 2, 77, 50
2, 9449520, Note_off_c, 2, 77, 0
2, 9449520, Note_on_c, 2, 76, 50
2, 9450000, Note_off_c, 2, 76, 0
2, 9450000, Note_on_c, 2, 84, 50
2, 9450840, Note_off_c, 2, 84, 0
2, 9450840, Note_on_c, 2, 82, 50
2, 9451440, Note_off_c, 2, 82, 0
2, 9451440, Note_on_c, 2, 77, 50
2, 9452280, Note_off_c, 2, 77, 0
2, 9452280, Note_on_c, 2, 79, 50
2, 9452400, Note_off_c, 2, 79, 0
2, 9452400, Note_on_c, 2, 75, 50
2, 9452880, Note_off_c, 2, 75, 0
2, 9452880, Note_on_c, 2, 72, 50
2, 9453360, Note_off_c, 2, 72, 0
2, 9455280, Note_on_c, 2, 83, 50
2, 9455760, Note_off_c, 2, 83, 0
2, 9455760, Note_on_c, 2, 76, 50
2, 9456720, Note_off_c, 2, 76, 0
2, 9456720, Note_on_c, 2, 77, 50
2, 9457200, Note_off_c, 2, 77, 0
2, 9457200, Note_on_c, 2, 76, 50
2, 9457680, Note_off_c, 2, 76, 0
2, 9480240, Note_on_c, 2, 83, 50
2, 9480720, Note_off_c, 2, 83, 0
2, 9480720, Note_on_c, 2, 81, 50
2, 9481080, Note_off_c, 2, 81, 0
2, 9481080, Note_on_c, 2, 79, 50
2, 9481560, Note_off_c, 2, 79, 0
2, 9481560, Note_on_c, 2, 81, 50
2, 9481680, Note_off_c, 2, 81, 0
2, 9481680, Note_on_c, 2, 83, 50
2, 9482040, Note_off_c, 2, 83, 0
2, 9482040, Note_on_c, 2, 81, 50
2, 9482520, Note_off_c, 2, 81, 0
2, 9482520, Note_on_c, 2, 79, 50
2, 9483000, Note_off_c, 2, 79, 0
2, 9483000, Note_on_c, 2, 76, 50
2, 9484080, Note_off_c, 2, 76, 0
2, 9484080, Note_on_c, 2, 83, 50
2, 9484560, Note_off_c, 2, 83, 0
2, 9484560, Note_on_c, 2, 81, 50
2, 9484920, Note_off_c, 2, 81, 0
2, 9484920, Note_on_c, 2, 79, 50
2, 9485400, Note_off_c, 2, 79, 0
2, 9485400, Note_on_c, 2, 81, 50
2, 9485520, Note_off_c, 2, 81, 0
2, 9485520, Note_on_c, 2, 83, 50
2, 9485880, Note_off_c, 2, 83, 0
2, 9485880, Note_on_c, 2, 83, 50
2, 9486360, Note_off_c, 2, 83, 0
2, 9486360, Note_on_c, 2, 81, 50
2, 9486840, Note_off_c, 2, 81, 0
2, 9486840, Note_on_c, 2, 83, 50
2, 9487440, Note_off_c, 2, 83, 0
2, 9487440, Note_on_c, 2, 81, 50
2, 9487920, Note_off_c, 2, 81, 0
2, 9487920, Note_on_c, 2, 76, 50
2, 9488400, Note_off_c, 2, 76, 0
2, 9488400, Note_on_c, 2, 84, 50
2, 9489360, Note_off_c, 2, 84, 0
2, 9489360, Note_on_c, 2, 82, 50
2, 9489840, Note_off_c, 2, 82, 0
2, 9489840, Note_on_c, 2, 77, 50
2, 9490680, Note_off_c, 2, 77, 0
2, 9490680, Note_on_c, 2, 79, 50
2, 9490800, Note_off_c, 2, 79, 0
2, 9490800, Note_on_c, 2, 75, 50
2, 9491280, Note_off_c, 2, 75, 0
2, 9491280, Note_on_c, 2, 72, 50
2, 9491760, Note_off_c, 2, 72, 0
2, 9495600, Note_on_c, 2, 76, 50
2, 9496080, Note_off_c, 2, 76, 0
2, 9496080, Note_on_c, 2, 84, 50
2, 9497040, Note_off_c, 2, 84, 0
2, 9497040, Note_on_c, 2, 82, 50
2, 9497520, Note_off_c, 2, 82, 0
2, 9497520, Note_on_c, 2, 77, 50
2, 9498000, Note_off_c, 2, 77, 0
2, 9498000, Note_on_c, 2, 79, 50
2, 9498480, Note_off_c, 2, 79, 0
2, 9498480, Note_on_c, 2, 75, 50
2, 9498960, Note_off_c, 2, 75, 0
2, 9498960, Note_on_c, 2, 72, 50
2, 9499440, Note_off_c, 2, 72, 0
2, 9503280, Note_on_c, 2, 81, 50
2, 9503760, Note_off_c, 2, 81, 0
2, 9503760, Note_on_c, 2, 81, 50
2, 9504240, Note_off_c, 2, 81, 0
2, 9504240, Note_on_c, 2, 82, 50
2, 9504720, Note_off_c, 2, 82, 0
2, 9504720, Note_on_c, 2, 82, 50
2, 9505080, Note_off_c, 2, 82, 0
2, 9505080, Note_on_c, 2, 81, 50
2, 9505560, Note_off_c, 2, 81, 0
2, 9505560, Note_on_c, 2, 81, 50
2, 9506040, Note_off_c, 2, 81, 0
2, 9506040, Note_on_c, 2, 79, 50
2, 9506520, Note_off_c, 2, 79, 0
2, 9506520, Note_on_c, 2, 77, 50
2, 9507120, Note_off_c, 2, 77, 0
2, 9507120, Note_on_c, 2, 81, 50
2, 9507600, Note_off_c, 2, 81, 0
2, 9507600, Note_on_c, 2, 81, 50
2, 9508080, Note_off_c, 2, 81, 0
2, 9508080, Note_on_c, 2, 82, 50
2, 9508560, Note_off_c, 2, 82, 0
2, 9508560, Note_on_c, 2, 82, 50
2, 9509040, Note_off_c, 2, 82, 0
2, 9509040, Note_on_c, 2, 81, 50
2, 9509520, Note_off_c, 2, 81, 0
2, 9509520, Note_on_c, 2, 81, 50
2, 9510000, Note_off_c, 2, 81, 0
2, 9510000, Note_on_c, 2, 79, 50
2, 9510360, Note_off_c, 2, 79, 0
2, 9510360, Note_on_c, 2, 77, 50
2, 9510840, Note_off_c, 2, 77, 0
2, 9510840, Note_on_c, 2, 76, 50
2, 9511440, Note_off_c, 2, 76, 0
2, 9511440, Note_on_c, 2, 84, 50
2, 9512280, Note_off_c, 2, 84, 0
2, 9512280, Note_on_c, 2, 82, 50
2, 9512880, Note_off_c, 2, 82, 0
2, 9512880, Note_on_c, 2, 77, 50
2, 9513720, Note_off_c, 2, 77, 0
2, 9513720, Note_on_c, 2, 79, 50
2, 9513840, Note_off_c, 2, 79, 0
2, 9513840, Note_on_c, 2, 75, 50
2, 9514320, Note_off_c, 2, 75, 0
2, 9514320, Note_on_c, 2, 72, 50
2, 9514800, Note_off_c, 2, 72, 0
2, 9518640, Note_on_c, 2, 83, 50
2, 9519120, Note_off_c, 2, 83, 0
2, 9519120, Note_on_c, 2, 83, 50
2, 9519480, Note_off_c, 2, 83, 0
2, 9519480, Note_on_c, 2, 84, 50
2, 9520080, Note_off_c, 2, 84, 0
2, 9520080, Note_on_c, 2, 84, 50
2, 9520440, Note_off_c, 2, 84, 0
2, 9520440, Note_on_c, 2, 83, 50
2, 9520920, Note_off_c, 2, 83, 0
2, 9520920, Note_on_c, 2, 83, 50
2, 9521400, Note_off_c, 2, 83, 0
2, 9521400, Note_on_c, 2, 81, 50
2, 9522000, Note_off_c, 2, 81, 0
2, 9522000, Note_on_c, 2, 79, 50
2, 9522480, Note_off_c, 2, 79, 0
2, 9522480, Note_on_c, 2, 81, 50
2, 9522960, Note_off_c, 2, 81, 0
2, 9522960, Note_on_c, 2, 81, 50
2, 9523440, Note_off_c, 2, 81, 0
2, 9523440, Note_on_c, 2, 82, 50
2, 9523920, Note_off_c, 2, 82, 0
2, 9523920, Note_on_c, 2, 82, 50
2, 9524280, Note_off_c, 2, 82, 0
2, 9524280, Note_on_c, 2, 81, 50
2, 9524760, Note_off_c, 2, 81, 0
2, 9524760, Note_on_c, 2, 81, 50
2, 9525240, Note_off_c, 2, 81, 0
2, 9525240, Note_on_c, 2, 79, 50
2, 9525840, Note_off_c, 2, 79, 0
2, 9525840, Note_on_c, 2, 77, 50
2, 9526320, Note_off_c, 2, 77, 0
2, 9526320, Note_on_c, 2, 76, 50
2, 9526800, Note_off_c, 2, 76, 0
2, 9526800, Note_on_c, 2, 84, 50
2, 9527640, Note_off_c, 2, 84, 0
2, 9527640, Note_on_c, 2, 82, 50
2, 9528240, Note_off_c, 2, 82, 0
2, 9528240, Note_on_c, 2, 77, 50
2, 9529080, Note_off_c, 2, 77, 0
2, 9529080, Note_on_c, 2, 79, 50
2, 9529200, Note_off_c, 2, 79, 0
2, 9529200, Note_on_c, 2, 75, 50
2, 9529680, Note_off_c, 2, 75, 0
2, 9529680, Note_on_c, 2, 72, 50
2, 9530160, Note_off_c, 2, 72, 0
2, 9533040, Note_on_c, 2, 88, 50
2, 9533400, Note_off_c, 2, 88, 0
2, 9533400, Note_on_c, 2, 88, 50
2, 9533760, Note_off_c, 2, 88, 0
2, 9534000, Note_on_c, 2, 84, 50
2, 9535920, Note_off_c, 2, 84, 0
2, 9537240, Note_on_c, 2, 88, 50
2, 9537600, Note_off_c, 2, 88, 0
2, 9537840, Note_on_c, 2, 88, 50
2, 9538200, Note_off_c, 2, 88, 0
2, 9538200, Note_on_c, 2, 84, 50
2, 9539760, Note_off_c, 2, 84, 0
2, 9541080, Note_on_c, 2, 88, 50
2, 9541440, Note_off_c, 2, 88, 0
2, 9541680, Note_on_c, 2, 88, 50
2, 9542040, Note_off_c, 2, 88, 0
2, 9542040, Note_on_c, 2, 84, 50
2, 9543600, Note_off_c, 2, 84, 0
2, 9544920, Note_on_c, 2, 88, 50
2, 9545280, Note_off_c, 2, 88, 0
2, 9545520, Note_on_c, 2, 88, 50
2, 9545880, Note_off_c, 2, 88, 0
2, 9545880, Note_on_c, 2, 84, 50
2, 9547440, Note_off_c, 2, 84, 0
2, 9548760, Note_on_c, 2, 86, 50
2, 9549120, Note_off_c, 2, 86, 0
2, 9549360, Note_on_c, 2, 83, 50
2, 9549720, Note_off_c, 2, 83, 0
2, 9549720, Note_on_c, 2, 79, 50
2, 9551280, Note_off_c, 2, 79, 0
2, 9556080, Note_on_c, 2, 88, 50
2, 9556440, Note_off_c, 2, 88, 0
2, 9556440, Note_on_c, 2, 88, 50
2, 9556800, Note_off_c, 2, 88, 0
2, 9557040, Note_on_c, 2, 84, 50
2, 9558960, Note_off_c, 2, 84, 0
2, 9560280, Note_on_c, 2, 88, 50
2, 9560640, Note_off_c, 2, 88, 0
2, 9560880, Note_on_c, 2, 88, 50
2, 9561240, Note_off_c, 2, 88, 0
2, 9561240, Note_on_c, 2, 84, 50
2, 9562800, Note_off_c, 2, 84, 0
2, 9564120, Note_on_c, 2, 88, 50
2, 9564480, Note_off_c, 2, 88, 0
2, 9564720, Note_on_c, 2, 88, 50
2, 9565080, Note_off_c, 2, 88, 0
2, 9565080, Note_on_c, 2, 84, 50
2, 9566640, Note_off_c, 2, 84, 0
2, 9567960, Note_on_c, 2, 88, 50
2, 9568320, Note_off_c, 2, 88, 0
2, 9568560, Note_on_c, 2, 88, 50
2, 9568920, Note_off_c, 2, 88, 0
2, 9568920, Note_on_c, 2, 84, 50
2, 9570480, Note_off_c, 2, 84, 0
2, 9571800, Note_on_c, 2, 86, 50
2, 9572160, Note_off_c, 2, 86, 0
2, 9572400, Note_on_c, 2, 83, 50
2, 9572760, Note_off_c, 2, 83, 0
2, 9572760, Note_on_c, 2, 79, 50
2, 9574320, Note_off_c, 2, 79, 0
2, 9589680, Note_on_c, 2, 60, 50
2, 9589920, Note_off_c, 2, 60, 0
2, 9589920, Note_on_c, 2, 53, 50
2, 9590040, Note_off_c, 2, 53, 0
2, 9590040, Note_on_c, 2, 57, 50
2, 9590280, Note_off_c, 2, 57, 0
2, 9590280, Note_on_c, 2, 62, 50
2, 9590400, Note_off_c, 2, 62, 0
2, 9590400, Note_on_c, 2, 57, 50
2, 9590640, Note_off_c, 2, 57, 0
2, 9590640, Note_on_c, 2, 60, 50
2, 9590880, Note_off_c, 2, 60, 0
2, 9590880, Note_on_c, 2, 53, 50
2, 9591000, Note_off_c, 2, 53, 0
2, 9591000, Note_on_c, 2, 57, 50
2, 9591240, Note_off_c, 2, 57, 0
2, 9591240, Note_on_c, 2, 62, 50
2, 9591360, Note_off_c, 2, 62, 0
2, 9591360, Note_on_c, 2, 57, 50
2, 9591600, Note_off_c, 2, 57, 0
2, 9591600, Note_on_c, 2, 60, 50
2, 9591840, Note_off_c, 2, 60, 0
2, 9591840, Note_on_c, 2, 53, 50
2, 9591960, Note_off_c, 2, 53, 0
2, 9591960, Note_on_c, 2, 57, 50
2, 9592200, Note_off_c, 2, 57, 0
2, 9592200, Note_on_c, 2, 62, 50
2, 9592320, Note_off_c, 2, 62, 0
2, 9592320, Note_on_c, 2, 57, 50
2, 9592560, Note_off_c, 2, 57, 0
2, 9592560, Note_on_c, 2, 60, 50
2, 9592800, Note_off_c, 2, 60, 0
2, 9592800, Note_on_c, 2, 53, 50
2, 9592920, Note_off_c, 2, 53, 0
2, 9592920, Note_on_c, 2, 57, 50
2, 9593160, Note_off_c, 2, 57, 0
2, 9593160, Note_on_c, 2, 64, 50
2, 9593280, Note_off_c, 2, 64, 0
2, 9593280, Note_on_c, 2, 59, 50
2, 9593520, Note_off_c, 2, 59, 0
2, 9593520, Note_on_c, 2, 60, 50
2, 9593760, Note_off_c, 2, 60, 0
2, 9593760, Note_on_c, 2, 48, 50
2, 9593880, Note_off_c, 2, 48, 0
2, 9593880, Note_on_c, 2, 52, 50
2, 9594120, Note_off_c, 2, 52, 0
2, 9594120, Note_on_c, 2, 57, 50
2, 9594240, Note_off_c, 2, 57, 0
2, 9594240, Note_on_c, 2, 52, 50
2, 9595440, Note_off_c, 2, 52, 0
2, 9597360, Note_on_c, 2, 60, 50
2, 9597600, Note_off_c, 2, 60, 0
2, 9597600, Note_on_c, 2, 53, 50
2, 9597720, Note_off_c, 2, 53, 0
2, 9597720, Note_on_c, 2, 57, 50
2, 9597960, Note_off_c, 2, 57, 0
2, 9597960, Note_on_c, 2, 62, 50
2, 9598080, Note_off_c, 2, 62, 0
2, 9598080, Note_on_c, 2, 57, 50
2, 9598320, Note_off_c, 2, 57, 0
2, 9598320, Note_on_c, 2, 60, 50
2, 9598560, Note_off_c, 2, 60, 0
2, 9598560, Note_on_c, 2, 53, 50
2, 9598680, Note_off_c, 2, 53, 0
2, 9598680, Note_on_c, 2, 57, 50
2, 9598920, Note_off_c, 2, 57, 0
2, 9598920, Note_on_c, 2, 62, 50
2, 9599040, Note_off_c, 2, 62, 0
2, 9599040, Note_on_c, 2, 57, 50
2, 9599280, Note_off_c, 2, 57, 0
2, 9599280, Note_on_c, 2, 60, 50
2, 9599520, Note_off_c, 2, 60, 0
2, 9599520, Note_on_c, 2, 53, 50
2, 9599640, Note_off_c, 2, 53, 0
2, 9599640, Note_on_c, 2, 57, 50
2, 9599880, Note_off_c, 2, 57, 0
2, 9599880, Note_on_c, 2, 62, 50
2, 9600000, Note_off_c, 2, 62, 0
2, 9600000, Note_on_c, 2, 57, 50
2, 9600240, Note_off_c, 2, 57, 0
2, 9600240, Note_on_c, 2, 60, 50
2, 9600480, Note_off_c, 2, 60, 0
2, 9600480, Note_on_c, 2, 53, 50
2, 9600600, Note_off_c, 2, 53, 0
2, 9600600, Note_on_c, 2, 57, 50
2, 9600840, Note_off_c, 2, 57, 0
2, 9600840, Note_on_c, 2, 64, 50
2, 9600960, Note_off_c, 2, 64, 0
2, 9600960, Note_on_c, 2, 59, 50
2, 9601200, Note_off_c, 2, 59, 0
2, 9601200, Note_on_c, 2, 60, 50
2, 9601440, Note_off_c, 2, 60, 0
2, 9601440, Note_on_c, 2, 48, 50
2, 9601560, Note_off_c, 2, 48, 0
2, 9601560, Note_on_c, 2, 52, 50
2, 9601800, Note_off_c, 2, 52, 0
2, 9601800, Note_on_c, 2, 57, 50
2, 9601920, Note_off_c, 2, 57, 0
2, 9601920, Note_on_c, 2, 52, 50
2, 9603120, Note_off_c, 2, 52, 0
2, 9605040, Note_on_c, 2, 62, 50
2, 9605400, Note_off_c, 2, 62, 0
2, 9605400, Note_on_c, 2, 62, 50
2, 9605760, Note_off_c, 2, 62, 0
2, 9606000, Note_on_c, 2, 62, 50
2, 9607920, Note_off_c, 2, 62, 0
2, 9607920, Note_on_c, 2, 62, 50
2, 9608280, Note_off_c, 2, 62, 0
2, 9608280, Note_on_c, 2, 63, 50
2, 9608640, Note_off_c, 2, 63, 0
2, 9608640, Note_on_c, 2, 64, 50
2, 9609000, Note_off_c, 2, 64, 0
2, 9609480, Note_on_c, 2, 60, 50
2, 9610920, Note_off_c, 2, 60, 0
2, 9610920, Note_on_c, 2, 69, 50
2, 9612840, Note_off_c, 2, 69, 0
2, 9612840, Note_on_c, 2, 65, 50
2, 9614760, Note_off_c, 2, 65, 0
2, 9616680, Note_on_c, 2, 64, 50
2, 9616920, Note_off_c, 2, 64, 0
2, 9616920, Note_on_c, 2, 64, 50
2, 9617160, Note_off_c, 2, 64, 0
2, 9617160, Note_on_c, 2, 64, 50
2, 9617400, Note_off_c, 2, 64, 0
2, 9617400, Note_on_c, 2, 64, 50
2, 9617640, Note_off_c, 2, 64, 0
2, 9617640, Note_on_c, 2, 64, 50
2, 9617880, Note_off_c, 2, 64, 0
2, 9617880, Note_on_c, 2, 64, 50
2, 9618120, Note_off_c, 2, 64, 0
2, 9618120, Note_on_c, 2, 64, 50
2, 9618360, Note_off_c, 2, 64, 0
2, 9618360, Note_on_c, 2, 64, 50
2, 9618600, Note_off_c, 2, 64, 0
2, 9618600, Note_on_c, 2, 64, 50
2, 9618840, Note_off_c, 2, 64, 0
2, 9618840, Note_on_c, 2, 64, 50
2, 9619080, Note_off_c, 2, 64, 0
2, 9619080, Note_on_c, 2, 64, 50
2, 9619320, Note_off_c, 2, 64, 0
2, 9619320, Note_on_c, 2, 64, 50
2, 9619560, Note_off_c, 2, 64, 0
2, 9619560, Note_on_c, 2, 64, 50
2, 9619800, Note_off_c, 2, 64, 0
2, 9619800, Note_on_c, 2, 64, 50
2, 9620040, Note_off_c, 2, 64, 0
2, 9620040, Note_on_c, 2, 64, 50
2, 9620280, Note_off_c, 2, 64, 0
2, 9620280, Note_on_c, 2, 64, 50
2, 9620520, Note_off_c, 2, 64, 0
2, 9620520, Note_on_c, 2, 67, 50
2, 9620760, Note_off_c, 2, 67, 0
2, 9620760, Note_on_c, 2, 67, 50
2, 9621000, Note_off_c, 2, 67, 0
2, 9621000, Note_on_c, 2, 67, 50
2, 9621240, Note_off_c, 2, 67, 0
2, 9621240, Note_on_c, 2, 67, 50
2, 9621480, Note_off_c, 2, 67, 0
2, 9621480, Note_on_c, 2, 67, 50
2, 9621720, Note_off_c, 2, 67, 0
2, 9621720, Note_on_c, 2, 67, 50
2, 9621960, Note_off_c, 2, 67, 0
2, 9621960, Note_on_c, 2, 67, 50
2, 9622200, Note_off_c, 2, 67, 0
2, 9622200, Note_on_c, 2, 67, 50
2, 9622440, Note_off_c, 2, 67, 0
2, 9622440, Note_on_c, 2, 69, 50
2, 9622680, Note_off_c, 2, 69, 0
2, 9622680, Note_on_c, 2, 69, 50
2, 9622920, Note_off_c, 2, 69, 0
2, 9622920, Note_on_c, 2, 69, 50
2, 9623160, Note_off_c, 2, 69, 0
2, 9623160, Note_on_c, 2, 69, 50
2, 9623400, Note_off_c, 2, 69, 0
2, 9623400, Note_on_c, 2, 69, 50
2, 9623640, Note_off_c, 2, 69, 0
2, 9623640, Note_on_c, 2, 69, 50
2, 9623880, Note_off_c, 2, 69, 0
2, 9623880, Note_on_c, 2, 69, 50
2, 9624120, Note_off_c, 2, 69, 0
2, 9624120, Note_on_c, 2, 69, 50
2, 9624360, Note_off_c, 2, 69, 0
2, 9624360, Note_on_c, 2, 64, 50
2, 9624600, Note_off_c, 2, 64, 0
2, 9624600, Note_on_c, 2, 64, 50
2, 9624840, Note_off_c, 2, 64, 0
2, 9624840, Note_on_c, 2, 64, 50
2, 9625080, Note_off_c, 2, 64, 0
2, 9625080, Note_on_c, 2, 64, 50
2, 9625320, Note_off_c, 2, 64, 0
2, 9625320, Note_on_c, 2, 64, 50
2, 9625560, Note_off_c, 2, 64, 0
2, 9625560, Note_on_c, 2, 64, 50
2, 9625800, Note_off_c, 2, 64, 0
2, 9625800, Note_on_c, 2, 64, 50
2, 9626040, Note_off_c, 2, 64, 0
2, 9626040, Note_on_c, 2, 64, 50
2, 9626280, Note_off_c, 2, 64, 0
2, 9626280, Note_on_c, 2, 64, 50
2, 9626520, Note_off_c, 2, 64, 0
2, 9626520, Note_on_c, 2, 64, 50
2, 9626760, Note_off_c, 2, 64, 0
2, 9626760, Note_on_c, 2, 64, 50
2, 9627000, Note_off_c, 2, 64, 0
2, 9627000, Note_on_c, 2, 64, 50
2, 9627240, Note_off_c, 2, 64, 0
2, 9627240, Note_on_c, 2, 64, 50
2, 9627480, Note_off_c, 2, 64, 0
2, 9627480, Note_on_c, 2, 64, 50
2, 9627720, Note_off_c, 2, 64, 0
2, 9627720, Note_on_c, 2, 64, 50
2, 9627960, Note_off_c, 2, 64, 0
2, 9627960, Note_on_c, 2, 64, 50
2, 9628200, Note_off_c, 2, 64, 0
2, 9628200, Note_on_c, 2, 67, 50
2, 9628440, Note_off_c, 2, 67, 0
2, 9628440, Note_on_c, 2, 67, 50
2, 9628680, Note_off_c, 2, 67, 0
2, 9628680, Note_on_c, 2, 67, 50
2, 9628920, Note_off_c, 2, 67, 0
2, 9628920, Note_on_c, 2, 67, 50
2, 9629160, Note_off_c, 2, 67, 0
2, 9629160, Note_on_c, 2, 67, 50
2, 9629400, Note_off_c, 2, 67, 0
2, 9629400, Note_on_c, 2, 67, 50
2, 9629640, Note_off_c, 2, 67, 0
2, 9629640, Note_on_c, 2, 67, 50
2, 9629880, Note_off_c, 2, 67, 0
2, 9629880, Note_on_c, 2, 67, 50
2, 9630120, Note_off_c, 2, 67, 0
2, 9630120, Note_on_c, 2, 69, 50
2, 9630360, Note_off_c, 2, 69, 0
2, 9630360, Note_on_c, 2, 69, 50
2, 9630600, Note_off_c, 2, 69, 0
2, 9630600, Note_on_c, 2, 69, 50
2, 9630840, Note_off_c, 2, 69, 0
2, 9630840, Note_on_c, 2, 69, 50
2, 9631080, Note_off_c, 2, 69, 0
2, 9631080, Note_on_c, 2, 69, 50
2, 9631320, Note_off_c, 2, 69, 0
2, 9631320, Note_on_c, 2, 69, 50
2, 9631560, Note_off_c, 2, 69, 0
2, 9631560, Note_on_c, 2, 69, 50
2, 9631800, Note_off_c, 2, 69, 0
2, 9631800, Note_on_c, 2, 69, 50
2, 9632040, Note_off_c, 2, 69, 0
2, 9632760, Note_on_c, 2, 65, 50
2, 9633240, Note_off_c, 2, 65, 0
2, 9633240, Note_on_c, 2, 65, 50
2, 9633720, Note_off_c, 2, 65, 0
2, 9633720, Note_on_c, 2, 65, 50
2, 9633960, Note_off_c, 2, 65, 0
2, 9633960, Note_on_c, 2, 66, 50
2, 9634200, Note_off_c, 2, 66, 0
2, 9634200, Note_on_c, 2, 66, 50
2, 9634440, Note_off_c, 2, 66, 0
2, 9634440, Note_on_c, 2, 66, 50
2, 9634680, Note_off_c, 2, 66, 0
2, 9634680, Note_on_c, 2, 66, 50
2, 9634920, Note_off_c, 2, 66, 0
2, 9634920, Note_on_c, 2, 66, 50
2, 9635160, Note_off_c, 2, 66, 0
2, 9635160, Note_on_c, 2, 66, 50
2, 9635400, Note_off_c, 2, 66, 0
2, 9635400, Note_on_c, 2, 66, 50
2, 9635640, Note_off_c, 2, 66, 0
2, 9635640, Note_on_c, 2, 66, 50
2, 9635880, Note_off_c, 2, 66, 0
2, 9635880, Note_on_c, 2, 65, 50
2, 9636600, Note_off_c, 2, 65, 0
2, 9636600, Note_on_c, 2, 65, 50
2, 9637080, Note_off_c, 2, 65, 0
2, 9637080, Note_on_c, 2, 65, 50
2, 9637560, Note_off_c, 2, 65, 0
2, 9637560, Note_on_c, 2, 65, 50
2, 9637800, Note_off_c, 2, 65, 0
2, 9637800, Note_on_c, 2, 66, 50
2, 9638040, Note_off_c, 2, 66, 0
2, 9638040, Note_on_c, 2, 66, 50
2, 9638280, Note_off_c, 2, 66, 0
2, 9638280, Note_on_c, 2, 66, 50
2, 9638520, Note_off_c, 2, 66, 0
2, 9638520, Note_on_c, 2, 66, 50
2, 9638760, Note_off_c, 2, 66, 0
2, 9638760, Note_on_c, 2, 66, 50
2, 9639000, Note_off_c, 2, 66, 0
2, 9639000, Note_on_c, 2, 66, 50
2, 9639240, Note_off_c, 2, 66, 0
2, 9639240, Note_on_c, 2, 66, 50
2, 9639480, Note_off_c, 2, 66, 0
2, 9639480, Note_on_c, 2, 66, 50
2, 9639720, Note_off_c, 2, 66, 0
2, 9639720, Note_on_c, 2, 64, 50
2, 9639960, Note_off_c, 2, 64, 0
2, 9639960, Note_on_c, 2, 64, 50
2, 9640200, Note_off_c, 2, 64, 0
2, 9640200, Note_on_c, 2, 64, 50
2, 9640440, Note_off_c, 2, 64, 0
2, 9640440, Note_on_c, 2, 64, 50
2, 9640680, Note_off_c, 2, 64, 0
2, 9640680, Note_on_c, 2, 64, 50
2, 9640920, Note_off_c, 2, 64, 0
2, 9640920, Note_on_c, 2, 64, 50
2, 9641160, Note_off_c, 2, 64, 0
2, 9641160, Note_on_c, 2, 64, 50
2, 9641400, Note_off_c, 2, 64, 0
2, 9641400, Note_on_c, 2, 64, 50
2, 9641640, Note_off_c, 2, 64, 0
2, 9641640, Note_on_c, 2, 64, 50
2, 9641880, Note_off_c, 2, 64, 0
2, 9641880, Note_on_c, 2, 64, 50
2, 9642120, Note_off_c, 2, 64, 0
2, 9642120, Note_on_c, 2, 64, 50
2, 9642360, Note_off_c, 2, 64, 0
2, 9642360, Note_on_c, 2, 64, 50
2, 9642600, Note_off_c, 2, 64, 0
2, 9642600, Note_on_c, 2, 64, 50
2, 9642840, Note_off_c, 2, 64, 0
2, 9642840, Note_on_c, 2, 64, 50
2, 9643080, Note_off_c, 2, 64, 0
2, 9643080, Note_on_c, 2, 64, 50
2, 9643320, Note_off_c, 2, 64, 0
2, 9643320, Note_on_c, 2, 64, 50
2, 9643560, Note_off_c, 2, 64, 0
2, 9643560, Note_on_c, 2, 64, 50
2, 9643800, Note_off_c, 2, 64, 0
2, 9643800, Note_on_c, 2, 64, 50
2, 9644040, Note_off_c, 2, 64, 0
2, 9644040, Note_on_c, 2, 58, 50
2, 9644520, Note_off_c, 2, 58, 0
2, 9644520, Note_on_c, 2, 64, 50
2, 9644760, Note_off_c, 2, 64, 0
2, 9644760, Note_on_c, 2, 64, 50
2, 9645000, Note_off_c, 2, 64, 0
2, 9645240, Note_on_c, 2, 64, 50
2, 9645480, Note_off_c, 2, 64, 0
2, 9645480, Note_on_c, 2, 65, 50
2, 9646200, Note_off_c, 2, 65, 0
2, 9646200, Note_on_c, 2, 65, 50
2, 9646680, Note_off_c, 2, 65, 0
2, 9646680, Note_on_c, 2, 65, 50
2, 9647160, Note_off_c, 2, 65, 0
2, 9647160, Note_on_c, 2, 65, 50
2, 9647400, Note_off_c, 2, 65, 0
2, 9647400, Note_on_c, 2, 64, 50
2, 9647640, Note_off_c, 2, 64, 0
2, 9647640, Note_on_c, 2, 61, 50
2, 9647880, Note_off_c, 2, 61, 0
2, 9647880, Note_on_c, 2, 66, 50
2, 9648000, Note_off_c, 2, 66, 0
2, 9648000, Note_on_c, 2, 61, 50
2, 9648240, Note_off_c, 2, 61, 0
2, 9648240, Note_on_c, 2, 64, 50
2, 9648480, Note_off_c, 2, 64, 0
2, 9648480, Note_on_c, 2, 57, 50
2, 9648600, Note_off_c, 2, 57, 0
2, 9648600, Note_on_c, 2, 61, 50
2, 9648840, Note_off_c, 2, 61, 0
2, 9648840, Note_on_c, 2, 66, 50
2, 9648960, Note_off_c, 2, 66, 0
2, 9648960, Note_on_c, 2, 61, 50
2, 9649200, Note_off_c, 2, 61, 0
2, 9649200, Note_on_c, 2, 64, 50
2, 9649440, Note_off_c, 2, 64, 0
2, 9649440, Note_on_c, 2, 57, 50
2, 9649560, Note_off_c, 2, 57, 0
2, 9649560, Note_on_c, 2, 61, 50
2, 9649800, Note_off_c, 2, 61, 0
2, 9649800, Note_on_c, 2, 66, 50
2, 9649920, Note_off_c, 2, 66, 0
2, 9649920, Note_on_c, 2, 61, 50
2, 9650160, Note_off_c, 2, 61, 0
2, 9650160, Note_on_c, 2, 64, 50
2, 9650400, Note_off_c, 2, 64, 0
2, 9650400, Note_on_c, 2, 57, 50
2, 9650520, Note_off_c, 2, 57, 0
2, 9650520, Note_on_c, 2, 61, 50
2, 9650760, Note_off_c, 2, 61, 0
2, 9650760, Note_on_c, 2, 68, 50
2, 9650880, Note_off_c, 2, 68, 0
2, 9650880, Note_on_c, 2, 63, 50
2, 9651120, Note_off_c, 2, 63, 0
2, 9651120, Note_on_c, 2, 64, 50
2, 9651360, Note_off_c, 2, 64, 0
2, 9651360, Note_on_c, 2, 52, 50
2, 9651480, Note_off_c, 2, 52, 0
2, 9651480, Note_on_c, 2, 56, 50
2, 9651720, Note_off_c, 2, 56, 0
2, 9651720, Note_on_c, 2, 61, 50
2, 9651840, Note_off_c, 2, 61, 0
2, 9651840, Note_on_c, 2, 56, 50
2, 9653040, Note_off_c, 2, 56, 0
2, 9654960, Note_on_c, 2, 64, 50
2, 9655200, Note_off_c, 2, 64, 0
2, 9655200, Note_on_c, 2, 57, 50
2, 9655320, Note_off_c, 2, 57, 0
2, 9655320, Note_on_c, 2, 61, 50
2, 9655560, Note_off_c, 2, 61, 0
2, 9655560, Note_on_c, 2, 66, 50
2, 9655680, Note_off_c, 2, 66, 0
2, 9655680, Note_on_c, 2, 61, 50
2, 9655920, Note_off_c, 2, 61, 0
2, 9655920, Note_on_c, 2, 64, 50
2, 9656160, Note_off_c, 2, 64, 0
2, 9656160, Note_on_c, 2, 57, 50
2, 9656280, Note_off_c, 2, 57, 0
2, 9656280, Note_on_c, 2, 61, 50
2, 9656520, Note_off_c, 2, 61, 0
2, 9656520, Note_on_c, 2, 66, 50
2, 9656640, Note_off_c, 2, 66, 0
2, 9656640, Note_on_c, 2, 61, 50
2, 9656880, Note_off_c, 2, 61, 0
2, 9656880, Note_on_c, 2, 64, 50
2, 9657120, Note_off_c, 2, 64, 0
2, 9657120, Note_on_c, 2, 57, 50
2, 9657240, Note_off_c, 2, 57, 0
2, 9657240, Note_on_c, 2, 61, 50
2, 9657480, Note_off_c, 2, 61, 0
2, 9657480, Note_on_c, 2, 66, 50
2, 9657600, Note_off_c, 2, 66, 0
2, 9657600, Note_on_c, 2, 61, 50
2, 9657840, Note_off_c, 2, 61, 0
2, 9657840, Note_on_c, 2, 64, 50
2, 9658080, Note_off_c, 2, 64, 0
2, 9658080, Note_on_c, 2, 57, 50
2, 9658200, Note_off_c, 2, 57, 0
2, 9658200, Note_on_c, 2, 61, 50
2, 9658440, Note_off_c, 2, 61, 0
2, 9658440, Note_on_c, 2, 68, 50
2, 9658560, Note_off_c, 2, 68, 0
2, 9658560, Note_on_c, 2, 63, 50
2, 9658800, Note_off_c, 2, 63, 0
2, 9658800, Note_on_c, 2, 64, 50
2, 9659040, Note_off_c, 2, 64, 0
2, 9659040, Note_on_c, 2, 52, 50
2, 9659160, Note_off_c, 2, 52, 0
2, 9659160, Note_on_c, 2, 56, 50
2, 9659400, Note_off_c, 2, 56, 0
2, 9659400, Note_on_c, 2, 61, 50
2, 9659520, Note_off_c, 2, 61, 0
2, 9659520, Note_on_c, 2, 56, 50
2, 9660720, Note_off_c, 2, 56, 0
2, 9662640, Note_on_c, 2, 66, 50
2, 9663000, Note_off_c, 2, 66, 0
2, 9663000, Note_on_c, 2, 66, 50
2, 9663240, Note_off_c, 2, 66, 0
2, 9663240, Note_on_c, 2, 66, 50
2, 9663600, Note_off_c, 2, 66, 0
2, 9663600, Note_on_c, 2, 66, 50
2, 9665520, Note_off_c, 2, 66, 0
2, 9665520, Note_on_c, 2, 66, 50
2, 9665880, Note_off_c, 2, 66, 0
2, 9665880, Note_on_c, 2, 67, 50
2, 9666120, Note_off_c, 2, 67, 0
2, 9666120, Note_on_c, 2, 68, 50
2, 9666480, Note_off_c, 2, 68, 0
2, 9666480, Note_on_c, 2, 64, 50
2, 9668400, Note_off_c, 2, 64, 0
2, 9668400, Note_on_c, 2, 71, 50
2, 9670320, Note_off_c, 2, 71, 0
2, 9678000, Note_on_c, 2, 59, 50
2, 9678240, Note_off_c, 2, 59, 0
2, 9678240, Note_on_c, 2, 76, 50
2, 9678720, Note_off_c, 2, 76, 0
2, 9678720, Note_on_c, 2, 73, 50
2, 9679200, Note_off_c, 2, 73, 0
2, 9679200, Note_on_c, 2, 71, 50
2, 9679680, Note_off_c, 2, 71, 0
2, 9679680, Note_on_c, 2, 69, 50
2, 9680160, Note_off_c, 2, 69, 0
2, 9680160, Note_on_c, 2, 68, 50
2, 9680640, Note_off_c, 2, 68, 0
2, 9680640, Note_on_c, 2, 68, 50
2, 9681360, Note_off_c, 2, 68, 0
2, 9681840, Note_on_c, 2, 61, 50
2, 9682080, Note_off_c, 2, 61, 0
2, 9682080, Note_on_c, 2, 59, 50
2, 9682560, Note_off_c, 2, 59, 0
2, 9682560, Note_on_c, 2, 64, 50
2, 9683280, Note_off_c, 2, 64, 0
2, 9683280, Note_on_c, 2, 68, 50
2, 9683520, Note_off_c, 2, 68, 0
2, 9683520, Note_on_c, 2, 68, 50
2, 9684720, Note_off_c, 2, 68, 0
2, 9685680, Note_on_c, 2, 59, 50
2, 9685920, Note_off_c, 2, 59, 0
2, 9685920, Note_on_c, 2, 76, 50
2, 9686400, Note_off_c, 2, 76, 0
2, 9686400, Note_on_c, 2, 73, 50
2, 9686880, Note_off_c, 2, 73, 0
2, 9686880, Note_on_c, 2, 71, 50
2, 9687360, Note_off_c, 2, 71, 0
2, 9687360, Note_on_c, 2, 69, 50
2, 9687840, Note_off_c, 2, 69, 0
2, 9687840, Note_on_c, 2, 68, 50
2, 9688320, Note_off_c, 2, 68, 0
2, 9688320, Note_on_c, 2, 68, 50
2, 9689040, Note_off_c, 2, 68, 0
2, 9689520, Note_on_c, 2, 66, 50
2, 9689760, Note_off_c, 2, 66, 0
2, 9689760, Note_on_c, 2, 64, 50
2, 9690240, Note_off_c, 2, 64, 0
2, 9690240, Note_on_c, 2, 67, 50
2, 9690480, Note_off_c, 2, 67, 0
2, 9690480, Note_on_c, 2, 66, 50
2, 9690720, Note_off_c, 2, 66, 0
2, 9690720, Note_on_c, 2, 64, 50
2, 9691200, Note_off_c, 2, 64, 0
2, 9691200, Note_on_c, 2, 64, 50
2, 9692400, Note_off_c, 2, 64, 0
2, 9693360, Note_on_c, 2, 66, 50
2, 9693600, Note_off_c, 2, 66, 0
2, 9693600, Note_on_c, 2, 64, 50
2, 9694080, Note_off_c, 2, 64, 0
2, 9694080, Note_on_c, 2, 61, 50
2, 9694560, Note_off_c, 2, 61, 0
2, 9694560, Note_on_c, 2, 57, 50
2, 9695040, Note_off_c, 2, 57, 0
2, 9695040, Note_on_c, 2, 59, 50
2, 9696000, Note_off_c, 2, 59, 0
2, 9696000, Note_on_c, 2, 59, 50
2, 9696720, Note_off_c, 2, 59, 0
2, 9697200, Note_on_c, 2, 66, 50
2, 9697440, Note_off_c, 2, 66, 0
2, 9697440, Note_on_c, 2, 64, 50
2, 9697920, Note_off_c, 2, 64, 0
2, 9697920, Note_on_c, 2, 68, 50
2, 9698400, Note_off_c, 2, 68, 0
2, 9698400, Note_on_c, 2, 64, 50
2, 9698880, Note_off_c, 2, 64, 0
2, 9698880, Note_on_c, 2, 64, 50
2, 9700080, Note_off_c, 2, 64, 0
2, 9701040, Note_on_c, 2, 66, 50
2, 9701280, Note_off_c, 2, 66, 0
2, 9701280, Note_on_c, 2, 64, 50
2, 9701760, Note_off_c, 2, 64, 0
2, 9701760, Note_on_c, 2, 61, 50
2, 9702240, Note_off_c, 2, 61, 0
2, 9702240, Note_on_c, 2, 57, 50
2, 9702720, Note_off_c, 2, 57, 0
2, 9702720, Note_on_c, 2, 59, 50
2, 9703680, Note_off_c, 2, 59, 0
2, 9703680, Note_on_c, 2, 59, 50
2, 9704400, Note_off_c, 2, 59, 0
2, 9704880, Note_on_c, 2, 66, 50
2, 9705120, Note_off_c, 2, 66, 0
2, 9705120, Note_on_c, 2, 64, 50
2, 9705600, Note_off_c, 2, 64, 0
2, 9705600, Note_on_c, 2, 68, 50
2, 9706080, Note_off_c, 2, 68, 0
2, 9706080, Note_on_c, 2, 64, 50
2, 9706560, Note_off_c, 2, 64, 0
2, 9706560, Note_on_c, 2, 64, 50
2, 9707760, Note_off_c, 2, 64, 0
2, 9708720, Note_on_c, 2, 59, 50
2, 9708960, Note_off_c, 2, 59, 0
2, 9708960, Note_on_c, 2, 76, 50
2, 9709440, Note_off_c, 2, 76, 0
2, 9709440, Note_on_c, 2, 73, 50
2, 9709920, Note_off_c, 2, 73, 0
2, 9709920, Note_on_c, 2, 71, 50
2, 9710400, Note_off_c, 2, 71, 0
2, 9710400, Note_on_c, 2, 69, 50
2, 9710880, Note_off_c, 2, 69, 0
2, 9710880, Note_on_c, 2, 68, 50
2, 9711360, Note_off_c, 2, 68, 0
2, 9711360, Note_on_c, 2, 68, 50
2, 9712080, Note_off_c, 2, 68, 0
2, 9712560, Note_on_c, 2, 61, 50
2, 9712800, Note_off_c, 2, 61, 0
2, 9712800, Note_on_c, 2, 59, 50
2, 9713280, Note_off_c, 2, 59, 0
2, 9713280, Note_on_c, 2, 64, 50
2, 9714000, Note_off_c, 2, 64, 0
2, 9714000, Note_on_c, 2, 68, 50
2, 9714240, Note_off_c, 2, 68, 0
2, 9714240, Note_on_c, 2, 68, 50
2, 9715440, Note_off_c, 2, 68, 0
2, 9716400, Note_on_c, 2, 59, 50
2, 9716640, Note_off_c, 2, 59, 0
2, 9716640, Note_on_c, 2, 76, 50
2, 9717120, Note_off_c, 2, 76, 0
2, 9717120, Note_on_c, 2, 73, 50
2, 9717600, Note_off_c, 2, 73, 0
2, 9717600, Note_on_c, 2, 71, 50
2, 9718080, Note_off_c, 2, 71, 0
2, 9718080, Note_on_c, 2, 69, 50
2, 9718560, Note_off_c, 2, 69, 0
2, 9718560, Note_on_c, 2, 68, 50
2, 9719040, Note_off_c, 2, 68, 0
2, 9719040, Note_on_c, 2, 68, 50
2, 9719760, Note_off_c, 2, 68, 0
2, 9720240, Note_on_c, 2, 66, 50
2, 9720480, Note_off_c, 2, 66, 0
2, 9720480, Note_on_c, 2, 64, 50
2, 9720960, Note_off_c, 2, 64, 0
2, 9720960, Note_on_c, 2, 67, 50
2, 9721200, Note_off_c, 2, 67, 0
2, 9721200, Note_on_c, 2, 66, 50
2, 9721440, Note_off_c, 2, 66, 0
2, 9721440, Note_on_c, 2, 64, 50
2, 9721920, Note_off_c, 2, 64, 0
2, 9721920, Note_on_c, 2, 64, 50
2, 9723120, Note_off_c, 2, 64, 0
2, 9724080, Note_on_c, 2, 66, 50
2, 9724320, Note_off_c, 2, 66, 0
2, 9724320, Note_on_c, 2, 64, 50
2, 9724800, Note_off_c, 2, 64, 0
2, 9724800, Note_on_c, 2, 61, 50
2, 9725280, Note_off_c, 2, 61, 0
2, 9725280, Note_on_c, 2, 57, 50
2, 9725760, Note_off_c, 2, 57, 0
2, 9725760, Note_on_c, 2, 59, 50
2, 9726720, Note_off_c, 2, 59, 0
2, 9726720, Note_on_c, 2, 59, 50
2, 9727440, Note_off_c, 2, 59, 0
2, 9727920, Note_on_c, 2, 66, 50
2, 9728160, Note_off_c, 2, 66, 0
2, 9728160, Note_on_c, 2, 64, 50
2, 9728640, Note_off_c, 2, 64, 0
2, 9728640, Note_on_c, 2, 68, 50
2, 9729120, Note_off_c, 2, 68, 0
2, 9729120, Note_on_c, 2, 64, 50
2, 9729600, Note_off_c, 2, 64, 0
2, 9729600, Note_on_c, 2, 64, 50
2, 9730800, Note_off_c, 2, 64, 0
2, 9731760, Note_on_c, 2, 66, 50
2, 9732000, Note_off_c, 2, 66, 0
2, 9732000, Note_on_c, 2, 64, 50
2, 9732480, Note_off_c, 2, 64, 0
2, 9732480, Note_on_c, 2, 61, 50
2, 9732960, Note_off_c, 2, 61, 0
2, 9732960, Note_on_c, 2, 57, 50
2, 9733440, Note_off_c, 2, 57, 0
2, 9733440, Note_on_c, 2, 59, 50
2, 9734400, Note_off_c, 2, 59, 0
2, 9734400, Note_on_c, 2, 59, 50
2, 9735120, Note_off_c, 2, 59, 0
2, 9735600, Note_on_c, 2, 66, 50
2, 9735840, Note_off_c, 2, 66, 0
2, 9735840, Note_on_c, 2, 64, 50
2, 9736320, Note_off_c, 2, 64, 0
2, 9736320, Note_on_c, 2, 68, 50
2, 9736800, Note_off_c, 2, 68, 0
2, 9736800, Note_on_c, 2, 64, 50
2, 9737280, Note_off_c, 2, 64, 0
2, 9737280, Note_on_c, 2, 64, 50
2, 9738480, Note_off_c, 2, 64, 0
2, 9739440, Note_on_c, 2, 75, 50
2, 9740400, Note_off_c, 2, 75, 0
2, 9740400, Note_on_c, 2, 75, 50
2, 9741360, Note_off_c, 2, 75, 0
2, 9741360, Note_on_c, 2, 75, 50
2, 9742320, Note_off_c, 2, 75, 0
2, 9742320, Note_on_c, 2, 75, 50
2, 9743280, Note_off_c, 2, 75, 0
2, 9743280, Note_on_c, 2, 75, 50
2, 9743520, Note_off_c, 2, 75, 0
2, 9743520, Note_on_c, 2, 73, 50
2, 9744240, Note_off_c, 2, 73, 0
2, 9754800, Note_on_c, 2, 59, 50
2, 9755040, Note_off_c, 2, 59, 0
2, 9755040, Note_on_c, 2, 76, 50
2, 9755520, Note_off_c, 2, 76, 0
2, 9755520, Note_on_c, 2, 73, 50
2, 9756000, Note_off_c, 2, 73, 0
2, 9756000, Note_on_c, 2, 71, 50
2, 9756480, Note_off_c, 2, 71, 0
2, 9756480, Note_on_c, 2, 69, 50
2, 9756960, Note_off_c, 2, 69, 0
2, 9756960, Note_on_c, 2, 68, 50
2, 9757440, Note_off_c, 2, 68, 0
2, 9757440, Note_on_c, 2, 68, 50
2, 9758160, Note_off_c, 2, 68, 0
2, 9758640, Note_on_c, 2, 61, 50
2, 9758880, Note_off_c, 2, 61, 0
2, 9758880, Note_on_c, 2, 59, 50
2, 9759360, Note_off_c, 2, 59, 0
2, 9759360, Note_on_c, 2, 64, 50
2, 9760080, Note_off_c, 2, 64, 0
2, 9760080, Note_on_c, 2, 68, 50
2, 9760320, Note_off_c, 2, 68, 0
2, 9760320, Note_on_c, 2, 68, 50
2, 9761520, Note_off_c, 2, 68, 0
2, 9762480, Note_on_c, 2, 59, 50
2, 9762720, Note_off_c, 2, 59, 0
2, 9762720, Note_on_c, 2, 76, 50
2, 9763200, Note_off_c, 2, 76, 0
2, 9763200, Note_on_c, 2, 73, 50
2, 9763680, Note_off_c, 2, 73, 0
2, 9763680, Note_on_c, 2, 71, 50
2, 9764160, Note_off_c, 2, 71, 0
2, 9764160, Note_on_c, 2, 69, 50
2, 9764640, Note_off_c, 2, 69, 0
2, 9764640, Note_on_c, 2, 68, 50
2, 9765120, Note_off_c, 2, 68, 0
2, 9765120, Note_on_c, 2, 68, 50
2, 9765840, Note_off_c, 2, 68, 0
2, 9766320, Note_on_c, 2, 66, 50
2, 9766560, Note_off_c, 2, 66, 0
2, 9766560, Note_on_c, 2, 64, 50
2, 9767040, Note_off_c, 2, 64, 0
2, 9767040, Note_on_c, 2, 67, 50
2, 9767280, Note_off_c, 2, 67, 0
2, 9767280, Note_on_c, 2, 66, 50
2, 9767520, Note_off_c, 2, 66, 0
2, 9767520, Note_on_c, 2, 64, 50
2, 9768000, Note_off_c, 2, 64, 0
2, 9768000, Note_on_c, 2, 64, 50
2, 9769200, Note_off_c, 2, 64, 0
2, 9770160, Note_on_c, 2, 66, 50
2, 9770400, Note_off_c, 2, 66, 0
2, 9770400, Note_on_c, 2, 64, 50
2, 9770880, Note_off_c, 2, 64, 0
2, 9770880, Note_on_c, 2, 61, 50
2, 9771360, Note_off_c, 2, 61, 0
2, 9771360, Note_on_c, 2, 57, 50
2, 9771840, Note_off_c, 2, 57, 0
2, 9771840, Note_on_c, 2, 59, 50
2, 9772800, Note_off_c, 2, 59, 0
2, 9772800, Note_on_c, 2, 59, 50
2, 9773520, Note_off_c, 2, 59, 0
2, 9774000, Note_on_c, 2, 66, 50
2, 9774240, Note_off_c, 2, 66, 0
2, 9774240, Note_on_c, 2, 64, 50
2, 9774720, Note_off_c, 2, 64, 0
2, 9774720, Note_on_c, 2, 68, 50
2, 9775200, Note_off_c, 2, 68, 0
2, 9775200, Note_on_c, 2, 64, 50
2, 9775680, Note_off_c, 2, 64, 0
2, 9775680, Note_on_c, 2, 64, 50
2, 9776880, Note_off_c, 2, 64, 0
2, 9777840, Note_on_c, 2, 66, 50
2, 9778080, Note_off_c, 2, 66, 0
2, 9778080, Note_on_c, 2, 64, 50
2, 9778560, Note_off_c, 2, 64, 0
2, 9778560, Note_on_c, 2, 61, 50
2, 9779040, Note_off_c, 2, 61, 0
2, 9779040, Note_on_c, 2, 57, 50
2, 9779520, Note_off_c, 2, 57, 0
2, 9779520, Note_on_c, 2, 59, 50
2, 9780480, Note_off_c, 2, 59, 0
2, 9780480, Note_on_c, 2, 59, 50
2, 9781200, Note_off_c, 2, 59, 0
2, 9781680, Note_on_c, 2, 66, 50
2, 9781920, Note_off_c, 2, 66, 0
2, 9781920, Note_on_c, 2, 64, 50
2, 9782400, Note_off_c, 2, 64, 0
2, 9782400, Note_on_c, 2, 68, 50
2, 9782880, Note_off_c, 2, 68, 0
2, 9782880, Note_on_c, 2, 64, 50
2, 9783360, Note_off_c, 2, 64, 0
2, 9783360, Note_on_c, 2, 64, 50
2, 9784560, Note_off_c, 2, 64, 0
2, 9785520, Note_on_c, 2, 75, 50
2, 9786480, Note_off_c, 2, 75, 0
2, 9786480, Note_on_c, 2, 75, 50
2, 9787440, Note_off_c, 2, 75, 0
2, 9787440, Note_on_c, 2, 75, 50
2, 9788400, Note_off_c, 2, 75, 0
2, 9788400, Note_on_c, 2, 75, 50
2, 9789360, Note_off_c, 2, 75, 0
2, 9789360, Note_on_c, 2, 75, 50
2, 9789600, Note_off_c, 2, 75, 0
2, 9789600, Note_on_c, 2, 73, 50
2, 9790320, Note_off_c, 2, 73, 0
2, 9800880, Note_on_c, 2, 59, 50
2, 9801120, Note_off_c, 2, 59, 0
2, 9801120, Note_on_c, 2, 76, 50
2, 9801600, Note_off_c, 2, 76, 0
2, 9801600, Note_on_c, 2, 73, 50
2, 9802080, Note_off_c, 2, 73, 0
2, 9802080, Note_on_c, 2, 71, 50
2, 9802560, Note_off_c, 2, 71, 0
2, 9802560, Note_on_c, 2, 69, 50
2, 9803040, Note_off_c, 2, 69, 0
2, 9803040, Note_on_c, 2, 68, 50
2, 9803520, Note_off_c, 2, 68, 0
2, 9803520, Note_on_c, 2, 68, 50
2, 9804240, Note_off_c, 2, 68, 0
2, 9804720, Note_on_c, 2, 61, 50
2, 9804960, Note_off_c, 2, 61, 0
2, 9804960, Note_on_c, 2, 59, 50
2, 9805440, Note_off_c, 2, 59, 0
2, 9805440, Note_on_c, 2, 64, 50
2, 9806160, Note_off_c, 2, 64, 0
2, 9806160, Note_on_c, 2, 68, 50
2, 9806400, Note_off_c, 2, 68, 0
2, 9806400, Note_on_c, 2, 68, 50
2, 9807600, Note_off_c, 2, 68, 0
2, 9808560, Note_on_c, 2, 59, 50
2, 9808800, Note_off_c, 2, 59, 0
2, 9808800, Note_on_c, 2, 76, 50
2, 9809280, Note_off_c, 2, 76, 0
2, 9809280, Note_on_c, 2, 73, 50
2, 9809760, Note_off_c, 2, 73, 0
2, 9809760, Note_on_c, 2, 71, 50
2, 9810240, Note_off_c, 2, 71, 0
2, 9810240, Note_on_c, 2, 69, 50
2, 9810720, Note_off_c, 2, 69, 0
2, 9810720, Note_on_c, 2, 68, 50
2, 9811200, Note_off_c, 2, 68, 0
2, 9811200, Note_on_c, 2, 68, 50
2, 9811920, Note_off_c, 2, 68, 0
2, 9812400, Note_on_c, 2, 66, 50
2, 9812640, Note_off_c, 2, 66, 0
2, 9812640, Note_on_c, 2, 64, 50
2, 9813120, Note_off_c, 2, 64, 0
2, 9813120, Note_on_c, 2, 67, 50
2, 9813360, Note_off_c, 2, 67, 0
2, 9813360, Note_on_c, 2, 66, 50
2, 9813600, Note_off_c, 2, 66, 0
2, 9813600, Note_on_c, 2, 64, 50
2, 9814080, Note_off_c, 2, 64, 0
2, 9814080, Note_on_c, 2, 64, 50
2, 9815280, Note_off_c, 2, 64, 0
2, 9816240, Note_on_c, 2, 66, 50
2, 9816480, Note_off_c, 2, 66, 0
2, 9816480, Note_on_c, 2, 64, 50
2, 9816960, Note_off_c, 2, 64, 0
2, 9816960, Note_on_c, 2, 61, 50
2, 9817440, Note_off_c, 2, 61, 0
2, 9817440, Note_on_c, 2, 57, 50
2, 9817920, Note_off_c, 2, 57, 0
2, 9817920, Note_on_c, 2, 59, 50
2, 9818880, Note_off_c, 2, 59, 0
2, 9818880, Note_on_c, 2, 59, 50
2, 9819600, Note_off_c, 2, 59, 0
2, 9820080, Note_on_c, 2, 66, 50
2, 9820320, Note_off_c, 2, 66, 0
2, 9820320, Note_on_c, 2, 64, 50
2, 9820800, Note_off_c, 2, 64, 0
2, 9820800, Note_on_c, 2, 68, 50
2, 9821280, Note_off_c, 2, 68, 0
2, 9821280, Note_on_c, 2, 64, 50
2, 9821760, Note_off_c, 2, 64, 0
2, 9821760, Note_on_c, 2, 64, 50
2, 9822960, Note_off_c, 2, 64, 0
2, 9823920, Note_on_c, 2, 66, 50
2, 9824160, Note_off_c, 2, 66, 0
2, 9824160, Note_on_c, 2, 64, 50
2, 9824640, Note_off_c, 2, 64, 0
2, 9824640, Note_on_c, 2, 61, 50
2, 9825120, Note_off_c, 2, 61, 0
2, 9825120, Note_on_c, 2, 57, 50
2, 9825600, Note_off_c, 2, 57, 0
2, 9825600, Note_on_c, 2, 59, 50
2, 9826560, Note_off_c, 2, 59, 0
2, 9826560, Note_on_c, 2, 59, 50
2, 9827280, Note_off_c, 2, 59, 0
2, 9827760, Note_on_c, 2, 66, 50
2, 9828000, Note_off_c, 2, 66, 0
2, 9828000, Note_on_c, 2, 64, 50
2, 9828480, Note_off_c, 2, 64, 0
2, 9828480, Note_on_c, 2, 68, 50
2, 9828960, Note_off_c, 2, 68, 0
2, 9828960, Note_on_c, 2, 64, 50
2, 9829440, Note_off_c, 2, 64, 0
2, 9829440, Note_on_c, 2, 64, 50
2, 9830640, Note_off_c, 2, 64, 0
2, 9831600, Note_on_c, 2, 75, 50
2, 9832560, Note_off_c, 2, 75, 0
2, 9832560, Note_on_c, 2, 75, 50
2, 9833520, Note_off_c, 2, 75, 0
2, 9833520, Note_on_c, 2, 75, 50
2, 9834480, Note_off_c, 2, 75, 0
2, 9834480, Note_on_c, 2, 75, 50
2, 9835440, Note_off_c, 2, 75, 0
2, 9835440, Note_on_c, 2, 73, 50
2, 9837360, Note_off_c, 2, 73, 0
2, 9843120, Note_on_c, 2, 50, 50
2, 9843360, Note_off_c, 2, 50, 0
2, 9843360, Note_on_c, 2, 50, 50
2, 9843600, Note_off_c, 2, 50, 0
2, 9843600, Note_on_c, 2, 52, 50
2, 9843840, Note_off_c, 2, 52, 0
2, 9843840, Note_on_c, 2, 52, 50
2, 9844080, Note_off_c, 2, 52, 0
2, 9844080, Note_on_c, 2, 50, 50
2, 9844320, Note_off_c, 2, 50, 0
2, 9844320, Note_on_c, 2, 50, 50
2, 9844560, Note_off_c, 2, 50, 0
2, 9844560, Note_on_c, 2, 52, 50
2, 9844800, Note_off_c, 2, 52, 0
2, 9844800, Note_on_c, 2, 52, 50
2, 9845040, Note_off_c, 2, 52, 0
2, 9845040, Note_on_c, 2, 48, 50
2, 9845280, Note_off_c, 2, 48, 0
2, 9845280, Note_on_c, 2, 48, 50
2, 9845520, Note_off_c, 2, 48, 0
2, 9845520, Note_on_c, 2, 50, 50
2, 9845760, Note_off_c, 2, 50, 0
2, 9846000, Note_on_c, 2, 48, 50
2, 9846240, Note_off_c, 2, 48, 0
2, 9846240, Note_on_c, 2, 48, 50
2, 9846480, Note_off_c, 2, 48, 0
2, 9846480, Note_on_c, 2, 50, 50
2, 9846720, Note_off_c, 2, 50, 0
2, 9846720, Note_on_c, 2, 50, 50
2, 9846960, Note_off_c, 2, 50, 0
2, 9846960, Note_on_c, 2, 50, 50
2, 9847200, Note_off_c, 2, 50, 0
2, 9847200, Note_on_c, 2, 50, 50
2, 9847440, Note_off_c, 2, 50, 0
2, 9847440, Note_on_c, 2, 52, 50
2, 9847680, Note_off_c, 2, 52, 0
2, 9847680, Note_on_c, 2, 52, 50
2, 9847920, Note_off_c, 2, 52, 0
2, 9847920, Note_on_c, 2, 50, 50
2, 9848160, Note_off_c, 2, 50, 0
2, 9848160, Note_on_c, 2, 50, 50
2, 9848400, Note_off_c, 2, 50, 0
2, 9848400, Note_on_c, 2, 52, 50
2, 9848640, Note_off_c, 2, 52, 0
2, 9848640, Note_on_c, 2, 52, 50
2, 9848880, Note_off_c, 2, 52, 0
2, 9848880, Note_on_c, 2, 48, 50
2, 9849120, Note_off_c, 2, 48, 0
2, 9849120, Note_on_c, 2, 48, 50
2, 9849360, Note_off_c, 2, 48, 0
2, 9849360, Note_on_c, 2, 50, 50
2, 9849600, Note_off_c, 2, 50, 0
2, 9849840, Note_on_c, 2, 48, 50
2, 9850080, Note_off_c, 2, 48, 0
2, 9850080, Note_on_c, 2, 48, 50
2, 9850320, Note_off_c, 2, 48, 0
2, 9850320, Note_on_c, 2, 50, 50
2, 9850560, Note_off_c, 2, 50, 0
2, 9850560, Note_on_c, 2, 50, 50
2, 9850800, Note_off_c, 2, 50, 0
2, 9850800, Note_on_c, 2, 60, 50
2, 9851040, Note_off_c, 2, 60, 0
2, 9851040, Note_on_c, 2, 60, 50
2, 9851280, Note_off_c, 2, 60, 0
2, 9851280, Note_on_c, 2, 60, 50
2, 9851520, Note_off_c, 2, 60, 0
2, 9851520, Note_on_c, 2, 60, 50
2, 9851760, Note_off_c, 2, 60, 0
2, 9851760, Note_on_c, 2, 65, 50
2, 9852000, Note_off_c, 2, 65, 0
2, 9852000, Note_on_c, 2, 65, 50
2, 9852240, Note_off_c, 2, 65, 0
2, 9852240, Note_on_c, 2, 65, 50
2, 9852480, Note_off_c, 2, 65, 0
2, 9852480, Note_on_c, 2, 65, 50
2, 9852720, Note_off_c, 2, 65, 0
2, 9852720, Note_on_c, 2, 60, 50
2, 9852960, Note_off_c, 2, 60, 0
2, 9852960, Note_on_c, 2, 60, 50
2, 9853200, Note_off_c, 2, 60, 0
2, 9853200, Note_on_c, 2, 60, 50
2, 9853440, Note_off_c, 2, 60, 0
2, 9853440, Note_on_c, 2, 60, 50
2, 9853680, Note_off_c, 2, 60, 0
2, 9853680, Note_on_c, 2, 65, 50
2, 9853920, Note_off_c, 2, 65, 0
2, 9853920, Note_on_c, 2, 65, 50
2, 9854160, Note_off_c, 2, 65, 0
2, 9854160, Note_on_c, 2, 65, 50
2, 9854400, Note_off_c, 2, 65, 0
2, 9854400, Note_on_c, 2, 65, 50
2, 9854640, Note_off_c, 2, 65, 0
2, 9854640, Note_on_c, 2, 60, 50
2, 9854880, Note_off_c, 2, 60, 0
2, 9854880, Note_on_c, 2, 60, 50
2, 9855120, Note_off_c, 2, 60, 0
2, 9855120, Note_on_c, 2, 60, 50
2, 9855360, Note_off_c, 2, 60, 0
2, 9855360, Note_on_c, 2, 60, 50
2, 9855600, Note_off_c, 2, 60, 0
2, 9855600, Note_on_c, 2, 67, 50
2, 9855840, Note_off_c, 2, 67, 0
2, 9855840, Note_on_c, 2, 67, 50
2, 9856080, Note_off_c, 2, 67, 0
2, 9856080, Note_on_c, 2, 67, 50
2, 9856320, Note_off_c, 2, 67, 0
2, 9856320, Note_on_c, 2, 67, 50
2, 9856560, Note_off_c, 2, 67, 0
2, 9856560, Note_on_c, 2, 60, 50
2, 9856800, Note_off_c, 2, 60, 0
2, 9856800, Note_on_c, 2, 60, 50
2, 9857040, Note_off_c, 2, 60, 0
2, 9857040, Note_on_c, 2, 60, 50
2, 9857280, Note_off_c, 2, 60, 0
2, 9857280, Note_on_c, 2, 60, 50
2, 9857520, Note_off_c, 2, 60, 0
2, 9857520, Note_on_c, 2, 65, 50
2, 9857760, Note_off_c, 2, 65, 0
2, 9857760, Note_on_c, 2, 65, 50
2, 9858000, Note_off_c, 2, 65, 0
2, 9858000, Note_on_c, 2, 65, 50
2, 9858240, Note_off_c, 2, 65, 0
2, 9858240, Note_on_c, 2, 65, 50
2, 9858480, Note_off_c, 2, 65, 0
2, 9858480, Note_on_c, 2, 60, 50
2, 9858720, Note_off_c, 2, 60, 0
2, 9858720, Note_on_c, 2, 60, 50
2, 9858960, Note_off_c, 2, 60, 0
2, 9858960, Note_on_c, 2, 60, 50
2, 9859200, Note_off_c, 2, 60, 0
2, 9859200, Note_on_c, 2, 60, 50
2, 9859440, Note_off_c, 2, 60, 0
2, 9859440, Note_on_c, 2, 65, 50
2, 9859680, Note_off_c, 2, 65, 0
2, 9859680, Note_on_c, 2, 65, 50
2, 9859920, Note_off_c, 2, 65, 0
2, 9859920, Note_on_c, 2, 65, 50
2, 9860160, Note_off_c, 2, 65, 0
2, 9860160, Note_on_c, 2, 65, 50
2, 9860400, Note_off_c, 2, 65, 0
2, 9860400, Note_on_c, 2, 60, 50
2, 9860640, Note_off_c, 2, 60, 0
2, 9860640, Note_on_c, 2, 60, 50
2, 9860880, Note_off_c, 2, 60, 0
2, 9860880, Note_on_c, 2, 60, 50
2, 9861120, Note_off_c, 2, 60, 0
2, 9861120, Note_on_c, 2, 60, 50
2, 9861360, Note_off_c, 2, 60, 0
2, 9861360, Note_on_c, 2, 65, 50
2, 9861600, Note_off_c, 2, 65, 0
2, 9861600, Note_on_c, 2, 65, 50
2, 9861840, Note_off_c, 2, 65, 0
2, 9861840, Note_on_c, 2, 65, 50
2, 9862080, Note_off_c, 2, 65, 0
2, 9862080, Note_on_c, 2, 65, 50
2, 9862320, Note_off_c, 2, 65, 0
2, 9862320, Note_on_c, 2, 60, 50
2, 9862560, Note_off_c, 2, 60, 0
2, 9862560, Note_on_c, 2, 60, 50
2, 9862800, Note_off_c, 2, 60, 0
2, 9862800, Note_on_c, 2, 60, 50
2, 9863040, Note_off_c, 2, 60, 0
2, 9863040, Note_on_c, 2, 60, 50
2, 9863280, Note_off_c, 2, 60, 0
2, 9863280, Note_on_c, 2, 67, 50
2, 9863520, Note_off_c, 2, 67, 0
2, 9863520, Note_on_c, 2, 67, 50
2, 9863760, Note_off_c, 2, 67, 0
2, 9863760, Note_on_c, 2, 67, 50
2, 9864000, Note_off_c, 2, 67, 0
2, 9864000, Note_on_c, 2, 67, 50
2, 9864240, Note_off_c, 2, 67, 0
2, 9864240, Note_on_c, 2, 60, 50
2, 9864720, Note_off_c, 2, 60, 0
2, 9864720, Note_on_c, 2, 60, 50
2, 9864960, Note_off_c, 2, 60, 0
2, 9864960, Note_on_c, 2, 60, 50
2, 9865440, Note_off_c, 2, 60, 0
2, 9865440, Note_on_c, 2, 60, 50
2, 9865680, Note_off_c, 2, 60, 0
2, 9865680, Note_on_c, 2, 60, 50
2, 9866160, Note_off_c, 2, 60, 0
2, 9866160, Note_on_c, 2, 48, 50
2, 9866400, Note_off_c, 2, 48, 0
2, 9866400, Note_on_c, 2, 48, 50
2, 9866640, Note_off_c, 2, 48, 0
2, 9866640, Note_on_c, 2, 50, 50
2, 9866880, Note_off_c, 2, 50, 0
2, 9866880, Note_on_c, 2, 48, 50
2, 9867120, Note_off_c, 2, 48, 0
2, 9867120, Note_on_c, 2, 48, 50
2, 9867360, Note_off_c, 2, 48, 0
2, 9867360, Note_on_c, 2, 48, 50
2, 9867600, Note_off_c, 2, 48, 0
2, 9867600, Note_on_c, 2, 48, 50
2, 9867840, Note_off_c, 2, 48, 0
2, 9867840, Note_on_c, 2, 48, 50
2, 9868080, Note_off_c, 2, 48, 0
2, 9868080, Note_on_c, 2, 50, 50
2, 9868560, Note_off_c, 2, 50, 0
2, 9868560, Note_on_c, 2, 50, 50
2, 9868800, Note_off_c, 2, 50, 0
2, 9868800, Note_on_c, 2, 50, 50
2, 9869280, Note_off_c, 2, 50, 0
2, 9869280, Note_on_c, 2, 50, 50
2, 9869520, Note_off_c, 2, 50, 0
2, 9869520, Note_on_c, 2, 50, 50
2, 9870000, Note_off_c, 2, 50, 0
2, 9870000, Note_on_c, 2, 65, 50
2, 9870240, Note_off_c, 2, 65, 0
2, 9870240, Note_on_c, 2, 65, 50
2, 9870480, Note_off_c, 2, 65, 0
2, 9870480, Note_on_c, 2, 65, 50
2, 9870720, Note_off_c, 2, 65, 0
2, 9870720, Note_on_c, 2, 65, 50
2, 9870960, Note_off_c, 2, 65, 0
2, 9870960, Note_on_c, 2, 65, 50
2, 9871200, Note_off_c, 2, 65, 0
2, 9871200, Note_on_c, 2, 65, 50
2, 9871440, Note_off_c, 2, 65, 0
2, 9871440, Note_on_c, 2, 65, 50
2, 9871680, Note_off_c, 2, 65, 0
2, 9871680, Note_on_c, 2, 65, 50
2, 9871920, Note_off_c, 2, 65, 0
2, 9871920, Note_on_c, 2, 67, 50
2, 9872400, Note_off_c, 2, 67, 0
2, 9872400, Note_on_c, 2, 67, 50
2, 9872640, Note_off_c, 2, 67, 0
2, 9872640, Note_on_c, 2, 67, 50
2, 9873120, Note_off_c, 2, 67, 0
2, 9873120, Note_on_c, 2, 67, 50
2, 9873360, Note_off_c, 2, 67, 0
2, 9873360, Note_on_c, 2, 67, 50
2, 9873840, Note_off_c, 2, 67, 0
2, 9873840, Note_on_c, 2, 50, 50
2, 9874080, Note_off_c, 2, 50, 0
2, 9874080, Note_on_c, 2, 50, 50
2, 9874320, Note_off_c, 2, 50, 0
2, 9874320, Note_on_c, 2, 52, 50
2, 9874560, Note_off_c, 2, 52, 0
2, 9874560, Note_on_c, 2, 52, 50
2, 9874800, Note_off_c, 2, 52, 0
2, 9874800, Note_on_c, 2, 50, 50
2, 9875040, Note_off_c, 2, 50, 0
2, 9875040, Note_on_c, 2, 50, 50
2, 9875280, Note_off_c, 2, 50, 0
2, 9875280, Note_on_c, 2, 52, 50
2, 9875520, Note_off_c, 2, 52, 0
2, 9875520, Note_on_c, 2, 52, 50
2, 9875760, Note_off_c, 2, 52, 0
2, 9875760, Note_on_c, 2, 48, 50
2, 9876000, Note_off_c, 2, 48, 0
2, 9876000, Note_on_c, 2, 48, 50
2, 9876240, Note_off_c, 2, 48, 0
2, 9876240, Note_on_c, 2, 50, 50
2, 9876480, Note_off_c, 2, 50, 0
2, 9876720, Note_on_c, 2, 48, 50
2, 9876960, Note_off_c, 2, 48, 0
2, 9876960, Note_on_c, 2, 48, 50
2, 9877200, Note_off_c, 2, 48, 0
2, 9877200, Note_on_c, 2, 50, 50
2, 9877440, Note_off_c, 2, 50, 0
2, 9877440, Note_on_c, 2, 50, 50
2, 9877680, Note_off_c, 2, 50, 0
2, 9877680, Note_on_c, 2, 50, 50
2, 9877920, Note_off_c, 2, 50, 0
2, 9877920, Note_on_c, 2, 50, 50
2, 9878160, Note_off_c, 2, 50, 0
2, 9878160, Note_on_c, 2, 52, 50
2, 9878400, Note_off_c, 2, 52, 0
2, 9878400, Note_on_c, 2, 52, 50
2, 9878640, Note_off_c, 2, 52, 0
2, 9878640, Note_on_c, 2, 50, 50
2, 9878880, Note_off_c, 2, 50, 0
2, 9878880, Note_on_c, 2, 50, 50
2, 9879120, Note_off_c, 2, 50, 0
2, 9879120, Note_on_c, 2, 52, 50
2, 9879360, Note_off_c, 2, 52, 0
2, 9879360, Note_on_c, 2, 52, 50
2, 9879600, Note_off_c, 2, 52, 0
2, 9879600, Note_on_c, 2, 48, 50
2, 9879840, Note_off_c, 2, 48, 0
2, 9879840, Note_on_c, 2, 48, 50
2, 9880080, Note_off_c, 2, 48, 0
2, 9880080, Note_on_c, 2, 50, 50
2, 9880320, Note_off_c, 2, 50, 0
2, 9880560, Note_on_c, 2, 48, 50
2, 9880800, Note_off_c, 2, 48, 0
2, 9880800, Note_on_c, 2, 48, 50
2, 9881040, Note_off_c, 2, 48, 0
2, 9881040, Note_on_c, 2, 50, 50
2, 9881280, Note_off_c, 2, 50, 0
2, 9881280, Note_on_c, 2, 50, 50
2, 9881520, Note_off_c, 2, 50, 0
2, 9881520, Note_on_c, 2, 60, 50
2, 9881760, Note_off_c, 2, 60, 0
2, 9881760, Note_on_c, 2, 60, 50
2, 9882000, Note_off_c, 2, 60, 0
2, 9882000, Note_on_c, 2, 60, 50
2, 9882240, Note_off_c, 2, 60, 0
2, 9882240, Note_on_c, 2, 60, 50
2, 9882480, Note_off_c, 2, 60, 0
2, 9882480, Note_on_c, 2, 65, 50
2, 9882720, Note_off_c, 2, 65, 0
2, 9882720, Note_on_c, 2, 65, 50
2, 9882960, Note_off_c, 2, 65, 0
2, 9882960, Note_on_c, 2, 65, 50
2, 9883200, Note_off_c, 2, 65, 0
2, 9883200, Note_on_c, 2, 65, 50
2, 9883440, Note_off_c, 2, 65, 0
2, 9883440, Note_on_c, 2, 60, 50
2, 9883680, Note_off_c, 2, 60, 0
2, 9883680, Note_on_c, 2, 60, 50
2, 9883920, Note_off_c, 2, 60, 0
2, 9883920, Note_on_c, 2, 60, 50
2, 9884160, Note_off_c, 2, 60, 0
2, 9884160, Note_on_c, 2, 60, 50
2, 9884400, Note_off_c, 2, 60, 0
2, 9884400, Note_on_c, 2, 65, 50
2, 9884640, Note_off_c, 2, 65, 0
2, 9884640, Note_on_c, 2, 65, 50
2, 9884880, Note_off_c, 2, 65, 0
2, 9884880, Note_on_c, 2, 65, 50
2, 9885120, Note_off_c, 2, 65, 0
2, 9885120, Note_on_c, 2, 65, 50
2, 9885360, Note_off_c, 2, 65, 0
2, 9885360, Note_on_c, 2, 60, 50
2, 9885600, Note_off_c, 2, 60, 0
2, 9885600, Note_on_c, 2, 60, 50
2, 9885840, Note_off_c, 2, 60, 0
2, 9885840, Note_on_c, 2, 60, 50
2, 9886080, Note_off_c, 2, 60, 0
2, 9886080, Note_on_c, 2, 60, 50
2, 9886320, Note_off_c, 2, 60, 0
2, 9886320, Note_on_c, 2, 67, 50
2, 9886560, Note_off_c, 2, 67, 0
2, 9886560, Note_on_c, 2, 67, 50
2, 9886800, Note_off_c, 2, 67, 0
2, 9886800, Note_on_c, 2, 67, 50
2, 9887040, Note_off_c, 2, 67, 0
2, 9887040, Note_on_c, 2, 67, 50
2, 9887280, Note_off_c, 2, 67, 0
2, 9887280, Note_on_c, 2, 60, 50
2, 9887520, Note_off_c, 2, 60, 0
2, 9887520, Note_on_c, 2, 60, 50
2, 9887760, Note_off_c, 2, 60, 0
2, 9887760, Note_on_c, 2, 60, 50
2, 9888000, Note_off_c, 2, 60, 0
2, 9888000, Note_on_c, 2, 60, 50
2, 9888240, Note_off_c, 2, 60, 0
2, 9888240, Note_on_c, 2, 65, 50
2, 9888480, Note_off_c, 2, 65, 0
2, 9888480, Note_on_c, 2, 65, 50
2, 9888720, Note_off_c, 2, 65, 0
2, 9888720, Note_on_c, 2, 65, 50
2, 9888960, Note_off_c, 2, 65, 0
2, 9888960, Note_on_c, 2, 65, 50
2, 9889200, Note_off_c, 2, 65, 0
2, 9889200, Note_on_c, 2, 60, 50
2, 9889440, Note_off_c, 2, 60, 0
2, 9889440, Note_on_c, 2, 60, 50
2, 9889680, Note_off_c, 2, 60, 0
2, 9889680, Note_on_c, 2, 60, 50
2, 9889920, Note_off_c, 2, 60, 0
2, 9889920, Note_on_c, 2, 60, 50
2, 9890160, Note_off_c, 2, 60, 0
2, 9890160, Note_on_c, 2, 65, 50
2, 9890400, Note_off_c, 2, 65, 0
2, 9890400, Note_on_c, 2, 65, 50
2, 9890640, Note_off_c, 2, 65, 0
2, 9890640, Note_on_c, 2, 65, 50
2, 9890880, Note_off_c, 2, 65, 0
2, 9890880, Note_on_c, 2, 65, 50
2, 9891120, Note_off_c, 2, 65, 0
2, 9891120, Note_on_c, 2, 60, 50
2, 9891360, Note_off_c, 2, 60, 0
2, 9891360, Note_on_c, 2, 60, 50
2, 9891600, Note_off_c, 2, 60, 0
2, 9891600, Note_on_c, 2, 60, 50
2, 9891840, Note_off_c, 2, 60, 0
2, 9891840, Note_on_c, 2, 60, 50
2, 9892080, Note_off_c, 2, 60, 0
2, 9892080, Note_on_c, 2, 65, 50
2, 9892320, Note_off_c, 2, 65, 0
2, 9892320, Note_on_c, 2, 65, 50
2, 9892560, Note_off_c, 2, 65, 0
2, 9892560, Note_on_c, 2, 65, 50
2, 9892800, Note_off_c, 2, 65, 0
2, 9892800, Note_on_c, 2, 65, 50
2, 9893040, Note_off_c, 2, 65, 0
2, 9893040, Note_on_c, 2, 60, 50
2, 9893280, Note_off_c, 2, 60, 0
2, 9893280, Note_on_c, 2, 60, 50
2, 9893520, Note_off_c, 2, 60, 0
2, 9893520, Note_on_c, 2, 60, 50
2, 9893760, Note_off_c, 2, 60, 0
2, 9893760, Note_on_c, 2, 60, 50
2, 9894000, Note_off_c, 2, 60, 0
2, 9894000, Note_on_c, 2, 67, 50
2, 9894240, Note_off_c, 2, 67, 0
2, 9894240, Note_on_c, 2, 67, 50
2, 9894480, Note_off_c, 2, 67, 0
2, 9894480, Note_on_c, 2, 67, 50
2, 9894720, Note_off_c, 2, 67, 0
2, 9894720, Note_on_c, 2, 67, 50
2, 9894960, Note_off_c, 2, 67, 0
2, 9894960, Note_on_c, 2, 60, 50
2, 9895440, Note_off_c, 2, 60, 0
2, 9895440, Note_on_c, 2, 60, 50
2, 9895680, Note_off_c, 2, 60, 0
2, 9895680, Note_on_c, 2, 60, 50
2, 9896160, Note_off_c, 2, 60, 0
2, 9896160, Note_on_c, 2, 60, 50
2, 9896400, Note_off_c, 2, 60, 0
2, 9896400, Note_on_c, 2, 60, 50
2, 9896880, Note_off_c, 2, 60, 0
2, 9896880, Note_on_c, 2, 48, 50
2, 9897120, Note_off_c, 2, 48, 0
2, 9897120, Note_on_c, 2, 48, 50
2, 9897360, Note_off_c, 2, 48, 0
2, 9897360, Note_on_c, 2, 50, 50
2, 9897600, Note_off_c, 2, 50, 0
2, 9897600, Note_on_c, 2, 48, 50
2, 9897840, Note_off_c, 2, 48, 0
2, 9897840, Note_on_c, 2, 48, 50
2, 9898080, Note_off_c, 2, 48, 0
2, 9898080, Note_on_c, 2, 48, 50
2, 9898320, Note_off_c, 2, 48, 0
2, 9898320, Note_on_c, 2, 48, 50
2, 9898560, Note_off_c, 2, 48, 0
2, 9898560, Note_on_c, 2, 48, 50
2, 9898800, Note_off_c, 2, 48, 0
2, 9898800, Note_on_c, 2, 50, 50
2, 9899280, Note_off_c, 2, 50, 0
2, 9899280, Note_on_c, 2, 50, 50
2, 9899520, Note_off_c, 2, 50, 0
2, 9899520, Note_on_c, 2, 50, 50
2, 9900000, Note_off_c, 2, 50, 0
2, 9900000, Note_on_c, 2, 50, 50
2, 9900240, Note_off_c, 2, 50, 0
2, 9900240, Note_on_c, 2, 50, 50
2, 9900720, Note_off_c, 2, 50, 0
2, 9900720, Note_on_c, 2, 65, 50
2, 9900960, Note_off_c, 2, 65, 0
2, 9900960, Note_on_c, 2, 65, 50
2, 9901200, Note_off_c, 2, 65, 0
2, 9901200, Note_on_c, 2, 65, 50
2, 9901440, Note_off_c, 2, 65, 0
2, 9901440, Note_on_c, 2, 65, 50
2, 9901680, Note_off_c, 2, 65, 0
2, 9901680, Note_on_c, 2, 65, 50
2, 9901920, Note_off_c, 2, 65, 0
2, 9901920, Note_on_c, 2, 65, 50
2, 9902160, Note_off_c, 2, 65, 0
2, 9902160, Note_on_c, 2, 65, 50
2, 9902400, Note_off_c, 2, 65, 0
2, 9902400, Note_on_c, 2, 65, 50
2, 9902640, Note_off_c, 2, 65, 0
2, 9902640, Note_on_c, 2, 67, 50
2, 9903120, Note_off_c, 2, 67, 0
2, 9903120, Note_on_c, 2, 67, 50
2, 9903360, Note_off_c, 2, 67, 0
2, 9903360, Note_on_c, 2, 67, 50
2, 9903840, Note_off_c, 2, 67, 0
2, 9903840, Note_on_c, 2, 67, 50
2, 9904080, Note_off_c, 2, 67, 0
2, 9904080, Note_on_c, 2, 67, 50
2, 9904560, Note_off_c, 2, 67, 0
2, 9904560, Note_on_c, 2, 57, 50
2, 9905040, Note_off_c, 2, 57, 0
2, 9905040, Note_on_c, 2, 57, 50
2, 9905280, Note_off_c, 2, 57, 0
2, 9905280, Note_on_c, 2, 57, 50
2, 9905520, Note_off_c, 2, 57, 0
2, 9905520, Note_on_c, 2, 57, 50
2, 9905760, Note_off_c, 2, 57, 0
2, 9905760, Note_on_c, 2, 57, 50
2, 9906000, Note_off_c, 2, 57, 0
2, 9906000, Note_on_c, 2, 57, 50
2, 9906240, Note_off_c, 2, 57, 0
2, 9906240, Note_on_c, 2, 57, 50
2, 9906480, Note_off_c, 2, 57, 0
2, 9906480, Note_on_c, 2, 60, 50
2, 9906960, Note_off_c, 2, 60, 0
2, 9906960, Note_on_c, 2, 60, 50
2, 9907200, Note_off_c, 2, 60, 0
2, 9907200, Note_on_c, 2, 60, 50
2, 9907440, Note_off_c, 2, 60, 0
2, 9907440, Note_on_c, 2, 60, 50
2, 9907680, Note_off_c, 2, 60, 0
2, 9907680, Note_on_c, 2, 60, 50
2, 9907920, Note_off_c, 2, 60, 0
2, 9907920, Note_on_c, 2, 60, 50
2, 9908160, Note_off_c, 2, 60, 0
2, 9908160, Note_on_c, 2, 60, 50
2, 9908400, Note_off_c, 2, 60, 0
2, 9908400, Note_on_c, 2, 67, 50
2, 9908880, Note_off_c, 2, 67, 0
2, 9908880, Note_on_c, 2, 67, 50
2, 9909120, Note_off_c, 2, 67, 0
2, 9909120, Note_on_c, 2, 67, 50
2, 9909360, Note_off_c, 2, 67, 0
2, 9909360, Note_on_c, 2, 67, 50
2, 9909600, Note_off_c, 2, 67, 0
2, 9909600, Note_on_c, 2, 67, 50
2, 9909840, Note_off_c, 2, 67, 0
2, 9909840, Note_on_c, 2, 67, 50
2, 9910080, Note_off_c, 2, 67, 0
2, 9910080, Note_on_c, 2, 67, 50
2, 9910320, Note_off_c, 2, 67, 0
2, 9910320, Note_on_c, 2, 67, 50
2, 9910800, Note_off_c, 2, 67, 0
2, 9910800, Note_on_c, 2, 67, 50
2, 9911040, Note_off_c, 2, 67, 0
2, 9911040, Note_on_c, 2, 67, 50
2, 9911280, Note_off_c, 2, 67, 0
2, 9911280, Note_on_c, 2, 67, 50
2, 9911520, Note_off_c, 2, 67, 0
2, 9911520, Note_on_c, 2, 67, 50
2, 9911760, Note_off_c, 2, 67, 0
2, 9911760, Note_on_c, 2, 67, 50
2, 9912000, Note_off_c, 2, 67, 0
2, 9912000, Note_on_c, 2, 67, 50
2, 9912240, Note_off_c, 2, 67, 0
2, 9912240, Note_on_c, 2, 62, 50
2, 9912720, Note_off_c, 2, 62, 0
2, 9912720, Note_on_c, 2, 62, 50
2, 9912960, Note_off_c, 2, 62, 0
2, 9912960, Note_on_c, 2, 62, 50
2, 9913200, Note_off_c, 2, 62, 0
2, 9913200, Note_on_c, 2, 62, 50
2, 9913440, Note_off_c, 2, 62, 0
2, 9913440, Note_on_c, 2, 62, 50
2, 9913680, Note_off_c, 2, 62, 0
2, 9913680, Note_on_c, 2, 62, 50
2, 9913920, Note_off_c, 2, 62, 0
2, 9913920, Note_on_c, 2, 62, 50
2, 9914160, Note_off_c, 2, 62, 0
2, 9914160, Note_on_c, 2, 67, 50
2, 9914640, Note_off_c, 2, 67, 0
2, 9914640, Note_on_c, 2, 67, 50
2, 9914880, Note_off_c, 2, 67, 0
2, 9914880, Note_on_c, 2, 67, 50
2, 9915120, Note_off_c, 2, 67, 0
2, 9915120, Note_on_c, 2, 67, 50
2, 9915360, Note_off_c, 2, 67, 0
2, 9915360, Note_on_c, 2, 67, 50
2, 9915600, Note_off_c, 2, 67, 0
2, 9915600, Note_on_c, 2, 67, 50
2, 9915840, Note_off_c, 2, 67, 0
2, 9915840, Note_on_c, 2, 67, 50
2, 9916080, Note_off_c, 2, 67, 0
2, 9916080, Note_on_c, 2, 60, 50
2, 9916560, Note_off_c, 2, 60, 0
2, 9916560, Note_on_c, 2, 60, 50
2, 9916800, Note_off_c, 2, 60, 0
2, 9916800, Note_on_c, 2, 60, 50
2, 9917040, Note_off_c, 2, 60, 0
2, 9917040, Note_on_c, 2, 60, 50
2, 9917280, Note_off_c, 2, 60, 0
2, 9917280, Note_on_c, 2, 60, 50
2, 9917520, Note_off_c, 2, 60, 0
2, 9917520, Note_on_c, 2, 60, 50
2, 9917760, Note_off_c, 2, 60, 0
2, 9917760, Note_on_c, 2, 60, 50
2, 9918000, Note_off_c, 2, 60, 0
2, 9918000, Note_on_c, 2, 60, 50
2, 9918480, Note_off_c, 2, 60, 0
2, 9918480, Note_on_c, 2, 60, 50
2, 9918720, Note_off_c, 2, 60, 0
2, 9918720, Note_on_c, 2, 60, 50
2, 9918960, Note_off_c, 2, 60, 0
2, 9918960, Note_on_c, 2, 60, 50
2, 9919200, Note_off_c, 2, 60, 0
2, 9919200, Note_on_c, 2, 60, 50
2, 9919440, Note_off_c, 2, 60, 0
2, 9919440, Note_on_c, 2, 60, 50
2, 9919680, Note_off_c, 2, 60, 0
2, 9919680, Note_on_c, 2, 60, 50
2, 9919920, Note_off_c, 2, 60, 0
2, 9919920, Note_on_c, 2, 65, 50
2, 9920400, Note_off_c, 2, 65, 0
2, 9920400, Note_on_c, 2, 65, 50
2, 9920640, Note_off_c, 2, 65, 0
2, 9920640, Note_on_c, 2, 65, 50
2, 9920880, Note_off_c, 2, 65, 0
2, 9920880, Note_on_c, 2, 65, 50
2, 9921120, Note_off_c, 2, 65, 0
2, 9921120, Note_on_c, 2, 65, 50
2, 9921360, Note_off_c, 2, 65, 0
2, 9921360, Note_on_c, 2, 65, 50
2, 9921600, Note_off_c, 2, 65, 0
2, 9921600, Note_on_c, 2, 65, 50
2, 9921840, Note_off_c, 2, 65, 0
2, 9921840, Note_on_c, 2, 67, 50
2, 9922320, Note_off_c, 2, 67, 0
2, 9922320, Note_on_c, 2, 67, 50
2, 9922560, Note_off_c, 2, 67, 0
2, 9922560, Note_on_c, 2, 67, 50
2, 9922800, Note_off_c, 2, 67, 0
2, 9922800, Note_on_c, 2, 67, 50
2, 9923040, Note_off_c, 2, 67, 0
2, 9923040, Note_on_c, 2, 67, 50
2, 9923280, Note_off_c, 2, 67, 0
2, 9923280, Note_on_c, 2, 67, 50
2, 9923520, Note_off_c, 2, 67, 0
2, 9923520, Note_on_c, 2, 67, 50
2, 9923760, Note_off_c, 2, 67, 0
2, 9923760, Note_on_c, 2, 65, 50
2, 9924240, Note_off_c, 2, 65, 0
2, 9924240, Note_on_c, 2, 65, 50
2, 9924480, Note_off_c, 2, 65, 0
2, 9924480, Note_on_c, 2, 65, 50
2, 9924720, Note_off_c, 2, 65, 0
2, 9924720, Note_on_c, 2, 65, 50
2, 9924960, Note_off_c, 2, 65, 0
2, 9924960, Note_on_c, 2, 65, 50
2, 9925200, Note_off_c, 2, 65, 0
2, 9925200, Note_on_c, 2, 65, 50
2, 9925440, Note_off_c, 2, 65, 0
2, 9925440, Note_on_c, 2, 65, 50
2, 9925680, Note_off_c, 2, 65, 0
2, 9925680, Note_on_c, 2, 67, 50
2, 9926160, Note_off_c, 2, 67, 0
2, 9926160, Note_on_c, 2, 67, 50
2, 9926400, Note_off_c, 2, 67, 0
2, 9926400, Note_on_c, 2, 67, 50
2, 9926640, Note_off_c, 2, 67, 0
2, 9926640, Note_on_c, 2, 67, 50
2, 9926880, Note_off_c, 2, 67, 0
2, 9926880, Note_on_c, 2, 67, 50
2, 9927120, Note_off_c, 2, 67, 0
2, 9927120, Note_on_c, 2, 67, 50
2, 9927360, Note_off_c, 2, 67, 0
2, 9927360, Note_on_c, 2, 67, 50
2, 9927600, Note_off_c, 2, 67, 0
2, 9927600, Note_on_c, 2, 50, 50
2, 9927840, Note_off_c, 2, 50, 0
2, 9927840, Note_on_c, 2, 50, 50
2, 9928080, Note_off_c, 2, 50, 0
2, 9928080, Note_on_c, 2, 52, 50
2, 9928320, Note_off_c, 2, 52, 0
2, 9928320, Note_on_c, 2, 52, 50
2, 9928560, Note_off_c, 2, 52, 0
2, 9928560, Note_on_c, 2, 50, 50
2, 9928800, Note_off_c, 2, 50, 0
2, 9928800, Note_on_c, 2, 50, 50
2, 9929040, Note_off_c, 2, 50, 0
2, 9929040, Note_on_c, 2, 52, 50
2, 9929280, Note_off_c, 2, 52, 0
2, 9929280, Note_on_c, 2, 52, 50
2, 9929520, Note_off_c, 2, 52, 0
2, 9929520, Note_on_c, 2, 48, 50
2, 9929760, Note_off_c, 2, 48, 0
2, 9929760, Note_on_c, 2, 48, 50
2, 9930000, Note_off_c, 2, 48, 0
2, 9930000, Note_on_c, 2, 50, 50
2, 9930240, Note_off_c, 2, 50, 0
2, 9930480, Note_on_c, 2, 48, 50
2, 9930720, Note_off_c, 2, 48, 0
2, 9930720, Note_on_c, 2, 48, 50
2, 9930960, Note_off_c, 2, 48, 0
2, 9930960, Note_on_c, 2, 50, 50
2, 9931200, Note_off_c, 2, 50, 0
2, 9931200, Note_on_c, 2, 50, 50
2, 9931440, Note_off_c, 2, 50, 0
2, 9931440, Note_on_c, 2, 50, 50
2, 9931680, Note_off_c, 2, 50, 0
2, 9931680, Note_on_c, 2, 50, 50
2, 9931920, Note_off_c, 2, 50, 0
2, 9931920, Note_on_c, 2, 52, 50
2, 9932160, Note_off_c, 2, 52, 0
2, 9932160, Note_on_c, 2, 52, 50
2, 9932400, Note_off_c, 2, 52, 0
2, 9932400, Note_on_c, 2, 50, 50
2, 9932640, Note_off_c, 2, 50, 0
2, 9932640, Note_on_c, 2, 50, 50
2, 9932880, Note_off_c, 2, 50, 0
2, 9932880, Note_on_c, 2, 52, 50
2, 9933120, Note_off_c, 2, 52, 0
2, 9933120, Note_on_c, 2, 52, 50
2, 9933360, Note_off_c, 2, 52, 0
2, 9933360, Note_on_c, 2, 48, 50
2, 9933600, Note_off_c, 2, 48, 0
2, 9933600, Note_on_c, 2, 48, 50
2, 9933840, Note_off_c, 2, 48, 0
2, 9933840, Note_on_c, 2, 50, 50
2, 9934080, Note_off_c, 2, 50, 0
2, 9934320, Note_on_c, 2, 48, 50
2, 9934560, Note_off_c, 2, 48, 0
2, 9934560, Note_on_c, 2, 48, 50
2, 9934800, Note_off_c, 2, 48, 0
2, 9934800, Note_on_c, 2, 50, 50
2, 9935040, Note_off_c, 2, 50, 0
2, 9935040, Note_on_c, 2, 50, 50
2, 9935280, Note_off_c, 2, 50, 0
2, 9935280, Note_on_c, 2, 60, 50
2, 9935520, Note_off_c, 2, 60, 0
2, 9935520, Note_on_c, 2, 60, 50
2, 9935760, Note_off_c, 2, 60, 0
2, 9935760, Note_on_c, 2, 60, 50
2, 9936000, Note_off_c, 2, 60, 0
2, 9936000, Note_on_c, 2, 60, 50
2, 9936240, Note_off_c, 2, 60, 0
2, 9936240, Note_on_c, 2, 65, 50
2, 9936480, Note_off_c, 2, 65, 0
2, 9936480, Note_on_c, 2, 65, 50
2, 9936720, Note_off_c, 2, 65, 0
2, 9936720, Note_on_c, 2, 65, 50
2, 9936960, Note_off_c, 2, 65, 0
2, 9936960, Note_on_c, 2, 65, 50
2, 9937200, Note_off_c, 2, 65, 0
2, 9937200, Note_on_c, 2, 60, 50
2, 9937440, Note_off_c, 2, 60, 0
2, 9937440, Note_on_c, 2, 60, 50
2, 9937680, Note_off_c, 2, 60, 0
2, 9937680, Note_on_c, 2, 60, 50
2, 9937920, Note_off_c, 2, 60, 0
2, 9937920, Note_on_c, 2, 60, 50
2, 9938160, Note_off_c, 2, 60, 0
2, 9938160, Note_on_c, 2, 65, 50
2, 9938400, Note_off_c, 2, 65, 0
2, 9938400, Note_on_c, 2, 65, 50
2, 9938640, Note_off_c, 2, 65, 0
2, 9938640, Note_on_c, 2, 65, 50
2, 9938880, Note_off_c, 2, 65, 0
2, 9938880, Note_on_c, 2, 65, 50
2, 9939120, Note_off_c, 2, 65, 0
2, 9939120, Note_on_c, 2, 60, 50
2, 9939360, Note_off_c, 2, 60, 0
2, 9939360, Note_on_c, 2, 60, 50
2, 9939600, Note_off_c, 2, 60, 0
2, 9939600, Note_on_c, 2, 60, 50
2, 9939840, Note_off_c, 2, 60, 0
2, 9939840, Note_on_c, 2, 60, 50
2, 9940080, Note_off_c, 2, 60, 0
2, 9940080, Note_on_c, 2, 67, 50
2, 9940320, Note_off_c, 2, 67, 0
2, 9940320, Note_on_c, 2, 67, 50
2, 9940560, Note_off_c, 2, 67, 0
2, 9940560, Note_on_c, 2, 67, 50
2, 9940800, Note_off_c, 2, 67, 0
2, 9940800, Note_on_c, 2, 67, 50
2, 9941040, Note_off_c, 2, 67, 0
2, 9941040, Note_on_c, 2, 60, 50
2, 9941280, Note_off_c, 2, 60, 0
2, 9941280, Note_on_c, 2, 60, 50
2, 9941520, Note_off_c, 2, 60, 0
2, 9941520, Note_on_c, 2, 60, 50
2, 9941760, Note_off_c, 2, 60, 0
2, 9941760, Note_on_c, 2, 60, 50
2, 9942000, Note_off_c, 2, 60, 0
2, 9942000, Note_on_c, 2, 65, 50
2, 9942240, Note_off_c, 2, 65, 0
2, 9942240, Note_on_c, 2, 65, 50
2, 9942480, Note_off_c, 2, 65, 0
2, 9942480, Note_on_c, 2, 65, 50
2, 9942720, Note_off_c, 2, 65, 0
2, 9942720, Note_on_c, 2, 65, 50
2, 9942960, Note_off_c, 2, 65, 0
2, 9942960, Note_on_c, 2, 60, 50
2, 9943200, Note_off_c, 2, 60, 0
2, 9943200, Note_on_c, 2, 60, 50
2, 9943440, Note_off_c, 2, 60, 0
2, 9943440, Note_on_c, 2, 60, 50
2, 9943680, Note_off_c, 2, 60, 0
2, 9943680, Note_on_c, 2, 60, 50
2, 9943920, Note_off_c, 2, 60, 0
2, 9943920, Note_on_c, 2, 65, 50
2, 9944160, Note_off_c, 2, 65, 0
2, 9944160, Note_on_c, 2, 65, 50
2, 9944400, Note_off_c, 2, 65, 0
2, 9944400, Note_on_c, 2, 65, 50
2, 9944640, Note_off_c, 2, 65, 0
2, 9944640, Note_on_c, 2, 65, 50
2, 9944880, Note_off_c, 2, 65, 0
2, 9944880, Note_on_c, 2, 60, 50
2, 9945120, Note_off_c, 2, 60, 0
2, 9945120, Note_on_c, 2, 60, 50
2, 9945360, Note_off_c, 2, 60, 0
2, 9945360, Note_on_c, 2, 60, 50
2, 9945600, Note_off_c, 2, 60, 0
2, 9945600, Note_on_c, 2, 60, 50
2, 9945840, Note_off_c, 2, 60, 0
2, 9945840, Note_on_c, 2, 65, 50
2, 9946080, Note_off_c, 2, 65, 0
2, 9946080, Note_on_c, 2, 65, 50
2, 9946320, Note_off_c, 2, 65, 0
2, 9946320, Note_on_c, 2, 65, 50
2, 9946560, Note_off_c, 2, 65, 0
2, 9946560, Note_on_c, 2, 65, 50
2, 9946800, Note_off_c, 2, 65, 0
2, 9946800, Note_on_c, 2, 60, 50
2, 9947040, Note_off_c, 2, 60, 0
2, 9947040, Note_on_c, 2, 60, 50
2, 9947280, Note_off_c, 2, 60, 0
2, 9947280, Note_on_c, 2, 60, 50
2, 9947520, Note_off_c, 2, 60, 0
2, 9947520, Note_on_c, 2, 60, 50
2, 9947760, Note_off_c, 2, 60, 0
2, 9947760, Note_on_c, 2, 67, 50
2, 9948000, Note_off_c, 2, 67, 0
2, 9948000, Note_on_c, 2, 67, 50
2, 9948240, Note_off_c, 2, 67, 0
2, 9948240, Note_on_c, 2, 67, 50
2, 9948480, Note_off_c, 2, 67, 0
2, 9948480, Note_on_c, 2, 67, 50
2, 9948720, Note_off_c, 2, 67, 0
2, 9948720, Note_on_c, 2, 60, 50
2, 9949200, Note_off_c, 2, 60, 0
2, 9949200, Note_on_c, 2, 60, 50
2, 9949440, Note_off_c, 2, 60, 0
2, 9949440, Note_on_c, 2, 60, 50
2, 9949920, Note_off_c, 2, 60, 0
2, 9949920, Note_on_c, 2, 60, 50
2, 9950160, Note_off_c, 2, 60, 0
2, 9950160, Note_on_c, 2, 60, 50
2, 9950640, Note_off_c, 2, 60, 0
2, 9950640, Note_on_c, 2, 48, 50
2, 9950880, Note_off_c, 2, 48, 0
2, 9950880, Note_on_c, 2, 48, 50
2, 9951120, Note_off_c, 2, 48, 0
2, 9951120, Note_on_c, 2, 50, 50
2, 9951360, Note_off_c, 2, 50, 0
2, 9951360, Note_on_c, 2, 48, 50
2, 9951600, Note_off_c, 2, 48, 0
2, 9951600, Note_on_c, 2, 48, 50
2, 9951840, Note_off_c, 2, 48, 0
2, 9951840, Note_on_c, 2, 48, 50
2, 9952080, Note_off_c, 2, 48, 0
2, 9952080, Note_on_c, 2, 48, 50
2, 9952320, Note_off_c, 2, 48, 0
2, 9952320, Note_on_c, 2, 48, 50
2, 9952560, Note_off_c, 2, 48, 0
2, 9952560, Note_on_c, 2, 50, 50
2, 9953040, Note_off_c, 2, 50, 0
2, 9953040, Note_on_c, 2, 50, 50
2, 9953280, Note_off_c, 2, 50, 0
2, 9953280, Note_on_c, 2, 50, 50
2, 9953760, Note_off_c, 2, 50, 0
2, 9953760, Note_on_c, 2, 50, 50
2, 9954000, Note_off_c, 2, 50, 0
2, 9954000, Note_on_c, 2, 50, 50
2, 9954480, Note_off_c, 2, 50, 0
2, 9954480, Note_on_c, 2, 65, 50
2, 9954720, Note_off_c, 2, 65, 0
2, 9954720, Note_on_c, 2, 65, 50
2, 9954960, Note_off_c, 2, 65, 0
2, 9954960, Note_on_c, 2, 65, 50
2, 9955200, Note_off_c, 2, 65, 0
2, 9955200, Note_on_c, 2, 65, 50
2, 9955440, Note_off_c, 2, 65, 0
2, 9955440, Note_on_c, 2, 65, 50
2, 9955680, Note_off_c, 2, 65, 0
2, 9955680, Note_on_c, 2, 65, 50
2, 9955920, Note_off_c, 2, 65, 0
2, 9955920, Note_on_c, 2, 65, 50
2, 9956160, Note_off_c, 2, 65, 0
2, 9956160, Note_on_c, 2, 65, 50
2, 9956400, Note_off_c, 2, 65, 0
2, 9956400, Note_on_c, 2, 67, 50
2, 9956880, Note_off_c, 2, 67, 0
2, 9956880, Note_on_c, 2, 67, 50
2, 9957120, Note_off_c, 2, 67, 0
2, 9957120, Note_on_c, 2, 67, 50
2, 9957600, Note_off_c, 2, 67, 0
2, 9957600, Note_on_c, 2, 67, 50
2, 9957840, Note_off_c, 2, 67, 0
2, 9957840, Note_on_c, 2, 67, 50
2, 9958320, Note_off_c, 2, 67, 0
2, 9958320, Note_on_c, 2, 50, 50
2, 9958560, Note_off_c, 2, 50, 0
2, 9958560, Note_on_c, 2, 50, 50
2, 9958800, Note_off_c, 2, 50, 0
2, 9958800, Note_on_c, 2, 52, 50
2, 9959040, Note_off_c, 2, 52, 0
2, 9959040, Note_on_c, 2, 52, 50
2, 9959280, Note_off_c, 2, 52, 0
2, 9959280, Note_on_c, 2, 50, 50
2, 9959520, Note_off_c, 2, 50, 0
2, 9959520, Note_on_c, 2, 50, 50
2, 9959760, Note_off_c, 2, 50, 0
2, 9959760, Note_on_c, 2, 52, 50
2, 9960000, Note_off_c, 2, 52, 0
2, 9960000, Note_on_c, 2, 52, 50
2, 9960240, Note_off_c, 2, 52, 0
2, 9960240, Note_on_c, 2, 48, 50
2, 9960480, Note_off_c, 2, 48, 0
2, 9960480, Note_on_c, 2, 48, 50
2, 9960720, Note_off_c, 2, 48, 0
2, 9960720, Note_on_c, 2, 50, 50
2, 9960960, Note_off_c, 2, 50, 0
2, 9960960, Note_on_c, 2, 50, 50
2, 9961200, Note_off_c, 2, 50, 0
2, 9961200, Note_on_c, 2, 48, 50
2, 9961440, Note_off_c, 2, 48, 0
2, 9961440, Note_on_c, 2, 48, 50
2, 9961680, Note_off_c, 2, 48, 0
2, 9961680, Note_on_c, 2, 50, 50
2, 9961920, Note_off_c, 2, 50, 0
2, 9961920, Note_on_c, 2, 50, 50
2, 9962160, Note_off_c, 2, 50, 0
2, 9962160, Note_on_c, 2, 50, 50
2, 9962400, Note_off_c, 2, 50, 0
2, 9962400, Note_on_c, 2, 50, 50
2, 9962640, Note_off_c, 2, 50, 0
2, 9962640, Note_on_c, 2, 52, 50
2, 9962880, Note_off_c, 2, 52, 0
2, 9962880, Note_on_c, 2, 52, 50
2, 9963120, Note_off_c, 2, 52, 0
2, 9963120, Note_on_c, 2, 50, 50
2, 9963360, Note_off_c, 2, 50, 0
2, 9963360, Note_on_c, 2, 50, 50
2, 9963600, Note_off_c, 2, 50, 0
2, 9963600, Note_on_c, 2, 52, 50
2, 9963840, Note_off_c, 2, 52, 0
2, 9963840, Note_on_c, 2, 52, 50
2, 9964080, Note_off_c, 2, 52, 0
2, 9964080, Note_on_c, 2, 48, 50
2, 9964320, Note_off_c, 2, 48, 0
2, 9964320, Note_on_c, 2, 48, 50
2, 9964560, Note_off_c, 2, 48, 0
2, 9964560, Note_on_c, 2, 50, 50
2, 9964800, Note_off_c, 2, 50, 0
2, 9964800, Note_on_c, 2, 50, 50
2, 9965040, Note_off_c, 2, 50, 0
2, 9965040, Note_on_c, 2, 48, 50
2, 9965280, Note_off_c, 2, 48, 0
2, 9965280, Note_on_c, 2, 48, 50
2, 9965520, Note_off_c, 2, 48, 0
2, 9965520, Note_on_c, 2, 50, 50
2, 9965760, Note_off_c, 2, 50, 0
2, 9965760, Note_on_c, 2, 50, 50
2, 9966000, Note_off_c, 2, 50, 0
2, 9966000, Note_on_c, 2, 60, 50
2, 9966240, Note_off_c, 2, 60, 0
2, 9966240, Note_on_c, 2, 60, 50
2, 9966480, Note_off_c, 2, 60, 0
2, 9966480, Note_on_c, 2, 60, 50
2, 9966720, Note_off_c, 2, 60, 0
2, 9966960, Note_on_c, 2, 65, 50
2, 9967200, Note_off_c, 2, 65, 0
2, 9967200, Note_on_c, 2, 65, 50
2, 9967440, Note_off_c, 2, 65, 0
2, 9967440, Note_on_c, 2, 65, 50
2, 9967680, Note_off_c, 2, 65, 0
2, 9967920, Note_on_c, 2, 60, 50
2, 9968160, Note_off_c, 2, 60, 0
2, 9968160, Note_on_c, 2, 60, 50
2, 9968400, Note_off_c, 2, 60, 0
2, 9968400, Note_on_c, 2, 60, 50
2, 9968640, Note_off_c, 2, 60, 0
2, 9968880, Note_on_c, 2, 65, 50
2, 9969120, Note_off_c, 2, 65, 0
2, 9969120, Note_on_c, 2, 65, 50
2, 9969360, Note_off_c, 2, 65, 0
2, 9969360, Note_on_c, 2, 65, 50
2, 9969600, Note_off_c, 2, 65, 0
2, 9969840, Note_on_c, 2, 50, 50
2, 9970080, Note_off_c, 2, 50, 0
2, 9970080, Note_on_c, 2, 50, 50
2, 9970320, Note_off_c, 2, 50, 0
2, 9970320, Note_on_c, 2, 52, 50
2, 9970560, Note_off_c, 2, 52, 0
2, 9970560, Note_on_c, 2, 52, 50
2, 9970800, Note_off_c, 2, 52, 0
2, 9970800, Note_on_c, 2, 50, 50
2, 9971040, Note_off_c, 2, 50, 0
2, 9971040, Note_on_c, 2, 50, 50
2, 9971280, Note_off_c, 2, 50, 0
2, 9971280, Note_on_c, 2, 52, 50
2, 9971520, Note_off_c, 2, 52, 0
2, 9971520, Note_on_c, 2, 52, 50
2, 9971760, Note_off_c, 2, 52, 0
2, 9971760, Note_on_c, 2, 48, 50
2, 9972000, Note_off_c, 2, 48, 0
2, 9972000, Note_on_c, 2, 48, 50
2, 9972240, Note_off_c, 2, 48, 0
2, 9972240, Note_on_c, 2, 50, 50
2, 9972480, Note_off_c, 2, 50, 0
2, 9972480, Note_on_c, 2, 50, 50
2, 9972720, Note_off_c, 2, 50, 0
2, 9972720, Note_on_c, 2, 48, 50
2, 9972960, Note_off_c, 2, 48, 0
2, 9972960, Note_on_c, 2, 48, 50
2, 9973200, Note_off_c, 2, 48, 0
2, 9973200, Note_on_c, 2, 50, 50
2, 9973440, Note_off_c, 2, 50, 0
2, 9973440, Note_on_c, 2, 50, 50
2, 9973680, Note_off_c, 2, 50, 0
2, 9973680, Note_on_c, 2, 60, 50
2, 9973920, Note_off_c, 2, 60, 0
2, 9973920, Note_on_c, 2, 60, 50
2, 9974160, Note_off_c, 2, 60, 0
2, 9974160, Note_on_c, 2, 60, 50
2, 9974400, Note_off_c, 2, 60, 0
2, 9974640, Note_on_c, 2, 65, 50
2, 9974880, Note_off_c, 2, 65, 0
2, 9974880, Note_on_c, 2, 65, 50
2, 9975120, Note_off_c, 2, 65, 0
2, 9975120, Note_on_c, 2, 65, 50
2, 9975360, Note_off_c, 2, 65, 0
2, 9975600, Note_on_c, 2, 60, 50
2, 9975840, Note_off_c, 2, 60, 0
2, 9975840, Note_on_c, 2, 60, 50
2, 9976080, Note_off_c, 2, 60, 0
2, 9976080, Note_on_c, 2, 60, 50
2, 9976320, Note_off_c, 2, 60, 0
2, 9976560, Note_on_c, 2, 65, 50
2, 9976800, Note_off_c, 2, 65, 0
2, 9976800, Note_on_c, 2, 65, 50
2, 9977040, Note_off_c, 2, 65, 0
2, 9977040, Note_on_c, 2, 65, 50
2, 9977280, Note_off_c, 2, 65, 0
2, 9977520, Note_on_c, 2, 50, 50
2, 9977760, Note_off_c, 2, 50, 0
2, 9977760, Note_on_c, 2, 50, 50
2, 9978000, Note_off_c, 2, 50, 0
2, 9978000, Note_on_c, 2, 52, 50
2, 9978240, Note_off_c, 2, 52, 0
2, 9978240, Note_on_c, 2, 52, 50
2, 9978480, Note_off_c, 2, 52, 0
2, 9978480, Note_on_c, 2, 50, 50
2, 9978720, Note_off_c, 2, 50, 0
2, 9978720, Note_on_c, 2, 50, 50
2, 9978960, Note_off_c, 2, 50, 0
2, 9978960, Note_on_c, 2, 52, 50
2, 9979200, Note_off_c, 2, 52, 0
2, 9979200, Note_on_c, 2, 52, 50
2, 9979440, Note_off_c, 2, 52, 0
2, 9979440, Note_on_c, 2, 48, 50
2, 9979680, Note_off_c, 2, 48, 0
2, 9979680, Note_on_c, 2, 48, 50
2, 9979920, Note_off_c, 2, 48, 0
2, 9979920, Note_on_c, 2, 50, 50
2, 9980160, Note_off_c, 2, 50, 0
2, 9980160, Note_on_c, 2, 50, 50
2, 9980400, Note_off_c, 2, 50, 0
2, 9980400, Note_on_c, 2, 48, 50
2, 9980640, Note_off_c, 2, 48, 0
2, 9980640, Note_on_c, 2, 48, 50
2, 9980880, Note_off_c, 2, 48, 0
2, 9980880, Note_on_c, 2, 50, 50
2, 9981120, Note_off_c, 2, 50, 0
2, 9981120, Note_on_c, 2, 50, 50
2, 9981360, Note_off_c, 2, 50, 0
2, 9981360, Note_on_c, 2, 60, 50
2, 9981600, Note_off_c, 2, 60, 0
2, 9981600, Note_on_c, 2, 60, 50
2, 9981840, Note_off_c, 2, 60, 0
2, 9981840, Note_on_c, 2, 60, 50
2, 9982080, Note_off_c, 2, 60, 0
2, 9982320, Note_on_c, 2, 65, 50
2, 9982560, Note_off_c, 2, 65, 0
2, 9982560, Note_on_c, 2, 65, 50
2, 9982800, Note_off_c, 2, 65, 0
2, 9982800, Note_on_c, 2, 65, 50
2, 9983040, Note_off_c, 2, 65, 0
2, 9983280, Note_on_c, 2, 55, 50
2, 9983520, Note_off_c, 2, 55, 0
2, 9983520, Note_on_c, 2, 55, 50
2, 9983760, Note_off_c, 2, 55, 0
2, 9983760, Note_on_c, 2, 57, 50
2, 9984000, Note_off_c, 2, 57, 0
2, 9984000, Note_on_c, 2, 57, 50
2, 9984240, Note_off_c, 2, 57, 0
2, 9984240, Note_on_c, 2, 55, 50
2, 9984480, Note_off_c, 2, 55, 0
2, 9984480, Note_on_c, 2, 55, 50
2, 9984720, Note_off_c, 2, 55, 0
2, 9984720, Note_on_c, 2, 57, 50
2, 9984960, Note_off_c, 2, 57, 0
2, 9984960, Note_on_c, 2, 57, 50
2, 9985200, Note_off_c, 2, 57, 0
2, 9985200, Note_on_c, 2, 55, 50
2, 9985680, Note_off_c, 2, 55, 0
2, 9992880, Note_on_c, 2, 64, 50
2, 9993120, Note_off_c, 2, 64, 0
2, 9993120, Note_on_c, 2, 64, 50
2, 9993360, Note_off_c, 2, 64, 0
2, 9993360, Note_on_c, 2, 64, 50
2, 9993600, Note_off_c, 2, 64, 0
2, 9993600, Note_on_c, 2, 64, 50
2, 9993840, Note_off_c, 2, 64, 0
2, 9993840, Note_on_c, 2, 64, 50
2, 9994080, Note_off_c, 2, 64, 0
2, 9994080, Note_on_c, 2, 62, 50
2, 9994320, Note_off_c, 2, 62, 0
2, 9994320, Note_on_c, 2, 61, 50
2, 9994560, Note_off_c, 2, 61, 0
2, 9994560, Note_on_c, 2, 64, 50
2, 9995040, Note_off_c, 2, 64, 0
2, 9995040, Note_on_c, 2, 64, 50
2, 9995760, Note_off_c, 2, 64, 0
2, 9996720, Note_on_c, 2, 64, 50
2, 9996960, Note_off_c, 2, 64, 0
2, 9996960, Note_on_c, 2, 64, 50
2, 9997200, Note_off_c, 2, 64, 0
2, 9997200, Note_on_c, 2, 64, 50
2, 9997440, Note_off_c, 2, 64, 0
2, 9997440, Note_on_c, 2, 64, 50
2, 9997680, Note_off_c, 2, 64, 0
2, 9997680, Note_on_c, 2, 64, 50
2, 9997920, Note_off_c, 2, 64, 0
2, 9997920, Note_on_c, 2, 62, 50
2, 9998160, Note_off_c, 2, 62, 0
2, 9998160, Note_on_c, 2, 61, 50
2, 9998400, Note_off_c, 2, 61, 0
2, 9998400, Note_on_c, 2, 64, 50
2, 9999120, Note_off_c, 2, 64, 0
2, 10000320, Note_on_c, 2, 66, 50
2, 10000560, Note_off_c, 2, 66, 0
2, 10000560, Note_on_c, 2, 67, 50
2, 10000800, Note_off_c, 2, 67, 0
2, 10000800, Note_on_c, 2, 67, 50
2, 10001040, Note_off_c, 2, 67, 0
2, 10001040, Note_on_c, 2, 67, 50
2, 10001280, Note_off_c, 2, 67, 0
2, 10001280, Note_on_c, 2, 67, 50
2, 10001760, Note_off_c, 2, 67, 0
2, 10001760, Note_on_c, 2, 67, 50
2, 10002000, Note_off_c, 2, 67, 0
2, 10002000, Note_on_c, 2, 66, 50
2, 10002240, Note_off_c, 2, 66, 0
2, 10002240, Note_on_c, 2, 64, 50
2, 10002480, Note_off_c, 2, 64, 0
2, 10002480, Note_on_c, 2, 67, 50
2, 10002720, Note_off_c, 2, 67, 0
2, 10002720, Note_on_c, 2, 67, 50
2, 10002960, Note_off_c, 2, 67, 0
2, 10002960, Note_on_c, 2, 67, 50
2, 10003200, Note_off_c, 2, 67, 0
2, 10003200, Note_on_c, 2, 67, 50
2, 10003440, Note_off_c, 2, 67, 0
2, 10003680, Note_on_c, 2, 67, 50
2, 10003920, Note_off_c, 2, 67, 0
2, 10003920, Note_on_c, 2, 66, 50
2, 10004160, Note_off_c, 2, 66, 0
2, 10004160, Note_on_c, 2, 64, 50
2, 10004400, Note_off_c, 2, 64, 0
2, 10004400, Note_on_c, 2, 67, 50
2, 10004640, Note_off_c, 2, 67, 0
2, 10004640, Note_on_c, 2, 67, 50
2, 10004880, Note_off_c, 2, 67, 0
2, 10004880, Note_on_c, 2, 67, 50
2, 10005120, Note_off_c, 2, 67, 0
2, 10005120, Note_on_c, 2, 67, 50
2, 10005360, Note_off_c, 2, 67, 0
2, 10005360, Note_on_c, 2, 67, 50
2, 10005600, Note_off_c, 2, 67, 0
2, 10005600, Note_on_c, 2, 66, 50
2, 10005840, Note_off_c, 2, 66, 0
2, 10005840, Note_on_c, 2, 64, 50
2, 10006080, Note_off_c, 2, 64, 0
2, 10006080, Note_on_c, 2, 67, 50
2, 10006560, Note_off_c, 2, 67, 0
2, 10006560, Note_on_c, 2, 69, 50
2, 10007040, Note_off_c, 2, 69, 0
2, 10007040, Note_on_c, 2, 66, 50
2, 10007280, Note_off_c, 2, 66, 0
2, 10007280, Note_on_c, 2, 69, 50
2, 10007520, Note_off_c, 2, 69, 0
2, 10007520, Note_on_c, 2, 66, 50
2, 10007760, Note_off_c, 2, 66, 0
2, 10007760, Note_on_c, 2, 64, 50
2, 10008000, Note_off_c, 2, 64, 0
2, 10008000, Note_on_c, 2, 66, 50
2, 10008480, Note_off_c, 2, 66, 0
2, 10008480, Note_on_c, 2, 62, 50
2, 10009200, Note_off_c, 2, 62, 0
2, 10010400, Note_on_c, 2, 64, 50
2, 10010640, Note_off_c, 2, 64, 0
2, 10010640, Note_on_c, 2, 66, 50
2, 10010880, Note_off_c, 2, 66, 0
2, 10010880, Note_on_c, 2, 64, 50
2, 10011120, Note_off_c, 2, 64, 0
2, 10011120, Note_on_c, 2, 66, 50
2, 10011360, Note_off_c, 2, 66, 0
2, 10011360, Note_on_c, 2, 64, 50
2, 10011600, Note_off_c, 2, 64, 0
2, 10011600, Note_on_c, 2, 66, 50
2, 10011840, Note_off_c, 2, 66, 0
2, 10011840, Note_on_c, 2, 69, 50
2, 10012080, Note_off_c, 2, 69, 0
2, 10012080, Note_on_c, 2, 57, 50
2, 10013040, Note_off_c, 2, 57, 0
2, 10014720, Note_on_c, 2, 64, 50
2, 10014960, Note_off_c, 2, 64, 0
2, 10014960, Note_on_c, 2, 67, 50
2, 10015200, Note_off_c, 2, 67, 0
2, 10015200, Note_on_c, 2, 67, 50
2, 10015440, Note_off_c, 2, 67, 0
2, 10015440, Note_on_c, 2, 64, 50
2, 10015680, Note_off_c, 2, 64, 0
2, 10015680, Note_on_c, 2, 67, 50
2, 10016640, Note_off_c, 2, 67, 0
2, 10016640, Note_on_c, 2, 64, 50
2, 10017360, Note_off_c, 2, 64, 0
2, 10018080, Note_on_c, 2, 64, 50
2, 10018320, Note_off_c, 2, 64, 0
2, 10018320, Note_on_c, 2, 64, 50
2, 10018560, Note_off_c, 2, 64, 0
2, 10018560, Note_on_c, 2, 64, 50
2, 10018800, Note_off_c, 2, 64, 0
2, 10018800, Note_on_c, 2, 69, 50
2, 10019040, Note_off_c, 2, 69, 0
2, 10019040, Note_on_c, 2, 57, 50
2, 10019280, Note_off_c, 2, 57, 0
2, 10019280, Note_on_c, 2, 60, 50
2, 10019520, Note_off_c, 2, 60, 0
2, 10019520, Note_on_c, 2, 59, 50
2, 10019760, Note_off_c, 2, 59, 0
2, 10019760, Note_on_c, 2, 57, 50
2, 10020720, Note_off_c, 2, 57, 0
2, 10023600, Note_on_c, 2, 64, 50
2, 10023840, Note_off_c, 2, 64, 0
2, 10023840, Note_on_c, 2, 64, 50
2, 10024080, Note_off_c, 2, 64, 0
2, 10024080, Note_on_c, 2, 64, 50
2, 10024320, Note_off_c, 2, 64, 0
2, 10024320, Note_on_c, 2, 64, 50
2, 10024560, Note_off_c, 2, 64, 0
2, 10024560, Note_on_c, 2, 64, 50
2, 10024800, Note_off_c, 2, 64, 0
2, 10024800, Note_on_c, 2, 62, 50
2, 10025040, Note_off_c, 2, 62, 0
2, 10025040, Note_on_c, 2, 61, 50
2, 10025280, Note_off_c, 2, 61, 0
2, 10025280, Note_on_c, 2, 64, 50
2, 10025760, Note_off_c, 2, 64, 0
2, 10025760, Note_on_c, 2, 64, 50
2, 10026480, Note_off_c, 2, 64, 0
2, 10027440, Note_on_c, 2, 64, 50
2, 10027680, Note_off_c, 2, 64, 0
2, 10027680, Note_on_c, 2, 64, 50
2, 10027920, Note_off_c, 2, 64, 0
2, 10027920, Note_on_c, 2, 64, 50
2, 10028160, Note_off_c, 2, 64, 0
2, 10028160, Note_on_c, 2, 64, 50
2, 10028400, Note_off_c, 2, 64, 0
2, 10028400, Note_on_c, 2, 64, 50
2, 10028640, Note_off_c, 2, 64, 0
2, 10028640, Note_on_c, 2, 62, 50
2, 10028880, Note_off_c, 2, 62, 0
2, 10028880, Note_on_c, 2, 61, 50
2, 10029120, Note_off_c, 2, 61, 0
2, 10029120, Note_on_c, 2, 64, 50
2, 10029840, Note_off_c, 2, 64, 0
2, 10030560, Note_on_c, 2, 64, 50
2, 10030800, Note_off_c, 2, 64, 0
2, 10030800, Note_on_c, 2, 66, 50
2, 10031040, Note_off_c, 2, 66, 0
2, 10031040, Note_on_c, 2, 67, 50
2, 10031520, Note_off_c, 2, 67, 0
2, 10031520, Note_on_c, 2, 67, 50
2, 10031760, Note_off_c, 2, 67, 0
2, 10031760, Note_on_c, 2, 67, 50
2, 10032000, Note_off_c, 2, 67, 0
2, 10032000, Note_on_c, 2, 67, 50
2, 10032480, Note_off_c, 2, 67, 0
2, 10032720, Note_on_c, 2, 66, 50
2, 10032960, Note_off_c, 2, 66, 0
2, 10032960, Note_on_c, 2, 64, 50
2, 10033200, Note_off_c, 2, 64, 0
2, 10033200, Note_on_c, 2, 67, 50
2, 10033440, Note_off_c, 2, 67, 0
2, 10033440, Note_on_c, 2, 67, 50
2, 10033680, Note_off_c, 2, 67, 0
2, 10033680, Note_on_c, 2, 67, 50
2, 10033920, Note_off_c, 2, 67, 0
2, 10033920, Note_on_c, 2, 67, 50
2, 10034160, Note_off_c, 2, 67, 0
2, 10034400, Note_on_c, 2, 67, 50
2, 10034640, Note_off_c, 2, 67, 0
2, 10034640, Note_on_c, 2, 66, 50
2, 10034880, Note_off_c, 2, 66, 0
2, 10034880, Note_on_c, 2, 64, 50
2, 10035120, Note_off_c, 2, 64, 0
2, 10035120, Note_on_c, 2, 67, 50
2, 10035360, Note_off_c, 2, 67, 0
2, 10035360, Note_on_c, 2, 67, 50
2, 10035600, Note_off_c, 2, 67, 0
2, 10035600, Note_on_c, 2, 67, 50
2, 10035840, Note_off_c, 2, 67, 0
2, 10035840, Note_on_c, 2, 67, 50
2, 10036080, Note_off_c, 2, 67, 0
2, 10036080, Note_on_c, 2, 67, 50
2, 10036320, Note_off_c, 2, 67, 0
2, 10036320, Note_on_c, 2, 66, 50
2, 10036560, Note_off_c, 2, 66, 0
2, 10036560, Note_on_c, 2, 64, 50
2, 10036800, Note_off_c, 2, 64, 0
2, 10036800, Note_on_c, 2, 67, 50
2, 10037280, Note_off_c, 2, 67, 0
2, 10037280, Note_on_c, 2, 69, 50
2, 10037760, Note_off_c, 2, 69, 0
2, 10037760, Note_on_c, 2, 66, 50
2, 10038000, Note_off_c, 2, 66, 0
2, 10038000, Note_on_c, 2, 69, 50
2, 10038240, Note_off_c, 2, 69, 0
2, 10038240, Note_on_c, 2, 66, 50
2, 10038480, Note_off_c, 2, 66, 0
2, 10038480, Note_on_c, 2, 64, 50
2, 10038720, Note_off_c, 2, 64, 0
2, 10038720, Note_on_c, 2, 66, 50
2, 10039200, Note_off_c, 2, 66, 0
2, 10039200, Note_on_c, 2, 62, 50
2, 10039920, Note_off_c, 2, 62, 0
2, 10041120, Note_on_c, 2, 64, 50
2, 10041360, Note_off_c, 2, 64, 0
2, 10041360, Note_on_c, 2, 66, 50
2, 10041600, Note_off_c, 2, 66, 0
2, 10041600, Note_on_c, 2, 64, 50
2, 10041840, Note_off_c, 2, 64, 0
2, 10041840, Note_on_c, 2, 66, 50
2, 10042080, Note_off_c, 2, 66, 0
2, 10042080, Note_on_c, 2, 64, 50
2, 10042320, Note_off_c, 2, 64, 0
2, 10042320, Note_on_c, 2, 66, 50
2, 10042560, Note_off_c, 2, 66, 0
2, 10042560, Note_on_c, 2, 69, 50
2, 10042800, Note_off_c, 2, 69, 0
2, 10042800, Note_on_c, 2, 57, 50
2, 10043760, Note_off_c, 2, 57, 0
2, 10045440, Note_on_c, 2, 64, 50
2, 10045680, Note_off_c, 2, 64, 0
2, 10045680, Note_on_c, 2, 67, 50
2, 10045920, Note_off_c, 2, 67, 0
2, 10045920, Note_on_c, 2, 67, 50
2, 10046160, Note_off_c, 2, 67, 0
2, 10046160, Note_on_c, 2, 64, 50
2, 10046400, Note_off_c, 2, 64, 0
2, 10046400, Note_on_c, 2, 67, 50
2, 10047360, Note_off_c, 2, 67, 0
2, 10047360, Note_on_c, 2, 64, 50
2, 10048080, Note_off_c, 2, 64, 0
2, 10048800, Note_on_c, 2, 64, 50
2, 10049040, Note_off_c, 2, 64, 0
2, 10049040, Note_on_c, 2, 64, 50
2, 10049280, Note_off_c, 2, 64, 0
2, 10049280, Note_on_c, 2, 64, 50
2, 10049520, Note_off_c, 2, 64, 0
2, 10049520, Note_on_c, 2, 69, 50
2, 10049760, Note_off_c, 2, 69, 0
2, 10049760, Note_on_c, 2, 57, 50
2, 10050000, Note_off_c, 2, 57, 0
2, 10050000, Note_on_c, 2, 60, 50
2, 10050240, Note_off_c, 2, 60, 0
2, 10050240, Note_on_c, 2, 59, 50
2, 10050480, Note_off_c, 2, 59, 0
2, 10050480, Note_on_c, 2, 57, 50
2, 10051440, Note_off_c, 2, 57, 0
2, 10053600, Note_on_c, 2, 64, 50
2, 10054080, Note_off_c, 2, 64, 0
2, 10054080, Note_on_c, 2, 61, 50
2, 10054320, Note_off_c, 2, 61, 0
2, 10054320, Note_on_c, 2, 64, 50
2, 10054560, Note_off_c, 2, 64, 0
2, 10054560, Note_on_c, 2, 64, 50
2, 10054800, Note_off_c, 2, 64, 0
2, 10054800, Note_on_c, 2, 64, 50
2, 10055040, Note_off_c, 2, 64, 0
2, 10055040, Note_on_c, 2, 64, 50
2, 10055280, Note_off_c, 2, 64, 0
2, 10055280, Note_on_c, 2, 64, 50
2, 10055520, Note_off_c, 2, 64, 0
2, 10055520, Note_on_c, 2, 62, 50
2, 10055760, Note_off_c, 2, 62, 0
2, 10055760, Note_on_c, 2, 61, 50
2, 10056000, Note_off_c, 2, 61, 0
2, 10056000, Note_on_c, 2, 64, 50
2, 10056480, Note_off_c, 2, 64, 0
2, 10056480, Note_on_c, 2, 64, 50
2, 10057200, Note_off_c, 2, 64, 0
2, 10058160, Note_on_c, 2, 64, 50
2, 10058400, Note_off_c, 2, 64, 0
2, 10058400, Note_on_c, 2, 64, 50
2, 10058640, Note_off_c, 2, 64, 0
2, 10058640, Note_on_c, 2, 64, 50
2, 10058880, Note_off_c, 2, 64, 0
2, 10058880, Note_on_c, 2, 64, 50
2, 10059120, Note_off_c, 2, 64, 0
2, 10059120, Note_on_c, 2, 64, 50
2, 10059360, Note_off_c, 2, 64, 0
2, 10059360, Note_on_c, 2, 62, 50
2, 10059600, Note_off_c, 2, 62, 0
2, 10059600, Note_on_c, 2, 61, 50
2, 10059840, Note_off_c, 2, 61, 0
2, 10059840, Note_on_c, 2, 64, 50
2, 10060560, Note_off_c, 2, 64, 0
2, 10061760, Note_on_c, 2, 66, 50
2, 10062000, Note_off_c, 2, 66, 0
2, 10062000, Note_on_c, 2, 67, 50
2, 10062240, Note_off_c, 2, 67, 0
2, 10062240, Note_on_c, 2, 67, 50
2, 10062480, Note_off_c, 2, 67, 0
2, 10062480, Note_on_c, 2, 67, 50
2, 10062720, Note_off_c, 2, 67, 0
2, 10062720, Note_on_c, 2, 67, 50
2, 10063200, Note_off_c, 2, 67, 0
2, 10063200, Note_on_c, 2, 67, 50
2, 10063440, Note_off_c, 2, 67, 0
2, 10063440, Note_on_c, 2, 66, 50
2, 10063680, Note_off_c, 2, 66, 0
2, 10063680, Note_on_c, 2, 64, 50
2, 10063920, Note_off_c, 2, 64, 0
2, 10063920, Note_on_c, 2, 67, 50
2, 10064160, Note_off_c, 2, 67, 0
2, 10064160, Note_on_c, 2, 67, 50
2, 10064400, Note_off_c, 2, 67, 0
2, 10064400, Note_on_c, 2, 67, 50
2, 10064640, Note_off_c, 2, 67, 0
2, 10064640, Note_on_c, 2, 67, 50
2, 10064880, Note_off_c, 2, 67, 0
2, 10065120, Note_on_c, 2, 67, 50
2, 10065360, Note_off_c, 2, 67, 0
2, 10065360, Note_on_c, 2, 66, 50
2, 10065600, Note_off_c, 2, 66, 0
2, 10065600, Note_on_c, 2, 64, 50
2, 10065840, Note_off_c, 2, 64, 0
2, 10065840, Note_on_c, 2, 67, 50
2, 10066080, Note_off_c, 2, 67, 0
2, 10066080, Note_on_c, 2, 67, 50
2, 10066320, Note_off_c, 2, 67, 0
2, 10066320, Note_on_c, 2, 67, 50
2, 10066560, Note_off_c, 2, 67, 0
2, 10066560, Note_on_c, 2, 67, 50
2, 10066800, Note_off_c, 2, 67, 0
2, 10066800, Note_on_c, 2, 67, 50
2, 10067040, Note_off_c, 2, 67, 0
2, 10067040, Note_on_c, 2, 66, 50
2, 10067280, Note_off_c, 2, 66, 0
2, 10067280, Note_on_c, 2, 64, 50
2, 10067520, Note_off_c, 2, 64, 0
2, 10067520, Note_on_c, 2, 67, 50
2, 10068000, Note_off_c, 2, 67, 0
2, 10068000, Note_on_c, 2, 69, 50
2, 10068480, Note_off_c, 2, 69, 0
2, 10068480, Note_on_c, 2, 66, 50
2, 10068720, Note_off_c, 2, 66, 0
2, 10068720, Note_on_c, 2, 69, 50
2, 10068960, Note_off_c, 2, 69, 0
2, 10068960, Note_on_c, 2, 66, 50
2, 10069200, Note_off_c, 2, 66, 0
2, 10069200, Note_on_c, 2, 64, 50
2, 10069440, Note_off_c, 2, 64, 0
2, 10069440, Note_on_c, 2, 66, 50
2, 10069920, Note_off_c, 2, 66, 0
2, 10069920, Note_on_c, 2, 62, 50
2, 10070640, Note_off_c, 2, 62, 0
2, 10071840, Note_on_c, 2, 64, 50
2, 10072080, Note_off_c, 2, 64, 0
2, 10072080, Note_on_c, 2, 66, 50
2, 10072320, Note_off_c, 2, 66, 0
2, 10072320, Note_on_c, 2, 64, 50
2, 10072560, Note_off_c, 2, 64, 0
2, 10072560, Note_on_c, 2, 66, 50
2, 10072800, Note_off_c, 2, 66, 0
2, 10072800, Note_on_c, 2, 64, 50
2, 10073040, Note_off_c, 2, 64, 0
2, 10073040, Note_on_c, 2, 66, 50
2, 10073280, Note_off_c, 2, 66, 0
2, 10073280, Note_on_c, 2, 69, 50
2, 10073520, Note_off_c, 2, 69, 0
2, 10073520, Note_on_c, 2, 57, 50
2, 10074480, Note_off_c, 2, 57, 0
2, 10076160, Note_on_c, 2, 64, 50
2, 10076400, Note_off_c, 2, 64, 0
2, 10076400, Note_on_c, 2, 67, 50
2, 10076640, Note_off_c, 2, 67, 0
2, 10076640, Note_on_c, 2, 67, 50
2, 10076880, Note_off_c, 2, 67, 0
2, 10076880, Note_on_c, 2, 64, 50
2, 10077120, Note_off_c, 2, 64, 0
2, 10077120, Note_on_c, 2, 67, 50
2, 10078080, Note_off_c, 2, 67, 0
2, 10078080, Note_on_c, 2, 64, 50
2, 10078800, Note_off_c, 2, 64, 0
2, 10079520, Note_on_c, 2, 64, 50
2, 10079760, Note_off_c, 2, 64, 0
2, 10079760, Note_on_c, 2, 64, 50
2, 10080000, Note_off_c, 2, 64, 0
2, 10080000, Note_on_c, 2, 64, 50
2, 10080240, Note_off_c, 2, 64, 0
2, 10080240, Note_on_c, 2, 69, 50
2, 10080480, Note_off_c, 2, 69, 0
2, 10080480, Note_on_c, 2, 57, 50
2, 10080720, Note_off_c, 2, 57, 0
2, 10080720, Note_on_c, 2, 60, 50
2, 10080960, Note_off_c, 2, 60, 0
2, 10080960, Note_on_c, 2, 59, 50
2, 10081200, Note_off_c, 2, 59, 0
2, 10081200, Note_on_c, 2, 57, 50
2, 10082160, Note_off_c, 2, 57, 0
2, 10085040, Note_on_c, 2, 62, 50
2, 10085280, Note_off_c, 2, 62, 0
2, 10085280, Note_on_c, 2, 62, 50
2, 10085520, Note_off_c, 2, 62, 0
2, 10085520, Note_on_c, 2, 62, 50
2, 10085760, Note_off_c, 2, 62, 0
2, 10085760, Note_on_c, 2, 62, 50
2, 10086000, Note_off_c, 2, 62, 0
2, 10086000, Note_on_c, 2, 62, 50
2, 10086240, Note_off_c, 2, 62, 0
2, 10086240, Note_on_c, 2, 62, 50
2, 10086480, Note_off_c, 2, 62, 0
2, 10086480, Note_on_c, 2, 62, 50
2, 10086720, Note_off_c, 2, 62, 0
2, 10086720, Note_on_c, 2, 60, 50
2, 10086960, Note_off_c, 2, 60, 0
2, 10086960, Note_on_c, 2, 62, 50
2, 10087440, Note_off_c, 2, 62, 0
2, 10087440, Note_on_c, 2, 60, 50
2, 10087680, Note_off_c, 2, 60, 0
2, 10087680, Note_on_c, 2, 62, 50
2, 10088400, Note_off_c, 2, 62, 0
2, 10088880, Note_on_c, 2, 62, 50
2, 10089000, Note_off_c, 2, 62, 0
2, 10089000, Note_on_c, 2, 62, 50
2, 10089120, Note_off_c, 2, 62, 0
2, 10089120, Note_on_c, 2, 62, 50
2, 10089600, Note_off_c, 2, 62, 0
2, 10089600, Note_on_c, 2, 60, 50
2, 10089840, Note_off_c, 2, 60, 0
2, 10089840, Note_on_c, 2, 62, 50
2, 10090080, Note_off_c, 2, 62, 0
2, 10090080, Note_on_c, 2, 60, 50
2, 10090320, Note_off_c, 2, 60, 0
2, 10090320, Note_on_c, 2, 62, 50
2, 10090560, Note_off_c, 2, 62, 0
2, 10090560, Note_on_c, 2, 60, 50
2, 10090800, Note_off_c, 2, 60, 0
2, 10090800, Note_on_c, 2, 57, 50
2, 10091280, Note_off_c, 2, 57, 0
2, 10092720, Note_on_c, 2, 69, 50
2, 10092960, Note_off_c, 2, 69, 0
2, 10092960, Note_on_c, 2, 69, 50
2, 10093440, Note_off_c, 2, 69, 0
2, 10093440, Note_on_c, 2, 69, 50
2, 10093680, Note_off_c, 2, 69, 0
2, 10093680, Note_on_c, 2, 69, 50
2, 10094160, Note_off_c, 2, 69, 0
2, 10094160, Note_on_c, 2, 69, 50
2, 10094640, Note_off_c, 2, 69, 0
2, 10094640, Note_on_c, 2, 69, 50
2, 10094880, Note_off_c, 2, 69, 0
2, 10094880, Note_on_c, 2, 69, 50
2, 10095360, Note_off_c, 2, 69, 0
2, 10095360, Note_on_c, 2, 69, 50
2, 10095600, Note_off_c, 2, 69, 0
2, 10095600, Note_on_c, 2, 69, 50
2, 10096080, Note_off_c, 2, 69, 0
2, 10096080, Note_on_c, 2, 69, 50
2, 10096320, Note_off_c, 2, 69, 0
2, 10096320, Note_on_c, 2, 69, 50
2, 10096560, Note_off_c, 2, 69, 0
2, 10096560, Note_on_c, 2, 71, 50
2, 10096800, Note_off_c, 2, 71, 0
2, 10096800, Note_on_c, 2, 71, 50
2, 10097040, Note_off_c, 2, 71, 0
2, 10097040, Note_on_c, 2, 71, 50
2, 10097280, Note_off_c, 2, 71, 0
2, 10097280, Note_on_c, 2, 71, 50
2, 10097520, Note_off_c, 2, 71, 0
2, 10097520, Note_on_c, 2, 71, 50
2, 10097760, Note_off_c, 2, 71, 0
2, 10097760, Note_on_c, 2, 71, 50
2, 10098000, Note_off_c, 2, 71, 0
2, 10098000, Note_on_c, 2, 71, 50
2, 10098240, Note_off_c, 2, 71, 0
2, 10098240, Note_on_c, 2, 71, 50
2, 10098480, Note_off_c, 2, 71, 0
2, 10098480, Note_on_c, 2, 74, 50
2, 10099200, Note_off_c, 2, 74, 0
2, 10099200, Note_on_c, 2, 71, 50
2, 10099680, Note_off_c, 2, 71, 0
2, 10099680, Note_on_c, 2, 68, 50
2, 10099920, Note_off_c, 2, 68, 0
2, 10101360, Note_on_c, 2, 64, 50
2, 10101600, Note_off_c, 2, 64, 0
2, 10101600, Note_on_c, 2, 64, 50
2, 10101840, Note_off_c, 2, 64, 0
2, 10101840, Note_on_c, 2, 64, 50
2, 10102080, Note_off_c, 2, 64, 0
2, 10102080, Note_on_c, 2, 64, 50
2, 10102320, Note_off_c, 2, 64, 0
2, 10102320, Note_on_c, 2, 64, 50
2, 10102560, Note_off_c, 2, 64, 0
2, 10102560, Note_on_c, 2, 62, 50
2, 10102800, Note_off_c, 2, 62, 0
2, 10102800, Note_on_c, 2, 61, 50
2, 10103040, Note_off_c, 2, 61, 0
2, 10103040, Note_on_c, 2, 64, 50
2, 10103520, Note_off_c, 2, 64, 0
2, 10103520, Note_on_c, 2, 64, 50
2, 10104240, Note_off_c, 2, 64, 0
2, 10105200, Note_on_c, 2, 64, 50
2, 10105440, Note_off_c, 2, 64, 0
2, 10105440, Note_on_c, 2, 64, 50
2, 10105680, Note_off_c, 2, 64, 0
2, 10105680, Note_on_c, 2, 64, 50
2, 10105920, Note_off_c, 2, 64, 0
2, 10105920, Note_on_c, 2, 64, 50
2, 10106160, Note_off_c, 2, 64, 0
2, 10106160, Note_on_c, 2, 64, 50
2, 10106400, Note_off_c, 2, 64, 0
2, 10106400, Note_on_c, 2, 62, 50
2, 10106640, Note_off_c, 2, 62, 0
2, 10106640, Note_on_c, 2, 61, 50
2, 10106880, Note_off_c, 2, 61, 0
2, 10106880, Note_on_c, 2, 64, 50
2, 10107600, Note_off_c, 2, 64, 0
2, 10108800, Note_on_c, 2, 66, 50
2, 10109040, Note_off_c, 2, 66, 0
2, 10109040, Note_on_c, 2, 67, 50
2, 10109280, Note_off_c, 2, 67, 0
2, 10109280, Note_on_c, 2, 67, 50
2, 10109520, Note_off_c, 2, 67, 0
2, 10109520, Note_on_c, 2, 67, 50
2, 10109760, Note_off_c, 2, 67, 0
2, 10109760, Note_on_c, 2, 67, 50
2, 10110240, Note_off_c, 2, 67, 0
2, 10110720, Note_on_c, 2, 64, 50
2, 10110960, Note_off_c, 2, 64, 0
2, 10110960, Note_on_c, 2, 67, 50
2, 10111200, Note_off_c, 2, 67, 0
2, 10111200, Note_on_c, 2, 67, 50
2, 10111440, Note_off_c, 2, 67, 0
2, 10111440, Note_on_c, 2, 67, 50
2, 10111680, Note_off_c, 2, 67, 0
2, 10111680, Note_on_c, 2, 67, 50
2, 10111920, Note_off_c, 2, 67, 0
2, 10112640, Note_on_c, 2, 64, 50
2, 10112880, Note_off_c, 2, 64, 0
2, 10112880, Note_on_c, 2, 67, 50
2, 10113120, Note_off_c, 2, 67, 0
2, 10113120, Note_on_c, 2, 67, 50
2, 10113360, Note_off_c, 2, 67, 0
2, 10113360, Note_on_c, 2, 67, 50
2, 10113600, Note_off_c, 2, 67, 0
2, 10113600, Note_on_c, 2, 67, 50
2, 10113840, Note_off_c, 2, 67, 0
2, 10113840, Note_on_c, 2, 67, 50
2, 10114080, Note_off_c, 2, 67, 0
2, 10114080, Note_on_c, 2, 66, 50
2, 10114320, Note_off_c, 2, 66, 0
2, 10114320, Note_on_c, 2, 64, 50
2, 10114560, Note_off_c, 2, 64, 0
2, 10114560, Note_on_c, 2, 67, 50
2, 10115040, Note_off_c, 2, 67, 0
2, 10115040, Note_on_c, 2, 69, 50
2, 10115520, Note_off_c, 2, 69, 0
2, 10115520, Note_on_c, 2, 66, 50
2, 10115760, Note_off_c, 2, 66, 0
2, 10115760, Note_on_c, 2, 69, 50
2, 10116000, Note_off_c, 2, 69, 0
2, 10116000, Note_on_c, 2, 66, 50
2, 10116240, Note_off_c, 2, 66, 0
2, 10116240, Note_on_c, 2, 64, 50
2, 10116480, Note_off_c, 2, 64, 0
2, 10116480, Note_on_c, 2, 66, 50
2, 10116960, Note_off_c, 2, 66, 0
2, 10116960, Note_on_c, 2, 62, 50
2, 10117680, Note_off_c, 2, 62, 0
2, 10118880, Note_on_c, 2, 64, 50
2, 10119120, Note_off_c, 2, 64, 0
2, 10119120, Note_on_c, 2, 66, 50
2, 10119360, Note_off_c, 2, 66, 0
2, 10119360, Note_on_c, 2, 64, 50
2, 10119600, Note_off_c, 2, 64, 0
2, 10119600, Note_on_c, 2, 66, 50
2, 10119840, Note_off_c, 2, 66, 0
2, 10119840, Note_on_c, 2, 64, 50
2, 10120080, Note_off_c, 2, 64, 0
2, 10120080, Note_on_c, 2, 66, 50
2, 10120320, Note_off_c, 2, 66, 0
2, 10120320, Note_on_c, 2, 69, 50
2, 10120560, Note_off_c, 2, 69, 0
2, 10120560, Note_on_c, 2, 57, 50
2, 10121520, Note_off_c, 2, 57, 0
2, 10123200, Note_on_c, 2, 64, 50
2, 10123440, Note_off_c, 2, 64, 0
2, 10123440, Note_on_c, 2, 67, 50
2, 10123680, Note_off_c, 2, 67, 0
2, 10123680, Note_on_c, 2, 67, 50
2, 10123920, Note_off_c, 2, 67, 0
2, 10123920, Note_on_c, 2, 64, 50
2, 10124160, Note_off_c, 2, 64, 0
2, 10124160, Note_on_c, 2, 67, 50
2, 10125120, Note_off_c, 2, 67, 0
2, 10125120, Note_on_c, 2, 64, 50
2, 10125840, Note_off_c, 2, 64, 0
2, 10126560, Note_on_c, 2, 64, 50
2, 10126800, Note_off_c, 2, 64, 0
2, 10126800, Note_on_c, 2, 64, 50
2, 10127040, Note_off_c, 2, 64, 0
2, 10127040, Note_on_c, 2, 64, 50
2, 10127280, Note_off_c, 2, 64, 0
2, 10127280, Note_on_c, 2, 69, 50
2, 10127520, Note_off_c, 2, 69, 0
2, 10127520, Note_on_c, 2, 57, 50
2, 10127760, Note_off_c, 2, 57, 0
2, 10127760, Note_on_c, 2, 60, 50
2, 10128000, Note_off_c, 2, 60, 0
2, 10128000, Note_on_c, 2, 59, 50
2, 10128240, Note_off_c, 2, 59, 0
2, 10128240, Note_on_c, 2, 57, 50
2, 10129200, Note_off_c, 2, 57, 0
2, 10132080, Note_on_c, 2, 73, 50
2, 10132320, Note_off_c, 2, 73, 0
2, 10132320, Note_on_c, 2, 73, 50
2, 10132560, Note_off_c, 2, 73, 0
2, 10132560, Note_on_c, 2, 73, 50
2, 10132800, Note_off_c, 2, 73, 0
2, 10132800, Note_on_c, 2, 73, 50
2, 10133040, Note_off_c, 2, 73, 0
2, 10133040, Note_on_c, 2, 73, 50
2, 10133280, Note_off_c, 2, 73, 0
2, 10133280, Note_on_c, 2, 71, 50
2, 10133520, Note_off_c, 2, 71, 0
2, 10133520, Note_on_c, 2, 69, 50
2, 10133760, Note_off_c, 2, 69, 0
2, 10133760, Note_on_c, 2, 73, 50
2, 10134240, Note_off_c, 2, 73, 0
2, 10134240, Note_on_c, 2, 73, 50
2, 10134960, Note_off_c, 2, 73, 0
2, 10135920, Note_on_c, 2, 73, 50
2, 10136160, Note_off_c, 2, 73, 0
2, 10136160, Note_on_c, 2, 73, 50
2, 10136400, Note_off_c, 2, 73, 0
2, 10136400, Note_on_c, 2, 73, 50
2, 10136640, Note_off_c, 2, 73, 0
2, 10136640, Note_on_c, 2, 73, 50
2, 10136880, Note_off_c, 2, 73, 0
2, 10136880, Note_on_c, 2, 73, 50
2, 10137120, Note_off_c, 2, 73, 0
2, 10137120, Note_on_c, 2, 71, 50
2, 10137360, Note_off_c, 2, 71, 0
2, 10137360, Note_on_c, 2, 69, 50
2, 10137600, Note_off_c, 2, 69, 0
2, 10137600, Note_on_c, 2, 73, 50
2, 10138320, Note_off_c, 2, 73, 0
2, 10139520, Note_on_c, 2, 73, 50
2, 10139760, Note_off_c, 2, 73, 0
2, 10139760, Note_on_c, 2, 73, 50
2, 10140000, Note_off_c, 2, 73, 0
2, 10140000, Note_on_c, 2, 73, 50
2, 10140240, Note_off_c, 2, 73, 0
2, 10140240, Note_on_c, 2, 73, 50
2, 10140480, Note_off_c, 2, 73, 0
2, 10140480, Note_on_c, 2, 73, 50
2, 10140720, Note_off_c, 2, 73, 0
2, 10140720, Note_on_c, 2, 67, 50
2, 10141200, Note_off_c, 2, 67, 0
2, 10141440, Note_on_c, 2, 64, 50
2, 10141680, Note_off_c, 2, 64, 0
2, 10141680, Note_on_c, 2, 73, 50
2, 10141920, Note_off_c, 2, 73, 0
2, 10141920, Note_on_c, 2, 73, 50
2, 10142160, Note_off_c, 2, 73, 0
2, 10142160, Note_on_c, 2, 73, 50
2, 10142400, Note_off_c, 2, 73, 0
2, 10142400, Note_on_c, 2, 73, 50
2, 10142640, Note_off_c, 2, 73, 0
2, 10143360, Note_on_c, 2, 64, 50
2, 10143600, Note_off_c, 2, 64, 0
2, 10143600, Note_on_c, 2, 73, 50
2, 10143840, Note_off_c, 2, 73, 0
2, 10143840, Note_on_c, 2, 73, 50
2, 10144080, Note_off_c, 2, 73, 0
2, 10144080, Note_on_c, 2, 73, 50
2, 10144320, Note_off_c, 2, 73, 0
2, 10144320, Note_on_c, 2, 73, 50
2, 10144560, Note_off_c, 2, 73, 0
2, 10144560, Note_on_c, 2, 73, 50
2, 10144800, Note_off_c, 2, 73, 0
2, 10144800, Note_on_c, 2, 73, 50
2, 10145040, Note_off_c, 2, 73, 0
2, 10145040, Note_on_c, 2, 73, 50
2, 10145280, Note_off_c, 2, 73, 0
2, 10145280, Note_on_c, 2, 73, 50
2, 10145760, Note_off_c, 2, 73, 0
2, 10145760, Note_on_c, 2, 73, 50
2, 10146240, Note_off_c, 2, 73, 0
2, 10146240, Note_on_c, 2, 73, 50
2, 10146480, Note_off_c, 2, 73, 0
2, 10146480, Note_on_c, 2, 73, 50
2, 10146720, Note_off_c, 2, 73, 0
2, 10146720, Note_on_c, 2, 73, 50
2, 10146960, Note_off_c, 2, 73, 0
2, 10146960, Note_on_c, 2, 73, 50
2, 10147200, Note_off_c, 2, 73, 0
2, 10147200, Note_on_c, 2, 74, 50
2, 10147680, Note_off_c, 2, 74, 0
2, 10147680, Note_on_c, 2, 69, 50
2, 10148400, Note_off_c, 2, 69, 0
2, 10149600, Note_on_c, 2, 72, 50
2, 10149840, Note_off_c, 2, 72, 0
2, 10149840, Note_on_c, 2, 72, 50
2, 10150080, Note_off_c, 2, 72, 0
2, 10150080, Note_on_c, 2, 72, 50
2, 10150320, Note_off_c, 2, 72, 0
2, 10150320, Note_on_c, 2, 72, 50
2, 10150560, Note_off_c, 2, 72, 0
2, 10150560, Note_on_c, 2, 72, 50
2, 10150800, Note_off_c, 2, 72, 0
2, 10150800, Note_on_c, 2, 72, 50
2, 10151040, Note_off_c, 2, 72, 0
2, 10151040, Note_on_c, 2, 73, 50
2, 10152240, Note_off_c, 2, 73, 0
2, 10153920, Note_on_c, 2, 73, 50
2, 10154160, Note_off_c, 2, 73, 0
2, 10154160, Note_on_c, 2, 73, 50
2, 10154400, Note_off_c, 2, 73, 0
2, 10154400, Note_on_c, 2, 73, 50
2, 10154640, Note_off_c, 2, 73, 0
2, 10154640, Note_on_c, 2, 69, 50
2, 10154880, Note_off_c, 2, 69, 0
2, 10154880, Note_on_c, 2, 74, 50
2, 10155840, Note_off_c, 2, 74, 0
2, 10155840, Note_on_c, 2, 71, 50
2, 10156560, Note_off_c, 2, 71, 0
2, 10157280, Note_on_c, 2, 71, 50
2, 10157520, Note_off_c, 2, 71, 0
2, 10157520, Note_on_c, 2, 71, 50
2, 10157760, Note_off_c, 2, 71, 0
2, 10157760, Note_on_c, 2, 71, 50
2, 10158000, Note_off_c, 2, 71, 0
2, 10158000, Note_on_c, 2, 71, 50
2, 10158240, Note_off_c, 2, 71, 0
2, 10158240, Note_on_c, 2, 71, 50
2, 10158480, Note_off_c, 2, 71, 0
2, 10158480, Note_on_c, 2, 71, 50
2, 10158720, Note_off_c, 2, 71, 0
2, 10158720, Note_on_c, 2, 71, 50
2, 10158960, Note_off_c, 2, 71, 0
2, 10158960, Note_on_c, 2, 73, 50
2, 10159920, Note_off_c, 2, 73, 0
2, 10161600, Note_on_c, 2, 73, 50
2, 10161840, Note_off_c, 2, 73, 0
2, 10161840, Note_on_c, 2, 73, 50
2, 10162080, Note_off_c, 2, 73, 0
2, 10162080, Note_on_c, 2, 73, 50
2, 10162320, Note_off_c, 2, 73, 0
2, 10162320, Note_on_c, 2, 69, 50
2, 10162560, Note_off_c, 2, 69, 0
2, 10162560, Note_on_c, 2, 74, 50
2, 10163520, Note_off_c, 2, 74, 0
2, 10163520, Note_on_c, 2, 71, 50
2, 10164240, Note_off_c, 2, 71, 0
2, 10164960, Note_on_c, 2, 71, 50
2, 10165200, Note_off_c, 2, 71, 0
2, 10165200, Note_on_c, 2, 71, 50
2, 10165440, Note_off_c, 2, 71, 0
2, 10165440, Note_on_c, 2, 71, 50
2, 10165680, Note_off_c, 2, 71, 0
2, 10165680, Note_on_c, 2, 71, 50
2, 10165920, Note_off_c, 2, 71, 0
2, 10165920, Note_on_c, 2, 71, 50
2, 10166160, Note_off_c, 2, 71, 0
2, 10166160, Note_on_c, 2, 71, 50
2, 10166640, Note_off_c, 2, 71, 0
2, 10166640, Note_on_c, 2, 73, 50
2, 10167600, Note_off_c, 2, 73, 0
2, 10187280, Note_on_c, 2, 62, 50
2, 10187520, Note_off_c, 2, 62, 0
2, 10187520, Note_on_c, 2, 64, 50
2, 10187760, Note_off_c, 2, 64, 0
2, 10187760, Note_on_c, 2, 66, 50
2, 10188720, Note_off_c, 2, 66, 0
2, 10188960, Note_on_c, 2, 66, 50
2, 10189200, Note_off_c, 2, 66, 0
2, 10189200, Note_on_c, 2, 64, 50
2, 10189440, Note_off_c, 2, 64, 0
2, 10189440, Note_on_c, 2, 63, 50
2, 10189680, Note_off_c, 2, 63, 0
2, 10189680, Note_on_c, 2, 62, 50
2, 10189920, Note_off_c, 2, 62, 0
2, 10191120, Note_on_c, 2, 62, 50
2, 10191360, Note_off_c, 2, 62, 0
2, 10191360, Note_on_c, 2, 64, 50
2, 10191600, Note_off_c, 2, 64, 0
2, 10191600, Note_on_c, 2, 66, 50
2, 10192560, Note_off_c, 2, 66, 0
2, 10192800, Note_on_c, 2, 66, 50
2, 10193040, Note_off_c, 2, 66, 0
2, 10193040, Note_on_c, 2, 64, 50
2, 10193280, Note_off_c, 2, 64, 0
2, 10193280, Note_on_c, 2, 63, 50
2, 10193520, Note_off_c, 2, 63, 0
2, 10193520, Note_on_c, 2, 62, 50
2, 10193760, Note_off_c, 2, 62, 0
2, 10194960, Note_on_c, 2, 62, 50
2, 10195200, Note_off_c, 2, 62, 0
2, 10195200, Note_on_c, 2, 64, 50
2, 10195440, Note_off_c, 2, 64, 0
2, 10195440, Note_on_c, 2, 66, 50
2, 10196400, Note_off_c, 2, 66, 0
2, 10196640, Note_on_c, 2, 66, 50
2, 10196880, Note_off_c, 2, 66, 0
2, 10196880, Note_on_c, 2, 64, 50
2, 10197120, Note_off_c, 2, 64, 0
2, 10197120, Note_on_c, 2, 63, 50
2, 10197360, Note_off_c, 2, 63, 0
2, 10197360, Note_on_c, 2, 62, 50
2, 10197600, Note_off_c, 2, 62, 0
2, 10198800, Note_on_c, 2, 62, 50
2, 10199040, Note_off_c, 2, 62, 0
2, 10199040, Note_on_c, 2, 64, 50
2, 10199280, Note_off_c, 2, 64, 0
2, 10199280, Note_on_c, 2, 66, 50
2, 10200240, Note_off_c, 2, 66, 0
2, 10200480, Note_on_c, 2, 66, 50
2, 10200720, Note_off_c, 2, 66, 0
2, 10200720, Note_on_c, 2, 64, 50
2, 10200960, Note_off_c, 2, 64, 0
2, 10200960, Note_on_c, 2, 63, 50
2, 10201200, Note_off_c, 2, 63, 0
2, 10201200, Note_on_c, 2, 62, 50
2, 10201440, Note_off_c, 2, 62, 0
2, 10202880, Note_on_c, 2, 59, 50
2, 10203120, Note_off_c, 2, 59, 0
2, 10203120, Note_on_c, 2, 68, 50
2, 10203840, Note_off_c, 2, 68, 0
2, 10203840, Note_on_c, 2, 66, 50
2, 10204560, Note_off_c, 2, 66, 0
2, 10204800, Note_on_c, 2, 64, 50
2, 10205040, Note_off_c, 2, 64, 0
2, 10205040, Note_on_c, 2, 66, 50
2, 10205760, Note_off_c, 2, 66, 0
2, 10205760, Note_on_c, 2, 64, 50
2, 10206480, Note_off_c, 2, 64, 0
2, 10206480, Note_on_c, 2, 63, 50
2, 10206720, Note_off_c, 2, 63, 0
2, 10206720, Note_on_c, 2, 64, 50
2, 10206960, Note_off_c, 2, 64, 0
2, 10206960, Note_on_c, 2, 66, 50
2, 10208880, Note_off_c, 2, 66, 0
2, 10208880, Note_on_c, 2, 64, 50
2, 10209120, Note_off_c, 2, 64, 0
2, 10209120, Note_on_c, 2, 62, 50
2, 10209360, Note_off_c, 2, 62, 0
2, 10211040, Note_on_c, 2, 59, 50
2, 10211520, Note_off_c, 2, 59, 0
2, 10211520, Note_on_c, 2, 59, 50
2, 10211760, Note_off_c, 2, 59, 0
2, 10211760, Note_on_c, 2, 59, 50
2, 10212000, Note_off_c, 2, 59, 0
2, 10212000, Note_on_c, 2, 59, 50
2, 10212240, Note_off_c, 2, 59, 0
2, 10212480, Note_on_c, 2, 59, 50
2, 10212720, Note_off_c, 2, 59, 0
2, 10212720, Note_on_c, 2, 61, 50
2, 10212960, Note_off_c, 2, 61, 0
2, 10212960, Note_on_c, 2, 57, 50
2, 10213200, Note_off_c, 2, 57, 0
2, 10213200, Note_on_c, 2, 57, 50
2, 10213440, Note_off_c, 2, 57, 0
2, 10213440, Note_on_c, 2, 57, 50
2, 10213680, Note_off_c, 2, 57, 0
2, 10214880, Note_on_c, 2, 62, 50
2, 10215120, Note_off_c, 2, 62, 0
2, 10215120, Note_on_c, 2, 62, 50
2, 10215360, Note_off_c, 2, 62, 0
2, 10215360, Note_on_c, 2, 62, 50
2, 10215600, Note_off_c, 2, 62, 0
2, 10215600, Note_on_c, 2, 62, 50
2, 10215840, Note_off_c, 2, 62, 0
2, 10215840, Note_on_c, 2, 62, 50
2, 10216080, Note_off_c, 2, 62, 0
2, 10216320, Note_on_c, 2, 62, 50
2, 10216560, Note_off_c, 2, 62, 0
2, 10216560, Note_on_c, 2, 64, 50
2, 10216800, Note_off_c, 2, 64, 0
2, 10216800, Note_on_c, 2, 59, 50
2, 10217040, Note_off_c, 2, 59, 0
2, 10217040, Note_on_c, 2, 59, 50
2, 10217280, Note_off_c, 2, 59, 0
2, 10217280, Note_on_c, 2, 59, 50
2, 10217520, Note_off_c, 2, 59, 0
2, 10218000, Note_on_c, 2, 63, 50
2, 10218240, Note_off_c, 2, 63, 0
2, 10218240, Note_on_c, 2, 64, 50
2, 10218480, Note_off_c, 2, 64, 0
2, 10218480, Note_on_c, 2, 66, 50
2, 10219440, Note_off_c, 2, 66, 0
2, 10219680, Note_on_c, 2, 66, 50
2, 10219920, Note_off_c, 2, 66, 0
2, 10219920, Note_on_c, 2, 64, 50
2, 10220160, Note_off_c, 2, 64, 0
2, 10220160, Note_on_c, 2, 63, 50
2, 10220400, Note_off_c, 2, 63, 0
2, 10220400, Note_on_c, 2, 62, 50
2, 10220640, Note_off_c, 2, 62, 0
2, 10221840, Note_on_c, 2, 62, 50
2, 10222080, Note_off_c, 2, 62, 0
2, 10222080, Note_on_c, 2, 64, 50
2, 10222320, Note_off_c, 2, 64, 0
2, 10222320, Note_on_c, 2, 66, 50
2, 10223280, Note_off_c, 2, 66, 0
2, 10223520, Note_on_c, 2, 66, 50
2, 10223760, Note_off_c, 2, 66, 0
2, 10223760, Note_on_c, 2, 64, 50
2, 10224000, Note_off_c, 2, 64, 0
2, 10224000, Note_on_c, 2, 63, 50
2, 10224240, Note_off_c, 2, 63, 0
2, 10224240, Note_on_c, 2, 62, 50
2, 10224480, Note_off_c, 2, 62, 0
2, 10225680, Note_on_c, 2, 62, 50
2, 10225920, Note_off_c, 2, 62, 0
2, 10225920, Note_on_c, 2, 64, 50
2, 10226160, Note_off_c, 2, 64, 0
2, 10226160, Note_on_c, 2, 66, 50
2, 10227120, Note_off_c, 2, 66, 0
2, 10227360, Note_on_c, 2, 66, 50
2, 10227600, Note_off_c, 2, 66, 0
2, 10227600, Note_on_c, 2, 64, 50
2, 10227840, Note_off_c, 2, 64, 0
2, 10227840, Note_on_c, 2, 63, 50
2, 10228080, Note_off_c, 2, 63, 0
2, 10228080, Note_on_c, 2, 62, 50
2, 10228320, Note_off_c, 2, 62, 0
2, 10229520, Note_on_c, 2, 62, 50
2, 10229760, Note_off_c, 2, 62, 0
2, 10229760, Note_on_c, 2, 64, 50
2, 10230000, Note_off_c, 2, 64, 0
2, 10230000, Note_on_c, 2, 66, 50
2, 10230960, Note_off_c, 2, 66, 0
2, 10231200, Note_on_c, 2, 66, 50
2, 10231440, Note_off_c, 2, 66, 0
2, 10231440, Note_on_c, 2, 64, 50
2, 10231680, Note_off_c, 2, 64, 0
2, 10231680, Note_on_c, 2, 63, 50
2, 10231920, Note_off_c, 2, 63, 0
2, 10231920, Note_on_c, 2, 62, 50
2, 10232160, Note_off_c, 2, 62, 0
2, 10233600, Note_on_c, 2, 59, 50
2, 10233840, Note_off_c, 2, 59, 0
2, 10233840, Note_on_c, 2, 68, 50
2, 10234560, Note_off_c, 2, 68, 0
2, 10234560, Note_on_c, 2, 66, 50
2, 10235280, Note_off_c, 2, 66, 0
2, 10235520, Note_on_c, 2, 64, 50
2, 10235760, Note_off_c, 2, 64, 0
2, 10235760, Note_on_c, 2, 66, 50
2, 10236480, Note_off_c, 2, 66, 0
2, 10236480, Note_on_c, 2, 64, 50
2, 10237200, Note_off_c, 2, 64, 0
2, 10237200, Note_on_c, 2, 63, 50
2, 10237440, Note_off_c, 2, 63, 0
2, 10237440, Note_on_c, 2, 64, 50
2, 10237680, Note_off_c, 2, 64, 0
2, 10237680, Note_on_c, 2, 66, 50
2, 10239600, Note_off_c, 2, 66, 0
2, 10239600, Note_on_c, 2, 64, 50
2, 10239840, Note_off_c, 2, 64, 0
2, 10239840, Note_on_c, 2, 62, 50
2, 10240080, Note_off_c, 2, 62, 0
2, 10241760, Note_on_c, 2, 59, 50
2, 10241880, Note_off_c, 2, 59, 0
2, 10241880, Note_on_c, 2, 59, 50
2, 10242000, Note_off_c, 2, 59, 0
2, 10242000, Note_on_c, 2, 59, 50
2, 10242240, Note_off_c, 2, 59, 0
2, 10242240, Note_on_c, 2, 59, 50
2, 10242480, Note_off_c, 2, 59, 0
2, 10242480, Note_on_c, 2, 59, 50
2, 10242960, Note_off_c, 2, 59, 0
2, 10243200, Note_on_c, 2, 59, 50
2, 10243440, Note_off_c, 2, 59, 0
2, 10243440, Note_on_c, 2, 61, 50
2, 10243680, Note_off_c, 2, 61, 0
2, 10243680, Note_on_c, 2, 57, 50
2, 10244160, Note_off_c, 2, 57, 0
2, 10244160, Note_on_c, 2, 57, 50
2, 10244400, Note_off_c, 2, 57, 0
2, 10245480, Note_on_c, 2, 62, 50
2, 10245600, Note_off_c, 2, 62, 0
2, 10245720, Note_on_c, 2, 62, 50
2, 10245840, Note_off_c, 2, 62, 0
2, 10245840, Note_on_c, 2, 62, 50
2, 10245960, Note_off_c, 2, 62, 0
2, 10245960, Note_on_c, 2, 62, 50
2, 10246080, Note_off_c, 2, 62, 0
2, 10246200, Note_on_c, 2, 62, 50
2, 10246320, Note_off_c, 2, 62, 0
2, 10246320, Note_on_c, 2, 62, 50
2, 10246680, Note_off_c, 2, 62, 0
2, 10246680, Note_on_c, 2, 62, 50
2, 10247040, Note_off_c, 2, 62, 0
2, 10247280, Note_on_c, 2, 64, 50
2, 10247520, Note_off_c, 2, 64, 0
2, 10247520, Note_on_c, 2, 59, 50
2, 10248000, Note_off_c, 2, 59, 0
2, 10248000, Note_on_c, 2, 59, 50
2, 10248240, Note_off_c, 2, 59, 0
2, 10248720, Note_on_c, 2, 63, 50
2, 10248960, Note_off_c, 2, 63, 0
2, 10248960, Note_on_c, 2, 64, 50
2, 10249200, Note_off_c, 2, 64, 0
2, 10249200, Note_on_c, 2, 66, 50
2, 10250160, Note_off_c, 2, 66, 0
2, 10250400, Note_on_c, 2, 66, 50
2, 10250640, Note_off_c, 2, 66, 0
2, 10250640, Note_on_c, 2, 64, 50
2, 10250880, Note_off_c, 2, 64, 0
2, 10250880, Note_on_c, 2, 63, 50
2, 10251120, Note_off_c, 2, 63, 0
2, 10251120, Note_on_c, 2, 62, 50
2, 10251360, Note_off_c, 2, 62, 0
2, 10252560, Note_on_c, 2, 62, 50
2, 10252800, Note_off_c, 2, 62, 0
2, 10252800, Note_on_c, 2, 64, 50
2, 10253040, Note_off_c, 2, 64, 0
2, 10253040, Note_on_c, 2, 66, 50
2, 10254000, Note_off_c, 2, 66, 0
2, 10254240, Note_on_c, 2, 66, 50
2, 10254480, Note_off_c, 2, 66, 0
2, 10254480, Note_on_c, 2, 64, 50
2, 10254720, Note_off_c, 2, 64, 0
2, 10254720, Note_on_c, 2, 63, 50
2, 10254960, Note_off_c, 2, 63, 0
2, 10254960, Note_on_c, 2, 62, 50
2, 10255200, Note_off_c, 2, 62, 0
2, 10256400, Note_on_c, 2, 62, 50
2, 10256640, Note_off_c, 2, 62, 0
2, 10256640, Note_on_c, 2, 64, 50
2, 10256880, Note_off_c, 2, 64, 0
2, 10256880, Note_on_c, 2, 66, 50
2, 10257840, Note_off_c, 2, 66, 0
2, 10258080, Note_on_c, 2, 66, 50
2, 10258320, Note_off_c, 2, 66, 0
2, 10258320, Note_on_c, 2, 64, 50
2, 10258560, Note_off_c, 2, 64, 0
2, 10258560, Note_on_c, 2, 63, 50
2, 10258800, Note_off_c, 2, 63, 0
2, 10258800, Note_on_c, 2, 62, 50
2, 10259040, Note_off_c, 2, 62, 0
2, 10260240, Note_on_c, 2, 62, 50
2, 10260480, Note_off_c, 2, 62, 0
2, 10260480, Note_on_c, 2, 64, 50
2, 10260720, Note_off_c, 2, 64, 0
2, 10260720, Note_on_c, 2, 66, 50
2, 10261680, Note_off_c, 2, 66, 0
2, 10261920, Note_on_c, 2, 66, 50
2, 10262160, Note_off_c, 2, 66, 0
2, 10262160, Note_on_c, 2, 64, 50
2, 10262400, Note_off_c, 2, 64, 0
2, 10262400, Note_on_c, 2, 63, 50
2, 10262640, Note_off_c, 2, 63, 0
2, 10262640, Note_on_c, 2, 62, 50
2, 10262880, Note_off_c, 2, 62, 0
2, 10264320, Note_on_c, 2, 59, 50
2, 10264560, Note_off_c, 2, 59, 0
2, 10264560, Note_on_c, 2, 68, 50
2, 10265280, Note_off_c, 2, 68, 0
2, 10265280, Note_on_c, 2, 66, 50
2, 10266000, Note_off_c, 2, 66, 0
2, 10266240, Note_on_c, 2, 64, 50
2, 10266480, Note_off_c, 2, 64, 0
2, 10266480, Note_on_c, 2, 66, 50
2, 10267200, Note_off_c, 2, 66, 0
2, 10267200, Note_on_c, 2, 64, 50
2, 10267920, Note_off_c, 2, 64, 0
2, 10267920, Note_on_c, 2, 63, 50
2, 10268160, Note_off_c, 2, 63, 0
2, 10268160, Note_on_c, 2, 64, 50
2, 10268400, Note_off_c, 2, 64, 0
2, 10268400, Note_on_c, 2, 66, 50
2, 10270320, Note_off_c, 2, 66, 0
2, 10270320, Note_on_c, 2, 64, 50
2, 10270560, Note_off_c, 2, 64, 0
2, 10270560, Note_on_c, 2, 62, 50
2, 10270800, Note_off_c, 2, 62, 0
2, 10272480, Note_on_c, 2, 59, 50
2, 10272960, Note_off_c, 2, 59, 0
2, 10272960, Note_on_c, 2, 59, 50
2, 10273080, Note_off_c, 2, 59, 0
2, 10273080, Note_on_c, 2, 59, 50
2, 10273200, Note_off_c, 2, 59, 0
2, 10273200, Note_on_c, 2, 59, 50
2, 10273680, Note_off_c, 2, 59, 0
2, 10273680, Note_on_c, 2, 59, 50
2, 10273920, Note_off_c, 2, 59, 0
2, 10273920, Note_on_c, 2, 59, 50
2, 10274160, Note_off_c, 2, 59, 0
2, 10274160, Note_on_c, 2, 61, 50
2, 10274400, Note_off_c, 2, 61, 0
2, 10274400, Note_on_c, 2, 57, 50
2, 10274640, Note_off_c, 2, 57, 0
2, 10274640, Note_on_c, 2, 57, 50
2, 10274880, Note_off_c, 2, 57, 0
2, 10274880, Note_on_c, 2, 57, 50
2, 10275120, Note_off_c, 2, 57, 0
2, 10276320, Note_on_c, 2, 62, 50
2, 10276560, Note_off_c, 2, 62, 0
2, 10276560, Note_on_c, 2, 62, 50
2, 10276800, Note_off_c, 2, 62, 0
2, 10276800, Note_on_c, 2, 62, 50
2, 10277040, Note_off_c, 2, 62, 0
2, 10277040, Note_on_c, 2, 62, 50
2, 10277520, Note_off_c, 2, 62, 0
2, 10277760, Note_on_c, 2, 62, 50
2, 10277880, Note_off_c, 2, 62, 0
2, 10277880, Note_on_c, 2, 62, 50
2, 10278000, Note_off_c, 2, 62, 0
2, 10278000, Note_on_c, 2, 64, 50
2, 10278240, Note_off_c, 2, 64, 0
2, 10278240, Note_on_c, 2, 59, 50
2, 10278480, Note_off_c, 2, 59, 0
2, 10278480, Note_on_c, 2, 59, 50
2, 10278720, Note_off_c, 2, 59, 0
2, 10278720, Note_on_c, 2, 59, 50
2, 10278960, Note_off_c, 2, 59, 0
2, 10279440, Note_on_c, 2, 63, 50
2, 10279680, Note_off_c, 2, 63, 0
2, 10279680, Note_on_c, 2, 64, 50
2, 10279920, Note_off_c, 2, 64, 0
2, 10279920, Note_on_c, 2, 66, 50
2, 10280880, Note_off_c, 2, 66, 0
2, 10281120, Note_on_c, 2, 66, 50
2, 10281360, Note_off_c, 2, 66, 0
2, 10281360, Note_on_c, 2, 64, 50
2, 10281600, Note_off_c, 2, 64, 0
2, 10281600, Note_on_c, 2, 63, 50
2, 10281840, Note_off_c, 2, 63, 0
2, 10281840, Note_on_c, 2, 62, 50
2, 10282080, Note_off_c, 2, 62, 0
2, 10283280, Note_on_c, 2, 62, 50
2, 10283520, Note_off_c, 2, 62, 0
2, 10283520, Note_on_c, 2, 64, 50
2, 10283760, Note_off_c, 2, 64, 0
2, 10283760, Note_on_c, 2, 66, 50
2, 10284720, Note_off_c, 2, 66, 0
2, 10284960, Note_on_c, 2, 66, 50
2, 10285200, Note_off_c, 2, 66, 0
2, 10285200, Note_on_c, 2, 64, 50
2, 10285440, Note_off_c, 2, 64, 0
2, 10285440, Note_on_c, 2, 63, 50
2, 10285680, Note_off_c, 2, 63, 0
2, 10285680, Note_on_c, 2, 62, 50
2, 10285920, Note_off_c, 2, 62, 0
2, 10287120, Note_on_c, 2, 62, 50
2, 10287360, Note_off_c, 2, 62, 0
2, 10287360, Note_on_c, 2, 64, 50
2, 10287600, Note_off_c, 2, 64, 0
2, 10287600, Note_on_c, 2, 66, 50
2, 10288560, Note_off_c, 2, 66, 0
2, 10288800, Note_on_c, 2, 66, 50
2, 10289040, Note_off_c, 2, 66, 0
2, 10289040, Note_on_c, 2, 64, 50
2, 10289280, Note_off_c, 2, 64, 0
2, 10289280, Note_on_c, 2, 63, 50
2, 10289520, Note_off_c, 2, 63, 0
2, 10289520, Note_on_c, 2, 62, 50
2, 10289760, Note_off_c, 2, 62, 0
2, 10290960, Note_on_c, 2, 62, 50
2, 10291200, Note_off_c, 2, 62, 0
2, 10291200, Note_on_c, 2, 64, 50
2, 10291440, Note_off_c, 2, 64, 0
2, 10291440, Note_on_c, 2, 66, 50
2, 10292400, Note_off_c, 2, 66, 0
2, 10292640, Note_on_c, 2, 66, 50
2, 10292880, Note_off_c, 2, 66, 0
2, 10292880, Note_on_c, 2, 64, 50
2, 10293120, Note_off_c, 2, 64, 0
2, 10293120, Note_on_c, 2, 63, 50
2, 10293360, Note_off_c, 2, 63, 0
2, 10293360, Note_on_c, 2, 62, 50
2, 10293600, Note_off_c, 2, 62, 0
2, 10295040, Note_on_c, 2, 59, 50
2, 10295280, Note_off_c, 2, 59, 0
2, 10295280, Note_on_c, 2, 68, 50
2, 10296000, Note_off_c, 2, 68, 0
2, 10296000, Note_on_c, 2, 66, 50
2, 10296720, Note_off_c, 2, 66, 0
2, 10296960, Note_on_c, 2, 64, 50
2, 10297200, Note_off_c, 2, 64, 0
2, 10297200, Note_on_c, 2, 66, 50
2, 10297920, Note_off_c, 2, 66, 0
2, 10297920, Note_on_c, 2, 64, 50
2, 10298640, Note_off_c, 2, 64, 0
2, 10298640, Note_on_c, 2, 63, 50
2, 10298880, Note_off_c, 2, 63, 0
2, 10298880, Note_on_c, 2, 64, 50
2, 10299120, Note_off_c, 2, 64, 0
2, 10299120, Note_on_c, 2, 66, 50
2, 10301040, Note_off_c, 2, 66, 0
2, 10301040, Note_on_c, 2, 64, 50
2, 10301280, Note_off_c, 2, 64, 0
2, 10301280, Note_on_c, 2, 62, 50
2, 10301520, Note_off_c, 2, 62, 0
2, 10314000, Note_on_c, 2, 62, 50
2, 10314240, Note_off_c, 2, 62, 0
2, 10314240, Note_on_c, 2, 64, 50
2, 10314480, Note_off_c, 2, 64, 0
2, 10314480, Note_on_c, 2, 66, 50
2, 10316400, Note_off_c, 2, 66, 0
2, 10316400, Note_on_c, 2, 64, 50
2, 10316640, Note_off_c, 2, 64, 0
2, 10316640, Note_on_c, 2, 62, 50
2, 10316880, Note_off_c, 2, 62, 0
2, 10317840, Note_on_c, 2, 62, 50
2, 10318080, Note_off_c, 2, 62, 0
2, 10318080, Note_on_c, 2, 64, 50
2, 10318320, Note_off_c, 2, 64, 0
2, 10318320, Note_on_c, 2, 66, 50
2, 10320240, Note_off_c, 2, 66, 0
2, 10320240, Note_on_c, 2, 64, 50
2, 10320480, Note_off_c, 2, 64, 0
2, 10320480, Note_on_c, 2, 62, 50
2, 10320720, Note_off_c, 2, 62, 0
2, 10321680, Note_on_c, 2, 62, 50
2, 10321920, Note_off_c, 2, 62, 0
2, 10321920, Note_on_c, 2, 64, 50
2, 10322160, Note_off_c, 2, 64, 0
2, 10322160, Note_on_c, 2, 66, 50
2, 10324080, Note_off_c, 2, 66, 0
2, 10324080, Note_on_c, 2, 64, 50
2, 10324320, Note_off_c, 2, 64, 0
2, 10324320, Note_on_c, 2, 62, 50
2, 10324560, Note_off_c, 2, 62, 0
2, 10325520, Note_on_c, 2, 62, 50
2, 10325760, Note_off_c, 2, 62, 0
2, 10325760, Note_on_c, 2, 62, 50
2, 10326000, Note_off_c, 2, 62, 0
2, 10326000, Note_on_c, 2, 62, 50
2, 10326720, Note_off_c, 2, 62, 0
2, 10326720, Note_on_c, 2, 62, 50
2, 10327920, Note_off_c, 2, 62, 0
2, 10327920, Note_on_c, 2, 62, 50
2, 10328640, Note_off_c, 2, 62, 0
2, 10328640, Note_on_c, 2, 62, 50
2, 10329840, Note_off_c, 2, 62, 0
2, 10329840, Note_on_c, 2, 61, 50
2, 10330080, Note_off_c, 2, 61, 0
2, 10330080, Note_on_c, 2, 59, 50
2, 10330320, Note_off_c, 2, 59, 0
2, 10344720, Note_on_c, 2, 62, 50
2, 10344960, Note_off_c, 2, 62, 0
2, 10344960, Note_on_c, 2, 64, 50
2, 10345200, Note_off_c, 2, 64, 0
2, 10345200, Note_on_c, 2, 66, 50
2, 10347120, Note_off_c, 2, 66, 0
2, 10347120, Note_on_c, 2, 64, 50
2, 10347360, Note_off_c, 2, 64, 0
2, 10347360, Note_on_c, 2, 62, 50
2, 10347600, Note_off_c, 2, 62, 0
2, 10348560, Note_on_c, 2, 62, 50
2, 10348800, Note_off_c, 2, 62, 0
2, 10348800, Note_on_c, 2, 64, 50
2, 10349040, Note_off_c, 2, 64, 0
2, 10349040, Note_on_c, 2, 66, 50
2, 10350960, Note_off_c, 2, 66, 0
2, 10350960, Note_on_c, 2, 64, 50
2, 10351200, Note_off_c, 2, 64, 0
2, 10351200, Note_on_c, 2, 62, 50
2, 10351440, Note_off_c, 2, 62, 0
2, 10352400, Note_on_c, 2, 62, 50
2, 10352640, Note_off_c, 2, 62, 0
2, 10352640, Note_on_c, 2, 64, 50
2, 10352880, Note_off_c, 2, 64, 0
2, 10352880, Note_on_c, 2, 66, 50
2, 10354800, Note_off_c, 2, 66, 0
2, 10354800, Note_on_c, 2, 64, 50
2, 10355040, Note_off_c, 2, 64, 0
2, 10355040, Note_on_c, 2, 62, 50
2, 10355280, Note_off_c, 2, 62, 0
2, 10356240, Note_on_c, 2, 62, 50
2, 10356480, Note_off_c, 2, 62, 0
2, 10356480, Note_on_c, 2, 62, 50
2, 10356720, Note_off_c, 2, 62, 0
2, 10356720, Note_on_c, 2, 62, 50
2, 10357440, Note_off_c, 2, 62, 0
2, 10357440, Note_on_c, 2, 62, 50
2, 10358640, Note_off_c, 2, 62, 0
2, 10358640, Note_on_c, 2, 62, 50
2, 10359360, Note_off_c, 2, 62, 0
2, 10359360, Note_on_c, 2, 62, 50
2, 10360560, Note_off_c, 2, 62, 0
2, 10360560, Note_on_c, 2, 61, 50
2, 10360800, Note_off_c, 2, 61, 0
2, 10360800, Note_on_c, 2, 59, 50
2, 10361040, Note_off_c, 2, 59, 0
2, 10380240, Note_on_c, 2, 66, 50
2, 10380480, Note_off_c, 2, 66, 0
2, 10380480, Note_on_c, 2, 69, 50
2, 10381200, Note_off_c, 2, 69, 0
2, 10381200, Note_on_c, 2, 66, 50
2, 10381440, Note_off_c, 2, 66, 0
2, 10381440, Note_on_c, 2, 64, 50
2, 10381920, Note_off_c, 2, 64, 0
2, 10381920, Note_on_c, 2, 66, 50
2, 10382880, Note_off_c, 2, 66, 0
2, 10382880, Note_on_c, 2, 61, 50
2, 10383600, Note_off_c, 2, 61, 0
2, 10384080, Note_on_c, 2, 66, 50
2, 10384320, Note_off_c, 2, 66, 0
2, 10384320, Note_on_c, 2, 69, 50
2, 10385040, Note_off_c, 2, 69, 0
2, 10385040, Note_on_c, 2, 66, 50
2, 10385280, Note_off_c, 2, 66, 0
2, 10385280, Note_on_c, 2, 64, 50
2, 10385760, Note_off_c, 2, 64, 0
2, 10385760, Note_on_c, 2, 66, 50
2, 10386960, Note_off_c, 2, 66, 0
2, 10387920, Note_on_c, 2, 66, 50
2, 10388160, Note_off_c, 2, 66, 0
2, 10388160, Note_on_c, 2, 69, 50
2, 10388880, Note_off_c, 2, 69, 0
2, 10388880, Note_on_c, 2, 66, 50
2, 10389120, Note_off_c, 2, 66, 0
2, 10389120, Note_on_c, 2, 64, 50
2, 10389600, Note_off_c, 2, 64, 0
2, 10389600, Note_on_c, 2, 66, 50
2, 10390560, Note_off_c, 2, 66, 0
2, 10390560, Note_on_c, 2, 61, 50
2, 10391280, Note_off_c, 2, 61, 0
2, 10391760, Note_on_c, 2, 66, 50
2, 10392000, Note_off_c, 2, 66, 0
2, 10392000, Note_on_c, 2, 69, 50
2, 10392720, Note_off_c, 2, 69, 0
2, 10392720, Note_on_c, 2, 66, 50
2, 10392960, Note_off_c, 2, 66, 0
2, 10392960, Note_on_c, 2, 64, 50
2, 10393440, Note_off_c, 2, 64, 0
2, 10393440, Note_on_c, 2, 66, 50
2, 10394640, Note_off_c, 2, 66, 0
2, 10395600, Note_on_c, 2, 73, 50
2, 10395840, Note_off_c, 2, 73, 0
2, 10395840, Note_on_c, 2, 73, 50
2, 10396800, Note_off_c, 2, 73, 0
2, 10396800, Note_on_c, 2, 73, 50
2, 10397040, Note_off_c, 2, 73, 0
2, 10397040, Note_on_c, 2, 72, 50
2, 10397280, Note_off_c, 2, 72, 0
2, 10397280, Note_on_c, 2, 71, 50
2, 10398240, Note_off_c, 2, 71, 0
2, 10398240, Note_on_c, 2, 71, 50
2, 10398960, Note_off_c, 2, 71, 0
2, 10399440, Note_on_c, 2, 69, 50
2, 10399680, Note_off_c, 2, 69, 0
2, 10399680, Note_on_c, 2, 69, 50
2, 10400160, Note_off_c, 2, 69, 0
2, 10400160, Note_on_c, 2, 69, 50
2, 10400640, Note_off_c, 2, 69, 0
2, 10400640, Note_on_c, 2, 66, 50
2, 10401120, Note_off_c, 2, 66, 0
2, 10401120, Note_on_c, 2, 69, 50
2, 10401360, Note_off_c, 2, 69, 0
2, 10401360, Note_on_c, 2, 71, 50
2, 10401840, Note_off_c, 2, 71, 0
2, 10401840, Note_on_c, 2, 71, 50
2, 10402080, Note_off_c, 2, 71, 0
2, 10402080, Note_on_c, 2, 71, 50
2, 10402800, Note_off_c, 2, 71, 0
2, 10403280, Note_on_c, 2, 66, 50
2, 10403520, Note_off_c, 2, 66, 0
2, 10403520, Note_on_c, 2, 69, 50
2, 10404240, Note_off_c, 2, 69, 0
2, 10404240, Note_on_c, 2, 66, 50
2, 10404480, Note_off_c, 2, 66, 0
2, 10404480, Note_on_c, 2, 64, 50
2, 10404960, Note_off_c, 2, 64, 0
2, 10404960, Note_on_c, 2, 66, 50
2, 10405920, Note_off_c, 2, 66, 0
2, 10405920, Note_on_c, 2, 61, 50
2, 10406640, Note_off_c, 2, 61, 0
2, 10407120, Note_on_c, 2, 66, 50
2, 10407360, Note_off_c, 2, 66, 0
2, 10407360, Note_on_c, 2, 69, 50
2, 10408080, Note_off_c, 2, 69, 0
2, 10408080, Note_on_c, 2, 66, 50
2, 10408320, Note_off_c, 2, 66, 0
2, 10408320, Note_on_c, 2, 64, 50
2, 10408800, Note_off_c, 2, 64, 0
2, 10408800, Note_on_c, 2, 66, 50
2, 10410480, Note_off_c, 2, 66, 0
2, 10412880, Note_on_c, 2, 66, 50
2, 10413120, Note_off_c, 2, 66, 0
2, 10413120, Note_on_c, 2, 69, 50
2, 10413840, Note_off_c, 2, 69, 0
2, 10413840, Note_on_c, 2, 66, 50
2, 10414080, Note_off_c, 2, 66, 0
2, 10414080, Note_on_c, 2, 64, 50
2, 10414560, Note_off_c, 2, 64, 0
2, 10414560, Note_on_c, 2, 66, 50
2, 10415520, Note_off_c, 2, 66, 0
2, 10415520, Note_on_c, 2, 61, 50
2, 10416240, Note_off_c, 2, 61, 0
2, 10416720, Note_on_c, 2, 66, 50
2, 10416960, Note_off_c, 2, 66, 0
2, 10416960, Note_on_c, 2, 69, 50
2, 10417680, Note_off_c, 2, 69, 0
2, 10417680, Note_on_c, 2, 66, 50
2, 10417920, Note_off_c, 2, 66, 0
2, 10417920, Note_on_c, 2, 64, 50
2, 10418400, Note_off_c, 2, 64, 0
2, 10418400, Note_on_c, 2, 66, 50
2, 10419600, Note_off_c, 2, 66, 0
2, 10420560, Note_on_c, 2, 66, 50
2, 10420800, Note_off_c, 2, 66, 0
2, 10420800, Note_on_c, 2, 69, 50
2, 10421520, Note_off_c, 2, 69, 0
2, 10421520, Note_on_c, 2, 66, 50
2, 10421760, Note_off_c, 2, 66, 0
2, 10421760, Note_on_c, 2, 64, 50
2, 10422240, Note_off_c, 2, 64, 0
2, 10422240, Note_on_c, 2, 66, 50
2, 10423200, Note_off_c, 2, 66, 0
2, 10423200, Note_on_c, 2, 61, 50
2, 10423920, Note_off_c, 2, 61, 0
2, 10424400, Note_on_c, 2, 66, 50
2, 10424640, Note_off_c, 2, 66, 0
2, 10424640, Note_on_c, 2, 69, 50
2, 10425360, Note_off_c, 2, 69, 0
2, 10425360, Note_on_c, 2, 66, 50
2, 10425600, Note_off_c, 2, 66, 0
2, 10425600, Note_on_c, 2, 64, 50
2, 10426080, Note_off_c, 2, 64, 0
2, 10426080, Note_on_c, 2, 66, 50
2, 10427280, Note_off_c, 2, 66, 0
2, 10428240, Note_on_c, 2, 73, 50
2, 10428480, Note_off_c, 2, 73, 0
2, 10428480, Note_on_c, 2, 73, 50
2, 10429440, Note_off_c, 2, 73, 0
2, 10429440, Note_on_c, 2, 73, 50
2, 10429680, Note_off_c, 2, 73, 0
2, 10429680, Note_on_c, 2, 72, 50
2, 10429920, Note_off_c, 2, 72, 0
2, 10429920, Note_on_c, 2, 71, 50
2, 10430880, Note_off_c, 2, 71, 0
2, 10430880, Note_on_c, 2, 71, 50
2, 10431600, Note_off_c, 2, 71, 0
2, 10432320, Note_on_c, 2, 69, 50
2, 10432560, Note_off_c, 2, 69, 0
2, 10432560, Note_on_c, 2, 69, 50
2, 10432800, Note_off_c, 2, 69, 0
2, 10432800, Note_on_c, 2, 69, 50
2, 10433520, Note_off_c, 2, 69, 0
2, 10433520, Note_on_c, 2, 66, 50
2, 10433760, Note_off_c, 2, 66, 0
2, 10433760, Note_on_c, 2, 69, 50
2, 10434000, Note_off_c, 2, 69, 0
2, 10434000, Note_on_c, 2, 71, 50
2, 10434240, Note_off_c, 2, 71, 0
2, 10434240, Note_on_c, 2, 71, 50
2, 10434720, Note_off_c, 2, 71, 0
2, 10434720, Note_on_c, 2, 71, 50
2, 10435440, Note_off_c, 2, 71, 0
2, 10435920, Note_on_c, 2, 66, 50
2, 10436160, Note_off_c, 2, 66, 0
2, 10436160, Note_on_c, 2, 69, 50
2, 10436880, Note_off_c, 2, 69, 0
2, 10436880, Note_on_c, 2, 66, 50
2, 10437120, Note_off_c, 2, 66, 0
2, 10437120, Note_on_c, 2, 64, 50
2, 10437600, Note_off_c, 2, 64, 0
2, 10437600, Note_on_c, 2, 66, 50
2, 10438560, Note_off_c, 2, 66, 0
2, 10438560, Note_on_c, 2, 61, 50
2, 10439280, Note_off_c, 2, 61, 0
2, 10439760, Note_on_c, 2, 66, 50
2, 10440000, Note_off_c, 2, 66, 0
2, 10440000, Note_on_c, 2, 69, 50
2, 10440720, Note_off_c, 2, 69, 0
2, 10440720, Note_on_c, 2, 66, 50
2, 10440960, Note_off_c, 2, 66, 0
2, 10440960, Note_on_c, 2, 64, 50
2, 10441440, Note_off_c, 2, 64, 0
2, 10441440, Note_on_c, 2, 66, 50
2, 10443120, Note_off_c, 2, 66, 0
2, 10443600, Note_on_c, 2, 66, 50
2, 10443840, Note_off_c, 2, 66, 0
2, 10443840, Note_on_c, 2, 66, 50
2, 10444320, Note_off_c, 2, 66, 0
2, 10444320, Note_on_c, 2, 66, 50
2, 10444800, Note_off_c, 2, 66, 0
2, 10444800, Note_on_c, 2, 70, 50
2, 10445280, Note_off_c, 2, 70, 0
2, 10445280, Note_on_c, 2, 71, 50
2, 10445760, Note_off_c, 2, 71, 0
2, 10445760, Note_on_c, 2, 69, 50
2, 10446240, Note_off_c, 2, 69, 0
2, 10446240, Note_on_c, 2, 66, 50
2, 10446960, Note_off_c, 2, 66, 0
2, 10447440, Note_on_c, 2, 72, 50
2, 10447680, Note_off_c, 2, 72, 0
2, 10447680, Note_on_c, 2, 72, 50
2, 10448160, Note_off_c, 2, 72, 0
2, 10448160, Note_on_c, 2, 72, 50
2, 10448640, Note_off_c, 2, 72, 0
2, 10448640, Note_on_c, 2, 68, 50
2, 10449120, Note_off_c, 2, 68, 0
2, 10449120, Note_on_c, 2, 71, 50
2, 10449840, Note_off_c, 2, 71, 0
2, 10449840, Note_on_c, 2, 71, 50
2, 10450080, Note_off_c, 2, 71, 0
2, 10450080, Note_on_c, 2, 69, 50
2, 10450320, Note_off_c, 2, 69, 0
2, 10450320, Note_on_c, 2, 71, 50
2, 10450560, Note_off_c, 2, 71, 0
2, 10450560, Note_on_c, 2, 69, 50
2, 10451040, Note_off_c, 2, 69, 0
2, 10451040, Note_on_c, 2, 66, 50
2, 10451760, Note_off_c, 2, 66, 0
2, 10452000, Note_on_c, 2, 61, 50
2, 10452240, Note_off_c, 2, 61, 0
2, 10452240, Note_on_c, 2, 66, 50
2, 10452480, Note_off_c, 2, 66, 0
2, 10452480, Note_on_c, 2, 70, 50
2, 10452960, Note_off_c, 2, 70, 0
2, 10452960, Note_on_c, 2, 71, 50
2, 10453440, Note_off_c, 2, 71, 0
2, 10453440, Note_on_c, 2, 69, 50
2, 10453920, Note_off_c, 2, 69, 0
2, 10453920, Note_on_c, 2, 66, 50
2, 10454640, Note_off_c, 2, 66, 0
2, 10455120, Note_on_c, 2, 72, 50
2, 10455360, Note_off_c, 2, 72, 0
2, 10455360, Note_on_c, 2, 72, 50
2, 10455840, Note_off_c, 2, 72, 0
2, 10455840, Note_on_c, 2, 72, 50
2, 10456320, Note_off_c, 2, 72, 0
2, 10456320, Note_on_c, 2, 68, 50
2, 10456800, Note_off_c, 2, 68, 0
2, 10456800, Note_on_c, 2, 71, 50
2, 10457520, Note_off_c, 2, 71, 0
2, 10457520, Note_on_c, 2, 71, 50
2, 10458000, Note_off_c, 2, 71, 0
2, 10458000, Note_on_c, 2, 71, 50
2, 10458240, Note_off_c, 2, 71, 0
2, 10458240, Note_on_c, 2, 69, 50
2, 10458720, Note_off_c, 2, 69, 0
2, 10458720, Note_on_c, 2, 66, 50
2, 10458960, Note_off_c, 2, 66, 0
2, 10459440, Note_on_c, 2, 69, 50
2, 10459920, Note_off_c, 2, 69, 0
2, 10459920, Note_on_c, 2, 66, 50
2, 10460160, Note_off_c, 2, 66, 0
2, 10460160, Note_on_c, 2, 64, 50
2, 10460640, Note_off_c, 2, 64, 0
2, 10460640, Note_on_c, 2, 66, 50
2, 10461600, Note_off_c, 2, 66, 0
2, 10461600, Note_on_c, 2, 61, 50
2, 10462320, Note_off_c, 2, 61, 0
2, 10462800, Note_on_c, 2, 66, 50
2, 10463040, Note_off_c, 2, 66, 0
2, 10463040, Note_on_c, 2, 69, 50
2, 10463760, Note_off_c, 2, 69, 0
2, 10463760, Note_on_c, 2, 66, 50
2, 10464000, Note_off_c, 2, 66, 0
2, 10464000, Note_on_c, 2, 64, 50
2, 10464480, Note_off_c, 2, 64, 0
2, 10464480, Note_on_c, 2, 66, 50
2, 10465680, Note_off_c, 2, 66, 0
2, 10466640, Note_on_c, 2, 66, 50
2, 10466880, Note_off_c, 2, 66, 0
2, 10466880, Note_on_c, 2, 69, 50
2, 10467600, Note_off_c, 2, 69, 0
2, 10467600, Note_on_c, 2, 66, 50
2, 10467840, Note_off_c, 2, 66, 0
2, 10467840, Note_on_c, 2, 64, 50
2, 10468320, Note_off_c, 2, 64, 0
2, 10468320, Note_on_c, 2, 66, 50
2, 10469280, Note_off_c, 2, 66, 0
2, 10469280, Note_on_c, 2, 61, 50
2, 10470000, Note_off_c, 2, 61, 0
2, 10470480, Note_on_c, 2, 66, 50
2, 10470720, Note_off_c, 2, 66, 0
2, 10470720, Note_on_c, 2, 69, 50
2, 10471440, Note_off_c, 2, 69, 0
2, 10471440, Note_on_c, 2, 66, 50
2, 10471680, Note_off_c, 2, 66, 0
2, 10471680, Note_on_c, 2, 64, 50
2, 10472160, Note_off_c, 2, 64, 0
2, 10472160, Note_on_c, 2, 66, 50
2, 10473360, Note_off_c, 2, 66, 0
2, 10474320, Note_on_c, 2, 73, 50
2, 10474560, Note_off_c, 2, 73, 0
2, 10474560, Note_on_c, 2, 73, 50
2, 10475280, Note_off_c, 2, 73, 0
2, 10475280, Note_on_c, 2, 73, 50
2, 10475760, Note_off_c, 2, 73, 0
2, 10475760, Note_on_c, 2, 72, 50
2, 10476000, Note_off_c, 2, 72, 0
2, 10476000, Note_on_c, 2, 71, 50
2, 10476960, Note_off_c, 2, 71, 0
2, 10476960, Note_on_c, 2, 71, 50
2, 10477680, Note_off_c, 2, 71, 0
2, 10478160, Note_on_c, 2, 69, 50
2, 10478400, Note_off_c, 2, 69, 0
2, 10478400, Note_on_c, 2, 69, 50
2, 10478880, Note_off_c, 2, 69, 0
2, 10478880, Note_on_c, 2, 69, 50
2, 10479600, Note_off_c, 2, 69, 0
2, 10479600, Note_on_c, 2, 66, 50
2, 10479840, Note_off_c, 2, 66, 0
2, 10479840, Note_on_c, 2, 69, 50
2, 10480080, Note_off_c, 2, 69, 0
2, 10480080, Note_on_c, 2, 71, 50
2, 10480320, Note_off_c, 2, 71, 0
2, 10480320, Note_on_c, 2, 71, 50
2, 10480800, Note_off_c, 2, 71, 0
2, 10480800, Note_on_c, 2, 71, 50
2, 10481520, Note_off_c, 2, 71, 0
2, 10482000, Note_on_c, 2, 66, 50
2, 10482240, Note_off_c, 2, 66, 0
2, 10482240, Note_on_c, 2, 69, 50
2, 10482960, Note_off_c, 2, 69, 0
2, 10482960, Note_on_c, 2, 66, 50
2, 10483200, Note_off_c, 2, 66, 0
2, 10483200, Note_on_c, 2, 64, 50
2, 10483680, Note_off_c, 2, 64, 0
2, 10483680, Note_on_c, 2, 66, 50
2, 10484640, Note_off_c, 2, 66, 0
2, 10484640, Note_on_c, 2, 61, 50
2, 10485360, Note_off_c, 2, 61, 0
2, 10485840, Note_on_c, 2, 66, 50
2, 10486080, Note_off_c, 2, 66, 0
2, 10486080, Note_on_c, 2, 69, 50
2, 10486800, Note_off_c, 2, 69, 0
2, 10486800, Note_on_c, 2, 66, 50
2, 10487040, Note_off_c, 2, 66, 0
2, 10487040, Note_on_c, 2, 64, 50
2, 10487520, Note_off_c, 2, 64, 0
2, 10487520, Note_on_c, 2, 66, 50
2, 10489200, Note_off_c, 2, 66, 0
2, 10489680, Note_on_c, 2, 66, 50
2, 10489920, Note_off_c, 2, 66, 0
2, 10489920, Note_on_c, 2, 66, 50
2, 10490400, Note_off_c, 2, 66, 0
2, 10490400, Note_on_c, 2, 66, 50
2, 10490880, Note_off_c, 2, 66, 0
2, 10490880, Note_on_c, 2, 70, 50
2, 10491360, Note_off_c, 2, 70, 0
2, 10491360, Note_on_c, 2, 71, 50
2, 10491840, Note_off_c, 2, 71, 0
2, 10491840, Note_on_c, 2, 69, 50
2, 10492320, Note_off_c, 2, 69, 0
2, 10492320, Note_on_c, 2, 66, 50
2, 10493040, Note_off_c, 2, 66, 0
2, 10493520, Note_on_c, 2, 72, 50
2, 10493760, Note_off_c, 2, 72, 0
2, 10493760, Note_on_c, 2, 72, 50
2, 10494240, Note_off_c, 2, 72, 0
2, 10494240, Note_on_c, 2, 72, 50
2, 10494720, Note_off_c, 2, 72, 0
2, 10494720, Note_on_c, 2, 68, 50
2, 10495200, Note_off_c, 2, 68, 0
2, 10495200, Note_on_c, 2, 71, 50
2, 10495920, Note_off_c, 2, 71, 0
2, 10495920, Note_on_c, 2, 71, 50
2, 10496160, Note_off_c, 2, 71, 0
2, 10496160, Note_on_c, 2, 69, 50
2, 10496400, Note_off_c, 2, 69, 0
2, 10496400, Note_on_c, 2, 71, 50
2, 10496640, Note_off_c, 2, 71, 0
2, 10496640, Note_on_c, 2, 69, 50
2, 10497120, Note_off_c, 2, 69, 0
2, 10497120, Note_on_c, 2, 66, 50
2, 10497840, Note_off_c, 2, 66, 0
2, 10498080, Note_on_c, 2, 61, 50
2, 10498320, Note_off_c, 2, 61, 0
2, 10498320, Note_on_c, 2, 66, 50
2, 10498560, Note_off_c, 2, 66, 0
2, 10498560, Note_on_c, 2, 70, 50
2, 10499040, Note_off_c, 2, 70, 0
2, 10499040, Note_on_c, 2, 71, 50
2, 10499520, Note_off_c, 2, 71, 0
2, 10499520, Note_on_c, 2, 69, 50
2, 10500000, Note_off_c, 2, 69, 0
2, 10500000, Note_on_c, 2, 66, 50
2, 10500720, Note_off_c, 2, 66, 0
2, 10501200, Note_on_c, 2, 72, 50
2, 10501440, Note_off_c, 2, 72, 0
2, 10501440, Note_on_c, 2, 72, 50
2, 10501920, Note_off_c, 2, 72, 0
2, 10501920, Note_on_c, 2, 72, 50
2, 10502400, Note_off_c, 2, 72, 0
2, 10502400, Note_on_c, 2, 68, 50
2, 10502880, Note_off_c, 2, 68, 0
2, 10502880, Note_on_c, 2, 71, 50
2, 10503600, Note_off_c, 2, 71, 0
2, 10503600, Note_on_c, 2, 71, 50
2, 10504080, Note_off_c, 2, 71, 0
2, 10504080, Note_on_c, 2, 71, 50
2, 10504320, Note_off_c, 2, 71, 0
2, 10504320, Note_on_c, 2, 69, 50
2, 10504800, Note_off_c, 2, 69, 0
2, 10504800, Note_on_c, 2, 66, 50
2, 10505040, Note_off_c, 2, 66, 0
2, 10505520, Note_on_c, 2, 69, 50
2, 10506000, Note_off_c, 2, 69, 0
2, 10506000, Note_on_c, 2, 66, 50
2, 10506240, Note_off_c, 2, 66, 0
2, 10506240, Note_on_c, 2, 64, 50
2, 10506720, Note_off_c, 2, 64, 0
2, 10506720, Note_on_c, 2, 66, 50
2, 10507680, Note_off_c, 2, 66, 0
2, 10507680, Note_on_c, 2, 61, 50
2, 10508400, Note_off_c, 2, 61, 0
2, 10508880, Note_on_c, 2, 66, 50
2, 10509120, Note_off_c, 2, 66, 0
2, 10509120, Note_on_c, 2, 69, 50
2, 10509840, Note_off_c, 2, 69, 0
2, 10509840, Note_on_c, 2, 66, 50
2, 10510080, Note_off_c, 2, 66, 0
2, 10510080, Note_on_c, 2, 64, 50
2, 10510560, Note_off_c, 2, 64, 0
2, 10510560, Note_on_c, 2, 66, 50
2, 10511760, Note_off_c, 2, 66, 0
2, 10512720, Note_on_c, 2, 66, 50
2, 10512960, Note_off_c, 2, 66, 0
2, 10512960, Note_on_c, 2, 69, 50
2, 10513680, Note_off_c, 2, 69, 0
2, 10513680, Note_on_c, 2, 66, 50
2, 10513920, Note_off_c, 2, 66, 0
2, 10513920, Note_on_c, 2, 64, 50
2, 10514400, Note_off_c, 2, 64, 0
2, 10514400, Note_on_c, 2, 66, 50
2, 10515360, Note_off_c, 2, 66, 0
2, 10515360, Note_on_c, 2, 61, 50
2, 10516080, Note_off_c, 2, 61, 0
2, 10516560, Note_on_c, 2, 66, 50
2, 10516800, Note_off_c, 2, 66, 0
2, 10516800, Note_on_c, 2, 69, 50
2, 10517520, Note_off_c, 2, 69, 0
2, 10517520, Note_on_c, 2, 66, 50
2, 10517760, Note_off_c, 2, 66, 0
2, 10517760, Note_on_c, 2, 64, 50
2, 10518240, Note_off_c, 2, 64, 0
2, 10518240, Note_on_c, 2, 66, 50
2, 10519440, Note_off_c, 2, 66, 0
2, 10520400, Note_on_c, 2, 73, 50
2, 10520640, Note_off_c, 2, 73, 0
2, 10520640, Note_on_c, 2, 73, 50
2, 10521360, Note_off_c, 2, 73, 0
2, 10521360, Note_on_c, 2, 73, 50
2, 10521840, Note_off_c, 2, 73, 0
2, 10521840, Note_on_c, 2, 72, 50
2, 10522080, Note_off_c, 2, 72, 0
2, 10522080, Note_on_c, 2, 71, 50
2, 10523040, Note_off_c, 2, 71, 0
2, 10523040, Note_on_c, 2, 71, 50
2, 10523760, Note_off_c, 2, 71, 0
2, 10524240, Note_on_c, 2, 69, 50
2, 10524480, Note_off_c, 2, 69, 0
2, 10524480, Note_on_c, 2, 69, 50
2, 10524960, Note_off_c, 2, 69, 0
2, 10524960, Note_on_c, 2, 69, 50
2, 10525680, Note_off_c, 2, 69, 0
2, 10525680, Note_on_c, 2, 66, 50
2, 10525920, Note_off_c, 2, 66, 0
2, 10525920, Note_on_c, 2, 69, 50
2, 10526160, Note_off_c, 2, 69, 0
2, 10526160, Note_on_c, 2, 71, 50
2, 10526400, Note_off_c, 2, 71, 0
2, 10526400, Note_on_c, 2, 71, 50
2, 10526880, Note_off_c, 2, 71, 0
2, 10526880, Note_on_c, 2, 71, 50
2, 10527600, Note_off_c, 2, 71, 0
2, 10528080, Note_on_c, 2, 66, 50
2, 10528320, Note_off_c, 2, 66, 0
2, 10528320, Note_on_c, 2, 69, 50
2, 10529040, Note_off_c, 2, 69, 0
2, 10529040, Note_on_c, 2, 66, 50
2, 10529280, Note_off_c, 2, 66, 0
2, 10529280, Note_on_c, 2, 64, 50
2, 10529760, Note_off_c, 2, 64, 0
2, 10529760, Note_on_c, 2, 66, 50
2, 10530720, Note_off_c, 2, 66, 0
2, 10530720, Note_on_c, 2, 61, 50
2, 10531440, Note_off_c, 2, 61, 0
2, 10531920, Note_on_c, 2, 66, 50
2, 10532160, Note_off_c, 2, 66, 0
2, 10532160, Note_on_c, 2, 69, 50
2, 10532880, Note_off_c, 2, 69, 0
2, 10532880, Note_on_c, 2, 66, 50
2, 10533120, Note_off_c, 2, 66, 0
2, 10533120, Note_on_c, 2, 64, 50
2, 10533600, Note_off_c, 2, 64, 0
2, 10533600, Note_on_c, 2, 66, 50
2, 10535280, Note_off_c, 2, 66, 0
2, 10567680, Note_on_c, 2, 64, 50
2, 10567920, Note_off_c, 2, 64, 0
2, 10568040, Note_on_c, 2, 61, 50
2, 10568400, Note_off_c, 2, 61, 0
2, 10568400, Note_on_c, 2, 58, 50
2, 10569240, Note_off_c, 2, 58, 0
2, 10569360, Note_on_c, 2, 59, 50
2, 10569720, Note_off_c, 2, 59, 0
2, 10569720, Note_on_c, 2, 62, 50
2, 10570080, Note_off_c, 2, 62, 0
2, 10570080, Note_on_c, 2, 59, 50
2, 10570320, Note_off_c, 2, 59, 0
2, 10570320, Note_on_c, 2, 52, 50
2, 10570680, Note_off_c, 2, 52, 0
2, 10570680, Note_on_c, 2, 54, 50
2, 10571040, Note_off_c, 2, 54, 0
2, 10571040, Note_on_c, 2, 56, 50
2, 10571280, Note_off_c, 2, 56, 0
2, 10571280, Note_on_c, 2, 57, 50
2, 10571400, Note_off_c, 2, 57, 0
2, 10571520, Note_on_c, 2, 64, 50
2, 10571640, Note_off_c, 2, 64, 0
2, 10571880, Note_on_c, 2, 61, 50
2, 10572000, Note_off_c, 2, 61, 0
2, 10572240, Note_on_c, 2, 58, 50
2, 10573080, Note_off_c, 2, 58, 0
2, 10573440, Note_on_c, 2, 62, 50
2, 10573680, Note_off_c, 2, 62, 0
2, 10573800, Note_on_c, 2, 62, 50
2, 10574040, Note_off_c, 2, 62, 0
2, 10574160, Note_on_c, 2, 52, 50
2, 10575000, Note_off_c, 2, 52, 0
2, 10575360, Note_on_c, 2, 64, 50
2, 10575840, Note_off_c, 2, 64, 0
2, 10576080, Note_on_c, 2, 57, 50
2, 10577040, Note_off_c, 2, 57, 0
2, 10577280, Note_on_c, 2, 64, 50
2, 10577640, Note_off_c, 2, 64, 0
2, 10577640, Note_on_c, 2, 61, 50
2, 10578000, Note_off_c, 2, 61, 0
2, 10578000, Note_on_c, 2, 58, 50
2, 10578720, Note_off_c, 2, 58, 0
2, 10578960, Note_on_c, 2, 66, 50
2, 10580040, Note_off_c, 2, 66, 0
2, 10580400, Note_on_c, 2, 66, 50
2, 10580520, Note_off_c, 2, 66, 0
2, 10580880, Note_on_c, 2, 69, 50
2, 10582080, Note_off_c, 2, 69, 0
2, 10582320, Note_on_c, 2, 69, 50
2, 10582680, Note_off_c, 2, 69, 0
2, 10582800, Note_on_c, 2, 57, 50
2, 10583280, Note_off_c, 2, 57, 0
2, 10583280, Note_on_c, 2, 64, 50
2, 10583520, Note_off_c, 2, 64, 0
2, 10583520, Note_on_c, 2, 57, 50
2, 10583760, Note_off_c, 2, 57, 0
2, 10583760, Note_on_c, 2, 64, 50
2, 10583880, Note_off_c, 2, 64, 0
2, 10583880, Note_on_c, 2, 61, 50
2, 10584120, Note_off_c, 2, 61, 0
2, 10584360, Note_on_c, 2, 63, 50
2, 10584600, Note_off_c, 2, 63, 0
2, 10584840, Note_on_c, 2, 62, 50
2, 10585560, Note_off_c, 2, 62, 0
2, 10585800, Note_on_c, 2, 52, 50
2, 10586160, Note_off_c, 2, 52, 0
2, 10586160, Note_on_c, 2, 54, 50
2, 10586520, Note_off_c, 2, 54, 0
2, 10586520, Note_on_c, 2, 56, 50
2, 10586760, Note_off_c, 2, 56, 0
2, 10586760, Note_on_c, 2, 57, 50
2, 10587960, Note_off_c, 2, 57, 0
2, 10588440, Note_on_c, 2, 57, 50
2, 10588680, Note_off_c, 2, 57, 0
2, 10588680, Note_on_c, 2, 59, 50
2, 10589040, Note_off_c, 2, 59, 0
2, 10589040, Note_on_c, 2, 62, 50
2, 10589400, Note_off_c, 2, 62, 0
2, 10589400, Note_on_c, 2, 59, 50
2, 10589640, Note_off_c, 2, 59, 0
2, 10589640, Note_on_c, 2, 52, 50
2, 10590000, Note_off_c, 2, 52, 0
2, 10590000, Note_on_c, 2, 54, 50
2, 10590360, Note_off_c, 2, 54, 0
2, 10590720, Note_on_c, 2, 64, 50
2, 10591200, Note_off_c, 2, 64, 0
2, 10591440, Note_on_c, 2, 57, 50
2, 10592400, Note_off_c, 2, 57, 0
2, 10592640, Note_on_c, 2, 64, 50
2, 10593000, Note_off_c, 2, 64, 0
2, 10593000, Note_on_c, 2, 61, 50
2, 10593360, Note_off_c, 2, 61, 0
2, 10593360, Note_on_c, 2, 58, 50
2, 10594080, Note_off_c, 2, 58, 0
2, 10594320, Note_on_c, 2, 66, 50
2, 10595400, Note_off_c, 2, 66, 0
2, 10595760, Note_on_c, 2, 66, 50
2, 10595880, Note_off_c, 2, 66, 0
2, 10596240, Note_on_c, 2, 69, 50
2, 10597440, Note_off_c, 2, 69, 0
2, 10597680, Note_on_c, 2, 69, 50
2, 10598040, Note_off_c, 2, 69, 0
2, 10598160, Note_on_c, 2, 57, 50
2, 10598640, Note_off_c, 2, 57, 0
2, 10598640, Note_on_c, 2, 64, 50
2, 10598880, Note_off_c, 2, 64, 0
2, 10598880, Note_on_c, 2, 57, 50
2, 10599120, Note_off_c, 2, 57, 0
2, 10599120, Note_on_c, 2, 64, 50
2, 10599240, Note_off_c, 2, 64, 0
2, 10599240, Note_on_c, 2, 61, 50
2, 10599480, Note_off_c, 2, 61, 0
2, 10599720, Note_on_c, 2, 63, 50
2, 10599960, Note_off_c, 2, 63, 0
2, 10600200, Note_on_c, 2, 62, 50
2, 10600920, Note_off_c, 2, 62, 0
2, 10601160, Note_on_c, 2, 52, 50
2, 10601520, Note_off_c, 2, 52, 0
2, 10601520, Note_on_c, 2, 54, 50
2, 10601880, Note_off_c, 2, 54, 0
2, 10601880, Note_on_c, 2, 56, 50
2, 10602120, Note_off_c, 2, 56, 0
2, 10602120, Note_on_c, 2, 57, 50
2, 10603320, Note_off_c, 2, 57, 0
2, 10603800, Note_on_c, 2, 57, 50
2, 10604040, Note_off_c, 2, 57, 0
2, 10604040, Note_on_c, 2, 67, 50
2, 10604280, Note_off_c, 2, 67, 0
2, 10604640, Note_on_c, 2, 67, 50
2, 10604880, Note_off_c, 2, 67, 0
2, 10605360, Note_on_c, 2, 67, 50
2, 10605480, Note_off_c, 2, 67, 0
2, 10605840, Note_on_c, 2, 62, 50
2, 10606200, Note_off_c, 2, 62, 0
2, 10606320, Note_on_c, 2, 66, 50
2, 10606560, Note_off_c, 2, 66, 0
2, 10606560, Note_on_c, 2, 74, 50
2, 10606920, Note_off_c, 2, 74, 0
2, 10607040, Note_on_c, 2, 69, 50
2, 10607400, Note_off_c, 2, 69, 0
2, 10607520, Note_on_c, 2, 66, 50
2, 10607760, Note_off_c, 2, 66, 0
2, 10607760, Note_on_c, 2, 62, 50
2, 10608480, Note_off_c, 2, 62, 0
2, 10608480, Note_on_c, 2, 74, 50
2, 10608840, Note_off_c, 2, 74, 0
2, 10608960, Note_on_c, 2, 69, 50
2, 10609200, Note_off_c, 2, 69, 0
2, 10609440, Note_on_c, 2, 65, 50
2, 10609560, Note_off_c, 2, 65, 0
2, 10609680, Note_on_c, 2, 57, 50
2, 10610280, Note_off_c, 2, 57, 0
2, 10610280, Note_on_c, 2, 61, 50
2, 10610520, Note_off_c, 2, 61, 0
2, 10610520, Note_on_c, 2, 69, 50
2, 10610880, Note_off_c, 2, 69, 0
2, 10610880, Note_on_c, 2, 64, 50
2, 10611120, Note_off_c, 2, 64, 0
2, 10611360, Note_on_c, 2, 61, 50
2, 10611480, Note_off_c, 2, 61, 0
2, 10611600, Note_on_c, 2, 58, 50
2, 10612320, Note_off_c, 2, 58, 0
2, 10612320, Note_on_c, 2, 66, 50
2, 10612560, Note_off_c, 2, 66, 0
2, 10612800, Note_on_c, 2, 70, 50
2, 10613040, Note_off_c, 2, 70, 0
2, 10613040, Note_on_c, 2, 66, 50
2, 10613280, Note_off_c, 2, 66, 0
2, 10613280, Note_on_c, 2, 61, 50
2, 10613400, Note_off_c, 2, 61, 0
2, 10613520, Note_on_c, 2, 66, 50
2, 10613640, Note_off_c, 2, 66, 0
2, 10613880, Note_on_c, 2, 66, 50
2, 10614000, Note_off_c, 2, 66, 0
2, 10614120, Note_on_c, 2, 66, 50
2, 10614240, Note_off_c, 2, 66, 0
2, 10614480, Note_on_c, 2, 66, 50
2, 10614600, Note_off_c, 2, 66, 0
2, 10614840, Note_on_c, 2, 66, 50
2, 10614960, Note_off_c, 2, 66, 0
2, 10615080, Note_on_c, 2, 66, 50
2, 10615200, Note_off_c, 2, 66, 0
2, 10615440, Note_on_c, 2, 66, 50
2, 10615920, Note_off_c, 2, 66, 0
2, 10616400, Note_on_c, 2, 69, 50
2, 10617000, Note_off_c, 2, 69, 0
2, 10617360, Note_on_c, 2, 71, 50
2, 10618200, Note_off_c, 2, 71, 0
2, 10619160, Note_on_c, 2, 68, 50
2, 10620960, Note_off_c, 2, 68, 0
2, 10621440, Note_on_c, 2, 69, 50
2, 10621560, Note_off_c, 2, 69, 0
2, 10621680, Note_on_c, 2, 68, 50
2, 10621800, Note_off_c, 2, 68, 0
2, 10621800, Note_on_c, 2, 69, 50
2, 10621920, Note_off_c, 2, 69, 0
2, 10621920, Note_on_c, 2, 68, 50
2, 10622040, Note_off_c, 2, 68, 0
2, 10622040, Note_on_c, 2, 64, 50
2, 10622280, Note_off_c, 2, 64, 0
2, 10622280, Note_on_c, 2, 66, 50
2, 10623000, Note_off_c, 2, 66, 0
2, 10623480, Note_on_c, 2, 64, 50
2, 10623840, Note_off_c, 2, 64, 0
2, 10623840, Note_on_c, 2, 61, 50
2, 10624200, Note_off_c, 2, 61, 0
2, 10624200, Note_on_c, 2, 58, 50
2, 10624920, Note_off_c, 2, 58, 0
2, 10625160, Note_on_c, 2, 66, 50
2, 10626000, Note_off_c, 2, 66, 0
2, 10626600, Note_on_c, 2, 62, 50
2, 10626840, Note_off_c, 2, 62, 0
2, 10626840, Note_on_c, 2, 62, 50
2, 10628160, Note_off_c, 2, 62, 0
2, 10628400, Note_on_c, 2, 69, 50
2, 10628640, Note_off_c, 2, 69, 0
2, 10628880, Note_on_c, 2, 57, 50
2, 10629360, Note_off_c, 2, 57, 0
2, 10629360, Note_on_c, 2, 69, 50
2, 10629600, Note_off_c, 2, 69, 0
2, 10629600, Note_on_c, 2, 57, 50
2, 10629840, Note_off_c, 2, 57, 0
2, 10629840, Note_on_c, 2, 64, 50
2, 10630080, Note_off_c, 2, 64, 0
2, 10630080, Note_on_c, 2, 61, 50
2, 10630440, Note_off_c, 2, 61, 0
2, 10630440, Note_on_c, 2, 63, 50
2, 10630680, Note_off_c, 2, 63, 0
2, 10630920, Note_on_c, 2, 62, 50
2, 10631520, Note_off_c, 2, 62, 0
2, 10631880, Note_on_c, 2, 64, 50
2, 10632120, Note_off_c, 2, 64, 0
2, 10632120, Note_on_c, 2, 63, 50
2, 10632240, Note_off_c, 2, 63, 0
2, 10632240, Note_on_c, 2, 60, 50
2, 10632480, Note_off_c, 2, 60, 0
2, 10632480, Note_on_c, 2, 62, 50
2, 10632600, Note_off_c, 2, 62, 0
2, 10632600, Note_on_c, 2, 56, 50
2, 10632840, Note_off_c, 2, 56, 0
2, 10632840, Note_on_c, 2, 61, 50
2, 10633560, Note_off_c, 2, 61, 0
2, 10633560, Note_on_c, 2, 57, 50
2, 10634280, Note_off_c, 2, 57, 0
2, 10634280, Note_on_c, 2, 64, 50
2, 10634760, Note_off_c, 2, 64, 0
2, 10634760, Note_on_c, 2, 59, 50
2, 10635600, Note_off_c, 2, 59, 0
2, 10635600, Note_on_c, 2, 52, 50
2, 10636320, Note_off_c, 2, 52, 0
2, 10636320, Note_on_c, 2, 59, 50
2, 10636560, Note_off_c, 2, 59, 0
2, 10651920, Note_on_c, 2, 62, 50
2, 10652280, Note_off_c, 2, 62, 0
2, 10652400, Note_on_c, 2, 66, 50
2, 10652640, Note_off_c, 2, 66, 0
2, 10652640, Note_on_c, 2, 74, 50
2, 10653000, Note_off_c, 2, 74, 0
2, 10653120, Note_on_c, 2, 69, 50
2, 10653480, Note_off_c, 2, 69, 0
2, 10653600, Note_on_c, 2, 66, 50
2, 10653840, Note_off_c, 2, 66, 0
2, 10653840, Note_on_c, 2, 62, 50
2, 10654560, Note_off_c, 2, 62, 0
2, 10654560, Note_on_c, 2, 74, 50
2, 10654920, Note_off_c, 2, 74, 0
2, 10655040, Note_on_c, 2, 69, 50
2, 10655280, Note_off_c, 2, 69, 0
2, 10655520, Note_on_c, 2, 65, 50
2, 10655640, Note_off_c, 2, 65, 0
2, 10655760, Note_on_c, 2, 57, 50
2, 10656360, Note_off_c, 2, 57, 0
2, 10656360, Note_on_c, 2, 61, 50
2, 10656600, Note_off_c, 2, 61, 0
2, 10656600, Note_on_c, 2, 69, 50
2, 10656960, Note_off_c, 2, 69, 0
2, 10656960, Note_on_c, 2, 64, 50
2, 10657200, Note_off_c, 2, 64, 0
2, 10657440, Note_on_c, 2, 61, 50
2, 10657560, Note_off_c, 2, 61, 0
2, 10657680, Note_on_c, 2, 58, 50
2, 10658400, Note_off_c, 2, 58, 0
2, 10658400, Note_on_c, 2, 66, 50
2, 10658640, Note_off_c, 2, 66, 0
2, 10658880, Note_on_c, 2, 70, 50
2, 10659120, Note_off_c, 2, 70, 0
2, 10659120, Note_on_c, 2, 66, 50
2, 10659360, Note_off_c, 2, 66, 0
2, 10659360, Note_on_c, 2, 61, 50
2, 10659480, Note_off_c, 2, 61, 0
2, 10659600, Note_on_c, 2, 66, 50
2, 10659720, Note_off_c, 2, 66, 0
2, 10659960, Note_on_c, 2, 66, 50
2, 10660080, Note_off_c, 2, 66, 0
2, 10660200, Note_on_c, 2, 66, 50
2, 10660320, Note_off_c, 2, 66, 0
2, 10660560, Note_on_c, 2, 66, 50
2, 10660680, Note_off_c, 2, 66, 0
2, 10660920, Note_on_c, 2, 66, 50
2, 10661040, Note_off_c, 2, 66, 0
2, 10661160, Note_on_c, 2, 66, 50
2, 10661280, Note_off_c, 2, 66, 0
2, 10661520, Note_on_c, 2, 66, 50
2, 10662000, Note_off_c, 2, 66, 0
2, 10662480, Note_on_c, 2, 69, 50
2, 10663080, Note_off_c, 2, 69, 0
2, 10663440, Note_on_c, 2, 71, 50
2, 10664280, Note_off_c, 2, 71, 0
2, 10665240, Note_on_c, 2, 68, 50
2, 10667040, Note_off_c, 2, 68, 0
2, 10667520, Note_on_c, 2, 69, 50
2, 10667640, Note_off_c, 2, 69, 0
2, 10667760, Note_on_c, 2, 68, 50
2, 10667880, Note_off_c, 2, 68, 0
2, 10667880, Note_on_c, 2, 69, 50
2, 10668000, Note_off_c, 2, 69, 0
2, 10668000, Note_on_c, 2, 68, 50
2, 10668120, Note_off_c, 2, 68, 0
2, 10668120, Note_on_c, 2, 64, 50
2, 10668360, Note_off_c, 2, 64, 0
2, 10668360, Note_on_c, 2, 66, 50
2, 10669080, Note_off_c, 2, 66, 0
2, 10669560, Note_on_c, 2, 64, 50
2, 10669920, Note_off_c, 2, 64, 0
2, 10669920, Note_on_c, 2, 61, 50
2, 10670280, Note_off_c, 2, 61, 0
2, 10670280, Note_on_c, 2, 58, 50
2, 10671000, Note_off_c, 2, 58, 0
2, 10671240, Note_on_c, 2, 66, 50
2, 10672080, Note_off_c, 2, 66, 0
2, 10672680, Note_on_c, 2, 62, 50
2, 10672920, Note_off_c, 2, 62, 0
2, 10672920, Note_on_c, 2, 62, 50
2, 10674240, Note_off_c, 2, 62, 0
2, 10674480, Note_on_c, 2, 69, 50
2, 10674720, Note_off_c, 2, 69, 0
2, 10674960, Note_on_c, 2, 57, 50
2, 10675440, Note_off_c, 2, 57, 0
2, 10675440, Note_on_c, 2, 69, 50
2, 10675680, Note_off_c, 2, 69, 0
2, 10675680, Note_on_c, 2, 57, 50
2, 10675920, Note_off_c, 2, 57, 0
2, 10675920, Note_on_c, 2, 64, 50
2, 10676160, Note_off_c, 2, 64, 0
2, 10676160, Note_on_c, 2, 61, 50
2, 10676520, Note_off_c, 2, 61, 0
2, 10676520, Note_on_c, 2, 63, 50
2, 10676760, Note_off_c, 2, 63, 0
2, 10677000, Note_on_c, 2, 62, 50
2, 10677600, Note_off_c, 2, 62, 0
2, 10677960, Note_on_c, 2, 64, 50
2, 10678200, Note_off_c, 2, 64, 0
2, 10678200, Note_on_c, 2, 63, 50
2, 10678320, Note_off_c, 2, 63, 0
2, 10678320, Note_on_c, 2, 60, 50
2, 10678560, Note_off_c, 2, 60, 0
2, 10678560, Note_on_c, 2, 62, 50
2, 10678680, Note_off_c, 2, 62, 0
2, 10678680, Note_on_c, 2, 56, 50
2, 10678920, Note_off_c, 2, 56, 0
2, 10678920, Note_on_c, 2, 61, 50
2, 10679640, Note_off_c, 2, 61, 0
2, 10679640, Note_on_c, 2, 57, 50
2, 10680360, Note_off_c, 2, 57, 0
2, 10680360, Note_on_c, 2, 64, 50
2, 10680840, Note_off_c, 2, 64, 0
2, 10680840, Note_on_c, 2, 59, 50
2, 10681680, Note_off_c, 2, 59, 0
2, 10681680, Note_on_c, 2, 52, 50
2, 10682400, Note_off_c, 2, 52, 0
2, 10682400, Note_on_c, 2, 59, 50
2, 10682640, Note_off_c, 2, 59, 0
2, 10682640, Note_on_c, 2, 68, 50
2, 10682760, Note_off_c, 2, 68, 0
2, 10683000, Note_on_c, 2, 68, 50
2, 10683120, Note_off_c, 2, 68, 0
2, 10683240, Note_on_c, 2, 68, 50
2, 10683360, Note_off_c, 2, 68, 0
2, 10683600, Note_on_c, 2, 67, 50
2, 10683720, Note_off_c, 2, 67, 0
2, 10683960, Note_on_c, 2, 67, 50
2, 10684080, Note_off_c, 2, 67, 0
2, 10684200, Note_on_c, 2, 67, 50
2, 10684320, Note_off_c, 2, 67, 0
2, 10684560, Note_on_c, 2, 68, 50
2, 10685640, Note_off_c, 2, 68, 0
2, 10686000, Note_on_c, 2, 68, 50
2, 10686360, Note_off_c, 2, 68, 0
2, 10686600, Note_on_c, 2, 57, 50
2, 10686960, Note_off_c, 2, 57, 0
2, 10687080, Note_on_c, 2, 69, 50
2, 10687320, Note_off_c, 2, 69, 0
2, 10687320, Note_on_c, 2, 66, 50
2, 10687680, Note_off_c, 2, 66, 0
2, 10687680, Note_on_c, 2, 69, 50
2, 10687920, Note_off_c, 2, 69, 0
2, 10687920, Note_on_c, 2, 66, 50
2, 10688160, Note_off_c, 2, 66, 0
2, 10688880, Note_on_c, 2, 67, 50
2, 10689240, Note_off_c, 2, 67, 0
2, 10689240, Note_on_c, 2, 65, 50
2, 10689480, Note_off_c, 2, 65, 0
2, 10689600, Note_on_c, 2, 67, 50
2, 10689840, Note_off_c, 2, 67, 0
2, 10689840, Note_on_c, 2, 65, 50
2, 10689960, Note_off_c, 2, 65, 0
2, 10690320, Note_on_c, 2, 64, 50
2, 10690560, Note_off_c, 2, 64, 0
2, 10690680, Note_on_c, 2, 64, 50
2, 10690800, Note_off_c, 2, 64, 0
2, 10690800, Note_on_c, 2, 61, 50
2, 10691040, Note_off_c, 2, 61, 0
2, 10691040, Note_on_c, 2, 64, 50
2, 10691160, Note_off_c, 2, 64, 0
2, 10691280, Note_on_c, 2, 63, 50
2, 10691520, Note_off_c, 2, 63, 0
2, 10691640, Note_on_c, 2, 63, 50
2, 10691760, Note_off_c, 2, 63, 0
2, 10691760, Note_on_c, 2, 60, 50
2, 10692000, Note_off_c, 2, 60, 0
2, 10692000, Note_on_c, 2, 63, 50
2, 10692120, Note_off_c, 2, 63, 0
2, 10692240, Note_on_c, 2, 64, 50
2, 10692480, Note_off_c, 2, 64, 0
2, 10693200, Note_on_c, 2, 67, 50
2, 10694280, Note_off_c, 2, 67, 0
2, 10697760, Note_on_c, 2, 44, 50
2, 10698000, Note_off_c, 2, 44, 0
2, 10698000, Note_on_c, 2, 46, 50
2, 10698240, Note_off_c, 2, 46, 0
2, 10698240, Note_on_c, 2, 48, 50
2, 10698480, Note_off_c, 2, 48, 0
2, 10698480, Note_on_c, 2, 49, 50
2, 10698720, Note_off_c, 2, 49, 0
2, 10698960, Note_on_c, 2, 49, 50
2, 10699200, Note_off_c, 2, 49, 0
2, 10699440, Note_on_c, 2, 42, 50
2, 10699680, Note_off_c, 2, 42, 0
2, 10699680, Note_on_c, 2, 46, 50
2, 10699920, Note_off_c, 2, 46, 0
2, 10699920, Note_on_c, 2, 42, 50
2, 10700160, Note_off_c, 2, 42, 0
2, 10700160, Note_on_c, 2, 44, 50
2, 10700400, Note_off_c, 2, 44, 0
2, 10700640, Note_on_c, 2, 44, 50
2, 10700880, Note_off_c, 2, 44, 0
2, 10700880, Note_on_c, 2, 44, 50
2, 10701120, Note_off_c, 2, 44, 0
2, 10701120, Note_on_c, 2, 44, 50
2, 10701240, Note_off_c, 2, 44, 0
2, 10701360, Note_on_c, 2, 44, 50
2, 10701480, Note_off_c, 2, 44, 0
2, 10701600, Note_on_c, 2, 44, 50
2, 10701840, Note_off_c, 2, 44, 0
2, 10701840, Note_on_c, 2, 46, 50
2, 10702080, Note_off_c, 2, 46, 0
2, 10702080, Note_on_c, 2, 48, 50
2, 10702320, Note_off_c, 2, 48, 0
2, 10702320, Note_on_c, 2, 49, 50
2, 10702560, Note_off_c, 2, 49, 0
2, 10702800, Note_on_c, 2, 49, 50
2, 10703040, Note_off_c, 2, 49, 0
2, 10703280, Note_on_c, 2, 42, 50
2, 10703520, Note_off_c, 2, 42, 0
2, 10703520, Note_on_c, 2, 46, 50
2, 10703880, Note_off_c, 2, 46, 0
2, 10704000, Note_on_c, 2, 44, 50
2, 10704240, Note_off_c, 2, 44, 0
2, 10704480, Note_on_c, 2, 44, 50
2, 10704720, Note_off_c, 2, 44, 0
2, 10704720, Note_on_c, 2, 44, 50
2, 10704960, Note_off_c, 2, 44, 0
2, 10704960, Note_on_c, 2, 44, 50
2, 10705200, Note_off_c, 2, 44, 0
2, 10705200, Note_on_c, 2, 44, 50
2, 10705440, Note_off_c, 2, 44, 0
2, 10705440, Note_on_c, 2, 44, 50
2, 10705680, Note_off_c, 2, 44, 0
2, 10705680, Note_on_c, 2, 46, 50
2, 10705920, Note_off_c, 2, 46, 0
2, 10705920, Note_on_c, 2, 48, 50
2, 10706160, Note_off_c, 2, 48, 0
2, 10706160, Note_on_c, 2, 49, 50
2, 10706400, Note_off_c, 2, 49, 0
2, 10706640, Note_on_c, 2, 49, 50
2, 10706880, Note_off_c, 2, 49, 0
2, 10707120, Note_on_c, 2, 42, 50
2, 10707360, Note_off_c, 2, 42, 0
2, 10707600, Note_on_c, 2, 46, 50
2, 10707840, Note_off_c, 2, 46, 0
2, 10707840, Note_on_c, 2, 42, 50
2, 10708080, Note_off_c, 2, 42, 0
2, 10708080, Note_on_c, 2, 44, 50
2, 10708320, Note_off_c, 2, 44, 0
2, 10708320, Note_on_c, 2, 44, 50
2, 10708560, Note_off_c, 2, 44, 0
2, 10708560, Note_on_c, 2, 44, 50
2, 10708800, Note_off_c, 2, 44, 0
2, 10708800, Note_on_c, 2, 44, 50
2, 10708920, Note_off_c, 2, 44, 0
2, 10709040, Note_on_c, 2, 44, 50
2, 10709280, Note_off_c, 2, 44, 0
2, 10709280, Note_on_c, 2, 44, 50
2, 10709520, Note_off_c, 2, 44, 0
2, 10709520, Note_on_c, 2, 46, 50
2, 10709760, Note_off_c, 2, 46, 0
2, 10709760, Note_on_c, 2, 48, 50
2, 10710000, Note_off_c, 2, 48, 0
2, 10710000, Note_on_c, 2, 49, 50
2, 10710240, Note_off_c, 2, 49, 0
2, 10710480, Note_on_c, 2, 49, 50
2, 10710720, Note_off_c, 2, 49, 0
2, 10710960, Note_on_c, 2, 42, 50
2, 10711200, Note_off_c, 2, 42, 0
2, 10711440, Note_on_c, 2, 46, 50
2, 10711680, Note_off_c, 2, 46, 0
2, 10711680, Note_on_c, 2, 42, 50
2, 10711920, Note_off_c, 2, 42, 0
2, 10711920, Note_on_c, 2, 44, 50
2, 10712160, Note_off_c, 2, 44, 0
2, 10712160, Note_on_c, 2, 44, 50
2, 10712280, Note_off_c, 2, 44, 0
2, 10712400, Note_on_c, 2, 44, 50
2, 10712640, Note_off_c, 2, 44, 0
2, 10712640, Note_on_c, 2, 44, 50
2, 10712760, Note_off_c, 2, 44, 0
2, 10712880, Note_on_c, 2, 44, 50
2, 10713000, Note_off_c, 2, 44, 0
2, 10713120, Note_on_c, 2, 44, 50
2, 10713360, Note_off_c, 2, 44, 0
2, 10713360, Note_on_c, 2, 46, 50
2, 10713600, Note_off_c, 2, 46, 0
2, 10713600, Note_on_c, 2, 48, 50
2, 10713840, Note_off_c, 2, 48, 0
2, 10713840, Note_on_c, 2, 49, 50
2, 10714080, Note_off_c, 2, 49, 0
2, 10714320, Note_on_c, 2, 49, 50
2, 10714560, Note_off_c, 2, 49, 0
2, 10714800, Note_on_c, 2, 42, 50
2, 10715040, Note_off_c, 2, 42, 0
2, 10715280, Note_on_c, 2, 46, 50
2, 10715520, Note_off_c, 2, 46, 0
2, 10715520, Note_on_c, 2, 42, 50
2, 10715760, Note_off_c, 2, 42, 0
2, 10715760, Note_on_c, 2, 44, 50
2, 10716000, Note_off_c, 2, 44, 0
2, 10716000, Note_on_c, 2, 44, 50
2, 10716240, Note_off_c, 2, 44, 0
2, 10716240, Note_on_c, 2, 44, 50
2, 10716480, Note_off_c, 2, 44, 0
2, 10716480, Note_on_c, 2, 44, 50
2, 10716600, Note_off_c, 2, 44, 0
2, 10716720, Note_on_c, 2, 44, 50
2, 10716840, Note_off_c, 2, 44, 0
2, 10716960, Note_on_c, 2, 44, 50
2, 10717200, Note_off_c, 2, 44, 0
2, 10717200, Note_on_c, 2, 46, 50
2, 10717440, Note_off_c, 2, 46, 0
2, 10717440, Note_on_c, 2, 48, 50
2, 10717680, Note_off_c, 2, 48, 0
2, 10717680, Note_on_c, 2, 49, 50
2, 10717920, Note_off_c, 2, 49, 0
2, 10718160, Note_on_c, 2, 49, 50
2, 10718400, Note_off_c, 2, 49, 0
2, 10718640, Note_on_c, 2, 42, 50
2, 10718880, Note_off_c, 2, 42, 0
2, 10719120, Note_on_c, 2, 46, 50
2, 10719360, Note_off_c, 2, 46, 0
2, 10719360, Note_on_c, 2, 42, 50
2, 10719600, Note_off_c, 2, 42, 0
2, 10719600, Note_on_c, 2, 44, 50
2, 10719840, Note_off_c, 2, 44, 0
2, 10719840, Note_on_c, 2, 44, 50
2, 10720080, Note_off_c, 2, 44, 0
2, 10720080, Note_on_c, 2, 44, 50
2, 10720320, Note_off_c, 2, 44, 0
2, 10720320, Note_on_c, 2, 44, 50
2, 10720440, Note_off_c, 2, 44, 0
2, 10720560, Note_on_c, 2, 44, 50
2, 10720680, Note_off_c, 2, 44, 0
2, 10720800, Note_on_c, 2, 44, 50
2, 10721040, Note_off_c, 2, 44, 0
2, 10721040, Note_on_c, 2, 46, 50
2, 10721280, Note_off_c, 2, 46, 0
2, 10721280, Note_on_c, 2, 48, 50
2, 10721520, Note_off_c, 2, 48, 0
2, 10721520, Note_on_c, 2, 49, 50
2, 10721760, Note_off_c, 2, 49, 0
2, 10722000, Note_on_c, 2, 49, 50
2, 10722240, Note_off_c, 2, 49, 0
2, 10722480, Note_on_c, 2, 42, 50
2, 10722720, Note_off_c, 2, 42, 0
2, 10722960, Note_on_c, 2, 46, 50
2, 10723200, Note_off_c, 2, 46, 0
2, 10723200, Note_on_c, 2, 42, 50
2, 10723440, Note_off_c, 2, 42, 0
2, 10723440, Note_on_c, 2, 44, 50
2, 10723680, Note_off_c, 2, 44, 0
2, 10723680, Note_on_c, 2, 44, 50
2, 10723920, Note_off_c, 2, 44, 0
2, 10723920, Note_on_c, 2, 44, 50
2, 10724160, Note_off_c, 2, 44, 0
2, 10724160, Note_on_c, 2, 44, 50
2, 10724280, Note_off_c, 2, 44, 0
2, 10724400, Note_on_c, 2, 44, 50
2, 10724640, Note_off_c, 2, 44, 0
2, 10724640, Note_on_c, 2, 44, 50
2, 10724880, Note_off_c, 2, 44, 0
2, 10724880, Note_on_c, 2, 46, 50
2, 10725120, Note_off_c, 2, 46, 0
2, 10725120, Note_on_c, 2, 48, 50
2, 10725360, Note_off_c, 2, 48, 0
2, 10725360, Note_on_c, 2, 49, 50
2, 10725600, Note_off_c, 2, 49, 0
2, 10725840, Note_on_c, 2, 49, 50
2, 10726080, Note_off_c, 2, 49, 0
2, 10726320, Note_on_c, 2, 42, 50
2, 10726560, Note_off_c, 2, 42, 0
2, 10726800, Note_on_c, 2, 46, 50
2, 10727040, Note_off_c, 2, 46, 0
2, 10727040, Note_on_c, 2, 42, 50
2, 10727280, Note_off_c, 2, 42, 0
2, 10727280, Note_on_c, 2, 44, 50
2, 10727520, Note_off_c, 2, 44, 0
2, 10727520, Note_on_c, 2, 44, 50
2, 10727640, Note_off_c, 2, 44, 0
2, 10727760, Note_on_c, 2, 44, 50
2, 10728000, Note_off_c, 2, 44, 0
2, 10728000, Note_on_c, 2, 44, 50
2, 10728120, Note_off_c, 2, 44, 0
2, 10728240, Note_on_c, 2, 44, 50
2, 10728360, Note_off_c, 2, 44, 0
2, 10728480, Note_on_c, 2, 44, 50
2, 10728720, Note_off_c, 2, 44, 0
2, 10728720, Note_on_c, 2, 46, 50
2, 10728960, Note_off_c, 2, 46, 0
2, 10728960, Note_on_c, 2, 48, 50
2, 10729200, Note_off_c, 2, 48, 0
2, 10729200, Note_on_c, 2, 49, 50
2, 10729440, Note_off_c, 2, 49, 0
2, 10729680, Note_on_c, 2, 49, 50
2, 10729920, Note_off_c, 2, 49, 0
2, 10730160, Note_on_c, 2, 42, 50
2, 10730400, Note_off_c, 2, 42, 0
2, 10730640, Note_on_c, 2, 46, 50
2, 10730880, Note_off_c, 2, 46, 0
2, 10730880, Note_on_c, 2, 42, 50
2, 10731120, Note_off_c, 2, 42, 0
2, 10731120, Note_on_c, 2, 44, 50
2, 10731360, Note_off_c, 2, 44, 0
2, 10731360, Note_on_c, 2, 44, 50
2, 10731600, Note_off_c, 2, 44, 0
2, 10731600, Note_on_c, 2, 44, 50
2, 10731840, Note_off_c, 2, 44, 0
2, 10731840, Note_on_c, 2, 44, 50
2, 10731960, Note_off_c, 2, 44, 0
2, 10732080, Note_on_c, 2, 44, 50
2, 10732200, Note_off_c, 2, 44, 0
2, 10732320, Note_on_c, 2, 44, 50
2, 10732560, Note_off_c, 2, 44, 0
2, 10732560, Note_on_c, 2, 46, 50
2, 10732800, Note_off_c, 2, 46, 0
2, 10732800, Note_on_c, 2, 48, 50
2, 10733040, Note_off_c, 2, 48, 0
2, 10733040, Note_on_c, 2, 49, 50
2, 10733280, Note_off_c, 2, 49, 0
2, 10733520, Note_on_c, 2, 49, 50
2, 10733760, Note_off_c, 2, 49, 0
2, 10734000, Note_on_c, 2, 42, 50
2, 10734240, Note_off_c, 2, 42, 0
2, 10734480, Note_on_c, 2, 46, 50
2, 10734720, Note_off_c, 2, 46, 0
2, 10734720, Note_on_c, 2, 42, 50
2, 10734960, Note_off_c, 2, 42, 0
2, 10734960, Note_on_c, 2, 44, 50
2, 10735200, Note_off_c, 2, 44, 0
2, 10735200, Note_on_c, 2, 44, 50
2, 10735440, Note_off_c, 2, 44, 0
2, 10735440, Note_on_c, 2, 44, 50
2, 10735680, Note_off_c, 2, 44, 0
2, 10735680, Note_on_c, 2, 44, 50
2, 10735800, Note_off_c, 2, 44, 0
2, 10735920, Note_on_c, 2, 44, 50
2, 10736040, Note_off_c, 2, 44, 0
2, 10736160, Note_on_c, 2, 44, 50
2, 10736400, Note_off_c, 2, 44, 0
2, 10736400, Note_on_c, 2, 46, 50
2, 10736640, Note_off_c, 2, 46, 0
2, 10736640, Note_on_c, 2, 48, 50
2, 10736880, Note_off_c, 2, 48, 0
2, 10736880, Note_on_c, 2, 49, 50
2, 10737120, Note_off_c, 2, 49, 0
2, 10737360, Note_on_c, 2, 49, 50
2, 10737600, Note_off_c, 2, 49, 0
2, 10737840, Note_on_c, 2, 42, 50
2, 10738080, Note_off_c, 2, 42, 0
2, 10738320, Note_on_c, 2, 46, 50
2, 10738560, Note_off_c, 2, 46, 0
2, 10738560, Note_on_c, 2, 42, 50
2, 10738800, Note_off_c, 2, 42, 0
2, 10738800, Note_on_c, 2, 44, 50
2, 10739040, Note_off_c, 2, 44, 0
2, 10739040, Note_on_c, 2, 44, 50
2, 10739280, Note_off_c, 2, 44, 0
2, 10739280, Note_on_c, 2, 44, 50
2, 10739520, Note_off_c, 2, 44, 0
2, 10739520, Note_on_c, 2, 44, 50
2, 10739640, Note_off_c, 2, 44, 0
2, 10739760, Note_on_c, 2, 44, 50
2, 10740000, Note_off_c, 2, 44, 0
2, 10740000, Note_on_c, 2, 44, 50
2, 10740240, Note_off_c, 2, 44, 0
2, 10740240, Note_on_c, 2, 46, 50
2, 10740480, Note_off_c, 2, 46, 0
2, 10740480, Note_on_c, 2, 48, 50
2, 10740720, Note_off_c, 2, 48, 0
2, 10740720, Note_on_c, 2, 49, 50
2, 10740960, Note_off_c, 2, 49, 0
2, 10741200, Note_on_c, 2, 49, 50
2, 10741440, Note_off_c, 2, 49, 0
2, 10741680, Note_on_c, 2, 42, 50
2, 10741920, Note_off_c, 2, 42, 0
2, 10742160, Note_on_c, 2, 46, 50
2, 10742400, Note_off_c, 2, 46, 0
2, 10742400, Note_on_c, 2, 42, 50
2, 10742640, Note_off_c, 2, 42, 0
2, 10742640, Note_on_c, 2, 44, 50
2, 10742880, Note_off_c, 2, 44, 0
2, 10742880, Note_on_c, 2, 44, 50
2, 10743000, Note_off_c, 2, 44, 0
2, 10743120, Note_on_c, 2, 44, 50
2, 10743360, Note_off_c, 2, 44, 0
2, 10743360, Note_on_c, 2, 44, 50
2, 10743480, Note_off_c, 2, 44, 0
2, 10743600, Note_on_c, 2, 44, 50
2, 10743720, Note_off_c, 2, 44, 0
2, 10743840, Note_on_c, 2, 44, 50
2, 10744080, Note_off_c, 2, 44, 0
2, 10744080, Note_on_c, 2, 46, 50
2, 10744320, Note_off_c, 2, 46, 0
2, 10744320, Note_on_c, 2, 48, 50
2, 10744560, Note_off_c, 2, 48, 0
2, 10744560, Note_on_c, 2, 49, 50
2, 10744800, Note_off_c, 2, 49, 0
2, 10745040, Note_on_c, 2, 49, 50
2, 10745280, Note_off_c, 2, 49, 0
2, 10745520, Note_on_c, 2, 42, 50
2, 10745760, Note_off_c, 2, 42, 0
2, 10746000, Note_on_c, 2, 46, 50
2, 10746240, Note_off_c, 2, 46, 0
2, 10746240, Note_on_c, 2, 42, 50
2, 10746480, Note_off_c, 2, 42, 0
2, 10746480, Note_on_c, 2, 44, 50
2, 10746720, Note_off_c, 2, 44, 0
2, 10746720, Note_on_c, 2, 44, 50
2, 10746960, Note_off_c, 2, 44, 0
2, 10746960, Note_on_c, 2, 44, 50
2, 10747200, Note_off_c, 2, 44, 0
2, 10747200, Note_on_c, 2, 44, 50
2, 10747320, Note_off_c, 2, 44, 0
2, 10747440, Note_on_c, 2, 44, 50
2, 10747560, Note_off_c, 2, 44, 0
2, 10747680, Note_on_c, 2, 44, 50
2, 10747920, Note_off_c, 2, 44, 0
2, 10747920, Note_on_c, 2, 46, 50
2, 10748160, Note_off_c, 2, 46, 0
2, 10748160, Note_on_c, 2, 48, 50
2, 10748400, Note_off_c, 2, 48, 0
2, 10748400, Note_on_c, 2, 49, 50
2, 10748640, Note_off_c, 2, 49, 0
2, 10748880, Note_on_c, 2, 49, 50
2, 10749120, Note_off_c, 2, 49, 0
2, 10749360, Note_on_c, 2, 42, 50
2, 10749600, Note_off_c, 2, 42, 0
2, 10749840, Note_on_c, 2, 46, 50
2, 10750080, Note_off_c, 2, 46, 0
2, 10750080, Note_on_c, 2, 42, 50
2, 10750320, Note_off_c, 2, 42, 0
2, 10750320, Note_on_c, 2, 44, 50
2, 10750560, Note_off_c, 2, 44, 0
2, 10750560, Note_on_c, 2, 44, 50
2, 10750800, Note_off_c, 2, 44, 0
2, 10750800, Note_on_c, 2, 44, 50
2, 10751040, Note_off_c, 2, 44, 0
2, 10751040, Note_on_c, 2, 44, 50
2, 10751160, Note_off_c, 2, 44, 0
2, 10751280, Note_on_c, 2, 44, 50
2, 10751400, Note_off_c, 2, 44, 0
2, 10751520, Note_on_c, 2, 44, 50
2, 10751760, Note_off_c, 2, 44, 0
2, 10751760, Note_on_c, 2, 46, 50
2, 10752000, Note_off_c, 2, 46, 0
2, 10752000, Note_on_c, 2, 48, 50
2, 10752240, Note_off_c, 2, 48, 0
2, 10752240, Note_on_c, 2, 49, 50
2, 10752480, Note_off_c, 2, 49, 0
2, 10752720, Note_on_c, 2, 49, 50
2, 10752960, Note_off_c, 2, 49, 0
2, 10753200, Note_on_c, 2, 42, 50
2, 10753440, Note_off_c, 2, 42, 0
2, 10753680, Note_on_c, 2, 46, 50
2, 10753920, Note_off_c, 2, 46, 0
2, 10753920, Note_on_c, 2, 42, 50
2, 10754160, Note_off_c, 2, 42, 0
2, 10754160, Note_on_c, 2, 44, 50
2, 10754400, Note_off_c, 2, 44, 0
2, 10754400, Note_on_c, 2, 44, 50
2, 10754640, Note_off_c, 2, 44, 0
2, 10754640, Note_on_c, 2, 44, 50
2, 10754880, Note_off_c, 2, 44, 0
2, 10754880, Note_on_c, 2, 44, 50
2, 10755000, Note_off_c, 2, 44, 0
2, 10755120, Note_on_c, 2, 44, 50
2, 10755360, Note_off_c, 2, 44, 0
2, 10755360, Note_on_c, 2, 44, 50
2, 10755600, Note_off_c, 2, 44, 0
2, 10755600, Note_on_c, 2, 46, 50
2, 10755840, Note_off_c, 2, 46, 0
2, 10755840, Note_on_c, 2, 48, 50
2, 10756080, Note_off_c, 2, 48, 0
2, 10756080, Note_on_c, 2, 49, 50
2, 10756320, Note_off_c, 2, 49, 0
2, 10756560, Note_on_c, 2, 49, 50
2, 10756800, Note_off_c, 2, 49, 0
2, 10757040, Note_on_c, 2, 42, 50
2, 10757280, Note_off_c, 2, 42, 0
2, 10757520, Note_on_c, 2, 46, 50
2, 10757760, Note_off_c, 2, 46, 0
2, 10757760, Note_on_c, 2, 42, 50
2, 10758000, Note_off_c, 2, 42, 0
2, 10758000, Note_on_c, 2, 44, 50
2, 10758240, Note_off_c, 2, 44, 0
2, 10758240, Note_on_c, 2, 44, 50
2, 10758360, Note_off_c, 2, 44, 0
2, 10758480, Note_on_c, 2, 44, 50
2, 10758720, Note_off_c, 2, 44, 0
2, 10758720, Note_on_c, 2, 44, 50
2, 10758840, Note_off_c, 2, 44, 0
2, 10758960, Note_on_c, 2, 44, 50
2, 10759080, Note_off_c, 2, 44, 0
2, 10759200, Note_on_c, 2, 44, 50
2, 10759440, Note_off_c, 2, 44, 0
2, 10759440, Note_on_c, 2, 46, 50
2, 10759680, Note_off_c, 2, 46, 0
2, 10759680, Note_on_c, 2, 48, 50
2, 10759920, Note_off_c, 2, 48, 0
2, 10759920, Note_on_c, 2, 49, 50
2, 10760160, Note_off_c, 2, 49, 0
2, 10760400, Note_on_c, 2, 49, 50
2, 10760640, Note_off_c, 2, 49, 0
2, 10760880, Note_on_c, 2, 42, 50
2, 10761120, Note_off_c, 2, 42, 0
2, 10761360, Note_on_c, 2, 46, 50
2, 10761600, Note_off_c, 2, 46, 0
2, 10761600, Note_on_c, 2, 42, 50
2, 10761840, Note_off_c, 2, 42, 0
2, 10761840, Note_on_c, 2, 44, 50
2, 10762080, Note_off_c, 2, 44, 0
2, 10762080, Note_on_c, 2, 44, 50
2, 10762320, Note_off_c, 2, 44, 0
2, 10762320, Note_on_c, 2, 44, 50
2, 10762560, Note_off_c, 2, 44, 0
2, 10762560, Note_on_c, 2, 44, 50
2, 10762680, Note_off_c, 2, 44, 0
2, 10762800, Note_on_c, 2, 44, 50
2, 10762920, Note_off_c, 2, 44, 0
2, 10763040, Note_on_c, 2, 44, 50
2, 10763280, Note_off_c, 2, 44, 0
2, 10763280, Note_on_c, 2, 46, 50
2, 10763520, Note_off_c, 2, 46, 0
2, 10763520, Note_on_c, 2, 48, 50
2, 10763760, Note_off_c, 2, 48, 0
2, 10763760, Note_on_c, 2, 49, 50
2, 10764000, Note_off_c, 2, 49, 0
2, 10764240, Note_on_c, 2, 49, 50
2, 10764480, Note_off_c, 2, 49, 0
2, 10764720, Note_on_c, 2, 42, 50
2, 10764960, Note_off_c, 2, 42, 0
2, 10765200, Note_on_c, 2, 46, 50
2, 10765440, Note_off_c, 2, 46, 0
2, 10765440, Note_on_c, 2, 42, 50
2, 10765680, Note_off_c, 2, 42, 0
2, 10765680, Note_on_c, 2, 44, 50
2, 10765920, Note_off_c, 2, 44, 0
2, 10765920, Note_on_c, 2, 44, 50
2, 10766160, Note_off_c, 2, 44, 0
2, 10766160, Note_on_c, 2, 44, 50
2, 10766400, Note_off_c, 2, 44, 0
2, 10766400, Note_on_c, 2, 44, 50
2, 10766520, Note_off_c, 2, 44, 0
2, 10766640, Note_on_c, 2, 44, 50
2, 10766760, Note_off_c, 2, 44, 0
2, 10766880, Note_on_c, 2, 44, 50
2, 10767120, Note_off_c, 2, 44, 0
2, 10767120, Note_on_c, 2, 46, 50
2, 10767360, Note_off_c, 2, 46, 0
2, 10767360, Note_on_c, 2, 48, 50
2, 10767600, Note_off_c, 2, 48, 0
2, 10767600, Note_on_c, 2, 49, 50
2, 10767840, Note_off_c, 2, 49, 0
2, 10768320, Note_on_c, 2, 49, 50
2, 10768560, Note_off_c, 2, 49, 0
2, 10768560, Note_on_c, 2, 54, 50
2, 10768680, Note_off_c, 2, 54, 0
2, 10768800, Note_on_c, 2, 58, 50
2, 10769040, Note_off_c, 2, 58, 0
2, 10769280, Note_on_c, 2, 56, 50
2, 10769520, Note_off_c, 2, 56, 0
2, 10770240, Note_on_c, 2, 51, 50
2, 10770480, Note_off_c, 2, 51, 0
2, 10770480, Note_on_c, 2, 54, 50
2, 10770720, Note_off_c, 2, 54, 0
2, 10770960, Note_on_c, 2, 53, 50
2, 10771200, Note_off_c, 2, 53, 0
2, 10771440, Note_on_c, 2, 49, 50
2, 10771680, Note_off_c, 2, 49, 0
2, 10772160, Note_on_c, 2, 49, 50
2, 10772400, Note_off_c, 2, 49, 0
2, 10772400, Note_on_c, 2, 54, 50
2, 10772520, Note_off_c, 2, 54, 0
2, 10772640, Note_on_c, 2, 58, 50
2, 10772880, Note_off_c, 2, 58, 0
2, 10773120, Note_on_c, 2, 56, 50
2, 10773360, Note_off_c, 2, 56, 0
2, 10774080, Note_on_c, 2, 51, 50
2, 10774320, Note_off_c, 2, 51, 0
2, 10774320, Note_on_c, 2, 54, 50
2, 10774560, Note_off_c, 2, 54, 0
2, 10774800, Note_on_c, 2, 53, 50
2, 10775040, Note_off_c, 2, 53, 0
2, 10775280, Note_on_c, 2, 49, 50
2, 10775520, Note_off_c, 2, 49, 0
2, 10776000, Note_on_c, 2, 49, 50
2, 10776240, Note_off_c, 2, 49, 0
2, 10776240, Note_on_c, 2, 54, 50
2, 10776360, Note_off_c, 2, 54, 0
2, 10776480, Note_on_c, 2, 58, 50
2, 10776720, Note_off_c, 2, 58, 0
2, 10776960, Note_on_c, 2, 56, 50
2, 10777200, Note_off_c, 2, 56, 0
2, 10777920, Note_on_c, 2, 51, 50
2, 10778160, Note_off_c, 2, 51, 0
2, 10778160, Note_on_c, 2, 54, 50
2, 10778400, Note_off_c, 2, 54, 0
2, 10778640, Note_on_c, 2, 53, 50
2, 10778880, Note_off_c, 2, 53, 0
2, 10779120, Note_on_c, 2, 49, 50
2, 10779360, Note_off_c, 2, 49, 0
2, 10779840, Note_on_c, 2, 49, 50
2, 10780080, Note_off_c, 2, 49, 0
2, 10780080, Note_on_c, 2, 54, 50
2, 10780200, Note_off_c, 2, 54, 0
2, 10780320, Note_on_c, 2, 58, 50
2, 10780560, Note_off_c, 2, 58, 0
2, 10780800, Note_on_c, 2, 56, 50
2, 10781040, Note_off_c, 2, 56, 0
2, 10781760, Note_on_c, 2, 51, 50
2, 10782000, Note_off_c, 2, 51, 0
2, 10782000, Note_on_c, 2, 54, 50
2, 10782240, Note_off_c, 2, 54, 0
2, 10782480, Note_on_c, 2, 53, 50
2, 10782720, Note_off_c, 2, 53, 0
2, 10782960, Note_on_c, 2, 44, 50
2, 10783080, Note_off_c, 2, 44, 0
2, 10783200, Note_on_c, 2, 44, 50
2, 10783320, Note_off_c, 2, 44, 0
2, 10783440, Note_on_c, 2, 44, 50
2, 10783680, Note_off_c, 2, 44, 0
2, 10783680, Note_on_c, 2, 44, 50
2, 10783920, Note_off_c, 2, 44, 0
2, 10783920, Note_on_c, 2, 44, 50
2, 10784040, Note_off_c, 2, 44, 0
2, 10784160, Note_on_c, 2, 44, 50
2, 10784400, Note_off_c, 2, 44, 0
2, 10784400, Note_on_c, 2, 44, 50
2, 10784640, Note_off_c, 2, 44, 0
2, 10784640, Note_on_c, 2, 44, 50
2, 10784880, Note_off_c, 2, 44, 0
2, 10784880, Note_on_c, 2, 44, 50
2, 10785120, Note_off_c, 2, 44, 0
2, 10785120, Note_on_c, 2, 44, 50
2, 10785360, Note_off_c, 2, 44, 0
2, 10785360, Note_on_c, 2, 44, 50
2, 10785600, Note_off_c, 2, 44, 0
2, 10785600, Note_on_c, 2, 44, 50
2, 10785840, Note_off_c, 2, 44, 0
2, 10785840, Note_on_c, 2, 44, 50
2, 10785960, Note_off_c, 2, 44, 0
2, 10786080, Note_on_c, 2, 44, 50
2, 10786320, Note_off_c, 2, 44, 0
2, 10786320, Note_on_c, 2, 44, 50
2, 10786560, Note_off_c, 2, 44, 0
2, 10786560, Note_on_c, 2, 44, 50
2, 10786680, Note_off_c, 2, 44, 0
2, 10786800, Note_on_c, 2, 44, 50
2, 10787040, Note_off_c, 2, 44, 0
2, 10787040, Note_on_c, 2, 44, 50
2, 10787160, Note_off_c, 2, 44, 0
2, 10787280, Note_on_c, 2, 44, 50
2, 10787400, Note_off_c, 2, 44, 0
2, 10787520, Note_on_c, 2, 44, 50
2, 10787760, Note_off_c, 2, 44, 0
2, 10787760, Note_on_c, 2, 44, 50
2, 10787880, Note_off_c, 2, 44, 0
2, 10788000, Note_on_c, 2, 44, 50
2, 10788120, Note_off_c, 2, 44, 0
2, 10788240, Note_on_c, 2, 44, 50
2, 10788360, Note_off_c, 2, 44, 0
2, 10788480, Note_on_c, 2, 44, 50
2, 10788600, Note_off_c, 2, 44, 0
2, 10788720, Note_on_c, 2, 44, 50
2, 10788960, Note_off_c, 2, 44, 0
2, 10788960, Note_on_c, 2, 44, 50
2, 10789080, Note_off_c, 2, 44, 0
2, 10789200, Note_on_c, 2, 44, 50
2, 10789320, Note_off_c, 2, 44, 0
2, 10789440, Note_on_c, 2, 44, 50
2, 10789680, Note_off_c, 2, 44, 0
2, 10789680, Note_on_c, 2, 44, 50
2, 10789800, Note_off_c, 2, 44, 0
2, 10789920, Note_on_c, 2, 44, 50
2, 10790040, Note_off_c, 2, 44, 0
2, 10790160, Note_on_c, 2, 44, 50
2, 10790400, Note_off_c, 2, 44, 0
2, 10790400, Note_on_c, 2, 44, 50
2, 10790520, Note_off_c, 2, 44, 0
2, 10790640, Note_on_c, 2, 44, 50
2, 10790760, Note_off_c, 2, 44, 0
2, 10790880, Note_on_c, 2, 44, 50
2, 10791000, Note_off_c, 2, 44, 0
2, 10791120, Note_on_c, 2, 44, 50
2, 10791360, Note_off_c, 2, 44, 0
2, 10791360, Note_on_c, 2, 44, 50
2, 10791600, Note_off_c, 2, 44, 0
2, 10791600, Note_on_c, 2, 44, 50
2, 10791720, Note_off_c, 2, 44, 0
2, 10791840, Note_on_c, 2, 44, 50
2, 10792080, Note_off_c, 2, 44, 0
2, 10792080, Note_on_c, 2, 44, 50
2, 10792320, Note_off_c, 2, 44, 0
2, 10792320, Note_on_c, 2, 44, 50
2, 10792440, Note_off_c, 2, 44, 0
2, 10792560, Note_on_c, 2, 44, 50
2, 10792800, Note_off_c, 2, 44, 0
2, 10792800, Note_on_c, 2, 44, 50
2, 10792920, Note_off_c, 2, 44, 0
2, 10793040, Note_on_c, 2, 44, 50
2, 10793280, Note_off_c, 2, 44, 0
2, 10793280, Note_on_c, 2, 44, 50
2, 10793400, Note_off_c, 2, 44, 0
2, 10793520, Note_on_c, 2, 44, 50
2, 10793640, Note_off_c, 2, 44, 0
2, 10793760, Note_on_c, 2, 44, 50
2, 10794000, Note_off_c, 2, 44, 0
2, 10794000, Note_on_c, 2, 46, 50
2, 10794240, Note_off_c, 2, 46, 0
2, 10794240, Note_on_c, 2, 48, 50
2, 10794480, Note_off_c, 2, 48, 0
2, 10794480, Note_on_c, 2, 49, 50
2, 10794720, Note_off_c, 2, 49, 0
2, 10794960, Note_on_c, 2, 49, 50
2, 10795200, Note_off_c, 2, 49, 0
2, 10795440, Note_on_c, 2, 42, 50
2, 10795680, Note_off_c, 2, 42, 0
2, 10795920, Note_on_c, 2, 46, 50
2, 10796160, Note_off_c, 2, 46, 0
2, 10796160, Note_on_c, 2, 42, 50
2, 10796400, Note_off_c, 2, 42, 0
2, 10796400, Note_on_c, 2, 44, 50
2, 10796640, Note_off_c, 2, 44, 0
2, 10796640, Note_on_c, 2, 44, 50
2, 10796880, Note_off_c, 2, 44, 0
2, 10796880, Note_on_c, 2, 44, 50
2, 10797120, Note_off_c, 2, 44, 0
2, 10797120, Note_on_c, 2, 44, 50
2, 10797240, Note_off_c, 2, 44, 0
2, 10797360, Note_on_c, 2, 44, 50
2, 10797600, Note_off_c, 2, 44, 0
2, 10797600, Note_on_c, 2, 44, 50
2, 10797840, Note_off_c, 2, 44, 0
2, 10797840, Note_on_c, 2, 46, 50
2, 10798080, Note_off_c, 2, 46, 0
2, 10798080, Note_on_c, 2, 48, 50
2, 10798320, Note_off_c, 2, 48, 0
2, 10798320, Note_on_c, 2, 49, 50
2, 10798560, Note_off_c, 2, 49, 0
2, 10798800, Note_on_c, 2, 49, 50
2, 10799040, Note_off_c, 2, 49, 0
2, 10799280, Note_on_c, 2, 42, 50
2, 10799520, Note_off_c, 2, 42, 0
2, 10799760, Note_on_c, 2, 46, 50
2, 10800000, Note_off_c, 2, 46, 0
2, 10800000, End_track, , , 
0, 0, End_of_file, , , 
