0, 0, Header, 1, 2, 480
1, 0, Start_track, , , 
1, 0, Title_t, Fingered Bass, , 
1, 0, Control_c, 1, 0, 0
1, 0, Control_c, 1, 32, 0
1, 0, Program_c, 1, 33
1, 0, Control_c, 1, 10, 64
1, 0, Control_c, 1, 93, 0
1, 0, Control_c, 1, 7, 100
1, 0, Control_c, 1, 91, 0
1, 0, Control_c, 1, 64, 0
1, 0, Control_c, 1, 91, 52
1, 0, Control_c, 1, 10, 70
1, 0, Control_c, 1, 7, 95
1, 21840, Note_on_c, 1, 29, 40
1, 22440, Note_off_c, 1, 29, 0
1, 22440, Note_on_c, 1, 43, 40
1, 24360, Note_off_c, 1, 43, 0
1, 28560, Note_on_c, 1, 29, 40
1, 29040, Note_off_c, 1, 29, 0
1, 29040, Note_on_c, 1, 45, 40
1, 29280, Note_off_c, 1, 45, 0
1, 29640, Note_on_c, 1, 29, 40
1, 29760, Note_off_c, 1, 29, 0
1, 29760, Note_on_c, 1, 38, 40
1, 30000, Note_off_c, 1, 38, 0
1, 30000, Note_on_c, 1, 45, 40
1, 30240, Note_off_c, 1, 45, 0
1, 30600, Note_on_c, 1, 40, 40
1, 31440, Note_off_c, 1, 40, 0
1, 31440, Note_on_c, 1, 39, 40
1, 31680, Note_off_c, 1, 39, 0
1, 31680, Note_on_c, 1, 42, 40
1, 31920, Note_off_c, 1, 42, 0
1, 31920, Note_on_c, 1, 45, 40
1, 32160, Note_off_c, 1, 45, 0
1, 32520, Note_on_c, 1, 40, 40
1, 33360, Note_off_c, 1, 40, 0
1, 33360, Note_on_c, 1, 39, 40
1, 33600, Note_off_c, 1, 39, 0
1, 33600, Note_on_c, 1, 42, 40
1, 33840, Note_off_c, 1, 42, 0
1, 33840, Note_on_c, 1, 45, 40
1, 34080, Note_off_c, 1, 45, 0
1, 34440, Note_on_c, 1, 40, 40
1, 35280, Note_off_c, 1, 40, 0
1, 35280, Note_on_c, 1, 39, 40
1, 35520, Note_off_c, 1, 39, 0
1, 35520, Note_on_c, 1, 42, 40
1, 35760, Note_off_c, 1, 42, 0
1, 35760, Note_on_c, 1, 45, 40
1, 36000, Note_off_c, 1, 45, 0
1, 36360, Note_on_c, 1, 40, 40
1, 37200, Note_off_c, 1, 40, 0
1, 37200, Note_on_c, 1, 39, 40
1, 37440, Note_off_c, 1, 39, 0
1, 37440, Note_on_c, 1, 42, 40
1, 37680, Note_off_c, 1, 42, 0
1, 37680, Note_on_c, 1, 45, 40
1, 37920, Note_off_c, 1, 45, 0
1, 38280, Note_on_c, 1, 40, 40
1, 39120, Note_off_c, 1, 40, 0
1, 39120, Note_on_c, 1, 39, 40
1, 39360, Note_off_c, 1, 39, 0
1, 39360, Note_on_c, 1, 42, 40
1, 39600, Note_off_c, 1, 42, 0
1, 39600, Note_on_c, 1, 45, 40
1, 39840, Note_off_c, 1, 45, 0
1, 40200, Note_on_c, 1, 40, 40
1, 41040, Note_off_c, 1, 40, 0
1, 41040, Note_on_c, 1, 39, 40
1, 41280, Note_off_c, 1, 39, 0
1, 41280, Note_on_c, 1, 42, 40
1, 41520, Note_off_c, 1, 42, 0
1, 41520, Note_on_c, 1, 45, 40
1, 41760, Note_off_c, 1, 45, 0
1, 42120, Note_on_c, 1, 40, 40
1, 42960, Note_off_c, 1, 40, 0
1, 42960, Note_on_c, 1, 39, 40
1, 43200, Note_off_c, 1, 39, 0
1, 43200, Note_on_c, 1, 42, 40
1, 43440, Note_off_c, 1, 42, 0
1, 43440, Note_on_c, 1, 45, 40
1, 43680, Note_off_c, 1, 45, 0
1, 44040, Note_on_c, 1, 40, 40
1, 44880, Note_off_c, 1, 40, 0
1, 44880, Note_on_c, 1, 39, 40
1, 45120, Note_off_c, 1, 39, 0
1, 45120, Note_on_c, 1, 42, 40
1, 45360, Note_off_c, 1, 42, 0
1, 45360, Note_on_c, 1, 45, 40
1, 45600, Note_off_c, 1, 45, 0
1, 45960, Note_on_c, 1, 40, 40
1, 46800, Note_off_c, 1, 40, 0
1, 46800, Note_on_c, 1, 39, 40
1, 47040, Note_off_c, 1, 39, 0
1, 47040, Note_on_c, 1, 42, 40
1, 47280, Note_off_c, 1, 42, 0
1, 47280, Note_on_c, 1, 45, 40
1, 47520, Note_off_c, 1, 45, 0
1, 47880, Note_on_c, 1, 40, 40
1, 48720, Note_off_c, 1, 40, 0
1, 48720, Note_on_c, 1, 39, 40
1, 48960, Note_off_c, 1, 39, 0
1, 48960, Note_on_c, 1, 42, 40
1, 49200, Note_off_c, 1, 42, 0
1, 49200, Note_on_c, 1, 45, 40
1, 49440, Note_off_c, 1, 45, 0
1, 49800, Note_on_c, 1, 40, 40
1, 50640, Note_off_c, 1, 40, 0
1, 50640, Note_on_c, 1, 39, 40
1, 50880, Note_off_c, 1, 39, 0
1, 50880, Note_on_c, 1, 42, 40
1, 51120, Note_off_c, 1, 42, 0
1, 51120, Note_on_c, 1, 45, 40
1, 51360, Note_off_c, 1, 45, 0
1, 51720, Note_on_c, 1, 40, 40
1, 52560, Note_off_c, 1, 40, 0
1, 52560, Note_on_c, 1, 39, 40
1, 52800, Note_off_c, 1, 39, 0
1, 52800, Note_on_c, 1, 42, 40
1, 53040, Note_off_c, 1, 42, 0
1, 53040, Note_on_c, 1, 45, 40
1, 53280, Note_off_c, 1, 45, 0
1, 53640, Note_on_c, 1, 40, 40
1, 54480, Note_off_c, 1, 40, 0
1, 54480, Note_on_c, 1, 39, 40
1, 54720, Note_off_c, 1, 39, 0
1, 54720, Note_on_c, 1, 42, 40
1, 54960, Note_off_c, 1, 42, 0
1, 54960, Note_on_c, 1, 45, 40
1, 55200, Note_off_c, 1, 45, 0
1, 55560, Note_on_c, 1, 40, 40
1, 56400, Note_off_c, 1, 40, 0
1, 56400, Note_on_c, 1, 39, 40
1, 56640, Note_off_c, 1, 39, 0
1, 56640, Note_on_c, 1, 42, 40
1, 56880, Note_off_c, 1, 42, 0
1, 56880, Note_on_c, 1, 45, 40
1, 57120, Note_off_c, 1, 45, 0
1, 57480, Note_on_c, 1, 40, 40
1, 58320, Note_off_c, 1, 40, 0
1, 58320, Note_on_c, 1, 39, 40
1, 58560, Note_off_c, 1, 39, 0
1, 58560, Note_on_c, 1, 42, 40
1, 58800, Note_off_c, 1, 42, 0
1, 58800, Note_on_c, 1, 45, 40
1, 59040, Note_off_c, 1, 45, 0
1, 59400, Note_on_c, 1, 40, 40
1, 60240, Note_off_c, 1, 40, 0
1, 60240, Note_on_c, 1, 39, 40
1, 60480, Note_off_c, 1, 39, 0
1, 60480, Note_on_c, 1, 42, 40
1, 60720, Note_off_c, 1, 42, 0
1, 60720, Note_on_c, 1, 45, 40
1, 60960, Note_off_c, 1, 45, 0
1, 61320, Note_on_c, 1, 40, 40
1, 62160, Note_off_c, 1, 40, 0
1, 62160, Note_on_c, 1, 39, 40
1, 62400, Note_off_c, 1, 39, 0
1, 62400, Note_on_c, 1, 42, 40
1, 62640, Note_off_c, 1, 42, 0
1, 62640, Note_on_c, 1, 45, 40
1, 62880, Note_off_c, 1, 45, 0
1, 63240, Note_on_c, 1, 40, 40
1, 64080, Note_off_c, 1, 40, 0
1, 64080, Note_on_c, 1, 39, 40
1, 64320, Note_off_c, 1, 39, 0
1, 64320, Note_on_c, 1, 42, 40
1, 64560, Note_off_c, 1, 42, 0
1, 64560, Note_on_c, 1, 45, 40
1, 64800, Note_off_c, 1, 45, 0
1, 65160, Note_on_c, 1, 40, 40
1, 66000, Note_off_c, 1, 40, 0
1, 66000, Note_on_c, 1, 39, 40
1, 66240, Note_off_c, 1, 39, 0
1, 66240, Note_on_c, 1, 42, 40
1, 66480, Note_off_c, 1, 42, 0
1, 66480, Note_on_c, 1, 45, 40
1, 66720, Note_off_c, 1, 45, 0
1, 67080, Note_on_c, 1, 40, 40
1, 67920, Note_off_c, 1, 40, 0
1, 67920, Note_on_c, 1, 39, 40
1, 68160, Note_off_c, 1, 39, 0
1, 68160, Note_on_c, 1, 42, 40
1, 68400, Note_off_c, 1, 42, 0
1, 68400, Note_on_c, 1, 45, 40
1, 68640, Note_off_c, 1, 45, 0
1, 69000, Note_on_c, 1, 40, 40
1, 69840, Note_off_c, 1, 40, 0
1, 69840, Note_on_c, 1, 39, 40
1, 70080, Note_off_c, 1, 39, 0
1, 70080, Note_on_c, 1, 42, 40
1, 70320, Note_off_c, 1, 42, 0
1, 70320, Note_on_c, 1, 45, 40
1, 70560, Note_off_c, 1, 45, 0
1, 70920, Note_on_c, 1, 40, 40
1, 71760, Note_off_c, 1, 40, 0
1, 71760, Note_on_c, 1, 39, 40
1, 72000, Note_off_c, 1, 39, 0
1, 72000, Note_on_c, 1, 42, 40
1, 72240, Note_off_c, 1, 42, 0
1, 72240, Note_on_c, 1, 45, 40
1, 72480, Note_off_c, 1, 45, 0
1, 72840, Note_on_c, 1, 40, 40
1, 73680, Note_off_c, 1, 40, 0
1, 73680, Note_on_c, 1, 39, 40
1, 73920, Note_off_c, 1, 39, 0
1, 73920, Note_on_c, 1, 42, 40
1, 74160, Note_off_c, 1, 42, 0
1, 74160, Note_on_c, 1, 45, 40
1, 74400, Note_off_c, 1, 45, 0
1, 77160, Note_on_c, 1, 28, 40
1, 78840, Note_off_c, 1, 28, 0
1, 78840, Note_on_c, 1, 35, 40
1, 79800, Note_off_c, 1, 35, 0
1, 79800, Note_on_c, 1, 39, 40
1, 80520, Note_off_c, 1, 39, 0
1, 82800, Note_on_c, 1, 39, 40
1, 83520, Note_off_c, 1, 39, 0
1, 92520, Note_on_c, 1, 28, 40
1, 94200, Note_off_c, 1, 28, 0
1, 94200, Note_on_c, 1, 35, 40
1, 95160, Note_off_c, 1, 35, 0
1, 95160, Note_on_c, 1, 39, 40
1, 95880, Note_off_c, 1, 39, 0
1, 98160, Note_on_c, 1, 39, 40
1, 98880, Note_off_c, 1, 39, 0
1, 105480, Note_on_c, 1, 40, 40
1, 106320, Note_off_c, 1, 40, 0
1, 106320, Note_on_c, 1, 39, 40
1, 106560, Note_off_c, 1, 39, 0
1, 106560, Note_on_c, 1, 42, 40
1, 106800, Note_off_c, 1, 42, 0
1, 106800, Note_on_c, 1, 45, 40
1, 107040, Note_off_c, 1, 45, 0
1, 107400, Note_on_c, 1, 40, 40
1, 108240, Note_off_c, 1, 40, 0
1, 108240, Note_on_c, 1, 39, 40
1, 108480, Note_off_c, 1, 39, 0
1, 108480, Note_on_c, 1, 42, 40
1, 108720, Note_off_c, 1, 42, 0
1, 108720, Note_on_c, 1, 45, 40
1, 108960, Note_off_c, 1, 45, 0
1, 109320, Note_on_c, 1, 40, 40
1, 110160, Note_off_c, 1, 40, 0
1, 110160, Note_on_c, 1, 39, 40
1, 110400, Note_off_c, 1, 39, 0
1, 110400, Note_on_c, 1, 42, 40
1, 110640, Note_off_c, 1, 42, 0
1, 110640, Note_on_c, 1, 45, 40
1, 110880, Note_off_c, 1, 45, 0
1, 111240, Note_on_c, 1, 40, 40
1, 112080, Note_off_c, 1, 40, 0
1, 112080, Note_on_c, 1, 39, 40
1, 112320, Note_off_c, 1, 39, 0
1, 112320, Note_on_c, 1, 42, 40
1, 112560, Note_off_c, 1, 42, 0
1, 112560, Note_on_c, 1, 45, 40
1, 112800, Note_off_c, 1, 45, 0
1, 113160, Note_on_c, 1, 40, 40
1, 114000, Note_off_c, 1, 40, 0
1, 114000, Note_on_c, 1, 39, 40
1, 114240, Note_off_c, 1, 39, 0
1, 114240, Note_on_c, 1, 42, 40
1, 114480, Note_off_c, 1, 42, 0
1, 114480, Note_on_c, 1, 45, 40
1, 114720, Note_off_c, 1, 45, 0
1, 115080, Note_on_c, 1, 40, 40
1, 115920, Note_off_c, 1, 40, 0
1, 115920, Note_on_c, 1, 39, 40
1, 116160, Note_off_c, 1, 39, 0
1, 116160, Note_on_c, 1, 42, 40
1, 116400, Note_off_c, 1, 42, 0
1, 116400, Note_on_c, 1, 45, 40
1, 116640, Note_off_c, 1, 45, 0
1, 117000, Note_on_c, 1, 40, 40
1, 117840, Note_off_c, 1, 40, 0
1, 117840, Note_on_c, 1, 39, 40
1, 118080, Note_off_c, 1, 39, 0
1, 118080, Note_on_c, 1, 42, 40
1, 118320, Note_off_c, 1, 42, 0
1, 118320, Note_on_c, 1, 45, 40
1, 118560, Note_off_c, 1, 45, 0
1, 118920, Note_on_c, 1, 40, 40
1, 119760, Note_off_c, 1, 40, 0
1, 119760, Note_on_c, 1, 39, 40
1, 120000, Note_off_c, 1, 39, 0
1, 120000, Note_on_c, 1, 42, 40
1, 120240, Note_off_c, 1, 42, 0
1, 120240, Note_on_c, 1, 45, 40
1, 120480, Note_off_c, 1, 45, 0
1, 120840, Note_on_c, 1, 40, 40
1, 121680, Note_off_c, 1, 40, 0
1, 121680, Note_on_c, 1, 39, 40
1, 121920, Note_off_c, 1, 39, 0
1, 121920, Note_on_c, 1, 42, 40
1, 122160, Note_off_c, 1, 42, 0
1, 122160, Note_on_c, 1, 45, 40
1, 122400, Note_off_c, 1, 45, 0
1, 122760, Note_on_c, 1, 40, 40
1, 123600, Note_off_c, 1, 40, 0
1, 123600, Note_on_c, 1, 39, 40
1, 123840, Note_off_c, 1, 39, 0
1, 123840, Note_on_c, 1, 42, 40
1, 124080, Note_off_c, 1, 42, 0
1, 124080, Note_on_c, 1, 45, 40
1, 124320, Note_off_c, 1, 45, 0
1, 124680, Note_on_c, 1, 40, 40
1, 125520, Note_off_c, 1, 40, 0
1, 125520, Note_on_c, 1, 39, 40
1, 125760, Note_off_c, 1, 39, 0
1, 125760, Note_on_c, 1, 42, 40
1, 126000, Note_off_c, 1, 42, 0
1, 126000, Note_on_c, 1, 45, 40
1, 126240, Note_off_c, 1, 45, 0
1, 126600, Note_on_c, 1, 40, 40
1, 127440, Note_off_c, 1, 40, 0
1, 127440, Note_on_c, 1, 39, 40
1, 127680, Note_off_c, 1, 39, 0
1, 127680, Note_on_c, 1, 42, 40
1, 127920, Note_off_c, 1, 42, 0
1, 127920, Note_on_c, 1, 45, 40
1, 128160, Note_off_c, 1, 45, 0
1, 128520, Note_on_c, 1, 40, 40
1, 129360, Note_off_c, 1, 40, 0
1, 129360, Note_on_c, 1, 39, 40
1, 129600, Note_off_c, 1, 39, 0
1, 129600, Note_on_c, 1, 42, 40
1, 129840, Note_off_c, 1, 42, 0
1, 129840, Note_on_c, 1, 45, 40
1, 130080, Note_off_c, 1, 45, 0
1, 130440, Note_on_c, 1, 40, 40
1, 131280, Note_off_c, 1, 40, 0
1, 131280, Note_on_c, 1, 39, 40
1, 131520, Note_off_c, 1, 39, 0
1, 131520, Note_on_c, 1, 42, 40
1, 131760, Note_off_c, 1, 42, 0
1, 131760, Note_on_c, 1, 45, 40
1, 132000, Note_off_c, 1, 45, 0
1, 132360, Note_on_c, 1, 40, 40
1, 133200, Note_off_c, 1, 40, 0
1, 133200, Note_on_c, 1, 39, 40
1, 133440, Note_off_c, 1, 39, 0
1, 133440, Note_on_c, 1, 42, 40
1, 133680, Note_off_c, 1, 42, 0
1, 133680, Note_on_c, 1, 45, 40
1, 133920, Note_off_c, 1, 45, 0
1, 134280, Note_on_c, 1, 40, 40
1, 135120, Note_off_c, 1, 40, 0
1, 135120, Note_on_c, 1, 39, 40
1, 135360, Note_off_c, 1, 39, 0
1, 135360, Note_on_c, 1, 42, 40
1, 135600, Note_off_c, 1, 42, 0
1, 135600, Note_on_c, 1, 45, 40
1, 135840, Note_off_c, 1, 45, 0
1, 136200, Note_on_c, 1, 40, 40
1, 137040, Note_off_c, 1, 40, 0
1, 137040, Note_on_c, 1, 39, 40
1, 137280, Note_off_c, 1, 39, 0
1, 137280, Note_on_c, 1, 42, 40
1, 137520, Note_off_c, 1, 42, 0
1, 137520, Note_on_c, 1, 45, 40
1, 137760, Note_off_c, 1, 45, 0
1, 138120, Note_on_c, 1, 40, 40
1, 138960, Note_off_c, 1, 40, 0
1, 138960, Note_on_c, 1, 39, 40
1, 139200, Note_off_c, 1, 39, 0
1, 139200, Note_on_c, 1, 42, 40
1, 139440, Note_off_c, 1, 42, 0
1, 139440, Note_on_c, 1, 45, 40
1, 139680, Note_off_c, 1, 45, 0
1, 146280, Note_on_c, 1, 28, 40
1, 147960, Note_off_c, 1, 28, 0
1, 147960, Note_on_c, 1, 35, 40
1, 148920, Note_off_c, 1, 35, 0
1, 148920, Note_on_c, 1, 39, 40
1, 149640, Note_off_c, 1, 39, 0
1, 151920, Note_on_c, 1, 39, 40
1, 152640, Note_off_c, 1, 39, 0
1, 161640, Note_on_c, 1, 28, 40
1, 163320, Note_off_c, 1, 28, 0
1, 163320, Note_on_c, 1, 35, 40
1, 164280, Note_off_c, 1, 35, 0
1, 164280, Note_on_c, 1, 39, 40
1, 165000, Note_off_c, 1, 39, 0
1, 167280, Note_on_c, 1, 39, 40
1, 168000, Note_off_c, 1, 39, 0
1, 177000, Note_on_c, 1, 28, 40
1, 178680, Note_off_c, 1, 28, 0
1, 178680, Note_on_c, 1, 35, 40
1, 179640, Note_off_c, 1, 35, 0
1, 179640, Note_on_c, 1, 39, 40
1, 180360, Note_off_c, 1, 39, 0
1, 182640, Note_on_c, 1, 39, 40
1, 183360, Note_off_c, 1, 39, 0
1, 192360, Note_on_c, 1, 28, 40
1, 194040, Note_off_c, 1, 28, 0
1, 194040, Note_on_c, 1, 35, 40
1, 195000, Note_off_c, 1, 35, 0
1, 195000, Note_on_c, 1, 39, 40
1, 195720, Note_off_c, 1, 39, 0
1, 198000, Note_on_c, 1, 39, 40
1, 198720, Note_off_c, 1, 39, 0
1, 207720, Note_on_c, 1, 28, 40
1, 209400, Note_off_c, 1, 28, 0
1, 209400, Note_on_c, 1, 35, 40
1, 210360, Note_off_c, 1, 35, 0
1, 210360, Note_on_c, 1, 39, 40
1, 211080, Note_off_c, 1, 39, 0
1, 213360, Note_on_c, 1, 39, 40
1, 214080, Note_off_c, 1, 39, 0
1, 223080, Note_on_c, 1, 28, 40
1, 224760, Note_off_c, 1, 28, 0
1, 224760, Note_on_c, 1, 35, 40
1, 225720, Note_off_c, 1, 35, 0
1, 225720, Note_on_c, 1, 39, 40
1, 226440, Note_off_c, 1, 39, 0
1, 228720, Note_on_c, 1, 39, 40
1, 229440, Note_off_c, 1, 39, 0
1, 238440, Note_on_c, 1, 28, 40
1, 240120, Note_off_c, 1, 28, 0
1, 240120, Note_on_c, 1, 35, 40
1, 241080, Note_off_c, 1, 35, 0
1, 241080, Note_on_c, 1, 39, 40
1, 241800, Note_off_c, 1, 39, 0
1, 244080, Note_on_c, 1, 39, 40
1, 244800, Note_off_c, 1, 39, 0
1, 266880, Note_on_c, 1, 31, 40
1, 267120, Note_off_c, 1, 31, 0
1, 267120, Note_on_c, 1, 39, 40
1, 267360, Note_off_c, 1, 39, 0
1, 267720, Note_on_c, 1, 46, 40
1, 268440, Note_off_c, 1, 46, 0
1, 268800, Note_on_c, 1, 34, 40
1, 268920, Note_off_c, 1, 34, 0
1, 268920, Note_on_c, 1, 39, 40
1, 270840, Note_off_c, 1, 39, 0
1, 270960, Note_on_c, 1, 31, 40
1, 271200, Note_off_c, 1, 31, 0
1, 271560, Note_on_c, 1, 46, 40
1, 272280, Note_off_c, 1, 46, 0
1, 272640, Note_on_c, 1, 39, 40
1, 272880, Note_off_c, 1, 39, 0
1, 272880, Note_on_c, 1, 36, 40
1, 273120, Note_off_c, 1, 36, 0
1, 273120, Note_on_c, 1, 39, 40
1, 273360, Note_off_c, 1, 39, 0
1, 273360, Note_on_c, 1, 36, 40
1, 273600, Note_off_c, 1, 36, 0
1, 273600, Note_on_c, 1, 39, 40
1, 273840, Note_off_c, 1, 39, 0
1, 274080, Note_on_c, 1, 45, 40
1, 274200, Note_off_c, 1, 45, 0
1, 274320, Note_on_c, 1, 31, 40
1, 274560, Note_off_c, 1, 31, 0
1, 274920, Note_on_c, 1, 34, 40
1, 275040, Note_off_c, 1, 34, 0
1, 275040, Note_on_c, 1, 29, 40
1, 276960, Note_off_c, 1, 29, 0
1, 276960, Note_on_c, 1, 42, 40
1, 278880, Note_off_c, 1, 42, 0
1, 278880, Note_on_c, 1, 32, 40
1, 279000, Note_off_c, 1, 32, 0
1, 279000, Note_on_c, 1, 36, 40
1, 279120, Note_off_c, 1, 36, 0
1, 279120, Note_on_c, 1, 39, 40
1, 279360, Note_off_c, 1, 39, 0
1, 281520, Note_on_c, 1, 31, 40
1, 282000, Note_off_c, 1, 31, 0
1, 282000, Note_on_c, 1, 31, 40
1, 282240, Note_off_c, 1, 31, 0
1, 282240, Note_on_c, 1, 31, 40
1, 282480, Note_off_c, 1, 31, 0
1, 282480, Note_on_c, 1, 39, 40
1, 282720, Note_off_c, 1, 39, 0
1, 282960, Note_on_c, 1, 31, 40
1, 283200, Note_off_c, 1, 31, 0
1, 283200, Note_on_c, 1, 31, 40
1, 283440, Note_off_c, 1, 31, 0
1, 283440, Note_on_c, 1, 31, 40
1, 283680, Note_off_c, 1, 31, 0
1, 283680, Note_on_c, 1, 31, 40
1, 283920, Note_off_c, 1, 31, 0
1, 283920, Note_on_c, 1, 31, 40
1, 284160, Note_off_c, 1, 31, 0
1, 284160, Note_on_c, 1, 39, 40
1, 284400, Note_off_c, 1, 39, 0
1, 284640, Note_on_c, 1, 39, 40
1, 284880, Note_off_c, 1, 39, 0
1, 285000, Note_on_c, 1, 36, 40
1, 285240, Note_off_c, 1, 36, 0
1, 285240, Note_on_c, 1, 36, 40
1, 285960, Note_off_c, 1, 36, 0
1, 286320, Note_on_c, 1, 31, 40
1, 286560, Note_off_c, 1, 31, 0
1, 286560, Note_on_c, 1, 31, 40
1, 286800, Note_off_c, 1, 31, 0
1, 286800, Note_on_c, 1, 31, 40
1, 287040, Note_off_c, 1, 31, 0
1, 287040, Note_on_c, 1, 31, 40
1, 287280, Note_off_c, 1, 31, 0
1, 287280, Note_on_c, 1, 31, 40
1, 287520, Note_off_c, 1, 31, 0
1, 287520, Note_on_c, 1, 39, 40
1, 287760, Note_off_c, 1, 39, 0
1, 288000, Note_on_c, 1, 36, 40
1, 288240, Note_off_c, 1, 36, 0
1, 288240, Note_on_c, 1, 36, 40
1, 290160, Note_off_c, 1, 36, 0
1, 290280, Note_on_c, 1, 31, 40
1, 290520, Note_off_c, 1, 31, 0
1, 290520, Note_on_c, 1, 31, 40
1, 290760, Note_off_c, 1, 31, 0
1, 290760, Note_on_c, 1, 31, 40
1, 291000, Note_off_c, 1, 31, 0
1, 291000, Note_on_c, 1, 31, 40
1, 291240, Note_off_c, 1, 31, 0
1, 291240, Note_on_c, 1, 31, 40
1, 291480, Note_off_c, 1, 31, 0
1, 291480, Note_on_c, 1, 31, 40
1, 291720, Note_off_c, 1, 31, 0
1, 291720, Note_on_c, 1, 31, 40
1, 291960, Note_off_c, 1, 31, 0
1, 291960, Note_on_c, 1, 39, 40
1, 292200, Note_off_c, 1, 39, 0
1, 292440, Note_on_c, 1, 39, 40
1, 292680, Note_off_c, 1, 39, 0
1, 292800, Note_on_c, 1, 36, 40
1, 293040, Note_off_c, 1, 36, 0
1, 293160, Note_on_c, 1, 39, 40
1, 293400, Note_off_c, 1, 39, 0
1, 293520, Note_on_c, 1, 31, 40
1, 293760, Note_off_c, 1, 31, 0
1, 293760, Note_on_c, 1, 31, 40
1, 294000, Note_off_c, 1, 31, 0
1, 294000, Note_on_c, 1, 39, 40
1, 294240, Note_off_c, 1, 39, 0
1, 294480, Note_on_c, 1, 31, 40
1, 294720, Note_off_c, 1, 31, 0
1, 294720, Note_on_c, 1, 31, 40
1, 294960, Note_off_c, 1, 31, 0
1, 294960, Note_on_c, 1, 31, 40
1, 295200, Note_off_c, 1, 31, 0
1, 295200, Note_on_c, 1, 39, 40
1, 295440, Note_off_c, 1, 39, 0
1, 295680, Note_on_c, 1, 36, 40
1, 295920, Note_off_c, 1, 36, 0
1, 295920, Note_on_c, 1, 36, 40
1, 297840, Note_off_c, 1, 36, 0
1, 297960, Note_on_c, 1, 31, 40
1, 298200, Note_off_c, 1, 31, 0
1, 298200, Note_on_c, 1, 31, 40
1, 298440, Note_off_c, 1, 31, 0
1, 298440, Note_on_c, 1, 31, 40
1, 298680, Note_off_c, 1, 31, 0
1, 298680, Note_on_c, 1, 31, 40
1, 298920, Note_off_c, 1, 31, 0
1, 298920, Note_on_c, 1, 31, 40
1, 299160, Note_off_c, 1, 31, 0
1, 299160, Note_on_c, 1, 31, 40
1, 299400, Note_off_c, 1, 31, 0
1, 299400, Note_on_c, 1, 31, 40
1, 299640, Note_off_c, 1, 31, 0
1, 299640, Note_on_c, 1, 39, 40
1, 299880, Note_off_c, 1, 39, 0
1, 300120, Note_on_c, 1, 39, 40
1, 300360, Note_off_c, 1, 39, 0
1, 300480, Note_on_c, 1, 36, 40
1, 300720, Note_off_c, 1, 36, 0
1, 300840, Note_on_c, 1, 39, 40
1, 301080, Note_off_c, 1, 39, 0
1, 301200, Note_on_c, 1, 31, 40
1, 301440, Note_off_c, 1, 31, 0
1, 301440, Note_on_c, 1, 31, 40
1, 301680, Note_off_c, 1, 31, 0
1, 301680, Note_on_c, 1, 39, 40
1, 301920, Note_off_c, 1, 39, 0
1, 302160, Note_on_c, 1, 31, 40
1, 302400, Note_off_c, 1, 31, 0
1, 302400, Note_on_c, 1, 31, 40
1, 302640, Note_off_c, 1, 31, 0
1, 302640, Note_on_c, 1, 31, 40
1, 302880, Note_off_c, 1, 31, 0
1, 302880, Note_on_c, 1, 31, 40
1, 303120, Note_off_c, 1, 31, 0
1, 303120, Note_on_c, 1, 31, 40
1, 303360, Note_off_c, 1, 31, 0
1, 303360, Note_on_c, 1, 39, 40
1, 305280, Note_off_c, 1, 39, 0
1, 305640, Note_on_c, 1, 31, 40
1, 305880, Note_off_c, 1, 31, 0
1, 305880, Note_on_c, 1, 31, 40
1, 306120, Note_off_c, 1, 31, 0
1, 306120, Note_on_c, 1, 31, 40
1, 306360, Note_off_c, 1, 31, 0
1, 306360, Note_on_c, 1, 31, 40
1, 306600, Note_off_c, 1, 31, 0
1, 306600, Note_on_c, 1, 31, 40
1, 306840, Note_off_c, 1, 31, 0
1, 306840, Note_on_c, 1, 31, 40
1, 307080, Note_off_c, 1, 31, 0
1, 307080, Note_on_c, 1, 31, 40
1, 307320, Note_off_c, 1, 31, 0
1, 307320, Note_on_c, 1, 39, 40
1, 307560, Note_off_c, 1, 39, 0
1, 307800, Note_on_c, 1, 39, 40
1, 308040, Note_off_c, 1, 39, 0
1, 308160, Note_on_c, 1, 36, 40
1, 308400, Note_off_c, 1, 36, 0
1, 308520, Note_on_c, 1, 39, 40
1, 308760, Note_off_c, 1, 39, 0
1, 308880, Note_on_c, 1, 31, 40
1, 309120, Note_off_c, 1, 31, 0
1, 309120, Note_on_c, 1, 31, 40
1, 309360, Note_off_c, 1, 31, 0
1, 309360, Note_on_c, 1, 39, 40
1, 309600, Note_off_c, 1, 39, 0
1, 309840, Note_on_c, 1, 31, 40
1, 310080, Note_off_c, 1, 31, 0
1, 310080, Note_on_c, 1, 31, 40
1, 310320, Note_off_c, 1, 31, 0
1, 310320, Note_on_c, 1, 31, 40
1, 310560, Note_off_c, 1, 31, 0
1, 310560, Note_on_c, 1, 31, 40
1, 310800, Note_off_c, 1, 31, 0
1, 310800, Note_on_c, 1, 31, 40
1, 311040, Note_off_c, 1, 31, 0
1, 311040, Note_on_c, 1, 39, 40
1, 312960, Note_off_c, 1, 39, 0
1, 313080, Note_on_c, 1, 31, 40
1, 313200, Note_off_c, 1, 31, 0
1, 313200, Note_on_c, 1, 39, 40
1, 313440, Note_off_c, 1, 39, 0
1, 313680, Note_on_c, 1, 31, 40
1, 313920, Note_off_c, 1, 31, 0
1, 313920, Note_on_c, 1, 39, 40
1, 314160, Note_off_c, 1, 39, 0
1, 314160, Note_on_c, 1, 31, 40
1, 314400, Note_off_c, 1, 31, 0
1, 314400, Note_on_c, 1, 31, 40
1, 314640, Note_off_c, 1, 31, 0
1, 314640, Note_on_c, 1, 31, 40
1, 314760, Note_off_c, 1, 31, 0
1, 314760, Note_on_c, 1, 39, 40
1, 315000, Note_off_c, 1, 39, 0
1, 315120, Note_on_c, 1, 31, 40
1, 315360, Note_off_c, 1, 31, 0
1, 315360, Note_on_c, 1, 31, 40
1, 315600, Note_off_c, 1, 31, 0
1, 315600, Note_on_c, 1, 31, 40
1, 315720, Note_off_c, 1, 31, 0
1, 315720, Note_on_c, 1, 39, 40
1, 315960, Note_off_c, 1, 39, 0
1, 316080, Note_on_c, 1, 31, 40
1, 316320, Note_off_c, 1, 31, 0
1, 316320, Note_on_c, 1, 31, 40
1, 316560, Note_off_c, 1, 31, 0
1, 316560, Note_on_c, 1, 31, 40
1, 316680, Note_off_c, 1, 31, 0
1, 316680, Note_on_c, 1, 39, 40
1, 316920, Note_off_c, 1, 39, 0
1, 317520, Note_on_c, 1, 31, 40
1, 317760, Note_off_c, 1, 31, 0
1, 317760, Note_on_c, 1, 39, 40
1, 318000, Note_off_c, 1, 39, 0
1, 318480, Note_on_c, 1, 31, 40
1, 318720, Note_off_c, 1, 31, 0
1, 318720, Note_on_c, 1, 36, 40
1, 320640, Note_off_c, 1, 36, 0
1, 320760, Note_on_c, 1, 31, 40
1, 320880, Note_off_c, 1, 31, 0
1, 323400, Note_on_c, 1, 31, 40
1, 323640, Note_off_c, 1, 31, 0
1, 323640, Note_on_c, 1, 39, 40
1, 323880, Note_off_c, 1, 39, 0
1, 323880, Note_on_c, 1, 44, 40
1, 324480, Note_off_c, 1, 44, 0
1, 324480, Note_on_c, 1, 39, 40
1, 324720, Note_off_c, 1, 39, 0
1, 325200, Note_on_c, 1, 29, 40
1, 325680, Note_off_c, 1, 29, 0
1, 325680, Note_on_c, 1, 31, 40
1, 325920, Note_off_c, 1, 31, 0
1, 325920, Note_on_c, 1, 31, 40
1, 326160, Note_off_c, 1, 31, 0
1, 326160, Note_on_c, 1, 34, 40
1, 326400, Note_off_c, 1, 34, 0
1, 326520, Note_on_c, 1, 31, 40
1, 326640, Note_off_c, 1, 31, 0
1, 329160, Note_on_c, 1, 31, 40
1, 329400, Note_off_c, 1, 31, 0
1, 329400, Note_on_c, 1, 39, 40
1, 329640, Note_off_c, 1, 39, 0
1, 330120, Note_on_c, 1, 31, 40
1, 330360, Note_off_c, 1, 31, 0
1, 330360, Note_on_c, 1, 39, 40
1, 330600, Note_off_c, 1, 39, 0
1, 331080, Note_on_c, 1, 31, 40
1, 331320, Note_off_c, 1, 31, 0
1, 331320, Note_on_c, 1, 39, 40
1, 331560, Note_off_c, 1, 39, 0
1, 332040, Note_on_c, 1, 31, 40
1, 332280, Note_off_c, 1, 31, 0
1, 332280, Note_on_c, 1, 39, 40
1, 332520, Note_off_c, 1, 39, 0
1, 333000, Note_on_c, 1, 29, 40
1, 333480, Note_off_c, 1, 29, 0
1, 333480, Note_on_c, 1, 31, 40
1, 333720, Note_off_c, 1, 31, 0
1, 333720, Note_on_c, 1, 31, 40
1, 333960, Note_off_c, 1, 31, 0
1, 333960, Note_on_c, 1, 31, 40
1, 334080, Note_off_c, 1, 31, 0
1, 334080, Note_on_c, 1, 39, 40
1, 334320, Note_off_c, 1, 39, 0
1, 334800, Note_on_c, 1, 31, 40
1, 335040, Note_off_c, 1, 31, 0
1, 335040, Note_on_c, 1, 39, 40
1, 335280, Note_off_c, 1, 39, 0
1, 335760, Note_on_c, 1, 31, 40
1, 336000, Note_off_c, 1, 31, 0
1, 336000, Note_on_c, 1, 39, 40
1, 336240, Note_off_c, 1, 39, 0
1, 336720, Note_on_c, 1, 31, 40
1, 336960, Note_off_c, 1, 31, 0
1, 336960, Note_on_c, 1, 39, 40
1, 337200, Note_off_c, 1, 39, 0
1, 337680, Note_on_c, 1, 31, 40
1, 337920, Note_off_c, 1, 31, 0
1, 337920, Note_on_c, 1, 39, 40
1, 338160, Note_off_c, 1, 39, 0
1, 338640, Note_on_c, 1, 31, 40
1, 338880, Note_off_c, 1, 31, 0
1, 338880, Note_on_c, 1, 39, 40
1, 339120, Note_off_c, 1, 39, 0
1, 339600, Note_on_c, 1, 31, 40
1, 339840, Note_off_c, 1, 31, 0
1, 339840, Note_on_c, 1, 39, 40
1, 340080, Note_off_c, 1, 39, 0
1, 340560, Note_on_c, 1, 29, 40
1, 341040, Note_off_c, 1, 29, 0
1, 341040, Note_on_c, 1, 31, 40
1, 341280, Note_off_c, 1, 31, 0
1, 341280, Note_on_c, 1, 31, 40
1, 341520, Note_off_c, 1, 31, 0
1, 341520, Note_on_c, 1, 39, 40
1, 341760, Note_off_c, 1, 39, 0
1, 341760, Note_on_c, 1, 39, 40
1, 342000, Note_off_c, 1, 39, 0
1, 342240, Note_on_c, 1, 31, 40
1, 342480, Note_off_c, 1, 31, 0
1, 342480, Note_on_c, 1, 39, 40
1, 344400, Note_off_c, 1, 39, 0
1, 344400, Note_on_c, 1, 39, 40
1, 344520, Note_off_c, 1, 39, 0
1, 344520, Note_on_c, 1, 36, 40
1, 344760, Note_off_c, 1, 36, 0
1, 344760, Note_on_c, 1, 36, 40
1, 346680, Note_off_c, 1, 36, 0
1, 346800, Note_on_c, 1, 32, 40
1, 347280, Note_off_c, 1, 32, 0
1, 347280, Note_on_c, 1, 39, 40
1, 347520, Note_off_c, 1, 39, 0
1, 347520, Note_on_c, 1, 39, 40
1, 347760, Note_off_c, 1, 39, 0
1, 347880, Note_on_c, 1, 31, 40
1, 348120, Note_off_c, 1, 31, 0
1, 348240, Note_on_c, 1, 31, 40
1, 348480, Note_off_c, 1, 31, 0
1, 348480, Note_on_c, 1, 31, 40
1, 348720, Note_off_c, 1, 31, 0
1, 348720, Note_on_c, 1, 39, 40
1, 348960, Note_off_c, 1, 39, 0
1, 348960, Note_on_c, 1, 39, 40
1, 349200, Note_off_c, 1, 39, 0
1, 349200, Note_on_c, 1, 39, 40
1, 349440, Note_off_c, 1, 39, 0
1, 349440, Note_on_c, 1, 31, 40
1, 349680, Note_off_c, 1, 31, 0
1, 349680, Note_on_c, 1, 39, 40
1, 349920, Note_off_c, 1, 39, 0
1, 349920, Note_on_c, 1, 31, 40
1, 350160, Note_off_c, 1, 31, 0
1, 350160, Note_on_c, 1, 39, 40
1, 350400, Note_off_c, 1, 39, 0
1, 350400, Note_on_c, 1, 31, 40
1, 350640, Note_off_c, 1, 31, 0
1, 350640, Note_on_c, 1, 39, 40
1, 350880, Note_off_c, 1, 39, 0
1, 350880, Note_on_c, 1, 39, 40
1, 351120, Note_off_c, 1, 39, 0
1, 351120, Note_on_c, 1, 36, 40
1, 351840, Note_off_c, 1, 36, 0
1, 351960, Note_on_c, 1, 31, 40
1, 352200, Note_off_c, 1, 31, 0
1, 352200, Note_on_c, 1, 36, 40
1, 354120, Note_off_c, 1, 36, 0
1, 354120, Note_on_c, 1, 39, 40
1, 354360, Note_off_c, 1, 39, 0
1, 354360, Note_on_c, 1, 36, 40
1, 354600, Note_off_c, 1, 36, 0
1, 354600, Note_on_c, 1, 45, 40
1, 356520, Note_off_c, 1, 45, 0
1, 356640, Note_on_c, 1, 31, 40
1, 356880, Note_off_c, 1, 31, 0
1, 356880, Note_on_c, 1, 31, 40
1, 357120, Note_off_c, 1, 31, 0
1, 357120, Note_on_c, 1, 45, 40
1, 357360, Note_off_c, 1, 45, 0
1, 357360, Note_on_c, 1, 45, 40
1, 357600, Note_off_c, 1, 45, 0
1, 357600, Note_on_c, 1, 45, 40
1, 357840, Note_off_c, 1, 45, 0
1, 357840, Note_on_c, 1, 45, 40
1, 358080, Note_off_c, 1, 45, 0
1, 358080, Note_on_c, 1, 45, 40
1, 358320, Note_off_c, 1, 45, 0
1, 358320, Note_on_c, 1, 45, 40
1, 358560, Note_off_c, 1, 45, 0
1, 358560, Note_on_c, 1, 45, 40
1, 358800, Note_off_c, 1, 45, 0
1, 358800, Note_on_c, 1, 31, 40
1, 359040, Note_off_c, 1, 31, 0
1, 359040, Note_on_c, 1, 31, 40
1, 359280, Note_off_c, 1, 31, 0
1, 359280, Note_on_c, 1, 39, 40
1, 359520, Note_off_c, 1, 39, 0
1, 359760, Note_on_c, 1, 31, 40
1, 360000, Note_off_c, 1, 31, 0
1, 360000, Note_on_c, 1, 31, 40
1, 360240, Note_off_c, 1, 31, 0
1, 360240, Note_on_c, 1, 31, 40
1, 360480, Note_off_c, 1, 31, 0
1, 360480, Note_on_c, 1, 39, 40
1, 360720, Note_off_c, 1, 39, 0
1, 360840, Note_on_c, 1, 31, 40
1, 361080, Note_off_c, 1, 31, 0
1, 361080, Note_on_c, 1, 31, 40
1, 361320, Note_off_c, 1, 31, 0
1, 361320, Note_on_c, 1, 31, 40
1, 361560, Note_off_c, 1, 31, 0
1, 361560, Note_on_c, 1, 31, 40
1, 361800, Note_off_c, 1, 31, 0
1, 361800, Note_on_c, 1, 31, 40
1, 362040, Note_off_c, 1, 31, 0
1, 362040, Note_on_c, 1, 31, 40
1, 362280, Note_off_c, 1, 31, 0
1, 362280, Note_on_c, 1, 31, 40
1, 362520, Note_off_c, 1, 31, 0
1, 362520, Note_on_c, 1, 31, 40
1, 362760, Note_off_c, 1, 31, 0
1, 362760, Note_on_c, 1, 31, 40
1, 363000, Note_off_c, 1, 31, 0
1, 363000, Note_on_c, 1, 31, 40
1, 363240, Note_off_c, 1, 31, 0
1, 363240, Note_on_c, 1, 39, 40
1, 363480, Note_off_c, 1, 39, 0
1, 363720, Note_on_c, 1, 31, 40
1, 363960, Note_off_c, 1, 31, 0
1, 363960, Note_on_c, 1, 31, 40
1, 364200, Note_off_c, 1, 31, 0
1, 364200, Note_on_c, 1, 31, 40
1, 364440, Note_off_c, 1, 31, 0
1, 364440, Note_on_c, 1, 31, 40
1, 364680, Note_off_c, 1, 31, 0
1, 364680, Note_on_c, 1, 31, 40
1, 364920, Note_off_c, 1, 31, 0
1, 364920, Note_on_c, 1, 39, 40
1, 365160, Note_off_c, 1, 39, 0
1, 365400, Note_on_c, 1, 39, 40
1, 365640, Note_off_c, 1, 39, 0
1, 365760, Note_on_c, 1, 36, 40
1, 366000, Note_off_c, 1, 36, 0
1, 366120, Note_on_c, 1, 39, 40
1, 366360, Note_off_c, 1, 39, 0
1, 366480, Note_on_c, 1, 31, 40
1, 366720, Note_off_c, 1, 31, 0
1, 366720, Note_on_c, 1, 31, 40
1, 366960, Note_off_c, 1, 31, 0
1, 366960, Note_on_c, 1, 39, 40
1, 367200, Note_off_c, 1, 39, 0
1, 367440, Note_on_c, 1, 31, 40
1, 367680, Note_off_c, 1, 31, 0
1, 367680, Note_on_c, 1, 31, 40
1, 367920, Note_off_c, 1, 31, 0
1, 367920, Note_on_c, 1, 39, 40
1, 368160, Note_off_c, 1, 39, 0
1, 368280, Note_on_c, 1, 31, 40
1, 368520, Note_off_c, 1, 31, 0
1, 368520, Note_on_c, 1, 39, 40
1, 368760, Note_off_c, 1, 39, 0
1, 368760, Note_on_c, 1, 31, 40
1, 369000, Note_off_c, 1, 31, 0
1, 369000, Note_on_c, 1, 31, 40
1, 369240, Note_off_c, 1, 31, 0
1, 369240, Note_on_c, 1, 31, 40
1, 369480, Note_off_c, 1, 31, 0
1, 369480, Note_on_c, 1, 31, 40
1, 369720, Note_off_c, 1, 31, 0
1, 369720, Note_on_c, 1, 31, 40
1, 369960, Note_off_c, 1, 31, 0
1, 369960, Note_on_c, 1, 31, 40
1, 370200, Note_off_c, 1, 31, 0
1, 370200, Note_on_c, 1, 31, 40
1, 370440, Note_off_c, 1, 31, 0
1, 370440, Note_on_c, 1, 31, 40
1, 370560, Note_off_c, 1, 31, 0
1, 370560, Note_on_c, 1, 39, 40
1, 370800, Note_off_c, 1, 39, 0
1, 370800, Note_on_c, 1, 31, 40
1, 371040, Note_off_c, 1, 31, 0
1, 371040, Note_on_c, 1, 31, 40
1, 371280, Note_off_c, 1, 31, 0
1, 371280, Note_on_c, 1, 31, 40
1, 371400, Note_off_c, 1, 31, 0
1, 371400, Note_on_c, 1, 39, 40
1, 371640, Note_off_c, 1, 39, 0
1, 371760, Note_on_c, 1, 31, 40
1, 372000, Note_off_c, 1, 31, 0
1, 372000, Note_on_c, 1, 31, 40
1, 372240, Note_off_c, 1, 31, 0
1, 372240, Note_on_c, 1, 31, 40
1, 372360, Note_off_c, 1, 31, 0
1, 372360, Note_on_c, 1, 39, 40
1, 372600, Note_off_c, 1, 39, 0
1, 372720, Note_on_c, 1, 31, 40
1, 372960, Note_off_c, 1, 31, 0
1, 372960, Note_on_c, 1, 31, 40
1, 373200, Note_off_c, 1, 31, 0
1, 373200, Note_on_c, 1, 31, 40
1, 373320, Note_off_c, 1, 31, 0
1, 373320, Note_on_c, 1, 39, 40
1, 373560, Note_off_c, 1, 39, 0
1, 373680, Note_on_c, 1, 31, 40
1, 373920, Note_off_c, 1, 31, 0
1, 373920, Note_on_c, 1, 31, 40
1, 374160, Note_off_c, 1, 31, 0
1, 374160, Note_on_c, 1, 31, 40
1, 374280, Note_off_c, 1, 31, 0
1, 374280, Note_on_c, 1, 39, 40
1, 374520, Note_off_c, 1, 39, 0
1, 375120, Note_on_c, 1, 31, 40
1, 375360, Note_off_c, 1, 31, 0
1, 375360, Note_on_c, 1, 39, 40
1, 375600, Note_off_c, 1, 39, 0
1, 376080, Note_on_c, 1, 31, 40
1, 376320, Note_off_c, 1, 31, 0
1, 376320, Note_on_c, 1, 36, 40
1, 378240, Note_off_c, 1, 36, 0
1, 378360, Note_on_c, 1, 31, 40
1, 378480, Note_off_c, 1, 31, 0
1, 381000, Note_on_c, 1, 31, 40
1, 381240, Note_off_c, 1, 31, 0
1, 381240, Note_on_c, 1, 39, 40
1, 381480, Note_off_c, 1, 39, 0
1, 381480, Note_on_c, 1, 44, 40
1, 382080, Note_off_c, 1, 44, 0
1, 382080, Note_on_c, 1, 39, 40
1, 382320, Note_off_c, 1, 39, 0
1, 382800, Note_on_c, 1, 29, 40
1, 383280, Note_off_c, 1, 29, 0
1, 383280, Note_on_c, 1, 31, 40
1, 383520, Note_off_c, 1, 31, 0
1, 383520, Note_on_c, 1, 31, 40
1, 383760, Note_off_c, 1, 31, 0
1, 383760, Note_on_c, 1, 34, 40
1, 384000, Note_off_c, 1, 34, 0
1, 384120, Note_on_c, 1, 31, 40
1, 384240, Note_off_c, 1, 31, 0
1, 386760, Note_on_c, 1, 31, 40
1, 387000, Note_off_c, 1, 31, 0
1, 387000, Note_on_c, 1, 39, 40
1, 387240, Note_off_c, 1, 39, 0
1, 387720, Note_on_c, 1, 31, 40
1, 387960, Note_off_c, 1, 31, 0
1, 387960, Note_on_c, 1, 39, 40
1, 388200, Note_off_c, 1, 39, 0
1, 388680, Note_on_c, 1, 31, 40
1, 388920, Note_off_c, 1, 31, 0
1, 388920, Note_on_c, 1, 39, 40
1, 389160, Note_off_c, 1, 39, 0
1, 389640, Note_on_c, 1, 31, 40
1, 389880, Note_off_c, 1, 31, 0
1, 389880, Note_on_c, 1, 39, 40
1, 390120, Note_off_c, 1, 39, 0
1, 390600, Note_on_c, 1, 29, 40
1, 391080, Note_off_c, 1, 29, 0
1, 391080, Note_on_c, 1, 31, 40
1, 391320, Note_off_c, 1, 31, 0
1, 391320, Note_on_c, 1, 31, 40
1, 391560, Note_off_c, 1, 31, 0
1, 391560, Note_on_c, 1, 31, 40
1, 391680, Note_off_c, 1, 31, 0
1, 391680, Note_on_c, 1, 39, 40
1, 391920, Note_off_c, 1, 39, 0
1, 392400, Note_on_c, 1, 31, 40
1, 392640, Note_off_c, 1, 31, 0
1, 392640, Note_on_c, 1, 39, 40
1, 392880, Note_off_c, 1, 39, 0
1, 393360, Note_on_c, 1, 31, 40
1, 393600, Note_off_c, 1, 31, 0
1, 393600, Note_on_c, 1, 39, 40
1, 393840, Note_off_c, 1, 39, 0
1, 394320, Note_on_c, 1, 31, 40
1, 394560, Note_off_c, 1, 31, 0
1, 394560, Note_on_c, 1, 39, 40
1, 394800, Note_off_c, 1, 39, 0
1, 395280, Note_on_c, 1, 31, 40
1, 395520, Note_off_c, 1, 31, 0
1, 395520, Note_on_c, 1, 39, 40
1, 395760, Note_off_c, 1, 39, 0
1, 396240, Note_on_c, 1, 31, 40
1, 396480, Note_off_c, 1, 31, 0
1, 396480, Note_on_c, 1, 39, 40
1, 396720, Note_off_c, 1, 39, 0
1, 397200, Note_on_c, 1, 31, 40
1, 397440, Note_off_c, 1, 31, 0
1, 397440, Note_on_c, 1, 39, 40
1, 397680, Note_off_c, 1, 39, 0
1, 398160, Note_on_c, 1, 29, 40
1, 398640, Note_off_c, 1, 29, 0
1, 398640, Note_on_c, 1, 31, 40
1, 398880, Note_off_c, 1, 31, 0
1, 398880, Note_on_c, 1, 31, 40
1, 399120, Note_off_c, 1, 31, 0
1, 399120, Note_on_c, 1, 39, 40
1, 399360, Note_off_c, 1, 39, 0
1, 399360, Note_on_c, 1, 39, 40
1, 399600, Note_off_c, 1, 39, 0
1, 399840, Note_on_c, 1, 31, 40
1, 400080, Note_off_c, 1, 31, 0
1, 400080, Note_on_c, 1, 39, 40
1, 402000, Note_off_c, 1, 39, 0
1, 402000, Note_on_c, 1, 39, 40
1, 402120, Note_off_c, 1, 39, 0
1, 402120, Note_on_c, 1, 36, 40
1, 402360, Note_off_c, 1, 36, 0
1, 402360, Note_on_c, 1, 36, 40
1, 404280, Note_off_c, 1, 36, 0
1, 404400, Note_on_c, 1, 32, 40
1, 404880, Note_off_c, 1, 32, 0
1, 404880, Note_on_c, 1, 39, 40
1, 405120, Note_off_c, 1, 39, 0
1, 405120, Note_on_c, 1, 39, 40
1, 405360, Note_off_c, 1, 39, 0
1, 405480, Note_on_c, 1, 31, 40
1, 405720, Note_off_c, 1, 31, 0
1, 405840, Note_on_c, 1, 31, 40
1, 406080, Note_off_c, 1, 31, 0
1, 406080, Note_on_c, 1, 31, 40
1, 406320, Note_off_c, 1, 31, 0
1, 406320, Note_on_c, 1, 39, 40
1, 406560, Note_off_c, 1, 39, 0
1, 406560, Note_on_c, 1, 39, 40
1, 406800, Note_off_c, 1, 39, 0
1, 406800, Note_on_c, 1, 39, 40
1, 407040, Note_off_c, 1, 39, 0
1, 407040, Note_on_c, 1, 31, 40
1, 407280, Note_off_c, 1, 31, 0
1, 407280, Note_on_c, 1, 39, 40
1, 407520, Note_off_c, 1, 39, 0
1, 407520, Note_on_c, 1, 31, 40
1, 407760, Note_off_c, 1, 31, 0
1, 407760, Note_on_c, 1, 39, 40
1, 408000, Note_off_c, 1, 39, 0
1, 408000, Note_on_c, 1, 31, 40
1, 408240, Note_off_c, 1, 31, 0
1, 408240, Note_on_c, 1, 39, 40
1, 408480, Note_off_c, 1, 39, 0
1, 408480, Note_on_c, 1, 39, 40
1, 408720, Note_off_c, 1, 39, 0
1, 408720, Note_on_c, 1, 36, 40
1, 409440, Note_off_c, 1, 36, 0
1, 409560, Note_on_c, 1, 31, 40
1, 409800, Note_off_c, 1, 31, 0
1, 409800, Note_on_c, 1, 36, 40
1, 411720, Note_off_c, 1, 36, 0
1, 411720, Note_on_c, 1, 39, 40
1, 411960, Note_off_c, 1, 39, 0
1, 411960, Note_on_c, 1, 36, 40
1, 412200, Note_off_c, 1, 36, 0
1, 412200, Note_on_c, 1, 45, 40
1, 414120, Note_off_c, 1, 45, 0
1, 414240, Note_on_c, 1, 31, 40
1, 414480, Note_off_c, 1, 31, 0
1, 414480, Note_on_c, 1, 31, 40
1, 414720, Note_off_c, 1, 31, 0
1, 414720, Note_on_c, 1, 45, 40
1, 414960, Note_off_c, 1, 45, 0
1, 414960, Note_on_c, 1, 45, 40
1, 415200, Note_off_c, 1, 45, 0
1, 415200, Note_on_c, 1, 45, 40
1, 415440, Note_off_c, 1, 45, 0
1, 415440, Note_on_c, 1, 45, 40
1, 415680, Note_off_c, 1, 45, 0
1, 415680, Note_on_c, 1, 45, 40
1, 415920, Note_off_c, 1, 45, 0
1, 415920, Note_on_c, 1, 45, 40
1, 416160, Note_off_c, 1, 45, 0
1, 416160, Note_on_c, 1, 45, 40
1, 416400, Note_off_c, 1, 45, 0
1, 416400, Note_on_c, 1, 31, 40
1, 416640, Note_off_c, 1, 31, 0
1, 416640, Note_on_c, 1, 31, 40
1, 416880, Note_off_c, 1, 31, 0
1, 416880, Note_on_c, 1, 39, 40
1, 417120, Note_off_c, 1, 39, 0
1, 417360, Note_on_c, 1, 31, 40
1, 417600, Note_off_c, 1, 31, 0
1, 417600, Note_on_c, 1, 31, 40
1, 417840, Note_off_c, 1, 31, 0
1, 417840, Note_on_c, 1, 31, 40
1, 418080, Note_off_c, 1, 31, 0
1, 418080, Note_on_c, 1, 39, 40
1, 418320, Note_off_c, 1, 39, 0
1, 418440, Note_on_c, 1, 31, 40
1, 418680, Note_off_c, 1, 31, 0
1, 418680, Note_on_c, 1, 31, 40
1, 418920, Note_off_c, 1, 31, 0
1, 418920, Note_on_c, 1, 31, 40
1, 419160, Note_off_c, 1, 31, 0
1, 419160, Note_on_c, 1, 31, 40
1, 419400, Note_off_c, 1, 31, 0
1, 419400, Note_on_c, 1, 31, 40
1, 419640, Note_off_c, 1, 31, 0
1, 419640, Note_on_c, 1, 31, 40
1, 419880, Note_off_c, 1, 31, 0
1, 419880, Note_on_c, 1, 31, 40
1, 420120, Note_off_c, 1, 31, 0
1, 420120, Note_on_c, 1, 31, 40
1, 420360, Note_off_c, 1, 31, 0
1, 420360, Note_on_c, 1, 31, 40
1, 420600, Note_off_c, 1, 31, 0
1, 420600, Note_on_c, 1, 31, 40
1, 420840, Note_off_c, 1, 31, 0
1, 420840, Note_on_c, 1, 39, 40
1, 421080, Note_off_c, 1, 39, 0
1, 421320, Note_on_c, 1, 31, 40
1, 421560, Note_off_c, 1, 31, 0
1, 421560, Note_on_c, 1, 31, 40
1, 421800, Note_off_c, 1, 31, 0
1, 421800, Note_on_c, 1, 31, 40
1, 422040, Note_off_c, 1, 31, 0
1, 422040, Note_on_c, 1, 31, 40
1, 422280, Note_off_c, 1, 31, 0
1, 422280, Note_on_c, 1, 31, 40
1, 422520, Note_off_c, 1, 31, 0
1, 422520, Note_on_c, 1, 39, 40
1, 422760, Note_off_c, 1, 39, 0
1, 423000, Note_on_c, 1, 39, 40
1, 423240, Note_off_c, 1, 39, 0
1, 423360, Note_on_c, 1, 36, 40
1, 423600, Note_off_c, 1, 36, 0
1, 423720, Note_on_c, 1, 39, 40
1, 423960, Note_off_c, 1, 39, 0
1, 424080, Note_on_c, 1, 31, 40
1, 424320, Note_off_c, 1, 31, 0
1, 424320, Note_on_c, 1, 31, 40
1, 424560, Note_off_c, 1, 31, 0
1, 424560, Note_on_c, 1, 39, 40
1, 424800, Note_off_c, 1, 39, 0
1, 425040, Note_on_c, 1, 31, 40
1, 425280, Note_off_c, 1, 31, 0
1, 425280, Note_on_c, 1, 31, 40
1, 425520, Note_off_c, 1, 31, 0
1, 425520, Note_on_c, 1, 39, 40
1, 425760, Note_off_c, 1, 39, 0
1, 425880, Note_on_c, 1, 31, 40
1, 426120, Note_off_c, 1, 31, 0
1, 426120, Note_on_c, 1, 39, 40
1, 426360, Note_off_c, 1, 39, 0
1, 426360, Note_on_c, 1, 31, 40
1, 426600, Note_off_c, 1, 31, 0
1, 426600, Note_on_c, 1, 31, 40
1, 426840, Note_off_c, 1, 31, 0
1, 426840, Note_on_c, 1, 31, 40
1, 427080, Note_off_c, 1, 31, 0
1, 427080, Note_on_c, 1, 31, 40
1, 427320, Note_off_c, 1, 31, 0
1, 427320, Note_on_c, 1, 31, 40
1, 427560, Note_off_c, 1, 31, 0
1, 427560, Note_on_c, 1, 31, 40
1, 427800, Note_off_c, 1, 31, 0
1, 427800, Note_on_c, 1, 31, 40
1, 428040, Note_off_c, 1, 31, 0
1, 428040, Note_on_c, 1, 31, 40
1, 428160, Note_off_c, 1, 31, 0
1, 428160, Note_on_c, 1, 39, 40
1, 428400, Note_off_c, 1, 39, 0
1, 428400, Note_on_c, 1, 31, 40
1, 428640, Note_off_c, 1, 31, 0
1, 428640, Note_on_c, 1, 31, 40
1, 428880, Note_off_c, 1, 31, 0
1, 428880, Note_on_c, 1, 31, 40
1, 429000, Note_off_c, 1, 31, 0
1, 429000, Note_on_c, 1, 39, 40
1, 429240, Note_off_c, 1, 39, 0
1, 429360, Note_on_c, 1, 31, 40
1, 429600, Note_off_c, 1, 31, 0
1, 429600, Note_on_c, 1, 31, 40
1, 429840, Note_off_c, 1, 31, 0
1, 429840, Note_on_c, 1, 31, 40
1, 429960, Note_off_c, 1, 31, 0
1, 429960, Note_on_c, 1, 39, 40
1, 430200, Note_off_c, 1, 39, 0
1, 430320, Note_on_c, 1, 31, 40
1, 430560, Note_off_c, 1, 31, 0
1, 430560, Note_on_c, 1, 31, 40
1, 430800, Note_off_c, 1, 31, 0
1, 430800, Note_on_c, 1, 31, 40
1, 430920, Note_off_c, 1, 31, 0
1, 430920, Note_on_c, 1, 39, 40
1, 431160, Note_off_c, 1, 39, 0
1, 431280, Note_on_c, 1, 31, 40
1, 431520, Note_off_c, 1, 31, 0
1, 431520, Note_on_c, 1, 31, 40
1, 431760, Note_off_c, 1, 31, 0
1, 431760, Note_on_c, 1, 31, 40
1, 431880, Note_off_c, 1, 31, 0
1, 431880, Note_on_c, 1, 39, 40
1, 432120, Note_off_c, 1, 39, 0
1, 432240, Note_on_c, 1, 31, 40
1, 432480, Note_off_c, 1, 31, 0
1, 432480, Note_on_c, 1, 31, 40
1, 432720, Note_off_c, 1, 31, 0
1, 432720, Note_on_c, 1, 31, 40
1, 432840, Note_off_c, 1, 31, 0
1, 432840, Note_on_c, 1, 39, 40
1, 433080, Note_off_c, 1, 39, 0
1, 433200, Note_on_c, 1, 31, 40
1, 433440, Note_off_c, 1, 31, 0
1, 433440, Note_on_c, 1, 39, 40
1, 433680, Note_off_c, 1, 39, 0
1, 434400, Note_on_c, 1, 31, 40
1, 434640, Note_off_c, 1, 31, 0
1, 434640, Note_on_c, 1, 31, 40
1, 434880, Note_off_c, 1, 31, 0
1, 434880, Note_on_c, 1, 31, 40
1, 435120, Note_off_c, 1, 31, 0
1, 435120, Note_on_c, 1, 45, 40
1, 435360, Note_off_c, 1, 45, 0
1, 435360, Note_on_c, 1, 45, 40
1, 435600, Note_off_c, 1, 45, 0
1, 435600, Note_on_c, 1, 45, 40
1, 435840, Note_off_c, 1, 45, 0
1, 435840, Note_on_c, 1, 31, 40
1, 436080, Note_off_c, 1, 31, 0
1, 436080, Note_on_c, 1, 39, 40
1, 438000, Note_off_c, 1, 39, 0
1, 438600, Note_on_c, 1, 31, 40
1, 438840, Note_off_c, 1, 31, 0
1, 438840, Note_on_c, 1, 39, 40
1, 439080, Note_off_c, 1, 39, 0
1, 439080, Note_on_c, 1, 44, 40
1, 439680, Note_off_c, 1, 44, 0
1, 439680, Note_on_c, 1, 39, 40
1, 439920, Note_off_c, 1, 39, 0
1, 440400, Note_on_c, 1, 31, 40
1, 440640, Note_off_c, 1, 31, 0
1, 440640, Note_on_c, 1, 39, 40
1, 440880, Note_off_c, 1, 39, 0
1, 441360, Note_on_c, 1, 31, 40
1, 441600, Note_off_c, 1, 31, 0
1, 441600, Note_on_c, 1, 39, 40
1, 441840, Note_off_c, 1, 39, 0
1, 442320, Note_on_c, 1, 29, 40
1, 442800, Note_off_c, 1, 29, 0
1, 442800, Note_on_c, 1, 31, 40
1, 443040, Note_off_c, 1, 31, 0
1, 443040, Note_on_c, 1, 31, 40
1, 443280, Note_off_c, 1, 31, 0
1, 443280, Note_on_c, 1, 34, 40
1, 443520, Note_off_c, 1, 34, 0
1, 443640, Note_on_c, 1, 39, 40
1, 445560, Note_off_c, 1, 39, 0
1, 446160, Note_on_c, 1, 31, 40
1, 446400, Note_off_c, 1, 31, 0
1, 446400, Note_on_c, 1, 39, 40
1, 446640, Note_off_c, 1, 39, 0
1, 447120, Note_on_c, 1, 31, 40
1, 447360, Note_off_c, 1, 31, 0
1, 447360, Note_on_c, 1, 39, 40
1, 447600, Note_off_c, 1, 39, 0
1, 448080, Note_on_c, 1, 31, 40
1, 448320, Note_off_c, 1, 31, 0
1, 448320, Note_on_c, 1, 39, 40
1, 448560, Note_off_c, 1, 39, 0
1, 449040, Note_on_c, 1, 31, 40
1, 449280, Note_off_c, 1, 31, 0
1, 449280, Note_on_c, 1, 39, 40
1, 449520, Note_off_c, 1, 39, 0
1, 450000, Note_on_c, 1, 29, 40
1, 450480, Note_off_c, 1, 29, 0
1, 450480, Note_on_c, 1, 31, 40
1, 450720, Note_off_c, 1, 31, 0
1, 450720, Note_on_c, 1, 31, 40
1, 450960, Note_off_c, 1, 31, 0
1, 450960, Note_on_c, 1, 31, 40
1, 451080, Note_off_c, 1, 31, 0
1, 451080, Note_on_c, 1, 39, 40
1, 451320, Note_off_c, 1, 39, 0
1, 451920, Note_on_c, 1, 31, 40
1, 452160, Note_off_c, 1, 31, 0
1, 452160, Note_on_c, 1, 39, 40
1, 452400, Note_off_c, 1, 39, 0
1, 452880, Note_on_c, 1, 31, 40
1, 453120, Note_off_c, 1, 31, 0
1, 453120, Note_on_c, 1, 39, 40
1, 453360, Note_off_c, 1, 39, 0
1, 453840, Note_on_c, 1, 31, 40
1, 454080, Note_off_c, 1, 31, 0
1, 454080, Note_on_c, 1, 39, 40
1, 454320, Note_off_c, 1, 39, 0
1, 454800, Note_on_c, 1, 31, 40
1, 455040, Note_off_c, 1, 31, 0
1, 455040, Note_on_c, 1, 39, 40
1, 455280, Note_off_c, 1, 39, 0
1, 455760, Note_on_c, 1, 31, 40
1, 456000, Note_off_c, 1, 31, 0
1, 456000, Note_on_c, 1, 39, 40
1, 456240, Note_off_c, 1, 39, 0
1, 456720, Note_on_c, 1, 31, 40
1, 456960, Note_off_c, 1, 31, 0
1, 456960, Note_on_c, 1, 39, 40
1, 457200, Note_off_c, 1, 39, 0
1, 457680, Note_on_c, 1, 29, 40
1, 458160, Note_off_c, 1, 29, 0
1, 458160, Note_on_c, 1, 31, 40
1, 458400, Note_off_c, 1, 31, 0
1, 458400, Note_on_c, 1, 31, 40
1, 458640, Note_off_c, 1, 31, 0
1, 458640, Note_on_c, 1, 39, 40
1, 458880, Note_off_c, 1, 39, 0
1, 458880, Note_on_c, 1, 39, 40
1, 459120, Note_off_c, 1, 39, 0
1, 459240, Note_on_c, 1, 31, 40
1, 459480, Note_off_c, 1, 31, 0
1, 459480, Note_on_c, 1, 39, 40
1, 461400, Note_off_c, 1, 39, 0
1, 461400, Note_on_c, 1, 35, 40
1, 461880, Note_off_c, 1, 35, 0
1, 462000, Note_on_c, 1, 36, 40
1, 463920, Note_off_c, 1, 36, 0
1, 464280, Note_on_c, 1, 34, 40
1, 464520, Note_off_c, 1, 34, 0
1, 464640, Note_on_c, 1, 31, 40
1, 466560, Note_off_c, 1, 31, 0
1, 466680, Note_on_c, 1, 31, 40
1, 468600, Note_off_c, 1, 31, 0
1, 468600, Note_on_c, 1, 22, 40
1, 470280, Note_off_c, 1, 22, 0
1, 470280, Note_on_c, 1, 39, 40
1, 471960, Note_off_c, 1, 39, 0
1, 471960, Note_on_c, 1, 39, 40
1, 472200, Note_off_c, 1, 39, 0
1, 472200, Note_on_c, 1, 31, 40
1, 472440, Note_off_c, 1, 31, 0
1, 472440, Note_on_c, 1, 31, 40
1, 472680, Note_off_c, 1, 31, 0
1, 472680, Note_on_c, 1, 39, 40
1, 472920, Note_off_c, 1, 39, 0
1, 473160, Note_on_c, 1, 31, 40
1, 473400, Note_off_c, 1, 31, 0
1, 473400, Note_on_c, 1, 31, 40
1, 473640, Note_off_c, 1, 31, 0
1, 473640, Note_on_c, 1, 31, 40
1, 473880, Note_off_c, 1, 31, 0
1, 473880, Note_on_c, 1, 39, 40
1, 474120, Note_off_c, 1, 39, 0
1, 474360, Note_on_c, 1, 36, 40
1, 474600, Note_off_c, 1, 36, 0
1, 474600, Note_on_c, 1, 36, 40
1, 476520, Note_off_c, 1, 36, 0
1, 476520, Note_on_c, 1, 39, 40
1, 476760, Note_off_c, 1, 39, 0
1, 476880, Note_on_c, 1, 39, 40
1, 477120, Note_off_c, 1, 39, 0
1, 477240, Note_on_c, 1, 39, 40
1, 477480, Note_off_c, 1, 39, 0
1, 477600, Note_on_c, 1, 39, 40
1, 477840, Note_off_c, 1, 39, 0
1, 477960, Note_on_c, 1, 39, 40
1, 478200, Note_off_c, 1, 39, 0
1, 478320, Note_on_c, 1, 39, 40
1, 478560, Note_off_c, 1, 39, 0
1, 478680, Note_on_c, 1, 39, 40
1, 478920, Note_off_c, 1, 39, 0
1, 479040, Note_on_c, 1, 39, 40
1, 479280, Note_off_c, 1, 39, 0
1, 479400, Note_on_c, 1, 39, 40
1, 479640, Note_off_c, 1, 39, 0
1, 479760, Note_on_c, 1, 39, 40
1, 480000, Note_off_c, 1, 39, 0
1, 480120, Note_on_c, 1, 39, 40
1, 480360, Note_off_c, 1, 39, 0
1, 480480, Note_on_c, 1, 39, 40
1, 480720, Note_off_c, 1, 39, 0
1, 480840, Note_on_c, 1, 39, 40
1, 481080, Note_off_c, 1, 39, 0
1, 481200, Note_on_c, 1, 39, 40
1, 481440, Note_off_c, 1, 39, 0
1, 481560, Note_on_c, 1, 39, 40
1, 481800, Note_off_c, 1, 39, 0
1, 483600, Note_on_c, 1, 31, 40
1, 483840, Note_off_c, 1, 31, 0
1, 484080, Note_on_c, 1, 31, 40
1, 484320, Note_off_c, 1, 31, 0
1, 484320, Note_on_c, 1, 31, 40
1, 484560, Note_off_c, 1, 31, 0
1, 484560, Note_on_c, 1, 39, 40
1, 484800, Note_off_c, 1, 39, 0
1, 485040, Note_on_c, 1, 31, 40
1, 485280, Note_off_c, 1, 31, 0
1, 485280, Note_on_c, 1, 45, 40
1, 485520, Note_off_c, 1, 45, 0
1, 485520, Note_on_c, 1, 45, 40
1, 485760, Note_off_c, 1, 45, 0
1, 485760, Note_on_c, 1, 31, 40
1, 486000, Note_off_c, 1, 31, 0
1, 486000, Note_on_c, 1, 31, 40
1, 486240, Note_off_c, 1, 31, 0
1, 486240, Note_on_c, 1, 45, 40
1, 486480, Note_off_c, 1, 45, 0
1, 486480, Note_on_c, 1, 45, 40
1, 486720, Note_off_c, 1, 45, 0
1, 486720, Note_on_c, 1, 45, 40
1, 486960, Note_off_c, 1, 45, 0
1, 486960, Note_on_c, 1, 45, 40
1, 487200, Note_off_c, 1, 45, 0
1, 487200, Note_on_c, 1, 45, 40
1, 487440, Note_off_c, 1, 45, 0
1, 487440, Note_on_c, 1, 45, 40
1, 487680, Note_off_c, 1, 45, 0
1, 487680, Note_on_c, 1, 45, 40
1, 487920, Note_off_c, 1, 45, 0
1, 487920, Note_on_c, 1, 31, 40
1, 488160, Note_off_c, 1, 31, 0
1, 488160, Note_on_c, 1, 31, 40
1, 488400, Note_off_c, 1, 31, 0
1, 488400, Note_on_c, 1, 39, 40
1, 488640, Note_off_c, 1, 39, 0
1, 488880, Note_on_c, 1, 31, 40
1, 489120, Note_off_c, 1, 31, 0
1, 489120, Note_on_c, 1, 31, 40
1, 489360, Note_off_c, 1, 31, 0
1, 489360, Note_on_c, 1, 31, 40
1, 489600, Note_off_c, 1, 31, 0
1, 489600, Note_on_c, 1, 39, 40
1, 489840, Note_off_c, 1, 39, 0
1, 489960, Note_on_c, 1, 31, 40
1, 490200, Note_off_c, 1, 31, 0
1, 490200, Note_on_c, 1, 31, 40
1, 490440, Note_off_c, 1, 31, 0
1, 490440, Note_on_c, 1, 31, 40
1, 490680, Note_off_c, 1, 31, 0
1, 490680, Note_on_c, 1, 31, 40
1, 490920, Note_off_c, 1, 31, 0
1, 490920, Note_on_c, 1, 31, 40
1, 491160, Note_off_c, 1, 31, 0
1, 491160, Note_on_c, 1, 31, 40
1, 491400, Note_off_c, 1, 31, 0
1, 491400, Note_on_c, 1, 31, 40
1, 491640, Note_off_c, 1, 31, 0
1, 491640, Note_on_c, 1, 31, 40
1, 491880, Note_off_c, 1, 31, 0
1, 491880, Note_on_c, 1, 31, 40
1, 492120, Note_off_c, 1, 31, 0
1, 492120, Note_on_c, 1, 31, 40
1, 492360, Note_off_c, 1, 31, 0
1, 492360, Note_on_c, 1, 39, 40
1, 492600, Note_off_c, 1, 39, 0
1, 492840, Note_on_c, 1, 31, 40
1, 493080, Note_off_c, 1, 31, 0
1, 493080, Note_on_c, 1, 31, 40
1, 493320, Note_off_c, 1, 31, 0
1, 493320, Note_on_c, 1, 31, 40
1, 493560, Note_off_c, 1, 31, 0
1, 493560, Note_on_c, 1, 31, 40
1, 493800, Note_off_c, 1, 31, 0
1, 493800, Note_on_c, 1, 31, 40
1, 494040, Note_off_c, 1, 31, 0
1, 494040, Note_on_c, 1, 39, 40
1, 494280, Note_off_c, 1, 39, 0
1, 494520, Note_on_c, 1, 39, 40
1, 494760, Note_off_c, 1, 39, 0
1, 494880, Note_on_c, 1, 36, 40
1, 495120, Note_off_c, 1, 36, 0
1, 495240, Note_on_c, 1, 39, 40
1, 495480, Note_off_c, 1, 39, 0
1, 495600, Note_on_c, 1, 31, 40
1, 495840, Note_off_c, 1, 31, 0
1, 495840, Note_on_c, 1, 31, 40
1, 496080, Note_off_c, 1, 31, 0
1, 496080, Note_on_c, 1, 39, 40
1, 496320, Note_off_c, 1, 39, 0
1, 496560, Note_on_c, 1, 31, 40
1, 496800, Note_off_c, 1, 31, 0
1, 496800, Note_on_c, 1, 31, 40
1, 497040, Note_off_c, 1, 31, 0
1, 497040, Note_on_c, 1, 39, 40
1, 497280, Note_off_c, 1, 39, 0
1, 497400, Note_on_c, 1, 31, 40
1, 497640, Note_off_c, 1, 31, 0
1, 497640, Note_on_c, 1, 39, 40
1, 497880, Note_off_c, 1, 39, 0
1, 497880, Note_on_c, 1, 31, 40
1, 498120, Note_off_c, 1, 31, 0
1, 498120, Note_on_c, 1, 31, 40
1, 498360, Note_off_c, 1, 31, 0
1, 498360, Note_on_c, 1, 31, 40
1, 498600, Note_off_c, 1, 31, 0
1, 498600, Note_on_c, 1, 31, 40
1, 498840, Note_off_c, 1, 31, 0
1, 498840, Note_on_c, 1, 31, 40
1, 499080, Note_off_c, 1, 31, 0
1, 499080, Note_on_c, 1, 31, 40
1, 499320, Note_off_c, 1, 31, 0
1, 499320, Note_on_c, 1, 31, 40
1, 499560, Note_off_c, 1, 31, 0
1, 499560, Note_on_c, 1, 31, 40
1, 499680, Note_off_c, 1, 31, 0
1, 499680, Note_on_c, 1, 39, 40
1, 499920, Note_off_c, 1, 39, 0
1, 499920, Note_on_c, 1, 31, 40
1, 500160, Note_off_c, 1, 31, 0
1, 500160, Note_on_c, 1, 31, 40
1, 500400, Note_off_c, 1, 31, 0
1, 500400, Note_on_c, 1, 31, 40
1, 500520, Note_off_c, 1, 31, 0
1, 500520, Note_on_c, 1, 39, 40
1, 500760, Note_off_c, 1, 39, 0
1, 500880, Note_on_c, 1, 31, 40
1, 501120, Note_off_c, 1, 31, 0
1, 501120, Note_on_c, 1, 31, 40
1, 501360, Note_off_c, 1, 31, 0
1, 501360, Note_on_c, 1, 31, 40
1, 501480, Note_off_c, 1, 31, 0
1, 501480, Note_on_c, 1, 39, 40
1, 501720, Note_off_c, 1, 39, 0
1, 501840, Note_on_c, 1, 31, 40
1, 502080, Note_off_c, 1, 31, 0
1, 502080, Note_on_c, 1, 31, 40
1, 502320, Note_off_c, 1, 31, 0
1, 502320, Note_on_c, 1, 31, 40
1, 502440, Note_off_c, 1, 31, 0
1, 502440, Note_on_c, 1, 39, 40
1, 502680, Note_off_c, 1, 39, 0
1, 502800, Note_on_c, 1, 31, 40
1, 503040, Note_off_c, 1, 31, 0
1, 503040, Note_on_c, 1, 31, 40
1, 503280, Note_off_c, 1, 31, 0
1, 503280, Note_on_c, 1, 31, 40
1, 503400, Note_off_c, 1, 31, 0
1, 503400, Note_on_c, 1, 39, 40
1, 503640, Note_off_c, 1, 39, 0
1, 504240, Note_on_c, 1, 31, 40
1, 504480, Note_off_c, 1, 31, 0
1, 504480, Note_on_c, 1, 39, 40
1, 504720, Note_off_c, 1, 39, 0
1, 505200, Note_on_c, 1, 31, 40
1, 505440, Note_off_c, 1, 31, 0
1, 505440, Note_on_c, 1, 36, 40
1, 507360, Note_off_c, 1, 36, 0
1, 507480, Note_on_c, 1, 31, 40
1, 507600, Note_off_c, 1, 31, 0
1, 510120, Note_on_c, 1, 31, 40
1, 510360, Note_off_c, 1, 31, 0
1, 510360, Note_on_c, 1, 39, 40
1, 510600, Note_off_c, 1, 39, 0
1, 510600, Note_on_c, 1, 44, 40
1, 511200, Note_off_c, 1, 44, 0
1, 511200, Note_on_c, 1, 39, 40
1, 511440, Note_off_c, 1, 39, 0
1, 511920, Note_on_c, 1, 29, 40
1, 512400, Note_off_c, 1, 29, 0
1, 512400, Note_on_c, 1, 31, 40
1, 512640, Note_off_c, 1, 31, 0
1, 512640, Note_on_c, 1, 31, 40
1, 512880, Note_off_c, 1, 31, 0
1, 512880, Note_on_c, 1, 34, 40
1, 513120, Note_off_c, 1, 34, 0
1, 513240, Note_on_c, 1, 31, 40
1, 513360, Note_off_c, 1, 31, 0
1, 515880, Note_on_c, 1, 31, 40
1, 516120, Note_off_c, 1, 31, 0
1, 516120, Note_on_c, 1, 39, 40
1, 516360, Note_off_c, 1, 39, 0
1, 516840, Note_on_c, 1, 31, 40
1, 517080, Note_off_c, 1, 31, 0
1, 517080, Note_on_c, 1, 39, 40
1, 517320, Note_off_c, 1, 39, 0
1, 517800, Note_on_c, 1, 31, 40
1, 518040, Note_off_c, 1, 31, 0
1, 518040, Note_on_c, 1, 39, 40
1, 518280, Note_off_c, 1, 39, 0
1, 518760, Note_on_c, 1, 31, 40
1, 519000, Note_off_c, 1, 31, 0
1, 519000, Note_on_c, 1, 39, 40
1, 519240, Note_off_c, 1, 39, 0
1, 519720, Note_on_c, 1, 29, 40
1, 520200, Note_off_c, 1, 29, 0
1, 520200, Note_on_c, 1, 31, 40
1, 520440, Note_off_c, 1, 31, 0
1, 520440, Note_on_c, 1, 31, 40
1, 520680, Note_off_c, 1, 31, 0
1, 520680, Note_on_c, 1, 31, 40
1, 520800, Note_off_c, 1, 31, 0
1, 520800, Note_on_c, 1, 39, 40
1, 521040, Note_off_c, 1, 39, 0
1, 521520, Note_on_c, 1, 31, 40
1, 521760, Note_off_c, 1, 31, 0
1, 521760, Note_on_c, 1, 39, 40
1, 522000, Note_off_c, 1, 39, 0
1, 522480, Note_on_c, 1, 31, 40
1, 522720, Note_off_c, 1, 31, 0
1, 522720, Note_on_c, 1, 39, 40
1, 522960, Note_off_c, 1, 39, 0
1, 523440, Note_on_c, 1, 31, 40
1, 523680, Note_off_c, 1, 31, 0
1, 523680, Note_on_c, 1, 39, 40
1, 523920, Note_off_c, 1, 39, 0
1, 524400, Note_on_c, 1, 31, 40
1, 524640, Note_off_c, 1, 31, 0
1, 524640, Note_on_c, 1, 39, 40
1, 524880, Note_off_c, 1, 39, 0
1, 525360, Note_on_c, 1, 31, 40
1, 525600, Note_off_c, 1, 31, 0
1, 525600, Note_on_c, 1, 39, 40
1, 525840, Note_off_c, 1, 39, 0
1, 526320, Note_on_c, 1, 31, 40
1, 526560, Note_off_c, 1, 31, 0
1, 526560, Note_on_c, 1, 39, 40
1, 526800, Note_off_c, 1, 39, 0
1, 527280, Note_on_c, 1, 29, 40
1, 527760, Note_off_c, 1, 29, 0
1, 527760, Note_on_c, 1, 31, 40
1, 528000, Note_off_c, 1, 31, 0
1, 528000, Note_on_c, 1, 31, 40
1, 528240, Note_off_c, 1, 31, 0
1, 528240, Note_on_c, 1, 39, 40
1, 528480, Note_off_c, 1, 39, 0
1, 528480, Note_on_c, 1, 39, 40
1, 528720, Note_off_c, 1, 39, 0
1, 528960, Note_on_c, 1, 31, 40
1, 529200, Note_off_c, 1, 31, 0
1, 529200, Note_on_c, 1, 39, 40
1, 531120, Note_off_c, 1, 39, 0
1, 531120, Note_on_c, 1, 39, 40
1, 531240, Note_off_c, 1, 39, 0
1, 531240, Note_on_c, 1, 36, 40
1, 531480, Note_off_c, 1, 36, 0
1, 531480, Note_on_c, 1, 36, 40
1, 533400, Note_off_c, 1, 36, 0
1, 533520, Note_on_c, 1, 32, 40
1, 534000, Note_off_c, 1, 32, 0
1, 534000, Note_on_c, 1, 39, 40
1, 534240, Note_off_c, 1, 39, 0
1, 534240, Note_on_c, 1, 39, 40
1, 534480, Note_off_c, 1, 39, 0
1, 534600, Note_on_c, 1, 31, 40
1, 534840, Note_off_c, 1, 31, 0
1, 534960, Note_on_c, 1, 31, 40
1, 535200, Note_off_c, 1, 31, 0
1, 535200, Note_on_c, 1, 31, 40
1, 535440, Note_off_c, 1, 31, 0
1, 535440, Note_on_c, 1, 39, 40
1, 535680, Note_off_c, 1, 39, 0
1, 535680, Note_on_c, 1, 39, 40
1, 535920, Note_off_c, 1, 39, 0
1, 535920, Note_on_c, 1, 39, 40
1, 536160, Note_off_c, 1, 39, 0
1, 536160, Note_on_c, 1, 31, 40
1, 536400, Note_off_c, 1, 31, 0
1, 536400, Note_on_c, 1, 39, 40
1, 536640, Note_off_c, 1, 39, 0
1, 536640, Note_on_c, 1, 31, 40
1, 536880, Note_off_c, 1, 31, 0
1, 536880, Note_on_c, 1, 39, 40
1, 537120, Note_off_c, 1, 39, 0
1, 537120, Note_on_c, 1, 31, 40
1, 537360, Note_off_c, 1, 31, 0
1, 537360, Note_on_c, 1, 39, 40
1, 537600, Note_off_c, 1, 39, 0
1, 537600, Note_on_c, 1, 39, 40
1, 537840, Note_off_c, 1, 39, 0
1, 537960, Note_on_c, 1, 39, 40
1, 538200, Note_off_c, 1, 39, 0
1, 538320, Note_on_c, 1, 36, 40
1, 540240, Note_off_c, 1, 36, 0
1, 540240, Note_on_c, 1, 39, 40
1, 540480, Note_off_c, 1, 39, 0
1, 540720, Note_on_c, 1, 32, 40
1, 540960, Note_off_c, 1, 32, 0
1, 540960, Note_on_c, 1, 32, 40
1, 541200, Note_off_c, 1, 32, 0
1, 541200, Note_on_c, 1, 32, 40
1, 541440, Note_off_c, 1, 32, 0
1, 541440, Note_on_c, 1, 32, 40
1, 541680, Note_off_c, 1, 32, 0
1, 541920, Note_on_c, 1, 31, 40
1, 542160, Note_off_c, 1, 31, 0
1, 542160, Note_on_c, 1, 39, 40
1, 542400, Note_off_c, 1, 39, 0
1, 542640, Note_on_c, 1, 31, 40
1, 542880, Note_off_c, 1, 31, 0
1, 542880, Note_on_c, 1, 45, 40
1, 543120, Note_off_c, 1, 45, 0
1, 543120, Note_on_c, 1, 45, 40
1, 543360, Note_off_c, 1, 45, 0
1, 543360, Note_on_c, 1, 31, 40
1, 543600, Note_off_c, 1, 31, 0
1, 543600, Note_on_c, 1, 31, 40
1, 543840, Note_off_c, 1, 31, 0
1, 543840, Note_on_c, 1, 45, 40
1, 544080, Note_off_c, 1, 45, 0
1, 544080, Note_on_c, 1, 45, 40
1, 544320, Note_off_c, 1, 45, 0
1, 544320, Note_on_c, 1, 45, 40
1, 544560, Note_off_c, 1, 45, 0
1, 544560, Note_on_c, 1, 45, 40
1, 544800, Note_off_c, 1, 45, 0
1, 544800, Note_on_c, 1, 45, 40
1, 545040, Note_off_c, 1, 45, 0
1, 545040, Note_on_c, 1, 45, 40
1, 545280, Note_off_c, 1, 45, 0
1, 545280, Note_on_c, 1, 45, 40
1, 545520, Note_off_c, 1, 45, 0
1, 545520, Note_on_c, 1, 31, 40
1, 545760, Note_off_c, 1, 31, 0
1, 545760, Note_on_c, 1, 31, 40
1, 546000, Note_off_c, 1, 31, 0
1, 546000, Note_on_c, 1, 39, 40
1, 546240, Note_off_c, 1, 39, 0
1, 546480, Note_on_c, 1, 31, 40
1, 546720, Note_off_c, 1, 31, 0
1, 546720, Note_on_c, 1, 31, 40
1, 546960, Note_off_c, 1, 31, 0
1, 546960, Note_on_c, 1, 31, 40
1, 547200, Note_off_c, 1, 31, 0
1, 547200, Note_on_c, 1, 39, 40
1, 547440, Note_off_c, 1, 39, 0
1, 547560, Note_on_c, 1, 31, 40
1, 547800, Note_off_c, 1, 31, 0
1, 547800, Note_on_c, 1, 31, 40
1, 548040, Note_off_c, 1, 31, 0
1, 548040, Note_on_c, 1, 31, 40
1, 548280, Note_off_c, 1, 31, 0
1, 548280, Note_on_c, 1, 31, 40
1, 548520, Note_off_c, 1, 31, 0
1, 548520, Note_on_c, 1, 31, 40
1, 548760, Note_off_c, 1, 31, 0
1, 548760, Note_on_c, 1, 31, 40
1, 549000, Note_off_c, 1, 31, 0
1, 549000, Note_on_c, 1, 31, 40
1, 549240, Note_off_c, 1, 31, 0
1, 549240, Note_on_c, 1, 31, 40
1, 549480, Note_off_c, 1, 31, 0
1, 549480, Note_on_c, 1, 31, 40
1, 549720, Note_off_c, 1, 31, 0
1, 549720, Note_on_c, 1, 31, 40
1, 549960, Note_off_c, 1, 31, 0
1, 549960, Note_on_c, 1, 31, 40
1, 550200, Note_off_c, 1, 31, 0
1, 550200, Note_on_c, 1, 31, 40
1, 550440, Note_off_c, 1, 31, 0
1, 550440, Note_on_c, 1, 31, 40
1, 550680, Note_off_c, 1, 31, 0
1, 550680, Note_on_c, 1, 31, 40
1, 550920, Note_off_c, 1, 31, 0
1, 550920, Note_on_c, 1, 31, 40
1, 551160, Note_off_c, 1, 31, 0
1, 551160, Note_on_c, 1, 31, 40
1, 551400, Note_off_c, 1, 31, 0
1, 551400, Note_on_c, 1, 31, 40
1, 551640, Note_off_c, 1, 31, 0
1, 551640, Note_on_c, 1, 39, 40
1, 551880, Note_off_c, 1, 39, 0
1, 552120, Note_on_c, 1, 39, 40
1, 552360, Note_off_c, 1, 39, 0
1, 552480, Note_on_c, 1, 36, 40
1, 552720, Note_off_c, 1, 36, 0
1, 552840, Note_on_c, 1, 39, 40
1, 553080, Note_off_c, 1, 39, 0
1, 553200, Note_on_c, 1, 31, 40
1, 553440, Note_off_c, 1, 31, 0
1, 553440, Note_on_c, 1, 31, 40
1, 553680, Note_off_c, 1, 31, 0
1, 553680, Note_on_c, 1, 39, 40
1, 553920, Note_off_c, 1, 39, 0
1, 554160, Note_on_c, 1, 31, 40
1, 554400, Note_off_c, 1, 31, 0
1, 554400, Note_on_c, 1, 31, 40
1, 554640, Note_off_c, 1, 31, 0
1, 554640, Note_on_c, 1, 39, 40
1, 554880, Note_off_c, 1, 39, 0
1, 555000, Note_on_c, 1, 31, 40
1, 555240, Note_off_c, 1, 31, 0
1, 555240, Note_on_c, 1, 39, 40
1, 555480, Note_off_c, 1, 39, 0
1, 555480, Note_on_c, 1, 31, 40
1, 555720, Note_off_c, 1, 31, 0
1, 555720, Note_on_c, 1, 31, 40
1, 555960, Note_off_c, 1, 31, 0
1, 555960, Note_on_c, 1, 31, 40
1, 556200, Note_off_c, 1, 31, 0
1, 556200, Note_on_c, 1, 31, 40
1, 556440, Note_off_c, 1, 31, 0
1, 556440, Note_on_c, 1, 31, 40
1, 556680, Note_off_c, 1, 31, 0
1, 556680, Note_on_c, 1, 31, 40
1, 556920, Note_off_c, 1, 31, 0
1, 556920, Note_on_c, 1, 31, 40
1, 557160, Note_off_c, 1, 31, 0
1, 557160, Note_on_c, 1, 31, 40
1, 557400, Note_off_c, 1, 31, 0
1, 557400, Note_on_c, 1, 31, 40
1, 557640, Note_off_c, 1, 31, 0
1, 557640, Note_on_c, 1, 39, 40
1, 557880, Note_off_c, 1, 39, 0
1, 558120, Note_on_c, 1, 31, 40
1, 558360, Note_off_c, 1, 31, 0
1, 558360, Note_on_c, 1, 31, 40
1, 558600, Note_off_c, 1, 31, 0
1, 558600, Note_on_c, 1, 31, 40
1, 558840, Note_off_c, 1, 31, 0
1, 558840, Note_on_c, 1, 31, 40
1, 559080, Note_off_c, 1, 31, 0
1, 559080, Note_on_c, 1, 31, 40
1, 559320, Note_off_c, 1, 31, 0
1, 559320, Note_on_c, 1, 31, 40
1, 559560, Note_off_c, 1, 31, 0
1, 559560, Note_on_c, 1, 31, 40
1, 559800, Note_off_c, 1, 31, 0
1, 559800, Note_on_c, 1, 39, 40
1, 560520, Note_off_c, 1, 39, 0
1, 560520, Note_on_c, 1, 39, 40
1, 560760, Note_off_c, 1, 39, 0
1, 560880, Note_on_c, 1, 31, 40
1, 561120, Note_off_c, 1, 31, 0
1, 561120, Note_on_c, 1, 31, 40
1, 561360, Note_off_c, 1, 31, 0
1, 561360, Note_on_c, 1, 39, 40
1, 561600, Note_off_c, 1, 39, 0
1, 561840, Note_on_c, 1, 31, 40
1, 562080, Note_off_c, 1, 31, 0
1, 562080, Note_on_c, 1, 31, 40
1, 562320, Note_off_c, 1, 31, 0
1, 562680, Note_on_c, 1, 34, 40
1, 563160, Note_off_c, 1, 34, 0
1, 576600, Note_on_c, 1, 39, 40
1, 576840, Note_off_c, 1, 39, 0
1, 577560, Note_on_c, 1, 31, 40
1, 577800, Note_off_c, 1, 31, 0
1, 577920, Note_on_c, 1, 36, 40
1, 578160, Note_off_c, 1, 36, 0
1, 578280, Note_on_c, 1, 39, 40
1, 578400, Note_off_c, 1, 39, 0
1, 579720, Note_on_c, 1, 31, 40
1, 579960, Note_off_c, 1, 31, 0
1, 580560, Note_on_c, 1, 39, 40
1, 582480, Note_off_c, 1, 39, 0
1, 582840, Note_on_c, 1, 36, 40
1, 583080, Note_off_c, 1, 36, 0
1, 583200, Note_on_c, 1, 32, 40
1, 584160, Note_off_c, 1, 32, 0
1, 586680, Note_on_c, 1, 39, 40
1, 586920, Note_off_c, 1, 39, 0
1, 587040, Note_on_c, 1, 32, 40
1, 588000, Note_off_c, 1, 32, 0
1, 588000, Note_on_c, 1, 35, 40
1, 588720, Note_off_c, 1, 35, 0
1, 588720, Note_on_c, 1, 34, 40
1, 589200, Note_off_c, 1, 34, 0
1, 589200, Note_on_c, 1, 29, 40
1, 589320, Note_off_c, 1, 29, 0
1, 589320, Note_on_c, 1, 39, 40
1, 589440, Note_off_c, 1, 39, 0
1, 589440, Note_on_c, 1, 29, 40
1, 589920, Note_off_c, 1, 29, 0
1, 589920, Note_on_c, 1, 45, 40
1, 590160, Note_off_c, 1, 45, 0
1, 590160, Note_on_c, 1, 39, 40
1, 590400, Note_off_c, 1, 39, 0
1, 590520, Note_on_c, 1, 28, 40
1, 592200, Note_off_c, 1, 28, 0
1, 592200, Note_on_c, 1, 52, 40
1, 592320, Note_off_c, 1, 52, 0
1, 592320, Note_on_c, 1, 45, 40
1, 592560, Note_off_c, 1, 45, 0
1, 592560, Note_on_c, 1, 45, 40
1, 592800, Note_off_c, 1, 45, 0
1, 592800, Note_on_c, 1, 31, 40
1, 593040, Note_off_c, 1, 31, 0
1, 593040, Note_on_c, 1, 39, 40
1, 593280, Note_off_c, 1, 39, 0
1, 593280, Note_on_c, 1, 39, 40
1, 593520, Note_off_c, 1, 39, 0
1, 593640, Note_on_c, 1, 39, 40
1, 595560, Note_off_c, 1, 39, 0
1, 595680, Note_on_c, 1, 36, 40
1, 596280, Note_off_c, 1, 36, 0
1, 598440, Note_on_c, 1, 38, 40
1, 598680, Note_off_c, 1, 38, 0
1, 599040, Note_on_c, 1, 31, 40
1, 599280, Note_off_c, 1, 31, 0
1, 599280, Note_on_c, 1, 39, 40
1, 599520, Note_off_c, 1, 39, 0
1, 599760, Note_on_c, 1, 31, 40
1, 600000, Note_off_c, 1, 31, 0
1, 600000, Note_on_c, 1, 39, 40
1, 600240, Note_off_c, 1, 39, 0
1, 600360, Note_on_c, 1, 39, 40
1, 602280, Note_off_c, 1, 39, 0
1, 602400, Note_on_c, 1, 31, 40
1, 602640, Note_off_c, 1, 31, 0
1, 602640, Note_on_c, 1, 31, 40
1, 602880, Note_off_c, 1, 31, 0
1, 602880, Note_on_c, 1, 31, 40
1, 603120, Note_off_c, 1, 31, 0
1, 603120, Note_on_c, 1, 39, 40
1, 604080, Note_off_c, 1, 39, 0
1, 604200, Note_on_c, 1, 37, 40
1, 606120, Note_off_c, 1, 37, 0
1, 606120, Note_on_c, 1, 39, 40
1, 606360, Note_off_c, 1, 39, 0
1, 606600, Note_on_c, 1, 35, 40
1, 607080, Note_off_c, 1, 35, 0
1, 607080, Note_on_c, 1, 35, 40
1, 609000, Note_off_c, 1, 35, 0
1, 609000, Note_on_c, 1, 32, 40
1, 609720, Note_off_c, 1, 32, 0
1, 611640, Note_on_c, 1, 38, 40
1, 611880, Note_off_c, 1, 38, 0
1, 614040, Note_on_c, 1, 38, 40
1, 614280, Note_off_c, 1, 38, 0
1, 614640, Note_on_c, 1, 36, 40
1, 614880, Note_off_c, 1, 36, 0
1, 614880, Note_on_c, 1, 39, 40
1, 615600, Note_off_c, 1, 39, 0
1, 615600, Note_on_c, 1, 39, 40
1, 615840, Note_off_c, 1, 39, 0
1, 615960, Note_on_c, 1, 39, 40
1, 617880, Note_off_c, 1, 39, 0
1, 618000, Note_on_c, 1, 31, 40
1, 618240, Note_off_c, 1, 31, 0
1, 618240, Note_on_c, 1, 31, 40
1, 618480, Note_off_c, 1, 31, 0
1, 618480, Note_on_c, 1, 39, 40
1, 619440, Note_off_c, 1, 39, 0
1, 619560, Note_on_c, 1, 37, 40
1, 621480, Note_off_c, 1, 37, 0
1, 621480, Note_on_c, 1, 39, 40
1, 621720, Note_off_c, 1, 39, 0
1, 621960, Note_on_c, 1, 35, 40
1, 622440, Note_off_c, 1, 35, 0
1, 622440, Note_on_c, 1, 35, 40
1, 624360, Note_off_c, 1, 35, 0
1, 624360, Note_on_c, 1, 32, 40
1, 625080, Note_off_c, 1, 32, 0
1, 627000, Note_on_c, 1, 38, 40
1, 627240, Note_off_c, 1, 38, 0
1, 629400, Note_on_c, 1, 38, 40
1, 629640, Note_off_c, 1, 38, 0
1, 630000, Note_on_c, 1, 36, 40
1, 630240, Note_off_c, 1, 36, 0
1, 630240, Note_on_c, 1, 39, 40
1, 630960, Note_off_c, 1, 39, 0
1, 630960, Note_on_c, 1, 39, 40
1, 631200, Note_off_c, 1, 39, 0
1, 631320, Note_on_c, 1, 39, 40
1, 633240, Note_off_c, 1, 39, 0
1, 633360, Note_on_c, 1, 31, 40
1, 633600, Note_off_c, 1, 31, 0
1, 633600, Note_on_c, 1, 31, 40
1, 633840, Note_off_c, 1, 31, 0
1, 633840, Note_on_c, 1, 39, 40
1, 634800, Note_off_c, 1, 39, 0
1, 634920, Note_on_c, 1, 37, 40
1, 636840, Note_off_c, 1, 37, 0
1, 636840, Note_on_c, 1, 39, 40
1, 637080, Note_off_c, 1, 39, 0
1, 639240, Note_on_c, 1, 34, 40
1, 639480, Note_off_c, 1, 34, 0
1, 639480, Note_on_c, 1, 29, 40
1, 641400, Note_off_c, 1, 29, 0
1, 643320, Note_on_c, 1, 28, 40
1, 643680, Note_off_c, 1, 28, 0
1, 643680, Note_on_c, 1, 31, 40
1, 644160, Note_off_c, 1, 31, 0
1, 644160, Note_on_c, 1, 45, 40
1, 645720, Note_off_c, 1, 45, 0
1, 645840, Note_on_c, 1, 31, 40
1, 646080, Note_off_c, 1, 31, 0
1, 646080, Note_on_c, 1, 39, 40
1, 646320, Note_off_c, 1, 39, 0
1, 646440, Note_on_c, 1, 39, 40
1, 648360, Note_off_c, 1, 39, 0
1, 648480, Note_on_c, 1, 31, 40
1, 648720, Note_off_c, 1, 31, 0
1, 648720, Note_on_c, 1, 45, 40
1, 648960, Note_off_c, 1, 45, 0
1, 648960, Note_on_c, 1, 39, 40
1, 649200, Note_off_c, 1, 39, 0
1, 649320, Note_on_c, 1, 28, 40
1, 651000, Note_off_c, 1, 28, 0
1, 651000, Note_on_c, 1, 34, 40
1, 651720, Note_off_c, 1, 34, 0
1, 651720, Note_on_c, 1, 36, 40
1, 651840, Note_off_c, 1, 36, 0
1, 651960, Note_on_c, 1, 38, 40
1, 653880, Note_off_c, 1, 38, 0
1, 654000, Note_on_c, 1, 40, 40
1, 654120, Note_off_c, 1, 40, 0
1, 654240, Note_on_c, 1, 40, 40
1, 654360, Note_off_c, 1, 40, 0
1, 654360, Note_on_c, 1, 40, 40
1, 656280, Note_off_c, 1, 40, 0
1, 656280, Note_on_c, 1, 40, 40
1, 656400, Note_off_c, 1, 40, 0
1, 656640, Note_on_c, 1, 31, 40
1, 656880, Note_off_c, 1, 31, 0
1, 656880, Note_on_c, 1, 39, 40
1, 657120, Note_off_c, 1, 39, 0
1, 657360, Note_on_c, 1, 31, 40
1, 657600, Note_off_c, 1, 31, 0
1, 657600, Note_on_c, 1, 39, 40
1, 657840, Note_off_c, 1, 39, 0
1, 657960, Note_on_c, 1, 39, 40
1, 659880, Note_off_c, 1, 39, 0
1, 660000, Note_on_c, 1, 31, 40
1, 660240, Note_off_c, 1, 31, 0
1, 660240, Note_on_c, 1, 31, 40
1, 660480, Note_off_c, 1, 31, 0
1, 660480, Note_on_c, 1, 31, 40
1, 660720, Note_off_c, 1, 31, 0
1, 660720, Note_on_c, 1, 45, 40
1, 660840, Note_off_c, 1, 45, 0
1, 660960, Note_on_c, 1, 36, 40
1, 661560, Note_off_c, 1, 36, 0
1, 663720, Note_on_c, 1, 38, 40
1, 663960, Note_off_c, 1, 38, 0
1, 664320, Note_on_c, 1, 31, 40
1, 664560, Note_off_c, 1, 31, 0
1, 664560, Note_on_c, 1, 39, 40
1, 664800, Note_off_c, 1, 39, 0
1, 665040, Note_on_c, 1, 31, 40
1, 665280, Note_off_c, 1, 31, 0
1, 665280, Note_on_c, 1, 39, 40
1, 665520, Note_off_c, 1, 39, 0
1, 665640, Note_on_c, 1, 39, 40
1, 667560, Note_off_c, 1, 39, 0
1, 667680, Note_on_c, 1, 31, 40
1, 667920, Note_off_c, 1, 31, 0
1, 667920, Note_on_c, 1, 31, 40
1, 668160, Note_off_c, 1, 31, 0
1, 668160, Note_on_c, 1, 31, 40
1, 668400, Note_off_c, 1, 31, 0
1, 668400, Note_on_c, 1, 39, 40
1, 669360, Note_off_c, 1, 39, 0
1, 669480, Note_on_c, 1, 37, 40
1, 671400, Note_off_c, 1, 37, 0
1, 671400, Note_on_c, 1, 39, 40
1, 671640, Note_off_c, 1, 39, 0
1, 673800, Note_on_c, 1, 34, 40
1, 674040, Note_off_c, 1, 34, 0
1, 674040, Note_on_c, 1, 29, 40
1, 675960, Note_off_c, 1, 29, 0
1, 677880, Note_on_c, 1, 28, 40
1, 678240, Note_off_c, 1, 28, 0
1, 678240, Note_on_c, 1, 31, 40
1, 678720, Note_off_c, 1, 31, 0
1, 678720, Note_on_c, 1, 45, 40
1, 680280, Note_off_c, 1, 45, 0
1, 680400, Note_on_c, 1, 31, 40
1, 680640, Note_off_c, 1, 31, 0
1, 680640, Note_on_c, 1, 39, 40
1, 680880, Note_off_c, 1, 39, 0
1, 681000, Note_on_c, 1, 39, 40
1, 682920, Note_off_c, 1, 39, 0
1, 683040, Note_on_c, 1, 31, 40
1, 683280, Note_off_c, 1, 31, 0
1, 683280, Note_on_c, 1, 45, 40
1, 683520, Note_off_c, 1, 45, 0
1, 683520, Note_on_c, 1, 39, 40
1, 683760, Note_off_c, 1, 39, 0
1, 683880, Note_on_c, 1, 28, 40
1, 685560, Note_off_c, 1, 28, 0
1, 685560, Note_on_c, 1, 34, 40
1, 686280, Note_off_c, 1, 34, 0
1, 686280, Note_on_c, 1, 36, 40
1, 686400, Note_off_c, 1, 36, 0
1, 686520, Note_on_c, 1, 38, 40
1, 688440, Note_off_c, 1, 38, 0
1, 688560, Note_on_c, 1, 40, 40
1, 688680, Note_off_c, 1, 40, 0
1, 688800, Note_on_c, 1, 40, 40
1, 688920, Note_off_c, 1, 40, 0
1, 689040, Note_on_c, 1, 39, 40
1, 689280, Note_off_c, 1, 39, 0
1, 689400, Note_on_c, 1, 40, 40
1, 690000, Note_off_c, 1, 40, 0
1, 690000, Note_on_c, 1, 36, 40
1, 691920, Note_off_c, 1, 36, 0
1, 692040, Note_on_c, 1, 37, 40
1, 693960, Note_off_c, 1, 37, 0
1, 693960, Note_on_c, 1, 36, 40
1, 694200, Note_off_c, 1, 36, 0
1, 694440, Note_on_c, 1, 31, 40
1, 694920, Note_off_c, 1, 31, 0
1, 694920, Note_on_c, 1, 41, 40
1, 695160, Note_off_c, 1, 41, 0
1, 695280, Note_on_c, 1, 36, 40
1, 695880, Note_off_c, 1, 36, 0
1, 696000, Note_on_c, 1, 27, 40
1, 696600, Note_off_c, 1, 27, 0
1, 696720, Note_on_c, 1, 39, 40
1, 698640, Note_off_c, 1, 39, 0
1, 698880, Note_on_c, 1, 31, 40
1, 699120, Note_off_c, 1, 31, 0
1, 699120, Note_on_c, 1, 39, 40
1, 699360, Note_off_c, 1, 39, 0
1, 699600, Note_on_c, 1, 31, 40
1, 699840, Note_off_c, 1, 31, 0
1, 699840, Note_on_c, 1, 39, 40
1, 700080, Note_off_c, 1, 39, 0
1, 700200, Note_on_c, 1, 39, 40
1, 702120, Note_off_c, 1, 39, 0
1, 702240, Note_on_c, 1, 31, 40
1, 702480, Note_off_c, 1, 31, 0
1, 702480, Note_on_c, 1, 31, 40
1, 702720, Note_off_c, 1, 31, 0
1, 702720, Note_on_c, 1, 31, 40
1, 702960, Note_off_c, 1, 31, 0
1, 702960, Note_on_c, 1, 39, 40
1, 703920, Note_off_c, 1, 39, 0
1, 704040, Note_on_c, 1, 37, 40
1, 705960, Note_off_c, 1, 37, 0
1, 705960, Note_on_c, 1, 39, 40
1, 706200, Note_off_c, 1, 39, 0
1, 708360, Note_on_c, 1, 34, 40
1, 708600, Note_off_c, 1, 34, 0
1, 708600, Note_on_c, 1, 29, 40
1, 710520, Note_off_c, 1, 29, 0
1, 712440, Note_on_c, 1, 28, 40
1, 712800, Note_off_c, 1, 28, 0
1, 712800, Note_on_c, 1, 31, 40
1, 713280, Note_off_c, 1, 31, 0
1, 713280, Note_on_c, 1, 45, 40
1, 714840, Note_off_c, 1, 45, 0
1, 714960, Note_on_c, 1, 31, 40
1, 715200, Note_off_c, 1, 31, 0
1, 715200, Note_on_c, 1, 39, 40
1, 715440, Note_off_c, 1, 39, 0
1, 715560, Note_on_c, 1, 39, 40
1, 717480, Note_off_c, 1, 39, 0
1, 717600, Note_on_c, 1, 31, 40
1, 717840, Note_off_c, 1, 31, 0
1, 717840, Note_on_c, 1, 45, 40
1, 718080, Note_off_c, 1, 45, 0
1, 718080, Note_on_c, 1, 39, 40
1, 718320, Note_off_c, 1, 39, 0
1, 718440, Note_on_c, 1, 28, 40
1, 720120, Note_off_c, 1, 28, 0
1, 720120, Note_on_c, 1, 34, 40
1, 720840, Note_off_c, 1, 34, 0
1, 720840, Note_on_c, 1, 36, 40
1, 720960, Note_off_c, 1, 36, 0
1, 720960, Note_on_c, 1, 36, 40
1, 721080, Note_off_c, 1, 36, 0
1, 721440, Note_on_c, 1, 45, 40
1, 721680, Note_off_c, 1, 45, 0
1, 721680, Note_on_c, 1, 39, 40
1, 721920, Note_off_c, 1, 39, 0
1, 724440, Note_on_c, 1, 40, 40
1, 725040, Note_off_c, 1, 40, 0
1, 725040, Note_on_c, 1, 36, 40
1, 725280, Note_off_c, 1, 36, 0
1, 725280, Note_on_c, 1, 40, 40
1, 725520, Note_off_c, 1, 40, 0
1, 726240, Note_on_c, 1, 39, 40
1, 726480, Note_off_c, 1, 39, 0
1, 726600, Note_on_c, 1, 39, 40
1, 728520, Note_off_c, 1, 39, 0
1, 729000, Note_on_c, 1, 31, 40
1, 729480, Note_off_c, 1, 31, 0
1, 729480, Note_on_c, 1, 41, 40
1, 729720, Note_off_c, 1, 41, 0
1, 729840, Note_on_c, 1, 36, 40
1, 730440, Note_off_c, 1, 36, 0
1, 730560, Note_on_c, 1, 27, 40
1, 731160, Note_off_c, 1, 27, 0
1, 731280, Note_on_c, 1, 39, 40
1, 733200, Note_off_c, 1, 39, 0
1, 733440, Note_on_c, 1, 31, 40
1, 733680, Note_off_c, 1, 31, 0
1, 733680, Note_on_c, 1, 39, 40
1, 733920, Note_off_c, 1, 39, 0
1, 734160, Note_on_c, 1, 31, 40
1, 734400, Note_off_c, 1, 31, 0
1, 734400, Note_on_c, 1, 39, 40
1, 734640, Note_off_c, 1, 39, 0
1, 734760, Note_on_c, 1, 39, 40
1, 736680, Note_off_c, 1, 39, 0
1, 736800, Note_on_c, 1, 31, 40
1, 737040, Note_off_c, 1, 31, 0
1, 737040, Note_on_c, 1, 31, 40
1, 737280, Note_off_c, 1, 31, 0
1, 737280, Note_on_c, 1, 31, 40
1, 737520, Note_off_c, 1, 31, 0
1, 737520, Note_on_c, 1, 39, 40
1, 738480, Note_off_c, 1, 39, 0
1, 738600, Note_on_c, 1, 37, 40
1, 740520, Note_off_c, 1, 37, 0
1, 740520, Note_on_c, 1, 39, 40
1, 740760, Note_off_c, 1, 39, 0
1, 741000, Note_on_c, 1, 35, 40
1, 741480, Note_off_c, 1, 35, 0
1, 741480, Note_on_c, 1, 35, 40
1, 743400, Note_off_c, 1, 35, 0
1, 743400, Note_on_c, 1, 32, 40
1, 744120, Note_off_c, 1, 32, 0
1, 746040, Note_on_c, 1, 38, 40
1, 746280, Note_off_c, 1, 38, 0
1, 748440, Note_on_c, 1, 38, 40
1, 748680, Note_off_c, 1, 38, 0
1, 749040, Note_on_c, 1, 36, 40
1, 749280, Note_off_c, 1, 36, 0
1, 749280, Note_on_c, 1, 39, 40
1, 750000, Note_off_c, 1, 39, 0
1, 750000, Note_on_c, 1, 39, 40
1, 750240, Note_off_c, 1, 39, 0
1, 750360, Note_on_c, 1, 39, 40
1, 752280, Note_off_c, 1, 39, 0
1, 752400, Note_on_c, 1, 31, 40
1, 752640, Note_off_c, 1, 31, 0
1, 752640, Note_on_c, 1, 31, 40
1, 752880, Note_off_c, 1, 31, 0
1, 752880, Note_on_c, 1, 39, 40
1, 753840, Note_off_c, 1, 39, 0
1, 753960, Note_on_c, 1, 37, 40
1, 755880, Note_off_c, 1, 37, 0
1, 755880, Note_on_c, 1, 39, 40
1, 756120, Note_off_c, 1, 39, 0
1, 758280, Note_on_c, 1, 34, 40
1, 758520, Note_off_c, 1, 34, 0
1, 758520, Note_on_c, 1, 29, 40
1, 760440, Note_off_c, 1, 29, 0
1, 762360, Note_on_c, 1, 28, 40
1, 762720, Note_off_c, 1, 28, 0
1, 762720, Note_on_c, 1, 31, 40
1, 763200, Note_off_c, 1, 31, 0
1, 763200, Note_on_c, 1, 45, 40
1, 764760, Note_off_c, 1, 45, 0
1, 764880, Note_on_c, 1, 31, 40
1, 765120, Note_off_c, 1, 31, 0
1, 765120, Note_on_c, 1, 39, 40
1, 765360, Note_off_c, 1, 39, 0
1, 765480, Note_on_c, 1, 39, 40
1, 767400, Note_off_c, 1, 39, 0
1, 767520, Note_on_c, 1, 31, 40
1, 767760, Note_off_c, 1, 31, 0
1, 767760, Note_on_c, 1, 45, 40
1, 768000, Note_off_c, 1, 45, 0
1, 768000, Note_on_c, 1, 39, 40
1, 768240, Note_off_c, 1, 39, 0
1, 768360, Note_on_c, 1, 28, 40
1, 770040, Note_off_c, 1, 28, 0
1, 770040, Note_on_c, 1, 34, 40
1, 770760, Note_off_c, 1, 34, 0
1, 770760, Note_on_c, 1, 36, 40
1, 770880, Note_off_c, 1, 36, 0
1, 771000, Note_on_c, 1, 38, 40
1, 772920, Note_off_c, 1, 38, 0
1, 773040, Note_on_c, 1, 40, 40
1, 773160, Note_off_c, 1, 40, 0
1, 773280, Note_on_c, 1, 40, 40
1, 773400, Note_off_c, 1, 40, 0
1, 773520, Note_on_c, 1, 39, 40
1, 773760, Note_off_c, 1, 39, 0
1, 773880, Note_on_c, 1, 40, 40
1, 774480, Note_off_c, 1, 40, 0
1, 774480, Note_on_c, 1, 36, 40
1, 776400, Note_off_c, 1, 36, 0
1, 776520, Note_on_c, 1, 37, 40
1, 778440, Note_off_c, 1, 37, 0
1, 778440, Note_on_c, 1, 36, 40
1, 778680, Note_off_c, 1, 36, 0
1, 778920, Note_on_c, 1, 31, 40
1, 779400, Note_off_c, 1, 31, 0
1, 779400, Note_on_c, 1, 41, 40
1, 779640, Note_off_c, 1, 41, 0
1, 779760, Note_on_c, 1, 36, 40
1, 780360, Note_off_c, 1, 36, 0
1, 780480, Note_on_c, 1, 27, 40
1, 781080, Note_off_c, 1, 27, 0
1, 781200, Note_on_c, 1, 39, 40
1, 783120, Note_off_c, 1, 39, 0
1, 783360, Note_on_c, 1, 31, 40
1, 783600, Note_off_c, 1, 31, 0
1, 783600, Note_on_c, 1, 39, 40
1, 783840, Note_off_c, 1, 39, 0
1, 784080, Note_on_c, 1, 31, 40
1, 784320, Note_off_c, 1, 31, 0
1, 784320, Note_on_c, 1, 39, 40
1, 784560, Note_off_c, 1, 39, 0
1, 784680, Note_on_c, 1, 39, 40
1, 786600, Note_off_c, 1, 39, 0
1, 786720, Note_on_c, 1, 31, 40
1, 786960, Note_off_c, 1, 31, 0
1, 786960, Note_on_c, 1, 31, 40
1, 787200, Note_off_c, 1, 31, 0
1, 787200, Note_on_c, 1, 31, 40
1, 787440, Note_off_c, 1, 31, 0
1, 787440, Note_on_c, 1, 39, 40
1, 788400, Note_off_c, 1, 39, 0
1, 788520, Note_on_c, 1, 37, 40
1, 790440, Note_off_c, 1, 37, 0
1, 790440, Note_on_c, 1, 39, 40
1, 790680, Note_off_c, 1, 39, 0
1, 790920, Note_on_c, 1, 35, 40
1, 791400, Note_off_c, 1, 35, 0
1, 791400, Note_on_c, 1, 35, 40
1, 793320, Note_off_c, 1, 35, 0
1, 793320, Note_on_c, 1, 32, 40
1, 794040, Note_off_c, 1, 32, 0
1, 795960, Note_on_c, 1, 38, 40
1, 796200, Note_off_c, 1, 38, 0
1, 798360, Note_on_c, 1, 38, 40
1, 798600, Note_off_c, 1, 38, 0
1, 798960, Note_on_c, 1, 36, 40
1, 799200, Note_off_c, 1, 36, 0
1, 799200, Note_on_c, 1, 39, 40
1, 799920, Note_off_c, 1, 39, 0
1, 799920, Note_on_c, 1, 39, 40
1, 800160, Note_off_c, 1, 39, 0
1, 800280, Note_on_c, 1, 39, 40
1, 802200, Note_off_c, 1, 39, 0
1, 802320, Note_on_c, 1, 31, 40
1, 802560, Note_off_c, 1, 31, 0
1, 802560, Note_on_c, 1, 31, 40
1, 802800, Note_off_c, 1, 31, 0
1, 802800, Note_on_c, 1, 39, 40
1, 803760, Note_off_c, 1, 39, 0
1, 803880, Note_on_c, 1, 37, 40
1, 805800, Note_off_c, 1, 37, 0
1, 805800, Note_on_c, 1, 39, 40
1, 806040, Note_off_c, 1, 39, 0
1, 806280, Note_on_c, 1, 35, 40
1, 806760, Note_off_c, 1, 35, 0
1, 806760, Note_on_c, 1, 35, 40
1, 808680, Note_off_c, 1, 35, 0
1, 808680, Note_on_c, 1, 32, 40
1, 809400, Note_off_c, 1, 32, 0
1, 811320, Note_on_c, 1, 38, 40
1, 811560, Note_off_c, 1, 38, 0
1, 813720, Note_on_c, 1, 38, 40
1, 813960, Note_off_c, 1, 38, 0
1, 814320, Note_on_c, 1, 36, 40
1, 814560, Note_off_c, 1, 36, 0
1, 814560, Note_on_c, 1, 39, 40
1, 815280, Note_off_c, 1, 39, 0
1, 815280, Note_on_c, 1, 39, 40
1, 815520, Note_off_c, 1, 39, 0
1, 815640, Note_on_c, 1, 39, 40
1, 817560, Note_off_c, 1, 39, 0
1, 817680, Note_on_c, 1, 31, 40
1, 817920, Note_off_c, 1, 31, 0
1, 817920, Note_on_c, 1, 31, 40
1, 818160, Note_off_c, 1, 31, 0
1, 818160, Note_on_c, 1, 39, 40
1, 819120, Note_off_c, 1, 39, 0
1, 819240, Note_on_c, 1, 37, 40
1, 821160, Note_off_c, 1, 37, 0
1, 821160, Note_on_c, 1, 39, 40
1, 821400, Note_off_c, 1, 39, 0
1, 821640, Note_on_c, 1, 35, 40
1, 822120, Note_off_c, 1, 35, 0
1, 822120, Note_on_c, 1, 35, 40
1, 824040, Note_off_c, 1, 35, 0
1, 824040, Note_on_c, 1, 32, 40
1, 824760, Note_off_c, 1, 32, 0
1, 826680, Note_on_c, 1, 38, 40
1, 826920, Note_off_c, 1, 38, 0
1, 829080, Note_on_c, 1, 38, 40
1, 829320, Note_off_c, 1, 38, 0
1, 829680, Note_on_c, 1, 36, 40
1, 829920, Note_off_c, 1, 36, 0
1, 829920, Note_on_c, 1, 39, 40
1, 830640, Note_off_c, 1, 39, 0
1, 830640, Note_on_c, 1, 39, 40
1, 830880, Note_off_c, 1, 39, 0
1, 831000, Note_on_c, 1, 39, 40
1, 832920, Note_off_c, 1, 39, 0
1, 833040, Note_on_c, 1, 31, 40
1, 833280, Note_off_c, 1, 31, 0
1, 833280, Note_on_c, 1, 31, 40
1, 833520, Note_off_c, 1, 31, 0
1, 833520, Note_on_c, 1, 39, 40
1, 834480, Note_off_c, 1, 39, 0
1, 834600, Note_on_c, 1, 37, 40
1, 836520, Note_off_c, 1, 37, 0
1, 836520, Note_on_c, 1, 39, 40
1, 836760, Note_off_c, 1, 39, 0
1, 837000, Note_on_c, 1, 35, 40
1, 837480, Note_off_c, 1, 35, 0
1, 837480, Note_on_c, 1, 35, 40
1, 839400, Note_off_c, 1, 35, 0
1, 839400, Note_on_c, 1, 32, 40
1, 840120, Note_off_c, 1, 32, 0
1, 842040, Note_on_c, 1, 38, 40
1, 842280, Note_off_c, 1, 38, 0
1, 844440, Note_on_c, 1, 38, 40
1, 844680, Note_off_c, 1, 38, 0
1, 845040, Note_on_c, 1, 36, 40
1, 845280, Note_off_c, 1, 36, 0
1, 845280, Note_on_c, 1, 39, 40
1, 846000, Note_off_c, 1, 39, 0
1, 846000, Note_on_c, 1, 39, 40
1, 846240, Note_off_c, 1, 39, 0
1, 846360, Note_on_c, 1, 39, 40
1, 848280, Note_off_c, 1, 39, 0
1, 848400, Note_on_c, 1, 31, 40
1, 848640, Note_off_c, 1, 31, 0
1, 848640, Note_on_c, 1, 31, 40
1, 848880, Note_off_c, 1, 31, 0
1, 848880, Note_on_c, 1, 39, 40
1, 849840, Note_off_c, 1, 39, 0
1, 849960, Note_on_c, 1, 37, 40
1, 851880, Note_off_c, 1, 37, 0
1, 851880, Note_on_c, 1, 39, 40
1, 852120, Note_off_c, 1, 39, 0
1, 852360, Note_on_c, 1, 35, 40
1, 852840, Note_off_c, 1, 35, 0
1, 852840, Note_on_c, 1, 35, 40
1, 854760, Note_off_c, 1, 35, 0
1, 854760, Note_on_c, 1, 32, 40
1, 855480, Note_off_c, 1, 32, 0
1, 857400, Note_on_c, 1, 38, 40
1, 857640, Note_off_c, 1, 38, 0
1, 859800, Note_on_c, 1, 38, 40
1, 860040, Note_off_c, 1, 38, 0
1, 860400, Note_on_c, 1, 36, 40
1, 860640, Note_off_c, 1, 36, 0
1, 860640, Note_on_c, 1, 39, 40
1, 861360, Note_off_c, 1, 39, 0
1, 861360, Note_on_c, 1, 39, 40
1, 861600, Note_off_c, 1, 39, 0
1, 861720, Note_on_c, 1, 39, 40
1, 863640, Note_off_c, 1, 39, 0
1, 863760, Note_on_c, 1, 31, 40
1, 864000, Note_off_c, 1, 31, 0
1, 864000, Note_on_c, 1, 31, 40
1, 864240, Note_off_c, 1, 31, 0
1, 864240, Note_on_c, 1, 39, 40
1, 865200, Note_off_c, 1, 39, 0
1, 865320, Note_on_c, 1, 37, 40
1, 867240, Note_off_c, 1, 37, 0
1, 867240, Note_on_c, 1, 39, 40
1, 867480, Note_off_c, 1, 39, 0
1, 867720, Note_on_c, 1, 35, 40
1, 868200, Note_off_c, 1, 35, 0
1, 868200, Note_on_c, 1, 35, 40
1, 870120, Note_off_c, 1, 35, 0
1, 870120, Note_on_c, 1, 32, 40
1, 870840, Note_off_c, 1, 32, 0
1, 872760, Note_on_c, 1, 38, 40
1, 873000, Note_off_c, 1, 38, 0
1, 875160, Note_on_c, 1, 38, 40
1, 875400, Note_off_c, 1, 38, 0
1, 875520, Note_on_c, 1, 31, 40
1, 875640, Note_off_c, 1, 31, 0
1, 877680, Note_on_c, 1, 36, 40
1, 878160, Note_off_c, 1, 36, 0
1, 878400, Note_on_c, 1, 39, 40
1, 878640, Note_off_c, 1, 39, 0
1, 878760, Note_on_c, 1, 31, 40
1, 879000, Note_off_c, 1, 31, 0
1, 879120, Note_on_c, 1, 32, 40
1, 880080, Note_off_c, 1, 32, 0
1, 880080, Note_on_c, 1, 35, 40
1, 880800, Note_off_c, 1, 35, 0
1, 880800, Note_on_c, 1, 34, 40
1, 881400, Note_off_c, 1, 34, 0
1, 881400, Note_on_c, 1, 32, 40
1, 882360, Note_off_c, 1, 32, 0
1, 882360, Note_on_c, 1, 35, 40
1, 882480, Note_off_c, 1, 35, 0
1, 882480, Note_on_c, 1, 34, 40
1, 884160, Note_off_c, 1, 34, 0
1, 884160, Note_on_c, 1, 36, 40
1, 884400, Note_off_c, 1, 36, 0
1, 884520, Note_on_c, 1, 35, 40
1, 884640, Note_off_c, 1, 35, 0
1, 884640, Note_on_c, 1, 34, 40
1, 885240, Note_off_c, 1, 34, 0
1, 885240, Note_on_c, 1, 31, 40
1, 885480, Note_off_c, 1, 31, 0
1, 886440, Note_on_c, 1, 29, 40
1, 886680, Note_off_c, 1, 29, 0
1, 886920, Note_on_c, 1, 31, 40
1, 887160, Note_off_c, 1, 31, 0
1, 887760, Note_on_c, 1, 39, 40
1, 889680, Note_off_c, 1, 39, 0
1, 890040, Note_on_c, 1, 36, 40
1, 890280, Note_off_c, 1, 36, 0
1, 890400, Note_on_c, 1, 32, 40
1, 891360, Note_off_c, 1, 32, 0
1, 893880, Note_on_c, 1, 39, 40
1, 894120, Note_off_c, 1, 39, 0
1, 894240, Note_on_c, 1, 32, 40
1, 895200, Note_off_c, 1, 32, 0
1, 895200, Note_on_c, 1, 35, 40
1, 895920, Note_off_c, 1, 35, 0
1, 895920, Note_on_c, 1, 34, 40
1, 896400, Note_off_c, 1, 34, 0
1, 896400, Note_on_c, 1, 32, 40
1, 897000, Note_off_c, 1, 32, 0
1, 897000, Note_on_c, 1, 28, 40
1, 897120, Note_off_c, 1, 28, 0
1, 899280, Note_on_c, 1, 39, 40
1, 899520, Note_off_c, 1, 39, 0
1, 900000, Note_on_c, 1, 31, 40
1, 900240, Note_off_c, 1, 31, 0
1, 900360, Note_on_c, 1, 36, 40
1, 900600, Note_off_c, 1, 36, 0
1, 900720, Note_on_c, 1, 39, 40
1, 900960, Note_off_c, 1, 39, 0
1, 902280, Note_on_c, 1, 31, 40
1, 902520, Note_off_c, 1, 31, 0
1, 903120, Note_on_c, 1, 39, 40
1, 905040, Note_off_c, 1, 39, 0
1, 905400, Note_on_c, 1, 36, 40
1, 905640, Note_off_c, 1, 36, 0
1, 905760, Note_on_c, 1, 32, 40
1, 906720, Note_off_c, 1, 32, 0
1, 906720, Note_on_c, 1, 28, 40
1, 907320, Note_off_c, 1, 28, 0
1, 907680, Note_on_c, 1, 31, 40
1, 907920, Note_off_c, 1, 31, 0
1, 908280, Note_on_c, 1, 31, 40
1, 908520, Note_off_c, 1, 31, 0
1, 908640, Note_on_c, 1, 36, 40
1, 908880, Note_off_c, 1, 36, 0
1, 909000, Note_on_c, 1, 36, 40
1, 909240, Note_off_c, 1, 36, 0
1, 909360, Note_on_c, 1, 37, 40
1, 911280, Note_off_c, 1, 37, 0
1, 911280, Note_on_c, 1, 40, 40
1, 911520, Note_off_c, 1, 40, 0
1, 912240, Note_on_c, 1, 32, 40
1, 914160, Note_off_c, 1, 32, 0
1, 914160, Note_on_c, 1, 32, 40
1, 914280, Note_off_c, 1, 32, 0
1, 914280, Note_on_c, 1, 36, 40
1, 914520, Note_off_c, 1, 36, 0
1, 914520, Note_on_c, 1, 36, 40
1, 916200, Note_off_c, 1, 36, 0
1, 916560, Note_on_c, 1, 31, 40
1, 916800, Note_off_c, 1, 31, 0
1, 917160, Note_on_c, 1, 31, 40
1, 917400, Note_off_c, 1, 31, 0
1, 917520, Note_on_c, 1, 31, 40
1, 918360, Note_off_c, 1, 31, 0
1, 918360, Note_on_c, 1, 31, 40
1, 918480, Note_off_c, 1, 31, 0
1, 920520, Note_on_c, 1, 28, 40
1, 920880, Note_off_c, 1, 28, 0
1, 920880, Note_on_c, 1, 52, 40
1, 921840, Note_off_c, 1, 52, 0
1, 922200, Note_on_c, 1, 36, 40
1, 922440, Note_off_c, 1, 36, 0
1, 922800, Note_on_c, 1, 45, 40
1, 922920, Note_off_c, 1, 45, 0
1, 923160, Note_on_c, 1, 35, 40
1, 923280, Note_off_c, 1, 35, 0
1, 923280, Note_on_c, 1, 40, 40
1, 924120, Note_off_c, 1, 40, 0
1, 924600, Note_on_c, 1, 39, 40
1, 924840, Note_off_c, 1, 39, 0
1, 924960, Note_on_c, 1, 32, 40
1, 925920, Note_off_c, 1, 32, 0
1, 925920, Note_on_c, 1, 35, 40
1, 926640, Note_off_c, 1, 35, 0
1, 926640, Note_on_c, 1, 34, 40
1, 927120, Note_off_c, 1, 34, 0
1, 927120, Note_on_c, 1, 32, 40
1, 927720, Note_off_c, 1, 32, 0
1, 927720, Note_on_c, 1, 28, 40
1, 927840, Note_off_c, 1, 28, 0
1, 929160, Note_on_c, 1, 34, 40
1, 929400, Note_off_c, 1, 34, 0
1, 931320, Note_on_c, 1, 39, 40
1, 931560, Note_off_c, 1, 39, 0
1, 932160, Note_on_c, 1, 36, 40
1, 932400, Note_off_c, 1, 36, 0
1, 932520, Note_on_c, 1, 36, 40
1, 932760, Note_off_c, 1, 36, 0
1, 932880, Note_on_c, 1, 32, 40
1, 933840, Note_off_c, 1, 32, 0
1, 933840, Note_on_c, 1, 39, 40
1, 933960, Note_off_c, 1, 39, 0
1, 935400, Note_on_c, 1, 40, 40
1, 935760, Note_off_c, 1, 40, 0
1, 936120, Note_on_c, 1, 36, 40
1, 936360, Note_off_c, 1, 36, 0
1, 936480, Note_on_c, 1, 32, 40
1, 937440, Note_off_c, 1, 32, 0
1, 937440, Note_on_c, 1, 47, 40
1, 937560, Note_off_c, 1, 47, 0
1, 937680, Note_on_c, 1, 45, 40
1, 937800, Note_off_c, 1, 45, 0
1, 938160, Note_on_c, 1, 31, 40
1, 938640, Note_off_c, 1, 31, 0
1, 938760, Note_on_c, 1, 39, 40
1, 940680, Note_off_c, 1, 39, 0
1, 940920, Note_on_c, 1, 31, 40
1, 941040, Note_off_c, 1, 31, 0
1, 941160, Note_on_c, 1, 31, 40
1, 942000, Note_off_c, 1, 31, 0
1, 942120, Note_on_c, 1, 39, 40
1, 944040, Note_off_c, 1, 39, 0
1, 944160, Note_on_c, 1, 36, 40
1, 945840, Note_off_c, 1, 36, 0
1, 946200, Note_on_c, 1, 31, 40
1, 946440, Note_off_c, 1, 31, 0
1, 946560, Note_on_c, 1, 36, 40
1, 946800, Note_off_c, 1, 36, 0
1, 946920, Note_on_c, 1, 39, 40
1, 947040, Note_off_c, 1, 39, 0
1, 948360, Note_on_c, 1, 31, 40
1, 948600, Note_off_c, 1, 31, 0
1, 949200, Note_on_c, 1, 39, 40
1, 951120, Note_off_c, 1, 39, 0
1, 951480, Note_on_c, 1, 36, 40
1, 951720, Note_off_c, 1, 36, 0
1, 951840, Note_on_c, 1, 32, 40
1, 952800, Note_off_c, 1, 32, 0
1, 955320, Note_on_c, 1, 39, 40
1, 955560, Note_off_c, 1, 39, 0
1, 955680, Note_on_c, 1, 32, 40
1, 956640, Note_off_c, 1, 32, 0
1, 956640, Note_on_c, 1, 35, 40
1, 957360, Note_off_c, 1, 35, 0
1, 957360, Note_on_c, 1, 34, 40
1, 957840, Note_off_c, 1, 34, 0
1, 957840, Note_on_c, 1, 32, 40
1, 958440, Note_off_c, 1, 32, 0
1, 958440, Note_on_c, 1, 28, 40
1, 958560, Note_off_c, 1, 28, 0
1, 960720, Note_on_c, 1, 39, 40
1, 960960, Note_off_c, 1, 39, 0
1, 961440, Note_on_c, 1, 31, 40
1, 961680, Note_off_c, 1, 31, 0
1, 961800, Note_on_c, 1, 36, 40
1, 962040, Note_off_c, 1, 36, 0
1, 962160, Note_on_c, 1, 39, 40
1, 962400, Note_off_c, 1, 39, 0
1, 963720, Note_on_c, 1, 31, 40
1, 963960, Note_off_c, 1, 31, 0
1, 964560, Note_on_c, 1, 39, 40
1, 966480, Note_off_c, 1, 39, 0
1, 966840, Note_on_c, 1, 36, 40
1, 967080, Note_off_c, 1, 36, 0
1, 967200, Note_on_c, 1, 32, 40
1, 968160, Note_off_c, 1, 32, 0
1, 970680, Note_on_c, 1, 39, 40
1, 970920, Note_off_c, 1, 39, 0
1, 971040, Note_on_c, 1, 32, 40
1, 972000, Note_off_c, 1, 32, 0
1, 972000, Note_on_c, 1, 35, 40
1, 972720, Note_off_c, 1, 35, 0
1, 972720, Note_on_c, 1, 34, 40
1, 973200, Note_off_c, 1, 34, 0
1, 973200, Note_on_c, 1, 32, 40
1, 973800, Note_off_c, 1, 32, 0
1, 973800, Note_on_c, 1, 28, 40
1, 973920, Note_off_c, 1, 28, 0
1, 976080, Note_on_c, 1, 39, 40
1, 976320, Note_off_c, 1, 39, 0
1, 976800, Note_on_c, 1, 31, 40
1, 977040, Note_off_c, 1, 31, 0
1, 977160, Note_on_c, 1, 36, 40
1, 977400, Note_off_c, 1, 36, 0
1, 977520, Note_on_c, 1, 39, 40
1, 977760, Note_off_c, 1, 39, 0
1, 979080, Note_on_c, 1, 31, 40
1, 979320, Note_off_c, 1, 31, 0
1, 979920, Note_on_c, 1, 39, 40
1, 981840, Note_off_c, 1, 39, 0
1, 982200, Note_on_c, 1, 36, 40
1, 982440, Note_off_c, 1, 36, 0
1, 982560, Note_on_c, 1, 32, 40
1, 983520, Note_off_c, 1, 32, 0
1, 986040, Note_on_c, 1, 39, 40
1, 986280, Note_off_c, 1, 39, 0
1, 986400, Note_on_c, 1, 32, 40
1, 987360, Note_off_c, 1, 32, 0
1, 987360, Note_on_c, 1, 39, 40
1, 987600, Note_off_c, 1, 39, 0
1, 1028880, Note_on_c, 1, 36, 40
1, 1030800, Note_off_c, 1, 36, 0
1, 1030800, Note_on_c, 1, 39, 40
1, 1032720, Note_off_c, 1, 39, 0
1, 1032840, Note_on_c, 1, 40, 40
1, 1033200, Note_off_c, 1, 40, 0
1, 1033200, Note_on_c, 1, 34, 40
1, 1035120, Note_off_c, 1, 34, 0
1, 1035120, Note_on_c, 1, 24, 40
1, 1036560, Note_off_c, 1, 24, 0
1, 1036560, Note_on_c, 1, 39, 40
1, 1036800, Note_off_c, 1, 39, 0
1, 1036800, Note_on_c, 1, 29, 40
1, 1037280, Note_off_c, 1, 29, 0
1, 1037280, Note_on_c, 1, 34, 40
1, 1037520, Note_off_c, 1, 34, 0
1, 1037520, Note_on_c, 1, 29, 40
1, 1038000, Note_off_c, 1, 29, 0
1, 1038000, Note_on_c, 1, 45, 40
1, 1038240, Note_off_c, 1, 45, 0
1, 1038240, Note_on_c, 1, 29, 40
1, 1038360, Note_off_c, 1, 29, 0
1, 1038600, Note_on_c, 1, 29, 40
1, 1038720, Note_off_c, 1, 29, 0
1, 1038720, Note_on_c, 1, 29, 40
1, 1039320, Note_off_c, 1, 29, 0
1, 1039320, Note_on_c, 1, 31, 40
1, 1039560, Note_off_c, 1, 31, 0
1, 1039680, Note_on_c, 1, 29, 40
1, 1040160, Note_off_c, 1, 29, 0
1, 1040160, Note_on_c, 1, 34, 40
1, 1040400, Note_off_c, 1, 34, 0
1, 1040400, Note_on_c, 1, 27, 40
1, 1040520, Note_off_c, 1, 27, 0
1, 1040520, Note_on_c, 1, 40, 40
1, 1041360, Note_off_c, 1, 40, 0
1, 1041360, Note_on_c, 1, 39, 40
1, 1041600, Note_off_c, 1, 39, 0
1, 1042080, Note_on_c, 1, 39, 40
1, 1042320, Note_off_c, 1, 39, 0
1, 1042800, Note_on_c, 1, 39, 40
1, 1043040, Note_off_c, 1, 39, 0
1, 1043520, Note_on_c, 1, 39, 40
1, 1043760, Note_off_c, 1, 39, 0
1, 1045800, Note_on_c, 1, 38, 40
1, 1046040, Note_off_c, 1, 38, 0
1, 1048200, Note_on_c, 1, 38, 40
1, 1048440, Note_off_c, 1, 38, 0
1, 1050600, Note_on_c, 1, 38, 40
1, 1050840, Note_off_c, 1, 38, 0
1, 1053000, Note_on_c, 1, 39, 40
1, 1053240, Note_off_c, 1, 39, 0
1, 1053600, Note_on_c, 1, 29, 40
1, 1054080, Note_off_c, 1, 29, 0
1, 1054080, Note_on_c, 1, 34, 40
1, 1054320, Note_off_c, 1, 34, 0
1, 1054440, Note_on_c, 1, 29, 40
1, 1054560, Note_off_c, 1, 29, 0
1, 1054560, Note_on_c, 1, 29, 40
1, 1055160, Note_off_c, 1, 29, 0
1, 1055160, Note_on_c, 1, 31, 40
1, 1055400, Note_off_c, 1, 31, 0
1, 1055520, Note_on_c, 1, 29, 40
1, 1056000, Note_off_c, 1, 29, 0
1, 1056000, Note_on_c, 1, 27, 40
1, 1056240, Note_off_c, 1, 27, 0
1, 1056360, Note_on_c, 1, 27, 40
1, 1058280, Note_off_c, 1, 27, 0
1, 1058400, Note_on_c, 1, 27, 40
1, 1059000, Note_off_c, 1, 27, 0
1, 1061160, Note_on_c, 1, 38, 40
1, 1061400, Note_off_c, 1, 38, 0
1, 1063560, Note_on_c, 1, 38, 40
1, 1063800, Note_off_c, 1, 38, 0
1, 1065960, Note_on_c, 1, 38, 40
1, 1066200, Note_off_c, 1, 38, 0
1, 1068360, Note_on_c, 1, 39, 40
1, 1068600, Note_off_c, 1, 39, 0
1, 1068960, Note_on_c, 1, 29, 40
1, 1069440, Note_off_c, 1, 29, 0
1, 1069440, Note_on_c, 1, 34, 40
1, 1069680, Note_off_c, 1, 34, 0
1, 1069800, Note_on_c, 1, 29, 40
1, 1069920, Note_off_c, 1, 29, 0
1, 1069920, Note_on_c, 1, 29, 40
1, 1070520, Note_off_c, 1, 29, 0
1, 1070520, Note_on_c, 1, 31, 40
1, 1070760, Note_off_c, 1, 31, 0
1, 1070880, Note_on_c, 1, 29, 40
1, 1071360, Note_off_c, 1, 29, 0
1, 1071360, Note_on_c, 1, 34, 40
1, 1071600, Note_off_c, 1, 34, 0
1, 1071720, Note_on_c, 1, 29, 40
1, 1071840, Note_off_c, 1, 29, 0
1, 1071840, Note_on_c, 1, 29, 40
1, 1072440, Note_off_c, 1, 29, 0
1, 1072440, Note_on_c, 1, 31, 40
1, 1072680, Note_off_c, 1, 31, 0
1, 1072800, Note_on_c, 1, 29, 40
1, 1073280, Note_off_c, 1, 29, 0
1, 1073280, Note_on_c, 1, 34, 40
1, 1073520, Note_off_c, 1, 34, 0
1, 1073640, Note_on_c, 1, 29, 40
1, 1073760, Note_off_c, 1, 29, 0
1, 1073760, Note_on_c, 1, 29, 40
1, 1074360, Note_off_c, 1, 29, 0
1, 1074360, Note_on_c, 1, 31, 40
1, 1074600, Note_off_c, 1, 31, 0
1, 1074720, Note_on_c, 1, 29, 40
1, 1075200, Note_off_c, 1, 29, 0
1, 1075200, Note_on_c, 1, 34, 40
1, 1075440, Note_off_c, 1, 34, 0
1, 1075560, Note_on_c, 1, 29, 40
1, 1075680, Note_off_c, 1, 29, 0
1, 1075680, Note_on_c, 1, 29, 40
1, 1076280, Note_off_c, 1, 29, 0
1, 1076280, Note_on_c, 1, 31, 40
1, 1076520, Note_off_c, 1, 31, 0
1, 1076640, Note_on_c, 1, 29, 40
1, 1077120, Note_off_c, 1, 29, 0
1, 1077120, Note_on_c, 1, 34, 40
1, 1077360, Note_off_c, 1, 34, 0
1, 1077480, Note_on_c, 1, 29, 40
1, 1077600, Note_off_c, 1, 29, 0
1, 1077600, Note_on_c, 1, 29, 40
1, 1078200, Note_off_c, 1, 29, 0
1, 1078200, Note_on_c, 1, 31, 40
1, 1078440, Note_off_c, 1, 31, 0
1, 1078560, Note_on_c, 1, 29, 40
1, 1079040, Note_off_c, 1, 29, 0
1, 1079040, Note_on_c, 1, 34, 40
1, 1079280, Note_off_c, 1, 34, 0
1, 1079400, Note_on_c, 1, 29, 40
1, 1079520, Note_off_c, 1, 29, 0
1, 1079520, Note_on_c, 1, 29, 40
1, 1080120, Note_off_c, 1, 29, 0
1, 1080120, Note_on_c, 1, 31, 40
1, 1080360, Note_off_c, 1, 31, 0
1, 1080480, Note_on_c, 1, 29, 40
1, 1080960, Note_off_c, 1, 29, 0
1, 1080960, Note_on_c, 1, 34, 40
1, 1081200, Note_off_c, 1, 34, 0
1, 1081320, Note_on_c, 1, 29, 40
1, 1081440, Note_off_c, 1, 29, 0
1, 1081440, Note_on_c, 1, 29, 40
1, 1082040, Note_off_c, 1, 29, 0
1, 1082040, Note_on_c, 1, 31, 40
1, 1082280, Note_off_c, 1, 31, 0
1, 1082400, Note_on_c, 1, 29, 40
1, 1082880, Note_off_c, 1, 29, 0
1, 1082880, Note_on_c, 1, 27, 40
1, 1083120, Note_off_c, 1, 27, 0
1, 1083240, Note_on_c, 1, 27, 40
1, 1085160, Note_off_c, 1, 27, 0
1, 1085280, Note_on_c, 1, 27, 40
1, 1085880, Note_off_c, 1, 27, 0
1, 1088040, Note_on_c, 1, 38, 40
1, 1088280, Note_off_c, 1, 38, 0
1, 1088400, Note_on_c, 1, 29, 40
1, 1088880, Note_off_c, 1, 29, 0
1, 1088880, Note_on_c, 1, 45, 40
1, 1089120, Note_off_c, 1, 45, 0
1, 1089120, Note_on_c, 1, 29, 40
1, 1089240, Note_off_c, 1, 29, 0
1, 1089480, Note_on_c, 1, 29, 40
1, 1089600, Note_off_c, 1, 29, 0
1, 1089600, Note_on_c, 1, 29, 40
1, 1090200, Note_off_c, 1, 29, 0
1, 1090200, Note_on_c, 1, 31, 40
1, 1090440, Note_off_c, 1, 31, 0
1, 1090560, Note_on_c, 1, 27, 40
1, 1091160, Note_off_c, 1, 27, 0
1, 1091280, Note_on_c, 1, 22, 40
1, 1091880, Note_off_c, 1, 22, 0
1, 1091880, Note_on_c, 1, 36, 40
1, 1092120, Note_off_c, 1, 36, 0
1, 1092240, Note_on_c, 1, 27, 40
1, 1092840, Note_off_c, 1, 27, 0
1, 1092960, Note_on_c, 1, 27, 40
1, 1093560, Note_off_c, 1, 27, 0
1, 1097760, Note_on_c, 1, 34, 40
1, 1098240, Note_off_c, 1, 34, 0
1, 1098240, Note_on_c, 1, 34, 40
1, 1098360, Note_off_c, 1, 34, 0
1, 1098360, Note_on_c, 1, 51, 40
1, 1100280, Note_off_c, 1, 51, 0
1, 1102440, Note_on_c, 1, 38, 40
1, 1102680, Note_off_c, 1, 38, 0
1, 1102800, Note_on_c, 1, 29, 40
1, 1103280, Note_off_c, 1, 29, 0
1, 1103280, Note_on_c, 1, 45, 40
1, 1103520, Note_off_c, 1, 45, 0
1, 1103520, Note_on_c, 1, 29, 40
1, 1103640, Note_off_c, 1, 29, 0
1, 1103880, Note_on_c, 1, 29, 40
1, 1104000, Note_off_c, 1, 29, 0
1, 1104000, Note_on_c, 1, 27, 40
1, 1104600, Note_off_c, 1, 27, 0
1, 1104720, Note_on_c, 1, 27, 40
1, 1105320, Note_off_c, 1, 27, 0
1, 1105440, Note_on_c, 1, 27, 40
1, 1106040, Note_off_c, 1, 27, 0
1, 1106400, Note_on_c, 1, 29, 40
1, 1106880, Note_off_c, 1, 29, 0
1, 1106880, Note_on_c, 1, 34, 40
1, 1107120, Note_off_c, 1, 34, 0
1, 1107240, Note_on_c, 1, 29, 40
1, 1107360, Note_off_c, 1, 29, 0
1, 1107360, Note_on_c, 1, 29, 40
1, 1107960, Note_off_c, 1, 29, 0
1, 1107960, Note_on_c, 1, 31, 40
1, 1108200, Note_off_c, 1, 31, 0
1, 1110360, Note_on_c, 1, 38, 40
1, 1110600, Note_off_c, 1, 38, 0
1, 1110720, Note_on_c, 1, 27, 40
1, 1111320, Note_off_c, 1, 27, 0
1, 1113480, Note_on_c, 1, 39, 40
1, 1113600, Note_off_c, 1, 39, 0
1, 1113600, Note_on_c, 1, 29, 40
1, 1114080, Note_off_c, 1, 29, 0
1, 1114080, Note_on_c, 1, 34, 40
1, 1114320, Note_off_c, 1, 34, 0
1, 1114320, Note_on_c, 1, 29, 40
1, 1114800, Note_off_c, 1, 29, 0
1, 1114800, Note_on_c, 1, 45, 40
1, 1115040, Note_off_c, 1, 45, 0
1, 1115040, Note_on_c, 1, 29, 40
1, 1115160, Note_off_c, 1, 29, 0
1, 1115400, Note_on_c, 1, 29, 40
1, 1115520, Note_off_c, 1, 29, 0
1, 1115520, Note_on_c, 1, 29, 40
1, 1116120, Note_off_c, 1, 29, 0
1, 1116120, Note_on_c, 1, 31, 40
1, 1116360, Note_off_c, 1, 31, 0
1, 1116480, Note_on_c, 1, 29, 40
1, 1116960, Note_off_c, 1, 29, 0
1, 1116960, Note_on_c, 1, 34, 40
1, 1117200, Note_off_c, 1, 34, 0
1, 1117200, Note_on_c, 1, 27, 40
1, 1117320, Note_off_c, 1, 27, 0
1, 1117320, Note_on_c, 1, 40, 40
1, 1118160, Note_off_c, 1, 40, 0
1, 1118160, Note_on_c, 1, 39, 40
1, 1118400, Note_off_c, 1, 39, 0
1, 1118880, Note_on_c, 1, 39, 40
1, 1119120, Note_off_c, 1, 39, 0
1, 1119600, Note_on_c, 1, 39, 40
1, 1119840, Note_off_c, 1, 39, 0
1, 1120320, Note_on_c, 1, 39, 40
1, 1120560, Note_off_c, 1, 39, 0
1, 1122600, Note_on_c, 1, 38, 40
1, 1122840, Note_off_c, 1, 38, 0
1, 1125000, Note_on_c, 1, 38, 40
1, 1125240, Note_off_c, 1, 38, 0
1, 1127400, Note_on_c, 1, 38, 40
1, 1127640, Note_off_c, 1, 38, 0
1, 1129800, Note_on_c, 1, 39, 40
1, 1130040, Note_off_c, 1, 39, 0
1, 1130400, Note_on_c, 1, 29, 40
1, 1130880, Note_off_c, 1, 29, 0
1, 1130880, Note_on_c, 1, 34, 40
1, 1131120, Note_off_c, 1, 34, 0
1, 1131240, Note_on_c, 1, 29, 40
1, 1131360, Note_off_c, 1, 29, 0
1, 1131360, Note_on_c, 1, 29, 40
1, 1131960, Note_off_c, 1, 29, 0
1, 1131960, Note_on_c, 1, 31, 40
1, 1132200, Note_off_c, 1, 31, 0
1, 1132320, Note_on_c, 1, 29, 40
1, 1132800, Note_off_c, 1, 29, 0
1, 1132800, Note_on_c, 1, 34, 40
1, 1133040, Note_off_c, 1, 34, 0
1, 1133160, Note_on_c, 1, 29, 40
1, 1133280, Note_off_c, 1, 29, 0
1, 1133280, Note_on_c, 1, 29, 40
1, 1133880, Note_off_c, 1, 29, 0
1, 1133880, Note_on_c, 1, 31, 40
1, 1134120, Note_off_c, 1, 31, 0
1, 1134240, Note_on_c, 1, 29, 40
1, 1134720, Note_off_c, 1, 29, 0
1, 1134720, Note_on_c, 1, 34, 40
1, 1134960, Note_off_c, 1, 34, 0
1, 1135080, Note_on_c, 1, 29, 40
1, 1135200, Note_off_c, 1, 29, 0
1, 1135200, Note_on_c, 1, 29, 40
1, 1135800, Note_off_c, 1, 29, 0
1, 1135800, Note_on_c, 1, 31, 40
1, 1136040, Note_off_c, 1, 31, 0
1, 1136160, Note_on_c, 1, 29, 40
1, 1136640, Note_off_c, 1, 29, 0
1, 1136640, Note_on_c, 1, 34, 40
1, 1136880, Note_off_c, 1, 34, 0
1, 1137000, Note_on_c, 1, 29, 40
1, 1137120, Note_off_c, 1, 29, 0
1, 1137120, Note_on_c, 1, 29, 40
1, 1137720, Note_off_c, 1, 29, 0
1, 1137720, Note_on_c, 1, 31, 40
1, 1137960, Note_off_c, 1, 31, 0
1, 1138080, Note_on_c, 1, 29, 40
1, 1138560, Note_off_c, 1, 29, 0
1, 1138560, Note_on_c, 1, 34, 40
1, 1138800, Note_off_c, 1, 34, 0
1, 1138920, Note_on_c, 1, 29, 40
1, 1139040, Note_off_c, 1, 29, 0
1, 1139040, Note_on_c, 1, 29, 40
1, 1139640, Note_off_c, 1, 29, 0
1, 1139640, Note_on_c, 1, 31, 40
1, 1139880, Note_off_c, 1, 31, 0
1, 1140000, Note_on_c, 1, 29, 40
1, 1140480, Note_off_c, 1, 29, 0
1, 1140480, Note_on_c, 1, 34, 40
1, 1140720, Note_off_c, 1, 34, 0
1, 1140840, Note_on_c, 1, 29, 40
1, 1140960, Note_off_c, 1, 29, 0
1, 1140960, Note_on_c, 1, 29, 40
1, 1141560, Note_off_c, 1, 29, 0
1, 1141560, Note_on_c, 1, 31, 40
1, 1141800, Note_off_c, 1, 31, 0
1, 1141920, Note_on_c, 1, 29, 40
1, 1142400, Note_off_c, 1, 29, 0
1, 1142400, Note_on_c, 1, 34, 40
1, 1142640, Note_off_c, 1, 34, 0
1, 1142760, Note_on_c, 1, 29, 40
1, 1142880, Note_off_c, 1, 29, 0
1, 1142880, Note_on_c, 1, 29, 40
1, 1143480, Note_off_c, 1, 29, 0
1, 1143480, Note_on_c, 1, 31, 40
1, 1143720, Note_off_c, 1, 31, 0
1, 1143840, Note_on_c, 1, 29, 40
1, 1144320, Note_off_c, 1, 29, 0
1, 1144320, Note_on_c, 1, 27, 40
1, 1144560, Note_off_c, 1, 27, 0
1, 1144680, Note_on_c, 1, 27, 40
1, 1146600, Note_off_c, 1, 27, 0
1, 1146720, Note_on_c, 1, 27, 40
1, 1147320, Note_off_c, 1, 27, 0
1, 1149480, Note_on_c, 1, 38, 40
1, 1149720, Note_off_c, 1, 38, 0
1, 1149840, Note_on_c, 1, 29, 40
1, 1150320, Note_off_c, 1, 29, 0
1, 1150320, Note_on_c, 1, 45, 40
1, 1150560, Note_off_c, 1, 45, 0
1, 1150560, Note_on_c, 1, 29, 40
1, 1150680, Note_off_c, 1, 29, 0
1, 1150920, Note_on_c, 1, 29, 40
1, 1151040, Note_off_c, 1, 29, 0
1, 1151040, Note_on_c, 1, 29, 40
1, 1151640, Note_off_c, 1, 29, 0
1, 1151640, Note_on_c, 1, 31, 40
1, 1151880, Note_off_c, 1, 31, 0
1, 1152000, Note_on_c, 1, 27, 40
1, 1152600, Note_off_c, 1, 27, 0
1, 1152720, Note_on_c, 1, 22, 40
1, 1153320, Note_off_c, 1, 22, 0
1, 1153320, Note_on_c, 1, 36, 40
1, 1153560, Note_off_c, 1, 36, 0
1, 1153680, Note_on_c, 1, 27, 40
1, 1154280, Note_off_c, 1, 27, 0
1, 1154400, Note_on_c, 1, 27, 40
1, 1155000, Note_off_c, 1, 27, 0
1, 1159200, Note_on_c, 1, 34, 40
1, 1159680, Note_off_c, 1, 34, 0
1, 1159680, Note_on_c, 1, 34, 40
1, 1159800, Note_off_c, 1, 34, 0
1, 1159800, Note_on_c, 1, 51, 40
1, 1161720, Note_off_c, 1, 51, 0
1, 1163880, Note_on_c, 1, 38, 40
1, 1164120, Note_off_c, 1, 38, 0
1, 1164240, Note_on_c, 1, 29, 40
1, 1164720, Note_off_c, 1, 29, 0
1, 1164720, Note_on_c, 1, 45, 40
1, 1164960, Note_off_c, 1, 45, 0
1, 1164960, Note_on_c, 1, 29, 40
1, 1165080, Note_off_c, 1, 29, 0
1, 1165320, Note_on_c, 1, 29, 40
1, 1165440, Note_off_c, 1, 29, 0
1, 1165440, Note_on_c, 1, 27, 40
1, 1166040, Note_off_c, 1, 27, 0
1, 1166160, Note_on_c, 1, 27, 40
1, 1166760, Note_off_c, 1, 27, 0
1, 1166880, Note_on_c, 1, 27, 40
1, 1167480, Note_off_c, 1, 27, 0
1, 1167840, Note_on_c, 1, 29, 40
1, 1168320, Note_off_c, 1, 29, 0
1, 1168320, Note_on_c, 1, 34, 40
1, 1168560, Note_off_c, 1, 34, 0
1, 1168680, Note_on_c, 1, 29, 40
1, 1168800, Note_off_c, 1, 29, 0
1, 1168800, Note_on_c, 1, 29, 40
1, 1169400, Note_off_c, 1, 29, 0
1, 1169400, Note_on_c, 1, 31, 40
1, 1169640, Note_off_c, 1, 31, 0
1, 1171800, Note_on_c, 1, 38, 40
1, 1172040, Note_off_c, 1, 38, 0
1, 1172160, Note_on_c, 1, 27, 40
1, 1172760, Note_off_c, 1, 27, 0
1, 1174920, Note_on_c, 1, 39, 40
1, 1175040, Note_off_c, 1, 39, 0
1, 1175040, Note_on_c, 1, 29, 40
1, 1175520, Note_off_c, 1, 29, 0
1, 1175520, Note_on_c, 1, 34, 40
1, 1175760, Note_off_c, 1, 34, 0
1, 1175760, Note_on_c, 1, 29, 40
1, 1176240, Note_off_c, 1, 29, 0
1, 1176240, Note_on_c, 1, 45, 40
1, 1176480, Note_off_c, 1, 45, 0
1, 1176480, Note_on_c, 1, 29, 40
1, 1176600, Note_off_c, 1, 29, 0
1, 1176840, Note_on_c, 1, 29, 40
1, 1176960, Note_off_c, 1, 29, 0
1, 1176960, Note_on_c, 1, 29, 40
1, 1177560, Note_off_c, 1, 29, 0
1, 1177560, Note_on_c, 1, 31, 40
1, 1177800, Note_off_c, 1, 31, 0
1, 1177920, Note_on_c, 1, 29, 40
1, 1178400, Note_off_c, 1, 29, 0
1, 1178400, Note_on_c, 1, 34, 40
1, 1178640, Note_off_c, 1, 34, 0
1, 1178640, Note_on_c, 1, 27, 40
1, 1178760, Note_off_c, 1, 27, 0
1, 1178760, Note_on_c, 1, 40, 40
1, 1179600, Note_off_c, 1, 40, 0
1, 1179600, Note_on_c, 1, 39, 40
1, 1179840, Note_off_c, 1, 39, 0
1, 1180320, Note_on_c, 1, 39, 40
1, 1180560, Note_off_c, 1, 39, 0
1, 1181040, Note_on_c, 1, 39, 40
1, 1181280, Note_off_c, 1, 39, 0
1, 1181760, Note_on_c, 1, 39, 40
1, 1182000, Note_off_c, 1, 39, 0
1, 1184040, Note_on_c, 1, 38, 40
1, 1184280, Note_off_c, 1, 38, 0
1, 1186440, Note_on_c, 1, 38, 40
1, 1186680, Note_off_c, 1, 38, 0
1, 1188840, Note_on_c, 1, 38, 40
1, 1189080, Note_off_c, 1, 38, 0
1, 1191240, Note_on_c, 1, 39, 40
1, 1191480, Note_off_c, 1, 39, 0
1, 1191840, Note_on_c, 1, 29, 40
1, 1192320, Note_off_c, 1, 29, 0
1, 1192320, Note_on_c, 1, 34, 40
1, 1192560, Note_off_c, 1, 34, 0
1, 1192680, Note_on_c, 1, 29, 40
1, 1192800, Note_off_c, 1, 29, 0
1, 1192800, Note_on_c, 1, 29, 40
1, 1193400, Note_off_c, 1, 29, 0
1, 1193400, Note_on_c, 1, 31, 40
1, 1193640, Note_off_c, 1, 31, 0
1, 1193760, Note_on_c, 1, 29, 40
1, 1194240, Note_off_c, 1, 29, 0
1, 1194240, Note_on_c, 1, 27, 40
1, 1194480, Note_off_c, 1, 27, 0
1, 1194600, Note_on_c, 1, 27, 40
1, 1196520, Note_off_c, 1, 27, 0
1, 1196640, Note_on_c, 1, 27, 40
1, 1197240, Note_off_c, 1, 27, 0
1, 1199400, Note_on_c, 1, 38, 40
1, 1199640, Note_off_c, 1, 38, 0
1, 1201800, Note_on_c, 1, 38, 40
1, 1202040, Note_off_c, 1, 38, 0
1, 1204200, Note_on_c, 1, 38, 40
1, 1204440, Note_off_c, 1, 38, 0
1, 1206600, Note_on_c, 1, 39, 40
1, 1206840, Note_off_c, 1, 39, 0
1, 1207200, Note_on_c, 1, 29, 40
1, 1207680, Note_off_c, 1, 29, 0
1, 1207680, Note_on_c, 1, 34, 40
1, 1207920, Note_off_c, 1, 34, 0
1, 1208040, Note_on_c, 1, 29, 40
1, 1208160, Note_off_c, 1, 29, 0
1, 1208160, Note_on_c, 1, 29, 40
1, 1208760, Note_off_c, 1, 29, 0
1, 1208760, Note_on_c, 1, 31, 40
1, 1209000, Note_off_c, 1, 31, 0
1, 1209120, Note_on_c, 1, 29, 40
1, 1209600, Note_off_c, 1, 29, 0
1, 1209600, Note_on_c, 1, 34, 40
1, 1209840, Note_off_c, 1, 34, 0
1, 1209960, Note_on_c, 1, 29, 40
1, 1210080, Note_off_c, 1, 29, 0
1, 1210080, Note_on_c, 1, 29, 40
1, 1210680, Note_off_c, 1, 29, 0
1, 1210680, Note_on_c, 1, 31, 40
1, 1210920, Note_off_c, 1, 31, 0
1, 1211040, Note_on_c, 1, 29, 40
1, 1211520, Note_off_c, 1, 29, 0
1, 1211520, Note_on_c, 1, 34, 40
1, 1211760, Note_off_c, 1, 34, 0
1, 1211880, Note_on_c, 1, 29, 40
1, 1212000, Note_off_c, 1, 29, 0
1, 1212000, Note_on_c, 1, 29, 40
1, 1212600, Note_off_c, 1, 29, 0
1, 1212600, Note_on_c, 1, 31, 40
1, 1212840, Note_off_c, 1, 31, 0
1, 1212960, Note_on_c, 1, 29, 40
1, 1213440, Note_off_c, 1, 29, 0
1, 1213440, Note_on_c, 1, 34, 40
1, 1213680, Note_off_c, 1, 34, 0
1, 1213800, Note_on_c, 1, 29, 40
1, 1213920, Note_off_c, 1, 29, 0
1, 1213920, Note_on_c, 1, 29, 40
1, 1214520, Note_off_c, 1, 29, 0
1, 1214520, Note_on_c, 1, 31, 40
1, 1214760, Note_off_c, 1, 31, 0
1, 1214880, Note_on_c, 1, 29, 40
1, 1215360, Note_off_c, 1, 29, 0
1, 1215360, Note_on_c, 1, 34, 40
1, 1215600, Note_off_c, 1, 34, 0
1, 1215720, Note_on_c, 1, 29, 40
1, 1215840, Note_off_c, 1, 29, 0
1, 1215840, Note_on_c, 1, 29, 40
1, 1216440, Note_off_c, 1, 29, 0
1, 1216440, Note_on_c, 1, 31, 40
1, 1216680, Note_off_c, 1, 31, 0
1, 1216800, Note_on_c, 1, 29, 40
1, 1217280, Note_off_c, 1, 29, 0
1, 1217280, Note_on_c, 1, 34, 40
1, 1217520, Note_off_c, 1, 34, 0
1, 1217640, Note_on_c, 1, 29, 40
1, 1217760, Note_off_c, 1, 29, 0
1, 1217760, Note_on_c, 1, 29, 40
1, 1218360, Note_off_c, 1, 29, 0
1, 1218360, Note_on_c, 1, 31, 40
1, 1218600, Note_off_c, 1, 31, 0
1, 1218720, Note_on_c, 1, 29, 40
1, 1219200, Note_off_c, 1, 29, 0
1, 1219200, Note_on_c, 1, 34, 40
1, 1219440, Note_off_c, 1, 34, 0
1, 1219560, Note_on_c, 1, 29, 40
1, 1219680, Note_off_c, 1, 29, 0
1, 1219680, Note_on_c, 1, 29, 40
1, 1220280, Note_off_c, 1, 29, 0
1, 1220280, Note_on_c, 1, 31, 40
1, 1220520, Note_off_c, 1, 31, 0
1, 1220640, Note_on_c, 1, 29, 40
1, 1221120, Note_off_c, 1, 29, 0
1, 1221120, Note_on_c, 1, 27, 40
1, 1221360, Note_off_c, 1, 27, 0
1, 1221480, Note_on_c, 1, 27, 40
1, 1223400, Note_off_c, 1, 27, 0
1, 1223520, Note_on_c, 1, 27, 40
1, 1224120, Note_off_c, 1, 27, 0
1, 1226280, Note_on_c, 1, 38, 40
1, 1226520, Note_off_c, 1, 38, 0
1, 1226640, Note_on_c, 1, 29, 40
1, 1227120, Note_off_c, 1, 29, 0
1, 1227120, Note_on_c, 1, 45, 40
1, 1227360, Note_off_c, 1, 45, 0
1, 1227360, Note_on_c, 1, 29, 40
1, 1227480, Note_off_c, 1, 29, 0
1, 1227720, Note_on_c, 1, 29, 40
1, 1227840, Note_off_c, 1, 29, 0
1, 1227840, Note_on_c, 1, 29, 40
1, 1228440, Note_off_c, 1, 29, 0
1, 1228440, Note_on_c, 1, 31, 40
1, 1228680, Note_off_c, 1, 31, 0
1, 1228800, Note_on_c, 1, 27, 40
1, 1229400, Note_off_c, 1, 27, 0
1, 1229520, Note_on_c, 1, 22, 40
1, 1230120, Note_off_c, 1, 22, 0
1, 1230120, Note_on_c, 1, 36, 40
1, 1230360, Note_off_c, 1, 36, 0
1, 1230480, Note_on_c, 1, 27, 40
1, 1231080, Note_off_c, 1, 27, 0
1, 1231200, Note_on_c, 1, 27, 40
1, 1231800, Note_off_c, 1, 27, 0
1, 1236000, Note_on_c, 1, 34, 40
1, 1236480, Note_off_c, 1, 34, 0
1, 1236480, Note_on_c, 1, 34, 40
1, 1236600, Note_off_c, 1, 34, 0
1, 1236600, Note_on_c, 1, 51, 40
1, 1238520, Note_off_c, 1, 51, 0
1, 1240680, Note_on_c, 1, 38, 40
1, 1240920, Note_off_c, 1, 38, 0
1, 1241040, Note_on_c, 1, 29, 40
1, 1241520, Note_off_c, 1, 29, 0
1, 1241520, Note_on_c, 1, 45, 40
1, 1241760, Note_off_c, 1, 45, 0
1, 1241760, Note_on_c, 1, 29, 40
1, 1241880, Note_off_c, 1, 29, 0
1, 1242120, Note_on_c, 1, 29, 40
1, 1242240, Note_off_c, 1, 29, 0
1, 1242240, Note_on_c, 1, 27, 40
1, 1242840, Note_off_c, 1, 27, 0
1, 1242960, Note_on_c, 1, 27, 40
1, 1243560, Note_off_c, 1, 27, 0
1, 1243680, Note_on_c, 1, 27, 40
1, 1244280, Note_off_c, 1, 27, 0
1, 1244640, Note_on_c, 1, 29, 40
1, 1245120, Note_off_c, 1, 29, 0
1, 1245120, Note_on_c, 1, 34, 40
1, 1245360, Note_off_c, 1, 34, 0
1, 1245480, Note_on_c, 1, 29, 40
1, 1245600, Note_off_c, 1, 29, 0
1, 1245600, Note_on_c, 1, 29, 40
1, 1246200, Note_off_c, 1, 29, 0
1, 1246200, Note_on_c, 1, 31, 40
1, 1246440, Note_off_c, 1, 31, 0
1, 1248600, Note_on_c, 1, 38, 40
1, 1248840, Note_off_c, 1, 38, 0
1, 1248960, Note_on_c, 1, 27, 40
1, 1249560, Note_off_c, 1, 27, 0
1, 1251720, Note_on_c, 1, 39, 40
1, 1251840, Note_off_c, 1, 39, 0
1, 1251840, Note_on_c, 1, 29, 40
1, 1252320, Note_off_c, 1, 29, 0
1, 1252320, Note_on_c, 1, 34, 40
1, 1252560, Note_off_c, 1, 34, 0
1, 1252560, Note_on_c, 1, 29, 40
1, 1253040, Note_off_c, 1, 29, 0
1, 1253040, Note_on_c, 1, 45, 40
1, 1253280, Note_off_c, 1, 45, 0
1, 1253280, Note_on_c, 1, 29, 40
1, 1253400, Note_off_c, 1, 29, 0
1, 1253640, Note_on_c, 1, 29, 40
1, 1253760, Note_off_c, 1, 29, 0
1, 1253760, Note_on_c, 1, 29, 40
1, 1254360, Note_off_c, 1, 29, 0
1, 1254360, Note_on_c, 1, 31, 40
1, 1254600, Note_off_c, 1, 31, 0
1, 1254720, Note_on_c, 1, 29, 40
1, 1255200, Note_off_c, 1, 29, 0
1, 1255200, Note_on_c, 1, 34, 40
1, 1255440, Note_off_c, 1, 34, 0
1, 1255440, Note_on_c, 1, 27, 40
1, 1255560, Note_off_c, 1, 27, 0
1, 1255560, Note_on_c, 1, 40, 40
1, 1256400, Note_off_c, 1, 40, 0
1, 1256400, Note_on_c, 1, 39, 40
1, 1256640, Note_off_c, 1, 39, 0
1, 1257120, Note_on_c, 1, 39, 40
1, 1257360, Note_off_c, 1, 39, 0
1, 1257840, Note_on_c, 1, 39, 40
1, 1258080, Note_off_c, 1, 39, 0
1, 1258560, Note_on_c, 1, 39, 40
1, 1258800, Note_off_c, 1, 39, 0
1, 1260840, Note_on_c, 1, 38, 40
1, 1261080, Note_off_c, 1, 38, 0
1, 1263240, Note_on_c, 1, 38, 40
1, 1263480, Note_off_c, 1, 38, 0
1, 1265640, Note_on_c, 1, 38, 40
1, 1265880, Note_off_c, 1, 38, 0
1, 1268040, Note_on_c, 1, 39, 40
1, 1268280, Note_off_c, 1, 39, 0
1, 1268640, Note_on_c, 1, 29, 40
1, 1269120, Note_off_c, 1, 29, 0
1, 1269120, Note_on_c, 1, 34, 40
1, 1269360, Note_off_c, 1, 34, 0
1, 1269480, Note_on_c, 1, 29, 40
1, 1269600, Note_off_c, 1, 29, 0
1, 1269600, Note_on_c, 1, 29, 40
1, 1270200, Note_off_c, 1, 29, 0
1, 1270200, Note_on_c, 1, 31, 40
1, 1270440, Note_off_c, 1, 31, 0
1, 1270560, Note_on_c, 1, 29, 40
1, 1271040, Note_off_c, 1, 29, 0
1, 1271040, Note_on_c, 1, 27, 40
1, 1271280, Note_off_c, 1, 27, 0
1, 1271400, Note_on_c, 1, 27, 40
1, 1273320, Note_off_c, 1, 27, 0
1, 1273440, Note_on_c, 1, 27, 40
1, 1274040, Note_off_c, 1, 27, 0
1, 1276200, Note_on_c, 1, 38, 40
1, 1276440, Note_off_c, 1, 38, 0
1, 1278600, Note_on_c, 1, 38, 40
1, 1278840, Note_off_c, 1, 38, 0
1, 1281000, Note_on_c, 1, 38, 40
1, 1281240, Note_off_c, 1, 38, 0
1, 1283400, Note_on_c, 1, 39, 40
1, 1283640, Note_off_c, 1, 39, 0
1, 1284000, Note_on_c, 1, 29, 40
1, 1284480, Note_off_c, 1, 29, 0
1, 1284480, Note_on_c, 1, 34, 40
1, 1284720, Note_off_c, 1, 34, 0
1, 1284840, Note_on_c, 1, 29, 40
1, 1284960, Note_off_c, 1, 29, 0
1, 1284960, Note_on_c, 1, 29, 40
1, 1285560, Note_off_c, 1, 29, 0
1, 1285560, Note_on_c, 1, 31, 40
1, 1285800, Note_off_c, 1, 31, 0
1, 1285920, Note_on_c, 1, 29, 40
1, 1286400, Note_off_c, 1, 29, 0
1, 1286400, Note_on_c, 1, 27, 40
1, 1286640, Note_off_c, 1, 27, 0
1, 1286760, Note_on_c, 1, 27, 40
1, 1288680, Note_off_c, 1, 27, 0
1, 1288800, Note_on_c, 1, 27, 40
1, 1289400, Note_off_c, 1, 27, 0
1, 1291560, Note_on_c, 1, 38, 40
1, 1291800, Note_off_c, 1, 38, 0
1, 1293960, Note_on_c, 1, 38, 40
1, 1294200, Note_off_c, 1, 38, 0
1, 1296360, Note_on_c, 1, 38, 40
1, 1296600, Note_off_c, 1, 38, 0
1, 1298760, Note_on_c, 1, 39, 40
1, 1299000, Note_off_c, 1, 39, 0
1, 1299360, Note_on_c, 1, 29, 40
1, 1299840, Note_off_c, 1, 29, 0
1, 1299840, Note_on_c, 1, 34, 40
1, 1300080, Note_off_c, 1, 34, 0
1, 1300200, Note_on_c, 1, 29, 40
1, 1300320, Note_off_c, 1, 29, 0
1, 1300320, Note_on_c, 1, 29, 40
1, 1300920, Note_off_c, 1, 29, 0
1, 1300920, Note_on_c, 1, 31, 40
1, 1301160, Note_off_c, 1, 31, 0
1, 1301280, Note_on_c, 1, 29, 40
1, 1301760, Note_off_c, 1, 29, 0
1, 1301760, Note_on_c, 1, 27, 40
1, 1302000, Note_off_c, 1, 27, 0
1, 1304760, Note_on_c, 1, 39, 40
1, 1304880, Note_off_c, 1, 39, 0
1, 1311720, Note_on_c, 1, 39, 40
1, 1311960, Note_off_c, 1, 39, 0
1, 1312800, Note_on_c, 1, 39, 40
1, 1313040, Note_off_c, 1, 39, 0
1, 1313040, Note_on_c, 1, 38, 40
1, 1313280, Note_off_c, 1, 38, 0
1, 1315320, Note_on_c, 1, 40, 40
1, 1315440, Note_off_c, 1, 40, 0
1, 1318920, Note_on_c, 1, 39, 40
1, 1319040, Note_off_c, 1, 39, 0
1, 1319040, Note_on_c, 1, 38, 40
1, 1319280, Note_off_c, 1, 38, 0
1, 1320000, Note_on_c, 1, 39, 40
1, 1320240, Note_off_c, 1, 39, 0
1, 1320600, Note_on_c, 1, 36, 40
1, 1320840, Note_off_c, 1, 36, 0
1, 1320960, Note_on_c, 1, 39, 40
1, 1321200, Note_off_c, 1, 39, 0
1, 1321200, Note_on_c, 1, 38, 40
1, 1321440, Note_off_c, 1, 38, 0
1, 1324080, Note_on_c, 1, 24, 40
1, 1324200, Note_off_c, 1, 24, 0
1, 1324440, Note_on_c, 1, 45, 40
1, 1324680, Note_off_c, 1, 45, 0
1, 1324800, Note_on_c, 1, 34, 40
1, 1325280, Note_off_c, 1, 34, 0
1, 1325280, Note_on_c, 1, 40, 40
1, 1325400, Note_off_c, 1, 40, 0
1, 1325520, Note_on_c, 1, 39, 40
1, 1325760, Note_off_c, 1, 39, 0
1, 1326000, Note_on_c, 1, 40, 40
1, 1326240, Note_off_c, 1, 40, 0
1, 1326240, Note_on_c, 1, 40, 40
1, 1326480, Note_off_c, 1, 40, 0
1, 1328520, Note_on_c, 1, 33, 40
1, 1330200, Note_off_c, 1, 33, 0
1, 1339920, Note_on_c, 1, 39, 40
1, 1340160, Note_off_c, 1, 39, 0
1, 1342440, Note_on_c, 1, 39, 40
1, 1342680, Note_off_c, 1, 39, 0
1, 1342920, Note_on_c, 1, 34, 40
1, 1343520, Note_off_c, 1, 34, 0
1, 1343520, Note_on_c, 1, 39, 40
1, 1343760, Note_off_c, 1, 39, 0
1, 1344360, Note_on_c, 1, 29, 40
1, 1344600, Note_off_c, 1, 29, 0
1, 1345320, Note_on_c, 1, 38, 40
1, 1345560, Note_off_c, 1, 38, 0
1, 1345680, Note_on_c, 1, 39, 40
1, 1345920, Note_off_c, 1, 39, 0
1, 1347120, Note_on_c, 1, 29, 40
1, 1347480, Note_off_c, 1, 29, 0
1, 1349640, Note_on_c, 1, 39, 40
1, 1349760, Note_off_c, 1, 39, 0
1, 1349760, Note_on_c, 1, 38, 40
1, 1350000, Note_off_c, 1, 38, 0
1, 1350720, Note_on_c, 1, 39, 40
1, 1350960, Note_off_c, 1, 39, 0
1, 1351320, Note_on_c, 1, 36, 40
1, 1351560, Note_off_c, 1, 36, 0
1, 1351680, Note_on_c, 1, 39, 40
1, 1351920, Note_off_c, 1, 39, 0
1, 1351920, Note_on_c, 1, 38, 40
1, 1352160, Note_off_c, 1, 38, 0
1, 1354800, Note_on_c, 1, 24, 40
1, 1354920, Note_off_c, 1, 24, 0
1, 1355160, Note_on_c, 1, 45, 40
1, 1355400, Note_off_c, 1, 45, 0
1, 1355520, Note_on_c, 1, 34, 40
1, 1356000, Note_off_c, 1, 34, 0
1, 1356000, Note_on_c, 1, 40, 40
1, 1356120, Note_off_c, 1, 40, 0
1, 1356240, Note_on_c, 1, 39, 40
1, 1356480, Note_off_c, 1, 39, 0
1, 1356720, Note_on_c, 1, 40, 40
1, 1356960, Note_off_c, 1, 40, 0
1, 1356960, Note_on_c, 1, 40, 40
1, 1357200, Note_off_c, 1, 40, 0
1, 1359240, Note_on_c, 1, 33, 40
1, 1360920, Note_off_c, 1, 33, 0
1, 1369560, Note_on_c, 1, 33, 40
1, 1371240, Note_off_c, 1, 33, 0
1, 1371240, Note_on_c, 1, 52, 40
1, 1371840, Note_off_c, 1, 52, 0
1, 1371840, Note_on_c, 1, 39, 40
1, 1372080, Note_off_c, 1, 39, 0
1, 1372200, Note_on_c, 1, 40, 40
1, 1372440, Note_off_c, 1, 40, 0
1, 1372560, Note_on_c, 1, 39, 40
1, 1372800, Note_off_c, 1, 39, 0
1, 1376520, Note_on_c, 1, 39, 40
1, 1376760, Note_off_c, 1, 39, 0
1, 1377000, Note_on_c, 1, 34, 40
1, 1377600, Note_off_c, 1, 34, 0
1, 1377600, Note_on_c, 1, 39, 40
1, 1377720, Note_off_c, 1, 39, 0
1, 1377720, Note_on_c, 1, 39, 40
1, 1377960, Note_off_c, 1, 39, 0
1, 1378200, Note_on_c, 1, 45, 40
1, 1378440, Note_off_c, 1, 45, 0
1, 1381080, Note_on_c, 1, 38, 40
1, 1381200, Note_off_c, 1, 38, 0
1, 1382040, Note_on_c, 1, 39, 40
1, 1382280, Note_off_c, 1, 39, 0
1, 1384800, Note_on_c, 1, 39, 40
1, 1385040, Note_off_c, 1, 39, 0
1, 1385520, Note_on_c, 1, 24, 40
1, 1385640, Note_off_c, 1, 24, 0
1, 1385880, Note_on_c, 1, 45, 40
1, 1386120, Note_off_c, 1, 45, 0
1, 1388760, Note_on_c, 1, 38, 40
1, 1388880, Note_off_c, 1, 38, 0
1, 1389000, Note_on_c, 1, 38, 40
1, 1390920, Note_off_c, 1, 38, 0
1, 1391280, Note_on_c, 1, 29, 40
1, 1391640, Note_off_c, 1, 29, 0
1, 1392000, Note_on_c, 1, 45, 40
1, 1392240, Note_off_c, 1, 45, 0
1, 1392240, Note_on_c, 1, 45, 40
1, 1392480, Note_off_c, 1, 45, 0
1, 1392480, Note_on_c, 1, 45, 40
1, 1392720, Note_off_c, 1, 45, 0
1, 1392720, Note_on_c, 1, 45, 40
1, 1392960, Note_off_c, 1, 45, 0
1, 1392960, Note_on_c, 1, 45, 40
1, 1393200, Note_off_c, 1, 45, 0
1, 1393200, Note_on_c, 1, 45, 40
1, 1393440, Note_off_c, 1, 45, 0
1, 1393440, Note_on_c, 1, 45, 40
1, 1393680, Note_off_c, 1, 45, 0
1, 1393680, Note_on_c, 1, 45, 40
1, 1393920, Note_off_c, 1, 45, 0
1, 1393920, Note_on_c, 1, 39, 40
1, 1394160, Note_off_c, 1, 39, 0
1, 1394160, Note_on_c, 1, 38, 40
1, 1394400, Note_off_c, 1, 38, 0
1, 1396320, Note_on_c, 1, 31, 40
1, 1396560, Note_off_c, 1, 31, 0
1, 1397400, Note_on_c, 1, 39, 40
1, 1397640, Note_off_c, 1, 39, 0
1, 1400160, Note_on_c, 1, 39, 40
1, 1400400, Note_off_c, 1, 39, 0
1, 1400880, Note_on_c, 1, 24, 40
1, 1401000, Note_off_c, 1, 24, 0
1, 1401240, Note_on_c, 1, 45, 40
1, 1401480, Note_off_c, 1, 45, 0
1, 1404120, Note_on_c, 1, 38, 40
1, 1404240, Note_off_c, 1, 38, 0
1, 1404360, Note_on_c, 1, 38, 40
1, 1406280, Note_off_c, 1, 38, 0
1, 1406640, Note_on_c, 1, 29, 40
1, 1407000, Note_off_c, 1, 29, 0
1, 1407360, Note_on_c, 1, 45, 40
1, 1407600, Note_off_c, 1, 45, 0
1, 1407600, Note_on_c, 1, 45, 40
1, 1407840, Note_off_c, 1, 45, 0
1, 1407840, Note_on_c, 1, 45, 40
1, 1408080, Note_off_c, 1, 45, 0
1, 1408080, Note_on_c, 1, 45, 40
1, 1408320, Note_off_c, 1, 45, 0
1, 1408320, Note_on_c, 1, 45, 40
1, 1408560, Note_off_c, 1, 45, 0
1, 1408560, Note_on_c, 1, 45, 40
1, 1408800, Note_off_c, 1, 45, 0
1, 1408800, Note_on_c, 1, 45, 40
1, 1409040, Note_off_c, 1, 45, 0
1, 1409040, Note_on_c, 1, 45, 40
1, 1409280, Note_off_c, 1, 45, 0
1, 1409280, Note_on_c, 1, 39, 40
1, 1409520, Note_off_c, 1, 39, 0
1, 1409520, Note_on_c, 1, 38, 40
1, 1409760, Note_off_c, 1, 38, 0
1, 1411680, Note_on_c, 1, 31, 40
1, 1411920, Note_off_c, 1, 31, 0
1, 1412760, Note_on_c, 1, 39, 40
1, 1413000, Note_off_c, 1, 39, 0
1, 1415520, Note_on_c, 1, 39, 40
1, 1415760, Note_off_c, 1, 39, 0
1, 1416240, Note_on_c, 1, 24, 40
1, 1416360, Note_off_c, 1, 24, 0
1, 1416600, Note_on_c, 1, 45, 40
1, 1416840, Note_off_c, 1, 45, 0
1, 1419480, Note_on_c, 1, 38, 40
1, 1419600, Note_off_c, 1, 38, 0
1, 1419720, Note_on_c, 1, 38, 40
1, 1421640, Note_off_c, 1, 38, 0
1, 1422000, Note_on_c, 1, 29, 40
1, 1422360, Note_off_c, 1, 29, 0
1, 1422720, Note_on_c, 1, 45, 40
1, 1422960, Note_off_c, 1, 45, 0
1, 1422960, Note_on_c, 1, 45, 40
1, 1423200, Note_off_c, 1, 45, 0
1, 1423200, Note_on_c, 1, 45, 40
1, 1423440, Note_off_c, 1, 45, 0
1, 1423440, Note_on_c, 1, 45, 40
1, 1423680, Note_off_c, 1, 45, 0
1, 1423680, Note_on_c, 1, 45, 40
1, 1423920, Note_off_c, 1, 45, 0
1, 1423920, Note_on_c, 1, 45, 40
1, 1424160, Note_off_c, 1, 45, 0
1, 1424160, Note_on_c, 1, 45, 40
1, 1424400, Note_off_c, 1, 45, 0
1, 1424400, Note_on_c, 1, 45, 40
1, 1424640, Note_off_c, 1, 45, 0
1, 1424640, Note_on_c, 1, 39, 40
1, 1424880, Note_off_c, 1, 39, 0
1, 1424880, Note_on_c, 1, 31, 40
1, 1425240, Note_off_c, 1, 31, 0
1, 1427160, Note_on_c, 1, 38, 40
1, 1427280, Note_off_c, 1, 38, 0
1, 1427760, Note_on_c, 1, 29, 40
1, 1428120, Note_off_c, 1, 29, 0
1, 1430280, Note_on_c, 1, 39, 40
1, 1430400, Note_off_c, 1, 39, 0
1, 1430400, Note_on_c, 1, 38, 40
1, 1430640, Note_off_c, 1, 38, 0
1, 1430880, Note_on_c, 1, 39, 40
1, 1431120, Note_off_c, 1, 39, 0
1, 1431600, Note_on_c, 1, 29, 40
1, 1431960, Note_off_c, 1, 29, 0
1, 1432440, Note_on_c, 1, 29, 40
1, 1434000, Note_off_c, 1, 29, 0
1, 1434000, Note_on_c, 1, 39, 40
1, 1434240, Note_off_c, 1, 39, 0
1, 1434960, Note_on_c, 1, 39, 40
1, 1435200, Note_off_c, 1, 39, 0
1, 1435440, Note_on_c, 1, 29, 40
1, 1435800, Note_off_c, 1, 29, 0
1, 1437960, Note_on_c, 1, 39, 40
1, 1438080, Note_off_c, 1, 39, 0
1, 1438080, Note_on_c, 1, 38, 40
1, 1438320, Note_off_c, 1, 38, 0
1, 1438560, Note_on_c, 1, 39, 40
1, 1438800, Note_off_c, 1, 39, 0
1, 1439280, Note_on_c, 1, 24, 40
1, 1439400, Note_off_c, 1, 24, 0
1, 1439640, Note_on_c, 1, 45, 40
1, 1439880, Note_off_c, 1, 45, 0
1, 1440000, Note_on_c, 1, 34, 40
1, 1440480, Note_off_c, 1, 34, 0
1, 1440480, Note_on_c, 1, 40, 40
1, 1440600, Note_off_c, 1, 40, 0
1, 1440720, Note_on_c, 1, 39, 40
1, 1440960, Note_off_c, 1, 39, 0
1, 1441200, Note_on_c, 1, 40, 40
1, 1441440, Note_off_c, 1, 40, 0
1, 1441440, Note_on_c, 1, 40, 40
1, 1441680, Note_off_c, 1, 40, 0
1, 1443720, Note_on_c, 1, 33, 40
1, 1445400, Note_off_c, 1, 33, 0
1, 1454040, Note_on_c, 1, 33, 40
1, 1455720, Note_off_c, 1, 33, 0
1, 1455840, Note_on_c, 1, 39, 40
1, 1456080, Note_off_c, 1, 39, 0
1, 1456080, Note_on_c, 1, 45, 40
1, 1456320, Note_off_c, 1, 45, 0
1, 1456320, Note_on_c, 1, 31, 40
1, 1456560, Note_off_c, 1, 31, 0
1, 1456560, Note_on_c, 1, 40, 40
1, 1457400, Note_off_c, 1, 40, 0
1, 1470840, Note_on_c, 1, 33, 40
1, 1472520, Note_off_c, 1, 33, 0
1, 1472640, Note_on_c, 1, 39, 40
1, 1472880, Note_off_c, 1, 39, 0
1, 1473000, Note_on_c, 1, 33, 40
1, 1474680, Note_off_c, 1, 33, 0
1, 1474800, Note_on_c, 1, 39, 40
1, 1475040, Note_off_c, 1, 39, 0
1, 1475160, Note_on_c, 1, 33, 40
1, 1476840, Note_off_c, 1, 33, 0
1, 1476960, Note_on_c, 1, 39, 40
1, 1477200, Note_off_c, 1, 39, 0
1, 1477200, Note_on_c, 1, 45, 40
1, 1477440, Note_off_c, 1, 45, 0
1, 1477440, Note_on_c, 1, 31, 40
1, 1477680, Note_off_c, 1, 31, 0
1, 1478040, Note_on_c, 1, 39, 40
1, 1478280, Note_off_c, 1, 39, 0
1, 1479000, Note_on_c, 1, 38, 40
1, 1479240, Note_off_c, 1, 38, 0
1, 1479360, Note_on_c, 1, 39, 40
1, 1479600, Note_off_c, 1, 39, 0
1, 1479840, Note_on_c, 1, 40, 40
1, 1480080, Note_off_c, 1, 40, 0
1, 1482120, Note_on_c, 1, 33, 40
1, 1483800, Note_off_c, 1, 33, 0
1, 1492440, Note_on_c, 1, 33, 40
1, 1494120, Note_off_c, 1, 33, 0
1, 1494240, Note_on_c, 1, 39, 40
1, 1494480, Note_off_c, 1, 39, 0
1, 1494480, Note_on_c, 1, 45, 40
1, 1494720, Note_off_c, 1, 45, 0
1, 1494720, Note_on_c, 1, 31, 40
1, 1494960, Note_off_c, 1, 31, 0
1, 1494960, Note_on_c, 1, 40, 40
1, 1495800, Note_off_c, 1, 40, 0
1, 1496280, Note_on_c, 1, 33, 40
1, 1497960, Note_off_c, 1, 33, 0
1, 1498080, Note_on_c, 1, 39, 40
1, 1498320, Note_off_c, 1, 39, 0
1, 1498320, Note_on_c, 1, 45, 40
1, 1498560, Note_off_c, 1, 45, 0
1, 1498560, Note_on_c, 1, 31, 40
1, 1498800, Note_off_c, 1, 31, 0
1, 1498800, Note_on_c, 1, 40, 40
1, 1499640, Note_off_c, 1, 40, 0
1, 1500120, Note_on_c, 1, 33, 40
1, 1501800, Note_off_c, 1, 33, 0
1, 1501920, Note_on_c, 1, 39, 40
1, 1502160, Note_off_c, 1, 39, 0
1, 1502160, Note_on_c, 1, 45, 40
1, 1502400, Note_off_c, 1, 45, 0
1, 1502400, Note_on_c, 1, 31, 40
1, 1502640, Note_off_c, 1, 31, 0
1, 1502640, Note_on_c, 1, 40, 40
1, 1503480, Note_off_c, 1, 40, 0
1, 1503960, Note_on_c, 1, 33, 40
1, 1505640, Note_off_c, 1, 33, 0
1, 1507440, Note_on_c, 1, 39, 40
1, 1507680, Note_off_c, 1, 39, 0
1, 1515480, Note_on_c, 1, 45, 40
1, 1515600, Note_off_c, 1, 45, 0
1, 1515600, Note_on_c, 1, 45, 40
1, 1515720, Note_off_c, 1, 45, 0
1, 1515840, Note_on_c, 1, 45, 40
1, 1516080, Note_off_c, 1, 45, 0
1, 1516080, Note_on_c, 1, 45, 40
1, 1516320, Note_off_c, 1, 45, 0
1, 1516320, Note_on_c, 1, 45, 40
1, 1516560, Note_off_c, 1, 45, 0
1, 1516560, Note_on_c, 1, 45, 40
1, 1516800, Note_off_c, 1, 45, 0
1, 1516800, Note_on_c, 1, 45, 40
1, 1517040, Note_off_c, 1, 45, 0
1, 1517040, Note_on_c, 1, 45, 40
1, 1517280, Note_off_c, 1, 45, 0
1, 1517280, Note_on_c, 1, 45, 40
1, 1517400, Note_off_c, 1, 45, 0
1, 1518600, Note_on_c, 1, 31, 40
1, 1518720, Note_off_c, 1, 31, 0
1, 1518840, Note_on_c, 1, 31, 40
1, 1519320, Note_off_c, 1, 31, 0
1, 1519680, Note_on_c, 1, 42, 40
1, 1519920, Note_off_c, 1, 42, 0
1, 1519920, Note_on_c, 1, 45, 40
1, 1520400, Note_off_c, 1, 45, 0
1, 1520400, Note_on_c, 1, 39, 40
1, 1520640, Note_off_c, 1, 39, 0
1, 1520880, Note_on_c, 1, 39, 40
1, 1521120, Note_off_c, 1, 39, 0
1, 1522440, Note_on_c, 1, 31, 40
1, 1522560, Note_off_c, 1, 31, 0
1, 1522680, Note_on_c, 1, 31, 40
1, 1523160, Note_off_c, 1, 31, 0
1, 1523520, Note_on_c, 1, 42, 40
1, 1523760, Note_off_c, 1, 42, 0
1, 1523760, Note_on_c, 1, 45, 40
1, 1524240, Note_off_c, 1, 45, 0
1, 1524240, Note_on_c, 1, 39, 40
1, 1524480, Note_off_c, 1, 39, 0
1, 1524720, Note_on_c, 1, 39, 40
1, 1524960, Note_off_c, 1, 39, 0
1, 1526280, Note_on_c, 1, 31, 40
1, 1526400, Note_off_c, 1, 31, 0
1, 1526520, Note_on_c, 1, 31, 40
1, 1527000, Note_off_c, 1, 31, 0
1, 1527360, Note_on_c, 1, 42, 40
1, 1527600, Note_off_c, 1, 42, 0
1, 1527600, Note_on_c, 1, 45, 40
1, 1528080, Note_off_c, 1, 45, 0
1, 1528080, Note_on_c, 1, 39, 40
1, 1528320, Note_off_c, 1, 39, 0
1, 1528560, Note_on_c, 1, 39, 40
1, 1528800, Note_off_c, 1, 39, 0
1, 1530120, Note_on_c, 1, 31, 40
1, 1530240, Note_off_c, 1, 31, 0
1, 1530360, Note_on_c, 1, 31, 40
1, 1530840, Note_off_c, 1, 31, 0
1, 1531200, Note_on_c, 1, 42, 40
1, 1531440, Note_off_c, 1, 42, 0
1, 1531440, Note_on_c, 1, 45, 40
1, 1531920, Note_off_c, 1, 45, 0
1, 1531920, Note_on_c, 1, 39, 40
1, 1532160, Note_off_c, 1, 39, 0
1, 1532400, Note_on_c, 1, 39, 40
1, 1532640, Note_off_c, 1, 39, 0
1, 1533960, Note_on_c, 1, 31, 40
1, 1534080, Note_off_c, 1, 31, 0
1, 1534200, Note_on_c, 1, 31, 40
1, 1534680, Note_off_c, 1, 31, 0
1, 1535040, Note_on_c, 1, 42, 40
1, 1535280, Note_off_c, 1, 42, 0
1, 1535280, Note_on_c, 1, 45, 40
1, 1535760, Note_off_c, 1, 45, 0
1, 1535760, Note_on_c, 1, 39, 40
1, 1536000, Note_off_c, 1, 39, 0
1, 1536240, Note_on_c, 1, 39, 40
1, 1536480, Note_off_c, 1, 39, 0
1, 1537200, Note_on_c, 1, 39, 40
1, 1537440, Note_off_c, 1, 39, 0
1, 1538400, Note_on_c, 1, 40, 40
1, 1538880, Note_off_c, 1, 40, 0
1, 1539000, Note_on_c, 1, 35, 40
1, 1539480, Note_off_c, 1, 35, 0
1, 1539480, Note_on_c, 1, 34, 40
1, 1540200, Note_off_c, 1, 34, 0
1, 1540200, Note_on_c, 1, 31, 40
1, 1540320, Note_off_c, 1, 31, 0
1, 1540320, Note_on_c, 1, 40, 40
1, 1540560, Note_off_c, 1, 40, 0
1, 1540560, Note_on_c, 1, 45, 40
1, 1540800, Note_off_c, 1, 45, 0
1, 1540920, Note_on_c, 1, 35, 40
1, 1541400, Note_off_c, 1, 35, 0
1, 1541400, Note_on_c, 1, 34, 40
1, 1542120, Note_off_c, 1, 34, 0
1, 1542120, Note_on_c, 1, 31, 40
1, 1542240, Note_off_c, 1, 31, 0
1, 1542240, Note_on_c, 1, 40, 40
1, 1542480, Note_off_c, 1, 40, 0
1, 1542480, Note_on_c, 1, 45, 40
1, 1542720, Note_off_c, 1, 45, 0
1, 1542840, Note_on_c, 1, 35, 40
1, 1543320, Note_off_c, 1, 35, 0
1, 1543320, Note_on_c, 1, 34, 40
1, 1544040, Note_off_c, 1, 34, 0
1, 1544040, Note_on_c, 1, 31, 40
1, 1544160, Note_off_c, 1, 31, 0
1, 1544160, Note_on_c, 1, 40, 40
1, 1544400, Note_off_c, 1, 40, 0
1, 1544400, Note_on_c, 1, 45, 40
1, 1544640, Note_off_c, 1, 45, 0
1, 1544760, Note_on_c, 1, 35, 40
1, 1545240, Note_off_c, 1, 35, 0
1, 1545240, Note_on_c, 1, 34, 40
1, 1545960, Note_off_c, 1, 34, 0
1, 1545960, Note_on_c, 1, 31, 40
1, 1546080, Note_off_c, 1, 31, 0
1, 1546080, Note_on_c, 1, 40, 40
1, 1546320, Note_off_c, 1, 40, 0
1, 1546320, Note_on_c, 1, 45, 40
1, 1546560, Note_off_c, 1, 45, 0
1, 1546680, Note_on_c, 1, 35, 40
1, 1547160, Note_off_c, 1, 35, 0
1, 1547160, Note_on_c, 1, 34, 40
1, 1547880, Note_off_c, 1, 34, 0
1, 1547880, Note_on_c, 1, 31, 40
1, 1548000, Note_off_c, 1, 31, 0
1, 1548000, Note_on_c, 1, 40, 40
1, 1548240, Note_off_c, 1, 40, 0
1, 1548240, Note_on_c, 1, 45, 40
1, 1548480, Note_off_c, 1, 45, 0
1, 1548600, Note_on_c, 1, 35, 40
1, 1549080, Note_off_c, 1, 35, 0
1, 1549080, Note_on_c, 1, 34, 40
1, 1549800, Note_off_c, 1, 34, 0
1, 1549800, Note_on_c, 1, 31, 40
1, 1549920, Note_off_c, 1, 31, 0
1, 1549920, Note_on_c, 1, 40, 40
1, 1550160, Note_off_c, 1, 40, 0
1, 1550160, Note_on_c, 1, 45, 40
1, 1550400, Note_off_c, 1, 45, 0
1, 1550520, Note_on_c, 1, 35, 40
1, 1551000, Note_off_c, 1, 35, 0
1, 1551000, Note_on_c, 1, 34, 40
1, 1551720, Note_off_c, 1, 34, 0
1, 1551720, Note_on_c, 1, 31, 40
1, 1551840, Note_off_c, 1, 31, 0
1, 1551840, Note_on_c, 1, 40, 40
1, 1552080, Note_off_c, 1, 40, 0
1, 1553160, Note_on_c, 1, 31, 40
1, 1553280, Note_off_c, 1, 31, 0
1, 1553400, Note_on_c, 1, 31, 40
1, 1553880, Note_off_c, 1, 31, 0
1, 1554240, Note_on_c, 1, 42, 40
1, 1554480, Note_off_c, 1, 42, 0
1, 1554480, Note_on_c, 1, 45, 40
1, 1554960, Note_off_c, 1, 45, 0
1, 1554960, Note_on_c, 1, 39, 40
1, 1555200, Note_off_c, 1, 39, 0
1, 1555440, Note_on_c, 1, 39, 40
1, 1555680, Note_off_c, 1, 39, 0
1, 1557000, Note_on_c, 1, 31, 40
1, 1557120, Note_off_c, 1, 31, 0
1, 1557240, Note_on_c, 1, 31, 40
1, 1557720, Note_off_c, 1, 31, 0
1, 1558080, Note_on_c, 1, 42, 40
1, 1558320, Note_off_c, 1, 42, 0
1, 1558320, Note_on_c, 1, 45, 40
1, 1558800, Note_off_c, 1, 45, 0
1, 1558800, Note_on_c, 1, 39, 40
1, 1559040, Note_off_c, 1, 39, 0
1, 1559280, Note_on_c, 1, 39, 40
1, 1559520, Note_off_c, 1, 39, 0
1, 1560840, Note_on_c, 1, 31, 40
1, 1560960, Note_off_c, 1, 31, 0
1, 1561080, Note_on_c, 1, 31, 40
1, 1561560, Note_off_c, 1, 31, 0
1, 1561920, Note_on_c, 1, 42, 40
1, 1562160, Note_off_c, 1, 42, 0
1, 1562160, Note_on_c, 1, 45, 40
1, 1562640, Note_off_c, 1, 45, 0
1, 1562640, Note_on_c, 1, 39, 40
1, 1562880, Note_off_c, 1, 39, 0
1, 1563120, Note_on_c, 1, 39, 40
1, 1563360, Note_off_c, 1, 39, 0
1, 1564680, Note_on_c, 1, 31, 40
1, 1564800, Note_off_c, 1, 31, 0
1, 1564920, Note_on_c, 1, 31, 40
1, 1565400, Note_off_c, 1, 31, 0
1, 1565760, Note_on_c, 1, 42, 40
1, 1566000, Note_off_c, 1, 42, 0
1, 1566000, Note_on_c, 1, 45, 40
1, 1566480, Note_off_c, 1, 45, 0
1, 1566480, Note_on_c, 1, 39, 40
1, 1566720, Note_off_c, 1, 39, 0
1, 1566960, Note_on_c, 1, 39, 40
1, 1567200, Note_off_c, 1, 39, 0
1, 1567920, Note_on_c, 1, 39, 40
1, 1568160, Note_off_c, 1, 39, 0
1, 1569120, Note_on_c, 1, 40, 40
1, 1569600, Note_off_c, 1, 40, 0
1, 1569720, Note_on_c, 1, 35, 40
1, 1570200, Note_off_c, 1, 35, 0
1, 1570200, Note_on_c, 1, 34, 40
1, 1570920, Note_off_c, 1, 34, 0
1, 1570920, Note_on_c, 1, 31, 40
1, 1571040, Note_off_c, 1, 31, 0
1, 1571040, Note_on_c, 1, 40, 40
1, 1571280, Note_off_c, 1, 40, 0
1, 1571280, Note_on_c, 1, 45, 40
1, 1571520, Note_off_c, 1, 45, 0
1, 1571640, Note_on_c, 1, 35, 40
1, 1572120, Note_off_c, 1, 35, 0
1, 1572120, Note_on_c, 1, 34, 40
1, 1572840, Note_off_c, 1, 34, 0
1, 1572840, Note_on_c, 1, 31, 40
1, 1572960, Note_off_c, 1, 31, 0
1, 1572960, Note_on_c, 1, 40, 40
1, 1573200, Note_off_c, 1, 40, 0
1, 1573200, Note_on_c, 1, 45, 40
1, 1573440, Note_off_c, 1, 45, 0
1, 1573560, Note_on_c, 1, 35, 40
1, 1574040, Note_off_c, 1, 35, 0
1, 1574040, Note_on_c, 1, 34, 40
1, 1574760, Note_off_c, 1, 34, 0
1, 1574760, Note_on_c, 1, 31, 40
1, 1574880, Note_off_c, 1, 31, 0
1, 1574880, Note_on_c, 1, 40, 40
1, 1575120, Note_off_c, 1, 40, 0
1, 1575120, Note_on_c, 1, 45, 40
1, 1575360, Note_off_c, 1, 45, 0
1, 1575480, Note_on_c, 1, 35, 40
1, 1575960, Note_off_c, 1, 35, 0
1, 1575960, Note_on_c, 1, 34, 40
1, 1576680, Note_off_c, 1, 34, 0
1, 1576680, Note_on_c, 1, 31, 40
1, 1576800, Note_off_c, 1, 31, 0
1, 1576800, Note_on_c, 1, 40, 40
1, 1577040, Note_off_c, 1, 40, 0
1, 1577040, Note_on_c, 1, 45, 40
1, 1577280, Note_off_c, 1, 45, 0
1, 1577400, Note_on_c, 1, 35, 40
1, 1577880, Note_off_c, 1, 35, 0
1, 1577880, Note_on_c, 1, 34, 40
1, 1578600, Note_off_c, 1, 34, 0
1, 1578600, Note_on_c, 1, 31, 40
1, 1578720, Note_off_c, 1, 31, 0
1, 1578720, Note_on_c, 1, 40, 40
1, 1578960, Note_off_c, 1, 40, 0
1, 1578960, Note_on_c, 1, 45, 40
1, 1579200, Note_off_c, 1, 45, 0
1, 1579320, Note_on_c, 1, 35, 40
1, 1579800, Note_off_c, 1, 35, 0
1, 1579800, Note_on_c, 1, 34, 40
1, 1580520, Note_off_c, 1, 34, 0
1, 1580520, Note_on_c, 1, 31, 40
1, 1580640, Note_off_c, 1, 31, 0
1, 1580640, Note_on_c, 1, 40, 40
1, 1580880, Note_off_c, 1, 40, 0
1, 1580880, Note_on_c, 1, 45, 40
1, 1581120, Note_off_c, 1, 45, 0
1, 1581240, Note_on_c, 1, 35, 40
1, 1581720, Note_off_c, 1, 35, 0
1, 1581720, Note_on_c, 1, 34, 40
1, 1582440, Note_off_c, 1, 34, 0
1, 1582440, Note_on_c, 1, 31, 40
1, 1582560, Note_off_c, 1, 31, 0
1, 1582560, Note_on_c, 1, 40, 40
1, 1582800, Note_off_c, 1, 40, 0
1, 1586640, Note_on_c, 1, 40, 40
1, 1586880, Note_off_c, 1, 40, 0
1, 1587000, Note_on_c, 1, 37, 40
1, 1587840, Note_off_c, 1, 37, 0
1, 1588080, Note_on_c, 1, 45, 40
1, 1588320, Note_off_c, 1, 45, 0
1, 1588320, Note_on_c, 1, 45, 40
1, 1588560, Note_off_c, 1, 45, 0
1, 1588560, Note_on_c, 1, 45, 40
1, 1588800, Note_off_c, 1, 45, 0
1, 1588920, Note_on_c, 1, 37, 40
1, 1589760, Note_off_c, 1, 37, 0
1, 1589760, Note_on_c, 1, 39, 40
1, 1590000, Note_off_c, 1, 39, 0
1, 1590240, Note_on_c, 1, 31, 40
1, 1590480, Note_off_c, 1, 31, 0
1, 1590480, Note_on_c, 1, 39, 40
1, 1590720, Note_off_c, 1, 39, 0
1, 1590720, Note_on_c, 1, 38, 40
1, 1591560, Note_off_c, 1, 38, 0
1, 1591920, Note_on_c, 1, 45, 40
1, 1592160, Note_off_c, 1, 45, 0
1, 1592160, Note_on_c, 1, 45, 40
1, 1592400, Note_off_c, 1, 45, 0
1, 1592400, Note_on_c, 1, 45, 40
1, 1592640, Note_off_c, 1, 45, 0
1, 1592760, Note_on_c, 1, 37, 40
1, 1593600, Note_off_c, 1, 37, 0
1, 1593600, Note_on_c, 1, 39, 40
1, 1593840, Note_off_c, 1, 39, 0
1, 1594080, Note_on_c, 1, 31, 40
1, 1594320, Note_off_c, 1, 31, 0
1, 1594320, Note_on_c, 1, 39, 40
1, 1594560, Note_off_c, 1, 39, 0
1, 1594560, Note_on_c, 1, 38, 40
1, 1595400, Note_off_c, 1, 38, 0
1, 1595760, Note_on_c, 1, 45, 40
1, 1596000, Note_off_c, 1, 45, 0
1, 1596000, Note_on_c, 1, 45, 40
1, 1596240, Note_off_c, 1, 45, 0
1, 1596240, Note_on_c, 1, 45, 40
1, 1596480, Note_off_c, 1, 45, 0
1, 1596600, Note_on_c, 1, 37, 40
1, 1597440, Note_off_c, 1, 37, 0
1, 1597440, Note_on_c, 1, 39, 40
1, 1597680, Note_off_c, 1, 39, 0
1, 1597920, Note_on_c, 1, 31, 40
1, 1598160, Note_off_c, 1, 31, 0
1, 1598160, Note_on_c, 1, 39, 40
1, 1598400, Note_off_c, 1, 39, 0
1, 1598400, Note_on_c, 1, 38, 40
1, 1599240, Note_off_c, 1, 38, 0
1, 1599600, Note_on_c, 1, 45, 40
1, 1599840, Note_off_c, 1, 45, 0
1, 1599840, Note_on_c, 1, 45, 40
1, 1600080, Note_off_c, 1, 45, 0
1, 1600080, Note_on_c, 1, 45, 40
1, 1600320, Note_off_c, 1, 45, 0
1, 1600440, Note_on_c, 1, 37, 40
1, 1601280, Note_off_c, 1, 37, 0
1, 1601280, Note_on_c, 1, 39, 40
1, 1601520, Note_off_c, 1, 39, 0
1, 1601760, Note_on_c, 1, 31, 40
1, 1602000, Note_off_c, 1, 31, 0
1, 1602000, Note_on_c, 1, 39, 40
1, 1602240, Note_off_c, 1, 39, 0
1, 1602240, Note_on_c, 1, 41, 40
1, 1602480, Note_off_c, 1, 41, 0
1, 1602720, Note_on_c, 1, 39, 40
1, 1602960, Note_off_c, 1, 39, 0
1, 1603920, Note_on_c, 1, 45, 40
1, 1604160, Note_off_c, 1, 45, 0
1, 1604280, Note_on_c, 1, 29, 40
1, 1604760, Note_off_c, 1, 29, 0
1, 1604760, Note_on_c, 1, 42, 40
1, 1605720, Note_off_c, 1, 42, 0
1, 1605840, Note_on_c, 1, 45, 40
1, 1606080, Note_off_c, 1, 45, 0
1, 1606200, Note_on_c, 1, 29, 40
1, 1606680, Note_off_c, 1, 29, 0
1, 1606680, Note_on_c, 1, 42, 40
1, 1607640, Note_off_c, 1, 42, 0
1, 1607760, Note_on_c, 1, 45, 40
1, 1608000, Note_off_c, 1, 45, 0
1, 1608120, Note_on_c, 1, 29, 40
1, 1608600, Note_off_c, 1, 29, 0
1, 1608600, Note_on_c, 1, 42, 40
1, 1609560, Note_off_c, 1, 42, 0
1, 1609680, Note_on_c, 1, 45, 40
1, 1609920, Note_off_c, 1, 45, 0
1, 1610040, Note_on_c, 1, 29, 40
1, 1610520, Note_off_c, 1, 29, 0
1, 1610520, Note_on_c, 1, 42, 40
1, 1611480, Note_off_c, 1, 42, 0
1, 1611600, Note_on_c, 1, 45, 40
1, 1611840, Note_off_c, 1, 45, 0
1, 1611960, Note_on_c, 1, 29, 40
1, 1612440, Note_off_c, 1, 29, 0
1, 1612440, Note_on_c, 1, 42, 40
1, 1613400, Note_off_c, 1, 42, 0
1, 1613520, Note_on_c, 1, 45, 40
1, 1613760, Note_off_c, 1, 45, 0
1, 1613880, Note_on_c, 1, 29, 40
1, 1614360, Note_off_c, 1, 29, 0
1, 1614360, Note_on_c, 1, 42, 40
1, 1615320, Note_off_c, 1, 42, 0
1, 1615440, Note_on_c, 1, 45, 40
1, 1615680, Note_off_c, 1, 45, 0
1, 1615800, Note_on_c, 1, 29, 40
1, 1616280, Note_off_c, 1, 29, 0
1, 1616280, Note_on_c, 1, 42, 40
1, 1617240, Note_off_c, 1, 42, 0
1, 1617360, Note_on_c, 1, 45, 40
1, 1617600, Note_off_c, 1, 45, 0
1, 1617720, Note_on_c, 1, 29, 40
1, 1618200, Note_off_c, 1, 29, 0
1, 1618200, Note_on_c, 1, 42, 40
1, 1619160, Note_off_c, 1, 42, 0
1, 1619280, Note_on_c, 1, 45, 40
1, 1619520, Note_off_c, 1, 45, 0
1, 1619640, Note_on_c, 1, 29, 40
1, 1620120, Note_off_c, 1, 29, 0
1, 1620120, Note_on_c, 1, 42, 40
1, 1621080, Note_off_c, 1, 42, 0
1, 1635840, Note_on_c, 1, 39, 40
1, 1636080, Note_off_c, 1, 39, 0
1, 1636320, Note_on_c, 1, 31, 40
1, 1636800, Note_off_c, 1, 31, 0
1, 1636800, Note_on_c, 1, 39, 40
1, 1637040, Note_off_c, 1, 39, 0
1, 1637040, Note_on_c, 1, 36, 40
1, 1637280, Note_off_c, 1, 36, 0
1, 1637280, Note_on_c, 1, 36, 40
1, 1637400, Note_off_c, 1, 36, 0
1, 1637400, Note_on_c, 1, 35, 40
1, 1637640, Note_off_c, 1, 35, 0
1, 1637640, Note_on_c, 1, 38, 40
1, 1637760, Note_off_c, 1, 38, 0
1, 1637760, Note_on_c, 1, 36, 40
1, 1639680, Note_off_c, 1, 36, 0
1, 1640160, Note_on_c, 1, 39, 40
1, 1640640, Note_off_c, 1, 39, 0
1, 1640880, Note_on_c, 1, 36, 40
1, 1642800, Note_off_c, 1, 36, 0
1, 1642800, Note_on_c, 1, 39, 40
1, 1643040, Note_off_c, 1, 39, 0
1, 1643040, Note_on_c, 1, 36, 40
1, 1644960, Note_off_c, 1, 36, 0
1, 1644960, Note_on_c, 1, 41, 40
1, 1646880, Note_off_c, 1, 41, 0
1, 1646880, Note_on_c, 1, 39, 40
1, 1647120, Note_off_c, 1, 39, 0
1, 1647360, Note_on_c, 1, 31, 40
1, 1649280, Note_off_c, 1, 31, 0
1, 1649280, Note_on_c, 1, 39, 40
1, 1649520, Note_off_c, 1, 39, 0
1, 1649760, Note_on_c, 1, 31, 40
1, 1650000, Note_off_c, 1, 31, 0
1, 1650240, Note_on_c, 1, 31, 40
1, 1650480, Note_off_c, 1, 31, 0
1, 1650480, Note_on_c, 1, 31, 40
1, 1650720, Note_off_c, 1, 31, 0
1, 1650960, Note_on_c, 1, 39, 40
1, 1651440, Note_off_c, 1, 39, 0
1, 1653360, Note_on_c, 1, 44, 40
1, 1653600, Note_off_c, 1, 44, 0
1, 1653600, Note_on_c, 1, 31, 40
1, 1653840, Note_off_c, 1, 31, 0
1, 1653840, Note_on_c, 1, 31, 40
1, 1654080, Note_off_c, 1, 31, 0
1, 1654080, Note_on_c, 1, 39, 40
1, 1654320, Note_off_c, 1, 39, 0
1, 1654440, Note_on_c, 1, 44, 40
1, 1654680, Note_off_c, 1, 44, 0
1, 1654800, Note_on_c, 1, 32, 40
1, 1656600, Note_off_c, 1, 32, 0
1, 1656600, Note_on_c, 1, 39, 40
1, 1657320, Note_off_c, 1, 39, 0
1, 1657560, Note_on_c, 1, 36, 40
1, 1657800, Note_off_c, 1, 36, 0
1, 1657920, Note_on_c, 1, 31, 40
1, 1658160, Note_off_c, 1, 31, 0
1, 1658160, Note_on_c, 1, 39, 40
1, 1658400, Note_off_c, 1, 39, 0
1, 1658400, Note_on_c, 1, 36, 40
1, 1660320, Note_off_c, 1, 36, 0
1, 1660440, Note_on_c, 1, 39, 40
1, 1661880, Note_off_c, 1, 39, 0
1, 1661880, Note_on_c, 1, 31, 40
1, 1662120, Note_off_c, 1, 31, 0
1, 1662240, Note_on_c, 1, 31, 40
1, 1662480, Note_off_c, 1, 31, 0
1, 1662480, Note_on_c, 1, 39, 40
1, 1663080, Note_off_c, 1, 39, 0
1, 1663200, Note_on_c, 1, 31, 40
1, 1663440, Note_off_c, 1, 31, 0
1, 1663440, Note_on_c, 1, 39, 40
1, 1664040, Note_off_c, 1, 39, 0
1, 1664160, Note_on_c, 1, 31, 40
1, 1664400, Note_off_c, 1, 31, 0
1, 1664400, Note_on_c, 1, 39, 40
1, 1666320, Note_off_c, 1, 39, 0
1, 1666320, Note_on_c, 1, 31, 40
1, 1666440, Note_off_c, 1, 31, 0
1, 1666560, Note_on_c, 1, 32, 40
1, 1668480, Note_off_c, 1, 32, 0
1, 1668480, Note_on_c, 1, 39, 40
1, 1669080, Note_off_c, 1, 39, 0
1, 1669080, Note_on_c, 1, 29, 40
1, 1669200, Note_off_c, 1, 29, 0
1, 1669320, Note_on_c, 1, 31, 40
1, 1669440, Note_off_c, 1, 31, 0
1, 1669440, Note_on_c, 1, 36, 40
1, 1671360, Note_off_c, 1, 36, 0
1, 1671360, Note_on_c, 1, 39, 40
1, 1671600, Note_off_c, 1, 39, 0
1, 1671600, Note_on_c, 1, 36, 40
1, 1673520, Note_off_c, 1, 36, 0
1, 1673520, Note_on_c, 1, 41, 40
1, 1675440, Note_off_c, 1, 41, 0
1, 1675440, Note_on_c, 1, 39, 40
1, 1675680, Note_off_c, 1, 39, 0
1, 1675680, Note_on_c, 1, 31, 40
1, 1675800, Note_off_c, 1, 31, 0
1, 1675920, Note_on_c, 1, 39, 40
1, 1676400, Note_off_c, 1, 39, 0
1, 1676640, Note_on_c, 1, 31, 40
1, 1677120, Note_off_c, 1, 31, 0
1, 1677120, Note_on_c, 1, 39, 40
1, 1677360, Note_off_c, 1, 39, 0
1, 1677360, Note_on_c, 1, 36, 40
1, 1677600, Note_off_c, 1, 36, 0
1, 1677600, Note_on_c, 1, 36, 40
1, 1677720, Note_off_c, 1, 36, 0
1, 1677720, Note_on_c, 1, 35, 40
1, 1677960, Note_off_c, 1, 35, 0
1, 1677960, Note_on_c, 1, 38, 40
1, 1678080, Note_off_c, 1, 38, 0
1, 1678080, Note_on_c, 1, 36, 40
1, 1680000, Note_off_c, 1, 36, 0
1, 1680120, Note_on_c, 1, 34, 40
1, 1682040, Note_off_c, 1, 34, 0
1, 1682040, Note_on_c, 1, 30, 40
1, 1682280, Note_off_c, 1, 30, 0
1, 1682280, Note_on_c, 1, 39, 40
1, 1683960, Note_off_c, 1, 39, 0
1, 1683960, Note_on_c, 1, 30, 40
1, 1684200, Note_off_c, 1, 30, 0
1, 1684200, Note_on_c, 1, 41, 40
1, 1684440, Note_off_c, 1, 41, 0
1, 1684560, Note_on_c, 1, 39, 40
1, 1685280, Note_off_c, 1, 39, 0
1, 1685280, Note_on_c, 1, 39, 40
1, 1685520, Note_off_c, 1, 39, 0
1, 1685640, Note_on_c, 1, 46, 40
1, 1686120, Note_off_c, 1, 46, 0
1, 1686240, Note_on_c, 1, 32, 40
1, 1686480, Note_off_c, 1, 32, 0
1, 1686960, Note_on_c, 1, 36, 40
1, 1687200, Note_off_c, 1, 36, 0
1, 1687200, Note_on_c, 1, 36, 40
1, 1687680, Note_off_c, 1, 36, 0
1, 1687680, Note_on_c, 1, 36, 40
1, 1689600, Note_off_c, 1, 36, 0
1, 1689600, Note_on_c, 1, 39, 40
1, 1689840, Note_off_c, 1, 39, 0
1, 1689840, Note_on_c, 1, 31, 40
1, 1690080, Note_off_c, 1, 31, 0
1, 1690080, Note_on_c, 1, 39, 40
1, 1690680, Note_off_c, 1, 39, 0
1, 1690800, Note_on_c, 1, 32, 40
1, 1691880, Note_off_c, 1, 32, 0
1, 1691880, Note_on_c, 1, 28, 40
1, 1692480, Note_off_c, 1, 28, 0
1, 1692480, Note_on_c, 1, 39, 40
1, 1692720, Note_off_c, 1, 39, 0
1, 1694640, Note_on_c, 1, 35, 40
1, 1695120, Note_off_c, 1, 35, 0
1, 1695120, Note_on_c, 1, 31, 40
1, 1695360, Note_off_c, 1, 31, 0
1, 1695360, Note_on_c, 1, 39, 40
1, 1695960, Note_off_c, 1, 39, 0
1, 1696200, Note_on_c, 1, 39, 40
1, 1696680, Note_off_c, 1, 39, 0
1, 1696920, Note_on_c, 1, 39, 40
1, 1697400, Note_off_c, 1, 39, 0
1, 1697640, Note_on_c, 1, 39, 40
1, 1698120, Note_off_c, 1, 39, 0
1, 1698360, Note_on_c, 1, 39, 40
1, 1698840, Note_off_c, 1, 39, 0
1, 1699080, Note_on_c, 1, 39, 40
1, 1699560, Note_off_c, 1, 39, 0
1, 1699800, Note_on_c, 1, 39, 40
1, 1700280, Note_off_c, 1, 39, 0
1, 1700520, Note_on_c, 1, 39, 40
1, 1701000, Note_off_c, 1, 39, 0
1, 1701240, Note_on_c, 1, 39, 40
1, 1701720, Note_off_c, 1, 39, 0
1, 1701960, Note_on_c, 1, 39, 40
1, 1702440, Note_off_c, 1, 39, 0
1, 1702680, Note_on_c, 1, 39, 40
1, 1703160, Note_off_c, 1, 39, 0
1, 1703400, Note_on_c, 1, 39, 40
1, 1703880, Note_off_c, 1, 39, 0
1, 1703880, Note_on_c, 1, 31, 40
1, 1704120, Note_off_c, 1, 31, 0
1, 1704360, Note_on_c, 1, 39, 40
1, 1704840, Note_off_c, 1, 39, 0
1, 1705080, Note_on_c, 1, 39, 40
1, 1705560, Note_off_c, 1, 39, 0
1, 1705560, Note_on_c, 1, 31, 40
1, 1705800, Note_off_c, 1, 31, 0
1, 1705800, Note_on_c, 1, 39, 40
1, 1706400, Note_off_c, 1, 39, 0
1, 1706640, Note_on_c, 1, 31, 40
1, 1706880, Note_off_c, 1, 31, 0
1, 1706880, Note_on_c, 1, 39, 40
1, 1707120, Note_off_c, 1, 39, 0
1, 1707360, Note_on_c, 1, 39, 40
1, 1707840, Note_off_c, 1, 39, 0
1, 1708080, Note_on_c, 1, 31, 40
1, 1708320, Note_off_c, 1, 31, 0
1, 1708560, Note_on_c, 1, 31, 40
1, 1708800, Note_off_c, 1, 31, 0
1, 1708800, Note_on_c, 1, 39, 40
1, 1709040, Note_off_c, 1, 39, 0
1, 1709280, Note_on_c, 1, 39, 40
1, 1709760, Note_off_c, 1, 39, 0
1, 1710000, Note_on_c, 1, 31, 40
1, 1710240, Note_off_c, 1, 31, 0
1, 1710480, Note_on_c, 1, 31, 40
1, 1710720, Note_off_c, 1, 31, 0
1, 1710720, Note_on_c, 1, 39, 40
1, 1710960, Note_off_c, 1, 39, 0
1, 1711200, Note_on_c, 1, 39, 40
1, 1711680, Note_off_c, 1, 39, 0
1, 1711920, Note_on_c, 1, 31, 40
1, 1712160, Note_off_c, 1, 31, 0
1, 1712400, Note_on_c, 1, 39, 40
1, 1712880, Note_off_c, 1, 39, 0
1, 1712880, Note_on_c, 1, 31, 40
1, 1713120, Note_off_c, 1, 31, 0
1, 1713360, Note_on_c, 1, 39, 40
1, 1713840, Note_off_c, 1, 39, 0
1, 1713840, Note_on_c, 1, 31, 40
1, 1714080, Note_off_c, 1, 31, 0
1, 1714320, Note_on_c, 1, 39, 40
1, 1714800, Note_off_c, 1, 39, 0
1, 1714800, Note_on_c, 1, 31, 40
1, 1715040, Note_off_c, 1, 31, 0
1, 1715280, Note_on_c, 1, 39, 40
1, 1715760, Note_off_c, 1, 39, 0
1, 1715760, Note_on_c, 1, 31, 40
1, 1716000, Note_off_c, 1, 31, 0
1, 1716240, Note_on_c, 1, 39, 40
1, 1716720, Note_off_c, 1, 39, 0
1, 1716720, Note_on_c, 1, 31, 40
1, 1716960, Note_off_c, 1, 31, 0
1, 1717200, Note_on_c, 1, 39, 40
1, 1717680, Note_off_c, 1, 39, 0
1, 1717680, Note_on_c, 1, 31, 40
1, 1717920, Note_off_c, 1, 31, 0
1, 1718160, Note_on_c, 1, 39, 40
1, 1718640, Note_off_c, 1, 39, 0
1, 1718640, Note_on_c, 1, 31, 40
1, 1718880, Note_off_c, 1, 31, 0
1, 1719120, Note_on_c, 1, 39, 40
1, 1719600, Note_off_c, 1, 39, 0
1, 1719600, Note_on_c, 1, 31, 40
1, 1719720, Note_off_c, 1, 31, 0
1, 1719720, Note_on_c, 1, 31, 40
1, 1719960, Note_off_c, 1, 31, 0
1, 1719960, Note_on_c, 1, 31, 40
1, 1720200, Note_off_c, 1, 31, 0
1, 1720200, Note_on_c, 1, 31, 40
1, 1720440, Note_off_c, 1, 31, 0
1, 1720440, Note_on_c, 1, 31, 40
1, 1720680, Note_off_c, 1, 31, 0
1, 1720920, Note_on_c, 1, 39, 40
1, 1721400, Note_off_c, 1, 39, 0
1, 1721640, Note_on_c, 1, 39, 40
1, 1722120, Note_off_c, 1, 39, 0
1, 1722360, Note_on_c, 1, 39, 40
1, 1722840, Note_off_c, 1, 39, 0
1, 1723080, Note_on_c, 1, 39, 40
1, 1723560, Note_off_c, 1, 39, 0
1, 1723800, Note_on_c, 1, 39, 40
1, 1724280, Note_off_c, 1, 39, 0
1, 1724520, Note_on_c, 1, 39, 40
1, 1725000, Note_off_c, 1, 39, 0
1, 1725240, Note_on_c, 1, 39, 40
1, 1725720, Note_off_c, 1, 39, 0
1, 1725960, Note_on_c, 1, 39, 40
1, 1726440, Note_off_c, 1, 39, 0
1, 1726680, Note_on_c, 1, 39, 40
1, 1727160, Note_off_c, 1, 39, 0
1, 1727400, Note_on_c, 1, 39, 40
1, 1727880, Note_off_c, 1, 39, 0
1, 1728120, Note_on_c, 1, 39, 40
1, 1728600, Note_off_c, 1, 39, 0
1, 1728840, Note_on_c, 1, 39, 40
1, 1729320, Note_off_c, 1, 39, 0
1, 1729560, Note_on_c, 1, 39, 40
1, 1730040, Note_off_c, 1, 39, 0
1, 1730280, Note_on_c, 1, 39, 40
1, 1730520, Note_off_c, 1, 39, 0
1, 1730520, Note_on_c, 1, 39, 40
1, 1730760, Note_off_c, 1, 39, 0
1, 1730760, Note_on_c, 1, 36, 40
1, 1731000, Note_off_c, 1, 36, 0
1, 1731240, Note_on_c, 1, 39, 40
1, 1731480, Note_off_c, 1, 39, 0
1, 1731600, Note_on_c, 1, 39, 40
1, 1731840, Note_off_c, 1, 39, 0
1, 1731840, Note_on_c, 1, 39, 40
1, 1732080, Note_off_c, 1, 39, 0
1, 1732440, Note_on_c, 1, 36, 40
1, 1732560, Note_off_c, 1, 36, 0
1, 1732560, Note_on_c, 1, 31, 40
1, 1732800, Note_off_c, 1, 31, 0
1, 1732800, Note_on_c, 1, 45, 40
1, 1732920, Note_off_c, 1, 45, 0
1, 1733280, Note_on_c, 1, 31, 40
1, 1733520, Note_off_c, 1, 31, 0
1, 1734240, Note_on_c, 1, 39, 40
1, 1734720, Note_off_c, 1, 39, 0
1, 1734960, Note_on_c, 1, 36, 40
1, 1736880, Note_off_c, 1, 36, 0
1, 1736880, Note_on_c, 1, 39, 40
1, 1737120, Note_off_c, 1, 39, 0
1, 1737120, Note_on_c, 1, 36, 40
1, 1739040, Note_off_c, 1, 36, 0
1, 1739040, Note_on_c, 1, 36, 40
1, 1739280, Note_off_c, 1, 36, 0
1, 1739280, Note_on_c, 1, 36, 40
1, 1739760, Note_off_c, 1, 36, 0
1, 1739880, Note_on_c, 1, 33, 40
1, 1740000, Note_off_c, 1, 33, 0
1, 1740000, Note_on_c, 1, 45, 40
1, 1741920, Note_off_c, 1, 45, 0
1, 1741920, Note_on_c, 1, 32, 40
1, 1742040, Note_off_c, 1, 32, 0
1, 1742160, Note_on_c, 1, 45, 40
1, 1742880, Note_off_c, 1, 45, 0
1, 1742880, Note_on_c, 1, 39, 40
1, 1743120, Note_off_c, 1, 39, 0
1, 1743840, Note_on_c, 1, 31, 40
1, 1744080, Note_off_c, 1, 31, 0
1, 1744320, Note_on_c, 1, 31, 40
1, 1744560, Note_off_c, 1, 31, 0
1, 1744560, Note_on_c, 1, 31, 40
1, 1744800, Note_off_c, 1, 31, 0
1, 1744920, Note_on_c, 1, 31, 40
1, 1745160, Note_off_c, 1, 31, 0
1, 1745280, Note_on_c, 1, 31, 40
1, 1745520, Note_off_c, 1, 31, 0
1, 1745520, Note_on_c, 1, 39, 40
1, 1745760, Note_off_c, 1, 39, 0
1, 1745760, Note_on_c, 1, 31, 40
1, 1746000, Note_off_c, 1, 31, 0
1, 1746120, Note_on_c, 1, 44, 40
1, 1746360, Note_off_c, 1, 44, 0
1, 1746480, Note_on_c, 1, 39, 40
1, 1746720, Note_off_c, 1, 39, 0
1, 1746720, Note_on_c, 1, 39, 40
1, 1746960, Note_off_c, 1, 39, 0
1, 1747080, Note_on_c, 1, 46, 40
1, 1747560, Note_off_c, 1, 46, 0
1, 1747680, Note_on_c, 1, 31, 40
1, 1747920, Note_off_c, 1, 31, 0
1, 1747920, Note_on_c, 1, 31, 40
1, 1748160, Note_off_c, 1, 31, 0
1, 1748160, Note_on_c, 1, 39, 40
1, 1748400, Note_off_c, 1, 39, 0
1, 1748520, Note_on_c, 1, 44, 40
1, 1748760, Note_off_c, 1, 44, 0
1, 1748880, Note_on_c, 1, 32, 40
1, 1750680, Note_off_c, 1, 32, 0
1, 1750680, Note_on_c, 1, 39, 40
1, 1751400, Note_off_c, 1, 39, 0
1, 1751400, Note_on_c, 1, 32, 40
1, 1753320, Note_off_c, 1, 32, 0
1, 1753320, Note_on_c, 1, 39, 40
1, 1755240, Note_off_c, 1, 39, 0
1, 1755840, Note_on_c, 1, 31, 40
1, 1755960, Note_off_c, 1, 31, 0
1, 1756080, Note_on_c, 1, 32, 40
1, 1757160, Note_off_c, 1, 32, 0
1, 1757160, Note_on_c, 1, 39, 40
1, 1757280, Note_off_c, 1, 39, 0
1, 1757400, Note_on_c, 1, 31, 40
1, 1757640, Note_off_c, 1, 31, 0
1, 1757880, Note_on_c, 1, 31, 40
1, 1758120, Note_off_c, 1, 31, 0
1, 1758120, Note_on_c, 1, 39, 40
1, 1758360, Note_off_c, 1, 39, 0
1, 1758480, Note_on_c, 1, 31, 40
1, 1758720, Note_off_c, 1, 31, 0
1, 1758720, Note_on_c, 1, 39, 40
1, 1758960, Note_off_c, 1, 39, 0
1, 1766160, Note_on_c, 1, 39, 40
1, 1766400, Note_off_c, 1, 39, 0
1, 1770000, Note_on_c, 1, 39, 40
1, 1770240, Note_off_c, 1, 39, 0
1, 1773600, Note_on_c, 1, 33, 40
1, 1773840, Note_off_c, 1, 33, 0
1, 1773840, Note_on_c, 1, 43, 40
1, 1774080, Note_off_c, 1, 43, 0
1, 1774320, Note_on_c, 1, 39, 40
1, 1774560, Note_off_c, 1, 39, 0
1, 1774560, Note_on_c, 1, 31, 40
1, 1774800, Note_off_c, 1, 31, 0
1, 1774920, Note_on_c, 1, 44, 40
1, 1775160, Note_off_c, 1, 44, 0
1, 1775280, Note_on_c, 1, 39, 40
1, 1775520, Note_off_c, 1, 39, 0
1, 1775520, Note_on_c, 1, 39, 40
1, 1775760, Note_off_c, 1, 39, 0
1, 1775880, Note_on_c, 1, 46, 40
1, 1776360, Note_off_c, 1, 46, 0
1, 1776480, Note_on_c, 1, 31, 40
1, 1776720, Note_off_c, 1, 31, 0
1, 1776720, Note_on_c, 1, 31, 40
1, 1776960, Note_off_c, 1, 31, 0
1, 1776960, Note_on_c, 1, 39, 40
1, 1777200, Note_off_c, 1, 39, 0
1, 1777320, Note_on_c, 1, 44, 40
1, 1777560, Note_off_c, 1, 44, 0
1, 1777560, Note_on_c, 1, 31, 40
1, 1777800, Note_off_c, 1, 31, 0
1, 1777800, Note_on_c, 1, 39, 40
1, 1778040, Note_off_c, 1, 39, 0
1, 1778160, Note_on_c, 1, 39, 40
1, 1778400, Note_off_c, 1, 39, 0
1, 1778400, Note_on_c, 1, 31, 40
1, 1778640, Note_off_c, 1, 31, 0
1, 1778760, Note_on_c, 1, 44, 40
1, 1779000, Note_off_c, 1, 44, 0
1, 1779120, Note_on_c, 1, 39, 40
1, 1779360, Note_off_c, 1, 39, 0
1, 1779360, Note_on_c, 1, 31, 40
1, 1779480, Note_off_c, 1, 31, 0
1, 1779600, Note_on_c, 1, 31, 40
1, 1779840, Note_off_c, 1, 31, 0
1, 1779840, Note_on_c, 1, 39, 40
1, 1780080, Note_off_c, 1, 39, 0
1, 1780320, Note_on_c, 1, 46, 40
1, 1781040, Note_off_c, 1, 46, 0
1, 1781040, Note_on_c, 1, 39, 40
1, 1781280, Note_off_c, 1, 39, 0
1, 1781520, Note_on_c, 1, 31, 40
1, 1781640, Note_off_c, 1, 31, 0
1, 1781640, Note_on_c, 1, 31, 40
1, 1782480, Note_off_c, 1, 31, 0
1, 1782480, Note_on_c, 1, 39, 40
1, 1782720, Note_off_c, 1, 39, 0
1, 1782960, Note_on_c, 1, 39, 40
1, 1783200, Note_off_c, 1, 39, 0
1, 1783320, Note_on_c, 1, 31, 40
1, 1783560, Note_off_c, 1, 31, 0
1, 1783800, Note_on_c, 1, 39, 40
1, 1784280, Note_off_c, 1, 39, 0
1, 1784640, Note_on_c, 1, 39, 40
1, 1785360, Note_off_c, 1, 39, 0
1, 1785360, Note_on_c, 1, 39, 40
1, 1785600, Note_off_c, 1, 39, 0
1, 1785840, Note_on_c, 1, 31, 40
1, 1786080, Note_off_c, 1, 31, 0
1, 1786080, Note_on_c, 1, 39, 40
1, 1786680, Note_off_c, 1, 39, 0
1, 1786920, Note_on_c, 1, 39, 40
1, 1787400, Note_off_c, 1, 39, 0
1, 1787520, Note_on_c, 1, 39, 40
1, 1788240, Note_off_c, 1, 39, 0
1, 1788240, Note_on_c, 1, 39, 40
1, 1788480, Note_off_c, 1, 39, 0
1, 1788600, Note_on_c, 1, 44, 40
1, 1788840, Note_off_c, 1, 44, 0
1, 1788960, Note_on_c, 1, 31, 40
1, 1789200, Note_off_c, 1, 31, 0
1, 1789440, Note_on_c, 1, 31, 40
1, 1789680, Note_off_c, 1, 31, 0
1, 1789680, Note_on_c, 1, 39, 40
1, 1790280, Note_off_c, 1, 39, 0
1, 1790400, Note_on_c, 1, 45, 40
1, 1790640, Note_off_c, 1, 45, 0
1, 1790640, Note_on_c, 1, 31, 40
1, 1790880, Note_off_c, 1, 31, 0
1, 1790880, Note_on_c, 1, 31, 40
1, 1791120, Note_off_c, 1, 31, 0
1, 1791240, Note_on_c, 1, 44, 40
1, 1791480, Note_off_c, 1, 44, 0
1, 1791600, Note_on_c, 1, 31, 40
1, 1791840, Note_off_c, 1, 31, 0
1, 1791960, Note_on_c, 1, 31, 40
1, 1792200, Note_off_c, 1, 31, 0
1, 1792200, Note_on_c, 1, 31, 40
1, 1792440, Note_off_c, 1, 31, 0
1, 1792440, Note_on_c, 1, 39, 40
1, 1793040, Note_off_c, 1, 39, 0
1, 1793040, Note_on_c, 1, 39, 40
1, 1793280, Note_off_c, 1, 39, 0
1, 1793280, Note_on_c, 1, 36, 40
1, 1795200, Note_off_c, 1, 36, 0
1, 1795320, Note_on_c, 1, 31, 40
1, 1795560, Note_off_c, 1, 31, 0
1, 1795920, Note_on_c, 1, 39, 40
1, 1796160, Note_off_c, 1, 39, 0
1, 1796160, Note_on_c, 1, 36, 40
1, 1796400, Note_off_c, 1, 36, 0
1, 1796400, Note_on_c, 1, 36, 40
1, 1796640, Note_off_c, 1, 36, 0
1, 1796640, Note_on_c, 1, 36, 40
1, 1796880, Note_off_c, 1, 36, 0
1, 1796880, Note_on_c, 1, 36, 40
1, 1797120, Note_off_c, 1, 36, 0
1, 1797120, Note_on_c, 1, 38, 40
1, 1797360, Note_off_c, 1, 38, 0
1, 1798320, Note_on_c, 1, 33, 40
1, 1798560, Note_off_c, 1, 33, 0
1, 1800600, Note_on_c, 1, 33, 40
1, 1800960, Note_off_c, 1, 33, 0
1, 1801080, Note_on_c, 1, 35, 40
1, 1803000, Note_off_c, 1, 35, 0
1, 1803120, Note_on_c, 1, 35, 40
1, 1803360, Note_off_c, 1, 35, 0
1, 1803360, Note_on_c, 1, 45, 40
1, 1803840, Note_off_c, 1, 45, 0
1, 1803840, Note_on_c, 1, 31, 40
1, 1803960, Note_off_c, 1, 31, 0
1, 1804080, Note_on_c, 1, 35, 40
1, 1804320, Note_off_c, 1, 35, 0
1, 1804320, Note_on_c, 1, 45, 40
1, 1804800, Note_off_c, 1, 45, 0
1, 1804800, Note_on_c, 1, 31, 40
1, 1805040, Note_off_c, 1, 31, 0
1, 1805040, Note_on_c, 1, 40, 40
1, 1805880, Note_off_c, 1, 40, 0
1, 1806240, Note_on_c, 1, 33, 40
1, 1807920, Note_off_c, 1, 33, 0
1, 1807920, Note_on_c, 1, 39, 40
1, 1808040, Note_off_c, 1, 39, 0
1, 1809000, Note_on_c, 1, 33, 40
1, 1810680, Note_off_c, 1, 33, 0
1, 1812480, Note_on_c, 1, 39, 40
1, 1812720, Note_off_c, 1, 39, 0
1, 1816800, Note_on_c, 1, 39, 40
1, 1817040, Note_off_c, 1, 39, 0
1, 1817160, Note_on_c, 1, 39, 40
1, 1817280, Note_off_c, 1, 39, 0
1, 1818720, Note_on_c, 1, 39, 40
1, 1818960, Note_off_c, 1, 39, 0
1, 1820160, Note_on_c, 1, 31, 40
1, 1820400, Note_off_c, 1, 31, 0
1, 1820400, Note_on_c, 1, 39, 40
1, 1820640, Note_off_c, 1, 39, 0
1, 1821120, Note_on_c, 1, 31, 40
1, 1821360, Note_off_c, 1, 31, 0
1, 1821360, Note_on_c, 1, 39, 40
1, 1821600, Note_off_c, 1, 39, 0
1, 1821840, Note_on_c, 1, 27, 40
1, 1822440, Note_off_c, 1, 27, 0
1, 1822440, Note_on_c, 1, 42, 40
1, 1824360, Note_off_c, 1, 42, 0
1, 1824360, Note_on_c, 1, 39, 40
1, 1826280, Note_off_c, 1, 39, 0
1, 1826400, Note_on_c, 1, 39, 40
1, 1826640, Note_off_c, 1, 39, 0
1, 1826760, Note_on_c, 1, 39, 40
1, 1828680, Note_off_c, 1, 39, 0
1, 1828800, Note_on_c, 1, 31, 40
1, 1829040, Note_off_c, 1, 31, 0
1, 1829040, Note_on_c, 1, 31, 40
1, 1829280, Note_off_c, 1, 31, 0
1, 1829280, Note_on_c, 1, 31, 40
1, 1829520, Note_off_c, 1, 31, 0
1, 1829520, Note_on_c, 1, 39, 40
1, 1829760, Note_off_c, 1, 39, 0
1, 1829880, Note_on_c, 1, 39, 40
1, 1831800, Note_off_c, 1, 39, 0
1, 1832160, Note_on_c, 1, 31, 40
1, 1832400, Note_off_c, 1, 31, 0
1, 1832880, Note_on_c, 1, 45, 40
1, 1833120, Note_off_c, 1, 45, 0
1, 1833120, Note_on_c, 1, 45, 40
1, 1833360, Note_off_c, 1, 45, 0
1, 1833360, Note_on_c, 1, 45, 40
1, 1833600, Note_off_c, 1, 45, 0
1, 1833600, Note_on_c, 1, 45, 40
1, 1833840, Note_off_c, 1, 45, 0
1, 1833840, Note_on_c, 1, 45, 40
1, 1834080, Note_off_c, 1, 45, 0
1, 1834080, Note_on_c, 1, 45, 40
1, 1834320, Note_off_c, 1, 45, 0
1, 1834320, Note_on_c, 1, 45, 40
1, 1834560, Note_off_c, 1, 45, 0
1, 1834560, Note_on_c, 1, 45, 40
1, 1834800, Note_off_c, 1, 45, 0
1, 1834800, Note_on_c, 1, 45, 40
1, 1835040, Note_off_c, 1, 45, 0
1, 1835040, Note_on_c, 1, 45, 40
1, 1835280, Note_off_c, 1, 45, 0
1, 1835280, Note_on_c, 1, 45, 40
1, 1835520, Note_off_c, 1, 45, 0
1, 1835520, Note_on_c, 1, 45, 40
1, 1835760, Note_off_c, 1, 45, 0
1, 1835760, Note_on_c, 1, 45, 40
1, 1836000, Note_off_c, 1, 45, 0
1, 1836000, Note_on_c, 1, 45, 40
1, 1836240, Note_off_c, 1, 45, 0
1, 1836240, Note_on_c, 1, 45, 40
1, 1836480, Note_off_c, 1, 45, 0
1, 1836480, Note_on_c, 1, 45, 40
1, 1836720, Note_off_c, 1, 45, 0
1, 1836720, Note_on_c, 1, 31, 40
1, 1836960, Note_off_c, 1, 31, 0
1, 1839120, Note_on_c, 1, 35, 40
1, 1839360, Note_off_c, 1, 35, 0
1, 1839360, Note_on_c, 1, 35, 40
1, 1839840, Note_off_c, 1, 35, 0
1, 1839840, Note_on_c, 1, 24, 40
1, 1840560, Note_off_c, 1, 24, 0
1, 1842600, Note_on_c, 1, 39, 40
1, 1842840, Note_off_c, 1, 39, 0
1, 1845120, Note_on_c, 1, 35, 40
1, 1845360, Note_off_c, 1, 35, 0
1, 1845360, Note_on_c, 1, 32, 40
1, 1846080, Note_off_c, 1, 32, 0
1, 1846080, Note_on_c, 1, 39, 40
1, 1846320, Note_off_c, 1, 39, 0
1, 1848720, Note_on_c, 1, 35, 40
1, 1848960, Note_off_c, 1, 35, 0
1, 1848960, Note_on_c, 1, 32, 40
1, 1849680, Note_off_c, 1, 32, 0
1, 1850160, Note_on_c, 1, 40, 40
1, 1850640, Note_off_c, 1, 40, 0
1, 1850640, Note_on_c, 1, 39, 40
1, 1850880, Note_off_c, 1, 39, 0
1, 1851600, Note_on_c, 1, 40, 40
1, 1852080, Note_off_c, 1, 40, 0
1, 1852080, Note_on_c, 1, 31, 40
1, 1852800, Note_off_c, 1, 31, 0
1, 1852800, Note_on_c, 1, 39, 40
1, 1853040, Note_off_c, 1, 39, 0
1, 1853280, Note_on_c, 1, 39, 40
1, 1853520, Note_off_c, 1, 39, 0
1, 1853640, Note_on_c, 1, 39, 40
1, 1855560, Note_off_c, 1, 39, 0
1, 1855680, Note_on_c, 1, 39, 40
1, 1856280, Note_off_c, 1, 39, 0
1, 1856280, Note_on_c, 1, 32, 40
1, 1856520, Note_off_c, 1, 32, 0
1, 1856520, Note_on_c, 1, 36, 40
1, 1858440, Note_off_c, 1, 36, 0
1, 1858560, Note_on_c, 1, 39, 40
1, 1859160, Note_off_c, 1, 39, 0
1, 1859280, Note_on_c, 1, 39, 40
1, 1859520, Note_off_c, 1, 39, 0
1, 1859640, Note_on_c, 1, 39, 40
1, 1861560, Note_off_c, 1, 39, 0
1, 1861680, Note_on_c, 1, 31, 40
1, 1861920, Note_off_c, 1, 31, 0
1, 1861920, Note_on_c, 1, 31, 40
1, 1862160, Note_off_c, 1, 31, 0
1, 1862160, Note_on_c, 1, 31, 40
1, 1862400, Note_off_c, 1, 31, 0
1, 1862400, Note_on_c, 1, 39, 40
1, 1862640, Note_off_c, 1, 39, 0
1, 1862880, Note_on_c, 1, 31, 40
1, 1863120, Note_off_c, 1, 31, 0
1, 1863240, Note_on_c, 1, 27, 40
1, 1865160, Note_off_c, 1, 27, 0
1, 1865280, Note_on_c, 1, 52, 40
1, 1865880, Note_off_c, 1, 52, 0
1, 1865880, Note_on_c, 1, 39, 40
1, 1866120, Note_off_c, 1, 39, 0
1, 1866360, Note_on_c, 1, 29, 40
1, 1866840, Note_off_c, 1, 29, 0
1, 1866840, Note_on_c, 1, 41, 40
1, 1866960, Note_off_c, 1, 41, 0
1, 1867200, Note_on_c, 1, 39, 40
1, 1867440, Note_off_c, 1, 39, 0
1, 1867680, Note_on_c, 1, 31, 40
1, 1867920, Note_off_c, 1, 31, 0
1, 1868160, Note_on_c, 1, 42, 40
1, 1869960, Note_off_c, 1, 42, 0
1, 1869960, Note_on_c, 1, 35, 40
1, 1870080, Note_off_c, 1, 35, 0
1, 1870080, Note_on_c, 1, 35, 40
1, 1870200, Note_off_c, 1, 35, 0
1, 1870200, Note_on_c, 1, 40, 40
1, 1871040, Note_off_c, 1, 40, 0
1, 1871040, Note_on_c, 1, 35, 40
1, 1871520, Note_off_c, 1, 35, 0
1, 1872240, Note_on_c, 1, 31, 40
1, 1872720, Note_off_c, 1, 31, 0
1, 1873080, Note_on_c, 1, 29, 40
1, 1873560, Note_off_c, 1, 29, 0
1, 1873560, Note_on_c, 1, 31, 40
1, 1873800, Note_off_c, 1, 31, 0
1, 1873920, Note_on_c, 1, 39, 40
1, 1874160, Note_off_c, 1, 39, 0
1, 1874400, Note_on_c, 1, 39, 40
1, 1874640, Note_off_c, 1, 39, 0
1, 1874760, Note_on_c, 1, 31, 40
1, 1875000, Note_off_c, 1, 31, 0
1, 1875120, Note_on_c, 1, 39, 40
1, 1875360, Note_off_c, 1, 39, 0
1, 1875480, Note_on_c, 1, 31, 40
1, 1875720, Note_off_c, 1, 31, 0
1, 1875840, Note_on_c, 1, 31, 40
1, 1876080, Note_off_c, 1, 31, 0
1, 1876320, Note_on_c, 1, 31, 40
1, 1876560, Note_off_c, 1, 31, 0
1, 1876560, Note_on_c, 1, 39, 40
1, 1876680, Note_off_c, 1, 39, 0
1, 1876680, Note_on_c, 1, 35, 40
1, 1878600, Note_off_c, 1, 35, 0
1, 1878600, Note_on_c, 1, 32, 40
1, 1879320, Note_off_c, 1, 32, 0
1, 1879320, Note_on_c, 1, 28, 40
1, 1880280, Note_off_c, 1, 28, 0
1, 1880280, Note_on_c, 1, 52, 40
1, 1881120, Note_off_c, 1, 52, 0
1, 1881120, Note_on_c, 1, 39, 40
1, 1881360, Note_off_c, 1, 39, 0
1, 1881720, Note_on_c, 1, 31, 40
1, 1882200, Note_off_c, 1, 31, 0
1, 1882320, Note_on_c, 1, 36, 40
1, 1884240, Note_off_c, 1, 36, 0
1, 1884480, Note_on_c, 1, 52, 40
1, 1885080, Note_off_c, 1, 52, 0
1, 1885200, Note_on_c, 1, 39, 40
1, 1885800, Note_off_c, 1, 39, 0
1, 1885920, Note_on_c, 1, 42, 40
1, 1887840, Note_off_c, 1, 42, 0
1, 1888080, Note_on_c, 1, 52, 40
1, 1888680, Note_off_c, 1, 52, 0
1, 1889040, Note_on_c, 1, 31, 40
1, 1889280, Note_off_c, 1, 31, 0
1, 1889280, Note_on_c, 1, 39, 40
1, 1889520, Note_off_c, 1, 39, 0
1, 1889640, Note_on_c, 1, 39, 40
1, 1891560, Note_off_c, 1, 39, 0
1, 1891680, Note_on_c, 1, 40, 40
1, 1893600, Note_off_c, 1, 40, 0
1, 1893600, Note_on_c, 1, 35, 40
1, 1893840, Note_off_c, 1, 35, 0
1, 1893840, Note_on_c, 1, 35, 40
1, 1894560, Note_off_c, 1, 35, 0
1, 1896600, Note_on_c, 1, 39, 40
1, 1896840, Note_off_c, 1, 39, 0
1, 1898760, Note_on_c, 1, 39, 40
1, 1899000, Note_off_c, 1, 39, 0
1, 1899720, Note_on_c, 1, 36, 40
1, 1899960, Note_off_c, 1, 36, 0
1, 1900080, Note_on_c, 1, 45, 40
1, 1900320, Note_off_c, 1, 45, 0
1, 1900320, Note_on_c, 1, 45, 40
1, 1900560, Note_off_c, 1, 45, 0
1, 1900560, Note_on_c, 1, 45, 40
1, 1900800, Note_off_c, 1, 45, 0
1, 1900800, Note_on_c, 1, 45, 40
1, 1901040, Note_off_c, 1, 45, 0
1, 1901040, Note_on_c, 1, 45, 40
1, 1901280, Note_off_c, 1, 45, 0
1, 1901280, Note_on_c, 1, 45, 40
1, 1901520, Note_off_c, 1, 45, 0
1, 1901520, Note_on_c, 1, 45, 40
1, 1901760, Note_off_c, 1, 45, 0
1, 1901760, Note_on_c, 1, 45, 40
1, 1902000, Note_off_c, 1, 45, 0
1, 1902000, Note_on_c, 1, 45, 40
1, 1902240, Note_off_c, 1, 45, 0
1, 1902240, Note_on_c, 1, 45, 40
1, 1902480, Note_off_c, 1, 45, 0
1, 1902480, Note_on_c, 1, 45, 40
1, 1902720, Note_off_c, 1, 45, 0
1, 1902720, Note_on_c, 1, 45, 40
1, 1902960, Note_off_c, 1, 45, 0
1, 1902960, Note_on_c, 1, 45, 40
1, 1903200, Note_off_c, 1, 45, 0
1, 1903200, Note_on_c, 1, 45, 40
1, 1903440, Note_off_c, 1, 45, 0
1, 1903440, Note_on_c, 1, 31, 40
1, 1903680, Note_off_c, 1, 31, 0
1, 1903920, Note_on_c, 1, 31, 40
1, 1904160, Note_off_c, 1, 31, 0
1, 1904400, Note_on_c, 1, 45, 40
1, 1904640, Note_off_c, 1, 45, 0
1, 1904640, Note_on_c, 1, 45, 40
1, 1904880, Note_off_c, 1, 45, 0
1, 1904880, Note_on_c, 1, 45, 40
1, 1905120, Note_off_c, 1, 45, 0
1, 1905120, Note_on_c, 1, 45, 40
1, 1905360, Note_off_c, 1, 45, 0
1, 1905360, Note_on_c, 1, 45, 40
1, 1905600, Note_off_c, 1, 45, 0
1, 1905600, Note_on_c, 1, 39, 40
1, 1905840, Note_off_c, 1, 39, 0
1, 1907760, Note_on_c, 1, 35, 40
1, 1908000, Note_off_c, 1, 35, 0
1, 1908000, Note_on_c, 1, 24, 40
1, 1908720, Note_off_c, 1, 24, 0
1, 1908720, Note_on_c, 1, 40, 40
1, 1909320, Note_off_c, 1, 40, 0
1, 1909440, Note_on_c, 1, 45, 40
1, 1909680, Note_off_c, 1, 45, 0
1, 1909680, Note_on_c, 1, 45, 40
1, 1909920, Note_off_c, 1, 45, 0
1, 1909920, Note_on_c, 1, 45, 40
1, 1910160, Note_off_c, 1, 45, 0
1, 1910160, Note_on_c, 1, 45, 40
1, 1910400, Note_off_c, 1, 45, 0
1, 1910400, Note_on_c, 1, 45, 40
1, 1910640, Note_off_c, 1, 45, 0
1, 1910640, Note_on_c, 1, 45, 40
1, 1910880, Note_off_c, 1, 45, 0
1, 1910880, Note_on_c, 1, 45, 40
1, 1911120, Note_off_c, 1, 45, 0
1, 1911120, Note_on_c, 1, 45, 40
1, 1911360, Note_off_c, 1, 45, 0
1, 1911360, Note_on_c, 1, 45, 40
1, 1911600, Note_off_c, 1, 45, 0
1, 1911600, Note_on_c, 1, 45, 40
1, 1911840, Note_off_c, 1, 45, 0
1, 1911840, Note_on_c, 1, 45, 40
1, 1912080, Note_off_c, 1, 45, 0
1, 1912080, Note_on_c, 1, 45, 40
1, 1912320, Note_off_c, 1, 45, 0
1, 1912320, Note_on_c, 1, 45, 40
1, 1912560, Note_off_c, 1, 45, 0
1, 1912560, Note_on_c, 1, 45, 40
1, 1912800, Note_off_c, 1, 45, 0
1, 1912800, Note_on_c, 1, 45, 40
1, 1913040, Note_off_c, 1, 45, 0
1, 1913040, Note_on_c, 1, 45, 40
1, 1913280, Note_off_c, 1, 45, 0
1, 1913280, Note_on_c, 1, 39, 40
1, 1913520, Note_off_c, 1, 39, 0
1, 1913640, Note_on_c, 1, 33, 40
1, 1915320, Note_off_c, 1, 33, 0
1, 1917120, Note_on_c, 1, 39, 40
1, 1917360, Note_off_c, 1, 39, 0
1, 1922280, Note_on_c, 1, 33, 40
1, 1924200, Note_off_c, 1, 33, 0
1, 1937520, Note_on_c, 1, 33, 40
1, 1939440, Note_off_c, 1, 33, 0
1, 1939440, Note_on_c, 1, 39, 40
1, 1939560, Note_off_c, 1, 39, 0
1, 1941480, Note_on_c, 1, 39, 40
1, 1941600, Note_off_c, 1, 39, 0
1, 1954080, Note_on_c, 1, 35, 40
1, 1954320, Note_off_c, 1, 35, 0
1, 1954320, Note_on_c, 1, 36, 40
1, 1954440, Note_off_c, 1, 36, 0
1, 1954440, Note_on_c, 1, 38, 40
1, 1954680, Note_off_c, 1, 38, 0
1, 1960440, Note_on_c, 1, 37, 40
1, 1961280, Note_off_c, 1, 37, 0
1, 1961280, Note_on_c, 1, 40, 40
1, 1961520, Note_off_c, 1, 40, 0
1, 1961640, Note_on_c, 1, 41, 40
1, 1962480, Note_off_c, 1, 41, 0
1, 1962600, Note_on_c, 1, 35, 40
1, 1964280, Note_off_c, 1, 35, 0
1, 1964280, Note_on_c, 1, 40, 40
1, 1965000, Note_off_c, 1, 40, 0
1, 1973160, Note_on_c, 1, 34, 40
1, 1973760, Note_off_c, 1, 34, 0
1, 1974120, Note_on_c, 1, 29, 40
1, 1974600, Note_off_c, 1, 29, 0
1, 1974720, Note_on_c, 1, 41, 40
1, 1976640, Note_off_c, 1, 41, 0
1, 1977000, Note_on_c, 1, 31, 40
1, 1977120, Note_off_c, 1, 31, 0
1, 1977240, Note_on_c, 1, 33, 40
1, 1978200, Note_off_c, 1, 33, 0
1, 1980240, Note_on_c, 1, 39, 40
1, 1980480, Note_off_c, 1, 39, 0
1, 1980600, Note_on_c, 1, 39, 40
1, 1982520, Note_off_c, 1, 39, 0
1, 1982520, Note_on_c, 1, 39, 40
1, 1982760, Note_off_c, 1, 39, 0
1, 1983000, Note_on_c, 1, 29, 40
1, 1983240, Note_off_c, 1, 29, 0
1, 1983480, Note_on_c, 1, 41, 40
1, 1985400, Note_off_c, 1, 41, 0
1, 1985400, Note_on_c, 1, 38, 40
1, 1985640, Note_off_c, 1, 38, 0
1, 1986720, Note_on_c, 1, 36, 40
1, 1986960, Note_off_c, 1, 36, 0
1, 1987080, Note_on_c, 1, 39, 40
1, 1987320, Note_off_c, 1, 39, 0
1, 1987560, Note_on_c, 1, 29, 40
1, 1988040, Note_off_c, 1, 29, 0
1, 1988160, Note_on_c, 1, 41, 40
1, 1990080, Note_off_c, 1, 41, 0
1, 1990080, Note_on_c, 1, 31, 40
1, 1990200, Note_off_c, 1, 31, 0
1, 1990440, Note_on_c, 1, 34, 40
1, 1990680, Note_off_c, 1, 34, 0
1, 1992600, Note_on_c, 1, 38, 40
1, 1993560, Note_off_c, 1, 38, 0
1, 1994400, Note_on_c, 1, 36, 40
1, 1994640, Note_off_c, 1, 36, 0
1, 1994760, Note_on_c, 1, 39, 40
1, 1995000, Note_off_c, 1, 39, 0
1, 1995240, Note_on_c, 1, 29, 40
1, 1995720, Note_off_c, 1, 29, 0
1, 1995840, Note_on_c, 1, 41, 40
1, 1997760, Note_off_c, 1, 41, 0
1, 1997880, Note_on_c, 1, 45, 40
1, 1999800, Note_off_c, 1, 45, 0
1, 1999800, Note_on_c, 1, 45, 40
1, 1999920, Note_off_c, 1, 45, 0
1, 1999920, Note_on_c, 1, 45, 40
1, 2000160, Note_off_c, 1, 45, 0
1, 2000400, Note_on_c, 1, 39, 40
1, 2000520, Note_off_c, 1, 39, 0
1, 2000520, Note_on_c, 1, 35, 40
1, 2001360, Note_off_c, 1, 35, 0
1, 2001360, Note_on_c, 1, 36, 40
1, 2001600, Note_off_c, 1, 36, 0
1, 2001840, Note_on_c, 1, 36, 40
1, 2002080, Note_off_c, 1, 36, 0
1, 2002320, Note_on_c, 1, 36, 40
1, 2002560, Note_off_c, 1, 36, 0
1, 2002680, Note_on_c, 1, 45, 40
1, 2002920, Note_off_c, 1, 45, 0
1, 2003400, Note_on_c, 1, 38, 40
1, 2005320, Note_off_c, 1, 38, 0
1, 2005440, Note_on_c, 1, 41, 40
1, 2006280, Note_off_c, 1, 41, 0
1, 2007480, Note_on_c, 1, 40, 40
1, 2007840, Note_off_c, 1, 40, 0
1, 2008200, Note_on_c, 1, 41, 40
1, 2010120, Note_off_c, 1, 41, 0
1, 2010120, Note_on_c, 1, 31, 40
1, 2010360, Note_off_c, 1, 31, 0
1, 2010600, Note_on_c, 1, 31, 40
1, 2010720, Note_off_c, 1, 31, 0
1, 2010840, Note_on_c, 1, 47, 40
1, 2012760, Note_off_c, 1, 47, 0
1, 2014800, Note_on_c, 1, 32, 40
1, 2014920, Note_off_c, 1, 32, 0
1, 2015040, Note_on_c, 1, 44, 40
1, 2015160, Note_off_c, 1, 44, 0
1, 2015280, Note_on_c, 1, 44, 40
1, 2015400, Note_off_c, 1, 44, 0
1, 2015520, Note_on_c, 1, 44, 40
1, 2015640, Note_off_c, 1, 44, 0
1, 2015760, Note_on_c, 1, 36, 40
1, 2017680, Note_off_c, 1, 36, 0
1, 2017680, Note_on_c, 1, 31, 40
1, 2017800, Note_off_c, 1, 31, 0
1, 2019840, Note_on_c, 1, 45, 40
1, 2020080, Note_off_c, 1, 45, 0
1, 2020080, Note_on_c, 1, 45, 40
1, 2020320, Note_off_c, 1, 45, 0
1, 2020800, Note_on_c, 1, 36, 40
1, 2021040, Note_off_c, 1, 36, 0
1, 2021160, Note_on_c, 1, 45, 40
1, 2021280, Note_off_c, 1, 45, 0
1, 2021400, Note_on_c, 1, 39, 40
1, 2021640, Note_off_c, 1, 39, 0
1, 2021880, Note_on_c, 1, 36, 40
1, 2022120, Note_off_c, 1, 36, 0
1, 2024040, Note_on_c, 1, 36, 40
1, 2024280, Note_off_c, 1, 36, 0
1, 2025120, Note_on_c, 1, 36, 40
1, 2025360, Note_off_c, 1, 36, 0
1, 2025480, Note_on_c, 1, 39, 40
1, 2025720, Note_off_c, 1, 39, 0
1, 2025960, Note_on_c, 1, 36, 40
1, 2026200, Note_off_c, 1, 36, 0
1, 2026800, Note_on_c, 1, 31, 40
1, 2027040, Note_off_c, 1, 31, 0
1, 2027160, Note_on_c, 1, 39, 40
1, 2027280, Note_off_c, 1, 39, 0
1, 2027760, Note_on_c, 1, 39, 40
1, 2028000, Note_off_c, 1, 39, 0
1, 2029920, Note_on_c, 1, 39, 40
1, 2030160, Note_off_c, 1, 39, 0
1, 2032080, Note_on_c, 1, 28, 40
1, 2032320, Note_off_c, 1, 28, 0
1, 2032320, Note_on_c, 1, 35, 40
1, 2032920, Note_off_c, 1, 35, 0
1, 2033040, Note_on_c, 1, 31, 40
1, 2033520, Note_off_c, 1, 31, 0
1, 2033640, Note_on_c, 1, 34, 40
1, 2035560, Note_off_c, 1, 34, 0
1, 2035560, Note_on_c, 1, 36, 40
1, 2035800, Note_off_c, 1, 36, 0
1, 2036160, Note_on_c, 1, 36, 40
1, 2036400, Note_off_c, 1, 36, 0
1, 2036520, Note_on_c, 1, 27, 40
1, 2036880, Note_off_c, 1, 27, 0
1, 2037000, Note_on_c, 1, 39, 40
1, 2037240, Note_off_c, 1, 39, 0
1, 2037480, Note_on_c, 1, 36, 40
1, 2037720, Note_off_c, 1, 36, 0
1, 2038320, Note_on_c, 1, 31, 40
1, 2038560, Note_off_c, 1, 31, 0
1, 2038680, Note_on_c, 1, 45, 40
1, 2038800, Note_off_c, 1, 45, 0
1, 2039040, Note_on_c, 1, 31, 40
1, 2039280, Note_off_c, 1, 31, 0
1, 2041320, Note_on_c, 1, 32, 40
1, 2041560, Note_off_c, 1, 32, 0
1, 2043480, Note_on_c, 1, 39, 40
1, 2043720, Note_off_c, 1, 39, 0
1, 2045640, Note_on_c, 1, 39, 40
1, 2045880, Note_off_c, 1, 39, 0
1, 2046120, Note_on_c, 1, 31, 40
1, 2046240, Note_off_c, 1, 31, 0
1, 2046360, Note_on_c, 1, 33, 40
1, 2047320, Note_off_c, 1, 33, 0
1, 2047320, Note_on_c, 1, 36, 40
1, 2047560, Note_off_c, 1, 36, 0
1, 2047560, Note_on_c, 1, 38, 40
1, 2047800, Note_off_c, 1, 38, 0
1, 2052720, Note_on_c, 1, 33, 40
1, 2054640, Note_off_c, 1, 33, 0
1, 2054640, Note_on_c, 1, 39, 40
1, 2054760, Note_off_c, 1, 39, 0
1, 2056680, Note_on_c, 1, 39, 40
1, 2056800, Note_off_c, 1, 39, 0
1, 2101680, Note_on_c, 1, 33, 40
1, 2103600, Note_off_c, 1, 33, 0
1, 2103600, Note_on_c, 1, 39, 40
1, 2103720, Note_off_c, 1, 39, 0
1, 2105640, Note_on_c, 1, 39, 40
1, 2105760, Note_off_c, 1, 39, 0
1, 2120280, Note_on_c, 1, 36, 40
1, 2120520, Note_off_c, 1, 36, 0
1, 2120640, Note_on_c, 1, 36, 40
1, 2120880, Note_off_c, 1, 36, 0
1, 2121000, Note_on_c, 1, 40, 40
1, 2121120, Note_off_c, 1, 40, 0
1, 2121240, Note_on_c, 1, 39, 40
1, 2121480, Note_off_c, 1, 39, 0
1, 2121960, Note_on_c, 1, 29, 40
1, 2122080, Note_off_c, 1, 29, 0
1, 2122320, Note_on_c, 1, 36, 40
1, 2122560, Note_off_c, 1, 36, 0
1, 2122800, Note_on_c, 1, 45, 40
1, 2124720, Note_off_c, 1, 45, 0
1, 2124720, Note_on_c, 1, 35, 40
1, 2124840, Note_off_c, 1, 35, 0
1, 2124840, Note_on_c, 1, 40, 40
1, 2125680, Note_off_c, 1, 40, 0
1, 2126280, Note_on_c, 1, 36, 40
1, 2126520, Note_off_c, 1, 36, 0
1, 2126640, Note_on_c, 1, 40, 40
1, 2126760, Note_off_c, 1, 40, 0
1, 2126880, Note_on_c, 1, 35, 40
1, 2127000, Note_off_c, 1, 35, 0
1, 2127000, Note_on_c, 1, 34, 40
1, 2128920, Note_off_c, 1, 34, 0
1, 2129160, Note_on_c, 1, 36, 40
1, 2129400, Note_off_c, 1, 36, 0
1, 2129640, Note_on_c, 1, 31, 40
1, 2130120, Note_off_c, 1, 31, 0
1, 2132160, Note_on_c, 1, 28, 40
1, 2132640, Note_off_c, 1, 28, 0
1, 2132760, Note_on_c, 1, 39, 40
1, 2133000, Note_off_c, 1, 39, 0
1, 2133240, Note_on_c, 1, 36, 40
1, 2133480, Note_off_c, 1, 36, 0
1, 2134560, Note_on_c, 1, 31, 40
1, 2134800, Note_off_c, 1, 31, 0
1, 2136840, Note_on_c, 1, 39, 40
1, 2137080, Note_off_c, 1, 39, 0
1, 2137320, Note_on_c, 1, 29, 40
1, 2137800, Note_off_c, 1, 29, 0
1, 2137920, Note_on_c, 1, 41, 40
1, 2139840, Note_off_c, 1, 41, 0
1, 2140080, Note_on_c, 1, 41, 40
1, 2140800, Note_off_c, 1, 41, 0
1, 2140920, Note_on_c, 1, 34, 40
1, 2142840, Note_off_c, 1, 34, 0
1, 2142840, Note_on_c, 1, 36, 40
1, 2143080, Note_off_c, 1, 36, 0
1, 2143680, Note_on_c, 1, 36, 40
1, 2143920, Note_off_c, 1, 36, 0
1, 2144040, Note_on_c, 1, 27, 40
1, 2144400, Note_off_c, 1, 27, 0
1, 2144520, Note_on_c, 1, 39, 40
1, 2144760, Note_off_c, 1, 39, 0
1, 2145000, Note_on_c, 1, 36, 40
1, 2145240, Note_off_c, 1, 36, 0
1, 2145840, Note_on_c, 1, 31, 40
1, 2146080, Note_off_c, 1, 31, 0
1, 2146200, Note_on_c, 1, 45, 40
1, 2146320, Note_off_c, 1, 45, 0
1, 2146560, Note_on_c, 1, 31, 40
1, 2146800, Note_off_c, 1, 31, 0
1, 2148840, Note_on_c, 1, 32, 40
1, 2149080, Note_off_c, 1, 32, 0
1, 2151000, Note_on_c, 1, 39, 40
1, 2151240, Note_off_c, 1, 39, 0
1, 2153160, Note_on_c, 1, 39, 40
1, 2153400, Note_off_c, 1, 39, 0
1, 2153640, Note_on_c, 1, 31, 40
1, 2153760, Note_off_c, 1, 31, 0
1, 2153880, Note_on_c, 1, 33, 40
1, 2154840, Note_off_c, 1, 33, 0
1, 2156880, Note_on_c, 1, 39, 40
1, 2157120, Note_off_c, 1, 39, 0
1, 2157360, Note_on_c, 1, 31, 40
1, 2157600, Note_off_c, 1, 31, 0
1, 2157720, Note_on_c, 1, 33, 40
1, 2158680, Note_off_c, 1, 33, 0
1, 2160720, Note_on_c, 1, 39, 40
1, 2160960, Note_off_c, 1, 39, 0
1, 2161200, Note_on_c, 1, 31, 40
1, 2161440, Note_off_c, 1, 31, 0
1, 2161800, Note_on_c, 1, 45, 40
1, 2162040, Note_off_c, 1, 45, 0
1, 2162400, Note_on_c, 1, 36, 40
1, 2162520, Note_off_c, 1, 36, 0
1, 2163120, Note_on_c, 1, 31, 40
1, 2163360, Note_off_c, 1, 31, 0
1, 2163600, Note_on_c, 1, 36, 40
1, 2163840, Note_off_c, 1, 36, 0
1, 2163960, Note_on_c, 1, 36, 40
1, 2164200, Note_off_c, 1, 36, 0
1, 2165280, Note_on_c, 1, 31, 40
1, 2165520, Note_off_c, 1, 31, 0
1, 2165640, Note_on_c, 1, 47, 40
1, 2165760, Note_off_c, 1, 47, 0
1, 2166120, Note_on_c, 1, 29, 40
1, 2166600, Note_off_c, 1, 29, 0
1, 2166720, Note_on_c, 1, 41, 40
1, 2168640, Note_off_c, 1, 41, 0
1, 2169000, Note_on_c, 1, 31, 40
1, 2169120, Note_off_c, 1, 31, 0
1, 2171160, Note_on_c, 1, 39, 40
1, 2171400, Note_off_c, 1, 39, 0
1, 2171880, Note_on_c, 1, 29, 40
1, 2172360, Note_off_c, 1, 29, 0
1, 2172480, Note_on_c, 1, 41, 40
1, 2174400, Note_off_c, 1, 41, 0
1, 2174760, Note_on_c, 1, 29, 40
1, 2174880, Note_off_c, 1, 29, 0
1, 2174880, Note_on_c, 1, 39, 40
1, 2175240, Note_off_c, 1, 39, 0
1, 2175360, Note_on_c, 1, 36, 40
1, 2175600, Note_off_c, 1, 36, 0
1, 2175720, Note_on_c, 1, 27, 40
1, 2176320, Note_off_c, 1, 27, 0
1, 2176320, Note_on_c, 1, 39, 40
1, 2178000, Note_off_c, 1, 39, 0
1, 2178720, Note_on_c, 1, 36, 40
1, 2178960, Note_off_c, 1, 36, 0
1, 2179080, Note_on_c, 1, 39, 40
1, 2179320, Note_off_c, 1, 39, 0
1, 2179560, Note_on_c, 1, 36, 40
1, 2179800, Note_off_c, 1, 36, 0
1, 2180400, Note_on_c, 1, 31, 40
1, 2180640, Note_off_c, 1, 31, 0
1, 2180760, Note_on_c, 1, 33, 40
1, 2181720, Note_off_c, 1, 33, 0
1, 2183760, Note_on_c, 1, 39, 40
1, 2184000, Note_off_c, 1, 39, 0
1, 2184240, Note_on_c, 1, 31, 40
1, 2184480, Note_off_c, 1, 31, 0
1, 2184600, Note_on_c, 1, 39, 40
1, 2184720, Note_off_c, 1, 39, 0
1, 2185200, Note_on_c, 1, 39, 40
1, 2185440, Note_off_c, 1, 39, 0
1, 2209200, Note_on_c, 1, 33, 40
1, 2211120, Note_off_c, 1, 33, 0
1, 2211120, Note_on_c, 1, 39, 40
1, 2211240, Note_off_c, 1, 39, 0
1, 2213160, Note_on_c, 1, 39, 40
1, 2213280, Note_off_c, 1, 39, 0
1, 2231160, Note_on_c, 1, 38, 40
1, 2233080, Note_off_c, 1, 38, 0
1, 2233080, Note_on_c, 1, 39, 40
1, 2233320, Note_off_c, 1, 39, 0
1, 2233800, Note_on_c, 1, 34, 40
1, 2234400, Note_off_c, 1, 34, 0
1, 2234400, Note_on_c, 1, 40, 40
1, 2234520, Note_off_c, 1, 40, 0
1, 2234760, Note_on_c, 1, 34, 40
1, 2235360, Note_off_c, 1, 34, 0
1, 2235360, Note_on_c, 1, 31, 40
1, 2235480, Note_off_c, 1, 31, 0
1, 2235480, Note_on_c, 1, 39, 40
1, 2237040, Note_off_c, 1, 39, 0
1, 2241600, Note_on_c, 1, 28, 40
1, 2241840, Note_off_c, 1, 28, 0
1, 2242080, Note_on_c, 1, 40, 40
1, 2242200, Note_off_c, 1, 40, 0
1, 2242440, Note_on_c, 1, 34, 40
1, 2243040, Note_off_c, 1, 34, 0
1, 2243040, Note_on_c, 1, 31, 40
1, 2243160, Note_off_c, 1, 31, 0
1, 2243160, Note_on_c, 1, 39, 40
1, 2244720, Note_off_c, 1, 39, 0
1, 2247360, Note_on_c, 1, 28, 40
1, 2247600, Note_off_c, 1, 28, 0
1, 2247600, Note_on_c, 1, 22, 40
1, 2248560, Note_off_c, 1, 22, 0
1, 2248560, Note_on_c, 1, 39, 40
1, 2248800, Note_off_c, 1, 39, 0
1, 2249160, Note_on_c, 1, 34, 40
1, 2249760, Note_off_c, 1, 34, 0
1, 2249760, Note_on_c, 1, 40, 40
1, 2249880, Note_off_c, 1, 40, 0
1, 2250120, Note_on_c, 1, 34, 40
1, 2250720, Note_off_c, 1, 34, 0
1, 2250720, Note_on_c, 1, 31, 40
1, 2250840, Note_off_c, 1, 31, 0
1, 2250840, Note_on_c, 1, 39, 40
1, 2252400, Note_off_c, 1, 39, 0
1, 2255040, Note_on_c, 1, 28, 40
1, 2255280, Note_off_c, 1, 28, 0
1, 2255280, Note_on_c, 1, 22, 40
1, 2256240, Note_off_c, 1, 22, 0
1, 2256240, Note_on_c, 1, 39, 40
1, 2256480, Note_off_c, 1, 39, 0
1, 2256840, Note_on_c, 1, 34, 40
1, 2257440, Note_off_c, 1, 34, 0
1, 2257440, Note_on_c, 1, 31, 40
1, 2257680, Note_off_c, 1, 31, 0
1, 2257680, Note_on_c, 1, 39, 40
1, 2257920, Note_off_c, 1, 39, 0
1, 2260320, Note_on_c, 1, 38, 40
1, 2260560, Note_off_c, 1, 38, 0
1, 2260560, Note_on_c, 1, 45, 40
1, 2260800, Note_off_c, 1, 45, 0
1, 2261160, Note_on_c, 1, 40, 40
1, 2261640, Note_off_c, 1, 40, 0
1, 2264640, Note_on_c, 1, 28, 40
1, 2264880, Note_off_c, 1, 28, 0
1, 2264880, Note_on_c, 1, 22, 40
1, 2265840, Note_off_c, 1, 22, 0
1, 2265840, Note_on_c, 1, 39, 40
1, 2266080, Note_off_c, 1, 39, 0
1, 2266680, Note_on_c, 1, 39, 40
1, 2266920, Note_off_c, 1, 39, 0
1, 2267280, Note_on_c, 1, 31, 40
1, 2267520, Note_off_c, 1, 31, 0
1, 2267640, Note_on_c, 1, 45, 40
1, 2267880, Note_off_c, 1, 45, 0
1, 2268240, Note_on_c, 1, 31, 40
1, 2268480, Note_off_c, 1, 31, 0
1, 2268600, Note_on_c, 1, 45, 40
1, 2268840, Note_off_c, 1, 45, 0
1, 2269800, Note_on_c, 1, 31, 40
1, 2270280, Note_off_c, 1, 31, 0
1, 2270280, Note_on_c, 1, 41, 40
1, 2270520, Note_off_c, 1, 41, 0
1, 2271120, Note_on_c, 1, 29, 40
1, 2271240, Note_off_c, 1, 29, 0
1, 2271240, Note_on_c, 1, 38, 40
1, 2271480, Note_off_c, 1, 38, 0
1, 2271720, Note_on_c, 1, 34, 40
1, 2272320, Note_off_c, 1, 34, 0
1, 2272320, Note_on_c, 1, 31, 40
1, 2272440, Note_off_c, 1, 31, 0
1, 2272440, Note_on_c, 1, 39, 40
1, 2272680, Note_off_c, 1, 39, 0
1, 2273040, Note_on_c, 1, 31, 40
1, 2273280, Note_off_c, 1, 31, 0
1, 2273400, Note_on_c, 1, 34, 40
1, 2273640, Note_off_c, 1, 34, 0
1, 2274360, Note_on_c, 1, 39, 40
1, 2274600, Note_off_c, 1, 39, 0
1, 2274840, Note_on_c, 1, 45, 40
1, 2275080, Note_off_c, 1, 45, 0
1, 2275200, Note_on_c, 1, 34, 40
1, 2277120, Note_off_c, 1, 34, 0
1, 2277720, Note_on_c, 1, 36, 40
1, 2277960, Note_off_c, 1, 36, 0
1, 2277960, Note_on_c, 1, 36, 40
1, 2278080, Note_off_c, 1, 36, 0
1, 2278200, Note_on_c, 1, 36, 40
1, 2278440, Note_off_c, 1, 36, 0
1, 2278560, Note_on_c, 1, 32, 40
1, 2279520, Note_off_c, 1, 32, 0
1, 2279640, Note_on_c, 1, 36, 40
1, 2279880, Note_off_c, 1, 36, 0
1, 2279880, Note_on_c, 1, 36, 40
1, 2280000, Note_off_c, 1, 36, 0
1, 2280120, Note_on_c, 1, 36, 40
1, 2280360, Note_off_c, 1, 36, 0
1, 2283600, Note_on_c, 1, 36, 40
1, 2283840, Note_off_c, 1, 36, 0
1, 2283840, Note_on_c, 1, 36, 40
1, 2283960, Note_off_c, 1, 36, 0
1, 2283960, Note_on_c, 1, 39, 40
1, 2284200, Note_off_c, 1, 39, 0
1, 2287440, Note_on_c, 1, 36, 40
1, 2287680, Note_off_c, 1, 36, 0
1, 2287680, Note_on_c, 1, 36, 40
1, 2287800, Note_off_c, 1, 36, 0
1, 2287800, Note_on_c, 1, 39, 40
1, 2288040, Note_off_c, 1, 39, 0
1, 2288400, Note_on_c, 1, 31, 40
1, 2288640, Note_off_c, 1, 31, 0
1, 2288760, Note_on_c, 1, 39, 40
1, 2289000, Note_off_c, 1, 39, 0
1, 2289480, Note_on_c, 1, 38, 40
1, 2290080, Note_off_c, 1, 38, 0
1, 2295120, Note_on_c, 1, 36, 40
1, 2295360, Note_off_c, 1, 36, 0
1, 2295360, Note_on_c, 1, 36, 40
1, 2295480, Note_off_c, 1, 36, 0
1, 2295480, Note_on_c, 1, 39, 40
1, 2295720, Note_off_c, 1, 39, 0
1, 2296080, Note_on_c, 1, 31, 40
1, 2296320, Note_off_c, 1, 31, 0
1, 2296440, Note_on_c, 1, 39, 40
1, 2296680, Note_off_c, 1, 39, 0
1, 2297160, Note_on_c, 1, 38, 40
1, 2297760, Note_off_c, 1, 38, 0
1, 2298120, Note_on_c, 1, 31, 40
1, 2300040, Note_off_c, 1, 31, 0
1, 2300040, Note_on_c, 1, 42, 40
1, 2301960, Note_off_c, 1, 42, 0
1, 2302200, Note_on_c, 1, 29, 40
1, 2302320, Note_off_c, 1, 29, 0
1, 2302320, Note_on_c, 1, 32, 40
1, 2302800, Note_off_c, 1, 32, 0
1, 2303280, Note_on_c, 1, 31, 40
1, 2303520, Note_off_c, 1, 31, 0
1, 2303520, Note_on_c, 1, 52, 40
1, 2303640, Note_off_c, 1, 52, 0
1, 2303640, Note_on_c, 1, 45, 40
1, 2303880, Note_off_c, 1, 45, 0
1, 2306520, Note_on_c, 1, 29, 40
1, 2306760, Note_off_c, 1, 29, 0
1, 2307240, Note_on_c, 1, 41, 40
1, 2307480, Note_off_c, 1, 41, 0
1, 2308080, Note_on_c, 1, 29, 40
1, 2308320, Note_off_c, 1, 29, 0
1, 2308440, Note_on_c, 1, 29, 40
1, 2308680, Note_off_c, 1, 29, 0
1, 2309160, Note_on_c, 1, 41, 40
1, 2309400, Note_off_c, 1, 41, 0
1, 2310000, Note_on_c, 1, 29, 40
1, 2310240, Note_off_c, 1, 29, 0
1, 2310360, Note_on_c, 1, 29, 40
1, 2310600, Note_off_c, 1, 29, 0
1, 2311080, Note_on_c, 1, 41, 40
1, 2311320, Note_off_c, 1, 41, 0
1, 2311920, Note_on_c, 1, 29, 40
1, 2312160, Note_off_c, 1, 29, 0
1, 2312280, Note_on_c, 1, 29, 40
1, 2312520, Note_off_c, 1, 29, 0
1, 2313000, Note_on_c, 1, 41, 40
1, 2313240, Note_off_c, 1, 41, 0
1, 2313840, Note_on_c, 1, 29, 40
1, 2314080, Note_off_c, 1, 29, 0
1, 2314200, Note_on_c, 1, 29, 40
1, 2314440, Note_off_c, 1, 29, 0
1, 2314920, Note_on_c, 1, 41, 40
1, 2315160, Note_off_c, 1, 41, 0
1, 2315760, Note_on_c, 1, 29, 40
1, 2316000, Note_off_c, 1, 29, 0
1, 2316120, Note_on_c, 1, 29, 40
1, 2316360, Note_off_c, 1, 29, 0
1, 2316840, Note_on_c, 1, 41, 40
1, 2317080, Note_off_c, 1, 41, 0
1, 2317320, Note_on_c, 1, 45, 40
1, 2317440, Note_off_c, 1, 45, 0
1, 2317560, Note_on_c, 1, 45, 40
1, 2317680, Note_off_c, 1, 45, 0
1, 2317680, Note_on_c, 1, 45, 40
1, 2317920, Note_off_c, 1, 45, 0
1, 2318040, Note_on_c, 1, 45, 40
1, 2318160, Note_off_c, 1, 45, 0
1, 2318160, Note_on_c, 1, 45, 40
1, 2318400, Note_off_c, 1, 45, 0
1, 2318520, Note_on_c, 1, 45, 40
1, 2318640, Note_off_c, 1, 45, 0
1, 2318640, Note_on_c, 1, 45, 40
1, 2318880, Note_off_c, 1, 45, 0
1, 2319000, Note_on_c, 1, 45, 40
1, 2319120, Note_off_c, 1, 45, 0
1, 2319120, Note_on_c, 1, 45, 40
1, 2319360, Note_off_c, 1, 45, 0
1, 2319480, Note_on_c, 1, 31, 40
1, 2319720, Note_off_c, 1, 31, 0
1, 2319720, Note_on_c, 1, 39, 40
1, 2319960, Note_off_c, 1, 39, 0
1, 2320080, Note_on_c, 1, 45, 40
1, 2320200, Note_off_c, 1, 45, 0
1, 2322240, Note_on_c, 1, 38, 40
1, 2322480, Note_off_c, 1, 38, 0
1, 2322480, Note_on_c, 1, 39, 40
1, 2322720, Note_off_c, 1, 39, 0
1, 2322840, Note_on_c, 1, 45, 40
1, 2324760, Note_off_c, 1, 45, 0
1, 2324880, Note_on_c, 1, 45, 40
1, 2326800, Note_off_c, 1, 45, 0
1, 2326800, Note_on_c, 1, 39, 40
1, 2327040, Note_off_c, 1, 39, 0
1, 2327160, Note_on_c, 1, 45, 40
1, 2329080, Note_off_c, 1, 45, 0
1, 2329080, Note_on_c, 1, 39, 40
1, 2329320, Note_off_c, 1, 39, 0
1, 2329320, Note_on_c, 1, 46, 40
1, 2331240, Note_off_c, 1, 46, 0
1, 2331600, Note_on_c, 1, 31, 40
1, 2331840, Note_off_c, 1, 31, 0
1, 2331960, Note_on_c, 1, 31, 40
1, 2332200, Note_off_c, 1, 31, 0
1, 2332200, Note_on_c, 1, 31, 40
1, 2332440, Note_off_c, 1, 31, 0
1, 2332440, Note_on_c, 1, 39, 40
1, 2332680, Note_off_c, 1, 39, 0
1, 2332800, Note_on_c, 1, 40, 40
1, 2334240, Note_off_c, 1, 40, 0
1, 2334360, Note_on_c, 1, 45, 40
1, 2334480, Note_off_c, 1, 45, 0
1, 2334480, Note_on_c, 1, 45, 40
1, 2334720, Note_off_c, 1, 45, 0
1, 2334840, Note_on_c, 1, 31, 40
1, 2335080, Note_off_c, 1, 31, 0
1, 2335080, Note_on_c, 1, 31, 40
1, 2335320, Note_off_c, 1, 31, 0
1, 2335560, Note_on_c, 1, 46, 40
1, 2336160, Note_off_c, 1, 46, 0
1, 2336280, Note_on_c, 1, 45, 40
1, 2336400, Note_off_c, 1, 45, 0
1, 2336400, Note_on_c, 1, 45, 40
1, 2336640, Note_off_c, 1, 45, 0
1, 2336760, Note_on_c, 1, 45, 40
1, 2336880, Note_off_c, 1, 45, 0
1, 2336880, Note_on_c, 1, 45, 40
1, 2337120, Note_off_c, 1, 45, 0
1, 2337240, Note_on_c, 1, 45, 40
1, 2337360, Note_off_c, 1, 45, 0
1, 2337360, Note_on_c, 1, 45, 40
1, 2337600, Note_off_c, 1, 45, 0
1, 2337720, Note_on_c, 1, 45, 40
1, 2337840, Note_off_c, 1, 45, 0
1, 2337840, Note_on_c, 1, 45, 40
1, 2338080, Note_off_c, 1, 45, 0
1, 2338200, Note_on_c, 1, 45, 40
1, 2338320, Note_off_c, 1, 45, 0
1, 2338320, Note_on_c, 1, 45, 40
1, 2338560, Note_off_c, 1, 45, 0
1, 2338680, Note_on_c, 1, 45, 40
1, 2338800, Note_off_c, 1, 45, 0
1, 2338800, Note_on_c, 1, 45, 40
1, 2339040, Note_off_c, 1, 45, 0
1, 2339160, Note_on_c, 1, 45, 40
1, 2339280, Note_off_c, 1, 45, 0
1, 2339280, Note_on_c, 1, 45, 40
1, 2339520, Note_off_c, 1, 45, 0
1, 2339640, Note_on_c, 1, 45, 40
1, 2339760, Note_off_c, 1, 45, 0
1, 2339760, Note_on_c, 1, 45, 40
1, 2340000, Note_off_c, 1, 45, 0
1, 2340120, Note_on_c, 1, 45, 40
1, 2340240, Note_off_c, 1, 45, 0
1, 2340240, Note_on_c, 1, 45, 40
1, 2340480, Note_off_c, 1, 45, 0
1, 2340600, Note_on_c, 1, 45, 40
1, 2340720, Note_off_c, 1, 45, 0
1, 2340720, Note_on_c, 1, 45, 40
1, 2340960, Note_off_c, 1, 45, 0
1, 2341080, Note_on_c, 1, 45, 40
1, 2341200, Note_off_c, 1, 45, 0
1, 2341200, Note_on_c, 1, 45, 40
1, 2341440, Note_off_c, 1, 45, 0
1, 2341560, Note_on_c, 1, 45, 40
1, 2341680, Note_off_c, 1, 45, 0
1, 2341680, Note_on_c, 1, 45, 40
1, 2341920, Note_off_c, 1, 45, 0
1, 2342040, Note_on_c, 1, 45, 40
1, 2342160, Note_off_c, 1, 45, 0
1, 2342160, Note_on_c, 1, 45, 40
1, 2342400, Note_off_c, 1, 45, 0
1, 2342520, Note_on_c, 1, 45, 40
1, 2342640, Note_off_c, 1, 45, 0
1, 2342640, Note_on_c, 1, 45, 40
1, 2342880, Note_off_c, 1, 45, 0
1, 2343000, Note_on_c, 1, 45, 40
1, 2343120, Note_off_c, 1, 45, 0
1, 2343120, Note_on_c, 1, 45, 40
1, 2343360, Note_off_c, 1, 45, 0
1, 2343480, Note_on_c, 1, 45, 40
1, 2343600, Note_off_c, 1, 45, 0
1, 2343600, Note_on_c, 1, 45, 40
1, 2343840, Note_off_c, 1, 45, 0
1, 2343960, Note_on_c, 1, 45, 40
1, 2344080, Note_off_c, 1, 45, 0
1, 2344080, Note_on_c, 1, 45, 40
1, 2344320, Note_off_c, 1, 45, 0
1, 2344440, Note_on_c, 1, 31, 40
1, 2344680, Note_off_c, 1, 31, 0
1, 2345160, Note_on_c, 1, 36, 40
1, 2345280, Note_off_c, 1, 36, 0
1, 2348280, Note_on_c, 1, 31, 40
1, 2348520, Note_off_c, 1, 31, 0
1, 2349000, Note_on_c, 1, 36, 40
1, 2349120, Note_off_c, 1, 36, 0
1, 2352120, Note_on_c, 1, 39, 40
1, 2352360, Note_off_c, 1, 39, 0
1, 2352480, Note_on_c, 1, 45, 40
1, 2353920, Note_off_c, 1, 45, 0
1, 2353920, Note_on_c, 1, 35, 40
1, 2354040, Note_off_c, 1, 35, 0
1, 2354040, Note_on_c, 1, 29, 40
1, 2355000, Note_off_c, 1, 29, 0
1, 2355000, Note_on_c, 1, 39, 40
1, 2355120, Note_off_c, 1, 39, 0
1, 2355120, Note_on_c, 1, 36, 40
1, 2357040, Note_off_c, 1, 36, 0
1, 2357040, Note_on_c, 1, 31, 40
1, 2357760, Note_off_c, 1, 31, 0
1, 2357760, Note_on_c, 1, 41, 40
1, 2358000, Note_off_c, 1, 41, 0
1, 2358840, Note_on_c, 1, 45, 40
1, 2358960, Note_off_c, 1, 45, 0
1, 2358960, Note_on_c, 1, 45, 40
1, 2359200, Note_off_c, 1, 45, 0
1, 2359320, Note_on_c, 1, 39, 40
1, 2359560, Note_off_c, 1, 39, 0
1, 2359800, Note_on_c, 1, 45, 40
1, 2360040, Note_off_c, 1, 45, 0
1, 2360280, Note_on_c, 1, 45, 40
1, 2360400, Note_off_c, 1, 45, 0
1, 2360400, Note_on_c, 1, 45, 40
1, 2360640, Note_off_c, 1, 45, 0
1, 2360760, Note_on_c, 1, 45, 40
1, 2360880, Note_off_c, 1, 45, 0
1, 2360880, Note_on_c, 1, 45, 40
1, 2361120, Note_off_c, 1, 45, 0
1, 2361240, Note_on_c, 1, 39, 40
1, 2361480, Note_off_c, 1, 39, 0
1, 2361720, Note_on_c, 1, 45, 40
1, 2361960, Note_off_c, 1, 45, 0
1, 2362200, Note_on_c, 1, 45, 40
1, 2362320, Note_off_c, 1, 45, 0
1, 2362320, Note_on_c, 1, 45, 40
1, 2362560, Note_off_c, 1, 45, 0
1, 2362680, Note_on_c, 1, 45, 40
1, 2362800, Note_off_c, 1, 45, 0
1, 2362800, Note_on_c, 1, 45, 40
1, 2363040, Note_off_c, 1, 45, 0
1, 2363160, Note_on_c, 1, 39, 40
1, 2363400, Note_off_c, 1, 39, 0
1, 2363640, Note_on_c, 1, 45, 40
1, 2363880, Note_off_c, 1, 45, 0
1, 2364120, Note_on_c, 1, 45, 40
1, 2364240, Note_off_c, 1, 45, 0
1, 2364240, Note_on_c, 1, 45, 40
1, 2364480, Note_off_c, 1, 45, 0
1, 2364600, Note_on_c, 1, 45, 40
1, 2364720, Note_off_c, 1, 45, 0
1, 2364720, Note_on_c, 1, 45, 40
1, 2364960, Note_off_c, 1, 45, 0
1, 2365080, Note_on_c, 1, 39, 40
1, 2365320, Note_off_c, 1, 39, 0
1, 2365560, Note_on_c, 1, 45, 40
1, 2365800, Note_off_c, 1, 45, 0
1, 2366040, Note_on_c, 1, 45, 40
1, 2366160, Note_off_c, 1, 45, 0
1, 2366160, Note_on_c, 1, 45, 40
1, 2366400, Note_off_c, 1, 45, 0
1, 2366520, Note_on_c, 1, 45, 40
1, 2366640, Note_off_c, 1, 45, 0
1, 2366640, Note_on_c, 1, 45, 40
1, 2366880, Note_off_c, 1, 45, 0
1, 2367000, Note_on_c, 1, 39, 40
1, 2367240, Note_off_c, 1, 39, 0
1, 2367480, Note_on_c, 1, 45, 40
1, 2367720, Note_off_c, 1, 45, 0
1, 2367960, Note_on_c, 1, 45, 40
1, 2368080, Note_off_c, 1, 45, 0
1, 2368080, Note_on_c, 1, 45, 40
1, 2368320, Note_off_c, 1, 45, 0
1, 2368440, Note_on_c, 1, 45, 40
1, 2368560, Note_off_c, 1, 45, 0
1, 2368560, Note_on_c, 1, 45, 40
1, 2368800, Note_off_c, 1, 45, 0
1, 2368920, Note_on_c, 1, 39, 40
1, 2369160, Note_off_c, 1, 39, 0
1, 2369400, Note_on_c, 1, 45, 40
1, 2369640, Note_off_c, 1, 45, 0
1, 2369880, Note_on_c, 1, 45, 40
1, 2370000, Note_off_c, 1, 45, 0
1, 2370000, Note_on_c, 1, 45, 40
1, 2370240, Note_off_c, 1, 45, 0
1, 2370360, Note_on_c, 1, 45, 40
1, 2370480, Note_off_c, 1, 45, 0
1, 2370480, Note_on_c, 1, 45, 40
1, 2370720, Note_off_c, 1, 45, 0
1, 2370840, Note_on_c, 1, 39, 40
1, 2371080, Note_off_c, 1, 39, 0
1, 2371320, Note_on_c, 1, 45, 40
1, 2371560, Note_off_c, 1, 45, 0
1, 2371800, Note_on_c, 1, 45, 40
1, 2371920, Note_off_c, 1, 45, 0
1, 2371920, Note_on_c, 1, 45, 40
1, 2372160, Note_off_c, 1, 45, 0
1, 2372280, Note_on_c, 1, 45, 40
1, 2372400, Note_off_c, 1, 45, 0
1, 2372400, Note_on_c, 1, 45, 40
1, 2372640, Note_off_c, 1, 45, 0
1, 2372760, Note_on_c, 1, 39, 40
1, 2373000, Note_off_c, 1, 39, 0
1, 2373240, Note_on_c, 1, 45, 40
1, 2373480, Note_off_c, 1, 45, 0
1, 2373720, Note_on_c, 1, 45, 40
1, 2373840, Note_off_c, 1, 45, 0
1, 2373840, Note_on_c, 1, 45, 40
1, 2374080, Note_off_c, 1, 45, 0
1, 2374200, Note_on_c, 1, 45, 40
1, 2374320, Note_off_c, 1, 45, 0
1, 2374320, Note_on_c, 1, 45, 40
1, 2374560, Note_off_c, 1, 45, 0
1, 2374680, Note_on_c, 1, 39, 40
1, 2374920, Note_off_c, 1, 39, 0
1, 2375160, Note_on_c, 1, 45, 40
1, 2375400, Note_off_c, 1, 45, 0
1, 2375640, Note_on_c, 1, 45, 40
1, 2375760, Note_off_c, 1, 45, 0
1, 2375760, Note_on_c, 1, 45, 40
1, 2376000, Note_off_c, 1, 45, 0
1, 2376120, Note_on_c, 1, 45, 40
1, 2376240, Note_off_c, 1, 45, 0
1, 2376240, Note_on_c, 1, 45, 40
1, 2376480, Note_off_c, 1, 45, 0
1, 2376600, Note_on_c, 1, 39, 40
1, 2376840, Note_off_c, 1, 39, 0
1, 2377080, Note_on_c, 1, 45, 40
1, 2377200, Note_off_c, 1, 45, 0
1, 2377200, Note_on_c, 1, 45, 40
1, 2377440, Note_off_c, 1, 45, 0
1, 2377560, Note_on_c, 1, 45, 40
1, 2377680, Note_off_c, 1, 45, 0
1, 2377680, Note_on_c, 1, 45, 40
1, 2377920, Note_off_c, 1, 45, 0
1, 2378040, Note_on_c, 1, 45, 40
1, 2378160, Note_off_c, 1, 45, 0
1, 2378160, Note_on_c, 1, 45, 40
1, 2378400, Note_off_c, 1, 45, 0
1, 2378520, Note_on_c, 1, 39, 40
1, 2378760, Note_off_c, 1, 39, 0
1, 2379000, Note_on_c, 1, 45, 40
1, 2379240, Note_off_c, 1, 45, 0
1, 2379480, Note_on_c, 1, 45, 40
1, 2379600, Note_off_c, 1, 45, 0
1, 2379600, Note_on_c, 1, 45, 40
1, 2379840, Note_off_c, 1, 45, 0
1, 2379960, Note_on_c, 1, 45, 40
1, 2380080, Note_off_c, 1, 45, 0
1, 2380080, Note_on_c, 1, 45, 40
1, 2380320, Note_off_c, 1, 45, 0
1, 2380440, Note_on_c, 1, 39, 40
1, 2380680, Note_off_c, 1, 39, 0
1, 2380920, Note_on_c, 1, 45, 40
1, 2381160, Note_off_c, 1, 45, 0
1, 2381400, Note_on_c, 1, 45, 40
1, 2381520, Note_off_c, 1, 45, 0
1, 2381520, Note_on_c, 1, 45, 40
1, 2381760, Note_off_c, 1, 45, 0
1, 2381880, Note_on_c, 1, 45, 40
1, 2382000, Note_off_c, 1, 45, 0
1, 2382000, Note_on_c, 1, 45, 40
1, 2382240, Note_off_c, 1, 45, 0
1, 2382360, Note_on_c, 1, 39, 40
1, 2382600, Note_off_c, 1, 39, 0
1, 2382840, Note_on_c, 1, 45, 40
1, 2383080, Note_off_c, 1, 45, 0
1, 2383320, Note_on_c, 1, 45, 40
1, 2383440, Note_off_c, 1, 45, 0
1, 2383440, Note_on_c, 1, 45, 40
1, 2383680, Note_off_c, 1, 45, 0
1, 2383800, Note_on_c, 1, 45, 40
1, 2383920, Note_off_c, 1, 45, 0
1, 2383920, Note_on_c, 1, 45, 40
1, 2384160, Note_off_c, 1, 45, 0
1, 2384280, Note_on_c, 1, 39, 40
1, 2384520, Note_off_c, 1, 39, 0
1, 2384760, Note_on_c, 1, 45, 40
1, 2385000, Note_off_c, 1, 45, 0
1, 2385240, Note_on_c, 1, 45, 40
1, 2385360, Note_off_c, 1, 45, 0
1, 2385360, Note_on_c, 1, 45, 40
1, 2385600, Note_off_c, 1, 45, 0
1, 2385720, Note_on_c, 1, 45, 40
1, 2385840, Note_off_c, 1, 45, 0
1, 2385840, Note_on_c, 1, 45, 40
1, 2386080, Note_off_c, 1, 45, 0
1, 2386200, Note_on_c, 1, 34, 40
1, 2386440, Note_off_c, 1, 34, 0
1, 2386440, Note_on_c, 1, 41, 40
1, 2386560, Note_off_c, 1, 41, 0
1, 2386680, Note_on_c, 1, 45, 40
1, 2386800, Note_off_c, 1, 45, 0
1, 2386800, Note_on_c, 1, 45, 40
1, 2387040, Note_off_c, 1, 45, 0
1, 2387160, Note_on_c, 1, 45, 40
1, 2387280, Note_off_c, 1, 45, 0
1, 2387280, Note_on_c, 1, 45, 40
1, 2387520, Note_off_c, 1, 45, 0
1, 2387640, Note_on_c, 1, 45, 40
1, 2387760, Note_off_c, 1, 45, 0
1, 2387760, Note_on_c, 1, 45, 40
1, 2388000, Note_off_c, 1, 45, 0
1, 2388120, Note_on_c, 1, 39, 40
1, 2388360, Note_off_c, 1, 39, 0
1, 2388600, Note_on_c, 1, 45, 40
1, 2388840, Note_off_c, 1, 45, 0
1, 2389080, Note_on_c, 1, 45, 40
1, 2389200, Note_off_c, 1, 45, 0
1, 2389200, Note_on_c, 1, 45, 40
1, 2389440, Note_off_c, 1, 45, 0
1, 2389560, Note_on_c, 1, 45, 40
1, 2389680, Note_off_c, 1, 45, 0
1, 2389680, Note_on_c, 1, 45, 40
1, 2389920, Note_off_c, 1, 45, 0
1, 2390040, Note_on_c, 1, 39, 40
1, 2390280, Note_off_c, 1, 39, 0
1, 2390520, Note_on_c, 1, 45, 40
1, 2390760, Note_off_c, 1, 45, 0
1, 2391000, Note_on_c, 1, 45, 40
1, 2391120, Note_off_c, 1, 45, 0
1, 2391120, Note_on_c, 1, 45, 40
1, 2391360, Note_off_c, 1, 45, 0
1, 2391480, Note_on_c, 1, 45, 40
1, 2391600, Note_off_c, 1, 45, 0
1, 2391600, Note_on_c, 1, 45, 40
1, 2391840, Note_off_c, 1, 45, 0
1, 2391960, Note_on_c, 1, 39, 40
1, 2392200, Note_off_c, 1, 39, 0
1, 2392440, Note_on_c, 1, 45, 40
1, 2392680, Note_off_c, 1, 45, 0
1, 2392920, Note_on_c, 1, 45, 40
1, 2393040, Note_off_c, 1, 45, 0
1, 2393040, Note_on_c, 1, 45, 40
1, 2393280, Note_off_c, 1, 45, 0
1, 2393400, Note_on_c, 1, 45, 40
1, 2393520, Note_off_c, 1, 45, 0
1, 2393520, Note_on_c, 1, 45, 40
1, 2393760, Note_off_c, 1, 45, 0
1, 2393880, Note_on_c, 1, 39, 40
1, 2394120, Note_off_c, 1, 39, 0
1, 2394360, Note_on_c, 1, 45, 40
1, 2394600, Note_off_c, 1, 45, 0
1, 2394840, Note_on_c, 1, 45, 40
1, 2394960, Note_off_c, 1, 45, 0
1, 2394960, Note_on_c, 1, 45, 40
1, 2395200, Note_off_c, 1, 45, 0
1, 2395320, Note_on_c, 1, 45, 40
1, 2395440, Note_off_c, 1, 45, 0
1, 2395440, Note_on_c, 1, 45, 40
1, 2395680, Note_off_c, 1, 45, 0
1, 2395800, Note_on_c, 1, 39, 40
1, 2396040, Note_off_c, 1, 39, 0
1, 2396280, Note_on_c, 1, 45, 40
1, 2396520, Note_off_c, 1, 45, 0
1, 2396760, Note_on_c, 1, 45, 40
1, 2396880, Note_off_c, 1, 45, 0
1, 2396880, Note_on_c, 1, 45, 40
1, 2397120, Note_off_c, 1, 45, 0
1, 2397240, Note_on_c, 1, 45, 40
1, 2397360, Note_off_c, 1, 45, 0
1, 2397360, Note_on_c, 1, 45, 40
1, 2397600, Note_off_c, 1, 45, 0
1, 2397720, Note_on_c, 1, 39, 40
1, 2397960, Note_off_c, 1, 39, 0
1, 2398200, Note_on_c, 1, 45, 40
1, 2398440, Note_off_c, 1, 45, 0
1, 2398680, Note_on_c, 1, 45, 40
1, 2398800, Note_off_c, 1, 45, 0
1, 2398800, Note_on_c, 1, 45, 40
1, 2399040, Note_off_c, 1, 45, 0
1, 2399160, Note_on_c, 1, 45, 40
1, 2399280, Note_off_c, 1, 45, 0
1, 2399280, Note_on_c, 1, 45, 40
1, 2399520, Note_off_c, 1, 45, 0
1, 2399640, Note_on_c, 1, 39, 40
1, 2399880, Note_off_c, 1, 39, 0
1, 2400000, End_track, , , 
2, 0, Start_track, , , 
2, 0, Title_t, Electric Guitar, , 
2, 0, Control_c, 2, 0, 0
2, 0, Program_c, 2, 84,
2, 20640, Note_on_c, 2, 40, 50
2, 20880, Note_off_c, 2, 40, 0
2, 20880, Note_on_c, 2, 52, 50
2, 21120, Note_off_c, 2, 52, 0
2, 21120, Note_on_c, 2, 47, 50
2, 21360, Note_off_c, 2, 47, 0
2, 21360, Note_on_c, 2, 50, 50
2, 21600, Note_off_c, 2, 50, 0
2, 21600, Note_on_c, 2, 40, 50
2, 21720, Note_off_c, 2, 40, 0
2, 21840, Note_on_c, 2, 40, 50
2, 22080, Note_off_c, 2, 40, 0
2, 22080, Note_on_c, 2, 47, 50
2, 22320, Note_off_c, 2, 47, 0
2, 22320, Note_on_c, 2, 50, 50
2, 22560, Note_off_c, 2, 50, 0
2, 22560, Note_on_c, 2, 40, 50
2, 22800, Note_off_c, 2, 40, 0
2, 22800, Note_on_c, 2, 52, 50
2, 23040, Note_off_c, 2, 52, 0
2, 23040, Note_on_c, 2, 47, 50
2, 23280, Note_off_c, 2, 47, 0
2, 23280, Note_on_c, 2, 50, 50
2, 23520, Note_off_c, 2, 50, 0
2, 23520, Note_on_c, 2, 40, 50
2, 23640, Note_off_c, 2, 40, 0
2, 23760, Note_on_c, 2, 40, 50
2, 24000, Note_off_c, 2, 40, 0
2, 24000, Note_on_c, 2, 47, 50
2, 24240, Note_off_c, 2, 47, 0
2, 24240, Note_on_c, 2, 50, 50
2, 24480, Note_off_c, 2, 50, 0
2, 24480, Note_on_c, 2, 40, 50
2, 24720, Note_off_c, 2, 40, 0
2, 24720, Note_on_c, 2, 52, 50
2, 24960, Note_off_c, 2, 52, 0
2, 24960, Note_on_c, 2, 47, 50
2, 25200, Note_off_c, 2, 47, 0
2, 25200, Note_on_c, 2, 50, 50
2, 25440, Note_off_c, 2, 50, 0
2, 25440, Note_on_c, 2, 40, 50
2, 25560, Note_off_c, 2, 40, 0
2, 25680, Note_on_c, 2, 40, 50
2, 25920, Note_off_c, 2, 40, 0
2, 25920, Note_on_c, 2, 47, 50
2, 26160, Note_off_c, 2, 47, 0
2, 26160, Note_on_c, 2, 50, 50
2, 26400, Note_off_c, 2, 50, 0
2, 26400, Note_on_c, 2, 40, 50
2, 26640, Note_off_c, 2, 40, 0
2, 26640, Note_on_c, 2, 52, 50
2, 26880, Note_off_c, 2, 52, 0
2, 26880, Note_on_c, 2, 47, 50
2, 27120, Note_off_c, 2, 47, 0
2, 27120, Note_on_c, 2, 50, 50
2, 27360, Note_off_c, 2, 50, 0
2, 27360, Note_on_c, 2, 40, 50
2, 27480, Note_off_c, 2, 40, 0
2, 27600, Note_on_c, 2, 40, 50
2, 27840, Note_off_c, 2, 40, 0
2, 27840, Note_on_c, 2, 47, 50
2, 28080, Note_off_c, 2, 47, 0
2, 28080, Note_on_c, 2, 50, 50
2, 28320, Note_off_c, 2, 50, 0
2, 28320, Note_on_c, 2, 40, 50
2, 28560, Note_off_c, 2, 40, 0
2, 28560, Note_on_c, 2, 52, 50
2, 28800, Note_off_c, 2, 52, 0
2, 28800, Note_on_c, 2, 47, 50
2, 29040, Note_off_c, 2, 47, 0
2, 29040, Note_on_c, 2, 50, 50
2, 29280, Note_off_c, 2, 50, 0
2, 29280, Note_on_c, 2, 40, 50
2, 29400, Note_off_c, 2, 40, 0
2, 29520, Note_on_c, 2, 40, 50
2, 29760, Note_off_c, 2, 40, 0
2, 29760, Note_on_c, 2, 47, 50
2, 30000, Note_off_c, 2, 47, 0
2, 30000, Note_on_c, 2, 50, 50
2, 30240, Note_off_c, 2, 50, 0
2, 30240, Note_on_c, 2, 40, 50
2, 30480, Note_off_c, 2, 40, 0
2, 30480, Note_on_c, 2, 52, 50
2, 30720, Note_off_c, 2, 52, 0
2, 30720, Note_on_c, 2, 47, 50
2, 30960, Note_off_c, 2, 47, 0
2, 30960, Note_on_c, 2, 50, 50
2, 31200, Note_off_c, 2, 50, 0
2, 31200, Note_on_c, 2, 40, 50
2, 31320, Note_off_c, 2, 40, 0
2, 31440, Note_on_c, 2, 40, 50
2, 31680, Note_off_c, 2, 40, 0
2, 31680, Note_on_c, 2, 47, 50
2, 31920, Note_off_c, 2, 47, 0
2, 31920, Note_on_c, 2, 50, 50
2, 32160, Note_off_c, 2, 50, 0
2, 32160, Note_on_c, 2, 40, 50
2, 32400, Note_off_c, 2, 40, 0
2, 32400, Note_on_c, 2, 52, 50
2, 32640, Note_off_c, 2, 52, 0
2, 32640, Note_on_c, 2, 47, 50
2, 32880, Note_off_c, 2, 47, 0
2, 32880, Note_on_c, 2, 50, 50
2, 33120, Note_off_c, 2, 50, 0
2, 33120, Note_on_c, 2, 40, 50
2, 33240, Note_off_c, 2, 40, 0
2, 33360, Note_on_c, 2, 40, 50
2, 33600, Note_off_c, 2, 40, 0
2, 33600, Note_on_c, 2, 47, 50
2, 33840, Note_off_c, 2, 47, 0
2, 33840, Note_on_c, 2, 50, 50
2, 34080, Note_off_c, 2, 50, 0
2, 34080, Note_on_c, 2, 40, 50
2, 34320, Note_off_c, 2, 40, 0
2, 34320, Note_on_c, 2, 52, 50
2, 34560, Note_off_c, 2, 52, 0
2, 34560, Note_on_c, 2, 47, 50
2, 34800, Note_off_c, 2, 47, 0
2, 34800, Note_on_c, 2, 50, 50
2, 35040, Note_off_c, 2, 50, 0
2, 35040, Note_on_c, 2, 40, 50
2, 35160, Note_off_c, 2, 40, 0
2, 35280, Note_on_c, 2, 40, 50
2, 35520, Note_off_c, 2, 40, 0
2, 35520, Note_on_c, 2, 47, 50
2, 35760, Note_off_c, 2, 47, 0
2, 35760, Note_on_c, 2, 50, 50
2, 36000, Note_off_c, 2, 50, 0
2, 36000, Note_on_c, 2, 40, 50
2, 36240, Note_off_c, 2, 40, 0
2, 36240, Note_on_c, 2, 52, 50
2, 36480, Note_off_c, 2, 52, 0
2, 36480, Note_on_c, 2, 47, 50
2, 36720, Note_off_c, 2, 47, 0
2, 36720, Note_on_c, 2, 50, 50
2, 36960, Note_off_c, 2, 50, 0
2, 36960, Note_on_c, 2, 40, 50
2, 37080, Note_off_c, 2, 40, 0
2, 37200, Note_on_c, 2, 40, 50
2, 37440, Note_off_c, 2, 40, 0
2, 37440, Note_on_c, 2, 47, 50
2, 37680, Note_off_c, 2, 47, 0
2, 37680, Note_on_c, 2, 50, 50
2, 37920, Note_off_c, 2, 50, 0
2, 37920, Note_on_c, 2, 40, 50
2, 38160, Note_off_c, 2, 40, 0
2, 38160, Note_on_c, 2, 52, 50
2, 38400, Note_off_c, 2, 52, 0
2, 38400, Note_on_c, 2, 47, 50
2, 38640, Note_off_c, 2, 47, 0
2, 38640, Note_on_c, 2, 50, 50
2, 38880, Note_off_c, 2, 50, 0
2, 38880, Note_on_c, 2, 40, 50
2, 39000, Note_off_c, 2, 40, 0
2, 39120, Note_on_c, 2, 40, 50
2, 39360, Note_off_c, 2, 40, 0
2, 39360, Note_on_c, 2, 47, 50
2, 39600, Note_off_c, 2, 47, 0
2, 39600, Note_on_c, 2, 50, 50
2, 39840, Note_off_c, 2, 50, 0
2, 39840, Note_on_c, 2, 40, 50
2, 40080, Note_off_c, 2, 40, 0
2, 40080, Note_on_c, 2, 52, 50
2, 40320, Note_off_c, 2, 52, 0
2, 40320, Note_on_c, 2, 47, 50
2, 40560, Note_off_c, 2, 47, 0
2, 40560, Note_on_c, 2, 50, 50
2, 40800, Note_off_c, 2, 50, 0
2, 40800, Note_on_c, 2, 40, 50
2, 40920, Note_off_c, 2, 40, 0
2, 41040, Note_on_c, 2, 40, 50
2, 41280, Note_off_c, 2, 40, 0
2, 41280, Note_on_c, 2, 47, 50
2, 41520, Note_off_c, 2, 47, 0
2, 41520, Note_on_c, 2, 50, 50
2, 41760, Note_off_c, 2, 50, 0
2, 41760, Note_on_c, 2, 40, 50
2, 42000, Note_off_c, 2, 40, 0
2, 42000, Note_on_c, 2, 52, 50
2, 42240, Note_off_c, 2, 52, 0
2, 42240, Note_on_c, 2, 47, 50
2, 42480, Note_off_c, 2, 47, 0
2, 42480, Note_on_c, 2, 50, 50
2, 42720, Note_off_c, 2, 50, 0
2, 42720, Note_on_c, 2, 40, 50
2, 42840, Note_off_c, 2, 40, 0
2, 42960, Note_on_c, 2, 40, 50
2, 43200, Note_off_c, 2, 40, 0
2, 43200, Note_on_c, 2, 47, 50
2, 43440, Note_off_c, 2, 47, 0
2, 43440, Note_on_c, 2, 50, 50
2, 43680, Note_off_c, 2, 50, 0
2, 43680, Note_on_c, 2, 40, 50
2, 43920, Note_off_c, 2, 40, 0
2, 43920, Note_on_c, 2, 52, 50
2, 44160, Note_off_c, 2, 52, 0
2, 44160, Note_on_c, 2, 47, 50
2, 44400, Note_off_c, 2, 47, 0
2, 44400, Note_on_c, 2, 50, 50
2, 44640, Note_off_c, 2, 50, 0
2, 44640, Note_on_c, 2, 40, 50
2, 44760, Note_off_c, 2, 40, 0
2, 44880, Note_on_c, 2, 40, 50
2, 45120, Note_off_c, 2, 40, 0
2, 45120, Note_on_c, 2, 47, 50
2, 45360, Note_off_c, 2, 47, 0
2, 45360, Note_on_c, 2, 50, 50
2, 45600, Note_off_c, 2, 50, 0
2, 45600, Note_on_c, 2, 40, 50
2, 45840, Note_off_c, 2, 40, 0
2, 45840, Note_on_c, 2, 52, 50
2, 46080, Note_off_c, 2, 52, 0
2, 46080, Note_on_c, 2, 47, 50
2, 46320, Note_off_c, 2, 47, 0
2, 46320, Note_on_c, 2, 50, 50
2, 46560, Note_off_c, 2, 50, 0
2, 46560, Note_on_c, 2, 40, 50
2, 46680, Note_off_c, 2, 40, 0
2, 46800, Note_on_c, 2, 40, 50
2, 47040, Note_off_c, 2, 40, 0
2, 47040, Note_on_c, 2, 47, 50
2, 47280, Note_off_c, 2, 47, 0
2, 47280, Note_on_c, 2, 50, 50
2, 47520, Note_off_c, 2, 50, 0
2, 47520, Note_on_c, 2, 40, 50
2, 47760, Note_off_c, 2, 40, 0
2, 47760, Note_on_c, 2, 52, 50
2, 48000, Note_off_c, 2, 52, 0
2, 48000, Note_on_c, 2, 47, 50
2, 48240, Note_off_c, 2, 47, 0
2, 48240, Note_on_c, 2, 50, 50
2, 48480, Note_off_c, 2, 50, 0
2, 48480, Note_on_c, 2, 40, 50
2, 48600, Note_off_c, 2, 40, 0
2, 48720, Note_on_c, 2, 40, 50
2, 48960, Note_off_c, 2, 40, 0
2, 48960, Note_on_c, 2, 47, 50
2, 49200, Note_off_c, 2, 47, 0
2, 49200, Note_on_c, 2, 50, 50
2, 49440, Note_off_c, 2, 50, 0
2, 49440, Note_on_c, 2, 40, 50
2, 49680, Note_off_c, 2, 40, 0
2, 49680, Note_on_c, 2, 52, 50
2, 49920, Note_off_c, 2, 52, 0
2, 49920, Note_on_c, 2, 47, 50
2, 50160, Note_off_c, 2, 47, 0
2, 50160, Note_on_c, 2, 50, 50
2, 50400, Note_off_c, 2, 50, 0
2, 50400, Note_on_c, 2, 40, 50
2, 50520, Note_off_c, 2, 40, 0
2, 50640, Note_on_c, 2, 40, 50
2, 50880, Note_off_c, 2, 40, 0
2, 50880, Note_on_c, 2, 47, 50
2, 51120, Note_off_c, 2, 47, 0
2, 51120, Note_on_c, 2, 50, 50
2, 51360, Note_off_c, 2, 50, 0
2, 51360, Note_on_c, 2, 40, 50
2, 51600, Note_off_c, 2, 40, 0
2, 51600, Note_on_c, 2, 52, 50
2, 51840, Note_off_c, 2, 52, 0
2, 51840, Note_on_c, 2, 47, 50
2, 52080, Note_off_c, 2, 47, 0
2, 52080, Note_on_c, 2, 50, 50
2, 52320, Note_off_c, 2, 50, 0
2, 52320, Note_on_c, 2, 40, 50
2, 52440, Note_off_c, 2, 40, 0
2, 52560, Note_on_c, 2, 40, 50
2, 52800, Note_off_c, 2, 40, 0
2, 52800, Note_on_c, 2, 47, 50
2, 53040, Note_off_c, 2, 47, 0
2, 53040, Note_on_c, 2, 50, 50
2, 53280, Note_off_c, 2, 50, 0
2, 53280, Note_on_c, 2, 40, 50
2, 53520, Note_off_c, 2, 40, 0
2, 53520, Note_on_c, 2, 52, 50
2, 53760, Note_off_c, 2, 52, 0
2, 53760, Note_on_c, 2, 47, 50
2, 54000, Note_off_c, 2, 47, 0
2, 54000, Note_on_c, 2, 50, 50
2, 54240, Note_off_c, 2, 50, 0
2, 54240, Note_on_c, 2, 40, 50
2, 54360, Note_off_c, 2, 40, 0
2, 54480, Note_on_c, 2, 40, 50
2, 54720, Note_off_c, 2, 40, 0
2, 54720, Note_on_c, 2, 47, 50
2, 54960, Note_off_c, 2, 47, 0
2, 54960, Note_on_c, 2, 50, 50
2, 55200, Note_off_c, 2, 50, 0
2, 55200, Note_on_c, 2, 40, 50
2, 55440, Note_off_c, 2, 40, 0
2, 55440, Note_on_c, 2, 52, 50
2, 55680, Note_off_c, 2, 52, 0
2, 55680, Note_on_c, 2, 47, 50
2, 55920, Note_off_c, 2, 47, 0
2, 55920, Note_on_c, 2, 50, 50
2, 56160, Note_off_c, 2, 50, 0
2, 56160, Note_on_c, 2, 40, 50
2, 56280, Note_off_c, 2, 40, 0
2, 56400, Note_on_c, 2, 40, 50
2, 56640, Note_off_c, 2, 40, 0
2, 56640, Note_on_c, 2, 47, 50
2, 56880, Note_off_c, 2, 47, 0
2, 56880, Note_on_c, 2, 50, 50
2, 57120, Note_off_c, 2, 50, 0
2, 57120, Note_on_c, 2, 40, 50
2, 57360, Note_off_c, 2, 40, 0
2, 57360, Note_on_c, 2, 52, 50
2, 57600, Note_off_c, 2, 52, 0
2, 57600, Note_on_c, 2, 47, 50
2, 57840, Note_off_c, 2, 47, 0
2, 57840, Note_on_c, 2, 50, 50
2, 58080, Note_off_c, 2, 50, 0
2, 58080, Note_on_c, 2, 40, 50
2, 58200, Note_off_c, 2, 40, 0
2, 58320, Note_on_c, 2, 40, 50
2, 58560, Note_off_c, 2, 40, 0
2, 58560, Note_on_c, 2, 47, 50
2, 58800, Note_off_c, 2, 47, 0
2, 58800, Note_on_c, 2, 50, 50
2, 59040, Note_off_c, 2, 50, 0
2, 59040, Note_on_c, 2, 40, 50
2, 59280, Note_off_c, 2, 40, 0
2, 59280, Note_on_c, 2, 52, 50
2, 59520, Note_off_c, 2, 52, 0
2, 59520, Note_on_c, 2, 47, 50
2, 59760, Note_off_c, 2, 47, 0
2, 59760, Note_on_c, 2, 50, 50
2, 60000, Note_off_c, 2, 50, 0
2, 60000, Note_on_c, 2, 40, 50
2, 60120, Note_off_c, 2, 40, 0
2, 60240, Note_on_c, 2, 40, 50
2, 60480, Note_off_c, 2, 40, 0
2, 60480, Note_on_c, 2, 47, 50
2, 60720, Note_off_c, 2, 47, 0
2, 60720, Note_on_c, 2, 50, 50
2, 60960, Note_off_c, 2, 50, 0
2, 60960, Note_on_c, 2, 40, 50
2, 61200, Note_off_c, 2, 40, 0
2, 61200, Note_on_c, 2, 52, 50
2, 61440, Note_off_c, 2, 52, 0
2, 61440, Note_on_c, 2, 47, 50
2, 61680, Note_off_c, 2, 47, 0
2, 61680, Note_on_c, 2, 50, 50
2, 61920, Note_off_c, 2, 50, 0
2, 61920, Note_on_c, 2, 40, 50
2, 62040, Note_off_c, 2, 40, 0
2, 62160, Note_on_c, 2, 40, 50
2, 62400, Note_off_c, 2, 40, 0
2, 62400, Note_on_c, 2, 47, 50
2, 62640, Note_off_c, 2, 47, 0
2, 62640, Note_on_c, 2, 50, 50
2, 62880, Note_off_c, 2, 50, 0
2, 62880, Note_on_c, 2, 40, 50
2, 63120, Note_off_c, 2, 40, 0
2, 63120, Note_on_c, 2, 52, 50
2, 63360, Note_off_c, 2, 52, 0
2, 63360, Note_on_c, 2, 47, 50
2, 63600, Note_off_c, 2, 47, 0
2, 63600, Note_on_c, 2, 50, 50
2, 63840, Note_off_c, 2, 50, 0
2, 63840, Note_on_c, 2, 40, 50
2, 63960, Note_off_c, 2, 40, 0
2, 64080, Note_on_c, 2, 40, 50
2, 64320, Note_off_c, 2, 40, 0
2, 64320, Note_on_c, 2, 47, 50
2, 64560, Note_off_c, 2, 47, 0
2, 64560, Note_on_c, 2, 50, 50
2, 64800, Note_off_c, 2, 50, 0
2, 64800, Note_on_c, 2, 40, 50
2, 65040, Note_off_c, 2, 40, 0
2, 65040, Note_on_c, 2, 52, 50
2, 65280, Note_off_c, 2, 52, 0
2, 65280, Note_on_c, 2, 47, 50
2, 65520, Note_off_c, 2, 47, 0
2, 65520, Note_on_c, 2, 50, 50
2, 65760, Note_off_c, 2, 50, 0
2, 65760, Note_on_c, 2, 40, 50
2, 65880, Note_off_c, 2, 40, 0
2, 66000, Note_on_c, 2, 40, 50
2, 66240, Note_off_c, 2, 40, 0
2, 66240, Note_on_c, 2, 47, 50
2, 66480, Note_off_c, 2, 47, 0
2, 66480, Note_on_c, 2, 50, 50
2, 66720, Note_off_c, 2, 50, 0
2, 66720, Note_on_c, 2, 40, 50
2, 66960, Note_off_c, 2, 40, 0
2, 66960, Note_on_c, 2, 52, 50
2, 67200, Note_off_c, 2, 52, 0
2, 67200, Note_on_c, 2, 47, 50
2, 67440, Note_off_c, 2, 47, 0
2, 67440, Note_on_c, 2, 50, 50
2, 67680, Note_off_c, 2, 50, 0
2, 67680, Note_on_c, 2, 40, 50
2, 67800, Note_off_c, 2, 40, 0
2, 67920, Note_on_c, 2, 40, 50
2, 68160, Note_off_c, 2, 40, 0
2, 68160, Note_on_c, 2, 47, 50
2, 68400, Note_off_c, 2, 47, 0
2, 68400, Note_on_c, 2, 50, 50
2, 68640, Note_off_c, 2, 50, 0
2, 68640, Note_on_c, 2, 40, 50
2, 68880, Note_off_c, 2, 40, 0
2, 68880, Note_on_c, 2, 52, 50
2, 69120, Note_off_c, 2, 52, 0
2, 69120, Note_on_c, 2, 47, 50
2, 69360, Note_off_c, 2, 47, 0
2, 69360, Note_on_c, 2, 50, 50
2, 69600, Note_off_c, 2, 50, 0
2, 69600, Note_on_c, 2, 40, 50
2, 69720, Note_off_c, 2, 40, 0
2, 69840, Note_on_c, 2, 40, 50
2, 70080, Note_off_c, 2, 40, 0
2, 70080, Note_on_c, 2, 47, 50
2, 70320, Note_off_c, 2, 47, 0
2, 70320, Note_on_c, 2, 50, 50
2, 70560, Note_off_c, 2, 50, 0
2, 70560, Note_on_c, 2, 40, 50
2, 70800, Note_off_c, 2, 40, 0
2, 70800, Note_on_c, 2, 52, 50
2, 71040, Note_off_c, 2, 52, 0
2, 71040, Note_on_c, 2, 47, 50
2, 71280, Note_off_c, 2, 47, 0
2, 71280, Note_on_c, 2, 50, 50
2, 71520, Note_off_c, 2, 50, 0
2, 71520, Note_on_c, 2, 40, 50
2, 71640, Note_off_c, 2, 40, 0
2, 71760, Note_on_c, 2, 40, 50
2, 72000, Note_off_c, 2, 40, 0
2, 72000, Note_on_c, 2, 47, 50
2, 72240, Note_off_c, 2, 47, 0
2, 72240, Note_on_c, 2, 50, 50
2, 72480, Note_off_c, 2, 50, 0
2, 72480, Note_on_c, 2, 40, 50
2, 72720, Note_off_c, 2, 40, 0
2, 72720, Note_on_c, 2, 52, 50
2, 72960, Note_off_c, 2, 52, 0
2, 72960, Note_on_c, 2, 47, 50
2, 73200, Note_off_c, 2, 47, 0
2, 73200, Note_on_c, 2, 50, 50
2, 73440, Note_off_c, 2, 50, 0
2, 73440, Note_on_c, 2, 40, 50
2, 73560, Note_off_c, 2, 40, 0
2, 73680, Note_on_c, 2, 40, 50
2, 73920, Note_off_c, 2, 40, 0
2, 73920, Note_on_c, 2, 47, 50
2, 74160, Note_off_c, 2, 47, 0
2, 74160, Note_on_c, 2, 50, 50
2, 74400, Note_off_c, 2, 50, 0
2, 105120, Note_on_c, 2, 40, 50
2, 105360, Note_off_c, 2, 40, 0
2, 105360, Note_on_c, 2, 52, 50
2, 105600, Note_off_c, 2, 52, 0
2, 105600, Note_on_c, 2, 47, 50
2, 105840, Note_off_c, 2, 47, 0
2, 105840, Note_on_c, 2, 50, 50
2, 106080, Note_off_c, 2, 50, 0
2, 106080, Note_on_c, 2, 40, 50
2, 106200, Note_off_c, 2, 40, 0
2, 106320, Note_on_c, 2, 40, 50
2, 106560, Note_off_c, 2, 40, 0
2, 106560, Note_on_c, 2, 47, 50
2, 106800, Note_off_c, 2, 47, 0
2, 106800, Note_on_c, 2, 50, 50
2, 107040, Note_off_c, 2, 50, 0
2, 107040, Note_on_c, 2, 40, 50
2, 107280, Note_off_c, 2, 40, 0
2, 107280, Note_on_c, 2, 52, 50
2, 107520, Note_off_c, 2, 52, 0
2, 107520, Note_on_c, 2, 47, 50
2, 107760, Note_off_c, 2, 47, 0
2, 107760, Note_on_c, 2, 50, 50
2, 108000, Note_off_c, 2, 50, 0
2, 108000, Note_on_c, 2, 40, 50
2, 108120, Note_off_c, 2, 40, 0
2, 108240, Note_on_c, 2, 40, 50
2, 108480, Note_off_c, 2, 40, 0
2, 108480, Note_on_c, 2, 47, 50
2, 108720, Note_off_c, 2, 47, 0
2, 108720, Note_on_c, 2, 50, 50
2, 108960, Note_off_c, 2, 50, 0
2, 108960, Note_on_c, 2, 40, 50
2, 109200, Note_off_c, 2, 40, 0
2, 109200, Note_on_c, 2, 52, 50
2, 109440, Note_off_c, 2, 52, 0
2, 109440, Note_on_c, 2, 47, 50
2, 109680, Note_off_c, 2, 47, 0
2, 109680, Note_on_c, 2, 50, 50
2, 109920, Note_off_c, 2, 50, 0
2, 109920, Note_on_c, 2, 40, 50
2, 110040, Note_off_c, 2, 40, 0
2, 110160, Note_on_c, 2, 40, 50
2, 110400, Note_off_c, 2, 40, 0
2, 110400, Note_on_c, 2, 47, 50
2, 110640, Note_off_c, 2, 47, 0
2, 110640, Note_on_c, 2, 50, 50
2, 110880, Note_off_c, 2, 50, 0
2, 110880, Note_on_c, 2, 40, 50
2, 111120, Note_off_c, 2, 40, 0
2, 111120, Note_on_c, 2, 52, 50
2, 111360, Note_off_c, 2, 52, 0
2, 111360, Note_on_c, 2, 47, 50
2, 111600, Note_off_c, 2, 47, 0
2, 111600, Note_on_c, 2, 50, 50
2, 111840, Note_off_c, 2, 50, 0
2, 111840, Note_on_c, 2, 40, 50
2, 111960, Note_off_c, 2, 40, 0
2, 112080, Note_on_c, 2, 40, 50
2, 112320, Note_off_c, 2, 40, 0
2, 112320, Note_on_c, 2, 47, 50
2, 112560, Note_off_c, 2, 47, 0
2, 112560, Note_on_c, 2, 50, 50
2, 112800, Note_off_c, 2, 50, 0
2, 112800, Note_on_c, 2, 40, 50
2, 113040, Note_off_c, 2, 40, 0
2, 113040, Note_on_c, 2, 52, 50
2, 113280, Note_off_c, 2, 52, 0
2, 113280, Note_on_c, 2, 47, 50
2, 113520, Note_off_c, 2, 47, 0
2, 113520, Note_on_c, 2, 50, 50
2, 113760, Note_off_c, 2, 50, 0
2, 113760, Note_on_c, 2, 40, 50
2, 113880, Note_off_c, 2, 40, 0
2, 114000, Note_on_c, 2, 40, 50
2, 114240, Note_off_c, 2, 40, 0
2, 114240, Note_on_c, 2, 47, 50
2, 114480, Note_off_c, 2, 47, 0
2, 114480, Note_on_c, 2, 50, 50
2, 114720, Note_off_c, 2, 50, 0
2, 114720, Note_on_c, 2, 40, 50
2, 114960, Note_off_c, 2, 40, 0
2, 114960, Note_on_c, 2, 52, 50
2, 115200, Note_off_c, 2, 52, 0
2, 115200, Note_on_c, 2, 47, 50
2, 115440, Note_off_c, 2, 47, 0
2, 115440, Note_on_c, 2, 50, 50
2, 115680, Note_off_c, 2, 50, 0
2, 115680, Note_on_c, 2, 40, 50
2, 115800, Note_off_c, 2, 40, 0
2, 115920, Note_on_c, 2, 40, 50
2, 116160, Note_off_c, 2, 40, 0
2, 116160, Note_on_c, 2, 47, 50
2, 116400, Note_off_c, 2, 47, 0
2, 116400, Note_on_c, 2, 50, 50
2, 116640, Note_off_c, 2, 50, 0
2, 116640, Note_on_c, 2, 40, 50
2, 116880, Note_off_c, 2, 40, 0
2, 116880, Note_on_c, 2, 52, 50
2, 117120, Note_off_c, 2, 52, 0
2, 117120, Note_on_c, 2, 47, 50
2, 117360, Note_off_c, 2, 47, 0
2, 117360, Note_on_c, 2, 50, 50
2, 117600, Note_off_c, 2, 50, 0
2, 117600, Note_on_c, 2, 40, 50
2, 117720, Note_off_c, 2, 40, 0
2, 117840, Note_on_c, 2, 40, 50
2, 118080, Note_off_c, 2, 40, 0
2, 118080, Note_on_c, 2, 47, 50
2, 118320, Note_off_c, 2, 47, 0
2, 118320, Note_on_c, 2, 50, 50
2, 118560, Note_off_c, 2, 50, 0
2, 118560, Note_on_c, 2, 40, 50
2, 118800, Note_off_c, 2, 40, 0
2, 118800, Note_on_c, 2, 52, 50
2, 119040, Note_off_c, 2, 52, 0
2, 119040, Note_on_c, 2, 47, 50
2, 119280, Note_off_c, 2, 47, 0
2, 119280, Note_on_c, 2, 50, 50
2, 119520, Note_off_c, 2, 50, 0
2, 119520, Note_on_c, 2, 40, 50
2, 119640, Note_off_c, 2, 40, 0
2, 119760, Note_on_c, 2, 40, 50
2, 120000, Note_off_c, 2, 40, 0
2, 120000, Note_on_c, 2, 47, 50
2, 120240, Note_off_c, 2, 47, 0
2, 120240, Note_on_c, 2, 50, 50
2, 120480, Note_off_c, 2, 50, 0
2, 120480, Note_on_c, 2, 40, 50
2, 120720, Note_off_c, 2, 40, 0
2, 120720, Note_on_c, 2, 52, 50
2, 120960, Note_off_c, 2, 52, 0
2, 120960, Note_on_c, 2, 47, 50
2, 121200, Note_off_c, 2, 47, 0
2, 121200, Note_on_c, 2, 50, 50
2, 121440, Note_off_c, 2, 50, 0
2, 121440, Note_on_c, 2, 40, 50
2, 121560, Note_off_c, 2, 40, 0
2, 121680, Note_on_c, 2, 40, 50
2, 121920, Note_off_c, 2, 40, 0
2, 121920, Note_on_c, 2, 47, 50
2, 122160, Note_off_c, 2, 47, 0
2, 122160, Note_on_c, 2, 50, 50
2, 122400, Note_off_c, 2, 50, 0
2, 122400, Note_on_c, 2, 40, 50
2, 122640, Note_off_c, 2, 40, 0
2, 122640, Note_on_c, 2, 52, 50
2, 122880, Note_off_c, 2, 52, 0
2, 122880, Note_on_c, 2, 47, 50
2, 123120, Note_off_c, 2, 47, 0
2, 123120, Note_on_c, 2, 50, 50
2, 123360, Note_off_c, 2, 50, 0
2, 123360, Note_on_c, 2, 40, 50
2, 123480, Note_off_c, 2, 40, 0
2, 123600, Note_on_c, 2, 40, 50
2, 123840, Note_off_c, 2, 40, 0
2, 123840, Note_on_c, 2, 47, 50
2, 124080, Note_off_c, 2, 47, 0
2, 124080, Note_on_c, 2, 50, 50
2, 124320, Note_off_c, 2, 50, 0
2, 124320, Note_on_c, 2, 40, 50
2, 124560, Note_off_c, 2, 40, 0
2, 124560, Note_on_c, 2, 52, 50
2, 124800, Note_off_c, 2, 52, 0
2, 124800, Note_on_c, 2, 47, 50
2, 125040, Note_off_c, 2, 47, 0
2, 125040, Note_on_c, 2, 50, 50
2, 125280, Note_off_c, 2, 50, 0
2, 125280, Note_on_c, 2, 40, 50
2, 125400, Note_off_c, 2, 40, 0
2, 125520, Note_on_c, 2, 40, 50
2, 125760, Note_off_c, 2, 40, 0
2, 125760, Note_on_c, 2, 47, 50
2, 126000, Note_off_c, 2, 47, 0
2, 126000, Note_on_c, 2, 50, 50
2, 126240, Note_off_c, 2, 50, 0
2, 126240, Note_on_c, 2, 40, 50
2, 126480, Note_off_c, 2, 40, 0
2, 126480, Note_on_c, 2, 52, 50
2, 126720, Note_off_c, 2, 52, 0
2, 126720, Note_on_c, 2, 47, 50
2, 126960, Note_off_c, 2, 47, 0
2, 126960, Note_on_c, 2, 50, 50
2, 127200, Note_off_c, 2, 50, 0
2, 127200, Note_on_c, 2, 40, 50
2, 127320, Note_off_c, 2, 40, 0
2, 127440, Note_on_c, 2, 40, 50
2, 127680, Note_off_c, 2, 40, 0
2, 127680, Note_on_c, 2, 47, 50
2, 127920, Note_off_c, 2, 47, 0
2, 127920, Note_on_c, 2, 50, 50
2, 128160, Note_off_c, 2, 50, 0
2, 128160, Note_on_c, 2, 40, 50
2, 128400, Note_off_c, 2, 40, 0
2, 128400, Note_on_c, 2, 52, 50
2, 128640, Note_off_c, 2, 52, 0
2, 128640, Note_on_c, 2, 47, 50
2, 128880, Note_off_c, 2, 47, 0
2, 128880, Note_on_c, 2, 50, 50
2, 129120, Note_off_c, 2, 50, 0
2, 129120, Note_on_c, 2, 40, 50
2, 129240, Note_off_c, 2, 40, 0
2, 129360, Note_on_c, 2, 40, 50
2, 129600, Note_off_c, 2, 40, 0
2, 129600, Note_on_c, 2, 47, 50
2, 129840, Note_off_c, 2, 47, 0
2, 129840, Note_on_c, 2, 50, 50
2, 130080, Note_off_c, 2, 50, 0
2, 130080, Note_on_c, 2, 40, 50
2, 130320, Note_off_c, 2, 40, 0
2, 130320, Note_on_c, 2, 52, 50
2, 130560, Note_off_c, 2, 52, 0
2, 130560, Note_on_c, 2, 47, 50
2, 130800, Note_off_c, 2, 47, 0
2, 130800, Note_on_c, 2, 50, 50
2, 131040, Note_off_c, 2, 50, 0
2, 131040, Note_on_c, 2, 40, 50
2, 131160, Note_off_c, 2, 40, 0
2, 131280, Note_on_c, 2, 40, 50
2, 131520, Note_off_c, 2, 40, 0
2, 131520, Note_on_c, 2, 47, 50
2, 131760, Note_off_c, 2, 47, 0
2, 131760, Note_on_c, 2, 50, 50
2, 132000, Note_off_c, 2, 50, 0
2, 132000, Note_on_c, 2, 40, 50
2, 132240, Note_off_c, 2, 40, 0
2, 132240, Note_on_c, 2, 52, 50
2, 132480, Note_off_c, 2, 52, 0
2, 132480, Note_on_c, 2, 47, 50
2, 132720, Note_off_c, 2, 47, 0
2, 132720, Note_on_c, 2, 50, 50
2, 132960, Note_off_c, 2, 50, 0
2, 132960, Note_on_c, 2, 40, 50
2, 133080, Note_off_c, 2, 40, 0
2, 133200, Note_on_c, 2, 40, 50
2, 133440, Note_off_c, 2, 40, 0
2, 133440, Note_on_c, 2, 47, 50
2, 133680, Note_off_c, 2, 47, 0
2, 133680, Note_on_c, 2, 50, 50
2, 133920, Note_off_c, 2, 50, 0
2, 133920, Note_on_c, 2, 40, 50
2, 134160, Note_off_c, 2, 40, 0
2, 134160, Note_on_c, 2, 52, 50
2, 134400, Note_off_c, 2, 52, 0
2, 134400, Note_on_c, 2, 47, 50
2, 134640, Note_off_c, 2, 47, 0
2, 134640, Note_on_c, 2, 50, 50
2, 134880, Note_off_c, 2, 50, 0
2, 134880, Note_on_c, 2, 40, 50
2, 135000, Note_off_c, 2, 40, 0
2, 135120, Note_on_c, 2, 40, 50
2, 135360, Note_off_c, 2, 40, 0
2, 135360, Note_on_c, 2, 47, 50
2, 135600, Note_off_c, 2, 47, 0
2, 135600, Note_on_c, 2, 50, 50
2, 135840, Note_off_c, 2, 50, 0
2, 135840, Note_on_c, 2, 40, 50
2, 136080, Note_off_c, 2, 40, 0
2, 136080, Note_on_c, 2, 52, 50
2, 136320, Note_off_c, 2, 52, 0
2, 136320, Note_on_c, 2, 47, 50
2, 136560, Note_off_c, 2, 47, 0
2, 136560, Note_on_c, 2, 50, 50
2, 136800, Note_off_c, 2, 50, 0
2, 136800, Note_on_c, 2, 40, 50
2, 136920, Note_off_c, 2, 40, 0
2, 137040, Note_on_c, 2, 40, 50
2, 137280, Note_off_c, 2, 40, 0
2, 137280, Note_on_c, 2, 47, 50
2, 137520, Note_off_c, 2, 47, 0
2, 137520, Note_on_c, 2, 50, 50
2, 137760, Note_off_c, 2, 50, 0
2, 137760, Note_on_c, 2, 40, 50
2, 138000, Note_off_c, 2, 40, 0
2, 138000, Note_on_c, 2, 52, 50
2, 138240, Note_off_c, 2, 52, 0
2, 138240, Note_on_c, 2, 47, 50
2, 138480, Note_off_c, 2, 47, 0
2, 138480, Note_on_c, 2, 50, 50
2, 138720, Note_off_c, 2, 50, 0
2, 138720, Note_on_c, 2, 40, 50
2, 138840, Note_off_c, 2, 40, 0
2, 138960, Note_on_c, 2, 40, 50
2, 139200, Note_off_c, 2, 40, 0
2, 139200, Note_on_c, 2, 47, 50
2, 139440, Note_off_c, 2, 47, 0
2, 139440, Note_on_c, 2, 50, 50
2, 139680, Note_off_c, 2, 50, 0
2, 266400, Note_on_c, 2, 67, 50
2, 266640, Note_off_c, 2, 67, 0
2, 266880, Note_on_c, 2, 70, 50
2, 267120, Note_off_c, 2, 70, 0
2, 267360, Note_on_c, 2, 72, 50
2, 267840, Note_off_c, 2, 72, 0
2, 268080, Note_on_c, 2, 67, 50
2, 268320, Note_off_c, 2, 67, 0
2, 268560, Note_on_c, 2, 70, 50
2, 268800, Note_off_c, 2, 70, 0
2, 269040, Note_on_c, 2, 73, 50
2, 269280, Note_off_c, 2, 73, 0
2, 269280, Note_on_c, 2, 72, 50
2, 269760, Note_off_c, 2, 72, 0
2, 270240, Note_on_c, 2, 67, 50
2, 270480, Note_off_c, 2, 67, 0
2, 270720, Note_on_c, 2, 70, 50
2, 270960, Note_off_c, 2, 70, 0
2, 271200, Note_on_c, 2, 72, 50
2, 271680, Note_off_c, 2, 72, 0
2, 271920, Note_on_c, 2, 70, 50
2, 272160, Note_off_c, 2, 70, 0
2, 272400, Note_on_c, 2, 67, 50
2, 273600, Note_off_c, 2, 67, 0
2, 274080, Note_on_c, 2, 67, 50
2, 274320, Note_off_c, 2, 67, 0
2, 274560, Note_on_c, 2, 70, 50
2, 274800, Note_off_c, 2, 70, 0
2, 275040, Note_on_c, 2, 72, 50
2, 275520, Note_off_c, 2, 72, 0
2, 275760, Note_on_c, 2, 67, 50
2, 276000, Note_off_c, 2, 67, 0
2, 276240, Note_on_c, 2, 70, 50
2, 276480, Note_off_c, 2, 70, 0
2, 276720, Note_on_c, 2, 73, 50
2, 276960, Note_off_c, 2, 73, 0
2, 276960, Note_on_c, 2, 72, 50
2, 277440, Note_off_c, 2, 72, 0
2, 277920, Note_on_c, 2, 67, 50
2, 278160, Note_off_c, 2, 67, 0
2, 278400, Note_on_c, 2, 70, 50
2, 278640, Note_off_c, 2, 70, 0
2, 278880, Note_on_c, 2, 72, 50
2, 279360, Note_off_c, 2, 72, 0
2, 279600, Note_on_c, 2, 70, 50
2, 279840, Note_off_c, 2, 70, 0
2, 280080, Note_on_c, 2, 67, 50
2, 281280, Note_off_c, 2, 67, 0
2, 281760, Note_on_c, 2, 67, 50
2, 282000, Note_off_c, 2, 67, 0
2, 282240, Note_on_c, 2, 70, 50
2, 282480, Note_off_c, 2, 70, 0
2, 282720, Note_on_c, 2, 72, 50
2, 283200, Note_off_c, 2, 72, 0
2, 283440, Note_on_c, 2, 67, 50
2, 283680, Note_off_c, 2, 67, 0
2, 283920, Note_on_c, 2, 70, 50
2, 284160, Note_off_c, 2, 70, 0
2, 284400, Note_on_c, 2, 73, 50
2, 284640, Note_off_c, 2, 73, 0
2, 284640, Note_on_c, 2, 72, 50
2, 285120, Note_off_c, 2, 72, 0
2, 285600, Note_on_c, 2, 67, 50
2, 285840, Note_off_c, 2, 67, 0
2, 286080, Note_on_c, 2, 70, 50
2, 286320, Note_off_c, 2, 70, 0
2, 286560, Note_on_c, 2, 72, 50
2, 287040, Note_off_c, 2, 72, 0
2, 287280, Note_on_c, 2, 70, 50
2, 287520, Note_off_c, 2, 70, 0
2, 287760, Note_on_c, 2, 67, 50
2, 288960, Note_off_c, 2, 67, 0
2, 289440, Note_on_c, 2, 67, 50
2, 289680, Note_off_c, 2, 67, 0
2, 289920, Note_on_c, 2, 70, 50
2, 290160, Note_off_c, 2, 70, 0
2, 290400, Note_on_c, 2, 72, 50
2, 290880, Note_off_c, 2, 72, 0
2, 291120, Note_on_c, 2, 67, 50
2, 291360, Note_off_c, 2, 67, 0
2, 291600, Note_on_c, 2, 70, 50
2, 291840, Note_off_c, 2, 70, 0
2, 292080, Note_on_c, 2, 73, 50
2, 292320, Note_off_c, 2, 73, 0
2, 292320, Note_on_c, 2, 72, 50
2, 292800, Note_off_c, 2, 72, 0
2, 293280, Note_on_c, 2, 67, 50
2, 293520, Note_off_c, 2, 67, 0
2, 293760, Note_on_c, 2, 70, 50
2, 294000, Note_off_c, 2, 70, 0
2, 294240, Note_on_c, 2, 72, 50
2, 294720, Note_off_c, 2, 72, 0
2, 294960, Note_on_c, 2, 70, 50
2, 295200, Note_off_c, 2, 70, 0
2, 295440, Note_on_c, 2, 67, 50
2, 296640, Note_off_c, 2, 67, 0
2, 297120, Note_on_c, 2, 67, 50
2, 297360, Note_off_c, 2, 67, 0
2, 297600, Note_on_c, 2, 70, 50
2, 297840, Note_off_c, 2, 70, 0
2, 298080, Note_on_c, 2, 72, 50
2, 298560, Note_off_c, 2, 72, 0
2, 298800, Note_on_c, 2, 67, 50
2, 299040, Note_off_c, 2, 67, 0
2, 299280, Note_on_c, 2, 70, 50
2, 299520, Note_off_c, 2, 70, 0
2, 299760, Note_on_c, 2, 73, 50
2, 300000, Note_off_c, 2, 73, 0
2, 300000, Note_on_c, 2, 72, 50
2, 300480, Note_off_c, 2, 72, 0
2, 300960, Note_on_c, 2, 67, 50
2, 301200, Note_off_c, 2, 67, 0
2, 301440, Note_on_c, 2, 70, 50
2, 301680, Note_off_c, 2, 70, 0
2, 301920, Note_on_c, 2, 72, 50
2, 302400, Note_off_c, 2, 72, 0
2, 302640, Note_on_c, 2, 67, 50
2, 302880, Note_off_c, 2, 67, 0
2, 303120, Note_on_c, 2, 67, 50
2, 304320, Note_off_c, 2, 67, 0
2, 304800, Note_on_c, 2, 67, 50
2, 305040, Note_off_c, 2, 67, 0
2, 305280, Note_on_c, 2, 70, 50
2, 305520, Note_off_c, 2, 70, 0
2, 305760, Note_on_c, 2, 72, 50
2, 306240, Note_off_c, 2, 72, 0
2, 306480, Note_on_c, 2, 67, 50
2, 306720, Note_off_c, 2, 67, 0
2, 306960, Note_on_c, 2, 70, 50
2, 307200, Note_off_c, 2, 70, 0
2, 307440, Note_on_c, 2, 73, 50
2, 307680, Note_off_c, 2, 73, 0
2, 307680, Note_on_c, 2, 72, 50
2, 308160, Note_off_c, 2, 72, 0
2, 308640, Note_on_c, 2, 67, 50
2, 308880, Note_off_c, 2, 67, 0
2, 309120, Note_on_c, 2, 70, 50
2, 309360, Note_off_c, 2, 70, 0
2, 309600, Note_on_c, 2, 72, 50
2, 310080, Note_off_c, 2, 72, 0
2, 310320, Note_on_c, 2, 67, 50
2, 310560, Note_off_c, 2, 67, 0
2, 310800, Note_on_c, 2, 67, 50
2, 312000, Note_off_c, 2, 67, 0
2, 312480, Note_on_c, 2, 55, 50
2, 312720, Note_off_c, 2, 55, 0
2, 312720, Note_on_c, 2, 62, 50
2, 312960, Note_off_c, 2, 62, 0
2, 312960, Note_on_c, 2, 67, 50
2, 313200, Note_off_c, 2, 67, 0
2, 313440, Note_on_c, 2, 55, 50
2, 313680, Note_off_c, 2, 55, 0
2, 313680, Note_on_c, 2, 62, 50
2, 313920, Note_off_c, 2, 62, 0
2, 313920, Note_on_c, 2, 67, 50
2, 314160, Note_off_c, 2, 67, 0
2, 314400, Note_on_c, 2, 55, 50
2, 314640, Note_off_c, 2, 55, 0
2, 314640, Note_on_c, 2, 62, 50
2, 314880, Note_off_c, 2, 62, 0
2, 314880, Note_on_c, 2, 67, 50
2, 315120, Note_off_c, 2, 67, 0
2, 315360, Note_on_c, 2, 55, 50
2, 315600, Note_off_c, 2, 55, 0
2, 315600, Note_on_c, 2, 62, 50
2, 315840, Note_off_c, 2, 62, 0
2, 315840, Note_on_c, 2, 67, 50
2, 316080, Note_off_c, 2, 67, 0
2, 316320, Note_on_c, 2, 55, 50
2, 316560, Note_off_c, 2, 55, 0
2, 316560, Note_on_c, 2, 62, 50
2, 316800, Note_off_c, 2, 62, 0
2, 316800, Note_on_c, 2, 74, 50
2, 317040, Note_off_c, 2, 74, 0
2, 317280, Note_on_c, 2, 55, 50
2, 317520, Note_off_c, 2, 55, 0
2, 317520, Note_on_c, 2, 60, 50
2, 317760, Note_off_c, 2, 60, 0
2, 317760, Note_on_c, 2, 72, 50
2, 318000, Note_off_c, 2, 72, 0
2, 318240, Note_on_c, 2, 55, 50
2, 320160, Note_off_c, 2, 55, 0
2, 320160, Note_on_c, 2, 55, 50
2, 320400, Note_off_c, 2, 55, 0
2, 320400, Note_on_c, 2, 62, 50
2, 320640, Note_off_c, 2, 62, 0
2, 320640, Note_on_c, 2, 74, 50
2, 320880, Note_off_c, 2, 74, 0
2, 321120, Note_on_c, 2, 55, 50
2, 321360, Note_off_c, 2, 55, 0
2, 321360, Note_on_c, 2, 62, 50
2, 321600, Note_off_c, 2, 62, 0
2, 321600, Note_on_c, 2, 74, 50
2, 321840, Note_off_c, 2, 74, 0
2, 322080, Note_on_c, 2, 55, 50
2, 322320, Note_off_c, 2, 55, 0
2, 322320, Note_on_c, 2, 62, 50
2, 322560, Note_off_c, 2, 62, 0
2, 322560, Note_on_c, 2, 74, 50
2, 322800, Note_off_c, 2, 74, 0
2, 323040, Note_on_c, 2, 55, 50
2, 323280, Note_off_c, 2, 55, 0
2, 323280, Note_on_c, 2, 62, 50
2, 323520, Note_off_c, 2, 62, 0
2, 323520, Note_on_c, 2, 74, 50
2, 323760, Note_off_c, 2, 74, 0
2, 324000, Note_on_c, 2, 55, 50
2, 324240, Note_off_c, 2, 55, 0
2, 324240, Note_on_c, 2, 62, 50
2, 324480, Note_off_c, 2, 62, 0
2, 324480, Note_on_c, 2, 74, 50
2, 324720, Note_off_c, 2, 74, 0
2, 324960, Note_on_c, 2, 53, 50
2, 325200, Note_off_c, 2, 53, 0
2, 325200, Note_on_c, 2, 60, 50
2, 325440, Note_off_c, 2, 60, 0
2, 325440, Note_on_c, 2, 72, 50
2, 325680, Note_off_c, 2, 72, 0
2, 325920, Note_on_c, 2, 53, 50
2, 326160, Note_off_c, 2, 53, 0
2, 326160, Note_on_c, 2, 62, 50
2, 326400, Note_off_c, 2, 62, 0
2, 326400, Note_on_c, 2, 74, 50
2, 326640, Note_off_c, 2, 74, 0
2, 326880, Note_on_c, 2, 55, 50
2, 327120, Note_off_c, 2, 55, 0
2, 327120, Note_on_c, 2, 62, 50
2, 327360, Note_off_c, 2, 62, 0
2, 327360, Note_on_c, 2, 74, 50
2, 327600, Note_off_c, 2, 74, 0
2, 327840, Note_on_c, 2, 55, 50
2, 328080, Note_off_c, 2, 55, 0
2, 328080, Note_on_c, 2, 62, 50
2, 328320, Note_off_c, 2, 62, 0
2, 328320, Note_on_c, 2, 74, 50
2, 328560, Note_off_c, 2, 74, 0
2, 328800, Note_on_c, 2, 55, 50
2, 329040, Note_off_c, 2, 55, 0
2, 329040, Note_on_c, 2, 62, 50
2, 329280, Note_off_c, 2, 62, 0
2, 329280, Note_on_c, 2, 74, 50
2, 329520, Note_off_c, 2, 74, 0
2, 329760, Note_on_c, 2, 55, 50
2, 330000, Note_off_c, 2, 55, 0
2, 330000, Note_on_c, 2, 62, 50
2, 330240, Note_off_c, 2, 62, 0
2, 330240, Note_on_c, 2, 74, 50
2, 330480, Note_off_c, 2, 74, 0
2, 330720, Note_on_c, 2, 55, 50
2, 330960, Note_off_c, 2, 55, 0
2, 330960, Note_on_c, 2, 62, 50
2, 331200, Note_off_c, 2, 62, 0
2, 331200, Note_on_c, 2, 74, 50
2, 331440, Note_off_c, 2, 74, 0
2, 331680, Note_on_c, 2, 55, 50
2, 331920, Note_off_c, 2, 55, 0
2, 331920, Note_on_c, 2, 62, 50
2, 332160, Note_off_c, 2, 62, 0
2, 332160, Note_on_c, 2, 74, 50
2, 332400, Note_off_c, 2, 74, 0
2, 332640, Note_on_c, 2, 53, 50
2, 332880, Note_off_c, 2, 53, 0
2, 332880, Note_on_c, 2, 60, 50
2, 333120, Note_off_c, 2, 60, 0
2, 333120, Note_on_c, 2, 72, 50
2, 333360, Note_off_c, 2, 72, 0
2, 333600, Note_on_c, 2, 55, 50
2, 333840, Note_off_c, 2, 55, 0
2, 333840, Note_on_c, 2, 62, 50
2, 334080, Note_off_c, 2, 62, 0
2, 334080, Note_on_c, 2, 74, 50
2, 334320, Note_off_c, 2, 74, 0
2, 334560, Note_on_c, 2, 55, 50
2, 334800, Note_off_c, 2, 55, 0
2, 334800, Note_on_c, 2, 62, 50
2, 335040, Note_off_c, 2, 62, 0
2, 335040, Note_on_c, 2, 74, 50
2, 335280, Note_off_c, 2, 74, 0
2, 335520, Note_on_c, 2, 55, 50
2, 335760, Note_off_c, 2, 55, 0
2, 335760, Note_on_c, 2, 62, 50
2, 336000, Note_off_c, 2, 62, 0
2, 336000, Note_on_c, 2, 74, 50
2, 336240, Note_off_c, 2, 74, 0
2, 336480, Note_on_c, 2, 55, 50
2, 336720, Note_off_c, 2, 55, 0
2, 336720, Note_on_c, 2, 62, 50
2, 336960, Note_off_c, 2, 62, 0
2, 336960, Note_on_c, 2, 74, 50
2, 337200, Note_off_c, 2, 74, 0
2, 337440, Note_on_c, 2, 55, 50
2, 337680, Note_off_c, 2, 55, 0
2, 337680, Note_on_c, 2, 62, 50
2, 337920, Note_off_c, 2, 62, 0
2, 337920, Note_on_c, 2, 74, 50
2, 338160, Note_off_c, 2, 74, 0
2, 338400, Note_on_c, 2, 55, 50
2, 338640, Note_off_c, 2, 55, 0
2, 338640, Note_on_c, 2, 62, 50
2, 338880, Note_off_c, 2, 62, 0
2, 338880, Note_on_c, 2, 74, 50
2, 339120, Note_off_c, 2, 74, 0
2, 339360, Note_on_c, 2, 55, 50
2, 339600, Note_off_c, 2, 55, 0
2, 339600, Note_on_c, 2, 62, 50
2, 339840, Note_off_c, 2, 62, 0
2, 339840, Note_on_c, 2, 74, 50
2, 340080, Note_off_c, 2, 74, 0
2, 340320, Note_on_c, 2, 53, 50
2, 340560, Note_off_c, 2, 53, 0
2, 340560, Note_on_c, 2, 60, 50
2, 340800, Note_off_c, 2, 60, 0
2, 340800, Note_on_c, 2, 72, 50
2, 341040, Note_off_c, 2, 72, 0
2, 341280, Note_on_c, 2, 67, 50
2, 341760, Note_off_c, 2, 67, 0
2, 341760, Note_on_c, 2, 67, 50
2, 343200, Note_off_c, 2, 67, 0
2, 343200, Note_on_c, 2, 76, 50
2, 344160, Note_off_c, 2, 76, 0
2, 344160, Note_on_c, 2, 76, 50
2, 345120, Note_off_c, 2, 76, 0
2, 345120, Note_on_c, 2, 75, 50
2, 347040, Note_off_c, 2, 75, 0
2, 347040, Note_on_c, 2, 67, 50
2, 347520, Note_off_c, 2, 67, 0
2, 347520, Note_on_c, 2, 70, 50
2, 347760, Note_off_c, 2, 70, 0
2, 347760, Note_on_c, 2, 67, 50
2, 348000, Note_off_c, 2, 67, 0
2, 348000, Note_on_c, 2, 70, 50
2, 348240, Note_off_c, 2, 70, 0
2, 348240, Note_on_c, 2, 67, 50
2, 348480, Note_off_c, 2, 67, 0
2, 348480, Note_on_c, 2, 65, 50
2, 348720, Note_off_c, 2, 65, 0
2, 348720, Note_on_c, 2, 67, 50
2, 349200, Note_off_c, 2, 67, 0
2, 349200, Note_on_c, 2, 67, 50
2, 349440, Note_off_c, 2, 67, 0
2, 349440, Note_on_c, 2, 70, 50
2, 349680, Note_off_c, 2, 70, 0
2, 349680, Note_on_c, 2, 67, 50
2, 349920, Note_off_c, 2, 67, 0
2, 349920, Note_on_c, 2, 70, 50
2, 350160, Note_off_c, 2, 70, 0
2, 350160, Note_on_c, 2, 67, 50
2, 350400, Note_off_c, 2, 67, 0
2, 350400, Note_on_c, 2, 65, 50
2, 350880, Note_off_c, 2, 65, 0
2, 350880, Note_on_c, 2, 60, 50
2, 352800, Note_off_c, 2, 60, 0
2, 352800, Note_on_c, 2, 56, 50
2, 354720, Note_off_c, 2, 56, 0
2, 354720, Note_on_c, 2, 67, 50
2, 354960, Note_off_c, 2, 67, 0
2, 354960, Note_on_c, 2, 55, 50
2, 355080, Note_off_c, 2, 55, 0
2, 355200, Note_on_c, 2, 70, 50
2, 355440, Note_off_c, 2, 70, 0
2, 355680, Note_on_c, 2, 72, 50
2, 355920, Note_off_c, 2, 72, 0
2, 355920, Note_on_c, 2, 72, 50
2, 356040, Note_off_c, 2, 72, 0
2, 356400, Note_on_c, 2, 67, 50
2, 356640, Note_off_c, 2, 67, 0
2, 356880, Note_on_c, 2, 69, 50
2, 357000, Note_off_c, 2, 69, 0
2, 357360, Note_on_c, 2, 73, 50
2, 357600, Note_off_c, 2, 73, 0
2, 357600, Note_on_c, 2, 72, 50
2, 358080, Note_off_c, 2, 72, 0
2, 358560, Note_on_c, 2, 67, 50
2, 358800, Note_off_c, 2, 67, 0
2, 359040, Note_on_c, 2, 70, 50
2, 359280, Note_off_c, 2, 70, 0
2, 359520, Note_on_c, 2, 72, 50
2, 360000, Note_off_c, 2, 72, 0
2, 360240, Note_on_c, 2, 70, 50
2, 360720, Note_off_c, 2, 70, 0
2, 360720, Note_on_c, 2, 67, 50
2, 362400, Note_off_c, 2, 67, 0
2, 362400, Note_on_c, 2, 67, 50
2, 362640, Note_off_c, 2, 67, 0
2, 362880, Note_on_c, 2, 70, 50
2, 363120, Note_off_c, 2, 70, 0
2, 363360, Note_on_c, 2, 72, 50
2, 363840, Note_off_c, 2, 72, 0
2, 364080, Note_on_c, 2, 67, 50
2, 364320, Note_off_c, 2, 67, 0
2, 364560, Note_on_c, 2, 70, 50
2, 364800, Note_off_c, 2, 70, 0
2, 364800, Note_on_c, 2, 58, 50
2, 364920, Note_off_c, 2, 58, 0
2, 365040, Note_on_c, 2, 73, 50
2, 365280, Note_off_c, 2, 73, 0
2, 365280, Note_on_c, 2, 72, 50
2, 365760, Note_off_c, 2, 72, 0
2, 366240, Note_on_c, 2, 67, 50
2, 366480, Note_off_c, 2, 67, 0
2, 366720, Note_on_c, 2, 70, 50
2, 366960, Note_off_c, 2, 70, 0
2, 367200, Note_on_c, 2, 72, 50
2, 367680, Note_off_c, 2, 72, 0
2, 367680, Note_on_c, 2, 60, 50
2, 367920, Note_off_c, 2, 60, 0
2, 367920, Note_on_c, 2, 70, 50
2, 368400, Note_off_c, 2, 70, 0
2, 368400, Note_on_c, 2, 67, 50
2, 370080, Note_off_c, 2, 67, 0
2, 370080, Note_on_c, 2, 55, 50
2, 370320, Note_off_c, 2, 55, 0
2, 370320, Note_on_c, 2, 62, 50
2, 370560, Note_off_c, 2, 62, 0
2, 370560, Note_on_c, 2, 67, 50
2, 370800, Note_off_c, 2, 67, 0
2, 371040, Note_on_c, 2, 55, 50
2, 371280, Note_off_c, 2, 55, 0
2, 371280, Note_on_c, 2, 62, 50
2, 371520, Note_off_c, 2, 62, 0
2, 371520, Note_on_c, 2, 67, 50
2, 371760, Note_off_c, 2, 67, 0
2, 372000, Note_on_c, 2, 55, 50
2, 372240, Note_off_c, 2, 55, 0
2, 372240, Note_on_c, 2, 62, 50
2, 372480, Note_off_c, 2, 62, 0
2, 372480, Note_on_c, 2, 67, 50
2, 372720, Note_off_c, 2, 67, 0
2, 372960, Note_on_c, 2, 55, 50
2, 373200, Note_off_c, 2, 55, 0
2, 373200, Note_on_c, 2, 62, 50
2, 373440, Note_off_c, 2, 62, 0
2, 373440, Note_on_c, 2, 67, 50
2, 373680, Note_off_c, 2, 67, 0
2, 373920, Note_on_c, 2, 55, 50
2, 374160, Note_off_c, 2, 55, 0
2, 374160, Note_on_c, 2, 62, 50
2, 374400, Note_off_c, 2, 62, 0
2, 374400, Note_on_c, 2, 74, 50
2, 374640, Note_off_c, 2, 74, 0
2, 374880, Note_on_c, 2, 55, 50
2, 375120, Note_off_c, 2, 55, 0
2, 375120, Note_on_c, 2, 60, 50
2, 375360, Note_off_c, 2, 60, 0
2, 375360, Note_on_c, 2, 72, 50
2, 375600, Note_off_c, 2, 72, 0
2, 375840, Note_on_c, 2, 55, 50
2, 377760, Note_off_c, 2, 55, 0
2, 377760, Note_on_c, 2, 55, 50
2, 378000, Note_off_c, 2, 55, 0
2, 378000, Note_on_c, 2, 62, 50
2, 378240, Note_off_c, 2, 62, 0
2, 378240, Note_on_c, 2, 74, 50
2, 378480, Note_off_c, 2, 74, 0
2, 378720, Note_on_c, 2, 55, 50
2, 378960, Note_off_c, 2, 55, 0
2, 378960, Note_on_c, 2, 62, 50
2, 379200, Note_off_c, 2, 62, 0
2, 379200, Note_on_c, 2, 74, 50
2, 379440, Note_off_c, 2, 74, 0
2, 379680, Note_on_c, 2, 55, 50
2, 379920, Note_off_c, 2, 55, 0
2, 379920, Note_on_c, 2, 62, 50
2, 380160, Note_off_c, 2, 62, 0
2, 380160, Note_on_c, 2, 74, 50
2, 380400, Note_off_c, 2, 74, 0
2, 380640, Note_on_c, 2, 55, 50
2, 380880, Note_off_c, 2, 55, 0
2, 380880, Note_on_c, 2, 62, 50
2, 381120, Note_off_c, 2, 62, 0
2, 381120, Note_on_c, 2, 74, 50
2, 381360, Note_off_c, 2, 74, 0
2, 381600, Note_on_c, 2, 55, 50
2, 381840, Note_off_c, 2, 55, 0
2, 381840, Note_on_c, 2, 62, 50
2, 382080, Note_off_c, 2, 62, 0
2, 382080, Note_on_c, 2, 74, 50
2, 382320, Note_off_c, 2, 74, 0
2, 382560, Note_on_c, 2, 53, 50
2, 382800, Note_off_c, 2, 53, 0
2, 382800, Note_on_c, 2, 60, 50
2, 383040, Note_off_c, 2, 60, 0
2, 383040, Note_on_c, 2, 72, 50
2, 383280, Note_off_c, 2, 72, 0
2, 383520, Note_on_c, 2, 53, 50
2, 383760, Note_off_c, 2, 53, 0
2, 383760, Note_on_c, 2, 62, 50
2, 384000, Note_off_c, 2, 62, 0
2, 384000, Note_on_c, 2, 74, 50
2, 384240, Note_off_c, 2, 74, 0
2, 384480, Note_on_c, 2, 55, 50
2, 384720, Note_off_c, 2, 55, 0
2, 384720, Note_on_c, 2, 62, 50
2, 384960, Note_off_c, 2, 62, 0
2, 384960, Note_on_c, 2, 74, 50
2, 385200, Note_off_c, 2, 74, 0
2, 385440, Note_on_c, 2, 55, 50
2, 385680, Note_off_c, 2, 55, 0
2, 385680, Note_on_c, 2, 62, 50
2, 385920, Note_off_c, 2, 62, 0
2, 385920, Note_on_c, 2, 74, 50
2, 386160, Note_off_c, 2, 74, 0
2, 386400, Note_on_c, 2, 55, 50
2, 386640, Note_off_c, 2, 55, 0
2, 386640, Note_on_c, 2, 62, 50
2, 386880, Note_off_c, 2, 62, 0
2, 386880, Note_on_c, 2, 74, 50
2, 387120, Note_off_c, 2, 74, 0
2, 387360, Note_on_c, 2, 55, 50
2, 387600, Note_off_c, 2, 55, 0
2, 387600, Note_on_c, 2, 62, 50
2, 387840, Note_off_c, 2, 62, 0
2, 387840, Note_on_c, 2, 74, 50
2, 388080, Note_off_c, 2, 74, 0
2, 388320, Note_on_c, 2, 55, 50
2, 388560, Note_off_c, 2, 55, 0
2, 388560, Note_on_c, 2, 62, 50
2, 388800, Note_off_c, 2, 62, 0
2, 388800, Note_on_c, 2, 74, 50
2, 389040, Note_off_c, 2, 74, 0
2, 389280, Note_on_c, 2, 55, 50
2, 389520, Note_off_c, 2, 55, 0
2, 389520, Note_on_c, 2, 62, 50
2, 389760, Note_off_c, 2, 62, 0
2, 389760, Note_on_c, 2, 74, 50
2, 390000, Note_off_c, 2, 74, 0
2, 390240, Note_on_c, 2, 53, 50
2, 390480, Note_off_c, 2, 53, 0
2, 390480, Note_on_c, 2, 60, 50
2, 390720, Note_off_c, 2, 60, 0
2, 390720, Note_on_c, 2, 72, 50
2, 390960, Note_off_c, 2, 72, 0
2, 391200, Note_on_c, 2, 55, 50
2, 391440, Note_off_c, 2, 55, 0
2, 391440, Note_on_c, 2, 62, 50
2, 391680, Note_off_c, 2, 62, 0
2, 391680, Note_on_c, 2, 74, 50
2, 391920, Note_off_c, 2, 74, 0
2, 392160, Note_on_c, 2, 55, 50
2, 392400, Note_off_c, 2, 55, 0
2, 392400, Note_on_c, 2, 62, 50
2, 392640, Note_off_c, 2, 62, 0
2, 392640, Note_on_c, 2, 74, 50
2, 392880, Note_off_c, 2, 74, 0
2, 393120, Note_on_c, 2, 55, 50
2, 393360, Note_off_c, 2, 55, 0
2, 393360, Note_on_c, 2, 62, 50
2, 393600, Note_off_c, 2, 62, 0
2, 393600, Note_on_c, 2, 74, 50
2, 393840, Note_off_c, 2, 74, 0
2, 394080, Note_on_c, 2, 55, 50
2, 394320, Note_off_c, 2, 55, 0
2, 394320, Note_on_c, 2, 62, 50
2, 394560, Note_off_c, 2, 62, 0
2, 394560, Note_on_c, 2, 74, 50
2, 394800, Note_off_c, 2, 74, 0
2, 395040, Note_on_c, 2, 55, 50
2, 395280, Note_off_c, 2, 55, 0
2, 395280, Note_on_c, 2, 62, 50
2, 395520, Note_off_c, 2, 62, 0
2, 395520, Note_on_c, 2, 74, 50
2, 395760, Note_off_c, 2, 74, 0
2, 396000, Note_on_c, 2, 55, 50
2, 396240, Note_off_c, 2, 55, 0
2, 396240, Note_on_c, 2, 62, 50
2, 396480, Note_off_c, 2, 62, 0
2, 396480, Note_on_c, 2, 74, 50
2, 396720, Note_off_c, 2, 74, 0
2, 396960, Note_on_c, 2, 55, 50
2, 397200, Note_off_c, 2, 55, 0
2, 397200, Note_on_c, 2, 62, 50
2, 397440, Note_off_c, 2, 62, 0
2, 397440, Note_on_c, 2, 74, 50
2, 397680, Note_off_c, 2, 74, 0
2, 397920, Note_on_c, 2, 53, 50
2, 398160, Note_off_c, 2, 53, 0
2, 398160, Note_on_c, 2, 60, 50
2, 398400, Note_off_c, 2, 60, 0
2, 398400, Note_on_c, 2, 72, 50
2, 398640, Note_off_c, 2, 72, 0
2, 398880, Note_on_c, 2, 67, 50
2, 399360, Note_off_c, 2, 67, 0
2, 399360, Note_on_c, 2, 67, 50
2, 400800, Note_off_c, 2, 67, 0
2, 400800, Note_on_c, 2, 76, 50
2, 401760, Note_off_c, 2, 76, 0
2, 401760, Note_on_c, 2, 76, 50
2, 402720, Note_off_c, 2, 76, 0
2, 402720, Note_on_c, 2, 75, 50
2, 404640, Note_off_c, 2, 75, 0
2, 404640, Note_on_c, 2, 67, 50
2, 405120, Note_off_c, 2, 67, 0
2, 405120, Note_on_c, 2, 70, 50
2, 405360, Note_off_c, 2, 70, 0
2, 405360, Note_on_c, 2, 67, 50
2, 405600, Note_off_c, 2, 67, 0
2, 405600, Note_on_c, 2, 70, 50
2, 405840, Note_off_c, 2, 70, 0
2, 405840, Note_on_c, 2, 67, 50
2, 406080, Note_off_c, 2, 67, 0
2, 406080, Note_on_c, 2, 65, 50
2, 406320, Note_off_c, 2, 65, 0
2, 406320, Note_on_c, 2, 67, 50
2, 406800, Note_off_c, 2, 67, 0
2, 406800, Note_on_c, 2, 67, 50
2, 407040, Note_off_c, 2, 67, 0
2, 407040, Note_on_c, 2, 70, 50
2, 407280, Note_off_c, 2, 70, 0
2, 407280, Note_on_c, 2, 67, 50
2, 407520, Note_off_c, 2, 67, 0
2, 407520, Note_on_c, 2, 70, 50
2, 407760, Note_off_c, 2, 70, 0
2, 407760, Note_on_c, 2, 67, 50
2, 408000, Note_off_c, 2, 67, 0
2, 408000, Note_on_c, 2, 65, 50
2, 408480, Note_off_c, 2, 65, 0
2, 408480, Note_on_c, 2, 60, 50
2, 410400, Note_off_c, 2, 60, 0
2, 410400, Note_on_c, 2, 56, 50
2, 412320, Note_off_c, 2, 56, 0
2, 412320, Note_on_c, 2, 67, 50
2, 412560, Note_off_c, 2, 67, 0
2, 412560, Note_on_c, 2, 55, 50
2, 412680, Note_off_c, 2, 55, 0
2, 412800, Note_on_c, 2, 70, 50
2, 413040, Note_off_c, 2, 70, 0
2, 413280, Note_on_c, 2, 72, 50
2, 413520, Note_off_c, 2, 72, 0
2, 413520, Note_on_c, 2, 72, 50
2, 413640, Note_off_c, 2, 72, 0
2, 414000, Note_on_c, 2, 67, 50
2, 414240, Note_off_c, 2, 67, 0
2, 414480, Note_on_c, 2, 69, 50
2, 414600, Note_off_c, 2, 69, 0
2, 414960, Note_on_c, 2, 73, 50
2, 415200, Note_off_c, 2, 73, 0
2, 415200, Note_on_c, 2, 72, 50
2, 415680, Note_off_c, 2, 72, 0
2, 416160, Note_on_c, 2, 67, 50
2, 416400, Note_off_c, 2, 67, 0
2, 416640, Note_on_c, 2, 70, 50
2, 416880, Note_off_c, 2, 70, 0
2, 417120, Note_on_c, 2, 72, 50
2, 417600, Note_off_c, 2, 72, 0
2, 417840, Note_on_c, 2, 70, 50
2, 418320, Note_off_c, 2, 70, 0
2, 418320, Note_on_c, 2, 67, 50
2, 420000, Note_off_c, 2, 67, 0
2, 420000, Note_on_c, 2, 67, 50
2, 420240, Note_off_c, 2, 67, 0
2, 420480, Note_on_c, 2, 70, 50
2, 420720, Note_off_c, 2, 70, 0
2, 420960, Note_on_c, 2, 72, 50
2, 421440, Note_off_c, 2, 72, 0
2, 421680, Note_on_c, 2, 67, 50
2, 421920, Note_off_c, 2, 67, 0
2, 422160, Note_on_c, 2, 70, 50
2, 422400, Note_off_c, 2, 70, 0
2, 422400, Note_on_c, 2, 58, 50
2, 422520, Note_off_c, 2, 58, 0
2, 422640, Note_on_c, 2, 73, 50
2, 422880, Note_off_c, 2, 73, 0
2, 422880, Note_on_c, 2, 72, 50
2, 423360, Note_off_c, 2, 72, 0
2, 423840, Note_on_c, 2, 67, 50
2, 424080, Note_off_c, 2, 67, 0
2, 424320, Note_on_c, 2, 70, 50
2, 424560, Note_off_c, 2, 70, 0
2, 424800, Note_on_c, 2, 72, 50
2, 425280, Note_off_c, 2, 72, 0
2, 425280, Note_on_c, 2, 60, 50
2, 425520, Note_off_c, 2, 60, 0
2, 425520, Note_on_c, 2, 70, 50
2, 426000, Note_off_c, 2, 70, 0
2, 426000, Note_on_c, 2, 67, 50
2, 427680, Note_off_c, 2, 67, 0
2, 427680, Note_on_c, 2, 55, 50
2, 427920, Note_off_c, 2, 55, 0
2, 427920, Note_on_c, 2, 62, 50
2, 428160, Note_off_c, 2, 62, 0
2, 428160, Note_on_c, 2, 67, 50
2, 428400, Note_off_c, 2, 67, 0
2, 428640, Note_on_c, 2, 55, 50
2, 428880, Note_off_c, 2, 55, 0
2, 428880, Note_on_c, 2, 62, 50
2, 429120, Note_off_c, 2, 62, 0
2, 429120, Note_on_c, 2, 67, 50
2, 429360, Note_off_c, 2, 67, 0
2, 429600, Note_on_c, 2, 55, 50
2, 429840, Note_off_c, 2, 55, 0
2, 429840, Note_on_c, 2, 62, 50
2, 430080, Note_off_c, 2, 62, 0
2, 430080, Note_on_c, 2, 67, 50
2, 430320, Note_off_c, 2, 67, 0
2, 430560, Note_on_c, 2, 55, 50
2, 430800, Note_off_c, 2, 55, 0
2, 430800, Note_on_c, 2, 62, 50
2, 431040, Note_off_c, 2, 62, 0
2, 431040, Note_on_c, 2, 67, 50
2, 431280, Note_off_c, 2, 67, 0
2, 431520, Note_on_c, 2, 55, 50
2, 431760, Note_off_c, 2, 55, 0
2, 431760, Note_on_c, 2, 62, 50
2, 432000, Note_off_c, 2, 62, 0
2, 432000, Note_on_c, 2, 67, 50
2, 432240, Note_off_c, 2, 67, 0
2, 432480, Note_on_c, 2, 55, 50
2, 432720, Note_off_c, 2, 55, 0
2, 432720, Note_on_c, 2, 62, 50
2, 432960, Note_off_c, 2, 62, 0
2, 432960, Note_on_c, 2, 67, 50
2, 433200, Note_off_c, 2, 67, 0
2, 433920, Note_on_c, 2, 74, 50
2, 434160, Note_off_c, 2, 74, 0
2, 434160, Note_on_c, 2, 67, 50
2, 434400, Note_off_c, 2, 67, 0
2, 434400, Note_on_c, 2, 72, 50
2, 434640, Note_off_c, 2, 72, 0
2, 434760, Note_on_c, 2, 60, 50
2, 434880, Note_off_c, 2, 60, 0
2, 434880, Note_on_c, 2, 72, 50
2, 435000, Note_off_c, 2, 72, 0
2, 435000, Note_on_c, 2, 69, 50
2, 435240, Note_off_c, 2, 69, 0
2, 435480, Note_on_c, 2, 55, 50
2, 435720, Note_off_c, 2, 55, 0
2, 435720, Note_on_c, 2, 62, 50
2, 437400, Note_off_c, 2, 62, 0
2, 437400, Note_on_c, 2, 67, 50
2, 437640, Note_off_c, 2, 67, 0
2, 437640, Note_on_c, 2, 62, 50
2, 437880, Note_off_c, 2, 62, 0
2, 437880, Note_on_c, 2, 74, 50
2, 438120, Note_off_c, 2, 74, 0
2, 438360, Note_on_c, 2, 55, 50
2, 438600, Note_off_c, 2, 55, 0
2, 438600, Note_on_c, 2, 62, 50
2, 438840, Note_off_c, 2, 62, 0
2, 438840, Note_on_c, 2, 74, 50
2, 439080, Note_off_c, 2, 74, 0
2, 439320, Note_on_c, 2, 55, 50
2, 439560, Note_off_c, 2, 55, 0
2, 439560, Note_on_c, 2, 62, 50
2, 439800, Note_off_c, 2, 62, 0
2, 439800, Note_on_c, 2, 74, 50
2, 440040, Note_off_c, 2, 74, 0
2, 440280, Note_on_c, 2, 55, 50
2, 440520, Note_off_c, 2, 55, 0
2, 440520, Note_on_c, 2, 62, 50
2, 440760, Note_off_c, 2, 62, 0
2, 440760, Note_on_c, 2, 74, 50
2, 441000, Note_off_c, 2, 74, 0
2, 441240, Note_on_c, 2, 55, 50
2, 441480, Note_off_c, 2, 55, 0
2, 441480, Note_on_c, 2, 62, 50
2, 441720, Note_off_c, 2, 62, 0
2, 441720, Note_on_c, 2, 74, 50
2, 441960, Note_off_c, 2, 74, 0
2, 442200, Note_on_c, 2, 53, 50
2, 442440, Note_off_c, 2, 53, 0
2, 442440, Note_on_c, 2, 60, 50
2, 442680, Note_off_c, 2, 60, 0
2, 442680, Note_on_c, 2, 72, 50
2, 442920, Note_off_c, 2, 72, 0
2, 443160, Note_on_c, 2, 53, 50
2, 443400, Note_off_c, 2, 53, 0
2, 443400, Note_on_c, 2, 62, 50
2, 443640, Note_off_c, 2, 62, 0
2, 443640, Note_on_c, 2, 74, 50
2, 443880, Note_off_c, 2, 74, 0
2, 444120, Note_on_c, 2, 55, 50
2, 444360, Note_off_c, 2, 55, 0
2, 444360, Note_on_c, 2, 62, 50
2, 444600, Note_off_c, 2, 62, 0
2, 444600, Note_on_c, 2, 74, 50
2, 444840, Note_off_c, 2, 74, 0
2, 445080, Note_on_c, 2, 55, 50
2, 445320, Note_off_c, 2, 55, 0
2, 445320, Note_on_c, 2, 62, 50
2, 445560, Note_off_c, 2, 62, 0
2, 445560, Note_on_c, 2, 74, 50
2, 445800, Note_off_c, 2, 74, 0
2, 446040, Note_on_c, 2, 55, 50
2, 446280, Note_off_c, 2, 55, 0
2, 446280, Note_on_c, 2, 62, 50
2, 446520, Note_off_c, 2, 62, 0
2, 446520, Note_on_c, 2, 74, 50
2, 446760, Note_off_c, 2, 74, 0
2, 447000, Note_on_c, 2, 55, 50
2, 447240, Note_off_c, 2, 55, 0
2, 447240, Note_on_c, 2, 62, 50
2, 447480, Note_off_c, 2, 62, 0
2, 447480, Note_on_c, 2, 74, 50
2, 447720, Note_off_c, 2, 74, 0
2, 447960, Note_on_c, 2, 55, 50
2, 448200, Note_off_c, 2, 55, 0
2, 448200, Note_on_c, 2, 62, 50
2, 448440, Note_off_c, 2, 62, 0
2, 448440, Note_on_c, 2, 74, 50
2, 448680, Note_off_c, 2, 74, 0
2, 448920, Note_on_c, 2, 55, 50
2, 449160, Note_off_c, 2, 55, 0
2, 449160, Note_on_c, 2, 62, 50
2, 449400, Note_off_c, 2, 62, 0
2, 449400, Note_on_c, 2, 74, 50
2, 449640, Note_off_c, 2, 74, 0
2, 449880, Note_on_c, 2, 53, 50
2, 450120, Note_off_c, 2, 53, 0
2, 450120, Note_on_c, 2, 60, 50
2, 450360, Note_off_c, 2, 60, 0
2, 450360, Note_on_c, 2, 72, 50
2, 450600, Note_off_c, 2, 72, 0
2, 450840, Note_on_c, 2, 55, 50
2, 451080, Note_off_c, 2, 55, 0
2, 451080, Note_on_c, 2, 62, 50
2, 451320, Note_off_c, 2, 62, 0
2, 451320, Note_on_c, 2, 74, 50
2, 451560, Note_off_c, 2, 74, 0
2, 451800, Note_on_c, 2, 55, 50
2, 452040, Note_off_c, 2, 55, 0
2, 452040, Note_on_c, 2, 62, 50
2, 452280, Note_off_c, 2, 62, 0
2, 452280, Note_on_c, 2, 74, 50
2, 452520, Note_off_c, 2, 74, 0
2, 452760, Note_on_c, 2, 55, 50
2, 453000, Note_off_c, 2, 55, 0
2, 453000, Note_on_c, 2, 62, 50
2, 453240, Note_off_c, 2, 62, 0
2, 453240, Note_on_c, 2, 74, 50
2, 453480, Note_off_c, 2, 74, 0
2, 453720, Note_on_c, 2, 55, 50
2, 453960, Note_off_c, 2, 55, 0
2, 453960, Note_on_c, 2, 62, 50
2, 454200, Note_off_c, 2, 62, 0
2, 454200, Note_on_c, 2, 74, 50
2, 454440, Note_off_c, 2, 74, 0
2, 454680, Note_on_c, 2, 55, 50
2, 454920, Note_off_c, 2, 55, 0
2, 454920, Note_on_c, 2, 62, 50
2, 455160, Note_off_c, 2, 62, 0
2, 455160, Note_on_c, 2, 74, 50
2, 455400, Note_off_c, 2, 74, 0
2, 455640, Note_on_c, 2, 55, 50
2, 455880, Note_off_c, 2, 55, 0
2, 455880, Note_on_c, 2, 62, 50
2, 456120, Note_off_c, 2, 62, 0
2, 456120, Note_on_c, 2, 74, 50
2, 456360, Note_off_c, 2, 74, 0
2, 456600, Note_on_c, 2, 55, 50
2, 456840, Note_off_c, 2, 55, 0
2, 456840, Note_on_c, 2, 62, 50
2, 457080, Note_off_c, 2, 62, 0
2, 457080, Note_on_c, 2, 74, 50
2, 457320, Note_off_c, 2, 74, 0
2, 457560, Note_on_c, 2, 53, 50
2, 457800, Note_off_c, 2, 53, 0
2, 457800, Note_on_c, 2, 60, 50
2, 458040, Note_off_c, 2, 60, 0
2, 458040, Note_on_c, 2, 72, 50
2, 458280, Note_off_c, 2, 72, 0
2, 458520, Note_on_c, 2, 67, 50
2, 459000, Note_off_c, 2, 67, 0
2, 459000, Note_on_c, 2, 67, 50
2, 460440, Note_off_c, 2, 67, 0
2, 460440, Note_on_c, 2, 76, 50
2, 462360, Note_off_c, 2, 76, 0
2, 462360, Note_on_c, 2, 72, 50
2, 464280, Note_off_c, 2, 72, 0
2, 464280, Note_on_c, 2, 65, 50
2, 466200, Note_off_c, 2, 65, 0
2, 466200, Note_on_c, 2, 65, 50
2, 468120, Note_off_c, 2, 65, 0
2, 468120, Note_on_c, 2, 67, 50
2, 468360, Note_off_c, 2, 67, 0
2, 468600, Note_on_c, 2, 70, 50
2, 468840, Note_off_c, 2, 70, 0
2, 469080, Note_on_c, 2, 72, 50
2, 469560, Note_off_c, 2, 72, 0
2, 469800, Note_on_c, 2, 67, 50
2, 470040, Note_off_c, 2, 67, 0
2, 470280, Note_on_c, 2, 70, 50
2, 470520, Note_off_c, 2, 70, 0
2, 470760, Note_on_c, 2, 73, 50
2, 471000, Note_off_c, 2, 73, 0
2, 471000, Note_on_c, 2, 72, 50
2, 471480, Note_off_c, 2, 72, 0
2, 471960, Note_on_c, 2, 67, 50
2, 472200, Note_off_c, 2, 67, 0
2, 472440, Note_on_c, 2, 65, 50
2, 472680, Note_off_c, 2, 65, 0
2, 472920, Note_on_c, 2, 72, 50
2, 473400, Note_off_c, 2, 72, 0
2, 473640, Note_on_c, 2, 70, 50
2, 473880, Note_off_c, 2, 70, 0
2, 474120, Note_on_c, 2, 67, 50
2, 475320, Note_off_c, 2, 67, 0
2, 475800, Note_on_c, 2, 67, 50
2, 476040, Note_off_c, 2, 67, 0
2, 483480, Note_on_c, 2, 68, 50
2, 483960, Note_off_c, 2, 68, 0
2, 483960, Note_on_c, 2, 67, 50
2, 484200, Note_off_c, 2, 67, 0
2, 484320, Note_on_c, 2, 70, 50
2, 484560, Note_off_c, 2, 70, 0
2, 484800, Note_on_c, 2, 72, 50
2, 485040, Note_off_c, 2, 72, 0
2, 485040, Note_on_c, 2, 72, 50
2, 485160, Note_off_c, 2, 72, 0
2, 485520, Note_on_c, 2, 67, 50
2, 485760, Note_off_c, 2, 67, 0
2, 486000, Note_on_c, 2, 69, 50
2, 486120, Note_off_c, 2, 69, 0
2, 486480, Note_on_c, 2, 73, 50
2, 486720, Note_off_c, 2, 73, 0
2, 486720, Note_on_c, 2, 72, 50
2, 487200, Note_off_c, 2, 72, 0
2, 487680, Note_on_c, 2, 67, 50
2, 487920, Note_off_c, 2, 67, 0
2, 488160, Note_on_c, 2, 70, 50
2, 488400, Note_off_c, 2, 70, 0
2, 488640, Note_on_c, 2, 72, 50
2, 489120, Note_off_c, 2, 72, 0
2, 489360, Note_on_c, 2, 70, 50
2, 489840, Note_off_c, 2, 70, 0
2, 489840, Note_on_c, 2, 67, 50
2, 491520, Note_off_c, 2, 67, 0
2, 491520, Note_on_c, 2, 67, 50
2, 491760, Note_off_c, 2, 67, 0
2, 492000, Note_on_c, 2, 70, 50
2, 492240, Note_off_c, 2, 70, 0
2, 492480, Note_on_c, 2, 72, 50
2, 492960, Note_off_c, 2, 72, 0
2, 493200, Note_on_c, 2, 67, 50
2, 493440, Note_off_c, 2, 67, 0
2, 493680, Note_on_c, 2, 70, 50
2, 493920, Note_off_c, 2, 70, 0
2, 493920, Note_on_c, 2, 58, 50
2, 494040, Note_off_c, 2, 58, 0
2, 494160, Note_on_c, 2, 73, 50
2, 494400, Note_off_c, 2, 73, 0
2, 494400, Note_on_c, 2, 72, 50
2, 494880, Note_off_c, 2, 72, 0
2, 495360, Note_on_c, 2, 67, 50
2, 495600, Note_off_c, 2, 67, 0
2, 495840, Note_on_c, 2, 70, 50
2, 496080, Note_off_c, 2, 70, 0
2, 496320, Note_on_c, 2, 72, 50
2, 496800, Note_off_c, 2, 72, 0
2, 496800, Note_on_c, 2, 60, 50
2, 497040, Note_off_c, 2, 60, 0
2, 497040, Note_on_c, 2, 70, 50
2, 497520, Note_off_c, 2, 70, 0
2, 497520, Note_on_c, 2, 67, 50
2, 499200, Note_off_c, 2, 67, 0
2, 499200, Note_on_c, 2, 55, 50
2, 499440, Note_off_c, 2, 55, 0
2, 499440, Note_on_c, 2, 62, 50
2, 499680, Note_off_c, 2, 62, 0
2, 499680, Note_on_c, 2, 67, 50
2, 499920, Note_off_c, 2, 67, 0
2, 500160, Note_on_c, 2, 55, 50
2, 500400, Note_off_c, 2, 55, 0
2, 500400, Note_on_c, 2, 62, 50
2, 500640, Note_off_c, 2, 62, 0
2, 500640, Note_on_c, 2, 67, 50
2, 500880, Note_off_c, 2, 67, 0
2, 501120, Note_on_c, 2, 55, 50
2, 501360, Note_off_c, 2, 55, 0
2, 501360, Note_on_c, 2, 62, 50
2, 501600, Note_off_c, 2, 62, 0
2, 501600, Note_on_c, 2, 67, 50
2, 501840, Note_off_c, 2, 67, 0
2, 502080, Note_on_c, 2, 55, 50
2, 502320, Note_off_c, 2, 55, 0
2, 502320, Note_on_c, 2, 62, 50
2, 502560, Note_off_c, 2, 62, 0
2, 502560, Note_on_c, 2, 67, 50
2, 502800, Note_off_c, 2, 67, 0
2, 503040, Note_on_c, 2, 55, 50
2, 503280, Note_off_c, 2, 55, 0
2, 503280, Note_on_c, 2, 62, 50
2, 503520, Note_off_c, 2, 62, 0
2, 503520, Note_on_c, 2, 74, 50
2, 503760, Note_off_c, 2, 74, 0
2, 504000, Note_on_c, 2, 55, 50
2, 504240, Note_off_c, 2, 55, 0
2, 504240, Note_on_c, 2, 60, 50
2, 504480, Note_off_c, 2, 60, 0
2, 504480, Note_on_c, 2, 72, 50
2, 504720, Note_off_c, 2, 72, 0
2, 504960, Note_on_c, 2, 55, 50
2, 506880, Note_off_c, 2, 55, 0
2, 506880, Note_on_c, 2, 55, 50
2, 507120, Note_off_c, 2, 55, 0
2, 507120, Note_on_c, 2, 62, 50
2, 507360, Note_off_c, 2, 62, 0
2, 507360, Note_on_c, 2, 74, 50
2, 507600, Note_off_c, 2, 74, 0
2, 507840, Note_on_c, 2, 55, 50
2, 508080, Note_off_c, 2, 55, 0
2, 508080, Note_on_c, 2, 62, 50
2, 508320, Note_off_c, 2, 62, 0
2, 508320, Note_on_c, 2, 74, 50
2, 508560, Note_off_c, 2, 74, 0
2, 508800, Note_on_c, 2, 55, 50
2, 509040, Note_off_c, 2, 55, 0
2, 509040, Note_on_c, 2, 62, 50
2, 509280, Note_off_c, 2, 62, 0
2, 509280, Note_on_c, 2, 74, 50
2, 509520, Note_off_c, 2, 74, 0
2, 509760, Note_on_c, 2, 55, 50
2, 510000, Note_off_c, 2, 55, 0
2, 510000, Note_on_c, 2, 62, 50
2, 510240, Note_off_c, 2, 62, 0
2, 510240, Note_on_c, 2, 74, 50
2, 510480, Note_off_c, 2, 74, 0
2, 510720, Note_on_c, 2, 55, 50
2, 510960, Note_off_c, 2, 55, 0
2, 510960, Note_on_c, 2, 62, 50
2, 511200, Note_off_c, 2, 62, 0
2, 511200, Note_on_c, 2, 74, 50
2, 511440, Note_off_c, 2, 74, 0
2, 511680, Note_on_c, 2, 53, 50
2, 511920, Note_off_c, 2, 53, 0
2, 511920, Note_on_c, 2, 60, 50
2, 512160, Note_off_c, 2, 60, 0
2, 512160, Note_on_c, 2, 72, 50
2, 512400, Note_off_c, 2, 72, 0
2, 512640, Note_on_c, 2, 53, 50
2, 512880, Note_off_c, 2, 53, 0
2, 512880, Note_on_c, 2, 62, 50
2, 513120, Note_off_c, 2, 62, 0
2, 513120, Note_on_c, 2, 74, 50
2, 513360, Note_off_c, 2, 74, 0
2, 513600, Note_on_c, 2, 55, 50
2, 513840, Note_off_c, 2, 55, 0
2, 513840, Note_on_c, 2, 62, 50
2, 514080, Note_off_c, 2, 62, 0
2, 514080, Note_on_c, 2, 74, 50
2, 514320, Note_off_c, 2, 74, 0
2, 514560, Note_on_c, 2, 55, 50
2, 514800, Note_off_c, 2, 55, 0
2, 514800, Note_on_c, 2, 62, 50
2, 515040, Note_off_c, 2, 62, 0
2, 515040, Note_on_c, 2, 74, 50
2, 515280, Note_off_c, 2, 74, 0
2, 515520, Note_on_c, 2, 55, 50
2, 515760, Note_off_c, 2, 55, 0
2, 515760, Note_on_c, 2, 62, 50
2, 516000, Note_off_c, 2, 62, 0
2, 516000, Note_on_c, 2, 74, 50
2, 516240, Note_off_c, 2, 74, 0
2, 516480, Note_on_c, 2, 55, 50
2, 516720, Note_off_c, 2, 55, 0
2, 516720, Note_on_c, 2, 62, 50
2, 516960, Note_off_c, 2, 62, 0
2, 516960, Note_on_c, 2, 74, 50
2, 517200, Note_off_c, 2, 74, 0
2, 517440, Note_on_c, 2, 55, 50
2, 517680, Note_off_c, 2, 55, 0
2, 517680, Note_on_c, 2, 62, 50
2, 517920, Note_off_c, 2, 62, 0
2, 517920, Note_on_c, 2, 74, 50
2, 518160, Note_off_c, 2, 74, 0
2, 518400, Note_on_c, 2, 55, 50
2, 518640, Note_off_c, 2, 55, 0
2, 518640, Note_on_c, 2, 62, 50
2, 518880, Note_off_c, 2, 62, 0
2, 518880, Note_on_c, 2, 74, 50
2, 519120, Note_off_c, 2, 74, 0
2, 519360, Note_on_c, 2, 53, 50
2, 519600, Note_off_c, 2, 53, 0
2, 519600, Note_on_c, 2, 60, 50
2, 519840, Note_off_c, 2, 60, 0
2, 519840, Note_on_c, 2, 72, 50
2, 520080, Note_off_c, 2, 72, 0
2, 520320, Note_on_c, 2, 55, 50
2, 520560, Note_off_c, 2, 55, 0
2, 520560, Note_on_c, 2, 62, 50
2, 520800, Note_off_c, 2, 62, 0
2, 520800, Note_on_c, 2, 74, 50
2, 521040, Note_off_c, 2, 74, 0
2, 521280, Note_on_c, 2, 55, 50
2, 521520, Note_off_c, 2, 55, 0
2, 521520, Note_on_c, 2, 62, 50
2, 521760, Note_off_c, 2, 62, 0
2, 521760, Note_on_c, 2, 74, 50
2, 522000, Note_off_c, 2, 74, 0
2, 522240, Note_on_c, 2, 55, 50
2, 522480, Note_off_c, 2, 55, 0
2, 522480, Note_on_c, 2, 62, 50
2, 522720, Note_off_c, 2, 62, 0
2, 522720, Note_on_c, 2, 74, 50
2, 522960, Note_off_c, 2, 74, 0
2, 523200, Note_on_c, 2, 55, 50
2, 523440, Note_off_c, 2, 55, 0
2, 523440, Note_on_c, 2, 62, 50
2, 523680, Note_off_c, 2, 62, 0
2, 523680, Note_on_c, 2, 74, 50
2, 523920, Note_off_c, 2, 74, 0
2, 524160, Note_on_c, 2, 55, 50
2, 524400, Note_off_c, 2, 55, 0
2, 524400, Note_on_c, 2, 62, 50
2, 524640, Note_off_c, 2, 62, 0
2, 524640, Note_on_c, 2, 74, 50
2, 524880, Note_off_c, 2, 74, 0
2, 525120, Note_on_c, 2, 55, 50
2, 525360, Note_off_c, 2, 55, 0
2, 525360, Note_on_c, 2, 62, 50
2, 525600, Note_off_c, 2, 62, 0
2, 525600, Note_on_c, 2, 74, 50
2, 525840, Note_off_c, 2, 74, 0
2, 526080, Note_on_c, 2, 55, 50
2, 526320, Note_off_c, 2, 55, 0
2, 526320, Note_on_c, 2, 62, 50
2, 526560, Note_off_c, 2, 62, 0
2, 526560, Note_on_c, 2, 74, 50
2, 526800, Note_off_c, 2, 74, 0
2, 527040, Note_on_c, 2, 53, 50
2, 527280, Note_off_c, 2, 53, 0
2, 527280, Note_on_c, 2, 60, 50
2, 527520, Note_off_c, 2, 60, 0
2, 527520, Note_on_c, 2, 72, 50
2, 527760, Note_off_c, 2, 72, 0
2, 528000, Note_on_c, 2, 67, 50
2, 528480, Note_off_c, 2, 67, 0
2, 528480, Note_on_c, 2, 67, 50
2, 529920, Note_off_c, 2, 67, 0
2, 529920, Note_on_c, 2, 76, 50
2, 530880, Note_off_c, 2, 76, 0
2, 530880, Note_on_c, 2, 76, 50
2, 531840, Note_off_c, 2, 76, 0
2, 531840, Note_on_c, 2, 75, 50
2, 533760, Note_off_c, 2, 75, 0
2, 533760, Note_on_c, 2, 67, 50
2, 534240, Note_off_c, 2, 67, 0
2, 534240, Note_on_c, 2, 70, 50
2, 534480, Note_off_c, 2, 70, 0
2, 534480, Note_on_c, 2, 67, 50
2, 534720, Note_off_c, 2, 67, 0
2, 534720, Note_on_c, 2, 70, 50
2, 534960, Note_off_c, 2, 70, 0
2, 534960, Note_on_c, 2, 67, 50
2, 535200, Note_off_c, 2, 67, 0
2, 535200, Note_on_c, 2, 65, 50
2, 535440, Note_off_c, 2, 65, 0
2, 535440, Note_on_c, 2, 67, 50
2, 535920, Note_off_c, 2, 67, 0
2, 535920, Note_on_c, 2, 67, 50
2, 536160, Note_off_c, 2, 67, 0
2, 536160, Note_on_c, 2, 70, 50
2, 536400, Note_off_c, 2, 70, 0
2, 536400, Note_on_c, 2, 67, 50
2, 536640, Note_off_c, 2, 67, 0
2, 536640, Note_on_c, 2, 70, 50
2, 536880, Note_off_c, 2, 70, 0
2, 536880, Note_on_c, 2, 67, 50
2, 537120, Note_off_c, 2, 67, 0
2, 537120, Note_on_c, 2, 65, 50
2, 537600, Note_off_c, 2, 65, 0
2, 537600, Note_on_c, 2, 60, 50
2, 538080, Note_off_c, 2, 60, 0
2, 538080, Note_on_c, 2, 72, 50
2, 539520, Note_off_c, 2, 72, 0
2, 539520, Note_on_c, 2, 56, 50
2, 541440, Note_off_c, 2, 56, 0
2, 541440, Note_on_c, 2, 67, 50
2, 541680, Note_off_c, 2, 67, 0
2, 541680, Note_on_c, 2, 55, 50
2, 541800, Note_off_c, 2, 55, 0
2, 541920, Note_on_c, 2, 70, 50
2, 542160, Note_off_c, 2, 70, 0
2, 542400, Note_on_c, 2, 72, 50
2, 542640, Note_off_c, 2, 72, 0
2, 542640, Note_on_c, 2, 72, 50
2, 542760, Note_off_c, 2, 72, 0
2, 543120, Note_on_c, 2, 67, 50
2, 543360, Note_off_c, 2, 67, 0
2, 543600, Note_on_c, 2, 69, 50
2, 543720, Note_off_c, 2, 69, 0
2, 544080, Note_on_c, 2, 73, 50
2, 544320, Note_off_c, 2, 73, 0
2, 544320, Note_on_c, 2, 72, 50
2, 544800, Note_off_c, 2, 72, 0
2, 545280, Note_on_c, 2, 67, 50
2, 545520, Note_off_c, 2, 67, 0
2, 545760, Note_on_c, 2, 70, 50
2, 546000, Note_off_c, 2, 70, 0
2, 546240, Note_on_c, 2, 72, 50
2, 546720, Note_off_c, 2, 72, 0
2, 546960, Note_on_c, 2, 70, 50
2, 547440, Note_off_c, 2, 70, 0
2, 547440, Note_on_c, 2, 67, 50
2, 549120, Note_off_c, 2, 67, 0
2, 549120, Note_on_c, 2, 67, 50
2, 549360, Note_off_c, 2, 67, 0
2, 549600, Note_on_c, 2, 70, 50
2, 549720, Note_off_c, 2, 70, 0
2, 550080, Note_on_c, 2, 72, 50
2, 550560, Note_off_c, 2, 72, 0
2, 550800, Note_on_c, 2, 67, 50
2, 551040, Note_off_c, 2, 67, 0
2, 551280, Note_on_c, 2, 70, 50
2, 551520, Note_off_c, 2, 70, 0
2, 551520, Note_on_c, 2, 58, 50
2, 551640, Note_off_c, 2, 58, 0
2, 551760, Note_on_c, 2, 73, 50
2, 552000, Note_off_c, 2, 73, 0
2, 552000, Note_on_c, 2, 72, 50
2, 552480, Note_off_c, 2, 72, 0
2, 552960, Note_on_c, 2, 67, 50
2, 553200, Note_off_c, 2, 67, 0
2, 553440, Note_on_c, 2, 70, 50
2, 553680, Note_off_c, 2, 70, 0
2, 553920, Note_on_c, 2, 72, 50
2, 554400, Note_off_c, 2, 72, 0
2, 554400, Note_on_c, 2, 60, 50
2, 554640, Note_off_c, 2, 60, 0
2, 554640, Note_on_c, 2, 70, 50
2, 555120, Note_off_c, 2, 70, 0
2, 555120, Note_on_c, 2, 67, 50
2, 556800, Note_off_c, 2, 67, 0
2, 556800, Note_on_c, 2, 67, 50
2, 557040, Note_off_c, 2, 67, 0
2, 557040, Note_on_c, 2, 55, 50
2, 557160, Note_off_c, 2, 55, 0
2, 557280, Note_on_c, 2, 70, 50
2, 557520, Note_off_c, 2, 70, 0
2, 557760, Note_on_c, 2, 72, 50
2, 558000, Note_off_c, 2, 72, 0
2, 558000, Note_on_c, 2, 72, 50
2, 558120, Note_off_c, 2, 72, 0
2, 558480, Note_on_c, 2, 67, 50
2, 558720, Note_off_c, 2, 67, 0
2, 558960, Note_on_c, 2, 69, 50
2, 559080, Note_off_c, 2, 69, 0
2, 559440, Note_on_c, 2, 73, 50
2, 559680, Note_off_c, 2, 73, 0
2, 559680, Note_on_c, 2, 72, 50
2, 560160, Note_off_c, 2, 72, 0
2, 560640, Note_on_c, 2, 67, 50
2, 560880, Note_off_c, 2, 67, 0
2, 561120, Note_on_c, 2, 70, 50
2, 561360, Note_off_c, 2, 70, 0
2, 561600, Note_on_c, 2, 72, 50
2, 562080, Note_off_c, 2, 72, 0
2, 562320, Note_on_c, 2, 70, 50
2, 562800, Note_off_c, 2, 70, 0
2, 575520, Note_on_c, 2, 62, 50
2, 575640, Note_off_c, 2, 62, 0
2, 576000, Note_on_c, 2, 62, 50
2, 576480, Note_off_c, 2, 62, 0
2, 576480, Note_on_c, 2, 62, 50
2, 576720, Note_off_c, 2, 62, 0
2, 576720, Note_on_c, 2, 60, 50
2, 576960, Note_off_c, 2, 60, 0
2, 576960, Note_on_c, 2, 62, 50
2, 577200, Note_off_c, 2, 62, 0
2, 577200, Note_on_c, 2, 65, 50
2, 577440, Note_off_c, 2, 65, 0
2, 577440, Note_on_c, 2, 65, 50
2, 577920, Note_off_c, 2, 65, 0
2, 577920, Note_on_c, 2, 62, 50
2, 578160, Note_off_c, 2, 62, 0
2, 578160, Note_on_c, 2, 60, 50
2, 578400, Note_off_c, 2, 60, 0
2, 578400, Note_on_c, 2, 60, 50
2, 578640, Note_off_c, 2, 60, 0
2, 578640, Note_on_c, 2, 58, 50
2, 579000, Note_off_c, 2, 58, 0
2, 579120, Note_on_c, 2, 55, 50
2, 579240, Note_off_c, 2, 55, 0
2, 579360, Note_on_c, 2, 55, 50
2, 579480, Note_off_c, 2, 55, 0
2, 579840, Note_on_c, 2, 55, 50
2, 580320, Note_off_c, 2, 55, 0
2, 580320, Note_on_c, 2, 55, 50
2, 580560, Note_off_c, 2, 55, 0
2, 580560, Note_on_c, 2, 58, 50
2, 580800, Note_off_c, 2, 58, 0
2, 580800, Note_on_c, 2, 50, 50
2, 580920, Note_off_c, 2, 50, 0
2, 581040, Note_on_c, 2, 50, 50
2, 581160, Note_off_c, 2, 50, 0
2, 581280, Note_on_c, 2, 58, 50
2, 581760, Note_off_c, 2, 58, 0
2, 581760, Note_on_c, 2, 60, 50
2, 581880, Note_off_c, 2, 60, 0
2, 582240, Note_on_c, 2, 60, 50
2, 582720, Note_off_c, 2, 60, 0
2, 582720, Note_on_c, 2, 58, 50
2, 582960, Note_off_c, 2, 58, 0
2, 582960, Note_on_c, 2, 55, 50
2, 583080, Note_off_c, 2, 55, 0
2, 583200, Note_on_c, 2, 62, 50
2, 583320, Note_off_c, 2, 62, 0
2, 583680, Note_on_c, 2, 62, 50
2, 584160, Note_off_c, 2, 62, 0
2, 584160, Note_on_c, 2, 62, 50
2, 584400, Note_off_c, 2, 62, 0
2, 584400, Note_on_c, 2, 60, 50
2, 584640, Note_off_c, 2, 60, 0
2, 584640, Note_on_c, 2, 62, 50
2, 584880, Note_off_c, 2, 62, 0
2, 584880, Note_on_c, 2, 62, 50
2, 585120, Note_off_c, 2, 62, 0
2, 585120, Note_on_c, 2, 62, 50
2, 585360, Note_off_c, 2, 62, 0
2, 585360, Note_on_c, 2, 67, 50
2, 585600, Note_off_c, 2, 67, 0
2, 585600, Note_on_c, 2, 60, 50
2, 585840, Note_off_c, 2, 60, 0
2, 585840, Note_on_c, 2, 62, 50
2, 586080, Note_off_c, 2, 62, 0
2, 586080, Note_on_c, 2, 60, 50
2, 586320, Note_off_c, 2, 60, 0
2, 586320, Note_on_c, 2, 58, 50
2, 586560, Note_off_c, 2, 58, 0
2, 586560, Note_on_c, 2, 55, 50
2, 586680, Note_off_c, 2, 55, 0
2, 586800, Note_on_c, 2, 55, 50
2, 586920, Note_off_c, 2, 55, 0
2, 587040, Note_on_c, 2, 55, 50
2, 587160, Note_off_c, 2, 55, 0
2, 587520, Note_on_c, 2, 55, 50
2, 588240, Note_off_c, 2, 55, 0
2, 588240, Note_on_c, 2, 58, 50
2, 588480, Note_off_c, 2, 58, 0
2, 588480, Note_on_c, 2, 55, 50
2, 588720, Note_off_c, 2, 55, 0
2, 588720, Note_on_c, 2, 50, 50
2, 588840, Note_off_c, 2, 50, 0
2, 588960, Note_on_c, 2, 53, 50
2, 589440, Note_off_c, 2, 53, 0
2, 589440, Note_on_c, 2, 55, 50
2, 589560, Note_off_c, 2, 55, 0
2, 589920, Note_on_c, 2, 55, 50
2, 590880, Note_off_c, 2, 55, 0
2, 590880, Note_on_c, 2, 62, 50
2, 591000, Note_off_c, 2, 62, 0
2, 591360, Note_on_c, 2, 62, 50
2, 591840, Note_off_c, 2, 62, 0
2, 591840, Note_on_c, 2, 62, 50
2, 592080, Note_off_c, 2, 62, 0
2, 592080, Note_on_c, 2, 60, 50
2, 592320, Note_off_c, 2, 60, 0
2, 592320, Note_on_c, 2, 62, 50
2, 592560, Note_off_c, 2, 62, 0
2, 592560, Note_on_c, 2, 65, 50
2, 592800, Note_off_c, 2, 65, 0
2, 592800, Note_on_c, 2, 65, 50
2, 593280, Note_off_c, 2, 65, 0
2, 593280, Note_on_c, 2, 62, 50
2, 593520, Note_off_c, 2, 62, 0
2, 593520, Note_on_c, 2, 60, 50
2, 593760, Note_off_c, 2, 60, 0
2, 593760, Note_on_c, 2, 60, 50
2, 594000, Note_off_c, 2, 60, 0
2, 594000, Note_on_c, 2, 58, 50
2, 594360, Note_off_c, 2, 58, 0
2, 594480, Note_on_c, 2, 55, 50
2, 594600, Note_off_c, 2, 55, 0
2, 594720, Note_on_c, 2, 55, 50
2, 594840, Note_off_c, 2, 55, 0
2, 595200, Note_on_c, 2, 55, 50
2, 595680, Note_off_c, 2, 55, 0
2, 595680, Note_on_c, 2, 55, 50
2, 595920, Note_off_c, 2, 55, 0
2, 595920, Note_on_c, 2, 58, 50
2, 596160, Note_off_c, 2, 58, 0
2, 596160, Note_on_c, 2, 50, 50
2, 596280, Note_off_c, 2, 50, 0
2, 596400, Note_on_c, 2, 50, 50
2, 596520, Note_off_c, 2, 50, 0
2, 596640, Note_on_c, 2, 58, 50
2, 597120, Note_off_c, 2, 58, 0
2, 597120, Note_on_c, 2, 60, 50
2, 597240, Note_off_c, 2, 60, 0
2, 597600, Note_on_c, 2, 60, 50
2, 598080, Note_off_c, 2, 60, 0
2, 598080, Note_on_c, 2, 58, 50
2, 598320, Note_off_c, 2, 58, 0
2, 598320, Note_on_c, 2, 55, 50
2, 598440, Note_off_c, 2, 55, 0
2, 598560, Note_on_c, 2, 62, 50
2, 598680, Note_off_c, 2, 62, 0
2, 599040, Note_on_c, 2, 62, 50
2, 599520, Note_off_c, 2, 62, 0
2, 599520, Note_on_c, 2, 62, 50
2, 599760, Note_off_c, 2, 62, 0
2, 599760, Note_on_c, 2, 60, 50
2, 600000, Note_off_c, 2, 60, 0
2, 600000, Note_on_c, 2, 62, 50
2, 600240, Note_off_c, 2, 62, 0
2, 600240, Note_on_c, 2, 62, 50
2, 600480, Note_off_c, 2, 62, 0
2, 600480, Note_on_c, 2, 62, 50
2, 600720, Note_off_c, 2, 62, 0
2, 600720, Note_on_c, 2, 67, 50
2, 600960, Note_off_c, 2, 67, 0
2, 600960, Note_on_c, 2, 60, 50
2, 601200, Note_off_c, 2, 60, 0
2, 601200, Note_on_c, 2, 62, 50
2, 601440, Note_off_c, 2, 62, 0
2, 601440, Note_on_c, 2, 60, 50
2, 601680, Note_off_c, 2, 60, 0
2, 601680, Note_on_c, 2, 58, 50
2, 601920, Note_off_c, 2, 58, 0
2, 601920, Note_on_c, 2, 55, 50
2, 602040, Note_off_c, 2, 55, 0
2, 602160, Note_on_c, 2, 55, 50
2, 602280, Note_off_c, 2, 55, 0
2, 602400, Note_on_c, 2, 55, 50
2, 602520, Note_off_c, 2, 55, 0
2, 602880, Note_on_c, 2, 55, 50
2, 603600, Note_off_c, 2, 55, 0
2, 603600, Note_on_c, 2, 58, 50
2, 603840, Note_off_c, 2, 58, 0
2, 603840, Note_on_c, 2, 55, 50
2, 604080, Note_off_c, 2, 55, 0
2, 604080, Note_on_c, 2, 50, 50
2, 604200, Note_off_c, 2, 50, 0
2, 604320, Note_on_c, 2, 53, 50
2, 604800, Note_off_c, 2, 53, 0
2, 604800, Note_on_c, 2, 55, 50
2, 604920, Note_off_c, 2, 55, 0
2, 605280, Note_on_c, 2, 55, 50
2, 606240, Note_off_c, 2, 55, 0
2, 606240, Note_on_c, 2, 62, 50
2, 606360, Note_off_c, 2, 62, 0
2, 606720, Note_on_c, 2, 62, 50
2, 607200, Note_off_c, 2, 62, 0
2, 607200, Note_on_c, 2, 62, 50
2, 607440, Note_off_c, 2, 62, 0
2, 607440, Note_on_c, 2, 60, 50
2, 607680, Note_off_c, 2, 60, 0
2, 607680, Note_on_c, 2, 62, 50
2, 607920, Note_off_c, 2, 62, 0
2, 607920, Note_on_c, 2, 65, 50
2, 608160, Note_off_c, 2, 65, 0
2, 608160, Note_on_c, 2, 65, 50
2, 608640, Note_off_c, 2, 65, 0
2, 608640, Note_on_c, 2, 62, 50
2, 608880, Note_off_c, 2, 62, 0
2, 608880, Note_on_c, 2, 60, 50
2, 609120, Note_off_c, 2, 60, 0
2, 609120, Note_on_c, 2, 60, 50
2, 609360, Note_off_c, 2, 60, 0
2, 609360, Note_on_c, 2, 58, 50
2, 609720, Note_off_c, 2, 58, 0
2, 609840, Note_on_c, 2, 55, 50
2, 609960, Note_off_c, 2, 55, 0
2, 610080, Note_on_c, 2, 55, 50
2, 610200, Note_off_c, 2, 55, 0
2, 610560, Note_on_c, 2, 55, 50
2, 611040, Note_off_c, 2, 55, 0
2, 611040, Note_on_c, 2, 55, 50
2, 611280, Note_off_c, 2, 55, 0
2, 611280, Note_on_c, 2, 58, 50
2, 611520, Note_off_c, 2, 58, 0
2, 611520, Note_on_c, 2, 50, 50
2, 611640, Note_off_c, 2, 50, 0
2, 611760, Note_on_c, 2, 50, 50
2, 611880, Note_off_c, 2, 50, 0
2, 612000, Note_on_c, 2, 58, 50
2, 612480, Note_off_c, 2, 58, 0
2, 612480, Note_on_c, 2, 60, 50
2, 612600, Note_off_c, 2, 60, 0
2, 612960, Note_on_c, 2, 60, 50
2, 613440, Note_off_c, 2, 60, 0
2, 613440, Note_on_c, 2, 58, 50
2, 613680, Note_off_c, 2, 58, 0
2, 613680, Note_on_c, 2, 55, 50
2, 613800, Note_off_c, 2, 55, 0
2, 613920, Note_on_c, 2, 62, 50
2, 614040, Note_off_c, 2, 62, 0
2, 614400, Note_on_c, 2, 62, 50
2, 614880, Note_off_c, 2, 62, 0
2, 614880, Note_on_c, 2, 62, 50
2, 615120, Note_off_c, 2, 62, 0
2, 615120, Note_on_c, 2, 60, 50
2, 615360, Note_off_c, 2, 60, 0
2, 615360, Note_on_c, 2, 62, 50
2, 615600, Note_off_c, 2, 62, 0
2, 615600, Note_on_c, 2, 62, 50
2, 615840, Note_off_c, 2, 62, 0
2, 615840, Note_on_c, 2, 62, 50
2, 616080, Note_off_c, 2, 62, 0
2, 616080, Note_on_c, 2, 67, 50
2, 616320, Note_off_c, 2, 67, 0
2, 616320, Note_on_c, 2, 60, 50
2, 616560, Note_off_c, 2, 60, 0
2, 616560, Note_on_c, 2, 62, 50
2, 616800, Note_off_c, 2, 62, 0
2, 616800, Note_on_c, 2, 60, 50
2, 617040, Note_off_c, 2, 60, 0
2, 617040, Note_on_c, 2, 58, 50
2, 617280, Note_off_c, 2, 58, 0
2, 617280, Note_on_c, 2, 55, 50
2, 617400, Note_off_c, 2, 55, 0
2, 617520, Note_on_c, 2, 55, 50
2, 617640, Note_off_c, 2, 55, 0
2, 617760, Note_on_c, 2, 55, 50
2, 617880, Note_off_c, 2, 55, 0
2, 618240, Note_on_c, 2, 55, 50
2, 618960, Note_off_c, 2, 55, 0
2, 618960, Note_on_c, 2, 58, 50
2, 619200, Note_off_c, 2, 58, 0
2, 619200, Note_on_c, 2, 55, 50
2, 619440, Note_off_c, 2, 55, 0
2, 619440, Note_on_c, 2, 50, 50
2, 619560, Note_off_c, 2, 50, 0
2, 619680, Note_on_c, 2, 53, 50
2, 620160, Note_off_c, 2, 53, 0
2, 620160, Note_on_c, 2, 55, 50
2, 620280, Note_off_c, 2, 55, 0
2, 620640, Note_on_c, 2, 55, 50
2, 621600, Note_off_c, 2, 55, 0
2, 621600, Note_on_c, 2, 62, 50
2, 621720, Note_off_c, 2, 62, 0
2, 622080, Note_on_c, 2, 62, 50
2, 622560, Note_off_c, 2, 62, 0
2, 622560, Note_on_c, 2, 62, 50
2, 622800, Note_off_c, 2, 62, 0
2, 622800, Note_on_c, 2, 60, 50
2, 623040, Note_off_c, 2, 60, 0
2, 623040, Note_on_c, 2, 62, 50
2, 623280, Note_off_c, 2, 62, 0
2, 623280, Note_on_c, 2, 65, 50
2, 623520, Note_off_c, 2, 65, 0
2, 623520, Note_on_c, 2, 65, 50
2, 624000, Note_off_c, 2, 65, 0
2, 624000, Note_on_c, 2, 62, 50
2, 624240, Note_off_c, 2, 62, 0
2, 624240, Note_on_c, 2, 60, 50
2, 624480, Note_off_c, 2, 60, 0
2, 624480, Note_on_c, 2, 60, 50
2, 624720, Note_off_c, 2, 60, 0
2, 624720, Note_on_c, 2, 58, 50
2, 625080, Note_off_c, 2, 58, 0
2, 625200, Note_on_c, 2, 55, 50
2, 625320, Note_off_c, 2, 55, 0
2, 625440, Note_on_c, 2, 55, 50
2, 625560, Note_off_c, 2, 55, 0
2, 625920, Note_on_c, 2, 55, 50
2, 626400, Note_off_c, 2, 55, 0
2, 626400, Note_on_c, 2, 55, 50
2, 626640, Note_off_c, 2, 55, 0
2, 626640, Note_on_c, 2, 58, 50
2, 626880, Note_off_c, 2, 58, 0
2, 626880, Note_on_c, 2, 50, 50
2, 627000, Note_off_c, 2, 50, 0
2, 627120, Note_on_c, 2, 50, 50
2, 627240, Note_off_c, 2, 50, 0
2, 627360, Note_on_c, 2, 58, 50
2, 627840, Note_off_c, 2, 58, 0
2, 627840, Note_on_c, 2, 60, 50
2, 627960, Note_off_c, 2, 60, 0
2, 628320, Note_on_c, 2, 60, 50
2, 628800, Note_off_c, 2, 60, 0
2, 628800, Note_on_c, 2, 58, 50
2, 629040, Note_off_c, 2, 58, 0
2, 629040, Note_on_c, 2, 55, 50
2, 629160, Note_off_c, 2, 55, 0
2, 629280, Note_on_c, 2, 62, 50
2, 629400, Note_off_c, 2, 62, 0
2, 629760, Note_on_c, 2, 62, 50
2, 630240, Note_off_c, 2, 62, 0
2, 630240, Note_on_c, 2, 62, 50
2, 630480, Note_off_c, 2, 62, 0
2, 630480, Note_on_c, 2, 60, 50
2, 630720, Note_off_c, 2, 60, 0
2, 630720, Note_on_c, 2, 62, 50
2, 630960, Note_off_c, 2, 62, 0
2, 630960, Note_on_c, 2, 62, 50
2, 631200, Note_off_c, 2, 62, 0
2, 631200, Note_on_c, 2, 62, 50
2, 631440, Note_off_c, 2, 62, 0
2, 631440, Note_on_c, 2, 67, 50
2, 631680, Note_off_c, 2, 67, 0
2, 631680, Note_on_c, 2, 60, 50
2, 631920, Note_off_c, 2, 60, 0
2, 631920, Note_on_c, 2, 62, 50
2, 632160, Note_off_c, 2, 62, 0
2, 632160, Note_on_c, 2, 60, 50
2, 632400, Note_off_c, 2, 60, 0
2, 632400, Note_on_c, 2, 58, 50
2, 632640, Note_off_c, 2, 58, 0
2, 632640, Note_on_c, 2, 55, 50
2, 632760, Note_off_c, 2, 55, 0
2, 632880, Note_on_c, 2, 55, 50
2, 633000, Note_off_c, 2, 55, 0
2, 633120, Note_on_c, 2, 55, 50
2, 633240, Note_off_c, 2, 55, 0
2, 633600, Note_on_c, 2, 55, 50
2, 634320, Note_off_c, 2, 55, 0
2, 634320, Note_on_c, 2, 58, 50
2, 634560, Note_off_c, 2, 58, 0
2, 634560, Note_on_c, 2, 55, 50
2, 634800, Note_off_c, 2, 55, 0
2, 634800, Note_on_c, 2, 50, 50
2, 634920, Note_off_c, 2, 50, 0
2, 635040, Note_on_c, 2, 53, 50
2, 635520, Note_off_c, 2, 53, 0
2, 635520, Note_on_c, 2, 55, 50
2, 635640, Note_off_c, 2, 55, 0
2, 636000, Note_on_c, 2, 55, 50
2, 636960, Note_off_c, 2, 55, 0
2, 636960, Note_on_c, 2, 58, 50
2, 638880, Note_off_c, 2, 58, 0
2, 638880, Note_on_c, 2, 53, 50
2, 640080, Note_off_c, 2, 53, 0
2, 640080, Note_on_c, 2, 53, 50
2, 640560, Note_off_c, 2, 53, 0
2, 640560, Note_on_c, 2, 53, 50
2, 640800, Note_off_c, 2, 53, 0
2, 640800, Note_on_c, 2, 58, 50
2, 641040, Note_off_c, 2, 58, 0
2, 641040, Note_on_c, 2, 58, 50
2, 641280, Note_off_c, 2, 58, 0
2, 641280, Note_on_c, 2, 58, 50
2, 641520, Note_off_c, 2, 58, 0
2, 641520, Note_on_c, 2, 58, 50
2, 641760, Note_off_c, 2, 58, 0
2, 641760, Note_on_c, 2, 58, 50
2, 642000, Note_off_c, 2, 58, 0
2, 642000, Note_on_c, 2, 58, 50
2, 642240, Note_off_c, 2, 58, 0
2, 642240, Note_on_c, 2, 58, 50
2, 642480, Note_off_c, 2, 58, 0
2, 642480, Note_on_c, 2, 58, 50
2, 642720, Note_off_c, 2, 58, 0
2, 642720, Note_on_c, 2, 60, 50
2, 642960, Note_off_c, 2, 60, 0
2, 642960, Note_on_c, 2, 60, 50
2, 643440, Note_off_c, 2, 60, 0
2, 643440, Note_on_c, 2, 60, 50
2, 643920, Note_off_c, 2, 60, 0
2, 643920, Note_on_c, 2, 60, 50
2, 644400, Note_off_c, 2, 60, 0
2, 644400, Note_on_c, 2, 60, 50
2, 644640, Note_off_c, 2, 60, 0
2, 644640, Note_on_c, 2, 62, 50
2, 644760, Note_off_c, 2, 62, 0
2, 645120, Note_on_c, 2, 62, 50
2, 645600, Note_off_c, 2, 62, 0
2, 645600, Note_on_c, 2, 62, 50
2, 645840, Note_off_c, 2, 62, 0
2, 645840, Note_on_c, 2, 60, 50
2, 646080, Note_off_c, 2, 60, 0
2, 646080, Note_on_c, 2, 62, 50
2, 646320, Note_off_c, 2, 62, 0
2, 646320, Note_on_c, 2, 62, 50
2, 646560, Note_off_c, 2, 62, 0
2, 646560, Note_on_c, 2, 62, 50
2, 646800, Note_off_c, 2, 62, 0
2, 646800, Note_on_c, 2, 67, 50
2, 647040, Note_off_c, 2, 67, 0
2, 647040, Note_on_c, 2, 60, 50
2, 647280, Note_off_c, 2, 60, 0
2, 647280, Note_on_c, 2, 62, 50
2, 647520, Note_off_c, 2, 62, 0
2, 647520, Note_on_c, 2, 60, 50
2, 647760, Note_off_c, 2, 60, 0
2, 647760, Note_on_c, 2, 58, 50
2, 648000, Note_off_c, 2, 58, 0
2, 648000, Note_on_c, 2, 55, 50
2, 648120, Note_off_c, 2, 55, 0
2, 648240, Note_on_c, 2, 55, 50
2, 648360, Note_off_c, 2, 55, 0
2, 648480, Note_on_c, 2, 55, 50
2, 649680, Note_off_c, 2, 55, 0
2, 649680, Note_on_c, 2, 55, 50
2, 650160, Note_off_c, 2, 55, 0
2, 650160, Note_on_c, 2, 55, 50
2, 650400, Note_off_c, 2, 55, 0
2, 650400, Note_on_c, 2, 57, 50
2, 651600, Note_off_c, 2, 57, 0
2, 651600, Note_on_c, 2, 57, 50
2, 652080, Note_off_c, 2, 57, 0
2, 652080, Note_on_c, 2, 57, 50
2, 652320, Note_off_c, 2, 57, 0
2, 652320, Note_on_c, 2, 59, 50
2, 654240, Note_off_c, 2, 59, 0
2, 654240, Note_on_c, 2, 59, 50
2, 656040, Note_off_c, 2, 59, 0
2, 656160, Note_on_c, 2, 62, 50
2, 656280, Note_off_c, 2, 62, 0
2, 656640, Note_on_c, 2, 62, 50
2, 657120, Note_off_c, 2, 62, 0
2, 657120, Note_on_c, 2, 62, 50
2, 657360, Note_off_c, 2, 62, 0
2, 657360, Note_on_c, 2, 60, 50
2, 657600, Note_off_c, 2, 60, 0
2, 657600, Note_on_c, 2, 62, 50
2, 657840, Note_off_c, 2, 62, 0
2, 657840, Note_on_c, 2, 65, 50
2, 658080, Note_off_c, 2, 65, 0
2, 658080, Note_on_c, 2, 65, 50
2, 658560, Note_off_c, 2, 65, 0
2, 658560, Note_on_c, 2, 62, 50
2, 658800, Note_off_c, 2, 62, 0
2, 658800, Note_on_c, 2, 60, 50
2, 659040, Note_off_c, 2, 60, 0
2, 659040, Note_on_c, 2, 60, 50
2, 659280, Note_off_c, 2, 60, 0
2, 659280, Note_on_c, 2, 58, 50
2, 659640, Note_off_c, 2, 58, 0
2, 659760, Note_on_c, 2, 55, 50
2, 659880, Note_off_c, 2, 55, 0
2, 660000, Note_on_c, 2, 55, 50
2, 660120, Note_off_c, 2, 55, 0
2, 660480, Note_on_c, 2, 55, 50
2, 660960, Note_off_c, 2, 55, 0
2, 660960, Note_on_c, 2, 55, 50
2, 661200, Note_off_c, 2, 55, 0
2, 661200, Note_on_c, 2, 58, 50
2, 661440, Note_off_c, 2, 58, 0
2, 661440, Note_on_c, 2, 50, 50
2, 661560, Note_off_c, 2, 50, 0
2, 661680, Note_on_c, 2, 50, 50
2, 661800, Note_off_c, 2, 50, 0
2, 661920, Note_on_c, 2, 58, 50
2, 662400, Note_off_c, 2, 58, 0
2, 662400, Note_on_c, 2, 60, 50
2, 662520, Note_off_c, 2, 60, 0
2, 662880, Note_on_c, 2, 60, 50
2, 663360, Note_off_c, 2, 60, 0
2, 663360, Note_on_c, 2, 58, 50
2, 663600, Note_off_c, 2, 58, 0
2, 663600, Note_on_c, 2, 55, 50
2, 663720, Note_off_c, 2, 55, 0
2, 663840, Note_on_c, 2, 62, 50
2, 663960, Note_off_c, 2, 62, 0
2, 664320, Note_on_c, 2, 62, 50
2, 664800, Note_off_c, 2, 62, 0
2, 664800, Note_on_c, 2, 62, 50
2, 665040, Note_off_c, 2, 62, 0
2, 665040, Note_on_c, 2, 60, 50
2, 665280, Note_off_c, 2, 60, 0
2, 665280, Note_on_c, 2, 62, 50
2, 665520, Note_off_c, 2, 62, 0
2, 665520, Note_on_c, 2, 62, 50
2, 665760, Note_off_c, 2, 62, 0
2, 665760, Note_on_c, 2, 62, 50
2, 666000, Note_off_c, 2, 62, 0
2, 666000, Note_on_c, 2, 67, 50
2, 666240, Note_off_c, 2, 67, 0
2, 666240, Note_on_c, 2, 60, 50
2, 666480, Note_off_c, 2, 60, 0
2, 666480, Note_on_c, 2, 62, 50
2, 666720, Note_off_c, 2, 62, 0
2, 666720, Note_on_c, 2, 60, 50
2, 666960, Note_off_c, 2, 60, 0
2, 666960, Note_on_c, 2, 58, 50
2, 667200, Note_off_c, 2, 58, 0
2, 667200, Note_on_c, 2, 55, 50
2, 667320, Note_off_c, 2, 55, 0
2, 667440, Note_on_c, 2, 55, 50
2, 667560, Note_off_c, 2, 55, 0
2, 667680, Note_on_c, 2, 55, 50
2, 667800, Note_off_c, 2, 55, 0
2, 668160, Note_on_c, 2, 55, 50
2, 668880, Note_off_c, 2, 55, 0
2, 668880, Note_on_c, 2, 58, 50
2, 669120, Note_off_c, 2, 58, 0
2, 669120, Note_on_c, 2, 55, 50
2, 669360, Note_off_c, 2, 55, 0
2, 669360, Note_on_c, 2, 50, 50
2, 669480, Note_off_c, 2, 50, 0
2, 669600, Note_on_c, 2, 53, 50
2, 670080, Note_off_c, 2, 53, 0
2, 670080, Note_on_c, 2, 55, 50
2, 670200, Note_off_c, 2, 55, 0
2, 670560, Note_on_c, 2, 55, 50
2, 671520, Note_off_c, 2, 55, 0
2, 671520, Note_on_c, 2, 58, 50
2, 673440, Note_off_c, 2, 58, 0
2, 673440, Note_on_c, 2, 53, 50
2, 674640, Note_off_c, 2, 53, 0
2, 674640, Note_on_c, 2, 53, 50
2, 675120, Note_off_c, 2, 53, 0
2, 675120, Note_on_c, 2, 53, 50
2, 675360, Note_off_c, 2, 53, 0
2, 675360, Note_on_c, 2, 58, 50
2, 675600, Note_off_c, 2, 58, 0
2, 675600, Note_on_c, 2, 58, 50
2, 675840, Note_off_c, 2, 58, 0
2, 675840, Note_on_c, 2, 58, 50
2, 676080, Note_off_c, 2, 58, 0
2, 676080, Note_on_c, 2, 58, 50
2, 676320, Note_off_c, 2, 58, 0
2, 676320, Note_on_c, 2, 58, 50
2, 676560, Note_off_c, 2, 58, 0
2, 676560, Note_on_c, 2, 58, 50
2, 676800, Note_off_c, 2, 58, 0
2, 676800, Note_on_c, 2, 58, 50
2, 677040, Note_off_c, 2, 58, 0
2, 677040, Note_on_c, 2, 58, 50
2, 677280, Note_off_c, 2, 58, 0
2, 677280, Note_on_c, 2, 60, 50
2, 677520, Note_off_c, 2, 60, 0
2, 677520, Note_on_c, 2, 60, 50
2, 678000, Note_off_c, 2, 60, 0
2, 678000, Note_on_c, 2, 60, 50
2, 678480, Note_off_c, 2, 60, 0
2, 678480, Note_on_c, 2, 60, 50
2, 678960, Note_off_c, 2, 60, 0
2, 678960, Note_on_c, 2, 60, 50
2, 679200, Note_off_c, 2, 60, 0
2, 679200, Note_on_c, 2, 62, 50
2, 679320, Note_off_c, 2, 62, 0
2, 679680, Note_on_c, 2, 62, 50
2, 680160, Note_off_c, 2, 62, 0
2, 680160, Note_on_c, 2, 62, 50
2, 680400, Note_off_c, 2, 62, 0
2, 680400, Note_on_c, 2, 60, 50
2, 680640, Note_off_c, 2, 60, 0
2, 680640, Note_on_c, 2, 62, 50
2, 680880, Note_off_c, 2, 62, 0
2, 680880, Note_on_c, 2, 62, 50
2, 681120, Note_off_c, 2, 62, 0
2, 681120, Note_on_c, 2, 62, 50
2, 681360, Note_off_c, 2, 62, 0
2, 681360, Note_on_c, 2, 67, 50
2, 681600, Note_off_c, 2, 67, 0
2, 681600, Note_on_c, 2, 60, 50
2, 681840, Note_off_c, 2, 60, 0
2, 681840, Note_on_c, 2, 62, 50
2, 682080, Note_off_c, 2, 62, 0
2, 682080, Note_on_c, 2, 60, 50
2, 682320, Note_off_c, 2, 60, 0
2, 682320, Note_on_c, 2, 58, 50
2, 682560, Note_off_c, 2, 58, 0
2, 682560, Note_on_c, 2, 55, 50
2, 682680, Note_off_c, 2, 55, 0
2, 682800, Note_on_c, 2, 55, 50
2, 682920, Note_off_c, 2, 55, 0
2, 683040, Note_on_c, 2, 55, 50
2, 684240, Note_off_c, 2, 55, 0
2, 684240, Note_on_c, 2, 55, 50
2, 684720, Note_off_c, 2, 55, 0
2, 684720, Note_on_c, 2, 55, 50
2, 684960, Note_off_c, 2, 55, 0
2, 684960, Note_on_c, 2, 57, 50
2, 686160, Note_off_c, 2, 57, 0
2, 686160, Note_on_c, 2, 57, 50
2, 686640, Note_off_c, 2, 57, 0
2, 686640, Note_on_c, 2, 57, 50
2, 686880, Note_off_c, 2, 57, 0
2, 686880, Note_on_c, 2, 59, 50
2, 688800, Note_off_c, 2, 59, 0
2, 688800, Note_on_c, 2, 59, 50
2, 690600, Note_off_c, 2, 59, 0
2, 690720, Note_on_c, 2, 62, 50
2, 690840, Note_off_c, 2, 62, 0
2, 691200, Note_on_c, 2, 62, 50
2, 691680, Note_off_c, 2, 62, 0
2, 691680, Note_on_c, 2, 62, 50
2, 691920, Note_off_c, 2, 62, 0
2, 691920, Note_on_c, 2, 60, 50
2, 692160, Note_off_c, 2, 60, 0
2, 692160, Note_on_c, 2, 62, 50
2, 692400, Note_off_c, 2, 62, 0
2, 692400, Note_on_c, 2, 65, 50
2, 692640, Note_off_c, 2, 65, 0
2, 692640, Note_on_c, 2, 65, 50
2, 693120, Note_off_c, 2, 65, 0
2, 693120, Note_on_c, 2, 62, 50
2, 693360, Note_off_c, 2, 62, 0
2, 693360, Note_on_c, 2, 60, 50
2, 693600, Note_off_c, 2, 60, 0
2, 693600, Note_on_c, 2, 60, 50
2, 693840, Note_off_c, 2, 60, 0
2, 693840, Note_on_c, 2, 58, 50
2, 694200, Note_off_c, 2, 58, 0
2, 694320, Note_on_c, 2, 55, 50
2, 694440, Note_off_c, 2, 55, 0
2, 694560, Note_on_c, 2, 55, 50
2, 694680, Note_off_c, 2, 55, 0
2, 695040, Note_on_c, 2, 55, 50
2, 695520, Note_off_c, 2, 55, 0
2, 695520, Note_on_c, 2, 55, 50
2, 695760, Note_off_c, 2, 55, 0
2, 695760, Note_on_c, 2, 58, 50
2, 696000, Note_off_c, 2, 58, 0
2, 696000, Note_on_c, 2, 50, 50
2, 696120, Note_off_c, 2, 50, 0
2, 696240, Note_on_c, 2, 50, 50
2, 696360, Note_off_c, 2, 50, 0
2, 696480, Note_on_c, 2, 58, 50
2, 696960, Note_off_c, 2, 58, 0
2, 696960, Note_on_c, 2, 60, 50
2, 697080, Note_off_c, 2, 60, 0
2, 697440, Note_on_c, 2, 60, 50
2, 697920, Note_off_c, 2, 60, 0
2, 697920, Note_on_c, 2, 58, 50
2, 698160, Note_off_c, 2, 58, 0
2, 698160, Note_on_c, 2, 55, 50
2, 698280, Note_off_c, 2, 55, 0
2, 698400, Note_on_c, 2, 62, 50
2, 698520, Note_off_c, 2, 62, 0
2, 698880, Note_on_c, 2, 62, 50
2, 699360, Note_off_c, 2, 62, 0
2, 699360, Note_on_c, 2, 62, 50
2, 699600, Note_off_c, 2, 62, 0
2, 699600, Note_on_c, 2, 60, 50
2, 699840, Note_off_c, 2, 60, 0
2, 699840, Note_on_c, 2, 62, 50
2, 700080, Note_off_c, 2, 62, 0
2, 700080, Note_on_c, 2, 62, 50
2, 700320, Note_off_c, 2, 62, 0
2, 700320, Note_on_c, 2, 62, 50
2, 700560, Note_off_c, 2, 62, 0
2, 700560, Note_on_c, 2, 67, 50
2, 700800, Note_off_c, 2, 67, 0
2, 700800, Note_on_c, 2, 60, 50
2, 701040, Note_off_c, 2, 60, 0
2, 701040, Note_on_c, 2, 62, 50
2, 701280, Note_off_c, 2, 62, 0
2, 701280, Note_on_c, 2, 60, 50
2, 701520, Note_off_c, 2, 60, 0
2, 701520, Note_on_c, 2, 58, 50
2, 701760, Note_off_c, 2, 58, 0
2, 701760, Note_on_c, 2, 55, 50
2, 701880, Note_off_c, 2, 55, 0
2, 702000, Note_on_c, 2, 55, 50
2, 702120, Note_off_c, 2, 55, 0
2, 702240, Note_on_c, 2, 55, 50
2, 702360, Note_off_c, 2, 55, 0
2, 702720, Note_on_c, 2, 55, 50
2, 703440, Note_off_c, 2, 55, 0
2, 703440, Note_on_c, 2, 58, 50
2, 703680, Note_off_c, 2, 58, 0
2, 703680, Note_on_c, 2, 55, 50
2, 703920, Note_off_c, 2, 55, 0
2, 703920, Note_on_c, 2, 50, 50
2, 704040, Note_off_c, 2, 50, 0
2, 704160, Note_on_c, 2, 53, 50
2, 704640, Note_off_c, 2, 53, 0
2, 704640, Note_on_c, 2, 55, 50
2, 704760, Note_off_c, 2, 55, 0
2, 705120, Note_on_c, 2, 55, 50
2, 706080, Note_off_c, 2, 55, 0
2, 706080, Note_on_c, 2, 58, 50
2, 708000, Note_off_c, 2, 58, 0
2, 708000, Note_on_c, 2, 53, 50
2, 709200, Note_off_c, 2, 53, 0
2, 709200, Note_on_c, 2, 53, 50
2, 709680, Note_off_c, 2, 53, 0
2, 709680, Note_on_c, 2, 53, 50
2, 709920, Note_off_c, 2, 53, 0
2, 709920, Note_on_c, 2, 58, 50
2, 710160, Note_off_c, 2, 58, 0
2, 710160, Note_on_c, 2, 58, 50
2, 710400, Note_off_c, 2, 58, 0
2, 710400, Note_on_c, 2, 58, 50
2, 710640, Note_off_c, 2, 58, 0
2, 710640, Note_on_c, 2, 58, 50
2, 710880, Note_off_c, 2, 58, 0
2, 710880, Note_on_c, 2, 58, 50
2, 711120, Note_off_c, 2, 58, 0
2, 711120, Note_on_c, 2, 58, 50
2, 711360, Note_off_c, 2, 58, 0
2, 711360, Note_on_c, 2, 58, 50
2, 711600, Note_off_c, 2, 58, 0
2, 711600, Note_on_c, 2, 58, 50
2, 711840, Note_off_c, 2, 58, 0
2, 711840, Note_on_c, 2, 60, 50
2, 712080, Note_off_c, 2, 60, 0
2, 712080, Note_on_c, 2, 60, 50
2, 712560, Note_off_c, 2, 60, 0
2, 712560, Note_on_c, 2, 60, 50
2, 713040, Note_off_c, 2, 60, 0
2, 713040, Note_on_c, 2, 60, 50
2, 713520, Note_off_c, 2, 60, 0
2, 713520, Note_on_c, 2, 60, 50
2, 713760, Note_off_c, 2, 60, 0
2, 713760, Note_on_c, 2, 62, 50
2, 713880, Note_off_c, 2, 62, 0
2, 714240, Note_on_c, 2, 62, 50
2, 714720, Note_off_c, 2, 62, 0
2, 714720, Note_on_c, 2, 62, 50
2, 714960, Note_off_c, 2, 62, 0
2, 714960, Note_on_c, 2, 60, 50
2, 715200, Note_off_c, 2, 60, 0
2, 715200, Note_on_c, 2, 62, 50
2, 715440, Note_off_c, 2, 62, 0
2, 715440, Note_on_c, 2, 62, 50
2, 715680, Note_off_c, 2, 62, 0
2, 715680, Note_on_c, 2, 62, 50
2, 715920, Note_off_c, 2, 62, 0
2, 715920, Note_on_c, 2, 67, 50
2, 716160, Note_off_c, 2, 67, 0
2, 716160, Note_on_c, 2, 60, 50
2, 716400, Note_off_c, 2, 60, 0
2, 716400, Note_on_c, 2, 62, 50
2, 716640, Note_off_c, 2, 62, 0
2, 716640, Note_on_c, 2, 60, 50
2, 716880, Note_off_c, 2, 60, 0
2, 716880, Note_on_c, 2, 58, 50
2, 717120, Note_off_c, 2, 58, 0
2, 717120, Note_on_c, 2, 55, 50
2, 717240, Note_off_c, 2, 55, 0
2, 717360, Note_on_c, 2, 55, 50
2, 717480, Note_off_c, 2, 55, 0
2, 717600, Note_on_c, 2, 55, 50
2, 718800, Note_off_c, 2, 55, 0
2, 718800, Note_on_c, 2, 55, 50
2, 719280, Note_off_c, 2, 55, 0
2, 719280, Note_on_c, 2, 55, 50
2, 719520, Note_off_c, 2, 55, 0
2, 719520, Note_on_c, 2, 57, 50
2, 720720, Note_off_c, 2, 57, 0
2, 720720, Note_on_c, 2, 57, 50
2, 721200, Note_off_c, 2, 57, 0
2, 721200, Note_on_c, 2, 57, 50
2, 721440, Note_off_c, 2, 57, 0
2, 721440, Note_on_c, 2, 59, 50
2, 723360, Note_off_c, 2, 59, 0
2, 723360, Note_on_c, 2, 59, 50
2, 725160, Note_off_c, 2, 59, 0
2, 725280, Note_on_c, 2, 62, 50
2, 725400, Note_off_c, 2, 62, 0
2, 725760, Note_on_c, 2, 62, 50
2, 726240, Note_off_c, 2, 62, 0
2, 726240, Note_on_c, 2, 62, 50
2, 726480, Note_off_c, 2, 62, 0
2, 726480, Note_on_c, 2, 60, 50
2, 726720, Note_off_c, 2, 60, 0
2, 726720, Note_on_c, 2, 62, 50
2, 726960, Note_off_c, 2, 62, 0
2, 726960, Note_on_c, 2, 65, 50
2, 727200, Note_off_c, 2, 65, 0
2, 727200, Note_on_c, 2, 65, 50
2, 727680, Note_off_c, 2, 65, 0
2, 727680, Note_on_c, 2, 62, 50
2, 727920, Note_off_c, 2, 62, 0
2, 727920, Note_on_c, 2, 60, 50
2, 728160, Note_off_c, 2, 60, 0
2, 728160, Note_on_c, 2, 60, 50
2, 728400, Note_off_c, 2, 60, 0
2, 728400, Note_on_c, 2, 58, 50
2, 728760, Note_off_c, 2, 58, 0
2, 728880, Note_on_c, 2, 55, 50
2, 729000, Note_off_c, 2, 55, 0
2, 729120, Note_on_c, 2, 55, 50
2, 729240, Note_off_c, 2, 55, 0
2, 729600, Note_on_c, 2, 55, 50
2, 730080, Note_off_c, 2, 55, 0
2, 730080, Note_on_c, 2, 55, 50
2, 730320, Note_off_c, 2, 55, 0
2, 730320, Note_on_c, 2, 58, 50
2, 730560, Note_off_c, 2, 58, 0
2, 730560, Note_on_c, 2, 50, 50
2, 730680, Note_off_c, 2, 50, 0
2, 730800, Note_on_c, 2, 50, 50
2, 730920, Note_off_c, 2, 50, 0
2, 731040, Note_on_c, 2, 58, 50
2, 731520, Note_off_c, 2, 58, 0
2, 731520, Note_on_c, 2, 60, 50
2, 731640, Note_off_c, 2, 60, 0
2, 732000, Note_on_c, 2, 60, 50
2, 732480, Note_off_c, 2, 60, 0
2, 732480, Note_on_c, 2, 58, 50
2, 732720, Note_off_c, 2, 58, 0
2, 732720, Note_on_c, 2, 55, 50
2, 732840, Note_off_c, 2, 55, 0
2, 732960, Note_on_c, 2, 62, 50
2, 733080, Note_off_c, 2, 62, 0
2, 733440, Note_on_c, 2, 62, 50
2, 733920, Note_off_c, 2, 62, 0
2, 733920, Note_on_c, 2, 62, 50
2, 734160, Note_off_c, 2, 62, 0
2, 734160, Note_on_c, 2, 60, 50
2, 734400, Note_off_c, 2, 60, 0
2, 734400, Note_on_c, 2, 62, 50
2, 734640, Note_off_c, 2, 62, 0
2, 734640, Note_on_c, 2, 62, 50
2, 734880, Note_off_c, 2, 62, 0
2, 734880, Note_on_c, 2, 62, 50
2, 735120, Note_off_c, 2, 62, 0
2, 735120, Note_on_c, 2, 67, 50
2, 735360, Note_off_c, 2, 67, 0
2, 735360, Note_on_c, 2, 60, 50
2, 735600, Note_off_c, 2, 60, 0
2, 735600, Note_on_c, 2, 62, 50
2, 735840, Note_off_c, 2, 62, 0
2, 735840, Note_on_c, 2, 60, 50
2, 736080, Note_off_c, 2, 60, 0
2, 736080, Note_on_c, 2, 58, 50
2, 736320, Note_off_c, 2, 58, 0
2, 736320, Note_on_c, 2, 55, 50
2, 736440, Note_off_c, 2, 55, 0
2, 736560, Note_on_c, 2, 55, 50
2, 736680, Note_off_c, 2, 55, 0
2, 736800, Note_on_c, 2, 55, 50
2, 736920, Note_off_c, 2, 55, 0
2, 737280, Note_on_c, 2, 55, 50
2, 738000, Note_off_c, 2, 55, 0
2, 738000, Note_on_c, 2, 58, 50
2, 738240, Note_off_c, 2, 58, 0
2, 738240, Note_on_c, 2, 55, 50
2, 738480, Note_off_c, 2, 55, 0
2, 738480, Note_on_c, 2, 50, 50
2, 738600, Note_off_c, 2, 50, 0
2, 738720, Note_on_c, 2, 53, 50
2, 739200, Note_off_c, 2, 53, 0
2, 739200, Note_on_c, 2, 55, 50
2, 739320, Note_off_c, 2, 55, 0
2, 739680, Note_on_c, 2, 55, 50
2, 740640, Note_off_c, 2, 55, 0
2, 740640, Note_on_c, 2, 62, 50
2, 740760, Note_off_c, 2, 62, 0
2, 741120, Note_on_c, 2, 62, 50
2, 741600, Note_off_c, 2, 62, 0
2, 741600, Note_on_c, 2, 62, 50
2, 741840, Note_off_c, 2, 62, 0
2, 741840, Note_on_c, 2, 60, 50
2, 742080, Note_off_c, 2, 60, 0
2, 742080, Note_on_c, 2, 62, 50
2, 742320, Note_off_c, 2, 62, 0
2, 742320, Note_on_c, 2, 65, 50
2, 742560, Note_off_c, 2, 65, 0
2, 742560, Note_on_c, 2, 65, 50
2, 743040, Note_off_c, 2, 65, 0
2, 743040, Note_on_c, 2, 62, 50
2, 743280, Note_off_c, 2, 62, 0
2, 743280, Note_on_c, 2, 60, 50
2, 743520, Note_off_c, 2, 60, 0
2, 743520, Note_on_c, 2, 60, 50
2, 743760, Note_off_c, 2, 60, 0
2, 743760, Note_on_c, 2, 58, 50
2, 744120, Note_off_c, 2, 58, 0
2, 744240, Note_on_c, 2, 55, 50
2, 744360, Note_off_c, 2, 55, 0
2, 744480, Note_on_c, 2, 55, 50
2, 744600, Note_off_c, 2, 55, 0
2, 744960, Note_on_c, 2, 55, 50
2, 745440, Note_off_c, 2, 55, 0
2, 745440, Note_on_c, 2, 55, 50
2, 745680, Note_off_c, 2, 55, 0
2, 745680, Note_on_c, 2, 58, 50
2, 745920, Note_off_c, 2, 58, 0
2, 745920, Note_on_c, 2, 50, 50
2, 746040, Note_off_c, 2, 50, 0
2, 746160, Note_on_c, 2, 50, 50
2, 746280, Note_off_c, 2, 50, 0
2, 746400, Note_on_c, 2, 58, 50
2, 746880, Note_off_c, 2, 58, 0
2, 746880, Note_on_c, 2, 60, 50
2, 747000, Note_off_c, 2, 60, 0
2, 747360, Note_on_c, 2, 60, 50
2, 747840, Note_off_c, 2, 60, 0
2, 747840, Note_on_c, 2, 58, 50
2, 748080, Note_off_c, 2, 58, 0
2, 748080, Note_on_c, 2, 55, 50
2, 748200, Note_off_c, 2, 55, 0
2, 748320, Note_on_c, 2, 62, 50
2, 748440, Note_off_c, 2, 62, 0
2, 748800, Note_on_c, 2, 62, 50
2, 749280, Note_off_c, 2, 62, 0
2, 749280, Note_on_c, 2, 62, 50
2, 749520, Note_off_c, 2, 62, 0
2, 749520, Note_on_c, 2, 60, 50
2, 749760, Note_off_c, 2, 60, 0
2, 749760, Note_on_c, 2, 62, 50
2, 750000, Note_off_c, 2, 62, 0
2, 750000, Note_on_c, 2, 62, 50
2, 750240, Note_off_c, 2, 62, 0
2, 750240, Note_on_c, 2, 62, 50
2, 750480, Note_off_c, 2, 62, 0
2, 750480, Note_on_c, 2, 67, 50
2, 750720, Note_off_c, 2, 67, 0
2, 750720, Note_on_c, 2, 60, 50
2, 750960, Note_off_c, 2, 60, 0
2, 750960, Note_on_c, 2, 62, 50
2, 751200, Note_off_c, 2, 62, 0
2, 751200, Note_on_c, 2, 60, 50
2, 751440, Note_off_c, 2, 60, 0
2, 751440, Note_on_c, 2, 58, 50
2, 751680, Note_off_c, 2, 58, 0
2, 751680, Note_on_c, 2, 55, 50
2, 751800, Note_off_c, 2, 55, 0
2, 751920, Note_on_c, 2, 55, 50
2, 752040, Note_off_c, 2, 55, 0
2, 752160, Note_on_c, 2, 55, 50
2, 752280, Note_off_c, 2, 55, 0
2, 752640, Note_on_c, 2, 55, 50
2, 753360, Note_off_c, 2, 55, 0
2, 753360, Note_on_c, 2, 58, 50
2, 753600, Note_off_c, 2, 58, 0
2, 753600, Note_on_c, 2, 55, 50
2, 753840, Note_off_c, 2, 55, 0
2, 753840, Note_on_c, 2, 50, 50
2, 753960, Note_off_c, 2, 50, 0
2, 754080, Note_on_c, 2, 53, 50
2, 754560, Note_off_c, 2, 53, 0
2, 754560, Note_on_c, 2, 55, 50
2, 754680, Note_off_c, 2, 55, 0
2, 755040, Note_on_c, 2, 55, 50
2, 756000, Note_off_c, 2, 55, 0
2, 756000, Note_on_c, 2, 58, 50
2, 757920, Note_off_c, 2, 58, 0
2, 757920, Note_on_c, 2, 53, 50
2, 759120, Note_off_c, 2, 53, 0
2, 759120, Note_on_c, 2, 53, 50
2, 759600, Note_off_c, 2, 53, 0
2, 759600, Note_on_c, 2, 53, 50
2, 759840, Note_off_c, 2, 53, 0
2, 759840, Note_on_c, 2, 58, 50
2, 760080, Note_off_c, 2, 58, 0
2, 760080, Note_on_c, 2, 58, 50
2, 760320, Note_off_c, 2, 58, 0
2, 760320, Note_on_c, 2, 58, 50
2, 760560, Note_off_c, 2, 58, 0
2, 760560, Note_on_c, 2, 58, 50
2, 760800, Note_off_c, 2, 58, 0
2, 760800, Note_on_c, 2, 58, 50
2, 761040, Note_off_c, 2, 58, 0
2, 761040, Note_on_c, 2, 58, 50
2, 761280, Note_off_c, 2, 58, 0
2, 761280, Note_on_c, 2, 58, 50
2, 761520, Note_off_c, 2, 58, 0
2, 761520, Note_on_c, 2, 58, 50
2, 761760, Note_off_c, 2, 58, 0
2, 761760, Note_on_c, 2, 60, 50
2, 762000, Note_off_c, 2, 60, 0
2, 762000, Note_on_c, 2, 60, 50
2, 762480, Note_off_c, 2, 60, 0
2, 762480, Note_on_c, 2, 60, 50
2, 762960, Note_off_c, 2, 60, 0
2, 762960, Note_on_c, 2, 60, 50
2, 763440, Note_off_c, 2, 60, 0
2, 763440, Note_on_c, 2, 60, 50
2, 763680, Note_off_c, 2, 60, 0
2, 763680, Note_on_c, 2, 62, 50
2, 763800, Note_off_c, 2, 62, 0
2, 764160, Note_on_c, 2, 62, 50
2, 764640, Note_off_c, 2, 62, 0
2, 764640, Note_on_c, 2, 62, 50
2, 764880, Note_off_c, 2, 62, 0
2, 764880, Note_on_c, 2, 60, 50
2, 765120, Note_off_c, 2, 60, 0
2, 765120, Note_on_c, 2, 62, 50
2, 765360, Note_off_c, 2, 62, 0
2, 765360, Note_on_c, 2, 62, 50
2, 765600, Note_off_c, 2, 62, 0
2, 765600, Note_on_c, 2, 62, 50
2, 765840, Note_off_c, 2, 62, 0
2, 765840, Note_on_c, 2, 67, 50
2, 766080, Note_off_c, 2, 67, 0
2, 766080, Note_on_c, 2, 60, 50
2, 766320, Note_off_c, 2, 60, 0
2, 766320, Note_on_c, 2, 62, 50
2, 766560, Note_off_c, 2, 62, 0
2, 766560, Note_on_c, 2, 60, 50
2, 766800, Note_off_c, 2, 60, 0
2, 766800, Note_on_c, 2, 58, 50
2, 767040, Note_off_c, 2, 58, 0
2, 767040, Note_on_c, 2, 55, 50
2, 767160, Note_off_c, 2, 55, 0
2, 767280, Note_on_c, 2, 55, 50
2, 767400, Note_off_c, 2, 55, 0
2, 767520, Note_on_c, 2, 55, 50
2, 768720, Note_off_c, 2, 55, 0
2, 768720, Note_on_c, 2, 55, 50
2, 769200, Note_off_c, 2, 55, 0
2, 769200, Note_on_c, 2, 55, 50
2, 769440, Note_off_c, 2, 55, 0
2, 769440, Note_on_c, 2, 57, 50
2, 770640, Note_off_c, 2, 57, 0
2, 770640, Note_on_c, 2, 57, 50
2, 771120, Note_off_c, 2, 57, 0
2, 771120, Note_on_c, 2, 57, 50
2, 771360, Note_off_c, 2, 57, 0
2, 771360, Note_on_c, 2, 59, 50
2, 773280, Note_off_c, 2, 59, 0
2, 773280, Note_on_c, 2, 59, 50
2, 775080, Note_off_c, 2, 59, 0
2, 775200, Note_on_c, 2, 62, 50
2, 775320, Note_off_c, 2, 62, 0
2, 775680, Note_on_c, 2, 62, 50
2, 776160, Note_off_c, 2, 62, 0
2, 776160, Note_on_c, 2, 62, 50
2, 776400, Note_off_c, 2, 62, 0
2, 776400, Note_on_c, 2, 60, 50
2, 776640, Note_off_c, 2, 60, 0
2, 776640, Note_on_c, 2, 62, 50
2, 776880, Note_off_c, 2, 62, 0
2, 776880, Note_on_c, 2, 65, 50
2, 777120, Note_off_c, 2, 65, 0
2, 777120, Note_on_c, 2, 65, 50
2, 777600, Note_off_c, 2, 65, 0
2, 777600, Note_on_c, 2, 62, 50
2, 777840, Note_off_c, 2, 62, 0
2, 777840, Note_on_c, 2, 60, 50
2, 778080, Note_off_c, 2, 60, 0
2, 778080, Note_on_c, 2, 60, 50
2, 778320, Note_off_c, 2, 60, 0
2, 778320, Note_on_c, 2, 58, 50
2, 778680, Note_off_c, 2, 58, 0
2, 778800, Note_on_c, 2, 55, 50
2, 778920, Note_off_c, 2, 55, 0
2, 779040, Note_on_c, 2, 55, 50
2, 779160, Note_off_c, 2, 55, 0
2, 779520, Note_on_c, 2, 55, 50
2, 780000, Note_off_c, 2, 55, 0
2, 780000, Note_on_c, 2, 55, 50
2, 780240, Note_off_c, 2, 55, 0
2, 780240, Note_on_c, 2, 58, 50
2, 780480, Note_off_c, 2, 58, 0
2, 780480, Note_on_c, 2, 50, 50
2, 780600, Note_off_c, 2, 50, 0
2, 780720, Note_on_c, 2, 50, 50
2, 780840, Note_off_c, 2, 50, 0
2, 780960, Note_on_c, 2, 58, 50
2, 781440, Note_off_c, 2, 58, 0
2, 781440, Note_on_c, 2, 60, 50
2, 781560, Note_off_c, 2, 60, 0
2, 781920, Note_on_c, 2, 60, 50
2, 782400, Note_off_c, 2, 60, 0
2, 782400, Note_on_c, 2, 58, 50
2, 782640, Note_off_c, 2, 58, 0
2, 782640, Note_on_c, 2, 55, 50
2, 782760, Note_off_c, 2, 55, 0
2, 782880, Note_on_c, 2, 62, 50
2, 783000, Note_off_c, 2, 62, 0
2, 783360, Note_on_c, 2, 62, 50
2, 783840, Note_off_c, 2, 62, 0
2, 783840, Note_on_c, 2, 62, 50
2, 784080, Note_off_c, 2, 62, 0
2, 784080, Note_on_c, 2, 60, 50
2, 784320, Note_off_c, 2, 60, 0
2, 784320, Note_on_c, 2, 62, 50
2, 784560, Note_off_c, 2, 62, 0
2, 784560, Note_on_c, 2, 62, 50
2, 784800, Note_off_c, 2, 62, 0
2, 784800, Note_on_c, 2, 62, 50
2, 785040, Note_off_c, 2, 62, 0
2, 785040, Note_on_c, 2, 67, 50
2, 785280, Note_off_c, 2, 67, 0
2, 785280, Note_on_c, 2, 60, 50
2, 785520, Note_off_c, 2, 60, 0
2, 785520, Note_on_c, 2, 62, 50
2, 785760, Note_off_c, 2, 62, 0
2, 785760, Note_on_c, 2, 60, 50
2, 786000, Note_off_c, 2, 60, 0
2, 786000, Note_on_c, 2, 58, 50
2, 786240, Note_off_c, 2, 58, 0
2, 786240, Note_on_c, 2, 55, 50
2, 786360, Note_off_c, 2, 55, 0
2, 786480, Note_on_c, 2, 55, 50
2, 786600, Note_off_c, 2, 55, 0
2, 786720, Note_on_c, 2, 55, 50
2, 786840, Note_off_c, 2, 55, 0
2, 787200, Note_on_c, 2, 55, 50
2, 787920, Note_off_c, 2, 55, 0
2, 787920, Note_on_c, 2, 58, 50
2, 788160, Note_off_c, 2, 58, 0
2, 788160, Note_on_c, 2, 55, 50
2, 788400, Note_off_c, 2, 55, 0
2, 788400, Note_on_c, 2, 50, 50
2, 788520, Note_off_c, 2, 50, 0
2, 788640, Note_on_c, 2, 53, 50
2, 789120, Note_off_c, 2, 53, 0
2, 789120, Note_on_c, 2, 55, 50
2, 789240, Note_off_c, 2, 55, 0
2, 789600, Note_on_c, 2, 55, 50
2, 790560, Note_off_c, 2, 55, 0
2, 790560, Note_on_c, 2, 62, 50
2, 790680, Note_off_c, 2, 62, 0
2, 791040, Note_on_c, 2, 62, 50
2, 791520, Note_off_c, 2, 62, 0
2, 791520, Note_on_c, 2, 62, 50
2, 791760, Note_off_c, 2, 62, 0
2, 791760, Note_on_c, 2, 60, 50
2, 792000, Note_off_c, 2, 60, 0
2, 792000, Note_on_c, 2, 62, 50
2, 792240, Note_off_c, 2, 62, 0
2, 792240, Note_on_c, 2, 65, 50
2, 792480, Note_off_c, 2, 65, 0
2, 792480, Note_on_c, 2, 65, 50
2, 792960, Note_off_c, 2, 65, 0
2, 792960, Note_on_c, 2, 62, 50
2, 793200, Note_off_c, 2, 62, 0
2, 793200, Note_on_c, 2, 60, 50
2, 793440, Note_off_c, 2, 60, 0
2, 793440, Note_on_c, 2, 60, 50
2, 793680, Note_off_c, 2, 60, 0
2, 793680, Note_on_c, 2, 58, 50
2, 794040, Note_off_c, 2, 58, 0
2, 794160, Note_on_c, 2, 55, 50
2, 794280, Note_off_c, 2, 55, 0
2, 794400, Note_on_c, 2, 55, 50
2, 794520, Note_off_c, 2, 55, 0
2, 794880, Note_on_c, 2, 55, 50
2, 795360, Note_off_c, 2, 55, 0
2, 795360, Note_on_c, 2, 55, 50
2, 795600, Note_off_c, 2, 55, 0
2, 795600, Note_on_c, 2, 58, 50
2, 795840, Note_off_c, 2, 58, 0
2, 795840, Note_on_c, 2, 50, 50
2, 795960, Note_off_c, 2, 50, 0
2, 796080, Note_on_c, 2, 50, 50
2, 796200, Note_off_c, 2, 50, 0
2, 796320, Note_on_c, 2, 58, 50
2, 796800, Note_off_c, 2, 58, 0
2, 796800, Note_on_c, 2, 60, 50
2, 796920, Note_off_c, 2, 60, 0
2, 797280, Note_on_c, 2, 60, 50
2, 797760, Note_off_c, 2, 60, 0
2, 797760, Note_on_c, 2, 58, 50
2, 798000, Note_off_c, 2, 58, 0
2, 798000, Note_on_c, 2, 55, 50
2, 798120, Note_off_c, 2, 55, 0
2, 798240, Note_on_c, 2, 62, 50
2, 798360, Note_off_c, 2, 62, 0
2, 798720, Note_on_c, 2, 62, 50
2, 799200, Note_off_c, 2, 62, 0
2, 799200, Note_on_c, 2, 62, 50
2, 799440, Note_off_c, 2, 62, 0
2, 799440, Note_on_c, 2, 60, 50
2, 799680, Note_off_c, 2, 60, 0
2, 799680, Note_on_c, 2, 62, 50
2, 799920, Note_off_c, 2, 62, 0
2, 799920, Note_on_c, 2, 62, 50
2, 800160, Note_off_c, 2, 62, 0
2, 800160, Note_on_c, 2, 62, 50
2, 800400, Note_off_c, 2, 62, 0
2, 800400, Note_on_c, 2, 67, 50
2, 800640, Note_off_c, 2, 67, 0
2, 800640, Note_on_c, 2, 60, 50
2, 800880, Note_off_c, 2, 60, 0
2, 800880, Note_on_c, 2, 62, 50
2, 801120, Note_off_c, 2, 62, 0
2, 801120, Note_on_c, 2, 60, 50
2, 801360, Note_off_c, 2, 60, 0
2, 801360, Note_on_c, 2, 58, 50
2, 801600, Note_off_c, 2, 58, 0
2, 801600, Note_on_c, 2, 55, 50
2, 801720, Note_off_c, 2, 55, 0
2, 801840, Note_on_c, 2, 55, 50
2, 801960, Note_off_c, 2, 55, 0
2, 802080, Note_on_c, 2, 55, 50
2, 802200, Note_off_c, 2, 55, 0
2, 802560, Note_on_c, 2, 55, 50
2, 803280, Note_off_c, 2, 55, 0
2, 803280, Note_on_c, 2, 58, 50
2, 803520, Note_off_c, 2, 58, 0
2, 803520, Note_on_c, 2, 55, 50
2, 803760, Note_off_c, 2, 55, 0
2, 803760, Note_on_c, 2, 50, 50
2, 803880, Note_off_c, 2, 50, 0
2, 804000, Note_on_c, 2, 53, 50
2, 804480, Note_off_c, 2, 53, 0
2, 804480, Note_on_c, 2, 55, 50
2, 804600, Note_off_c, 2, 55, 0
2, 804960, Note_on_c, 2, 55, 50
2, 805920, Note_off_c, 2, 55, 0
2, 805920, Note_on_c, 2, 62, 50
2, 806040, Note_off_c, 2, 62, 0
2, 806400, Note_on_c, 2, 62, 50
2, 806880, Note_off_c, 2, 62, 0
2, 806880, Note_on_c, 2, 62, 50
2, 807120, Note_off_c, 2, 62, 0
2, 807120, Note_on_c, 2, 60, 50
2, 807360, Note_off_c, 2, 60, 0
2, 807360, Note_on_c, 2, 62, 50
2, 807600, Note_off_c, 2, 62, 0
2, 807600, Note_on_c, 2, 65, 50
2, 807840, Note_off_c, 2, 65, 0
2, 807840, Note_on_c, 2, 65, 50
2, 808320, Note_off_c, 2, 65, 0
2, 808320, Note_on_c, 2, 62, 50
2, 808560, Note_off_c, 2, 62, 0
2, 808560, Note_on_c, 2, 60, 50
2, 808800, Note_off_c, 2, 60, 0
2, 808800, Note_on_c, 2, 60, 50
2, 809040, Note_off_c, 2, 60, 0
2, 809040, Note_on_c, 2, 58, 50
2, 809400, Note_off_c, 2, 58, 0
2, 809520, Note_on_c, 2, 55, 50
2, 809640, Note_off_c, 2, 55, 0
2, 809760, Note_on_c, 2, 55, 50
2, 809880, Note_off_c, 2, 55, 0
2, 810240, Note_on_c, 2, 55, 50
2, 810720, Note_off_c, 2, 55, 0
2, 810720, Note_on_c, 2, 55, 50
2, 810960, Note_off_c, 2, 55, 0
2, 810960, Note_on_c, 2, 58, 50
2, 811200, Note_off_c, 2, 58, 0
2, 811200, Note_on_c, 2, 50, 50
2, 811320, Note_off_c, 2, 50, 0
2, 811440, Note_on_c, 2, 50, 50
2, 811560, Note_off_c, 2, 50, 0
2, 811680, Note_on_c, 2, 58, 50
2, 812160, Note_off_c, 2, 58, 0
2, 812160, Note_on_c, 2, 60, 50
2, 812280, Note_off_c, 2, 60, 0
2, 812640, Note_on_c, 2, 60, 50
2, 813120, Note_off_c, 2, 60, 0
2, 813120, Note_on_c, 2, 58, 50
2, 813360, Note_off_c, 2, 58, 0
2, 813360, Note_on_c, 2, 55, 50
2, 813480, Note_off_c, 2, 55, 0
2, 813600, Note_on_c, 2, 62, 50
2, 813720, Note_off_c, 2, 62, 0
2, 814080, Note_on_c, 2, 62, 50
2, 814560, Note_off_c, 2, 62, 0
2, 814560, Note_on_c, 2, 62, 50
2, 814800, Note_off_c, 2, 62, 0
2, 814800, Note_on_c, 2, 60, 50
2, 815040, Note_off_c, 2, 60, 0
2, 815040, Note_on_c, 2, 62, 50
2, 815280, Note_off_c, 2, 62, 0
2, 815280, Note_on_c, 2, 62, 50
2, 815520, Note_off_c, 2, 62, 0
2, 815520, Note_on_c, 2, 62, 50
2, 815760, Note_off_c, 2, 62, 0
2, 815760, Note_on_c, 2, 67, 50
2, 816000, Note_off_c, 2, 67, 0
2, 816000, Note_on_c, 2, 60, 50
2, 816240, Note_off_c, 2, 60, 0
2, 816240, Note_on_c, 2, 62, 50
2, 816480, Note_off_c, 2, 62, 0
2, 816480, Note_on_c, 2, 60, 50
2, 816720, Note_off_c, 2, 60, 0
2, 816720, Note_on_c, 2, 58, 50
2, 816960, Note_off_c, 2, 58, 0
2, 816960, Note_on_c, 2, 55, 50
2, 817080, Note_off_c, 2, 55, 0
2, 817200, Note_on_c, 2, 55, 50
2, 817320, Note_off_c, 2, 55, 0
2, 817440, Note_on_c, 2, 55, 50
2, 817560, Note_off_c, 2, 55, 0
2, 817920, Note_on_c, 2, 55, 50
2, 818640, Note_off_c, 2, 55, 0
2, 818640, Note_on_c, 2, 58, 50
2, 818880, Note_off_c, 2, 58, 0
2, 818880, Note_on_c, 2, 55, 50
2, 819120, Note_off_c, 2, 55, 0
2, 819120, Note_on_c, 2, 50, 50
2, 819240, Note_off_c, 2, 50, 0
2, 819360, Note_on_c, 2, 53, 50
2, 819840, Note_off_c, 2, 53, 0
2, 819840, Note_on_c, 2, 55, 50
2, 819960, Note_off_c, 2, 55, 0
2, 820320, Note_on_c, 2, 55, 50
2, 821280, Note_off_c, 2, 55, 0
2, 821280, Note_on_c, 2, 62, 50
2, 821400, Note_off_c, 2, 62, 0
2, 821760, Note_on_c, 2, 62, 50
2, 822240, Note_off_c, 2, 62, 0
2, 822240, Note_on_c, 2, 62, 50
2, 822480, Note_off_c, 2, 62, 0
2, 822480, Note_on_c, 2, 60, 50
2, 822720, Note_off_c, 2, 60, 0
2, 822720, Note_on_c, 2, 62, 50
2, 822960, Note_off_c, 2, 62, 0
2, 822960, Note_on_c, 2, 65, 50
2, 823200, Note_off_c, 2, 65, 0
2, 823200, Note_on_c, 2, 65, 50
2, 823680, Note_off_c, 2, 65, 0
2, 823680, Note_on_c, 2, 62, 50
2, 823920, Note_off_c, 2, 62, 0
2, 823920, Note_on_c, 2, 60, 50
2, 824160, Note_off_c, 2, 60, 0
2, 824160, Note_on_c, 2, 60, 50
2, 824400, Note_off_c, 2, 60, 0
2, 824400, Note_on_c, 2, 58, 50
2, 824760, Note_off_c, 2, 58, 0
2, 824880, Note_on_c, 2, 55, 50
2, 825000, Note_off_c, 2, 55, 0
2, 825120, Note_on_c, 2, 55, 50
2, 825240, Note_off_c, 2, 55, 0
2, 825600, Note_on_c, 2, 55, 50
2, 826080, Note_off_c, 2, 55, 0
2, 826080, Note_on_c, 2, 55, 50
2, 826320, Note_off_c, 2, 55, 0
2, 826320, Note_on_c, 2, 58, 50
2, 826560, Note_off_c, 2, 58, 0
2, 826560, Note_on_c, 2, 50, 50
2, 826680, Note_off_c, 2, 50, 0
2, 826800, Note_on_c, 2, 50, 50
2, 826920, Note_off_c, 2, 50, 0
2, 827040, Note_on_c, 2, 58, 50
2, 827520, Note_off_c, 2, 58, 0
2, 827520, Note_on_c, 2, 60, 50
2, 827640, Note_off_c, 2, 60, 0
2, 828000, Note_on_c, 2, 60, 50
2, 828480, Note_off_c, 2, 60, 0
2, 828480, Note_on_c, 2, 58, 50
2, 828720, Note_off_c, 2, 58, 0
2, 828720, Note_on_c, 2, 55, 50
2, 828840, Note_off_c, 2, 55, 0
2, 828960, Note_on_c, 2, 62, 50
2, 829080, Note_off_c, 2, 62, 0
2, 829440, Note_on_c, 2, 62, 50
2, 829920, Note_off_c, 2, 62, 0
2, 829920, Note_on_c, 2, 62, 50
2, 830160, Note_off_c, 2, 62, 0
2, 830160, Note_on_c, 2, 60, 50
2, 830400, Note_off_c, 2, 60, 0
2, 830400, Note_on_c, 2, 62, 50
2, 830640, Note_off_c, 2, 62, 0
2, 830640, Note_on_c, 2, 62, 50
2, 830880, Note_off_c, 2, 62, 0
2, 830880, Note_on_c, 2, 62, 50
2, 831120, Note_off_c, 2, 62, 0
2, 831120, Note_on_c, 2, 67, 50
2, 831360, Note_off_c, 2, 67, 0
2, 831360, Note_on_c, 2, 60, 50
2, 831600, Note_off_c, 2, 60, 0
2, 831600, Note_on_c, 2, 62, 50
2, 831840, Note_off_c, 2, 62, 0
2, 831840, Note_on_c, 2, 60, 50
2, 832080, Note_off_c, 2, 60, 0
2, 832080, Note_on_c, 2, 58, 50
2, 832320, Note_off_c, 2, 58, 0
2, 832320, Note_on_c, 2, 55, 50
2, 832440, Note_off_c, 2, 55, 0
2, 832560, Note_on_c, 2, 55, 50
2, 832680, Note_off_c, 2, 55, 0
2, 832800, Note_on_c, 2, 55, 50
2, 832920, Note_off_c, 2, 55, 0
2, 833280, Note_on_c, 2, 55, 50
2, 834000, Note_off_c, 2, 55, 0
2, 834000, Note_on_c, 2, 58, 50
2, 834240, Note_off_c, 2, 58, 0
2, 834240, Note_on_c, 2, 55, 50
2, 834480, Note_off_c, 2, 55, 0
2, 834480, Note_on_c, 2, 50, 50
2, 834600, Note_off_c, 2, 50, 0
2, 834720, Note_on_c, 2, 53, 50
2, 835200, Note_off_c, 2, 53, 0
2, 835200, Note_on_c, 2, 55, 50
2, 835320, Note_off_c, 2, 55, 0
2, 835680, Note_on_c, 2, 55, 50
2, 836640, Note_off_c, 2, 55, 0
2, 836640, Note_on_c, 2, 62, 50
2, 836760, Note_off_c, 2, 62, 0
2, 837120, Note_on_c, 2, 62, 50
2, 837600, Note_off_c, 2, 62, 0
2, 837600, Note_on_c, 2, 62, 50
2, 837840, Note_off_c, 2, 62, 0
2, 837840, Note_on_c, 2, 60, 50
2, 838080, Note_off_c, 2, 60, 0
2, 838080, Note_on_c, 2, 62, 50
2, 838320, Note_off_c, 2, 62, 0
2, 838320, Note_on_c, 2, 65, 50
2, 838560, Note_off_c, 2, 65, 0
2, 838560, Note_on_c, 2, 65, 50
2, 839040, Note_off_c, 2, 65, 0
2, 839040, Note_on_c, 2, 62, 50
2, 839280, Note_off_c, 2, 62, 0
2, 839280, Note_on_c, 2, 60, 50
2, 839520, Note_off_c, 2, 60, 0
2, 839520, Note_on_c, 2, 60, 50
2, 839760, Note_off_c, 2, 60, 0
2, 839760, Note_on_c, 2, 58, 50
2, 840120, Note_off_c, 2, 58, 0
2, 840240, Note_on_c, 2, 55, 50
2, 840360, Note_off_c, 2, 55, 0
2, 840480, Note_on_c, 2, 55, 50
2, 840600, Note_off_c, 2, 55, 0
2, 840960, Note_on_c, 2, 55, 50
2, 841440, Note_off_c, 2, 55, 0
2, 841440, Note_on_c, 2, 55, 50
2, 841680, Note_off_c, 2, 55, 0
2, 841680, Note_on_c, 2, 58, 50
2, 841920, Note_off_c, 2, 58, 0
2, 841920, Note_on_c, 2, 50, 50
2, 842040, Note_off_c, 2, 50, 0
2, 842160, Note_on_c, 2, 50, 50
2, 842280, Note_off_c, 2, 50, 0
2, 842400, Note_on_c, 2, 58, 50
2, 842880, Note_off_c, 2, 58, 0
2, 842880, Note_on_c, 2, 60, 50
2, 843000, Note_off_c, 2, 60, 0
2, 843360, Note_on_c, 2, 60, 50
2, 843840, Note_off_c, 2, 60, 0
2, 843840, Note_on_c, 2, 58, 50
2, 844080, Note_off_c, 2, 58, 0
2, 844080, Note_on_c, 2, 55, 50
2, 844200, Note_off_c, 2, 55, 0
2, 844320, Note_on_c, 2, 62, 50
2, 844440, Note_off_c, 2, 62, 0
2, 844800, Note_on_c, 2, 62, 50
2, 845280, Note_off_c, 2, 62, 0
2, 845280, Note_on_c, 2, 62, 50
2, 845520, Note_off_c, 2, 62, 0
2, 845520, Note_on_c, 2, 60, 50
2, 845760, Note_off_c, 2, 60, 0
2, 845760, Note_on_c, 2, 62, 50
2, 846000, Note_off_c, 2, 62, 0
2, 846000, Note_on_c, 2, 62, 50
2, 846240, Note_off_c, 2, 62, 0
2, 846240, Note_on_c, 2, 62, 50
2, 846480, Note_off_c, 2, 62, 0
2, 846480, Note_on_c, 2, 67, 50
2, 846720, Note_off_c, 2, 67, 0
2, 846720, Note_on_c, 2, 60, 50
2, 846960, Note_off_c, 2, 60, 0
2, 846960, Note_on_c, 2, 62, 50
2, 847200, Note_off_c, 2, 62, 0
2, 847200, Note_on_c, 2, 60, 50
2, 847440, Note_off_c, 2, 60, 0
2, 847440, Note_on_c, 2, 58, 50
2, 847680, Note_off_c, 2, 58, 0
2, 847680, Note_on_c, 2, 55, 50
2, 847800, Note_off_c, 2, 55, 0
2, 847920, Note_on_c, 2, 55, 50
2, 848040, Note_off_c, 2, 55, 0
2, 848160, Note_on_c, 2, 55, 50
2, 848280, Note_off_c, 2, 55, 0
2, 848640, Note_on_c, 2, 55, 50
2, 849360, Note_off_c, 2, 55, 0
2, 849360, Note_on_c, 2, 58, 50
2, 849600, Note_off_c, 2, 58, 0
2, 849600, Note_on_c, 2, 55, 50
2, 849840, Note_off_c, 2, 55, 0
2, 849840, Note_on_c, 2, 50, 50
2, 849960, Note_off_c, 2, 50, 0
2, 850080, Note_on_c, 2, 53, 50
2, 850560, Note_off_c, 2, 53, 0
2, 850560, Note_on_c, 2, 55, 50
2, 850680, Note_off_c, 2, 55, 0
2, 851040, Note_on_c, 2, 55, 50
2, 852000, Note_off_c, 2, 55, 0
2, 852000, Note_on_c, 2, 62, 50
2, 852120, Note_off_c, 2, 62, 0
2, 852480, Note_on_c, 2, 62, 50
2, 852960, Note_off_c, 2, 62, 0
2, 852960, Note_on_c, 2, 62, 50
2, 853200, Note_off_c, 2, 62, 0
2, 853200, Note_on_c, 2, 60, 50
2, 853440, Note_off_c, 2, 60, 0
2, 853440, Note_on_c, 2, 62, 50
2, 853680, Note_off_c, 2, 62, 0
2, 853680, Note_on_c, 2, 65, 50
2, 853920, Note_off_c, 2, 65, 0
2, 853920, Note_on_c, 2, 65, 50
2, 854400, Note_off_c, 2, 65, 0
2, 854400, Note_on_c, 2, 62, 50
2, 854640, Note_off_c, 2, 62, 0
2, 854640, Note_on_c, 2, 60, 50
2, 854880, Note_off_c, 2, 60, 0
2, 854880, Note_on_c, 2, 60, 50
2, 855120, Note_off_c, 2, 60, 0
2, 855120, Note_on_c, 2, 58, 50
2, 855480, Note_off_c, 2, 58, 0
2, 855600, Note_on_c, 2, 55, 50
2, 855720, Note_off_c, 2, 55, 0
2, 855840, Note_on_c, 2, 55, 50
2, 855960, Note_off_c, 2, 55, 0
2, 856320, Note_on_c, 2, 55, 50
2, 856800, Note_off_c, 2, 55, 0
2, 856800, Note_on_c, 2, 55, 50
2, 857040, Note_off_c, 2, 55, 0
2, 857040, Note_on_c, 2, 58, 50
2, 857280, Note_off_c, 2, 58, 0
2, 857280, Note_on_c, 2, 50, 50
2, 857400, Note_off_c, 2, 50, 0
2, 857520, Note_on_c, 2, 50, 50
2, 857640, Note_off_c, 2, 50, 0
2, 857760, Note_on_c, 2, 58, 50
2, 858240, Note_off_c, 2, 58, 0
2, 858240, Note_on_c, 2, 60, 50
2, 858360, Note_off_c, 2, 60, 0
2, 858720, Note_on_c, 2, 60, 50
2, 859200, Note_off_c, 2, 60, 0
2, 859200, Note_on_c, 2, 58, 50
2, 859440, Note_off_c, 2, 58, 0
2, 859440, Note_on_c, 2, 55, 50
2, 859560, Note_off_c, 2, 55, 0
2, 859680, Note_on_c, 2, 62, 50
2, 859800, Note_off_c, 2, 62, 0
2, 860160, Note_on_c, 2, 62, 50
2, 860640, Note_off_c, 2, 62, 0
2, 860640, Note_on_c, 2, 62, 50
2, 860880, Note_off_c, 2, 62, 0
2, 860880, Note_on_c, 2, 60, 50
2, 861120, Note_off_c, 2, 60, 0
2, 861120, Note_on_c, 2, 62, 50
2, 861360, Note_off_c, 2, 62, 0
2, 861360, Note_on_c, 2, 62, 50
2, 861600, Note_off_c, 2, 62, 0
2, 861600, Note_on_c, 2, 62, 50
2, 861840, Note_off_c, 2, 62, 0
2, 861840, Note_on_c, 2, 67, 50
2, 862080, Note_off_c, 2, 67, 0
2, 862080, Note_on_c, 2, 60, 50
2, 862320, Note_off_c, 2, 60, 0
2, 862320, Note_on_c, 2, 62, 50
2, 862560, Note_off_c, 2, 62, 0
2, 862560, Note_on_c, 2, 60, 50
2, 862800, Note_off_c, 2, 60, 0
2, 862800, Note_on_c, 2, 58, 50
2, 863040, Note_off_c, 2, 58, 0
2, 863040, Note_on_c, 2, 55, 50
2, 863160, Note_off_c, 2, 55, 0
2, 863280, Note_on_c, 2, 55, 50
2, 863400, Note_off_c, 2, 55, 0
2, 863520, Note_on_c, 2, 55, 50
2, 863640, Note_off_c, 2, 55, 0
2, 864000, Note_on_c, 2, 55, 50
2, 864720, Note_off_c, 2, 55, 0
2, 864720, Note_on_c, 2, 58, 50
2, 864960, Note_off_c, 2, 58, 0
2, 864960, Note_on_c, 2, 55, 50
2, 865200, Note_off_c, 2, 55, 0
2, 865200, Note_on_c, 2, 50, 50
2, 865320, Note_off_c, 2, 50, 0
2, 865440, Note_on_c, 2, 53, 50
2, 865920, Note_off_c, 2, 53, 0
2, 865920, Note_on_c, 2, 55, 50
2, 866040, Note_off_c, 2, 55, 0
2, 866400, Note_on_c, 2, 55, 50
2, 867360, Note_off_c, 2, 55, 0
2, 867360, Note_on_c, 2, 62, 50
2, 867480, Note_off_c, 2, 62, 0
2, 867840, Note_on_c, 2, 62, 50
2, 868320, Note_off_c, 2, 62, 0
2, 868320, Note_on_c, 2, 62, 50
2, 868560, Note_off_c, 2, 62, 0
2, 868560, Note_on_c, 2, 60, 50
2, 868800, Note_off_c, 2, 60, 0
2, 868800, Note_on_c, 2, 62, 50
2, 869040, Note_off_c, 2, 62, 0
2, 869040, Note_on_c, 2, 65, 50
2, 869280, Note_off_c, 2, 65, 0
2, 869280, Note_on_c, 2, 65, 50
2, 869760, Note_off_c, 2, 65, 0
2, 869760, Note_on_c, 2, 62, 50
2, 870000, Note_off_c, 2, 62, 0
2, 870000, Note_on_c, 2, 60, 50
2, 870240, Note_off_c, 2, 60, 0
2, 870240, Note_on_c, 2, 60, 50
2, 870480, Note_off_c, 2, 60, 0
2, 870480, Note_on_c, 2, 58, 50
2, 870840, Note_off_c, 2, 58, 0
2, 870960, Note_on_c, 2, 55, 50
2, 871080, Note_off_c, 2, 55, 0
2, 871200, Note_on_c, 2, 55, 50
2, 871320, Note_off_c, 2, 55, 0
2, 871680, Note_on_c, 2, 55, 50
2, 872160, Note_off_c, 2, 55, 0
2, 872160, Note_on_c, 2, 55, 50
2, 872400, Note_off_c, 2, 55, 0
2, 872400, Note_on_c, 2, 58, 50
2, 872640, Note_off_c, 2, 58, 0
2, 872640, Note_on_c, 2, 50, 50
2, 872760, Note_off_c, 2, 50, 0
2, 872880, Note_on_c, 2, 50, 50
2, 873000, Note_off_c, 2, 50, 0
2, 873120, Note_on_c, 2, 58, 50
2, 873600, Note_off_c, 2, 58, 0
2, 873600, Note_on_c, 2, 60, 50
2, 873720, Note_off_c, 2, 60, 0
2, 874080, Note_on_c, 2, 60, 50
2, 874560, Note_off_c, 2, 60, 0
2, 874560, Note_on_c, 2, 58, 50
2, 874800, Note_off_c, 2, 58, 0
2, 874800, Note_on_c, 2, 55, 50
2, 874920, Note_off_c, 2, 55, 0
2, 875040, Note_on_c, 2, 62, 50
2, 875160, Note_off_c, 2, 62, 0
2, 875520, Note_on_c, 2, 62, 50
2, 876000, Note_off_c, 2, 62, 0
2, 876000, Note_on_c, 2, 62, 50
2, 876240, Note_off_c, 2, 62, 0
2, 876240, Note_on_c, 2, 60, 50
2, 876480, Note_off_c, 2, 60, 0
2, 876480, Note_on_c, 2, 62, 50
2, 876720, Note_off_c, 2, 62, 0
2, 876720, Note_on_c, 2, 62, 50
2, 876960, Note_off_c, 2, 62, 0
2, 876960, Note_on_c, 2, 62, 50
2, 877200, Note_off_c, 2, 62, 0
2, 877200, Note_on_c, 2, 67, 50
2, 877440, Note_off_c, 2, 67, 0
2, 877440, Note_on_c, 2, 60, 50
2, 877680, Note_off_c, 2, 60, 0
2, 877680, Note_on_c, 2, 62, 50
2, 877920, Note_off_c, 2, 62, 0
2, 877920, Note_on_c, 2, 60, 50
2, 878160, Note_off_c, 2, 60, 0
2, 878160, Note_on_c, 2, 58, 50
2, 878400, Note_off_c, 2, 58, 0
2, 878400, Note_on_c, 2, 55, 50
2, 878520, Note_off_c, 2, 55, 0
2, 878640, Note_on_c, 2, 55, 50
2, 878760, Note_off_c, 2, 55, 0
2, 878880, Note_on_c, 2, 55, 50
2, 879000, Note_off_c, 2, 55, 0
2, 879360, Note_on_c, 2, 55, 50
2, 880080, Note_off_c, 2, 55, 0
2, 880080, Note_on_c, 2, 58, 50
2, 880320, Note_off_c, 2, 58, 0
2, 880320, Note_on_c, 2, 55, 50
2, 880560, Note_off_c, 2, 55, 0
2, 880560, Note_on_c, 2, 50, 50
2, 880680, Note_off_c, 2, 50, 0
2, 880800, Note_on_c, 2, 53, 50
2, 881280, Note_off_c, 2, 53, 0
2, 881280, Note_on_c, 2, 55, 50
2, 881400, Note_off_c, 2, 55, 0
2, 881760, Note_on_c, 2, 55, 50
2, 882720, Note_off_c, 2, 55, 0
2, 882720, Note_on_c, 2, 62, 50
2, 882840, Note_off_c, 2, 62, 0
2, 883200, Note_on_c, 2, 62, 50
2, 883680, Note_off_c, 2, 62, 0
2, 883680, Note_on_c, 2, 62, 50
2, 883920, Note_off_c, 2, 62, 0
2, 883920, Note_on_c, 2, 60, 50
2, 884160, Note_off_c, 2, 60, 0
2, 884160, Note_on_c, 2, 62, 50
2, 884400, Note_off_c, 2, 62, 0
2, 884400, Note_on_c, 2, 65, 50
2, 884640, Note_off_c, 2, 65, 0
2, 884640, Note_on_c, 2, 65, 50
2, 885120, Note_off_c, 2, 65, 0
2, 885120, Note_on_c, 2, 62, 50
2, 885360, Note_off_c, 2, 62, 0
2, 885360, Note_on_c, 2, 60, 50
2, 885600, Note_off_c, 2, 60, 0
2, 885600, Note_on_c, 2, 60, 50
2, 885840, Note_off_c, 2, 60, 0
2, 885840, Note_on_c, 2, 58, 50
2, 886200, Note_off_c, 2, 58, 0
2, 886320, Note_on_c, 2, 55, 50
2, 886440, Note_off_c, 2, 55, 0
2, 886560, Note_on_c, 2, 55, 50
2, 886680, Note_off_c, 2, 55, 0
2, 887040, Note_on_c, 2, 55, 50
2, 887520, Note_off_c, 2, 55, 0
2, 887520, Note_on_c, 2, 55, 50
2, 887760, Note_off_c, 2, 55, 0
2, 887760, Note_on_c, 2, 58, 50
2, 888000, Note_off_c, 2, 58, 0
2, 888000, Note_on_c, 2, 50, 50
2, 888120, Note_off_c, 2, 50, 0
2, 888240, Note_on_c, 2, 50, 50
2, 888360, Note_off_c, 2, 50, 0
2, 888480, Note_on_c, 2, 58, 50
2, 888960, Note_off_c, 2, 58, 0
2, 888960, Note_on_c, 2, 60, 50
2, 889080, Note_off_c, 2, 60, 0
2, 889440, Note_on_c, 2, 60, 50
2, 889920, Note_off_c, 2, 60, 0
2, 889920, Note_on_c, 2, 58, 50
2, 890160, Note_off_c, 2, 58, 0
2, 890160, Note_on_c, 2, 55, 50
2, 890280, Note_off_c, 2, 55, 0
2, 890400, Note_on_c, 2, 62, 50
2, 890520, Note_off_c, 2, 62, 0
2, 890880, Note_on_c, 2, 62, 50
2, 891360, Note_off_c, 2, 62, 0
2, 891360, Note_on_c, 2, 62, 50
2, 891600, Note_off_c, 2, 62, 0
2, 891600, Note_on_c, 2, 60, 50
2, 891840, Note_off_c, 2, 60, 0
2, 891840, Note_on_c, 2, 62, 50
2, 892080, Note_off_c, 2, 62, 0
2, 892080, Note_on_c, 2, 62, 50
2, 892320, Note_off_c, 2, 62, 0
2, 892320, Note_on_c, 2, 62, 50
2, 892560, Note_off_c, 2, 62, 0
2, 892560, Note_on_c, 2, 67, 50
2, 892800, Note_off_c, 2, 67, 0
2, 892800, Note_on_c, 2, 60, 50
2, 893040, Note_off_c, 2, 60, 0
2, 893040, Note_on_c, 2, 62, 50
2, 893280, Note_off_c, 2, 62, 0
2, 893280, Note_on_c, 2, 60, 50
2, 893520, Note_off_c, 2, 60, 0
2, 893520, Note_on_c, 2, 58, 50
2, 893760, Note_off_c, 2, 58, 0
2, 893760, Note_on_c, 2, 55, 50
2, 893880, Note_off_c, 2, 55, 0
2, 894000, Note_on_c, 2, 55, 50
2, 894120, Note_off_c, 2, 55, 0
2, 894240, Note_on_c, 2, 55, 50
2, 894360, Note_off_c, 2, 55, 0
2, 894720, Note_on_c, 2, 55, 50
2, 895440, Note_off_c, 2, 55, 0
2, 895440, Note_on_c, 2, 58, 50
2, 895680, Note_off_c, 2, 58, 0
2, 895680, Note_on_c, 2, 55, 50
2, 895920, Note_off_c, 2, 55, 0
2, 895920, Note_on_c, 2, 50, 50
2, 896040, Note_off_c, 2, 50, 0
2, 896160, Note_on_c, 2, 53, 50
2, 896640, Note_off_c, 2, 53, 0
2, 896640, Note_on_c, 2, 55, 50
2, 896760, Note_off_c, 2, 55, 0
2, 897120, Note_on_c, 2, 55, 50
2, 898080, Note_off_c, 2, 55, 0
2, 898080, Note_on_c, 2, 62, 50
2, 898200, Note_off_c, 2, 62, 0
2, 898560, Note_on_c, 2, 62, 50
2, 899040, Note_off_c, 2, 62, 0
2, 899040, Note_on_c, 2, 62, 50
2, 899280, Note_off_c, 2, 62, 0
2, 899280, Note_on_c, 2, 60, 50
2, 899520, Note_off_c, 2, 60, 0
2, 899520, Note_on_c, 2, 62, 50
2, 899760, Note_off_c, 2, 62, 0
2, 899760, Note_on_c, 2, 65, 50
2, 900000, Note_off_c, 2, 65, 0
2, 900000, Note_on_c, 2, 65, 50
2, 900480, Note_off_c, 2, 65, 0
2, 900480, Note_on_c, 2, 62, 50
2, 900720, Note_off_c, 2, 62, 0
2, 900720, Note_on_c, 2, 60, 50
2, 900960, Note_off_c, 2, 60, 0
2, 900960, Note_on_c, 2, 60, 50
2, 901200, Note_off_c, 2, 60, 0
2, 901200, Note_on_c, 2, 58, 50
2, 901560, Note_off_c, 2, 58, 0
2, 901680, Note_on_c, 2, 55, 50
2, 901800, Note_off_c, 2, 55, 0
2, 901920, Note_on_c, 2, 55, 50
2, 902040, Note_off_c, 2, 55, 0
2, 902400, Note_on_c, 2, 55, 50
2, 902880, Note_off_c, 2, 55, 0
2, 902880, Note_on_c, 2, 55, 50
2, 903120, Note_off_c, 2, 55, 0
2, 903120, Note_on_c, 2, 58, 50
2, 903360, Note_off_c, 2, 58, 0
2, 903360, Note_on_c, 2, 50, 50
2, 903480, Note_off_c, 2, 50, 0
2, 903600, Note_on_c, 2, 50, 50
2, 903720, Note_off_c, 2, 50, 0
2, 903840, Note_on_c, 2, 58, 50
2, 904320, Note_off_c, 2, 58, 0
2, 904320, Note_on_c, 2, 60, 50
2, 904440, Note_off_c, 2, 60, 0
2, 904800, Note_on_c, 2, 60, 50
2, 905280, Note_off_c, 2, 60, 0
2, 905280, Note_on_c, 2, 58, 50
2, 905520, Note_off_c, 2, 58, 0
2, 905520, Note_on_c, 2, 55, 50
2, 905640, Note_off_c, 2, 55, 0
2, 906240, Note_on_c, 2, 65, 50
2, 906720, Note_off_c, 2, 65, 0
2, 906720, Note_on_c, 2, 65, 50
2, 906960, Note_off_c, 2, 65, 0
2, 906960, Note_on_c, 2, 65, 50
2, 907200, Note_off_c, 2, 65, 0
2, 907440, Note_on_c, 2, 65, 50
2, 907680, Note_off_c, 2, 65, 0
2, 907920, Note_on_c, 2, 65, 50
2, 908400, Note_off_c, 2, 65, 0
2, 908400, Note_on_c, 2, 60, 50
2, 908880, Note_off_c, 2, 60, 0
2, 908880, Note_on_c, 2, 58, 50
2, 909120, Note_off_c, 2, 58, 0
2, 909120, Note_on_c, 2, 55, 50
2, 909360, Note_off_c, 2, 55, 0
2, 909360, Note_on_c, 2, 53, 50
2, 909600, Note_off_c, 2, 53, 0
2, 909600, Note_on_c, 2, 55, 50
2, 909720, Note_off_c, 2, 55, 0
2, 910080, Note_on_c, 2, 55, 50
2, 910800, Note_off_c, 2, 55, 0
2, 910800, Note_on_c, 2, 58, 50
2, 911040, Note_off_c, 2, 58, 0
2, 911040, Note_on_c, 2, 55, 50
2, 911280, Note_off_c, 2, 55, 0
2, 911280, Note_on_c, 2, 50, 50
2, 911400, Note_off_c, 2, 50, 0
2, 911520, Note_on_c, 2, 53, 50
2, 912000, Note_off_c, 2, 53, 0
2, 912000, Note_on_c, 2, 55, 50
2, 912120, Note_off_c, 2, 55, 0
2, 912480, Note_on_c, 2, 55, 50
2, 913440, Note_off_c, 2, 55, 0
2, 913440, Note_on_c, 2, 74, 50
2, 913920, Note_off_c, 2, 74, 0
2, 913920, Note_on_c, 2, 62, 50
2, 915360, Note_off_c, 2, 62, 0
2, 915360, Note_on_c, 2, 55, 50
2, 915840, Note_off_c, 2, 55, 0
2, 915840, Note_on_c, 2, 62, 50
2, 916080, Note_off_c, 2, 62, 0
2, 916080, Note_on_c, 2, 62, 50
2, 917040, Note_off_c, 2, 62, 0
2, 917040, Note_on_c, 2, 55, 50
2, 917760, Note_off_c, 2, 55, 0
2, 917760, Note_on_c, 2, 62, 50
2, 918000, Note_off_c, 2, 62, 0
2, 918000, Note_on_c, 2, 62, 50
2, 919200, Note_off_c, 2, 62, 0
2, 919200, Note_on_c, 2, 58, 50
2, 919680, Note_off_c, 2, 58, 0
2, 919680, Note_on_c, 2, 60, 50
2, 919800, Note_off_c, 2, 60, 0
2, 920160, Note_on_c, 2, 60, 50
2, 920640, Note_off_c, 2, 60, 0
2, 920640, Note_on_c, 2, 58, 50
2, 920880, Note_off_c, 2, 58, 0
2, 920880, Note_on_c, 2, 55, 50
2, 921000, Note_off_c, 2, 55, 0
2, 921120, Note_on_c, 2, 62, 50
2, 921240, Note_off_c, 2, 62, 0
2, 921600, Note_on_c, 2, 62, 50
2, 922080, Note_off_c, 2, 62, 0
2, 922080, Note_on_c, 2, 62, 50
2, 922320, Note_off_c, 2, 62, 0
2, 922320, Note_on_c, 2, 60, 50
2, 922560, Note_off_c, 2, 60, 0
2, 922560, Note_on_c, 2, 62, 50
2, 922800, Note_off_c, 2, 62, 0
2, 922800, Note_on_c, 2, 62, 50
2, 923040, Note_off_c, 2, 62, 0
2, 923040, Note_on_c, 2, 62, 50
2, 923280, Note_off_c, 2, 62, 0
2, 923280, Note_on_c, 2, 67, 50
2, 923520, Note_off_c, 2, 67, 0
2, 923520, Note_on_c, 2, 60, 50
2, 923760, Note_off_c, 2, 60, 0
2, 923760, Note_on_c, 2, 62, 50
2, 924000, Note_off_c, 2, 62, 0
2, 924000, Note_on_c, 2, 60, 50
2, 924240, Note_off_c, 2, 60, 0
2, 924240, Note_on_c, 2, 58, 50
2, 924480, Note_off_c, 2, 58, 0
2, 924480, Note_on_c, 2, 55, 50
2, 924600, Note_off_c, 2, 55, 0
2, 924720, Note_on_c, 2, 55, 50
2, 924840, Note_off_c, 2, 55, 0
2, 924960, Note_on_c, 2, 55, 50
2, 925080, Note_off_c, 2, 55, 0
2, 925440, Note_on_c, 2, 55, 50
2, 926160, Note_off_c, 2, 55, 0
2, 926160, Note_on_c, 2, 58, 50
2, 926400, Note_off_c, 2, 58, 0
2, 926400, Note_on_c, 2, 55, 50
2, 926640, Note_off_c, 2, 55, 0
2, 926640, Note_on_c, 2, 50, 50
2, 926760, Note_off_c, 2, 50, 0
2, 926880, Note_on_c, 2, 53, 50
2, 927360, Note_off_c, 2, 53, 0
2, 927360, Note_on_c, 2, 55, 50
2, 927480, Note_off_c, 2, 55, 0
2, 927840, Note_on_c, 2, 55, 50
2, 927960, Note_off_c, 2, 55, 0
2, 928080, Note_on_c, 2, 59, 50
2, 928320, Note_off_c, 2, 59, 0
2, 928320, Note_on_c, 2, 60, 50
2, 928560, Note_off_c, 2, 60, 0
2, 928560, Note_on_c, 2, 59, 50
2, 928800, Note_off_c, 2, 59, 0
2, 928800, Note_on_c, 2, 62, 50
2, 930240, Note_off_c, 2, 62, 0
2, 930240, Note_on_c, 2, 60, 50
2, 930480, Note_off_c, 2, 60, 0
2, 930480, Note_on_c, 2, 62, 50
2, 930720, Note_off_c, 2, 62, 0
2, 930720, Note_on_c, 2, 65, 50
2, 930840, Note_off_c, 2, 65, 0
2, 930960, Note_on_c, 2, 65, 50
2, 931080, Note_off_c, 2, 65, 0
2, 931080, Note_on_c, 2, 62, 50
2, 931200, Note_off_c, 2, 62, 0
2, 931200, Note_on_c, 2, 60, 50
2, 931440, Note_off_c, 2, 60, 0
2, 931440, Note_on_c, 2, 62, 50
2, 931680, Note_off_c, 2, 62, 0
2, 931680, Note_on_c, 2, 67, 50
2, 931920, Note_off_c, 2, 67, 0
2, 931920, Note_on_c, 2, 65, 50
2, 932520, Note_off_c, 2, 65, 0
2, 932640, Note_on_c, 2, 55, 50
2, 932760, Note_off_c, 2, 55, 0
2, 933120, Note_on_c, 2, 55, 50
2, 933600, Note_off_c, 2, 55, 0
2, 933600, Note_on_c, 2, 55, 50
2, 933840, Note_off_c, 2, 55, 0
2, 933840, Note_on_c, 2, 58, 50
2, 934080, Note_off_c, 2, 58, 0
2, 934080, Note_on_c, 2, 50, 50
2, 934200, Note_off_c, 2, 50, 0
2, 934320, Note_on_c, 2, 50, 50
2, 934440, Note_off_c, 2, 50, 0
2, 934560, Note_on_c, 2, 58, 50
2, 935040, Note_off_c, 2, 58, 0
2, 935040, Note_on_c, 2, 60, 50
2, 935160, Note_off_c, 2, 60, 0
2, 935520, Note_on_c, 2, 60, 50
2, 936000, Note_off_c, 2, 60, 0
2, 936000, Note_on_c, 2, 58, 50
2, 936240, Note_off_c, 2, 58, 0
2, 936240, Note_on_c, 2, 55, 50
2, 936360, Note_off_c, 2, 55, 0
2, 936480, Note_on_c, 2, 62, 50
2, 937080, Note_off_c, 2, 62, 0
2, 937680, Note_on_c, 2, 67, 50
2, 937920, Note_off_c, 2, 67, 0
2, 938400, Note_on_c, 2, 62, 50
2, 938640, Note_off_c, 2, 62, 0
2, 938640, Note_on_c, 2, 67, 50
2, 938880, Note_off_c, 2, 67, 0
2, 938880, Note_on_c, 2, 60, 50
2, 939120, Note_off_c, 2, 60, 0
2, 939120, Note_on_c, 2, 62, 50
2, 939360, Note_off_c, 2, 62, 0
2, 939360, Note_on_c, 2, 60, 50
2, 939600, Note_off_c, 2, 60, 0
2, 939600, Note_on_c, 2, 58, 50
2, 939840, Note_off_c, 2, 58, 0
2, 939840, Note_on_c, 2, 55, 50
2, 939960, Note_off_c, 2, 55, 0
2, 940080, Note_on_c, 2, 55, 50
2, 940200, Note_off_c, 2, 55, 0
2, 940320, Note_on_c, 2, 55, 50
2, 940440, Note_off_c, 2, 55, 0
2, 940800, Note_on_c, 2, 55, 50
2, 941520, Note_off_c, 2, 55, 0
2, 941520, Note_on_c, 2, 58, 50
2, 941760, Note_off_c, 2, 58, 0
2, 941760, Note_on_c, 2, 55, 50
2, 942000, Note_off_c, 2, 55, 0
2, 942000, Note_on_c, 2, 50, 50
2, 942120, Note_off_c, 2, 50, 0
2, 942240, Note_on_c, 2, 53, 50
2, 942720, Note_off_c, 2, 53, 0
2, 942720, Note_on_c, 2, 55, 50
2, 942840, Note_off_c, 2, 55, 0
2, 943200, Note_on_c, 2, 55, 50
2, 944160, Note_off_c, 2, 55, 0
2, 944160, Note_on_c, 2, 62, 50
2, 944280, Note_off_c, 2, 62, 0
2, 944640, Note_on_c, 2, 62, 50
2, 945120, Note_off_c, 2, 62, 0
2, 945120, Note_on_c, 2, 62, 50
2, 945360, Note_off_c, 2, 62, 0
2, 945360, Note_on_c, 2, 60, 50
2, 945600, Note_off_c, 2, 60, 0
2, 945600, Note_on_c, 2, 62, 50
2, 945840, Note_off_c, 2, 62, 0
2, 945840, Note_on_c, 2, 65, 50
2, 946080, Note_off_c, 2, 65, 0
2, 946080, Note_on_c, 2, 65, 50
2, 946560, Note_off_c, 2, 65, 0
2, 946560, Note_on_c, 2, 62, 50
2, 946800, Note_off_c, 2, 62, 0
2, 946800, Note_on_c, 2, 60, 50
2, 947040, Note_off_c, 2, 60, 0
2, 947040, Note_on_c, 2, 60, 50
2, 947280, Note_off_c, 2, 60, 0
2, 947280, Note_on_c, 2, 58, 50
2, 947640, Note_off_c, 2, 58, 0
2, 947760, Note_on_c, 2, 55, 50
2, 947880, Note_off_c, 2, 55, 0
2, 948000, Note_on_c, 2, 55, 50
2, 948120, Note_off_c, 2, 55, 0
2, 948480, Note_on_c, 2, 55, 50
2, 948960, Note_off_c, 2, 55, 0
2, 948960, Note_on_c, 2, 55, 50
2, 949200, Note_off_c, 2, 55, 0
2, 949200, Note_on_c, 2, 58, 50
2, 949440, Note_off_c, 2, 58, 0
2, 949440, Note_on_c, 2, 50, 50
2, 949560, Note_off_c, 2, 50, 0
2, 949680, Note_on_c, 2, 50, 50
2, 949800, Note_off_c, 2, 50, 0
2, 949920, Note_on_c, 2, 58, 50
2, 950400, Note_off_c, 2, 58, 0
2, 950400, Note_on_c, 2, 60, 50
2, 950520, Note_off_c, 2, 60, 0
2, 950880, Note_on_c, 2, 60, 50
2, 951360, Note_off_c, 2, 60, 0
2, 951360, Note_on_c, 2, 58, 50
2, 951600, Note_off_c, 2, 58, 0
2, 951600, Note_on_c, 2, 55, 50
2, 951720, Note_off_c, 2, 55, 0
2, 951840, Note_on_c, 2, 62, 50
2, 951960, Note_off_c, 2, 62, 0
2, 952320, Note_on_c, 2, 62, 50
2, 952800, Note_off_c, 2, 62, 0
2, 952800, Note_on_c, 2, 62, 50
2, 953040, Note_off_c, 2, 62, 0
2, 953040, Note_on_c, 2, 60, 50
2, 953280, Note_off_c, 2, 60, 0
2, 953280, Note_on_c, 2, 62, 50
2, 953520, Note_off_c, 2, 62, 0
2, 953520, Note_on_c, 2, 62, 50
2, 953760, Note_off_c, 2, 62, 0
2, 953760, Note_on_c, 2, 62, 50
2, 954000, Note_off_c, 2, 62, 0
2, 954000, Note_on_c, 2, 67, 50
2, 954240, Note_off_c, 2, 67, 0
2, 954240, Note_on_c, 2, 60, 50
2, 954480, Note_off_c, 2, 60, 0
2, 954480, Note_on_c, 2, 62, 50
2, 954720, Note_off_c, 2, 62, 0
2, 954720, Note_on_c, 2, 60, 50
2, 954960, Note_off_c, 2, 60, 0
2, 954960, Note_on_c, 2, 58, 50
2, 955200, Note_off_c, 2, 58, 0
2, 955200, Note_on_c, 2, 55, 50
2, 955320, Note_off_c, 2, 55, 0
2, 955440, Note_on_c, 2, 55, 50
2, 955560, Note_off_c, 2, 55, 0
2, 955680, Note_on_c, 2, 55, 50
2, 955800, Note_off_c, 2, 55, 0
2, 956160, Note_on_c, 2, 55, 50
2, 956880, Note_off_c, 2, 55, 0
2, 956880, Note_on_c, 2, 58, 50
2, 957120, Note_off_c, 2, 58, 0
2, 957120, Note_on_c, 2, 55, 50
2, 957360, Note_off_c, 2, 55, 0
2, 957360, Note_on_c, 2, 50, 50
2, 957480, Note_off_c, 2, 50, 0
2, 957600, Note_on_c, 2, 53, 50
2, 958080, Note_off_c, 2, 53, 0
2, 958080, Note_on_c, 2, 55, 50
2, 958200, Note_off_c, 2, 55, 0
2, 958560, Note_on_c, 2, 55, 50
2, 959520, Note_off_c, 2, 55, 0
2, 959520, Note_on_c, 2, 62, 50
2, 959640, Note_off_c, 2, 62, 0
2, 960000, Note_on_c, 2, 62, 50
2, 960480, Note_off_c, 2, 62, 0
2, 960480, Note_on_c, 2, 62, 50
2, 960720, Note_off_c, 2, 62, 0
2, 960720, Note_on_c, 2, 60, 50
2, 960960, Note_off_c, 2, 60, 0
2, 960960, Note_on_c, 2, 62, 50
2, 961200, Note_off_c, 2, 62, 0
2, 961200, Note_on_c, 2, 65, 50
2, 961440, Note_off_c, 2, 65, 0
2, 961440, Note_on_c, 2, 65, 50
2, 961920, Note_off_c, 2, 65, 0
2, 961920, Note_on_c, 2, 62, 50
2, 962160, Note_off_c, 2, 62, 0
2, 962160, Note_on_c, 2, 60, 50
2, 962400, Note_off_c, 2, 60, 0
2, 962400, Note_on_c, 2, 60, 50
2, 962640, Note_off_c, 2, 60, 0
2, 962640, Note_on_c, 2, 58, 50
2, 963000, Note_off_c, 2, 58, 0
2, 963120, Note_on_c, 2, 55, 50
2, 963240, Note_off_c, 2, 55, 0
2, 963360, Note_on_c, 2, 55, 50
2, 963480, Note_off_c, 2, 55, 0
2, 963840, Note_on_c, 2, 55, 50
2, 964320, Note_off_c, 2, 55, 0
2, 964320, Note_on_c, 2, 55, 50
2, 964560, Note_off_c, 2, 55, 0
2, 964560, Note_on_c, 2, 58, 50
2, 964800, Note_off_c, 2, 58, 0
2, 964800, Note_on_c, 2, 50, 50
2, 964920, Note_off_c, 2, 50, 0
2, 965040, Note_on_c, 2, 50, 50
2, 965160, Note_off_c, 2, 50, 0
2, 965280, Note_on_c, 2, 58, 50
2, 965760, Note_off_c, 2, 58, 0
2, 965760, Note_on_c, 2, 60, 50
2, 965880, Note_off_c, 2, 60, 0
2, 966240, Note_on_c, 2, 60, 50
2, 966720, Note_off_c, 2, 60, 0
2, 966720, Note_on_c, 2, 58, 50
2, 966960, Note_off_c, 2, 58, 0
2, 966960, Note_on_c, 2, 55, 50
2, 967080, Note_off_c, 2, 55, 0
2, 967200, Note_on_c, 2, 62, 50
2, 967320, Note_off_c, 2, 62, 0
2, 967680, Note_on_c, 2, 62, 50
2, 968160, Note_off_c, 2, 62, 0
2, 968160, Note_on_c, 2, 62, 50
2, 968400, Note_off_c, 2, 62, 0
2, 968400, Note_on_c, 2, 60, 50
2, 968640, Note_off_c, 2, 60, 0
2, 968640, Note_on_c, 2, 62, 50
2, 968880, Note_off_c, 2, 62, 0
2, 968880, Note_on_c, 2, 62, 50
2, 969120, Note_off_c, 2, 62, 0
2, 969120, Note_on_c, 2, 62, 50
2, 969360, Note_off_c, 2, 62, 0
2, 969360, Note_on_c, 2, 67, 50
2, 969600, Note_off_c, 2, 67, 0
2, 969600, Note_on_c, 2, 60, 50
2, 969840, Note_off_c, 2, 60, 0
2, 969840, Note_on_c, 2, 62, 50
2, 970080, Note_off_c, 2, 62, 0
2, 970080, Note_on_c, 2, 60, 50
2, 970320, Note_off_c, 2, 60, 0
2, 970320, Note_on_c, 2, 58, 50
2, 970560, Note_off_c, 2, 58, 0
2, 970560, Note_on_c, 2, 55, 50
2, 970680, Note_off_c, 2, 55, 0
2, 970800, Note_on_c, 2, 55, 50
2, 970920, Note_off_c, 2, 55, 0
2, 971040, Note_on_c, 2, 55, 50
2, 971160, Note_off_c, 2, 55, 0
2, 971520, Note_on_c, 2, 55, 50
2, 972240, Note_off_c, 2, 55, 0
2, 972240, Note_on_c, 2, 58, 50
2, 972480, Note_off_c, 2, 58, 0
2, 972480, Note_on_c, 2, 55, 50
2, 972720, Note_off_c, 2, 55, 0
2, 972720, Note_on_c, 2, 50, 50
2, 972840, Note_off_c, 2, 50, 0
2, 972960, Note_on_c, 2, 53, 50
2, 973440, Note_off_c, 2, 53, 0
2, 973440, Note_on_c, 2, 55, 50
2, 973560, Note_off_c, 2, 55, 0
2, 973920, Note_on_c, 2, 55, 50
2, 974880, Note_off_c, 2, 55, 0
2, 974880, Note_on_c, 2, 62, 50
2, 975000, Note_off_c, 2, 62, 0
2, 975360, Note_on_c, 2, 62, 50
2, 975840, Note_off_c, 2, 62, 0
2, 975840, Note_on_c, 2, 62, 50
2, 976080, Note_off_c, 2, 62, 0
2, 976080, Note_on_c, 2, 60, 50
2, 976320, Note_off_c, 2, 60, 0
2, 976320, Note_on_c, 2, 62, 50
2, 976560, Note_off_c, 2, 62, 0
2, 976560, Note_on_c, 2, 65, 50
2, 976800, Note_off_c, 2, 65, 0
2, 976800, Note_on_c, 2, 65, 50
2, 977280, Note_off_c, 2, 65, 0
2, 977280, Note_on_c, 2, 62, 50
2, 977520, Note_off_c, 2, 62, 0
2, 977520, Note_on_c, 2, 60, 50
2, 977760, Note_off_c, 2, 60, 0
2, 977760, Note_on_c, 2, 60, 50
2, 978000, Note_off_c, 2, 60, 0
2, 978000, Note_on_c, 2, 58, 50
2, 978360, Note_off_c, 2, 58, 0
2, 978480, Note_on_c, 2, 55, 50
2, 978600, Note_off_c, 2, 55, 0
2, 978720, Note_on_c, 2, 55, 50
2, 978840, Note_off_c, 2, 55, 0
2, 979200, Note_on_c, 2, 55, 50
2, 979680, Note_off_c, 2, 55, 0
2, 979680, Note_on_c, 2, 55, 50
2, 979920, Note_off_c, 2, 55, 0
2, 979920, Note_on_c, 2, 58, 50
2, 980160, Note_off_c, 2, 58, 0
2, 980160, Note_on_c, 2, 50, 50
2, 980280, Note_off_c, 2, 50, 0
2, 980400, Note_on_c, 2, 50, 50
2, 980520, Note_off_c, 2, 50, 0
2, 980640, Note_on_c, 2, 58, 50
2, 981120, Note_off_c, 2, 58, 0
2, 981120, Note_on_c, 2, 60, 50
2, 981240, Note_off_c, 2, 60, 0
2, 981600, Note_on_c, 2, 60, 50
2, 982080, Note_off_c, 2, 60, 0
2, 982080, Note_on_c, 2, 58, 50
2, 982320, Note_off_c, 2, 58, 0
2, 982320, Note_on_c, 2, 55, 50
2, 982440, Note_off_c, 2, 55, 0
2, 982560, Note_on_c, 2, 62, 50
2, 982680, Note_off_c, 2, 62, 0
2, 983040, Note_on_c, 2, 62, 50
2, 983520, Note_off_c, 2, 62, 0
2, 983520, Note_on_c, 2, 62, 50
2, 983760, Note_off_c, 2, 62, 0
2, 983760, Note_on_c, 2, 60, 50
2, 984000, Note_off_c, 2, 60, 0
2, 984000, Note_on_c, 2, 62, 50
2, 984240, Note_off_c, 2, 62, 0
2, 984240, Note_on_c, 2, 62, 50
2, 984480, Note_off_c, 2, 62, 0
2, 984480, Note_on_c, 2, 62, 50
2, 984720, Note_off_c, 2, 62, 0
2, 984720, Note_on_c, 2, 67, 50
2, 984960, Note_off_c, 2, 67, 0
2, 984960, Note_on_c, 2, 60, 50
2, 985200, Note_off_c, 2, 60, 0
2, 985200, Note_on_c, 2, 62, 50
2, 985440, Note_off_c, 2, 62, 0
2, 985440, Note_on_c, 2, 60, 50
2, 985680, Note_off_c, 2, 60, 0
2, 985680, Note_on_c, 2, 58, 50
2, 985920, Note_off_c, 2, 58, 0
2, 985920, Note_on_c, 2, 55, 50
2, 986040, Note_off_c, 2, 55, 0
2, 986160, Note_on_c, 2, 55, 50
2, 986280, Note_off_c, 2, 55, 0
2, 1036560, Note_on_c, 2, 41, 50
2, 1036680, Note_off_c, 2, 41, 0
2, 1036800, Note_on_c, 2, 43, 50
2, 1036920, Note_off_c, 2, 43, 0
2, 1037040, Note_on_c, 2, 41, 50
2, 1037160, Note_off_c, 2, 41, 0
2, 1037280, Note_on_c, 2, 41, 50
2, 1037400, Note_off_c, 2, 41, 0
2, 1037520, Note_on_c, 2, 41, 50
2, 1037640, Note_off_c, 2, 41, 0
2, 1037760, Note_on_c, 2, 43, 50
2, 1037880, Note_off_c, 2, 43, 0
2, 1038000, Note_on_c, 2, 41, 50
2, 1038120, Note_off_c, 2, 41, 0
2, 1038240, Note_on_c, 2, 41, 50
2, 1038360, Note_off_c, 2, 41, 0
2, 1038480, Note_on_c, 2, 41, 50
2, 1038600, Note_off_c, 2, 41, 0
2, 1038720, Note_on_c, 2, 43, 50
2, 1038840, Note_off_c, 2, 43, 0
2, 1038960, Note_on_c, 2, 41, 50
2, 1039080, Note_off_c, 2, 41, 0
2, 1039200, Note_on_c, 2, 41, 50
2, 1039320, Note_off_c, 2, 41, 0
2, 1039440, Note_on_c, 2, 41, 50
2, 1039560, Note_off_c, 2, 41, 0
2, 1039680, Note_on_c, 2, 43, 50
2, 1039800, Note_off_c, 2, 43, 0
2, 1039920, Note_on_c, 2, 41, 50
2, 1040040, Note_off_c, 2, 41, 0
2, 1040160, Note_on_c, 2, 46, 50
2, 1040280, Note_off_c, 2, 46, 0
2, 1040400, Note_on_c, 2, 46, 50
2, 1040520, Note_off_c, 2, 46, 0
2, 1040640, Note_on_c, 2, 48, 50
2, 1040760, Note_off_c, 2, 48, 0
2, 1040880, Note_on_c, 2, 46, 50
2, 1041000, Note_off_c, 2, 46, 0
2, 1041120, Note_on_c, 2, 46, 50
2, 1041240, Note_off_c, 2, 46, 0
2, 1041360, Note_on_c, 2, 46, 50
2, 1041480, Note_off_c, 2, 46, 0
2, 1041600, Note_on_c, 2, 48, 50
2, 1041720, Note_off_c, 2, 48, 0
2, 1041840, Note_on_c, 2, 46, 50
2, 1041960, Note_off_c, 2, 46, 0
2, 1042080, Note_on_c, 2, 46, 50
2, 1042200, Note_off_c, 2, 46, 0
2, 1042320, Note_on_c, 2, 46, 50
2, 1042440, Note_off_c, 2, 46, 0
2, 1042560, Note_on_c, 2, 48, 50
2, 1042680, Note_off_c, 2, 48, 0
2, 1042800, Note_on_c, 2, 46, 50
2, 1042920, Note_off_c, 2, 46, 0
2, 1043040, Note_on_c, 2, 46, 50
2, 1043160, Note_off_c, 2, 46, 0
2, 1043280, Note_on_c, 2, 46, 50
2, 1043400, Note_off_c, 2, 46, 0
2, 1043520, Note_on_c, 2, 48, 50
2, 1043640, Note_off_c, 2, 48, 0
2, 1043760, Note_on_c, 2, 46, 50
2, 1043880, Note_off_c, 2, 46, 0
2, 1044000, Note_on_c, 2, 48, 50
2, 1044120, Note_off_c, 2, 48, 0
2, 1044240, Note_on_c, 2, 48, 50
2, 1044360, Note_off_c, 2, 48, 0
2, 1044480, Note_on_c, 2, 50, 50
2, 1044600, Note_off_c, 2, 50, 0
2, 1044720, Note_on_c, 2, 48, 50
2, 1044840, Note_off_c, 2, 48, 0
2, 1044960, Note_on_c, 2, 48, 50
2, 1045080, Note_off_c, 2, 48, 0
2, 1045200, Note_on_c, 2, 48, 50
2, 1045320, Note_off_c, 2, 48, 0
2, 1045440, Note_on_c, 2, 50, 50
2, 1045560, Note_off_c, 2, 50, 0
2, 1045680, Note_on_c, 2, 48, 50
2, 1045800, Note_off_c, 2, 48, 0
2, 1045920, Note_on_c, 2, 48, 50
2, 1046040, Note_off_c, 2, 48, 0
2, 1046160, Note_on_c, 2, 48, 50
2, 1046280, Note_off_c, 2, 48, 0
2, 1046400, Note_on_c, 2, 50, 50
2, 1046520, Note_off_c, 2, 50, 0
2, 1046640, Note_on_c, 2, 48, 50
2, 1046760, Note_off_c, 2, 48, 0
2, 1046880, Note_on_c, 2, 48, 50
2, 1047000, Note_off_c, 2, 48, 0
2, 1047120, Note_on_c, 2, 48, 50
2, 1047240, Note_off_c, 2, 48, 0
2, 1047360, Note_on_c, 2, 50, 50
2, 1047480, Note_off_c, 2, 50, 0
2, 1047600, Note_on_c, 2, 48, 50
2, 1047720, Note_off_c, 2, 48, 0
2, 1047840, Note_on_c, 2, 46, 50
2, 1047960, Note_off_c, 2, 46, 0
2, 1048080, Note_on_c, 2, 46, 50
2, 1048200, Note_off_c, 2, 46, 0
2, 1048320, Note_on_c, 2, 48, 50
2, 1048440, Note_off_c, 2, 48, 0
2, 1048560, Note_on_c, 2, 46, 50
2, 1048680, Note_off_c, 2, 46, 0
2, 1048800, Note_on_c, 2, 46, 50
2, 1048920, Note_off_c, 2, 46, 0
2, 1049040, Note_on_c, 2, 46, 50
2, 1049160, Note_off_c, 2, 46, 0
2, 1049280, Note_on_c, 2, 48, 50
2, 1049400, Note_off_c, 2, 48, 0
2, 1049520, Note_on_c, 2, 46, 50
2, 1049640, Note_off_c, 2, 46, 0
2, 1049760, Note_on_c, 2, 48, 50
2, 1049880, Note_off_c, 2, 48, 0
2, 1050000, Note_on_c, 2, 48, 50
2, 1050120, Note_off_c, 2, 48, 0
2, 1050240, Note_on_c, 2, 50, 50
2, 1050360, Note_off_c, 2, 50, 0
2, 1050480, Note_on_c, 2, 48, 50
2, 1050600, Note_off_c, 2, 48, 0
2, 1050720, Note_on_c, 2, 48, 50
2, 1050840, Note_off_c, 2, 48, 0
2, 1050960, Note_on_c, 2, 48, 50
2, 1051080, Note_off_c, 2, 48, 0
2, 1051200, Note_on_c, 2, 50, 50
2, 1051320, Note_off_c, 2, 50, 0
2, 1051440, Note_on_c, 2, 48, 50
2, 1051560, Note_off_c, 2, 48, 0
2, 1051920, Note_on_c, 2, 41, 50
2, 1052040, Note_off_c, 2, 41, 0
2, 1052160, Note_on_c, 2, 43, 50
2, 1052280, Note_off_c, 2, 43, 0
2, 1052400, Note_on_c, 2, 41, 50
2, 1052520, Note_off_c, 2, 41, 0
2, 1052640, Note_on_c, 2, 41, 50
2, 1052760, Note_off_c, 2, 41, 0
2, 1052880, Note_on_c, 2, 41, 50
2, 1053000, Note_off_c, 2, 41, 0
2, 1053120, Note_on_c, 2, 43, 50
2, 1053240, Note_off_c, 2, 43, 0
2, 1053360, Note_on_c, 2, 41, 50
2, 1053480, Note_off_c, 2, 41, 0
2, 1053600, Note_on_c, 2, 41, 50
2, 1053720, Note_off_c, 2, 41, 0
2, 1053840, Note_on_c, 2, 41, 50
2, 1053960, Note_off_c, 2, 41, 0
2, 1054080, Note_on_c, 2, 43, 50
2, 1054200, Note_off_c, 2, 43, 0
2, 1054320, Note_on_c, 2, 41, 50
2, 1054440, Note_off_c, 2, 41, 0
2, 1054560, Note_on_c, 2, 41, 50
2, 1054680, Note_off_c, 2, 41, 0
2, 1054800, Note_on_c, 2, 41, 50
2, 1054920, Note_off_c, 2, 41, 0
2, 1055040, Note_on_c, 2, 43, 50
2, 1055160, Note_off_c, 2, 43, 0
2, 1055280, Note_on_c, 2, 41, 50
2, 1055400, Note_off_c, 2, 41, 0
2, 1055520, Note_on_c, 2, 46, 50
2, 1055640, Note_off_c, 2, 46, 0
2, 1055760, Note_on_c, 2, 46, 50
2, 1055880, Note_off_c, 2, 46, 0
2, 1056000, Note_on_c, 2, 48, 50
2, 1056120, Note_off_c, 2, 48, 0
2, 1056240, Note_on_c, 2, 48, 50
2, 1056360, Note_off_c, 2, 48, 0
2, 1056480, Note_on_c, 2, 46, 50
2, 1056600, Note_off_c, 2, 46, 0
2, 1056720, Note_on_c, 2, 46, 50
2, 1056840, Note_off_c, 2, 46, 0
2, 1056960, Note_on_c, 2, 48, 50
2, 1057080, Note_off_c, 2, 48, 0
2, 1057200, Note_on_c, 2, 46, 50
2, 1057320, Note_off_c, 2, 46, 0
2, 1057440, Note_on_c, 2, 46, 50
2, 1057560, Note_off_c, 2, 46, 0
2, 1057680, Note_on_c, 2, 46, 50
2, 1057800, Note_off_c, 2, 46, 0
2, 1057920, Note_on_c, 2, 48, 50
2, 1058040, Note_off_c, 2, 48, 0
2, 1058160, Note_on_c, 2, 46, 50
2, 1058280, Note_off_c, 2, 46, 0
2, 1058400, Note_on_c, 2, 46, 50
2, 1058520, Note_off_c, 2, 46, 0
2, 1058640, Note_on_c, 2, 46, 50
2, 1058760, Note_off_c, 2, 46, 0
2, 1058880, Note_on_c, 2, 48, 50
2, 1059000, Note_off_c, 2, 48, 0
2, 1059120, Note_on_c, 2, 46, 50
2, 1059240, Note_off_c, 2, 46, 0
2, 1059360, Note_on_c, 2, 48, 50
2, 1059480, Note_off_c, 2, 48, 0
2, 1059600, Note_on_c, 2, 48, 50
2, 1059720, Note_off_c, 2, 48, 0
2, 1059840, Note_on_c, 2, 50, 50
2, 1059960, Note_off_c, 2, 50, 0
2, 1060080, Note_on_c, 2, 48, 50
2, 1060200, Note_off_c, 2, 48, 0
2, 1060320, Note_on_c, 2, 48, 50
2, 1060440, Note_off_c, 2, 48, 0
2, 1060560, Note_on_c, 2, 48, 50
2, 1060680, Note_off_c, 2, 48, 0
2, 1060800, Note_on_c, 2, 50, 50
2, 1060920, Note_off_c, 2, 50, 0
2, 1061040, Note_on_c, 2, 48, 50
2, 1061160, Note_off_c, 2, 48, 0
2, 1061280, Note_on_c, 2, 48, 50
2, 1061400, Note_off_c, 2, 48, 0
2, 1061520, Note_on_c, 2, 48, 50
2, 1061640, Note_off_c, 2, 48, 0
2, 1061760, Note_on_c, 2, 50, 50
2, 1061880, Note_off_c, 2, 50, 0
2, 1062000, Note_on_c, 2, 48, 50
2, 1062120, Note_off_c, 2, 48, 0
2, 1062240, Note_on_c, 2, 48, 50
2, 1062360, Note_off_c, 2, 48, 0
2, 1062480, Note_on_c, 2, 48, 50
2, 1062600, Note_off_c, 2, 48, 0
2, 1062720, Note_on_c, 2, 50, 50
2, 1062840, Note_off_c, 2, 50, 0
2, 1062960, Note_on_c, 2, 48, 50
2, 1063080, Note_off_c, 2, 48, 0
2, 1063200, Note_on_c, 2, 46, 50
2, 1063320, Note_off_c, 2, 46, 0
2, 1063440, Note_on_c, 2, 46, 50
2, 1063560, Note_off_c, 2, 46, 0
2, 1063680, Note_on_c, 2, 48, 50
2, 1063800, Note_off_c, 2, 48, 0
2, 1063920, Note_on_c, 2, 46, 50
2, 1064040, Note_off_c, 2, 46, 0
2, 1064160, Note_on_c, 2, 46, 50
2, 1064280, Note_off_c, 2, 46, 0
2, 1064400, Note_on_c, 2, 46, 50
2, 1064520, Note_off_c, 2, 46, 0
2, 1064640, Note_on_c, 2, 48, 50
2, 1064760, Note_off_c, 2, 48, 0
2, 1064880, Note_on_c, 2, 46, 50
2, 1065000, Note_off_c, 2, 46, 0
2, 1065120, Note_on_c, 2, 48, 50
2, 1065240, Note_off_c, 2, 48, 0
2, 1065360, Note_on_c, 2, 48, 50
2, 1065480, Note_off_c, 2, 48, 0
2, 1065600, Note_on_c, 2, 50, 50
2, 1065720, Note_off_c, 2, 50, 0
2, 1065840, Note_on_c, 2, 48, 50
2, 1065960, Note_off_c, 2, 48, 0
2, 1066080, Note_on_c, 2, 48, 50
2, 1066200, Note_off_c, 2, 48, 0
2, 1066320, Note_on_c, 2, 48, 50
2, 1066440, Note_off_c, 2, 48, 0
2, 1066560, Note_on_c, 2, 50, 50
2, 1066680, Note_off_c, 2, 50, 0
2, 1066800, Note_on_c, 2, 48, 50
2, 1066920, Note_off_c, 2, 48, 0
2, 1067280, Note_on_c, 2, 41, 50
2, 1067400, Note_off_c, 2, 41, 0
2, 1067520, Note_on_c, 2, 43, 50
2, 1067640, Note_off_c, 2, 43, 0
2, 1067760, Note_on_c, 2, 41, 50
2, 1067880, Note_off_c, 2, 41, 0
2, 1068000, Note_on_c, 2, 41, 50
2, 1068120, Note_off_c, 2, 41, 0
2, 1068240, Note_on_c, 2, 41, 50
2, 1068360, Note_off_c, 2, 41, 0
2, 1068480, Note_on_c, 2, 43, 50
2, 1068600, Note_off_c, 2, 43, 0
2, 1068720, Note_on_c, 2, 41, 50
2, 1068840, Note_off_c, 2, 41, 0
2, 1068960, Note_on_c, 2, 41, 50
2, 1069080, Note_off_c, 2, 41, 0
2, 1069200, Note_on_c, 2, 41, 50
2, 1069320, Note_off_c, 2, 41, 0
2, 1069440, Note_on_c, 2, 43, 50
2, 1069560, Note_off_c, 2, 43, 0
2, 1069680, Note_on_c, 2, 41, 50
2, 1069800, Note_off_c, 2, 41, 0
2, 1069920, Note_on_c, 2, 41, 50
2, 1070040, Note_off_c, 2, 41, 0
2, 1070160, Note_on_c, 2, 41, 50
2, 1070280, Note_off_c, 2, 41, 0
2, 1070400, Note_on_c, 2, 43, 50
2, 1070520, Note_off_c, 2, 43, 0
2, 1070640, Note_on_c, 2, 41, 50
2, 1070760, Note_off_c, 2, 41, 0
2, 1070880, Note_on_c, 2, 41, 50
2, 1071000, Note_off_c, 2, 41, 0
2, 1071120, Note_on_c, 2, 41, 50
2, 1071240, Note_off_c, 2, 41, 0
2, 1071360, Note_on_c, 2, 43, 50
2, 1071480, Note_off_c, 2, 43, 0
2, 1071600, Note_on_c, 2, 41, 50
2, 1071720, Note_off_c, 2, 41, 0
2, 1071840, Note_on_c, 2, 41, 50
2, 1071960, Note_off_c, 2, 41, 0
2, 1072080, Note_on_c, 2, 41, 50
2, 1072200, Note_off_c, 2, 41, 0
2, 1072320, Note_on_c, 2, 43, 50
2, 1072440, Note_off_c, 2, 43, 0
2, 1072560, Note_on_c, 2, 41, 50
2, 1072680, Note_off_c, 2, 41, 0
2, 1072800, Note_on_c, 2, 41, 50
2, 1072920, Note_off_c, 2, 41, 0
2, 1073040, Note_on_c, 2, 41, 50
2, 1073160, Note_off_c, 2, 41, 0
2, 1073280, Note_on_c, 2, 43, 50
2, 1073400, Note_off_c, 2, 43, 0
2, 1073520, Note_on_c, 2, 41, 50
2, 1073640, Note_off_c, 2, 41, 0
2, 1073760, Note_on_c, 2, 41, 50
2, 1073880, Note_off_c, 2, 41, 0
2, 1074000, Note_on_c, 2, 41, 50
2, 1074120, Note_off_c, 2, 41, 0
2, 1074240, Note_on_c, 2, 43, 50
2, 1074360, Note_off_c, 2, 43, 0
2, 1074480, Note_on_c, 2, 41, 50
2, 1074600, Note_off_c, 2, 41, 0
2, 1074720, Note_on_c, 2, 41, 50
2, 1074840, Note_off_c, 2, 41, 0
2, 1074960, Note_on_c, 2, 41, 50
2, 1075080, Note_off_c, 2, 41, 0
2, 1075200, Note_on_c, 2, 43, 50
2, 1075320, Note_off_c, 2, 43, 0
2, 1075440, Note_on_c, 2, 41, 50
2, 1075560, Note_off_c, 2, 41, 0
2, 1075680, Note_on_c, 2, 41, 50
2, 1075800, Note_off_c, 2, 41, 0
2, 1075920, Note_on_c, 2, 41, 50
2, 1076040, Note_off_c, 2, 41, 0
2, 1076160, Note_on_c, 2, 43, 50
2, 1076280, Note_off_c, 2, 43, 0
2, 1076400, Note_on_c, 2, 41, 50
2, 1076520, Note_off_c, 2, 41, 0
2, 1076640, Note_on_c, 2, 41, 50
2, 1076760, Note_off_c, 2, 41, 0
2, 1076880, Note_on_c, 2, 41, 50
2, 1077000, Note_off_c, 2, 41, 0
2, 1077120, Note_on_c, 2, 43, 50
2, 1077240, Note_off_c, 2, 43, 0
2, 1077360, Note_on_c, 2, 41, 50
2, 1077480, Note_off_c, 2, 41, 0
2, 1077600, Note_on_c, 2, 41, 50
2, 1077720, Note_off_c, 2, 41, 0
2, 1077840, Note_on_c, 2, 41, 50
2, 1077960, Note_off_c, 2, 41, 0
2, 1078080, Note_on_c, 2, 43, 50
2, 1078200, Note_off_c, 2, 43, 0
2, 1078320, Note_on_c, 2, 41, 50
2, 1078440, Note_off_c, 2, 41, 0
2, 1078560, Note_on_c, 2, 41, 50
2, 1078680, Note_off_c, 2, 41, 0
2, 1078800, Note_on_c, 2, 41, 50
2, 1078920, Note_off_c, 2, 41, 0
2, 1079040, Note_on_c, 2, 43, 50
2, 1079160, Note_off_c, 2, 43, 0
2, 1079280, Note_on_c, 2, 41, 50
2, 1079400, Note_off_c, 2, 41, 0
2, 1079520, Note_on_c, 2, 41, 50
2, 1079640, Note_off_c, 2, 41, 0
2, 1079760, Note_on_c, 2, 41, 50
2, 1079880, Note_off_c, 2, 41, 0
2, 1080000, Note_on_c, 2, 43, 50
2, 1080120, Note_off_c, 2, 43, 0
2, 1080240, Note_on_c, 2, 41, 50
2, 1080360, Note_off_c, 2, 41, 0
2, 1080480, Note_on_c, 2, 41, 50
2, 1080600, Note_off_c, 2, 41, 0
2, 1080720, Note_on_c, 2, 41, 50
2, 1080840, Note_off_c, 2, 41, 0
2, 1080960, Note_on_c, 2, 43, 50
2, 1081080, Note_off_c, 2, 43, 0
2, 1081200, Note_on_c, 2, 41, 50
2, 1081320, Note_off_c, 2, 41, 0
2, 1081440, Note_on_c, 2, 41, 50
2, 1081560, Note_off_c, 2, 41, 0
2, 1081680, Note_on_c, 2, 41, 50
2, 1081800, Note_off_c, 2, 41, 0
2, 1081920, Note_on_c, 2, 43, 50
2, 1082040, Note_off_c, 2, 43, 0
2, 1082160, Note_on_c, 2, 41, 50
2, 1082280, Note_off_c, 2, 41, 0
2, 1082400, Note_on_c, 2, 46, 50
2, 1082520, Note_off_c, 2, 46, 0
2, 1082640, Note_on_c, 2, 46, 50
2, 1082760, Note_off_c, 2, 46, 0
2, 1082880, Note_on_c, 2, 48, 50
2, 1083000, Note_off_c, 2, 48, 0
2, 1083120, Note_on_c, 2, 46, 50
2, 1083240, Note_off_c, 2, 46, 0
2, 1083360, Note_on_c, 2, 46, 50
2, 1083480, Note_off_c, 2, 46, 0
2, 1083600, Note_on_c, 2, 46, 50
2, 1083720, Note_off_c, 2, 46, 0
2, 1083840, Note_on_c, 2, 48, 50
2, 1083960, Note_off_c, 2, 48, 0
2, 1084080, Note_on_c, 2, 46, 50
2, 1084200, Note_off_c, 2, 46, 0
2, 1084320, Note_on_c, 2, 46, 50
2, 1084440, Note_off_c, 2, 46, 0
2, 1084560, Note_on_c, 2, 46, 50
2, 1084680, Note_off_c, 2, 46, 0
2, 1084800, Note_on_c, 2, 48, 50
2, 1084920, Note_off_c, 2, 48, 0
2, 1085040, Note_on_c, 2, 46, 50
2, 1085160, Note_off_c, 2, 46, 0
2, 1085280, Note_on_c, 2, 46, 50
2, 1085400, Note_off_c, 2, 46, 0
2, 1085520, Note_on_c, 2, 46, 50
2, 1085640, Note_off_c, 2, 46, 0
2, 1085760, Note_on_c, 2, 48, 50
2, 1085880, Note_off_c, 2, 48, 0
2, 1086000, Note_on_c, 2, 48, 50
2, 1086120, Note_off_c, 2, 48, 0
2, 1086240, Note_on_c, 2, 41, 50
2, 1086360, Note_off_c, 2, 41, 0
2, 1086480, Note_on_c, 2, 41, 50
2, 1086600, Note_off_c, 2, 41, 0
2, 1086720, Note_on_c, 2, 43, 50
2, 1086840, Note_off_c, 2, 43, 0
2, 1086960, Note_on_c, 2, 41, 50
2, 1087080, Note_off_c, 2, 41, 0
2, 1087200, Note_on_c, 2, 41, 50
2, 1087320, Note_off_c, 2, 41, 0
2, 1087440, Note_on_c, 2, 41, 50
2, 1087560, Note_off_c, 2, 41, 0
2, 1087680, Note_on_c, 2, 43, 50
2, 1087800, Note_off_c, 2, 43, 0
2, 1087920, Note_on_c, 2, 41, 50
2, 1088040, Note_off_c, 2, 41, 0
2, 1088160, Note_on_c, 2, 41, 50
2, 1088280, Note_off_c, 2, 41, 0
2, 1088400, Note_on_c, 2, 41, 50
2, 1088520, Note_off_c, 2, 41, 0
2, 1088640, Note_on_c, 2, 43, 50
2, 1088760, Note_off_c, 2, 43, 0
2, 1088880, Note_on_c, 2, 41, 50
2, 1089000, Note_off_c, 2, 41, 0
2, 1089120, Note_on_c, 2, 41, 50
2, 1089240, Note_off_c, 2, 41, 0
2, 1089360, Note_on_c, 2, 41, 50
2, 1089480, Note_off_c, 2, 41, 0
2, 1089600, Note_on_c, 2, 43, 50
2, 1089720, Note_off_c, 2, 43, 0
2, 1089840, Note_on_c, 2, 41, 50
2, 1089960, Note_off_c, 2, 41, 0
2, 1090080, Note_on_c, 2, 46, 50
2, 1090200, Note_off_c, 2, 46, 0
2, 1090320, Note_on_c, 2, 46, 50
2, 1090440, Note_off_c, 2, 46, 0
2, 1090560, Note_on_c, 2, 48, 50
2, 1090680, Note_off_c, 2, 48, 0
2, 1090800, Note_on_c, 2, 46, 50
2, 1090920, Note_off_c, 2, 46, 0
2, 1091040, Note_on_c, 2, 46, 50
2, 1091160, Note_off_c, 2, 46, 0
2, 1091280, Note_on_c, 2, 46, 50
2, 1091400, Note_off_c, 2, 46, 0
2, 1091520, Note_on_c, 2, 48, 50
2, 1091640, Note_off_c, 2, 48, 0
2, 1091760, Note_on_c, 2, 46, 50
2, 1091880, Note_off_c, 2, 46, 0
2, 1092000, Note_on_c, 2, 46, 50
2, 1092120, Note_off_c, 2, 46, 0
2, 1092240, Note_on_c, 2, 46, 50
2, 1092360, Note_off_c, 2, 46, 0
2, 1092480, Note_on_c, 2, 48, 50
2, 1092600, Note_off_c, 2, 48, 0
2, 1092720, Note_on_c, 2, 46, 50
2, 1092840, Note_off_c, 2, 46, 0
2, 1092960, Note_on_c, 2, 46, 50
2, 1093080, Note_off_c, 2, 46, 0
2, 1093200, Note_on_c, 2, 46, 50
2, 1093320, Note_off_c, 2, 46, 0
2, 1093440, Note_on_c, 2, 48, 50
2, 1093560, Note_off_c, 2, 48, 0
2, 1093680, Note_on_c, 2, 46, 50
2, 1093800, Note_off_c, 2, 46, 0
2, 1093920, Note_on_c, 2, 41, 50
2, 1095480, Note_off_c, 2, 41, 0
2, 1097760, Note_on_c, 2, 41, 50
2, 1097880, Note_off_c, 2, 41, 0
2, 1098000, Note_on_c, 2, 41, 50
2, 1098120, Note_off_c, 2, 41, 0
2, 1098240, Note_on_c, 2, 43, 50
2, 1098360, Note_off_c, 2, 43, 0
2, 1098480, Note_on_c, 2, 41, 50
2, 1098600, Note_off_c, 2, 41, 0
2, 1098720, Note_on_c, 2, 41, 50
2, 1098840, Note_off_c, 2, 41, 0
2, 1098960, Note_on_c, 2, 41, 50
2, 1099080, Note_off_c, 2, 41, 0
2, 1099200, Note_on_c, 2, 43, 50
2, 1099320, Note_off_c, 2, 43, 0
2, 1099440, Note_on_c, 2, 41, 50
2, 1099560, Note_off_c, 2, 41, 0
2, 1099680, Note_on_c, 2, 48, 50
2, 1099800, Note_off_c, 2, 48, 0
2, 1099920, Note_on_c, 2, 48, 50
2, 1100040, Note_off_c, 2, 48, 0
2, 1100160, Note_on_c, 2, 50, 50
2, 1100280, Note_off_c, 2, 50, 0
2, 1100400, Note_on_c, 2, 48, 50
2, 1100520, Note_off_c, 2, 48, 0
2, 1100640, Note_on_c, 2, 48, 50
2, 1100760, Note_off_c, 2, 48, 0
2, 1100880, Note_on_c, 2, 48, 50
2, 1101000, Note_off_c, 2, 48, 0
2, 1101120, Note_on_c, 2, 50, 50
2, 1101240, Note_off_c, 2, 50, 0
2, 1101360, Note_on_c, 2, 48, 50
2, 1101480, Note_off_c, 2, 48, 0
2, 1101600, Note_on_c, 2, 41, 50
2, 1101720, Note_off_c, 2, 41, 0
2, 1101840, Note_on_c, 2, 41, 50
2, 1101960, Note_off_c, 2, 41, 0
2, 1102080, Note_on_c, 2, 43, 50
2, 1102200, Note_off_c, 2, 43, 0
2, 1102320, Note_on_c, 2, 41, 50
2, 1102440, Note_off_c, 2, 41, 0
2, 1102560, Note_on_c, 2, 41, 50
2, 1102680, Note_off_c, 2, 41, 0
2, 1102800, Note_on_c, 2, 41, 50
2, 1102920, Note_off_c, 2, 41, 0
2, 1103040, Note_on_c, 2, 43, 50
2, 1103160, Note_off_c, 2, 43, 0
2, 1103280, Note_on_c, 2, 41, 50
2, 1103400, Note_off_c, 2, 41, 0
2, 1103520, Note_on_c, 2, 46, 50
2, 1103640, Note_off_c, 2, 46, 0
2, 1103760, Note_on_c, 2, 46, 50
2, 1103880, Note_off_c, 2, 46, 0
2, 1104000, Note_on_c, 2, 48, 50
2, 1104120, Note_off_c, 2, 48, 0
2, 1104240, Note_on_c, 2, 46, 50
2, 1104360, Note_off_c, 2, 46, 0
2, 1104480, Note_on_c, 2, 46, 50
2, 1104600, Note_off_c, 2, 46, 0
2, 1104720, Note_on_c, 2, 46, 50
2, 1104840, Note_off_c, 2, 46, 0
2, 1104960, Note_on_c, 2, 48, 50
2, 1105080, Note_off_c, 2, 48, 0
2, 1105200, Note_on_c, 2, 46, 50
2, 1105320, Note_off_c, 2, 46, 0
2, 1105440, Note_on_c, 2, 41, 50
2, 1105560, Note_off_c, 2, 41, 0
2, 1105680, Note_on_c, 2, 41, 50
2, 1105800, Note_off_c, 2, 41, 0
2, 1105920, Note_on_c, 2, 43, 50
2, 1106040, Note_off_c, 2, 43, 0
2, 1106160, Note_on_c, 2, 41, 50
2, 1106280, Note_off_c, 2, 41, 0
2, 1106400, Note_on_c, 2, 41, 50
2, 1106520, Note_off_c, 2, 41, 0
2, 1106640, Note_on_c, 2, 41, 50
2, 1106760, Note_off_c, 2, 41, 0
2, 1106880, Note_on_c, 2, 43, 50
2, 1107000, Note_off_c, 2, 43, 0
2, 1107120, Note_on_c, 2, 41, 50
2, 1107240, Note_off_c, 2, 41, 0
2, 1107360, Note_on_c, 2, 48, 50
2, 1107480, Note_off_c, 2, 48, 0
2, 1107600, Note_on_c, 2, 48, 50
2, 1107720, Note_off_c, 2, 48, 0
2, 1107840, Note_on_c, 2, 50, 50
2, 1107960, Note_off_c, 2, 50, 0
2, 1108080, Note_on_c, 2, 48, 50
2, 1108200, Note_off_c, 2, 48, 0
2, 1108320, Note_on_c, 2, 48, 50
2, 1108440, Note_off_c, 2, 48, 0
2, 1108560, Note_on_c, 2, 48, 50
2, 1108680, Note_off_c, 2, 48, 0
2, 1108800, Note_on_c, 2, 50, 50
2, 1108920, Note_off_c, 2, 50, 0
2, 1109040, Note_on_c, 2, 48, 50
2, 1109160, Note_off_c, 2, 48, 0
2, 1109280, Note_on_c, 2, 48, 50
2, 1109400, Note_off_c, 2, 48, 0
2, 1109520, Note_on_c, 2, 46, 50
2, 1109640, Note_off_c, 2, 46, 0
2, 1109760, Note_on_c, 2, 48, 50
2, 1109880, Note_off_c, 2, 48, 0
2, 1110000, Note_on_c, 2, 46, 50
2, 1110120, Note_off_c, 2, 46, 0
2, 1110240, Note_on_c, 2, 46, 50
2, 1110360, Note_off_c, 2, 46, 0
2, 1110480, Note_on_c, 2, 46, 50
2, 1110600, Note_off_c, 2, 46, 0
2, 1110720, Note_on_c, 2, 48, 50
2, 1110840, Note_off_c, 2, 48, 0
2, 1110960, Note_on_c, 2, 46, 50
2, 1111080, Note_off_c, 2, 46, 0
2, 1111200, Note_on_c, 2, 48, 50
2, 1111320, Note_off_c, 2, 48, 0
2, 1111440, Note_on_c, 2, 48, 50
2, 1111560, Note_off_c, 2, 48, 0
2, 1111680, Note_on_c, 2, 50, 50
2, 1111800, Note_off_c, 2, 50, 0
2, 1111920, Note_on_c, 2, 48, 50
2, 1112040, Note_off_c, 2, 48, 0
2, 1112160, Note_on_c, 2, 48, 50
2, 1112280, Note_off_c, 2, 48, 0
2, 1112400, Note_on_c, 2, 48, 50
2, 1112520, Note_off_c, 2, 48, 0
2, 1112640, Note_on_c, 2, 50, 50
2, 1112760, Note_off_c, 2, 50, 0
2, 1112880, Note_on_c, 2, 48, 50
2, 1113000, Note_off_c, 2, 48, 0
2, 1113360, Note_on_c, 2, 41, 50
2, 1113480, Note_off_c, 2, 41, 0
2, 1113600, Note_on_c, 2, 43, 50
2, 1113720, Note_off_c, 2, 43, 0
2, 1113840, Note_on_c, 2, 41, 50
2, 1113960, Note_off_c, 2, 41, 0
2, 1114080, Note_on_c, 2, 41, 50
2, 1114200, Note_off_c, 2, 41, 0
2, 1114320, Note_on_c, 2, 41, 50
2, 1114440, Note_off_c, 2, 41, 0
2, 1114560, Note_on_c, 2, 43, 50
2, 1114680, Note_off_c, 2, 43, 0
2, 1114800, Note_on_c, 2, 41, 50
2, 1114920, Note_off_c, 2, 41, 0
2, 1115040, Note_on_c, 2, 41, 50
2, 1115160, Note_off_c, 2, 41, 0
2, 1115280, Note_on_c, 2, 41, 50
2, 1115400, Note_off_c, 2, 41, 0
2, 1115520, Note_on_c, 2, 43, 50
2, 1115640, Note_off_c, 2, 43, 0
2, 1115760, Note_on_c, 2, 41, 50
2, 1115880, Note_off_c, 2, 41, 0
2, 1116000, Note_on_c, 2, 41, 50
2, 1116120, Note_off_c, 2, 41, 0
2, 1116240, Note_on_c, 2, 41, 50
2, 1116360, Note_off_c, 2, 41, 0
2, 1116480, Note_on_c, 2, 43, 50
2, 1116600, Note_off_c, 2, 43, 0
2, 1116720, Note_on_c, 2, 41, 50
2, 1116840, Note_off_c, 2, 41, 0
2, 1116960, Note_on_c, 2, 46, 50
2, 1117080, Note_off_c, 2, 46, 0
2, 1117200, Note_on_c, 2, 46, 50
2, 1117320, Note_off_c, 2, 46, 0
2, 1117440, Note_on_c, 2, 48, 50
2, 1117560, Note_off_c, 2, 48, 0
2, 1117680, Note_on_c, 2, 46, 50
2, 1117800, Note_off_c, 2, 46, 0
2, 1117920, Note_on_c, 2, 46, 50
2, 1118040, Note_off_c, 2, 46, 0
2, 1118160, Note_on_c, 2, 46, 50
2, 1118280, Note_off_c, 2, 46, 0
2, 1118400, Note_on_c, 2, 48, 50
2, 1118520, Note_off_c, 2, 48, 0
2, 1118640, Note_on_c, 2, 46, 50
2, 1118760, Note_off_c, 2, 46, 0
2, 1118880, Note_on_c, 2, 46, 50
2, 1119000, Note_off_c, 2, 46, 0
2, 1119120, Note_on_c, 2, 46, 50
2, 1119240, Note_off_c, 2, 46, 0
2, 1119360, Note_on_c, 2, 48, 50
2, 1119480, Note_off_c, 2, 48, 0
2, 1119600, Note_on_c, 2, 46, 50
2, 1119720, Note_off_c, 2, 46, 0
2, 1119840, Note_on_c, 2, 46, 50
2, 1119960, Note_off_c, 2, 46, 0
2, 1120080, Note_on_c, 2, 46, 50
2, 1120200, Note_off_c, 2, 46, 0
2, 1120320, Note_on_c, 2, 48, 50
2, 1120440, Note_off_c, 2, 48, 0
2, 1120560, Note_on_c, 2, 46, 50
2, 1120680, Note_off_c, 2, 46, 0
2, 1120800, Note_on_c, 2, 48, 50
2, 1120920, Note_off_c, 2, 48, 0
2, 1121040, Note_on_c, 2, 48, 50
2, 1121160, Note_off_c, 2, 48, 0
2, 1121280, Note_on_c, 2, 50, 50
2, 1121400, Note_off_c, 2, 50, 0
2, 1121520, Note_on_c, 2, 48, 50
2, 1121640, Note_off_c, 2, 48, 0
2, 1121760, Note_on_c, 2, 48, 50
2, 1121880, Note_off_c, 2, 48, 0
2, 1122000, Note_on_c, 2, 48, 50
2, 1122120, Note_off_c, 2, 48, 0
2, 1122240, Note_on_c, 2, 50, 50
2, 1122360, Note_off_c, 2, 50, 0
2, 1122480, Note_on_c, 2, 48, 50
2, 1122600, Note_off_c, 2, 48, 0
2, 1122720, Note_on_c, 2, 48, 50
2, 1122840, Note_off_c, 2, 48, 0
2, 1122960, Note_on_c, 2, 48, 50
2, 1123080, Note_off_c, 2, 48, 0
2, 1123200, Note_on_c, 2, 50, 50
2, 1123320, Note_off_c, 2, 50, 0
2, 1123440, Note_on_c, 2, 48, 50
2, 1123560, Note_off_c, 2, 48, 0
2, 1123680, Note_on_c, 2, 48, 50
2, 1123800, Note_off_c, 2, 48, 0
2, 1123920, Note_on_c, 2, 48, 50
2, 1124040, Note_off_c, 2, 48, 0
2, 1124160, Note_on_c, 2, 50, 50
2, 1124280, Note_off_c, 2, 50, 0
2, 1124400, Note_on_c, 2, 48, 50
2, 1124520, Note_off_c, 2, 48, 0
2, 1124640, Note_on_c, 2, 46, 50
2, 1124760, Note_off_c, 2, 46, 0
2, 1124880, Note_on_c, 2, 46, 50
2, 1125000, Note_off_c, 2, 46, 0
2, 1125120, Note_on_c, 2, 48, 50
2, 1125240, Note_off_c, 2, 48, 0
2, 1125360, Note_on_c, 2, 46, 50
2, 1125480, Note_off_c, 2, 46, 0
2, 1125600, Note_on_c, 2, 46, 50
2, 1125720, Note_off_c, 2, 46, 0
2, 1125840, Note_on_c, 2, 46, 50
2, 1125960, Note_off_c, 2, 46, 0
2, 1126080, Note_on_c, 2, 48, 50
2, 1126200, Note_off_c, 2, 48, 0
2, 1126320, Note_on_c, 2, 46, 50
2, 1126440, Note_off_c, 2, 46, 0
2, 1126560, Note_on_c, 2, 48, 50
2, 1126680, Note_off_c, 2, 48, 0
2, 1126800, Note_on_c, 2, 48, 50
2, 1126920, Note_off_c, 2, 48, 0
2, 1127040, Note_on_c, 2, 50, 50
2, 1127160, Note_off_c, 2, 50, 0
2, 1127280, Note_on_c, 2, 48, 50
2, 1127400, Note_off_c, 2, 48, 0
2, 1127520, Note_on_c, 2, 48, 50
2, 1127640, Note_off_c, 2, 48, 0
2, 1127760, Note_on_c, 2, 48, 50
2, 1127880, Note_off_c, 2, 48, 0
2, 1128000, Note_on_c, 2, 50, 50
2, 1128120, Note_off_c, 2, 50, 0
2, 1128240, Note_on_c, 2, 48, 50
2, 1128360, Note_off_c, 2, 48, 0
2, 1128720, Note_on_c, 2, 41, 50
2, 1128840, Note_off_c, 2, 41, 0
2, 1128960, Note_on_c, 2, 43, 50
2, 1129080, Note_off_c, 2, 43, 0
2, 1129200, Note_on_c, 2, 41, 50
2, 1129320, Note_off_c, 2, 41, 0
2, 1129440, Note_on_c, 2, 41, 50
2, 1129560, Note_off_c, 2, 41, 0
2, 1129680, Note_on_c, 2, 41, 50
2, 1129800, Note_off_c, 2, 41, 0
2, 1129920, Note_on_c, 2, 43, 50
2, 1130040, Note_off_c, 2, 43, 0
2, 1130160, Note_on_c, 2, 41, 50
2, 1130280, Note_off_c, 2, 41, 0
2, 1130400, Note_on_c, 2, 41, 50
2, 1130520, Note_off_c, 2, 41, 0
2, 1130640, Note_on_c, 2, 41, 50
2, 1130760, Note_off_c, 2, 41, 0
2, 1130880, Note_on_c, 2, 43, 50
2, 1131000, Note_off_c, 2, 43, 0
2, 1131120, Note_on_c, 2, 41, 50
2, 1131240, Note_off_c, 2, 41, 0
2, 1131360, Note_on_c, 2, 41, 50
2, 1131480, Note_off_c, 2, 41, 0
2, 1131600, Note_on_c, 2, 41, 50
2, 1131720, Note_off_c, 2, 41, 0
2, 1131840, Note_on_c, 2, 43, 50
2, 1131960, Note_off_c, 2, 43, 0
2, 1132080, Note_on_c, 2, 41, 50
2, 1132200, Note_off_c, 2, 41, 0
2, 1132320, Note_on_c, 2, 41, 50
2, 1132440, Note_off_c, 2, 41, 0
2, 1132560, Note_on_c, 2, 41, 50
2, 1132680, Note_off_c, 2, 41, 0
2, 1132800, Note_on_c, 2, 43, 50
2, 1132920, Note_off_c, 2, 43, 0
2, 1133040, Note_on_c, 2, 41, 50
2, 1133160, Note_off_c, 2, 41, 0
2, 1133280, Note_on_c, 2, 41, 50
2, 1133400, Note_off_c, 2, 41, 0
2, 1133520, Note_on_c, 2, 41, 50
2, 1133640, Note_off_c, 2, 41, 0
2, 1133760, Note_on_c, 2, 43, 50
2, 1133880, Note_off_c, 2, 43, 0
2, 1134000, Note_on_c, 2, 41, 50
2, 1134120, Note_off_c, 2, 41, 0
2, 1134240, Note_on_c, 2, 41, 50
2, 1134360, Note_off_c, 2, 41, 0
2, 1134480, Note_on_c, 2, 41, 50
2, 1134600, Note_off_c, 2, 41, 0
2, 1134720, Note_on_c, 2, 43, 50
2, 1134840, Note_off_c, 2, 43, 0
2, 1134960, Note_on_c, 2, 41, 50
2, 1135080, Note_off_c, 2, 41, 0
2, 1135200, Note_on_c, 2, 41, 50
2, 1135320, Note_off_c, 2, 41, 0
2, 1135440, Note_on_c, 2, 41, 50
2, 1135560, Note_off_c, 2, 41, 0
2, 1135680, Note_on_c, 2, 43, 50
2, 1135800, Note_off_c, 2, 43, 0
2, 1135920, Note_on_c, 2, 41, 50
2, 1136040, Note_off_c, 2, 41, 0
2, 1136160, Note_on_c, 2, 41, 50
2, 1136280, Note_off_c, 2, 41, 0
2, 1136400, Note_on_c, 2, 41, 50
2, 1136520, Note_off_c, 2, 41, 0
2, 1136640, Note_on_c, 2, 43, 50
2, 1136760, Note_off_c, 2, 43, 0
2, 1136880, Note_on_c, 2, 41, 50
2, 1137000, Note_off_c, 2, 41, 0
2, 1137120, Note_on_c, 2, 41, 50
2, 1137240, Note_off_c, 2, 41, 0
2, 1137360, Note_on_c, 2, 41, 50
2, 1137480, Note_off_c, 2, 41, 0
2, 1137600, Note_on_c, 2, 43, 50
2, 1137720, Note_off_c, 2, 43, 0
2, 1137840, Note_on_c, 2, 41, 50
2, 1137960, Note_off_c, 2, 41, 0
2, 1138080, Note_on_c, 2, 41, 50
2, 1138200, Note_off_c, 2, 41, 0
2, 1138320, Note_on_c, 2, 41, 50
2, 1138440, Note_off_c, 2, 41, 0
2, 1138560, Note_on_c, 2, 43, 50
2, 1138680, Note_off_c, 2, 43, 0
2, 1138800, Note_on_c, 2, 41, 50
2, 1138920, Note_off_c, 2, 41, 0
2, 1139040, Note_on_c, 2, 41, 50
2, 1139160, Note_off_c, 2, 41, 0
2, 1139280, Note_on_c, 2, 41, 50
2, 1139400, Note_off_c, 2, 41, 0
2, 1139520, Note_on_c, 2, 43, 50
2, 1139640, Note_off_c, 2, 43, 0
2, 1139760, Note_on_c, 2, 41, 50
2, 1139880, Note_off_c, 2, 41, 0
2, 1140000, Note_on_c, 2, 41, 50
2, 1140120, Note_off_c, 2, 41, 0
2, 1140240, Note_on_c, 2, 41, 50
2, 1140360, Note_off_c, 2, 41, 0
2, 1140480, Note_on_c, 2, 43, 50
2, 1140600, Note_off_c, 2, 43, 0
2, 1140720, Note_on_c, 2, 41, 50
2, 1140840, Note_off_c, 2, 41, 0
2, 1140960, Note_on_c, 2, 41, 50
2, 1141080, Note_off_c, 2, 41, 0
2, 1141200, Note_on_c, 2, 41, 50
2, 1141320, Note_off_c, 2, 41, 0
2, 1141440, Note_on_c, 2, 43, 50
2, 1141560, Note_off_c, 2, 43, 0
2, 1141680, Note_on_c, 2, 41, 50
2, 1141800, Note_off_c, 2, 41, 0
2, 1141920, Note_on_c, 2, 41, 50
2, 1142040, Note_off_c, 2, 41, 0
2, 1142160, Note_on_c, 2, 41, 50
2, 1142280, Note_off_c, 2, 41, 0
2, 1142400, Note_on_c, 2, 43, 50
2, 1142520, Note_off_c, 2, 43, 0
2, 1142640, Note_on_c, 2, 41, 50
2, 1142760, Note_off_c, 2, 41, 0
2, 1142880, Note_on_c, 2, 41, 50
2, 1143000, Note_off_c, 2, 41, 0
2, 1143120, Note_on_c, 2, 41, 50
2, 1143240, Note_off_c, 2, 41, 0
2, 1143360, Note_on_c, 2, 43, 50
2, 1143480, Note_off_c, 2, 43, 0
2, 1143600, Note_on_c, 2, 41, 50
2, 1143720, Note_off_c, 2, 41, 0
2, 1143840, Note_on_c, 2, 46, 50
2, 1143960, Note_off_c, 2, 46, 0
2, 1144080, Note_on_c, 2, 46, 50
2, 1144200, Note_off_c, 2, 46, 0
2, 1144320, Note_on_c, 2, 48, 50
2, 1144440, Note_off_c, 2, 48, 0
2, 1144560, Note_on_c, 2, 46, 50
2, 1144680, Note_off_c, 2, 46, 0
2, 1144800, Note_on_c, 2, 46, 50
2, 1144920, Note_off_c, 2, 46, 0
2, 1145040, Note_on_c, 2, 46, 50
2, 1145160, Note_off_c, 2, 46, 0
2, 1145280, Note_on_c, 2, 48, 50
2, 1145400, Note_off_c, 2, 48, 0
2, 1145520, Note_on_c, 2, 46, 50
2, 1145640, Note_off_c, 2, 46, 0
2, 1145760, Note_on_c, 2, 46, 50
2, 1145880, Note_off_c, 2, 46, 0
2, 1146000, Note_on_c, 2, 46, 50
2, 1146120, Note_off_c, 2, 46, 0
2, 1146240, Note_on_c, 2, 48, 50
2, 1146360, Note_off_c, 2, 48, 0
2, 1146480, Note_on_c, 2, 46, 50
2, 1146600, Note_off_c, 2, 46, 0
2, 1146720, Note_on_c, 2, 46, 50
2, 1146840, Note_off_c, 2, 46, 0
2, 1146960, Note_on_c, 2, 46, 50
2, 1147080, Note_off_c, 2, 46, 0
2, 1147200, Note_on_c, 2, 48, 50
2, 1147320, Note_off_c, 2, 48, 0
2, 1147440, Note_on_c, 2, 48, 50
2, 1147560, Note_off_c, 2, 48, 0
2, 1147680, Note_on_c, 2, 41, 50
2, 1147800, Note_off_c, 2, 41, 0
2, 1147920, Note_on_c, 2, 41, 50
2, 1148040, Note_off_c, 2, 41, 0
2, 1148160, Note_on_c, 2, 43, 50
2, 1148280, Note_off_c, 2, 43, 0
2, 1148400, Note_on_c, 2, 41, 50
2, 1148520, Note_off_c, 2, 41, 0
2, 1148640, Note_on_c, 2, 41, 50
2, 1148760, Note_off_c, 2, 41, 0
2, 1148880, Note_on_c, 2, 41, 50
2, 1149000, Note_off_c, 2, 41, 0
2, 1149120, Note_on_c, 2, 43, 50
2, 1149240, Note_off_c, 2, 43, 0
2, 1149360, Note_on_c, 2, 41, 50
2, 1149480, Note_off_c, 2, 41, 0
2, 1149600, Note_on_c, 2, 41, 50
2, 1149720, Note_off_c, 2, 41, 0
2, 1149840, Note_on_c, 2, 41, 50
2, 1149960, Note_off_c, 2, 41, 0
2, 1150080, Note_on_c, 2, 43, 50
2, 1150200, Note_off_c, 2, 43, 0
2, 1150320, Note_on_c, 2, 41, 50
2, 1150440, Note_off_c, 2, 41, 0
2, 1150560, Note_on_c, 2, 41, 50
2, 1150680, Note_off_c, 2, 41, 0
2, 1150800, Note_on_c, 2, 41, 50
2, 1150920, Note_off_c, 2, 41, 0
2, 1151040, Note_on_c, 2, 43, 50
2, 1151160, Note_off_c, 2, 43, 0
2, 1151280, Note_on_c, 2, 41, 50
2, 1151400, Note_off_c, 2, 41, 0
2, 1151520, Note_on_c, 2, 46, 50
2, 1151640, Note_off_c, 2, 46, 0
2, 1151760, Note_on_c, 2, 46, 50
2, 1151880, Note_off_c, 2, 46, 0
2, 1152000, Note_on_c, 2, 48, 50
2, 1152120, Note_off_c, 2, 48, 0
2, 1152240, Note_on_c, 2, 46, 50
2, 1152360, Note_off_c, 2, 46, 0
2, 1152480, Note_on_c, 2, 46, 50
2, 1152600, Note_off_c, 2, 46, 0
2, 1152720, Note_on_c, 2, 46, 50
2, 1152840, Note_off_c, 2, 46, 0
2, 1152960, Note_on_c, 2, 48, 50
2, 1153080, Note_off_c, 2, 48, 0
2, 1153200, Note_on_c, 2, 46, 50
2, 1153320, Note_off_c, 2, 46, 0
2, 1153440, Note_on_c, 2, 46, 50
2, 1153560, Note_off_c, 2, 46, 0
2, 1153680, Note_on_c, 2, 46, 50
2, 1153800, Note_off_c, 2, 46, 0
2, 1153920, Note_on_c, 2, 48, 50
2, 1154040, Note_off_c, 2, 48, 0
2, 1154160, Note_on_c, 2, 46, 50
2, 1154280, Note_off_c, 2, 46, 0
2, 1154400, Note_on_c, 2, 46, 50
2, 1154520, Note_off_c, 2, 46, 0
2, 1154640, Note_on_c, 2, 46, 50
2, 1154760, Note_off_c, 2, 46, 0
2, 1154880, Note_on_c, 2, 48, 50
2, 1155000, Note_off_c, 2, 48, 0
2, 1155120, Note_on_c, 2, 46, 50
2, 1155240, Note_off_c, 2, 46, 0
2, 1155360, Note_on_c, 2, 41, 50
2, 1156920, Note_off_c, 2, 41, 0
2, 1159200, Note_on_c, 2, 41, 50
2, 1159320, Note_off_c, 2, 41, 0
2, 1159440, Note_on_c, 2, 41, 50
2, 1159560, Note_off_c, 2, 41, 0
2, 1159680, Note_on_c, 2, 43, 50
2, 1159800, Note_off_c, 2, 43, 0
2, 1159920, Note_on_c, 2, 41, 50
2, 1160040, Note_off_c, 2, 41, 0
2, 1160160, Note_on_c, 2, 41, 50
2, 1160280, Note_off_c, 2, 41, 0
2, 1160400, Note_on_c, 2, 41, 50
2, 1160520, Note_off_c, 2, 41, 0
2, 1160640, Note_on_c, 2, 43, 50
2, 1160760, Note_off_c, 2, 43, 0
2, 1160880, Note_on_c, 2, 41, 50
2, 1161000, Note_off_c, 2, 41, 0
2, 1161120, Note_on_c, 2, 48, 50
2, 1161240, Note_off_c, 2, 48, 0
2, 1161360, Note_on_c, 2, 48, 50
2, 1161480, Note_off_c, 2, 48, 0
2, 1161600, Note_on_c, 2, 50, 50
2, 1161720, Note_off_c, 2, 50, 0
2, 1161840, Note_on_c, 2, 48, 50
2, 1161960, Note_off_c, 2, 48, 0
2, 1162080, Note_on_c, 2, 48, 50
2, 1162200, Note_off_c, 2, 48, 0
2, 1162320, Note_on_c, 2, 48, 50
2, 1162440, Note_off_c, 2, 48, 0
2, 1162560, Note_on_c, 2, 50, 50
2, 1162680, Note_off_c, 2, 50, 0
2, 1162800, Note_on_c, 2, 48, 50
2, 1162920, Note_off_c, 2, 48, 0
2, 1163040, Note_on_c, 2, 41, 50
2, 1163160, Note_off_c, 2, 41, 0
2, 1163280, Note_on_c, 2, 41, 50
2, 1163400, Note_off_c, 2, 41, 0
2, 1163520, Note_on_c, 2, 43, 50
2, 1163640, Note_off_c, 2, 43, 0
2, 1163760, Note_on_c, 2, 41, 50
2, 1163880, Note_off_c, 2, 41, 0
2, 1164000, Note_on_c, 2, 41, 50
2, 1164120, Note_off_c, 2, 41, 0
2, 1164240, Note_on_c, 2, 41, 50
2, 1164360, Note_off_c, 2, 41, 0
2, 1164480, Note_on_c, 2, 43, 50
2, 1164600, Note_off_c, 2, 43, 0
2, 1164720, Note_on_c, 2, 41, 50
2, 1164840, Note_off_c, 2, 41, 0
2, 1164960, Note_on_c, 2, 46, 50
2, 1165080, Note_off_c, 2, 46, 0
2, 1165200, Note_on_c, 2, 46, 50
2, 1165320, Note_off_c, 2, 46, 0
2, 1165440, Note_on_c, 2, 48, 50
2, 1165560, Note_off_c, 2, 48, 0
2, 1165680, Note_on_c, 2, 46, 50
2, 1165800, Note_off_c, 2, 46, 0
2, 1165920, Note_on_c, 2, 46, 50
2, 1166040, Note_off_c, 2, 46, 0
2, 1166160, Note_on_c, 2, 46, 50
2, 1166280, Note_off_c, 2, 46, 0
2, 1166400, Note_on_c, 2, 48, 50
2, 1166520, Note_off_c, 2, 48, 0
2, 1166640, Note_on_c, 2, 46, 50
2, 1166760, Note_off_c, 2, 46, 0
2, 1166880, Note_on_c, 2, 41, 50
2, 1167000, Note_off_c, 2, 41, 0
2, 1167120, Note_on_c, 2, 41, 50
2, 1167240, Note_off_c, 2, 41, 0
2, 1167360, Note_on_c, 2, 43, 50
2, 1167480, Note_off_c, 2, 43, 0
2, 1167600, Note_on_c, 2, 41, 50
2, 1167720, Note_off_c, 2, 41, 0
2, 1167840, Note_on_c, 2, 41, 50
2, 1167960, Note_off_c, 2, 41, 0
2, 1168080, Note_on_c, 2, 41, 50
2, 1168200, Note_off_c, 2, 41, 0
2, 1168320, Note_on_c, 2, 43, 50
2, 1168440, Note_off_c, 2, 43, 0
2, 1168560, Note_on_c, 2, 41, 50
2, 1168680, Note_off_c, 2, 41, 0
2, 1168800, Note_on_c, 2, 48, 50
2, 1168920, Note_off_c, 2, 48, 0
2, 1169040, Note_on_c, 2, 48, 50
2, 1169160, Note_off_c, 2, 48, 0
2, 1169280, Note_on_c, 2, 50, 50
2, 1169400, Note_off_c, 2, 50, 0
2, 1169520, Note_on_c, 2, 48, 50
2, 1169640, Note_off_c, 2, 48, 0
2, 1169760, Note_on_c, 2, 48, 50
2, 1169880, Note_off_c, 2, 48, 0
2, 1170000, Note_on_c, 2, 48, 50
2, 1170120, Note_off_c, 2, 48, 0
2, 1170240, Note_on_c, 2, 50, 50
2, 1170360, Note_off_c, 2, 50, 0
2, 1170480, Note_on_c, 2, 48, 50
2, 1170600, Note_off_c, 2, 48, 0
2, 1170720, Note_on_c, 2, 48, 50
2, 1170840, Note_off_c, 2, 48, 0
2, 1170960, Note_on_c, 2, 46, 50
2, 1171080, Note_off_c, 2, 46, 0
2, 1171200, Note_on_c, 2, 48, 50
2, 1171320, Note_off_c, 2, 48, 0
2, 1171440, Note_on_c, 2, 46, 50
2, 1171560, Note_off_c, 2, 46, 0
2, 1171680, Note_on_c, 2, 46, 50
2, 1171800, Note_off_c, 2, 46, 0
2, 1171920, Note_on_c, 2, 46, 50
2, 1172040, Note_off_c, 2, 46, 0
2, 1172160, Note_on_c, 2, 48, 50
2, 1172280, Note_off_c, 2, 48, 0
2, 1172400, Note_on_c, 2, 46, 50
2, 1172520, Note_off_c, 2, 46, 0
2, 1172640, Note_on_c, 2, 48, 50
2, 1172760, Note_off_c, 2, 48, 0
2, 1172880, Note_on_c, 2, 48, 50
2, 1173000, Note_off_c, 2, 48, 0
2, 1173120, Note_on_c, 2, 50, 50
2, 1173240, Note_off_c, 2, 50, 0
2, 1173360, Note_on_c, 2, 48, 50
2, 1173480, Note_off_c, 2, 48, 0
2, 1173600, Note_on_c, 2, 48, 50
2, 1173720, Note_off_c, 2, 48, 0
2, 1173840, Note_on_c, 2, 48, 50
2, 1173960, Note_off_c, 2, 48, 0
2, 1174080, Note_on_c, 2, 50, 50
2, 1174200, Note_off_c, 2, 50, 0
2, 1174320, Note_on_c, 2, 48, 50
2, 1174440, Note_off_c, 2, 48, 0
2, 1174800, Note_on_c, 2, 41, 50
2, 1174920, Note_off_c, 2, 41, 0
2, 1175040, Note_on_c, 2, 43, 50
2, 1175160, Note_off_c, 2, 43, 0
2, 1175280, Note_on_c, 2, 41, 50
2, 1175400, Note_off_c, 2, 41, 0
2, 1175520, Note_on_c, 2, 41, 50
2, 1175640, Note_off_c, 2, 41, 0
2, 1175760, Note_on_c, 2, 41, 50
2, 1175880, Note_off_c, 2, 41, 0
2, 1176000, Note_on_c, 2, 43, 50
2, 1176120, Note_off_c, 2, 43, 0
2, 1176240, Note_on_c, 2, 41, 50
2, 1176360, Note_off_c, 2, 41, 0
2, 1176480, Note_on_c, 2, 41, 50
2, 1176600, Note_off_c, 2, 41, 0
2, 1176720, Note_on_c, 2, 41, 50
2, 1176840, Note_off_c, 2, 41, 0
2, 1176960, Note_on_c, 2, 43, 50
2, 1177080, Note_off_c, 2, 43, 0
2, 1177200, Note_on_c, 2, 41, 50
2, 1177320, Note_off_c, 2, 41, 0
2, 1177440, Note_on_c, 2, 41, 50
2, 1177560, Note_off_c, 2, 41, 0
2, 1177680, Note_on_c, 2, 41, 50
2, 1177800, Note_off_c, 2, 41, 0
2, 1177920, Note_on_c, 2, 43, 50
2, 1178040, Note_off_c, 2, 43, 0
2, 1178160, Note_on_c, 2, 41, 50
2, 1178280, Note_off_c, 2, 41, 0
2, 1178400, Note_on_c, 2, 46, 50
2, 1178520, Note_off_c, 2, 46, 0
2, 1178640, Note_on_c, 2, 46, 50
2, 1178760, Note_off_c, 2, 46, 0
2, 1178880, Note_on_c, 2, 48, 50
2, 1179000, Note_off_c, 2, 48, 0
2, 1179120, Note_on_c, 2, 46, 50
2, 1179240, Note_off_c, 2, 46, 0
2, 1179360, Note_on_c, 2, 46, 50
2, 1179480, Note_off_c, 2, 46, 0
2, 1179600, Note_on_c, 2, 46, 50
2, 1179720, Note_off_c, 2, 46, 0
2, 1179840, Note_on_c, 2, 48, 50
2, 1179960, Note_off_c, 2, 48, 0
2, 1180080, Note_on_c, 2, 46, 50
2, 1180200, Note_off_c, 2, 46, 0
2, 1180320, Note_on_c, 2, 46, 50
2, 1180440, Note_off_c, 2, 46, 0
2, 1180560, Note_on_c, 2, 46, 50
2, 1180680, Note_off_c, 2, 46, 0
2, 1180800, Note_on_c, 2, 48, 50
2, 1180920, Note_off_c, 2, 48, 0
2, 1181040, Note_on_c, 2, 46, 50
2, 1181160, Note_off_c, 2, 46, 0
2, 1181280, Note_on_c, 2, 46, 50
2, 1181400, Note_off_c, 2, 46, 0
2, 1181520, Note_on_c, 2, 46, 50
2, 1181640, Note_off_c, 2, 46, 0
2, 1181760, Note_on_c, 2, 48, 50
2, 1181880, Note_off_c, 2, 48, 0
2, 1182000, Note_on_c, 2, 46, 50
2, 1182120, Note_off_c, 2, 46, 0
2, 1182240, Note_on_c, 2, 48, 50
2, 1182360, Note_off_c, 2, 48, 0
2, 1182480, Note_on_c, 2, 48, 50
2, 1182600, Note_off_c, 2, 48, 0
2, 1182720, Note_on_c, 2, 50, 50
2, 1182840, Note_off_c, 2, 50, 0
2, 1182960, Note_on_c, 2, 48, 50
2, 1183080, Note_off_c, 2, 48, 0
2, 1183200, Note_on_c, 2, 48, 50
2, 1183320, Note_off_c, 2, 48, 0
2, 1183440, Note_on_c, 2, 48, 50
2, 1183560, Note_off_c, 2, 48, 0
2, 1183680, Note_on_c, 2, 50, 50
2, 1183800, Note_off_c, 2, 50, 0
2, 1183920, Note_on_c, 2, 48, 50
2, 1184040, Note_off_c, 2, 48, 0
2, 1184160, Note_on_c, 2, 48, 50
2, 1184280, Note_off_c, 2, 48, 0
2, 1184400, Note_on_c, 2, 48, 50
2, 1184520, Note_off_c, 2, 48, 0
2, 1184640, Note_on_c, 2, 50, 50
2, 1184760, Note_off_c, 2, 50, 0
2, 1184880, Note_on_c, 2, 48, 50
2, 1185000, Note_off_c, 2, 48, 0
2, 1185120, Note_on_c, 2, 48, 50
2, 1185240, Note_off_c, 2, 48, 0
2, 1185360, Note_on_c, 2, 48, 50
2, 1185480, Note_off_c, 2, 48, 0
2, 1185600, Note_on_c, 2, 50, 50
2, 1185720, Note_off_c, 2, 50, 0
2, 1185840, Note_on_c, 2, 48, 50
2, 1185960, Note_off_c, 2, 48, 0
2, 1186080, Note_on_c, 2, 46, 50
2, 1186200, Note_off_c, 2, 46, 0
2, 1186320, Note_on_c, 2, 46, 50
2, 1186440, Note_off_c, 2, 46, 0
2, 1186560, Note_on_c, 2, 48, 50
2, 1186680, Note_off_c, 2, 48, 0
2, 1186800, Note_on_c, 2, 46, 50
2, 1186920, Note_off_c, 2, 46, 0
2, 1187040, Note_on_c, 2, 46, 50
2, 1187160, Note_off_c, 2, 46, 0
2, 1187280, Note_on_c, 2, 46, 50
2, 1187400, Note_off_c, 2, 46, 0
2, 1187520, Note_on_c, 2, 48, 50
2, 1187640, Note_off_c, 2, 48, 0
2, 1187760, Note_on_c, 2, 46, 50
2, 1187880, Note_off_c, 2, 46, 0
2, 1188000, Note_on_c, 2, 48, 50
2, 1188120, Note_off_c, 2, 48, 0
2, 1188240, Note_on_c, 2, 48, 50
2, 1188360, Note_off_c, 2, 48, 0
2, 1188480, Note_on_c, 2, 50, 50
2, 1188600, Note_off_c, 2, 50, 0
2, 1188720, Note_on_c, 2, 48, 50
2, 1188840, Note_off_c, 2, 48, 0
2, 1188960, Note_on_c, 2, 48, 50
2, 1189080, Note_off_c, 2, 48, 0
2, 1189200, Note_on_c, 2, 48, 50
2, 1189320, Note_off_c, 2, 48, 0
2, 1189440, Note_on_c, 2, 50, 50
2, 1189560, Note_off_c, 2, 50, 0
2, 1189680, Note_on_c, 2, 48, 50
2, 1189800, Note_off_c, 2, 48, 0
2, 1190160, Note_on_c, 2, 41, 50
2, 1190280, Note_off_c, 2, 41, 0
2, 1190400, Note_on_c, 2, 43, 50
2, 1190520, Note_off_c, 2, 43, 0
2, 1190640, Note_on_c, 2, 41, 50
2, 1190760, Note_off_c, 2, 41, 0
2, 1190880, Note_on_c, 2, 41, 50
2, 1191000, Note_off_c, 2, 41, 0
2, 1191120, Note_on_c, 2, 41, 50
2, 1191240, Note_off_c, 2, 41, 0
2, 1191360, Note_on_c, 2, 43, 50
2, 1191480, Note_off_c, 2, 43, 0
2, 1191600, Note_on_c, 2, 41, 50
2, 1191720, Note_off_c, 2, 41, 0
2, 1191840, Note_on_c, 2, 41, 50
2, 1191960, Note_off_c, 2, 41, 0
2, 1192080, Note_on_c, 2, 41, 50
2, 1192200, Note_off_c, 2, 41, 0
2, 1192320, Note_on_c, 2, 43, 50
2, 1192440, Note_off_c, 2, 43, 0
2, 1192560, Note_on_c, 2, 41, 50
2, 1192680, Note_off_c, 2, 41, 0
2, 1192800, Note_on_c, 2, 41, 50
2, 1192920, Note_off_c, 2, 41, 0
2, 1193040, Note_on_c, 2, 41, 50
2, 1193160, Note_off_c, 2, 41, 0
2, 1193280, Note_on_c, 2, 43, 50
2, 1193400, Note_off_c, 2, 43, 0
2, 1193520, Note_on_c, 2, 41, 50
2, 1193640, Note_off_c, 2, 41, 0
2, 1193760, Note_on_c, 2, 46, 50
2, 1193880, Note_off_c, 2, 46, 0
2, 1194000, Note_on_c, 2, 46, 50
2, 1194120, Note_off_c, 2, 46, 0
2, 1194240, Note_on_c, 2, 48, 50
2, 1194360, Note_off_c, 2, 48, 0
2, 1194480, Note_on_c, 2, 46, 50
2, 1194600, Note_off_c, 2, 46, 0
2, 1194720, Note_on_c, 2, 46, 50
2, 1194840, Note_off_c, 2, 46, 0
2, 1194960, Note_on_c, 2, 46, 50
2, 1195080, Note_off_c, 2, 46, 0
2, 1195200, Note_on_c, 2, 48, 50
2, 1195320, Note_off_c, 2, 48, 0
2, 1195440, Note_on_c, 2, 46, 50
2, 1195560, Note_off_c, 2, 46, 0
2, 1195680, Note_on_c, 2, 46, 50
2, 1195800, Note_off_c, 2, 46, 0
2, 1195920, Note_on_c, 2, 46, 50
2, 1196040, Note_off_c, 2, 46, 0
2, 1196160, Note_on_c, 2, 48, 50
2, 1196280, Note_off_c, 2, 48, 0
2, 1196400, Note_on_c, 2, 46, 50
2, 1196520, Note_off_c, 2, 46, 0
2, 1196640, Note_on_c, 2, 46, 50
2, 1196760, Note_off_c, 2, 46, 0
2, 1196880, Note_on_c, 2, 46, 50
2, 1197000, Note_off_c, 2, 46, 0
2, 1197120, Note_on_c, 2, 48, 50
2, 1197240, Note_off_c, 2, 48, 0
2, 1197360, Note_on_c, 2, 46, 50
2, 1197480, Note_off_c, 2, 46, 0
2, 1197600, Note_on_c, 2, 48, 50
2, 1197720, Note_off_c, 2, 48, 0
2, 1197840, Note_on_c, 2, 48, 50
2, 1197960, Note_off_c, 2, 48, 0
2, 1198080, Note_on_c, 2, 50, 50
2, 1198200, Note_off_c, 2, 50, 0
2, 1198320, Note_on_c, 2, 48, 50
2, 1198440, Note_off_c, 2, 48, 0
2, 1198560, Note_on_c, 2, 48, 50
2, 1198680, Note_off_c, 2, 48, 0
2, 1198800, Note_on_c, 2, 48, 50
2, 1198920, Note_off_c, 2, 48, 0
2, 1199040, Note_on_c, 2, 50, 50
2, 1199160, Note_off_c, 2, 50, 0
2, 1199280, Note_on_c, 2, 48, 50
2, 1199400, Note_off_c, 2, 48, 0
2, 1199520, Note_on_c, 2, 48, 50
2, 1199640, Note_off_c, 2, 48, 0
2, 1199760, Note_on_c, 2, 48, 50
2, 1199880, Note_off_c, 2, 48, 0
2, 1200000, Note_on_c, 2, 50, 50
2, 1200120, Note_off_c, 2, 50, 0
2, 1200240, Note_on_c, 2, 48, 50
2, 1200360, Note_off_c, 2, 48, 0
2, 1200480, Note_on_c, 2, 48, 50
2, 1200600, Note_off_c, 2, 48, 0
2, 1200720, Note_on_c, 2, 48, 50
2, 1200840, Note_off_c, 2, 48, 0
2, 1200960, Note_on_c, 2, 50, 50
2, 1201080, Note_off_c, 2, 50, 0
2, 1201200, Note_on_c, 2, 48, 50
2, 1201320, Note_off_c, 2, 48, 0
2, 1201440, Note_on_c, 2, 46, 50
2, 1201560, Note_off_c, 2, 46, 0
2, 1201680, Note_on_c, 2, 46, 50
2, 1201800, Note_off_c, 2, 46, 0
2, 1201920, Note_on_c, 2, 48, 50
2, 1202040, Note_off_c, 2, 48, 0
2, 1202160, Note_on_c, 2, 46, 50
2, 1202280, Note_off_c, 2, 46, 0
2, 1202400, Note_on_c, 2, 46, 50
2, 1202520, Note_off_c, 2, 46, 0
2, 1202640, Note_on_c, 2, 46, 50
2, 1202760, Note_off_c, 2, 46, 0
2, 1202880, Note_on_c, 2, 48, 50
2, 1203000, Note_off_c, 2, 48, 0
2, 1203120, Note_on_c, 2, 46, 50
2, 1203240, Note_off_c, 2, 46, 0
2, 1203360, Note_on_c, 2, 48, 50
2, 1203480, Note_off_c, 2, 48, 0
2, 1203600, Note_on_c, 2, 48, 50
2, 1203720, Note_off_c, 2, 48, 0
2, 1203840, Note_on_c, 2, 50, 50
2, 1203960, Note_off_c, 2, 50, 0
2, 1204080, Note_on_c, 2, 48, 50
2, 1204200, Note_off_c, 2, 48, 0
2, 1204320, Note_on_c, 2, 48, 50
2, 1204440, Note_off_c, 2, 48, 0
2, 1204560, Note_on_c, 2, 48, 50
2, 1204680, Note_off_c, 2, 48, 0
2, 1204800, Note_on_c, 2, 50, 50
2, 1204920, Note_off_c, 2, 50, 0
2, 1205040, Note_on_c, 2, 48, 50
2, 1205160, Note_off_c, 2, 48, 0
2, 1205520, Note_on_c, 2, 41, 50
2, 1205640, Note_off_c, 2, 41, 0
2, 1205760, Note_on_c, 2, 43, 50
2, 1205880, Note_off_c, 2, 43, 0
2, 1206000, Note_on_c, 2, 41, 50
2, 1206120, Note_off_c, 2, 41, 0
2, 1206240, Note_on_c, 2, 41, 50
2, 1206360, Note_off_c, 2, 41, 0
2, 1206480, Note_on_c, 2, 41, 50
2, 1206600, Note_off_c, 2, 41, 0
2, 1206720, Note_on_c, 2, 43, 50
2, 1206840, Note_off_c, 2, 43, 0
2, 1206960, Note_on_c, 2, 41, 50
2, 1207080, Note_off_c, 2, 41, 0
2, 1207200, Note_on_c, 2, 41, 50
2, 1207320, Note_off_c, 2, 41, 0
2, 1207440, Note_on_c, 2, 41, 50
2, 1207560, Note_off_c, 2, 41, 0
2, 1207680, Note_on_c, 2, 43, 50
2, 1207800, Note_off_c, 2, 43, 0
2, 1207920, Note_on_c, 2, 41, 50
2, 1208040, Note_off_c, 2, 41, 0
2, 1208160, Note_on_c, 2, 41, 50
2, 1208280, Note_off_c, 2, 41, 0
2, 1208400, Note_on_c, 2, 41, 50
2, 1208520, Note_off_c, 2, 41, 0
2, 1208640, Note_on_c, 2, 43, 50
2, 1208760, Note_off_c, 2, 43, 0
2, 1208880, Note_on_c, 2, 41, 50
2, 1209000, Note_off_c, 2, 41, 0
2, 1209120, Note_on_c, 2, 41, 50
2, 1209240, Note_off_c, 2, 41, 0
2, 1209360, Note_on_c, 2, 41, 50
2, 1209480, Note_off_c, 2, 41, 0
2, 1209600, Note_on_c, 2, 43, 50
2, 1209720, Note_off_c, 2, 43, 0
2, 1209840, Note_on_c, 2, 41, 50
2, 1209960, Note_off_c, 2, 41, 0
2, 1210080, Note_on_c, 2, 41, 50
2, 1210200, Note_off_c, 2, 41, 0
2, 1210320, Note_on_c, 2, 41, 50
2, 1210440, Note_off_c, 2, 41, 0
2, 1210560, Note_on_c, 2, 43, 50
2, 1210680, Note_off_c, 2, 43, 0
2, 1210800, Note_on_c, 2, 41, 50
2, 1210920, Note_off_c, 2, 41, 0
2, 1211040, Note_on_c, 2, 41, 50
2, 1211160, Note_off_c, 2, 41, 0
2, 1211280, Note_on_c, 2, 41, 50
2, 1211400, Note_off_c, 2, 41, 0
2, 1211520, Note_on_c, 2, 43, 50
2, 1211640, Note_off_c, 2, 43, 0
2, 1211760, Note_on_c, 2, 41, 50
2, 1211880, Note_off_c, 2, 41, 0
2, 1212000, Note_on_c, 2, 41, 50
2, 1212120, Note_off_c, 2, 41, 0
2, 1212240, Note_on_c, 2, 41, 50
2, 1212360, Note_off_c, 2, 41, 0
2, 1212480, Note_on_c, 2, 43, 50
2, 1212600, Note_off_c, 2, 43, 0
2, 1212720, Note_on_c, 2, 41, 50
2, 1212840, Note_off_c, 2, 41, 0
2, 1212960, Note_on_c, 2, 41, 50
2, 1213080, Note_off_c, 2, 41, 0
2, 1213200, Note_on_c, 2, 41, 50
2, 1213320, Note_off_c, 2, 41, 0
2, 1213440, Note_on_c, 2, 43, 50
2, 1213560, Note_off_c, 2, 43, 0
2, 1213680, Note_on_c, 2, 41, 50
2, 1213800, Note_off_c, 2, 41, 0
2, 1213920, Note_on_c, 2, 41, 50
2, 1214040, Note_off_c, 2, 41, 0
2, 1214160, Note_on_c, 2, 41, 50
2, 1214280, Note_off_c, 2, 41, 0
2, 1214400, Note_on_c, 2, 43, 50
2, 1214520, Note_off_c, 2, 43, 0
2, 1214640, Note_on_c, 2, 41, 50
2, 1214760, Note_off_c, 2, 41, 0
2, 1214880, Note_on_c, 2, 41, 50
2, 1215000, Note_off_c, 2, 41, 0
2, 1215120, Note_on_c, 2, 41, 50
2, 1215240, Note_off_c, 2, 41, 0
2, 1215360, Note_on_c, 2, 43, 50
2, 1215480, Note_off_c, 2, 43, 0
2, 1215600, Note_on_c, 2, 41, 50
2, 1215720, Note_off_c, 2, 41, 0
2, 1215840, Note_on_c, 2, 41, 50
2, 1215960, Note_off_c, 2, 41, 0
2, 1216080, Note_on_c, 2, 41, 50
2, 1216200, Note_off_c, 2, 41, 0
2, 1216320, Note_on_c, 2, 43, 50
2, 1216440, Note_off_c, 2, 43, 0
2, 1216560, Note_on_c, 2, 41, 50
2, 1216680, Note_off_c, 2, 41, 0
2, 1216800, Note_on_c, 2, 41, 50
2, 1216920, Note_off_c, 2, 41, 0
2, 1217040, Note_on_c, 2, 41, 50
2, 1217160, Note_off_c, 2, 41, 0
2, 1217280, Note_on_c, 2, 43, 50
2, 1217400, Note_off_c, 2, 43, 0
2, 1217520, Note_on_c, 2, 41, 50
2, 1217640, Note_off_c, 2, 41, 0
2, 1217760, Note_on_c, 2, 41, 50
2, 1217880, Note_off_c, 2, 41, 0
2, 1218000, Note_on_c, 2, 41, 50
2, 1218120, Note_off_c, 2, 41, 0
2, 1218240, Note_on_c, 2, 43, 50
2, 1218360, Note_off_c, 2, 43, 0
2, 1218480, Note_on_c, 2, 41, 50
2, 1218600, Note_off_c, 2, 41, 0
2, 1218720, Note_on_c, 2, 41, 50
2, 1218840, Note_off_c, 2, 41, 0
2, 1218960, Note_on_c, 2, 41, 50
2, 1219080, Note_off_c, 2, 41, 0
2, 1219200, Note_on_c, 2, 43, 50
2, 1219320, Note_off_c, 2, 43, 0
2, 1219440, Note_on_c, 2, 41, 50
2, 1219560, Note_off_c, 2, 41, 0
2, 1219680, Note_on_c, 2, 41, 50
2, 1219800, Note_off_c, 2, 41, 0
2, 1219920, Note_on_c, 2, 41, 50
2, 1220040, Note_off_c, 2, 41, 0
2, 1220160, Note_on_c, 2, 43, 50
2, 1220280, Note_off_c, 2, 43, 0
2, 1220400, Note_on_c, 2, 41, 50
2, 1220520, Note_off_c, 2, 41, 0
2, 1220640, Note_on_c, 2, 46, 50
2, 1220760, Note_off_c, 2, 46, 0
2, 1220880, Note_on_c, 2, 46, 50
2, 1221000, Note_off_c, 2, 46, 0
2, 1221120, Note_on_c, 2, 48, 50
2, 1221240, Note_off_c, 2, 48, 0
2, 1221360, Note_on_c, 2, 46, 50
2, 1221480, Note_off_c, 2, 46, 0
2, 1221600, Note_on_c, 2, 46, 50
2, 1221720, Note_off_c, 2, 46, 0
2, 1221840, Note_on_c, 2, 46, 50
2, 1221960, Note_off_c, 2, 46, 0
2, 1222080, Note_on_c, 2, 48, 50
2, 1222200, Note_off_c, 2, 48, 0
2, 1222320, Note_on_c, 2, 46, 50
2, 1222440, Note_off_c, 2, 46, 0
2, 1222560, Note_on_c, 2, 46, 50
2, 1222680, Note_off_c, 2, 46, 0
2, 1222800, Note_on_c, 2, 46, 50
2, 1222920, Note_off_c, 2, 46, 0
2, 1223040, Note_on_c, 2, 48, 50
2, 1223160, Note_off_c, 2, 48, 0
2, 1223280, Note_on_c, 2, 46, 50
2, 1223400, Note_off_c, 2, 46, 0
2, 1223520, Note_on_c, 2, 46, 50
2, 1223640, Note_off_c, 2, 46, 0
2, 1223760, Note_on_c, 2, 46, 50
2, 1223880, Note_off_c, 2, 46, 0
2, 1224000, Note_on_c, 2, 48, 50
2, 1224120, Note_off_c, 2, 48, 0
2, 1224240, Note_on_c, 2, 48, 50
2, 1224360, Note_off_c, 2, 48, 0
2, 1224480, Note_on_c, 2, 41, 50
2, 1224600, Note_off_c, 2, 41, 0
2, 1224720, Note_on_c, 2, 41, 50
2, 1224840, Note_off_c, 2, 41, 0
2, 1224960, Note_on_c, 2, 43, 50
2, 1225080, Note_off_c, 2, 43, 0
2, 1225200, Note_on_c, 2, 41, 50
2, 1225320, Note_off_c, 2, 41, 0
2, 1225440, Note_on_c, 2, 41, 50
2, 1225560, Note_off_c, 2, 41, 0
2, 1225680, Note_on_c, 2, 41, 50
2, 1225800, Note_off_c, 2, 41, 0
2, 1225920, Note_on_c, 2, 43, 50
2, 1226040, Note_off_c, 2, 43, 0
2, 1226160, Note_on_c, 2, 41, 50
2, 1226280, Note_off_c, 2, 41, 0
2, 1226400, Note_on_c, 2, 41, 50
2, 1226520, Note_off_c, 2, 41, 0
2, 1226640, Note_on_c, 2, 41, 50
2, 1226760, Note_off_c, 2, 41, 0
2, 1226880, Note_on_c, 2, 43, 50
2, 1227000, Note_off_c, 2, 43, 0
2, 1227120, Note_on_c, 2, 41, 50
2, 1227240, Note_off_c, 2, 41, 0
2, 1227360, Note_on_c, 2, 41, 50
2, 1227480, Note_off_c, 2, 41, 0
2, 1227600, Note_on_c, 2, 41, 50
2, 1227720, Note_off_c, 2, 41, 0
2, 1227840, Note_on_c, 2, 43, 50
2, 1227960, Note_off_c, 2, 43, 0
2, 1228080, Note_on_c, 2, 41, 50
2, 1228200, Note_off_c, 2, 41, 0
2, 1228320, Note_on_c, 2, 46, 50
2, 1228440, Note_off_c, 2, 46, 0
2, 1228560, Note_on_c, 2, 46, 50
2, 1228680, Note_off_c, 2, 46, 0
2, 1228800, Note_on_c, 2, 48, 50
2, 1228920, Note_off_c, 2, 48, 0
2, 1229040, Note_on_c, 2, 46, 50
2, 1229160, Note_off_c, 2, 46, 0
2, 1229280, Note_on_c, 2, 46, 50
2, 1229400, Note_off_c, 2, 46, 0
2, 1229520, Note_on_c, 2, 46, 50
2, 1229640, Note_off_c, 2, 46, 0
2, 1229760, Note_on_c, 2, 48, 50
2, 1229880, Note_off_c, 2, 48, 0
2, 1230000, Note_on_c, 2, 46, 50
2, 1230120, Note_off_c, 2, 46, 0
2, 1230240, Note_on_c, 2, 46, 50
2, 1230360, Note_off_c, 2, 46, 0
2, 1230480, Note_on_c, 2, 46, 50
2, 1230600, Note_off_c, 2, 46, 0
2, 1230720, Note_on_c, 2, 48, 50
2, 1230840, Note_off_c, 2, 48, 0
2, 1230960, Note_on_c, 2, 46, 50
2, 1231080, Note_off_c, 2, 46, 0
2, 1231200, Note_on_c, 2, 46, 50
2, 1231320, Note_off_c, 2, 46, 0
2, 1231440, Note_on_c, 2, 46, 50
2, 1231560, Note_off_c, 2, 46, 0
2, 1231680, Note_on_c, 2, 48, 50
2, 1231800, Note_off_c, 2, 48, 0
2, 1231920, Note_on_c, 2, 46, 50
2, 1232040, Note_off_c, 2, 46, 0
2, 1232160, Note_on_c, 2, 41, 50
2, 1233720, Note_off_c, 2, 41, 0
2, 1236000, Note_on_c, 2, 41, 50
2, 1236120, Note_off_c, 2, 41, 0
2, 1236240, Note_on_c, 2, 41, 50
2, 1236360, Note_off_c, 2, 41, 0
2, 1236480, Note_on_c, 2, 43, 50
2, 1236600, Note_off_c, 2, 43, 0
2, 1236720, Note_on_c, 2, 41, 50
2, 1236840, Note_off_c, 2, 41, 0
2, 1236960, Note_on_c, 2, 41, 50
2, 1237080, Note_off_c, 2, 41, 0
2, 1237200, Note_on_c, 2, 41, 50
2, 1237320, Note_off_c, 2, 41, 0
2, 1237440, Note_on_c, 2, 43, 50
2, 1237560, Note_off_c, 2, 43, 0
2, 1237680, Note_on_c, 2, 41, 50
2, 1237800, Note_off_c, 2, 41, 0
2, 1237920, Note_on_c, 2, 48, 50
2, 1238040, Note_off_c, 2, 48, 0
2, 1238160, Note_on_c, 2, 48, 50
2, 1238280, Note_off_c, 2, 48, 0
2, 1238400, Note_on_c, 2, 50, 50
2, 1238520, Note_off_c, 2, 50, 0
2, 1238640, Note_on_c, 2, 48, 50
2, 1238760, Note_off_c, 2, 48, 0
2, 1238880, Note_on_c, 2, 48, 50
2, 1239000, Note_off_c, 2, 48, 0
2, 1239120, Note_on_c, 2, 48, 50
2, 1239240, Note_off_c, 2, 48, 0
2, 1239360, Note_on_c, 2, 50, 50
2, 1239480, Note_off_c, 2, 50, 0
2, 1239600, Note_on_c, 2, 48, 50
2, 1239720, Note_off_c, 2, 48, 0
2, 1239840, Note_on_c, 2, 41, 50
2, 1239960, Note_off_c, 2, 41, 0
2, 1240080, Note_on_c, 2, 41, 50
2, 1240200, Note_off_c, 2, 41, 0
2, 1240320, Note_on_c, 2, 43, 50
2, 1240440, Note_off_c, 2, 43, 0
2, 1240560, Note_on_c, 2, 41, 50
2, 1240680, Note_off_c, 2, 41, 0
2, 1240800, Note_on_c, 2, 41, 50
2, 1240920, Note_off_c, 2, 41, 0
2, 1241040, Note_on_c, 2, 41, 50
2, 1241160, Note_off_c, 2, 41, 0
2, 1241280, Note_on_c, 2, 43, 50
2, 1241400, Note_off_c, 2, 43, 0
2, 1241520, Note_on_c, 2, 41, 50
2, 1241640, Note_off_c, 2, 41, 0
2, 1241760, Note_on_c, 2, 46, 50
2, 1241880, Note_off_c, 2, 46, 0
2, 1242000, Note_on_c, 2, 46, 50
2, 1242120, Note_off_c, 2, 46, 0
2, 1242240, Note_on_c, 2, 48, 50
2, 1242360, Note_off_c, 2, 48, 0
2, 1242480, Note_on_c, 2, 46, 50
2, 1242600, Note_off_c, 2, 46, 0
2, 1242720, Note_on_c, 2, 46, 50
2, 1242840, Note_off_c, 2, 46, 0
2, 1242960, Note_on_c, 2, 46, 50
2, 1243080, Note_off_c, 2, 46, 0
2, 1243200, Note_on_c, 2, 48, 50
2, 1243320, Note_off_c, 2, 48, 0
2, 1243440, Note_on_c, 2, 46, 50
2, 1243560, Note_off_c, 2, 46, 0
2, 1243680, Note_on_c, 2, 41, 50
2, 1243800, Note_off_c, 2, 41, 0
2, 1243920, Note_on_c, 2, 41, 50
2, 1244040, Note_off_c, 2, 41, 0
2, 1244160, Note_on_c, 2, 43, 50
2, 1244280, Note_off_c, 2, 43, 0
2, 1244400, Note_on_c, 2, 41, 50
2, 1244520, Note_off_c, 2, 41, 0
2, 1244640, Note_on_c, 2, 41, 50
2, 1244760, Note_off_c, 2, 41, 0
2, 1244880, Note_on_c, 2, 41, 50
2, 1245000, Note_off_c, 2, 41, 0
2, 1245120, Note_on_c, 2, 43, 50
2, 1245240, Note_off_c, 2, 43, 0
2, 1245360, Note_on_c, 2, 41, 50
2, 1245480, Note_off_c, 2, 41, 0
2, 1245600, Note_on_c, 2, 48, 50
2, 1245720, Note_off_c, 2, 48, 0
2, 1245840, Note_on_c, 2, 48, 50
2, 1245960, Note_off_c, 2, 48, 0
2, 1246080, Note_on_c, 2, 50, 50
2, 1246200, Note_off_c, 2, 50, 0
2, 1246320, Note_on_c, 2, 48, 50
2, 1246440, Note_off_c, 2, 48, 0
2, 1246560, Note_on_c, 2, 48, 50
2, 1246680, Note_off_c, 2, 48, 0
2, 1246800, Note_on_c, 2, 48, 50
2, 1246920, Note_off_c, 2, 48, 0
2, 1247040, Note_on_c, 2, 50, 50
2, 1247160, Note_off_c, 2, 50, 0
2, 1247280, Note_on_c, 2, 48, 50
2, 1247400, Note_off_c, 2, 48, 0
2, 1247520, Note_on_c, 2, 48, 50
2, 1247640, Note_off_c, 2, 48, 0
2, 1247760, Note_on_c, 2, 46, 50
2, 1247880, Note_off_c, 2, 46, 0
2, 1248000, Note_on_c, 2, 48, 50
2, 1248120, Note_off_c, 2, 48, 0
2, 1248240, Note_on_c, 2, 46, 50
2, 1248360, Note_off_c, 2, 46, 0
2, 1248480, Note_on_c, 2, 46, 50
2, 1248600, Note_off_c, 2, 46, 0
2, 1248720, Note_on_c, 2, 46, 50
2, 1248840, Note_off_c, 2, 46, 0
2, 1248960, Note_on_c, 2, 48, 50
2, 1249080, Note_off_c, 2, 48, 0
2, 1249200, Note_on_c, 2, 46, 50
2, 1249320, Note_off_c, 2, 46, 0
2, 1249440, Note_on_c, 2, 48, 50
2, 1249560, Note_off_c, 2, 48, 0
2, 1249680, Note_on_c, 2, 48, 50
2, 1249800, Note_off_c, 2, 48, 0
2, 1249920, Note_on_c, 2, 50, 50
2, 1250040, Note_off_c, 2, 50, 0
2, 1250160, Note_on_c, 2, 48, 50
2, 1250280, Note_off_c, 2, 48, 0
2, 1250400, Note_on_c, 2, 48, 50
2, 1250520, Note_off_c, 2, 48, 0
2, 1250640, Note_on_c, 2, 48, 50
2, 1250760, Note_off_c, 2, 48, 0
2, 1250880, Note_on_c, 2, 50, 50
2, 1251000, Note_off_c, 2, 50, 0
2, 1251120, Note_on_c, 2, 48, 50
2, 1251240, Note_off_c, 2, 48, 0
2, 1251600, Note_on_c, 2, 41, 50
2, 1251720, Note_off_c, 2, 41, 0
2, 1251840, Note_on_c, 2, 43, 50
2, 1251960, Note_off_c, 2, 43, 0
2, 1252080, Note_on_c, 2, 41, 50
2, 1252200, Note_off_c, 2, 41, 0
2, 1252320, Note_on_c, 2, 41, 50
2, 1252440, Note_off_c, 2, 41, 0
2, 1252560, Note_on_c, 2, 41, 50
2, 1252680, Note_off_c, 2, 41, 0
2, 1252800, Note_on_c, 2, 43, 50
2, 1252920, Note_off_c, 2, 43, 0
2, 1253040, Note_on_c, 2, 41, 50
2, 1253160, Note_off_c, 2, 41, 0
2, 1253280, Note_on_c, 2, 41, 50
2, 1253400, Note_off_c, 2, 41, 0
2, 1253520, Note_on_c, 2, 41, 50
2, 1253640, Note_off_c, 2, 41, 0
2, 1253760, Note_on_c, 2, 43, 50
2, 1253880, Note_off_c, 2, 43, 0
2, 1254000, Note_on_c, 2, 41, 50
2, 1254120, Note_off_c, 2, 41, 0
2, 1254240, Note_on_c, 2, 41, 50
2, 1254360, Note_off_c, 2, 41, 0
2, 1254480, Note_on_c, 2, 41, 50
2, 1254600, Note_off_c, 2, 41, 0
2, 1254720, Note_on_c, 2, 43, 50
2, 1254840, Note_off_c, 2, 43, 0
2, 1254960, Note_on_c, 2, 41, 50
2, 1255080, Note_off_c, 2, 41, 0
2, 1255200, Note_on_c, 2, 46, 50
2, 1255320, Note_off_c, 2, 46, 0
2, 1255440, Note_on_c, 2, 46, 50
2, 1255560, Note_off_c, 2, 46, 0
2, 1255680, Note_on_c, 2, 48, 50
2, 1255800, Note_off_c, 2, 48, 0
2, 1255920, Note_on_c, 2, 46, 50
2, 1256040, Note_off_c, 2, 46, 0
2, 1256160, Note_on_c, 2, 46, 50
2, 1256280, Note_off_c, 2, 46, 0
2, 1256400, Note_on_c, 2, 46, 50
2, 1256520, Note_off_c, 2, 46, 0
2, 1256640, Note_on_c, 2, 48, 50
2, 1256760, Note_off_c, 2, 48, 0
2, 1256880, Note_on_c, 2, 46, 50
2, 1257000, Note_off_c, 2, 46, 0
2, 1257120, Note_on_c, 2, 46, 50
2, 1257240, Note_off_c, 2, 46, 0
2, 1257360, Note_on_c, 2, 46, 50
2, 1257480, Note_off_c, 2, 46, 0
2, 1257600, Note_on_c, 2, 48, 50
2, 1257720, Note_off_c, 2, 48, 0
2, 1257840, Note_on_c, 2, 46, 50
2, 1257960, Note_off_c, 2, 46, 0
2, 1258080, Note_on_c, 2, 46, 50
2, 1258200, Note_off_c, 2, 46, 0
2, 1258320, Note_on_c, 2, 46, 50
2, 1258440, Note_off_c, 2, 46, 0
2, 1258560, Note_on_c, 2, 48, 50
2, 1258680, Note_off_c, 2, 48, 0
2, 1258800, Note_on_c, 2, 46, 50
2, 1258920, Note_off_c, 2, 46, 0
2, 1259040, Note_on_c, 2, 48, 50
2, 1259160, Note_off_c, 2, 48, 0
2, 1259280, Note_on_c, 2, 48, 50
2, 1259400, Note_off_c, 2, 48, 0
2, 1259520, Note_on_c, 2, 50, 50
2, 1259640, Note_off_c, 2, 50, 0
2, 1259760, Note_on_c, 2, 48, 50
2, 1259880, Note_off_c, 2, 48, 0
2, 1260000, Note_on_c, 2, 48, 50
2, 1260120, Note_off_c, 2, 48, 0
2, 1260240, Note_on_c, 2, 48, 50
2, 1260360, Note_off_c, 2, 48, 0
2, 1260480, Note_on_c, 2, 50, 50
2, 1260600, Note_off_c, 2, 50, 0
2, 1260720, Note_on_c, 2, 48, 50
2, 1260840, Note_off_c, 2, 48, 0
2, 1260960, Note_on_c, 2, 48, 50
2, 1261080, Note_off_c, 2, 48, 0
2, 1261200, Note_on_c, 2, 48, 50
2, 1261320, Note_off_c, 2, 48, 0
2, 1261440, Note_on_c, 2, 50, 50
2, 1261560, Note_off_c, 2, 50, 0
2, 1261680, Note_on_c, 2, 48, 50
2, 1261800, Note_off_c, 2, 48, 0
2, 1261920, Note_on_c, 2, 48, 50
2, 1262040, Note_off_c, 2, 48, 0
2, 1262160, Note_on_c, 2, 48, 50
2, 1262280, Note_off_c, 2, 48, 0
2, 1262400, Note_on_c, 2, 50, 50
2, 1262520, Note_off_c, 2, 50, 0
2, 1262640, Note_on_c, 2, 48, 50
2, 1262760, Note_off_c, 2, 48, 0
2, 1262880, Note_on_c, 2, 46, 50
2, 1263000, Note_off_c, 2, 46, 0
2, 1263120, Note_on_c, 2, 46, 50
2, 1263240, Note_off_c, 2, 46, 0
2, 1263360, Note_on_c, 2, 48, 50
2, 1263480, Note_off_c, 2, 48, 0
2, 1263600, Note_on_c, 2, 46, 50
2, 1263720, Note_off_c, 2, 46, 0
2, 1263840, Note_on_c, 2, 46, 50
2, 1263960, Note_off_c, 2, 46, 0
2, 1264080, Note_on_c, 2, 46, 50
2, 1264200, Note_off_c, 2, 46, 0
2, 1264320, Note_on_c, 2, 48, 50
2, 1264440, Note_off_c, 2, 48, 0
2, 1264560, Note_on_c, 2, 46, 50
2, 1264680, Note_off_c, 2, 46, 0
2, 1264800, Note_on_c, 2, 48, 50
2, 1264920, Note_off_c, 2, 48, 0
2, 1265040, Note_on_c, 2, 48, 50
2, 1265160, Note_off_c, 2, 48, 0
2, 1265280, Note_on_c, 2, 50, 50
2, 1265400, Note_off_c, 2, 50, 0
2, 1265520, Note_on_c, 2, 48, 50
2, 1265640, Note_off_c, 2, 48, 0
2, 1265760, Note_on_c, 2, 48, 50
2, 1265880, Note_off_c, 2, 48, 0
2, 1266000, Note_on_c, 2, 48, 50
2, 1266120, Note_off_c, 2, 48, 0
2, 1266240, Note_on_c, 2, 50, 50
2, 1266360, Note_off_c, 2, 50, 0
2, 1266480, Note_on_c, 2, 48, 50
2, 1266600, Note_off_c, 2, 48, 0
2, 1266960, Note_on_c, 2, 41, 50
2, 1267080, Note_off_c, 2, 41, 0
2, 1267200, Note_on_c, 2, 43, 50
2, 1267320, Note_off_c, 2, 43, 0
2, 1267440, Note_on_c, 2, 41, 50
2, 1267560, Note_off_c, 2, 41, 0
2, 1267680, Note_on_c, 2, 41, 50
2, 1267800, Note_off_c, 2, 41, 0
2, 1267920, Note_on_c, 2, 41, 50
2, 1268040, Note_off_c, 2, 41, 0
2, 1268160, Note_on_c, 2, 43, 50
2, 1268280, Note_off_c, 2, 43, 0
2, 1268400, Note_on_c, 2, 41, 50
2, 1268520, Note_off_c, 2, 41, 0
2, 1268640, Note_on_c, 2, 41, 50
2, 1268760, Note_off_c, 2, 41, 0
2, 1268880, Note_on_c, 2, 41, 50
2, 1269000, Note_off_c, 2, 41, 0
2, 1269120, Note_on_c, 2, 43, 50
2, 1269240, Note_off_c, 2, 43, 0
2, 1269360, Note_on_c, 2, 41, 50
2, 1269480, Note_off_c, 2, 41, 0
2, 1269600, Note_on_c, 2, 41, 50
2, 1269720, Note_off_c, 2, 41, 0
2, 1269840, Note_on_c, 2, 41, 50
2, 1269960, Note_off_c, 2, 41, 0
2, 1270080, Note_on_c, 2, 43, 50
2, 1270200, Note_off_c, 2, 43, 0
2, 1270320, Note_on_c, 2, 41, 50
2, 1270440, Note_off_c, 2, 41, 0
2, 1270560, Note_on_c, 2, 46, 50
2, 1270680, Note_off_c, 2, 46, 0
2, 1270800, Note_on_c, 2, 46, 50
2, 1270920, Note_off_c, 2, 46, 0
2, 1271040, Note_on_c, 2, 48, 50
2, 1271160, Note_off_c, 2, 48, 0
2, 1271280, Note_on_c, 2, 46, 50
2, 1271400, Note_off_c, 2, 46, 0
2, 1271520, Note_on_c, 2, 46, 50
2, 1271640, Note_off_c, 2, 46, 0
2, 1271760, Note_on_c, 2, 46, 50
2, 1271880, Note_off_c, 2, 46, 0
2, 1272000, Note_on_c, 2, 48, 50
2, 1272120, Note_off_c, 2, 48, 0
2, 1272240, Note_on_c, 2, 46, 50
2, 1272360, Note_off_c, 2, 46, 0
2, 1272480, Note_on_c, 2, 46, 50
2, 1272600, Note_off_c, 2, 46, 0
2, 1272720, Note_on_c, 2, 46, 50
2, 1272840, Note_off_c, 2, 46, 0
2, 1272960, Note_on_c, 2, 48, 50
2, 1273080, Note_off_c, 2, 48, 0
2, 1273200, Note_on_c, 2, 46, 50
2, 1273320, Note_off_c, 2, 46, 0
2, 1273440, Note_on_c, 2, 46, 50
2, 1273560, Note_off_c, 2, 46, 0
2, 1273680, Note_on_c, 2, 46, 50
2, 1273800, Note_off_c, 2, 46, 0
2, 1273920, Note_on_c, 2, 48, 50
2, 1274040, Note_off_c, 2, 48, 0
2, 1274160, Note_on_c, 2, 46, 50
2, 1274280, Note_off_c, 2, 46, 0
2, 1274400, Note_on_c, 2, 48, 50
2, 1274520, Note_off_c, 2, 48, 0
2, 1274640, Note_on_c, 2, 48, 50
2, 1274760, Note_off_c, 2, 48, 0
2, 1274880, Note_on_c, 2, 50, 50
2, 1275000, Note_off_c, 2, 50, 0
2, 1275120, Note_on_c, 2, 48, 50
2, 1275240, Note_off_c, 2, 48, 0
2, 1275360, Note_on_c, 2, 48, 50
2, 1275480, Note_off_c, 2, 48, 0
2, 1275600, Note_on_c, 2, 48, 50
2, 1275720, Note_off_c, 2, 48, 0
2, 1275840, Note_on_c, 2, 50, 50
2, 1275960, Note_off_c, 2, 50, 0
2, 1276080, Note_on_c, 2, 48, 50
2, 1276200, Note_off_c, 2, 48, 0
2, 1276320, Note_on_c, 2, 48, 50
2, 1276440, Note_off_c, 2, 48, 0
2, 1276560, Note_on_c, 2, 48, 50
2, 1276680, Note_off_c, 2, 48, 0
2, 1276800, Note_on_c, 2, 50, 50
2, 1276920, Note_off_c, 2, 50, 0
2, 1277040, Note_on_c, 2, 48, 50
2, 1277160, Note_off_c, 2, 48, 0
2, 1277280, Note_on_c, 2, 48, 50
2, 1277400, Note_off_c, 2, 48, 0
2, 1277520, Note_on_c, 2, 48, 50
2, 1277640, Note_off_c, 2, 48, 0
2, 1277760, Note_on_c, 2, 50, 50
2, 1277880, Note_off_c, 2, 50, 0
2, 1278000, Note_on_c, 2, 48, 50
2, 1278120, Note_off_c, 2, 48, 0
2, 1278240, Note_on_c, 2, 46, 50
2, 1278360, Note_off_c, 2, 46, 0
2, 1278480, Note_on_c, 2, 46, 50
2, 1278600, Note_off_c, 2, 46, 0
2, 1278720, Note_on_c, 2, 48, 50
2, 1278840, Note_off_c, 2, 48, 0
2, 1278960, Note_on_c, 2, 46, 50
2, 1279080, Note_off_c, 2, 46, 0
2, 1279200, Note_on_c, 2, 46, 50
2, 1279320, Note_off_c, 2, 46, 0
2, 1279440, Note_on_c, 2, 46, 50
2, 1279560, Note_off_c, 2, 46, 0
2, 1279680, Note_on_c, 2, 48, 50
2, 1279800, Note_off_c, 2, 48, 0
2, 1279920, Note_on_c, 2, 46, 50
2, 1280040, Note_off_c, 2, 46, 0
2, 1280160, Note_on_c, 2, 48, 50
2, 1280280, Note_off_c, 2, 48, 0
2, 1280400, Note_on_c, 2, 48, 50
2, 1280520, Note_off_c, 2, 48, 0
2, 1280640, Note_on_c, 2, 50, 50
2, 1280760, Note_off_c, 2, 50, 0
2, 1280880, Note_on_c, 2, 48, 50
2, 1281000, Note_off_c, 2, 48, 0
2, 1281120, Note_on_c, 2, 48, 50
2, 1281240, Note_off_c, 2, 48, 0
2, 1281360, Note_on_c, 2, 48, 50
2, 1281480, Note_off_c, 2, 48, 0
2, 1281600, Note_on_c, 2, 50, 50
2, 1281720, Note_off_c, 2, 50, 0
2, 1281840, Note_on_c, 2, 48, 50
2, 1281960, Note_off_c, 2, 48, 0
2, 1282320, Note_on_c, 2, 41, 50
2, 1282440, Note_off_c, 2, 41, 0
2, 1282560, Note_on_c, 2, 43, 50
2, 1282680, Note_off_c, 2, 43, 0
2, 1282800, Note_on_c, 2, 41, 50
2, 1282920, Note_off_c, 2, 41, 0
2, 1283040, Note_on_c, 2, 41, 50
2, 1283160, Note_off_c, 2, 41, 0
2, 1283280, Note_on_c, 2, 41, 50
2, 1283400, Note_off_c, 2, 41, 0
2, 1283520, Note_on_c, 2, 43, 50
2, 1283640, Note_off_c, 2, 43, 0
2, 1283760, Note_on_c, 2, 41, 50
2, 1283880, Note_off_c, 2, 41, 0
2, 1284000, Note_on_c, 2, 41, 50
2, 1284120, Note_off_c, 2, 41, 0
2, 1284240, Note_on_c, 2, 41, 50
2, 1284360, Note_off_c, 2, 41, 0
2, 1284480, Note_on_c, 2, 43, 50
2, 1284600, Note_off_c, 2, 43, 0
2, 1284720, Note_on_c, 2, 41, 50
2, 1284840, Note_off_c, 2, 41, 0
2, 1284960, Note_on_c, 2, 41, 50
2, 1285080, Note_off_c, 2, 41, 0
2, 1285200, Note_on_c, 2, 41, 50
2, 1285320, Note_off_c, 2, 41, 0
2, 1285440, Note_on_c, 2, 43, 50
2, 1285560, Note_off_c, 2, 43, 0
2, 1285680, Note_on_c, 2, 41, 50
2, 1285800, Note_off_c, 2, 41, 0
2, 1285920, Note_on_c, 2, 46, 50
2, 1286040, Note_off_c, 2, 46, 0
2, 1286160, Note_on_c, 2, 46, 50
2, 1286280, Note_off_c, 2, 46, 0
2, 1286400, Note_on_c, 2, 48, 50
2, 1286520, Note_off_c, 2, 48, 0
2, 1286640, Note_on_c, 2, 46, 50
2, 1286760, Note_off_c, 2, 46, 0
2, 1286880, Note_on_c, 2, 46, 50
2, 1287000, Note_off_c, 2, 46, 0
2, 1287120, Note_on_c, 2, 46, 50
2, 1287240, Note_off_c, 2, 46, 0
2, 1287360, Note_on_c, 2, 48, 50
2, 1287480, Note_off_c, 2, 48, 0
2, 1287600, Note_on_c, 2, 46, 50
2, 1287720, Note_off_c, 2, 46, 0
2, 1287840, Note_on_c, 2, 46, 50
2, 1287960, Note_off_c, 2, 46, 0
2, 1288080, Note_on_c, 2, 46, 50
2, 1288200, Note_off_c, 2, 46, 0
2, 1288320, Note_on_c, 2, 48, 50
2, 1288440, Note_off_c, 2, 48, 0
2, 1288560, Note_on_c, 2, 46, 50
2, 1288680, Note_off_c, 2, 46, 0
2, 1288800, Note_on_c, 2, 46, 50
2, 1288920, Note_off_c, 2, 46, 0
2, 1289040, Note_on_c, 2, 46, 50
2, 1289160, Note_off_c, 2, 46, 0
2, 1289280, Note_on_c, 2, 48, 50
2, 1289400, Note_off_c, 2, 48, 0
2, 1289520, Note_on_c, 2, 46, 50
2, 1289640, Note_off_c, 2, 46, 0
2, 1289760, Note_on_c, 2, 48, 50
2, 1289880, Note_off_c, 2, 48, 0
2, 1290000, Note_on_c, 2, 48, 50
2, 1290120, Note_off_c, 2, 48, 0
2, 1290240, Note_on_c, 2, 50, 50
2, 1290360, Note_off_c, 2, 50, 0
2, 1290480, Note_on_c, 2, 48, 50
2, 1290600, Note_off_c, 2, 48, 0
2, 1290720, Note_on_c, 2, 48, 50
2, 1290840, Note_off_c, 2, 48, 0
2, 1290960, Note_on_c, 2, 48, 50
2, 1291080, Note_off_c, 2, 48, 0
2, 1291200, Note_on_c, 2, 50, 50
2, 1291320, Note_off_c, 2, 50, 0
2, 1291440, Note_on_c, 2, 48, 50
2, 1291560, Note_off_c, 2, 48, 0
2, 1291680, Note_on_c, 2, 48, 50
2, 1291800, Note_off_c, 2, 48, 0
2, 1291920, Note_on_c, 2, 48, 50
2, 1292040, Note_off_c, 2, 48, 0
2, 1292160, Note_on_c, 2, 50, 50
2, 1292280, Note_off_c, 2, 50, 0
2, 1292400, Note_on_c, 2, 48, 50
2, 1292520, Note_off_c, 2, 48, 0
2, 1292640, Note_on_c, 2, 48, 50
2, 1292760, Note_off_c, 2, 48, 0
2, 1292880, Note_on_c, 2, 48, 50
2, 1293000, Note_off_c, 2, 48, 0
2, 1293120, Note_on_c, 2, 50, 50
2, 1293240, Note_off_c, 2, 50, 0
2, 1293360, Note_on_c, 2, 48, 50
2, 1293480, Note_off_c, 2, 48, 0
2, 1293600, Note_on_c, 2, 46, 50
2, 1293720, Note_off_c, 2, 46, 0
2, 1293840, Note_on_c, 2, 46, 50
2, 1293960, Note_off_c, 2, 46, 0
2, 1294080, Note_on_c, 2, 48, 50
2, 1294200, Note_off_c, 2, 48, 0
2, 1294320, Note_on_c, 2, 46, 50
2, 1294440, Note_off_c, 2, 46, 0
2, 1294560, Note_on_c, 2, 46, 50
2, 1294680, Note_off_c, 2, 46, 0
2, 1294800, Note_on_c, 2, 46, 50
2, 1294920, Note_off_c, 2, 46, 0
2, 1295040, Note_on_c, 2, 48, 50
2, 1295160, Note_off_c, 2, 48, 0
2, 1295280, Note_on_c, 2, 46, 50
2, 1295400, Note_off_c, 2, 46, 0
2, 1295520, Note_on_c, 2, 48, 50
2, 1295640, Note_off_c, 2, 48, 0
2, 1295760, Note_on_c, 2, 48, 50
2, 1295880, Note_off_c, 2, 48, 0
2, 1296000, Note_on_c, 2, 50, 50
2, 1296120, Note_off_c, 2, 50, 0
2, 1296240, Note_on_c, 2, 48, 50
2, 1296360, Note_off_c, 2, 48, 0
2, 1296480, Note_on_c, 2, 48, 50
2, 1296600, Note_off_c, 2, 48, 0
2, 1296720, Note_on_c, 2, 48, 50
2, 1296840, Note_off_c, 2, 48, 0
2, 1296960, Note_on_c, 2, 50, 50
2, 1297080, Note_off_c, 2, 50, 0
2, 1297200, Note_on_c, 2, 48, 50
2, 1297320, Note_off_c, 2, 48, 0
2, 1297680, Note_on_c, 2, 41, 50
2, 1297800, Note_off_c, 2, 41, 0
2, 1297920, Note_on_c, 2, 43, 50
2, 1298040, Note_off_c, 2, 43, 0
2, 1298160, Note_on_c, 2, 41, 50
2, 1298280, Note_off_c, 2, 41, 0
2, 1298400, Note_on_c, 2, 41, 50
2, 1298520, Note_off_c, 2, 41, 0
2, 1298640, Note_on_c, 2, 41, 50
2, 1298760, Note_off_c, 2, 41, 0
2, 1298880, Note_on_c, 2, 43, 50
2, 1299000, Note_off_c, 2, 43, 0
2, 1299120, Note_on_c, 2, 41, 50
2, 1299240, Note_off_c, 2, 41, 0
2, 1299360, Note_on_c, 2, 41, 50
2, 1299480, Note_off_c, 2, 41, 0
2, 1299600, Note_on_c, 2, 41, 50
2, 1299720, Note_off_c, 2, 41, 0
2, 1299840, Note_on_c, 2, 43, 50
2, 1299960, Note_off_c, 2, 43, 0
2, 1300080, Note_on_c, 2, 41, 50
2, 1300200, Note_off_c, 2, 41, 0
2, 1300320, Note_on_c, 2, 41, 50
2, 1300440, Note_off_c, 2, 41, 0
2, 1300560, Note_on_c, 2, 41, 50
2, 1300680, Note_off_c, 2, 41, 0
2, 1300800, Note_on_c, 2, 43, 50
2, 1300920, Note_off_c, 2, 43, 0
2, 1301040, Note_on_c, 2, 41, 50
2, 1301160, Note_off_c, 2, 41, 0
2, 1301280, Note_on_c, 2, 46, 50
2, 1301400, Note_off_c, 2, 46, 0
2, 1301520, Note_on_c, 2, 46, 50
2, 1301640, Note_off_c, 2, 46, 0
2, 1301760, Note_on_c, 2, 48, 50
2, 1301880, Note_off_c, 2, 48, 0
2, 1302000, Note_on_c, 2, 46, 50
2, 1302120, Note_off_c, 2, 46, 0
2, 1302240, Note_on_c, 2, 48, 50
2, 1302360, Note_off_c, 2, 48, 0
2, 1302480, Note_on_c, 2, 48, 50
2, 1302600, Note_off_c, 2, 48, 0
2, 1302720, Note_on_c, 2, 50, 50
2, 1302840, Note_off_c, 2, 50, 0
2, 1302960, Note_on_c, 2, 48, 50
2, 1303080, Note_off_c, 2, 48, 0
2, 1303200, Note_on_c, 2, 48, 50
2, 1303320, Note_off_c, 2, 48, 0
2, 1303440, Note_on_c, 2, 48, 50
2, 1303680, Note_off_c, 2, 48, 0
2, 1311120, Note_on_c, 2, 52, 50
2, 1311360, Note_off_c, 2, 52, 0
2, 1311600, Note_on_c, 2, 47, 50
2, 1311840, Note_off_c, 2, 47, 0
2, 1311960, Note_on_c, 2, 47, 50
2, 1312200, Note_off_c, 2, 47, 0
2, 1312200, Note_on_c, 2, 50, 50
2, 1312320, Note_off_c, 2, 50, 0
2, 1312680, Note_on_c, 2, 64, 50
2, 1312800, Note_off_c, 2, 64, 0
2, 1313760, Note_on_c, 2, 52, 50
2, 1314000, Note_off_c, 2, 52, 0
2, 1314240, Note_on_c, 2, 50, 50
2, 1314360, Note_off_c, 2, 50, 0
2, 1314960, Note_on_c, 2, 52, 50
2, 1315200, Note_off_c, 2, 52, 0
2, 1315440, Note_on_c, 2, 47, 50
2, 1315680, Note_off_c, 2, 47, 0
2, 1315800, Note_on_c, 2, 47, 50
2, 1316040, Note_off_c, 2, 47, 0
2, 1316040, Note_on_c, 2, 50, 50
2, 1316160, Note_off_c, 2, 50, 0
2, 1316520, Note_on_c, 2, 64, 50
2, 1316640, Note_off_c, 2, 64, 0
2, 1317600, Note_on_c, 2, 52, 50
2, 1317720, Note_off_c, 2, 52, 0
2, 1318080, Note_on_c, 2, 50, 50
2, 1318200, Note_off_c, 2, 50, 0
2, 1318920, Note_on_c, 2, 52, 50
2, 1319040, Note_off_c, 2, 52, 0
2, 1319400, Note_on_c, 2, 47, 50
2, 1319520, Note_off_c, 2, 47, 0
2, 1319760, Note_on_c, 2, 47, 50
2, 1320000, Note_off_c, 2, 47, 0
2, 1320000, Note_on_c, 2, 50, 50
2, 1320120, Note_off_c, 2, 50, 0
2, 1320360, Note_on_c, 2, 64, 50
2, 1320600, Note_off_c, 2, 64, 0
2, 1321440, Note_on_c, 2, 52, 50
2, 1321560, Note_off_c, 2, 52, 0
2, 1321920, Note_on_c, 2, 50, 50
2, 1322040, Note_off_c, 2, 50, 0
2, 1322760, Note_on_c, 2, 52, 50
2, 1322880, Note_off_c, 2, 52, 0
2, 1323120, Note_on_c, 2, 47, 50
2, 1323240, Note_off_c, 2, 47, 0
2, 1323600, Note_on_c, 2, 47, 50
2, 1323840, Note_off_c, 2, 47, 0
2, 1323840, Note_on_c, 2, 50, 50
2, 1323960, Note_off_c, 2, 50, 0
2, 1324200, Note_on_c, 2, 64, 50
2, 1324320, Note_off_c, 2, 64, 0
2, 1324800, Note_on_c, 2, 50, 50
2, 1324920, Note_off_c, 2, 50, 0
2, 1325640, Note_on_c, 2, 50, 50
2, 1326120, Note_off_c, 2, 50, 0
2, 1326840, Note_on_c, 2, 50, 50
2, 1327080, Note_off_c, 2, 50, 0
2, 1327560, Note_on_c, 2, 50, 50
2, 1328040, Note_off_c, 2, 50, 0
2, 1340640, Note_on_c, 2, 52, 50
2, 1340760, Note_off_c, 2, 52, 0
2, 1341120, Note_on_c, 2, 50, 50
2, 1341240, Note_off_c, 2, 50, 0
2, 1341960, Note_on_c, 2, 52, 50
2, 1342080, Note_off_c, 2, 52, 0
2, 1342320, Note_on_c, 2, 47, 50
2, 1342560, Note_off_c, 2, 47, 0
2, 1342800, Note_on_c, 2, 47, 50
2, 1343040, Note_off_c, 2, 47, 0
2, 1343040, Note_on_c, 2, 50, 50
2, 1343160, Note_off_c, 2, 50, 0
2, 1343520, Note_on_c, 2, 64, 50
2, 1343640, Note_off_c, 2, 64, 0
2, 1344480, Note_on_c, 2, 52, 50
2, 1344600, Note_off_c, 2, 52, 0
2, 1344960, Note_on_c, 2, 50, 50
2, 1345080, Note_off_c, 2, 50, 0
2, 1345800, Note_on_c, 2, 52, 50
2, 1345920, Note_off_c, 2, 52, 0
2, 1346160, Note_on_c, 2, 47, 50
2, 1346400, Note_off_c, 2, 47, 0
2, 1346640, Note_on_c, 2, 47, 50
2, 1346880, Note_off_c, 2, 47, 0
2, 1346880, Note_on_c, 2, 50, 50
2, 1347000, Note_off_c, 2, 50, 0
2, 1347360, Note_on_c, 2, 64, 50
2, 1347480, Note_off_c, 2, 64, 0
2, 1348320, Note_on_c, 2, 52, 50
2, 1348440, Note_off_c, 2, 52, 0
2, 1348800, Note_on_c, 2, 50, 50
2, 1348920, Note_off_c, 2, 50, 0
2, 1349640, Note_on_c, 2, 52, 50
2, 1349760, Note_off_c, 2, 52, 0
2, 1350120, Note_on_c, 2, 47, 50
2, 1350240, Note_off_c, 2, 47, 0
2, 1350480, Note_on_c, 2, 47, 50
2, 1350720, Note_off_c, 2, 47, 0
2, 1350720, Note_on_c, 2, 50, 50
2, 1350840, Note_off_c, 2, 50, 0
2, 1351080, Note_on_c, 2, 64, 50
2, 1351320, Note_off_c, 2, 64, 0
2, 1352160, Note_on_c, 2, 52, 50
2, 1352280, Note_off_c, 2, 52, 0
2, 1352640, Note_on_c, 2, 50, 50
2, 1352760, Note_off_c, 2, 50, 0
2, 1353480, Note_on_c, 2, 52, 50
2, 1353600, Note_off_c, 2, 52, 0
2, 1353840, Note_on_c, 2, 47, 50
2, 1353960, Note_off_c, 2, 47, 0
2, 1354320, Note_on_c, 2, 47, 50
2, 1354560, Note_off_c, 2, 47, 0
2, 1354560, Note_on_c, 2, 50, 50
2, 1354680, Note_off_c, 2, 50, 0
2, 1354920, Note_on_c, 2, 64, 50
2, 1355040, Note_off_c, 2, 64, 0
2, 1355520, Note_on_c, 2, 50, 50
2, 1355640, Note_off_c, 2, 50, 0
2, 1356360, Note_on_c, 2, 50, 50
2, 1356840, Note_off_c, 2, 50, 0
2, 1357560, Note_on_c, 2, 50, 50
2, 1357800, Note_off_c, 2, 50, 0
2, 1358280, Note_on_c, 2, 50, 50
2, 1358760, Note_off_c, 2, 50, 0
2, 1371360, Note_on_c, 2, 52, 50
2, 1371600, Note_off_c, 2, 52, 0
2, 1371840, Note_on_c, 2, 50, 50
2, 1372080, Note_off_c, 2, 50, 0
2, 1372560, Note_on_c, 2, 52, 50
2, 1372800, Note_off_c, 2, 52, 0
2, 1373040, Note_on_c, 2, 47, 50
2, 1373280, Note_off_c, 2, 47, 0
2, 1373400, Note_on_c, 2, 47, 50
2, 1373640, Note_off_c, 2, 47, 0
2, 1373640, Note_on_c, 2, 50, 50
2, 1373760, Note_off_c, 2, 50, 0
2, 1374120, Note_on_c, 2, 64, 50
2, 1374240, Note_off_c, 2, 64, 0
2, 1375200, Note_on_c, 2, 52, 50
2, 1375440, Note_off_c, 2, 52, 0
2, 1375680, Note_on_c, 2, 50, 50
2, 1375800, Note_off_c, 2, 50, 0
2, 1376400, Note_on_c, 2, 52, 50
2, 1376640, Note_off_c, 2, 52, 0
2, 1376880, Note_on_c, 2, 47, 50
2, 1377120, Note_off_c, 2, 47, 0
2, 1377240, Note_on_c, 2, 47, 50
2, 1377480, Note_off_c, 2, 47, 0
2, 1377480, Note_on_c, 2, 50, 50
2, 1377600, Note_off_c, 2, 50, 0
2, 1377960, Note_on_c, 2, 64, 50
2, 1378080, Note_off_c, 2, 64, 0
2, 1379040, Note_on_c, 2, 52, 50
2, 1379160, Note_off_c, 2, 52, 0
2, 1379520, Note_on_c, 2, 50, 50
2, 1379640, Note_off_c, 2, 50, 0
2, 1380360, Note_on_c, 2, 52, 50
2, 1380480, Note_off_c, 2, 52, 0
2, 1380840, Note_on_c, 2, 47, 50
2, 1380960, Note_off_c, 2, 47, 0
2, 1381200, Note_on_c, 2, 47, 50
2, 1381440, Note_off_c, 2, 47, 0
2, 1381440, Note_on_c, 2, 50, 50
2, 1381560, Note_off_c, 2, 50, 0
2, 1381800, Note_on_c, 2, 64, 50
2, 1382040, Note_off_c, 2, 64, 0
2, 1382880, Note_on_c, 2, 52, 50
2, 1383000, Note_off_c, 2, 52, 0
2, 1383360, Note_on_c, 2, 50, 50
2, 1383480, Note_off_c, 2, 50, 0
2, 1384200, Note_on_c, 2, 52, 50
2, 1384320, Note_off_c, 2, 52, 0
2, 1384560, Note_on_c, 2, 47, 50
2, 1384680, Note_off_c, 2, 47, 0
2, 1385040, Note_on_c, 2, 47, 50
2, 1385280, Note_off_c, 2, 47, 0
2, 1385280, Note_on_c, 2, 50, 50
2, 1385400, Note_off_c, 2, 50, 0
2, 1385640, Note_on_c, 2, 64, 50
2, 1385760, Note_off_c, 2, 64, 0
2, 1386720, Note_on_c, 2, 52, 50
2, 1386960, Note_off_c, 2, 52, 0
2, 1387200, Note_on_c, 2, 50, 50
2, 1387440, Note_off_c, 2, 50, 0
2, 1387920, Note_on_c, 2, 52, 50
2, 1388160, Note_off_c, 2, 52, 0
2, 1388400, Note_on_c, 2, 47, 50
2, 1388640, Note_off_c, 2, 47, 0
2, 1388760, Note_on_c, 2, 47, 50
2, 1389000, Note_off_c, 2, 47, 0
2, 1389000, Note_on_c, 2, 50, 50
2, 1389120, Note_off_c, 2, 50, 0
2, 1389480, Note_on_c, 2, 64, 50
2, 1389600, Note_off_c, 2, 64, 0
2, 1390560, Note_on_c, 2, 52, 50
2, 1390800, Note_off_c, 2, 52, 0
2, 1391040, Note_on_c, 2, 50, 50
2, 1391160, Note_off_c, 2, 50, 0
2, 1391760, Note_on_c, 2, 52, 50
2, 1392000, Note_off_c, 2, 52, 0
2, 1392240, Note_on_c, 2, 47, 50
2, 1392480, Note_off_c, 2, 47, 0
2, 1392600, Note_on_c, 2, 47, 50
2, 1392840, Note_off_c, 2, 47, 0
2, 1392840, Note_on_c, 2, 50, 50
2, 1392960, Note_off_c, 2, 50, 0
2, 1393320, Note_on_c, 2, 64, 50
2, 1393440, Note_off_c, 2, 64, 0
2, 1394400, Note_on_c, 2, 52, 50
2, 1394520, Note_off_c, 2, 52, 0
2, 1394880, Note_on_c, 2, 50, 50
2, 1395000, Note_off_c, 2, 50, 0
2, 1395720, Note_on_c, 2, 52, 50
2, 1395840, Note_off_c, 2, 52, 0
2, 1396200, Note_on_c, 2, 47, 50
2, 1396320, Note_off_c, 2, 47, 0
2, 1396560, Note_on_c, 2, 47, 50
2, 1396800, Note_off_c, 2, 47, 0
2, 1396800, Note_on_c, 2, 50, 50
2, 1396920, Note_off_c, 2, 50, 0
2, 1397160, Note_on_c, 2, 64, 50
2, 1397400, Note_off_c, 2, 64, 0
2, 1398240, Note_on_c, 2, 52, 50
2, 1398360, Note_off_c, 2, 52, 0
2, 1398720, Note_on_c, 2, 50, 50
2, 1398840, Note_off_c, 2, 50, 0
2, 1399560, Note_on_c, 2, 52, 50
2, 1399680, Note_off_c, 2, 52, 0
2, 1399920, Note_on_c, 2, 47, 50
2, 1400040, Note_off_c, 2, 47, 0
2, 1400400, Note_on_c, 2, 47, 50
2, 1400640, Note_off_c, 2, 47, 0
2, 1400640, Note_on_c, 2, 50, 50
2, 1400760, Note_off_c, 2, 50, 0
2, 1401000, Note_on_c, 2, 64, 50
2, 1401120, Note_off_c, 2, 64, 0
2, 1402080, Note_on_c, 2, 52, 50
2, 1402320, Note_off_c, 2, 52, 0
2, 1402560, Note_on_c, 2, 50, 50
2, 1402800, Note_off_c, 2, 50, 0
2, 1403280, Note_on_c, 2, 52, 50
2, 1403520, Note_off_c, 2, 52, 0
2, 1403760, Note_on_c, 2, 47, 50
2, 1404000, Note_off_c, 2, 47, 0
2, 1404120, Note_on_c, 2, 47, 50
2, 1404360, Note_off_c, 2, 47, 0
2, 1404360, Note_on_c, 2, 50, 50
2, 1404480, Note_off_c, 2, 50, 0
2, 1404840, Note_on_c, 2, 64, 50
2, 1404960, Note_off_c, 2, 64, 0
2, 1405920, Note_on_c, 2, 52, 50
2, 1406160, Note_off_c, 2, 52, 0
2, 1406400, Note_on_c, 2, 50, 50
2, 1406520, Note_off_c, 2, 50, 0
2, 1407120, Note_on_c, 2, 52, 50
2, 1407360, Note_off_c, 2, 52, 0
2, 1407600, Note_on_c, 2, 47, 50
2, 1407840, Note_off_c, 2, 47, 0
2, 1407960, Note_on_c, 2, 47, 50
2, 1408200, Note_off_c, 2, 47, 0
2, 1408200, Note_on_c, 2, 50, 50
2, 1408320, Note_off_c, 2, 50, 0
2, 1408680, Note_on_c, 2, 64, 50
2, 1408800, Note_off_c, 2, 64, 0
2, 1409760, Note_on_c, 2, 52, 50
2, 1409880, Note_off_c, 2, 52, 0
2, 1410240, Note_on_c, 2, 50, 50
2, 1410360, Note_off_c, 2, 50, 0
2, 1411080, Note_on_c, 2, 52, 50
2, 1411200, Note_off_c, 2, 52, 0
2, 1411560, Note_on_c, 2, 47, 50
2, 1411680, Note_off_c, 2, 47, 0
2, 1411920, Note_on_c, 2, 47, 50
2, 1412160, Note_off_c, 2, 47, 0
2, 1412160, Note_on_c, 2, 50, 50
2, 1412280, Note_off_c, 2, 50, 0
2, 1412520, Note_on_c, 2, 64, 50
2, 1412760, Note_off_c, 2, 64, 0
2, 1413600, Note_on_c, 2, 52, 50
2, 1413720, Note_off_c, 2, 52, 0
2, 1414080, Note_on_c, 2, 50, 50
2, 1414200, Note_off_c, 2, 50, 0
2, 1414920, Note_on_c, 2, 52, 50
2, 1415040, Note_off_c, 2, 52, 0
2, 1415280, Note_on_c, 2, 47, 50
2, 1415400, Note_off_c, 2, 47, 0
2, 1415760, Note_on_c, 2, 47, 50
2, 1416000, Note_off_c, 2, 47, 0
2, 1416000, Note_on_c, 2, 50, 50
2, 1416120, Note_off_c, 2, 50, 0
2, 1416360, Note_on_c, 2, 64, 50
2, 1416480, Note_off_c, 2, 64, 0
2, 1417440, Note_on_c, 2, 52, 50
2, 1417680, Note_off_c, 2, 52, 0
2, 1417920, Note_on_c, 2, 50, 50
2, 1418160, Note_off_c, 2, 50, 0
2, 1418640, Note_on_c, 2, 52, 50
2, 1418880, Note_off_c, 2, 52, 0
2, 1419120, Note_on_c, 2, 47, 50
2, 1419360, Note_off_c, 2, 47, 0
2, 1419480, Note_on_c, 2, 47, 50
2, 1419720, Note_off_c, 2, 47, 0
2, 1419720, Note_on_c, 2, 50, 50
2, 1419840, Note_off_c, 2, 50, 0
2, 1420200, Note_on_c, 2, 64, 50
2, 1420320, Note_off_c, 2, 64, 0
2, 1421280, Note_on_c, 2, 52, 50
2, 1421520, Note_off_c, 2, 52, 0
2, 1421760, Note_on_c, 2, 50, 50
2, 1421880, Note_off_c, 2, 50, 0
2, 1422480, Note_on_c, 2, 52, 50
2, 1422720, Note_off_c, 2, 52, 0
2, 1422960, Note_on_c, 2, 47, 50
2, 1423200, Note_off_c, 2, 47, 0
2, 1423320, Note_on_c, 2, 47, 50
2, 1423560, Note_off_c, 2, 47, 0
2, 1423560, Note_on_c, 2, 50, 50
2, 1423680, Note_off_c, 2, 50, 0
2, 1424040, Note_on_c, 2, 64, 50
2, 1424160, Note_off_c, 2, 64, 0
2, 1425120, Note_on_c, 2, 52, 50
2, 1425240, Note_off_c, 2, 52, 0
2, 1425600, Note_on_c, 2, 50, 50
2, 1425720, Note_off_c, 2, 50, 0
2, 1426440, Note_on_c, 2, 52, 50
2, 1426560, Note_off_c, 2, 52, 0
2, 1426920, Note_on_c, 2, 47, 50
2, 1427040, Note_off_c, 2, 47, 0
2, 1427280, Note_on_c, 2, 47, 50
2, 1427520, Note_off_c, 2, 47, 0
2, 1427520, Note_on_c, 2, 50, 50
2, 1427640, Note_off_c, 2, 50, 0
2, 1427880, Note_on_c, 2, 64, 50
2, 1428120, Note_off_c, 2, 64, 0
2, 1428960, Note_on_c, 2, 52, 50
2, 1429080, Note_off_c, 2, 52, 0
2, 1429440, Note_on_c, 2, 50, 50
2, 1429560, Note_off_c, 2, 50, 0
2, 1430280, Note_on_c, 2, 52, 50
2, 1430400, Note_off_c, 2, 52, 0
2, 1430640, Note_on_c, 2, 47, 50
2, 1430760, Note_off_c, 2, 47, 0
2, 1431120, Note_on_c, 2, 47, 50
2, 1431360, Note_off_c, 2, 47, 0
2, 1431360, Note_on_c, 2, 50, 50
2, 1431480, Note_off_c, 2, 50, 0
2, 1431720, Note_on_c, 2, 64, 50
2, 1431840, Note_off_c, 2, 64, 0
2, 1432800, Note_on_c, 2, 52, 50
2, 1432920, Note_off_c, 2, 52, 0
2, 1433280, Note_on_c, 2, 50, 50
2, 1433400, Note_off_c, 2, 50, 0
2, 1434120, Note_on_c, 2, 52, 50
2, 1434240, Note_off_c, 2, 52, 0
2, 1434600, Note_on_c, 2, 47, 50
2, 1434720, Note_off_c, 2, 47, 0
2, 1434960, Note_on_c, 2, 47, 50
2, 1435200, Note_off_c, 2, 47, 0
2, 1435200, Note_on_c, 2, 50, 50
2, 1435320, Note_off_c, 2, 50, 0
2, 1435560, Note_on_c, 2, 64, 50
2, 1435800, Note_off_c, 2, 64, 0
2, 1436640, Note_on_c, 2, 52, 50
2, 1436760, Note_off_c, 2, 52, 0
2, 1437120, Note_on_c, 2, 50, 50
2, 1437240, Note_off_c, 2, 50, 0
2, 1437960, Note_on_c, 2, 52, 50
2, 1438080, Note_off_c, 2, 52, 0
2, 1438320, Note_on_c, 2, 47, 50
2, 1438440, Note_off_c, 2, 47, 0
2, 1438800, Note_on_c, 2, 47, 50
2, 1439040, Note_off_c, 2, 47, 0
2, 1439040, Note_on_c, 2, 50, 50
2, 1439160, Note_off_c, 2, 50, 0
2, 1439400, Note_on_c, 2, 64, 50
2, 1439520, Note_off_c, 2, 64, 0
2, 1440000, Note_on_c, 2, 50, 50
2, 1440120, Note_off_c, 2, 50, 0
2, 1440840, Note_on_c, 2, 50, 50
2, 1441320, Note_off_c, 2, 50, 0
2, 1442040, Note_on_c, 2, 50, 50
2, 1442280, Note_off_c, 2, 50, 0
2, 1442760, Note_on_c, 2, 50, 50
2, 1443240, Note_off_c, 2, 50, 0
2, 1478400, Note_on_c, 2, 50, 50
2, 1478520, Note_off_c, 2, 50, 0
2, 1479240, Note_on_c, 2, 50, 50
2, 1479720, Note_off_c, 2, 50, 0
2, 1480440, Note_on_c, 2, 50, 50
2, 1480680, Note_off_c, 2, 50, 0
2, 1481160, Note_on_c, 2, 50, 50
2, 1481640, Note_off_c, 2, 50, 0
2, 1513440, Note_on_c, 2, 45, 50
2, 1513560, Note_off_c, 2, 45, 0
2, 1513680, Note_on_c, 2, 45, 50
2, 1513800, Note_off_c, 2, 45, 0
2, 1513920, Note_on_c, 2, 57, 50
2, 1514040, Note_off_c, 2, 57, 0
2, 1514160, Note_on_c, 2, 57, 50
2, 1514280, Note_off_c, 2, 57, 0
2, 1514400, Note_on_c, 2, 43, 50
2, 1514520, Note_off_c, 2, 43, 0
2, 1514640, Note_on_c, 2, 43, 50
2, 1514760, Note_off_c, 2, 43, 0
2, 1514880, Note_on_c, 2, 55, 50
2, 1515000, Note_off_c, 2, 55, 0
2, 1515120, Note_on_c, 2, 55, 50
2, 1515240, Note_off_c, 2, 55, 0
2, 1515360, Note_on_c, 2, 45, 50
2, 1515480, Note_off_c, 2, 45, 0
2, 1515600, Note_on_c, 2, 52, 50
2, 1516080, Note_off_c, 2, 52, 0
2, 1516080, Note_on_c, 2, 50, 50
2, 1516560, Note_off_c, 2, 50, 0
2, 1516560, Note_on_c, 2, 47, 50
2, 1516680, Note_off_c, 2, 47, 0
2, 1516680, Note_on_c, 2, 48, 50
2, 1516800, Note_off_c, 2, 48, 0
2, 1516800, Note_on_c, 2, 47, 50
2, 1516920, Note_off_c, 2, 47, 0
2, 1516920, Note_on_c, 2, 45, 50
2, 1517040, Note_off_c, 2, 45, 0
2, 1517040, Note_on_c, 2, 43, 50
2, 1517280, Note_off_c, 2, 43, 0
2, 1517280, Note_on_c, 2, 45, 50
2, 1517400, Note_off_c, 2, 45, 0
2, 1517520, Note_on_c, 2, 45, 50
2, 1517640, Note_off_c, 2, 45, 0
2, 1517760, Note_on_c, 2, 57, 50
2, 1517880, Note_off_c, 2, 57, 0
2, 1518000, Note_on_c, 2, 57, 50
2, 1518120, Note_off_c, 2, 57, 0
2, 1518240, Note_on_c, 2, 43, 50
2, 1518360, Note_off_c, 2, 43, 0
2, 1518480, Note_on_c, 2, 43, 50
2, 1518600, Note_off_c, 2, 43, 0
2, 1518720, Note_on_c, 2, 55, 50
2, 1518840, Note_off_c, 2, 55, 0
2, 1518960, Note_on_c, 2, 55, 50
2, 1519080, Note_off_c, 2, 55, 0
2, 1519200, Note_on_c, 2, 45, 50
2, 1519320, Note_off_c, 2, 45, 0
2, 1519440, Note_on_c, 2, 52, 50
2, 1519920, Note_off_c, 2, 52, 0
2, 1519920, Note_on_c, 2, 50, 50
2, 1520400, Note_off_c, 2, 50, 0
2, 1520400, Note_on_c, 2, 47, 50
2, 1520520, Note_off_c, 2, 47, 0
2, 1520520, Note_on_c, 2, 48, 50
2, 1520640, Note_off_c, 2, 48, 0
2, 1520640, Note_on_c, 2, 47, 50
2, 1520760, Note_off_c, 2, 47, 0
2, 1520760, Note_on_c, 2, 45, 50
2, 1520880, Note_off_c, 2, 45, 0
2, 1520880, Note_on_c, 2, 43, 50
2, 1521120, Note_off_c, 2, 43, 0
2, 1521120, Note_on_c, 2, 45, 50
2, 1521240, Note_off_c, 2, 45, 0
2, 1521360, Note_on_c, 2, 45, 50
2, 1521480, Note_off_c, 2, 45, 0
2, 1521600, Note_on_c, 2, 57, 50
2, 1521720, Note_off_c, 2, 57, 0
2, 1521840, Note_on_c, 2, 57, 50
2, 1521960, Note_off_c, 2, 57, 0
2, 1522080, Note_on_c, 2, 43, 50
2, 1522200, Note_off_c, 2, 43, 0
2, 1522320, Note_on_c, 2, 43, 50
2, 1522440, Note_off_c, 2, 43, 0
2, 1522560, Note_on_c, 2, 55, 50
2, 1522680, Note_off_c, 2, 55, 0
2, 1522800, Note_on_c, 2, 55, 50
2, 1522920, Note_off_c, 2, 55, 0
2, 1523040, Note_on_c, 2, 45, 50
2, 1523160, Note_off_c, 2, 45, 0
2, 1523280, Note_on_c, 2, 52, 50
2, 1523760, Note_off_c, 2, 52, 0
2, 1523760, Note_on_c, 2, 50, 50
2, 1524240, Note_off_c, 2, 50, 0
2, 1524240, Note_on_c, 2, 47, 50
2, 1524360, Note_off_c, 2, 47, 0
2, 1524360, Note_on_c, 2, 48, 50
2, 1524480, Note_off_c, 2, 48, 0
2, 1524480, Note_on_c, 2, 47, 50
2, 1524600, Note_off_c, 2, 47, 0
2, 1524600, Note_on_c, 2, 45, 50
2, 1524720, Note_off_c, 2, 45, 0
2, 1524720, Note_on_c, 2, 43, 50
2, 1524960, Note_off_c, 2, 43, 0
2, 1524960, Note_on_c, 2, 45, 50
2, 1525080, Note_off_c, 2, 45, 0
2, 1525200, Note_on_c, 2, 45, 50
2, 1525320, Note_off_c, 2, 45, 0
2, 1525440, Note_on_c, 2, 57, 50
2, 1525560, Note_off_c, 2, 57, 0
2, 1525680, Note_on_c, 2, 57, 50
2, 1525800, Note_off_c, 2, 57, 0
2, 1525920, Note_on_c, 2, 43, 50
2, 1526040, Note_off_c, 2, 43, 0
2, 1526160, Note_on_c, 2, 43, 50
2, 1526280, Note_off_c, 2, 43, 0
2, 1526400, Note_on_c, 2, 55, 50
2, 1526520, Note_off_c, 2, 55, 0
2, 1526640, Note_on_c, 2, 55, 50
2, 1526760, Note_off_c, 2, 55, 0
2, 1526880, Note_on_c, 2, 45, 50
2, 1527000, Note_off_c, 2, 45, 0
2, 1527120, Note_on_c, 2, 52, 50
2, 1527600, Note_off_c, 2, 52, 0
2, 1527600, Note_on_c, 2, 50, 50
2, 1528080, Note_off_c, 2, 50, 0
2, 1528080, Note_on_c, 2, 47, 50
2, 1528200, Note_off_c, 2, 47, 0
2, 1528200, Note_on_c, 2, 48, 50
2, 1528320, Note_off_c, 2, 48, 0
2, 1528320, Note_on_c, 2, 47, 50
2, 1528440, Note_off_c, 2, 47, 0
2, 1528440, Note_on_c, 2, 45, 50
2, 1528560, Note_off_c, 2, 45, 0
2, 1528560, Note_on_c, 2, 43, 50
2, 1528800, Note_off_c, 2, 43, 0
2, 1528800, Note_on_c, 2, 45, 50
2, 1528920, Note_off_c, 2, 45, 0
2, 1529040, Note_on_c, 2, 45, 50
2, 1529160, Note_off_c, 2, 45, 0
2, 1529280, Note_on_c, 2, 57, 50
2, 1529400, Note_off_c, 2, 57, 0
2, 1529520, Note_on_c, 2, 57, 50
2, 1529640, Note_off_c, 2, 57, 0
2, 1529760, Note_on_c, 2, 43, 50
2, 1529880, Note_off_c, 2, 43, 0
2, 1530000, Note_on_c, 2, 43, 50
2, 1530120, Note_off_c, 2, 43, 0
2, 1530240, Note_on_c, 2, 55, 50
2, 1530360, Note_off_c, 2, 55, 0
2, 1530480, Note_on_c, 2, 55, 50
2, 1530600, Note_off_c, 2, 55, 0
2, 1530720, Note_on_c, 2, 45, 50
2, 1530840, Note_off_c, 2, 45, 0
2, 1530960, Note_on_c, 2, 52, 50
2, 1531440, Note_off_c, 2, 52, 0
2, 1531440, Note_on_c, 2, 50, 50
2, 1531920, Note_off_c, 2, 50, 0
2, 1531920, Note_on_c, 2, 47, 50
2, 1532040, Note_off_c, 2, 47, 0
2, 1532040, Note_on_c, 2, 48, 50
2, 1532160, Note_off_c, 2, 48, 0
2, 1532160, Note_on_c, 2, 47, 50
2, 1532280, Note_off_c, 2, 47, 0
2, 1532280, Note_on_c, 2, 45, 50
2, 1532400, Note_off_c, 2, 45, 0
2, 1532400, Note_on_c, 2, 43, 50
2, 1532640, Note_off_c, 2, 43, 0
2, 1532640, Note_on_c, 2, 45, 50
2, 1532760, Note_off_c, 2, 45, 0
2, 1532880, Note_on_c, 2, 45, 50
2, 1533000, Note_off_c, 2, 45, 0
2, 1533120, Note_on_c, 2, 57, 50
2, 1533240, Note_off_c, 2, 57, 0
2, 1533360, Note_on_c, 2, 57, 50
2, 1533480, Note_off_c, 2, 57, 0
2, 1533600, Note_on_c, 2, 43, 50
2, 1533720, Note_off_c, 2, 43, 0
2, 1533840, Note_on_c, 2, 43, 50
2, 1533960, Note_off_c, 2, 43, 0
2, 1534080, Note_on_c, 2, 55, 50
2, 1534200, Note_off_c, 2, 55, 0
2, 1534320, Note_on_c, 2, 55, 50
2, 1534440, Note_off_c, 2, 55, 0
2, 1534560, Note_on_c, 2, 45, 50
2, 1534680, Note_off_c, 2, 45, 0
2, 1534800, Note_on_c, 2, 52, 50
2, 1535280, Note_off_c, 2, 52, 0
2, 1535280, Note_on_c, 2, 50, 50
2, 1535760, Note_off_c, 2, 50, 0
2, 1535760, Note_on_c, 2, 47, 50
2, 1535880, Note_off_c, 2, 47, 0
2, 1535880, Note_on_c, 2, 48, 50
2, 1536000, Note_off_c, 2, 48, 0
2, 1536000, Note_on_c, 2, 47, 50
2, 1536120, Note_off_c, 2, 47, 0
2, 1536120, Note_on_c, 2, 45, 50
2, 1536240, Note_off_c, 2, 45, 0
2, 1536240, Note_on_c, 2, 43, 50
2, 1536480, Note_off_c, 2, 43, 0
2, 1536480, Note_on_c, 2, 45, 50
2, 1536960, Note_off_c, 2, 45, 0
2, 1536960, Note_on_c, 2, 49, 50
2, 1537200, Note_off_c, 2, 49, 0
2, 1537200, Note_on_c, 2, 52, 50
2, 1537440, Note_off_c, 2, 52, 0
2, 1537440, Note_on_c, 2, 43, 50
2, 1537920, Note_off_c, 2, 43, 0
2, 1537920, Note_on_c, 2, 47, 50
2, 1538160, Note_off_c, 2, 47, 0
2, 1538160, Note_on_c, 2, 50, 50
2, 1538400, Note_off_c, 2, 50, 0
2, 1538400, Note_on_c, 2, 45, 50
2, 1538880, Note_off_c, 2, 45, 0
2, 1538880, Note_on_c, 2, 49, 50
2, 1539120, Note_off_c, 2, 49, 0
2, 1539120, Note_on_c, 2, 52, 50
2, 1539360, Note_off_c, 2, 52, 0
2, 1539360, Note_on_c, 2, 43, 50
2, 1539840, Note_off_c, 2, 43, 0
2, 1539840, Note_on_c, 2, 47, 50
2, 1540080, Note_off_c, 2, 47, 0
2, 1540080, Note_on_c, 2, 50, 50
2, 1540320, Note_off_c, 2, 50, 0
2, 1540320, Note_on_c, 2, 45, 50
2, 1540800, Note_off_c, 2, 45, 0
2, 1540800, Note_on_c, 2, 49, 50
2, 1541040, Note_off_c, 2, 49, 0
2, 1541040, Note_on_c, 2, 52, 50
2, 1541280, Note_off_c, 2, 52, 0
2, 1541280, Note_on_c, 2, 43, 50
2, 1541760, Note_off_c, 2, 43, 0
2, 1541760, Note_on_c, 2, 47, 50
2, 1542000, Note_off_c, 2, 47, 0
2, 1542000, Note_on_c, 2, 50, 50
2, 1542240, Note_off_c, 2, 50, 0
2, 1542240, Note_on_c, 2, 45, 50
2, 1542720, Note_off_c, 2, 45, 0
2, 1542720, Note_on_c, 2, 49, 50
2, 1542960, Note_off_c, 2, 49, 0
2, 1542960, Note_on_c, 2, 52, 50
2, 1543200, Note_off_c, 2, 52, 0
2, 1543200, Note_on_c, 2, 43, 50
2, 1543680, Note_off_c, 2, 43, 0
2, 1543680, Note_on_c, 2, 47, 50
2, 1543920, Note_off_c, 2, 47, 0
2, 1543920, Note_on_c, 2, 50, 50
2, 1544160, Note_off_c, 2, 50, 0
2, 1544160, Note_on_c, 2, 45, 50
2, 1544640, Note_off_c, 2, 45, 0
2, 1544640, Note_on_c, 2, 49, 50
2, 1544880, Note_off_c, 2, 49, 0
2, 1544880, Note_on_c, 2, 52, 50
2, 1545120, Note_off_c, 2, 52, 0
2, 1545120, Note_on_c, 2, 43, 50
2, 1545600, Note_off_c, 2, 43, 0
2, 1545600, Note_on_c, 2, 47, 50
2, 1545840, Note_off_c, 2, 47, 0
2, 1545840, Note_on_c, 2, 50, 50
2, 1546080, Note_off_c, 2, 50, 0
2, 1546080, Note_on_c, 2, 45, 50
2, 1546560, Note_off_c, 2, 45, 0
2, 1546560, Note_on_c, 2, 49, 50
2, 1546800, Note_off_c, 2, 49, 0
2, 1546800, Note_on_c, 2, 52, 50
2, 1547040, Note_off_c, 2, 52, 0
2, 1547040, Note_on_c, 2, 43, 50
2, 1547520, Note_off_c, 2, 43, 0
2, 1547520, Note_on_c, 2, 47, 50
2, 1547760, Note_off_c, 2, 47, 0
2, 1547760, Note_on_c, 2, 50, 50
2, 1548000, Note_off_c, 2, 50, 0
2, 1548000, Note_on_c, 2, 45, 50
2, 1548480, Note_off_c, 2, 45, 0
2, 1548480, Note_on_c, 2, 49, 50
2, 1548720, Note_off_c, 2, 49, 0
2, 1548720, Note_on_c, 2, 52, 50
2, 1548960, Note_off_c, 2, 52, 0
2, 1548960, Note_on_c, 2, 43, 50
2, 1549440, Note_off_c, 2, 43, 0
2, 1549440, Note_on_c, 2, 47, 50
2, 1549680, Note_off_c, 2, 47, 0
2, 1549680, Note_on_c, 2, 50, 50
2, 1549920, Note_off_c, 2, 50, 0
2, 1549920, Note_on_c, 2, 45, 50
2, 1550400, Note_off_c, 2, 45, 0
2, 1550400, Note_on_c, 2, 49, 50
2, 1550640, Note_off_c, 2, 49, 0
2, 1550640, Note_on_c, 2, 52, 50
2, 1550880, Note_off_c, 2, 52, 0
2, 1550880, Note_on_c, 2, 43, 50
2, 1551360, Note_off_c, 2, 43, 0
2, 1551360, Note_on_c, 2, 47, 50
2, 1551600, Note_off_c, 2, 47, 0
2, 1551600, Note_on_c, 2, 50, 50
2, 1551840, Note_off_c, 2, 50, 0
2, 1551840, Note_on_c, 2, 45, 50
2, 1551960, Note_off_c, 2, 45, 0
2, 1552080, Note_on_c, 2, 45, 50
2, 1552200, Note_off_c, 2, 45, 0
2, 1552320, Note_on_c, 2, 57, 50
2, 1552440, Note_off_c, 2, 57, 0
2, 1552560, Note_on_c, 2, 57, 50
2, 1552680, Note_off_c, 2, 57, 0
2, 1552800, Note_on_c, 2, 43, 50
2, 1552920, Note_off_c, 2, 43, 0
2, 1553040, Note_on_c, 2, 43, 50
2, 1553160, Note_off_c, 2, 43, 0
2, 1553280, Note_on_c, 2, 55, 50
2, 1553400, Note_off_c, 2, 55, 0
2, 1553520, Note_on_c, 2, 55, 50
2, 1553640, Note_off_c, 2, 55, 0
2, 1553760, Note_on_c, 2, 45, 50
2, 1553880, Note_off_c, 2, 45, 0
2, 1554000, Note_on_c, 2, 52, 50
2, 1554480, Note_off_c, 2, 52, 0
2, 1554480, Note_on_c, 2, 50, 50
2, 1554960, Note_off_c, 2, 50, 0
2, 1554960, Note_on_c, 2, 47, 50
2, 1555080, Note_off_c, 2, 47, 0
2, 1555080, Note_on_c, 2, 48, 50
2, 1555200, Note_off_c, 2, 48, 0
2, 1555200, Note_on_c, 2, 47, 50
2, 1555320, Note_off_c, 2, 47, 0
2, 1555320, Note_on_c, 2, 45, 50
2, 1555440, Note_off_c, 2, 45, 0
2, 1555440, Note_on_c, 2, 43, 50
2, 1555680, Note_off_c, 2, 43, 0
2, 1555680, Note_on_c, 2, 45, 50
2, 1555800, Note_off_c, 2, 45, 0
2, 1555920, Note_on_c, 2, 45, 50
2, 1556040, Note_off_c, 2, 45, 0
2, 1556160, Note_on_c, 2, 57, 50
2, 1556280, Note_off_c, 2, 57, 0
2, 1556400, Note_on_c, 2, 57, 50
2, 1556520, Note_off_c, 2, 57, 0
2, 1556640, Note_on_c, 2, 43, 50
2, 1556760, Note_off_c, 2, 43, 0
2, 1556880, Note_on_c, 2, 43, 50
2, 1557000, Note_off_c, 2, 43, 0
2, 1557120, Note_on_c, 2, 55, 50
2, 1557240, Note_off_c, 2, 55, 0
2, 1557360, Note_on_c, 2, 55, 50
2, 1557480, Note_off_c, 2, 55, 0
2, 1557600, Note_on_c, 2, 45, 50
2, 1557720, Note_off_c, 2, 45, 0
2, 1557840, Note_on_c, 2, 52, 50
2, 1558320, Note_off_c, 2, 52, 0
2, 1558320, Note_on_c, 2, 50, 50
2, 1558800, Note_off_c, 2, 50, 0
2, 1558800, Note_on_c, 2, 47, 50
2, 1558920, Note_off_c, 2, 47, 0
2, 1558920, Note_on_c, 2, 48, 50
2, 1559040, Note_off_c, 2, 48, 0
2, 1559040, Note_on_c, 2, 47, 50
2, 1559160, Note_off_c, 2, 47, 0
2, 1559160, Note_on_c, 2, 45, 50
2, 1559280, Note_off_c, 2, 45, 0
2, 1559280, Note_on_c, 2, 43, 50
2, 1559520, Note_off_c, 2, 43, 0
2, 1559520, Note_on_c, 2, 45, 50
2, 1559640, Note_off_c, 2, 45, 0
2, 1559760, Note_on_c, 2, 45, 50
2, 1559880, Note_off_c, 2, 45, 0
2, 1560000, Note_on_c, 2, 57, 50
2, 1560120, Note_off_c, 2, 57, 0
2, 1560240, Note_on_c, 2, 57, 50
2, 1560360, Note_off_c, 2, 57, 0
2, 1560480, Note_on_c, 2, 43, 50
2, 1560600, Note_off_c, 2, 43, 0
2, 1560720, Note_on_c, 2, 43, 50
2, 1560840, Note_off_c, 2, 43, 0
2, 1560960, Note_on_c, 2, 55, 50
2, 1561080, Note_off_c, 2, 55, 0
2, 1561200, Note_on_c, 2, 55, 50
2, 1561320, Note_off_c, 2, 55, 0
2, 1561440, Note_on_c, 2, 45, 50
2, 1561560, Note_off_c, 2, 45, 0
2, 1561680, Note_on_c, 2, 52, 50
2, 1562160, Note_off_c, 2, 52, 0
2, 1562160, Note_on_c, 2, 50, 50
2, 1562640, Note_off_c, 2, 50, 0
2, 1562640, Note_on_c, 2, 47, 50
2, 1562760, Note_off_c, 2, 47, 0
2, 1562760, Note_on_c, 2, 48, 50
2, 1562880, Note_off_c, 2, 48, 0
2, 1562880, Note_on_c, 2, 47, 50
2, 1563000, Note_off_c, 2, 47, 0
2, 1563000, Note_on_c, 2, 45, 50
2, 1563120, Note_off_c, 2, 45, 0
2, 1563120, Note_on_c, 2, 43, 50
2, 1563360, Note_off_c, 2, 43, 0
2, 1563360, Note_on_c, 2, 45, 50
2, 1563480, Note_off_c, 2, 45, 0
2, 1563600, Note_on_c, 2, 45, 50
2, 1563720, Note_off_c, 2, 45, 0
2, 1563840, Note_on_c, 2, 57, 50
2, 1563960, Note_off_c, 2, 57, 0
2, 1564080, Note_on_c, 2, 57, 50
2, 1564200, Note_off_c, 2, 57, 0
2, 1564320, Note_on_c, 2, 43, 50
2, 1564440, Note_off_c, 2, 43, 0
2, 1564560, Note_on_c, 2, 43, 50
2, 1564680, Note_off_c, 2, 43, 0
2, 1564800, Note_on_c, 2, 55, 50
2, 1564920, Note_off_c, 2, 55, 0
2, 1565040, Note_on_c, 2, 55, 50
2, 1565160, Note_off_c, 2, 55, 0
2, 1565280, Note_on_c, 2, 45, 50
2, 1565400, Note_off_c, 2, 45, 0
2, 1565520, Note_on_c, 2, 52, 50
2, 1566000, Note_off_c, 2, 52, 0
2, 1566000, Note_on_c, 2, 50, 50
2, 1566480, Note_off_c, 2, 50, 0
2, 1566480, Note_on_c, 2, 47, 50
2, 1566600, Note_off_c, 2, 47, 0
2, 1566600, Note_on_c, 2, 48, 50
2, 1566720, Note_off_c, 2, 48, 0
2, 1566720, Note_on_c, 2, 47, 50
2, 1566840, Note_off_c, 2, 47, 0
2, 1566840, Note_on_c, 2, 45, 50
2, 1566960, Note_off_c, 2, 45, 0
2, 1566960, Note_on_c, 2, 43, 50
2, 1567200, Note_off_c, 2, 43, 0
2, 1567200, Note_on_c, 2, 45, 50
2, 1567680, Note_off_c, 2, 45, 0
2, 1567680, Note_on_c, 2, 49, 50
2, 1567920, Note_off_c, 2, 49, 0
2, 1567920, Note_on_c, 2, 52, 50
2, 1568160, Note_off_c, 2, 52, 0
2, 1568160, Note_on_c, 2, 43, 50
2, 1568640, Note_off_c, 2, 43, 0
2, 1568640, Note_on_c, 2, 47, 50
2, 1568880, Note_off_c, 2, 47, 0
2, 1568880, Note_on_c, 2, 50, 50
2, 1569120, Note_off_c, 2, 50, 0
2, 1569120, Note_on_c, 2, 45, 50
2, 1569600, Note_off_c, 2, 45, 0
2, 1569600, Note_on_c, 2, 49, 50
2, 1569840, Note_off_c, 2, 49, 0
2, 1569840, Note_on_c, 2, 52, 50
2, 1570080, Note_off_c, 2, 52, 0
2, 1570080, Note_on_c, 2, 43, 50
2, 1570560, Note_off_c, 2, 43, 0
2, 1570560, Note_on_c, 2, 47, 50
2, 1570800, Note_off_c, 2, 47, 0
2, 1570800, Note_on_c, 2, 50, 50
2, 1571040, Note_off_c, 2, 50, 0
2, 1571040, Note_on_c, 2, 45, 50
2, 1571520, Note_off_c, 2, 45, 0
2, 1571520, Note_on_c, 2, 49, 50
2, 1571760, Note_off_c, 2, 49, 0
2, 1571760, Note_on_c, 2, 52, 50
2, 1572000, Note_off_c, 2, 52, 0
2, 1572000, Note_on_c, 2, 43, 50
2, 1572480, Note_off_c, 2, 43, 0
2, 1572480, Note_on_c, 2, 47, 50
2, 1572720, Note_off_c, 2, 47, 0
2, 1572720, Note_on_c, 2, 50, 50
2, 1572960, Note_off_c, 2, 50, 0
2, 1572960, Note_on_c, 2, 45, 50
2, 1573440, Note_off_c, 2, 45, 0
2, 1573440, Note_on_c, 2, 49, 50
2, 1573680, Note_off_c, 2, 49, 0
2, 1573680, Note_on_c, 2, 52, 50
2, 1573920, Note_off_c, 2, 52, 0
2, 1573920, Note_on_c, 2, 43, 50
2, 1574400, Note_off_c, 2, 43, 0
2, 1574400, Note_on_c, 2, 47, 50
2, 1574640, Note_off_c, 2, 47, 0
2, 1574640, Note_on_c, 2, 50, 50
2, 1574880, Note_off_c, 2, 50, 0
2, 1574880, Note_on_c, 2, 45, 50
2, 1575360, Note_off_c, 2, 45, 0
2, 1575360, Note_on_c, 2, 49, 50
2, 1575600, Note_off_c, 2, 49, 0
2, 1575600, Note_on_c, 2, 52, 50
2, 1575840, Note_off_c, 2, 52, 0
2, 1575840, Note_on_c, 2, 43, 50
2, 1576320, Note_off_c, 2, 43, 0
2, 1576320, Note_on_c, 2, 47, 50
2, 1576560, Note_off_c, 2, 47, 0
2, 1576560, Note_on_c, 2, 50, 50
2, 1576800, Note_off_c, 2, 50, 0
2, 1576800, Note_on_c, 2, 45, 50
2, 1577280, Note_off_c, 2, 45, 0
2, 1577280, Note_on_c, 2, 49, 50
2, 1577520, Note_off_c, 2, 49, 0
2, 1577520, Note_on_c, 2, 52, 50
2, 1577760, Note_off_c, 2, 52, 0
2, 1577760, Note_on_c, 2, 43, 50
2, 1578240, Note_off_c, 2, 43, 0
2, 1578240, Note_on_c, 2, 47, 50
2, 1578480, Note_off_c, 2, 47, 0
2, 1578480, Note_on_c, 2, 50, 50
2, 1578720, Note_off_c, 2, 50, 0
2, 1578720, Note_on_c, 2, 45, 50
2, 1579200, Note_off_c, 2, 45, 0
2, 1579200, Note_on_c, 2, 49, 50
2, 1579440, Note_off_c, 2, 49, 0
2, 1579440, Note_on_c, 2, 52, 50
2, 1579680, Note_off_c, 2, 52, 0
2, 1579680, Note_on_c, 2, 43, 50
2, 1580160, Note_off_c, 2, 43, 0
2, 1580160, Note_on_c, 2, 47, 50
2, 1580400, Note_off_c, 2, 47, 0
2, 1580400, Note_on_c, 2, 50, 50
2, 1580640, Note_off_c, 2, 50, 0
2, 1580640, Note_on_c, 2, 45, 50
2, 1581120, Note_off_c, 2, 45, 0
2, 1581120, Note_on_c, 2, 49, 50
2, 1581360, Note_off_c, 2, 49, 0
2, 1581360, Note_on_c, 2, 52, 50
2, 1581600, Note_off_c, 2, 52, 0
2, 1581600, Note_on_c, 2, 43, 50
2, 1582080, Note_off_c, 2, 43, 0
2, 1582080, Note_on_c, 2, 47, 50
2, 1582320, Note_off_c, 2, 47, 0
2, 1582320, Note_on_c, 2, 50, 50
2, 1582560, Note_off_c, 2, 50, 0
2, 1586400, Note_on_c, 2, 50, 50
2, 1586880, Note_off_c, 2, 50, 0
2, 1586880, Note_on_c, 2, 54, 50
2, 1587120, Note_off_c, 2, 54, 0
2, 1587120, Note_on_c, 2, 57, 50
2, 1587360, Note_off_c, 2, 57, 0
2, 1587360, Note_on_c, 2, 48, 50
2, 1587840, Note_off_c, 2, 48, 0
2, 1587840, Note_on_c, 2, 52, 50
2, 1588080, Note_off_c, 2, 52, 0
2, 1588080, Note_on_c, 2, 55, 50
2, 1588320, Note_off_c, 2, 55, 0
2, 1588320, Note_on_c, 2, 50, 50
2, 1588800, Note_off_c, 2, 50, 0
2, 1588800, Note_on_c, 2, 54, 50
2, 1589040, Note_off_c, 2, 54, 0
2, 1589040, Note_on_c, 2, 57, 50
2, 1589280, Note_off_c, 2, 57, 0
2, 1589280, Note_on_c, 2, 48, 50
2, 1589760, Note_off_c, 2, 48, 0
2, 1589760, Note_on_c, 2, 52, 50
2, 1590000, Note_off_c, 2, 52, 0
2, 1590000, Note_on_c, 2, 55, 50
2, 1590240, Note_off_c, 2, 55, 0
2, 1590240, Note_on_c, 2, 50, 50
2, 1590720, Note_off_c, 2, 50, 0
2, 1590720, Note_on_c, 2, 54, 50
2, 1590960, Note_off_c, 2, 54, 0
2, 1590960, Note_on_c, 2, 57, 50
2, 1591200, Note_off_c, 2, 57, 0
2, 1591200, Note_on_c, 2, 48, 50
2, 1591680, Note_off_c, 2, 48, 0
2, 1591680, Note_on_c, 2, 52, 50
2, 1591920, Note_off_c, 2, 52, 0
2, 1591920, Note_on_c, 2, 55, 50
2, 1592160, Note_off_c, 2, 55, 0
2, 1592160, Note_on_c, 2, 50, 50
2, 1592640, Note_off_c, 2, 50, 0
2, 1592640, Note_on_c, 2, 54, 50
2, 1592880, Note_off_c, 2, 54, 0
2, 1592880, Note_on_c, 2, 57, 50
2, 1593120, Note_off_c, 2, 57, 0
2, 1593120, Note_on_c, 2, 48, 50
2, 1593600, Note_off_c, 2, 48, 0
2, 1593600, Note_on_c, 2, 52, 50
2, 1593840, Note_off_c, 2, 52, 0
2, 1593840, Note_on_c, 2, 55, 50
2, 1594080, Note_off_c, 2, 55, 0
2, 1594080, Note_on_c, 2, 50, 50
2, 1594560, Note_off_c, 2, 50, 0
2, 1594560, Note_on_c, 2, 54, 50
2, 1594800, Note_off_c, 2, 54, 0
2, 1594800, Note_on_c, 2, 57, 50
2, 1595040, Note_off_c, 2, 57, 0
2, 1595040, Note_on_c, 2, 48, 50
2, 1595520, Note_off_c, 2, 48, 0
2, 1595520, Note_on_c, 2, 52, 50
2, 1595760, Note_off_c, 2, 52, 0
2, 1595760, Note_on_c, 2, 55, 50
2, 1596000, Note_off_c, 2, 55, 0
2, 1596000, Note_on_c, 2, 50, 50
2, 1596480, Note_off_c, 2, 50, 0
2, 1596480, Note_on_c, 2, 54, 50
2, 1596720, Note_off_c, 2, 54, 0
2, 1596720, Note_on_c, 2, 57, 50
2, 1596960, Note_off_c, 2, 57, 0
2, 1596960, Note_on_c, 2, 48, 50
2, 1597440, Note_off_c, 2, 48, 0
2, 1597440, Note_on_c, 2, 52, 50
2, 1597680, Note_off_c, 2, 52, 0
2, 1597680, Note_on_c, 2, 55, 50
2, 1597920, Note_off_c, 2, 55, 0
2, 1597920, Note_on_c, 2, 50, 50
2, 1598400, Note_off_c, 2, 50, 0
2, 1598400, Note_on_c, 2, 54, 50
2, 1598640, Note_off_c, 2, 54, 0
2, 1598640, Note_on_c, 2, 57, 50
2, 1598880, Note_off_c, 2, 57, 0
2, 1598880, Note_on_c, 2, 48, 50
2, 1599360, Note_off_c, 2, 48, 0
2, 1599360, Note_on_c, 2, 52, 50
2, 1599600, Note_off_c, 2, 52, 0
2, 1599600, Note_on_c, 2, 55, 50
2, 1599840, Note_off_c, 2, 55, 0
2, 1599840, Note_on_c, 2, 50, 50
2, 1600320, Note_off_c, 2, 50, 0
2, 1600320, Note_on_c, 2, 54, 50
2, 1600560, Note_off_c, 2, 54, 0
2, 1600560, Note_on_c, 2, 57, 50
2, 1600800, Note_off_c, 2, 57, 0
2, 1600800, Note_on_c, 2, 48, 50
2, 1601280, Note_off_c, 2, 48, 0
2, 1601280, Note_on_c, 2, 52, 50
2, 1601520, Note_off_c, 2, 52, 0
2, 1601520, Note_on_c, 2, 55, 50
2, 1601760, Note_off_c, 2, 55, 0
2, 1601760, Note_on_c, 2, 50, 50
2, 1602000, Note_off_c, 2, 50, 0
2, 1602000, Note_on_c, 2, 53, 50
2, 1602240, Note_off_c, 2, 53, 0
2, 1602240, Note_on_c, 2, 50, 50
2, 1602480, Note_off_c, 2, 50, 0
2, 1602480, Note_on_c, 2, 49, 50
2, 1602720, Note_off_c, 2, 49, 0
2, 1602720, Note_on_c, 2, 48, 50
2, 1602960, Note_off_c, 2, 48, 0
2, 1602960, Note_on_c, 2, 47, 50
2, 1603200, Note_off_c, 2, 47, 0
2, 1603200, Note_on_c, 2, 48, 50
2, 1603440, Note_off_c, 2, 48, 0
2, 1603440, Note_on_c, 2, 49, 50
2, 1603680, Note_off_c, 2, 49, 0
2, 1603680, Note_on_c, 2, 50, 50
2, 1603920, Note_off_c, 2, 50, 0
2, 1603920, Note_on_c, 2, 53, 50
2, 1604160, Note_off_c, 2, 53, 0
2, 1604160, Note_on_c, 2, 50, 50
2, 1604400, Note_off_c, 2, 50, 0
2, 1604400, Note_on_c, 2, 49, 50
2, 1604640, Note_off_c, 2, 49, 0
2, 1604640, Note_on_c, 2, 48, 50
2, 1604880, Note_off_c, 2, 48, 0
2, 1604880, Note_on_c, 2, 47, 50
2, 1605120, Note_off_c, 2, 47, 0
2, 1605120, Note_on_c, 2, 48, 50
2, 1605360, Note_off_c, 2, 48, 0
2, 1605360, Note_on_c, 2, 49, 50
2, 1605600, Note_off_c, 2, 49, 0
2, 1605600, Note_on_c, 2, 50, 50
2, 1605840, Note_off_c, 2, 50, 0
2, 1605840, Note_on_c, 2, 53, 50
2, 1606080, Note_off_c, 2, 53, 0
2, 1606080, Note_on_c, 2, 50, 50
2, 1606320, Note_off_c, 2, 50, 0
2, 1606320, Note_on_c, 2, 49, 50
2, 1606560, Note_off_c, 2, 49, 0
2, 1606560, Note_on_c, 2, 48, 50
2, 1606800, Note_off_c, 2, 48, 0
2, 1606800, Note_on_c, 2, 47, 50
2, 1607040, Note_off_c, 2, 47, 0
2, 1607040, Note_on_c, 2, 48, 50
2, 1607280, Note_off_c, 2, 48, 0
2, 1607280, Note_on_c, 2, 49, 50
2, 1607520, Note_off_c, 2, 49, 0
2, 1607520, Note_on_c, 2, 50, 50
2, 1607760, Note_off_c, 2, 50, 0
2, 1607760, Note_on_c, 2, 53, 50
2, 1608000, Note_off_c, 2, 53, 0
2, 1608000, Note_on_c, 2, 50, 50
2, 1608240, Note_off_c, 2, 50, 0
2, 1608240, Note_on_c, 2, 49, 50
2, 1608480, Note_off_c, 2, 49, 0
2, 1608480, Note_on_c, 2, 48, 50
2, 1608720, Note_off_c, 2, 48, 0
2, 1608720, Note_on_c, 2, 47, 50
2, 1608960, Note_off_c, 2, 47, 0
2, 1608960, Note_on_c, 2, 48, 50
2, 1609200, Note_off_c, 2, 48, 0
2, 1609200, Note_on_c, 2, 49, 50
2, 1609440, Note_off_c, 2, 49, 0
2, 1609440, Note_on_c, 2, 50, 50
2, 1609680, Note_off_c, 2, 50, 0
2, 1609680, Note_on_c, 2, 53, 50
2, 1609920, Note_off_c, 2, 53, 0
2, 1609920, Note_on_c, 2, 50, 50
2, 1610160, Note_off_c, 2, 50, 0
2, 1610160, Note_on_c, 2, 49, 50
2, 1610400, Note_off_c, 2, 49, 0
2, 1610400, Note_on_c, 2, 48, 50
2, 1610640, Note_off_c, 2, 48, 0
2, 1610640, Note_on_c, 2, 47, 50
2, 1610880, Note_off_c, 2, 47, 0
2, 1610880, Note_on_c, 2, 48, 50
2, 1611120, Note_off_c, 2, 48, 0
2, 1611120, Note_on_c, 2, 49, 50
2, 1611360, Note_off_c, 2, 49, 0
2, 1611360, Note_on_c, 2, 50, 50
2, 1611600, Note_off_c, 2, 50, 0
2, 1611600, Note_on_c, 2, 53, 50
2, 1611840, Note_off_c, 2, 53, 0
2, 1611840, Note_on_c, 2, 50, 50
2, 1612080, Note_off_c, 2, 50, 0
2, 1612080, Note_on_c, 2, 49, 50
2, 1612320, Note_off_c, 2, 49, 0
2, 1612320, Note_on_c, 2, 48, 50
2, 1612560, Note_off_c, 2, 48, 0
2, 1612560, Note_on_c, 2, 47, 50
2, 1612800, Note_off_c, 2, 47, 0
2, 1612800, Note_on_c, 2, 48, 50
2, 1613040, Note_off_c, 2, 48, 0
2, 1613040, Note_on_c, 2, 49, 50
2, 1613280, Note_off_c, 2, 49, 0
2, 1613280, Note_on_c, 2, 50, 50
2, 1613520, Note_off_c, 2, 50, 0
2, 1613520, Note_on_c, 2, 53, 50
2, 1613760, Note_off_c, 2, 53, 0
2, 1613760, Note_on_c, 2, 50, 50
2, 1614000, Note_off_c, 2, 50, 0
2, 1614000, Note_on_c, 2, 49, 50
2, 1614240, Note_off_c, 2, 49, 0
2, 1614240, Note_on_c, 2, 48, 50
2, 1614480, Note_off_c, 2, 48, 0
2, 1614480, Note_on_c, 2, 47, 50
2, 1614720, Note_off_c, 2, 47, 0
2, 1614720, Note_on_c, 2, 48, 50
2, 1614960, Note_off_c, 2, 48, 0
2, 1614960, Note_on_c, 2, 49, 50
2, 1615200, Note_off_c, 2, 49, 0
2, 1615200, Note_on_c, 2, 50, 50
2, 1615440, Note_off_c, 2, 50, 0
2, 1615440, Note_on_c, 2, 53, 50
2, 1615680, Note_off_c, 2, 53, 0
2, 1615680, Note_on_c, 2, 50, 50
2, 1615920, Note_off_c, 2, 50, 0
2, 1615920, Note_on_c, 2, 49, 50
2, 1616160, Note_off_c, 2, 49, 0
2, 1616160, Note_on_c, 2, 48, 50
2, 1616400, Note_off_c, 2, 48, 0
2, 1616400, Note_on_c, 2, 47, 50
2, 1616640, Note_off_c, 2, 47, 0
2, 1616640, Note_on_c, 2, 48, 50
2, 1616880, Note_off_c, 2, 48, 0
2, 1616880, Note_on_c, 2, 49, 50
2, 1617120, Note_off_c, 2, 49, 0
2, 1617120, Note_on_c, 2, 50, 50
2, 1617360, Note_off_c, 2, 50, 0
2, 1617360, Note_on_c, 2, 53, 50
2, 1617600, Note_off_c, 2, 53, 0
2, 1617600, Note_on_c, 2, 50, 50
2, 1617840, Note_off_c, 2, 50, 0
2, 1617840, Note_on_c, 2, 49, 50
2, 1618080, Note_off_c, 2, 49, 0
2, 1618080, Note_on_c, 2, 48, 50
2, 1618320, Note_off_c, 2, 48, 0
2, 1618320, Note_on_c, 2, 47, 50
2, 1618560, Note_off_c, 2, 47, 0
2, 1618560, Note_on_c, 2, 48, 50
2, 1618800, Note_off_c, 2, 48, 0
2, 1618800, Note_on_c, 2, 49, 50
2, 1619040, Note_off_c, 2, 49, 0
2, 1619040, Note_on_c, 2, 50, 50
2, 1619280, Note_off_c, 2, 50, 0
2, 1619280, Note_on_c, 2, 53, 50
2, 1619520, Note_off_c, 2, 53, 0
2, 1619520, Note_on_c, 2, 50, 50
2, 1619760, Note_off_c, 2, 50, 0
2, 1619760, Note_on_c, 2, 49, 50
2, 1620000, Note_off_c, 2, 49, 0
2, 1636080, Note_on_c, 2, 63, 50
2, 1636440, Note_off_c, 2, 63, 0
2, 1636440, Note_on_c, 2, 66, 50
2, 1636680, Note_off_c, 2, 66, 0
2, 1636680, Note_on_c, 2, 70, 50
2, 1638120, Note_off_c, 2, 70, 0
2, 1638120, Note_on_c, 2, 60, 50
2, 1638480, Note_off_c, 2, 60, 0
2, 1638480, Note_on_c, 2, 72, 50
2, 1638840, Note_off_c, 2, 72, 0
2, 1638960, Note_on_c, 2, 67, 50
2, 1639200, Note_off_c, 2, 67, 0
2, 1639200, Note_on_c, 2, 63, 50
2, 1639440, Note_off_c, 2, 63, 0
2, 1639440, Note_on_c, 2, 60, 50
2, 1639560, Note_off_c, 2, 60, 0
2, 1639920, Note_on_c, 2, 63, 50
2, 1640160, Note_off_c, 2, 63, 0
2, 1640160, Note_on_c, 2, 66, 50
2, 1640400, Note_off_c, 2, 66, 0
2, 1640400, Note_on_c, 2, 70, 50
2, 1641840, Note_off_c, 2, 70, 0
2, 1641840, Note_on_c, 2, 60, 50
2, 1642080, Note_off_c, 2, 60, 0
2, 1642080, Note_on_c, 2, 63, 50
2, 1642320, Note_off_c, 2, 63, 0
2, 1642320, Note_on_c, 2, 72, 50
2, 1643160, Note_off_c, 2, 72, 0
2, 1643760, Note_on_c, 2, 63, 50
2, 1644120, Note_off_c, 2, 63, 0
2, 1644120, Note_on_c, 2, 66, 50
2, 1644360, Note_off_c, 2, 66, 0
2, 1644360, Note_on_c, 2, 70, 50
2, 1645800, Note_off_c, 2, 70, 0
2, 1645800, Note_on_c, 2, 60, 50
2, 1646160, Note_off_c, 2, 60, 0
2, 1646160, Note_on_c, 2, 72, 50
2, 1646640, Note_off_c, 2, 72, 0
2, 1646640, Note_on_c, 2, 67, 50
2, 1646880, Note_off_c, 2, 67, 0
2, 1646880, Note_on_c, 2, 63, 50
2, 1647120, Note_off_c, 2, 63, 0
2, 1647600, Note_on_c, 2, 63, 50
2, 1647960, Note_off_c, 2, 63, 0
2, 1647960, Note_on_c, 2, 66, 50
2, 1648200, Note_off_c, 2, 66, 0
2, 1648200, Note_on_c, 2, 70, 50
2, 1648920, Note_off_c, 2, 70, 0
2, 1649640, Note_on_c, 2, 60, 50
2, 1650120, Note_off_c, 2, 60, 0
2, 1650120, Note_on_c, 2, 72, 50
2, 1650480, Note_off_c, 2, 72, 0
2, 1650480, Note_on_c, 2, 67, 50
2, 1650720, Note_off_c, 2, 67, 0
2, 1650720, Note_on_c, 2, 63, 50
2, 1650960, Note_off_c, 2, 63, 0
2, 1650960, Note_on_c, 2, 67, 50
2, 1651080, Note_off_c, 2, 67, 0
2, 1651200, Note_on_c, 2, 61, 50
2, 1651800, Note_off_c, 2, 61, 0
2, 1651800, Note_on_c, 2, 73, 50
2, 1652160, Note_off_c, 2, 73, 0
2, 1652160, Note_on_c, 2, 63, 50
2, 1652760, Note_off_c, 2, 63, 0
2, 1652760, Note_on_c, 2, 70, 50
2, 1653120, Note_off_c, 2, 70, 0
2, 1653120, Note_on_c, 2, 72, 50
2, 1653480, Note_off_c, 2, 72, 0
2, 1653600, Note_on_c, 2, 72, 50
2, 1653840, Note_off_c, 2, 72, 0
2, 1653840, Note_on_c, 2, 73, 50
2, 1654320, Note_off_c, 2, 73, 0
2, 1654320, Note_on_c, 2, 72, 50
2, 1654560, Note_off_c, 2, 72, 0
2, 1654560, Note_on_c, 2, 68, 50
2, 1654800, Note_off_c, 2, 68, 0
2, 1654800, Note_on_c, 2, 63, 50
2, 1654920, Note_off_c, 2, 63, 0
2, 1655040, Note_on_c, 2, 61, 50
2, 1655640, Note_off_c, 2, 61, 0
2, 1655640, Note_on_c, 2, 73, 50
2, 1656000, Note_off_c, 2, 73, 0
2, 1656000, Note_on_c, 2, 63, 50
2, 1656600, Note_off_c, 2, 63, 0
2, 1656600, Note_on_c, 2, 70, 50
2, 1656960, Note_off_c, 2, 70, 0
2, 1656960, Note_on_c, 2, 67, 50
2, 1658880, Note_off_c, 2, 67, 0
2, 1658880, Note_on_c, 2, 67, 50
2, 1660800, Note_off_c, 2, 67, 0
2, 1660800, Note_on_c, 2, 67, 50
2, 1662720, Note_off_c, 2, 67, 0
2, 1662720, Note_on_c, 2, 68, 50
2, 1663200, Note_off_c, 2, 68, 0
2, 1663200, Note_on_c, 2, 67, 50
2, 1665120, Note_off_c, 2, 67, 0
2, 1665120, Note_on_c, 2, 67, 50
2, 1666560, Note_off_c, 2, 67, 0
2, 1666560, Note_on_c, 2, 77, 50
2, 1668000, Note_off_c, 2, 77, 0
2, 1668000, Note_on_c, 2, 63, 50
2, 1668240, Note_off_c, 2, 63, 0
2, 1668720, Note_on_c, 2, 63, 50
2, 1668960, Note_off_c, 2, 63, 0
2, 1668960, Note_on_c, 2, 70, 50
2, 1669200, Note_off_c, 2, 70, 0
2, 1669200, Note_on_c, 2, 70, 50
2, 1670640, Note_off_c, 2, 70, 0
2, 1670640, Note_on_c, 2, 60, 50
2, 1670880, Note_off_c, 2, 60, 0
2, 1670880, Note_on_c, 2, 63, 50
2, 1671120, Note_off_c, 2, 63, 0
2, 1671120, Note_on_c, 2, 72, 50
2, 1671960, Note_off_c, 2, 72, 0
2, 1672560, Note_on_c, 2, 63, 50
2, 1672920, Note_off_c, 2, 63, 0
2, 1672920, Note_on_c, 2, 66, 50
2, 1673160, Note_off_c, 2, 66, 0
2, 1673160, Note_on_c, 2, 70, 50
2, 1674600, Note_off_c, 2, 70, 0
2, 1674600, Note_on_c, 2, 60, 50
2, 1674960, Note_off_c, 2, 60, 0
2, 1674960, Note_on_c, 2, 72, 50
2, 1675440, Note_off_c, 2, 72, 0
2, 1675440, Note_on_c, 2, 67, 50
2, 1675680, Note_off_c, 2, 67, 0
2, 1675680, Note_on_c, 2, 63, 50
2, 1675920, Note_off_c, 2, 63, 0
2, 1676400, Note_on_c, 2, 63, 50
2, 1676760, Note_off_c, 2, 63, 0
2, 1676760, Note_on_c, 2, 70, 50
2, 1678200, Note_off_c, 2, 70, 0
2, 1678440, Note_on_c, 2, 60, 50
2, 1678920, Note_off_c, 2, 60, 0
2, 1678920, Note_on_c, 2, 72, 50
2, 1679280, Note_off_c, 2, 72, 0
2, 1679280, Note_on_c, 2, 67, 50
2, 1679520, Note_off_c, 2, 67, 0
2, 1679520, Note_on_c, 2, 63, 50
2, 1679760, Note_off_c, 2, 63, 0
2, 1679760, Note_on_c, 2, 67, 50
2, 1679880, Note_off_c, 2, 67, 0
2, 1680000, Note_on_c, 2, 61, 50
2, 1680600, Note_off_c, 2, 61, 0
2, 1680600, Note_on_c, 2, 73, 50
2, 1680960, Note_off_c, 2, 73, 0
2, 1680960, Note_on_c, 2, 63, 50
2, 1681560, Note_off_c, 2, 63, 0
2, 1681560, Note_on_c, 2, 70, 50
2, 1681920, Note_off_c, 2, 70, 0
2, 1681920, Note_on_c, 2, 72, 50
2, 1682280, Note_off_c, 2, 72, 0
2, 1682280, Note_on_c, 2, 67, 50
2, 1684200, Note_off_c, 2, 67, 0
2, 1684200, Note_on_c, 2, 67, 50
2, 1686120, Note_off_c, 2, 67, 0
2, 1686120, Note_on_c, 2, 68, 50
2, 1686720, Note_off_c, 2, 68, 0
2, 1686720, Note_on_c, 2, 72, 50
2, 1687680, Note_off_c, 2, 72, 0
2, 1687680, Note_on_c, 2, 77, 50
2, 1688640, Note_off_c, 2, 77, 0
2, 1688640, Note_on_c, 2, 67, 50
2, 1690560, Note_off_c, 2, 67, 0
2, 1690560, Note_on_c, 2, 68, 50
2, 1691040, Note_off_c, 2, 68, 0
2, 1691040, Note_on_c, 2, 67, 50
2, 1692960, Note_off_c, 2, 67, 0
2, 1692960, Note_on_c, 2, 67, 50
2, 1694880, Note_off_c, 2, 67, 0
2, 1694880, Note_on_c, 2, 67, 50
2, 1696800, Note_off_c, 2, 67, 0
2, 1696800, Note_on_c, 2, 67, 50
2, 1698720, Note_off_c, 2, 67, 0
2, 1698720, Note_on_c, 2, 67, 50
2, 1700640, Note_off_c, 2, 67, 0
2, 1700640, Note_on_c, 2, 67, 50
2, 1702560, Note_off_c, 2, 67, 0
2, 1702560, Note_on_c, 2, 67, 50
2, 1704480, Note_off_c, 2, 67, 0
2, 1704480, Note_on_c, 2, 67, 50
2, 1706400, Note_off_c, 2, 67, 0
2, 1706400, Note_on_c, 2, 67, 50
2, 1708320, Note_off_c, 2, 67, 0
2, 1708320, Note_on_c, 2, 67, 50
2, 1710240, Note_off_c, 2, 67, 0
2, 1710240, Note_on_c, 2, 67, 50
2, 1712160, Note_off_c, 2, 67, 0
2, 1712160, Note_on_c, 2, 67, 50
2, 1714080, Note_off_c, 2, 67, 0
2, 1714080, Note_on_c, 2, 67, 50
2, 1716000, Note_off_c, 2, 67, 0
2, 1716000, Note_on_c, 2, 67, 50
2, 1717920, Note_off_c, 2, 67, 0
2, 1717920, Note_on_c, 2, 67, 50
2, 1719840, Note_off_c, 2, 67, 0
2, 1719840, Note_on_c, 2, 67, 50
2, 1721760, Note_off_c, 2, 67, 0
2, 1721760, Note_on_c, 2, 67, 50
2, 1723680, Note_off_c, 2, 67, 0
2, 1723680, Note_on_c, 2, 67, 50
2, 1725600, Note_off_c, 2, 67, 0
2, 1725600, Note_on_c, 2, 67, 50
2, 1727520, Note_off_c, 2, 67, 0
2, 1727520, Note_on_c, 2, 67, 50
2, 1729440, Note_off_c, 2, 67, 0
2, 1729440, Note_on_c, 2, 67, 50
2, 1731120, Note_off_c, 2, 67, 0
2, 1731120, Note_on_c, 2, 75, 50
2, 1731840, Note_off_c, 2, 75, 0
2, 1732080, Note_on_c, 2, 60, 50
2, 1732440, Note_off_c, 2, 60, 0
2, 1732440, Note_on_c, 2, 72, 50
2, 1732680, Note_off_c, 2, 72, 0
2, 1733040, Note_on_c, 2, 67, 50
2, 1733160, Note_off_c, 2, 67, 0
2, 1733280, Note_on_c, 2, 63, 50
2, 1733520, Note_off_c, 2, 63, 0
2, 1733520, Note_on_c, 2, 60, 50
2, 1733640, Note_off_c, 2, 60, 0
2, 1734000, Note_on_c, 2, 63, 50
2, 1734240, Note_off_c, 2, 63, 0
2, 1734240, Note_on_c, 2, 66, 50
2, 1734480, Note_off_c, 2, 66, 0
2, 1734480, Note_on_c, 2, 70, 50
2, 1735920, Note_off_c, 2, 70, 0
2, 1735920, Note_on_c, 2, 60, 50
2, 1736160, Note_off_c, 2, 60, 0
2, 1736160, Note_on_c, 2, 63, 50
2, 1736400, Note_off_c, 2, 63, 0
2, 1736400, Note_on_c, 2, 72, 50
2, 1737240, Note_off_c, 2, 72, 0
2, 1737840, Note_on_c, 2, 63, 50
2, 1738200, Note_off_c, 2, 63, 0
2, 1738320, Note_on_c, 2, 77, 50
2, 1739280, Note_off_c, 2, 77, 0
2, 1739760, Note_on_c, 2, 60, 50
2, 1740120, Note_off_c, 2, 60, 0
2, 1740120, Note_on_c, 2, 67, 50
2, 1740360, Note_off_c, 2, 67, 0
2, 1740360, Note_on_c, 2, 72, 50
2, 1740840, Note_off_c, 2, 72, 0
2, 1740840, Note_on_c, 2, 67, 50
2, 1741080, Note_off_c, 2, 67, 0
2, 1741080, Note_on_c, 2, 63, 50
2, 1741320, Note_off_c, 2, 63, 0
2, 1741800, Note_on_c, 2, 63, 50
2, 1742160, Note_off_c, 2, 63, 0
2, 1742160, Note_on_c, 2, 70, 50
2, 1742880, Note_off_c, 2, 70, 0
2, 1743600, Note_on_c, 2, 60, 50
2, 1744080, Note_off_c, 2, 60, 0
2, 1744080, Note_on_c, 2, 72, 50
2, 1744440, Note_off_c, 2, 72, 0
2, 1744560, Note_on_c, 2, 67, 50
2, 1744920, Note_off_c, 2, 67, 0
2, 1745040, Note_on_c, 2, 67, 50
2, 1745160, Note_off_c, 2, 67, 0
2, 1745280, Note_on_c, 2, 61, 50
2, 1745880, Note_off_c, 2, 61, 0
2, 1745880, Note_on_c, 2, 73, 50
2, 1746240, Note_off_c, 2, 73, 0
2, 1746240, Note_on_c, 2, 63, 50
2, 1746840, Note_off_c, 2, 63, 0
2, 1746840, Note_on_c, 2, 70, 50
2, 1747200, Note_off_c, 2, 70, 0
2, 1747200, Note_on_c, 2, 72, 50
2, 1747560, Note_off_c, 2, 72, 0
2, 1747680, Note_on_c, 2, 72, 50
2, 1747920, Note_off_c, 2, 72, 0
2, 1747920, Note_on_c, 2, 73, 50
2, 1748400, Note_off_c, 2, 73, 0
2, 1748400, Note_on_c, 2, 72, 50
2, 1748640, Note_off_c, 2, 72, 0
2, 1748640, Note_on_c, 2, 68, 50
2, 1748880, Note_off_c, 2, 68, 0
2, 1748880, Note_on_c, 2, 63, 50
2, 1749000, Note_off_c, 2, 63, 0
2, 1749120, Note_on_c, 2, 61, 50
2, 1749720, Note_off_c, 2, 61, 0
2, 1749720, Note_on_c, 2, 73, 50
2, 1750080, Note_off_c, 2, 73, 0
2, 1750080, Note_on_c, 2, 63, 50
2, 1750680, Note_off_c, 2, 63, 0
2, 1750680, Note_on_c, 2, 70, 50
2, 1751040, Note_off_c, 2, 70, 0
2, 1751040, Note_on_c, 2, 63, 50
2, 1752000, Note_off_c, 2, 63, 0
2, 1752000, Note_on_c, 2, 72, 50
2, 1752960, Note_off_c, 2, 72, 0
2, 1752960, Note_on_c, 2, 77, 50
2, 1753920, Note_off_c, 2, 77, 0
2, 1753920, Note_on_c, 2, 56, 50
2, 1754520, Note_off_c, 2, 56, 0
2, 1754520, Note_on_c, 2, 72, 50
2, 1755000, Note_off_c, 2, 72, 0
2, 1755240, Note_on_c, 2, 58, 50
2, 1755600, Note_off_c, 2, 58, 0
2, 1755600, Note_on_c, 2, 68, 50
2, 1756080, Note_off_c, 2, 68, 0
2, 1756080, Note_on_c, 2, 70, 50
2, 1756320, Note_off_c, 2, 70, 0
2, 1756320, Note_on_c, 2, 62, 50
2, 1756680, Note_off_c, 2, 62, 0
2, 1756680, Note_on_c, 2, 68, 50
2, 1757040, Note_off_c, 2, 68, 0
2, 1757040, Note_on_c, 2, 70, 50
2, 1757280, Note_off_c, 2, 70, 0
2, 1757280, Note_on_c, 2, 62, 50
2, 1757520, Note_off_c, 2, 62, 0
2, 1757520, Note_on_c, 2, 65, 50
2, 1757880, Note_off_c, 2, 65, 0
2, 1757880, Note_on_c, 2, 68, 50
2, 1758120, Note_off_c, 2, 68, 0
2, 1758120, Note_on_c, 2, 70, 50
2, 1758360, Note_off_c, 2, 70, 0
2, 1758360, Note_on_c, 2, 65, 50
2, 1758600, Note_off_c, 2, 65, 0
2, 1758600, Note_on_c, 2, 62, 50
2, 1758840, Note_off_c, 2, 62, 0
2, 1774200, Note_on_c, 2, 61, 50
2, 1774800, Note_off_c, 2, 61, 0
2, 1774800, Note_on_c, 2, 73, 50
2, 1775160, Note_off_c, 2, 73, 0
2, 1775160, Note_on_c, 2, 63, 50
2, 1775760, Note_off_c, 2, 63, 0
2, 1775760, Note_on_c, 2, 70, 50
2, 1776120, Note_off_c, 2, 70, 0
2, 1776120, Note_on_c, 2, 72, 50
2, 1776480, Note_off_c, 2, 72, 0
2, 1776480, Note_on_c, 2, 72, 50
2, 1776720, Note_off_c, 2, 72, 0
2, 1776720, Note_on_c, 2, 73, 50
2, 1777200, Note_off_c, 2, 73, 0
2, 1777200, Note_on_c, 2, 72, 50
2, 1777440, Note_off_c, 2, 72, 0
2, 1777440, Note_on_c, 2, 68, 50
2, 1777680, Note_off_c, 2, 68, 0
2, 1777680, Note_on_c, 2, 63, 50
2, 1777800, Note_off_c, 2, 63, 0
2, 1777920, Note_on_c, 2, 61, 50
2, 1778520, Note_off_c, 2, 61, 0
2, 1778520, Note_on_c, 2, 73, 50
2, 1778880, Note_off_c, 2, 73, 0
2, 1778880, Note_on_c, 2, 63, 50
2, 1779480, Note_off_c, 2, 63, 0
2, 1779480, Note_on_c, 2, 70, 50
2, 1779840, Note_off_c, 2, 70, 0
2, 1779840, Note_on_c, 2, 72, 50
2, 1780200, Note_off_c, 2, 72, 0
2, 1780200, Note_on_c, 2, 67, 50
2, 1782120, Note_off_c, 2, 67, 0
2, 1782120, Note_on_c, 2, 67, 50
2, 1784040, Note_off_c, 2, 67, 0
2, 1784040, Note_on_c, 2, 67, 50
2, 1785960, Note_off_c, 2, 67, 0
2, 1785960, Note_on_c, 2, 67, 50
2, 1787880, Note_off_c, 2, 67, 0
2, 1787880, Note_on_c, 2, 67, 50
2, 1789800, Note_off_c, 2, 67, 0
2, 1789800, Note_on_c, 2, 67, 50
2, 1791720, Note_off_c, 2, 67, 0
2, 1791720, Note_on_c, 2, 67, 50
2, 1793640, Note_off_c, 2, 67, 0
2, 1793640, Note_on_c, 2, 67, 50
2, 1795560, Note_off_c, 2, 67, 0
2, 1795560, Note_on_c, 2, 72, 50
2, 1797120, Note_off_c, 2, 72, 0
2, 1816320, Note_on_c, 2, 64, 50
2, 1816680, Note_off_c, 2, 64, 0
2, 1816800, Note_on_c, 2, 64, 50
2, 1817160, Note_off_c, 2, 64, 0
2, 1817280, Note_on_c, 2, 64, 50
2, 1817520, Note_off_c, 2, 64, 0
2, 1817760, Note_on_c, 2, 62, 50
2, 1818000, Note_off_c, 2, 62, 0
2, 1818000, Note_on_c, 2, 62, 50
2, 1818240, Note_off_c, 2, 62, 0
2, 1818480, Note_on_c, 2, 62, 50
2, 1818960, Note_off_c, 2, 62, 0
2, 1819680, Note_on_c, 2, 62, 50
2, 1819800, Note_off_c, 2, 62, 0
2, 1819920, Note_on_c, 2, 62, 50
2, 1820160, Note_off_c, 2, 62, 0
2, 1820880, Note_on_c, 2, 62, 50
2, 1821240, Note_off_c, 2, 62, 0
2, 1821600, Note_on_c, 2, 58, 50
2, 1821720, Note_off_c, 2, 58, 0
2, 1821840, Note_on_c, 2, 58, 50
2, 1822080, Note_off_c, 2, 58, 0
2, 1822560, Note_on_c, 2, 62, 50
2, 1822920, Note_off_c, 2, 62, 0
2, 1823040, Note_on_c, 2, 62, 50
2, 1823400, Note_off_c, 2, 62, 0
2, 1823520, Note_on_c, 2, 67, 50
2, 1823880, Note_off_c, 2, 67, 0
2, 1824000, Note_on_c, 2, 64, 50
2, 1824360, Note_off_c, 2, 64, 0
2, 1824480, Note_on_c, 2, 62, 50
2, 1825320, Note_off_c, 2, 62, 0
2, 1825440, Note_on_c, 2, 62, 50
2, 1825680, Note_off_c, 2, 62, 0
2, 1825680, Note_on_c, 2, 62, 50
2, 1825920, Note_off_c, 2, 62, 0
2, 1826400, Note_on_c, 2, 62, 50
2, 1826640, Note_off_c, 2, 62, 0
2, 1826880, Note_on_c, 2, 62, 50
2, 1827120, Note_off_c, 2, 62, 0
2, 1827360, Note_on_c, 2, 58, 50
2, 1828200, Note_off_c, 2, 58, 0
2, 1828320, Note_on_c, 2, 62, 50
2, 1828440, Note_off_c, 2, 62, 0
2, 1828560, Note_on_c, 2, 62, 50
2, 1828800, Note_off_c, 2, 62, 0
2, 1829280, Note_on_c, 2, 62, 50
2, 1829520, Note_off_c, 2, 62, 0
2, 1829520, Note_on_c, 2, 62, 50
2, 1829760, Note_off_c, 2, 62, 0
2, 1830000, Note_on_c, 2, 62, 50
2, 1830480, Note_off_c, 2, 62, 0
2, 1831200, Note_on_c, 2, 64, 50
2, 1831440, Note_off_c, 2, 64, 0
2, 1831440, Note_on_c, 2, 64, 50
2, 1831680, Note_off_c, 2, 64, 0
2, 1832160, Note_on_c, 2, 64, 50
2, 1832400, Note_off_c, 2, 64, 0
2, 1832640, Note_on_c, 2, 64, 50
2, 1832880, Note_off_c, 2, 64, 0
2, 1833120, Note_on_c, 2, 61, 50
2, 1833360, Note_off_c, 2, 61, 0
2, 1833360, Note_on_c, 2, 61, 50
2, 1833600, Note_off_c, 2, 61, 0
2, 1833840, Note_on_c, 2, 61, 50
2, 1834320, Note_off_c, 2, 61, 0
2, 1835040, Note_on_c, 2, 60, 50
2, 1835160, Note_off_c, 2, 60, 0
2, 1835280, Note_on_c, 2, 60, 50
2, 1835520, Note_off_c, 2, 60, 0
2, 1836000, Note_on_c, 2, 60, 50
2, 1836360, Note_off_c, 2, 60, 0
2, 1836480, Note_on_c, 2, 67, 50
2, 1836840, Note_off_c, 2, 67, 0
2, 1836960, Note_on_c, 2, 64, 50
2, 1837800, Note_off_c, 2, 64, 0
2, 1837920, Note_on_c, 2, 64, 50
2, 1838160, Note_off_c, 2, 64, 0
2, 1838400, Note_on_c, 2, 64, 50
2, 1838640, Note_off_c, 2, 64, 0
2, 1838880, Note_on_c, 2, 64, 50
2, 1839120, Note_off_c, 2, 64, 0
2, 1839120, Note_on_c, 2, 64, 50
2, 1839360, Note_off_c, 2, 64, 0
2, 1839600, Note_on_c, 2, 64, 50
2, 1840080, Note_off_c, 2, 64, 0
2, 1840800, Note_on_c, 2, 60, 50
2, 1841640, Note_off_c, 2, 60, 0
2, 1841760, Note_on_c, 2, 67, 50
2, 1842600, Note_off_c, 2, 67, 0
2, 1842720, Note_on_c, 2, 64, 50
2, 1843560, Note_off_c, 2, 64, 0
2, 1843680, Note_on_c, 2, 64, 50
2, 1843920, Note_off_c, 2, 64, 0
2, 1844160, Note_on_c, 2, 64, 50
2, 1844400, Note_off_c, 2, 64, 0
2, 1844640, Note_on_c, 2, 64, 50
2, 1845480, Note_off_c, 2, 64, 0
2, 1845600, Note_on_c, 2, 64, 50
2, 1845840, Note_off_c, 2, 64, 0
2, 1846080, Note_on_c, 2, 64, 50
2, 1846320, Note_off_c, 2, 64, 0
2, 1846560, Note_on_c, 2, 64, 50
2, 1847400, Note_off_c, 2, 64, 0
2, 1847520, Note_on_c, 2, 64, 50
2, 1847760, Note_off_c, 2, 64, 0
2, 1848000, Note_on_c, 2, 64, 50
2, 1848240, Note_off_c, 2, 64, 0
2, 1848480, Note_on_c, 2, 64, 50
2, 1849320, Note_off_c, 2, 64, 0
2, 1849440, Note_on_c, 2, 64, 50
2, 1849680, Note_off_c, 2, 64, 0
2, 1849920, Note_on_c, 2, 64, 50
2, 1850160, Note_off_c, 2, 64, 0
2, 1850400, Note_on_c, 2, 64, 50
2, 1850640, Note_off_c, 2, 64, 0
2, 1850640, Note_on_c, 2, 64, 50
2, 1850880, Note_off_c, 2, 64, 0
2, 1851360, Note_on_c, 2, 64, 50
2, 1851600, Note_off_c, 2, 64, 0
2, 1851840, Note_on_c, 2, 64, 50
2, 1852080, Note_off_c, 2, 64, 0
2, 1852320, Note_on_c, 2, 62, 50
2, 1852560, Note_off_c, 2, 62, 0
2, 1852560, Note_on_c, 2, 62, 50
2, 1852800, Note_off_c, 2, 62, 0
2, 1853280, Note_on_c, 2, 62, 50
2, 1853520, Note_off_c, 2, 62, 0
2, 1853760, Note_on_c, 2, 62, 50
2, 1854000, Note_off_c, 2, 62, 0
2, 1854480, Note_on_c, 2, 58, 50
2, 1854840, Note_off_c, 2, 58, 0
2, 1855440, Note_on_c, 2, 62, 50
2, 1855800, Note_off_c, 2, 62, 0
2, 1856400, Note_on_c, 2, 62, 50
2, 1856760, Note_off_c, 2, 62, 0
2, 1857120, Note_on_c, 2, 62, 50
2, 1857960, Note_off_c, 2, 62, 0
2, 1858080, Note_on_c, 2, 62, 50
2, 1858440, Note_off_c, 2, 62, 0
2, 1858560, Note_on_c, 2, 64, 50
2, 1858920, Note_off_c, 2, 64, 0
2, 1859280, Note_on_c, 2, 62, 50
2, 1859640, Note_off_c, 2, 62, 0
2, 1860000, Note_on_c, 2, 62, 50
2, 1860840, Note_off_c, 2, 62, 0
2, 1860960, Note_on_c, 2, 62, 50
2, 1861200, Note_off_c, 2, 62, 0
2, 1861440, Note_on_c, 2, 62, 50
2, 1861680, Note_off_c, 2, 62, 0
2, 1862160, Note_on_c, 2, 62, 50
2, 1862520, Note_off_c, 2, 62, 0
2, 1862880, Note_on_c, 2, 62, 50
2, 1863000, Note_off_c, 2, 62, 0
2, 1863120, Note_on_c, 2, 62, 50
2, 1863360, Note_off_c, 2, 62, 0
2, 1864080, Note_on_c, 2, 62, 50
2, 1864680, Note_off_c, 2, 62, 0
2, 1864800, Note_on_c, 2, 62, 50
2, 1865160, Note_off_c, 2, 62, 0
2, 1865280, Note_on_c, 2, 62, 50
2, 1865520, Note_off_c, 2, 62, 0
2, 1865760, Note_on_c, 2, 64, 50
2, 1866120, Note_off_c, 2, 64, 0
2, 1866240, Note_on_c, 2, 64, 50
2, 1866600, Note_off_c, 2, 64, 0
2, 1866960, Note_on_c, 2, 62, 50
2, 1867320, Note_off_c, 2, 62, 0
2, 1867920, Note_on_c, 2, 64, 50
2, 1868520, Note_off_c, 2, 64, 0
2, 1868640, Note_on_c, 2, 64, 50
2, 1869000, Note_off_c, 2, 64, 0
2, 1869120, Note_on_c, 2, 64, 50
2, 1869360, Note_off_c, 2, 64, 0
2, 1869600, Note_on_c, 2, 62, 50
2, 1869720, Note_off_c, 2, 62, 0
2, 1869840, Note_on_c, 2, 62, 50
2, 1870080, Note_off_c, 2, 62, 0
2, 1870560, Note_on_c, 2, 62, 50
2, 1870920, Note_off_c, 2, 62, 0
2, 1871040, Note_on_c, 2, 68, 50
2, 1871400, Note_off_c, 2, 68, 0
2, 1871520, Note_on_c, 2, 61, 50
2, 1871880, Note_off_c, 2, 61, 0
2, 1872000, Note_on_c, 2, 65, 50
2, 1872360, Note_off_c, 2, 65, 0
2, 1872480, Note_on_c, 2, 69, 50
2, 1872840, Note_off_c, 2, 69, 0
2, 1872960, Note_on_c, 2, 61, 50
2, 1873320, Note_off_c, 2, 61, 0
2, 1873440, Note_on_c, 2, 62, 50
2, 1873800, Note_off_c, 2, 62, 0
2, 1873920, Note_on_c, 2, 62, 50
2, 1874280, Note_off_c, 2, 62, 0
2, 1874400, Note_on_c, 2, 65, 50
2, 1875240, Note_off_c, 2, 65, 0
2, 1875360, Note_on_c, 2, 65, 50
2, 1875480, Note_off_c, 2, 65, 0
2, 1875600, Note_on_c, 2, 65, 50
2, 1875840, Note_off_c, 2, 65, 0
2, 1876320, Note_on_c, 2, 62, 50
2, 1876680, Note_off_c, 2, 62, 0
2, 1876800, Note_on_c, 2, 64, 50
2, 1877160, Note_off_c, 2, 64, 0
2, 1877520, Note_on_c, 2, 62, 50
2, 1878120, Note_off_c, 2, 62, 0
2, 1878240, Note_on_c, 2, 62, 50
2, 1878600, Note_off_c, 2, 62, 0
2, 1878720, Note_on_c, 2, 62, 50
2, 1878960, Note_off_c, 2, 62, 0
2, 1879440, Note_on_c, 2, 62, 50
2, 1880040, Note_off_c, 2, 62, 0
2, 1880160, Note_on_c, 2, 62, 50
2, 1880520, Note_off_c, 2, 62, 0
2, 1880640, Note_on_c, 2, 62, 50
2, 1880880, Note_off_c, 2, 62, 0
2, 1881120, Note_on_c, 2, 58, 50
2, 1881480, Note_off_c, 2, 58, 0
2, 1881600, Note_on_c, 2, 58, 50
2, 1881960, Note_off_c, 2, 58, 0
2, 1882080, Note_on_c, 2, 62, 50
2, 1882920, Note_off_c, 2, 62, 0
2, 1883040, Note_on_c, 2, 58, 50
2, 1883400, Note_off_c, 2, 58, 0
2, 1883520, Note_on_c, 2, 58, 50
2, 1883880, Note_off_c, 2, 58, 0
2, 1884240, Note_on_c, 2, 62, 50
2, 1884600, Note_off_c, 2, 62, 0
2, 1884960, Note_on_c, 2, 62, 50
2, 1885320, Note_off_c, 2, 62, 0
2, 1885440, Note_on_c, 2, 64, 50
2, 1885800, Note_off_c, 2, 64, 0
2, 1886160, Note_on_c, 2, 62, 50
2, 1886520, Note_off_c, 2, 62, 0
2, 1887120, Note_on_c, 2, 62, 50
2, 1887720, Note_off_c, 2, 62, 0
2, 1887840, Note_on_c, 2, 62, 50
2, 1888200, Note_off_c, 2, 62, 0
2, 1888320, Note_on_c, 2, 62, 50
2, 1888560, Note_off_c, 2, 62, 0
2, 1888800, Note_on_c, 2, 62, 50
2, 1889160, Note_off_c, 2, 62, 0
2, 1889280, Note_on_c, 2, 62, 50
2, 1889640, Note_off_c, 2, 62, 0
2, 1889760, Note_on_c, 2, 62, 50
2, 1890600, Note_off_c, 2, 62, 0
2, 1890720, Note_on_c, 2, 62, 50
2, 1891560, Note_off_c, 2, 62, 0
2, 1891680, Note_on_c, 2, 62, 50
2, 1891920, Note_off_c, 2, 62, 0
2, 1892160, Note_on_c, 2, 62, 50
2, 1892400, Note_off_c, 2, 62, 0
2, 1892640, Note_on_c, 2, 64, 50
2, 1892880, Note_off_c, 2, 64, 0
2, 1892880, Note_on_c, 2, 64, 50
2, 1893120, Note_off_c, 2, 64, 0
2, 1893360, Note_on_c, 2, 64, 50
2, 1893840, Note_off_c, 2, 64, 0
2, 1894800, Note_on_c, 2, 61, 50
2, 1895400, Note_off_c, 2, 61, 0
2, 1895520, Note_on_c, 2, 61, 50
2, 1895880, Note_off_c, 2, 61, 0
2, 1896000, Note_on_c, 2, 61, 50
2, 1896240, Note_off_c, 2, 61, 0
2, 1896480, Note_on_c, 2, 60, 50
2, 1897320, Note_off_c, 2, 60, 0
2, 1897440, Note_on_c, 2, 60, 50
2, 1897800, Note_off_c, 2, 60, 0
2, 1897920, Note_on_c, 2, 67, 50
2, 1898280, Note_off_c, 2, 67, 0
2, 1898400, Note_on_c, 2, 64, 50
2, 1898640, Note_off_c, 2, 64, 0
2, 1898640, Note_on_c, 2, 64, 50
2, 1898880, Note_off_c, 2, 64, 0
2, 1899360, Note_on_c, 2, 64, 50
2, 1899600, Note_off_c, 2, 64, 0
2, 1899840, Note_on_c, 2, 64, 50
2, 1900080, Note_off_c, 2, 64, 0
2, 1900560, Note_on_c, 2, 64, 50
2, 1901160, Note_off_c, 2, 64, 0
2, 1901280, Note_on_c, 2, 64, 50
2, 1901640, Note_off_c, 2, 64, 0
2, 1901760, Note_on_c, 2, 64, 50
2, 1902000, Note_off_c, 2, 64, 0
2, 1902480, Note_on_c, 2, 60, 50
2, 1902840, Note_off_c, 2, 60, 0
2, 1903200, Note_on_c, 2, 67, 50
2, 1903560, Note_off_c, 2, 67, 0
2, 1903680, Note_on_c, 2, 67, 50
2, 1904040, Note_off_c, 2, 67, 0
2, 1904160, Note_on_c, 2, 64, 50
2, 1904400, Note_off_c, 2, 64, 0
2, 1904400, Note_on_c, 2, 64, 50
2, 1904640, Note_off_c, 2, 64, 0
2, 1904880, Note_on_c, 2, 64, 50
2, 1905360, Note_off_c, 2, 64, 0
2, 1906320, Note_on_c, 2, 64, 50
2, 1906920, Note_off_c, 2, 64, 0
2, 1907040, Note_on_c, 2, 64, 50
2, 1907400, Note_off_c, 2, 64, 0
2, 1907520, Note_on_c, 2, 64, 50
2, 1907760, Note_off_c, 2, 64, 0
2, 1908240, Note_on_c, 2, 64, 50
2, 1908840, Note_off_c, 2, 64, 0
2, 1908960, Note_on_c, 2, 64, 50
2, 1909320, Note_off_c, 2, 64, 0
2, 1909440, Note_on_c, 2, 64, 50
2, 1909680, Note_off_c, 2, 64, 0
2, 1909920, Note_on_c, 2, 64, 50
2, 1910160, Note_off_c, 2, 64, 0
2, 1910160, Note_on_c, 2, 64, 50
2, 1910400, Note_off_c, 2, 64, 0
2, 1910880, Note_on_c, 2, 64, 50
2, 1911120, Note_off_c, 2, 64, 0
2, 1911360, Note_on_c, 2, 64, 50
2, 1911600, Note_off_c, 2, 64, 0
2, 1911840, Note_on_c, 2, 64, 50
2, 1912080, Note_off_c, 2, 64, 0
2, 1912080, Note_on_c, 2, 64, 50
2, 1912320, Note_off_c, 2, 64, 0
2, 1912560, Note_on_c, 2, 64, 50
2, 1913040, Note_off_c, 2, 64, 0
2, 1952160, Note_on_c, 2, 52, 50
2, 1952640, Note_off_c, 2, 52, 0
2, 1952640, Note_on_c, 2, 57, 50
2, 1952880, Note_off_c, 2, 57, 0
2, 1952880, Note_on_c, 2, 55, 50
2, 1953240, Note_off_c, 2, 55, 0
2, 1953240, Note_on_c, 2, 57, 50
2, 1955160, Note_off_c, 2, 57, 0
2, 1956000, Note_on_c, 2, 57, 50
2, 1956720, Note_off_c, 2, 57, 0
2, 1956720, Note_on_c, 2, 55, 50
2, 1956960, Note_off_c, 2, 55, 0
2, 1956960, Note_on_c, 2, 57, 50
2, 1958160, Note_off_c, 2, 57, 0
2, 1959840, Note_on_c, 2, 50, 50
2, 1960320, Note_off_c, 2, 50, 0
2, 1960320, Note_on_c, 2, 50, 50
2, 1960560, Note_off_c, 2, 50, 0
2, 1960560, Note_on_c, 2, 53, 50
2, 1960800, Note_off_c, 2, 53, 0
2, 1960800, Note_on_c, 2, 50, 50
2, 1961760, Note_off_c, 2, 50, 0
2, 1964160, Note_on_c, 2, 57, 50
2, 1964520, Note_off_c, 2, 57, 0
2, 1964640, Note_on_c, 2, 52, 50
2, 1964880, Note_off_c, 2, 52, 0
2, 1964880, Note_on_c, 2, 50, 50
2, 1965120, Note_off_c, 2, 50, 0
2, 1965120, Note_on_c, 2, 48, 50
2, 1965240, Note_off_c, 2, 48, 0
2, 1973160, Note_on_c, 2, 59, 50
2, 1973280, Note_off_c, 2, 59, 0
2, 1973280, Note_on_c, 2, 60, 50
2, 1973520, Note_off_c, 2, 60, 0
2, 1973520, Note_on_c, 2, 57, 50
2, 1973760, Note_off_c, 2, 57, 0
2, 1973760, Note_on_c, 2, 60, 50
2, 1973880, Note_off_c, 2, 60, 0
2, 1974000, Note_on_c, 2, 62, 50
2, 1974480, Note_off_c, 2, 62, 0
2, 1974480, Note_on_c, 2, 60, 50
2, 1974720, Note_off_c, 2, 60, 0
2, 1974720, Note_on_c, 2, 62, 50
2, 1974840, Note_off_c, 2, 62, 0
2, 1974960, Note_on_c, 2, 64, 50
2, 1975560, Note_off_c, 2, 64, 0
2, 1975680, Note_on_c, 2, 64, 50
2, 1975920, Note_off_c, 2, 64, 0
2, 1975920, Note_on_c, 2, 62, 50
2, 1976280, Note_off_c, 2, 62, 0
2, 1976400, Note_on_c, 2, 60, 50
2, 1976640, Note_off_c, 2, 60, 0
2, 1976640, Note_on_c, 2, 62, 50
2, 1976880, Note_off_c, 2, 62, 0
2, 1976880, Note_on_c, 2, 60, 50
2, 1977000, Note_off_c, 2, 60, 0
2, 1977000, Note_on_c, 2, 59, 50
2, 1977120, Note_off_c, 2, 59, 0
2, 1977120, Note_on_c, 2, 60, 50
2, 1977360, Note_off_c, 2, 60, 0
2, 1977480, Note_on_c, 2, 60, 50
2, 1977600, Note_off_c, 2, 60, 0
2, 1977720, Note_on_c, 2, 61, 50
2, 1977840, Note_off_c, 2, 61, 0
2, 1977840, Note_on_c, 2, 62, 50
2, 1978320, Note_off_c, 2, 62, 0
2, 1978440, Note_on_c, 2, 62, 50
2, 1978560, Note_off_c, 2, 62, 0
2, 1978680, Note_on_c, 2, 63, 50
2, 1978800, Note_off_c, 2, 63, 0
2, 1978800, Note_on_c, 2, 64, 50
2, 1979280, Note_off_c, 2, 64, 0
2, 1979400, Note_on_c, 2, 64, 50
2, 1979520, Note_off_c, 2, 64, 0
2, 1979640, Note_on_c, 2, 61, 50
2, 1979760, Note_off_c, 2, 61, 0
2, 1979760, Note_on_c, 2, 62, 50
2, 1980240, Note_off_c, 2, 62, 0
2, 1980240, Note_on_c, 2, 59, 50
2, 1980480, Note_off_c, 2, 59, 0
2, 1980480, Note_on_c, 2, 62, 50
2, 1980840, Note_off_c, 2, 62, 0
2, 1981200, Note_on_c, 2, 65, 50
2, 1981920, Note_off_c, 2, 65, 0
2, 1981920, Note_on_c, 2, 67, 50
2, 1982040, Note_off_c, 2, 67, 0
2, 1982160, Note_on_c, 2, 67, 50
2, 1982760, Note_off_c, 2, 67, 0
2, 1982880, Note_on_c, 2, 69, 50
2, 1983000, Note_off_c, 2, 69, 0
2, 1983120, Note_on_c, 2, 69, 50
2, 1983720, Note_off_c, 2, 69, 0
2, 1983840, Note_on_c, 2, 71, 50
2, 1983960, Note_off_c, 2, 71, 0
2, 1984080, Note_on_c, 2, 71, 50
2, 1984560, Note_off_c, 2, 71, 0
2, 1984800, Note_on_c, 2, 60, 50
2, 1985040, Note_off_c, 2, 60, 0
2, 1985040, Note_on_c, 2, 57, 50
2, 1985400, Note_off_c, 2, 57, 0
2, 1985520, Note_on_c, 2, 62, 50
2, 1986000, Note_off_c, 2, 62, 0
2, 1986000, Note_on_c, 2, 60, 50
2, 1986240, Note_off_c, 2, 60, 0
2, 1986240, Note_on_c, 2, 62, 50
2, 1986360, Note_off_c, 2, 62, 0
2, 1986480, Note_on_c, 2, 64, 50
2, 1986960, Note_off_c, 2, 64, 0
2, 1986960, Note_on_c, 2, 60, 50
2, 1987320, Note_off_c, 2, 60, 0
2, 1987440, Note_on_c, 2, 62, 50
2, 1987920, Note_off_c, 2, 62, 0
2, 1987920, Note_on_c, 2, 60, 50
2, 1988160, Note_off_c, 2, 60, 0
2, 1988160, Note_on_c, 2, 62, 50
2, 1988520, Note_off_c, 2, 62, 0
2, 1988640, Note_on_c, 2, 60, 50
2, 1988760, Note_off_c, 2, 60, 0
2, 1989120, Note_on_c, 2, 62, 50
2, 1990560, Note_off_c, 2, 62, 0
2, 1990560, Note_on_c, 2, 62, 50
2, 1990680, Note_off_c, 2, 62, 0
2, 1990800, Note_on_c, 2, 65, 50
2, 1992360, Note_off_c, 2, 65, 0
2, 1992360, Note_on_c, 2, 57, 50
2, 1992480, Note_off_c, 2, 57, 0
2, 1992480, Note_on_c, 2, 60, 50
2, 1992600, Note_off_c, 2, 60, 0
2, 1992720, Note_on_c, 2, 57, 50
2, 1992960, Note_off_c, 2, 57, 0
2, 1992960, Note_on_c, 2, 60, 50
2, 1993080, Note_off_c, 2, 60, 0
2, 1993200, Note_on_c, 2, 62, 50
2, 1993680, Note_off_c, 2, 62, 0
2, 1993680, Note_on_c, 2, 60, 50
2, 1993920, Note_off_c, 2, 60, 0
2, 1993920, Note_on_c, 2, 62, 50
2, 1994040, Note_off_c, 2, 62, 0
2, 1994160, Note_on_c, 2, 64, 50
2, 1994640, Note_off_c, 2, 64, 0
2, 1994640, Note_on_c, 2, 60, 50
2, 1994880, Note_off_c, 2, 60, 0
2, 1994880, Note_on_c, 2, 64, 50
2, 1995000, Note_off_c, 2, 64, 0
2, 1995120, Note_on_c, 2, 62, 50
2, 1995600, Note_off_c, 2, 62, 0
2, 1995600, Note_on_c, 2, 60, 50
2, 1995840, Note_off_c, 2, 60, 0
2, 1995840, Note_on_c, 2, 62, 50
2, 1996080, Note_off_c, 2, 62, 0
2, 1996080, Note_on_c, 2, 57, 50
2, 1996200, Note_off_c, 2, 57, 0
2, 1996200, Note_on_c, 2, 57, 50
2, 1996560, Note_off_c, 2, 57, 0
2, 1996680, Note_on_c, 2, 57, 50
2, 1996800, Note_off_c, 2, 57, 0
2, 1996920, Note_on_c, 2, 60, 50
2, 1997160, Note_off_c, 2, 60, 0
2, 1997160, Note_on_c, 2, 57, 50
2, 1998120, Note_off_c, 2, 57, 0
2, 1998480, Note_on_c, 2, 45, 50
2, 1998600, Note_off_c, 2, 45, 0
2, 1998600, Note_on_c, 2, 48, 50
2, 1998720, Note_off_c, 2, 48, 0
2, 1998720, Note_on_c, 2, 50, 50
2, 1998840, Note_off_c, 2, 50, 0
2, 1998840, Note_on_c, 2, 52, 50
2, 1998960, Note_off_c, 2, 52, 0
2, 1998960, Note_on_c, 2, 55, 50
2, 1999080, Note_off_c, 2, 55, 0
2, 1999080, Note_on_c, 2, 57, 50
2, 1999200, Note_off_c, 2, 57, 0
2, 1999200, Note_on_c, 2, 60, 50
2, 1999320, Note_off_c, 2, 60, 0
2, 1999320, Note_on_c, 2, 62, 50
2, 1999440, Note_off_c, 2, 62, 0
2, 1999440, Note_on_c, 2, 64, 50
2, 1999680, Note_off_c, 2, 64, 0
2, 1999680, Note_on_c, 2, 69, 50
2, 1999920, Note_off_c, 2, 69, 0
2, 2000040, Note_on_c, 2, 64, 50
2, 2000400, Note_off_c, 2, 64, 0
2, 2000520, Note_on_c, 2, 69, 50
2, 2000880, Note_off_c, 2, 69, 0
2, 2000880, Note_on_c, 2, 67, 50
2, 2001120, Note_off_c, 2, 67, 0
2, 2001120, Note_on_c, 2, 64, 50
2, 2001960, Note_off_c, 2, 64, 0
2, 2001960, Note_on_c, 2, 62, 50
2, 2002320, Note_off_c, 2, 62, 0
2, 2002440, Note_on_c, 2, 62, 50
2, 2002800, Note_off_c, 2, 62, 0
2, 2002800, Note_on_c, 2, 57, 50
2, 2002920, Note_off_c, 2, 57, 0
2, 2003040, Note_on_c, 2, 57, 50
2, 2003520, Note_off_c, 2, 57, 0
2, 2003520, Note_on_c, 2, 55, 50
2, 2003760, Note_off_c, 2, 55, 0
2, 2003760, Note_on_c, 2, 52, 50
2, 2003880, Note_off_c, 2, 52, 0
2, 2004000, Note_on_c, 2, 50, 50
2, 2004120, Note_off_c, 2, 50, 0
2, 2004480, Note_on_c, 2, 50, 50
2, 2004600, Note_off_c, 2, 50, 0
2, 2004720, Note_on_c, 2, 53, 50
2, 2004960, Note_off_c, 2, 53, 0
2, 2004960, Note_on_c, 2, 50, 50
2, 2005800, Note_off_c, 2, 50, 0
2, 2005920, Note_on_c, 2, 57, 50
2, 2006040, Note_off_c, 2, 57, 0
2, 2006040, Note_on_c, 2, 53, 50
2, 2006160, Note_off_c, 2, 53, 0
2, 2006400, Note_on_c, 2, 62, 50
2, 2006520, Note_off_c, 2, 62, 0
2, 2006520, Note_on_c, 2, 57, 50
2, 2006640, Note_off_c, 2, 57, 0
2, 2006880, Note_on_c, 2, 65, 50
2, 2007000, Note_off_c, 2, 65, 0
2, 2007000, Note_on_c, 2, 62, 50
2, 2007240, Note_off_c, 2, 62, 0
2, 2007600, Note_on_c, 2, 64, 50
2, 2008320, Note_off_c, 2, 64, 0
2, 2008560, Note_on_c, 2, 60, 50
2, 2008800, Note_off_c, 2, 60, 0
2, 2008800, Note_on_c, 2, 57, 50
2, 2009520, Note_off_c, 2, 57, 0
2, 2009760, Note_on_c, 2, 64, 50
2, 2010240, Note_off_c, 2, 64, 0
2, 2010240, Note_on_c, 2, 62, 50
2, 2010480, Note_off_c, 2, 62, 0
2, 2010480, Note_on_c, 2, 60, 50
2, 2010720, Note_off_c, 2, 60, 0
2, 2010720, Note_on_c, 2, 64, 50
2, 2011440, Note_off_c, 2, 64, 0
2, 2011560, Note_on_c, 2, 64, 50
2, 2011800, Note_off_c, 2, 64, 0
2, 2012160, Note_on_c, 2, 62, 50
2, 2013480, Note_off_c, 2, 62, 0
2, 2013600, Note_on_c, 2, 62, 50
2, 2013720, Note_off_c, 2, 62, 0
2, 2013840, Note_on_c, 2, 60, 50
2, 2015520, Note_off_c, 2, 60, 0
2, 2019240, Note_on_c, 2, 59, 50
2, 2019360, Note_off_c, 2, 59, 0
2, 2019360, Note_on_c, 2, 60, 50
2, 2019600, Note_off_c, 2, 60, 0
2, 2019720, Note_on_c, 2, 60, 50
2, 2019840, Note_off_c, 2, 60, 0
2, 2019960, Note_on_c, 2, 61, 50
2, 2020080, Note_off_c, 2, 61, 0
2, 2020080, Note_on_c, 2, 62, 50
2, 2020560, Note_off_c, 2, 62, 0
2, 2020560, Note_on_c, 2, 60, 50
2, 2020920, Note_off_c, 2, 60, 0
2, 2021040, Note_on_c, 2, 64, 50
2, 2021520, Note_off_c, 2, 64, 0
2, 2021520, Note_on_c, 2, 60, 50
2, 2022000, Note_off_c, 2, 60, 0
2, 2022000, Note_on_c, 2, 62, 50
2, 2022480, Note_off_c, 2, 62, 0
2, 2022480, Note_on_c, 2, 60, 50
2, 2022720, Note_off_c, 2, 60, 0
2, 2022720, Note_on_c, 2, 62, 50
2, 2022960, Note_off_c, 2, 62, 0
2, 2022960, Note_on_c, 2, 60, 50
2, 2023080, Note_off_c, 2, 60, 0
2, 2023200, Note_on_c, 2, 60, 50
2, 2023440, Note_off_c, 2, 60, 0
2, 2023440, Note_on_c, 2, 57, 50
2, 2023680, Note_off_c, 2, 57, 0
2, 2023680, Note_on_c, 2, 60, 50
2, 2023920, Note_off_c, 2, 60, 0
2, 2023920, Note_on_c, 2, 62, 50
2, 2024400, Note_off_c, 2, 62, 0
2, 2024400, Note_on_c, 2, 60, 50
2, 2024640, Note_off_c, 2, 60, 0
2, 2024640, Note_on_c, 2, 62, 50
2, 2024760, Note_off_c, 2, 62, 0
2, 2024880, Note_on_c, 2, 64, 50
2, 2025360, Note_off_c, 2, 64, 0
2, 2025360, Note_on_c, 2, 60, 50
2, 2025840, Note_off_c, 2, 60, 0
2, 2025840, Note_on_c, 2, 62, 50
2, 2026320, Note_off_c, 2, 62, 0
2, 2026320, Note_on_c, 2, 60, 50
2, 2026560, Note_off_c, 2, 60, 0
2, 2026560, Note_on_c, 2, 62, 50
2, 2026800, Note_off_c, 2, 62, 0
2, 2026800, Note_on_c, 2, 57, 50
2, 2027040, Note_off_c, 2, 57, 0
2, 2027040, Note_on_c, 2, 60, 50
2, 2027280, Note_off_c, 2, 60, 0
2, 2027280, Note_on_c, 2, 57, 50
2, 2027520, Note_off_c, 2, 57, 0
2, 2027640, Note_on_c, 2, 61, 50
2, 2027760, Note_off_c, 2, 61, 0
2, 2027760, Note_on_c, 2, 62, 50
2, 2028240, Note_off_c, 2, 62, 0
2, 2028360, Note_on_c, 2, 62, 50
2, 2028600, Note_off_c, 2, 62, 0
2, 2028720, Note_on_c, 2, 64, 50
2, 2029200, Note_off_c, 2, 64, 0
2, 2029200, Note_on_c, 2, 60, 50
2, 2029560, Note_off_c, 2, 60, 0
2, 2029680, Note_on_c, 2, 62, 50
2, 2030160, Note_off_c, 2, 62, 0
2, 2030160, Note_on_c, 2, 60, 50
2, 2030400, Note_off_c, 2, 60, 0
2, 2030400, Note_on_c, 2, 62, 50
2, 2030640, Note_off_c, 2, 62, 0
2, 2030640, Note_on_c, 2, 60, 50
2, 2030760, Note_off_c, 2, 60, 0
2, 2030760, Note_on_c, 2, 65, 50
2, 2030880, Note_off_c, 2, 65, 0
2, 2031120, Note_on_c, 2, 65, 50
2, 2031840, Note_off_c, 2, 65, 0
2, 2032080, Note_on_c, 2, 67, 50
2, 2032800, Note_off_c, 2, 67, 0
2, 2032800, Note_on_c, 2, 65, 50
2, 2032920, Note_off_c, 2, 65, 0
2, 2032920, Note_on_c, 2, 69, 50
2, 2033640, Note_off_c, 2, 69, 0
2, 2033640, Note_on_c, 2, 71, 50
2, 2033760, Note_off_c, 2, 71, 0
2, 2033760, Note_on_c, 2, 67, 50
2, 2033880, Note_off_c, 2, 67, 0
2, 2033880, Note_on_c, 2, 67, 50
2, 2034360, Note_off_c, 2, 67, 0
2, 2034360, Note_on_c, 2, 71, 50
2, 2034840, Note_off_c, 2, 71, 0
2, 2034840, Note_on_c, 2, 60, 50
2, 2035080, Note_off_c, 2, 60, 0
2, 2035080, Note_on_c, 2, 60, 50
2, 2035200, Note_off_c, 2, 60, 0
2, 2035440, Note_on_c, 2, 62, 50
2, 2035920, Note_off_c, 2, 62, 0
2, 2035920, Note_on_c, 2, 60, 50
2, 2036280, Note_off_c, 2, 60, 0
2, 2036400, Note_on_c, 2, 64, 50
2, 2036880, Note_off_c, 2, 64, 0
2, 2036880, Note_on_c, 2, 60, 50
2, 2037360, Note_off_c, 2, 60, 0
2, 2037360, Note_on_c, 2, 62, 50
2, 2037840, Note_off_c, 2, 62, 0
2, 2037840, Note_on_c, 2, 60, 50
2, 2038080, Note_off_c, 2, 60, 0
2, 2038080, Note_on_c, 2, 62, 50
2, 2038320, Note_off_c, 2, 62, 0
2, 2038320, Note_on_c, 2, 60, 50
2, 2038440, Note_off_c, 2, 60, 0
2, 2038560, Note_on_c, 2, 64, 50
2, 2038800, Note_off_c, 2, 64, 0
2, 2039040, Note_on_c, 2, 62, 50
2, 2040360, Note_off_c, 2, 62, 0
2, 2040480, Note_on_c, 2, 62, 50
2, 2040600, Note_off_c, 2, 62, 0
2, 2040720, Note_on_c, 2, 60, 50
2, 2042160, Note_off_c, 2, 60, 0
2, 2042280, Note_on_c, 2, 59, 50
2, 2042400, Note_off_c, 2, 59, 0
2, 2042400, Note_on_c, 2, 60, 50
2, 2042520, Note_off_c, 2, 60, 0
2, 2042520, Note_on_c, 2, 57, 50
2, 2042760, Note_off_c, 2, 57, 0
2, 2042760, Note_on_c, 2, 60, 50
2, 2042880, Note_off_c, 2, 60, 0
2, 2043000, Note_on_c, 2, 61, 50
2, 2043120, Note_off_c, 2, 61, 0
2, 2043120, Note_on_c, 2, 62, 50
2, 2043600, Note_off_c, 2, 62, 0
2, 2043600, Note_on_c, 2, 60, 50
2, 2043960, Note_off_c, 2, 60, 0
2, 2044080, Note_on_c, 2, 64, 50
2, 2044560, Note_off_c, 2, 64, 0
2, 2044560, Note_on_c, 2, 60, 50
2, 2045040, Note_off_c, 2, 60, 0
2, 2045040, Note_on_c, 2, 62, 50
2, 2045520, Note_off_c, 2, 62, 0
2, 2045520, Note_on_c, 2, 60, 50
2, 2045760, Note_off_c, 2, 60, 0
2, 2045760, Note_on_c, 2, 62, 50
2, 2046000, Note_off_c, 2, 62, 0
2, 2046000, Note_on_c, 2, 57, 50
2, 2046240, Note_off_c, 2, 57, 0
2, 2119200, Note_on_c, 2, 60, 50
2, 2119440, Note_off_c, 2, 60, 0
2, 2119440, Note_on_c, 2, 57, 50
2, 2119680, Note_off_c, 2, 57, 0
2, 2119680, Note_on_c, 2, 60, 50
2, 2119920, Note_off_c, 2, 60, 0
2, 2119920, Note_on_c, 2, 62, 50
2, 2120400, Note_off_c, 2, 62, 0
2, 2120400, Note_on_c, 2, 60, 50
2, 2120760, Note_off_c, 2, 60, 0
2, 2120760, Note_on_c, 2, 62, 50
2, 2121000, Note_off_c, 2, 62, 0
2, 2121000, Note_on_c, 2, 64, 50
2, 2121480, Note_off_c, 2, 64, 0
2, 2121480, Note_on_c, 2, 60, 50
2, 2121720, Note_off_c, 2, 60, 0
2, 2121840, Note_on_c, 2, 62, 50
2, 2122320, Note_off_c, 2, 62, 0
2, 2122320, Note_on_c, 2, 60, 50
2, 2122560, Note_off_c, 2, 60, 0
2, 2122560, Note_on_c, 2, 62, 50
2, 2122920, Note_off_c, 2, 62, 0
2, 2123040, Note_on_c, 2, 60, 50
2, 2123280, Note_off_c, 2, 60, 0
2, 2123280, Note_on_c, 2, 57, 50
2, 2123520, Note_off_c, 2, 57, 0
2, 2123520, Note_on_c, 2, 60, 50
2, 2123760, Note_off_c, 2, 60, 0
2, 2123760, Note_on_c, 2, 62, 50
2, 2124240, Note_off_c, 2, 62, 0
2, 2124240, Note_on_c, 2, 60, 50
2, 2124480, Note_off_c, 2, 60, 0
2, 2124480, Note_on_c, 2, 62, 50
2, 2124720, Note_off_c, 2, 62, 0
2, 2124720, Note_on_c, 2, 64, 50
2, 2125200, Note_off_c, 2, 64, 0
2, 2125200, Note_on_c, 2, 60, 50
2, 2125560, Note_off_c, 2, 60, 0
2, 2125560, Note_on_c, 2, 64, 50
2, 2125800, Note_off_c, 2, 64, 0
2, 2125800, Note_on_c, 2, 62, 50
2, 2126280, Note_off_c, 2, 62, 0
2, 2126280, Note_on_c, 2, 60, 50
2, 2126520, Note_off_c, 2, 60, 0
2, 2126520, Note_on_c, 2, 62, 50
2, 2126760, Note_off_c, 2, 62, 0
2, 2126880, Note_on_c, 2, 60, 50
2, 2127120, Note_off_c, 2, 60, 0
2, 2127120, Note_on_c, 2, 57, 50
2, 2127360, Note_off_c, 2, 57, 0
2, 2127360, Note_on_c, 2, 60, 50
2, 2127600, Note_off_c, 2, 60, 0
2, 2127600, Note_on_c, 2, 62, 50
2, 2128080, Note_off_c, 2, 62, 0
2, 2128080, Note_on_c, 2, 60, 50
2, 2128440, Note_off_c, 2, 60, 0
2, 2128560, Note_on_c, 2, 63, 50
2, 2128680, Note_off_c, 2, 63, 0
2, 2128680, Note_on_c, 2, 64, 50
2, 2129160, Note_off_c, 2, 64, 0
2, 2129280, Note_on_c, 2, 64, 50
2, 2129400, Note_off_c, 2, 64, 0
2, 2129520, Note_on_c, 2, 62, 50
2, 2130000, Note_off_c, 2, 62, 0
2, 2130000, Note_on_c, 2, 60, 50
2, 2130240, Note_off_c, 2, 60, 0
2, 2130240, Note_on_c, 2, 62, 50
2, 2130600, Note_off_c, 2, 62, 0
2, 2130720, Note_on_c, 2, 60, 50
2, 2130960, Note_off_c, 2, 60, 0
2, 2130960, Note_on_c, 2, 57, 50
2, 2131200, Note_off_c, 2, 57, 0
2, 2131200, Note_on_c, 2, 60, 50
2, 2131440, Note_off_c, 2, 60, 0
2, 2131440, Note_on_c, 2, 62, 50
2, 2131920, Note_off_c, 2, 62, 0
2, 2131920, Note_on_c, 2, 60, 50
2, 2132160, Note_off_c, 2, 60, 0
2, 2132160, Note_on_c, 2, 62, 50
2, 2132280, Note_off_c, 2, 62, 0
2, 2132400, Note_on_c, 2, 64, 50
2, 2132880, Note_off_c, 2, 64, 0
2, 2132880, Note_on_c, 2, 60, 50
2, 2133360, Note_off_c, 2, 60, 0
2, 2133360, Note_on_c, 2, 62, 50
2, 2133840, Note_off_c, 2, 62, 0
2, 2133840, Note_on_c, 2, 60, 50
2, 2134080, Note_off_c, 2, 60, 0
2, 2134080, Note_on_c, 2, 62, 50
2, 2134320, Note_off_c, 2, 62, 0
2, 2134320, Note_on_c, 2, 57, 50
2, 2134560, Note_off_c, 2, 57, 0
2, 2134560, Note_on_c, 2, 60, 50
2, 2134800, Note_off_c, 2, 60, 0
2, 2134800, Note_on_c, 2, 57, 50
2, 2135040, Note_off_c, 2, 57, 0
2, 2135160, Note_on_c, 2, 61, 50
2, 2135280, Note_off_c, 2, 61, 0
2, 2135280, Note_on_c, 2, 62, 50
2, 2135760, Note_off_c, 2, 62, 0
2, 2135880, Note_on_c, 2, 62, 50
2, 2136120, Note_off_c, 2, 62, 0
2, 2136240, Note_on_c, 2, 64, 50
2, 2136720, Note_off_c, 2, 64, 0
2, 2136720, Note_on_c, 2, 60, 50
2, 2137080, Note_off_c, 2, 60, 0
2, 2137200, Note_on_c, 2, 62, 50
2, 2137680, Note_off_c, 2, 62, 0
2, 2137680, Note_on_c, 2, 60, 50
2, 2137920, Note_off_c, 2, 60, 0
2, 2137920, Note_on_c, 2, 62, 50
2, 2138160, Note_off_c, 2, 62, 0
2, 2138160, Note_on_c, 2, 60, 50
2, 2138280, Note_off_c, 2, 60, 0
2, 2138280, Note_on_c, 2, 65, 50
2, 2138400, Note_off_c, 2, 65, 0
2, 2138640, Note_on_c, 2, 65, 50
2, 2139360, Note_off_c, 2, 65, 0
2, 2139600, Note_on_c, 2, 67, 50
2, 2140320, Note_off_c, 2, 67, 0
2, 2140320, Note_on_c, 2, 65, 50
2, 2140440, Note_off_c, 2, 65, 0
2, 2140440, Note_on_c, 2, 69, 50
2, 2141160, Note_off_c, 2, 69, 0
2, 2141160, Note_on_c, 2, 71, 50
2, 2141280, Note_off_c, 2, 71, 0
2, 2141280, Note_on_c, 2, 67, 50
2, 2141400, Note_off_c, 2, 67, 0
2, 2141400, Note_on_c, 2, 67, 50
2, 2141880, Note_off_c, 2, 67, 0
2, 2141880, Note_on_c, 2, 71, 50
2, 2142360, Note_off_c, 2, 71, 0
2, 2142360, Note_on_c, 2, 60, 50
2, 2142600, Note_off_c, 2, 60, 0
2, 2142600, Note_on_c, 2, 60, 50
2, 2142720, Note_off_c, 2, 60, 0
2, 2142960, Note_on_c, 2, 62, 50
2, 2143440, Note_off_c, 2, 62, 0
2, 2143440, Note_on_c, 2, 60, 50
2, 2143800, Note_off_c, 2, 60, 0
2, 2143920, Note_on_c, 2, 64, 50
2, 2144400, Note_off_c, 2, 64, 0
2, 2144400, Note_on_c, 2, 60, 50
2, 2144880, Note_off_c, 2, 60, 0
2, 2144880, Note_on_c, 2, 62, 50
2, 2145360, Note_off_c, 2, 62, 0
2, 2145360, Note_on_c, 2, 60, 50
2, 2145600, Note_off_c, 2, 60, 0
2, 2145600, Note_on_c, 2, 62, 50
2, 2145840, Note_off_c, 2, 62, 0
2, 2145840, Note_on_c, 2, 60, 50
2, 2145960, Note_off_c, 2, 60, 0
2, 2146080, Note_on_c, 2, 64, 50
2, 2146320, Note_off_c, 2, 64, 0
2, 2146560, Note_on_c, 2, 62, 50
2, 2147880, Note_off_c, 2, 62, 0
2, 2148000, Note_on_c, 2, 62, 50
2, 2148120, Note_off_c, 2, 62, 0
2, 2148240, Note_on_c, 2, 60, 50
2, 2149680, Note_off_c, 2, 60, 0
2, 2149800, Note_on_c, 2, 59, 50
2, 2149920, Note_off_c, 2, 59, 0
2, 2149920, Note_on_c, 2, 60, 50
2, 2150040, Note_off_c, 2, 60, 0
2, 2150040, Note_on_c, 2, 57, 50
2, 2150280, Note_off_c, 2, 57, 0
2, 2150280, Note_on_c, 2, 60, 50
2, 2150400, Note_off_c, 2, 60, 0
2, 2150520, Note_on_c, 2, 61, 50
2, 2150640, Note_off_c, 2, 61, 0
2, 2150640, Note_on_c, 2, 62, 50
2, 2151120, Note_off_c, 2, 62, 0
2, 2151120, Note_on_c, 2, 60, 50
2, 2151480, Note_off_c, 2, 60, 0
2, 2151600, Note_on_c, 2, 64, 50
2, 2152080, Note_off_c, 2, 64, 0
2, 2152080, Note_on_c, 2, 60, 50
2, 2152560, Note_off_c, 2, 60, 0
2, 2152560, Note_on_c, 2, 62, 50
2, 2153040, Note_off_c, 2, 62, 0
2, 2153040, Note_on_c, 2, 60, 50
2, 2153280, Note_off_c, 2, 60, 0
2, 2153280, Note_on_c, 2, 62, 50
2, 2153520, Note_off_c, 2, 62, 0
2, 2153520, Note_on_c, 2, 57, 50
2, 2153760, Note_off_c, 2, 57, 0
2, 2153760, Note_on_c, 2, 60, 50
2, 2154000, Note_off_c, 2, 60, 0
2, 2154000, Note_on_c, 2, 57, 50
2, 2154240, Note_off_c, 2, 57, 0
2, 2154360, Note_on_c, 2, 61, 50
2, 2154480, Note_off_c, 2, 61, 0
2, 2154480, Note_on_c, 2, 62, 50
2, 2154960, Note_off_c, 2, 62, 0
2, 2155080, Note_on_c, 2, 62, 50
2, 2155200, Note_off_c, 2, 62, 0
2, 2155320, Note_on_c, 2, 63, 50
2, 2155440, Note_off_c, 2, 63, 0
2, 2155440, Note_on_c, 2, 64, 50
2, 2155920, Note_off_c, 2, 64, 0
2, 2155920, Note_on_c, 2, 60, 50
2, 2156400, Note_off_c, 2, 60, 0
2, 2156400, Note_on_c, 2, 62, 50
2, 2156880, Note_off_c, 2, 62, 0
2, 2156880, Note_on_c, 2, 60, 50
2, 2157120, Note_off_c, 2, 60, 0
2, 2157120, Note_on_c, 2, 62, 50
2, 2157360, Note_off_c, 2, 62, 0
2, 2157360, Note_on_c, 2, 57, 50
2, 2157600, Note_off_c, 2, 57, 0
2, 2157600, Note_on_c, 2, 60, 50
2, 2157840, Note_off_c, 2, 60, 0
2, 2157840, Note_on_c, 2, 57, 50
2, 2158080, Note_off_c, 2, 57, 0
2, 2158080, Note_on_c, 2, 60, 50
2, 2158320, Note_off_c, 2, 60, 0
2, 2158320, Note_on_c, 2, 62, 50
2, 2158800, Note_off_c, 2, 62, 0
2, 2158800, Note_on_c, 2, 60, 50
2, 2159040, Note_off_c, 2, 60, 0
2, 2159040, Note_on_c, 2, 62, 50
2, 2159160, Note_off_c, 2, 62, 0
2, 2159280, Note_on_c, 2, 64, 50
2, 2159760, Note_off_c, 2, 64, 0
2, 2159760, Note_on_c, 2, 60, 50
2, 2160000, Note_off_c, 2, 60, 0
2, 2160000, Note_on_c, 2, 64, 50
2, 2160120, Note_off_c, 2, 64, 0
2, 2160240, Note_on_c, 2, 62, 50
2, 2160720, Note_off_c, 2, 62, 0
2, 2160720, Note_on_c, 2, 60, 50
2, 2160960, Note_off_c, 2, 60, 0
2, 2160960, Note_on_c, 2, 62, 50
2, 2161200, Note_off_c, 2, 62, 0
2, 2161320, Note_on_c, 2, 60, 50
2, 2161560, Note_off_c, 2, 60, 0
2, 2161680, Note_on_c, 2, 57, 50
2, 2161920, Note_off_c, 2, 57, 0
2, 2162040, Note_on_c, 2, 61, 50
2, 2162160, Note_off_c, 2, 61, 0
2, 2162160, Note_on_c, 2, 62, 50
2, 2162640, Note_off_c, 2, 62, 0
2, 2162760, Note_on_c, 2, 62, 50
2, 2163000, Note_off_c, 2, 62, 0
2, 2163120, Note_on_c, 2, 64, 50
2, 2163600, Note_off_c, 2, 64, 0
2, 2163600, Note_on_c, 2, 60, 50
2, 2164080, Note_off_c, 2, 60, 0
2, 2164080, Note_on_c, 2, 62, 50
2, 2164560, Note_off_c, 2, 62, 0
2, 2164560, Note_on_c, 2, 60, 50
2, 2164800, Note_off_c, 2, 60, 0
2, 2164800, Note_on_c, 2, 62, 50
2, 2165040, Note_off_c, 2, 62, 0
2, 2165040, Note_on_c, 2, 57, 50
2, 2165280, Note_off_c, 2, 57, 0
2, 2165280, Note_on_c, 2, 60, 50
2, 2165520, Note_off_c, 2, 60, 0
2, 2165520, Note_on_c, 2, 57, 50
2, 2165760, Note_off_c, 2, 57, 0
2, 2165760, Note_on_c, 2, 60, 50
2, 2165880, Note_off_c, 2, 60, 0
2, 2166000, Note_on_c, 2, 62, 50
2, 2166480, Note_off_c, 2, 62, 0
2, 2166480, Note_on_c, 2, 60, 50
2, 2166720, Note_off_c, 2, 60, 0
2, 2166720, Note_on_c, 2, 62, 50
2, 2166840, Note_off_c, 2, 62, 0
2, 2166960, Note_on_c, 2, 64, 50
2, 2167440, Note_off_c, 2, 64, 0
2, 2167440, Note_on_c, 2, 60, 50
2, 2167800, Note_off_c, 2, 60, 0
2, 2167920, Note_on_c, 2, 62, 50
2, 2168400, Note_off_c, 2, 62, 0
2, 2168400, Note_on_c, 2, 60, 50
2, 2168640, Note_off_c, 2, 60, 0
2, 2168640, Note_on_c, 2, 62, 50
2, 2168880, Note_off_c, 2, 62, 0
2, 2168880, Note_on_c, 2, 57, 50
2, 2169120, Note_off_c, 2, 57, 0
2, 2169120, Note_on_c, 2, 60, 50
2, 2169360, Note_off_c, 2, 60, 0
2, 2169360, Note_on_c, 2, 57, 50
2, 2169600, Note_off_c, 2, 57, 0
2, 2169600, Note_on_c, 2, 60, 50
2, 2169720, Note_off_c, 2, 60, 0
2, 2169840, Note_on_c, 2, 62, 50
2, 2170320, Note_off_c, 2, 62, 0
2, 2170320, Note_on_c, 2, 60, 50
2, 2170560, Note_off_c, 2, 60, 0
2, 2170560, Note_on_c, 2, 62, 50
2, 2170680, Note_off_c, 2, 62, 0
2, 2170800, Note_on_c, 2, 64, 50
2, 2171280, Note_off_c, 2, 64, 0
2, 2171280, Note_on_c, 2, 60, 50
2, 2171520, Note_off_c, 2, 60, 0
2, 2171520, Note_on_c, 2, 64, 50
2, 2171640, Note_off_c, 2, 64, 0
2, 2171760, Note_on_c, 2, 62, 50
2, 2172240, Note_off_c, 2, 62, 0
2, 2172240, Note_on_c, 2, 60, 50
2, 2172480, Note_off_c, 2, 60, 0
2, 2172480, Note_on_c, 2, 62, 50
2, 2172720, Note_off_c, 2, 62, 0
2, 2172720, Note_on_c, 2, 57, 50
2, 2172960, Note_off_c, 2, 57, 0
2, 2172960, Note_on_c, 2, 60, 50
2, 2173200, Note_off_c, 2, 60, 0
2, 2173200, Note_on_c, 2, 57, 50
2, 2173440, Note_off_c, 2, 57, 0
2, 2173440, Note_on_c, 2, 60, 50
2, 2173560, Note_off_c, 2, 60, 0
2, 2173680, Note_on_c, 2, 62, 50
2, 2174160, Note_off_c, 2, 62, 0
2, 2174160, Note_on_c, 2, 60, 50
2, 2174400, Note_off_c, 2, 60, 0
2, 2174400, Note_on_c, 2, 62, 50
2, 2174520, Note_off_c, 2, 62, 0
2, 2174640, Note_on_c, 2, 64, 50
2, 2175120, Note_off_c, 2, 64, 0
2, 2175120, Note_on_c, 2, 60, 50
2, 2175480, Note_off_c, 2, 60, 0
2, 2175600, Note_on_c, 2, 62, 50
2, 2176080, Note_off_c, 2, 62, 0
2, 2176080, Note_on_c, 2, 60, 50
2, 2176320, Note_off_c, 2, 60, 0
2, 2176320, Note_on_c, 2, 62, 50
2, 2176560, Note_off_c, 2, 62, 0
2, 2176560, Note_on_c, 2, 57, 50
2, 2176800, Note_off_c, 2, 57, 0
2, 2176800, Note_on_c, 2, 60, 50
2, 2177040, Note_off_c, 2, 60, 0
2, 2177040, Note_on_c, 2, 57, 50
2, 2177280, Note_off_c, 2, 57, 0
2, 2177280, Note_on_c, 2, 60, 50
2, 2177400, Note_off_c, 2, 60, 0
2, 2177520, Note_on_c, 2, 62, 50
2, 2178000, Note_off_c, 2, 62, 0
2, 2178000, Note_on_c, 2, 60, 50
2, 2178240, Note_off_c, 2, 60, 0
2, 2178240, Note_on_c, 2, 62, 50
2, 2178360, Note_off_c, 2, 62, 0
2, 2178480, Note_on_c, 2, 64, 50
2, 2178960, Note_off_c, 2, 64, 0
2, 2178960, Note_on_c, 2, 60, 50
2, 2179440, Note_off_c, 2, 60, 0
2, 2179440, Note_on_c, 2, 62, 50
2, 2179920, Note_off_c, 2, 62, 0
2, 2179920, Note_on_c, 2, 60, 50
2, 2180160, Note_off_c, 2, 60, 0
2, 2180160, Note_on_c, 2, 62, 50
2, 2180400, Note_off_c, 2, 62, 0
2, 2180400, Note_on_c, 2, 57, 50
2, 2180640, Note_off_c, 2, 57, 0
2, 2180640, Note_on_c, 2, 60, 50
2, 2180880, Note_off_c, 2, 60, 0
2, 2180880, Note_on_c, 2, 57, 50
2, 2181120, Note_off_c, 2, 57, 0
2, 2181240, Note_on_c, 2, 61, 50
2, 2181360, Note_off_c, 2, 61, 0
2, 2181360, Note_on_c, 2, 62, 50
2, 2181840, Note_off_c, 2, 62, 0
2, 2181840, Note_on_c, 2, 60, 50
2, 2182080, Note_off_c, 2, 60, 0
2, 2182080, Note_on_c, 2, 62, 50
2, 2182200, Note_off_c, 2, 62, 0
2, 2182320, Note_on_c, 2, 64, 50
2, 2182800, Note_off_c, 2, 64, 0
2, 2182800, Note_on_c, 2, 60, 50
2, 2183160, Note_off_c, 2, 60, 0
2, 2183280, Note_on_c, 2, 62, 50
2, 2183760, Note_off_c, 2, 62, 0
2, 2183760, Note_on_c, 2, 60, 50
2, 2184000, Note_off_c, 2, 60, 0
2, 2184000, Note_on_c, 2, 62, 50
2, 2184240, Note_off_c, 2, 62, 0
2, 2184240, Note_on_c, 2, 57, 50
2, 2184480, Note_off_c, 2, 57, 0
2, 2184480, Note_on_c, 2, 60, 50
2, 2184720, Note_off_c, 2, 60, 0
2, 2184720, Note_on_c, 2, 57, 50
2, 2184960, Note_off_c, 2, 57, 0
2, 2185080, Note_on_c, 2, 61, 50
2, 2185200, Note_off_c, 2, 61, 0
2, 2185200, Note_on_c, 2, 62, 50
2, 2185680, Note_off_c, 2, 62, 0
2, 2185680, Note_on_c, 2, 60, 50
2, 2185920, Note_off_c, 2, 60, 0
2, 2185920, Note_on_c, 2, 62, 50
2, 2186040, Note_off_c, 2, 62, 0
2, 2186160, Note_on_c, 2, 64, 50
2, 2186400, Note_off_c, 2, 64, 0
2, 2228640, Note_on_c, 2, 45, 50
2, 2228760, Note_off_c, 2, 45, 0
2, 2229000, Note_on_c, 2, 45, 50
2, 2229120, Note_off_c, 2, 45, 0
2, 2229120, Note_on_c, 2, 45, 50
2, 2229360, Note_off_c, 2, 45, 0
2, 2229480, Note_on_c, 2, 45, 50
2, 2229600, Note_off_c, 2, 45, 0
2, 2229600, Note_on_c, 2, 45, 50
2, 2229720, Note_off_c, 2, 45, 0
2, 2229960, Note_on_c, 2, 45, 50
2, 2230080, Note_off_c, 2, 45, 0
2, 2230080, Note_on_c, 2, 50, 50
2, 2230320, Note_off_c, 2, 50, 0
2, 2230320, Note_on_c, 2, 51, 50
2, 2230440, Note_off_c, 2, 51, 0
2, 2230440, Note_on_c, 2, 52, 50
2, 2230560, Note_off_c, 2, 52, 0
2, 2230560, Note_on_c, 2, 45, 50
2, 2230680, Note_off_c, 2, 45, 0
2, 2230920, Note_on_c, 2, 45, 50
2, 2231040, Note_off_c, 2, 45, 0
2, 2231040, Note_on_c, 2, 45, 50
2, 2231280, Note_off_c, 2, 45, 0
2, 2231400, Note_on_c, 2, 45, 50
2, 2231520, Note_off_c, 2, 45, 0
2, 2231520, Note_on_c, 2, 45, 50
2, 2231640, Note_off_c, 2, 45, 0
2, 2231880, Note_on_c, 2, 45, 50
2, 2232000, Note_off_c, 2, 45, 0
2, 2232000, Note_on_c, 2, 55, 50
2, 2232240, Note_off_c, 2, 55, 0
2, 2232240, Note_on_c, 2, 56, 50
2, 2232360, Note_off_c, 2, 56, 0
2, 2232360, Note_on_c, 2, 57, 50
2, 2232480, Note_off_c, 2, 57, 0
2, 2232480, Note_on_c, 2, 45, 50
2, 2232600, Note_off_c, 2, 45, 0
2, 2232840, Note_on_c, 2, 45, 50
2, 2232960, Note_off_c, 2, 45, 0
2, 2232960, Note_on_c, 2, 45, 50
2, 2233200, Note_off_c, 2, 45, 0
2, 2233320, Note_on_c, 2, 45, 50
2, 2233440, Note_off_c, 2, 45, 0
2, 2233440, Note_on_c, 2, 45, 50
2, 2233560, Note_off_c, 2, 45, 0
2, 2233800, Note_on_c, 2, 45, 50
2, 2233920, Note_off_c, 2, 45, 0
2, 2233920, Note_on_c, 2, 50, 50
2, 2234160, Note_off_c, 2, 50, 0
2, 2234160, Note_on_c, 2, 51, 50
2, 2234280, Note_off_c, 2, 51, 0
2, 2234280, Note_on_c, 2, 52, 50
2, 2234400, Note_off_c, 2, 52, 0
2, 2234400, Note_on_c, 2, 45, 50
2, 2234520, Note_off_c, 2, 45, 0
2, 2234760, Note_on_c, 2, 45, 50
2, 2234880, Note_off_c, 2, 45, 0
2, 2234880, Note_on_c, 2, 45, 50
2, 2235120, Note_off_c, 2, 45, 0
2, 2235240, Note_on_c, 2, 45, 50
2, 2235360, Note_off_c, 2, 45, 0
2, 2235360, Note_on_c, 2, 45, 50
2, 2235480, Note_off_c, 2, 45, 0
2, 2235720, Note_on_c, 2, 45, 50
2, 2235840, Note_off_c, 2, 45, 0
2, 2235840, Note_on_c, 2, 55, 50
2, 2236080, Note_off_c, 2, 55, 0
2, 2236080, Note_on_c, 2, 56, 50
2, 2236200, Note_off_c, 2, 56, 0
2, 2236200, Note_on_c, 2, 57, 50
2, 2236320, Note_off_c, 2, 57, 0
2, 2236320, Note_on_c, 2, 45, 50
2, 2236440, Note_off_c, 2, 45, 0
2, 2236680, Note_on_c, 2, 45, 50
2, 2236800, Note_off_c, 2, 45, 0
2, 2236800, Note_on_c, 2, 45, 50
2, 2237040, Note_off_c, 2, 45, 0
2, 2237160, Note_on_c, 2, 45, 50
2, 2237280, Note_off_c, 2, 45, 0
2, 2237280, Note_on_c, 2, 45, 50
2, 2237400, Note_off_c, 2, 45, 0
2, 2237640, Note_on_c, 2, 45, 50
2, 2237760, Note_off_c, 2, 45, 0
2, 2237760, Note_on_c, 2, 47, 50
2, 2238000, Note_off_c, 2, 47, 0
2, 2238000, Note_on_c, 2, 48, 50
2, 2238120, Note_off_c, 2, 48, 0
2, 2238120, Note_on_c, 2, 49, 50
2, 2238240, Note_off_c, 2, 49, 0
2, 2238240, Note_on_c, 2, 45, 50
2, 2238360, Note_off_c, 2, 45, 0
2, 2238600, Note_on_c, 2, 45, 50
2, 2238720, Note_off_c, 2, 45, 0
2, 2238720, Note_on_c, 2, 45, 50
2, 2238960, Note_off_c, 2, 45, 0
2, 2239080, Note_on_c, 2, 45, 50
2, 2239200, Note_off_c, 2, 45, 0
2, 2239200, Note_on_c, 2, 45, 50
2, 2239320, Note_off_c, 2, 45, 0
2, 2239560, Note_on_c, 2, 45, 50
2, 2239680, Note_off_c, 2, 45, 0
2, 2239680, Note_on_c, 2, 55, 50
2, 2239920, Note_off_c, 2, 55, 0
2, 2239920, Note_on_c, 2, 56, 50
2, 2240040, Note_off_c, 2, 56, 0
2, 2240040, Note_on_c, 2, 57, 50
2, 2240160, Note_off_c, 2, 57, 0
2, 2240160, Note_on_c, 2, 45, 50
2, 2240280, Note_off_c, 2, 45, 0
2, 2240520, Note_on_c, 2, 45, 50
2, 2240640, Note_off_c, 2, 45, 0
2, 2240640, Note_on_c, 2, 45, 50
2, 2240880, Note_off_c, 2, 45, 0
2, 2241000, Note_on_c, 2, 45, 50
2, 2241120, Note_off_c, 2, 45, 0
2, 2241120, Note_on_c, 2, 45, 50
2, 2241240, Note_off_c, 2, 45, 0
2, 2241480, Note_on_c, 2, 45, 50
2, 2241600, Note_off_c, 2, 45, 0
2, 2241600, Note_on_c, 2, 50, 50
2, 2241840, Note_off_c, 2, 50, 0
2, 2241840, Note_on_c, 2, 51, 50
2, 2241960, Note_off_c, 2, 51, 0
2, 2241960, Note_on_c, 2, 52, 50
2, 2242080, Note_off_c, 2, 52, 0
2, 2242080, Note_on_c, 2, 45, 50
2, 2242200, Note_off_c, 2, 45, 0
2, 2242440, Note_on_c, 2, 45, 50
2, 2242560, Note_off_c, 2, 45, 0
2, 2242560, Note_on_c, 2, 45, 50
2, 2242800, Note_off_c, 2, 45, 0
2, 2242920, Note_on_c, 2, 45, 50
2, 2243040, Note_off_c, 2, 45, 0
2, 2243040, Note_on_c, 2, 45, 50
2, 2243160, Note_off_c, 2, 45, 0
2, 2243400, Note_on_c, 2, 45, 50
2, 2243520, Note_off_c, 2, 45, 0
2, 2243520, Note_on_c, 2, 55, 50
2, 2243760, Note_off_c, 2, 55, 0
2, 2243760, Note_on_c, 2, 56, 50
2, 2243880, Note_off_c, 2, 56, 0
2, 2243880, Note_on_c, 2, 57, 50
2, 2244000, Note_off_c, 2, 57, 0
2, 2244000, Note_on_c, 2, 45, 50
2, 2244120, Note_off_c, 2, 45, 0
2, 2244360, Note_on_c, 2, 45, 50
2, 2244480, Note_off_c, 2, 45, 0
2, 2244480, Note_on_c, 2, 45, 50
2, 2244720, Note_off_c, 2, 45, 0
2, 2244840, Note_on_c, 2, 45, 50
2, 2244960, Note_off_c, 2, 45, 0
2, 2244960, Note_on_c, 2, 45, 50
2, 2245080, Note_off_c, 2, 45, 0
2, 2245320, Note_on_c, 2, 45, 50
2, 2245440, Note_off_c, 2, 45, 0
2, 2245440, Note_on_c, 2, 55, 50
2, 2245680, Note_off_c, 2, 55, 0
2, 2245680, Note_on_c, 2, 56, 50
2, 2245800, Note_off_c, 2, 56, 0
2, 2245800, Note_on_c, 2, 57, 50
2, 2245920, Note_off_c, 2, 57, 0
2, 2245920, Note_on_c, 2, 45, 50
2, 2246040, Note_off_c, 2, 45, 0
2, 2246280, Note_on_c, 2, 45, 50
2, 2246400, Note_off_c, 2, 45, 0
2, 2246400, Note_on_c, 2, 45, 50
2, 2246640, Note_off_c, 2, 45, 0
2, 2246760, Note_on_c, 2, 45, 50
2, 2246880, Note_off_c, 2, 45, 0
2, 2246880, Note_on_c, 2, 45, 50
2, 2247000, Note_off_c, 2, 45, 0
2, 2247240, Note_on_c, 2, 45, 50
2, 2247360, Note_off_c, 2, 45, 0
2, 2247360, Note_on_c, 2, 55, 50
2, 2247600, Note_off_c, 2, 55, 0
2, 2247600, Note_on_c, 2, 56, 50
2, 2247720, Note_off_c, 2, 56, 0
2, 2247720, Note_on_c, 2, 57, 50
2, 2247840, Note_off_c, 2, 57, 0
2, 2247840, Note_on_c, 2, 45, 50
2, 2247960, Note_off_c, 2, 45, 0
2, 2248200, Note_on_c, 2, 45, 50
2, 2248320, Note_off_c, 2, 45, 0
2, 2248320, Note_on_c, 2, 45, 50
2, 2248560, Note_off_c, 2, 45, 0
2, 2248680, Note_on_c, 2, 45, 50
2, 2248800, Note_off_c, 2, 45, 0
2, 2248800, Note_on_c, 2, 45, 50
2, 2248920, Note_off_c, 2, 45, 0
2, 2249160, Note_on_c, 2, 45, 50
2, 2249280, Note_off_c, 2, 45, 0
2, 2249280, Note_on_c, 2, 50, 50
2, 2249520, Note_off_c, 2, 50, 0
2, 2249520, Note_on_c, 2, 51, 50
2, 2249640, Note_off_c, 2, 51, 0
2, 2249640, Note_on_c, 2, 52, 50
2, 2249760, Note_off_c, 2, 52, 0
2, 2249760, Note_on_c, 2, 45, 50
2, 2249880, Note_off_c, 2, 45, 0
2, 2250120, Note_on_c, 2, 45, 50
2, 2250240, Note_off_c, 2, 45, 0
2, 2250240, Note_on_c, 2, 45, 50
2, 2250480, Note_off_c, 2, 45, 0
2, 2250600, Note_on_c, 2, 45, 50
2, 2250720, Note_off_c, 2, 45, 0
2, 2250720, Note_on_c, 2, 45, 50
2, 2250840, Note_off_c, 2, 45, 0
2, 2251080, Note_on_c, 2, 45, 50
2, 2251200, Note_off_c, 2, 45, 0
2, 2251200, Note_on_c, 2, 55, 50
2, 2251440, Note_off_c, 2, 55, 0
2, 2251440, Note_on_c, 2, 56, 50
2, 2251560, Note_off_c, 2, 56, 0
2, 2251560, Note_on_c, 2, 57, 50
2, 2251680, Note_off_c, 2, 57, 0
2, 2251680, Note_on_c, 2, 45, 50
2, 2251800, Note_off_c, 2, 45, 0
2, 2252040, Note_on_c, 2, 45, 50
2, 2252160, Note_off_c, 2, 45, 0
2, 2252160, Note_on_c, 2, 45, 50
2, 2252400, Note_off_c, 2, 45, 0
2, 2252520, Note_on_c, 2, 45, 50
2, 2252640, Note_off_c, 2, 45, 0
2, 2252640, Note_on_c, 2, 45, 50
2, 2252760, Note_off_c, 2, 45, 0
2, 2253000, Note_on_c, 2, 45, 50
2, 2253120, Note_off_c, 2, 45, 0
2, 2253120, Note_on_c, 2, 55, 50
2, 2253360, Note_off_c, 2, 55, 0
2, 2253360, Note_on_c, 2, 56, 50
2, 2253480, Note_off_c, 2, 56, 0
2, 2253480, Note_on_c, 2, 57, 50
2, 2253600, Note_off_c, 2, 57, 0
2, 2253600, Note_on_c, 2, 45, 50
2, 2253720, Note_off_c, 2, 45, 0
2, 2253960, Note_on_c, 2, 45, 50
2, 2254080, Note_off_c, 2, 45, 0
2, 2254080, Note_on_c, 2, 45, 50
2, 2254320, Note_off_c, 2, 45, 0
2, 2254440, Note_on_c, 2, 45, 50
2, 2254560, Note_off_c, 2, 45, 0
2, 2254560, Note_on_c, 2, 45, 50
2, 2254680, Note_off_c, 2, 45, 0
2, 2254920, Note_on_c, 2, 45, 50
2, 2255040, Note_off_c, 2, 45, 0
2, 2255040, Note_on_c, 2, 55, 50
2, 2255280, Note_off_c, 2, 55, 0
2, 2255280, Note_on_c, 2, 56, 50
2, 2255400, Note_off_c, 2, 56, 0
2, 2255400, Note_on_c, 2, 57, 50
2, 2255520, Note_off_c, 2, 57, 0
2, 2255520, Note_on_c, 2, 45, 50
2, 2255640, Note_off_c, 2, 45, 0
2, 2255880, Note_on_c, 2, 45, 50
2, 2256000, Note_off_c, 2, 45, 0
2, 2256000, Note_on_c, 2, 45, 50
2, 2256240, Note_off_c, 2, 45, 0
2, 2256360, Note_on_c, 2, 45, 50
2, 2256480, Note_off_c, 2, 45, 0
2, 2256480, Note_on_c, 2, 45, 50
2, 2256600, Note_off_c, 2, 45, 0
2, 2256840, Note_on_c, 2, 45, 50
2, 2256960, Note_off_c, 2, 45, 0
2, 2256960, Note_on_c, 2, 55, 50
2, 2257200, Note_off_c, 2, 55, 0
2, 2257200, Note_on_c, 2, 56, 50
2, 2257320, Note_off_c, 2, 56, 0
2, 2257320, Note_on_c, 2, 57, 50
2, 2257440, Note_off_c, 2, 57, 0
2, 2257440, Note_on_c, 2, 60, 50
2, 2257920, Note_off_c, 2, 60, 0
2, 2257920, Note_on_c, 2, 57, 50
2, 2258040, Note_off_c, 2, 57, 0
2, 2258280, Note_on_c, 2, 57, 50
2, 2258640, Note_off_c, 2, 57, 0
2, 2258640, Note_on_c, 2, 55, 50
2, 2258760, Note_off_c, 2, 55, 0
2, 2258760, Note_on_c, 2, 52, 50
2, 2258880, Note_off_c, 2, 52, 0
2, 2258880, Note_on_c, 2, 55, 50
2, 2259240, Note_off_c, 2, 55, 0
2, 2259240, Note_on_c, 2, 57, 50
2, 2259360, Note_off_c, 2, 57, 0
2, 2259360, Note_on_c, 2, 45, 50
2, 2259480, Note_off_c, 2, 45, 0
2, 2259720, Note_on_c, 2, 45, 50
2, 2259840, Note_off_c, 2, 45, 0
2, 2259840, Note_on_c, 2, 45, 50
2, 2260080, Note_off_c, 2, 45, 0
2, 2260200, Note_on_c, 2, 45, 50
2, 2260320, Note_off_c, 2, 45, 0
2, 2260320, Note_on_c, 2, 45, 50
2, 2260440, Note_off_c, 2, 45, 0
2, 2260680, Note_on_c, 2, 45, 50
2, 2260800, Note_off_c, 2, 45, 0
2, 2260800, Note_on_c, 2, 50, 50
2, 2261040, Note_off_c, 2, 50, 0
2, 2261040, Note_on_c, 2, 51, 50
2, 2261160, Note_off_c, 2, 51, 0
2, 2261160, Note_on_c, 2, 52, 50
2, 2261280, Note_off_c, 2, 52, 0
2, 2261280, Note_on_c, 2, 45, 50
2, 2261400, Note_off_c, 2, 45, 0
2, 2261640, Note_on_c, 2, 45, 50
2, 2261760, Note_off_c, 2, 45, 0
2, 2261760, Note_on_c, 2, 45, 50
2, 2262000, Note_off_c, 2, 45, 0
2, 2262120, Note_on_c, 2, 45, 50
2, 2262240, Note_off_c, 2, 45, 0
2, 2262240, Note_on_c, 2, 45, 50
2, 2262360, Note_off_c, 2, 45, 0
2, 2262600, Note_on_c, 2, 45, 50
2, 2262720, Note_off_c, 2, 45, 0
2, 2262720, Note_on_c, 2, 55, 50
2, 2262960, Note_off_c, 2, 55, 0
2, 2262960, Note_on_c, 2, 56, 50
2, 2263080, Note_off_c, 2, 56, 0
2, 2263080, Note_on_c, 2, 57, 50
2, 2263200, Note_off_c, 2, 57, 0
2, 2263200, Note_on_c, 2, 45, 50
2, 2263320, Note_off_c, 2, 45, 0
2, 2263560, Note_on_c, 2, 45, 50
2, 2263680, Note_off_c, 2, 45, 0
2, 2263680, Note_on_c, 2, 45, 50
2, 2263920, Note_off_c, 2, 45, 0
2, 2264040, Note_on_c, 2, 45, 50
2, 2264160, Note_off_c, 2, 45, 0
2, 2264160, Note_on_c, 2, 45, 50
2, 2264280, Note_off_c, 2, 45, 0
2, 2264520, Note_on_c, 2, 45, 50
2, 2264640, Note_off_c, 2, 45, 0
2, 2264640, Note_on_c, 2, 55, 50
2, 2264880, Note_off_c, 2, 55, 0
2, 2264880, Note_on_c, 2, 56, 50
2, 2265000, Note_off_c, 2, 56, 0
2, 2265000, Note_on_c, 2, 57, 50
2, 2265120, Note_off_c, 2, 57, 0
2, 2265120, Note_on_c, 2, 60, 50
2, 2265600, Note_off_c, 2, 60, 0
2, 2265600, Note_on_c, 2, 57, 50
2, 2265720, Note_off_c, 2, 57, 0
2, 2265960, Note_on_c, 2, 57, 50
2, 2266320, Note_off_c, 2, 57, 0
2, 2266320, Note_on_c, 2, 55, 50
2, 2266440, Note_off_c, 2, 55, 0
2, 2266440, Note_on_c, 2, 52, 50
2, 2266560, Note_off_c, 2, 52, 0
2, 2266560, Note_on_c, 2, 55, 50
2, 2266920, Note_off_c, 2, 55, 0
2, 2266920, Note_on_c, 2, 57, 50
2, 2267040, Note_off_c, 2, 57, 0
2, 2267040, Note_on_c, 2, 55, 50
2, 2267400, Note_off_c, 2, 55, 0
2, 2267400, Note_on_c, 2, 52, 50
2, 2267520, Note_off_c, 2, 52, 0
2, 2267520, Note_on_c, 2, 55, 50
2, 2267880, Note_off_c, 2, 55, 0
2, 2267880, Note_on_c, 2, 57, 50
2, 2268000, Note_off_c, 2, 57, 0
2, 2268000, Note_on_c, 2, 55, 50
2, 2268360, Note_off_c, 2, 55, 0
2, 2268360, Note_on_c, 2, 52, 50
2, 2268480, Note_off_c, 2, 52, 0
2, 2268840, Note_on_c, 2, 57, 50
2, 2269200, Note_off_c, 2, 57, 0
2, 2269320, Note_on_c, 2, 57, 50
2, 2269440, Note_off_c, 2, 57, 0
2, 2269440, Note_on_c, 2, 55, 50
2, 2269800, Note_off_c, 2, 55, 0
2, 2269800, Note_on_c, 2, 55, 50
2, 2269920, Note_off_c, 2, 55, 0
2, 2269920, Note_on_c, 2, 52, 50
2, 2270280, Note_off_c, 2, 52, 0
2, 2270280, Note_on_c, 2, 52, 50
2, 2270400, Note_off_c, 2, 52, 0
2, 2270400, Note_on_c, 2, 57, 50
2, 2270760, Note_off_c, 2, 57, 0
2, 2270760, Note_on_c, 2, 48, 50
2, 2271360, Note_off_c, 2, 48, 0
2, 2271360, Note_on_c, 2, 45, 50
2, 2271480, Note_off_c, 2, 45, 0
2, 2271720, Note_on_c, 2, 45, 50
2, 2272080, Note_off_c, 2, 45, 0
2, 2272320, Note_on_c, 2, 55, 50
2, 2272560, Note_off_c, 2, 55, 0
2, 2272560, Note_on_c, 2, 56, 50
2, 2272680, Note_off_c, 2, 56, 0
2, 2272680, Note_on_c, 2, 57, 50
2, 2272800, Note_off_c, 2, 57, 0
2, 2272800, Note_on_c, 2, 60, 50
2, 2273280, Note_off_c, 2, 60, 0
2, 2273280, Note_on_c, 2, 57, 50
2, 2273400, Note_off_c, 2, 57, 0
2, 2273640, Note_on_c, 2, 57, 50
2, 2274000, Note_off_c, 2, 57, 0
2, 2274000, Note_on_c, 2, 55, 50
2, 2274120, Note_off_c, 2, 55, 0
2, 2274120, Note_on_c, 2, 52, 50
2, 2274240, Note_off_c, 2, 52, 0
2, 2274240, Note_on_c, 2, 55, 50
2, 2274600, Note_off_c, 2, 55, 0
2, 2274600, Note_on_c, 2, 57, 50
2, 2274720, Note_off_c, 2, 57, 0
2, 2274720, Note_on_c, 2, 45, 50
2, 2276160, Note_off_c, 2, 45, 0
2, 2276160, Note_on_c, 2, 55, 50
2, 2276400, Note_off_c, 2, 55, 0
2, 2276400, Note_on_c, 2, 55, 50
2, 2276520, Note_off_c, 2, 55, 0
2, 2276520, Note_on_c, 2, 57, 50
2, 2276640, Note_off_c, 2, 57, 0
2, 2276640, Note_on_c, 2, 45, 50
2, 2278080, Note_off_c, 2, 45, 0
2, 2278080, Note_on_c, 2, 55, 50
2, 2278320, Note_off_c, 2, 55, 0
2, 2278320, Note_on_c, 2, 55, 50
2, 2278440, Note_off_c, 2, 55, 0
2, 2278440, Note_on_c, 2, 57, 50
2, 2278560, Note_off_c, 2, 57, 0
2, 2278560, Note_on_c, 2, 45, 50
2, 2280000, Note_off_c, 2, 45, 0
2, 2280000, Note_on_c, 2, 55, 50
2, 2280240, Note_off_c, 2, 55, 0
2, 2280240, Note_on_c, 2, 57, 50
2, 2280360, Note_off_c, 2, 57, 0
2, 2280360, Note_on_c, 2, 57, 50
2, 2280480, Note_off_c, 2, 57, 0
2, 2280480, Note_on_c, 2, 45, 50
2, 2281920, Note_off_c, 2, 45, 0
2, 2281920, Note_on_c, 2, 55, 50
2, 2282160, Note_off_c, 2, 55, 0
2, 2282160, Note_on_c, 2, 57, 50
2, 2282280, Note_off_c, 2, 57, 0
2, 2282280, Note_on_c, 2, 57, 50
2, 2282400, Note_off_c, 2, 57, 0
2, 2282400, Note_on_c, 2, 45, 50
2, 2283840, Note_off_c, 2, 45, 0
2, 2283840, Note_on_c, 2, 55, 50
2, 2284080, Note_off_c, 2, 55, 0
2, 2284080, Note_on_c, 2, 57, 50
2, 2284200, Note_off_c, 2, 57, 0
2, 2284200, Note_on_c, 2, 57, 50
2, 2284320, Note_off_c, 2, 57, 0
2, 2284320, Note_on_c, 2, 45, 50
2, 2285760, Note_off_c, 2, 45, 0
2, 2285760, Note_on_c, 2, 55, 50
2, 2286000, Note_off_c, 2, 55, 0
2, 2286000, Note_on_c, 2, 57, 50
2, 2286120, Note_off_c, 2, 57, 0
2, 2286120, Note_on_c, 2, 57, 50
2, 2286240, Note_off_c, 2, 57, 0
2, 2286240, Note_on_c, 2, 45, 50
2, 2287680, Note_off_c, 2, 45, 0
2, 2287680, Note_on_c, 2, 55, 50
2, 2287920, Note_off_c, 2, 55, 0
2, 2287920, Note_on_c, 2, 56, 50
2, 2288040, Note_off_c, 2, 56, 0
2, 2288040, Note_on_c, 2, 57, 50
2, 2288160, Note_off_c, 2, 57, 0
2, 2288160, Note_on_c, 2, 60, 50
2, 2288640, Note_off_c, 2, 60, 0
2, 2288640, Note_on_c, 2, 57, 50
2, 2288760, Note_off_c, 2, 57, 0
2, 2289000, Note_on_c, 2, 57, 50
2, 2289360, Note_off_c, 2, 57, 0
2, 2289360, Note_on_c, 2, 55, 50
2, 2289480, Note_off_c, 2, 55, 0
2, 2289480, Note_on_c, 2, 52, 50
2, 2289600, Note_off_c, 2, 52, 0
2, 2289600, Note_on_c, 2, 55, 50
2, 2289960, Note_off_c, 2, 55, 0
2, 2289960, Note_on_c, 2, 57, 50
2, 2290080, Note_off_c, 2, 57, 0
2, 2290080, Note_on_c, 2, 45, 50
2, 2291520, Note_off_c, 2, 45, 0
2, 2291520, Note_on_c, 2, 55, 50
2, 2291760, Note_off_c, 2, 55, 0
2, 2291760, Note_on_c, 2, 57, 50
2, 2291880, Note_off_c, 2, 57, 0
2, 2291880, Note_on_c, 2, 57, 50
2, 2292000, Note_off_c, 2, 57, 0
2, 2292000, Note_on_c, 2, 45, 50
2, 2293440, Note_off_c, 2, 45, 0
2, 2293440, Note_on_c, 2, 55, 50
2, 2293680, Note_off_c, 2, 55, 0
2, 2293680, Note_on_c, 2, 57, 50
2, 2293800, Note_off_c, 2, 57, 0
2, 2293800, Note_on_c, 2, 57, 50
2, 2293920, Note_off_c, 2, 57, 0
2, 2293920, Note_on_c, 2, 45, 50
2, 2295360, Note_off_c, 2, 45, 0
2, 2295360, Note_on_c, 2, 55, 50
2, 2295600, Note_off_c, 2, 55, 0
2, 2295600, Note_on_c, 2, 56, 50
2, 2295720, Note_off_c, 2, 56, 0
2, 2295720, Note_on_c, 2, 57, 50
2, 2295840, Note_off_c, 2, 57, 0
2, 2295840, Note_on_c, 2, 60, 50
2, 2296320, Note_off_c, 2, 60, 0
2, 2296320, Note_on_c, 2, 57, 50
2, 2296440, Note_off_c, 2, 57, 0
2, 2296680, Note_on_c, 2, 57, 50
2, 2297040, Note_off_c, 2, 57, 0
2, 2297040, Note_on_c, 2, 55, 50
2, 2297160, Note_off_c, 2, 55, 0
2, 2297160, Note_on_c, 2, 52, 50
2, 2297280, Note_off_c, 2, 52, 0
2, 2297280, Note_on_c, 2, 55, 50
2, 2297640, Note_off_c, 2, 55, 0
2, 2297640, Note_on_c, 2, 57, 50
2, 2297760, Note_off_c, 2, 57, 0
2, 2297760, Note_on_c, 2, 55, 50
2, 2298120, Note_off_c, 2, 55, 0
2, 2298120, Note_on_c, 2, 52, 50
2, 2298240, Note_off_c, 2, 52, 0
2, 2298240, Note_on_c, 2, 55, 50
2, 2298600, Note_off_c, 2, 55, 0
2, 2298600, Note_on_c, 2, 57, 50
2, 2298720, Note_off_c, 2, 57, 0
2, 2298720, Note_on_c, 2, 55, 50
2, 2299080, Note_off_c, 2, 55, 0
2, 2299080, Note_on_c, 2, 52, 50
2, 2299200, Note_off_c, 2, 52, 0
2, 2299560, Note_on_c, 2, 57, 50
2, 2299920, Note_off_c, 2, 57, 0
2, 2300040, Note_on_c, 2, 57, 50
2, 2300160, Note_off_c, 2, 57, 0
2, 2300160, Note_on_c, 2, 55, 50
2, 2300520, Note_off_c, 2, 55, 0
2, 2300520, Note_on_c, 2, 55, 50
2, 2300640, Note_off_c, 2, 55, 0
2, 2300640, Note_on_c, 2, 52, 50
2, 2301000, Note_off_c, 2, 52, 0
2, 2301000, Note_on_c, 2, 52, 50
2, 2301120, Note_off_c, 2, 52, 0
2, 2301120, Note_on_c, 2, 57, 50
2, 2301360, Note_off_c, 2, 57, 0
2, 2301480, Note_on_c, 2, 48, 50
2, 2302080, Note_off_c, 2, 48, 0
2, 2302080, Note_on_c, 2, 45, 50
2, 2302200, Note_off_c, 2, 45, 0
2, 2302440, Note_on_c, 2, 45, 50
2, 2302800, Note_off_c, 2, 45, 0
2, 2303040, Note_on_c, 2, 55, 50
2, 2303280, Note_off_c, 2, 55, 0
2, 2303280, Note_on_c, 2, 56, 50
2, 2303400, Note_off_c, 2, 56, 0
2, 2303400, Note_on_c, 2, 57, 50
2, 2303520, Note_off_c, 2, 57, 0
2, 2303520, Note_on_c, 2, 60, 50
2, 2304000, Note_off_c, 2, 60, 0
2, 2304000, Note_on_c, 2, 57, 50
2, 2304120, Note_off_c, 2, 57, 0
2, 2304360, Note_on_c, 2, 57, 50
2, 2304720, Note_off_c, 2, 57, 0
2, 2304720, Note_on_c, 2, 55, 50
2, 2304840, Note_off_c, 2, 55, 0
2, 2304840, Note_on_c, 2, 52, 50
2, 2304960, Note_off_c, 2, 52, 0
2, 2304960, Note_on_c, 2, 55, 50
2, 2305320, Note_off_c, 2, 55, 0
2, 2305320, Note_on_c, 2, 57, 50
2, 2305440, Note_off_c, 2, 57, 0
2, 2305440, Note_on_c, 2, 50, 50
2, 2305560, Note_off_c, 2, 50, 0
2, 2305800, Note_on_c, 2, 50, 50
2, 2305920, Note_off_c, 2, 50, 0
2, 2305920, Note_on_c, 2, 53, 50
2, 2306280, Note_off_c, 2, 53, 0
2, 2306280, Note_on_c, 2, 54, 50
2, 2306400, Note_off_c, 2, 54, 0
2, 2306400, Note_on_c, 2, 57, 50
2, 2306520, Note_off_c, 2, 57, 0
2, 2306760, Note_on_c, 2, 57, 50
2, 2306880, Note_off_c, 2, 57, 0
2, 2306880, Note_on_c, 2, 59, 50
2, 2307240, Note_off_c, 2, 59, 0
2, 2307240, Note_on_c, 2, 57, 50
2, 2307360, Note_off_c, 2, 57, 0
2, 2307360, Note_on_c, 2, 50, 50
2, 2307480, Note_off_c, 2, 50, 0
2, 2307720, Note_on_c, 2, 50, 50
2, 2307840, Note_off_c, 2, 50, 0
2, 2307840, Note_on_c, 2, 53, 50
2, 2308200, Note_off_c, 2, 53, 0
2, 2308200, Note_on_c, 2, 54, 50
2, 2308320, Note_off_c, 2, 54, 0
2, 2308320, Note_on_c, 2, 57, 50
2, 2308440, Note_off_c, 2, 57, 0
2, 2308680, Note_on_c, 2, 57, 50
2, 2308800, Note_off_c, 2, 57, 0
2, 2308800, Note_on_c, 2, 59, 50
2, 2309160, Note_off_c, 2, 59, 0
2, 2309160, Note_on_c, 2, 57, 50
2, 2309280, Note_off_c, 2, 57, 0
2, 2309280, Note_on_c, 2, 50, 50
2, 2309400, Note_off_c, 2, 50, 0
2, 2309640, Note_on_c, 2, 50, 50
2, 2309760, Note_off_c, 2, 50, 0
2, 2309760, Note_on_c, 2, 53, 50
2, 2310120, Note_off_c, 2, 53, 0
2, 2310120, Note_on_c, 2, 54, 50
2, 2310240, Note_off_c, 2, 54, 0
2, 2310240, Note_on_c, 2, 57, 50
2, 2310360, Note_off_c, 2, 57, 0
2, 2310600, Note_on_c, 2, 57, 50
2, 2310720, Note_off_c, 2, 57, 0
2, 2310720, Note_on_c, 2, 59, 50
2, 2311080, Note_off_c, 2, 59, 0
2, 2311080, Note_on_c, 2, 57, 50
2, 2311200, Note_off_c, 2, 57, 0
2, 2311200, Note_on_c, 2, 50, 50
2, 2311320, Note_off_c, 2, 50, 0
2, 2311560, Note_on_c, 2, 50, 50
2, 2311680, Note_off_c, 2, 50, 0
2, 2311680, Note_on_c, 2, 53, 50
2, 2312040, Note_off_c, 2, 53, 0
2, 2312040, Note_on_c, 2, 54, 50
2, 2312160, Note_off_c, 2, 54, 0
2, 2312160, Note_on_c, 2, 57, 50
2, 2312280, Note_off_c, 2, 57, 0
2, 2312520, Note_on_c, 2, 57, 50
2, 2312640, Note_off_c, 2, 57, 0
2, 2312640, Note_on_c, 2, 59, 50
2, 2313000, Note_off_c, 2, 59, 0
2, 2313000, Note_on_c, 2, 57, 50
2, 2313120, Note_off_c, 2, 57, 0
2, 2313120, Note_on_c, 2, 50, 50
2, 2313240, Note_off_c, 2, 50, 0
2, 2313480, Note_on_c, 2, 50, 50
2, 2313600, Note_off_c, 2, 50, 0
2, 2313600, Note_on_c, 2, 53, 50
2, 2313960, Note_off_c, 2, 53, 0
2, 2313960, Note_on_c, 2, 54, 50
2, 2314080, Note_off_c, 2, 54, 0
2, 2314080, Note_on_c, 2, 57, 50
2, 2314200, Note_off_c, 2, 57, 0
2, 2314440, Note_on_c, 2, 57, 50
2, 2314560, Note_off_c, 2, 57, 0
2, 2314560, Note_on_c, 2, 59, 50
2, 2314920, Note_off_c, 2, 59, 0
2, 2314920, Note_on_c, 2, 57, 50
2, 2315040, Note_off_c, 2, 57, 0
2, 2315040, Note_on_c, 2, 50, 50
2, 2315160, Note_off_c, 2, 50, 0
2, 2315400, Note_on_c, 2, 50, 50
2, 2315520, Note_off_c, 2, 50, 0
2, 2315520, Note_on_c, 2, 53, 50
2, 2315880, Note_off_c, 2, 53, 0
2, 2315880, Note_on_c, 2, 54, 50
2, 2316000, Note_off_c, 2, 54, 0
2, 2316000, Note_on_c, 2, 57, 50
2, 2316120, Note_off_c, 2, 57, 0
2, 2316360, Note_on_c, 2, 57, 50
2, 2316480, Note_off_c, 2, 57, 0
2, 2316480, Note_on_c, 2, 59, 50
2, 2316840, Note_off_c, 2, 59, 0
2, 2316960, Note_on_c, 2, 64, 50
2, 2317080, Note_off_c, 2, 64, 0
2, 2317080, Note_on_c, 2, 64, 50
2, 2317200, Note_off_c, 2, 64, 0
2, 2317320, Note_on_c, 2, 64, 50
2, 2317440, Note_off_c, 2, 64, 0
2, 2317440, Note_on_c, 2, 64, 50
2, 2317560, Note_off_c, 2, 64, 0
2, 2317560, Note_on_c, 2, 64, 50
2, 2317680, Note_off_c, 2, 64, 0
2, 2317800, Note_on_c, 2, 64, 50
2, 2317920, Note_off_c, 2, 64, 0
2, 2317920, Note_on_c, 2, 64, 50
2, 2318040, Note_off_c, 2, 64, 0
2, 2318040, Note_on_c, 2, 64, 50
2, 2318160, Note_off_c, 2, 64, 0
2, 2318280, Note_on_c, 2, 64, 50
2, 2318400, Note_off_c, 2, 64, 0
2, 2318400, Note_on_c, 2, 64, 50
2, 2318520, Note_off_c, 2, 64, 0
2, 2318520, Note_on_c, 2, 64, 50
2, 2318640, Note_off_c, 2, 64, 0
2, 2318760, Note_on_c, 2, 64, 50
2, 2318880, Note_off_c, 2, 64, 0
2, 2318880, Note_on_c, 2, 65, 50
2, 2319120, Note_off_c, 2, 65, 0
2, 2319240, Note_on_c, 2, 65, 50
2, 2319480, Note_off_c, 2, 65, 0
2, 2319480, Note_on_c, 2, 65, 50
2, 2319720, Note_off_c, 2, 65, 0
2, 2319840, Note_on_c, 2, 64, 50
2, 2319960, Note_off_c, 2, 64, 0
2, 2320800, Note_on_c, 2, 81, 50
2, 2320920, Note_off_c, 2, 81, 0
2, 2320920, Note_on_c, 2, 81, 50
2, 2321040, Note_off_c, 2, 81, 0
2, 2321160, Note_on_c, 2, 81, 50
2, 2321280, Note_off_c, 2, 81, 0
2, 2321280, Note_on_c, 2, 81, 50
2, 2321400, Note_off_c, 2, 81, 0
2, 2321400, Note_on_c, 2, 81, 50
2, 2321520, Note_off_c, 2, 81, 0
2, 2321640, Note_on_c, 2, 81, 50
2, 2321760, Note_off_c, 2, 81, 0
2, 2321760, Note_on_c, 2, 81, 50
2, 2321880, Note_off_c, 2, 81, 0
2, 2321880, Note_on_c, 2, 81, 50
2, 2322000, Note_off_c, 2, 81, 0
2, 2322120, Note_on_c, 2, 81, 50
2, 2322240, Note_off_c, 2, 81, 0
2, 2322240, Note_on_c, 2, 81, 50
2, 2322360, Note_off_c, 2, 81, 0
2, 2322360, Note_on_c, 2, 81, 50
2, 2322480, Note_off_c, 2, 81, 0
2, 2322600, Note_on_c, 2, 81, 50
2, 2322720, Note_off_c, 2, 81, 0
2, 2322720, Note_on_c, 2, 81, 50
2, 2322840, Note_off_c, 2, 81, 0
2, 2322840, Note_on_c, 2, 81, 50
2, 2322960, Note_off_c, 2, 81, 0
2, 2323080, Note_on_c, 2, 81, 50
2, 2323200, Note_off_c, 2, 81, 0
2, 2323200, Note_on_c, 2, 81, 50
2, 2323320, Note_off_c, 2, 81, 0
2, 2323320, Note_on_c, 2, 81, 50
2, 2323440, Note_off_c, 2, 81, 0
2, 2323560, Note_on_c, 2, 81, 50
2, 2323680, Note_off_c, 2, 81, 0
2, 2323680, Note_on_c, 2, 81, 50
2, 2323800, Note_off_c, 2, 81, 0
2, 2323800, Note_on_c, 2, 81, 50
2, 2323920, Note_off_c, 2, 81, 0
2, 2324040, Note_on_c, 2, 81, 50
2, 2324160, Note_off_c, 2, 81, 0
2, 2324160, Note_on_c, 2, 81, 50
2, 2324280, Note_off_c, 2, 81, 0
2, 2324280, Note_on_c, 2, 81, 50
2, 2324400, Note_off_c, 2, 81, 0
2, 2324520, Note_on_c, 2, 81, 50
2, 2324640, Note_off_c, 2, 81, 0
2, 2324640, Note_on_c, 2, 81, 50
2, 2324760, Note_off_c, 2, 81, 0
2, 2324760, Note_on_c, 2, 81, 50
2, 2324880, Note_off_c, 2, 81, 0
2, 2325000, Note_on_c, 2, 81, 50
2, 2325120, Note_off_c, 2, 81, 0
2, 2325120, Note_on_c, 2, 81, 50
2, 2325240, Note_off_c, 2, 81, 0
2, 2325240, Note_on_c, 2, 81, 50
2, 2325360, Note_off_c, 2, 81, 0
2, 2325480, Note_on_c, 2, 81, 50
2, 2325600, Note_off_c, 2, 81, 0
2, 2325600, Note_on_c, 2, 81, 50
2, 2325720, Note_off_c, 2, 81, 0
2, 2325720, Note_on_c, 2, 81, 50
2, 2325840, Note_off_c, 2, 81, 0
2, 2325960, Note_on_c, 2, 81, 50
2, 2326080, Note_off_c, 2, 81, 0
2, 2326080, Note_on_c, 2, 81, 50
2, 2326200, Note_off_c, 2, 81, 0
2, 2326200, Note_on_c, 2, 81, 50
2, 2326320, Note_off_c, 2, 81, 0
2, 2326440, Note_on_c, 2, 81, 50
2, 2326560, Note_off_c, 2, 81, 0
2, 2326560, Note_on_c, 2, 81, 50
2, 2326680, Note_off_c, 2, 81, 0
2, 2326680, Note_on_c, 2, 81, 50
2, 2326800, Note_off_c, 2, 81, 0
2, 2326920, Note_on_c, 2, 81, 50
2, 2327040, Note_off_c, 2, 81, 0
2, 2327040, Note_on_c, 2, 81, 50
2, 2327160, Note_off_c, 2, 81, 0
2, 2327160, Note_on_c, 2, 81, 50
2, 2327280, Note_off_c, 2, 81, 0
2, 2327400, Note_on_c, 2, 81, 50
2, 2327520, Note_off_c, 2, 81, 0
2, 2327520, Note_on_c, 2, 76, 50
2, 2327640, Note_off_c, 2, 76, 0
2, 2327640, Note_on_c, 2, 81, 50
2, 2327760, Note_off_c, 2, 81, 0
2, 2327880, Note_on_c, 2, 79, 50
2, 2328000, Note_off_c, 2, 79, 0
2, 2328000, Note_on_c, 2, 76, 50
2, 2328120, Note_off_c, 2, 76, 0
2, 2328120, Note_on_c, 2, 74, 50
2, 2328240, Note_off_c, 2, 74, 0
2, 2328360, Note_on_c, 2, 76, 50
2, 2328480, Note_off_c, 2, 76, 0
2, 2328480, Note_on_c, 2, 84, 50
2, 2329320, Note_off_c, 2, 84, 0
2, 2329320, Note_on_c, 2, 84, 50
2, 2329440, Note_off_c, 2, 84, 0
2, 2329440, Note_on_c, 2, 81, 50
2, 2329560, Note_off_c, 2, 81, 0
2, 2329560, Note_on_c, 2, 79, 50
2, 2329680, Note_off_c, 2, 79, 0
2, 2329680, Note_on_c, 2, 80, 50
2, 2329800, Note_off_c, 2, 80, 0
2, 2329800, Note_on_c, 2, 81, 50
2, 2329920, Note_off_c, 2, 81, 0
2, 2329920, Note_on_c, 2, 81, 50
2, 2330160, Note_off_c, 2, 81, 0
2, 2330160, Note_on_c, 2, 81, 50
2, 2330400, Note_off_c, 2, 81, 0
2, 2330400, Note_on_c, 2, 79, 50
2, 2330520, Note_off_c, 2, 79, 0
2, 2330520, Note_on_c, 2, 79, 50
2, 2330640, Note_off_c, 2, 79, 0
2, 2330760, Note_on_c, 2, 79, 50
2, 2330880, Note_off_c, 2, 79, 0
2, 2330880, Note_on_c, 2, 79, 50
2, 2331000, Note_off_c, 2, 79, 0
2, 2331000, Note_on_c, 2, 79, 50
2, 2331120, Note_off_c, 2, 79, 0
2, 2331240, Note_on_c, 2, 79, 50
2, 2331360, Note_off_c, 2, 79, 0
2, 2331360, Note_on_c, 2, 79, 50
2, 2331480, Note_off_c, 2, 79, 0
2, 2331480, Note_on_c, 2, 79, 50
2, 2331600, Note_off_c, 2, 79, 0
2, 2331720, Note_on_c, 2, 79, 50
2, 2331840, Note_off_c, 2, 79, 0
2, 2331840, Note_on_c, 2, 81, 50
2, 2331960, Note_off_c, 2, 81, 0
2, 2331960, Note_on_c, 2, 79, 50
2, 2332080, Note_off_c, 2, 79, 0
2, 2332200, Note_on_c, 2, 76, 50
2, 2332320, Note_off_c, 2, 76, 0
2, 2332320, Note_on_c, 2, 74, 50
2, 2332440, Note_off_c, 2, 74, 0
2, 2332440, Note_on_c, 2, 74, 50
2, 2332560, Note_off_c, 2, 74, 0
2, 2332680, Note_on_c, 2, 74, 50
2, 2332800, Note_off_c, 2, 74, 0
2, 2332800, Note_on_c, 2, 74, 50
2, 2332920, Note_off_c, 2, 74, 0
2, 2332920, Note_on_c, 2, 74, 50
2, 2333040, Note_off_c, 2, 74, 0
2, 2333160, Note_on_c, 2, 74, 50
2, 2333280, Note_off_c, 2, 74, 0
2, 2333280, Note_on_c, 2, 74, 50
2, 2333400, Note_off_c, 2, 74, 0
2, 2333400, Note_on_c, 2, 74, 50
2, 2333520, Note_off_c, 2, 74, 0
2, 2333640, Note_on_c, 2, 74, 50
2, 2333760, Note_off_c, 2, 74, 0
2, 2333760, Note_on_c, 2, 74, 50
2, 2333880, Note_off_c, 2, 74, 0
2, 2333880, Note_on_c, 2, 72, 50
2, 2334000, Note_off_c, 2, 72, 0
2, 2334120, Note_on_c, 2, 69, 50
2, 2334240, Note_off_c, 2, 69, 0
2, 2334240, Note_on_c, 2, 72, 50
2, 2334720, Note_off_c, 2, 72, 0
2, 2334720, Note_on_c, 2, 74, 50
2, 2334840, Note_off_c, 2, 74, 0
2, 2334840, Note_on_c, 2, 74, 50
2, 2334960, Note_off_c, 2, 74, 0
2, 2335080, Note_on_c, 2, 69, 50
2, 2335200, Note_off_c, 2, 69, 0
2, 2335200, Note_on_c, 2, 72, 50
2, 2335560, Note_off_c, 2, 72, 0
2, 2335560, Note_on_c, 2, 69, 50
2, 2335680, Note_off_c, 2, 69, 0
2, 2335680, Note_on_c, 2, 64, 50
2, 2336040, Note_off_c, 2, 64, 0
2, 2336040, Note_on_c, 2, 69, 50
2, 2336160, Note_off_c, 2, 69, 0
2, 2336160, Note_on_c, 2, 64, 50
2, 2336280, Note_off_c, 2, 64, 0
2, 2336280, Note_on_c, 2, 66, 50
2, 2336400, Note_off_c, 2, 66, 0
2, 2336520, Note_on_c, 2, 69, 50
2, 2336640, Note_off_c, 2, 69, 0
2, 2336640, Note_on_c, 2, 64, 50
2, 2336760, Note_off_c, 2, 64, 0
2, 2336760, Note_on_c, 2, 66, 50
2, 2336880, Note_off_c, 2, 66, 0
2, 2337000, Note_on_c, 2, 69, 50
2, 2337120, Note_off_c, 2, 69, 0
2, 2337120, Note_on_c, 2, 64, 50
2, 2337240, Note_off_c, 2, 64, 0
2, 2337240, Note_on_c, 2, 66, 50
2, 2337360, Note_off_c, 2, 66, 0
2, 2337480, Note_on_c, 2, 69, 50
2, 2337600, Note_off_c, 2, 69, 0
2, 2337600, Note_on_c, 2, 64, 50
2, 2337720, Note_off_c, 2, 64, 0
2, 2337720, Note_on_c, 2, 66, 50
2, 2337840, Note_off_c, 2, 66, 0
2, 2337960, Note_on_c, 2, 69, 50
2, 2338080, Note_off_c, 2, 69, 0
2, 2338080, Note_on_c, 2, 64, 50
2, 2338200, Note_off_c, 2, 64, 0
2, 2338200, Note_on_c, 2, 66, 50
2, 2338320, Note_off_c, 2, 66, 0
2, 2338440, Note_on_c, 2, 69, 50
2, 2338560, Note_off_c, 2, 69, 0
2, 2338560, Note_on_c, 2, 64, 50
2, 2338680, Note_off_c, 2, 64, 0
2, 2338680, Note_on_c, 2, 66, 50
2, 2338800, Note_off_c, 2, 66, 0
2, 2338920, Note_on_c, 2, 69, 50
2, 2339040, Note_off_c, 2, 69, 0
2, 2339040, Note_on_c, 2, 64, 50
2, 2339160, Note_off_c, 2, 64, 0
2, 2339160, Note_on_c, 2, 66, 50
2, 2339280, Note_off_c, 2, 66, 0
2, 2339400, Note_on_c, 2, 69, 50
2, 2339520, Note_off_c, 2, 69, 0
2, 2339520, Note_on_c, 2, 64, 50
2, 2339640, Note_off_c, 2, 64, 0
2, 2339640, Note_on_c, 2, 66, 50
2, 2339760, Note_off_c, 2, 66, 0
2, 2339880, Note_on_c, 2, 69, 50
2, 2340000, Note_off_c, 2, 69, 0
2, 2340000, Note_on_c, 2, 64, 50
2, 2340120, Note_off_c, 2, 64, 0
2, 2340120, Note_on_c, 2, 66, 50
2, 2340240, Note_off_c, 2, 66, 0
2, 2340360, Note_on_c, 2, 69, 50
2, 2340480, Note_off_c, 2, 69, 0
2, 2340480, Note_on_c, 2, 64, 50
2, 2340600, Note_off_c, 2, 64, 0
2, 2340600, Note_on_c, 2, 66, 50
2, 2340720, Note_off_c, 2, 66, 0
2, 2340840, Note_on_c, 2, 69, 50
2, 2340960, Note_off_c, 2, 69, 0
2, 2340960, Note_on_c, 2, 64, 50
2, 2341080, Note_off_c, 2, 64, 0
2, 2341080, Note_on_c, 2, 66, 50
2, 2341200, Note_off_c, 2, 66, 0
2, 2341320, Note_on_c, 2, 69, 50
2, 2341440, Note_off_c, 2, 69, 0
2, 2341440, Note_on_c, 2, 64, 50
2, 2341560, Note_off_c, 2, 64, 0
2, 2341560, Note_on_c, 2, 66, 50
2, 2341680, Note_off_c, 2, 66, 0
2, 2341800, Note_on_c, 2, 69, 50
2, 2341920, Note_off_c, 2, 69, 0
2, 2341920, Note_on_c, 2, 64, 50
2, 2342040, Note_off_c, 2, 64, 0
2, 2342040, Note_on_c, 2, 66, 50
2, 2342160, Note_off_c, 2, 66, 0
2, 2342280, Note_on_c, 2, 69, 50
2, 2342400, Note_off_c, 2, 69, 0
2, 2342400, Note_on_c, 2, 64, 50
2, 2342520, Note_off_c, 2, 64, 0
2, 2342520, Note_on_c, 2, 66, 50
2, 2342640, Note_off_c, 2, 66, 0
2, 2342760, Note_on_c, 2, 69, 50
2, 2342880, Note_off_c, 2, 69, 0
2, 2342880, Note_on_c, 2, 64, 50
2, 2343000, Note_off_c, 2, 64, 0
2, 2343000, Note_on_c, 2, 66, 50
2, 2343120, Note_off_c, 2, 66, 0
2, 2343240, Note_on_c, 2, 69, 50
2, 2343360, Note_off_c, 2, 69, 0
2, 2343360, Note_on_c, 2, 64, 50
2, 2343480, Note_off_c, 2, 64, 0
2, 2343480, Note_on_c, 2, 66, 50
2, 2343600, Note_off_c, 2, 66, 0
2, 2343720, Note_on_c, 2, 69, 50
2, 2343840, Note_off_c, 2, 69, 0
2, 2343840, Note_on_c, 2, 64, 50
2, 2344200, Note_off_c, 2, 64, 0
2, 2344200, Note_on_c, 2, 67, 50
2, 2344320, Note_off_c, 2, 67, 0
2, 2344320, Note_on_c, 2, 62, 50
2, 2344560, Note_off_c, 2, 62, 0
2, 2344800, Note_on_c, 2, 60, 50
2, 2345160, Note_off_c, 2, 60, 0
2, 2345160, Note_on_c, 2, 57, 50
2, 2345280, Note_off_c, 2, 57, 0
2, 2347680, Note_on_c, 2, 64, 50
2, 2348040, Note_off_c, 2, 64, 0
2, 2348040, Note_on_c, 2, 67, 50
2, 2348160, Note_off_c, 2, 67, 0
2, 2348160, Note_on_c, 2, 62, 50
2, 2348400, Note_off_c, 2, 62, 0
2, 2348640, Note_on_c, 2, 60, 50
2, 2349000, Note_off_c, 2, 60, 0
2, 2349000, Note_on_c, 2, 57, 50
2, 2349120, Note_off_c, 2, 57, 0
2, 2351520, Note_on_c, 2, 74, 50
2, 2352000, Note_off_c, 2, 74, 0
2, 2352000, Note_on_c, 2, 74, 50
2, 2352120, Note_off_c, 2, 74, 0
2, 2352120, Note_on_c, 2, 72, 50
2, 2352240, Note_off_c, 2, 72, 0
2, 2352360, Note_on_c, 2, 69, 50
2, 2352480, Note_off_c, 2, 69, 0
2, 2352840, Note_on_c, 2, 60, 50
2, 2352960, Note_off_c, 2, 60, 0
2, 2352960, Note_on_c, 2, 55, 50
2, 2353320, Note_off_c, 2, 55, 0
2, 2353320, Note_on_c, 2, 48, 50
2, 2353440, Note_off_c, 2, 48, 0
2, 2353440, Note_on_c, 2, 45, 50
2, 2353800, Note_off_c, 2, 45, 0
2, 2353800, Note_on_c, 2, 64, 50
2, 2353920, Note_off_c, 2, 64, 0
2, 2354280, Note_on_c, 2, 64, 50
2, 2354400, Note_off_c, 2, 64, 0
2, 2354760, Note_on_c, 2, 64, 50
2, 2354880, Note_off_c, 2, 64, 0
2, 2354880, Note_on_c, 2, 55, 50
2, 2355240, Note_off_c, 2, 55, 0
2, 2355720, Note_on_c, 2, 64, 50
2, 2355840, Note_off_c, 2, 64, 0
2, 2356200, Note_on_c, 2, 64, 50
2, 2356320, Note_off_c, 2, 64, 0
2, 2356680, Note_on_c, 2, 64, 50
2, 2356800, Note_off_c, 2, 64, 0
2, 2356800, Note_on_c, 2, 55, 50
2, 2357160, Note_off_c, 2, 55, 0
2, 2357640, Note_on_c, 2, 64, 50
2, 2357760, Note_off_c, 2, 64, 0
2, 2358120, Note_on_c, 2, 64, 50
2, 2358240, Note_off_c, 2, 64, 0
2, 2358600, Note_on_c, 2, 64, 50
2, 2358720, Note_off_c, 2, 64, 0
2, 2358720, Note_on_c, 2, 55, 50
2, 2359080, Note_off_c, 2, 55, 0
2, 2359560, Note_on_c, 2, 64, 50
2, 2359680, Note_off_c, 2, 64, 0
2, 2360040, Note_on_c, 2, 64, 50
2, 2360160, Note_off_c, 2, 64, 0
2, 2360520, Note_on_c, 2, 64, 50
2, 2360640, Note_off_c, 2, 64, 0
2, 2360640, Note_on_c, 2, 55, 50
2, 2361000, Note_off_c, 2, 55, 0
2, 2361480, Note_on_c, 2, 64, 50
2, 2361600, Note_off_c, 2, 64, 0
2, 2361960, Note_on_c, 2, 64, 50
2, 2362080, Note_off_c, 2, 64, 0
2, 2362440, Note_on_c, 2, 64, 50
2, 2362560, Note_off_c, 2, 64, 0
2, 2362560, Note_on_c, 2, 55, 50
2, 2362920, Note_off_c, 2, 55, 0
2, 2363400, Note_on_c, 2, 64, 50
2, 2363520, Note_off_c, 2, 64, 0
2, 2363880, Note_on_c, 2, 64, 50
2, 2364000, Note_off_c, 2, 64, 0
2, 2364360, Note_on_c, 2, 64, 50
2, 2364480, Note_off_c, 2, 64, 0
2, 2364480, Note_on_c, 2, 55, 50
2, 2364840, Note_off_c, 2, 55, 0
2, 2365320, Note_on_c, 2, 64, 50
2, 2365440, Note_off_c, 2, 64, 0
2, 2365800, Note_on_c, 2, 64, 50
2, 2365920, Note_off_c, 2, 64, 0
2, 2366280, Note_on_c, 2, 64, 50
2, 2366400, Note_off_c, 2, 64, 0
2, 2366400, Note_on_c, 2, 55, 50
2, 2366760, Note_off_c, 2, 55, 0
2, 2367240, Note_on_c, 2, 64, 50
2, 2367360, Note_off_c, 2, 64, 0
2, 2367720, Note_on_c, 2, 64, 50
2, 2367840, Note_off_c, 2, 64, 0
2, 2368200, Note_on_c, 2, 64, 50
2, 2368320, Note_off_c, 2, 64, 0
2, 2368320, Note_on_c, 2, 55, 50
2, 2368680, Note_off_c, 2, 55, 0
2, 2369160, Note_on_c, 2, 64, 50
2, 2369280, Note_off_c, 2, 64, 0
2, 2369640, Note_on_c, 2, 64, 50
2, 2369760, Note_off_c, 2, 64, 0
2, 2370120, Note_on_c, 2, 64, 50
2, 2370240, Note_off_c, 2, 64, 0
2, 2370240, Note_on_c, 2, 55, 50
2, 2370600, Note_off_c, 2, 55, 0
2, 2371080, Note_on_c, 2, 64, 50
2, 2371200, Note_off_c, 2, 64, 0
2, 2371560, Note_on_c, 2, 64, 50
2, 2371680, Note_off_c, 2, 64, 0
2, 2372040, Note_on_c, 2, 64, 50
2, 2372160, Note_off_c, 2, 64, 0
2, 2372160, Note_on_c, 2, 55, 50
2, 2372520, Note_off_c, 2, 55, 0
2, 2373000, Note_on_c, 2, 64, 50
2, 2373120, Note_off_c, 2, 64, 0
2, 2373480, Note_on_c, 2, 64, 50
2, 2373600, Note_off_c, 2, 64, 0
2, 2373960, Note_on_c, 2, 64, 50
2, 2374080, Note_off_c, 2, 64, 0
2, 2374080, Note_on_c, 2, 55, 50
2, 2374440, Note_off_c, 2, 55, 0
2, 2374920, Note_on_c, 2, 64, 50
2, 2375040, Note_off_c, 2, 64, 0
2, 2375400, Note_on_c, 2, 64, 50
2, 2375520, Note_off_c, 2, 64, 0
2, 2375880, Note_on_c, 2, 64, 50
2, 2376000, Note_off_c, 2, 64, 0
2, 2376000, Note_on_c, 2, 55, 50
2, 2376360, Note_off_c, 2, 55, 0
2, 2376840, Note_on_c, 2, 64, 50
2, 2376960, Note_off_c, 2, 64, 0
2, 2377320, Note_on_c, 2, 64, 50
2, 2377440, Note_off_c, 2, 64, 0
2, 2377800, Note_on_c, 2, 64, 50
2, 2377920, Note_off_c, 2, 64, 0
2, 2377920, Note_on_c, 2, 55, 50
2, 2378280, Note_off_c, 2, 55, 0
2, 2378760, Note_on_c, 2, 64, 50
2, 2378880, Note_off_c, 2, 64, 0
2, 2379240, Note_on_c, 2, 64, 50
2, 2379360, Note_off_c, 2, 64, 0
2, 2379720, Note_on_c, 2, 64, 50
2, 2379840, Note_off_c, 2, 64, 0
2, 2379840, Note_on_c, 2, 55, 50
2, 2380200, Note_off_c, 2, 55, 0
2, 2380680, Note_on_c, 2, 64, 50
2, 2380800, Note_off_c, 2, 64, 0
2, 2381160, Note_on_c, 2, 64, 50
2, 2381280, Note_off_c, 2, 64, 0
2, 2381640, Note_on_c, 2, 64, 50
2, 2381760, Note_off_c, 2, 64, 0
2, 2381760, Note_on_c, 2, 55, 50
2, 2382120, Note_off_c, 2, 55, 0
2, 2382600, Note_on_c, 2, 64, 50
2, 2382720, Note_off_c, 2, 64, 0
2, 2383080, Note_on_c, 2, 64, 50
2, 2383200, Note_off_c, 2, 64, 0
2, 2383560, Note_on_c, 2, 64, 50
2, 2383680, Note_off_c, 2, 64, 0
2, 2383680, Note_on_c, 2, 55, 50
2, 2384040, Note_off_c, 2, 55, 0
2, 2384520, Note_on_c, 2, 64, 50
2, 2384640, Note_off_c, 2, 64, 0
2, 2385000, Note_on_c, 2, 64, 50
2, 2385120, Note_off_c, 2, 64, 0
2, 2385480, Note_on_c, 2, 64, 50
2, 2385600, Note_off_c, 2, 64, 0
2, 2385600, Note_on_c, 2, 55, 50
2, 2385960, Note_off_c, 2, 55, 0
2, 2386440, Note_on_c, 2, 64, 50
2, 2386560, Note_off_c, 2, 64, 0
2, 2386920, Note_on_c, 2, 64, 50
2, 2387040, Note_off_c, 2, 64, 0
2, 2387400, Note_on_c, 2, 64, 50
2, 2387520, Note_off_c, 2, 64, 0
2, 2387520, Note_on_c, 2, 55, 50
2, 2387880, Note_off_c, 2, 55, 0
2, 2388360, Note_on_c, 2, 64, 50
2, 2388480, Note_off_c, 2, 64, 0
2, 2388840, Note_on_c, 2, 64, 50
2, 2388960, Note_off_c, 2, 64, 0
2, 2389320, Note_on_c, 2, 64, 50
2, 2389440, Note_off_c, 2, 64, 0
2, 2389440, Note_on_c, 2, 55, 50
2, 2389800, Note_off_c, 2, 55, 0
2, 2390280, Note_on_c, 2, 64, 50
2, 2390400, Note_off_c, 2, 64, 0
2, 2390760, Note_on_c, 2, 64, 50
2, 2390880, Note_off_c, 2, 64, 0
2, 2391240, Note_on_c, 2, 64, 50
2, 2391360, Note_off_c, 2, 64, 0
2, 2391360, Note_on_c, 2, 55, 50
2, 2391720, Note_off_c, 2, 55, 0
2, 2392200, Note_on_c, 2, 64, 50
2, 2392320, Note_off_c, 2, 64, 0
2, 2392680, Note_on_c, 2, 64, 50
2, 2392800, Note_off_c, 2, 64, 0
2, 2393160, Note_on_c, 2, 64, 50
2, 2393280, Note_off_c, 2, 64, 0
2, 2393280, Note_on_c, 2, 55, 50
2, 2393640, Note_off_c, 2, 55, 0
2, 2394120, Note_on_c, 2, 64, 50
2, 2394240, Note_off_c, 2, 64, 0
2, 2394600, Note_on_c, 2, 64, 50
2, 2394720, Note_off_c, 2, 64, 0
2, 2395080, Note_on_c, 2, 64, 50
2, 2395200, Note_off_c, 2, 64, 0
2, 2395200, Note_on_c, 2, 55, 50
2, 2395560, Note_off_c, 2, 55, 0
2, 2396040, Note_on_c, 2, 64, 50
2, 2396160, Note_off_c, 2, 64, 0
2, 2396520, Note_on_c, 2, 64, 50
2, 2396640, Note_off_c, 2, 64, 0
2, 2397000, Note_on_c, 2, 64, 50
2, 2397120, Note_off_c, 2, 64, 0
2, 2397120, Note_on_c, 2, 55, 50
2, 2397480, Note_off_c, 2, 55, 0
2, 2397960, Note_on_c, 2, 64, 50
2, 2398080, Note_off_c, 2, 64, 0
2, 2398440, Note_on_c, 2, 64, 50
2, 2398560, Note_off_c, 2, 64, 0
2, 2398920, Note_on_c, 2, 64, 50
2, 2399040, Note_off_c, 2, 64, 0
2, 2399040, Note_on_c, 2, 55, 50
2, 2399400, Note_off_c, 2, 55, 0
2, 2399880, Note_on_c, 2, 64, 50
2, 2400000, Note_off_c, 2, 64, 0
2, 2400000, End_track, , , 
0, 0, End_of_file, , , 
