0, 0, Header, 1, 2, 480
1, 0, Start_track, , , 
1, 0, Title_t, Fingered Bass, , 
1, 0, Control_c, 1, 0, 0
1, 0, Control_c, 1, 32, 0
1, 0, Program_c, 1, 33
1, 120, Note_on_c, 1, 35, 40
1, 240, Note_off_c, 1, 35, 0
1, 600, Note_on_c, 1, 35, 40
1, 720, Note_off_c, 1, 35, 0
1, 1080, Note_on_c, 1, 33, 40
1, 1200, Note_off_c, 1, 33, 0
1, 1920, Note_on_c, 1, 30, 40
1, 2040, Note_off_c, 1, 30, 0
1, 2040, Note_on_c, 1, 43, 40
1, 2160, Note_off_c, 1, 43, 0
1, 2160, Note_on_c, 1, 30, 40
1, 2280, Note_off_c, 1, 30, 0
1, 2280, Note_on_c, 1, 43, 40
1, 2400, Note_off_c, 1, 43, 0
1, 2400, Note_on_c, 1, 30, 40
1, 2520, Note_off_c, 1, 30, 0
1, 2520, Note_on_c, 1, 43, 40
1, 2640, Note_off_c, 1, 43, 0
1, 2640, Note_on_c, 1, 30, 40
1, 2760, Note_off_c, 1, 30, 0
1, 2760, Note_on_c, 1, 43, 40
1, 2880, Note_off_c, 1, 43, 0
1, 2880, Note_on_c, 1, 30, 40
1, 3000, Note_off_c, 1, 30, 0
1, 3000, Note_on_c, 1, 43, 40
1, 3120, Note_off_c, 1, 43, 0
1, 3120, Note_on_c, 1, 30, 40
1, 3240, Note_off_c, 1, 30, 0
1, 3360, Note_on_c, 1, 35, 40
1, 3480, Note_off_c, 1, 35, 0
1, 8520, Note_on_c, 1, 33, 40
1, 10440, Note_off_c, 1, 33, 0
1, 10440, Note_on_c, 1, 37, 40
1, 12360, Note_off_c, 1, 37, 0
1, 12960, Note_on_c, 1, 35, 40
1, 13080, Note_off_c, 1, 35, 0
1, 14040, Note_on_c, 1, 37, 40
1, 14160, Note_off_c, 1, 37, 0
1, 14160, Note_on_c, 1, 30, 40
1, 14280, Note_off_c, 1, 30, 0
1, 14400, Note_on_c, 1, 37, 40
1, 14520, Note_off_c, 1, 37, 0
1, 14520, Note_on_c, 1, 30, 40
1, 14640, Note_off_c, 1, 30, 0
1, 14760, Note_on_c, 1, 37, 40
1, 14880, Note_off_c, 1, 37, 0
1, 14880, Note_on_c, 1, 30, 40
1, 15000, Note_off_c, 1, 30, 0
1, 15120, Note_on_c, 1, 37, 40
1, 15240, Note_off_c, 1, 37, 0
1, 19800, Note_on_c, 1, 33, 40
1, 21360, Note_off_c, 1, 33, 0
1, 21360, Note_on_c, 1, 45, 40
1, 23280, Note_off_c, 1, 45, 0
1, 23280, Note_on_c, 1, 35, 40
1, 25200, Note_off_c, 1, 35, 0
1, 25200, Note_on_c, 1, 28, 40
1, 27120, Note_off_c, 1, 28, 0
1, 27120, Note_on_c, 1, 33, 40
1, 29040, Note_off_c, 1, 33, 0
1, 29040, Note_on_c, 1, 45, 40
1, 30960, Note_off_c, 1, 45, 0
1, 30960, Note_on_c, 1, 35, 40
1, 32880, Note_off_c, 1, 35, 0
1, 32880, Note_on_c, 1, 33, 40
1, 34800, Note_off_c, 1, 33, 0
1, 34800, Note_on_c, 1, 30, 40
1, 35040, Note_off_c, 1, 30, 0
1, 35040, Note_on_c, 1, 30, 40
1, 35160, Note_off_c, 1, 30, 0
1, 35280, Note_on_c, 1, 35, 40
1, 35400, Note_off_c, 1, 35, 0
1, 35520, Note_on_c, 1, 35, 40
1, 35640, Note_off_c, 1, 35, 0
1, 35760, Note_on_c, 1, 35, 40
1, 35880, Note_off_c, 1, 35, 0
1, 36000, Note_on_c, 1, 33, 40
1, 36120, Note_off_c, 1, 33, 0
1, 36240, Note_on_c, 1, 35, 40
1, 36360, Note_off_c, 1, 35, 0
1, 36480, Note_on_c, 1, 35, 40
1, 36600, Note_off_c, 1, 35, 0
1, 36720, Note_on_c, 1, 35, 40
1, 36840, Note_off_c, 1, 35, 0
1, 36840, Note_on_c, 1, 38, 40
1, 37080, Note_off_c, 1, 38, 0
1, 39720, Note_on_c, 1, 33, 40
1, 41640, Note_off_c, 1, 33, 0
1, 41640, Note_on_c, 1, 37, 40
1, 43560, Note_off_c, 1, 37, 0
1, 44760, Note_on_c, 1, 37, 40
1, 45000, Note_off_c, 1, 37, 0
1, 45000, Note_on_c, 1, 30, 40
1, 45240, Note_off_c, 1, 30, 0
1, 45240, Note_on_c, 1, 45, 40
1, 46080, Note_off_c, 1, 45, 0
1, 46080, Note_on_c, 1, 35, 40
1, 47400, Note_off_c, 1, 35, 0
1, 47400, Note_on_c, 1, 45, 40
1, 47640, Note_off_c, 1, 45, 0
1, 47640, Note_on_c, 1, 45, 40
1, 47880, Note_off_c, 1, 45, 0
1, 47880, Note_on_c, 1, 45, 40
1, 48360, Note_off_c, 1, 45, 0
1, 48360, Note_on_c, 1, 45, 40
1, 49080, Note_off_c, 1, 45, 0
1, 53880, Note_on_c, 1, 33, 40
1, 55800, Note_off_c, 1, 33, 0
1, 55800, Note_on_c, 1, 45, 40
1, 57720, Note_off_c, 1, 45, 0
1, 57720, Note_on_c, 1, 35, 40
1, 59640, Note_off_c, 1, 35, 0
1, 59640, Note_on_c, 1, 28, 40
1, 61560, Note_off_c, 1, 28, 0
1, 61560, Note_on_c, 1, 33, 40
1, 63480, Note_off_c, 1, 33, 0
1, 63480, Note_on_c, 1, 33, 40
1, 65400, Note_off_c, 1, 33, 0
1, 65400, Note_on_c, 1, 30, 40
1, 65640, Note_off_c, 1, 30, 0
1, 65640, Note_on_c, 1, 30, 40
1, 65760, Note_off_c, 1, 30, 0
1, 65880, Note_on_c, 1, 35, 40
1, 66000, Note_off_c, 1, 35, 0
1, 66120, Note_on_c, 1, 35, 40
1, 66240, Note_off_c, 1, 35, 0
1, 66360, Note_on_c, 1, 35, 40
1, 66480, Note_off_c, 1, 35, 0
1, 66600, Note_on_c, 1, 33, 40
1, 66720, Note_off_c, 1, 33, 0
1, 67080, Note_on_c, 1, 35, 40
1, 67200, Note_off_c, 1, 35, 0
1, 67320, Note_on_c, 1, 35, 40
1, 67440, Note_off_c, 1, 35, 0
1, 68280, Note_on_c, 1, 42, 40
1, 68520, Note_off_c, 1, 42, 0
1, 68520, Note_on_c, 1, 42, 40
1, 68760, Note_off_c, 1, 42, 0
1, 68760, Note_on_c, 1, 45, 40
1, 69000, Note_off_c, 1, 45, 0
1, 69000, Note_on_c, 1, 45, 40
1, 69240, Note_off_c, 1, 45, 0
1, 69240, Note_on_c, 1, 45, 40
1, 69480, Note_off_c, 1, 45, 0
1, 69480, Note_on_c, 1, 45, 40
1, 69720, Note_off_c, 1, 45, 0
1, 69720, Note_on_c, 1, 45, 40
1, 69960, Note_off_c, 1, 45, 0
1, 69960, Note_on_c, 1, 45, 40
1, 70200, Note_off_c, 1, 45, 0
1, 70200, Note_on_c, 1, 45, 40
1, 70440, Note_off_c, 1, 45, 0
1, 70440, Note_on_c, 1, 45, 40
1, 70680, Note_off_c, 1, 45, 0
1, 70680, Note_on_c, 1, 45, 40
1, 70920, Note_off_c, 1, 45, 0
1, 70920, Note_on_c, 1, 45, 40
1, 71160, Note_off_c, 1, 45, 0
1, 71160, Note_on_c, 1, 30, 40
1, 71400, Note_off_c, 1, 30, 0
1, 71400, Note_on_c, 1, 43, 40
1, 72240, Note_off_c, 1, 43, 0
1, 72720, Note_on_c, 1, 30, 40
1, 73200, Note_off_c, 1, 30, 0
1, 73200, Note_on_c, 1, 42, 40
1, 74160, Note_off_c, 1, 42, 0
1, 74160, Note_on_c, 1, 42, 40
1, 76080, Note_off_c, 1, 42, 0
1, 76080, Note_on_c, 1, 33, 40
1, 78000, Note_off_c, 1, 33, 0
1, 78000, Note_on_c, 1, 45, 40
1, 78240, Note_off_c, 1, 45, 0
1, 78240, Note_on_c, 1, 37, 40
1, 78360, Note_off_c, 1, 37, 0
1, 78480, Note_on_c, 1, 33, 40
1, 78600, Note_off_c, 1, 33, 0
1, 78720, Note_on_c, 1, 35, 40
1, 78840, Note_off_c, 1, 35, 0
1, 79200, Note_on_c, 1, 35, 40
1, 79320, Note_off_c, 1, 35, 0
1, 79440, Note_on_c, 1, 35, 40
1, 79560, Note_off_c, 1, 35, 0
1, 79680, Note_on_c, 1, 35, 40
1, 79800, Note_off_c, 1, 35, 0
1, 79800, Note_on_c, 1, 47, 40
1, 79920, Note_off_c, 1, 47, 0
1, 79920, Note_on_c, 1, 47, 40
1, 80640, Note_off_c, 1, 47, 0
1, 80640, Note_on_c, 1, 47, 40
1, 81120, Note_off_c, 1, 47, 0
1, 81120, Note_on_c, 1, 47, 40
1, 81600, Note_off_c, 1, 47, 0
1, 81600, Note_on_c, 1, 47, 40
1, 81840, Note_off_c, 1, 47, 0
1, 81840, Note_on_c, 1, 47, 40
1, 82080, Note_off_c, 1, 47, 0
1, 82080, Note_on_c, 1, 47, 40
1, 82800, Note_off_c, 1, 47, 0
1, 88080, Note_on_c, 1, 33, 40
1, 90000, Note_off_c, 1, 33, 0
1, 90000, Note_on_c, 1, 28, 40
1, 90240, Note_off_c, 1, 28, 0
1, 90240, Note_on_c, 1, 43, 40
1, 90480, Note_off_c, 1, 43, 0
1, 90480, Note_on_c, 1, 43, 40
1, 90720, Note_off_c, 1, 43, 0
1, 90720, Note_on_c, 1, 43, 40
1, 90960, Note_off_c, 1, 43, 0
1, 90960, Note_on_c, 1, 43, 40
1, 91200, Note_off_c, 1, 43, 0
1, 91200, Note_on_c, 1, 43, 40
1, 91440, Note_off_c, 1, 43, 0
1, 91560, Note_on_c, 1, 33, 40
1, 91680, Note_off_c, 1, 33, 0
1, 92760, Note_on_c, 1, 35, 40
1, 92880, Note_off_c, 1, 35, 0
1, 93240, Note_on_c, 1, 33, 40
1, 93360, Note_off_c, 1, 33, 0
1, 94080, Note_on_c, 1, 30, 40
1, 94200, Note_off_c, 1, 30, 0
1, 94200, Note_on_c, 1, 43, 40
1, 94320, Note_off_c, 1, 43, 0
1, 94320, Note_on_c, 1, 30, 40
1, 94440, Note_off_c, 1, 30, 0
1, 94440, Note_on_c, 1, 43, 40
1, 94560, Note_off_c, 1, 43, 0
1, 94560, Note_on_c, 1, 30, 40
1, 94680, Note_off_c, 1, 30, 0
1, 94680, Note_on_c, 1, 43, 40
1, 94800, Note_off_c, 1, 43, 0
1, 94800, Note_on_c, 1, 30, 40
1, 94920, Note_off_c, 1, 30, 0
1, 94920, Note_on_c, 1, 43, 40
1, 95040, Note_off_c, 1, 43, 0
1, 95040, Note_on_c, 1, 30, 40
1, 95160, Note_off_c, 1, 30, 0
1, 95160, Note_on_c, 1, 43, 40
1, 95280, Note_off_c, 1, 43, 0
1, 95280, Note_on_c, 1, 30, 40
1, 95400, Note_off_c, 1, 30, 0
1, 95520, Note_on_c, 1, 35, 40
1, 95640, Note_off_c, 1, 35, 0
1, 100680, Note_on_c, 1, 33, 40
1, 102600, Note_off_c, 1, 33, 0
1, 102600, Note_on_c, 1, 30, 40
1, 104520, Note_off_c, 1, 30, 0
1, 114120, Note_on_c, 1, 33, 40
1, 116040, Note_off_c, 1, 33, 0
1, 116040, Note_on_c, 1, 33, 40
1, 117960, Note_off_c, 1, 33, 0
1, 117960, Note_on_c, 1, 45, 40
1, 119880, Note_off_c, 1, 45, 0
1, 119880, Note_on_c, 1, 33, 40
1, 121800, Note_off_c, 1, 33, 0
1, 121800, Note_on_c, 1, 45, 40
1, 123720, Note_off_c, 1, 45, 0
1, 123720, Note_on_c, 1, 33, 40
1, 125640, Note_off_c, 1, 33, 0
1, 125640, Note_on_c, 1, 45, 40
1, 127560, Note_off_c, 1, 45, 0
1, 127560, Note_on_c, 1, 33, 40
1, 129480, Note_off_c, 1, 33, 0
1, 129480, Note_on_c, 1, 33, 40
1, 131400, Note_off_c, 1, 33, 0
1, 131400, Note_on_c, 1, 30, 40
1, 133320, Note_off_c, 1, 30, 0
1, 144840, Note_on_c, 1, 33, 40
1, 146760, Note_off_c, 1, 33, 0
1, 146760, Note_on_c, 1, 33, 40
1, 148680, Note_off_c, 1, 33, 0
1, 148680, Note_on_c, 1, 45, 40
1, 150600, Note_off_c, 1, 45, 0
1, 150600, Note_on_c, 1, 33, 40
1, 152520, Note_off_c, 1, 33, 0
1, 152520, Note_on_c, 1, 45, 40
1, 154440, Note_off_c, 1, 45, 0
1, 154440, Note_on_c, 1, 33, 40
1, 156360, Note_off_c, 1, 33, 0
1, 156360, Note_on_c, 1, 45, 40
1, 158280, Note_off_c, 1, 45, 0
1, 158280, Note_on_c, 1, 33, 40
1, 160200, Note_off_c, 1, 33, 0
1, 160200, Note_on_c, 1, 33, 40
1, 162120, Note_off_c, 1, 33, 0
1, 162120, Note_on_c, 1, 30, 40
1, 164040, Note_off_c, 1, 30, 0
1, 181320, Note_on_c, 1, 30, 40
1, 183240, Note_off_c, 1, 30, 0
1, 183240, Note_on_c, 1, 37, 40
1, 183480, Note_off_c, 1, 37, 0
1, 183480, Note_on_c, 1, 37, 40
1, 183960, Note_off_c, 1, 37, 0
1, 183960, Note_on_c, 1, 37, 40
1, 184440, Note_off_c, 1, 37, 0
1, 184440, Note_on_c, 1, 37, 40
1, 184680, Note_off_c, 1, 37, 0
1, 185640, Note_on_c, 1, 40, 40
1, 185760, Note_off_c, 1, 40, 0
1, 185880, Note_on_c, 1, 40, 40
1, 186000, Note_off_c, 1, 40, 0
1, 186120, Note_on_c, 1, 45, 40
1, 186240, Note_off_c, 1, 45, 0
1, 186360, Note_on_c, 1, 45, 40
1, 186480, Note_off_c, 1, 45, 0
1, 186600, Note_on_c, 1, 45, 40
1, 186720, Note_off_c, 1, 45, 0
1, 186840, Note_on_c, 1, 45, 40
1, 186960, Note_off_c, 1, 45, 0
1, 187080, Note_on_c, 1, 45, 40
1, 187200, Note_off_c, 1, 45, 0
1, 187320, Note_on_c, 1, 37, 40
1, 187440, Note_off_c, 1, 37, 0
1, 187560, Note_on_c, 1, 37, 40
1, 187680, Note_off_c, 1, 37, 0
1, 187800, Note_on_c, 1, 37, 40
1, 187920, Note_off_c, 1, 37, 0
1, 188040, Note_on_c, 1, 37, 40
1, 188160, Note_off_c, 1, 37, 0
1, 189480, Note_on_c, 1, 40, 40
1, 189600, Note_off_c, 1, 40, 0
1, 189720, Note_on_c, 1, 40, 40
1, 189840, Note_off_c, 1, 40, 0
1, 191640, Note_on_c, 1, 35, 40
1, 191760, Note_off_c, 1, 35, 0
1, 191880, Note_on_c, 1, 35, 40
1, 192000, Note_off_c, 1, 35, 0
1, 193320, Note_on_c, 1, 40, 40
1, 193440, Note_off_c, 1, 40, 0
1, 193560, Note_on_c, 1, 40, 40
1, 193680, Note_off_c, 1, 40, 0
1, 193800, Note_on_c, 1, 45, 40
1, 193920, Note_off_c, 1, 45, 0
1, 194040, Note_on_c, 1, 45, 40
1, 194160, Note_off_c, 1, 45, 0
1, 194280, Note_on_c, 1, 45, 40
1, 194400, Note_off_c, 1, 45, 0
1, 194520, Note_on_c, 1, 45, 40
1, 194640, Note_off_c, 1, 45, 0
1, 194760, Note_on_c, 1, 45, 40
1, 194880, Note_off_c, 1, 45, 0
1, 195000, Note_on_c, 1, 37, 40
1, 195120, Note_off_c, 1, 37, 0
1, 195240, Note_on_c, 1, 37, 40
1, 195360, Note_off_c, 1, 37, 0
1, 195480, Note_on_c, 1, 37, 40
1, 195600, Note_off_c, 1, 37, 0
1, 195720, Note_on_c, 1, 37, 40
1, 195840, Note_off_c, 1, 37, 0
1, 195960, Note_on_c, 1, 40, 40
1, 196320, Note_off_c, 1, 40, 0
1, 197160, Note_on_c, 1, 40, 40
1, 197520, Note_off_c, 1, 40, 0
1, 197520, Note_on_c, 1, 40, 40
1, 198000, Note_off_c, 1, 40, 0
1, 198000, Note_on_c, 1, 52, 40
1, 198480, Note_off_c, 1, 52, 0
1, 198480, Note_on_c, 1, 52, 40
1, 198960, Note_off_c, 1, 52, 0
1, 198960, Note_on_c, 1, 52, 40
1, 199200, Note_off_c, 1, 52, 0
1, 199200, Note_on_c, 1, 52, 40
1, 199440, Note_off_c, 1, 52, 0
1, 199440, Note_on_c, 1, 52, 40
1, 199680, Note_off_c, 1, 52, 0
1, 199680, Note_on_c, 1, 52, 40
1, 199920, Note_off_c, 1, 52, 0
1, 199920, Note_on_c, 1, 52, 40
1, 200400, Note_off_c, 1, 52, 0
1, 200400, Note_on_c, 1, 52, 40
1, 200880, Note_off_c, 1, 52, 0
1, 200880, Note_on_c, 1, 52, 40
1, 201360, Note_off_c, 1, 52, 0
1, 201360, Note_on_c, 1, 52, 40
1, 201840, Note_off_c, 1, 52, 0
1, 201840, Note_on_c, 1, 52, 40
1, 202320, Note_off_c, 1, 52, 0
1, 202320, Note_on_c, 1, 52, 40
1, 203280, Note_off_c, 1, 52, 0
1, 203280, Note_on_c, 1, 52, 40
1, 205200, Note_off_c, 1, 52, 0
1, 205200, Note_on_c, 1, 33, 40
1, 205440, Note_off_c, 1, 33, 0
1, 205440, Note_on_c, 1, 35, 40
1, 205560, Note_off_c, 1, 35, 0
1, 207000, Note_on_c, 1, 35, 40
1, 207120, Note_off_c, 1, 35, 0
1, 207240, Note_on_c, 1, 35, 40
1, 207360, Note_off_c, 1, 35, 0
1, 208680, Note_on_c, 1, 40, 40
1, 208800, Note_off_c, 1, 40, 0
1, 208920, Note_on_c, 1, 40, 40
1, 209040, Note_off_c, 1, 40, 0
1, 209160, Note_on_c, 1, 45, 40
1, 210000, Note_off_c, 1, 45, 0
1, 210000, Note_on_c, 1, 45, 40
1, 210480, Note_off_c, 1, 45, 0
1, 210480, Note_on_c, 1, 45, 40
1, 210720, Note_off_c, 1, 45, 0
1, 210720, Note_on_c, 1, 45, 40
1, 210960, Note_off_c, 1, 45, 0
1, 210960, Note_on_c, 1, 30, 40
1, 211080, Note_off_c, 1, 30, 0
1, 211080, Note_on_c, 1, 43, 40
1, 211200, Note_off_c, 1, 43, 0
1, 211200, Note_on_c, 1, 30, 40
1, 211320, Note_off_c, 1, 30, 0
1, 211320, Note_on_c, 1, 43, 40
1, 211440, Note_off_c, 1, 43, 0
1, 211440, Note_on_c, 1, 30, 40
1, 211560, Note_off_c, 1, 30, 0
1, 211560, Note_on_c, 1, 43, 40
1, 211680, Note_off_c, 1, 43, 0
1, 211680, Note_on_c, 1, 30, 40
1, 211800, Note_off_c, 1, 30, 0
1, 211800, Note_on_c, 1, 43, 40
1, 211920, Note_off_c, 1, 43, 0
1, 211920, Note_on_c, 1, 30, 40
1, 212040, Note_off_c, 1, 30, 0
1, 212040, Note_on_c, 1, 43, 40
1, 212160, Note_off_c, 1, 43, 0
1, 212160, Note_on_c, 1, 30, 40
1, 212280, Note_off_c, 1, 30, 0
1, 212280, Note_on_c, 1, 43, 40
1, 212400, Note_off_c, 1, 43, 0
1, 212400, Note_on_c, 1, 30, 40
1, 212520, Note_off_c, 1, 30, 0
1, 212520, Note_on_c, 1, 43, 40
1, 212640, Note_off_c, 1, 43, 0
1, 212640, Note_on_c, 1, 30, 40
1, 212760, Note_off_c, 1, 30, 0
1, 212880, Note_on_c, 1, 35, 40
1, 213000, Note_off_c, 1, 35, 0
1, 213120, Note_on_c, 1, 35, 40
1, 213240, Note_off_c, 1, 35, 0
1, 214440, Note_on_c, 1, 40, 40
1, 214560, Note_off_c, 1, 40, 0
1, 214680, Note_on_c, 1, 40, 40
1, 214800, Note_off_c, 1, 40, 0
1, 216600, Note_on_c, 1, 35, 40
1, 216720, Note_off_c, 1, 35, 0
1, 216840, Note_on_c, 1, 35, 40
1, 216960, Note_off_c, 1, 35, 0
1, 218280, Note_on_c, 1, 40, 40
1, 218400, Note_off_c, 1, 40, 0
1, 218520, Note_on_c, 1, 40, 40
1, 218640, Note_off_c, 1, 40, 0
1, 218760, Note_on_c, 1, 45, 40
1, 218880, Note_off_c, 1, 45, 0
1, 219000, Note_on_c, 1, 45, 40
1, 219120, Note_off_c, 1, 45, 0
1, 219240, Note_on_c, 1, 45, 40
1, 219360, Note_off_c, 1, 45, 0
1, 219480, Note_on_c, 1, 45, 40
1, 219600, Note_off_c, 1, 45, 0
1, 219720, Note_on_c, 1, 45, 40
1, 219840, Note_off_c, 1, 45, 0
1, 219960, Note_on_c, 1, 37, 40
1, 220080, Note_off_c, 1, 37, 0
1, 220200, Note_on_c, 1, 37, 40
1, 220320, Note_off_c, 1, 37, 0
1, 220440, Note_on_c, 1, 37, 40
1, 220560, Note_off_c, 1, 37, 0
1, 220680, Note_on_c, 1, 37, 40
1, 220800, Note_off_c, 1, 37, 0
1, 222120, Note_on_c, 1, 40, 40
1, 222240, Note_off_c, 1, 40, 0
1, 222360, Note_on_c, 1, 40, 40
1, 222480, Note_off_c, 1, 40, 0
1, 224280, Note_on_c, 1, 35, 40
1, 224400, Note_off_c, 1, 35, 0
1, 224520, Note_on_c, 1, 35, 40
1, 224640, Note_off_c, 1, 35, 0
1, 225960, Note_on_c, 1, 40, 40
1, 226080, Note_off_c, 1, 40, 0
1, 226200, Note_on_c, 1, 40, 40
1, 226320, Note_off_c, 1, 40, 0
1, 226440, Note_on_c, 1, 45, 40
1, 226560, Note_off_c, 1, 45, 0
1, 226680, Note_on_c, 1, 45, 40
1, 226800, Note_off_c, 1, 45, 0
1, 226920, Note_on_c, 1, 45, 40
1, 227040, Note_off_c, 1, 45, 0
1, 227160, Note_on_c, 1, 45, 40
1, 227280, Note_off_c, 1, 45, 0
1, 227400, Note_on_c, 1, 45, 40
1, 227520, Note_off_c, 1, 45, 0
1, 227640, Note_on_c, 1, 37, 40
1, 227760, Note_off_c, 1, 37, 0
1, 227880, Note_on_c, 1, 37, 40
1, 228000, Note_off_c, 1, 37, 0
1, 228120, Note_on_c, 1, 37, 40
1, 228240, Note_off_c, 1, 37, 0
1, 228360, Note_on_c, 1, 37, 40
1, 228480, Note_off_c, 1, 37, 0
1, 228600, Note_on_c, 1, 40, 40
1, 228960, Note_off_c, 1, 40, 0
1, 229800, Note_on_c, 1, 40, 40
1, 230160, Note_off_c, 1, 40, 0
1, 230160, Note_on_c, 1, 40, 40
1, 230640, Note_off_c, 1, 40, 0
1, 230640, Note_on_c, 1, 52, 40
1, 231120, Note_off_c, 1, 52, 0
1, 231120, Note_on_c, 1, 52, 40
1, 231600, Note_off_c, 1, 52, 0
1, 231600, Note_on_c, 1, 52, 40
1, 231840, Note_off_c, 1, 52, 0
1, 231840, Note_on_c, 1, 52, 40
1, 232080, Note_off_c, 1, 52, 0
1, 232080, Note_on_c, 1, 52, 40
1, 232320, Note_off_c, 1, 52, 0
1, 232320, Note_on_c, 1, 52, 40
1, 232560, Note_off_c, 1, 52, 0
1, 232560, Note_on_c, 1, 52, 40
1, 232800, Note_off_c, 1, 52, 0
1, 232800, Note_on_c, 1, 52, 40
1, 233280, Note_off_c, 1, 52, 0
1, 233280, Note_on_c, 1, 52, 40
1, 233520, Note_off_c, 1, 52, 0
1, 233520, Note_on_c, 1, 52, 40
1, 233760, Note_off_c, 1, 52, 0
1, 233760, Note_on_c, 1, 52, 40
1, 234000, Note_off_c, 1, 52, 0
1, 234000, Note_on_c, 1, 52, 40
1, 234480, Note_off_c, 1, 52, 0
1, 234480, Note_on_c, 1, 52, 40
1, 235440, Note_off_c, 1, 52, 0
1, 235440, Note_on_c, 1, 52, 40
1, 237360, Note_off_c, 1, 52, 0
1, 239640, Note_on_c, 1, 35, 40
1, 239760, Note_off_c, 1, 35, 0
1, 239880, Note_on_c, 1, 35, 40
1, 240000, Note_off_c, 1, 35, 0
1, 240120, Note_on_c, 1, 33, 40
1, 240240, Note_off_c, 1, 33, 0
1, 240600, Note_on_c, 1, 35, 40
1, 240720, Note_off_c, 1, 35, 0
1, 240840, Note_on_c, 1, 35, 40
1, 240960, Note_off_c, 1, 35, 0
1, 241080, Note_on_c, 1, 40, 40
1, 241200, Note_off_c, 1, 40, 0
1, 241200, Note_on_c, 1, 52, 40
1, 241320, Note_off_c, 1, 52, 0
1, 241320, Note_on_c, 1, 52, 40
1, 241440, Note_off_c, 1, 52, 0
1, 241440, Note_on_c, 1, 52, 40
1, 241560, Note_off_c, 1, 52, 0
1, 241560, Note_on_c, 1, 52, 40
1, 242520, Note_off_c, 1, 52, 0
1, 242520, Note_on_c, 1, 52, 40
1, 243000, Note_off_c, 1, 52, 0
1, 243000, Note_on_c, 1, 52, 40
1, 243480, Note_off_c, 1, 52, 0
1, 243480, Note_on_c, 1, 52, 40
1, 243960, Note_off_c, 1, 52, 0
1, 243960, Note_on_c, 1, 52, 40
1, 244440, Note_off_c, 1, 52, 0
1, 244440, Note_on_c, 1, 52, 40
1, 244920, Note_off_c, 1, 52, 0
1, 244920, Note_on_c, 1, 52, 40
1, 245400, Note_off_c, 1, 52, 0
1, 245400, Note_on_c, 1, 52, 40
1, 245880, Note_off_c, 1, 52, 0
1, 245880, Note_on_c, 1, 52, 40
1, 246000, Note_off_c, 1, 52, 0
1, 246000, Note_on_c, 1, 52, 40
1, 246120, Note_off_c, 1, 52, 0
1, 246120, Note_on_c, 1, 52, 40
1, 246240, Note_off_c, 1, 52, 0
1, 246240, Note_on_c, 1, 52, 40
1, 246360, Note_off_c, 1, 52, 0
1, 246360, Note_on_c, 1, 52, 40
1, 246480, Note_off_c, 1, 52, 0
1, 246480, Note_on_c, 1, 52, 40
1, 246600, Note_off_c, 1, 52, 0
1, 246600, Note_on_c, 1, 52, 40
1, 246720, Note_off_c, 1, 52, 0
1, 246720, Note_on_c, 1, 52, 40
1, 246840, Note_off_c, 1, 52, 0
1, 246840, Note_on_c, 1, 52, 40
1, 246960, Note_off_c, 1, 52, 0
1, 246960, Note_on_c, 1, 52, 40
1, 247080, Note_off_c, 1, 52, 0
1, 247080, Note_on_c, 1, 52, 40
1, 247200, Note_off_c, 1, 52, 0
1, 247200, Note_on_c, 1, 52, 40
1, 247320, Note_off_c, 1, 52, 0
1, 247320, Note_on_c, 1, 52, 40
1, 247560, Note_off_c, 1, 52, 0
1, 247560, Note_on_c, 1, 52, 40
1, 247800, Note_off_c, 1, 52, 0
1, 247800, Note_on_c, 1, 52, 40
1, 248040, Note_off_c, 1, 52, 0
1, 248040, Note_on_c, 1, 36, 40
1, 248400, Note_off_c, 1, 36, 0
1, 248400, Note_on_c, 1, 36, 40
1, 248880, Note_off_c, 1, 36, 0
1, 248880, Note_on_c, 1, 36, 40
1, 249840, Note_off_c, 1, 36, 0
1, 251760, Note_on_c, 1, 30, 40
1, 252000, Note_off_c, 1, 30, 0
1, 252000, Note_on_c, 1, 30, 40
1, 252120, Note_off_c, 1, 30, 0
1, 261240, Note_on_c, 1, 33, 40
1, 263160, Note_off_c, 1, 33, 0
1, 263160, Note_on_c, 1, 42, 40
1, 265080, Note_off_c, 1, 42, 0
1, 265080, Note_on_c, 1, 33, 40
1, 267000, Note_off_c, 1, 33, 0
1, 267000, Note_on_c, 1, 42, 40
1, 268920, Note_off_c, 1, 42, 0
1, 268920, Note_on_c, 1, 33, 40
1, 270840, Note_off_c, 1, 33, 0
1, 270840, Note_on_c, 1, 42, 40
1, 272760, Note_off_c, 1, 42, 0
1, 272760, Note_on_c, 1, 33, 40
1, 274680, Note_off_c, 1, 33, 0
1, 274680, Note_on_c, 1, 33, 40
1, 276600, Note_off_c, 1, 33, 0
1, 280440, Note_on_c, 1, 33, 40
1, 282360, Note_off_c, 1, 33, 0
1, 282360, Note_on_c, 1, 42, 40
1, 284280, Note_off_c, 1, 42, 0
1, 284280, Note_on_c, 1, 33, 40
1, 286200, Note_off_c, 1, 33, 0
1, 286200, Note_on_c, 1, 45, 40
1, 286440, Note_off_c, 1, 45, 0
1, 286440, Note_on_c, 1, 47, 40
1, 286680, Note_off_c, 1, 47, 0
1, 286680, Note_on_c, 1, 47, 40
1, 286800, Note_off_c, 1, 47, 0
1, 286800, Note_on_c, 1, 47, 40
1, 286920, Note_off_c, 1, 47, 0
1, 286920, Note_on_c, 1, 47, 40
1, 287040, Note_off_c, 1, 47, 0
1, 287040, Note_on_c, 1, 47, 40
1, 287160, Note_off_c, 1, 47, 0
1, 287160, Note_on_c, 1, 33, 40
1, 287400, Note_off_c, 1, 33, 0
1, 287400, Note_on_c, 1, 33, 40
1, 287640, Note_off_c, 1, 33, 0
1, 287640, Note_on_c, 1, 33, 40
1, 287880, Note_off_c, 1, 33, 0
1, 287880, Note_on_c, 1, 37, 40
1, 288120, Note_off_c, 1, 37, 0
1, 288120, Note_on_c, 1, 37, 40
1, 288360, Note_off_c, 1, 37, 0
1, 288360, Note_on_c, 1, 37, 40
1, 288600, Note_off_c, 1, 37, 0
1, 288600, Note_on_c, 1, 37, 40
1, 288840, Note_off_c, 1, 37, 0
1, 288840, Note_on_c, 1, 37, 40
1, 289080, Note_off_c, 1, 37, 0
1, 289080, Note_on_c, 1, 37, 40
1, 289320, Note_off_c, 1, 37, 0
1, 289320, Note_on_c, 1, 37, 40
1, 289560, Note_off_c, 1, 37, 0
1, 289560, Note_on_c, 1, 37, 40
1, 289800, Note_off_c, 1, 37, 0
1, 289800, Note_on_c, 1, 37, 40
1, 290040, Note_off_c, 1, 37, 0
1, 290040, Note_on_c, 1, 37, 40
1, 290520, Note_off_c, 1, 37, 0
1, 290520, Note_on_c, 1, 37, 40
1, 291480, Note_off_c, 1, 37, 0
1, 307320, Note_on_c, 1, 33, 40
1, 309240, Note_off_c, 1, 33, 0
1, 309240, Note_on_c, 1, 42, 40
1, 311160, Note_off_c, 1, 42, 0
1, 311160, Note_on_c, 1, 33, 40
1, 313080, Note_off_c, 1, 33, 0
1, 313080, Note_on_c, 1, 42, 40
1, 315000, Note_off_c, 1, 42, 0
1, 315000, Note_on_c, 1, 33, 40
1, 316920, Note_off_c, 1, 33, 0
1, 316920, Note_on_c, 1, 42, 40
1, 318840, Note_off_c, 1, 42, 0
1, 318840, Note_on_c, 1, 33, 40
1, 320760, Note_off_c, 1, 33, 0
1, 320760, Note_on_c, 1, 33, 40
1, 322680, Note_off_c, 1, 33, 0
1, 326520, Note_on_c, 1, 33, 40
1, 328440, Note_off_c, 1, 33, 0
1, 328440, Note_on_c, 1, 42, 40
1, 330360, Note_off_c, 1, 42, 0
1, 330360, Note_on_c, 1, 33, 40
1, 332280, Note_off_c, 1, 33, 0
1, 332280, Note_on_c, 1, 45, 40
1, 332520, Note_off_c, 1, 45, 0
1, 332520, Note_on_c, 1, 47, 40
1, 332760, Note_off_c, 1, 47, 0
1, 332760, Note_on_c, 1, 47, 40
1, 332880, Note_off_c, 1, 47, 0
1, 332880, Note_on_c, 1, 47, 40
1, 333000, Note_off_c, 1, 47, 0
1, 333000, Note_on_c, 1, 47, 40
1, 333120, Note_off_c, 1, 47, 0
1, 333120, Note_on_c, 1, 47, 40
1, 333240, Note_off_c, 1, 47, 0
1, 333240, Note_on_c, 1, 33, 40
1, 333480, Note_off_c, 1, 33, 0
1, 333480, Note_on_c, 1, 33, 40
1, 333720, Note_off_c, 1, 33, 0
1, 333720, Note_on_c, 1, 33, 40
1, 333960, Note_off_c, 1, 33, 0
1, 333960, Note_on_c, 1, 37, 40
1, 334200, Note_off_c, 1, 37, 0
1, 334200, Note_on_c, 1, 37, 40
1, 334440, Note_off_c, 1, 37, 0
1, 334440, Note_on_c, 1, 37, 40
1, 334680, Note_off_c, 1, 37, 0
1, 334680, Note_on_c, 1, 37, 40
1, 334920, Note_off_c, 1, 37, 0
1, 334920, Note_on_c, 1, 37, 40
1, 335160, Note_off_c, 1, 37, 0
1, 335160, Note_on_c, 1, 37, 40
1, 335400, Note_off_c, 1, 37, 0
1, 335400, Note_on_c, 1, 37, 40
1, 335640, Note_off_c, 1, 37, 0
1, 335640, Note_on_c, 1, 30, 40
1, 335880, Note_off_c, 1, 30, 0
1, 335880, Note_on_c, 1, 43, 40
1, 336720, Note_off_c, 1, 43, 0
1, 336720, Note_on_c, 1, 30, 40
1, 337200, Note_off_c, 1, 30, 0
1, 337200, Note_on_c, 1, 37, 40
1, 337680, Note_off_c, 1, 37, 0
1, 337680, Note_on_c, 1, 37, 40
1, 338280, Note_off_c, 1, 37, 0
1, 338280, Note_on_c, 1, 37, 40
1, 338760, Note_off_c, 1, 37, 0
1, 338760, Note_on_c, 1, 37, 40
1, 339360, Note_off_c, 1, 37, 0
1, 339360, Note_on_c, 1, 37, 40
1, 339840, Note_off_c, 1, 37, 0
1, 339840, Note_on_c, 1, 37, 40
1, 340440, Note_off_c, 1, 37, 0
1, 340440, Note_on_c, 1, 37, 40
1, 340920, Note_off_c, 1, 37, 0
1, 340920, Note_on_c, 1, 37, 40
1, 341520, Note_off_c, 1, 37, 0
1, 341520, Note_on_c, 1, 37, 40
1, 342000, Note_off_c, 1, 37, 0
1, 342000, Note_on_c, 1, 37, 40
1, 342600, Note_off_c, 1, 37, 0
1, 342600, Note_on_c, 1, 37, 40
1, 343080, Note_off_c, 1, 37, 0
1, 343080, Note_on_c, 1, 37, 40
1, 343680, Note_off_c, 1, 37, 0
1, 343680, Note_on_c, 1, 37, 40
1, 344160, Note_off_c, 1, 37, 0
1, 344160, Note_on_c, 1, 37, 40
1, 344760, Note_off_c, 1, 37, 0
1, 344760, Note_on_c, 1, 37, 40
1, 345240, Note_off_c, 1, 37, 0
1, 345240, Note_on_c, 1, 37, 40
1, 345840, Note_off_c, 1, 37, 0
1, 345840, Note_on_c, 1, 37, 40
1, 346320, Note_off_c, 1, 37, 0
1, 346320, Note_on_c, 1, 37, 40
1, 346920, Note_off_c, 1, 37, 0
1, 346920, Note_on_c, 1, 37, 40
1, 347400, Note_off_c, 1, 37, 0
1, 347400, Note_on_c, 1, 37, 40
1, 348000, Note_off_c, 1, 37, 0
1, 348000, Note_on_c, 1, 37, 40
1, 348480, Note_off_c, 1, 37, 0
1, 348480, Note_on_c, 1, 37, 40
1, 349080, Note_off_c, 1, 37, 0
1, 349080, Note_on_c, 1, 37, 40
1, 349560, Note_off_c, 1, 37, 0
1, 349560, Note_on_c, 1, 37, 40
1, 350160, Note_off_c, 1, 37, 0
1, 350160, Note_on_c, 1, 37, 40
1, 350640, Note_off_c, 1, 37, 0
1, 350640, Note_on_c, 1, 37, 40
1, 351240, Note_off_c, 1, 37, 0
1, 351240, Note_on_c, 1, 37, 40
1, 351720, Note_off_c, 1, 37, 0
1, 351720, Note_on_c, 1, 37, 40
1, 352320, Note_off_c, 1, 37, 0
1, 352320, Note_on_c, 1, 37, 40
1, 352800, Note_off_c, 1, 37, 0
1, 352800, Note_on_c, 1, 37, 40
1, 353400, Note_off_c, 1, 37, 0
1, 353400, Note_on_c, 1, 37, 40
1, 353880, Note_off_c, 1, 37, 0
1, 353880, Note_on_c, 1, 37, 40
1, 354480, Note_off_c, 1, 37, 0
1, 354480, Note_on_c, 1, 37, 40
1, 354960, Note_off_c, 1, 37, 0
1, 354960, Note_on_c, 1, 37, 40
1, 355560, Note_off_c, 1, 37, 0
1, 355560, Note_on_c, 1, 37, 40
1, 356040, Note_off_c, 1, 37, 0
1, 356040, Note_on_c, 1, 37, 40
1, 356640, Note_off_c, 1, 37, 0
1, 356640, Note_on_c, 1, 37, 40
1, 357120, Note_off_c, 1, 37, 0
1, 357120, Note_on_c, 1, 37, 40
1, 357720, Note_off_c, 1, 37, 0
1, 357720, Note_on_c, 1, 37, 40
1, 358200, Note_off_c, 1, 37, 0
1, 358200, Note_on_c, 1, 37, 40
1, 358800, Note_off_c, 1, 37, 0
1, 358800, Note_on_c, 1, 37, 40
1, 359280, Note_off_c, 1, 37, 0
1, 359280, Note_on_c, 1, 37, 40
1, 359880, Note_off_c, 1, 37, 0
1, 359880, Note_on_c, 1, 37, 40
1, 360360, Note_off_c, 1, 37, 0
1, 360360, Note_on_c, 1, 37, 40
1, 360960, Note_off_c, 1, 37, 0
1, 360960, Note_on_c, 1, 37, 40
1, 361440, Note_off_c, 1, 37, 0
1, 361440, Note_on_c, 1, 37, 40
1, 362040, Note_off_c, 1, 37, 0
1, 362040, Note_on_c, 1, 37, 40
1, 362520, Note_off_c, 1, 37, 0
1, 362520, Note_on_c, 1, 37, 40
1, 363120, Note_off_c, 1, 37, 0
1, 363120, Note_on_c, 1, 37, 40
1, 363600, Note_off_c, 1, 37, 0
1, 363600, Note_on_c, 1, 37, 40
1, 364200, Note_off_c, 1, 37, 0
1, 364200, Note_on_c, 1, 37, 40
1, 364680, Note_off_c, 1, 37, 0
1, 364680, Note_on_c, 1, 37, 40
1, 365280, Note_off_c, 1, 37, 0
1, 365280, Note_on_c, 1, 37, 40
1, 365760, Note_off_c, 1, 37, 0
1, 365760, Note_on_c, 1, 37, 40
1, 366360, Note_off_c, 1, 37, 0
1, 366360, Note_on_c, 1, 37, 40
1, 366840, Note_off_c, 1, 37, 0
1, 366840, Note_on_c, 1, 37, 40
1, 367080, Note_off_c, 1, 37, 0
1, 367080, Note_on_c, 1, 30, 40
1, 367320, Note_off_c, 1, 30, 0
1, 367320, Note_on_c, 1, 43, 40
1, 368160, Note_off_c, 1, 43, 0
1, 372000, Note_on_c, 1, 33, 40
1, 373560, Note_off_c, 1, 33, 0
1, 373560, Note_on_c, 1, 45, 40
1, 373800, Note_off_c, 1, 45, 0
1, 373800, Note_on_c, 1, 35, 40
1, 374040, Note_off_c, 1, 35, 0
1, 374040, Note_on_c, 1, 35, 40
1, 374280, Note_off_c, 1, 35, 0
1, 374280, Note_on_c, 1, 47, 40
1, 374520, Note_off_c, 1, 47, 0
1, 375000, Note_on_c, 1, 43, 40
1, 375240, Note_off_c, 1, 43, 0
1, 375240, Note_on_c, 1, 43, 40
1, 375480, Note_off_c, 1, 43, 0
1, 375480, Note_on_c, 1, 43, 40
1, 375720, Note_off_c, 1, 43, 0
1, 375720, Note_on_c, 1, 43, 40
1, 375960, Note_off_c, 1, 43, 0
1, 375960, Note_on_c, 1, 43, 40
1, 376200, Note_off_c, 1, 43, 0
1, 376200, Note_on_c, 1, 43, 40
1, 376320, Note_off_c, 1, 43, 0
1, 376320, Note_on_c, 1, 43, 40
1, 376440, Note_off_c, 1, 43, 0
1, 376440, Note_on_c, 1, 42, 40
1, 376920, Note_off_c, 1, 42, 0
1, 379320, Note_on_c, 1, 33, 40
1, 381240, Note_off_c, 1, 33, 0
1, 381240, Note_on_c, 1, 33, 40
1, 383160, Note_off_c, 1, 33, 0
1, 383160, Note_on_c, 1, 45, 40
1, 383400, Note_off_c, 1, 45, 0
1, 383400, Note_on_c, 1, 45, 40
1, 383880, Note_off_c, 1, 45, 0
1, 383880, Note_on_c, 1, 45, 40
1, 384360, Note_off_c, 1, 45, 0
1, 384360, Note_on_c, 1, 45, 40
1, 384840, Note_off_c, 1, 45, 0
1, 384840, Note_on_c, 1, 45, 40
1, 385320, Note_off_c, 1, 45, 0
1, 385320, Note_on_c, 1, 45, 40
1, 385560, Note_off_c, 1, 45, 0
1, 385560, Note_on_c, 1, 38, 40
1, 385800, Note_off_c, 1, 38, 0
1, 385800, Note_on_c, 1, 38, 40
1, 386280, Note_off_c, 1, 38, 0
1, 386280, Note_on_c, 1, 38, 40
1, 386520, Note_off_c, 1, 38, 0
1, 386520, Note_on_c, 1, 38, 40
1, 386760, Note_off_c, 1, 38, 0
1, 386760, Note_on_c, 1, 39, 40
1, 387240, Note_off_c, 1, 39, 0
1, 389760, Note_on_c, 1, 35, 40
1, 389880, Note_off_c, 1, 35, 0
1, 389880, Note_on_c, 1, 40, 40
1, 390000, Note_off_c, 1, 40, 0
1, 390000, Note_on_c, 1, 35, 40
1, 390120, Note_off_c, 1, 35, 0
1, 390240, Note_on_c, 1, 35, 40
1, 390360, Note_off_c, 1, 35, 0
1, 390360, Note_on_c, 1, 35, 40
1, 390480, Note_off_c, 1, 35, 0
1, 390480, Note_on_c, 1, 35, 40
1, 390960, Note_off_c, 1, 35, 0
1, 390960, Note_on_c, 1, 35, 40
1, 392880, Note_off_c, 1, 35, 0
1, 392880, Note_on_c, 1, 32, 40
1, 393120, Note_off_c, 1, 32, 0
1, 393120, Note_on_c, 1, 44, 40
1, 393360, Note_off_c, 1, 44, 0
1, 393360, Note_on_c, 1, 44, 40
1, 393600, Note_off_c, 1, 44, 0
1, 393600, Note_on_c, 1, 44, 40
1, 393840, Note_off_c, 1, 44, 0
1, 393840, Note_on_c, 1, 44, 40
1, 394080, Note_off_c, 1, 44, 0
1, 394080, Note_on_c, 1, 44, 40
1, 394320, Note_off_c, 1, 44, 0
1, 394320, Note_on_c, 1, 44, 40
1, 394560, Note_off_c, 1, 44, 0
1, 394560, Note_on_c, 1, 44, 40
1, 394800, Note_off_c, 1, 44, 0
1, 394800, Note_on_c, 1, 44, 40
1, 395040, Note_off_c, 1, 44, 0
1, 395040, Note_on_c, 1, 44, 40
1, 395280, Note_off_c, 1, 44, 0
1, 395280, Note_on_c, 1, 44, 40
1, 395520, Note_off_c, 1, 44, 0
1, 395520, Note_on_c, 1, 44, 40
1, 395760, Note_off_c, 1, 44, 0
1, 395760, Note_on_c, 1, 44, 40
1, 396000, Note_off_c, 1, 44, 0
1, 396000, Note_on_c, 1, 44, 40
1, 396240, Note_off_c, 1, 44, 0
1, 396240, Note_on_c, 1, 44, 40
1, 396720, Note_off_c, 1, 44, 0
1, 396720, Note_on_c, 1, 35, 40
1, 396840, Note_off_c, 1, 35, 0
1, 397080, Note_on_c, 1, 35, 40
1, 397320, Note_off_c, 1, 35, 0
1, 397320, Note_on_c, 1, 35, 40
1, 397560, Note_off_c, 1, 35, 0
1, 397560, Note_on_c, 1, 35, 40
1, 397800, Note_off_c, 1, 35, 0
1, 397800, Note_on_c, 1, 35, 40
1, 398040, Note_off_c, 1, 35, 0
1, 398040, Note_on_c, 1, 47, 40
1, 398280, Note_off_c, 1, 47, 0
1, 398280, Note_on_c, 1, 47, 40
1, 398520, Note_off_c, 1, 47, 0
1, 398520, Note_on_c, 1, 47, 40
1, 398760, Note_off_c, 1, 47, 0
1, 398760, Note_on_c, 1, 47, 40
1, 399000, Note_off_c, 1, 47, 0
1, 399000, Note_on_c, 1, 47, 40
1, 399240, Note_off_c, 1, 47, 0
1, 399240, Note_on_c, 1, 47, 40
1, 399480, Note_off_c, 1, 47, 0
1, 399480, Note_on_c, 1, 47, 40
1, 399720, Note_off_c, 1, 47, 0
1, 399720, Note_on_c, 1, 47, 40
1, 400200, Note_off_c, 1, 47, 0
1, 400200, Note_on_c, 1, 47, 40
1, 400680, Note_off_c, 1, 47, 0
1, 400680, Note_on_c, 1, 47, 40
1, 400920, Note_off_c, 1, 47, 0
1, 400920, Note_on_c, 1, 38, 40
1, 401160, Note_off_c, 1, 38, 0
1, 401160, Note_on_c, 1, 38, 40
1, 401640, Note_off_c, 1, 38, 0
1, 401640, Note_on_c, 1, 38, 40
1, 401880, Note_off_c, 1, 38, 0
1, 401880, Note_on_c, 1, 38, 40
1, 402120, Note_off_c, 1, 38, 0
1, 402120, Note_on_c, 1, 39, 40
1, 402600, Note_off_c, 1, 39, 0
1, 404760, Note_on_c, 1, 45, 40
1, 405000, Note_off_c, 1, 45, 0
1, 405000, Note_on_c, 1, 45, 40
1, 405240, Note_off_c, 1, 45, 0
1, 405240, Note_on_c, 1, 45, 40
1, 405480, Note_off_c, 1, 45, 0
1, 405480, Note_on_c, 1, 45, 40
1, 405720, Note_off_c, 1, 45, 0
1, 405720, Note_on_c, 1, 45, 40
1, 405960, Note_off_c, 1, 45, 0
1, 405960, Note_on_c, 1, 45, 40
1, 406200, Note_off_c, 1, 45, 0
1, 406200, Note_on_c, 1, 45, 40
1, 406440, Note_off_c, 1, 45, 0
1, 406440, Note_on_c, 1, 45, 40
1, 406680, Note_off_c, 1, 45, 0
1, 406680, Note_on_c, 1, 45, 40
1, 406920, Note_off_c, 1, 45, 0
1, 406920, Note_on_c, 1, 45, 40
1, 407160, Note_off_c, 1, 45, 0
1, 407160, Note_on_c, 1, 45, 40
1, 407400, Note_off_c, 1, 45, 0
1, 407400, Note_on_c, 1, 45, 40
1, 407640, Note_off_c, 1, 45, 0
1, 407640, Note_on_c, 1, 45, 40
1, 407880, Note_off_c, 1, 45, 0
1, 407880, Note_on_c, 1, 45, 40
1, 408120, Note_off_c, 1, 45, 0
1, 408360, Note_on_c, 1, 50, 40
1, 408600, Note_off_c, 1, 50, 0
1, 408600, Note_on_c, 1, 50, 40
1, 408840, Note_off_c, 1, 50, 0
1, 408840, Note_on_c, 1, 50, 40
1, 409080, Note_off_c, 1, 50, 0
1, 409080, Note_on_c, 1, 50, 40
1, 409320, Note_off_c, 1, 50, 0
1, 409320, Note_on_c, 1, 50, 40
1, 409560, Note_off_c, 1, 50, 0
1, 409560, Note_on_c, 1, 50, 40
1, 410040, Note_off_c, 1, 50, 0
1, 410040, Note_on_c, 1, 50, 40
1, 410400, Note_off_c, 1, 50, 0
1, 410400, Note_on_c, 1, 50, 40
1, 410880, Note_off_c, 1, 50, 0
1, 410880, Note_on_c, 1, 50, 40
1, 412320, Note_off_c, 1, 50, 0
1, 418560, Note_on_c, 1, 33, 40
1, 420480, Note_off_c, 1, 33, 0
1, 420480, Note_on_c, 1, 33, 40
1, 422400, Note_off_c, 1, 33, 0
1, 422400, Note_on_c, 1, 28, 40
1, 424320, Note_off_c, 1, 28, 0
1, 424320, Note_on_c, 1, 45, 40
1, 424560, Note_off_c, 1, 45, 0
1, 424560, Note_on_c, 1, 40, 40
1, 424800, Note_off_c, 1, 40, 0
1, 424800, Note_on_c, 1, 40, 40
1, 425280, Note_off_c, 1, 40, 0
1, 425280, Note_on_c, 1, 40, 40
1, 426000, Note_off_c, 1, 40, 0
1, 426000, Note_on_c, 1, 37, 40
1, 427920, Note_off_c, 1, 37, 0
1, 427920, Note_on_c, 1, 33, 40
1, 429840, Note_off_c, 1, 33, 0
1, 429840, Note_on_c, 1, 28, 40
1, 431760, Note_off_c, 1, 28, 0
1, 431760, Note_on_c, 1, 38, 40
1, 432000, Note_off_c, 1, 38, 0
1, 432000, Note_on_c, 1, 38, 40
1, 432480, Note_off_c, 1, 38, 0
1, 432480, Note_on_c, 1, 38, 40
1, 432960, Note_off_c, 1, 38, 0
1, 432960, Note_on_c, 1, 40, 40
1, 433920, Note_off_c, 1, 40, 0
1, 433920, Note_on_c, 1, 40, 40
1, 435840, Note_off_c, 1, 40, 0
1, 435840, Note_on_c, 1, 52, 40
1, 436560, Note_off_c, 1, 52, 0
1, 453840, Note_on_c, 1, 33, 40
1, 454320, Note_off_c, 1, 33, 0
1, 454320, Note_on_c, 1, 45, 40
1, 455040, Note_off_c, 1, 45, 0
1, 455040, Note_on_c, 1, 45, 40
1, 456960, Note_off_c, 1, 45, 0
1, 456960, Note_on_c, 1, 33, 40
1, 458880, Note_off_c, 1, 33, 0
1, 458880, Note_on_c, 1, 42, 40
1, 460800, Note_off_c, 1, 42, 0
1, 460800, Note_on_c, 1, 33, 40
1, 461280, Note_off_c, 1, 33, 0
1, 465840, Note_on_c, 1, 33, 40
1, 467760, Note_off_c, 1, 33, 0
1, 467760, Note_on_c, 1, 45, 40
1, 468000, Note_off_c, 1, 45, 0
1, 468000, Note_on_c, 1, 45, 40
1, 468240, Note_off_c, 1, 45, 0
1, 468240, Note_on_c, 1, 57, 40
1, 468480, Note_off_c, 1, 57, 0
1, 468480, Note_on_c, 1, 37, 40
1, 468720, Note_off_c, 1, 37, 0
1, 468720, Note_on_c, 1, 30, 40
1, 468960, Note_off_c, 1, 30, 0
1, 468960, Note_on_c, 1, 45, 40
1, 469800, Note_off_c, 1, 45, 0
1, 469800, Note_on_c, 1, 45, 40
1, 470040, Note_off_c, 1, 45, 0
1, 470040, Note_on_c, 1, 45, 40
1, 470280, Note_off_c, 1, 45, 0
1, 470280, Note_on_c, 1, 45, 40
1, 470400, Note_off_c, 1, 45, 0
1, 470400, Note_on_c, 1, 45, 40
1, 470640, Note_off_c, 1, 45, 0
1, 470640, Note_on_c, 1, 40, 40
1, 470880, Note_off_c, 1, 40, 0
1, 470880, Note_on_c, 1, 40, 40
1, 471360, Note_off_c, 1, 40, 0
1, 471360, Note_on_c, 1, 40, 40
1, 472080, Note_off_c, 1, 40, 0
1, 472080, Note_on_c, 1, 37, 40
1, 474000, Note_off_c, 1, 37, 0
1, 474000, Note_on_c, 1, 33, 40
1, 475920, Note_off_c, 1, 33, 0
1, 475920, Note_on_c, 1, 28, 40
1, 477840, Note_off_c, 1, 28, 0
1, 477840, Note_on_c, 1, 38, 40
1, 478080, Note_off_c, 1, 38, 0
1, 478080, Note_on_c, 1, 38, 40
1, 478560, Note_off_c, 1, 38, 0
1, 478560, Note_on_c, 1, 38, 40
1, 479040, Note_off_c, 1, 38, 0
1, 479040, Note_on_c, 1, 40, 40
1, 480000, Note_off_c, 1, 40, 0
1, 480000, Note_on_c, 1, 40, 40
1, 481920, Note_off_c, 1, 40, 0
1, 481920, Note_on_c, 1, 52, 40
1, 482640, Note_off_c, 1, 52, 0
1, 484560, Note_on_c, 1, 41, 40
1, 485040, Note_off_c, 1, 41, 0
1, 485040, Note_on_c, 1, 42, 40
1, 485280, Note_off_c, 1, 42, 0
1, 485280, Note_on_c, 1, 35, 40
1, 485520, Note_off_c, 1, 35, 0
1, 485520, Note_on_c, 1, 42, 40
1, 485760, Note_off_c, 1, 42, 0
1, 485760, Note_on_c, 1, 35, 40
1, 486000, Note_off_c, 1, 35, 0
1, 486000, Note_on_c, 1, 35, 40
1, 486240, Note_off_c, 1, 35, 0
1, 486240, Note_on_c, 1, 35, 40
1, 486480, Note_off_c, 1, 35, 0
1, 486480, Note_on_c, 1, 35, 40
1, 486720, Note_off_c, 1, 35, 0
1, 486720, Note_on_c, 1, 35, 40
1, 486960, Note_off_c, 1, 35, 0
1, 486960, Note_on_c, 1, 47, 40
1, 487440, Note_off_c, 1, 47, 0
1, 491040, Note_on_c, 1, 45, 40
1, 491280, Note_off_c, 1, 45, 0
1, 491280, Note_on_c, 1, 45, 40
1, 491520, Note_off_c, 1, 45, 0
1, 491520, Note_on_c, 1, 45, 40
1, 491760, Note_off_c, 1, 45, 0
1, 491760, Note_on_c, 1, 45, 40
1, 492000, Note_off_c, 1, 45, 0
1, 492000, Note_on_c, 1, 45, 40
1, 492240, Note_off_c, 1, 45, 0
1, 492240, Note_on_c, 1, 57, 40
1, 492480, Note_off_c, 1, 57, 0
1, 492480, Note_on_c, 1, 57, 40
1, 492720, Note_off_c, 1, 57, 0
1, 492720, Note_on_c, 1, 57, 40
1, 493440, Note_off_c, 1, 57, 0
1, 494880, Note_on_c, 1, 30, 40
1, 495360, Note_off_c, 1, 30, 0
1, 495360, Note_on_c, 1, 37, 40
1, 495840, Note_off_c, 1, 37, 0
1, 495840, Note_on_c, 1, 37, 40
1, 496440, Note_off_c, 1, 37, 0
1, 496440, Note_on_c, 1, 37, 40
1, 496920, Note_off_c, 1, 37, 0
1, 496920, Note_on_c, 1, 37, 40
1, 497160, Note_off_c, 1, 37, 0
1, 497160, Note_on_c, 1, 30, 40
1, 497400, Note_off_c, 1, 30, 0
1, 497400, Note_on_c, 1, 43, 40
1, 498240, Note_off_c, 1, 43, 0
1, 498240, Note_on_c, 1, 43, 40
1, 499200, Note_off_c, 1, 43, 0
1, 499200, Note_on_c, 1, 45, 40
1, 499440, Note_off_c, 1, 45, 0
1, 499440, Note_on_c, 1, 43, 40
1, 500160, Note_off_c, 1, 43, 0
1, 500160, Note_on_c, 1, 43, 40
1, 500880, Note_off_c, 1, 43, 0
1, 500880, Note_on_c, 1, 45, 40
1, 502800, Note_off_c, 1, 45, 0
1, 502800, Note_on_c, 1, 42, 40
1, 503280, Note_off_c, 1, 42, 0
1, 503280, Note_on_c, 1, 42, 40
1, 503760, Note_off_c, 1, 42, 0
1, 503760, Note_on_c, 1, 42, 40
1, 504120, Note_off_c, 1, 42, 0
1, 504120, Note_on_c, 1, 42, 40
1, 504480, Note_off_c, 1, 42, 0
1, 504480, Note_on_c, 1, 40, 40
1, 504720, Note_off_c, 1, 40, 0
1, 504720, Note_on_c, 1, 40, 40
1, 504960, Note_off_c, 1, 40, 0
1, 504960, Note_on_c, 1, 40, 40
1, 505200, Note_off_c, 1, 40, 0
1, 505200, Note_on_c, 1, 40, 40
1, 505440, Note_off_c, 1, 40, 0
1, 505440, Note_on_c, 1, 40, 40
1, 505680, Note_off_c, 1, 40, 0
1, 505680, Note_on_c, 1, 40, 40
1, 505920, Note_off_c, 1, 40, 0
1, 505920, Note_on_c, 1, 40, 40
1, 506160, Note_off_c, 1, 40, 0
1, 508800, Note_on_c, 1, 41, 40
1, 509520, Note_off_c, 1, 41, 0
1, 511440, Note_on_c, 1, 42, 40
1, 512160, Note_off_c, 1, 42, 0
1, 515760, Note_on_c, 1, 41, 40
1, 516480, Note_off_c, 1, 41, 0
1, 518400, Note_on_c, 1, 33, 40
1, 519960, Note_off_c, 1, 33, 0
1, 519960, Note_on_c, 1, 38, 40
1, 520680, Note_off_c, 1, 38, 0
1, 521160, Note_on_c, 1, 44, 40
1, 522120, Note_off_c, 1, 44, 0
1, 524040, Note_on_c, 1, 41, 40
1, 524760, Note_off_c, 1, 41, 0
1, 526680, Note_on_c, 1, 42, 40
1, 527400, Note_off_c, 1, 42, 0
1, 531000, Note_on_c, 1, 41, 40
1, 531720, Note_off_c, 1, 41, 0
1, 533640, Note_on_c, 1, 33, 40
1, 535200, Note_off_c, 1, 33, 0
1, 535200, Note_on_c, 1, 38, 40
1, 535920, Note_off_c, 1, 38, 0
1, 541560, Note_on_c, 1, 42, 40
1, 542040, Note_off_c, 1, 42, 0
1, 542040, Note_on_c, 1, 42, 40
1, 542400, Note_off_c, 1, 42, 0
1, 542400, Note_on_c, 1, 42, 40
1, 542880, Note_off_c, 1, 42, 0
1, 542880, Note_on_c, 1, 42, 40
1, 543360, Note_off_c, 1, 42, 0
1, 543360, Note_on_c, 1, 42, 40
1, 543840, Note_off_c, 1, 42, 0
1, 543840, Note_on_c, 1, 42, 40
1, 544320, Note_off_c, 1, 42, 0
1, 544320, Note_on_c, 1, 44, 40
1, 544560, Note_off_c, 1, 44, 0
1, 544560, Note_on_c, 1, 33, 40
1, 545280, Note_off_c, 1, 33, 0
1, 545280, Note_on_c, 1, 45, 40
1, 545520, Note_off_c, 1, 45, 0
1, 545520, Note_on_c, 1, 43, 40
1, 546240, Note_off_c, 1, 43, 0
1, 546240, Note_on_c, 1, 45, 40
1, 548160, Note_off_c, 1, 45, 0
1, 548160, Note_on_c, 1, 41, 40
1, 548880, Note_off_c, 1, 41, 0
1, 548880, Note_on_c, 1, 35, 40
1, 550800, Note_off_c, 1, 35, 0
1, 553080, Note_on_c, 1, 42, 40
1, 553560, Note_off_c, 1, 42, 0
1, 553560, Note_on_c, 1, 42, 40
1, 553920, Note_off_c, 1, 42, 0
1, 553920, Note_on_c, 1, 42, 40
1, 554400, Note_off_c, 1, 42, 0
1, 554400, Note_on_c, 1, 42, 40
1, 554880, Note_off_c, 1, 42, 0
1, 554880, Note_on_c, 1, 44, 40
1, 555120, Note_off_c, 1, 44, 0
1, 555120, Note_on_c, 1, 44, 40
1, 555240, Note_off_c, 1, 44, 0
1, 555240, Note_on_c, 1, 33, 40
1, 555360, Note_off_c, 1, 33, 0
1, 555480, Note_on_c, 1, 36, 40
1, 555720, Note_off_c, 1, 36, 0
1, 555720, Note_on_c, 1, 39, 40
1, 555960, Note_off_c, 1, 39, 0
1, 555960, Note_on_c, 1, 39, 40
1, 556440, Note_off_c, 1, 39, 0
1, 556440, Note_on_c, 1, 35, 40
1, 556680, Note_off_c, 1, 35, 0
1, 556680, Note_on_c, 1, 35, 40
1, 556920, Note_off_c, 1, 35, 0
1, 556920, Note_on_c, 1, 47, 40
1, 557640, Note_off_c, 1, 47, 0
1, 557880, Note_on_c, 1, 40, 40
1, 558120, Note_off_c, 1, 40, 0
1, 558120, Note_on_c, 1, 40, 40
1, 558480, Note_off_c, 1, 40, 0
1, 558480, Note_on_c, 1, 40, 40
1, 558960, Note_off_c, 1, 40, 0
1, 558960, Note_on_c, 1, 42, 40
1, 559440, Note_off_c, 1, 42, 0
1, 559440, Note_on_c, 1, 42, 40
1, 559920, Note_off_c, 1, 42, 0
1, 559920, Note_on_c, 1, 40, 40
1, 560640, Note_off_c, 1, 40, 0
1, 560640, Note_on_c, 1, 52, 40
1, 562560, Note_off_c, 1, 52, 0
1, 562560, Note_on_c, 1, 41, 40
1, 563280, Note_off_c, 1, 41, 0
1, 565200, Note_on_c, 1, 42, 40
1, 565920, Note_off_c, 1, 42, 0
1, 569520, Note_on_c, 1, 33, 40
1, 571080, Note_off_c, 1, 33, 0
1, 571080, Note_on_c, 1, 45, 40
1, 571320, Note_off_c, 1, 45, 0
1, 573480, Note_on_c, 1, 40, 40
1, 573720, Note_off_c, 1, 40, 0
1, 573720, Note_on_c, 1, 52, 40
1, 573960, Note_off_c, 1, 52, 0
1, 573960, Note_on_c, 1, 52, 40
1, 574200, Note_off_c, 1, 52, 0
1, 574200, Note_on_c, 1, 52, 40
1, 574440, Note_off_c, 1, 52, 0
1, 574440, Note_on_c, 1, 42, 40
1, 574680, Note_off_c, 1, 42, 0
1, 574680, Note_on_c, 1, 42, 40
1, 574920, Note_off_c, 1, 42, 0
1, 574920, Note_on_c, 1, 42, 40
1, 575160, Note_off_c, 1, 42, 0
1, 576600, Note_on_c, 1, 42, 40
1, 576840, Note_off_c, 1, 42, 0
1, 576840, Note_on_c, 1, 42, 40
1, 577080, Note_off_c, 1, 42, 0
1, 577080, Note_on_c, 1, 42, 40
1, 577320, Note_off_c, 1, 42, 0
1, 577320, Note_on_c, 1, 42, 40
1, 577560, Note_off_c, 1, 42, 0
1, 577560, Note_on_c, 1, 42, 40
1, 577800, Note_off_c, 1, 42, 0
1, 577800, Note_on_c, 1, 42, 40
1, 578040, Note_off_c, 1, 42, 0
1, 578040, Note_on_c, 1, 42, 40
1, 578280, Note_off_c, 1, 42, 0
1, 578280, Note_on_c, 1, 42, 40
1, 578520, Note_off_c, 1, 42, 0
1, 578520, Note_on_c, 1, 42, 40
1, 578760, Note_off_c, 1, 42, 0
1, 578760, Note_on_c, 1, 42, 40
1, 579000, Note_off_c, 1, 42, 0
1, 580440, Note_on_c, 1, 42, 40
1, 580680, Note_off_c, 1, 42, 0
1, 580680, Note_on_c, 1, 42, 40
1, 580920, Note_off_c, 1, 42, 0
1, 580920, Note_on_c, 1, 42, 40
1, 581160, Note_off_c, 1, 42, 0
1, 581160, Note_on_c, 1, 42, 40
1, 581400, Note_off_c, 1, 42, 0
1, 581400, Note_on_c, 1, 42, 40
1, 581640, Note_off_c, 1, 42, 0
1, 581640, Note_on_c, 1, 42, 40
1, 581880, Note_off_c, 1, 42, 0
1, 581880, Note_on_c, 1, 42, 40
1, 582120, Note_off_c, 1, 42, 0
1, 582120, Note_on_c, 1, 42, 40
1, 582360, Note_off_c, 1, 42, 0
1, 582360, Note_on_c, 1, 42, 40
1, 582600, Note_off_c, 1, 42, 0
1, 582600, Note_on_c, 1, 42, 40
1, 582840, Note_off_c, 1, 42, 0
1, 583320, Note_on_c, 1, 47, 40
1, 583800, Note_off_c, 1, 47, 0
1, 583800, Note_on_c, 1, 37, 40
1, 584280, Note_off_c, 1, 37, 0
1, 584280, Note_on_c, 1, 37, 40
1, 584760, Note_off_c, 1, 37, 0
1, 584760, Note_on_c, 1, 37, 40
1, 585000, Note_off_c, 1, 37, 0
1, 585000, Note_on_c, 1, 37, 40
1, 585480, Note_off_c, 1, 37, 0
1, 585480, Note_on_c, 1, 37, 40
1, 585720, Note_off_c, 1, 37, 0
1, 585720, Note_on_c, 1, 37, 40
1, 586200, Note_off_c, 1, 37, 0
1, 586200, Note_on_c, 1, 37, 40
1, 586680, Note_off_c, 1, 37, 0
1, 586680, Note_on_c, 1, 37, 40
1, 586920, Note_off_c, 1, 37, 0
1, 587040, Note_on_c, 1, 35, 40
1, 587160, Note_off_c, 1, 35, 0
1, 587160, Note_on_c, 1, 37, 40
1, 589080, Note_off_c, 1, 37, 0
1, 594120, Note_on_c, 1, 44, 40
1, 595080, Note_off_c, 1, 44, 0
1, 597000, Note_on_c, 1, 41, 40
1, 597720, Note_off_c, 1, 41, 0
1, 599640, Note_on_c, 1, 42, 40
1, 600360, Note_off_c, 1, 42, 0
1, 603960, Note_on_c, 1, 41, 40
1, 604680, Note_off_c, 1, 41, 0
1, 606600, Note_on_c, 1, 33, 40
1, 608160, Note_off_c, 1, 33, 0
1, 608160, Note_on_c, 1, 38, 40
1, 608880, Note_off_c, 1, 38, 0
1, 614520, Note_on_c, 1, 42, 40
1, 615000, Note_off_c, 1, 42, 0
1, 615000, Note_on_c, 1, 42, 40
1, 615360, Note_off_c, 1, 42, 0
1, 615360, Note_on_c, 1, 42, 40
1, 615840, Note_off_c, 1, 42, 0
1, 615840, Note_on_c, 1, 42, 40
1, 616320, Note_off_c, 1, 42, 0
1, 616320, Note_on_c, 1, 42, 40
1, 616800, Note_off_c, 1, 42, 0
1, 616800, Note_on_c, 1, 42, 40
1, 617280, Note_off_c, 1, 42, 0
1, 617280, Note_on_c, 1, 44, 40
1, 617520, Note_off_c, 1, 44, 0
1, 617520, Note_on_c, 1, 33, 40
1, 618240, Note_off_c, 1, 33, 0
1, 618240, Note_on_c, 1, 45, 40
1, 618480, Note_off_c, 1, 45, 0
1, 618480, Note_on_c, 1, 43, 40
1, 619200, Note_off_c, 1, 43, 0
1, 619200, Note_on_c, 1, 45, 40
1, 621120, Note_off_c, 1, 45, 0
1, 621120, Note_on_c, 1, 41, 40
1, 621840, Note_off_c, 1, 41, 0
1, 621840, Note_on_c, 1, 35, 40
1, 623760, Note_off_c, 1, 35, 0
1, 626040, Note_on_c, 1, 42, 40
1, 626520, Note_off_c, 1, 42, 0
1, 626520, Note_on_c, 1, 42, 40
1, 626880, Note_off_c, 1, 42, 0
1, 626880, Note_on_c, 1, 42, 40
1, 627360, Note_off_c, 1, 42, 0
1, 627360, Note_on_c, 1, 42, 40
1, 627840, Note_off_c, 1, 42, 0
1, 627840, Note_on_c, 1, 44, 40
1, 628080, Note_off_c, 1, 44, 0
1, 628080, Note_on_c, 1, 44, 40
1, 628200, Note_off_c, 1, 44, 0
1, 628200, Note_on_c, 1, 33, 40
1, 628320, Note_off_c, 1, 33, 0
1, 628440, Note_on_c, 1, 47, 40
1, 628680, Note_off_c, 1, 47, 0
1, 628680, Note_on_c, 1, 37, 40
1, 629160, Note_off_c, 1, 37, 0
1, 629160, Note_on_c, 1, 42, 40
1, 629640, Note_off_c, 1, 42, 0
1, 629640, Note_on_c, 1, 42, 40
1, 630120, Note_off_c, 1, 42, 0
1, 630120, Note_on_c, 1, 42, 40
1, 630600, Note_off_c, 1, 42, 0
1, 630600, Note_on_c, 1, 42, 40
1, 631080, Note_off_c, 1, 42, 0
1, 631080, Note_on_c, 1, 42, 40
1, 631440, Note_off_c, 1, 42, 0
1, 631440, Note_on_c, 1, 40, 40
1, 631680, Note_off_c, 1, 40, 0
1, 631680, Note_on_c, 1, 40, 40
1, 631920, Note_off_c, 1, 40, 0
1, 631920, Note_on_c, 1, 40, 40
1, 632160, Note_off_c, 1, 40, 0
1, 632160, Note_on_c, 1, 40, 40
1, 632640, Note_off_c, 1, 40, 0
1, 632640, Note_on_c, 1, 42, 40
1, 633120, Note_off_c, 1, 42, 0
1, 635520, Note_on_c, 1, 41, 40
1, 636240, Note_off_c, 1, 41, 0
1, 638160, Note_on_c, 1, 33, 40
1, 638640, Note_off_c, 1, 33, 0
1, 638640, Note_on_c, 1, 45, 40
1, 639600, Note_off_c, 1, 45, 0
1, 639600, Note_on_c, 1, 45, 40
1, 639840, Note_off_c, 1, 45, 0
1, 639840, Note_on_c, 1, 57, 40
1, 640080, Note_off_c, 1, 57, 0
1, 640080, Note_on_c, 1, 57, 40
1, 640320, Note_off_c, 1, 57, 0
1, 640320, Note_on_c, 1, 57, 40
1, 640560, Note_off_c, 1, 57, 0
1, 640560, Note_on_c, 1, 57, 40
1, 640800, Note_off_c, 1, 57, 0
1, 640800, Note_on_c, 1, 57, 40
1, 641040, Note_off_c, 1, 57, 0
1, 641040, Note_on_c, 1, 57, 40
1, 641280, Note_off_c, 1, 57, 0
1, 641280, Note_on_c, 1, 57, 40
1, 641520, Note_off_c, 1, 57, 0
1, 641520, Note_on_c, 1, 57, 40
1, 641760, Note_off_c, 1, 57, 0
1, 641760, Note_on_c, 1, 57, 40
1, 642000, Note_off_c, 1, 57, 0
1, 642000, Note_on_c, 1, 57, 40
1, 642240, Note_off_c, 1, 57, 0
1, 642240, Note_on_c, 1, 57, 40
1, 642480, Note_off_c, 1, 57, 0
1, 642480, Note_on_c, 1, 57, 40
1, 642720, Note_off_c, 1, 57, 0
1, 642720, Note_on_c, 1, 57, 40
1, 643200, Note_off_c, 1, 57, 0
1, 643200, Note_on_c, 1, 57, 40
1, 644160, Note_off_c, 1, 57, 0
1, 644160, Note_on_c, 1, 57, 40
1, 644640, Note_off_c, 1, 57, 0
1, 644640, Note_on_c, 1, 57, 40
1, 645120, Note_off_c, 1, 57, 0
1, 645600, Note_on_c, 1, 30, 40
1, 646080, Note_off_c, 1, 30, 0
1, 646080, Note_on_c, 1, 37, 40
1, 646560, Note_off_c, 1, 37, 0
1, 646560, Note_on_c, 1, 37, 40
1, 647160, Note_off_c, 1, 37, 0
1, 647160, Note_on_c, 1, 37, 40
1, 647640, Note_off_c, 1, 37, 0
1, 647640, Note_on_c, 1, 37, 40
1, 648240, Note_off_c, 1, 37, 0
1, 648240, Note_on_c, 1, 37, 40
1, 648720, Note_off_c, 1, 37, 0
1, 648720, Note_on_c, 1, 37, 40
1, 649320, Note_off_c, 1, 37, 0
1, 649320, Note_on_c, 1, 37, 40
1, 649800, Note_off_c, 1, 37, 0
1, 649800, Note_on_c, 1, 37, 40
1, 650400, Note_off_c, 1, 37, 0
1, 650400, Note_on_c, 1, 37, 40
1, 650880, Note_off_c, 1, 37, 0
1, 653040, Note_on_c, 1, 33, 40
1, 654960, Note_off_c, 1, 33, 0
1, 654960, Note_on_c, 1, 40, 40
1, 656880, Note_off_c, 1, 40, 0
1, 656880, Note_on_c, 1, 40, 40
1, 658800, Note_off_c, 1, 40, 0
1, 658800, Note_on_c, 1, 33, 40
1, 659280, Note_off_c, 1, 33, 0
1, 659280, Note_on_c, 1, 45, 40
1, 660000, Note_off_c, 1, 45, 0
1, 660000, Note_on_c, 1, 45, 40
1, 660360, Note_off_c, 1, 45, 0
1, 661080, Note_on_c, 1, 40, 40
1, 661440, Note_off_c, 1, 40, 0
1, 661440, Note_on_c, 1, 52, 40
1, 661800, Note_off_c, 1, 52, 0
1, 661800, Note_on_c, 1, 52, 40
1, 662160, Note_off_c, 1, 52, 0
1, 662640, Note_on_c, 1, 39, 40
1, 662760, Note_off_c, 1, 39, 0
1, 662760, Note_on_c, 1, 40, 40
1, 663000, Note_off_c, 1, 40, 0
1, 663000, Note_on_c, 1, 44, 40
1, 663360, Note_off_c, 1, 44, 0
1, 663360, Note_on_c, 1, 44, 40
1, 663720, Note_off_c, 1, 44, 0
1, 663720, Note_on_c, 1, 44, 40
1, 664080, Note_off_c, 1, 44, 0
1, 664080, Note_on_c, 1, 36, 40
1, 664560, Note_off_c, 1, 36, 0
1, 664560, Note_on_c, 1, 48, 40
1, 665280, Note_off_c, 1, 48, 0
1, 669120, Note_on_c, 1, 33, 40
1, 671040, Note_off_c, 1, 33, 0
1, 671040, Note_on_c, 1, 30, 40
1, 672960, Note_off_c, 1, 30, 0
1, 673200, Note_on_c, 1, 44, 40
1, 674040, Note_off_c, 1, 44, 0
1, 675960, Note_on_c, 1, 40, 40
1, 676440, Note_off_c, 1, 40, 0
1, 676440, Note_on_c, 1, 40, 40
1, 676680, Note_off_c, 1, 40, 0
1, 676680, Note_on_c, 1, 40, 40
1, 677160, Note_off_c, 1, 40, 0
1, 677160, Note_on_c, 1, 40, 40
1, 677400, Note_off_c, 1, 40, 0
1, 677400, Note_on_c, 1, 40, 40
1, 677640, Note_off_c, 1, 40, 0
1, 677640, Note_on_c, 1, 40, 40
1, 677880, Note_off_c, 1, 40, 0
1, 677880, Note_on_c, 1, 40, 40
1, 678120, Note_off_c, 1, 40, 0
1, 678120, Note_on_c, 1, 42, 40
1, 678360, Note_off_c, 1, 42, 0
1, 678360, Note_on_c, 1, 44, 40
1, 678720, Note_off_c, 1, 44, 0
1, 678720, Note_on_c, 1, 44, 40
1, 679080, Note_off_c, 1, 44, 0
1, 679080, Note_on_c, 1, 44, 40
1, 679440, Note_off_c, 1, 44, 0
1, 679440, Note_on_c, 1, 36, 40
1, 679920, Note_off_c, 1, 36, 0
1, 679920, Note_on_c, 1, 48, 40
1, 680640, Note_off_c, 1, 48, 0
1, 686400, Note_on_c, 1, 33, 40
1, 688320, Note_off_c, 1, 33, 0
1, 688320, Note_on_c, 1, 38, 40
1, 690240, Note_off_c, 1, 38, 0
1, 690240, Note_on_c, 1, 30, 40
1, 692160, Note_off_c, 1, 30, 0
1, 697920, Note_on_c, 1, 33, 40
1, 699840, Note_off_c, 1, 33, 0
1, 699840, Note_on_c, 1, 33, 40
1, 701760, Note_off_c, 1, 33, 0
1, 706800, Note_on_c, 1, 40, 40
1, 707280, Note_off_c, 1, 40, 0
1, 707280, Note_on_c, 1, 40, 40
1, 708120, Note_off_c, 1, 40, 0
1, 708120, Note_on_c, 1, 52, 40
1, 710040, Note_off_c, 1, 52, 0
1, 710040, Note_on_c, 1, 33, 40
1, 710520, Note_off_c, 1, 33, 0
1, 710520, Note_on_c, 1, 33, 40
1, 711000, Note_off_c, 1, 33, 0
1, 711000, Note_on_c, 1, 33, 40
1, 711480, Note_off_c, 1, 33, 0
1, 711480, Note_on_c, 1, 36, 40
1, 711960, Note_off_c, 1, 36, 0
1, 711960, Note_on_c, 1, 48, 40
1, 712440, Note_off_c, 1, 48, 0
1, 712440, Note_on_c, 1, 48, 40
1, 713160, Note_off_c, 1, 48, 0
1, 715080, Note_on_c, 1, 33, 40
1, 717000, Note_off_c, 1, 33, 0
1, 717000, Note_on_c, 1, 35, 40
1, 718920, Note_off_c, 1, 35, 0
1, 719160, Note_on_c, 1, 47, 40
1, 719880, Note_off_c, 1, 47, 0
1, 721800, Note_on_c, 1, 42, 40
1, 723720, Note_off_c, 1, 42, 0
1, 723720, Note_on_c, 1, 33, 40
1, 725640, Note_off_c, 1, 33, 0
1, 725640, Note_on_c, 1, 35, 40
1, 727560, Note_off_c, 1, 35, 0
1, 733320, Note_on_c, 1, 42, 40
1, 735240, Note_off_c, 1, 42, 0
1, 735240, Note_on_c, 1, 33, 40
1, 737160, Note_off_c, 1, 33, 0
1, 737160, Note_on_c, 1, 35, 40
1, 739080, Note_off_c, 1, 35, 0
1, 739080, Note_on_c, 1, 33, 40
1, 739320, Note_off_c, 1, 33, 0
1, 739320, Note_on_c, 1, 45, 40
1, 739560, Note_off_c, 1, 45, 0
1, 739560, Note_on_c, 1, 45, 40
1, 740040, Note_off_c, 1, 45, 0
1, 740040, Note_on_c, 1, 42, 40
1, 740880, Note_off_c, 1, 42, 0
1, 740880, Note_on_c, 1, 36, 40
1, 741360, Note_off_c, 1, 36, 0
1, 746160, Note_on_c, 1, 33, 40
1, 748080, Note_off_c, 1, 33, 0
1, 748080, Note_on_c, 1, 30, 40
1, 750000, Note_off_c, 1, 30, 0
1, 750240, Note_on_c, 1, 44, 40
1, 751080, Note_off_c, 1, 44, 0
1, 751080, Note_on_c, 1, 33, 40
1, 753000, Note_off_c, 1, 33, 0
1, 753000, Note_on_c, 1, 40, 40
1, 754920, Note_off_c, 1, 40, 0
1, 754920, Note_on_c, 1, 40, 40
1, 755400, Note_off_c, 1, 40, 0
1, 755400, Note_on_c, 1, 36, 40
1, 755760, Note_off_c, 1, 36, 0
1, 755760, Note_on_c, 1, 35, 40
1, 756720, Note_off_c, 1, 35, 0
1, 784560, Note_on_c, 1, 45, 40
1, 786480, Note_off_c, 1, 45, 0
1, 786480, Note_on_c, 1, 33, 40
1, 788400, Note_off_c, 1, 33, 0
1, 788400, Note_on_c, 1, 33, 40
1, 790320, Note_off_c, 1, 33, 0
1, 790320, Note_on_c, 1, 33, 40
1, 792240, Note_off_c, 1, 33, 0
1, 792240, Note_on_c, 1, 33, 40
1, 794160, Note_off_c, 1, 33, 0
1, 794160, Note_on_c, 1, 33, 40
1, 796080, Note_off_c, 1, 33, 0
1, 796080, Note_on_c, 1, 33, 40
1, 796320, Note_off_c, 1, 33, 0
1, 796320, Note_on_c, 1, 45, 40
1, 796560, Note_off_c, 1, 45, 0
1, 796560, Note_on_c, 1, 45, 40
1, 797040, Note_off_c, 1, 45, 0
1, 797040, Note_on_c, 1, 45, 40
1, 797760, Note_off_c, 1, 45, 0
1, 798720, Note_on_c, 1, 30, 40
1, 799200, Note_off_c, 1, 30, 0
1, 799200, Note_on_c, 1, 37, 40
1, 799680, Note_off_c, 1, 37, 0
1, 799680, Note_on_c, 1, 37, 40
1, 800280, Note_off_c, 1, 37, 0
1, 800280, Note_on_c, 1, 37, 40
1, 800760, Note_off_c, 1, 37, 0
1, 800760, Note_on_c, 1, 37, 40
1, 801360, Note_off_c, 1, 37, 0
1, 801360, Note_on_c, 1, 37, 40
1, 801840, Note_off_c, 1, 37, 0
1, 801840, Note_on_c, 1, 37, 40
1, 802440, Note_off_c, 1, 37, 0
1, 802440, Note_on_c, 1, 37, 40
1, 802920, Note_off_c, 1, 37, 0
1, 802920, Note_on_c, 1, 37, 40
1, 803520, Note_off_c, 1, 37, 0
1, 803520, Note_on_c, 1, 37, 40
1, 804000, Note_off_c, 1, 37, 0
1, 804000, Note_on_c, 1, 37, 40
1, 804600, Note_off_c, 1, 37, 0
1, 804600, Note_on_c, 1, 37, 40
1, 805080, Note_off_c, 1, 37, 0
1, 805080, Note_on_c, 1, 37, 40
1, 805680, Note_off_c, 1, 37, 0
1, 805680, Note_on_c, 1, 37, 40
1, 806160, Note_off_c, 1, 37, 0
1, 806400, Note_on_c, 1, 37, 40
1, 806520, Note_off_c, 1, 37, 0
1, 806520, Note_on_c, 1, 30, 40
1, 806640, Note_off_c, 1, 30, 0
1, 806760, Note_on_c, 1, 37, 40
1, 806880, Note_off_c, 1, 37, 0
1, 806880, Note_on_c, 1, 30, 40
1, 807000, Note_off_c, 1, 30, 0
1, 807120, Note_on_c, 1, 37, 40
1, 807240, Note_off_c, 1, 37, 0
1, 807240, Note_on_c, 1, 40, 40
1, 807480, Note_off_c, 1, 40, 0
1, 807480, Note_on_c, 1, 40, 40
1, 807720, Note_off_c, 1, 40, 0
1, 807720, Note_on_c, 1, 40, 40
1, 807960, Note_off_c, 1, 40, 0
1, 807960, Note_on_c, 1, 52, 40
1, 808080, Note_off_c, 1, 52, 0
1, 808080, Note_on_c, 1, 52, 40
1, 808200, Note_off_c, 1, 52, 0
1, 808200, Note_on_c, 1, 52, 40
1, 808320, Note_off_c, 1, 52, 0
1, 808320, Note_on_c, 1, 52, 40
1, 808440, Note_off_c, 1, 52, 0
1, 808440, Note_on_c, 1, 32, 40
1, 808800, Note_off_c, 1, 32, 0
1, 808800, Note_on_c, 1, 44, 40
1, 809280, Note_off_c, 1, 44, 0
1, 809280, Note_on_c, 1, 44, 40
1, 810000, Note_off_c, 1, 44, 0
1, 815760, Note_on_c, 1, 33, 40
1, 816240, Note_off_c, 1, 33, 0
1, 816240, Note_on_c, 1, 43, 40
1, 817200, Note_off_c, 1, 43, 0
1, 819120, Note_on_c, 1, 33, 40
1, 821040, Note_off_c, 1, 33, 0
1, 821040, Note_on_c, 1, 33, 40
1, 822960, Note_off_c, 1, 33, 0
1, 822960, Note_on_c, 1, 33, 40
1, 824880, Note_off_c, 1, 33, 0
1, 824880, Note_on_c, 1, 33, 40
1, 826800, Note_off_c, 1, 33, 0
1, 826800, Note_on_c, 1, 33, 40
1, 827040, Note_off_c, 1, 33, 0
1, 827040, Note_on_c, 1, 45, 40
1, 827280, Note_off_c, 1, 45, 0
1, 827280, Note_on_c, 1, 45, 40
1, 827760, Note_off_c, 1, 45, 0
1, 827760, Note_on_c, 1, 45, 40
1, 828480, Note_off_c, 1, 45, 0
1, 829440, Note_on_c, 1, 30, 40
1, 829920, Note_off_c, 1, 30, 0
1, 829920, Note_on_c, 1, 37, 40
1, 830400, Note_off_c, 1, 37, 0
1, 830400, Note_on_c, 1, 37, 40
1, 831000, Note_off_c, 1, 37, 0
1, 831000, Note_on_c, 1, 37, 40
1, 831480, Note_off_c, 1, 37, 0
1, 831480, Note_on_c, 1, 37, 40
1, 832080, Note_off_c, 1, 37, 0
1, 832080, Note_on_c, 1, 37, 40
1, 832560, Note_off_c, 1, 37, 0
1, 832560, Note_on_c, 1, 37, 40
1, 833160, Note_off_c, 1, 37, 0
1, 833160, Note_on_c, 1, 37, 40
1, 833640, Note_off_c, 1, 37, 0
1, 833640, Note_on_c, 1, 37, 40
1, 834240, Note_off_c, 1, 37, 0
1, 834240, Note_on_c, 1, 37, 40
1, 834720, Note_off_c, 1, 37, 0
1, 834720, Note_on_c, 1, 37, 40
1, 835320, Note_off_c, 1, 37, 0
1, 835320, Note_on_c, 1, 37, 40
1, 835800, Note_off_c, 1, 37, 0
1, 835800, Note_on_c, 1, 37, 40
1, 836400, Note_off_c, 1, 37, 0
1, 836400, Note_on_c, 1, 37, 40
1, 836880, Note_off_c, 1, 37, 0
1, 837120, Note_on_c, 1, 37, 40
1, 837240, Note_off_c, 1, 37, 0
1, 837240, Note_on_c, 1, 30, 40
1, 837360, Note_off_c, 1, 30, 0
1, 837480, Note_on_c, 1, 37, 40
1, 837600, Note_off_c, 1, 37, 0
1, 837600, Note_on_c, 1, 30, 40
1, 837720, Note_off_c, 1, 30, 0
1, 837840, Note_on_c, 1, 37, 40
1, 837960, Note_off_c, 1, 37, 0
1, 837960, Note_on_c, 1, 40, 40
1, 838200, Note_off_c, 1, 40, 0
1, 838200, Note_on_c, 1, 40, 40
1, 838440, Note_off_c, 1, 40, 0
1, 838440, Note_on_c, 1, 40, 40
1, 838680, Note_off_c, 1, 40, 0
1, 838680, Note_on_c, 1, 52, 40
1, 838800, Note_off_c, 1, 52, 0
1, 838800, Note_on_c, 1, 52, 40
1, 838920, Note_off_c, 1, 52, 0
1, 838920, Note_on_c, 1, 52, 40
1, 839040, Note_off_c, 1, 52, 0
1, 839040, Note_on_c, 1, 52, 40
1, 839160, Note_off_c, 1, 52, 0
1, 839160, Note_on_c, 1, 32, 40
1, 839520, Note_off_c, 1, 32, 0
1, 839520, Note_on_c, 1, 44, 40
1, 840000, Note_off_c, 1, 44, 0
1, 840000, Note_on_c, 1, 44, 40
1, 840720, Note_off_c, 1, 44, 0
1, 846480, Note_on_c, 1, 33, 40
1, 848400, Note_off_c, 1, 33, 0
1, 848400, Note_on_c, 1, 33, 40
1, 850320, Note_off_c, 1, 33, 0
1, 850320, Note_on_c, 1, 33, 40
1, 852240, Note_off_c, 1, 33, 0
1, 852240, Note_on_c, 1, 33, 40
1, 852720, Note_off_c, 1, 33, 0
1, 852720, Note_on_c, 1, 45, 40
1, 853440, Note_off_c, 1, 45, 0
1, 853440, Note_on_c, 1, 45, 40
1, 855360, Note_off_c, 1, 45, 0
1, 855360, Note_on_c, 1, 33, 40
1, 857280, Note_off_c, 1, 33, 0
1, 857280, Note_on_c, 1, 40, 40
1, 859200, Note_off_c, 1, 40, 0
1, 859200, Note_on_c, 1, 33, 40
1, 859440, Note_off_c, 1, 33, 0
1, 859440, Note_on_c, 1, 45, 40
1, 859680, Note_off_c, 1, 45, 0
1, 859680, Note_on_c, 1, 45, 40
1, 859920, Note_off_c, 1, 45, 0
1, 859920, Note_on_c, 1, 45, 40
1, 860160, Note_off_c, 1, 45, 0
1, 860160, Note_on_c, 1, 45, 40
1, 860400, Note_off_c, 1, 45, 0
1, 860400, Note_on_c, 1, 45, 40
1, 860640, Note_off_c, 1, 45, 0
1, 860640, Note_on_c, 1, 45, 40
1, 860880, Note_off_c, 1, 45, 0
1, 860880, Note_on_c, 1, 45, 40
1, 861120, Note_off_c, 1, 45, 0
1, 861120, Note_on_c, 1, 45, 40
1, 861360, Note_off_c, 1, 45, 0
1, 861360, Note_on_c, 1, 42, 40
1, 861840, Note_off_c, 1, 42, 0
1, 861840, Note_on_c, 1, 44, 40
1, 862440, Note_off_c, 1, 44, 0
1, 863160, Note_on_c, 1, 30, 40
1, 863280, Note_off_c, 1, 30, 0
1, 863280, Note_on_c, 1, 43, 40
1, 863400, Note_off_c, 1, 43, 0
1, 863400, Note_on_c, 1, 30, 40
1, 863520, Note_off_c, 1, 30, 0
1, 863520, Note_on_c, 1, 43, 40
1, 863640, Note_off_c, 1, 43, 0
1, 863640, Note_on_c, 1, 30, 40
1, 863760, Note_off_c, 1, 30, 0
1, 863760, Note_on_c, 1, 43, 40
1, 863880, Note_off_c, 1, 43, 0
1, 863880, Note_on_c, 1, 30, 40
1, 864000, Note_off_c, 1, 30, 0
1, 864000, Note_on_c, 1, 43, 40
1, 864120, Note_off_c, 1, 43, 0
1, 864120, Note_on_c, 1, 30, 40
1, 864240, Note_off_c, 1, 30, 0
1, 864240, Note_on_c, 1, 43, 40
1, 864360, Note_off_c, 1, 43, 0
1, 864360, Note_on_c, 1, 30, 40
1, 864480, Note_off_c, 1, 30, 0
1, 864480, Note_on_c, 1, 43, 40
1, 864600, Note_off_c, 1, 43, 0
1, 864600, Note_on_c, 1, 30, 40
1, 864720, Note_off_c, 1, 30, 0
1, 864720, Note_on_c, 1, 43, 40
1, 864840, Note_off_c, 1, 43, 0
1, 864840, Note_on_c, 1, 30, 40
1, 864960, Note_off_c, 1, 30, 0
1, 864960, Note_on_c, 1, 43, 40
1, 865080, Note_off_c, 1, 43, 0
1, 865080, Note_on_c, 1, 43, 40
1, 865320, Note_off_c, 1, 43, 0
1, 865320, Note_on_c, 1, 43, 40
1, 865560, Note_off_c, 1, 43, 0
1, 868680, Note_on_c, 1, 33, 40
1, 870600, Note_off_c, 1, 33, 0
1, 870600, Note_on_c, 1, 33, 40
1, 872520, Note_off_c, 1, 33, 0
1, 872520, Note_on_c, 1, 33, 40
1, 874440, Note_off_c, 1, 33, 0
1, 874440, Note_on_c, 1, 33, 40
1, 876360, Note_off_c, 1, 33, 0
1, 876360, Note_on_c, 1, 45, 40
1, 878280, Note_off_c, 1, 45, 0
1, 878280, Note_on_c, 1, 30, 40
1, 880200, Note_off_c, 1, 30, 0
1, 892200, Note_on_c, 1, 33, 40
1, 894120, Note_off_c, 1, 33, 0
1, 894120, Note_on_c, 1, 33, 40
1, 896040, Note_off_c, 1, 33, 0
1, 896040, Note_on_c, 1, 33, 40
1, 897960, Note_off_c, 1, 33, 0
1, 897960, Note_on_c, 1, 45, 40
1, 898200, Note_off_c, 1, 45, 0
1, 898200, Note_on_c, 1, 45, 40
1, 898680, Note_off_c, 1, 45, 0
1, 898680, Note_on_c, 1, 45, 40
1, 899160, Note_off_c, 1, 45, 0
1, 899160, Note_on_c, 1, 45, 40
1, 899880, Note_off_c, 1, 45, 0
1, 901800, Note_on_c, 1, 47, 40
1, 903720, Note_off_c, 1, 47, 0
1, 903720, Note_on_c, 1, 33, 40
1, 905640, Note_off_c, 1, 33, 0
1, 905640, Note_on_c, 1, 30, 40
1, 907560, Note_off_c, 1, 30, 0
1, 927960, Note_on_c, 1, 33, 40
1, 929880, Note_off_c, 1, 33, 0
1, 929880, Note_on_c, 1, 33, 40
1, 931800, Note_off_c, 1, 33, 0
1, 931800, Note_on_c, 1, 40, 40
1, 933720, Note_off_c, 1, 40, 0
1, 935640, Note_on_c, 1, 33, 40
1, 937560, Note_off_c, 1, 33, 0
1, 940560, Note_on_c, 1, 33, 40
1, 942480, Note_off_c, 1, 33, 0
1, 942480, Note_on_c, 1, 30, 40
1, 944400, Note_off_c, 1, 30, 0
1, 944400, Note_on_c, 1, 40, 40
1, 946320, Note_off_c, 1, 40, 0
1, 946320, Note_on_c, 1, 40, 40
1, 946560, Note_off_c, 1, 40, 0
1, 946560, Note_on_c, 1, 52, 40
1, 947280, Note_off_c, 1, 52, 0
1, 947280, Note_on_c, 1, 52, 40
1, 949200, Note_off_c, 1, 52, 0
1, 949200, Note_on_c, 1, 33, 40
1, 951120, Note_off_c, 1, 33, 0
1, 951120, Note_on_c, 1, 30, 40
1, 953040, Note_off_c, 1, 30, 0
1, 958800, Note_on_c, 1, 38, 40
1, 960720, Note_off_c, 1, 38, 0
1, 960720, Note_on_c, 1, 30, 40
1, 962640, Note_off_c, 1, 30, 0
1, 962880, Note_on_c, 1, 44, 40
1, 963720, Note_off_c, 1, 44, 0
1, 963720, Note_on_c, 1, 35, 40
1, 964200, Note_off_c, 1, 35, 0
1, 964200, Note_on_c, 1, 35, 40
1, 966120, Note_off_c, 1, 35, 0
1, 966120, Note_on_c, 1, 33, 40
1, 968040, Note_off_c, 1, 33, 0
1, 968040, Note_on_c, 1, 30, 40
1, 969960, Note_off_c, 1, 30, 0
1, 971880, Note_on_c, 1, 33, 40
1, 973440, Note_off_c, 1, 33, 0
1, 973440, Note_on_c, 1, 47, 40
1, 974400, Note_off_c, 1, 47, 0
1, 988800, Note_on_c, 1, 33, 40
1, 990720, Note_off_c, 1, 33, 0
1, 990720, Note_on_c, 1, 33, 40
1, 992640, Note_off_c, 1, 33, 0
1, 992640, Note_on_c, 1, 33, 40
1, 994560, Note_off_c, 1, 33, 0
1, 994560, Note_on_c, 1, 32, 40
1, 995280, Note_off_c, 1, 32, 0
1, 995280, Note_on_c, 1, 43, 40
1, 996120, Note_off_c, 1, 43, 0
1, 998040, Note_on_c, 1, 33, 40
1, 999960, Note_off_c, 1, 33, 0
1, 1007520, Note_on_c, 1, 33, 40
1, 1009440, Note_off_c, 1, 33, 0
1, 1009440, Note_on_c, 1, 32, 40
1, 1010160, Note_off_c, 1, 32, 0
1, 1010160, Note_on_c, 1, 44, 40
1, 1010880, Note_off_c, 1, 44, 0
1, 1012800, Note_on_c, 1, 33, 40
1, 1014720, Note_off_c, 1, 33, 0
1, 1014720, Note_on_c, 1, 45, 40
1, 1016640, Note_off_c, 1, 45, 0
1, 1016640, Note_on_c, 1, 33, 40
1, 1017120, Note_off_c, 1, 33, 0
1, 1017120, Note_on_c, 1, 48, 40
1, 1017600, Note_off_c, 1, 48, 0
1, 1019520, Note_on_c, 1, 33, 40
1, 1020000, Note_off_c, 1, 33, 0
1, 1020000, Note_on_c, 1, 38, 40
1, 1020480, Note_off_c, 1, 38, 0
1, 1020480, Note_on_c, 1, 38, 40
1, 1021320, Note_off_c, 1, 38, 0
1, 1021320, Note_on_c, 1, 38, 40
1, 1023240, Note_off_c, 1, 38, 0
1, 1025160, Note_on_c, 1, 33, 40
1, 1027080, Note_off_c, 1, 33, 0
1, 1027080, Note_on_c, 1, 33, 40
1, 1029000, Note_off_c, 1, 33, 0
1, 1029000, Note_on_c, 1, 30, 40
1, 1030920, Note_off_c, 1, 30, 0
1, 1034760, Note_on_c, 1, 33, 40
1, 1036680, Note_off_c, 1, 33, 0
1, 1036680, Note_on_c, 1, 47, 40
1, 1038600, Note_off_c, 1, 47, 0
1, 1038600, Note_on_c, 1, 47, 40
1, 1040520, Note_off_c, 1, 47, 0
1, 1050120, Note_on_c, 1, 33, 40
1, 1050600, Note_off_c, 1, 33, 0
1, 1050600, Note_on_c, 1, 33, 40
1, 1051320, Note_off_c, 1, 33, 0
1, 1051320, Note_on_c, 1, 30, 40
1, 1052280, Note_off_c, 1, 30, 0
1, 1052280, Note_on_c, 1, 42, 40
1, 1054200, Note_off_c, 1, 42, 0
1, 1056120, Note_on_c, 1, 29, 40
1, 1058040, Note_off_c, 1, 29, 0
1, 1058040, Note_on_c, 1, 28, 40
1, 1059960, Note_off_c, 1, 28, 0
1, 1059960, Note_on_c, 1, 45, 40
1, 1060200, Note_off_c, 1, 45, 0
1, 1060200, Note_on_c, 1, 45, 40
1, 1060440, Note_off_c, 1, 45, 0
1, 1070400, Note_on_c, 1, 47, 40
1, 1071360, Note_off_c, 1, 47, 0
1, 1071360, Note_on_c, 1, 33, 40
1, 1073280, Note_off_c, 1, 33, 0
1, 1073280, Note_on_c, 1, 50, 40
1, 1073760, Note_off_c, 1, 50, 0
1, 1073760, Note_on_c, 1, 50, 40
1, 1075200, Note_off_c, 1, 50, 0
1, 1075200, Note_on_c, 1, 43, 40
1, 1077120, Note_off_c, 1, 43, 0
1, 1101360, Note_on_c, 1, 33, 40
1, 1103280, Note_off_c, 1, 33, 0
1, 1103280, Note_on_c, 1, 45, 40
1, 1103520, Note_off_c, 1, 45, 0
1, 1103520, Note_on_c, 1, 41, 40
1, 1104000, Note_off_c, 1, 41, 0
1, 1148640, Note_on_c, 1, 33, 40
1, 1149120, Note_off_c, 1, 33, 0
1, 1149120, Note_on_c, 1, 45, 40
1, 1149600, Note_off_c, 1, 45, 0
1, 1149600, Note_on_c, 1, 45, 40
1, 1150440, Note_off_c, 1, 45, 0
1, 1150440, Note_on_c, 1, 45, 40
1, 1152360, Note_off_c, 1, 45, 0
1, 1165200, Note_on_c, 1, 33, 40
1, 1166760, Note_off_c, 1, 33, 0
1, 1166760, Note_on_c, 1, 38, 40
1, 1167240, Note_off_c, 1, 38, 0
1, 1167240, Note_on_c, 1, 30, 40
1, 1167720, Note_off_c, 1, 30, 0
1, 1167720, Note_on_c, 1, 37, 40
1, 1168200, Note_off_c, 1, 37, 0
1, 1168200, Note_on_c, 1, 37, 40
1, 1168800, Note_off_c, 1, 37, 0
1, 1168800, Note_on_c, 1, 37, 40
1, 1169280, Note_off_c, 1, 37, 0
1, 1169280, Note_on_c, 1, 37, 40
1, 1169880, Note_off_c, 1, 37, 0
1, 1169880, Note_on_c, 1, 37, 40
1, 1170360, Note_off_c, 1, 37, 0
1, 1170360, Note_on_c, 1, 37, 40
1, 1170840, Note_off_c, 1, 37, 0
1, 1170840, Note_on_c, 1, 37, 40
1, 1171800, Note_off_c, 1, 37, 0
1, 1171800, Note_on_c, 1, 47, 40
1, 1172040, Note_off_c, 1, 47, 0
1, 1172040, Note_on_c, 1, 47, 40
1, 1172520, Note_off_c, 1, 47, 0
1, 1172520, Note_on_c, 1, 47, 40
1, 1173000, Note_off_c, 1, 47, 0
1, 1173000, Note_on_c, 1, 47, 40
1, 1173480, Note_off_c, 1, 47, 0
1, 1173480, Note_on_c, 1, 47, 40
1, 1173960, Note_off_c, 1, 47, 0
1, 1173960, Note_on_c, 1, 30, 40
1, 1174440, Note_off_c, 1, 30, 0
1, 1174440, Note_on_c, 1, 37, 40
1, 1174920, Note_off_c, 1, 37, 0
1, 1174920, Note_on_c, 1, 37, 40
1, 1175520, Note_off_c, 1, 37, 0
1, 1175520, Note_on_c, 1, 37, 40
1, 1176000, Note_off_c, 1, 37, 0
1, 1176000, Note_on_c, 1, 37, 40
1, 1176240, Note_off_c, 1, 37, 0
1, 1176240, Note_on_c, 1, 30, 40
1, 1176480, Note_off_c, 1, 30, 0
1, 1176480, Note_on_c, 1, 43, 40
1, 1177320, Note_off_c, 1, 43, 0
1, 1190400, Note_on_c, 1, 31, 40
1, 1192320, Note_off_c, 1, 31, 0
1, 1192320, Note_on_c, 1, 33, 40
1, 1192560, Note_off_c, 1, 33, 0
1, 1192560, Note_on_c, 1, 38, 40
1, 1192800, Note_off_c, 1, 38, 0
1, 1192800, Note_on_c, 1, 38, 40
1, 1193040, Note_off_c, 1, 38, 0
1, 1193040, Note_on_c, 1, 38, 40
1, 1193280, Note_off_c, 1, 38, 0
1, 1193280, Note_on_c, 1, 38, 40
1, 1193520, Note_off_c, 1, 38, 0
1, 1193520, Note_on_c, 1, 38, 40
1, 1193760, Note_off_c, 1, 38, 0
1, 1193760, Note_on_c, 1, 40, 40
1, 1194000, Note_off_c, 1, 40, 0
1, 1194000, Note_on_c, 1, 40, 40
1, 1194480, Note_off_c, 1, 40, 0
1, 1194480, Note_on_c, 1, 40, 40
1, 1196400, Note_off_c, 1, 40, 0
1, 1196400, Note_on_c, 1, 40, 40
1, 1198320, Note_off_c, 1, 40, 0
1, 1198320, Note_on_c, 1, 30, 40
1, 1200120, Note_off_c, 1, 30, 0
1, 1200120, End_track, , , 
2, 0, Start_track, , , 
2, 0, Title_t, Electric Guitar, , 
2, 0, Control_c, 2, 0, 0
2, 0, Program_c, 2, 1,
2, 0, Note_on_c, 2, 66, 50
2, 960, Note_off_c, 2, 66, 0
2, 960, Note_on_c, 2, 64, 50
2, 1200, Note_off_c, 2, 64, 0
2, 1200, Note_on_c, 2, 63, 50
2, 1440, Note_off_c, 2, 63, 0
2, 1440, Note_on_c, 2, 62, 50
2, 1680, Note_off_c, 2, 62, 0
2, 3120, Note_on_c, 2, 59, 50
2, 3360, Note_off_c, 2, 59, 0
2, 3360, Note_on_c, 2, 68, 50
2, 4080, Note_off_c, 2, 68, 0
2, 4080, Note_on_c, 2, 66, 50
2, 4800, Note_off_c, 2, 66, 0
2, 5040, Note_on_c, 2, 64, 50
2, 5280, Note_off_c, 2, 64, 0
2, 5280, Note_on_c, 2, 66, 50
2, 6000, Note_off_c, 2, 66, 0
2, 6000, Note_on_c, 2, 64, 50
2, 6720, Note_off_c, 2, 64, 0
2, 6720, Note_on_c, 2, 63, 50
2, 6960, Note_off_c, 2, 63, 0
2, 6960, Note_on_c, 2, 64, 50
2, 7200, Note_off_c, 2, 64, 0
2, 7200, Note_on_c, 2, 66, 50
2, 9120, Note_off_c, 2, 66, 0
2, 9120, Note_on_c, 2, 64, 50
2, 9360, Note_off_c, 2, 64, 0
2, 9360, Note_on_c, 2, 62, 50
2, 9600, Note_off_c, 2, 62, 0
2, 11280, Note_on_c, 2, 59, 50
2, 11760, Note_off_c, 2, 59, 0
2, 11760, Note_on_c, 2, 59, 50
2, 12000, Note_off_c, 2, 59, 0
2, 12000, Note_on_c, 2, 59, 50
2, 12240, Note_off_c, 2, 59, 0
2, 12240, Note_on_c, 2, 59, 50
2, 12480, Note_off_c, 2, 59, 0
2, 12720, Note_on_c, 2, 59, 50
2, 12960, Note_off_c, 2, 59, 0
2, 12960, Note_on_c, 2, 61, 50
2, 13200, Note_off_c, 2, 61, 0
2, 13200, Note_on_c, 2, 57, 50
2, 13440, Note_off_c, 2, 57, 0
2, 13440, Note_on_c, 2, 57, 50
2, 13680, Note_off_c, 2, 57, 0
2, 13680, Note_on_c, 2, 57, 50
2, 13920, Note_off_c, 2, 57, 0
2, 15120, Note_on_c, 2, 62, 50
2, 15360, Note_off_c, 2, 62, 0
2, 15360, Note_on_c, 2, 62, 50
2, 15600, Note_off_c, 2, 62, 0
2, 15600, Note_on_c, 2, 62, 50
2, 15840, Note_off_c, 2, 62, 0
2, 15840, Note_on_c, 2, 62, 50
2, 16080, Note_off_c, 2, 62, 0
2, 16080, Note_on_c, 2, 62, 50
2, 16320, Note_off_c, 2, 62, 0
2, 16560, Note_on_c, 2, 62, 50
2, 16800, Note_off_c, 2, 62, 0
2, 16800, Note_on_c, 2, 64, 50
2, 17040, Note_off_c, 2, 64, 0
2, 17040, Note_on_c, 2, 59, 50
2, 17280, Note_off_c, 2, 59, 0
2, 17280, Note_on_c, 2, 59, 50
2, 17520, Note_off_c, 2, 59, 0
2, 17520, Note_on_c, 2, 59, 50
2, 17760, Note_off_c, 2, 59, 0
2, 18240, Note_on_c, 2, 63, 50
2, 18480, Note_off_c, 2, 63, 0
2, 18480, Note_on_c, 2, 64, 50
2, 18720, Note_off_c, 2, 64, 0
2, 18720, Note_on_c, 2, 66, 50
2, 19680, Note_off_c, 2, 66, 0
2, 19920, Note_on_c, 2, 66, 50
2, 20160, Note_off_c, 2, 66, 0
2, 20160, Note_on_c, 2, 64, 50
2, 20400, Note_off_c, 2, 64, 0
2, 20400, Note_on_c, 2, 63, 50
2, 20640, Note_off_c, 2, 63, 0
2, 20640, Note_on_c, 2, 62, 50
2, 20880, Note_off_c, 2, 62, 0
2, 22080, Note_on_c, 2, 62, 50
2, 22320, Note_off_c, 2, 62, 0
2, 22320, Note_on_c, 2, 64, 50
2, 22560, Note_off_c, 2, 64, 0
2, 22560, Note_on_c, 2, 66, 50
2, 23520, Note_off_c, 2, 66, 0
2, 23760, Note_on_c, 2, 66, 50
2, 24000, Note_off_c, 2, 66, 0
2, 24000, Note_on_c, 2, 64, 50
2, 24240, Note_off_c, 2, 64, 0
2, 24240, Note_on_c, 2, 63, 50
2, 24480, Note_off_c, 2, 63, 0
2, 24480, Note_on_c, 2, 62, 50
2, 24720, Note_off_c, 2, 62, 0
2, 25920, Note_on_c, 2, 62, 50
2, 26160, Note_off_c, 2, 62, 0
2, 26160, Note_on_c, 2, 64, 50
2, 26400, Note_off_c, 2, 64, 0
2, 26400, Note_on_c, 2, 66, 50
2, 27360, Note_off_c, 2, 66, 0
2, 27600, Note_on_c, 2, 66, 50
2, 27840, Note_off_c, 2, 66, 0
2, 27840, Note_on_c, 2, 64, 50
2, 28080, Note_off_c, 2, 64, 0
2, 28080, Note_on_c, 2, 63, 50
2, 28320, Note_off_c, 2, 63, 0
2, 28320, Note_on_c, 2, 62, 50
2, 28560, Note_off_c, 2, 62, 0
2, 29760, Note_on_c, 2, 62, 50
2, 30000, Note_off_c, 2, 62, 0
2, 30000, Note_on_c, 2, 64, 50
2, 30240, Note_off_c, 2, 64, 0
2, 30240, Note_on_c, 2, 66, 50
2, 31200, Note_off_c, 2, 66, 0
2, 31440, Note_on_c, 2, 66, 50
2, 31680, Note_off_c, 2, 66, 0
2, 31680, Note_on_c, 2, 64, 50
2, 31920, Note_off_c, 2, 64, 0
2, 31920, Note_on_c, 2, 63, 50
2, 32160, Note_off_c, 2, 63, 0
2, 32160, Note_on_c, 2, 62, 50
2, 32400, Note_off_c, 2, 62, 0
2, 33840, Note_on_c, 2, 59, 50
2, 34080, Note_off_c, 2, 59, 0
2, 34080, Note_on_c, 2, 68, 50
2, 34800, Note_off_c, 2, 68, 0
2, 34800, Note_on_c, 2, 66, 50
2, 35520, Note_off_c, 2, 66, 0
2, 35760, Note_on_c, 2, 64, 50
2, 36000, Note_off_c, 2, 64, 0
2, 36000, Note_on_c, 2, 66, 50
2, 36720, Note_off_c, 2, 66, 0
2, 36720, Note_on_c, 2, 64, 50
2, 37440, Note_off_c, 2, 64, 0
2, 37440, Note_on_c, 2, 63, 50
2, 37680, Note_off_c, 2, 63, 0
2, 37680, Note_on_c, 2, 64, 50
2, 37920, Note_off_c, 2, 64, 0
2, 37920, Note_on_c, 2, 66, 50
2, 39840, Note_off_c, 2, 66, 0
2, 39840, Note_on_c, 2, 64, 50
2, 40080, Note_off_c, 2, 64, 0
2, 40080, Note_on_c, 2, 62, 50
2, 40320, Note_off_c, 2, 62, 0
2, 42000, Note_on_c, 2, 59, 50
2, 42120, Note_off_c, 2, 59, 0
2, 42120, Note_on_c, 2, 59, 50
2, 42360, Note_off_c, 2, 59, 0
2, 42360, Note_on_c, 2, 59, 50
2, 42600, Note_off_c, 2, 59, 0
2, 42600, Note_on_c, 2, 59, 50
2, 43080, Note_off_c, 2, 59, 0
2, 43320, Note_on_c, 2, 59, 50
2, 43560, Note_off_c, 2, 59, 0
2, 43560, Note_on_c, 2, 61, 50
2, 43800, Note_off_c, 2, 61, 0
2, 43800, Note_on_c, 2, 57, 50
2, 44280, Note_off_c, 2, 57, 0
2, 44280, Note_on_c, 2, 57, 50
2, 44520, Note_off_c, 2, 57, 0
2, 45600, Note_on_c, 2, 62, 50
2, 45720, Note_off_c, 2, 62, 0
2, 45840, Note_on_c, 2, 62, 50
2, 45960, Note_off_c, 2, 62, 0
2, 45960, Note_on_c, 2, 62, 50
2, 46080, Note_off_c, 2, 62, 0
2, 46080, Note_on_c, 2, 62, 50
2, 46200, Note_off_c, 2, 62, 0
2, 46320, Note_on_c, 2, 62, 50
2, 46440, Note_off_c, 2, 62, 0
2, 46440, Note_on_c, 2, 62, 50
2, 46800, Note_off_c, 2, 62, 0
2, 46800, Note_on_c, 2, 62, 50
2, 47160, Note_off_c, 2, 62, 0
2, 47400, Note_on_c, 2, 64, 50
2, 47640, Note_off_c, 2, 64, 0
2, 47640, Note_on_c, 2, 59, 50
2, 48120, Note_off_c, 2, 59, 0
2, 48120, Note_on_c, 2, 59, 50
2, 48360, Note_off_c, 2, 59, 0
2, 48840, Note_on_c, 2, 63, 50
2, 49080, Note_off_c, 2, 63, 0
2, 49080, Note_on_c, 2, 64, 50
2, 49320, Note_off_c, 2, 64, 0
2, 49320, Note_on_c, 2, 66, 50
2, 50280, Note_off_c, 2, 66, 0
2, 50520, Note_on_c, 2, 66, 50
2, 50760, Note_off_c, 2, 66, 0
2, 50760, Note_on_c, 2, 64, 50
2, 51000, Note_off_c, 2, 64, 0
2, 51000, Note_on_c, 2, 63, 50
2, 51240, Note_off_c, 2, 63, 0
2, 51240, Note_on_c, 2, 62, 50
2, 51480, Note_off_c, 2, 62, 0
2, 52680, Note_on_c, 2, 62, 50
2, 52920, Note_off_c, 2, 62, 0
2, 52920, Note_on_c, 2, 64, 50
2, 53160, Note_off_c, 2, 64, 0
2, 53160, Note_on_c, 2, 66, 50
2, 54120, Note_off_c, 2, 66, 0
2, 54360, Note_on_c, 2, 66, 50
2, 54600, Note_off_c, 2, 66, 0
2, 54600, Note_on_c, 2, 64, 50
2, 54840, Note_off_c, 2, 64, 0
2, 54840, Note_on_c, 2, 63, 50
2, 55080, Note_off_c, 2, 63, 0
2, 55080, Note_on_c, 2, 62, 50
2, 55320, Note_off_c, 2, 62, 0
2, 56520, Note_on_c, 2, 62, 50
2, 56760, Note_off_c, 2, 62, 0
2, 56760, Note_on_c, 2, 64, 50
2, 57000, Note_off_c, 2, 64, 0
2, 57000, Note_on_c, 2, 66, 50
2, 57960, Note_off_c, 2, 66, 0
2, 58200, Note_on_c, 2, 66, 50
2, 58440, Note_off_c, 2, 66, 0
2, 58440, Note_on_c, 2, 64, 50
2, 58680, Note_off_c, 2, 64, 0
2, 58680, Note_on_c, 2, 63, 50
2, 58920, Note_off_c, 2, 63, 0
2, 58920, Note_on_c, 2, 62, 50
2, 59160, Note_off_c, 2, 62, 0
2, 60360, Note_on_c, 2, 62, 50
2, 60600, Note_off_c, 2, 62, 0
2, 60600, Note_on_c, 2, 64, 50
2, 60840, Note_off_c, 2, 64, 0
2, 60840, Note_on_c, 2, 66, 50
2, 61800, Note_off_c, 2, 66, 0
2, 62040, Note_on_c, 2, 66, 50
2, 62280, Note_off_c, 2, 66, 0
2, 62280, Note_on_c, 2, 64, 50
2, 62520, Note_off_c, 2, 64, 0
2, 62520, Note_on_c, 2, 63, 50
2, 62760, Note_off_c, 2, 63, 0
2, 62760, Note_on_c, 2, 62, 50
2, 63000, Note_off_c, 2, 62, 0
2, 64440, Note_on_c, 2, 59, 50
2, 64680, Note_off_c, 2, 59, 0
2, 64680, Note_on_c, 2, 68, 50
2, 65400, Note_off_c, 2, 68, 0
2, 65400, Note_on_c, 2, 66, 50
2, 66120, Note_off_c, 2, 66, 0
2, 66360, Note_on_c, 2, 64, 50
2, 66600, Note_off_c, 2, 64, 0
2, 66600, Note_on_c, 2, 66, 50
2, 67320, Note_off_c, 2, 66, 0
2, 67320, Note_on_c, 2, 64, 50
2, 68040, Note_off_c, 2, 64, 0
2, 68040, Note_on_c, 2, 63, 50
2, 68280, Note_off_c, 2, 63, 0
2, 68280, Note_on_c, 2, 64, 50
2, 68520, Note_off_c, 2, 64, 0
2, 68520, Note_on_c, 2, 66, 50
2, 70440, Note_off_c, 2, 66, 0
2, 70440, Note_on_c, 2, 64, 50
2, 70680, Note_off_c, 2, 64, 0
2, 70680, Note_on_c, 2, 62, 50
2, 70920, Note_off_c, 2, 62, 0
2, 72600, Note_on_c, 2, 59, 50
2, 73080, Note_off_c, 2, 59, 0
2, 73080, Note_on_c, 2, 59, 50
2, 73200, Note_off_c, 2, 59, 0
2, 73200, Note_on_c, 2, 59, 50
2, 73320, Note_off_c, 2, 59, 0
2, 73320, Note_on_c, 2, 59, 50
2, 73800, Note_off_c, 2, 59, 0
2, 73800, Note_on_c, 2, 59, 50
2, 74040, Note_off_c, 2, 59, 0
2, 74040, Note_on_c, 2, 59, 50
2, 74280, Note_off_c, 2, 59, 0
2, 74280, Note_on_c, 2, 61, 50
2, 74520, Note_off_c, 2, 61, 0
2, 74520, Note_on_c, 2, 57, 50
2, 74760, Note_off_c, 2, 57, 0
2, 74760, Note_on_c, 2, 57, 50
2, 75000, Note_off_c, 2, 57, 0
2, 75000, Note_on_c, 2, 57, 50
2, 75240, Note_off_c, 2, 57, 0
2, 76440, Note_on_c, 2, 62, 50
2, 76680, Note_off_c, 2, 62, 0
2, 76680, Note_on_c, 2, 62, 50
2, 76920, Note_off_c, 2, 62, 0
2, 76920, Note_on_c, 2, 62, 50
2, 77160, Note_off_c, 2, 62, 0
2, 77160, Note_on_c, 2, 62, 50
2, 77640, Note_off_c, 2, 62, 0
2, 77880, Note_on_c, 2, 62, 50
2, 78000, Note_off_c, 2, 62, 0
2, 78000, Note_on_c, 2, 62, 50
2, 78120, Note_off_c, 2, 62, 0
2, 78120, Note_on_c, 2, 64, 50
2, 78360, Note_off_c, 2, 64, 0
2, 78360, Note_on_c, 2, 59, 50
2, 78600, Note_off_c, 2, 59, 0
2, 78600, Note_on_c, 2, 59, 50
2, 78840, Note_off_c, 2, 59, 0
2, 78840, Note_on_c, 2, 59, 50
2, 79080, Note_off_c, 2, 59, 0
2, 79560, Note_on_c, 2, 63, 50
2, 79800, Note_off_c, 2, 63, 0
2, 79800, Note_on_c, 2, 64, 50
2, 80040, Note_off_c, 2, 64, 0
2, 80040, Note_on_c, 2, 66, 50
2, 81000, Note_off_c, 2, 66, 0
2, 81240, Note_on_c, 2, 66, 50
2, 81480, Note_off_c, 2, 66, 0
2, 81480, Note_on_c, 2, 64, 50
2, 81720, Note_off_c, 2, 64, 0
2, 81720, Note_on_c, 2, 63, 50
2, 81960, Note_off_c, 2, 63, 0
2, 81960, Note_on_c, 2, 62, 50
2, 82200, Note_off_c, 2, 62, 0
2, 83400, Note_on_c, 2, 62, 50
2, 83640, Note_off_c, 2, 62, 0
2, 83640, Note_on_c, 2, 64, 50
2, 83880, Note_off_c, 2, 64, 0
2, 83880, Note_on_c, 2, 66, 50
2, 84840, Note_off_c, 2, 66, 0
2, 85080, Note_on_c, 2, 66, 50
2, 85320, Note_off_c, 2, 66, 0
2, 85320, Note_on_c, 2, 64, 50
2, 85560, Note_off_c, 2, 64, 0
2, 85560, Note_on_c, 2, 63, 50
2, 85800, Note_off_c, 2, 63, 0
2, 85800, Note_on_c, 2, 62, 50
2, 86040, Note_off_c, 2, 62, 0
2, 87240, Note_on_c, 2, 62, 50
2, 87480, Note_off_c, 2, 62, 0
2, 87480, Note_on_c, 2, 64, 50
2, 87720, Note_off_c, 2, 64, 0
2, 87720, Note_on_c, 2, 66, 50
2, 88680, Note_off_c, 2, 66, 0
2, 88920, Note_on_c, 2, 66, 50
2, 89160, Note_off_c, 2, 66, 0
2, 89160, Note_on_c, 2, 64, 50
2, 89400, Note_off_c, 2, 64, 0
2, 89400, Note_on_c, 2, 63, 50
2, 89640, Note_off_c, 2, 63, 0
2, 89640, Note_on_c, 2, 62, 50
2, 89880, Note_off_c, 2, 62, 0
2, 91080, Note_on_c, 2, 62, 50
2, 91320, Note_off_c, 2, 62, 0
2, 91320, Note_on_c, 2, 64, 50
2, 91560, Note_off_c, 2, 64, 0
2, 91560, Note_on_c, 2, 66, 50
2, 92520, Note_off_c, 2, 66, 0
2, 92760, Note_on_c, 2, 66, 50
2, 93000, Note_off_c, 2, 66, 0
2, 93000, Note_on_c, 2, 64, 50
2, 93240, Note_off_c, 2, 64, 0
2, 93240, Note_on_c, 2, 63, 50
2, 93480, Note_off_c, 2, 63, 0
2, 93480, Note_on_c, 2, 62, 50
2, 93720, Note_off_c, 2, 62, 0
2, 95160, Note_on_c, 2, 59, 50
2, 95400, Note_off_c, 2, 59, 0
2, 95400, Note_on_c, 2, 68, 50
2, 96120, Note_off_c, 2, 68, 0
2, 96120, Note_on_c, 2, 66, 50
2, 96840, Note_off_c, 2, 66, 0
2, 97080, Note_on_c, 2, 64, 50
2, 97320, Note_off_c, 2, 64, 0
2, 97320, Note_on_c, 2, 66, 50
2, 98040, Note_off_c, 2, 66, 0
2, 98040, Note_on_c, 2, 64, 50
2, 98760, Note_off_c, 2, 64, 0
2, 98760, Note_on_c, 2, 63, 50
2, 99000, Note_off_c, 2, 63, 0
2, 99000, Note_on_c, 2, 64, 50
2, 99240, Note_off_c, 2, 64, 0
2, 99240, Note_on_c, 2, 66, 50
2, 101160, Note_off_c, 2, 66, 0
2, 101160, Note_on_c, 2, 64, 50
2, 101400, Note_off_c, 2, 64, 0
2, 101400, Note_on_c, 2, 62, 50
2, 101640, Note_off_c, 2, 62, 0
2, 114120, Note_on_c, 2, 62, 50
2, 114360, Note_off_c, 2, 62, 0
2, 114360, Note_on_c, 2, 64, 50
2, 114600, Note_off_c, 2, 64, 0
2, 114600, Note_on_c, 2, 66, 50
2, 116520, Note_off_c, 2, 66, 0
2, 116520, Note_on_c, 2, 64, 50
2, 116760, Note_off_c, 2, 64, 0
2, 116760, Note_on_c, 2, 62, 50
2, 117000, Note_off_c, 2, 62, 0
2, 117960, Note_on_c, 2, 62, 50
2, 118200, Note_off_c, 2, 62, 0
2, 118200, Note_on_c, 2, 64, 50
2, 118440, Note_off_c, 2, 64, 0
2, 118440, Note_on_c, 2, 66, 50
2, 120360, Note_off_c, 2, 66, 0
2, 120360, Note_on_c, 2, 64, 50
2, 120600, Note_off_c, 2, 64, 0
2, 120600, Note_on_c, 2, 62, 50
2, 120840, Note_off_c, 2, 62, 0
2, 121800, Note_on_c, 2, 62, 50
2, 122040, Note_off_c, 2, 62, 0
2, 122040, Note_on_c, 2, 64, 50
2, 122280, Note_off_c, 2, 64, 0
2, 122280, Note_on_c, 2, 66, 50
2, 124200, Note_off_c, 2, 66, 0
2, 124200, Note_on_c, 2, 64, 50
2, 124440, Note_off_c, 2, 64, 0
2, 124440, Note_on_c, 2, 62, 50
2, 124680, Note_off_c, 2, 62, 0
2, 125640, Note_on_c, 2, 62, 50
2, 125880, Note_off_c, 2, 62, 0
2, 125880, Note_on_c, 2, 62, 50
2, 126120, Note_off_c, 2, 62, 0
2, 126120, Note_on_c, 2, 62, 50
2, 126840, Note_off_c, 2, 62, 0
2, 126840, Note_on_c, 2, 62, 50
2, 128040, Note_off_c, 2, 62, 0
2, 128040, Note_on_c, 2, 62, 50
2, 128760, Note_off_c, 2, 62, 0
2, 128760, Note_on_c, 2, 62, 50
2, 129960, Note_off_c, 2, 62, 0
2, 129960, Note_on_c, 2, 61, 50
2, 130200, Note_off_c, 2, 61, 0
2, 130200, Note_on_c, 2, 59, 50
2, 130440, Note_off_c, 2, 59, 0
2, 144840, Note_on_c, 2, 62, 50
2, 145080, Note_off_c, 2, 62, 0
2, 145080, Note_on_c, 2, 64, 50
2, 145320, Note_off_c, 2, 64, 0
2, 145320, Note_on_c, 2, 66, 50
2, 147240, Note_off_c, 2, 66, 0
2, 147240, Note_on_c, 2, 64, 50
2, 147480, Note_off_c, 2, 64, 0
2, 147480, Note_on_c, 2, 62, 50
2, 147720, Note_off_c, 2, 62, 0
2, 148680, Note_on_c, 2, 62, 50
2, 148920, Note_off_c, 2, 62, 0
2, 148920, Note_on_c, 2, 64, 50
2, 149160, Note_off_c, 2, 64, 0
2, 149160, Note_on_c, 2, 66, 50
2, 151080, Note_off_c, 2, 66, 0
2, 151080, Note_on_c, 2, 64, 50
2, 151320, Note_off_c, 2, 64, 0
2, 151320, Note_on_c, 2, 62, 50
2, 151560, Note_off_c, 2, 62, 0
2, 152520, Note_on_c, 2, 62, 50
2, 152760, Note_off_c, 2, 62, 0
2, 152760, Note_on_c, 2, 64, 50
2, 153000, Note_off_c, 2, 64, 0
2, 153000, Note_on_c, 2, 66, 50
2, 154920, Note_off_c, 2, 66, 0
2, 154920, Note_on_c, 2, 64, 50
2, 155160, Note_off_c, 2, 64, 0
2, 155160, Note_on_c, 2, 62, 50
2, 155400, Note_off_c, 2, 62, 0
2, 156360, Note_on_c, 2, 62, 50
2, 156600, Note_off_c, 2, 62, 0
2, 156600, Note_on_c, 2, 62, 50
2, 156840, Note_off_c, 2, 62, 0
2, 156840, Note_on_c, 2, 62, 50
2, 157560, Note_off_c, 2, 62, 0
2, 157560, Note_on_c, 2, 62, 50
2, 158760, Note_off_c, 2, 62, 0
2, 158760, Note_on_c, 2, 62, 50
2, 159480, Note_off_c, 2, 62, 0
2, 159480, Note_on_c, 2, 62, 50
2, 160680, Note_off_c, 2, 62, 0
2, 160680, Note_on_c, 2, 61, 50
2, 160920, Note_off_c, 2, 61, 0
2, 160920, Note_on_c, 2, 59, 50
2, 161160, Note_off_c, 2, 59, 0
2, 180360, Note_on_c, 2, 66, 50
2, 180600, Note_off_c, 2, 66, 0
2, 180600, Note_on_c, 2, 69, 50
2, 181320, Note_off_c, 2, 69, 0
2, 181320, Note_on_c, 2, 66, 50
2, 181560, Note_off_c, 2, 66, 0
2, 181560, Note_on_c, 2, 64, 50
2, 182040, Note_off_c, 2, 64, 0
2, 182040, Note_on_c, 2, 66, 50
2, 183000, Note_off_c, 2, 66, 0
2, 183000, Note_on_c, 2, 61, 50
2, 183720, Note_off_c, 2, 61, 0
2, 184200, Note_on_c, 2, 66, 50
2, 184440, Note_off_c, 2, 66, 0
2, 184440, Note_on_c, 2, 69, 50
2, 185160, Note_off_c, 2, 69, 0
2, 185160, Note_on_c, 2, 66, 50
2, 185400, Note_off_c, 2, 66, 0
2, 185400, Note_on_c, 2, 64, 50
2, 185880, Note_off_c, 2, 64, 0
2, 185880, Note_on_c, 2, 66, 50
2, 187080, Note_off_c, 2, 66, 0
2, 188040, Note_on_c, 2, 66, 50
2, 188280, Note_off_c, 2, 66, 0
2, 188280, Note_on_c, 2, 69, 50
2, 189000, Note_off_c, 2, 69, 0
2, 189000, Note_on_c, 2, 66, 50
2, 189240, Note_off_c, 2, 66, 0
2, 189240, Note_on_c, 2, 64, 50
2, 189720, Note_off_c, 2, 64, 0
2, 189720, Note_on_c, 2, 66, 50
2, 190680, Note_off_c, 2, 66, 0
2, 190680, Note_on_c, 2, 61, 50
2, 191400, Note_off_c, 2, 61, 0
2, 191880, Note_on_c, 2, 66, 50
2, 192120, Note_off_c, 2, 66, 0
2, 192120, Note_on_c, 2, 69, 50
2, 192840, Note_off_c, 2, 69, 0
2, 192840, Note_on_c, 2, 66, 50
2, 193080, Note_off_c, 2, 66, 0
2, 193080, Note_on_c, 2, 64, 50
2, 193560, Note_off_c, 2, 64, 0
2, 193560, Note_on_c, 2, 66, 50
2, 194760, Note_off_c, 2, 66, 0
2, 195720, Note_on_c, 2, 69, 50
2, 195960, Note_off_c, 2, 69, 0
2, 195960, Note_on_c, 2, 69, 50
2, 196920, Note_off_c, 2, 69, 0
2, 196920, Note_on_c, 2, 69, 50
2, 197160, Note_off_c, 2, 69, 0
2, 197160, Note_on_c, 2, 68, 50
2, 197400, Note_off_c, 2, 68, 0
2, 197400, Note_on_c, 2, 67, 50
2, 198360, Note_off_c, 2, 67, 0
2, 198360, Note_on_c, 2, 67, 50
2, 199080, Note_off_c, 2, 67, 0
2, 199560, Note_on_c, 2, 66, 50
2, 199800, Note_off_c, 2, 66, 0
2, 199800, Note_on_c, 2, 66, 50
2, 200280, Note_off_c, 2, 66, 0
2, 200280, Note_on_c, 2, 66, 50
2, 200760, Note_off_c, 2, 66, 0
2, 200760, Note_on_c, 2, 62, 50
2, 201240, Note_off_c, 2, 62, 0
2, 201240, Note_on_c, 2, 66, 50
2, 201480, Note_off_c, 2, 66, 0
2, 201480, Note_on_c, 2, 67, 50
2, 201960, Note_off_c, 2, 67, 0
2, 201960, Note_on_c, 2, 67, 50
2, 202200, Note_off_c, 2, 67, 0
2, 202200, Note_on_c, 2, 67, 50
2, 202920, Note_off_c, 2, 67, 0
2, 203400, Note_on_c, 2, 66, 50
2, 203640, Note_off_c, 2, 66, 0
2, 203640, Note_on_c, 2, 69, 50
2, 204360, Note_off_c, 2, 69, 0
2, 204360, Note_on_c, 2, 66, 50
2, 204600, Note_off_c, 2, 66, 0
2, 204600, Note_on_c, 2, 64, 50
2, 205080, Note_off_c, 2, 64, 0
2, 205080, Note_on_c, 2, 66, 50
2, 206040, Note_off_c, 2, 66, 0
2, 206040, Note_on_c, 2, 61, 50
2, 206760, Note_off_c, 2, 61, 0
2, 207240, Note_on_c, 2, 66, 50
2, 207480, Note_off_c, 2, 66, 0
2, 207480, Note_on_c, 2, 69, 50
2, 208200, Note_off_c, 2, 69, 0
2, 208200, Note_on_c, 2, 66, 50
2, 208440, Note_off_c, 2, 66, 0
2, 208440, Note_on_c, 2, 64, 50
2, 208920, Note_off_c, 2, 64, 0
2, 208920, Note_on_c, 2, 66, 50
2, 210600, Note_off_c, 2, 66, 0
2, 213000, Note_on_c, 2, 66, 50
2, 213240, Note_off_c, 2, 66, 0
2, 213240, Note_on_c, 2, 69, 50
2, 213960, Note_off_c, 2, 69, 0
2, 213960, Note_on_c, 2, 66, 50
2, 214200, Note_off_c, 2, 66, 0
2, 214200, Note_on_c, 2, 64, 50
2, 214680, Note_off_c, 2, 64, 0
2, 214680, Note_on_c, 2, 66, 50
2, 215640, Note_off_c, 2, 66, 0
2, 215640, Note_on_c, 2, 61, 50
2, 216360, Note_off_c, 2, 61, 0
2, 216840, Note_on_c, 2, 66, 50
2, 217080, Note_off_c, 2, 66, 0
2, 217080, Note_on_c, 2, 69, 50
2, 217800, Note_off_c, 2, 69, 0
2, 217800, Note_on_c, 2, 66, 50
2, 218040, Note_off_c, 2, 66, 0
2, 218040, Note_on_c, 2, 64, 50
2, 218520, Note_off_c, 2, 64, 0
2, 218520, Note_on_c, 2, 66, 50
2, 219720, Note_off_c, 2, 66, 0
2, 220680, Note_on_c, 2, 66, 50
2, 220920, Note_off_c, 2, 66, 0
2, 220920, Note_on_c, 2, 69, 50
2, 221640, Note_off_c, 2, 69, 0
2, 221640, Note_on_c, 2, 66, 50
2, 221880, Note_off_c, 2, 66, 0
2, 221880, Note_on_c, 2, 64, 50
2, 222360, Note_off_c, 2, 64, 0
2, 222360, Note_on_c, 2, 66, 50
2, 223320, Note_off_c, 2, 66, 0
2, 223320, Note_on_c, 2, 61, 50
2, 224040, Note_off_c, 2, 61, 0
2, 224520, Note_on_c, 2, 66, 50
2, 224760, Note_off_c, 2, 66, 0
2, 224760, Note_on_c, 2, 69, 50
2, 225480, Note_off_c, 2, 69, 0
2, 225480, Note_on_c, 2, 66, 50
2, 225720, Note_off_c, 2, 66, 0
2, 225720, Note_on_c, 2, 64, 50
2, 226200, Note_off_c, 2, 64, 0
2, 226200, Note_on_c, 2, 66, 50
2, 227400, Note_off_c, 2, 66, 0
2, 228360, Note_on_c, 2, 69, 50
2, 228600, Note_off_c, 2, 69, 0
2, 228600, Note_on_c, 2, 69, 50
2, 229560, Note_off_c, 2, 69, 0
2, 229560, Note_on_c, 2, 69, 50
2, 229800, Note_off_c, 2, 69, 0
2, 229800, Note_on_c, 2, 68, 50
2, 230040, Note_off_c, 2, 68, 0
2, 230040, Note_on_c, 2, 67, 50
2, 231000, Note_off_c, 2, 67, 0
2, 231000, Note_on_c, 2, 67, 50
2, 231720, Note_off_c, 2, 67, 0
2, 232440, Note_on_c, 2, 66, 50
2, 232680, Note_off_c, 2, 66, 0
2, 232680, Note_on_c, 2, 66, 50
2, 232920, Note_off_c, 2, 66, 0
2, 232920, Note_on_c, 2, 66, 50
2, 233640, Note_off_c, 2, 66, 0
2, 233640, Note_on_c, 2, 62, 50
2, 233880, Note_off_c, 2, 62, 0
2, 233880, Note_on_c, 2, 66, 50
2, 234120, Note_off_c, 2, 66, 0
2, 234120, Note_on_c, 2, 67, 50
2, 234360, Note_off_c, 2, 67, 0
2, 234360, Note_on_c, 2, 67, 50
2, 234840, Note_off_c, 2, 67, 0
2, 234840, Note_on_c, 2, 67, 50
2, 235560, Note_off_c, 2, 67, 0
2, 236040, Note_on_c, 2, 66, 50
2, 236280, Note_off_c, 2, 66, 0
2, 236280, Note_on_c, 2, 69, 50
2, 237000, Note_off_c, 2, 69, 0
2, 237000, Note_on_c, 2, 66, 50
2, 237240, Note_off_c, 2, 66, 0
2, 237240, Note_on_c, 2, 64, 50
2, 237720, Note_off_c, 2, 64, 0
2, 237720, Note_on_c, 2, 66, 50
2, 238680, Note_off_c, 2, 66, 0
2, 238680, Note_on_c, 2, 61, 50
2, 239400, Note_off_c, 2, 61, 0
2, 239880, Note_on_c, 2, 61, 50
2, 240120, Note_off_c, 2, 61, 0
2, 240120, Note_on_c, 2, 66, 50
2, 240840, Note_off_c, 2, 66, 0
2, 240840, Note_on_c, 2, 61, 50
2, 241080, Note_off_c, 2, 61, 0
2, 241080, Note_on_c, 2, 59, 50
2, 241320, Note_off_c, 2, 59, 0
2, 241320, Note_on_c, 2, 61, 50
2, 241560, Note_off_c, 2, 61, 0
2, 241560, Note_on_c, 2, 61, 50
2, 243240, Note_off_c, 2, 61, 0
2, 243720, Note_on_c, 2, 66, 50
2, 243960, Note_off_c, 2, 66, 0
2, 243960, Note_on_c, 2, 66, 50
2, 244440, Note_off_c, 2, 66, 0
2, 244440, Note_on_c, 2, 66, 50
2, 244920, Note_off_c, 2, 66, 0
2, 244920, Note_on_c, 2, 70, 50
2, 245400, Note_off_c, 2, 70, 0
2, 245400, Note_on_c, 2, 71, 50
2, 245880, Note_off_c, 2, 71, 0
2, 245880, Note_on_c, 2, 69, 50
2, 246360, Note_off_c, 2, 69, 0
2, 246360, Note_on_c, 2, 66, 50
2, 247080, Note_off_c, 2, 66, 0
2, 247560, Note_on_c, 2, 72, 50
2, 247800, Note_off_c, 2, 72, 0
2, 247800, Note_on_c, 2, 72, 50
2, 248280, Note_off_c, 2, 72, 0
2, 248280, Note_on_c, 2, 72, 50
2, 248760, Note_off_c, 2, 72, 0
2, 248760, Note_on_c, 2, 68, 50
2, 249240, Note_off_c, 2, 68, 0
2, 249240, Note_on_c, 2, 71, 50
2, 249960, Note_off_c, 2, 71, 0
2, 249960, Note_on_c, 2, 71, 50
2, 250200, Note_off_c, 2, 71, 0
2, 250200, Note_on_c, 2, 69, 50
2, 250440, Note_off_c, 2, 69, 0
2, 250440, Note_on_c, 2, 71, 50
2, 250680, Note_off_c, 2, 71, 0
2, 250680, Note_on_c, 2, 69, 50
2, 251160, Note_off_c, 2, 69, 0
2, 251160, Note_on_c, 2, 66, 50
2, 251880, Note_off_c, 2, 66, 0
2, 252120, Note_on_c, 2, 61, 50
2, 252360, Note_off_c, 2, 61, 0
2, 252360, Note_on_c, 2, 66, 50
2, 252600, Note_off_c, 2, 66, 0
2, 252600, Note_on_c, 2, 70, 50
2, 253080, Note_off_c, 2, 70, 0
2, 253080, Note_on_c, 2, 71, 50
2, 253560, Note_off_c, 2, 71, 0
2, 253560, Note_on_c, 2, 69, 50
2, 254040, Note_off_c, 2, 69, 0
2, 254040, Note_on_c, 2, 66, 50
2, 254760, Note_off_c, 2, 66, 0
2, 255240, Note_on_c, 2, 72, 50
2, 255480, Note_off_c, 2, 72, 0
2, 255480, Note_on_c, 2, 72, 50
2, 255960, Note_off_c, 2, 72, 0
2, 255960, Note_on_c, 2, 72, 50
2, 256440, Note_off_c, 2, 72, 0
2, 256440, Note_on_c, 2, 68, 50
2, 256920, Note_off_c, 2, 68, 0
2, 256920, Note_on_c, 2, 71, 50
2, 257640, Note_off_c, 2, 71, 0
2, 257640, Note_on_c, 2, 71, 50
2, 258120, Note_off_c, 2, 71, 0
2, 258120, Note_on_c, 2, 71, 50
2, 258360, Note_off_c, 2, 71, 0
2, 258360, Note_on_c, 2, 69, 50
2, 258840, Note_off_c, 2, 69, 0
2, 258840, Note_on_c, 2, 66, 50
2, 259080, Note_off_c, 2, 66, 0
2, 259560, Note_on_c, 2, 69, 50
2, 260040, Note_off_c, 2, 69, 0
2, 260040, Note_on_c, 2, 66, 50
2, 260280, Note_off_c, 2, 66, 0
2, 260280, Note_on_c, 2, 64, 50
2, 260760, Note_off_c, 2, 64, 0
2, 260760, Note_on_c, 2, 66, 50
2, 261720, Note_off_c, 2, 66, 0
2, 261720, Note_on_c, 2, 61, 50
2, 262440, Note_off_c, 2, 61, 0
2, 262920, Note_on_c, 2, 66, 50
2, 263160, Note_off_c, 2, 66, 0
2, 263160, Note_on_c, 2, 69, 50
2, 263880, Note_off_c, 2, 69, 0
2, 263880, Note_on_c, 2, 66, 50
2, 264120, Note_off_c, 2, 66, 0
2, 264120, Note_on_c, 2, 64, 50
2, 264600, Note_off_c, 2, 64, 0
2, 264600, Note_on_c, 2, 66, 50
2, 265800, Note_off_c, 2, 66, 0
2, 266760, Note_on_c, 2, 66, 50
2, 267000, Note_off_c, 2, 66, 0
2, 267000, Note_on_c, 2, 69, 50
2, 267720, Note_off_c, 2, 69, 0
2, 267720, Note_on_c, 2, 66, 50
2, 267960, Note_off_c, 2, 66, 0
2, 267960, Note_on_c, 2, 64, 50
2, 268440, Note_off_c, 2, 64, 0
2, 268440, Note_on_c, 2, 66, 50
2, 269400, Note_off_c, 2, 66, 0
2, 269400, Note_on_c, 2, 61, 50
2, 270120, Note_off_c, 2, 61, 0
2, 270600, Note_on_c, 2, 66, 50
2, 270840, Note_off_c, 2, 66, 0
2, 270840, Note_on_c, 2, 69, 50
2, 271560, Note_off_c, 2, 69, 0
2, 271560, Note_on_c, 2, 66, 50
2, 271800, Note_off_c, 2, 66, 0
2, 271800, Note_on_c, 2, 64, 50
2, 272280, Note_off_c, 2, 64, 0
2, 272280, Note_on_c, 2, 66, 50
2, 273480, Note_off_c, 2, 66, 0
2, 274440, Note_on_c, 2, 69, 50
2, 274680, Note_off_c, 2, 69, 0
2, 274680, Note_on_c, 2, 69, 50
2, 275400, Note_off_c, 2, 69, 0
2, 275400, Note_on_c, 2, 69, 50
2, 275880, Note_off_c, 2, 69, 0
2, 275880, Note_on_c, 2, 68, 50
2, 276120, Note_off_c, 2, 68, 0
2, 276120, Note_on_c, 2, 67, 50
2, 277080, Note_off_c, 2, 67, 0
2, 277080, Note_on_c, 2, 67, 50
2, 277800, Note_off_c, 2, 67, 0
2, 278280, Note_on_c, 2, 66, 50
2, 278520, Note_off_c, 2, 66, 0
2, 278520, Note_on_c, 2, 66, 50
2, 279000, Note_off_c, 2, 66, 0
2, 279000, Note_on_c, 2, 66, 50
2, 279720, Note_off_c, 2, 66, 0
2, 279720, Note_on_c, 2, 62, 50
2, 279960, Note_off_c, 2, 62, 0
2, 279960, Note_on_c, 2, 66, 50
2, 280200, Note_off_c, 2, 66, 0
2, 280200, Note_on_c, 2, 67, 50
2, 280440, Note_off_c, 2, 67, 0
2, 280440, Note_on_c, 2, 67, 50
2, 280920, Note_off_c, 2, 67, 0
2, 280920, Note_on_c, 2, 67, 50
2, 281640, Note_off_c, 2, 67, 0
2, 282120, Note_on_c, 2, 66, 50
2, 282360, Note_off_c, 2, 66, 0
2, 282360, Note_on_c, 2, 69, 50
2, 283080, Note_off_c, 2, 69, 0
2, 283080, Note_on_c, 2, 66, 50
2, 283320, Note_off_c, 2, 66, 0
2, 283320, Note_on_c, 2, 64, 50
2, 283800, Note_off_c, 2, 64, 0
2, 283800, Note_on_c, 2, 66, 50
2, 284760, Note_off_c, 2, 66, 0
2, 284760, Note_on_c, 2, 61, 50
2, 285480, Note_off_c, 2, 61, 0
2, 285960, Note_on_c, 2, 61, 50
2, 286200, Note_off_c, 2, 61, 0
2, 286200, Note_on_c, 2, 66, 50
2, 286920, Note_off_c, 2, 66, 0
2, 286920, Note_on_c, 2, 61, 50
2, 287160, Note_off_c, 2, 61, 0
2, 287160, Note_on_c, 2, 59, 50
2, 287400, Note_off_c, 2, 59, 0
2, 287400, Note_on_c, 2, 61, 50
2, 287640, Note_off_c, 2, 61, 0
2, 287640, Note_on_c, 2, 61, 50
2, 289320, Note_off_c, 2, 61, 0
2, 289800, Note_on_c, 2, 66, 50
2, 290040, Note_off_c, 2, 66, 0
2, 290040, Note_on_c, 2, 66, 50
2, 290520, Note_off_c, 2, 66, 0
2, 290520, Note_on_c, 2, 66, 50
2, 291000, Note_off_c, 2, 66, 0
2, 291000, Note_on_c, 2, 70, 50
2, 291480, Note_off_c, 2, 70, 0
2, 291480, Note_on_c, 2, 71, 50
2, 291960, Note_off_c, 2, 71, 0
2, 291960, Note_on_c, 2, 69, 50
2, 292440, Note_off_c, 2, 69, 0
2, 292440, Note_on_c, 2, 66, 50
2, 293160, Note_off_c, 2, 66, 0
2, 293640, Note_on_c, 2, 72, 50
2, 293880, Note_off_c, 2, 72, 0
2, 293880, Note_on_c, 2, 72, 50
2, 294360, Note_off_c, 2, 72, 0
2, 294360, Note_on_c, 2, 72, 50
2, 294840, Note_off_c, 2, 72, 0
2, 294840, Note_on_c, 2, 68, 50
2, 295320, Note_off_c, 2, 68, 0
2, 295320, Note_on_c, 2, 71, 50
2, 296040, Note_off_c, 2, 71, 0
2, 296040, Note_on_c, 2, 71, 50
2, 296280, Note_off_c, 2, 71, 0
2, 296280, Note_on_c, 2, 69, 50
2, 296520, Note_off_c, 2, 69, 0
2, 296520, Note_on_c, 2, 71, 50
2, 296760, Note_off_c, 2, 71, 0
2, 296760, Note_on_c, 2, 69, 50
2, 297240, Note_off_c, 2, 69, 0
2, 297240, Note_on_c, 2, 66, 50
2, 297960, Note_off_c, 2, 66, 0
2, 298200, Note_on_c, 2, 61, 50
2, 298440, Note_off_c, 2, 61, 0
2, 298440, Note_on_c, 2, 66, 50
2, 298680, Note_off_c, 2, 66, 0
2, 298680, Note_on_c, 2, 70, 50
2, 299160, Note_off_c, 2, 70, 0
2, 299160, Note_on_c, 2, 71, 50
2, 299640, Note_off_c, 2, 71, 0
2, 299640, Note_on_c, 2, 69, 50
2, 300120, Note_off_c, 2, 69, 0
2, 300120, Note_on_c, 2, 66, 50
2, 300840, Note_off_c, 2, 66, 0
2, 301320, Note_on_c, 2, 72, 50
2, 301560, Note_off_c, 2, 72, 0
2, 301560, Note_on_c, 2, 72, 50
2, 302040, Note_off_c, 2, 72, 0
2, 302040, Note_on_c, 2, 72, 50
2, 302520, Note_off_c, 2, 72, 0
2, 302520, Note_on_c, 2, 68, 50
2, 303000, Note_off_c, 2, 68, 0
2, 303000, Note_on_c, 2, 71, 50
2, 303720, Note_off_c, 2, 71, 0
2, 303720, Note_on_c, 2, 71, 50
2, 304200, Note_off_c, 2, 71, 0
2, 304200, Note_on_c, 2, 71, 50
2, 304440, Note_off_c, 2, 71, 0
2, 304440, Note_on_c, 2, 69, 50
2, 304920, Note_off_c, 2, 69, 0
2, 304920, Note_on_c, 2, 66, 50
2, 305160, Note_off_c, 2, 66, 0
2, 305640, Note_on_c, 2, 69, 50
2, 306120, Note_off_c, 2, 69, 0
2, 306120, Note_on_c, 2, 66, 50
2, 306360, Note_off_c, 2, 66, 0
2, 306360, Note_on_c, 2, 64, 50
2, 306840, Note_off_c, 2, 64, 0
2, 306840, Note_on_c, 2, 66, 50
2, 307800, Note_off_c, 2, 66, 0
2, 307800, Note_on_c, 2, 61, 50
2, 308520, Note_off_c, 2, 61, 0
2, 309000, Note_on_c, 2, 66, 50
2, 309240, Note_off_c, 2, 66, 0
2, 309240, Note_on_c, 2, 69, 50
2, 309960, Note_off_c, 2, 69, 0
2, 309960, Note_on_c, 2, 66, 50
2, 310200, Note_off_c, 2, 66, 0
2, 310200, Note_on_c, 2, 64, 50
2, 310680, Note_off_c, 2, 64, 0
2, 310680, Note_on_c, 2, 66, 50
2, 311880, Note_off_c, 2, 66, 0
2, 312840, Note_on_c, 2, 66, 50
2, 313080, Note_off_c, 2, 66, 0
2, 313080, Note_on_c, 2, 69, 50
2, 313800, Note_off_c, 2, 69, 0
2, 313800, Note_on_c, 2, 66, 50
2, 314040, Note_off_c, 2, 66, 0
2, 314040, Note_on_c, 2, 64, 50
2, 314520, Note_off_c, 2, 64, 0
2, 314520, Note_on_c, 2, 66, 50
2, 315480, Note_off_c, 2, 66, 0
2, 315480, Note_on_c, 2, 61, 50
2, 316200, Note_off_c, 2, 61, 0
2, 316680, Note_on_c, 2, 66, 50
2, 316920, Note_off_c, 2, 66, 0
2, 316920, Note_on_c, 2, 69, 50
2, 317640, Note_off_c, 2, 69, 0
2, 317640, Note_on_c, 2, 66, 50
2, 317880, Note_off_c, 2, 66, 0
2, 317880, Note_on_c, 2, 64, 50
2, 318360, Note_off_c, 2, 64, 0
2, 318360, Note_on_c, 2, 66, 50
2, 319560, Note_off_c, 2, 66, 0
2, 320520, Note_on_c, 2, 69, 50
2, 320760, Note_off_c, 2, 69, 0
2, 320760, Note_on_c, 2, 69, 50
2, 321480, Note_off_c, 2, 69, 0
2, 321480, Note_on_c, 2, 69, 50
2, 321960, Note_off_c, 2, 69, 0
2, 321960, Note_on_c, 2, 68, 50
2, 322200, Note_off_c, 2, 68, 0
2, 322200, Note_on_c, 2, 67, 50
2, 323160, Note_off_c, 2, 67, 0
2, 323160, Note_on_c, 2, 67, 50
2, 323880, Note_off_c, 2, 67, 0
2, 324360, Note_on_c, 2, 66, 50
2, 324600, Note_off_c, 2, 66, 0
2, 324600, Note_on_c, 2, 66, 50
2, 325080, Note_off_c, 2, 66, 0
2, 325080, Note_on_c, 2, 66, 50
2, 325800, Note_off_c, 2, 66, 0
2, 325800, Note_on_c, 2, 62, 50
2, 326040, Note_off_c, 2, 62, 0
2, 326040, Note_on_c, 2, 66, 50
2, 326280, Note_off_c, 2, 66, 0
2, 326280, Note_on_c, 2, 67, 50
2, 326520, Note_off_c, 2, 67, 0
2, 326520, Note_on_c, 2, 67, 50
2, 327000, Note_off_c, 2, 67, 0
2, 327000, Note_on_c, 2, 67, 50
2, 327720, Note_off_c, 2, 67, 0
2, 328200, Note_on_c, 2, 66, 50
2, 328440, Note_off_c, 2, 66, 0
2, 328440, Note_on_c, 2, 69, 50
2, 329160, Note_off_c, 2, 69, 0
2, 329160, Note_on_c, 2, 66, 50
2, 329400, Note_off_c, 2, 66, 0
2, 329400, Note_on_c, 2, 64, 50
2, 329880, Note_off_c, 2, 64, 0
2, 329880, Note_on_c, 2, 66, 50
2, 330840, Note_off_c, 2, 66, 0
2, 330840, Note_on_c, 2, 61, 50
2, 331560, Note_off_c, 2, 61, 0
2, 332040, Note_on_c, 2, 61, 50
2, 332280, Note_off_c, 2, 61, 0
2, 332280, Note_on_c, 2, 66, 50
2, 333000, Note_off_c, 2, 66, 0
2, 333000, Note_on_c, 2, 61, 50
2, 333240, Note_off_c, 2, 61, 0
2, 333240, Note_on_c, 2, 59, 50
2, 333480, Note_off_c, 2, 59, 0
2, 333480, Note_on_c, 2, 61, 50
2, 333720, Note_off_c, 2, 61, 0
2, 333720, Note_on_c, 2, 61, 50
2, 335400, Note_off_c, 2, 61, 0
2, 367800, Note_on_c, 2, 64, 50
2, 368040, Note_off_c, 2, 64, 0
2, 368160, Note_on_c, 2, 61, 50
2, 368520, Note_off_c, 2, 61, 0
2, 368520, Note_on_c, 2, 58, 50
2, 369360, Note_off_c, 2, 58, 0
2, 369480, Note_on_c, 2, 59, 50
2, 369840, Note_off_c, 2, 59, 0
2, 369840, Note_on_c, 2, 62, 50
2, 370200, Note_off_c, 2, 62, 0
2, 370200, Note_on_c, 2, 59, 50
2, 370440, Note_off_c, 2, 59, 0
2, 370440, Note_on_c, 2, 52, 50
2, 370800, Note_off_c, 2, 52, 0
2, 370800, Note_on_c, 2, 54, 50
2, 371160, Note_off_c, 2, 54, 0
2, 371160, Note_on_c, 2, 56, 50
2, 371400, Note_off_c, 2, 56, 0
2, 371400, Note_on_c, 2, 57, 50
2, 371520, Note_off_c, 2, 57, 0
2, 371640, Note_on_c, 2, 64, 50
2, 371760, Note_off_c, 2, 64, 0
2, 372000, Note_on_c, 2, 61, 50
2, 372120, Note_off_c, 2, 61, 0
2, 372360, Note_on_c, 2, 58, 50
2, 373200, Note_off_c, 2, 58, 0
2, 373560, Note_on_c, 2, 59, 50
2, 373680, Note_off_c, 2, 59, 0
2, 373680, Note_on_c, 2, 62, 50
2, 373920, Note_off_c, 2, 62, 0
2, 373920, Note_on_c, 2, 59, 50
2, 374040, Note_off_c, 2, 59, 0
2, 374040, Note_on_c, 2, 62, 50
2, 374280, Note_off_c, 2, 62, 0
2, 374280, Note_on_c, 2, 52, 50
2, 375120, Note_off_c, 2, 52, 0
2, 375480, Note_on_c, 2, 64, 50
2, 375960, Note_off_c, 2, 64, 0
2, 375960, Note_on_c, 2, 61, 50
2, 376320, Note_off_c, 2, 61, 0
2, 376320, Note_on_c, 2, 57, 50
2, 377280, Note_off_c, 2, 57, 0
2, 377520, Note_on_c, 2, 64, 50
2, 377880, Note_off_c, 2, 64, 0
2, 377880, Note_on_c, 2, 61, 50
2, 378240, Note_off_c, 2, 61, 0
2, 378240, Note_on_c, 2, 58, 50
2, 378960, Note_off_c, 2, 58, 0
2, 379200, Note_on_c, 2, 59, 50
2, 380160, Note_off_c, 2, 59, 0
2, 381000, Note_on_c, 2, 62, 50
2, 382200, Note_off_c, 2, 62, 0
2, 382440, Note_on_c, 2, 62, 50
2, 382800, Note_off_c, 2, 62, 0
2, 382920, Note_on_c, 2, 57, 50
2, 383400, Note_off_c, 2, 57, 0
2, 383400, Note_on_c, 2, 61, 50
2, 383640, Note_off_c, 2, 61, 0
2, 383640, Note_on_c, 2, 57, 50
2, 383880, Note_off_c, 2, 57, 0
2, 383880, Note_on_c, 2, 56, 50
2, 384240, Note_off_c, 2, 56, 0
2, 384360, Note_on_c, 2, 55, 50
2, 384600, Note_off_c, 2, 55, 0
2, 384840, Note_on_c, 2, 54, 50
2, 385560, Note_off_c, 2, 54, 0
2, 385800, Note_on_c, 2, 52, 50
2, 386160, Note_off_c, 2, 52, 0
2, 386160, Note_on_c, 2, 54, 50
2, 386520, Note_off_c, 2, 54, 0
2, 386520, Note_on_c, 2, 56, 50
2, 386760, Note_off_c, 2, 56, 0
2, 386760, Note_on_c, 2, 57, 50
2, 387960, Note_off_c, 2, 57, 0
2, 388440, Note_on_c, 2, 57, 50
2, 388680, Note_off_c, 2, 57, 0
2, 388680, Note_on_c, 2, 59, 50
2, 389040, Note_off_c, 2, 59, 0
2, 389040, Note_on_c, 2, 62, 50
2, 389400, Note_off_c, 2, 62, 0
2, 389400, Note_on_c, 2, 59, 50
2, 389640, Note_off_c, 2, 59, 0
2, 389640, Note_on_c, 2, 52, 50
2, 390000, Note_off_c, 2, 52, 0
2, 390000, Note_on_c, 2, 54, 50
2, 390360, Note_off_c, 2, 54, 0
2, 390360, Note_on_c, 2, 56, 50
2, 390480, Note_off_c, 2, 56, 0
2, 390840, Note_on_c, 2, 64, 50
2, 391320, Note_off_c, 2, 64, 0
2, 391320, Note_on_c, 2, 61, 50
2, 391680, Note_off_c, 2, 61, 0
2, 391680, Note_on_c, 2, 57, 50
2, 392640, Note_off_c, 2, 57, 0
2, 392880, Note_on_c, 2, 64, 50
2, 393240, Note_off_c, 2, 64, 0
2, 393240, Note_on_c, 2, 61, 50
2, 393600, Note_off_c, 2, 61, 0
2, 393600, Note_on_c, 2, 58, 50
2, 394320, Note_off_c, 2, 58, 0
2, 394560, Note_on_c, 2, 59, 50
2, 395520, Note_off_c, 2, 59, 0
2, 396360, Note_on_c, 2, 62, 50
2, 397560, Note_off_c, 2, 62, 0
2, 397800, Note_on_c, 2, 62, 50
2, 398160, Note_off_c, 2, 62, 0
2, 398280, Note_on_c, 2, 57, 50
2, 398760, Note_off_c, 2, 57, 0
2, 398760, Note_on_c, 2, 61, 50
2, 399000, Note_off_c, 2, 61, 0
2, 399000, Note_on_c, 2, 57, 50
2, 399240, Note_off_c, 2, 57, 0
2, 399240, Note_on_c, 2, 56, 50
2, 399600, Note_off_c, 2, 56, 0
2, 399720, Note_on_c, 2, 55, 50
2, 399960, Note_off_c, 2, 55, 0
2, 400200, Note_on_c, 2, 54, 50
2, 400920, Note_off_c, 2, 54, 0
2, 401160, Note_on_c, 2, 52, 50
2, 401520, Note_off_c, 2, 52, 0
2, 401520, Note_on_c, 2, 54, 50
2, 401880, Note_off_c, 2, 54, 0
2, 401880, Note_on_c, 2, 56, 50
2, 402120, Note_off_c, 2, 56, 0
2, 402120, Note_on_c, 2, 57, 50
2, 403320, Note_off_c, 2, 57, 0
2, 403800, Note_on_c, 2, 57, 50
2, 404040, Note_off_c, 2, 57, 0
2, 404040, Note_on_c, 2, 57, 50
2, 404280, Note_off_c, 2, 57, 0
2, 404520, Note_on_c, 2, 57, 50
2, 404640, Note_off_c, 2, 57, 0
2, 404760, Note_on_c, 2, 57, 50
2, 405000, Note_off_c, 2, 57, 0
2, 405480, Note_on_c, 2, 57, 50
2, 405600, Note_off_c, 2, 57, 0
2, 405960, Note_on_c, 2, 62, 50
2, 406320, Note_off_c, 2, 62, 0
2, 406440, Note_on_c, 2, 66, 50
2, 406680, Note_off_c, 2, 66, 0
2, 406680, Note_on_c, 2, 74, 50
2, 407040, Note_off_c, 2, 74, 0
2, 407160, Note_on_c, 2, 69, 50
2, 407520, Note_off_c, 2, 69, 0
2, 407640, Note_on_c, 2, 66, 50
2, 407880, Note_off_c, 2, 66, 0
2, 407880, Note_on_c, 2, 62, 50
2, 408600, Note_off_c, 2, 62, 0
2, 408600, Note_on_c, 2, 74, 50
2, 408960, Note_off_c, 2, 74, 0
2, 409080, Note_on_c, 2, 69, 50
2, 409320, Note_off_c, 2, 69, 0
2, 409560, Note_on_c, 2, 65, 50
2, 409680, Note_off_c, 2, 65, 0
2, 409800, Note_on_c, 2, 57, 50
2, 410400, Note_off_c, 2, 57, 0
2, 410520, Note_on_c, 2, 69, 50
2, 410880, Note_off_c, 2, 69, 0
2, 411000, Note_on_c, 2, 64, 50
2, 411240, Note_off_c, 2, 64, 0
2, 411480, Note_on_c, 2, 61, 50
2, 411600, Note_off_c, 2, 61, 0
2, 411720, Note_on_c, 2, 58, 50
2, 412440, Note_off_c, 2, 58, 0
2, 412440, Note_on_c, 2, 66, 50
2, 412680, Note_off_c, 2, 66, 0
2, 412920, Note_on_c, 2, 70, 50
2, 413160, Note_off_c, 2, 70, 0
2, 413160, Note_on_c, 2, 66, 50
2, 413400, Note_off_c, 2, 66, 0
2, 413400, Note_on_c, 2, 61, 50
2, 413520, Note_off_c, 2, 61, 0
2, 413640, Note_on_c, 2, 59, 50
2, 413760, Note_off_c, 2, 59, 0
2, 414000, Note_on_c, 2, 59, 50
2, 414120, Note_off_c, 2, 59, 0
2, 414240, Note_on_c, 2, 59, 50
2, 414360, Note_off_c, 2, 59, 0
2, 414600, Note_on_c, 2, 58, 50
2, 414720, Note_off_c, 2, 58, 0
2, 414960, Note_on_c, 2, 58, 50
2, 415080, Note_off_c, 2, 58, 0
2, 415200, Note_on_c, 2, 58, 50
2, 415320, Note_off_c, 2, 58, 0
2, 415560, Note_on_c, 2, 57, 50
2, 416040, Note_off_c, 2, 57, 0
2, 416520, Note_on_c, 2, 59, 50
2, 417120, Note_off_c, 2, 59, 0
2, 417480, Note_on_c, 2, 64, 50
2, 418320, Note_off_c, 2, 64, 0
2, 419280, Note_on_c, 2, 68, 50
2, 421080, Note_off_c, 2, 68, 0
2, 421560, Note_on_c, 2, 69, 50
2, 421680, Note_off_c, 2, 69, 0
2, 421800, Note_on_c, 2, 68, 50
2, 421920, Note_off_c, 2, 68, 0
2, 421920, Note_on_c, 2, 69, 50
2, 422040, Note_off_c, 2, 69, 0
2, 422040, Note_on_c, 2, 68, 50
2, 422160, Note_off_c, 2, 68, 0
2, 422160, Note_on_c, 2, 64, 50
2, 422400, Note_off_c, 2, 64, 0
2, 423480, Note_on_c, 2, 64, 50
2, 423840, Note_off_c, 2, 64, 0
2, 423840, Note_on_c, 2, 61, 50
2, 424200, Note_off_c, 2, 61, 0
2, 424200, Note_on_c, 2, 58, 50
2, 424920, Note_off_c, 2, 58, 0
2, 425160, Note_on_c, 2, 59, 50
2, 426000, Note_off_c, 2, 59, 0
2, 426600, Note_on_c, 2, 59, 50
2, 426720, Note_off_c, 2, 59, 0
2, 426720, Note_on_c, 2, 62, 50
2, 426960, Note_off_c, 2, 62, 0
2, 426960, Note_on_c, 2, 62, 50
2, 428280, Note_off_c, 2, 62, 0
2, 428520, Note_on_c, 2, 59, 50
2, 428640, Note_off_c, 2, 59, 0
2, 428640, Note_on_c, 2, 62, 50
2, 428880, Note_off_c, 2, 62, 0
2, 429120, Note_on_c, 2, 57, 50
2, 429600, Note_off_c, 2, 57, 0
2, 429600, Note_on_c, 2, 64, 50
2, 429840, Note_off_c, 2, 64, 0
2, 429840, Note_on_c, 2, 57, 50
2, 430080, Note_off_c, 2, 57, 0
2, 430080, Note_on_c, 2, 56, 50
2, 430440, Note_off_c, 2, 56, 0
2, 430440, Note_on_c, 2, 55, 50
2, 430800, Note_off_c, 2, 55, 0
2, 430920, Note_on_c, 2, 54, 50
2, 431760, Note_off_c, 2, 54, 0
2, 431880, Note_on_c, 2, 52, 50
2, 432120, Note_off_c, 2, 52, 0
2, 432240, Note_on_c, 2, 54, 50
2, 432480, Note_off_c, 2, 54, 0
2, 432600, Note_on_c, 2, 56, 50
2, 432840, Note_off_c, 2, 56, 0
2, 432840, Note_on_c, 2, 57, 50
2, 433440, Note_off_c, 2, 57, 0
2, 433560, Note_on_c, 2, 57, 50
2, 434280, Note_off_c, 2, 57, 0
2, 434520, Note_on_c, 2, 61, 50
2, 434760, Note_off_c, 2, 61, 0
2, 434760, Note_on_c, 2, 59, 50
2, 435600, Note_off_c, 2, 59, 0
2, 435720, Note_on_c, 2, 52, 50
2, 436440, Note_off_c, 2, 52, 0
2, 436440, Note_on_c, 2, 59, 50
2, 436680, Note_off_c, 2, 59, 0
2, 452040, Note_on_c, 2, 62, 50
2, 452400, Note_off_c, 2, 62, 0
2, 452520, Note_on_c, 2, 66, 50
2, 452760, Note_off_c, 2, 66, 0
2, 452760, Note_on_c, 2, 74, 50
2, 453120, Note_off_c, 2, 74, 0
2, 453240, Note_on_c, 2, 69, 50
2, 453600, Note_off_c, 2, 69, 0
2, 453720, Note_on_c, 2, 66, 50
2, 453960, Note_off_c, 2, 66, 0
2, 453960, Note_on_c, 2, 62, 50
2, 454680, Note_off_c, 2, 62, 0
2, 454680, Note_on_c, 2, 74, 50
2, 455040, Note_off_c, 2, 74, 0
2, 455160, Note_on_c, 2, 69, 50
2, 455400, Note_off_c, 2, 69, 0
2, 455640, Note_on_c, 2, 65, 50
2, 455760, Note_off_c, 2, 65, 0
2, 455880, Note_on_c, 2, 57, 50
2, 456480, Note_off_c, 2, 57, 0
2, 456600, Note_on_c, 2, 69, 50
2, 456960, Note_off_c, 2, 69, 0
2, 457080, Note_on_c, 2, 64, 50
2, 457320, Note_off_c, 2, 64, 0
2, 457560, Note_on_c, 2, 61, 50
2, 457680, Note_off_c, 2, 61, 0
2, 457800, Note_on_c, 2, 58, 50
2, 458520, Note_off_c, 2, 58, 0
2, 458520, Note_on_c, 2, 66, 50
2, 458760, Note_off_c, 2, 66, 0
2, 459000, Note_on_c, 2, 70, 50
2, 459240, Note_off_c, 2, 70, 0
2, 459240, Note_on_c, 2, 66, 50
2, 459480, Note_off_c, 2, 66, 0
2, 459480, Note_on_c, 2, 61, 50
2, 459600, Note_off_c, 2, 61, 0
2, 459720, Note_on_c, 2, 59, 50
2, 459840, Note_off_c, 2, 59, 0
2, 460080, Note_on_c, 2, 59, 50
2, 460200, Note_off_c, 2, 59, 0
2, 460320, Note_on_c, 2, 59, 50
2, 460440, Note_off_c, 2, 59, 0
2, 460680, Note_on_c, 2, 58, 50
2, 460800, Note_off_c, 2, 58, 0
2, 461040, Note_on_c, 2, 58, 50
2, 461160, Note_off_c, 2, 58, 0
2, 461280, Note_on_c, 2, 58, 50
2, 461400, Note_off_c, 2, 58, 0
2, 461640, Note_on_c, 2, 57, 50
2, 462120, Note_off_c, 2, 57, 0
2, 462600, Note_on_c, 2, 59, 50
2, 463200, Note_off_c, 2, 59, 0
2, 463560, Note_on_c, 2, 64, 50
2, 464400, Note_off_c, 2, 64, 0
2, 465360, Note_on_c, 2, 68, 50
2, 467160, Note_off_c, 2, 68, 0
2, 467640, Note_on_c, 2, 69, 50
2, 467760, Note_off_c, 2, 69, 0
2, 467880, Note_on_c, 2, 68, 50
2, 468000, Note_off_c, 2, 68, 0
2, 468000, Note_on_c, 2, 69, 50
2, 468120, Note_off_c, 2, 69, 0
2, 468120, Note_on_c, 2, 68, 50
2, 468240, Note_off_c, 2, 68, 0
2, 468240, Note_on_c, 2, 64, 50
2, 468480, Note_off_c, 2, 64, 0
2, 469560, Note_on_c, 2, 64, 50
2, 469920, Note_off_c, 2, 64, 0
2, 469920, Note_on_c, 2, 61, 50
2, 470280, Note_off_c, 2, 61, 0
2, 470280, Note_on_c, 2, 58, 50
2, 471000, Note_off_c, 2, 58, 0
2, 471240, Note_on_c, 2, 59, 50
2, 472080, Note_off_c, 2, 59, 0
2, 472680, Note_on_c, 2, 59, 50
2, 472800, Note_off_c, 2, 59, 0
2, 472800, Note_on_c, 2, 62, 50
2, 473040, Note_off_c, 2, 62, 0
2, 473040, Note_on_c, 2, 62, 50
2, 474360, Note_off_c, 2, 62, 0
2, 474600, Note_on_c, 2, 59, 50
2, 474720, Note_off_c, 2, 59, 0
2, 474720, Note_on_c, 2, 62, 50
2, 474960, Note_off_c, 2, 62, 0
2, 475200, Note_on_c, 2, 57, 50
2, 475680, Note_off_c, 2, 57, 0
2, 475680, Note_on_c, 2, 64, 50
2, 475920, Note_off_c, 2, 64, 0
2, 475920, Note_on_c, 2, 57, 50
2, 476160, Note_off_c, 2, 57, 0
2, 476160, Note_on_c, 2, 56, 50
2, 476520, Note_off_c, 2, 56, 0
2, 476520, Note_on_c, 2, 55, 50
2, 476880, Note_off_c, 2, 55, 0
2, 477000, Note_on_c, 2, 54, 50
2, 477840, Note_off_c, 2, 54, 0
2, 477960, Note_on_c, 2, 52, 50
2, 478200, Note_off_c, 2, 52, 0
2, 478320, Note_on_c, 2, 54, 50
2, 478560, Note_off_c, 2, 54, 0
2, 478680, Note_on_c, 2, 56, 50
2, 478920, Note_off_c, 2, 56, 0
2, 478920, Note_on_c, 2, 57, 50
2, 479520, Note_off_c, 2, 57, 0
2, 479640, Note_on_c, 2, 57, 50
2, 480360, Note_off_c, 2, 57, 0
2, 480600, Note_on_c, 2, 61, 50
2, 480840, Note_off_c, 2, 61, 0
2, 480840, Note_on_c, 2, 59, 50
2, 481680, Note_off_c, 2, 59, 0
2, 481800, Note_on_c, 2, 52, 50
2, 482520, Note_off_c, 2, 52, 0
2, 482520, Note_on_c, 2, 59, 50
2, 482760, Note_off_c, 2, 59, 0
2, 482760, Note_on_c, 2, 59, 50
2, 482880, Note_off_c, 2, 59, 0
2, 483120, Note_on_c, 2, 59, 50
2, 483240, Note_off_c, 2, 59, 0
2, 483360, Note_on_c, 2, 59, 50
2, 483480, Note_off_c, 2, 59, 0
2, 483720, Note_on_c, 2, 58, 50
2, 483840, Note_off_c, 2, 58, 0
2, 484080, Note_on_c, 2, 58, 50
2, 484200, Note_off_c, 2, 58, 0
2, 484320, Note_on_c, 2, 58, 50
2, 484440, Note_off_c, 2, 58, 0
2, 484680, Note_on_c, 2, 59, 50
2, 485760, Note_off_c, 2, 59, 0
2, 486120, Note_on_c, 2, 59, 50
2, 486240, Note_off_c, 2, 59, 0
2, 486720, Note_on_c, 2, 57, 50
2, 487080, Note_off_c, 2, 57, 0
2, 487200, Note_on_c, 2, 69, 50
2, 487440, Note_off_c, 2, 69, 0
2, 487440, Note_on_c, 2, 66, 50
2, 487800, Note_off_c, 2, 66, 0
2, 487800, Note_on_c, 2, 69, 50
2, 488040, Note_off_c, 2, 69, 0
2, 488040, Note_on_c, 2, 66, 50
2, 488280, Note_off_c, 2, 66, 0
2, 489000, Note_on_c, 2, 67, 50
2, 489360, Note_off_c, 2, 67, 0
2, 489360, Note_on_c, 2, 65, 50
2, 489600, Note_off_c, 2, 65, 0
2, 489720, Note_on_c, 2, 67, 50
2, 489960, Note_off_c, 2, 67, 0
2, 489960, Note_on_c, 2, 65, 50
2, 490080, Note_off_c, 2, 65, 0
2, 490440, Note_on_c, 2, 57, 50
2, 490680, Note_off_c, 2, 57, 0
2, 490800, Note_on_c, 2, 57, 50
2, 490920, Note_off_c, 2, 57, 0
2, 490920, Note_on_c, 2, 61, 50
2, 491160, Note_off_c, 2, 61, 0
2, 491160, Note_on_c, 2, 57, 50
2, 491280, Note_off_c, 2, 57, 0
2, 491400, Note_on_c, 2, 56, 50
2, 491640, Note_off_c, 2, 56, 0
2, 491760, Note_on_c, 2, 56, 50
2, 492000, Note_off_c, 2, 56, 0
2, 492120, Note_on_c, 2, 56, 50
2, 492240, Note_off_c, 2, 56, 0
2, 492360, Note_on_c, 2, 57, 50
2, 492600, Note_off_c, 2, 57, 0
2, 493320, Note_on_c, 2, 57, 50
2, 494400, Note_off_c, 2, 57, 0
2, 497880, Note_on_c, 2, 44, 50
2, 498120, Note_off_c, 2, 44, 0
2, 498120, Note_on_c, 2, 46, 50
2, 498360, Note_off_c, 2, 46, 0
2, 498360, Note_on_c, 2, 48, 50
2, 498600, Note_off_c, 2, 48, 0
2, 498600, Note_on_c, 2, 49, 50
2, 498840, Note_off_c, 2, 49, 0
2, 499080, Note_on_c, 2, 49, 50
2, 499320, Note_off_c, 2, 49, 0
2, 499560, Note_on_c, 2, 42, 50
2, 499800, Note_off_c, 2, 42, 0
2, 499800, Note_on_c, 2, 46, 50
2, 500040, Note_off_c, 2, 46, 0
2, 500040, Note_on_c, 2, 42, 50
2, 500280, Note_off_c, 2, 42, 0
2, 500280, Note_on_c, 2, 44, 50
2, 500520, Note_off_c, 2, 44, 0
2, 500760, Note_on_c, 2, 44, 50
2, 501000, Note_off_c, 2, 44, 0
2, 501000, Note_on_c, 2, 44, 50
2, 501240, Note_off_c, 2, 44, 0
2, 501240, Note_on_c, 2, 44, 50
2, 501360, Note_off_c, 2, 44, 0
2, 501480, Note_on_c, 2, 44, 50
2, 501600, Note_off_c, 2, 44, 0
2, 501720, Note_on_c, 2, 44, 50
2, 501960, Note_off_c, 2, 44, 0
2, 501960, Note_on_c, 2, 46, 50
2, 502200, Note_off_c, 2, 46, 0
2, 502200, Note_on_c, 2, 48, 50
2, 502440, Note_off_c, 2, 48, 0
2, 502440, Note_on_c, 2, 49, 50
2, 502680, Note_off_c, 2, 49, 0
2, 502920, Note_on_c, 2, 49, 50
2, 503160, Note_off_c, 2, 49, 0
2, 503400, Note_on_c, 2, 42, 50
2, 503640, Note_off_c, 2, 42, 0
2, 503640, Note_on_c, 2, 46, 50
2, 504000, Note_off_c, 2, 46, 0
2, 504000, Note_on_c, 2, 42, 50
2, 504240, Note_off_c, 2, 42, 0
2, 504240, Note_on_c, 2, 44, 50
2, 504480, Note_off_c, 2, 44, 0
2, 504720, Note_on_c, 2, 44, 50
2, 504960, Note_off_c, 2, 44, 0
2, 504960, Note_on_c, 2, 44, 50
2, 505200, Note_off_c, 2, 44, 0
2, 505200, Note_on_c, 2, 44, 50
2, 505440, Note_off_c, 2, 44, 0
2, 505440, Note_on_c, 2, 44, 50
2, 505680, Note_off_c, 2, 44, 0
2, 505680, Note_on_c, 2, 44, 50
2, 505920, Note_off_c, 2, 44, 0
2, 505920, Note_on_c, 2, 46, 50
2, 506160, Note_off_c, 2, 46, 0
2, 506160, Note_on_c, 2, 48, 50
2, 506400, Note_off_c, 2, 48, 0
2, 506400, Note_on_c, 2, 49, 50
2, 506640, Note_off_c, 2, 49, 0
2, 506880, Note_on_c, 2, 49, 50
2, 507120, Note_off_c, 2, 49, 0
2, 507360, Note_on_c, 2, 42, 50
2, 507600, Note_off_c, 2, 42, 0
2, 507840, Note_on_c, 2, 46, 50
2, 508080, Note_off_c, 2, 46, 0
2, 508080, Note_on_c, 2, 42, 50
2, 508320, Note_off_c, 2, 42, 0
2, 508320, Note_on_c, 2, 44, 50
2, 508560, Note_off_c, 2, 44, 0
2, 508560, Note_on_c, 2, 44, 50
2, 508800, Note_off_c, 2, 44, 0
2, 508800, Note_on_c, 2, 44, 50
2, 509040, Note_off_c, 2, 44, 0
2, 509160, Note_on_c, 2, 44, 50
2, 509400, Note_off_c, 2, 44, 0
2, 509400, Note_on_c, 2, 44, 50
2, 509640, Note_off_c, 2, 44, 0
2, 509640, Note_on_c, 2, 46, 50
2, 509880, Note_off_c, 2, 46, 0
2, 509880, Note_on_c, 2, 48, 50
2, 510120, Note_off_c, 2, 48, 0
2, 510120, Note_on_c, 2, 49, 50
2, 510360, Note_off_c, 2, 49, 0
2, 510600, Note_on_c, 2, 49, 50
2, 510840, Note_off_c, 2, 49, 0
2, 511080, Note_on_c, 2, 42, 50
2, 511320, Note_off_c, 2, 42, 0
2, 511560, Note_on_c, 2, 46, 50
2, 511800, Note_off_c, 2, 46, 0
2, 511800, Note_on_c, 2, 42, 50
2, 512040, Note_off_c, 2, 42, 0
2, 512040, Note_on_c, 2, 44, 50
2, 512280, Note_off_c, 2, 44, 0
2, 512280, Note_on_c, 2, 44, 50
2, 512400, Note_off_c, 2, 44, 0
2, 512520, Note_on_c, 2, 44, 50
2, 512760, Note_off_c, 2, 44, 0
2, 512760, Note_on_c, 2, 44, 50
2, 512880, Note_off_c, 2, 44, 0
2, 513000, Note_on_c, 2, 44, 50
2, 513120, Note_off_c, 2, 44, 0
2, 513240, Note_on_c, 2, 44, 50
2, 513480, Note_off_c, 2, 44, 0
2, 513480, Note_on_c, 2, 46, 50
2, 513720, Note_off_c, 2, 46, 0
2, 513720, Note_on_c, 2, 48, 50
2, 513960, Note_off_c, 2, 48, 0
2, 513960, Note_on_c, 2, 49, 50
2, 514200, Note_off_c, 2, 49, 0
2, 514440, Note_on_c, 2, 49, 50
2, 514680, Note_off_c, 2, 49, 0
2, 514920, Note_on_c, 2, 42, 50
2, 515160, Note_off_c, 2, 42, 0
2, 515400, Note_on_c, 2, 46, 50
2, 515640, Note_off_c, 2, 46, 0
2, 515640, Note_on_c, 2, 42, 50
2, 515880, Note_off_c, 2, 42, 0
2, 515880, Note_on_c, 2, 44, 50
2, 516120, Note_off_c, 2, 44, 0
2, 516120, Note_on_c, 2, 44, 50
2, 516360, Note_off_c, 2, 44, 0
2, 516360, Note_on_c, 2, 44, 50
2, 516600, Note_off_c, 2, 44, 0
2, 516600, Note_on_c, 2, 44, 50
2, 516720, Note_off_c, 2, 44, 0
2, 516840, Note_on_c, 2, 44, 50
2, 516960, Note_off_c, 2, 44, 0
2, 517080, Note_on_c, 2, 44, 50
2, 517320, Note_off_c, 2, 44, 0
2, 517320, Note_on_c, 2, 46, 50
2, 517560, Note_off_c, 2, 46, 0
2, 517560, Note_on_c, 2, 48, 50
2, 517800, Note_off_c, 2, 48, 0
2, 517800, Note_on_c, 2, 49, 50
2, 518040, Note_off_c, 2, 49, 0
2, 518280, Note_on_c, 2, 49, 50
2, 518520, Note_off_c, 2, 49, 0
2, 518760, Note_on_c, 2, 42, 50
2, 519000, Note_off_c, 2, 42, 0
2, 519240, Note_on_c, 2, 46, 50
2, 519480, Note_off_c, 2, 46, 0
2, 519480, Note_on_c, 2, 42, 50
2, 519720, Note_off_c, 2, 42, 0
2, 519720, Note_on_c, 2, 44, 50
2, 519960, Note_off_c, 2, 44, 0
2, 519960, Note_on_c, 2, 44, 50
2, 520200, Note_off_c, 2, 44, 0
2, 520200, Note_on_c, 2, 44, 50
2, 520440, Note_off_c, 2, 44, 0
2, 520440, Note_on_c, 2, 44, 50
2, 520560, Note_off_c, 2, 44, 0
2, 520680, Note_on_c, 2, 44, 50
2, 520800, Note_off_c, 2, 44, 0
2, 520920, Note_on_c, 2, 44, 50
2, 521160, Note_off_c, 2, 44, 0
2, 521160, Note_on_c, 2, 46, 50
2, 521400, Note_off_c, 2, 46, 0
2, 521400, Note_on_c, 2, 48, 50
2, 521640, Note_off_c, 2, 48, 0
2, 521640, Note_on_c, 2, 49, 50
2, 521880, Note_off_c, 2, 49, 0
2, 522120, Note_on_c, 2, 49, 50
2, 522360, Note_off_c, 2, 49, 0
2, 522600, Note_on_c, 2, 42, 50
2, 522840, Note_off_c, 2, 42, 0
2, 523080, Note_on_c, 2, 46, 50
2, 523320, Note_off_c, 2, 46, 0
2, 523320, Note_on_c, 2, 42, 50
2, 523560, Note_off_c, 2, 42, 0
2, 523560, Note_on_c, 2, 44, 50
2, 523800, Note_off_c, 2, 44, 0
2, 523800, Note_on_c, 2, 44, 50
2, 524040, Note_off_c, 2, 44, 0
2, 524040, Note_on_c, 2, 44, 50
2, 524280, Note_off_c, 2, 44, 0
2, 524280, Note_on_c, 2, 44, 50
2, 524400, Note_off_c, 2, 44, 0
2, 524520, Note_on_c, 2, 44, 50
2, 524760, Note_off_c, 2, 44, 0
2, 524760, Note_on_c, 2, 44, 50
2, 525000, Note_off_c, 2, 44, 0
2, 525000, Note_on_c, 2, 46, 50
2, 525240, Note_off_c, 2, 46, 0
2, 525240, Note_on_c, 2, 48, 50
2, 525480, Note_off_c, 2, 48, 0
2, 525480, Note_on_c, 2, 49, 50
2, 525720, Note_off_c, 2, 49, 0
2, 525960, Note_on_c, 2, 49, 50
2, 526200, Note_off_c, 2, 49, 0
2, 526440, Note_on_c, 2, 42, 50
2, 526680, Note_off_c, 2, 42, 0
2, 526920, Note_on_c, 2, 46, 50
2, 527160, Note_off_c, 2, 46, 0
2, 527160, Note_on_c, 2, 42, 50
2, 527400, Note_off_c, 2, 42, 0
2, 527400, Note_on_c, 2, 44, 50
2, 527640, Note_off_c, 2, 44, 0
2, 527640, Note_on_c, 2, 44, 50
2, 527760, Note_off_c, 2, 44, 0
2, 527880, Note_on_c, 2, 44, 50
2, 528120, Note_off_c, 2, 44, 0
2, 528120, Note_on_c, 2, 44, 50
2, 528240, Note_off_c, 2, 44, 0
2, 528360, Note_on_c, 2, 44, 50
2, 528480, Note_off_c, 2, 44, 0
2, 528600, Note_on_c, 2, 44, 50
2, 528840, Note_off_c, 2, 44, 0
2, 528840, Note_on_c, 2, 46, 50
2, 529080, Note_off_c, 2, 46, 0
2, 529080, Note_on_c, 2, 48, 50
2, 529320, Note_off_c, 2, 48, 0
2, 529320, Note_on_c, 2, 49, 50
2, 529560, Note_off_c, 2, 49, 0
2, 529800, Note_on_c, 2, 49, 50
2, 530040, Note_off_c, 2, 49, 0
2, 530280, Note_on_c, 2, 42, 50
2, 530520, Note_off_c, 2, 42, 0
2, 530760, Note_on_c, 2, 46, 50
2, 531000, Note_off_c, 2, 46, 0
2, 531000, Note_on_c, 2, 42, 50
2, 531240, Note_off_c, 2, 42, 0
2, 531240, Note_on_c, 2, 44, 50
2, 531480, Note_off_c, 2, 44, 0
2, 531480, Note_on_c, 2, 44, 50
2, 531720, Note_off_c, 2, 44, 0
2, 531720, Note_on_c, 2, 44, 50
2, 531960, Note_off_c, 2, 44, 0
2, 531960, Note_on_c, 2, 44, 50
2, 532080, Note_off_c, 2, 44, 0
2, 532200, Note_on_c, 2, 44, 50
2, 532320, Note_off_c, 2, 44, 0
2, 532440, Note_on_c, 2, 44, 50
2, 532680, Note_off_c, 2, 44, 0
2, 532680, Note_on_c, 2, 46, 50
2, 532920, Note_off_c, 2, 46, 0
2, 532920, Note_on_c, 2, 48, 50
2, 533160, Note_off_c, 2, 48, 0
2, 533160, Note_on_c, 2, 49, 50
2, 533400, Note_off_c, 2, 49, 0
2, 533640, Note_on_c, 2, 49, 50
2, 533880, Note_off_c, 2, 49, 0
2, 534120, Note_on_c, 2, 42, 50
2, 534360, Note_off_c, 2, 42, 0
2, 534600, Note_on_c, 2, 46, 50
2, 534840, Note_off_c, 2, 46, 0
2, 534840, Note_on_c, 2, 42, 50
2, 535080, Note_off_c, 2, 42, 0
2, 535080, Note_on_c, 2, 44, 50
2, 535320, Note_off_c, 2, 44, 0
2, 535320, Note_on_c, 2, 44, 50
2, 535560, Note_off_c, 2, 44, 0
2, 535560, Note_on_c, 2, 44, 50
2, 535800, Note_off_c, 2, 44, 0
2, 535800, Note_on_c, 2, 44, 50
2, 535920, Note_off_c, 2, 44, 0
2, 536040, Note_on_c, 2, 44, 50
2, 536160, Note_off_c, 2, 44, 0
2, 536280, Note_on_c, 2, 44, 50
2, 536520, Note_off_c, 2, 44, 0
2, 536520, Note_on_c, 2, 46, 50
2, 536760, Note_off_c, 2, 46, 0
2, 536760, Note_on_c, 2, 48, 50
2, 537000, Note_off_c, 2, 48, 0
2, 537000, Note_on_c, 2, 49, 50
2, 537240, Note_off_c, 2, 49, 0
2, 537480, Note_on_c, 2, 49, 50
2, 537720, Note_off_c, 2, 49, 0
2, 537960, Note_on_c, 2, 42, 50
2, 538200, Note_off_c, 2, 42, 0
2, 538440, Note_on_c, 2, 46, 50
2, 538680, Note_off_c, 2, 46, 0
2, 538680, Note_on_c, 2, 42, 50
2, 538920, Note_off_c, 2, 42, 0
2, 538920, Note_on_c, 2, 44, 50
2, 539160, Note_off_c, 2, 44, 0
2, 539160, Note_on_c, 2, 44, 50
2, 539400, Note_off_c, 2, 44, 0
2, 539400, Note_on_c, 2, 44, 50
2, 539640, Note_off_c, 2, 44, 0
2, 539640, Note_on_c, 2, 44, 50
2, 539760, Note_off_c, 2, 44, 0
2, 539880, Note_on_c, 2, 44, 50
2, 540120, Note_off_c, 2, 44, 0
2, 540120, Note_on_c, 2, 44, 50
2, 540360, Note_off_c, 2, 44, 0
2, 540360, Note_on_c, 2, 46, 50
2, 540600, Note_off_c, 2, 46, 0
2, 540600, Note_on_c, 2, 48, 50
2, 540840, Note_off_c, 2, 48, 0
2, 540840, Note_on_c, 2, 49, 50
2, 541080, Note_off_c, 2, 49, 0
2, 541320, Note_on_c, 2, 49, 50
2, 541560, Note_off_c, 2, 49, 0
2, 541800, Note_on_c, 2, 42, 50
2, 542040, Note_off_c, 2, 42, 0
2, 542280, Note_on_c, 2, 46, 50
2, 542520, Note_off_c, 2, 46, 0
2, 542520, Note_on_c, 2, 42, 50
2, 542760, Note_off_c, 2, 42, 0
2, 542760, Note_on_c, 2, 44, 50
2, 543000, Note_off_c, 2, 44, 0
2, 543000, Note_on_c, 2, 44, 50
2, 543120, Note_off_c, 2, 44, 0
2, 543240, Note_on_c, 2, 44, 50
2, 543480, Note_off_c, 2, 44, 0
2, 543480, Note_on_c, 2, 44, 50
2, 543600, Note_off_c, 2, 44, 0
2, 543720, Note_on_c, 2, 44, 50
2, 543840, Note_off_c, 2, 44, 0
2, 543960, Note_on_c, 2, 44, 50
2, 544200, Note_off_c, 2, 44, 0
2, 544200, Note_on_c, 2, 46, 50
2, 544440, Note_off_c, 2, 46, 0
2, 544440, Note_on_c, 2, 48, 50
2, 544680, Note_off_c, 2, 48, 0
2, 544680, Note_on_c, 2, 49, 50
2, 544920, Note_off_c, 2, 49, 0
2, 545160, Note_on_c, 2, 49, 50
2, 545400, Note_off_c, 2, 49, 0
2, 545640, Note_on_c, 2, 42, 50
2, 545880, Note_off_c, 2, 42, 0
2, 546120, Note_on_c, 2, 46, 50
2, 546360, Note_off_c, 2, 46, 0
2, 546360, Note_on_c, 2, 42, 50
2, 546600, Note_off_c, 2, 42, 0
2, 546600, Note_on_c, 2, 44, 50
2, 546840, Note_off_c, 2, 44, 0
2, 546840, Note_on_c, 2, 44, 50
2, 547080, Note_off_c, 2, 44, 0
2, 547080, Note_on_c, 2, 44, 50
2, 547320, Note_off_c, 2, 44, 0
2, 547320, Note_on_c, 2, 44, 50
2, 547440, Note_off_c, 2, 44, 0
2, 547560, Note_on_c, 2, 44, 50
2, 547680, Note_off_c, 2, 44, 0
2, 547800, Note_on_c, 2, 44, 50
2, 548040, Note_off_c, 2, 44, 0
2, 548040, Note_on_c, 2, 46, 50
2, 548280, Note_off_c, 2, 46, 0
2, 548280, Note_on_c, 2, 48, 50
2, 548520, Note_off_c, 2, 48, 0
2, 548520, Note_on_c, 2, 49, 50
2, 548760, Note_off_c, 2, 49, 0
2, 549000, Note_on_c, 2, 49, 50
2, 549240, Note_off_c, 2, 49, 0
2, 549480, Note_on_c, 2, 42, 50
2, 549720, Note_off_c, 2, 42, 0
2, 549960, Note_on_c, 2, 46, 50
2, 550200, Note_off_c, 2, 46, 0
2, 550200, Note_on_c, 2, 42, 50
2, 550440, Note_off_c, 2, 42, 0
2, 550440, Note_on_c, 2, 44, 50
2, 550680, Note_off_c, 2, 44, 0
2, 550680, Note_on_c, 2, 44, 50
2, 550920, Note_off_c, 2, 44, 0
2, 550920, Note_on_c, 2, 44, 50
2, 551160, Note_off_c, 2, 44, 0
2, 551160, Note_on_c, 2, 44, 50
2, 551280, Note_off_c, 2, 44, 0
2, 551400, Note_on_c, 2, 44, 50
2, 551520, Note_off_c, 2, 44, 0
2, 551640, Note_on_c, 2, 44, 50
2, 551880, Note_off_c, 2, 44, 0
2, 551880, Note_on_c, 2, 46, 50
2, 552120, Note_off_c, 2, 46, 0
2, 552120, Note_on_c, 2, 48, 50
2, 552360, Note_off_c, 2, 48, 0
2, 552360, Note_on_c, 2, 49, 50
2, 552600, Note_off_c, 2, 49, 0
2, 552840, Note_on_c, 2, 49, 50
2, 553080, Note_off_c, 2, 49, 0
2, 553320, Note_on_c, 2, 42, 50
2, 553560, Note_off_c, 2, 42, 0
2, 553800, Note_on_c, 2, 46, 50
2, 554040, Note_off_c, 2, 46, 0
2, 554040, Note_on_c, 2, 42, 50
2, 554280, Note_off_c, 2, 42, 0
2, 554280, Note_on_c, 2, 44, 50
2, 554520, Note_off_c, 2, 44, 0
2, 554520, Note_on_c, 2, 44, 50
2, 554760, Note_off_c, 2, 44, 0
2, 554760, Note_on_c, 2, 44, 50
2, 555000, Note_off_c, 2, 44, 0
2, 555000, Note_on_c, 2, 44, 50
2, 555120, Note_off_c, 2, 44, 0
2, 555240, Note_on_c, 2, 44, 50
2, 555480, Note_off_c, 2, 44, 0
2, 555480, Note_on_c, 2, 44, 50
2, 555720, Note_off_c, 2, 44, 0
2, 555720, Note_on_c, 2, 46, 50
2, 555960, Note_off_c, 2, 46, 0
2, 555960, Note_on_c, 2, 48, 50
2, 556200, Note_off_c, 2, 48, 0
2, 556200, Note_on_c, 2, 49, 50
2, 556440, Note_off_c, 2, 49, 0
2, 556680, Note_on_c, 2, 49, 50
2, 556920, Note_off_c, 2, 49, 0
2, 557160, Note_on_c, 2, 42, 50
2, 557400, Note_off_c, 2, 42, 0
2, 557640, Note_on_c, 2, 46, 50
2, 557880, Note_off_c, 2, 46, 0
2, 557880, Note_on_c, 2, 42, 50
2, 558120, Note_off_c, 2, 42, 0
2, 558120, Note_on_c, 2, 44, 50
2, 558360, Note_off_c, 2, 44, 0
2, 558360, Note_on_c, 2, 44, 50
2, 558480, Note_off_c, 2, 44, 0
2, 558600, Note_on_c, 2, 44, 50
2, 558840, Note_off_c, 2, 44, 0
2, 558840, Note_on_c, 2, 44, 50
2, 558960, Note_off_c, 2, 44, 0
2, 559080, Note_on_c, 2, 44, 50
2, 559200, Note_off_c, 2, 44, 0
2, 559320, Note_on_c, 2, 44, 50
2, 559560, Note_off_c, 2, 44, 0
2, 559560, Note_on_c, 2, 46, 50
2, 559800, Note_off_c, 2, 46, 0
2, 559800, Note_on_c, 2, 48, 50
2, 560040, Note_off_c, 2, 48, 0
2, 560040, Note_on_c, 2, 49, 50
2, 560280, Note_off_c, 2, 49, 0
2, 560520, Note_on_c, 2, 49, 50
2, 560760, Note_off_c, 2, 49, 0
2, 561000, Note_on_c, 2, 42, 50
2, 561240, Note_off_c, 2, 42, 0
2, 561480, Note_on_c, 2, 46, 50
2, 561720, Note_off_c, 2, 46, 0
2, 561720, Note_on_c, 2, 42, 50
2, 561960, Note_off_c, 2, 42, 0
2, 561960, Note_on_c, 2, 44, 50
2, 562200, Note_off_c, 2, 44, 0
2, 562200, Note_on_c, 2, 44, 50
2, 562440, Note_off_c, 2, 44, 0
2, 562440, Note_on_c, 2, 44, 50
2, 562680, Note_off_c, 2, 44, 0
2, 562680, Note_on_c, 2, 44, 50
2, 562800, Note_off_c, 2, 44, 0
2, 562920, Note_on_c, 2, 44, 50
2, 563040, Note_off_c, 2, 44, 0
2, 563160, Note_on_c, 2, 44, 50
2, 563400, Note_off_c, 2, 44, 0
2, 563400, Note_on_c, 2, 46, 50
2, 563640, Note_off_c, 2, 46, 0
2, 563640, Note_on_c, 2, 48, 50
2, 563880, Note_off_c, 2, 48, 0
2, 563880, Note_on_c, 2, 49, 50
2, 564120, Note_off_c, 2, 49, 0
2, 564360, Note_on_c, 2, 49, 50
2, 564600, Note_off_c, 2, 49, 0
2, 564840, Note_on_c, 2, 42, 50
2, 565080, Note_off_c, 2, 42, 0
2, 565320, Note_on_c, 2, 46, 50
2, 565560, Note_off_c, 2, 46, 0
2, 565560, Note_on_c, 2, 42, 50
2, 565800, Note_off_c, 2, 42, 0
2, 565800, Note_on_c, 2, 44, 50
2, 566040, Note_off_c, 2, 44, 0
2, 566040, Note_on_c, 2, 44, 50
2, 566280, Note_off_c, 2, 44, 0
2, 566280, Note_on_c, 2, 44, 50
2, 566520, Note_off_c, 2, 44, 0
2, 566520, Note_on_c, 2, 44, 50
2, 566640, Note_off_c, 2, 44, 0
2, 566760, Note_on_c, 2, 44, 50
2, 566880, Note_off_c, 2, 44, 0
2, 567000, Note_on_c, 2, 44, 50
2, 567240, Note_off_c, 2, 44, 0
2, 567240, Note_on_c, 2, 46, 50
2, 567480, Note_off_c, 2, 46, 0
2, 567480, Note_on_c, 2, 48, 50
2, 567720, Note_off_c, 2, 48, 0
2, 567720, Note_on_c, 2, 49, 50
2, 567960, Note_off_c, 2, 49, 0
2, 568440, Note_on_c, 2, 49, 50
2, 568680, Note_off_c, 2, 49, 0
2, 568680, Note_on_c, 2, 54, 50
2, 568800, Note_off_c, 2, 54, 0
2, 568920, Note_on_c, 2, 58, 50
2, 569160, Note_off_c, 2, 58, 0
2, 569400, Note_on_c, 2, 56, 50
2, 569640, Note_off_c, 2, 56, 0
2, 570360, Note_on_c, 2, 51, 50
2, 570600, Note_off_c, 2, 51, 0
2, 570600, Note_on_c, 2, 54, 50
2, 570840, Note_off_c, 2, 54, 0
2, 571080, Note_on_c, 2, 53, 50
2, 571320, Note_off_c, 2, 53, 0
2, 571560, Note_on_c, 2, 49, 50
2, 571800, Note_off_c, 2, 49, 0
2, 572280, Note_on_c, 2, 49, 50
2, 572520, Note_off_c, 2, 49, 0
2, 572520, Note_on_c, 2, 54, 50
2, 572640, Note_off_c, 2, 54, 0
2, 572760, Note_on_c, 2, 58, 50
2, 573000, Note_off_c, 2, 58, 0
2, 573240, Note_on_c, 2, 56, 50
2, 573480, Note_off_c, 2, 56, 0
2, 574200, Note_on_c, 2, 51, 50
2, 574440, Note_off_c, 2, 51, 0
2, 574440, Note_on_c, 2, 54, 50
2, 574680, Note_off_c, 2, 54, 0
2, 574920, Note_on_c, 2, 53, 50
2, 575160, Note_off_c, 2, 53, 0
2, 575400, Note_on_c, 2, 49, 50
2, 575640, Note_off_c, 2, 49, 0
2, 576120, Note_on_c, 2, 49, 50
2, 576360, Note_off_c, 2, 49, 0
2, 576360, Note_on_c, 2, 54, 50
2, 576480, Note_off_c, 2, 54, 0
2, 576600, Note_on_c, 2, 58, 50
2, 576840, Note_off_c, 2, 58, 0
2, 577080, Note_on_c, 2, 56, 50
2, 577320, Note_off_c, 2, 56, 0
2, 578040, Note_on_c, 2, 51, 50
2, 578280, Note_off_c, 2, 51, 0
2, 578280, Note_on_c, 2, 54, 50
2, 578520, Note_off_c, 2, 54, 0
2, 578760, Note_on_c, 2, 53, 50
2, 579000, Note_off_c, 2, 53, 0
2, 579240, Note_on_c, 2, 49, 50
2, 579480, Note_off_c, 2, 49, 0
2, 579960, Note_on_c, 2, 49, 50
2, 580200, Note_off_c, 2, 49, 0
2, 580200, Note_on_c, 2, 54, 50
2, 580320, Note_off_c, 2, 54, 0
2, 580440, Note_on_c, 2, 58, 50
2, 580680, Note_off_c, 2, 58, 0
2, 580920, Note_on_c, 2, 56, 50
2, 581160, Note_off_c, 2, 56, 0
2, 581880, Note_on_c, 2, 51, 50
2, 582120, Note_off_c, 2, 51, 0
2, 582120, Note_on_c, 2, 54, 50
2, 582360, Note_off_c, 2, 54, 0
2, 582600, Note_on_c, 2, 53, 50
2, 582840, Note_off_c, 2, 53, 0
2, 583080, Note_on_c, 2, 44, 50
2, 583200, Note_off_c, 2, 44, 0
2, 583320, Note_on_c, 2, 44, 50
2, 583440, Note_off_c, 2, 44, 0
2, 583560, Note_on_c, 2, 44, 50
2, 583800, Note_off_c, 2, 44, 0
2, 583800, Note_on_c, 2, 44, 50
2, 584040, Note_off_c, 2, 44, 0
2, 584040, Note_on_c, 2, 44, 50
2, 584160, Note_off_c, 2, 44, 0
2, 584280, Note_on_c, 2, 44, 50
2, 584520, Note_off_c, 2, 44, 0
2, 584520, Note_on_c, 2, 44, 50
2, 584760, Note_off_c, 2, 44, 0
2, 584760, Note_on_c, 2, 44, 50
2, 585000, Note_off_c, 2, 44, 0
2, 585000, Note_on_c, 2, 44, 50
2, 585240, Note_off_c, 2, 44, 0
2, 585240, Note_on_c, 2, 44, 50
2, 585480, Note_off_c, 2, 44, 0
2, 585480, Note_on_c, 2, 44, 50
2, 585720, Note_off_c, 2, 44, 0
2, 585720, Note_on_c, 2, 44, 50
2, 585960, Note_off_c, 2, 44, 0
2, 585960, Note_on_c, 2, 44, 50
2, 586080, Note_off_c, 2, 44, 0
2, 586200, Note_on_c, 2, 44, 50
2, 586440, Note_off_c, 2, 44, 0
2, 586440, Note_on_c, 2, 44, 50
2, 586680, Note_off_c, 2, 44, 0
2, 586680, Note_on_c, 2, 44, 50
2, 586800, Note_off_c, 2, 44, 0
2, 586920, Note_on_c, 2, 44, 50
2, 587160, Note_off_c, 2, 44, 0
2, 587160, Note_on_c, 2, 44, 50
2, 587280, Note_off_c, 2, 44, 0
2, 587400, Note_on_c, 2, 44, 50
2, 587520, Note_off_c, 2, 44, 0
2, 587640, Note_on_c, 2, 44, 50
2, 587880, Note_off_c, 2, 44, 0
2, 587880, Note_on_c, 2, 44, 50
2, 588000, Note_off_c, 2, 44, 0
2, 588120, Note_on_c, 2, 44, 50
2, 588240, Note_off_c, 2, 44, 0
2, 588360, Note_on_c, 2, 44, 50
2, 588480, Note_off_c, 2, 44, 0
2, 588600, Note_on_c, 2, 44, 50
2, 588720, Note_off_c, 2, 44, 0
2, 588840, Note_on_c, 2, 44, 50
2, 589080, Note_off_c, 2, 44, 0
2, 589080, Note_on_c, 2, 44, 50
2, 589200, Note_off_c, 2, 44, 0
2, 589320, Note_on_c, 2, 44, 50
2, 589440, Note_off_c, 2, 44, 0
2, 589560, Note_on_c, 2, 44, 50
2, 589800, Note_off_c, 2, 44, 0
2, 589800, Note_on_c, 2, 44, 50
2, 589920, Note_off_c, 2, 44, 0
2, 590040, Note_on_c, 2, 44, 50
2, 590160, Note_off_c, 2, 44, 0
2, 590280, Note_on_c, 2, 44, 50
2, 590520, Note_off_c, 2, 44, 0
2, 590520, Note_on_c, 2, 44, 50
2, 590640, Note_off_c, 2, 44, 0
2, 590760, Note_on_c, 2, 44, 50
2, 590880, Note_off_c, 2, 44, 0
2, 591000, Note_on_c, 2, 44, 50
2, 591120, Note_off_c, 2, 44, 0
2, 591240, Note_on_c, 2, 44, 50
2, 591480, Note_off_c, 2, 44, 0
2, 591480, Note_on_c, 2, 44, 50
2, 591720, Note_off_c, 2, 44, 0
2, 591720, Note_on_c, 2, 44, 50
2, 591840, Note_off_c, 2, 44, 0
2, 591960, Note_on_c, 2, 44, 50
2, 592200, Note_off_c, 2, 44, 0
2, 592200, Note_on_c, 2, 44, 50
2, 592440, Note_off_c, 2, 44, 0
2, 592440, Note_on_c, 2, 44, 50
2, 592560, Note_off_c, 2, 44, 0
2, 592680, Note_on_c, 2, 44, 50
2, 592920, Note_off_c, 2, 44, 0
2, 592920, Note_on_c, 2, 44, 50
2, 593040, Note_off_c, 2, 44, 0
2, 593160, Note_on_c, 2, 44, 50
2, 593400, Note_off_c, 2, 44, 0
2, 593400, Note_on_c, 2, 44, 50
2, 593520, Note_off_c, 2, 44, 0
2, 593640, Note_on_c, 2, 44, 50
2, 593760, Note_off_c, 2, 44, 0
2, 593880, Note_on_c, 2, 44, 50
2, 594120, Note_off_c, 2, 44, 0
2, 594120, Note_on_c, 2, 46, 50
2, 594360, Note_off_c, 2, 46, 0
2, 594360, Note_on_c, 2, 48, 50
2, 594600, Note_off_c, 2, 48, 0
2, 594600, Note_on_c, 2, 49, 50
2, 594840, Note_off_c, 2, 49, 0
2, 595080, Note_on_c, 2, 49, 50
2, 595320, Note_off_c, 2, 49, 0
2, 595560, Note_on_c, 2, 42, 50
2, 595800, Note_off_c, 2, 42, 0
2, 596040, Note_on_c, 2, 46, 50
2, 596280, Note_off_c, 2, 46, 0
2, 596280, Note_on_c, 2, 42, 50
2, 596520, Note_off_c, 2, 42, 0
2, 596520, Note_on_c, 2, 44, 50
2, 596760, Note_off_c, 2, 44, 0
2, 596760, Note_on_c, 2, 44, 50
2, 597000, Note_off_c, 2, 44, 0
2, 597000, Note_on_c, 2, 44, 50
2, 597240, Note_off_c, 2, 44, 0
2, 597240, Note_on_c, 2, 44, 50
2, 597360, Note_off_c, 2, 44, 0
2, 597480, Note_on_c, 2, 44, 50
2, 597720, Note_off_c, 2, 44, 0
2, 597720, Note_on_c, 2, 44, 50
2, 597960, Note_off_c, 2, 44, 0
2, 597960, Note_on_c, 2, 46, 50
2, 598200, Note_off_c, 2, 46, 0
2, 598200, Note_on_c, 2, 48, 50
2, 598440, Note_off_c, 2, 48, 0
2, 598440, Note_on_c, 2, 49, 50
2, 598680, Note_off_c, 2, 49, 0
2, 598920, Note_on_c, 2, 49, 50
2, 599160, Note_off_c, 2, 49, 0
2, 599400, Note_on_c, 2, 42, 50
2, 599640, Note_off_c, 2, 42, 0
2, 599880, Note_on_c, 2, 46, 50
2, 600120, Note_off_c, 2, 46, 0
2, 600120, Note_on_c, 2, 42, 50
2, 600360, Note_off_c, 2, 42, 0
2, 600360, Note_on_c, 2, 44, 50
2, 600600, Note_off_c, 2, 44, 0
2, 600600, Note_on_c, 2, 44, 50
2, 600720, Note_off_c, 2, 44, 0
2, 600840, Note_on_c, 2, 44, 50
2, 601080, Note_off_c, 2, 44, 0
2, 601080, Note_on_c, 2, 44, 50
2, 601200, Note_off_c, 2, 44, 0
2, 601320, Note_on_c, 2, 44, 50
2, 601440, Note_off_c, 2, 44, 0
2, 601560, Note_on_c, 2, 44, 50
2, 601800, Note_off_c, 2, 44, 0
2, 601800, Note_on_c, 2, 46, 50
2, 602040, Note_off_c, 2, 46, 0
2, 602040, Note_on_c, 2, 48, 50
2, 602280, Note_off_c, 2, 48, 0
2, 602280, Note_on_c, 2, 49, 50
2, 602520, Note_off_c, 2, 49, 0
2, 602760, Note_on_c, 2, 49, 50
2, 603000, Note_off_c, 2, 49, 0
2, 603240, Note_on_c, 2, 42, 50
2, 603480, Note_off_c, 2, 42, 0
2, 603720, Note_on_c, 2, 46, 50
2, 603960, Note_off_c, 2, 46, 0
2, 603960, Note_on_c, 2, 42, 50
2, 604200, Note_off_c, 2, 42, 0
2, 604200, Note_on_c, 2, 44, 50
2, 604440, Note_off_c, 2, 44, 0
2, 604440, Note_on_c, 2, 44, 50
2, 604680, Note_off_c, 2, 44, 0
2, 604680, Note_on_c, 2, 44, 50
2, 604920, Note_off_c, 2, 44, 0
2, 604920, Note_on_c, 2, 44, 50
2, 605040, Note_off_c, 2, 44, 0
2, 605160, Note_on_c, 2, 44, 50
2, 605280, Note_off_c, 2, 44, 0
2, 605400, Note_on_c, 2, 44, 50
2, 605640, Note_off_c, 2, 44, 0
2, 605640, Note_on_c, 2, 46, 50
2, 605880, Note_off_c, 2, 46, 0
2, 605880, Note_on_c, 2, 48, 50
2, 606120, Note_off_c, 2, 48, 0
2, 606120, Note_on_c, 2, 49, 50
2, 606360, Note_off_c, 2, 49, 0
2, 606600, Note_on_c, 2, 49, 50
2, 606840, Note_off_c, 2, 49, 0
2, 607080, Note_on_c, 2, 42, 50
2, 607320, Note_off_c, 2, 42, 0
2, 607560, Note_on_c, 2, 46, 50
2, 607800, Note_off_c, 2, 46, 0
2, 607800, Note_on_c, 2, 42, 50
2, 608040, Note_off_c, 2, 42, 0
2, 608040, Note_on_c, 2, 44, 50
2, 608280, Note_off_c, 2, 44, 0
2, 608280, Note_on_c, 2, 44, 50
2, 608520, Note_off_c, 2, 44, 0
2, 608520, Note_on_c, 2, 44, 50
2, 608760, Note_off_c, 2, 44, 0
2, 608760, Note_on_c, 2, 44, 50
2, 608880, Note_off_c, 2, 44, 0
2, 609000, Note_on_c, 2, 44, 50
2, 609120, Note_off_c, 2, 44, 0
2, 609240, Note_on_c, 2, 44, 50
2, 609480, Note_off_c, 2, 44, 0
2, 609480, Note_on_c, 2, 46, 50
2, 609720, Note_off_c, 2, 46, 0
2, 609720, Note_on_c, 2, 48, 50
2, 609960, Note_off_c, 2, 48, 0
2, 609960, Note_on_c, 2, 49, 50
2, 610200, Note_off_c, 2, 49, 0
2, 610440, Note_on_c, 2, 49, 50
2, 610680, Note_off_c, 2, 49, 0
2, 610920, Note_on_c, 2, 42, 50
2, 611160, Note_off_c, 2, 42, 0
2, 611400, Note_on_c, 2, 46, 50
2, 611640, Note_off_c, 2, 46, 0
2, 611640, Note_on_c, 2, 42, 50
2, 611880, Note_off_c, 2, 42, 0
2, 611880, Note_on_c, 2, 44, 50
2, 612120, Note_off_c, 2, 44, 0
2, 612120, Note_on_c, 2, 44, 50
2, 612360, Note_off_c, 2, 44, 0
2, 612360, Note_on_c, 2, 44, 50
2, 612600, Note_off_c, 2, 44, 0
2, 612600, Note_on_c, 2, 44, 50
2, 612720, Note_off_c, 2, 44, 0
2, 612840, Note_on_c, 2, 44, 50
2, 613080, Note_off_c, 2, 44, 0
2, 613080, Note_on_c, 2, 44, 50
2, 613320, Note_off_c, 2, 44, 0
2, 613320, Note_on_c, 2, 46, 50
2, 613560, Note_off_c, 2, 46, 0
2, 613560, Note_on_c, 2, 48, 50
2, 613800, Note_off_c, 2, 48, 0
2, 613800, Note_on_c, 2, 49, 50
2, 614040, Note_off_c, 2, 49, 0
2, 614280, Note_on_c, 2, 49, 50
2, 614520, Note_off_c, 2, 49, 0
2, 614760, Note_on_c, 2, 42, 50
2, 615000, Note_off_c, 2, 42, 0
2, 615240, Note_on_c, 2, 46, 50
2, 615480, Note_off_c, 2, 46, 0
2, 615480, Note_on_c, 2, 42, 50
2, 615720, Note_off_c, 2, 42, 0
2, 615720, Note_on_c, 2, 44, 50
2, 615960, Note_off_c, 2, 44, 0
2, 615960, Note_on_c, 2, 44, 50
2, 616080, Note_off_c, 2, 44, 0
2, 616200, Note_on_c, 2, 44, 50
2, 616440, Note_off_c, 2, 44, 0
2, 616440, Note_on_c, 2, 44, 50
2, 616560, Note_off_c, 2, 44, 0
2, 616680, Note_on_c, 2, 44, 50
2, 616800, Note_off_c, 2, 44, 0
2, 616920, Note_on_c, 2, 44, 50
2, 617160, Note_off_c, 2, 44, 0
2, 617160, Note_on_c, 2, 46, 50
2, 617400, Note_off_c, 2, 46, 0
2, 617400, Note_on_c, 2, 48, 50
2, 617640, Note_off_c, 2, 48, 0
2, 617640, Note_on_c, 2, 49, 50
2, 617880, Note_off_c, 2, 49, 0
2, 618120, Note_on_c, 2, 49, 50
2, 618360, Note_off_c, 2, 49, 0
2, 618600, Note_on_c, 2, 42, 50
2, 618840, Note_off_c, 2, 42, 0
2, 619080, Note_on_c, 2, 46, 50
2, 619320, Note_off_c, 2, 46, 0
2, 619320, Note_on_c, 2, 42, 50
2, 619560, Note_off_c, 2, 42, 0
2, 619560, Note_on_c, 2, 44, 50
2, 619800, Note_off_c, 2, 44, 0
2, 619800, Note_on_c, 2, 44, 50
2, 620040, Note_off_c, 2, 44, 0
2, 620040, Note_on_c, 2, 44, 50
2, 620280, Note_off_c, 2, 44, 0
2, 620280, Note_on_c, 2, 44, 50
2, 620400, Note_off_c, 2, 44, 0
2, 620520, Note_on_c, 2, 44, 50
2, 620640, Note_off_c, 2, 44, 0
2, 620760, Note_on_c, 2, 44, 50
2, 621000, Note_off_c, 2, 44, 0
2, 621000, Note_on_c, 2, 46, 50
2, 621240, Note_off_c, 2, 46, 0
2, 621240, Note_on_c, 2, 48, 50
2, 621480, Note_off_c, 2, 48, 0
2, 621480, Note_on_c, 2, 49, 50
2, 621720, Note_off_c, 2, 49, 0
2, 621960, Note_on_c, 2, 49, 50
2, 622200, Note_off_c, 2, 49, 0
2, 622440, Note_on_c, 2, 42, 50
2, 622680, Note_off_c, 2, 42, 0
2, 622920, Note_on_c, 2, 46, 50
2, 623160, Note_off_c, 2, 46, 0
2, 623160, Note_on_c, 2, 42, 50
2, 623400, Note_off_c, 2, 42, 0
2, 623400, Note_on_c, 2, 44, 50
2, 623640, Note_off_c, 2, 44, 0
2, 623640, Note_on_c, 2, 44, 50
2, 623880, Note_off_c, 2, 44, 0
2, 623880, Note_on_c, 2, 44, 50
2, 624120, Note_off_c, 2, 44, 0
2, 624120, Note_on_c, 2, 44, 50
2, 624240, Note_off_c, 2, 44, 0
2, 624360, Note_on_c, 2, 44, 50
2, 624480, Note_off_c, 2, 44, 0
2, 624600, Note_on_c, 2, 44, 50
2, 624840, Note_off_c, 2, 44, 0
2, 624840, Note_on_c, 2, 46, 50
2, 625080, Note_off_c, 2, 46, 0
2, 625080, Note_on_c, 2, 48, 50
2, 625320, Note_off_c, 2, 48, 0
2, 625320, Note_on_c, 2, 49, 50
2, 625560, Note_off_c, 2, 49, 0
2, 625800, Note_on_c, 2, 49, 50
2, 626040, Note_off_c, 2, 49, 0
2, 626280, Note_on_c, 2, 42, 50
2, 626520, Note_off_c, 2, 42, 0
2, 626760, Note_on_c, 2, 46, 50
2, 627000, Note_off_c, 2, 46, 0
2, 627000, Note_on_c, 2, 42, 50
2, 627240, Note_off_c, 2, 42, 0
2, 627240, Note_on_c, 2, 44, 50
2, 627480, Note_off_c, 2, 44, 0
2, 627480, Note_on_c, 2, 44, 50
2, 627720, Note_off_c, 2, 44, 0
2, 627720, Note_on_c, 2, 44, 50
2, 627960, Note_off_c, 2, 44, 0
2, 627960, Note_on_c, 2, 44, 50
2, 628080, Note_off_c, 2, 44, 0
2, 628200, Note_on_c, 2, 44, 50
2, 628320, Note_off_c, 2, 44, 0
2, 628440, Note_on_c, 2, 44, 50
2, 628680, Note_off_c, 2, 44, 0
2, 628680, Note_on_c, 2, 46, 50
2, 628920, Note_off_c, 2, 46, 0
2, 628920, Note_on_c, 2, 48, 50
2, 629160, Note_off_c, 2, 48, 0
2, 629160, Note_on_c, 2, 49, 50
2, 629400, Note_off_c, 2, 49, 0
2, 629640, Note_on_c, 2, 49, 50
2, 629880, Note_off_c, 2, 49, 0
2, 630120, Note_on_c, 2, 42, 50
2, 630360, Note_off_c, 2, 42, 0
2, 630600, Note_on_c, 2, 46, 50
2, 630840, Note_off_c, 2, 46, 0
2, 630840, Note_on_c, 2, 42, 50
2, 631080, Note_off_c, 2, 42, 0
2, 631080, Note_on_c, 2, 44, 50
2, 631320, Note_off_c, 2, 44, 0
2, 631320, Note_on_c, 2, 44, 50
2, 631560, Note_off_c, 2, 44, 0
2, 631560, Note_on_c, 2, 44, 50
2, 631800, Note_off_c, 2, 44, 0
2, 631800, Note_on_c, 2, 44, 50
2, 631920, Note_off_c, 2, 44, 0
2, 632040, Note_on_c, 2, 44, 50
2, 632160, Note_off_c, 2, 44, 0
2, 632280, Note_on_c, 2, 44, 50
2, 632520, Note_off_c, 2, 44, 0
2, 632520, Note_on_c, 2, 46, 50
2, 632760, Note_off_c, 2, 46, 0
2, 632760, Note_on_c, 2, 48, 50
2, 633000, Note_off_c, 2, 48, 0
2, 633000, Note_on_c, 2, 49, 50
2, 633240, Note_off_c, 2, 49, 0
2, 633480, Note_on_c, 2, 49, 50
2, 633720, Note_off_c, 2, 49, 0
2, 633960, Note_on_c, 2, 42, 50
2, 634200, Note_off_c, 2, 42, 0
2, 634440, Note_on_c, 2, 46, 50
2, 634680, Note_off_c, 2, 46, 0
2, 634680, Note_on_c, 2, 42, 50
2, 634920, Note_off_c, 2, 42, 0
2, 634920, Note_on_c, 2, 44, 50
2, 635160, Note_off_c, 2, 44, 0
2, 635160, Note_on_c, 2, 44, 50
2, 635400, Note_off_c, 2, 44, 0
2, 635400, Note_on_c, 2, 44, 50
2, 635640, Note_off_c, 2, 44, 0
2, 635640, Note_on_c, 2, 44, 50
2, 635760, Note_off_c, 2, 44, 0
2, 635880, Note_on_c, 2, 44, 50
2, 636000, Note_off_c, 2, 44, 0
2, 636120, Note_on_c, 2, 44, 50
2, 636360, Note_off_c, 2, 44, 0
2, 636360, Note_on_c, 2, 44, 50
2, 636600, Note_off_c, 2, 44, 0
2, 636600, Note_on_c, 2, 44, 50
2, 636840, Note_off_c, 2, 44, 0
2, 636840, Note_on_c, 2, 44, 50
2, 637080, Note_off_c, 2, 44, 0
2, 637080, Note_on_c, 2, 44, 50
2, 637200, Note_off_c, 2, 44, 0
2, 637320, Note_on_c, 2, 44, 50
2, 637440, Note_off_c, 2, 44, 0
2, 637560, Note_on_c, 2, 44, 50
2, 637800, Note_off_c, 2, 44, 0
2, 637800, Note_on_c, 2, 44, 50
2, 637920, Note_off_c, 2, 44, 0
2, 638040, Note_on_c, 2, 44, 50
2, 638160, Note_off_c, 2, 44, 0
2, 638280, Note_on_c, 2, 44, 50
2, 638520, Note_off_c, 2, 44, 0
2, 638520, Note_on_c, 2, 44, 50
2, 638640, Note_off_c, 2, 44, 0
2, 638760, Note_on_c, 2, 44, 50
2, 639000, Note_off_c, 2, 44, 0
2, 639000, Note_on_c, 2, 44, 50
2, 639120, Note_off_c, 2, 44, 0
2, 639240, Note_on_c, 2, 44, 50
2, 639360, Note_off_c, 2, 44, 0
2, 639480, Note_on_c, 2, 44, 50
2, 639600, Note_off_c, 2, 44, 0
2, 639720, Note_on_c, 2, 44, 50
2, 639840, Note_off_c, 2, 44, 0
2, 639960, Note_on_c, 2, 44, 50
2, 640080, Note_off_c, 2, 44, 0
2, 640200, Note_on_c, 2, 44, 50
2, 640440, Note_off_c, 2, 44, 0
2, 640440, Note_on_c, 2, 44, 50
2, 640560, Note_off_c, 2, 44, 0
2, 640680, Note_on_c, 2, 44, 50
2, 640800, Note_off_c, 2, 44, 0
2, 640920, Note_on_c, 2, 44, 50
2, 641040, Note_off_c, 2, 44, 0
2, 641160, Note_on_c, 2, 44, 50
2, 641280, Note_off_c, 2, 44, 0
2, 641400, Note_on_c, 2, 44, 50
2, 641640, Note_off_c, 2, 44, 0
2, 641640, Note_on_c, 2, 44, 50
2, 641760, Note_off_c, 2, 44, 0
2, 641880, Note_on_c, 2, 44, 50
2, 642120, Note_off_c, 2, 44, 0
2, 642120, Note_on_c, 2, 44, 50
2, 642240, Note_off_c, 2, 44, 0
2, 642360, Note_on_c, 2, 44, 50
2, 642480, Note_off_c, 2, 44, 0
2, 642960, Note_on_c, 2, 44, 50
2, 643080, Note_off_c, 2, 44, 0
2, 643200, Note_on_c, 2, 45, 50
2, 643440, Note_off_c, 2, 45, 0
2, 643560, Note_on_c, 2, 46, 50
2, 643800, Note_off_c, 2, 46, 0
2, 643920, Note_on_c, 2, 47, 50
2, 644040, Note_off_c, 2, 47, 0
2, 644160, Note_on_c, 2, 48, 50
2, 644280, Note_off_c, 2, 48, 0
2, 644520, Note_on_c, 2, 49, 50
2, 644640, Note_off_c, 2, 49, 0
2, 650520, Note_on_c, 2, 77, 50
2, 650640, Note_off_c, 2, 77, 0
2, 650640, Note_on_c, 2, 77, 50
2, 650760, Note_off_c, 2, 77, 0
2, 650760, Note_on_c, 2, 77, 50
2, 651000, Note_off_c, 2, 77, 0
2, 651000, Note_on_c, 2, 77, 50
2, 651240, Note_off_c, 2, 77, 0
2, 651240, Note_on_c, 2, 79, 50
2, 651600, Note_off_c, 2, 79, 0
2, 651600, Note_on_c, 2, 77, 50
2, 652200, Note_off_c, 2, 77, 0
2, 652440, Note_on_c, 2, 69, 50
2, 652560, Note_off_c, 2, 69, 0
2, 652560, Note_on_c, 2, 69, 50
2, 652680, Note_off_c, 2, 69, 0
2, 652680, Note_on_c, 2, 72, 50
2, 652920, Note_off_c, 2, 72, 0
2, 652920, Note_on_c, 2, 77, 50
2, 653040, Note_off_c, 2, 77, 0
2, 653040, Note_on_c, 2, 79, 50
2, 653280, Note_off_c, 2, 79, 0
2, 653280, Note_on_c, 2, 79, 50
2, 653640, Note_off_c, 2, 79, 0
2, 653640, Note_on_c, 2, 79, 50
2, 653880, Note_off_c, 2, 79, 0
2, 653880, Note_on_c, 2, 79, 50
2, 654120, Note_off_c, 2, 79, 0
2, 654120, Note_on_c, 2, 79, 50
2, 654240, Note_off_c, 2, 79, 0
2, 654240, Note_on_c, 2, 77, 50
2, 654480, Note_off_c, 2, 77, 0
2, 654480, Note_on_c, 2, 77, 50
2, 654840, Note_off_c, 2, 77, 0
2, 654840, Note_on_c, 2, 77, 50
2, 655080, Note_off_c, 2, 77, 0
2, 655080, Note_on_c, 2, 77, 50
2, 656040, Note_off_c, 2, 77, 0
2, 656280, Note_on_c, 2, 77, 50
2, 656400, Note_off_c, 2, 77, 0
2, 656400, Note_on_c, 2, 77, 50
2, 656520, Note_off_c, 2, 77, 0
2, 656520, Note_on_c, 2, 77, 50
2, 656760, Note_off_c, 2, 77, 0
2, 656760, Note_on_c, 2, 77, 50
2, 657000, Note_off_c, 2, 77, 0
2, 657000, Note_on_c, 2, 79, 50
2, 657360, Note_off_c, 2, 79, 0
2, 657360, Note_on_c, 2, 77, 50
2, 657960, Note_off_c, 2, 77, 0
2, 658200, Note_on_c, 2, 69, 50
2, 658320, Note_off_c, 2, 69, 0
2, 658320, Note_on_c, 2, 69, 50
2, 658440, Note_off_c, 2, 69, 0
2, 658440, Note_on_c, 2, 72, 50
2, 658680, Note_off_c, 2, 72, 0
2, 658680, Note_on_c, 2, 77, 50
2, 658920, Note_off_c, 2, 77, 0
2, 658920, Note_on_c, 2, 79, 50
2, 659160, Note_off_c, 2, 79, 0
2, 659160, Note_on_c, 2, 79, 50
2, 659400, Note_off_c, 2, 79, 0
2, 659400, Note_on_c, 2, 79, 50
2, 659520, Note_off_c, 2, 79, 0
2, 659520, Note_on_c, 2, 79, 50
2, 659880, Note_off_c, 2, 79, 0
2, 659880, Note_on_c, 2, 79, 50
2, 660120, Note_off_c, 2, 79, 0
2, 660120, Note_on_c, 2, 77, 50
2, 660360, Note_off_c, 2, 77, 0
2, 660360, Note_on_c, 2, 77, 50
2, 660600, Note_off_c, 2, 77, 0
2, 660600, Note_on_c, 2, 77, 50
2, 660720, Note_off_c, 2, 77, 0
2, 660720, Note_on_c, 2, 77, 50
2, 661800, Note_off_c, 2, 77, 0
2, 661800, Note_on_c, 2, 84, 50
2, 661920, Note_off_c, 2, 84, 0
2, 661920, Note_on_c, 2, 82, 50
2, 662280, Note_off_c, 2, 82, 0
2, 662280, Note_on_c, 2, 82, 50
2, 662520, Note_off_c, 2, 82, 0
2, 662520, Note_on_c, 2, 77, 50
2, 662640, Note_off_c, 2, 77, 0
2, 662640, Note_on_c, 2, 77, 50
2, 663720, Note_off_c, 2, 77, 0
2, 663720, Note_on_c, 2, 84, 50
2, 663840, Note_off_c, 2, 84, 0
2, 663840, Note_on_c, 2, 82, 50
2, 664200, Note_off_c, 2, 82, 0
2, 664200, Note_on_c, 2, 82, 50
2, 664440, Note_off_c, 2, 82, 0
2, 664440, Note_on_c, 2, 77, 50
2, 664560, Note_off_c, 2, 77, 0
2, 664560, Note_on_c, 2, 77, 50
2, 664920, Note_off_c, 2, 77, 0
2, 664920, Note_on_c, 2, 76, 50
2, 665640, Note_off_c, 2, 76, 0
2, 665880, Note_on_c, 2, 77, 50
2, 666000, Note_off_c, 2, 77, 0
2, 666000, Note_on_c, 2, 77, 50
2, 666120, Note_off_c, 2, 77, 0
2, 666120, Note_on_c, 2, 77, 50
2, 666360, Note_off_c, 2, 77, 0
2, 666360, Note_on_c, 2, 77, 50
2, 666600, Note_off_c, 2, 77, 0
2, 666600, Note_on_c, 2, 79, 50
2, 666960, Note_off_c, 2, 79, 0
2, 666960, Note_on_c, 2, 77, 50
2, 667560, Note_off_c, 2, 77, 0
2, 667800, Note_on_c, 2, 69, 50
2, 667920, Note_off_c, 2, 69, 0
2, 667920, Note_on_c, 2, 69, 50
2, 668040, Note_off_c, 2, 69, 0
2, 668040, Note_on_c, 2, 72, 50
2, 668160, Note_off_c, 2, 72, 0
2, 668160, Note_on_c, 2, 77, 50
2, 668400, Note_off_c, 2, 77, 0
2, 668400, Note_on_c, 2, 79, 50
2, 668760, Note_off_c, 2, 79, 0
2, 668760, Note_on_c, 2, 79, 50
2, 669000, Note_off_c, 2, 79, 0
2, 669000, Note_on_c, 2, 79, 50
2, 669240, Note_off_c, 2, 79, 0
2, 669240, Note_on_c, 2, 79, 50
2, 669480, Note_off_c, 2, 79, 0
2, 669480, Note_on_c, 2, 79, 50
2, 669720, Note_off_c, 2, 79, 0
2, 669720, Note_on_c, 2, 77, 50
2, 669840, Note_off_c, 2, 77, 0
2, 669840, Note_on_c, 2, 77, 50
2, 670080, Note_off_c, 2, 77, 0
2, 670080, Note_on_c, 2, 77, 50
2, 670440, Note_off_c, 2, 77, 0
2, 670440, Note_on_c, 2, 77, 50
2, 671400, Note_off_c, 2, 77, 0
2, 671640, Note_on_c, 2, 77, 50
2, 671760, Note_off_c, 2, 77, 0
2, 671760, Note_on_c, 2, 77, 50
2, 671880, Note_off_c, 2, 77, 0
2, 671880, Note_on_c, 2, 77, 50
2, 672120, Note_off_c, 2, 77, 0
2, 672120, Note_on_c, 2, 77, 50
2, 672360, Note_off_c, 2, 77, 0
2, 672360, Note_on_c, 2, 79, 50
2, 672720, Note_off_c, 2, 79, 0
2, 672720, Note_on_c, 2, 77, 50
2, 673320, Note_off_c, 2, 77, 0
2, 673560, Note_on_c, 2, 69, 50
2, 673680, Note_off_c, 2, 69, 0
2, 673680, Note_on_c, 2, 69, 50
2, 673800, Note_off_c, 2, 69, 0
2, 673800, Note_on_c, 2, 72, 50
2, 674040, Note_off_c, 2, 72, 0
2, 674040, Note_on_c, 2, 77, 50
2, 674280, Note_off_c, 2, 77, 0
2, 674280, Note_on_c, 2, 79, 50
2, 674520, Note_off_c, 2, 79, 0
2, 674520, Note_on_c, 2, 79, 50
2, 674760, Note_off_c, 2, 79, 0
2, 674760, Note_on_c, 2, 79, 50
2, 675000, Note_off_c, 2, 79, 0
2, 675000, Note_on_c, 2, 79, 50
2, 675240, Note_off_c, 2, 79, 0
2, 675240, Note_on_c, 2, 79, 50
2, 675480, Note_off_c, 2, 79, 0
2, 675480, Note_on_c, 2, 77, 50
2, 675720, Note_off_c, 2, 77, 0
2, 675720, Note_on_c, 2, 77, 50
2, 675960, Note_off_c, 2, 77, 0
2, 675960, Note_on_c, 2, 77, 50
2, 676200, Note_off_c, 2, 77, 0
2, 676200, Note_on_c, 2, 77, 50
2, 676560, Note_off_c, 2, 77, 0
2, 676560, Note_on_c, 2, 79, 50
2, 676680, Note_off_c, 2, 79, 0
2, 676680, Note_on_c, 2, 81, 50
2, 677160, Note_off_c, 2, 81, 0
2, 677160, Note_on_c, 2, 84, 50
2, 677280, Note_off_c, 2, 84, 0
2, 677280, Note_on_c, 2, 82, 50
2, 677640, Note_off_c, 2, 82, 0
2, 677640, Note_on_c, 2, 82, 50
2, 677880, Note_off_c, 2, 82, 0
2, 677880, Note_on_c, 2, 77, 50
2, 678000, Note_off_c, 2, 77, 0
2, 678000, Note_on_c, 2, 77, 50
2, 679080, Note_off_c, 2, 77, 0
2, 679080, Note_on_c, 2, 84, 50
2, 679200, Note_off_c, 2, 84, 0
2, 679200, Note_on_c, 2, 82, 50
2, 679560, Note_off_c, 2, 82, 0
2, 679560, Note_on_c, 2, 82, 50
2, 679800, Note_off_c, 2, 82, 0
2, 679800, Note_on_c, 2, 77, 50
2, 679920, Note_off_c, 2, 77, 0
2, 679920, Note_on_c, 2, 77, 50
2, 680280, Note_off_c, 2, 77, 0
2, 680280, Note_on_c, 2, 76, 50
2, 681000, Note_off_c, 2, 76, 0
2, 681000, Note_on_c, 2, 81, 50
2, 681480, Note_off_c, 2, 81, 0
2, 681480, Note_on_c, 2, 81, 50
2, 681960, Note_off_c, 2, 81, 0
2, 681960, Note_on_c, 2, 81, 50
2, 682200, Note_off_c, 2, 81, 0
2, 682200, Note_on_c, 2, 81, 50
2, 682680, Note_off_c, 2, 81, 0
2, 682680, Note_on_c, 2, 81, 50
2, 683640, Note_off_c, 2, 81, 0
2, 683640, Note_on_c, 2, 81, 50
2, 683880, Note_off_c, 2, 81, 0
2, 683880, Note_on_c, 2, 79, 50
2, 684120, Note_off_c, 2, 79, 0
2, 684120, Note_on_c, 2, 81, 50
2, 684600, Note_off_c, 2, 81, 0
2, 684600, Note_on_c, 2, 82, 50
2, 685320, Note_off_c, 2, 82, 0
2, 685320, Note_on_c, 2, 81, 50
2, 685800, Note_off_c, 2, 81, 0
2, 685800, Note_on_c, 2, 79, 50
2, 686040, Note_off_c, 2, 79, 0
2, 686040, Note_on_c, 2, 77, 50
2, 686520, Note_off_c, 2, 77, 0
2, 686520, Note_on_c, 2, 76, 50
2, 687480, Note_off_c, 2, 76, 0
2, 687480, Note_on_c, 2, 76, 50
2, 687720, Note_off_c, 2, 76, 0
2, 687720, Note_on_c, 2, 81, 50
2, 688080, Note_off_c, 2, 81, 0
2, 688080, Note_on_c, 2, 81, 50
2, 688440, Note_off_c, 2, 81, 0
2, 688680, Note_on_c, 2, 81, 50
2, 689040, Note_off_c, 2, 81, 0
2, 689040, Note_on_c, 2, 77, 50
2, 689400, Note_off_c, 2, 77, 0
2, 689640, Note_on_c, 2, 77, 50
2, 690600, Note_off_c, 2, 77, 0
2, 692520, Note_on_c, 2, 81, 50
2, 693000, Note_off_c, 2, 81, 0
2, 693000, Note_on_c, 2, 81, 50
2, 693480, Note_off_c, 2, 81, 0
2, 693480, Note_on_c, 2, 81, 50
2, 693720, Note_off_c, 2, 81, 0
2, 693720, Note_on_c, 2, 81, 50
2, 694200, Note_off_c, 2, 81, 0
2, 694200, Note_on_c, 2, 81, 50
2, 695160, Note_off_c, 2, 81, 0
2, 695160, Note_on_c, 2, 81, 50
2, 695400, Note_off_c, 2, 81, 0
2, 695400, Note_on_c, 2, 79, 50
2, 695640, Note_off_c, 2, 79, 0
2, 695640, Note_on_c, 2, 81, 50
2, 696120, Note_off_c, 2, 81, 0
2, 696120, Note_on_c, 2, 82, 50
2, 696840, Note_off_c, 2, 82, 0
2, 696840, Note_on_c, 2, 81, 50
2, 697320, Note_off_c, 2, 81, 0
2, 697320, Note_on_c, 2, 79, 50
2, 697560, Note_off_c, 2, 79, 0
2, 697560, Note_on_c, 2, 77, 50
2, 698040, Note_off_c, 2, 77, 0
2, 698040, Note_on_c, 2, 76, 50
2, 699000, Note_off_c, 2, 76, 0
2, 699000, Note_on_c, 2, 76, 50
2, 699240, Note_off_c, 2, 76, 0
2, 699240, Note_on_c, 2, 81, 50
2, 699720, Note_off_c, 2, 81, 0
2, 699720, Note_on_c, 2, 81, 50
2, 700200, Note_off_c, 2, 81, 0
2, 700200, Note_on_c, 2, 81, 50
2, 700800, Note_off_c, 2, 81, 0
2, 700800, Note_on_c, 2, 77, 50
2, 701160, Note_off_c, 2, 77, 0
2, 701160, Note_on_c, 2, 77, 50
2, 701760, Note_off_c, 2, 77, 0
2, 701760, Note_on_c, 2, 77, 50
2, 702120, Note_off_c, 2, 77, 0
2, 702120, Note_on_c, 2, 77, 50
2, 703560, Note_off_c, 2, 77, 0
2, 704280, Note_on_c, 2, 77, 50
2, 704400, Note_off_c, 2, 77, 0
2, 704400, Note_on_c, 2, 77, 50
2, 704520, Note_off_c, 2, 77, 0
2, 704520, Note_on_c, 2, 77, 50
2, 704760, Note_off_c, 2, 77, 0
2, 704760, Note_on_c, 2, 77, 50
2, 705000, Note_off_c, 2, 77, 0
2, 705000, Note_on_c, 2, 79, 50
2, 705360, Note_off_c, 2, 79, 0
2, 705360, Note_on_c, 2, 77, 50
2, 705960, Note_off_c, 2, 77, 0
2, 706200, Note_on_c, 2, 69, 50
2, 706320, Note_off_c, 2, 69, 0
2, 706320, Note_on_c, 2, 69, 50
2, 706440, Note_off_c, 2, 69, 0
2, 706440, Note_on_c, 2, 72, 50
2, 706560, Note_off_c, 2, 72, 0
2, 706560, Note_on_c, 2, 77, 50
2, 706800, Note_off_c, 2, 77, 0
2, 706800, Note_on_c, 2, 79, 50
2, 707160, Note_off_c, 2, 79, 0
2, 707160, Note_on_c, 2, 79, 50
2, 707400, Note_off_c, 2, 79, 0
2, 707400, Note_on_c, 2, 79, 50
2, 707640, Note_off_c, 2, 79, 0
2, 707640, Note_on_c, 2, 79, 50
2, 707880, Note_off_c, 2, 79, 0
2, 707880, Note_on_c, 2, 79, 50
2, 708120, Note_off_c, 2, 79, 0
2, 708120, Note_on_c, 2, 77, 50
2, 708240, Note_off_c, 2, 77, 0
2, 708240, Note_on_c, 2, 77, 50
2, 708480, Note_off_c, 2, 77, 0
2, 708480, Note_on_c, 2, 77, 50
2, 708840, Note_off_c, 2, 77, 0
2, 708840, Note_on_c, 2, 77, 50
2, 709800, Note_off_c, 2, 77, 0
2, 710040, Note_on_c, 2, 77, 50
2, 710160, Note_off_c, 2, 77, 0
2, 710160, Note_on_c, 2, 77, 50
2, 710280, Note_off_c, 2, 77, 0
2, 710280, Note_on_c, 2, 77, 50
2, 710520, Note_off_c, 2, 77, 0
2, 710520, Note_on_c, 2, 77, 50
2, 710760, Note_off_c, 2, 77, 0
2, 710760, Note_on_c, 2, 79, 50
2, 711120, Note_off_c, 2, 79, 0
2, 711120, Note_on_c, 2, 77, 50
2, 711720, Note_off_c, 2, 77, 0
2, 711960, Note_on_c, 2, 69, 50
2, 712080, Note_off_c, 2, 69, 0
2, 712080, Note_on_c, 2, 69, 50
2, 712200, Note_off_c, 2, 69, 0
2, 712200, Note_on_c, 2, 72, 50
2, 712440, Note_off_c, 2, 72, 0
2, 712440, Note_on_c, 2, 77, 50
2, 712680, Note_off_c, 2, 77, 0
2, 712680, Note_on_c, 2, 79, 50
2, 712920, Note_off_c, 2, 79, 0
2, 712920, Note_on_c, 2, 79, 50
2, 713160, Note_off_c, 2, 79, 0
2, 713160, Note_on_c, 2, 79, 50
2, 713400, Note_off_c, 2, 79, 0
2, 713400, Note_on_c, 2, 79, 50
2, 713640, Note_off_c, 2, 79, 0
2, 713640, Note_on_c, 2, 79, 50
2, 713880, Note_off_c, 2, 79, 0
2, 713880, Note_on_c, 2, 77, 50
2, 714120, Note_off_c, 2, 77, 0
2, 714120, Note_on_c, 2, 77, 50
2, 714360, Note_off_c, 2, 77, 0
2, 714360, Note_on_c, 2, 77, 50
2, 714600, Note_off_c, 2, 77, 0
2, 714600, Note_on_c, 2, 77, 50
2, 714960, Note_off_c, 2, 77, 0
2, 714960, Note_on_c, 2, 79, 50
2, 715080, Note_off_c, 2, 79, 0
2, 715080, Note_on_c, 2, 81, 50
2, 715560, Note_off_c, 2, 81, 0
2, 715560, Note_on_c, 2, 84, 50
2, 715680, Note_off_c, 2, 84, 0
2, 715680, Note_on_c, 2, 82, 50
2, 716040, Note_off_c, 2, 82, 0
2, 716040, Note_on_c, 2, 82, 50
2, 716280, Note_off_c, 2, 82, 0
2, 716280, Note_on_c, 2, 77, 50
2, 716400, Note_off_c, 2, 77, 0
2, 716400, Note_on_c, 2, 77, 50
2, 717480, Note_off_c, 2, 77, 0
2, 717480, Note_on_c, 2, 84, 50
2, 717600, Note_off_c, 2, 84, 0
2, 717600, Note_on_c, 2, 82, 50
2, 717960, Note_off_c, 2, 82, 0
2, 717960, Note_on_c, 2, 82, 50
2, 718200, Note_off_c, 2, 82, 0
2, 718200, Note_on_c, 2, 77, 50
2, 718320, Note_off_c, 2, 77, 0
2, 718320, Note_on_c, 2, 77, 50
2, 718680, Note_off_c, 2, 77, 0
2, 718680, Note_on_c, 2, 76, 50
2, 719400, Note_off_c, 2, 76, 0
2, 719400, Note_on_c, 2, 81, 50
2, 719880, Note_off_c, 2, 81, 0
2, 719880, Note_on_c, 2, 81, 50
2, 720360, Note_off_c, 2, 81, 0
2, 720360, Note_on_c, 2, 81, 50
2, 720600, Note_off_c, 2, 81, 0
2, 720600, Note_on_c, 2, 81, 50
2, 721080, Note_off_c, 2, 81, 0
2, 721080, Note_on_c, 2, 81, 50
2, 722040, Note_off_c, 2, 81, 0
2, 722040, Note_on_c, 2, 81, 50
2, 722280, Note_off_c, 2, 81, 0
2, 722280, Note_on_c, 2, 79, 50
2, 722520, Note_off_c, 2, 79, 0
2, 722520, Note_on_c, 2, 81, 50
2, 723000, Note_off_c, 2, 81, 0
2, 723000, Note_on_c, 2, 82, 50
2, 723720, Note_off_c, 2, 82, 0
2, 723720, Note_on_c, 2, 81, 50
2, 724200, Note_off_c, 2, 81, 0
2, 724200, Note_on_c, 2, 79, 50
2, 724440, Note_off_c, 2, 79, 0
2, 724440, Note_on_c, 2, 77, 50
2, 724920, Note_off_c, 2, 77, 0
2, 724920, Note_on_c, 2, 76, 50
2, 725880, Note_off_c, 2, 76, 0
2, 725880, Note_on_c, 2, 76, 50
2, 726120, Note_off_c, 2, 76, 0
2, 726120, Note_on_c, 2, 81, 50
2, 726480, Note_off_c, 2, 81, 0
2, 726480, Note_on_c, 2, 81, 50
2, 726840, Note_off_c, 2, 81, 0
2, 727080, Note_on_c, 2, 81, 50
2, 727440, Note_off_c, 2, 81, 0
2, 727440, Note_on_c, 2, 77, 50
2, 727800, Note_off_c, 2, 77, 0
2, 728040, Note_on_c, 2, 77, 50
2, 729000, Note_off_c, 2, 77, 0
2, 730920, Note_on_c, 2, 81, 50
2, 731400, Note_off_c, 2, 81, 0
2, 731400, Note_on_c, 2, 81, 50
2, 731880, Note_off_c, 2, 81, 0
2, 731880, Note_on_c, 2, 81, 50
2, 732120, Note_off_c, 2, 81, 0
2, 732120, Note_on_c, 2, 81, 50
2, 732600, Note_off_c, 2, 81, 0
2, 732600, Note_on_c, 2, 81, 50
2, 733560, Note_off_c, 2, 81, 0
2, 733560, Note_on_c, 2, 81, 50
2, 733800, Note_off_c, 2, 81, 0
2, 733800, Note_on_c, 2, 79, 50
2, 734040, Note_off_c, 2, 79, 0
2, 734040, Note_on_c, 2, 81, 50
2, 734520, Note_off_c, 2, 81, 0
2, 734520, Note_on_c, 2, 82, 50
2, 735240, Note_off_c, 2, 82, 0
2, 735240, Note_on_c, 2, 81, 50
2, 735720, Note_off_c, 2, 81, 0
2, 735720, Note_on_c, 2, 79, 50
2, 735960, Note_off_c, 2, 79, 0
2, 735960, Note_on_c, 2, 77, 50
2, 736440, Note_off_c, 2, 77, 0
2, 736440, Note_on_c, 2, 76, 50
2, 737400, Note_off_c, 2, 76, 0
2, 737400, Note_on_c, 2, 76, 50
2, 737640, Note_off_c, 2, 76, 0
2, 737640, Note_on_c, 2, 81, 50
2, 738120, Note_off_c, 2, 81, 0
2, 738120, Note_on_c, 2, 81, 50
2, 738600, Note_off_c, 2, 81, 0
2, 738600, Note_on_c, 2, 81, 50
2, 739200, Note_off_c, 2, 81, 0
2, 739200, Note_on_c, 2, 77, 50
2, 739560, Note_off_c, 2, 77, 0
2, 739560, Note_on_c, 2, 77, 50
2, 740160, Note_off_c, 2, 77, 0
2, 740160, Note_on_c, 2, 77, 50
2, 740520, Note_off_c, 2, 77, 0
2, 740520, Note_on_c, 2, 77, 50
2, 741960, Note_off_c, 2, 77, 0
2, 742680, Note_on_c, 2, 77, 50
2, 742800, Note_off_c, 2, 77, 0
2, 742800, Note_on_c, 2, 77, 50
2, 742920, Note_off_c, 2, 77, 0
2, 742920, Note_on_c, 2, 77, 50
2, 743160, Note_off_c, 2, 77, 0
2, 743160, Note_on_c, 2, 77, 50
2, 743400, Note_off_c, 2, 77, 0
2, 743400, Note_on_c, 2, 79, 50
2, 743760, Note_off_c, 2, 79, 0
2, 743760, Note_on_c, 2, 77, 50
2, 744360, Note_off_c, 2, 77, 0
2, 744600, Note_on_c, 2, 69, 50
2, 744720, Note_off_c, 2, 69, 0
2, 744720, Note_on_c, 2, 69, 50
2, 744840, Note_off_c, 2, 69, 0
2, 744840, Note_on_c, 2, 72, 50
2, 744960, Note_off_c, 2, 72, 0
2, 744960, Note_on_c, 2, 77, 50
2, 745200, Note_off_c, 2, 77, 0
2, 745200, Note_on_c, 2, 79, 50
2, 745560, Note_off_c, 2, 79, 0
2, 745560, Note_on_c, 2, 79, 50
2, 745800, Note_off_c, 2, 79, 0
2, 745800, Note_on_c, 2, 79, 50
2, 746040, Note_off_c, 2, 79, 0
2, 746040, Note_on_c, 2, 79, 50
2, 746280, Note_off_c, 2, 79, 0
2, 746280, Note_on_c, 2, 79, 50
2, 746520, Note_off_c, 2, 79, 0
2, 746520, Note_on_c, 2, 77, 50
2, 746640, Note_off_c, 2, 77, 0
2, 746640, Note_on_c, 2, 77, 50
2, 746880, Note_off_c, 2, 77, 0
2, 746880, Note_on_c, 2, 77, 50
2, 747240, Note_off_c, 2, 77, 0
2, 747240, Note_on_c, 2, 77, 50
2, 748200, Note_off_c, 2, 77, 0
2, 748440, Note_on_c, 2, 77, 50
2, 748560, Note_off_c, 2, 77, 0
2, 748560, Note_on_c, 2, 77, 50
2, 748680, Note_off_c, 2, 77, 0
2, 748680, Note_on_c, 2, 77, 50
2, 748920, Note_off_c, 2, 77, 0
2, 748920, Note_on_c, 2, 77, 50
2, 749160, Note_off_c, 2, 77, 0
2, 749160, Note_on_c, 2, 79, 50
2, 749520, Note_off_c, 2, 79, 0
2, 749520, Note_on_c, 2, 77, 50
2, 750120, Note_off_c, 2, 77, 0
2, 750360, Note_on_c, 2, 69, 50
2, 750480, Note_off_c, 2, 69, 0
2, 750480, Note_on_c, 2, 69, 50
2, 750600, Note_off_c, 2, 69, 0
2, 750600, Note_on_c, 2, 72, 50
2, 750840, Note_off_c, 2, 72, 0
2, 750840, Note_on_c, 2, 77, 50
2, 751080, Note_off_c, 2, 77, 0
2, 751080, Note_on_c, 2, 79, 50
2, 751320, Note_off_c, 2, 79, 0
2, 751320, Note_on_c, 2, 79, 50
2, 751560, Note_off_c, 2, 79, 0
2, 751560, Note_on_c, 2, 79, 50
2, 751800, Note_off_c, 2, 79, 0
2, 751800, Note_on_c, 2, 79, 50
2, 752040, Note_off_c, 2, 79, 0
2, 752040, Note_on_c, 2, 79, 50
2, 752280, Note_off_c, 2, 79, 0
2, 752280, Note_on_c, 2, 77, 50
2, 752520, Note_off_c, 2, 77, 0
2, 752520, Note_on_c, 2, 77, 50
2, 752760, Note_off_c, 2, 77, 0
2, 752760, Note_on_c, 2, 77, 50
2, 753000, Note_off_c, 2, 77, 0
2, 753000, Note_on_c, 2, 77, 50
2, 753360, Note_off_c, 2, 77, 0
2, 753360, Note_on_c, 2, 79, 50
2, 753480, Note_off_c, 2, 79, 0
2, 753480, Note_on_c, 2, 81, 50
2, 753960, Note_off_c, 2, 81, 0
2, 753960, Note_on_c, 2, 84, 50
2, 754080, Note_off_c, 2, 84, 0
2, 754080, Note_on_c, 2, 82, 50
2, 754440, Note_off_c, 2, 82, 0
2, 754440, Note_on_c, 2, 82, 50
2, 754680, Note_off_c, 2, 82, 0
2, 754680, Note_on_c, 2, 77, 50
2, 754800, Note_off_c, 2, 77, 0
2, 754800, Note_on_c, 2, 77, 50
2, 755880, Note_off_c, 2, 77, 0
2, 755880, Note_on_c, 2, 84, 50
2, 756000, Note_off_c, 2, 84, 0
2, 756000, Note_on_c, 2, 82, 50
2, 756360, Note_off_c, 2, 82, 0
2, 756360, Note_on_c, 2, 82, 50
2, 756600, Note_off_c, 2, 82, 0
2, 756600, Note_on_c, 2, 77, 50
2, 756720, Note_off_c, 2, 77, 0
2, 756720, Note_on_c, 2, 77, 50
2, 757080, Note_off_c, 2, 77, 0
2, 757080, Note_on_c, 2, 76, 50
2, 757800, Note_off_c, 2, 76, 0
2, 776280, Note_on_c, 2, 76, 50
2, 776520, Note_off_c, 2, 76, 0
2, 776520, Note_on_c, 2, 76, 50
2, 776760, Note_off_c, 2, 76, 0
2, 776760, Note_on_c, 2, 74, 50
2, 777000, Note_off_c, 2, 74, 0
2, 777000, Note_on_c, 2, 76, 50
2, 777480, Note_off_c, 2, 76, 0
2, 777480, Note_on_c, 2, 76, 50
2, 777720, Note_off_c, 2, 76, 0
2, 777720, Note_on_c, 2, 74, 50
2, 777960, Note_off_c, 2, 74, 0
2, 777960, Note_on_c, 2, 76, 50
2, 778200, Note_off_c, 2, 76, 0
2, 778200, Note_on_c, 2, 76, 50
2, 778440, Note_off_c, 2, 76, 0
2, 778440, Note_on_c, 2, 76, 50
2, 778680, Note_off_c, 2, 76, 0
2, 778680, Note_on_c, 2, 77, 50
2, 779400, Note_off_c, 2, 77, 0
2, 779880, Note_on_c, 2, 76, 50
2, 780120, Note_off_c, 2, 76, 0
2, 780120, Note_on_c, 2, 74, 50
2, 780360, Note_off_c, 2, 74, 0
2, 780360, Note_on_c, 2, 76, 50
2, 780600, Note_off_c, 2, 76, 0
2, 780600, Note_on_c, 2, 69, 50
2, 781800, Note_off_c, 2, 69, 0
2, 784440, Note_on_c, 2, 76, 50
2, 784680, Note_off_c, 2, 76, 0
2, 784680, Note_on_c, 2, 76, 50
2, 784800, Note_off_c, 2, 76, 0
2, 784800, Note_on_c, 2, 74, 50
2, 784920, Note_off_c, 2, 74, 0
2, 784920, Note_on_c, 2, 72, 50
2, 785640, Note_off_c, 2, 72, 0
2, 786120, Note_on_c, 2, 74, 50
2, 786360, Note_off_c, 2, 74, 0
2, 786360, Note_on_c, 2, 69, 50
2, 786600, Note_off_c, 2, 69, 0
2, 786600, Note_on_c, 2, 72, 50
2, 786840, Note_off_c, 2, 72, 0
2, 786840, Note_on_c, 2, 74, 50
2, 787080, Note_off_c, 2, 74, 0
2, 787800, Note_on_c, 2, 72, 50
2, 788040, Note_off_c, 2, 72, 0
2, 788040, Note_on_c, 2, 74, 50
2, 788280, Note_off_c, 2, 74, 0
2, 788280, Note_on_c, 2, 76, 50
2, 788520, Note_off_c, 2, 76, 0
2, 788520, Note_on_c, 2, 76, 50
2, 788760, Note_off_c, 2, 76, 0
2, 788760, Note_on_c, 2, 76, 50
2, 789000, Note_off_c, 2, 76, 0
2, 789000, Note_on_c, 2, 76, 50
2, 789240, Note_off_c, 2, 76, 0
2, 789240, Note_on_c, 2, 76, 50
2, 789480, Note_off_c, 2, 76, 0
2, 789480, Note_on_c, 2, 76, 50
2, 789720, Note_off_c, 2, 76, 0
2, 789720, Note_on_c, 2, 74, 50
2, 789960, Note_off_c, 2, 74, 0
2, 789960, Note_on_c, 2, 72, 50
2, 790200, Note_off_c, 2, 72, 0
2, 790200, Note_on_c, 2, 69, 50
2, 790440, Note_off_c, 2, 69, 0
2, 790440, Note_on_c, 2, 72, 50
2, 790680, Note_off_c, 2, 72, 0
2, 790680, Note_on_c, 2, 74, 50
2, 790920, Note_off_c, 2, 74, 0
2, 791640, Note_on_c, 2, 72, 50
2, 791880, Note_off_c, 2, 72, 0
2, 791880, Note_on_c, 2, 74, 50
2, 792120, Note_off_c, 2, 74, 0
2, 792120, Note_on_c, 2, 76, 50
2, 792360, Note_off_c, 2, 76, 0
2, 792360, Note_on_c, 2, 76, 50
2, 792840, Note_off_c, 2, 76, 0
2, 792840, Note_on_c, 2, 76, 50
2, 793080, Note_off_c, 2, 76, 0
2, 793080, Note_on_c, 2, 76, 50
2, 793320, Note_off_c, 2, 76, 0
2, 793320, Note_on_c, 2, 76, 50
2, 793560, Note_off_c, 2, 76, 0
2, 793560, Note_on_c, 2, 74, 50
2, 793800, Note_off_c, 2, 74, 0
2, 793800, Note_on_c, 2, 72, 50
2, 794040, Note_off_c, 2, 72, 0
2, 794040, Note_on_c, 2, 69, 50
2, 794280, Note_off_c, 2, 69, 0
2, 794280, Note_on_c, 2, 72, 50
2, 794520, Note_off_c, 2, 72, 0
2, 794520, Note_on_c, 2, 74, 50
2, 794760, Note_off_c, 2, 74, 0
2, 795720, Note_on_c, 2, 76, 50
2, 796200, Note_off_c, 2, 76, 0
2, 796200, Note_on_c, 2, 77, 50
2, 796680, Note_off_c, 2, 77, 0
2, 796680, Note_on_c, 2, 76, 50
2, 796920, Note_off_c, 2, 76, 0
2, 796920, Note_on_c, 2, 74, 50
2, 798120, Note_off_c, 2, 74, 0
2, 807000, Note_on_c, 2, 76, 50
2, 807240, Note_off_c, 2, 76, 0
2, 807240, Note_on_c, 2, 76, 50
2, 807480, Note_off_c, 2, 76, 0
2, 807480, Note_on_c, 2, 74, 50
2, 807720, Note_off_c, 2, 74, 0
2, 807720, Note_on_c, 2, 76, 50
2, 808200, Note_off_c, 2, 76, 0
2, 808200, Note_on_c, 2, 76, 50
2, 808440, Note_off_c, 2, 76, 0
2, 808440, Note_on_c, 2, 74, 50
2, 808680, Note_off_c, 2, 74, 0
2, 808680, Note_on_c, 2, 76, 50
2, 808920, Note_off_c, 2, 76, 0
2, 808920, Note_on_c, 2, 76, 50
2, 809160, Note_off_c, 2, 76, 0
2, 809160, Note_on_c, 2, 76, 50
2, 809400, Note_off_c, 2, 76, 0
2, 809400, Note_on_c, 2, 77, 50
2, 810120, Note_off_c, 2, 77, 0
2, 810600, Note_on_c, 2, 76, 50
2, 810840, Note_off_c, 2, 76, 0
2, 810840, Note_on_c, 2, 79, 50
2, 811080, Note_off_c, 2, 79, 0
2, 811080, Note_on_c, 2, 76, 50
2, 811320, Note_off_c, 2, 76, 0
2, 811320, Note_on_c, 2, 69, 50
2, 812520, Note_off_c, 2, 69, 0
2, 815160, Note_on_c, 2, 76, 50
2, 815400, Note_off_c, 2, 76, 0
2, 815400, Note_on_c, 2, 76, 50
2, 815520, Note_off_c, 2, 76, 0
2, 815520, Note_on_c, 2, 74, 50
2, 815640, Note_off_c, 2, 74, 0
2, 815640, Note_on_c, 2, 72, 50
2, 816360, Note_off_c, 2, 72, 0
2, 816840, Note_on_c, 2, 74, 50
2, 817080, Note_off_c, 2, 74, 0
2, 817080, Note_on_c, 2, 69, 50
2, 817320, Note_off_c, 2, 69, 0
2, 817320, Note_on_c, 2, 72, 50
2, 817560, Note_off_c, 2, 72, 0
2, 817560, Note_on_c, 2, 74, 50
2, 817800, Note_off_c, 2, 74, 0
2, 818760, Note_on_c, 2, 74, 50
2, 819000, Note_off_c, 2, 74, 0
2, 819000, Note_on_c, 2, 76, 50
2, 819240, Note_off_c, 2, 76, 0
2, 819240, Note_on_c, 2, 76, 50
2, 819480, Note_off_c, 2, 76, 0
2, 819480, Note_on_c, 2, 76, 50
2, 819720, Note_off_c, 2, 76, 0
2, 819720, Note_on_c, 2, 76, 50
2, 819960, Note_off_c, 2, 76, 0
2, 819960, Note_on_c, 2, 76, 50
2, 820200, Note_off_c, 2, 76, 0
2, 820200, Note_on_c, 2, 76, 50
2, 820440, Note_off_c, 2, 76, 0
2, 820440, Note_on_c, 2, 74, 50
2, 820680, Note_off_c, 2, 74, 0
2, 820680, Note_on_c, 2, 72, 50
2, 820920, Note_off_c, 2, 72, 0
2, 820920, Note_on_c, 2, 69, 50
2, 821160, Note_off_c, 2, 69, 0
2, 821160, Note_on_c, 2, 72, 50
2, 821400, Note_off_c, 2, 72, 0
2, 821400, Note_on_c, 2, 74, 50
2, 821640, Note_off_c, 2, 74, 0
2, 822360, Note_on_c, 2, 72, 50
2, 822600, Note_off_c, 2, 72, 0
2, 822600, Note_on_c, 2, 74, 50
2, 822840, Note_off_c, 2, 74, 0
2, 822840, Note_on_c, 2, 76, 50
2, 823080, Note_off_c, 2, 76, 0
2, 823080, Note_on_c, 2, 76, 50
2, 823560, Note_off_c, 2, 76, 0
2, 823560, Note_on_c, 2, 76, 50
2, 823800, Note_off_c, 2, 76, 0
2, 823800, Note_on_c, 2, 76, 50
2, 824040, Note_off_c, 2, 76, 0
2, 824040, Note_on_c, 2, 76, 50
2, 824280, Note_off_c, 2, 76, 0
2, 824280, Note_on_c, 2, 74, 50
2, 824520, Note_off_c, 2, 74, 0
2, 824520, Note_on_c, 2, 72, 50
2, 824760, Note_off_c, 2, 72, 0
2, 824760, Note_on_c, 2, 69, 50
2, 825000, Note_off_c, 2, 69, 0
2, 825000, Note_on_c, 2, 72, 50
2, 825240, Note_off_c, 2, 72, 0
2, 825240, Note_on_c, 2, 74, 50
2, 825480, Note_off_c, 2, 74, 0
2, 826440, Note_on_c, 2, 76, 50
2, 826920, Note_off_c, 2, 76, 0
2, 826920, Note_on_c, 2, 77, 50
2, 827400, Note_off_c, 2, 77, 0
2, 827400, Note_on_c, 2, 76, 50
2, 827640, Note_off_c, 2, 76, 0
2, 827640, Note_on_c, 2, 74, 50
2, 828840, Note_off_c, 2, 74, 0
2, 837720, Note_on_c, 2, 76, 50
2, 837960, Note_off_c, 2, 76, 0
2, 837960, Note_on_c, 2, 76, 50
2, 838200, Note_off_c, 2, 76, 0
2, 838200, Note_on_c, 2, 74, 50
2, 838440, Note_off_c, 2, 74, 0
2, 838440, Note_on_c, 2, 76, 50
2, 838920, Note_off_c, 2, 76, 0
2, 838920, Note_on_c, 2, 76, 50
2, 839160, Note_off_c, 2, 76, 0
2, 839160, Note_on_c, 2, 74, 50
2, 839400, Note_off_c, 2, 74, 0
2, 839400, Note_on_c, 2, 76, 50
2, 839640, Note_off_c, 2, 76, 0
2, 839640, Note_on_c, 2, 76, 50
2, 839880, Note_off_c, 2, 76, 0
2, 839880, Note_on_c, 2, 76, 50
2, 840120, Note_off_c, 2, 76, 0
2, 840120, Note_on_c, 2, 77, 50
2, 840840, Note_off_c, 2, 77, 0
2, 841320, Note_on_c, 2, 76, 50
2, 841560, Note_off_c, 2, 76, 0
2, 841560, Note_on_c, 2, 79, 50
2, 841800, Note_off_c, 2, 79, 0
2, 841800, Note_on_c, 2, 76, 50
2, 842040, Note_off_c, 2, 76, 0
2, 842040, Note_on_c, 2, 69, 50
2, 843240, Note_off_c, 2, 69, 0
2, 845160, Note_on_c, 2, 67, 50
2, 845400, Note_off_c, 2, 67, 0
2, 845400, Note_on_c, 2, 69, 50
2, 845640, Note_off_c, 2, 69, 0
2, 845640, Note_on_c, 2, 72, 50
2, 845880, Note_off_c, 2, 72, 0
2, 845880, Note_on_c, 2, 69, 50
2, 846120, Note_off_c, 2, 69, 0
2, 846120, Note_on_c, 2, 72, 50
2, 846600, Note_off_c, 2, 72, 0
2, 846600, Note_on_c, 2, 72, 50
2, 846840, Note_off_c, 2, 72, 0
2, 846840, Note_on_c, 2, 72, 50
2, 847080, Note_off_c, 2, 72, 0
2, 847320, Note_on_c, 2, 69, 50
2, 847560, Note_off_c, 2, 69, 0
2, 847560, Note_on_c, 2, 72, 50
2, 847800, Note_off_c, 2, 72, 0
2, 847800, Note_on_c, 2, 69, 50
2, 848040, Note_off_c, 2, 69, 0
2, 848040, Note_on_c, 2, 72, 50
2, 848520, Note_off_c, 2, 72, 0
2, 848520, Note_on_c, 2, 72, 50
2, 848760, Note_off_c, 2, 72, 0
2, 848760, Note_on_c, 2, 72, 50
2, 849000, Note_off_c, 2, 72, 0
2, 849240, Note_on_c, 2, 69, 50
2, 849480, Note_off_c, 2, 69, 0
2, 849480, Note_on_c, 2, 72, 50
2, 849720, Note_off_c, 2, 72, 0
2, 849720, Note_on_c, 2, 69, 50
2, 849960, Note_off_c, 2, 69, 0
2, 849960, Note_on_c, 2, 72, 50
2, 850200, Note_off_c, 2, 72, 0
2, 850200, Note_on_c, 2, 69, 50
2, 850440, Note_off_c, 2, 69, 0
2, 850440, Note_on_c, 2, 72, 50
2, 850680, Note_off_c, 2, 72, 0
2, 850680, Note_on_c, 2, 69, 50
2, 850920, Note_off_c, 2, 69, 0
2, 850920, Note_on_c, 2, 72, 50
2, 851160, Note_off_c, 2, 72, 0
2, 851160, Note_on_c, 2, 72, 50
2, 851640, Note_off_c, 2, 72, 0
2, 851640, Note_on_c, 2, 72, 50
2, 852000, Note_off_c, 2, 72, 0
2, 852000, Note_on_c, 2, 74, 50
2, 852120, Note_off_c, 2, 74, 0
2, 852240, Note_on_c, 2, 72, 50
2, 852360, Note_off_c, 2, 72, 0
2, 852360, Note_on_c, 2, 69, 50
2, 852840, Note_off_c, 2, 69, 0
2, 853080, Note_on_c, 2, 79, 50
2, 853320, Note_off_c, 2, 79, 0
2, 853320, Note_on_c, 2, 79, 50
2, 853800, Note_off_c, 2, 79, 0
2, 853800, Note_on_c, 2, 79, 50
2, 854760, Note_off_c, 2, 79, 0
2, 854760, Note_on_c, 2, 77, 50
2, 855000, Note_off_c, 2, 77, 0
2, 855000, Note_on_c, 2, 76, 50
2, 855480, Note_off_c, 2, 76, 0
2, 855480, Note_on_c, 2, 74, 50
2, 856200, Note_off_c, 2, 74, 0
2, 856920, Note_on_c, 2, 67, 50
2, 857160, Note_off_c, 2, 67, 0
2, 857160, Note_on_c, 2, 67, 50
2, 857640, Note_off_c, 2, 67, 0
2, 857640, Note_on_c, 2, 79, 50
2, 858120, Note_off_c, 2, 79, 0
2, 858600, Note_on_c, 2, 77, 50
2, 858840, Note_off_c, 2, 77, 0
2, 858840, Note_on_c, 2, 76, 50
2, 859320, Note_off_c, 2, 76, 0
2, 859320, Note_on_c, 2, 74, 50
2, 860040, Note_off_c, 2, 74, 0
2, 861000, Note_on_c, 2, 72, 50
2, 861240, Note_off_c, 2, 72, 0
2, 861240, Note_on_c, 2, 72, 50
2, 861600, Note_off_c, 2, 72, 0
2, 861600, Note_on_c, 2, 74, 50
2, 861720, Note_off_c, 2, 74, 0
2, 861840, Note_on_c, 2, 72, 50
2, 861960, Note_off_c, 2, 72, 0
2, 861960, Note_on_c, 2, 69, 50
2, 862920, Note_off_c, 2, 69, 0
2, 865080, Note_on_c, 2, 76, 50
2, 865320, Note_off_c, 2, 76, 0
2, 865320, Note_on_c, 2, 76, 50
2, 865440, Note_off_c, 2, 76, 0
2, 865440, Note_on_c, 2, 74, 50
2, 865560, Note_off_c, 2, 74, 0
2, 865560, Note_on_c, 2, 72, 50
2, 866280, Note_off_c, 2, 72, 0
2, 866760, Note_on_c, 2, 74, 50
2, 867000, Note_off_c, 2, 74, 0
2, 867000, Note_on_c, 2, 69, 50
2, 867240, Note_off_c, 2, 69, 0
2, 867240, Note_on_c, 2, 72, 50
2, 867480, Note_off_c, 2, 72, 0
2, 867480, Note_on_c, 2, 74, 50
2, 867720, Note_off_c, 2, 74, 0
2, 868680, Note_on_c, 2, 74, 50
2, 868920, Note_off_c, 2, 74, 0
2, 868920, Note_on_c, 2, 76, 50
2, 869160, Note_off_c, 2, 76, 0
2, 869160, Note_on_c, 2, 76, 50
2, 869400, Note_off_c, 2, 76, 0
2, 869400, Note_on_c, 2, 76, 50
2, 869640, Note_off_c, 2, 76, 0
2, 869640, Note_on_c, 2, 76, 50
2, 869880, Note_off_c, 2, 76, 0
2, 869880, Note_on_c, 2, 76, 50
2, 870120, Note_off_c, 2, 76, 0
2, 870120, Note_on_c, 2, 76, 50
2, 870360, Note_off_c, 2, 76, 0
2, 870360, Note_on_c, 2, 74, 50
2, 870600, Note_off_c, 2, 74, 0
2, 870600, Note_on_c, 2, 72, 50
2, 870840, Note_off_c, 2, 72, 0
2, 870840, Note_on_c, 2, 69, 50
2, 871080, Note_off_c, 2, 69, 0
2, 871080, Note_on_c, 2, 72, 50
2, 871320, Note_off_c, 2, 72, 0
2, 871320, Note_on_c, 2, 74, 50
2, 871560, Note_off_c, 2, 74, 0
2, 872280, Note_on_c, 2, 72, 50
2, 872520, Note_off_c, 2, 72, 0
2, 872520, Note_on_c, 2, 74, 50
2, 872760, Note_off_c, 2, 74, 0
2, 872760, Note_on_c, 2, 76, 50
2, 873000, Note_off_c, 2, 76, 0
2, 873000, Note_on_c, 2, 76, 50
2, 873480, Note_off_c, 2, 76, 0
2, 873480, Note_on_c, 2, 76, 50
2, 873720, Note_off_c, 2, 76, 0
2, 873720, Note_on_c, 2, 76, 50
2, 873960, Note_off_c, 2, 76, 0
2, 873960, Note_on_c, 2, 76, 50
2, 874200, Note_off_c, 2, 76, 0
2, 874200, Note_on_c, 2, 74, 50
2, 874440, Note_off_c, 2, 74, 0
2, 874440, Note_on_c, 2, 72, 50
2, 874680, Note_off_c, 2, 72, 0
2, 874680, Note_on_c, 2, 69, 50
2, 874920, Note_off_c, 2, 69, 0
2, 874920, Note_on_c, 2, 72, 50
2, 875160, Note_off_c, 2, 72, 0
2, 875160, Note_on_c, 2, 74, 50
2, 875400, Note_off_c, 2, 74, 0
2, 876360, Note_on_c, 2, 76, 50
2, 876840, Note_off_c, 2, 76, 0
2, 876840, Note_on_c, 2, 77, 50
2, 877320, Note_off_c, 2, 77, 0
2, 877320, Note_on_c, 2, 76, 50
2, 877560, Note_off_c, 2, 76, 0
2, 877560, Note_on_c, 2, 74, 50
2, 878760, Note_off_c, 2, 74, 0
2, 887640, Note_on_c, 2, 76, 50
2, 887880, Note_off_c, 2, 76, 0
2, 887880, Note_on_c, 2, 76, 50
2, 888120, Note_off_c, 2, 76, 0
2, 888120, Note_on_c, 2, 74, 50
2, 888360, Note_off_c, 2, 74, 0
2, 888360, Note_on_c, 2, 76, 50
2, 888840, Note_off_c, 2, 76, 0
2, 888840, Note_on_c, 2, 76, 50
2, 889080, Note_off_c, 2, 76, 0
2, 889080, Note_on_c, 2, 74, 50
2, 889320, Note_off_c, 2, 74, 0
2, 889320, Note_on_c, 2, 76, 50
2, 889560, Note_off_c, 2, 76, 0
2, 889560, Note_on_c, 2, 76, 50
2, 889800, Note_off_c, 2, 76, 0
2, 889800, Note_on_c, 2, 76, 50
2, 890040, Note_off_c, 2, 76, 0
2, 890040, Note_on_c, 2, 77, 50
2, 890760, Note_off_c, 2, 77, 0
2, 891240, Note_on_c, 2, 76, 50
2, 891480, Note_off_c, 2, 76, 0
2, 891480, Note_on_c, 2, 76, 50
2, 891720, Note_off_c, 2, 76, 0
2, 891720, Note_on_c, 2, 76, 50
2, 891960, Note_off_c, 2, 76, 0
2, 891960, Note_on_c, 2, 76, 50
2, 893880, Note_off_c, 2, 76, 0
2, 893880, Note_on_c, 2, 76, 50
2, 894120, Note_off_c, 2, 76, 0
2, 894120, Note_on_c, 2, 76, 50
2, 894240, Note_off_c, 2, 76, 0
2, 894240, Note_on_c, 2, 76, 50
2, 894360, Note_off_c, 2, 76, 0
2, 894360, Note_on_c, 2, 72, 50
2, 895080, Note_off_c, 2, 72, 0
2, 895320, Note_on_c, 2, 76, 50
2, 895560, Note_off_c, 2, 76, 0
2, 895560, Note_on_c, 2, 76, 50
2, 895800, Note_off_c, 2, 76, 0
2, 895800, Note_on_c, 2, 76, 50
2, 896040, Note_off_c, 2, 76, 0
2, 896040, Note_on_c, 2, 76, 50
2, 896520, Note_off_c, 2, 76, 0
2, 896520, Note_on_c, 2, 76, 50
2, 896760, Note_off_c, 2, 76, 0
2, 896760, Note_on_c, 2, 74, 50
2, 897000, Note_off_c, 2, 74, 0
2, 897000, Note_on_c, 2, 76, 50
2, 897240, Note_off_c, 2, 76, 0
2, 897240, Note_on_c, 2, 76, 50
2, 897480, Note_off_c, 2, 76, 0
2, 897480, Note_on_c, 2, 76, 50
2, 897720, Note_off_c, 2, 76, 0
2, 897720, Note_on_c, 2, 77, 50
2, 898440, Note_off_c, 2, 77, 0
2, 898920, Note_on_c, 2, 76, 50
2, 899160, Note_off_c, 2, 76, 0
2, 899160, Note_on_c, 2, 76, 50
2, 899400, Note_off_c, 2, 76, 0
2, 899400, Note_on_c, 2, 76, 50
2, 899640, Note_off_c, 2, 76, 0
2, 899640, Note_on_c, 2, 76, 50
2, 899880, Note_off_c, 2, 76, 0
2, 899880, Note_on_c, 2, 76, 50
2, 900000, Note_off_c, 2, 76, 0
2, 900000, Note_on_c, 2, 74, 50
2, 900120, Note_off_c, 2, 74, 0
2, 900120, Note_on_c, 2, 72, 50
2, 902040, Note_off_c, 2, 72, 0
2, 902040, Note_on_c, 2, 72, 50
2, 903720, Note_off_c, 2, 72, 0
2, 921000, Note_on_c, 2, 62, 50
2, 921360, Note_off_c, 2, 62, 0
2, 921360, Note_on_c, 2, 61, 50
2, 921600, Note_off_c, 2, 61, 0
2, 921840, Note_on_c, 2, 65, 50
2, 922440, Note_off_c, 2, 65, 0
2, 922440, Note_on_c, 2, 62, 50
2, 922920, Note_off_c, 2, 62, 0
2, 922920, Note_on_c, 2, 65, 50
2, 923280, Note_off_c, 2, 65, 0
2, 923280, Note_on_c, 2, 67, 50
2, 923520, Note_off_c, 2, 67, 0
2, 923520, Note_on_c, 2, 65, 50
2, 923760, Note_off_c, 2, 65, 0
2, 923760, Note_on_c, 2, 70, 50
2, 924480, Note_off_c, 2, 70, 0
2, 924840, Note_on_c, 2, 70, 50
2, 925080, Note_off_c, 2, 70, 0
2, 925200, Note_on_c, 2, 74, 50
2, 925800, Note_off_c, 2, 74, 0
2, 925800, Note_on_c, 2, 70, 50
2, 926160, Note_off_c, 2, 70, 0
2, 926280, Note_on_c, 2, 67, 50
2, 926520, Note_off_c, 2, 67, 0
2, 926640, Note_on_c, 2, 72, 50
2, 928200, Note_off_c, 2, 72, 0
2, 928680, Note_on_c, 2, 69, 50
2, 928920, Note_off_c, 2, 69, 0
2, 929040, Note_on_c, 2, 69, 50
2, 929160, Note_off_c, 2, 69, 0
2, 929160, Note_on_c, 2, 70, 50
2, 929400, Note_off_c, 2, 70, 0
2, 929520, Note_on_c, 2, 72, 50
2, 929640, Note_off_c, 2, 72, 0
2, 929640, Note_on_c, 2, 69, 50
2, 929880, Note_off_c, 2, 69, 0
2, 930000, Note_on_c, 2, 69, 50
2, 930120, Note_off_c, 2, 69, 0
2, 930120, Note_on_c, 2, 70, 50
2, 930360, Note_off_c, 2, 70, 0
2, 930480, Note_on_c, 2, 72, 50
2, 930600, Note_off_c, 2, 72, 0
2, 930600, Note_on_c, 2, 69, 50
2, 930960, Note_off_c, 2, 69, 0
2, 931080, Note_on_c, 2, 68, 50
2, 931320, Note_off_c, 2, 68, 0
2, 931440, Note_on_c, 2, 67, 50
2, 932160, Note_off_c, 2, 67, 0
2, 932520, Note_on_c, 2, 69, 50
2, 932880, Note_off_c, 2, 69, 0
2, 933000, Note_on_c, 2, 70, 50
2, 933360, Note_off_c, 2, 70, 0
2, 933480, Note_on_c, 2, 71, 50
2, 933720, Note_off_c, 2, 71, 0
2, 933960, Note_on_c, 2, 72, 50
2, 934320, Note_off_c, 2, 72, 0
2, 934440, Note_on_c, 2, 74, 50
2, 934680, Note_off_c, 2, 74, 0
2, 934800, Note_on_c, 2, 73, 50
2, 934920, Note_off_c, 2, 73, 0
2, 934920, Note_on_c, 2, 72, 50
2, 935160, Note_off_c, 2, 72, 0
2, 935280, Note_on_c, 2, 70, 50
2, 935880, Note_off_c, 2, 70, 0
2, 936360, Note_on_c, 2, 62, 50
2, 936720, Note_off_c, 2, 62, 0
2, 936720, Note_on_c, 2, 61, 50
2, 936840, Note_off_c, 2, 61, 0
2, 936840, Note_on_c, 2, 62, 50
2, 937200, Note_off_c, 2, 62, 0
2, 937200, Note_on_c, 2, 65, 50
2, 937800, Note_off_c, 2, 65, 0
2, 937800, Note_on_c, 2, 62, 50
2, 938280, Note_off_c, 2, 62, 0
2, 938280, Note_on_c, 2, 65, 50
2, 938520, Note_off_c, 2, 65, 0
2, 938640, Note_on_c, 2, 67, 50
2, 938760, Note_off_c, 2, 67, 0
2, 938760, Note_on_c, 2, 65, 50
2, 939000, Note_off_c, 2, 65, 0
2, 939120, Note_on_c, 2, 70, 50
2, 939720, Note_off_c, 2, 70, 0
2, 940200, Note_on_c, 2, 74, 50
2, 940440, Note_off_c, 2, 74, 0
2, 940560, Note_on_c, 2, 74, 50
2, 941160, Note_off_c, 2, 74, 0
2, 941160, Note_on_c, 2, 72, 50
2, 941520, Note_off_c, 2, 72, 0
2, 941640, Note_on_c, 2, 67, 50
2, 941880, Note_off_c, 2, 67, 0
2, 942000, Note_on_c, 2, 70, 50
2, 943080, Note_off_c, 2, 70, 0
2, 944040, Note_on_c, 2, 70, 50
2, 944280, Note_off_c, 2, 70, 0
2, 944400, Note_on_c, 2, 67, 50
2, 944520, Note_off_c, 2, 67, 0
2, 944520, Note_on_c, 2, 70, 50
2, 944760, Note_off_c, 2, 70, 0
2, 944880, Note_on_c, 2, 73, 50
2, 945240, Note_off_c, 2, 73, 0
2, 945360, Note_on_c, 2, 72, 50
2, 945840, Note_off_c, 2, 72, 0
2, 945960, Note_on_c, 2, 70, 50
2, 946200, Note_off_c, 2, 70, 0
2, 946320, Note_on_c, 2, 70, 50
2, 946440, Note_off_c, 2, 70, 0
2, 946440, Note_on_c, 2, 72, 50
2, 946680, Note_off_c, 2, 72, 0
2, 946800, Note_on_c, 2, 69, 50
2, 947160, Note_off_c, 2, 69, 0
2, 947280, Note_on_c, 2, 67, 50
2, 947760, Note_off_c, 2, 67, 0
2, 947880, Note_on_c, 2, 74, 50
2, 948120, Note_off_c, 2, 74, 0
2, 948240, Note_on_c, 2, 74, 50
2, 948840, Note_off_c, 2, 74, 0
2, 948840, Note_on_c, 2, 74, 50
2, 949080, Note_off_c, 2, 74, 0
2, 949200, Note_on_c, 2, 74, 50
2, 949560, Note_off_c, 2, 74, 0
2, 949680, Note_on_c, 2, 70, 50
2, 950880, Note_off_c, 2, 70, 0
2, 959400, Note_on_c, 2, 67, 50
2, 960240, Note_off_c, 2, 67, 0
2, 960360, Note_on_c, 2, 69, 50
2, 961080, Note_off_c, 2, 69, 0
2, 961320, Note_on_c, 2, 70, 50
2, 961920, Note_off_c, 2, 70, 0
2, 962280, Note_on_c, 2, 77, 50
2, 963000, Note_off_c, 2, 77, 0
2, 963240, Note_on_c, 2, 74, 50
2, 965160, Note_off_c, 2, 74, 0
2, 965160, Note_on_c, 2, 74, 50
2, 967080, Note_off_c, 2, 74, 0
2, 967080, Note_on_c, 2, 74, 50
2, 967200, Note_off_c, 2, 74, 0
2, 969000, Note_on_c, 2, 74, 50
2, 969960, Note_off_c, 2, 74, 0
2, 969960, Note_on_c, 2, 72, 50
2, 970440, Note_off_c, 2, 72, 0
2, 970440, Note_on_c, 2, 70, 50
2, 970800, Note_off_c, 2, 70, 0
2, 970920, Note_on_c, 2, 72, 50
2, 971640, Note_off_c, 2, 72, 0
2, 971880, Note_on_c, 2, 72, 50
2, 972360, Note_off_c, 2, 72, 0
2, 972360, Note_on_c, 2, 67, 50
2, 974160, Note_off_c, 2, 67, 0
2, 974760, Note_on_c, 2, 70, 50
2, 975600, Note_off_c, 2, 70, 0
2, 975720, Note_on_c, 2, 67, 50
2, 976680, Note_off_c, 2, 67, 0
2, 976680, Note_on_c, 2, 65, 50
2, 977520, Note_off_c, 2, 65, 0
2, 977640, Note_on_c, 2, 67, 50
2, 978480, Note_off_c, 2, 67, 0
2, 978600, Note_on_c, 2, 70, 50
2, 980040, Note_off_c, 2, 70, 0
2, 984360, Note_on_c, 2, 62, 50
2, 984720, Note_off_c, 2, 62, 0
2, 984720, Note_on_c, 2, 61, 50
2, 984960, Note_off_c, 2, 61, 0
2, 985200, Note_on_c, 2, 65, 50
2, 985800, Note_off_c, 2, 65, 0
2, 985800, Note_on_c, 2, 62, 50
2, 986280, Note_off_c, 2, 62, 0
2, 986280, Note_on_c, 2, 65, 50
2, 986640, Note_off_c, 2, 65, 0
2, 986640, Note_on_c, 2, 67, 50
2, 986880, Note_off_c, 2, 67, 0
2, 986880, Note_on_c, 2, 65, 50
2, 987120, Note_off_c, 2, 65, 0
2, 987120, Note_on_c, 2, 70, 50
2, 987840, Note_off_c, 2, 70, 0
2, 988200, Note_on_c, 2, 70, 50
2, 988440, Note_off_c, 2, 70, 0
2, 988560, Note_on_c, 2, 74, 50
2, 989160, Note_off_c, 2, 74, 0
2, 989160, Note_on_c, 2, 70, 50
2, 989520, Note_off_c, 2, 70, 0
2, 989640, Note_on_c, 2, 67, 50
2, 989880, Note_off_c, 2, 67, 0
2, 990000, Note_on_c, 2, 72, 50
2, 991560, Note_off_c, 2, 72, 0
2, 992040, Note_on_c, 2, 69, 50
2, 992280, Note_off_c, 2, 69, 0
2, 992400, Note_on_c, 2, 69, 50
2, 992520, Note_off_c, 2, 69, 0
2, 992520, Note_on_c, 2, 70, 50
2, 992760, Note_off_c, 2, 70, 0
2, 992880, Note_on_c, 2, 72, 50
2, 993000, Note_off_c, 2, 72, 0
2, 993000, Note_on_c, 2, 69, 50
2, 993240, Note_off_c, 2, 69, 0
2, 993360, Note_on_c, 2, 69, 50
2, 993480, Note_off_c, 2, 69, 0
2, 993480, Note_on_c, 2, 70, 50
2, 993720, Note_off_c, 2, 70, 0
2, 993840, Note_on_c, 2, 72, 50
2, 993960, Note_off_c, 2, 72, 0
2, 993960, Note_on_c, 2, 69, 50
2, 994320, Note_off_c, 2, 69, 0
2, 994440, Note_on_c, 2, 68, 50
2, 994680, Note_off_c, 2, 68, 0
2, 994800, Note_on_c, 2, 67, 50
2, 995520, Note_off_c, 2, 67, 0
2, 995880, Note_on_c, 2, 69, 50
2, 996240, Note_off_c, 2, 69, 0
2, 996360, Note_on_c, 2, 70, 50
2, 996720, Note_off_c, 2, 70, 0
2, 996840, Note_on_c, 2, 71, 50
2, 997080, Note_off_c, 2, 71, 0
2, 997320, Note_on_c, 2, 72, 50
2, 997680, Note_off_c, 2, 72, 0
2, 997800, Note_on_c, 2, 74, 50
2, 998040, Note_off_c, 2, 74, 0
2, 998160, Note_on_c, 2, 73, 50
2, 998280, Note_off_c, 2, 73, 0
2, 998280, Note_on_c, 2, 72, 50
2, 998520, Note_off_c, 2, 72, 0
2, 998640, Note_on_c, 2, 70, 50
2, 999240, Note_off_c, 2, 70, 0
2, 999720, Note_on_c, 2, 62, 50
2, 1000080, Note_off_c, 2, 62, 0
2, 1000080, Note_on_c, 2, 61, 50
2, 1000200, Note_off_c, 2, 61, 0
2, 1000200, Note_on_c, 2, 62, 50
2, 1000560, Note_off_c, 2, 62, 0
2, 1000560, Note_on_c, 2, 65, 50
2, 1001160, Note_off_c, 2, 65, 0
2, 1001160, Note_on_c, 2, 62, 50
2, 1001640, Note_off_c, 2, 62, 0
2, 1001640, Note_on_c, 2, 65, 50
2, 1001880, Note_off_c, 2, 65, 0
2, 1002000, Note_on_c, 2, 67, 50
2, 1002120, Note_off_c, 2, 67, 0
2, 1002120, Note_on_c, 2, 65, 50
2, 1002360, Note_off_c, 2, 65, 0
2, 1002480, Note_on_c, 2, 70, 50
2, 1003080, Note_off_c, 2, 70, 0
2, 1003560, Note_on_c, 2, 74, 50
2, 1003800, Note_off_c, 2, 74, 0
2, 1003920, Note_on_c, 2, 74, 50
2, 1004520, Note_off_c, 2, 74, 0
2, 1004520, Note_on_c, 2, 72, 50
2, 1004880, Note_off_c, 2, 72, 0
2, 1005000, Note_on_c, 2, 67, 50
2, 1005240, Note_off_c, 2, 67, 0
2, 1005360, Note_on_c, 2, 70, 50
2, 1006440, Note_off_c, 2, 70, 0
2, 1007400, Note_on_c, 2, 70, 50
2, 1007640, Note_off_c, 2, 70, 0
2, 1007760, Note_on_c, 2, 67, 50
2, 1007880, Note_off_c, 2, 67, 0
2, 1007880, Note_on_c, 2, 70, 50
2, 1008120, Note_off_c, 2, 70, 0
2, 1008240, Note_on_c, 2, 73, 50
2, 1008600, Note_off_c, 2, 73, 0
2, 1008720, Note_on_c, 2, 72, 50
2, 1009200, Note_off_c, 2, 72, 0
2, 1009320, Note_on_c, 2, 70, 50
2, 1009560, Note_off_c, 2, 70, 0
2, 1009680, Note_on_c, 2, 70, 50
2, 1009800, Note_off_c, 2, 70, 0
2, 1009800, Note_on_c, 2, 72, 50
2, 1010040, Note_off_c, 2, 72, 0
2, 1010160, Note_on_c, 2, 69, 50
2, 1010520, Note_off_c, 2, 69, 0
2, 1010640, Note_on_c, 2, 67, 50
2, 1011120, Note_off_c, 2, 67, 0
2, 1011240, Note_on_c, 2, 74, 50
2, 1011480, Note_off_c, 2, 74, 0
2, 1011600, Note_on_c, 2, 74, 50
2, 1012200, Note_off_c, 2, 74, 0
2, 1012200, Note_on_c, 2, 74, 50
2, 1012440, Note_off_c, 2, 74, 0
2, 1012560, Note_on_c, 2, 74, 50
2, 1012920, Note_off_c, 2, 74, 0
2, 1013040, Note_on_c, 2, 70, 50
2, 1014240, Note_off_c, 2, 70, 0
2, 1015080, Note_on_c, 2, 70, 50
2, 1015440, Note_off_c, 2, 70, 0
2, 1015440, Note_on_c, 2, 67, 50
2, 1015560, Note_off_c, 2, 67, 0
2, 1015560, Note_on_c, 2, 70, 50
2, 1015920, Note_off_c, 2, 70, 0
2, 1015920, Note_on_c, 2, 67, 50
2, 1016040, Note_off_c, 2, 67, 0
2, 1016040, Note_on_c, 2, 70, 50
2, 1016400, Note_off_c, 2, 70, 0
2, 1016400, Note_on_c, 2, 67, 50
2, 1016520, Note_off_c, 2, 67, 0
2, 1016520, Note_on_c, 2, 70, 50
2, 1016880, Note_off_c, 2, 70, 0
2, 1016880, Note_on_c, 2, 67, 50
2, 1017000, Note_off_c, 2, 67, 0
2, 1017000, Note_on_c, 2, 70, 50
2, 1017360, Note_off_c, 2, 70, 0
2, 1017360, Note_on_c, 2, 67, 50
2, 1017480, Note_off_c, 2, 67, 0
2, 1017480, Note_on_c, 2, 70, 50
2, 1017840, Note_off_c, 2, 70, 0
2, 1017840, Note_on_c, 2, 67, 50
2, 1017960, Note_off_c, 2, 67, 0
2, 1017960, Note_on_c, 2, 70, 50
2, 1018440, Note_off_c, 2, 70, 0
2, 1018440, Note_on_c, 2, 63, 50
2, 1018800, Note_off_c, 2, 63, 0
2, 1018800, Note_on_c, 2, 65, 50
2, 1019280, Note_off_c, 2, 65, 0
2, 1019400, Note_on_c, 2, 65, 50
2, 1019520, Note_off_c, 2, 65, 0
2, 1019760, Note_on_c, 2, 65, 50
2, 1019880, Note_off_c, 2, 65, 0
2, 1019880, Note_on_c, 2, 65, 50
2, 1020240, Note_off_c, 2, 65, 0
2, 1020240, Note_on_c, 2, 67, 50
2, 1020840, Note_off_c, 2, 67, 0
2, 1020840, Note_on_c, 2, 62, 50
2, 1021800, Note_off_c, 2, 62, 0
2, 1022760, Note_on_c, 2, 67, 50
2, 1023600, Note_off_c, 2, 67, 0
2, 1023720, Note_on_c, 2, 69, 50
2, 1024440, Note_off_c, 2, 69, 0
2, 1024680, Note_on_c, 2, 70, 50
2, 1025400, Note_off_c, 2, 70, 0
2, 1025640, Note_on_c, 2, 77, 50
2, 1026360, Note_off_c, 2, 77, 0
2, 1026600, Note_on_c, 2, 74, 50
2, 1028400, Note_off_c, 2, 74, 0
2, 1032360, Note_on_c, 2, 74, 50
2, 1033200, Note_off_c, 2, 74, 0
2, 1033320, Note_on_c, 2, 72, 50
2, 1033800, Note_off_c, 2, 72, 0
2, 1033800, Note_on_c, 2, 70, 50
2, 1034280, Note_off_c, 2, 70, 0
2, 1034280, Note_on_c, 2, 72, 50
2, 1035000, Note_off_c, 2, 72, 0
2, 1035240, Note_on_c, 2, 72, 50
2, 1035720, Note_off_c, 2, 72, 0
2, 1035720, Note_on_c, 2, 67, 50
2, 1037280, Note_off_c, 2, 67, 0
2, 1038120, Note_on_c, 2, 70, 50
2, 1039080, Note_off_c, 2, 70, 0
2, 1039080, Note_on_c, 2, 67, 50
2, 1040040, Note_off_c, 2, 67, 0
2, 1040040, Note_on_c, 2, 65, 50
2, 1040880, Note_off_c, 2, 65, 0
2, 1041000, Note_on_c, 2, 67, 50
2, 1041840, Note_off_c, 2, 67, 0
2, 1041960, Note_on_c, 2, 70, 50
2, 1043040, Note_off_c, 2, 70, 0
2, 1047720, Note_on_c, 2, 62, 50
2, 1048080, Note_off_c, 2, 62, 0
2, 1048080, Note_on_c, 2, 61, 50
2, 1048320, Note_off_c, 2, 61, 0
2, 1048560, Note_on_c, 2, 65, 50
2, 1049160, Note_off_c, 2, 65, 0
2, 1049160, Note_on_c, 2, 62, 50
2, 1049640, Note_off_c, 2, 62, 0
2, 1049640, Note_on_c, 2, 65, 50
2, 1049880, Note_off_c, 2, 65, 0
2, 1050000, Note_on_c, 2, 67, 50
2, 1050120, Note_off_c, 2, 67, 0
2, 1050120, Note_on_c, 2, 65, 50
2, 1050360, Note_off_c, 2, 65, 0
2, 1050480, Note_on_c, 2, 70, 50
2, 1051440, Note_off_c, 2, 70, 0
2, 1051560, Note_on_c, 2, 70, 50
2, 1051920, Note_off_c, 2, 70, 0
2, 1051920, Note_on_c, 2, 74, 50
2, 1052520, Note_off_c, 2, 74, 0
2, 1052520, Note_on_c, 2, 70, 50
2, 1053000, Note_off_c, 2, 70, 0
2, 1053000, Note_on_c, 2, 67, 50
2, 1053240, Note_off_c, 2, 67, 0
2, 1053360, Note_on_c, 2, 72, 50
2, 1053960, Note_off_c, 2, 72, 0
2, 1055400, Note_on_c, 2, 69, 50
2, 1055520, Note_off_c, 2, 69, 0
2, 1055760, Note_on_c, 2, 69, 50
2, 1055880, Note_off_c, 2, 69, 0
2, 1055880, Note_on_c, 2, 70, 50
2, 1056120, Note_off_c, 2, 70, 0
2, 1056240, Note_on_c, 2, 72, 50
2, 1056360, Note_off_c, 2, 72, 0
2, 1056360, Note_on_c, 2, 69, 50
2, 1056600, Note_off_c, 2, 69, 0
2, 1056720, Note_on_c, 2, 69, 50
2, 1056840, Note_off_c, 2, 69, 0
2, 1056840, Note_on_c, 2, 70, 50
2, 1057200, Note_off_c, 2, 70, 0
2, 1057200, Note_on_c, 2, 72, 50
2, 1057440, Note_off_c, 2, 72, 0
2, 1057440, Note_on_c, 2, 69, 50
2, 1057920, Note_off_c, 2, 69, 0
2, 1057920, Note_on_c, 2, 68, 50
2, 1058160, Note_off_c, 2, 68, 0
2, 1058160, Note_on_c, 2, 67, 50
2, 1058760, Note_off_c, 2, 67, 0
2, 1059240, Note_on_c, 2, 69, 50
2, 1059600, Note_off_c, 2, 69, 0
2, 1059720, Note_on_c, 2, 70, 50
2, 1060080, Note_off_c, 2, 70, 0
2, 1060200, Note_on_c, 2, 71, 50
2, 1060440, Note_off_c, 2, 71, 0
2, 1060680, Note_on_c, 2, 72, 50
2, 1060920, Note_off_c, 2, 72, 0
2, 1061160, Note_on_c, 2, 74, 50
2, 1061520, Note_off_c, 2, 74, 0
2, 1061520, Note_on_c, 2, 73, 50
2, 1061760, Note_off_c, 2, 73, 0
2, 1061760, Note_on_c, 2, 72, 50
2, 1062000, Note_off_c, 2, 72, 0
2, 1062000, Note_on_c, 2, 70, 50
2, 1062720, Note_off_c, 2, 70, 0
2, 1063080, Note_on_c, 2, 62, 50
2, 1063440, Note_off_c, 2, 62, 0
2, 1063440, Note_on_c, 2, 61, 50
2, 1063560, Note_off_c, 2, 61, 0
2, 1063560, Note_on_c, 2, 62, 50
2, 1063920, Note_off_c, 2, 62, 0
2, 1063920, Note_on_c, 2, 65, 50
2, 1064520, Note_off_c, 2, 65, 0
2, 1064520, Note_on_c, 2, 62, 50
2, 1064880, Note_off_c, 2, 62, 0
2, 1065000, Note_on_c, 2, 65, 50
2, 1065360, Note_off_c, 2, 65, 0
2, 1065360, Note_on_c, 2, 67, 50
2, 1065480, Note_off_c, 2, 67, 0
2, 1065480, Note_on_c, 2, 65, 50
2, 1065720, Note_off_c, 2, 65, 0
2, 1065840, Note_on_c, 2, 70, 50
2, 1066920, Note_off_c, 2, 70, 0
2, 1067280, Note_on_c, 2, 74, 50
2, 1067640, Note_off_c, 2, 74, 0
2, 1067760, Note_on_c, 2, 74, 50
2, 1068000, Note_off_c, 2, 74, 0
2, 1068000, Note_on_c, 2, 72, 50
2, 1068480, Note_off_c, 2, 72, 0
2, 1068480, Note_on_c, 2, 67, 50
2, 1068720, Note_off_c, 2, 67, 0
2, 1068720, Note_on_c, 2, 70, 50
2, 1070640, Note_off_c, 2, 70, 0
2, 1070760, Note_on_c, 2, 70, 50
2, 1071120, Note_off_c, 2, 70, 0
2, 1071120, Note_on_c, 2, 67, 50
2, 1071360, Note_off_c, 2, 67, 0
2, 1071600, Note_on_c, 2, 73, 50
2, 1071960, Note_off_c, 2, 73, 0
2, 1072080, Note_on_c, 2, 72, 50
2, 1072680, Note_off_c, 2, 72, 0
2, 1072680, Note_on_c, 2, 70, 50
2, 1072920, Note_off_c, 2, 70, 0
2, 1073040, Note_on_c, 2, 70, 50
2, 1073160, Note_off_c, 2, 70, 0
2, 1073160, Note_on_c, 2, 72, 50
2, 1073400, Note_off_c, 2, 72, 0
2, 1073520, Note_on_c, 2, 69, 50
2, 1073880, Note_off_c, 2, 69, 0
2, 1074000, Note_on_c, 2, 67, 50
2, 1074600, Note_off_c, 2, 67, 0
2, 1074600, Note_on_c, 2, 74, 50
2, 1074840, Note_off_c, 2, 74, 0
2, 1074960, Note_on_c, 2, 74, 50
2, 1075440, Note_off_c, 2, 74, 0
2, 1075560, Note_on_c, 2, 74, 50
2, 1075800, Note_off_c, 2, 74, 0
2, 1075920, Note_on_c, 2, 74, 50
2, 1076280, Note_off_c, 2, 74, 0
2, 1076400, Note_on_c, 2, 70, 50
2, 1077480, Note_off_c, 2, 70, 0
2, 1089960, Note_on_c, 2, 65, 50
2, 1090200, Note_off_c, 2, 65, 0
2, 1090320, Note_on_c, 2, 68, 50
2, 1090440, Note_off_c, 2, 68, 0
2, 1090440, Note_on_c, 2, 68, 50
2, 1090680, Note_off_c, 2, 68, 0
2, 1090800, Note_on_c, 2, 68, 50
2, 1091280, Note_off_c, 2, 68, 0
2, 1091280, Note_on_c, 2, 66, 50
2, 1091520, Note_off_c, 2, 66, 0
2, 1091520, Note_on_c, 2, 65, 50
2, 1091760, Note_off_c, 2, 65, 0
2, 1091760, Note_on_c, 2, 63, 50
2, 1092120, Note_off_c, 2, 63, 0
2, 1092240, Note_on_c, 2, 66, 50
2, 1092360, Note_off_c, 2, 66, 0
2, 1092360, Note_on_c, 2, 66, 50
2, 1092600, Note_off_c, 2, 66, 0
2, 1092720, Note_on_c, 2, 66, 50
2, 1093200, Note_off_c, 2, 66, 0
2, 1093200, Note_on_c, 2, 65, 50
2, 1093320, Note_off_c, 2, 65, 0
2, 1093320, Note_on_c, 2, 65, 50
2, 1093560, Note_off_c, 2, 65, 0
2, 1093680, Note_on_c, 2, 65, 50
2, 1094040, Note_off_c, 2, 65, 0
2, 1094160, Note_on_c, 2, 63, 50
2, 1094280, Note_off_c, 2, 63, 0
2, 1094280, Note_on_c, 2, 63, 50
2, 1094400, Note_off_c, 2, 63, 0
2, 1094640, Note_on_c, 2, 63, 50
2, 1095120, Note_off_c, 2, 63, 0
2, 1095120, Note_on_c, 2, 61, 50
2, 1095240, Note_off_c, 2, 61, 0
2, 1095240, Note_on_c, 2, 63, 50
2, 1095480, Note_off_c, 2, 63, 0
2, 1095600, Note_on_c, 2, 65, 50
2, 1096200, Note_off_c, 2, 65, 0
2, 1097640, Note_on_c, 2, 65, 50
2, 1097880, Note_off_c, 2, 65, 0
2, 1098000, Note_on_c, 2, 68, 50
2, 1098120, Note_off_c, 2, 68, 0
2, 1098120, Note_on_c, 2, 68, 50
2, 1098360, Note_off_c, 2, 68, 0
2, 1098480, Note_on_c, 2, 68, 50
2, 1098960, Note_off_c, 2, 68, 0
2, 1098960, Note_on_c, 2, 66, 50
2, 1099080, Note_off_c, 2, 66, 0
2, 1099080, Note_on_c, 2, 65, 50
2, 1099440, Note_off_c, 2, 65, 0
2, 1099440, Note_on_c, 2, 63, 50
2, 1099800, Note_off_c, 2, 63, 0
2, 1099920, Note_on_c, 2, 66, 50
2, 1100040, Note_off_c, 2, 66, 0
2, 1100040, Note_on_c, 2, 66, 50
2, 1100280, Note_off_c, 2, 66, 0
2, 1100400, Note_on_c, 2, 66, 50
2, 1100760, Note_off_c, 2, 66, 0
2, 1100880, Note_on_c, 2, 65, 50
2, 1101000, Note_off_c, 2, 65, 0
2, 1101000, Note_on_c, 2, 65, 50
2, 1101240, Note_off_c, 2, 65, 0
2, 1101360, Note_on_c, 2, 65, 50
2, 1101840, Note_off_c, 2, 65, 0
2, 1101840, Note_on_c, 2, 63, 50
2, 1101960, Note_off_c, 2, 63, 0
2, 1101960, Note_on_c, 2, 63, 50
2, 1102080, Note_off_c, 2, 63, 0
2, 1102320, Note_on_c, 2, 63, 50
2, 1102680, Note_off_c, 2, 63, 0
2, 1102800, Note_on_c, 2, 61, 50
2, 1103040, Note_off_c, 2, 61, 0
2, 1103280, Note_on_c, 2, 65, 50
2, 1103880, Note_off_c, 2, 65, 0
2, 1104240, Note_on_c, 2, 68, 50
2, 1104600, Note_off_c, 2, 68, 0
2, 1104720, Note_on_c, 2, 61, 50
2, 1104840, Note_off_c, 2, 61, 0
2, 1104840, Note_on_c, 2, 65, 50
2, 1105200, Note_off_c, 2, 65, 0
2, 1105200, Note_on_c, 2, 63, 50
2, 1105320, Note_off_c, 2, 63, 0
2, 1105320, Note_on_c, 2, 63, 50
2, 1105680, Note_off_c, 2, 63, 0
2, 1105680, Note_on_c, 2, 61, 50
2, 1105800, Note_off_c, 2, 61, 0
2, 1105800, Note_on_c, 2, 61, 50
2, 1105920, Note_off_c, 2, 61, 0
2, 1106160, Note_on_c, 2, 61, 50
2, 1106520, Note_off_c, 2, 61, 0
2, 1106640, Note_on_c, 2, 61, 50
2, 1106760, Note_off_c, 2, 61, 0
2, 1106760, Note_on_c, 2, 61, 50
2, 1106880, Note_off_c, 2, 61, 0
2, 1107120, Note_on_c, 2, 61, 50
2, 1107720, Note_off_c, 2, 61, 0
2, 1108080, Note_on_c, 2, 68, 50
2, 1108560, Note_off_c, 2, 68, 0
2, 1108560, Note_on_c, 2, 61, 50
2, 1108680, Note_off_c, 2, 61, 0
2, 1108680, Note_on_c, 2, 65, 50
2, 1109040, Note_off_c, 2, 65, 0
2, 1109040, Note_on_c, 2, 63, 50
2, 1109280, Note_off_c, 2, 63, 0
2, 1109520, Note_on_c, 2, 61, 50
2, 1109640, Note_off_c, 2, 61, 0
2, 1109640, Note_on_c, 2, 61, 50
2, 1109760, Note_off_c, 2, 61, 0
2, 1110000, Note_on_c, 2, 61, 50
2, 1110360, Note_off_c, 2, 61, 0
2, 1110480, Note_on_c, 2, 61, 50
2, 1110600, Note_off_c, 2, 61, 0
2, 1110600, Note_on_c, 2, 61, 50
2, 1110720, Note_off_c, 2, 61, 0
2, 1110960, Note_on_c, 2, 61, 50
2, 1111560, Note_off_c, 2, 61, 0
2, 1111920, Note_on_c, 2, 68, 50
2, 1112400, Note_off_c, 2, 68, 0
2, 1112400, Note_on_c, 2, 61, 50
2, 1112520, Note_off_c, 2, 61, 0
2, 1112520, Note_on_c, 2, 65, 50
2, 1112880, Note_off_c, 2, 65, 0
2, 1112880, Note_on_c, 2, 63, 50
2, 1113120, Note_off_c, 2, 63, 0
2, 1113360, Note_on_c, 2, 61, 50
2, 1113480, Note_off_c, 2, 61, 0
2, 1113480, Note_on_c, 2, 61, 50
2, 1113600, Note_off_c, 2, 61, 0
2, 1113840, Note_on_c, 2, 61, 50
2, 1114200, Note_off_c, 2, 61, 0
2, 1114320, Note_on_c, 2, 61, 50
2, 1114440, Note_off_c, 2, 61, 0
2, 1114440, Note_on_c, 2, 61, 50
2, 1114560, Note_off_c, 2, 61, 0
2, 1114800, Note_on_c, 2, 61, 50
2, 1115400, Note_off_c, 2, 61, 0
2, 1120680, Note_on_c, 2, 65, 50
2, 1121040, Note_off_c, 2, 65, 0
2, 1121040, Note_on_c, 2, 68, 50
2, 1121160, Note_off_c, 2, 68, 0
2, 1121160, Note_on_c, 2, 68, 50
2, 1121280, Note_off_c, 2, 68, 0
2, 1121520, Note_on_c, 2, 68, 50
2, 1122000, Note_off_c, 2, 68, 0
2, 1122000, Note_on_c, 2, 66, 50
2, 1122120, Note_off_c, 2, 66, 0
2, 1122120, Note_on_c, 2, 65, 50
2, 1122480, Note_off_c, 2, 65, 0
2, 1122480, Note_on_c, 2, 63, 50
2, 1122720, Note_off_c, 2, 63, 0
2, 1122960, Note_on_c, 2, 66, 50
2, 1123080, Note_off_c, 2, 66, 0
2, 1123080, Note_on_c, 2, 66, 50
2, 1123200, Note_off_c, 2, 66, 0
2, 1123440, Note_on_c, 2, 66, 50
2, 1123800, Note_off_c, 2, 66, 0
2, 1128360, Note_on_c, 2, 65, 50
2, 1128720, Note_off_c, 2, 65, 0
2, 1128720, Note_on_c, 2, 68, 50
2, 1128840, Note_off_c, 2, 68, 0
2, 1128840, Note_on_c, 2, 68, 50
2, 1129200, Note_off_c, 2, 68, 0
2, 1129200, Note_on_c, 2, 68, 50
2, 1129680, Note_off_c, 2, 68, 0
2, 1129680, Note_on_c, 2, 66, 50
2, 1129800, Note_off_c, 2, 66, 0
2, 1129800, Note_on_c, 2, 65, 50
2, 1130160, Note_off_c, 2, 65, 0
2, 1130160, Note_on_c, 2, 63, 50
2, 1130400, Note_off_c, 2, 63, 0
2, 1130640, Note_on_c, 2, 66, 50
2, 1130760, Note_off_c, 2, 66, 0
2, 1130760, Note_on_c, 2, 66, 50
2, 1130880, Note_off_c, 2, 66, 0
2, 1131120, Note_on_c, 2, 66, 50
2, 1131480, Note_off_c, 2, 66, 0
2, 1134960, Note_on_c, 2, 68, 50
2, 1135440, Note_off_c, 2, 68, 0
2, 1135440, Note_on_c, 2, 61, 50
2, 1135560, Note_off_c, 2, 61, 0
2, 1135560, Note_on_c, 2, 65, 50
2, 1135800, Note_off_c, 2, 65, 0
2, 1135920, Note_on_c, 2, 63, 50
2, 1136040, Note_off_c, 2, 63, 0
2, 1136040, Note_on_c, 2, 63, 50
2, 1136400, Note_off_c, 2, 63, 0
2, 1136400, Note_on_c, 2, 61, 50
2, 1136520, Note_off_c, 2, 61, 0
2, 1136520, Note_on_c, 2, 61, 50
2, 1136640, Note_off_c, 2, 61, 0
2, 1136880, Note_on_c, 2, 61, 50
2, 1137240, Note_off_c, 2, 61, 0
2, 1137360, Note_on_c, 2, 61, 50
2, 1137480, Note_off_c, 2, 61, 0
2, 1137480, Note_on_c, 2, 61, 50
2, 1137600, Note_off_c, 2, 61, 0
2, 1137840, Note_on_c, 2, 61, 50
2, 1138440, Note_off_c, 2, 61, 0
2, 1138800, Note_on_c, 2, 68, 50
2, 1139280, Note_off_c, 2, 68, 0
2, 1139280, Note_on_c, 2, 61, 50
2, 1139400, Note_off_c, 2, 61, 0
2, 1139400, Note_on_c, 2, 65, 50
2, 1139760, Note_off_c, 2, 65, 0
2, 1139760, Note_on_c, 2, 63, 50
2, 1140000, Note_off_c, 2, 63, 0
2, 1140240, Note_on_c, 2, 61, 50
2, 1140360, Note_off_c, 2, 61, 0
2, 1140360, Note_on_c, 2, 61, 50
2, 1140480, Note_off_c, 2, 61, 0
2, 1140720, Note_on_c, 2, 61, 50
2, 1141080, Note_off_c, 2, 61, 0
2, 1141200, Note_on_c, 2, 61, 50
2, 1141320, Note_off_c, 2, 61, 0
2, 1141320, Note_on_c, 2, 61, 50
2, 1141440, Note_off_c, 2, 61, 0
2, 1141680, Note_on_c, 2, 61, 50
2, 1142280, Note_off_c, 2, 61, 0
2, 1142640, Note_on_c, 2, 68, 50
2, 1143120, Note_off_c, 2, 68, 0
2, 1143120, Note_on_c, 2, 61, 50
2, 1143240, Note_off_c, 2, 61, 0
2, 1143240, Note_on_c, 2, 65, 50
2, 1143600, Note_off_c, 2, 65, 0
2, 1143600, Note_on_c, 2, 63, 50
2, 1143840, Note_off_c, 2, 63, 0
2, 1144080, Note_on_c, 2, 61, 50
2, 1144200, Note_off_c, 2, 61, 0
2, 1144200, Note_on_c, 2, 61, 50
2, 1144320, Note_off_c, 2, 61, 0
2, 1144560, Note_on_c, 2, 61, 50
2, 1144920, Note_off_c, 2, 61, 0
2, 1145040, Note_on_c, 2, 61, 50
2, 1145160, Note_off_c, 2, 61, 0
2, 1145160, Note_on_c, 2, 61, 50
2, 1145280, Note_off_c, 2, 61, 0
2, 1145520, Note_on_c, 2, 61, 50
2, 1146120, Note_off_c, 2, 61, 0
2, 1146600, Note_on_c, 2, 68, 50
2, 1146960, Note_off_c, 2, 68, 0
2, 1146960, Note_on_c, 2, 70, 50
2, 1147560, Note_off_c, 2, 70, 0
2, 1147560, Note_on_c, 2, 73, 50
2, 1148400, Note_off_c, 2, 73, 0
2, 1148520, Note_on_c, 2, 73, 50
2, 1148640, Note_off_c, 2, 73, 0
2, 1148880, Note_on_c, 2, 73, 50
2, 1149360, Note_off_c, 2, 73, 0
2, 1149360, Note_on_c, 2, 72, 50
2, 1149840, Note_off_c, 2, 72, 0
2, 1149840, Note_on_c, 2, 70, 50
2, 1150320, Note_off_c, 2, 70, 0
2, 1151280, Note_on_c, 2, 63, 50
2, 1151400, Note_off_c, 2, 63, 0
2, 1151400, Note_on_c, 2, 65, 50
2, 1151760, Note_off_c, 2, 65, 0
2, 1151880, Note_on_c, 2, 65, 50
2, 1152360, Note_off_c, 2, 65, 0
2, 1152360, Note_on_c, 2, 63, 50
2, 1152720, Note_off_c, 2, 63, 0
2, 1152720, Note_on_c, 2, 65, 50
2, 1152840, Note_off_c, 2, 65, 0
2, 1152840, Note_on_c, 2, 63, 50
2, 1153200, Note_off_c, 2, 63, 0
2, 1153200, Note_on_c, 2, 61, 50
2, 1154160, Note_off_c, 2, 61, 0
2, 1154280, Note_on_c, 2, 68, 50
2, 1154640, Note_off_c, 2, 68, 0
2, 1154640, Note_on_c, 2, 70, 50
2, 1155240, Note_off_c, 2, 70, 0
2, 1155240, Note_on_c, 2, 73, 50
2, 1156080, Note_off_c, 2, 73, 0
2, 1156080, Note_on_c, 2, 77, 50
2, 1157040, Note_off_c, 2, 77, 0
2, 1157040, Note_on_c, 2, 72, 50
2, 1157520, Note_off_c, 2, 72, 0
2, 1157520, Note_on_c, 2, 70, 50
2, 1158000, Note_off_c, 2, 70, 0
2, 1158960, Note_on_c, 2, 63, 50
2, 1159080, Note_off_c, 2, 63, 0
2, 1159080, Note_on_c, 2, 65, 50
2, 1159440, Note_off_c, 2, 65, 0
2, 1159560, Note_on_c, 2, 65, 50
2, 1160040, Note_off_c, 2, 65, 0
2, 1160040, Note_on_c, 2, 63, 50
2, 1160400, Note_off_c, 2, 63, 0
2, 1160400, Note_on_c, 2, 65, 50
2, 1160520, Note_off_c, 2, 65, 0
2, 1160520, Note_on_c, 2, 63, 50
2, 1160880, Note_off_c, 2, 63, 0
2, 1160880, Note_on_c, 2, 61, 50
2, 1162200, Note_off_c, 2, 61, 0
2, 1162920, Note_on_c, 2, 65, 50
2, 1163280, Note_off_c, 2, 65, 0
2, 1163280, Note_on_c, 2, 68, 50
2, 1163400, Note_off_c, 2, 68, 0
2, 1163400, Note_on_c, 2, 68, 50
2, 1163520, Note_off_c, 2, 68, 0
2, 1163760, Note_on_c, 2, 68, 50
2, 1164240, Note_off_c, 2, 68, 0
2, 1164240, Note_on_c, 2, 66, 50
2, 1164360, Note_off_c, 2, 66, 0
2, 1164360, Note_on_c, 2, 65, 50
2, 1164720, Note_off_c, 2, 65, 0
2, 1164720, Note_on_c, 2, 63, 50
2, 1164960, Note_off_c, 2, 63, 0
2, 1165200, Note_on_c, 2, 66, 50
2, 1165320, Note_off_c, 2, 66, 0
2, 1165320, Note_on_c, 2, 66, 50
2, 1165440, Note_off_c, 2, 66, 0
2, 1165680, Note_on_c, 2, 66, 50
2, 1166040, Note_off_c, 2, 66, 0
2, 1170600, Note_on_c, 2, 65, 50
2, 1170960, Note_off_c, 2, 65, 0
2, 1170960, Note_on_c, 2, 68, 50
2, 1171080, Note_off_c, 2, 68, 0
2, 1171080, Note_on_c, 2, 68, 50
2, 1171440, Note_off_c, 2, 68, 0
2, 1171440, Note_on_c, 2, 68, 50
2, 1171920, Note_off_c, 2, 68, 0
2, 1171920, Note_on_c, 2, 66, 50
2, 1172040, Note_off_c, 2, 66, 0
2, 1172040, Note_on_c, 2, 65, 50
2, 1172400, Note_off_c, 2, 65, 0
2, 1172400, Note_on_c, 2, 63, 50
2, 1172640, Note_off_c, 2, 63, 0
2, 1172880, Note_on_c, 2, 66, 50
2, 1173000, Note_off_c, 2, 66, 0
2, 1173000, Note_on_c, 2, 66, 50
2, 1173120, Note_off_c, 2, 66, 0
2, 1173360, Note_on_c, 2, 66, 50
2, 1173720, Note_off_c, 2, 66, 0
2, 1177200, Note_on_c, 2, 68, 50
2, 1177680, Note_off_c, 2, 68, 0
2, 1177680, Note_on_c, 2, 61, 50
2, 1177800, Note_off_c, 2, 61, 0
2, 1177800, Note_on_c, 2, 65, 50
2, 1178040, Note_off_c, 2, 65, 0
2, 1178160, Note_on_c, 2, 63, 50
2, 1178280, Note_off_c, 2, 63, 0
2, 1178280, Note_on_c, 2, 63, 50
2, 1178640, Note_off_c, 2, 63, 0
2, 1178640, Note_on_c, 2, 61, 50
2, 1178760, Note_off_c, 2, 61, 0
2, 1178760, Note_on_c, 2, 61, 50
2, 1178880, Note_off_c, 2, 61, 0
2, 1179120, Note_on_c, 2, 61, 50
2, 1179480, Note_off_c, 2, 61, 0
2, 1179600, Note_on_c, 2, 61, 50
2, 1179720, Note_off_c, 2, 61, 0
2, 1179720, Note_on_c, 2, 61, 50
2, 1179840, Note_off_c, 2, 61, 0
2, 1180080, Note_on_c, 2, 61, 50
2, 1180680, Note_off_c, 2, 61, 0
2, 1181040, Note_on_c, 2, 68, 50
2, 1181520, Note_off_c, 2, 68, 0
2, 1181520, Note_on_c, 2, 61, 50
2, 1181640, Note_off_c, 2, 61, 0
2, 1181640, Note_on_c, 2, 65, 50
2, 1182000, Note_off_c, 2, 65, 0
2, 1182000, Note_on_c, 2, 63, 50
2, 1182240, Note_off_c, 2, 63, 0
2, 1182480, Note_on_c, 2, 61, 50
2, 1182600, Note_off_c, 2, 61, 0
2, 1182600, Note_on_c, 2, 61, 50
2, 1182720, Note_off_c, 2, 61, 0
2, 1182960, Note_on_c, 2, 61, 50
2, 1183320, Note_off_c, 2, 61, 0
2, 1183440, Note_on_c, 2, 61, 50
2, 1183560, Note_off_c, 2, 61, 0
2, 1183560, Note_on_c, 2, 61, 50
2, 1183680, Note_off_c, 2, 61, 0
2, 1183920, Note_on_c, 2, 61, 50
2, 1184520, Note_off_c, 2, 61, 0
2, 1184880, Note_on_c, 2, 68, 50
2, 1185360, Note_off_c, 2, 68, 0
2, 1185360, Note_on_c, 2, 61, 50
2, 1185480, Note_off_c, 2, 61, 0
2, 1185480, Note_on_c, 2, 65, 50
2, 1185840, Note_off_c, 2, 65, 0
2, 1185840, Note_on_c, 2, 63, 50
2, 1186080, Note_off_c, 2, 63, 0
2, 1186320, Note_on_c, 2, 61, 50
2, 1186440, Note_off_c, 2, 61, 0
2, 1186440, Note_on_c, 2, 61, 50
2, 1186560, Note_off_c, 2, 61, 0
2, 1186800, Note_on_c, 2, 61, 50
2, 1187160, Note_off_c, 2, 61, 0
2, 1187280, Note_on_c, 2, 61, 50
2, 1187400, Note_off_c, 2, 61, 0
2, 1187400, Note_on_c, 2, 61, 50
2, 1187520, Note_off_c, 2, 61, 0
2, 1187760, Note_on_c, 2, 61, 50
2, 1188360, Note_off_c, 2, 61, 0
2, 1188840, Note_on_c, 2, 68, 50
2, 1189200, Note_off_c, 2, 68, 0
2, 1189200, Note_on_c, 2, 70, 50
2, 1189800, Note_off_c, 2, 70, 0
2, 1189800, Note_on_c, 2, 73, 50
2, 1190640, Note_off_c, 2, 73, 0
2, 1190760, Note_on_c, 2, 73, 50
2, 1190880, Note_off_c, 2, 73, 0
2, 1191120, Note_on_c, 2, 73, 50
2, 1191600, Note_off_c, 2, 73, 0
2, 1191600, Note_on_c, 2, 72, 50
2, 1192080, Note_off_c, 2, 72, 0
2, 1192080, Note_on_c, 2, 70, 50
2, 1192560, Note_off_c, 2, 70, 0
2, 1193520, Note_on_c, 2, 63, 50
2, 1193640, Note_off_c, 2, 63, 0
2, 1193640, Note_on_c, 2, 65, 50
2, 1194000, Note_off_c, 2, 65, 0
2, 1194120, Note_on_c, 2, 65, 50
2, 1194600, Note_off_c, 2, 65, 0
2, 1194600, Note_on_c, 2, 63, 50
2, 1194960, Note_off_c, 2, 63, 0
2, 1194960, Note_on_c, 2, 65, 50
2, 1195080, Note_off_c, 2, 65, 0
2, 1195080, Note_on_c, 2, 63, 50
2, 1195440, Note_off_c, 2, 63, 0
2, 1195440, Note_on_c, 2, 61, 50
2, 1196400, Note_off_c, 2, 61, 0
2, 1196520, Note_on_c, 2, 68, 50
2, 1196880, Note_off_c, 2, 68, 0
2, 1196880, Note_on_c, 2, 70, 50
2, 1197480, Note_off_c, 2, 70, 0
2, 1197480, Note_on_c, 2, 73, 50
2, 1198320, Note_off_c, 2, 73, 0
2, 1198320, Note_on_c, 2, 77, 50
2, 1199280, Note_off_c, 2, 77, 0
2, 1199280, Note_on_c, 2, 72, 50
2, 1199760, Note_off_c, 2, 72, 0
2, 1199760, Note_on_c, 2, 70, 50
2, 1200120, Note_off_c, 2, 70, 0
2, 1200120, End_track, , , 
0, 0, End_of_file, , , 
